<?xml version="1.0" encoding="UTF-8" standalone="no"?>
<svg
   xml:space="preserve"
   width="1000"
   height="1000"
   version="1.1"
   style="clip-rule:evenodd;fill-rule:evenodd;image-rendering:optimizeQuality;shape-rendering:geometricPrecision;text-rendering:geometricPrecision"
   viewBox="0 0 1000 1000"
   id="svg10"
   sodipodi:docname="semicolon.svg"
   inkscape:version="1.1.1 (3bf5ae0d25, 2021-09-20)"
   xmlns:inkscape="http://www.inkscape.org/namespaces/inkscape"
   xmlns:sodipodi="http://sodipodi.sourceforge.net/DTD/sodipodi-0.dtd"
   xmlns="http://www.w3.org/2000/svg"
   xmlns:svg="http://www.w3.org/2000/svg"
   xmlns:rdf="http://www.w3.org/1999/02/22-rdf-syntax-ns#"
   xmlns:cc="http://creativecommons.org/ns#"
   xmlns:dc="http://purl.org/dc/elements/1.1/"><metadata
   id="metadata14"><rdf:RDF><cc:Work
       rdf:about=""><dc:format>image/svg+xml</dc:format><dc:type
         rdf:resource="http://purl.org/dc/dcmitype/StillImage" /></cc:Work></rdf:RDF></metadata><sodipodi:namedview
   pagecolor="#ffffff"
   bordercolor="#666666"
   borderopacity="1"
   objecttolerance="10"
   gridtolerance="10"
   guidetolerance="10"
   inkscape:pageopacity="0"
   inkscape:pageshadow="2"
   inkscape:window-width="1920"
   inkscape:window-height="1009"
   id="namedview12"
   showgrid="false"
   inkscape:zoom="0.84890884"
   inkscape:cx="166.68456"
   inkscape:cy="464.12522"
   inkscape:window-x="0"
   inkscape:window-y="0"
   inkscape:window-maximized="1"
   inkscape:current-layer="path860"
   showguides="true"
   inkscape:guide-bbox="true"
   inkscape:document-rotation="0"
   inkscape:pagecheckerboard="0"><sodipodi:guide
   position="0,1000"
   orientation="0,1"
   id="guide16"
   inkscape:label=""
   inkscape:locked="true"
   inkscape:color="rgb(0,0,255)" /><sodipodi:guide
   position="1763.3122,2036.1693"
   orientation="1000,0"
   id="guide18" /><sodipodi:guide
   position="0,200"
   orientation="0,1"
   id="guide20"
   inkscape:label="base"
   inkscape:locked="true"
   inkscape:color="rgb(0,0,255)" /><inkscape:grid
   type="xygrid"
   id="grid24"
   originx="-473.37552"
   originy="-489.69235" /><sodipodi:guide
   position="0,0"
   orientation="0,1"
   id="guide34"
   inkscape:label="bottom"
   inkscape:locked="true"
   inkscape:color="rgb(0,0,255)" /><sodipodi:guide
   position="225.05109,1693.3186"
   orientation="0,1"
   id="guide44"
   inkscape:label=""
   inkscape:locked="false"
   inkscape:color="rgb(0,0,255)" /><sodipodi:guide
   position="0,900"
   orientation="0,1"
   id="guide46"
   inkscape:label=""
   inkscape:locked="true"
   inkscape:color="rgb(0,0,255)" /><sodipodi:guide
   position="202.08444,512.1379"
   orientation="1,0"
   id="guide841"
   inkscape:label="width" />    <sodipodi:guide
   position="-210.85892,799.74293"
   orientation="0,-1"
   id="guide856" /></sodipodi:namedview>
 <defs
   id="defs4"><inkscape:path-effect
   effect="fillet_chamfer"
   id="path-effect1183"
   is_visible="true"
   lpeversion="1"
   satellites_param="F,0,1,1,0,10.50212,0,1 @ F,0,1,1,0,10.50212,0,1 @ F,0,0,1,0,0,0,1 @ F,0,0,1,0,10.50212,0,1 @ F,0,1,1,0,10.50212,0,1 @ F,0,0,1,0,0,0,1 | F,0,0,1,0,0,0,1 @ F,0,0,1,0,0,0,1 @ F,0,0,1,0,0,0,1 @ F,0,0,1,0,0,0,1 @ F,0,0,1,0,0,0,1 @ F,0,0,1,0,0,0,1 @ F,0,0,1,0,0,0,1 @ F,0,0,1,0,0,0,1"
   unit="px"
   method="auto"
   mode="F"
   radius="0"
   chamfer_steps="1"
   flexible="false"
   use_knot_distance="true"
   apply_no_radius="true"
   apply_with_radius="true"
   only_selected="false"
   hide_knots="false" /><inkscape:path-effect
   effect="fillet_chamfer"
   id="path-effect861"
   is_visible="true"
   lpeversion="1"
   satellites_param="F,0,0,1,0,11.111003,0,1 @ F,0,0,1,0,13.205235,0,1 @ F,0,0,1,0,0,0,1 @ F,0,0,1,0,11.218469,0,1 @ F,0,0,1,0,14.525916,0,1 @ F,0,0,1,0,0,0,1 | F,0,0,1,0,0,0,1 @ F,0,0,1,0,0,0,1 @ F,0,0,1,0,0,0,1 @ F,0,0,1,0,0,0,1 @ F,0,0,1,0,0,0,1 @ F,0,0,1,0,0,0,1 @ F,0,0,1,0,0,0,1 @ F,0,0,1,0,0,0,1"
   unit="px"
   method="auto"
   mode="F"
   radius="0"
   chamfer_steps="1"
   flexible="false"
   use_knot_distance="true"
   apply_no_radius="true"
   apply_with_radius="true"
   only_selected="true"
   hide_knots="false" /><inkscape:path-effect
   effect="spiro"
   id="path-effect862"
   is_visible="true"
   lpeversion="1" /><inkscape:path-effect
   effect="spiro"
   id="path-effect857"
   is_visible="true"
   lpeversion="1" /><inkscape:path-effect
   effect="spiro"
   id="path-effect137"
   is_visible="true"
   lpeversion="1" /><inkscape:path-effect
   effect="spiro"
   id="path-effect133"
   is_visible="true"
   lpeversion="1" /><inkscape:path-effect
   effect="spiro"
   id="path-effect114"
   is_visible="true"
   lpeversion="1" /><inkscape:path-effect
   effect="spiro"
   id="path-effect853"
   is_visible="true"
   lpeversion="1" /><inkscape:path-effect
   effect="spiro"
   id="path-effect928"
   is_visible="true"
   lpeversion="1" /><inkscape:path-effect
   effect="spiro"
   id="path-effect921"
   is_visible="true"
   lpeversion="1" /><inkscape:path-effect
   effect="spiro"
   id="path-effect917"
   is_visible="true"
   lpeversion="1" /><inkscape:path-effect
   effect="spiro"
   id="path-effect849"
   is_visible="true"
   lpeversion="1" /><inkscape:path-effect
   effect="spiro"
   id="path-effect851"
   is_visible="true"
   lpeversion="1" />
  <style
   type="text/css"
   id="style2">
   
    .fil0 {fill:#EF7F1A;fill-rule:nonzero}
   
  </style>
 <inkscape:path-effect
   effect="spiro"
   id="path-effect1214"
   is_visible="true"
   lpeversion="1" /><inkscape:path-effect
   effect="spiro"
   id="path-effect1195"
   is_visible="true"
   lpeversion="1" /><inkscape:path-effect
   effect="spiro"
   id="path-effect992"
   is_visible="true"
   lpeversion="1" /><inkscape:path-effect
   effect="spiro"
   id="path-effect1060"
   is_visible="true"
   lpeversion="1" /><inkscape:path-effect
   effect="spiro"
   id="path-effect1047"
   is_visible="true"
   lpeversion="1" /><inkscape:path-effect
   effect="spiro"
   id="path-effect1085"
   is_visible="true"
   lpeversion="1" /><inkscape:path-effect
   effect="spiro"
   id="path-effect1286"
   is_visible="true"
   lpeversion="1" /><inkscape:path-effect
   effect="spiro"
   id="path-effect117"
   is_visible="true"
   lpeversion="1" /></defs>
 
<g
   id="g862"><g
     id="g892"
     transform="matrix(1.2177554,0,0,1.2177554,-171.03917,-57.971742)" /><g
     id="path860"><path
       style="color:#000000;clip-rule:nonzero;fill:#1a5fb4;fill-rule:nonzero;stroke-linecap:round;stroke-linejoin:round;-inkscape-stroke:none;shape-rendering:auto"
       d="M 107.06055,240.22461 C 83.794828,240.183 60.588528,247.33698 41.372585,260.45069 22.547463,273.20104 7.6307748,291.60367 -0.96773631,312.65015 -9.6414234,333.667 -11.961322,357.24308 -7.5296156,379.54472 c 4.4546198,22.83639 15.9378016,44.23743 32.5225616,60.55832 16.522127,16.37609 38.056841,27.59239 60.940491,31.76642 22.351933,4.158 45.895203,1.54916 66.802273,-7.37965 20.94168,-8.85581 39.16128,-23.99879 51.6813,-42.98007 12.88093,-19.37974 19.75104,-42.6787 19.41968,-65.94807 -0.24794,-23.25824 -7.68462,-46.36822 -21.02943,-65.41703 -12.97896,-18.66499 -31.56042,-33.35325 -52.70727,-41.69434 -13.65796,-5.42234 -28.34397,-8.23295 -43.03944,-8.22569 z m 0,60 c 11.06688,0.0427 22.01777,3.55903 31.30322,9.52178 6.39306,4.08677 11.87532,9.56882 15.96178,15.9621 5.9623,9.28559 9.47749,20.23658 9.52015,31.30323 -0.0427,11.06665 -3.55785,22.01763 -9.52015,31.30322 -4.08646,6.39329 -9.56872,11.87534 -15.96178,15.96211 -9.28545,5.96275 -20.23634,9.47909 -31.30322,9.52178 -11.067379,-0.0428 -22.018788,-3.55906 -31.304858,-9.52178 -6.393276,-4.0866 -11.875601,-9.56875 -15.962107,-15.96211 -5.962296,-9.28559 -9.477483,-20.23657 -9.520148,-31.30322 0.04266,-11.06665 3.55785,-22.01764 9.520149,-31.30323 4.086506,-6.39335 9.56883,-11.8755 15.962106,-15.9621 9.278814,-5.95913 20.245032,-9.48202 31.304858,-9.52178 z m 79,181.99805 c -3.38723,0.0955 -6.72924,0.73727 -9.98718,1.64044 -47.13945,12.13577 -94.281434,24.26186 -141.419293,36.40367 -8.070113,2.25969 -15.344258,7.20297 -20.539198,13.76479 -4.4364165,5.5603 -7.0072918,12.51851 -7.4519082,19.60401 -0.520008,7.81569 1.3403154,15.75551 5.2045402,22.56382 12.065187,23.05788 17.510093,49.56673 15.358809,75.51074 -2.18363,25.5371 -12.003372,50.24061 -27.25748211,70.77478 -5.49925569,7.41303 -11.77798489,14.23575 -18.64787189,20.39701 -5.917771,5.49679 -9.966233,13.02791 -11.024572,21.05664 -1.106943,7.68069 0.620054,15.79107 5.084978,22.17653 4.27942,6.17908 10.583108,10.98707 17.7662669,13.26092 3.9531692,1.34414 8.1434344,1.76723 12.2990937,1.80375 27.0348134,0.71608 54.0692294,1.44945 81.1042934,2.15469 7.541628,0.13618 15.293604,-0.58151 22.236874,-3.73391 7.33777,-3.26388 13.32083,-8.84154 18.70098,-14.68069 33.85588,-36.06232 60.31861,-79.05583 77.06732,-125.6093 16.284,-45.09847 23.71375,-93.40607 21.49128,-141.31254 -0.76414,-9.99465 -5.4564,-19.66852 -12.91331,-26.3811 -7.31391,-6.5633 -17.31749,-9.76105 -27.07362,-9.39425 z m -20.10157,66.19921 c -2.47234,53.0036 -18.55294,105.47889 -47.16826,150.23691 -10.04991,15.75751 -21.562985,30.57681 -34.294626,44.25724 0.527582,0.36841 2.305883,0.40021 2.253886,0.40917 -0.852207,-0.0225 -1.704414,-0.0449 -2.556621,-0.0674 -0.564039,0.60705 -1.584463,1.81048 -1.838927,2.06585 0.399833,-0.54878 1.771466,-1.71231 1.347366,-2.08025 -8.321172,-0.22176 -16.642345,-0.44351 -24.963517,-0.66526 16.960162,-27.77876 27.106814,-59.76343 28.713938,-92.30077 1.361858,-26.63993 -2.838558,-53.52618 -12.088938,-78.53712 30.198569,-7.77279 60.397129,-15.54557 90.595699,-23.31836 z"
       id="path14659" /></g></g></svg>
