<?xml version="1.0" encoding="UTF-8" standalone="no"?>
<svg
   xml:space="preserve"
   width="1000"
   height="1000"
   version="1.1"
   style="clip-rule:evenodd;fill-rule:evenodd;image-rendering:optimizeQuality;shape-rendering:geometricPrecision;text-rendering:geometricPrecision"
   viewBox="0 0 1000 1000"
   id="svg10"
   sodipodi:docname="യ്യ.svg"
   inkscape:version="1.1.1 (3bf5ae0d25, 2021-09-20)"
   xmlns:inkscape="http://www.inkscape.org/namespaces/inkscape"
   xmlns:sodipodi="http://sodipodi.sourceforge.net/DTD/sodipodi-0.dtd"
   xmlns="http://www.w3.org/2000/svg"
   xmlns:svg="http://www.w3.org/2000/svg"
   xmlns:rdf="http://www.w3.org/1999/02/22-rdf-syntax-ns#"
   xmlns:cc="http://creativecommons.org/ns#"
   xmlns:dc="http://purl.org/dc/elements/1.1/"><metadata
   id="metadata14"><rdf:RDF><cc:Work
       rdf:about=""><dc:format>image/svg+xml</dc:format><dc:type
         rdf:resource="http://purl.org/dc/dcmitype/StillImage" /></cc:Work></rdf:RDF></metadata><sodipodi:namedview
   pagecolor="#ffffff"
   bordercolor="#666666"
   borderopacity="1"
   objecttolerance="10"
   gridtolerance="10"
   guidetolerance="10"
   inkscape:pageopacity="0"
   inkscape:pageshadow="2"
   inkscape:window-width="1920"
   inkscape:window-height="1009"
   id="namedview12"
   showgrid="false"
   inkscape:zoom="0.9588368"
   inkscape:cx="604.37814"
   inkscape:cy="718.57901"
   inkscape:window-x="0"
   inkscape:window-y="0"
   inkscape:window-maximized="1"
   inkscape:current-layer="path1253"
   showguides="true"
   inkscape:guide-bbox="true"
   inkscape:document-rotation="0"
   inkscape:snap-to-guides="true"
   inkscape:pagecheckerboard="0"><sodipodi:guide
     position="0,1000"
     orientation="0,1"
     id="guide16"
     inkscape:label=""
     inkscape:locked="true"
     inkscape:color="rgb(0,0,255)" /><sodipodi:guide
     position="1763.3122,2036.1693"
     orientation="1000,0"
     id="guide18" /><sodipodi:guide
     position="0,200"
     orientation="0,1"
     id="guide20"
     inkscape:label="base"
     inkscape:locked="true"
     inkscape:color="rgb(0,0,255)" /><inkscape:grid
     type="xygrid"
     id="grid24"
     originx="-473.37552"
     originy="-489.69235" /><sodipodi:guide
     position="0,0"
     orientation="0,1"
     id="guide34"
     inkscape:label="bottom"
     inkscape:locked="true"
     inkscape:color="rgb(0,0,255)" /><sodipodi:guide
     position="225.05109,1693.3186"
     orientation="0,1"
     id="guide44"
     inkscape:label=""
     inkscape:locked="false"
     inkscape:color="rgb(0,0,255)" /><sodipodi:guide
     position="0,900"
     orientation="0,1"
     id="guide46"
     inkscape:label=""
     inkscape:locked="true"
     inkscape:color="rgb(0,0,255)" /><sodipodi:guide
     position="806.90997,466.43399"
     orientation="-1,0"
     id="guide841"
     inkscape:label="width"
     inkscape:locked="false"
     inkscape:color="rgb(0,0,255)" /><sodipodi:guide
     position="0,1000"
     orientation="0,1000"
     id="guide860" /><sodipodi:guide
     position="1000,1000"
     orientation="1000,0"
     id="guide862" /><sodipodi:guide
     position="1000,0"
     orientation="0,-1000"
     id="guide864" /><sodipodi:guide
     position="0,0"
     orientation="-1000,0"
     id="guide866" /></sodipodi:namedview>
 <defs
   id="defs4"><inkscape:path-effect
   effect="fillet_chamfer"
   id="path-effect874"
   is_visible="true"
   lpeversion="1"
   satellites_param="F,0,0,1,0,0,0,1 @ F,0,0,1,0,0,0,1 @ F,0,0,1,0,0,0,1 @ F,0,0,1,0,0,0,1 @ F,0,0,1,0,0,0,1 @ F,0,0,1,0,0,0,1 @ F,0,0,1,0,0,0,1 @ F,0,0,1,0,0,0,1 @ F,0,0,1,0,0,0,1 @ F,0,0,1,0,0,0,1 @ F,0,0,1,0,0,0,1 @ F,0,0,1,0,0,0,1 @ F,0,0,1,0,0,0,1 @ F,0,0,1,0,0,0,1 @ F,0,0,1,0,0,0,1 @ F,0,0,1,0,0,0,1 @ F,0,0,1,0,0,0,1 @ F,0,0,1,0,0,0,1 @ F,0,0,1,0,0,0,1 @ F,0,0,1,0,0,0,1 @ F,0,0,1,0,0,0,1 @ F,0,0,1,0,0,0,1 @ F,0,0,1,0,0,0,1 @ F,0,0,1,0,0,0,1 @ F,0,0,1,0,0,0,1 @ F,0,0,1,0,0,0,1 @ F,0,0,1,0,0,0,1 @ F,0,0,1,0,0,0,1 @ F,0,0,1,0,0,0,1 @ F,0,0,1,0,0,0,1 @ F,0,0,1,0,0,0,1 @ F,0,0,1,0,0,0,1 @ F,0,0,1,0,0,0,1 @ F,0,0,1,0,0,0,1 @ F,0,0,1,0,0,0,1 @ F,0,0,1,0,0,0,1 @ F,0,0,1,0,0,0,1 @ F,0,0,1,0,0,0,1 @ F,0,0,1,0,0,0,1 @ F,0,0,1,0,0,0,1 @ F,0,0,1,0,0,0,1 @ F,0,0,1,0,0,0,1 @ F,0,0,1,0,0,0,1 @ F,0,0,1,0,0,0,1 @ F,0,0,1,0,0,0,1 @ F,0,0,1,0,0,0,1 @ F,0,0,1,0,0,0,1 @ F,0,0,1,0,0,0,1 @ F,0,0,1,0,0,0,1 @ F,0,0,1,0,13.032009,0,1 @ F,0,0,1,0,13.032009,0,1 @ F,0,0,1,0,0,0,1 @ F,0,0,1,0,0,0,1 @ F,0,0,1,0,0,0,1 @ F,0,0,1,0,0,0,1 @ F,0,0,1,0,0,0,1 @ F,0,0,1,0,0,0,1 @ F,0,0,1,0,0,0,1 @ F,0,0,1,0,0,0,1 @ F,0,0,1,0,0,0,1 @ F,0,0,1,0,15.295192,0,1 @ F,0,0,1,0,22.522273,0,1 @ F,0,0,1,0,0,0,1 @ F,0,0,1,0,0,0,1 @ F,0,0,1,0,0,0,1 @ F,0,0,1,0,0,0,1 @ F,0,0,1,0,0,0,1 @ F,0,0,1,0,0,0,1 @ F,0,0,1,0,0,0,1 @ F,0,0,1,0,0,0,1 @ F,0,0,1,0,0,0,1 @ F,0,0,1,0,0,0,1 @ F,0,0,1,0,0,0,1 @ F,0,0,1,0,0,0,1 @ F,0,0,1,0,0,0,1 @ F,0,0,1,0,0,0,1 @ F,0,0,1,0,0,0,1 @ F,0,0,1,0,0,0,1 @ F,0,0,1,0,0,0,1"
   unit="px"
   method="auto"
   mode="F"
   radius="0"
   chamfer_steps="1"
   flexible="false"
   use_knot_distance="true"
   apply_no_radius="true"
   apply_with_radius="true"
   only_selected="true"
   hide_knots="false" /><inkscape:path-effect
   effect="fillet_chamfer"
   id="path-effect863"
   is_visible="true"
   lpeversion="1"
   satellites_param="F,0,0,1,0,0,0,1 @ F,0,0,1,0,0,0,1 @ F,0,0,1,0,0,0,1 @ F,0,0,1,0,0,0,1 @ F,0,0,1,0,0,0,1 @ F,0,0,1,0,0,0,1 @ F,0,0,1,0,0,0,1 @ F,0,0,1,0,0,0,1 @ F,0,0,1,0,0,0,1 @ F,0,0,1,0,0,0,1 @ F,0,0,1,0,0,0,1 @ F,0,0,1,0,0,0,1 @ F,0,0,1,0,0,0,1 @ F,0,0,1,0,0,0,1 @ F,0,0,1,0,0,0,1 @ F,0,0,1,0,0,0,1 @ F,0,0,1,0,0,0,1 @ F,0,0,1,0,0,0,1 @ F,0,0,1,0,0,0,1 @ F,0,0,1,0,0,0,1 @ F,0,0,1,0,0,0,1 @ F,0,0,1,0,0,0,1 @ F,0,0,1,0,0,0,1 @ F,0,0,1,0,0,0,1 @ F,0,0,1,0,0,0,1 @ F,0,1,1,0,25.902887,0,1 @ F,0,1,1,0,25.902887,0,1 @ F,0,0,1,0,0,0,1 @ F,0,0,1,0,0,0,1 @ F,0,0,1,0,0,0,1 @ F,0,0,1,0,0,0,1 @ F,0,0,1,0,0,0,1 @ F,0,0,1,0,0,0,1 @ F,0,0,1,0,0,0,1 @ F,0,0,1,0,0,0,1 @ F,0,0,1,0,0,0,1 @ F,0,0,1,0,0,0,1 @ F,0,0,1,0,0,0,1 @ F,0,0,1,0,0,0,1 @ F,0,0,1,0,0,0,1 @ F,0,0,1,0,0,0,1 @ F,0,0,1,0,0,0,1 @ F,0,0,1,0,0,0,1 @ F,0,0,1,0,0,0,1 @ F,0,0,1,0,0,0,1 @ F,0,0,1,0,0,0,1 @ F,0,0,1,0,0,0,1 @ F,0,0,1,0,0,0,1 @ F,0,0,1,0,0,0,1 @ F,0,0,1,0,0,0,1 @ F,0,0,1,0,0,0,1 @ F,0,0,1,0,0,0,1 @ F,0,0,1,0,0,0,1 @ F,0,0,1,0,0,0,1 @ F,0,0,1,0,0,0,1"
   unit="px"
   method="auto"
   mode="F"
   radius="0"
   chamfer_steps="1"
   flexible="false"
   use_knot_distance="true"
   apply_no_radius="true"
   apply_with_radius="true"
   only_selected="true"
   hide_knots="false" /><inkscape:path-effect
   effect="spiro"
   id="path-effect861"
   is_visible="true"
   lpeversion="1" /><inkscape:path-effect
   effect="fillet_chamfer"
   id="path-effect859"
   is_visible="true"
   lpeversion="1"
   satellites_param="F,0,0,1,0,0,0,1 @ F,0,0,1,0,0,0,1 @ F,0,0,1,0,0,0,1 @ F,0,0,1,0,0,0,1 @ F,0,0,1,0,0,0,1 @ F,0,0,1,0,0,0,1 @ F,0,0,1,0,0,0,1 @ F,0,0,1,0,0,0,1 @ F,0,0,1,0,0,0,1 @ F,0,0,1,0,0,0,1 @ F,0,0,1,0,0,0,1 @ F,0,0,1,0,0,0,1 @ F,0,0,1,0,0,0,1 @ F,0,0,1,0,0,0,1 @ F,0,0,1,0,0,0,1 @ F,0,0,1,0,0,0,1 @ F,0,0,1,0,0,0,1 @ F,0,0,1,0,0,0,1 @ F,0,0,1,0,0,0,1 @ F,0,0,1,0,0,0,1 @ F,0,0,1,0,0,0,1 @ F,0,0,1,0,0,0,1 @ F,0,0,1,0,0,0,1 @ F,0,0,1,0,0,0,1 @ F,0,0,1,0,0,0,1 @ F,0,1,1,0,24.760319,0,1 @ F,0,1,1,0,24.760319,0,1 @ F,0,0,1,0,0,0,1 @ F,0,0,1,0,0,0,1 @ F,0,0,1,0,0,0,1 @ F,0,0,1,0,0,0,1 @ F,0,0,1,0,0,0,1 @ F,0,0,1,0,0,0,1 @ F,0,0,1,0,0,0,1 @ F,0,0,1,0,0,0,1 @ F,0,0,1,0,0,0,1 @ F,0,0,1,0,0,0,1 @ F,0,0,1,0,0,0,1 @ F,0,0,1,0,0,0,1 @ F,0,0,1,0,0,0,1 @ F,0,0,1,0,0,0,1 @ F,0,0,1,0,0,0,1 @ F,0,0,1,0,0,0,1 @ F,0,0,1,0,0,0,1 @ F,0,0,1,0,0,0,1 @ F,0,0,1,0,0,0,1 @ F,0,0,1,0,0,0,1 @ F,0,0,1,0,0,0,1 @ F,0,0,1,0,0,0,1 @ F,0,0,1,0,0,0,1 @ F,0,0,1,0,0,0,1 @ F,0,0,1,0,0,0,1 @ F,0,0,1,0,0,0,1 @ F,0,0,1,0,0,0,1 @ F,0,0,1,0,0,0,1"
   unit="px"
   method="auto"
   mode="F"
   radius="0"
   chamfer_steps="1"
   flexible="false"
   use_knot_distance="true"
   apply_no_radius="true"
   apply_with_radius="true"
   only_selected="true"
   hide_knots="false" /><inkscape:path-effect
   effect="fillet_chamfer"
   id="path-effect857"
   is_visible="true"
   lpeversion="1"
   satellites_param="F,0,0,1,0,0,0,1 @ F,0,0,1,0,0,0,1 @ F,0,0,1,0,0,0,1 @ F,0,0,1,0,0,0,1 @ F,0,0,1,0,0,0,1 @ F,0,0,1,0,0,0,1 @ F,0,0,1,0,0,0,1 @ F,0,0,1,0,0,0,1 @ F,0,0,1,0,0,0,1 @ F,0,0,1,0,0,0,1 @ F,0,0,1,0,0,0,1 @ F,0,0,1,0,0,0,1 @ F,0,0,1,0,0,0,1 @ F,0,0,1,0,0,0,1 @ F,0,0,1,0,0,0,1 @ F,0,0,1,0,0,0,1 @ F,0,0,1,0,0,0,1 @ F,0,0,1,0,0,0,1 @ F,0,0,1,0,0,0,1 @ F,0,0,1,0,0,0,1 @ F,0,0,1,0,0,0,1 @ F,0,0,1,0,0,0,1 @ F,0,0,1,0,0,0,1 @ F,0,0,1,0,0,0,1 @ F,0,0,1,0,0,0,1 @ F,0,0,1,0,16.927809,0,1 @ F,0,0,1,0,30.117285,0,1 @ F,0,0,1,0,0,0,1 @ F,0,0,1,0,0,0,1 @ F,0,0,1,0,0,0,1 @ F,0,0,1,0,0,0,1 @ F,0,0,1,0,0,0,1 @ F,0,0,1,0,0,0,1 @ F,0,0,1,0,0,0,1 @ F,0,0,1,0,0,0,1 @ F,0,0,1,0,0,0,1 @ F,0,0,1,0,0,0,1 @ F,0,0,1,0,0,0,1 @ F,0,0,1,0,0,0,1 @ F,0,0,1,0,0,0,1 @ F,0,0,1,0,0,0,1 @ F,0,0,1,0,0,0,1 @ F,0,0,1,0,0,0,1 @ F,0,0,1,0,0,0,1 @ F,0,0,1,0,0,0,1 @ F,0,0,1,0,0,0,1 @ F,0,0,1,0,0,0,1 @ F,0,0,1,0,0,0,1 @ F,0,0,1,0,0,0,1 @ F,0,0,1,0,0,0,1 @ F,0,0,1,0,0,0,1 @ F,0,0,1,0,0,0,1 @ F,0,0,1,0,0,0,1 @ F,0,0,1,0,0,0,1 @ F,0,0,1,0,0,0,1"
   unit="px"
   method="auto"
   mode="F"
   radius="0"
   chamfer_steps="1"
   flexible="false"
   use_knot_distance="true"
   apply_no_radius="true"
   apply_with_radius="true"
   only_selected="true"
   hide_knots="false" /><inkscape:path-effect
   effect="spiro"
   id="path-effect862"
   is_visible="true"
   lpeversion="1" /><inkscape:path-effect
   effect="spiro"
   id="path-effect1521"
   is_visible="true"
   lpeversion="1" /><inkscape:path-effect
   effect="spiro"
   id="path-effect858"
   is_visible="true"
   lpeversion="1" /><inkscape:path-effect
   effect="spiro"
   id="path-effect854"
   is_visible="true"
   lpeversion="1" />
  <style
   type="text/css"
   id="style2">
   
    .fil0 {fill:#EF7F1A;fill-rule:nonzero}
   
  </style>
 <inkscape:path-effect
   effect="spiro"
   id="path-effect1214"
   is_visible="true"
   lpeversion="1" /><inkscape:path-effect
   effect="spiro"
   id="path-effect1195"
   is_visible="true"
   lpeversion="1" /><inkscape:path-effect
   effect="spiro"
   id="path-effect992"
   is_visible="true"
   lpeversion="1" /><inkscape:path-effect
   effect="spiro"
   id="path-effect287"
   is_visible="true"
   lpeversion="1" /><inkscape:path-effect
   effect="spiro"
   id="path-effect1032"
   is_visible="true"
   lpeversion="1" /><inkscape:path-effect
   effect="spiro"
   id="path-effect1218"
   is_visible="true"
   lpeversion="1" /><inkscape:path-effect
   effect="spiro"
   id="path-effect309"
   is_visible="true"
   lpeversion="1" /><inkscape:path-effect
   effect="spiro"
   id="path-effect1176"
   is_visible="true"
   lpeversion="1" /><inkscape:path-effect
   effect="spiro"
   id="path-effect1026"
   is_visible="true"
   lpeversion="1" /><inkscape:path-effect
   effect="spiro"
   id="path-effect1255"
   is_visible="true"
   lpeversion="1" /></defs>
 
<g
   id="path1253"><path
     style="color:#000000;clip-rule:nonzero;fill:#1a5fb4;fill-rule:nonzero;stroke-linecap:round;stroke-linejoin:round;-inkscape-stroke:none;shape-rendering:auto"
     d="m 661.69141,71.404297 c -14.93496,0.269562 -29.42893,8.845569 -36.66906,21.942358 -3.2625,5.589646 -4.75962,11.960425 -5.66863,18.308875 -3.3459,20.29402 -4.95668,40.89952 -4.48241,61.46759 0.10055,2.43768 0.26186,4.87246 0.35525,7.31047 C 604.24231,163.18573 590.9004,147.42506 575.46505,133.99612 547.67331,109.63121 513.09299,92.632513 476.38056,87.402063 440.7412,82.22102 403.92648,88.220091 371.0011,102.49534 c -34.97225,15.09679 -65.53534,39.30909 -90.29217,68.08055 -8.83842,10.22689 -16.88387,21.12408 -24.26752,32.44169 -17.25077,-14.58533 -37.58286,-25.8528 -59.65691,-31.06619 -26.78153,-6.47315 -55.34742,-3.91361 -81.05791,5.69677 -28.144104,10.40255 -52.78195,29.05663 -72.153066,51.80268 -24.123657,28.27093 -40.6962658,62.40852 -50.9776696,97.97503 -11.5448374,40.18544 -15.9543644,82.25804 -14.7373894,123.99393 1.629279,52.55257 12.228537,104.69729 29.9599084,154.14608 16.6104196,45.9601 40.4564516,89.79494 73.4207786,126.11689 24.763108,27.4379 54.833148,50.11938 88.264668,65.93174 47.71469,22.75244 102.21519,31.74182 154.57732,23.63877 42.22802,-6.41896 82.40104,-23.65477 117.53387,-47.72926 7.92407,-5.41494 15.61275,-11.17312 23.05491,-17.233 7.41594,8.18842 15.63878,15.60784 24.03906,22.76757 -16.28963,25.30056 -36.67256,47.89135 -59.84219,67.06549 -27.55064,22.85848 -58.90082,41.02466 -92.18512,54.14572 -11.98752,5.16768 -22.32925,15.13272 -26.11084,27.83701 -3.48703,11.10815 -1.22824,23.42766 4.65231,33.30937 2.89806,5.08818 6.86407,9.45654 11.23535,13.3149 14.7674,13.67887 29.49955,27.39622 44.28944,41.05052 8.21406,7.4416 18.28998,13.1911 29.3707,14.8066 8.23581,1.3727 16.5964,0.4887 24.81106,-0.5667 43.7364,-5.0752 87.88525,-5.0342 131.83407,-3.5809 42.56866,1.3541 85.09872,3.9791 127.69182,4.5166 20.81427,0.1543 42.06654,-2.0817 61.35331,-10.3696 16.61553,-7.0084 31.20217,-18.8638 41.07321,-33.99359 11.45793,-17.29416 16.83114,-37.86228 18.96872,-58.3032 1.51746,-14.81639 1.68462,-29.72497 2.37486,-44.59242 1.64433,-43.14262 3.22311,-86.30343 6.70614,-129.3464 5.14222,-66.33839 11.78041,-132.83042 8.7986,-199.44699 -1.43502,-36.29282 -6.59661,-72.31356 -13.01072,-108.02626 -7.71885,-43.9146 -17.36511,-87.64095 -20.56747,-132.20481 -1.97296,-27.15316 -0.98433,-54.65499 4.68265,-81.33649 6.01082,-28.92022 16.87381,-56.80136 31.87442,-82.2408 5.98795,-11.24291 6.82516,-25.53142 0.64825,-36.88047 C 821.33846,103.18172 809.63812,95.787999 797.29648,94.063261 754.59794,86.667152 711.90529,79.235403 669.20307,71.86159 c -2.48455,-0.367867 -5.00081,-0.521905 -7.51166,-0.457293 z m 15.11718,62.658203 c 27.86003,4.83138 55.72005,9.66276 83.58008,14.49414 -18.16495,38.63741 -28.75701,80.82453 -30.80616,123.47928 -2.4797,46.21822 4.05822,92.32116 12.49463,137.64788 8.06116,43.79748 17.96086,87.45823 20.7969,132.01352 2.38891,35.20185 1.56856,70.53492 -0.38381,105.73627 -8.43731,-2.87346 -17.73469,-1.20706 -25.27562,3.23633 -11.14966,6.03581 -22.29933,12.07161 -33.44899,18.10742 20.21039,-26.69738 32.8112,-58.62628 38.90461,-91.41584 7.40306,-39.52192 5.5853,-80.25641 -1.13529,-119.73459 -8.06863,-47.77667 -23.47905,-93.83548 -37.65659,-140.03917 -11.89645,-39.13083 -23.15314,-78.76788 -27.4468,-119.56962 -2.28299,-21.25521 -2.22831,-42.73459 0.37704,-63.95562 z m -229.50976,11.58203 c 17.05993,-0.57915 34.17896,2.74369 49.89357,9.37256 26.74696,11.17943 49.67331,30.79537 65.7143,54.86152 18.94996,28.23836 29.50394,61.57914 32.91027,95.27195 4.10422,40.43327 -1.555,81.24149 -11.50794,120.44253 -9.49592,37.09277 -22.70198,73.1289 -37.40908,108.44538 -11.761,27.96082 -24.98965,55.35807 -40.63433,81.36778 -4.56407,-7.36972 -8.80706,-14.93212 -12.9746,-22.53125 25.04247,-40.28226 40.95478,-85.75409 49.85043,-132.20546 8.52688,-44.8769 10.22706,-91.14825 4.04522,-136.44152 -3.22755,-23.0791 -9.71068,-46.01666 -21.71275,-66.14038 -10.7831,-18.23911 -26.22243,-33.98335 -45.15556,-43.72241 -20.55056,-10.73673 -44.65328,-13.99039 -67.44045,-10.13908 -24.54719,4.03314 -47.4179,16.10816 -65.57146,32.97577 -13.25591,12.18642 -23.96192,26.96206 -32.31231,42.8723 -5.34498,-10.07618 -10.94438,-20.03133 -17.20703,-29.57031 16.14627,-28.95418 37.97165,-55.01506 64.8835,-74.52848 19.46493,-14.12624 41.92886,-24.39224 65.71491,-28.42481 6.24987,-1.07317 12.57388,-1.72525 18.91331,-1.90609 z m -279.1836,82.83594 c 11.77068,0.0916 23.35207,3.56539 33.56252,9.34025 9.70584,5.41095 18.38467,12.52526 26.11717,20.4742 -7.45751,18.88387 -13.07892,38.49869 -16.65625,58.48633 l -0.4411,4.7707 0.32391,4.78008 c -6.37807,-4.49581 -13.47874,-7.86887 -20.71883,-10.7281 -16.69471,-6.50616 -35.2707,-8.63868 -52.85929,-4.80901 -20.51846,4.29668 -38.900947,16.55878 -51.925155,32.83362 -14.400531,17.8463 -22.432489,40.13168 -25.518852,62.6863 -2.87441,20.88896 -1.774572,42.07005 -0.141784,63.01169 3.497232,41.42722 12.825975,82.73199 30.927073,120.32121 17.251468,35.89269 42.664758,68.29232 75.304798,91.38651 29.40252,20.96116 64.59647,33.43997 100.53352,36.44606 45.92091,3.94999 92.73622,-7.4984 132.33864,-30.88139 2.69058,-1.58009 5.35174,-3.21018 7.98371,-4.88603 6.24056,9.51371 12.61358,18.9437 19.28711,28.16016 -27.82705,22.46041 -59.9415,40.25525 -94.82716,48.80593 -34.06972,8.47431 -70.28706,6.70757 -103.86099,-3.16907 -35.7311,-10.44413 -68.8136,-30.0164 -94.8061,-56.70973 C 104.46036,670.00663 83.785124,634.50877 68.855961,597.20416 55.433094,563.37952 46.259181,527.87922 41.351743,491.82782 35.276971,446.40983 36.386774,399.72408 47.300657,355.10878 54.219086,327.1931 65.301636,299.93708 82.557913,276.759 c 12.339436,-16.46545 27.905827,-30.96487 46.673827,-39.75683 12.13065,-5.6007 25.49284,-8.75148 38.88349,-8.5217 z m 258.78907,34.4668 c 11.23322,-0.88042 23.12719,1.59942 32.07862,8.72378 11.23889,8.79166 18.63919,21.65751 22.95809,35.08922 5.65468,17.59218 7.44648,36.13604 8.48591,54.49749 2.20165,44.5531 -3.82062,89.46691 -17.29112,131.97509 -4.09148,12.78852 -8.92151,25.34426 -14.5401,37.54059 -34.61394,-59.26642 -73.00053,-116.29608 -105.84179,-176.60157 3.90302,-19.52967 10.05205,-38.95251 20.94421,-55.77938 9.31526,-14.43803 22.84878,-26.54216 39.1459,-32.41544 4.52695,-1.62282 9.26358,-2.66294 14.06028,-3.02978 z m 228.86523,102.41796 c 12.09802,39.44026 23.96312,79.22934 29.18901,120.2691 3.98575,31.14342 3.61901,63.18778 -4.28988,93.71172 -6.18876,23.96248 -17.32232,47.09816 -34.68719,64.98102 -12.32864,12.76137 -27.91115,22.90563 -45.41868,26.66629 -13.54635,3.01547 -28.17775,2.47409 -40.947,-3.28626 -3.98584,-1.73778 -7.80567,-3.84276 -11.46149,-6.19343 30.59914,-47.06029 53.22958,-98.77407 72.5099,-151.34376 17.04456,-46.72807 30.74086,-95.09286 35.10533,-144.80468 z m -500.05859,3.64258 c 10.75245,0.38868 20.77998,5.39636 29.11926,11.93373 12.14047,9.49808 22.17901,21.32345 32.01746,33.10254 22.73112,27.71898 42.59672,57.60802 63.95279,86.36568 28.76962,39.12899 58.88273,77.32511 85.55341,117.95256 2.75262,4.26215 5.4381,8.56711 8.16958,12.84276 -26.57627,17.15067 -58.00973,26.956 -89.6959,27.03806 -30.46096,0.0503 -61.13407,-9.19478 -85.69832,-27.39503 -23.9322,-17.63286 -42.37733,-42.02538 -55.02346,-68.78282 -14.79918,-31.50096 -21.94899,-66.0866 -24.68848,-100.63295 -1.27979,-17.62855 -2.1304,-35.53703 1.15566,-53.00657 2.22141,-11.55573 6.89734,-23.12378 15.56396,-31.35744 5.28105,-4.86127 12.23422,-8.4535 19.57404,-8.06052 z m 195.11133,100.54102 c 24.31188,39.42876 49.15022,78.56641 71.64453,119.07812 -1.04244,0.92384 -2.24886,3.89049 -3.07518,1.33653 -12.42621,-19.48319 -25.86182,-38.30056 -39.44793,-56.98584 -10.6318,-14.56148 -21.45652,-28.98057 -32.26986,-43.40733 3.36499,-6.07617 4.27023,-13.21626 3.14844,-20.02148 z m 161.45117,240.25586 c 2.68622,1.83073 5.4101,3.60918 8.21484,5.2539 -1.78136,2.55148 -2.48581,5.61752 -3.69726,8.44532 -3.13155,-2.80148 -6.19128,-5.68219 -8.94532,-8.86133 1.44601,-1.63973 3.04765,-3.1401 4.42774,-4.83789 z m 102.25781,41.65039 c -2.51042,6.7714 -5.44133,13.38578 -8.74609,19.80664 -13.41401,-2.05178 -26.53756,-6.10006 -38.72266,-12.08203 0.89203,-1.35015 0.80344,-4.03473 2.93477,-3.6654 14.84466,-1.35307 29.68932,-2.70614 44.53398,-4.05921 z m 139.50781,14.22461 c -1.95167,24.18988 -3.04286,48.43836 -4.08173,72.68151 -1.03691,23.91375 -1.74011,47.84197 -2.91213,71.7496 -0.7978,12.39588 -1.71242,25.11401 -6.7204,36.65008 -2.76406,6.39939 -6.91964,12.52167 -13.12294,16.00262 -10.52876,6.26165 -23.01757,7.66774 -35.03741,8.04344 -14.75606,0.36276 -29.51128,-0.35885 -44.25795,-0.80038 -30.39871,-1.09941 -60.77731,-2.71062 -91.18189,-3.655 14.20607,0.0819 28.41064,0.32567 42.61641,0.41902 21.05083,0.0742 42.35689,-1.64683 62.49396,-8.1374 20.61998,-6.55023 39.87586,-18.47994 53.34805,-35.59403 11.51058,-14.44971 18.17874,-32.43506 19.85885,-50.7675 2.05998,-21.28088 -1.97241,-42.63125 -7.95699,-62.98854 -1.12667,-3.86637 -2.31441,-7.71455 -3.50872,-11.56045 11.58876,-9.19356 21.93489,-19.94512 30.46289,-32.04297 z m -215.30273,46.48828 c 8.9752,4.49158 18.3183,8.22025 27.88086,11.25976 -17.96949,18.2933 -37.47029,34.98294 -56.88341,51.70603 -12.04255,10.29399 -24.20232,20.45057 -36.45839,30.48929 -7.73759,-0.0347 -15.47527,0.004 -23.21289,-0.0156 32.21206,-23.72963 60.82071,-52.51666 83.41945,-85.58409 1.78494,-2.59586 3.5363,-5.21482 5.25438,-7.85539 z m 130.61133,13.81445 c 3.70635,12.96982 7.19258,26.41918 5.87177,40.02499 -0.66376,7.50018 -2.86227,15.17098 -7.9995,20.86965 -7.57868,8.80651 -18.70037,13.62409 -29.77402,16.31894 -15.74807,3.65443 -32.0389,3.53384 -48.11099,3.47517 -8.05076,-0.11389 -16.1022,-0.15866 -24.15328,-0.24148 17.35673,-14.99623 34.51198,-30.29625 50.23605,-47.02143 8.15841,-8.70032 15.89671,-17.80487 22.99051,-27.39654 10.50387,-0.89404 20.86004,-2.95594 30.93946,-6.0293 z M 494.3125,965.76562 c 0.74479,-0.0898 -0.14646,0.10224 0,0 z"
     id="path16368" /></g></svg>
