<?xml version="1.0" encoding="UTF-8" standalone="no"?>
<svg
   xml:space="preserve"
   width="1000"
   height="1000"
   version="1.1"
   style="clip-rule:evenodd;fill-rule:evenodd;image-rendering:optimizeQuality;shape-rendering:geometricPrecision;text-rendering:geometricPrecision"
   viewBox="0 0 1000 1000"
   id="svg10"
   sodipodi:docname="ഹൂ.svg"
   inkscape:version="1.1.1 (3bf5ae0d25, 2021-09-20)"
   xmlns:inkscape="http://www.inkscape.org/namespaces/inkscape"
   xmlns:sodipodi="http://sodipodi.sourceforge.net/DTD/sodipodi-0.dtd"
   xmlns="http://www.w3.org/2000/svg"
   xmlns:svg="http://www.w3.org/2000/svg"
   xmlns:rdf="http://www.w3.org/1999/02/22-rdf-syntax-ns#"
   xmlns:cc="http://creativecommons.org/ns#"
   xmlns:dc="http://purl.org/dc/elements/1.1/"><metadata
   id="metadata14"><rdf:RDF><cc:Work
       rdf:about=""><dc:format>image/svg+xml</dc:format><dc:type
         rdf:resource="http://purl.org/dc/dcmitype/StillImage" /></cc:Work></rdf:RDF></metadata><sodipodi:namedview
   pagecolor="#ffffff"
   bordercolor="#666666"
   borderopacity="1"
   objecttolerance="10"
   gridtolerance="10"
   guidetolerance="10"
   inkscape:pageopacity="0"
   inkscape:pageshadow="2"
   inkscape:window-width="1920"
   inkscape:window-height="1009"
   id="namedview12"
   showgrid="false"
   inkscape:zoom="0.79682018"
   inkscape:cx="438.61841"
   inkscape:cy="651.33893"
   inkscape:window-x="0"
   inkscape:window-y="0"
   inkscape:window-maximized="1"
   inkscape:current-layer="path856"
   showguides="true"
   inkscape:guide-bbox="true"
   inkscape:document-rotation="0"
   inkscape:pagecheckerboard="0"><sodipodi:guide
     position="0,1000"
     orientation="0,1"
     id="guide16"
     inkscape:label=""
     inkscape:locked="true"
     inkscape:color="rgb(0,0,255)" /><sodipodi:guide
     position="1763.3122,2036.1693"
     orientation="1000,0"
     id="guide18" /><sodipodi:guide
     position="0,200"
     orientation="0,1"
     id="guide20"
     inkscape:label="base"
     inkscape:locked="true"
     inkscape:color="rgb(0,0,255)" /><inkscape:grid
     type="xygrid"
     id="grid24"
     originx="-473.37552"
     originy="-489.69235" /><sodipodi:guide
     position="0,0"
     orientation="0,1"
     id="guide34"
     inkscape:label="bottom"
     inkscape:locked="true"
     inkscape:color="rgb(0,0,255)" /><sodipodi:guide
     position="225.05109,1693.3186"
     orientation="0,1"
     id="guide44"
     inkscape:label=""
     inkscape:locked="false"
     inkscape:color="rgb(0,0,255)" /><sodipodi:guide
     position="0,900"
     orientation="0,1"
     id="guide46"
     inkscape:label=""
     inkscape:locked="true"
     inkscape:color="rgb(0,0,255)" /><sodipodi:guide
     position="876.48524,540.33082"
     orientation="-1,0"
     id="guide841"
     inkscape:label="width"
     inkscape:locked="false"
     inkscape:color="rgb(0,0,255)" /><sodipodi:guide
     position="0,1000"
     orientation="0,1000"
     id="guide860" /><sodipodi:guide
     position="1000,1000"
     orientation="1000,0"
     id="guide862" /><sodipodi:guide
     position="1000,0"
     orientation="0,-1000"
     id="guide864" /><sodipodi:guide
     position="0,0"
     orientation="-1000,0"
     id="guide866" /></sodipodi:namedview>
 <defs
   id="defs4"><inkscape:path-effect
   effect="fillet_chamfer"
   id="path-effect856"
   is_visible="true"
   lpeversion="1"
   satellites_param="F,0,1,1,0,13.709259,0,1 @ F,0,1,1,0,13.709259,0,1 @ F,0,0,1,0,0,0,1 @ F,0,0,1,0,0,0,1 @ F,0,0,1,0,0,0,1 @ F,0,0,1,0,0,0,1 @ F,0,0,1,0,0,0,1 @ F,0,0,1,0,0,0,1 @ F,0,0,1,0,0,0,1 @ F,0,0,1,0,0,0,1 @ F,0,0,1,0,0,0,1 @ F,0,0,1,0,0,0,1 @ F,0,0,1,0,0,0,1 @ F,0,0,1,0,0,0,1 @ F,0,0,1,0,0,0,1 @ F,0,0,1,0,0,0,1 @ F,0,0,1,0,0,0,1 @ F,0,0,1,0,0,0,1 @ F,0,0,1,0,0,0,1 @ F,0,0,1,0,0,0,1 @ F,0,0,1,0,0,0,1 @ F,0,0,1,0,0,0,1 @ F,0,0,1,0,0,0,1 @ F,0,0,1,0,0,0,1 @ F,0,0,1,0,0,0,1 @ F,0,0,1,0,0,0,1 @ F,0,0,1,0,0,0,1 @ F,0,0,1,0,0,0,1 @ F,0,0,1,0,0,0,1 @ F,0,0,1,0,0,0,1 @ F,0,0,1,0,0,0,1 @ F,0,0,1,0,0,0,1 @ F,0,0,1,0,0,0,1 @ F,0,0,1,0,0,0,1 @ F,0,0,1,0,0,0,1 @ F,0,0,1,0,0,0,1 @ F,0,0,1,0,0,0,1 @ F,0,0,1,0,0,0,1 @ F,0,1,1,0,13.709259,0,1 @ F,0,1,1,0,13.709259,0,1 @ F,0,0,1,0,0,0,1 @ F,0,0,1,0,0,0,1 @ F,0,1,1,0,13.709259,0,1 @ F,0,1,1,0,13.709259,0,1 @ F,0,0,1,0,0,0,1 @ F,0,0,1,0,0,0,1 @ F,0,0,1,0,0,0,1 @ F,0,0,1,0,0,0,1 @ F,0,0,1,0,0,0,1 @ F,0,0,1,0,0,0,1 @ F,0,0,1,0,0,0,1 @ F,0,1,1,0,13.709259,0,1 @ F,0,1,1,0,13.709259,0,1 @ F,0,0,1,0,0,0,1 @ F,0,0,1,0,0,0,1 @ F,0,0,1,0,0,0,1 @ F,0,0,1,0,0,0,1 @ F,0,0,1,0,0,0,1 @ F,0,0,1,0,0,0,1 @ F,0,0,1,0,0,0,1 @ F,0,0,1,0,0,0,1 @ F,0,0,1,0,0,0,1 @ F,0,0,1,0,0,0,1 @ F,0,0,1,0,0,0,1 @ F,0,0,1,0,0,0,1 @ F,0,0,1,0,0,0,1 @ F,0,1,1,0,13.709259,0,1 @ F,0,1,1,0,13.709259,0,1 @ F,0,0,1,0,0,0,1 @ F,0,0,1,0,0,0,1 @ F,0,0,1,0,0,0,1 @ F,0,0,1,0,0,0,1 @ F,0,0,1,0,0,0,1 @ F,0,0,1,0,0,0,1 @ F,0,0,1,0,0,0,1 @ F,0,0,1,0,0,0,1 @ F,0,0,1,0,0,0,1"
   unit="px"
   method="auto"
   mode="F"
   radius="0"
   chamfer_steps="1"
   flexible="false"
   use_knot_distance="true"
   apply_no_radius="true"
   apply_with_radius="true"
   only_selected="true"
   hide_knots="false" /><inkscape:path-effect
   effect="fillet_chamfer"
   id="path-effect855"
   is_visible="true"
   lpeversion="1"
   satellites_param="F,0,1,1,0,24.017211,0,1 @ F,0,1,1,0,24.017211,0,1 @ F,0,0,1,0,0,0,1 @ F,0,0,1,0,0,0,1 @ F,0,0,1,0,0,0,1 @ F,0,0,1,0,0,0,1 @ F,0,0,1,0,0,0,1 @ F,0,0,1,0,0,0,1 @ F,0,0,1,0,0,0,1 @ F,0,0,1,0,0,0,1 @ F,0,0,1,0,0,0,1 @ F,0,0,1,0,0,0,1 @ F,0,0,1,0,0,0,1 @ F,0,0,1,0,0,0,1 @ F,0,0,1,0,0,0,1 @ F,0,0,1,0,0,0,1 @ F,0,0,1,0,0,0,1 @ F,0,0,1,0,0,0,1 @ F,0,0,1,0,0,0,1 @ F,0,0,1,0,0,0,1 @ F,0,0,1,0,0,0,1 @ F,0,0,1,0,0,0,1 @ F,0,0,1,0,0,0,1 @ F,0,0,1,0,0,0,1 @ F,0,0,1,0,0,0,1 @ F,0,0,1,0,0,0,1 @ F,0,0,1,0,0,0,1 @ F,0,0,1,0,0,0,1 @ F,0,0,1,0,0,0,1 @ F,0,0,1,0,0,0,1 @ F,0,0,1,0,0,0,1 @ F,0,1,1,0,24.017211,0,1 @ F,0,1,1,0,24.017211,0,1 @ F,0,0,1,0,0,0,1 @ F,0,0,1,0,0,0,1 @ F,0,0,1,0,0,0,1 @ F,0,1,1,0,24.017211,0,1 @ F,0,1,1,0,24.017211,0,1 @ F,0,0,1,0,0,0,1 @ F,0,0,1,0,0,0,1 @ F,0,0,1,0,0,0,1 @ F,0,0,1,0,0,0,1 @ F,0,0,1,0,0,0,1 @ F,0,0,1,0,0,0,1 @ F,0,1,1,0,24.017211,0,1 @ F,0,1,1,0,24.017211,0,1 @ F,0,0,1,0,0,0,1 @ F,0,0,1,0,0,0,1 @ F,0,0,1,0,0,0,1 @ F,0,0,1,0,0,0,1 @ F,0,0,1,0,0,0,1 @ F,0,0,1,0,0,0,1 @ F,0,0,1,0,0,0,1 @ F,0,0,1,0,0,0,1 @ F,0,0,1,0,0,0,1 @ F,0,0,1,0,0,0,1 @ F,0,0,1,0,0,0,1 @ F,0,0,1,0,0,0,1 @ F,0,0,1,0,0,0,1 @ F,0,0,1,0,0,0,1 @ F,0,0,1,0,0,0,1 @ F,0,0,1,0,0,0,1 @ F,0,0,1,0,24.017211,0,1 @ F,0,0,1,0,12.907072,0,1 @ F,0,0,1,0,0,0,1 @ F,0,0,1,0,0,0,1 @ F,0,0,1,0,0,0,1 @ F,0,0,1,0,0,0,1 @ F,0,0,1,0,0,0,1 @ F,0,0,1,0,0,0,1 @ F,0,0,1,0,0,0,1 @ F,0,0,1,0,0,0,1 @ F,0,0,1,0,0,0,1"
   unit="px"
   method="auto"
   mode="F"
   radius="0"
   chamfer_steps="1"
   flexible="false"
   use_knot_distance="true"
   apply_no_radius="true"
   apply_with_radius="true"
   only_selected="true"
   hide_knots="false" /><inkscape:path-effect
   effect="fillet_chamfer"
   id="path-effect853"
   is_visible="true"
   lpeversion="1"
   satellites_param="F,0,0,1,1,32.127972,0,1 @ F,0,0,1,1,32.127972,0,1 @ F,0,0,1,1,0,0,1 @ F,0,0,1,1,0,0,1 @ F,0,0,1,1,0,0,1 @ F,0,0,1,1,0,0,1 @ F,0,0,1,1,0,0,1 @ F,0,0,1,1,0,0,1 @ F,0,0,1,1,0,0,1 @ F,0,0,1,1,0,0,1 @ F,0,0,1,1,0,0,1 @ F,0,0,1,1,0,0,1 @ F,0,0,1,1,0,0,1 @ F,0,0,1,1,0,0,1 @ F,0,0,1,1,0,0,1 @ F,0,0,1,1,0,0,1 @ F,0,0,1,1,0,0,1 @ F,0,0,1,1,0,0,1 @ F,0,0,1,1,0,0,1 @ F,0,0,1,1,0,0,1 @ F,0,0,1,1,0,0,1 @ F,0,0,1,1,0,0,1 @ F,0,0,1,1,0,0,1 @ F,0,0,1,1,0,0,1 @ F,0,0,1,1,0,0,1 @ F,0,0,1,1,0,0,1 @ F,0,0,1,1,0,0,1 @ F,0,0,1,1,0,0,1 @ F,0,0,1,1,32.127972,0,1 @ F,0,0,1,1,32.127972,0,1 @ F,0,0,1,1,0,0,1 @ F,0,0,1,1,0,0,1 @ F,0,0,1,1,0,0,1 @ F,0,0,1,1,32.127972,0,1 @ F,0,0,1,1,32.127972,0,1 @ F,0,0,1,1,0,0,1 @ F,0,0,1,1,0,0,1 @ F,0,0,1,1,0,0,1 @ F,0,0,1,1,0,0,1 @ F,0,0,1,1,0,0,1 @ F,0,0,1,1,0,0,1 @ F,0,0,1,1,0,0,1 @ F,0,0,1,1,0,0,1 @ F,0,0,1,1,0,0,1 @ F,0,0,1,1,0,0,1 @ F,0,0,1,1,0,0,1 @ F,0,0,1,1,0,0,1 @ F,0,0,1,1,0,0,1 @ F,0,0,1,1,0,0,1 @ F,0,0,1,1,0,0,1 @ F,0,0,1,1,0,0,1 @ F,0,0,1,1,0,0,1 @ F,0,0,1,1,17.479297,0,1 @ F,0,0,1,1,16.46354,0,1 @ F,0,0,1,1,0,0,1 @ F,0,0,1,1,0,0,1 @ F,0,0,1,1,0,0,1 @ F,0,0,1,1,0,0,1 @ F,0,0,1,1,0,0,1 @ F,0,0,1,1,0,0,1 @ F,0,0,1,1,0,0,1 @ F,0,0,1,1,0,0,1 @ F,0,0,1,1,0,0,1"
   unit="px"
   method="auto"
   mode="F"
   radius="0"
   chamfer_steps="1"
   flexible="false"
   use_knot_distance="true"
   apply_no_radius="true"
   apply_with_radius="true"
   only_selected="true"
   hide_knots="true" /><inkscape:path-effect
   effect="spiro"
   id="path-effect858"
   is_visible="true"
   lpeversion="1" /><inkscape:path-effect
   effect="spiro"
   id="path-effect854"
   is_visible="true"
   lpeversion="1" />
  <style
   type="text/css"
   id="style2">
   
    .fil0 {fill:#EF7F1A;fill-rule:nonzero}
   
  </style>
 <inkscape:path-effect
   effect="spiro"
   id="path-effect1214"
   is_visible="true"
   lpeversion="1" /><inkscape:path-effect
   effect="spiro"
   id="path-effect1195"
   is_visible="true"
   lpeversion="1" /><inkscape:path-effect
   effect="spiro"
   id="path-effect992"
   is_visible="true"
   lpeversion="1" /><inkscape:path-effect
   effect="spiro"
   id="path-effect287"
   is_visible="true"
   lpeversion="1" /><inkscape:path-effect
   effect="spiro"
   id="path-effect1032"
   is_visible="true"
   lpeversion="1" /><inkscape:path-effect
   effect="spiro"
   id="path-effect1218"
   is_visible="true"
   lpeversion="1" /><inkscape:path-effect
   effect="spiro"
   id="path-effect309"
   is_visible="true"
   lpeversion="1" /><inkscape:path-effect
   effect="spiro"
   id="path-effect860"
   is_visible="true"
   lpeversion="1" /></defs>
 
<g
   id="path856"><path
     style="color:#000000;fill:#1a5fb4;fill-rule:nonzero;stroke-linecap:round;stroke-linejoin:round;-inkscape-stroke:none"
     d="m 601.29687,68.617187 c -42.7913,-0.113382 -85.75449,7.82126 -125.22821,24.490056 -36.39916,15.357257 -69.65221,38.667197 -95.25896,68.867767 -23.60819,27.65016 -40.63974,61.09553 -47.84602,96.80691 -7.49158,36.3245 -5.35122,74.07658 2.47188,110.15438 8.96872,41.53588 25.33227,80.97696 42.8286,119.54227 14.5171,32.21768 30.1083,64.11977 40.67308,97.92738 4.14872,13.78798 7.981,27.8469 8.79852,42.28828 0.38662,8.60104 -0.12247,17.82976 -4.96521,25.25246 -5.6203,8.92537 -15.03239,14.85762 -25.01231,17.79799 -12.88851,3.96525 -26.56724,2.97831 -39.80068,1.8293 -10.79795,-1.06336 -21.57104,-2.36732 -32.3819,-3.30401 -1.52706,-0.27394 -4.46432,0.26788 -2.56129,-2.01831 22.86527,-52.75352 29.97729,-112.50612 18.46499,-168.95166 -6.53788,-32.05121 -19.43107,-63.27267 -40.32219,-88.68316 -17.18103,-21.0638 -39.89418,-37.55369 -65.28589,-47.27217 -36.0466,-13.97328 -76.76824,-14.78093 -113.60534,-3.31791 -40.72486,12.49455 -76.527757,39.11445 -101.855654,73.18273 -24.0560182,32.20263 -38.930101,70.6377 -45.819912,110.08062 -7.442507,42.38627 -5.844477,85.88822 0.496453,128.30372 6.328379,42.95163 17.667149,84.92625 26.0997331,127.47013 3.8531087,19.4068 6.9832654,38.9501 9.7208619,58.54227 2.505182,13.47806 11.819315,25.92012 24.843917,30.76047 10.325063,3.89858 22.132866,3.36248 32.189353,-1.1086 36.113338,-14.44221 72.242088,-28.84685 108.345778,-43.31258 11.81101,-5.20386 21.50115,-16.10297 23.53114,-29.06336 0.51119,-1.45584 -0.52965,-4.92415 1.91957,-3.18604 8.47234,3.0502 17.88813,3.59382 26.56361,1.05138 17.83883,-4.36874 36.43951,-3.87166 54.54435,-1.65498 23.06293,2.84238 45.75224,7.97875 68.60994,12.05592 -7.19963,3.63967 -14.51609,7.12134 -21.30073,11.50807 -9.23897,6.06249 -16.66084,15.26975 -19.33922,26.10997 -2.2619,8.48157 -1.66574,17.38918 -0.0585,25.9275 5.84417,35.24962 11.64685,70.50651 17.51699,105.75158 2.71311,13.60434 12.40017,26.06284 25.69283,30.65284 10.45745,3.6921 22.27767,2.7559 32.26976,-1.9279 35.57955,-14.7083 73.89933,-22.68186 112.38583,-23.53441 46.82606,-1.19777 93.31507,5.81441 139.54477,12.34421 47.84862,6.894 95.95723,13.4911 144.3893,13.6366 28.7146,0.1476 57.4528,-1.495 85.936,-5.1562 12.6208,-1.9192 24.44711,-9.2646 31.13439,-20.23256 5.06885,-8.03356 7.15948,-17.64786 6.85788,-27.07737 -0.009,-40.39647 0.0178,-80.79324 -0.0134,-121.18953 -0.35089,-12.00724 -5.88769,-24.25152 -16.07375,-31.02008 -8.16486,-5.59802 -18.72136,-7.2821 -28.28073,-4.84281 -6.02621,1.39067 -11.53621,4.3648 -16.57424,7.88166 -8.47022,5.43111 -17.22376,10.40737 -26.09894,15.14304 29.58837,-23.29731 54.64196,-52.77546 70.88719,-86.87607 15.15937,-31.58682 22.35529,-67.1807 19.18947,-102.15983 -2.32849,-26.87091 -11.02073,-53.17543 -25.34583,-76.04049 -15.89934,-25.59624 -38.23176,-46.93443 -63.84087,-62.69454 -3.03,-0.95942 0.92734,-3.08743 1.63058,-4.70031 30.22088,-37.94365 51.88646,-83.20102 59.60404,-131.25967 7.17258,-43.76184 1.95748,-89.31559 -14.09662,-130.59798 -15.91683,-41.3343 -42.77089,-78.23435 -76.62887,-106.7183 C 758.44354,108.65697 719.65921,89.007156 678.57738,78.470681 653.3666,71.953754 627.32872,68.72589 601.29687,68.617187 Z m -0.31445,60.025393 c 41.23512,0.2066 82.77626,9.98535 118.66648,30.58991 36.98829,21.2044 68.04623,53.31909 86.18895,92.05783 16.40373,34.83234 22.83575,74.6066 16.44245,112.69795 -6.4505,39.07109 -24.55398,75.7091 -49.47981,106.27777 -3.62887,4.41349 -7.35571,8.75486 -11.31221,12.87849 -6.16946,-1.83144 -12.42664,-3.35354 -18.71484,-4.7168 19.62297,-21.32506 33.94321,-47.6205 40.43213,-75.91234 9.8686,-41.8581 3.23941,-87.31002 -18.14464,-124.61928 -19.67383,-34.66565 -51.98186,-61.80216 -89.31794,-75.6459 -36.66532,-13.76518 -77.9894,-14.41877 -115.15334,-2.14231 -37.82136,12.33709 -71.048,38.04763 -92.63188,71.44928 -19.02694,29.19242 -28.91059,63.76974 -30.62098,98.43222 -1.59999,29.64911 2.89619,59.36954 11.05622,87.83438 10.89147,38.53001 28.50011,74.62622 44.96426,110.97683 12.36128,27.5165 24.16659,55.72578 29.26566,85.62426 3.3651,19.84726 3.17762,40.76438 -3.74177,59.86327 -6.45998,17.87438 -19.77051,33.14498 -36.61525,41.95647 -18.29781,9.77062 -39.24714,13.38114 -59.8088,13.76996 -26.64232,0.49454 -53.03579,-4.12403 -79.01601,-9.57031 -24.22404,-5.01246 -48.6114,-9.92239 -73.39423,-10.94035 6.70084,-7.20739 13.09604,-14.70688 19.00391,-22.58008 20.06153,1.80408 40.10625,3.79838 60.11136,6.15059 19.9924,2.24938 40.51442,2.64355 60.15857,-2.28283 23.0021,-5.60781 44.48769,-18.48292 59.01569,-37.34251 12.04906,-15.40499 18.65503,-34.70062 19.60711,-54.16302 1.07964,-20.08604 -3.23714,-39.98289 -8.35485,-59.27638 -9.79409,-36.20647 -25.64169,-70.33465 -41.22603,-104.32201 -15.68668,-34.48169 -31.3344,-69.24882 -41.05399,-105.97571 -7.42971,-28.48762 -11.15272,-58.33971 -7.40142,-87.68765 2.3923,-19.23464 8.65354,-37.94765 18.24778,-54.78521 16.16921,-28.60837 40.77486,-52.10452 69.39477,-68.09059 32.28595,-18.12661 68.95965,-27.72175 105.80485,-30.01374 5.86842,-0.35718 11.74858,-0.52195 17.6278,-0.49219 z m 17.27344,122.84179 c 18.52593,0.36694 36.91388,5.47926 52.95799,14.74962 19.70406,11.27508 36.2774,28.40889 45.6214,49.21379 10.93127,24.09731 13.66398,52.01227 6.84231,77.6395 -6.52843,24.11706 -22.17613,45.26463 -42.14497,60.04731 -8.11444,6.02467 -17.06794,10.87911 -26.48074,14.54492 -12.09567,5.18096 -22.31161,15.27758 -26.3386,27.95111 -2.54877,7.56829 -2.68587,15.70827 -1.52427,23.54774 2.92044,24.26216 5.79737,48.52997 8.74507,72.78859 1.85737,11.51357 8.53933,22.37147 18.42623,28.6793 10.56123,6.6447 24.11567,7.52481 35.80101,3.52511 17.95772,-5.17063 38.21606,-2.9202 54.02635,7.29405 10.58483,6.60301 19.01677,16.76093 22.89848,28.67584 3.69851,10.52307 2.8799,22.17063 -0.74587,32.59154 -5.05794,14.77521 -15.44983,27.10589 -27.26774,37.03172 -18.89896,15.74256 -41.95454,25.60889 -65.43662,32.29724 -33.50674,9.48448 -68.34362,12.59534 -102.93281,15.26937 -7.349,0.55815 -14.7003,1.08532 -22.05074,1.62396 11.61967,-12.9809 20.90094,-28.09805 26.76293,-44.52668 9.41077,-25.81517 11.16925,-53.94285 7.69953,-81.06014 -3.88653,-30.82537 -14.30807,-60.38327 -25.8977,-89.04514 -14.11886,-34.88351 -31.32946,-68.46219 -44.40696,-103.77419 -8.70848,-23.58385 -15.16655,-48.33117 -15.64933,-73.59114 -0.58768,-25.9967 4.29801,-52.54484 16.82476,-75.52203 13.50179,-24.65873 36.33016,-44.05468 62.81529,-53.46365 13.26768,-4.66947 27.40034,-6.82403 41.455,-6.48774 z M 176.62891,412.2207 c 22.13967,0.58897 44.42912,7.35278 62.14674,20.8684 16.33586,12.60446 27.76337,30.57511 35.33992,49.56041 11.59701,29.30172 14.71182,61.52122 11.53979,92.73835 -3.21091,31.04018 -12.77493,61.38131 -27.72567,88.76058 -5.0993,-0.38748 -10.20102,-0.74197 -15.30274,-1.09571 17.52894,-27.16755 26.18849,-60.07063 23.60766,-92.34951 -1.80946,-24.14134 -10.30914,-48.08323 -25.85462,-66.82416 -14.30634,-17.46751 -34.70128,-29.71105 -56.75775,-34.42609 -25.01705,-5.52192 -51.80467,-1.40777 -74.39517,10.52205 -25.998807,13.59653 -46.235941,36.95925 -57.860355,63.72792 -11.63841,26.52631 -15.022743,56.14883 -12.302474,84.8407 3.34038,35.92166 15.870037,70.51271 33.456768,101.84205 14.132579,25.25244 31.411111,48.67906 50.816881,70.12212 -18.99544,7.59115 -37.990885,15.18229 -56.986328,22.77344 -3.433304,-21.82606 -7.620435,-43.52808 -12.432844,-65.09128 -9.05513,-41.39437 -19.513984,-82.70596 -22.947013,-125.06305 -2.849258,-34.40338 -1.455649,-69.5641 8.093461,-102.90324 7.874755,-27.53787 21.14865,-53.95776 40.97571,-74.84852 18.939727,-19.88551 43.464124,-34.912 70.440424,-40.74446 8.57837,-1.84531 17.37789,-2.62833 26.14761,-2.41 z m -17.29688,114.86914 c 13.28406,-0.63139 26.98679,4.96917 35.22147,15.57206 8.81842,11.02752 12.12506,25.47756 12.11721,39.36266 -0.14905,22.53884 -9.08015,44.88776 -24.3446,61.44855 -4.05491,4.51793 -8.82421,8.28453 -13.44336,12.18997 -8.57933,7.56086 -15.03979,17.93234 -16.41527,29.42368 -1.09644,7.83134 0.21666,15.73157 2.30468,23.28467 4.40732,17.36642 8.81465,34.73285 13.22198,52.09927 -22.2637,-24.64113 -41.50491,-52.32696 -54.68095,-82.9033 -10.00733,-23.44468 -16.315154,-48.94277 -14.885692,-74.57095 1.030219,-17.76512 5.771852,-35.8658 16.605942,-50.2592 8.42836,-11.17293 20.04162,-20.52481 33.75036,-24.12993 3.44843,-0.88042 6.99173,-1.38768 10.54823,-1.51748 z m 615.49805,25.63477 c 18.06751,8.94394 34.80394,20.97752 47.78701,36.5079 12.31489,14.51313 21.38435,31.95418 25.09522,50.6863 5.264,25.78674 1.90363,53.01578 -8.29838,77.18836 -11.97455,28.67399 -32.34449,53.38693 -56.68475,72.48445 -29.05825,22.86453 -63.12342,38.51507 -98.09064,49.9995 -41.58734,13.54631 -84.76223,21.18534 -127.758,28.69513 -9.98895,1.73268 -19.98114,3.44668 -29.96648,5.20008 -28.0157,-4.79596 -55.68707,-11.5846 -82.76172,-20.23242 39.28001,-9.19419 79.68948,-11.52331 119.77441,-14.77679 36.54934,-2.94511 73.24166,-6.19625 109.08059,-14.26242 32.40124,-7.33335 64.20089,-19.22376 91.51017,-38.43599 21.87422,-15.30387 41.00879,-35.25854 52.7459,-59.42981 10.37349,-21.10282 14.73533,-45.39154 10.86191,-68.68443 -4.45492,-27.7897 -20.28192,-53.3149 -42.54942,-70.39334 -9.83879,-7.60689 -20.87175,-13.64407 -32.53098,-17.95863 7.48856,-5.2227 14.75337,-10.76511 21.78516,-16.58789 z m -373.8711,313.98633 c -3.27094,6.03008 -3.23269,12.91338 -2.70137,19.52419 0.79043,12.93009 1.58087,25.86017 2.3713,38.79026 0.74508,9.75645 6.63499,18.91938 15.20117,23.64844 -10.93484,2.70845 -21.78719,5.77991 -32.4336,9.4707 -4.26693,-25.78385 -8.53385,-51.56771 -12.80078,-77.35156 9.86656,-5.2181 19.99053,-9.95708 30.36328,-14.08203 z m -31.55468,6.87695 c 0.16722,0.99287 0.73345,4.20333 0.6355,3.84312 -0.21183,-1.28104 -0.42367,-2.56208 -0.6355,-3.84312 z m 477.08007,17.07813 c 0,23.25976 0,46.51953 0,69.77929 -41.93087,4.26093 -84.31239,4.22155 -126.20594,-0.47594 -55.26803,-6.03817 -109.91987,-17.13032 -165.42797,-21.07787 -14.40067,-1.04453 -28.83836,-1.6307 -43.27819,-1.58486 5.29754,-0.99103 10.57511,-2.0897 15.88867,-2.99414 56.89922,8.83442 115.08636,10.74867 172.22724,3.02352 43.93331,-5.96984 87.21318,-17.89089 127.3199,-36.93079 6.5687,-3.09014 13.06106,-6.34206 19.47629,-9.73921 z"
     id="path11260" /></g></svg>
