<?xml version="1.0" encoding="UTF-8" standalone="no"?>
<svg
   xml:space="preserve"
   width="1000"
   height="1000"
   version="1.1"
   style="clip-rule:evenodd;fill-rule:evenodd;image-rendering:optimizeQuality;shape-rendering:geometricPrecision;text-rendering:geometricPrecision"
   viewBox="0 0 1000 1000"
   id="svg10"
   sodipodi:docname="ൢ.svg"
   inkscape:version="1.1.1 (3bf5ae0d25, 2021-09-20)"
   xmlns:inkscape="http://www.inkscape.org/namespaces/inkscape"
   xmlns:sodipodi="http://sodipodi.sourceforge.net/DTD/sodipodi-0.dtd"
   xmlns="http://www.w3.org/2000/svg"
   xmlns:svg="http://www.w3.org/2000/svg"
   xmlns:rdf="http://www.w3.org/1999/02/22-rdf-syntax-ns#"
   xmlns:cc="http://creativecommons.org/ns#"
   xmlns:dc="http://purl.org/dc/elements/1.1/"><metadata
   id="metadata14"><rdf:RDF><cc:Work
       rdf:about=""><dc:format>image/svg+xml</dc:format><dc:type
         rdf:resource="http://purl.org/dc/dcmitype/StillImage" /></cc:Work></rdf:RDF></metadata><sodipodi:namedview
   pagecolor="#ffffff"
   bordercolor="#666666"
   borderopacity="1"
   objecttolerance="10"
   gridtolerance="10"
   guidetolerance="10"
   inkscape:pageopacity="0"
   inkscape:pageshadow="2"
   inkscape:window-width="1920"
   inkscape:window-height="1009"
   id="namedview12"
   showgrid="false"
   inkscape:zoom="0.95883679"
   inkscape:cx="613.76452"
   inkscape:cy="1087.7764"
   inkscape:window-x="0"
   inkscape:window-y="0"
   inkscape:window-maximized="1"
   inkscape:current-layer="path1087-1-75"
   showguides="true"
   inkscape:guide-bbox="true"
   inkscape:document-rotation="0"
   inkscape:snap-to-guides="true"
   inkscape:pagecheckerboard="0"><sodipodi:guide
     position="0,1000"
     orientation="0,1"
     id="guide16"
     inkscape:label=""
     inkscape:locked="true"
     inkscape:color="rgb(0,0,255)" /><sodipodi:guide
     position="1763.3122,2036.1693"
     orientation="1000,0"
     id="guide18" /><sodipodi:guide
     position="0,200"
     orientation="0,1"
     id="guide20"
     inkscape:label="base"
     inkscape:locked="true"
     inkscape:color="rgb(0,0,255)" /><inkscape:grid
     type="xygrid"
     id="grid24"
     originx="-473.37552"
     originy="-489.69235" /><sodipodi:guide
     position="0,0"
     orientation="0,1"
     id="guide34"
     inkscape:label="bottom"
     inkscape:locked="true"
     inkscape:color="rgb(0,0,255)" /><sodipodi:guide
     position="225.05109,1693.3186"
     orientation="0,1"
     id="guide44"
     inkscape:label=""
     inkscape:locked="false"
     inkscape:color="rgb(0,0,255)" /><sodipodi:guide
     position="0,900"
     orientation="0,1"
     id="guide46"
     inkscape:label=""
     inkscape:locked="true"
     inkscape:color="rgb(0,0,255)" /><sodipodi:guide
     position="562.486,161.81538"
     orientation="-1,0"
     id="guide841"
     inkscape:label="width"
     inkscape:locked="false"
     inkscape:color="rgb(0,0,255)" /><sodipodi:guide
     position="0,1000"
     orientation="0,1000"
     id="guide860" /><sodipodi:guide
     position="1000,1000"
     orientation="1000,0"
     id="guide862" /><sodipodi:guide
     position="1000,0"
     orientation="0,-1000"
     id="guide864" /><sodipodi:guide
     position="0,0"
     orientation="-1000,0"
     id="guide866" /></sodipodi:namedview>
 <defs
   id="defs4"><inkscape:path-effect
   effect="fillet_chamfer"
   id="path-effect2728"
   is_visible="true"
   lpeversion="1"
   satellites_param="F,0,0,1,0,0,0,1 @ F,0,0,1,0,0,0,1 @ F,0,0,1,0,0,0,1 @ F,0,0,1,0,0,0,1 @ F,0,0,1,0,0,0,1 @ F,0,0,1,0,0,0,1 @ F,0,0,1,0,0,0,1 @ F,0,0,1,0,0,0,1 @ F,0,0,1,0,0,0,1 @ F,0,0,1,0,0,0,1 @ F,0,0,1,0,0,0,1 @ F,0,0,1,0,0,0,1 @ F,0,0,1,0,0,0,1 @ F,0,0,1,0,0,0,1 @ F,0,0,1,0,0,0,1 @ F,0,0,1,0,0,0,1 @ F,0,0,1,0,0,0,1 @ F,0,0,1,0,0,0,1 @ F,0,0,1,0,0,0,1 @ F,0,0,1,0,0,0,1 @ F,0,0,1,0,0,0,1 @ F,0,0,1,0,0,0,1 @ F,0,0,1,0,0,0,1 @ F,0,0,1,0,0,0,1 @ F,0,0,1,0,0,0,1 @ F,0,0,1,0,0,0,1 @ F,0,0,1,0,0,0,1 @ F,0,0,1,0,0,0,1 @ F,0,0,1,0,0,0,1 @ F,0,0,1,0,0,0,1 @ F,0,0,1,0,0,0,1 @ F,0,0,1,0,0,0,1 @ F,0,0,1,0,0,0,1 @ F,0,0,1,0,0,0,1 @ F,0,0,1,0,0,0,1 @ F,0,0,1,0,0,0,1 @ F,0,0,1,0,0,0,1 @ F,0,0,1,0,0,0,1 @ F,0,0,1,0,0,0,1 @ F,0,0,1,0,0,0,1 @ F,0,0,1,0,0,0,1 @ F,0,0,1,0,0,0,1 @ F,0,0,1,0,0,0,1 @ F,0,0,1,0,0,0,1 @ F,0,0,1,0,0,0,1 @ F,0,0,1,0,0,0,1 @ F,0,0,1,0,0,0,1 @ F,0,0,1,0,0,0,1 @ F,0,0,1,0,0,0,1 @ F,0,0,1,0,0,0,1 @ F,0,1,1,0,7.3894008,0,1 @ F,0,0,1,0,7.3894008,0,1 @ F,0,0,1,0,0,0,1 @ F,0,0,1,0,0,0,1 @ F,0,0,1,0,0,0,1 @ F,0,0,1,0,0,0,1 @ F,0,0,1,0,0,0,1 @ F,0,0,1,0,0,0,1 @ F,0,0,1,0,0,0,1 @ F,0,0,1,0,0,0,1 @ F,0,0,1,0,0,0,1 @ F,0,0,1,0,0,0,1 @ F,0,0,1,0,0,0,1 @ F,0,0,1,0,0,0,1 @ F,0,0,1,0,0,0,1 @ F,0,0,1,0,0,0,1 @ F,0,0,1,0,0,0,1 @ F,0,0,1,0,0,0,1"
   unit="px"
   method="auto"
   mode="F"
   radius="0"
   chamfer_steps="1"
   flexible="false"
   use_knot_distance="true"
   apply_no_radius="true"
   apply_with_radius="true"
   only_selected="false"
   hide_knots="false" /><inkscape:path-effect
   effect="fillet_chamfer"
   id="path-effect857"
   is_visible="true"
   lpeversion="1"
   satellites_param="F,0,0,1,0,0,0,1 @ F,0,0,1,0,0,0,1 @ F,0,0,1,0,0,0,1 @ F,0,0,1,0,0,0,1 @ F,0,0,1,0,0,0,1 @ F,0,0,1,0,0,0,1 @ F,0,0,1,0,0,0,1 @ F,0,0,1,0,0,0,1 @ F,0,0,1,0,0,0,1 @ F,0,0,1,0,0,0,1 @ F,0,0,1,0,0,0,1 @ F,0,0,1,0,0,0,1 @ F,0,0,1,0,0,0,1 @ F,0,0,1,0,0,0,1 @ F,0,0,1,0,0,0,1 @ F,0,0,1,0,0,0,1 @ F,0,0,1,0,0,0,1 @ F,0,0,1,0,0,0,1 @ F,0,0,1,0,0,0,1 @ F,0,0,1,0,0,0,1 @ F,0,0,1,0,0,0,1 @ F,0,0,1,0,0,0,1 @ F,0,0,1,0,0,0,1 @ F,0,0,1,0,0,0,1 @ F,0,0,1,0,0,0,1 @ F,0,0,1,0,0,0,1 @ F,0,0,1,0,0,0,1 @ F,0,0,1,0,0,0,1 @ F,0,0,1,0,0,0,1 @ F,0,0,1,0,0,0,1 @ F,0,0,1,0,0,0,1 @ F,0,0,1,0,0,0,1 @ F,0,0,1,0,0,0,1 @ F,0,0,1,0,0,0,1 @ F,0,0,1,0,0,0,1 @ F,0,0,1,0,0,0,1 @ F,0,0,1,0,0,0,1 @ F,0,0,1,0,0,0,1 @ F,0,0,1,0,0,0,1 @ F,0,0,1,0,0,0,1 @ F,0,0,1,0,0,0,1 @ F,0,0,1,0,0,0,1 @ F,0,0,1,0,0,0,1 @ F,0,0,1,0,0,0,1 @ F,0,0,1,0,0,0,1 @ F,0,0,1,0,0,0,1 @ F,0,0,1,0,0,0,1 @ F,0,0,1,0,0,0,1 @ F,0,0,1,0,0,0,1 @ F,0,0,1,0,0,0,1 @ F,0,0,1,0,0,0,1 @ F,0,0,1,0,0,0,1 @ F,0,1,1,0,14.976071,0,1 @ F,0,1,1,0,14.976071,0,1 @ F,0,0,1,0,0,0,1 @ F,0,0,1,0,0,0,1 @ F,0,0,1,0,0,0,1 @ F,0,0,1,0,0,0,1 @ F,0,0,1,0,0,0,1 @ F,0,0,1,0,0,0,1 @ F,0,0,1,0,0,0,1 @ F,0,0,1,0,0,0,1 @ F,0,0,1,0,0,0,1 @ F,0,0,1,0,0,0,1 @ F,0,0,1,0,0,0,1 @ F,0,0,1,0,0,0,1 @ F,0,0,1,0,0,0,1 @ F,0,0,1,0,0,0,1 @ F,0,0,1,0,0,0,1 @ F,0,0,1,0,0,0,1 @ F,0,0,1,0,0,0,1 @ F,0,0,1,0,0,0,1"
   unit="px"
   method="auto"
   mode="F"
   radius="0"
   chamfer_steps="1"
   flexible="false"
   use_knot_distance="true"
   apply_no_radius="true"
   apply_with_radius="true"
   only_selected="true"
   hide_knots="false" /><inkscape:path-effect
   effect="spiro"
   id="path-effect862"
   is_visible="true"
   lpeversion="1" /><inkscape:path-effect
   effect="spiro"
   id="path-effect1521"
   is_visible="true"
   lpeversion="1" /><inkscape:path-effect
   effect="spiro"
   id="path-effect858"
   is_visible="true"
   lpeversion="1" /><inkscape:path-effect
   effect="spiro"
   id="path-effect854"
   is_visible="true"
   lpeversion="1" />
  <style
   type="text/css"
   id="style2">
   
    .fil0 {fill:#EF7F1A;fill-rule:nonzero}
   
  </style>
 <inkscape:path-effect
   effect="spiro"
   id="path-effect1214"
   is_visible="true"
   lpeversion="1" /><inkscape:path-effect
   effect="spiro"
   id="path-effect1195"
   is_visible="true"
   lpeversion="1" /><inkscape:path-effect
   effect="spiro"
   id="path-effect992"
   is_visible="true"
   lpeversion="1" /><inkscape:path-effect
   effect="spiro"
   id="path-effect287"
   is_visible="true"
   lpeversion="1" /><inkscape:path-effect
   effect="spiro"
   id="path-effect1032"
   is_visible="true"
   lpeversion="1" /><inkscape:path-effect
   effect="spiro"
   id="path-effect1218"
   is_visible="true"
   lpeversion="1" /><inkscape:path-effect
   effect="spiro"
   id="path-effect309"
   is_visible="true"
   lpeversion="1" /><inkscape:path-effect
   effect="spiro"
   id="path-effect1176"
   is_visible="true"
   lpeversion="1" /><inkscape:path-effect
   effect="spiro"
   id="path-effect1026"
   is_visible="true"
   lpeversion="1" /><inkscape:path-effect
   effect="spiro"
   id="path-effect1030"
   is_visible="true"
   lpeversion="1" /></defs>
 
<g
   id="path1087-1-75"><path
     style="color:#000000;clip-rule:nonzero;fill:#1a5fb4;fill-rule:nonzero;stroke-linecap:round;stroke-linejoin:round;-inkscape-stroke:none;shape-rendering:auto"
     d="m 432.24219,767.51758 c -26.32582,-0.53948 -52.68238,6.0415 -75.86988,18.46332 -28.40451,15.11831 -52.02895,38.586 -68.52197,66.11704 -0.48714,1.64362 -1.2108,-0.64987 -1.83391,-1.18607 -15.31171,-21.12687 -34.44298,-39.56243 -56.54143,-53.49151 -24.96446,-15.82269 -53.72349,-25.8274 -83.2446,-28.03835 -28.69528,-2.23004 -58.039727,2.88322 -83.990447,15.43886 -29.099309,13.98052 -53.6220103,36.97249 -70.0824918,64.68719 -16.4297362,27.52378 -24.8014642,59.61419 -24.7926462,91.61689 -0.07671,34.23588 9.453042,68.37055 26.9419772,97.77905 16.1977048,27.3108 39.1744608,50.699 66.5850688,66.801 19.318258,11.3287 41.161729,18.6634 63.585579,19.983 20.17247,1.2479 40.74639,-2.479 58.88664,-11.4985 19.33268,-9.5459 35.73183,-24.9116 46.53045,-43.5723 5.61886,7.3649 14.14861,12.4101 23.26174,13.9791 4.1851,0.5529 8.3916,0.938 12.58591,1.4186 17.17649,1.8689 34.35115,3.7559 51.52878,5.6135 4.29401,0.341 8.61086,-0.3228 12.75248,-1.435 7.05063,11.7252 16.22407,22.2251 27.21863,30.4035 14.45684,10.8877 31.82661,17.8829 49.81945,19.9123 19.70127,2.2988 39.83002,-1.1882 58.08895,-8.7467 19.66511,-8.0941 37.16532,-20.7797 52.41057,-35.4836 28.31196,-27.3395 48.53541,-62.8779 57.78438,-101.11974 9.49692,-38.99938 7.87596,-80.67076 -4.7886,-118.77001 -8.03302,-24.09657 -20.95436,-46.72212 -38.64075,-65.04196 -15.32604,-15.95965 -34.26861,-28.54034 -55.18616,-35.85839 -14.2723,-5.03161 -29.36325,-7.67712 -44.48772,-7.97122 z m -1.36133,60.17578 c 14.03421,0.2541 28.17746,3.73595 40.18916,11.13772 8.10452,4.93185 15.30567,11.2791 21.48076,18.46579 -1.16259,0.026 -2.54222,1.06277 -3.50471,0.17872 -13.67826,-10.1686 -29.87549,-16.8124 -46.67346,-19.57102 -23.33531,-3.85479 -47.75249,-0.30535 -69.1747,9.65798 -1.71649,0.7891 -3.41659,1.61376 -5.10025,2.47065 11.37814,-9.12477 24.51895,-16.28459 38.76625,-19.68458 7.84735,-1.90988 15.94188,-2.80552 24.01695,-2.65526 z m -295.95508,1.26758 c 14.96203,0.17784 29.84468,3.43456 43.59497,9.31213 16.64197,7.07975 31.77301,17.62173 44.37053,30.5804 0.30936,0.41004 1.85248,1.94439 0.73255,1.01933 -6.51257,-5.08084 -13.40546,-9.65976 -20.46364,-13.94374 -16.19765,-9.77109 -34.03147,-17.18361 -52.79966,-20.07929 -16.72031,-2.63045 -34.1402,-1.49995 -50.14594,4.15595 -14.97542,5.24542 -28.542113,14.29476 -39.422177,25.81434 -0.95547,1.06154 -1.858041,2.16905 -2.802179,3.24049 -2.55727,0.38769 -5.102513,0.85073 -7.640625,1.34765 11.348807,-14.93355 26.496895,-27.16548 43.954377,-34.18868 12.863404,-5.14414 26.793074,-7.44535 40.621794,-7.25858 z m 335.5,97.42187 c 1.75189,3.35673 2.85117,7.01906 3.80299,10.67275 0.0956,1.00275 0.95565,2.64664 0.49033,3.24822 -4.90441,-0.0424 -9.80884,0.003 -14.70959,0.21226 -7.69882,0.28154 -15.39959,0.83972 -23.01342,2.04649 10.67649,-6.29435 21.87492,-11.69922 33.42969,-16.17972 z m -378.478514,1.01758 c 8.798134,0.5038 17.590594,1.78811 26.005684,4.46741 6.79453,2.10626 13.36997,4.90283 19.63689,8.26501 -12.01136,-3.51748 -24.55235,-4.63313 -36.99784,-5.33342 -3.614162,-0.17964 -7.231093,-0.29493 -10.847859,-0.40681 0.599756,-2.37038 1.340499,-4.70453 2.203125,-6.99219 z m 11.439454,67.7168 c 6.90502,0.62969 13.8811,1.47392 20.45785,3.77306 2.79461,1.01475 5.59657,2.45035 7.40738,4.88705 -3.50298,2.1243 -7.87919,1.9709 -11.7443,1.0911 -5.62575,-1.2619 -10.73015,-4.3374 -14.78179,-8.40075 -0.45462,-0.44188 -0.90072,-0.89251 -1.33914,-1.35046 z m 357.58984,5.52341 c -5.77111,7.8289 -12.82808,14.8804 -21.33816,19.6948 -3.85607,2.1337 -8.279,3.7112 -12.74458,3.1815 -1.82421,-0.3707 -3.63283,-1.2913 -4.79068,-2.7753 -0.81364,-1.2958 -1.41488,-2.9212 -0.80632,-4.4255 1.08953,-3.8488 4.3222,-6.5665 7.57542,-8.6291 5.69654,-3.5199 12.39742,-4.8629 18.93304,-5.8331 4.36817,-0.6125 8.76826,-0.9718 13.17128,-1.2133 z m -285.74023,44.0762 c -3.33307,4.6901 -7.57303,8.7164 -12.27731,12.0164 -6.03869,4.267 -13.09964,6.9769 -20.38596,8.1441 -5.7003,0.9451 -11.52341,1.078 -17.27228,0.5387 8.74055,0.016 17.48156,-1.5935 25.66182,-4.666 9.1454,-3.4586 17.55777,-8.9087 24.27373,-16.0332 z"
     id="path26343" /></g></svg>
