<?xml version="1.0" encoding="UTF-8" standalone="no"?>
<svg
   xmlns:dc="http://purl.org/dc/elements/1.1/"
   xmlns:cc="http://creativecommons.org/ns#"
   xmlns:rdf="http://www.w3.org/1999/02/22-rdf-syntax-ns#"
   xmlns:svg="http://www.w3.org/2000/svg"
   xmlns="http://www.w3.org/2000/svg"
   xmlns:sodipodi="http://sodipodi.sourceforge.net/DTD/sodipodi-0.dtd"
   xmlns:inkscape="http://www.inkscape.org/namespaces/inkscape"
   xml:space="preserve"
   width="1000"
   height="1000"
   version="1.1"
   style="clip-rule:evenodd;fill-rule:evenodd;image-rendering:optimizeQuality;shape-rendering:geometricPrecision;text-rendering:geometricPrecision"
   viewBox="0 0 1000 1000"
   id="svg10"
   sodipodi:docname="8.svg"
   inkscape:version="1.0.2 (e86c870879, 2021-01-15)"><metadata
   id="metadata14"><rdf:RDF><cc:Work
       rdf:about=""><dc:format>image/svg+xml</dc:format><dc:type
         rdf:resource="http://purl.org/dc/dcmitype/StillImage" /><dc:title /></cc:Work></rdf:RDF></metadata><sodipodi:namedview
   pagecolor="#ffffff"
   bordercolor="#666666"
   borderopacity="1"
   objecttolerance="10"
   gridtolerance="10"
   guidetolerance="10"
   inkscape:pageopacity="0"
   inkscape:pageshadow="2"
   inkscape:window-width="1920"
   inkscape:window-height="1127"
   id="namedview12"
   showgrid="false"
   inkscape:zoom="0.84890884"
   inkscape:cx="204.2865"
   inkscape:cy="414.46941"
   inkscape:window-x="0"
   inkscape:window-y="0"
   inkscape:window-maximized="1"
   inkscape:current-layer="svg10"
   showguides="true"
   inkscape:guide-bbox="true"
   inkscape:document-rotation="0"><sodipodi:guide
     position="0,1000"
     orientation="0,1"
     id="guide16"
     inkscape:label=""
     inkscape:locked="true"
     inkscape:color="rgb(0,0,255)" /><sodipodi:guide
     position="1763.3122,2036.1693"
     orientation="1000,0"
     id="guide18" /><sodipodi:guide
     position="0,200"
     orientation="0,1"
     id="guide20"
     inkscape:label="base"
     inkscape:locked="true"
     inkscape:color="rgb(0,0,255)" /><inkscape:grid
     type="xygrid"
     id="grid24"
     originx="-473.37552"
     originy="-489.69235" /><sodipodi:guide
     position="0,0"
     orientation="0,1"
     id="guide34"
     inkscape:label="bottom"
     inkscape:locked="true"
     inkscape:color="rgb(0,0,255)" /><sodipodi:guide
     position="225.05109,1693.3186"
     orientation="0,1"
     id="guide44"
     inkscape:label=""
     inkscape:locked="false"
     inkscape:color="rgb(0,0,255)" /><sodipodi:guide
     position="0,900"
     orientation="0,1"
     id="guide46"
     inkscape:label=""
     inkscape:locked="true"
     inkscape:color="rgb(0,0,255)" /><sodipodi:guide
     position="424.77093,688.50376"
     orientation="-1,0"
     id="guide841"
     inkscape:label="width"
     inkscape:locked="false"
     inkscape:color="rgb(0,0,255)" /></sodipodi:namedview>
 <defs
   id="defs4"><inkscape:path-effect
   effect="fillet_chamfer"
   id="path-effect854"
   is_visible="true"
   lpeversion="1"
   satellites_param="F,0,0,1,0,0,0,1 @ F,0,0,1,0,0,0,1 @ F,0,0,1,0,0,0,1 @ F,0,0,1,0,0,0,1 @ F,0,0,1,0,0,0,1 @ F,0,0,1,0,0,0,1 @ F,0,0,1,0,0,0,1 @ F,0,0,1,0,0,0,1 @ F,0,0,1,0,0,0,1 @ F,0,0,1,0,0,0,1 @ F,0,0,1,0,0,0,1 @ F,0,0,1,0,19.369245,0,1 @ F,0,0,1,0,14.518452,0,1 @ F,0,0,1,0,0,0,1 @ F,0,0,1,0,0,0,1 @ F,0,0,1,0,0,0,1 @ F,0,0,1,0,0,0,1 @ F,0,0,1,0,0,0,1 @ F,0,0,1,0,0,0,1 @ F,0,0,1,0,0,0,1 @ F,0,0,1,0,0,0,1 @ F,0,0,1,0,0,0,1 @ F,0,0,1,0,0,0,1 @ F,0,0,1,0,0,0,1 @ F,0,0,1,0,0,0,1 @ F,0,0,1,0,0,0,1 @ F,0,0,1,0,0,0,1 @ F,0,0,1,0,0,0,1 @ F,0,0,1,0,0,0,1 @ F,0,0,1,0,0,0,1 @ F,0,0,1,0,0,0,1 @ F,0,0,1,0,17.760895,0,1 @ F,0,0,1,0,10.749967,0,1 @ F,0,0,1,0,0,0,1 @ F,0,0,1,0,0,0,1 @ F,0,0,1,0,0,0,1 @ F,0,0,1,0,0,0,1"
   unit="px"
   method="auto"
   mode="F"
   radius="0"
   chamfer_steps="1"
   flexible="false"
   use_knot_distance="true"
   apply_no_radius="true"
   apply_with_radius="true"
   only_selected="true"
   hide_knots="false" /><inkscape:path-effect
   effect="spiro"
   id="path-effect855"
   is_visible="true"
   lpeversion="1" /><inkscape:path-effect
   effect="spiro"
   id="path-effect878"
   is_visible="true"
   lpeversion="1" /><inkscape:path-effect
   effect="spiro"
   id="path-effect875"
   is_visible="true"
   lpeversion="1" /><inkscape:path-effect
   effect="spiro"
   id="path-effect856"
   is_visible="true"
   lpeversion="1" /><inkscape:path-effect
   effect="spiro"
   id="path-effect852"
   is_visible="true"
   lpeversion="1" /><inkscape:path-effect
   effect="spiro"
   id="path-effect850"
   is_visible="true"
   lpeversion="1" /><inkscape:path-effect
   effect="spiro"
   id="path-effect851"
   is_visible="true"
   lpeversion="1" />
  <style
   type="text/css"
   id="style2">
   <![CDATA[
    .fil0 {fill:#EF7F1A;fill-rule:nonzero}
   ]]>
  </style>
 <inkscape:path-effect
   effect="spiro"
   id="path-effect1214"
   is_visible="true"
   lpeversion="1" /><inkscape:path-effect
   effect="spiro"
   id="path-effect1195"
   is_visible="true"
   lpeversion="1" /><inkscape:path-effect
   effect="spiro"
   id="path-effect992"
   is_visible="true"
   lpeversion="1" /><inkscape:path-effect
   effect="spiro"
   id="path-effect1060"
   is_visible="true"
   lpeversion="1" /><inkscape:path-effect
   effect="spiro"
   id="path-effect1047"
   is_visible="true"
   lpeversion="1" /><inkscape:path-effect
   effect="spiro"
   id="path-effect1085"
   is_visible="true"
   lpeversion="1" /><inkscape:path-effect
   effect="spiro"
   id="path-effect1286"
   is_visible="true"
   lpeversion="1" /><inkscape:path-effect
   effect="spiro"
   id="path-effect1305"
   is_visible="true"
   lpeversion="1" /></defs>
 
<path
   style="fill:#a51d2d;fill-rule:nonzero;stroke:#000000;stroke-width:1px;stroke-linecap:butt;stroke-linejoin:miter;stroke-opacity:1"
   d="m 206.0847,799.06324 c 50.7711,4.09061 103.04051,-12.16622 142.0206,-44.95327 38.98009,-32.78705 64.03142,-81.83742 66.94207,-132.68982 3.18328,-55.61559 -20.44346,-112.00988 -61.80549,-149.32488 -39.10531,-35.2791 -90.66713,-52.6668 -140.45933,-69.83004 -25.0342,-8.62922 -50.34255,-17.5899 -72.17119,-32.57939 -10.91432,-7.49475 -20.88063,-16.48273 -28.80618,-27.08836 -7.92554,-10.60562 -13.774387,-22.86718 -16.22561,-35.87814 -4.274256,-22.68753 2.239723,-46.85971 16.05974,-65.35296 13.82001,-18.49325 34.52019,-31.37391 56.84597,-37.25205 30.55856,-8.04574 64.06948,-3.09311 91.69118,12.25621 27.99971,15.55938 49.7932,41.7735 60.51022,71.91755 3.58002,10.06964 9.39366,11.13749 14.69789,1.8478 l 46.34187,-81.16184 c 3.97585,-6.9632 3.47587,-17.94611 -1.56832,-24.17728 C 362.04093,162.41633 339.6733,143.47775 314.57816,129.3537 260.42105,98.872993 193.35035,91.895417 134.37337,111.48577 98.164517,123.51325 64.889809,145.49466 41.851205,175.90788 18.812602,206.3211 6.5604682,245.3294 10.861949,283.24033 c 2.561335,22.57422 10.8157,44.33679 22.779333,63.65071 11.963633,19.31393 27.576686,36.23092 45.05565,50.74442 34.957928,29.02702 76.853518,48.27428 118.676918,66.03457 34.80429,14.77963 70.52555,29.10728 99.82082,53.01467 14.64763,11.95369 27.53471,26.27925 36.57527,42.88383 9.04056,16.60459 14.12189,35.564 13.11355,54.44328 -0.88591,16.58692 -6.47061,32.82764 -15.51469,46.76017 -9.04408,13.93254 -21.48955,25.56552 -35.7202,34.13287 -28.4613,17.13471 -63.43137,21.64287 -96.24681,16.46689 -22.39019,-3.5316 -44.36606,-11.54236 -62.33034,-25.36543 -17.96428,-13.82306 -31.66537,-33.76036 -35.73674,-56.05871 -3.786445,-20.73786 0.84391,-42.38001 9.86483,-61.43307 9.02091,-19.05305 22.2336,-35.80691 36.23103,-51.56977 27.42318,-30.88195 58.39328,-58.72562 92.78419,-81.59461 39.78971,-26.45903 84.07793,-46.12695 130.37211,-57.95734 9.50296,-2.42847 15.49263,-11.77925 13.26897,-21.33295 l -18.21499,-78.25858 c -1.3459,-5.78248 -7.05041,-9.09676 -12.7009,-7.27489 -91.94838,29.64663 -175.7368,84.27918 -239.86157,156.55067 C 86.954536,456.5198 63.883274,489.101 48.621932,525.38353 33.360591,561.66605 26.171427,601.88767 32.046677,640.80825 38.361,682.63747 59.942591,721.87206 91.405274,750.15022 122.86796,778.42837 163.91821,795.6659 206.0847,799.06324 Z"
   id="path853"
   inkscape:path-effect="#path-effect855;#path-effect854"
   inkscape:original-d="M 206.0847,799.06324 C 297.49435,800.58871 393.59132,710.2891 415.04737,621.42015 427.69021,569.0547 389.9984,511.47725 353.24188,472.09527 317.56573,433.87083 256.72753,430.59778 212.78255,402.26523 170.41942,374.95254 102.34045,356.66839 95.57957,306.71934 c -5.627703,-41.57723 34.42787,-85.878 72.90571,-102.60501 28.27904,-12.29341 65.21856,-3.5562 91.69118,12.25621 32.00713,19.11823 73.81644,51.82483 65.60395,90.58581 l 63.14494,-110.59028 c 0,0 -43.8317,-53.52407 -74.34719,-67.01237 C 259.36825,104.9501 189.38457,86.637478 134.37337,111.48577 70.107604,140.5143 4.5754898,213.00341 10.861949,283.24033 c 7.711314,86.15644 124.926021,119.68782 186.511901,180.4297 50.31904,49.62944 156.73057,80.0357 149.50964,150.34178 -6.01846,58.59827 -88.66338,100.58235 -147.4817,97.35993 -42.42434,-2.32426 -87.75016,-40.20778 -98.06708,-81.42414 -9.87815,-39.46345 22.51193,-79.8556 46.09586,-113.00284 23.87672,-33.55875 57.87581,-59.73843 92.78419,-81.59461 45.24711,-28.32927 128.98507,-52.99988 147.66737,-61.99178 L 363.20389,267.33118 c 0,0 -187.73487,82.9719 -250.12551,159.74588 C 65.026721,486.20639 14.288312,566.71452 32.046677,640.80825 50.322089,717.05927 127.68511,797.75489 206.0847,799.06324 Z"
   sodipodi:nodetypes="aaaaaaaccaaaaaaaaaccaaa" /></svg>
