<?xml version="1.0" encoding="UTF-8" standalone="no"?>
<svg
   xml:space="preserve"
   width="1000"
   height="1000"
   version="1.1"
   style="clip-rule:evenodd;fill-rule:evenodd;image-rendering:optimizeQuality;shape-rendering:geometricPrecision;text-rendering:geometricPrecision"
   viewBox="0 0 1000 1000"
   id="svg10"
   sodipodi:docname="8.svg"
   inkscape:version="1.1.2 (0a00cf5339, 2022-02-04)"
   xmlns:inkscape="http://www.inkscape.org/namespaces/inkscape"
   xmlns:sodipodi="http://sodipodi.sourceforge.net/DTD/sodipodi-0.dtd"
   xmlns="http://www.w3.org/2000/svg"
   xmlns:svg="http://www.w3.org/2000/svg"
   xmlns:rdf="http://www.w3.org/1999/02/22-rdf-syntax-ns#"
   xmlns:cc="http://creativecommons.org/ns#"
   xmlns:dc="http://purl.org/dc/elements/1.1/"><metadata
   id="metadata14"><rdf:RDF><cc:Work
       rdf:about=""><dc:format>image/svg+xml</dc:format><dc:type
         rdf:resource="http://purl.org/dc/dcmitype/StillImage" /></cc:Work></rdf:RDF></metadata><sodipodi:namedview
   pagecolor="#ffffff"
   bordercolor="#666666"
   borderopacity="1"
   objecttolerance="10"
   gridtolerance="10"
   guidetolerance="10"
   inkscape:pageopacity="0"
   inkscape:pageshadow="2"
   inkscape:window-width="1920"
   inkscape:window-height="1009"
   id="namedview12"
   showgrid="false"
   inkscape:zoom="0.84890885"
   inkscape:cx="230.29563"
   inkscape:cy="394.62423"
   inkscape:window-x="0"
   inkscape:window-y="0"
   inkscape:window-maximized="1"
   inkscape:current-layer="svg10"
   showguides="true"
   inkscape:guide-bbox="true"
   inkscape:document-rotation="0"
   inkscape:pagecheckerboard="0"><sodipodi:guide
     position="0,1000"
     orientation="0,1"
     id="guide16"
     inkscape:label=""
     inkscape:locked="true"
     inkscape:color="rgb(0,0,255)" /><sodipodi:guide
     position="1763.3122,2036.1693"
     orientation="1000,0"
     id="guide18" /><sodipodi:guide
     position="0,200"
     orientation="0,1"
     id="guide20"
     inkscape:label="base"
     inkscape:locked="true"
     inkscape:color="rgb(0,0,255)" /><inkscape:grid
     type="xygrid"
     id="grid24"
     originx="-473.37552"
     originy="-489.69235" /><sodipodi:guide
     position="0,0"
     orientation="0,1"
     id="guide34"
     inkscape:label="bottom"
     inkscape:locked="true"
     inkscape:color="rgb(0,0,255)" /><sodipodi:guide
     position="225.05109,1693.3186"
     orientation="0,1"
     id="guide44"
     inkscape:label=""
     inkscape:locked="false"
     inkscape:color="rgb(0,0,255)" /><sodipodi:guide
     position="0,900"
     orientation="0,1"
     id="guide46"
     inkscape:label=""
     inkscape:locked="true"
     inkscape:color="rgb(0,0,255)" /><sodipodi:guide
     position="471.76549,1033.3877"
     orientation="-1,0"
     id="guide841"
     inkscape:label="width"
     inkscape:locked="false"
     inkscape:color="rgb(0,0,255)" /></sodipodi:namedview>
 <defs
   id="defs4"><inkscape:path-effect
   effect="fillet_chamfer"
   id="path-effect854"
   is_visible="true"
   lpeversion="1"
   satellites_param="F,0,0,1,0,0,0,1 @ F,0,0,1,0,0,0,1 @ F,0,0,1,0,0,0,1 @ F,0,0,1,0,0,0,1 @ F,0,0,1,0,0,0,1 @ F,0,0,1,0,0,0,1 @ F,0,0,1,0,0,0,1 @ F,0,0,1,0,0,0,1 @ F,0,0,1,0,0,0,1 @ F,0,0,1,0,0,0,1 @ F,0,0,1,0,0,0,1 @ F,0,0,1,0,19.369245,0,1 @ F,0,0,1,0,14.518452,0,1 @ F,0,0,1,0,0,0,1 @ F,0,0,1,0,0,0,1 @ F,0,0,1,0,0,0,1 @ F,0,0,1,0,0,0,1 @ F,0,0,1,0,0,0,1 @ F,0,0,1,0,0,0,1 @ F,0,0,1,0,0,0,1 @ F,0,0,1,0,0,0,1 @ F,0,0,1,0,0,0,1 @ F,0,0,1,0,0,0,1 @ F,0,0,1,0,0,0,1 @ F,0,0,1,0,0,0,1 @ F,0,0,1,0,0,0,1 @ F,0,0,1,0,0,0,1 @ F,0,0,1,0,0,0,1 @ F,0,0,1,0,0,0,1 @ F,0,0,1,0,0,0,1 @ F,0,0,1,0,0,0,1 @ F,0,0,1,0,17.760895,0,1 @ F,0,0,1,0,10.749967,0,1 @ F,0,0,1,0,0,0,1 @ F,0,0,1,0,0,0,1 @ F,0,0,1,0,0,0,1 @ F,0,0,1,0,0,0,1"
   unit="px"
   method="auto"
   mode="F"
   radius="0"
   chamfer_steps="1"
   flexible="false"
   use_knot_distance="true"
   apply_no_radius="true"
   apply_with_radius="true"
   only_selected="true"
   hide_knots="false" /><inkscape:path-effect
   effect="spiro"
   id="path-effect855"
   is_visible="true"
   lpeversion="1" /><inkscape:path-effect
   effect="spiro"
   id="path-effect878"
   is_visible="true"
   lpeversion="1" /><inkscape:path-effect
   effect="spiro"
   id="path-effect875"
   is_visible="true"
   lpeversion="1" /><inkscape:path-effect
   effect="spiro"
   id="path-effect856"
   is_visible="true"
   lpeversion="1" /><inkscape:path-effect
   effect="spiro"
   id="path-effect852"
   is_visible="true"
   lpeversion="1" /><inkscape:path-effect
   effect="spiro"
   id="path-effect850"
   is_visible="true"
   lpeversion="1" /><inkscape:path-effect
   effect="spiro"
   id="path-effect851"
   is_visible="true"
   lpeversion="1" />
  <style
   type="text/css"
   id="style2">
   
    .fil0 {fill:#EF7F1A;fill-rule:nonzero}
   
  </style>
 <inkscape:path-effect
   effect="spiro"
   id="path-effect1214"
   is_visible="true"
   lpeversion="1" /><inkscape:path-effect
   effect="spiro"
   id="path-effect1195"
   is_visible="true"
   lpeversion="1" /><inkscape:path-effect
   effect="spiro"
   id="path-effect992"
   is_visible="true"
   lpeversion="1" /><inkscape:path-effect
   effect="spiro"
   id="path-effect1060"
   is_visible="true"
   lpeversion="1" /><inkscape:path-effect
   effect="spiro"
   id="path-effect1047"
   is_visible="true"
   lpeversion="1" /><inkscape:path-effect
   effect="spiro"
   id="path-effect1085"
   is_visible="true"
   lpeversion="1" /><inkscape:path-effect
   effect="spiro"
   id="path-effect1286"
   is_visible="true"
   lpeversion="1" /><inkscape:path-effect
   effect="spiro"
   id="path-effect1305"
   is_visible="true"
   lpeversion="1" /></defs>
 
<path
   style="fill:#a51d2d;fill-rule:nonzero;stroke:none;stroke-width:1.1253px;stroke-linecap:butt;stroke-linejoin:miter;stroke-opacity:1"
   d="m 110.63294,764.2955 c 37.27736,22.28982 80.68163,34.11637 124.11471,34.19323 43.43308,0.0769 86.78489,-11.55391 124.53442,-33.03438 32.25797,-18.35563 60.65013,-44.10884 79.80797,-75.89693 19.15785,-31.78809 28.72273,-69.73402 24.31302,-106.58589 C 457.74014,535.6466 429.69779,493.19918 394.18203,461.4132 358.66628,429.62722 315.90464,407.21022 273.13546,386.17419 236.39467,368.10323 198.77496,350.47501 167.80507,323.69234 152.32013,310.301 138.62858,294.64952 128.69546,276.74855 c -9.93312,-17.90096 -16.02052,-38.11968 -16.15551,-58.59145 -0.21339,-32.36257 14.97296,-64.21075 39.31941,-85.53285 24.34646,-21.3221 57.27368,-32.13002 89.61235,-30.86823 28.95499,1.12977 57.60261,11.82113 79.62227,30.65733 22.01966,18.8362 37.12227,45.81462 40.75519,74.563 2.59509,20.5357 -0.58457,41.67827 -8.42895,60.8333 -7.84439,19.15503 -20.28068,36.3243 -35.54297,50.30685 -33.26793,30.47842 -77.7832,44.71147 -118.11488,64.93632 -35.11769,17.61022 -67.65926,40.18501 -97.2175,66.06323 -21.576428,18.89015 -41.714416,39.69953 -57.505657,63.63729 -15.79124,23.93777 -27.146184,51.17574 -30.178761,79.69211 -3.662484,34.4396 5.100214,69.74097 22.599093,99.62892 17.498879,29.88794 43.448245,54.44712 73.173395,72.22113 z M 331.48593,405.28197 c 31.79414,-21.69981 58.39804,-51.03209 76.54246,-84.98101 18.14441,-33.94892 27.76006,-72.46897 27.29326,-110.95963 C 434.6646,155.16319 413.38491,101.1556 375.52542,62.395286 337.66593,23.634977 283.36416,0.96382226 229.22683,3.1666185 177.41832,5.2746575 127.31936,29.960543 92.430994,68.318955 57.54263,106.67737 37.827281,158.0074 35.835028,209.82049 33.620707,267.40898 53.66577,326.30063 93.5557,367.89547 c 41.31425,43.08004 99.33977,64.86881 154.13404,88.54042 28.14351,12.15825 56.30707,25.37595 79.7261,45.16051 23.41904,19.78456 41.90285,47.07919 45.12599,77.56675 1.64078,15.52011 -0.7336,31.39378 -6.41496,45.92952 -5.68137,14.53575 -14.62912,27.73275 -25.70554,38.72724 -22.15283,21.98899 -52.43083,34.7745 -83.36876,38.91065 -35.1146,4.69454 -72.34962,-1.7152 -101.67073,-21.59851 -14.66056,-9.94166 -27.17992,-23.13395 -35.85243,-38.57921 -8.67251,-15.44525 -13.43519,-33.14556 -13.12408,-50.85634 0.2927,-16.66291 5.04152,-33.11349 12.81183,-47.85664 7.77031,-14.74316 18.50634,-27.81646 30.80115,-39.06705 24.58963,-22.50119 54.97071,-37.55216 85.40231,-51.14889 32.7791,-14.64558 66.41155,-28.10296 96.06531,-48.34195 z"
   id="path853"
   inkscape:path-effect="#path-effect855"
   inkscape:original-d="m 110.63294,764.2955 c 71.36525,42.1515 176.87849,42.61633 248.64913,1.15885 C 419.92456,730.42491 472.13519,652.45767 463.40306,582.97153 452.02602,492.43853 336.37037,451.95419 273.13546,386.17419 219.44388,330.32163 109.68904,295.57911 112.53995,218.1571 c 2.13064,-57.86167 71.03274,-115.93632 128.93176,-116.40108 53.29207,-0.42778 107.81972,53.42717 120.37746,105.22033 9.3878,38.71905 -17.62856,81.25164 -43.97192,111.14015 -29.70796,33.70587 -79.80596,41.46128 -118.11488,64.93632 -33.40663,20.471 -70.18358,37.70422 -97.2175,66.06323 -38.645063,40.53928 -86.547667,87.33313 -87.684418,143.3294 -1.331,65.56495 39.307714,138.49943 95.772488,171.85005 z M 331.48593,405.28197 C 384.3019,353.56817 446.29093,282.4407 435.32165,209.34133 420.90136,113.2444 326.38651,1.5659878 229.22683,3.1666185 134.89616,4.7206435 54.677752,117.37785 35.835028,209.82049 24.631561,264.78484 57.429556,324.98278 93.5557,367.89547 c 38.15933,45.32782 106.93309,52.72401 154.13404,88.54042 46.48847,35.27578 123.61615,64.38319 124.85209,122.72726 1.19404,56.36571 -59.34937,118.38742 -115.48926,123.56741 -62.11771,5.73157 -144.91197,-48.91669 -150.64724,-111.03406 -5.79115,-62.72262 78.59571,-100.31638 129.01529,-138.07258 28.69409,-21.48728 70.45134,-23.2625 96.06531,-48.34195 z"
   sodipodi:nodetypes="aaaaaaaaaaaaaaaaaaaaaaa" /></svg>
