<?xml version="1.0" encoding="UTF-8" standalone="no"?>
<svg
   xmlns:dc="http://purl.org/dc/elements/1.1/"
   xmlns:cc="http://creativecommons.org/ns#"
   xmlns:rdf="http://www.w3.org/1999/02/22-rdf-syntax-ns#"
   xmlns:svg="http://www.w3.org/2000/svg"
   xmlns="http://www.w3.org/2000/svg"
   xmlns:sodipodi="http://sodipodi.sourceforge.net/DTD/sodipodi-0.dtd"
   xmlns:inkscape="http://www.inkscape.org/namespaces/inkscape"
   xml:space="preserve"
   width="1000"
   height="1000"
   version="1.1"
   style="clip-rule:evenodd;fill-rule:evenodd;image-rendering:optimizeQuality;shape-rendering:geometricPrecision;text-rendering:geometricPrecision"
   viewBox="0 0 1000 1000"
   id="svg10"
   sodipodi:docname="ae.svg"
   inkscape:version="1.0.2 (e86c870879, 2021-01-15)"><metadata
   id="metadata14"><rdf:RDF><cc:Work
       rdf:about=""><dc:format>image/svg+xml</dc:format><dc:type
         rdf:resource="http://purl.org/dc/dcmitype/StillImage" /><dc:title /></cc:Work></rdf:RDF></metadata><sodipodi:namedview
   pagecolor="#ffffff"
   bordercolor="#666666"
   borderopacity="1"
   objecttolerance="10"
   gridtolerance="10"
   guidetolerance="10"
   inkscape:pageopacity="0"
   inkscape:pageshadow="2"
   inkscape:window-width="1920"
   inkscape:window-height="1007"
   id="namedview12"
   showgrid="false"
   inkscape:zoom="0.84890884"
   inkscape:cx="420.35116"
   inkscape:cy="464.87364"
   inkscape:window-x="1920"
   inkscape:window-y="0"
   inkscape:window-maximized="1"
   inkscape:current-layer="g889"
   showguides="true"
   inkscape:guide-bbox="true"
   inkscape:document-rotation="0"><sodipodi:guide
   position="0,1000"
   orientation="0,1"
   id="guide16"
   inkscape:label=""
   inkscape:locked="true"
   inkscape:color="rgb(0,0,255)" /><sodipodi:guide
   position="1763.3122,2036.1693"
   orientation="1000,0"
   id="guide18" /><sodipodi:guide
   position="0,200"
   orientation="0,1"
   id="guide20"
   inkscape:label="base"
   inkscape:locked="true"
   inkscape:color="rgb(0,0,255)" /><inkscape:grid
   type="xygrid"
   id="grid24"
   originx="-473.37552"
   originy="-489.69235" /><sodipodi:guide
   position="0,0"
   orientation="0,1"
   id="guide34"
   inkscape:label="bottom"
   inkscape:locked="true"
   inkscape:color="rgb(0,0,255)" /><sodipodi:guide
   position="225.05109,1693.3186"
   orientation="0,1"
   id="guide44"
   inkscape:label=""
   inkscape:locked="false"
   inkscape:color="rgb(0,0,255)" /><sodipodi:guide
   position="0,900"
   orientation="0,1"
   id="guide46"
   inkscape:label=""
   inkscape:locked="true"
   inkscape:color="rgb(0,0,255)" /><sodipodi:guide
   position="774.85815,557.83876"
   orientation="1,0"
   id="guide841"
   inkscape:label="width" />    <sodipodi:guide
   position="-19.120246,799.83849"
   orientation="0,-1"
   id="guide851" /><sodipodi:guide
   position="670.2722,499.35732"
   orientation="0,-1"
   id="guide853" /><sodipodi:guide
   position="207.32497,820.94662"
   orientation="1,0"
   id="guide855" /></sodipodi:namedview>
 <defs
   id="defs4"><inkscape:path-effect
   effect="spiro"
   id="path-effect928"
   is_visible="true"
   lpeversion="1" /><inkscape:path-effect
   effect="spiro"
   id="path-effect921"
   is_visible="true"
   lpeversion="1" /><inkscape:path-effect
   effect="spiro"
   id="path-effect917"
   is_visible="true"
   lpeversion="1" /><inkscape:path-effect
   effect="spiro"
   id="path-effect849"
   is_visible="true"
   lpeversion="1" /><inkscape:path-effect
   effect="spiro"
   id="path-effect851"
   is_visible="true"
   lpeversion="1" />
  <style
   type="text/css"
   id="style2">
   <![CDATA[
    .fil0 {fill:#EF7F1A;fill-rule:nonzero}
   ]]>
  </style>
 <inkscape:path-effect
   effect="spiro"
   id="path-effect1214"
   is_visible="true"
   lpeversion="1" /><inkscape:path-effect
   effect="spiro"
   id="path-effect1195"
   is_visible="true"
   lpeversion="1" /><inkscape:path-effect
   effect="spiro"
   id="path-effect992"
   is_visible="true"
   lpeversion="1" /><inkscape:path-effect
   effect="spiro"
   id="path-effect1060"
   is_visible="true"
   lpeversion="1" /><inkscape:path-effect
   effect="spiro"
   id="path-effect1047"
   is_visible="true"
   lpeversion="1" /><inkscape:path-effect
   effect="spiro"
   id="path-effect1085"
   is_visible="true"
   lpeversion="1" /><inkscape:path-effect
   effect="spiro"
   id="path-effect1286"
   is_visible="true"
   lpeversion="1" /><inkscape:path-effect
   effect="spiro"
   id="path-effect862"
   is_visible="true"
   lpeversion="1" /><inkscape:path-effect
   effect="spiro"
   id="path-effect857"
   is_visible="true"
   lpeversion="1" /><inkscape:path-effect
   effect="spiro"
   id="path-effect853"
   is_visible="true"
   lpeversion="1" /><style
   type="text/css"
   id="style2-0">
   <![CDATA[
    .fil0 {fill:#EF7F1A;fill-rule:nonzero}
   ]]>
  </style></defs>
 
<g
   style="clip-rule:evenodd;fill-rule:evenodd;image-rendering:optimizeQuality;shape-rendering:geometricPrecision;text-rendering:geometricPrecision;stroke:none"
   id="g889"><path
     id="path855"
     style="fill:#2d2d2d;fill-rule:nonzero;stroke:none;stroke-width:1.0214px;stroke-linecap:butt;stroke-linejoin:miter;stroke-opacity:1"
     inkscape:path-effect="#path-effect862"
     inkscape:original-d="m 457.68549,376.97162 c 28.24665,-40.30505 82.07885,-64.62896 131.19817,-67.73756 37.46673,-2.37115 91.28877,3.65177 105.7893,38.63975 15.45426,37.28921 -17.27742,86.62296 -49.98406,110.25886 -54.40594,39.31721 -153.29814,69.36528 -200.23855,21.38146 -24.10066,-24.63638 -6.54444,-74.3191 13.23514,-102.54251 z m -23.34777,213.96654 c 65.75323,-6.31039 140.52529,-1.18783 200.35314,-32.81771 47.3606,-25.03868 84.99444,-69.29889 110.77858,-116.43781 18.14079,-33.16526 31.8483,-72.7185 27.22149,-110.33596 -4.53092,-36.83777 -20.72248,-78.77476 -52.01756,-98.13776 -56.67383,-35.0654 -137.1518,-25.59664 -199.24174,-3.83736 -53.38403,18.7083 -96.49973,62.09396 -125.63518,107.36137 -38.66396,60.07172 -58.24717,133.33492 -55.72307,203.13894 2.33395,64.54541 20.6784,136.90155 64.98007,184.25836 43.71784,46.73271 111.32907,74.52294 175.89221,74.73777 55.75876,0.18554 106.95421,-33.77263 152.40794,-63.53334 14.97927,-9.80764 25.02625,-17.55732 37.98216,-36.81667 l 0.2706,-149.21699 c -4.31846,27.42018 -40.02539,61.63239 -68.03886,85.94576 -39.38016,34.17872 -84.03126,86.61394 -136.59953,80.75106 C 506.57809,709.2626 462.42943,641.06718 434.33772,590.93816 Z M 65.62462,500.73174 C 66.15543,421.47098 122.35868,306.22495 201.61929,305.67175 278.7636,305.13332 334.6888,416.53547 336.61994,493.65749 338.69068,576.35441 284.84801,701.28495 202.1305,702.22454 121.00949,703.146 65.08133,581.85616 65.62462,500.73174 Z M 204.58435,200.33998 C 86.25556,223.56237 -1.01868,377.45891 -0.9409,498.04488 -0.8628,619.1385 85.65948,781.8537 205.83506,796.73659 269.138,804.57621 349.84599,670.72331 349.84599,670.72331 c 0,0 10.35409,40.0079 8.4425,60.17092 -2.27345,23.98001 -9.14863,53.30917 -23.30995,68.39978 h 107.45207 c -16.58842,-28.14136 -1.04144,-74.0645 -4.81367,-110.85969 -6.59675,-64.34621 -27.92881,-126.93701 -31.0942,-191.54299 -3.37151,-68.81297 3.21125,-138.08208 13.01661,-206.27626 4.43334,-30.83299 5.37401,-66.84753 20.63018,-91.14463 l -101.88251,-1.90882 c 48.32288,57.85852 11.67667,97.81562 11.67667,97.81562 0,0 -88.56734,-106.18679 -145.37934,-95.03726 z"
     d="m 457.68549,376.97162 c 15.32817,-20.05725 36.04694,-35.66731 58.77208,-46.65885 22.72514,-10.99154 47.43864,-17.49079 72.42609,-21.07871 20.02566,-2.87546 40.75455,-3.8713 60.21872,1.64608 9.73208,2.75868 19.0539,7.15418 27.02806,13.37806 7.97415,6.22388 14.57113,14.31228 18.54252,23.61561 4.25218,9.96112 5.40727,21.11557 4.02299,31.85748 -1.38428,10.74192 -5.24402,21.08264 -10.58852,30.5029 -10.68901,18.84051 -26.9928,33.77703 -43.41853,47.89848 -29.20276,25.10605 -61.05436,49.39808 -98.62853,57.84181 -18.78709,4.22186 -38.73859,4.22043 -57.05258,-1.72739 -18.31399,-5.94782 -34.85625,-18.09969 -44.55744,-34.73296 -9.21088,-15.79261 -11.8982,-34.96292 -9.00215,-53.01451 2.89604,-18.05159 11.13608,-35.00182 22.23729,-49.528 z m -23.34777,213.96654 c 67.75822,14.24979 140.68209,2.30491 200.35314,-32.81771 46.74517,-27.5144 85.08149,-68.66949 110.77858,-116.43781 18.19789,-33.82806 30.32813,-72.04955 27.22149,-110.33596 -3.08192,-37.98171 -21.92706,-74.75678 -52.01756,-98.13776 -27.64677,-21.48215 -63.44032,-31.05698 -98.4446,-30.33131 -35.00428,0.72567 -69.29279,11.2197 -100.79714,26.49395 -50.14007,24.3094 -94.39143,61.22243 -125.63518,107.36137 -40.01295,59.08878 -57.65003,131.80307 -55.72307,203.13894 1.79446,66.43075 21.17557,134.28407 64.98007,184.25836 43.45299,49.57327 110.05976,78.16703 175.89221,74.73777 55.91501,-2.91265 109.26351,-27.84679 152.40794,-63.53334 13.60091,-11.24988 26.31399,-23.57286 37.98216,-36.81667 l 0.2706,-149.21699 c -20.4588,30.31695 -43.22577,59.07588 -68.03886,85.94576 -18.40079,19.92606 -38.08207,38.94017 -60.80085,53.75549 -22.71879,14.81533 -48.72708,25.33255 -75.79868,26.99557 -33.98484,2.0877 -68.6224,-10.45158 -93.39525,-33.81039 -24.77285,-23.3588 -39.32396,-57.20048 -39.235,-91.24927 z M 65.62462,500.73174 c 0.389495,-44.15686 6.788201,-89.55966 29.019245,-127.7141 11.115525,-19.07722 26.148905,-36.04092 44.577405,-48.20172 18.42851,-12.16081 40.31991,-19.37229 62.39802,-19.14417 21.3235,0.22032 42.33992,7.36643 60.13602,19.11544 17.79609,11.749 32.43389,27.97493 43.46251,46.22622 22.05723,36.50259 29.50798,80.03689 31.40212,122.64408 2.05944,46.32544 -2.38001,94.37388 -24.20879,135.28588 -10.9144,20.456 -26.14574,38.79009 -45.17146,52.04128 -19.02571,13.25119 -41.9236,21.25423 -65.10919,21.23989 -22.61843,-0.014 -44.96291,-7.65055 -63.69594,-20.32601 C 119.70154,669.22308 104.50964,651.65813 93.375738,631.96982 71.107929,592.5932 65.225614,545.96684 65.62462,500.73174 Z M 204.58435,200.33998 c -33.4692,0.43869 -66.41815,11.87968 -94.15995,30.6086 C 82.682601,249.67749 60.049351,275.48986 43.259814,304.44657 9.680738,362.35999 -0.27136499,431.10408 -0.9409,498.04488 c -0.6784682,67.83395 8.2012358,137.84878 42.090333,196.61471 16.944549,29.38296 40.080727,55.46436 68.513897,73.95844 28.43318,18.49407 62.26898,29.15779 96.17173,28.11856 34.541,-1.0588 68.57771,-14.44649 94.58434,-37.20297 26.00664,-22.75647 43.79307,-54.71536 49.42659,-88.81031 7.04993,19.15149 9.94973,39.81879 8.4425,60.17092 -1.79835,24.28309 -9.90536,48.07198 -23.30995,68.39978 h 107.45207 c 1.40539,-37.00221 -0.20625,-74.11857 -4.81367,-110.85969 -8.05106,-64.20185 -25.20641,-127.10674 -31.0942,-191.54299 -6.28905,-68.82765 0.40784,-138.32174 13.01661,-206.27626 5.68426,-30.63515 12.56801,-61.04771 20.63018,-91.14463 l -101.88251,-1.90882 11.67667,97.81562 C 338.01218,267.0871 317.47337,242.49193 291.76764,225.6876 266.0619,208.88326 235.29279,199.93747 204.58435,200.33998 Z" /></g></svg>
