<?xml version="1.0" encoding="UTF-8" standalone="no"?>
<svg
   xml:space="preserve"
   width="1000"
   height="1000"
   version="1.1"
   style="clip-rule:evenodd;fill-rule:evenodd;image-rendering:optimizeQuality;shape-rendering:geometricPrecision;text-rendering:geometricPrecision"
   viewBox="0 0 1000 1000"
   id="svg10"
   sodipodi:docname="ae.svg"
   inkscape:version="1.1.1 (3bf5ae0d25, 2021-09-20)"
   xmlns:inkscape="http://www.inkscape.org/namespaces/inkscape"
   xmlns:sodipodi="http://sodipodi.sourceforge.net/DTD/sodipodi-0.dtd"
   xmlns="http://www.w3.org/2000/svg"
   xmlns:svg="http://www.w3.org/2000/svg"
   xmlns:rdf="http://www.w3.org/1999/02/22-rdf-syntax-ns#"
   xmlns:cc="http://creativecommons.org/ns#"
   xmlns:dc="http://purl.org/dc/elements/1.1/"><metadata
   id="metadata14"><rdf:RDF><cc:Work
       rdf:about=""><dc:format>image/svg+xml</dc:format><dc:type
         rdf:resource="http://purl.org/dc/dcmitype/StillImage" /><dc:title /></cc:Work></rdf:RDF></metadata><sodipodi:namedview
   pagecolor="#ffffff"
   bordercolor="#666666"
   borderopacity="1"
   objecttolerance="10"
   gridtolerance="10"
   guidetolerance="10"
   inkscape:pageopacity="0"
   inkscape:pageshadow="2"
   inkscape:window-width="1920"
   inkscape:window-height="1009"
   id="namedview12"
   showgrid="false"
   inkscape:zoom="1.2005384"
   inkscape:cx="454.37946"
   inkscape:cy="539.34134"
   inkscape:window-x="0"
   inkscape:window-y="0"
   inkscape:window-maximized="1"
   inkscape:current-layer="g889"
   showguides="true"
   inkscape:guide-bbox="true"
   inkscape:document-rotation="0"
   inkscape:pagecheckerboard="0"><sodipodi:guide
   position="0,1000"
   orientation="0,1"
   id="guide16"
   inkscape:label=""
   inkscape:locked="true"
   inkscape:color="rgb(0,0,255)" /><sodipodi:guide
   position="1763.3122,2036.1693"
   orientation="1000,0"
   id="guide18" /><sodipodi:guide
   position="0,200"
   orientation="0,1"
   id="guide20"
   inkscape:label="base"
   inkscape:locked="true"
   inkscape:color="rgb(0,0,255)" /><inkscape:grid
   type="xygrid"
   id="grid24"
   originx="-473.37552"
   originy="-489.69235" /><sodipodi:guide
   position="0,0"
   orientation="0,1"
   id="guide34"
   inkscape:label="bottom"
   inkscape:locked="true"
   inkscape:color="rgb(0,0,255)" /><sodipodi:guide
   position="225.05109,1693.3186"
   orientation="0,1"
   id="guide44"
   inkscape:label=""
   inkscape:locked="false"
   inkscape:color="rgb(0,0,255)" /><sodipodi:guide
   position="0,900"
   orientation="0,1"
   id="guide46"
   inkscape:label=""
   inkscape:locked="true"
   inkscape:color="rgb(0,0,255)" /><sodipodi:guide
   position="829.23264,601.96099"
   orientation="1,0"
   id="guide841"
   inkscape:label="width" />    <sodipodi:guide
   position="-19.120246,799.83849"
   orientation="0,-1"
   id="guide851" /><sodipodi:guide
   position="670.2722,499.35732"
   orientation="0,-1"
   id="guide853" /><sodipodi:guide
   position="207.32497,820.94662"
   orientation="1,0"
   id="guide855" /></sodipodi:namedview>
 <defs
   id="defs4"><inkscape:path-effect
   effect="fillet_chamfer"
   id="path-effect2639"
   is_visible="true"
   lpeversion="1"
   satellites_param="F,0,0,1,0,0,0,1 @ F,0,0,1,0,0,0,1 @ F,0,0,1,0,0,0,1 @ F,0,0,1,0,0,0,1 @ F,0,0,1,0,0,0,1 @ F,0,0,1,0,0,0,1 @ F,0,0,1,0,0,0,1 @ F,0,0,1,0,0,0,1 @ F,0,0,1,0,0,0,1 @ F,0,0,1,0,0,0,1 @ F,0,0,1,0,0,0,1 @ F,0,0,1,0,0,0,1 @ F,0,0,1,0,0,0,1 | F,0,0,1,0,0,0,1 @ F,0,0,1,0,0,0,1 @ F,0,0,1,0,0,0,1 @ F,0,0,1,0,0,0,1 @ F,0,0,1,0,0,0,1 @ F,0,0,1,0,0,0,1 @ F,0,0,1,0,0,0,1 @ F,0,0,1,0,0,0,1 @ F,0,0,1,0,0,0,1 @ F,0,0,1,0,0,0,1 @ F,0,0,1,0,0,0,1 @ F,0,0,1,0,0,0,1 @ F,0,0,1,0,0,0,1 @ F,0,0,1,0,14.571746,0,1 @ F,0,0,1,0,11.661998,0,1 @ F,0,0,1,0,0,0,1 @ F,0,0,1,0,0,0,1 @ F,0,0,1,0,0,0,1 @ F,0,0,1,0,0,0,1 | F,0,0,1,0,0,0,1 @ F,0,0,1,0,0,0,1 @ F,0,0,1,0,0,0,1 @ F,0,0,1,0,0,0,1 @ F,0,0,1,0,0,0,1 @ F,0,0,1,0,0,0,1 @ F,0,0,1,0,0,0,1 @ F,0,0,1,0,0,0,1 @ F,0,0,1,0,0,0,1 @ F,0,0,1,0,0,0,1 @ F,0,0,1,0,0,0,1 @ F,0,0,1,0,0,0,1 | F,0,0,1,0,0,0,1 @ F,0,0,1,0,0,0,1 @ F,0,0,1,0,0,0,1 @ F,0,0,1,0,0,0,1 @ F,0,0,1,0,0,0,1 @ F,0,0,1,0,0,0,1 @ F,0,0,1,0,0,0,1 @ F,0,0,1,0,0,0,1 @ F,0,0,1,0,0,0,1 @ F,0,0,1,0,0,0,1 @ F,0,0,1,0,0,0,1 @ F,0,0,1,0,11.381927,0,1 @ F,0,0,1,0,11.381927,0,1 @ F,0,0,1,0,0,0,1 @ F,0,0,1,0,0,0,1 @ F,0,0,1,0,0,0,1 @ F,0,0,1,0,11.381927,0,1 @ F,0,0,1,0,11.381927,0,1 @ F,0,0,1,0,0,0,1 @ F,0,0,1,0,0,0,1 @ F,0,0,1,0,0,0,1 @ F,0,0,1,0,0,0,1"
   unit="px"
   method="auto"
   mode="F"
   radius="0"
   chamfer_steps="1"
   flexible="false"
   use_knot_distance="true"
   apply_no_radius="true"
   apply_with_radius="true"
   only_selected="false"
   hide_knots="false" /><inkscape:path-effect
   effect="fillet_chamfer"
   id="path-effect859"
   is_visible="true"
   lpeversion="1"
   satellites_param="F,0,0,1,0,0,0,1 @ F,0,0,1,0,0,0,1 @ F,0,0,1,0,0,0,1 @ F,0,0,1,0,0,0,1 @ F,0,0,1,0,0,0,1 @ F,0,0,1,0,0,0,1 @ F,0,0,1,0,0,0,1 @ F,0,0,1,0,0,0,1 @ F,0,0,1,0,0,0,1 @ F,0,0,1,0,0,0,1 @ F,0,0,1,0,0,0,1 @ F,0,0,1,0,0,0,1 @ F,0,0,1,0,0,0,1 | F,0,0,1,0,0,0,1 @ F,0,0,1,0,0,0,1 @ F,0,0,1,0,0,0,1 @ F,0,0,1,0,0,0,1 @ F,0,0,1,0,0,0,1 @ F,0,0,1,0,0,0,1 @ F,0,0,1,0,0,0,1 @ F,0,0,1,0,0,0,1 @ F,0,0,1,0,0,0,1 @ F,0,0,1,0,0,0,1 @ F,0,0,1,0,0,0,1 @ F,0,0,1,0,0,0,1 @ F,0,0,1,0,0,0,1 @ F,0,1,1,0,21.475839,0,1 @ F,0,0,1,0,42.701247,0,1 @ F,0,0,1,0,0,0,1 @ F,0,0,1,0,0,0,1 @ F,0,0,1,0,0,0,1 @ F,0,0,1,0,0,0,1 | F,0,0,1,0,0,0,1 @ F,0,0,1,0,0,0,1 @ F,0,0,1,0,0,0,1 @ F,0,0,1,0,0,0,1 @ F,0,0,1,0,0,0,1 @ F,0,0,1,0,0,0,1 @ F,0,0,1,0,0,0,1 @ F,0,0,1,0,0,0,1 @ F,0,0,1,0,0,0,1 @ F,0,0,1,0,0,0,1 @ F,0,0,1,0,0,0,1 @ F,0,0,1,0,0,0,1 | F,0,0,1,0,0,0,1 @ F,0,0,1,0,0,0,1 @ F,0,0,1,0,0,0,1 @ F,0,0,1,0,0,0,1 @ F,0,0,1,0,0,0,1 @ F,0,0,1,0,0,0,1 @ F,0,0,1,0,0,0,1 @ F,0,0,1,0,0,0,1 @ F,0,0,1,0,0,0,1 @ F,0,0,1,0,0,0,1 @ F,0,0,1,0,42.701247,0,1 @ F,0,0,1,0,42.701247,0,1 @ F,0,0,1,0,0,0,1 @ F,0,0,1,0,0,0,1 @ F,0,0,1,0,0,0,1 @ F,0,0,1,0,42.701247,0,1 @ F,0,0,1,0,42.701247,0,1 @ F,0,0,1,0,0,0,1 @ F,0,0,1,0,0,0,1"
   unit="px"
   method="auto"
   mode="F"
   radius="0"
   chamfer_steps="1"
   flexible="false"
   use_knot_distance="true"
   apply_no_radius="true"
   apply_with_radius="true"
   only_selected="true"
   hide_knots="false" /><inkscape:path-effect
   effect="spiro"
   id="path-effect928"
   is_visible="true"
   lpeversion="1" /><inkscape:path-effect
   effect="spiro"
   id="path-effect921"
   is_visible="true"
   lpeversion="1" /><inkscape:path-effect
   effect="spiro"
   id="path-effect917"
   is_visible="true"
   lpeversion="1" /><inkscape:path-effect
   effect="spiro"
   id="path-effect849"
   is_visible="true"
   lpeversion="1" /><inkscape:path-effect
   effect="spiro"
   id="path-effect851"
   is_visible="true"
   lpeversion="1" />
  <style
   type="text/css"
   id="style2">
   <![CDATA[
    .fil0 {fill:#EF7F1A;fill-rule:nonzero}
   ]]>
  </style>
 <inkscape:path-effect
   effect="spiro"
   id="path-effect1214"
   is_visible="true"
   lpeversion="1" /><inkscape:path-effect
   effect="spiro"
   id="path-effect1195"
   is_visible="true"
   lpeversion="1" /><inkscape:path-effect
   effect="spiro"
   id="path-effect992"
   is_visible="true"
   lpeversion="1" /><inkscape:path-effect
   effect="spiro"
   id="path-effect1060"
   is_visible="true"
   lpeversion="1" /><inkscape:path-effect
   effect="spiro"
   id="path-effect1047"
   is_visible="true"
   lpeversion="1" /><inkscape:path-effect
   effect="spiro"
   id="path-effect1085"
   is_visible="true"
   lpeversion="1" /><inkscape:path-effect
   effect="spiro"
   id="path-effect1286"
   is_visible="true"
   lpeversion="1" /><inkscape:path-effect
   effect="spiro"
   id="path-effect862"
   is_visible="true"
   lpeversion="1" /><inkscape:path-effect
   effect="spiro"
   id="path-effect857"
   is_visible="true"
   lpeversion="1" /><inkscape:path-effect
   effect="spiro"
   id="path-effect853"
   is_visible="true"
   lpeversion="1" /><style
   type="text/css"
   id="style2-0">
   <![CDATA[
    .fil0 {fill:#EF7F1A;fill-rule:nonzero}
   ]]>
  </style></defs>
 
<g
   style="clip-rule:evenodd;fill-rule:evenodd;image-rendering:optimizeQuality;shape-rendering:geometricPrecision;text-rendering:geometricPrecision;stroke:none"
   id="g889"><path
     id="path855"
     style="fill:#a51d2d;fill-rule:nonzero;stroke:none;stroke-width:1.0214px;stroke-linecap:butt;stroke-linejoin:miter;stroke-opacity:1"
     inkscape:path-effect="#path-effect862;#path-effect2639"
     inkscape:original-d="m 487.68549,376.97162 c 28.24665,-40.30505 82.07885,-64.62896 131.19817,-67.73756 37.46673,-2.37115 91.25678,4.02495 105.7893,38.63975 15.62087,37.20711 -17.27742,86.62296 -49.98406,110.25886 -54.40594,39.31721 -153.29814,69.36528 -200.23855,21.38146 -24.10066,-24.63638 -6.54444,-74.3191 13.23514,-102.54251 z m -23.34777,213.96654 c 65.75323,-6.31039 140.52529,-1.18783 200.35314,-32.81771 47.3606,-25.03868 100.63907,-66.45416 130.77858,-116.43781 19.56105,-32.44024 33.89688,-73.04732 27.22149,-110.33596 -7.53417,-42.08573 -34.43419,-85.75486 -72.01756,-106.13776 -58.39162,-31.66801 -137.11511,-27.34749 -199.24174,-3.83736 -53.17494,20.1226 -96.49973,70.09396 -125.63518,115.36137 -38.66396,60.07172 -58.22622,132.96923 -55.72307,203.13894 2.32178,65.08545 20.39577,136.78473 64.98007,184.25836 43.61026,46.43647 112.21004,73.06987 175.89221,74.73777 54.05151,1.41567 107.09417,-26.03364 152.40794,-55.53334 28.86512,-18.79147 58.68118,-55.20512 71.63709,-74.46447 L 783.11388,540.32233 c -4.31846,27.42018 -24.98348,69.02834 -49.54638,94.92443 -36.40094,38.37666 -84.03126,86.61394 -136.59953,80.75106 C 536.57809,709.2626 492.42943,641.06718 464.33772,590.93816 Z M 95.62462,500.73174 C 96.15543,421.47098 152.35868,306.22495 231.61929,305.67175 308.7636,305.13332 364.6888,416.53547 366.61994,493.65749 368.69068,576.35441 314.84801,701.28495 232.1305,702.22454 151.00949,703.146 95.08133,581.85616 95.62462,500.73174 Z M 234.58435,200.33998 C 110.80547,213.66891 8.99253,373.55043 9.0591,498.04488 9.12595,623.05334 111.14747,787.78542 235.83506,796.73659 322.72735,802.97448 421.9829,613.29284 421.9829,613.29284 l -51.56235,5.25785 c 0,0 21.10074,74.56307 17.86794,112.34354 -2.05362,23.99983 -9.14863,53.30917 -23.30995,68.39978 h 107.45207 c -16.58842,-28.14136 -1.04144,-74.0645 -4.81367,-110.85969 -6.59675,-64.34621 -27.92881,-126.93701 -31.0942,-191.54299 -3.37151,-68.81297 0.63482,-138.50249 13.01661,-206.27626 4.80162,-26.28247 37.10702,52.83393 23.56267,-76.61081 l -104.815,-16.44264 c 13.19473,15.79847 10.23952,55.3976 9.24521,83.32552 -0.78891,22.15856 -12.01835,65.42308 -12.01835,65.42308 l 34.47211,-4.39337 c 0,0 -93.24567,-149.34687 -165.40164,-141.57687 z"
     d="m 487.68549,376.97162 c 15.32817,-20.05725 36.04694,-35.66731 58.77208,-46.65885 22.72514,-10.99154 47.43864,-17.49079 72.42609,-21.07871 20.02566,-2.87546 40.75455,-3.8713 60.21872,1.64608 9.73208,2.75868 19.0539,7.15418 27.02806,13.37806 7.97415,6.22388 14.57113,14.31228 18.54252,23.61561 4.25218,9.96112 5.40727,21.11557 4.02299,31.85748 -1.38428,10.74192 -5.24402,21.08264 -10.58852,30.5029 -10.68901,18.84051 -26.9928,33.77703 -43.41853,47.89848 -29.20276,25.10605 -61.05436,49.39808 -98.62853,57.84181 -18.78709,4.22186 -38.73859,4.22043 -57.05258,-1.72739 -18.31399,-5.94782 -34.85625,-18.09969 -44.55744,-34.73296 -9.21088,-15.79261 -11.8982,-34.96292 -9.00215,-53.01451 2.89604,-18.05159 11.13608,-35.00182 22.23729,-49.528 z m -23.34777,213.96654 c 68.07894,8.57139 138.5665,-2.97442 200.35314,-32.81771 53.3148,-25.75134 100.5273,-65.54125 130.77858,-116.43781 19.71857,-33.1757 32.16527,-72.06054 27.22149,-110.33596 -2.8315,-21.92186 -11.32786,-43.00746 -23.92857,-61.16806 -12.60071,-18.1606 -29.24836,-33.41045 -48.08899,-44.9697 -29.51144,-18.10609 -64.28818,-27.07454 -98.91108,-27.17637 -34.6229,-0.10183 -69.05144,8.49429 -100.33066,23.33901 -52.06649,24.7101 -95.12111,66.46965 -125.63518,115.36137 -37.68994,60.38938 -56.82386,131.96172 -55.72307,203.13894 1.02888,66.5279 20.66473,134.62802 64.98007,184.25836 43.7983,49.05129 110.159,76.59918 175.89221,74.73777 54.90247,-1.55471 108.36427,-22.71791 152.40794,-55.53334 23.84937,-17.76935 45.16103,-38.93641 63.1135,-62.64728 4.85748,-6.41557 6.08208,-17.86711 3.07033,-25.33006 L 787.47821,551.1369 c -2.41035,-5.97272 -5.93484,-5.8328 -8.12569,0.22348 -10.87852,30.07214 -26.36979,58.47413 -45.78502,83.88638 -16.61052,21.74121 -36.2442,41.43024 -59.36672,56.05688 -23.12253,14.62664 -49.88017,24.0439 -77.23281,24.69418 -33.68516,0.80083 -67.49578,-12.16273 -92.01091,-35.27853 -24.51513,-23.11579 -39.44124,-56.10705 -40.61934,-89.78113 z M 95.62462,500.73174 c 0.389495,-44.15686 6.7882,-89.55966 29.01925,-127.7141 11.11552,-19.07722 26.1489,-36.04092 44.5774,-48.20172 18.42851,-12.16081 40.31991,-19.37229 62.39802,-19.14417 21.3235,0.22032 42.33992,7.36643 60.13602,19.11544 17.79609,11.749 32.43389,27.97493 43.46251,46.22622 22.05723,36.50259 29.50798,80.03689 31.40212,122.64408 2.05944,46.32544 -2.38001,94.37388 -24.20879,135.28588 -10.9144,20.456 -26.14574,38.79009 -45.17146,52.04128 -19.02571,13.25119 -41.9236,21.25423 -65.10919,21.23989 -22.61843,-0.014 -44.96291,-7.65055 -63.69594,-20.32601 -18.73302,-12.67545 -33.92492,-30.2404 -45.05882,-49.92871 C 101.10793,592.5932 95.225614,545.96684 95.62462,500.73174 Z M 234.58435,200.33998 c -34.79346,-0.82338 -69.54072,9.10616 -99.54297,26.74496 -30.00226,17.6388 -55.310829,42.81268 -74.570363,71.80118 C 21.951947,356.86311 8.1837044,428.44399 9.0591,498.04488 c 0.870054,69.17619 16.152925,139.76427 54.764091,197.16881 19.305583,28.70226 44.309369,53.75136 73.829139,71.78214 29.51977,18.03078 63.60205,28.90257 98.18273,29.74076 48.59325,1.17784 97.35731,-18.12543 131.97856,-52.24375 34.62125,-34.11833 54.63597,-82.59472 54.16928,-131.2 l -51.56235,5.25785 c 16.95064,34.55317 23.26216,74.23648 17.86794,112.34354 -2.8642,20.23394 -8.97013,40.00327 -17.98809,58.34054 -2.77367,5.64002 -0.226,10.05924 6.06007,10.05924 l 84.68821,0 c 6.28607,0 11.5676,-5.09287 11.68434,-11.37779 0.61719,-33.2258 -1.09287,-66.49476 -5.11608,-99.4819 -7.83289,-64.22352 -24.38931,-127.19193 -31.0942,-191.54299 -7.17342,-68.84794 -2.90975,-138.91271 13.01661,-206.27626 5.27876,-22.32752 11.82807,-44.35454 19.60441,-65.93951 2.13057,-5.91389 -1.07603,-11.46104 -7.28615,-12.43524 l -82.32618,-12.91476 c -6.21012,-0.9742 -9.84195,3.13828 -8.41377,9.25942 5.51572,23.64023 7.6893,48.05989 6.41457,72.30216 -1.16753,22.20368 -5.21824,44.25411 -12.01835,65.42308 l 34.47211,-4.39337 C 393.00874,303.26038 372.33821,267.21811 342.49632,241.6747 312.65442,216.13129 273.85445,201.2693 234.58435,200.33998 Z"
     sodipodi:nodetypes="aaaaaacsaaaasaaaaccaacaaaaaaaaccaccaaaccacca" /></g></svg>
