<?xml version="1.0" encoding="UTF-8"?>
<!DOCTYPE svg PUBLIC "-//W3C//DTD SVG 1.1//EN" "http://www.w3.org/Graphics/SVG/1.1/DTD/svg11.dtd">
<!-- Creator: CorelDRAW X8 -->
<svg xmlns="http://www.w3.org/2000/svg" xml:space="preserve" width="1797px" height="1024px" version="1.1" style="shape-rendering:geometricPrecision; text-rendering:geometricPrecision; image-rendering:optimizeQuality; fill-rule:evenodd; clip-rule:evenodd"
viewBox="0 0 1797 1024"
 xmlns:xlink="http://www.w3.org/1999/xlink">
 <defs>
  <style type="text/css">
   <![CDATA[
    .fil0 {fill:#EF7F1A;fill-rule:nonzero}
   ]]>
  </style>
 </defs>
 <g id="Layer_x0020_1">
  <metadata id="CorelCorpID_0Corel-Layer"/>
  <path class="fil0" d="M1270 1024c123,0 253,-32 356,-102 56,-38 110,-92 136,-156 8,-19 17,-47 17,-68 0,-41 -69,-55 -100,-55 -29,0 -91,14 -95,52 -7,66 -56,121 -108,156 -60,40 -133,62 -205,62 -205,0 -324,-191 -326,-388l755 0c40,0 97,-12 97,-64 0,-306 -236,-461 -518,-461 -155,0 -293,55 -388,152 -89,-109 -257,-152 -401,-152 -112,0 -233,26 -326,87 -69,46 -134,120 -134,206 0,42 69,55 101,55 32,0 101,-12 101,-55 1,-56 42,-105 87,-134 50,-32 111,-48 171,-48 140,0 261,73 261,225l0 95c-39,21 -99,26 -161,26 -55,0 -123,-4 -165,-4 -197,0 -425,38 -425,280 0,214 235,291 418,291 109,0 230,-26 323,-86 40,-27 83,-59 118,-94 94,116 242,180 411,180zm-852 -111c-115,0 -215,-56 -215,-180 0,-145 99,-170 222,-170 62,0 124,5 186,5 47,0 94,-2 140,-10l0 96c0,166 -183,259 -333,259zm1181 -499l-642 0c34,-164 150,-303 322,-303 182,0 302,122 320,303z"/>
 </g>
</svg>
