<?xml version="1.0" encoding="UTF-8" standalone="no"?>
<svg
   xmlns:dc="http://purl.org/dc/elements/1.1/"
   xmlns:cc="http://creativecommons.org/ns#"
   xmlns:rdf="http://www.w3.org/1999/02/22-rdf-syntax-ns#"
   xmlns:svg="http://www.w3.org/2000/svg"
   xmlns="http://www.w3.org/2000/svg"
   xmlns:sodipodi="http://sodipodi.sourceforge.net/DTD/sodipodi-0.dtd"
   xmlns:inkscape="http://www.inkscape.org/namespaces/inkscape"
   xml:space="preserve"
   width="1000"
   height="1000"
   version="1.1"
   style="clip-rule:evenodd;fill-rule:evenodd;image-rendering:optimizeQuality;shape-rendering:geometricPrecision;text-rendering:geometricPrecision"
   viewBox="0 0 1000 1000"
   id="svg10"
   sodipodi:docname="ampersand.svg"
   inkscape:version="1.0.2 (e86c870879, 2021-01-15)"><metadata
   id="metadata14"><rdf:RDF><cc:Work
       rdf:about=""><dc:format>image/svg+xml</dc:format><dc:type
         rdf:resource="http://purl.org/dc/dcmitype/StillImage" /><dc:title /></cc:Work></rdf:RDF></metadata><sodipodi:namedview
   pagecolor="#ffffff"
   bordercolor="#666666"
   borderopacity="1"
   objecttolerance="10"
   gridtolerance="10"
   guidetolerance="10"
   inkscape:pageopacity="0"
   inkscape:pageshadow="2"
   inkscape:window-width="1920"
   inkscape:window-height="1007"
   id="namedview12"
   showgrid="false"
   inkscape:zoom="0.84890884"
   inkscape:cx="300.81218"
   inkscape:cy="353.36865"
   inkscape:window-x="1920"
   inkscape:window-y="0"
   inkscape:window-maximized="1"
   inkscape:current-layer="svg10"
   showguides="true"
   inkscape:guide-bbox="true"
   inkscape:document-rotation="0"><sodipodi:guide
   position="0,1000"
   orientation="0,1"
   id="guide16"
   inkscape:label=""
   inkscape:locked="true"
   inkscape:color="rgb(0,0,255)" /><sodipodi:guide
   position="1763.3122,2036.1693"
   orientation="1000,0"
   id="guide18" /><sodipodi:guide
   position="0,200"
   orientation="0,1"
   id="guide20"
   inkscape:label="base"
   inkscape:locked="true"
   inkscape:color="rgb(0,0,255)" /><inkscape:grid
   type="xygrid"
   id="grid24"
   originx="-473.37552"
   originy="-489.69235" /><sodipodi:guide
   position="0,0"
   orientation="0,1"
   id="guide34"
   inkscape:label="bottom"
   inkscape:locked="true"
   inkscape:color="rgb(0,0,255)" /><sodipodi:guide
   position="225.05109,1693.3186"
   orientation="0,1"
   id="guide44"
   inkscape:label=""
   inkscape:locked="false"
   inkscape:color="rgb(0,0,255)" /><sodipodi:guide
   position="0,900"
   orientation="0,1"
   id="guide46"
   inkscape:label=""
   inkscape:locked="true"
   inkscape:color="rgb(0,0,255)" /><sodipodi:guide
   position="525.8514,782.34431"
   orientation="1,0"
   id="guide841"
   inkscape:label="width" />    </sodipodi:namedview>
 <defs
   id="defs4"><inkscape:path-effect
   effect="fillet_chamfer"
   id="path-effect865"
   is_visible="true"
   lpeversion="1"
   satellites_param="F,0,1,1,0,11.757355,0,1 @ F,0,1,1,0,11.757355,0,1 @ F,0,0,1,0,0,0,1 @ F,0,0,1,0,0,0,1 @ F,0,0,1,0,0,0,1 @ F,0,0,1,0,0,0,1 @ F,0,0,1,0,0,0,1 @ F,0,0,1,0,0,0,1 @ F,0,0,1,0,0,0,1 @ F,0,0,1,0,0,0,1 @ F,0,0,1,0,0,0,1 @ F,0,0,1,0,0,0,1 @ F,0,0,1,0,0,0,1 @ F,0,0,1,0,0,0,1 @ F,0,0,1,0,0,0,1 @ F,0,0,1,0,0,0,1 @ F,0,0,1,0,0,0,1 @ F,0,0,1,0,0,0,1 @ F,0,0,1,0,0,0,1 @ F,0,0,1,0,0,0,1 @ F,0,0,1,0,0,0,1 @ F,0,0,1,0,0,0,1 @ F,0,0,1,0,0,0,1 @ F,0,1,1,0,11.757355,0,1 @ F,0,1,1,0,11.757355,0,1 @ F,0,0,1,0,0,0,1 @ F,0,0,1,0,0,0,1 @ F,0,0,1,0,0,0,1 @ F,0,1,1,0,11.757355,0,1 @ F,0,1,1,0,11.757355,0,1 @ F,0,0,1,0,0,0,1 @ F,0,0,1,0,0,0,1 @ F,0,0,1,0,0,0,1 @ F,0,0,1,0,0,0,1 @ F,0,0,1,0,0,0,1 @ F,0,0,1,0,0,0,1 @ F,0,0,1,0,0,0,1 @ F,0,0,1,0,0,0,1 @ F,0,0,1,0,0,0,1 @ F,0,0,1,0,0,0,1 @ F,0,0,1,0,0,0,1 @ F,0,0,1,0,0,0,1 @ F,0,0,1,0,0,0,1 @ F,0,0,1,0,0,0,1 @ F,0,0,1,0,0,0,1 @ F,0,1,1,0,11.757355,0,1 @ F,0,1,1,0,11.757355,0,1 @ F,0,0,1,0,0,0,1 @ F,0,0,1,0,0,0,1 @ F,0,0,1,0,0,0,1 @ F,0,0,1,0,0,0,1 @ F,0,0,1,0,0,0,1 @ F,0,0,1,0,0,0,1 @ F,0,0,1,0,0,0,1"
   unit="px"
   method="auto"
   mode="F"
   radius="0"
   chamfer_steps="1"
   flexible="false"
   use_knot_distance="true"
   apply_no_radius="true"
   apply_with_radius="true"
   only_selected="true"
   hide_knots="false" /><inkscape:path-effect
   effect="fillet_chamfer"
   id="path-effect852"
   is_visible="true"
   lpeversion="1"
   satellites_param="F,0,0,1,0,31.60901,0,1 @ F,0,0,1,0,16.674195,0,1 @ F,0,0,1,0,0,0,1 @ F,0,0,1,0,0,0,1 @ F,0,0,1,0,0,0,1 @ F,0,0,1,0,0,0,1 @ F,0,0,1,0,0,0,1 @ F,0,0,1,0,0,0,1 @ F,0,0,1,0,0,0,1 @ F,0,0,1,0,0,0,1 @ F,0,0,1,0,0,0,1 @ F,0,0,1,0,0,0,1 @ F,0,0,1,0,0,0,1 @ F,0,0,1,0,0,0,1 @ F,0,0,1,0,0,0,1 @ F,0,0,1,0,0,0,1 @ F,0,0,1,0,0,0,1 @ F,0,0,1,0,0,0,1 @ F,0,0,1,0,17.423211,0,1 @ F,0,0,1,0,28.632438,0,1 @ F,0,0,1,0,0,0,1 @ F,0,0,1,0,0,0,1 @ F,0,0,1,0,0,0,1 @ F,0,0,1,0,18.486604,0,1 @ F,0,0,1,0,41.354068,0,1 @ F,0,0,1,0,0,0,1 @ F,0,0,1,0,0,0,1 @ F,0,0,1,0,0,0,1 @ F,0,0,1,0,0,0,1 @ F,0,0,1,0,0,0,1 @ F,0,0,1,0,0,0,1 @ F,0,0,1,0,0,0,1 @ F,0,0,1,0,0,0,1 @ F,0,0,1,0,0,0,1 @ F,0,0,1,0,0,0,1 @ F,0,0,1,0,15.38483,0,1 @ F,0,0,1,0,18.058068,0,1 @ F,0,0,1,0,0,0,1 @ F,0,0,1,0,0,0,1 @ F,0,0,1,0,0,0,1 @ F,0,0,1,0,0,0,1 @ F,0,0,1,0,0,0,1 @ F,0,0,1,0,0,0,1 @ F,0,0,1,0,0,0,1 @ F,0,0,1,0,0,0,1"
   unit="px"
   method="auto"
   mode="F"
   radius="0"
   chamfer_steps="1"
   flexible="false"
   use_knot_distance="true"
   apply_no_radius="true"
   apply_with_radius="true"
   only_selected="true"
   hide_knots="false" /><inkscape:path-effect
   effect="spiro"
   id="path-effect853"
   is_visible="true"
   lpeversion="1" /><inkscape:path-effect
   effect="spiro"
   id="path-effect928"
   is_visible="true"
   lpeversion="1" /><inkscape:path-effect
   effect="spiro"
   id="path-effect921"
   is_visible="true"
   lpeversion="1" /><inkscape:path-effect
   effect="spiro"
   id="path-effect917"
   is_visible="true"
   lpeversion="1" /><inkscape:path-effect
   effect="spiro"
   id="path-effect849"
   is_visible="true"
   lpeversion="1" /><inkscape:path-effect
   effect="spiro"
   id="path-effect851"
   is_visible="true"
   lpeversion="1" />
  <style
   type="text/css"
   id="style2">
   <![CDATA[
    .fil0 {fill:#EF7F1A;fill-rule:nonzero}
   ]]>
  </style>
 <inkscape:path-effect
   effect="spiro"
   id="path-effect1214"
   is_visible="true"
   lpeversion="1" /><inkscape:path-effect
   effect="spiro"
   id="path-effect1195"
   is_visible="true"
   lpeversion="1" /><inkscape:path-effect
   effect="spiro"
   id="path-effect992"
   is_visible="true"
   lpeversion="1" /><inkscape:path-effect
   effect="spiro"
   id="path-effect1060"
   is_visible="true"
   lpeversion="1" /><inkscape:path-effect
   effect="spiro"
   id="path-effect1047"
   is_visible="true"
   lpeversion="1" /><inkscape:path-effect
   effect="spiro"
   id="path-effect1085"
   is_visible="true"
   lpeversion="1" /><inkscape:path-effect
   effect="spiro"
   id="path-effect1286"
   is_visible="true"
   lpeversion="1" /></defs>
 
<path
   style="fill:#1a5fb4;fill-rule:nonzero;stroke:none;stroke-width:1px;stroke-linecap:butt;stroke-linejoin:miter;stroke-opacity:1"
   d="m 291.29387,232.4182 68.46897,-56.92749 c 4.99304,-4.15138 6.67295,-12.22243 3.44084,-17.85353 C 348.81677,132.57177 329.89871,110.1093 307.61517,91.702775 277.49969,66.826965 240.54308,49.254319 201.59743,46.256905 162.65178,43.259491 121.86061,55.884672 94.409429,83.672809 79.791007,98.470667 69.235365,117.13137 63.434643,137.10702 c -5.800723,19.97565 -6.896087,41.22724 -3.849571,61.80377 6.093031,41.15307 28.610326,78.80871 58.597498,107.64391 23.76186,22.84904 52.16531,40.60963 82.42725,53.68324 9.98551,4.31389 20.18538,8.13157 30.54938,11.43424 l 1.07373,-37.87797 c -16.3782,1.69718 -32.59098,4.98695 -48.33534,9.80785 -36.12911,11.06267 -69.79495,30.33217 -97.187652,56.35784 -27.392701,26.02567 -48.425455,58.80833 -60.050712,94.76037 -12.374646,38.26958 -13.972814,79.89128 -5.075272,119.11534 8.897542,39.22405 28.213671,75.96939 55.092877,105.8893 53.758409,59.83983 137.516949,90.09599 217.572469,82.22928 53.0428,-5.21229 104.64543,-26.50615 144.83612,-61.51208 40.19069,-35.00593 68.55437,-83.74682 77.48856,-136.29096 12.02963,-70.74917 -12.09431,-145.6478 -59.32806,-199.67678 -11.71526,-13.40066 -24.77234,-25.62762 -38.91258,-36.43866 l 2.25637,55.95103 c 19.4527,-10.49703 37.11267,-24.30624 51.99045,-40.65393 23.30166,-25.60384 39.60436,-57.49457 46.84703,-91.33982 1.35857,-6.34866 -2.15116,-14.6573 -7.4059,-18.47201 l -87.03911,-63.18662 c -5.25474,-3.81471 -7.14554,-2.18891 -4.89131,3.89778 10.64603,28.7455 10.22962,61.54188 -1.51176,89.89218 -13.55174,32.72152 -40.42584,57.86679 -67.58601,80.59723 -27.16017,22.73044 -55.90138,44.69188 -75.43163,74.23705 -26.136,39.53829 -32.75623,91.21053 -18.07271,136.19877 2.01424,6.17133 9.32375,11.53061 15.78676,12.15821 L 376.54,617.34333 c 6.46301,0.6276 6.91957,-1.12911 1.53148,-4.74429 -13.79462,-9.25561 -25.00169,-22.37636 -31.84155,-37.52363 -8.45335,-18.72042 -10.17366,-40.39801 -4.77879,-60.21741 7.69714,-28.27736 28.65961,-50.9088 50.56598,-70.37585 5.60218,-4.97837 11.31433,-9.83299 17.13087,-14.55913 l -53.72764,-1.65944 c 14.08643,7.76127 27.26543,17.1679 39.18329,27.96741 23.72793,21.50135 42.55117,48.97215 51.13181,79.82172 8.58064,30.84956 6.36792,65.11393 -8.76819,93.33132 -14.61309,27.24236 -40.4587,47.54443 -69.30115,58.67104 -28.84246,11.12662 -60.51908,13.5659 -91.29478,10.64276 -44.37282,-4.21463 -88.53274,-20.01883 -121.57889,-49.92974 -16.52307,-14.95545 -30.08037,-33.30093 -38.77469,-53.82132 -8.69432,-20.52039 -12.44773,-43.22074 -10.01045,-65.37333 3.21902,-29.2579 17.27733,-56.94384 37.87939,-77.96626 20.60206,-21.02242 47.50301,-35.47972 76.04616,-42.66829 9.34735,-2.35412 18.88421,-3.95456 28.48759,-4.78476 6.46812,-0.55916 11.59372,-5.8915 11.41527,-12.38245 l -2.12502,-77.29381 c -0.17845,-6.49095 -5.56734,-11.12392 -12.05766,-11.11667 -33.68199,0.0376 -67.27746,-15.10778 -89.14649,-40.80175 -15.12095,-17.76564 -24.78204,-40.66078 -24.37828,-63.98669 0.20188,-11.66296 2.90796,-23.31285 8.17151,-33.72248 5.26354,-10.40963 13.10486,-19.54962 22.78414,-26.05937 14.26382,-9.59305 32.25983,-13.16663 49.26484,-10.6541 17.00501,2.51253 32.94068,10.92322 45.28047,22.89037 11.57303,11.22354 20.08583,25.57243 24.38887,41.10906 3.25683,11.75917 4.09567,24.17555 2.51173,36.27232 -0.84245,6.43391 1.77101,8.16102 6.76405,4.00964 z"
   id="path851"
   sodipodi:nodetypes="ccaaaaccaaaaaccaccaaccsaccaaaaaccaaac"
   inkscape:original-d="m 282.25318,239.93494 86.55035,-71.96097 c 0,0 -32.07221,-61.62135 -61.18836,-76.271195 C 244.08473,59.737318 142.94359,31.688741 94.409429,83.672809 43.420947,138.28566 79.136722,242.85375 118.18257,306.5547 c 17.13542,27.9554 53.15958,38.90047 82.42725,53.68324 9.70531,4.90204 30.54938,11.43424 30.54938,11.43424 l 1.07373,-37.87797 c 0,0 -33.77491,2.17427 -48.33534,9.80785 C 119.51454,377.35611 29.882285,422.0971 26.659226,494.72027 20.637864,630.39587 158.71455,793.32534 294.2493,801.95419 393.24247,808.25661 489.40511,699.55146 516.57398,604.15115 535.59197,537.37168 493.74644,463.54123 457.24592,404.47437 447.90455,389.35773 418.33334,368.03571 418.33334,368.03571 l 2.25637,55.95103 c 0,0 38.23272,-23.48719 51.99045,-40.65393 23.75491,-29.64113 48.95568,-102.90468 48.95568,-102.90468 L 415.46763,203.42721 c 0,0 14.86059,69.23776 3.11148,100.69711 -24.58146,65.81917 -114.35324,90.68786 -143.01764,154.83428 -20.11111,45.00551 -13.98826,147.2206 -13.98826,147.2206 l 126.6691,12.30051 c 0,0 -51.49338,-66.01575 -46.79117,-103.62171 2.96454,-23.7089 30.98819,-49.13629 50.56598,-70.37585 5.07909,-5.5102 17.13087,-14.55913 17.13087,-14.55913 l -53.72764,-1.65944 c 0,0 30.1833,14.68204 39.18329,27.96741 33.32616,49.19457 68.83348,119.95449 42.36362,173.15304 -25.97323,52.20044 -103.30882,80.16191 -160.59593,69.3138 -78.6215,-14.88808 -169.07394,-89.11607 -170.36403,-169.12439 -0.89171,-55.30177 64.71173,-95.3941 113.92555,-120.63455 12.03859,-6.17427 40.22598,-5.4143 40.22598,-5.4143 l -2.77126,-100.79963 c 0,0 -81.36778,-9.68173 -100.88103,-40.16551 -22.27362,-34.79605 -25.16757,-97.32732 6.57737,-123.76854 24.41737,-20.33789 70.54286,-8.58969 94.54531,12.23627 23.2272,20.15331 24.62396,88.90776 24.62396,88.90776 z"
   inkscape:path-effect="#path-effect853;#path-effect865" /></svg>
