<?xml version="1.0" encoding="UTF-8" standalone="no"?>
<svg
   xmlns:dc="http://purl.org/dc/elements/1.1/"
   xmlns:cc="http://creativecommons.org/ns#"
   xmlns:rdf="http://www.w3.org/1999/02/22-rdf-syntax-ns#"
   xmlns:svg="http://www.w3.org/2000/svg"
   xmlns="http://www.w3.org/2000/svg"
   xmlns:sodipodi="http://sodipodi.sourceforge.net/DTD/sodipodi-0.dtd"
   xmlns:inkscape="http://www.inkscape.org/namespaces/inkscape"
   xml:space="preserve"
   width="1000"
   height="1000"
   version="1.1"
   style="clip-rule:evenodd;fill-rule:evenodd;image-rendering:optimizeQuality;shape-rendering:geometricPrecision;text-rendering:geometricPrecision"
   viewBox="0 0 1000 1000"
   id="svg10"
   sodipodi:docname="atsign.svg"
   inkscape:version="1.0.1 (3bc2e813f5, 2020-09-07)"><metadata
   id="metadata14"><rdf:RDF><cc:Work
       rdf:about=""><dc:format>image/svg+xml</dc:format><dc:type
         rdf:resource="http://purl.org/dc/dcmitype/StillImage" /><dc:title /></cc:Work></rdf:RDF></metadata><sodipodi:namedview
   pagecolor="#ffffff"
   bordercolor="#666666"
   borderopacity="1"
   objecttolerance="10"
   gridtolerance="10"
   guidetolerance="10"
   inkscape:pageopacity="0"
   inkscape:pageshadow="2"
   inkscape:window-width="1920"
   inkscape:window-height="1015"
   id="namedview12"
   showgrid="false"
   inkscape:zoom="0.84890884"
   inkscape:cx="169.61082"
   inkscape:cy="375.97509"
   inkscape:window-x="1920"
   inkscape:window-y="0"
   inkscape:window-maximized="1"
   inkscape:current-layer="svg10"
   showguides="true"
   inkscape:guide-bbox="true"
   inkscape:document-rotation="0"><sodipodi:guide
   position="0,1000"
   orientation="0,1"
   id="guide16"
   inkscape:label=""
   inkscape:locked="true"
   inkscape:color="rgb(0,0,255)" /><sodipodi:guide
   position="1763.3122,2036.1693"
   orientation="1000,0"
   id="guide18" /><sodipodi:guide
   position="0,200"
   orientation="0,1"
   id="guide20"
   inkscape:label="base"
   inkscape:locked="true"
   inkscape:color="rgb(0,0,255)" /><inkscape:grid
   type="xygrid"
   id="grid24"
   originx="-473.37552"
   originy="-489.69235" /><sodipodi:guide
   position="0,0"
   orientation="0,1"
   id="guide34"
   inkscape:label="bottom"
   inkscape:locked="true"
   inkscape:color="rgb(0,0,255)" /><sodipodi:guide
   position="225.05109,1693.3186"
   orientation="0,1"
   id="guide44"
   inkscape:label=""
   inkscape:locked="false"
   inkscape:color="rgb(0,0,255)" /><sodipodi:guide
   position="0,900"
   orientation="0,1"
   id="guide46"
   inkscape:label=""
   inkscape:locked="true"
   inkscape:color="rgb(0,0,255)" /><sodipodi:guide
   position="732.61298,590.84611"
   orientation="1,0"
   id="guide841"
   inkscape:label="width" />    </sodipodi:namedview>
 <defs
   id="defs4"><inkscape:path-effect
   effect="spiro"
   id="path-effect861"
   is_visible="true"
   lpeversion="1" /><inkscape:path-effect
   effect="spiro"
   id="path-effect858"
   is_visible="true"
   lpeversion="1" /><inkscape:path-effect
   effect="spiro"
   id="path-effect854"
   is_visible="true"
   lpeversion="1" /><inkscape:path-effect
   effect="spiro"
   id="path-effect853"
   is_visible="true"
   lpeversion="1" /><inkscape:path-effect
   effect="spiro"
   id="path-effect928"
   is_visible="true"
   lpeversion="1" /><inkscape:path-effect
   effect="spiro"
   id="path-effect921"
   is_visible="true"
   lpeversion="1" /><inkscape:path-effect
   effect="spiro"
   id="path-effect917"
   is_visible="true"
   lpeversion="1" /><inkscape:path-effect
   effect="spiro"
   id="path-effect849"
   is_visible="true"
   lpeversion="1" /><inkscape:path-effect
   effect="spiro"
   id="path-effect851"
   is_visible="true"
   lpeversion="1" />
  <style
   type="text/css"
   id="style2">
   <![CDATA[
    .fil0 {fill:#EF7F1A;fill-rule:nonzero}
   ]]>
  </style>
 <inkscape:path-effect
   effect="spiro"
   id="path-effect1214"
   is_visible="true"
   lpeversion="1" /><inkscape:path-effect
   effect="spiro"
   id="path-effect1195"
   is_visible="true"
   lpeversion="1" /><inkscape:path-effect
   effect="spiro"
   id="path-effect992"
   is_visible="true"
   lpeversion="1" /><inkscape:path-effect
   effect="spiro"
   id="path-effect1060"
   is_visible="true"
   lpeversion="1" /><inkscape:path-effect
   effect="spiro"
   id="path-effect1047"
   is_visible="true"
   lpeversion="1" /><inkscape:path-effect
   effect="spiro"
   id="path-effect1085"
   is_visible="true"
   lpeversion="1" /><inkscape:path-effect
   effect="spiro"
   id="path-effect1286"
   is_visible="true"
   lpeversion="1" /></defs>
 
<path
   id="path856"
   style="fill:#2d2d2d;stroke:none;stroke-width:1px;stroke-linecap:butt;stroke-linejoin:miter;stroke-opacity:1"
   d="m 382.01142,378.29928 c 27.74601,15.82405 50.05948,42.11354 58.00244,73.05139 3.97148,15.46893 4.33454,31.90457 0.62196,47.43766 -3.71259,15.5331 -11.53861,30.12112 -22.74108,41.50378 -11.15832,11.3378 -25.55353,19.37915 -40.9638,23.32602 -15.41026,3.94686 -31.79227,3.83289 -47.247,0.0639 -30.90946,-7.53796 -57.31985,-29.68924 -72.84775,-57.45793 -10.52492,-18.82182 -16.40315,-40.43746 -15.38952,-61.97829 1.12009,-23.80321 11.19071,-47.60508 29.44266,-62.92545 15.1106,-12.68357 35.07272,-18.97765 54.80092,-18.94068 19.7282,0.037 39.18407,6.14599 56.32117,15.91959 z m 181.33428,-95.3767 -117.28032,-6.20185 23.00863,109.35781 c -9.25736,-31.62528 -29.62035,-59.88043 -56.69338,-78.66628 -27.07303,-18.78585 -60.66801,-27.97186 -93.53308,-25.57513 -24.36139,1.77658 -48.15927,9.77144 -69.04318,22.44013 -20.88391,12.66869 -38.86476,29.94998 -52.96402,49.89602 -29.56952,41.83162 -41.48989,96.02115 -30.91179,146.14445 10.5781,50.1233 43.85483,95.25996 89.22625,119.04389 32.23974,16.90024 70.02355,23.00202 105.9442,17.10915 35.92065,-5.89287 69.77444,-23.74699 94.92458,-50.06218 -0.95449,19.17948 -0.46856,38.43048 1.45235,57.53738 1.80275,17.93161 4.90875,35.88064 11.51246,52.64917 6.60648,16.77557 16.93782,32.43161 31.4448,43.13735 14.36504,10.60099 32.22637,15.87273 50.0552,16.80439 21.41424,1.11902 43.02821,-3.84204 62.12598,-13.59381 29.22491,-14.92293 51.92561,-40.44481 68.88219,-68.53865 37.21907,-61.66496 48.78946,-136.11611 45.19967,-208.05317 C 722.61189,384.50348 699.1058,302.47509 651.46492,235.79611 624.16515,197.58689 589.03433,164.69349 547.93612,141.97435 504.57174,118.00246 455.53112,105.76312 406.31824,100 331.98895,91.295595 254.0773,97.48855 187.14385,130.96277 131.68019,158.70081 85.963928,204.35906 54.761125,257.95012 11.478629,332.28815 -4.049892,421.43694 6.21822,506.84235 c 6.184709,51.44155 21.564926,102.04027 47.54966,146.86523 25.984735,44.82497 62.77371,83.73478 107.54633,109.80961 37.49756,21.83796 80.31246,34.46955 123.65886,36.48281 l 20.86404,-121.63362 c -37.0215,6.10049 -75.98912,-0.28893 -109.12388,-17.89277 C 154.45072,638.02038 122.81505,598.18238 105.38402,553.61303 87.952992,509.04368 83.985424,460.00367 88.462881,412.35684 c 3.495177,-37.19391 12.191779,-74.34547 29.959649,-107.20739 28.29845,-52.33839 78.48849,-90.84356 134.0371,-112.16166 61.72491,-23.6884 131.52081,-27.21133 194.43143,-6.8801 57.53029,18.59243 108.21527,56.72419 143.76626,105.62757 35.55099,48.90337 56.0853,108.22296 60.52836,168.5195 3.28665,44.60291 -2.04928,89.72684 -14.58458,132.65805 -3.15266,10.79731 -6.79641,21.55142 -12.4803,31.25784 -5.68389,9.70642 -13.56497,18.38179 -23.58732,23.48802 -9.88988,5.03874 -21.67393,6.33141 -32.3641,3.34493 -10.69016,-2.98648 -20.15502,-10.26913 -25.59295,-19.94527 -3.78912,-6.74229 -5.61214,-14.4411 -6.36259,-22.13868 -0.75045,-7.69758 -0.47114,-15.45291 -0.30398,-23.18518 1.1289,-52.2199 -2.89281,-104.51776 0.0942,-156.66438 2.84198,-49.61471 12.05509,-98.86096 27.34163,-146.14751 z"
   inkscape:path-effect="#path-effect861"
   inkscape:original-d="m 382.01142,378.29928 c 43.59619,34.03208 84.3194,112.52905 35.88332,161.99283 -52.42915,50.83118 -121.58499,4.05028 -161.05855,-34.068 -15.31261,-14.78687 -17.4538,-40.79183 -15.38952,-61.97829 2.2457,-23.04849 10.07432,-50.23123 29.44266,-62.92545 30.99116,-20.31195 81.91342,-25.82198 111.12209,-3.02109 z m 181.33428,-95.3767 -117.28032,-6.20185 c -24.22832,28.29493 18.68199,73.12291 23.00863,109.35781 -2.94027,-36.45246 -30.13806,-60.23967 -56.69338,-78.66628 -26.55532,-18.42661 -61.21993,-26.34007 -93.53308,-25.57513 -24.19267,0.5727 -48.22408,10.10407 -69.04318,22.44013 -20.867,12.36445 -41.08451,28.74919 -52.96402,49.89602 -24.38709,43.41168 -41.6505,97.52363 -30.91179,146.14445 10.69508,48.42326 46.79083,93.38396 89.22625,119.04389 30.61106,18.50995 70.6438,22.90027 105.9442,17.10915 35.3004,-5.79112 56.25634,-18.43457 94.92458,-50.06218 4.70889,23.35687 -0.84923,38.4907 1.45235,57.53738 2.15512,17.83464 4.14496,36.26506 11.51246,52.64917 7.29759,16.22862 17.09204,32.61968 31.4448,43.13735 14.19653,10.40319 32.48086,15.85023 50.0552,16.80439 21.16743,1.14924 43.51389,-3.44635 62.12598,-13.59381 28.43842,-15.50486 53.32743,-40.12749 68.88219,-68.53865 C 715.57762,612.1545 730.29585,537.2287 726.69624,466.35125 722.59597,385.61567 695.42687,303.63706 651.46492,235.79611 626.13817,196.71253 588.53171,164.79909 547.93612,141.97435 505.01876,117.84421 455.41965,103.63526 406.31824,100 332.73608,94.552293 253.50255,98.705444 187.14385,130.96277 132.14978,157.69569 84.044916,204.27092 54.761125,257.95012 14.28055,332.15379 -8.53702,423.61288 6.21822,506.84235 23.66827,605.27236 82.163704,702.45847 161.31421,763.51719 195.34198,789.76708 248.49335,822.7195 284.97307,800 L 305.83711,678.36638 C 269.82775,590.36379 225.81086,683.10133 196.71323,660.47361 125.48211,605.08085 94.724137,502.37365 88.462881,412.35684 85.88821,375.34131 98.297744,336.3227 118.42253,305.14945 c 31.59777,-48.94488 79.63909,-91.30796 134.0371,-112.16166 60.55399,-23.21361 135.9662,-34.94207 194.43143,-6.8801 102.74331,49.31444 174.39538,164.17373 204.29462,274.14707 11.67101,42.92753 0.5033,90.80902 -14.58458,132.65805 -7.4117,20.55773 -22.96742,46.26216 -36.06762,54.74586 -25.81238,17.10379 -48.14951,4.45996 -57.95705,-16.60034 -4.51133,-10.1307 -5.55709,-30.09371 -6.66657,-45.32386 -3.79417,-52.08346 -4.74358,-104.66748 0.0942,-156.66438 4.59133,-49.3479 61.83285,-101.98549 27.34163,-146.14751 z"
   sodipodi:nodetypes="acaaaacccaaaaaaacaaaaaaaaaaaaaaccaaaaaaaccaac" /></svg>
