<?xml version="1.0" encoding="UTF-8" standalone="no"?>
<svg
   xmlns:dc="http://purl.org/dc/elements/1.1/"
   xmlns:cc="http://creativecommons.org/ns#"
   xmlns:rdf="http://www.w3.org/1999/02/22-rdf-syntax-ns#"
   xmlns:svg="http://www.w3.org/2000/svg"
   xmlns="http://www.w3.org/2000/svg"
   xmlns:sodipodi="http://sodipodi.sourceforge.net/DTD/sodipodi-0.dtd"
   xmlns:inkscape="http://www.inkscape.org/namespaces/inkscape"
   xml:space="preserve"
   width="1000"
   height="1000"
   version="1.1"
   style="clip-rule:evenodd;fill-rule:evenodd;image-rendering:optimizeQuality;shape-rendering:geometricPrecision;text-rendering:geometricPrecision"
   viewBox="0 0 1000 1000"
   id="svg10"
   sodipodi:docname="atsign.svg"
   inkscape:version="1.0.2 (e86c870879, 2021-01-15)"><metadata
   id="metadata14"><rdf:RDF><cc:Work
       rdf:about=""><dc:format>image/svg+xml</dc:format><dc:type
         rdf:resource="http://purl.org/dc/dcmitype/StillImage" /><dc:title /></cc:Work></rdf:RDF></metadata><sodipodi:namedview
   pagecolor="#ffffff"
   bordercolor="#666666"
   borderopacity="1"
   objecttolerance="10"
   gridtolerance="10"
   guidetolerance="10"
   inkscape:pageopacity="0"
   inkscape:pageshadow="2"
   inkscape:window-width="1920"
   inkscape:window-height="1007"
   id="namedview12"
   showgrid="false"
   inkscape:zoom="0.84890884"
   inkscape:cx="169.61082"
   inkscape:cy="375.97509"
   inkscape:window-x="1920"
   inkscape:window-y="0"
   inkscape:window-maximized="1"
   inkscape:current-layer="svg10"
   showguides="true"
   inkscape:guide-bbox="true"
   inkscape:document-rotation="0"><sodipodi:guide
   position="0,1000"
   orientation="0,1"
   id="guide16"
   inkscape:label=""
   inkscape:locked="true"
   inkscape:color="rgb(0,0,255)" /><sodipodi:guide
   position="1763.3122,2036.1693"
   orientation="1000,0"
   id="guide18" /><sodipodi:guide
   position="0,200"
   orientation="0,1"
   id="guide20"
   inkscape:label="base"
   inkscape:locked="true"
   inkscape:color="rgb(0,0,255)" /><inkscape:grid
   type="xygrid"
   id="grid24"
   originx="-473.37552"
   originy="-489.69235" /><sodipodi:guide
   position="0,0"
   orientation="0,1"
   id="guide34"
   inkscape:label="bottom"
   inkscape:locked="true"
   inkscape:color="rgb(0,0,255)" /><sodipodi:guide
   position="225.05109,1693.3186"
   orientation="0,1"
   id="guide44"
   inkscape:label=""
   inkscape:locked="false"
   inkscape:color="rgb(0,0,255)" /><sodipodi:guide
   position="0,900"
   orientation="0,1"
   id="guide46"
   inkscape:label=""
   inkscape:locked="true"
   inkscape:color="rgb(0,0,255)" /><sodipodi:guide
   position="773.06702,900"
   orientation="1,0"
   id="guide841"
   inkscape:label="width" />    </sodipodi:namedview>
 <defs
   id="defs4"><inkscape:path-effect
   effect="fillet_chamfer"
   id="path-effect855"
   is_visible="true"
   lpeversion="1"
   satellites_param="F,0,0,1,0,0,0,1 @ F,0,0,1,0,0,0,1 @ F,0,0,1,0,0,0,1 @ F,0,0,1,0,0,0,1 @ F,0,0,1,0,0,0,1 @ F,0,0,1,0,0,0,1 @ F,0,0,1,0,0,0,1 @ F,0,0,1,0,0,0,1 @ F,0,0,1,0,0,0,1 @ F,0,0,1,0,0,0,1 | F,0,1,1,0,34.337393,0,1 @ F,0,1,1,0,34.337393,0,1 @ F,0,0,1,0,0,0,1 @ F,0,0,1,0,0,0,1 @ F,0,0,1,0,0,0,1 @ F,0,0,1,0,0,0,1 @ F,0,0,1,0,0,0,1 @ F,0,0,1,0,0,0,1 @ F,0,0,1,0,0,0,1 @ F,0,0,1,0,0,0,1 @ F,0,0,1,0,0,0,1 @ F,0,0,1,0,0,0,1 @ F,0,0,1,0,0,0,1 @ F,0,0,1,0,0,0,1 @ F,0,0,1,0,0,0,1 @ F,0,0,1,0,0,0,1 @ F,0,0,1,0,0,0,1 @ F,0,0,1,0,0,0,1 @ F,0,0,1,0,0,0,1 @ F,0,0,1,0,0,0,1 @ F,0,0,1,0,0,0,1 @ F,0,0,1,0,0,0,1 @ F,0,0,1,0,0,0,1 @ F,0,0,1,0,0,0,1 @ F,0,0,1,0,0,0,1 @ F,0,0,1,0,0,0,1 @ F,0,0,1,0,0,0,1 @ F,0,1,1,0,34.337393,0,1 @ F,0,1,1,0,34.337393,0,1 @ F,0,0,1,0,0,0,1 @ F,0,0,1,0,0,0,1 @ F,0,0,1,0,0,0,1 @ F,0,0,1,0,0,0,1 @ F,0,0,1,0,0,0,1 @ F,0,0,1,0,0,0,1 @ F,0,0,1,0,0,0,1 @ F,0,0,1,0,0,0,1 @ F,0,0,1,0,0,0,1 @ F,0,0,1,0,0,0,1 @ F,0,0,1,0,0,0,1 @ F,0,0,1,0,0,0,1 @ F,0,0,1,0,0,0,1 @ F,0,0,1,0,0,0,1 @ F,0,0,1,0,0,0,1 @ F,0,0,1,0,0,0,1 @ F,0,1,1,0,34.337393,0,1"
   unit="px"
   method="auto"
   mode="F"
   radius="0"
   chamfer_steps="1"
   flexible="false"
   use_knot_distance="true"
   apply_no_radius="true"
   apply_with_radius="true"
   only_selected="true"
   hide_knots="false" /><inkscape:path-effect
   effect="spiro"
   id="path-effect861"
   is_visible="true"
   lpeversion="1" /><inkscape:path-effect
   effect="spiro"
   id="path-effect858"
   is_visible="true"
   lpeversion="1" /><inkscape:path-effect
   effect="spiro"
   id="path-effect854"
   is_visible="true"
   lpeversion="1" /><inkscape:path-effect
   effect="spiro"
   id="path-effect853"
   is_visible="true"
   lpeversion="1" /><inkscape:path-effect
   effect="spiro"
   id="path-effect928"
   is_visible="true"
   lpeversion="1" /><inkscape:path-effect
   effect="spiro"
   id="path-effect921"
   is_visible="true"
   lpeversion="1" /><inkscape:path-effect
   effect="spiro"
   id="path-effect917"
   is_visible="true"
   lpeversion="1" /><inkscape:path-effect
   effect="spiro"
   id="path-effect849"
   is_visible="true"
   lpeversion="1" /><inkscape:path-effect
   effect="spiro"
   id="path-effect851"
   is_visible="true"
   lpeversion="1" />
  <style
   type="text/css"
   id="style2">
   <![CDATA[
    .fil0 {fill:#EF7F1A;fill-rule:nonzero}
   ]]>
  </style>
 <inkscape:path-effect
   effect="spiro"
   id="path-effect1214"
   is_visible="true"
   lpeversion="1" /><inkscape:path-effect
   effect="spiro"
   id="path-effect1195"
   is_visible="true"
   lpeversion="1" /><inkscape:path-effect
   effect="spiro"
   id="path-effect992"
   is_visible="true"
   lpeversion="1" /><inkscape:path-effect
   effect="spiro"
   id="path-effect1060"
   is_visible="true"
   lpeversion="1" /><inkscape:path-effect
   effect="spiro"
   id="path-effect1047"
   is_visible="true"
   lpeversion="1" /><inkscape:path-effect
   effect="spiro"
   id="path-effect1085"
   is_visible="true"
   lpeversion="1" /><inkscape:path-effect
   effect="spiro"
   id="path-effect1286"
   is_visible="true"
   lpeversion="1" /></defs>
 
<path
   id="path856"
   style="fill:#2d2d2d;stroke:none;stroke-width:1px;stroke-linecap:butt;stroke-linejoin:miter;stroke-opacity:1"
   d="m 402.01142,378.29928 c 25.82231,15.64723 45.91947,41.32216 52.55153,70.77794 3.31603,14.72789 3.28195,30.23699 -0.4137,44.87424 -3.69565,14.63724 -11.07683,28.36933 -21.48181,39.30748 -10.52972,11.06928 -24.07742,19.18857 -38.72457,23.53195 -14.64714,4.34339 -30.35648,4.93043 -45.34556,1.97553 -29.97816,-5.90981 -56.37047,-26.14641 -71.76112,-52.54231 -10.87484,-18.65101 -16.54856,-40.41956 -15.38952,-61.97829 1.27801,-23.77162 11.32645,-47.48116 29.44266,-62.92545 15.06573,-12.84372 35.02433,-19.41306 54.82167,-19.46442 19.79735,-0.0514 39.36895,6.18357 56.30042,16.44333 z m 147.0448,-97.18995 -48.70136,-2.57535 a 26.391542,26.391542 130.57271 0 0 -27.21976,31.78847 l 15.93891,75.75609 c -9.26689,-31.62127 -29.62717,-59.87267 -56.69338,-78.66628 -27.06906,-18.79559 -60.66791,-28.0018 -93.53308,-25.57513 -24.35617,1.79839 -48.12604,9.83337 -69.04318,22.44013 -20.92992,12.61446 -39.06813,29.79403 -52.96402,49.89602 -28.99935,41.95087 -38.56395,95.72341 -30.91179,146.14445 4.27504,28.16879 13.73031,55.66619 28.7649,79.86781 15.0346,24.20161 35.72563,45.03744 60.46135,59.17608 31.75832,18.15268 70.17658,24.77645 105.9442,17.10915 39.63378,-8.49606 75.12595,-34.69222 94.92458,-70.06218 -1.23454,19.17119 -0.74783,38.45289 1.45235,57.53738 2.0615,17.88156 5.63905,35.63438 11.51246,52.64917 6.53468,18.93043 16.0495,37.08161 29.77434,51.66558 13.72483,14.58397 31.90286,25.4266 51.72566,28.27616 21.35264,3.06948 43.20694,-3.22913 62.12598,-13.59381 28.73047,-15.73981 51.76166,-40.60894 68.88219,-68.53865 41.11641,-67.07556 48.70664,-149.45679 45.19967,-228.05317 C 743.03909,384.38933 727.60463,300.69682 684.01981,231.18786 655.47957,185.67195 615.23997,147.44177 567.93612,121.97435 524.3317,98.498622 475.47116,86.037072 426.31824,80 351.97535,70.869039 273.74939,76.699946 207.14385,110.96277 147.47778,141.65583 100.35116,193.81829 69.360983,253.33058 29.153554,330.54332 15.109487,420.49977 26.21822,506.84235 c 6.606449,51.34859 22.01459,101.84529 47.910667,146.67515 25.896073,44.82986 62.499453,83.85594 107.185323,109.99969 27.57981,16.13574 58.07677,27.24294 89.54896,32.74866 18.66743,3.26566 37.20138,-11.32518 41.01492,-29.9018 l 7.054,-34.36172 c 3.81354,-18.57662 -8.5547,-34.49396 -27.01301,-38.76066 -26.79302,-6.19328 -52.45118,-17.32069 -75.20585,-32.76806 -39.10701,-26.54842 -69.20868,-65.52934 -87.33568,-109.18239 -18.127,-43.65305 -24.51198,-91.80439 -20.91467,-138.93438 2.84538,-37.27864 11.98709,-74.42356 29.95965,-107.20739 28.58906,-52.14943 78.54996,-90.75899 134.0371,-112.16166 61.6926,-23.79625 131.52461,-27.25093 194.43143,-6.8801 57.51537,18.62494 108.18899,56.75342 143.74314,105.64931 35.55416,48.89588 56.10344,108.2058 60.55148,168.49776 3.29057,44.60277 -2.04854,89.72692 -14.58458,132.65805 -3.15283,10.79724 -6.7966,21.55132 -12.48046,31.25774 -5.68385,9.70642 -13.56484,18.38185 -23.58716,23.48812 -9.88987,5.03879 -21.67393,6.33147 -32.36411,3.34498 -10.69017,-2.98649 -20.15502,-10.26917 -25.59294,-19.94532 -3.78911,-6.7423 -5.61213,-14.4411 -6.36258,-22.13868 -0.75045,-7.69758 -0.47114,-15.45291 -0.30399,-23.18518 1.12888,-52.2199 -2.89282,-104.51776 0.0942,-156.66438 2.18743,-38.18756 8.14918,-76.15684 17.7495,-113.18228 4.75909,-18.35432 9.59213,-32.96523 9.59214,-32.96523 z"
   inkscape:path-effect="#path-effect861;#path-effect855"
   inkscape:original-d="m 402.01142,378.29928 c 41.13545,32.8687 79.0921,105.49588 30.65602,154.95966 -52.42915,50.83118 -117.24234,8.88534 -155.83125,-27.03483 -15.58117,-14.5036 -17.4538,-40.79183 -15.38952,-61.97829 2.2457,-23.04849 10.07432,-50.23123 29.44266,-62.92545 30.99116,-20.31195 82.17387,-26.15176 111.12209,-3.02109 z m 181.33428,-95.3767 -117.28032,-6.20185 c -24.22832,28.29493 18.68199,73.12291 23.00863,109.35781 -2.94027,-36.45246 -30.13806,-60.23967 -56.69338,-78.66628 -26.55532,-18.42661 -61.21993,-26.34007 -93.53308,-25.57513 -24.19267,0.5727 -48.22408,10.10407 -69.04318,22.44013 -20.867,12.36445 -41.08451,28.74919 -52.96402,49.89602 -24.38709,43.41168 -39.87719,97.16562 -30.91179,146.14445 9.91565,54.17015 43.16781,108.85539 89.22625,139.04389 29.91845,19.60972 71.17912,25.53794 105.9442,17.10915 38.21954,-9.26633 56.25634,-38.43457 94.92458,-70.06218 4.70889,23.35687 -0.84923,38.4907 1.45235,57.53738 2.15512,17.83464 2.8186,36.92861 11.51246,52.64917 18.4162,33.30086 49.55205,72.30426 81.5,79.94174 20.73599,4.4045 43.51389,-3.44635 62.12598,-13.59381 28.43843,-15.50486 53.58753,-39.98663 68.88219,-68.53865 36.59349,-68.31261 47.71034,-150.59743 45.19967,-228.05317 C 744.06804,385.26968 725.60163,300.84474 684.01981,231.18786 656.78812,185.56997 614.00099,148.44291 567.93612,121.97435 525.2458,97.444786 475.41965,83.635257 426.31824,80 352.73608,74.552294 272.89173,77.478028 207.14385,110.96277 148.29529,140.93375 99.199341,194.41467 69.360983,253.33058 30.63185,329.80135 10.241049,422.62564 26.21822,506.84235 44.850705,605.05539 102.1637,702.45847 181.31421,763.51719 215.34198,789.76708 268.49335,822.7195 304.97307,800 L 325.83711,698.36638 C 289.82775,610.36379 244.97064,686.6303 216.71323,660.47361 150.494,599.17726 114.72414,502.37365 108.46288,412.35684 c -2.57467,-37.01553 9.83486,-76.03414 29.95965,-107.20739 31.59777,-48.94488 79.63909,-91.30796 134.0371,-112.16166 60.55399,-23.21361 135.9662,-34.94207 194.43143,-6.8801 102.74331,49.31444 174.39538,164.17373 204.29462,274.14707 11.67101,42.92753 0.5033,90.80902 -14.58458,132.65805 -7.4117,20.55773 -22.96742,46.26216 -36.06762,54.74586 -25.81238,17.10379 -48.14951,4.45996 -57.95705,-16.60034 -4.51133,-10.1307 -5.55709,-30.09371 -6.66657,-45.32386 -3.79417,-52.08346 -4.74358,-104.66748 0.0942,-156.66438 4.59133,-49.3479 61.83285,-101.98549 27.34163,-146.14751 z"
   sodipodi:nodetypes="acaaaacccaaaaaaacaacaaaaaaaaaaccaaaaaaaccaacc" /></svg>
