<?xml version="1.0" encoding="UTF-8" standalone="no"?>
<svg
   xmlns:dc="http://purl.org/dc/elements/1.1/"
   xmlns:cc="http://creativecommons.org/ns#"
   xmlns:rdf="http://www.w3.org/1999/02/22-rdf-syntax-ns#"
   xmlns:svg="http://www.w3.org/2000/svg"
   xmlns="http://www.w3.org/2000/svg"
   xmlns:sodipodi="http://sodipodi.sourceforge.net/DTD/sodipodi-0.dtd"
   xmlns:inkscape="http://www.inkscape.org/namespaces/inkscape"
   xml:space="preserve"
   width="1000"
   height="1000"
   version="1.1"
   style="clip-rule:evenodd;fill-rule:evenodd;image-rendering:optimizeQuality;shape-rendering:geometricPrecision;text-rendering:geometricPrecision"
   viewBox="0 0 1000 1000"
   id="svg10"
   sodipodi:docname="b.svg"
   inkscape:version="1.0.2 (e86c870879, 2021-01-15)"><metadata
   id="metadata14"><rdf:RDF><cc:Work
       rdf:about=""><dc:format>image/svg+xml</dc:format><dc:type
         rdf:resource="http://purl.org/dc/dcmitype/StillImage" /><dc:title /></cc:Work></rdf:RDF></metadata><sodipodi:namedview
   pagecolor="#ffffff"
   bordercolor="#666666"
   borderopacity="1"
   objecttolerance="10"
   gridtolerance="10"
   guidetolerance="10"
   inkscape:pageopacity="0"
   inkscape:pageshadow="2"
   inkscape:window-width="1920"
   inkscape:window-height="1015"
   id="namedview12"
   showgrid="false"
   inkscape:zoom="0.84890884"
   inkscape:cx="169.61082"
   inkscape:cy="375.97509"
   inkscape:window-x="1920"
   inkscape:window-y="0"
   inkscape:window-maximized="1"
   inkscape:current-layer="svg10"
   showguides="true"
   inkscape:guide-bbox="true"
   inkscape:document-rotation="0"><sodipodi:guide
   position="0,1000"
   orientation="0,1"
   id="guide16"
   inkscape:label=""
   inkscape:locked="true"
   inkscape:color="rgb(0,0,255)" /><sodipodi:guide
   position="1763.3122,2036.1693"
   orientation="1000,0"
   id="guide18" /><sodipodi:guide
   position="0,200"
   orientation="0,1"
   id="guide20"
   inkscape:label="base"
   inkscape:locked="true"
   inkscape:color="rgb(0,0,255)" /><inkscape:grid
   type="xygrid"
   id="grid24"
   originx="-473.37552"
   originy="-489.69235" /><sodipodi:guide
   position="0,0"
   orientation="0,1"
   id="guide34"
   inkscape:label="bottom"
   inkscape:locked="true"
   inkscape:color="rgb(0,0,255)" /><sodipodi:guide
   position="225.05109,1693.3186"
   orientation="0,1"
   id="guide44"
   inkscape:label=""
   inkscape:locked="false"
   inkscape:color="rgb(0,0,255)" /><sodipodi:guide
   position="0,900"
   orientation="0,1"
   id="guide46"
   inkscape:label=""
   inkscape:locked="true"
   inkscape:color="rgb(0,0,255)" /><sodipodi:guide
   position="469.11928,609.53631"
   orientation="1,0"
   id="guide841"
   inkscape:label="width" />    <sodipodi:guide
   position="-15.635881,798.82971"
   orientation="0,-1"
   id="guide851" /><sodipodi:guide
   position="402.87011,499.35732"
   orientation="0,-1"
   id="guide852" /></sodipodi:namedview>
 <defs
   id="defs4"><inkscape:path-effect
   effect="spiro"
   id="path-effect928"
   is_visible="true"
   lpeversion="1" /><inkscape:path-effect
   effect="spiro"
   id="path-effect921"
   is_visible="true"
   lpeversion="1" /><inkscape:path-effect
   effect="spiro"
   id="path-effect917"
   is_visible="true"
   lpeversion="1" /><inkscape:path-effect
   effect="spiro"
   id="path-effect849"
   is_visible="true"
   lpeversion="1" /><inkscape:path-effect
   effect="spiro"
   id="path-effect851"
   is_visible="true"
   lpeversion="1" />
  <style
   type="text/css"
   id="style2">
   <![CDATA[
    .fil0 {fill:#EF7F1A;fill-rule:nonzero}
   ]]>
  </style>
 <inkscape:path-effect
   effect="spiro"
   id="path-effect1214"
   is_visible="true"
   lpeversion="1" /><inkscape:path-effect
   effect="spiro"
   id="path-effect1195"
   is_visible="true"
   lpeversion="1" /><inkscape:path-effect
   effect="spiro"
   id="path-effect992"
   is_visible="true"
   lpeversion="1" /><inkscape:path-effect
   effect="spiro"
   id="path-effect1060"
   is_visible="true"
   lpeversion="1" /><inkscape:path-effect
   effect="spiro"
   id="path-effect1047"
   is_visible="true"
   lpeversion="1" /><inkscape:path-effect
   effect="spiro"
   id="path-effect1085"
   is_visible="true"
   lpeversion="1" /><inkscape:path-effect
   effect="spiro"
   id="path-effect1286"
   is_visible="true"
   lpeversion="1" /></defs>
 
<path
   id="path919"
   style="fill:#2d2d2d;fill-rule:nonzero;stroke:none;stroke-width:1px;stroke-linecap:butt;stroke-linejoin:miter;stroke-opacity:1"
   d="m 395.34174,498.02171 c -2.34077,-42.99294 -13.96155,-86.4462 -39.67737,-120.9798 -12.8579,-17.2668 -29.14379,-32.09173 -48.0137,-42.45487 -18.8699,-10.36314 -40.34661,-16.17957 -61.87191,-15.81963 -21.44223,0.35855 -42.63232,6.8402 -61.09475,17.75058 -18.46242,10.91039 -34.2223,26.16676 -46.50698,43.74471 -24.56937,35.1559 -34.88331,78.75021 -35.97986,121.62664 -1.18224,46.22705 8.35932,93.8483 34.36599,132.08428 13.00334,19.118 30.01812,35.63074 50.0594,47.16033 20.04129,11.52959 43.13489,17.97049 66.24999,17.44448 22.89674,-0.52104 45.46351,-7.86764 64.83957,-20.07831 19.37607,-12.21068 35.59111,-29.18515 47.78658,-48.57079 24.39093,-38.77127 32.33325,-86.17002 29.84304,-131.90762 z M 248.85997,199.26201 c 34.57351,0.007 68.81151,10.92148 98.05626,29.36253 29.24475,18.44105 53.56928,44.2229 71.92661,73.52028 36.71465,58.59476 49.14841,129.54683 49.46826,198.69312 0.31147,67.33419 -10.82602,136.48361 -45.41235,194.2571 -17.29316,28.88674 -40.35943,54.52746 -68.32946,73.26712 -27.97003,18.73965 -60.9188,30.40789 -94.56378,31.63784 -35.43087,1.29523 -71.19289,-9.17072 -100.33513,-29.36363 -29.14224,-20.19292 -51.5024,-50.00032 -62.73442,-83.62867 1.433622,13.9788 4.60947,27.77804 9.43076,40.97718 10.17845,27.86533 27.80158,52.97226 50.54904,72.01512 H 0.64093565 C -0.39513615,757.45266 0.05084684,714.86925 1.977804,672.35295 6.7346201,567.39875 20.499119,463.07112 28.440507,358.30975 34.988288,271.93259 37.568371,185.02314 29.96405,98.732578 27.027913,65.414562 22.576233,32.230141 16.627382,-0.68372 L 132.72455,0 c 1.31593,31.85347 1.18298,63.766759 -0.39829,95.608159 -3.03367,61.087811 -11.40787,121.909471 -24.99581,181.544131 15.02802,-23.73889 36.13719,-43.59294 60.75161,-57.1394 24.61442,-13.54646 52.68207,-20.7567 80.77791,-20.75088 z"
   sodipodi:nodetypes="aaaaaaaacaccaaaccaca"
   inkscape:path-effect="#path-effect928"
   inkscape:original-d="m 395.34174,498.02171 c -3.02225,-77.75958 -71.75366,-180.43667 -149.56298,-179.2543 -77.55773,1.17855 -143.14505,105.55648 -143.58159,183.12193 -0.46482,82.58849 68.099,198.17764 150.67538,196.68909 81.98971,-1.47798 145.65397,-118.61556 142.46919,-200.55672 z M 248.85997,199.26201 C 370.20553,226.30957 467.01648,376.52125 468.3111,500.83794 469.57646,622.34457 379.59223,778.44825 260.00551,800 194.92366,811.72896 96.93596,687.0077 96.93596,687.0077 c 0,0 3.72691,28.17413 9.43076,40.97718 11.93515,26.79003 36.4936,58.0164 50.54904,72.01512 H 0.64093565 c 0,0 -0.67375767,-85.14323 1.33686835,-127.64705 C 6.9416981,567.41824 23.71816,463.25561 28.440507,358.30975 32.330117,271.87 35.475747,185.08407 29.96405,98.732578 27.834234,65.364859 28.704175,17.292628 16.627382,-0.68372 L 132.72455,0 c -14.03808,15.709534 1.8465,63.817652 -0.39829,95.608159 -4.30267,60.933881 -24.99581,181.544131 -24.99581,181.544131 0,0 88.97028,-89.60558 141.52952,-77.89028 z" /></svg>
