<svg xmlns="http://www.w3.org/2000/svg" xmlns:dc="http://purl.org/dc/elements/1.1/" xmlns:ns1="http://sodipodi.sourceforge.net/DTD/sodipodi-0.dtd" xmlns:ns2="http://www.inkscape.org/namespaces/inkscape" xmlns:ns4="http://creativecommons.org/ns#" xmlns:rdf="http://www.w3.org/1999/02/22-rdf-syntax-ns#" xml:space="preserve" width="1000" height="1000" version="1.1" style="clip-rule:evenodd;fill-rule:evenodd;image-rendering:optimizeQuality;shape-rendering:geometricPrecision;text-rendering:geometricPrecision" viewBox="0 0 1000 1000" id="svg10" ns1:docname="copyright.svg" ns2:version="1.1.1 (3bf5ae0d25, 2021-09-20)"><metadata id="metadata14"><rdf:RDF><ns4:Work rdf:about=""><dc:format>image/svg+xml</dc:format><dc:type rdf:resource="http://purl.org/dc/dcmitype/StillImage" /></ns4:Work></rdf:RDF></metadata><ns1:namedview pagecolor="#ffffff" bordercolor="#666666" borderopacity="1" objecttolerance="10" gridtolerance="10" guidetolerance="10" ns2:pageopacity="0" ns2:pageshadow="2" ns2:window-width="1920" ns2:window-height="1009" id="namedview12" showgrid="false" ns2:zoom="0.84890884" ns2:cx="144.30289" ns2:cy="550.11796" ns2:window-x="0" ns2:window-y="0" ns2:window-maximized="1" ns2:current-layer="g1458" showguides="true" ns2:guide-bbox="true" ns2:document-rotation="0" ns2:pagecheckerboard="0"><ns1:guide position="0,1000" orientation="0,1" id="guide16" ns2:label="" ns2:locked="true" ns2:color="rgb(0,0,255)" /><ns1:guide position="1763.3122,2036.1693" orientation="1000,0" id="guide18" /><ns1:guide position="0,200" orientation="0,1" id="guide20" ns2:label="base" ns2:locked="true" ns2:color="rgb(0,0,255)" /><ns2:grid type="xygrid" id="grid24" originx="-473.37552" originy="-489.69235" /><ns1:guide position="0,0" orientation="0,1" id="guide34" ns2:label="bottom" ns2:locked="true" ns2:color="rgb(0,0,255)" /><ns1:guide position="225.05109,1693.3186" orientation="0,1" id="guide44" ns2:label="" ns2:locked="false" ns2:color="rgb(0,0,255)" /><ns1:guide position="0,900" orientation="0,1" id="guide46" ns2:label="" ns2:locked="true" ns2:color="rgb(0,0,255)" /><ns1:guide position="653.70869,669.60764" orientation="1,0" id="guide841" ns2:label="width" />    <ns1:guide position="-210.85892,799.74293" orientation="0,-1" id="guide856" /><ns1:guide position="428.78573,548.83259" orientation="0,-1" id="guide888" /><ns1:guide position="347.50492,651.3171" orientation="1,0" id="guide890" /></ns1:namedview>
 <defs id="defs4"><ns2:path-effect effect="fillet_chamfer" id="path-effect3717" is_visible="true" lpeversion="1" satellites_param="F,0,0,1,0,0,0,1 @ F,0,0,1,0,0,0,1 @ F,0,0,1,0,0,0,1 @ F,0,0,1,0,0,0,1 @ F,0,0,1,0,0,0,1 @ F,0,0,1,0,0,0,1 @ F,0,0,1,0,0,0,1 @ F,0,0,1,0,0,0,1 @ F,0,0,1,0,0,0,1 @ F,0,0,1,0,0,0,1 @ F,0,0,1,0,0,0,1 @ F,0,0,1,0,0,0,1 @ F,0,0,1,0,0,0,1 @ F,0,0,1,0,0,0,1 @ F,0,0,1,0,0,0,1 @ F,0,0,1,0,0,0,1 @ F,0,0,1,0,0,0,1 @ F,0,0,1,0,0,0,1 @ F,0,0,1,0,0,0,1 @ F,0,0,1,0,0,0,1 | F,0,0,1,0,0,0,1 @ F,0,0,1,0,0,0,1 @ F,0,0,1,0,0,0,1 @ F,0,0,1,0,0,0,1 @ F,0,0,1,0,0,0,1 @ F,0,0,1,0,0,0,1 @ F,0,0,1,0,0,0,1 @ F,0,0,1,0,0,0,1 @ F,0,0,1,0,0,0,1 @ F,0,0,1,0,0,0,1 @ F,0,0,1,0,0,0,1 @ F,0,0,1,0,0,0,1 @ F,0,0,1,0,0,0,1 @ F,0,0,1,0,0,0,1 @ F,0,0,1,0,0,0,1 @ F,0,0,1,0,0,0,1 @ F,0,0,1,0,0,0,1 | F,0,0,1,0,0,0,1 @ F,0,0,1,0,0,0,1 @ F,0,0,1,0,0,0,1 @ F,0,0,1,0,0,0,1 @ F,0,0,1,0,0,0,1 @ F,0,0,1,0,0,0,1 @ F,0,0,1,0,0,0,1 @ F,0,0,1,0,0,0,1 @ F,0,0,1,0,0,0,1 @ F,0,0,1,0,0,0,1 @ F,0,0,1,0,0,0,1 @ F,0,0,1,0,0,0,1 @ F,0,1,1,0,13.280767,0,1 @ F,0,1,1,0,13.280767,0,1 @ F,0,0,1,0,0,0,1 @ F,0,0,1,0,0,0,1 @ F,0,0,1,0,0,0,1 @ F,0,0,1,0,0,0,1 @ F,0,0,1,0,0,0,1 @ F,0,0,1,0,0,0,1 @ F,0,0,1,0,0,0,1 @ F,0,0,1,0,0,0,1 @ F,0,0,1,0,0,0,1 @ F,0,0,1,0,0,0,1 @ F,0,0,1,0,0,0,1 @ F,0,0,1,0,0,0,1 @ F,0,0,1,0,0,0,1 @ F,0,0,1,0,13.280767,0,1 @ F,0,1,1,0,13.280767,0,1 @ F,0,0,1,0,0,0,1 @ F,0,0,1,0,0,0,1 @ F,0,0,1,0,0,0,1" unit="px" method="auto" mode="F" radius="0" chamfer_steps="1" flexible="false" use_knot_distance="true" apply_no_radius="true" apply_with_radius="true" only_selected="false" hide_knots="false" /><ns2:path-effect effect="spiro" id="path-effect3571" is_visible="true" lpeversion="1" /><ns2:path-effect effect="fillet_chamfer" id="path-effect3369" is_visible="true" lpeversion="1" satellites_param="F,0,0,1,0,0,0,1 @ F,0,0,1,0,0,0,1 @ F,0,0,1,0,0,0,1 @ F,0,0,1,0,0,0,1 @ F,0,0,1,0,0,0,1 @ F,0,0,1,0,0,0,1 @ F,0,0,1,0,0,0,1 @ F,0,0,1,0,0,0,1 @ F,0,0,1,0,0,0,1 @ F,0,0,1,0,0,0,1 @ F,0,0,1,0,0,0,1 @ F,0,0,1,0,0,0,1 | F,0,0,1,0,0,0,1 @ F,0,0,1,0,0,0,1 @ F,0,0,1,0,0,0,1 @ F,0,0,1,0,0,0,1 @ F,0,0,1,0,0,0,1 @ F,0,0,1,0,0,0,1 @ F,0,0,1,0,0,0,1 @ F,0,0,1,0,0,0,1 @ F,0,0,1,0,0,0,1 | F,0,0,1,0,0,0,1 @ F,0,0,1,0,0,0,1 @ F,0,0,1,0,0,0,1 @ F,0,0,1,0,0,0,1 @ F,0,0,1,0,0,0,1 @ F,0,0,1,0,0,0,1 @ F,0,0,1,0,0,0,1 @ F,0,0,1,0,0,0,1 @ F,0,1,1,0,9.3865221,0,1 @ F,0,1,1,0,9.3865221,0,1 @ F,0,0,1,0,0,0,1 @ F,0,0,1,0,0,0,1 @ F,0,0,1,0,0,0,1 @ F,0,0,1,0,0,0,1 @ F,0,0,1,0,0,0,1 @ F,0,0,1,0,0,0,1 @ F,0,0,1,0,0,0,1 @ F,0,0,1,0,0,0,1 @ F,0,0,1,0,0,0,1 @ F,0,0,1,0,0,0,1 @ F,0,0,1,0,9.3865221,0,1 @ F,0,1,1,0,9.3865221,0,1 @ F,0,0,1,0,0,0,1 @ F,0,0,1,0,0,0,1 @ F,0,0,1,0,0,0,1" unit="px" method="auto" mode="F" radius="0" chamfer_steps="1" flexible="false" use_knot_distance="true" apply_no_radius="true" apply_with_radius="true" only_selected="false" hide_knots="false" /><ns2:path-effect effect="fillet_chamfer" id="path-effect864" is_visible="true" lpeversion="1" satellites_param="F,0,0,1,1,0,0,1 @ F,0,0,1,1,0,0,1 @ F,0,0,1,1,0,0,1 @ F,0,0,1,1,0,0,1 @ F,0,0,1,1,0,0,1 @ F,0,0,1,1,0,0,1 @ F,0,0,1,1,0,0,1 @ F,0,0,1,1,0,0,1 | F,0,0,1,1,0,0,1 @ F,0,0,1,1,0,0,1 @ F,0,0,1,1,0,0,1 @ F,0,0,1,1,0,0,1 @ F,0,0,1,1,0,0,1 @ F,0,0,1,1,0,0,1 @ F,0,1,1,1,0,0,1 @ F,0,0,1,1,0,0,1 @ F,0,0,1,1,0,0,1 @ F,0,0,1,1,0,0,1 @ F,0,0,1,1,0,0,1 @ F,0,0,1,1,0,0,1" unit="px" method="auto" mode="F" radius="0" chamfer_steps="1" flexible="false" use_knot_distance="true" apply_no_radius="true" apply_with_radius="true" only_selected="true" hide_knots="true" /><ns2:path-effect effect="spiro" id="path-effect884" is_visible="true" lpeversion="1" /><ns2:path-effect effect="spiro" id="path-effect861" is_visible="true" lpeversion="1" /><ns2:path-effect effect="spiro" id="path-effect857" is_visible="true" lpeversion="1" /><ns2:path-effect effect="spiro" id="path-effect137" is_visible="true" lpeversion="1" /><ns2:path-effect effect="spiro" id="path-effect133" is_visible="true" lpeversion="1" /><ns2:path-effect effect="spiro" id="path-effect114" is_visible="true" lpeversion="1" /><ns2:path-effect effect="spiro" id="path-effect853" is_visible="true" lpeversion="1" /><ns2:path-effect effect="spiro" id="path-effect928" is_visible="true" lpeversion="1" /><ns2:path-effect effect="spiro" id="path-effect921" is_visible="true" lpeversion="1" /><ns2:path-effect effect="spiro" id="path-effect917" is_visible="true" lpeversion="1" /><ns2:path-effect effect="spiro" id="path-effect849" is_visible="true" lpeversion="1" /><ns2:path-effect effect="spiro" id="path-effect851" is_visible="true" lpeversion="1" />
  <style type="text/css" id="style2">
   
    .fil0 {fill:#EF7F1A;fill-rule:nonzero}
   
  </style>
 <ns2:path-effect effect="spiro" id="path-effect1214" is_visible="true" lpeversion="1" /><ns2:path-effect effect="spiro" id="path-effect1195" is_visible="true" lpeversion="1" /><ns2:path-effect effect="spiro" id="path-effect992" is_visible="true" lpeversion="1" /><ns2:path-effect effect="spiro" id="path-effect1060" is_visible="true" lpeversion="1" /><ns2:path-effect effect="spiro" id="path-effect1047" is_visible="true" lpeversion="1" /><ns2:path-effect effect="spiro" id="path-effect1085" is_visible="true" lpeversion="1" /><ns2:path-effect effect="spiro" id="path-effect1286" is_visible="true" lpeversion="1" /><ns2:path-effect effect="spiro" id="path-effect117" is_visible="true" lpeversion="1" /><ns2:path-effect effect="spiro" id="path-effect868" is_visible="true" lpeversion="1" /><ns2:path-effect effect="fillet_chamfer" id="path-effect995" is_visible="true" lpeversion="1" satellites_param="F,0,0,1,0,0,0,1 @ F,0,0,1,0,0,0,1 @ F,0,0,1,0,0,0,1 @ F,0,0,1,0,0,0,1 @ F,0,0,1,0,0,0,1 @ F,0,0,1,0,0,0,1 @ F,0,0,1,0,0,0,1 @ F,0,1,1,0,18.26551,0,1 @ F,0,0,1,0,18.26551,0,1 @ F,0,0,1,0,0,0,1 @ F,0,0,1,0,0,0,1 @ F,0,0,1,0,0,0,1 @ F,0,0,1,0,0,0,1 @ F,0,0,1,0,0,0,1 @ F,0,0,1,0,0,0,1 @ F,0,0,1,0,0,0,1 @ F,0,0,1,0,0,0,1 @ F,0,0,1,0,0,0,1 @ F,0,0,1,0,0,0,1 @ F,0,1,1,0,18.26551,0,1 @ F,0,1,1,0,18.26551,0,1 @ F,0,0,1,0,0,0,1 @ F,0,0,1,0,0,0,1 @ F,0,0,1,0,0,0,1" unit="px" method="auto" mode="F" radius="0" chamfer_steps="1" flexible="false" use_knot_distance="true" apply_no_radius="true" apply_with_radius="true" only_selected="false" hide_knots="false" /></defs>
 
<g id="g1481"><g id="g2562"><g id="g1458"><path id="path858-3" style="clip-rule:evenodd;fill:#63452c;fill-rule:nonzero;stroke-width:118.943;stroke-linejoin:round;paint-order:stroke fill markers;image-rendering:optimizeQuality;shape-rendering:geometricPrecision;text-rendering:geometricPrecision" d="m 320.60938,98.822266 c -36.50949,0.33001 -72.6698,9.287804 -106.15543,23.839924 -21.36167,9.28331 -41.77773,20.87063 -60.18409,35.1432 -20.95985,16.25258 -39.18245,35.88926 -54.799083,57.32714 -32.266511,44.29417 -53.361834,96.1705 -64.967926,149.72794 -8.265264,38.14086 -11.837591,77.43788 -8.628847,116.33189 4.334386,52.53821 20.965549,103.51441 43.633758,151.10855 9.921006,20.83013 21.061747,41.18279 34.945858,59.60973 18.42864,24.45843 41.5332,45.24985 67.15134,62.02901 26.68186,17.47587 56.19029,30.68508 87.09923,38.55688 27.32264,6.95845 55.75671,9.73932 83.86834,7.57525 39.95494,-3.07578 78.80232,-16.11684 113.98389,-35.30318 27.69244,-15.10213 53.48791,-34.20945 73.84343,-58.30506 10.2803,-12.16919 19.09669,-25.50786 27.2742,-39.17907 27.71245,-46.32986 48.39746,-97.13976 58.11445,-150.24358 6.19216,-33.84046 7.91141,-68.53491 4.5438,-102.77201 -5.18092,-52.67228 -22.32587,-103.6764 -45.6576,-151.18263 -9.82871,-20.01245 -20.81261,-39.55231 -34.35909,-57.26092 -18.59381,-24.30672 -41.86255,-44.89573 -67.6428,-61.38588 -25.43486,-16.26922 -53.37623,-28.61856 -82.54177,-36.42824 -22.64908,-6.06476 -46.07561,-9.400873 -69.52166,-9.188944 z m 8.35546,97.392574 c 35.57215,1.89183 69.82366,14.51448 101.45799,30.89208 23.91302,12.38015 46.86991,27.12759 65.83292,46.24578 26.58385,26.8014 44.4098,61.38137 55.36136,97.50726 9.94491,32.80527 14.49878,67.29544 12.75405,101.53055 -2.00421,39.32647 -12.39392,78.27891 -30.86225,113.0569 -12.07435,22.73739 -27.58112,43.68672 -46.111,61.55912 -26.70211,25.75465 -59.57084,44.923 -94.86114,56.36414 -30.62541,9.92878 -63.35392,14.09799 -95.27754,9.9292 -34.05824,-4.44754 -66.47703,-18.27669 -95.1575,-37.17576 -22.95052,-15.12331 -43.79714,-33.60822 -60.61442,-55.34804 -22.39441,-28.94942 -37.32187,-63.30353 -45.57818,-98.9604 -8.721166,-37.66446 -10.130114,-77.04863 -3.711646,-115.17308 6.335333,-37.63065 20.359606,-74.08007 41.912636,-105.57085 11.34752,-16.57969 24.80314,-31.81493 40.58546,-44.24757 24.46839,-19.27516 53.72515,-31.28106 82.4651,-43.29144 19.55534,-8.17215 39.59494,-16.58068 60.77157,-17.44399 3.67608,-0.14986 7.35865,-0.0693 11.03259,0.1261 z m 19.9375,41.26172 c -9.01356,0.36006 -17.96672,1.85291 -26.6799,4.18837 -27.86408,7.46864 -52.91944,23.47097 -74.06194,43.09703 -11.56853,10.73878 -22.0818,22.59421 -31.60113,35.18527 -21.0947,27.90161 -37.41096,59.76935 -44.93875,93.92808 -5.5318,25.10156 -6.26484,51.13863 -3.49399,76.69272 2.77657,25.60687 9.10242,50.95556 20.15871,74.21883 12.41221,26.11623 30.75592,49.37819 53.1845,67.62866 15.62181,12.7117 33.43716,23.10554 52.93717,28.14317 14.72563,3.80422 30.12363,4.48793 45.29916,3.47816 25.26785,-1.6813 50.67018,-8.24675 71.67874,-22.38647 6.93989,-4.67087 13.33412,-10.11708 19.34977,-15.93009 4.61733,-4.4618 9.01961,-9.14607 13.18725,-14.03055 4.75997,-5.57868 7.63348,-16.29198 6.83688,-23.58336 l -7.21098,-66.00378 c -0.7966,-7.29138 -4.28731,-7.96527 -8.39993,-1.89482 -17.41055,25.69895 -42.65749,46.07252 -71.5531,57.45306 -16.5,6.49853 -34.34772,10.14288 -52.01803,8.64583 -13.27909,-1.12502 -26.33754,-5.18079 -37.75412,-12.05549 -15.22857,-9.17015 -27.25483,-23.19371 -35.29603,-39.04742 -10.46811,-20.63851 -14.32927,-44.24875 -13.24062,-67.36463 0.75314,-15.99184 3.80993,-31.85904 8.85189,-47.05393 8.43106,-25.40858 22.35217,-48.78926 39.16923,-69.61869 7.13681,-8.83958 14.8455,-17.28846 23.73108,-24.36792 6.01876,-4.79537 12.58653,-8.95681 19.70581,-11.8786 7.48566,-3.07216 15.59533,-4.74831 23.67973,-4.40812 6.33605,0.26662 12.62243,1.77514 18.36783,4.45972 11.09048,5.18211 19.89325,14.67775 25.25347,25.68325 4.30406,8.83702 6.49564,18.62629 6.98239,28.44367 0.43702,8.81431 -0.49406,17.69216 -2.72022,26.23141 -1.84849,7.09057 1.62181,12.29498 8.95008,11.98647 l 49.73347,-2.09372 c 7.32827,-0.30851 13.92587,-6.47624 14.19148,-13.80483 0.91862,-25.34624 -2.98067,-50.86659 -11.4823,-74.76446 -5.09794,-14.33018 -11.87342,-28.14965 -21.02066,-40.30165 -10.43764,-13.86627 -24.10813,-25.54037 -40.13857,-32.19191 -12.47361,-5.1757 -26.14436,-7.2223 -39.63837,-6.68326 z" ns1:nodetypes="aaaaaaaaaaaaaaaaaaaaaaaaaaaaaaaccsssaaaaaaaccaaaa" ns2:path-effect="#path-effect3571;#path-effect3717" ns2:original-d="m 320.60938,98.822266 c -36.55539,0.339945 -72.77736,9.135584 -106.15543,23.839924 -21.26313,9.46374 -41.52308,21.22763 -60.18409,35.1432 -21.25064,15.90169 -40.3659,34.96467 -54.799083,57.32714 -30.074984,45.64641 -52.572896,96.43944 -64.967926,149.72794 -8.832578,38.01904 -12.204306,77.41776 -8.628847,116.33189 4.721387,52.56018 20.418791,103.82933 43.633758,151.10855 10.202367,20.66854 21.802744,40.66904 34.945858,59.60973 17.8336,25.00936 41.41795,45.47371 67.15134,62.02901 26.82057,17.21799 56.20749,30.58052 87.09923,38.55688 27.28265,7.10507 55.74449,9.99253 83.86834,7.57525 39.9653,-3.3417 78.95021,-15.91383 113.98389,-35.30318 27.56648,-15.19906 53.2727,-34.34052 73.84343,-58.30506 10.43026,-12.06826 18.95073,-25.61804 27.2742,-39.17907 27.83494,-46.21156 48.17737,-97.15038 58.11445,-150.24358 6.33816,-33.81489 8.10712,-68.53114 4.5438,-102.77201 -5.38488,-52.713 -21.75821,-104.00243 -45.6576,-151.18263 -10.10907,-19.84829 -21.50824,-39.06169 -34.35909,-57.26092 -18.02367,-24.84488 -41.77422,-45.08597 -67.6428,-61.38588 -25.55089,-16.05555 -53.35626,-28.6464 -82.54177,-36.42824 -22.63847,-6.06665 -46.06706,-9.372113 -69.52166,-9.188944 z m 8.35546,97.392574 c 34.62231,7.25601 69.19175,16.1182 101.45799,30.89208 24.49159,11.22433 47.61322,26.22062 65.83292,46.24578 25.51641,27.78038 43.89432,61.68174 55.36136,97.50726 10.43293,32.67413 15.04312,67.27545 12.75405,101.53055 -2.55117,39.23364 -12.83222,78.07266 -30.86225,113.0569 -11.80512,22.88862 -27.22773,43.99571 -46.111,61.55912 -27.06491,25.32881 -59.72794,44.59584 -94.86114,56.36414 -30.50736,10.15247 -63.31275,14.53468 -95.27754,9.9292 -34.03665,-4.86379 -66.48244,-18.41093 -95.1575,-37.17576 -22.93537,-15.1045 -43.73355,-33.64292 -60.61442,-55.34804 -22.36001,-29.04132 -37.20715,-63.40086 -45.57818,-98.9604 -8.798875,-37.63687 -10.469445,-77.06322 -3.711646,-115.17308 6.601891,-37.52807 20.468776,-73.9816 41.912636,-105.57085 11.2964,-16.60037 24.75886,-31.82938 40.58546,-44.24757 24.50361,-19.41447 53.1194,-32.92934 82.4651,-43.29144 19.89755,-6.9835 40.24855,-12.62961 60.77157,-17.44399 3.63871,-0.67562 7.40978,-0.62597 11.03259,0.1261 z m 19.9375,41.26172 c -9.0347,-0.17092 -18.25475,0.72553 -26.6799,4.18837 -26.80953,10.15748 -52.45005,24.11486 -74.06194,43.09703 -11.89367,10.41535 -22.10762,22.58793 -31.60113,35.18527 -20.81529,28.0133 -36.86385,59.8784 -44.93875,93.92808 -6.03507,25.04871 -6.74729,51.19037 -3.49399,76.69272 3.26067,25.51093 10.21943,50.51414 20.15871,74.21883 11.5524,26.60419 30.20723,49.9833 53.1845,67.62866 15.85562,12.28267 33.53961,22.64913 52.93717,28.14317 14.67598,4.1843 30.16292,4.7916 45.29916,3.47816 25.11891,-2.32563 49.5493,-10.38782 71.67874,-22.38647 7.25602,-4.22969 13.41363,-10.05318 19.34977,-15.93009 7.62263,-7.70989 14.74452,-15.90805 21.46649,-24.4117 -3.36523,-30.80273 -6.73047,-61.60547 -10.0957,-92.4082 -17.74106,30.63954 -45.70063,55.36003 -78.51067,68.76045 -16.40243,6.66901 -34.29731,10.18535 -52.01803,8.64583 -13.28003,-1.09227 -26.35538,-5.11004 -37.75412,-12.05549 -15.24538,-9.18595 -27.77732,-22.89064 -35.29603,-39.04742 -9.96235,-20.89251 -13.95303,-44.32074 -13.24062,-67.36463 0.47326,-16.02282 3.49583,-31.94784 8.85189,-47.05393 8.88569,-25.27295 23.11778,-48.3066 39.16923,-69.61869 6.69707,-9.19902 14.65235,-17.49511 23.73108,-24.36792 6.14343,-4.59894 12.63717,-8.83983 19.70581,-11.8786 7.45886,-3.17637 15.59712,-4.51654 23.67973,-4.40812 6.35233,0.0288 12.85194,1.15785 18.36783,4.45972 10.60818,5.90735 19.95922,14.6382 25.25347,25.68325 3.99527,8.96298 6.24404,18.67146 6.98239,28.44367 0.95612,13.22772 -1.12007,26.8349 -7.03915,38.77649 25.42383,-1.07031 50.84766,-2.14063 76.27149,-3.21094 2.38093,-29.65173 -1.39375,-59.73268 -10.55983,-88.01068 -4.73858,-14.44783 -11.33945,-28.47865 -21.02066,-40.30165 -10.83354,-13.44139 -24.33807,-25.02337 -40.13857,-32.19191 -12.41939,-5.48458 -26.24058,-6.43624 -39.63837,-6.68326 z" /></g></g></g></svg>