<?xml version="1.0" encoding="UTF-8" standalone="no"?>
<svg
   xml:space="preserve"
   width="1000"
   height="1000"
   version="1.1"
   style="clip-rule:evenodd;fill-rule:evenodd;image-rendering:optimizeQuality;shape-rendering:geometricPrecision;text-rendering:geometricPrecision"
   viewBox="0 0 1000 1000"
   id="svg10"
   sodipodi:docname="currency.svg"
   inkscape:version="1.1.2 (0a00cf5339, 2022-02-04)"
   xmlns:inkscape="http://www.inkscape.org/namespaces/inkscape"
   xmlns:sodipodi="http://sodipodi.sourceforge.net/DTD/sodipodi-0.dtd"
   xmlns="http://www.w3.org/2000/svg"
   xmlns:svg="http://www.w3.org/2000/svg"
   xmlns:rdf="http://www.w3.org/1999/02/22-rdf-syntax-ns#"
   xmlns:cc="http://creativecommons.org/ns#"
   xmlns:dc="http://purl.org/dc/elements/1.1/"><metadata
   id="metadata14"><rdf:RDF><cc:Work
       rdf:about=""><dc:format>image/svg+xml</dc:format><dc:type
         rdf:resource="http://purl.org/dc/dcmitype/StillImage" /></cc:Work></rdf:RDF></metadata><sodipodi:namedview
   pagecolor="#ffffff"
   bordercolor="#666666"
   borderopacity="1"
   objecttolerance="10"
   gridtolerance="10"
   guidetolerance="10"
   inkscape:pageopacity="0"
   inkscape:pageshadow="2"
   inkscape:window-width="1920"
   inkscape:window-height="1009"
   id="namedview12"
   showgrid="false"
   inkscape:zoom="0.6002692"
   inkscape:cx="200.74327"
   inkscape:cy="484.78249"
   inkscape:window-x="0"
   inkscape:window-y="0"
   inkscape:window-maximized="1"
   inkscape:current-layer="svg10"
   showguides="true"
   inkscape:guide-bbox="true"
   inkscape:document-rotation="0"
   inkscape:pagecheckerboard="0"><sodipodi:guide
   position="0,1000"
   orientation="0,1"
   id="guide16"
   inkscape:label=""
   inkscape:locked="true"
   inkscape:color="rgb(0,0,255)" /><sodipodi:guide
   position="1763.3122,2036.1693"
   orientation="1000,0"
   id="guide18" /><sodipodi:guide
   position="0,200"
   orientation="0,1"
   id="guide20"
   inkscape:label="base"
   inkscape:locked="true"
   inkscape:color="rgb(0,0,255)" /><inkscape:grid
   type="xygrid"
   id="grid24"
   originx="-473.37552"
   originy="-489.69235" /><sodipodi:guide
   position="0,0"
   orientation="0,1"
   id="guide34"
   inkscape:label="bottom"
   inkscape:locked="true"
   inkscape:color="rgb(0,0,255)" /><sodipodi:guide
   position="225.05109,1693.3186"
   orientation="0,1"
   id="guide44"
   inkscape:label=""
   inkscape:locked="false"
   inkscape:color="rgb(0,0,255)" /><sodipodi:guide
   position="0,900"
   orientation="0,1"
   id="guide46"
   inkscape:label=""
   inkscape:locked="true"
   inkscape:color="rgb(0,0,255)" /><sodipodi:guide
   position="786.19898,543.48902"
   orientation="1,0"
   id="guide841"
   inkscape:label="width" />    <sodipodi:guide
   position="-210.85892,799.74293"
   orientation="0,-1"
   id="guide856" /><sodipodi:guide
   position="415.70552,949.10812"
   orientation="-1,0"
   id="guide889"
   inkscape:label="vc"
   inkscape:locked="false"
   inkscape:color="rgb(0,0,255)" /></sodipodi:namedview>
 <defs
   id="defs4"><inkscape:path-effect
   effect="spiro"
   id="path-effect2749"
   is_visible="true"
   lpeversion="1" /><inkscape:path-effect
   effect="fillet_chamfer"
   id="path-effect7327"
   is_visible="true"
   lpeversion="1"
   satellites_param="F,0,1,1,0,17.688772,0,1 @ F,0,1,1,0,17.688772,0,1 @ F,0,1,1,0,17.688772,0,1 @ F,0,1,1,0,17.688772,0,1 | F,0,1,1,0,17.688772,0,1 @ F,0,1,1,0,17.688772,0,1 @ F,0,1,1,0,17.688772,0,1 @ F,0,1,1,0,17.688772,0,1 | F,0,1,1,0,17.688772,0,1 @ F,0,1,1,0,17.688772,0,1 @ F,0,1,1,0,17.688772,0,1 @ F,0,1,1,0,17.688772,0,1 | F,0,1,1,0,17.688772,0,1 @ F,0,0,1,0,17.688772,0,1 @ F,0,1,1,0,17.688772,0,1 @ F,0,1,1,0,17.688772,0,1"
   unit="px"
   method="auto"
   mode="F"
   radius="0"
   chamfer_steps="1"
   flexible="false"
   use_knot_distance="true"
   apply_no_radius="true"
   apply_with_radius="true"
   only_selected="false"
   hide_knots="false" /><inkscape:path-effect
   effect="fillet_chamfer"
   id="path-effect871"
   is_visible="true"
   lpeversion="1"
   satellites_param="F,0,0,1,0,0,0,1 @ F,0,0,1,0,0,0,1 @ F,0,0,1,0,0,0,1 @ F,0,0,1,0,0,0,1 @ F,0,0,1,0,0,0,1 @ F,0,0,1,0,0,0,1 @ F,0,0,1,0,0,0,1 @ F,0,0,1,0,0,0,1 @ F,0,0,1,0,0,0,1 @ F,0,0,1,0,0,0,1 | F,0,0,1,0,0,0,1 @ F,0,0,1,0,0,0,1 @ F,0,0,1,0,0,0,1 @ F,0,0,1,0,0,0,1 @ F,0,0,1,0,0,0,1 @ F,0,0,1,0,0,0,1 @ F,0,0,1,0,0,0,1 @ F,0,0,1,0,0,0,1"
   unit="px"
   method="auto"
   mode="F"
   radius="0"
   chamfer_steps="1"
   flexible="false"
   use_knot_distance="true"
   apply_no_radius="true"
   apply_with_radius="true"
   only_selected="false"
   hide_knots="false" /><inkscape:path-effect
   effect="spiro"
   id="path-effect857"
   is_visible="true"
   lpeversion="1" /><inkscape:path-effect
   effect="spiro"
   id="path-effect137"
   is_visible="true"
   lpeversion="1" /><inkscape:path-effect
   effect="spiro"
   id="path-effect133"
   is_visible="true"
   lpeversion="1" /><inkscape:path-effect
   effect="spiro"
   id="path-effect114"
   is_visible="true"
   lpeversion="1" /><inkscape:path-effect
   effect="spiro"
   id="path-effect853"
   is_visible="true"
   lpeversion="1" /><inkscape:path-effect
   effect="spiro"
   id="path-effect928"
   is_visible="true"
   lpeversion="1" /><inkscape:path-effect
   effect="spiro"
   id="path-effect921"
   is_visible="true"
   lpeversion="1" /><inkscape:path-effect
   effect="spiro"
   id="path-effect917"
   is_visible="true"
   lpeversion="1" /><inkscape:path-effect
   effect="spiro"
   id="path-effect849"
   is_visible="true"
   lpeversion="1" /><inkscape:path-effect
   effect="spiro"
   id="path-effect851"
   is_visible="true"
   lpeversion="1" />
  <style
   type="text/css"
   id="style2">
   
    .fil0 {fill:#EF7F1A;fill-rule:nonzero}
   
  </style>
 <inkscape:path-effect
   effect="spiro"
   id="path-effect1214"
   is_visible="true"
   lpeversion="1" /><inkscape:path-effect
   effect="spiro"
   id="path-effect1195"
   is_visible="true"
   lpeversion="1" /><inkscape:path-effect
   effect="spiro"
   id="path-effect992"
   is_visible="true"
   lpeversion="1" /><inkscape:path-effect
   effect="spiro"
   id="path-effect1060"
   is_visible="true"
   lpeversion="1" /><inkscape:path-effect
   effect="spiro"
   id="path-effect1047"
   is_visible="true"
   lpeversion="1" /><inkscape:path-effect
   effect="spiro"
   id="path-effect1085"
   is_visible="true"
   lpeversion="1" /><inkscape:path-effect
   effect="spiro"
   id="path-effect1286"
   is_visible="true"
   lpeversion="1" /><inkscape:path-effect
   effect="spiro"
   id="path-effect117"
   is_visible="true"
   lpeversion="1" /><inkscape:path-effect
   effect="spiro"
   id="path-effect875"
   is_visible="true"
   lpeversion="1" /></defs>

 <path
   id="rect1391-6"
   style="clip-rule:evenodd;fill:#e01b24;fill-rule:nonzero;stroke-width:12.0927;stroke-linecap:round;stroke-linejoin:bevel;image-rendering:optimizeQuality;shape-rendering:geometricPrecision;text-rendering:geometricPrecision"
   d="m 713.32637,802.77993 c -7.21115,-1.11742 -14.20215,-3.63824 -20.46701,-7.38001 l -171.12285,-118.48378 53.57666,-90.1262 166.4053,115.13345 c 3.92597,2.71632 7.78907,5.57713 11.04065,9.07267 3.25159,3.49554 5.89275,7.51997 8.16215,11.72014 4.89845,9.06597 8.29287,19.05285 8.9704,29.33523 0.67752,10.28239 -1.46964,20.8725 -6.91947,29.61812 -5.03666,8.08258 -12.78669,14.3759 -21.59829,17.98863 -8.8116,3.61272 -18.63641,4.58007 -28.04754,3.12175 z m 39.17364,-594.92036 c 5.44983,8.74562 7.59699,19.33573 6.91946,29.61812 -0.67752,10.28238 -4.07194,20.26926 -8.97039,29.33523 -2.2694,4.20017 -4.91056,8.2246 -8.16215,11.72014 -3.25158,3.49554 -7.11468,6.35635 -11.04065,9.07267 L 564.84098,402.73918 511.26432,312.61298 682.38718,194.1292 c 6.26485,-3.74177 13.25586,-6.26259 20.467,-7.38001 9.41113,-1.45832 19.23594,-0.49098 28.04754,3.12175 8.8116,3.61273 16.56163,9.90605 21.59829,17.98863 z M 16.739092,778.29286 c -5.449834,-8.74562 -7.5969911,-19.33573 -6.9194661,-29.61812 0.6775251,-10.28239 4.0719461,-20.26926 8.9703961,-29.33523 2.269402,-4.20017 4.910559,-8.2246 8.162148,-11.72014 3.251588,-3.49554 7.114688,-6.35635 11.040655,-9.07267 L 204.39812,583.41325 257.97478,673.53945 86.851926,792.02323 c -6.264855,3.74177 -13.255858,6.26259 -20.467004,7.38001 -9.411131,1.45832 -19.235939,0.49098 -28.047539,-3.12175 -8.8116,-3.61273 -16.561629,-9.90605 -21.598291,-17.98863 z M 61.856755,200.25707 c 7.211146,1.11742 14.202148,3.63824 20.467003,7.38001 L 253.44661,326.12086 199.86995,416.24706 33.464657,301.11361 c -3.925967,-2.71632 -7.789067,-5.57713 -11.040656,-9.07267 -3.251589,-3.49554 -5.892747,-7.51997 -8.162149,-11.72014 -4.8984508,-9.06597 -8.2928719,-19.05284 -8.9703968,-29.33523 -0.677525,-10.28239 1.4696327,-20.8725 6.9194668,-29.61812 5.036662,-8.08258 12.786692,-14.3759 21.598293,-17.98863 8.8116,-3.61273 18.636408,-4.58007 28.04754,-3.12175 z M 379.26094,302.20926 c -50.54167,0 -99.99829,24.09822 -133.38456,62.04313 -33.38627,37.94492 -50.87877,88.81623 -50.87877,139.3579 0,50.54167 17.4925,101.41298 50.87877,139.3579 33.38627,37.94491 82.84289,62.04313 133.38456,62.04313 50.54166,0 99.99828,-24.09822 133.38455,-62.04314 33.38628,-37.94491 50.87877,-88.81623 50.87877,-139.35789 0,-50.54166 -17.49249,-101.41298 -50.87877,-139.35789 -33.38627,-37.94492 -82.84289,-62.04314 -133.38455,-62.04314 z m 274.80304,197.29797 c 0,74.29835 -25.7147,149.0813 -74.79391,204.86191 -49.07921,55.7806 -121.7825,91.20599 -196.08085,91.20599 -74.29835,0 -147.00164,-35.42539 -196.08085,-91.20599 -49.07921,-55.78061 -74.79391,-130.56356 -74.79391,-204.86191 0,-74.29835 25.7147,-149.0813 74.79391,-204.86191 49.07921,-55.7806 121.7825,-91.20599 196.08085,-91.20599 74.29835,0 147.00164,35.42539 196.08085,91.20599 49.07921,55.78061 74.79391,130.56356 74.79391,204.86191 z"
   sodipodi:nodetypes="sccccsssssccccssssccccssaccccaaaaaaaaaaaaa"
   inkscape:path-effect="#path-effect2749"
   inkscape:original-d="m 713.32637,802.77993 c -7.18153,0.20556 -20.46701,-7.38001 -20.46701,-7.38001 l -171.12285,-118.48378 53.57666,-90.1262 166.4053,115.13345 c 0,0 15.57785,11.77685 19.2028,20.79281 7.23849,18.0036 11.92426,42.51359 2.05093,58.95335 -9.74429,16.22493 -31.89511,20.60229 -49.64583,21.11038 z m 39.17364,-594.92036 c 9.87334,16.43976 5.18756,40.94975 -2.05093,58.95335 -3.62495,9.01596 -19.2028,20.79281 -19.2028,20.79281 L 564.84098,402.73918 511.26432,312.61298 682.38718,194.1292 c 0,0 13.28547,-7.58557 20.467,-7.38001 17.75073,0.50809 39.90154,4.88545 49.64583,21.11038 z M 16.739092,778.29286 C 6.8657576,761.8531 11.55153,737.34311 18.790022,719.33951 22.414968,710.32355 37.992825,698.5467 37.992825,698.5467 L 204.39812,583.41325 257.97478,673.53945 86.851926,792.02323 c 0,0 -13.285473,7.58557 -20.467004,7.38001 -17.750725,-0.50809 -39.901543,-4.88545 -49.64583,-21.11038 z M 61.856755,200.25707 c 7.181533,-0.20556 20.467003,7.38001 20.467003,7.38001 L 253.44661,326.12086 199.86995,416.24706 33.464657,301.11361 c 0,0 -15.577868,-11.77685 -19.202805,-20.79281 -7.2384873,-18.0036 -11.9242662,-42.51359 -2.05093,-58.95335 9.744305,-16.22491 31.895101,-20.60229 49.645833,-21.11038 z M 379.26094,302.20926 c -86.86257,0 -184.26333,106.45967 -184.26333,201.40103 0,94.94136 97.40076,201.40103 184.26333,201.40103 86.86257,0 184.26332,-106.45967 184.26332,-201.40103 0,-94.94136 -97.40075,-201.40103 -184.26332,-201.40103 z m 274.80304,197.29797 c 0,139.56775 -143.18317,296.0679 -270.87476,296.0679 -127.69159,0 -270.87476,-156.50015 -270.87476,-296.0679 0,-139.56775 143.18317,-296.0679 270.87476,-296.0679 127.69159,0 270.87476,156.50015 270.87476,296.0679 z" /></svg>
