<?xml version="1.0" encoding="UTF-8" standalone="no"?>
<svg
   xmlns:dc="http://purl.org/dc/elements/1.1/"
   xmlns:cc="http://creativecommons.org/ns#"
   xmlns:rdf="http://www.w3.org/1999/02/22-rdf-syntax-ns#"
   xmlns:svg="http://www.w3.org/2000/svg"
   xmlns="http://www.w3.org/2000/svg"
   xmlns:sodipodi="http://sodipodi.sourceforge.net/DTD/sodipodi-0.dtd"
   xmlns:inkscape="http://www.inkscape.org/namespaces/inkscape"
   xml:space="preserve"
   width="1000"
   height="1000"
   version="1.1"
   style="clip-rule:evenodd;fill-rule:evenodd;image-rendering:optimizeQuality;shape-rendering:geometricPrecision;text-rendering:geometricPrecision"
   viewBox="0 0 1000 1000"
   id="svg10"
   sodipodi:docname="d.svg"
   inkscape:version="1.0.2 (e86c870879, 2021-01-15)"><metadata
   id="metadata14"><rdf:RDF><cc:Work
       rdf:about=""><dc:format>image/svg+xml</dc:format><dc:type
         rdf:resource="http://purl.org/dc/dcmitype/StillImage" /><dc:title /></cc:Work></rdf:RDF></metadata><sodipodi:namedview
   pagecolor="#ffffff"
   bordercolor="#666666"
   borderopacity="1"
   objecttolerance="10"
   gridtolerance="10"
   guidetolerance="10"
   inkscape:pageopacity="0"
   inkscape:pageshadow="2"
   inkscape:window-width="1920"
   inkscape:window-height="1007"
   id="namedview12"
   showgrid="false"
   inkscape:zoom="0.84890884"
   inkscape:cx="169.61082"
   inkscape:cy="375.97509"
   inkscape:window-x="1920"
   inkscape:window-y="0"
   inkscape:window-maximized="1"
   inkscape:current-layer="svg10"
   showguides="true"
   inkscape:guide-bbox="true"
   inkscape:document-rotation="0"><sodipodi:guide
   position="0,1000"
   orientation="0,1"
   id="guide16"
   inkscape:label=""
   inkscape:locked="true"
   inkscape:color="rgb(0,0,255)" /><sodipodi:guide
   position="1763.3122,2036.1693"
   orientation="1000,0"
   id="guide18" /><sodipodi:guide
   position="0,200"
   orientation="0,1"
   id="guide20"
   inkscape:label="base"
   inkscape:locked="true"
   inkscape:color="rgb(0,0,255)" /><inkscape:grid
   type="xygrid"
   id="grid24"
   originx="-473.37552"
   originy="-489.69235" /><sodipodi:guide
   position="0,0"
   orientation="0,1"
   id="guide34"
   inkscape:label="bottom"
   inkscape:locked="true"
   inkscape:color="rgb(0,0,255)" /><sodipodi:guide
   position="225.05109,1693.3186"
   orientation="0,1"
   id="guide44"
   inkscape:label=""
   inkscape:locked="false"
   inkscape:color="rgb(0,0,255)" /><sodipodi:guide
   position="0,900"
   orientation="0,1"
   id="guide46"
   inkscape:label=""
   inkscape:locked="true"
   inkscape:color="rgb(0,0,255)" /><sodipodi:guide
   position="508.65187,478.01975"
   orientation="1,0"
   id="guide841"
   inkscape:label="width" />    <sodipodi:guide
   position="-15.635881,798.82971"
   orientation="0,-1"
   id="guide851" /><sodipodi:guide
   position="402.87011,499.35732"
   orientation="0,-1"
   id="guide852" /></sodipodi:namedview>
 <defs
   id="defs4"><inkscape:path-effect
   effect="fillet_chamfer"
   id="path-effect853"
   is_visible="true"
   lpeversion="1"
   satellites_param="F,0,0,1,0,0,0,1 @ F,0,0,1,0,0,0,1 @ F,0,0,1,0,0,0,1 @ F,0,0,1,0,0,0,1 @ F,0,0,1,0,0,0,1 @ F,0,0,1,0,0,0,1 @ F,0,0,1,0,0,0,1 @ F,0,0,1,0,0,0,1 @ F,0,0,1,0,0,0,1 @ F,0,0,1,0,0,0,1 @ F,0,0,1,0,0,0,1 @ F,0,0,1,0,0,0,1 | F,0,0,1,0,0,0,1 @ F,0,0,1,0,0,0,1 @ F,0,0,1,0,0,0,1 @ F,0,0,1,0,0,0,1 @ F,0,0,1,0,0,0,1 @ F,0,0,1,0,0,0,1 @ F,0,0,1,0,0,0,1 @ F,0,0,1,0,0,0,1 @ F,0,0,1,0,0,0,1 @ F,0,0,1,0,0,0,1 @ F,0,0,1,0,19.509087,0,1 @ F,0,0,1,0,39.002274,0,1 @ F,0,0,1,0,0,0,1 @ F,0,0,1,0,0,0,1 @ F,0,0,1,0,0,0,1 @ F,0,0,1,0,10.443093,0,1 @ F,0,0,1,0,21.60229,0,1 @ F,0,0,1,0,0,0,1 @ F,0,0,1,0,0,0,1 @ F,0,0,1,0,0,0,1"
   unit="px"
   method="auto"
   mode="F"
   radius="0"
   chamfer_steps="1"
   flexible="false"
   use_knot_distance="true"
   apply_no_radius="true"
   apply_with_radius="true"
   only_selected="true"
   hide_knots="false" /><inkscape:path-effect
   effect="spiro"
   id="path-effect928"
   is_visible="true"
   lpeversion="1" /><inkscape:path-effect
   effect="spiro"
   id="path-effect921"
   is_visible="true"
   lpeversion="1" /><inkscape:path-effect
   effect="spiro"
   id="path-effect917"
   is_visible="true"
   lpeversion="1" /><inkscape:path-effect
   effect="spiro"
   id="path-effect849"
   is_visible="true"
   lpeversion="1" /><inkscape:path-effect
   effect="spiro"
   id="path-effect851"
   is_visible="true"
   lpeversion="1" />
  <style
   type="text/css"
   id="style2">
   <![CDATA[
    .fil0 {fill:#EF7F1A;fill-rule:nonzero}
   ]]>
  </style>
 <inkscape:path-effect
   effect="spiro"
   id="path-effect1214"
   is_visible="true"
   lpeversion="1" /><inkscape:path-effect
   effect="spiro"
   id="path-effect1195"
   is_visible="true"
   lpeversion="1" /><inkscape:path-effect
   effect="spiro"
   id="path-effect992"
   is_visible="true"
   lpeversion="1" /><inkscape:path-effect
   effect="spiro"
   id="path-effect1060"
   is_visible="true"
   lpeversion="1" /><inkscape:path-effect
   effect="spiro"
   id="path-effect1047"
   is_visible="true"
   lpeversion="1" /><inkscape:path-effect
   effect="spiro"
   id="path-effect1085"
   is_visible="true"
   lpeversion="1" /><inkscape:path-effect
   effect="spiro"
   id="path-effect1286"
   is_visible="true"
   lpeversion="1" /></defs>
 
<path
   id="path919"
   style="fill:#2d2d2d;fill-rule:nonzero;stroke:none;stroke-width:1px;stroke-linecap:butt;stroke-linejoin:miter;stroke-opacity:1"
   d="m 87.073354,498.02171 c -0.02735,-42.38979 9.788021,-85.67418 33.851906,-120.57153 12.03194,-17.44868 27.53321,-32.60122 45.70588,-43.50892 18.17267,-10.9077 39.03728,-17.49514 60.2219,-18.15534 22.16315,-0.6907 44.37452,5.12633 63.8037,15.81228 19.42917,10.68594 36.09295,26.14908 48.95217,44.21348 25.71845,36.1288 35.76106,81.74481 34.60901,126.07766 -1.12138,43.15241 -12.87247,86.96522 -39.18486,121.18577 -13.15619,17.11027 -29.83891,31.61317 -49.02922,41.49138 -19.19031,9.87821 -40.90267,15.04747 -62.4613,14.01194 -20.81209,-0.99967 -41.21683,-7.76165 -58.95525,-18.69285 -17.73842,-10.9312 -32.83168,-25.96 -44.54035,-43.19513 C 96.629598,582.2202 87.100243,539.69388 87.073354,498.02171 Z M 227.55512,199.26201 C 192.88723,198.7312 158.40195,209.3757 128.98778,227.73192 99.573609,246.08813 75.15344,271.95591 56.809007,301.37743 20.120141,360.22047 8.1366289,431.49405 8.1039936,500.83794 c -0.031668,67.28801 11.1381494,136.3437 45.6611084,194.10045 17.26148,28.87838 40.274627,54.53047 68.196238,73.3002 27.92162,18.76973 60.82841,30.48624 94.44824,31.76141 35.43977,1.3442 71.22709,-9.10254 100.37814,-29.30156 29.15106,-20.19901 51.50211,-50.03686 62.69141,-83.69074 -0.5867,17.47311 -0.30929,34.97521 0.83086,52.42095 0.90335,13.82233 2.34843,27.60923 4.33006,41.31857 C 386.18136,791.41037 396.51975,800 407.29432,800 l 71.52535,0 c 21.54036,0 31.97804,-16.00904 24.71035,-36.28264 -8.52602,-23.78377 -15.61908,-48.0813 -21.22227,-72.718 C 457.60883,582.40062 462.17657,469.53072 467.97459,358.30975 472.48587,271.77171 477.64247,184.66241 466.45104,98.732578 462.55724,68.835286 456.6911,39.195083 448.90529,10.067961 447.4159,4.4960815 441.45627,0 435.68871,0 h -97.09174 c -11.93062,0 -18.50958,9.1651512 -14.95351,20.553258 7.73062,24.756835 14.5521,49.797565 20.44537,75.054901 14.66998,62.872521 23.57624,127.088661 26.57067,191.580491 -13.67519,-26.00092 -34.4573,-48.21902 -59.48793,-63.59842 -25.03063,-15.3794 -54.24204,-23.87846 -83.61645,-24.32822 z"
   sodipodi:nodetypes="aaaaaaaacaccaaaccaca"
   inkscape:path-effect="#path-effect928;#path-effect853"
   inkscape:original-d="M 87.073354,498.02171 C 87.344784,421.46557 150.2987,316.37688 226.85304,315.78592 305.97849,315.17511 375.6561,422.7746 374.21792,501.88934 372.81108,579.28033 300.91277,680.85696 223.54254,678.57843 148.13242,676.35762 86.805873,573.46405 87.073354,498.02171 Z M 227.55512,199.26201 C 105.59726,223.39903 9.3986136,376.52125 8.1039936,500.83794 6.8386336,622.34457 96.822864,778.44825 216.40958,800 c 65.08185,11.72896 163.06955,-112.9923 163.06955,-112.9923 0,0 -0.37959,34.98708 0.83086,52.42095 1.40909,20.29477 21.53068,46.57263 7.47524,60.57135 h 130.03671 c 0,0 -28.70996,-71.39786 -35.51419,-109.00064 C 462.54336,581.77373 470.68966,469.27595 467.97459,358.30975 465.85811,271.80842 475.46964,184.78851 466.45104,98.732578 462.9489,65.315003 434.05501,17.976348 446.1318,0 H 316.99468 c 14.03808,15.709534 20.28692,63.190798 27.09415,95.608159 13.24922,63.095351 26.57067,191.580491 26.57067,191.580491 0,0 -88.18359,-98.79617 -143.10438,-87.92664 z" /></svg>
