<svg xmlns="http://www.w3.org/2000/svg" xmlns:dc="http://purl.org/dc/elements/1.1/" xmlns:ns1="http://sodipodi.sourceforge.net/DTD/sodipodi-0.dtd" xmlns:ns2="http://www.inkscape.org/namespaces/inkscape" xmlns:ns4="http://creativecommons.org/ns#" xmlns:rdf="http://www.w3.org/1999/02/22-rdf-syntax-ns#" xml:space="preserve" width="1000" height="1000" version="1.1" style="clip-rule:evenodd;fill-rule:evenodd;image-rendering:optimizeQuality;shape-rendering:geometricPrecision;text-rendering:geometricPrecision" viewBox="0 0 1000 1000" id="svg10" ns1:docname="ffi.svg" ns2:version="1.0.2 (e86c870879, 2021-01-15)"><metadata id="metadata14"><rdf:RDF><ns4:Work rdf:about=""><dc:format>image/svg+xml</dc:format><dc:type rdf:resource="http://purl.org/dc/dcmitype/StillImage" /><dc:title /></ns4:Work></rdf:RDF></metadata><ns1:namedview pagecolor="#ffffff" bordercolor="#666666" borderopacity="1" objecttolerance="10" gridtolerance="10" guidetolerance="10" ns2:pageopacity="0" ns2:pageshadow="2" ns2:window-width="1920" ns2:window-height="1007" id="namedview12" showgrid="false" ns2:zoom="0.84890884" ns2:cx="200.74349" ns2:cy="382.24804" ns2:window-x="1920" ns2:window-y="0" ns2:window-maximized="1" ns2:current-layer="svg10" showguides="true" ns2:guide-bbox="true" ns2:document-rotation="0"><ns1:guide position="0,1000" orientation="0,1" id="guide16" ns2:label="" ns2:locked="true" ns2:color="rgb(0,0,255)" /><ns1:guide position="1763.3122,2036.1693" orientation="1000,0" id="guide18" /><ns1:guide position="0,200" orientation="0,1" id="guide20" ns2:label="base" ns2:locked="true" ns2:color="rgb(0,0,255)" /><ns2:grid type="xygrid" id="grid24" originx="-473.37552" originy="-489.69235" /><ns1:guide position="0,0" orientation="0,1" id="guide34" ns2:label="bottom" ns2:locked="true" ns2:color="rgb(0,0,255)" /><ns1:guide position="225.05109,1693.3186" orientation="0,1" id="guide44" ns2:label="" ns2:locked="false" ns2:color="rgb(0,0,255)" /><ns1:guide position="0,900" orientation="0,1" id="guide46" ns2:label="" ns2:locked="true" ns2:color="rgb(0,0,255)" /><ns1:guide position="712.08599,551.65266" orientation="1,0" id="guide841" ns2:label="width" />    <ns1:guide position="141.90494,800.03501" orientation="0,-1" id="guide851" /></ns1:namedview>
 <defs id="defs4"><ns2:path-effect effect="fillet_chamfer" id="path-effect862" is_visible="true" lpeversion="1" satellites_param="F,0,1,1,0,19.083924,0,1 @ F,0,1,1,0,19.083924,0,1 @ F,0,0,1,0,0,0,1 @ F,0,1,1,0,19.083924,0,1 @ F,0,1,1,0,19.083924,0,1 @ F,0,0,1,0,0,0,1" unit="px" method="auto" mode="F" radius="0" chamfer_steps="1" flexible="false" use_knot_distance="true" apply_no_radius="true" apply_with_radius="true" only_selected="true" hide_knots="false" /><ns2:path-effect effect="spiro" id="path-effect860" is_visible="true" lpeversion="1" /><ns2:path-effect effect="fillet_chamfer" id="path-effect880" is_visible="true" lpeversion="1" satellites_param="F,0,0,1,0,0,0,1 @ F,0,0,1,0,0,0,1 @ F,0,0,1,0,0,0,1 @ F,0,0,1,0,0,0,1 @ F,0,0,1,0,0,0,1 @ F,0,1,1,0,33.525902,0,1 @ F,0,1,1,0,33.525902,0,1 @ F,0,0,1,0,0,0,1 @ F,0,0,1,0,0,0,1 @ F,0,0,1,0,0,0,1 @ F,0,0,1,0,0,0,1 @ F,0,0,1,0,0,0,1 @ F,0,0,1,0,0,0,1 @ F,0,0,1,0,0,0,1 @ F,0,0,1,0,0,0,1 @ F,0,1,1,0,33.525902,0,1 @ F,0,1,1,0,33.525902,0,1 @ F,0,0,1,0,0,0,1 @ F,0,0,1,0,0,0,1 @ F,0,0,1,0,0,0,1 @ F,0,0,1,0,0,0,1" unit="px" method="auto" mode="F" radius="0" chamfer_steps="1" flexible="false" use_knot_distance="true" apply_no_radius="true" apply_with_radius="true" only_selected="true" hide_knots="false" /><ns2:path-effect effect="spiro" id="path-effect878" is_visible="true" lpeversion="1" /><ns2:path-effect effect="fillet_chamfer" id="path-effect854" is_visible="true" lpeversion="1" satellites_param="F,0,0,1,0,0,0,1 @ F,0,0,1,0,0,0,1 @ F,0,0,1,0,0,0,1 @ F,0,0,1,0,0,0,1 @ F,0,0,1,0,0,0,1 @ F,0,0,1,0,33.525902,0,1 @ F,0,0,1,0,33.525902,0,1 @ F,0,0,1,0,0,0,1 @ F,0,0,1,0,0,0,1 @ F,0,0,1,0,0,0,1 @ F,0,0,1,0,0,0,1 @ F,0,0,1,0,0,0,1 @ F,0,0,1,0,0,0,1 @ F,0,0,1,0,0,0,1 @ F,0,0,1,0,0,0,1 @ F,0,0,1,0,33.525902,0,1 @ F,0,0,1,0,33.525902,0,1 @ F,0,0,1,0,0,0,1 @ F,0,0,1,0,0,0,1 @ F,0,0,1,0,0,0,1 @ F,0,0,1,0,0,0,1 | F,0,0,1,0,33.525902,0,1 @ F,0,0,1,0,33.525902,0,1 @ F,0,0,1,0,0,0,1 @ F,0,1,1,0,2.9078663,0,1 @ F,0,0,1,0,33.525902,0,1 @ F,0,0,1,0,33.525902,0,1 @ F,0,0,1,0,0,0,1 @ F,0,0,1,0,0,0,1" unit="px" method="auto" mode="F" radius="0" chamfer_steps="1" flexible="false" use_knot_distance="true" apply_no_radius="true" apply_with_radius="true" only_selected="true" hide_knots="false" /><ns2:path-effect effect="fillet_chamfer" id="path-effect853" is_visible="true" lpeversion="1" satellites_param="F,0,0,1,0,0,0,1 @ F,0,0,1,0,0,0,1 @ F,0,0,1,0,0,0,1 @ F,0,0,1,0,0,0,1 @ F,0,1,1,0,29.599101,0,1 @ F,0,1,1,0,29.599101,0,1 @ F,0,0,1,0,0,0,1 @ F,0,0,1,0,0,0,1 @ F,0,0,1,0,0,0,1 @ F,0,0,1,0,0,0,1 @ F,0,0,1,0,0,0,1 @ F,0,0,1,0,0,0,1 @ F,0,1,1,0,29.599101,0,1 @ F,0,1,1,0,29.599101,0,1 @ F,0,0,1,0,0,0,1 @ F,0,0,1,0,0,0,1 @ F,0,0,1,0,0,0,1 | F,0,1,1,0,29.599101,0,1 @ F,0,1,1,0,29.599101,0,1 @ F,0,0,1,0,0,0,1 @ F,0,1,1,0,29.599101,0,1 @ F,0,1,1,0,29.599101,0,1 @ F,0,0,1,0,0,0,1" unit="px" method="auto" mode="F" radius="0" chamfer_steps="1" flexible="false" use_knot_distance="true" apply_no_radius="true" apply_with_radius="true" only_selected="true" hide_knots="false" /><ns2:path-effect effect="fillet_chamfer" id="path-effect852" is_visible="true" lpeversion="1" satellites_param="F,0,0,1,0,0,0,1 @ F,0,0,1,0,0,0,1 @ F,0,0,1,0,0,0,1 @ F,0,1,1,0,17.369058,0,1 @ F,0,1,1,0,17.369058,0,1 @ F,0,0,1,0,0,0,1 @ F,0,0,1,0,0,0,1 @ F,0,0,1,0,0,0,1 @ F,0,0,1,0,0,0,1 @ F,0,0,1,0,0,0,1 @ F,0,0,1,0,0,0,1 @ F,0,1,1,0,17.369058,0,1 @ F,0,1,1,0,0,0,1 @ F,0,1,1,0,0,0,1 @ F,0,1,1,0,0,0,1 @ F,0,0,1,0,0,0,1 @ F,0,0,1,0,0,0,1 | F,0,1,1,0,17.369058,0,1 @ F,0,1,1,0,17.369058,0,1 @ F,0,1,1,0,0,0,1 @ F,0,1,1,0,17.369058,0,1 @ F,0,1,1,0,17.369058,0,1 @ F,0,1,1,0,0,0,1" unit="px" method="auto" mode="F" radius="0" chamfer_steps="1" flexible="false" use_knot_distance="true" apply_no_radius="true" apply_with_radius="true" only_selected="true" hide_knots="false" /><ns2:path-effect effect="spiro" id="path-effect928" is_visible="true" lpeversion="1" /><ns2:path-effect effect="spiro" id="path-effect921" is_visible="true" lpeversion="1" /><ns2:path-effect effect="spiro" id="path-effect917" is_visible="true" lpeversion="1" /><ns2:path-effect effect="spiro" id="path-effect849" is_visible="true" lpeversion="1" /><ns2:path-effect effect="spiro" id="path-effect851" is_visible="true" lpeversion="1" />
  <style type="text/css" id="style2">
   
    .fil0 {fill:#EF7F1A;fill-rule:nonzero}
   
  </style>
 <ns2:path-effect effect="spiro" id="path-effect1214" is_visible="true" lpeversion="1" /><ns2:path-effect effect="spiro" id="path-effect1195" is_visible="true" lpeversion="1" /><ns2:path-effect effect="spiro" id="path-effect992" is_visible="true" lpeversion="1" /><ns2:path-effect effect="spiro" id="path-effect1060" is_visible="true" lpeversion="1" /><ns2:path-effect effect="spiro" id="path-effect1047" is_visible="true" lpeversion="1" /><ns2:path-effect effect="spiro" id="path-effect1085" is_visible="true" lpeversion="1" /><ns2:path-effect effect="spiro" id="path-effect1286" is_visible="true" lpeversion="1" /></defs>
 
<path id="path919" style="fill:#1a5fb4;fill-rule:nonzero;stroke:none;stroke-width:1.14141px;stroke-linecap:butt;stroke-linejoin:miter;stroke-opacity:1" d="m 184.83085,89.647456 c 5.11207,-1.954781 10.69039,-2.551151 16.1459,-2.113101 5.45551,0.43805 10.79742,1.888774 15.88621,3.903377 13.40296,5.306101 25.04041,14.491688 34.57521,25.302858 9.53481,10.81117 17.07291,23.23691 23.75412,36.01014 4.69622,8.97829 8.99467,18.16453 12.88038,27.52216 7.09795,17.09341 23.55436,22.82798 38.63304,12.08229 L 357.37832,170.4966 C 372.457,159.75091 378.31919,137.38792 368.57301,121.65501 359.5543,107.09643 349.35124,93.271361 338.089,80.369669 303.67339,40.944154 257.54762,9.6392319 205.74193,2.2246513 192.6341,0.34862045 179.23372,0.01641787 166.1762,2.2155084 153.11868,4.414599 140.3967,9.205954 129.67039,16.970038 116.25045,26.683865 106.38579,40.724537 99.665421,55.866856 92.945054,71.009176 89.191934,87.29377 86.277681,103.60206 73.433495,175.4787 76.250699,249.15309 80.522708,322.04325 c 6.849885,116.87456 17.32697,233.51308 24.268222,350.38225 1.90123,32.0108 3.53708,64.03735 4.90734,96.07527 C 110.48947,786.99967 126.04415,802 144.55999,802 l 69.88494,0 c 18.51584,0 27.34543,-13.68501 20.40747,-30.8508 -13.80165,-34.14784 -25.58329,-69.11216 -35.25828,-104.65028 -27.8731,-102.38332 -38.08851,-208.65845 -46.21241,-314.45664 -5.41951,-70.57876 -9.92465,-141.98529 1.71846,-211.80771 1.68719,-10.11789 3.75602,-20.31637 8.29658,-29.51428 4.54056,-9.19791 11.85308,-17.40919 21.4341,-21.072834 z m 372.89804,203.446464 0.4133,-15.52511 c 0.49273,-18.50929 -13.57221,-29.50259 -31.45687,-24.70948 -23.22056,6.22313 -46.49319,12.25203 -69.81461,18.08583 -63.40969,15.86179 -127.20466,30.28604 -191.55137,41.76564 -1.58098,0.28205 -4.14491,0.73586 -5.72668,1.01359 -74.92328,13.15511 -150.55405,22.27943 -226.456005,27.32352 -18.474901,1.22776 -30.7427733,16.71927 -27.3806846,34.92731 l 8.3272046,45.09759 c 3.362089,18.20804 20.682452,29.46207 38.710046,25.23814 53.775569,-12.59983 107.708239,-24.52912 161.781269,-35.78412 72.92624,-15.1792 146.14892,-29.14139 218.32532,-47.55907 30.89713,-7.88421 61.58679,-16.58146 92.02662,-26.07935 17.67516,-5.51503 32.30973,-25.2852 32.80246,-43.79449 z" ns1:nodetypes="aaaccaaaaaaccaaaaccssccasc" ns2:path-effect="#path-effect928;#path-effect854" ns2:original-d="m 184.83085,89.647456 c 9.42655,-5.050001 22.32538,-2.697688 32.03211,1.790276 25.60442,11.838358 42.99432,37.636638 58.32933,61.312998 11.56676,17.85839 24.21105,59.06124 24.21105,59.06124 l 85.27735,-60.77216 c 0,0 -26.15263,-51.218617 -46.59169,-70.670141 C 300.9771,45.05088 256.22704,10.940413 205.74193,2.2246513 180.2893,-2.1694981 150.24894,1.3601626 129.67039,16.970038 103.93855,36.488939 94.122483,72.271978 86.277681,103.60206 c -17.69212,70.65768 -7.314051,145.61888 -5.754973,218.44119 2.505901,117.04707 17.40598,233.50964 24.268222,350.38225 2.53459,43.16726 33.8204,85.03606 6.24316,129.5745 0,0 103.5166,39.18009 136.93674,0 0,0 -36.77108,-88.96718 -48.37671,-135.50108 -25.63747,-102.79594 -38.91849,-208.76329 -46.21241,-314.45664 -4.8609,-70.43737 -17.09533,-143.75558 1.71846,-211.80771 5.21179,-18.85178 12.48991,-41.350873 29.73068,-50.587114 z m 372.00587,236.960494 2.19764,-82.55317 c 0,0 -67.91029,20.20916 -102.16365,26.89038 -52.65694,10.2709 -123.87532,30.58051 -194.41434,42.27439 C 129.86216,335.20088 -0.33162973,343.00664 -0.33162973,343.00664 L 20.170775,454.04139 c 0,0 129.561245,-29.19514 194.403715,-43.51456 72.72946,-16.06114 151.46561,-30.39621 218.32532,-47.55907 41.70142,-10.70474 91.86841,-30.93919 123.93691,-36.35981 z" /><path id="path919-4" style="clip-rule:evenodd;fill:#1a5fb4;fill-rule:nonzero;stroke:none;stroke-width:1.14141px;stroke-linecap:butt;stroke-linejoin:miter;stroke-opacity:1;image-rendering:optimizeQuality;shape-rendering:geometricPrecision;text-rendering:geometricPrecision" d="m 482.34698,88.816984 c 5.11207,-1.954781 10.69039,-2.551151 16.1459,-2.113101 5.45551,0.43805 10.79742,1.888774 15.88621,3.903377 13.40296,5.306101 25.04041,14.49169 34.57521,25.30286 9.53481,10.81117 17.07291,23.23691 23.75412,36.01014 4.69622,8.97829 8.99467,18.16453 12.88038,27.52216 7.09794,17.09341 23.55436,22.82798 38.63304,12.08229 l 30.67261,-21.85858 c 15.07868,-10.74569 20.94087,-33.10868 11.19469,-48.84159 C 657.07043,106.26596 646.86737,92.440889 635.60513,79.539197 601.18952,40.113682 555.06375,8.80876 503.25806,1.3941795 c -13.10783,-1.87603083 -26.50821,-2.2082334 -39.56573,-0.00914 -13.05752,2.1990905 -25.7795,6.9904455 -36.50581,14.7545294 -13.41994,9.713827 -23.2846,23.754499 -30.00497,38.896819 -6.72037,15.14232 -10.47349,31.426915 -13.38774,47.735205 -12.84419,71.87664 -10.02698,145.55103 -5.75497,218.44119 6.84989,116.87456 17.32697,233.51308 24.26822,350.38225 1.90123,32.0108 3.53708,64.03735 4.90734,96.07527 0.7912,18.4989 16.34588,33.49923 34.86172,33.49923 h 69.88494 c 18.51584,0 27.34543,-13.68501 20.40747,-30.8508 C 518.56688,736.17089 506.78524,701.20657 497.11025,665.66845 469.23715,563.28513 459.02174,457.01 450.89784,351.21181 445.47833,280.63305 440.9732,209.22652 452.6163,139.4041 c 1.68719,-10.11789 3.75602,-20.31637 8.29658,-29.51428 4.54056,-9.19791 11.85308,-17.409192 21.4341,-21.072836 z" ns1:nodetypes="aaaccaaaaaaccaaaa" ns2:path-effect="#path-effect878;#path-effect880" ns2:original-d="m 482.34698,88.816984 c 9.42655,-5.050001 22.32538,-2.697688 32.03211,1.790276 25.60442,11.83836 42.99432,37.63664 58.32933,61.313 11.56676,17.85839 24.21105,59.06124 24.21105,59.06124 l 85.27735,-60.77216 c 0,0 -26.15263,-51.218619 -46.59169,-70.670143 C 598.49323,44.220408 553.74317,10.109941 503.25806,1.3941795 477.80543,-2.9999699 447.76507,0.52969077 427.18652,16.139566 c -25.73184,19.518901 -35.54791,55.30194 -43.39271,86.632024 -17.69212,70.65768 -7.31405,145.61888 -5.75497,218.44119 2.5059,117.04707 17.40598,233.50964 24.26822,350.38225 2.53459,43.16726 33.8204,85.03606 6.24316,129.5745 0,0 103.5166,39.18009 136.93674,0 0,0 -36.77108,-88.96718 -48.37671,-135.50108 -25.63747,-102.79594 -38.91849,-208.76329 -46.21241,-314.45664 -4.8609,-70.43737 -17.09533,-143.75558 1.71846,-211.80771 5.21179,-18.85178 12.48991,-41.350875 29.73068,-50.587116 z" /><path style="fill:#1a5fb4;stroke:#000000;stroke-width:1px;stroke-linecap:butt;stroke-linejoin:miter;stroke-opacity:1" d="m 598.86259,241.8257 72.99844,-8.80805 c 10.46386,-1.26258 17.79927,6.18103 16.51724,16.64247 -10.48505,85.55878 -14.36297,171.92679 -11.58201,258.08087 2.96465,91.84462 13.49898,183.44353 31.45421,273.5646 C 710.30986,791.64214 703.54183,800 693.00207,800 h -90.91589 c -10.53976,0 -17.5449,-8.40483 -15.7935,-18.79799 16.86572,-100.08476 23.61169,-201.8731 20.08863,-303.30812 -2.50419,-72.09991 -10.18734,-144.01929 -22.96609,-215.02183 -1.86689,-10.37303 4.98351,-19.78378 15.44737,-21.04636 z" id="path858" ns2:path-effect="#path-effect860;#path-effect862" ns2:original-d="m 579.91609,244.1118 110.89144,-13.38025 c 0,0 -17.22938,184.61094 -14.01127,277.00944 C 680.21182,605.80882 712.08599,800 712.08599,800 H 583.00226 c 0,0 25.54645,-214.47678 23.37905,-322.10611 -1.57899,-78.4092 -26.46522,-233.78209 -26.46522,-233.78209 z" ns1:nodetypes="ccaccac" /></svg>