<?xml version="1.0" encoding="UTF-8" standalone="no"?>
<svg
   xmlns:dc="http://purl.org/dc/elements/1.1/"
   xmlns:cc="http://creativecommons.org/ns#"
   xmlns:rdf="http://www.w3.org/1999/02/22-rdf-syntax-ns#"
   xmlns:svg="http://www.w3.org/2000/svg"
   xmlns="http://www.w3.org/2000/svg"
   xmlns:sodipodi="http://sodipodi.sourceforge.net/DTD/sodipodi-0.dtd"
   xmlns:inkscape="http://www.inkscape.org/namespaces/inkscape"
   xml:space="preserve"
   width="1000"
   height="1000"
   version="1.1"
   style="clip-rule:evenodd;fill-rule:evenodd;image-rendering:optimizeQuality;shape-rendering:geometricPrecision;text-rendering:geometricPrecision"
   viewBox="0 0 1000 1000"
   id="svg10"
   sodipodi:docname="g.svg"
   inkscape:version="1.0.2 (e86c870879, 2021-01-15)"><metadata
   id="metadata14"><rdf:RDF><cc:Work
       rdf:about=""><dc:format>image/svg+xml</dc:format><dc:type
         rdf:resource="http://purl.org/dc/dcmitype/StillImage" /><dc:title /></cc:Work></rdf:RDF></metadata><sodipodi:namedview
   pagecolor="#ffffff"
   bordercolor="#666666"
   borderopacity="1"
   objecttolerance="10"
   gridtolerance="10"
   guidetolerance="10"
   inkscape:pageopacity="0"
   inkscape:pageshadow="2"
   inkscape:window-width="1920"
   inkscape:window-height="1007"
   id="namedview12"
   showgrid="false"
   inkscape:zoom="0.84890884"
   inkscape:cx="169.61082"
   inkscape:cy="611.57165"
   inkscape:window-x="1920"
   inkscape:window-y="0"
   inkscape:window-maximized="1"
   inkscape:current-layer="svg10"
   showguides="true"
   inkscape:guide-bbox="true"
   inkscape:document-rotation="0"><sodipodi:guide
   position="0,1000"
   orientation="0,1"
   id="guide16"
   inkscape:label=""
   inkscape:locked="true"
   inkscape:color="rgb(0,0,255)" /><sodipodi:guide
   position="1763.3122,2036.1693"
   orientation="1000,0"
   id="guide18" /><sodipodi:guide
   position="0,200"
   orientation="0,1"
   id="guide20"
   inkscape:label="base"
   inkscape:locked="true"
   inkscape:color="rgb(0,0,255)" /><inkscape:grid
   type="xygrid"
   id="grid24"
   originx="-473.37552"
   originy="-489.69235" /><sodipodi:guide
   position="0,0"
   orientation="0,1"
   id="guide34"
   inkscape:label="bottom"
   inkscape:locked="true"
   inkscape:color="rgb(0,0,255)" /><sodipodi:guide
   position="225.05109,1693.3186"
   orientation="0,1"
   id="guide44"
   inkscape:label=""
   inkscape:locked="false"
   inkscape:color="rgb(0,0,255)" /><sodipodi:guide
   position="0,900"
   orientation="0,1"
   id="guide46"
   inkscape:label=""
   inkscape:locked="true"
   inkscape:color="rgb(0,0,255)" /><sodipodi:guide
   position="441.74354,520.56101"
   orientation="1,0"
   id="guide841"
   inkscape:label="width" />    <sodipodi:guide
   position="-22.321566,796.85905"
   orientation="0,-1"
   id="guide851" /><sodipodi:guide
   position="381.66642,520.56101"
   orientation="0,-1"
   id="guide852" /><sodipodi:guide
   position="208.50295,668.98684"
   orientation="1,0"
   id="guide854" /></sodipodi:namedview>
 <defs
   id="defs4"><inkscape:path-effect
   effect="spiro"
   id="path-effect928"
   is_visible="true"
   lpeversion="1" /><inkscape:path-effect
   effect="spiro"
   id="path-effect921"
   is_visible="true"
   lpeversion="1" /><inkscape:path-effect
   effect="spiro"
   id="path-effect917"
   is_visible="true"
   lpeversion="1" /><inkscape:path-effect
   effect="spiro"
   id="path-effect849"
   is_visible="true"
   lpeversion="1" /><inkscape:path-effect
   effect="spiro"
   id="path-effect851"
   is_visible="true"
   lpeversion="1" />
  <style
   type="text/css"
   id="style2">
   <![CDATA[
    .fil0 {fill:#EF7F1A;fill-rule:nonzero}
   ]]>
  </style>
 <inkscape:path-effect
   effect="spiro"
   id="path-effect1214"
   is_visible="true"
   lpeversion="1" /><inkscape:path-effect
   effect="spiro"
   id="path-effect1195"
   is_visible="true"
   lpeversion="1" /><inkscape:path-effect
   effect="spiro"
   id="path-effect992"
   is_visible="true"
   lpeversion="1" /><inkscape:path-effect
   effect="spiro"
   id="path-effect1060"
   is_visible="true"
   lpeversion="1" /><inkscape:path-effect
   effect="spiro"
   id="path-effect1047"
   is_visible="true"
   lpeversion="1" /><inkscape:path-effect
   effect="spiro"
   id="path-effect1085"
   is_visible="true"
   lpeversion="1" /><inkscape:path-effect
   effect="spiro"
   id="path-effect1286"
   is_visible="true"
   lpeversion="1" /></defs>
 
<path
   id="path919"
   style="fill:#2d2d2d;fill-rule:nonzero;stroke:none;stroke-width:1px;stroke-linecap:butt;stroke-linejoin:miter;stroke-opacity:1"
   d="m 206.46645,646.99438 c 20.85921,1.25829 41.94206,-3.3674 60.72438,-12.52789 18.78232,-9.16049 35.27507,-22.77956 48.46264,-38.99 26.37512,-32.42088 39.07053,-74.45048 41.34966,-116.18255 2.44951,-44.85186 -7.09739,-91.35974 -32.98083,-128.07129 -12.94171,-18.35577 -29.84309,-34.02568 -49.56913,-44.76375 -19.72603,-10.73807 -42.29043,-16.44924 -64.72974,-15.50055 -21.25766,0.89873 -42.13012,7.75053 -60.23251,18.93082 -18.1024,11.1803 -33.45447,26.61391 -45.24337,44.32599 -23.577793,35.42415 -32.524949,79.15731 -31.203723,121.69009 1.233337,39.70346 11.415759,79.8942 34.306183,112.35825 11.44521,16.23203 25.98468,30.36547 42.94161,40.70635 16.95694,10.34088 36.34956,16.82861 56.17483,18.02453 z m -0.27844,91.63973 C 175.91534,737.2125 146.24746,727.28501 120.50729,711.28818 94.767111,695.29135 72.916766,673.33579 55.939863,648.2312 21.986056,598.02204 7.9914784,536.38134 6.6974204,475.7831 5.7067753,429.3931 11.88521,382.48391 28.690899,339.23368 43.407597,301.35957 66.565253,266.2733 98.229394,240.80936 129.89353,215.34543 170.3899,200.03628 210.97527,202.00022 c 32.22666,1.55946 63.8258,14.0597 88.39785,34.96913 24.57204,20.90943 41.96775,50.10106 48.66408,81.66288 -4.67623,-13.24485 -7.84669,-27.02068 -9.43076,-40.97718 -2.83164,-24.94823 -0.54632,-50.46604 6.67332,-74.5141 h 96.46378 c -6.69207,38.49897 -12.23985,77.19683 -16.63356,116.02529 -11.58348,102.36648 -15.12197,205.92283 -4.97782,308.44195 3.93645,39.7827 9.93057,79.43488 10.81638,119.40204 0.88582,39.96716 -3.55529,80.73846 -19.6238,117.34394 -17.41824,39.68027 -48.14827,72.9613 -85.00826,95.74858 -36.85999,22.78728 -79.63049,35.31249 -122.83482,38.67473 -64.60459,5.02762 -130.653557,-10.48037 -186.269563,-43.73529 l 3.628267,-120.14687 c 21.149412,24.67226 46.959086,45.3358 75.660764,60.57494 33.949622,18.02554 72.820862,28.47303 110.994112,23.9675 32.80327,-3.87172 63.98744,-18.80232 88.57372,-40.86041 24.58629,-22.05809 42.63625,-51.04105 53.00996,-82.40075 13.76879,-41.62304 14.01742,-87.60094 0.69958,-129.37045 -15.69918,23.13504 -37.41406,42.15004 -62.41889,54.65815 -25.00483,12.50811 -53.24358,18.48131 -81.1716,17.16981 z"
   sodipodi:nodetypes="aaaaaaaaacaccaaaaccaaaca"
   inkscape:path-effect="#path-effect928"
   inkscape:original-d="m 206.46645,646.99438 c 75.07328,2.59812 147.98902,-92.62543 150.53668,-167.70044 2.70288,-79.64913 -67.59211,-189.42082 -147.2797,-188.33559 -76.6499,1.04386 -137.671948,108.29632 -136.679603,184.9469 0.936215,72.31505 61.144783,168.58776 133.422623,171.08913 z m -0.27844,91.63973 C 99.063039,713.6779 33.350873,582.49844 6.6974204,475.7831 -4.4742077,431.05402 4.8855812,378.71535 28.690899,339.23368 67.962384,274.10102 134.95319,199.72965 210.97527,202.00022 c 59.96307,1.79093 137.06193,116.63201 137.06193,116.63201 0,0 -8.47219,-26.99386 -9.43076,-40.97718 -1.70549,-24.87905 20.72876,-60.51538 6.67332,-74.5141 h 96.46378 c 0,0 -13.53991,77.07745 -16.63356,116.02529 -8.142,102.50452 -2.23666,205.65112 -4.97782,308.44195 -2.10517,78.94185 30.22166,168.09485 -8.80742,236.74598 C 370.54696,936.08122 284.7761,984.67743 203.48166,998.77748 140.64149,1009.6767 11.97433,947.24578 17.212097,955.04219 l 3.628267,-120.14687 c 3.510176,-3.92811 46.484427,46.70032 75.660764,60.57494 34.182552,16.2553 74.337202,33.39897 110.994112,23.9675 60.60006,-15.59181 115.50199,-66.38218 141.58368,-123.26116 17.97478,-39.19944 0.69958,-129.37045 0.69958,-129.37045 0,0 -91.4683,83.97053 -143.59049,71.82796 z" /></svg>
