<?xml version="1.0" encoding="UTF-8" standalone="no"?>
<svg
   xmlns:dc="http://purl.org/dc/elements/1.1/"
   xmlns:cc="http://creativecommons.org/ns#"
   xmlns:rdf="http://www.w3.org/1999/02/22-rdf-syntax-ns#"
   xmlns:svg="http://www.w3.org/2000/svg"
   xmlns="http://www.w3.org/2000/svg"
   xmlns:sodipodi="http://sodipodi.sourceforge.net/DTD/sodipodi-0.dtd"
   xmlns:inkscape="http://www.inkscape.org/namespaces/inkscape"
   xml:space="preserve"
   width="1000"
   height="1000"
   version="1.1"
   style="clip-rule:evenodd;fill-rule:evenodd;image-rendering:optimizeQuality;shape-rendering:geometricPrecision;text-rendering:geometricPrecision"
   viewBox="0 0 1000 1000"
   id="svg10"
   sodipodi:docname="g.svg"
   inkscape:version="1.0.2 (e86c870879, 2021-01-15)"><metadata
   id="metadata14"><rdf:RDF><cc:Work
       rdf:about=""><dc:format>image/svg+xml</dc:format><dc:type
         rdf:resource="http://purl.org/dc/dcmitype/StillImage" /><dc:title /></cc:Work></rdf:RDF></metadata><sodipodi:namedview
   pagecolor="#ffffff"
   bordercolor="#666666"
   borderopacity="1"
   objecttolerance="10"
   gridtolerance="10"
   guidetolerance="10"
   inkscape:pageopacity="0"
   inkscape:pageshadow="2"
   inkscape:window-width="1920"
   inkscape:window-height="1007"
   id="namedview12"
   showgrid="false"
   inkscape:zoom="0.84890884"
   inkscape:cx="169.61082"
   inkscape:cy="611.57165"
   inkscape:window-x="1920"
   inkscape:window-y="0"
   inkscape:window-maximized="1"
   inkscape:current-layer="svg10"
   showguides="true"
   inkscape:guide-bbox="true"
   inkscape:document-rotation="0"><sodipodi:guide
   position="0,1000"
   orientation="0,1"
   id="guide16"
   inkscape:label=""
   inkscape:locked="true"
   inkscape:color="rgb(0,0,255)" /><sodipodi:guide
   position="1763.3122,2036.1693"
   orientation="1000,0"
   id="guide18" /><sodipodi:guide
   position="0,200"
   orientation="0,1"
   id="guide20"
   inkscape:label="base"
   inkscape:locked="true"
   inkscape:color="rgb(0,0,255)" /><inkscape:grid
   type="xygrid"
   id="grid24"
   originx="-473.37552"
   originy="-489.69235" /><sodipodi:guide
   position="0,0"
   orientation="0,1"
   id="guide34"
   inkscape:label="bottom"
   inkscape:locked="true"
   inkscape:color="rgb(0,0,255)" /><sodipodi:guide
   position="225.05109,1693.3186"
   orientation="0,1"
   id="guide44"
   inkscape:label=""
   inkscape:locked="false"
   inkscape:color="rgb(0,0,255)" /><sodipodi:guide
   position="0,900"
   orientation="0,1"
   id="guide46"
   inkscape:label=""
   inkscape:locked="true"
   inkscape:color="rgb(0,0,255)" /><sodipodi:guide
   position="477.59811,819.67434"
   orientation="1,0"
   id="guide841"
   inkscape:label="width" />    <sodipodi:guide
   position="-22.321566,796.85905"
   orientation="0,-1"
   id="guide851" /><sodipodi:guide
   position="381.66642,520.56101"
   orientation="0,-1"
   id="guide852" /><sodipodi:guide
   position="208.50295,668.98684"
   orientation="1,0"
   id="guide854" /></sodipodi:namedview>
 <defs
   id="defs4"><inkscape:path-effect
   effect="fillet_chamfer"
   id="path-effect854"
   is_visible="true"
   lpeversion="1"
   satellites_param="F,0,1,1,0,0,0,1 @ F,0,0,1,0,0,0,1 @ F,0,0,1,0,0,0,1 @ F,0,0,1,0,0,0,1 @ F,0,0,1,0,0,0,1 @ F,0,1,1,0,0,0,1 @ F,0,0,1,0,0,0,1 @ F,0,1,1,0,0,0,1 @ F,0,0,1,0,0,0,1 | F,0,0,1,0,0,0,1 @ F,0,0,1,0,0,0,1 @ F,0,0,1,0,0,0,1 @ F,0,0,1,0,0,0,1 @ F,0,0,1,0,0,0,1 @ F,0,0,1,0,0,0,1 @ F,0,0,1,0,0,0,1 @ F,0,0,1,0,0,0,1 @ F,0,0,1,0,0,0,1 @ F,0,0,1,0,0,0,1 @ F,0,1,1,0,28.750844,0,1 @ F,0,1,1,0,28.750844,0,1 @ F,0,1,1,0,0,0,1 @ F,0,1,1,0,0,0,1 @ F,0,0,1,0,0,0,1 @ F,0,1,1,0,0,0,1 @ F,0,0,1,0,0,0,1 @ F,0,0,1,0,0,0,1 @ F,0,1,1,0,28.750844,0,1 @ F,0,1,1,0,28.750844,0,1 @ F,0,0,1,0,0,0,1 @ F,0,0,1,0,0,0,1 @ F,0,0,1,0,0,0,1 @ F,0,0,1,0,0,0,1 @ F,0,0,1,0,0,0,1 @ F,0,0,1,0,0,0,1"
   unit="px"
   method="auto"
   mode="F"
   radius="0"
   chamfer_steps="1"
   flexible="false"
   use_knot_distance="true"
   apply_no_radius="true"
   apply_with_radius="true"
   only_selected="true"
   hide_knots="false" /><inkscape:path-effect
   effect="spiro"
   id="path-effect928"
   is_visible="true"
   lpeversion="1" /><inkscape:path-effect
   effect="spiro"
   id="path-effect921"
   is_visible="true"
   lpeversion="1" /><inkscape:path-effect
   effect="spiro"
   id="path-effect917"
   is_visible="true"
   lpeversion="1" /><inkscape:path-effect
   effect="spiro"
   id="path-effect849"
   is_visible="true"
   lpeversion="1" /><inkscape:path-effect
   effect="spiro"
   id="path-effect851"
   is_visible="true"
   lpeversion="1" />
  <style
   type="text/css"
   id="style2">
   <![CDATA[
    .fil0 {fill:#EF7F1A;fill-rule:nonzero}
   ]]>
  </style>
 <inkscape:path-effect
   effect="spiro"
   id="path-effect1214"
   is_visible="true"
   lpeversion="1" /><inkscape:path-effect
   effect="spiro"
   id="path-effect1195"
   is_visible="true"
   lpeversion="1" /><inkscape:path-effect
   effect="spiro"
   id="path-effect992"
   is_visible="true"
   lpeversion="1" /><inkscape:path-effect
   effect="spiro"
   id="path-effect1060"
   is_visible="true"
   lpeversion="1" /><inkscape:path-effect
   effect="spiro"
   id="path-effect1047"
   is_visible="true"
   lpeversion="1" /><inkscape:path-effect
   effect="spiro"
   id="path-effect1085"
   is_visible="true"
   lpeversion="1" /><inkscape:path-effect
   effect="spiro"
   id="path-effect1286"
   is_visible="true"
   lpeversion="1" /></defs>
 
<path
   id="path919"
   style="fill:#2d2d2d;fill-rule:nonzero;stroke:none;stroke-width:1px;stroke-linecap:butt;stroke-linejoin:miter;stroke-opacity:1"
   d="m 206.46645,626.99438 c 39.02999,3.31573 78.59126,-13.4558 105.77017,-41.66291 27.17891,-28.2071 42.29164,-66.94522 44.76651,-106.03753 2.66495,-42.09482 -9.35695,-85.61243 -36.2135,-118.13629 -13.42827,-16.26193 -30.39958,-29.6514 -49.54977,-38.48537 -19.15019,-8.83397 -40.46988,-13.05992 -61.51643,-11.71393 -38.75781,2.47868 -75.17953,24.20923 -98.42916,55.31818 -23.249616,31.10895 -33.747753,70.82061 -32.250443,109.62872 1.388512,35.98821 13.062574,71.96712 35.513973,100.12763 22.4514,28.1605 56.02292,47.91289 91.90865,50.9615 z m -0.27844,111.63973 C 175.91534,737.2125 146.24746,727.28501 120.50729,711.28818 94.767111,695.29135 72.916766,673.33579 55.939863,648.2312 21.986056,598.02204 7.9914784,536.38134 6.6974204,475.7831 5.7067753,429.3931 11.88521,382.48391 28.690899,339.23368 43.407597,301.35957 66.565253,266.2733 98.229394,240.80936 129.89353,215.34543 170.3899,200.03628 210.97527,202.00022 c 32.22666,1.55946 63.8258,14.0597 88.39785,34.96913 24.57204,20.90943 41.96775,50.10106 48.66408,81.66288 -4.67623,-13.24485 -7.84669,-27.02068 -9.43076,-40.97718 -1.75079,-15.42535 -1.54542,-31.06844 0.57292,-46.44724 2.16458,-15.71444 18.97259,-28.06686 34.85124,-28.06686 h 58.9621 c 15.87865,0 26.5314,12.68022 24.04442,28.36277 -4.61928,29.12845 -8.59635,58.35876 -11.92714,87.66252 -11.63536,102.36597 -15.36039,205.94134 -4.97782,308.44195 4.03084,39.79393 10.18506,79.44784 11.12605,119.43432 0.941,39.98649 -3.56388,80.81726 -19.93347,117.31166 -19.0184,42.39968 -53.54583,76.98817 -94.20886,99.48151 -40.66303,22.49335 -87.19351,33.30075 -133.63422,34.9418 C 148.56429,1000.7181 93.258956,989.93585 43.013226,967.70991 28.495717,961.28816 17.600642,942.17586 18.079937,926.30445 l 1.892587,-62.67139 c 0.479295,-15.87141 9.154238,-18.82565 20.750856,-7.99085 16.741666,15.64186 35.54085,29.08328 55.777748,39.82805 33.949622,18.02554 72.820862,28.47303 110.994112,23.9675 32.80327,-3.87172 63.98744,-18.80232 88.57372,-40.86041 24.58629,-22.05809 42.63625,-51.04105 53.00996,-82.40075 13.76879,-41.62304 14.01742,-87.60094 0.69958,-129.37045 -15.69918,23.13504 -37.41406,42.15004 -62.41889,54.65815 -25.00483,12.50811 -53.24358,18.48131 -81.1716,17.16981 z"
   sodipodi:nodetypes="aaaaaaaaacaccaaaaccaaaca"
   inkscape:path-effect="#path-effect928;#path-effect854"
   inkscape:original-d="m 206.46645,626.99438 c 70.22025,3.31267 147.8616,-77.45301 150.53668,-147.70044 2.83712,-74.5026 -72.74528,-170.154 -147.2797,-168.33559 -70.12552,1.71084 -131.75378,94.80874 -130.679603,164.9469 1.008881,65.8747 61.613383,147.98455 127.422623,151.08913 z m -0.27844,111.63973 C 99.063039,713.6779 33.350873,582.49844 6.6974204,475.7831 -4.4742077,431.05402 4.8855812,378.71535 28.690899,339.23368 67.962384,274.10102 134.95319,199.72965 210.97527,202.00022 c 59.96307,1.79093 137.06193,116.63201 137.06193,116.63201 0,0 -8.47219,-26.99386 -9.43076,-40.97718 -1.70549,-24.87905 20.72876,-60.51538 6.67332,-74.5141 h 116.46378 c 0,0 -13.53991,77.07745 -16.63356,116.02529 -8.142,102.50452 -2.23666,205.65112 -4.97782,308.44195 -2.10517,78.94185 31.62305,168.91071 -8.80742,236.74598 -45.14601,75.74712 -140.66871,121.14107 -227.84308,134.42331 -63.05071,9.60662 -191.50733,-51.5317 -186.269563,-43.73529 l 3.628267,-120.14687 c 3.510176,-3.92811 46.484427,46.70032 75.660764,60.57494 34.182552,16.2553 74.337202,33.39897 110.994112,23.9675 60.60006,-15.59181 115.50199,-66.38218 141.58368,-123.26116 17.97478,-39.19944 0.69958,-129.37045 0.69958,-129.37045 0,0 -91.4683,83.97053 -143.59049,71.82796 z" /></svg>
