<?xml version="1.0" encoding="UTF-8" standalone="no"?>
<svg
   xmlns:dc="http://purl.org/dc/elements/1.1/"
   xmlns:cc="http://creativecommons.org/ns#"
   xmlns:rdf="http://www.w3.org/1999/02/22-rdf-syntax-ns#"
   xmlns:svg="http://www.w3.org/2000/svg"
   xmlns="http://www.w3.org/2000/svg"
   xmlns:sodipodi="http://sodipodi.sourceforge.net/DTD/sodipodi-0.dtd"
   xmlns:inkscape="http://www.inkscape.org/namespaces/inkscape"
   xml:space="preserve"
   width="1000"
   height="1000"
   version="1.1"
   style="clip-rule:evenodd;fill-rule:evenodd;image-rendering:optimizeQuality;shape-rendering:geometricPrecision;text-rendering:geometricPrecision"
   viewBox="0 0 1000 1000"
   id="svg10"
   sodipodi:docname="m.svg"
   inkscape:version="1.0.1 (3bc2e813f5, 2020-09-07)"><metadata
   id="metadata14"><rdf:RDF><cc:Work
       rdf:about=""><dc:format>image/svg+xml</dc:format><dc:type
         rdf:resource="http://purl.org/dc/dcmitype/StillImage" /><dc:title /></cc:Work></rdf:RDF></metadata><sodipodi:namedview
   pagecolor="#ffffff"
   bordercolor="#666666"
   borderopacity="1"
   objecttolerance="10"
   gridtolerance="10"
   guidetolerance="10"
   inkscape:pageopacity="0"
   inkscape:pageshadow="2"
   inkscape:window-width="1920"
   inkscape:window-height="1015"
   id="namedview12"
   showgrid="false"
   inkscape:zoom="0.84890884"
   inkscape:cx="169.61082"
   inkscape:cy="516.39882"
   inkscape:window-x="1920"
   inkscape:window-y="0"
   inkscape:window-maximized="1"
   inkscape:current-layer="svg10"
   showguides="true"
   inkscape:guide-bbox="true"
   inkscape:document-rotation="0"><sodipodi:guide
   position="0,1000"
   orientation="0,1"
   id="guide16"
   inkscape:label=""
   inkscape:locked="true"
   inkscape:color="rgb(0,0,255)" /><sodipodi:guide
   position="1763.3122,2036.1693"
   orientation="1000,0"
   id="guide18" /><sodipodi:guide
   position="0,200"
   orientation="0,1"
   id="guide20"
   inkscape:label="base"
   inkscape:locked="true"
   inkscape:color="rgb(0,0,255)" /><inkscape:grid
   type="xygrid"
   id="grid24"
   originx="-473.37552"
   originy="-489.69235" /><sodipodi:guide
   position="0,0"
   orientation="0,1"
   id="guide34"
   inkscape:label="bottom"
   inkscape:locked="true"
   inkscape:color="rgb(0,0,255)" /><sodipodi:guide
   position="225.05109,1693.3186"
   orientation="0,1"
   id="guide44"
   inkscape:label=""
   inkscape:locked="false"
   inkscape:color="rgb(0,0,255)" /><sodipodi:guide
   position="0,900"
   orientation="0,1"
   id="guide46"
   inkscape:label=""
   inkscape:locked="true"
   inkscape:color="rgb(0,0,255)" /><sodipodi:guide
   position="684.17994,564.57233"
   orientation="1,0"
   id="guide841"
   inkscape:label="width" />    <sodipodi:guide
   position="-7.0678967,800.92091"
   orientation="0,-1"
   id="guide850" /></sodipodi:namedview>
 <defs
   id="defs4"><inkscape:path-effect
   effect="spiro"
   id="path-effect883"
   is_visible="true"
   lpeversion="1" /><inkscape:path-effect
   effect="spiro"
   id="path-effect849"
   is_visible="true"
   lpeversion="1" /><inkscape:path-effect
   effect="spiro"
   id="path-effect851"
   is_visible="true"
   lpeversion="1" />
  <style
   type="text/css"
   id="style2">
   <![CDATA[
    .fil0 {fill:#EF7F1A;fill-rule:nonzero}
   ]]>
  </style>
 <inkscape:path-effect
   effect="spiro"
   id="path-effect1214"
   is_visible="true"
   lpeversion="1" /><inkscape:path-effect
   effect="spiro"
   id="path-effect1195"
   is_visible="true"
   lpeversion="1" /><inkscape:path-effect
   effect="spiro"
   id="path-effect992"
   is_visible="true"
   lpeversion="1" /><inkscape:path-effect
   effect="spiro"
   id="path-effect1060"
   is_visible="true"
   lpeversion="1" /><inkscape:path-effect
   effect="spiro"
   id="path-effect1047"
   is_visible="true"
   lpeversion="1" /><inkscape:path-effect
   effect="spiro"
   id="path-effect1085"
   is_visible="true"
   lpeversion="1" /><inkscape:path-effect
   effect="spiro"
   id="path-effect1286"
   is_visible="true"
   lpeversion="1" /></defs>
 
<path
   style="fill:#2d2d2d;stroke:#000000;stroke-width:0.911986px;stroke-linecap:butt;stroke-linejoin:miter;stroke-opacity:1"
   d="M 417.00824,800 H 291.7233 c 13.3667,-49.97078 23.3211,-100.85402 29.77091,-152.17797 7.56119,-60.16771 10.30147,-121.03999 6.07003,-181.53313 -2.21647,-31.68692 -6.5393,-63.91846 -20.56276,-92.41963 -7.01172,-14.25058 -16.44244,-27.41521 -28.38727,-37.88253 -11.94482,-10.46731 -26.46248,-18.17101 -42.05256,-21.20297 -23.48182,-4.56674 -48.41805,1.81919 -68.28504,15.14411 -19.86699,13.32493 -34.86017,33.16335 -44.64665,54.99168 -19.57295,43.65666 -18.73605,93.34392 -17.65712,141.17529 1.44105,63.88507 2.69149,127.90003 10.3079,191.34582 3.32529,27.70013 7.86118,55.25491 13.59038,82.55933 L 0.8937541,799.98261 C 8.7112281,778.58438 15.494287,756.80827 21.211323,734.75577 57.963208,592.99157 49.864824,443.34316 28.670839,298.43421 23.811307,265.20829 18.27842,232.08085 12.076722,199.07909 H 109.18009 L 97.297403,329.61425 C 108.96197,291.7742 132.2251,257.59587 163.1491,232.86456 c 16.47087,-13.1725 35.20615,-23.76474 55.51095,-29.4673 20.3048,-5.70256 42.23243,-6.36361 62.42752,-0.28393 18.31624,5.51405 34.80001,16.44024 47.95405,30.32767 13.15405,13.88742 23.05788,30.66689 30.06582,48.46516 14.01589,35.59653 16.48732,74.58438 17.23202,112.83361 0.90216,46.33627 -0.49215,92.68235 -0.91608,139.02546 -0.36347,39.73414 -0.008,79.56513 4.4867,119.04587 5.74076,50.42231 18.25399,100.06923 37.09816,147.1889 z"
   id="path847"
   inkscape:path-effect="#path-effect849"
   inkscape:original-d="M 417.00824,800 H 291.7233 c 0,0 23.92791,-100.84273 29.77091,-152.17797 6.84837,-60.16822 21.32265,-122.87566 6.07003,-181.53313 C 312.78886,409.46684 296.21823,315.15158 236.56165,314.78377 152.7284,314.26691 126.4311,446.16881 105.97284,526.09485 c -15.854552,61.94034 3.3904,127.83757 10.3079,191.34582 C 119.30002,745.16001 129.87112,800 129.87112,800 L 0.8937541,799.98261 c 0,0 16.7014899,-42.76758 20.3175689,-65.22684 C 44.343458,591.08335 46.129079,401.35387 28.670839,298.43421 19.05243,241.73182 12.076722,199.07909 12.076722,199.07909 H 109.18009 L 97.297403,329.61425 c 0,0 33.879357,-74.39678 65.851697,-96.74969 33.22878,-23.23133 81.10524,-46.69702 117.93847,-29.75123 64.80229,29.81346 79.1736,122.13063 95.25189,191.62644 10.44579,45.15023 -1.63628,92.68807 -0.91608,139.02546 0.61711,39.70455 -1.14825,79.725 4.4867,119.04587 C 387.08294,702.8635 417.00824,800 417.00824,800 Z"
   sodipodi:nodetypes="ccaaaaaccascccaaaaac" /><path
   style="clip-rule:evenodd;fill:#2d2d2d;fill-rule:evenodd;stroke:none;stroke-width:1.05244px;stroke-linecap:butt;stroke-linejoin:miter;stroke-opacity:1;image-rendering:optimizeQuality;shape-rendering:geometricPrecision;text-rendering:geometricPrecision"
   d="m 688.99181,799.9997 -149.67057,-2.3185 c -1.67466,-62.35153 0.13615,-124.79652 5.42114,-186.94623 4.3119,-50.7065 10.93412,-101.21983 13.95006,-152.01989 1.78084,-29.9962 2.17171,-60.90289 -8.1787,-89.11304 -5.1752,-14.10507 -13.06356,-27.34401 -23.86633,-37.78604 -10.80278,-10.44203 -24.60905,-17.98418 -39.45529,-20.29178 -15.29822,-2.37785 -31.22751,0.88481 -44.95455,8.04428 -13.72704,7.15948 -25.30893,18.07489 -34.29853,30.67952 -17.97919,25.20927 -25.47501,56.28996 -30.76719,86.79818 -6.15178,35.46361 -9.84839,71.35289 -11.05463,107.32589 L 330.04015,400.70981 c 3.10652,-53.12506 24.31462,-105.02748 59.30068,-145.12608 19.53525,-22.38996 43.59737,-41.34545 71.37328,-51.90173 27.77592,-10.55627 59.44847,-12.2169 87.13633,-1.43178 20.17966,7.86049 37.62674,22.02894 50.72872,39.27261 13.10197,17.24368 21.97619,37.47926 27.33314,58.46281 10.71391,41.96709 7.54198,86.10872 3.20773,129.20441 -5.45846,54.27381 -12.65596,108.5725 -11.74468,163.11249 0.91128,54.54 10.34555,109.96459 36.25483,157.96616 9.68593,17.94491 21.59245,34.68981 35.36163,49.7313 z"
   id="path847-3"
   inkscape:path-effect="#path-effect883"
   inkscape:original-d="m 688.99181,799.9997 -149.67057,-2.3185 c 0,0 1.66737,-124.71774 5.42114,-186.94623 3.064,-50.79387 23.0774,-101.95895 13.95006,-152.01989 -9.7838,-53.66143 -17.44137,-139.91748 -71.50032,-147.19086 -55.14109,-7.41898 -87.78332,74.52101 -110.02027,125.52198 -14.37404,32.96721 -11.05463,107.32589 -11.05463,107.32589 L 330.04015,400.70981 c 0,0 21.19708,-109.36267 59.30068,-145.12608 40.64769,-38.15124 108.34066,-77.64045 158.50961,-53.33351 72.31074,35.03468 64.51685,148.35475 81.26959,226.93983 22.37932,104.9787 -12.00793,220.14406 24.51015,321.07865 6.9202,19.12719 35.36163,49.7313 35.36163,49.7313 z"
   sodipodi:nodetypes="ccaaaaccaaaacc" /></svg>
