<?xml version="1.0" encoding="UTF-8" standalone="no"?>
<svg
   xmlns:dc="http://purl.org/dc/elements/1.1/"
   xmlns:cc="http://creativecommons.org/ns#"
   xmlns:rdf="http://www.w3.org/1999/02/22-rdf-syntax-ns#"
   xmlns:svg="http://www.w3.org/2000/svg"
   xmlns="http://www.w3.org/2000/svg"
   xmlns:sodipodi="http://sodipodi.sourceforge.net/DTD/sodipodi-0.dtd"
   xmlns:inkscape="http://www.inkscape.org/namespaces/inkscape"
   xml:space="preserve"
   width="1000"
   height="1000"
   version="1.1"
   style="clip-rule:evenodd;fill-rule:evenodd;image-rendering:optimizeQuality;shape-rendering:geometricPrecision;text-rendering:geometricPrecision"
   viewBox="0 0 1000 1000"
   id="svg10"
   sodipodi:docname="m.svg"
   inkscape:version="1.0.2 (e86c870879, 2021-01-15)"><metadata
   id="metadata14"><rdf:RDF><cc:Work
       rdf:about=""><dc:format>image/svg+xml</dc:format><dc:type
         rdf:resource="http://purl.org/dc/dcmitype/StillImage" /><dc:title /></cc:Work></rdf:RDF></metadata><sodipodi:namedview
   pagecolor="#ffffff"
   bordercolor="#666666"
   borderopacity="1"
   objecttolerance="10"
   gridtolerance="10"
   guidetolerance="10"
   inkscape:pageopacity="0"
   inkscape:pageshadow="2"
   inkscape:window-width="1920"
   inkscape:window-height="1007"
   id="namedview12"
   showgrid="false"
   inkscape:zoom="0.84890884"
   inkscape:cx="628.2652"
   inkscape:cy="573.52616"
   inkscape:window-x="1920"
   inkscape:window-y="0"
   inkscape:window-maximized="1"
   inkscape:current-layer="svg10"
   showguides="true"
   inkscape:guide-bbox="true"
   inkscape:document-rotation="0"><sodipodi:guide
   position="0,1000"
   orientation="0,1"
   id="guide16"
   inkscape:label=""
   inkscape:locked="true"
   inkscape:color="rgb(0,0,255)" /><sodipodi:guide
   position="1763.3122,2036.1693"
   orientation="1000,0"
   id="guide18" /><sodipodi:guide
   position="0,200"
   orientation="0,1"
   id="guide20"
   inkscape:label="base"
   inkscape:locked="true"
   inkscape:color="rgb(0,0,255)" /><inkscape:grid
   type="xygrid"
   id="grid24"
   originx="-473.37552"
   originy="-489.69235" /><sodipodi:guide
   position="0,0"
   orientation="0,1"
   id="guide34"
   inkscape:label="bottom"
   inkscape:locked="true"
   inkscape:color="rgb(0,0,255)" /><sodipodi:guide
   position="225.05109,1693.3186"
   orientation="0,1"
   id="guide44"
   inkscape:label=""
   inkscape:locked="false"
   inkscape:color="rgb(0,0,255)" /><sodipodi:guide
   position="0,900"
   orientation="0,1"
   id="guide46"
   inkscape:label=""
   inkscape:locked="true"
   inkscape:color="rgb(0,0,255)" /><sodipodi:guide
   position="711.37247,540.19055"
   orientation="1,0"
   id="guide841"
   inkscape:label="width" />    <sodipodi:guide
   position="-7.0678967,800.92091"
   orientation="0,-1"
   id="guide850" /></sodipodi:namedview>
 <defs
   id="defs4"><inkscape:path-effect
   effect="fillet_chamfer"
   id="path-effect854"
   is_visible="true"
   lpeversion="1"
   satellites_param="F,0,1,1,0,16.032935,0,1 @ F,0,1,1,0,16.032935,0,1 @ F,0,0,1,0,0,0,1 @ F,0,0,1,0,0,0,1 @ F,0,0,1,0,0,0,1 @ F,0,0,1,0,0,0,1 @ F,0,0,1,0,0,0,1 @ F,0,0,1,0,0,0,1 @ F,0,0,1,0,0,0,1 @ F,0,0,1,0,0,0,1 @ F,0,0,1,0,0,0,1 @ F,0,0,1,0,0,0,1 @ F,0,0,1,0,0,0,1 @ F,0,0,1,0,0,0,1 @ F,0,0,1,0,0,0,1 @ F,0,0,1,0,0,0,1 @ F,0,0,1,0,0,0,1 @ F,0,0,1,0,0,0,1 @ F,0,0,1,0,0,0,1 @ F,0,0,1,0,0,0,1 @ F,0,0,1,0,0,0,1 @ F,0,0,1,0,0,0,1 | F,0,1,1,0,16.032935,0,1 @ F,0,1,1,0,16.032935,0,1 @ F,0,0,1,0,0,0,1 @ F,0,0,1,0,0,0,1 @ F,0,0,1,0,0,0,1 @ F,0,0,1,0,0,0,1 @ F,0,0,1,0,0,0,1 @ F,0,0,1,0,0,0,1 @ F,0,0,1,0,0,0,1 @ F,0,0,1,0,0,0,1 @ F,0,0,1,0,0,0,1 @ F,0,0,1,0,0,0,1 @ F,0,1,1,0,16.032935,0,1 @ F,0,1,1,0,16.032935,0,1 @ F,0,0,1,0,0,0,1 @ F,0,0,1,0,0,0,1 @ F,0,0,1,0,0,0,1 @ F,0,0,1,0,16.032935,0,1 @ F,0,1,1,0,16.032935,0,1 @ F,0,0,1,0,0,0,1 @ F,0,0,1,0,0,0,1 @ F,0,0,1,0,0,0,1 @ F,0,0,1,0,0,0,1 @ F,0,0,1,0,0,0,1 @ F,0,0,1,0,0,0,1 @ F,0,0,1,0,0,0,1 @ F,0,0,1,0,0,0,1 @ F,0,0,1,0,0,0,1 @ F,0,0,1,0,0,0,1 @ F,0,0,1,0,0,0,1"
   unit="px"
   method="auto"
   mode="F"
   radius="0"
   chamfer_steps="1"
   flexible="false"
   use_knot_distance="true"
   apply_no_radius="true"
   apply_with_radius="true"
   only_selected="true"
   hide_knots="false" /><inkscape:path-effect
   effect="fillet_chamfer"
   id="path-effect853"
   is_visible="true"
   lpeversion="1"
   satellites_param="F,0,1,1,0,35.553561,0,1 @ F,0,1,1,0,35.553561,0,1 @ F,0,0,1,0,0,0,1 @ F,0,0,1,0,0,0,1 @ F,0,0,1,0,0,0,1 @ F,0,0,1,0,0,0,1 @ F,0,0,1,0,0,0,1 @ F,0,0,1,0,0,0,1 @ F,0,0,1,0,0,0,1 @ F,0,0,1,0,0,0,1 @ F,0,0,1,0,0,0,1 @ F,0,0,1,0,0,0,1 @ F,0,0,1,0,0,0,1 @ F,0,0,1,0,0,0,1 @ F,0,0,1,0,0,0,1 @ F,0,0,1,0,0,0,1 @ F,0,0,1,0,0,0,1 @ F,0,0,1,0,0,0,1 @ F,0,0,1,0,0,0,1 @ F,0,0,1,0,0,0,1 @ F,0,0,1,0,0,0,1 @ F,0,0,1,0,0,0,1 | F,0,1,1,0,35.553561,0,1 @ F,0,1,1,0,35.553561,0,1 @ F,0,0,1,0,0,0,1 @ F,0,0,1,0,0,0,1 @ F,0,0,1,0,0,0,1 @ F,0,0,1,0,0,0,1 @ F,0,0,1,0,0,0,1 @ F,0,0,1,0,0,0,1 @ F,0,0,1,0,0,0,1 @ F,0,0,1,0,0,0,1 @ F,0,0,1,0,0,0,1 @ F,0,0,1,0,0,0,1 @ F,0,1,1,0,35.553561,0,1 @ F,0,1,1,0,35.553561,0,1 @ F,0,0,1,0,0,0,1 @ F,0,0,1,0,0,0,1 @ F,0,0,1,0,0,0,1 @ F,0,1,1,0,35.553561,0,1 @ F,0,1,1,0,35.553561,0,1 @ F,0,0,1,0,0,0,1 @ F,0,0,1,0,0,0,1 @ F,0,0,1,0,0,0,1 @ F,0,0,1,0,0,0,1 @ F,0,0,1,0,0,0,1 @ F,0,0,1,0,0,0,1 @ F,0,0,1,0,0,0,1 @ F,0,0,1,0,0,0,1 @ F,0,0,1,0,0,0,1"
   unit="px"
   method="auto"
   mode="F"
   radius="0"
   chamfer_steps="1"
   flexible="false"
   use_knot_distance="true"
   apply_no_radius="true"
   apply_with_radius="true"
   only_selected="true"
   hide_knots="false" /><inkscape:path-effect
   effect="fillet_chamfer"
   id="path-effect852"
   is_visible="true"
   lpeversion="1"
   satellites_param="F,0,0,1,0,9.7374578,0,1 @ F,0,0,1,0,22.781338,0,1 @ F,0,0,1,0,0,0,1 @ F,0,0,1,0,0,0,1 @ F,0,0,1,0,0,0,1 @ F,0,0,1,0,0,0,1 @ F,0,0,1,0,0,0,1 @ F,0,0,1,0,0,0,1 @ F,0,0,1,0,0,0,1 @ F,0,0,1,0,0,0,1 @ F,0,0,1,0,0,0,1 @ F,0,0,1,0,0,0,1 @ F,0,0,1,0,0,0,1 @ F,0,0,1,0,0,0,1 @ F,0,0,1,0,0,0,1 @ F,0,0,1,0,0,0,1 @ F,0,0,1,0,0,0,1 @ F,0,0,1,0,0,0,1 @ F,0,0,1,0,0,0,1 @ F,0,0,1,0,0,0,1 | F,0,0,1,0,16.924875,0,1 @ F,0,0,1,0,18.892185,0,1 @ F,0,0,1,0,0,0,1 @ F,0,0,1,0,0,0,1 @ F,0,0,1,0,0,0,1 @ F,0,0,1,0,0,0,1 @ F,0,0,1,0,0,0,1 @ F,0,0,1,0,0,0,1 @ F,0,0,1,0,0,0,1 @ F,0,0,1,0,0,0,1 @ F,0,0,1,0,0,0,1 @ F,0,0,1,0,27.299596,0,1 @ F,0,0,1,0,24.449342,0,1 @ F,0,0,1,0,0,0,1 @ F,0,0,1,0,0,0,1 @ F,0,0,1,0,0,0,1 @ F,0,0,1,0,21.925435,0,1 @ F,0,0,1,0,23.115036,0,1 @ F,0,0,1,0,0,0,1 @ F,0,0,1,0,0,0,1 @ F,0,0,1,0,0,0,1 @ F,0,0,1,0,0,0,1 @ F,0,0,1,0,0,0,1 @ F,0,0,1,0,0,0,1 @ F,0,0,1,0,0,0,1 @ F,0,0,1,0,0,0,1 @ F,0,0,1,0,0,0,1"
   unit="px"
   method="auto"
   mode="F"
   radius="0"
   chamfer_steps="1"
   flexible="false"
   use_knot_distance="true"
   apply_no_radius="true"
   apply_with_radius="true"
   only_selected="true"
   hide_knots="false" /><inkscape:path-effect
   effect="spiro"
   id="path-effect883"
   is_visible="true"
   lpeversion="1" /><inkscape:path-effect
   effect="spiro"
   id="path-effect849"
   is_visible="true"
   lpeversion="1" /><inkscape:path-effect
   effect="spiro"
   id="path-effect851"
   is_visible="true"
   lpeversion="1" />
  <style
   type="text/css"
   id="style2">
   <![CDATA[
    .fil0 {fill:#EF7F1A;fill-rule:nonzero}
   ]]>
  </style>
 <inkscape:path-effect
   effect="spiro"
   id="path-effect1214"
   is_visible="true"
   lpeversion="1" /><inkscape:path-effect
   effect="spiro"
   id="path-effect1195"
   is_visible="true"
   lpeversion="1" /><inkscape:path-effect
   effect="spiro"
   id="path-effect992"
   is_visible="true"
   lpeversion="1" /><inkscape:path-effect
   effect="spiro"
   id="path-effect1060"
   is_visible="true"
   lpeversion="1" /><inkscape:path-effect
   effect="spiro"
   id="path-effect1047"
   is_visible="true"
   lpeversion="1" /><inkscape:path-effect
   effect="spiro"
   id="path-effect1085"
   is_visible="true"
   lpeversion="1" /><inkscape:path-effect
   effect="spiro"
   id="path-effect1286"
   is_visible="true"
   lpeversion="1" /></defs>
 
<path
   id="path847-3"
   style="clip-rule:evenodd;fill:#a51d2d;fill-rule:nonzero;stroke:none;stroke-width:1.05244px;stroke-linecap:butt;stroke-linejoin:miter;stroke-opacity:1;image-rendering:optimizeQuality;shape-rendering:geometricPrecision;text-rendering:geometricPrecision"
   inkscape:path-effect="#path-effect883;#path-effect854"
   inkscape:original-d="M 711.37247,776.76698 559.32124,797.6812 c 0,0 3.96525,-121.25146 10.54145,-181.49331 5.43075,-49.74877 22.5956,-98.19958 23.83724,-148.22848 1.01852,-41.03898 1.32523,-84.13096 -13.49799,-122.4129 -5.58507,-14.42381 -12.77412,-32.21104 -27.30173,-37.52025 -24.17343,-8.83435 -54.69572,2.58674 -74.98008,18.42799 -47.49103,37.08856 -63.01268,103.52643 -84.39698,159.86178 -15.42095,40.62535 -30.96559,126.62999 -30.96559,126.62999 L 347.39038,446.89426 c 0,0 33.91385,-125.45275 76.8754,-170.72376 37.05581,-39.04779 92.79547,-91.76182 143.58466,-73.92028 78.15468,27.45466 84.51685,148.35475 101.26959,226.93983 22.37932,104.9787 -17.19126,202.78119 11.70268,297.84563 5.65763,18.61424 40.18227,32.82823 30.54976,49.7313 z M 430.08472,771.67399 291.7233,800 c 0,0 23.92678,-100.82185 29.77091,-152.17797 6.84559,-60.15661 11.3351,-121.21763 6.07003,-181.53313 -3.32369,-38.07545 -5.44636,-78.58159 -23.62935,-112.19953 -7.11294,-13.15089 -17.03062,-28.73835 -31.67351,-31.75918 -28.16578,-5.81062 -60.15938,11.29292 -80.12673,31.99024 -45.02822,46.67436 -56.24484,118.99157 -65.60934,183.16589 -8.67414,59.44332 5.7815,120.01308 9.75543,179.95435 1.39034,20.97135 4.92835,62.85925 4.92835,62.85925 L 0.893754,799.9826 c 0,0 16.701491,-42.76758 20.317569,-65.22684 C 31.40532,671.44141 49.010604,599.28916 50.687408,530.52844 52.581936,452.83949 45.625119,374.27427 28.670839,298.43421 20.992243,264.08624 0.01437939,229.95165 0.01437939,229.95165 L 117.9464,199.07909 114.4045,483.28633 83.204804,481.88985 c 0,0 26.563346,-119.47458 61.029166,-168.12086 34.78127,-49.09153 80.45945,-125.19575 139.63969,-114.35995 73.90289,13.53149 96.38751,125.83492 112.4658,195.33073 10.44579,45.15023 -1.63626,92.68823 -0.91608,139.02546 0.61711,39.70533 -1.17802,79.74186 4.4867,119.04587 5.83128,40.45966 30.17464,118.86289 30.17464,118.86289 z"
   d="m 695.48908,778.9517 -120.28445,16.54478 c -8.77215,1.20659 -16.19839,-4.98723 -16.41278,-13.83927 -1.34024,-55.33984 2.36777,-110.80151 11.07084,-165.46932 7.87119,-49.44243 19.82519,-98.32444 23.83724,-148.22848 3.31648,-41.25217 1.00043,-83.65033 -13.49799,-122.4129 -2.76685,-7.39737 -5.98901,-14.67527 -10.38919,-21.23384 -4.40019,-6.55857 -10.03643,-12.4011 -16.91254,-16.28641 -5.9886,-3.38383 -12.8069,-5.21015 -19.67435,-5.59968 -6.86745,-0.38953 -13.78231,0.63556 -20.34768,2.68727 -13.13075,4.10341 -24.68519,12.19037 -34.95805,21.3404 -22.81149,20.31818 -40.17062,46.20464 -53.4175,73.73122 -13.24688,27.52659 -22.54725,56.76919 -30.97948,86.13056 -11.99772,41.77653 -22.3305,84.03118 -30.96559,126.62999 L 347.39038,446.89426 c 11.40614,-61.97918 38.02819,-121.10105 76.8754,-170.72376 17.45174,-22.29253 37.63933,-42.93309 62.10317,-57.18232 24.46384,-14.24924 53.61197,-21.71892 81.48149,-16.73796 22.51824,4.02456 43.26037,16.03405 59.26899,32.37395 16.00862,16.33991 27.42406,36.85321 34.61094,58.56995 14.37376,43.4335 12.04292,90.48307 7.38966,135.99593 -5.1202,50.0799 -12.86612,99.9923 -13.95921,150.32139 -1.09309,50.3291 4.76946,101.72337 25.66189,147.52424 5.87656,12.88274 12.90809,25.23795 20.97676,36.87381 5.04477,7.27509 2.46176,13.83562 -6.31039,15.04221 z m -281.11151,-4.06207 -106.94712,21.89473 c -8.67482,1.77595 -13.77424,-3.69799 -11.54323,-12.26697 11.68966,-44.89825 20.25403,-90.6101 25.60699,-136.69536 6.99261,-60.20149 8.50221,-120.97572 6.07003,-181.53313 -1.54813,-38.54597 -5.07445,-78.37788 -23.62935,-112.19953 -3.66753,-6.68512 -7.91605,-13.09562 -13.14344,-18.64684 -5.22738,-5.55123 -11.46886,-10.23468 -18.53007,-13.11234 -7.12397,-2.90324 -14.96364,-3.90887 -22.63101,-3.28347 -7.66737,0.62541 -15.16436,2.85452 -22.10617,6.16978 -13.88362,6.63053 -25.36613,17.43132 -35.38955,29.10393 -43.01321,50.0903 -61.75127,117.25466 -65.60934,183.16589 -3.51411,60.03494 4.26094,120.06818 9.75543,179.95435 1.43203,15.60813 2.70983,31.23041 3.83316,46.86379 0.63462,8.83196 -6.0134,16.99262 -14.7823,18.22267 L 16.77124,797.75539 C 8.0023464,798.98544 3.3505657,793.23691 6.1843535,784.84803 11.7645,768.3291 16.777563,751.61859 21.211323,734.75576 38.732606,668.1174 47.141184,599.34043 50.687408,530.52844 54.709005,452.49216 52.329278,372.90643 28.670839,298.43421 22.786901,279.9127 15.611003,261.80189 7.2157191,244.27521 3.3907204,236.28983 6.9585683,228.13378 15.524659,225.89133 l 86.911461,-22.75192 a 12.217394,12.217394 38.022079 0 1 15.31049,11.97137 L 114.4045,483.28633 83.204804,481.88985 C 97.656492,423.939 118.14584,367.49572 144.23397,313.76899 c 13.99606,-28.82393 29.95942,-57.34417 53.10892,-79.49837 11.57475,-11.0771 24.89429,-20.4466 39.63306,-26.72718 14.73878,-6.28057 30.92748,-9.4107 46.89771,-8.1344 20.63178,1.64884 40.35747,10.66161 56.20605,23.97369 15.84858,13.31208 27.93659,30.76918 36.37495,49.66846 16.87672,37.79858 19.24613,80.29839 19.8848,121.68858 0.71503,46.339 -0.4169,92.68363 -0.91608,139.02546 -0.42805,39.73873 -0.38376,79.60441 4.4867,119.04587 4.36802,35.37263 12.62399,70.26308 24.55853,103.84653 2.96492,8.34318 -1.41622,16.45605 -10.09104,18.232 z"
   sodipodi:nodetypes="ccaaaaaaccaasacccaaaaaaaccsssccccaasaac" /></svg>
