<?xml version="1.0" encoding="UTF-8" standalone="no"?>
<svg
   xmlns:dc="http://purl.org/dc/elements/1.1/"
   xmlns:cc="http://creativecommons.org/ns#"
   xmlns:rdf="http://www.w3.org/1999/02/22-rdf-syntax-ns#"
   xmlns:svg="http://www.w3.org/2000/svg"
   xmlns="http://www.w3.org/2000/svg"
   xmlns:sodipodi="http://sodipodi.sourceforge.net/DTD/sodipodi-0.dtd"
   xmlns:inkscape="http://www.inkscape.org/namespaces/inkscape"
   xml:space="preserve"
   width="1000"
   height="1000"
   version="1.1"
   style="clip-rule:evenodd;fill-rule:evenodd;image-rendering:optimizeQuality;shape-rendering:geometricPrecision;text-rendering:geometricPrecision"
   viewBox="0 0 1000 1000"
   id="svg10"
   sodipodi:docname="OE_capital.svg"
   inkscape:version="1.0.2 (e86c870879, 2021-01-15)"><metadata
   id="metadata14"><rdf:RDF><cc:Work
       rdf:about=""><dc:format>image/svg+xml</dc:format><dc:type
         rdf:resource="http://purl.org/dc/dcmitype/StillImage" /><dc:title /></cc:Work></rdf:RDF></metadata><sodipodi:namedview
   pagecolor="#ffffff"
   bordercolor="#666666"
   borderopacity="1"
   objecttolerance="10"
   gridtolerance="10"
   guidetolerance="10"
   inkscape:pageopacity="0"
   inkscape:pageshadow="2"
   inkscape:window-width="1920"
   inkscape:window-height="1007"
   id="namedview12"
   showgrid="false"
   inkscape:zoom="0.42445442"
   inkscape:cx="214.10638"
   inkscape:cy="312.37405"
   inkscape:window-x="1920"
   inkscape:window-y="0"
   inkscape:window-maximized="1"
   inkscape:current-layer="svg10"
   showguides="true"
   inkscape:guide-bbox="true"
   inkscape:document-rotation="0"><sodipodi:guide
   position="0,1000"
   orientation="0,1"
   id="guide16"
   inkscape:label=""
   inkscape:locked="true"
   inkscape:color="rgb(0,0,255)" /><sodipodi:guide
   position="1763.3122,2036.1693"
   orientation="1000,0"
   id="guide18" /><sodipodi:guide
   position="0,200"
   orientation="0,1"
   id="guide20"
   inkscape:label="base"
   inkscape:locked="true"
   inkscape:color="rgb(0,0,255)" /><inkscape:grid
   type="xygrid"
   id="grid24"
   originx="-473.37552"
   originy="-489.69235" /><sodipodi:guide
   position="0,0"
   orientation="0,1"
   id="guide34"
   inkscape:label="bottom"
   inkscape:locked="true"
   inkscape:color="rgb(0,0,255)" /><sodipodi:guide
   position="225.05109,1693.3186"
   orientation="0,1"
   id="guide44"
   inkscape:label=""
   inkscape:locked="false"
   inkscape:color="rgb(0,0,255)" /><sodipodi:guide
   position="0,900"
   orientation="0,1"
   id="guide46"
   inkscape:label=""
   inkscape:locked="true"
   inkscape:color="rgb(0,0,255)" /><sodipodi:guide
   position="957.66549,550.60676"
   orientation="1,0"
   id="guide841"
   inkscape:label="width" />    </sodipodi:namedview>
 <defs
   id="defs4"><inkscape:path-effect
   effect="spiro"
   id="path-effect856"
   is_visible="true"
   lpeversion="1" /><inkscape:path-effect
   effect="spiro"
   id="path-effect137"
   is_visible="true"
   lpeversion="1" /><inkscape:path-effect
   effect="spiro"
   id="path-effect133"
   is_visible="true"
   lpeversion="1" /><inkscape:path-effect
   effect="spiro"
   id="path-effect114"
   is_visible="true"
   lpeversion="1" /><inkscape:path-effect
   effect="spiro"
   id="path-effect853"
   is_visible="true"
   lpeversion="1" /><inkscape:path-effect
   effect="spiro"
   id="path-effect928"
   is_visible="true"
   lpeversion="1" /><inkscape:path-effect
   effect="spiro"
   id="path-effect921"
   is_visible="true"
   lpeversion="1" /><inkscape:path-effect
   effect="spiro"
   id="path-effect917"
   is_visible="true"
   lpeversion="1" /><inkscape:path-effect
   effect="spiro"
   id="path-effect849"
   is_visible="true"
   lpeversion="1" /><inkscape:path-effect
   effect="spiro"
   id="path-effect851"
   is_visible="true"
   lpeversion="1" />
  <style
   type="text/css"
   id="style2">
   <![CDATA[
    .fil0 {fill:#EF7F1A;fill-rule:nonzero}
   ]]>
  </style>
 <inkscape:path-effect
   effect="spiro"
   id="path-effect1214"
   is_visible="true"
   lpeversion="1" /><inkscape:path-effect
   effect="spiro"
   id="path-effect1195"
   is_visible="true"
   lpeversion="1" /><inkscape:path-effect
   effect="spiro"
   id="path-effect992"
   is_visible="true"
   lpeversion="1" /><inkscape:path-effect
   effect="spiro"
   id="path-effect1060"
   is_visible="true"
   lpeversion="1" /><inkscape:path-effect
   effect="spiro"
   id="path-effect1047"
   is_visible="true"
   lpeversion="1" /><inkscape:path-effect
   effect="spiro"
   id="path-effect1085"
   is_visible="true"
   lpeversion="1" /><inkscape:path-effect
   effect="spiro"
   id="path-effect1286"
   is_visible="true"
   lpeversion="1" /><inkscape:path-effect
   effect="spiro"
   id="path-effect117"
   is_visible="true"
   lpeversion="1" /><style
   type="text/css"
   id="style2-0">
   <![CDATA[
    .fil0 {fill:#EF7F1A;fill-rule:nonzero}
   ]]>
  </style></defs>
 
<g
   style="clip-rule:evenodd;fill-rule:nonzero;stroke:none;image-rendering:optimizeQuality;shape-rendering:geometricPrecision;text-rendering:geometricPrecision"
   id="g882"
   transform="translate(490)"><path
     id="path847"
     style="fill:#2d2d2d;fill-rule:nonzero;stroke:none;stroke-width:1.14281px;stroke-linecap:butt;stroke-linejoin:miter;stroke-opacity:1"
     inkscape:path-effect="#path-effect849"
     inkscape:original-d="M 0.03614317,0 H 477.99832 l -0.39003,149.62149 c 0,0 -68.20106,-37.01243 -105.05915,-48.27142 C 328.67849,87.948964 282.57643,80.941029 236.74068,79.122225 197.19923,77.553185 118.43081,88.954064 118.43081,88.954064 L 118.07979,348.4157 c 0,0 43.2097,2.36399 64.65379,0.21613 56.26309,-5.63536 166.15062,-34.19944 166.15062,-34.19944 l -2.53039,177.45552 c 0,0 -105.25646,-35.13592 -159.9867,-41.33081 -21.52779,-2.43672 -64.9714,1.78014 -64.9714,1.78014 l -1.8905,240.33675 c 0,0 77.50683,20.55178 117.23454,21.77501 31.36595,0.96577 63.01791,-3.77414 93.44172,-11.46485 51.16383,-12.93349 147.42682,-57.71003 147.42682,-57.71003 l 0.39003,154.6959 H 0.03614317 c 0,0 37.37316083,-267.59271 37.30259483,-402.252 C 37.268963,264.56353 0.03614317,0 0.03614317,0 Z M 37.86381,399.34343 C 36.27144,526.08611 -75.53053,690.99728 -194.31946,687.88357 -307.6814,684.91211 -403.9254,522.20774 -402.94957,401.24903 c 1.00672,-124.78845 102.98859,-291.39507 219.97467,-291.7146 116.70416,-0.31876 222.40267,165.32785 220.83871,289.809 z M -183.12422,0 c -159.72176,0.43384852 -294.38572,231.78689 -295.75185,402.16134 -1.32476,165.21459 125.66053,391.12073 280.49931,395.15789 C -36.31998,801.54458 111.62726,572.44146 113.78932,399.53425 115.91418,229.60052 -23.80727,-0.43274893 -183.12422,0 Z"
     d="M 0.03614317,0 H 477.99832 l -0.39003,149.62149 C 444.8,129.20642 409.4097,112.94568 372.54914,101.35007 328.65046,87.540409 282.74333,80.370004 236.74068,79.122225 197.10273,78.047082 157.34756,81.350834 118.43081,88.954064 L 118.07979,348.4157 c 21.52398,1.29631 43.12162,1.3685 64.65379,0.21613 56.67477,-3.03316 112.88511,-14.60316 166.15062,-34.19944 l -2.53039,177.45552 c -49.83066,-24.33198 -104.60595,-38.48257 -159.9867,-41.33081 -21.65906,-1.11393 -43.40583,-0.51809 -64.9714,1.78014 l -1.8905,240.33675 c 37.32946,14.2752 77.26876,21.69348 117.23454,21.77501 31.44996,0.0642 62.80135,-4.37459 93.44172,-11.46485 51.59701,-11.93968 101.43587,-31.44904 147.42682,-57.71003 l 0.39003,154.6959 H 0.03614317 C 24.973337,667.43995 37.480074,532.57373 37.338738,397.71802 37.198986,264.37364 24.693866,131.04481 0.03614317,0 Z M 37.86381,399.34343 c -0.390489,69.12426 -16.13732,139.90592 -56.197433,196.23978 -20.030056,28.16692 -45.980116,52.32274 -76.330561,68.85844 -30.350446,16.5357 -65.141636,25.2825 -99.655276,23.44192 -32.57101,-1.73698 -64.40183,-12.85697 -91.79964,-30.55577 -27.39781,-17.69881 -50.41105,-41.84732 -68.0498,-69.28383 -35.27751,-54.87301 -48.59861,-121.56061 -48.78067,-186.79494 -0.18903,-67.72918 13.83302,-137.14462 51.33091,-193.54662 18.74894,-28.20099 43.23437,-52.77411 72.22999,-70.26906 28.99561,-17.49496 62.54934,-27.7598 96.41377,-27.89892 33.82137,-0.13894 67.41945,9.82534 96.518503,27.06337 29.099054,17.23803 53.743302,41.59879 72.64252,69.64739 37.798435,56.09721 52.059804,125.456 51.677687,193.09824 z M -183.12422,0 c -46.28056,0.19599048 -92.09147,14.64477 -131.40191,39.070538 -39.31043,24.425768 -72.20304,58.598945 -97.15497,97.577522 -49.90388,77.95714 -67.41655,172.9516 -67.19497,265.51328 0.21353,89.2005 16.84011,180.52604 63.78967,256.37137 23.47478,37.92266 54.39431,71.48716 91.54807,96.16087 37.15376,24.67371 80.6239,40.26129 125.16157,42.62565 47.13274,2.50212 94.62,-9.88093 135.764124,-33.0092 C -21.468513,741.18176 13.404519,707.56332 40.08053,668.62559 93.432553,590.75015 113.23269,493.93083 113.78932,399.53425 114.33443,307.09234 96.507785,212.1634 46.182094,134.61903 21.019248,95.846842 -12.101532,61.965424 -51.562835,37.897671 -91.024138,13.829919 -136.90287,-0.19573974 -183.12422,0 Z" /></g></svg>
