<?xml version="1.0" encoding="UTF-8" standalone="no"?>
<svg
   xmlns:dc="http://purl.org/dc/elements/1.1/"
   xmlns:cc="http://creativecommons.org/ns#"
   xmlns:rdf="http://www.w3.org/1999/02/22-rdf-syntax-ns#"
   xmlns:svg="http://www.w3.org/2000/svg"
   xmlns="http://www.w3.org/2000/svg"
   xmlns:sodipodi="http://sodipodi.sourceforge.net/DTD/sodipodi-0.dtd"
   xmlns:inkscape="http://www.inkscape.org/namespaces/inkscape"
   xml:space="preserve"
   width="1000"
   height="1000"
   version="1.1"
   style="clip-rule:evenodd;fill-rule:evenodd;image-rendering:optimizeQuality;shape-rendering:geometricPrecision;text-rendering:geometricPrecision"
   viewBox="0 0 1000 1000"
   id="svg10"
   sodipodi:docname="oslash.svg"
   inkscape:version="1.0.2 (e86c870879, 2021-01-15)"><metadata
   id="metadata14"><rdf:RDF><cc:Work
       rdf:about=""><dc:format>image/svg+xml</dc:format><dc:type
         rdf:resource="http://purl.org/dc/dcmitype/StillImage" /><dc:title /></cc:Work></rdf:RDF></metadata><sodipodi:namedview
   pagecolor="#ffffff"
   bordercolor="#666666"
   borderopacity="1"
   objecttolerance="10"
   gridtolerance="10"
   guidetolerance="10"
   inkscape:pageopacity="0"
   inkscape:pageshadow="2"
   inkscape:window-width="1920"
   inkscape:window-height="1007"
   id="namedview12"
   showgrid="false"
   inkscape:zoom="0.84890884"
   inkscape:cx="176.68447"
   inkscape:cy="568.6393"
   inkscape:window-x="1920"
   inkscape:window-y="0"
   inkscape:window-maximized="1"
   inkscape:current-layer="svg10"
   showguides="true"
   inkscape:guide-bbox="true"
   inkscape:document-rotation="0"><sodipodi:guide
   position="0,1000"
   orientation="0,1"
   id="guide16"
   inkscape:label=""
   inkscape:locked="true"
   inkscape:color="rgb(0,0,255)" /><sodipodi:guide
   position="1763.3122,2036.1693"
   orientation="1000,0"
   id="guide18" /><sodipodi:guide
   position="0,200"
   orientation="0,1"
   id="guide20"
   inkscape:label="base"
   inkscape:locked="true"
   inkscape:color="rgb(0,0,255)" /><inkscape:grid
   type="xygrid"
   id="grid24"
   originx="-473.37552"
   originy="-489.69235" /><sodipodi:guide
   position="0,0"
   orientation="0,1"
   id="guide34"
   inkscape:label="bottom"
   inkscape:locked="true"
   inkscape:color="rgb(0,0,255)" /><sodipodi:guide
   position="225.05109,1693.3186"
   orientation="0,1"
   id="guide44"
   inkscape:label=""
   inkscape:locked="false"
   inkscape:color="rgb(0,0,255)" /><sodipodi:guide
   position="0,900"
   orientation="0,1"
   id="guide46"
   inkscape:label=""
   inkscape:locked="true"
   inkscape:color="rgb(0,0,255)" /><sodipodi:guide
   position="523.12559,545.57056"
   orientation="1,0"
   id="guide841"
   inkscape:label="width" />    <sodipodi:guide
   position="-210.85892,799.74293"
   orientation="0,-1"
   id="guide856" /></sodipodi:namedview>
 <defs
   id="defs4"><inkscape:path-effect
   effect="spiro"
   id="path-effect859"
   is_visible="true"
   lpeversion="1" /><inkscape:path-effect
   effect="spiro"
   id="path-effect137"
   is_visible="true"
   lpeversion="1" /><inkscape:path-effect
   effect="spiro"
   id="path-effect133"
   is_visible="true"
   lpeversion="1" /><inkscape:path-effect
   effect="spiro"
   id="path-effect114"
   is_visible="true"
   lpeversion="1" /><inkscape:path-effect
   effect="spiro"
   id="path-effect853"
   is_visible="true"
   lpeversion="1" /><inkscape:path-effect
   effect="spiro"
   id="path-effect928"
   is_visible="true"
   lpeversion="1" /><inkscape:path-effect
   effect="spiro"
   id="path-effect921"
   is_visible="true"
   lpeversion="1" /><inkscape:path-effect
   effect="spiro"
   id="path-effect917"
   is_visible="true"
   lpeversion="1" /><inkscape:path-effect
   effect="spiro"
   id="path-effect849"
   is_visible="true"
   lpeversion="1" /><inkscape:path-effect
   effect="spiro"
   id="path-effect851"
   is_visible="true"
   lpeversion="1" />
  <style
   type="text/css"
   id="style2">
   <![CDATA[
    .fil0 {fill:#EF7F1A;fill-rule:nonzero}
   ]]>
  </style>
 <inkscape:path-effect
   effect="spiro"
   id="path-effect1214"
   is_visible="true"
   lpeversion="1" /><inkscape:path-effect
   effect="spiro"
   id="path-effect1195"
   is_visible="true"
   lpeversion="1" /><inkscape:path-effect
   effect="spiro"
   id="path-effect992"
   is_visible="true"
   lpeversion="1" /><inkscape:path-effect
   effect="spiro"
   id="path-effect1060"
   is_visible="true"
   lpeversion="1" /><inkscape:path-effect
   effect="spiro"
   id="path-effect1047"
   is_visible="true"
   lpeversion="1" /><inkscape:path-effect
   effect="spiro"
   id="path-effect1085"
   is_visible="true"
   lpeversion="1" /><inkscape:path-effect
   effect="spiro"
   id="path-effect1286"
   is_visible="true"
   lpeversion="1" /><inkscape:path-effect
   effect="spiro"
   id="path-effect117"
   is_visible="true"
   lpeversion="1" /></defs>
 
<path
   id="path857"
   style="fill:#2d2d2d;fill-rule:nonzero;stroke:none;stroke-width:1px;stroke-linecap:butt;stroke-linejoin:miter;stroke-opacity:1"
   d="M 264.08789 200.25781 C 227.47923 200.37975 191.0519 209.86539 158.57031 226.75195 C 126.08873 243.63851 97.550021 267.83671 74.798828 296.51758 C 29.296442 353.87932 7.8257394 428.24017 8.1835938 501.45703 C 8.4945506 565.07867 25.234927 629.38845 60.105469 682.39453 C 40.139431 703.15614 19.705814 723.4681 -1.1777344 743.30664 L 100.12891 800 C 108.44427 783.67128 116.99307 767.46179 125.76367 751.37305 C 162.38807 777.98878 205.78698 794.97555 250.89062 797.41016 C 288.33551 799.43136 326.14746 791.60784 360.1543 775.80469 C 394.16113 760.00153 424.35648 736.3168 448.5918 707.70117 C 497.06243 650.46992 520.68421 574.48642 520.99609 499.48828 C 521.28489 430.04119 501.63241 359.60934 460.43945 303.85742 C 480.89037 283.39466 501.78717 263.37807 523.125 243.8418 L 398.1582 200.25781 C 392.8181 211.11588 387.3696 221.91918 381.82422 232.67383 C 377.82781 230.33478 373.76581 228.1052 369.64062 225.99609 C 337.08875 209.35309 300.64742 200.13604 264.08789 200.25781 z M 264.2168 282.29297 C 292.02589 282.20587 319.43292 289.43777 344.16602 302.15625 C 308.30343 365.17736 268.86563 426.16352 226.08984 484.71289 C 189.8321 534.34069 151.17467 582.21398 110.3125 628.125 C 86.150902 590.6167 74.12121 545.51905 73.880859 500.77344 C 73.592544 447.09824 90.315824 392.72049 124.41992 351.27148 C 158.52402 309.82248 210.54109 282.46108 264.2168 282.29297 z M 409.44531 356.82617 C 440.24882 397.13189 455.49278 448.53113 455.30078 499.3457 C 455.09288 554.36904 436.74549 609.95637 400.43555 651.29883 C 364.12561 692.64129 309.34406 718.41437 254.40039 715.44727 C 222.15748 713.70606 190.98238 702.17841 164.30469 683.89062 C 198.20418 627.17565 234.96454 572.17127 274.41602 519.16797 C 316.46253 462.67822 361.56664 408.46555 409.44531 356.82617 z " /></svg>
