<?xml version="1.0" encoding="UTF-8"?>
<!DOCTYPE svg PUBLIC "-//W3C//DTD SVG 1.1//EN" "http://www.w3.org/Graphics/SVG/1.1/DTD/svg11.dtd">
<!-- Creator: CorelDRAW X8 -->
<svg xmlns="http://www.w3.org/2000/svg" xml:space="preserve" width="1123px" height="1024px" version="1.1" style="shape-rendering:geometricPrecision; text-rendering:geometricPrecision; image-rendering:optimizeQuality; fill-rule:evenodd; clip-rule:evenodd"
viewBox="0 0 1123 1024"
 xmlns:xlink="http://www.w3.org/1999/xlink">
 <defs>
  <style type="text/css">
   <![CDATA[
    .fil0 {fill:#EF7F1A;fill-rule:nonzero}
   ]]>
  </style>
 </defs>
 <g id="Layer_x0020_1">
  <metadata id="CorelCorpID_0Corel-Layer"/>
  <path class="fil0" d="M562 1024c306,0 561,-191 561,-512 0,-184 -85,-341 -247,-433l16 -28c2,-4 3,-8 3,-11 0,-29 -54,-39 -78,-39 -26,0 -57,6 -71,24 -60,-17 -122,-25 -184,-25 -307,0 -562,191 -562,512 0,184 85,341 247,433l-16 28c-2,4 -3,8 -3,11 0,29 54,39 78,39 26,0 57,-6 71,-24 60,17 122,25 185,25zm-256 -188c-94,-82 -137,-202 -137,-324 0,-231 154,-417 393,-417 45,0 90,7 134,22l-390 719zm256 93c-46,0 -91,-7 -135,-22l390 -719c94,82 137,202 137,324 0,231 -154,417 -392,417z"/>
 </g>
</svg>
