<?xml version="1.0" encoding="UTF-8" standalone="no"?>
<svg
   xmlns:dc="http://purl.org/dc/elements/1.1/"
   xmlns:cc="http://creativecommons.org/ns#"
   xmlns:rdf="http://www.w3.org/1999/02/22-rdf-syntax-ns#"
   xmlns:svg="http://www.w3.org/2000/svg"
   xmlns="http://www.w3.org/2000/svg"
   xmlns:sodipodi="http://sodipodi.sourceforge.net/DTD/sodipodi-0.dtd"
   xmlns:inkscape="http://www.inkscape.org/namespaces/inkscape"
   xml:space="preserve"
   width="1000"
   height="1000"
   version="1.1"
   style="clip-rule:evenodd;fill-rule:evenodd;image-rendering:optimizeQuality;shape-rendering:geometricPrecision;text-rendering:geometricPrecision"
   viewBox="0 0 1000 1000"
   id="svg10"
   sodipodi:docname="Oslash.svg"
   inkscape:version="1.0.2 (e86c870879, 2021-01-15)"><metadata
   id="metadata14"><rdf:RDF><cc:Work
       rdf:about=""><dc:format>image/svg+xml</dc:format><dc:type
         rdf:resource="http://purl.org/dc/dcmitype/StillImage" /><dc:title /></cc:Work></rdf:RDF></metadata><sodipodi:namedview
   pagecolor="#ffffff"
   bordercolor="#666666"
   borderopacity="1"
   objecttolerance="10"
   gridtolerance="10"
   guidetolerance="10"
   inkscape:pageopacity="0"
   inkscape:pageshadow="2"
   inkscape:window-width="1920"
   inkscape:window-height="1007"
   id="namedview12"
   showgrid="false"
   inkscape:zoom="0.84890884"
   inkscape:cx="750.36208"
   inkscape:cy="408.43364"
   inkscape:window-x="1920"
   inkscape:window-y="0"
   inkscape:window-maximized="1"
   inkscape:current-layer="svg10"
   showguides="true"
   inkscape:guide-bbox="true"
   inkscape:document-rotation="0"><sodipodi:guide
   position="0,1000"
   orientation="0,1"
   id="guide16"
   inkscape:label=""
   inkscape:locked="true"
   inkscape:color="rgb(0,0,255)" /><sodipodi:guide
   position="1763.3122,2036.1693"
   orientation="1000,0"
   id="guide18" /><sodipodi:guide
   position="0,200"
   orientation="0,1"
   id="guide20"
   inkscape:label="base"
   inkscape:locked="true"
   inkscape:color="rgb(0,0,255)" /><inkscape:grid
   type="xygrid"
   id="grid24"
   originx="-473.37552"
   originy="-489.69235" /><sodipodi:guide
   position="0,0"
   orientation="0,1"
   id="guide34"
   inkscape:label="bottom"
   inkscape:locked="true"
   inkscape:color="rgb(0,0,255)" /><sodipodi:guide
   position="225.05109,1693.3186"
   orientation="0,1"
   id="guide44"
   inkscape:label=""
   inkscape:locked="false"
   inkscape:color="rgb(0,0,255)" /><sodipodi:guide
   position="0,900"
   orientation="0,1"
   id="guide46"
   inkscape:label=""
   inkscape:locked="true"
   inkscape:color="rgb(0,0,255)" /><sodipodi:guide
   position="638.03816,545.52505"
   orientation="1,0"
   id="guide841"
   inkscape:label="width" />    </sodipodi:namedview>
 <defs
   id="defs4"><inkscape:path-effect
   effect="spiro"
   id="path-effect858"
   is_visible="true"
   lpeversion="1" /><inkscape:path-effect
   effect="spiro"
   id="path-effect137"
   is_visible="true"
   lpeversion="1" /><inkscape:path-effect
   effect="spiro"
   id="path-effect133"
   is_visible="true"
   lpeversion="1" /><inkscape:path-effect
   effect="spiro"
   id="path-effect114"
   is_visible="true"
   lpeversion="1" /><inkscape:path-effect
   effect="spiro"
   id="path-effect853"
   is_visible="true"
   lpeversion="1" /><inkscape:path-effect
   effect="spiro"
   id="path-effect928"
   is_visible="true"
   lpeversion="1" /><inkscape:path-effect
   effect="spiro"
   id="path-effect921"
   is_visible="true"
   lpeversion="1" /><inkscape:path-effect
   effect="spiro"
   id="path-effect917"
   is_visible="true"
   lpeversion="1" /><inkscape:path-effect
   effect="spiro"
   id="path-effect849"
   is_visible="true"
   lpeversion="1" /><inkscape:path-effect
   effect="spiro"
   id="path-effect851"
   is_visible="true"
   lpeversion="1" />
  <style
   type="text/css"
   id="style2">
   <![CDATA[
    .fil0 {fill:#EF7F1A;fill-rule:nonzero}
   ]]>
  </style>
 <inkscape:path-effect
   effect="spiro"
   id="path-effect1214"
   is_visible="true"
   lpeversion="1" /><inkscape:path-effect
   effect="spiro"
   id="path-effect1195"
   is_visible="true"
   lpeversion="1" /><inkscape:path-effect
   effect="spiro"
   id="path-effect992"
   is_visible="true"
   lpeversion="1" /><inkscape:path-effect
   effect="spiro"
   id="path-effect1060"
   is_visible="true"
   lpeversion="1" /><inkscape:path-effect
   effect="spiro"
   id="path-effect1047"
   is_visible="true"
   lpeversion="1" /><inkscape:path-effect
   effect="spiro"
   id="path-effect1085"
   is_visible="true"
   lpeversion="1" /><inkscape:path-effect
   effect="spiro"
   id="path-effect1286"
   is_visible="true"
   lpeversion="1" /><inkscape:path-effect
   effect="spiro"
   id="path-effect117"
   is_visible="true"
   lpeversion="1" /></defs>
 
<path
   id="path135"
   style="fill:#2d2d2d;fill-rule:nonzero;stroke:none;stroke-width:1.14743px;stroke-linecap:butt;stroke-linejoin:miter;stroke-opacity:1"
   d="m 554.36694,399.34343 c -0.34473,71.02904 -19.96019,143.36534 -63.70512,199.22218 -21.87245,27.92842 -49.56869,51.41996 -81.25141,67.27591 -31.68271,15.85595 -67.36423,23.95009 -102.72052,22.04205 -33.24771,-1.79426 -65.84873,-12.39578 -94.42605,-29.53411 C 183.68652,641.21114 159.11083,617.63242 139.81829,590.41319 101.2332,535.97474 84.399922,468.04229 84.137715,401.24903 83.865062,331.79705 101.5684,260.943 142.5867,204.9884 c 20.50918,-27.9773 46.66745,-51.92983 76.93127,-68.79532 30.26381,-16.86548 64.6526,-26.53009 99.27351,-26.65865 34.57628,-0.1284 68.99406,9.25681 99.34239,25.87556 30.34835,16.61876 56.64416,40.35836 77.29415,68.17547 41.29994,55.63422 59.27557,126.3958 58.93892,195.75797 z M 318.6322,0 C 271.35882,0.18318883 224.44443,13.818018 183.43016,37.39756 142.41589,60.977114 107.26145,94.325272 79.932398,133.01606 25.274311,210.39762 2.813691,307.32741 3.14458,402.16134 c 0.318401,91.25491 21.670654,184.25943 73.08918,259.54298 25.70928,37.64178 58.74174,70.44738 97.47963,94.3668 38.73791,23.91941 83.22419,38.80332 128.64845,41.24811 48.24103,2.59641 96.90716,-8.89998 139.84229,-31.11381 42.93514,-22.21382 80.16957,-54.9496 109.33315,-93.58125 58.32718,-77.2633 83.32154,-176.17699 83.82174,-273.08992 C 635.84787,304.82201 613.02962,207.9986 557.97323,131.0505 530.44504,92.576457 495.08969,59.521912 453.9488,36.288395 412.80791,13.054878 365.84524,-0.18295899 318.6322,0 Z"
   sodipodi:nodetypes="ssssssssssssssssssssssssss" /><path
   id="path856"
   style="fill:#2d2d2d;stroke:none;stroke-width:1px;stroke-linecap:butt;stroke-linejoin:miter;stroke-opacity:1;fill-rule:nonzero"
   inkscape:path-effect="#path-effect858"
   inkscape:original-d="m 502.99865,0 135.03951,71.85695 c 0,0 -206.12487,217.32999 -292.23771,339.23301 C 259.66551,533.02429 123.68819,800 123.68819,800 L -1.1779828,718.5695 c 0,0 197.0329628,-224.40812 282.4803528,-346.49219 C 364.0871,253.79753 502.99865,0 502.99865,0 Z"
   d="M 502.99865,0 638.03816,71.85695 C 530.06001,175.22606 432.04746,289.00021 345.80045,411.08996 259.53123,533.21116 185.03756,663.64671 123.68819,800 L -1.1779828,718.5695 C 101.40963,610.29827 195.91805,494.37365 281.30237,372.07731 364.02131,253.59862 438.17662,129.14228 502.99865,0 Z" /></svg>
