<?xml version="1.0" encoding="UTF-8" standalone="no"?>
<svg
   xmlns:dc="http://purl.org/dc/elements/1.1/"
   xmlns:cc="http://creativecommons.org/ns#"
   xmlns:rdf="http://www.w3.org/1999/02/22-rdf-syntax-ns#"
   xmlns:svg="http://www.w3.org/2000/svg"
   xmlns="http://www.w3.org/2000/svg"
   xmlns:sodipodi="http://sodipodi.sourceforge.net/DTD/sodipodi-0.dtd"
   xmlns:inkscape="http://www.inkscape.org/namespaces/inkscape"
   xml:space="preserve"
   width="1000"
   height="1000"
   version="1.1"
   style="clip-rule:evenodd;fill-rule:evenodd;image-rendering:optimizeQuality;shape-rendering:geometricPrecision;text-rendering:geometricPrecision"
   viewBox="0 0 1000 1000"
   id="svg10"
   sodipodi:docname="p.svg"
   inkscape:version="1.0.2 (e86c870879, 2021-01-15)"><metadata
   id="metadata14"><rdf:RDF><cc:Work
       rdf:about=""><dc:format>image/svg+xml</dc:format><dc:type
         rdf:resource="http://purl.org/dc/dcmitype/StillImage" /><dc:title /></cc:Work></rdf:RDF></metadata><sodipodi:namedview
   pagecolor="#ffffff"
   bordercolor="#666666"
   borderopacity="1"
   objecttolerance="10"
   gridtolerance="10"
   guidetolerance="10"
   inkscape:pageopacity="0"
   inkscape:pageshadow="2"
   inkscape:window-width="1920"
   inkscape:window-height="1007"
   id="namedview12"
   showgrid="false"
   inkscape:zoom="0.84890884"
   inkscape:cx="169.61082"
   inkscape:cy="564.45234"
   inkscape:window-x="1920"
   inkscape:window-y="0"
   inkscape:window-maximized="1"
   inkscape:current-layer="svg10"
   showguides="true"
   inkscape:guide-bbox="true"
   inkscape:document-rotation="0"><sodipodi:guide
   position="0,1000"
   orientation="0,1"
   id="guide16"
   inkscape:label=""
   inkscape:locked="true"
   inkscape:color="rgb(0,0,255)" /><sodipodi:guide
   position="1763.3122,2036.1693"
   orientation="1000,0"
   id="guide18" /><sodipodi:guide
   position="0,200"
   orientation="0,1"
   id="guide20"
   inkscape:label="base"
   inkscape:locked="true"
   inkscape:color="rgb(0,0,255)" /><inkscape:grid
   type="xygrid"
   id="grid24"
   originx="-473.37552"
   originy="-489.69235" /><sodipodi:guide
   position="0,0"
   orientation="0,1"
   id="guide34"
   inkscape:label="bottom"
   inkscape:locked="true"
   inkscape:color="rgb(0,0,255)" /><sodipodi:guide
   position="225.05109,1693.3186"
   orientation="0,1"
   id="guide44"
   inkscape:label=""
   inkscape:locked="false"
   inkscape:color="rgb(0,0,255)" /><sodipodi:guide
   position="0,900"
   orientation="0,1"
   id="guide46"
   inkscape:label=""
   inkscape:locked="true"
   inkscape:color="rgb(0,0,255)" /><sodipodi:guide
   position="483.08942,275.33913"
   orientation="1,0"
   id="guide841"
   inkscape:label="width" />    <sodipodi:guide
   position="-15.635881,798.82971"
   orientation="0,-1"
   id="guide851" /><sodipodi:guide
   position="402.87011,499.35732"
   orientation="0,-1"
   id="guide852" /></sodipodi:namedview>
 <defs
   id="defs4"><inkscape:path-effect
   effect="fillet_chamfer"
   id="path-effect853"
   is_visible="true"
   lpeversion="1"
   satellites_param="F,0,0,1,0,0,0,1 @ F,0,0,1,0,0,0,1 @ F,0,0,1,0,0,0,1 @ F,0,0,1,0,0,0,1 @ F,0,0,1,0,0,0,1 @ F,0,0,1,0,0,0,1 @ F,0,0,1,0,0,0,1 @ F,0,0,1,0,0,0,1 @ F,0,0,1,0,0,0,1 @ F,0,0,1,0,0,0,1 @ F,0,0,1,0,0,0,1 @ F,0,0,1,0,0,0,1 | F,0,0,1,0,0,0,1 @ F,0,0,1,0,0,0,1 @ F,0,0,1,0,0,0,1 @ F,0,0,1,0,0,0,1 @ F,0,0,1,0,0,0,1 @ F,0,0,1,0,0,0,1 @ F,0,0,1,0,0,0,1 @ F,0,0,1,0,0,0,1 @ F,0,0,1,0,0,0,1 @ F,0,0,1,0,0,0,1 @ F,0,0,1,0,20.410507,0,1 @ F,0,0,1,0,22.835922,0,1 @ F,0,0,1,0,0,0,1 @ F,0,0,1,0,0,0,1 @ F,0,0,1,0,0,0,1 @ F,0,0,1,0,21.890247,0,1 @ F,0,0,1,0,23.332156,0,1 @ F,0,0,1,0,0,0,1 @ F,0,0,1,0,0,0,1 @ F,0,0,1,0,0,0,1"
   unit="px"
   method="auto"
   mode="F"
   radius="0"
   chamfer_steps="1"
   flexible="false"
   use_knot_distance="true"
   apply_no_radius="true"
   apply_with_radius="true"
   only_selected="true"
   hide_knots="false" /><inkscape:path-effect
   effect="spiro"
   id="path-effect928"
   is_visible="true"
   lpeversion="1" /><inkscape:path-effect
   effect="spiro"
   id="path-effect921"
   is_visible="true"
   lpeversion="1" /><inkscape:path-effect
   effect="spiro"
   id="path-effect917"
   is_visible="true"
   lpeversion="1" /><inkscape:path-effect
   effect="spiro"
   id="path-effect849"
   is_visible="true"
   lpeversion="1" /><inkscape:path-effect
   effect="spiro"
   id="path-effect851"
   is_visible="true"
   lpeversion="1" />
  <style
   type="text/css"
   id="style2">
   <![CDATA[
    .fil0 {fill:#EF7F1A;fill-rule:nonzero}
   ]]>
  </style>
 <inkscape:path-effect
   effect="spiro"
   id="path-effect1214"
   is_visible="true"
   lpeversion="1" /><inkscape:path-effect
   effect="spiro"
   id="path-effect1195"
   is_visible="true"
   lpeversion="1" /><inkscape:path-effect
   effect="spiro"
   id="path-effect992"
   is_visible="true"
   lpeversion="1" /><inkscape:path-effect
   effect="spiro"
   id="path-effect1060"
   is_visible="true"
   lpeversion="1" /><inkscape:path-effect
   effect="spiro"
   id="path-effect1047"
   is_visible="true"
   lpeversion="1" /><inkscape:path-effect
   effect="spiro"
   id="path-effect1085"
   is_visible="true"
   lpeversion="1" /><inkscape:path-effect
   effect="spiro"
   id="path-effect1286"
   is_visible="true"
   lpeversion="1" /></defs>
 
<path
   id="path919"
   style="fill:#2d2d2d;fill-rule:nonzero;stroke:none;stroke-width:1px;stroke-linecap:butt;stroke-linejoin:miter;stroke-opacity:1"
   d="m 409.90258,501.40189 c 0.30852,46.59718 -7.37766,94.50385 -31.50399,134.37003 -12.06317,19.93309 -28.17281,37.56773 -47.67733,50.31221 -19.50453,12.74447 -42.45617,20.47364 -65.75227,20.84739 -23.94529,0.38416 -47.76954,-7.01931 -68.02091,-19.80236 -20.25137,-12.78305 -36.98201,-30.80412 -49.40502,-51.27833 -24.84601,-40.94843 -32.17951,-90.44013 -30.78505,-138.31657 1.33747,-45.92006 10.74668,-92.84389 36.08792,-131.16179 12.67063,-19.15896 29.24889,-35.88465 48.97606,-47.65108 19.72717,-11.76643 42.64877,-18.44862 65.6114,-17.87622 22.71574,0.56625 45.03902,8.2176 64.03397,20.68827 18.99494,12.47066 34.7124,29.64324 46.54983,49.03913 23.67487,38.79179 31.5845,85.38472 31.88539,130.82932 z m -146.48177,298.7597 c 34.55115,-0.0454 68.75204,-11.00499 97.95165,-29.47571 29.1996,-18.47072 53.47273,-44.26586 71.79811,-73.5569 36.65076,-58.58207 49.10879,-129.44349 49.70137,-198.54332 0.57894,-67.50955 -10.14106,-136.94415 -44.6972,-194.94198 -17.27807,-28.99891 -40.42848,-54.71894 -68.55432,-73.38456 -28.12584,-18.66563 -61.3062,-30.09409 -95.05407,-30.83552 -32.63386,-0.71695 -65.41963,8.66942 -92.72972,26.54797 -27.31008,17.87855 -49.02726,44.17256 -61.42385,74.36871 0.23767,-9.63253 0.40927,-19.26668 0.51478,-28.90156 0.18201,-16.61978 0.16737,-33.24171 -0.0439,-49.86115 -0.14328,-11.27145 -9.49637,-20.40728 -20.76878,-20.40728 l -78.353995,0 c -12.6119319,0 -19.2839177,9.59021 -15.3093229,21.55897 12.2728269,36.95733 21.6616009,74.87242 28.0455719,113.28752 16.710047,100.55154 12.736021,203.2544 8.504215,305.09707 -3.595634,86.53253 -7.33239,173.42393 1.52355,259.57717 2.683781,26.10863 6.521616,52.09858 11.497319,77.86881 C 58.314093,990.42995 70.236217,1000 82.325867,1000 h 59.591313 c 12.886,0 18.02513,-9.01108 12.2509,-20.52872 -20.38153,-40.65428 -33.59284,-84.90232 -38.75521,-130.08847 -4.83749,-42.34242 -2.6389,-85.48031 6.47842,-127.1115 15.00458,23.76 36.10956,43.63212 60.72864,57.18115 24.61907,13.54902 52.69975,20.74605 80.80088,20.70913 z"
   sodipodi:nodetypes="aaaaaaaacaccaaaccaca"
   inkscape:path-effect="#path-effect928;#path-effect853"
   inkscape:original-d="m 409.90258,501.40189 c 0.14514,83.83051 -61.10299,205.45618 -144.93359,205.52963 -85.51391,0.0749 -149.82535,-123.89856 -148.21098,-209.39726 1.55917,-82.57508 68.099,-198.17764 150.67538,-196.68909 81.98971,1.47798 142.32721,118.55382 142.46919,200.55672 z M 263.42081,800.16159 C 384.76637,773.11403 481.57732,622.90235 482.87194,498.58566 484.1373,377.07903 393.85918,222.5468 274.56635,199.4236 214.27244,187.73649 120.41278,300.34028 120.41278,300.34028 c 0,0 0.45655,-19.26635 0.51478,-28.90156 0.14155,-23.42277 -14.4576,-56.26971 -0.40217,-70.26843 H -1.0750374 c 0,0 28.9521024,88.83378 35.5721714,134.84649 14.488422,100.7016 6.788178,203.37302 8.504215,305.09707 1.459466,86.5149 -5.59536,173.3433 1.52355,259.57717 C 47.283136,934.10252 72.51241,982.0237 60.43562,1000 h 104.81372 c -14.03808,-15.7095 -42.75513,-98.21076 -49.83647,-150.61719 -5.68105,-42.04341 6.47842,-127.1115 6.47842,-127.1115 0,0 88.97028,89.60558 141.52952,77.89028 z" /></svg>
