<?xml version="1.0" encoding="UTF-8" standalone="no"?>
<svg
   xmlns:dc="http://purl.org/dc/elements/1.1/"
   xmlns:cc="http://creativecommons.org/ns#"
   xmlns:rdf="http://www.w3.org/1999/02/22-rdf-syntax-ns#"
   xmlns:svg="http://www.w3.org/2000/svg"
   xmlns="http://www.w3.org/2000/svg"
   xmlns:sodipodi="http://sodipodi.sourceforge.net/DTD/sodipodi-0.dtd"
   xmlns:inkscape="http://www.inkscape.org/namespaces/inkscape"
   xml:space="preserve"
   width="1000"
   height="1000"
   version="1.1"
   style="clip-rule:evenodd;fill-rule:evenodd;image-rendering:optimizeQuality;shape-rendering:geometricPrecision;text-rendering:geometricPrecision"
   viewBox="0 0 1000 1000"
   id="svg10"
   sodipodi:docname="p.svg"
   inkscape:version="1.0.2 (e86c870879, 2021-01-15)"><metadata
   id="metadata14"><rdf:RDF><cc:Work
       rdf:about=""><dc:format>image/svg+xml</dc:format><dc:type
         rdf:resource="http://purl.org/dc/dcmitype/StillImage" /><dc:title /></cc:Work></rdf:RDF></metadata><sodipodi:namedview
   pagecolor="#ffffff"
   bordercolor="#666666"
   borderopacity="1"
   objecttolerance="10"
   gridtolerance="10"
   guidetolerance="10"
   inkscape:pageopacity="0"
   inkscape:pageshadow="2"
   inkscape:window-width="1920"
   inkscape:window-height="1007"
   id="namedview12"
   showgrid="false"
   inkscape:zoom="0.84890884"
   inkscape:cx="169.61082"
   inkscape:cy="564.45234"
   inkscape:window-x="1920"
   inkscape:window-y="0"
   inkscape:window-maximized="1"
   inkscape:current-layer="svg10"
   showguides="true"
   inkscape:guide-bbox="true"
   inkscape:document-rotation="0"><sodipodi:guide
   position="0,1000"
   orientation="0,1"
   id="guide16"
   inkscape:label=""
   inkscape:locked="true"
   inkscape:color="rgb(0,0,255)" /><sodipodi:guide
   position="1763.3122,2036.1693"
   orientation="1000,0"
   id="guide18" /><sodipodi:guide
   position="0,200"
   orientation="0,1"
   id="guide20"
   inkscape:label="base"
   inkscape:locked="true"
   inkscape:color="rgb(0,0,255)" /><inkscape:grid
   type="xygrid"
   id="grid24"
   originx="-473.37552"
   originy="-489.69235" /><sodipodi:guide
   position="0,0"
   orientation="0,1"
   id="guide34"
   inkscape:label="bottom"
   inkscape:locked="true"
   inkscape:color="rgb(0,0,255)" /><sodipodi:guide
   position="225.05109,1693.3186"
   orientation="0,1"
   id="guide44"
   inkscape:label=""
   inkscape:locked="false"
   inkscape:color="rgb(0,0,255)" /><sodipodi:guide
   position="0,900"
   orientation="0,1"
   id="guide46"
   inkscape:label=""
   inkscape:locked="true"
   inkscape:color="rgb(0,0,255)" /><sodipodi:guide
   position="512.75842,830.8275"
   orientation="1,0"
   id="guide841"
   inkscape:label="width" />    <sodipodi:guide
   position="-15.635881,798.82971"
   orientation="0,-1"
   id="guide851" /><sodipodi:guide
   position="402.87011,499.35732"
   orientation="0,-1"
   id="guide852" /></sodipodi:namedview>
 <defs
   id="defs4"><inkscape:path-effect
   effect="fillet_chamfer"
   id="path-effect853"
   is_visible="true"
   lpeversion="1"
   satellites_param="F,0,0,1,0,0,0,1 @ F,0,0,1,0,0,0,1 @ F,0,0,1,0,0,0,1 @ F,0,0,1,0,0,0,1 @ F,0,0,1,0,0,0,1 @ F,0,0,1,0,0,0,1 @ F,0,0,1,0,0,0,1 @ F,0,0,1,0,0,0,1 @ F,0,0,1,0,0,0,1 @ F,0,0,1,0,0,0,1 @ F,0,0,1,0,0,0,1 @ F,0,0,1,0,0,0,1 | F,0,0,1,0,0,0,1 @ F,0,0,1,0,0,0,1 @ F,0,0,1,0,0,0,1 @ F,0,0,1,0,0,0,1 @ F,0,0,1,0,0,0,1 @ F,0,0,1,0,0,0,1 @ F,0,0,1,0,0,0,1 @ F,0,0,1,0,0,0,1 @ F,0,0,1,0,0,0,1 @ F,0,0,1,0,0,0,1 @ F,0,0,1,0,20.410507,0,1 @ F,0,0,1,0,22.835922,0,1 @ F,0,0,1,0,0,0,1 @ F,0,0,1,0,0,0,1 @ F,0,0,1,0,0,0,1 @ F,0,0,1,0,21.890247,0,1 @ F,0,0,1,0,23.332156,0,1 @ F,0,0,1,0,0,0,1 @ F,0,0,1,0,0,0,1 @ F,0,0,1,0,0,0,1"
   unit="px"
   method="auto"
   mode="F"
   radius="0"
   chamfer_steps="1"
   flexible="false"
   use_knot_distance="true"
   apply_no_radius="true"
   apply_with_radius="true"
   only_selected="true"
   hide_knots="false" /><inkscape:path-effect
   effect="spiro"
   id="path-effect928"
   is_visible="true"
   lpeversion="1" /><inkscape:path-effect
   effect="spiro"
   id="path-effect921"
   is_visible="true"
   lpeversion="1" /><inkscape:path-effect
   effect="spiro"
   id="path-effect917"
   is_visible="true"
   lpeversion="1" /><inkscape:path-effect
   effect="spiro"
   id="path-effect849"
   is_visible="true"
   lpeversion="1" /><inkscape:path-effect
   effect="spiro"
   id="path-effect851"
   is_visible="true"
   lpeversion="1" />
  <style
   type="text/css"
   id="style2">
   <![CDATA[
    .fil0 {fill:#EF7F1A;fill-rule:nonzero}
   ]]>
  </style>
 <inkscape:path-effect
   effect="spiro"
   id="path-effect1214"
   is_visible="true"
   lpeversion="1" /><inkscape:path-effect
   effect="spiro"
   id="path-effect1195"
   is_visible="true"
   lpeversion="1" /><inkscape:path-effect
   effect="spiro"
   id="path-effect992"
   is_visible="true"
   lpeversion="1" /><inkscape:path-effect
   effect="spiro"
   id="path-effect1060"
   is_visible="true"
   lpeversion="1" /><inkscape:path-effect
   effect="spiro"
   id="path-effect1047"
   is_visible="true"
   lpeversion="1" /><inkscape:path-effect
   effect="spiro"
   id="path-effect1085"
   is_visible="true"
   lpeversion="1" /><inkscape:path-effect
   effect="spiro"
   id="path-effect1286"
   is_visible="true"
   lpeversion="1" /></defs>
 
<path
   id="path919"
   style="fill:#2d2d2d;fill-rule:nonzero;stroke:none;stroke-width:1px;stroke-linecap:butt;stroke-linejoin:miter;stroke-opacity:1"
   d="m 429.90258,501.40189 c 0.41333,43.59313 -9.93853,88.17681 -35.0925,123.78312 -12.57699,17.80316 -28.74984,33.16105 -47.61288,44.08436 -18.86304,10.92331 -40.43311,17.3357 -62.22821,17.66215 -22.43189,0.33599 -44.81445,-5.7858 -64.39003,-16.74479 -19.57558,-10.95899 -36.35941,-26.66888 -49.31133,-44.98691 -25.90384,-36.63608 -36.01233,-82.82191 -34.50962,-127.66556 1.43974,-42.96475 13.55669,-86.44193 39.85631,-120.44741 13.14981,-17.00273 29.73356,-31.44557 48.77585,-41.41561 19.04229,-9.97005 40.55624,-15.39216 62.04322,-14.82607 21.20008,0.55854 42.12063,6.93682 60.44285,17.61631 18.32222,10.67949 34.0631,25.58968 46.38722,42.84863 24.64825,34.51789 35.23698,77.67882 35.63912,120.09178 z m -146.48177,298.7597 c 34.55115,-0.0454 68.75204,-11.00499 97.95165,-29.47571 29.1996,-18.47072 53.47273,-44.26586 71.79811,-73.5569 36.65076,-58.58207 49.10879,-129.44349 49.70137,-198.54332 0.57894,-67.50955 -10.14106,-136.94415 -44.6972,-194.94198 -17.27807,-28.99891 -40.42848,-54.71894 -68.55432,-73.38456 -28.12584,-18.66563 -61.3062,-30.09409 -95.05407,-30.83552 -32.63386,-0.71695 -65.41963,8.66942 -92.72972,26.54797 -27.31008,17.87855 -49.02726,44.17256 -61.42385,74.36871 0.23767,-9.63253 0.40927,-19.26668 0.51478,-28.90156 0.18201,-16.61978 0.16737,-33.24171 -0.0439,-49.86115 -0.14328,-11.27145 -9.49637,-20.40728 -20.76878,-20.40728 l -98.353995,0 c -12.6119315,0 -19.2839173,9.59021 -15.3093226,21.55897 12.2728266,36.95733 21.6616006,74.87242 28.0455716,113.28752 16.710046,100.55154 12.736021,203.2544 8.504215,305.09707 -3.595634,86.53253 -7.33239,173.42393 1.52355,259.57717 2.683781,26.10863 6.521616,52.09858 11.497319,77.86881 C 58.314093,990.42995 70.236217,1000 82.325867,1000 l 79.591313,0 c 12.886,0 18.02513,-9.01108 12.2509,-20.52872 -20.38153,-40.65428 -33.59284,-84.90232 -38.75521,-130.08847 -4.83749,-42.34242 -2.6389,-85.48031 6.47842,-127.1115 15.00458,23.76 36.10956,43.63212 60.72864,57.18115 24.61907,13.54902 52.69975,20.74605 80.80088,20.70913 z"
   sodipodi:nodetypes="aaaaaaaacaccaaaccaca"
   inkscape:path-effect="#path-effect928;#path-effect853"
   inkscape:original-d="m 429.90258,501.40189 c 0.19096,78.47622 -66.45714,185.49671 -144.93359,185.52963 -80.16497,0.0336 -149.89821,-109.25004 -148.21098,-189.39726 1.62911,-77.38663 73.28562,-178.16235 150.67538,-176.68909 76.65147,1.45921 142.28263,103.89159 142.46919,180.55672 z M 283.42081,800.16159 C 404.76637,773.11403 501.57732,622.90235 502.87194,498.58566 504.1373,377.07903 413.85918,222.5468 294.56635,199.4236 234.27244,187.73649 140.41278,300.34028 140.41278,300.34028 c 0,0 0.45655,-19.26635 0.51478,-28.90156 0.14155,-23.42277 -14.4576,-56.26971 -0.40217,-70.26843 H -1.075037 c 0,0 28.952102,88.83378 35.572171,134.84649 14.488422,100.7016 6.788178,203.37302 8.504215,305.09707 1.459466,86.5149 -5.59536,173.3433 1.52355,259.57717 C 47.283136,934.10252 72.51241,982.0237 60.43562,1000 h 124.81372 c -14.03808,-15.7095 -42.75513,-98.21076 -49.83647,-150.61719 -5.68105,-42.04341 6.47842,-127.1115 6.47842,-127.1115 0,0 88.97028,89.60558 141.52952,77.89028 z" /></svg>
