<?xml version="1.0" encoding="UTF-8"?>
<!DOCTYPE svg PUBLIC "-//W3C//DTD SVG 1.1//EN" "http://www.w3.org/Graphics/SVG/1.1/DTD/svg11.dtd">
<!-- Creator: CorelDRAW X8 -->
<svg xmlns="http://www.w3.org/2000/svg" xml:space="preserve" width="1419px" height="1405px" version="1.1" style="shape-rendering:geometricPrecision; text-rendering:geometricPrecision; image-rendering:optimizeQuality; fill-rule:evenodd; clip-rule:evenodd"
viewBox="0 0 1419 1405"
 xmlns:xlink="http://www.w3.org/1999/xlink">
 <defs>
  <style type="text/css">
   <![CDATA[
    .fil0 {fill:#EF7F1A;fill-rule:nonzero}
   ]]>
  </style>
 </defs>
 <g id="Layer_x0020_1">
  <metadata id="CorelCorpID_0Corel-Layer"/>
  <path class="fil0" d="M1319 1405c31,0 62,-8 83,-25 12,-10 17,-20 17,-30 0,-20 -20,-38 -45,-47 -66,-25 -114,-66 -155,-122 113,-132 167,-307 167,-479 0,-405 -274,-702 -693,-702 -419,0 -693,297 -693,702 0,406 274,703 693,703 142,0 281,-33 400,-112 51,49 152,112 226,112zm-626 -112c-324,0 -490,-304 -490,-591 0,-286 166,-590 490,-590 324,0 490,304 490,590 0,109 -23,218 -71,315 -93,-138 -246,-228 -414,-228 -33,0 -106,11 -106,55 0,37 53,53 82,56 186,21 234,137 324,275 -85,79 -189,118 -305,118z"/>
 </g>
</svg>
