<?xml version="1.0" encoding="UTF-8" standalone="no"?>
<svg
   xmlns:dc="http://purl.org/dc/elements/1.1/"
   xmlns:cc="http://creativecommons.org/ns#"
   xmlns:rdf="http://www.w3.org/1999/02/22-rdf-syntax-ns#"
   xmlns:svg="http://www.w3.org/2000/svg"
   xmlns="http://www.w3.org/2000/svg"
   xmlns:sodipodi="http://sodipodi.sourceforge.net/DTD/sodipodi-0.dtd"
   xmlns:inkscape="http://www.inkscape.org/namespaces/inkscape"
   xml:space="preserve"
   width="1000"
   height="1000"
   version="1.1"
   style="clip-rule:evenodd;fill-rule:evenodd;image-rendering:optimizeQuality;shape-rendering:geometricPrecision;text-rendering:geometricPrecision"
   viewBox="0 0 1000 1000"
   id="svg10"
   sodipodi:docname="registeredsign.svg"
   inkscape:version="1.0.2 (e86c870879, 2021-01-15)"><metadata
   id="metadata14"><rdf:RDF><cc:Work
       rdf:about=""><dc:format>image/svg+xml</dc:format><dc:type
         rdf:resource="http://purl.org/dc/dcmitype/StillImage" /><dc:title /></cc:Work></rdf:RDF></metadata><sodipodi:namedview
   pagecolor="#ffffff"
   bordercolor="#666666"
   borderopacity="1"
   objecttolerance="10"
   gridtolerance="10"
   guidetolerance="10"
   inkscape:pageopacity="0"
   inkscape:pageshadow="2"
   inkscape:window-width="1920"
   inkscape:window-height="1007"
   id="namedview12"
   showgrid="false"
   inkscape:zoom="0.84890884"
   inkscape:cx="200.74349"
   inkscape:cy="429.36736"
   inkscape:window-x="1920"
   inkscape:window-y="0"
   inkscape:window-maximized="1"
   inkscape:current-layer="svg10"
   showguides="true"
   inkscape:guide-bbox="true"
   inkscape:document-rotation="0"><sodipodi:guide
   position="0,1000"
   orientation="0,1"
   id="guide16"
   inkscape:label=""
   inkscape:locked="true"
   inkscape:color="rgb(0,0,255)" /><sodipodi:guide
   position="1763.3122,2036.1693"
   orientation="1000,0"
   id="guide18" /><sodipodi:guide
   position="0,200"
   orientation="0,1"
   id="guide20"
   inkscape:label="base"
   inkscape:locked="true"
   inkscape:color="rgb(0,0,255)" /><inkscape:grid
   type="xygrid"
   id="grid24"
   originx="-473.37552"
   originy="-489.69235" /><sodipodi:guide
   position="0,0"
   orientation="0,1"
   id="guide34"
   inkscape:label="bottom"
   inkscape:locked="true"
   inkscape:color="rgb(0,0,255)" /><sodipodi:guide
   position="225.05109,1693.3186"
   orientation="0,1"
   id="guide44"
   inkscape:label=""
   inkscape:locked="false"
   inkscape:color="rgb(0,0,255)" /><sodipodi:guide
   position="0,900"
   orientation="0,1"
   id="guide46"
   inkscape:label=""
   inkscape:locked="true"
   inkscape:color="rgb(0,0,255)" /><sodipodi:guide
   position="716.81087,838.22333"
   orientation="1,0"
   id="guide841"
   inkscape:label="width" />    </sodipodi:namedview>
 <defs
   id="defs4"><inkscape:path-effect
   effect="fillet_chamfer"
   id="path-effect855"
   is_visible="true"
   lpeversion="1"
   satellites_param="F,0,0,1,0,0,0,1 @ F,0,0,1,0,0,0,1 @ F,0,0,1,0,0,0,1 @ F,0,0,1,0,0,0,1 @ F,0,0,1,0,0,0,1 @ F,0,0,1,0,0,0,1 @ F,0,0,1,0,0,0,1 @ F,0,0,1,0,0,0,1 | F,0,0,1,0,0,0,1 @ F,0,0,1,0,0,0,1 @ F,0,0,1,0,0,0,1 @ F,0,0,1,0,0,0,1 @ F,0,0,1,0,0,0,1 @ F,0,0,1,0,0,0,1 @ F,0,0,1,0,0,0,1 @ F,0,0,1,0,0,0,1 | F,0,0,1,0,22.513592,0,1 @ F,0,0,1,0,0,0,1 @ F,0,0,1,0,0,0,1 @ F,0,0,1,0,21.487424,0,1 @ F,0,0,1,0,0,0,1 @ F,0,0,1,0,0,0,1 @ F,0,0,1,0,0,0,1 @ F,0,0,1,0,0,0,1 @ F,0,0,1,0,0,0,1 @ F,0,0,1,0,0,0,1 @ F,0,0,1,0,0,0,1 @ F,0,0,1,0,28.566165,0,1 @ F,0,0,1,0,17.099044,0,1 @ F,0,0,1,0,0,0,1 @ F,0,0,1,0,0,0,1 @ F,0,0,1,0,0,0,1 @ F,0,0,1,0,0,0,1 @ F,0,0,1,0,16.045702,0,1 | F,0,0,1,0,0,0,1 @ F,0,0,1,0,0,0,1 @ F,0,0,1,0,0,0,1 @ F,0,0,1,0,0,0,1 @ F,0,0,1,0,0,0,1 @ F,0,0,1,0,0,0,1 @ F,0,0,1,0,0,0,1 @ F,0,0,1,0,0,0,1 @ F,0,0,1,0,0,0,1"
   unit="px"
   method="auto"
   mode="F"
   radius="0"
   chamfer_steps="1"
   flexible="false"
   use_knot_distance="true"
   apply_no_radius="true"
   apply_with_radius="true"
   only_selected="true"
   hide_knots="false" /><inkscape:path-effect
   effect="spiro"
   id="path-effect853"
   is_visible="true"
   lpeversion="1" /><inkscape:path-effect
   effect="spiro"
   id="path-effect928"
   is_visible="true"
   lpeversion="1" /><inkscape:path-effect
   effect="spiro"
   id="path-effect921"
   is_visible="true"
   lpeversion="1" /><inkscape:path-effect
   effect="spiro"
   id="path-effect917"
   is_visible="true"
   lpeversion="1" /><inkscape:path-effect
   effect="spiro"
   id="path-effect849"
   is_visible="true"
   lpeversion="1" /><inkscape:path-effect
   effect="spiro"
   id="path-effect851"
   is_visible="true"
   lpeversion="1" />
  <style
   type="text/css"
   id="style2">
   <![CDATA[
    .fil0 {fill:#EF7F1A;fill-rule:nonzero}
   ]]>
  </style>
 <inkscape:path-effect
   effect="spiro"
   id="path-effect1214"
   is_visible="true"
   lpeversion="1" /><inkscape:path-effect
   effect="spiro"
   id="path-effect1195"
   is_visible="true"
   lpeversion="1" /><inkscape:path-effect
   effect="spiro"
   id="path-effect992"
   is_visible="true"
   lpeversion="1" /><inkscape:path-effect
   effect="spiro"
   id="path-effect1060"
   is_visible="true"
   lpeversion="1" /><inkscape:path-effect
   effect="spiro"
   id="path-effect1047"
   is_visible="true"
   lpeversion="1" /><inkscape:path-effect
   effect="spiro"
   id="path-effect1085"
   is_visible="true"
   lpeversion="1" /><inkscape:path-effect
   effect="spiro"
   id="path-effect1286"
   is_visible="true"
   lpeversion="1" /><inkscape:path-effect
   effect="spiro"
   id="path-effect884"
   is_visible="true"
   lpeversion="1" /></defs>
 
<path
   id="path858-3"
   style="clip-rule:evenodd;fill:#2d2d2d;fill-rule:evenodd;stroke-width:125.375;stroke-linejoin:round;paint-order:stroke fill markers;image-rendering:optimizeQuality;shape-rendering:geometricPrecision;text-rendering:geometricPrecision"
   inkscape:path-effect="#path-effect884;#path-effect855"
   inkscape:original-d="M 646.25294,449.25001 C 645.97359,584.7516 491.37155,735.41904 355.88017,733.73284 223.15799,732.0811 78.465242,580.80448 78.465243,448.07203 78.465244,315.33958 223.15487,163.78935 355.88017,162.41123 491.92545,160.99864 646.53342,313.19768 646.25294,449.25001 Z m 63.611,-0.71751 c 0,165.4813 -185.55753,351.03885 -351.03883,351.03885 -165.4813,0 -351.0388473,-185.55755 -351.0388473,-351.03885 0,-165.4813 185.5575473,-351.038852 351.0388473,-351.03885 165.4813,2e-6 351.03883,185.55755 351.03883,351.03885 z M 231.13188,666.84133 c 0,0 2.81689,-129.49179 4.48725,-194.23128 1.65851,-64.28024 10.50164,-128.72013 5.4956,-192.82661 -1.41323,-18.09757 -9.98285,-53.53519 -9.98285,-53.53519 0,0 67.56364,-5.98586 100.30634,0.79011 43.18589,8.93715 91.8233,19.24828 121.8459,51.55211 20.18492,21.71864 30.47014,54.64482 28.57827,84.23453 -2.10343,32.89861 -20.96644,64.72924 -43.44248,88.84502 -16.9637,18.20128 -64.5845,37.42092 -64.5845,37.42092 25.09036,40.8933 43.14963,85.12213 69.88709,124.48886 12.84604,18.9138 43.22017,53.26153 43.22017,53.26153 h -73.53476 c 0,0 -11.90585,-31.77665 -19.06546,-47.14021 -19.83971,-42.57333 -63.17312,-141.50618 -66.04734,-124.46956 l -46.06495,2.70845 c 0,0 -1.65477,81.66545 7.62669,120.99785 3.98247,16.87666 20.2828,47.90347 20.2828,47.90347 z m 56.53975,-399.65093 -3.96206,177.49536 c 0,0 31.16602,1.28729 46.38921,-1.46971 22.9272,-4.15224 47.58581,-8.42043 66.20422,-22.42944 19.86243,-14.94504 42.90824,-36.38064 42.55689,-61.23516 -0.51421,-36.37453 -33.07304,-70.00576 -64.79026,-87.82117 -12.29165,-6.90416 -28.05086,-2.98179 -42.12878,-3.73288 -14.7379,-0.7863 -44.26922,-0.807 -44.26922,-0.807 z"
   d="M 646.25294,449.25001 C 645.94205,524.69602 614.53186,599.60476 560.71399,652.4804 506.89612,705.35604 431.3071,735.45775 355.88017,733.73284 282.413,732.05275 210.13506,700.27063 159.01309,647.48055 107.89112,594.69047 78.464778,521.55841 78.465243,448.07203 78.465708,374.58599 107.89263,301.45473 159.01447,248.665 c 51.12184,-52.78972 123.39891,-84.57205 196.8657,-86.25377 75.82037,-1.73559 151.79763,28.70205 205.67645,82.07633 53.87882,53.37428 85.00884,128.92286 84.69632,204.76245 z m 63.611,-0.71751 c 0,91.90175 -37.83254,183.23759 -102.81689,248.22195 -64.98435,64.98435 -156.32019,102.8169 -248.22194,102.8169 -91.90176,0 -183.2376,-37.83254 -248.22195,-102.8169 C 45.618805,631.7701 7.7862627,540.43426 7.7862627,448.5325 c 0,-91.90176 37.8325423,-183.2376 102.8168973,-248.22195 64.98435,-64.98436 156.32019,-102.816902 248.22195,-102.8169 91.90175,2e-6 183.23759,37.83255 248.22194,102.8169 64.98435,64.98436 102.81689,156.3202 102.81689,248.22195 z M 230.62045,644.33368 c -0.95734,-57.27748 0.71074,-114.59884 4.99868,-171.72363 4.82159,-64.23412 12.94991,-128.84455 5.4956,-192.82661 -1.27346,-10.93041 -3.00031,-21.80795 -5.17363,-32.59554 -2.34344,-11.63203 4.76939,-21.89145 16.62058,-22.48873 26.29842,-1.32541 52.70306,-0.54479 78.87654,2.33919 22.43407,2.47195 44.84225,6.52559 65.94552,14.52872 21.10327,8.00313 40.93891,20.12509 55.90038,37.02339 20.17393,22.78553 30.52789,53.86404 28.57827,84.23453 -2.16156,33.67203 -19.02958,65.55364 -43.44248,88.84502 -18.17129,17.33651 -40.50693,30.27801 -64.5845,37.42092 18.42112,43.99207 41.92236,85.8545 69.88709,124.48886 7.82967,10.817 16.00796,21.38164 24.51741,31.67243 10.05285,12.15728 5.91325,21.5891 -9.8634,21.5891 h -27.86956 c -9.44354,0 -19.75845,-7.17958 -23.22033,-15.96555 -4.12503,-10.46897 -8.44068,-20.86283 -12.94417,-31.17466 -18.81646,-43.08487 -40.91724,-84.73491 -66.04734,-124.46956 l -46.06495,2.70845 c -7.05466,40.17806 -4.41707,82.02359 7.62669,120.99785 3.54911,11.48513 7.90218,22.72158 13.01362,33.6017 3.76752,8.01947 0.0853,14.30177 -8.77652,14.30177 h -40.44848 c -12.43391,0 -22.81722,-10.07554 -23.02502,-22.50765 z m 57.05118,-377.14328 -3.96206,177.49536 c 15.46132,1.03388 31.02435,0.54081 46.38921,-1.46971 23.29248,-3.04786 46.43648,-9.73829 66.20422,-22.42944 10.7906,-6.92771 20.51157,-15.63395 28.0209,-26.02818 7.50933,-10.39422 12.76399,-22.50698 14.53599,-35.20698 2.75652,-19.75607 -3.21369,-40.39252 -15.32221,-56.24448 -12.10852,-15.85196 -30.07338,-26.91326 -49.46805,-31.57669 -13.73692,-3.30303 -28.0021,-3.50979 -42.12878,-3.73288 -14.75703,-0.23305 -29.5135,-0.50205 -44.26922,-0.807 z"
   sodipodi:nodetypes="aaaaaaaaaacascaaaacaccaccaccccaaaaac" /></svg>
