<?xml version="1.0" encoding="UTF-8" standalone="no"?>
<svg
   xmlns:dc="http://purl.org/dc/elements/1.1/"
   xmlns:cc="http://creativecommons.org/ns#"
   xmlns:rdf="http://www.w3.org/1999/02/22-rdf-syntax-ns#"
   xmlns:svg="http://www.w3.org/2000/svg"
   xmlns="http://www.w3.org/2000/svg"
   xmlns:sodipodi="http://sodipodi.sourceforge.net/DTD/sodipodi-0.dtd"
   xmlns:inkscape="http://www.inkscape.org/namespaces/inkscape"
   xml:space="preserve"
   width="1000"
   height="1000"
   version="1.1"
   style="clip-rule:evenodd;fill-rule:evenodd;image-rendering:optimizeQuality;shape-rendering:geometricPrecision;text-rendering:geometricPrecision"
   viewBox="0 0 1000 1000"
   id="svg10"
   sodipodi:docname="s.svg"
   inkscape:version="1.0.2 (e86c870879, 2021-01-15)"><metadata
   id="metadata14"><rdf:RDF><cc:Work
       rdf:about=""><dc:format>image/svg+xml</dc:format><dc:type
         rdf:resource="http://purl.org/dc/dcmitype/StillImage" /><dc:title /></cc:Work></rdf:RDF></metadata><sodipodi:namedview
   pagecolor="#ffffff"
   bordercolor="#666666"
   borderopacity="1"
   objecttolerance="10"
   gridtolerance="10"
   guidetolerance="10"
   inkscape:pageopacity="0"
   inkscape:pageshadow="2"
   inkscape:window-width="1920"
   inkscape:window-height="1007"
   id="namedview12"
   showgrid="false"
   inkscape:zoom="0.84890884"
   inkscape:cx="169.61082"
   inkscape:cy="375.04089"
   inkscape:window-x="1920"
   inkscape:window-y="0"
   inkscape:window-maximized="1"
   inkscape:current-layer="svg10"
   showguides="true"
   inkscape:guide-bbox="true"
   inkscape:document-rotation="0"><sodipodi:guide
   position="0,1000"
   orientation="0,1"
   id="guide16"
   inkscape:label=""
   inkscape:locked="true"
   inkscape:color="rgb(0,0,255)" /><sodipodi:guide
   position="1763.3122,2036.1693"
   orientation="1000,0"
   id="guide18" /><sodipodi:guide
   position="0,200"
   orientation="0,1"
   id="guide20"
   inkscape:label="base"
   inkscape:locked="true"
   inkscape:color="rgb(0,0,255)" /><inkscape:grid
   type="xygrid"
   id="grid24"
   originx="-473.37552"
   originy="-489.69235" /><sodipodi:guide
   position="0,0"
   orientation="0,1"
   id="guide34"
   inkscape:label="bottom"
   inkscape:locked="true"
   inkscape:color="rgb(0,0,255)" /><sodipodi:guide
   position="225.05109,1693.3186"
   orientation="0,1"
   id="guide44"
   inkscape:label=""
   inkscape:locked="false"
   inkscape:color="rgb(0,0,255)" /><sodipodi:guide
   position="0,900"
   orientation="0,1"
   id="guide46"
   inkscape:label=""
   inkscape:locked="true"
   inkscape:color="rgb(0,0,255)" /><sodipodi:guide
   position="423.1397,599.54977"
   orientation="1,0"
   id="guide841"
   inkscape:label="width" />    <sodipodi:guide
   position="566.60972,799.74293"
   orientation="0,-1"
   id="guide847" /></sodipodi:namedview>
 <defs
   id="defs4"><inkscape:path-effect
   effect="fillet_chamfer"
   id="path-effect848"
   is_visible="true"
   lpeversion="1"
   satellites_param="F,0,0,1,0,0,0,1 @ F,0,0,1,0,0,0,1 @ F,0,0,1,0,0,0,1 @ F,0,0,1,0,0,0,1 @ F,0,0,1,0,0,0,1 @ F,0,0,1,0,0,0,1 @ F,0,0,1,0,0,0,1 @ F,0,0,1,0,0,0,1 @ F,0,0,1,0,0,0,1 @ F,0,0,1,0,0,0,1 @ F,0,0,1,0,0,0,1 @ F,0,0,1,0,0,0,1 @ F,0,0,1,0,0,0,1 @ F,0,0,1,0,0,0,1 @ F,0,0,1,0,0,0,1 @ F,0,0,1,0,34.426126,0,1 @ F,0,0,1,0,22.673945,0,1 @ F,0,0,1,0,0,0,1 @ F,0,0,1,0,0,0,1 @ F,0,0,1,0,0,0,1 @ F,0,0,1,0,0,0,1 @ F,0,0,1,0,0,0,1 @ F,0,0,1,0,0,0,1 @ F,0,0,1,0,0,0,1 @ F,0,0,1,0,0,0,1 @ F,0,0,1,0,0,0,1 @ F,0,0,1,0,0,0,1 @ F,0,0,1,0,0,0,1 @ F,0,0,1,0,0,0,1 @ F,0,0,1,0,0,0,1 @ F,0,0,1,0,0,0,1 @ F,0,0,1,0,0,0,1 @ F,0,0,1,0,0,0,1 @ F,0,0,1,0,0,0,1 @ F,0,0,1,0,0,0,1 @ F,0,0,1,0,0,0,1 @ F,0,0,1,0,22.047495,0,1 @ F,0,0,1,0,12.051322,0,1 @ F,0,0,1,0,0,0,1"
   unit="px"
   method="auto"
   mode="F"
   radius="0"
   chamfer_steps="1"
   flexible="false"
   use_knot_distance="true"
   apply_no_radius="true"
   apply_with_radius="true"
   only_selected="true"
   hide_knots="false" /><inkscape:path-effect
   effect="spiro"
   id="path-effect851"
   is_visible="true"
   lpeversion="1" />
  <style
   type="text/css"
   id="style2">
   <![CDATA[
    .fil0 {fill:#EF7F1A;fill-rule:nonzero}
   ]]>
  </style>
 <inkscape:path-effect
   effect="spiro"
   id="path-effect1214"
   is_visible="true"
   lpeversion="1" /><inkscape:path-effect
   effect="spiro"
   id="path-effect1195"
   is_visible="true"
   lpeversion="1" /><inkscape:path-effect
   effect="spiro"
   id="path-effect992"
   is_visible="true"
   lpeversion="1" /><inkscape:path-effect
   effect="spiro"
   id="path-effect1060"
   is_visible="true"
   lpeversion="1" /><inkscape:path-effect
   effect="spiro"
   id="path-effect1047"
   is_visible="true"
   lpeversion="1" /><inkscape:path-effect
   effect="spiro"
   id="path-effect1085"
   is_visible="true"
   lpeversion="1" /><inkscape:path-effect
   effect="spiro"
   id="path-effect1286"
   is_visible="true"
   lpeversion="1" /></defs>
 
<path
   style="display:inline;fill:#1a1a1a;stroke:#000000;stroke-width:1.88308px;stroke-linecap:butt;stroke-linejoin:miter;stroke-opacity:1"
   d="m 311.13619,229.33198 c -34.80694,-22.19204 -77.11075,-30.22416 -118.39008,-30.06231 -45.09601,0.17682 -91.31048,10.19247 -128.198166,36.13433 -18.44384,12.97093 -34.290637,29.823 -45.15529,49.58102 -10.8646542,19.75803 -16.6341475,42.45023 -15.4443726,64.967 1.2963364,24.53347 10.8433826,48.35224 25.7268116,67.89847 14.88343,19.54623 34.945853,34.89396 57.109933,45.49231 39.856254,19.05834 85.331984,22.77377 126.608194,38.52228 30.35564,11.58188 58.558,30.03578 78.59019,55.61537 20.0322,25.5796 31.34821,58.61702 27.72638,90.90459 -2.92285,26.0563 -15.59736,50.88742 -34.92007,68.61048 -19.3227,17.72306 -45.11796,28.20372 -71.32317,29.07583 -28.52785,0.94941 -57.60597,-9.78948 -77.42716,-30.32872 -9.91059,-10.26962 -17.46207,-22.8392 -21.64817,-36.4833 -4.1861,-13.6441 -4.97777,-28.34541 -2.04887,-42.31346 2.30091,-10.97314 6.96158,-21.40827 13.44339,-30.55314 10.91453,-15.39879 10.1582,-27.13905 -8.23294,-31.96202 L 46.582142,555.81906 c -12.112885,-3.17653 -26.559428,3.34736 -30.485049,15.22837 -8.0698073,24.42349 -10.5400525,50.70452 -6.9858732,76.18632 4.5984742,32.96891 19.2628802,64.4651 41.5336412,89.20592 22.269794,24.73974 51.782809,42.51355 83.495139,52.62921 31.71234,10.11566 65.56548,12.7472 98.71746,9.75647 43.86164,-3.95688 87.44506,-18.08299 122.41654,-44.85044 34.97148,-26.76745 60.63413,-66.85824 65.47725,-110.63089 2.7489,-24.84482 -1.1973,-50.37266 -11.12975,-73.31102 -9.93245,-22.93835 -25.80924,-43.24528 -45.54684,-58.5831 -29.66772,-23.05438 -66.64946,-34.28734 -103.04328,-43.62371 -36.39383,-9.33637 -73.69585,-17.4574 -106.58805,-35.61728 -13.38367,-7.38916 -25.96622,-16.45181 -36.2204,-27.79086 -10.25418,-11.33906 -18.12401,-25.04555 -21.425038,-39.97289 -3.185892,-14.40671 -2.020868,-29.66703 2.759373,-43.62599 4.780245,-13.95896 13.109975,-26.61448 23.629445,-36.96069 21.03892,-20.69242 50.25781,-31.71306 79.61708,-34.68733 25.068,-2.53954 51.32525,0.66123 73.20423,13.1578 10.93949,6.24828 20.64099,14.77498 27.78155,25.15409 7.14057,10.37911 11.66495,22.62914 12.4269,35.20423 1.12151,18.50912 -5.96252,36.92932 -17.23714,51.65101 -5.43361,7.09487 -11.84404,13.43559 -18.97608,18.8198 -9.69806,7.32137 -9.33203,13.57982 2.49473,16.47718 l 77.05282,18.87663 c 6.4646,1.58371 13.97511,-2.03787 16.24251,-8.29376 11.6777,-32.21945 12.8613,-68.21005 3.08251,-101.07412 -10.92482,-36.71555 -35.43969,-69.2184 -67.73963,-89.81203 z"
   id="path1246-7"
   inkscape:path-effect="#path-effect1286;#path-effect848"
   inkscape:original-d="M 311.13619,229.33198 C 281.76818,201.13105 232.54637,190.68413 192.74611,199.26967 114.03757,216.24834 14.636721,270.14558 3.9482814,349.95202 c -6.2135735,46.39435 44.6754716,86.2843 82.8367446,113.39078 35.963654,25.54547 90.685744,12.91889 126.608194,38.52228 49.13886,35.02326 112.24863,85.95547 106.31657,146.51996 -4.75258,48.52243 -58.17274,99.60951 -106.24324,97.68631 -49.55255,-1.9825 -98.00325,-59.63158 -101.1242,-109.12548 -1.38762,-22.00576 38.51056,-53.7824 38.51056,-53.7824 L 24.649823,550.06744 C 27.540135,559.85822 10.72957,688.05317 50.644861,736.43967 91.497728,785.96272 169.70399,810.3635 232.85746,798.82535 312.8278,784.21476 401.67796,722.36891 420.75125,643.34402 431.97833,596.82775 398.6548,544.52594 364.07466,511.4499 310.09088,459.81422 215.51651,475.22703 154.44333,432.20891 130.19866,415.13169 96.224863,394.0949 96.797892,364.44516 97.806589,312.253 151.01617,255.73473 202.80379,249.17115 c 44.69436,-5.66458 98.52501,30.99518 113.41268,73.51612 5.99792,17.13077 -6.90864,36.85169 -17.23714,51.65101 -9.29223,13.3145 -37.8956,30.05085 -37.8956,30.05085 l 110.17226,26.99033 c 2.19723,-107.30579 -9.43637,-153.37821 -60.1198,-202.04748 z"
   sodipodi:nodetypes="aaaaaaaaccaaaaaaaaacca" /></svg>
