<?xml version="1.0" encoding="UTF-8" standalone="no"?>
<svg
   xmlns:dc="http://purl.org/dc/elements/1.1/"
   xmlns:cc="http://creativecommons.org/ns#"
   xmlns:rdf="http://www.w3.org/1999/02/22-rdf-syntax-ns#"
   xmlns:svg="http://www.w3.org/2000/svg"
   xmlns="http://www.w3.org/2000/svg"
   xmlns:sodipodi="http://sodipodi.sourceforge.net/DTD/sodipodi-0.dtd"
   xmlns:inkscape="http://www.inkscape.org/namespaces/inkscape"
   xml:space="preserve"
   width="1000"
   height="1000"
   version="1.1"
   style="clip-rule:evenodd;fill-rule:evenodd;image-rendering:optimizeQuality;shape-rendering:geometricPrecision;text-rendering:geometricPrecision"
   viewBox="0 0 1000 1000"
   id="svg10"
   sodipodi:docname="s.svg"
   inkscape:version="1.0.2 (e86c870879, 2021-01-15)"><metadata
   id="metadata14"><rdf:RDF><cc:Work
       rdf:about=""><dc:format>image/svg+xml</dc:format><dc:type
         rdf:resource="http://purl.org/dc/dcmitype/StillImage" /><dc:title /></cc:Work></rdf:RDF></metadata><sodipodi:namedview
   pagecolor="#ffffff"
   bordercolor="#666666"
   borderopacity="1"
   objecttolerance="10"
   gridtolerance="10"
   guidetolerance="10"
   inkscape:pageopacity="0"
   inkscape:pageshadow="2"
   inkscape:window-width="1920"
   inkscape:window-height="1007"
   id="namedview12"
   showgrid="false"
   inkscape:zoom="1.2005384"
   inkscape:cx="282.09385"
   inkscape:cy="447.75851"
   inkscape:window-x="1920"
   inkscape:window-y="0"
   inkscape:window-maximized="1"
   inkscape:current-layer="svg10"
   showguides="true"
   inkscape:guide-bbox="true"
   inkscape:document-rotation="0"><sodipodi:guide
   position="0,1000"
   orientation="0,1"
   id="guide16"
   inkscape:label=""
   inkscape:locked="true"
   inkscape:color="rgb(0,0,255)" /><sodipodi:guide
   position="1763.3122,2036.1693"
   orientation="1000,0"
   id="guide18" /><sodipodi:guide
   position="0,200"
   orientation="0,1"
   id="guide20"
   inkscape:label="base"
   inkscape:locked="true"
   inkscape:color="rgb(0,0,255)" /><inkscape:grid
   type="xygrid"
   id="grid24"
   originx="-473.37552"
   originy="-489.69235" /><sodipodi:guide
   position="0,0"
   orientation="0,1"
   id="guide34"
   inkscape:label="bottom"
   inkscape:locked="true"
   inkscape:color="rgb(0,0,255)" /><sodipodi:guide
   position="225.05109,1693.3186"
   orientation="0,1"
   id="guide44"
   inkscape:label=""
   inkscape:locked="false"
   inkscape:color="rgb(0,0,255)" /><sodipodi:guide
   position="0,900"
   orientation="0,1"
   id="guide46"
   inkscape:label=""
   inkscape:locked="true"
   inkscape:color="rgb(0,0,255)" /><sodipodi:guide
   position="423.1397,599.54977"
   orientation="1,0"
   id="guide841"
   inkscape:label="width" />    <sodipodi:guide
   position="566.60972,799.74293"
   orientation="0,-1"
   id="guide847" /></sodipodi:namedview>
 <defs
   id="defs4"><inkscape:path-effect
   effect="fillet_chamfer"
   id="path-effect848"
   is_visible="true"
   lpeversion="1"
   satellites_param="F,0,0,1,0,0,0,1 @ F,0,0,1,0,0,0,1 @ F,0,0,1,0,0,0,1 @ F,0,0,1,0,0,0,1 @ F,0,0,1,0,0,0,1 @ F,0,0,1,0,0,0,1 @ F,0,0,1,0,0,0,1 @ F,0,0,1,0,0,0,1 @ F,0,0,1,0,0,0,1 @ F,0,0,1,0,0,0,1 @ F,0,0,1,0,0,0,1 @ F,0,0,1,0,0,0,1 @ F,0,0,1,0,0,0,1 @ F,0,0,1,0,0,0,1 @ F,0,0,1,0,0,0,1 @ F,0,0,1,0,34.426126,0,1 @ F,0,0,1,0,22.673945,0,1 @ F,0,0,1,0,0,0,1 @ F,0,0,1,0,0,0,1 @ F,0,0,1,0,0,0,1 @ F,0,0,1,0,0,0,1 @ F,0,0,1,0,0,0,1 @ F,0,0,1,0,0,0,1 @ F,0,0,1,0,0,0,1 @ F,0,0,1,0,0,0,1 @ F,0,0,1,0,0,0,1 @ F,0,0,1,0,0,0,1 @ F,0,0,1,0,0,0,1 @ F,0,0,1,0,0,0,1 @ F,0,0,1,0,0,0,1 @ F,0,0,1,0,0,0,1 @ F,0,1,1,0,0,0,1 @ F,0,0,1,0,0,0,1 @ F,0,0,1,0,0,0,1 @ F,0,0,1,0,0,0,1 @ F,0,0,1,0,0,0,1 @ F,0,0,1,0,22.047495,0,1 @ F,0,1,1,0,12.051322,0,1 @ F,0,0,1,0,0,0,1"
   unit="px"
   method="auto"
   mode="F"
   radius="0"
   chamfer_steps="1"
   flexible="false"
   use_knot_distance="true"
   apply_no_radius="true"
   apply_with_radius="true"
   only_selected="true"
   hide_knots="false" /><inkscape:path-effect
   effect="spiro"
   id="path-effect851"
   is_visible="true"
   lpeversion="1" />
  <style
   type="text/css"
   id="style2">
   <![CDATA[
    .fil0 {fill:#EF7F1A;fill-rule:nonzero}
   ]]>
  </style>
 <inkscape:path-effect
   effect="spiro"
   id="path-effect1214"
   is_visible="true"
   lpeversion="1" /><inkscape:path-effect
   effect="spiro"
   id="path-effect1195"
   is_visible="true"
   lpeversion="1" /><inkscape:path-effect
   effect="spiro"
   id="path-effect992"
   is_visible="true"
   lpeversion="1" /><inkscape:path-effect
   effect="spiro"
   id="path-effect1060"
   is_visible="true"
   lpeversion="1" /><inkscape:path-effect
   effect="spiro"
   id="path-effect1047"
   is_visible="true"
   lpeversion="1" /><inkscape:path-effect
   effect="spiro"
   id="path-effect1085"
   is_visible="true"
   lpeversion="1" /><inkscape:path-effect
   effect="spiro"
   id="path-effect1286"
   is_visible="true"
   lpeversion="1" /></defs>
 
<path
   style="display:inline;fill:#1a1a1a;stroke:#000000;stroke-width:1.88308px;stroke-linecap:butt;stroke-linejoin:miter;stroke-opacity:1"
   d="M 311.13619,229.33198 C 275.84831,208.04129 233.95878,199.47853 192.74611,199.26967 147.58306,199.04079 101.22435,209.0326 64.323616,235.07273 45.873248,248.0928 30.050814,265.02001 19.231905,284.84145 8.4129965,304.66289 2.7089651,327.40424 3.9482814,349.95202 c 1.347967,24.52454 10.8975726,48.32555 25.7702346,67.87227 14.872661,19.54671 34.913906,34.91039 57.06651,45.51851 39.845934,19.08085 85.328784,22.78101 126.608194,38.52228 30.35847,11.57674 58.56275,30.0308 78.59467,55.61165 20.03192,25.58084 31.34547,58.62012 27.7219,90.90831 -2.92415,26.05594 -15.59868,50.88649 -34.92109,68.60955 -19.32241,17.72306 -45.11717,28.20423 -71.32215,29.07676 -28.52793,0.94987 -57.60627,-9.78901 -77.42747,-30.32836 -9.9106,-10.26968 -17.46204,-22.83935 -21.64808,-36.48352 -4.18604,-13.64416 -4.97762,-28.34552 -2.04865,-42.3136 2.30095,-10.97312 6.96164,-21.40822 13.44344,-30.55308 10.91453,-15.3988 10.15815,-27.13911 -8.23299,-31.96208 L 46.582142,555.81906 c -12.112885,-3.17653 -26.560314,3.34693 -30.486827,15.22764 -8.0718398,24.42349 -10.5431953,50.70529 -6.9889277,76.18772 4.5985637,32.96954 19.2649377,64.46607 41.5384737,89.20525 22.271537,24.73696 51.785829,42.50646 83.497709,52.62058 31.71188,10.11411 65.56303,12.74716 98.71489,9.7651 43.86968,-3.94615 87.46778,-18.05378 122.4494,-44.81956 34.98162,-26.76577 60.6463,-66.87708 65.44439,-110.66177 2.72198,-24.83928 -1.25815,-50.35108 -11.19726,-73.27733 -9.93911,-22.92625 -25.79272,-43.2273 -45.47933,-58.61679 -29.60105,-23.13984 -66.50246,-34.59693 -102.87349,-44.0215 -36.37104,-9.42457 -73.64081,-17.47303 -106.75784,-35.21949 -13.52321,-7.2467 -26.30934,-16.14012 -36.65697,-27.46789 -10.34764,-11.32776 -18.186208,-25.21146 -20.988468,-40.29586 -2.580343,-13.88984 -0.799785,-28.46474 4.422948,-41.59139 5.22274,-13.12664 13.81267,-24.81311 24.33428,-34.24081 21.04321,-18.8554 49.16489,-28.33626 77.24867,-31.44181 25.73422,-2.84573 52.87258,-0.43274 75.39826,12.33215 11.26283,6.38245 21.17296,15.31459 28.05973,26.27632 6.88678,10.96172 10.65764,23.9812 9.95469,36.90765 -0.82899,15.24404 -7.76314,29.67974 -17.23714,41.65101 -5.533,6.99146 -11.96391,13.26766 -19.07013,18.65208 -9.68758,7.34034 -9.16005,13.40283 2.76285,15.87496 l 96.7836,20.06742 c 6.51715,1.35129 13.29682,-2.74514 14.64551,-9.26149 7.06954,-34.15725 4.01961,-70.38623 -8.84269,-102.82261 -14.34339,-36.17141 -40.80519,-67.41503 -74.12228,-87.51666 z"
   id="path1246-7"
   inkscape:path-effect="#path-effect1286;#path-effect848"
   inkscape:original-d="M 311.13619,229.33198 C 280.552,202.45485 232.54637,190.68413 192.74611,199.26967 114.03757,216.24834 14.636721,270.14558 3.9482814,349.95202 c -6.2135735,46.39435 44.6754716,86.2843 82.8367446,113.39078 35.963654,25.54547 90.685744,12.91889 126.608194,38.52228 49.13886,35.02326 112.24863,85.95547 106.31657,146.51996 -4.75258,48.52243 -58.17274,99.60951 -106.24324,97.68631 -49.55255,-1.9825 -98.00325,-59.63158 -101.1242,-109.12548 -1.38762,-22.00576 38.51056,-53.7824 38.51056,-53.7824 L 24.649823,550.06744 C 27.540135,559.85822 10.72957,688.05317 50.644861,736.43967 91.497728,785.96272 169.70399,810.3635 232.85746,798.82535 312.8278,784.21476 401.67796,722.36891 420.75125,643.34402 431.97833,596.82775 398.6548,544.52594 364.07466,511.4499 310.09088,459.81422 215.51651,475.22703 154.44333,432.20891 130.19866,415.13169 95.692565,394.07984 96.797892,364.44516 98.671635,314.20865 152.79339,262.28758 202.80379,257.17115 c 45.18212,-4.62246 100.18676,32.06654 113.41268,75.51612 4.37553,14.37443 -8.18737,29.65638 -17.23714,41.65101 -9.70981,12.86946 -37.8956,30.05085 -37.8956,30.05085 l 130.17226,26.99033 c 2.19723,-107.30579 -25.69723,-154.22138 -80.1198,-202.04748 z"
   sodipodi:nodetypes="aaaaaaaaccaaaaaaaaacca" /></svg>
