<?xml version="1.0" encoding="UTF-8"?>
<!DOCTYPE svg PUBLIC "-//W3C//DTD SVG 1.1//EN" "http://www.w3.org/Graphics/SVG/1.1/DTD/svg11.dtd">
<!-- Creator: CorelDRAW X8 -->
<svg xmlns="http://www.w3.org/2000/svg" xml:space="preserve" width="1591px" height="1024px" version="1.1" style="shape-rendering:geometricPrecision; text-rendering:geometricPrecision; image-rendering:optimizeQuality; fill-rule:evenodd; clip-rule:evenodd"
viewBox="0 0 1591 1024"
 xmlns:xlink="http://www.w3.org/1999/xlink">
 <defs>
  <style type="text/css">
   <![CDATA[
    .fil0 {fill:#EF7F1A;fill-rule:nonzero}
   ]]>
  </style>
 </defs>
 <g id="Layer_x0020_1">
  <metadata id="CorelCorpID_0Corel-Layer"/>
  <path class="fil0" d="M1104 1024c34,0 95,-10 109,-45l374 -927c2,-4 4,-9 4,-13 0,-25 -41,-39 -81,-39 -34,0 -66,10 -75,32l-290 717 -214 -703c-11,-36 -72,-45 -104,-45 -32,0 -97,9 -108,45l-222 705 -287 -708c-12,-29 -58,-43 -104,-43 -53,0 -106,19 -106,52 0,8 1,10 4,17l370 912c14,34 71,43 104,43 33,0 95,-10 107,-47l212 -669 203 671c11,36 72,45 104,45z"/>
 </g>
</svg>
