<?xml version="1.0" encoding="UTF-8"?>
<!DOCTYPE svg PUBLIC "-//W3C//DTD SVG 1.1//EN" "http://www.w3.org/Graphics/SVG/1.1/DTD/svg11.dtd">
<!-- Creator: CorelDRAW X8 -->
<svg xmlns="http://www.w3.org/2000/svg" xml:space="preserve" width="1866px" height="1405px" version="1.1" style="shape-rendering:geometricPrecision; text-rendering:geometricPrecision; image-rendering:optimizeQuality; fill-rule:evenodd; clip-rule:evenodd"
viewBox="0 0 1866 1405"
 xmlns:xlink="http://www.w3.org/1999/xlink">
 <defs>
  <style type="text/css">
   <![CDATA[
    .fil0 {fill:#EF7F1A;fill-rule:nonzero}
   ]]>
  </style>
 </defs>
 <g id="Layer_x0020_1">
  <metadata id="CorelCorpID_0Corel-Layer"/>
  <path class="fil0" d="M1413 1359l453 -1312c1,-3 1,-5 1,-8 0,-25 -41,-39 -81,-39 -34,0 -67,10 -75,33l-368 1065 -276 -1050c-10,-38 -72,-48 -105,-48 -29,0 -100,12 -108,45l-273 1053 -370 -1051c-11,-31 -58,-47 -105,-47 -53,0 -113,21 -107,55l2 10 458 1297c12,35 72,44 105,43 32,0 98,-11 108,-47l261 -1006 266 1007c10,37 70,46 105,46 33,0 97,-10 109,-46z"/>
 </g>
</svg>
