<?xml version="1.0" encoding="UTF-8"?>
<!DOCTYPE svg PUBLIC "-//W3C//DTD SVG 1.1//EN" "http://www.w3.org/Graphics/SVG/1.1/DTD/svg11.dtd">
<!-- Creator: CorelDRAW X8 -->
<svg xmlns="http://www.w3.org/2000/svg" xml:space="preserve" width="1268px" height="1357px" version="1.1" style="shape-rendering:geometricPrecision; text-rendering:geometricPrecision; image-rendering:optimizeQuality; fill-rule:evenodd; clip-rule:evenodd"
viewBox="0 0 1268 1357"
 xmlns:xlink="http://www.w3.org/1999/xlink">
 <defs>
  <style type="text/css">
   <![CDATA[
    .fil0 {fill:#EF7F1A;fill-rule:nonzero}
   ]]>
  </style>
 </defs>
 <g id="Layer_x0020_1">
  <metadata id="CorelCorpID_0Corel-Layer"/>
  <path class="fil0" d="M1158 1357c32,0 110,-13 110,-55 0,-43 -78,-56 -110,-56l-883 0 982 -1169c6,-7 9,-15 9,-22 0,-16 -13,-30 -30,-38 -26,-12 -61,-17 -80,-17l-1022 0c-33,0 -110,13 -110,55 0,42 78,55 110,55l857 0 -982 1170c-7,8 -9,15 -9,22 0,15 13,28 29,36 27,14 65,19 81,19l1048 0z"/>
 </g>
</svg>
