<svg xmlns="http://www.w3.org/2000/svg" xmlns:dc="http://purl.org/dc/elements/1.1/" xmlns:ns1="http://sodipodi.sourceforge.net/DTD/sodipodi-0.dtd" xmlns:ns2="http://www.inkscape.org/namespaces/inkscape" xmlns:ns4="http://creativecommons.org/ns#" xmlns:rdf="http://www.w3.org/1999/02/22-rdf-syntax-ns#" xml:space="preserve" width="1000" height="1000" version="1.1" style="clip-rule:evenodd;fill-rule:evenodd;image-rendering:optimizeQuality;shape-rendering:geometricPrecision;text-rendering:geometricPrecision" viewBox="0 0 1000 1000" id="svg10" ns1:docname="รฐ.svg" ns2:version="1.1.1 (3bf5ae0d25, 2021-09-20)"><metadata id="metadata14"><rdf:RDF><ns4:Work rdf:about=""><dc:format>image/svg+xml</dc:format><dc:type rdf:resource="http://purl.org/dc/dcmitype/StillImage" /><dc:title /></ns4:Work></rdf:RDF></metadata><ns1:namedview pagecolor="#ffffff" bordercolor="#666666" borderopacity="1" objecttolerance="10" gridtolerance="10" guidetolerance="10" ns2:pageopacity="0" ns2:pageshadow="2" ns2:window-width="1920" ns2:window-height="1009" id="namedview12" showgrid="false" ns2:zoom="0.84890884" ns2:cx="165.50658" ns2:cy="204.969" ns2:window-x="0" ns2:window-y="60" ns2:window-maximized="1" ns2:current-layer="g24621" showguides="true" ns2:guide-bbox="true" ns2:document-rotation="0" ns2:pagecheckerboard="0"><ns1:guide position="0,1000" orientation="0,1" id="guide16" ns2:label="" ns2:locked="true" ns2:color="rgb(0,0,255)" /><ns1:guide position="1763.3122,2036.1693" orientation="1000,0" id="guide18" /><ns1:guide position="0,200" orientation="0,1" id="guide20" ns2:label="base" ns2:locked="true" ns2:color="rgb(0,0,255)" /><ns2:grid type="xygrid" id="grid24" originx="-473.37552" originy="-489.69235" /><ns1:guide position="0,0" orientation="0,1" id="guide34" ns2:label="bottom" ns2:locked="true" ns2:color="rgb(0,0,255)" /><ns1:guide position="225.05109,1693.3186" orientation="0,1" id="guide44" ns2:label="" ns2:locked="false" ns2:color="rgb(0,0,255)" /><ns1:guide position="0,900" orientation="0,1" id="guide46" ns2:label="" ns2:locked="true" ns2:color="rgb(0,0,255)" /><ns1:guide position="479.0795,834.54867" orientation="1,0" id="guide841" ns2:label="width" />    <ns1:guide position="-210.85892,799.74293" orientation="0,-1" id="guide856" /></ns1:namedview>
 <defs id="defs4"><ns2:path-effect effect="fillet_chamfer" id="path-effect25183" is_visible="true" lpeversion="1" satellites_param="F,0,0,1,0,15.486589,0,1 @ F,0,1,1,0,15.486589,0,1 @ F,0,0,1,0,0,0,1 @ F,0,1,1,0,15.486589,0,1 @ F,0,1,1,0,15.486589,0,1 @ F,0,0,1,0,0,0,1" unit="px" method="auto" mode="F" radius="0" chamfer_steps="1" flexible="false" use_knot_distance="true" apply_no_radius="true" apply_with_radius="true" only_selected="false" hide_knots="false" /><ns2:path-effect effect="fillet_chamfer" id="path-effect25044" is_visible="true" lpeversion="1" satellites_param="F,0,0,1,0,0,0,1 @ F,0,0,1,0,0,0,1 @ F,0,0,1,0,0,0,1 @ F,0,0,1,0,0,0,1 @ F,0,0,1,0,0,0,1 @ F,0,0,1,0,0,0,1 @ F,0,0,1,0,0,0,1 @ F,0,0,1,0,0,0,1 @ F,0,0,1,0,0,0,1 @ F,0,0,1,0,0,0,1 @ F,0,0,1,0,0,0,1 | F,0,0,1,0,0,0,1 @ F,0,0,1,0,0,0,1 @ F,0,0,1,0,0,0,1 @ F,0,0,1,0,0,0,1 @ F,0,0,1,0,0,0,1 @ F,0,0,1,0,0,0,1 @ F,0,0,1,0,0,0,1 @ F,0,0,1,0,0,0,1 @ F,0,0,1,0,0,0,1 @ F,0,0,1,0,0,0,1 @ F,0,0,1,0,0,0,1 @ F,0,0,1,0,0,0,1 @ F,0,0,1,0,7.8602619,0,1 @ F,0,0,1,0,11.716345,0,1 @ F,0,0,1,0,0,0,1 @ F,0,0,1,0,0,0,1" unit="px" method="auto" mode="F" radius="0" chamfer_steps="1" flexible="false" use_knot_distance="true" apply_no_radius="true" apply_with_radius="true" only_selected="false" hide_knots="false" /><ns2:path-effect effect="spiro" id="path-effect2489" is_visible="true" lpeversion="1" /><ns2:path-effect effect="spiro" id="path-effect857" is_visible="true" lpeversion="1" /><ns2:path-effect effect="spiro" id="path-effect137" is_visible="true" lpeversion="1" /><ns2:path-effect effect="spiro" id="path-effect133" is_visible="true" lpeversion="1" /><ns2:path-effect effect="spiro" id="path-effect114" is_visible="true" lpeversion="1" /><ns2:path-effect effect="spiro" id="path-effect853" is_visible="true" lpeversion="1" /><ns2:path-effect effect="spiro" id="path-effect928" is_visible="true" lpeversion="1" /><ns2:path-effect effect="spiro" id="path-effect921" is_visible="true" lpeversion="1" /><ns2:path-effect effect="spiro" id="path-effect917" is_visible="true" lpeversion="1" /><ns2:path-effect effect="spiro" id="path-effect849" is_visible="true" lpeversion="1" /><ns2:path-effect effect="spiro" id="path-effect851" is_visible="true" lpeversion="1" />
  <style type="text/css" id="style2">
   
    .fil0 {fill:#EF7F1A;fill-rule:nonzero}
   
  </style>
 <ns2:path-effect effect="spiro" id="path-effect1214" is_visible="true" lpeversion="1" /><ns2:path-effect effect="spiro" id="path-effect1195" is_visible="true" lpeversion="1" /><ns2:path-effect effect="spiro" id="path-effect992" is_visible="true" lpeversion="1" /><ns2:path-effect effect="spiro" id="path-effect1060" is_visible="true" lpeversion="1" /><ns2:path-effect effect="spiro" id="path-effect1047" is_visible="true" lpeversion="1" /><ns2:path-effect effect="spiro" id="path-effect1085" is_visible="true" lpeversion="1" /><ns2:path-effect effect="spiro" id="path-effect1286" is_visible="true" lpeversion="1" /><ns2:path-effect effect="spiro" id="path-effect117" is_visible="true" lpeversion="1" /></defs>
 
<g id="g24621"><path id="path135" style="fill:#a51d2d;fill-rule:nonzero;stroke:none;stroke-width:0.854746px;stroke-linecap:butt;stroke-linejoin:miter;stroke-opacity:1" d="m 408.59482,499.34567 c -0.22002,49.34351 -15.65885,99.35206 -47.48821,137.05779 -15.91468,18.85287 -35.76162,34.46511 -58.13036,44.87411 -22.36874,10.409 -47.25656,15.54834 -71.89006,14.17047 C 184.99736,692.87007 141.68147,667.09017 113.70563,630.37261 85.72979,593.65506 72.447965,546.93304 72.193078,500.77287 71.927152,452.61345 85.890664,403.67429 115.70405,365.85152 c 14.9067,-18.91138 33.63212,-34.88601 54.97206,-46.04204 21.33993,-11.15604 45.29645,-17.43357 69.37638,-17.51651 24.03888,-0.0828 47.99889,6.0088 69.38178,16.99272 21.38289,10.98393 40.18948,26.80111 55.18933,45.58618 29.99971,37.57015 44.1856,86.39624 43.97122,134.4738 z M 239.93447,200.25707 C 204.37422,198.9471 168.70901,208.5654 137.76407,226.13405 106.81912,243.7027 80.549211,269.04727 60.451148,298.41248 20.255023,357.14288 5.3662361,430.2921 6.1837316,501.45614 6.9650825,569.47374 22.010371,638.8291 59.719301,695.44219 c 18.854466,28.30654 43.245539,53.09249 72.067129,71.14982 28.8216,18.05732 62.11778,29.25794 96.09303,30.81796 35.85752,1.64645 71.9224,-7.48751 103.50613,-24.54447 31.58374,-17.05696 58.7291,-41.87158 79.943,-70.82745 42.42781,-57.91174 60.48844,-130.81297 63.27478,-202.54947 2.78938,-71.8146 -8.91227,-144.15044 -34.08848,-211.4652 C 418.47105,229.08376 386.38921,174.37261 351.11427,122.26227 314.50504,68.180839 274.28442,16.544531 230.81026,-32.189751 c -2.88981,-3.239463 -8.07288,-3.752622 -11.55736,-1.163488 L 113.86019,44.958658 c -5.19388,3.859309 -4.19074,7.597431 2.1871,8.686474 60.92221,10.40271 117.80837,43.447904 156.77899,91.456418 18.17864,22.39455 32.54929,47.8723 42.31148,75.01412 -23.19177,-12.05984 -49.08104,-18.8963 -75.20329,-19.8586 z" ns1:nodetypes="aaaaaaaaaaaccaca" ns2:path-effect="#path-effect857;#path-effect25044" ns2:original-d="M 408.59482,499.34567 C 407.3561,587.50691 319.22732,697.70198 231.08619,695.44804 147.35104,693.30677 71.461502,584.5322 72.193078,500.77287 72.949856,414.12807 153.40472,302.53408 240.05249,302.29297 326.48536,302.05246 409.80914,412.921 408.59482,499.34567 Z M 239.93447,200.25707 C 119.55406,240.9965 7.2676928,374.37362 6.1837316,501.45614 5.1324117,624.71184 104.65589,794.40553 227.87946,797.40997 356.78121,800.55285 440.71795,623.89644 474.60337,499.48858 493.36685,430.59983 463.46331,355.63328 440.51489,288.02338 420.33732,228.57686 385.49267,174.78988 351.11427,122.26227 313.94556,65.471275 225.5621,-38.04128 225.5621,-38.04128 L 104.45583,51.946555 c 0,0 122.8302,47.987121 168.37045,93.154995 20.38283,20.21617 42.31148,75.01412 42.31148,75.01412 0,0 -50.6445,-28.16984 -75.20329,-19.8586 z" /><path style="fill:#a51d2d;fill-opacity:1;stroke:none;stroke-width:1px;stroke-linecap:butt;stroke-linejoin:miter;stroke-opacity:1" d="m 73.914841,136.73495 55.491339,52.8424 c 6.19392,5.89825 16.30916,5.97289 22.79281,0.39525 45.35983,-39.02135 97.88757,-69.69732 154.18503,-89.9726 35.45913,-12.770452 72.3923,-21.440419 109.82785,-25.797742 8.4953,-0.988813 11.26857,-7.109204 6.16176,-13.970283 l -62.96795,-84.598422 c -5.10681,-6.861079 -14.39276,-7.775017 -20.86764,-2.186873 -36.51574,31.5148993 -76.00578,59.582938 -117.77778,83.7015 -45.40945,26.218776 -93.514,47.76574 -143.306307,64.20173 -8.121821,2.68094 -9.733031,9.48679 -3.539112,15.38504 z" id="path2487" ns2:path-effect="#path-effect2489;#path-effect25183" ns2:original-d="m 62.699759,126.05523 77.921501,74.20184 c 0,0 105.78193,-76.33713 165.76276,-100.25707 C 346.07336,84.172167 431.62033,72.655058 431.62033,72.655058 L 350.15898,-36.78953 c 0,0 -83.13105,67.475905 -129.39872,93.93771 -49.8923,28.534833 -158.060501,68.90705 -158.060501,68.90705 z" ns1:nodetypes="ccaccac" /></g></svg>