<svg xmlns="http://www.w3.org/2000/svg" xmlns:dc="http://purl.org/dc/elements/1.1/" xmlns:ns1="http://sodipodi.sourceforge.net/DTD/sodipodi-0.dtd" xmlns:ns2="http://www.inkscape.org/namespaces/inkscape" xmlns:ns4="http://creativecommons.org/ns#" xmlns:rdf="http://www.w3.org/1999/02/22-rdf-syntax-ns#" xml:space="preserve" width="1000" height="1000" version="1.1" style="clip-rule:evenodd;fill-rule:evenodd;image-rendering:optimizeQuality;shape-rendering:geometricPrecision;text-rendering:geometricPrecision" viewBox="0 0 1000 1000" id="svg10" ns1:docname="ം.svg" ns2:version="1.1.1 (3bf5ae0d25, 2021-09-20)"><metadata id="metadata14"><rdf:RDF><ns4:Work rdf:about=""><dc:format>image/svg+xml</dc:format><dc:type rdf:resource="http://purl.org/dc/dcmitype/StillImage" /></ns4:Work></rdf:RDF></metadata><ns1:namedview pagecolor="#ffffff" bordercolor="#666666" borderopacity="1" objecttolerance="10" gridtolerance="10" guidetolerance="10" ns2:pageopacity="0" ns2:pageshadow="2" ns2:window-width="1920" ns2:window-height="1009" id="namedview12" showgrid="false" ns2:zoom="1.6978177" ns2:cx="313.63791" ns2:cy="603.12718" ns2:window-x="0" ns2:window-y="0" ns2:window-maximized="1" ns2:current-layer="svg10" showguides="true" ns2:guide-bbox="true" ns2:document-rotation="0" ns2:pagecheckerboard="0"><ns1:guide position="0,1000" orientation="0,1" id="guide16" ns2:label="" ns2:locked="true" ns2:color="rgb(0,0,255)" /><ns1:guide position="1763.3122,2036.1693" orientation="1000,0" id="guide18" /><ns1:guide position="0,200" orientation="0,1" id="guide20" ns2:label="base" ns2:locked="true" ns2:color="rgb(0,0,255)" /><ns2:grid type="xygrid" id="grid24" originx="-473.37552" originy="-489.69235" /><ns1:guide position="0,0" orientation="0,1" id="guide34" ns2:label="bottom" ns2:locked="true" ns2:color="rgb(0,0,255)" /><ns1:guide position="225.05109,1693.3186" orientation="0,1" id="guide44" ns2:label="" ns2:locked="false" ns2:color="rgb(0,0,255)" /><ns1:guide position="0,900" orientation="0,1" id="guide46" ns2:label="" ns2:locked="true" ns2:color="rgb(0,0,255)" /><ns1:guide position="365.6608,599.01239" orientation="1,0" id="guide841" ns2:label="width" />    </ns1:namedview>
 <defs id="defs4"><ns2:path-effect effect="spiro" id="path-effect851" is_visible="true" lpeversion="1" />
  <style type="text/css" id="style2">
   
    .fil0 {fill:#EF7F1A;fill-rule:nonzero}
   
  </style>
 <ns2:path-effect effect="spiro" id="path-effect1214" is_visible="true" lpeversion="1" /><ns2:path-effect effect="spiro" id="path-effect1195" is_visible="true" lpeversion="1" /><ns2:path-effect effect="spiro" id="path-effect992" is_visible="true" lpeversion="1" /><ns2:path-effect effect="spiro" id="path-effect1060" is_visible="true" lpeversion="1" /><ns2:path-effect effect="spiro" id="path-effect1047" is_visible="true" lpeversion="1" /></defs>
 
<path id="path1006-5" style="display:inline;fill:#63452c;fill-rule:nonzero;stroke:none;stroke-width:2.38344px;stroke-linecap:butt;stroke-linejoin:miter;stroke-opacity:1" d="m 325.29505,696.70402 c 20.05569,-43.6485 24.9536,-94.12144 13.4848,-140.76786 -7.85635,-31.95368 -23.38191,-62.23454 -46.1449,-85.99599 -21.3352,-22.27103 -48.94468,-38.57206 -78.89043,-45.9505 -24.49411,-6.03519 -50.46696,-6.09764 -74.9309,0.0587 -24.46395,6.1563 -47.364169,18.5429 -65.738628,35.82769 -21.614854,20.33302 -36.692228,47.12749 -44.877542,75.65177 -8.185313,28.52427 -9.657968,58.73643 -6.390428,88.23146 4.814933,43.46284 20.373933,86.48307 48.973393,119.56287 14.29973,16.53989 31.747225,30.44231 51.392645,40.03958 19.64543,9.59728 41.49744,14.83142 63.35857,14.45541 30.3205,-0.52151 60.0421,-11.9097 84.20886,-30.22833 24.16675,-18.31864 42.89337,-43.32939 55.55456,-70.88476 z M 99.577812,652.8475 C 84.906042,626.24203 83.057048,592.72757 95.5231,565.02 c 6.23303,-13.85378 15.85713,-26.18265 27.85776,-35.4973 12.00063,-9.31466 26.3614,-15.5873 41.36904,-17.94284 27.06214,-4.24756 55.7433,4.77609 76.00742,23.20885 20.26412,18.43276 31.90592,45.78043 31.9012,73.17388 -0.004,20.96047 -6.68131,41.9531 -19.2382,58.73601 -12.55688,16.78291 -30.99367,29.18884 -51.40284,33.96453 -19.69789,4.60925 -40.91169,2.05079 -59.17107,-6.65823 -18.25938,-8.70902 -33.49958,-23.44248 -43.268598,-41.1574 z" ns1:nodetypes="aaaaaacaaaaaa" ns2:path-effect="#path-effect851" ns2:original-d="m 325.29505,696.70402 c 23.42169,-40.90673 22.78,-94.556 13.4848,-140.76786 -6.415,-31.89269 -23.54693,-62.59455 -46.1449,-85.99599 -21.13982,-21.89145 -48.75084,-41.73945 -78.89043,-45.9505 -47.9261,-6.69615 -105.55009,2.59409 -140.669528,35.88635 -41.539845,39.37863 -64.083655,108.09799 -51.26797,163.88323 17.83439,77.63111 75.886383,181.63266 163.724608,174.05786 57.14398,-6.40106 111.19208,-51.21233 139.76342,-101.11309 z M 99.577812,652.8475 C 81.750682,604.14924 113.97449,522.12428 164.7499,511.57986 c 47.22103,-9.80629 103.31944,48.37306 107.90862,96.38273 3.69672,38.67321 -32.91861,83.41071 -70.64104,92.70054 -36.58999,9.01095 -89.48556,-12.42897 -102.439668,-47.81563 z" /></svg>