<?xml version="1.0" encoding="UTF-8" standalone="no"?>
<svg
   xml:space="preserve"
   width="1000"
   height="1000"
   version="1.1"
   style="clip-rule:evenodd;fill-rule:evenodd;image-rendering:optimizeQuality;shape-rendering:geometricPrecision;text-rendering:geometricPrecision"
   viewBox="0 0 1000 1000"
   id="svg10"
   sodipodi:docname="ഃ.svg"
   inkscape:version="1.1.1 (3bf5ae0d25, 2021-09-20)"
   xmlns:inkscape="http://www.inkscape.org/namespaces/inkscape"
   xmlns:sodipodi="http://sodipodi.sourceforge.net/DTD/sodipodi-0.dtd"
   xmlns="http://www.w3.org/2000/svg"
   xmlns:svg="http://www.w3.org/2000/svg"
   xmlns:rdf="http://www.w3.org/1999/02/22-rdf-syntax-ns#"
   xmlns:cc="http://creativecommons.org/ns#"
   xmlns:dc="http://purl.org/dc/elements/1.1/"><metadata
   id="metadata14"><rdf:RDF><cc:Work
       rdf:about=""><dc:format>image/svg+xml</dc:format><dc:type
         rdf:resource="http://purl.org/dc/dcmitype/StillImage" /><dc:title /></cc:Work></rdf:RDF></metadata><sodipodi:namedview
   pagecolor="#ffffff"
   bordercolor="#666666"
   borderopacity="1"
   objecttolerance="10"
   gridtolerance="10"
   guidetolerance="10"
   inkscape:pageopacity="0"
   inkscape:pageshadow="2"
   inkscape:window-width="1920"
   inkscape:window-height="1009"
   id="namedview12"
   showgrid="false"
   inkscape:zoom="0.84890884"
   inkscape:cx="198.4901"
   inkscape:cy="430.55271"
   inkscape:window-x="0"
   inkscape:window-y="0"
   inkscape:window-maximized="1"
   inkscape:current-layer="g874"
   showguides="true"
   inkscape:guide-bbox="true"
   inkscape:document-rotation="0"
   inkscape:pagecheckerboard="0"><sodipodi:guide
   position="0,1000"
   orientation="0,1"
   id="guide16"
   inkscape:label=""
   inkscape:locked="true"
   inkscape:color="rgb(0,0,255)" /><sodipodi:guide
   position="1763.3122,2036.1693"
   orientation="1000,0"
   id="guide18" /><sodipodi:guide
   position="0,200"
   orientation="0,1"
   id="guide20"
   inkscape:label="base"
   inkscape:locked="true"
   inkscape:color="rgb(0,0,255)" /><inkscape:grid
   type="xygrid"
   id="grid24"
   originx="-473.37552"
   originy="-489.69235" /><sodipodi:guide
   position="0,0"
   orientation="0,1"
   id="guide34"
   inkscape:label="bottom"
   inkscape:locked="true"
   inkscape:color="rgb(0,0,255)" /><sodipodi:guide
   position="225.05109,1693.3186"
   orientation="0,1"
   id="guide44"
   inkscape:label=""
   inkscape:locked="false"
   inkscape:color="rgb(0,0,255)" /><sodipodi:guide
   position="0,900"
   orientation="0,1"
   id="guide46"
   inkscape:label=""
   inkscape:locked="true"
   inkscape:color="rgb(0,0,255)" /><sodipodi:guide
   position="240.28117,591.11012"
   orientation="1,0"
   id="guide841"
   inkscape:label="width" />    </sodipodi:namedview>
 <defs
   id="defs4"><inkscape:path-effect
   effect="spiro"
   id="path-effect909"
   is_visible="true"
   lpeversion="1" /><inkscape:path-effect
   effect="spiro"
   id="path-effect869"
   is_visible="true"
   lpeversion="1" /><inkscape:path-effect
   effect="spiro"
   id="path-effect881"
   is_visible="true"
   lpeversion="1" /><inkscape:path-effect
   effect="spiro"
   id="path-effect862"
   is_visible="true"
   lpeversion="1" /><inkscape:path-effect
   effect="spiro"
   id="path-effect851"
   is_visible="true"
   lpeversion="1" />
  <style
   type="text/css"
   id="style2">
   <![CDATA[
    .fil0 {fill:#EF7F1A;fill-rule:nonzero}
   ]]>
  </style>
 <inkscape:path-effect
   effect="spiro"
   id="path-effect1214"
   is_visible="true"
   lpeversion="1" /><inkscape:path-effect
   effect="spiro"
   id="path-effect1195"
   is_visible="true"
   lpeversion="1" /><inkscape:path-effect
   effect="spiro"
   id="path-effect992"
   is_visible="true"
   lpeversion="1" /><inkscape:path-effect
   effect="spiro"
   id="path-effect1060"
   is_visible="true"
   lpeversion="1" /><inkscape:path-effect
   effect="spiro"
   id="path-effect1047"
   is_visible="true"
   lpeversion="1" /></defs>
 
<g
   id="g874"><path
     id="path1006-5-6-2"
     style="clip-rule:evenodd;display:inline;fill:#a51d2d;fill-rule:nonzero;stroke:none;stroke-width:1.62606px;stroke-linecap:butt;stroke-linejoin:miter;stroke-opacity:1;image-rendering:optimizeQuality;shape-rendering:geometricPrecision;text-rendering:geometricPrecision"
     d="m 220.22465,549.17997 c 13.68266,29.77847 17.02418,64.21281 9.19978,96.03657 -5.35986,21.79988 -15.95192,42.4585 -31.4816,58.66936 -14.55559,15.19405 -33.39171,26.31515 -53.82171,31.34897 -16.7107,4.1174 -34.43025,4.16001 -51.120378,-0.04 C 76.310616,730.99481 60.687317,722.54426 48.151643,710.752 33.40526,696.88013 23.118967,678.60004 17.53467,659.13982 11.950373,639.6796 10.945679,619.06784 13.174905,598.94534 c 3.28491,-29.65181 13.899783,-59.00166 33.411296,-81.56981 9.755757,-11.28407 21.659022,-20.76877 35.061793,-27.31635 13.402771,-6.54759 28.310946,-10.1185 43.225346,-9.86197 20.68566,0.35579 40.96274,8.1252 57.45012,20.62279 16.48737,12.49759 29.2633,29.56076 37.90119,48.35997 z M 58.432723,604.87451 c -2.02003,7.61406 -2.044031,15.72607 -0.247002,23.39582 1.797028,7.66975 5.39704,14.89054 10.297663,21.05805 9.801244,12.33504 24.674877,20.18903 40.225056,22.72071 15.08603,2.45611 31.15316,-0.0242 44.14905,-8.06958 12.99589,-8.04536 22.5837,-21.85467 24.32531,-37.03978 1.66511,-14.51815 -3.90565,-29.45103 -13.8037,-40.20175 -9.89804,-10.75071 -23.81417,-17.42562 -38.25145,-19.68707 -13.83679,-2.16739 -28.452925,-0.34364 -40.822242,6.22556 -12.369317,6.56919 -22.281229,18.06084 -25.872685,31.59804 z"
     sodipodi:nodetypes="aaaaaaaaaaaaa"
     inkscape:path-effect="#path-effect909"
     inkscape:original-d="m 220.22465,549.17997 c 15.97906,27.90794 15.54128,64.50929 9.19978,96.03657 -4.37653,21.75826 -16.06451,42.70411 -31.4816,58.66936 -14.4223,14.93508 -33.25946,28.47605 -53.82171,31.34897 C 111.42433,739.80321 72.111293,733.4651 48.151643,710.752 19.811753,683.88657 4.4316091,637.00391 13.174905,598.94534 25.342123,545.98279 70.775373,485.34337 124.87334,480.19721 c 39.05307,-3.71499 75.85898,34.93878 95.35131,68.98276 z M 58.432723,604.87451 c -5.72645,27.37586 22.72429,62.36321 50.275717,67.17458 26.92502,4.70198 64.75854,-18.03061 68.47436,-45.10936 3.59584,-26.2044 -25.98507,-55.42209 -52.05515,-59.88882 -25.190787,-4.31608 -61.462017,12.80718 -66.694927,37.8236 z" /><path
     id="path1006-5-6"
     style="clip-rule:evenodd;display:inline;fill:#a51d2d;fill-rule:nonzero;stroke:none;stroke-width:1.62606px;stroke-linecap:butt;stroke-linejoin:miter;stroke-opacity:1;image-rendering:optimizeQuality;shape-rendering:geometricPrecision;text-rendering:geometricPrecision"
     d="m 217.68157,277.35132 c 13.68266,29.77847 17.02418,64.21281 9.19978,96.03657 -5.35986,21.79988 -15.95192,42.4585 -31.4816,58.66936 -14.55559,15.19405 -33.39171,26.31515 -53.82171,31.34897 -16.7107,4.11741 -34.43025,4.16001 -51.120381,-0.04 C 73.767532,459.16616 58.144232,450.71561 45.608557,438.92335 30.862174,425.05148 20.575881,406.77139 14.991585,387.31117 9.407288,367.85095 8.4025941,347.23919 10.631821,327.11669 c 3.28491,-29.65181 13.899784,-59.00166 33.411298,-81.56981 9.755757,-11.28407 21.659023,-20.76877 35.061794,-27.31635 13.402771,-6.54759 28.310947,-10.1185 43.225347,-9.86197 20.68566,0.35579 40.96274,8.1252 57.45012,20.62279 16.48737,12.49759 29.2633,29.56076 37.90119,48.35997 z M 55.88964,333.04586 c -2.02003,7.61406 -2.044031,15.72608 -0.247002,23.39582 1.797029,7.66975 5.397041,14.89054 10.297664,21.05805 9.801245,12.33504 24.674878,20.18903 40.225058,22.72071 15.08603,2.45611 31.15316,-0.0242 44.14905,-8.06958 12.99589,-8.04537 22.5837,-21.85467 24.32531,-37.03978 1.66511,-14.51815 -3.90565,-29.45103 -13.8037,-40.20175 -9.89804,-10.75071 -23.81417,-17.42562 -38.25145,-19.68707 -13.83679,-2.16739 -28.452926,-0.34364 -40.822243,6.22556 -12.369318,6.56919 -22.281231,18.06084 -25.872687,31.59804 z"
     sodipodi:nodetypes="aaaaaaaaaaaaa"
     inkscape:path-effect="#path-effect881"
     inkscape:original-d="m 217.68157,277.35132 c 15.97906,27.90794 15.54128,64.50929 9.19978,96.03657 -4.37653,21.75826 -16.06451,42.70411 -31.4816,58.66936 -14.4223,14.93508 -33.25946,28.47605 -53.82171,31.34897 -32.69679,4.56834 -72.009828,-1.76977 -95.969483,-24.48287 C 17.268673,412.05792 1.8885253,365.17526 10.631821,327.11669 22.799036,274.15414 68.232291,213.51472 122.33026,208.36856 c 39.05307,-3.71499 75.85898,34.93878 95.35131,68.98276 z M 55.88964,333.04586 c -5.726452,27.37586 22.724291,62.36321 50.27572,67.17458 26.92502,4.70198 64.75854,-18.03061 68.47436,-45.10936 3.59584,-26.2044 -25.98507,-55.42209 -52.05515,-59.88882 -25.19079,-4.31608 -61.462025,12.80718 -66.69493,37.8236 z" /></g></svg>
