<?xml version="1.0" encoding="UTF-8" standalone="no"?>
<svg
   xmlns:dc="http://purl.org/dc/elements/1.1/"
   xmlns:cc="http://creativecommons.org/ns#"
   xmlns:rdf="http://www.w3.org/1999/02/22-rdf-syntax-ns#"
   xmlns:svg="http://www.w3.org/2000/svg"
   xmlns="http://www.w3.org/2000/svg"
   xmlns:sodipodi="http://sodipodi.sourceforge.net/DTD/sodipodi-0.dtd"
   xmlns:inkscape="http://www.inkscape.org/namespaces/inkscape"
   xml:space="preserve"
   width="1200"
   height="1000"
   version="1.1"
   style="clip-rule:evenodd;fill-rule:evenodd;image-rendering:optimizeQuality;shape-rendering:geometricPrecision;text-rendering:geometricPrecision"
   viewBox="0 0 1200 1000"
   id="svg10"
   sodipodi:docname="ആ.svg"
   inkscape:version="1.0.1 (3bc2e813f5, 2020-09-07)"><metadata
   id="metadata14"><rdf:RDF><cc:Work
       rdf:about=""><dc:format>image/svg+xml</dc:format><dc:type
         rdf:resource="http://purl.org/dc/dcmitype/StillImage" /><dc:title /></cc:Work></rdf:RDF></metadata><sodipodi:namedview
   pagecolor="#ffffff"
   bordercolor="#666666"
   borderopacity="1"
   objecttolerance="10"
   gridtolerance="10"
   guidetolerance="10"
   inkscape:pageopacity="0"
   inkscape:pageshadow="2"
   inkscape:window-width="1920"
   inkscape:window-height="1015"
   id="namedview12"
   showgrid="false"
   inkscape:zoom="0.678"
   inkscape:cx="974.22502"
   inkscape:cy="440.9948"
   inkscape:window-x="1920"
   inkscape:window-y="0"
   inkscape:window-maximized="1"
   inkscape:current-layer="svg10"
   showguides="true"
   inkscape:guide-bbox="true"
   inkscape:document-rotation="0"
   inkscape:snap-to-guides="true"><sodipodi:guide
     position="0,1000"
     orientation="0,1"
     id="guide16"
     inkscape:label=""
     inkscape:locked="true"
     inkscape:color="rgb(0,0,255)" /><sodipodi:guide
     position="1763.3122,2036.1693"
     orientation="1000,0"
     id="guide18" /><sodipodi:guide
     position="0,200"
     orientation="0,1"
     id="guide20"
     inkscape:label="base"
     inkscape:locked="true"
     inkscape:color="rgb(0,0,255)" /><inkscape:grid
     type="xygrid"
     id="grid24"
     originx="-473.37552"
     originy="-489.69235" /><sodipodi:guide
     position="0,0"
     orientation="0,1"
     id="guide34"
     inkscape:label="bottom"
     inkscape:locked="true"
     inkscape:color="rgb(0,0,255)" /><sodipodi:guide
     position="225.05109,1693.3186"
     orientation="0,1"
     id="guide44"
     inkscape:label=""
     inkscape:locked="false"
     inkscape:color="rgb(0,0,255)" /><sodipodi:guide
     position="0,900"
     orientation="0,1"
     id="guide46"
     inkscape:label=""
     inkscape:locked="true"
     inkscape:color="rgb(0,0,255)" /><sodipodi:guide
     position="0,1000"
     orientation="0,1000"
     id="guide860" /><sodipodi:guide
     position="1176.0528,48.897532"
     orientation="-1,0"
     id="guide862"
     inkscape:label="width"
     inkscape:locked="false"
     inkscape:color="rgb(0,0,255)" /><sodipodi:guide
     position="1000,0"
     orientation="0,-1000"
     id="guide864" /><sodipodi:guide
     position="0,0"
     orientation="-1000,0"
     id="guide866" /><sodipodi:guide
     position="640.11799,734.51327"
     orientation="0,-1"
     id="guide854" /><sodipodi:guide
     position="724.97415,777.7637"
     orientation="0,-1"
     id="guide856" /></sodipodi:namedview>
 <defs
   id="defs4"><inkscape:path-effect
   effect="spiro"
   id="path-effect1521"
   is_visible="true"
   lpeversion="1" /><inkscape:path-effect
   effect="spiro"
   id="path-effect858"
   is_visible="true"
   lpeversion="1" /><inkscape:path-effect
   effect="spiro"
   id="path-effect854"
   is_visible="true"
   lpeversion="1" />
  <style
   type="text/css"
   id="style2">
   <![CDATA[
    .fil0 {fill:#EF7F1A;fill-rule:nonzero}
   ]]>
  </style>
 <inkscape:path-effect
   effect="spiro"
   id="path-effect1214"
   is_visible="true"
   lpeversion="1" /><inkscape:path-effect
   effect="spiro"
   id="path-effect1195"
   is_visible="true"
   lpeversion="1" /><inkscape:path-effect
   effect="spiro"
   id="path-effect992"
   is_visible="true"
   lpeversion="1" /><inkscape:path-effect
   effect="spiro"
   id="path-effect287"
   is_visible="true"
   lpeversion="1" /><inkscape:path-effect
   effect="spiro"
   id="path-effect1032"
   is_visible="true"
   lpeversion="1" /><inkscape:path-effect
   effect="spiro"
   id="path-effect1218"
   is_visible="true"
   lpeversion="1" /><inkscape:path-effect
   effect="spiro"
   id="path-effect309"
   is_visible="true"
   lpeversion="1" /><inkscape:path-effect
   effect="spiro"
   id="path-effect1176"
   is_visible="true"
   lpeversion="1" /><inkscape:path-effect
   effect="spiro"
   id="path-effect1112"
   is_visible="true"
   lpeversion="1" /></defs>
 
<path
   style="display:inline;fill:#1a1a1a;fill-rule:nonzero;stroke:none;stroke-width:1.89919px;stroke-linecap:butt;stroke-linejoin:miter;stroke-opacity:1"
   d="M -0.48937,849.39249 C 25.963556,815.52309 45.027228,775.91299 54.994484,734.10931 71.818527,663.54757 62.621791,589.5052 49.161068,518.22535 36.887867,453.2339 21.100933,388.61936 16.729547,322.62382 c -2.765009,-41.7438 -0.76187,-84.58893 13.874695,-123.78027 7.318282,-19.59567 17.787374,-38.10783 31.608704,-53.80873 13.82133,-15.7009 31.048205,-28.54157 50.451534,-36.35555 18.84422,-7.58882 39.49452,-10.342016 59.76163,-8.949518 20.26711,1.392498 40.15664,6.865598 58.71659,15.125308 37.11991,16.51942 68.47042,43.77697 96.33869,73.34279 27.63379,29.31707 52.61047,61.559 70.2458,97.78209 17.63534,36.22308 27.71076,76.68374 24.83823,116.86913 -2.26899,31.74216 -12.66253,62.87025 -29.91971,89.60792 35.03996,13.49703 64.83969,40.13316 82.16829,73.44515 17.32859,33.31198 22.03172,73.00315 12.96818,109.44242 -8.47654,34.07926 -29.00436,65.1985 -57.57867,85.61312 -28.5743,20.41462 -65.05309,29.75912 -99.79485,24.63492 -38.55705,-5.68694 -73.26555,-28.56488 -98.30365,-58.4326 -25.03811,-29.86772 -41.117,-66.34496 -52.1235,-103.73272 -13.25541,-45.02704 -19.58172,-92.40023 -15.24993,-139.13754 4.33179,-46.7373 19.59943,-92.83457 46.77688,-131.1037 26.79722,-37.73371 65.20161,-67.37796 109.00247,-82.32484 43.80085,-14.94688 92.82834,-14.85995 136.06724,1.64221 31.71299,12.10329 60.078,32.85173 81.21795,59.40932 21.13995,26.55759 34.99836,58.85336 39.68097,92.47294 9.03866,-66.27904 30.96535,-130.77612 64.19572,-188.83084 18.66649,-32.61107 41.14193,-63.49651 69.85783,-87.73111 28.71591,-24.23461 64.0982,-41.5577 101.54467,-44.66911 25.12016,-2.08722 50.63221,2.25847 74.04503,11.59759 23.41281,9.33913 44.74409,23.59934 63.05307,40.92448 36.61795,34.65028 60.67849,80.86341 76.01469,128.88755 16.7688,52.51022 23.7929,108.02973 21.5732,163.10775 -2.341,58.08566 -15.1869,116.36816 -42.8713,167.48565 -16.53004,30.52167 -38.55441,58.54901 -66.84844,78.65527 -28.29404,20.10627 -63.19909,31.86167 -97.79624,29.05966 -29.47653,-2.38729 -57.63164,-15.21773 -80.46411,-34.0125 -22.83248,-18.79477 -40.52767,-43.34259 -53.52565,-69.90605 -21.69828,-44.34393 -30.58416,-95.06892 -23.94048,-143.98785 6.64368,-48.91892 28.98796,-95.78202 63.7544,-130.83191 34.76477,-35.04821 81.29145,-57.72893 129.99508,-65.78637 42.82869,-7.0855 87.48365,-3.07004 128.25774,11.82867 40.7742,14.8987 77.5575,40.67592 105.2443,74.11154 45.024,54.37267 64.4199,126.79091 63.981,197.38382 -0.5769,92.77754 -34.8163,185.81708 -98.1726,253.59595 -63.3564,67.77887 -155.95018,108.57561 -248.65365,104.8245 -50.74693,-2.0534 -100.9152,-17.09631 -144.41948,-43.30405 L 736.39936,724 c 16.27668,25.53019 39.61774,46.50547 66.73572,59.97158 32.6892,16.23264 70.4647,21.38033 106.61528,16.35864 36.15059,-5.0217 70.63819,-19.97569 100.18634,-41.39972 31.5876,-22.90272 57.8037,-53.35715 74.8766,-88.44025 17.0729,-35.0831 24.8719,-74.76643 21.3753,-113.62622 -4.5405,-50.46175 -28.482,-98.9177 -65.7447,-133.24695 -25.9778,-23.93276 -58.37372,-41.10542 -93.05284,-47.81233 -34.67912,-6.70691 -71.55466,-2.73012 -103.4407,12.46541 -23.19701,11.05471 -43.65913,27.99527 -58.26501,49.13707 -14.60587,21.14181 -23.2434,46.47634 -23.88431,72.1648 -0.69453,27.83746 8.32136,56.18014 26.6132,77.17574 18.29183,20.99561 46.04688,33.9867 73.85593,32.55012 17.60803,-0.90961 34.67842,-7.3814 49.41398,-17.06298 14.73557,-9.68159 27.23562,-22.48631 37.92445,-36.5084 22.91434,-30.06004 37.80355,-66.10733 43.25884,-103.50937 5.45529,-37.40205 1.51316,-76.08125 -10.91985,-111.7757 -11.71679,-33.63823 -31.17847,-64.90921 -58.06854,-88.27023 -26.89008,-23.36103 -61.4077,-38.45653 -97.00747,-39.66896 -25.47078,-0.86746 -51.00586,5.31635 -73.79986,16.71576 -22.79399,11.39941 -42.87616,27.92193 -59.36605,47.35377 -26.54943,31.28608 -43.7151,69.87999 -52.74883,109.90602 -9.03373,40.02603 -10.18049,81.52307 -7.05723,122.43684 3.50009,45.85016 12.32613,91.29157 26.24388,135.11832 l -149.39775,-3.829 c 23.39209,-56.89327 25.38851,-122.29427 5.51016,-180.50841 -8.02368,-23.49751 -19.55247,-45.92831 -35.18887,-65.21602 -15.6364,-19.2877 -35.46729,-35.37387 -58.2033,-45.35316 -23.70269,-10.40359 -50.34237,-13.97666 -75.96411,-10.29174 -25.62174,3.68493 -50.14931,14.60369 -70.10175,31.09467 -29.93209,24.73932 -48.86819,61.48848 -55.01587,99.83127 -6.14768,38.3428 -0.0388,78.09742 14.12904,114.25313 9.32496,23.79683 22.26861,46.45537 40.15359,64.71383 17.88499,18.25846 40.96127,31.93862 66.16156,36.20353 15.33501,2.5953 31.46803,1.62175 45.85809,-4.27947 14.39005,-5.90121 26.88664,-16.96722 33.13424,-31.2103 4.7426,-10.81204 5.76581,-23.14077 3.32887,-34.69299 -2.43694,-11.55222 -8.26348,-22.3049 -16.26652,-30.98498 -16.00608,-17.36017 -40.15364,-25.87471 -63.76626,-25.99486 -15.36602,-0.0782 -30.74064,3.15258 -44.77553,9.40899 L 287.83496,457.0905 c 11.42201,2.83976 23.62379,2.47101 34.85347,-1.05331 11.22968,-3.52432 21.45405,-10.19378 29.20514,-19.05082 9.28496,-10.60976 14.8958,-24.14267 17.17066,-38.05678 2.27486,-13.91411 1.33324,-28.21729 -1.41393,-42.0459 -5.51476,-27.75999 -18.35976,-53.97555 -36.58463,-75.62927 -18.22486,-21.65373 -41.76512,-38.73423 -67.8362,-49.74914 -20.34304,-8.59484 -42.40592,-13.5513 -64.47661,-12.78012 -22.0707,0.77118 -44.13749,7.45093 -62.00416,20.43139 -14.18744,10.30743 -25.4715,24.36431 -33.42703,39.99237 -7.955526,15.62806 -12.650946,32.8014 -14.826239,50.2024 -4.350585,34.80199 1.241597,70.03455 7.977299,104.45455 22.59837,115.47958 58.16615,228.02359 96.97574,339.10931 6.69373,19.15965 13.48618,38.28482 20.37697,57.37448 z"
   id="path1110"
   inkscape:path-effect="#path-effect1112"
   inkscape:original-d="m -0.48937,849.39249 c 0,0 46.561482,-73.58025 55.483854,-115.28318 C 70.055528,663.71484 56.03703,589.88382 49.161068,518.22535 42.84837,452.43685 8.25298,388.16862 16.729547,322.62382 26.753626,245.11293 40.597837,138.92525 112.66448,108.67927 c 70.40477,-29.548494 159.1668,27.24037 214.81691,79.51858 57.03636,53.58047 91.3786,136.48292 95.08403,214.65122 1.49107,31.45501 -29.91971,89.60792 -29.91971,89.60792 0,0 111.47185,116.13994 95.13647,182.88757 C 472.55646,737.55804 394.09923,792.36393 330.40866,785.5926 257.09117,777.79777 202.88503,693.51039 179.98151,623.42728 151.80937,537.22258 154.1696,423.45107 211.50846,353.18604 265.88324,286.5533 374.17173,247.89209 456.57817,272.50341 c 62.00241,18.5175 120.89892,151.88226 120.89892,151.88226 16.26647,-40.45424 25.54632,-134.73813 64.19572,-188.83084 41.97075,-58.74119 99.22819,-134.11453 171.4025,-132.40022 93.26328,2.21522 168.50679,99.47519 213.11279,181.40962 26.2228,48.16732 24.8368,108.3622 21.5732,163.10775 -3.4295,57.52636 -9.3392,120.61732 -42.8713,167.48565 -38.16069,53.33775 -99.11439,110.34823 -164.64468,107.71493 -56.47612,-2.26947 -112.83436,-51.50527 -133.98976,-103.91855 -34.6452,-85.83475 -14.20084,-199.65129 39.81392,-274.81976 28.33962,-39.43823 81.51203,-62.97539 129.99508,-65.78637 82.7993,-4.80058 176.01654,26.15569 233.50204,85.94021 47.9389,49.85613 79.5975,130.00507 63.981,197.38382 C 1136.0104,723.62948 987.58518,878.1147 826.72135,920.09236 778.09243,932.78215 682.30187,876.78831 682.30187,876.78831 L 736.39936,724 c 25.41077,-8.80049 38.21536,50.96819 66.73572,59.97158 66.21633,20.90337 150.42469,15.49522 206.80162,-25.04108 60.5739,-43.55397 96.7674,-127.46167 96.2519,-202.06647 -0.3422,-49.52672 -26.1733,-103.46247 -65.7447,-133.24695 -53.17094,-40.02051 -135.16576,-61.18669 -196.49354,-35.34692 -45.00234,18.96124 -85.71364,72.59833 -82.14932,121.30187 3.61962,49.45918 51.36015,102.82509 100.46913,109.72586 33.8208,4.75249 68.48341,-25.09471 87.33843,-53.57138 40.06223,-60.50586 58.3057,-147.52321 32.33899,-215.28507 -23.9795,-62.57605 -88.55017,-119.87127 -155.07601,-127.93919 -48.90073,-5.93044 -101.91917,25.98945 -133.16591,64.06953 -50.7292,61.82314 -57.40346,152.40676 -59.80606,232.34286 -1.3784,45.86042 26.24388,135.11832 26.24388,135.11832 l -149.39775,-3.829 c 0,0 25.32577,-123.66582 5.51016,-180.50841 -15.88091,-45.5556 -48.30834,-93.39468 -93.39217,-110.56918 -45.95815,-17.50757 -110.47874,-13.14148 -146.06586,20.80293 -52.57122,50.14453 -63.14405,144.92644 -40.88683,214.0844 14.96913,46.51231 58.14584,92.72063 106.31515,100.91736 28.45713,4.8424 72.52663,-7.35702 78.99233,-35.48977 8.92445,-38.83095 -39.05551,-78.63111 -76.70391,-91.67283 -14.41099,-4.99209 -44.77553,9.40899 -44.77553,9.40899 L 287.83496,457.0905 c 0,0 49.12657,-3.43416 64.05861,-20.10413 18.15654,-20.26977 22.49217,-53.73684 15.75673,-80.10268 C 354.18837,304.18703 313.15479,253.08358 263.22947,231.50528 224.45852,214.74803 168.68083,211.51002 136.7487,239.15655 86.656909,282.52554 94.005154,367.59433 96.47273,433.80587 c 4.37848,117.48611 61.12191,227.14208 96.97574,339.10931 6.18929,19.32841 20.37697,57.37448 20.37697,57.37448 z"
   sodipodi:nodetypes="caaaaaacaaaaacaaaaaaaaaaaaccaaaaaaaaaaaaccaaaaaaaccaaaaaacc" /></svg>
