<svg xmlns="http://www.w3.org/2000/svg" xmlns:dc="http://purl.org/dc/elements/1.1/" xmlns:ns1="http://sodipodi.sourceforge.net/DTD/sodipodi-0.dtd" xmlns:ns2="http://www.inkscape.org/namespaces/inkscape" xmlns:ns4="http://creativecommons.org/ns#" xmlns:rdf="http://www.w3.org/1999/02/22-rdf-syntax-ns#" xml:space="preserve" width="1200" height="1000" version="1.1" style="clip-rule:evenodd;fill-rule:evenodd;image-rendering:optimizeQuality;shape-rendering:geometricPrecision;text-rendering:geometricPrecision" viewBox="0 0 1200 1000" id="svg10" ns1:docname="ആ.svg" ns2:version="1.1.1 (3bf5ae0d25, 2021-09-20)"><metadata id="metadata14"><rdf:RDF><ns4:Work rdf:about=""><dc:format>image/svg+xml</dc:format><dc:type rdf:resource="http://purl.org/dc/dcmitype/StillImage" /></ns4:Work></rdf:RDF></metadata><ns1:namedview pagecolor="#ffffff" bordercolor="#666666" borderopacity="1" objecttolerance="10" gridtolerance="10" guidetolerance="10" ns2:pageopacity="0" ns2:pageshadow="2" ns2:window-width="1920" ns2:window-height="1009" id="namedview12" showgrid="false" ns2:zoom="0.9588368" ns2:cx="735.78736" ns2:cy="567.35411" ns2:window-x="0" ns2:window-y="0" ns2:window-maximized="1" ns2:current-layer="svg10" showguides="true" ns2:guide-bbox="true" ns2:document-rotation="0" ns2:snap-to-guides="true" ns2:pagecheckerboard="0"><ns1:guide position="0,1000" orientation="0,1" id="guide16" ns2:label="" ns2:locked="true" ns2:color="rgb(0,0,255)" /><ns1:guide position="1763.3122,2036.1693" orientation="1000,0" id="guide18" /><ns1:guide position="0,200" orientation="0,1" id="guide20" ns2:label="base" ns2:locked="true" ns2:color="rgb(0,0,255)" /><ns2:grid type="xygrid" id="grid24" originx="-473.37552" originy="-489.69235" /><ns1:guide position="0,0" orientation="0,1" id="guide34" ns2:label="bottom" ns2:locked="true" ns2:color="rgb(0,0,255)" /><ns1:guide position="225.05109,1693.3186" orientation="0,1" id="guide44" ns2:label="" ns2:locked="false" ns2:color="rgb(0,0,255)" /><ns1:guide position="0,900" orientation="0,1" id="guide46" ns2:label="" ns2:locked="true" ns2:color="rgb(0,0,255)" /><ns1:guide position="0,1000" orientation="0,1000" id="guide860" /><ns1:guide position="1185.6104,601.94559" orientation="-1,0" id="guide862" ns2:label="width" ns2:locked="false" ns2:color="rgb(0,0,255)" /><ns1:guide position="1000,0" orientation="0,-1000" id="guide864" /><ns1:guide position="0,0" orientation="-1000,0" id="guide866" /><ns1:guide position="640.11799,734.51327" orientation="0,-1" id="guide854" /><ns1:guide position="724.97415,777.7637" orientation="0,-1" id="guide856" /></ns1:namedview>
 <defs id="defs4"><ns2:path-effect effect="fillet_chamfer" id="path-effect857" is_visible="true" lpeversion="1" satellites_param="F,0,1,1,0,15.069268,0,1 @ F,0,0,1,0,0,0,1 @ F,0,0,1,0,0,0,1 @ F,0,0,1,0,0,0,1 @ F,0,0,1,0,0,0,1 @ F,0,0,1,0,0,0,1 @ F,0,0,1,0,0,0,1 @ F,0,0,1,0,0,0,1 @ F,0,0,1,0,0,0,1 @ F,0,0,1,0,0,0,1 @ F,0,0,1,0,0,0,1 @ F,0,0,1,0,0,0,1 @ F,0,0,1,0,0,0,1 @ F,0,0,1,0,0,0,1 @ F,0,0,1,0,0,0,1 @ F,0,0,1,0,0,0,1 @ F,0,0,1,0,0,0,1 @ F,0,0,1,0,0,0,1 @ F,0,0,1,0,0,0,1 @ F,0,0,1,0,0,0,1 @ F,0,0,1,0,0,0,1 @ F,0,0,1,0,0,0,1 @ F,0,0,1,0,0,0,1 @ F,0,0,1,0,0,0,1 @ F,0,0,1,0,0,0,1 @ F,0,0,1,0,0,0,1 @ F,0,0,1,0,0,0,1 @ F,0,0,1,0,0,0,1 @ F,0,0,1,0,0,0,1 @ F,0,0,1,0,0,0,1 @ F,0,0,1,0,0,0,1 @ F,0,0,1,0,0,0,1 @ F,0,0,1,0,0,0,1 @ F,0,0,1,0,0,0,1 @ F,0,0,1,0,0,0,1 @ F,0,0,1,0,0,0,1 @ F,0,0,1,0,0,0,1 @ F,0,0,1,0,0,0,1 @ F,0,0,1,0,0,0,1 @ F,0,0,1,0,0,0,1 @ F,0,0,1,0,0,0,1 @ F,0,0,1,0,0,0,1 @ F,0,0,1,0,0,0,1 @ F,0,0,1,0,0,0,1 @ F,0,0,1,0,0,0,1 @ F,0,0,1,0,0,0,1 @ F,0,0,1,0,0,0,1 @ F,0,0,1,0,0,0,1 @ F,0,0,1,0,0,0,1 @ F,0,1,1,0,15.069268,0,1 @ F,0,1,1,0,15.069268,0,1 @ F,0,0,1,0,0,0,1 @ F,0,0,1,0,0,0,1 @ F,0,0,1,0,0,0,1 @ F,0,0,1,0,0,0,1 @ F,0,0,1,0,0,0,1 @ F,0,0,1,0,0,0,1 @ F,0,0,1,0,0,0,1 @ F,0,0,1,0,0,0,1 @ F,0,0,1,0,0,0,1 @ F,0,0,1,0,0,0,1 @ F,0,0,1,0,0,0,1 @ F,0,0,1,0,0,0,1 @ F,0,0,1,0,0,0,1 @ F,0,0,1,0,0,0,1 @ F,0,0,1,0,0,0,1 @ F,0,0,1,0,0,0,1 @ F,0,0,1,0,0,0,1 @ F,0,0,1,0,0,0,1 @ F,0,0,1,0,0,0,1 @ F,0,0,1,0,0,0,1 @ F,0,0,1,0,0,0,1 @ F,0,0,1,0,0,0,1 @ F,0,1,1,0,15.069268,0,1 @ F,0,1,1,0,15.069268,0,1 @ F,0,0,1,0,0,0,1 @ F,0,0,1,0,0,0,1 @ F,0,0,1,0,0,0,1 @ F,0,0,1,0,0,0,1 @ F,0,0,1,0,0,0,1 @ F,0,0,1,0,0,0,1 @ F,0,0,1,0,0,0,1 @ F,0,0,1,0,0,0,1 @ F,0,0,1,0,0,0,1 @ F,0,0,1,0,0,0,1 @ F,0,0,1,0,0,0,1 @ F,0,0,1,0,0,0,1 @ F,0,0,1,0,0,0,1 @ F,0,0,1,0,0,0,1 @ F,0,0,1,0,0,0,1 @ F,0,0,1,0,0,0,1 @ F,0,0,1,0,0,0,1 @ F,0,0,1,0,0,0,1 @ F,0,0,1,0,0,0,1 @ F,0,0,1,0,0,0,1 @ F,0,0,1,0,0,0,1 @ F,0,0,1,0,0,0,1 @ F,0,0,1,0,0,0,1 @ F,0,0,1,0,0,0,1 @ F,0,0,1,0,0,0,1 @ F,0,0,1,0,0,0,1 @ F,0,0,1,0,0,0,1 @ F,0,0,1,0,0,0,1 @ F,0,1,1,0,15.069268,0,1" unit="px" method="auto" mode="F" radius="0" chamfer_steps="1" flexible="false" use_knot_distance="true" apply_no_radius="true" apply_with_radius="true" only_selected="true" hide_knots="false" /><ns2:path-effect effect="fillet_chamfer" id="path-effect856" is_visible="true" lpeversion="1" satellites_param="F,0,0,1,0,25.924737,0,1 @ F,0,0,1,0,0,0,1 @ F,0,0,1,0,0,0,1 @ F,0,0,1,0,0,0,1 @ F,0,0,1,0,0,0,1 @ F,0,0,1,0,0,0,1 @ F,0,0,1,0,0,0,1 @ F,0,0,1,0,0,0,1 @ F,0,0,1,0,0,0,1 @ F,0,0,1,0,0,0,1 @ F,0,0,1,0,0,0,1 @ F,0,0,1,0,0,0,1 @ F,0,0,1,0,0,0,1 @ F,0,0,1,0,0,0,1 @ F,0,0,1,0,0,0,1 @ F,0,0,1,0,0,0,1 @ F,0,0,1,0,0,0,1 @ F,0,0,1,0,0,0,1 @ F,0,0,1,0,0,0,1 @ F,0,0,1,0,0,0,1 @ F,0,0,1,0,0,0,1 @ F,0,0,1,0,0,0,1 @ F,0,0,1,0,0,0,1 @ F,0,0,1,0,0,0,1 @ F,0,0,1,0,0,0,1 @ F,0,0,1,0,0,0,1 @ F,0,0,1,0,0,0,1 @ F,0,0,1,0,0,0,1 @ F,0,0,1,0,0,0,1 @ F,0,0,1,0,0,0,1 @ F,0,0,1,0,0,0,1 @ F,0,0,1,0,0,0,1 @ F,0,0,1,0,0,0,1 @ F,0,0,1,0,0,0,1 @ F,0,0,1,0,0,0,1 @ F,0,0,1,0,0,0,1 @ F,0,0,1,0,0,0,1 @ F,0,0,1,0,0,0,1 @ F,0,0,1,0,0,0,1 @ F,0,0,1,0,0,0,1 @ F,0,0,1,0,0,0,1 @ F,0,0,1,0,0,0,1 @ F,0,0,1,0,19.823986,0,1 @ F,0,0,1,0,30.15952,0,1 @ F,0,0,1,0,0,0,1 @ F,0,0,1,0,0,0,1 @ F,0,0,1,0,0,0,1 @ F,0,0,1,0,0,0,1 @ F,0,0,1,0,0,0,1 @ F,0,0,1,0,0,0,1 @ F,0,0,1,0,0,0,1 @ F,0,0,1,0,0,0,1 @ F,0,0,1,0,0,0,1 @ F,0,0,1,0,0,0,1 @ F,0,0,1,0,0,0,1 @ F,0,0,1,0,0,0,1 @ F,0,0,1,0,0,0,1 @ F,0,0,1,0,0,0,1 @ F,0,0,1,0,0,0,1 @ F,0,0,1,0,0,0,1 @ F,0,0,1,0,0,0,1 @ F,0,0,1,0,0,0,1 @ F,0,0,1,0,0,0,1 @ F,0,0,1,0,0,0,1 @ F,0,0,1,0,0,0,1 @ F,0,0,1,0,0,0,1 @ F,0,1,1,0,22.574364,0,1 @ F,0,1,1,0,22.574364,0,1 @ F,0,0,1,0,0,0,1 @ F,0,0,1,0,0,0,1 @ F,0,0,1,0,0,0,1 @ F,0,0,1,0,0,0,1 @ F,0,0,1,0,0,0,1 @ F,0,0,1,0,0,0,1 @ F,0,0,1,0,0,0,1 @ F,0,0,1,0,0,0,1 @ F,0,0,1,0,0,0,1 @ F,0,0,1,0,0,0,1 @ F,0,0,1,0,0,0,1 @ F,0,0,1,0,0,0,1 @ F,0,0,1,0,0,0,1 @ F,0,0,1,0,0,0,1 @ F,0,0,1,0,0,0,1 @ F,0,0,1,0,0,0,1 @ F,0,0,1,0,0,0,1 @ F,0,0,1,0,0,0,1 @ F,0,0,1,0,0,0,1 @ F,0,0,1,0,0,0,1 @ F,0,0,1,0,0,0,1 @ F,0,0,1,0,0,0,1 @ F,0,0,1,0,0,0,1 @ F,0,0,1,0,0,0,1 @ F,0,0,1,0,0,0,1 @ F,0,0,1,0,0,0,1 @ F,0,0,1,0,0,0,1 @ F,0,0,1,0,0,0,1 @ F,0,0,1,0,22.574364,0,1" unit="px" method="auto" mode="F" radius="0" chamfer_steps="1" flexible="false" use_knot_distance="true" apply_no_radius="true" apply_with_radius="true" only_selected="true" hide_knots="false" /><ns2:path-effect effect="spiro" id="path-effect1521" is_visible="true" lpeversion="1" /><ns2:path-effect effect="spiro" id="path-effect858" is_visible="true" lpeversion="1" /><ns2:path-effect effect="spiro" id="path-effect854" is_visible="true" lpeversion="1" />
  <style type="text/css" id="style2">
   
    .fil0 {fill:#EF7F1A;fill-rule:nonzero}
   
  </style>
 <ns2:path-effect effect="spiro" id="path-effect1214" is_visible="true" lpeversion="1" /><ns2:path-effect effect="spiro" id="path-effect1195" is_visible="true" lpeversion="1" /><ns2:path-effect effect="spiro" id="path-effect992" is_visible="true" lpeversion="1" /><ns2:path-effect effect="spiro" id="path-effect287" is_visible="true" lpeversion="1" /><ns2:path-effect effect="spiro" id="path-effect1032" is_visible="true" lpeversion="1" /><ns2:path-effect effect="spiro" id="path-effect1218" is_visible="true" lpeversion="1" /><ns2:path-effect effect="spiro" id="path-effect309" is_visible="true" lpeversion="1" /><ns2:path-effect effect="spiro" id="path-effect1176" is_visible="true" lpeversion="1" /><ns2:path-effect effect="spiro" id="path-effect1112" is_visible="true" lpeversion="1" /></defs>
 
<path style="display:inline;fill:#1a5fb4;fill-rule:nonzero;stroke:none;stroke-width:1.89919px;stroke-linecap:butt;stroke-linejoin:miter;stroke-opacity:1" d="m 31.219719,851.62257 c 11.230898,-38.4042 19.195948,-77.7633 23.774765,-117.51326 8.263252,-71.73554 5.46532,-144.5635 -5.833416,-215.88396 -10.34717,-65.31394 -27.797829,-129.63561 -32.431521,-195.60153 -2.925574,-41.6489 -0.52918,-84.409 14.289077,-123.44244 14.818256,-39.03344 43.237912,-74.13079 81.645856,-90.50211 19.60204,-8.35533 41.2129,-11.639056 62.49327,-10.544846 21.28037,1.094211 42.23534,6.496146 61.83978,14.845866 39.20886,16.69942 72.53423,44.76284 102.34557,75.21756 28.62549,29.24328 54.84825,61.43344 72.67214,98.26952 17.8239,36.83608 26.87382,78.74649 20.28556,119.1344 -5.8129,35.63472 -24.42938,69.70377 -53.5984,90.98267 -14.08873,10.27777 -30.41249,17.47506 -47.50307,20.9445 l -2.73853,-30.2462 c 22.46028,2.03387 44.54994,8.09469 64.90325,17.80776 31.49608,15.03065 58.88548,39.11493 76.31762,69.34809 17.43214,30.23315 24.55217,66.60875 18.10051,100.90597 -6.55459,34.84443 -27.19421,66.82667 -56.23585,87.1658 -29.04164,20.33913 -66.14656,28.80229 -101.13767,23.08224 -38.4194,-6.28048 -72.99909,-28.99384 -98.15512,-58.70358 C 207.09751,697.17928 190.76051,660.8346 179.98151,623.42728 167.03408,578.49469 161.71622,531.17602 166.446,484.65503 c 4.72979,-46.52099 19.65779,-92.21117 45.06246,-131.46899 25.59911,-39.5583 62.29411,-72.57071 106.04964,-90.05288 43.75554,-17.48217 94.62367,-18.54614 137.57509,0.82779 36.39667,16.4173 65.53398,46.41845 85.99239,80.70692 20.4584,34.28846 32.81249,72.81739 41.98955,111.67645 6.30351,26.69137 11.18926,53.7175 14.62978,80.92644 l -34.97623,3.8214 c 0.57988,-26.47446 1.9003,-52.93269 3.9592,-79.33333 6.2846,-80.58568 20.13651,-162.60464 60.08548,-232.8729 19.37953,-34.08764 44.92436,-65.05238 76.78841,-87.90442 31.86404,-22.85205 70.26575,-37.29549 109.47354,-37.8269 49.91899,-0.67659 98.66968,21.39079 135.34687,55.26036 36.67718,33.86956 61.93612,78.80181 77.76592,126.14926 17.4875,52.30567 24.0019,108.00969 21.5732,163.10775 -2.5595,58.06591 -15.2494,116.34633 -42.8713,167.48565 -16.49797,30.54438 -38.52365,58.58296 -66.82544,78.68646 -28.3018,20.1035 -63.21828,31.84192 -97.81924,29.02847 -29.47463,-2.39662 -57.62629,-15.22769 -80.4588,-34.02062 -22.8325,-18.79293 -40.53063,-43.33689 -53.53096,-69.89793 -21.70334,-44.3422 -30.59018,-95.06863 -23.94544,-143.98809 6.64475,-48.91945 28.99169,-95.78206 63.75936,-130.83167 34.76548,-35.0474 81.29158,-57.72858 129.99508,-65.78637 42.82868,-7.08583 87.48372,-3.0704 128.25784,11.82837 40.7742,14.89876 77.5574,40.67613 105.2442,74.11184 45.0239,54.37275 64.4199,126.79092 63.981,197.38382 -0.5768,92.77755 -34.8162,185.81712 -98.1726,253.59599 -63.3564,67.77887 -155.95017,108.57559 -248.65365,104.82446 -45.72757,-1.85031 -90.98529,-14.24762 -131.32081,-35.85691 -7.3353,-3.9298 -10.84685,-13.807 -8.06908,-21.65228 l 44.03831,-124.37803 c 2.77777,-7.84528 8.60736,-8.46533 13.70015,-1.88658 15.45582,19.96552 35.44672,36.42127 58.06516,47.65302 32.6892,16.23264 70.4647,21.38033 106.61528,16.35864 36.15059,-5.0217 70.63819,-19.97569 100.18634,-41.39972 31.5876,-22.90272 57.8037,-53.35715 74.8766,-88.44025 17.0729,-35.08311 24.8719,-74.76643 21.3753,-113.62622 -4.5405,-50.46175 -28.482,-98.91771 -65.7447,-133.24695 -25.9778,-23.93275 -58.37373,-41.10537 -93.05285,-47.81226 -34.67911,-6.7069 -71.55463,-2.73012 -103.44069,12.46534 -23.19704,11.05467 -43.65924,27.99519 -58.26515,49.137 -14.6059,21.1418 -23.24341,46.47639 -23.88417,72.16487 -0.69436,27.83736 8.32176,56.17981 26.61359,77.17528 18.29183,20.99547 46.04658,33.98657 73.85554,32.55058 17.60815,-0.90924 34.67884,-7.38058 49.41458,-17.06208 14.73574,-9.68151 27.23578,-22.4865 37.92385,-36.5093 22.91186,-30.06047 37.79523,-66.10889 43.2481,-103.51011 5.45287,-37.40122 1.51239,-76.07774 -10.90911,-111.77496 -11.70806,-33.64692 -31.15673,-64.93347 -58.04663,-88.30284 -26.8899,-23.36937 -61.42295,-38.46324 -97.02938,-39.63635 -25.46332,-0.83893 -50.97848,5.38381 -73.75883,16.79171 -22.78034,11.40791 -42.85812,27.90732 -59.40708,47.27782 -26.68366,31.23313 -44.14592,69.74454 -53.30281,109.79048 -9.15688,40.04595 -10.23542,81.64276 -6.50325,122.55238 4.23348,46.40463 14.6302,92.24188 30.8102,135.93923 2.88977,7.80442 -1.30302,13.68708 -9.61317,13.23325 l -129.30405,-7.06143 c -8.31015,-0.45383 -12.41498,-7.04145 -9.67599,-14.8991 19.71859,-56.56901 19.89416,-119.84411 0.1393,-176.43104 -8.17896,-23.42829 -19.71683,-45.8192 -35.32129,-65.11378 -15.60446,-19.29459 -35.36862,-35.43606 -58.07088,-45.4554 -23.68763,-10.45422 -50.34096,-14.03964 -75.96809,-10.34575 -25.62714,3.69389 -50.15158,14.63977 -70.09777,31.14868 -29.9123,24.75758 -48.83995,61.5004 -54.99166,99.83889 -6.1517,38.33849 -0.0563,78.09102 14.10483,114.24551 9.3215,23.79861 22.26514,46.45811 40.15091,64.71635 17.88577,18.25824 40.96341,31.93694 66.16424,36.20101 15.33501,2.59474 31.46786,1.62108 45.85787,-4.28003 14.39001,-5.9011 26.8867,-16.96682 33.13446,-31.20974 4.74277,-10.81201 5.76608,-23.14078 3.32917,-34.69305 -2.4369,-11.55227 -8.26345,-22.30499 -16.26654,-30.98508 -16.00616,-17.36019 -40.15385,-25.87461 -63.76654,-25.9947 -15.36602,-0.0782 -30.74063,3.15263 -44.77553,9.40899 L 287.83496,457.0905 c 11.42201,2.83976 23.62379,2.47101 34.85347,-1.05331 11.22968,-3.52432 21.45405,-10.19378 29.20514,-19.05082 9.28496,-10.60976 14.8958,-24.14267 17.17066,-38.05678 2.27486,-13.91411 1.33324,-28.21729 -1.41393,-42.0459 -5.51476,-27.75999 -18.35976,-53.97555 -36.58463,-75.62927 -18.22486,-21.65373 -41.76512,-38.73423 -67.8362,-49.74914 -20.34304,-8.59484 -42.40592,-13.5513 -64.47661,-12.78012 -22.0707,0.77118 -44.13749,7.45093 -62.00416,20.43139 -14.18744,10.30743 -25.4715,24.36431 -33.42703,39.99237 -7.955526,15.62806 -12.650946,32.8014 -14.826239,50.2024 -4.350585,34.80199 1.241597,70.03455 7.977299,104.45455 22.59837,115.47958 58.16615,228.02359 96.97574,339.10931 5.03703,14.41763 10.12996,28.81573 15.27863,43.19387 2.80575,7.83532 -1.52838,15.44756 -9.70284,17.01042 l -157.387212,30.0905 c -8.174468,1.56286 -12.753279,-3.59959 -10.417329,-11.5874 z" id="path1110" ns2:path-effect="#path-effect1112;#path-effect857" ns2:original-d="m 26.835864,866.03978 c 0,0 24.0439,-87.15178 28.15862,-131.93047 C 61.581681,662.42374 56.03703,589.88382 49.161068,518.22535 42.84837,452.43685 8.25298,388.16862 16.729547,322.62382 c 10.024079,-77.51089 24.130177,-183.082 95.934933,-213.94455 73.5664,-31.619729 168.20225,24.81632 226.67862,79.51858 57.55671,53.84197 98.01081,138.75153 92.9577,217.40392 -2.25674,35.12644 -27.29523,67.59245 -53.5984,90.98267 -12.93168,11.49956 -47.50307,20.9445 -47.50307,20.9445 l -2.73853,-30.2462 c 0,0 47.26506,3.94496 64.90325,17.80776 51.02152,40.10052 109.00251,107.02002 94.41813,170.25406 C 473.38762,737.75559 394.09923,792.36393 330.40866,785.5926 257.09117,777.79777 202.88503,693.51039 179.98151,623.42728 151.80937,537.22258 155.3375,424.38816 211.50846,353.18604 265.07307,285.28773 372.94165,237.0556 455.13319,263.96095 c 73.19931,23.96174 99.2035,120.94035 127.98194,192.38337 10.24254,25.42731 14.62978,80.92644 14.62978,80.92644 l -34.97623,3.8214 c 0,0 -0.0286,-53.15801 3.9592,-79.33333 12.07408,-79.25206 35.12223,-192.19749 60.08548,-232.8729 39.18229,-63.84409 111.46947,-129.903294 186.26195,-125.73132 93.14478,5.19568 168.50679,99.47519 213.11279,181.40962 26.2228,48.16732 24.8368,108.3622 21.5732,163.10775 -3.4295,57.52636 -9.3392,120.61732 -42.8713,167.48565 -38.16069,53.33775 -99.11439,110.34823 -164.64468,107.71493 -56.47612,-2.26947 -112.83436,-51.50527 -133.98976,-103.91855 -34.6452,-85.83475 -14.20084,-199.65129 39.81392,-274.81976 28.33962,-39.43823 81.51203,-62.97539 129.99508,-65.78637 82.7993,-4.80058 176.01654,26.15569 233.50204,85.94021 47.9389,49.85613 79.5975,130.00507 63.981,197.38382 C 1136.0104,723.62948 987.58518,878.1147 826.72135,920.09236 778.09243,932.78215 682.30187,876.78831 682.30187,876.78831 L 736.39936,724 c 0,0 38.21536,50.96819 66.73572,59.97158 66.21633,20.90337 150.42469,15.49522 206.80162,-25.04108 60.5739,-43.55397 96.7674,-127.46167 96.2519,-202.06647 -0.3422,-49.52672 -26.1733,-103.46247 -65.7447,-133.24695 -53.17094,-40.02051 -135.16576,-61.18669 -196.49354,-35.34692 -45.00234,18.96124 -85.71364,72.59833 -82.14932,121.30187 3.61962,49.45918 51.36015,102.82509 100.46913,109.72586 33.8208,4.75249 68.48341,-25.09471 87.33843,-53.57138 40.06223,-60.50586 58.3057,-147.52321 32.33899,-215.28507 -23.9795,-62.57605 -88.55017,-119.87127 -155.07601,-127.93919 -48.90073,-5.93044 -101.91917,25.98945 -133.16591,64.06953 -50.7292,61.82314 -59.21248,152.37287 -59.80606,232.34286 -0.38178,51.43558 36.24388,149.99421 36.24388,149.99421 l -159.39775,-8.70489 c 0,0 26.47056,-130.53641 5.51016,-190.50841 -15.91737,-45.54287 -48.30834,-93.39468 -93.39217,-110.56918 -45.95815,-17.50757 -110.47874,-13.14148 -146.06586,20.80293 -52.57122,50.14453 -63.14405,144.92644 -40.88683,214.0844 14.96913,46.51231 58.14584,92.72063 106.31515,100.91736 28.45713,4.8424 72.52663,-7.35702 78.99233,-35.48977 8.92445,-38.83095 -39.05551,-78.63111 -76.70391,-91.67283 -14.41099,-4.99209 -44.77553,9.40899 -44.77553,9.40899 L 287.83496,457.0905 c 0,0 49.12657,-3.43416 64.05861,-20.10413 18.15654,-20.26977 22.49217,-53.73684 15.75673,-80.10268 C 354.18837,304.18703 313.15479,253.08358 263.22947,231.50528 224.45852,214.74803 168.68083,211.51002 136.7487,239.15655 86.656909,282.52554 94.005154,367.59433 96.47273,433.80587 c 4.37848,117.48611 61.12191,227.14208 96.97574,339.10931 6.18929,19.32841 20.37697,57.37448 20.37697,57.37448 z" ns1:nodetypes="caaaaaaaccaaaaacaccasaaaaaaaaaaaccaaaaaaaaaaaaccaaaaaaaccaaaaaacc" /></svg>