<?xml version="1.0" encoding="UTF-8" standalone="no"?>
<svg
   xmlns:dc="http://purl.org/dc/elements/1.1/"
   xmlns:cc="http://creativecommons.org/ns#"
   xmlns:rdf="http://www.w3.org/1999/02/22-rdf-syntax-ns#"
   xmlns:svg="http://www.w3.org/2000/svg"
   xmlns="http://www.w3.org/2000/svg"
   xmlns:sodipodi="http://sodipodi.sourceforge.net/DTD/sodipodi-0.dtd"
   xmlns:inkscape="http://www.inkscape.org/namespaces/inkscape"
   xml:space="preserve"
   width="1200"
   height="1000"
   version="1.1"
   style="clip-rule:evenodd;fill-rule:evenodd;image-rendering:optimizeQuality;shape-rendering:geometricPrecision;text-rendering:geometricPrecision"
   viewBox="0 0 1200 1000"
   id="svg10"
   sodipodi:docname="ഇ.svg"
   inkscape:version="1.0.2 (e86c870879, 2021-01-15)"><metadata
   id="metadata14"><rdf:RDF><cc:Work
       rdf:about=""><dc:format>image/svg+xml</dc:format><dc:type
         rdf:resource="http://purl.org/dc/dcmitype/StillImage" /><dc:title /></cc:Work></rdf:RDF></metadata><sodipodi:namedview
   pagecolor="#ffffff"
   bordercolor="#666666"
   borderopacity="1"
   objecttolerance="10"
   gridtolerance="10"
   guidetolerance="10"
   inkscape:pageopacity="0"
   inkscape:pageshadow="2"
   inkscape:window-width="1920"
   inkscape:window-height="1007"
   id="namedview12"
   showgrid="false"
   inkscape:zoom="0.678"
   inkscape:cx="297.79293"
   inkscape:cy="493.71569"
   inkscape:window-x="1920"
   inkscape:window-y="0"
   inkscape:window-maximized="1"
   inkscape:current-layer="svg10"
   showguides="true"
   inkscape:guide-bbox="true"
   inkscape:document-rotation="0"
   inkscape:snap-to-guides="true"><sodipodi:guide
     position="0,1000"
     orientation="0,1"
     id="guide16"
     inkscape:label=""
     inkscape:locked="true"
     inkscape:color="rgb(0,0,255)" /><sodipodi:guide
     position="1763.3122,2036.1693"
     orientation="1000,0"
     id="guide18" /><sodipodi:guide
     position="0,200"
     orientation="0,1"
     id="guide20"
     inkscape:label="base"
     inkscape:locked="true"
     inkscape:color="rgb(0,0,255)" /><inkscape:grid
     type="xygrid"
     id="grid24"
     originx="-473.37552"
     originy="-489.69235" /><sodipodi:guide
     position="0,0"
     orientation="0,1"
     id="guide34"
     inkscape:label="bottom"
     inkscape:locked="true"
     inkscape:color="rgb(0,0,255)" /><sodipodi:guide
     position="225.05109,1693.3186"
     orientation="0,1"
     id="guide44"
     inkscape:label=""
     inkscape:locked="false"
     inkscape:color="rgb(0,0,255)" /><sodipodi:guide
     position="0,900"
     orientation="0,1"
     id="guide46"
     inkscape:label=""
     inkscape:locked="true"
     inkscape:color="rgb(0,0,255)" /><sodipodi:guide
     position="0,1000"
     orientation="0,1000"
     id="guide860" /><sodipodi:guide
     position="788.35564,369.7535"
     orientation="-1,0"
     id="guide862"
     inkscape:label="width"
     inkscape:locked="false"
     inkscape:color="rgb(0,0,255)" /><sodipodi:guide
     position="1000,0"
     orientation="0,-1000"
     id="guide864" /><sodipodi:guide
     position="0,0"
     orientation="-1000,0"
     id="guide866" /></sodipodi:namedview>
 <defs
   id="defs4"><inkscape:path-effect
   effect="fillet_chamfer"
   id="path-effect857"
   is_visible="true"
   lpeversion="1"
   satellites_param="F,0,0,1,0,0,0,1 @ F,0,0,1,0,0,0,1 @ F,0,0,1,0,0,0,1 @ F,0,0,1,0,0,0,1 @ F,0,0,1,0,0,0,1 @ F,0,0,1,0,0,0,1 @ F,0,0,1,0,0,0,1 @ F,0,0,1,0,0,0,1 @ F,0,0,1,0,0,0,1 @ F,0,0,1,0,0,0,1 @ F,0,0,1,0,0,0,1 @ F,0,0,1,0,0,0,1 @ F,0,0,1,0,0,0,1 @ F,0,0,1,0,0,0,1 @ F,0,0,1,0,0,0,1 @ F,0,0,1,0,0,0,1 @ F,0,0,1,0,0,0,1 @ F,0,0,1,0,0,0,1 @ F,0,0,1,0,0,0,1 @ F,0,0,1,0,0,0,1 @ F,0,0,1,0,0,0,1 @ F,0,0,1,0,0,0,1 @ F,0,0,1,0,0,0,1 @ F,0,0,1,0,0,0,1 @ F,0,0,1,0,0,0,1 @ F,0,1,1,0,47.938418,0,1 @ F,0,1,1,0,47.938418,0,1 @ F,0,0,1,0,0,0,1 @ F,0,0,1,0,0,0,1 @ F,0,1,1,0,47.938418,0,1 @ F,0,1,1,0,47.938418,0,1 @ F,0,0,1,0,0,0,1 @ F,0,0,1,0,0,0,1 @ F,0,0,1,0,0,0,1 @ F,0,0,1,0,0,0,1 @ F,0,0,1,0,0,0,1 @ F,0,0,1,0,0,0,1 @ F,0,0,1,0,0,0,1 @ F,0,0,1,0,0,0,1 @ F,0,0,1,0,0,0,1 @ F,0,0,1,0,0,0,1 @ F,0,0,1,0,0,0,1 @ F,0,1,1,0,47.938418,0,1 @ F,0,1,1,0,47.938418,0,1 @ F,0,0,1,0,0,0,1 @ F,0,0,1,0,0,0,1 @ F,0,0,1,0,0,0,1 @ F,0,0,1,0,0,0,1 @ F,0,0,1,0,0,0,1 @ F,0,0,1,0,0,0,1 @ F,0,0,1,0,0,0,1 @ F,0,0,1,0,0,0,1 @ F,0,0,1,0,0,0,1 @ F,0,0,1,0,0,0,1 @ F,0,0,1,0,0,0,1 @ F,0,0,1,0,0,0,1 @ F,0,0,1,0,0,0,1 @ F,0,0,1,0,0,0,1"
   unit="px"
   method="auto"
   mode="F"
   radius="0"
   chamfer_steps="1"
   flexible="false"
   use_knot_distance="true"
   apply_no_radius="true"
   apply_with_radius="true"
   only_selected="true"
   hide_knots="false" /><inkscape:path-effect
   effect="fillet_chamfer"
   id="path-effect855"
   is_visible="true"
   lpeversion="1"
   satellites_param="F,0,0,1,0,0,0,1 @ F,0,0,1,0,0,0,1 @ F,0,0,1,0,0,0,1 @ F,0,0,1,0,0,0,1 @ F,0,0,1,0,0,0,1 @ F,0,0,1,0,0,0,1 @ F,0,0,1,0,0,0,1 @ F,0,0,1,0,0,0,1 @ F,0,0,1,0,0,0,1 @ F,0,0,1,0,0,0,1 @ F,0,0,1,0,0,0,1 @ F,0,0,1,0,0,0,1 @ F,0,0,1,0,0,0,1 @ F,0,0,1,0,0,0,1 @ F,0,0,1,0,0,0,1 @ F,0,0,1,0,0,0,1 @ F,0,0,1,0,0,0,1 @ F,0,0,1,0,0,0,1 @ F,0,0,1,0,0,0,1 @ F,0,0,1,0,0,0,1 @ F,0,0,1,0,0,0,1 @ F,0,0,1,0,0,0,1 @ F,0,0,1,0,0,0,1 @ F,0,0,1,0,0,0,1 @ F,0,0,1,0,0,0,1 @ F,0,0,1,0,0,0,1 @ F,0,0,1,0,30.430169,0,1 @ F,0,0,1,0,21.932319,0,1 @ F,0,0,1,0,0,0,1 @ F,0,0,1,0,0,0,1 @ F,0,0,1,0,0,0,1 @ F,0,0,1,0,18.866285,0,1 @ F,0,0,1,0,29.980096,0,1 @ F,0,0,1,0,0,0,1 @ F,0,0,1,0,0,0,1 @ F,0,0,1,0,0,0,1 @ F,0,0,1,0,0,0,1 @ F,0,0,1,0,0,0,1 @ F,0,0,1,0,0,0,1 @ F,0,0,1,0,0,0,1 @ F,0,0,1,0,0,0,1 @ F,0,0,1,0,0,0,1 @ F,0,0,1,0,0,0,1 @ F,0,0,1,0,0,0,1 @ F,0,0,1,0,25.906123,0,1 @ F,0,0,1,0,22.394912,0,1 @ F,0,0,1,0,0,0,1 @ F,0,0,1,0,0,0,1 @ F,0,0,1,0,0,0,1 @ F,0,0,1,0,0,0,1 @ F,0,0,1,0,0,0,1 @ F,0,0,1,0,0,0,1 @ F,0,0,1,0,0,0,1 @ F,0,0,1,0,0,0,1 @ F,0,0,1,0,0,0,1 @ F,0,0,1,0,0,0,1 @ F,0,0,1,0,0,0,1 @ F,0,0,1,0,0,0,1 @ F,0,0,1,0,0,0,1 @ F,0,0,1,0,0,0,1"
   unit="px"
   method="auto"
   mode="F"
   radius="0"
   chamfer_steps="1"
   flexible="false"
   use_knot_distance="true"
   apply_no_radius="true"
   apply_with_radius="true"
   only_selected="true"
   hide_knots="false" /><inkscape:path-effect
   effect="spiro"
   id="path-effect856"
   is_visible="true"
   lpeversion="1" /><inkscape:path-effect
   effect="spiro"
   id="path-effect1521"
   is_visible="true"
   lpeversion="1" /><inkscape:path-effect
   effect="spiro"
   id="path-effect858"
   is_visible="true"
   lpeversion="1" /><inkscape:path-effect
   effect="spiro"
   id="path-effect854"
   is_visible="true"
   lpeversion="1" />
  <style
   type="text/css"
   id="style2">
   <![CDATA[
    .fil0 {fill:#EF7F1A;fill-rule:nonzero}
   ]]>
  </style>
 <inkscape:path-effect
   effect="spiro"
   id="path-effect1214"
   is_visible="true"
   lpeversion="1" /><inkscape:path-effect
   effect="spiro"
   id="path-effect1195"
   is_visible="true"
   lpeversion="1" /><inkscape:path-effect
   effect="spiro"
   id="path-effect992"
   is_visible="true"
   lpeversion="1" /><inkscape:path-effect
   effect="spiro"
   id="path-effect287"
   is_visible="true"
   lpeversion="1" /><inkscape:path-effect
   effect="spiro"
   id="path-effect1032"
   is_visible="true"
   lpeversion="1" /><inkscape:path-effect
   effect="spiro"
   id="path-effect1218"
   is_visible="true"
   lpeversion="1" /><inkscape:path-effect
   effect="spiro"
   id="path-effect309"
   is_visible="true"
   lpeversion="1" /><inkscape:path-effect
   effect="spiro"
   id="path-effect1176"
   is_visible="true"
   lpeversion="1" /><inkscape:path-effect
   effect="spiro"
   id="path-effect1112"
   is_visible="true"
   lpeversion="1" /></defs>
 
<path
   style="fill:#1a1a1a;fill-rule:nonzero;stroke:none;stroke-width:1px;stroke-linecap:butt;stroke-linejoin:miter;stroke-opacity:1"
   d="M 65.362231,397.69468 85.823419,280.97076 c 38.214631,-14.74442 81.882381,-14.82208 120.149221,-0.21367 43.19486,16.48969 78.29557,50.79604 100.67875,91.25217 18.48088,33.40297 28.93502,71.89208 25.52264,109.91388 -3.41238,38.0218 -21.56827,75.31604 -52.07423,98.26572 -16.62074,12.5038 -36.48809,20.54789 -57.05561,23.64164 -20.56751,3.09376 -41.79987,1.27854 -61.70119,-4.76559 -28.45145,-8.64085 -53.92299,-25.7774 -74.603817,-47.14216 C 66.058352,530.558 49.993252,505.05399 37.193929,478.21509 4.1099008,408.84118 -7.3830779,328.68407 8.8325688,253.55522 15.733837,221.58089 27.691571,190.35996 46.845476,163.84368 65.999381,137.3274 92.688642,115.70345 123.80515,105.61643 c 33.27166,-10.785657 70.07616,-7.881663 102.922,4.13849 32.84584,12.02016 61.99126,32.70824 87.3723,56.77349 43.62781,41.36608 77.08175,93.38521 96.62202,150.24219 10.60204,-62.11531 43.09332,-120.27052 90.43178,-161.86121 22.30686,-19.59839 48.02726,-35.69717 76.32956,-44.67895 28.3023,-8.98178 59.28907,-10.587929 87.72826,-2.04946 33.10828,9.9403 61.28825,33.20074 80.98022,61.6119 19.69197,28.41116 31.38472,61.74969 38.16588,95.64635 21.14469,105.69501 -5.66354,219.30991 -68.73035,306.72336 -68.90159,95.50073 -181.09618,159.23056 -298.63907,166.4061 -31.05143,1.89557 -62.33113,0.0229 -92.9346,-5.56389 84.09411,39.08144 181.57602,48.60961 271.64609,26.55149 56.89891,-13.93452 110.69128,-40.2777 156.76463,-76.43964 20.81475,-16.33703 35.72689,-10.27467 35.52349,16.2002 l -0.87708,114.16476 c -0.2034,26.47487 -21.22496,53.20768 -47.39504,57.16236 -33.20583,5.01787 -66.87237,6.99009 -100.43638,5.85903 C 497.06389,871.71056 360.06413,811.84347 217.79348,814.51291 158.81102,815.6196 100.07083,827.72051 45.386233,849.83563 20.851951,859.75759 1.660614,848.53198 1.3482205,822.05817 L 0.56563852,755.7382 C 0.25324499,729.26439 18.52745,696.77818 42.892614,686.46204 64.327085,677.38675 86.568532,670.2167 109.27281,665.0864 c 91.37282,-20.64675 186.45055,-7.9672 280.11875,-6.72326 57.99303,0.77016 117.89535,-3.37007 169.8207,-29.20692 36.52216,-18.17258 67.54059,-46.54293 91.12219,-79.82985 23.5816,-33.28692 39.90051,-71.3938 50.36846,-110.82136 10.35753,-39.01167 14.96751,-81.006 2.43725,-119.37502 -6.26513,-19.18451 -16.84933,-37.12093 -31.60788,-50.88619 -14.75855,-13.76526 -33.78973,-23.1941 -53.8677,-25.23675 -14.94772,-1.52072 -30.16503,1.02918 -44.2228,6.33259 -14.05776,5.30341 -26.99765,13.30393 -38.74802,22.66746 -43.54143,34.69689 -70.30527,88.37872 -76.21452,143.73945 -4.35317,40.78268 2.33143,82.61268 18.67996,120.20843 10.53945,24.23693 1.97953,41.96995 -24.49433,42.27795 l -77.04078,0.89628 c -26.47386,0.308 -38.89671,-19.05349 -31.7556,-44.5245 9.86887,-35.2004 14.03729,-72.00379 12.15576,-108.51554 -2.17254,-42.15876 -12.53679,-84.32223 -33.69628,-120.85108 -15.2555,-26.33645 -36.44786,-49.82263 -63.27309,-64.2013 -26.82523,-14.37867 -59.60145,-18.9117 -88.23861,-8.60383 -21.98832,7.91464 -40.50671,24.10544 -53.25868,43.68897 -12.75198,19.58353 -19.98071,42.41672 -23.172349,65.56712 -5.346731,38.78226 0.942061,80.11255 22.900369,112.52372 10.09686,14.9033 23.55569,27.83564 39.85952,35.46716 16.30384,7.63152 35.57776,9.61079 52.51455,3.5116 16.4767,-5.93351 29.96844,-19.41911 36.3211,-35.73879 6.35265,-16.31969 5.58613,-35.18651 -1.66665,-51.12657 -5.66238,-12.44469 -15.08848,-23.04946 -26.42566,-30.69152 -11.33719,-7.64207 -24.53398,-12.3683 -38.06487,-14.32987 -27.06179,-3.92316 -54.79173,3.13308 -79.41753,15.02011 -12.341165,5.95716 -24.097098,13.12595 -35.043839,21.36979 z"
   id="path854"
   inkscape:path-effect="#path-effect856;#path-effect857"
   inkscape:original-d="M 65.362231,397.69468 85.823419,280.97076 c 0,0 82.770331,-14.5944 120.149221,-0.21367 42.2725,16.26343 84.98594,48.76453 100.67875,91.25217 24.23761,65.6223 22.1474,157.95852 -26.55159,208.1796 -27.90322,28.77533 -80.55019,30.99481 -118.7568,18.87605 C 106.29386,581.60386 62.947679,529.90688 37.193929,478.21509 3.5341988,410.65473 -11.121681,326.35088 8.8325688,253.55522 25.342999,193.32305 64.143729,124.08326 123.80515,105.61643 c 63.62369,-19.693259 137.457,20.36548 190.2943,60.91198 47.23749,36.2493 96.62202,150.24219 96.62202,150.24219 0,0 41.96551,-123.51173 90.43178,-161.86121 44.59039,-35.28265 110.12772,-64.748193 164.05782,-46.72841 62.3757,20.84173 105.18142,92.99245 119.1461,157.25825 22.24829,102.38718 -6.03781,222.7724 -68.73035,306.72336 -68.18579,91.30692 -187.53605,141.06105 -298.63907,166.4061 -30.25639,6.90214 -50.84743,-5.56389 -92.9346,-5.56389 110.27793,68.96571 182.60997,45.25889 271.64609,26.55149 72.07603,-15.14391 192.6564,-108.17644 192.6564,-108.17644 L 786.742,861.41861 c 0,0 -98.06427,16.17357 -147.46314,15.08439 C 497.30683,873.3727 359.6024,807.02381 217.79348,814.51291 143.59862,818.43123 24.118609,857.31933 1.913859,869.99325 L 0,707.80312 c 0,0 70.930926,-35.01128 109.27281,-42.71672 91.56899,-18.4023 187.15944,2.33707 280.11875,-6.72326 57.16711,-5.57182 120.89341,0.88036 169.8207,-29.20692 67.4132,-41.45497 132.14269,-112.06578 141.49065,-190.65121 8.363,-70.30518 -18.28861,-166.85829 -83.03833,-195.49796 -26.79366,-11.8512 -60.74792,9.90832 -82.97082,29.00005 -41.13593,35.33994 -69.90931,89.87555 -76.21452,143.73945 -6.48434,55.39419 42.1208,161.9287 42.1208,161.9287 l -172.91112,2.01164 c 0,0 30.66417,-101.58668 28.33533,-153.59772 -1.87067,-41.77842 -6.83867,-88.7948 -33.69628,-120.85108 -35.98466,-42.95 -97.30862,-87.00458 -151.5117,-72.80513 -42.99465,11.2632 -67.39088,65.73971 -76.431029,109.25609 -7.785445,37.47666 -1.349979,82.90897 22.900369,112.52372 21.17357,25.85736 61.53939,51.86854 92.37407,38.97876 28.76233,-12.02347 49.40378,-59.40096 34.65445,-86.86536 -23.18345,-43.16938 -109.84287,-48.63441 -143.90806,-30.00128 -20.364766,11.13922 -35.043839,21.36979 -35.043839,21.36979 z"
   sodipodi:nodetypes="ccaaaaaaaacaaaaacaccaaccaaaaaaaccaaaaaaasc" /></svg>
