<?xml version="1.0" encoding="UTF-8" standalone="no"?>
<svg
   xmlns:dc="http://purl.org/dc/elements/1.1/"
   xmlns:cc="http://creativecommons.org/ns#"
   xmlns:rdf="http://www.w3.org/1999/02/22-rdf-syntax-ns#"
   xmlns:svg="http://www.w3.org/2000/svg"
   xmlns="http://www.w3.org/2000/svg"
   xmlns:sodipodi="http://sodipodi.sourceforge.net/DTD/sodipodi-0.dtd"
   xmlns:inkscape="http://www.inkscape.org/namespaces/inkscape"
   xml:space="preserve"
   width="1200"
   height="1000"
   version="1.1"
   style="clip-rule:evenodd;fill-rule:evenodd;image-rendering:optimizeQuality;shape-rendering:geometricPrecision;text-rendering:geometricPrecision"
   viewBox="0 0 1200 1000"
   id="svg10"
   sodipodi:docname="ഇ.svg"
   inkscape:version="1.0.2 (e86c870879, 2021-01-15)"><metadata
   id="metadata14"><rdf:RDF><cc:Work
       rdf:about=""><dc:format>image/svg+xml</dc:format><dc:type
         rdf:resource="http://purl.org/dc/dcmitype/StillImage" /><dc:title /></cc:Work></rdf:RDF></metadata><sodipodi:namedview
   pagecolor="#ffffff"
   bordercolor="#666666"
   borderopacity="1"
   objecttolerance="10"
   gridtolerance="10"
   guidetolerance="10"
   inkscape:pageopacity="0"
   inkscape:pageshadow="2"
   inkscape:window-width="1920"
   inkscape:window-height="1007"
   id="namedview12"
   showgrid="false"
   inkscape:zoom="0.678"
   inkscape:cx="297.79293"
   inkscape:cy="493.71569"
   inkscape:window-x="1920"
   inkscape:window-y="0"
   inkscape:window-maximized="1"
   inkscape:current-layer="svg10"
   showguides="true"
   inkscape:guide-bbox="true"
   inkscape:document-rotation="0"
   inkscape:snap-to-guides="true"><sodipodi:guide
     position="0,1000"
     orientation="0,1"
     id="guide16"
     inkscape:label=""
     inkscape:locked="true"
     inkscape:color="rgb(0,0,255)" /><sodipodi:guide
     position="1763.3122,2036.1693"
     orientation="1000,0"
     id="guide18" /><sodipodi:guide
     position="0,200"
     orientation="0,1"
     id="guide20"
     inkscape:label="base"
     inkscape:locked="true"
     inkscape:color="rgb(0,0,255)" /><inkscape:grid
     type="xygrid"
     id="grid24"
     originx="-473.37552"
     originy="-489.69235" /><sodipodi:guide
     position="0,0"
     orientation="0,1"
     id="guide34"
     inkscape:label="bottom"
     inkscape:locked="true"
     inkscape:color="rgb(0,0,255)" /><sodipodi:guide
     position="225.05109,1693.3186"
     orientation="0,1"
     id="guide44"
     inkscape:label=""
     inkscape:locked="false"
     inkscape:color="rgb(0,0,255)" /><sodipodi:guide
     position="0,900"
     orientation="0,1"
     id="guide46"
     inkscape:label=""
     inkscape:locked="true"
     inkscape:color="rgb(0,0,255)" /><sodipodi:guide
     position="0,1000"
     orientation="0,1000"
     id="guide860" /><sodipodi:guide
     position="788.35564,369.7535"
     orientation="-1,0"
     id="guide862"
     inkscape:label="width"
     inkscape:locked="false"
     inkscape:color="rgb(0,0,255)" /><sodipodi:guide
     position="1000,0"
     orientation="0,-1000"
     id="guide864" /><sodipodi:guide
     position="0,0"
     orientation="-1000,0"
     id="guide866" /></sodipodi:namedview>
 <defs
   id="defs4"><inkscape:path-effect
   effect="fillet_chamfer"
   id="path-effect859"
   is_visible="true"
   lpeversion="1"
   satellites_param="F,0,0,1,0,0,0,1 @ F,0,0,1,0,0,0,1 @ F,0,0,1,0,0,0,1 @ F,0,0,1,0,0,0,1 @ F,0,0,1,0,0,0,1 @ F,0,0,1,0,0,0,1 @ F,0,0,1,0,0,0,1 @ F,0,0,1,0,0,0,1 @ F,0,0,1,0,0,0,1 @ F,0,0,1,0,0,0,1 @ F,0,0,1,0,0,0,1 @ F,0,0,1,0,0,0,1 @ F,0,0,1,0,0,0,1 @ F,0,0,1,0,0,0,1 @ F,0,0,1,0,0,0,1 @ F,0,0,1,0,0,0,1 @ F,0,0,1,0,0,0,1 @ F,0,0,1,0,0,0,1 @ F,0,0,1,0,0,0,1 @ F,0,0,1,0,0,0,1 @ F,0,0,1,0,0,0,1 @ F,0,0,1,0,0,0,1 @ F,0,0,1,0,0,0,1 @ F,0,0,1,0,0,0,1 @ F,0,0,1,0,0,0,1 @ F,0,0,1,0,0,0,1 @ F,0,0,1,0,0,0,1 @ F,0,0,1,0,0,0,1 @ F,0,0,1,0,32.139013,0,1 @ F,0,1,1,0,28.821836,0,1 @ F,0,0,1,0,0,0,1 @ F,0,0,1,0,0,0,1 @ F,0,0,1,0,0,0,1 @ F,0,0,1,0,32.139013,0,1 @ F,0,0,1,0,32.139013,0,1 @ F,0,0,1,0,0,0,1 @ F,0,0,1,0,0,0,1 @ F,0,0,1,0,0,0,1 @ F,0,0,1,0,0,0,1 @ F,0,0,1,0,0,0,1 @ F,0,0,1,0,0,0,1 @ F,0,0,1,0,0,0,1 @ F,0,0,1,0,0,0,1 @ F,0,0,1,0,0,0,1 @ F,0,0,1,0,0,0,1 @ F,0,0,1,0,0,0,1 @ F,0,0,1,0,32.139013,0,1 @ F,0,0,1,0,32.139013,0,1 @ F,0,0,1,0,0,0,1 @ F,0,0,1,0,0,0,1 @ F,0,0,1,0,0,0,1 @ F,0,0,1,0,0,0,1 @ F,0,0,1,0,0,0,1 @ F,0,0,1,0,0,0,1 @ F,0,0,1,0,0,0,1 @ F,0,0,1,0,0,0,1 @ F,0,0,1,0,0,0,1 @ F,0,0,1,0,0,0,1 @ F,0,0,1,0,0,0,1 @ F,0,0,1,0,0,0,1 @ F,0,0,1,0,0,0,1 @ F,0,0,1,0,0,0,1"
   unit="px"
   method="auto"
   mode="F"
   radius="0"
   chamfer_steps="1"
   flexible="false"
   use_knot_distance="true"
   apply_no_radius="true"
   apply_with_radius="true"
   only_selected="true"
   hide_knots="false" /><inkscape:path-effect
   effect="fillet_chamfer"
   id="path-effect857"
   is_visible="true"
   lpeversion="1"
   satellites_param="F,0,0,1,0,0,0,1 @ F,0,0,1,0,0,0,1 @ F,0,0,1,0,0,0,1 @ F,0,0,1,0,0,0,1 @ F,0,0,1,0,0,0,1 @ F,0,0,1,0,0,0,1 @ F,0,0,1,0,0,0,1 @ F,0,0,1,0,0,0,1 @ F,0,0,1,0,0,0,1 @ F,0,0,1,0,0,0,1 @ F,0,0,1,0,0,0,1 @ F,0,0,1,0,0,0,1 @ F,0,0,1,0,0,0,1 @ F,0,0,1,0,0,0,1 @ F,0,0,1,0,0,0,1 @ F,0,0,1,0,0,0,1 @ F,0,0,1,0,0,0,1 @ F,0,0,1,0,0,0,1 @ F,0,0,1,0,0,0,1 @ F,0,0,1,0,0,0,1 @ F,0,0,1,0,0,0,1 @ F,0,0,1,0,0,0,1 @ F,0,0,1,0,0,0,1 @ F,0,0,1,0,0,0,1 @ F,0,0,1,0,0,0,1 @ F,0,1,1,0,47.938418,0,1 @ F,0,1,1,0,47.938418,0,1 @ F,0,0,1,0,0,0,1 @ F,0,0,1,0,0,0,1 @ F,0,1,1,0,47.938418,0,1 @ F,0,1,1,0,47.938418,0,1 @ F,0,0,1,0,0,0,1 @ F,0,0,1,0,0,0,1 @ F,0,0,1,0,0,0,1 @ F,0,0,1,0,0,0,1 @ F,0,0,1,0,0,0,1 @ F,0,0,1,0,0,0,1 @ F,0,0,1,0,0,0,1 @ F,0,0,1,0,0,0,1 @ F,0,0,1,0,0,0,1 @ F,0,0,1,0,0,0,1 @ F,0,0,1,0,0,0,1 @ F,0,1,1,0,47.938418,0,1 @ F,0,1,1,0,47.938418,0,1 @ F,0,0,1,0,0,0,1 @ F,0,0,1,0,0,0,1 @ F,0,0,1,0,0,0,1 @ F,0,0,1,0,0,0,1 @ F,0,0,1,0,0,0,1 @ F,0,0,1,0,0,0,1 @ F,0,0,1,0,0,0,1 @ F,0,0,1,0,0,0,1 @ F,0,0,1,0,0,0,1 @ F,0,0,1,0,0,0,1 @ F,0,0,1,0,0,0,1 @ F,0,0,1,0,0,0,1 @ F,0,0,1,0,0,0,1 @ F,0,0,1,0,0,0,1"
   unit="px"
   method="auto"
   mode="F"
   radius="0"
   chamfer_steps="1"
   flexible="false"
   use_knot_distance="true"
   apply_no_radius="true"
   apply_with_radius="true"
   only_selected="true"
   hide_knots="false" /><inkscape:path-effect
   effect="fillet_chamfer"
   id="path-effect855"
   is_visible="true"
   lpeversion="1"
   satellites_param="F,0,0,1,0,0,0,1 @ F,0,0,1,0,0,0,1 @ F,0,0,1,0,0,0,1 @ F,0,0,1,0,0,0,1 @ F,0,0,1,0,0,0,1 @ F,0,0,1,0,0,0,1 @ F,0,0,1,0,0,0,1 @ F,0,0,1,0,0,0,1 @ F,0,0,1,0,0,0,1 @ F,0,0,1,0,0,0,1 @ F,0,0,1,0,0,0,1 @ F,0,0,1,0,0,0,1 @ F,0,0,1,0,0,0,1 @ F,0,0,1,0,0,0,1 @ F,0,0,1,0,0,0,1 @ F,0,0,1,0,0,0,1 @ F,0,0,1,0,0,0,1 @ F,0,0,1,0,0,0,1 @ F,0,0,1,0,0,0,1 @ F,0,0,1,0,0,0,1 @ F,0,0,1,0,0,0,1 @ F,0,0,1,0,0,0,1 @ F,0,0,1,0,0,0,1 @ F,0,0,1,0,0,0,1 @ F,0,0,1,0,0,0,1 @ F,0,0,1,0,0,0,1 @ F,0,0,1,0,30.430169,0,1 @ F,0,0,1,0,21.932319,0,1 @ F,0,0,1,0,0,0,1 @ F,0,0,1,0,0,0,1 @ F,0,0,1,0,0,0,1 @ F,0,0,1,0,18.866285,0,1 @ F,0,0,1,0,29.980096,0,1 @ F,0,0,1,0,0,0,1 @ F,0,0,1,0,0,0,1 @ F,0,0,1,0,0,0,1 @ F,0,0,1,0,0,0,1 @ F,0,0,1,0,0,0,1 @ F,0,0,1,0,0,0,1 @ F,0,0,1,0,0,0,1 @ F,0,0,1,0,0,0,1 @ F,0,0,1,0,0,0,1 @ F,0,0,1,0,0,0,1 @ F,0,0,1,0,0,0,1 @ F,0,0,1,0,25.906123,0,1 @ F,0,0,1,0,22.394912,0,1 @ F,0,0,1,0,0,0,1 @ F,0,0,1,0,0,0,1 @ F,0,0,1,0,0,0,1 @ F,0,0,1,0,0,0,1 @ F,0,0,1,0,0,0,1 @ F,0,0,1,0,0,0,1 @ F,0,0,1,0,0,0,1 @ F,0,0,1,0,0,0,1 @ F,0,0,1,0,0,0,1 @ F,0,0,1,0,0,0,1 @ F,0,0,1,0,0,0,1 @ F,0,0,1,0,0,0,1 @ F,0,0,1,0,0,0,1 @ F,0,0,1,0,0,0,1"
   unit="px"
   method="auto"
   mode="F"
   radius="0"
   chamfer_steps="1"
   flexible="false"
   use_knot_distance="true"
   apply_no_radius="true"
   apply_with_radius="true"
   only_selected="true"
   hide_knots="false" /><inkscape:path-effect
   effect="spiro"
   id="path-effect856"
   is_visible="true"
   lpeversion="1" /><inkscape:path-effect
   effect="spiro"
   id="path-effect1521"
   is_visible="true"
   lpeversion="1" /><inkscape:path-effect
   effect="spiro"
   id="path-effect858"
   is_visible="true"
   lpeversion="1" /><inkscape:path-effect
   effect="spiro"
   id="path-effect854"
   is_visible="true"
   lpeversion="1" />
  <style
   type="text/css"
   id="style2">
   <![CDATA[
    .fil0 {fill:#EF7F1A;fill-rule:nonzero}
   ]]>
  </style>
 <inkscape:path-effect
   effect="spiro"
   id="path-effect1214"
   is_visible="true"
   lpeversion="1" /><inkscape:path-effect
   effect="spiro"
   id="path-effect1195"
   is_visible="true"
   lpeversion="1" /><inkscape:path-effect
   effect="spiro"
   id="path-effect992"
   is_visible="true"
   lpeversion="1" /><inkscape:path-effect
   effect="spiro"
   id="path-effect287"
   is_visible="true"
   lpeversion="1" /><inkscape:path-effect
   effect="spiro"
   id="path-effect1032"
   is_visible="true"
   lpeversion="1" /><inkscape:path-effect
   effect="spiro"
   id="path-effect1218"
   is_visible="true"
   lpeversion="1" /><inkscape:path-effect
   effect="spiro"
   id="path-effect309"
   is_visible="true"
   lpeversion="1" /><inkscape:path-effect
   effect="spiro"
   id="path-effect1176"
   is_visible="true"
   lpeversion="1" /><inkscape:path-effect
   effect="spiro"
   id="path-effect1112"
   is_visible="true"
   lpeversion="1" /></defs>
 
<path
   style="fill:#1a1a1a;fill-rule:nonzero;stroke:none;stroke-width:1px;stroke-linecap:butt;stroke-linejoin:miter;stroke-opacity:1"
   d="M 65.362231,397.69468 85.823419,280.97076 c 38.214621,-14.74448 81.882401,-14.82214 120.149221,-0.21367 43.19482,16.48975 78.29539,50.79615 100.67875,91.25217 18.48109,33.403 28.93565,71.89215 25.52339,109.91408 -3.41226,38.02194 -21.56843,75.31641 -52.07498,98.26552 -16.6209,12.50337 -36.48833,20.54684 -57.05574,23.64039 -20.56742,3.09356 -41.79951,1.2786 -61.70106,-4.76434 -28.45251,-8.63937 -53.92651,-25.77333 -74.608684,-47.1376 C 66.052145,530.56305 49.987157,505.05754 37.193929,478.21509 4.1285572,408.8381 -7.3076463,328.69495 8.8325688,253.55522 15.705006,221.56103 27.617567,190.30571 46.764573,163.76799 65.91158,137.23027 92.641692,115.60128 123.80515,105.61643 c 33.26514,-10.658239 70.00106,-7.55189 102.78003,4.51902 32.77897,12.07092 61.88688,32.65681 87.51427,56.39296 61.06482,56.55838 103.92817,132.47348 120.81535,213.97554 l -61.4426,0.65972 c 12.20412,-87.82576 58.80764,-170.40845 127.68105,-226.25428 22.97634,-18.63031 48.56443,-34.48847 76.69074,-43.6488 28.1263,-9.16033 58.96509,-11.345668 87.36708,-3.07961 33.18502,9.6581 61.30275,33.11802 80.85019,61.62105 19.54743,28.50303 31.09259,61.83429 38.29591,95.6372 22.96701,107.77692 1.71058,224.84893 -60.16454,316.03455 -34.76101,51.22745 -82.38194,94.51466 -139.06476,119.40716 -59.93358,26.32009 -126.70316,31.19066 -191.8945,37.09576 -49.20515,4.45705 -98.33875,9.70401 -147.37548,15.73817 l 4.17636,-50.91977 c 100.60516,65.79314 229.30264,86.92638 345.66499,56.76119 61.71888,-15.99969 119.76606,-45.90927 168.75367,-86.70346 13.63657,-11.35579 22.42982,-7.15944 20.6129,10.49721 l -15.37353,149.39813 c -1.6294,15.83425 -15.43617,31.98447 -31.05907,35.02189 -32.69395,6.35641 -66.05262,9.29586 -99.35435,8.73294 -71.18327,-1.20324 -141.01361,-18.24188 -210.40554,-34.15621 -69.39192,-15.91433 -139.95155,-30.87881 -211.07984,-27.83388 -56.76036,2.42985 -112.97836,16.5469 -164.22183,41.06205 -16.007921,7.65828 -30.627415,0.74978 -33.337345,-16.79202 L 4.9067622,739.56536 c -2.7099299,-17.5418 7.5157748,-39.08162 23.5646548,-46.65223 25.814784,-12.1774 52.960107,-21.53567 80.801393,-27.82673 91.37282,-20.64675 186.45055,-7.9672 280.11875,-6.72326 57.99303,0.77016 117.89535,-3.37007 169.8207,-29.20692 36.52216,-18.17258 67.54059,-46.54293 91.12219,-79.82985 23.5816,-33.28692 39.90051,-71.3938 50.36846,-110.82136 10.35753,-39.01167 14.96751,-81.006 2.43725,-119.37502 -6.26513,-19.18451 -16.84933,-37.12093 -31.60788,-50.88619 -14.75855,-13.76526 -33.78973,-23.1941 -53.8677,-25.23675 -14.94772,-1.52072 -30.16503,1.02918 -44.2228,6.33259 -14.05776,5.30341 -26.99765,13.30393 -38.74802,22.66746 -43.54143,34.69689 -70.30527,88.37872 -76.21452,143.73945 -4.91243,46.02209 4.23117,93.3779 25.45653,134.47753 8.13817,15.75833 2.37006,25.80116 -15.26274,23.76578 l -97.99875,-11.31219 c -17.6328,-2.03538 -27.29206,-17.34453 -23.29754,-34.63297 7.70419,-33.34411 10.6466,-67.79009 8.64751,-101.95553 -2.46498,-42.12776 -12.62612,-84.2878 -33.69628,-120.85108 -15.20143,-26.37922 -36.39988,-49.88755 -63.23947,-64.26055 -26.83958,-14.37301 -59.632,-18.87336 -88.27223,-8.54458 -21.98185,7.92751 -40.49514,24.11721 -53.24822,43.69796 -12.75309,19.58075 -19.987857,42.40993 -23.182809,65.55813 -5.352738,38.78189 0.940439,80.1131 22.900369,112.52372 10.09743,14.90278 23.55619,27.83488 39.85987,35.46646 16.30368,7.63158 35.57743,9.61122 52.5142,3.5123 16.47683,-5.9333 29.96869,-19.41893 36.32133,-35.73867 6.35264,-16.31974 5.586,-35.18663 -1.66688,-51.12669 -5.66244,-12.44465 -15.08855,-23.04938 -26.42574,-30.69142 -11.33718,-7.64204 -24.53396,-12.36827 -38.06484,-14.32985 -27.06176,-3.92318 -54.79169,3.13299 -79.41748,15.01999 -12.34117,5.95715 -24.097104,13.12594 -35.043839,21.36979 z"
   id="path854"
   inkscape:path-effect="#path-effect856;#path-effect859"
   inkscape:original-d="M 65.362231,397.69468 85.823419,280.97076 c 0,0 82.770331,-14.5944 120.149221,-0.21367 42.2725,16.26343 84.98594,48.76453 100.67875,91.25217 24.23761,65.6223 22.1474,157.95852 -26.55159,208.1796 -27.90322,28.77533 -80.55019,30.99481 -118.7568,18.87605 C 106.29386,581.60386 62.947679,529.90688 37.193929,478.21509 3.5341988,410.65473 -11.121681,326.35088 8.8325688,253.55522 25.342999,193.32305 64.143729,124.08326 123.80515,105.61643 c 63.62369,-19.693259 138.64471,18.86298 190.2943,60.91198 63.52037,51.71325 120.81535,213.97554 120.81535,213.97554 l -61.4426,0.65972 c 0,0 59.65583,-172.66472 127.68105,-226.25428 44.66574,-35.18721 110.12772,-64.748193 164.05782,-46.72841 62.3757,20.84173 104.14489,93.22647 119.1461,157.25825 24.46087,104.40977 -6.44263,223.22458 -60.16454,316.03455 -30.60815,52.87863 -84.0549,92.81913 -139.06476,119.40716 -58.65691,28.35076 -127.46413,27.44556 -191.8945,37.09576 -48.85948,7.31804 -147.37548,15.73817 -147.37548,15.73817 l 4.17636,-50.91977 c 0,0 230.67218,77.02608 345.66499,56.76119 72.53212,-12.78215 192.6564,-108.17644 192.6564,-108.17644 L 766.742,861.41861 c 0,0 -84.6832,15.68834 -127.46314,15.08439 -141.99238,-2.00458 -279.81193,-71.71061 -421.48538,-61.99009 -66.7216,4.57791 -170.447663,43.35835 -192.652413,56.03227 L 0,707.80312 c 0,0 70.930926,-35.01128 109.27281,-42.71672 91.56899,-18.4023 187.15944,2.33707 280.11875,-6.72326 57.16711,-5.57182 120.89341,0.88036 169.8207,-29.20692 67.4132,-41.45497 132.14269,-112.06578 141.49065,-190.65121 8.363,-70.30518 -18.28861,-166.85829 -83.03833,-195.49796 -26.79366,-11.8512 -60.74792,9.90832 -82.97082,29.00005 -41.13593,35.33994 -69.90931,89.87555 -76.21452,143.73945 -6.48434,55.39419 42.1208,161.9287 42.1208,161.9287 L 338.74727,558.99228 c 0,0 20.46056,-88.3429 17.27698,-132.90311 -2.98023,-41.71396 -6.83867,-88.7948 -33.69628,-120.85108 -35.98466,-42.95 -97.30862,-87.00458 -151.5117,-72.80513 -42.99465,11.2632 -67.39088,65.73971 -76.431029,109.25609 -7.785445,37.47666 -1.349979,82.90897 22.900369,112.52372 21.17357,25.85736 61.53939,51.86854 92.37407,38.97876 28.76233,-12.02347 49.40378,-59.40096 34.65445,-86.86536 -23.18345,-43.16938 -109.84287,-48.63441 -143.90806,-30.00128 -20.364766,11.13922 -35.043839,21.36979 -35.043839,21.36979 z"
   sodipodi:nodetypes="ccaaaaaaaaccaaaaaaccaccaaccaaaaaaaccaaaaaaasc" /></svg>
