<?xml version="1.0" encoding="UTF-8" standalone="no"?>
<svg
   xml:space="preserve"
   width="1000"
   height="1000"
   version="1.1"
   style="clip-rule:evenodd;fill-rule:evenodd;image-rendering:optimizeQuality;shape-rendering:geometricPrecision;text-rendering:geometricPrecision"
   viewBox="0 0 1000 1000"
   id="svg10"
   sodipodi:docname="ഉ.svg"
   inkscape:version="1.1.1 (3bf5ae0d25, 2021-09-20)"
   xmlns:inkscape="http://www.inkscape.org/namespaces/inkscape"
   xmlns:sodipodi="http://sodipodi.sourceforge.net/DTD/sodipodi-0.dtd"
   xmlns="http://www.w3.org/2000/svg"
   xmlns:svg="http://www.w3.org/2000/svg"
   xmlns:rdf="http://www.w3.org/1999/02/22-rdf-syntax-ns#"
   xmlns:cc="http://creativecommons.org/ns#"
   xmlns:dc="http://purl.org/dc/elements/1.1/"><metadata
   id="metadata14"><rdf:RDF><cc:Work
       rdf:about=""><dc:format>image/svg+xml</dc:format><dc:type
         rdf:resource="http://purl.org/dc/dcmitype/StillImage" /></cc:Work></rdf:RDF></metadata><sodipodi:namedview
   pagecolor="#ffffff"
   bordercolor="#666666"
   borderopacity="1"
   objecttolerance="10"
   gridtolerance="10"
   guidetolerance="10"
   inkscape:pageopacity="0"
   inkscape:pageshadow="2"
   inkscape:window-width="1920"
   inkscape:window-height="1009"
   id="namedview12"
   showgrid="false"
   inkscape:zoom="0.84890884"
   inkscape:cx="100.71753"
   inkscape:cy="513.60049"
   inkscape:window-x="0"
   inkscape:window-y="0"
   inkscape:window-maximized="1"
   inkscape:current-layer="svg10"
   showguides="true"
   inkscape:guide-bbox="true"
   inkscape:document-rotation="0"
   inkscape:pagecheckerboard="0"><sodipodi:guide
   position="0,1000"
   orientation="0,1"
   id="guide16"
   inkscape:label=""
   inkscape:locked="true"
   inkscape:color="rgb(0,0,255)" /><sodipodi:guide
   position="1763.3122,2036.1693"
   orientation="1000,0"
   id="guide18" /><sodipodi:guide
   position="0,200"
   orientation="0,1"
   id="guide20"
   inkscape:label="base"
   inkscape:locked="true"
   inkscape:color="rgb(0,0,255)" /><inkscape:grid
   type="xygrid"
   id="grid24"
   originx="-473.37552"
   originy="-489.69235" /><sodipodi:guide
   position="0,0"
   orientation="0,1"
   id="guide34"
   inkscape:label="bottom"
   inkscape:locked="true"
   inkscape:color="rgb(0,0,255)" /><sodipodi:guide
   position="225.05109,1693.3186"
   orientation="0,1"
   id="guide44"
   inkscape:label=""
   inkscape:locked="false"
   inkscape:color="rgb(0,0,255)" /><sodipodi:guide
   position="0,900"
   orientation="0,1"
   id="guide46"
   inkscape:label=""
   inkscape:locked="true"
   inkscape:color="rgb(0,0,255)" /><sodipodi:guide
   position="563.99564,805.34464"
   orientation="1,0"
   id="guide841"
   inkscape:label="width" />    </sodipodi:namedview>
 <defs
   id="defs4"><inkscape:path-effect
   effect="fillet_chamfer"
   id="path-effect849"
   is_visible="true"
   lpeversion="1"
   satellites_param="F,0,0,1,0,0,0,1 @ F,0,0,1,0,0,0,1 @ F,0,0,1,0,0,0,1 @ F,0,0,1,0,0,0,1 @ F,0,0,1,0,0,0,1 @ F,0,0,1,0,0,0,1 @ F,0,0,1,0,0,0,1 @ F,0,0,1,0,0,0,1 @ F,0,0,1,0,0,0,1 @ F,0,0,1,0,0,0,1 @ F,0,0,1,0,0,0,1 @ F,0,0,1,0,0,0,1 @ F,0,0,1,0,0,0,1 @ F,0,0,1,0,0,0,1 @ F,0,0,1,0,0,0,1 @ F,0,0,1,0,0,0,1 @ F,0,0,1,0,0,0,1 @ F,0,0,1,0,0,0,1 @ F,0,0,1,0,0,0,1 @ F,0,0,1,0,0,0,1 @ F,0,1,1,0,13.706209,0,1 @ F,0,1,1,0,13.706209,0,1 @ F,0,0,1,0,0,0,1 @ F,0,0,1,0,0,0,1 @ F,0,1,1,0,13.706209,0,1 @ F,0,1,1,0,13.706209,0,1 @ F,0,0,1,0,0,0,1 @ F,0,0,1,0,0,0,1 @ F,0,0,1,0,0,0,1 @ F,0,0,1,0,0,0,1 @ F,0,0,1,0,0,0,1 @ F,0,0,1,0,0,0,1 @ F,0,0,1,0,0,0,1 @ F,0,0,1,0,0,0,1 @ F,0,0,1,0,0,0,1 @ F,0,0,1,0,0,0,1 @ F,0,0,1,0,0,0,1 @ F,0,0,1,0,0,0,1 @ F,0,0,1,0,0,0,1 @ F,0,0,1,0,0,0,1 @ F,0,0,1,0,0,0,1 @ F,0,0,1,0,0,0,1 @ F,0,0,1,0,0,0,1 @ F,0,0,1,0,0,0,1 @ F,0,0,1,0,0,0,1 @ F,0,0,1,0,0,0,1 @ F,0,0,1,0,0,0,1"
   unit="px"
   method="auto"
   mode="F"
   radius="0"
   chamfer_steps="1"
   flexible="false"
   use_knot_distance="true"
   apply_no_radius="true"
   apply_with_radius="true"
   only_selected="true"
   hide_knots="false" /><inkscape:path-effect
   effect="fillet_chamfer"
   id="path-effect848"
   is_visible="true"
   lpeversion="1"
   satellites_param="F,0,0,1,0,0,0,1 @ F,0,0,1,0,0,0,1 @ F,0,0,1,0,0,0,1 @ F,0,0,1,0,0,0,1 @ F,0,0,1,0,0,0,1 @ F,0,0,1,0,0,0,1 @ F,0,0,1,0,0,0,1 @ F,0,0,1,0,0,0,1 @ F,0,0,1,0,0,0,1 @ F,0,0,1,0,0,0,1 @ F,0,0,1,0,0,0,1 @ F,0,0,1,0,0,0,1 @ F,0,0,1,0,0,0,1 @ F,0,0,1,0,0,0,1 @ F,0,0,1,0,0,0,1 @ F,0,0,1,0,0,0,1 @ F,0,0,1,0,26.94604,0,1 @ F,0,0,1,0,18.074474,0,1 @ F,0,0,1,0,0,0,1 @ F,0,0,1,0,0,0,1 @ F,0,0,1,0,16.267137,0,1 @ F,0,0,1,0,18.919387,0,1 @ F,0,0,1,0,0,0,1 @ F,0,0,1,0,0,0,1 @ F,0,0,1,0,0,0,1 @ F,0,0,1,0,0,0,1 @ F,0,0,1,0,0,0,1 @ F,0,0,1,0,0,0,1 @ F,0,0,1,0,0,0,1 @ F,0,0,1,0,0,0,1 @ F,0,0,1,0,0,0,1 @ F,0,0,1,0,0,0,1 @ F,0,0,1,0,0,0,1 @ F,0,0,1,0,0,0,1 @ F,0,0,1,0,0,0,1 @ F,0,0,1,0,0,0,1 @ F,0,0,1,0,0,0,1 @ F,0,0,1,0,0,0,1 @ F,0,0,1,0,0,0,1 @ F,0,0,1,0,0,0,1 @ F,0,0,1,0,0,0,1 @ F,0,0,1,0,0,0,1 @ F,0,0,1,0,0,0,1"
   unit="px"
   method="auto"
   mode="F"
   radius="0"
   chamfer_steps="1"
   flexible="false"
   use_knot_distance="true"
   apply_no_radius="true"
   apply_with_radius="true"
   only_selected="true"
   hide_knots="false" /><inkscape:path-effect
   effect="spiro"
   id="path-effect851"
   is_visible="true"
   lpeversion="1" />
  <style
   type="text/css"
   id="style2">
   <![CDATA[
    .fil0 {fill:#EF7F1A;fill-rule:nonzero}
   ]]>
  </style>
 <inkscape:path-effect
   effect="spiro"
   id="path-effect1214"
   is_visible="true"
   lpeversion="1" /><inkscape:path-effect
   effect="spiro"
   id="path-effect1195"
   is_visible="true"
   lpeversion="1" /><inkscape:path-effect
   effect="spiro"
   id="path-effect992"
   is_visible="true"
   lpeversion="1" /><inkscape:path-effect
   effect="spiro"
   id="path-effect1060"
   is_visible="true"
   lpeversion="1" /><inkscape:path-effect
   effect="spiro"
   id="path-effect1047"
   is_visible="true"
   lpeversion="1" /><inkscape:path-effect
   effect="spiro"
   id="path-effect1085"
   is_visible="true"
   lpeversion="1" /><inkscape:path-effect
   effect="spiro"
   id="path-effect1286"
   is_visible="true"
   lpeversion="1" /><inkscape:path-effect
   effect="spiro"
   id="path-effect1305"
   is_visible="true"
   lpeversion="1" /></defs>
 
<path
   id="path1210-6"
   style="display:inline;fill:#63452c;fill-rule:nonzero;stroke:none;stroke-width:2.22142px;stroke-linecap:butt;stroke-linejoin:miter;stroke-opacity:1"
   d="m 339.47972,417.49732 c 13.58651,32.41561 19.60487,68.42844 14.06621,103.13707 -5.53866,34.70862 -23.16392,67.91294 -50.8492,89.56681 -27.09093,21.189 -62.65827,30.39535 -96.94579,27.70116 -46.17916,-3.62859 -89.40448,-28.143 -120.212872,-62.73382 C 54.729677,540.57773 35.72075,496.55635 26.393683,451.18359 16.696341,404.00958 17.052399,355.01489 25.136088,307.53774 35.261197,248.07091 59.089619,188.44478 104.82397,149.11044 c 34.78376,-29.91617 80.17736,-46.00818 125.90338,-49.752309 50.69153,-4.150713 102.36795,6.394009 147.84575,29.167469 45.47779,22.77345 84.70055,57.62037 113.52058,99.52819 34.55858,50.25237 54.06444,110.4504 57.24926,171.35568 3.18482,60.90527 -9.7709,122.37727 -35.71916,177.57042 -30.15383,64.1386 -79.88116,121.32094 -145.29431,148.59976 -68.6333,28.6217 -146.18274,22.03672 -219.70331,33.19274 -18.48428,2.80481 -36.79479,6.75437 -54.791728,11.81855 l -5.047159,-21.39642 c 24.454137,6.62261 49.274767,11.89164 74.310417,15.77494 57.17829,8.86897 115.42809,10.48056 173.08538,5.61717 36.03736,-3.03975 72.03243,-8.64101 106.41738,-19.84842 26.47341,-8.62873 51.86668,-20.56248 75.41369,-35.4222 6.40116,-4.03955 12.2671,-1.4691 13.28916,6.03131 l 15.55466,114.14828 c 1.02206,7.50041 -4.23661,14.36179 -11.76301,15.16955 -48.02223,5.1539 -96.54874,5.60419 -144.65778,1.33383 -77.58102,-6.88642 -154.11807,-25.99545 -232.00373,-26.24159 -36.54651,-0.1155 -73.103921,3.95895 -108.730871,12.10494 -7.379043,1.6872 -14.037998,-2.84815 -14.928766,-10.36529 L 23.49154,732.28679 c -0.890768,-7.51714 3.475882,-17.05145 10.006006,-20.87798 21.771922,-12.75794 45.572822,-22.05309 70.237234,-27.39198 36.55004,-7.91167 74.33045,-7.12925 111.72651,-7.31388 37.39607,-0.18463 75.42141,-1.47983 110.91313,-13.26277 35.62922,-11.82859 67.53156,-34.10796 91.95284,-62.62038 24.42128,-28.51241 41.42749,-63.11935 50.41744,-99.56846 14.22184,-57.66143 8.02904,-120.4286 -18.72622,-173.44988 -18.09544,-35.85998 -45.55578,-67.24491 -79.81129,-88.21974 -34.2555,-20.97484 -75.34138,-31.20446 -115.25869,-26.73322 -53.66778,6.01146 -103.18934,39.13353 -130.93963,85.46159 -21.48301,35.86507 -30.240228,78.83535 -26.542171,120.47845 2.108282,23.74095 8.204411,47.26308 19.241201,68.38811 11.03679,21.12503 27.12562,39.79394 47.21935,52.61266 10.07222,6.42553 21.15508,11.38065 32.83728,13.88331 11.6822,2.50265 23.97908,2.50226 35.48669,-0.70897 13.24874,-3.6971 25.23275,-11.65336 33.99218,-22.25855 8.75943,-10.60518 14.29028,-23.79518 15.98458,-37.44534 1.97219,-15.889 -1.19839,-32.17357 -7.60341,-46.84755 -6.40501,-14.67398 -15.94788,-27.82038 -26.80544,-39.58742 C 203.57871,358.87857 135.59668,333.98955 70.856439,342.03667 l 28.119378,-96.6078 c 28.002133,4.74582 55.465113,12.66545 81.694503,23.55863 68.66905,28.51855 130.06695,79.93418 158.8094,148.50982 z"
   sodipodi:nodetypes="aaaaaaaaaaaccaaaccaaccaaaaaaaaaaaccaa"
   inkscape:original-d="m 339.47972,417.49732 c 20.26927,62.17376 7.33778,144.43612 -36.78299,192.70388 -22.67532,24.80661 -64.49802,36.45786 -96.94579,27.70116 C 122.42939,615.41632 58.967087,531.10277 26.393683,451.18359 8.320744,406.84145 14.282966,354.17535 25.136088,307.53774 38.534425,249.96293 61.192356,188.99348 104.82397,149.11044 c 33.30737,-30.4458 80.81489,-51.584279 125.90338,-49.752309 97.03095,3.942419 207.54444,47.864029 261.36633,128.695659 64.58442,96.99521 62.17273,239.71348 21.5301,348.9261 -24.16164,64.92582 -83.63386,117.0223 -145.29431,148.59976 -65.92357,33.76068 -146.85032,19.84573 -219.70331,33.19274 -18.37808,3.36695 -54.791728,11.81855 -54.791728,11.81855 l -5.047159,-21.39642 c 0,0 49.172867,12.7232 74.310417,15.77494 57.30476,6.95689 115.52641,9.99877 173.08538,5.61717 35.98009,-2.73894 72.18689,-8.43166 106.41738,-19.84842 30.64112,-10.21962 83.04642,-50.91721 86.85225,-42.97159 l 19.25586,141.30968 c -30.36456,-52.37437 -105.56374,5.40614 -158.27139,2.92268 -77.74145,-3.66299 -154.17755,-26.72761 -232.00373,-26.24159 -41.00198,0.25606 -92.060448,2.67105 -122.046758,15.35063 L 21.878661,718.67581 c 0,0 53.120194,-27.43334 81.856119,-34.65898 72.2795,-18.17467 156.23441,13.26106 222.63964,-20.57665 C 390.46985,630.77946 447.04403,569.83725 468.7447,501.25134 486.28712,445.80777 481.5422,376.66843 450.01848,327.80146 409.10526,264.3792 330.40243,211.12225 254.9485,212.8485 c -52.10681,1.19211 -101.30873,42.58326 -130.93963,85.46159 -23.37848,33.83057 -32.391073,79.77402 -26.542171,120.47845 6.545071,45.5493 29.263991,93.90847 66.460551,121.00077 18.74831,13.65543 46.47061,20.94612 68.32397,13.17434 24.45312,-8.69634 45.86643,-34.078 49.97676,-59.70389 4.91126,-30.61933 -12.17719,-64.81514 -34.40885,-86.43497 C 202.78576,363.03076 137.45855,360.48894 70.856439,342.03667 l 28.119378,-96.6078 c 0,0 57.047933,9.56689 81.694503,23.55863 63.02835,35.78087 136.34498,79.60268 158.8094,148.50982 z"
   inkscape:path-effect="#path-effect1305;#path-effect849" /></svg>
