<svg xmlns="http://www.w3.org/2000/svg" xmlns:dc="http://purl.org/dc/elements/1.1/" xmlns:ns1="http://sodipodi.sourceforge.net/DTD/sodipodi-0.dtd" xmlns:ns2="http://www.inkscape.org/namespaces/inkscape" xmlns:ns4="http://creativecommons.org/ns#" xmlns:rdf="http://www.w3.org/1999/02/22-rdf-syntax-ns#" xml:space="preserve" width="1000" height="1000" version="1.1" style="clip-rule:evenodd;fill-rule:evenodd;image-rendering:optimizeQuality;shape-rendering:geometricPrecision;text-rendering:geometricPrecision" viewBox="0 0 1000 1000" id="svg10" ns1:docname="ഌ.svg" ns2:version="1.0.2 (e86c870879, 2021-01-15)"><metadata id="metadata14"><rdf:RDF><ns4:Work rdf:about=""><dc:format>image/svg+xml</dc:format><dc:type rdf:resource="http://purl.org/dc/dcmitype/StillImage" /><dc:title /></ns4:Work></rdf:RDF></metadata><ns1:namedview pagecolor="#ffffff" bordercolor="#666666" borderopacity="1" objecttolerance="10" gridtolerance="10" guidetolerance="10" ns2:pageopacity="0" ns2:pageshadow="2" ns2:window-width="1920" ns2:window-height="1007" id="namedview12" showgrid="false" ns2:zoom="0.95883679" ns2:cx="473.71492" ns2:cy="482.35637" ns2:window-x="1920" ns2:window-y="0" ns2:window-maximized="1" ns2:current-layer="svg10" showguides="true" ns2:guide-bbox="true" ns2:document-rotation="0" ns2:snap-to-guides="true"><ns1:guide position="0,1000" orientation="0,1" id="guide16" ns2:label="" ns2:locked="true" ns2:color="rgb(0,0,255)" /><ns1:guide position="1763.3122,2036.1693" orientation="1000,0" id="guide18" /><ns1:guide position="0,200" orientation="0,1" id="guide20" ns2:label="base" ns2:locked="true" ns2:color="rgb(0,0,255)" /><ns2:grid type="xygrid" id="grid24" originx="-473.37552" originy="-489.69235" /><ns1:guide position="0,0" orientation="0,1" id="guide34" ns2:label="bottom" ns2:locked="true" ns2:color="rgb(0,0,255)" /><ns1:guide position="225.05109,1693.3186" orientation="0,1" id="guide44" ns2:label="" ns2:locked="false" ns2:color="rgb(0,0,255)" /><ns1:guide position="0,900" orientation="0,1" id="guide46" ns2:label="" ns2:locked="true" ns2:color="rgb(0,0,255)" /><ns1:guide position="845.41905,147.57764" orientation="-1,0" id="guide841" ns2:label="width" ns2:locked="false" ns2:color="rgb(0,0,255)" /><ns1:guide position="0,1000" orientation="0,1000" id="guide860" /><ns1:guide position="1000,1000" orientation="1000,0" id="guide862" /><ns1:guide position="1000,0" orientation="0,-1000" id="guide864" /><ns1:guide position="0,0" orientation="-1000,0" id="guide866" /></ns1:namedview>
 <defs id="defs4"><ns2:path-effect effect="fillet_chamfer" id="path-effect857" is_visible="true" lpeversion="1" satellites_param="F,0,0,1,0,0,0,1 @ F,0,0,1,0,0,0,1 @ F,0,0,1,0,0,0,1 @ F,0,0,1,0,0,0,1 @ F,0,0,1,0,0,0,1 @ F,0,0,1,0,0,0,1 @ F,0,0,1,0,0,0,1 @ F,0,0,1,0,0,0,1 @ F,0,0,1,0,0,0,1 @ F,0,0,1,0,0,0,1 @ F,0,0,1,0,0,0,1 @ F,0,0,1,0,0,0,1 @ F,0,0,1,0,0,0,1 @ F,0,0,1,0,0,0,1 @ F,0,0,1,0,0,0,1 @ F,0,0,1,0,0,0,1 @ F,0,0,1,0,0,0,1 @ F,0,0,1,0,0,0,1 @ F,0,0,1,0,0,0,1 @ F,0,0,1,0,0,0,1 @ F,0,0,1,0,0,0,1 @ F,0,0,1,0,0,0,1 @ F,0,0,1,0,0,0,1 @ F,0,0,1,0,0,0,1 @ F,0,0,1,0,0,0,1 @ F,0,0,1,0,0,0,1 @ F,0,0,1,0,0,0,1 @ F,0,0,1,0,0,0,1 @ F,0,0,1,0,0,0,1 @ F,0,0,1,0,0,0,1 @ F,0,0,1,0,0,0,1 @ F,0,0,1,0,0,0,1 @ F,0,0,1,0,0,0,1 @ F,0,0,1,0,0,0,1 @ F,0,0,1,0,0,0,1 @ F,0,0,1,0,0,0,1 @ F,0,0,1,0,0,0,1 @ F,0,0,1,0,0,0,1 @ F,0,0,1,0,0,0,1 @ F,0,0,1,0,0,0,1 @ F,0,0,1,0,0,0,1 @ F,0,0,1,0,0,0,1 @ F,0,0,1,0,0,0,1 @ F,0,0,1,0,0,0,1 @ F,0,0,1,0,0,0,1 @ F,0,0,1,0,0,0,1 @ F,0,0,1,0,0,0,1 @ F,0,0,1,0,0,0,1 @ F,0,0,1,0,0,0,1 @ F,0,0,1,0,0,0,1 @ F,0,0,1,0,0,0,1 @ F,0,0,1,0,0,0,1 @ F,0,1,1,0,14.976071,0,1 @ F,0,1,1,0,14.976071,0,1 @ F,0,0,1,0,0,0,1 @ F,0,0,1,0,0,0,1 @ F,0,0,1,0,0,0,1 @ F,0,0,1,0,0,0,1 @ F,0,0,1,0,0,0,1 @ F,0,0,1,0,0,0,1 @ F,0,0,1,0,0,0,1 @ F,0,0,1,0,0,0,1 @ F,0,0,1,0,0,0,1 @ F,0,0,1,0,0,0,1 @ F,0,0,1,0,0,0,1 @ F,0,0,1,0,0,0,1 @ F,0,0,1,0,0,0,1 @ F,0,0,1,0,0,0,1 @ F,0,0,1,0,0,0,1 @ F,0,0,1,0,0,0,1 @ F,0,0,1,0,0,0,1 @ F,0,0,1,0,0,0,1" unit="px" method="auto" mode="F" radius="0" chamfer_steps="1" flexible="false" use_knot_distance="true" apply_no_radius="true" apply_with_radius="true" only_selected="true" hide_knots="false" /><ns2:path-effect effect="spiro" id="path-effect862" is_visible="true" lpeversion="1" /><ns2:path-effect effect="spiro" id="path-effect1521" is_visible="true" lpeversion="1" /><ns2:path-effect effect="spiro" id="path-effect858" is_visible="true" lpeversion="1" /><ns2:path-effect effect="spiro" id="path-effect854" is_visible="true" lpeversion="1" />
  <style type="text/css" id="style2">
   
    .fil0 {fill:#EF7F1A;fill-rule:nonzero}
   
  </style>
 <ns2:path-effect effect="spiro" id="path-effect1214" is_visible="true" lpeversion="1" /><ns2:path-effect effect="spiro" id="path-effect1195" is_visible="true" lpeversion="1" /><ns2:path-effect effect="spiro" id="path-effect992" is_visible="true" lpeversion="1" /><ns2:path-effect effect="spiro" id="path-effect287" is_visible="true" lpeversion="1" /><ns2:path-effect effect="spiro" id="path-effect1032" is_visible="true" lpeversion="1" /><ns2:path-effect effect="spiro" id="path-effect1218" is_visible="true" lpeversion="1" /><ns2:path-effect effect="spiro" id="path-effect309" is_visible="true" lpeversion="1" /><ns2:path-effect effect="spiro" id="path-effect1176" is_visible="true" lpeversion="1" /><ns2:path-effect effect="spiro" id="path-effect1026" is_visible="true" lpeversion="1" /><ns2:path-effect effect="spiro" id="path-effect1030" is_visible="true" lpeversion="1" /></defs>
 
<path style="display:inline;fill:#613583;fill-rule:nonzero;stroke:none;stroke-width:2.09522px;stroke-linecap:butt;stroke-linejoin:miter;stroke-opacity:1" d="m 33.164985,392.57605 c 76.357845,-20.04452 161.537415,-3.1354 224.448965,44.5557 40.04549,30.35712 71.08325,72.60134 87.44233,120.11531 16.35907,47.51397 17.87376,100.125 3.62382,148.31354 -4.94501,16.72236 -11.78814,32.99642 -21.5696,47.43294 -9.78147,14.43653 -22.60049,27.00935 -37.97903,35.23072 -23.24693,12.42781 -51.28523,14.20794 -76.93403,8.12444 -25.6488,-6.08351 -49.08348,-19.56087 -69.68961,-36.00037 C 95.137869,722.55674 61.873185,669.13526 41.112588,612.20447 20.351991,555.27368 11.427537,494.69576 6.5508225,434.29431 1.6422609,373.49841 0.8679776,311.17467 18.606566,252.81734 27.47586,223.63868 40.99709,195.71028 59.855375,171.74313 78.71366,147.77599 103.0202,127.85205 130.98878,115.69403 c 42.41488,-18.437869 91.88033,-18.071952 135.49517,-2.68614 43.61483,15.38582 81.45679,45.06755 110.11799,81.36511 48.5469,61.48151 70.65492,139.56977 84.94139,216.59363 2.68952,14.50023 5.14246,29.04434 7.35751,43.62459 l -44.40864,0.041 c 2.96506,-13.80942 5.84076,-27.63802 8.62685,-41.48465 12.15352,-60.40194 22.85014,-121.93531 49.03588,-177.70636 21.81613,-46.46454 55.18983,-88.78982 100.01961,-113.79359 22.41488,-12.50189 47.46872,-20.48653 73.07902,-22.170838 25.6103,-1.684305 51.75287,3.037688 74.69169,14.550068 35.84727,17.99079 62.08569,51.54646 78.1516,88.29672 16.06591,36.75026 22.90194,76.80718 28.00952,116.58918 9.3835,73.08636 13.36456,147.49869 2.00682,220.30438 -11.35775,72.80569 -38.82345,144.28976 -86.7719,200.24164 -16.34203,19.0698 -35.24922,36.42898 -57.74367,47.59674 -22.49444,11.16775 -48.93104,15.72072 -73.11095,8.93464 -20.58979,-5.77851 -38.44266,-19.44747 -51.5384,-36.35405 -13.09574,-16.90657 -21.70181,-36.93102 -27.59057,-57.48955 -15.98325,-55.79986 -12.22487,-116.94332 9.8979,-170.6059 22.12277,-53.66258 62.37371,-99.55841 112.37604,-129.03477 45.82277,-27.01251 99.64177,-40.26279 152.76778,-37.61154 l 9.95279,143.48901 c -27.19461,-22.65365 -63.35113,-34.23543 -98.64678,-31.59887 -32.9941,2.46463 -64.98845,17.31477 -87.86428,41.21835 -22.87583,23.90359 -36.33446,56.68666 -36.43182,89.77254 -0.0453,15.39208 2.80955,31.06045 10.36399,44.47121 7.55444,13.41076 20.17296,24.35938 35.15834,27.87455 13.26948,3.11266 27.48812,0.24185 39.55949,-6.08665 12.07136,-6.32849 22.17349,-15.91025 30.84063,-26.4292 23.16846,-28.1186 36.7285,-63.16474 43.97301,-98.87119 7.24451,-35.70644 8.50409,-72.32587 9.388,-108.7491 0.84601,-34.86139 1.31018,-70.24856 -7.53936,-103.97864 -4.42476,-16.86504 -11.19742,-33.20528 -20.95208,-47.65709 -9.75465,-14.45181 -22.55869,-26.98344 -37.78632,-35.47622 -14.71538,-8.20709 -31.50241,-12.51852 -48.34449,-13.01164 -16.84207,-0.49312 -33.7241,2.78525 -49.38814,8.99303 -31.32808,12.41558 -57.24836,36.26176 -76.24728,64.09404 -23.09096,33.82688 -36.61201,73.59738 -42.76799,114.08879 -6.15599,40.49141 -5.16274,81.79313 -0.96616,122.53425 2.51667,24.43227 6.17912,48.74647 10.97028,72.83618 1.61339,8.11204 -3.57123,13.67491 -11.75259,12.46016 l -86.12841,-12.78812 c -8.18136,-1.21475 -12.83382,-8.60849 -10.72338,-16.60527 6.19786,-23.48469 10.26965,-47.5305 12.14182,-71.74712 4.61186,-59.65466 -4.58766,-121.19995 -32.47584,-174.13573 -15.05197,-28.5708 -35.31117,-54.26812 -58.70393,-76.53089 -18.24009,-17.35899 -38.71681,-32.86049 -62.10886,-42.17969 -23.39205,-9.3192 -49.99746,-12.0673 -73.88385,-4.10013 -16.15836,5.38953 -30.52181,15.4588 -42.31011,27.75416 -11.78829,12.29536 -21.10569,26.78008 -28.90269,41.92427 -25.536077,49.59898 -35.004976,106.95209 -29.09597,162.42491 5.909005,55.47282 26.9089,108.97722 58.3733,155.04392 10.6149,15.54116 22.70438,30.54995 38.50928,40.76802 7.90245,5.10904 16.68423,8.94982 25.92424,10.73117 9.24,1.78135 18.94689,1.45891 27.89075,-1.46654 8.42478,-2.75566 16.05304,-7.78657 22.13711,-14.23286 6.08408,-6.44629 10.63754,-14.28263 13.52887,-22.66182 5.78266,-16.75838 4.83696,-35.34862 -0.30642,-52.31412 -7.02182,-23.16158 -21.81301,-43.84644 -41.28438,-58.22109 -19.47136,-14.37465 -43.49693,-22.40518 -67.69386,-22.92775 -36.92731,-0.7975 -73.824948,16.4474 -96.900108,45.28833 z" id="path1087-1-75" ns2:path-effect="#path-effect1030;#path-effect857" ns2:original-d="m 33.164985,392.57605 c 0,0 167.096235,-5.73074 224.448965,44.5557 71.04422,62.29104 105.05489,174.98491 91.06615,268.42885 -5.02779,33.5854 -28.00302,70.08861 -59.54863,82.66366 -46.2135,18.42213 -107.99605,3.47644 -146.62364,-27.87593 C 51.079069,686.13949 7.8872291,552.04143 6.5508225,434.29431 5.2568792,320.28852 28.040839,164.69113 130.98878,115.69403 c 77.62565,-36.945194 182.91797,19.85718 245.61316,78.67897 56.55628,53.06215 73.11449,154.97751 84.94139,216.59363 5.02543,26.18167 7.35751,43.62459 7.35751,43.62459 l -44.40864,0.041 c 0,0 3.36778,-16.93815 8.62685,-41.48465 12.29678,-57.39473 9.81634,-130.4006 49.03588,-177.70636 58.70506,-70.80876 160.43902,-150.222619 247.79032,-121.41436 73.04863,24.09126 95.45943,128.71527 106.16112,204.8859 19.89573,141.61039 5.25823,309.43732 -84.76508,420.54602 -29.91179,36.91777 -84.60464,67.42063 -130.85462,56.53138 -39.82826,-9.3773 -72.74969,-53.42666 -79.12897,-93.8436 -16.81862,-106.55705 40.63211,-229.12909 122.27394,-299.64067 39.68958,-34.27869 152.76778,-37.61154 152.76778,-37.61154 l 9.95279,143.48901 c 0,0 -65.19906,-40.16835 -98.64678,-31.59887 -58.30909,14.93908 -118.36049,71.09185 -124.2961,130.99089 -2.80962,28.35322 18.20565,64.2465 45.52233,72.34576 24.78247,7.34788 53.85007,-12.65993 70.40012,-32.51585 45.7506,-54.88931 56.53464,-136.23485 53.36101,-207.62029 -2.93876,-66.10253 -6.6668,-158.39412 -66.27776,-187.11195 -55.27355,-26.62826 -133.96268,13.56897 -173.97991,60.07543 -52.3165,60.80021 -42.78161,156.41846 -43.73415,236.62304 -0.35078,29.53584 14.03136,87.49584 14.03136,87.49584 L 386.97658,619.88023 c 0,0 16.2051,-56.93 16.23211,-86.15289 0.0546,-59.04603 -8.43395,-120.20592 -32.47584,-174.13573 -13.09094,-29.36509 -32.57893,-57.79149 -58.70393,-76.53089 -38.90925,-27.90951 -89.29706,-56.88112 -135.99271,-46.27982 -32.3862,7.35263 -59.75757,38.50624 -71.2128,69.67843 -36.656338,99.74993 -29.234729,228.75539 29.27733,317.46883 19.27235,29.2199 59.42404,61.98261 92.32427,50.03265 30.0652,-10.92023 44.09734,-58.43838 35.35956,-89.2088 -12.37196,-43.56834 -63.9201,-76.56304 -108.97824,-81.14884 -35.47044,-3.61002 -96.900108,45.28833 -96.900108,45.28833 z" ns1:nodetypes="caaaaaaasccsaaaaaaaccaaaaaaaaccaaaaaaaaacc" /></svg>