<?xml version="1.0" encoding="UTF-8"?>
<!DOCTYPE svg PUBLIC "-//W3C//DTD SVG 1.1//EN" "http://www.w3.org/Graphics/SVG/1.1/DTD/svg11.dtd">
<!-- Creator: CorelDRAW X8 -->
<svg xmlns="http://www.w3.org/2000/svg" xml:space="preserve" width="1174px" height="600px" version="1.1" style="shape-rendering:geometricPrecision; text-rendering:geometricPrecision; image-rendering:optimizeQuality; fill-rule:evenodd; clip-rule:evenodd"
viewBox="0 0 1174 600"
 xmlns:xlink="http://www.w3.org/1999/xlink">
 <defs>
  <style type="text/css">
   <![CDATA[
    .fil0 {fill:#EF7F1A;fill-rule:nonzero}
   ]]>
  </style>
 </defs>
 <g id="Layer_x0020_1">
  <metadata id="CorelCorpID_0Corel-Layer"/>
  <path class="fil0" d="M251 531c-54,1 -83,-65 -83,-118 0,-49 27,-118 82,-118 53,0 82,67 82,117 0,49 -27,118 -81,119zm680 0c-41,0 -66,-27 -81,-62 -12,-28 -17,-66 -17,-93 0,-48 12,-93 41,-132 28,-39 66,-63 114,-68 31,47 43,109 43,164 0,48 -10,100 -34,142 -16,26 -38,49 -66,49zm0 69c80,0 155,-30 199,-99 30,-48 44,-105 44,-161 0,-80 -18,-151 -70,-214 -77,-93 -186,-126 -304,-126 -72,0 -166,19 -224,61 -64,-48 -162,-62 -241,-61 -122,1 -240,48 -299,159 -25,48 -36,102 -36,157 0,86 27,181 97,236 45,35 98,49 154,48 54,0 111,-16 153,-49 44,-34 66,-89 66,-143 0,-47 -14,-90 -48,-125 -42,-42 -105,-60 -165,-60 -39,0 -76,7 -111,28 5,-24 13,-48 24,-69 33,-62 93,-113 165,-113 92,0 171,50 171,149l0 347c0,28 50,35 70,35 22,0 72,-7 72,-35l0 -348c0,-90 63,-149 152,-149 45,0 93,18 129,44 -72,13 -139,45 -185,103 -35,45 -56,103 -56,161 0,47 13,94 40,133 47,67 124,91 203,91z"/>
 </g>
</svg>
