<?xml version="1.0" encoding="UTF-8" standalone="no"?>
<svg
   xmlns:dc="http://purl.org/dc/elements/1.1/"
   xmlns:cc="http://creativecommons.org/ns#"
   xmlns:rdf="http://www.w3.org/1999/02/22-rdf-syntax-ns#"
   xmlns:svg="http://www.w3.org/2000/svg"
   xmlns="http://www.w3.org/2000/svg"
   xmlns:sodipodi="http://sodipodi.sourceforge.net/DTD/sodipodi-0.dtd"
   xmlns:inkscape="http://www.inkscape.org/namespaces/inkscape"
   xml:space="preserve"
   width="1000"
   height="1000"
   version="1.1"
   style="clip-rule:evenodd;fill-rule:evenodd;image-rendering:optimizeQuality;shape-rendering:geometricPrecision;text-rendering:geometricPrecision"
   viewBox="0 0 1000 1000"
   id="svg10"
   sodipodi:docname="എ.svg"
   inkscape:version="1.0.2 (e86c870879, 2021-01-15)"><metadata
   id="metadata14"><rdf:RDF><cc:Work
       rdf:about=""><dc:format>image/svg+xml</dc:format><dc:type
         rdf:resource="http://purl.org/dc/dcmitype/StillImage" /><dc:title /></cc:Work></rdf:RDF></metadata><sodipodi:namedview
   pagecolor="#ffffff"
   bordercolor="#666666"
   borderopacity="1"
   objecttolerance="10"
   gridtolerance="10"
   guidetolerance="10"
   inkscape:pageopacity="0"
   inkscape:pageshadow="2"
   inkscape:window-width="1920"
   inkscape:window-height="1007"
   id="namedview12"
   showgrid="false"
   inkscape:zoom="0.9588368"
   inkscape:cx="330.01674"
   inkscape:cy="589.12162"
   inkscape:window-x="1920"
   inkscape:window-y="0"
   inkscape:window-maximized="1"
   inkscape:current-layer="svg10"
   showguides="true"
   inkscape:guide-bbox="true"
   inkscape:document-rotation="0"
   inkscape:snap-to-guides="true"><sodipodi:guide
     position="0,1000"
     orientation="0,1"
     id="guide16"
     inkscape:label=""
     inkscape:locked="true"
     inkscape:color="rgb(0,0,255)" /><sodipodi:guide
     position="1763.3122,2036.1693"
     orientation="1000,0"
     id="guide18" /><sodipodi:guide
     position="0,200"
     orientation="0,1"
     id="guide20"
     inkscape:label="base"
     inkscape:locked="true"
     inkscape:color="rgb(0,0,255)" /><inkscape:grid
     type="xygrid"
     id="grid24"
     originx="-473.37552"
     originy="-489.69235" /><sodipodi:guide
     position="0,0"
     orientation="0,1"
     id="guide34"
     inkscape:label="bottom"
     inkscape:locked="true"
     inkscape:color="rgb(0,0,255)" /><sodipodi:guide
     position="225.05109,1693.3186"
     orientation="0,1"
     id="guide44"
     inkscape:label=""
     inkscape:locked="false"
     inkscape:color="rgb(0,0,255)" /><sodipodi:guide
     position="0,900"
     orientation="0,1"
     id="guide46"
     inkscape:label=""
     inkscape:locked="true"
     inkscape:color="rgb(0,0,255)" /><sodipodi:guide
     position="835.74725,532.79725"
     orientation="-1,0"
     id="guide841"
     inkscape:label="width"
     inkscape:locked="false"
     inkscape:color="rgb(0,0,255)" /><sodipodi:guide
     position="0,1000"
     orientation="0,1000"
     id="guide860" /><sodipodi:guide
     position="1000,1000"
     orientation="1000,0"
     id="guide862" /><sodipodi:guide
     position="1000,0"
     orientation="0,-1000"
     id="guide864" /><sodipodi:guide
     position="0,0"
     orientation="-1000,0"
     id="guide866" /></sodipodi:namedview>
 <defs
   id="defs4"><inkscape:path-effect
   effect="fillet_chamfer"
   id="path-effect856"
   is_visible="true"
   lpeversion="1"
   satellites_param="F,0,0,1,0,0,0,1 @ F,0,0,1,0,0,0,1 @ F,0,1,1,0,24.685406,0,1 @ F,0,1,1,0,24.685406,0,1 @ F,0,0,1,0,0,0,1 @ F,0,0,1,0,0,0,1 @ F,0,0,1,0,0,0,1 @ F,0,0,1,0,0,0,1 @ F,0,0,1,0,0,0,1 @ F,0,0,1,0,0,0,1 @ F,0,0,1,0,0,0,1 @ F,0,0,1,0,0,0,1 @ F,0,0,1,0,0,0,1 @ F,0,1,1,0,24.685406,0,1 @ F,0,1,1,0,24.685406,0,1 @ F,0,0,1,0,0,0,1 @ F,0,0,1,0,0,0,1 @ F,0,0,1,0,0,0,1 @ F,0,0,1,0,0,0,1 @ F,0,0,1,0,0,0,1 @ F,0,0,1,0,0,0,1 @ F,0,0,1,0,0,0,1 @ F,0,0,1,0,0,0,1 @ F,0,0,1,0,0,0,1 @ F,0,0,1,0,0,0,1 @ F,0,0,1,0,0,0,1 @ F,0,0,1,0,0,0,1 @ F,0,0,1,0,0,0,1 @ F,0,0,1,0,0,0,1 @ F,0,0,1,0,0,0,1 @ F,0,0,1,0,0,0,1 @ F,0,1,1,0,24.685406,0,1 @ F,0,1,1,0,24.685406,0,1 @ F,0,0,1,0,0,0,1 @ F,0,0,1,0,0,0,1 @ F,0,0,1,0,0,0,1 @ F,0,0,1,0,0,0,1 @ F,0,0,1,0,0,0,1 @ F,0,0,1,0,0,0,1 @ F,0,0,1,0,0,0,1 @ F,0,0,1,0,0,0,1 @ F,0,0,1,0,0,0,1 @ F,0,0,1,0,0,0,1 @ F,0,0,1,0,0,0,1 @ F,0,0,1,0,0,0,1 @ F,0,0,1,0,0,0,1 @ F,0,0,1,0,0,0,1 @ F,0,0,1,0,0,0,1 @ F,0,0,1,0,0,0,1 @ F,0,0,1,0,0,0,1 @ F,0,0,1,0,0,0,1 @ F,0,1,1,0,24.685406,0,1 @ F,0,1,1,0,24.685406,0,1 @ F,0,0,1,0,0,0,1 @ F,0,0,1,0,0,0,1 @ F,0,0,1,0,0,0,1 @ F,0,0,1,0,0,0,1 @ F,0,0,1,0,0,0,1 @ F,0,0,1,0,0,0,1 @ F,0,0,1,0,0,0,1 @ F,0,0,1,0,0,0,1 @ F,0,0,1,0,0,0,1 @ F,0,0,1,0,0,0,1 @ F,0,0,1,0,0,0,1 @ F,0,0,1,0,0,0,1 @ F,0,0,1,0,0,0,1 @ F,0,0,1,0,0,0,1 @ F,0,0,1,0,0,0,1 @ F,0,0,1,0,0,0,1 @ F,0,0,1,0,0,0,1"
   unit="px"
   method="auto"
   mode="F"
   radius="0"
   chamfer_steps="1"
   flexible="false"
   use_knot_distance="true"
   apply_no_radius="true"
   apply_with_radius="true"
   only_selected="true"
   hide_knots="false" /><inkscape:path-effect
   effect="fillet_chamfer"
   id="path-effect855"
   is_visible="true"
   lpeversion="1"
   satellites_param="F,0,0,1,0,0,0,1 @ F,0,0,1,0,0,0,1 @ F,0,0,1,0,24.263115,0,1 @ F,0,0,1,0,23.731938,0,1 @ F,0,0,1,0,0,0,1 @ F,0,0,1,0,0,0,1 @ F,0,0,1,0,0,0,1 @ F,0,0,1,0,0,0,1 @ F,0,0,1,0,0,0,1 @ F,0,0,1,0,0,0,1 @ F,0,0,1,0,0,0,1 @ F,0,0,1,0,0,0,1 @ F,0,0,1,0,0,0,1 @ F,0,0,1,0,17.972502,0,1 @ F,0,0,1,0,16.22113,0,1 @ F,0,0,1,0,0,0,1 @ F,0,0,1,0,0,0,1 @ F,0,0,1,0,0,0,1 @ F,0,0,1,0,0,0,1 @ F,0,0,1,0,0,0,1 @ F,0,0,1,0,0,0,1 @ F,0,0,1,0,0,0,1 @ F,0,0,1,0,0,0,1 @ F,0,0,1,0,0,0,1 @ F,0,0,1,0,0,0,1 @ F,0,0,1,0,0,0,1 @ F,0,0,1,0,0,0,1 @ F,0,0,1,0,0,0,1 @ F,0,0,1,0,0,0,1 @ F,0,0,1,0,16.874196,0,1 @ F,0,0,1,0,20.492266,0,1 @ F,0,0,1,0,0,0,1 @ F,0,0,1,0,0,0,1 @ F,0,0,1,0,0,0,1 @ F,0,0,1,0,0,0,1 @ F,0,0,1,0,0,0,1 @ F,0,0,1,0,0,0,1 @ F,0,0,1,0,0,0,1 @ F,0,0,1,0,0,0,1 @ F,0,0,1,0,0,0,1 @ F,0,0,1,0,0,0,1 @ F,0,0,1,0,0,0,1 @ F,0,0,1,0,0,0,1 @ F,0,0,1,0,0,0,1 @ F,0,0,1,0,0,0,1 @ F,0,0,1,0,0,0,1 @ F,0,0,1,0,0,0,1 @ F,0,0,1,0,0,0,1 @ F,0,0,1,0,0,0,1 @ F,0,0,1,0,26.307863,0,1 @ F,0,0,1,0,23.104814,0,1 @ F,0,0,1,0,0,0,1 @ F,0,0,1,0,0,0,1 @ F,0,0,1,0,0,0,1 @ F,0,0,1,0,0,0,1 @ F,0,0,1,0,0,0,1 @ F,0,0,1,0,0,0,1 @ F,0,0,1,0,0,0,1 @ F,0,0,1,0,0,0,1 @ F,0,0,1,0,0,0,1 @ F,0,0,1,0,0,0,1 @ F,0,0,1,0,0,0,1 @ F,0,0,1,0,0,0,1 @ F,0,0,1,0,0,0,1 @ F,0,0,1,0,0,0,1 @ F,0,0,1,0,0,0,1 @ F,0,0,1,0,0,0,1 @ F,0,0,1,0,0,0,1"
   unit="px"
   method="auto"
   mode="F"
   radius="0"
   chamfer_steps="1"
   flexible="false"
   use_knot_distance="true"
   apply_no_radius="true"
   apply_with_radius="true"
   only_selected="true"
   hide_knots="false" /><inkscape:path-effect
   effect="spiro"
   id="path-effect1521"
   is_visible="true"
   lpeversion="1" /><inkscape:path-effect
   effect="spiro"
   id="path-effect858"
   is_visible="true"
   lpeversion="1" /><inkscape:path-effect
   effect="spiro"
   id="path-effect854"
   is_visible="true"
   lpeversion="1" />
  <style
   type="text/css"
   id="style2">
   <![CDATA[
    .fil0 {fill:#EF7F1A;fill-rule:nonzero}
   ]]>
  </style>
 <inkscape:path-effect
   effect="spiro"
   id="path-effect1214"
   is_visible="true"
   lpeversion="1" /><inkscape:path-effect
   effect="spiro"
   id="path-effect1195"
   is_visible="true"
   lpeversion="1" /><inkscape:path-effect
   effect="spiro"
   id="path-effect992"
   is_visible="true"
   lpeversion="1" /><inkscape:path-effect
   effect="spiro"
   id="path-effect287"
   is_visible="true"
   lpeversion="1" /><inkscape:path-effect
   effect="spiro"
   id="path-effect1032"
   is_visible="true"
   lpeversion="1" /><inkscape:path-effect
   effect="spiro"
   id="path-effect1218"
   is_visible="true"
   lpeversion="1" /><inkscape:path-effect
   effect="spiro"
   id="path-effect309"
   is_visible="true"
   lpeversion="1" /><inkscape:path-effect
   effect="spiro"
   id="path-effect1176"
   is_visible="true"
   lpeversion="1" /><inkscape:path-effect
   effect="spiro"
   id="path-effect859"
   is_visible="true"
   lpeversion="1" /></defs>
 
<path
   style="clip-rule:evenodd;fill:#2d2d2d;fill-rule:nonzero;stroke:none;stroke-width:1px;stroke-linecap:butt;stroke-linejoin:miter;stroke-opacity:1;image-rendering:optimizeQuality;shape-rendering:geometricPrecision;text-rendering:geometricPrecision"
   d="m 434.09119,804 c -48.79052,-4.79401 -96.90219,-18.66909 -145.89252,-16.81329 -14.66778,0.55563 -29.28034,2.53543 -43.57041,5.88847 -13.26642,3.11285 -27.59746,-3.41027 -32.42782,-16.15925 l -17.17428,-45.32884 c -4.83036,-12.74898 0.76493,-28.96751 10.48567,-38.49396 10.90923,-10.6912 19.8585,-23.38753 26.16819,-37.29995 9.70893,-21.40751 13.13434,-45.61992 9.74477,-68.88052 -3.38136,-23.20423 -13.82867,-45.77305 -31.28536,-61.42979 -8.72835,-7.82838 -19.1184,-13.85237 -30.35623,-17.1958 -11.23784,-3.34342 -23.3178,-3.97092 -34.77078,-1.46158 -15.20368,3.33112 -28.9168,12.09835 -39.55339,23.46106 -10.636581,11.36272 -18.337854,25.23149 -23.940964,39.75228 -12.68104,32.86367 -14.818122,69.48898 -7.478538,103.94127 7.339584,34.45229 23.973369,66.69618 46.673412,93.63199 13.49282,16.01054 29.13096,30.20704 46.34571,42.12424 11.20435,7.7564 13.16743,20.77099 3.51458,30.39863 l -59.02728,58.87309 c -9.65285,9.62764 -22.747377,7.71307 -28.790647,-4.507 C 48.8788,825.99948 25.679601,752.2225 14.315,676.64971 8.5523899,638.32927 5.8180566,599.2535 10.851187,560.83044 c 5.03313,-38.42306 18.16537,-76.32281 41.745233,-107.0743 24.370103,-31.78207 60.09579,-55.20212 99.48127,-62.46755 39.38547,-7.26543 82.06192,2.33567 113.08456,27.66545 32.08021,26.19328 49.90969,67.08394 54.23883,108.27236 5.70353,54.26466 -10.21561,108.9051 -34.5151,157.75916 -13.40507,26.95087 -29.38704,52.61928 -47.65694,76.54116 L 216.01042,715.2502 c 42.07339,-9.79377 85.30733,-14.59205 128.50431,-14.26192 34.357,0.26257 68.60045,3.75199 102.91765,5.42583 16.96771,0.82761 34.15442,1.19396 50.75212,-2.42603 16.5977,-3.61998 32.75376,-11.60762 43.30624,-24.92052 7.5464,-9.52046 11.8715,-21.29094 13.95331,-33.25979 2.08182,-11.96885 2.02611,-24.2034 1.55291,-36.34273 -2.80162,-71.87233 -19.94842,-142.32952 -29.40423,-213.63217 -1.3074,-9.85859 -2.46801,-19.73664 -3.48136,-29.62977 -1.38917,-13.56207 8.52845,-27.18831 21.77833,-30.39915 l 88.23895,-21.38294 c 13.24988,-3.21084 19.83338,4.43839 15.53203,17.37345 -16.93119,50.91571 -24.33662,104.99631 -21.61186,158.58805 2.85773,56.20704 16.62774,111.18948 27.22359,166.46267 6.73809,35.14922 12.22369,70.72865 12.01482,106.51728 -0.20887,35.78863 -6.30185,71.97429 -21.7847,104.24116 -10.92112,22.76005 -26.55738,43.43381 -46.47744,58.94129 -19.92006,15.50749 -44.20602,25.69382 -69.38457,27.51907 -29.08375,2.10835 -58.4483,-7.03204 -82.68176,-23.25082 -24.23347,-16.21878 -43.50313,-39.2206 -57.54422,-64.77754 C 361.33235,814.92173 354.08651,755.28118 348.50438,697.2288 335.02619,557.06005 329.17795,410.3953 384.51307,280.90799 c 16.87572,-39.49014 39.42195,-76.88418 69.1642,-107.86256 29.74224,-30.97837 66.92537,-55.37707 108.27112,-66.98697 28.925,-8.122152 59.69206,-9.891254 89.24327,-4.47359 29.55121,5.41767 57.82977,18.07466 81.14056,37.02808 35.43779,28.81357 58.17382,70.98511 70.50527,114.96231 12.33144,43.9772 15.01836,90.03935 16.10559,135.6998 1.54267,64.78719 0.005,129.63381 -3.97382,194.31713 -5.29648,86.11453 -14.85217,173.34234 1.51954,258.05204 4.29918,22.24461 10.3724,44.14574 18.13544,65.43041 4.67077,12.80629 -1.54698,20.05328 -14.70907,16.49967 L 706.93386,893.07076 c -13.16209,-3.55361 -19.11036,-16.43054 -13.71639,-28.95089 21.09388,-48.96263 37.29142,-100.03446 48.25612,-152.20823 19.48902,-92.73537 22.35473,-188.74567 10.71933,-282.78975 -5.22169,-42.20478 -13.63842,-84.8924 -34.40026,-122.00648 -10.38091,-18.55705 -23.82557,-35.53058 -40.3606,-48.8992 -16.53503,-13.36862 -36.22625,-23.05328 -57.16801,-26.73703 -23.99024,-4.22 -49.0879,-0.43588 -71.46714,9.18232 -22.37924,9.61819 -42.09657,24.90421 -58.28046,43.1092 -32.3678,36.40998 -50.25008,83.3432 -63.51966,130.21834 -22.22975,78.52721 -33.40188,160.94474 -24.62166,242.08408 3.67024,33.91726 10.85757,67.62199 23.74842,99.20801 12.89086,31.58603 31.62757,61.05314 56.55087,84.34863 14.32967,13.39376 31.02385,24.86645 49.97646,29.91928 9.4763,2.52642 19.43758,3.39911 29.15638,2.08457 9.7188,-1.31453 19.18578,-4.85332 27.11586,-10.62367 8.95098,-6.51321 15.77355,-15.75533 20.0029,-25.98541 4.22934,-10.23009 5.92475,-21.4186 5.61309,-32.48408 -0.20682,-7.34311 -1.28355,-14.66134 -3.2005,-21.75284 C 555.05034,801.87071 493.91025,809.87764 434.09119,804 Z"
   id="path856"
   inkscape:path-effect="#path-effect859;#path-effect856"
   inkscape:original-d="M 434.09119,804 C 385.13994,804.37892 337.1183,785.38733 288.19867,787.18671 265.39348,788.02554 220.94658,800 220.94658,800 l -34.66656,-91.49698 c 0,0 65.11383,-78.21766 55.14477,-121.59036 -9.35871,-40.71722 -54.67576,-81.96688 -96.41237,-80.08717 -29.83512,1.3437 -54.785914,34.64582 -63.494354,63.21334 -19.57769,64.22344 4.647956,140.00202 39.194874,197.57326 14.92211,24.86717 67.33832,55.09049 67.33832,55.09049 l -93.98334,93.73785 c 0,0 -73.39934,-155.79548 -79.75292,-239.79072 -5.6860901,-75.17094 -15.2319,-169.79625 38.28142,-222.89357 50.96703,-50.57082 148.61933,-67.45009 212.56583,-34.8021 35.95147,18.35508 51.67537,67.9878 54.23883,108.27236 2.67867,42.09506 -14.2417,107.8925 -34.5151,157.75916 -11.31924,27.84203 -47.65694,76.54116 -47.65694,76.54116 L 216.01042,715.2502 c 23.31539,-5.41424 85.42457,-13.01527 128.50431,-14.26192 34.33915,-0.99371 68.79157,9.37237 102.91765,5.42583 32.43486,-3.75096 71.71797,-3.53486 94.05836,-27.34655 16.26358,-17.33467 14.52692,-45.85308 15.50622,-69.60252 2.96152,-71.82106 -20.74827,-142.27315 -29.40423,-213.63217 -2.18815,-18.0389 -5.69406,-54.21518 -5.69406,-54.21518 l 136.22101,-33.01042 c 0,0 -30.01444,120.36002 -30.07086,181.77524 -0.0517,56.22467 23.97045,110.33217 27.22359,166.46267 4.06917,70.21044 23.20522,148.63996 -9.76988,210.75844 -22.59446,42.56343 -68.27146,94.02969 -115.86201,86.46036 C 426.17956,937.60839 375.83978,798.36105 348.50438,697.2288 312.15899,562.76247 325.24524,406.96158 384.51307,280.90799 c 35.33158,-75.14487 97.97692,-150.73657 177.43532,-174.84953 55.33035,-16.79091 126.66415,-5.28692 170.38383,32.55449 66.84087,57.85386 72.86574,163.33604 86.61086,250.66211 10.07329,63.998 -3.50222,129.53293 -3.97382,194.31713 -0.62617,86.01656 -11.55199,173.03219 1.51954,258.05204 4.68412,30.46643 -8.62264,56.6747 27.25845,88.36445 L 683.10178,886.63639 C 718.96256,858.71105 730.47082,772.32361 741.47359,711.91164 758.37594,619.10734 777.83998,519.8994 752.19292,429.12189 730.65703,352.89582 698.97131,240.38842 620.26405,231.47918 532.21852,221.51289 466.15038,334.50106 426.99679,413.98904 391.15586,486.7518 389.8123,575.94093 402.37513,656.07312 c 10.34382,65.97816 35.30419,135.36852 80.29929,183.55664 24.65526,26.40489 74.19913,38.05126 106.2487,21.38018 18.87711,-9.81922 22.78548,-37.38038 25.61599,-58.46949 0.97493,-7.26387 -3.2005,-21.75284 -3.2005,-21.75284 0,0 -117.66224,22.75116 -177.24742,23.21239 z"
   sodipodi:nodetypes="aaccaaaaccaaasaccaaaaaccaaaaaaaaaaaccaaaaasaaca" /></svg>
