<?xml version="1.0" encoding="UTF-8" standalone="no"?>
<svg
   xml:space="preserve"
   width="1000"
   height="1000"
   version="1.1"
   style="clip-rule:evenodd;fill-rule:evenodd;image-rendering:optimizeQuality;shape-rendering:geometricPrecision;text-rendering:geometricPrecision"
   viewBox="0 0 1000 1000"
   id="svg10"
   sodipodi:docname="à´.svg"
   inkscape:version="1.1.2 (0a00cf5339, 2022-02-04)"
   xmlns:inkscape="http://www.inkscape.org/namespaces/inkscape"
   xmlns:sodipodi="http://sodipodi.sourceforge.net/DTD/sodipodi-0.dtd"
   xmlns="http://www.w3.org/2000/svg"
   xmlns:svg="http://www.w3.org/2000/svg"
   xmlns:rdf="http://www.w3.org/1999/02/22-rdf-syntax-ns#"
   xmlns:cc="http://creativecommons.org/ns#"
   xmlns:dc="http://purl.org/dc/elements/1.1/"><metadata
   id="metadata14"><rdf:RDF><cc:Work
       rdf:about=""><dc:format>image/svg+xml</dc:format><dc:type
         rdf:resource="http://purl.org/dc/dcmitype/StillImage" /></cc:Work></rdf:RDF></metadata><sodipodi:namedview
   pagecolor="#ffffff"
   bordercolor="#666666"
   borderopacity="1"
   objecttolerance="10"
   gridtolerance="10"
   guidetolerance="10"
   inkscape:pageopacity="0"
   inkscape:pageshadow="2"
   inkscape:window-width="1920"
   inkscape:window-height="1009"
   id="namedview12"
   showgrid="false"
   inkscape:zoom="0.9588368"
   inkscape:cx="447.93859"
   inkscape:cy="570.4829"
   inkscape:window-x="0"
   inkscape:window-y="0"
   inkscape:window-maximized="1"
   inkscape:current-layer="svg10"
   showguides="true"
   inkscape:guide-bbox="true"
   inkscape:document-rotation="0"
   inkscape:snap-to-guides="true"
   inkscape:pagecheckerboard="0"><sodipodi:guide
     position="0,1000"
     orientation="0,1"
     id="guide16"
     inkscape:label=""
     inkscape:locked="true"
     inkscape:color="rgb(0,0,255)" /><sodipodi:guide
     position="1763.3122,2036.1693"
     orientation="1000,0"
     id="guide18" /><sodipodi:guide
     position="0,200"
     orientation="0,1"
     id="guide20"
     inkscape:label="base"
     inkscape:locked="true"
     inkscape:color="rgb(0,0,255)" /><inkscape:grid
     type="xygrid"
     id="grid24"
     originx="-473.37552"
     originy="-489.69235" /><sodipodi:guide
     position="0,0"
     orientation="0,1"
     id="guide34"
     inkscape:label="bottom"
     inkscape:locked="true"
     inkscape:color="rgb(0,0,255)" /><sodipodi:guide
     position="225.05109,1693.3186"
     orientation="0,1"
     id="guide44"
     inkscape:label=""
     inkscape:locked="false"
     inkscape:color="rgb(0,0,255)" /><sodipodi:guide
     position="0,900"
     orientation="0,1"
     id="guide46"
     inkscape:label=""
     inkscape:locked="true"
     inkscape:color="rgb(0,0,255)" /><sodipodi:guide
     position="1000,527.50322"
     orientation="-1,0"
     id="guide841"
     inkscape:label="width"
     inkscape:locked="false"
     inkscape:color="rgb(0,0,255)" /><sodipodi:guide
     position="0,1000"
     orientation="0,1000"
     id="guide860" /><sodipodi:guide
     position="1024.8832,580.0197"
     orientation="1000,0"
     id="guide862" /><sodipodi:guide
     position="1000,0"
     orientation="0,-1000"
     id="guide864" /></sodipodi:namedview>
 <defs
   id="defs4"><inkscape:path-effect
   effect="fillet_chamfer"
   id="path-effect2458"
   is_visible="true"
   lpeversion="1"
   satellites_param="F,0,0,1,0,0,0,1 @ F,0,0,1,0,0,0,1 @ F,0,1,1,0,16.840591,0,1 @ F,0,1,1,0,16.840591,0,1 @ F,0,0,1,0,0,0,1 @ F,0,0,1,0,0,0,1 @ F,0,0,1,0,0,0,1 @ F,0,0,1,0,0,0,1 @ F,0,0,1,0,0,0,1 @ F,0,0,1,0,0,0,1 @ F,0,0,1,0,0,0,1 @ F,0,0,1,0,0,0,1 @ F,0,1,1,0,16.840591,0,1 @ F,0,1,1,0,16.840591,0,1 @ F,0,0,1,0,0,0,1 @ F,0,0,1,0,0,0,1 @ F,0,0,1,0,0,0,1 @ F,0,0,1,0,0,0,1 @ F,0,0,1,0,0,0,1 @ F,0,0,1,0,0,0,1 @ F,0,0,1,0,0,0,1 @ F,0,0,1,0,0,0,1 @ F,0,0,1,0,0,0,1 @ F,0,0,1,0,0,0,1 @ F,0,0,1,0,0,0,1 @ F,0,0,1,0,0,0,1 @ F,0,0,1,0,0,0,1 @ F,0,0,1,0,0,0,1 @ F,0,0,1,0,0,0,1 @ F,0,0,1,0,0,0,1 @ F,0,1,1,0,16.840591,0,1 @ F,0,1,1,0,16.840591,0,1 @ F,0,0,1,0,0,0,1 @ F,0,0,1,0,0,0,1 @ F,0,0,1,0,0,0,1 @ F,0,0,1,0,0,0,1 @ F,0,0,1,0,0,0,1 @ F,0,0,1,0,0,0,1 @ F,0,0,1,0,0,0,1 @ F,0,0,1,0,0,0,1 @ F,0,0,1,0,0,0,1 @ F,0,0,1,0,0,0,1 @ F,0,0,1,0,0,0,1 @ F,0,0,1,0,0,0,1 @ F,0,0,1,0,0,0,1 @ F,0,0,1,0,0,0,1 @ F,0,0,1,0,0,0,1 @ F,0,0,1,0,0,0,1 @ F,0,0,1,0,0,0,1 @ F,0,0,1,0,0,0,1 @ F,0,0,1,0,0,0,1 @ F,0,0,1,0,0,0,1 @ F,0,0,1,0,0,0,1 @ F,0,0,1,0,0,0,1 @ F,0,0,1,0,0,0,1 @ F,0,1,1,0,16.840591,0,1 @ F,0,0,1,0,16.840591,0,1 @ F,0,0,1,0,0,0,1 @ F,0,0,1,0,0,0,1 @ F,0,0,1,0,0,0,1 @ F,0,0,1,0,0,0,1 @ F,0,0,1,0,0,0,1 @ F,0,0,1,0,0,0,1 @ F,0,0,1,0,0,0,1 @ F,0,1,1,0,16.840591,0,1 @ F,0,1,1,0,16.840591,0,1 @ F,0,0,1,0,0,0,1 @ F,0,0,1,0,0,0,1 @ F,0,0,1,0,0,0,1 @ F,0,0,1,0,0,0,1 @ F,0,0,1,0,0,0,1 @ F,0,0,1,0,0,0,1 @ F,0,0,1,0,0,0,1 @ F,0,0,1,0,0,0,1 @ F,0,0,1,0,0,0,1 @ F,0,0,1,0,0,0,1 @ F,0,0,1,0,0,0,1 @ F,0,0,1,0,0,0,1 @ F,0,0,1,0,0,0,1 @ F,0,0,1,0,0,0,1"
   unit="px"
   method="auto"
   mode="F"
   radius="0"
   chamfer_steps="1"
   flexible="false"
   use_knot_distance="true"
   apply_no_radius="true"
   apply_with_radius="true"
   only_selected="false"
   hide_knots="false" /><inkscape:path-effect
   effect="fillet_chamfer"
   id="path-effect857"
   is_visible="true"
   lpeversion="1"
   satellites_param="F,0,0,1,0,0,0,1 @ F,0,0,1,0,0,0,1 @ F,0,1,1,0,21.836543,0,1 @ F,0,1,1,0,21.836543,0,1 @ F,0,0,1,0,0,0,1 @ F,0,0,1,0,0,0,1 @ F,0,0,1,0,0,0,1 @ F,0,0,1,0,0,0,1 @ F,0,0,1,0,0,0,1 @ F,0,0,1,0,0,0,1 @ F,0,0,1,0,0,0,1 @ F,0,0,1,0,0,0,1 @ F,0,1,1,0,21.836543,0,1 @ F,0,1,1,0,21.836543,0,1 @ F,0,0,1,0,0,0,1 @ F,0,0,1,0,0,0,1 @ F,0,0,1,0,0,0,1 @ F,0,0,1,0,0,0,1 @ F,0,0,1,0,0,0,1 @ F,0,0,1,0,0,0,1 @ F,0,0,1,0,0,0,1 @ F,0,0,1,0,0,0,1 @ F,0,0,1,0,0,0,1 @ F,0,0,1,0,0,0,1 @ F,0,0,1,0,0,0,1 @ F,0,0,1,0,0,0,1 @ F,0,0,1,0,0,0,1 @ F,0,0,1,0,0,0,1 @ F,0,0,1,0,0,0,1 @ F,0,0,1,0,0,0,1 @ F,0,1,1,0,21.836543,0,1 @ F,0,1,1,0,21.836543,0,1 @ F,0,0,1,0,0,0,1 @ F,0,0,1,0,0,0,1 @ F,0,0,1,0,0,0,1 @ F,0,0,1,0,0,0,1 @ F,0,0,1,0,0,0,1 @ F,0,0,1,0,0,0,1 @ F,0,0,1,0,0,0,1 @ F,0,0,1,0,0,0,1 @ F,0,0,1,0,0,0,1 @ F,0,0,1,0,0,0,1 @ F,0,0,1,0,0,0,1 @ F,0,0,1,0,0,0,1 @ F,0,0,1,0,0,0,1 @ F,0,0,1,0,0,0,1 @ F,0,0,1,0,0,0,1 @ F,0,0,1,0,0,0,1 @ F,0,0,1,0,0,0,1 @ F,0,0,1,0,0,0,1 @ F,0,0,1,0,0,0,1 @ F,0,0,1,0,0,0,1 @ F,0,0,1,0,0,0,1 @ F,0,0,1,0,0,0,1 @ F,0,0,1,0,0,0,1 @ F,0,1,1,0,21.836543,0,1 @ F,0,1,1,0,21.836543,0,1 @ F,0,0,1,0,0,0,1 @ F,0,0,1,0,0,0,1 @ F,0,0,1,0,0,0,1 @ F,0,0,1,0,0,0,1 @ F,0,0,1,0,0,0,1 @ F,0,0,1,0,0,0,1 @ F,0,0,1,0,0,0,1 @ F,0,1,1,0,21.836543,0,1 @ F,0,1,1,0,21.836543,0,1 @ F,0,0,1,0,0,0,1 @ F,0,0,1,0,0,0,1 @ F,0,0,1,0,0,0,1 @ F,0,0,1,0,0,0,1 @ F,0,0,1,0,0,0,1 @ F,0,0,1,0,0,0,1 @ F,0,0,1,0,0,0,1 @ F,0,0,1,0,0,0,1 @ F,0,0,1,0,0,0,1 @ F,0,0,1,0,0,0,1 @ F,0,0,1,0,0,0,1 @ F,0,0,1,0,0,0,1 @ F,0,0,1,0,0,0,1 @ F,0,0,1,0,0,0,1"
   unit="px"
   method="auto"
   mode="F"
   radius="0"
   chamfer_steps="1"
   flexible="false"
   use_knot_distance="true"
   apply_no_radius="true"
   apply_with_radius="true"
   only_selected="true"
   hide_knots="false" /><inkscape:path-effect
   effect="fillet_chamfer"
   id="path-effect856"
   is_visible="true"
   lpeversion="1"
   satellites_param="F,0,0,1,0,0,0,1 @ F,0,0,1,0,0,0,1 @ F,0,0,1,0,33.366564,0,1 @ F,0,0,1,0,23.491608,0,1 @ F,0,0,1,0,0,0,1 @ F,0,0,1,0,0,0,1 @ F,0,0,1,0,0,0,1 @ F,0,0,1,0,0,0,1 @ F,0,0,1,0,0,0,1 @ F,0,0,1,0,0,0,1 @ F,0,0,1,0,0,0,1 @ F,0,0,1,0,0,0,1 @ F,0,0,1,0,31.470226,0,1 @ F,0,0,1,0,26.370864,0,1 @ F,0,0,1,0,0,0,1 @ F,0,0,1,0,0,0,1 @ F,0,0,1,0,0,0,1 @ F,0,0,1,0,0,0,1 @ F,0,0,1,0,0,0,1 @ F,0,0,1,0,0,0,1 @ F,0,0,1,0,0,0,1 @ F,0,0,1,0,0,0,1 @ F,0,0,1,0,0,0,1 @ F,0,0,1,0,0,0,1 @ F,0,0,1,0,0,0,1 @ F,0,0,1,0,0,0,1 @ F,0,0,1,0,0,0,1 @ F,0,0,1,0,0,0,1 @ F,0,0,1,0,0,0,1 @ F,0,0,1,0,24.747524,0,1 @ F,0,0,1,0,19.959397,0,1 @ F,0,0,1,0,0,0,1 @ F,0,0,1,0,0,0,1 @ F,0,0,1,0,0,0,1 @ F,0,0,1,0,0,0,1 @ F,0,0,1,0,0,0,1 @ F,0,0,1,0,0,0,1 @ F,0,0,1,0,0,0,1 @ F,0,0,1,0,0,0,1 @ F,0,0,1,0,0,0,1 @ F,0,0,1,0,0,0,1 @ F,0,0,1,0,0,0,1 @ F,0,0,1,0,0,0,1 @ F,0,0,1,0,0,0,1 @ F,0,0,1,0,0,0,1 @ F,0,0,1,0,0,0,1 @ F,0,0,1,0,0,0,1 @ F,0,0,1,0,0,0,1 @ F,0,0,1,0,0,0,1 @ F,0,0,1,0,0,0,1 @ F,0,0,1,0,0,0,1 @ F,0,0,1,0,20.740949,0,1 @ F,0,0,1,0,21.600433,0,1 @ F,0,0,1,0,0,0,1 @ F,0,0,1,0,0,0,1 @ F,0,0,1,0,0,0,1 @ F,0,0,1,0,0,0,1 @ F,0,0,1,0,0,0,1 @ F,0,0,1,0,0,0,1 @ F,0,0,1,0,0,0,1 @ F,0,0,1,0,33.486285,0,1 @ F,0,0,1,0,47.353772,0,1 @ F,0,0,1,0,0,0,1 @ F,0,0,1,0,0,0,1 @ F,0,0,1,0,0,0,1 @ F,0,0,1,0,0,0,1 @ F,0,0,1,0,0,0,1 @ F,0,0,1,0,0,0,1 @ F,0,0,1,0,0,0,1 @ F,0,0,1,0,0,0,1 @ F,0,0,1,0,0,0,1 @ F,0,0,1,0,0,0,1 @ F,0,0,1,0,0,0,1 @ F,0,0,1,0,0,0,1 @ F,0,0,1,0,0,0,1 @ F,0,0,1,0,0,0,1 @ F,0,0,1,0,0,0,1"
   unit="px"
   method="auto"
   mode="F"
   radius="0"
   chamfer_steps="1"
   flexible="false"
   use_knot_distance="true"
   apply_no_radius="true"
   apply_with_radius="true"
   only_selected="true"
   hide_knots="false" /><inkscape:path-effect
   effect="spiro"
   id="path-effect1521"
   is_visible="true"
   lpeversion="1" /><inkscape:path-effect
   effect="spiro"
   id="path-effect858"
   is_visible="true"
   lpeversion="1" /><inkscape:path-effect
   effect="spiro"
   id="path-effect854"
   is_visible="true"
   lpeversion="1" />
  <style
   type="text/css"
   id="style2">
   
    .fil0 {fill:#EF7F1A;fill-rule:nonzero}
   
  </style>
 <inkscape:path-effect
   effect="spiro"
   id="path-effect1214"
   is_visible="true"
   lpeversion="1" /><inkscape:path-effect
   effect="spiro"
   id="path-effect1195"
   is_visible="true"
   lpeversion="1" /><inkscape:path-effect
   effect="spiro"
   id="path-effect992"
   is_visible="true"
   lpeversion="1" /><inkscape:path-effect
   effect="spiro"
   id="path-effect287"
   is_visible="true"
   lpeversion="1" /><inkscape:path-effect
   effect="spiro"
   id="path-effect1032"
   is_visible="true"
   lpeversion="1" /><inkscape:path-effect
   effect="spiro"
   id="path-effect1218"
   is_visible="true"
   lpeversion="1" /><inkscape:path-effect
   effect="spiro"
   id="path-effect309"
   is_visible="true"
   lpeversion="1" /><inkscape:path-effect
   effect="spiro"
   id="path-effect1176"
   is_visible="true"
   lpeversion="1" /><inkscape:path-effect
   effect="spiro"
   id="path-effect859"
   is_visible="true"
   lpeversion="1" /><inkscape:path-effect
   effect="spiro"
   id="path-effect882"
   is_visible="true"
   lpeversion="1" /><inkscape:path-effect
   effect="spiro"
   id="path-effect884"
   is_visible="true"
   lpeversion="1" /></defs>
 
<path
   style="clip-rule:evenodd;fill:#e66100;fill-rule:nonzero;stroke:none;stroke-width:1px;stroke-linecap:butt;stroke-linejoin:miter;stroke-opacity:1;image-rendering:optimizeQuality;shape-rendering:geometricPrecision;text-rendering:geometricPrecision"
   d="m 483.2795,804.97598 c -62.96097,-0.76207 -124.73428,-25.26173 -187.42184,-19.35121 -14.0781,1.32736 -28.00928,4.19775 -41.46967,8.52985 -8.8508,2.84855 -18.34862,-1.24627 -21.50734,-9.99426 l -20.59411,-57.03479 c -3.15872,-8.74799 0.73069,-19.83613 7.7371,-25.94031 13.31567,-11.60096 24.00266,-26.22747 30.89207,-42.49332 9.07923,-21.43599 11.52457,-45.62816 6.91866,-68.44744 -4.52051,-22.39618 -15.96891,-43.5731 -33.23104,-58.54117 -17.26212,-14.96806 -40.40683,-23.37529 -63.18133,-21.54603 -16.02535,1.28716 -31.56039,7.54931 -44.2486,17.42242 -12.6882,9.8731 -22.52351,23.28904 -28.498956,38.21428 -8.258533,20.62784 -9.105096,43.71636 -5.197112,65.5896 3.907984,21.87325 12.37489,42.69059 22.251378,62.59451 16.64072,33.53577 37.45807,64.99509 61.80304,93.43527 6.0479,7.06525 4.38925,15.84831 -3.99624,19.8718 l -75.81932,36.37936 c -8.385487,4.02349 -18.365243,0.44765 -22.01724,-8.10582 C 44.055697,784.8673 29.543384,731.13373 22.754162,676.43398 18.0247,638.32941 17.046037,599.49054 23.706721,561.67572 30.367405,523.86089 44.937969,487.00538 69.006004,457.0879 c 25.000092,-31.07606 60.523436,-54.14683 99.719166,-61.52391 39.19572,-7.37707 81.76942,1.72316 112.84665,26.72181 32.30311,25.98475 50.23279,67.00923 54.23883,108.2724 4.94296,50.91367 -9.57699,101.90598 -30.08075,148.76994 -13.63698,31.16905 -29.97729,61.1548 -48.77739,89.51028 L 231.2671,715.15661 c 43.16662,6.50125 86.81075,9.82964 130.46403,9.94943 36.51251,0.1002 73.01972,-2.04209 109.31544,-6.01626 16.10441,-1.76334 32.31056,-3.91992 47.58743,-9.31238 15.27687,-5.39247 29.71956,-14.28905 39.26633,-27.378 7.13131,-9.77727 11.2564,-21.50037 13.3691,-33.4162 2.11271,-11.91583 2.29594,-24.08577 2.13712,-36.1864 -0.94509,-72.00577 -13.77751,-143.33609 -29.40423,-213.6321 -1.29336,-5.81813 -2.60614,-11.63195 -3.9383,-17.44132 -2.07883,-9.06549 3.66217,-17.36764 12.88647,-18.55807 l 106.20696,-13.70635 c 9.2243,-1.19043 13.92048,4.85784 10.94737,13.66974 -14.52973,43.0642 -20.93027,88.86653 -18.68965,134.2635 2.87556,58.26142 19.67747,114.82589 29.36735,172.34778 11.38508,67.58507 12.21779,140.11444 -18.87041,201.19542 -11.41759,22.43287 -27.07425,42.90645 -46.88748,58.43162 -19.81323,15.52517 -43.88934,25.94813 -68.97452,28.02878 -29.12773,2.41595 -58.65239,-6.54602 -83.01107,-22.69891 C 438.68035,918.54401 419.31913,895.50601 405.25978,869.88188 377.1411,818.63361 370.14556,758.78152 364.91396,700.5606 353.00839,568.067 348.54027,429.16471 403.22999,307.89917 c 36.12466,-80.10053 99.50292,-149.94024 181.02486,-182.7314 41.81587,-16.8199 87.73647,-23.63618 132.54156,-18.73931 44.8051,4.89686 88.38844,21.59675 124.43298,48.65718 35.43914,26.60592 63.23592,62.8818 81.54574,103.23719 18.30982,40.3554 27.27336,84.69466 28.1003,129.00181 0.91426,48.98562 -8.14856,98.40182 -28.66435,142.89372 -24.18907,52.45802 -64.32116,97.43564 -113.69481,127.42228 l -26.41613,-66.03556 c 28.76886,-10.47958 60.38125,-13.03011 90.45807,-7.29829 30.07681,5.73183 58.53542,19.73027 81.43359,40.05619 22.89816,20.32591 40.17297,46.92346 49.4314,76.10821 9.2585,29.18475 10.4752,60.87653 3.4815,90.68521 -12.47809,53.18471 -51.29466,98.71271 -100.25868,122.9375 -36.10727,17.86395 -77.57703,24.70636 -117.5092,19.38873 -34.36679,-4.5765 -67.47576,-18.1439 -95.27164,-38.85068 -7.45646,-5.55475 -10.69216,-17.76912 -7.76063,-26.59584 l 33.81217,-101.80702 c 2.93153,-8.82672 8.87345,-9.31169 14.16054,-1.66475 15.54906,22.48922 36.66333,41.13284 60.98576,53.63736 26.5624,13.65613 57.84302,19.95118 86.73016,12.36275 14.44357,-3.79422 28.05516,-11.04049 38.79555,-21.41628 10.74038,-10.37578 18.52198,-23.91827 21.40842,-38.57027 2.86866,-14.56173 0.84814,-29.94859 -5.0955,-43.54809 -5.94365,-13.5995 -15.71913,-25.40978 -27.58557,-34.32385 -23.73289,-17.82816 -55.01715,-23.62104 -84.52553,-20.40408 -8.66041,0.94415 -17.24104,2.61557 -25.62436,4.9848 -8.94593,2.52823 -19.22351,-1.34049 -23.28785,-9.70626 L 743.41319,600.7562 c -4.06434,-8.36577 0.0351,-16.74128 8.83776,-19.73146 23.94211,-8.13295 46.00659,-21.80104 63.86109,-39.71374 21.76015,-21.83108 37.16154,-49.79692 44.69417,-79.68605 7.53263,-29.88912 7.25666,-61.62089 -0.0774,-91.55936 -9.40128,-38.37707 -30.55549,-73.90509 -60.32616,-99.88375 -29.77066,-25.97866 -68.08626,-42.18052 -107.51893,-44.68005 -56.38431,-3.57405 -112.42241,20.92972 -153.75661,59.44528 -41.3342,38.51555 -68.95853,89.98636 -86.19509,143.79031 -22.69263,70.8351 -28.33304,146.25094 -24.94885,220.55514 1.45342,31.91172 4.56833,63.91276 12.70067,94.80508 8.13235,30.89231 21.46108,60.76407 41.76036,85.43003 10.6248,12.91035 23.31299,24.45725 38.43803,31.58444 15.12504,7.12718 32.89729,9.51702 48.77366,4.27256 16.56528,-5.47203 30.10423,-19.35819 35.15513,-36.0567 5.05091,-16.69851 1.47801,-35.76059 -9.27734,-49.49646 -34.79323,16.92826 -73.56419,25.61281 -112.25418,25.14451 z"
   id="path856"
   inkscape:path-effect="#path-effect882;#path-effect2458"
   inkscape:original-d="M 483.2795,804.97598 C 420.58175,808.6629 358.50304,781.13504 295.85766,785.62477 276.2298,787.03148 238.60002,800 238.60002,800 l -32.03285,-88.71407 c 0,0 61.61849,-78.46469 51.2672,-121.04143 -9.86982,-40.59637 -54.64193,-79.2461 -96.41237,-80.0872 -30.52185,-0.6146 -61.06175,27.43381 -72.747556,55.6367 -16.499959,39.82151 1.563578,87.95924 17.054266,128.18411 C 121.14799,734.01754 178.71878,800 178.71878,800 L 72.532922,850.94972 c 0,0 -47.660684,-114.06071 -49.77876,-174.51574 C 20.137799,601.75665 14.979613,508.70861 69.006004,457.0879 120.91792,407.48751 217.62532,389.63786 281.57182,422.2858 c 35.95147,18.3551 51.3188,68.0121 54.23883,108.2724 2.90545,40.05914 -12.76909,101.23036 -30.08075,148.76994 -11.62674,31.9282 -48.77739,89.51028 -48.77739,89.51028 L 231.2671,715.15661 c 0,0 86.85218,9.48856 130.46403,9.94943 36.49158,0.38562 73.76082,2.20891 109.31544,-6.01626 30.61983,-7.08356 66.72378,-12.55462 86.85376,-36.69038 15.22447,-18.25408 14.52692,-45.85314 15.50622,-69.6026 2.96151,-71.82103 -16.46446,-142.92429 -29.40423,-213.6321 -2.08341,-11.38454 -7.75391,-33.84393 -7.75391,-33.84393 L 675.85953,347.3035 c 0,0 -24.63004,99.40029 -24.44436,150.0887 0.21348,58.27691 27.17498,114.11173 29.36735,172.34778 2.53404,67.31179 16.55574,139.98972 -18.87041,201.19542 -24.13985,41.7064 -68.27145,94.0297 -115.862,86.4604 C 442.58915,940.9402 391.69301,801.8416 364.91396,700.5606 331.29776,573.4208 347.33545,426.93853 403.22999,307.89917 439.67126,230.2897 503.34114,153.52564 584.25485,125.16777 c 81.38333,-28.522458 186.92881,-20.38494 256.97454,29.91787 69.53431,49.93554 99.26486,147.26365 109.64604,232.239 5.89109,48.22161 -6.95597,99.43368 -28.66435,142.89372 -25.43684,50.9244 -113.69481,127.42228 -113.69481,127.42228 l -26.41613,-66.03556 c 0,0 216.76222,99.676 224.80456,199.55132 4.2443,52.70812 -51.0961,103.4644 -100.25868,122.9375 -70.61037,27.9685 -225.84948,-30.0756 -225.84948,-30.0756 l 44.42819,-133.7714 c 0,0 38.20617,60.57675 69.83829,67.9548 50.14057,11.69506 137.10081,2.91487 146.93413,-47.6238 9.73762,-50.04684 -67.5174,-86.85277 -117.2066,-98.27602 -13.91734,-3.19951 -41.55308,10.42611 -41.55308,10.42611 l -47.18341,-97.11936 c 0,0 61.35526,-20.20652 80.05798,-44.29763 36.17282,-46.59446 62.18693,-114.9355 44.61677,-171.24541 C 838.73472,299.5776 766.72275,225.80721 692.88372,225.50179 588.06651,225.06824 502.29425,336.27006 452.93202,428.73738 418.08904,494.00667 421.3037,575.6074 427.98317,649.29252 c 5.66601,62.5049 12.27745,133.76456 54.46103,180.23511 21.12618,23.27317 58.8207,49.34432 87.21169,35.857 26.91143,-12.78445 15.91629,-51.18331 25.87779,-85.55316 -37.3278,52.24428 -73.97502,22.89352 -112.25418,25.14451 z"
   sodipodi:nodetypes="aaccaaaaccaaasaccaaaaaccaaaaaaaaaaccaaccaaaccaaaaaaaca" /></svg>
