<svg xmlns="http://www.w3.org/2000/svg" xmlns:dc="http://purl.org/dc/elements/1.1/" xmlns:ns1="http://sodipodi.sourceforge.net/DTD/sodipodi-0.dtd" xmlns:ns2="http://www.inkscape.org/namespaces/inkscape" xmlns:ns4="http://creativecommons.org/ns#" xmlns:rdf="http://www.w3.org/1999/02/22-rdf-syntax-ns#" xml:space="preserve" width="1000" height="1000" version="1.1" style="clip-rule:evenodd;fill-rule:evenodd;image-rendering:optimizeQuality;shape-rendering:geometricPrecision;text-rendering:geometricPrecision" viewBox="0 0 1000 1000" id="svg10" ns1:docname="ക്തൂ.svg" ns2:version="1.0.2 (e86c870879, 2021-01-15)"><metadata id="metadata14"><rdf:RDF><ns4:Work rdf:about=""><dc:format>image/svg+xml</dc:format><dc:type rdf:resource="http://purl.org/dc/dcmitype/StillImage" /><dc:title /></ns4:Work></rdf:RDF></metadata><ns1:namedview pagecolor="#ffffff" bordercolor="#666666" borderopacity="1" objecttolerance="10" gridtolerance="10" guidetolerance="10" ns2:pageopacity="0" ns2:pageshadow="2" ns2:window-width="1920" ns2:window-height="1007" id="namedview12" showgrid="false" ns2:zoom="0.9588368" ns2:cx="607.46414" ns2:cy="672.20762" ns2:window-x="1920" ns2:window-y="0" ns2:window-maximized="1" ns2:current-layer="g885" showguides="true" ns2:guide-bbox="true" ns2:document-rotation="0" ns2:snap-to-guides="true"><ns1:guide position="0,1000" orientation="0,1" id="guide16" ns2:label="" ns2:locked="true" ns2:color="rgb(0,0,255)" /><ns1:guide position="1763.3122,2036.1693" orientation="1000,0" id="guide18" /><ns1:guide position="0,200" orientation="0,1" id="guide20" ns2:label="base" ns2:locked="true" ns2:color="rgb(0,0,255)" /><ns2:grid type="xygrid" id="grid24" originx="-473.37552" originy="-489.69235" /><ns1:guide position="0,0" orientation="0,1" id="guide34" ns2:label="bottom" ns2:locked="true" ns2:color="rgb(0,0,255)" /><ns1:guide position="225.05109,1693.3186" orientation="0,1" id="guide44" ns2:label="" ns2:locked="false" ns2:color="rgb(0,0,255)" /><ns1:guide position="0,900" orientation="0,1" id="guide46" ns2:label="" ns2:locked="true" ns2:color="rgb(0,0,255)" /><ns1:guide position="1038.832,522.75516" orientation="-1,0" id="guide841" ns2:label="width" ns2:locked="false" ns2:color="rgb(0,0,255)" /><ns1:guide position="0,1000" orientation="0,1000" id="guide860" /><ns1:guide position="1000,1000" orientation="1000,0" id="guide862" /><ns1:guide position="1000,0" orientation="0,-1000" id="guide864" /><ns1:guide position="0,0" orientation="-1000,0" id="guide866" /></ns1:namedview>
 <defs id="defs4"><ns2:path-effect effect="fillet_chamfer" id="path-effect862" is_visible="true" lpeversion="1" satellites_param="F,0,0,1,0,0,0,1 @ F,0,0,1,0,0,0,1 @ F,0,0,1,0,0,0,1 @ F,0,0,1,0,0,0,1 @ F,0,0,1,0,0,0,1 @ F,0,0,1,0,0,0,1 @ F,0,0,1,0,0,0,1 @ F,0,0,1,0,0,0,1 @ F,0,0,1,0,0,0,1 @ F,0,0,1,0,0,0,1 @ F,0,0,1,0,0,0,1 @ F,0,0,1,0,0,0,1 @ F,0,0,1,0,0,0,1 @ F,0,0,1,0,0,0,1 @ F,0,0,1,0,0,0,1 @ F,0,0,1,0,0,0,1 @ F,0,0,1,0,0,0,1 @ F,0,0,1,0,0,0,1 @ F,0,0,1,0,0,0,1 @ F,0,0,1,0,0,0,1 @ F,0,0,1,0,0,0,1 @ F,0,0,1,0,0,0,1 @ F,0,0,1,0,0,0,1 @ F,0,0,1,0,0,0,1 @ F,0,0,1,0,0,0,1 @ F,0,0,1,0,0,0,1 @ F,0,0,1,0,0,0,1 @ F,0,0,1,0,0,0,1 @ F,0,0,1,0,0,0,1 @ F,0,0,1,0,0,0,1 @ F,0,0,1,0,0,0,1 @ F,0,0,1,0,0,0,1 @ F,0,0,1,0,0,0,1 @ F,0,0,1,0,21.030733,0,1 @ F,0,0,1,0,21.030733,0,1 @ F,0,0,1,0,0,0,1 @ F,0,0,1,0,0,0,1 @ F,0,0,1,0,0,0,1 @ F,0,0,1,0,21.030733,0,1 @ F,0,0,1,0,21.030733,0,1 @ F,0,0,1,0,0,0,1 @ F,0,0,1,0,0,0,1 @ F,0,0,1,0,0,0,1 @ F,0,0,1,0,0,0,1 @ F,0,0,1,0,0,0,1 @ F,0,0,1,0,0,0,1 @ F,0,0,1,0,21.030733,0,1 @ F,0,0,1,0,21.030733,0,1 @ F,0,0,1,0,0,0,1 @ F,0,0,1,0,0,0,1 @ F,0,0,1,0,0,0,1 @ F,0,0,1,0,0,0,1 @ F,0,0,1,0,0,0,1 @ F,0,0,1,0,0,0,1 @ F,0,0,1,0,0,0,1 @ F,0,0,1,0,0,0,1 @ F,0,0,1,0,0,0,1 @ F,0,0,1,0,0,0,1 @ F,0,0,1,0,0,0,1 @ F,0,0,1,0,0,0,1 @ F,0,0,1,0,0,0,1 @ F,0,0,1,0,0,0,1 @ F,0,0,1,0,0,0,1 @ F,0,0,1,0,0,0,1 @ F,0,0,1,0,0,0,1 @ F,0,0,1,0,0,0,1 @ F,0,0,1,0,0,0,1 @ F,0,0,1,0,0,0,1 @ F,0,0,1,0,0,0,1 @ F,0,0,1,0,0,0,1 @ F,0,0,1,0,21.030733,0,1 @ F,0,0,1,0,21.030733,0,1 @ F,0,0,1,0,0,0,1 @ F,0,0,1,0,0,0,1 @ F,0,0,1,0,0,0,1 @ F,0,0,1,0,0,0,1 @ F,0,0,1,0,0,0,1 @ F,0,0,1,0,0,0,1 @ F,0,0,1,0,0,0,1 @ F,0,0,1,0,0,0,1 @ F,0,0,1,0,0,0,1 @ F,0,0,1,0,0,0,1 @ F,0,0,1,0,0,0,1 @ F,0,0,1,0,0,0,1 @ F,0,0,1,0,0,0,1 @ F,0,0,1,0,0,0,1 @ F,0,0,1,0,0,0,1 @ F,0,0,1,0,0,0,1 @ F,0,0,1,0,0,0,1 @ F,0,0,1,0,0,0,1 @ F,0,0,1,0,0,0,1 @ F,0,0,1,0,0,0,1 @ F,0,0,1,0,20.052819,0,1 @ F,0,0,1,0,20.027477,0,1 @ F,0,0,1,0,0,0,1 @ F,0,0,1,0,0,0,1 @ F,0,0,1,0,0,0,1 @ F,0,0,1,0,0,0,1 @ F,0,0,1,0,0,0,1 @ F,0,0,1,0,0,0,1 @ F,0,0,1,0,0,0,1 @ F,0,0,1,0,0,0,1 @ F,0,0,1,0,0,0,1 @ F,0,0,1,0,0,0,1 @ F,0,0,1,0,0,0,1 @ F,0,0,1,0,0,0,1 @ F,0,0,1,0,0,0,1 @ F,0,0,1,0,0,0,1 @ F,0,0,1,0,0,0,1 @ F,0,0,1,0,0,0,1 @ F,0,0,1,0,0,0,1 @ F,0,0,1,0,0,0,1 @ F,0,0,1,0,0,0,1 @ F,0,0,1,0,0,0,1" unit="px" method="auto" mode="F" radius="0" chamfer_steps="1" flexible="false" use_knot_distance="true" apply_no_radius="true" apply_with_radius="true" only_selected="true" hide_knots="false" /><ns2:path-effect effect="spiro" id="path-effect1521" is_visible="true" lpeversion="1" /><ns2:path-effect effect="spiro" id="path-effect858" is_visible="true" lpeversion="1" /><ns2:path-effect effect="spiro" id="path-effect854" is_visible="true" lpeversion="1" />
  <style type="text/css" id="style2">
   
    .fil0 {fill:#EF7F1A;fill-rule:nonzero}
   
  </style>
 <ns2:path-effect effect="spiro" id="path-effect1214" is_visible="true" lpeversion="1" /><ns2:path-effect effect="spiro" id="path-effect1195" is_visible="true" lpeversion="1" /><ns2:path-effect effect="spiro" id="path-effect992" is_visible="true" lpeversion="1" /><ns2:path-effect effect="spiro" id="path-effect287" is_visible="true" lpeversion="1" /><ns2:path-effect effect="spiro" id="path-effect1032" is_visible="true" lpeversion="1" /><ns2:path-effect effect="spiro" id="path-effect1218" is_visible="true" lpeversion="1" /><ns2:path-effect effect="spiro" id="path-effect309" is_visible="true" lpeversion="1" /><ns2:path-effect effect="spiro" id="path-effect1176" is_visible="true" lpeversion="1" /><ns2:path-effect effect="spiro" id="path-effect851" is_visible="true" lpeversion="1" /><style type="text/css" id="style2-9">
   
    .fil0 {fill:#EF7F1A;fill-rule:nonzero}
   
  </style><ns2:path-effect effect="spiro" id="path-effect1060" is_visible="true" lpeversion="1" /><ns2:path-effect effect="spiro" id="path-effect1047" is_visible="true" lpeversion="1" /><ns2:path-effect effect="spiro" id="path-effect1085" is_visible="true" lpeversion="1" /><ns2:path-effect effect="spiro" id="path-effect1286" is_visible="true" lpeversion="1" /><ns2:path-effect effect="spiro" id="path-effect1305" is_visible="true" lpeversion="1" /></defs>
 
<g style="clip-rule:evenodd;fill-rule:evenodd;image-rendering:optimizeQuality;shape-rendering:geometricPrecision;text-rendering:geometricPrecision" id="g885"><path id="path1210-6" style="display:inline;fill:#613583;fill-rule:nonzero;stroke:none;stroke-width:2.22142px;stroke-linecap:butt;stroke-linejoin:miter;stroke-opacity:1" d="m 439.10125,236.36349 c 3.05376,-30.55134 12.10162,-60.86009 29.07862,-86.44311 14.93471,-22.50545 36.52505,-41.34146 62.38085,-49.15291 27.76769,-8.389059 58.01703,-3.522509 85.27409,6.40087 63.01334,22.94103 114.33869,71.98689 148.91983,129.44223 34.58114,57.45535 53.60283,123.04301 65.4165,189.05368 7.08951,39.61371 11.71973,80.01994 7.99865,120.09065 -3.72109,40.0707 -16.23177,80.02494 -40.68395,111.9874 -10.51044,13.73864 -23.19149,25.92395 -37.89766,35.03154 -14.70617,9.10759 -31.47885,15.07697 -48.73259,16.31306 -16.00095,1.14634 -32.22062,-1.79956 -46.99983,-8.03808 -14.77922,-6.23853 -28.1206,-15.72819 -39.23461,-27.29638 -22.22804,-23.13639 -35.18197,-54.17245 -39.92051,-85.90452 -5.5823,-37.38235 -0.34854,-75.47562 5.98385,-112.73824 7.64063,-44.96091 16.95353,-89.88564 33.24589,-132.48167 30.12128,-78.75145 83.40985,-147.19879 146.07663,-203.60763 16.18166,-14.56575 33.09949,-28.45931 51.78694,-39.630097 18.68745,-11.170784 39.25857,-19.588896 60.82773,-22.551809 28.95206,-3.977088 59.87752,2.590738 82.69362,20.851756 14.17206,11.3427 24.77511,26.68036 32.47557,43.11834 7.70043,16.43798 12.63843,34.02414 16.89513,51.67024 13.3397,55.29967 20.2771,113.21977 9.5125,169.07783 -5.7118,29.63879 -16.4137,58.38474 -32.20381,84.10933 -21.0279,34.25773 -51.09236,62.91292 -86.31942,82.27317 l 1.65544,-49.75356 c 35.99659,-0.50626 71.88387,15.75228 95.23969,43.14783 23.6164,27.70126 33.9064,65.37004 31.7951,101.71063 -2.1113,36.34059 -15.9061,71.35839 -35.63032,101.95334 -29.73207,46.11849 -72.82063,82.84582 -121.0823,108.95561 -61.38155,33.20771 -130.17682,49.50164 -196.93973,69.82799 -24.44464,7.44231 -48.71303,15.4635 -72.77797,24.05459 l -31.06615,-62.88778 c 74.35101,26.19027 154.38486,36.11278 232.88058,28.87229 67.51778,-6.22788 133.83802,-25.12967 194.53009,-55.35252 10.3965,-5.17715 18.6399,-0.32024 18.6399,11.29471 v 98.44477 c 0,11.61495 -8.948,23.988 -20.1732,26.96589 -36.96525,9.80633 -75.36209,14.21575 -113.58784,13.00137 -49.18579,-1.56256 -97.54005,-12.30523 -146.01603,-20.77656 -48.47598,-8.47133 -98.14506,-14.69832 -146.78014,-7.19414 -19.58917,3.02252 -38.83291,8.27001 -57.25191,15.59121 -10.79069,4.28909 -21.86582,-0.49461 -25.13853,-11.63896 L 483.92713,861.84628 c -3.27271,-11.14435 3.00261,-23.18188 14.15885,-26.41127 18.50362,-5.35623 37.28865,-9.74038 56.25201,-13.12629 85.68275,-15.29868 174.79162,-10.24402 258.56177,-33.86911 31.8476,-8.98175 62.86917,-22.24094 89.03408,-42.49775 26.16492,-20.2568 47.28243,-47.92671 56.12839,-79.81229 5.06509,-18.2573 6.00931,-37.87597 0.98745,-56.1452 -5.02186,-18.26924 -16.27563,-35.06463 -32.24955,-45.25375 -12.89746,-8.22677 -28.63115,-11.71977 -43.83624,-10.21818 -11.51118,1.1368 -19.20269,-4.10561 -17.87886,-15.64488 l 6.23098,-54.31275 c 1.32383,-11.53927 11.41962,-23.94279 21.34588,-29.93754 21.1293,-12.76057 37.95726,-32.69925 46.5164,-55.88131 8.69649,-23.55406 9.01824,-49.46998 5.70191,-74.35823 -3.56291,-26.73873 -11.65567,-53.76543 -29.17636,-74.2759 -16.81219,-19.68107 -42.2939,-32.12996 -68.17323,-31.62527 -19.30551,0.37649 -38.01706,7.68502 -54.18281,18.245 -16.16575,10.55998 -30.01691,24.27953 -43.03964,38.53622 -35.01077,38.32821 -65.17778,81.79898 -83.32076,130.4368 -11.64095,31.20714 -18.2077,64.25535 -19.94386,97.51769 -1.08922,20.86785 -0.15757,42.43842 8.31062,61.54191 4.23409,9.55175 10.3547,18.34838 18.33108,25.09677 7.97638,6.7484 17.85437,11.38165 28.2434,12.49135 9.77488,1.0441 19.78068,-1.05096 28.59221,-5.40932 8.81153,-4.35836 16.44867,-10.92185 22.56285,-18.61959 12.22836,-15.39548 18.22126,-34.86045 21.49715,-54.24658 6.75404,-39.96916 2.91177,-81.44787 -9.17604,-120.13942 -12.41638,-39.74326 -33.65561,-76.93199 -62.96796,-106.50358 -13.9016,-14.02454 -29.78686,-26.43993 -48.01811,-34.02699 -18.23126,-7.58706 -39.00987,-10.06505 -57.91354,-4.35597 -20.59835,6.2209 -37.55418,21.73148 -48.71456,40.12815 -11.16038,18.39667 -17.00101,39.55668 -20.5503,60.77917 -8.29335,49.58891 -4.70642,100.3744 1.09345,150.31638 8.36933,72.06725 21.33278,143.73158 41.84606,213.32281 3.41224,11.57601 7.0321,23.09083 10.85718,34.53706 3.68128,11.01592 -2.44497,21.22979 -13.93916,22.9003 l -119.34061,17.34431 c -11.49419,1.67051 -17.47423,-5.7828 -13.75521,-16.78571 10.60921,-31.38784 18.80848,-63.59027 24.49549,-96.23097 14.40548,-82.68056 12.53207,-168.16519 -5.48177,-250.13527 -19.0362,-9.41267 -39.50215,-15.9272 -60.4767,-19.25038 -38.70853,-6.13293 -78.87259,-1.26139 -115.65988,12.25371 -42.01809,15.43681 -79.54931,41.90466 -110.55286,74.1939 -40.7609,42.45123 -71.243069,97.39646 -73.6866,156.19771 -0.336507,8.09773 -0.136818,16.28207 1.662257,24.18458 1.799074,7.90252 5.278109,15.55144 10.857383,21.43006 4.9824,5.24972 11.47767,8.91761 18.34436,11.20506 6.8667,2.28744 14.11443,3.24676 21.34336,3.60246 35.84569,1.76381 71.66391,-11.43492 99.87728,-33.61667 36.17535,-28.44157 59.78468,-70.40608 73.85711,-114.2187 26.1288,-81.34854 21.1506,-172.45747 -14.64189,-250.04096 -10.83914,-23.49484 -24.97882,-46.39809 -46.13598,-61.29336 -10.57858,-7.44763 -22.81078,-12.71849 -35.64091,-14.38022 -12.83013,-1.66174 -26.25407,0.40313 -37.58356,6.64942 -13.75694,7.58462 -23.75845,20.92072 -29.48025,35.55085 -5.72179,14.63014 -7.46942,30.5364 -7.57362,46.24528 -0.32863,49.54311 15.29359,98.33692 39.47042,141.58167 16.86036,30.15789 38.13233,58.21397 65.03005,79.89997 6.39804,5.15835 13.09733,9.94282 20.05112,14.32324 9.36714,5.90066 10.80154,15.90676 2.60397,23.3534 l -96.42666,87.59365 c -8.18721,7.43723 -14.49851,4.50248 -14.51619,-6.55784 -0.0259,-16.21608 -0.72053,-32.43109 -2.08238,-48.5899 C 157.33515,574.27061 146.28415,523.63104 129.6609,474.94563 115.61819,433.81799 97.645146,394.13771 82.898888,353.25705 68.15263,312.37639 56.56894,269.76218 56.04202,226.30642 55.763033,203.298 58.732628,179.81683 68.66145,159.05909 c 10.686921,-22.34267 29.473947,-40.77884 52.1808,-50.66843 21.35803,-9.302132 45.69392,-10.97461 68.50588,-6.25132 21.59306,4.47091 41.7989,14.46364 59.73483,27.29141 17.93594,12.82777 33.709,28.45706 48.336,44.95858 35.71003,40.28645 65.1335,86.42471 84.26681,136.74489 27.30752,71.81818 33.0162,151.44954 17.90532,226.78355 -16.6821,83.1672 -60.53066,163.04517 -130.27216,211.32767 -35.58969,24.63897 -77.00827,40.51502 -119.74049,47.41882 -23.49112,3.79521 -47.92727,4.87007 -70.76946,-1.79856 C 54.837914,787.8675 33.350125,772.08547 20.38422,750.74368 4.1673813,724.05087 2.0251553,690.94814 5.94891,659.96272 12.07943,611.55074 31.916131,565.42678 59.634935,525.26497 87.353738,485.10316 122.79262,450.6856 161.38062,420.81472 c 25.64237,-19.8497 52.81387,-37.82997 81.77715,-52.41318 62.58591,-31.51245 133.32464,-46.65786 203.32654,-43.53294 -7.82795,-28.72218 -10.34395,-58.88293 -7.38306,-88.50511 z" ns1:nodetypes="aaaaaaacaaaaaaasccaaaaccaccaaccaaaaccasaaaaaaaaaaaaaccscaaaaaaaaaaaaaccaaaaaaaaacaaaaaaca" ns2:original-d="m 439.10125,236.36349 c 4.57159,-29.81062 10.91025,-61.11573 29.07862,-86.44311 14.96337,-20.85949 36.06632,-41.37397 62.38085,-49.15291 27.08294,-8.00609 61.05248,-7.06993 85.27409,6.40087 117.6677,65.44058 185.69234,197.26846 214.33633,318.49591 18.02515,76.28638 13.29086,165.82562 -32.6853,232.07805 -18.26618,26.32183 -52.22679,54.99263 -86.63025,51.3446 -61.30481,-6.50064 -117.08592,-57.90829 -126.15495,-121.23898 -4.96717,-37.47677 0.35944,-75.45418 5.98385,-112.73824 6.76613,-44.85243 14.09619,-91.17485 33.24589,-132.48167 35.1322,-75.78185 83.63708,-148.12372 146.07663,-203.60763 32.05387,-28.48313 70.08905,-56.67635 112.61467,-62.181906 28.19206,-3.649867 60.87962,4.258636 82.69362,20.851756 29.6906,22.5846 39.9303,60.43704 49.3707,94.78858 14.9584,54.43041 18.212,113.3038 9.5125,169.07783 -4.6266,29.66257 -11.6218,62.25405 -32.20381,84.10933 -8.37703,8.89525 -86.31942,82.27317 -86.31942,82.27317 l 1.65544,-49.75356 c 0,0 76.62937,13.67989 95.23969,43.14783 36.2568,57.40959 24.3745,141.90129 -3.83522,203.66397 -22.55765,49.38805 -74.42143,81.19248 -121.0823,108.95561 -59.85682,35.61469 -131.04651,47.25967 -196.93973,69.82799 -24.17165,8.27875 -72.77797,24.05459 -72.77797,24.05459 l -31.06615,-62.88778 c 0,0 154.95184,35.62982 232.88058,28.87229 74.01742,-6.41836 192.47679,-69.86813 213.16999,-65.08854 v 140.50623 c 0,0 -88.74104,17.91452 -133.76104,18.93653 -98.0178,2.22513 -195.2954,-38.26824 -292.79617,-27.9707 -26.57949,2.80719 -76.46467,24.13088 -76.46467,24.13088 L 478.00136,841.66765 c 11.60697,-10.54133 50.55457,-14.41908 76.33663,-19.35893 85.37065,-16.35706 179.02391,1.19411 258.56177,-33.86911 57.89737,-25.52329 127.32503,-61.6028 145.16247,-122.31004 9.97104,-33.93502 -3.63878,-79.30914 -31.2621,-101.39895 -16.74039,-13.38694 -64.11211,-4.96937 -64.11211,-4.96937 l 11.025,-96.10013 c 19.29737,6.28869 52.56858,-37.02841 65.46527,-64.92516 10.43148,-22.56427 8.91299,-46.06425 5.70191,-74.35823 -2.99567,-26.39604 -10.94033,-54.91043 -29.17636,-74.2759 -17.17357,-18.23721 -43.15054,-32.80531 -68.17323,-31.62527 -37.48805,1.76789 -70.16145,30.77773 -97.22245,56.78122 -37.20107,35.74731 -63.94035,82.62269 -83.32076,130.4368 -12.46338,30.74887 -24.96634,64.7213 -19.94386,97.51769 5.71748,37.33472 17.39243,94.56159 54.8851,99.13003 35.33732,4.30582 60.91608,-44.66702 72.65221,-78.27549 13.24094,-37.91772 2.88802,-81.83102 -9.17604,-120.13942 -12.38808,-39.33728 -31.21919,-80.18054 -62.96796,-106.50358 -28.91214,-23.97118 -70.17413,-49.86901 -105.93165,-38.38296 -38.84272,12.47708 -57.40741,62.89226 -69.26486,100.90732 -15.05442,48.26456 -3.93325,100.46237 1.09345,150.31638 7.26946,72.09724 23.61325,143.19135 41.84606,213.32281 4.79987,18.4624 -5.88734,35.40185 17.7301,54.41264 l -160.96477,23.39375 c 23.3813,-31.87411 27.84078,-76.37272 31.55236,-116.0414 10.11866,-108.14633 -5.48177,-250.13527 -5.48177,-250.13527 0,0 -40.05389,-18.93112 -60.4767,-19.25038 -38.76433,-0.60598 -79.21893,-0.97873 -115.65988,12.25371 -41.71543,15.1477 -81.61549,40.54485 -110.55286,74.1939 -37.53647,43.64829 -68.71523,98.84402 -73.6866,156.19771 -1.36158,15.70828 1.87893,33.97937 12.51964,45.61464 9.5291,10.41977 25.56954,14.57854 39.68772,14.80752 35.12301,0.56966 72.1425,-12.05902 99.87728,-33.61667 35.79726,-27.82444 62.29967,-70.3773 73.85711,-114.2187 21.28243,-80.73165 29.17457,-178.97297 -14.64189,-250.04096 -24.1206,-39.12235 -75.59886,-83.06995 -119.36045,-69.02416 -28.50048,9.14756 -34.75926,51.9517 -37.05387,81.79613 -3.75581,48.84935 16.9542,98.06863 39.47042,141.58167 15.78166,30.49839 39.44818,56.99189 65.03005,79.89997 11.08146,9.92323 19.59306,23.94459 37.4981,24.1933 L 163.42991,694.14805 c 4.99065,-21.21945 0.91012,-45.89308 -1.77431,-68.61404 C 155.63454,574.57189 142.28757,524.68453 129.6609,474.94563 108.39286,391.16667 60.46405,312.62959 56.04202,226.30642 c -1.1668,-22.77718 1.82952,-47.15406 12.61943,-67.24733 11.46992,-21.35961 30.15203,-40.54297 52.1808,-50.66843 20.83463,-9.57658 46.28374,-11.90545 68.50588,-6.25132 41.99451,10.68495 78.00264,41.04725 108.07083,72.24999 37.15202,38.55387 67.65184,85.8468 84.26681,136.74489 23.53154,72.0862 35.69574,153.07023 17.90532,226.78355 -19.41432,80.44182 -74.22268,164.44285 -130.27216,211.32767 -33.55572,27.69657 -77.47306,39.90948 -119.74049,47.41882 C 126.34483,800.792 101.086,802.64861 78.80898,794.8657 55.77009,786.81662 32.94893,771.66512 20.38422,750.74368 4.60887,724.47624 -0.41803,689.93441 5.94891,659.96272 c 19.7558,-92.9983 87.99106,-172.13506 155.43171,-239.148 22.96697,-22.82131 51.83651,-40.09036 81.77715,-52.41318 64.09514,-26.37996 138.30358,-57.03383 203.32654,-43.53294 -6.9311,-27.75536 -11.99693,-58.41875 -7.38306,-88.50511 z" ns2:path-effect="#path-effect1305;#path-effect862" /></g></svg>