<?xml version="1.0" encoding="UTF-8" standalone="no"?>
<svg
   xmlns:dc="http://purl.org/dc/elements/1.1/"
   xmlns:cc="http://creativecommons.org/ns#"
   xmlns:rdf="http://www.w3.org/1999/02/22-rdf-syntax-ns#"
   xmlns:svg="http://www.w3.org/2000/svg"
   xmlns="http://www.w3.org/2000/svg"
   xmlns:sodipodi="http://sodipodi.sourceforge.net/DTD/sodipodi-0.dtd"
   xmlns:inkscape="http://www.inkscape.org/namespaces/inkscape"
   xml:space="preserve"
   width="1000"
   height="1000"
   version="1.1"
   style="clip-rule:evenodd;fill-rule:evenodd;image-rendering:optimizeQuality;shape-rendering:geometricPrecision;text-rendering:geometricPrecision"
   viewBox="0 0 1000 1000"
   id="svg10"
   sodipodi:docname="ക്ര.svg"
   inkscape:version="1.0.1 (3bc2e813f5, 2020-09-07)"><metadata
   id="metadata14"><rdf:RDF><cc:Work
       rdf:about=""><dc:format>image/svg+xml</dc:format><dc:type
         rdf:resource="http://purl.org/dc/dcmitype/StillImage" /><dc:title /></cc:Work></rdf:RDF></metadata><sodipodi:namedview
   pagecolor="#ffffff"
   bordercolor="#666666"
   borderopacity="1"
   objecttolerance="10"
   gridtolerance="10"
   guidetolerance="10"
   inkscape:pageopacity="0"
   inkscape:pageshadow="2"
   inkscape:window-width="1920"
   inkscape:window-height="1015"
   id="namedview12"
   showgrid="false"
   inkscape:zoom="0.678"
   inkscape:cx="372.66643"
   inkscape:cy="517.51964"
   inkscape:window-x="1920"
   inkscape:window-y="0"
   inkscape:window-maximized="1"
   inkscape:current-layer="svg10"
   showguides="true"
   inkscape:guide-bbox="true"
   inkscape:document-rotation="0"
   inkscape:snap-to-guides="true"><sodipodi:guide
     position="0,1000"
     orientation="0,1"
     id="guide16"
     inkscape:label=""
     inkscape:locked="true"
     inkscape:color="rgb(0,0,255)" /><sodipodi:guide
     position="1763.3122,2036.1693"
     orientation="1000,0"
     id="guide18" /><sodipodi:guide
     position="0,200"
     orientation="0,1"
     id="guide20"
     inkscape:label="base"
     inkscape:locked="true"
     inkscape:color="rgb(0,0,255)" /><inkscape:grid
     type="xygrid"
     id="grid24"
     originx="-473.37552"
     originy="-489.69235" /><sodipodi:guide
     position="0,0"
     orientation="0,1"
     id="guide34"
     inkscape:label="bottom"
     inkscape:locked="true"
     inkscape:color="rgb(0,0,255)" /><sodipodi:guide
     position="225.05109,1693.3186"
     orientation="0,1"
     id="guide44"
     inkscape:label=""
     inkscape:locked="false"
     inkscape:color="rgb(0,0,255)" /><sodipodi:guide
     position="0,900"
     orientation="0,1"
     id="guide46"
     inkscape:label=""
     inkscape:locked="true"
     inkscape:color="rgb(0,0,255)" /><sodipodi:guide
     position="796.90345,259.51572"
     orientation="-1,0"
     id="guide841"
     inkscape:label="width"
     inkscape:locked="false"
     inkscape:color="rgb(0,0,255)" /><sodipodi:guide
     position="0,1000"
     orientation="0,1000"
     id="guide860" /><sodipodi:guide
     position="1000,1000"
     orientation="1000,0"
     id="guide862" /><sodipodi:guide
     position="1000,0"
     orientation="0,-1000"
     id="guide864" /><sodipodi:guide
     position="0,0"
     orientation="-1000,0"
     id="guide866" /></sodipodi:namedview>
 <defs
   id="defs4"><inkscape:path-effect
   effect="spiro"
   id="path-effect1521"
   is_visible="true"
   lpeversion="1" /><inkscape:path-effect
   effect="spiro"
   id="path-effect858"
   is_visible="true"
   lpeversion="1" /><inkscape:path-effect
   effect="spiro"
   id="path-effect854"
   is_visible="true"
   lpeversion="1" />
  <style
   type="text/css"
   id="style2">
   <![CDATA[
    .fil0 {fill:#EF7F1A;fill-rule:nonzero}
   ]]>
  </style>
 <inkscape:path-effect
   effect="spiro"
   id="path-effect1214"
   is_visible="true"
   lpeversion="1" /><inkscape:path-effect
   effect="spiro"
   id="path-effect1195"
   is_visible="true"
   lpeversion="1" /><inkscape:path-effect
   effect="spiro"
   id="path-effect992"
   is_visible="true"
   lpeversion="1" /><inkscape:path-effect
   effect="spiro"
   id="path-effect287"
   is_visible="true"
   lpeversion="1" /><inkscape:path-effect
   effect="spiro"
   id="path-effect1032"
   is_visible="true"
   lpeversion="1" /><inkscape:path-effect
   effect="spiro"
   id="path-effect1218"
   is_visible="true"
   lpeversion="1" /><inkscape:path-effect
   effect="spiro"
   id="path-effect309"
   is_visible="true"
   lpeversion="1" /><inkscape:path-effect
   effect="spiro"
   id="path-effect1176"
   is_visible="true"
   lpeversion="1" /></defs>
 
<path
   id="path1164-3-3-2-0"
   style="display:inline;fill:#1a1a1a;fill-rule:nonzero;stroke:none;stroke-width:2.83729;stroke-linecap:butt;stroke-linejoin:miter;stroke-miterlimit:4;stroke-dasharray:none;stroke-opacity:1"
   d="m 472.58107,436.76571 c -43.18705,11.68787 -83.20775,34.0096 -117.30631,62.97538 -44.86252,38.10947 -80.48683,89.91203 -88.67365,148.204 -1.12717,8.0257 -1.73194,16.18964 -0.71843,24.23048 1.0135,8.04085 3.72276,15.99479 8.69676,22.39336 4.44206,5.71428 10.54569,10.00266 17.1546,12.95347 6.6089,2.9508 13.72751,4.61708 20.88663,5.68099 35.49931,5.27551 72.44199,-4.3376 102.69643,-23.64306 38.79147,-24.75296 66.396,-64.20073 84.7197,-106.41126 34.02808,-78.38718 38.15265,-169.58936 9.99063,-250.26997 -8.51635,-24.39826 -20.38719,-48.50977 -39.9676,-65.37426 -9.7902,-8.43224 -21.42509,-14.87203 -34.00805,-17.80804 -12.58295,-2.936 -26.12169,-2.25375 -38.02723,2.7671 -14.50302,6.11628 -25.89057,18.3458 -33.07011,32.35296 -7.17954,14.00717 -10.44357,29.7298 -11.83945,45.40775 -4.37934,49.1869 8.92275,98.21282 25.37185,144.77414 9.14227,25.8784 19.62623,51.95392 37.63525,72.66497 9.81567,11.28839 21.725,20.75027 34.94022,27.75976 l -116.02918,95.64606 c 3.44641,-22.64173 5.11132,-45.55439 4.97428,-68.4565 -0.27008,-45.13642 -7.53472,-90.03002 -18.52249,-133.80945 -21.16505,-84.32952 -56.48797,-168.06051 -48.83882,-254.66835 2.02419,-22.91893 7.25553,-45.99595 19.16416,-65.68248 12.8195,-21.19231 33.33513,-37.68942 56.90564,-45.29762 22.16929,-7.155909 46.55084,-6.431808 68.78863,0.50829 21.04986,6.56936 40.17667,18.49856 56.76572,33.02634 16.58905,14.52779 30.75019,31.63131 43.68527,49.49011 31.57928,43.59988 56.32865,92.40496 70.42672,144.36114 20.12113,74.15321 17.97993,153.96037 -4.4584,227.4456 -24.77141,81.12603 -76.25475,156.30949 -150.401,197.50888 -37.83761,21.02448 -80.61543,32.75649 -123.81937,35.42729 -23.75022,1.4682 -48.17283,0.13557 -70.25052,-8.7416 -23.16985,-9.31632 -43.01184,-27.12937 -53.80807,-49.64774 -13.50088,-28.15964 -12.33638,-61.30026 -5.448,-91.7599 10.77467,-47.6444 34.76664,-91.79503 66.21798,-129.1701 31.45134,-37.37506 70.21737,-68.17281 111.9537,-93.55313 27.68712,-16.83684 56.74122,-31.37242 86.53023,-44.12666 33.4963,-14.34152 68.1776,-26.50408 104.16922,-32.18601 35.99162,-5.68193 73.47933,-4.68404 108.0607,6.79682 33.94211,11.26863 64.60429,32.78876 85.71411,61.65785 19.83816,27.13 30.91826,60.04987 34.86554,93.42664 3.94729,33.37676 1.00756,67.27806 -5.28864,100.29241 -14.80595,77.6355 -49.16368,152.67627 -104.7641,208.84637 C 610.47094,870.52833 533.2845,905.9267 453.58934,921.93326 394.42075,933.81711 332.72687,935.51922 273.88363,922.11693 215.04039,908.71464 159.15213,879.71668 117.63951,835.912 75.352767,791.29046 49.433086,733.2428 34.145663,673.69832 -5.591459,518.92231 22.711213,355.02064 63.881723,200.61973 72.870027,166.91108 82.464085,133.36395 92.657701,100 H 248.10335 c -61.70547,86.11878 -108.6164,182.80921 -138.0671,284.57692 -15.649121,54.07596 -26.441828,110.04933 -25.202578,166.33049 1.23925,56.28116 15.027027,113.09374 45.490278,160.43395 38.02868,59.09696 100.7994,100.45351 168.90382,117.7861 68.10441,17.3326 141.01662,11.59446 207.71584,-10.53798 41.13686,-13.65022 80.51511,-33.61253 113.62159,-61.58628 33.10647,-27.97376 59.76555,-64.22782 73.28405,-105.40815 8.67521,-26.4266 11.8643,-54.74942 8.31371,-82.33597 -3.55058,-27.58655 -13.92611,-54.3885 -30.6571,-76.60783 -20.43393,-27.13696 -50.09055,-46.9331 -82.62059,-56.71863 -37.61077,-11.31389 -78.39243,-9.42711 -116.3042,0.83309 z"
   sodipodi:nodetypes="aaaaaaaaaaaaccaaaaaaaaacaaaaaaaaaaaaaaccaaaaaaa"
   inkscape:path-effect="#path-effect1521"
   inkscape:original-d="m 472.58107,436.76571 c -43.00165,10.9767 -85.20352,32.33161 -117.30631,62.97538 -41.64254,39.74996 -78.09243,91.61603 -88.67365,148.204 -2.89803,15.49856 -1.46797,33.9996 7.97833,46.62384 8.45947,11.30543 24.01382,17.01975 38.04123,18.63446 34.89718,4.01707 72.97816,-4.91408 102.69643,-23.64306 38.35734,-24.17348 68.91158,-63.91719 84.7197,-106.41126 29.10983,-78.25062 46.61412,-175.24156 9.99063,-250.26997 -20.16092,-41.30252 -67.07321,-90.09433 -112.00288,-80.4152 -29.26122,6.3037 -39.69441,48.28602 -44.90956,77.76071 -8.53616,48.24416 9.69583,98.35618 25.37185,144.77414 8.72777,25.84364 20.30036,51.60389 37.63525,72.66497 9.45313,11.48511 17.1462,25.75342 34.94022,27.75976 l -116.02918,95.64606 c 7.05091,-20.62659 5.71788,-45.58959 4.97428,-68.4565 -1.46349,-45.00466 -11.19256,-89.3816 -18.52249,-133.80945 -14.07049,-85.28344 -52.91776,-168.32829 -48.83882,-254.66835 1.07627,-22.78164 6.45266,-46.74629 19.16416,-65.68248 13.51261,-20.12961 33.98877,-37.38504 56.90564,-45.29762 21.67458,-7.483666 47.22937,-7.301387 68.78863,0.50829 40.74182,14.75843 73.59329,48.51099 100.45099,82.51645 33.18517,42.01688 58.89186,92.07711 70.42672,144.36114 16.33665,74.04909 20.48689,155.83635 -4.4584,227.4456 -27.22229,78.14569 -90.01706,156.3566 -150.401,197.50888 -36.11409,24.26642 -81.01871,32.10623 -123.81937,35.42729 -23.52671,1.82552 -48.84577,1.19196 -70.25052,-8.7416 -22.13681,-10.27328 -43.35924,-27.59324 -53.80807,-49.64774 -13.11877,-27.69002 -14.72829,-62.55859 -5.448,-91.7599 28.79555,-90.6079 104.47446,-162.65913 178.17168,-222.72323 25.09765,-20.45487 55.55454,-34.70326 86.53023,-44.12666 68.16329,-20.73656 143.23717,-43.17233 212.22992,-25.38919 34.0817,8.78467 67.33707,31.64089 85.71411,61.65785 34.10684,55.70994 39.77231,129.1983 29.5769,193.71905 -12.1561,76.92882 -49.87621,153.5912 -104.7641,208.84637 C 611.20576,869.58534 533.20073,913.10209 453.58934,921.93326 338.69804,934.67798 208.0263,907.97216 117.63951,835.912 70.088271,798.00214 46.601978,733.22242 34.145663,673.69832 1.7819669,519.04426 37.046975,356.32838 63.881723,200.61973 69.806368,166.24197 92.657701,100 92.657701,100 H 248.10335 c 10.73396,-9.600768 -117.65291,181.13832 -138.0671,284.57692 -21.130093,107.06605 -48.137104,241.74875 20.2877,326.76444 81.84223,101.68643 249.40491,136.48317 376.61966,107.24812 81.42453,-18.71206 158.18137,-88.54055 186.90564,-166.99443 18.39458,-50.24066 5.82309,-113.45607 -22.34339,-158.9438 -17.58633,-28.4012 -50.68007,-46.93544 -82.62059,-56.71863 -37.0692,-11.35407 -78.73966,-8.75573 -116.3042,0.83309 z" /></svg>
