<?xml version="1.0" encoding="UTF-8" standalone="no"?>
<svg
   xmlns:dc="http://purl.org/dc/elements/1.1/"
   xmlns:cc="http://creativecommons.org/ns#"
   xmlns:rdf="http://www.w3.org/1999/02/22-rdf-syntax-ns#"
   xmlns:svg="http://www.w3.org/2000/svg"
   xmlns="http://www.w3.org/2000/svg"
   xmlns:sodipodi="http://sodipodi.sourceforge.net/DTD/sodipodi-0.dtd"
   xmlns:inkscape="http://www.inkscape.org/namespaces/inkscape"
   xml:space="preserve"
   width="1000"
   height="1000"
   version="1.1"
   style="clip-rule:evenodd;fill-rule:evenodd;image-rendering:optimizeQuality;shape-rendering:geometricPrecision;text-rendering:geometricPrecision"
   viewBox="0 0 1000 1000"
   id="svg10"
   sodipodi:docname="ക്തു.svg"
   inkscape:version="1.0.1 (3bc2e813f5, 2020-09-07)"><metadata
   id="metadata14"><rdf:RDF><cc:Work
       rdf:about=""><dc:format>image/svg+xml</dc:format><dc:type
         rdf:resource="http://purl.org/dc/dcmitype/StillImage" /><dc:title /></cc:Work></rdf:RDF></metadata><sodipodi:namedview
   pagecolor="#ffffff"
   bordercolor="#666666"
   borderopacity="1"
   objecttolerance="10"
   gridtolerance="10"
   guidetolerance="10"
   inkscape:pageopacity="0"
   inkscape:pageshadow="2"
   inkscape:window-width="1920"
   inkscape:window-height="1015"
   id="namedview12"
   showgrid="false"
   inkscape:zoom="0.9588368"
   inkscape:cx="607.46414"
   inkscape:cy="588.77319"
   inkscape:window-x="1920"
   inkscape:window-y="0"
   inkscape:window-maximized="1"
   inkscape:current-layer="g885"
   showguides="true"
   inkscape:guide-bbox="true"
   inkscape:document-rotation="0"
   inkscape:snap-to-guides="true"><sodipodi:guide
     position="0,1000"
     orientation="0,1"
     id="guide16"
     inkscape:label=""
     inkscape:locked="true"
     inkscape:color="rgb(0,0,255)" /><sodipodi:guide
     position="1763.3122,2036.1693"
     orientation="1000,0"
     id="guide18" /><sodipodi:guide
     position="0,200"
     orientation="0,1"
     id="guide20"
     inkscape:label="base"
     inkscape:locked="true"
     inkscape:color="rgb(0,0,255)" /><inkscape:grid
     type="xygrid"
     id="grid24"
     originx="-473.37552"
     originy="-489.69235" /><sodipodi:guide
     position="0,0"
     orientation="0,1"
     id="guide34"
     inkscape:label="bottom"
     inkscape:locked="true"
     inkscape:color="rgb(0,0,255)" /><sodipodi:guide
     position="225.05109,1693.3186"
     orientation="0,1"
     id="guide44"
     inkscape:label=""
     inkscape:locked="false"
     inkscape:color="rgb(0,0,255)" /><sodipodi:guide
     position="0,900"
     orientation="0,1"
     id="guide46"
     inkscape:label=""
     inkscape:locked="true"
     inkscape:color="rgb(0,0,255)" /><sodipodi:guide
     position="1022.9196,527.22498"
     orientation="-1,0"
     id="guide841"
     inkscape:label="width"
     inkscape:locked="false"
     inkscape:color="rgb(0,0,255)" /><sodipodi:guide
     position="0,1000"
     orientation="0,1000"
     id="guide860" /><sodipodi:guide
     position="1000,1000"
     orientation="1000,0"
     id="guide862" /><sodipodi:guide
     position="1000,0"
     orientation="0,-1000"
     id="guide864" /><sodipodi:guide
     position="0,0"
     orientation="-1000,0"
     id="guide866" /></sodipodi:namedview>
 <defs
   id="defs4"><inkscape:path-effect
   effect="spiro"
   id="path-effect1521"
   is_visible="true"
   lpeversion="1" /><inkscape:path-effect
   effect="spiro"
   id="path-effect858"
   is_visible="true"
   lpeversion="1" /><inkscape:path-effect
   effect="spiro"
   id="path-effect854"
   is_visible="true"
   lpeversion="1" />
  <style
   type="text/css"
   id="style2">
   <![CDATA[
    .fil0 {fill:#EF7F1A;fill-rule:nonzero}
   ]]>
  </style>
 <inkscape:path-effect
   effect="spiro"
   id="path-effect1214"
   is_visible="true"
   lpeversion="1" /><inkscape:path-effect
   effect="spiro"
   id="path-effect1195"
   is_visible="true"
   lpeversion="1" /><inkscape:path-effect
   effect="spiro"
   id="path-effect992"
   is_visible="true"
   lpeversion="1" /><inkscape:path-effect
   effect="spiro"
   id="path-effect287"
   is_visible="true"
   lpeversion="1" /><inkscape:path-effect
   effect="spiro"
   id="path-effect1032"
   is_visible="true"
   lpeversion="1" /><inkscape:path-effect
   effect="spiro"
   id="path-effect1218"
   is_visible="true"
   lpeversion="1" /><inkscape:path-effect
   effect="spiro"
   id="path-effect309"
   is_visible="true"
   lpeversion="1" /><inkscape:path-effect
   effect="spiro"
   id="path-effect1176"
   is_visible="true"
   lpeversion="1" /><inkscape:path-effect
   effect="spiro"
   id="path-effect851"
   is_visible="true"
   lpeversion="1" /><style
   type="text/css"
   id="style2-9">
   <![CDATA[
    .fil0 {fill:#EF7F1A;fill-rule:nonzero}
   ]]>
  </style><inkscape:path-effect
   effect="spiro"
   id="path-effect1060"
   is_visible="true"
   lpeversion="1" /><inkscape:path-effect
   effect="spiro"
   id="path-effect1047"
   is_visible="true"
   lpeversion="1" /><inkscape:path-effect
   effect="spiro"
   id="path-effect1085"
   is_visible="true"
   lpeversion="1" /><inkscape:path-effect
   effect="spiro"
   id="path-effect1286"
   is_visible="true"
   lpeversion="1" /><inkscape:path-effect
   effect="spiro"
   id="path-effect1305"
   is_visible="true"
   lpeversion="1" /></defs>
 
<g
   style="clip-rule:evenodd;fill-rule:evenodd;image-rendering:optimizeQuality;shape-rendering:geometricPrecision;text-rendering:geometricPrecision"
   id="g885"><path
     id="path1210-6"
     style="display:inline;fill:#1a1a1a;fill-rule:nonzero;stroke:none;stroke-width:2.22142px;stroke-linecap:butt;stroke-linejoin:miter;stroke-opacity:1"
     d="m 439.10125,258.36349 c 3.05376,-30.55134 12.10162,-60.86009 29.07862,-86.44311 14.93471,-22.50545 36.52505,-41.34146 62.38085,-49.15291 27.76769,-8.38906 58.01703,-3.52251 85.27409,6.40087 63.01333,22.94104 114.33867,71.98692 148.91979,129.44226 34.58113,57.45534 53.60282,123.04299 65.41654,189.05365 7.08955,39.61372 11.71982,80.01996 7.99875,120.09067 -3.72107,40.07071 -16.23178,80.02498 -40.68405,111.98738 -10.51047,13.7386 -23.19155,25.92386 -37.89772,35.03142 -14.70616,9.10757 -31.47881,15.07697 -48.73253,16.31318 -16.00101,1.14645 -32.22078,-1.79928 -47.00013,-8.03768 -14.77935,-6.2384 -28.12089,-15.72798 -39.23502,-27.29616 -22.22825,-23.13638 -35.18218,-54.17279 -39.9198,-85.90514 -5.58117,-37.3824 -0.34524,-75.47517 5.98385,-112.73824 7.63673,-44.96194 16.93837,-89.89106 33.24589,-132.48167 30.14658,-78.73429 83.51817,-147.08911 146.07663,-203.60763 16.16128,-14.60093 33.05031,-28.54579 51.73543,-39.73688 18.68511,-11.1911 39.28612,-19.59701 60.87924,-22.445026 28.93018,-3.815729 59.61772,2.990696 82.69362,20.851756 14.41667,11.1587 25.53571,26.22635 33.46024,42.6446 7.92456,16.41825 12.75896,34.18777 15.91046,52.14398 9.2231,52.55115 4.2601,106.44569 -1.1793,159.52207 -5.8288,56.87603 -12.1756,113.69792 -18.04507,170.56977 -6.09273,59.03557 -11.9157,119.13356 -34.62383,173.96658 -23.98631,57.9194 -66.75438,107.88518 -120.27893,140.5214 -53.52455,32.63622 -117.52872,47.77407 -180.0023,42.57298 69.0109,27.67513 146.0296,35.03019 219.03118,20.91685 C 921.83372,914.38108 962.7064,899.15557 1000,877.69362 V 1000 c -36.34775,7.8945 -73.6639,11.3198 -110.84144,10.1743 C 792.58539,1007.1988 698.77185,973.67133 602.16675,972.03261 547.24573,971.10098 492.1654,980.64487 440.75952,1000 l -1.54544,-102.03971 c 30.89672,-14.36995 63.39055,-25.30275 96.68981,-32.53204 55.55383,-12.06076 112.86899,-13.76763 168.77266,-24.08606 55.90367,-10.31843 112.52843,-30.772 150.97837,-72.64434 23.52718,-25.62132 38.88251,-57.89653 48.66115,-91.27853 9.77864,-33.38201 14.25796,-68.05732 18.26228,-102.61084 4.76124,-41.08501 8.90295,-82.27235 10.57992,-123.59831 1.49297,-36.79171 0.99455,-73.9797 -6.96297,-109.93156 -5.29509,-23.92307 -14.44189,-47.99573 -32.25372,-64.821 -13.36984,-12.62931 -31.19578,-20.42359 -49.53976,-21.74662 -17.68231,-1.27531 -35.47251,3.32932 -51.3289,11.25809 -15.8564,7.92876 -29.90995,19.08033 -42.76476,31.2887 -37.75608,35.8574 -65.87627,81.37598 -83.32076,130.4368 -11.15322,31.36728 -18.0527,64.2803 -19.94386,97.51769 -1.18796,20.87864 -0.2712,42.47775 8.21836,61.58944 4.24477,9.55584 10.38446,18.35062 18.37895,25.09007 7.9945,6.73946 17.88895,11.35672 28.28779,12.45052 9.77382,1.02806 19.77331,-1.07555 28.58033,-5.43685 8.80701,-4.3613 16.44135,-10.92254 22.55569,-18.61665 12.22868,-15.38822 18.23367,-34.84254 21.51619,-54.22199 6.76968,-39.96711 2.91072,-81.44694 -9.17604,-120.13942 -12.41541,-39.74455 -33.6394,-76.94674 -62.96796,-106.50358 -13.90553,-14.01376 -29.79811,-26.41034 -48.02741,-33.98936 -18.2293,-7.57903 -38.99376,-10.06306 -57.90424,-4.3936 -20.6272,6.18414 -37.6486,21.65184 -48.83989,40.04966 -11.19129,18.39783 -17.01928,39.5944 -20.42497,60.85766 -7.94614,49.61141 -3.3475,100.26929 1.09345,150.31638 6.43438,72.51197 12.86411,146.54382 41.84606,213.32281 11.64067,26.82194 26.81281,52.10874 45.00135,75.00194 l -188.23602,2.80445 c 14.08396,-37.59091 24.66208,-76.49448 31.55236,-116.0414 14.40548,-82.68056 12.53207,-168.16519 -5.48177,-250.13527 -19.0362,-9.41267 -39.50215,-15.9272 -60.4767,-19.25038 -38.70853,-6.13293 -78.87259,-1.26139 -115.65988,12.25371 -42.01809,15.43681 -79.54931,41.90466 -110.55286,74.1939 -40.7609,42.45123 -71.243069,97.39646 -73.6866,156.19771 -0.336507,8.09773 -0.136818,16.28207 1.662257,24.18458 1.799074,7.90252 5.278109,15.55144 10.857383,21.43006 4.9824,5.24972 11.47767,8.91761 18.34436,11.20506 6.8667,2.28744 14.11443,3.24676 21.34336,3.60246 35.84569,1.76381 71.66391,-11.43492 99.87728,-33.61667 36.17535,-28.44157 59.78468,-70.40608 73.85711,-114.2187 26.1288,-81.34854 21.1506,-172.45747 -14.64189,-250.04096 -10.83914,-23.49484 -24.97882,-46.39809 -46.13598,-61.29336 -10.57858,-7.44763 -22.81078,-12.71849 -35.64091,-14.38022 -12.83013,-1.66174 -26.25407,0.40313 -37.58356,6.64942 -13.75694,7.58462 -23.75845,20.92072 -29.48025,35.55085 -5.72179,14.63014 -7.46942,30.5364 -7.57362,46.24528 -0.32863,49.54311 15.29359,98.33692 39.47042,141.58167 16.86036,30.15789 38.13233,58.21397 65.03005,79.89997 11.60172,9.35376 24.19399,17.47814 37.4981,24.1933 L 163.42991,716.14805 c 0.74097,-22.87993 0.14819,-45.80298 -1.77431,-68.61404 C 157.33515,596.27061 146.28415,545.63104 129.6609,496.94563 115.61819,455.81799 97.645146,416.13771 82.898888,375.25705 68.15263,334.37639 56.56894,291.76218 56.04202,248.30642 55.763033,225.298 58.732628,201.81683 68.66145,181.05909 c 10.686921,-22.34267 29.473947,-40.77884 52.1808,-50.66843 21.35803,-9.30213 45.69392,-10.97461 68.50588,-6.25132 21.59306,4.47091 41.7989,14.46364 59.73483,27.29141 17.93594,12.82777 33.709,28.45706 48.336,44.95858 35.71003,40.28645 65.1335,86.42471 84.26681,136.74489 27.30752,71.81818 33.0162,151.44954 17.90532,226.78355 -16.6821,83.1672 -60.53066,163.04517 -130.27216,211.32767 -35.58969,24.63897 -77.00827,40.51502 -119.74049,47.41882 -23.49112,3.79521 -47.92727,4.87007 -70.76946,-1.79856 C 54.837914,809.8675 33.350125,794.08547 20.38422,772.74368 4.1673813,746.05087 2.0251553,712.94814 5.94891,681.96272 12.07943,633.55074 31.916131,587.42678 59.634935,547.26497 87.353738,507.10316 122.79262,472.6856 161.38062,442.81472 c 25.64237,-19.8497 52.81387,-37.82997 81.77715,-52.41318 62.58591,-31.51245 133.32464,-46.65786 203.32654,-43.53294 -7.82795,-28.72218 -10.34395,-58.88293 -7.38306,-88.50511 z"
     sodipodi:nodetypes="aaaaaaacaaaaaaaaacsccssccaaaaaaaaaaaaaaaaaaccscaaaaaaaaaaaascccaaaaaaaacaaaaaaca"
     inkscape:original-d="m 439.10125,258.36349 c 4.57159,-29.81062 10.91025,-61.11573 29.07862,-86.44311 14.96337,-20.85949 36.06632,-41.37397 62.38085,-49.15291 27.08294,-8.00609 61.05248,-7.06993 85.27409,6.40087 117.6677,65.44058 185.69234,197.26846 214.33633,318.49591 18.02515,76.28638 13.29086,165.82562 -32.6853,232.07805 -18.26618,26.32183 -52.22679,54.99263 -86.63025,51.3446 -61.30481,-6.50064 -117.08592,-57.90829 -126.15495,-121.23898 -4.96717,-37.47677 0.35944,-75.45418 5.98385,-112.73824 6.76613,-44.85243 14.09619,-91.17485 33.24589,-132.48167 35.1322,-75.78185 83.63708,-148.12372 146.07663,-203.60763 32.05387,-28.48313 70.08905,-56.67635 112.61467,-62.181906 28.19206,-3.649867 60.87962,4.258636 82.69362,20.851756 29.6906,22.5846 41.0272,60.15427 49.3707,94.78858 12.4538,51.69655 1.818,106.43114 -1.1793,159.52207 -3.2227,57.08298 -9.4486,114.04586 -18.04507,170.56977 -8.89006,58.45405 -0.75956,125.49885 -34.62383,173.96658 -67.14471,96.09986 -207.12086,156.57988 -300.28123,183.09438 3.40815,15.51315 198.13147,-88.64267 219.03118,20.91685 7.68429,40.28227 99.71903,-49.63443 120.41225,-44.85484 V 1000 c 0,0 -43.63139,17.0114 -110.84144,10.1743 C 801.26363,1001.233 677.40352,968.2154 602.16675,972.03261 547.6328,974.79944 440.75952,1000 440.75952,1000 l -1.54544,-102.03971 c 11.60697,-10.54133 64.29673,-22.18555 96.68981,-32.53204 106.0746,-33.88069 239.50716,-19.5252 319.75103,-96.7304 49.26976,-47.404 52.74597,-127.00404 66.92343,-193.88937 8.57434,-40.45135 10.12225,-82.25074 10.57992,-123.59831 0.40638,-36.71504 2.56439,-74.47189 -6.96297,-109.93156 -6.26228,-23.30741 -13.90808,-47.78591 -32.25372,-64.821 -12.76004,-11.84848 -31.5058,-21.84594 -49.53976,-21.74662 -34.42145,0.18958 -68.06814,20.01805 -94.09366,42.54679 -39.00773,33.76665 -63.94035,82.62269 -83.32076,130.4368 -12.46338,30.74887 -24.96634,64.7213 -19.94386,97.51769 5.71748,37.33472 17.39243,94.56159 54.8851,99.13003 35.33732,4.30582 60.91608,-44.66702 72.65221,-78.27549 13.24094,-37.91772 2.88802,-81.83102 -9.17604,-120.13942 -12.38808,-39.33728 -31.21919,-80.18054 -62.96796,-106.50358 -28.91214,-23.97118 -70.17413,-49.86901 -105.93165,-38.38296 -38.84272,12.47708 -57.40741,62.89226 -69.26486,100.90732 -15.05442,48.26456 -3.93325,100.46237 1.09345,150.31638 7.26946,72.09724 15.84097,145.68708 41.84606,213.32281 10.4632,27.21337 21.38391,55.99115 45.00135,75.00194 l -188.23602,2.80445 c 23.3813,-31.87411 27.84078,-76.37272 31.55236,-116.0414 10.11866,-108.14633 -5.48177,-250.13527 -5.48177,-250.13527 0,0 -40.05389,-18.93112 -60.4767,-19.25038 -38.76433,-0.60598 -79.21893,-0.97873 -115.65988,12.25371 -41.71543,15.1477 -81.61549,40.54485 -110.55286,74.1939 -37.53647,43.64829 -68.71523,98.84402 -73.6866,156.19771 -1.36158,15.70828 1.87893,33.97937 12.51964,45.61464 9.5291,10.41977 25.56954,14.57854 39.68772,14.80752 35.12301,0.56966 72.1425,-12.05902 99.87728,-33.61667 35.79726,-27.82444 62.29967,-70.3773 73.85711,-114.2187 21.28243,-80.73165 29.17457,-178.97297 -14.64189,-250.04096 -24.1206,-39.12235 -75.59886,-83.06995 -119.36045,-69.02416 -28.50048,9.14756 -34.75926,51.9517 -37.05387,81.79613 -3.75581,48.84935 16.9542,98.06863 39.47042,141.58167 15.78166,30.49839 46.47727,68.09313 65.03005,79.89997 15.69129,9.98592 19.59306,23.94459 37.4981,24.1933 L 163.42991,716.14805 C 168.42056,694.9286 162.66622,677.96414 161.6556,647.53401 160.49263,626.71912 142.28757,546.68453 129.6609,496.94563 108.39286,413.16667 60.46405,334.62959 56.04202,248.30642 c -1.1668,-22.77718 1.82952,-47.15406 12.61943,-67.24733 11.46992,-21.35961 30.15203,-40.54297 52.1808,-50.66843 20.83463,-9.57658 46.28374,-11.90545 68.50588,-6.25132 41.99451,10.68495 78.00264,41.04725 108.07083,72.24999 37.15202,38.55387 67.65184,85.8468 84.26681,136.74489 23.53154,72.0862 35.69574,153.07023 17.90532,226.78355 -19.41432,80.44182 -74.22268,164.44285 -130.27216,211.32767 -33.55572,27.69657 -77.47306,39.90948 -119.74049,47.41882 C 126.34483,822.792 101.086,824.64861 78.80898,816.8657 55.77009,808.81662 32.94893,793.66512 20.38422,772.74368 4.60887,746.47624 -0.41803,711.93441 5.94891,681.96272 c 19.7558,-92.9983 87.99106,-172.13506 155.43171,-239.148 22.96697,-22.82131 51.83651,-40.09036 81.77715,-52.41318 64.09514,-26.37996 138.30358,-57.03383 203.32654,-43.53294 -6.9311,-27.75536 -11.99693,-58.41875 -7.38306,-88.50511 z"
     inkscape:path-effect="#path-effect1305" /></g></svg>
