<?xml version="1.0" encoding="UTF-8" standalone="no"?>
<svg
   xmlns:dc="http://purl.org/dc/elements/1.1/"
   xmlns:cc="http://creativecommons.org/ns#"
   xmlns:rdf="http://www.w3.org/1999/02/22-rdf-syntax-ns#"
   xmlns:svg="http://www.w3.org/2000/svg"
   xmlns="http://www.w3.org/2000/svg"
   xmlns:sodipodi="http://sodipodi.sourceforge.net/DTD/sodipodi-0.dtd"
   xmlns:inkscape="http://www.inkscape.org/namespaces/inkscape"
   xml:space="preserve"
   width="1000"
   height="1000"
   version="1.1"
   style="clip-rule:evenodd;fill-rule:evenodd;image-rendering:optimizeQuality;shape-rendering:geometricPrecision;text-rendering:geometricPrecision"
   viewBox="0 0 1000 1000"
   id="svg10"
   sodipodi:docname="ക്ര.svg"
   inkscape:version="1.0.2 (e86c870879, 2021-01-15)"><metadata
   id="metadata14"><rdf:RDF><cc:Work
       rdf:about=""><dc:format>image/svg+xml</dc:format><dc:type
         rdf:resource="http://purl.org/dc/dcmitype/StillImage" /><dc:title /></cc:Work></rdf:RDF></metadata><sodipodi:namedview
   pagecolor="#ffffff"
   bordercolor="#666666"
   borderopacity="1"
   objecttolerance="10"
   gridtolerance="10"
   guidetolerance="10"
   inkscape:pageopacity="0"
   inkscape:pageshadow="2"
   inkscape:window-width="1920"
   inkscape:window-height="1007"
   id="namedview12"
   showgrid="false"
   inkscape:zoom="0.678"
   inkscape:cx="372.66643"
   inkscape:cy="517.51964"
   inkscape:window-x="1920"
   inkscape:window-y="0"
   inkscape:window-maximized="1"
   inkscape:current-layer="svg10"
   showguides="true"
   inkscape:guide-bbox="true"
   inkscape:document-rotation="0"
   inkscape:snap-to-guides="true"><sodipodi:guide
     position="0,1000"
     orientation="0,1"
     id="guide16"
     inkscape:label=""
     inkscape:locked="true"
     inkscape:color="rgb(0,0,255)" /><sodipodi:guide
     position="1763.3122,2036.1693"
     orientation="1000,0"
     id="guide18" /><sodipodi:guide
     position="0,200"
     orientation="0,1"
     id="guide20"
     inkscape:label="base"
     inkscape:locked="true"
     inkscape:color="rgb(0,0,255)" /><inkscape:grid
     type="xygrid"
     id="grid24"
     originx="-473.37552"
     originy="-489.69235" /><sodipodi:guide
     position="0,0"
     orientation="0,1"
     id="guide34"
     inkscape:label="bottom"
     inkscape:locked="true"
     inkscape:color="rgb(0,0,255)" /><sodipodi:guide
     position="225.05109,1693.3186"
     orientation="0,1"
     id="guide44"
     inkscape:label=""
     inkscape:locked="false"
     inkscape:color="rgb(0,0,255)" /><sodipodi:guide
     position="0,900"
     orientation="0,1"
     id="guide46"
     inkscape:label=""
     inkscape:locked="true"
     inkscape:color="rgb(0,0,255)" /><sodipodi:guide
     position="785.03418,0"
     orientation="-1,0"
     id="guide841"
     inkscape:label="width"
     inkscape:locked="false"
     inkscape:color="rgb(0,0,255)" /><sodipodi:guide
     position="0,1000"
     orientation="0,1000"
     id="guide860" /><sodipodi:guide
     position="1000,1000"
     orientation="1000,0"
     id="guide862" /><sodipodi:guide
     position="1000,0"
     orientation="0,-1000"
     id="guide864" /><sodipodi:guide
     position="0,0"
     orientation="-1000,0"
     id="guide866" /></sodipodi:namedview>
 <defs
   id="defs4"><inkscape:path-effect
   effect="fillet_chamfer"
   id="path-effect855"
   is_visible="true"
   lpeversion="1"
   satellites_param="F,0,0,1,0,0,0,1 @ F,0,0,1,0,0,0,1 @ F,0,0,1,0,0,0,1 @ F,0,0,1,0,0,0,1 @ F,0,0,1,0,0,0,1 @ F,0,0,1,0,0,0,1 @ F,0,0,1,0,0,0,1 @ F,0,0,1,0,0,0,1 @ F,0,0,1,0,0,0,1 @ F,0,0,1,0,0,0,1 @ F,0,0,1,0,0,0,1 @ F,0,0,1,0,0,0,1 @ F,0,0,1,0,0,0,1 @ F,0,0,1,0,0,0,1 @ F,0,0,1,0,0,0,1 @ F,0,0,1,0,0,0,1 @ F,0,0,1,0,0,0,1 @ F,0,0,1,0,22.195873,0,1 @ F,0,0,1,0,37.606519,0,1 @ F,0,0,1,0,0,0,1 @ F,0,0,1,0,0,0,1 @ F,0,0,1,0,0,0,1 @ F,0,0,1,0,0,0,1 @ F,0,0,1,0,0,0,1 @ F,0,0,1,0,0,0,1 @ F,0,0,1,0,0,0,1 @ F,0,0,1,0,0,0,1 @ F,0,0,1,0,0,0,1 @ F,0,0,1,0,0,0,1 @ F,0,0,1,0,0,0,1 @ F,0,0,1,0,0,0,1 @ F,0,0,1,0,0,0,1 @ F,0,0,1,0,0,0,1 @ F,0,0,1,0,0,0,1 @ F,0,0,1,0,0,0,1 @ F,0,0,1,0,0,0,1 @ F,0,0,1,0,0,0,1 @ F,0,0,1,0,0,0,1 @ F,0,0,1,0,0,0,1 @ F,0,0,1,0,0,0,1 @ F,0,0,1,0,0,0,1 @ F,0,0,1,0,0,0,1 @ F,0,0,1,0,0,0,1 @ F,0,0,1,0,0,0,1 @ F,0,0,1,0,0,0,1 @ F,0,0,1,0,0,0,1 @ F,0,0,1,0,0,0,1 @ F,0,0,1,0,0,0,1 @ F,0,0,1,0,24.958476,0,1 @ F,0,0,1,0,31.133331,0,1 @ F,0,0,1,0,0,0,1 @ F,0,0,1,0,0,0,1 @ F,0,0,1,0,0,0,1 @ F,0,0,1,0,0,0,1 @ F,0,0,1,0,0,0,1 @ F,0,0,1,0,0,0,1 @ F,0,0,1,0,0,0,1 @ F,0,0,1,0,0,0,1 @ F,0,0,1,0,0,0,1 @ F,0,0,1,0,0,0,1"
   unit="px"
   method="auto"
   mode="F"
   radius="0"
   chamfer_steps="1"
   flexible="false"
   use_knot_distance="true"
   apply_no_radius="true"
   apply_with_radius="true"
   only_selected="true"
   hide_knots="false" /><inkscape:path-effect
   effect="spiro"
   id="path-effect1521"
   is_visible="true"
   lpeversion="1" /><inkscape:path-effect
   effect="spiro"
   id="path-effect858"
   is_visible="true"
   lpeversion="1" /><inkscape:path-effect
   effect="spiro"
   id="path-effect854"
   is_visible="true"
   lpeversion="1" />
  <style
   type="text/css"
   id="style2">
   <![CDATA[
    .fil0 {fill:#EF7F1A;fill-rule:nonzero}
   ]]>
  </style>
 <inkscape:path-effect
   effect="spiro"
   id="path-effect1214"
   is_visible="true"
   lpeversion="1" /><inkscape:path-effect
   effect="spiro"
   id="path-effect1195"
   is_visible="true"
   lpeversion="1" /><inkscape:path-effect
   effect="spiro"
   id="path-effect992"
   is_visible="true"
   lpeversion="1" /><inkscape:path-effect
   effect="spiro"
   id="path-effect287"
   is_visible="true"
   lpeversion="1" /><inkscape:path-effect
   effect="spiro"
   id="path-effect1032"
   is_visible="true"
   lpeversion="1" /><inkscape:path-effect
   effect="spiro"
   id="path-effect1218"
   is_visible="true"
   lpeversion="1" /><inkscape:path-effect
   effect="spiro"
   id="path-effect309"
   is_visible="true"
   lpeversion="1" /><inkscape:path-effect
   effect="spiro"
   id="path-effect1176"
   is_visible="true"
   lpeversion="1" /></defs>
 
<path
   id="path1164-3-3-2-0"
   style="display:inline;fill:#1a1a1a;fill-rule:nonzero;stroke:none;stroke-width:2.83729;stroke-linecap:butt;stroke-linejoin:miter;stroke-miterlimit:4;stroke-dasharray:none;stroke-opacity:1"
   d="m 476.58107,436.76571 c -43.18705,11.68787 -83.20775,34.00961 -117.30631,62.97538 -44.86253,38.10947 -80.48686,89.91202 -88.67365,148.204 -1.12717,8.0257 -1.73193,16.18964 -0.71843,24.23048 1.01351,8.04084 3.72276,15.99479 8.69676,22.39336 4.44206,5.71428 10.54568,10.00268 17.15459,12.95349 6.6089,2.95081 13.72752,4.61709 20.88664,5.68097 35.49927,5.27538 72.44162,-4.33828 102.69643,-23.64306 38.79221,-24.75226 66.39975,-64.19883 84.7197,-106.41126 34.01973,-78.38751 38.11368,-169.57896 9.99063,-250.26997 -8.50742,-24.40959 -20.36653,-48.53772 -39.9496,-65.411 -9.79153,-8.43665 -21.43126,-14.87813 -34.01941,-17.80891 -12.58815,-2.93079 -26.13239,-2.23572 -38.03387,2.80471 -14.48692,6.1354 -25.84485,18.37912 -33.01287,32.38389 -7.16802,14.00477 -10.44101,29.71173 -11.89669,45.37682 -4.57234,49.20447 8.11933,98.46715 25.37185,144.77414 9.56211,25.66537 20.73896,51.10898 37.63525,72.66497 6.35571,8.10851 13.48742,15.60733 21.25865,22.37115 9.23945,8.0417 10.01357,19.70955 0.55462,27.50683 l -69.88399,57.6073 c -16.02633,13.21095 -27.43583,7.13179 -27.14518,-13.63124 0.1816,-12.97341 -0.11784,-25.95356 -0.89878,-38.90472 -2.72655,-45.21713 -11.30568,-89.92088 -22.52249,-133.80945 -21.4686,-84.00122 -52.96211,-168.34849 -44.83882,-254.66835 2.15513,-22.90087 7.29076,-45.9818 19.16416,-65.68248 12.78655,-21.21581 33.3288,-37.69899 56.90564,-45.29762 22.17178,-7.145788 46.55045,-6.428094 68.78863,0.50829 21.05114,6.56613 40.17886,18.49519 56.76772,33.02359 16.58885,14.5284 30.74887,31.63325 43.68327,49.49286 31.5772,43.60127 56.32791,92.40526 70.42672,144.36114 20.12223,74.15298 17.98025,153.96039 -4.4584,227.4456 -24.77174,81.1259 -76.25481,156.30945 -150.401,197.50888 -37.8376,21.02451 -80.61543,32.7565 -123.81937,35.42729 -23.75022,1.4682 -48.17283,0.13557 -70.25052,-8.7416 -23.16985,-9.31631 -43.01184,-27.12937 -53.80807,-49.64774 -13.50088,-28.15964 -12.33637,-61.30026 -5.448,-91.7599 10.77466,-47.6444 34.76659,-91.79507 66.21792,-129.17014 31.45134,-37.37508 70.21738,-68.17283 111.95376,-93.55309 27.68714,-16.8368 56.74128,-31.3723 86.53023,-44.12666 33.4963,-14.34169 68.17753,-26.50468 104.16919,-32.1868 35.99166,-5.68211 73.47957,-4.6841 108.06073,6.79761 33.94168,11.26939 64.60243,32.79033 85.71411,61.65785 19.8405,27.12935 30.9261,60.04823 34.87562,93.42559 3.94953,33.37737 1.00847,67.28033 -5.29872,100.29346 -14.83017,77.62412 -49.24306,152.60714 -104.7641,208.84637 -57.12523,57.86418 -134.2689,93.55714 -214.06628,109.17552 -59.08633,11.5647 -120.63473,12.61009 -179.28467,-0.99579 C 219.65472,907.33158 164.01027,878.68646 121.63951,835.912 77.940201,791.79633 49.660592,734.33151 31.723468,674.88337 -14.835398,520.57559 5.3982327,352.39881 57.463976,199.86102 66.331706,173.8811 76.098802,148.20818 86.741264,122.90343 92.085024,110.19748 107.83199,100 121.61618,100 h 99.35384 c 17.19446,0 22.96815,11.30283 13.42821,25.60707 -53.02335,79.50352 -93.79619,167.17104 -120.36198,258.96985 -15.649121,54.07596 -26.441828,110.04933 -25.202578,166.33049 1.23925,56.28116 15.027028,113.09374 45.490278,160.43395 38.02868,59.09696 100.7994,100.45351 168.90382,117.7861 68.10441,17.3326 141.01662,11.59446 207.71584,-10.53798 41.13686,-13.65022 80.51511,-33.61253 113.62159,-61.58628 33.10647,-27.97376 59.76555,-64.22782 73.28405,-105.40815 8.67521,-26.4266 11.8643,-54.74942 8.31371,-82.33597 -3.55058,-27.58655 -13.92611,-54.3885 -30.6571,-76.60783 -20.43393,-27.13696 -50.09055,-46.9331 -82.62059,-56.71863 -37.61077,-11.31389 -78.39243,-9.42712 -116.3042,0.83309 z"
   sodipodi:nodetypes="aaaaaaaaaaaaccaaaaaaaaacaaaaaaaaaaaaaaccaaaaaaa"
   inkscape:path-effect="#path-effect1521;#path-effect855"
   inkscape:original-d="m 476.58107,436.76571 c -43.00165,10.9767 -85.20352,32.33161 -117.30631,62.97538 -41.64254,39.74996 -78.09243,91.61603 -88.67365,148.204 -2.89803,15.49856 -1.46797,33.9996 7.97833,46.62384 8.45947,11.30543 24.01382,17.01975 38.04123,18.63446 34.89718,4.01707 72.97816,-4.91408 102.69643,-23.64306 38.35734,-24.17348 68.91158,-63.91719 84.7197,-106.41126 29.10983,-78.25062 46.61412,-175.24156 9.99063,-250.26997 -20.16092,-41.30252 -67.07321,-90.09433 -112.00288,-80.4152 -29.26122,6.3037 -39.69441,48.28602 -44.90956,77.76071 -8.53616,48.24416 9.69583,98.35618 25.37185,144.77414 8.72777,25.84364 21.06392,50.99797 37.63525,72.66497 10.70604,13.99813 21.1462,33.75342 38.94022,35.75976 l -116.02918,95.64606 c 7.05091,-20.62659 2.93504,-51.04446 0.97428,-76.4565 -3.47959,-45.09652 -14.84719,-89.23487 -22.52249,-133.80945 -14.6267,-84.9451 -49.56029,-168.60258 -44.83882,-254.66835 1.24929,-22.77281 6.45266,-46.74629 19.16416,-65.68248 13.51261,-20.12961 33.98877,-37.38504 56.90564,-45.29762 21.67458,-7.483666 47.22937,-7.301387 68.78863,0.50829 40.74182,14.75843 73.59329,48.51099 100.45099,82.51645 33.18517,42.01688 58.89186,92.07711 70.42672,144.36114 16.33665,74.04909 20.48689,155.83635 -4.4584,227.4456 -27.22229,78.14569 -90.01706,156.3566 -150.401,197.50888 -36.11409,24.26642 -81.01871,32.10623 -123.81937,35.42729 -23.52671,1.82552 -48.84577,1.19196 -70.25052,-8.7416 -22.13681,-10.27328 -43.35924,-27.59324 -53.80807,-49.64774 -13.11877,-27.69002 -14.72829,-62.55859 -5.448,-91.7599 28.79555,-90.6079 104.47446,-162.65913 178.17168,-222.72323 25.09765,-20.45487 55.55454,-34.70326 86.53023,-44.12666 68.16329,-20.73656 143.23717,-43.17233 212.22992,-25.38919 34.0817,8.78467 67.33707,31.64089 85.71411,61.65785 34.10684,55.70994 39.77231,129.1983 29.5769,193.71905 -12.1561,76.92882 -49.87621,153.5912 -104.7641,208.84637 C 615.20576,869.58534 537.20073,913.10209 457.58934,921.93326 342.69804,934.67798 213.23496,906.42946 121.63951,835.912 72.926414,798.40878 45.592912,734.77574 31.723468,674.88337 -4.0510512,520.3984 23.776579,354.81451 57.463976,199.86102 65.060653,164.91823 96.657701,100 96.657701,100 H 252.10335 c 10.73396,-9.600768 -117.65291,181.13832 -138.0671,284.57692 -21.130093,107.06605 -48.137104,241.74875 20.2877,326.76444 81.84223,101.68643 249.40491,136.48317 376.61966,107.24812 81.42453,-18.71206 158.18137,-88.54055 186.90564,-166.99443 18.39458,-50.24066 5.82309,-113.45607 -22.34339,-158.9438 -17.58633,-28.4012 -50.68007,-46.93544 -82.62059,-56.71863 -37.0692,-11.35407 -78.73966,-8.75573 -116.3042,0.83309 z" /></svg>
