<?xml version="1.0" encoding="UTF-8" standalone="no"?>
<svg
   xmlns:dc="http://purl.org/dc/elements/1.1/"
   xmlns:cc="http://creativecommons.org/ns#"
   xmlns:rdf="http://www.w3.org/1999/02/22-rdf-syntax-ns#"
   xmlns:svg="http://www.w3.org/2000/svg"
   xmlns="http://www.w3.org/2000/svg"
   xmlns:sodipodi="http://sodipodi.sourceforge.net/DTD/sodipodi-0.dtd"
   xmlns:inkscape="http://www.inkscape.org/namespaces/inkscape"
   xml:space="preserve"
   width="1000"
   height="1000"
   version="1.1"
   style="clip-rule:evenodd;fill-rule:evenodd;image-rendering:optimizeQuality;shape-rendering:geometricPrecision;text-rendering:geometricPrecision"
   viewBox="0 0 1000 1000"
   id="svg10"
   sodipodi:docname="കൃ.svg"
   inkscape:version="1.0.2 (e86c870879, 2021-01-15)"><metadata
   id="metadata14"><rdf:RDF><cc:Work
       rdf:about=""><dc:format>image/svg+xml</dc:format><dc:type
         rdf:resource="http://purl.org/dc/dcmitype/StillImage" /><dc:title /></cc:Work></rdf:RDF></metadata><sodipodi:namedview
   pagecolor="#ffffff"
   bordercolor="#666666"
   borderopacity="1"
   objecttolerance="10"
   gridtolerance="10"
   guidetolerance="10"
   inkscape:pageopacity="0"
   inkscape:pageshadow="2"
   inkscape:window-width="1920"
   inkscape:window-height="1007"
   id="namedview12"
   showgrid="false"
   inkscape:zoom="0.9588368"
   inkscape:cx="315.44364"
   inkscape:cy="547.05598"
   inkscape:window-x="1920"
   inkscape:window-y="0"
   inkscape:window-maximized="1"
   inkscape:current-layer="svg10"
   showguides="true"
   inkscape:guide-bbox="true"
   inkscape:document-rotation="0"
   inkscape:snap-to-guides="true"><sodipodi:guide
     position="0,1000"
     orientation="0,1"
     id="guide16"
     inkscape:label=""
     inkscape:locked="true"
     inkscape:color="rgb(0,0,255)" /><sodipodi:guide
     position="1763.3122,2036.1693"
     orientation="1000,0"
     id="guide18" /><sodipodi:guide
     position="0,200"
     orientation="0,1"
     id="guide20"
     inkscape:label="base"
     inkscape:locked="true"
     inkscape:color="rgb(0,0,255)" /><inkscape:grid
     type="xygrid"
     id="grid24"
     originx="-473.37552"
     originy="-489.69235" /><sodipodi:guide
     position="0,0"
     orientation="0,1"
     id="guide34"
     inkscape:label="bottom"
     inkscape:locked="true"
     inkscape:color="rgb(0,0,255)" /><sodipodi:guide
     position="225.05109,1693.3186"
     orientation="0,1"
     id="guide44"
     inkscape:label=""
     inkscape:locked="false"
     inkscape:color="rgb(0,0,255)" /><sodipodi:guide
     position="0,900"
     orientation="0,1"
     id="guide46"
     inkscape:label=""
     inkscape:locked="true"
     inkscape:color="rgb(0,0,255)" /><sodipodi:guide
     position="582.52803,539.20595"
     orientation="-1,0"
     id="guide841"
     inkscape:label="width"
     inkscape:locked="false"
     inkscape:color="rgb(0,0,255)" /><sodipodi:guide
     position="0,1000"
     orientation="0,1000"
     id="guide860" /><sodipodi:guide
     position="1000,1000"
     orientation="1000,0"
     id="guide862" /><sodipodi:guide
     position="1000,0"
     orientation="0,-1000"
     id="guide864" /><sodipodi:guide
     position="0,0"
     orientation="-1000,0"
     id="guide866" /></sodipodi:namedview>
 <defs
   id="defs4"><inkscape:path-effect
   effect="fillet_chamfer"
   id="path-effect855"
   is_visible="true"
   lpeversion="1"
   satellites_param="F,0,0,1,0,0,0,1 @ F,0,0,1,0,0,0,1 @ F,0,0,1,0,0,0,1 @ F,0,0,1,0,0,0,1 @ F,0,0,1,0,0,0,1 @ F,0,0,1,0,0,0,1 @ F,0,0,1,0,0,0,1 @ F,0,0,1,0,0,0,1 @ F,0,0,1,0,0,0,1 @ F,0,0,1,0,0,0,1 @ F,0,0,1,0,0,0,1 @ F,0,0,1,0,0,0,1 @ F,0,0,1,0,0,0,1 @ F,0,0,1,0,0,0,1 @ F,0,0,1,0,0,0,1 @ F,0,0,1,0,0,0,1 @ F,0,0,1,0,0,0,1 @ F,0,0,1,0,12.395302,0,1 @ F,0,0,1,0,21.465784,0,1 @ F,0,0,1,0,0,0,1 @ F,0,0,1,0,0,0,1 @ F,0,0,1,0,0,0,1 @ F,0,0,1,0,0,0,1 @ F,0,0,1,0,0,0,1 @ F,0,0,1,0,0,0,1 @ F,0,0,1,0,0,0,1 @ F,0,0,1,0,0,0,1 @ F,0,0,1,0,0,0,1 @ F,0,0,1,0,0,0,1 @ F,0,0,1,0,0,0,1 @ F,0,0,1,0,0,0,1 @ F,0,0,1,0,0,0,1 @ F,0,0,1,0,0,0,1 @ F,0,0,1,0,0,0,1 @ F,0,0,1,0,0,0,1 @ F,0,0,1,0,0,0,1 @ F,0,0,1,0,0,0,1 @ F,0,0,1,0,0,0,1 @ F,0,0,1,0,0,0,1 @ F,0,0,1,0,0,0,1 @ F,0,0,1,0,0,0,1 @ F,0,0,1,0,0,0,1 @ F,0,0,1,0,0,0,1 @ F,0,0,1,0,0,0,1 @ F,0,0,1,0,0,0,1 @ F,0,0,1,0,0,0,1 @ F,0,0,1,0,0,0,1 @ F,0,0,1,0,0,0,1 @ F,0,0,1,0,0,0,1 @ F,0,0,1,0,0,0,1 @ F,0,0,1,0,0,0,1 @ F,0,0,1,0,0,0,1 @ F,0,0,1,0,0,0,1 @ F,0,0,1,0,0,0,1 @ F,0,0,1,0,0,0,1 @ F,0,0,1,0,0,0,1 @ F,0,0,1,0,0,0,1 @ F,0,0,1,0,0,0,1 @ F,0,0,1,0,0,0,1 @ F,0,0,1,0,0,0,1 @ F,0,0,1,0,0,0,1 @ F,0,0,1,0,0,0,1 @ F,0,0,1,0,0,0,1 @ F,0,0,1,0,0,0,1 @ F,0,0,1,0,0,0,1 @ F,0,0,1,0,0,0,1"
   unit="px"
   method="auto"
   mode="F"
   radius="0"
   chamfer_steps="1"
   flexible="false"
   use_knot_distance="true"
   apply_no_radius="true"
   apply_with_radius="true"
   only_selected="true"
   hide_knots="false" /><inkscape:path-effect
   effect="spiro"
   id="path-effect1521"
   is_visible="true"
   lpeversion="1" /><inkscape:path-effect
   effect="spiro"
   id="path-effect858"
   is_visible="true"
   lpeversion="1" /><inkscape:path-effect
   effect="spiro"
   id="path-effect854"
   is_visible="true"
   lpeversion="1" />
  <style
   type="text/css"
   id="style2">
   <![CDATA[
    .fil0 {fill:#EF7F1A;fill-rule:nonzero}
   ]]>
  </style>
 <inkscape:path-effect
   effect="spiro"
   id="path-effect1214"
   is_visible="true"
   lpeversion="1" /><inkscape:path-effect
   effect="spiro"
   id="path-effect1195"
   is_visible="true"
   lpeversion="1" /><inkscape:path-effect
   effect="spiro"
   id="path-effect992"
   is_visible="true"
   lpeversion="1" /><inkscape:path-effect
   effect="spiro"
   id="path-effect287"
   is_visible="true"
   lpeversion="1" /><inkscape:path-effect
   effect="spiro"
   id="path-effect1032"
   is_visible="true"
   lpeversion="1" /><inkscape:path-effect
   effect="spiro"
   id="path-effect1218"
   is_visible="true"
   lpeversion="1" /><inkscape:path-effect
   effect="spiro"
   id="path-effect309"
   is_visible="true"
   lpeversion="1" /><inkscape:path-effect
   effect="spiro"
   id="path-effect1176"
   is_visible="true"
   lpeversion="1" /></defs>
 
<path
   id="path1164-3-3-2-0"
   style="display:inline;fill:#1a1a1a;fill-rule:nonzero;stroke:none;stroke-width:2.83729;stroke-linecap:butt;stroke-linejoin:miter;stroke-miterlimit:4;stroke-dasharray:none;stroke-opacity:1"
   d="m 274.92463,429.63111 c -41.89004,15.73548 -79.49142,41.9826 -110.55286,74.1939 -40.85735,42.36985 -71.25837,97.38759 -73.6866,156.19771 -0.334346,8.09765 -0.13437,16.28166 1.664287,24.18409 1.798657,7.90244 5.276624,15.55165 10.855353,21.43055 4.98205,5.25012 11.47738,8.91815 18.34415,11.20552 6.86677,2.28738 14.11459,3.24644 21.34357,3.602 35.84576,1.76308 71.66472,-11.43384 99.87728,-33.61667 36.17389,-28.44262 59.77638,-70.40928 73.85711,-114.2187 26.14649,-81.34964 21.23181,-172.48788 -14.64189,-250.04096 -10.85588,-23.46863 -25.0172,-46.33375 -46.16674,-61.2107 -10.57476,-7.43847 -22.7962,-12.7067 -35.61627,-14.38076 -12.82006,-1.67406 -26.23495,0.3621 -37.57744,6.5673 -13.79538,7.54711 -23.86323,20.85911 -29.6091,35.49661 -5.74588,14.63749 -7.4711,30.57468 -7.44477,46.29952 0.0828,49.45566 16.94201,97.55509 39.47042,141.58167 12.87608,25.16332 27.97687,49.73855 49.07266,68.55221 8.0627,7.19048 16.93864,13.46726 26.39928,18.68288 5.9932,3.30403 6.86866,9.10256 1.6505,13.53368 l -83.08083,70.55006 c -9.03664,7.67368 -15.50874,4.30883 -15.33957,-7.54298 0.22503,-15.76575 -0.70879,-31.54812 -2.79703,-47.17663 -5.3899,-40.33825 -18.38466,-79.27642 -33.2398,-117.16508 C 95.947644,395.35445 54.677678,314.7204 54.087455,227.71712 c -0.156056,-23.00387 2.724548,-46.47972 12.619434,-67.24733 10.654275,-22.36143 29.467214,-40.78713 52.180801,-50.66843 21.36127,-9.29299 45.69389,-10.971135 68.50588,-6.25132 21.59395,4.4678 41.80062,14.46033 59.73643,27.28868 17.93582,12.82835 33.70796,28.45897 48.3344,44.96131 35.70822,40.28793 65.1328,86.42507 84.26681,136.74489 27.30859,71.81786 33.0168,151.44957 17.90532,226.78355 -16.68272,83.16695 -60.53153,163.04414 -130.27216,211.32767 -35.58938,24.63959 -77.00788,40.51685 -119.74049,47.41882 -23.49113,3.79418 -47.926583,4.86718 -70.769459,-1.79856 C 52.881611,789.28094 31.386335,773.50284 18.429657,752.15438 2.2269033,725.45743 0.12725721,692.36216 3.9943525,661.37342 10.042722,612.90517 29.601869,566.62281 57.235857,526.3473 84.869846,486.0718 120.41522,451.61773 159.42606,422.22542 c 25.8819,-19.50045 53.34546,-36.86393 81.77715,-52.41318 31.93446,-17.46491 65.31859,-32.72929 100.56537,-41.81212 35.24678,-9.08283 72.53168,-11.82421 108.14413,-4.30179 35.09448,7.41301 68.51894,25.28068 91.35627,52.93989 20.4219,24.73378 31.5977,56.14467 35.98871,87.91782 4.39101,31.77314 2.35112,64.09101 -1.30911,95.95661 -10.70372,93.18566 -35.47317,185.25288 -78.32389,268.6912 -12.55197,24.44102 -26.70202,48.20956 -44.3001,69.30987 -17.59809,21.1003 -38.78313,39.52781 -63.37568,51.78024 -24.67834,12.29517 -52.4079,18.12108 -79.97837,17.87395 -23.07447,-0.20683 -46.43129,-4.73604 -66.6875,-15.78865 -20.2562,-11.05261 -37.199,-29.0236 -44.47549,-50.9217 -4.35433,-13.10404 -5.17925,-27.29559 -2.90473,-40.91553 2.27452,-13.61993 7.60375,-26.66543 15.06161,-38.28681 14.91571,-23.24276 37.99474,-40.41133 63.05446,-52.01801 40.00129,-18.52703 85.07745,-23.69548 129.13825,-22.28118 34.7236,1.11459 69.31927,6.16779 102.91097,15.03165 l -52.10119,82.51448 c -37.57417,-18.05869 -77.73273,-30.72963 -118.86698,-37.50523 -20.54362,-3.38393 -42.34249,-5.16746 -61.55705,2.85077 -9.60728,4.00912 -18.31405,10.51447 -24.05303,19.19991 -5.73897,8.68545 -8.31655,19.61992 -6.08696,29.78858 1.98391,9.04814 7.66375,17.09349 15.08361,22.63878 7.41987,5.54529 16.4862,8.67756 25.69242,9.70235 18.41244,2.04957 36.73196,-4.04545 53.76335,-11.33589 44.41953,-19.01418 85.44718,-47.26774 115.54402,-85.0674 43.5609,-54.70964 61.74289,-126.2948 62.76781,-196.2208 0.34736,-23.69888 -1.15987,-47.56619 -6.84478,-70.57573 -5.68492,-23.00954 -15.69035,-45.20562 -31.0323,-63.27166 -22.05226,-25.96782 -54.28831,-42.15608 -87.79252,-48.32844 -38.59841,-7.11084 -78.91859,-1.54771 -115.65988,12.25371 z"
   sodipodi:nodetypes="aaaaaaaaaaaaccaaaaaaaaacaaaaaaaaaaaaaaaccaaaaaaaa"
   inkscape:path-effect="#path-effect1521;#path-effect855"
   inkscape:original-d="m 274.92463,429.63111 c -41.71543,15.1477 -81.61549,40.54485 -110.55286,74.1939 -37.53647,43.64829 -68.715234,98.84402 -73.6866,156.19771 -1.36158,15.70828 1.87893,33.97937 12.51964,45.61464 9.5291,10.41977 25.56954,14.57854 39.68772,14.80752 35.12301,0.56966 72.1425,-12.05902 99.87728,-33.61667 35.79726,-27.82444 62.29967,-70.3773 73.85711,-114.2187 21.28243,-80.73165 29.17457,-178.97297 -14.64189,-250.04096 -24.1206,-39.12235 -75.59886,-83.06995 -119.36045,-69.02416 -28.50048,9.14756 -34.75926,51.9517 -37.05387,81.79613 -3.75581,48.84935 18.31095,97.39297 39.47042,141.58167 12.1368,25.34608 28.72749,49.16665 49.07266,68.55221 10.7692,10.26127 19.59306,23.94459 37.4981,24.1933 l -108.89144,92.46775 c 4.99065,-21.21945 1.67059,-45.99588 -1.77431,-68.61404 -6.1126,-40.13348 -21.93692,-78.17399 -33.2398,-117.16508 -24.06573,-83.01858 -69.196849,-162.31604 -73.618885,-248.63921 -1.166796,-22.77718 1.829528,-47.15406 12.619434,-67.24733 11.469918,-21.35961 30.152029,-40.54297 52.180801,-50.66843 20.83463,-9.57658 46.28374,-11.90545 68.50588,-6.25132 41.99451,10.68495 78.00264,41.04725 108.07083,72.24999 37.15202,38.55387 67.65184,85.8468 84.26681,136.74489 23.53154,72.0862 35.69574,153.07023 17.90532,226.78355 -19.41432,80.44182 -74.22268,164.44285 -130.27216,211.32767 -33.55572,27.69657 -77.47306,39.90948 -119.74049,47.41882 -23.23361,4.12774 -48.492444,5.98435 -70.769459,-1.79856 C 53.815526,788.22732 30.994368,773.07582 18.429657,752.15438 2.6543135,725.88694 -2.372589,691.34511 3.9943525,661.37342 23.750154,568.37512 91.98541,489.23836 159.42606,422.22542 c 22.96697,-22.82131 51.87694,-39.99259 81.77715,-52.41318 65.79666,-27.33201 138.30358,-57.03383 208.7095,-46.11391 34.7798,5.39432 71.02096,24.21345 91.35627,52.93989 36.03729,50.90765 37.71052,121.57604 34.6796,183.87443 -4.53343,93.1812 -33.16965,187.05553 -78.32389,268.6912 -26.14311,47.26489 -61.12528,93.69517 -107.67578,121.09011 -23.54283,13.85494 -53.01155,22.23456 -79.97837,17.87395 -42.66042,-6.89833 -100.26572,-24.89232 -111.16299,-66.71035 -12.71312,-48.78629 33.90562,-102.31425 75.21134,-131.22035 35.78899,-25.04544 85.45978,-21.71734 129.13825,-22.28118 34.66477,-0.44748 102.91097,15.03165 102.91097,15.03165 l -52.10119,82.51448 c 0,0 -77.54559,-41.83705 -118.86698,-37.50523 -34.92061,3.66081 -96.873,17.11088 -91.69704,51.83926 4.75873,31.92892 62.95358,27.67148 94.53938,21.00524 46.79624,-9.87643 87.64278,-46.22217 115.54402,-85.0674 40.06159,-55.77536 61.6066,-127.55877 62.76781,-196.2208 0.78407,-46.36122 -9.02232,-97.55165 -37.87708,-133.84739 -20.78809,-26.14886 -55.04547,-41.73011 -87.79252,-48.32844 -38.00524,-7.65782 -79.21893,-0.97873 -115.65988,12.25371 z" /></svg>
