<?xml version="1.0" encoding="UTF-8" standalone="no"?>
<svg
   xmlns:dc="http://purl.org/dc/elements/1.1/"
   xmlns:cc="http://creativecommons.org/ns#"
   xmlns:rdf="http://www.w3.org/1999/02/22-rdf-syntax-ns#"
   xmlns:svg="http://www.w3.org/2000/svg"
   xmlns="http://www.w3.org/2000/svg"
   xmlns:sodipodi="http://sodipodi.sourceforge.net/DTD/sodipodi-0.dtd"
   xmlns:inkscape="http://www.inkscape.org/namespaces/inkscape"
   xml:space="preserve"
   width="1000"
   height="1000"
   version="1.1"
   style="clip-rule:evenodd;fill-rule:evenodd;image-rendering:optimizeQuality;shape-rendering:geometricPrecision;text-rendering:geometricPrecision"
   viewBox="0 0 1000 1000"
   id="svg10"
   sodipodi:docname="ക്ഷ.svg"
   inkscape:version="1.0.1 (3bc2e813f5, 2020-09-07)"><metadata
   id="metadata14"><rdf:RDF><cc:Work
       rdf:about=""><dc:format>image/svg+xml</dc:format><dc:type
         rdf:resource="http://purl.org/dc/dcmitype/StillImage" /><dc:title /></cc:Work></rdf:RDF></metadata><sodipodi:namedview
   pagecolor="#ffffff"
   bordercolor="#666666"
   borderopacity="1"
   objecttolerance="10"
   gridtolerance="10"
   guidetolerance="10"
   inkscape:pageopacity="0"
   inkscape:pageshadow="2"
   inkscape:window-width="1920"
   inkscape:window-height="1015"
   id="namedview12"
   showgrid="false"
   inkscape:zoom="0.4794184"
   inkscape:cx="656.45748"
   inkscape:cy="362.98052"
   inkscape:window-x="1920"
   inkscape:window-y="0"
   inkscape:window-maximized="1"
   inkscape:current-layer="svg10"
   showguides="true"
   inkscape:guide-bbox="true"
   inkscape:document-rotation="0"
   inkscape:snap-to-guides="true"><sodipodi:guide
     position="0,1000"
     orientation="0,1"
     id="guide16"
     inkscape:label=""
     inkscape:locked="true"
     inkscape:color="rgb(0,0,255)" /><sodipodi:guide
     position="1763.3122,2036.1693"
     orientation="1000,0"
     id="guide18" /><sodipodi:guide
     position="0,200"
     orientation="0,1"
     id="guide20"
     inkscape:label="base"
     inkscape:locked="true"
     inkscape:color="rgb(0,0,255)" /><inkscape:grid
     type="xygrid"
     id="grid24"
     originx="-473.37552"
     originy="-489.69235" /><sodipodi:guide
     position="0,0"
     orientation="0,1"
     id="guide34"
     inkscape:label="bottom"
     inkscape:locked="true"
     inkscape:color="rgb(0,0,255)" /><sodipodi:guide
     position="225.05109,1693.3186"
     orientation="0,1"
     id="guide44"
     inkscape:label=""
     inkscape:locked="false"
     inkscape:color="rgb(0,0,255)" /><sodipodi:guide
     position="0,900"
     orientation="0,1"
     id="guide46"
     inkscape:label=""
     inkscape:locked="true"
     inkscape:color="rgb(0,0,255)" /><sodipodi:guide
     position="1073.074,960.57578"
     orientation="-1,0"
     id="guide841"
     inkscape:label="width"
     inkscape:locked="false"
     inkscape:color="rgb(0,0,255)" /><sodipodi:guide
     position="0,1000"
     orientation="0,1000"
     id="guide860" /><sodipodi:guide
     position="1000,1000"
     orientation="1000,0"
     id="guide862" /><sodipodi:guide
     position="1000,0"
     orientation="0,-1000"
     id="guide864" /><sodipodi:guide
     position="0,0"
     orientation="-1000,0"
     id="guide866" /></sodipodi:namedview>
 <defs
   id="defs4"><inkscape:path-effect
   effect="spiro"
   id="path-effect1521"
   is_visible="true"
   lpeversion="1" /><inkscape:path-effect
   effect="spiro"
   id="path-effect858"
   is_visible="true"
   lpeversion="1" /><inkscape:path-effect
   effect="spiro"
   id="path-effect854"
   is_visible="true"
   lpeversion="1" />
  <style
   type="text/css"
   id="style2">
   <![CDATA[
    .fil0 {fill:#EF7F1A;fill-rule:nonzero}
   ]]>
  </style>
 <inkscape:path-effect
   effect="spiro"
   id="path-effect1214"
   is_visible="true"
   lpeversion="1" /><inkscape:path-effect
   effect="spiro"
   id="path-effect1195"
   is_visible="true"
   lpeversion="1" /><inkscape:path-effect
   effect="spiro"
   id="path-effect992"
   is_visible="true"
   lpeversion="1" /><inkscape:path-effect
   effect="spiro"
   id="path-effect287"
   is_visible="true"
   lpeversion="1" /><inkscape:path-effect
   effect="spiro"
   id="path-effect1032"
   is_visible="true"
   lpeversion="1" /><inkscape:path-effect
   effect="spiro"
   id="path-effect1218"
   is_visible="true"
   lpeversion="1" /><inkscape:path-effect
   effect="spiro"
   id="path-effect309"
   is_visible="true"
   lpeversion="1" /><inkscape:path-effect
   effect="spiro"
   id="path-effect1176"
   is_visible="true"
   lpeversion="1" /><inkscape:path-effect
   effect="spiro"
   id="path-effect1247"
   is_visible="true"
   lpeversion="1" /></defs>
 
<path
   style="display:inline;fill:#1a1a1a;fill-rule:nonzero;stroke:none;stroke-width:1.97338px;stroke-linecap:butt;stroke-linejoin:miter;stroke-opacity:1"
   d="m 593.88426,491.99155 c 18.77725,35.79187 31.55694,75.3473 32.15507,115.76122 0.49562,33.48794 -7.49618,67.06786 -23.02405,96.74231 73.35983,7.67513 146.9595,13.05758 220.65543,16.13687 29.40148,1.2285 58.93721,2.08623 88.1843,-1.16402 5.92432,-0.65838 11.87736,-1.49592 17.50248,-3.46801 5.62511,-1.97209 10.95287,-5.16094 14.64251,-9.84257 2.96123,-3.75739 4.75645,-8.32829 5.79175,-12.99894 1.0353,-4.67065 1.34521,-9.46836 1.59165,-14.24603 2.45226,-47.54176 -1.07138,-95.15787 -3.5603,-142.69772 -2.43445,-46.49939 -3.87985,-93.05055 -4.3349,-139.6114 -38.14513,12.28565 -77.15409,21.88843 -116.64334,28.71393 -81.52407,14.09098 -168.58795,15.59978 -243.5562,-19.39296 -46.10383,-21.51977 -86.23774,-56.99318 -109.87035,-102.05052 -15.7181,-29.96772 -23.9785,-65.15936 -15.89299,-98.01887 4.37746,-17.79002 13.4091,-34.29775 25.30055,-48.23477 11.89146,-13.93701 26.59332,-25.34906 42.58206,-34.29374 39.26062,-21.96383 86.19332,-28.826426 130.66532,-22.04064 59.41286,9.06554 114.74263,42.59344 150.15779,91.15102 26.52494,36.36823 41.80852,80.23885 47.47745,124.89401 5.66894,44.65517 2.00752,90.14148 -6.89454,134.26601 -10.63237,52.70107 -28.65994,103.74624 -38.17353,156.66072 -8.54018,47.50036 -10.11581,96.24705 -4.66095,144.19977 l -123.18481,-4.64971 c 10.11493,-57.64199 24.85614,-114.47152 44.03525,-169.76233 20.22317,-58.30071 45.45174,-115.17433 58.34852,-175.52019 7.19831,-33.68189 10.24691,-69.87795 -2.98762,-101.67626 -8.40945,-20.20521 -23.03488,-37.46275 -40.29853,-50.914 -17.26364,-13.45124 -37.12283,-23.262 -57.59592,-30.99647 -25.67411,-9.69935 -52.97639,-16.30674 -80.38211,-14.83578 -13.54854,0.72719 -27.19813,3.50837 -39.09602,10.03001 -11.89789,6.52165 -21.93156,17.07394 -26.01956,30.01148 -2.33635,7.39399 -2.68445,15.36036 -1.37211,23.00283 1.31235,7.64247 4.25742,14.96419 8.28099,21.59295 8.04714,13.25751 20.20729,23.5663 33.21209,32.01576 20.34578,13.21903 43.1465,22.40114 66.61554,28.55724 60.41361,15.84693 125.23263,11.60194 184.737,-7.37591 22.36801,-7.13388 44.03794,-16.28102 65.5165,-25.76214 25.31898,-11.17637 50.89549,-23.14688 71.13472,-42.02373 11.28546,-10.52579 20.83601,-23.1324 33.82379,-31.46735 6.49391,-4.16748 13.85091,-7.19298 21.54151,-7.82038 7.6906,-0.62739 15.7293,1.29708 21.7589,6.11194 5.3904,4.3045 8.8856,10.62793 10.8876,17.22926 2.002,6.60134 2.6264,13.53158 3.1451,20.41028 5.8764,77.92752 -0.4268,156.21586 0.1517,234.36249 0.5642,76.21723 7.6562,152.84466 -2.3986,228.39786 -1.296,9.73802 -2.8928,19.50763 -6.2463,28.74138 -3.3536,9.23376 -8.5783,17.97697 -16.1514,24.23449 -8.7307,7.21404 -20.0551,10.69454 -31.3246,11.82001 -11.26949,1.12548 -22.62775,0.0637 -33.9142,-0.87666 -51.98996,-4.33183 -104.16179,-6.08534 -156.32174,-7.11483 -118.50158,-2.33889 -237.07675,-0.94748 -355.49081,4.17148 l -6.13736,-126.11395 c 17.42918,-3.30878 33.69097,-12.48557 45.53304,-25.69502 10.45833,-11.66593 17.38627,-26.20993 21.42736,-41.3473 4.0411,-15.13738 5.29638,-30.89784 5.34481,-46.56526 0.0595,-19.2349 -1.71111,-38.64534 -7.56333,-56.96845 -5.85222,-18.32312 -15.99063,-35.57972 -30.73494,-47.93247 -21.32369,-17.86495 -50.04034,-23.96843 -77.73043,-26.63586 -37.86493,-3.64759 -76.53239,-1.92277 -113.16734,8.32117 -42.89772,11.99515 -82.29488,35.61946 -114.14187,66.76215 -42.16687,41.23434 -71.469,97.26217 -73.6866,156.19771 -0.30465,8.09645 -0.10062,16.27602 1.69236,24.17732 1.79298,7.90131 5.25623,15.55439 10.82728,21.43732 4.97712,5.25575 11.4732,8.92611 18.34097,11.21267 6.86777,2.28656 14.11694,3.2421 21.34675,3.59485 35.84523,1.74894 71.662,-11.43927 99.87728,-33.61667 36.17932,-28.43718 59.78648,-70.40507 73.85711,-114.2187 26.12515,-81.34942 21.14975,-172.45739 -14.64189,-250.04096 -10.83894,-23.49497 -24.97863,-46.39831 -46.13585,-61.29357 -10.57861,-7.44762 -22.81085,-12.71845 -35.641,-14.38014 -12.83016,-1.6617 -26.25411,0.40322 -37.5836,6.64955 -13.75692,7.58465 -23.75841,20.92075 -29.48021,35.55087 -5.7218,14.63013 -7.46945,30.53638 -7.57366,46.24526 -0.32867,49.54311 15.29358,98.33692 39.47042,141.58167 16.86036,30.15788 38.13233,58.21397 65.03005,79.89997 11.60172,9.35376 24.19399,17.47814 37.4981,24.1933 L 174.31787,697.90969 c 0.74096,-22.87993 0.14819,-45.80298 -1.77431,-68.61404 -4.32045,-51.2634 -15.37144,-101.90297 -31.9947,-150.58838 C 126.50615,437.57963 108.5331,397.89935 93.786837,357.01869 79.040576,316.13803 67.456884,273.52382 66.92997,230.06806 c -0.278984,-23.00842 2.690617,-46.48959 12.61944,-67.24733 10.686923,-22.34267 29.47395,-40.77884 52.1808,-50.66843 21.35803,-9.30213 45.69391,-10.9746 68.50588,-6.25132 21.59307,4.47091 41.79891,14.46362 59.73485,27.29138 17.93595,12.82777 33.709,28.45706 48.33598,44.95861 35.70995,40.2865 65.13316,86.42486 84.26681,136.74489 27.30807,71.81812 33.01854,151.44987 17.90532,226.78355 -16.68449,83.16586 -60.53714,163.0373 -130.27216,211.32767 -35.58734,24.64365 -77.0052,40.52943 -119.74049,47.41882 -23.4912,3.78704 -47.92189,4.84724 -70.76946,-1.79856 C 65.712085,791.65073 44.16502,775.89974 31.27218,754.50532 15.166519,727.77954 13.361051,694.73369 16.83687,663.72436 27.576339,567.91278 85.217094,480.8332 162.44642,423.11989 c 28.07939,-20.98367 58.82066,-38.53388 91.59931,-50.95671 60.26947,-22.84163 128.05564,-27.70076 189.65167,-8.72503 38.68825,11.91859 74.6148,33.1454 102.92251,62.08511 19.07793,19.50386 34.58937,42.30814 47.26435,66.46829 z"
   id="path1216-0"
   inkscape:path-effect="#path-effect1247"
   inkscape:original-d="m 593.88426,491.99155 c 17.22209,36.15585 31.40835,75.72014 32.15507,115.76122 0.61806,33.14236 -23.02405,96.74231 -23.02405,96.74231 0,0 146.94016,13.93203 220.65543,16.13687 29.38419,0.87889 59.38997,4.75962 88.1843,-1.16402 11.3594,-2.33688 24.48548,-4.60261 32.14499,-13.31058 6.2144,-7.06505 6.2584,-17.90323 7.3834,-27.24497 5.68889,-47.23939 -2.22858,-95.13565 -3.5603,-142.69772 -1.30314,-46.54132 -4.3349,-139.6114 -4.3349,-139.6114 -50.44388,22.74398 -76.73262,25.47582 -116.64334,28.71393 -81.17561,6.58608 -168.99371,13.36817 -243.5562,-19.39296 -45.76179,-20.10674 -86.27982,-57.98342 -109.87035,-102.05052 -15.6217,-29.18133 -24.52357,-66.06421 -15.89299,-98.01887 9.28773,-34.38773 37.05602,-64.68195 67.88261,-82.52851 38.22644,-22.13059 87.28343,-30.349409 130.66532,-22.04064 57.50754,11.0142 117.56785,42.50612 150.15779,91.15102 48.66797,72.64353 44.2403,171.79711 40.58291,259.16002 -2.24816,53.70114 -30.90429,103.40638 -38.17353,156.66072 -6.50422,47.64983 -4.66095,144.19977 -4.66095,144.19977 l -123.18481,-4.64971 c 0,0 27.46584,-113.69942 44.03525,-169.76233 17.47487,-59.12656 49.39216,-114.51933 58.34852,-175.52019 4.9255,-33.54705 11.81307,-71.17044 -2.98762,-101.67626 -18.57252,-38.27996 -59.39266,-63.80229 -97.89445,-81.91047 -24.65576,-11.59611 -53.59749,-19.8318 -80.38211,-14.83578 -25.04861,4.67221 -58.35534,15.47401 -65.11558,40.04149 -7.6481,27.79404 18.96341,57.03196 40.12097,76.61154 17.73181,16.40933 42.85741,24.17156 66.61554,28.55724 60.60414,11.18735 124.42806,5.30677 184.737,-7.37591 22.96423,-4.82927 44.42839,-15.468 65.5165,-25.76214 24.74887,-12.08114 46.57975,-29.55322 71.13472,-42.02373 24.95219,-12.67224 51.3899,-44.17316 77.1242,-33.17579 12.3129,5.26183 12.7114,25.22923 14.0327,37.63954 8.4297,79.1779 0.5366,156.24259 0.1517,234.36249 -0.3751,76.13589 13.119,153.85914 -2.3986,228.39786 -3.9075,18.76961 -7.3524,41.09291 -22.3977,52.97587 -17.3039,13.66681 -43.22886,9.61329 -65.2388,10.94335 -52.06621,3.14636 -104.16798,-6.23468 -156.32174,-7.11483 -118.48822,-1.9996 -355.49081,4.17148 -355.49081,4.17148 l -6.13736,-126.11395 c 0,0 34.62464,-12.10355 45.53304,-25.69502 19.17394,-23.89005 27.60597,-57.29102 26.77217,-87.91256 -1.01322,-37.21069 -11.71567,-78.84276 -38.29827,-104.90092 -19.55903,-19.17315 -50.56663,-23.12967 -77.73043,-26.63586 -37.51308,-4.84203 -77.04723,-2.90443 -113.16734,8.32117 -42.09173,13.08149 -84.3827,34.24706 -114.14187,66.76215 -38.86773,42.46716 -68.71523,98.84402 -73.6866,156.19771 -1.36158,15.70828 1.87893,33.97937 12.51964,45.61464 9.5291,10.41977 25.56954,14.57854 39.68772,14.80752 35.12301,0.56966 72.1425,-12.05902 99.87728,-33.61667 35.79726,-27.82444 62.29967,-70.3773 73.85711,-114.2187 21.28243,-80.73165 29.17457,-178.97297 -14.64189,-250.04096 -24.1206,-39.12235 -75.59886,-83.06995 -119.36045,-69.02416 -28.50048,9.14756 -34.75926,51.9517 -37.05387,81.79613 -3.75581,48.84935 16.9542,98.06863 39.47042,141.58167 15.78166,30.49839 46.47727,68.09313 65.03005,79.89997 15.69129,9.98592 19.59306,23.94459 37.4981,24.1933 L 174.31787,697.90969 c 4.99065,-21.21945 -0.76369,-38.18391 -1.77431,-68.61404 C 171.38059,608.48076 153.17553,528.44617 140.54886,478.70727 119.28082,394.92831 71.35201,316.39123 66.92997,230.06806 65.76318,207.29088 68.7595,182.914 79.54941,162.82073 c 11.46992,-21.35961 30.15203,-40.54297 52.1808,-50.66843 20.83463,-9.57658 46.28374,-11.90545 68.50588,-6.25132 41.99451,10.68495 78.00264,41.04725 108.07083,72.24999 37.15202,38.55387 67.65184,85.8468 84.26681,136.74489 23.53154,72.0862 35.69574,153.07023 17.90532,226.78355 -19.41432,80.44182 -74.22268,164.44285 -130.27216,211.32767 -33.55572,27.69657 -77.47306,39.90948 -119.74049,47.41882 -23.23361,4.12774 -48.49244,5.98435 -70.76946,-1.79856 C 66.65805,790.57826 43.83689,775.42676 31.27218,754.50532 15.49683,728.23788 10.95195,693.79441 16.83687,663.72436 34.84182,571.72493 94.9585,488.18488 162.44642,423.11989 c 25.15347,-24.25042 57.98982,-41.40776 91.59931,-50.95671 60.87482,-17.29543 128.31005,-24.28401 189.65167,-8.72503 38.83626,9.85061 73.54466,34.84119 102.92251,62.08511 19.9341,18.48614 35.57318,41.92399 47.26435,66.46829 z"
   sodipodi:nodetypes="aacaaaaacaaaaaaaaaccaaaaaaaaaaaacaaaaaccaaaaaaaaaaaaaaascccaaaaaaaacaaaaaaaaa" /></svg>
