<?xml version="1.0" encoding="UTF-8" standalone="no"?>
<svg
   xmlns:dc="http://purl.org/dc/elements/1.1/"
   xmlns:cc="http://creativecommons.org/ns#"
   xmlns:rdf="http://www.w3.org/1999/02/22-rdf-syntax-ns#"
   xmlns:svg="http://www.w3.org/2000/svg"
   xmlns="http://www.w3.org/2000/svg"
   xmlns:sodipodi="http://sodipodi.sourceforge.net/DTD/sodipodi-0.dtd"
   xmlns:inkscape="http://www.inkscape.org/namespaces/inkscape"
   xml:space="preserve"
   width="1000"
   height="1000"
   version="1.1"
   style="clip-rule:evenodd;fill-rule:evenodd;image-rendering:optimizeQuality;shape-rendering:geometricPrecision;text-rendering:geometricPrecision"
   viewBox="0 0 1000 1000"
   id="svg10"
   sodipodi:docname="ക്ഷ.svg"
   inkscape:version="1.0.2 (e86c870879, 2021-01-15)"><metadata
   id="metadata14"><rdf:RDF><cc:Work
       rdf:about=""><dc:format>image/svg+xml</dc:format><dc:type
         rdf:resource="http://purl.org/dc/dcmitype/StillImage" /><dc:title /></cc:Work></rdf:RDF></metadata><sodipodi:namedview
   pagecolor="#ffffff"
   bordercolor="#666666"
   borderopacity="1"
   objecttolerance="10"
   gridtolerance="10"
   guidetolerance="10"
   inkscape:pageopacity="0"
   inkscape:pageshadow="2"
   inkscape:window-width="1920"
   inkscape:window-height="1007"
   id="namedview12"
   showgrid="false"
   inkscape:zoom="0.678"
   inkscape:cx="762.78041"
   inkscape:cy="511.73357"
   inkscape:window-x="1920"
   inkscape:window-y="0"
   inkscape:window-maximized="1"
   inkscape:current-layer="svg10"
   showguides="true"
   inkscape:guide-bbox="true"
   inkscape:document-rotation="0"
   inkscape:snap-to-guides="true"><sodipodi:guide
     position="0,1000"
     orientation="0,1"
     id="guide16"
     inkscape:label=""
     inkscape:locked="true"
     inkscape:color="rgb(0,0,255)" /><sodipodi:guide
     position="1763.3122,2036.1693"
     orientation="1000,0"
     id="guide18" /><sodipodi:guide
     position="0,200"
     orientation="0,1"
     id="guide20"
     inkscape:label="base"
     inkscape:locked="true"
     inkscape:color="rgb(0,0,255)" /><inkscape:grid
     type="xygrid"
     id="grid24"
     originx="-473.37552"
     originy="-489.69235" /><sodipodi:guide
     position="0,0"
     orientation="0,1"
     id="guide34"
     inkscape:label="bottom"
     inkscape:locked="true"
     inkscape:color="rgb(0,0,255)" /><sodipodi:guide
     position="225.05109,1693.3186"
     orientation="0,1"
     id="guide44"
     inkscape:label=""
     inkscape:locked="false"
     inkscape:color="rgb(0,0,255)" /><sodipodi:guide
     position="0,900"
     orientation="0,1"
     id="guide46"
     inkscape:label=""
     inkscape:locked="true"
     inkscape:color="rgb(0,0,255)" /><sodipodi:guide
     position="1042.1993,957.26669"
     orientation="-1,0"
     id="guide841"
     inkscape:label="width"
     inkscape:locked="false"
     inkscape:color="rgb(0,0,255)" /><sodipodi:guide
     position="0,1000"
     orientation="0,1000"
     id="guide860" /><sodipodi:guide
     position="1000,1000"
     orientation="1000,0"
     id="guide862" /><sodipodi:guide
     position="1000,0"
     orientation="0,-1000"
     id="guide864" /><sodipodi:guide
     position="0,0"
     orientation="-1000,0"
     id="guide866" /></sodipodi:namedview>
 <defs
   id="defs4"><inkscape:path-effect
   effect="fillet_chamfer"
   id="path-effect857"
   is_visible="true"
   lpeversion="1"
   satellites_param="F,0,0,1,0,0,0,1 @ F,0,0,1,0,0,0,1 @ F,0,0,1,0,0,0,1 @ F,0,0,1,0,0,0,1 @ F,0,0,1,0,0,0,1 @ F,0,0,1,0,0,0,1 @ F,0,0,1,0,0,0,1 @ F,0,0,1,0,0,0,1 @ F,0,0,1,0,0,0,1 @ F,0,0,1,0,0,0,1 @ F,0,0,1,0,0,0,1 @ F,0,0,1,0,0,0,1 @ F,0,0,1,0,0,0,1 @ F,0,0,1,0,0,0,1 @ F,0,0,1,0,0,0,1 @ F,0,0,1,0,0,0,1 @ F,0,0,1,0,0,0,1 @ F,0,0,1,0,0,0,1 @ F,0,0,1,0,0,0,1 @ F,0,0,1,0,0,0,1 @ F,0,0,1,0,0,0,1 @ F,0,0,1,0,0,0,1 @ F,0,0,1,0,0,0,1 @ F,0,0,1,0,0,0,1 @ F,0,0,1,0,0,0,1 @ F,0,0,1,0,0,0,1 @ F,0,0,1,0,0,0,1 @ F,0,0,1,0,0,0,1 @ F,0,0,1,0,0,0,1 @ F,0,0,1,0,0,0,1 @ F,0,0,1,0,0,0,1 @ F,0,0,1,0,0,0,1 @ F,0,0,1,0,0,0,1 @ F,0,0,1,0,0,0,1 @ F,0,0,1,0,0,0,1 @ F,0,0,1,0,0,0,1 @ F,0,0,1,0,0,0,1 @ F,0,0,1,0,0,0,1 @ F,0,0,1,0,0,0,1 @ F,0,0,1,0,0,0,1 @ F,0,0,1,0,0,0,1 @ F,0,0,1,0,0,0,1 @ F,0,0,1,0,0,0,1 @ F,0,0,1,0,0,0,1 @ F,0,0,1,0,0,0,1 @ F,0,0,1,0,0,0,1 @ F,0,0,1,0,0,0,1 @ F,0,0,1,0,0,0,1 @ F,0,0,1,0,15.558368,0,1 @ F,0,0,1,0,19.968363,0,1 @ F,0,0,1,0,0,0,1 @ F,0,0,1,0,0,0,1 @ F,0,0,1,0,0,0,1 @ F,0,0,1,0,0,0,1 @ F,0,0,1,0,0,0,1 @ F,0,0,1,0,0,0,1 @ F,0,0,1,0,0,0,1 @ F,0,0,1,0,0,0,1 @ F,0,0,1,0,0,0,1 @ F,0,0,1,0,0,0,1 @ F,0,0,1,0,0,0,1 @ F,0,0,1,0,0,0,1 @ F,0,0,1,0,0,0,1 @ F,0,0,1,0,0,0,1 @ F,0,0,1,0,0,0,1 @ F,0,0,1,0,0,0,1 @ F,0,0,1,0,0,0,1 @ F,0,0,1,0,0,0,1 @ F,0,0,1,0,0,0,1 @ F,0,0,1,0,0,0,1 @ F,0,0,1,0,0,0,1 @ F,0,0,1,0,0,0,1 @ F,0,0,1,0,28.447379,0,1 @ F,0,0,1,0,24.98704,0,1 @ F,0,0,1,0,0,0,1 @ F,0,0,1,0,0,0,1 @ F,0,0,1,0,0,0,1 @ F,0,0,1,0,0,0,1 @ F,0,0,1,0,0,0,1 @ F,0,0,1,0,0,0,1 @ F,0,0,1,0,0,0,1 @ F,0,0,1,0,0,0,1 @ F,0,0,1,0,0,0,1 @ F,0,0,1,0,0,0,1 @ F,0,0,1,0,0,0,1 @ F,0,0,1,0,0,0,1 @ F,0,0,1,0,0,0,1 @ F,0,0,1,0,0,0,1 @ F,0,0,1,0,0,0,1 @ F,0,0,1,0,0,0,1 @ F,0,0,1,0,0,0,1 @ F,0,0,1,0,0,0,1 @ F,0,0,1,0,0,0,1"
   unit="px"
   method="auto"
   mode="F"
   radius="0"
   chamfer_steps="1"
   flexible="false"
   use_knot_distance="true"
   apply_no_radius="true"
   apply_with_radius="true"
   only_selected="true"
   hide_knots="false" /><inkscape:path-effect
   effect="fillet_chamfer"
   id="path-effect856"
   is_visible="true"
   lpeversion="1"
   satellites_param="F,0,0,1,0,0,0,1 @ F,0,0,1,0,0,0,1 @ F,0,0,1,0,0,0,1 @ F,0,0,1,0,0,0,1 @ F,0,0,1,0,0,0,1 @ F,0,0,1,0,0,0,1 @ F,0,0,1,0,0,0,1 @ F,0,0,1,0,0,0,1 @ F,0,0,1,0,0,0,1 @ F,0,0,1,0,0,0,1 @ F,0,0,1,0,0,0,1 @ F,0,0,1,0,0,0,1 @ F,0,0,1,0,0,0,1 @ F,0,0,1,0,0,0,1 @ F,0,0,1,0,0,0,1 @ F,0,0,1,0,0,0,1 @ F,0,0,1,0,0,0,1 @ F,0,0,1,0,0,0,1 @ F,0,0,1,0,0,0,1 @ F,0,0,1,0,0,0,1 @ F,0,0,1,0,0,0,1 @ F,0,0,1,0,0,0,1 @ F,0,0,1,0,0,0,1 @ F,0,0,1,0,0,0,1 @ F,0,0,1,0,0,0,1 @ F,0,0,1,0,0,0,1 @ F,0,0,1,0,0,0,1 @ F,0,0,1,0,0,0,1 @ F,0,0,1,0,0,0,1 @ F,0,0,1,0,0,0,1 @ F,0,0,1,0,0,0,1 @ F,0,0,1,0,0,0,1 @ F,0,0,1,0,0,0,1 @ F,0,0,1,0,0,0,1 @ F,0,0,1,0,0,0,1 @ F,0,0,1,0,0,0,1 @ F,0,0,1,0,0,0,1 @ F,0,0,1,0,0,0,1 @ F,0,0,1,0,0,0,1 @ F,0,0,1,0,0,0,1 @ F,0,0,1,0,0,0,1 @ F,0,0,1,0,0,0,1 @ F,0,0,1,0,0,0,1 @ F,0,0,1,0,0,0,1 @ F,0,0,1,0,0,0,1 @ F,0,0,1,0,0,0,1 @ F,0,1,1,0,33.87105,0,1 @ F,0,1,1,0,33.87105,0,1 @ F,0,0,1,0,0,0,1 @ F,0,0,1,0,0,0,1 @ F,0,0,1,0,0,0,1 @ F,0,0,1,0,0,0,1 @ F,0,0,1,0,0,0,1 @ F,0,0,1,0,0,0,1 @ F,0,0,1,0,0,0,1 @ F,0,0,1,0,0,0,1 @ F,0,0,1,0,0,0,1 @ F,0,0,1,0,0,0,1 @ F,0,0,1,0,0,0,1 @ F,0,0,1,0,0,0,1 @ F,0,0,1,0,0,0,1 @ F,0,0,1,0,0,0,1 @ F,0,0,1,0,0,0,1 @ F,0,0,1,0,0,0,1 @ F,0,0,1,0,0,0,1 @ F,0,0,1,0,0,0,1 @ F,0,0,1,0,0,0,1 @ F,0,0,1,0,0,0,1 @ F,0,0,1,0,0,0,1 @ F,0,0,1,0,33.87105,0,1 @ F,0,0,1,0,36.282231,0,1 @ F,0,0,1,0,0,0,1 @ F,0,0,1,0,0,0,1 @ F,0,0,1,0,0,0,1 @ F,0,0,1,0,0,0,1 @ F,0,0,1,0,0,0,1 @ F,0,0,1,0,0,0,1 @ F,0,0,1,0,0,0,1 @ F,0,0,1,0,0,0,1 @ F,0,0,1,0,0,0,1 @ F,0,0,1,0,0,0,1 @ F,0,0,1,0,0,0,1 @ F,0,0,1,0,0,0,1 @ F,0,0,1,0,0,0,1 @ F,0,0,1,0,0,0,1 @ F,0,0,1,0,0,0,1 @ F,0,0,1,0,0,0,1 @ F,0,0,1,0,0,0,1 @ F,0,0,1,0,0,0,1 @ F,0,0,1,0,0,0,1 @ F,0,0,1,0,0,0,1"
   unit="px"
   method="auto"
   mode="F"
   radius="0"
   chamfer_steps="1"
   flexible="false"
   use_knot_distance="true"
   apply_no_radius="true"
   apply_with_radius="true"
   only_selected="true"
   hide_knots="false" /><inkscape:path-effect
   effect="fillet_chamfer"
   id="path-effect855"
   is_visible="true"
   lpeversion="1"
   satellites_param="F,0,0,1,0,0,0,1 @ F,0,0,1,0,0,0,1 @ F,0,0,1,0,0,0,1 @ F,0,0,1,0,0,0,1 @ F,0,0,1,0,0,0,1 @ F,0,0,1,0,0,0,1 @ F,0,0,1,0,0,0,1 @ F,0,0,1,0,0,0,1 @ F,0,0,1,0,0,0,1 @ F,0,0,1,0,0,0,1 @ F,0,0,1,0,0,0,1 @ F,0,0,1,0,0,0,1 @ F,0,0,1,0,0,0,1 @ F,0,0,1,0,0,0,1 @ F,0,0,1,0,0,0,1 @ F,0,0,1,0,0,0,1 @ F,0,0,1,0,0,0,1 @ F,0,0,1,0,0,0,1 @ F,0,0,1,0,0,0,1 @ F,0,0,1,0,0,0,1 @ F,0,0,1,0,0,0,1 @ F,0,0,1,0,0,0,1 @ F,0,0,1,0,0,0,1 @ F,0,0,1,0,0,0,1 @ F,0,0,1,0,0,0,1 @ F,0,0,1,0,0,0,1 @ F,0,0,1,0,0,0,1 @ F,0,0,1,0,0,0,1 @ F,0,0,1,0,0,0,1 @ F,0,0,1,0,0,0,1 @ F,0,0,1,0,0,0,1 @ F,0,0,1,0,0,0,1 @ F,0,0,1,0,0,0,1 @ F,0,0,1,0,0,0,1 @ F,0,0,1,0,0,0,1 @ F,0,0,1,0,0,0,1 @ F,0,0,1,0,0,0,1 @ F,0,0,1,0,0,0,1 @ F,0,0,1,0,0,0,1 @ F,0,0,1,0,28.620653,0,1 @ F,0,0,1,0,0.56827623,0,1 @ F,0,0,1,0,0,0,1 @ F,0,0,1,0,0,0,1 @ F,0,0,1,0,0,0,1 @ F,0,0,1,0,0,0,1 @ F,0,0,1,0,0,0,1 @ F,0,0,1,0,0,0,1 @ F,0,0,1,0,29.469074,0,1 @ F,0,0,1,0,16.112104,0,1 @ F,0,0,1,0,0,0,1 @ F,0,0,1,0,0,0,1 @ F,0,0,1,0,0,0,1 @ F,0,0,1,0,0,0,1 @ F,0,0,1,0,0,0,1 @ F,0,0,1,0,0,0,1 @ F,0,0,1,0,0,0,1 @ F,0,0,1,0,0,0,1 @ F,0,0,1,0,0,0,1 @ F,0,0,1,0,0,0,1 @ F,0,0,1,0,0,0,1 @ F,0,0,1,0,0,0,1 @ F,0,0,1,0,0,0,1 @ F,0,0,1,0,0,0,1 @ F,0,0,1,0,0,0,1 @ F,0,0,1,0,0,0,1 @ F,0,0,1,0,0,0,1 @ F,0,0,1,0,0,0,1 @ F,0,0,1,0,0,0,1 @ F,0,0,1,0,0,0,1 @ F,0,0,1,0,0,0,1 @ F,0,0,1,0,0,0,1 @ F,0,0,1,0,0,0,1 @ F,0,0,1,0,15.058941,0,1 @ F,0,0,1,0,25.700203,0,1 @ F,0,0,1,0,0,0,1 @ F,0,0,1,0,0,0,1 @ F,0,0,1,0,0,0,1 @ F,0,0,1,0,0,0,1 @ F,0,0,1,0,0,0,1 @ F,0,0,1,0,0,0,1 @ F,0,0,1,0,0,0,1 @ F,0,0,1,0,0,0,1 @ F,0,0,1,0,0,0,1 @ F,0,0,1,0,0,0,1 @ F,0,0,1,0,0,0,1 @ F,0,0,1,0,0,0,1 @ F,0,0,1,0,0,0,1 @ F,0,0,1,0,0,0,1 @ F,0,0,1,0,0,0,1 @ F,0,0,1,0,0,0,1 @ F,0,0,1,0,0,0,1 @ F,0,0,1,0,0,0,1 @ F,0,0,1,0,0,0,1 @ F,0,0,1,0,0,0,1"
   unit="px"
   method="auto"
   mode="F"
   radius="0"
   chamfer_steps="1"
   flexible="false"
   use_knot_distance="true"
   apply_no_radius="true"
   apply_with_radius="true"
   only_selected="true"
   hide_knots="true" /><inkscape:path-effect
   effect="spiro"
   id="path-effect1521"
   is_visible="true"
   lpeversion="1" /><inkscape:path-effect
   effect="spiro"
   id="path-effect858"
   is_visible="true"
   lpeversion="1" /><inkscape:path-effect
   effect="spiro"
   id="path-effect854"
   is_visible="true"
   lpeversion="1" />
  <style
   type="text/css"
   id="style2">
   <![CDATA[
    .fil0 {fill:#EF7F1A;fill-rule:nonzero}
   ]]>
  </style>
 <inkscape:path-effect
   effect="spiro"
   id="path-effect1214"
   is_visible="true"
   lpeversion="1" /><inkscape:path-effect
   effect="spiro"
   id="path-effect1195"
   is_visible="true"
   lpeversion="1" /><inkscape:path-effect
   effect="spiro"
   id="path-effect992"
   is_visible="true"
   lpeversion="1" /><inkscape:path-effect
   effect="spiro"
   id="path-effect287"
   is_visible="true"
   lpeversion="1" /><inkscape:path-effect
   effect="spiro"
   id="path-effect1032"
   is_visible="true"
   lpeversion="1" /><inkscape:path-effect
   effect="spiro"
   id="path-effect1218"
   is_visible="true"
   lpeversion="1" /><inkscape:path-effect
   effect="spiro"
   id="path-effect309"
   is_visible="true"
   lpeversion="1" /><inkscape:path-effect
   effect="spiro"
   id="path-effect1176"
   is_visible="true"
   lpeversion="1" /><inkscape:path-effect
   effect="spiro"
   id="path-effect1247"
   is_visible="true"
   lpeversion="1" /></defs>
 
<path
   style="display:inline;fill:#26a269;fill-rule:nonzero;stroke:none;stroke-width:1.97338px;stroke-linecap:butt;stroke-linejoin:miter;stroke-opacity:1"
   d="m 597.79027,485.24255 c 9.47783,32.01763 5.24075,66.99947 -6.83102,98.13193 -12.07178,31.13246 -31.55695,58.85323 -52.77898,84.63274 -31.91371,38.76725 -68.1989,73.93308 -107.94681,104.61675 l -19.94673,-63.61313 c 133.17983,1.67636 266.332,5.55077 399.38398,11.62111 29.40936,1.34177 59.01016,2.78317 88.1843,-1.16402 5.87119,-0.79436 11.74974,-1.8154 17.32104,-3.83097 5.5713,-2.01558 10.85701,-5.07901 14.82395,-9.47961 3.79413,-4.2089 6.26418,-9.53443 7.3735,-15.09138 1.10932,-5.55695 0.88912,-11.33783 -0.29204,-16.87996 -2.36231,-11.08425 -8.43249,-21.01879 -15.1581,-30.14059 -24.41044,-33.10733 -58.25344,-58.11305 -93.6648,-79.04152 -35.41135,-20.92848 -72.84638,-38.27497 -108.22474,-59.25917 -43.57181,-25.84404 -83.74835,-57.04498 -122.27647,-89.93876 -38.01436,-32.45515 -75.28038,-67.58447 -98.33904,-111.93226 -14.03949,-27.00159 -22.46804,-58.3042 -15.89299,-88.01887 3.95879,-17.89101 13.21348,-34.37373 25.26728,-48.17468 12.05379,-13.80095 26.84644,-25.02097 42.61533,-34.35383 C 617.02,94.493639 698.97553,88.931139 772.82606,107.879 c 31.0061,7.95525 61.17749,20.11162 87.51055,38.31147 26.33305,18.19985 48.73818,42.66228 62.06034,71.76871 19.0371,41.59251 18.42137,90.14796 6.60937,134.33874 -11.812,44.19078 -34.07145,84.8108 -57.45396,124.12501 -26.39469,44.37875 -54.75562,88.31329 -70.71624,137.41942 -14.45991,44.48891 -18.21377,92.4172 -10.85665,138.61487 l -123.18481,-4.64971 c 11.10942,-53.48328 28.3153,-105.69774 51.17764,-155.30816 26.62815,-57.78208 60.74084,-111.73276 92.78177,-166.69825 13.40626,-22.99813 26.59451,-46.51345 33.50934,-72.22001 6.91483,-25.70656 7.02813,-54.18728 -5.06423,-77.90261 -8.34091,-16.35806 -22.04098,-29.58499 -37.5907,-39.35039 -15.54972,-9.7654 -32.9404,-16.25631 -50.57713,-21.36539 -24.18212,-7.00517 -49.47212,-11.55015 -74.51897,-9.00002 -25.04684,2.55012 -49.96014,12.78214 -66.7021,31.58518 -8.37581,9.40694 -14.54907,20.79337 -17.66534,32.9972 -3.11627,12.20383 -3.15041,25.20714 0.0974,37.37663 3.82804,14.34374 12.05526,27.20433 21.88283,38.33157 9.82758,11.12725 21.27278,20.68702 32.6004,30.28295 26.29267,22.27322 52.35537,45.0983 81.70118,63.15996 42.86786,26.38417 91.4355,41.82312 136.83523,63.56348 43.39383,20.7798 84.68717,48.05132 114.43702,85.86364 30.36023,38.58808 47.28213,86.55168 54.02483,135.18621 1.7201,12.4071 2.8059,25.06532 0.7606,37.42298 -2.0452,12.35766 -7.5026,24.50875 -17.0487,32.61846 -8.6428,7.34238 -19.99868,10.86929 -31.28545,11.97285 -11.28677,1.10356 -22.65644,-0.0351 -33.95335,-1.0295 -51.97073,-4.57468 -104.15995,-6.0988 -156.32174,-7.11483 -124.67434,-2.42846 -249.40499,-1.96586 -374.05789,1.38719 -8.58954,0.23105 -17.62755,-6.21606 -20.18745,-14.41853 l -21.72424,-69.60888 c -3.28551,-10.52745 2.68909,-21.45268 12.95795,-25.46348 32.85656,-12.83306 62.61273,-33.60418 85.85753,-60.14662 16.56434,-18.91426 30.12025,-41.41007 33.732,-66.29143 2.28661,-15.75241 0.47217,-32.02686 -4.78469,-47.05126 -5.25686,-15.0244 -13.91422,-28.79601 -24.83353,-40.37771 -23.92128,-25.37239 -57.88936,-39.53823 -92.31134,-45.11611 -37.65753,-6.10218 -76.62858,-2.64446 -113.16734,8.32117 -42.62044,12.7908 -82.1526,35.83008 -114.14187,66.76215 -42.41465,41.01291 -71.50929,97.23738 -73.6866,156.19771 -0.29898,8.09622 -0.09418,16.27494 1.697719,24.17603 1.791894,7.90109 5.252339,15.55492 10.821921,21.43861 4.97618,5.25682 11.4724,8.92762 18.34036,11.21402 6.86796,2.28641 14.11739,3.24127 21.34736,3.5935 35.84515,1.74629 71.66165,-11.44005 99.87728,-33.61667 36.18003,-28.4364 59.7868,-70.40489 73.85711,-114.2187 26.1245,-81.34958 21.1496,-172.45738 -14.64189,-250.04096 -10.83891,-23.495 -24.9786,-46.39835 -46.13582,-61.2936 -10.57862,-7.44763 -22.81086,-12.71845 -35.64102,-14.38014 -12.83017,-1.66168 -26.25411,0.40324 -37.58361,6.64958 -13.75691,7.58466 -23.7584,20.92075 -29.4802,35.55088 -5.72181,14.63013 -7.46946,30.53637 -7.57367,46.24525 -0.32867,49.54311 15.29358,98.33692 39.47042,141.58167 16.86036,30.15788 38.13233,58.21397 65.03005,79.89997 4.21967,3.40206 8.57037,6.64149 13.03869,9.70964 12.94202,8.88656 15.03203,23.04745 3.40278,33.61143 l -86.542,78.61445 c -10.21467,9.27898 -18.10207,5.61523 -18.24761,-8.183 -0.1536,-14.56123 -0.82792,-29.11697 -2.022,-43.62997 C 154.32417,578.01266 143.58538,527.26142 126.54886,478.70727 112.133,437.62203 93.277887,398.22741 78.160939,357.39492 63.043992,316.56243 51.601075,273.58872 52.92997,230.06806 c 0.720792,-23.6056 5.317198,-47.35921 15.911942,-68.46597 10.594744,-21.10676 27.495357,-39.44549 48.888298,-49.44979 21.14339,-9.8876 45.69497,-11.19803 68.50588,-6.25132 43.07069,9.34019 78.74563,39.35081 108.07083,72.24999 35.82548,40.19168 65.17508,86.40264 84.26681,136.74489 27.24382,71.83819 32.99958,151.45019 17.90532,226.78355 -16.66472,83.1713 -60.53439,163.03873 -130.27216,211.32767 -35.58813,24.6425 -77.00501,40.53066 -119.74049,47.41882 -23.49119,3.78634 -47.921298,4.84476 -70.76946,-1.79856 C 51.710572,791.65307 30.156898,775.90556 17.27218,754.50532 1.1788272,727.77586 -0.5891867,694.73601 2.83687,663.72436 13.433057,567.81081 70.49155,479.99454 148.44642,423.11989 c 28.29245,-20.64173 59.24309,-37.55451 91.59931,-50.95671 60.11147,-24.89864 127.30549,-37.61557 190.67449,-22.86089 37.52465,8.73715 72.54888,26.87276 102.92938,50.56796 28.52822,22.25052 53.87138,50.681 64.14067,85.3723 z"
   id="path1216-0"
   inkscape:path-effect="#path-effect1247;#path-effect857"
   inkscape:original-d="m 597.79027,485.24255 c 10.49552,63.21469 -25.67095,128.41034 -59.61,182.76467 -26.5389,42.50276 -107.94681,104.61675 -107.94681,104.61675 l -19.94673,-63.61313 c 0,0 266.20384,10.56295 399.38398,11.62111 29.3964,0.23356 59.38997,4.75962 88.1843,-1.16402 11.3594,-2.33688 26.33778,-3.27199 32.14499,-13.31058 10.45456,-18.07221 2.83168,-44.30993 -8.07664,-62.11193 C 879.30408,574.49222 786.54709,552.96801 720.03382,505.74473 678.77755,476.45348 635.05105,450.00009 597.75735,415.80597 561.1507,382.2418 521.0092,348.59991 499.41831,303.87371 c -12.96112,-26.84936 -23.40902,-59.16774 -15.89299,-88.01887 8.97967,-34.46946 36.59669,-65.50002 67.88261,-82.52851 65.25254,-35.516048 149.62355,-44.547644 221.41813,-25.44733 59.82324,15.91544 127.12497,52.38874 149.57089,110.08018 31.83764,81.83042 -21.99754,175.53184 -50.84459,258.46375 -16.92461,48.65628 -56.64245,87.86335 -70.71624,137.41942 -12.66157,44.58339 -10.85665,138.61487 -10.85665,138.61487 l -123.18481,-4.64971 c 0,0 29.29545,-105.38566 51.17764,-155.30816 25.52956,-58.24368 71.12093,-106.90784 92.78177,-166.69825 17.348,-47.88568 47.81981,-103.02047 28.44511,-150.12262 -13.57442,-33.00099 -53.36166,-52.85062 -88.16783,-60.71578 -46.49948,-10.5075 -106.09321,-9.64282 -141.22107,22.58516 -17.81586,16.34512 -22.68447,46.74357 -17.56797,70.37383 6.18034,28.54354 33.69836,48.09819 54.48323,68.61452 24.49823,24.18171 52.29193,45.27102 81.70118,63.15996 42.96795,26.13637 93.68026,37.73706 136.83523,63.56348 40.92103,24.4895 85.43804,48.00435 114.43702,85.86364 29.50853,38.52449 50.34753,86.79855 54.02483,135.18621 1.8164,23.90121 1.1809,53.62804 -16.2881,70.04144 -16.0697,15.09866 -43.22886,9.61329 -65.2388,10.94335 -52.06621,3.14636 -104.17141,-6.05056 -156.32174,-7.11483 C 666.0307,795.52962 406.26494,800 406.26494,800 l -32.3083,-103.52239 c 0,0 76.93583,-35.93546 104.76442,-66.54847 16.67736,-18.34603 31.94763,-41.56235 33.732,-66.29143 2.21448,-30.69008 -9.29629,-64.32477 -29.61822,-87.42897 -22.61961,-25.71646 -58.68272,-38.62773 -92.31134,-45.11611 -37.13931,-7.16574 -77.04723,-2.90443 -113.16734,8.32117 -42.09173,13.08149 -84.3827,34.24706 -114.14187,66.76215 -38.86773,42.46716 -68.71523,98.84402 -73.6866,156.19771 -1.36158,15.70828 1.87893,33.97937 12.51964,45.61464 9.5291,10.41977 25.56954,14.57854 39.68772,14.80752 35.12301,0.56966 72.1425,-12.05902 99.87728,-33.61667 35.79726,-27.82444 62.29967,-70.3773 73.85711,-114.2187 21.28243,-80.73165 29.17457,-178.97297 -14.64189,-250.04096 -24.1206,-39.12235 -75.59886,-83.06995 -119.36045,-69.02416 -28.50048,9.14756 -34.75926,51.9517 -37.05387,81.79613 -3.75581,48.84935 16.9542,98.06863 39.47042,141.58167 15.78166,30.49839 46.47727,68.09313 65.03005,79.89997 15.69129,9.98592 19.59306,23.94459 37.4981,24.1933 L 160.31787,697.90969 c 4.99065,-21.21945 -0.76369,-38.18391 -1.77431,-68.61404 C 157.38059,608.48076 139.17553,528.44617 126.54886,478.70727 105.28082,394.92831 43.671758,316.00716 52.92997,230.06806 57.733793,185.4767 80.2068,136.71772 117.73021,112.1523 c 19.18462,-12.559581 46.28374,-11.90545 68.50588,-6.25132 41.99451,10.68495 78.00264,41.04725 108.07083,72.24999 37.15202,38.55387 67.65184,85.8468 84.26681,136.74489 23.53154,72.0862 35.69574,153.07023 17.90532,226.78355 -19.41432,80.44182 -74.22268,164.44285 -130.27216,211.32767 -33.55572,27.69657 -77.47306,39.90948 -119.74049,47.41882 -23.23361,4.12774 -48.49244,5.98435 -70.76946,-1.79856 C 52.65805,790.57826 29.83689,775.42676 17.27218,754.50532 1.49683,728.23788 -3.04805,693.79441 2.83687,663.72436 20.84182,571.72493 80.9585,488.18488 148.44642,423.11989 c 25.15347,-24.25042 58.36257,-40.18179 91.59931,-50.95671 60.89341,-19.74085 127.56949,-33.60654 190.67449,-22.86089 37.68433,6.41696 73.48505,26.18933 102.92938,50.56796 27.41649,22.69968 58.3108,50.25888 64.14067,85.3723 z"
   sodipodi:nodetypes="aaccaaaaaaaaaaaaaccaaaaaaaaaaaaaaccaaaaaaaaaaaaaaascccaaaaaaacaaaaaaaaa" /></svg>
