<?xml version="1.0" encoding="UTF-8" standalone="no"?>
<svg
   xmlns:dc="http://purl.org/dc/elements/1.1/"
   xmlns:cc="http://creativecommons.org/ns#"
   xmlns:rdf="http://www.w3.org/1999/02/22-rdf-syntax-ns#"
   xmlns:svg="http://www.w3.org/2000/svg"
   xmlns="http://www.w3.org/2000/svg"
   xmlns:sodipodi="http://sodipodi.sourceforge.net/DTD/sodipodi-0.dtd"
   xmlns:inkscape="http://www.inkscape.org/namespaces/inkscape"
   xml:space="preserve"
   width="1000"
   height="1000"
   version="1.1"
   style="clip-rule:evenodd;fill-rule:evenodd;image-rendering:optimizeQuality;shape-rendering:geometricPrecision;text-rendering:geometricPrecision"
   viewBox="0 0 1000 1000"
   id="svg10"
   sodipodi:docname="ക്കു.svg"
   inkscape:version="1.0.1 (3bc2e813f5, 2020-09-07)"><metadata
   id="metadata14"><rdf:RDF><cc:Work
       rdf:about=""><dc:format>image/svg+xml</dc:format><dc:type
         rdf:resource="http://purl.org/dc/dcmitype/StillImage" /><dc:title /></cc:Work></rdf:RDF></metadata><sodipodi:namedview
   pagecolor="#ffffff"
   bordercolor="#666666"
   borderopacity="1"
   objecttolerance="10"
   gridtolerance="10"
   guidetolerance="10"
   inkscape:pageopacity="0"
   inkscape:pageshadow="2"
   inkscape:window-width="1920"
   inkscape:window-height="1051"
   id="namedview12"
   showgrid="false"
   inkscape:zoom="0.678"
   inkscape:cx="295.05631"
   inkscape:cy="566.24232"
   inkscape:window-x="0"
   inkscape:window-y="0"
   inkscape:window-maximized="1"
   inkscape:current-layer="svg10"
   showguides="true"
   inkscape:guide-bbox="true"
   inkscape:document-rotation="0"
   inkscape:snap-to-guides="true"><sodipodi:guide
     position="0,1000"
     orientation="0,1"
     id="guide16"
     inkscape:label=""
     inkscape:locked="true"
     inkscape:color="rgb(0,0,255)" /><sodipodi:guide
     position="1763.3122,2036.1693"
     orientation="1000,0"
     id="guide18" /><sodipodi:guide
     position="0,200"
     orientation="0,1"
     id="guide20"
     inkscape:label="base"
     inkscape:locked="true"
     inkscape:color="rgb(0,0,255)" /><inkscape:grid
     type="xygrid"
     id="grid24"
     originx="-473.37552"
     originy="-489.69235" /><sodipodi:guide
     position="0,0"
     orientation="0,1"
     id="guide34"
     inkscape:label="bottom"
     inkscape:locked="true"
     inkscape:color="rgb(0,0,255)" /><sodipodi:guide
     position="225.05109,1693.3186"
     orientation="0,1"
     id="guide44"
     inkscape:label=""
     inkscape:locked="false"
     inkscape:color="rgb(0,0,255)" /><sodipodi:guide
     position="0,900"
     orientation="0,1"
     id="guide46"
     inkscape:label=""
     inkscape:locked="true"
     inkscape:color="rgb(0,0,255)" /><sodipodi:guide
     position="779.15,502.64648"
     orientation="-1,0"
     id="guide841"
     inkscape:label="width"
     inkscape:locked="false"
     inkscape:color="rgb(0,0,255)" /><sodipodi:guide
     position="0,1000"
     orientation="0,1000"
     id="guide860" /><sodipodi:guide
     position="1000,1000"
     orientation="1000,0"
     id="guide862" /><sodipodi:guide
     position="1000,0"
     orientation="0,-1000"
     id="guide864" /><sodipodi:guide
     position="0,0"
     orientation="-1000,0"
     id="guide866" /></sodipodi:namedview>
 <defs
   id="defs4"><inkscape:path-effect
   effect="spiro"
   id="path-effect1521"
   is_visible="true"
   lpeversion="1" /><inkscape:path-effect
   effect="spiro"
   id="path-effect858"
   is_visible="true"
   lpeversion="1" /><inkscape:path-effect
   effect="spiro"
   id="path-effect854"
   is_visible="true"
   lpeversion="1" />
  <style
   type="text/css"
   id="style2">
   <![CDATA[
    .fil0 {fill:#EF7F1A;fill-rule:nonzero}
   ]]>
  </style>
 <inkscape:path-effect
   effect="spiro"
   id="path-effect1214"
   is_visible="true"
   lpeversion="1" /><inkscape:path-effect
   effect="spiro"
   id="path-effect1195"
   is_visible="true"
   lpeversion="1" /><inkscape:path-effect
   effect="spiro"
   id="path-effect992"
   is_visible="true"
   lpeversion="1" /><inkscape:path-effect
   effect="spiro"
   id="path-effect287"
   is_visible="true"
   lpeversion="1" /><inkscape:path-effect
   effect="spiro"
   id="path-effect1032"
   is_visible="true"
   lpeversion="1" /><inkscape:path-effect
   effect="spiro"
   id="path-effect1218"
   is_visible="true"
   lpeversion="1" /><inkscape:path-effect
   effect="spiro"
   id="path-effect309"
   is_visible="true"
   lpeversion="1" /><inkscape:path-effect
   effect="spiro"
   id="path-effect1176"
   is_visible="true"
   lpeversion="1" /></defs>
 
<path
   id="path1164-3-3-2-0"
   style="display:inline;fill:#1a1a1a;fill-rule:nonzero;stroke:none;stroke-width:2.83729;stroke-linecap:butt;stroke-linejoin:miter;stroke-miterlimit:4;stroke-dasharray:none;stroke-opacity:1"
   d="m 268.92338,436.41709 c -39.08008,14.7596 -74.92685,37.95504 -104.55161,67.40792 -41.80043,41.55792 -71.409674,97.2982 -73.6866,156.19771 -0.313004,8.0968 -0.110111,16.27761 1.684467,24.17923 1.794577,7.90162 5.26197,15.55362 10.835173,21.43541 4.97851,5.25417 11.47437,8.92388 18.34186,11.21067 6.86749,2.28679 14.11628,3.24332 21.34586,3.59685 35.84535,1.75284 71.6625,-11.43813 99.87728,-33.61667 36.17828,-28.43834 59.78601,-70.40533 73.85711,-114.2187 26.12611,-81.34919 21.14998,-172.45741 -14.64189,-250.04096 -10.83899,-23.49494 -24.97868,-46.39825 -46.13588,-61.29351 -10.5786,-7.44763 -22.81083,-12.71846 -35.64098,-14.38017 -12.83015,-1.6617 -26.2541,0.4032 -37.58359,6.64952 -13.75692,7.58464 -23.75842,20.92074 -29.48022,35.55087 -5.7218,14.63013 -7.46944,30.53638 -7.57365,46.24526 -0.32866,49.54311 15.29359,98.33692 39.47042,141.58167 16.86036,30.15788 38.13233,58.21397 65.03005,79.89997 11.60172,9.35376 24.19399,17.47814 37.4981,24.1933 L 161.47535,695.55875 c 0.74097,-22.87993 0.14819,-45.80298 -1.77431,-68.61404 C 155.38059,575.68131 144.3296,525.04174 127.70634,476.35633 113.66363,435.22869 95.690583,395.54841 80.944323,354.66775 66.198063,313.78709 54.614372,271.17288 54.087455,227.71712 c -0.278986,-23.00842 2.690612,-46.48959 12.619434,-67.24733 10.686922,-22.34267 29.473947,-40.77884 52.180801,-50.66843 21.35803,-9.30213 45.69391,-10.974602 68.50588,-6.25132 21.59307,4.47091 41.79891,14.46362 59.73486,27.29138 17.93594,12.82776 33.709,28.45706 48.33597,44.95861 35.70995,40.2865 65.13312,86.42487 84.26681,136.74489 27.30813,71.81811 33.01882,151.44991 17.90532,226.78355 -16.68478,83.1657 -60.5379,163.03637 -130.27216,211.32767 -35.58707,24.64421 -77.00484,40.53113 -119.74049,47.41882 -23.49121,3.78607 -47.921253,4.84455 -70.769459,-1.79856 C 52.867935,789.30234 31.313862,773.55499 18.429657,752.15438 2.3370831,725.42468 0.57135576,692.38521 3.9943525,661.37342 14.800644,563.4702 75.079085,473.09196 159.42606,422.22542 c 29.95252,-18.06326 62.63722,-31.40399 96.33363,-40.78413 38.778,-10.79471 79.28059,-16.39737 119.40802,-13.22734 40.12742,3.17003 79.9104,15.36854 113.2061,37.98836 48.14072,32.70496 80.15325,85.48837 96.50499,141.34322 15.10498,51.59613 17.81384,107.17076 4.81135,159.33642 -3.73663,14.99127 -8.78369,29.75549 -16.39477,43.20065 -7.61108,13.44516 -17.8869,25.56913 -30.79869,34.05361 -11.6979,7.68682 -25.3536,12.22989 -39.27175,13.71756 -13.91814,1.48768 -28.08902,-0.0334 -41.56317,-3.82487 -29.20493,-8.21797 -54.8401,-27.03184 -73.85895,-50.66966 -19.01886,-23.63781 -31.70259,-51.92173 -39.71797,-81.18291 -18.08724,-66.0298 -12.91523,-135.98256 -5.66869,-204.06024 5.71736,-53.71184 12.73899,-107.73778 30.22963,-158.84283 17.49063,-51.10506 46.26416,-99.60551 88.94911,-132.70604 40.8887,-31.70761 94.3111,-47.79182 145.56508,-40.70041 30.82601,4.26503 60.46113,16.71626 85.18292,35.61776 24.7218,18.90149 44.48597,44.19776 56.9966,72.69193 18.4072,41.9242 20.68832,90.69299 6.27486,134.15235 -14.41346,43.45937 -45.38561,81.19958 -85.19767,103.81515 41.51363,10.50424 77.90195,39.74141 97.1009,78.0183 17.66146,35.21161 20.71798,76.93358 11.28599,115.18044 -9.43198,38.24686 -30.85139,73.02191 -58.64459,100.93826 -24.83982,24.94988 -54.85333,44.72567 -87.57982,57.70603 L 605.27256,708.43832 c 24.99429,-0.44513 49.81176,-8.28157 70.52939,-22.27059 14.23477,-9.61164 26.70143,-22.30869 34.1324,-37.79394 7.43096,-15.48525 9.46574,-33.90634 3.58652,-50.04471 -5.84384,-16.04123 -19.18352,-28.82263 -34.8631,-35.57705 -15.67959,-6.75442 -33.48321,-7.77525 -50.25605,-4.59039 -11.30677,2.14695 -22.25791,6.15525 -32.27906,11.81467 L 583.9455,431.09909 c 10.99892,1.64849 22.35357,0.88012 33.03013,-2.23517 14.51307,-4.23473 27.66548,-12.80003 37.77296,-24.04286 10.10747,-11.24282 17.18888,-25.10431 20.85175,-39.77215 7.32576,-29.33568 0.75073,-61.15902 -14.51379,-87.25966 -12.60125,-21.54675 -31.15396,-39.76497 -53.49381,-50.89982 -22.33985,-11.13485 -48.45483,-14.96405 -72.82,-9.54258 -31.41137,6.98931 -58.095,28.70155 -76.75458,54.9188 -18.65959,26.21726 -30.14024,56.80688 -39.86634,87.48142 -15.29099,48.22531 -26.74945,97.60867 -35.87467,147.37035 -4.74892,25.89683 -8.88412,52.15602 -7.41284,78.44353 1.47127,26.28751 8.94831,52.87861 25.31326,73.5035 6.11164,7.70255 13.43705,14.51697 21.92627,19.47828 8.48921,4.96131 18.17354,8.02526 28.00501,8.1787 9.48247,0.14799 18.93819,-2.42096 27.25839,-6.97217 8.32019,-4.55121 15.51652,-11.04695 21.24834,-18.60244 12.08597,-15.9313 17.47608,-36.2432 17.82769,-56.23703 0.3516,-19.99383 -4.04526,-39.7961 -9.96015,-58.89822 -10.11477,-32.66559 -25.37259,-64.77893 -50.66984,-87.78759 -24.4214,-22.21204 -56.9777,-34.47528 -89.87802,-37.18611 -32.90032,-2.71084 -66.12922,3.71558 -97.01188,15.37922 z"
   sodipodi:nodetypes="aaaaaaaaaaascccaaaaaaaacaaaaaaaaaaaaaaaacaaccaaaccaaaaaaaaaaa"
   inkscape:path-effect="#path-effect1521"
   inkscape:original-d="m 268.92338,436.41709 c -40.39051,9.38277 -77.22628,36.21888 -104.55161,67.40792 -37.93673,43.30086 -68.715234,98.84402 -73.6866,156.19771 -1.36158,15.70828 1.87893,33.97937 12.51964,45.61464 9.5291,10.41977 25.56954,14.57854 39.68772,14.80752 35.12301,0.56966 72.1425,-12.05902 99.87728,-33.61667 35.79726,-27.82444 62.29967,-70.3773 73.85711,-114.2187 21.28243,-80.73165 29.17457,-178.97297 -14.64189,-250.04096 -24.1206,-39.12235 -75.59886,-83.06995 -119.36045,-69.02416 -28.50048,9.14756 -34.75926,51.9517 -37.05387,81.79613 -3.75581,48.84935 16.9542,98.06863 39.47042,141.58167 15.78166,30.49839 46.47727,68.09313 65.03005,79.89997 15.69129,9.98592 19.59306,23.94459 37.4981,24.1933 L 161.47535,695.55875 C 166.466,674.3393 160.71166,657.37484 159.70104,626.94471 158.53807,606.12982 140.33301,526.09523 127.70634,476.35633 106.4383,392.57737 58.509491,314.04029 54.087455,227.71712 c -1.166796,-22.77718 1.829528,-47.15406 12.619434,-67.24733 11.469918,-21.35961 30.152029,-40.54297 52.180801,-50.66843 20.83463,-9.57658 46.28374,-11.90545 68.50588,-6.25132 41.99451,10.68495 78.00264,41.04725 108.07083,72.24999 37.15202,38.55387 67.65184,85.8468 84.26681,136.74489 23.53154,72.0862 35.69574,153.07023 17.90532,226.78355 -19.41432,80.44182 -74.22268,164.44285 -130.27216,211.32767 -33.55572,27.69657 -77.47306,39.90948 -119.74049,47.41882 -23.23361,4.12774 -48.492444,5.98435 -70.769459,-1.79856 C 53.815526,788.22732 30.994368,773.07582 18.429657,752.15438 2.6543135,725.88694 -2.372589,691.34511 3.9943525,661.37342 23.750154,568.37512 86.555313,483.28957 159.42606,422.22542 c 26.72703,-22.39669 61.84041,-35.6691 96.33363,-40.78413 77.13262,-11.43807 165.68879,-15.25486 232.61412,24.76102 48.96388,29.2764 78.85051,87.09483 96.50499,141.34322 16.44371,50.52797 18.42539,107.97369 4.81135,159.33642 -7.73144,29.16898 -21.82222,60.91704 -47.19346,77.25426 -22.82353,14.69667 -55.51591,19.68315 -80.83492,9.89269 -54.10434,-20.92128 -92.63144,-77.75759 -113.57692,-131.85257 -24.56992,-63.45566 -17.86031,-137.11499 -5.66869,-204.06024 18.81051,-103.2902 40.78227,-221.71553 119.17874,-291.54887 37.62128,-33.51197 96.08129,-50.17501 145.56508,-40.70041 58.51521,11.20383 124.58551,51.38863 142.17952,108.30969 24.6794,79.84407 -30.61424,208.58125 -78.92281,237.9675 69.98412,40.57557 83.28932,38.86248 97.1009,78.0183 24.5323,69.54904 -5.59776,155.33272 -47.3586,216.1187 -19.7967,28.81556 -63.93711,65.14363 -87.57982,57.70603 L 605.27256,708.43832 c 24.5363,-11.33619 52.24898,-5.72834 70.52939,-22.27059 23.62714,-21.3806 49.00792,-58.04049 37.71892,-87.83865 -11.11493,-29.33867 -53.7774,-38.75545 -85.11915,-40.16744 -11.44616,-0.51566 -27.49395,10.67832 -32.27906,11.81467 L 583.9455,431.09909 c 6.26356,-3.86098 24.42963,4.67914 33.03013,-2.23517 40.88635,-32.87026 65.51209,-103.17751 44.11092,-151.07467 -19.04155,-42.61616 -80.75341,-70.58968 -126.31381,-60.4424 -59.88615,13.33793 -89.24617,87.49235 -116.62092,142.40022 -22.55801,45.24653 -32.80463,96.90563 -35.87467,147.37035 -3.09684,50.90515 -10.52081,109.60133 17.90042,151.94703 10.60317,15.79802 30.90587,27.4607 49.93128,27.65698 18.27762,0.18857 38.53689,-10.25438 48.50673,-25.57461 20.98186,-32.24193 16.54837,-77.65961 7.86754,-115.13525 -7.62453,-32.91554 -22.44046,-69.22235 -50.66984,-87.78759 -52.40249,-34.46284 -125.79736,-35.99878 -186.8899,-21.80689 z" /></svg>
