<?xml version="1.0" encoding="UTF-8" standalone="no"?>
<svg
   xmlns:dc="http://purl.org/dc/elements/1.1/"
   xmlns:cc="http://creativecommons.org/ns#"
   xmlns:rdf="http://www.w3.org/1999/02/22-rdf-syntax-ns#"
   xmlns:svg="http://www.w3.org/2000/svg"
   xmlns="http://www.w3.org/2000/svg"
   xmlns:sodipodi="http://sodipodi.sourceforge.net/DTD/sodipodi-0.dtd"
   xmlns:inkscape="http://www.inkscape.org/namespaces/inkscape"
   xml:space="preserve"
   width="1000"
   height="1000"
   version="1.1"
   style="clip-rule:evenodd;fill-rule:evenodd;image-rendering:optimizeQuality;shape-rendering:geometricPrecision;text-rendering:geometricPrecision"
   viewBox="0 0 1000 1000"
   id="svg10"
   sodipodi:docname="കു.svg"
   inkscape:version="1.0.2 (e86c870879, 2021-01-15)"><metadata
   id="metadata14"><rdf:RDF><cc:Work
       rdf:about=""><dc:format>image/svg+xml</dc:format><dc:type
         rdf:resource="http://purl.org/dc/dcmitype/StillImage" /><dc:title /></cc:Work></rdf:RDF></metadata><sodipodi:namedview
   pagecolor="#ffffff"
   bordercolor="#666666"
   borderopacity="1"
   objecttolerance="10"
   gridtolerance="10"
   guidetolerance="10"
   inkscape:pageopacity="0"
   inkscape:pageshadow="2"
   inkscape:window-width="1920"
   inkscape:window-height="1007"
   id="namedview12"
   showgrid="false"
   inkscape:zoom="0.9588368"
   inkscape:cx="210.32099"
   inkscape:cy="500.58334"
   inkscape:window-x="1920"
   inkscape:window-y="0"
   inkscape:window-maximized="1"
   inkscape:current-layer="svg10"
   showguides="true"
   inkscape:guide-bbox="true"
   inkscape:document-rotation="0"
   inkscape:snap-to-guides="true"><sodipodi:guide
     position="0,1000"
     orientation="0,1"
     id="guide16"
     inkscape:label=""
     inkscape:locked="true"
     inkscape:color="rgb(0,0,255)" /><sodipodi:guide
     position="1763.3122,2036.1693"
     orientation="1000,0"
     id="guide18" /><sodipodi:guide
     position="0,200"
     orientation="0,1"
     id="guide20"
     inkscape:label="base"
     inkscape:locked="true"
     inkscape:color="rgb(0,0,255)" /><inkscape:grid
     type="xygrid"
     id="grid24"
     originx="-473.37552"
     originy="-489.69235" /><sodipodi:guide
     position="0,0"
     orientation="0,1"
     id="guide34"
     inkscape:label="bottom"
     inkscape:locked="true"
     inkscape:color="rgb(0,0,255)" /><sodipodi:guide
     position="225.05109,1693.3186"
     orientation="0,1"
     id="guide44"
     inkscape:label=""
     inkscape:locked="false"
     inkscape:color="rgb(0,0,255)" /><sodipodi:guide
     position="0,900"
     orientation="0,1"
     id="guide46"
     inkscape:label=""
     inkscape:locked="true"
     inkscape:color="rgb(0,0,255)" /><sodipodi:guide
     position="608.13763,692.05295"
     orientation="-1,0"
     id="guide841"
     inkscape:label="width"
     inkscape:locked="false"
     inkscape:color="rgb(0,0,255)" /><sodipodi:guide
     position="0,1000"
     orientation="0,1000"
     id="guide860" /><sodipodi:guide
     position="1000,1000"
     orientation="1000,0"
     id="guide862" /><sodipodi:guide
     position="1000,0"
     orientation="0,-1000"
     id="guide864" /><sodipodi:guide
     position="0,0"
     orientation="-1000,0"
     id="guide866" /></sodipodi:namedview>
 <defs
   id="defs4"><inkscape:path-effect
   effect="fillet_chamfer"
   id="path-effect857"
   is_visible="true"
   lpeversion="1"
   satellites_param="F,0,0,1,0,0,0,1 @ F,0,0,1,0,0,0,1 @ F,0,0,1,0,0,0,1 @ F,0,0,1,0,0,0,1 @ F,0,0,1,0,0,0,1 @ F,0,0,1,0,0,0,1 @ F,0,0,1,0,0,0,1 @ F,0,0,1,0,0,0,1 @ F,0,0,1,0,0,0,1 @ F,0,0,1,0,0,0,1 @ F,0,0,1,0,0,0,1 @ F,0,0,1,0,0,0,1 @ F,0,0,1,0,0,0,1 @ F,0,0,1,0,0,0,1 @ F,0,0,1,0,0,0,1 @ F,0,0,1,0,0,0,1 @ F,0,0,1,0,0,0,1 @ F,0,0,1,0,0,0,1 @ F,0,0,1,0,0,0,1 @ F,0,1,1,0,24.683936,0,1 @ F,0,1,1,0,24.683936,0,1 @ F,0,0,1,0,0,0,1 @ F,0,0,1,0,0,0,1 @ F,0,0,1,0,0,0,1 @ F,0,0,1,0,0,0,1 @ F,0,0,1,0,0,0,1 @ F,0,0,1,0,0,0,1 @ F,0,0,1,0,0,0,1 @ F,0,0,1,0,0,0,1 @ F,0,0,1,0,0,0,1 @ F,0,0,1,0,0,0,1 @ F,0,0,1,0,0,0,1 @ F,0,0,1,0,0,0,1 @ F,0,0,1,0,0,0,1 @ F,0,0,1,0,0,0,1 @ F,0,0,1,0,0,0,1 @ F,0,0,1,0,0,0,1 @ F,0,0,1,0,0,0,1 @ F,0,0,1,0,0,0,1 @ F,0,0,1,0,0,0,1 @ F,0,0,1,0,0,0,1 @ F,0,0,1,0,0,0,1 @ F,0,0,1,0,0,0,1 @ F,0,0,1,0,0,0,1 @ F,0,0,1,0,0,0,1 @ F,0,0,1,0,0,0,1 @ F,0,0,1,0,0,0,1 @ F,0,0,1,0,0,0,1 @ F,0,0,1,0,0,0,1 @ F,0,0,1,0,0,0,1 @ F,0,0,1,0,0,0,1 @ F,0,1,1,0,24.683936,0,1 @ F,0,1,1,0,24.683936,0,1 @ F,0,0,1,0,0,0,1 @ F,0,0,1,0,0,0,1 @ F,0,0,1,0,0,0,1 @ F,0,0,1,0,0,0,1 @ F,0,0,1,0,0,0,1 @ F,0,0,1,0,0,0,1 @ F,0,1,1,0,24.683936,0,1 @ F,0,1,1,0,24.683936,0,1 @ F,0,0,1,0,0,0,1 @ F,0,0,1,0,0,0,1 @ F,0,0,1,0,0,0,1 @ F,0,0,1,0,0,0,1 @ F,0,0,1,0,0,0,1 @ F,0,0,1,0,0,0,1"
   unit="px"
   method="auto"
   mode="F"
   radius="0"
   chamfer_steps="1"
   flexible="false"
   use_knot_distance="true"
   apply_no_radius="true"
   apply_with_radius="true"
   only_selected="true"
   hide_knots="false" /><inkscape:path-effect
   effect="fillet_chamfer"
   id="path-effect874"
   is_visible="true"
   lpeversion="1"
   satellites_param="F,0,0,1,0,0,0,1 @ F,0,0,1,0,0,0,1 @ F,0,0,1,0,0,0,1 @ F,0,0,1,0,0,0,1 @ F,0,0,1,0,0,0,1 @ F,0,0,1,0,0,0,1 @ F,0,0,1,0,0,0,1 @ F,0,0,1,0,0,0,1 @ F,0,0,1,0,0,0,1 @ F,0,0,1,0,0,0,1 @ F,0,0,1,0,0,0,1 @ F,0,0,1,0,0,0,1 @ F,0,0,1,0,0,0,1 @ F,0,0,1,0,0,0,1 @ F,0,0,1,0,0,0,1 @ F,0,0,1,0,0,0,1 @ F,0,0,1,0,0,0,1 @ F,0,0,1,0,0,0,1 @ F,0,0,1,0,0,0,1 @ F,0,1,1,0,23.627471,0,1 @ F,0,1,1,0,23.627471,0,1 @ F,0,0,1,0,0,0,1 @ F,0,0,1,0,0,0,1 @ F,0,0,1,0,0,0,1 @ F,0,0,1,0,0,0,1 @ F,0,0,1,0,0,0,1 @ F,0,0,1,0,0,0,1 @ F,0,0,1,0,0,0,1 @ F,0,0,1,0,0,0,1 @ F,0,0,1,0,0,0,1 @ F,0,0,1,0,0,0,1 @ F,0,0,1,0,0,0,1 @ F,0,0,1,0,0,0,1 @ F,0,0,1,0,0,0,1 @ F,0,0,1,0,0,0,1 @ F,0,0,1,0,0,0,1 @ F,0,0,1,0,0,0,1 @ F,0,0,1,0,0,0,1 @ F,0,0,1,0,0,0,1 @ F,0,0,1,0,0,0,1 @ F,0,0,1,0,0,0,1 @ F,0,0,1,0,0,0,1 @ F,0,0,1,0,0,0,1 @ F,0,0,1,0,0,0,1 @ F,0,0,1,0,0,0,1 @ F,0,0,1,0,0,0,1 @ F,0,0,1,0,0,0,1 @ F,0,1,1,0,23.627471,0,1 @ F,0,1,1,0,23.627471,0,1 @ F,0,0,1,0,0,0,1 @ F,0,0,1,0,0,0,1 @ F,0,0,1,0,0,0,1 @ F,0,0,1,0,0,0,1 @ F,0,0,1,0,0,0,1 @ F,0,0,1,0,0,0,1"
   unit="px"
   method="auto"
   mode="F"
   radius="0"
   chamfer_steps="1"
   flexible="false"
   use_knot_distance="true"
   apply_no_radius="true"
   apply_with_radius="true"
   only_selected="true"
   hide_knots="false" /><inkscape:path-effect
   effect="fillet_chamfer"
   id="path-effect856"
   is_visible="true"
   lpeversion="1"
   satellites_param="F,0,0,1,1,0,0,1 @ F,0,0,1,1,0,0,1 @ F,0,0,1,1,0,0,1 @ F,0,0,1,1,0,0,1 @ F,0,0,1,1,0,0,1 @ F,0,0,1,1,0,0,1 @ F,0,0,1,1,0,0,1 @ F,0,0,1,1,0,0,1 @ F,0,0,1,1,0,0,1 @ F,0,0,1,1,0,0,1 @ F,0,0,1,1,0,0,1 @ F,0,0,1,1,0,0,1 @ F,0,0,1,1,0,0,1 @ F,0,0,1,1,0,0,1 @ F,0,0,1,1,0,0,1 @ F,0,0,1,1,0,0,1 @ F,0,0,1,1,0,0,1 @ F,0,0,1,1,0,0,1 @ F,0,0,1,1,0,0,1 @ F,0,0,1,1,0,0,1 @ F,0,0,1,1,0,0,1 @ F,0,0,1,1,20.207944,0,1 @ F,0,0,1,1,13.231935,0,1 @ F,0,0,1,1,0,0,1 @ F,0,0,1,1,0,0,1 @ F,0,0,1,1,0,0,1 @ F,0,0,1,1,0,0,1 @ F,0,0,1,1,0,0,1 @ F,0,0,1,1,0,0,1 @ F,0,0,1,1,0,0,1 @ F,0,0,1,1,0,0,1 @ F,0,0,1,1,0,0,1 @ F,0,0,1,1,0,0,1 @ F,0,0,1,1,0,0,1 @ F,0,0,1,1,0,0,1 @ F,0,0,1,1,0,0,1 @ F,0,0,1,1,0,0,1 @ F,0,0,1,1,0,0,1 @ F,0,0,1,1,0,0,1 @ F,0,0,1,1,0,0,1 @ F,0,0,1,1,0,0,1 @ F,0,0,1,1,0,0,1 @ F,0,0,1,1,0,0,1 @ F,0,0,1,1,0,0,1 @ F,0,0,1,1,0,0,1 @ F,0,0,1,1,0,0,1 @ F,0,0,1,1,0,0,1 @ F,0,0,1,1,15.1282,0,1 @ F,0,0,1,1,16.626843,0,1 @ F,0,0,1,1,0,0,1 @ F,0,0,1,1,0,0,1 @ F,0,0,1,1,0,0,1 @ F,0,0,1,1,0,0,1 @ F,0,0,1,1,0,0,1 @ F,0,0,1,1,0,0,1"
   unit="px"
   method="bezier"
   mode="F"
   radius="0"
   chamfer_steps="1"
   flexible="false"
   use_knot_distance="true"
   apply_no_radius="true"
   apply_with_radius="true"
   only_selected="false"
   hide_knots="true" /><inkscape:path-effect
   effect="fillet_chamfer"
   id="path-effect855"
   is_visible="true"
   lpeversion="1"
   satellites_param="F,0,0,1,0,16,0,1 @ F,0,0,1,0,16,0,1 @ F,0,0,1,0,16,0,1 @ F,0,0,1,0,16,0,1 @ F,0,0,1,0,16,0,1 @ F,0,0,1,0,16,0,1 @ F,0,0,1,0,16,0,1 @ F,0,0,1,0,16,0,1 @ F,0,0,1,0,16,0,1 @ F,0,0,1,0,16,0,1 @ F,0,0,1,0,16,0,1 @ F,0,0,1,0,16,0,1 @ F,0,0,1,0,16,0,1 @ F,0,0,1,0,16,0,1 @ F,0,0,1,0,16,0,1 @ F,0,0,1,0,16,0,1 @ F,0,0,1,0,16,0,1 @ F,0,0,1,0,16,0,1 @ F,0,0,1,0,16,0,1 @ F,0,0,1,0,16,0,1 @ F,0,0,1,0,16,0,1 @ F,0,0,1,0,16,0,1 @ F,0,0,1,0,16,0,1 @ F,0,0,1,0,16,0,1 @ F,0,0,1,0,16,0,1 @ F,0,0,1,0,16,0,1 @ F,0,0,1,0,16,0,1 @ F,0,0,1,0,16,0,1 @ F,0,0,1,0,16,0,1 @ F,0,0,1,0,16,0,1 @ F,0,0,1,0,16,0,1 @ F,0,0,1,0,16,0,1 @ F,0,0,1,0,16,0,1 @ F,0,0,1,0,16,0,1 @ F,0,0,1,0,16,0,1 @ F,0,0,1,0,16,0,1 @ F,0,0,1,0,16,0,1 @ F,0,0,1,0,16,0,1 @ F,0,0,1,0,16,0,1 @ F,0,0,1,0,16,0,1 @ F,0,0,1,0,16,0,1 @ F,0,0,1,0,16,0,1 @ F,0,0,1,0,16,0,1 @ F,0,0,1,0,16,0,1 @ F,0,0,1,0,16,0,1 @ F,0,0,1,0,16,0,1 @ F,0,0,1,0,16,0,1 @ F,0,0,1,0,16,0,1 @ F,0,0,1,0,16,0,1 @ F,0,0,1,0,16,0,1 @ F,0,0,1,0,16,0,1 @ F,0,0,1,0,16,0,1"
   unit="px"
   method="bezier"
   mode="F"
   radius="16"
   chamfer_steps="1"
   flexible="false"
   use_knot_distance="true"
   apply_no_radius="true"
   apply_with_radius="true"
   only_selected="false"
   hide_knots="false" /><inkscape:path-effect
   effect="spiro"
   id="path-effect1521"
   is_visible="true"
   lpeversion="1" /><inkscape:path-effect
   effect="spiro"
   id="path-effect858"
   is_visible="true"
   lpeversion="1" /><inkscape:path-effect
   effect="spiro"
   id="path-effect854"
   is_visible="true"
   lpeversion="1" />
  <style
   type="text/css"
   id="style2">
   <![CDATA[
    .fil0 {fill:#EF7F1A;fill-rule:nonzero}
   ]]>
  </style>
 <inkscape:path-effect
   effect="spiro"
   id="path-effect1214"
   is_visible="true"
   lpeversion="1" /><inkscape:path-effect
   effect="spiro"
   id="path-effect1195"
   is_visible="true"
   lpeversion="1" /><inkscape:path-effect
   effect="spiro"
   id="path-effect992"
   is_visible="true"
   lpeversion="1" /><inkscape:path-effect
   effect="spiro"
   id="path-effect287"
   is_visible="true"
   lpeversion="1" /><inkscape:path-effect
   effect="spiro"
   id="path-effect1032"
   is_visible="true"
   lpeversion="1" /><inkscape:path-effect
   effect="spiro"
   id="path-effect1218"
   is_visible="true"
   lpeversion="1" /><inkscape:path-effect
   effect="spiro"
   id="path-effect309"
   is_visible="true"
   lpeversion="1" /><inkscape:path-effect
   effect="spiro"
   id="path-effect1176"
   is_visible="true"
   lpeversion="1" /></defs>
 
<path
   id="path1164-3-3-2-0"
   style="display:inline;fill:#1a1a1a;fill-rule:nonzero;stroke:none;stroke-width:2.83729;stroke-linecap:butt;stroke-linejoin:miter;stroke-miterlimit:4;stroke-dasharray:none;stroke-opacity:1"
   d="m 278.92463,429.63111 c -41.37345,16.89236 -79.26214,42.28771 -110.55286,74.1939 -41.23702,42.04812 -71.337493,97.35029 -73.6866,156.19771 -0.323212,8.09677 -0.118869,16.2786 1.678921,24.17986 1.797789,7.90127 5.269409,15.55068 10.840719,21.43478 4.97741,5.25686 11.46975,8.9347 18.33721,11.22537 6.86746,2.29067 14.11889,3.24616 21.35051,3.58215 35.812,1.66385 71.34923,-11.90451 99.87728,-33.61667 36.25735,-27.59478 61.61553,-67.44537 79.16292,-109.49483 17.28434,-41.41912 27.68225,-85.79995 29.54337,-130.64221 2.67936,-64.55707 -12.8043,-130.19082 -46.66603,-185.2197 -11.09559,-18.0315 -24.41122,-35.19152 -41.96943,-47.02184 -8.77911,-5.91516 -18.5635,-10.4243 -28.89899,-12.71328 -10.33549,-2.28897 -21.22995,-2.31713 -31.44664,0.45436 -12.7711,3.46443 -24.18482,11.24686 -32.83591,21.25994 -8.65109,10.01308 -14.61729,22.18329 -18.20434,34.92049 -7.1741,25.4744 -4.95928,52.58527 -1.37979,78.8074 6.28642,46.05221 16.79453,92.07494 37.79959,133.53712 12.61387,24.89869 28.92534,47.91561 48.19662,68.1065 7.34209,7.69245 15.11206,14.97631 23.26035,21.80896 10.44283,8.75671 10.77253,21.71774 -0.0807,29.96725 l -92.12402,70.02332 c -10.85321,8.24951 -19.56974,3.88436 -19.80474,-9.7459 -0.25262,-14.65242 -0.79307,-29.29989 -1.62105,-43.93108 -2.4861,-43.93187 -7.58768,-87.83462 -17.9947,-130.58838 C 121.63665,434.98836 106.67369,394.97316 95.44872,353.90362 84.223753,312.83407 76.730191,269.95463 82.087455,227.71712 c 3.08098,-24.29093 10.500966,-48.21506 23.340205,-69.06441 12.83924,-20.84936 31.26033,-38.52106 53.46003,-48.85135 22.67612,-10.551983 48.66664,-13.145293 73.35804,-9.15963 24.6914,3.98565 48.11232,14.34275 68.83586,28.34581 22.72235,15.35367 42.35844,35.07885 58.55823,57.20592 53.53161,73.11811 67.43097,169.1264 58.34202,259.28893 -5.2112,51.69515 -17.41151,102.70789 -36.51797,151.02443 -25.8533,65.37799 -66.0127,127.35446 -124.86705,165.81016 C 215.9304,788.8886 166.89606,803.22128 118.42512,800 99.933048,798.77105 81.463061,794.99241 64.627465,787.24452 47.791869,779.49663 32.625752,767.63038 22.429657,752.15438 13.812149,739.07441 8.936181,723.75289 6.9619862,708.21425 4.9877914,692.6756 5.8314436,676.88692 7.9943525,661.37342 14.731358,613.05213 34.28598,566.94139 61.766918,526.62846 89.247856,486.31553 124.5116,451.65328 163.42606,422.22542 c 25.84789,-19.54667 53.34588,-36.8617 81.77715,-52.41318 31.94289,-17.47229 65.30351,-32.81359 100.55126,-41.93637 35.24776,-9.12277 72.56893,-11.86065 108.15824,-4.17754 35.02666,7.56164 68.18518,25.60592 91.35627,52.93989 16.53993,19.51146 27.74641,43.44534 32.47578,68.58295 4.72936,25.13761 3.00613,51.42094 -4.63939,75.83021 -8.82534,28.17599 -25.56127,53.82801 -47.79419,73.25661 25.44369,8.40765 47.86687,25.66902 62.5036,48.11531 14.63674,22.44629 21.38862,49.92657 18.82058,76.60006 -3.53411,36.70776 -24.4913,70.57621 -53.34824,93.53762 -28.85694,22.96141 -65.0331,35.58868 -101.65154,39.95209 -36.18342,4.31157 -73.26513,0.78342 -108.02678,-10.12711 -13.00187,-4.08086 -17.45895,-17.98425 -10.42856,-29.66416 l 29.51683,-49.03768 c 7.03039,-11.67991 21.90292,-14.84312 34.28366,-9.16969 20.87506,9.56593 43.80847,14.65688 66.77562,14.66221 17.93568,0.004 36.33355,-3.21109 51.58622,-12.64744 7.62633,-4.71817 14.36134,-10.96485 19.24851,-18.48401 4.88717,-7.51916 7.88252,-16.32876 8.12534,-25.29331 0.31703,-11.70395 -4.08212,-23.27269 -11.15257,-32.60498 -7.07044,-9.3323 -16.68655,-16.53314 -27.11234,-21.86098 -13.69597,-6.99898 -28.96837,-10.83631 -44.33795,-11.31507 -13.59363,-0.42344 -24.696,-8.90312 -24.8988,-22.53417 l -0.2745,-18.45051 c -0.2028,-13.63105 10.91663,-25.8593 23.23935,-31.56871 5.12113,-2.37274 9.99847,-5.27075 14.52056,-8.6486 11.11461,-8.30225 20.05852,-19.48486 25.71546,-32.15218 5.65694,-12.66732 8.01439,-26.79129 6.77813,-40.60917 -1.23626,-13.81787 -6.0635,-27.29904 -13.87925,-38.76098 -10.0558,-14.74702 -24.84569,-25.92073 -41.14172,-33.20311 -16.29603,-7.28237 -34.07533,-10.82545 -51.87513,-12.15231 -40.63681,-3.0292 -81.64682,5.33677 -119.37303,20.74 z"
   sodipodi:nodetypes="aaaaaaaaaaaaaccaaaaaaaaaasaaaaaacaaccaaaccaaa"
   inkscape:path-effect="#path-effect1521;#path-effect857"
   inkscape:original-d="m 278.92463,429.63111 c -41.18904,16.52553 -81.61549,40.54485 -110.55286,74.1939 -37.53647,43.64829 -68.715234,98.84402 -73.6866,156.19771 -1.36158,15.70828 1.87893,33.97937 12.51964,45.61464 9.5291,10.41977 25.56954,14.57854 39.68772,14.80752 35.12301,0.56966 71.59161,-12.78709 99.87728,-33.61667 36.26584,-26.70618 60.62593,-68.44837 79.16292,-109.49483 18.37601,-40.69002 30.08836,-85.99853 29.54337,-130.64221 -0.77719,-63.66459 -8.3251,-134.38903 -46.66603,-185.2197 -23.73585,-31.46791 -65.1244,-72.33736 -102.31506,-59.28076 -45.54441,15.98936 -50.13873,86.77218 -52.42004,134.98783 -2.1864,46.2096 17.85056,91.79812 37.79959,133.53712 11.99309,25.09294 29.48137,47.53396 48.19662,68.1065 12.67224,13.92982 24.92611,36.59044 42.83115,36.83915 l -131.42698,99.89744 c 4.99065,-21.21945 0.0859,-45.81079 -1.77431,-68.61404 C 146.12847,563.1494 139.00842,519.68614 131.70634,476.35633 117.66182,393.0175 66.112775,310.7076 82.087455,227.71712 c 8.866279,-46.06144 34.157295,-98.37486 76.800235,-117.91576 43.47974,-19.924359 99.20963,-1.78572 142.1939,19.18618 24.52446,11.96541 45.25602,33.38006 58.55823,57.20592 43.18605,77.35145 59.04746,170.7012 58.34202,259.28893 -0.41242,51.79061 -14.39407,104.19526 -36.51797,151.02443 -29.55544,62.55937 -67.5985,126.98346 -124.86705,165.81016 C 217.08272,789.10659 165.93513,804.67402 118.42512,800 82.844142,796.49955 34.994368,773.07582 22.429657,752.15438 6.6543174,725.88694 1.627411,691.34511 7.9943525,661.37342 27.750154,568.37512 95.98541,489.23836 163.42606,422.22542 c 22.96697,-22.82131 51.87694,-39.99259 81.77715,-52.41318 65.79666,-27.33201 138.30358,-57.03383 208.7095,-46.11391 34.7798,5.39432 70.96347,24.25423 91.35627,52.93989 28.40502,39.95611 37.27919,96.30734 27.83639,144.41316 -5.61599,28.61034 -41.16675,55.44334 -47.79419,73.25661 109.47955,7.48871 88.29841,75.57861 81.32418,124.71537 -9.582,67.50975 -89.5621,114.32487 -154.99978,133.48971 -42.38722,12.41401 -153.52702,-13.52219 -131.18499,-18.64292 l 54.97613,-91.33438 c 14.314,-15.59239 57.98784,31.65463 88.32963,26.64087 31.91675,-5.27401 73.52048,-24.53582 78.96007,-56.42476 3.73091,-21.87202 -19.29546,-42.95662 -38.26491,-54.46596 -19.79968,-12.01305 -13.40375,-5.96112 -68.86955,-9.16804 l -1.0089,-67.81291 c 50.64143,-3.5167 72.58351,-83.46346 56.74145,-127.05844 -11.78149,-32.42087 -58.86319,-40.51354 -93.01685,-45.35542 -39.98728,-5.66889 -81.89022,5.70146 -119.37303,20.74 z" /></svg>
