<?xml version="1.0" encoding="UTF-8" standalone="no"?>
<svg
   xmlns:dc="http://purl.org/dc/elements/1.1/"
   xmlns:cc="http://creativecommons.org/ns#"
   xmlns:rdf="http://www.w3.org/1999/02/22-rdf-syntax-ns#"
   xmlns:svg="http://www.w3.org/2000/svg"
   xmlns="http://www.w3.org/2000/svg"
   xmlns:sodipodi="http://sodipodi.sourceforge.net/DTD/sodipodi-0.dtd"
   xmlns:inkscape="http://www.inkscape.org/namespaces/inkscape"
   xml:space="preserve"
   width="1000"
   height="1000"
   version="1.1"
   style="clip-rule:evenodd;fill-rule:evenodd;image-rendering:optimizeQuality;shape-rendering:geometricPrecision;text-rendering:geometricPrecision"
   viewBox="0 0 1000 1000"
   id="svg10"
   sodipodi:docname="ക്ക്ര.svg"
   inkscape:version="1.0.2 (e86c870879, 2021-01-15)"><metadata
   id="metadata14"><rdf:RDF><cc:Work
       rdf:about=""><dc:format>image/svg+xml</dc:format><dc:type
         rdf:resource="http://purl.org/dc/dcmitype/StillImage" /><dc:title /></cc:Work></rdf:RDF></metadata><sodipodi:namedview
   pagecolor="#ffffff"
   bordercolor="#666666"
   borderopacity="1"
   objecttolerance="10"
   gridtolerance="10"
   guidetolerance="10"
   inkscape:pageopacity="0"
   inkscape:pageshadow="2"
   inkscape:window-width="1920"
   inkscape:window-height="1007"
   id="namedview12"
   showgrid="false"
   inkscape:zoom="0.678"
   inkscape:cx="295.05631"
   inkscape:cy="566.24232"
   inkscape:window-x="1920"
   inkscape:window-y="0"
   inkscape:window-maximized="1"
   inkscape:current-layer="svg10"
   showguides="true"
   inkscape:guide-bbox="true"
   inkscape:document-rotation="0"
   inkscape:snap-to-guides="true"><sodipodi:guide
     position="0,1000"
     orientation="0,1"
     id="guide16"
     inkscape:label=""
     inkscape:locked="true"
     inkscape:color="rgb(0,0,255)" /><sodipodi:guide
     position="1763.3122,2036.1693"
     orientation="1000,0"
     id="guide18" /><sodipodi:guide
     position="0,200"
     orientation="0,1"
     id="guide20"
     inkscape:label="base"
     inkscape:locked="true"
     inkscape:color="rgb(0,0,255)" /><inkscape:grid
     type="xygrid"
     id="grid24"
     originx="-473.37552"
     originy="-489.69235" /><sodipodi:guide
     position="0,0"
     orientation="0,1"
     id="guide34"
     inkscape:label="bottom"
     inkscape:locked="true"
     inkscape:color="rgb(0,0,255)" /><sodipodi:guide
     position="225.05109,1693.3186"
     orientation="0,1"
     id="guide44"
     inkscape:label=""
     inkscape:locked="false"
     inkscape:color="rgb(0,0,255)" /><sodipodi:guide
     position="0,900"
     orientation="0,1"
     id="guide46"
     inkscape:label=""
     inkscape:locked="true"
     inkscape:color="rgb(0,0,255)" /><sodipodi:guide
     position="981.78272,832.14418"
     orientation="-1,0"
     id="guide841"
     inkscape:label="width"
     inkscape:locked="false"
     inkscape:color="rgb(0,0,255)" /><sodipodi:guide
     position="0,1000"
     orientation="0,1000"
     id="guide860" /><sodipodi:guide
     position="1000,1000"
     orientation="1000,0"
     id="guide862" /><sodipodi:guide
     position="1000,0"
     orientation="0,-1000"
     id="guide864" /><sodipodi:guide
     position="0,0"
     orientation="-1000,0"
     id="guide866" /></sodipodi:namedview>
 <defs
   id="defs4"><inkscape:path-effect
   effect="fillet_chamfer"
   id="path-effect855"
   is_visible="true"
   lpeversion="1"
   satellites_param="F,0,0,1,0,0,0,1 @ F,0,0,1,0,0,0,1 @ F,0,0,1,0,0,0,1 @ F,0,0,1,0,0,0,1 @ F,0,0,1,0,0,0,1 @ F,0,0,1,0,0,0,1 @ F,0,0,1,0,0,0,1 @ F,0,0,1,0,0,0,1 @ F,0,0,1,0,0,0,1 @ F,0,0,1,0,0,0,1 @ F,0,0,1,0,0,0,1 @ F,0,0,1,0,0,0,1 @ F,0,0,1,0,0,0,1 @ F,0,0,1,0,0,0,1 @ F,0,0,1,0,0,0,1 @ F,0,0,1,0,0,0,1 @ F,0,0,1,0,0,0,1 @ F,0,1,1,0,19.783,0,1 @ F,0,1,1,0,19.783,0,1 @ F,0,0,1,0,0,0,1 @ F,0,0,1,0,0,0,1 @ F,0,0,1,0,0,0,1 @ F,0,0,1,0,0,0,1 @ F,0,0,1,0,0,0,1 @ F,0,0,1,0,0,0,1 @ F,0,0,1,0,0,0,1 @ F,0,0,1,0,0,0,1 @ F,0,0,1,0,0,0,1 @ F,0,0,1,0,0,0,1 @ F,0,0,1,0,0,0,1 @ F,0,0,1,0,0,0,1 @ F,0,0,1,0,0,0,1 @ F,0,0,1,0,0,0,1 @ F,0,0,1,0,0,0,1 @ F,0,0,1,0,0,0,1 @ F,0,0,1,0,0,0,1 @ F,0,0,1,0,0,0,1 @ F,0,0,1,0,0,0,1 @ F,0,0,1,0,0,0,1 @ F,0,0,1,0,0,0,1 @ F,0,0,1,0,0,0,1 @ F,0,0,1,0,0,0,1 @ F,0,0,1,0,0,0,1 @ F,0,0,1,0,0,0,1 @ F,0,0,1,0,0,0,1 @ F,0,0,1,0,0,0,1 @ F,0,0,1,0,0,0,1 @ F,0,0,1,0,0,0,1 @ F,0,0,1,0,0,0,1 @ F,0,0,1,0,0,0,1 @ F,0,0,1,0,0,0,1 @ F,0,0,1,0,0,0,1 @ F,0,0,1,0,0,0,1 @ F,0,0,1,0,0,0,1 @ F,0,0,1,0,0,0,1 @ F,0,0,1,0,0,0,1 @ F,0,0,1,0,0,0,1 @ F,0,0,1,0,0,0,1 @ F,0,0,1,0,0,0,1 @ F,0,0,1,0,0,0,1 @ F,0,0,1,0,0,0,1 @ F,0,0,1,0,0,0,1 @ F,0,0,1,0,0,0,1 @ F,0,0,1,0,0,0,1 @ F,0,0,1,0,34.529296,0,1 @ F,0,0,1,0,34.529296,0,1 @ F,0,0,1,0,0,0,1 @ F,0,0,1,0,0,0,1 @ F,0,0,1,0,0,0,1 @ F,0,0,1,0,0,0,1 @ F,0,0,1,0,0,0,1 @ F,0,0,1,0,0,0,1 @ F,0,0,1,0,0,0,1 @ F,0,0,1,0,0,0,1 @ F,0,0,1,0,0,0,1 @ F,0,0,1,0,0,0,1 @ F,0,0,1,0,0,0,1 @ F,0,0,1,0,0,0,1 @ F,0,0,1,0,0,0,1 @ F,0,0,1,0,0,0,1 @ F,0,0,1,0,0,0,1 @ F,0,0,1,0,0,0,1 @ F,0,0,1,0,0,0,1 @ F,0,0,1,0,0,0,1 @ F,0,0,1,0,0,0,1 @ F,0,0,1,0,0,0,1 @ F,0,0,1,0,0,0,1 @ F,0,0,1,0,0,0,1 @ F,0,0,1,0,0,0,1 @ F,0,0,1,0,0,0,1 @ F,0,0,1,0,0,0,1 @ F,0,0,1,0,0,0,1"
   unit="px"
   method="auto"
   mode="F"
   radius="0"
   chamfer_steps="1"
   flexible="false"
   use_knot_distance="true"
   apply_no_radius="true"
   apply_with_radius="true"
   only_selected="true"
   hide_knots="false" /><inkscape:path-effect
   effect="spiro"
   id="path-effect1521"
   is_visible="true"
   lpeversion="1" /><inkscape:path-effect
   effect="spiro"
   id="path-effect858"
   is_visible="true"
   lpeversion="1" /><inkscape:path-effect
   effect="spiro"
   id="path-effect854"
   is_visible="true"
   lpeversion="1" />
  <style
   type="text/css"
   id="style2">
   <![CDATA[
    .fil0 {fill:#EF7F1A;fill-rule:nonzero}
   ]]>
  </style>
 <inkscape:path-effect
   effect="spiro"
   id="path-effect1214"
   is_visible="true"
   lpeversion="1" /><inkscape:path-effect
   effect="spiro"
   id="path-effect1195"
   is_visible="true"
   lpeversion="1" /><inkscape:path-effect
   effect="spiro"
   id="path-effect992"
   is_visible="true"
   lpeversion="1" /><inkscape:path-effect
   effect="spiro"
   id="path-effect287"
   is_visible="true"
   lpeversion="1" /><inkscape:path-effect
   effect="spiro"
   id="path-effect1032"
   is_visible="true"
   lpeversion="1" /><inkscape:path-effect
   effect="spiro"
   id="path-effect1218"
   is_visible="true"
   lpeversion="1" /><inkscape:path-effect
   effect="spiro"
   id="path-effect309"
   is_visible="true"
   lpeversion="1" /><inkscape:path-effect
   effect="spiro"
   id="path-effect1176"
   is_visible="true"
   lpeversion="1" /></defs>
 
<path
   id="path1164-3-3-2-0"
   style="display:inline;fill:#1a1a1a;fill-rule:nonzero;stroke:none;stroke-width:2.83729;stroke-linecap:butt;stroke-linejoin:miter;stroke-miterlimit:4;stroke-dasharray:none;stroke-opacity:1"
   d="m 424.9654,436.41709 c -39.07988,14.76006 -74.92676,37.95516 -104.55161,67.40792 -41.80059,41.55778 -71.40968,97.29819 -73.6866,156.19771 -0.313,8.0968 -0.11011,16.27761 1.68446,24.17923 1.79458,7.90162 5.26197,15.55362 10.83518,21.43541 4.97851,5.25417 11.47437,8.92387 18.34186,11.21066 6.86749,2.28678 14.11628,3.24332 21.34586,3.59686 35.84538,1.75293 71.6628,-11.43769 99.87728,-33.61667 36.17773,-28.43876 59.78334,-70.40637 73.85711,-114.2187 26.13179,-81.34952 21.17575,-172.46705 -14.64189,-250.04096 -10.84431,-23.48662 -24.99086,-46.37783 -46.14564,-61.26728 -10.57739,-7.44472 -22.80619,-12.71472 -35.63315,-14.38034 -12.82695,-1.66562 -26.24803,0.39017 -37.58166,6.62346 -13.7691,7.57275 -23.79163,20.90121 -29.52106,35.53365 -5.72943,14.63245 -7.46997,30.54845 -7.53281,46.26248 -0.198,49.51457 15.81467,98.08297 39.47042,141.58167 14.22312,26.15377 31.49779,51.07897 54.18524,70.3558 6.3431,5.38954 13.08306,10.31143 20.14492,14.7173 9.26448,5.78009 10.56163,15.16142 2.18383,22.17473 l -76.32157,63.89114 c -8.3778,7.01331 -16.44527,3.93342 -18.18926,-6.85225 -1.75576,-10.85849 -3.63929,-21.69631 -5.65011,-32.51047 -8.32924,-44.79463 -18.86554,-89.25807 -33.68784,-132.34211 -14.13863,-41.09684 -32.11717,-80.77434 -46.84318,-121.66439 -14.726,-40.89005 -26.26082,-83.51696 -26.77571,-126.97482 -0.2726,-23.0082 2.69238,-46.48908 12.61944,-67.24733 10.68523,-22.34364 29.4736,-40.77927 52.1808,-50.66843 21.3582,-9.30166 45.69391,-10.974421 68.50588,-6.25132 21.59312,4.47074 41.799,14.46345 59.73494,27.29124 17.93594,12.82779 33.70895,28.45715 48.33589,44.95875 35.70985,40.28658 65.13308,86.42489 84.26681,136.74489 27.30818,71.8181 33.01884,151.44991 17.90532,226.78355 -16.68479,83.1657 -60.5379,163.03637 -130.27216,211.32767 -35.58706,24.64421 -77.00484,40.53113 -119.74049,47.41882 -23.49121,3.78607 -47.92125,4.84455 -70.76946,-1.79856 -23.98648,-6.97406 -45.54056,-22.72141 -58.42476,-44.12202 -16.09257,-26.7297 -17.85831,-59.76917 -14.43531,-90.78096 10.80629,-97.90322 71.08474,-188.28145 155.43171,-239.148 29.95252,-18.06326 62.63722,-31.404 96.33363,-40.78413 38.778,-10.7947 79.28059,-16.39731 119.408,-13.22727 40.12742,3.17005 79.91038,15.36855 113.20612,37.98829 48.14082,32.70487 80.15362,85.48823 96.50499,141.34322 15.10461,51.59616 17.81259,107.17052 4.81135,159.33642 -3.7363,14.99146 -8.78289,29.75596 -16.39387,43.20128 -7.61097,13.44533 -17.88712,25.56936 -30.79959,34.05298 -11.69819,7.68583 -25.35408,12.22723 -39.27198,13.71433 -13.91791,1.48709 -28.0882,-0.0334 -41.56294,-3.82164 -29.21041,-8.21215 -54.85949,-27.01298 -73.88639,-50.64906 -19.0269,-23.63608 -31.71035,-51.92888 -39.69053,-81.20351 -18.00257,-66.0409 -12.58188,-135.95958 -5.66869,-204.06024 5.6428,-55.58631 12.28186,-111.52036 29.59072,-164.64363 17.30887,-53.12327 46.12057,-103.80169 89.58802,-138.90524 20.22966,-16.33711 43.4591,-29.10424 68.4064,-36.4372 24.9473,-7.33296 51.6197,-9.15205 77.15868,-4.26321 31.55305,6.04009 60.70281,22.18383 84.58518,43.67128 23.88236,21.48746 42.69911,48.17422 57.59434,76.63841 46.72176,89.28345 54.80269,193.88755 49.52677,294.51867 -3.01518,57.51052 -10.15357,115.1362 -27.01778,170.20116 -16.8642,55.06496 -43.79844,107.67224 -83.05761,149.80617 -40.43366,43.39442 -92.8988,74.52648 -148.67488,94.70037 -55.77607,20.17389 -114.91348,29.76521 -174.06643,34.11087 -72.43417,5.32137 -146.12788,2.80558 -216.25178,-16.10642 C 235.7159,942.49532 169.09988,906.37429 121.06563,851.89735 70.836545,794.93119 43.258215,720.81737 31.044905,645.85778 18.831595,570.8982 21.003822,494.41517 24.012452,418.52675 26.701623,350.69622 30.040135,282.79642 38.922657,215.49625 42.537462,188.10798 47.068578,160.84067 52.505039,133.75508 56.257692,115.05858 75.22999,100 94.299994,100 h 79.834026 c 19.07001,0 26.56179,13.26023 17.61947,30.1016 -18.61978,35.06729 -34.37488,71.65585 -47.04447,109.28437 -32.26754,95.83422 -44.28112,197.74068 -42.84365,298.85114 0.68556,48.22158 4.43982,96.7272 16.94411,143.30437 12.5043,46.57718 34.14568,91.36375 67.25636,126.42761 42.13193,44.61726 100.82947,71.22195 161.11672,82.67829 60.28725,11.45634 122.42668,8.70286 183.35874,1.417 86.84039,-10.38381 176.40199,-31.74298 242.81683,-88.6477 43.51969,-37.28799 74.4095,-88.02994 92.65803,-142.35626 18.24853,-54.32632 24.30084,-112.2071 23.12005,-169.50425 -0.66041,-32.04628 -3.57624,-64.2226 -11.84013,-95.19208 -8.2639,-30.96948 -22.05391,-60.79495 -42.80076,-85.2279 -16.22415,-19.1067 -36.66152,-34.74753 -59.7113,-44.59623 -23.04977,-9.8487 -48.71038,-13.80649 -73.55403,-10.47751 -28.25376,3.78592 -54.88571,16.90689 -76.51787,35.47187 -21.63215,18.56497 -38.40158,42.40977 -50.51828,68.21275 -21.57298,45.9405 -28.47211,97.15955 -35.87467,147.37035 -3.83065,25.9829 -7.87716,52.14665 -6.60058,78.37937 1.27657,26.23271 8.29403,52.9008 24.501,73.56766 6.07083,7.74142 13.39855,14.56973 21.8972,19.52529 8.49865,4.95556 18.19712,7.99444 28.03408,8.13169 9.48097,0.13229 18.93184,-2.43881 27.25164,-6.98714 8.3198,-4.54833 15.51971,-11.03686 21.25509,-18.58747 12.09648,-15.92497 17.48968,-36.2399 17.83922,-56.23508 0.34954,-19.99519 -4.05346,-39.7977 -9.97168,-58.90017 -10.11971,-32.66374 -25.37408,-64.77775 -50.66984,-87.78759 -24.42033,-22.21353 -56.97709,-34.47724 -89.87764,-37.18778 -32.90056,-2.71053 -66.12953,3.71681 -97.01226,15.38089 z"
   sodipodi:nodetypes="aaaaaaaaaaaaccaaaaaaaaacaaaaaaaaaaaaaaaaaaaaaaccaaaaaaaaaaaaaaaa"
   inkscape:path-effect="#path-effect1521;#path-effect855"
   inkscape:original-d="m 424.9654,436.41709 c -40.39051,9.38277 -77.22628,36.21888 -104.55161,67.40792 -37.93673,43.30086 -68.71524,98.84402 -73.6866,156.19771 -1.36158,15.70828 1.87893,33.97937 12.51964,45.61464 9.5291,10.41977 25.56954,14.57854 39.68772,14.80752 35.12301,0.56966 72.1425,-12.05902 99.87728,-33.61667 35.79726,-27.82444 62.29967,-70.3773 73.85711,-114.2187 21.28243,-80.73165 29.17457,-178.97297 -14.64189,-250.04096 -24.1206,-39.12235 -75.59886,-83.06995 -119.36045,-69.02416 -28.50048,9.14756 -34.75926,51.9517 -37.05387,81.79613 -3.75581,48.84935 17.54095,97.76999 39.47042,141.58167 13.2494,26.47023 32.40084,50.31435 54.18524,70.3558 10.94711,10.07125 19.59306,23.94459 37.4981,24.1933 l -106.66027,89.2886 c 4.99065,-21.21945 -5.05187,-34.84471 -8.67002,-52.06145 -9.36184,-44.54774 -21.60918,-88.45304 -33.68784,-132.34211 -22.93534,-83.33795 -69.19685,-162.31604 -73.61889,-248.63921 -1.16679,-22.77718 1.82953,-47.15406 12.61944,-67.24733 11.46992,-21.35961 30.15203,-40.54297 52.1808,-50.66843 20.83463,-9.57658 46.28374,-11.90545 68.50588,-6.25132 41.99451,10.68495 78.00264,41.04725 108.07083,72.24999 37.15202,38.55387 67.65184,85.8468 84.26681,136.74489 23.53154,72.0862 35.69574,153.07023 17.90532,226.78355 -19.41432,80.44182 -74.22268,164.44285 -130.27216,211.32767 -33.55572,27.69657 -77.47306,39.90948 -119.74049,47.41882 -23.23361,4.12774 -48.49245,5.98435 -70.76946,-1.79856 -23.0389,-8.04908 -45.86005,-23.20058 -58.42476,-44.12202 -15.77535,-26.26744 -20.80225,-60.80927 -14.43531,-90.78096 19.7558,-92.9983 82.56096,-178.08385 155.43171,-239.148 26.72703,-22.39669 61.84041,-35.6691 96.33363,-40.78413 77.13262,-11.43807 165.68879,-15.25486 232.61412,24.76102 48.96388,29.2764 78.85051,87.09483 96.50499,141.34322 16.44371,50.52797 18.42539,107.97369 4.81135,159.33642 -7.73144,29.16898 -21.82222,60.91704 -47.19346,77.25426 -22.82353,14.69667 -55.51591,19.68315 -80.83492,9.89269 C 563.59945,773.10762 525.07235,716.27131 504.12687,662.17633 479.55695,598.72067 486.73293,525.14459 498.45818,458.11609 517.18895,351.03984 536.97316,227.4337 617.63692,154.56722 c 37.38706,-33.77308 96.34043,-51.44038 145.56508,-40.70041 60.65671,13.23425 111.46276,66.35728 142.17952,120.30969 49.25439,86.51281 57.71539,195.30472 49.52677,294.51867 C 945.62961,641.11622 922.64162,767.03004 844.8329,848.7025 764.9348,932.56809 637.83995,973.10232 522.09159,977.51374 382.11336,982.84862 215.90983,954.98443 121.06563,851.89735 20.835191,742.95591 34.88381,566.16208 24.012452,418.52675 19.029035,350.8509 30.398654,282.81784 38.922657,215.49625 43.836766,176.68518 59.951552,117.06231 59.770698,100 H 208.66332 c 0,0 -49.5189,90.34724 -63.9543,139.38597 -28.41815,96.53972 -50.8953,198.53823 -42.84365,298.85114 7.53592,93.88761 15.52943,205.26523 84.20047,269.73198 86.17441,80.8985 226.45888,90.62849 344.47546,84.09529 86.03248,-4.76261 181.72426,-27.88614 242.81683,-88.6477 78.621,-78.19504 112.3741,-201.02667 115.77808,-311.86051 C 891.0652,428.74826 876.7028,357.68814 834.49532,311.13619 802.21,275.52769 748.78202,249.0545 701.22999,256.06245 c -54.07515,7.96929 -97.885,57.44782 -127.03615,103.68462 -26.96387,42.76754 -32.80463,96.90563 -35.87467,147.37035 -3.09684,50.90515 -10.52081,109.60133 17.90042,151.94703 10.60317,15.79802 30.90587,27.4607 49.93128,27.65698 18.27762,0.18857 38.53689,-10.25438 48.50673,-25.57461 20.98186,-32.24193 16.54837,-77.65961 7.86754,-115.13525 C 654.90061,513.09603 640.08468,476.78922 611.8553,458.22398 559.45281,423.76114 486.05794,422.2252 424.9654,436.41709 Z" /></svg>
