<?xml version="1.0" encoding="UTF-8" standalone="no"?>
<svg
   xmlns:dc="http://purl.org/dc/elements/1.1/"
   xmlns:cc="http://creativecommons.org/ns#"
   xmlns:rdf="http://www.w3.org/1999/02/22-rdf-syntax-ns#"
   xmlns:svg="http://www.w3.org/2000/svg"
   xmlns="http://www.w3.org/2000/svg"
   xmlns:sodipodi="http://sodipodi.sourceforge.net/DTD/sodipodi-0.dtd"
   xmlns:inkscape="http://www.inkscape.org/namespaces/inkscape"
   xml:space="preserve"
   width="1000"
   height="1000"
   version="1.1"
   style="clip-rule:evenodd;fill-rule:evenodd;image-rendering:optimizeQuality;shape-rendering:geometricPrecision;text-rendering:geometricPrecision"
   viewBox="0 0 1000 1000"
   id="svg10"
   sodipodi:docname="ഖൃ.svg"
   inkscape:version="1.0.2 (e86c870879, 2021-01-15)"><metadata
   id="metadata14"><rdf:RDF><cc:Work
       rdf:about=""><dc:format>image/svg+xml</dc:format><dc:type
         rdf:resource="http://purl.org/dc/dcmitype/StillImage" /><dc:title /></cc:Work></rdf:RDF></metadata><sodipodi:namedview
   pagecolor="#ffffff"
   bordercolor="#666666"
   borderopacity="1"
   objecttolerance="10"
   gridtolerance="10"
   guidetolerance="10"
   inkscape:pageopacity="0"
   inkscape:pageshadow="2"
   inkscape:window-width="1920"
   inkscape:window-height="1007"
   id="namedview12"
   showgrid="false"
   inkscape:zoom="0.84890884"
   inkscape:cx="470.53675"
   inkscape:cy="528.63283"
   inkscape:window-x="1920"
   inkscape:window-y="0"
   inkscape:window-maximized="1"
   inkscape:current-layer="svg10"
   showguides="true"
   inkscape:guide-bbox="true"
   inkscape:document-rotation="0"><sodipodi:guide
     position="0,1000"
     orientation="0,1"
     id="guide16"
     inkscape:label=""
     inkscape:locked="true"
     inkscape:color="rgb(0,0,255)" /><sodipodi:guide
     position="1763.3122,2036.1693"
     orientation="1000,0"
     id="guide18" /><sodipodi:guide
     position="0,200"
     orientation="0,1"
     id="guide20"
     inkscape:label="base"
     inkscape:locked="true"
     inkscape:color="rgb(0,0,255)" /><inkscape:grid
     type="xygrid"
     id="grid24"
     originx="-473.37552"
     originy="-489.69235" /><sodipodi:guide
     position="0,0"
     orientation="0,1"
     id="guide34"
     inkscape:label="bottom"
     inkscape:locked="true"
     inkscape:color="rgb(0,0,255)" /><sodipodi:guide
     position="225.05109,1693.3186"
     orientation="0,1"
     id="guide44"
     inkscape:label=""
     inkscape:locked="false"
     inkscape:color="rgb(0,0,255)" /><sodipodi:guide
     position="0,900"
     orientation="0,1"
     id="guide46"
     inkscape:label=""
     inkscape:locked="true"
     inkscape:color="rgb(0,0,255)" /><sodipodi:guide
     position="658.45096,562.87776"
     orientation="-1,0"
     id="guide841"
     inkscape:label="width"
     inkscape:locked="false"
     inkscape:color="rgb(0,0,255)" /></sodipodi:namedview>
 <defs
   id="defs4"><inkscape:path-effect
   effect="fillet_chamfer"
   id="path-effect858"
   is_visible="true"
   lpeversion="1"
   satellites_param="F,0,0,1,0,0,0,1 @ F,0,0,1,0,0,0,1 @ F,0,0,1,0,0,0,1 @ F,0,0,1,0,14.739959,0,1 @ F,0,0,1,0,14.739959,0,1 @ F,0,0,1,0,0,0,1 @ F,0,0,1,0,0,0,1 @ F,0,0,1,0,0,0,1 @ F,0,0,1,0,0,0,1 @ F,0,0,1,0,0,0,1 @ F,0,0,1,0,0,0,1 @ F,0,0,1,0,0,0,1 @ F,0,0,1,0,0,0,1 @ F,0,0,1,0,0,0,1 @ F,0,0,1,0,0,0,1 @ F,0,0,1,0,0,0,1 @ F,0,0,1,0,0,0,1 @ F,0,0,1,0,0,0,1 @ F,0,0,1,0,0,0,1 @ F,0,0,1,0,0,0,1 @ F,0,0,1,0,0,0,1 @ F,0,0,1,0,0,0,1 @ F,0,0,1,0,0,0,1 @ F,0,0,1,0,0,0,1 @ F,0,0,1,0,0,0,1 @ F,0,0,1,0,0,0,1 @ F,0,0,1,0,0,0,1 @ F,0,0,1,0,0,0,1 @ F,0,0,1,0,0,0,1 @ F,0,0,1,0,0,0,1 @ F,0,0,1,0,0,0,1 @ F,0,0,1,0,0,0,1 @ F,0,0,1,0,0,0,1 @ F,0,0,1,0,0,0,1 @ F,0,0,1,0,0,0,1 @ F,0,0,1,0,0,0,1 @ F,0,0,1,0,0,0,1 @ F,0,0,1,0,0,0,1 @ F,0,0,1,0,0,0,1 @ F,0,0,1,0,0,0,1 @ F,0,0,1,0,0,0,1 @ F,0,0,1,0,0,0,1 @ F,0,0,1,0,0,0,1 @ F,0,0,1,0,0,0,1 @ F,0,0,1,0,0,0,1 @ F,0,0,1,0,0,0,1 @ F,0,0,1,0,0,0,1 @ F,0,0,1,0,0,0,1 @ F,0,0,1,0,14.739959,0,1 @ F,0,0,1,0,21.39589,0,1 @ F,0,0,1,0,0,0,1 @ F,0,0,1,0,0,0,1 @ F,0,0,1,0,0,0,1 @ F,0,0,1,0,0,0,1 @ F,0,0,1,0,0,0,1 @ F,0,0,1,0,0,0,1 @ F,0,0,1,0,0,0,1 @ F,0,0,1,0,0,0,1 @ F,0,0,1,0,0,0,1 @ F,0,0,1,0,0,0,1 @ F,0,0,1,0,0,0,1 @ F,0,0,1,0,0,0,1 @ F,0,0,1,0,0,0,1 @ F,0,0,1,0,0,0,1 @ F,0,0,1,0,0,0,1 @ F,0,0,1,0,0,0,1 @ F,0,0,1,0,0,0,1 @ F,0,0,1,0,0,0,1 @ F,0,0,1,0,0,0,1 @ F,0,0,1,0,0,0,1 @ F,0,0,1,0,0,0,1 @ F,0,0,1,0,0,0,1 @ F,0,0,1,0,0,0,1 @ F,0,0,1,0,0,0,1 @ F,0,0,1,0,0,0,1 @ F,0,0,1,0,0,0,1 @ F,0,0,1,0,0.060493491,0,1"
   unit="px"
   method="auto"
   mode="F"
   radius="0"
   chamfer_steps="1"
   flexible="false"
   use_knot_distance="true"
   apply_no_radius="true"
   apply_with_radius="true"
   only_selected="true"
   hide_knots="false" /><inkscape:path-effect
   effect="spiro"
   id="path-effect855"
   is_visible="true"
   lpeversion="1" /><inkscape:path-effect
   effect="spiro"
   id="path-effect854"
   is_visible="true"
   lpeversion="1" />
  <style
   type="text/css"
   id="style2">
   <![CDATA[
    .fil0 {fill:#EF7F1A;fill-rule:nonzero}
   ]]>
  </style>
 <inkscape:path-effect
   effect="spiro"
   id="path-effect1214"
   is_visible="true"
   lpeversion="1" /><inkscape:path-effect
   effect="spiro"
   id="path-effect1195"
   is_visible="true"
   lpeversion="1" /><inkscape:path-effect
   effect="spiro"
   id="path-effect992"
   is_visible="true"
   lpeversion="1" /><inkscape:path-effect
   effect="spiro"
   id="path-effect287"
   is_visible="true"
   lpeversion="1" /><inkscape:path-effect
   effect="fillet_chamfer"
   id="path-effect845"
   is_visible="true"
   lpeversion="1"
   satellites_param="F,0,0,1,0,0,0,1 @ F,0,0,1,0,0,0,1 @ F,0,0,1,0,0,0,1 @ F,0,0,1,0,0,0,1 @ F,0,0,1,0,0,0,1 @ F,0,0,1,0,0,0,1 @ F,0,0,1,0,0,0,1 @ F,0,0,1,0,0,0,1 @ F,0,0,1,0,0,0,1 @ F,0,0,1,0,0,0,1 @ F,0,0,1,0,0,0,1 @ F,0,0,1,0,0,0,1 @ F,0,0,1,0,0,0,1 @ F,0,0,1,0,0,0,1 @ F,0,0,1,0,0,0,1 @ F,0,0,1,0,0,0,1 @ F,0,0,1,0,0,0,1 @ F,0,0,1,0,0,0,1 @ F,0,0,1,0,0,0,1 @ F,0,0,1,0,0,0,1 @ F,0,0,1,0,0,0,1 @ F,0,0,1,0,0,0,1 @ F,0,0,1,0,0,0,1 @ F,0,0,1,0,0,0,1 @ F,0,0,1,0,0,0,1 @ F,0,0,1,0,0,0,1 @ F,0,0,1,0,0,0,1 @ F,0,0,1,0,0,0,1 @ F,0,0,1,0,0,0,1 @ F,0,0,1,0,0,0,1 @ F,0,0,1,0,0,0,1 @ F,0,0,1,0,0,0,1 @ F,0,0,1,0,0,0,1 @ F,0,0,1,0,20.811842,0,1 @ F,0,0,1,0,22.51079,0,1 @ F,0,0,1,0,0,0,1 @ F,0,0,1,0,0,0,1 @ F,0,0,1,0,0,0,1 @ F,0,0,1,0,0,0,1 @ F,0,0,1,0,0,0,1 @ F,0,0,1,0,0,0,1 @ F,0,0,1,0,0,0,1 @ F,0,1,1,0,22.51079,0,1 @ F,0,1,1,0,22.51079,0,1 @ F,0,0,1,0,0,0,1 @ F,0,0,1,0,0,0,1 @ F,0,0,1,0,0,0,1 @ F,0,0,1,0,0,0,1 @ F,0,0,1,0,0,0,1 @ F,0,0,1,0,0,0,1 @ F,0,0,1,0,0,0,1 @ F,0,0,1,0,0,0,1 @ F,0,0,1,0,0,0,1 @ F,0,0,1,0,0,0,1"
   unit="px"
   method="auto"
   mode="F"
   radius="0"
   chamfer_steps="1"
   flexible="false"
   use_knot_distance="true"
   apply_no_radius="true"
   apply_with_radius="true"
   only_selected="true"
   hide_knots="false" /></defs>
 
<path
   style="clip-rule:evenodd;display:inline;fill:#1c71d8;fill-rule:nonzero;stroke:none;stroke-width:1.96742;stroke-linecap:butt;stroke-linejoin:miter;stroke-miterlimit:4;stroke-dasharray:none;stroke-opacity:1;image-rendering:optimizeQuality;shape-rendering:geometricPrecision;text-rendering:geometricPrecision"
   d="m 651.76379,627.64076 c -6.7377,-80.45838 -21.6655,-159.96907 -33.6108,-239.82054 -7.69291,-51.42521 -14.16246,-103.63727 -8.3392,-155.30759 4.73383,-42.00373 17.67198,-83.06138 37.81291,-120.22079 3.87885,-7.15636 0.71479,-12.804069 -7.42586,-12.814224 L 511.08776,99.31656 c -8.14065,-0.01015 -16.42234,6.37012 -17.97009,14.36107 -3.79748,19.60614 -5.23715,39.66921 -4.26101,59.6162 2.83929,58.01958 25.68893,112.87058 41.02572,168.8984 16.72872,61.11277 24.61785,124.32343 29.19477,187.51894 1.80074,24.86353 3.07989,50.05114 -1.5005,74.55538 -4.58039,24.50424 -15.58913,48.57492 -34.72077,64.55672 -14.63639,12.22665 -33.18501,19.05142 -51.98419,22.26166 -18.79919,3.21023 -37.99776,3.01186 -57.06351,2.55124 -39.70915,-0.95935 -79.39177,-3.01613 -118.98732,-6.1672 l 17.19983,74.9889 c 37.25013,-41.20004 68.73471,-87.60546 93.25168,-137.44454 35.57239,-72.31297 56.43101,-152.58423 54.51778,-233.15035 -1.12343,-47.30768 -10.2798,-95.01416 -31.976,-137.06833 -21.69621,-42.05418 -56.63987,-78.151 -100.35676,-96.26487 -36.32523,-15.05118 -77.57749,-17.1536 -115.71712,-7.59176 -38.13963,9.56184 -73.1032,30.51067 -100.83705,58.38348 -30.124575,30.27552 -51.691047,68.29219 -66.639822,108.30008 -25.453477,68.12196 -32.26999,141.94628 -30.85885,214.65453 0.82154,42.32942 4.361845,84.67907 12.36443,126.25326 6.434315,33.42688 16.206886,67.2366 37.115654,94.09883 10.454385,13.43112 23.64308,24.89524 38.974868,32.28613 15.3318,7.3909 32.85459,10.57389 49.65554,7.85044 20.26541,-3.28504 38.57325,-14.9916 52.25948,-30.29407 13.68623,-15.30247 23.06047,-34.0363 29.91532,-53.38803 C 253.77195,652.3894 252.56167,587.88344 227.60952,533.1586 198.35709,469.00242 136.39718,420.82742 67.010388,408.28975 l -9.90434,113.65893 c 15.928229,-8.61312 34.625906,-12.00506 52.564602,-9.53574 17.93869,2.46931 35.0245,10.78697 48.03318,23.38334 11.84665,11.47117 20.26056,26.37181 24.34281,42.34886 4.08224,15.97705 3.8656,32.98239 -0.24407,48.95241 -3.46228,13.4543 -9.886,26.48968 -20.27915,35.70859 -5.19657,4.60945 -11.33945,8.19875 -18.00447,10.15551 -6.66502,1.95676 -13.85352,2.24922 -20.58381,0.53032 -10.27283,-2.62365 -18.97347,-9.78538 -25.133867,-18.41464 C 91.640877,646.44807 87.787071,636.39466 84.666968,626.26157 71.45142,583.34171 70.44184,537.49028 74.725928,492.78668 c 4.389157,-45.79997 14.660871,-92.14941 39.463932,-130.90131 12.40153,-19.37595 28.3833,-36.6081 47.5389,-49.34735 19.1556,-12.73925 41.54222,-20.87966 64.51377,-22.118 28.98013,-1.56225 58.12909,8.01733 81.65705,25.00921 23.52796,16.99187 41.52494,41.11212 52.8711,67.82454 13.71157,32.28132 17.87973,68.29578 13.74983,103.12443 -4.12989,34.82865 -16.3928,68.47364 -34.03285,98.78733 -19.49785,33.50625 -45.63733,63.12288 -76.41545,86.68787 -6.463,4.94834 -10.34451,15.0722 -8.39777,22.97666 l 20.66101,83.89081 c 2.82581,11.47377 14.45998,18.65744 26.03847,16.29807 14.68261,-2.99192 29.42674,-5.6819 44.21995,-8.06757 88.70587,-14.30539 179.17928,-17.61578 268.69341,-9.83139 l -80.49013,-74.75107 c 8.40032,27.93246 8.9815,58.17201 1.66067,86.40662 -11.02584,42.52393 -39.79636,79.49116 -76.39839,103.78406 -36.60203,24.29291 -80.57402,36.35921 -124.47463,37.96872 -10.27928,0.37687 -20.81659,0.15997 -30.46786,-3.39791 -4.82564,-1.77894 -9.37681,-4.39767 -13.10478,-7.94078 -3.72797,-3.54311 -6.61019,-8.03406 -7.94614,-13.00061 -1.21109,-4.50235 -1.13062,-9.31602 0.0158,-13.83527 1.14643,-4.51926 3.33933,-8.74586 6.19923,-12.4281 5.71982,-7.36446 13.95249,-12.43747 22.59662,-15.93471 17.51002,-7.0842 37.11592,-8.1669 55.71517,-4.8723 18.59926,3.2946 36.26151,10.81402 52.57676,20.33239 18.98108,11.07362 36.3427,24.91801 51.36355,40.95797 l 104.52239,-71.63133 c -48.03156,-7.12622 -95.85285,-15.6696 -143.38071,-25.61528 -48.5736,-10.16451 -99.19045,-21.77801 -147.14105,-8.99318 -23.9753,6.39241 -46.67825,19.17462 -62.30848,38.44568 -7.81512,9.63553 -13.78847,20.81007 -17.07649,32.77286 -3.28801,11.9628 -3.8569,24.7111 -1.25987,36.84267 3.28786,15.35867 11.60346,29.44418 22.72429,40.53588 11.12083,11.0917 24.96287,19.26522 39.70006,24.69791 29.47436,10.86537 61.78747,10.83407 93.11505,8.51524 42.42657,-3.14037 84.8449,-10.31158 124.61135,-25.42794 39.76646,-15.11637 76.90364,-38.48083 104.6706,-70.71236 31.17201,-36.18406 49.4135,-82.22071 57.76368,-129.24534 0.006,-0.0329 0.0153,-0.0862 0.0211,-0.11912 8.33387,-47.02647 7.25419,-95.2409 3.26868,-142.83392 z"
   id="use1029-8"
   sodipodi:nodetypes="aaaccaaaaaccaaaaaaaaaaccaaaaaaaaccaccasaaaccaaaaa"
   inkscape:path-effect="#path-effect855;#path-effect858"
   inkscape:original-d="m 651.76379,627.64076 c 3.28458,-80.6546 -25.83784,-159.4742 -33.6108,-239.82054 -4.99223,-51.60285 -15.40497,-103.94757 -8.3392,-155.30759 6.38122,-46.38413 45.127,-133.016627 45.127,-133.016627 l -158.59298,-0.19783 c 0,0 -9.19289,49.262837 -7.49115,73.995657 3.9769,57.79989 29.72179,112.07531 41.02572,168.8984 12.34245,62.04359 32.36492,124.3391 29.19477,187.51894 -2.40128,47.85657 -1.81813,105.75882 -36.22127,139.1121 -26.765,25.94823 -71.90704,21.61188 -109.0477,24.8129 -39.56899,3.41031 -118.98732,-6.1672 -118.98732,-6.1672 l 17.19983,74.9889 c 0,0 71.03497,-86.73333 93.25168,-137.44454 32.02758,-73.10523 65.90026,-154.153 54.51778,-233.15035 -12.75192,-88.50162 -50.4084,-197.50657 -132.33276,-233.3332 -67.93189,-29.70753 -156.41698,7.42357 -216.55417,50.79172 -34.379534,24.79293 -52.217133,68.44249 -66.639822,108.30008 -24.596675,67.97375 -29.226745,142.38585 -30.85885,214.65453 -0.954732,42.27498 -5.078153,87.7326 12.36443,126.25326 25.290316,55.8518 64.439434,133.51335 125.746062,134.2354 39.09175,0.46041 68.00553,-47.24573 82.1748,-83.6821 C 254.95631,654.3958 254.29991,585.41317 227.60952,533.1586 196.76426,472.76964 66.048728,398.35576 67.010388,408.28975 l -9.90434,113.65893 c -7.6914,-17.23032 75.256672,-8.59275 100.597782,13.8476 23.56473,20.86732 34.07891,61.44935 24.09874,91.30127 -7.92174,23.6949 -34.03769,49.16676 -58.86743,46.39442 -20.13749,-2.24843 -30.796613,-28.3956 -38.268172,-47.2304 C 68.215859,584.79054 62.217627,535.61224 74.725928,492.78668 98.351395,411.8985 143.07865,304.01522 226.24253,290.42002 c 53.76962,-8.78998 111.65115,43.38601 134.52815,92.83375 28.40245,61.3908 7.52581,140.2498 -20.28302,201.91176 -17.81265,39.49692 -51.57075,67.86214 -88.33811,95.35224 l 29.30248,118.9782 c 0,0 43.17098,-10.04217 65.14184,-12.5446 89.04866,-10.14244 268.69341,-9.83139 268.69341,-9.83139 l -80.49013,-74.75107 c 0,0 14.66929,60.70352 1.66067,86.40662 -37.00668,73.11967 -139.15235,126.83767 -200.87302,141.75278 -18.46154,4.46132 -46.54094,-6.01028 -51.51878,-24.3393 -4.46389,-16.43659 13.22517,-35.33158 28.81166,-42.19808 33.36875,-14.70033 74.81419,1.00969 108.29193,15.46009 20.10518,8.67824 51.36355,40.95797 51.36355,40.95797 l 104.52239,-71.63133 c 0,0 -95.1608,-31.26954 -143.38071,-25.61528 -82.23544,9.64291 -226.43988,16.28009 -227.78589,99.06803 -0.93278,57.37169 98.17512,72.43766 155.5394,73.74903 82.85254,1.89405 176.0706,-32.60541 229.28195,-96.1403 59.70462,-71.28793 57.26981,-179.28824 61.05349,-272.19838 z" /></svg>
