<?xml version="1.0" encoding="UTF-8" standalone="no"?>
<svg
   xmlns:dc="http://purl.org/dc/elements/1.1/"
   xmlns:cc="http://creativecommons.org/ns#"
   xmlns:rdf="http://www.w3.org/1999/02/22-rdf-syntax-ns#"
   xmlns:svg="http://www.w3.org/2000/svg"
   xmlns="http://www.w3.org/2000/svg"
   xmlns:sodipodi="http://sodipodi.sourceforge.net/DTD/sodipodi-0.dtd"
   xmlns:inkscape="http://www.inkscape.org/namespaces/inkscape"
   xml:space="preserve"
   width="1000"
   height="1000"
   version="1.1"
   style="clip-rule:evenodd;fill-rule:evenodd;image-rendering:optimizeQuality;shape-rendering:geometricPrecision;text-rendering:geometricPrecision"
   viewBox="0 0 1000 1000"
   id="svg10"
   sodipodi:docname="ഗ്ഗ.svg"
   inkscape:version="1.0.2 (e86c870879, 2021-01-15)"><path
   style="clip-rule:evenodd;display:inline;fill:#000000;fill-rule:evenodd;stroke:none;stroke-width:2.09522px;stroke-linecap:butt;stroke-linejoin:miter;stroke-opacity:1;image-rendering:optimizeQuality;shape-rendering:geometricPrecision;text-rendering:geometricPrecision"
   d="m 253.09654,591.31246 c -5.84215,-46.78223 -7.85703,-94.31706 -1.45723,-141.02627 6.3998,-46.70922 21.47108,-92.69665 47.77599,-131.82157 19.00029,-28.26031 44.45101,-53.14874 75.94651,-66.09823 15.74776,-6.47475 32.84977,-9.85191 49.85854,-9.06714 17.00877,0.78478 33.90299,5.80406 48.17487,15.08994 12.81334,8.3369 23.34806,19.98297 31.03535,33.19627 7.68729,13.2133 12.57346,27.96623 15.06314,43.04891 4.97935,30.16536 0.45059,61.16005 -7.16889,90.76894 -17.3592,67.45687 -51.09569,130.82409 -98.49301,181.86589 -19.98515,21.52184 -42.34344,40.83517 -66.52122,57.50868 -18.71635,12.90718 -23.42274,35.92527 -9.09215,53.58834 l 40.89884,50.40956 c 14.33059,17.66307 34.04827,15.41708 44.26946,-4.90219 11.89634,-23.64938 24.02228,-47.18326 36.37557,-70.59719 61.99329,-117.49959 131.18531,-236.55249 143.32421,-368.8475 3.52371,-38.40288 1.9903,-77.79704 -9.99973,-114.44996 -11.99003,-36.65292 -35.16616,-70.48428 -68.12877,-90.50088 -24.01869,-14.58539 -52.46058,-21.361453 -80.5525,-20.672199 -28.09193,0.689254 -55.80202,8.680789 -80.69187,21.724049 -49.77971,26.08651 -87.23657,71.32611 -114.57855,120.42745 -35.6995,64.10995 -55.99257,135.48953 -74.47193,206.50398 -8.73921,33.58395 -17.14128,67.25563 -25.20454,101.00825 -41.16751,-97.17649 -50.118887,-207.68704 -25.12808,-310.22237 8.59611,-35.26918 21.10161,-69.58173 37.18249,-102.12672 10.07294,-20.38592 1.61574,-32.83766 -20.76619,-28.78808 L 40.526072,125.46545 C 18.144141,129.51503 0.15543226,151.23921 0.96147206,173.9697 5.3921813,298.9166 23.577565,423.374 55.11782,544.3566 c 15.718518,60.29334 34.742107,119.72476 56.95273,177.94023 8.10764,21.25067 32.75649,32.84198 54.48333,26.11188 l 71.60678,-22.18092 c 21.72684,-6.7301 34.3504,-29.94975 29.36655,-52.14017 -6.13992,-27.33777 -10.95866,-54.97231 -14.43067,-82.77516 z"
   id="path1087-1-75"
   inkscape:path-effect="#path-effect872;#path-effect875"
   inkscape:original-d="m 253.09654,591.31246 c -1.29731,-92.24136 -13.33861,-202.48343 46.31876,-272.84784 39.67652,-46.79747 120.27484,-89.74013 173.97992,-60.07543 50.03777,27.63901 46.54808,110.36034 38.9296,167.01412 -9.18812,68.32625 -23.66301,110.01239 -98.49301,181.86589 -30.5506,30.1365 -101.5612,79.1152 -101.5612,79.1152 l 92.7945,114.3732 c 0,0 46.4324,12.4164 54.6972,-107.4812 8.2648,-119.8978 142.90103,-236.9432 143.32421,-368.8475 0.23457,-73.1121 -10.67033,-176.7581 -78.1285,-204.95084 -92.69356,-38.739357 -207.26813,48.04175 -275.82292,121.4793 -49.93307,53.48952 -51.37349,127.38733 -74.47193,206.50398 -9.68627,33.32254 -25.20454,101.00825 -25.20454,101.00825 0,0 -41.13871,-207.7191 -25.12808,-310.22237 C 132.02186,189.00595 181.27292,100 181.27292,100 L 0,132.79787 c 0,0 23.903409,276.71334 55.11782,411.55873 17.134999,74.02272 72.09613,216.23804 72.09613,216.23804 l 150.28664,-46.55278 c -58.3169,-49.78588 -23.81747,-81.0228 -24.40405,-122.7294 z"
   sodipodi:nodetypes="aaaacccsaaaccaccacca" /><metadata
   id="metadata14"><rdf:RDF><cc:Work
       rdf:about=""><dc:format>image/svg+xml</dc:format><dc:type
         rdf:resource="http://purl.org/dc/dcmitype/StillImage" /><dc:title /></cc:Work></rdf:RDF></metadata><sodipodi:namedview
   pagecolor="#ffffff"
   bordercolor="#666666"
   borderopacity="1"
   objecttolerance="10"
   gridtolerance="10"
   guidetolerance="10"
   inkscape:pageopacity="0"
   inkscape:pageshadow="2"
   inkscape:window-width="1920"
   inkscape:window-height="1007"
   id="namedview12"
   showgrid="false"
   inkscape:zoom="0.678"
   inkscape:cx="576.68747"
   inkscape:cy="869.35151"
   inkscape:window-x="1920"
   inkscape:window-y="0"
   inkscape:window-maximized="1"
   inkscape:current-layer="svg10"
   showguides="true"
   inkscape:guide-bbox="true"
   inkscape:document-rotation="0"
   inkscape:snap-to-guides="true"><sodipodi:guide
     position="0,1000"
     orientation="0,1"
     id="guide16"
     inkscape:label=""
     inkscape:locked="true"
     inkscape:color="rgb(0,0,255)" /><sodipodi:guide
     position="1763.3122,2036.1693"
     orientation="1000,0"
     id="guide18" /><sodipodi:guide
     position="0,200"
     orientation="0,1"
     id="guide20"
     inkscape:label="base"
     inkscape:locked="true"
     inkscape:color="rgb(0,0,255)" /><inkscape:grid
     type="xygrid"
     id="grid24"
     originx="-473.37552"
     originy="-489.69235" /><sodipodi:guide
     position="0,0"
     orientation="0,1"
     id="guide34"
     inkscape:label="bottom"
     inkscape:locked="true"
     inkscape:color="rgb(0,0,255)" /><sodipodi:guide
     position="225.05109,1693.3186"
     orientation="0,1"
     id="guide44"
     inkscape:label=""
     inkscape:locked="false"
     inkscape:color="rgb(0,0,255)" /><sodipodi:guide
     position="0,900"
     orientation="0,1"
     id="guide46"
     inkscape:label=""
     inkscape:locked="true"
     inkscape:color="rgb(0,0,255)" /><sodipodi:guide
     position="632.68971,523.94959"
     orientation="-1,0"
     id="guide841"
     inkscape:label="width"
     inkscape:locked="false"
     inkscape:color="rgb(0,0,255)" /><sodipodi:guide
     position="0,1000"
     orientation="0,1000"
     id="guide860" /><sodipodi:guide
     position="1000,1000"
     orientation="1000,0"
     id="guide862" /><sodipodi:guide
     position="1000,0"
     orientation="0,-1000"
     id="guide864" /><sodipodi:guide
     position="0,0"
     orientation="-1000,0"
     id="guide866" /></sodipodi:namedview>
 <defs
   id="defs4"><inkscape:path-effect
   effect="fillet_chamfer"
   id="path-effect877"
   is_visible="true"
   lpeversion="1"
   satellites_param="F,0,0,1,0,0,0,1 @ F,0,0,1,0,0,0,1 @ F,0,0,1,0,0,0,1 @ F,0,0,1,0,0,0,1 @ F,0,0,1,0,0,0,1 @ F,0,0,1,0,0,0,1 @ F,0,0,1,0,0,0,1 @ F,0,0,1,0,0,0,1 @ F,0,0,1,0,0,0,1 @ F,0,1,1,0,37.911241,0,1 @ F,0,1,1,0,37.911241,0,1 @ F,0,0,1,0,0,0,1 @ F,0,0,1,0,0,0,1 @ F,0,0,1,0,0,0,1 @ F,0,0,1,0,0,0,1 @ F,0,0,1,0,0,0,1 @ F,0,0,1,0,0,0,1 @ F,0,0,1,0,0,0,1 @ F,0,0,1,0,0,0,1 @ F,0,0,1,0,0,0,1 @ F,0,0,1,0,0,0,1 @ F,0,0,1,0,0,0,1 @ F,0,1,1,0,37.911241,0,1 @ F,0,1,1,0,37.911241,0,1 @ F,0,0,1,0,0,0,1 @ F,0,1,1,0,37.911241,0,1 @ F,0,1,1,0,37.911241,0,1"
   unit="px"
   method="auto"
   mode="F"
   radius="0"
   chamfer_steps="1"
   flexible="false"
   use_knot_distance="true"
   apply_no_radius="true"
   apply_with_radius="true"
   only_selected="true"
   hide_knots="false" /><inkscape:path-effect
   effect="fillet_chamfer"
   id="path-effect875"
   is_visible="true"
   lpeversion="1"
   satellites_param="F,0,0,1,0,0,0,1 @ F,0,0,1,0,0,0,1 @ F,0,0,1,0,0,0,1 @ F,0,0,1,0,0,0,1 @ F,0,0,1,0,0,0,1 @ F,0,0,1,0,0,0,1 @ F,0,0,1,0,0,0,1 @ F,0,0,1,0,0,0,1 @ F,0,0,1,0,0,0,1 @ F,0,0,1,0,0,0,1 @ F,0,1,1,0,41.184061,0,1 @ F,0,1,1,0,41.184061,0,1 @ F,0,0,1,0,0,0,1 @ F,0,0,1,0,0,0,1 @ F,0,0,1,0,0,0,1 @ F,0,0,1,0,0,0,1 @ F,0,0,1,0,0,0,1 @ F,0,0,1,0,0,0,1 @ F,0,0,1,0,0,0,1 @ F,0,0,1,0,0,0,1 @ F,0,0,1,0,0,0,1 @ F,0,0,1,0,0,0,1 @ F,0,1,1,0,41.184061,0,1 @ F,0,1,1,0,41.184061,0,1 @ F,0,0,1,0,0,0,1 @ F,0,1,1,0,41.184061,0,1 @ F,0,1,1,0,41.184061,0,1"
   unit="px"
   method="auto"
   mode="F"
   radius="0"
   chamfer_steps="1"
   flexible="false"
   use_knot_distance="true"
   apply_no_radius="true"
   apply_with_radius="true"
   only_selected="true"
   hide_knots="false" /><inkscape:path-effect
   effect="spiro"
   id="path-effect872"
   is_visible="true"
   lpeversion="1" /><inkscape:path-effect
   effect="spiro"
   id="path-effect876"
   is_visible="true"
   lpeversion="1" /><inkscape:path-effect
   effect="spiro"
   id="path-effect873"
   is_visible="true"
   lpeversion="1" /><inkscape:path-effect
   effect="spiro"
   id="path-effect859"
   is_visible="true"
   lpeversion="1" /><inkscape:path-effect
   effect="spiro"
   id="path-effect862"
   is_visible="true"
   lpeversion="1" /><inkscape:path-effect
   effect="spiro"
   id="path-effect1521"
   is_visible="true"
   lpeversion="1" /><inkscape:path-effect
   effect="spiro"
   id="path-effect858"
   is_visible="true"
   lpeversion="1" /><inkscape:path-effect
   effect="spiro"
   id="path-effect854"
   is_visible="true"
   lpeversion="1" />
  <style
   type="text/css"
   id="style2">
   <![CDATA[
    .fil0 {fill:#EF7F1A;fill-rule:nonzero}
   ]]>
  </style>
 <inkscape:path-effect
   effect="spiro"
   id="path-effect1214"
   is_visible="true"
   lpeversion="1" /><inkscape:path-effect
   effect="spiro"
   id="path-effect1195"
   is_visible="true"
   lpeversion="1" /><inkscape:path-effect
   effect="spiro"
   id="path-effect992"
   is_visible="true"
   lpeversion="1" /><inkscape:path-effect
   effect="spiro"
   id="path-effect287"
   is_visible="true"
   lpeversion="1" /><inkscape:path-effect
   effect="spiro"
   id="path-effect1032"
   is_visible="true"
   lpeversion="1" /><inkscape:path-effect
   effect="spiro"
   id="path-effect1218"
   is_visible="true"
   lpeversion="1" /><inkscape:path-effect
   effect="spiro"
   id="path-effect309"
   is_visible="true"
   lpeversion="1" /><inkscape:path-effect
   effect="spiro"
   id="path-effect1176"
   is_visible="true"
   lpeversion="1" /><inkscape:path-effect
   effect="spiro"
   id="path-effect1026"
   is_visible="true"
   lpeversion="1" /><inkscape:path-effect
   effect="spiro"
   id="path-effect1030"
   is_visible="true"
   lpeversion="1" /><inkscape:path-effect
   effect="fillet_chamfer"
   id="path-effect861"
   is_visible="true"
   lpeversion="1"
   satellites_param="F,0,0,1,0,0,0,1 @ F,0,0,1,0,0,0,1 @ F,0,0,1,0,0,0,1 @ F,0,0,1,0,0,0,1 @ F,0,0,1,0,0,0,1 @ F,0,0,1,0,0,0,1 @ F,0,0,1,0,0,0,1 @ F,0,0,1,0,0,0,1 @ F,0,0,1,0,0,0,1 @ F,0,0,1,0,0,0,1 @ F,0,0,1,0,18.745288,0,1 @ F,0,0,1,0,22.258793,0,1 @ F,0,0,1,0,0,0,1 @ F,0,0,1,0,0,0,1 @ F,0,0,1,0,0,0,1 @ F,0,0,1,0,0,0,1 @ F,0,0,1,0,0,0,1 @ F,0,0,1,0,0,0,1 @ F,0,0,1,0,0,0,1 @ F,0,0,1,0,0,0,1 @ F,0,0,1,0,0,0,1 @ F,0,0,1,0,0,0,1 @ F,0,0,1,0,44.937544,0,1 @ F,0,0,1,0,24.008986,0,1 @ F,0,0,1,0,0,0,1 @ F,0,0,1,0,20.706957,0,1 @ F,0,0,1,0,19.829215,0,1"
   unit="px"
   method="auto"
   mode="F"
   radius="0"
   chamfer_steps="1"
   flexible="false"
   use_knot_distance="true"
   apply_no_radius="true"
   apply_with_radius="true"
   only_selected="true"
   hide_knots="false" /></defs>
 
<path
   style="clip-rule:evenodd;display:inline;fill:#000000;fill-rule:evenodd;stroke:none;stroke-width:1.36291px;stroke-linecap:butt;stroke-linejoin:miter;stroke-opacity:1;image-rendering:optimizeQuality;shape-rendering:geometricPrecision;text-rendering:geometricPrecision"
   d="m 359.57758,1040.5104 c -7.939,-63.24729 8.25742,-130.4508 49.39122,-179.14636 15.97379,-18.9103 35.97016,-35.16007 59.52347,-42.77603 11.77666,-3.80799 24.33075,-5.38676 36.63411,-4.03859 12.30337,1.34817 24.34021,5.673 34.36497,12.93211 14.0592,10.18052 23.67621,25.82195 28.21424,42.57636 4.53803,16.75441 4.23821,34.56777 0.99138,51.61952 -4.95916,26.04463 -16.68167,50.55366 -32.31249,71.96846 -15.63082,21.41483 -35.1056,39.83083 -56.22068,55.86423 -13.43204,10.1994 -27.56466,19.4753 -42.26187,27.748 -18.23795,10.2657 -21.48076,28.4092 -6.12263,42.6402 l 13.99922,12.9717 c 15.35813,14.231 36.63022,11.2544 48.39307,-6.0648 6.61373,-9.7377 13.43235,-19.3364 20.45001,-28.7872 26.67314,-35.9213 56.26581,-69.7756 80.05639,-107.66757 23.79058,-37.89198 41.82063,-80.88205 42.10989,-125.62253 0.14603,-22.58731 -4.33166,-45.33068 -14.17406,-65.66133 -9.8424,-20.33064 -25.15766,-38.16516 -44.43917,-49.93084 -17.03388,-10.39417 -36.88336,-15.90365 -56.82325,-16.6734 -19.93989,-0.76976 -39.95186,3.12274 -58.50337,10.47348 -37.103,14.7015 -67.69444,42.75673 -91.60026,74.71418 -31.72901,42.41553 -52.72738,91.83354 -70.51219,141.7285 -6.71837,18.84827 -13.02335,37.8439 -18.90887,56.96861 -27.78696,-53.23163 -34.66154,-117.03631 -18.85148,-174.96526 6.9577,-25.49339 18.18505,-49.80442 32.98864,-71.6922 11.7179,-17.32545 6.84626,-26.99514 -13.84249,-23.77533 l -74.96067,11.66619 c -20.68875,3.21981 -37.61097,22.81545 -36.63467,43.72831 3.37729,72.3436 17.04334,144.20643 40.52466,212.71859 10.33954,30.168 22.56876,59.6879 36.5868,88.3324 9.20261,18.8046 34.03201,29.7761 54.42418,25.0273 l 38.90092,-9.059 c 20.39217,-4.7488 30.14872,-24.2719 24.94996,-44.5361 -2.80821,-10.9461 -4.92753,-22.069 -6.33498,-33.2816 z"
   id="path1087-1-75-3"
   inkscape:path-effect="#path-effect876;#path-effect877"
   inkscape:original-d="m 359.57758,1040.5104 c 0.32814,-60.98413 -4.18008,-133.35183 49.39122,-179.14636 30.39682,-25.98421 90.23211,-50.61337 130.52255,-33.88251 37.53917,15.58839 34.5744,62.20921 29.20562,94.19588 -7.99992,47.66266 -32.39449,87.30729 -88.53317,127.83269 -22.91956,16.9969 -76.19286,44.6208 -76.19286,44.6208 l 69.61594,64.5065 c 0,0 34.83435,7.0028 41.03472,-60.6194 6.2004,-67.6223 121.56326,-149.71879 122.16628,-233.2901 0.29753,-41.23479 -8.00502,-99.69147 -58.61323,-115.59217 -69.54023,-21.84898 -155.17181,27.32436 -206.92688,68.51426 -46.07186,36.66686 -53.18336,97.10675 -70.51219,141.7285 -7.2668,18.79389 -18.90887,56.96861 -18.90887,56.96861 0,0 -31.13224,-117.18547 -18.85148,-174.96526 7.68679,-36.16571 56.60644,-101.29751 56.60644,-101.29751 l -149.88125,23.32615 c 0,0 16.62886,168.51497 41.35028,250.61692 12.58484,41.7953 54.08769,121.9581 54.08769,121.9581 l 112.7475,-26.2558 c -43.75028,-28.0791 -18.43491,-45.6946 -18.30831,-69.2193 z"
   sodipodi:nodetypes="aaaacccsaaaccaccacca" /></svg>
