<?xml version="1.0" encoding="UTF-8" standalone="no"?>
<svg
   xmlns:dc="http://purl.org/dc/elements/1.1/"
   xmlns:cc="http://creativecommons.org/ns#"
   xmlns:rdf="http://www.w3.org/1999/02/22-rdf-syntax-ns#"
   xmlns:svg="http://www.w3.org/2000/svg"
   xmlns="http://www.w3.org/2000/svg"
   xmlns:sodipodi="http://sodipodi.sourceforge.net/DTD/sodipodi-0.dtd"
   xmlns:inkscape="http://www.inkscape.org/namespaces/inkscape"
   xml:space="preserve"
   width="1000"
   height="1000"
   version="1.1"
   style="clip-rule:evenodd;fill-rule:evenodd;image-rendering:optimizeQuality;shape-rendering:geometricPrecision;text-rendering:geometricPrecision"
   viewBox="0 0 1000 1000"
   id="svg10"
   sodipodi:docname="ഗ്ദ.svg"
   inkscape:version="1.0.2 (e86c870879, 2021-01-15)"><metadata
   id="metadata14"><rdf:RDF><cc:Work
       rdf:about=""><dc:format>image/svg+xml</dc:format><dc:type
         rdf:resource="http://purl.org/dc/dcmitype/StillImage" /><dc:title /></cc:Work></rdf:RDF></metadata><sodipodi:namedview
   pagecolor="#ffffff"
   bordercolor="#666666"
   borderopacity="1"
   objecttolerance="10"
   gridtolerance="10"
   guidetolerance="10"
   inkscape:pageopacity="0"
   inkscape:pageshadow="2"
   inkscape:window-width="1920"
   inkscape:window-height="1007"
   id="namedview12"
   showgrid="false"
   inkscape:zoom="0.678"
   inkscape:cx="486.6231"
   inkscape:cy="574.36626"
   inkscape:window-x="1920"
   inkscape:window-y="0"
   inkscape:window-maximized="1"
   inkscape:current-layer="svg10"
   showguides="true"
   inkscape:guide-bbox="true"
   inkscape:document-rotation="0"
   inkscape:snap-to-guides="true"><sodipodi:guide
     position="0,1000"
     orientation="0,1"
     id="guide16"
     inkscape:label=""
     inkscape:locked="true"
     inkscape:color="rgb(0,0,255)" /><sodipodi:guide
     position="1763.3122,2036.1693"
     orientation="1000,0"
     id="guide18" /><sodipodi:guide
     position="0,200"
     orientation="0,1"
     id="guide20"
     inkscape:label="base"
     inkscape:locked="true"
     inkscape:color="rgb(0,0,255)" /><inkscape:grid
     type="xygrid"
     id="grid24"
     originx="-473.37552"
     originy="-489.69235" /><sodipodi:guide
     position="0,0"
     orientation="0,1"
     id="guide34"
     inkscape:label="bottom"
     inkscape:locked="true"
     inkscape:color="rgb(0,0,255)" /><sodipodi:guide
     position="225.05109,1693.3186"
     orientation="0,1"
     id="guide44"
     inkscape:label=""
     inkscape:locked="false"
     inkscape:color="rgb(0,0,255)" /><sodipodi:guide
     position="0,900"
     orientation="0,1"
     id="guide46"
     inkscape:label=""
     inkscape:locked="true"
     inkscape:color="rgb(0,0,255)" /><sodipodi:guide
     position="644.64576,549.55645"
     orientation="-1,0"
     id="guide841"
     inkscape:label="width"
     inkscape:locked="false"
     inkscape:color="rgb(0,0,255)" /><sodipodi:guide
     position="0,1000"
     orientation="0,1000"
     id="guide860" /><sodipodi:guide
     position="1000,1000"
     orientation="1000,0"
     id="guide862" /><sodipodi:guide
     position="1000,0"
     orientation="0,-1000"
     id="guide864" /><sodipodi:guide
     position="0,0"
     orientation="-1000,0"
     id="guide866" /></sodipodi:namedview>
 <defs
   id="defs4"><inkscape:path-effect
   effect="fillet_chamfer"
   id="path-effect860"
   is_visible="true"
   lpeversion="1"
   satellites_param="F,0,0,1,0,0,0,1 @ F,0,0,1,0,0,0,1 @ F,0,0,1,0,0,0,1 @ F,0,0,1,0,0,0,1 @ F,0,0,1,0,0,0,1 @ F,0,0,1,0,0,0,1 @ F,0,0,1,0,0,0,1 @ F,0,0,1,0,0,0,1 @ F,0,0,1,0,0,0,1 @ F,0,0,1,0,0,0,1 @ F,0,1,1,0,21.219351,0,1 @ F,0,1,1,0,21.219351,0,1 @ F,0,0,1,0,0,0,1 @ F,0,0,1,0,0,0,1 @ F,0,0,1,0,0,0,1 @ F,0,0,1,0,0,0,1 @ F,0,0,1,0,0,0,1 @ F,0,0,1,0,0,0,1 @ F,0,1,1,0,21.219351,0,1 @ F,0,1,1,0,21.219351,0,1 @ F,0,0,1,0,0,0,1 @ F,0,0,1,0,0,0,1 @ F,0,0,1,0,0,0,1 @ F,0,0,1,0,0,0,1 @ F,0,0,1,0,0,0,1 @ F,0,0,1,0,0,0,1 @ F,0,0,1,0,0,0,1 @ F,0,0,1,0,0,0,1 @ F,0,0,1,0,0,0,1 @ F,0,0,1,0,0,0,1 @ F,0,0,1,0,0,0,1 @ F,0,0,1,0,0,0,1 @ F,0,0,1,0,0,0,1 @ F,0,0,1,0,0,0,1 @ F,0,0,1,0,31.870793,0,1 @ F,0,0,1,0,31.870793,0,1 @ F,0,0,1,0,0,0,1 @ F,0,1,1,0,21.219351,0,1 @ F,0,1,1,0,21.219351,0,1"
   unit="px"
   method="auto"
   mode="F"
   radius="0"
   chamfer_steps="1"
   flexible="false"
   use_knot_distance="true"
   apply_no_radius="true"
   apply_with_radius="true"
   only_selected="true"
   hide_knots="false" /><inkscape:path-effect
   effect="spiro"
   id="path-effect873"
   is_visible="true"
   lpeversion="1" /><inkscape:path-effect
   effect="spiro"
   id="path-effect859"
   is_visible="true"
   lpeversion="1" /><inkscape:path-effect
   effect="spiro"
   id="path-effect862"
   is_visible="true"
   lpeversion="1" /><inkscape:path-effect
   effect="spiro"
   id="path-effect1521"
   is_visible="true"
   lpeversion="1" /><inkscape:path-effect
   effect="spiro"
   id="path-effect858"
   is_visible="true"
   lpeversion="1" /><inkscape:path-effect
   effect="spiro"
   id="path-effect854"
   is_visible="true"
   lpeversion="1" />
  <style
   type="text/css"
   id="style2">
   <![CDATA[
    .fil0 {fill:#EF7F1A;fill-rule:nonzero}
   ]]>
  </style>
 <inkscape:path-effect
   effect="spiro"
   id="path-effect1214"
   is_visible="true"
   lpeversion="1" /><inkscape:path-effect
   effect="spiro"
   id="path-effect1195"
   is_visible="true"
   lpeversion="1" /><inkscape:path-effect
   effect="spiro"
   id="path-effect992"
   is_visible="true"
   lpeversion="1" /><inkscape:path-effect
   effect="spiro"
   id="path-effect287"
   is_visible="true"
   lpeversion="1" /><inkscape:path-effect
   effect="spiro"
   id="path-effect1032"
   is_visible="true"
   lpeversion="1" /><inkscape:path-effect
   effect="spiro"
   id="path-effect1218"
   is_visible="true"
   lpeversion="1" /><inkscape:path-effect
   effect="spiro"
   id="path-effect309"
   is_visible="true"
   lpeversion="1" /><inkscape:path-effect
   effect="spiro"
   id="path-effect1176"
   is_visible="true"
   lpeversion="1" /><inkscape:path-effect
   effect="spiro"
   id="path-effect1026"
   is_visible="true"
   lpeversion="1" /><inkscape:path-effect
   effect="spiro"
   id="path-effect1030"
   is_visible="true"
   lpeversion="1" /></defs>
 
<path
   style="clip-rule:evenodd;display:inline;fill:#000000;fill-rule:evenodd;stroke:none;stroke-width:2.09522px;stroke-linecap:butt;stroke-linejoin:miter;stroke-opacity:1;image-rendering:optimizeQuality;shape-rendering:geometricPrecision;text-rendering:geometricPrecision"
   d="m 250.03218,632.67091 c -6.48702,-55.01529 -7.16606,-111.03398 2.57154,-165.56785 9.73761,-54.53387 30.17654,-107.63869 63.26443,-152.06791 20.13436,-27.03569 45.51704,-51.14099 76.63391,-64.10486 15.55843,-6.48194 32.40878,-10.06493 49.25819,-9.64342 16.84941,0.42151 33.68341,4.92106 48.0878,13.67285 15.5636,9.45609 28.05311,23.79559 35.59916,40.36968 7.54604,16.57409 10.16447,35.30494 7.79699,53.36147 -2.29562,17.50847 -9.24505,34.37136 -19.86295,48.48081 -10.6179,14.10946 -24.87184,25.44167 -40.96615,32.70732 -8.77828,3.96289 -18.09714,6.71764 -27.61366,8.19833 -11.5608,1.79877 -21.04884,10.67434 -20.92165,22.39277 l 0.42341,39.01199 c 0.12719,11.71843 9.71395,20.10088 21.41994,20.434 10.70436,0.30463 21.37883,1.66667 31.81373,4.07312 17.88009,4.12342 35.24005,11.42845 49.50992,22.96409 19.49349,15.75838 32.52406,39.45002 34.78508,64.4142 2.26101,24.96419 -6.44984,50.84261 -23.78813,68.94528 -17.62105,18.3979 -43.20667,28.15367 -68.66967,28.94104 -25.463,0.78737 -50.73486,-6.89162 -73.00948,-19.25387 -19.21627,-10.66489 -36.45994,-24.8548 -50.68503,-41.60465 -7.58175,-8.9274 -12.86498,-7.43732 -12.99119,4.28112 l -1.09153,101.34778 c -0.12621,11.71844 7.80088,26.3493 18.31258,31.51907 41.5403,20.42999 89.69487,27.36637 135.26441,19.05341 57.08675,-10.41397 109.84916,-45.29919 139.35807,-95.2649 14.75445,-24.98285 23.71502,-53.41357 25.5678,-82.36878 1.85278,-28.95521 -3.44152,-58.38697 -15.61793,-84.72272 -15.45849,-33.4344 -42.07468,-61.59288 -74.58627,-78.90822 40.83939,-34.08783 69.52552,-82.44708 79.86071,-134.62964 8.19771,-41.39038 4.85371,-85.39621 -12.03782,-124.06199 -16.89153,-38.66578 -47.69527,-71.57823 -86.30749,-88.59184 -25.07376,-11.04819 -52.9501,-15.32044 -80.28403,-13.41982 -27.33393,1.90062 -54.11478,9.88316 -78.56816,22.24392 -48.90676,24.72151 -87.71703,66.31684 -116.97076,112.6552 -47.94857,75.95129 -71.8295,164.24815 -93.98914,251.2919 -8.56136,33.62926 -16.963,67.29919 -25.20454,101.00825 -38.67108,-97.90955 -47.537026,-207.36532 -25.12808,-310.22237 11.63936,-53.42467 31.56162,-105.0308 58.77344,-152.45389 8.75899,-15.26464 2.70727,-24.25919 -14.52902,-20.69101 L 28.144707,134.89768 c -17.236292,3.56818 -31.3567239,20.73057 -31.1702088,38.33107 1.4735637,139.05295 20.0034368,277.92068 55.0789598,412.4863 17.394653,66.73378 38.840595,132.41122 64.177582,196.55171 4.30555,10.89946 16.99338,16.87531 28.18774,13.40775 l 109.74826,-33.99562 c 11.19436,-3.46756 17.65861,-15.41523 14.77716,-26.77423 -8.52745,-33.61615 -14.85082,-67.79143 -18.91202,-102.23375 z"
   id="path1087-1-75"
   inkscape:path-effect="#path-effect1030;#path-effect860"
   inkscape:original-d="m 250.03218,632.67091 c 0.43742,-108.12807 -5.57183,-236.43971 65.83597,-317.63576 40.51741,-46.07135 125.84524,-98.11862 173.9799,-60.07543 25.65144,20.2736 46.99459,59.48982 43.39615,93.73115 -3.53428,33.63079 -32.15745,63.25888 -60.8291,81.18813 -14.0346,8.77627 -47.57989,-1.76104 -48.7656,9.373 l 0.88399,81.44819 c -5.49786,18.63334 35.84377,-1.05845 53.00338,3.28902 17.63495,4.4679 39.09736,8.04658 49.50992,22.96409 25.52985,36.57523 40.07566,99.53717 10.99695,133.35948 -30.86018,35.89439 -97.02816,25.40492 -141.67915,9.68717 -27.14377,-9.55498 -8.80283,23.31099 -63.4477,-58.54165 l -1.54857,143.78402 c 66.35857,0 106.41562,51.22671 153.80551,29.35436 91.36095,-42.16678 161.34653,-162.45678 149.30794,-262.3564 -4.33021,-35.93336 -97.15926,5.78 -74.58627,-78.90822 64.31269,10.29637 77.19498,-82.5198 79.86071,-134.62964 3.98996,-77.99585 -25.29184,-185.04111 -98.34531,-212.65383 -93.97416,-35.520319 -206.83608,48.44748 -275.82295,121.4793 -61.41144,65.01222 -70.8907,172.17525 -93.98914,251.2919 -9.68627,33.32254 -25.20454,101.00825 -25.20454,101.00825 0,0 -41.49768,-207.77582 -25.12808,-310.22237 C 131.5123,215.48202 196.71968,100 196.71968,100 L -3.0643606,141.35845 c 0,0 22.1654196,298.78569 55.1178186,444.3566 16.774934,74.10515 72.096132,216.23804 72.096132,216.23804 50.09555,-15.51759 100.19109,-31.03518 150.28664,-46.55278 -58.3169,-49.78588 -24.57279,-81.01901 -24.40405,-122.7294 z"
   sodipodi:nodetypes="aasaaccaaaaccaacaaaccaccacca" /></svg>
