<?xml version="1.0" encoding="UTF-8" standalone="no"?>
<svg
   xmlns:dc="http://purl.org/dc/elements/1.1/"
   xmlns:cc="http://creativecommons.org/ns#"
   xmlns:rdf="http://www.w3.org/1999/02/22-rdf-syntax-ns#"
   xmlns:svg="http://www.w3.org/2000/svg"
   xmlns="http://www.w3.org/2000/svg"
   xmlns:sodipodi="http://sodipodi.sourceforge.net/DTD/sodipodi-0.dtd"
   xmlns:inkscape="http://www.inkscape.org/namespaces/inkscape"
   xml:space="preserve"
   width="1000"
   height="1000"
   version="1.1"
   style="clip-rule:evenodd;fill-rule:evenodd;image-rendering:optimizeQuality;shape-rendering:geometricPrecision;text-rendering:geometricPrecision"
   viewBox="0 0 1000 1000"
   id="svg10"
   sodipodi:docname="ഗ്ന.svg"
   inkscape:version="1.0.2 (e86c870879, 2021-01-15)"><metadata
   id="metadata14"><rdf:RDF><cc:Work
       rdf:about=""><dc:format>image/svg+xml</dc:format><dc:type
         rdf:resource="http://purl.org/dc/dcmitype/StillImage" /><dc:title /></cc:Work></rdf:RDF></metadata><sodipodi:namedview
   pagecolor="#ffffff"
   bordercolor="#666666"
   borderopacity="1"
   objecttolerance="10"
   gridtolerance="10"
   guidetolerance="10"
   inkscape:pageopacity="0"
   inkscape:pageshadow="2"
   inkscape:window-width="1920"
   inkscape:window-height="1007"
   id="namedview12"
   showgrid="false"
   inkscape:zoom="0.678"
   inkscape:cx="576.68747"
   inkscape:cy="574.36626"
   inkscape:window-x="1920"
   inkscape:window-y="0"
   inkscape:window-maximized="1"
   inkscape:current-layer="svg10"
   showguides="true"
   inkscape:guide-bbox="true"
   inkscape:document-rotation="0"
   inkscape:snap-to-guides="true"><sodipodi:guide
     position="0,1000"
     orientation="0,1"
     id="guide16"
     inkscape:label=""
     inkscape:locked="true"
     inkscape:color="rgb(0,0,255)" /><sodipodi:guide
     position="1763.3122,2036.1693"
     orientation="1000,0"
     id="guide18" /><sodipodi:guide
     position="0,200"
     orientation="0,1"
     id="guide20"
     inkscape:label="base"
     inkscape:locked="true"
     inkscape:color="rgb(0,0,255)" /><inkscape:grid
     type="xygrid"
     id="grid24"
     originx="-473.37552"
     originy="-489.69235" /><sodipodi:guide
     position="0,0"
     orientation="0,1"
     id="guide34"
     inkscape:label="bottom"
     inkscape:locked="true"
     inkscape:color="rgb(0,0,255)" /><sodipodi:guide
     position="225.05109,1693.3186"
     orientation="0,1"
     id="guide44"
     inkscape:label=""
     inkscape:locked="false"
     inkscape:color="rgb(0,0,255)" /><sodipodi:guide
     position="0,900"
     orientation="0,1"
     id="guide46"
     inkscape:label=""
     inkscape:locked="true"
     inkscape:color="rgb(0,0,255)" /><sodipodi:guide
     position="947.56594,531.85959"
     orientation="-1,0"
     id="guide841"
     inkscape:label="width"
     inkscape:locked="false"
     inkscape:color="rgb(0,0,255)" /><sodipodi:guide
     position="0,1000"
     orientation="0,1000"
     id="guide860" /><sodipodi:guide
     position="1000,1000"
     orientation="1000,0"
     id="guide862" /><sodipodi:guide
     position="1000,0"
     orientation="0,-1000"
     id="guide864" /><sodipodi:guide
     position="0,0"
     orientation="-1000,0"
     id="guide866" /></sodipodi:namedview>
 <defs
   id="defs4"><inkscape:path-effect
   effect="fillet_chamfer"
   id="path-effect861"
   is_visible="true"
   lpeversion="1"
   satellites_param="F,0,0,1,0,0,0,1 @ F,0,0,1,0,0,0,1 @ F,0,0,1,0,0,0,1 @ F,0,0,1,0,0,0,1 @ F,0,0,1,0,0,0,1 @ F,0,0,1,0,20.210575,0,1 @ F,0,0,1,0,31.089327,0,1 @ F,0,0,1,0,0,0,1 @ F,0,0,1,0,19.847864,0,1 @ F,0,0,1,0,21.624895,0,1 @ F,0,0,1,0,0,0,1 @ F,0,0,1,0,0,0,1 @ F,0,0,1,0,0,0,1 @ F,0,0,1,0,0,0,1 @ F,0,0,1,0,0,0,1 @ F,0,0,1,0,0,0,1 @ F,0,0,1,0,0,0,1 @ F,0,0,1,0,0,0,1 @ F,0,0,1,0,0,0,1 @ F,0,0,1,0,0,0,1 @ F,0,0,1,0,0,0,1 @ F,0,0,1,0,0,0,1 @ F,0,0,1,0,0,0,1 @ F,0,0,1,0,0,0,1 @ F,0,0,1,0,0,0,1 @ F,0,0,1,0,0,0,1 @ F,0,0,1,0,37.822312,0,1 @ F,0,0,1,0,27.799685,0,1 @ F,0,0,1,0,0,0,1 @ F,0,0,1,0,0,0,1 @ F,0,0,1,0,0,0,1 @ F,0,0,1,0,0,0,1 @ F,0,0,1,0,0,0,1 @ F,0,0,1,0,0,0,1 @ F,0,0,1,0,0,0,1 @ F,0,0,1,0,0,0,1 @ F,0,0,1,0,0,0,1 @ F,0,0,1,0,0,0,1 @ F,0,0,1,0,29.643623,0,1 @ F,0,0,1,0,20.455399,0,1 @ F,0,0,1,0,0,0,1 @ F,0,0,1,0,0,0,1 @ F,0,0,1,0,0,0,1 @ F,0,0,1,0,0,0,1"
   unit="px"
   method="auto"
   mode="F"
   radius="0"
   chamfer_steps="1"
   flexible="false"
   use_knot_distance="true"
   apply_no_radius="true"
   apply_with_radius="true"
   only_selected="true"
   hide_knots="false" /><inkscape:path-effect
   effect="spiro"
   id="path-effect873"
   is_visible="true"
   lpeversion="1" /><inkscape:path-effect
   effect="spiro"
   id="path-effect859"
   is_visible="true"
   lpeversion="1" /><inkscape:path-effect
   effect="spiro"
   id="path-effect862"
   is_visible="true"
   lpeversion="1" /><inkscape:path-effect
   effect="spiro"
   id="path-effect1521"
   is_visible="true"
   lpeversion="1" /><inkscape:path-effect
   effect="spiro"
   id="path-effect858"
   is_visible="true"
   lpeversion="1" /><inkscape:path-effect
   effect="spiro"
   id="path-effect854"
   is_visible="true"
   lpeversion="1" />
  <style
   type="text/css"
   id="style2">
   <![CDATA[
    .fil0 {fill:#EF7F1A;fill-rule:nonzero}
   ]]>
  </style>
 <inkscape:path-effect
   effect="spiro"
   id="path-effect1214"
   is_visible="true"
   lpeversion="1" /><inkscape:path-effect
   effect="spiro"
   id="path-effect1195"
   is_visible="true"
   lpeversion="1" /><inkscape:path-effect
   effect="spiro"
   id="path-effect992"
   is_visible="true"
   lpeversion="1" /><inkscape:path-effect
   effect="spiro"
   id="path-effect287"
   is_visible="true"
   lpeversion="1" /><inkscape:path-effect
   effect="spiro"
   id="path-effect1032"
   is_visible="true"
   lpeversion="1" /><inkscape:path-effect
   effect="spiro"
   id="path-effect1218"
   is_visible="true"
   lpeversion="1" /><inkscape:path-effect
   effect="spiro"
   id="path-effect309"
   is_visible="true"
   lpeversion="1" /><inkscape:path-effect
   effect="spiro"
   id="path-effect1176"
   is_visible="true"
   lpeversion="1" /><inkscape:path-effect
   effect="spiro"
   id="path-effect1026"
   is_visible="true"
   lpeversion="1" /><inkscape:path-effect
   effect="spiro"
   id="path-effect1030"
   is_visible="true"
   lpeversion="1" /><style
   type="text/css"
   id="style2-3">
   <![CDATA[
    .fil0 {fill:#EF7F1A;fill-rule:nonzero}
   ]]>
  </style></defs>
 
<path
   style="clip-rule:evenodd;display:inline;fill:#1a1a1a;fill-rule:evenodd;stroke:none;stroke-width:2.09522px;stroke-linecap:butt;stroke-linejoin:miter;stroke-opacity:1;image-rendering:optimizeQuality;shape-rendering:geometricPrecision;text-rendering:geometricPrecision"
   d="m 427.84805,254.95972 c -21.98042,-4.05058 -45.02645,2.10571 -64.119,13.72555 -19.09255,11.61984 -34.59034,28.36548 -47.8609,46.34988 -32.87963,44.55883 -53.26797,97.62405 -63.04729,152.13024 -9.77932,54.50618 -9.2211,110.50385 -2.78868,165.50552 4.06765,34.78119 10.46977,69.28904 19.14514,103.2156 2.76518,10.81373 -3.3845,22.19118 -14.04668,25.4939 L 153.8468,792.75408 C 137.44549,797.83455 118.84709,789.08197 112.63143,773.0766 88.857061,711.85741 68.618277,649.26521 52.053458,585.71505 15.967081,447.27134 -2.6062333,304.27397 -3.1103924,161.20615 -3.14902,150.24461 5.637329,139.55706 16.371407,137.33494 L 175.54378,104.38375 c 11.69513,-2.42108 15.82192,3.6888 9.68026,13.93077 -29.87503,49.82033 -51.59144,104.52933 -63.95785,161.29115 -22.408946,102.85705 -13.543,212.31282 25.12808,310.22237 8.13085,-33.73619 16.53272,-67.40705 25.20454,-101.00825 22.4337,-86.92521 47.21814,-174.66465 93.98914,-251.2919 35.59375,-58.315 85.97865,-110.65597 150.53523,-133.0167 23.19382,-8.03374 48.71155,-11.97488 72.2811,-5.121362 24.93724,7.251212 45.42632,26.165572 58.41082,48.656652 12.9845,22.49109 19.07609,48.36505 21.9074,74.18035 1.82397,16.63061 2.36308,33.40198 1.61092,50.1154 7.99134,-18.23706 17.36727,-35.86721 28.02046,-52.68867 28.81036,-45.49175 68.1986,-85.76619 117.5623,-107.27808 24.68185,-10.75595 51.61225,-16.641267 78.52702,-15.949002 26.91477,0.692264 53.78203,8.075022 76.6631,22.264482 31.65438,19.63014 54.56587,51.62354 67.17487,86.67144 12.60901,35.0479 15.45938,73.04017 12.75233,110.18871 -7.98849,109.62509 -62.18211,209.70497 -95.45148,314.46481 -17.44047,54.9172 -29.20745,111.63294 -35.08072,168.95236 -2.12904,20.77813 -17.22431,28.50152 -34.76288,17.15534 L 664.04156,737.39459 c -12.89099,-8.33953 -12.42895,-21.11903 0.44169,-29.48498 28.34603,-18.425 54.51903,-40.19412 77.77825,-64.73032 59.30555,-62.56154 98.88551,-142.59819 118.0102,-226.65377 6.75442,-29.6866 11.04794,-60.49608 6.19964,-90.55287 -2.42415,-15.02839 -7.15542,-29.75244 -14.65878,-42.99739 -7.50335,-13.24495 -17.82767,-24.98512 -30.47046,-33.46386 -14.20056,-9.52344 -31.11977,-14.75972 -48.19294,-15.68628 -17.07317,-0.92656 -34.27621,2.38317 -50.09659,8.86908 -31.64078,12.97182 -57.09684,38.19265 -75.69034,66.89263 -22.22922,34.31189 -35.56219,73.92613 -41.89253,114.31637 -6.33034,40.39023 -5.82548,81.61794 -1.84162,122.30667 1.91725,19.58165 4.63603,39.08478 8.14592,58.44446 2.92036,16.10798 -7.38228,29.38468 -23.74883,29.79584 l -113.93011,2.86208 c -11.29364,0.28372 -15.88842,-7.4368 -10.84422,-17.54394 7.28065,-14.58837 13.65756,-29.62782 19.07889,-45.00437 23.53595,-66.75516 28.69673,-139.20635 20.53485,-209.51692 -1.85219,-15.95573 -4.39764,-31.92309 -9.51949,-47.1475 -5.12184,-15.22441 -12.93615,-29.75695 -24.26838,-41.141 -11.15904,-11.21007 -25.67319,-19.13222 -41.22866,-21.9988 z"
   id="path1087-1-75"
   inkscape:path-effect="#path-effect1030;#path-effect861"
   inkscape:original-d="m 427.84805,254.95972 c -42.35896,0.0478 -86.63637,26.13446 -111.9799,60.07543 -64.69393,86.64045 -65.39855,209.50769 -65.83597,317.63576 -0.16874,41.71039 -33.91285,72.94352 24.40405,122.7294 l -150.28664,46.55278 c 0,0 -55.321198,-142.13289 -72.096132,-216.23804 C 19.101059,440.14414 -3.0643606,141.35845 -3.0643606,141.35845 L 196.71968,100 c 0,0 -65.20738,115.48202 -75.45349,179.60567 -16.3696,102.44655 25.12808,310.22237 25.12808,310.22237 0,0 15.51827,-67.68571 25.20454,-101.00825 23.09844,-79.11665 43.30746,-177.60798 93.98914,-251.2919 37.94768,-55.1705 88.78743,-107.11264 150.53523,-133.0167 22.27351,-9.344048 50.643,-15.855102 72.2811,-5.121362 43.82575,21.740082 65.59899,76.182192 80.31822,122.837002 5.02873,15.93931 1.61092,50.1154 1.61092,50.1154 0,0 13.04288,-39.598 28.02046,-52.68867 72.99507,-63.79899 184.04692,-140.076875 272.75242,-100.9626 64.80218,28.57422 76.70664,126.11104 79.9272,196.86015 4.98137,109.43074 -69.5744,208.02104 -95.45148,314.46481 -16.54619,68.06174 -38.08721,206.65178 -38.08721,206.65178 L 640.70037,722.29454 c 0,0 74.09599,-46.1424 101.56113,-79.11525 54.51559,-65.44786 107.34673,-142.14542 118.0102,-226.65377 7.15631,-56.71401 11.10816,-139.37512 -38.9296,-167.01412 -53.70507,-29.66469 -133.96265,13.56898 -173.97987,60.07543 -52.31651,60.80021 -42.78161,156.41846 -43.73415,236.62304 -0.35078,29.53584 14.03136,87.49584 14.03136,87.49584 l -164.01333,4.12025 c 0,0 22.69582,-40.75885 28.68362,-63.06202 18.1954,-67.77362 29.9032,-139.97147 20.53485,-209.51692 -4.20679,-31.22892 -12.93726,-64.66236 -33.78787,-88.2885 -10.30711,-11.67914 -25.6518,-22.01638 -41.22866,-21.9988 z"
   sodipodi:nodetypes="aaaccaccaccaaaacaaaaccaaaaaccaaaa" /><g
   style="clip-rule:evenodd;fill-rule:evenodd;image-rendering:optimizeQuality;shape-rendering:geometricPrecision;text-rendering:geometricPrecision"
   id="g893"
   transform="translate(671.53744,3.7968653)" /></svg>
