<?xml version="1.0" encoding="UTF-8" standalone="no"?>
<svg
   xmlns:dc="http://purl.org/dc/elements/1.1/"
   xmlns:cc="http://creativecommons.org/ns#"
   xmlns:rdf="http://www.w3.org/1999/02/22-rdf-syntax-ns#"
   xmlns:svg="http://www.w3.org/2000/svg"
   xmlns="http://www.w3.org/2000/svg"
   xmlns:sodipodi="http://sodipodi.sourceforge.net/DTD/sodipodi-0.dtd"
   xmlns:inkscape="http://www.inkscape.org/namespaces/inkscape"
   xml:space="preserve"
   width="1000"
   height="1000"
   version="1.1"
   style="clip-rule:evenodd;fill-rule:evenodd;image-rendering:optimizeQuality;shape-rendering:geometricPrecision;text-rendering:geometricPrecision"
   viewBox="0 0 1000 1000"
   id="svg10"
   sodipodi:docname="ഗൂ.svg"
   inkscape:version="1.0.2 (e86c870879, 2021-01-15)"><metadata
   id="metadata14"><rdf:RDF><cc:Work
       rdf:about=""><dc:format>image/svg+xml</dc:format><dc:type
         rdf:resource="http://purl.org/dc/dcmitype/StillImage" /><dc:title /></cc:Work></rdf:RDF></metadata><sodipodi:namedview
   pagecolor="#ffffff"
   bordercolor="#666666"
   borderopacity="1"
   objecttolerance="10"
   gridtolerance="10"
   guidetolerance="10"
   inkscape:pageopacity="0"
   inkscape:pageshadow="2"
   inkscape:window-width="1920"
   inkscape:window-height="1007"
   id="namedview12"
   showgrid="false"
   inkscape:zoom="1.9176736"
   inkscape:cx="480.88746"
   inkscape:cy="563.97155"
   inkscape:window-x="1920"
   inkscape:window-y="0"
   inkscape:window-maximized="1"
   inkscape:current-layer="svg10"
   showguides="true"
   inkscape:guide-bbox="true"
   inkscape:document-rotation="0"
   inkscape:snap-to-guides="true"><sodipodi:guide
     position="0,1000"
     orientation="0,1"
     id="guide16"
     inkscape:label=""
     inkscape:locked="true"
     inkscape:color="rgb(0,0,255)" /><sodipodi:guide
     position="1763.3122,2036.1693"
     orientation="1000,0"
     id="guide18" /><sodipodi:guide
     position="0,200"
     orientation="0,1"
     id="guide20"
     inkscape:label="base"
     inkscape:locked="true"
     inkscape:color="rgb(0,0,255)" /><inkscape:grid
     type="xygrid"
     id="grid24"
     originx="-473.37552"
     originy="-489.69235" /><sodipodi:guide
     position="0,0"
     orientation="0,1"
     id="guide34"
     inkscape:label="bottom"
     inkscape:locked="true"
     inkscape:color="rgb(0,0,255)" /><sodipodi:guide
     position="225.05109,1693.3186"
     orientation="0,1"
     id="guide44"
     inkscape:label=""
     inkscape:locked="false"
     inkscape:color="rgb(0,0,255)" /><sodipodi:guide
     position="0,900"
     orientation="0,1"
     id="guide46"
     inkscape:label=""
     inkscape:locked="true"
     inkscape:color="rgb(0,0,255)" /><sodipodi:guide
     position="658.63775,175.50394"
     orientation="-1,0"
     id="guide841"
     inkscape:label="width"
     inkscape:locked="false"
     inkscape:color="rgb(0,0,255)" /><sodipodi:guide
     position="0,1000"
     orientation="0,1000"
     id="guide860" /><sodipodi:guide
     position="1000,1000"
     orientation="1000,0"
     id="guide862" /><sodipodi:guide
     position="1000,0"
     orientation="0,-1000"
     id="guide864" /><sodipodi:guide
     position="0,0"
     orientation="-1000,0"
     id="guide866" /></sodipodi:namedview>
 <defs
   id="defs4"><inkscape:path-effect
   effect="fillet_chamfer"
   id="path-effect860"
   is_visible="true"
   lpeversion="1"
   satellites_param="F,0,0,1,0,0,0,1 @ F,0,0,1,0,0,0,1 @ F,0,0,1,0,0,0,1 @ F,0,0,1,0,0,0,1 @ F,0,0,1,0,0,0,1 @ F,0,0,1,0,0,0,1 @ F,0,0,1,0,0,0,1 @ F,0,0,1,0,0,0,1 @ F,0,0,1,0,0,0,1 @ F,0,0,1,0,0,0,1 @ F,0,0,1,0,9.0434567,0,1 @ F,0,0,1,0,11.10259,0,1 @ F,0,0,1,0,0,0,1 @ F,0,0,1,0,0,0,1 @ F,0,0,1,0,0,0,1 @ F,0,0,1,0,0,0,1 @ F,0,0,1,0,0,0,1 @ F,0,0,1,0,0,0,1 @ F,0,0,1,0,0,0,1 @ F,0,0,1,0,0,0,1 @ F,0,0,1,0,19.469962,0,1 @ F,0,0,1,0,19.469962,0,1 @ F,0,0,1,0,0,0,1 @ F,0,0,1,0,0,0,1 @ F,0,0,1,0,19.469962,0,1 @ F,0,0,1,0,19.469962,0,1 @ F,0,0,1,0,0,0,1 @ F,0,0,1,0,0,0,1 @ F,0,0,1,0,0,0,1 @ F,0,0,1,0,0,0,1 @ F,0,0,1,0,0,0,1 @ F,0,0,1,0,0,0,1 @ F,0,0,1,0,0,0,1 @ F,0,0,1,0,0,0,1 @ F,0,0,1,0,0,0,1 @ F,0,0,1,0,0,0,1 @ F,0,0,1,0,0,0,1 @ F,0,0,1,0,0,0,1 @ F,0,0,1,0,0,0,1 @ F,0,0,1,0,0,0,1 @ F,0,0,1,0,0,0,1 @ F,0,0,1,0,0,0,1 @ F,0,0,1,0,0,0,1 @ F,0,0,1,0,0,0,1 @ F,0,0,1,0,0,0,1 @ F,0,0,1,0,0,0,1 @ F,0,0,1,0,0,0,1 @ F,0,0,1,0,0,0,1 @ F,0,0,1,0,0,0,1 @ F,0,0,1,0,0,0,1 @ F,0,0,1,0,0,0,1 @ F,0,0,1,0,0,0,1 @ F,0,0,1,0,19.469962,0,1 @ F,0,0,1,0,19.469962,0,1 @ F,0,0,1,0,0,0,1 @ F,0,0,1,0,0,0,1 @ F,0,0,1,0,0,0,1"
   unit="px"
   method="auto"
   mode="F"
   radius="0"
   chamfer_steps="1"
   flexible="false"
   use_knot_distance="true"
   apply_no_radius="true"
   apply_with_radius="true"
   only_selected="true"
   hide_knots="false" /><inkscape:path-effect
   effect="spiro"
   id="path-effect873"
   is_visible="true"
   lpeversion="1" /><inkscape:path-effect
   effect="spiro"
   id="path-effect859"
   is_visible="true"
   lpeversion="1" /><inkscape:path-effect
   effect="spiro"
   id="path-effect862"
   is_visible="true"
   lpeversion="1" /><inkscape:path-effect
   effect="spiro"
   id="path-effect1521"
   is_visible="true"
   lpeversion="1" /><inkscape:path-effect
   effect="spiro"
   id="path-effect858"
   is_visible="true"
   lpeversion="1" /><inkscape:path-effect
   effect="spiro"
   id="path-effect854"
   is_visible="true"
   lpeversion="1" />
  <style
   type="text/css"
   id="style2">
   <![CDATA[
    .fil0 {fill:#EF7F1A;fill-rule:nonzero}
   ]]>
  </style>
 <inkscape:path-effect
   effect="spiro"
   id="path-effect1214"
   is_visible="true"
   lpeversion="1" /><inkscape:path-effect
   effect="spiro"
   id="path-effect1195"
   is_visible="true"
   lpeversion="1" /><inkscape:path-effect
   effect="spiro"
   id="path-effect992"
   is_visible="true"
   lpeversion="1" /><inkscape:path-effect
   effect="spiro"
   id="path-effect287"
   is_visible="true"
   lpeversion="1" /><inkscape:path-effect
   effect="spiro"
   id="path-effect1032"
   is_visible="true"
   lpeversion="1" /><inkscape:path-effect
   effect="spiro"
   id="path-effect1218"
   is_visible="true"
   lpeversion="1" /><inkscape:path-effect
   effect="spiro"
   id="path-effect309"
   is_visible="true"
   lpeversion="1" /><inkscape:path-effect
   effect="spiro"
   id="path-effect1176"
   is_visible="true"
   lpeversion="1" /><inkscape:path-effect
   effect="spiro"
   id="path-effect1026"
   is_visible="true"
   lpeversion="1" /><inkscape:path-effect
   effect="spiro"
   id="path-effect1030"
   is_visible="true"
   lpeversion="1" /></defs>
 
<path
   style="clip-rule:evenodd;display:inline;fill:#613583;fill-rule:nonzero;stroke:none;stroke-width:2.09522px;stroke-linecap:butt;stroke-linejoin:miter;stroke-opacity:1;image-rendering:optimizeQuality;shape-rendering:geometricPrecision;text-rendering:geometricPrecision"
   d="m 250.03218,632.67091 c -6.15312,-54.93379 -6.09343,-110.82338 3.8999,-165.18988 9.99333,-54.36649 30.1289,-107.23651 61.93607,-152.44588 19.6987,-27.9989 44.61613,-53.51361 76.06893,-67.03021 15.7264,-6.7583 32.91951,-10.3603 50.0139,-9.47933 17.09439,0.88098 34.06437,6.35191 47.89707,16.43411 14.35462,10.46261 24.9459,25.55131 31.78839,41.94343 6.84249,16.39211 10.10399,34.08857 11.60776,51.78772 2.18966,25.77194 0.6718,52.15141 -7.48833,76.69525 -8.16012,24.54384 -23.32097,47.19742 -44.73463,61.70407 -14.52323,9.83874 -31.69465,15.70433 -49.18943,16.91321 -4.98092,0.34418 -8.08447,4.1422 -6.90837,8.99632 l 17.57136,72.52251 c 1.44388,5.95937 7.31655,9.14509 13.26853,7.67884 9.21844,-2.27092 18.68471,-3.53673 28.17629,-3.75804 18.28474,-0.42634 37.37003,3.37316 51.71331,14.72146 12.90657,10.21159 20.9172,25.90283 23.35814,42.17852 2.44094,16.27568 -0.39754,33.06629 -6.39559,48.39207 -9.93976,25.39733 -28.36132,46.94628 -50.23944,63.23036 -21.87812,16.28407 -47.13806,27.55736 -73.08055,35.97225 -51.15745,16.5938 -105.28273,22.41119 -159.0592,23.13931 -65.84109,0.89147 -132.23183,-5.65924 -197.222937,4.92379 -18.503587,3.01309 -36.781793,7.40793 -54.634174,13.13086 -10.2385512,3.28217 -17.2910509,15.06763 -15.9487768,25.73648 l 15.0741058,119.8142 c 1.342274,10.66885 10.470625,15.93579 20.581474,12.27837 38.073888,-13.77256 78.108618,-22.12287 118.516998,-24.68252 114.072,-7.22583 226.1968,31.25426 340.40643,35.81422 47.809,1.9088 95.85305,-2.1823 142.65551,-12.12267 10.51784,-2.23389 17.74067,-12.99695 16.22073,-23.64194 L 640.83019,862.88591 c -1.51994,-10.64499 -10.18887,-14.71733 -19.61848,-9.55106 -53.73837,29.44197 -113.49659,47.87433 -174.49772,53.71351 -88.70029,8.49062 -177.49338,-9.28891 -265.59588,-22.62236 -21.96525,-3.32422 -43.97174,-6.37591 -66.01271,-9.15413 l 21.66264,53.70868 c 8.51886,-3.51543 17.14451,-6.7721 25.86103,-9.76401 76.14442,-26.13622 157.51873,-31.60271 237.41531,-41.48255 42.62545,-5.27097 85.48554,-11.95616 125.55946,-27.40908 40.07392,-15.45292 77.56496,-40.40722 101.48807,-76.07789 17.30911,-25.80884 26.95618,-56.64537 27.71428,-87.71186 0.75809,-31.0665 -7.34102,-62.2646 -22.87889,-89.17698 -20.46976,-35.45466 -54.17587,-63.32631 -93.25976,-75.51211 -25.8338,-8.05461 -53.75893,-9.29585 -80.20547,-3.56505 l 8.82078,47.43212 c 46.19603,-21.58571 86.78401,-55.04473 116.78669,-96.27404 30.00267,-41.2293 49.35599,-90.14085 55.68667,-140.73668 5.18995,-41.47891 1.53726,-84.58042 -14.69135,-123.10402 -16.2286,-38.5236 -45.6556,-72.12684 -83.65396,-89.54981 -24.86732,-11.40214 -52.77137,-15.68187 -80.04929,-13.60642 -27.27791,2.07545 -53.92474,10.39123 -78.20553,22.99421 -48.56159,25.20596 -86.88159,66.79355 -117.56813,112.09151 -50.62858,74.73542 -82.94958,161.69969 -93.98914,251.2919 -5.43438,44.10308 -5.79018,88.7032 -3.90548,133.09984 1.59797,37.64241 4.80122,75.21664 9.5981,112.58634 l 26.5967,-12.73705 c -16.16282,-29.12594 -30.50309,-59.26311 -42.90907,-90.17668 -44.6076,-111.1545 -63.731937,-234.6484 -39.71287,-351.98657 11.8046,-57.66794 33.90354,-113.20757 64.88399,-163.25585 5.65927,-9.14243 2.03349,-14.58273 -8.49621,-12.40292 L 16.001351,137.41155 c -10.5297016,2.17981 -19.1485337,12.66385 -19.1130331,23.4167 0.472756,143.19391 19.0469901,286.32119 55.1651401,424.8868 19.178703,73.57821 43.282338,145.87228 72.096132,216.23804 l 150.28664,-46.55278 c -11.58187,-40.1225 -19.75552,-81.22824 -24.40405,-122.7294 z"
   id="path1087-1-75"
   inkscape:path-effect="#path-effect1030;#path-effect860"
   inkscape:original-d="m 250.03218,632.67091 c 0.43742,-108.12807 -5.57183,-236.43971 65.83597,-317.63576 40.51741,-46.07135 125.84524,-98.11862 173.9799,-60.07543 25.65144,20.2736 42.14346,59.32406 43.39615,93.73115 1.79401,49.27547 -16.07673,104.86218 -52.22296,138.39932 -14.83048,13.76 -57.0416,5.98633 -58.22731,17.12037 l 22.31525,92.10206 c -5.49786,18.63334 25.70314,-7.54123 38.83044,-6.86959 17.89923,0.91578 39.63757,1.47769 51.71331,14.72146 20.69493,22.69664 27.61316,61.76118 16.96255,90.57059 -18.29347,49.48301 -74.95616,78.12751 -123.31999,99.20261 -49.11703,21.4033 -105.67349,18.60607 -159.0592,23.13931 -65.52565,5.56409 -132.13542,-4.4669 -197.222937,4.92379 C 48.076457,825.59863 0,841.55046 0,841.55046 L 19.93491,1000 c 0,0 89.98976,-28.84172 136.66807,-31.72182 113.87852,-7.0264 226.31149,35.63442 340.40643,35.81422 54.15572,0.085 161.62834,-16.49014 161.62834,-16.49014 L 638.07809,843.61144 c 0,0 -124.6264,55.55464 -191.3641,63.43692 -88.23921,10.42179 -177.29393,-12.74622 -265.59588,-22.62236 -22.07714,-2.46922 -66.01271,-9.15413 -66.01271,-9.15413 l 21.66264,53.70868 c 0,0 16.97322,-7.33297 25.86103,-9.76401 77.49086,-21.19573 160.67371,-17.71662 237.41531,-41.48255 79.45057,-24.60487 181.10324,-34.15505 227.04753,-103.48697 32.58286,-49.16894 29.50066,-123.30851 4.83539,-176.88884 -16.72616,-36.33422 -55.86025,-61.32701 -93.25976,-75.51211 -25.02219,-9.49056 -80.20547,-3.56505 -80.20547,-3.56505 l 8.82078,47.43212 c 0,0 162.91795,-139.77139 172.47336,-237.01072 7.63764,-77.72348 -25.29184,-185.04111 -98.34531,-212.65383 -93.97416,-35.520319 -206.83608,48.44748 -275.82295,121.4793 -61.41144,65.01222 -76.78107,163.5318 -93.98914,251.2919 -8.54055,43.55629 -5.14172,88.73135 -3.90548,133.09984 1.04904,37.6503 9.5981,112.58634 9.5981,112.58634 l 26.5967,-12.73705 c 0,0 -33.766,-58.16859 -42.90907,-90.17668 C 128.54874,518.06 109.85856,386.31919 121.26619,279.60567 128.16861,215.03647 196.71968,100 196.71968,100 L -3.0643606,141.35845 c 0,0 22.1654196,298.78569 55.1178186,444.3566 16.774934,74.10515 72.096132,216.23804 72.096132,216.23804 50.09555,-15.51759 150.28664,-46.55278 150.28664,-46.55278 0,0 -24.57279,-81.01901 -24.40405,-122.7294 z"
   sodipodi:nodetypes="aasaaccaaaaaaccaaccaaccaaaaaccaaaaaccasccacca" /></svg>
