<svg xmlns="http://www.w3.org/2000/svg" xmlns:dc="http://purl.org/dc/elements/1.1/" xmlns:ns1="http://sodipodi.sourceforge.net/DTD/sodipodi-0.dtd" xmlns:ns2="http://www.inkscape.org/namespaces/inkscape" xmlns:ns4="http://creativecommons.org/ns#" xmlns:rdf="http://www.w3.org/1999/02/22-rdf-syntax-ns#" xml:space="preserve" width="1000" height="1000" version="1.1" style="clip-rule:evenodd;fill-rule:evenodd;image-rendering:optimizeQuality;shape-rendering:geometricPrecision;text-rendering:geometricPrecision" viewBox="0 0 1000 1000" id="svg10" ns1:docname="ഗ്ഗൂ.svg" ns2:version="1.1.1 (3bf5ae0d25, 2021-09-20)"><metadata id="metadata14"><rdf:RDF><ns4:Work rdf:about=""><dc:format>image/svg+xml</dc:format><dc:type rdf:resource="http://purl.org/dc/dcmitype/StillImage" /><dc:title /></ns4:Work></rdf:RDF></metadata><ns1:namedview pagecolor="#ffffff" bordercolor="#666666" borderopacity="1" objecttolerance="10" gridtolerance="10" guidetolerance="10" ns2:pageopacity="0" ns2:pageshadow="2" ns2:window-width="1920" ns2:window-height="1009" id="namedview12" showgrid="false" ns2:zoom="0.9588368" ns2:cx="286.28438" ns2:cy="460.97521" ns2:window-x="0" ns2:window-y="60" ns2:window-maximized="1" ns2:current-layer="svg10" showguides="true" ns2:guide-bbox="true" ns2:document-rotation="0" ns2:snap-to-guides="true" ns2:pagecheckerboard="0"><ns1:guide position="0,1000" orientation="0,1" id="guide16" ns2:label="" ns2:locked="true" ns2:color="rgb(0,0,255)" /><ns1:guide position="1763.3122,2036.1693" orientation="1000,0" id="guide18" /><ns1:guide position="0,200" orientation="0,1" id="guide20" ns2:label="base" ns2:locked="true" ns2:color="rgb(0,0,255)" /><ns2:grid type="xygrid" id="grid24" originx="-473.37552" originy="-489.69235" /><ns1:guide position="0,0" orientation="0,1" id="guide34" ns2:label="bottom" ns2:locked="true" ns2:color="rgb(0,0,255)" /><ns1:guide position="225.05109,1693.3186" orientation="0,1" id="guide44" ns2:label="" ns2:locked="false" ns2:color="rgb(0,0,255)" /><ns1:guide position="0,900" orientation="0,1" id="guide46" ns2:label="" ns2:locked="true" ns2:color="rgb(0,0,255)" /><ns1:guide position="622.4114,523.26361" orientation="-1,0" id="guide841" ns2:label="width" ns2:locked="false" ns2:color="rgb(0,0,255)" /><ns1:guide position="0,1000" orientation="0,1000" id="guide860" /><ns1:guide position="1000,1000" orientation="1000,0" id="guide862" /><ns1:guide position="1000,0" orientation="0,-1000" id="guide864" /><ns1:guide position="0,0" orientation="-1000,0" id="guide866" /></ns1:namedview>
 <defs id="defs4"><ns2:path-effect effect="fillet_chamfer" id="path-effect1043" is_visible="true" lpeversion="1" satellites_param="F,0,0,1,0,0,0,1 @ F,0,0,1,0,0,0,1 @ F,0,0,1,0,0,0,1 @ F,0,0,1,0,0,0,1 @ F,0,0,1,0,0,0,1 @ F,0,0,1,0,0,0,1 @ F,0,0,1,0,0,0,1 @ F,0,0,1,0,0,0,1 @ F,0,0,1,0,0,0,1 @ F,0,0,1,0,0,0,1 @ F,0,0,1,0,13.00063,0,1 @ F,0,0,1,0,13.00063,0,1 @ F,0,0,1,0,0,0,1 @ F,0,0,1,0,0,0,1 @ F,0,0,1,0,0,0,1 @ F,0,0,1,0,0,0,1 @ F,0,0,1,0,0,0,1 @ F,0,0,1,0,0,0,1 @ F,0,0,1,0,0,0,1 @ F,0,0,1,0,0,0,1 @ F,0,0,1,0,0,0,1 @ F,0,0,1,0,0,0,1 @ F,0,0,1,0,0,0,1 @ F,0,0,1,0,0,0,1 @ F,0,0,1,0,0,0,1 @ F,0,0,1,0,0,0,1 @ F,0,0,1,0,0,0,1 @ F,0,0,1,0,13.00063,0,1 @ F,0,0,1,0,13.00063,0,1 @ F,0,0,1,0,0,0,1 @ F,0,0,1,0,10.254386,0,1 @ F,0,0,1,0,7.2634674,0,1" unit="px" method="auto" mode="F" radius="0" chamfer_steps="1" flexible="false" use_knot_distance="true" apply_no_radius="true" apply_with_radius="true" only_selected="false" hide_knots="false" /><ns2:path-effect effect="spiro" id="path-effect1039" is_visible="true" lpeversion="1" /><ns2:path-effect effect="spiro" id="path-effect1035" is_visible="true" lpeversion="1" /><ns2:path-effect effect="fillet_chamfer" id="path-effect867" is_visible="true" lpeversion="1" satellites_param="F,0,0,1,0,0,0,1 @ F,0,0,1,0,0,0,1 @ F,0,0,1,0,0,0,1 @ F,0,0,1,0,0,0,1 @ F,0,0,1,0,0,0,1 @ F,0,0,1,0,0,0,1 @ F,0,0,1,0,0,0,1 @ F,0,0,1,0,0,0,1 @ F,0,0,1,0,0,0,1 @ F,0,0,1,0,15.028527,0,1 @ F,0,0,1,0,15.028527,0,1 @ F,0,0,1,0,0,0,1 @ F,0,0,1,0,0,0,1 @ F,0,0,1,0,0,0,1 @ F,0,0,1,0,0,0,1 @ F,0,0,1,0,0,0,1 @ F,0,0,1,0,0,0,1 @ F,0,0,1,0,0,0,1 @ F,0,0,1,0,0,0,1 @ F,0,0,1,0,0,0,1 @ F,0,0,1,0,0,0,1 @ F,0,0,1,0,0,0,1 @ F,0,0,1,0,0,0,1 @ F,0,0,1,0,0,0,1 @ F,0,0,1,0,0,0,1 @ F,0,0,1,0,14.587965,0,1 @ F,0,0,1,0,17.441508,0,1 @ F,0,0,1,0,0,0,1 @ F,0,0,1,0,15.028527,0,1 @ F,0,0,1,0,15.028527,0,1" unit="px" method="auto" mode="F" radius="0" chamfer_steps="1" flexible="false" use_knot_distance="true" apply_no_radius="true" apply_with_radius="true" only_selected="false" hide_knots="false" /><ns2:path-effect effect="fillet_chamfer" id="path-effect865" is_visible="true" lpeversion="1" satellites_param="F,0,0,1,0,0,0,1 @ F,0,0,1,0,0,0,1 @ F,0,0,1,0,0,0,1 @ F,0,0,1,0,0,0,1 @ F,0,0,1,0,0,0,1 @ F,0,0,1,0,0,0,1 @ F,0,0,1,0,0,0,1 @ F,0,0,1,0,0,0,1 @ F,0,0,1,0,0,0,1 @ F,0,0,1,0,0,0,1 @ F,0,0,1,0,18.366034,0,1 @ F,0,0,1,0,18.366034,0,1 @ F,0,0,1,0,0,0,1 @ F,0,0,1,0,0,0,1 @ F,0,0,1,0,0,0,1 @ F,0,0,1,0,0,0,1 @ F,0,0,1,0,0,0,1 @ F,0,0,1,0,0,0,1 @ F,0,0,1,0,0,0,1 @ F,0,0,1,0,0,0,1 @ F,0,0,1,0,0,0,1 @ F,0,0,1,0,0,0,1 @ F,0,0,1,0,0,0,1 @ F,0,0,1,0,0,0,1 @ F,0,0,1,0,0,0,1 @ F,0,0,1,0,18.366034,0,1 @ F,0,0,1,0,18.366034,0,1 @ F,0,0,1,0,0,0,1 @ F,0,0,1,0,10.426938,0,1 @ F,0,0,1,0,15.926013,0,1" unit="px" method="auto" mode="F" radius="0" chamfer_steps="1" flexible="false" use_knot_distance="true" apply_no_radius="true" apply_with_radius="true" only_selected="false" hide_knots="false" /><ns2:path-effect effect="fillet_chamfer" id="path-effect877" is_visible="true" lpeversion="1" satellites_param="F,0,0,1,0,0,0,1 @ F,0,0,1,0,0,0,1 @ F,0,0,1,0,0,0,1 @ F,0,0,1,0,0,0,1 @ F,0,0,1,0,0,0,1 @ F,0,0,1,0,0,0,1 @ F,0,0,1,0,0,0,1 @ F,0,0,1,0,0,0,1 @ F,0,0,1,0,0,0,1 @ F,0,1,1,0,37.911241,0,1 @ F,0,1,1,0,37.911241,0,1 @ F,0,0,1,0,0,0,1 @ F,0,0,1,0,0,0,1 @ F,0,0,1,0,0,0,1 @ F,0,0,1,0,0,0,1 @ F,0,0,1,0,0,0,1 @ F,0,0,1,0,0,0,1 @ F,0,0,1,0,0,0,1 @ F,0,0,1,0,0,0,1 @ F,0,0,1,0,0,0,1 @ F,0,0,1,0,0,0,1 @ F,0,0,1,0,0,0,1 @ F,0,1,1,0,37.911241,0,1 @ F,0,1,1,0,37.911241,0,1 @ F,0,0,1,0,0,0,1 @ F,0,1,1,0,37.911241,0,1 @ F,0,1,1,0,37.911241,0,1" unit="px" method="auto" mode="F" radius="0" chamfer_steps="1" flexible="false" use_knot_distance="true" apply_no_radius="true" apply_with_radius="true" only_selected="true" hide_knots="false" /><ns2:path-effect effect="fillet_chamfer" id="path-effect875" is_visible="true" lpeversion="1" satellites_param="F,0,0,1,0,0,0,1 @ F,0,0,1,0,0,0,1 @ F,0,0,1,0,0,0,1 @ F,0,0,1,0,0,0,1 @ F,0,0,1,0,0,0,1 @ F,0,0,1,0,0,0,1 @ F,0,0,1,0,0,0,1 @ F,0,0,1,0,0,0,1 @ F,0,0,1,0,0,0,1 @ F,0,0,1,0,0,0,1 @ F,0,1,1,0,41.184061,0,1 @ F,0,1,1,0,41.184061,0,1 @ F,0,0,1,0,0,0,1 @ F,0,0,1,0,0,0,1 @ F,0,0,1,0,0,0,1 @ F,0,0,1,0,0,0,1 @ F,0,0,1,0,0,0,1 @ F,0,0,1,0,0,0,1 @ F,0,0,1,0,0,0,1 @ F,0,0,1,0,0,0,1 @ F,0,0,1,0,0,0,1 @ F,0,0,1,0,0,0,1 @ F,0,1,1,0,41.184061,0,1 @ F,0,1,1,0,41.184061,0,1 @ F,0,0,1,0,0,0,1 @ F,0,1,1,0,41.184061,0,1 @ F,0,1,1,0,41.184061,0,1" unit="px" method="auto" mode="F" radius="0" chamfer_steps="1" flexible="false" use_knot_distance="true" apply_no_radius="true" apply_with_radius="true" only_selected="true" hide_knots="false" /><ns2:path-effect effect="spiro" id="path-effect872" is_visible="true" lpeversion="1" /><ns2:path-effect effect="spiro" id="path-effect876" is_visible="true" lpeversion="1" /><ns2:path-effect effect="spiro" id="path-effect873" is_visible="true" lpeversion="1" /><ns2:path-effect effect="spiro" id="path-effect859" is_visible="true" lpeversion="1" /><ns2:path-effect effect="spiro" id="path-effect862" is_visible="true" lpeversion="1" /><ns2:path-effect effect="spiro" id="path-effect1521" is_visible="true" lpeversion="1" /><ns2:path-effect effect="spiro" id="path-effect858" is_visible="true" lpeversion="1" /><ns2:path-effect effect="spiro" id="path-effect854" is_visible="true" lpeversion="1" />
  <style type="text/css" id="style2">
   
    .fil0 {fill:#EF7F1A;fill-rule:nonzero}
   
  </style>
 <ns2:path-effect effect="spiro" id="path-effect1214" is_visible="true" lpeversion="1" /><ns2:path-effect effect="spiro" id="path-effect1195" is_visible="true" lpeversion="1" /><ns2:path-effect effect="spiro" id="path-effect992" is_visible="true" lpeversion="1" /><ns2:path-effect effect="spiro" id="path-effect287" is_visible="true" lpeversion="1" /><ns2:path-effect effect="spiro" id="path-effect1032" is_visible="true" lpeversion="1" /><ns2:path-effect effect="spiro" id="path-effect1218" is_visible="true" lpeversion="1" /><ns2:path-effect effect="spiro" id="path-effect309" is_visible="true" lpeversion="1" /><ns2:path-effect effect="spiro" id="path-effect1176" is_visible="true" lpeversion="1" /><ns2:path-effect effect="spiro" id="path-effect1026" is_visible="true" lpeversion="1" /><ns2:path-effect effect="spiro" id="path-effect1030" is_visible="true" lpeversion="1" /><ns2:path-effect effect="fillet_chamfer" id="path-effect861" is_visible="true" lpeversion="1" satellites_param="F,0,0,1,0,0,0,1 @ F,0,0,1,0,0,0,1 @ F,0,0,1,0,0,0,1 @ F,0,0,1,0,0,0,1 @ F,0,0,1,0,0,0,1 @ F,0,0,1,0,0,0,1 @ F,0,0,1,0,0,0,1 @ F,0,0,1,0,0,0,1 @ F,0,0,1,0,0,0,1 @ F,0,0,1,0,0,0,1 @ F,0,0,1,0,18.745288,0,1 @ F,0,0,1,0,22.258793,0,1 @ F,0,0,1,0,0,0,1 @ F,0,0,1,0,0,0,1 @ F,0,0,1,0,0,0,1 @ F,0,0,1,0,0,0,1 @ F,0,0,1,0,0,0,1 @ F,0,0,1,0,0,0,1 @ F,0,0,1,0,0,0,1 @ F,0,0,1,0,0,0,1 @ F,0,0,1,0,0,0,1 @ F,0,0,1,0,0,0,1 @ F,0,0,1,0,44.937544,0,1 @ F,0,0,1,0,24.008986,0,1 @ F,0,0,1,0,0,0,1 @ F,0,0,1,0,20.706957,0,1 @ F,0,0,1,0,19.829215,0,1" unit="px" method="auto" mode="F" radius="0" chamfer_steps="1" flexible="false" use_knot_distance="true" apply_no_radius="true" apply_with_radius="true" only_selected="true" hide_knots="false" /><ns2:path-effect effect="fillet_chamfer" id="path-effect2600" is_visible="true" lpeversion="1" satellites_param="F,0,0,1,0,0,0,1 @ F,0,0,1,0,0,0,1 @ F,0,0,1,0,0,0,1 @ F,0,0,1,0,0,0,1 @ F,0,0,1,0,0,0,1 @ F,0,0,1,0,0,0,1 @ F,0,0,1,0,0,0,1 @ F,0,0,1,0,0,0,1 @ F,0,0,1,0,0,0,1 @ F,0,0,1,0,0,0,1 @ F,0,0,1,0,13.00063,0,1 @ F,0,0,1,0,13.00063,0,1 @ F,0,0,1,0,0,0,1 @ F,0,0,1,0,0,0,1 @ F,0,0,1,0,0,0,1 @ F,0,0,1,0,0,0,1 @ F,0,0,1,0,0,0,1 @ F,0,0,1,0,0,0,1 @ F,0,0,1,0,0,0,1 @ F,0,0,1,0,0,0,1 @ F,0,0,1,0,0,0,1 @ F,0,0,1,0,0,0,1 @ F,0,0,1,0,0,0,1 @ F,0,0,1,0,0,0,1 @ F,0,0,1,0,0,0,1 @ F,0,0,1,0,0,0,1 @ F,0,0,1,0,0,0,1 @ F,0,0,1,0,13.00063,0,1 @ F,0,0,1,0,13.00063,0,1 @ F,0,0,1,0,0,0,1 @ F,0,0,1,0,10.254386,0,1 @ F,0,0,1,0,7.2634674,0,1" unit="px" method="auto" mode="F" radius="0" chamfer_steps="1" flexible="false" use_knot_distance="true" apply_no_radius="true" apply_with_radius="true" only_selected="false" hide_knots="false" /><ns2:path-effect effect="fillet_chamfer" id="path-effect4337" is_visible="true" lpeversion="1" satellites_param="F,0,0,1,0,0,0,1 @ F,0,0,1,0,0,0,1 @ F,0,0,1,0,0,0,1 @ F,0,0,1,0,0,0,1 @ F,0,0,1,0,0,0,1 @ F,0,0,1,0,0,0,1 @ F,0,0,1,0,0,0,1 @ F,0,0,1,0,0,0,1 @ F,0,0,1,0,10.283382,0,1 @ F,0,0,1,0,10.283382,0,1 @ F,0,0,1,0,0,0,1 @ F,0,0,1,0,0,0,1 @ F,0,0,1,0,10.283382,0,1 @ F,0,0,1,0,10.283382,0,1 @ F,0,0,1,0,0,0,1 @ F,0,0,1,0,0,0,1 @ F,0,0,1,0,0,0,1 @ F,0,0,1,0,0,0,1 @ F,0,0,1,0,0,0,1 @ F,0,0,1,0,0,0,1 @ F,0,0,1,0,0,0,1 @ F,0,0,1,0,0,0,1 @ F,0,0,1,0,0,0,1 @ F,0,0,1,0,0,0,1 @ F,0,0,1,0,0,0,1 @ F,0,0,1,0,0,0,1 @ F,0,0,1,0,0,0,1 @ F,0,0,1,0,0,0,1 @ F,0,0,1,0,0,0,1 @ F,0,0,1,0,0,0,1 @ F,0,0,1,0,0,0,1 @ F,0,0,1,0,0,0,1 @ F,0,0,1,0,10.283382,0,1 @ F,0,0,1,0,10.283382,0,1 @ F,0,0,1,0,0,0,1 @ F,0,0,1,0,1.9649215,0,1 @ F,0,0,1,0,2.9255871,0,1" unit="px" method="auto" mode="F" radius="0" chamfer_steps="1" flexible="false" use_knot_distance="true" apply_no_radius="true" apply_with_radius="true" only_selected="false" hide_knots="false" /><ns2:path-effect effect="fillet_chamfer" id="path-effect5490" is_visible="true" lpeversion="1" satellites_param="F,0,0,1,0,0,0,1 @ F,0,0,1,0,0,0,1 @ F,0,0,1,0,0,0,1 @ F,0,0,1,0,0,0,1 @ F,0,0,1,0,0,0,1 @ F,0,0,1,0,0,0,1 @ F,0,0,1,0,0,0,1 @ F,0,0,1,0,0,0,1 @ F,0,0,1,0,0,0,1 @ F,0,0,1,0,10.323418,0,1 @ F,0,0,1,0,10.323418,0,1 @ F,0,0,1,0,0,0,1 @ F,0,0,1,0,0,0,1 @ F,0,0,1,0,0,0,1 @ F,0,0,1,0,0,0,1 @ F,0,0,1,0,0,0,1 @ F,0,0,1,0,0,0,1 @ F,0,0,1,0,0,0,1 @ F,0,0,1,0,0,0,1 @ F,0,0,1,0,0,0,1 @ F,0,0,1,0,10.323418,0,1 @ F,0,0,1,0,10.323418,0,1 @ F,0,0,1,0,0,0,1 @ F,0,0,1,0,0,0,1 @ F,0,0,1,0,10.323418,0,1 @ F,0,0,1,0,10.323418,0,1 @ F,0,0,1,0,0,0,1 @ F,0,0,1,0,0,0,1 @ F,0,0,1,0,0,0,1 @ F,0,0,1,0,0,0,1 @ F,0,0,1,0,0,0,1 @ F,0,0,1,0,0,0,1 @ F,0,0,1,0,0,0,1 @ F,0,0,1,0,0,0,1 @ F,0,0,1,0,0,0,1 @ F,0,0,1,0,0,0,1 @ F,0,0,1,0,0,0,1 @ F,0,0,1,0,0,0,1 @ F,0,0,1,0,0,0,1 @ F,0,0,1,0,0,0,1 @ F,0,0,1,0,0,0,1 @ F,0,0,1,0,0,0,1 @ F,0,0,1,0,0,0,1 @ F,0,0,1,0,0,0,1 @ F,0,0,1,0,0,0,1 @ F,0,0,1,0,0,0,1 @ F,0,0,1,0,0,0,1 @ F,0,0,1,0,0,0,1 @ F,0,0,1,0,0,0,1 @ F,0,0,1,0,0,0,1 @ F,0,0,1,0,0,0,1 @ F,0,0,1,0,0,0,1 @ F,0,0,1,0,0,0,1 @ F,0,0,1,0,10.323418,0,1 @ F,0,0,1,0,10.323418,0,1 @ F,0,0,1,0,0,0,1 @ F,0,0,1,0,6.2158713,0,1 @ F,0,1,1,0,6.2158713,0,1" unit="px" method="auto" mode="F" radius="0" chamfer_steps="1" flexible="false" use_knot_distance="true" apply_no_radius="true" apply_with_radius="true" only_selected="false" hide_knots="false" /></defs>
 
<path style="clip-rule:evenodd;display:inline;fill:#e66100;fill-rule:nonzero;stroke:none;stroke-width:1.36291px;stroke-linecap:butt;stroke-linejoin:miter;stroke-opacity:1;image-rendering:optimizeQuality;shape-rendering:geometricPrecision;text-rendering:geometricPrecision" d="m 360.27449,1035.069 c -2.66574,-38.27732 1.19803,-77.28237 14.07802,-113.42605 12.87998,-36.14368 35.03988,-69.33612 65.30233,-92.92517 15.28276,-11.91264 32.9406,-21.46099 52.11875,-24.23094 9.58907,-1.38498 19.47041,-1.03687 28.83057,1.4643 9.36017,2.50116 18.18392,7.19038 25.18996,13.88245 11.48388,10.96925 17.56461,27.05075 17.39778,42.9308 -0.16682,15.88006 -6.31295,31.43694 -16.10796,43.93741 -9.13137,11.65352 -21.42808,20.80179 -35.21448,26.19821 -10.58157,4.14195 -22.01917,6.06519 -33.37381,5.66928 -5.69429,-0.19855 -9.42005,3.54277 -8.374,9.14745 l 7.59503,40.69374 c 1.04605,5.60468 6.39771,9.08663 12.02194,8.15674 16.95886,-2.80391 34.34106,-3.04806 51.36946,-0.69846 7.2172,0.99584 14.51507,2.50576 20.83824,6.12474 3.16158,1.8095 6.04666,4.1424 8.30407,7.0014 2.2574,2.859 3.87301,6.2558 4.44702,9.8531 0.51001,3.1962 0.19236,6.5004 -0.74339,9.5988 -0.93574,3.0984 -2.4789,5.9958 -4.38082,8.6146 -3.80384,5.2378 -8.96968,9.3155 -14.22619,13.0934 -15.9057,11.4316 -33.29568,20.7737 -51.53528,27.9143 -24.85669,9.7312 -51.10873,15.3359 -77.30167,20.4818 -9.33204,1.8334 -18.67448,3.6138 -28.02673,5.3412 -5.60664,1.0355 -9.42457,6.4179 -8.52288,12.0476 l 7.67928,47.9454 c 0.90169,5.6297 5.82519,8.2303 11.16699,6.241 11.86245,-4.4176 24.3166,-7.2473 36.92512,-8.3731 35.1498,-3.1384 70.09094,6.867 105.34787,8.3857 20.14947,0.8679 40.41648,-1.0648 60.04234,-5.7081 5.54778,-1.3126 9.78008,-7.2305 9.52576,-12.9262 l -2.62156,-58.7144 c -0.25432,-5.6957 -3.95239,-7.2778 -8.48941,-3.8263 -12.50752,9.5151 -26.28184,17.3652 -40.84935,23.2621 -36.84881,14.9164 -77.89836,17.0277 -117.34673,12.1125 -10.85179,-1.3521 -21.63947,-3.2187 -32.31469,-5.5913 l 5.86115,21.1443 c 51.55056,-12.4317 101.62326,-30.98 148.83249,-55.1316 15.10115,-7.7255 30.19079,-16.2389 41.65831,-28.7379 5.73376,-6.2495 10.49006,-13.466 13.43523,-21.4195 2.94517,-7.9535 4.03391,-16.6627 2.57323,-25.0173 -1.73305,-9.91242 -7.01373,-19.02785 -14.12363,-26.14886 -7.1099,-7.121 -15.98258,-12.3255 -25.36459,-15.96382 -18.76402,-7.27664 -39.23708,-8.38876 -59.2097,-10.86511 -14.26843,-1.76911 -28.44575,-4.2728 -42.45706,-7.49787 l 8.75444,29.10052 c 20.29484,-2.40151 40.17408,-8.27706 58.51353,-17.29439 20.12672,-9.89612 38.47841,-23.67033 52.66848,-41.03869 14.19007,-17.36836 24.11725,-38.39158 27.31682,-60.59025 3.2824,-22.77337 -0.64329,-46.52811 -11.05627,-67.04567 -10.41298,-20.51756 -27.26224,-37.7056 -47.55696,-48.5465 -17.38133,-9.28465 -37.11206,-13.91239 -56.81606,-14.17247 -19.70401,-0.26008 -39.37115,3.78303 -57.70625,11.00379 -36.67021,14.44152 -67.43858,41.18765 -92.40454,71.68294 -33.70896,41.17465 -58.03319,89.9992 -70.5122,141.7285 -11.98952,49.70018 -13.03817,102.00918 -3.0502,152.14998 l 29.4828,-12.3861 c -8.73864,-7.5863 -16.83255,-15.9151 -24.1659,-24.8671 -31.25061,-38.1484 -47.88196,-86.99827 -51.8073,-136.15611 -2.61588,-32.75921 0.16064,-65.86889 7.2295,-97.96313 3.95048,-17.93607 9.2368,-35.57767 15.79813,-52.73158 2.03681,-5.32503 -0.57409,-11.01676 -5.99691,-12.77737 l -75.05154,-24.36675 c -5.42282,-1.76061 -10.35253,1.40357 -10.90444,7.07819 -8.39458,86.31113 1.4581,174.36402 28.78096,256.66895 15.94198,48.0222 37.76602,94.0882 64.82308,136.8453 1.8357,2.9009 5.9345,4.2035 9.1225,2.93 l 83.32374,-33.2839 c 3.188,-1.2735 4.94478,-4.9631 3.99054,-8.2607 -6.76446,-23.3761 -11.04228,-47.4713 -12.73296,-71.7478 z" id="path1087-1-75-3-3" ns2:path-effect="#path-effect1035;#path-effect5490" ns2:original-d="m 360.27449,1035.069 c 6.7179,-73.39078 20.4237,-162.13065 79.38035,-206.35122 28.40207,-21.30305 79.83078,-32.72449 106.13928,-8.88419 21.45915,19.44592 17.43593,62.82778 1.28982,86.86821 -15.73806,23.43288 -78.85633,30.86676 -78.85633,30.86676 l 11.38311,60.9901 c 0,0 41.76721,-8.3236 61.49736,-2.6899 13.04446,3.7247 30.78001,9.70744 33.58933,22.97924 2.54059,12.0021 -10.431,22.8836 -19.3504,31.3068 -14.20381,13.4138 -33.37584,20.7093 -51.53528,27.9143 -24.7774,9.8306 -51.30321,14.5961 -77.30167,20.4818 -12.63177,2.8597 -38.18227,7.1953 -38.18227,7.1953 l 10.9446,68.3324 c 0,0 30.50201,-10.8864 46.45945,-12.3256 35.08463,-3.1643 71.26325,3.8498 105.34787,8.3857 35.037,4.6626 70.02858,-8.3212 70.02858,-8.3212 l -3.54252,-79.3406 c 0,0 -30.80232,23.6623 -48.87828,29.7489 -37.26737,12.5488 -78.04637,13.4586 -117.34673,12.1125 -10.92521,-0.3742 -32.31469,-5.5913 -32.31469,-5.5913 l 5.86115,21.1443 c 0,0 106.2588,-23.724 148.83249,-55.1316 25.41444,-18.7488 64.30919,-44.2994 57.66677,-75.1747 -7.85333,-36.50402 -63.41864,-40.74727 -98.69792,-52.97779 -13.57852,-4.70736 -42.45706,-7.49787 -42.45706,-7.49787 l 8.75444,29.10052 c 0,0 41.67809,-5.8827 58.51353,-17.29439 35.68447,-24.18828 75.73519,-58.72916 79.9853,-101.62894 4.25912,-42.9907 -8.00502,-99.69147 -58.61323,-115.59217 -69.54023,-21.84898 -155.17181,27.32436 -206.92685,68.51426 -46.0719,36.66686 -57.9258,90.48488 -70.5122,141.7285 -12.0999,49.26268 -3.0502,152.14998 -3.0502,152.14998 l 29.4828,-12.3861 c 0,0 -18.9246,-14.5654 -24.1659,-24.8671 -21.8589,-42.9628 -44.7928,-88.10564 -51.8073,-136.15611 -4.7299,-32.39976 1.0671,-65.80507 7.2295,-97.96313 4.0988,-21.38967 19.6201,-62.32108 19.6201,-62.32108 l -94.6893,-30.74249 c 0,0 3.3714,180.84948 27.6954,266.93501 14.2835,50.5507 68.1732,142.0811 68.1732,142.0811 l 94.8685,-37.8955 c 0,0 -16.9167,-51.4635 -14.5148,-77.7027 z" ns1:nodetypes="aaaaccaaaaaccasccaaccaaaccaaaaaccsaaccacca" /><path style="clip-rule:evenodd;display:inline;fill:#c64600;fill-rule:nonzero;stroke:none;stroke-width:2.09522px;stroke-linecap:butt;stroke-linejoin:miter;stroke-opacity:1;image-rendering:optimizeQuality;shape-rendering:geometricPrecision;text-rendering:geometricPrecision" d="m 256.80179,587.53743 c -5.84215,-46.78223 -7.85704,-94.31706 -1.45725,-141.02627 6.39979,-46.70921 21.47105,-92.69664 47.77595,-131.82157 19.00029,-28.26032 44.45101,-53.14875 75.94652,-66.09825 15.74776,-6.47474 32.84978,-9.8519 49.85855,-9.06712 17.00877,0.78477 33.90299,5.80405 48.17487,15.08994 12.81334,8.3369 23.34806,19.98298 31.03535,33.19628 7.68729,13.2133 12.57346,27.96622 15.06313,43.0489 4.97935,30.16536 0.4506,61.16005 -7.16888,90.76894 -17.35919,67.45687 -51.09568,130.82409 -98.49301,181.86589 -26.37787,28.40611 -56.88991,52.96483 -90.26311,72.68449 -6.1813,3.65242 -6.99139,10.34622 -1.67877,15.17625 l 72.4937,65.90841 c 5.31262,4.83003 13.2388,4.18697 17.64486,-1.48218 24.02879,-30.91717 46.75922,-62.84341 68.11075,-95.66668 C 550.34179,557.88945 604.47754,442.5821 606.79173,320.65387 607.69529,273.04784 600.25759,224.3019 577.48111,182.48823 566.09288,161.5814 550.92488,142.6247 532.33702,127.74924 513.74917,112.87378 491.69868,102.15365 468.30045,97.75928 c -22.47001,-4.220041 -45.8877,-2.563739 -67.876,3.6992 -21.98831,6.26295 -42.56776,17.05716 -60.92432,30.68605 -36.71311,27.2578 -64.11175,65.25811 -86.65984,105.0378 -36.25541,63.96235 -61.46088,134.14135 -74.4719,206.50398 -11.14382,61.97795 -13.37476,125.35796 -9.7537,188.22559 1.4263,24.763 3.75533,49.47399 6.9809,74.06741 l 37.4686,-24.00598 c -11.08106,-15.58432 -21.51686,-31.62743 -31.2717,-48.07444 -32.53035,-54.84733 -57.53722,-114.52793 -69.895,-177.08781 -14.695043,-74.39199 -11.18971,-152.05877 7.9634,-225.42955 8.31722,-31.86117 19.54703,-62.96112 33.4979,-92.78855 3.04189,-6.50365 -0.0615,-12.83621 -7.10557,-14.22682 L 16.459657,98.742899 C 9.4155596,97.352285 3.6524654,102.04541 3.6488249,109.22545 3.5751275,254.57679 22.160895,399.92924 58.82299,540.58157 c 18.316564,70.2706 41.125231,139.36992 68.23891,206.73681 2.11453,5.25377 8.24276,8.14279 13.65251,6.46706 l 133.55316,-41.36943 c 3.83187,-1.18696 6.07297,-5.284 5.04184,-9.1607 C 269.201,665.25101 261.67492,626.56 256.80179,587.53743 Z" id="path1087-1-75-6" ns2:path-effect="#path-effect1039;#path-effect1043" ns2:original-d="m 256.80179,587.53743 c -1.2974,-92.24136 -13.3387,-202.48343 46.3187,-272.84784 39.6765,-46.79747 120.27486,-89.74013 173.97994,-60.07543 50.03777,27.63901 46.54808,110.36034 38.9296,167.01412 -9.18812,68.32625 -53.93905,129.2556 -98.49301,181.86589 -27.73313,32.74782 -101.56123,79.1152 -101.56123,79.1152 l 91.7324,83.39949 c 0,0 55.85189,-67.44205 76.13626,-105.8944 C 539.99573,553.67051 619.31326,440.34719 606.79173,320.65387 597.69067,233.65683 553.65908,116.86999 468.30045,97.75928 384.82189,79.0695 306.04919,170.19875 252.84029,237.18233 c -45.514,57.2967 -60.0102,134.77323 -74.4719,206.50398 -12.4166,61.58686 -11.0792,125.41353 -9.7537,188.22559 0.5233,24.79303 6.9809,74.06741 6.9809,74.06741 l 37.4686,-24.00598 c 0,0 -22.5064,-31.08554 -31.2717,-48.07444 -29.0974,-56.39685 -59.1394,-114.54514 -69.895,-177.08781 -12.743404,-74.10228 -6.7442,-151.69195 7.9634,-225.42955 7.2757,-36.47793 39.1468,-104.49744 39.1468,-104.49744 L 3.7051905,96.22497 c 0,0 22.1653995,298.78569 55.1177995,444.3566 16.774996,74.10515 72.0962,216.23804 72.0962,216.23804 l 150.2866,-46.55278 c -58.3169,-49.78588 -23.8175,-81.0228 -24.404,-122.7294 z" ns1:nodetypes="aaaaaccaaaaaaccaaaccacca" /></svg>