<?xml version="1.0" encoding="UTF-8" standalone="no"?>
<svg
   xmlns:dc="http://purl.org/dc/elements/1.1/"
   xmlns:cc="http://creativecommons.org/ns#"
   xmlns:rdf="http://www.w3.org/1999/02/22-rdf-syntax-ns#"
   xmlns:svg="http://www.w3.org/2000/svg"
   xmlns="http://www.w3.org/2000/svg"
   xmlns:sodipodi="http://sodipodi.sourceforge.net/DTD/sodipodi-0.dtd"
   xmlns:inkscape="http://www.inkscape.org/namespaces/inkscape"
   xml:space="preserve"
   width="1000"
   height="1000"
   version="1.1"
   style="clip-rule:evenodd;fill-rule:evenodd;image-rendering:optimizeQuality;shape-rendering:geometricPrecision;text-rendering:geometricPrecision"
   viewBox="0 0 1000 1000"
   id="svg10"
   sodipodi:docname="ഗ്ദൃ.svg"
   inkscape:version="1.0.2 (e86c870879, 2021-01-15)"><metadata
   id="metadata14"><rdf:RDF><cc:Work
       rdf:about=""><dc:format>image/svg+xml</dc:format><dc:type
         rdf:resource="http://purl.org/dc/dcmitype/StillImage" /><dc:title /></cc:Work></rdf:RDF></metadata><sodipodi:namedview
   pagecolor="#ffffff"
   bordercolor="#666666"
   borderopacity="1"
   objecttolerance="10"
   gridtolerance="10"
   guidetolerance="10"
   inkscape:pageopacity="0"
   inkscape:pageshadow="2"
   inkscape:window-width="1920"
   inkscape:window-height="1007"
   id="namedview12"
   showgrid="false"
   inkscape:zoom="0.678"
   inkscape:cx="355.51923"
   inkscape:cy="395.79334"
   inkscape:window-x="1920"
   inkscape:window-y="0"
   inkscape:window-maximized="1"
   inkscape:current-layer="svg10"
   showguides="true"
   inkscape:guide-bbox="true"
   inkscape:document-rotation="0"
   inkscape:snap-to-guides="true"><sodipodi:guide
     position="0,1000"
     orientation="0,1"
     id="guide16"
     inkscape:label=""
     inkscape:locked="true"
     inkscape:color="rgb(0,0,255)" /><sodipodi:guide
     position="1763.3122,2036.1693"
     orientation="1000,0"
     id="guide18" /><sodipodi:guide
     position="0,200"
     orientation="0,1"
     id="guide20"
     inkscape:label="base"
     inkscape:locked="true"
     inkscape:color="rgb(0,0,255)" /><inkscape:grid
     type="xygrid"
     id="grid24"
     originx="-473.37552"
     originy="-489.69235" /><sodipodi:guide
     position="0,0"
     orientation="0,1"
     id="guide34"
     inkscape:label="bottom"
     inkscape:locked="true"
     inkscape:color="rgb(0,0,255)" /><sodipodi:guide
     position="225.05109,1693.3186"
     orientation="0,1"
     id="guide44"
     inkscape:label=""
     inkscape:locked="false"
     inkscape:color="rgb(0,0,255)" /><sodipodi:guide
     position="0,900"
     orientation="0,1"
     id="guide46"
     inkscape:label=""
     inkscape:locked="true"
     inkscape:color="rgb(0,0,255)" /><sodipodi:guide
     position="644.64576,549.55645"
     orientation="-1,0"
     id="guide841"
     inkscape:label="width"
     inkscape:locked="false"
     inkscape:color="rgb(0,0,255)" /><sodipodi:guide
     position="0,1000"
     orientation="0,1000"
     id="guide860" /><sodipodi:guide
     position="1000,1000"
     orientation="1000,0"
     id="guide862" /><sodipodi:guide
     position="1000,0"
     orientation="0,-1000"
     id="guide864" /><sodipodi:guide
     position="0,0"
     orientation="-1000,0"
     id="guide866" /></sodipodi:namedview>
 <defs
   id="defs4"><inkscape:path-effect
   effect="fillet_chamfer"
   id="path-effect860"
   is_visible="true"
   lpeversion="1"
   satellites_param="F,0,0,1,0,0,0,1 @ F,0,0,1,0,0,0,1 @ F,0,0,1,0,0,0,1 @ F,0,0,1,0,0,0,1 @ F,0,0,1,0,0,0,1 @ F,0,0,1,0,0,0,1 @ F,0,0,1,0,0,0,1 @ F,0,0,1,0,0,0,1 @ F,0,0,1,0,0,0,1 @ F,0,0,1,0,0,0,1 @ F,0,1,1,0,15.278672,0,1 @ F,0,1,1,0,15.278672,0,1 @ F,0,0,1,0,0,0,1 @ F,0,0,1,0,0,0,1 @ F,0,0,1,0,0,0,1 @ F,0,0,1,0,0,0,1 @ F,0,0,1,0,0,0,1 @ F,0,0,1,0,0,0,1 @ F,0,0,1,0,0,0,1 @ F,0,0,1,0,0,0,1 @ F,0,0,1,0,0,0,1 @ F,0,0,1,0,0,0,1 @ F,0,0,1,0,0,0,1 @ F,0,0,1,0,0,0,1 @ F,0,0,1,0,0,0,1 @ F,0,0,1,0,0,0,1 @ F,0,0,1,0,0,0,1 @ F,0,0,1,0,0,0,1 @ F,0,0,1,0,0,0,1 @ F,0,0,1,0,0,0,1 @ F,0,0,1,0,0,0,1 @ F,0,0,1,0,0,0,1 @ F,0,0,1,0,0,0,1 @ F,0,0,1,0,0,0,1 @ F,0,0,1,0,0,0,1 @ F,0,0,1,0,0,0,1 @ F,0,0,1,0,0,0,1 @ F,0,0,1,0,0,0,1 @ F,0,0,1,0,0,0,1 @ F,0,0,1,0,0,0,1 @ F,0,0,1,0,0,0,1 @ F,0,0,1,0,0,0,1 @ F,0,0,1,0,0,0,1 @ F,0,0,1,0,0,0,1 @ F,0,0,1,0,0,0,1 @ F,0,0,1,0,0,0,1 @ F,0,0,1,0,0,0,1 @ F,0,0,1,0,0,0,1 @ F,0,0,1,0,0,0,1 @ F,0,0,1,0,0,0,1 @ F,0,0,1,0,0,0,1 @ F,0,0,1,0,0,0,1 @ F,0,0,1,0,0,0,1 @ F,0,0,1,0,0,0,1 @ F,0,0,1,0,0,0,1 @ F,0,1,1,0,15.278672,0,1 @ F,0,1,1,0,15.278672,0,1 @ F,0,0,1,0,0,0,1 @ F,0,1,1,0,15.278672,0,1 @ F,0,1,1,0,15.278672,0,1"
   unit="px"
   method="auto"
   mode="F"
   radius="0"
   chamfer_steps="1"
   flexible="false"
   use_knot_distance="true"
   apply_no_radius="true"
   apply_with_radius="true"
   only_selected="true"
   hide_knots="false" /><inkscape:path-effect
   effect="spiro"
   id="path-effect873"
   is_visible="true"
   lpeversion="1" /><inkscape:path-effect
   effect="spiro"
   id="path-effect859"
   is_visible="true"
   lpeversion="1" /><inkscape:path-effect
   effect="spiro"
   id="path-effect862"
   is_visible="true"
   lpeversion="1" /><inkscape:path-effect
   effect="spiro"
   id="path-effect1521"
   is_visible="true"
   lpeversion="1" /><inkscape:path-effect
   effect="spiro"
   id="path-effect858"
   is_visible="true"
   lpeversion="1" /><inkscape:path-effect
   effect="spiro"
   id="path-effect854"
   is_visible="true"
   lpeversion="1" />
  <style
   type="text/css"
   id="style2">
   <![CDATA[
    .fil0 {fill:#EF7F1A;fill-rule:nonzero}
   ]]>
  </style>
 <inkscape:path-effect
   effect="spiro"
   id="path-effect1214"
   is_visible="true"
   lpeversion="1" /><inkscape:path-effect
   effect="spiro"
   id="path-effect1195"
   is_visible="true"
   lpeversion="1" /><inkscape:path-effect
   effect="spiro"
   id="path-effect992"
   is_visible="true"
   lpeversion="1" /><inkscape:path-effect
   effect="spiro"
   id="path-effect287"
   is_visible="true"
   lpeversion="1" /><inkscape:path-effect
   effect="spiro"
   id="path-effect1032"
   is_visible="true"
   lpeversion="1" /><inkscape:path-effect
   effect="spiro"
   id="path-effect1218"
   is_visible="true"
   lpeversion="1" /><inkscape:path-effect
   effect="spiro"
   id="path-effect309"
   is_visible="true"
   lpeversion="1" /><inkscape:path-effect
   effect="spiro"
   id="path-effect1176"
   is_visible="true"
   lpeversion="1" /><inkscape:path-effect
   effect="spiro"
   id="path-effect1026"
   is_visible="true"
   lpeversion="1" /><inkscape:path-effect
   effect="spiro"
   id="path-effect1030"
   is_visible="true"
   lpeversion="1" /></defs>
 
<path
   style="clip-rule:evenodd;display:inline;fill:#613583;fill-rule:nonzero;stroke:none;stroke-width:2.09522px;stroke-linecap:butt;stroke-linejoin:miter;stroke-opacity:1;image-rendering:optimizeQuality;shape-rendering:geometricPrecision;text-rendering:geometricPrecision"
   d="m 250.03218,632.67091 c -6.50867,-55.02073 -7.23562,-111.04774 2.48545,-165.59262 9.72107,-54.54488 30.18018,-107.66553 63.35052,-152.04314 20.16251,-26.97481 45.5747,-50.99069 76.67149,-63.91963 15.54839,-6.46446 32.37794,-10.04615 49.21206,-9.65342 16.83411,0.39274 33.65888,4.83153 48.09635,13.49762 15.64395,9.39028 28.25864,23.67992 35.85235,40.27046 7.59372,16.59054 10.16737,35.40446 7.5438,53.46069 -2.52643,17.38772 -9.80975,33.99618 -20.48318,47.95303 -10.67344,13.95685 -24.68399,25.27145 -40.34592,33.2351 -9.10601,4.63015 -18.77764,8.14357 -28.72803,10.45506 -8.21429,1.90819 -14.5479,9.3721 -13.92257,17.78707 l 4.65439,62.6336 c 0.62533,8.41497 7.82905,13.78233 16.19666,12.70983 11.35345,-1.45521 22.83341,-1.92438 34.2675,-1.39382 18.59921,0.86304 37.15526,4.39957 54.40889,11.39867 17.25364,6.99911 33.186,17.52275 45.66245,31.34351 18.23655,20.2015 28.468,46.80272 31.82877,73.80971 3.36078,27.00699 0.19053,54.48661 -5.88649,81.01475 -13.46693,58.78749 -42.35217,115.38271 -88.55321,154.14856 -23.10052,19.38292 -50.30185,34.05563 -79.50855,41.55899 -29.20671,7.50335 -60.40922,7.71664 -89.4139,-0.53322 -11.16191,-3.1748 -22.18748,-7.70621 -30.95095,-15.3134 -4.38173,-3.8036 -8.1489,-8.35657 -10.79263,-13.5216 -2.64374,-5.16504 -4.14231,-10.95211 -4.03185,-16.75338 0.18655,-9.79742 4.97762,-19.13778 11.79976,-26.17217 6.82214,-7.03439 15.55071,-11.95758 24.59758,-15.723 21.24054,-8.84057 44.69659,-11.69595 67.65095,-10.14253 22.95437,1.55343 45.46271,7.40559 67.03526,15.4019 32.56506,12.0709 63.28871,29.09577 90.78811,50.30834 l 64.83662,-102.55073 c -39.91667,-3.616 -79.58169,-10.00713 -118.61396,-19.11198 -52.40012,-12.22309 -105.87359,-29.4638 -158.90023,-20.33405 -23.91259,4.1171 -46.9515,13.67459 -66.34966,28.25107 -19.39816,14.57648 -35.0779,34.20146 -44.38453,56.61014 -9.28104,22.34706 -12.11709,47.43229 -7.37181,71.16015 4.74529,23.72785 17.15658,45.96765 35.32373,61.95149 15.10553,13.29017 33.84175,22.09693 53.36981,26.94055 19.52806,4.84359 39.86185,5.83989 59.94831,4.68239 87.71321,-5.0545 171.40894,-52.76737 222.78387,-124.03989 36.9888,-51.31462 57.57619,-113.6086 62.58332,-176.66643 3.01736,-37.99949 0.47253,-76.76467 -11.0037,-113.11521 -11.47623,-36.35054 -32.22706,-70.23398 -61.7543,-94.34224 -39.1216,-31.94181 -93.06794,-44.89316 -142.42681,-34.19359 l 14.81571,43.50196 c 16.13363,-6.66728 31.69973,-14.70727 46.47493,-24.0046 58.43387,-36.76966 104.72568,-95.6493 117.37087,-163.52141 7.22969,-38.80484 3.22941,-79.929 -13.20694,-115.81675 -16.43635,-35.88775 -45.54561,-66.18415 -81.60157,-82.24815 -25.00133,-11.13883 -52.87859,-15.37349 -80.17627,-13.37935 -27.29769,1.99414 -54.00759,10.11734 -78.38152,22.56932 -48.74784,24.90397 -87.37069,66.43215 -117.26516,112.28933 -49.14359,75.38473 -76.61905,162.99564 -93.98914,251.2919 -15.20121,77.27133 -23.09428,155.97866 -23.53958,234.72977 l 56.66785,-24.15374 C 192.55183,677.67551 181.35359,655.40756 171.17756,632.68187 121.79891,522.40664 96.881811,397.94535 121.26619,279.60567 c 9.27651,-45.01977 25.57364,-88.5832 48.09048,-128.65451 4.13347,-7.35597 1.02252,-14.61505 -7.23007,-16.37505 L 14.942637,103.18676 c -8.2525907,-1.76 -15.22356766,3.64814 -15.48341447,12.08228 C -5.4162602,273.51818 12.342071,432.45092 52.053458,585.71505 c 17.794853,68.67836 39.97242,136.22073 66.350582,202.08089 3.13734,7.83323 12.27974,12.13312 20.34008,9.63635 L 259.8417,759.92111 c 8.06034,-2.49677 12.72328,-11.10117 10.58963,-19.265 -9.27003,-35.46933 -16.0924,-71.57831 -20.39915,-107.9852 z"
   id="path1087-1-75"
   inkscape:path-effect="#path-effect1030;#path-effect860"
   inkscape:original-d="m 250.03218,632.67091 c 0.43742,-108.12807 -5.57183,-236.43971 65.83597,-317.63576 40.51741,-46.07135 117.52622,-84.10066 173.9799,-60.07543 31.68034,13.48234 46.99459,59.48982 43.39615,93.73115 -3.53428,33.63079 -33.0783,61.8642 -60.8291,81.18813 -12.49389,8.69997 -42.59715,1.87143 -43.78286,13.00547 l 6.91891,93.10692 c -5.49786,18.63334 33.05254,-6.58418 49.3319,-3.92065 35.79642,5.8568 77.6442,14.23414 100.07134,42.74218 32.35406,41.12656 45.25829,106.19246 25.94228,154.82446 -39.75465,100.09043 -150.02348,202.42383 -257.47566,195.17433 -21.48586,-1.44959 -44.9987,-24.06769 -45.77543,-45.58838 -0.66725,-18.48713 19.4184,-34.55114 36.39734,-41.89517 41.23739,-17.83673 91.41467,-6.83379 134.68621,5.25937 33.32153,9.31242 90.78811,50.30834 90.78811,50.30834 l 64.83662,-102.55073 c 1.04156,0 -78.97773,-13.3842 -118.61396,-19.11198 -52.84969,-7.63723 -107.34193,-34.23223 -158.90023,-20.33405 -44.90112,12.10366 -94.57138,41.25647 -110.73419,84.86121 -15.75768,42.5118 -3.04578,100.02539 27.95192,133.11164 26.81188,28.6184 75.51994,42.07214 113.31812,31.62294 81.12797,-22.42775 167.92347,-59.1198 222.78387,-124.03989 40.32415,-47.71835 51.27256,-123.84874 62.58332,-176.66643 15.34523,-71.65739 -18.37316,-158.33976 -72.758,-207.45745 C 563.75046,459.60617 457.5579,458.13754 457.5579,458.13754 l 14.81571,43.50196 c 0,0 33.2806,-12.60613 46.47493,-24.0046 50.77231,-43.86181 111.47043,-96.68676 117.37087,-163.52141 6.43697,-72.91201 -26.17045,-172.64026 -94.80851,-198.0649 -94.20775,-34.896071 -206.83608,48.44748 -275.82295,121.4793 -61.41144,65.01222 -73.69382,164.19395 -93.98914,251.2919 -17.8454,76.58405 -23.53958,234.72977 -23.53958,234.72977 l 56.66785,-24.15374 c 0,0 -26.11768,-42.95771 -33.54952,-66.71395 -35.48851,-113.44066 -63.8093,-235.02933 -49.91137,-353.0762 5.94075,-50.45981 55.80305,-141.8428 55.80305,-141.8428 L 0,100 c 0,0 17.426472,326.60732 52.053458,485.71505 16.157506,74.24221 72.096132,216.23804 72.096132,216.23804 50.09555,-15.51759 100.19109,-31.03518 150.28664,-46.55278 -58.3169,-49.78588 -24.57279,-81.01901 -24.40405,-122.7294 z"
   sodipodi:nodetypes="aaaaaccaaaaaaaccaaaasasaccaaaaaccaaccacca" /></svg>
