<?xml version="1.0" encoding="UTF-8" standalone="no"?>
<svg
   xmlns:dc="http://purl.org/dc/elements/1.1/"
   xmlns:cc="http://creativecommons.org/ns#"
   xmlns:rdf="http://www.w3.org/1999/02/22-rdf-syntax-ns#"
   xmlns:svg="http://www.w3.org/2000/svg"
   xmlns="http://www.w3.org/2000/svg"
   xmlns:sodipodi="http://sodipodi.sourceforge.net/DTD/sodipodi-0.dtd"
   xmlns:inkscape="http://www.inkscape.org/namespaces/inkscape"
   xml:space="preserve"
   width="1000"
   height="1000"
   version="1.1"
   style="clip-rule:evenodd;fill-rule:evenodd;image-rendering:optimizeQuality;shape-rendering:geometricPrecision;text-rendering:geometricPrecision"
   viewBox="0 0 1000 1000"
   id="svg10"
   sodipodi:docname="ഗ്നൂ.svg"
   inkscape:version="1.0.2 (e86c870879, 2021-01-15)"><metadata
   id="metadata14"><rdf:RDF><cc:Work
       rdf:about=""><dc:format>image/svg+xml</dc:format><dc:type
         rdf:resource="http://purl.org/dc/dcmitype/StillImage" /><dc:title /></cc:Work></rdf:RDF></metadata><sodipodi:namedview
   pagecolor="#ffffff"
   bordercolor="#666666"
   borderopacity="1"
   objecttolerance="10"
   gridtolerance="10"
   guidetolerance="10"
   inkscape:pageopacity="0"
   inkscape:pageshadow="2"
   inkscape:window-width="1920"
   inkscape:window-height="1127"
   id="namedview12"
   showgrid="false"
   inkscape:zoom="0.678"
   inkscape:cx="689.08061"
   inkscape:cy="570.88533"
   inkscape:window-x="0"
   inkscape:window-y="0"
   inkscape:window-maximized="1"
   inkscape:current-layer="svg10"
   showguides="true"
   inkscape:guide-bbox="true"
   inkscape:document-rotation="0"
   inkscape:snap-to-guides="true"><sodipodi:guide
     position="0,1000"
     orientation="0,1"
     id="guide16"
     inkscape:label=""
     inkscape:locked="true"
     inkscape:color="rgb(0,0,255)" /><sodipodi:guide
     position="1763.3122,2036.1693"
     orientation="1000,0"
     id="guide18" /><sodipodi:guide
     position="0,200"
     orientation="0,1"
     id="guide20"
     inkscape:label="base"
     inkscape:locked="true"
     inkscape:color="rgb(0,0,255)" /><inkscape:grid
     type="xygrid"
     id="grid24"
     originx="-473.37552"
     originy="-489.69235" /><sodipodi:guide
     position="0,0"
     orientation="0,1"
     id="guide34"
     inkscape:label="bottom"
     inkscape:locked="true"
     inkscape:color="rgb(0,0,255)" /><sodipodi:guide
     position="225.05109,1693.3186"
     orientation="0,1"
     id="guide44"
     inkscape:label=""
     inkscape:locked="false"
     inkscape:color="rgb(0,0,255)" /><sodipodi:guide
     position="0,900"
     orientation="0,1"
     id="guide46"
     inkscape:label=""
     inkscape:locked="true"
     inkscape:color="rgb(0,0,255)" /><sodipodi:guide
     position="1000,818.4255"
     orientation="-1,0"
     id="guide841"
     inkscape:label="width"
     inkscape:locked="false"
     inkscape:color="rgb(0,0,255)" /><sodipodi:guide
     position="0,1000"
     orientation="0,1000"
     id="guide860" /><sodipodi:guide
     position="1080.6125,792.97523"
     orientation="1000,0"
     id="guide862" /><sodipodi:guide
     position="1000,0"
     orientation="0,-1000"
     id="guide864" /><sodipodi:guide
     position="0,0"
     orientation="-1000,0"
     id="guide866" /></sodipodi:namedview>
 <defs
   id="defs4"><inkscape:path-effect
   effect="fillet_chamfer"
   id="path-effect863"
   is_visible="true"
   lpeversion="1"
   satellites_param="F,0,0,1,0,0,0,1 @ F,0,0,1,0,0,0,1 @ F,0,0,1,0,0,0,1 @ F,0,0,1,0,0,0,1 @ F,0,0,1,0,0,0,1 @ F,0,0,1,0,19.471942,0,1 @ F,0,0,1,0,19.639218,0,1 @ F,0,0,1,0,0,0,1 @ F,0,0,1,0,20.064681,0,1 @ F,0,0,1,0,26.799709,0,1 @ F,0,0,1,0,0,0,1 @ F,0,0,1,0,0,0,1 @ F,0,0,1,0,0,0,1 @ F,0,0,1,0,0,0,1 @ F,0,0,1,0,0,0,1 @ F,0,0,1,0,0,0,1 @ F,0,0,1,0,0,0,1 @ F,0,0,1,0,0,0,1 @ F,0,0,1,0,0,0,1 @ F,0,0,1,0,0,0,1 @ F,0,0,1,0,0,0,1 @ F,0,0,1,0,0,0,1 @ F,0,0,1,0,0,0,1 @ F,0,0,1,0,0,0,1 @ F,0,0,1,0,0,0,1 @ F,0,0,1,0,0,0,1 @ F,0,0,1,0,0,0,1 @ F,0,0,1,0,0,0,1 @ F,0,0,1,0,0,0,1 @ F,0,0,1,0,0,0,1 @ F,0,0,1,0,0,0,1 @ F,0,0,1,0,0,0,1 @ F,0,0,1,0,0,0,1 @ F,0,0,1,0,0,0,1 @ F,0,0,1,0,0,0,1 @ F,0,0,1,0,0,0,1 @ F,0,0,1,0,0,0,1 @ F,0,0,1,0,0,0,1 @ F,0,0,1,0,0,0,1 @ F,0,0,1,0,0,0,1 @ F,0,0,1,0,0,0,1 @ F,0,0,1,0,28.392145,0,1 @ F,0,0,1,0,28.664565,0,1 @ F,0,0,1,0,0,0,1 @ F,0,0,1,0,0,0,1 @ F,0,0,1,0,0,0,1 @ F,0,0,1,0,0,0,1 @ F,0,0,1,0,0,0,1 @ F,0,0,1,0,0,0,1 @ F,0,0,1,0,0,0,1 @ F,0,0,1,0,0,0,1 @ F,0,0,1,0,0,0,1 @ F,0,0,1,0,0,0,1 @ F,0,0,1,0,0,0,1 @ F,0,0,1,0,0,0,1 @ F,0,0,1,0,0,0,1 @ F,0,0,1,0,0,0,1 @ F,0,0,1,0,0,0,1 @ F,0,0,1,0,0,0,1 @ F,0,0,1,0,0,0,1 @ F,0,0,1,0,0,0,1 @ F,0,0,1,0,0,0,1 @ F,0,0,1,0,18.327072,0,1 @ F,0,0,1,0,25.555865,0,1 @ F,0,0,1,0,0,0,1 @ F,0,0,1,0,0,0,1 @ F,0,0,1,0,0,0,1 @ F,0,0,1,0,0,0,1"
   unit="px"
   method="auto"
   mode="F"
   radius="0"
   chamfer_steps="1"
   flexible="false"
   use_knot_distance="true"
   apply_no_radius="true"
   apply_with_radius="true"
   only_selected="false"
   hide_knots="false" /><inkscape:path-effect
   effect="fillet_chamfer"
   id="path-effect861"
   is_visible="true"
   lpeversion="1"
   satellites_param="F,0,0,1,0,0,0,1 @ F,0,0,1,0,0,0,1 @ F,0,0,1,0,0,0,1 @ F,0,0,1,0,0,0,1 @ F,0,0,1,0,0,0,1 @ F,0,1,1,0,28.98348,0,1 @ F,0,1,1,0,28.98348,0,1 @ F,0,0,1,0,0,0,1 @ F,0,1,1,0,28.98348,0,1 @ F,0,1,1,0,28.98348,0,1 @ F,0,0,1,0,0,0,1 @ F,0,0,1,0,0,0,1 @ F,0,0,1,0,0,0,1 @ F,0,0,1,0,0,0,1 @ F,0,0,1,0,0,0,1 @ F,0,0,1,0,0,0,1 @ F,0,0,1,0,0,0,1 @ F,0,0,1,0,0,0,1 @ F,0,0,1,0,0,0,1 @ F,0,0,1,0,0,0,1 @ F,0,0,1,0,0,0,1 @ F,0,0,1,0,0,0,1 @ F,0,0,1,0,0,0,1 @ F,0,0,1,0,0,0,1 @ F,0,0,1,0,0,0,1 @ F,0,0,1,0,0,0,1 @ F,0,0,1,0,0,0,1 @ F,0,0,1,0,0,0,1 @ F,0,0,1,0,0,0,1 @ F,0,0,1,0,0,0,1 @ F,0,0,1,0,0,0,1 @ F,0,0,1,0,0,0,1 @ F,0,0,1,0,0,0,1 @ F,0,0,1,0,0,0,1 @ F,0,0,1,0,0,0,1 @ F,0,0,1,0,0,0,1 @ F,0,0,1,0,0,0,1 @ F,0,0,1,0,0,0,1 @ F,0,1,1,0,28.98348,0,1 @ F,0,1,1,0,28.98348,0,1 @ F,0,0,1,0,0,0,1 @ F,0,0,1,0,0,0,1 @ F,0,0,1,0,0,0,1 @ F,0,0,1,0,0,0,1 @ F,0,0,1,0,0,0,1 @ F,0,0,1,0,0,0,1 @ F,0,0,1,0,0,0,1 @ F,0,0,1,0,0,0,1 @ F,0,0,1,0,0,0,1 @ F,0,0,1,0,0,0,1 @ F,0,0,1,0,0,0,1 @ F,0,0,1,0,0,0,1 @ F,0,0,1,0,0,0,1 @ F,0,0,1,0,0,0,1 @ F,0,0,1,0,0,0,1 @ F,0,0,1,0,0,0,1 @ F,0,0,1,0,0,0,1 @ F,0,0,1,0,0,0,1 @ F,0,0,1,0,0,0,1 @ F,0,1,1,0,28.98348,0,1 @ F,0,1,1,0,28.98348,0,1 @ F,0,0,1,0,0,0,1 @ F,0,0,1,0,0,0,1 @ F,0,0,1,0,0,0,1 @ F,0,0,1,0,0,0,1"
   unit="px"
   method="auto"
   mode="F"
   radius="0"
   chamfer_steps="1"
   flexible="false"
   use_knot_distance="true"
   apply_no_radius="true"
   apply_with_radius="true"
   only_selected="true"
   hide_knots="false" /><inkscape:path-effect
   effect="spiro"
   id="path-effect873"
   is_visible="true"
   lpeversion="1" /><inkscape:path-effect
   effect="spiro"
   id="path-effect859"
   is_visible="true"
   lpeversion="1" /><inkscape:path-effect
   effect="spiro"
   id="path-effect862"
   is_visible="true"
   lpeversion="1" /><inkscape:path-effect
   effect="spiro"
   id="path-effect1521"
   is_visible="true"
   lpeversion="1" /><inkscape:path-effect
   effect="spiro"
   id="path-effect858"
   is_visible="true"
   lpeversion="1" /><inkscape:path-effect
   effect="spiro"
   id="path-effect854"
   is_visible="true"
   lpeversion="1" />
  <style
   type="text/css"
   id="style2">
   <![CDATA[
    .fil0 {fill:#EF7F1A;fill-rule:nonzero}
   ]]>
  </style>
 <inkscape:path-effect
   effect="spiro"
   id="path-effect1214"
   is_visible="true"
   lpeversion="1" /><inkscape:path-effect
   effect="spiro"
   id="path-effect1195"
   is_visible="true"
   lpeversion="1" /><inkscape:path-effect
   effect="spiro"
   id="path-effect992"
   is_visible="true"
   lpeversion="1" /><inkscape:path-effect
   effect="spiro"
   id="path-effect287"
   is_visible="true"
   lpeversion="1" /><inkscape:path-effect
   effect="spiro"
   id="path-effect1032"
   is_visible="true"
   lpeversion="1" /><inkscape:path-effect
   effect="spiro"
   id="path-effect1218"
   is_visible="true"
   lpeversion="1" /><inkscape:path-effect
   effect="spiro"
   id="path-effect309"
   is_visible="true"
   lpeversion="1" /><inkscape:path-effect
   effect="spiro"
   id="path-effect1176"
   is_visible="true"
   lpeversion="1" /><inkscape:path-effect
   effect="spiro"
   id="path-effect1026"
   is_visible="true"
   lpeversion="1" /><inkscape:path-effect
   effect="spiro"
   id="path-effect1030"
   is_visible="true"
   lpeversion="1" /><style
   type="text/css"
   id="style2-3">
   <![CDATA[
    .fil0 {fill:#EF7F1A;fill-rule:nonzero}
   ]]>
  </style></defs>
 
<path
   style="clip-rule:evenodd;display:inline;fill:#63452c;fill-rule:nonzero;stroke:none;stroke-width:2.09522px;stroke-linecap:butt;stroke-linejoin:miter;stroke-opacity:1;image-rendering:optimizeQuality;shape-rendering:geometricPrecision;text-rendering:geometricPrecision"
   d="m 427.84805,254.95972 c -14.2776,-1.06268 -28.58469,3.37571 -40.96558,10.56547 -12.38089,7.18977 -23.01792,17.02569 -32.8846,27.40008 -42.06995,44.23475 -71.74249,99.60446 -88.52402,158.29836 -16.78154,58.6939 -20.91056,120.64691 -15.44167,181.44728 3.16233,35.15719 9.50148,70.02761 18.90601,104.05071 2.86502,10.36489 -2.82948,21.25822 -13.10199,24.44023 l -112.92679,34.9802 C 132.54865,799.3514 120.79446,793.8252 116.78805,783.74589 91.118989,719.16775 69.483738,652.98635 52.053458,585.71505 12.742219,433.99527 -5.0561512,276.72054 -0.68126578,120.05299 -0.37194362,108.97596 8.6540952,102.40949 19.329463,105.38176 l 130.763087,36.40737 c 14.25872,3.96995 19.69056,17.51525 12.86775,30.6482 -17.70567,34.08091 -31.71935,70.08013 -41.69411,107.16834 -34.646244,128.82181 -17.23194,273.73135 59.24178,383.03456 13.68938,19.56611 29.12427,37.91049 46.06136,54.74399 l -66.59325,23.89082 c -9.85494,-84.03803 -5.91217,-169.67822 11.62273,-252.45525 18.59197,-87.76715 52.27027,-171.86729 93.98914,-251.2919 21.22894,-40.41578 45.3545,-80.65745 80.97092,-109.2157 17.80821,-14.27913 38.37539,-25.38667 60.54784,-30.809608 22.17245,-5.422943 45.98522,-4.98427 67.4299,2.835678 24.9975,9.11551 45.72047,27.7967 60.86826,49.67162 15.14778,21.87492 25.13278,46.89945 33.31763,72.21695 15.21121,47.05152 24.63364,95.97138 27.98747,145.30675 l -65.23166,2.50571 c 13.39021,-53.48602 36.12838,-104.61825 66.87557,-150.38573 25.08745,-37.34291 56.06323,-71.59314 94.7858,-94.49369 38.72257,-22.90055 85.86451,-33.613506 129.60076,-23.07722 46.31705,11.15801 84.82366,45.03545 110.13887,85.39522 25.31521,40.35977 38.82351,86.95237 48.9422,133.50753 15.68084,72.14609 23.94019,146.73476 14.16427,219.91521 -9.77594,73.18045 -38.6336,145.17173 -89.68732,198.50526 -17.63065,18.41795 -37.91911,34.58431 -60.98188,45.45488 -23.06277,10.87057 -49.03573,16.26565 -74.32943,13.05791 -29.71028,-3.76785 -57.32443,-19.37697 -77.8515,-41.18376 -20.52708,-21.8068 -34.21642,-49.51476 -41.70087,-78.5127 -13.55568,-52.52049 -6.68029,-110.19664 19.63398,-157.62783 26.31427,-47.43119 71.95107,-83.95393 124.24129,-98.37237 36.87245,-10.16717 76.55589,-9.48423 113.2926,1.16296 36.73672,10.64719 70.46389,31.14411 97.42435,58.27497 53.9208,54.26174 78.8948,134.20568 71.5185,210.34624 -5.1468,53.12639 -25.0993,104.41071 -55.003,148.62241 -29.90365,44.21169 -69.56642,81.45846 -114.11319,110.86063 -78.83293,52.03199 -173.64197,79.37039 -268.05109,77.79169 -15.67586,-0.2622 -27.96143,-14.0557 -27.47532,-29.7287 l 3.66462,-118.15561 c 0.49077,-15.8234 12.05065,-22.24717 26.53246,-15.86687 49.08434,21.62526 103.88861,30.26033 157.22637,24.44229 46.3516,-5.05599 92.01293,-21.15839 128.82306,-49.77741 36.81013,-28.61902 64.21236,-70.23119 71.93659,-116.21347 9.092,-54.12442 -10.43654,-111.94454 -49.52814,-150.46678 -39.0916,-38.52224 -96.47065,-57.17681 -150.9326,-50.39353 -24.64144,3.06911 -49.14404,11.33696 -68.32335,27.10953 -9.58965,7.88629 -17.7428,17.5922 -23.40484,28.64192 -5.66203,11.04973 -8.79137,23.45402 -8.54205,35.86744 0.38438,19.13826 8.96996,37.80935 22.60882,51.24075 13.63886,13.43139 32.0825,21.6574 51.10632,23.78227 25.77689,2.87915 52.1367,-5.2776 73.48746,-20.00454 21.35075,-14.72695 37.92668,-35.67591 49.98937,-58.63738 28.39176,-54.04406 32.13645,-117.83284 26.54516,-178.6242 -3.37432,-36.68731 -10.09314,-73.61138 -26.17751,-106.75708 -16.08436,-33.14571 -42.41712,-62.41683 -76.57254,-76.22813 -30.61839,-12.38105 -65.89061,-11.46992 -96.81573,0.12374 -30.92513,11.59365 -57.53415,33.39157 -77.16414,59.95169 -24.4155,33.0351 -38.24632,73.07038 -44.13194,113.72495 -5.88563,40.65457 -4.13043,82.07004 0.39779,122.89809 2.58393,23.29766 6.0659,46.49568 10.43489,69.52543 1.88653,9.94423 -4.60625,18.17647 -14.72482,18.43067 l -120.14424,3.01819 c -14.10966,0.35446 -19.80424,-9.27171 -13.65756,-21.97417 6.36204,-13.1475 11.97301,-26.65849 16.79338,-40.44605 23.34695,-66.77857 27.76592,-139.14527 20.53485,-209.51692 -2.47627,-24.09866 -6.48067,-48.64003 -18.22894,-69.82625 -5.87414,-10.5931 -13.67676,-20.21172 -23.37298,-27.47137 -9.69623,-7.25965 -21.33525,-12.09061 -33.41461,-12.98968 z"
   id="path1087-1-75"
   inkscape:path-effect="#path-effect1030;#path-effect863"
   inkscape:original-d="m 427.84805,254.95972 c -26.82337,-6.82961 -56.094,16.73221 -73.85018,37.96555 -75.9743,90.85221 -98.00647,221.46332 -103.96569,339.74564 -2.09878,41.65789 24.40405,122.7294 24.40405,122.7294 l -150.28664,46.55278 c 0,0 -55.321198,-142.13289 -72.096132,-216.23804 C 19.101059,440.14414 0,100 0,100 l 175.91025,48.97736 c 0,0 -50.86672,83.58068 -54.64406,130.62831 -7.31157,91.06726 5.79934,265.40982 59.24178,383.03456 9.86481,21.71206 46.06136,54.74399 46.06136,54.74399 l -66.59325,23.89082 c 0,0 -5.27517,-169.92654 11.62273,-252.45525 17.93904,-87.6136 38.18305,-181.4089 93.98914,-251.2919 51.99281,-65.10783 126.77318,-150.954532 208.94866,-137.18963 50.64058,8.48261 73.05777,75.09086 94.18589,121.88857 20.29681,44.9564 27.98747,145.30675 27.98747,145.30675 l -65.23166,2.50571 c 0,0 29.34762,-110.36756 66.87557,-150.38573 57.76147,-61.59433 142.16674,-136.810233 224.38656,-117.57091 87.82804,20.55163 138.96283,130.97443 159.08107,218.90275 31.61069,138.15703 12.55539,307.38538 -75.52305,418.42047 -30.53894,38.49857 -87.04542,67.74155 -135.31131,58.51279 C 715.59905,787.32809 659.10211,734.09002 651.43478,678.2222 638.12552,581.24456 698.49299,436.65307 795.31005,422.222 924.03331,403.03516 1062.589,562.72307 1077.5455,692.00617 c 11.8647,102.5588 -85.25712,199.26065 -169.11619,259.48304 -82.87796,59.51779 -296.40658,76.44149 -296.40658,76.44149 l 5.4334,-175.1849 c 0,0 122.52139,52.31659 182.87022,37.22621 84.2379,-21.06389 196.61434,-79.25837 200.75965,-165.99088 4.5158,-94.48447 -105.89349,-198.6825 -200.46074,-200.86031 -45.26265,-1.04236 -99.05142,46.36065 -100.27024,91.61889 -0.94382,35.04657 38.8816,71.05088 73.71514,75.02302 48.48365,5.52868 96.91393,-37.70729 123.47683,-78.64192 32.76703,-50.49548 37.44376,-119.42376 26.54516,-178.6242 C 911.42682,363.69943 886.72863,274.37229 821.3421,249.5114 c -57.34798,-21.80452 -133.96265,13.56898 -173.97987,60.07543 -52.31651,60.80021 -42.78161,156.41846 -43.73415,236.62304 -0.35078,29.53584 14.03136,87.49584 14.03136,87.49584 l -164.01333,4.12025 c 0,0 22.69582,-40.75885 28.68362,-63.06202 18.1954,-67.77362 37.8828,-141.52145 20.53485,-209.51692 -10.99134,-43.08065 -31.93052,-99.31699 -75.01653,-110.2873 z"
   sodipodi:nodetypes="aaaccsccsaccaaaaccaaaaaaaaaccaaaaaaaaaaccaaa" /><g
   style="clip-rule:evenodd;fill-rule:evenodd;image-rendering:optimizeQuality;shape-rendering:geometricPrecision;text-rendering:geometricPrecision"
   id="g893"
   transform="translate(671.53744,3.7968653)" /></svg>
