<?xml version="1.0" encoding="UTF-8" standalone="no"?>
<svg
   xmlns:dc="http://purl.org/dc/elements/1.1/"
   xmlns:cc="http://creativecommons.org/ns#"
   xmlns:rdf="http://www.w3.org/1999/02/22-rdf-syntax-ns#"
   xmlns:svg="http://www.w3.org/2000/svg"
   xmlns="http://www.w3.org/2000/svg"
   xmlns:sodipodi="http://sodipodi.sourceforge.net/DTD/sodipodi-0.dtd"
   xmlns:inkscape="http://www.inkscape.org/namespaces/inkscape"
   xml:space="preserve"
   width="1000"
   height="1000"
   version="1.1"
   style="clip-rule:evenodd;fill-rule:evenodd;image-rendering:optimizeQuality;shape-rendering:geometricPrecision;text-rendering:geometricPrecision"
   viewBox="0 0 1000 1000"
   id="svg10"
   sodipodi:docname="ഘ.svg"
   inkscape:version="1.0.2 (e86c870879, 2021-01-15)"><metadata
   id="metadata14"><rdf:RDF><cc:Work
       rdf:about=""><dc:format>image/svg+xml</dc:format><dc:type
         rdf:resource="http://purl.org/dc/dcmitype/StillImage" /><dc:title /></cc:Work></rdf:RDF></metadata><sodipodi:namedview
   pagecolor="#ffffff"
   bordercolor="#666666"
   borderopacity="1"
   objecttolerance="10"
   gridtolerance="10"
   guidetolerance="10"
   inkscape:pageopacity="0"
   inkscape:pageshadow="2"
   inkscape:window-width="1920"
   inkscape:window-height="1007"
   id="namedview12"
   showgrid="false"
   inkscape:zoom="0.84890884"
   inkscape:cx="407.73679"
   inkscape:cy="377.96826"
   inkscape:window-x="1920"
   inkscape:window-y="0"
   inkscape:window-maximized="1"
   inkscape:current-layer="svg10"
   showguides="true"
   inkscape:guide-bbox="true"
   inkscape:document-rotation="0"><sodipodi:guide
   position="0,1000"
   orientation="0,1"
   id="guide16"
   inkscape:label=""
   inkscape:locked="true"
   inkscape:color="rgb(0,0,255)" /><sodipodi:guide
   position="1763.3122,2036.1693"
   orientation="1000,0"
   id="guide18" /><sodipodi:guide
   position="0,200"
   orientation="0,1"
   id="guide20"
   inkscape:label="base"
   inkscape:locked="true"
   inkscape:color="rgb(0,0,255)" /><inkscape:grid
   type="xygrid"
   id="grid24"
   originx="-473.37552"
   originy="-489.69235" /><sodipodi:guide
   position="0,0"
   orientation="0,1"
   id="guide34"
   inkscape:label="bottom"
   inkscape:locked="true"
   inkscape:color="rgb(0,0,255)" /><sodipodi:guide
   position="225.05109,1693.3186"
   orientation="0,1"
   id="guide44"
   inkscape:label=""
   inkscape:locked="false"
   inkscape:color="rgb(0,0,255)" /><sodipodi:guide
   position="0,900"
   orientation="0,1"
   id="guide46"
   inkscape:label=""
   inkscape:locked="true"
   inkscape:color="rgb(0,0,255)" /><sodipodi:guide
   position="960.37232,500.52293"
   orientation="1,0"
   id="guide841"
   inkscape:label="width" />    </sodipodi:namedview>
 <defs
   id="defs4"><inkscape:path-effect
   effect="fillet_chamfer"
   id="path-effect845"
   is_visible="true"
   lpeversion="1"
   satellites_param="F,0,1,1,0,26.141936,0,1 @ F,0,0,1,0,0,0,1 @ F,0,0,1,0,0,0,1 @ F,0,0,1,0,0,0,1 @ F,0,0,1,0,0,0,1 @ F,0,0,1,0,0,0,1 @ F,0,0,1,0,0,0,1 @ F,0,0,1,0,0,0,1 @ F,0,0,1,0,0,0,1 @ F,0,0,1,0,0,0,1 @ F,0,1,1,0,26.141936,0,1 @ F,0,1,1,0,26.141936,0,1 @ F,0,0,1,0,0,0,1 @ F,0,0,1,0,0,0,1 @ F,0,0,1,0,0,0,1 @ F,0,0,1,0,0,0,1 @ F,0,0,1,0,0,0,1 @ F,0,0,1,0,0,0,1 @ F,0,0,1,0,0,0,1 @ F,0,0,1,0,0,0,1 @ F,0,0,1,0,0,0,1 @ F,0,0,1,0,0,0,1 @ F,0,0,1,0,0,0,1 @ F,0,0,1,0,0,0,1 @ F,0,0,1,0,0,0,1 @ F,0,0,1,0,0,0,1 @ F,0,0,1,0,0,0,1 @ F,0,0,1,0,0,0,1 @ F,0,0,1,0,0,0,1 @ F,0,0,1,0,0,0,1 @ F,0,0,1,0,0,0,1 @ F,0,0,1,0,0,0,1 @ F,0,0,1,0,0,0,1 @ F,0,0,1,0,0,0,1 @ F,0,1,1,0,26.141936,0,1 @ F,0,1,1,0,26.141936,0,1 @ F,0,0,1,0,0,0,1 @ F,0,0,1,0,0,0,1 @ F,0,0,1,0,0,0,1 @ F,0,0,1,0,0,0,1 @ F,0,0,1,0,0,0,1 @ F,0,0,1,0,0,0,1 @ F,0,0,1,0,0,0,1 @ F,0,0,1,0,0,0,1 @ F,0,0,1,0,0,0,1 @ F,0,0,1,0,0,0,1 @ F,0,0,1,0,0,0,1 @ F,0,0,1,0,0,0,1 @ F,0,0,1,0,0,0,1 @ F,0,0,1,0,0,0,1 @ F,0,0,1,0,0,0,1 @ F,0,0,1,0,0,0,1 @ F,0,0,1,0,0,0,1 @ F,0,0,1,0,0,0,1 @ F,0,0,1,0,0,0,1 @ F,0,0,1,0,0,0,1 @ F,0,0,1,0,0,0,1 @ F,0,0,1,0,0,0,1 @ F,0,0,1,0,0,0,1 @ F,0,0,1,0,0,0,1 @ F,0,0,1,0,0,0,1 @ F,0,0,1,0,0,0,1 @ F,0,0,1,0,0,0,1 @ F,0,0,1,0,0,0,1 @ F,0,1,1,0,26.141936,0,1"
   unit="px"
   method="auto"
   mode="F"
   radius="0"
   chamfer_steps="1"
   flexible="false"
   use_knot_distance="true"
   apply_no_radius="true"
   apply_with_radius="true"
   only_selected="true"
   hide_knots="false" /><inkscape:path-effect
   effect="spiro"
   id="path-effect846"
   is_visible="true"
   lpeversion="1" /><inkscape:path-effect
   effect="spiro"
   id="path-effect854"
   is_visible="true"
   lpeversion="1" />
  <style
   type="text/css"
   id="style2">
   <![CDATA[
    .fil0 {fill:#EF7F1A;fill-rule:nonzero}
   ]]>
  </style>
 <inkscape:path-effect
   effect="spiro"
   id="path-effect1214"
   is_visible="true"
   lpeversion="1" /><inkscape:path-effect
   effect="spiro"
   id="path-effect1195"
   is_visible="true"
   lpeversion="1" /><inkscape:path-effect
   effect="spiro"
   id="path-effect992"
   is_visible="true"
   lpeversion="1" /><inkscape:path-effect
   effect="spiro"
   id="path-effect287"
   is_visible="true"
   lpeversion="1" /></defs>
 
<path
   style="fill:#2d2d2d;fill-rule:nonzero;stroke:none;stroke-width:1px;stroke-linecap:butt;stroke-linejoin:miter;stroke-opacity:1"
   d="M 189.08195,576.09156 C 171.65257,571.04685 155.12528,562.87194 140.5971,551.99837 119.09158,535.90262 102.02462,513.93711 91.742183,489.12115 80.606855,462.2468 77.518186,431.85787 84.498,403.61767 c 6.979815,-28.24019 24.26361,-54.07635 48.54951,-70.08951 20.09495,-13.24981 44.60898,-19.5639 68.62975,-18.02546 24.02078,1.53845 47.42902,10.8642 66.15401,25.98834 13.31581,10.75516 24.38833,24.54732 30.69563,40.45965 6.3073,15.91233 7.64225,33.99024 2.39408,50.2826 -4.444,13.79588 -13.56647,26.03824 -25.51545,34.24174 -4.76342,3.2703 -9.96444,5.89078 -15.41397,7.80854 -13.53148,4.76191 -23.55438,15.20397 -20.89664,29.39503 l 7.19369,38.41086 c 2.65774,14.19106 16.30439,23.43544 30.59765,21.40738 49.43863,-7.01482 99.83311,-7.29111 149.34117,-0.77559 34.02205,4.47748 67.56354,12.12611 101.57255,16.70163 34.009,4.57551 68.94862,6.01659 102.3485,-1.85714 60.70449,-14.31056 112.59525,-60.68419 134.75449,-118.98338 13.81404,-36.34363 16.52543,-76.3893 10.98818,-114.8734 -5.53724,-38.4841 -19.09559,-75.50748 -36.78054,-110.13304 -19.19753,-37.58705 -43.87266,-73.2177 -77.35906,-98.90802 -33.4864,-25.69033 -76.66641,-40.612165 -118.36542,-34.09108 -22.14269,3.46278 -43.20006,12.80801 -61.34043,25.96919 -18.14037,13.16119 -33.41358,30.07061 -45.68359,48.82525 -24.54004,37.50927 -36.89389,81.68851 -44.82676,125.80459 -19.53426,108.63344 -14.0402,221.65491 15.63655,327.96625 7.26477,26.02467 16.01891,51.79795 28.93566,75.53016 12.91675,23.73222 30.18985,45.45729 52.29502,60.99505 27.18208,19.10633 60.48214,28.0334 93.60891,30.58951 33.12678,2.55611 66.39505,-0.90546 99.41087,-4.63003 37.48793,-4.22908 75.19073,-8.85615 111.17469,-20.18681 35.98397,-11.33066 70.5064,-29.84834 95.5055,-58.10209 20.33475,-22.98214 33.65252,-51.64771 40.88259,-81.47064 7.23008,-29.82292 8.56619,-60.83487 6.80792,-91.47127 -3.51654,-61.27281 -19.20964,-121.301 -23.72621,-182.50821 -3.56498,-48.31144 -0.12037,-96.96249 7.37492,-144.82192 4.63533,-29.59784 10.81833,-58.95317 18.51292,-87.90677 3.70807,-13.95292 -4.60572,-25.335796 -19.04187,-25.553787 l -80.16941,-1.210586 c -14.43615,-0.217991 -26.38171,11.308163 -26.37936,25.745743 0.004,26.48857 0.76206,52.97702 2.27245,79.42249 4.54973,79.66165 15.93389,158.88848 32.94068,236.84646 5.89831,27.03746 12.48966,54.03437 14.98234,81.59523 2.49268,27.56085 0.71753,56.00943 -9.63766,81.67233 -12.28596,30.44786 -36.18945,55.37834 -64.25573,72.41655 -28.06629,17.03821 -60.15109,26.61118 -92.57043,31.80765 -33.77277,5.41341 -68.56399,6.21269 -102.03084,-0.84954 -33.46685,-7.06223 -65.60643,-22.27484 -90.19205,-46.05409 -31.02916,-30.01145 -48.41578,-71.98452 -55.5703,-114.55574 -7.15451,-42.57122 -4.84333,-86.12593 -1.3896,-129.15577 2.99399,-37.30196 7.0038,-75.22835 21.83246,-109.5869 7.41433,-17.17928 17.54005,-33.31032 30.7354,-46.57616 13.19536,-13.26584 29.53918,-23.59884 47.56385,-28.6199 16.7903,-4.67721 34.78516,-4.65909 51.71965,-0.53433 16.93448,4.12476 32.80084,12.29731 46.3837,23.21959 27.16574,21.84456 44.66456,54.19602 52.73689,88.10766 5.16532,21.69939 6.71035,44.4173 2.90341,66.39573 -3.80694,21.97842 -13.11705,43.19453 -27.95259,59.85138 -20.1537,22.62791 -49.34307,35.68046 -79.08878,41.45859 -29.7457,5.77813 -60.34368,4.87793 -90.61321,3.48169 -55.90906,-2.57892 -111.7436,-6.77342 -167.41045,-12.5765 24.64816,-57.16097 25.71294,-124.08002 2.89582,-181.99623 -18.32786,-46.52121 -52.38278,-87.5149 -97.01594,-110.05407 -22.31658,-11.26959 -47.05239,-17.86212 -72.04244,-18.59064 -24.99005,-0.72852 -50.2031,4.45997 -72.61564,15.53749 -24.187204,11.95465 -44.836974,30.61964 -60.244275,52.76799 -15.407301,22.14836 -25.652596,47.70569 -31.098096,74.1307 -10.8910007,52.85002 -2.6677354,108.09792 13.676029,159.52379 19.238026,60.5327 49.747414,117.45369 89.419492,167.05123 9.01742,11.27346 24.66796,11.2891 34.32322,0.55477 l 54.19293,-60.24952 c 9.65526,-10.73433 5.71856,-20.48185 -8.13239,-24.49082 z"
   id="path844"
   inkscape:path-effect="#path-effect846;#path-effect845"
   inkscape:original-d="m 214.69673,581.14616 c 0,0 -106.1528,-43.66785 -122.954547,-92.02501 -17.61171,-50.68833 -2.175434,-124.14618 41.305327,-155.59299 36.4681,-26.37501 98.68625,-18.9171 134.78376,7.96288 25.82276,19.22889 42.90344,60.07866 33.08971,90.74225 -8.21288,25.66164 -63.82847,60.75342 -66.63833,45.75012 l 16.81823,89.80124 c 0,0 116.74062,-6.34116 175.12655,-5.0634 68.13723,1.49116 139.34243,36.62769 203.92105,14.84449 C 686.92733,558.4135 743.42035,514.52111 764.90297,458.58236 791.96806,388.10741 778.18564,298.16989 739.11061,233.57592 698.28324,166.08521 621.21949,87.776861 543.38613,100.57682 460.63362,114.18576 416.33155,221.06137 391.53535,301.17585 359.17523,405.72874 375.64661,524.33446 407.1719,629.1421 c 15.25319,50.71009 37.0492,107.33326 81.23068,136.52521 54.16404,35.78771 128.52345,33.35722 193.01978,25.95948 73.19045,-8.39496 162.80221,-19.11087 206.68019,-78.2889 70.72879,-95.3916 16.95025,-236.9051 23.9643,-355.45012 2.85497,-48.25214 0.78245,-96.93707 7.37492,-144.82192 C 924.71222,174.78363 945.05178,100 945.05178,100 L 812.60445,98 c 0,0 -0.73559,70.47777 2.03205,105.56294 6.26824,79.46188 26.13715,157.42862 32.94068,236.84646 4.64772,54.25296 30.28414,114.86293 5.34468,163.26756 -28.74792,55.7964 -95.00288,93.3816 -156.82616,104.2242 -64.96268,11.39319 -145.81374,-0.0406 -192.22289,-46.90363 -58.70363,-59.27776 -68.06414,-161.02737 -56.9599,-243.71151 9.32467,-69.43307 31.76913,-169.47092 100.13171,-184.78296 60.87739,-13.63548 128.23941,52.64496 150.84024,110.79292 15.5426,39.98839 4.31703,94.9698 -25.04918,126.24711 -40.05408,42.66072 -111.43195,39.56739 -169.70199,44.94028 -55.72434,5.13816 -167.41045,-12.5765 -167.41045,-12.5765 0,0 35.05129,-130.5448 2.89582,-181.99623 C 291.48051,244.48504 177.63824,169.39124 96.94504,206.80342 7.19968,248.4125 6.854992,395.08725 19.278698,493.2259 28.28436,564.36437 69.53905,613.06714 125.53902,680.26812 Z"
   sodipodi:nodetypes="caaaascaaaaaaaaaaaaccaaaaaaaaaacaaacc" /></svg>
