<?xml version="1.0" encoding="UTF-8" standalone="no"?>
<svg
   xml:space="preserve"
   width="1000"
   height="1000"
   version="1.1"
   style="clip-rule:evenodd;fill-rule:evenodd;image-rendering:optimizeQuality;shape-rendering:geometricPrecision;text-rendering:geometricPrecision"
   viewBox="0 0 1000 1000"
   id="svg10"
   sodipodi:docname="ഘ.svg"
   inkscape:version="1.1.2 (0a00cf5339, 2022-02-04)"
   xmlns:inkscape="http://www.inkscape.org/namespaces/inkscape"
   xmlns:sodipodi="http://sodipodi.sourceforge.net/DTD/sodipodi-0.dtd"
   xmlns="http://www.w3.org/2000/svg"
   xmlns:svg="http://www.w3.org/2000/svg"
   xmlns:rdf="http://www.w3.org/1999/02/22-rdf-syntax-ns#"
   xmlns:cc="http://creativecommons.org/ns#"
   xmlns:dc="http://purl.org/dc/elements/1.1/"><metadata
   id="metadata14"><rdf:RDF><cc:Work
       rdf:about=""><dc:format>image/svg+xml</dc:format><dc:type
         rdf:resource="http://purl.org/dc/dcmitype/StillImage" /></cc:Work></rdf:RDF></metadata><sodipodi:namedview
   pagecolor="#ffffff"
   bordercolor="#666666"
   borderopacity="1"
   objecttolerance="10"
   gridtolerance="10"
   guidetolerance="10"
   inkscape:pageopacity="0"
   inkscape:pageshadow="2"
   inkscape:window-width="1920"
   inkscape:window-height="1009"
   id="namedview12"
   showgrid="false"
   inkscape:zoom="0.84890884"
   inkscape:cx="525.96931"
   inkscape:cy="491.21882"
   inkscape:window-x="0"
   inkscape:window-y="0"
   inkscape:window-maximized="1"
   inkscape:current-layer="svg10"
   showguides="true"
   inkscape:guide-bbox="true"
   inkscape:document-rotation="0"
   inkscape:pagecheckerboard="0"><sodipodi:guide
   position="0,1000"
   orientation="0,1"
   id="guide16"
   inkscape:label=""
   inkscape:locked="true"
   inkscape:color="rgb(0,0,255)" /><sodipodi:guide
   position="1763.3122,2036.1693"
   orientation="1000,0"
   id="guide18" /><sodipodi:guide
   position="0,200"
   orientation="0,1"
   id="guide20"
   inkscape:label="base"
   inkscape:locked="true"
   inkscape:color="rgb(0,0,255)" /><inkscape:grid
   type="xygrid"
   id="grid24"
   originx="-473.37552"
   originy="-489.69235" /><sodipodi:guide
   position="0,0"
   orientation="0,1"
   id="guide34"
   inkscape:label="bottom"
   inkscape:locked="true"
   inkscape:color="rgb(0,0,255)" /><sodipodi:guide
   position="225.05109,1693.3186"
   orientation="0,1"
   id="guide44"
   inkscape:label=""
   inkscape:locked="false"
   inkscape:color="rgb(0,0,255)" /><sodipodi:guide
   position="0,900"
   orientation="0,1"
   id="guide46"
   inkscape:label=""
   inkscape:locked="true"
   inkscape:color="rgb(0,0,255)" /><sodipodi:guide
   position="1001.3818,483.66885"
   orientation="1,0"
   id="guide841"
   inkscape:label="width" />    </sodipodi:namedview>
 <defs
   id="defs4"><inkscape:path-effect
   effect="fillet_chamfer"
   id="path-effect848"
   is_visible="true"
   lpeversion="1"
   satellites_param="F,0,1,1,0,22.694415,0,1 @ F,0,0,1,0,0,0,1 @ F,0,0,1,0,0,0,1 @ F,0,0,1,0,0,0,1 @ F,0,0,1,0,0,0,1 @ F,0,0,1,0,0,0,1 @ F,0,0,1,0,0,0,1 @ F,0,0,1,0,0,0,1 @ F,0,0,1,0,0,0,1 @ F,0,1,1,0,22.694415,0,1 @ F,0,1,1,0,22.694415,0,1 @ F,0,0,1,0,0,0,1 @ F,0,0,1,0,0,0,1 @ F,0,0,1,0,0,0,1 @ F,0,0,1,0,0,0,1 @ F,0,0,1,0,0,0,1 @ F,0,0,1,0,0,0,1 @ F,0,0,1,0,0,0,1 @ F,0,0,1,0,0,0,1 @ F,0,0,1,0,0,0,1 @ F,0,0,1,0,0,0,1 @ F,0,0,1,0,0,0,1 @ F,0,0,1,0,0,0,1 @ F,0,0,1,0,0,0,1 @ F,0,0,1,0,0,0,1 @ F,0,0,1,0,0,0,1 @ F,0,0,1,0,0,0,1 @ F,0,0,1,0,0,0,1 @ F,0,0,1,0,0,0,1 @ F,0,0,1,0,0,0,1 @ F,0,0,1,0,0,0,1 @ F,0,0,1,0,0,0,1 @ F,0,0,1,0,0,0,1 @ F,0,1,1,0,22.694415,0,1 @ F,0,1,1,0,22.694415,0,1 @ F,0,0,1,0,0,0,1 @ F,0,0,1,0,0,0,1 @ F,0,0,1,0,0,0,1 @ F,0,0,1,0,0,0,1 @ F,0,0,1,0,0,0,1 @ F,0,0,1,0,0,0,1 @ F,0,0,1,0,0,0,1 @ F,0,0,1,0,0,0,1 @ F,0,0,1,0,0,0,1 @ F,0,0,1,0,0,0,1 @ F,0,0,1,0,0,0,1 @ F,0,0,1,0,0,0,1 @ F,0,0,1,0,0,0,1 @ F,0,0,1,0,0,0,1 @ F,0,0,1,0,0,0,1 @ F,0,0,1,0,0,0,1 @ F,0,0,1,0,0,0,1 @ F,0,0,1,0,0,0,1 @ F,0,0,1,0,0,0,1 @ F,0,0,1,0,0,0,1 @ F,0,0,1,0,0,0,1 @ F,0,0,1,0,0,0,1 @ F,0,0,1,0,0,0,1 @ F,0,0,1,0,0,0,1 @ F,0,0,1,0,0,0,1 @ F,0,0,1,0,0,0,1 @ F,0,0,1,0,0,0,1 @ F,0,0,1,0,0,0,1 @ F,0,0,1,0,0,0,1 @ F,0,1,1,0,22.694415,0,1"
   unit="px"
   method="auto"
   mode="F"
   radius="0"
   chamfer_steps="1"
   flexible="false"
   use_knot_distance="true"
   apply_no_radius="true"
   apply_with_radius="true"
   only_selected="true"
   hide_knots="false" /><inkscape:path-effect
   effect="fillet_chamfer"
   id="path-effect847"
   is_visible="true"
   lpeversion="1"
   satellites_param="F,0,0,1,0,34.738087,0,1 @ F,0,0,1,0,0,0,1 @ F,0,0,1,0,0,0,1 @ F,0,0,1,0,0,0,1 @ F,0,0,1,0,0,0,1 @ F,0,0,1,0,0,0,1 @ F,0,0,1,0,0,0,1 @ F,0,0,1,0,0,0,1 @ F,0,0,1,0,0,0,1 @ F,0,0,1,0,27.967711,0,1 @ F,0,0,1,0,27.967711,0,1 @ F,0,0,1,0,0,0,1 @ F,0,0,1,0,0,0,1 @ F,0,0,1,0,0,0,1 @ F,0,0,1,0,0,0,1 @ F,0,0,1,0,0,0,1 @ F,0,0,1,0,0,0,1 @ F,0,0,1,0,0,0,1 @ F,0,0,1,0,0,0,1 @ F,0,0,1,0,0,0,1 @ F,0,0,1,0,0,0,1 @ F,0,0,1,0,0,0,1 @ F,0,0,1,0,0,0,1 @ F,0,0,1,0,0,0,1 @ F,0,0,1,0,0,0,1 @ F,0,0,1,0,0,0,1 @ F,0,0,1,0,0,0,1 @ F,0,0,1,0,0,0,1 @ F,0,0,1,0,0,0,1 @ F,0,0,1,0,0,0,1 @ F,0,0,1,0,0,0,1 @ F,0,0,1,0,0,0,1 @ F,0,0,1,0,0,0,1 @ F,0,1,1,0,33.833648,0,1 @ F,0,1,1,0,33.833648,0,1 @ F,0,0,1,0,0,0,1 @ F,0,0,1,0,0,0,1 @ F,0,0,1,0,0,0,1 @ F,0,0,1,0,0,0,1 @ F,0,0,1,0,0,0,1 @ F,0,0,1,0,0,0,1 @ F,0,0,1,0,0,0,1 @ F,0,0,1,0,0,0,1 @ F,0,0,1,0,0,0,1 @ F,0,0,1,0,0,0,1 @ F,0,0,1,0,0,0,1 @ F,0,0,1,0,0,0,1 @ F,0,0,1,0,0,0,1 @ F,0,0,1,0,0,0,1 @ F,0,0,1,0,0,0,1 @ F,0,0,1,0,0,0,1 @ F,0,0,1,0,0,0,1 @ F,0,0,1,0,0,0,1 @ F,0,0,1,0,0,0,1 @ F,0,0,1,0,0,0,1 @ F,0,0,1,0,0,0,1 @ F,0,0,1,0,0,0,1 @ F,0,0,1,0,0,0,1 @ F,0,0,1,0,0,0,1 @ F,0,0,1,0,0,0,1 @ F,0,0,1,0,0,0,1 @ F,0,0,1,0,0,0,1 @ F,0,0,1,0,34.738087,0,1"
   unit="px"
   method="auto"
   mode="F"
   radius="0"
   chamfer_steps="1"
   flexible="false"
   use_knot_distance="true"
   apply_no_radius="true"
   apply_with_radius="true"
   only_selected="true"
   hide_knots="false" /><inkscape:path-effect
   effect="fillet_chamfer"
   id="path-effect845"
   is_visible="true"
   lpeversion="1"
   satellites_param="F,0,1,1,0,26.141936,0,1 @ F,0,0,1,0,0,0,1 @ F,0,0,1,0,0,0,1 @ F,0,0,1,0,0,0,1 @ F,0,0,1,0,0,0,1 @ F,0,0,1,0,0,0,1 @ F,0,0,1,0,0,0,1 @ F,0,0,1,0,0,0,1 @ F,0,0,1,0,0,0,1 @ F,0,0,1,0,0,0,1 @ F,0,1,1,0,26.141936,0,1 @ F,0,1,1,0,26.141936,0,1 @ F,0,0,1,0,0,0,1 @ F,0,0,1,0,0,0,1 @ F,0,0,1,0,0,0,1 @ F,0,0,1,0,0,0,1 @ F,0,0,1,0,0,0,1 @ F,0,0,1,0,0,0,1 @ F,0,0,1,0,0,0,1 @ F,0,0,1,0,0,0,1 @ F,0,0,1,0,0,0,1 @ F,0,0,1,0,0,0,1 @ F,0,0,1,0,0,0,1 @ F,0,0,1,0,0,0,1 @ F,0,0,1,0,0,0,1 @ F,0,0,1,0,0,0,1 @ F,0,0,1,0,0,0,1 @ F,0,0,1,0,0,0,1 @ F,0,0,1,0,0,0,1 @ F,0,0,1,0,0,0,1 @ F,0,0,1,0,0,0,1 @ F,0,0,1,0,0,0,1 @ F,0,0,1,0,0,0,1 @ F,0,0,1,0,0,0,1 @ F,0,1,1,0,26.141936,0,1 @ F,0,1,1,0,26.141936,0,1 @ F,0,0,1,0,0,0,1 @ F,0,0,1,0,0,0,1 @ F,0,0,1,0,0,0,1 @ F,0,0,1,0,0,0,1 @ F,0,0,1,0,0,0,1 @ F,0,0,1,0,0,0,1 @ F,0,0,1,0,0,0,1 @ F,0,0,1,0,0,0,1 @ F,0,0,1,0,0,0,1 @ F,0,0,1,0,0,0,1 @ F,0,0,1,0,0,0,1 @ F,0,0,1,0,0,0,1 @ F,0,0,1,0,0,0,1 @ F,0,0,1,0,0,0,1 @ F,0,0,1,0,0,0,1 @ F,0,0,1,0,0,0,1 @ F,0,0,1,0,0,0,1 @ F,0,0,1,0,0,0,1 @ F,0,0,1,0,0,0,1 @ F,0,0,1,0,0,0,1 @ F,0,0,1,0,0,0,1 @ F,0,0,1,0,0,0,1 @ F,0,0,1,0,0,0,1 @ F,0,0,1,0,0,0,1 @ F,0,0,1,0,0,0,1 @ F,0,0,1,0,0,0,1 @ F,0,0,1,0,0,0,1 @ F,0,0,1,0,0,0,1 @ F,0,1,1,0,26.141936,0,1"
   unit="px"
   method="auto"
   mode="F"
   radius="0"
   chamfer_steps="1"
   flexible="false"
   use_knot_distance="true"
   apply_no_radius="true"
   apply_with_radius="true"
   only_selected="true"
   hide_knots="false" /><inkscape:path-effect
   effect="spiro"
   id="path-effect846"
   is_visible="true"
   lpeversion="1" /><inkscape:path-effect
   effect="spiro"
   id="path-effect854"
   is_visible="true"
   lpeversion="1" />
  <style
   type="text/css"
   id="style2">
   
    .fil0 {fill:#EF7F1A;fill-rule:nonzero}
   
  </style>
 <inkscape:path-effect
   effect="spiro"
   id="path-effect1214"
   is_visible="true"
   lpeversion="1" /><inkscape:path-effect
   effect="spiro"
   id="path-effect1195"
   is_visible="true"
   lpeversion="1" /><inkscape:path-effect
   effect="spiro"
   id="path-effect992"
   is_visible="true"
   lpeversion="1" /><inkscape:path-effect
   effect="spiro"
   id="path-effect287"
   is_visible="true"
   lpeversion="1" /></defs>
 
<path
   style="fill:#26a269;fill-rule:nonzero;stroke:none;stroke-width:1px;stroke-linecap:butt;stroke-linejoin:miter;stroke-opacity:1"
   d="M 5.1876319,647.69938 C 12.503738,613.22836 19.908917,578.77625 27.403069,544.3435 44.42483,466.13505 62.371343,386.77513 101.29921,316.83999 c 23.43654,-42.10448 55.24853,-80.95434 97.47774,-104.1654 21.1146,-11.60552 44.63108,-19.09382 68.6786,-20.58765 24.04752,-1.49383 48.60931,3.13079 69.91998,14.37223 31.6702,16.70612 54.85053,47.65976 64.75164,82.06999 9.90111,34.41022 7.04532,71.88034 -5.21429,105.52254 -12.87685,35.33598 -35.48366,66.22297 -59.129,95.46921 -15.58404,19.27545 -31.75133,38.07933 -48.472,56.37752 -8.45478,9.25246 -19.74809,7.3983 -25.03435,-3.96617 l -15.46077,-33.23778 c -5.28626,-11.36447 0.5058,-19.27855 12.94737,-17.76117 93.44785,11.39698 187.32732,19.25478 281.36956,23.55006 30.28596,1.38328 60.89807,2.37511 90.66827,-3.35967 29.7702,-5.73478 59.01032,-18.81625 79.03372,-41.58061 14.70179,-16.71428 23.78224,-37.9718 27.50633,-59.91812 3.72408,-21.94632 2.25806,-44.57407 -2.45715,-66.32899 -7.51121,-34.65502 -23.98913,-68.32794 -51.3024,-90.94153 -13.65663,-11.30679 -29.87095,-19.65678 -47.20208,-23.39561 -17.33114,-3.73884 -35.76783,-2.76853 -52.33576,3.54422 -24.99264,9.52275 -44.32051,30.55125 -56.69212,54.26323 -12.37161,23.71199 -18.50618,50.12969 -23.54739,76.39566 -8.25714,43.02171 -13.91707,86.91179 -10.66176,130.59761 3.25532,43.68583 15.87335,87.41015 41.47169,122.95974 22.09505,30.68441 53.29711,54.36123 87.96449,69.45748 34.66739,15.09626 72.70454,21.79495 110.51617,21.72438 28.05856,-0.0524 56.38259,-3.84913 82.4688,-14.1833 26.08621,-10.33416 49.88591,-27.5182 65.45754,-50.85936 19.30505,-28.9374 24.76987,-65.26543 22.62859,-99.98535 C 904.50934,508.15323 895.35299,474.31507 887.57718,440.4094 869.73791,362.62296 858.98795,283.25004 854.6365,203.56294 852.71712,168.41383 852.03921,133.19694 852.60445,98 l 143.76785,34 c -13.79807,30.81909 -23.25455,63.57819 -28.00346,97.00947 -5.14219,36.19992 -4.76357,72.96657 -1.32361,109.41067 1.17777,12.47778 3.77368,32.63738 5.64753,45.02999 7.45793,49.32245 18.01866,98.34059 20.99061,147.96522 0.74919,12.5098 0.96623,32.84925 0.29835,45.36323 -1.33034,24.92647 -5.38056,49.70148 -13.34796,73.32074 -10.38296,30.78017 -27.64124,59.58565 -51.87965,81.21258 -27.36597,24.41753 -62.46249,38.78041 -98.22736,46.90363 -35.76486,8.12322 -72.55162,10.40997 -109.10439,13.41126 -33.04718,2.71346 -66.22619,6.03404 -99.30008,3.66828 -33.0739,-2.36576 -66.43896,-10.77994 -93.7197,-29.62776 -22.24517,-15.36882 -39.58443,-37.10433 -52.48035,-60.86866 -12.89592,-23.76434 -21.5552,-49.59358 -28.75033,-75.65655 -29.36821,-106.38062 -35.06405,-219.3297 -15.63655,-327.96625 7.8924,-44.13349 20.22678,-88.33325 44.77152,-125.85139 12.27237,-18.75907 27.55384,-35.66939 45.7052,-48.82391 18.15137,-13.15453 39.22253,-22.48523 61.37406,-25.92373 41.68951,-6.471303 84.82734,8.50199 118.28936,34.19607 33.46203,25.69408 58.13912,61.2856 77.43512,98.80303 36.45891,70.88744 55.31825,153.96648 35.47836,231.17179 -8.18997,31.87061 -22.91417,62.20482 -44.01328,87.45634 -21.0991,25.25152 -48.65389,45.30068 -79.67562,56.27627 -46.2673,16.36952 -97.34289,12.02038 -145.32121,1.6906 C 497.60053,599.84113 450.81929,583.75987 402.2151,576.95863 349.66315,569.60498 295.58263,573.36634 244.55464,587.9241 L 204.94789,482.09851 c 32.87354,-10.58284 62.95896,-29.7016 86.5004,-54.9695 14.91351,-16.00722 27.50283,-35.13354 31.14832,-56.70561 1.82275,-10.78603 1.32324,-22.03831 -2.10633,-32.42575 -3.42956,-10.38744 -9.86294,-19.8661 -18.66569,-26.36014 -8.62894,-6.36582 -19.31505,-9.71248 -30.02961,-10.13718 -10.71456,-0.42471 -21.44558,1.99039 -31.26849,6.29069 -19.64581,8.60061 -35.28014,24.31531 -48.84465,40.92653 -39.8719,48.82746 -66.2464,109.83049 -67.92955,172.84681 -0.86116,32.24126 4.74787,64.63128 16.29352,94.74255 4.48569,11.69874 -0.82397,22.9721 -13.06314,25.67367 L 22.649218,665.01028 C 10.410054,667.71185 2.585434,659.96006 5.1876319,647.69938 Z"
   id="path844"
   inkscape:path-effect="#path-effect846;#path-effect848"
   inkscape:original-d="M 0.488251,669.90191 C -23.478406,641.14149 16.291006,585.67955 27.403069,544.3435 48.102647,467.34261 48.499137,376.58748 101.29921,316.83999 158.82363,251.74653 257.81238,171.5891 337.37553,206.45917 c 60.08714,26.33434 67.62565,122.48845 59.53735,187.59253 -4.61498,37.14675 -36.86629,65.37684 -59.129,95.46921 -19.23621,26.00147 -63.93473,72.98854 -63.93473,72.98854 l -34.60401,-74.39216 c 52.90135,-0.73911 238.18308,36.71949 303.88855,26.36608 57.80401,-9.10835 129.64791,-2.27956 169.70199,-44.94028 29.36621,-31.27731 40.59178,-86.25872 25.04918,-126.24711 -22.60083,-58.14796 -89.61609,-122.77568 -150.84024,-110.79292 -50.15838,9.81698 -69.33993,80.72458 -80.23951,130.65889 -18.15689,83.18221 -19.38717,184.78813 30.80993,253.55735 42.92581,58.80767 125.67536,90.58519 198.48066,91.18186 53.86299,0.44143 118.09017,-20.19604 147.92634,-65.04266 37.38519,-56.19352 7.62371,-135.0784 3.55514,-202.4491 C 882.77226,360.84562 860.90474,283.02482 854.6365,203.56294 851.86886,168.47777 852.60445,98 852.60445,98 l 143.76785,34 c 0,0 -23.4389,63.66362 -28.00346,97.00947 -5.96599,43.58383 3.39627,88.03106 1.18081,131.9655 -6.25466,124.03477 39.08855,275.24604 -40.79554,370.33693 -46.29675,55.10983 -135.55692,54.94304 -207.33175,60.31489 -64.73814,4.8452 -138.85574,9.82823 -193.01978,-25.95948 C 484.2211,736.47536 462.42509,679.85219 447.1719,629.1421 415.64661,524.33446 399.17523,405.72874 431.53535,301.17585 c 24.7962,-80.11448 69.09827,-186.99009 151.85078,-200.59903 77.83336,-12.799959 153.61715,66.29945 195.72448,132.9991 41.61655,65.92224 56.95931,156.23016 35.47836,231.17179 -17.4165,60.76182 -64.88956,120.53837 -123.6889,143.73261 C 600.85242,644.0009 498.99666,578.86162 402.2151,576.95863 349.54484,575.92299 244.55464,587.9241 244.55464,587.9241 L 204.94789,482.09851 c 0,0 68.72696,-25.79396 86.5004,-54.9695 20.10901,-33.00943 40.72473,-91.55475 10.3763,-115.4915 -30.41651,-23.99046 -82.07767,10.37691 -110.14275,37.08004 -44.84836,42.67196 -63.04074,111.13481 -67.92955,172.84681 -3.11368,39.30422 25.39135,115.52459 25.39135,115.52459 z"
   sodipodi:nodetypes="caaaaaccsaaaaaaaaaccaaaaaaaaaaaaccaaaacc" /><text
   text-anchor="middle"
   x="910.78638"
   y="747.34692"
   id="bottom"
   inkscape:label="bottom"
   style="clip-rule:evenodd;fill-rule:evenodd;image-rendering:optimizeQuality;shape-rendering:geometricPrecision;text-rendering:geometricPrecision">✛</text></svg>
