<?xml version="1.0" encoding="UTF-8" standalone="no"?>
<svg
   xmlns:dc="http://purl.org/dc/elements/1.1/"
   xmlns:cc="http://creativecommons.org/ns#"
   xmlns:rdf="http://www.w3.org/1999/02/22-rdf-syntax-ns#"
   xmlns:svg="http://www.w3.org/2000/svg"
   xmlns="http://www.w3.org/2000/svg"
   xmlns:sodipodi="http://sodipodi.sourceforge.net/DTD/sodipodi-0.dtd"
   xmlns:inkscape="http://www.inkscape.org/namespaces/inkscape"
   xml:space="preserve"
   width="1000"
   height="1000"
   version="1.1"
   style="clip-rule:evenodd;fill-rule:evenodd;image-rendering:optimizeQuality;shape-rendering:geometricPrecision;text-rendering:geometricPrecision"
   viewBox="0 0 1000 1000"
   id="svg10"
   sodipodi:docname="ഘ്ര.svg"
   inkscape:version="1.0.2 (e86c870879, 2021-01-15)"><metadata
   id="metadata14"><rdf:RDF><cc:Work
       rdf:about=""><dc:format>image/svg+xml</dc:format><dc:type
         rdf:resource="http://purl.org/dc/dcmitype/StillImage" /><dc:title></dc:title></cc:Work></rdf:RDF></metadata><sodipodi:namedview
   pagecolor="#ffffff"
   bordercolor="#666666"
   borderopacity="1"
   objecttolerance="10"
   gridtolerance="10"
   guidetolerance="10"
   inkscape:pageopacity="0"
   inkscape:pageshadow="2"
   inkscape:window-width="1920"
   inkscape:window-height="1007"
   id="namedview12"
   showgrid="false"
   inkscape:zoom="0.6002692"
   inkscape:cx="821.91505"
   inkscape:cy="461.56405"
   inkscape:window-x="1920"
   inkscape:window-y="0"
   inkscape:window-maximized="1"
   inkscape:current-layer="svg10"
   showguides="true"
   inkscape:guide-bbox="true"
   inkscape:document-rotation="0"><sodipodi:guide
   position="0,1000"
   orientation="0,1"
   id="guide16"
   inkscape:label=""
   inkscape:locked="true"
   inkscape:color="rgb(0,0,255)" /><sodipodi:guide
   position="1763.3122,2036.1693"
   orientation="1000,0"
   id="guide18" /><sodipodi:guide
   position="0,200"
   orientation="0,1"
   id="guide20"
   inkscape:label="base"
   inkscape:locked="true"
   inkscape:color="rgb(0,0,255)" /><inkscape:grid
   type="xygrid"
   id="grid24"
   originx="-473.37552"
   originy="-489.69235" /><sodipodi:guide
   position="0,0"
   orientation="0,1"
   id="guide34"
   inkscape:label="bottom"
   inkscape:locked="true"
   inkscape:color="rgb(0,0,255)" /><sodipodi:guide
   position="225.05109,1693.3186"
   orientation="0,1"
   id="guide44"
   inkscape:label=""
   inkscape:locked="false"
   inkscape:color="rgb(0,0,255)" /><sodipodi:guide
   position="0,900"
   orientation="0,1"
   id="guide46"
   inkscape:label=""
   inkscape:locked="true"
   inkscape:color="rgb(0,0,255)" /><sodipodi:guide
   position="1162.1564,461.02561"
   orientation="1,0"
   id="guide841"
   inkscape:label="width" />    </sodipodi:namedview>
 <defs
   id="defs4"><inkscape:path-effect
   effect="fillet_chamfer"
   id="path-effect885"
   is_visible="true"
   lpeversion="1"
   satellites_param="F,0,1,1,0,35.312044,0,1 @ F,0,0,1,0,0,0,1 @ F,0,0,1,0,0,0,1 @ F,0,0,1,0,0,0,1 @ F,0,0,1,0,0,0,1 @ F,0,0,1,0,0,0,1 @ F,0,0,1,0,0,0,1 @ F,0,0,1,0,0,0,1 @ F,0,0,1,0,0,0,1 @ F,0,1,1,0,35.312044,0,1 @ F,0,1,1,0,35.312044,0,1 @ F,0,0,1,0,0,0,1 @ F,0,0,1,0,0,0,1 @ F,0,0,1,0,0,0,1 @ F,0,0,1,0,0,0,1 @ F,0,0,1,0,0,0,1 @ F,0,0,1,0,0,0,1 @ F,0,0,1,0,0,0,1 @ F,0,0,1,0,0,0,1 @ F,0,0,1,0,0,0,1 @ F,0,0,1,0,0,0,1 @ F,0,0,1,0,0,0,1 @ F,0,0,1,0,0,0,1 @ F,0,0,1,0,0,0,1 @ F,0,0,1,0,0,0,1 @ F,0,0,1,0,0,0,1 @ F,0,0,1,0,0,0,1 @ F,0,0,1,0,0,0,1 @ F,0,0,1,0,0,0,1 @ F,0,0,1,0,0,0,1 @ F,0,0,1,0,0,0,1 @ F,0,0,1,0,0,0,1 @ F,0,0,1,0,0,0,1 @ F,0,0,1,0,0,0,1 @ F,0,0,1,0,0,0,1 @ F,0,1,1,0,35.312044,0,1 @ F,0,1,1,0,35.312044,0,1 @ F,0,0,1,0,0,0,1 @ F,0,0,1,0,0,0,1 @ F,0,0,1,0,0,0,1 @ F,0,0,1,0,0,0,1 @ F,0,0,1,0,0,0,1 @ F,0,0,1,0,0,0,1 @ F,0,0,1,0,0,0,1 @ F,0,0,1,0,0,0,1 @ F,0,0,1,0,0,0,1 @ F,0,0,1,0,0,0,1 @ F,0,1,1,0,35.312044,0,1 @ F,0,1,1,0,35.312044,0,1 @ F,0,0,1,0,0,0,1 @ F,0,0,1,0,0,0,1 @ F,0,0,1,0,0,0,1 @ F,0,0,1,0,0,0,1 @ F,0,0,1,0,0,0,1 @ F,0,0,1,0,0,0,1 @ F,0,0,1,0,0,0,1 @ F,0,0,1,0,0,0,1 @ F,0,0,1,0,0,0,1 @ F,0,0,1,0,0,0,1 @ F,0,0,1,0,0,0,1 @ F,0,0,1,0,0,0,1 @ F,0,0,1,0,0,0,1 @ F,0,0,1,0,0,0,1 @ F,0,0,1,0,0,0,1 @ F,0,0,1,0,0,0,1 @ F,0,0,1,0,0,0,1 @ F,0,0,1,0,0,0,1 @ F,0,0,1,0,0,0,1 @ F,0,0,1,0,0,0,1 @ F,0,0,1,0,0,0,1 @ F,0,0,1,0,0,0,1 @ F,0,0,1,0,0,0,1 @ F,0,0,1,0,0,0,1 @ F,0,0,1,0,0,0,1 @ F,0,0,1,0,0,0,1 @ F,0,0,1,0,0,0,1 @ F,0,1,1,0,35.312044,0,1"
   unit="px"
   method="auto"
   mode="F"
   radius="0"
   chamfer_steps="1"
   flexible="false"
   use_knot_distance="true"
   apply_no_radius="true"
   apply_with_radius="true"
   only_selected="true"
   hide_knots="false" /><inkscape:path-effect
   effect="fillet_chamfer"
   id="path-effect847"
   is_visible="true"
   lpeversion="1"
   satellites_param="F,0,0,1,0,34.738087,0,1 @ F,0,0,1,0,0,0,1 @ F,0,0,1,0,0,0,1 @ F,0,0,1,0,0,0,1 @ F,0,0,1,0,0,0,1 @ F,0,0,1,0,0,0,1 @ F,0,0,1,0,0,0,1 @ F,0,0,1,0,0,0,1 @ F,0,0,1,0,0,0,1 @ F,0,0,1,0,27.967711,0,1 @ F,0,0,1,0,27.967711,0,1 @ F,0,0,1,0,0,0,1 @ F,0,0,1,0,0,0,1 @ F,0,0,1,0,0,0,1 @ F,0,0,1,0,0,0,1 @ F,0,0,1,0,0,0,1 @ F,0,0,1,0,0,0,1 @ F,0,0,1,0,0,0,1 @ F,0,0,1,0,0,0,1 @ F,0,0,1,0,0,0,1 @ F,0,0,1,0,0,0,1 @ F,0,0,1,0,0,0,1 @ F,0,0,1,0,0,0,1 @ F,0,0,1,0,0,0,1 @ F,0,0,1,0,0,0,1 @ F,0,0,1,0,0,0,1 @ F,0,0,1,0,0,0,1 @ F,0,0,1,0,0,0,1 @ F,0,0,1,0,0,0,1 @ F,0,0,1,0,0,0,1 @ F,0,0,1,0,0,0,1 @ F,0,0,1,0,0,0,1 @ F,0,0,1,0,0,0,1 @ F,0,1,1,0,33.833648,0,1 @ F,0,1,1,0,33.833648,0,1 @ F,0,0,1,0,0,0,1 @ F,0,0,1,0,0,0,1 @ F,0,0,1,0,0,0,1 @ F,0,0,1,0,0,0,1 @ F,0,0,1,0,0,0,1 @ F,0,0,1,0,0,0,1 @ F,0,0,1,0,0,0,1 @ F,0,0,1,0,0,0,1 @ F,0,0,1,0,0,0,1 @ F,0,0,1,0,0,0,1 @ F,0,0,1,0,0,0,1 @ F,0,0,1,0,0,0,1 @ F,0,0,1,0,0,0,1 @ F,0,0,1,0,0,0,1 @ F,0,0,1,0,0,0,1 @ F,0,0,1,0,0,0,1 @ F,0,0,1,0,0,0,1 @ F,0,0,1,0,0,0,1 @ F,0,0,1,0,0,0,1 @ F,0,0,1,0,0,0,1 @ F,0,0,1,0,0,0,1 @ F,0,0,1,0,0,0,1 @ F,0,0,1,0,0,0,1 @ F,0,0,1,0,0,0,1 @ F,0,0,1,0,0,0,1 @ F,0,0,1,0,0,0,1 @ F,0,0,1,0,0,0,1 @ F,0,0,1,0,34.738087,0,1"
   unit="px"
   method="auto"
   mode="F"
   radius="0"
   chamfer_steps="1"
   flexible="false"
   use_knot_distance="true"
   apply_no_radius="true"
   apply_with_radius="true"
   only_selected="true"
   hide_knots="false" /><inkscape:path-effect
   effect="fillet_chamfer"
   id="path-effect845"
   is_visible="true"
   lpeversion="1"
   satellites_param="F,0,1,1,0,26.141936,0,1 @ F,0,0,1,0,0,0,1 @ F,0,0,1,0,0,0,1 @ F,0,0,1,0,0,0,1 @ F,0,0,1,0,0,0,1 @ F,0,0,1,0,0,0,1 @ F,0,0,1,0,0,0,1 @ F,0,0,1,0,0,0,1 @ F,0,0,1,0,0,0,1 @ F,0,0,1,0,0,0,1 @ F,0,1,1,0,26.141936,0,1 @ F,0,1,1,0,26.141936,0,1 @ F,0,0,1,0,0,0,1 @ F,0,0,1,0,0,0,1 @ F,0,0,1,0,0,0,1 @ F,0,0,1,0,0,0,1 @ F,0,0,1,0,0,0,1 @ F,0,0,1,0,0,0,1 @ F,0,0,1,0,0,0,1 @ F,0,0,1,0,0,0,1 @ F,0,0,1,0,0,0,1 @ F,0,0,1,0,0,0,1 @ F,0,0,1,0,0,0,1 @ F,0,0,1,0,0,0,1 @ F,0,0,1,0,0,0,1 @ F,0,0,1,0,0,0,1 @ F,0,0,1,0,0,0,1 @ F,0,0,1,0,0,0,1 @ F,0,0,1,0,0,0,1 @ F,0,0,1,0,0,0,1 @ F,0,0,1,0,0,0,1 @ F,0,0,1,0,0,0,1 @ F,0,0,1,0,0,0,1 @ F,0,0,1,0,0,0,1 @ F,0,1,1,0,26.141936,0,1 @ F,0,1,1,0,26.141936,0,1 @ F,0,0,1,0,0,0,1 @ F,0,0,1,0,0,0,1 @ F,0,0,1,0,0,0,1 @ F,0,0,1,0,0,0,1 @ F,0,0,1,0,0,0,1 @ F,0,0,1,0,0,0,1 @ F,0,0,1,0,0,0,1 @ F,0,0,1,0,0,0,1 @ F,0,0,1,0,0,0,1 @ F,0,0,1,0,0,0,1 @ F,0,0,1,0,0,0,1 @ F,0,0,1,0,0,0,1 @ F,0,0,1,0,0,0,1 @ F,0,0,1,0,0,0,1 @ F,0,0,1,0,0,0,1 @ F,0,0,1,0,0,0,1 @ F,0,0,1,0,0,0,1 @ F,0,0,1,0,0,0,1 @ F,0,0,1,0,0,0,1 @ F,0,0,1,0,0,0,1 @ F,0,0,1,0,0,0,1 @ F,0,0,1,0,0,0,1 @ F,0,0,1,0,0,0,1 @ F,0,0,1,0,0,0,1 @ F,0,0,1,0,0,0,1 @ F,0,0,1,0,0,0,1 @ F,0,0,1,0,0,0,1 @ F,0,0,1,0,0,0,1 @ F,0,1,1,0,26.141936,0,1"
   unit="px"
   method="auto"
   mode="F"
   radius="0"
   chamfer_steps="1"
   flexible="false"
   use_knot_distance="true"
   apply_no_radius="true"
   apply_with_radius="true"
   only_selected="true"
   hide_knots="false" /><inkscape:path-effect
   effect="spiro"
   id="path-effect846"
   is_visible="true"
   lpeversion="1" /><inkscape:path-effect
   effect="spiro"
   id="path-effect854"
   is_visible="true"
   lpeversion="1" />
  <style
   type="text/css"
   id="style2">
   <![CDATA[
    .fil0 {fill:#EF7F1A;fill-rule:nonzero}
   ]]>
  </style>
 <inkscape:path-effect
   effect="spiro"
   id="path-effect1214"
   is_visible="true"
   lpeversion="1" /><inkscape:path-effect
   effect="spiro"
   id="path-effect1195"
   is_visible="true"
   lpeversion="1" /><inkscape:path-effect
   effect="spiro"
   id="path-effect992"
   is_visible="true"
   lpeversion="1" /><inkscape:path-effect
   effect="spiro"
   id="path-effect287"
   is_visible="true"
   lpeversion="1" /></defs>
 
<path
   style="fill:#2d2d2d;fill-rule:nonzero;stroke:none;stroke-width:1px;stroke-linecap:butt;stroke-linejoin:miter;stroke-opacity:1"
   d="m 295.83266,604.41494 c -8.68548,-26.6652 -12.82922,-54.81414 -12.08037,-82.85058 1.68315,-63.01632 28.05765,-124.01935 67.92955,-172.84681 13.56451,-16.61122 29.19884,-32.32592 48.84465,-40.92653 9.82291,-4.3003 20.55393,-6.7154 31.26849,-6.29069 10.71456,0.4247 21.40067,3.77136 30.02961,10.13718 8.80275,6.49404 15.23613,15.9727 18.66569,26.36014 3.42957,10.38744 3.92908,21.63972 2.10633,32.42575 -3.64549,21.57207 -16.23481,40.69839 -31.14832,56.70561 -15.51683,16.65478 -33.87669,30.63808 -54.00406,41.2664 -17.22376,9.09506 -30.82625,29.42438 -28.76609,48.81757 l 4.77612,44.95969 c 2.06016,19.39319 18.52425,29.42157 37.34916,24.3537 49.15707,-13.23361 100.98192,-16.57165 151.41168,-9.56774 48.60944,6.75109 95.39345,22.82639 143.36806,33.16522 47.97461,10.33883 99.04705,14.71356 145.31691,-1.64353 31.02552,-10.96799 58.58351,-31.01673 79.68248,-56.26972 21.09896,-25.25299 35.82001,-55.59029 44.00642,-87.46289 19.83026,-77.2062 0.96565,-160.27841 -35.47836,-231.17179 -19.29046,-37.52512 -43.9589,-73.129 -77.42156,-98.82931 -33.46267,-25.70032 -76.61371,-40.670992 -118.30292,-34.16979 -22.14271,3.45303 -43.19968,12.80021 -61.3349,25.96596 -18.13523,13.16574 -33.39908,30.08193 -45.66075,48.84024 -24.52336,37.51663 -36.86639,81.68986 -44.85513,125.79283 -19.67866,108.6389 -14.69866,221.80865 15.63655,327.96625 7.41327,25.94263 16.37417,51.59417 29.33771,75.25687 12.96354,23.6627 30.09665,45.3656 51.89297,61.26834 36.30043,26.48503 82.81087,35.083 127.74023,35.81127 63.24456,1.02514 126.68002,-12.26207 184.19689,-38.58194 5.3828,15.97858 5.9815,33.53542 1.6996,49.84355 -4.67325,17.79869 -14.99621,33.82894 -28.08466,46.76437 -13.08844,12.93543 -28.87478,22.90507 -45.47886,30.83837 -70.61549,33.73952 -152.43894,30.48018 -230.68529,28.9274 C 618.27683,917.6924 538.28435,918.56989 459.84266,905.46212 381.40098,892.35435 303.47262,864.12921 244.10622,811.20906 191.18488,764.03413 155.64821,699.26098 137.06872,630.84355 118.48923,562.42612 116.166,490.37264 122.76621,419.78525 132.09248,320.04346 159.17085,221.99705 202.23969,131.55638 210.62408,113.94993 202.27151,100 182.76921,100 H 83.865394 C 64.363091,100 45.040142,115.41756 41.243117,134.54613 25.98621,211.40705 17.161489,289.54459 14.90535,367.87288 11.009081,503.14297 28.051094,642.99113 94.656235,760.79152 154.34402,866.35762 254.38658,949.92904 371.05076,983.0395 c 90.18037,25.5941 185.6704,21.1412 279.40802,22.0445 63.24154,0.6094 126.72582,3.7411 189.55888,-3.461 62.83306,-7.20207 125.87747,-25.48308 176.39204,-63.53754 35.4682,-26.71951 63.674,-62.46973 83.9926,-101.95494 20.3186,-39.48522 32.9212,-82.66054 39.9165,-126.51249 18.3681,-115.14575 -1.4805,-232.41202 -10.7691,-348.64306 -3.509,-43.90985 -5.5018,-88.12809 -1.1809,-131.9655 3.2067,-32.53356 9.9037,-64.72028 19.9124,-95.84123 5.9695,-18.5612 -3.7172,-33.382201 -23.2177,-33.646136 l -77.1502,-1.044208 c -19.5005,-0.263935 -35.6062,15.331714 -35.4589,34.833004 0.177,23.43013 0.9045,46.8561 2.1821,70.25204 4.3514,79.6871 15.1014,159.06002 32.9407,236.84646 7.7758,33.90567 16.9321,67.74384 19.0734,102.46376 2.1413,34.71991 -3.3236,71.04793 -22.6286,99.98534 -15.5716,23.34117 -39.3713,40.52524 -65.4575,50.85941 -26.0862,10.33418 -54.41024,14.13094 -82.4688,14.18325 -37.81159,0.0705 -75.84867,-6.62837 -110.516,-21.72467 -34.66732,-15.0963 -65.86933,-38.77302 -87.96466,-69.45719 -25.59876,-35.54944 -38.21759,-79.27368 -41.4732,-122.9596 -3.25562,-43.68593 2.40456,-87.57621 10.66327,-130.59775 5.04209,-26.26542 11.17798,-52.68235 23.54982,-76.39379 12.37184,-23.71144 31.69847,-44.73965 56.68969,-54.2651 16.56839,-6.31507 35.00617,-7.28816 52.33904,-3.55141 17.33287,3.73675 33.54949,12.08541 47.20779,23.39216 27.31658,22.61351 43.79468,56.29188 51.29341,90.95217 4.70647,21.75404 6.1601,44.37925 2.43269,66.32226 -3.72741,21.94301 -12.8005,43.19624 -27.48187,59.92485 -20.00534,22.79499 -49.2285,35.94173 -79.00501,41.70231 -29.77652,5.76058 -60.40616,4.75179 -90.69698,3.23797 -70.68377,-3.5325 -141.23614,-9.69364 -211.46229,-18.46641 30.30975,-27.36398 53.09721,-62.97828 65.24148,-101.96526 10.56769,-33.92565 13.03904,-70.8605 3.45602,-105.07733 -9.58301,-34.21683 -31.85692,-65.39365 -62.99337,-82.5152 -21.17752,-11.64526 -45.80661,-16.54212 -69.93554,-15.16589 -24.12893,1.37624 -47.73874,8.89078 -68.8879,20.58746 -42.29832,23.39337 -73.92053,62.62724 -97.25288,104.95925 -38.63022,70.08704 -56.79274,149.32448 -73.89614,227.50351 -6.6323,30.31603 -13.172,60.65232 -19.61895,91.0083 -4.05151,19.07682 8.14225,31.14243 27.18614,26.93884 l 79.69137,-17.59042 c 19.04389,-4.20359 27.20581,-21.758 21.17103,-40.28528 z"
   id="path844"
   inkscape:path-effect="#path-effect846;#path-effect885"
   inkscape:original-d="m 309.14364,637.08895 c 0,0 -28.50503,-76.22037 -25.39135,-115.52459 4.88881,-61.712 23.08119,-130.17485 67.92955,-172.84681 28.06508,-26.70313 79.72624,-61.0705 110.14275,-37.08004 30.34843,23.93675 9.73271,82.48207 -10.3763,115.4915 -17.77344,29.17554 -48.40615,72.5342 -86.5004,54.9695 l 12.23662,115.18863 c 0,0 122.98261,-20.30782 185.03059,-20.32851 96.80026,-0.0323 198.63732,67.04227 288.68497,31.52169 58.79934,-23.19424 106.2724,-82.97079 123.6889,-143.73261 21.48095,-74.94163 6.13819,-165.24955 -35.47836,-231.17179 C 897.00328,166.87627 821.21949,87.776861 743.38613,100.57682 660.63362,114.18576 616.33155,221.06137 591.53535,301.17585 559.17523,405.72874 575.64661,524.33446 607.1719,629.1421 c 15.25319,50.71009 39.19336,104.32216 81.23068,136.52521 35.10491,26.89242 83.54325,34.33337 127.74023,35.81127 62.69637,2.0965 184.19689,-38.58194 184.19689,-38.58194 0,0 7.5917,34.29855 1.6996,49.84355 -12.63274,33.32917 -41.76008,61.51047 -73.56352,77.60274 -69.14919,34.9889 -153.30322,33.15211 -230.68529,28.9274 C 542.56296,910.79561 357.64023,917.40432 244.10622,811.20906 144.34503,717.89636 123.51251,556.38319 122.76621,419.78525 122.15852,308.55763 218.08125,100 218.08125,100 H 48.55335 c 0,0 -37.035098,177.94401 -33.648,267.87288 5.030009,133.54881 10.249959,278.76871 79.750885,392.91864 61.481055,100.9779 166.517705,178.61841 276.394525,222.24798 86.83058,34.4784 186.10487,26.8231 279.40802,22.0445 123.84883,-6.34295 265.56132,5.8073 365.95092,-66.99854 70.133,-50.86272 103.9022,-144.17405 123.9091,-228.46743 26.8504,-113.12699 -8.454,-232.39633 -10.7691,-348.64306 -0.876,-43.98154 -6.3207,-88.27654 -1.1809,-131.9655 C 1133.5456,185.00635 1160.3723,100 1160.3723,100 l -147.7678,-2 c 0,0 -0.7356,70.47777 2.032,105.56294 6.2682,79.46188 28.1358,157.28268 32.9407,236.84646 4.0686,67.3707 33.83,146.25558 -3.5552,202.4491 -29.8361,44.84662 -94.06331,65.48409 -147.9263,65.04266 -72.8053,-0.59667 -155.55485,-32.37419 -198.48066,-91.18186 -50.1971,-68.76922 -48.96682,-170.37514 -30.80993,-253.55735 10.89958,-49.93431 30.08113,-120.84191 80.23951,-130.65889 61.22415,-11.98276 128.23941,52.64496 150.84024,110.79292 15.5426,39.98839 4.31703,94.9698 -25.04918,126.24711 -40.05408,42.66072 -111.40045,39.9207 -169.70199,44.94028 -70.49489,6.06939 -211.46229,-18.46641 -211.46229,-18.46641 0,0 59.97311,-61.96031 65.24148,-101.96526 8.56571,-65.04299 0.54979,-161.25819 -59.53735,-187.59253 -79.56315,-34.87007 -178.5519,45.28736 -236.07632,110.38082 -52.80007,59.74749 -53.19656,150.50262 -73.89614,227.50351 -11.11206,41.33605 -50.88148,96.79799 -26.91482,125.55841 z"
   sodipodi:nodetypes="caaaaccaaaaaaaaacaaaaaccaaaaaaaaccaaaaaaaaaacaaaacc" /></svg>
