<?xml version="1.0" encoding="UTF-8" standalone="no"?>
<svg
   xmlns:dc="http://purl.org/dc/elements/1.1/"
   xmlns:cc="http://creativecommons.org/ns#"
   xmlns:rdf="http://www.w3.org/1999/02/22-rdf-syntax-ns#"
   xmlns:svg="http://www.w3.org/2000/svg"
   xmlns="http://www.w3.org/2000/svg"
   xmlns:sodipodi="http://sodipodi.sourceforge.net/DTD/sodipodi-0.dtd"
   xmlns:inkscape="http://www.inkscape.org/namespaces/inkscape"
   xml:space="preserve"
   width="1000"
   height="1000"
   version="1.1"
   style="clip-rule:evenodd;fill-rule:evenodd;image-rendering:optimizeQuality;shape-rendering:geometricPrecision;text-rendering:geometricPrecision"
   viewBox="0 0 1000 1000"
   id="svg10"
   sodipodi:docname="ങ്ക.svg"
   inkscape:version="1.0.2 (e86c870879, 2021-01-15)"><metadata
   id="metadata14"><rdf:RDF><cc:Work
       rdf:about=""><dc:format>image/svg+xml</dc:format><dc:type
         rdf:resource="http://purl.org/dc/dcmitype/StillImage" /><dc:title /></cc:Work></rdf:RDF></metadata><sodipodi:namedview
   pagecolor="#ffffff"
   bordercolor="#666666"
   borderopacity="1"
   objecttolerance="10"
   gridtolerance="10"
   guidetolerance="10"
   inkscape:pageopacity="0"
   inkscape:pageshadow="2"
   inkscape:window-width="1920"
   inkscape:window-height="1007"
   id="namedview12"
   showgrid="false"
   inkscape:zoom="0.9588368"
   inkscape:cx="315.44364"
   inkscape:cy="505.33877"
   inkscape:window-x="1920"
   inkscape:window-y="0"
   inkscape:window-maximized="1"
   inkscape:current-layer="svg10"
   showguides="true"
   inkscape:guide-bbox="true"
   inkscape:document-rotation="0"
   inkscape:snap-to-guides="true"><sodipodi:guide
     position="0,1000"
     orientation="0,1"
     id="guide16"
     inkscape:label=""
     inkscape:locked="true"
     inkscape:color="rgb(0,0,255)" /><sodipodi:guide
     position="1763.3122,2036.1693"
     orientation="1000,0"
     id="guide18" /><sodipodi:guide
     position="0,200"
     orientation="0,1"
     id="guide20"
     inkscape:label="base"
     inkscape:locked="true"
     inkscape:color="rgb(0,0,255)" /><inkscape:grid
     type="xygrid"
     id="grid24"
     originx="-473.37552"
     originy="-489.69235" /><sodipodi:guide
     position="0,0"
     orientation="0,1"
     id="guide34"
     inkscape:label="bottom"
     inkscape:locked="true"
     inkscape:color="rgb(0,0,255)" /><sodipodi:guide
     position="225.05109,1693.3186"
     orientation="0,1"
     id="guide44"
     inkscape:label=""
     inkscape:locked="false"
     inkscape:color="rgb(0,0,255)" /><sodipodi:guide
     position="0,900"
     orientation="0,1"
     id="guide46"
     inkscape:label=""
     inkscape:locked="true"
     inkscape:color="rgb(0,0,255)" /><sodipodi:guide
     position="692.61855,548.22236"
     orientation="-1,0"
     id="guide841"
     inkscape:label="width"
     inkscape:locked="false"
     inkscape:color="rgb(0,0,255)" /><sodipodi:guide
     position="0,1000"
     orientation="0,1000"
     id="guide860" /><sodipodi:guide
     position="1000,1000"
     orientation="1000,0"
     id="guide862" /><sodipodi:guide
     position="1000,0"
     orientation="0,-1000"
     id="guide864" /><sodipodi:guide
     position="1.142742,802.93787"
     orientation="-1000,0"
     id="guide866" /></sodipodi:namedview>
 <defs
   id="defs4"><inkscape:path-effect
   effect="fillet_chamfer"
   id="path-effect856"
   is_visible="true"
   lpeversion="1"
   satellites_param="F,0,1,1,0,22.955919,0,1 @ F,0,0,1,0,0,0,1 @ F,0,0,1,0,0,0,1 @ F,0,0,1,0,0,0,1 @ F,0,0,1,0,0,0,1 @ F,0,0,1,0,0,0,1 @ F,0,0,1,0,0,0,1 @ F,0,0,1,0,0,0,1 @ F,0,0,1,0,0,0,1 @ F,0,0,1,0,0,0,1 @ F,0,0,1,0,0,0,1 @ F,0,0,1,0,0,0,1 @ F,0,0,1,0,0,0,1 @ F,0,0,1,0,0,0,1 @ F,0,0,1,0,0,0,1 @ F,0,0,1,0,0,0,1 @ F,0,0,1,0,0,0,1 @ F,0,0,1,0,0,0,1 @ F,0,0,1,0,0,0,1 @ F,0,0,1,0,0,0,1 @ F,0,0,1,0,0,0,1 @ F,0,0,1,0,0,0,1 @ F,0,0,1,0,0,0,1 @ F,0,0,1,0,0,0,1 @ F,0,0,1,0,0,0,1 @ F,0,0,1,0,0,0,1 @ F,0,0,1,0,0,0,1 @ F,0,0,1,0,0,0,1 @ F,0,0,1,0,0,0,1 @ F,0,0,1,0,0,0,1 @ F,0,0,1,0,0,0,1 @ F,0,0,1,0,0,0,1 @ F,0,0,1,0,0,0,1 @ F,0,1,1,0,22.955919,0,1 @ F,0,1,1,0,22.955919,0,1 @ F,0,0,1,0,0,0,1 @ F,0,0,1,0,0,0,1 @ F,0,0,1,0,0,0,1 @ F,0,0,1,0,0,0,1 @ F,0,0,1,0,0,0,1 @ F,0,0,1,0,0,0,1 @ F,0,0,1,0,0,0,1 @ F,0,0,1,0,0,0,1 @ F,0,0,1,0,0,0,1 @ F,0,0,1,0,0,0,1 @ F,0,0,1,0,0,0,1 @ F,0,0,1,0,0,0,1 @ F,0,0,1,0,0,0,1 @ F,0,0,1,0,0,0,1 @ F,0,0,1,0,0,0,1 @ F,0,0,1,0,0,0,1 @ F,0,0,1,0,0,0,1 @ F,0,0,1,0,0,0,1 @ F,0,0,1,0,0,0,1 @ F,0,0,1,0,0,0,1 @ F,0,0,1,0,0,0,1 @ F,0,0,1,0,0,0,1 @ F,0,0,1,0,0,0,1 @ F,0,0,1,0,0,0,1 @ F,0,1,1,0,22.955919,0,1 @ F,0,1,1,0,22.955919,0,1 @ F,0,0,1,0,0,0,1 @ F,0,0,1,0,0,0,1 @ F,0,0,1,0,0,0,1 @ F,0,0,1,0,0,0,1 @ F,0,0,1,0,0,0,1 @ F,0,0,1,0,0,0,1 @ F,0,0,1,0,0,0,1 @ F,0,0,1,0,0,0,1 @ F,0,0,1,0,0,0,1 @ F,0,0,1,0,0,0,1 @ F,0,1,1,0,22.955919,0,1"
   unit="px"
   method="auto"
   mode="F"
   radius="0"
   chamfer_steps="1"
   flexible="false"
   use_knot_distance="true"
   apply_no_radius="true"
   apply_with_radius="true"
   only_selected="true"
   hide_knots="true" /><inkscape:path-effect
   effect="fillet_chamfer"
   id="path-effect855"
   is_visible="true"
   lpeversion="1"
   satellites_param="F,0,0,1,0,19.742474,0,1 @ F,0,0,1,0,0,0,1 @ F,0,0,1,0,0,0,1 @ F,0,0,1,0,0,0,1 @ F,0,0,1,0,0,0,1 @ F,0,0,1,0,0,0,1 @ F,0,0,1,0,0,0,1 @ F,0,0,1,0,0,0,1 @ F,0,0,1,0,0,0,1 @ F,0,0,1,0,0,0,1 @ F,0,0,1,0,0,0,1 @ F,0,0,1,0,0,0,1 @ F,0,0,1,0,0,0,1 @ F,0,0,1,0,0,0,1 @ F,0,0,1,0,0,0,1 @ F,0,0,1,0,0,0,1 @ F,0,0,1,0,0,0,1 @ F,0,0,1,0,0,0,1 @ F,0,0,1,0,0,0,1 @ F,0,0,1,0,0,0,1 @ F,0,0,1,0,0,0,1 @ F,0,0,1,0,0,0,1 @ F,0,0,1,0,0,0,1 @ F,0,0,1,0,0,0,1 @ F,0,0,1,0,0,0,1 @ F,0,0,1,0,0,0,1 @ F,0,0,1,0,0,0,1 @ F,0,0,1,0,0,0,1 @ F,0,0,1,0,0,0,1 @ F,0,0,1,0,0,0,1 @ F,0,0,1,0,0,0,1 @ F,0,0,1,0,21.687326,0,1 @ F,0,0,1,0,13.338004,0,1 @ F,0,0,1,0,0,0,1 @ F,0,0,1,0,0,0,1 @ F,0,0,1,0,0,0,1 @ F,0,0,1,0,0,0,1 @ F,0,0,1,0,0,0,1 @ F,0,0,1,0,0,0,1 @ F,0,0,1,0,0,0,1 @ F,0,0,1,0,0,0,1 @ F,0,0,1,0,0,0,1 @ F,0,0,1,0,0,0,1 @ F,0,0,1,0,0,0,1 @ F,0,0,1,0,0,0,1 @ F,0,0,1,0,0,0,1 @ F,0,0,1,0,0,0,1 @ F,0,0,1,0,0,0,1 @ F,0,0,1,0,0,0,1 @ F,0,0,1,0,0,0,1 @ F,0,0,1,0,0,0,1 @ F,0,0,1,0,0,0,1 @ F,0,0,1,0,0,0,1 @ F,0,0,1,0,0,0,1 @ F,0,0,1,0,0,0,1 @ F,0,0,1,0,0,0,1 @ F,0,0,1,0,0,0,1 @ F,0,0,1,0,25.107362,0,1 @ F,0,0,1,0,18.316946,0,1 @ F,0,0,1,0,0,0,1 @ F,0,0,1,0,0,0,1 @ F,0,0,1,0,0,0,1 @ F,0,0,1,0,0,0,1 @ F,0,0,1,0,0,0,1 @ F,0,0,1,0,0,0,1 @ F,0,0,1,0,0,0,1 @ F,0,0,1,0,0,0,1 @ F,0,0,1,0,0,0,1 @ F,0,0,1,0,0,0,1 @ F,0,0,1,0,20.970998,0,1"
   unit="px"
   method="auto"
   mode="F"
   radius="0"
   chamfer_steps="1"
   flexible="false"
   use_knot_distance="true"
   apply_no_radius="true"
   apply_with_radius="true"
   only_selected="true"
   hide_knots="false" /><inkscape:path-effect
   effect="spiro"
   id="path-effect1521"
   is_visible="true"
   lpeversion="1" /><inkscape:path-effect
   effect="spiro"
   id="path-effect858"
   is_visible="true"
   lpeversion="1" /><inkscape:path-effect
   effect="spiro"
   id="path-effect854"
   is_visible="true"
   lpeversion="1" />
  <style
   type="text/css"
   id="style2">
   <![CDATA[
    .fil0 {fill:#EF7F1A;fill-rule:nonzero}
   ]]>
  </style>
 <inkscape:path-effect
   effect="spiro"
   id="path-effect1214"
   is_visible="true"
   lpeversion="1" /><inkscape:path-effect
   effect="spiro"
   id="path-effect1195"
   is_visible="true"
   lpeversion="1" /><inkscape:path-effect
   effect="spiro"
   id="path-effect992"
   is_visible="true"
   lpeversion="1" /><inkscape:path-effect
   effect="spiro"
   id="path-effect287"
   is_visible="true"
   lpeversion="1" /><inkscape:path-effect
   effect="spiro"
   id="path-effect1032"
   is_visible="true"
   lpeversion="1" /><inkscape:path-effect
   effect="spiro"
   id="path-effect1218"
   is_visible="true"
   lpeversion="1" /><inkscape:path-effect
   effect="spiro"
   id="path-effect309"
   is_visible="true"
   lpeversion="1" /><inkscape:path-effect
   effect="spiro"
   id="path-effect1176"
   is_visible="true"
   lpeversion="1" /></defs>
 
<path
   id="path1164-3-3-2-0"
   style="display:inline;fill:#63452c;fill-rule:nonzero;stroke:none;stroke-width:2.83729;stroke-linecap:butt;stroke-linejoin:miter;stroke-miterlimit:4;stroke-dasharray:none;stroke-opacity:1"
   d="M 56.315518,472.89021 C 52.523928,450.03721 47.74339,427.34828 41.990578,404.90856 28.403103,351.90854 9.238067,299.175 10.277742,244.47088 c 0.519837,-27.35206 6.32138,-54.95078 19.671511,-78.82921 13.350131,-23.87844 34.652685,-43.80021 60.506786,-52.74286 15.978401,-5.52675 33.337241,-6.77949 50.047831,-4.20839 16.71059,2.5711 32.76638,8.9145 47.0619,17.94182 28.66867,18.10365 49.63439,46.37529 65.23104,76.48142 24.13594,46.58948 36.82678,99.05587 36.65183,151.52579 l -32.665,5.37104 c 0.43454,-56.38467 12.94965,-112.64658 36.45821,-163.89858 8.01259,-17.46859 17.34608,-34.45187 29.37718,-49.43872 12.03111,-14.98685 26.8765,-27.96595 44.23881,-36.2063 25.05536,-11.891564 54.62119,-13.25136 81.16167,-5.20254 26.54047,8.04882 49.98796,25.17675 67.02642,47.05988 22.21245,28.52828 33.43308,64.15566 39.79438,99.74765 9.39935,52.59009 9.08286,106.59955 2.98874,159.67428 -8.80849,76.7146 -29.88491,152.51472 -66.88503,220.29164 -19.73736,36.15494 -44.06552,70.04888 -74.0745,98.26597 -30.00899,28.21709 -65.8534,50.6585 -105.27141,62.61525 -45.18564,13.70626 -93.37885,13.33469 -140.49465,10.21932 C 136.05392,800.82081 99.836428,796.65097 69.630004,778.72298 46.442279,764.9607 28.089689,743.50176 17.142657,718.85965 6.8063574,695.59232 2.9722164,669.61547 5.0985359,644.24449 7.2248555,618.87351 15.220134,594.12202 27.413629,571.77193 52.251382,526.24552 93.90233,491.46692 140.11522,467.93107 c 46.21289,-23.53585 97.03246,-36.5961 147.96722,-46.35407 55.03881,-10.54421 111.18083,-17.4534 167.09213,-13.66156 55.91129,3.79184 111.83535,18.72096 158.89469,49.14907 25.23933,16.3195 48.22803,37.68522 60.62172,65.06671 10.45598,23.10048 12.77632,49.34155 9.55495,74.49274 -3.22137,25.1512 -11.76406,49.35643 -22.24323,72.4464 -20.10683,44.30374 -47.42137,85.10072 -66.67639,129.78125 -6.65291,15.43783 -12.32182,31.29946 -16.96477,47.45588 -3.50118,12.18334 -15.08768,18.05345 -26.66965,12.89644 l -72.20849,-32.1517 c -11.58197,-5.15701 -12.67076,-15.40853 -2.81056,-23.37649 21.45953,-17.34131 41.57189,-36.34987 60.09037,-56.80233 17.86732,-19.7333 34.28862,-40.86159 47.86306,-63.76091 8.63051,-14.55918 16.14097,-29.93415 20.37954,-46.31982 4.23856,-16.38566 5.09056,-33.88832 0.52738,-50.18657 -5.40788,-19.31526 -18.20524,-36.04118 -33.92096,-48.50474 -15.71573,-12.46356 -34.25738,-20.93503 -53.26589,-27.33822 -60.57006,-20.40359 -126.34472,-20.52473 -189.65558,-11.76267 -41.32773,5.71965 -82.36165,15.19639 -120.73058,31.58299 -38.36893,16.38659 -74.08804,39.89284 -101.74641,71.12919 -7.337521,8.28673 -14.160795,17.20784 -18.555698,27.36628 -4.394903,10.15844 -6.220953,21.71481 -3.382477,32.41304 2.839112,10.70063 10.152958,19.82977 18.986705,26.50277 8.83375,6.67299 19.14957,11.102 29.58514,14.79834 52.73313,18.67839 111.65892,19.72431 164.80209,2.24665 39.00845,-12.82906 74.72066,-35.42576 103.26444,-64.94688 33.10396,-34.23744 56.29483,-77.29528 70.74526,-122.67434 14.45044,-45.37907 20.42388,-93.11638 21.91041,-140.71748 0.90213,-28.88762 0.0134,-58.64089 -11.17067,-85.29094 -5.59203,-13.32502 -13.77313,-25.68583 -24.61671,-35.23799 -10.84359,-9.55216 -24.42607,-16.19597 -38.78497,-17.82355 -14.72164,-1.6687 -29.82459,1.99139 -42.73104,9.26702 -12.90646,7.27562 -23.67169,18.04061 -31.91841,30.34926 -16.49345,24.6173 -22.81618,54.57028 -26.74452,83.94056 -4.97206,37.17365 -6.65706,74.83176 -4.10313,112.24939 3.03131,44.41179 12.06407,88.40779 26.74185,130.43246 4.18004,11.9681 -2.09443,19.95337 -14.63027,18.05872 l -81.04034,-12.24833 c -12.53584,-1.89465 -18.85307,-12.98018 -15.10201,-25.08775 4.75239,-15.33968 8.31846,-31.047 10.64877,-46.93607 4.36744,-29.77912 4.39077,-60.03012 3.20852,-90.10458 -1.15133,-29.2877 -3.44195,-58.56779 -8.15876,-87.49609 -4.42707,-27.15131 -11.14438,-54.35438 -24.7368,-78.27171 -8.42882,-14.83141 -19.61276,-28.36659 -33.89115,-37.70166 -14.27838,-9.33508 -31.83828,-14.20676 -48.68075,-11.49625 -11.21511,1.80488 -21.85659,6.93332 -30.342338,14.48503 -8.48575,7.55171 -14.8003,17.49131 -18.154938,28.34408 -4.738763,15.33063 -3.518019,32.14273 1.734857,47.30491 5.252877,15.16217 14.361395,28.77309 25.071819,40.72177 13.77224,15.36448 30.34821,28.19622 48.63165,37.75513 11.22691,5.86964 12.68116,15.29398 2.42909,22.75265 l -78.917859,57.41497 c -10.252075,7.45867 -19.920982,3.31494 -21.996013,-9.19186 z"
   sodipodi:nodetypes="caaaaccaaaaaaaaaaaaaaaaccaaaasaaaaaaaaaccaaaaaaacc"
   inkscape:path-effect="#path-effect1521;#path-effect856"
   inkscape:original-d="m 59.748507,495.58719 c 0,0 -17.312671,-59.88149 -17.757929,-90.67863 -1.426371,-98.65782 -31.091213,-233.64765 48.465461,-292.00975 26.359751,-19.337294 68.459941,-2.01322 97.109731,13.73343 29.36405,16.13922 50.00387,46.63422 65.23104,76.48142 23.61541,46.28923 36.65183,151.52579 36.65183,151.52579 l -32.665,5.37104 c 0,0 11.38854,-113.85909 36.45821,-163.89858 16.86227,-33.65736 37.57252,-74.78123 73.61599,-85.64502 49.14492,-14.812674 110.05041,7.50394 148.18809,41.85734 26.59789,23.95866 32.71203,64.65769 39.79438,99.74765 10.53207,52.18183 10.31331,106.94651 2.98874,159.67428 -10.55887,76.01068 -25.6547,155.56782 -66.88503,220.29164 C 447.79578,699.7724 385.50941,761.50459 311.59811,792.91902 268.38417,811.28619 217.9019,806.97289 171.10346,803.13834 136.42986,800.29727 99.406051,796.71512 69.630004,778.72298 46.916273,764.99823 25.618147,744.00817 17.142657,718.85965 1.4461544,672.2849 1.3527215,613.44227 27.413629,571.77193 80.587384,486.74925 189.94515,442.20168 288.08244,421.577 c 106.96751,-22.48046 228.26832,-13.48711 325.98682,35.48751 26.50148,13.28203 50.96111,37.04148 60.62172,65.06671 16.02151,46.47808 0.91519,99.69672 -12.68828,146.93914 -13.45786,46.73672 -47.98316,84.88138 -66.67639,129.78125 -9.38874,22.55113 -22.07512,65.35074 -22.66341,69.68992 l -114.15051,-50.8269 c 62.47365,-35.57199 54.53943,-44.84635 78.25082,-70.84122 17.90956,-19.63431 36.81752,-39.58955 47.86306,-63.76091 13.68041,-29.93734 31.28473,-65.27021 20.90692,-96.50639 -12.14483,-36.55472 -51.54433,-61.23627 -87.18685,-75.84296 -58.60935,-24.01873 -127.1724,-23.51507 -189.65558,-11.76267 -80.90269,15.21691 -167.09965,42.66964 -222.47699,102.71218 -14.390583,15.60289 -27.337448,39.25161 -21.938175,59.77932 5.40603,20.5534 28.675395,33.83127 48.571845,41.30111 51.43374,19.31007 111.91086,17.10688 164.80209,2.24665 39.14768,-10.99887 77.89161,-33.17055 103.26444,-64.94688 58.0738,-72.73027 99.91261,-170.60391 92.65567,-263.39182 -4.08495,-52.23054 -22.42563,-133.30908 -74.57235,-138.35248 -53.03069,-5.12888 -82.53252,73.72909 -101.39397,123.55684 -13.25498,35.01668 -7.63056,74.97447 -4.10313,112.24939 4.89459,51.72182 11.87628,142.34284 34.80972,151.92175 L 221.87329,606.96707 c 11.23545,-18.67984 14.76121,-45.19172 18.2449,-68.59325 4.42524,-29.72632 4.07072,-60.06305 3.20852,-90.10458 -0.84033,-29.27983 -2.35253,-58.78543 -8.15876,-87.49609 -5.42379,-26.81959 -7.74976,-56.82064 -24.7368,-78.27171 -19.89034,-25.11733 -50.67133,-52.17442 -82.5719,-49.19791 -21.47398,2.00365 -42.622314,22.07745 -48.497276,42.82911 -8.355286,29.5127 8.580416,63.35658 26.806676,88.02668 16.63897,22.52165 69.62376,47.00266 69.62376,47.00266 z" /></svg>
