<svg xmlns="http://www.w3.org/2000/svg" xmlns:dc="http://purl.org/dc/elements/1.1/" xmlns:ns1="http://sodipodi.sourceforge.net/DTD/sodipodi-0.dtd" xmlns:ns2="http://www.inkscape.org/namespaces/inkscape" xmlns:ns4="http://creativecommons.org/ns#" xmlns:rdf="http://www.w3.org/1999/02/22-rdf-syntax-ns#" xml:space="preserve" width="1000" height="1000" version="1.1" style="clip-rule:evenodd;fill-rule:evenodd;image-rendering:optimizeQuality;shape-rendering:geometricPrecision;text-rendering:geometricPrecision" viewBox="0 0 1000 1000" id="svg10" ns1:docname="ങ്ക്ര.svg" ns2:version="1.1.1 (3bf5ae0d25, 2021-09-20)"><metadata id="metadata14"><rdf:RDF><ns4:Work rdf:about=""><dc:format>image/svg+xml</dc:format><dc:type rdf:resource="http://purl.org/dc/dcmitype/StillImage" /></ns4:Work></rdf:RDF></metadata><ns1:namedview pagecolor="#ffffff" bordercolor="#666666" borderopacity="1" objecttolerance="10" gridtolerance="10" guidetolerance="10" ns2:pageopacity="0" ns2:pageshadow="2" ns2:window-width="1920" ns2:window-height="1009" id="namedview12" showgrid="false" ns2:zoom="0.9588368" ns2:cx="462.53961" ns2:cy="797.84172" ns2:window-x="0" ns2:window-y="0" ns2:window-maximized="1" ns2:current-layer="svg10" showguides="true" ns2:guide-bbox="true" ns2:document-rotation="0" ns2:snap-to-guides="true" ns2:pagecheckerboard="0"><ns1:guide position="0,1000" orientation="0,1" id="guide16" ns2:label="" ns2:locked="true" ns2:color="rgb(0,0,255)" /><ns1:guide position="1763.3122,2036.1693" orientation="1000,0" id="guide18" /><ns1:guide position="0,200" orientation="0,1" id="guide20" ns2:label="base" ns2:locked="true" ns2:color="rgb(0,0,255)" /><ns2:grid type="xygrid" id="grid24" originx="-473.37552" originy="-489.69235" /><ns1:guide position="0,0" orientation="0,1" id="guide34" ns2:label="bottom" ns2:locked="true" ns2:color="rgb(0,0,255)" /><ns1:guide position="225.05109,1693.3186" orientation="0,1" id="guide44" ns2:label="" ns2:locked="false" ns2:color="rgb(0,0,255)" /><ns1:guide position="0,900" orientation="0,1" id="guide46" ns2:label="" ns2:locked="true" ns2:color="rgb(0,0,255)" /><ns1:guide position="888.61231,538.83878" orientation="-1,0" id="guide841" ns2:label="width" ns2:locked="false" ns2:color="rgb(0,0,255)" /><ns1:guide position="0,1000" orientation="0,1000" id="guide860" /><ns1:guide position="1000,1000" orientation="1000,0" id="guide862" /><ns1:guide position="1000,0" orientation="0,-1000" id="guide864" /><ns1:guide position="1.142742,802.93787" orientation="-1000,0" id="guide866" /></ns1:namedview>
 <defs id="defs4"><ns2:path-effect effect="fillet_chamfer" id="path-effect1755" is_visible="true" lpeversion="1" satellites_param="F,0,1,1,0,15.757645,0,1 @ F,0,0,1,0,0,0,1 @ F,0,0,1,0,0,0,1 @ F,0,0,1,0,0,0,1 @ F,0,0,1,0,0,0,1 @ F,0,0,1,0,0,0,1 @ F,0,0,1,0,0,0,1 @ F,0,0,1,0,0,0,1 @ F,0,0,1,0,0,0,1 @ F,0,0,1,0,0,0,1 @ F,0,0,1,0,0,0,1 @ F,0,0,1,0,0,0,1 @ F,0,0,1,0,0,0,1 @ F,0,0,1,0,0,0,1 @ F,0,0,1,0,0,0,1 @ F,0,0,1,0,0,0,1 @ F,0,0,1,0,0,0,1 @ F,0,0,1,0,0,0,1 @ F,0,0,1,0,0,0,1 @ F,0,0,1,0,0,0,1 @ F,0,0,1,0,0,0,1 @ F,0,0,1,0,0,0,1 @ F,0,0,1,0,0,0,1 @ F,0,0,1,0,0,0,1 @ F,0,0,1,0,0,0,1 @ F,0,0,1,0,0,0,1 @ F,0,0,1,0,0,0,1 @ F,0,0,1,0,0,0,1 @ F,0,0,1,0,0,0,1 @ F,0,0,1,0,0,0,1 @ F,0,0,1,0,0,0,1 @ F,0,0,1,0,0,0,1 @ F,0,0,1,0,0,0,1 @ F,0,0,1,0,0,0,1 @ F,0,0,1,0,0,0,1 @ F,0,0,1,0,0,0,1 @ F,0,1,1,0,15.757645,0,1 @ F,0,0,1,0,15.757645,0,1 @ F,0,0,1,0,0,0,1 @ F,0,0,1,0,0,0,1 @ F,0,0,1,0,0,0,1 @ F,0,0,1,0,0,0,1 @ F,0,0,1,0,0,0,1 @ F,0,0,1,0,0,0,1 @ F,0,0,1,0,0,0,1 @ F,0,0,1,0,0,0,1 @ F,0,0,1,0,0,0,1 @ F,0,0,1,0,0,0,1 @ F,0,0,1,0,0,0,1 @ F,0,0,1,0,0,0,1 @ F,0,0,1,0,0,0,1 @ F,0,0,1,0,0,0,1 @ F,0,0,1,0,0,0,1 @ F,0,0,1,0,0,0,1 @ F,0,0,1,0,0,0,1 @ F,0,0,1,0,0,0,1 @ F,0,0,1,0,0,0,1 @ F,0,0,1,0,0,0,1 @ F,0,0,1,0,0,0,1 @ F,0,0,1,0,0,0,1 @ F,0,0,1,0,0,0,1 @ F,0,0,1,0,0,0,1 @ F,0,0,1,0,0,0,1 @ F,0,0,1,0,0,0,1 @ F,0,0,1,0,0,0,1 @ F,0,0,1,0,0,0,1 @ F,0,0,1,0,0,0,1 @ F,0,0,1,0,0,0,1 @ F,0,1,1,0,15.757645,0,1 @ F,0,1,1,0,15.757645,0,1 @ F,0,0,1,0,0,0,1 @ F,0,0,1,0,0,0,1 @ F,0,0,1,0,0,0,1 @ F,0,0,1,0,0,0,1 @ F,0,0,1,0,0,0,1 @ F,0,0,1,0,0,0,1 @ F,0,0,1,0,0,0,1 @ F,0,0,1,0,0,0,1 @ F,0,0,1,0,0,0,1 @ F,0,0,1,0,0,0,1 @ F,0,1,1,0,15.757645,0,1" unit="px" method="auto" mode="F" radius="0" chamfer_steps="1" flexible="false" use_knot_distance="true" apply_no_radius="true" apply_with_radius="true" only_selected="false" hide_knots="false" /><ns2:path-effect effect="spiro" id="path-effect1521" is_visible="true" lpeversion="1" /><ns2:path-effect effect="spiro" id="path-effect858" is_visible="true" lpeversion="1" /><ns2:path-effect effect="spiro" id="path-effect854" is_visible="true" lpeversion="1" />
  <style type="text/css" id="style2">
   
    .fil0 {fill:#EF7F1A;fill-rule:nonzero}
   
  </style>
 <ns2:path-effect effect="spiro" id="path-effect1214" is_visible="true" lpeversion="1" /><ns2:path-effect effect="spiro" id="path-effect1195" is_visible="true" lpeversion="1" /><ns2:path-effect effect="spiro" id="path-effect992" is_visible="true" lpeversion="1" /><ns2:path-effect effect="spiro" id="path-effect287" is_visible="true" lpeversion="1" /><ns2:path-effect effect="spiro" id="path-effect1032" is_visible="true" lpeversion="1" /><ns2:path-effect effect="spiro" id="path-effect1218" is_visible="true" lpeversion="1" /><ns2:path-effect effect="spiro" id="path-effect309" is_visible="true" lpeversion="1" /><ns2:path-effect effect="spiro" id="path-effect1176" is_visible="true" lpeversion="1" /></defs>
 
<path id="path1164-3-3-2-0" style="display:inline;fill:#a51d2d;fill-rule:nonzero;stroke:none;stroke-width:2.83729;stroke-linecap:butt;stroke-linejoin:miter;stroke-miterlimit:4;stroke-dasharray:none;stroke-opacity:1" d="m 241.69131,479.44738 c -0.91355,-25.00532 -3.68245,-49.94288 -8.2806,-74.53882 -9.96753,-53.31728 -28.57103,-105.64151 -28.2494,-159.88154 0.16082,-27.12001 5.26662,-54.57561 17.92319,-78.56169 12.65657,-23.98609 33.31085,-44.27951 58.79167,-53.56652 15.92522,-5.80428 33.35106,-7.20575 50.10386,-4.62778 16.7528,2.57797 32.82312,9.07941 47.00587,18.36121 28.30017,18.52085 48.28769,47.20952 65.23104,76.48142 19.14175,33.06994 35.34718,67.83877 48.36334,103.76379 l -40.46775,2.69711 c -4.8403,-45.99769 7.49471,-93.60311 34.06318,-131.46249 17.95518,-25.58567 42.71141,-47.00598 72.10226,-57.64518 25.69902,-9.3028 54.35455,-10.0146 80.61433,-2.43796 26.25979,7.57665 50.02602,23.34157 67.57376,44.2953 21.22607,25.34601 33.03495,57.386 39.79438,89.74765 10.9341,52.34842 9.57339,106.60306 2.98874,159.67428 -9.50435,76.60354 -30.068,152.44667 -66.88503,220.29164 -19.65041,36.21101 -43.9798,70.12487 -74.00834,98.33236 -30.02854,28.2075 -65.90641,50.60903 -105.33757,62.54886 -45.1915,13.68407 -93.37956,13.33278 -140.49465,10.21932 -35.04931,-2.31613 -71.26328,-6.4943 -101.47345,-24.41536 -23.19204,-13.75781 -41.55961,-35.21109 -52.48735,-59.86333 -10.31375,-23.26713 -14.09578,-49.24221 -11.95037,-74.60222 2.14541,-25.36001 10.12292,-50.0944 22.22134,-72.4855 24.69629,-45.70654 66.04767,-80.96327 112.24025,-104.73805 46.19257,-23.77479 97.2072,-36.7755 148.42856,-45.45688 96.88236,-16.42035 199.76386,-17.29536 289.75034,22.17933 38.65067,16.95503 75.15535,42.17637 96.8582,78.37489 14.23396,23.74104 21.49716,51.34159 22.68236,78.99729 1.1852,27.6557 -3.56573,55.37865 -12.08345,81.71666 -14.70259,45.46255 -40.6341,87.0141 -73.58071,121.61945 -77.99619,81.923 -192.43442,122.29853 -305.38273,128.41927 -65.27947,3.53753 -131.41705,-3.53041 -193.51754,-23.96204 C 242.12854,888.49023 184.14803,854.46957 138.29881,807.8673 67.505306,735.91104 28.719228,637.5691 10.597915,538.26632 -10.799634,421.01013 -5.5380121,299.07141 24.96524,183.84806 c 6.17467,-23.32427 13.368028,-46.37882 21.551885,-69.07623 2.951815,-8.18668 12.379385,-13.27369 20.88361,-11.42565 l 96.365275,20.94106 c 8.50422,1.84804 10.36188,8.2928 4.47036,14.69702 -13.24095,14.39324 -25.26722,29.90402 -35.90335,46.31633 -32.13782,49.59093 -51.246314,107.07558 -58.796242,165.68529 -7.549929,58.60971 -3.763381,118.35818 7.544069,176.36026 18.564981,95.22992 60.259873,190.02723 136.396223,250.16584 38.34431,30.28742 84.07143,50.6238 131.64815,61.76242 47.57673,11.13861 97.00107,13.25731 145.70072,9.26264 83.27354,-6.83066 166.44656,-32.33885 233.01493,-82.83433 33.22963,-25.20636 62.66708,-57.56223 75.82252,-97.14131 6.57773,-19.78954 8.88966,-41.13483 5.47032,-61.70666 -3.41934,-20.57184 -12.71151,-40.30984 -27.28455,-55.2269 -18.98896,-19.43721 -45.44,-29.62713 -71.66409,-36.74634 -34.30257,-9.31233 -69.64045,-14.32889 -105.03436,-17.59335 -53.91734,-4.97292 -108.8218,-5.86586 -161.65499,5.98586 -52.8332,11.85172 -103.8003,37.3373 -139.09347,78.40069 -10.41124,12.11341 -19.47936,25.6706 -24.43568,40.85492 -4.95633,15.18432 -5.53452,32.16226 0.59116,46.91369 3.92423,9.45004 10.45219,17.69459 18.21589,24.36002 7.7637,6.66543 16.74507,11.80478 26.10402,15.94157 25.67438,11.34844 54.28253,15.23911 82.30558,13.60511 28.02304,-1.634 55.532,-8.64567 81.88644,-18.31027 38.553,-14.13801 75.65596,-34.54969 103.26444,-64.94688 27.76484,-30.56935 44.57045,-69.77816 54.31263,-109.90872 9.74218,-40.13056 12.85167,-81.52519 16.27549,-122.67916 2.45383,-29.49476 5.01413,-59.77982 -3.24241,-88.2015 -4.12827,-14.21083 -11.01691,-27.76831 -21.09261,-38.6067 -10.0757,-10.8384 -23.45925,-18.83618 -38.05241,-21.29186 -12.99576,-2.18687 -26.57372,0.0779 -38.54607,5.58565 -11.97235,5.50773 -22.36884,14.16223 -30.66615,24.40073 -16.59463,20.47698 -24.6022,46.59168 -29.36844,72.5141 -8.90097,48.41026 -7.71848,98.41662 0.93966,146.8709 6.30452,35.28249 16.55207,69.85818 30.47767,102.88324 3.38119,8.01861 -0.61714,13.3627 -9.22212,12.06215 l -95.27522,-14.39977 c -8.60498,-1.30055 -13.34179,-9.04731 -10.87097,-17.39152 4.05015,-13.67776 7.51913,-27.52761 10.39365,-41.4998 12.32713,-59.91858 13.60537,-122.15163 3.11583,-182.41907 -5.00682,-28.76659 -12.7675,-57.31908 -26.36534,-83.15866 -8.43964,-16.0376 -19.37395,-31.2056 -34.27623,-41.51842 -7.45113,-5.15641 -15.84057,-9.02954 -24.70494,-10.90861 -8.86438,-1.87907 -18.2078,-1.72691 -26.88674,0.87769 -10.71639,3.21605 -20.18852,10.13729 -26.99613,19.01651 -6.8076,8.87921 -10.99735,19.64659 -12.59066,30.72112 -2.07925,14.45208 0.2003,29.34791 5.36017,43.00666 5.15986,13.65876 13.12568,26.13626 22.39624,37.41645 12.96671,15.77758 28.5924,29.35921 45.99624,40.04191 7.41464,4.5512 7.90975,11.58788 0.68409,16.43834 l -99.02502,66.47387 c -7.22566,4.85046 -13.09528,1.72554 -13.413,-6.97101 z" ns1:nodetypes="caaaaccaaaaaaaaaaaaaaaaaaaaccaaaaaaaaaaaaaaaaaccaaaaaacc" ns2:path-effect="#path-effect1521;#path-effect1755" ns2:original-d="m 242.0211,495.20093 c 0,0 -9.65929,-60.07657 -8.61039,-90.29237 3.42305,-98.60873 -31.09121,-233.64765 48.46546,-292.00975 26.35975,-19.337294 68.45994,-2.01322 97.10973,13.73343 29.36405,16.13922 47.11672,48.29289 65.23104,76.48142 20.62998,32.10326 48.36334,103.76379 48.36334,103.76379 l -40.46775,2.69711 c 0,0 9.44681,-93.47273 34.06318,-131.46249 16.73305,-25.82365 41.94199,-51.54486 72.10226,-57.64518 50.30994,-10.17586 109.40877,8.22993 148.18809,41.85734 24.72391,21.43929 32.71562,57.7976 39.79438,89.74765 11.51515,51.97373 10.31331,106.94651 2.98874,159.67428 -10.55887,76.01068 -25.6547,155.56782 -66.88503,220.29164 -43.14824,67.7346 -105.43461,129.46679 -179.34591,160.88122 -43.21395,18.36717 -93.69621,14.05387 -140.49465,10.21932 -34.6736,-2.84107 -71.69741,-6.42322 -101.47345,-24.41536 C 238.3364,764.99823 217.03828,744.00817 208.56279,718.85965 192.86629,672.2849 192.77285,613.44227 218.83376,571.77193 272.00752,486.74925 381.70824,443.771 479.50257,421.577 c 94.46388,-21.43817 199.73526,-13.60203 289.75034,22.17933 38.59458,15.3415 77.74702,41.50123 96.8582,78.37489 24.70471,47.66598 23.31472,108.55385 10.59891,160.71395 -11.2223,46.03375 -37.72187,90.64867 -73.58071,121.61945 C 719.55651,876.64527 608.1197,929.38643 497.74658,932.88389 370.95429,936.90163 232.69516,892.61254 138.29881,807.8673 64.304355,741.43806 30.44315,635.70445 10.597915,538.26632 -12.998872,422.40844 4.2370501,300.25339 24.96524,183.84806 30.113516,154.93638 68.019996,100 52.002474,100 l 127.161796,27.63342 c 12.81232,-7.29523 -36.83809,35.01056 -46.83125,57.66717 -46.525509,105.48319 -71.349433,228.52275 -51.252173,342.04555 16.556722,93.52347 61.432353,191.84619 136.396223,250.16584 75.32315,58.59916 182.01442,75.35902 277.34887,71.02506 82.34841,-3.74361 177.54164,-21.85901 233.01493,-82.83433 49.52494,-54.43698 84.34816,-147.02566 54.00829,-214.07487 -11.06722,-24.45787 -46.18057,-28.30473 -71.66409,-36.74634 -33.69843,-11.16286 -69.58651,-19.50218 -105.03436,-17.59335 -103.97041,5.5987 -227.42928,10.4576 -300.74846,84.38655 -21.34815,21.52569 -32.33301,58.66458 -23.84452,87.76861 5.59091,19.16927 25.5946,33.36748 44.31991,40.30159 51.34576,19.01368 111.80469,11.21571 164.19202,-4.70516 38.90643,-11.82393 78.59036,-32.62498 103.26444,-64.94688 49.16263,-64.40077 74.80078,-151.67635 70.58812,-232.58788 -2.78525,-53.49559 -9.71979,-138.31973 -62.38743,-148.10006 -46.60749,-8.65497 -81.00825,58.47348 -98.58066,102.50048 -18.14835,45.46999 -6.63491,98.50243 0.93966,146.8709 6.34067,40.48926 13.90281,107.72133 36.83625,117.30024 L 413.29342,606.96707 c 11.23545,-18.67984 12.39949,-37.21841 15.10338,-56.53647 8.42995,-60.22813 11.9015,-122.2418 3.11583,-182.41907 -4.20095,-28.77433 -8.33988,-60.33995 -26.36534,-83.15866 -20.69397,-26.19683 -53.01664,-57.49145 -85.86791,-51.54934 -20.85113,3.77153 -36.0028,28.85345 -39.58679,49.73763 -4.7967,27.95079 11.39955,57.25615 27.75641,80.42311 14.70074,20.82132 59.76354,47.69771 59.76354,47.69771 z" /><text text-anchor="middle" x="763.0564" y="845.98102" id="bottom" ns2:label="bottom" style="clip-rule:evenodd;fill-rule:evenodd;image-rendering:optimizeQuality;shape-rendering:geometricPrecision;text-rendering:geometricPrecision">✛</text></svg>