<?xml version="1.0" encoding="UTF-8" standalone="no"?>
<svg
   xml:space="preserve"
   width="1000"
   height="1000"
   version="1.1"
   style="clip-rule:evenodd;fill-rule:evenodd;image-rendering:optimizeQuality;shape-rendering:geometricPrecision;text-rendering:geometricPrecision"
   viewBox="0 0 1000 1000"
   id="svg10"
   sodipodi:docname="ങ്ക.svg"
   inkscape:version="1.1.1 (3bf5ae0d25, 2021-09-20)"
   xmlns:inkscape="http://www.inkscape.org/namespaces/inkscape"
   xmlns:sodipodi="http://sodipodi.sourceforge.net/DTD/sodipodi-0.dtd"
   xmlns="http://www.w3.org/2000/svg"
   xmlns:svg="http://www.w3.org/2000/svg"
   xmlns:rdf="http://www.w3.org/1999/02/22-rdf-syntax-ns#"
   xmlns:cc="http://creativecommons.org/ns#"
   xmlns:dc="http://purl.org/dc/elements/1.1/"><metadata
   id="metadata14"><rdf:RDF><cc:Work
       rdf:about=""><dc:format>image/svg+xml</dc:format><dc:type
         rdf:resource="http://purl.org/dc/dcmitype/StillImage" /></cc:Work></rdf:RDF></metadata><sodipodi:namedview
   pagecolor="#ffffff"
   bordercolor="#666666"
   borderopacity="1"
   objecttolerance="10"
   gridtolerance="10"
   guidetolerance="10"
   inkscape:pageopacity="0"
   inkscape:pageshadow="2"
   inkscape:window-width="1920"
   inkscape:window-height="1009"
   id="namedview12"
   showgrid="false"
   inkscape:zoom="0.9588368"
   inkscape:cx="571.00437"
   inkscape:cy="549.62429"
   inkscape:window-x="0"
   inkscape:window-y="0"
   inkscape:window-maximized="1"
   inkscape:current-layer="svg10"
   showguides="true"
   inkscape:guide-bbox="true"
   inkscape:document-rotation="0"
   inkscape:snap-to-guides="true"
   inkscape:pagecheckerboard="0"><sodipodi:guide
     position="0,1000"
     orientation="0,1"
     id="guide16"
     inkscape:label=""
     inkscape:locked="true"
     inkscape:color="rgb(0,0,255)" /><sodipodi:guide
     position="1763.3122,2036.1693"
     orientation="1000,0"
     id="guide18" /><sodipodi:guide
     position="0,200"
     orientation="0,1"
     id="guide20"
     inkscape:label="base"
     inkscape:locked="true"
     inkscape:color="rgb(0,0,255)" /><inkscape:grid
     type="xygrid"
     id="grid24"
     originx="-473.37552"
     originy="-489.69235" /><sodipodi:guide
     position="0,0"
     orientation="0,1"
     id="guide34"
     inkscape:label="bottom"
     inkscape:locked="true"
     inkscape:color="rgb(0,0,255)" /><sodipodi:guide
     position="225.05109,1693.3186"
     orientation="0,1"
     id="guide44"
     inkscape:label=""
     inkscape:locked="false"
     inkscape:color="rgb(0,0,255)" /><sodipodi:guide
     position="0,900"
     orientation="0,1"
     id="guide46"
     inkscape:label=""
     inkscape:locked="true"
     inkscape:color="rgb(0,0,255)" /><sodipodi:guide
     position="802.65661,687.00396"
     orientation="-1,0"
     id="guide841"
     inkscape:label="width"
     inkscape:locked="false"
     inkscape:color="rgb(0,0,255)" /><sodipodi:guide
     position="0,1000"
     orientation="0,1000"
     id="guide860" /><sodipodi:guide
     position="1000,1000"
     orientation="1000,0"
     id="guide862" /><sodipodi:guide
     position="1000,0"
     orientation="0,-1000"
     id="guide864" /><sodipodi:guide
     position="1.142742,802.93787"
     orientation="-1000,0"
     id="guide866" /></sodipodi:namedview>
 <defs
   id="defs4"><inkscape:path-effect
   effect="fillet_chamfer"
   id="path-effect1972"
   is_visible="true"
   lpeversion="1"
   satellites_param="F,0,0,1,0,11.809813,0,1 @ F,0,0,1,0,0,0,1 @ F,0,0,1,0,0,0,1 @ F,0,0,1,0,0,0,1 @ F,0,0,1,0,0,0,1 @ F,0,0,1,0,0,0,1 @ F,0,0,1,0,0,0,1 @ F,0,0,1,0,0,0,1 @ F,0,0,1,0,0,0,1 @ F,0,0,1,0,0,0,1 @ F,0,0,1,0,0,0,1 @ F,0,0,1,0,0,0,1 @ F,0,0,1,0,0,0,1 @ F,0,0,1,0,0,0,1 @ F,0,0,1,0,0,0,1 @ F,0,0,1,0,0,0,1 @ F,0,0,1,0,0,0,1 @ F,0,0,1,0,0,0,1 @ F,0,0,1,0,0,0,1 @ F,0,0,1,0,0,0,1 @ F,0,0,1,0,0,0,1 @ F,0,0,1,0,0,0,1 @ F,0,0,1,0,0,0,1 @ F,0,0,1,0,0,0,1 @ F,0,0,1,0,0,0,1 @ F,0,0,1,0,0,0,1 @ F,0,0,1,0,0,0,1 @ F,0,0,1,0,0,0,1 @ F,0,0,1,0,0,0,1 @ F,0,0,1,0,0,0,1 @ F,0,0,1,0,0,0,1 @ F,0,0,1,0,0,0,1 @ F,0,0,1,0,0,0,1 @ F,0,0,1,0,0,0,1 @ F,0,0,1,0,11.809813,0,1 @ F,0,0,1,0,11.809813,0,1 @ F,0,0,1,0,0,0,1 @ F,0,0,1,0,0,0,1 @ F,0,0,1,0,0,0,1 @ F,0,0,1,0,0,0,1 @ F,0,0,1,0,0,0,1 @ F,0,0,1,0,0,0,1 @ F,0,0,1,0,0,0,1 @ F,0,0,1,0,0,0,1 @ F,0,0,1,0,0,0,1 @ F,0,0,1,0,0,0,1 @ F,0,0,1,0,0,0,1 @ F,0,0,1,0,0,0,1 @ F,0,0,1,0,0,0,1 @ F,0,0,1,0,0,0,1 @ F,0,0,1,0,0,0,1 @ F,0,0,1,0,15.534505,0,1 @ F,0,0,1,0,11.809813,0,1 @ F,0,0,1,0,0,0,1 @ F,0,0,1,0,0,0,1 @ F,0,0,1,0,0,0,1 @ F,0,0,1,0,0,0,1 @ F,0,0,1,0,0,0,1 @ F,0,0,1,0,0,0,1 @ F,0,0,1,0,0,0,1 @ F,0,0,1,0,0,0,1 @ F,0,0,1,0,0,0,1 @ F,0,0,1,0,0,0,1 @ F,0,0,1,0,0,0,1 @ F,0,0,1,0,11.809813,0,1 @ F,0,0,1,0,11.809813,0,1 @ F,0,0,1,0,0,0,1 @ F,0,0,1,0,0,0,1 @ F,0,0,1,0,0,0,1 @ F,0,0,1,0,0,0,1 @ F,0,0,1,0,0,0,1 @ F,0,0,1,0,0,0,1 @ F,0,0,1,0,0,0,1 @ F,0,0,1,0,0,0,1 @ F,0,0,1,0,11.809813,0,1"
   unit="px"
   method="auto"
   mode="F"
   radius="0"
   chamfer_steps="1"
   flexible="false"
   use_knot_distance="true"
   apply_no_radius="true"
   apply_with_radius="true"
   only_selected="false"
   hide_knots="false" /><inkscape:path-effect
   effect="fillet_chamfer"
   id="path-effect7805"
   is_visible="true"
   lpeversion="1"
   satellites_param="F,0,1,1,0,8.5460411,0,1 @ F,0,0,1,0,0,0,1 @ F,0,0,1,0,0,0,1 @ F,0,0,1,0,0,0,1 @ F,0,0,1,0,0,0,1 @ F,0,0,1,0,0,0,1 @ F,0,0,1,0,0,0,1 @ F,0,0,1,0,0,0,1 @ F,0,0,1,0,0,0,1 @ F,0,0,1,0,0,0,1 @ F,0,0,1,0,0,0,1 @ F,0,0,1,0,0,0,1 @ F,0,0,1,0,0,0,1 @ F,0,0,1,0,0,0,1 @ F,0,0,1,0,0,0,1 @ F,0,0,1,0,0,0,1 @ F,0,0,1,0,0,0,1 @ F,0,0,1,0,0,0,1 @ F,0,0,1,0,0,0,1 @ F,0,0,1,0,0,0,1 @ F,0,0,1,0,0,0,1 @ F,0,0,1,0,0,0,1 @ F,0,0,1,0,0,0,1 @ F,0,0,1,0,0,0,1 @ F,0,0,1,0,0,0,1 @ F,0,0,1,0,0,0,1 @ F,0,0,1,0,0,0,1 @ F,0,0,1,0,0,0,1 @ F,0,0,1,0,0,0,1 @ F,0,0,1,0,0,0,1 @ F,0,0,1,0,0,0,1 @ F,0,0,1,0,0,0,1 @ F,0,0,1,0,0,0,1 @ F,0,0,1,0,0,0,1 @ F,0,0,1,0,0,0,1 @ F,0,1,1,0,8.5460411,0,1 @ F,0,1,1,0,8.5460411,0,1 @ F,0,0,1,0,0,0,1 @ F,0,0,1,0,0,0,1 @ F,0,0,1,0,0,0,1 @ F,0,0,1,0,0,0,1 @ F,0,0,1,0,0,0,1 @ F,0,0,1,0,0,0,1 @ F,0,0,1,0,0,0,1 @ F,0,0,1,0,0,0,1 @ F,0,0,1,0,0,0,1 @ F,0,0,1,0,0,0,1 @ F,0,0,1,0,0,0,1 @ F,0,0,1,0,0,0,1 @ F,0,0,1,0,0,0,1 @ F,0,0,1,0,0,0,1 @ F,0,0,1,0,0,0,1 @ F,0,1,1,0,8.5460411,0,1 @ F,0,1,1,0,8.5460411,0,1 @ F,0,0,1,0,0,0,1 @ F,0,0,1,0,0,0,1 @ F,0,0,1,0,0,0,1 @ F,0,0,1,0,0,0,1 @ F,0,0,1,0,0,0,1 @ F,0,0,1,0,0,0,1 @ F,0,0,1,0,0,0,1 @ F,0,0,1,0,0,0,1 @ F,0,0,1,0,0,0,1 @ F,0,0,1,0,0,0,1 @ F,0,0,1,0,0,0,1 @ F,0,1,1,0,8.5460411,0,1 @ F,0,0,1,0,8.5460411,0,1 @ F,0,0,1,0,0,0,1 @ F,0,0,1,0,0,0,1 @ F,0,0,1,0,0,0,1 @ F,0,0,1,0,0,0,1 @ F,0,0,1,0,0,0,1 @ F,0,0,1,0,0,0,1 @ F,0,0,1,0,0,0,1 @ F,0,0,1,0,0,0,1 @ F,0,1,1,0,8.5460411,0,1"
   unit="px"
   method="auto"
   mode="F"
   radius="0"
   chamfer_steps="1"
   flexible="false"
   use_knot_distance="true"
   apply_no_radius="true"
   apply_with_radius="true"
   only_selected="false"
   hide_knots="false" /><inkscape:path-effect
   effect="fillet_chamfer"
   id="path-effect856"
   is_visible="true"
   lpeversion="1"
   satellites_param="F,0,1,1,0,22.955919,0,1 @ F,0,0,1,0,0,0,1 @ F,0,0,1,0,0,0,1 @ F,0,0,1,0,0,0,1 @ F,0,0,1,0,0,0,1 @ F,0,0,1,0,0,0,1 @ F,0,0,1,0,0,0,1 @ F,0,0,1,0,0,0,1 @ F,0,0,1,0,0,0,1 @ F,0,0,1,0,0,0,1 @ F,0,0,1,0,0,0,1 @ F,0,0,1,0,0,0,1 @ F,0,0,1,0,0,0,1 @ F,0,0,1,0,0,0,1 @ F,0,0,1,0,0,0,1 @ F,0,0,1,0,0,0,1 @ F,0,0,1,0,0,0,1 @ F,0,0,1,0,0,0,1 @ F,0,0,1,0,0,0,1 @ F,0,0,1,0,0,0,1 @ F,0,0,1,0,0,0,1 @ F,0,0,1,0,0,0,1 @ F,0,0,1,0,0,0,1 @ F,0,0,1,0,0,0,1 @ F,0,0,1,0,0,0,1 @ F,0,0,1,0,0,0,1 @ F,0,0,1,0,0,0,1 @ F,0,0,1,0,0,0,1 @ F,0,0,1,0,0,0,1 @ F,0,0,1,0,0,0,1 @ F,0,0,1,0,0,0,1 @ F,0,0,1,0,0,0,1 @ F,0,0,1,0,0,0,1 @ F,0,1,1,0,22.955919,0,1 @ F,0,1,1,0,22.955919,0,1 @ F,0,0,1,0,0,0,1 @ F,0,0,1,0,0,0,1 @ F,0,0,1,0,0,0,1 @ F,0,0,1,0,0,0,1 @ F,0,0,1,0,0,0,1 @ F,0,0,1,0,0,0,1 @ F,0,0,1,0,0,0,1 @ F,0,0,1,0,0,0,1 @ F,0,0,1,0,0,0,1 @ F,0,0,1,0,0,0,1 @ F,0,0,1,0,0,0,1 @ F,0,0,1,0,0,0,1 @ F,0,0,1,0,0,0,1 @ F,0,0,1,0,0,0,1 @ F,0,0,1,0,0,0,1 @ F,0,0,1,0,0,0,1 @ F,0,0,1,0,0,0,1 @ F,0,0,1,0,0,0,1 @ F,0,0,1,0,0,0,1 @ F,0,0,1,0,0,0,1 @ F,0,0,1,0,0,0,1 @ F,0,0,1,0,0,0,1 @ F,0,0,1,0,0,0,1 @ F,0,0,1,0,0,0,1 @ F,0,1,1,0,22.955919,0,1 @ F,0,1,1,0,22.955919,0,1 @ F,0,0,1,0,0,0,1 @ F,0,0,1,0,0,0,1 @ F,0,0,1,0,0,0,1 @ F,0,0,1,0,0,0,1 @ F,0,0,1,0,0,0,1 @ F,0,0,1,0,0,0,1 @ F,0,0,1,0,0,0,1 @ F,0,0,1,0,0,0,1 @ F,0,0,1,0,0,0,1 @ F,0,0,1,0,0,0,1 @ F,0,1,1,0,22.955919,0,1"
   unit="px"
   method="auto"
   mode="F"
   radius="0"
   chamfer_steps="1"
   flexible="false"
   use_knot_distance="true"
   apply_no_radius="true"
   apply_with_radius="true"
   only_selected="true"
   hide_knots="true" /><inkscape:path-effect
   effect="fillet_chamfer"
   id="path-effect855"
   is_visible="true"
   lpeversion="1"
   satellites_param="F,0,0,1,0,19.742474,0,1 @ F,0,0,1,0,0,0,1 @ F,0,0,1,0,0,0,1 @ F,0,0,1,0,0,0,1 @ F,0,0,1,0,0,0,1 @ F,0,0,1,0,0,0,1 @ F,0,0,1,0,0,0,1 @ F,0,0,1,0,0,0,1 @ F,0,0,1,0,0,0,1 @ F,0,0,1,0,0,0,1 @ F,0,0,1,0,0,0,1 @ F,0,0,1,0,0,0,1 @ F,0,0,1,0,0,0,1 @ F,0,0,1,0,0,0,1 @ F,0,0,1,0,0,0,1 @ F,0,0,1,0,0,0,1 @ F,0,0,1,0,0,0,1 @ F,0,0,1,0,0,0,1 @ F,0,0,1,0,0,0,1 @ F,0,0,1,0,0,0,1 @ F,0,0,1,0,0,0,1 @ F,0,0,1,0,0,0,1 @ F,0,0,1,0,0,0,1 @ F,0,0,1,0,0,0,1 @ F,0,0,1,0,0,0,1 @ F,0,0,1,0,0,0,1 @ F,0,0,1,0,0,0,1 @ F,0,0,1,0,0,0,1 @ F,0,0,1,0,0,0,1 @ F,0,0,1,0,0,0,1 @ F,0,0,1,0,0,0,1 @ F,0,0,1,0,21.687326,0,1 @ F,0,0,1,0,13.338004,0,1 @ F,0,0,1,0,0,0,1 @ F,0,0,1,0,0,0,1 @ F,0,0,1,0,0,0,1 @ F,0,0,1,0,0,0,1 @ F,0,0,1,0,0,0,1 @ F,0,0,1,0,0,0,1 @ F,0,0,1,0,0,0,1 @ F,0,0,1,0,0,0,1 @ F,0,0,1,0,0,0,1 @ F,0,0,1,0,0,0,1 @ F,0,0,1,0,0,0,1 @ F,0,0,1,0,0,0,1 @ F,0,0,1,0,0,0,1 @ F,0,0,1,0,0,0,1 @ F,0,0,1,0,0,0,1 @ F,0,0,1,0,0,0,1 @ F,0,0,1,0,0,0,1 @ F,0,0,1,0,0,0,1 @ F,0,0,1,0,0,0,1 @ F,0,0,1,0,0,0,1 @ F,0,0,1,0,0,0,1 @ F,0,0,1,0,0,0,1 @ F,0,0,1,0,0,0,1 @ F,0,0,1,0,0,0,1 @ F,0,0,1,0,25.107362,0,1 @ F,0,0,1,0,18.316946,0,1 @ F,0,0,1,0,0,0,1 @ F,0,0,1,0,0,0,1 @ F,0,0,1,0,0,0,1 @ F,0,0,1,0,0,0,1 @ F,0,0,1,0,0,0,1 @ F,0,0,1,0,0,0,1 @ F,0,0,1,0,0,0,1 @ F,0,0,1,0,0,0,1 @ F,0,0,1,0,0,0,1 @ F,0,0,1,0,0,0,1 @ F,0,0,1,0,20.970998,0,1"
   unit="px"
   method="auto"
   mode="F"
   radius="0"
   chamfer_steps="1"
   flexible="false"
   use_knot_distance="true"
   apply_no_radius="true"
   apply_with_radius="true"
   only_selected="true"
   hide_knots="false" /><inkscape:path-effect
   effect="spiro"
   id="path-effect1521"
   is_visible="true"
   lpeversion="1" /><inkscape:path-effect
   effect="spiro"
   id="path-effect858"
   is_visible="true"
   lpeversion="1" /><inkscape:path-effect
   effect="spiro"
   id="path-effect854"
   is_visible="true"
   lpeversion="1" />
  <style
   type="text/css"
   id="style2">
   <![CDATA[
    .fil0 {fill:#EF7F1A;fill-rule:nonzero}
   ]]>
  </style>
 <inkscape:path-effect
   effect="spiro"
   id="path-effect1214"
   is_visible="true"
   lpeversion="1" /><inkscape:path-effect
   effect="spiro"
   id="path-effect1195"
   is_visible="true"
   lpeversion="1" /><inkscape:path-effect
   effect="spiro"
   id="path-effect992"
   is_visible="true"
   lpeversion="1" /><inkscape:path-effect
   effect="spiro"
   id="path-effect287"
   is_visible="true"
   lpeversion="1" /><inkscape:path-effect
   effect="spiro"
   id="path-effect1032"
   is_visible="true"
   lpeversion="1" /><inkscape:path-effect
   effect="spiro"
   id="path-effect1218"
   is_visible="true"
   lpeversion="1" /><inkscape:path-effect
   effect="spiro"
   id="path-effect309"
   is_visible="true"
   lpeversion="1" /><inkscape:path-effect
   effect="spiro"
   id="path-effect1176"
   is_visible="true"
   lpeversion="1" /></defs>
 
<path
   id="path1164-3-3-2-0"
   style="display:inline;fill:#63452c;fill-rule:nonzero;stroke:none;stroke-width:2.83729;stroke-linecap:butt;stroke-linejoin:miter;stroke-miterlimit:4;stroke-dasharray:none;stroke-opacity:1"
   d="M 117.56528,471.79237 C 102.58036,450.225 88.697714,427.89178 75.990578,404.90856 47.666603,353.67937 24.764283,296.80006 28.32614,238.3707 c 1.780928,-29.21468 10.414864,-58.28782 26.880808,-82.48579 16.465944,-24.19798 41.021865,-43.24705 69.249092,-50.9861 32.32494,-8.862518 67.75146,-2.4387 97.10973,13.73343 39.79612,21.92187 68.4138,60.17483 88.0799,101.13266 20.16812,42.00338 32.14212,87.92239 35.05333,134.42574 l -53.91536,5.81985 c -3.51938,-56.60216 9.27638,-114.12572 36.45821,-163.89858 17.87952,-32.73932 43.23616,-63.16856 77.61599,-77.64502 24.42991,-10.28681 52.16753,-11.78767 78.02455,-5.95212 25.85702,5.83555 49.84902,18.78127 70.16354,35.80946 41.76586,35.00931 67.48354,86.38702 79.56245,139.52964 12.0789,53.14262 11.50249,108.34137 7.8259,162.71527 -6.79521,100.4957 -25.47027,204.01485 -83.21202,286.54637 -10.89067,15.56627 -23.21603,30.3629 -38.35749,41.83685 -15.14146,11.47396 -33.32975,19.50321 -52.30856,20.35182 -22.03304,0.98518 -43.71996,-7.78774 -61.35009,-21.03929 -17.63013,-13.25155 -31.60685,-30.75793 -44.04803,-48.96898 -21.4387,-31.38136 -38.9148,-65.4668 -51.88233,-101.19146 L 364.4003,617.2714 c -0.25701,39.62174 -12.20737,79.0966 -33.96916,112.20812 -22.68832,34.52127 -56.52636,62.25788 -95.99351,74.45715 C 190.85493,817.40805 141.10084,810.73964 103.63,784.72298 80.248375,768.48871 61.910972,745.20913 51.142657,718.85965 31.942092,671.8769 37.653978,616.62189 61.413629,571.77193 85.732553,525.86625 127.34308,490.74144 173.64476,467.18521 219.94643,443.62897 270.96539,430.8392 322.08244,421.577 c 75.24299,-13.63373 151.9862,-20.01626 228.33337,-15.71564 36.34712,2.04743 72.84453,6.57447 107.36195,18.14393 34.51742,11.56946 67.14248,30.55318 90.91322,58.12593 35.02554,40.6277 47.99484,99.03188 34.08145,150.83744 -10.46813,38.97738 -34.478,72.66275 -52.52606,108.76103 -14.45568,28.91309 -25.18112,59.68755 -31.84341,91.31852 -1.34423,6.38208 -7.19248,9.70701 -13.28607,7.38116 l -94.88908,-36.21804 c -6.09359,-2.32585 -7.22335,-7.87772 -2.57951,-12.45764 15.13815,-14.92976 29.83285,-30.30917 44.05802,-46.11125 18.52316,-20.57652 36.34864,-42.00956 50.14306,-66.01403 10.91998,-19.00249 19.28054,-39.7121 22.328,-61.41587 3.04746,-21.70376 0.56256,-44.47701 -9.16648,-64.11591 -13.02183,-26.28567 -38.12746,-45.16763 -65.5194,-55.66461 -27.39193,-10.49697 -57.09406,-13.38274 -86.41778,-14.1727 -60.39405,-1.62696 -120.72258,5.21607 -180.38296,14.74116 -64.61202,10.31564 -131.40934,25.00816 -182.48102,65.90815 -13.26334,10.62174 -25.34055,23.01022 -33.86829,37.70767 -8.52774,14.69746 -13.35105,31.85866 -11.69842,48.77038 1.55631,15.92605 8.91394,31.16756 20.17926,42.53213 11.26532,11.36457 26.32721,18.8251 42.14642,21.23623 15.88386,2.42098 32.44325,-0.2065 46.9697,-7.07239 14.52644,-6.86589 26.99551,-17.90202 35.90734,-31.27129 8.68809,-13.03362 14.02417,-28.28186 15.35879,-43.88881 0.89337,-10.44705 -0.007,-21.04013 -2.6051,-31.19759 -2.12319,-8.30233 1.74244,-16.01853 10.15707,-17.69226 l 66.729,-13.27289 c 6.39706,-1.27242 10.85547,2.94882 10.67346,9.46601 -0.65034,23.2861 5.42516,46.75663 17.44878,66.72082 6.53812,10.85598 14.8799,20.77823 25.28306,28.01519 10.40316,7.23696 22.96892,11.67113 35.63491,11.25643 8.72473,-0.28566 17.30999,-2.85013 25.00455,-6.97279 7.69456,-4.12266 14.51609,-9.7765 20.37141,-16.25089 11.71065,-12.94879 19.46741,-28.94676 26.17196,-45.06692 40.62765,-97.68354 46.82565,-211.79205 4.79989,-308.88229 -7.48171,-17.28467 -16.55419,-34.14917 -29.39427,-47.92844 -12.84008,-13.77928 -29.80543,-24.33471 -48.48197,-26.76837 -17.81999,-2.32204 -36.23362,2.971 -51.06337,13.121 -14.82974,10.15 -26.18825,24.91031 -33.73654,41.21881 -11.74615,25.37821 -14.30888,54.84297 -7.41472,81.922 1.60856,6.31813 -1.68848,12.41294 -8.05976,13.80874 l -81.20757,17.79074 c -6.37128,1.3958 -10.27764,-2.61437 -9.16536,-9.04016 1.85099,-10.69355 2.79641,-21.54394 2.81798,-32.39654 0.0551,-27.713 -5.97845,-55.41954 -17.53021,-80.61022 -8.22561,-17.93743 -19.45152,-34.84988 -34.85079,-47.18983 -15.39928,-12.33994 -35.3058,-19.76551 -54.9277,-17.66957 -14.03588,1.49926 -27.4874,7.87263 -37.61189,17.70872 -10.12449,9.83608 -16.87374,23.06202 -19.00368,37.01613 -2.24205,14.6886 0.57032,29.88552 6.51671,43.5025 5.9464,13.61698 14.91993,25.74639 25.08437,36.58456 19.36459,20.64813 43.34367,36.93331 69.6434,47.39484 6.05953,2.41037 7.08716,7.46425 2.13526,11.70927 l -75.27931,64.53315 c -4.9519,4.24502 -12.05726,3.39602 -15.77883,-1.96033 z"
   sodipodi:nodetypes="caaaaccaaaaaaaccaaaaaaaaaaccaaaaaaaaaccaaaaaaccaaaaacc"
   inkscape:path-effect="#path-effect1521;#path-effect1972"
   inkscape:original-d="m 124.3779,481.43898 c 0,0 -42.33735,-46.96163 -48.387322,-76.53042 C 55.684656,305.66488 42.906794,164.9934 124.45604,104.89881 c 26.31802,-19.394055 68.37886,-1.86479 97.10973,13.73343 39.28727,21.32937 67.20686,61.60106 88.0799,101.13266 21.62158,40.94927 35.05333,134.42574 35.05333,134.42574 l -53.91536,5.81985 c 0,0 9.52521,-114.83686 36.45821,-163.89858 17.61041,-32.0795 42.58429,-67.06195 77.61599,-77.64502 48.23563,-14.57198 111.1166,-4.2707 148.18809,29.85734 77.1576,71.03134 87.44957,197.37002 87.38835,302.24491 -0.0581,99.46135 -24.92823,205.95132 -83.21202,286.54637 -21.47559,29.69653 -54.01894,61.91574 -90.66605,62.18867 -42.1756,0.3141 -77.29919,-38.55465 -105.39812,-70.00827 C 335.90471,701.02757 309.27576,628.10445 309.27576,628.10445 L 364.4003,617.2714 c 0,0 -11.82218,80.01053 -33.96916,112.20812 -22.94943,33.36421 -56.82781,64.16661 -95.99351,74.45715 C 191.81393,815.13578 141.83366,806.69298 103.63,784.72298 79.294039,770.72795 59.480928,745.66587 51.142657,718.85965 36.544543,671.92903 35.352721,613.44227 61.413629,571.77193 114.58738,486.74925 226.15437,450.80217 322.08244,421.577 c 72.9795,-22.23373 152.89031,-27.05985 228.33337,-15.71564 70.02561,10.5296 151.96157,22.70205 198.27517,76.26986 33.71294,38.99347 39.9373,99.62453 34.08145,150.83744 -4.57368,39.99956 -37.40881,71.44679 -52.52606,108.76103 -13.5692,33.49313 -33.50777,98.57183 -34.09606,102.91101 L 579.19439,800 c 62.47365,-35.57199 36.11184,-35.23346 52.51193,-54.35756 17.9883,-20.9761 39.9696,-40.32209 50.14306,-66.01403 15.48992,-39.11807 33.98443,-88.97268 13.16152,-125.53178 -27.58666,-48.43431 -97.04552,-60.15163 -151.93718,-69.83731 -59.41032,-10.48301 -121.43188,1.92518 -180.38296,14.74116 -63.19667,13.73897 -133.69888,23.4478 -182.48102,65.90815 -24.57694,21.39196 -50.25871,54.2348 -45.56671,86.47805 4.28012,29.41281 33.09267,58.39583 62.32568,63.76836 29.93769,5.50203 65.4049,-13.41855 82.87704,-38.34368 17.23458,-24.58624 7.67473,-89.7481 7.67473,-89.7481 l 93.54793,-18.60737 c 0,0 1.37726,56.46715 16.53934,78.49075 13.70001,19.89988 36.86654,41.55727 60.91797,39.27162 32.82132,-3.11906 58.34223,-38.0817 71.54792,-68.2906 41.24551,-94.35193 44.45787,-213.85217 4.79989,-308.88229 -13.85295,-33.19502 -42.0769,-71.20102 -77.87624,-74.69681 -33.41328,-3.26279 -68.07275,25.23147 -84.79991,54.33981 -15.49316,26.96097 -3.93826,93.20342 -3.93826,93.20342 l -104.28001,22.84538 c 0,0 5.90169,-29.22486 5.18884,-43.96402 -1.32838,-27.46601 -2.46859,-57.60383 -17.53021,-80.61022 -20.22159,-30.88816 -52.95384,-67.493 -89.77849,-64.8594 -26.18011,1.87233 -51.0601,29.07255 -56.61557,54.72485 -6.074419,28.04853 13.3378,57.94952 31.60108,80.08706 20.30607,24.61368 80.74487,51.41783 80.74487,51.41783 z" /></svg>
