<?xml version="1.0" encoding="UTF-8" standalone="no"?>
<svg
   xmlns:dc="http://purl.org/dc/elements/1.1/"
   xmlns:cc="http://creativecommons.org/ns#"
   xmlns:rdf="http://www.w3.org/1999/02/22-rdf-syntax-ns#"
   xmlns:svg="http://www.w3.org/2000/svg"
   xmlns="http://www.w3.org/2000/svg"
   xmlns:sodipodi="http://sodipodi.sourceforge.net/DTD/sodipodi-0.dtd"
   xmlns:inkscape="http://www.inkscape.org/namespaces/inkscape"
   xml:space="preserve"
   width="1000"
   height="1000"
   version="1.1"
   style="clip-rule:evenodd;fill-rule:evenodd;image-rendering:optimizeQuality;shape-rendering:geometricPrecision;text-rendering:geometricPrecision"
   viewBox="0 0 1000 1000"
   id="svg10"
   sodipodi:docname="ങ്ങ.svg"
   inkscape:version="1.0.1 (3bc2e813f5, 2020-09-07)"><metadata
   id="metadata14"><rdf:RDF><cc:Work
       rdf:about=""><dc:format>image/svg+xml</dc:format><dc:type
         rdf:resource="http://purl.org/dc/dcmitype/StillImage" /><dc:title /></cc:Work></rdf:RDF></metadata><sodipodi:namedview
   pagecolor="#ffffff"
   bordercolor="#666666"
   borderopacity="1"
   objecttolerance="10"
   gridtolerance="10"
   guidetolerance="10"
   inkscape:pageopacity="0"
   inkscape:pageshadow="2"
   inkscape:window-width="1920"
   inkscape:window-height="1015"
   id="namedview12"
   showgrid="false"
   inkscape:zoom="0.678"
   inkscape:cx="781.10708"
   inkscape:cy="602.54955"
   inkscape:window-x="1920"
   inkscape:window-y="0"
   inkscape:window-maximized="1"
   inkscape:current-layer="svg10"
   showguides="true"
   inkscape:guide-bbox="true"
   inkscape:document-rotation="0"
   inkscape:snap-to-guides="true"><sodipodi:guide
     position="0,1000"
     orientation="0,1"
     id="guide16"
     inkscape:label=""
     inkscape:locked="true"
     inkscape:color="rgb(0,0,255)" /><sodipodi:guide
     position="1763.3122,2036.1693"
     orientation="1000,0"
     id="guide18" /><sodipodi:guide
     position="0,200"
     orientation="0,1"
     id="guide20"
     inkscape:label="base"
     inkscape:locked="true"
     inkscape:color="rgb(0,0,255)" /><inkscape:grid
     type="xygrid"
     id="grid24"
     originx="-473.37552"
     originy="-489.69235" /><sodipodi:guide
     position="0,0"
     orientation="0,1"
     id="guide34"
     inkscape:label="bottom"
     inkscape:locked="true"
     inkscape:color="rgb(0,0,255)" /><sodipodi:guide
     position="225.05109,1693.3186"
     orientation="0,1"
     id="guide44"
     inkscape:label=""
     inkscape:locked="false"
     inkscape:color="rgb(0,0,255)" /><sodipodi:guide
     position="0,900"
     orientation="0,1"
     id="guide46"
     inkscape:label=""
     inkscape:locked="true"
     inkscape:color="rgb(0,0,255)" /><sodipodi:guide
     position="1107.987,900"
     orientation="-1,0"
     id="guide841"
     inkscape:label="width"
     inkscape:locked="false"
     inkscape:color="rgb(0,0,255)" /><sodipodi:guide
     position="0,1000"
     orientation="0,1000"
     id="guide860" /><sodipodi:guide
     position="1000,1000"
     orientation="1000,0"
     id="guide862" /><sodipodi:guide
     position="1000,0"
     orientation="0,-1000"
     id="guide864" /><sodipodi:guide
     position="0,0"
     orientation="-1000,0"
     id="guide866" /></sodipodi:namedview>
 <defs
   id="defs4"><inkscape:path-effect
   effect="spiro"
   id="path-effect860"
   is_visible="true"
   lpeversion="1" /><inkscape:path-effect
   effect="spiro"
   id="path-effect859"
   is_visible="true"
   lpeversion="1" /><inkscape:path-effect
   effect="spiro"
   id="path-effect862"
   is_visible="true"
   lpeversion="1" /><inkscape:path-effect
   effect="spiro"
   id="path-effect1521"
   is_visible="true"
   lpeversion="1" /><inkscape:path-effect
   effect="spiro"
   id="path-effect858"
   is_visible="true"
   lpeversion="1" /><inkscape:path-effect
   effect="spiro"
   id="path-effect854"
   is_visible="true"
   lpeversion="1" />
  <style
   type="text/css"
   id="style2">
   <![CDATA[
    .fil0 {fill:#EF7F1A;fill-rule:nonzero}
   ]]>
  </style>
 <inkscape:path-effect
   effect="spiro"
   id="path-effect1214"
   is_visible="true"
   lpeversion="1" /><inkscape:path-effect
   effect="spiro"
   id="path-effect1195"
   is_visible="true"
   lpeversion="1" /><inkscape:path-effect
   effect="spiro"
   id="path-effect992"
   is_visible="true"
   lpeversion="1" /><inkscape:path-effect
   effect="spiro"
   id="path-effect287"
   is_visible="true"
   lpeversion="1" /><inkscape:path-effect
   effect="spiro"
   id="path-effect1032"
   is_visible="true"
   lpeversion="1" /><inkscape:path-effect
   effect="spiro"
   id="path-effect1218"
   is_visible="true"
   lpeversion="1" /><inkscape:path-effect
   effect="spiro"
   id="path-effect309"
   is_visible="true"
   lpeversion="1" /><inkscape:path-effect
   effect="spiro"
   id="path-effect1176"
   is_visible="true"
   lpeversion="1" /><inkscape:path-effect
   effect="spiro"
   id="path-effect1026"
   is_visible="true"
   lpeversion="1" /></defs>
 
<path
   style="fill:#2d2d2d;fill-rule:nonzero;stroke:none;stroke-width:1px;stroke-linecap:butt;stroke-linejoin:miter;stroke-opacity:1"
   d="M 80.590255,677.19445 44.510028,581.91278 c -1.486211,-26.91678 6.326073,-54.25983 21.808114,-76.32856 15.482041,-22.06872 38.533888,-38.72064 64.349598,-46.4841 22.92171,-6.89316 47.77345,-6.81523 70.88594,-0.59164 23.1125,6.22358 44.46519,18.49172 62.07303,34.70541 35.2157,32.4274 54.57841,79.78905 58.70166,127.48265 3.43232,39.70158 -3.39687,80.9635 -23.85913,115.15841 -10.23113,17.09746 -23.78662,32.27157 -40.00841,43.84105 -16.22179,11.56947 -35.12467,19.48202 -54.85085,22.28861 -22.65727,3.22362 -46.07566,-0.3433 -67.25159,-9.02221 C 115.18245,784.2835 96.217441,770.60338 80.360406,754.10193 48.646336,721.09902 29.776768,677.71935 17.363088,633.66399 2.80336,581.99244 -3.7097696,528.33151 -6.276712,474.70926 -9.6288584,404.68446 -5.9289168,332.5491 21.669144,268.10489 39.317533,226.89415 66.609455,189.74563 101.19635,161.22306 c 34.58689,-28.52258 76.45649,-48.30244 120.60558,-56.09014 70.22509,-12.387385 144.17059,6.20089 204.1293,44.80095 70.41119,45.32913 121.75266,116.51727 153.08848,194.17377 36.08691,89.43066 47.0493,189.19685 28.85282,283.90163 -5.76296,29.99373 -14.59045,59.9005 -31.14838,85.56509 -16.55792,25.66459 -41.6373,46.86076 -71.38715,53.77323 -22.40533,5.20595 -46.37183,2.03015 -67.45483,-7.1681 -21.083,-9.19825 -39.3593,-24.19624 -54.00828,-41.93061 -29.29796,-35.46875 -43.85484,-80.60181 -55.88205,-125.00619 -15.17192,-56.01462 -27.38131,-113.00874 -32.34815,-170.82877 -6.42202,-74.76005 0.21146,-153.30889 37.44046,-218.45725 18.61451,-32.57418 44.79627,-61.14598 76.99457,-80.40334 32.19831,-19.25736 70.51673,-28.86054 107.79199,-24.602361 26.11049,2.982761 51.23659,12.610201 73.66165,26.313181 22.42505,13.70298 42.22956,31.41424 59.76732,50.98671 13.7996,15.40061 26.26202,31.99898 37.2012,49.54726 11.40206,-46.72333 42.22265,-88.38796 83.56343,-112.96471 28.56937,-16.984253 61.91569,-25.906434 95.14444,-25.182575 33.22874,0.723858 66.22731,11.127003 93.70949,29.819335 29.29465,19.92511 52.04636,49.06524 65.21776,81.95447 13.1713,32.88923 16.8437,69.3804 11.4995,104.40362 -7.7434,50.7464 -34.6872,98.3264 -74.22256,131.06951 57.79756,15.83663 106.90886,60.52566 128.11296,116.57692 21.8684,57.8073 13.503,125.82054 -20.5284,177.41291 -34.0315,51.59237 -92.54277,85.86946 -154.06489,91.78048 -58.25217,5.59684 -118.49343,-13.96269 -162.34704,-52.7119 l 73.13848,-119.55784 c 12.2015,25.55758 33.84053,46.47707 59.79598,57.80763 25.95544,11.33057 56.00812,12.97652 83.04573,4.54834 16.31572,-5.08595 31.62884,-13.83087 43.46454,-26.15912 11.8357,-12.32825 20.0549,-28.3262 22.0271,-45.30207 1.7923,-15.4279 -1.6135,-31.30967 -8.9475,-45.00072 -7.334,-13.69105 -18.4974,-25.20119 -31.57806,-33.57555 -26.16124,-16.74872 -59.09058,-20.58992 -89.77677,-15.76419 -16.38085,2.57606 -32.39337,7.48301 -47.40505,14.527 L 836.14906,401.10149 c 31.28006,4.98318 64.36865,-2.46967 90.49168,-20.38227 13.89332,-9.52667 25.89724,-21.98151 34.07793,-36.70762 8.18068,-14.72611 12.43546,-31.7553 11.19814,-48.55562 -1.03163,-14.00744 -5.86863,-27.68912 -13.69085,-39.35468 -7.82223,-11.66556 -18.59583,-21.30404 -30.95467,-27.97723 -24.71769,-13.34639 -55.42277,-14.25099 -81.52513,-3.87037 -29.42335,11.70134 -52.27849,36.57677 -66.56918,64.83328 -14.29069,28.25652 -20.75969,59.82289 -24.57161,91.25733 -7.15273,58.98392 -5.43548,118.92345 3.46902,177.66844 4.35512,28.73168 10.42157,57.20387 18.15651,85.21543 l -127.69419,7.52793 c 6.47852,-31.02416 11.48888,-62.35487 15.00868,-93.85219 6.66297,-59.62431 7.89072,-120.65736 -6.36149,-178.93539 -7.07073,-28.91257 -17.99514,-57.05657 -34.1495,-82.05594 -16.15436,-24.99937 -37.67827,-46.80035 -63.58597,-61.45378 -16.58416,-9.38002 -34.95235,-15.79342 -53.90125,-17.78302 -18.94889,-1.9896 -38.4772,0.53176 -55.9271,8.1816 -15.48046,6.78646 -29.10937,17.49216 -40.10447,30.32994 -10.9951,12.83777 -19.4059,27.77427 -25.58402,43.5074 -12.35623,31.46627 -15.7811,65.66835 -17.54258,99.42779 -3.54181,67.88015 -0.5118,137.66937 24.74315,200.776 6.92268,17.29826 15.77149,34.35279 29.62616,46.81079 6.92733,6.229 15.05984,11.2072 23.95876,13.96358 8.89892,2.75637 18.57767,3.23057 27.5635,0.77228 13.33762,-3.64883 24.34237,-13.50427 31.86061,-25.10953 7.51825,-11.60525 11.91729,-24.92816 15.65261,-38.24182 12.76667,-45.5038 18.64565,-93.80427 9.40351,-140.15259 -12.13303,-60.84582 -49.63994,-114.29665 -95.41887,-156.17401 -23.77048,-21.74461 -50.16685,-40.99152 -79.64661,-53.98411 -29.47975,-12.9926 -62.22615,-19.53349 -94.20217,-15.60953 -27.19529,3.33729 -53.13015,14.11941 -76.27933,28.77672 -61.76505,39.10763 -103.837837,106.40146 -116.322905,178.43237 -9.441083,54.46904 -2.879642,110.5518 9.002465,164.54093 7.129885,32.3963 16.671564,65.38544 37.55844,91.15546 10.44344,12.88501 23.67826,23.70347 38.97287,30.11936 15.29462,6.41589 32.70026,8.24775 48.69051,3.84312 12.34171,-3.39962 23.62548,-10.45722 32.22098,-19.94367 8.59549,-9.48645 14.49416,-21.35853 17.04496,-33.9032 2.55079,-12.54467 1.76766,-25.72852 -2.07264,-37.94029 -3.84031,-12.21177 -10.71351,-23.43459 -19.71365,-32.53803 -15.36676,-15.54313 -36.98107,-24.65744 -58.83404,-25.07468 -21.85296,-0.41725 -43.70931,7.80523 -60.04612,22.32538 -21.154072,18.80174 -32.507893,48.0793 -29.560945,76.2274 z"
   id="path857"
   inkscape:path-effect="#path-effect860"
   inkscape:original-d="M 80.590255,677.19445 44.510028,581.91278 c -11.115,4.21229 36.568184,-116.36622 86.157712,-122.81266 82.86723,-10.77241 179.56491,78.91199 191.66063,161.59642 C 332.784,692.16956 275.2522,792.7593 203.60998,801.98461 120.61613,812.67166 56.875688,707.42677 17.363088,633.66399 -7.9311289,586.44433 -5.9233949,528.27575 -6.276712,474.70926 -6.7350831,405.2155 -12.312398,328.72541 21.669144,268.10489 63.73658,193.05974 138.10859,125.05447 221.80193,105.13292 c 67.7692,-16.131119 145.09271,7.82044 204.1293,44.80095 69.8492,43.75353 122.17581,117.769 153.08848,194.17377 35.67588,88.17767 53.90905,192.13969 28.85282,283.90163 C 592.68244,683.63905 562.81844,762.73293 505.337,767.34759 422.76158,773.97682 367.04338,666.30174 327.99184,593.24269 300.67176,542.13128 283.70927,479.12664 295.64369,422.41392 322.58193,294.40259 390.26237,127.73779 517.87071,98.950969 c 50.141,-11.311174 94.98697,43.178421 133.42897,77.299891 15.44594,13.70996 37.2012,49.54726 37.2012,49.54726 0,0 41.48436,-92.39495 83.56343,-112.96471 56.5727,-27.654771 136.96817,-31.044107 188.85393,4.63676 55.35206,38.06459 80.90426,119.31159 76.71726,186.35809 -3.1294,50.11106 -74.22256,131.06951 -74.22256,131.06951 0,0 120.71026,59.31543 128.11296,116.57692 13.7125,106.06895 -73.7904,233.4522 -174.59329,269.19339 -53.62565,19.01379 -162.34704,-52.7119 -162.34704,-52.7119 l 73.13848,-119.55784 c 0,0 92.0158,73.11889 142.84171,62.35597 31.60974,-6.69371 68.75424,-39.3156 65.49164,-71.46119 -5.4147,-53.34889 -77.40457,-85.55121 -130.30233,-94.34046 -16.30347,-2.7089 -47.40505,14.527 -47.40505,14.527 L 836.14906,401.10149 c 0,0 65.91634,-1.61867 90.49168,-20.38227 25.57683,-19.52825 54.30607,-54.37658 45.27607,-85.26324 -13.55126,-46.3514 -79.55534,-83.81585 -126.17065,-71.20228 -58.1588,15.7371 -75.97289,97.78077 -91.14079,156.09061 -14.91206,57.32634 -3.3117,118.82372 3.46902,177.66844 3.32462,28.85183 18.15651,85.21543 18.15651,85.21543 l -127.69419,7.52793 c 0,0 13.06088,-62.23056 15.00868,-93.85219 3.66933,-59.56991 12.22631,-122.22091 -6.36149,-178.93539 -18.02525,-54.99805 -47.80079,-114.24842 -97.73547,-143.50972 -31.70633,-18.57965 -77.8983,-27.79392 -109.82835,-9.60142 -55.67093,31.71914 -72.85864,110.03721 -83.23107,173.26513 -10.91613,66.54219 -8.89478,142.3336 24.74315,200.776 16.93549,29.42364 47.52743,66.25739 81.14842,61.54665 26.14099,-3.66269 38.33201,-38.60318 47.51322,-63.35135 16.28588,-43.899 20.56651,-94.68018 9.40351,-140.15259 -14.54437,-59.24641 -48.8206,-116.80045 -95.41887,-156.17401 -47.67893,-40.28667 -111.43159,-68.96854 -173.84878,-69.59364 -27.17427,-0.27214 -55.0956,11.75424 -76.27933,28.77672 -55.3454,44.47359 -97.965105,109.84662 -116.322905,178.43237 -14.202454,53.06115 -13.407229,114.39114 9.002465,164.54093 24.07287,53.87174 68.58211,141.65912 125.22182,125.11794 40.74017,-11.89785 53.6712,-90.92874 27.47965,-124.32519 -24.46076,-31.18955 -85.91888,-24.76455 -118.88016,-2.7493 -22.662712,15.13671 -29.560945,76.2274 -29.560945,76.2274 z"
   sodipodi:nodetypes="ccaaaaaaaaaaaaaaacaaacaaccaaaccaaaaaccaaaaaaaaaaaaaaaaac" /></svg>
