<?xml version="1.0" encoding="UTF-8" standalone="no"?>
<svg
   xmlns:dc="http://purl.org/dc/elements/1.1/"
   xmlns:cc="http://creativecommons.org/ns#"
   xmlns:rdf="http://www.w3.org/1999/02/22-rdf-syntax-ns#"
   xmlns:svg="http://www.w3.org/2000/svg"
   xmlns="http://www.w3.org/2000/svg"
   xmlns:sodipodi="http://sodipodi.sourceforge.net/DTD/sodipodi-0.dtd"
   xmlns:inkscape="http://www.inkscape.org/namespaces/inkscape"
   xml:space="preserve"
   width="1000"
   height="1000"
   version="1.1"
   style="clip-rule:evenodd;fill-rule:evenodd;image-rendering:optimizeQuality;shape-rendering:geometricPrecision;text-rendering:geometricPrecision"
   viewBox="0 0 1000 1000"
   id="svg10"
   sodipodi:docname="ങ്ങ.svg"
   inkscape:version="1.0.1 (3bc2e813f5, 2020-09-07)"><metadata
   id="metadata14"><rdf:RDF><cc:Work
       rdf:about=""><dc:format>image/svg+xml</dc:format><dc:type
         rdf:resource="http://purl.org/dc/dcmitype/StillImage" /><dc:title /></cc:Work></rdf:RDF></metadata><sodipodi:namedview
   pagecolor="#ffffff"
   bordercolor="#666666"
   borderopacity="1"
   objecttolerance="10"
   gridtolerance="10"
   guidetolerance="10"
   inkscape:pageopacity="0"
   inkscape:pageshadow="2"
   inkscape:window-width="1920"
   inkscape:window-height="1015"
   id="namedview12"
   showgrid="false"
   inkscape:zoom="0.678"
   inkscape:cx="781.10708"
   inkscape:cy="602.54955"
   inkscape:window-x="1920"
   inkscape:window-y="0"
   inkscape:window-maximized="1"
   inkscape:current-layer="svg10"
   showguides="true"
   inkscape:guide-bbox="true"
   inkscape:document-rotation="0"
   inkscape:snap-to-guides="true"><sodipodi:guide
     position="0,1000"
     orientation="0,1"
     id="guide16"
     inkscape:label=""
     inkscape:locked="true"
     inkscape:color="rgb(0,0,255)" /><sodipodi:guide
     position="1763.3122,2036.1693"
     orientation="1000,0"
     id="guide18" /><sodipodi:guide
     position="0,200"
     orientation="0,1"
     id="guide20"
     inkscape:label="base"
     inkscape:locked="true"
     inkscape:color="rgb(0,0,255)" /><inkscape:grid
     type="xygrid"
     id="grid24"
     originx="-473.37552"
     originy="-489.69235" /><sodipodi:guide
     position="0,0"
     orientation="0,1"
     id="guide34"
     inkscape:label="bottom"
     inkscape:locked="true"
     inkscape:color="rgb(0,0,255)" /><sodipodi:guide
     position="225.05109,1693.3186"
     orientation="0,1"
     id="guide44"
     inkscape:label=""
     inkscape:locked="false"
     inkscape:color="rgb(0,0,255)" /><sodipodi:guide
     position="0,900"
     orientation="0,1"
     id="guide46"
     inkscape:label=""
     inkscape:locked="true"
     inkscape:color="rgb(0,0,255)" /><sodipodi:guide
     position="1099.1535,900"
     orientation="-1,0"
     id="guide841"
     inkscape:label="width"
     inkscape:locked="false"
     inkscape:color="rgb(0,0,255)" /><sodipodi:guide
     position="0,1000"
     orientation="0,1000"
     id="guide860" /><sodipodi:guide
     position="1000,1000"
     orientation="1000,0"
     id="guide862" /><sodipodi:guide
     position="1000,0"
     orientation="0,-1000"
     id="guide864" /><sodipodi:guide
     position="0,0"
     orientation="-1000,0"
     id="guide866" /><sodipodi:guide
     position="694.69027,352.50737"
     orientation="0,-1"
     id="guide35" /><sodipodi:guide
     position="836.14906,598.89851"
     orientation="0,-1"
     id="guide37" /></sodipodi:namedview>
 <defs
   id="defs4"><inkscape:path-effect
   effect="spiro"
   id="path-effect860"
   is_visible="true"
   lpeversion="1" /><inkscape:path-effect
   effect="spiro"
   id="path-effect859"
   is_visible="true"
   lpeversion="1" /><inkscape:path-effect
   effect="spiro"
   id="path-effect862"
   is_visible="true"
   lpeversion="1" /><inkscape:path-effect
   effect="spiro"
   id="path-effect1521"
   is_visible="true"
   lpeversion="1" /><inkscape:path-effect
   effect="spiro"
   id="path-effect858"
   is_visible="true"
   lpeversion="1" /><inkscape:path-effect
   effect="spiro"
   id="path-effect854"
   is_visible="true"
   lpeversion="1" />
  <style
   type="text/css"
   id="style2">
   <![CDATA[
    .fil0 {fill:#EF7F1A;fill-rule:nonzero}
   ]]>
  </style>
 <inkscape:path-effect
   effect="spiro"
   id="path-effect1214"
   is_visible="true"
   lpeversion="1" /><inkscape:path-effect
   effect="spiro"
   id="path-effect1195"
   is_visible="true"
   lpeversion="1" /><inkscape:path-effect
   effect="spiro"
   id="path-effect992"
   is_visible="true"
   lpeversion="1" /><inkscape:path-effect
   effect="spiro"
   id="path-effect287"
   is_visible="true"
   lpeversion="1" /><inkscape:path-effect
   effect="spiro"
   id="path-effect1032"
   is_visible="true"
   lpeversion="1" /><inkscape:path-effect
   effect="spiro"
   id="path-effect1218"
   is_visible="true"
   lpeversion="1" /><inkscape:path-effect
   effect="spiro"
   id="path-effect309"
   is_visible="true"
   lpeversion="1" /><inkscape:path-effect
   effect="spiro"
   id="path-effect1176"
   is_visible="true"
   lpeversion="1" /><inkscape:path-effect
   effect="spiro"
   id="path-effect1026"
   is_visible="true"
   lpeversion="1" /></defs>
 
<path
   style="fill:#2d2d2d;fill-rule:nonzero;stroke:none;stroke-width:1px;stroke-linecap:butt;stroke-linejoin:miter;stroke-opacity:1"
   d="m 57.476475,534.29256 2.599498,-150.87875 c 36.754994,17.94425 73.050637,36.82937 108.839387,56.63065 37.53027,20.76483 74.81147,42.76121 106.51296,71.65264 31.7015,28.89142 57.77466,65.39237 67.88714,107.07494 9.19042,37.88193 4.34707,79.40065 -15.28817,113.075 -19.63524,33.67435 -54.31521,58.70913 -92.84899,64.59579 -22.18574,3.38923 -45.15828,0.5689 -66.24756,-7.10809 -21.08928,-7.677 -40.31312,-20.12412 -56.69321,-35.46643 C 79.477354,723.18369 58.552046,681.67462 45.188278,638.82389 29.190182,587.52623 23.204859,533.57805 21.548478,479.86916 19.392191,409.95059 24.696289,338.67361 49.494334,273.26479 64.284541,234.25325 86.066362,197.61717 115.28786,167.83875 c 29.2215,-29.77842 66.05706,-52.51365 106.51407,-62.70583 65.5701,-16.51882 136.24742,0.961 194.68884,34.97436 76.93678,44.7778 136.81502,118.77646 162.52894,204.00036 17.87601,59.24664 19.35236,123.38447 3.98037,183.3296 -6.4927,25.31914 -16.07297,50.15024 -31.2464,71.43359 -15.17342,21.28335 -36.29747,38.89223 -61.19295,46.85647 -29.90619,9.56721 -63.43727,4.42409 -91.07552,-10.47688 -27.63825,-14.90097 -49.67002,-38.9 -65.66892,-65.91753 -30.44703,-51.41626 -39.7176,-113.23811 -36.10965,-172.88403 2.80849,-46.4294 13.15907,-92.65855 33.08183,-134.69021 19.92276,-42.03166 49.63024,-79.77009 87.53658,-106.72721 33.77763,-24.02098 74.91543,-39.35744 116.27938,-36.71943 44.33296,2.82736 85.66811,26.14699 116.69525,57.93885 14.46513,14.82165 27.00368,31.5214 37.2012,49.54726 12.54975,-49.07622 48.09431,-91.74968 94.09316,-112.96471 26.84111,-12.37933 56.89212,-17.635159 86.36397,-15.376254 29.47186,2.258904 58.30744,12.000334 83.26083,27.843994 29.33598,18.6263 53.22926,45.6871 68.18996,77.05134 14.9607,31.36424 20.9557,66.92678 17.2267,101.47577 -5.5402,51.32924 -33.0541,99.91599 -74.22256,131.06951 29.71193,6.01108 57.72576,20.20424 80.14656,40.60617 22.4208,20.40192 39.1866,46.95614 47.9664,75.97075 8.303,27.43897 9.4682,56.93616 3.9027,85.05844 -5.5654,28.12229 -17.8046,54.83832 -35.021,77.76063 -34.4328,45.84461 -88.45548,75.45219 -145.14544,84.03104 -54.92723,8.31209 -112.57199,-2.58303 -160.67659,-30.36862 l 73.13848,-119.55784 c 30.06362,33.7353 77.20275,51.40485 122.03394,45.74297 19.17899,-2.42218 38.10596,-9.01919 53.34101,-20.91846 15.2351,-11.89927 26.5025,-29.39205 28.8944,-48.57484 1.6697,-13.39037 -1.0004,-27.18984 -6.9212,-39.31558 -5.9208,-12.12574 -15.0128,-22.59402 -25.77432,-30.73526 -21.523,-16.28247 -49.0313,-22.99627 -75.99997,-24.02085 -23.10194,-0.87768 -46.34737,2.14876 -68.45444,8.91244 L 836.14906,401.10149 c 31.28134,4.94107 64.34943,-2.50716 90.49168,-20.38227 13.91243,-9.51281 25.94633,-21.95235 34.13961,-36.68054 8.19327,-14.72819 12.43954,-31.77939 11.13646,-48.5827 -1.08256,-13.9596 -5.98041,-27.57403 -13.83853,-39.16249 -7.85811,-11.58847 -18.6407,-21.14213 -30.97713,-27.76444 -24.67286,-13.24462 -55.17881,-14.22408 -81.35499,-4.27535 -32.07676,12.19135 -56.80176,39.508 -71.62158,70.45829 -14.81982,30.95028 -20.65557,65.43661 -23.51921,99.63232 -4.57001,54.572 -1.9594,109.72316 7.46902,163.66844 5.27989,30.20923 12.6898,60.04599 22.15651,89.21543 l -131.69419,3.52793 c 6.80929,-30.9593 11.82338,-62.31335 15.00868,-93.85219 5.53886,-54.84227 5.52478,-110.3812 -2.36149,-164.93539 -4.72438,-32.68147 -12.45277,-65.45027 -28.60579,-94.25092 -16.15303,-28.80066 -41.59112,-53.47527 -73.12968,-63.2588 -28.04125,-8.69863 -58.98376,-5.02013 -86.07145,6.30395 -30.82466,12.88634 -57.35566,35.47015 -75.85641,63.28991 -18.50076,27.81977 -29.0257,60.72644 -31.13156,94.06985 -2.29005,36.25973 5.23222,72.78604 19.20089,106.3254 6.73383,16.1682 15.21961,32.06421 28.20649,43.81563 6.49344,5.87571 14.07161,10.62941 22.37786,13.40341 8.30624,2.77399 17.35381,3.51963 25.90104,1.61344 12.08651,-2.69552 22.58704,-10.54722 30.31068,-20.22683 7.72363,-9.67962 12.91266,-21.12871 17.20254,-32.74535 11.60742,-31.43195 17.15443,-65.70022 11.35267,-98.70081 -7.14867,-40.66187 -30.95341,-76.71036 -59.32675,-106.7011 -25.96973,-27.45011 -56.46087,-51.03992 -91.02501,-66.31263 -34.56415,-15.2727 -73.35872,-21.95065 -110.65976,-15.90349 -34.03986,5.51847 -66.23066,21.65368 -91.26481,45.36986 -23.4999,22.26271 -40.5286,50.76998 -52.03237,81.02782 -11.50377,30.25783 -17.672862,62.30847 -21.479865,94.4547 -4.662939,39.37374 -5.84134,79.37985 0.02192,118.59282 5.863264,39.21296 18.965334,77.70099 41.207464,110.52358 12.8831,19.01153 29.55501,36.55029 51.07717,44.56335 10.76108,4.00652 22.57323,5.46958 33.86301,3.37343 11.28979,-2.09615 21.99982,-7.87217 29.33997,-16.70253 5.98127,-7.19559 9.59786,-16.22277 10.83287,-25.49784 1.23502,-9.27507 0.14714,-18.78561 -2.57472,-27.7379 -5.4437,-17.9046 -17.14032,-33.24145 -29.88894,-46.94113 -25.58975,-27.49877 -56.9086,-50.38895 -92.59975,-62.10045 -25.32622,-8.31041 -52.532486,-10.83388 -78.955135,-7.32334 z"
   id="path857"
   inkscape:path-effect="#path-effect860"
   inkscape:original-d="m 57.476475,534.29256 2.599498,-150.87875 c -11.115,4.21229 76.004617,32.24953 108.839387,56.63065 66.82995,49.62388 164.99764,96.02108 174.4001,178.72758 7.83139,68.88685 -39.75682,166.2315 -108.13716,177.67079 C 154.01939,810.01984 85.570231,710.52049 45.188278,638.82389 18.900115,592.15027 21.901795,533.43565 21.548478,479.86916 21.090106,410.3754 18.265556,335.34825 49.494334,273.26479 85.55519,201.57505 145.08322,128.67104 221.80193,105.13292 c 63.035,-19.339806 138.06485,1.19325 194.68884,34.97436 74.66523,44.54427 132.94356,122.24588 162.52894,204.00036 20.79965,57.47652 23.25522,125.32394 3.98037,183.3296 -15.7801,47.48856 -43.68116,107.0289 -92.43935,118.29006 -56.63253,13.07981 -121.0346,-30.53449 -156.74444,-76.39441 -36.16954,-46.4503 -43.66676,-114.49947 -36.10965,-172.88403 11.54748,-89.21327 52.20271,-183.00813 120.61841,-241.41742 30.91299,-26.39169 75.75487,-39.86568 116.27938,-36.71943 43.29868,3.36163 83.30625,30.16743 116.69525,57.93885 15.87829,13.20682 37.2012,49.54726 37.2012,49.54726 0,0 48.98328,-93.81491 94.09316,-112.96471 52.18648,-22.15391 122.79961,-19.495146 169.6248,12.46774 54.48606,37.19221 87.69206,112.59673 85.41666,178.52711 -1.7318,50.17881 -74.22256,131.06951 -74.22256,131.06951 0,0 121.99226,59.16424 128.11296,116.57692 10.7181,100.53743 -82.4424,209.16435 -176.26374,246.85011 -50.5793,20.31649 -160.67659,-30.36862 -160.67659,-30.36862 l 73.13848,-119.55784 c 0,0 79.22939,53.15648 122.03394,45.74297 35.36225,-6.12454 82.02391,-33.60522 82.23541,-69.4933 0.2824,-47.91599 -62.80653,-80.27946 -108.69549,-94.07169 -22.0369,-6.62333 -68.45444,8.91244 -68.45444,8.91244 L 836.14906,401.10149 c 0,0 65.91634,-1.61867 90.49168,-20.38227 25.57683,-19.52825 54.30607,-54.37658 45.27607,-85.26324 -13.55126,-46.3514 -79.67401,-84.24646 -126.17065,-71.20228 -62.54896,17.5475 -80.19163,106.87028 -95.14079,170.09061 -12.56728,53.1473 -0.39584,109.6248 7.46902,163.66844 4.41276,30.32244 22.15651,89.21543 22.15651,89.21543 l -131.69419,3.52793 c 0,0 12.72549,-62.253 15.00868,-93.85219 3.96253,-54.84113 13.5668,-112.30897 -2.36149,-164.93539 -18.10638,-59.82274 -45.78804,-129.6442 -101.73547,-157.50972 -25.75017,-12.82529 -61.15537,-8.07479 -86.07145,6.30395 -54.93692,31.70338 -93.81396,95.3145 -106.98797,157.35976 -7.48028,35.22968 0.47183,75.56329 19.20089,106.3254 16.72688,27.47358 44.45643,61.78741 76.48539,58.83248 23.61926,-2.17906 37.78025,-31.34149 47.51322,-52.97218 13.58915,-30.20071 17.81721,-66.2207 11.35267,-98.70081 -7.94376,-39.91221 -28.87236,-79.70818 -59.32675,-106.7011 -54.3303,-48.15508 -129.13527,-84.91122 -201.68477,-82.21612 -33.94992,1.26118 -68.03084,20.58337 -91.26481,45.36986 -43.37178,46.26994 -66.59236,112.44179 -73.512235,175.48252 -8.467033,77.1355 -11.15307,171.86559 41.229385,229.1164 26.65778,29.13531 85.61058,58.3923 114.28015,31.23425 24.80101,-23.49345 -2.4444,-71.91178 -21.63079,-100.17687 -20.87309,-30.7499 -57.58229,-49.64978 -92.59975,-62.10045 -24.904,-8.85477 -78.955135,-7.32334 -78.955135,-7.32334 z"
   sodipodi:nodetypes="ccaaaaaaaaaaaaaaaacaaacaaccaaaccaaaaaccaaaaaaaaaaaaaaaaac" /></svg>
