<?xml version="1.0" encoding="UTF-8" standalone="no"?>
<svg
   xmlns:dc="http://purl.org/dc/elements/1.1/"
   xmlns:cc="http://creativecommons.org/ns#"
   xmlns:rdf="http://www.w3.org/1999/02/22-rdf-syntax-ns#"
   xmlns:svg="http://www.w3.org/2000/svg"
   xmlns="http://www.w3.org/2000/svg"
   xmlns:sodipodi="http://sodipodi.sourceforge.net/DTD/sodipodi-0.dtd"
   xmlns:inkscape="http://www.inkscape.org/namespaces/inkscape"
   xml:space="preserve"
   width="1000"
   height="1000"
   version="1.1"
   style="clip-rule:evenodd;fill-rule:evenodd;image-rendering:optimizeQuality;shape-rendering:geometricPrecision;text-rendering:geometricPrecision"
   viewBox="0 0 1000 1000"
   id="svg10"
   sodipodi:docname="ങ്ക്ര.svg"
   inkscape:version="1.0.1 (3bc2e813f5, 2020-09-07)"><metadata
   id="metadata14"><rdf:RDF><cc:Work
       rdf:about=""><dc:format>image/svg+xml</dc:format><dc:type
         rdf:resource="http://purl.org/dc/dcmitype/StillImage" /><dc:title /></cc:Work></rdf:RDF></metadata><sodipodi:namedview
   pagecolor="#ffffff"
   bordercolor="#666666"
   borderopacity="1"
   objecttolerance="10"
   gridtolerance="10"
   guidetolerance="10"
   inkscape:pageopacity="0"
   inkscape:pageshadow="2"
   inkscape:window-width="1920"
   inkscape:window-height="1015"
   id="namedview12"
   showgrid="false"
   inkscape:zoom="0.9588368"
   inkscape:cx="462.30405"
   inkscape:cy="505.33877"
   inkscape:window-x="1920"
   inkscape:window-y="0"
   inkscape:window-maximized="1"
   inkscape:current-layer="svg10"
   showguides="true"
   inkscape:guide-bbox="true"
   inkscape:document-rotation="0"
   inkscape:snap-to-guides="true"><sodipodi:guide
     position="0,1000"
     orientation="0,1"
     id="guide16"
     inkscape:label=""
     inkscape:locked="true"
     inkscape:color="rgb(0,0,255)" /><sodipodi:guide
     position="1763.3122,2036.1693"
     orientation="1000,0"
     id="guide18" /><sodipodi:guide
     position="0,200"
     orientation="0,1"
     id="guide20"
     inkscape:label="base"
     inkscape:locked="true"
     inkscape:color="rgb(0,0,255)" /><inkscape:grid
     type="xygrid"
     id="grid24"
     originx="-473.37552"
     originy="-489.69235" /><sodipodi:guide
     position="0,0"
     orientation="0,1"
     id="guide34"
     inkscape:label="bottom"
     inkscape:locked="true"
     inkscape:color="rgb(0,0,255)" /><sodipodi:guide
     position="225.05109,1693.3186"
     orientation="0,1"
     id="guide44"
     inkscape:label=""
     inkscape:locked="false"
     inkscape:color="rgb(0,0,255)" /><sodipodi:guide
     position="0,900"
     orientation="0,1"
     id="guide46"
     inkscape:label=""
     inkscape:locked="true"
     inkscape:color="rgb(0,0,255)" /><sodipodi:guide
     position="888.61231,538.83878"
     orientation="-1,0"
     id="guide841"
     inkscape:label="width"
     inkscape:locked="false"
     inkscape:color="rgb(0,0,255)" /><sodipodi:guide
     position="0,1000"
     orientation="0,1000"
     id="guide860" /><sodipodi:guide
     position="1000,1000"
     orientation="1000,0"
     id="guide862" /><sodipodi:guide
     position="1000,0"
     orientation="0,-1000"
     id="guide864" /><sodipodi:guide
     position="1.142742,802.93787"
     orientation="-1000,0"
     id="guide866" /></sodipodi:namedview>
 <defs
   id="defs4"><inkscape:path-effect
   effect="spiro"
   id="path-effect1521"
   is_visible="true"
   lpeversion="1" /><inkscape:path-effect
   effect="spiro"
   id="path-effect858"
   is_visible="true"
   lpeversion="1" /><inkscape:path-effect
   effect="spiro"
   id="path-effect854"
   is_visible="true"
   lpeversion="1" />
  <style
   type="text/css"
   id="style2">
   <![CDATA[
    .fil0 {fill:#EF7F1A;fill-rule:nonzero}
   ]]>
  </style>
 <inkscape:path-effect
   effect="spiro"
   id="path-effect1214"
   is_visible="true"
   lpeversion="1" /><inkscape:path-effect
   effect="spiro"
   id="path-effect1195"
   is_visible="true"
   lpeversion="1" /><inkscape:path-effect
   effect="spiro"
   id="path-effect992"
   is_visible="true"
   lpeversion="1" /><inkscape:path-effect
   effect="spiro"
   id="path-effect287"
   is_visible="true"
   lpeversion="1" /><inkscape:path-effect
   effect="spiro"
   id="path-effect1032"
   is_visible="true"
   lpeversion="1" /><inkscape:path-effect
   effect="spiro"
   id="path-effect1218"
   is_visible="true"
   lpeversion="1" /><inkscape:path-effect
   effect="spiro"
   id="path-effect309"
   is_visible="true"
   lpeversion="1" /><inkscape:path-effect
   effect="spiro"
   id="path-effect1176"
   is_visible="true"
   lpeversion="1" /></defs>
 
<path
   id="path1164-3-3-2-0"
   style="display:inline;fill:#1a1a1a;fill-rule:nonzero;stroke:none;stroke-width:2.83729;stroke-linecap:butt;stroke-linejoin:miter;stroke-miterlimit:4;stroke-dasharray:none;stroke-opacity:1"
   d="m 242.0211,495.20093 c -0.15237,-30.2745 -3.03802,-60.53472 -8.61039,-90.29237 -9.98679,-53.33164 -28.6434,-105.66111 -28.33886,-159.9189 0.15227,-27.12889 5.25976,-54.59639 17.93354,-78.58337 12.67379,-23.98698 33.36322,-44.26818 58.87078,-53.50748 15.92856,-5.76962 33.34597,-7.13059 50.08852,-4.54314 16.74254,2.58744 32.80274,9.06556 47.02121,18.27657 28.40792,18.40322 48.74796,46.91799 65.23104,76.48142 8.48537,15.21904 16.14036,30.90101 22.91957,46.95289 0.94007,-24.99585 7.49394,-49.76477 19.0392,-71.95448 15.54098,-29.86938 40.77823,-55.2958 72.10226,-67.64518 25.55761,-10.07599 54.48207,-11.096917 80.86339,-3.4325 26.38132,7.66441 50.11174,23.87883 67.3247,45.28984 22.67421,28.2042 33.60431,64.09264 39.79438,99.74765 9.13669,52.62764 8.99912,106.59864 2.98874,159.67428 -8.68938,76.73306 -29.85367,152.52626 -66.88503,220.29164 -19.75217,36.14539 -44.08004,70.03602 -74.08567,98.2548 -30.00563,28.21877 -65.84439,50.667 -105.26024,62.62642 -45.18469,13.70978 -93.37871,13.33422 -140.49465,10.21932 -35.04972,-2.31719 -71.26856,-6.48447 -101.47345,-24.41536 -23.18596,-13.76416 -41.53279,-35.22519 -52.48735,-59.86333 -10.34511,-23.2674 -14.19947,-49.24495 -12.08055,-74.6202 2.11893,-25.37525 10.12116,-50.13343 22.35152,-72.46752 24.89287,-45.45736 66.65956,-80.05088 112.88099,-103.49456 46.22143,-23.44368 96.96914,-36.52744 147.78782,-46.70037 55.11118,-11.03221 111.3286,-18.86782 167.42559,-15.39221 56.09698,3.47561 112.39616,18.82137 158.56123,50.87972 24.56365,17.0577 46.14384,38.89938 60.62172,65.06671 13.35858,24.14431 20.41808,51.56296 21.76804,79.12339 1.34997,27.56042 -2.91706,55.25992 -11.16913,81.59056 -14.29612,45.61596 -40.50132,87.10932 -73.58071,121.61945 -78.25079,81.63527 -192.47262,122.18944 -305.38273,128.41927 -65.28152,3.60192 -131.43236,-3.4588 -193.53447,-23.90333 C 242.11,888.53603 184.14059,854.4847 138.29881,807.8673 67.523976,735.89498 28.725783,637.56623 10.597915,538.26632 -10.807786,421.01126 -5.5394223,299.0714 24.96524,183.84806 32.484444,155.44624 41.513814,127.4443 52.002474,100 H 184.74077 c -19.95967,26.79946 -37.52168,55.38396 -52.40775,85.30059 -52.207275,104.92126 -70.423527,226.43184 -51.252173,342.04555 15.905509,95.91889 59.626773,190.50119 136.396223,250.16584 77.11365,59.93216 179.99658,78.82958 277.34887,71.02506 83.29324,-6.67744 166.44386,-32.33044 233.01493,-82.83433 33.23705,-25.21516 62.70568,-57.55751 75.87856,-97.14262 6.58643,-19.79255 8.9021,-41.14512 5.47424,-61.72122 -3.42787,-20.57611 -12.74208,-40.31487 -27.34451,-55.21103 -19.01738,-19.39992 -45.47711,-29.51726 -71.66409,-36.74634 -34.27353,-9.46142 -69.57774,-14.94353 -105.03436,-17.59335 -56.60674,-4.23046 -114.36921,-1.13969 -168.52132,15.88291 -54.15211,17.02261 -104.64179,48.72037 -138.33577,94.40337 -6.60713,8.95809 -12.60078,18.51472 -16.20795,29.04515 -3.60716,10.53042 -4.70771,22.15646 -1.52794,32.82373 2.95389,9.90952 9.46194,18.52074 17.40882,25.13672 7.94688,6.61598 17.29716,11.35745 26.91109,15.16487 52.04061,20.60973 111.5246,14.24552 164.19202,-4.70516 38.63466,-13.90144 75.42838,-34.76343 103.26444,-64.94688 28.08539,-30.45381 45.98399,-69.26501 56.24031,-109.40266 10.25632,-40.13766 13.22776,-81.77303 14.34781,-123.18522 0.85104,-31.46593 0.42394,-64.09228 -12.68055,-92.71223 -6.55225,-14.30997 -16.31199,-27.33826 -29.11563,-36.49108 -12.80363,-9.15282 -28.75739,-14.22788 -44.42486,-12.73195 -10.89306,1.04007 -21.39303,5.19529 -30.42013,11.38009 -9.02711,6.18481 -16.60979,14.35651 -22.64888,23.48175 -12.07816,18.25048 -17.89677,39.91777 -21.67804,61.47384 -8.50168,48.4659 -7.59097,98.41008 0.93966,146.8709 7.12507,40.47612 19.54239,80.01746 36.83625,117.30024 L 413.29342,606.96707 c 6.38,-18.45127 11.4318,-37.36166 15.10338,-56.53647 6.43408,-33.60198 8.61407,-68.02393 6.35004,-102.16136 -1.94954,-29.39549 -7.16659,-58.46208 -12.15876,-87.49609 -4.58902,-26.68931 -9.1181,-53.80982 -20.7368,-78.27171 -7.49693,-15.78395 -18.14741,-30.45946 -32.65342,-40.20178 -7.25301,-4.87116 -15.414,-8.44984 -23.98963,-10.12106 -8.57562,-1.67121 -17.56626,-1.40516 -25.92885,1.12493 -10.70604,3.23909 -20.1688,10.15975 -26.97753,19.034 -6.80872,8.87425 -11.00849,19.63346 -12.60926,30.70363 -2.08973,14.45158 0.18822,29.3503 5.35001,43.0094 5.16179,13.65911 13.13261,26.13488 22.4064,37.41371 16.30619,19.83167 36.80953,36.19553 59.76354,47.69771 z"
   sodipodi:nodetypes="caaaacaaaaaaaaaaaaaaaaaaasccsaaaaaaaaaaaaaaaaccaaaaaaacc"
   inkscape:path-effect="#path-effect1521"
   inkscape:original-d="m 242.0211,495.20093 c 0,0 -9.65929,-60.07657 -8.61039,-90.29237 3.42305,-98.60873 -31.09121,-233.64765 48.46546,-292.00975 26.35975,-19.337294 68.45994,-2.01322 97.10973,13.73343 29.36405,16.13922 46.86432,48.45669 65.23104,76.48142 9.54655,14.56652 17.91823,41.71132 22.91957,46.95289 5.84843,-22.04444 6.32643,-50.64875 19.0392,-71.95448 16.8864,-28.30047 40.08436,-59.83996 72.10226,-67.64518 49.86835,-12.15674 110.05041,7.50394 148.18809,41.85734 26.59789,23.95866 32.71203,64.65769 39.79438,99.74765 10.53207,52.18183 10.31331,106.94651 2.98874,159.67428 -10.55887,76.01068 -25.6547,155.56782 -66.88503,220.29164 -43.14824,67.7346 -105.43461,129.46679 -179.34591,160.88122 -43.21395,18.36717 -93.69621,14.05387 -140.49465,10.21932 -34.6736,-2.84107 -71.69741,-6.42322 -101.47345,-24.41536 C 238.3364,764.99823 217.03828,744.00817 208.56279,718.85965 192.86629,672.2849 192.77285,613.44227 218.83376,571.77193 272.00752,486.74925 381.36528,442.20168 479.50257,421.577 c 106.96751,-22.48046 228.26832,-13.48711 325.98682,35.48751 26.50148,13.28203 48.86126,37.85582 60.62172,65.06671 21.29946,49.28185 23.31472,108.55385 10.59891,160.71395 -11.2223,46.03375 -37.72187,90.64867 -73.58071,121.61945 C 719.55651,876.64527 608.1197,929.38643 497.74658,932.88389 370.95429,936.90163 232.69516,892.61254 138.29881,807.8673 64.304355,741.43806 30.44315,635.70445 10.597915,538.26632 -12.998872,422.40844 69.23071,254.25737 24.96524,183.84806 1.79334,146.9905 68.019996,100 52.002474,100 H 184.74077 c 12.81232,-7.295231 -75.91455,44.62305 -52.40775,85.30059 38.08946,65.91223 -71.349433,228.52275 -51.252173,342.04555 16.556722,93.52347 61.432353,191.84619 136.396223,250.16584 75.32315,58.59916 182.01442,75.35902 277.34887,71.02506 82.34841,-3.74361 177.54164,-21.85901 233.01493,-82.83433 49.52494,-54.43698 84.34816,-147.02566 54.00829,-214.07487 -11.06722,-24.45787 -46.18057,-28.30473 -71.66409,-36.74634 -33.69843,-11.16286 -69.67735,-20.76752 -105.03436,-17.59335 -108.25601,9.71865 -232.57228,30.94158 -306.85709,110.28628 -14.66242,15.66114 -23.5994,41.23209 -17.73589,61.86888 5.45745,19.20769 25.5946,33.36748 44.31991,40.30159 51.34576,19.01368 111.80469,11.21571 164.19202,-4.70516 38.90643,-11.82393 78.59036,-32.62498 103.26444,-64.94688 49.16263,-64.40077 80.7391,-152.20517 70.58812,-232.58788 -6.93559,-54.92091 -30.9538,-138.78213 -86.22104,-141.93526 -40.57838,-2.31509 -61.70203,57.84162 -74.74705,96.33568 -15.71331,46.36782 -6.63491,98.50243 0.93966,146.8709 6.34067,40.48926 13.90281,107.72133 36.83625,117.30024 L 413.29342,606.96707 c 11.23545,-18.67984 11.96558,-37.28414 15.10338,-56.53647 5.48848,-33.67517 7.6463,-68.06649 6.35004,-102.16136 -1.1187,-29.42436 -6.35121,-58.62886 -12.15876,-87.49609 -5.32336,-26.46053 -4.48373,-56.72327 -20.7368,-78.27171 -19.2931,-25.57894 -51.05389,-54.95298 -82.5719,-49.19791 -20.84483,3.80619 -36.0028,28.85345 -39.58679,49.73763 -4.7967,27.95079 11.39955,57.25615 27.75641,80.42311 14.70074,20.82132 59.76354,47.69771 59.76354,47.69771 z" /></svg>
