<?xml version="1.0" encoding="UTF-8" standalone="no"?>
<svg
   xmlns:dc="http://purl.org/dc/elements/1.1/"
   xmlns:cc="http://creativecommons.org/ns#"
   xmlns:rdf="http://www.w3.org/1999/02/22-rdf-syntax-ns#"
   xmlns:svg="http://www.w3.org/2000/svg"
   xmlns="http://www.w3.org/2000/svg"
   xmlns:sodipodi="http://sodipodi.sourceforge.net/DTD/sodipodi-0.dtd"
   xmlns:inkscape="http://www.inkscape.org/namespaces/inkscape"
   xml:space="preserve"
   width="1000"
   height="1000"
   version="1.1"
   style="clip-rule:evenodd;fill-rule:evenodd;image-rendering:optimizeQuality;shape-rendering:geometricPrecision;text-rendering:geometricPrecision"
   viewBox="0 0 1000 1000"
   id="svg10"
   sodipodi:docname="ച്ച.svg"
   inkscape:version="1.0.1 (3bc2e813f5, 2020-09-07)"><metadata
   id="metadata14"><rdf:RDF><cc:Work
       rdf:about=""><dc:format>image/svg+xml</dc:format><dc:type
         rdf:resource="http://purl.org/dc/dcmitype/StillImage" /><dc:title /></cc:Work></rdf:RDF></metadata><sodipodi:namedview
   pagecolor="#ffffff"
   bordercolor="#666666"
   borderopacity="1"
   objecttolerance="10"
   gridtolerance="10"
   guidetolerance="10"
   inkscape:pageopacity="0"
   inkscape:pageshadow="2"
   inkscape:window-width="1920"
   inkscape:window-height="1015"
   id="namedview12"
   showgrid="false"
   inkscape:zoom="0.84890884"
   inkscape:cx="268.39615"
   inkscape:cy="430.2591"
   inkscape:window-x="1920"
   inkscape:window-y="0"
   inkscape:window-maximized="1"
   inkscape:current-layer="svg10"
   showguides="true"
   inkscape:guide-bbox="true"
   inkscape:document-rotation="0"><sodipodi:guide
     position="0,1000"
     orientation="0,1"
     id="guide16"
     inkscape:label=""
     inkscape:locked="true"
     inkscape:color="rgb(0,0,255)" /><sodipodi:guide
     position="1763.3122,2036.1693"
     orientation="1000,0"
     id="guide18" /><sodipodi:guide
     position="0,200"
     orientation="0,1"
     id="guide20"
     inkscape:label="base"
     inkscape:locked="true"
     inkscape:color="rgb(0,0,255)" /><inkscape:grid
     type="xygrid"
     id="grid24"
     originx="-473.37552"
     originy="-489.69235" /><sodipodi:guide
     position="0,0"
     orientation="0,1"
     id="guide34"
     inkscape:label="bottom"
     inkscape:locked="true"
     inkscape:color="rgb(0,0,255)" /><sodipodi:guide
     position="225.05109,1693.3186"
     orientation="0,1"
     id="guide44"
     inkscape:label=""
     inkscape:locked="false"
     inkscape:color="rgb(0,0,255)" /><sodipodi:guide
     position="0,900"
     orientation="0,1"
     id="guide46"
     inkscape:label=""
     inkscape:locked="true"
     inkscape:color="rgb(0,0,255)" /><sodipodi:guide
     position="783.84372,548.24425"
     orientation="-1,0"
     id="guide841"
     inkscape:label="width"
     inkscape:locked="false"
     inkscape:color="rgb(0,0,255)" /></sodipodi:namedview>
 <defs
   id="defs4"><inkscape:path-effect
   effect="spiro"
   id="path-effect851"
   is_visible="true"
   lpeversion="1" />
  <style
   type="text/css"
   id="style2">
   <![CDATA[
    .fil0 {fill:#EF7F1A;fill-rule:nonzero}
   ]]>
  </style>
 <inkscape:path-effect
   effect="spiro"
   id="path-effect1214"
   is_visible="true"
   lpeversion="1" /><inkscape:path-effect
   effect="spiro"
   id="path-effect1195"
   is_visible="true"
   lpeversion="1" /><inkscape:path-effect
   effect="spiro"
   id="path-effect992"
   is_visible="true"
   lpeversion="1" /><inkscape:path-effect
   effect="spiro"
   id="path-effect1060"
   is_visible="true"
   lpeversion="1" /><inkscape:path-effect
   effect="spiro"
   id="path-effect1047"
   is_visible="true"
   lpeversion="1" /><inkscape:path-effect
   effect="spiro"
   id="path-effect1085"
   is_visible="true"
   lpeversion="1" /></defs>
 
<path
   style="display:inline;fill:#1a1a1a;stroke:none;stroke-width:2.98568px;stroke-linecap:butt;stroke-linejoin:miter;stroke-opacity:1"
   d="m 421.55646,184.14753 c 39.95271,0.57321 78.35557,19.59396 106.87708,47.57737 28.5215,27.98341 47.78075,64.35336 60.16596,102.34223 25.95284,79.60451 22.23825,169.07036 -13.10683,244.97262 -28.77347,61.78996 -78.04149,113.82422 -138.16912,145.92686 30.4321,8.74563 63.17421,9.30958 93.88944,1.61715 30.71522,-7.69243 59.32665,-23.62197 82.04451,-45.67866 13.73392,-13.33422 25.3357,-28.87266 34.1182,-45.88118 23.80734,-46.10615 25.87788,-100.48156 20.34389,-152.07557 -11.99066,-111.79031 -57.08676,-220.87126 -47.10215,-332.85857 1.56115,-17.50985 4.47302,-34.89911 8.70122,-51.962364 L 782.73491,100 c -16.12428,26.20978 -29.39487,54.17383 -39.5019,83.23915 -24.13596,69.40907 -29.87712,145.14984 -16.27405,217.36563 9.15403,48.59677 26.84394,95.45725 33.21734,144.49623 5.32569,40.97754 2.33211,83.90225 -15.03234,121.39888 -21.82774,47.13462 -64.91387,82.10017 -112.63988,102.60261 -47.72602,20.50245 -100.06487,27.81949 -151.90715,31.05996 -99.70959,6.23248 -199.70291,-1.87164 -299.60572,-2.39405 C 146.07491,797.58582 111.15376,798.33004 76.276943,800 L 42.443299,658.66346 c 44.387994,31.58582 97.231971,51.16901 151.483891,56.13766 78.58701,7.19737 159.14187,-16.76045 222.69337,-63.54642 34.47537,-25.38041 64.2762,-57.44408 85.26482,-94.7562 20.98862,-37.31211 32.98254,-79.9355 32.45997,-122.74255 -0.40697,-33.3379 -8.85453,-67.49862 -29.43676,-93.72747 -10.29112,-13.11443 -23.51936,-24.03138 -38.7074,-30.90297 -15.18804,-6.87159 -32.34749,-9.59991 -48.8091,-6.97113 -16.3639,2.61318 -31.7376,10.47179 -43.98512,21.63443 -12.24752,11.16263 -21.40786,25.54215 -27.10718,41.10248 -11.39862,31.12066 -8.83863,66.04391 1.26399,97.6091 10.16257,31.7525 27.80226,61.0853 51.08467,84.948 l -155.0263,6.19784 c 9.55484,-19.12311 15.8442,-39.87263 18.51463,-61.08246 4.23868,-33.6656 -0.6826,-68.12941 -11.60577,-100.25454 -10.92318,-32.12512 -27.72154,-62.02321 -47.25395,-89.76891 -10.42632,-14.81054 -21.92544,-29.31692 -37.00371,-39.35216 -7.53913,-5.01762 -15.92912,-8.84897 -24.79506,-10.69563 -8.86594,-1.84665 -18.21878,-1.66298 -26.84961,1.07997 -10.19858,3.24119 -19.129203,9.99726 -25.627643,18.49942 -6.49844,8.50216 -10.628082,18.68821 -12.635683,29.19944 -4.015204,21.02245 0.309245,42.76034 6.619405,63.21144 15.679628,50.81736 43.516631,97.24069 76.427191,139.01568 29.684,37.67936 63.6646,71.97113 101.07182,101.99735 l -158.25771,11.1883 C 96.913392,586.34948 89.77607,556.3345 80.865505,526.8554 66.197666,478.32933 46.766786,431.36677 31.409758,383.05438 16.052731,334.74199 4.7253854,284.39628 7.011976,233.75345 c 1.2027359,-26.63789 6.316559,-53.47722 18.533169,-77.17908 12.21661,-23.70186 32.039835,-44.09852 56.930676,-53.66251 27.820259,-10.689575 59.873719,-6.97157 86.764149,5.87905 26.89042,12.85063 49.02846,34.13223 66.98716,57.91707 27.09422,35.88409 45.59489,78.21164 53.52962,122.47002 6.36552,-29.75401 23.31483,-57.13067 47.11057,-76.09336 23.79574,-18.9627 54.26496,-29.37361 84.68914,-28.93711 z"
   id="path873-9"
   sodipodi:nodetypes="aaacaaaaccaaaaaaccaaaaaccaaaaaccaaaaca"
   inkscape:original-d="m 421.55646,184.14753 c 74.78566,2.19119 138.39359,80.8044 167.04304,149.9196 31.31327,75.54149 19.17205,169.83864 -13.10683,244.97262 -26.44187,61.54746 -96.85573,115.47694 -138.16912,145.92686 0,0 125.64476,-10.507 175.93395,-44.06151 15.85373,-10.5781 26.93938,-28.2261 34.1182,-45.88118 19.26404,-47.37665 20.53796,-100.93251 20.34389,-152.07557 -0.42522,-112.05743 -48.5218,-220.80932 -47.10215,-332.85857 0.22249,-17.56054 50.02369,-71.635073 8.70122,-51.962364 L 782.73491,100 c 0,0 -31.63877,53.55059 -39.5019,83.23915 -18.60236,70.23629 -21.76278,144.91524 -16.27405,217.36563 3.73341,49.2805 30.67919,95.13973 33.21734,144.49623 2.0941,40.72154 8.42929,88.0495 -15.03234,121.39888 -56.8476,80.80564 -168.34826,111.14594 -264.54703,133.66257 -97.2435,22.76117 -199.73617,-3.05907 -299.60572,-2.39405 C 146.0793,798.00088 76.276943,800 76.276943,800 L 42.443299,658.66346 c 0,0 97.673301,54.06687 151.483891,56.13766 77.13709,2.96846 162.49129,-15.22819 222.69337,-63.54642 64.29194,-51.60076 127.20148,-135.60684 117.72479,-217.49875 -6.74631,-58.29754 -58.99682,-140.83014 -116.95326,-131.60157 -57.57168,9.1673 -73.63542,102.17348 -69.82831,160.34601 2.1578,32.9712 51.08467,84.948 51.08467,84.948 l -155.0263,6.19784 c -7.31178,-31.09067 18.57921,-39.80696 18.51463,-61.08246 -0.20128,-66.30989 -16.9969,-138.5983 -58.85972,-190.02345 -21.31199,-26.18009 -57.47824,-61.93009 -88.64838,-48.96782 -35.49827,14.76214 -35.954999,72.70738 -31.643921,110.9103 5.929683,52.5463 44.773211,96.65649 76.427191,139.01568 28.65171,38.34157 101.07182,101.99735 101.07182,101.99735 l -158.25771,11.1883 c 0,0 -14.040247,-59.93412 -21.360555,-89.82873 C 56.901715,428.99227 -6.864013,333.5478 7.011976,233.75345 13.945951,183.88519 34.798407,119.09172 82.475821,102.91186 135.01976,85.08049 196.6257,127.84219 236.22713,166.70798 c 31.79733,31.20665 53.52962,122.47002 53.52962,122.47002 0,0 75.64694,-106.67573 131.79971,-105.03047 z"
   inkscape:path-effect="#path-effect1085" /></svg>
