<?xml version="1.0" encoding="UTF-8" standalone="no"?>
<svg
   xmlns:dc="http://purl.org/dc/elements/1.1/"
   xmlns:cc="http://creativecommons.org/ns#"
   xmlns:rdf="http://www.w3.org/1999/02/22-rdf-syntax-ns#"
   xmlns:svg="http://www.w3.org/2000/svg"
   xmlns="http://www.w3.org/2000/svg"
   xmlns:sodipodi="http://sodipodi.sourceforge.net/DTD/sodipodi-0.dtd"
   xmlns:inkscape="http://www.inkscape.org/namespaces/inkscape"
   xml:space="preserve"
   width="1000"
   height="1000"
   version="1.1"
   style="clip-rule:evenodd;fill-rule:evenodd;image-rendering:optimizeQuality;shape-rendering:geometricPrecision;text-rendering:geometricPrecision"
   viewBox="0 0 1000 1000"
   id="svg10"
   sodipodi:docname="ച്ച.svg"
   inkscape:version="1.0.1 (3bc2e813f5, 2020-09-07)"><metadata
   id="metadata14"><rdf:RDF><cc:Work
       rdf:about=""><dc:format>image/svg+xml</dc:format><dc:type
         rdf:resource="http://purl.org/dc/dcmitype/StillImage" /><dc:title /></cc:Work></rdf:RDF></metadata><sodipodi:namedview
   pagecolor="#ffffff"
   bordercolor="#666666"
   borderopacity="1"
   objecttolerance="10"
   gridtolerance="10"
   guidetolerance="10"
   inkscape:pageopacity="0"
   inkscape:pageshadow="2"
   inkscape:window-width="1920"
   inkscape:window-height="1015"
   id="namedview12"
   showgrid="false"
   inkscape:zoom="0.84890884"
   inkscape:cx="268.39615"
   inkscape:cy="430.2591"
   inkscape:window-x="1920"
   inkscape:window-y="0"
   inkscape:window-maximized="1"
   inkscape:current-layer="svg10"
   showguides="true"
   inkscape:guide-bbox="true"
   inkscape:document-rotation="0"><sodipodi:guide
     position="0,1000"
     orientation="0,1"
     id="guide16"
     inkscape:label=""
     inkscape:locked="true"
     inkscape:color="rgb(0,0,255)" /><sodipodi:guide
     position="1763.3122,2036.1693"
     orientation="1000,0"
     id="guide18" /><sodipodi:guide
     position="0,200"
     orientation="0,1"
     id="guide20"
     inkscape:label="base"
     inkscape:locked="true"
     inkscape:color="rgb(0,0,255)" /><inkscape:grid
     type="xygrid"
     id="grid24"
     originx="-473.37552"
     originy="-489.69235" /><sodipodi:guide
     position="0,0"
     orientation="0,1"
     id="guide34"
     inkscape:label="bottom"
     inkscape:locked="true"
     inkscape:color="rgb(0,0,255)" /><sodipodi:guide
     position="225.05109,1693.3186"
     orientation="0,1"
     id="guide44"
     inkscape:label=""
     inkscape:locked="false"
     inkscape:color="rgb(0,0,255)" /><sodipodi:guide
     position="0,900"
     orientation="0,1"
     id="guide46"
     inkscape:label=""
     inkscape:locked="true"
     inkscape:color="rgb(0,0,255)" /><sodipodi:guide
     position="799.99727,554.20951"
     orientation="-1,0"
     id="guide841"
     inkscape:label="width"
     inkscape:locked="false"
     inkscape:color="rgb(0,0,255)" /></sodipodi:namedview>
 <defs
   id="defs4"><inkscape:path-effect
   effect="spiro"
   id="path-effect851"
   is_visible="true"
   lpeversion="1" />
  <style
   type="text/css"
   id="style2">
   <![CDATA[
    .fil0 {fill:#EF7F1A;fill-rule:nonzero}
   ]]>
  </style>
 <inkscape:path-effect
   effect="spiro"
   id="path-effect1214"
   is_visible="true"
   lpeversion="1" /><inkscape:path-effect
   effect="spiro"
   id="path-effect1195"
   is_visible="true"
   lpeversion="1" /><inkscape:path-effect
   effect="spiro"
   id="path-effect992"
   is_visible="true"
   lpeversion="1" /><inkscape:path-effect
   effect="spiro"
   id="path-effect1060"
   is_visible="true"
   lpeversion="1" /><inkscape:path-effect
   effect="spiro"
   id="path-effect1047"
   is_visible="true"
   lpeversion="1" /><inkscape:path-effect
   effect="spiro"
   id="path-effect1085"
   is_visible="true"
   lpeversion="1" /></defs>
 
<path
   style="display:inline;fill:#1a1a1a;stroke:none;stroke-width:2.98568px;stroke-linecap:butt;stroke-linejoin:miter;stroke-opacity:1"
   d="m 427.55646,184.14753 c 39.92473,0.64295 78.25219,19.73799 106.73324,47.72418 28.48106,27.9862 47.74802,64.29292 60.3098,102.19542 26.3788,79.5924 23.61776,169.59294 -13.10683,244.97262 -23.56454,48.36781 -60.63244,90.06908 -105.90401,119.1417 22.6663,12.05421 49.05791,16.98078 74.54655,13.91574 25.48865,-3.06504 49.95991,-14.10793 69.12229,-31.19209 14.31321,-12.76089 25.60171,-28.70044 34.1182,-45.88118 23.02013,-46.43965 25.57609,-100.50822 20.34389,-152.07557 -11.349,-111.85321 -57.00945,-220.86846 -47.10215,-332.85857 1.54915,-17.51123 4.46122,-34.90172 8.70122,-51.962364 L 804.73491,100 c -16.17588,26.18051 -29.45017,54.15237 -39.5019,83.23915 -23.99157,69.42465 -29.26719,145.0707 -16.27405,217.36563 8.72163,48.52792 25.47409,95.52644 31.21734,144.49623 4.80604,40.97871 1.54689,83.61685 -15.03234,121.39888 -14.73039,33.56877 -39.56807,62.21802 -69.08586,83.95616 -29.51779,21.73813 -63.6105,36.77559 -98.87458,46.79014 -66.12288,18.77805 -135.97643,20.15532 -204.5943,16.10095 C 323.97134,809.29277 255.69414,799.94962 186.99121,797.76841 152.07974,796.66003 117.10949,797.40528 82.276943,800 L 48.443299,650.66346 c 44.90972,30.68318 97.424471,50.14436 151.483891,56.13766 77.67601,8.61156 158.32079,-11.2306 222.69337,-55.54642 35.46878,-24.41766 66.14216,-56.20495 87.30716,-93.70561 21.16501,-37.50065 32.58718,-80.78675 30.41763,-123.79314 -1.5993,-31.70244 -11.04683,-63.91294 -31.87234,-87.86916 -10.41275,-11.97811 -23.5642,-21.68485 -38.3838,-27.36641 -14.81959,-5.68156 -31.31203,-7.23904 -46.77506,-3.66199 -14.53435,3.36221 -27.90695,11.19112 -38.4577,21.73785 -10.55075,10.54672 -18.31669,23.74419 -23.08868,37.87854 -9.54397,28.26871 -7.04148,59.52814 1.79601,88.02561 9.88208,31.86587 27.57063,61.2799 51.08467,84.948 l -173.0263,6.19784 c 9.20935,-19.26964 15.4755,-39.94258 18.51463,-61.08246 9.54589,-66.40026 -13.3586,-134.40166 -50.85972,-190.02345 -10.15381,-15.06016 -21.65528,-29.67359 -36.80844,-39.68807 -7.57659,-5.00724 -16.01899,-8.79463 -24.92393,-10.57766 -8.90494,-1.78303 -18.28156,-1.51695 -26.91601,1.29791 -10.16025,3.31228 -19.04188,10.09374 -25.511881,18.59909 -6.470003,8.50534 -10.590205,18.67447 -12.60559,29.16923 -4.030769,20.98952 0.215194,42.70573 6.47355,63.14198 15.573691,50.85487 43.485241,97.25942 76.427191,139.01568 29.7089,37.65815 63.68604,71.94642 101.07182,101.99735 l -158.25771,11.1883 C 102.91339,586.34948 95.77607,556.3345 86.865505,526.8554 72.197666,478.32933 52.766786,431.36677 37.409758,383.05438 22.052731,334.74199 10.725385,284.39628 13.011976,233.75345 c 1.202736,-26.63789 6.316559,-53.47722 18.533169,-77.17908 12.21661,-23.70186 32.039835,-44.09852 56.930676,-53.66251 27.820259,-10.689575 59.873719,-6.97157 86.764149,5.87905 26.89042,12.85063 49.02846,34.13223 66.98716,57.91707 27.09422,35.88409 45.59489,78.21164 53.52962,122.47002 6.31588,-29.77754 23.25288,-57.18808 47.05853,-76.15867 23.80564,-18.97059 54.30515,-29.36194 84.74118,-28.8718 z"
   id="path873-9"
   sodipodi:nodetypes="aaacaaacccaaaaaaccaaaaaccaaaaaccaaaaca"
   inkscape:original-d="m 427.55646,184.14753 c 74.78566,2.19119 138.39359,80.8044 167.04304,149.9196 31.31327,75.54149 17.98645,169.34029 -13.10683,244.97262 -20.20385,49.14451 -64.59062,88.69178 -105.90401,119.1417 0,0 101.94317,6.92174 143.66884,-17.27635 16.48692,-9.5613 26.93938,-28.2261 34.1182,-45.88118 19.26404,-47.37665 20.53796,-100.93251 20.34389,-152.07557 C 673.29437,370.89092 630.97669,254.708 626.61744,150.08978 626.1691,132.5335 676.64113,78.454707 635.31866,98.127416 L 804.73491,100 c 0,0 -31.63877,53.55059 -39.5019,83.23915 -18.60236,70.23629 -21.28501,144.88063 -16.27405,217.36563 3.39843,49.15931 29.01114,95.26901 31.21734,144.49623 1.82559,40.73446 5.09604,85.93795 -15.03234,121.39888 -35.02389,61.70292 -100.87,107.66395 -167.96044,130.7463 -129.2927,44.48294 -273.47014,-1.02152 -410.19231,0.52222 C 152.08076,798.16259 82.276943,800 82.276943,800 L 48.443299,650.66346 c 0,0 97.715571,53.16522 151.483891,56.13766 76.3888,4.22295 162.23415,-8.66609 222.69337,-55.54642 65.14781,-50.51589 129.28459,-135.87484 117.72479,-217.49875 -7.79792,-55.06125 -62.49036,-129.75319 -117.0312,-118.89756 -52.07002,10.36384 -63.91039,94.71383 -59.75037,147.642 2.58901,32.94015 51.08467,84.948 51.08467,84.948 l -173.0263,6.19784 c -7.31178,-31.09067 18.16587,-39.80972 18.51463,-61.08246 1.07486,-65.56186 -10.4595,-138.37719 -50.85972,-190.02345 -20.79936,-26.58919 -57.47824,-61.93009 -88.64838,-48.96782 -35.49827,14.76214 -35.954999,72.70738 -31.643921,110.9103 5.929683,52.5463 44.773211,96.65649 76.427191,139.01568 28.65171,38.34157 101.07182,101.99735 101.07182,101.99735 l -158.25771,11.1883 c 0,0 -14.040247,-59.93412 -21.360555,-89.82873 C 62.901715,428.99227 -0.864013,333.5478 13.011976,233.75345 19.945951,183.88519 40.798407,119.09172 88.475821,102.91186 141.01976,85.08049 202.6257,127.84219 242.22713,166.70798 c 31.79733,31.20665 53.52962,122.47002 53.52962,122.47002 0,0 75.64694,-106.67573 131.79971,-105.03047 z"
   inkscape:path-effect="#path-effect1085" /></svg>
