<?xml version="1.0" encoding="UTF-8" standalone="no"?>
<svg
   xmlns:dc="http://purl.org/dc/elements/1.1/"
   xmlns:cc="http://creativecommons.org/ns#"
   xmlns:rdf="http://www.w3.org/1999/02/22-rdf-syntax-ns#"
   xmlns:svg="http://www.w3.org/2000/svg"
   xmlns="http://www.w3.org/2000/svg"
   xmlns:sodipodi="http://sodipodi.sourceforge.net/DTD/sodipodi-0.dtd"
   xmlns:inkscape="http://www.inkscape.org/namespaces/inkscape"
   xml:space="preserve"
   width="1000"
   height="1000"
   version="1.1"
   style="clip-rule:evenodd;fill-rule:evenodd;image-rendering:optimizeQuality;shape-rendering:geometricPrecision;text-rendering:geometricPrecision"
   viewBox="0 0 1000 1000"
   id="svg10"
   sodipodi:docname="ച്ഛ.svg"
   inkscape:version="1.0.1 (3bc2e813f5, 2020-09-07)"><metadata
   id="metadata14"><rdf:RDF><cc:Work
       rdf:about=""><dc:format>image/svg+xml</dc:format><dc:type
         rdf:resource="http://purl.org/dc/dcmitype/StillImage" /><dc:title /></cc:Work></rdf:RDF></metadata><sodipodi:namedview
   pagecolor="#ffffff"
   bordercolor="#666666"
   borderopacity="1"
   objecttolerance="10"
   gridtolerance="10"
   guidetolerance="10"
   inkscape:pageopacity="0"
   inkscape:pageshadow="2"
   inkscape:window-width="1920"
   inkscape:window-height="1015"
   id="namedview12"
   showgrid="false"
   inkscape:zoom="0.84890884"
   inkscape:cx="434.60154"
   inkscape:cy="572.14053"
   inkscape:window-x="1920"
   inkscape:window-y="0"
   inkscape:window-maximized="1"
   inkscape:current-layer="svg10"
   showguides="true"
   inkscape:guide-bbox="true"
   inkscape:document-rotation="0"><sodipodi:guide
     position="0,1000"
     orientation="0,1"
     id="guide16"
     inkscape:label=""
     inkscape:locked="true"
     inkscape:color="rgb(0,0,255)" /><sodipodi:guide
     position="1763.3122,2036.1693"
     orientation="1000,0"
     id="guide18" /><sodipodi:guide
     position="0,200"
     orientation="0,1"
     id="guide20"
     inkscape:label="base"
     inkscape:locked="true"
     inkscape:color="rgb(0,0,255)" /><inkscape:grid
     type="xygrid"
     id="grid24"
     originx="-473.37552"
     originy="-489.69235" /><sodipodi:guide
     position="0,0"
     orientation="0,1"
     id="guide34"
     inkscape:label="bottom"
     inkscape:locked="true"
     inkscape:color="rgb(0,0,255)" /><sodipodi:guide
     position="225.05109,1693.3186"
     orientation="0,1"
     id="guide44"
     inkscape:label=""
     inkscape:locked="false"
     inkscape:color="rgb(0,0,255)" /><sodipodi:guide
     position="0,900"
     orientation="0,1"
     id="guide46"
     inkscape:label=""
     inkscape:locked="true"
     inkscape:color="rgb(0,0,255)" /><sodipodi:guide
     position="777.48273,655.08119"
     orientation="-1,0"
     id="guide841"
     inkscape:label="width"
     inkscape:locked="false"
     inkscape:color="rgb(0,0,255)" /></sodipodi:namedview>
 <defs
   id="defs4"><inkscape:path-effect
   effect="spiro"
   id="path-effect853"
   is_visible="true"
   lpeversion="1" /><inkscape:path-effect
   effect="spiro"
   id="path-effect851"
   is_visible="true"
   lpeversion="1" />
  <style
   type="text/css"
   id="style2">
   <![CDATA[
    .fil0 {fill:#EF7F1A;fill-rule:nonzero}
   ]]>
  </style>
 <inkscape:path-effect
   effect="spiro"
   id="path-effect1214"
   is_visible="true"
   lpeversion="1" /><inkscape:path-effect
   effect="spiro"
   id="path-effect1195"
   is_visible="true"
   lpeversion="1" /><inkscape:path-effect
   effect="spiro"
   id="path-effect992"
   is_visible="true"
   lpeversion="1" /><inkscape:path-effect
   effect="spiro"
   id="path-effect1060"
   is_visible="true"
   lpeversion="1" /><inkscape:path-effect
   effect="spiro"
   id="path-effect1047"
   is_visible="true"
   lpeversion="1" /><inkscape:path-effect
   effect="spiro"
   id="path-effect1085"
   is_visible="true"
   lpeversion="1" /></defs>
 
<path
   style="display:inline;fill:#1a1a1a;stroke:#000000;stroke-width:2.44084px;stroke-linecap:butt;stroke-linejoin:miter;stroke-opacity:1"
   d="m 119.66128,253.26756 c 4.90252,-32.01127 23.33789,-61.02915 47.70486,-82.36004 23.87152,-20.89718 53.49389,-34.9984 84.61775,-41.1504 31.12386,-6.152 63.67809,-4.42366 94.20851,4.20394 61.06083,17.25519 112.60548,61.99113 143.8216,117.23351 14.41595,25.51155 24.86904,53.46004 28.79556,82.49866 3.92652,29.03862 1.16969,59.19676 -9.76994,86.38101 -16.06753,39.92672 -50.14346,72.19815 -90.88451,86.07169 37.90293,-3.61195 75.73669,-7.9497 113.47355,-13.01006 14.20355,-1.90464 28.47398,-3.92963 42.12696,-8.28447 13.65298,-4.35485 26.77795,-11.1875 36.69693,-21.53073 13.05205,-13.61031 19.65799,-32.43876 21.40851,-51.2146 1.75052,-18.77583 -0.98829,-37.67422 -4.51674,-56.19843 -7.0009,-36.75443 -17.12834,-72.86021 -24.04183,-109.63119 -6.91349,-36.77097 -10.57983,-74.65648 -4.51994,-111.57773 1.93363,-11.7811 4.84989,-23.40076 8.70856,-34.69872 l 129.10796,0.18765 c -10.62846,10.85659 -19.9214,23.01936 -27.60308,36.12743 -28.61664,48.8316 -33.5291,108.75796 -24.34211,164.6063 5.37195,32.65647 15.23823,64.37547 23.23692,96.48971 6.45725,25.92544 11.68493,53.32632 4.69737,79.11389 -4.92326,18.16929 -15.79366,34.46427 -29.73165,47.11709 -13.938,12.65282 -30.85215,21.77528 -48.64701,27.91567 -35.58972,12.28078 -74.0019,12.76754 -111.64645,13.34548 -123.38476,1.89429 -246.73357,6.12915 -370.13074,6.85373 -33.37271,0.19596 -66.746928,0.13514 -100.118702,-0.18245 L 28.332124,444.57522 c 30.128302,21.04319 63.056122,38.07297 97.641286,50.49862 38.08577,13.68334 78.52301,21.79997 118.9588,20.15475 40.43579,-1.64521 80.90535,-13.40006 113.97675,-36.72477 24.68564,-17.41037 45.01964,-41.24303 57.07486,-68.94092 12.05523,-27.69789 15.61186,-59.24517 8.69868,-88.65111 -8.98839,-38.23305 -35.84292,-71.63065 -70.73535,-89.6605 -16.65043,-8.60372 -35.1026,-13.87645 -53.83018,-14.61048 -18.72758,-0.73403 -37.71162,3.14161 -54.31803,11.83 -17.3079,9.05541 -31.9379,23.43633 -40.47365,41.00632 -8.53575,17.57 -10.76509,38.2897 -5.29282,57.04118 3.75543,12.86849 10.96331,24.56581 19.86193,34.59157 8.89862,10.02576 19.46737,18.45217 30.54772,25.99718 17.27612,11.76392 35.92979,21.50298 55.45752,28.95429 l -89.77894,34.65118 c -17.72137,-18.3049 -34.19168,-37.82076 -49.25801,-58.36637 -14.86429,-20.2701 -28.44934,-41.71349 -37.52114,-65.15547 -9.07179,-23.44199 -13.48549,-49.07672 -9.68027,-73.92313 z"
   id="path873-9"
   inkscape:path-effect="#path-effect1085"
   inkscape:original-d="m 119.66128,253.26756 c 3.13282,-31.57108 18.49496,-69.97741 47.70486,-82.36004 102.03905,-43.25628 253.69195,19.06102 322.64786,80.28705 50.82821,45.13042 41.54166,114.46325 19.02562,168.87967 -13.998,33.83017 -49.53628,65.73826 -90.88451,86.07169 0,0 76.47342,-4.03837 113.47355,-13.01006 27.30032,-6.61971 61.10389,-8.01773 78.82389,-29.8152 22.86286,-28.12373 16.39205,-71.1721 16.89177,-107.41303 1.02509,-74.34133 -32.9269,-146.98877 -28.56177,-221.20892 0.70014,-11.90438 50.06588,-47.835492 8.70856,-34.69872 l 129.10796,0.18765 c 0,0 -21.70662,22.16635 -27.60308,36.12743 -21.58006,51.09521 -26.82353,109.19636 -24.34211,164.6063 1.48006,33.04963 18.38908,64.07494 23.23692,96.48971 3.92757,26.26158 22.30156,55.47963 4.69737,79.11389 -34.36275,46.13321 -121.95881,72.66179 -190.02511,88.37824 -120.23456,27.76205 -246.73697,5.82383 -370.13074,6.85373 C 119.06053,572.03549 52.313618,571.5745 52.313618,571.5745 L 28.332124,444.57522 c 0,0 61.752433,43.1061 97.641286,50.49862 76.24077,15.70436 173.34934,17.10088 232.93555,-16.57002 62.36616,-35.2418 73.50705,-101.19745 65.77354,-157.59203 -5.17193,-37.71495 -36.69706,-72.61466 -70.73535,-89.6605 -32.2441,-16.14734 -77.48423,-21.75782 -108.14821,-2.78048 -30.66937,18.98066 -50.39253,62.27775 -45.76647,98.0475 3.36971,26.05536 29.96462,44.08914 50.40965,60.58875 16.22825,13.09657 55.45752,28.95429 55.45752,28.95429 l -89.77894,34.65118 c -7.31794,-20.7613 -36.73948,-36.19892 -49.25801,-58.36637 -24.07361,-42.62887 -52.03568,-90.36116 -47.20141,-139.0786 z"
   sodipodi:nodetypes="aaaacaaaaccaaaaaaccaaaaaaaccaa" /><path
   style="clip-rule:evenodd;display:inline;fill:#1a1a1a;fill-rule:nonzero;stroke:none;stroke-width:2.04807px;stroke-linecap:butt;stroke-linejoin:miter;stroke-opacity:1;image-rendering:optimizeQuality;shape-rendering:geometricPrecision;text-rendering:geometricPrecision"
   d="m 74.083186,687.1967 c 11.861706,-28.59434 36.590324,-51.00671 65.305444,-62.57297 28.71512,-11.56625 61.05891,-12.73731 91.27452,-6.00284 26.22751,5.8456 51.19575,17.5777 72.05353,34.51896 20.85777,16.94127 37.53356,39.10905 47.46238,64.07847 17.79724,44.75724 12.81386,97.04611 -9.37767,139.79524 -16.97659,32.70323 -43.65629,60.29262 -75.77217,78.35574 37.2739,2.8e-4 74.5478,-0.43924 111.81133,-1.31846 17.45477,-0.41184 34.90727,-0.92014 52.35643,-1.52489 -10.75495,-19.79496 -19.78885,-40.52461 -26.96643,-61.87857 -15.89425,-47.28685 -22.58661,-98.08341 -15.69913,-147.49227 4.48942,-32.20582 15.04007,-64.20665 35.06629,-89.8254 15.08366,-19.29593 35.2454,-34.47569 57.68175,-44.2971 22.43635,-9.82141 47.09481,-14.3297 71.58099,-13.80337 33.06564,0.71074 65.69026,10.56114 94.47355,26.85115 28.78328,16.29 53.78037,38.89988 74.21035,64.90868 21.75705,27.69826 38.51994,59.48725 47.67126,93.49925 8.82158,32.78647 10.47992,67.5458 4.24002,100.91999 -6.2399,33.37419 -20.41944,65.30572 -41.45641,91.95565 -9.07331,11.4942 -19.45566,22.05552 -31.48276,30.40958 -12.0271,8.35406 -25.75563,14.4606 -40.2282,16.69356 -22.28423,3.4382 -45.50273,-2.58215 -64.57559,-14.60854 -19.07286,-12.02639 -34.15927,-29.75408 -45.03826,-49.50391 -16.24092,-29.48396 -23.40452,-63.73175 -21.37312,-97.33152 2.0314,-33.59977 13.13479,-66.48154 31.01257,-95.0027 21.58326,-34.43267 53.09396,-62.56279 89.74503,-80.11686 l 52.20495,54.70324 c -29.48891,3.2397 -57.74626,16.77276 -78.75569,37.71781 -21.00943,20.94504 -34.62916,49.16073 -37.95935,78.63955 -1.626,14.39333 -0.79386,29.35044 4.78289,42.71876 2.78838,6.68415 6.75308,12.90747 11.86129,18.04159 5.10821,5.13413 11.37437,9.15995 18.26922,11.37671 7.355,2.36471 15.32479,2.63454 22.90134,1.12331 7.57655,-1.51123 14.76077,-4.77221 21.10111,-9.18674 12.68068,-8.82905 21.78286,-22.03063 28.22092,-36.07709 10.64424,-23.22345 14.58557,-49.48761 11.1292,-74.7993 -3.45637,-25.31169 -14.31129,-49.5819 -30.94924,-68.96763 -26.99171,-31.44942 -69.28852,-49.00973 -110.64035,-46.24491 -21.61523,1.44521 -42.93225,8.21893 -61.07636,20.05525 -18.14411,11.83631 -33.02817,28.76823 -41.86773,48.54623 -12.31661,27.5577 -12.49815,59.45209 -5.17518,88.73519 7.32298,29.28309 21.70624,56.32218 37.75403,81.88766 6.43603,10.25313 13.23114,20.46797 17.06831,31.94949 1.91859,5.74076 3.07137,11.77393 2.96687,17.82591 -0.1045,6.05197 -1.49664,12.1279 -4.42115,17.42739 -2.94635,5.33906 -7.38985,9.78272 -12.5119,13.09196 -5.12205,3.30924 -10.90986,5.51249 -16.85504,6.86946 -11.89035,2.71399 -24.25293,2.08329 -36.43786,1.56049 -86.38449,-3.70632 -172.89647,-1.24095 -259.34896,0.1672 -52.15567,0.8495 -104.317607,1.314 -156.480132,1.3934 L 10.203041,896.13203 c 24.730674,19.80377 54.998931,32.61633 86.431913,36.58664 41.718686,5.2695 85.153006,-5.2931 120.102076,-28.6764 20.26457,-13.55837 37.84933,-31.45546 49.55145,-52.8457 11.70212,-21.39025 17.31653,-46.34734 14.20795,-70.53037 -2.63865,-20.5272 -11.80309,-40.51677 -27.15441,-54.39717 -7.67566,-6.94019 -16.81779,-12.29509 -26.71131,-15.3283 -9.89352,-3.03321 -20.53287,-3.71747 -30.68287,-1.70263 -10.11542,2.00797 -19.66839,6.68698 -27.5599,13.32609 -7.8915,6.63911 -14.11742,15.2148 -18.13474,24.71294 -8.03465,18.99628 -6.87167,41.40308 2.01887,60.01417 9.01423,18.87003 25.81237,33.87403 45.57652,40.7087 L 91.67112,867.86372 c -7.069068,-22.65373 -13.192115,-45.60265 -18.347832,-68.76689 -4.118502,-18.50411 -7.63037,-37.23708 -8.248387,-56.18391 -0.618016,-18.94683 1.744624,-38.20613 9.008285,-55.71622 z"
   id="path873-9-5"
   inkscape:path-effect="#path-effect853"
   inkscape:original-d="m 74.083186,687.1967 c 31.013584,-44.85012 99.358494,-76.17021 156.579964,-68.57581 52.98118,7.03163 99.21902,53.06633 119.51591,98.59743 19.25806,43.20078 14.63443,95.942 -9.37767,139.79524 -16.78912,29.77788 -46.21328,58.32977 -75.77217,78.35574 0,0 74.54704,-0.55618 111.81133,-1.31846 17.45657,-0.35712 37.46113,2.54648 52.35643,-1.52489 -30.40973,-18.77113 -21.21458,-40.12645 -26.96643,-61.87857 -12.63933,-47.79895 -22.25913,-98.48759 -15.69913,-147.49227 4.2647,-31.85829 12.91605,-66.53365 35.06629,-89.8254 32.55432,-34.232 82.0567,-59.89015 129.26274,-58.10047 63.96284,2.42496 124.03119,45.89852 168.6839,91.75983 24.40465,25.0652 42.77414,58.86012 47.67126,93.49925 9.16581,64.83309 0.69344,137.65624 -37.21639,192.87564 -15.67917,22.83833 -42.34213,46.37734 -71.71096,47.10314 -43.29203,1.0699 -89.65232,-28.78491 -109.61385,-64.11245 -32.18209,-56.9554 -18.05316,-134.42294 9.63945,-192.33422 17.29976,-36.17757 89.74503,-80.11686 89.74503,-80.11686 l 52.20495,54.70324 c 0,0 -107.52438,62.19585 -116.71504,116.35736 -4.46919,26.33742 7.41873,64.79529 34.9134,72.13706 27.76249,7.41341 60.13921,-18.64464 72.22337,-44.14052 20.71896,-43.71408 9.68462,-105.43064 -19.82004,-143.76693 -24.37928,-31.67673 -70.85218,-50.07453 -110.64035,-46.24491 -41.04628,3.95072 -86.99413,30.57512 -102.94409,68.60148 -22.39624,53.39498 20.58683,113.94111 32.57885,170.62285 4.75706,22.48489 27.76348,47.20359 15.61403,67.20279 -11.35104,18.68511 -42.86342,17.87441 -65.8048,21.52191 -85.18486,13.5434 -172.90045,-0.2456 -259.34896,0.1672 -52.16179,0.2491 -78.53359,-7.0665 -156.480132,1.3934 L 10.203041,896.13203 c 0,0 55.254154,33.99212 86.431913,36.58664 41.017596,3.41335 87.690056,-3.30801 120.102076,-28.6764 36.45419,-28.53214 73.21276,-78.68337 63.7594,-123.37607 -7.30552,-34.53833 -47.18874,-79.08804 -84.54859,-71.4281 -37.50088,7.68886 -51.51856,63.47888 -43.67577,98.0532 C 156.59599,826.35297 197.84859,848 197.84859,848 L 91.67112,867.86372 c 0,0 -15.347183,-45.32701 -18.347832,-68.76689 C 68.580969,762.05165 52.315092,718.6765 74.083186,687.1967 Z"
   sodipodi:nodetypes="aaaccacaaaaaaaaaaccaaaaaaaaaaccaaaaaccaa" /></svg>
