<svg xmlns="http://www.w3.org/2000/svg" xmlns:dc="http://purl.org/dc/elements/1.1/" xmlns:ns1="http://sodipodi.sourceforge.net/DTD/sodipodi-0.dtd" xmlns:ns2="http://www.inkscape.org/namespaces/inkscape" xmlns:ns4="http://creativecommons.org/ns#" xmlns:rdf="http://www.w3.org/1999/02/22-rdf-syntax-ns#" xml:space="preserve" width="2000" height="1000" version="1.1" style="clip-rule:evenodd;fill-rule:evenodd;image-rendering:optimizeQuality;shape-rendering:geometricPrecision;text-rendering:geometricPrecision" viewBox="0 0 2000 1000" id="svg10" ns1:docname="ഛ.svg" ns2:version="1.0.2 (e86c870879, 2021-01-15)"><metadata id="metadata14"><rdf:RDF><ns4:Work rdf:about=""><dc:format>image/svg+xml</dc:format><dc:type rdf:resource="http://purl.org/dc/dcmitype/StillImage" /><dc:title /></ns4:Work></rdf:RDF></metadata><ns1:namedview pagecolor="#ffffff" bordercolor="#666666" borderopacity="1" objecttolerance="10" gridtolerance="10" guidetolerance="10" ns2:pageopacity="0" ns2:pageshadow="2" ns2:window-width="1920" ns2:window-height="1007" id="namedview12" showgrid="false" ns2:zoom="0.84890884" ns2:cx="674.67779" ns2:cy="558.43601" ns2:window-x="1920" ns2:window-y="0" ns2:window-maximized="1" ns2:current-layer="svg10" showguides="true" ns2:guide-bbox="true" ns2:document-rotation="0"><ns1:guide position="0,1000" orientation="0,1" id="guide16" ns2:label="" ns2:locked="true" ns2:color="rgb(0,0,255)" /><ns1:guide position="1763.3122,2036.1693" orientation="1000,0" id="guide18" /><ns1:guide position="0,200" orientation="0,1" id="guide20" ns2:label="base" ns2:locked="true" ns2:color="rgb(0,0,255)" /><ns2:grid type="xygrid" id="grid24" originx="-473.37552" originy="-489.69235" /><ns1:guide position="0,0" orientation="0,1" id="guide34" ns2:label="bottom" ns2:locked="true" ns2:color="rgb(0,0,255)" /><ns1:guide position="225.05109,1693.3186" orientation="0,1" id="guide44" ns2:label="" ns2:locked="false" ns2:color="rgb(0,0,255)" /><ns1:guide position="0,900" orientation="0,1" id="guide46" ns2:label="" ns2:locked="true" ns2:color="rgb(0,0,255)" /><ns1:guide position="1131.9405,733.25826" orientation="-1,0" id="guide841" ns2:label="width" ns2:locked="false" ns2:color="rgb(0,0,255)" /></ns1:namedview>
 <defs id="defs4"><ns2:path-effect effect="fillet_chamfer" id="path-effect846" is_visible="true" lpeversion="1" satellites_param="F,0,0,1,0,0,0,1 @ F,0,0,1,0,0,0,1 @ F,0,0,1,0,0,0,1 @ F,0,0,1,0,0,0,1 @ F,0,0,1,0,0,0,1 @ F,0,0,1,0,0,0,1 @ F,0,0,1,0,0,0,1 @ F,0,0,1,0,0,0,1 @ F,0,0,1,0,0,0,1 @ F,0,0,1,0,0,0,1 @ F,0,0,1,0,0,0,1 @ F,0,0,1,0,0,0,1 @ F,0,0,1,0,0,0,1 @ F,0,0,1,0,0,0,1 @ F,0,0,1,0,0,0,1 @ F,0,0,1,0,0,0,1 @ F,0,0,1,0,0,0,1 @ F,0,0,1,0,0,0,1 @ F,0,0,1,0,0,0,1 @ F,0,0,1,0,0,0,1 @ F,0,0,1,0,0,0,1 @ F,0,0,1,0,0,0,1 @ F,0,0,1,0,0,0,1 @ F,0,0,1,0,0,0,1 @ F,0,0,1,0,0,0,1 @ F,0,0,1,0,0,0,1 @ F,0,0,1,0,0,0,1 @ F,0,0,1,0,0,0,1 @ F,0,0,1,0,0,0,1 @ F,0,0,1,0,0,0,1 @ F,0,0,1,0,0,0,1 @ F,0,0,1,0,0,0,1 @ F,0,0,1,0,0,0,1 @ F,0,0,1,0,0,0,1 @ F,0,0,1,0,0,0,1 @ F,0,0,1,0,0,0,1 @ F,0,0,1,0,0,0,1 @ F,0,0,1,0,0,0,1 @ F,0,0,1,0,0,0,1 @ F,0,0,1,0,0,0,1 @ F,0,0,1,0,0,0,1 @ F,0,0,1,0,0,0,1 @ F,0,0,1,0,0,0,1 @ F,0,0,1,0,0,0,1 @ F,0,0,1,0,0,0,1 @ F,0,0,1,0,0,0,1 @ F,0,0,1,0,0,0,1 @ F,0,0,1,0,0,0,1 @ F,0,0,1,0,0,0,1 @ F,0,0,1,0,0,0,1 @ F,0,0,1,0,0,0,1 @ F,0,0,1,0,0,0,1 @ F,0,1,1,0,33.973965,0,1 @ F,0,1,1,0,33.973965,0,1 @ F,0,0,1,0,0,0,1 @ F,0,0,1,0,0,0,1 @ F,0,0,1,0,0,0,1 @ F,0,0,1,0,0,0,1 @ F,0,0,1,0,0,0,1 @ F,0,0,1,0,0,0,1 @ F,0,0,1,0,0,0,1 @ F,0,0,1,0,0,0,1 @ F,0,0,1,0,0,0,1 @ F,0,0,1,0,0,0,1 @ F,0,0,1,0,0,0,1 @ F,0,1,1,0,33.973965,0,1 @ F,0,1,1,0,33.973965,0,1 @ F,0,0,1,0,0,0,1 @ F,0,0,1,0,0,0,1" unit="px" method="auto" mode="F" radius="0" chamfer_steps="1" flexible="false" use_knot_distance="true" apply_no_radius="true" apply_with_radius="true" only_selected="true" hide_knots="false" /><ns2:path-effect effect="spiro" id="path-effect851" is_visible="true" lpeversion="1" />
  <style type="text/css" id="style2">
   
    .fil0 {fill:#EF7F1A;fill-rule:nonzero}
   
  </style>
 <ns2:path-effect effect="spiro" id="path-effect1214" is_visible="true" lpeversion="1" /><ns2:path-effect effect="spiro" id="path-effect1195" is_visible="true" lpeversion="1" /><ns2:path-effect effect="spiro" id="path-effect992" is_visible="true" lpeversion="1" /><ns2:path-effect effect="spiro" id="path-effect1060" is_visible="true" lpeversion="1" /><ns2:path-effect effect="spiro" id="path-effect1047" is_visible="true" lpeversion="1" /><ns2:path-effect effect="spiro" id="path-effect1085" is_visible="true" lpeversion="1" /></defs>
 
<path style="display:inline;fill:#26a269;fill-rule:nonzero;stroke:none;stroke-width:2.98568px;stroke-linecap:butt;stroke-linejoin:miter;stroke-opacity:1" d="m 148.71033,288.41858 c 17.64728,-40.06225 50.79047,-72.80282 90.50696,-91.21506 39.71649,-18.41225 85.6172,-22.60814 128.33917,-13.05599 38.0165,8.50006 73.44717,27.64137 102.18047,53.94541 28.73331,26.30403 50.79873,59.64633 64.86257,95.97419 30.33542,78.35845 22.31444,168.77801 -13.10683,244.97262 -30.77106,66.19154 -81.65768,122.86872 -144.16321,160.56802 l -1.51924,-44.1693 c 44.75852,2.80301 89.63451,3.72962 134.47059,2.7766 21.06764,-0.44781 42.1502,-1.31223 63.08315,-3.73247 8.03766,-0.9293 16.14332,-2.11228 23.64262,-5.15004 7.49931,-3.03777 14.42847,-8.12715 18.24029,-15.26421 3.29934,-6.17752 4.04857,-13.4583 3.38835,-20.43049 -0.66022,-6.97219 -2.64787,-13.73993 -4.56382,-20.47614 -28.53938,-100.34035 -43.21641,-206.05441 -28.66352,-309.35443 6.81467,-48.37219 20.50471,-96.91153 49.01087,-136.5815 20.35713,-28.32956 47.93502,-51.38807 79.31144,-66.63592 31.37642,-15.24786 66.48275,-22.678852 101.35441,-21.707153 47.67993,1.328603 94.29808,18.299753 133.8324,44.986413 39.53433,26.68665 72.1964,62.80282 98.0083,102.91377 36.0352,55.99769 59.0474,119.89899 70.5511,185.48816 8.8025,50.18812 10.9688,101.795 3.1445,152.1449 -7.8242,50.3499 -25.8476,99.44839 -55.1605,141.12677 -12.1342,17.25297 -26.2489,33.27772 -43.0398,46.04364 -16.7909,12.76592 -36.3671,22.20248 -57.18806,25.57764 -32.04519,5.19466 -65.52511,-4.45402 -92.20323,-22.95149 -26.67812,-18.49748 -46.89809,-45.29232 -61.00006,-74.53293 -21.90075,-45.41147 -29.6267,-96.98104 -25.96034,-147.26427 3.66635,-50.28322 18.41112,-99.35917 39.43304,-145.18409 29.94928,-65.28534 72.83199,-124.60678 125.43337,-173.51721 l 72.96498,83.17748 c -87.82941,42.61851 -151.39582,131.70576 -163.12838,228.62165 -2.62272,21.66475 -2.73158,44.16127 4.62543,64.7067 3.6785,10.27271 9.22606,19.93983 16.71833,27.87242 7.49227,7.93259 16.96804,14.08756 27.45342,17.10697 10.56079,3.04112 21.94243,2.84331 32.57709,0.0715 10.63465,-2.77178 20.53422,-8.05816 29.18391,-14.83766 17.29937,-13.55901 29.3662,-32.68471 39.183,-52.35057 26.9248,-53.93825 39.235,-116.98956 24.0929,-175.3419 -9.1374,-35.21248 -27.9066,-67.51995 -51.79467,-94.95663 -19.3638,-22.24032 -42.3694,-41.63164 -68.83944,-54.62878 -26.47003,-12.99715 -56.54201,-19.38135 -85.79855,-15.68764 -37.43727,4.72655 -71.75535,25.86853 -96.23828,54.58222 -24.48293,28.71368 -39.64667,64.5481 -47.64294,101.42559 -19.01747,87.70545 1.83341,181.05124 45.53427,259.43584 8.8978,15.95966 18.79548,31.582 24.38565,48.97831 2.79508,8.69815 4.47791,17.81101 4.27103,26.94489 -0.20687,9.13387 -2.35195,18.29866 -6.83351,26.26019 -4.20112,7.46332 -10.37661,13.73076 -17.486,18.50643 -7.10939,4.77568 -15.13753,8.09288 -23.42033,10.27135 -16.56558,4.35696 -33.93951,4.19729 -51.06665,3.94662 -151.16142,-2.21239 -302.30414,-9.27916 -453.45419,-6.3925 -50.68004,0.96789 -101.3387,3.05493 -151.926618,6.25886 -18.725708,1.18597 -35.234664,-12.83693 -36.88736,-31.52731 L 7.1404625,650.03765 c -1.6526964,-18.69038 6.0509505,-21.48434 19.4770175,-8.40247 36.46024,35.52552 84.73746,58.95301 135.34641,64.85546 66.0662,7.70521 134.27359,-14.28725 186.12853,-55.94272 32.38861,-26.01802 58.88393,-59.6504 75.01282,-97.93641 16.12889,-38.28601 21.67011,-81.22109 14.10138,-122.0705 -5.36863,-28.97518 -17.621,-57.25028 -38.35356,-78.19172 -10.36628,-10.47072 -22.7685,-18.99576 -36.47044,-24.41357 -13.70194,-5.41782 -28.70827,-7.68149 -43.34649,-6.0027 -18.88014,2.16528 -36.81661,10.92115 -50.70414,23.89361 -13.88754,12.97246 -23.75812,30.03266 -28.88142,48.33293 -5.12331,18.30027 -5.57331,37.7923 -2.11794,56.47943 3.45537,18.68712 10.75912,36.57575 20.65946,52.79708 9.68799,15.87341 21.9045,30.18926 36.00059,42.31698 14.20189,12.21875 12.79497,22.6149 -5.59139,26.35699 l -81.8175,16.65194 c -18.38636,3.74209 -37.25293,-7.91096 -41.86582,-26.09825 -6.03921,-23.8109 -11.72996,-47.71019 -17.06972,-71.68765 -7.46921,-33.53943 -14.27405,-67.40976 -15.65292,-101.74314 -1.37887,-34.33338 2.8634,-69.36893 16.715,-100.81436 z" id="path873-9" ns2:path-effect="#path-effect1085;#path-effect846" ns2:original-d="m 148.71033,288.41858 c 43.3125,-68.21724 138.86975,-115.8185 218.84613,-104.27105 74.04986,10.69175 138.39359,80.8044 167.04304,149.9196 31.31327,75.54149 18.17441,169.41783 -13.10683,244.97262 -27.51541,66.45904 -144.16321,160.56802 -144.16321,160.56802 l -1.51924,-44.1693 c 0,0 89.63827,3.03832 134.47059,2.7766 26.79643,-0.15643 42.70681,1.6077 63.08315,-3.73247 15.02366,-3.93736 33.84102,-7.12737 41.88291,-20.41425 7.06332,-11.67009 -0.34987,-27.29046 -1.17547,-40.90663 -6.26773,-103.36999 -41.68454,-206.61645 -28.66352,-309.35443 6.08172,-47.98575 16.74516,-100.5462 49.01087,-136.5815 44.71755,-49.94187 113.73674,-92.13034 180.66585,-88.343073 91.52,5.178773 173.97361,76.807773 231.8407,147.900183 41.7596,51.30361 64.3448,119.62917 70.5511,185.48816 9.3148,98.84503 0.9692,209.30931 -52.016,293.27167 -21.9142,34.72613 -59.1801,70.51769 -100.22786,71.62128 -60.5077,1.62677 -125.30379,-43.76806 -153.20329,-97.48442 -44.97975,-86.60187 -18.70084,-200.31842 13.4727,-292.44836 23.52989,-67.37858 125.43337,-173.51721 125.43337,-173.51721 l 72.96498,83.17748 c 0,0 -153.72814,135.47693 -163.12838,228.62165 -4.01813,39.8147 10.36888,98.52268 48.79718,109.68609 38.80262,11.27214 79.47067,-32.88805 100.944,-67.1167 31.3525,-49.97606 34.7362,-117.31343 24.0929,-175.3419 -6.5045,-35.46309 -25.392,-70.40389 -51.79467,-94.95663 -41.46611,-38.56072 -99.13655,-81.5395 -154.63799,-70.31642 -69.33886,14.02118 -123.9494,88.1315 -143.88122,156.00781 -24.73801,84.24343 28.77347,173.24999 45.53427,259.43584 6.64878,34.18876 38.80401,71.77405 21.82317,102.18339 -15.86494,28.41097 -59.86849,27.41583 -91.97298,32.7244 -149.14129,24.66093 -302.30713,-8.81174 -453.45419,-6.3925 C 144.22394,792.41887 129.34393,787.13657 20.400883,800 L 4.147991,616.19573 c 0,0 97.601199,83.40902 157.815899,90.29491 64.36512,7.36052 138.24156,-12.30919 186.12853,-55.94272 58.48567,-53.29083 106.48492,-142.814 89.1142,-220.00691 -11.74533,-52.19449 -66.35454,-121.92434 -118.17049,-108.60799 -61.82224,15.88789 -76.07132,119.466 -61.04404,181.50305 6.97016,28.77485 63.70065,61.89832 63.70065,61.89832 l -148.4004,30.20324 c 0,0 -21.4324,-68.92279 -25.64409,-104.56155 -7.92419,-67.05349 -35.12922,-145.55615 1.06208,-202.5575 z" ns1:nodetypes="aaaaccsaaaaaaaaaaaaccaaaaaaaaaaaccaaaaaccaa" /></svg>