<svg xmlns="http://www.w3.org/2000/svg" xmlns:dc="http://purl.org/dc/elements/1.1/" xmlns:ns1="http://sodipodi.sourceforge.net/DTD/sodipodi-0.dtd" xmlns:ns2="http://www.inkscape.org/namespaces/inkscape" xmlns:ns4="http://creativecommons.org/ns#" xmlns:rdf="http://www.w3.org/1999/02/22-rdf-syntax-ns#" xml:space="preserve" width="2000" height="1000" version="1.1" style="clip-rule:evenodd;fill-rule:evenodd;image-rendering:optimizeQuality;shape-rendering:geometricPrecision;text-rendering:geometricPrecision" viewBox="0 0 2000 1000" id="svg10" ns1:docname="ഛൃ.svg" ns2:version="1.1.1 (3bf5ae0d25, 2021-09-20)"><metadata id="metadata14"><rdf:RDF><ns4:Work rdf:about=""><dc:format>image/svg+xml</dc:format><dc:type rdf:resource="http://purl.org/dc/dcmitype/StillImage" /></ns4:Work></rdf:RDF></metadata><ns1:namedview pagecolor="#ffffff" bordercolor="#666666" borderopacity="1" objecttolerance="10" gridtolerance="10" guidetolerance="10" ns2:pageopacity="0" ns2:pageshadow="2" ns2:window-width="1920" ns2:window-height="1009" id="namedview12" showgrid="false" ns2:zoom="0.84890884" ns2:cx="365.76365" ns2:cy="785.71452" ns2:window-x="0" ns2:window-y="0" ns2:window-maximized="1" ns2:current-layer="svg10" showguides="true" ns2:guide-bbox="true" ns2:document-rotation="0" ns2:pagecheckerboard="0"><ns1:guide position="0,1000" orientation="0,1" id="guide16" ns2:label="" ns2:locked="true" ns2:color="rgb(0,0,255)" /><ns1:guide position="1763.3122,2036.1693" orientation="1000,0" id="guide18" /><ns1:guide position="0,200" orientation="0,1" id="guide20" ns2:label="base" ns2:locked="true" ns2:color="rgb(0,0,255)" /><ns2:grid type="xygrid" id="grid24" originx="-473.37552" originy="-489.69235" /><ns1:guide position="0,0" orientation="0,1" id="guide34" ns2:label="bottom" ns2:locked="true" ns2:color="rgb(0,0,255)" /><ns1:guide position="225.05109,1693.3186" orientation="0,1" id="guide44" ns2:label="" ns2:locked="false" ns2:color="rgb(0,0,255)" /><ns1:guide position="0,900" orientation="0,1" id="guide46" ns2:label="" ns2:locked="true" ns2:color="rgb(0,0,255)" /><ns1:guide position="1362.7951,633.32329" orientation="-1,0" id="guide841" ns2:label="width" ns2:locked="false" ns2:color="rgb(0,0,255)" /></ns1:namedview>
 <defs id="defs4"><ns2:path-effect effect="fillet_chamfer" id="path-effect1080" is_visible="true" lpeversion="1" satellites_param="F,0,0,1,0,0,0,1 @ F,0,0,1,0,0,0,1 @ F,0,0,1,0,0,0,1 @ F,0,0,1,0,0,0,1 @ F,0,0,1,0,0,0,1 @ F,0,0,1,0,0,0,1 @ F,0,0,1,0,0,0,1 @ F,0,0,1,0,0,0,1 @ F,0,0,1,0,0,0,1 @ F,0,0,1,0,0,0,1 @ F,0,0,1,0,0,0,1 @ F,0,0,1,0,0,0,1 @ F,0,0,1,0,0,0,1 @ F,0,0,1,0,0,0,1 @ F,0,0,1,0,0,0,1 @ F,0,0,1,0,0,0,1 @ F,0,0,1,0,0,0,1 @ F,0,0,1,0,0,0,1 @ F,0,0,1,0,0,0,1 @ F,0,0,1,0,0,0,1 @ F,0,0,1,0,0,0,1 @ F,0,0,1,0,0,0,1 @ F,0,0,1,0,0,0,1 @ F,0,0,1,0,0,0,1 @ F,0,0,1,0,0,0,1 @ F,0,0,1,0,0,0,1 @ F,0,0,1,0,0,0,1 @ F,0,0,1,0,0,0,1 @ F,0,0,1,0,0,0,1 @ F,0,0,1,0,0,0,1 @ F,0,0,1,0,0,0,1 @ F,0,0,1,0,0,0,1 @ F,0,0,1,0,0,0,1 @ F,0,0,1,0,0,0,1 @ F,0,0,1,0,0,0,1 @ F,0,0,1,0,0,0,1 @ F,0,0,1,0,0,0,1 @ F,0,0,1,0,0,0,1 @ F,0,0,1,0,0,0,1 @ F,0,0,1,0,0,0,1 @ F,0,0,1,0,0,0,1 @ F,0,0,1,0,0,0,1 @ F,0,0,1,0,0,0,1 @ F,0,0,1,0,0,0,1 @ F,0,0,1,0,0,0,1 @ F,0,0,1,0,0,0,1 @ F,0,0,1,0,0,0,1 @ F,0,0,1,0,0,0,1 @ F,0,0,1,0,0,0,1 @ F,0,0,1,0,0,0,1 @ F,0,0,1,0,0,0,1 @ F,0,0,1,0,0,0,1 @ F,0,0,1,0,0,0,1 @ F,0,0,1,0,0,0,1 @ F,0,0,1,0,0,0,1 @ F,0,0,1,0,0,0,1 @ F,0,0,1,0,0,0,1 @ F,0,0,1,0,0,0,1 @ F,0,0,1,0,0,0,1 @ F,0,0,1,0,0,0,1 @ F,0,0,1,0,0,0,1 @ F,0,0,1,0,0,0,1 @ F,0,0,1,0,0,0,1 @ F,0,0,1,0,0,0,1 @ F,0,0,1,0,0,0,1 @ F,0,0,1,0,0,0,1 @ F,0,0,1,0,0,0,1 @ F,0,0,1,0,0,0,1 @ F,0,0,1,0,0,0,1 @ F,0,0,1,0,0,0,1 @ F,0,0,1,0,0,0,1 @ F,0,0,1,0,0,0,1 @ F,0,0,1,0,0,0,1 @ F,0,0,1,0,0,0,1 @ F,0,0,1,0,0,0,1 @ F,0,0,1,0,0,0,1 @ F,0,0,1,0,0,0,1 @ F,0,0,1,0,0,0,1 @ F,0,0,1,0,0,0,1 @ F,0,0,1,0,0,0,1 @ F,0,0,1,0,0,0,1 @ F,0,1,1,0,16.454356,0,1 @ F,0,1,1,0,16.454356,0,1 @ F,0,0,1,0,0,0,1 @ F,0,0,1,0,0,0,1 @ F,0,0,1,0,0,0,1 @ F,0,0,1,0,0,0,1 @ F,0,0,1,0,0,0,1 @ F,0,0,1,0,0,0,1 @ F,0,0,1,0,0,0,1 @ F,0,0,1,0,0,0,1 @ F,0,0,1,0,0,0,1 @ F,0,0,1,0,0,0,1 @ F,0,0,1,0,0,0,1 @ F,0,1,1,0,16.454356,0,1 @ F,0,0,1,0,16.454356,0,1 @ F,0,0,1,0,0,0,1 @ F,0,0,1,0,0,0,1" unit="px" method="auto" mode="F" radius="0" chamfer_steps="1" flexible="false" use_knot_distance="true" apply_no_radius="true" apply_with_radius="true" only_selected="false" hide_knots="false" /><ns2:path-effect effect="fillet_chamfer" id="path-effect846" is_visible="true" lpeversion="1" satellites_param="F,0,0,1,0,0,0,1 @ F,0,0,1,0,0,0,1 @ F,0,0,1,0,0,0,1 @ F,0,0,1,0,0,0,1 @ F,0,0,1,0,0,0,1 @ F,0,0,1,0,0,0,1 @ F,0,0,1,0,0,0,1 @ F,0,0,1,0,0,0,1 @ F,0,0,1,0,0,0,1 @ F,0,0,1,0,0,0,1 @ F,0,0,1,0,0,0,1 @ F,0,0,1,0,0,0,1 @ F,0,0,1,0,0,0,1 @ F,0,0,1,0,0,0,1 @ F,0,0,1,0,0,0,1 @ F,0,0,1,0,0,0,1 @ F,0,0,1,0,0,0,1 @ F,0,0,1,0,0,0,1 @ F,0,0,1,0,0,0,1 @ F,0,0,1,0,0,0,1 @ F,0,0,1,0,0,0,1 @ F,0,0,1,0,0,0,1 @ F,0,0,1,0,0,0,1 @ F,0,0,1,0,0,0,1 @ F,0,0,1,0,0,0,1 @ F,0,0,1,0,0,0,1 @ F,0,0,1,0,0,0,1 @ F,0,0,1,0,0,0,1 @ F,0,0,1,0,0,0,1 @ F,0,0,1,0,0,0,1 @ F,0,0,1,0,0,0,1 @ F,0,0,1,0,0,0,1 @ F,0,0,1,0,0,0,1 @ F,0,0,1,0,0,0,1 @ F,0,0,1,0,0,0,1 @ F,0,0,1,0,0,0,1 @ F,0,0,1,0,0,0,1 @ F,0,0,1,0,0,0,1 @ F,0,0,1,0,0,0,1 @ F,0,0,1,0,0,0,1 @ F,0,0,1,0,0,0,1 @ F,0,0,1,0,0,0,1 @ F,0,0,1,0,0,0,1 @ F,0,0,1,0,0,0,1 @ F,0,0,1,0,0,0,1 @ F,0,0,1,0,0,0,1 @ F,0,0,1,0,0,0,1 @ F,0,0,1,0,0,0,1 @ F,0,0,1,0,0,0,1 @ F,0,0,1,0,0,0,1 @ F,0,0,1,0,0,0,1 @ F,0,0,1,0,0,0,1 @ F,0,0,1,0,0,0,1 @ F,0,0,1,0,0,0,1 @ F,0,0,1,0,0,0,1 @ F,0,0,1,0,0,0,1 @ F,0,0,1,0,0,0,1 @ F,0,0,1,0,0,0,1 @ F,0,0,1,0,0,0,1 @ F,0,0,1,0,0,0,1 @ F,0,0,1,0,0,0,1 @ F,0,0,1,0,0,0,1 @ F,0,0,1,0,0,0,1 @ F,0,0,1,0,0,0,1 @ F,0,0,1,0,0,0,1 @ F,0,0,1,0,0,0,1 @ F,0,0,1,0,0,0,1 @ F,0,0,1,0,0,0,1 @ F,0,0,1,0,0,0,1 @ F,0,0,1,0,0,0,1 @ F,0,0,1,0,0,0,1 @ F,0,0,1,0,0,0,1 @ F,0,0,1,0,0,0,1 @ F,0,0,1,0,0,0,1 @ F,0,0,1,0,0,0,1 @ F,0,0,1,0,0,0,1 @ F,0,0,1,0,0,0,1 @ F,0,0,1,0,0,0,1 @ F,0,0,1,0,0,0,1 @ F,0,0,1,0,0,0,1 @ F,0,0,1,0,0,0,1 @ F,0,1,1,0,24.173092,0,1 @ F,0,1,1,0,24.173092,0,1 @ F,0,0,1,0,0,0,1 @ F,0,0,1,0,0,0,1 @ F,0,0,1,0,0,0,1 @ F,0,0,1,0,0,0,1 @ F,0,0,1,0,0,0,1 @ F,0,0,1,0,0,0,1 @ F,0,0,1,0,0,0,1 @ F,0,0,1,0,0,0,1 @ F,0,0,1,0,0,0,1 @ F,0,0,1,0,0,0,1 @ F,0,0,1,0,0,0,1 @ F,0,1,1,0,24.173092,0,1 @ F,0,1,1,0,24.173092,0,1 @ F,0,0,1,0,0,0,1 @ F,0,0,1,0,0,0,1" unit="px" method="auto" mode="F" radius="0" chamfer_steps="1" flexible="false" use_knot_distance="true" apply_no_radius="true" apply_with_radius="true" only_selected="true" hide_knots="false" /><ns2:path-effect effect="spiro" id="path-effect851" is_visible="true" lpeversion="1" />
  <style type="text/css" id="style2">
   
    .fil0 {fill:#EF7F1A;fill-rule:nonzero}
   
  </style>
 <ns2:path-effect effect="spiro" id="path-effect1214" is_visible="true" lpeversion="1" /><ns2:path-effect effect="spiro" id="path-effect1195" is_visible="true" lpeversion="1" /><ns2:path-effect effect="spiro" id="path-effect992" is_visible="true" lpeversion="1" /><ns2:path-effect effect="spiro" id="path-effect1060" is_visible="true" lpeversion="1" /><ns2:path-effect effect="spiro" id="path-effect1047" is_visible="true" lpeversion="1" /><ns2:path-effect effect="spiro" id="path-effect1085" is_visible="true" lpeversion="1" /></defs>
 
<path style="display:inline;fill:#1a5fb4;fill-rule:nonzero;stroke:none;stroke-width:2.98568px;stroke-linecap:butt;stroke-linejoin:miter;stroke-opacity:1" d="m 148.71033,288.41858 c 17.6427,-40.06842 50.78007,-72.8211 90.49818,-91.23889 39.71811,-18.41778 85.62788,-22.6102 128.34795,-13.03216 38.00367,8.5206 73.40816,27.69043 102.12706,53.9983 28.71891,26.30787 50.78497,59.62813 64.91598,95.9213 30.50498,78.34701 22.87308,168.98411 -13.10683,244.97262 -41.85507,88.39666 -121.6509,158.03078 -214.90011,187.53336 l -4.02358,-50.52584 c 62.25848,-2.22333 124.54637,-3.62316 186.84188,-4.19899 25.91835,-0.23958 51.92736,-0.34263 77.60483,-3.87614 12.0958,-1.66452 24.24319,-4.13943 35.21095,-9.50481 10.96775,-5.36537 20.753,-13.90113 25.64028,-25.09012 3.31358,-7.58614 4.24849,-16.04332 3.84959,-24.31194 -0.3989,-8.26863 -2.08282,-16.41593 -3.82519,-24.50873 -21.41187,-99.45167 -52.68848,-199.53186 -42.48345,-300.74925 4.91088,-48.70802 19.93586,-97.19582 49.01087,-136.5815 41.38002,-56.05432 111.012,-89.996693 180.66585,-88.343073 47.7058,1.132563 94.38633,18.093573 133.91823,44.820983 39.53191,26.72741 72.13828,62.92573 97.92248,103.0792 35.9792,56.03008 59.0231,119.9063 70.5511,185.48816 8.8219,50.18741 10.9988,101.7981 3.1744,152.15067 -7.8244,50.35257 -25.859,99.45241 -55.1904,141.121 -12.1401,17.24635 -26.2607,33.26239 -43.0517,46.02481 -16.791,12.76242 -36.36054,22.20123 -57.17617,25.59647 -32.05641,5.22873 -65.57144,-4.36444 -92.27582,-22.85305 -26.70438,-18.48862 -46.93111,-45.32174 -60.92747,-74.63137 -21.69412,-45.42942 -28.98521,-96.98764 -25.16299,-147.18583 3.82221,-50.19819 18.42428,-99.15433 38.63569,-145.26253 24.58215,-56.07915 58.09427,-109.07565 103.75888,-149.86653 46.47822,-41.51766 107.09518,-69.81349 169.38578,-67.85944 35.2354,1.10533 69.9422,11.83131 100.4357,29.52011 30.4936,17.6888 56.8147,42.22149 77.8366,70.52047 42.0438,56.59795 62.3369,127.015 68.7132,197.23145 16.5077,181.78414 -60.1188,368.49968 -196.1034,490.26239 -57.505,51.49082 -125.2148,92.05292 -198.82418,115.28622 -73.60939,23.2332 -153.13953,28.8333 -228.6638,12.8893 -37.62053,-7.9421 -74.77209,-21.505 -104.95782,-45.321 -15.09286,-11.908 -28.30233,-26.3188 -38.12898,-42.8424 -9.82665,-16.5237 -16.21812,-35.18652 -17.74167,-54.35091 -2.07858,-26.14606 5.02235,-52.66905 18.36866,-75.24808 13.34631,-22.57904 32.73659,-41.29872 54.83412,-55.42798 46.73988,-29.88569 104.4816,-38.98886 159.80371,-34.83728 55.32211,4.15159 108.9189,20.69146 161.34578,38.83517 65.37058,22.62321 129.81658,47.91777 193.12328,75.79937 l -127.615,118.62201 C 979.95996,987.34502 931.5903,951.18533 878.61851,923.94958 840.32405,904.26026 798.80972,889.04865 755.77698,887.5259 c -14.27326,-0.50507 -28.86305,0.56273 -42.13275,5.84443 -6.63484,2.64084 -12.88343,6.33149 -18.1669,11.13568 -5.28348,4.80418 -9.58558,10.7395 -12.18393,17.39111 -5.06201,12.95842 -3.29023,27.95715 2.82168,40.45471 6.11192,12.49756 16.21938,22.69044 27.49523,30.83904 23.44381,16.94193 52.19169,25.64653 81.03337,27.83693 28.84169,2.1903 57.86585,-1.8681 85.98418,-8.6504 115.01518,-27.74244 216.36214,-101.56636 287.17484,-196.34874 64.9357,-86.91614 105.9191,-193.66255 104.396,-302.1464 -0.6025,-42.91257 -8.0206,-86.46492 -28.0042,-124.44526 -19.9837,-37.98034 -53.5872,-69.95952 -94.795,-81.94991 -39.8734,-11.60212 -83.4513,-3.76621 -121.1637,13.61966 -45.4661,20.96039 -84.30619,55.56227 -111.66649,97.4898 -27.3603,41.92754 -43.3267,90.99171 -47.44065,140.88739 -1.52989,18.55519 -1.39569,37.63232 4.56276,55.27127 2.97922,8.81947 7.418,17.19539 13.46135,24.27613 6.04335,7.08073 13.72282,12.83893 22.41632,16.1679 10.4147,3.98806 22.05204,4.37946 32.91346,1.84963 10.86142,-2.52984 20.95915,-7.89471 29.65365,-14.87872 17.38898,-13.96801 28.9123,-33.89099 38.3769,-54.08761 25.5377,-54.49514 38.8962,-117.00876 24.0929,-175.3419 -8.9508,-35.27105 -27.8508,-67.55489 -51.79468,-94.95663 -19.3999,-22.20156 -42.40231,-41.57916 -68.86349,-54.5819 -26.46119,-13.00274 -56.52139,-19.41161 -85.7745,-15.73452 -37.44207,4.70643 -71.76682,25.85125 -96.24755,54.56977 -24.48072,28.71853 -39.63615,64.55852 -47.63367,101.43804 -19.02014,87.70886 1.7749,181.07943 45.53427,259.43584 8.91179,15.95764 18.82866,31.57531 24.42569,48.97472 2.79852,8.6997 4.4814,17.81593 4.26837,26.95219 -0.21304,9.13626 -2.37096,18.30241 -6.87089,26.25648 -4.21419,7.44899 -10.4024,13.69563 -17.5184,18.45057 -7.11599,4.75494 -15.14485,8.05199 -23.42418,10.21982 -16.55867,4.33566 -33.91409,4.19367 -51.0304,4.05401 -120.82458,-0.98588 -241.65609,-0.45322 -362.48262,0.25429 -86.78034,0.50815 -173.56014,1.1065 -260.339238,1.79505 -9.087203,0.0721 -17.102712,-7.2066 -17.90315,-16.25877 L 5.5973123,632.58613 c -0.8004381,-9.05217 2.9530024,-10.46858 8.9532777,-3.64643 37.481459,42.61535 90.99869,70.97138 147.4133,77.55094 66.0662,7.70521 134.27359,-14.28725 186.12853,-55.94272 32.38861,-26.01802 58.88393,-59.6504 75.01282,-97.93641 16.12889,-38.28601 21.67011,-81.22109 14.10138,-122.0705 -5.36863,-28.97518 -17.621,-57.25028 -38.35356,-78.19172 -10.36628,-10.47072 -22.7685,-18.99576 -36.47044,-24.41357 -13.70194,-5.41782 -28.70827,-7.68149 -43.34649,-6.0027 -18.88014,2.16528 -36.81661,10.92115 -50.70414,23.89361 -13.88754,12.97246 -23.75812,30.03266 -28.88142,48.33293 -5.12331,18.30027 -5.57331,37.7923 -2.11794,56.47943 3.45537,18.68712 10.75912,36.57575 20.65946,52.79708 12.73066,20.85871 29.82748,39.02787 49.81799,53.07668 7.43237,5.22327 6.66379,10.29086 -2.24114,12.10324 l -116.1528,23.64004 c -8.90493,1.81238 -18.03686,-3.83263 -20.33248,-12.62538 -7.68062,-29.41861 -14.82735,-58.97662 -21.43541,-88.65457 -7.46783,-33.53934 -14.27005,-67.40973 -15.64797,-101.74276 -1.37791,-34.33303 2.8634,-69.36755 16.71005,-100.81474 z" id="path873-9" ns2:path-effect="#path-effect1085;#path-effect1080" ns2:original-d="m 148.71033,288.41858 c 43.3125,-68.21724 138.86975,-115.8185 218.84613,-104.27105 74.04986,10.69175 138.39359,80.8044 167.04304,149.9196 31.31327,75.54149 20.45401,178.29275 -13.10683,244.97262 -23.46555,45.27798 -214.90011,187.53336 -214.90011,187.53336 l -4.02358,-50.52584 c 0,0 124.58631,-1.94512 186.84188,-4.19899 25.88357,-0.93708 52.73767,3.36688 77.60483,-3.87614 22.40167,-6.52489 49.11277,-14.43017 60.85123,-34.59493 8.18712,-14.06414 1.16125,-32.58687 0.0244,-48.82067 -7.07279,-100.99765 -52.8025,-200.03149 -42.48345,-300.74925 4.92991,-48.11772 16.74516,-100.5462 49.01087,-136.5815 44.71755,-49.94187 113.73674,-92.13034 180.66585,-88.343073 91.52,5.178773 173.97361,76.807773 231.84071,147.900183 41.7596,51.30361 64.3448,119.62917 70.5511,185.48816 9.3148,98.84503 0.9692,209.30931 -52.016,293.27167 -21.9142,34.72613 -59.1801,70.51769 -100.22787,71.62128 -60.5077,1.62677 -125.30379,-43.76806 -153.20329,-97.48442 -44.97975,-86.60187 -17.76158,-199.99577 13.4727,-292.44836 19.44734,-57.56358 56.25248,-111.98637 103.75888,-149.86653 47.5568,-37.92035 110.42598,-82.80417 169.38578,-67.85944 124.8799,31.65372 226.9211,170.01495 246.9855,297.27203 27.4124,173.86163 -66.2209,371.47761 -196.1034,490.26239 -109.777,100.39702 -282.2101,160.18932 -427.48798,128.17552 -69.95052,-15.4145 -148.8842,-71.8884 -160.82847,-142.51431 -8.32555,-49.22855 29.97073,-105.70099 73.20278,-130.67606 92.7011,-53.55323 216.08387,-16.56075 321.14949,3.99789 67.86828,13.28007 210.78388,100.06081 193.12328,75.79937 l -127.615,118.62201 c 7.3947,-14.5812 -89.46507,-79.9038 -142.45429,-106.49452 -38.17258,-19.15553 -80.25971,-39.72051 -122.84153,-36.42368 -26.66022,2.06412 -62.98957,9.37339 -72.48358,34.37122 -9.16879,24.14151 9.6275,55.83969 30.31691,71.29375 44.89647,33.53563 112.62085,32.65243 167.01755,19.18653 112.56313,-27.86505 216.82404,-104.16594 287.17484,-196.34874 64.6463,-84.70783 115.2482,-196.14271 104.396,-302.1464 -8.153,-79.63832 -51.1043,-170.77817 -122.7992,-206.39517 -36.3982,-18.08211 -86.4535,-7.52265 -121.1637,13.61966 -81.58902,49.69669 -150.10252,143.26963 -159.10714,238.37719 -3.26468,34.48176 7.27194,85.74028 40.44043,95.7153 38.69478,11.63698 79.47067,-32.88805 100.94401,-67.1167 31.3525,-49.97606 34.7362,-117.31343 24.0929,-175.3419 -6.5045,-35.46309 -25.392,-70.40389 -51.79468,-94.95663 -41.46611,-38.56072 -99.13655,-81.5395 -154.63799,-70.31642 -69.33886,14.02118 -123.9494,88.1315 -143.88122,156.00781 -24.73801,84.24343 28.77347,173.24999 45.53427,259.43584 6.64878,34.18876 38.80401,71.77405 21.82317,102.18339 -15.86494,28.41097 -59.90864,27.17844 -91.97298,32.7244 C 540.6168,818.41202 418.02064,797.61042 297.19395,798.07332 204.92804,798.4268 129.34393,787.13657 20.400883,800 L 4.147991,616.19573 c 0,0 97.601199,83.40902 157.815899,90.29491 64.36512,7.36052 138.24156,-12.30919 186.12853,-55.94272 58.48567,-53.29083 106.48492,-142.814 89.1142,-220.00691 -11.74533,-52.19449 -66.35454,-121.92434 -118.17049,-108.60799 -61.82224,15.88789 -76.07132,119.466 -61.04404,181.50305 6.97016,28.77485 63.70065,61.89832 63.70065,61.89832 l -148.4004,30.20324 c 0,0 -21.4324,-68.92279 -25.64409,-104.56155 -7.92419,-67.05349 -35.12922,-145.55615 1.06208,-202.5575 z" ns1:nodetypes="aaacccaaaaaaaaaaaaaaaaaaaaaccaaaaaaaaaaaaaaaaaaaaccaaaaaccaa" /></svg>