<?xml version="1.0" encoding="UTF-8" standalone="no"?>
<svg
   xmlns:dc="http://purl.org/dc/elements/1.1/"
   xmlns:cc="http://creativecommons.org/ns#"
   xmlns:rdf="http://www.w3.org/1999/02/22-rdf-syntax-ns#"
   xmlns:svg="http://www.w3.org/2000/svg"
   xmlns="http://www.w3.org/2000/svg"
   xmlns:sodipodi="http://sodipodi.sourceforge.net/DTD/sodipodi-0.dtd"
   xmlns:inkscape="http://www.inkscape.org/namespaces/inkscape"
   xml:space="preserve"
   width="2000"
   height="1000"
   version="1.1"
   style="clip-rule:evenodd;fill-rule:evenodd;image-rendering:optimizeQuality;shape-rendering:geometricPrecision;text-rendering:geometricPrecision"
   viewBox="0 0 2000 1000"
   id="svg10"
   sodipodi:docname="ഛു.svg"
   inkscape:version="1.0.1 (3bc2e813f5, 2020-09-07)"><metadata
   id="metadata14"><rdf:RDF><cc:Work
       rdf:about=""><dc:format>image/svg+xml</dc:format><dc:type
         rdf:resource="http://purl.org/dc/dcmitype/StillImage" /><dc:title /></cc:Work></rdf:RDF></metadata><sodipodi:namedview
   pagecolor="#ffffff"
   bordercolor="#666666"
   borderopacity="1"
   objecttolerance="10"
   gridtolerance="10"
   guidetolerance="10"
   inkscape:pageopacity="0"
   inkscape:pageshadow="2"
   inkscape:window-width="1920"
   inkscape:window-height="1015"
   id="namedview12"
   showgrid="false"
   inkscape:zoom="0.6002692"
   inkscape:cx="739.63402"
   inkscape:cy="560.07666"
   inkscape:window-x="1920"
   inkscape:window-y="0"
   inkscape:window-maximized="1"
   inkscape:current-layer="svg10"
   showguides="true"
   inkscape:guide-bbox="true"
   inkscape:document-rotation="0"><sodipodi:guide
     position="0,1000"
     orientation="0,1"
     id="guide16"
     inkscape:label=""
     inkscape:locked="true"
     inkscape:color="rgb(0,0,255)" /><sodipodi:guide
     position="1763.3122,2036.1693"
     orientation="1000,0"
     id="guide18" /><sodipodi:guide
     position="0,200"
     orientation="0,1"
     id="guide20"
     inkscape:label="base"
     inkscape:locked="true"
     inkscape:color="rgb(0,0,255)" /><inkscape:grid
     type="xygrid"
     id="grid24"
     originx="-473.37552"
     originy="-489.69235" /><sodipodi:guide
     position="0,0"
     orientation="0,1"
     id="guide34"
     inkscape:label="bottom"
     inkscape:locked="true"
     inkscape:color="rgb(0,0,255)" /><sodipodi:guide
     position="225.05109,1693.3186"
     orientation="0,1"
     id="guide44"
     inkscape:label=""
     inkscape:locked="false"
     inkscape:color="rgb(0,0,255)" /><sodipodi:guide
     position="0,900"
     orientation="0,1"
     id="guide46"
     inkscape:label=""
     inkscape:locked="true"
     inkscape:color="rgb(0,0,255)" /><sodipodi:guide
     position="1362.7951,633.32329"
     orientation="-1,0"
     id="guide841"
     inkscape:label="width"
     inkscape:locked="false"
     inkscape:color="rgb(0,0,255)" /></sodipodi:namedview>
 <defs
   id="defs4"><inkscape:path-effect
   effect="spiro"
   id="path-effect851"
   is_visible="true"
   lpeversion="1" />
  <style
   type="text/css"
   id="style2">
   <![CDATA[
    .fil0 {fill:#EF7F1A;fill-rule:nonzero}
   ]]>
  </style>
 <inkscape:path-effect
   effect="spiro"
   id="path-effect1214"
   is_visible="true"
   lpeversion="1" /><inkscape:path-effect
   effect="spiro"
   id="path-effect1195"
   is_visible="true"
   lpeversion="1" /><inkscape:path-effect
   effect="spiro"
   id="path-effect992"
   is_visible="true"
   lpeversion="1" /><inkscape:path-effect
   effect="spiro"
   id="path-effect1060"
   is_visible="true"
   lpeversion="1" /><inkscape:path-effect
   effect="spiro"
   id="path-effect1047"
   is_visible="true"
   lpeversion="1" /><inkscape:path-effect
   effect="spiro"
   id="path-effect1085"
   is_visible="true"
   lpeversion="1" /></defs>
 
<path
   style="display:inline;fill:#1a1a1a;fill-rule:nonzero;stroke:none;stroke-width:2.98568px;stroke-linecap:butt;stroke-linejoin:miter;stroke-opacity:1"
   d="m 156.71033,288.41858 c 17.62437,-40.09309 50.73848,-72.89427 90.46307,-91.33422 39.72458,-18.43995 85.67075,-22.61842 128.38306,-12.93683 37.95251,8.60269 73.25238,27.88646 101.91388,54.20979 28.66151,26.32333 50.73036,59.55633 65.12916,95.70981 31.18631,78.30466 25.1023,169.84427 -13.10683,244.97262 -24.35307,47.88399 -61.20537,89.34272 -105.90401,119.1417 52.09726,2.8e-4 104.19452,-0.66807 156.27463,-2.00485 24.39659,-0.6262 48.78941,-1.39908 73.1767,-2.31857 -15.02958,-30.298 -27.64585,-61.79273 -37.69002,-94.0878 -27.63521,-88.85558 -35.51335,-183.90404 -21.94209,-275.96294 7.12211,-48.31189 20.59658,-96.86511 49.01087,-136.5815 20.30272,-28.37835 47.88634,-51.45895 79.27505,-66.69969 31.38871,-15.24074 66.51185,-22.638396 101.3908,-21.643383 47.67581,1.360073 94.28425,18.332273 133.81923,45.012183 39.53498,26.67991 72.20617,62.78309 98.02147,102.888 36.0425,55.99325 59.0453,119.89911 70.5511,185.48816 8.8043,50.18918 10.9794,101.79699 3.1588,152.14883 -7.8206,50.35183 -25.8466,99.45362 -55.1748,141.12284 -12.1391,17.24714 -26.2597,33.26343 -43.051,46.02573 -16.7912,12.7623 -36.36108,22.2006 -57.17686,25.59555 -32.05649,5.22826 -65.57146,-4.36461 -92.27599,-22.85303 C 854.25202,755.82257 834.02506,728.9895 820.02925,699.67959 798.3362,654.25016 791.048,602.69194 794.87133,552.4943 c 3.82334,-50.19765 18.42463,-99.15299 38.63062,-145.26307 24.5762,-56.0829 58.07917,-109.09097 103.75888,-149.86653 46.4878,-41.4969 107.09937,-69.7335 169.38577,-67.85944 35.2694,1.06118 70.0281,11.71854 100.5894,29.35545 30.5614,17.63691 56.9638,42.13608 78.0405,70.43503 42.1534,56.59789 62.4346,127.15963 68.3556,197.48155 6.1824,73.42577 -2.7355,148.752 -31.3455,216.65662 -28.6099,67.90463 -77.5641,128.0129 -141.3045,164.98212 -51.7316,30.00412 -112.4766,44.22921 -172.1513,40.31388 62.6967,22.44286 131.4868,27.59088 196.8255,14.72977 48.9422,-9.63365 95.8956,-29.25793 137.137,-57.31665 l 2.4595,171.06017 c -56.1402,9.1773 -113.4873,10.9444 -170.086,5.2409 -91.824,-9.2531 -180.77786,-37.937 -272.47773,-48.34843 -65.48259,-7.43479 -132.02844,-5.4398 -196.94805,5.90433 l -0.14283,-133.7121 c 49.5847,-20.34859 102.61348,-32.27478 156.13582,-35.11501 51.04316,-2.70867 102.17325,2.7792 153.28489,2.19712 51.1117,-0.58209 103.7066,-7.77523 147.8567,-33.53393 46.8991,-27.36258 80.626,-74.11719 98.8785,-125.25508 18.2524,-51.13789 22.0025,-106.51777 18.4446,-160.69874 -2.7969,-42.59162 -10.2494,-85.64004 -29.6998,-123.63413 -9.7252,-18.99704 -22.4236,-36.56869 -38.1396,-51.00731 -15.716,-14.43861 -34.4967,-25.69314 -54.9598,-31.75373 -39.8009,-11.78792 -83.2452,-3.26988 -121.1637,13.61966 -44.55738,19.84663 -83.94982,51.20388 -113.16274,90.26606 -29.21291,39.06219 -48.16712,85.75003 -54.30114,134.14034 -2.74671,21.66839 -2.87648,44.19852 4.50572,64.75495 3.6911,10.27821 9.26203,19.94447 16.77754,27.86804 7.51551,7.92358 17.01366,14.06137 27.51392,17.0631 10.56328,3.01975 21.9391,2.80893 32.56874,0.0318 10.62964,-2.77715 20.52496,-8.06181 29.17377,-14.83677 17.2976,-13.54991 29.37669,-32.65768 39.20149,-52.3117 26.9565,-53.92511 39.243,-116.98911 24.0929,-175.3419 -9.1418,-35.21107 -27.9082,-67.5189 -51.79467,-94.95663 -19.36283,-22.24155 -42.36816,-41.63386 -68.83842,-54.63121 -26.47026,-12.99734 -56.54298,-19.38084 -85.79957,-15.68521 -37.43598,4.72884 -71.75102,25.87339 -96.23239,54.5871 -24.48137,28.7137 -39.64552,64.54577 -47.64883,101.42071 -19.03579,87.70664 1.7721,181.07968 45.53427,259.43584 8.91228,15.95743 18.82925,31.57512 24.42621,48.97461 2.79848,8.69974 4.48128,17.81602 4.26815,26.9523 -0.21314,9.13628 -2.37117,18.30243 -6.87119,26.25648 -4.21425,7.44894 -10.40249,13.69553 -17.51849,18.45045 -7.116,4.75491 -15.14484,8.05196 -23.42416,10.21979 -16.55865,4.33568 -33.91404,4.19376 -51.03033,4.05416 -120.82458,-0.98546 -241.6561,-0.4531 -362.48263,0.25429 C 212.92892,798.61349 120.66449,799.25572 28.400883,800 L 12.147991,616.19573 c 37.570291,49.67699 95.950959,83.07969 157.815899,90.29491 66.0662,7.70521 134.27359,-14.28725 186.12853,-55.94272 32.38861,-26.01802 58.88393,-59.6504 75.01282,-97.93641 16.12889,-38.28601 21.67011,-81.22109 14.10138,-122.0705 -5.36863,-28.97518 -17.621,-57.25028 -38.35356,-78.19172 -10.36628,-10.47072 -22.7685,-18.99576 -36.47044,-24.41357 -13.70194,-5.41782 -28.70827,-7.68149 -43.34649,-6.0027 -18.88014,2.16528 -36.81661,10.92115 -50.70414,23.89361 -13.88754,12.97246 -23.75812,30.03266 -28.88142,48.33293 -5.12331,18.30027 -5.57331,37.7923 -2.11794,56.47943 3.45537,18.68712 10.75912,36.57575 20.65946,52.79708 15.58833,25.54089 37.72298,47.04927 63.70065,61.89832 l -148.4004,30.20324 c -9.29869,-34.66401 -17.84937,-69.52868 -25.64409,-104.56155 -7.46233,-33.53899 -14.25406,-67.4096 -15.62815,-101.74125 -1.3741,-34.33165 2.86339,-69.36202 16.69023,-100.81625 z"
   id="path873-9"
   inkscape:path-effect="#path-effect1085"
   inkscape:original-d="m 156.71033,288.41858 c 43.3125,-68.21724 138.86975,-115.8185 218.84613,-104.27105 74.04986,10.69175 138.39359,80.8044 167.04304,149.9196 31.31327,75.54149 20.45401,178.29275 -13.10683,244.97262 -23.46555,45.27798 -64.59062,88.69178 -105.90401,119.1417 0,0 104.1917,-0.84576 156.27463,-2.00485 24.39843,-0.54298 52.35807,3.87202 73.1767,-2.31857 -42.50259,-28.54195 -29.98191,-61.1935 -37.69002,-94.0878 -21.05318,-89.84423 -34.14159,-184.49494 -21.94209,-275.96294 6.39465,-47.94505 16.74516,-100.5462 49.01087,-136.5815 44.71755,-49.94187 113.73674,-92.13034 180.66585,-88.343073 91.52,5.178773 173.97361,76.807773 231.8407,147.900183 41.7596,51.30361 64.3448,119.62917 70.5511,185.48816 9.3148,98.84503 0.9692,209.30931 -52.016,293.27167 -21.9142,34.72613 -59.1801,70.51769 -100.22786,71.62128 -60.5077,1.62677 -125.30379,-43.76806 -153.20329,-97.48442 -44.97975,-86.60187 -18.70084,-200.31842 13.4727,-292.44836 16.64198,-47.65483 56.25248,-111.98637 103.75888,-149.86653 47.5568,-37.92035 110.42597,-82.80417 169.38577,-67.85944 124.8799,31.65372 229.7469,169.60146 246.9855,297.27203 18.6832,138.36931 -64.7867,292.97848 -172.65,381.63874 -45.5295,37.42382 -172.1513,40.31388 -172.1513,40.31388 0,0 131.8801,25.25021 196.8255,14.72977 48.9068,-7.92237 137.137,-57.31665 137.137,-57.31665 l 2.4595,171.06017 c 0,0 -113.5124,9.3442 -170.086,5.2409 -92.003,-6.6731 -180.47755,-41.637 -272.47773,-48.34843 C 837.18429,989.3171 705.74102,1000 705.74102,1000 l -0.14283,-133.7121 c 20.80774,-12.69014 103.49292,-26.48697 156.13582,-35.11501 99.59375,-16.32318 220.34719,29.14153 301.14159,-31.33681 82.4805,-61.74049 124.908,-183.20465 117.3231,-285.95382 -5.8935,-79.83734 -51.1043,-170.77817 -122.7992,-206.39517 -36.3982,-18.08211 -85.9101,-6.6035 -121.1637,13.61966 -80.95975,46.44239 -157.60441,145.80363 -167.46388,224.4064 -4.98046,39.7058 10.36888,98.52268 48.79718,109.68609 38.80262,11.27214 79.47067,-32.88805 100.944,-67.1167 31.3525,-49.97606 34.7362,-117.31343 24.0929,-175.3419 -6.5045,-35.46309 -25.392,-70.40389 -51.79467,-94.95663 -41.46611,-38.56072 -99.13655,-81.5395 -154.63799,-70.31642 -69.33886,14.02118 -123.9494,88.1315 -143.88122,156.00781 -24.73801,84.24343 28.77347,173.24999 45.53427,259.43584 6.64878,34.18876 38.80401,71.77405 21.82317,102.18339 -15.86494,28.41097 -59.90864,27.17844 -91.97298,32.7244 C 548.6168,818.41202 426.02064,797.61042 305.19395,798.07332 212.92804,798.4268 137.34393,787.13657 28.400883,800 L 12.147991,616.19573 c 0,0 97.601199,83.40902 157.815899,90.29491 64.36512,7.36052 138.24156,-12.30919 186.12853,-55.94272 58.48567,-53.29083 106.48492,-142.814 89.1142,-220.00691 -11.74533,-52.19449 -66.35454,-121.92434 -118.17049,-108.60799 -61.82224,15.88789 -76.07132,119.466 -61.04404,181.50305 6.97016,28.77485 63.70065,61.89832 63.70065,61.89832 l -148.4004,30.20324 c 0,0 -21.4324,-68.92279 -25.64409,-104.56155 -7.92419,-67.05349 -35.12922,-145.55615 1.06208,-202.5575 z"
   sodipodi:nodetypes="aaaccacaaaaaaaaasaaaacaccaaccaaaaasaaaaaaaaaaccaaaaaccaa" /></svg>
