<?xml version="1.0" encoding="UTF-8" standalone="no"?>
<svg
   xmlns:dc="http://purl.org/dc/elements/1.1/"
   xmlns:cc="http://creativecommons.org/ns#"
   xmlns:rdf="http://www.w3.org/1999/02/22-rdf-syntax-ns#"
   xmlns:svg="http://www.w3.org/2000/svg"
   xmlns="http://www.w3.org/2000/svg"
   xmlns:sodipodi="http://sodipodi.sourceforge.net/DTD/sodipodi-0.dtd"
   xmlns:inkscape="http://www.inkscape.org/namespaces/inkscape"
   xml:space="preserve"
   width="2000"
   height="1000"
   version="1.1"
   style="clip-rule:evenodd;fill-rule:evenodd;image-rendering:optimizeQuality;shape-rendering:geometricPrecision;text-rendering:geometricPrecision"
   viewBox="0 0 2000 1000"
   id="svg10"
   sodipodi:docname="ഛ്ര.svg"
   inkscape:version="1.0.2 (e86c870879, 2021-01-15)"><metadata
   id="metadata14"><rdf:RDF><cc:Work
       rdf:about=""><dc:format>image/svg+xml</dc:format><dc:type
         rdf:resource="http://purl.org/dc/dcmitype/StillImage" /><dc:title /></cc:Work></rdf:RDF></metadata><sodipodi:namedview
   pagecolor="#ffffff"
   bordercolor="#666666"
   borderopacity="1"
   objecttolerance="10"
   gridtolerance="10"
   guidetolerance="10"
   inkscape:pageopacity="0"
   inkscape:pageshadow="2"
   inkscape:window-width="1920"
   inkscape:window-height="1007"
   id="namedview12"
   showgrid="false"
   inkscape:zoom="0.6002692"
   inkscape:cx="806.27079"
   inkscape:cy="626.71343"
   inkscape:window-x="1920"
   inkscape:window-y="0"
   inkscape:window-maximized="1"
   inkscape:current-layer="svg10"
   showguides="true"
   inkscape:guide-bbox="true"
   inkscape:document-rotation="0"><sodipodi:guide
     position="0,1000"
     orientation="0,1"
     id="guide16"
     inkscape:label=""
     inkscape:locked="true"
     inkscape:color="rgb(0,0,255)" /><sodipodi:guide
     position="1599.848,-102.39449"
     orientation="-1,0"
     id="guide18"
     inkscape:label="width"
     inkscape:locked="false"
     inkscape:color="rgb(0,0,255)" /><sodipodi:guide
     position="0,200"
     orientation="0,1"
     id="guide20"
     inkscape:label="base"
     inkscape:locked="true"
     inkscape:color="rgb(0,0,255)" /><inkscape:grid
     type="xygrid"
     id="grid24"
     originx="-473.37552"
     originy="-489.69235" /><sodipodi:guide
     position="0,0"
     orientation="0,1"
     id="guide34"
     inkscape:label="bottom"
     inkscape:locked="true"
     inkscape:color="rgb(0,0,255)" /><sodipodi:guide
     position="225.05109,1693.3186"
     orientation="0,1"
     id="guide44"
     inkscape:label=""
     inkscape:locked="false"
     inkscape:color="rgb(0,0,255)" /><sodipodi:guide
     position="0,900"
     orientation="0,1"
     id="guide46"
     inkscape:label=""
     inkscape:locked="true"
     inkscape:color="rgb(0,0,255)" /></sodipodi:namedview>
 <defs
   id="defs4"><inkscape:path-effect
   effect="fillet_chamfer"
   id="path-effect845"
   is_visible="true"
   lpeversion="1"
   satellites_param="F,0,0,1,0,0,0,1 @ F,0,0,1,0,0,0,1 @ F,0,0,1,0,0,0,1 @ F,0,0,1,0,0,0,1 @ F,0,0,1,0,0,0,1 @ F,0,0,1,0,0,0,1 @ F,0,0,1,0,0,0,1 @ F,0,0,1,0,0,0,1 @ F,0,0,1,0,0,0,1 @ F,0,0,1,0,0,0,1 @ F,0,0,1,0,0,0,1 @ F,0,0,1,0,0,0,1 @ F,0,0,1,0,0,0,1 @ F,0,0,1,0,0,0,1 @ F,0,0,1,0,0,0,1 @ F,0,0,1,0,0,0,1 @ F,0,0,1,0,0,0,1 @ F,0,0,1,0,0,0,1 @ F,0,0,1,0,0,0,1 @ F,0,0,1,0,0,0,1 @ F,0,0,1,0,0,0,1 @ F,0,0,1,0,0,0,1 @ F,0,0,1,0,0,0,1 @ F,0,0,1,0,0,0,1 @ F,0,0,1,0,0,0,1 @ F,0,0,1,0,0,0,1 @ F,0,0,1,0,0,0,1 @ F,0,0,1,0,0,0,1 @ F,0,0,1,0,0,0,1 @ F,0,0,1,0,0,0,1 @ F,0,0,1,0,0,0,1 @ F,0,0,1,0,0,0,1 @ F,0,0,1,0,0,0,1 @ F,0,0,1,0,0,0,1 @ F,0,0,1,0,0,0,1 @ F,0,0,1,0,0,0,1 @ F,0,0,1,0,0,0,1 @ F,0,1,1,0,52.135177,0,1 @ F,0,1,1,0,52.135177,0,1 @ F,0,0,1,0,0,0,1 @ F,0,0,1,0,0,0,1 @ F,0,0,1,0,0,0,1 @ F,0,0,1,0,0,0,1 @ F,0,0,1,0,0,0,1 @ F,0,0,1,0,0,0,1 @ F,0,0,1,0,0,0,1 @ F,0,0,1,0,0,0,1 @ F,0,0,1,0,0,0,1 @ F,0,0,1,0,0,0,1 @ F,0,0,1,0,0,0,1 @ F,0,0,1,0,0,0,1 @ F,0,0,1,0,0,0,1 @ F,0,0,1,0,0,0,1 @ F,0,0,1,0,0,0,1 @ F,0,0,1,0,0,0,1 @ F,0,0,1,0,0,0,1 @ F,0,0,1,0,0,0,1 @ F,0,0,1,0,0,0,1 @ F,0,0,1,0,0,0,1 @ F,0,0,1,0,0,0,1 @ F,0,0,1,0,0,0,1 @ F,0,0,1,0,0,0,1 @ F,0,0,1,0,0,0,1 @ F,0,0,1,0,0,0,1 @ F,0,0,1,0,0,0,1 @ F,0,0,1,0,0,0,1 @ F,0,0,1,0,0,0,1 @ F,0,0,1,0,0,0,1 @ F,0,0,1,0,0,0,1 @ F,0,0,1,0,0,0,1 @ F,0,0,1,0,0,0,1 @ F,0,0,1,0,0,0,1 @ F,0,0,1,0,0,0,1 @ F,0,1,1,0,52.135177,0,1 @ F,0,1,1,0,52.135177,0,1 @ F,0,0,1,0,0,0,1 @ F,0,0,1,0,0,0,1 @ F,0,0,1,0,0,0,1 @ F,0,0,1,0,0,0,1 @ F,0,0,1,0,0,0,1 @ F,0,0,1,0,0,0,1 @ F,0,0,1,0,0,0,1 @ F,0,0,1,0,0,0,1 @ F,0,0,1,0,0,0,1 @ F,0,0,1,0,0,0,1 @ F,0,0,1,0,0,0,1 @ F,0,1,1,0,52.135177,0,1 @ F,0,1,1,0,52.135177,0,1 @ F,0,0,1,0,0,0,1"
   unit="px"
   method="auto"
   mode="F"
   radius="0"
   chamfer_steps="1"
   flexible="false"
   use_knot_distance="true"
   apply_no_radius="true"
   apply_with_radius="true"
   only_selected="true"
   hide_knots="false" /><inkscape:path-effect
   effect="spiro"
   id="path-effect851"
   is_visible="true"
   lpeversion="1" />
  <style
   type="text/css"
   id="style2">
   <![CDATA[
    .fil0 {fill:#EF7F1A;fill-rule:nonzero}
   ]]>
  </style>
 <inkscape:path-effect
   effect="spiro"
   id="path-effect1214"
   is_visible="true"
   lpeversion="1" /><inkscape:path-effect
   effect="spiro"
   id="path-effect1195"
   is_visible="true"
   lpeversion="1" /><inkscape:path-effect
   effect="spiro"
   id="path-effect992"
   is_visible="true"
   lpeversion="1" /><inkscape:path-effect
   effect="spiro"
   id="path-effect1060"
   is_visible="true"
   lpeversion="1" /><inkscape:path-effect
   effect="spiro"
   id="path-effect1047"
   is_visible="true"
   lpeversion="1" /><inkscape:path-effect
   effect="spiro"
   id="path-effect1085"
   is_visible="true"
   lpeversion="1" /></defs>
 
<path
   style="display:inline;fill:#1a1a1a;fill-rule:nonzero;stroke:none;stroke-width:2.98568px;stroke-linecap:butt;stroke-linejoin:miter;stroke-opacity:1"
   d="m 404.71033,288.41858 c 21.57399,-37.32191 54.13087,-68.37608 92.89757,-87.23092 38.76671,-18.85484 83.63429,-25.27814 125.94856,-17.04013 38.32699,7.46174 74.01191,26.71506 102.63475,53.27384 28.62283,26.55878 50.2833,60.24356 64.40829,96.64576 30.46546,78.51401 24.87796,169.80781 -13.10683,244.97262 -24.23526,47.95706 -61.11899,89.45115 -105.90401,119.1417 52.09726,2.8e-4 104.19452,-0.66807 156.27463,-2.00485 24.39659,-0.6262 48.78941,-1.39908 73.1767,-2.31857 -15.02957,-30.298 -27.64585,-61.79273 -37.69002,-94.0878 -27.63521,-88.85558 -35.51337,-183.90404 -21.94209,-275.96294 7.12211,-48.31189 20.5966,-96.8651 49.01087,-136.5815 20.30271,-28.37837 47.88631,-51.459 79.27502,-66.69976 31.38873,-15.24075 66.51183,-22.638402 101.39083,-21.643313 47.6758,1.360183 94.2841,18.332563 133.819,45.012513 39.5349,26.67995 72.2061,62.78302 98.0217,102.88767 36.043,55.993 59.0472,119.89871 70.5511,185.48816 8.8028,50.18889 10.9747,101.79623 3.1529,152.14733 -7.8217,50.35111 -25.8463,99.45182 -55.1689,141.12434 -12.1373,17.24926 -26.2558,33.26859 -43.047,46.03217 -16.7911,12.76359 -36.3633,22.20124 -57.1809,25.58911 -32.0525,5.21623 -65.5549,-4.39655 -92.25,-22.88818 -26.6951,-18.49164 -46.9196,-45.31102 -60.9533,-74.59624 -21.767,-45.42286 -29.2112,-96.98518 -25.4438,-147.21311 3.7674,-50.22793 18.4194,-99.2254 38.9165,-145.23525 23.5242,-52.80471 55.335,-102.70863 98.5547,-141.09853 43.2196,-38.3899 98.5694,-64.65363 156.3386,-66.76196 46.2056,-1.68631 92.5244,12.18262 131.4397,37.15066 38.9153,24.96805 70.4869,60.74118 92.4303,101.43876 43.8867,81.39516 48.4511,179.72562 28.8151,270.08956 -19.843,91.31643 -63.4419,177.23408 -124.6316,247.86164 -61.1898,70.62757 -139.7819,125.90241 -226.5515,160.59344 -115.4118,46.1424 -241.91881,55.5196 -366.16598,58.9328 -158.03711,4.3414 -319.68955,-0.7271 -468.13303,-55.1248 C 308.50175,985.46433 220.35742,930.33042 150.67165,856.83455 80.985891,783.33868 30.205734,691.26165 9.6421,592.09066 -10.856429,493.23365 -1.2924647,390.3593 19.16292,291.49335 29.113454,243.39995 41.615195,195.83466 56.593189,149.0624 65.374005,121.64227 96.761735,99.74993 125.55518,99.78613 l 117.9771,0.148324 c 28.79344,0.0362 36.05549,17.033886 17.9607,39.423546 -32.34842,40.02641 -60.51992,83.42955 -83.87177,129.29113 -35.58402,69.88481 -60.07767,146.198 -64.52606,224.49436 -4.4484,78.29637 11.91343,158.68044 52.85017,225.57059 39.15262,63.97491 99.22533,113.4303 165.72421,148.12346 66.49889,34.69316 139.44814,55.39741 212.94106,70.381 210.51528,42.91943 433.80505,39.45516 635.26511,-35.19474 71.5619,-26.51685 140.4875,-62.18455 198.2217,-112.09446 57.7343,-49.90991 103.927,-114.79337 124.3034,-188.33959 16.6491,-60.093 15.1958,-126.46367 -11.7417,-182.70184 -13.4688,-28.11909 -33.1582,-53.37136 -57.8195,-72.44781 -24.6613,-19.07644 -54.3202,-31.85916 -85.2698,-35.62929 -30.4166,-3.70521 -61.6969,1.32704 -89.9037,13.29673 -28.2069,11.9697 -53.3496,30.75852 -73.7365,53.63363 -40.774,45.75022 -61.7748,106.72592 -67.1577,167.77198 -1.9075,21.63263 -1.8973,43.94239 5.3147,64.42643 3.606,10.24201 9.0191,19.91461 16.3775,27.89938 7.3583,7.98477 16.705,14.23889 27.105,17.36028 10.5456,3.16511 21.961,3.04298 32.6248,0.30244 10.6639,-2.74054 20.5883,-8.03698 29.2432,-14.84291 17.3098,-13.61187 29.3058,-32.8416 39.076,-52.57623 26.7412,-54.01391 39.1901,-116.99237 24.0929,-175.3419 -9.1128,-35.22025 -27.8995,-67.52438 -51.7947,-94.95663 -19.3685,-22.23547 -42.3734,-41.62554 -68.8422,-54.62371 -26.4689,-12.99816 -56.5397,-19.38552 -85.7958,-15.69271 -37.4369,4.72543 -71.7534,25.87003 -96.23468,54.58447 -24.48126,28.71444 -39.64407,64.54771 -47.6465,101.42334 -19.03341,87.70698 1.77252,181.07965 45.53428,259.43584 8.91221,15.95746 18.8292,31.57514 24.4261,48.97462 2.7985,8.69974 4.4814,17.81601 4.2682,26.95228 -0.2131,9.13628 -2.3711,18.30244 -6.8711,26.25649 -4.2142,7.44895 -10.40248,13.69556 -17.51848,18.45048 -7.11601,4.75491 -15.14485,8.05196 -23.42418,10.2198 -16.55865,4.33567 -33.91406,4.19374 -51.03036,4.05412 -120.82458,-0.98555 -241.6561,-0.45313 -362.48263,0.25429 -74.88693,0.43845 -149.77348,0.94411 -224.6595,1.517 -28.79262,0.22026 -54.18954,-22.84131 -56.7257,-51.52286 l -7.06863,-79.93919 c -2.53616,-28.68155 9.28591,-32.72136 31.36899,-14.3425 34.48275,28.69861 77.26368,47.50427 121.85478,52.70487 66.0662,7.70521 134.27359,-14.28725 186.12853,-55.94272 32.38861,-26.01802 58.88393,-59.6504 75.01282,-97.93641 16.12889,-38.28601 21.67011,-81.22109 14.10138,-122.0705 -5.36863,-28.97518 -17.621,-57.25028 -38.35356,-78.19172 -10.36628,-10.47072 -22.7685,-18.99576 -36.47044,-24.41357 -13.70194,-5.41782 -28.70827,-7.68149 -43.34649,-6.0027 -18.88014,2.16528 -36.81661,10.92115 -50.70414,23.89361 -13.88754,12.97246 -23.75812,30.03266 -28.88142,48.33293 -5.12331,18.30027 -5.57331,37.7923 -2.11794,56.47943 3.45537,18.68712 10.75912,36.57575 20.65946,52.79708 6.53409,10.70586 14.21836,20.7032 22.85373,29.79858 19.75497,20.80732 17.97412,36.75493 -10.2409,42.49741 l -46.22476,9.4079 c -28.21502,5.74248 -64.74999,-8.74579 -77.08634,-34.72902 -9.92128,-20.89654 -17.64182,-42.83849 -22.95217,-65.35317 -15.52985,-65.843 -9.48696,-138.07066 24.36868,-196.63919 z"
   id="path873-9"
   inkscape:path-effect="#path-effect1085;#path-effect845"
   inkscape:original-d="m 404.71033,288.41858 c 47.26138,-65.54331 138.86975,-115.8185 218.84613,-104.27105 74.04986,10.69175 138.39359,80.8044 167.04304,149.9196 31.31327,75.54149 20.45401,178.29275 -13.10683,244.97262 -23.46555,45.27798 -64.59062,88.69178 -105.90401,119.1417 0,0 104.1917,-0.84576 156.27463,-2.00485 24.39843,-0.54298 52.35807,3.87202 73.1767,-2.31857 -42.50259,-28.54195 -29.98191,-61.1935 -37.69002,-94.0878 -21.05318,-89.84423 -34.14159,-184.49494 -21.94209,-275.96294 6.39465,-47.94505 16.74516,-100.5462 49.01087,-136.5815 44.71755,-49.94187 113.73675,-92.13034 180.66585,-88.343073 91.52,5.178773 173.9736,76.807773 231.8407,147.900183 41.7596,51.30361 64.3448,119.62917 70.5511,185.48816 9.3148,98.84503 0.9692,209.30931 -52.016,293.27167 -21.9142,34.72613 -59.1801,70.51769 -100.2279,71.62128 -60.5077,1.62677 -125.3038,-43.76806 -153.2033,-97.48442 -44.9797,-86.60187 -30.4058,-205.2834 13.4727,-292.44836 49.2958,-97.92622 146.7747,-226.02612 254.8933,-207.86049 157.9486,26.53787 265.1956,249.00582 252.6851,408.67898 -14.0254,179.00796 -194.486,320.78184 -351.1831,408.45508 -107.8871,60.3636 -242.5677,56.3144 -366.16598,58.9328 -157.08724,3.3278 -328.1997,16.3325 -468.13303,-55.1248 C 230.85959,932.10346 77.2492,773.88392 9.6421,592.09066 -25.30148,498.12855 3.81616,390.56105 19.16292,291.49335 29.33295,225.84296 77.82537,98.215953 73.42004,99.720584 L 295.66742,100 c 0,0 -96.57066,103.47701 -118.04621,168.64913 -46.96758,142.53311 -85.03553,319.14511 -11.67589,450.06495 71.23644,127.1307 236.90854,184.7129 378.66527,218.50446 206.29941,49.17706 440.14611,47.91004 635.26511,-35.19474 135.1751,-57.57354 298.2793,-155.52323 322.5251,-300.43405 18.1211,-108.30495 -46.155,-275.03574 -154.831,-290.77894 -108.5899,-15.73071 -211.2955,133.00633 -230.7979,234.70234 -7.5367,39.3008 10.3689,98.52268 48.7972,109.68609 38.8026,11.27214 79.4707,-32.88805 100.944,-67.1167 31.3525,-49.97606 34.7362,-117.31343 24.0929,-175.3419 -6.5045,-35.46309 -25.392,-70.40389 -51.7947,-94.95663 -41.4661,-38.56072 -99.1365,-81.5395 -154.638,-70.31642 -69.3388,14.02118 -123.94936,88.1315 -143.88118,156.00781 -24.73801,84.24343 28.77347,173.24999 45.53428,259.43584 6.6488,34.18876 38.804,71.77405 21.8232,102.18339 -15.865,28.41097 -59.90868,27.17844 -91.97302,32.7244 C 796.6168,818.41202 674.02064,797.61042 553.19395,798.07332 460.92804,798.4268 385.34393,787.13657 276.40088,800 L 260.14799,616.19573 c 0,0 97.6012,83.40902 157.8159,90.29491 64.36512,7.36052 138.24156,-12.30919 186.12853,-55.94272 58.48567,-53.29083 106.48492,-142.814 89.1142,-220.00691 -11.74533,-52.19449 -66.35454,-121.92434 -118.17049,-108.60799 -61.82224,15.88789 -76.07132,119.466 -61.04404,181.50305 6.97016,28.77485 63.70065,61.89832 63.70065,61.89832 l -148.4004,30.20324 c 0,0 -43.05525,-70.6341 -48.95069,-110.47986 -9.66696,-65.33653 -14.26114,-143.06636 24.36868,-196.63919 z"
   sodipodi:nodetypes="aaaccacaaaaaaaaaaaaaaaaaccaaaaaasaaaaaaaaaaccaaaaaccaa" /></svg>
