<?xml version="1.0" encoding="UTF-8" standalone="no"?>
<svg
   xmlns:dc="http://purl.org/dc/elements/1.1/"
   xmlns:cc="http://creativecommons.org/ns#"
   xmlns:rdf="http://www.w3.org/1999/02/22-rdf-syntax-ns#"
   xmlns:svg="http://www.w3.org/2000/svg"
   xmlns="http://www.w3.org/2000/svg"
   xmlns:sodipodi="http://sodipodi.sourceforge.net/DTD/sodipodi-0.dtd"
   xmlns:inkscape="http://www.inkscape.org/namespaces/inkscape"
   xml:space="preserve"
   width="1000"
   height="1000"
   version="1.1"
   style="clip-rule:evenodd;fill-rule:evenodd;image-rendering:optimizeQuality;shape-rendering:geometricPrecision;text-rendering:geometricPrecision"
   viewBox="0 0 1000 1000"
   id="svg10"
   sodipodi:docname="ജ.svg"
   inkscape:version="1.0.2 (e86c870879, 2021-01-15)"><metadata
   id="metadata14"><rdf:RDF><cc:Work
       rdf:about=""><dc:format>image/svg+xml</dc:format><dc:type
         rdf:resource="http://purl.org/dc/dcmitype/StillImage" /><dc:title /></cc:Work></rdf:RDF></metadata><sodipodi:namedview
   pagecolor="#ffffff"
   bordercolor="#666666"
   borderopacity="1"
   objecttolerance="10"
   gridtolerance="10"
   guidetolerance="10"
   inkscape:pageopacity="0"
   inkscape:pageshadow="2"
   inkscape:window-width="1920"
   inkscape:window-height="1007"
   id="namedview12"
   showgrid="false"
   inkscape:zoom="0.84890884"
   inkscape:cx="199.00498"
   inkscape:cy="525.02122"
   inkscape:window-x="1920"
   inkscape:window-y="0"
   inkscape:window-maximized="1"
   inkscape:current-layer="svg10"
   showguides="true"
   inkscape:guide-bbox="true"
   inkscape:document-rotation="0"><sodipodi:guide
   position="0,1000"
   orientation="0,1"
   id="guide16"
   inkscape:label=""
   inkscape:locked="true"
   inkscape:color="rgb(0,0,255)" /><sodipodi:guide
   position="1763.3122,2036.1693"
   orientation="1000,0"
   id="guide18" /><sodipodi:guide
   position="0,200"
   orientation="0,1"
   id="guide20"
   inkscape:label="base"
   inkscape:locked="true"
   inkscape:color="rgb(0,0,255)" /><inkscape:grid
   type="xygrid"
   id="grid24"
   originx="-473.37552"
   originy="-489.69235" /><sodipodi:guide
   position="0,0"
   orientation="0,1"
   id="guide34"
   inkscape:label="bottom"
   inkscape:locked="true"
   inkscape:color="rgb(0,0,255)" /><sodipodi:guide
   position="225.05109,1693.3186"
   orientation="0,1"
   id="guide44"
   inkscape:label=""
   inkscape:locked="false"
   inkscape:color="rgb(0,0,255)" /><sodipodi:guide
   position="0,900"
   orientation="0,1"
   id="guide46"
   inkscape:label=""
   inkscape:locked="true"
   inkscape:color="rgb(0,0,255)" /><sodipodi:guide
   position="691.79139,187.70832"
   orientation="1,0"
   id="guide841"
   inkscape:label="width" />    </sodipodi:namedview>
 <defs
   id="defs4"><inkscape:path-effect
   effect="fillet_chamfer"
   id="path-effect852"
   is_visible="true"
   lpeversion="1"
   satellites_param="F,0,0,1,0,0,0,1 @ F,0,0,1,0,0,0,1 @ F,0,0,1,0,0,0,1 @ F,0,0,1,0,0,0,1 @ F,0,0,1,0,0,0,1 @ F,0,0,1,0,0,0,1 @ F,0,0,1,0,0,0,1 @ F,0,0,1,0,0,0,1 @ F,0,0,1,0,0,0,1 @ F,0,0,1,0,0,0,1 @ F,0,0,1,0,0,0,1 | F,0,0,1,0,0,0,1 @ F,0,0,1,0,0,0,1 @ F,0,0,1,0,0,0,1 @ F,0,0,1,0,0,0,1 @ F,0,0,1,0,0,0,1 @ F,0,0,1,0,0,0,1 @ F,0,0,1,0,0,0,1 @ F,0,0,1,0,0,0,1 @ F,0,0,1,0,0,0,1 @ F,0,0,1,0,0,0,1 @ F,0,0,1,0,0,0,1 @ F,0,0,1,0,0,0,1 @ F,0,0,1,0,0,0,1 @ F,0,0,1,0,0,0,1 @ F,0,0,1,0,0,0,1 @ F,0,0,1,0,0,0,1 @ F,0,0,1,0,0,0,1 @ F,0,0,1,0,0,0,1 @ F,0,0,1,0,0,0,1 @ F,0,0,1,0,0,0,1 @ F,0,0,1,0,0,0,1 @ F,0,0,1,0,0,0,1 @ F,0,0,1,0,0,0,1 @ F,0,0,1,0,0,0,1 @ F,0,0,1,0,0,0,1 @ F,0,0,1,0,0,0,1 @ F,0,0,1,0,0,0,1 @ F,0,0,1,0,0,0,1 @ F,0,0,1,0,0,0,1 @ F,0,0,1,0,0,0,1 @ F,0,0,1,0,0,0,1 @ F,0,0,1,0,0,0,1 @ F,0,0,1,0,0,0,1 @ F,0,0,1,0,0,0,1 @ F,0,0,1,0,0,0,1 @ F,0,0,1,0,0,0,1 @ F,0,0,1,0,0,0,1 @ F,0,0,1,0,0,0,1 @ F,0,0,1,0,0,0,1 @ F,0,0,1,0,0,0,1 @ F,0,0,1,0,0,0,1 @ F,0,0,1,0,0,0,1 @ F,0,0,1,0,0,0,1 @ F,0,0,1,0,0,0,1 @ F,0,0,1,0,0,0,1 @ F,0,0,1,0,0,0,1 @ F,0,0,1,0,0,0,1 @ F,0,0,1,0,0,0,1 @ F,0,0,1,0,0,0,1 @ F,0,0,1,0,0,0,1 @ F,0,1,1,0,13.293871,0,1 @ F,0,0,1,0,13.293871,0,1 @ F,0,0,1,0,0,0,1 @ F,0,0,1,0,0,0,1 @ F,0,0,1,0,0,0,1 @ F,0,0,1,0,0,0,1 @ F,0,0,1,0,0,0,1 @ F,0,0,1,0,0,0,1 @ F,0,0,1,0,0,0,1 @ F,0,0,1,0,0,0,1 @ F,0,0,1,0,0,0,1 @ F,0,0,1,0,0,0,1 @ F,0,0,1,0,0,0,1 @ F,0,0,1,0,0,0,1 @ F,0,0,1,0,0,0,1 @ F,0,0,1,0,0,0,1 @ F,0,0,1,0,0,0,1 @ F,0,0,1,0,0,0,1 @ F,0,0,1,0,0,0,1 @ F,0,0,1,0,0,0,1 @ F,0,0,1,0,0,0,1 @ F,0,0,1,0,0,0,1 @ F,0,0,1,0,0,0,1 @ F,0,0,1,0,0,0,1 @ F,0,0,1,0,0,0,1 @ F,0,0,1,0,0,0,1 @ F,0,0,1,0,0,0,1 @ F,0,0,1,0,0,0,1 @ F,0,0,1,0,0,0,1"
   unit="px"
   method="auto"
   mode="F"
   radius="0"
   chamfer_steps="1"
   flexible="false"
   use_knot_distance="true"
   apply_no_radius="true"
   apply_with_radius="true"
   only_selected="true"
   hide_knots="false" /><inkscape:path-effect
   effect="fillet_chamfer"
   id="path-effect850"
   is_visible="true"
   lpeversion="1"
   satellites_param="F,0,0,1,0,0,0,1 @ F,0,0,1,0,0,0,1 @ F,0,0,1,0,0,0,1 @ F,0,0,1,0,0,0,1 @ F,0,0,1,0,0,0,1 @ F,0,0,1,0,0,0,1 @ F,0,0,1,0,0,0,1 @ F,0,0,1,0,0,0,1 @ F,0,0,1,0,0,0,1 @ F,0,0,1,0,0,0,1 @ F,0,0,1,0,0,0,1 | F,0,0,1,0,0,0,1 @ F,0,0,1,0,0,0,1 @ F,0,0,1,0,0,0,1 @ F,0,0,1,0,0,0,1 @ F,0,0,1,0,0,0,1 @ F,0,0,1,0,0,0,1 @ F,0,0,1,0,0,0,1 @ F,0,0,1,0,0,0,1 @ F,0,0,1,0,0,0,1 @ F,0,0,1,0,0,0,1 | F,0,0,1,0,0,0,1 @ F,0,0,1,0,0,0,1 @ F,0,0,1,0,0,0,1 @ F,0,0,1,0,0,0,1 @ F,0,0,1,0,0,0,1 @ F,0,0,1,0,0,0,1 @ F,0,0,1,0,0,0,1 @ F,0,0,1,0,0,0,1 @ F,0,0,1,0,0,0,1 @ F,0,0,1,0,0,0,1 | F,0,0,1,0,0,0,1 @ F,0,0,1,0,0,0,1 @ F,0,0,1,0,0,0,1 @ F,0,0,1,0,0,0,1 @ F,0,0,1,0,0,0,1 @ F,0,0,1,0,0,0,1 @ F,0,0,1,0,0,0,1 @ F,0,0,1,0,0,0,1 @ F,0,0,1,0,0,0,1 @ F,0,0,1,0,0,0,1 @ F,0,0,1,0,0,0,1 @ F,0,0,1,0,0,0,1 @ F,0,0,1,0,0,0,1 @ F,0,0,1,0,0,0,1 @ F,0,0,1,0,0,0,1 @ F,0,0,1,0,0,0,1 @ F,0,0,1,0,0,0,1 @ F,0,0,1,0,0,0,1 @ F,0,0,1,0,0,0,1 @ F,0,0,1,0,0,0,1 @ F,0,0,1,0,0,0,1 @ F,0,0,1,0,0,0,1 @ F,0,0,1,0,0,0,1 @ F,0,0,1,0,0,0,1 @ F,0,0,1,0,0,0,1 @ F,0,0,1,0,0,0,1 @ F,0,0,1,0,0,0,1 @ F,0,0,1,0,0,0,1 @ F,0,0,1,0,0,0,1 @ F,0,0,1,0,0,0,1 @ F,0,0,1,0,0,0,1 @ F,0,0,1,0,0,0,1 @ F,0,0,1,0,0,0,1 @ F,0,0,1,0,0,0,1 @ F,0,0,1,0,0,0,1 @ F,0,0,1,0,0,0,1 @ F,0,0,1,0,0,0,1 @ F,0,0,1,0,0,0,1 @ F,0,0,1,0,0,0,1 @ F,0,0,1,0,0,0,1 @ F,0,0,1,0,0,0,1 @ F,0,0,1,0,0,0,1 @ F,0,0,1,0,0,0,1 @ F,0,0,1,0,0,0,1 @ F,0,0,1,0,11.488981,0,1 @ F,0,0,1,0,12.251545,0,1 @ F,0,0,1,0,0,0,1 @ F,0,0,1,0,0,0,1 @ F,0,0,1,0,0,0,1 @ F,0,0,1,0,0,0,1 @ F,0,0,1,0,0,0,1 @ F,0,0,1,0,0,0,1 @ F,0,0,1,0,0,0,1 @ F,0,0,1,0,0,0,1 @ F,0,0,1,0,0,0,1 @ F,0,0,1,0,0,0,1"
   unit="px"
   method="auto"
   mode="F"
   radius="0"
   chamfer_steps="1"
   flexible="false"
   use_knot_distance="true"
   apply_no_radius="true"
   apply_with_radius="true"
   only_selected="true"
   hide_knots="false" /><inkscape:path-effect
   effect="fillet_chamfer"
   id="path-effect848"
   is_visible="true"
   lpeversion="1"
   satellites_param="F,0,0,1,0,0,0,1 @ F,0,0,1,0,0,0,1 @ F,0,0,1,0,0,0,1 @ F,0,0,1,0,0,0,1 @ F,0,0,1,0,0,0,1 @ F,0,0,1,0,0,0,1 @ F,0,0,1,0,0,0,1 @ F,0,0,1,0,0,0,1 @ F,0,0,1,0,0,0,1 @ F,0,0,1,0,0,0,1 @ F,0,0,1,0,0,0,1 | F,0,0,1,0,0,0,1 @ F,0,0,1,0,0,0,1 @ F,0,0,1,0,0,0,1 @ F,0,0,1,0,0,0,1 @ F,0,0,1,0,0,0,1 @ F,0,0,1,0,0,0,1 @ F,0,0,1,0,0,0,1 @ F,0,0,1,0,0,0,1 @ F,0,0,1,0,0,0,1 @ F,0,0,1,0,0,0,1 | F,0,0,1,0,0,0,1 @ F,0,0,1,0,0,0,1 @ F,0,0,1,0,0,0,1 @ F,0,0,1,0,0,0,1 @ F,0,0,1,0,0,0,1 @ F,0,0,1,0,0,0,1 @ F,0,0,1,0,0,0,1 @ F,0,0,1,0,0,0,1 @ F,0,0,1,0,0,0,1 @ F,0,0,1,0,0,0,1 | F,0,0,1,0,0,0,1 @ F,0,0,1,0,0,0,1 @ F,0,0,1,0,0,0,1 @ F,0,0,1,0,0,0,1 @ F,0,0,1,0,0,0,1 @ F,0,0,1,0,0,0,1 @ F,0,0,1,0,0,0,1 @ F,0,0,1,0,0,0,1 @ F,0,0,1,0,0,0,1 @ F,0,0,1,0,0,0,1 @ F,0,0,1,0,0,0,1 @ F,0,0,1,0,0,0,1 @ F,0,0,1,0,0,0,1 @ F,0,0,1,0,0,0,1 @ F,0,0,1,0,0,0,1 @ F,0,0,1,0,0,0,1 @ F,0,0,1,0,0,0,1 @ F,0,0,1,0,0,0,1 @ F,0,0,1,0,0,0,1 @ F,0,0,1,0,0,0,1 @ F,0,0,1,0,0,0,1 @ F,0,0,1,0,0,0,1 @ F,0,0,1,0,0,0,1 @ F,0,0,1,0,0,0,1 @ F,0,0,1,0,0,0,1 @ F,0,0,1,0,0,0,1 @ F,0,0,1,0,0,0,1 @ F,0,0,1,0,0,0,1 @ F,0,0,1,0,0,0,1 @ F,0,0,1,0,0,0,1 @ F,0,0,1,0,0,0,1 @ F,0,0,1,0,0,0,1 @ F,0,0,1,0,0,0,1 @ F,0,0,1,0,0,0,1 @ F,0,0,1,0,0,0,1 @ F,0,0,1,0,0,0,1 @ F,0,0,1,0,0,0,1 @ F,0,0,1,0,0,0,1 @ F,0,0,1,0,0,0,1 @ F,0,0,1,0,0,0,1 @ F,0,0,1,0,0,0,1 @ F,0,0,1,0,0,0,1 @ F,0,0,1,0,0,0,1 @ F,0,0,1,0,0,0,1 @ F,0,0,1,0,0,0,1 @ F,0,0,1,0,0,0,1 @ F,0,0,1,0,0,0,1 @ F,0,0,1,0,0,0,1 @ F,0,0,1,0,0,0,1 @ F,0,0,1,0,0,0,1 @ F,0,0,1,0,0,0,1 @ F,0,0,1,0,0,0,1 @ F,0,0,1,0,0,0,1 @ F,0,0,1,0,0,0,1 @ F,0,0,1,0,0,0,1 @ F,0,0,1,0,0,0,1"
   unit="px"
   method="auto"
   mode="F"
   radius="0"
   chamfer_steps="1"
   flexible="false"
   use_knot_distance="true"
   apply_no_radius="true"
   apply_with_radius="true"
   only_selected="true"
   hide_knots="false" /><inkscape:path-effect
   effect="spiro"
   id="path-effect847"
   is_visible="true"
   lpeversion="1" /><inkscape:path-effect
   effect="spiro"
   id="path-effect851"
   is_visible="true"
   lpeversion="1" />
  <style
   type="text/css"
   id="style2">
   <![CDATA[
    .fil0 {fill:#EF7F1A;fill-rule:nonzero}
   ]]>
  </style>
 <inkscape:path-effect
   effect="spiro"
   id="path-effect1214"
   is_visible="true"
   lpeversion="1" /><inkscape:path-effect
   effect="spiro"
   id="path-effect1195"
   is_visible="true"
   lpeversion="1" /><inkscape:path-effect
   effect="spiro"
   id="path-effect992"
   is_visible="true"
   lpeversion="1" /><inkscape:path-effect
   effect="spiro"
   id="path-effect1060"
   is_visible="true"
   lpeversion="1" /><inkscape:path-effect
   effect="spiro"
   id="path-effect1047"
   is_visible="true"
   lpeversion="1" /><inkscape:path-effect
   effect="spiro"
   id="path-effect1085"
   is_visible="true"
   lpeversion="1" /><inkscape:path-effect
   effect="spiro"
   id="path-effect1049"
   is_visible="true"
   lpeversion="1" /></defs>
 
<path
   id="path1102-7-3"
   style="display:inline;opacity:0.950135;fill:#1a1a1a;fill-opacity:1;fill-rule:nonzero;stroke:none;stroke-width:2.40988;stroke-linecap:round;stroke-linejoin:bevel;stroke-miterlimit:4;stroke-dasharray:none;paint-order:stroke fill markers"
   d="m 250.91425,371.15416 c 2.56226,9.45568 3.12065,19.57293 0.64655,29.05206 -2.47409,9.47913 -8.12646,18.26419 -16.29207,23.67695 -5.91181,3.91878 -12.99626,5.98523 -20.08824,6.0864 -7.09198,0.10117 -14.17419,-1.73654 -20.43335,-5.07259 -12.51833,-6.67212 -21.38642,-19.18026 -25.2338,-32.83395 -3.38536,-12.01408 -3.0511,-25.27606 2.20216,-36.59869 2.62663,-5.66132 6.45242,-10.78371 11.25128,-14.77378 4.79886,-3.99007 10.57452,-6.83016 16.70074,-8.0214 5.77074,-1.12212 11.80043,-0.77482 17.45561,0.83128 5.65517,1.6061 10.93471,4.45631 15.496,8.16511 9.12257,7.41762 15.21998,18.14022 18.29512,29.48861 z m 90.23077,252.45513 c 5.86333,25.24565 15.36029,49.64443 28.10724,72.21071 15.86259,28.08199 36.96324,53.48185 63.16093,72.29411 26.19768,18.81225 57.63565,30.82234 89.87055,31.88589 42.18405,1.3918 84.26447,-16.4789 113.96843,-46.464 29.70397,-29.98509 47.0458,-71.42213 49.53922,-113.55542 2.26816,-38.32688 -7.6142,-77.49418 -28.97301,-109.39865 -14.35078,-21.43631 -33.79892,-39.52922 -56.53476,-51.717 -22.73583,-12.18779 -48.74522,-18.38263 -74.5096,-17.09535 -37.3325,1.86527 -72.45545,19.08539 -102.49693,41.32735 -30.04147,22.24197 -55.90252,49.53058 -83.21006,75.05494 -33.63731,31.44079 -69.78636,60.44302 -109.53033,83.68972 -16.20159,9.47649 -33.7106,18.17872 -52.47399,18.65887 -9.3817,0.24008 -18.92049,-1.67641 -27.09253,-6.29068 -8.17205,-4.61427 -14.88676,-12.03567 -17.88642,-20.92813 -2.01432,-5.97142 -2.3298,-12.46194 -1.24067,-18.66912 1.08913,-6.20719 3.55565,-12.13477 6.90119,-17.47544 6.69108,-10.68133 16.71367,-18.87091 27.26597,-25.76369 16.19662,-10.57966 34.00613,-18.54502 52.35623,-24.67147 62.72392,-20.94131 130.71762,-20.38286 194.50855,-37.80543 73.95301,-20.19803 140.19175,-64.41381 192.35451,-120.59258 36.49726,-39.30717 67.27213,-86.36774 75.59891,-139.35612 5.82769,-37.08516 -0.0779,-76.49295 -19.59326,-108.56194 -9.7577,-16.0345 -22.80984,-30.1095 -38.32626,-40.67163 -15.51642,-10.56213 -33.50026,-17.56817 -52.13297,-19.835273 -27.12021,-3.299803 -54.93499,3.535913 -78.91846,16.619793 -23.98346,13.08387 -44.32403,32.16678 -61.2942,53.57723 -24.40118,30.78581 -42.24515,66.74337 -52.00465,104.79512 -18.67855,-37.12527 -42.09896,-71.86159 -69.51203,-103.09775 -20.73181,-23.62312 -44.17683,-45.55603 -72.30242,-59.58496 -28.12559,-14.028917 -61.52693,-19.512522 -91.39792,-9.73584 -16.87446,5.52296 -32.07372,15.71283 -44.29996,28.58798 -12.226238,12.87515 -21.531893,28.38184 -28.04923,44.89774 -13.034674,33.03178 -14.894273,69.4501 -12.841216,104.90129 3.245465,56.04112 16.824176,113.43705 51.477386,157.59919 16.16054,20.59503 36.92685,38.00544 61.23899,47.71306 24.31214,9.70763 52.30425,11.25515 76.66307,1.66526 16.16818,-6.3653 30.35431,-17.43937 41.00546,-31.16818 10.65115,-13.7288 17.80642,-30.0511 21.36976,-47.05786 6.83438,-32.61848 0.0728,-67.94281 -18.65838,-95.50757 -10.11441,-14.88432 -23.62958,-27.54457 -39.49819,-36.0317 -15.86861,-8.48713 -34.09803,-12.71386 -52.0426,-11.35866 -21.08354,1.59225 -41.48551,11.01735 -56.36509,26.03897 -2.85659,-10.52457 -2.86161,-21.80854 -0.0144,-32.33565 2.84723,-10.52711 8.53935,-20.2702 16.31151,-27.92005 7.56563,-7.44658 17.04463,-12.87931 27.20749,-15.94632 10.16286,-3.067 20.99108,-3.79014 31.51737,-2.41626 24.75195,3.23059 47.0214,17.94168 63.15537,36.98874 16.13397,19.04707 26.6867,42.20544 34.8286,65.80216 13.15239,38.11803 20.51249,78.23151 21.7148,118.5369 0.10431,3.49665 0.1626,6.99468 0.17487,10.49286 0.0258,7.34162 5.58945,11.80978 12.70011,9.98123 l 66.74251,-17.16321 c 7.11066,-1.82855 10.83325,-8.91052 8.85076,-15.97831 -6.97845,-24.87889 -9.02489,-51.14041 -5.91818,-76.79465 3.12406,-25.79753 11.46247,-51.01875 24.88858,-73.26761 12.40574,-20.55797 29.80656,-38.97651 52.09573,-47.90541 11.14459,-4.46444 23.36442,-6.43698 35.28779,-5.03477 11.92338,1.40222 23.51571,6.25945 32.44916,14.27983 9.94532,8.92883 16.28134,21.46558 18.9628,34.55921 2.68145,13.09363 1.87169,26.73144 -0.9368,39.79841 -7.725,35.94183 -30.31619,67.47761 -58.37343,91.23223 -28.05724,23.75463 -61.41871,40.39217 -95.36391,54.50649 -37.50443,15.59424 -76.22027,28.411 -115.90014,37.08684 -69.32815,15.15832 -142.39498,17.96552 -206.89082,47.57048 -35.691378,16.3831 -68.335755,41.45875 -88.163045,75.358 -9.913645,16.94963 -16.4844872,35.94332 -18.3527527,55.49018 -1.86826558,19.54686 1.0423019,39.63272 9.1244417,57.52823 12.724546,28.17474 38.006889,49.8243 66.946368,60.69797 28.939478,10.87367 61.205878,11.4328 91.295338,4.33671 38.77212,-9.14375 73.81334,-30.45857 104.17374,-56.24872 30.36039,-25.79016 56.50804,-56.08999 82.75229,-86.05872 19.55958,-22.3354 39.38245,-44.69016 62.67595,-63.09832 23.29349,-18.40815 50.46635,-32.8384 79.85185,-37.07387 27.03106,-3.89611 55.67133,1.33751 78.41498,16.45652 22.74365,15.11901 38.96822,40.43056 41.07033,67.65994 1.35458,17.54633 -3.13745,35.55298 -12.89358,50.19971 -9.75612,14.64673 -24.76697,25.78869 -41.71638,30.52433 -20.22813,5.65171 -42.43144,2.05438 -61.03982,-7.68459 -18.60837,-9.73896 -33.78568,-25.25992 -45.22953,-42.8712 -21.17176,-32.58186 -29.96752,-72.99882 -24.25053,-111.43236 z"
   sodipodi:nodetypes="aaaaacaaaaaaaaaaaaaaacaaacaacccaacaccaaaaaaaaaaaaaacc"
   inkscape:path-effect="#path-effect847;#path-effect852"
   inkscape:original-d="m 250.91425,371.15416 c 5.75178,17.40812 1.12585,45.32314 -15.64552,52.72901 -22.27492,9.83612 -57.97665,-8.74608 -65.75539,-31.82014 -7.093,-21.03994 8.52765,-54.36569 30.15418,-59.39387 20.8078,-4.83783 44.54465,18.20073 51.24673,38.485 z m 90.23077,252.45513 c 0,0 12.02422,51.99951 28.10724,72.21071 38.42403,48.2867 91.56365,109.63137 153.03148,104.18 75.96234,-6.73684 143.26639,-86.49423 163.50765,-160.01942 10.01265,-36.37035 -5.45634,-79.90252 -28.97301,-109.39865 -30.75691,-38.5773 -81.74268,-70.69384 -131.04436,-68.81235 -73.00082,2.78592 -125.66716,74.7638 -185.70699,116.38229 -37.76253,26.17629 -65.40273,70.88497 -109.53033,83.68972 -31.31753,9.08758 -81.89971,20.10134 -97.45294,-8.55994 -11.14801,-20.5434 16.00363,-45.78602 32.92649,-61.90825 13.96838,-13.30754 34.01983,-18.6729 52.35623,-24.67147 C 281.1422,546.16548 351.43915,553.1487 412.87503,528.8965 483.26576,501.10933 553.42785,463.47245 605.22954,408.30392 641.404,369.77832 682.94108,321.75264 680.82845,268.9478 678.14028,201.75753 635.67618,117.47783 570.77596,99.878957 520.33006,86.199636 467.45702,133.05212 430.5633,170.07598 403.03724,197.69913 381.2453,235.05621 378.55865,274.8711 365.98712,245.27516 341.03738,198.12649 309.04662,171.77335 263.30937,134.0962 200.75613,81.447491 145.34628,102.45255 83.730043,125.81036 64.430268,215.08336 60.155874,280.83956 c -3.584826,55.14805 22.100631,110.78931 51.477386,157.59919 29.272,45.11132 90.93673,62.72632 137.90206,49.37832 32.07951,-9.1173 54.44451,-45.83277 62.37522,-78.22604 7.71376,-31.50716 -1.13852,-74.67359 -18.65838,-95.50757 -22.68073,-25.81089 -55.83501,-46.39759 -91.54079,-47.39036 -26.17816,-0.72805 -35.86958,10.10806 -56.36509,26.03897 2.19147,-17.98509 1.87342,-45.25956 16.29712,-60.2557 14.21761,-14.78186 38.86888,-23.4991 58.72486,-18.36258 45.82808,11.85521 83.74055,70.09817 97.98397,102.7909 15.6797,36.98326 18.08077,78.5318 21.7148,118.5369 0.71725,7.89581 0.19654,15.85812 0,23.78497 l 92.49247,-23.78497 c -5.44012,-32.31027 -13.18825,-59.63388 -9.9424,-89.46208 2.79029,-25.64179 6.51028,-55.16995 24.88858,-73.26761 29.90581,-29.44916 83.21131,-59.1661 119.83268,-38.66035 22.25279,12.46021 25.24877,49.89795 18.026,74.35762 -19.99768,67.72147 -92.96277,109.78658 -153.73734,145.73872 -34.91179,20.65262 -76.78342,26.35155 -115.90014,37.08684 -68.23989,18.72793 -150.98071,4.19447 -206.89082,47.57048 -55.850518,43.32978 -121.752801,122.01927 -97.391356,188.37641 19.65391,53.53448 101.697516,72.4489 158.241706,65.03468 77.64581,-10.18112 123.72561,-96.0664 186.92603,-142.30744 46.865,-34.28912 84.45827,-100.19481 142.5278,-100.17219 48.70811,0.019 110.70243,36.20674 119.48531,84.11646 5.85795,31.95444 -23.26544,72.18453 -54.60996,80.72404 -37.84788,10.31129 -81.89381,-19.82115 -106.26935,-50.55579 -23.62129,-29.78361 -2.67361,-64.12431 -24.25053,-111.43236 z" /></svg>
