<?xml version="1.0" encoding="UTF-8" standalone="no"?>
<svg
   xmlns:dc="http://purl.org/dc/elements/1.1/"
   xmlns:cc="http://creativecommons.org/ns#"
   xmlns:rdf="http://www.w3.org/1999/02/22-rdf-syntax-ns#"
   xmlns:svg="http://www.w3.org/2000/svg"
   xmlns="http://www.w3.org/2000/svg"
   xmlns:sodipodi="http://sodipodi.sourceforge.net/DTD/sodipodi-0.dtd"
   xmlns:inkscape="http://www.inkscape.org/namespaces/inkscape"
   xml:space="preserve"
   width="1000"
   height="1000"
   version="1.1"
   style="clip-rule:evenodd;fill-rule:evenodd;image-rendering:optimizeQuality;shape-rendering:geometricPrecision;text-rendering:geometricPrecision"
   viewBox="0 0 1000 1000"
   id="svg10"
   sodipodi:docname="ജ.svg"
   inkscape:version="1.0.2 (e86c870879, 2021-01-15)"><metadata
   id="metadata14"><rdf:RDF><cc:Work
       rdf:about=""><dc:format>image/svg+xml</dc:format><dc:type
         rdf:resource="http://purl.org/dc/dcmitype/StillImage" /><dc:title /></cc:Work></rdf:RDF></metadata><sodipodi:namedview
   pagecolor="#ffffff"
   bordercolor="#666666"
   borderopacity="1"
   objecttolerance="10"
   gridtolerance="10"
   guidetolerance="10"
   inkscape:pageopacity="0"
   inkscape:pageshadow="2"
   inkscape:window-width="1920"
   inkscape:window-height="1007"
   id="namedview12"
   showgrid="false"
   inkscape:zoom="0.84890884"
   inkscape:cx="199.00498"
   inkscape:cy="525.02122"
   inkscape:window-x="1920"
   inkscape:window-y="0"
   inkscape:window-maximized="1"
   inkscape:current-layer="svg10"
   showguides="true"
   inkscape:guide-bbox="true"
   inkscape:document-rotation="0"><sodipodi:guide
   position="0,1000"
   orientation="0,1"
   id="guide16"
   inkscape:label=""
   inkscape:locked="true"
   inkscape:color="rgb(0,0,255)" /><sodipodi:guide
   position="1763.3122,2036.1693"
   orientation="1000,0"
   id="guide18" /><sodipodi:guide
   position="0,200"
   orientation="0,1"
   id="guide20"
   inkscape:label="base"
   inkscape:locked="true"
   inkscape:color="rgb(0,0,255)" /><inkscape:grid
   type="xygrid"
   id="grid24"
   originx="-473.37552"
   originy="-489.69235" /><sodipodi:guide
   position="0,0"
   orientation="0,1"
   id="guide34"
   inkscape:label="bottom"
   inkscape:locked="true"
   inkscape:color="rgb(0,0,255)" /><sodipodi:guide
   position="225.05109,1693.3186"
   orientation="0,1"
   id="guide44"
   inkscape:label=""
   inkscape:locked="false"
   inkscape:color="rgb(0,0,255)" /><sodipodi:guide
   position="0,900"
   orientation="0,1"
   id="guide46"
   inkscape:label=""
   inkscape:locked="true"
   inkscape:color="rgb(0,0,255)" /><sodipodi:guide
   position="691.79139,187.70832"
   orientation="1,0"
   id="guide841"
   inkscape:label="width" />    </sodipodi:namedview>
 <defs
   id="defs4"><inkscape:path-effect
   effect="fillet_chamfer"
   id="path-effect853"
   is_visible="true"
   lpeversion="1"
   satellites_param="F,0,0,1,0,0,0,1 @ F,0,0,1,0,0,0,1 @ F,0,0,1,0,0,0,1 @ F,0,0,1,0,0,0,1 @ F,0,0,1,0,0,0,1 @ F,0,0,1,0,0,0,1 @ F,0,0,1,0,0,0,1 @ F,0,0,1,0,0,0,1 @ F,0,0,1,0,0,0,1 @ F,0,0,1,0,0,0,1 @ F,0,0,1,0,0,0,1 | F,0,0,1,0,0,0,1 @ F,0,0,1,0,0,0,1 @ F,0,0,1,0,0,0,1 @ F,0,0,1,0,0,0,1 @ F,0,0,1,0,0,0,1 @ F,0,0,1,0,0,0,1 @ F,0,0,1,0,0,0,1 @ F,0,0,1,0,0,0,1 @ F,0,0,1,0,0,0,1 @ F,0,0,1,0,0,0,1 @ F,0,0,1,0,0,0,1 @ F,0,0,1,0,0,0,1 @ F,0,0,1,0,0,0,1 @ F,0,0,1,0,0,0,1 @ F,0,0,1,0,0,0,1 @ F,0,0,1,0,0,0,1 @ F,0,0,1,0,0,0,1 @ F,0,0,1,0,0,0,1 @ F,0,0,1,0,0,0,1 @ F,0,0,1,0,0,0,1 @ F,0,0,1,0,0,0,1 @ F,0,0,1,0,0,0,1 @ F,0,0,1,0,0,0,1 @ F,0,0,1,0,0,0,1 @ F,0,0,1,0,0,0,1 @ F,0,0,1,0,0,0,1 @ F,0,0,1,0,0,0,1 @ F,0,0,1,0,0,0,1 @ F,0,0,1,0,0,0,1 @ F,0,0,1,0,0,0,1 @ F,0,0,1,0,0,0,1 @ F,0,0,1,0,0,0,1 @ F,0,0,1,0,0,0,1 @ F,0,0,1,0,0,0,1 @ F,0,0,1,0,0,0,1 @ F,0,0,1,0,0,0,1 @ F,0,0,1,0,0,0,1 @ F,0,0,1,0,0,0,1 @ F,0,0,1,0,0,0,1 @ F,0,0,1,0,0,0,1 @ F,0,0,1,0,0,0,1 @ F,0,0,1,0,0,0,1 @ F,0,0,1,0,0,0,1 @ F,0,0,1,0,0,0,1 @ F,0,0,1,0,0,0,1 @ F,0,0,1,0,0,0,1 @ F,0,0,1,0,0,0,1 @ F,0,0,1,0,0,0,1 @ F,0,0,1,0,0,0,1 @ F,0,0,1,0,0,0,1 @ F,0,0,1,0,0,0,1 @ F,0,1,1,0,17.131845,0,1 @ F,0,1,1,0,17.131845,0,1 @ F,0,0,1,0,0,0,1 @ F,0,0,1,0,0,0,1 @ F,0,0,1,0,0,0,1 @ F,0,0,1,0,0,0,1 @ F,0,0,1,0,0,0,1 @ F,0,0,1,0,0,0,1 @ F,0,0,1,0,0,0,1 @ F,0,0,1,0,0,0,1 @ F,0,0,1,0,0,0,1 @ F,0,0,1,0,0,0,1 @ F,0,0,1,0,0,0,1 @ F,0,0,1,0,0,0,1 @ F,0,0,1,0,0,0,1 @ F,0,0,1,0,0,0,1 @ F,0,0,1,0,0,0,1 @ F,0,0,1,0,0,0,1 @ F,0,0,1,0,0,0,1 @ F,0,0,1,0,0,0,1 @ F,0,0,1,0,0,0,1 @ F,0,0,1,0,0,0,1 @ F,0,0,1,0,0,0,1 @ F,0,0,1,0,0,0,1 @ F,0,0,1,0,0,0,1 @ F,0,0,1,0,0,0,1 @ F,0,0,1,0,0,0,1 @ F,0,0,1,0,0,0,1 @ F,0,0,1,0,0,0,1 @ F,0,0,1,0,0,0,1"
   unit="px"
   method="auto"
   mode="F"
   radius="0"
   chamfer_steps="1"
   flexible="false"
   use_knot_distance="true"
   apply_no_radius="true"
   apply_with_radius="true"
   only_selected="true"
   hide_knots="false" /><inkscape:path-effect
   effect="fillet_chamfer"
   id="path-effect852"
   is_visible="true"
   lpeversion="1"
   satellites_param="F,0,0,1,0,0,0,1 @ F,0,0,1,0,0,0,1 @ F,0,0,1,0,0,0,1 @ F,0,0,1,0,0,0,1 @ F,0,0,1,0,0,0,1 @ F,0,0,1,0,0,0,1 @ F,0,0,1,0,0,0,1 @ F,0,0,1,0,0,0,1 @ F,0,0,1,0,0,0,1 @ F,0,0,1,0,0,0,1 @ F,0,0,1,0,0,0,1 | F,0,0,1,0,0,0,1 @ F,0,0,1,0,0,0,1 @ F,0,0,1,0,0,0,1 @ F,0,0,1,0,0,0,1 @ F,0,0,1,0,0,0,1 @ F,0,0,1,0,0,0,1 @ F,0,0,1,0,0,0,1 @ F,0,0,1,0,0,0,1 @ F,0,0,1,0,0,0,1 @ F,0,0,1,0,0,0,1 @ F,0,0,1,0,0,0,1 @ F,0,0,1,0,0,0,1 @ F,0,0,1,0,0,0,1 @ F,0,0,1,0,0,0,1 @ F,0,0,1,0,0,0,1 @ F,0,0,1,0,0,0,1 @ F,0,0,1,0,0,0,1 @ F,0,0,1,0,0,0,1 @ F,0,0,1,0,0,0,1 @ F,0,0,1,0,0,0,1 @ F,0,0,1,0,0,0,1 @ F,0,0,1,0,0,0,1 @ F,0,0,1,0,0,0,1 @ F,0,0,1,0,0,0,1 @ F,0,0,1,0,0,0,1 @ F,0,0,1,0,0,0,1 @ F,0,0,1,0,0,0,1 @ F,0,0,1,0,0,0,1 @ F,0,0,1,0,0,0,1 @ F,0,0,1,0,0,0,1 @ F,0,0,1,0,0,0,1 @ F,0,0,1,0,0,0,1 @ F,0,0,1,0,0,0,1 @ F,0,0,1,0,0,0,1 @ F,0,0,1,0,0,0,1 @ F,0,0,1,0,0,0,1 @ F,0,0,1,0,0,0,1 @ F,0,0,1,0,0,0,1 @ F,0,0,1,0,0,0,1 @ F,0,0,1,0,0,0,1 @ F,0,0,1,0,0,0,1 @ F,0,0,1,0,0,0,1 @ F,0,0,1,0,0,0,1 @ F,0,0,1,0,0,0,1 @ F,0,0,1,0,0,0,1 @ F,0,0,1,0,0,0,1 @ F,0,0,1,0,0,0,1 @ F,0,0,1,0,0,0,1 @ F,0,0,1,0,0,0,1 @ F,0,0,1,0,0,0,1 @ F,0,1,1,0,13.293871,0,1 @ F,0,0,1,0,13.293871,0,1 @ F,0,0,1,0,0,0,1 @ F,0,0,1,0,0,0,1 @ F,0,0,1,0,0,0,1 @ F,0,0,1,0,0,0,1 @ F,0,0,1,0,0,0,1 @ F,0,0,1,0,0,0,1 @ F,0,0,1,0,0,0,1 @ F,0,0,1,0,0,0,1 @ F,0,0,1,0,0,0,1 @ F,0,0,1,0,0,0,1 @ F,0,0,1,0,0,0,1 @ F,0,0,1,0,0,0,1 @ F,0,0,1,0,0,0,1 @ F,0,0,1,0,0,0,1 @ F,0,0,1,0,0,0,1 @ F,0,0,1,0,0,0,1 @ F,0,0,1,0,0,0,1 @ F,0,0,1,0,0,0,1 @ F,0,0,1,0,0,0,1 @ F,0,0,1,0,0,0,1 @ F,0,0,1,0,0,0,1 @ F,0,0,1,0,0,0,1 @ F,0,0,1,0,0,0,1 @ F,0,0,1,0,0,0,1 @ F,0,0,1,0,0,0,1 @ F,0,0,1,0,0,0,1 @ F,0,0,1,0,0,0,1"
   unit="px"
   method="auto"
   mode="F"
   radius="0"
   chamfer_steps="1"
   flexible="false"
   use_knot_distance="true"
   apply_no_radius="true"
   apply_with_radius="true"
   only_selected="true"
   hide_knots="false" /><inkscape:path-effect
   effect="fillet_chamfer"
   id="path-effect850"
   is_visible="true"
   lpeversion="1"
   satellites_param="F,0,0,1,0,0,0,1 @ F,0,0,1,0,0,0,1 @ F,0,0,1,0,0,0,1 @ F,0,0,1,0,0,0,1 @ F,0,0,1,0,0,0,1 @ F,0,0,1,0,0,0,1 @ F,0,0,1,0,0,0,1 @ F,0,0,1,0,0,0,1 @ F,0,0,1,0,0,0,1 @ F,0,0,1,0,0,0,1 @ F,0,0,1,0,0,0,1 | F,0,0,1,0,0,0,1 @ F,0,0,1,0,0,0,1 @ F,0,0,1,0,0,0,1 @ F,0,0,1,0,0,0,1 @ F,0,0,1,0,0,0,1 @ F,0,0,1,0,0,0,1 @ F,0,0,1,0,0,0,1 @ F,0,0,1,0,0,0,1 @ F,0,0,1,0,0,0,1 @ F,0,0,1,0,0,0,1 | F,0,0,1,0,0,0,1 @ F,0,0,1,0,0,0,1 @ F,0,0,1,0,0,0,1 @ F,0,0,1,0,0,0,1 @ F,0,0,1,0,0,0,1 @ F,0,0,1,0,0,0,1 @ F,0,0,1,0,0,0,1 @ F,0,0,1,0,0,0,1 @ F,0,0,1,0,0,0,1 @ F,0,0,1,0,0,0,1 | F,0,0,1,0,0,0,1 @ F,0,0,1,0,0,0,1 @ F,0,0,1,0,0,0,1 @ F,0,0,1,0,0,0,1 @ F,0,0,1,0,0,0,1 @ F,0,0,1,0,0,0,1 @ F,0,0,1,0,0,0,1 @ F,0,0,1,0,0,0,1 @ F,0,0,1,0,0,0,1 @ F,0,0,1,0,0,0,1 @ F,0,0,1,0,0,0,1 @ F,0,0,1,0,0,0,1 @ F,0,0,1,0,0,0,1 @ F,0,0,1,0,0,0,1 @ F,0,0,1,0,0,0,1 @ F,0,0,1,0,0,0,1 @ F,0,0,1,0,0,0,1 @ F,0,0,1,0,0,0,1 @ F,0,0,1,0,0,0,1 @ F,0,0,1,0,0,0,1 @ F,0,0,1,0,0,0,1 @ F,0,0,1,0,0,0,1 @ F,0,0,1,0,0,0,1 @ F,0,0,1,0,0,0,1 @ F,0,0,1,0,0,0,1 @ F,0,0,1,0,0,0,1 @ F,0,0,1,0,0,0,1 @ F,0,0,1,0,0,0,1 @ F,0,0,1,0,0,0,1 @ F,0,0,1,0,0,0,1 @ F,0,0,1,0,0,0,1 @ F,0,0,1,0,0,0,1 @ F,0,0,1,0,0,0,1 @ F,0,0,1,0,0,0,1 @ F,0,0,1,0,0,0,1 @ F,0,0,1,0,0,0,1 @ F,0,0,1,0,0,0,1 @ F,0,0,1,0,0,0,1 @ F,0,0,1,0,0,0,1 @ F,0,0,1,0,0,0,1 @ F,0,0,1,0,0,0,1 @ F,0,0,1,0,0,0,1 @ F,0,0,1,0,0,0,1 @ F,0,0,1,0,0,0,1 @ F,0,0,1,0,11.488981,0,1 @ F,0,0,1,0,12.251545,0,1 @ F,0,0,1,0,0,0,1 @ F,0,0,1,0,0,0,1 @ F,0,0,1,0,0,0,1 @ F,0,0,1,0,0,0,1 @ F,0,0,1,0,0,0,1 @ F,0,0,1,0,0,0,1 @ F,0,0,1,0,0,0,1 @ F,0,0,1,0,0,0,1 @ F,0,0,1,0,0,0,1 @ F,0,0,1,0,0,0,1"
   unit="px"
   method="auto"
   mode="F"
   radius="0"
   chamfer_steps="1"
   flexible="false"
   use_knot_distance="true"
   apply_no_radius="true"
   apply_with_radius="true"
   only_selected="true"
   hide_knots="false" /><inkscape:path-effect
   effect="fillet_chamfer"
   id="path-effect848"
   is_visible="true"
   lpeversion="1"
   satellites_param="F,0,0,1,0,0,0,1 @ F,0,0,1,0,0,0,1 @ F,0,0,1,0,0,0,1 @ F,0,0,1,0,0,0,1 @ F,0,0,1,0,0,0,1 @ F,0,0,1,0,0,0,1 @ F,0,0,1,0,0,0,1 @ F,0,0,1,0,0,0,1 @ F,0,0,1,0,0,0,1 @ F,0,0,1,0,0,0,1 @ F,0,0,1,0,0,0,1 | F,0,0,1,0,0,0,1 @ F,0,0,1,0,0,0,1 @ F,0,0,1,0,0,0,1 @ F,0,0,1,0,0,0,1 @ F,0,0,1,0,0,0,1 @ F,0,0,1,0,0,0,1 @ F,0,0,1,0,0,0,1 @ F,0,0,1,0,0,0,1 @ F,0,0,1,0,0,0,1 @ F,0,0,1,0,0,0,1 | F,0,0,1,0,0,0,1 @ F,0,0,1,0,0,0,1 @ F,0,0,1,0,0,0,1 @ F,0,0,1,0,0,0,1 @ F,0,0,1,0,0,0,1 @ F,0,0,1,0,0,0,1 @ F,0,0,1,0,0,0,1 @ F,0,0,1,0,0,0,1 @ F,0,0,1,0,0,0,1 @ F,0,0,1,0,0,0,1 | F,0,0,1,0,0,0,1 @ F,0,0,1,0,0,0,1 @ F,0,0,1,0,0,0,1 @ F,0,0,1,0,0,0,1 @ F,0,0,1,0,0,0,1 @ F,0,0,1,0,0,0,1 @ F,0,0,1,0,0,0,1 @ F,0,0,1,0,0,0,1 @ F,0,0,1,0,0,0,1 @ F,0,0,1,0,0,0,1 @ F,0,0,1,0,0,0,1 @ F,0,0,1,0,0,0,1 @ F,0,0,1,0,0,0,1 @ F,0,0,1,0,0,0,1 @ F,0,0,1,0,0,0,1 @ F,0,0,1,0,0,0,1 @ F,0,0,1,0,0,0,1 @ F,0,0,1,0,0,0,1 @ F,0,0,1,0,0,0,1 @ F,0,0,1,0,0,0,1 @ F,0,0,1,0,0,0,1 @ F,0,0,1,0,0,0,1 @ F,0,0,1,0,0,0,1 @ F,0,0,1,0,0,0,1 @ F,0,0,1,0,0,0,1 @ F,0,0,1,0,0,0,1 @ F,0,0,1,0,0,0,1 @ F,0,0,1,0,0,0,1 @ F,0,0,1,0,0,0,1 @ F,0,0,1,0,0,0,1 @ F,0,0,1,0,0,0,1 @ F,0,0,1,0,0,0,1 @ F,0,0,1,0,0,0,1 @ F,0,0,1,0,0,0,1 @ F,0,0,1,0,0,0,1 @ F,0,0,1,0,0,0,1 @ F,0,0,1,0,0,0,1 @ F,0,0,1,0,0,0,1 @ F,0,0,1,0,0,0,1 @ F,0,0,1,0,0,0,1 @ F,0,0,1,0,0,0,1 @ F,0,0,1,0,0,0,1 @ F,0,0,1,0,0,0,1 @ F,0,0,1,0,0,0,1 @ F,0,0,1,0,0,0,1 @ F,0,0,1,0,0,0,1 @ F,0,0,1,0,0,0,1 @ F,0,0,1,0,0,0,1 @ F,0,0,1,0,0,0,1 @ F,0,0,1,0,0,0,1 @ F,0,0,1,0,0,0,1 @ F,0,0,1,0,0,0,1 @ F,0,0,1,0,0,0,1 @ F,0,0,1,0,0,0,1 @ F,0,0,1,0,0,0,1 @ F,0,0,1,0,0,0,1"
   unit="px"
   method="auto"
   mode="F"
   radius="0"
   chamfer_steps="1"
   flexible="false"
   use_knot_distance="true"
   apply_no_radius="true"
   apply_with_radius="true"
   only_selected="true"
   hide_knots="false" /><inkscape:path-effect
   effect="spiro"
   id="path-effect847"
   is_visible="true"
   lpeversion="1" /><inkscape:path-effect
   effect="spiro"
   id="path-effect851"
   is_visible="true"
   lpeversion="1" />
  <style
   type="text/css"
   id="style2">
   <![CDATA[
    .fil0 {fill:#EF7F1A;fill-rule:nonzero}
   ]]>
  </style>
 <inkscape:path-effect
   effect="spiro"
   id="path-effect1214"
   is_visible="true"
   lpeversion="1" /><inkscape:path-effect
   effect="spiro"
   id="path-effect1195"
   is_visible="true"
   lpeversion="1" /><inkscape:path-effect
   effect="spiro"
   id="path-effect992"
   is_visible="true"
   lpeversion="1" /><inkscape:path-effect
   effect="spiro"
   id="path-effect1060"
   is_visible="true"
   lpeversion="1" /><inkscape:path-effect
   effect="spiro"
   id="path-effect1047"
   is_visible="true"
   lpeversion="1" /><inkscape:path-effect
   effect="spiro"
   id="path-effect1085"
   is_visible="true"
   lpeversion="1" /><inkscape:path-effect
   effect="spiro"
   id="path-effect1049"
   is_visible="true"
   lpeversion="1" /></defs>
 
<path
   id="path1102-7-3"
   style="display:inline;opacity:0.950135;fill:#63452c;fill-opacity:1;fill-rule:nonzero;stroke:none;stroke-width:2.40988;stroke-linecap:round;stroke-linejoin:bevel;stroke-miterlimit:4;stroke-dasharray:none;paint-order:stroke fill markers"
   d="m 250.91425,371.15416 c 2.56226,9.45568 3.12065,19.57293 0.64655,29.05206 -2.47409,9.47913 -8.12646,18.26419 -16.29207,23.67695 -5.91181,3.91878 -12.99626,5.98523 -20.08824,6.0864 -7.09198,0.10117 -14.17419,-1.73654 -20.43335,-5.07259 -12.51833,-6.67212 -21.38642,-19.18026 -25.2338,-32.83395 -3.38536,-12.01408 -3.0511,-25.27606 2.20216,-36.59869 2.62663,-5.66132 6.45242,-10.78371 11.25128,-14.77378 4.79886,-3.99007 10.57452,-6.83016 16.70074,-8.0214 5.77074,-1.12212 11.80043,-0.77482 17.45561,0.83128 5.65517,1.6061 10.93471,4.45631 15.496,8.16511 9.12257,7.41762 15.21998,18.14022 18.29512,29.48861 z m 90.23077,252.45513 c 5.86332,25.24565 15.36029,49.64444 28.10724,72.21071 15.8626,28.08198 36.96325,53.48183 63.16094,72.29408 26.19769,18.81225 57.63565,30.82234 89.87054,31.88592 42.18408,1.39185 84.26456,-16.47879 113.96856,-46.46389 29.704,-29.98509 47.04583,-71.4222 49.53909,-113.55553 2.26801,-38.32686 -7.61456,-77.49397 -28.97301,-109.39865 -14.35062,-21.43657 -33.79849,-39.52997 -56.53434,-51.71798 -22.73585,-12.18802 -48.74557,-18.38277 -74.51002,-17.09437 -37.33201,1.86685 -72.45314,19.0899 -102.49351,41.33266 -30.04038,22.24276 -55.90164,49.53046 -83.21348,75.04963 -33.64249,31.43429 -69.79986,60.42124 -109.53033,83.68972 -16.20346,9.48969 -33.71409,18.21184 -52.48564,18.69691 -9.38577,0.24253 -18.92974,-1.6759 -27.10234,-6.2976 -8.1726,-4.62171 -14.88247,-12.05665 -17.86496,-20.95925 -2.00039,-5.97106 -2.30074,-12.4573 -1.2002,-18.65762 1.10054,-6.20031 3.57462,-12.11871 6.92162,-17.45281 6.69402,-10.6682 16.69567,-18.85715 27.20507,-25.79782 16.15049,-10.66619 33.90143,-18.83827 52.35623,-24.67147 62.94941,-19.89706 131.62995,-12.24918 195.61435,-28.51321 75.84926,-19.27992 139.7679,-70.93947 191.24871,-129.8848 35.21532,-40.32141 66.65077,-86.57482 75.59891,-139.35612 6.29641,-37.13983 0.593,-76.79574 -18.99237,-108.97376 -9.79269,-16.08901 -22.94255,-30.18028 -38.57793,-40.68209 -15.63537,-10.50181 -33.75852,-17.36914 -52.48219,-19.412993 -27.06771,-2.954682 -54.6627,4.240153 -78.51258,17.376893 -23.84989,13.13674 -44.18055,31.97649 -61.70008,52.82013 -44.44464,52.87744 -71.73057,119.95158 -76.82009,188.83878 l 54.4206,-3.22451 C 389.28034,288.05997 355.15199,224.7331 309.04662,171.77335 288.39892,148.056 264.94742,126.08871 236.79861,112.07143 208.6498,98.05414 175.2191,92.631436 145.34628,102.45255 c -16.8638,5.54421 -32.05053,15.74256 -44.26954,28.61974 -12.21901,12.87719 -21.522411,28.37989 -28.042007,44.89113 -13.039194,33.02247 -14.920572,69.43131 -12.878859,104.87614 3.228231,56.04318 16.819852,113.43909 51.477386,157.59919 16.16207,20.59346 36.92811,38.00325 61.23984,47.71113 24.31173,9.70789 52.30347,11.25648 76.66222,1.66719 16.16835,-6.36498 30.35458,-17.43907 41.00571,-31.16794 10.65113,-13.72887 17.80626,-30.05129 21.36951,-47.0581 6.83419,-32.6185 0.0728,-67.9428 -18.65838,-95.50757 -10.11439,-14.88434 -23.62956,-27.5446 -39.49818,-36.03173 -15.86861,-8.48713 -34.09804,-12.71383 -52.04261,-11.35863 -21.08354,1.59226 -41.48551,11.01736 -56.36509,26.03897 -2.84576,-10.52551 -2.84525,-21.80611 0.001,-32.33136 2.84673,-10.52525 8.53237,-20.26821 16.29565,-27.92434 7.56044,-7.45609 17.03548,-12.90319 27.19991,-15.9753 10.16442,-3.07212 20.99948,-3.79009 31.52495,-2.38728 24.70722,3.29292 46.84949,18.1357 62.906,37.20081 16.0565,19.06511 26.61165,42.1463 35.07797,65.59009 9.12187,25.25903 16.06153,51.37733 19.41492,78.02282 1.05159,8.35581 1.74968,16.75607 2.09263,25.1708 0.38524,9.45252 7.63575,15.21797 16.79927,12.86152 l 59.30843,-15.25151 c 9.16352,-2.35645 13.67624,-11.39391 11.2392,-20.53094 -4.43733,-16.6366 -6.01656,-34.03749 -4.58958,-51.19787 2.15754,-25.94587 11.14636,-51.15438 24.88858,-73.26761 12.64329,-20.34488 29.99932,-38.65104 52.21461,-47.60917 11.10764,-4.47907 23.28627,-6.49902 35.18737,-5.15533 11.90111,1.34368 23.49122,6.13374 32.4307,14.10415 9.98039,8.89849 16.33303,21.44327 19.0094,34.54397 2.67637,13.10069 1.84372,26.74466 -0.9834,39.81365 -7.77171,35.92644 -30.36029,67.44518 -58.40773,91.20333 -28.04743,23.75814 -61.3929,40.41421 -95.32961,54.53539 -37.50055,15.60411 -76.21929,28.41448 -115.90014,37.08684 -69.32961,15.15218 -142.39582,17.96341 -206.89082,47.57048 -35.690541,16.3841 -68.334097,41.45991 -88.161228,75.35886 -9.913566,16.94947 -16.4845016,35.9429 -18.3530755,55.48956 -1.86857386,19.54665 1.0414651,39.63238 9.1229475,57.52799 12.72378,28.17551 38.005769,49.8263 66.9455,60.70038 28.939726,10.87409 61.206896,11.43268 91.296206,4.3343 38.77083,-9.14644 73.80867,-30.46565 104.16728,-56.25692 30.35862,-25.79127 56.50673,-56.08944 82.75875,-86.05052 19.56416,-22.32831 39.39514,-44.67208 62.68961,-63.07526 23.29448,-18.40319 50.45887,-32.83484 79.83819,-37.09693 27.04301,-3.92316 55.70959,1.27503 78.47287,16.39286 11.38164,7.55892 21.20605,17.50713 28.36866,29.14224 7.16262,11.63511 11.63331,24.95573 12.64378,38.58136 1.29978,17.52688 -3.25461,35.48664 -13.01488,50.10231 -9.76027,14.61568 -24.70804,25.75257 -41.59508,30.62173 -20.25928,5.8415 -42.60416,2.52718 -61.3315,-7.16035 -18.72734,-9.68752 -33.95462,-25.39738 -44.93785,-43.39544 -22.26479,-36.48499 -27.07421,-83.1172 -12.72465,-123.37842 z"
   sodipodi:nodetypes="aaaaacaaaaaaaaaaaaaaaccaaacaacccaacaccaaaaaaaaaaaaaacc"
   inkscape:path-effect="#path-effect847;#path-effect853"
   inkscape:original-d="m 250.91425,371.15416 c 5.75178,17.40812 1.12585,45.32314 -15.64552,52.72901 -22.27492,9.83612 -57.97665,-8.74608 -65.75539,-31.82014 -7.093,-21.03994 8.52765,-54.36569 30.15418,-59.39387 20.8078,-4.83783 44.54465,18.20073 51.24673,38.485 z m 90.23077,252.45513 c 0,0 12.02422,51.99951 28.10724,72.21071 38.42403,48.2867 91.56365,109.63137 153.03148,104.18 75.96234,-6.73684 143.26639,-86.49423 163.50765,-160.01942 10.01265,-36.37035 -5.45634,-79.90252 -28.97301,-109.39865 -30.75691,-38.5773 -81.74268,-70.69384 -131.04436,-68.81235 -73.00082,2.78592 -125.66716,74.7638 -185.70699,116.38229 -37.76253,26.17629 -65.40273,70.88497 -109.53033,83.68972 -31.31753,9.08758 -81.89971,20.10134 -97.45294,-8.55994 -11.14801,-20.5434 16.00363,-45.78602 32.92649,-61.90825 13.96838,-13.30754 33.88331,-19.10752 52.35623,-24.67147 63.09406,-19.00361 134.19561,-4.64408 195.61435,-28.51321 71.82787,-27.91443 139.5362,-72.75097 191.24871,-129.8848 35.46335,-39.18118 77.71154,-86.55128 75.59891,-139.35612 C 678.14028,201.75753 635.67618,117.47783 570.77596,99.878957 520.33006,86.199636 466.05669,131.70761 430.5633,170.07598 384.41688,219.96027 353.74321,358.91476 353.74321,358.91476 l 54.4206,-3.22451 c 0,0 -47.62013,-137.03393 -99.11719,-183.9169 -43.8185,-39.89239 -108.29049,-90.325859 -163.70034,-69.3208 -61.616237,23.35781 -80.916012,112.63081 -85.190406,178.38701 -3.584826,55.14805 22.100631,110.78931 51.477386,157.59919 29.272,45.11132 90.93673,62.72632 137.90206,49.37832 32.07951,-9.1173 54.44451,-45.83277 62.37522,-78.22604 7.71376,-31.50716 -1.13852,-74.67359 -18.65838,-95.50757 -22.68073,-25.81089 -55.83501,-46.39759 -91.54079,-47.39036 -26.17816,-0.72805 -35.86958,10.10806 -56.36509,26.03897 2.19147,-17.98509 1.87342,-45.25956 16.29712,-60.2557 14.21761,-14.78186 38.86888,-23.4991 58.72486,-18.36258 45.82808,11.85521 83.74055,70.09817 97.98397,102.7909 15.6797,36.98326 15.4337,51.51947 19.41492,78.02282 2.09758,13.96384 2.49642,34.3722 2.29988,42.29905 l 92.49247,-23.78497 c -5.44012,-32.31027 -11.99827,-44.82498 -9.9424,-67.46208 2.33289,-25.68744 6.51028,-55.16995 24.88858,-73.26761 29.90581,-29.44916 83.21131,-59.1661 119.83268,-38.66035 22.25279,12.46021 25.24877,49.89795 18.026,74.35762 -19.99768,67.72147 -92.96277,109.78658 -153.73734,145.73872 -34.91179,20.65262 -76.78342,26.35155 -115.90014,37.08684 -68.23989,18.72793 -150.98071,4.19447 -206.89082,47.57048 -55.850518,43.32978 -121.752801,122.01927 -97.391356,188.37641 19.65391,53.53448 101.697516,72.4489 158.241706,65.03468 77.64581,-10.18112 123.72561,-96.0664 186.92603,-142.30744 46.865,-34.28912 84.45827,-100.19481 142.5278,-100.17219 48.70811,0.019 110.70243,36.20674 119.48531,84.11646 5.85795,31.95444 -23.26544,72.18453 -54.60996,80.72404 -37.84788,10.31129 -83.64445,-18.51053 -106.26935,-50.55579 -23.84587,-33.77461 8.85227,-76.07037 -12.72465,-123.37842 z" /></svg>
