<?xml version="1.0" encoding="UTF-8" standalone="no"?>
<svg
   xml:space="preserve"
   width="1000"
   height="1000"
   version="1.1"
   style="clip-rule:evenodd;fill-rule:evenodd;image-rendering:optimizeQuality;shape-rendering:geometricPrecision;text-rendering:geometricPrecision"
   viewBox="0 0 1000 1000"
   id="svg10"
   sodipodi:docname="ജ്ജ.svg"
   inkscape:version="1.1.1 (3bf5ae0d25, 2021-09-20)"
   xmlns:inkscape="http://www.inkscape.org/namespaces/inkscape"
   xmlns:sodipodi="http://sodipodi.sourceforge.net/DTD/sodipodi-0.dtd"
   xmlns="http://www.w3.org/2000/svg"
   xmlns:svg="http://www.w3.org/2000/svg"
   xmlns:rdf="http://www.w3.org/1999/02/22-rdf-syntax-ns#"
   xmlns:cc="http://creativecommons.org/ns#"
   xmlns:dc="http://purl.org/dc/elements/1.1/"><metadata
   id="metadata14"><rdf:RDF><cc:Work
       rdf:about=""><dc:format>image/svg+xml</dc:format><dc:type
         rdf:resource="http://purl.org/dc/dcmitype/StillImage" /></cc:Work></rdf:RDF></metadata><sodipodi:namedview
   pagecolor="#ffffff"
   bordercolor="#666666"
   borderopacity="1"
   objecttolerance="10"
   gridtolerance="10"
   guidetolerance="10"
   inkscape:pageopacity="0"
   inkscape:pageshadow="2"
   inkscape:window-width="1920"
   inkscape:window-height="1009"
   id="namedview12"
   showgrid="false"
   inkscape:zoom="1.2005384"
   inkscape:cx="479.36826"
   inkscape:cy="510.60424"
   inkscape:window-x="0"
   inkscape:window-y="0"
   inkscape:window-maximized="1"
   inkscape:current-layer="g1819"
   showguides="true"
   inkscape:guide-bbox="true"
   inkscape:document-rotation="0"
   inkscape:pagecheckerboard="0"><sodipodi:guide
     position="0,1000"
     orientation="0,1"
     id="guide16"
     inkscape:label=""
     inkscape:locked="true"
     inkscape:color="rgb(0,0,255)" /><sodipodi:guide
     position="1763.3122,2036.1693"
     orientation="1000,0"
     id="guide18" /><sodipodi:guide
     position="0,200"
     orientation="0,1"
     id="guide20"
     inkscape:label="base"
     inkscape:locked="true"
     inkscape:color="rgb(0,0,255)" /><inkscape:grid
     type="xygrid"
     id="grid24"
     originx="-473.37552"
     originy="-489.69235" /><sodipodi:guide
     position="0,0"
     orientation="0,1"
     id="guide34"
     inkscape:label="bottom"
     inkscape:locked="true"
     inkscape:color="rgb(0,0,255)" /><sodipodi:guide
     position="225.05109,1693.3186"
     orientation="0,1"
     id="guide44"
     inkscape:label=""
     inkscape:locked="false"
     inkscape:color="rgb(0,0,255)" /><sodipodi:guide
     position="0,900"
     orientation="0,1"
     id="guide46"
     inkscape:label=""
     inkscape:locked="true"
     inkscape:color="rgb(0,0,255)" /><sodipodi:guide
     position="1334.736,148.98645"
     orientation="-1,0"
     id="guide841"
     inkscape:label="width"
     inkscape:locked="false"
     inkscape:color="rgb(0,0,255)" /></sodipodi:namedview>
 <defs
   id="defs4"><inkscape:path-effect
   effect="fillet_chamfer"
   id="path-effect5759"
   is_visible="true"
   lpeversion="1"
   satellites_param="F,0,0,1,0,0,0,1 @ F,0,0,1,0,0,0,1 @ F,0,0,1,0,0,0,1 @ F,0,0,1,0,0,0,1 @ F,0,0,1,0,0,0,1 @ F,0,0,1,0,0,0,1 @ F,0,0,1,0,0,0,1 @ F,0,0,1,0,0,0,1 @ F,0,0,1,0,0,0,1 @ F,0,0,1,0,0,0,1 @ F,0,0,1,0,0,0,1 @ F,0,0,1,0,0,0,1 @ F,0,0,1,0,0,0,1 @ F,0,0,1,0,0,0,1 @ F,0,0,1,0,0,0,1 @ F,0,0,1,0,0,0,1 @ F,0,0,1,0,0,0,1 @ F,0,0,1,0,0,0,1 @ F,0,0,1,0,0,0,1 @ F,0,0,1,0,0,0,1 @ F,0,0,1,0,0,0,1 @ F,0,0,1,0,0,0,1 @ F,0,0,1,0,0,0,1 @ F,0,0,1,0,0,0,1 @ F,0,0,1,0,0,0,1 @ F,0,0,1,0,0,0,1 @ F,0,0,1,0,0,0,1 @ F,0,0,1,0,0,0,1 @ F,0,0,1,0,0,0,1 @ F,0,0,1,0,0,0,1 @ F,0,0,1,0,0,0,1 @ F,0,0,1,0,0,0,1 @ F,0,0,1,0,0,0,1 @ F,0,0,1,0,0,0,1 @ F,0,0,1,0,0,0,1 @ F,0,0,1,0,0,0,1 @ F,0,0,1,0,0,0,1 @ F,0,0,1,0,0,0,1 @ F,0,0,1,0,0,0,1 @ F,0,0,1,0,0,0,1 @ F,0,0,1,0,0,0,1 @ F,0,0,1,0,0,0,1 @ F,0,0,1,0,0,0,1 @ F,0,0,1,0,0,0,1 @ F,0,0,1,0,0,0,1 @ F,0,0,1,0,0,0,1 @ F,0,0,1,0,0,0,1 @ F,0,0,1,0,0,0,1 @ F,0,0,1,0,0,0,1 @ F,0,0,1,0,0,0,1 @ F,0,0,1,0,0,0,1 @ F,0,0,1,0,0,0,1 @ F,0,1,1,0,8.7134297,0,1 @ F,0,0,1,0,8.7134297,0,1 @ F,0,0,1,0,0,0,1 @ F,0,0,1,0,0,0,1 @ F,0,0,1,0,0,0,1 @ F,0,0,1,0,0,0,1 @ F,0,0,1,0,0,0,1 @ F,0,0,1,0,0,0,1 @ F,0,0,1,0,0,0,1 @ F,0,0,1,0,0,0,1 @ F,0,0,1,0,0,0,1 @ F,0,0,1,0,0,0,1 @ F,0,0,1,0,0,0,1 @ F,0,0,1,0,0,0,1 @ F,0,0,1,0,0,0,1 @ F,0,0,1,0,0,0,1 @ F,0,0,1,0,0,0,1 @ F,0,0,1,0,0,0,1 @ F,0,0,1,0,0,0,1 @ F,0,0,1,0,0,0,1 @ F,0,0,1,0,0,0,1 @ F,0,0,1,0,0,0,1 @ F,0,0,1,0,0,0,1 @ F,0,0,1,0,0,0,1 @ F,0,0,1,0,0,0,1 @ F,0,0,1,0,0,0,1 @ F,0,0,1,0,0,0,1 @ F,0,0,1,0,0,0,1 @ F,0,0,1,0,0,0,1 @ F,0,0,1,0,0,0,1 @ F,0,0,1,0,0,0,1 @ F,0,0,1,0,0,0,1 @ F,0,0,1,0,0,0,1 @ F,0,0,1,0,0,0,1 @ F,0,0,1,0,0,0,1 @ F,0,0,1,0,0,0,1 @ F,0,0,1,0,0,0,1 @ F,0,0,1,0,0,0,1 @ F,0,1,1,0,8.7134297,0,1 @ F,0,1,1,0,8.7134297,0,1 @ F,0,0,1,0,0,0,1 @ F,0,0,1,0,0,0,1 @ F,0,0,1,0,0,0,1 @ F,0,0,1,0,0,0,1 @ F,0,0,1,0,0,0,1 @ F,0,0,1,0,0,0,1 @ F,0,0,1,0,0,0,1 @ F,0,0,1,0,0,0,1 @ F,0,0,1,0,0,0,1 @ F,0,0,1,0,0,0,1 @ F,0,0,1,0,0,0,1 @ F,0,0,1,0,0,0,1 @ F,0,0,1,0,0,0,1 @ F,0,0,1,0,0,0,1 @ F,0,0,1,0,0,0,1 @ F,0,0,1,0,0,0,1 @ F,0,0,1,0,0,0,1 @ F,0,0,1,0,0,0,1 @ F,0,0,1,0,0,0,1 @ F,0,0,1,0,0,0,1 @ F,0,0,1,0,0,0,1 @ F,0,0,1,0,0,0,1 @ F,0,0,1,0,0,0,1 @ F,0,0,1,0,0,0,1 @ F,0,0,1,0,0,0,1 @ F,0,0,1,0,0,0,1 @ F,0,0,1,0,0,0,1 @ F,0,0,1,0,0,0,1 @ F,0,0,1,0,0,0,1 @ F,0,0,1,0,0,0,1 @ F,0,0,1,0,0,0,1 @ F,0,0,1,0,0,0,1 @ F,0,0,1,0,0,0,1 @ F,0,0,1,0,0,0,1 @ F,0,0,1,0,0,0,1 @ F,0,0,1,0,0,0,1 @ F,0,0,1,0,0,0,1 @ F,0,0,1,0,0,0,1 @ F,0,0,1,0,0,0,1 @ F,0,0,1,0,0,0,1 @ F,0,0,1,0,0,0,1 @ F,0,0,1,0,0,0,1 @ F,0,0,1,0,0,0,1 @ F,0,0,1,0,0,0,1 @ F,0,0,1,0,0,0,1 @ F,0,0,1,0,0,0,1 @ F,0,0,1,0,0,0,1 @ F,0,0,1,0,0,0,1 @ F,0,0,1,0,0,0,1 @ F,0,0,1,0,0,0,1 @ F,0,0,1,0,0,0,1 @ F,0,0,1,0,0,0,1 @ F,0,0,1,0,0,0,1 @ F,0,0,1,0,0,0,1 @ F,0,0,1,0,0,0,1 @ F,0,0,1,0,0,0,1 @ F,0,0,1,0,0,0,1 @ F,0,0,1,0,0,0,1 @ F,0,0,1,0,0,0,1 @ F,0,0,1,0,0,0,1 @ F,0,0,1,0,0,0,1 @ F,0,0,1,0,0,0,1 @ F,0,0,1,0,0,0,1 @ F,0,0,1,0,0,0,1 @ F,0,0,1,0,0,0,1 @ F,0,0,1,0,0,0,1 @ F,0,0,1,0,0,0,1 @ F,0,0,1,0,0,0,1 @ F,0,0,1,0,0,0,1 @ F,0,0,1,0,0,0,1 @ F,0,0,1,0,0,0,1 @ F,0,0,1,0,0,0,1 @ F,0,0,1,0,0,0,1"
   unit="px"
   method="auto"
   mode="F"
   radius="0"
   chamfer_steps="1"
   flexible="false"
   use_knot_distance="true"
   apply_no_radius="true"
   apply_with_radius="true"
   only_selected="false"
   hide_knots="false" /><inkscape:path-effect
   effect="fillet_chamfer"
   id="path-effect3161"
   is_visible="true"
   lpeversion="1"
   satellites_param="F,0,0,1,0,0,0,1 @ F,0,0,1,0,0,0,1 @ F,0,0,1,0,0,0,1 @ F,0,0,1,0,0,0,1 @ F,0,0,1,0,0,0,1 @ F,0,0,1,0,0,0,1 @ F,0,0,1,0,0,0,1 @ F,0,0,1,0,0,0,1 @ F,0,0,1,0,0,0,1 @ F,0,0,1,0,0,0,1 @ F,0,0,1,0,0,0,1 @ F,0,0,1,0,0,0,1 @ F,0,0,1,0,0,0,1 @ F,0,0,1,0,0,0,1 @ F,0,0,1,0,0,0,1 @ F,0,0,1,0,0,0,1 @ F,0,0,1,0,0,0,1 @ F,0,0,1,0,0,0,1 @ F,0,0,1,0,12.775284,0,1 @ F,0,1,1,0,12.775284,0,1 @ F,0,0,1,0,0,0,1 @ F,0,0,1,0,0,0,1 @ F,0,0,1,0,0,0,1 @ F,0,0,1,0,0,0,1 @ F,0,0,1,0,0,0,1 @ F,0,0,1,0,0,0,1 @ F,0,0,1,0,0,0,1 @ F,0,0,1,0,0,0,1 @ F,0,0,1,0,0,0,1 @ F,0,0,1,0,0,0,1 @ F,0,0,1,0,0,0,1 @ F,0,0,1,0,0,0,1 @ F,0,0,1,0,0,0,1 @ F,0,0,1,0,0,0,1 @ F,0,0,1,0,0,0,1 @ F,0,0,1,0,0,0,1 @ F,0,0,1,0,0,0,1 @ F,0,0,1,0,0,0,1 @ F,0,0,1,0,0,0,1 @ F,0,0,1,0,0,0,1 @ F,0,0,1,0,0,0,1 @ F,0,0,1,0,0,0,1 @ F,0,0,1,0,0,0,1 @ F,0,0,1,0,0,0,1 @ F,0,0,1,0,0,0,1 @ F,0,0,1,0,0,0,1 @ F,0,0,1,0,0,0,1 @ F,0,0,1,0,0,0,1 @ F,0,0,1,0,0,0,1 @ F,0,0,1,0,0,0,1 @ F,0,0,1,0,0,0,1 @ F,0,0,1,0,0,0,1 @ F,0,0,1,0,0,0,1 @ F,0,0,1,0,0,0,1 @ F,0,0,1,0,0,0,1 @ F,0,0,1,0,0,0,1 @ F,0,0,1,0,0,0,1 @ F,0,0,1,0,0,0,1 @ F,0,0,1,0,0,0,1 @ F,0,0,1,0,0,0,1 @ F,0,0,1,0,0,0,1 @ F,0,0,1,0,0,0,1 @ F,0,0,1,0,0,0,1 @ F,0,0,1,0,0,0,1 @ F,0,0,1,0,0,0,1 @ F,0,0,1,0,0,0,1 @ F,0,0,1,0,0,0,1 @ F,0,0,1,0,0,0,1 @ F,0,0,1,0,0,0,1 @ F,0,0,1,0,0,0,1 @ F,0,0,1,0,0,0,1 @ F,0,0,1,0,0,0,1 @ F,0,0,1,0,0,0,1 @ F,0,0,1,0,0,0,1 @ F,0,0,1,0,0,0,1 @ F,0,0,1,0,0,0,1 @ F,0,0,1,0,0,0,1 @ F,0,0,1,0,0,0,1 @ F,0,0,1,0,0,0,1 @ F,0,0,1,0,0,0,1 @ F,0,0,1,0,0,0,1 @ F,0,0,1,0,0,0,1 @ F,0,0,1,0,0,0,1 @ F,0,0,1,0,0,0,1 @ F,0,0,1,0,0,0,1 @ F,0,0,1,0,0,0,1 @ F,0,0,1,0,0,0,1 @ F,0,0,1,0,0,0,1 @ F,0,0,1,0,0,0,1 @ F,0,0,1,0,0,0,1 @ F,0,0,1,0,0,0,1"
   unit="px"
   method="auto"
   mode="F"
   radius="0"
   chamfer_steps="1"
   flexible="false"
   use_knot_distance="true"
   apply_no_radius="true"
   apply_with_radius="true"
   only_selected="false"
   hide_knots="false" /><inkscape:path-effect
   effect="spiro"
   id="path-effect3157"
   is_visible="true"
   lpeversion="1" /><inkscape:path-effect
   effect="spiro"
   id="path-effect1294"
   is_visible="true"
   lpeversion="1" /><inkscape:path-effect
   effect="fillet_chamfer"
   id="path-effect849"
   is_visible="true"
   lpeversion="1"
   satellites_param="F,0,0,1,0,0,0,1 @ F,0,0,1,0,0,0,1 @ F,0,0,1,0,0,0,1 @ F,0,0,1,0,0,0,1 @ F,0,0,1,0,0,0,1 @ F,0,0,1,0,0,0,1 @ F,0,0,1,0,0,0,1 @ F,0,0,1,0,0,0,1 @ F,0,0,1,0,0,0,1 @ F,0,0,1,0,0,0,1 @ F,0,0,1,0,0,0,1 | F,0,0,1,0,0,0,1 @ F,0,0,1,0,0,0,1 @ F,0,0,1,0,0,0,1 @ F,0,0,1,0,0,0,1 @ F,0,0,1,0,0,0,1 @ F,0,0,1,0,0,0,1 @ F,0,0,1,0,0,0,1 @ F,0,0,1,0,0,0,1 @ F,0,0,1,0,0,0,1 @ F,0,0,1,0,0,0,1 @ F,0,0,1,0,0,0,1 @ F,0,0,1,0,0,0,1 @ F,0,0,1,0,0,0,1 @ F,0,0,1,0,0,0,1 @ F,0,1,1,0,17.196569,0,1 @ F,0,1,1,0,17.196569,0,1 @ F,0,0,1,0,0,0,1 @ F,0,0,1,0,0,0,1 @ F,0,0,1,0,0,0,1 @ F,0,0,1,0,0,0,1 @ F,0,0,1,0,0,0,1 @ F,0,0,1,0,0,0,1 @ F,0,0,1,0,0,0,1 @ F,0,0,1,0,0,0,1 @ F,0,0,1,0,0,0,1 @ F,0,0,1,0,0,0,1 @ F,0,0,1,0,0,0,1 @ F,0,0,1,0,0,0,1 @ F,0,0,1,0,0,0,1 @ F,0,0,1,0,0,0,1 @ F,0,0,1,0,0,0,1 @ F,0,0,1,0,0,0,1 @ F,0,0,1,0,0,0,1 @ F,0,0,1,0,0,0,1 @ F,0,0,1,0,0,0,1 @ F,0,0,1,0,0,0,1 @ F,0,0,1,0,0,0,1 @ F,0,0,1,0,0,0,1 @ F,0,0,1,0,0,0,1 @ F,0,0,1,0,0,0,1 @ F,0,0,1,0,0,0,1 @ F,0,0,1,0,0,0,1 @ F,0,0,1,0,0,0,1 @ F,0,0,1,0,0,0,1 @ F,0,0,1,0,0,0,1 @ F,0,0,1,0,0,0,1 @ F,0,0,1,0,0,0,1 @ F,0,0,1,0,0,0,1 @ F,0,0,1,0,0,0,1 @ F,0,0,1,0,0,0,1 @ F,0,0,1,0,0,0,1 @ F,0,0,1,0,0,0,1 @ F,0,0,1,0,0,0,1 @ F,0,0,1,0,0,0,1 @ F,0,0,1,0,0,0,1 @ F,0,0,1,0,0,0,1 @ F,0,0,1,0,0,0,1 @ F,0,0,1,0,0,0,1 @ F,0,0,1,0,0,0,1 @ F,0,0,1,0,0,0,1 @ F,0,0,1,0,0,0,1 @ F,0,0,1,0,0,0,1 @ F,0,0,1,0,0,0,1 @ F,0,0,1,0,0,0,1 @ F,0,0,1,0,0,0,1 @ F,0,0,1,0,0,0,1 @ F,0,0,1,0,0,0,1 @ F,0,0,1,0,0,0,1 @ F,0,0,1,0,0,0,1 @ F,0,0,1,0,0,0,1 @ F,0,0,1,0,0,0,1 @ F,0,0,1,0,0,0,1 @ F,0,0,1,0,0,0,1 @ F,0,0,1,0,0,0,1 @ F,0,0,1,0,0,0,1 @ F,0,0,1,0,0,0,1 @ F,0,0,1,0,0,0,1 @ F,0,0,1,0,0,0,1 @ F,0,0,1,0,0,0,1 @ F,0,0,1,0,0,0,1 @ F,0,0,1,0,0,0,1 @ F,0,0,1,0,0,0,1 @ F,0,0,1,0,0,0,1 @ F,0,0,1,0,0,0,1 @ F,0,0,1,0,0,0,1 @ F,0,0,1,0,0,0,1 @ F,0,0,1,0,0,0,1 @ F,0,0,1,0,0,0,1 @ F,0,0,1,0,0,0,1 @ F,0,0,1,0,0,0,1 @ F,0,0,1,0,0,0,1 @ F,0,0,1,0,0,0,1 @ F,0,0,1,0,0,0,1 @ F,0,0,1,0,0,0,1 @ F,0,0,1,0,0,0,1 @ F,0,0,1,0,0,0,1 @ F,0,0,1,0,0,0,1 @ F,0,0,1,0,0,0,1 @ F,0,0,1,0,0,0,1 @ F,0,0,1,0,0,0,1 @ F,0,0,1,0,0,0,1 @ F,0,0,1,0,0,0,1 @ F,0,0,1,0,0,0,1 @ F,0,1,1,0,17.196569,0,1 @ F,0,1,1,0,17.196569,0,1 @ F,0,0,1,0,0,0,1 @ F,0,0,1,0,0,0,1 @ F,0,0,1,0,0,0,1 @ F,0,0,1,0,0,0,1 @ F,0,0,1,0,0,0,1 @ F,0,0,1,0,0,0,1 @ F,0,0,1,0,0,0,1 @ F,0,0,1,0,0,0,1 @ F,0,0,1,0,0,0,1 @ F,0,0,1,0,0,0,1 @ F,0,0,1,0,0,0,1 @ F,0,0,1,0,0,0,1 @ F,0,0,1,0,0,0,1 @ F,0,0,1,0,0,0,1 @ F,0,0,1,0,0,0,1 @ F,0,0,1,0,0,0,1 @ F,0,0,1,0,0,0,1 @ F,0,0,1,0,0,0,1 @ F,0,0,1,0,0,0,1 @ F,0,0,1,0,0,0,1 @ F,0,0,1,0,0,0,1 @ F,0,0,1,0,0,0,1 | F,0,0,1,0,0,0,1 @ F,0,0,1,0,0,0,1 @ F,0,0,1,0,0,0,1 @ F,0,0,1,0,0,0,1 @ F,0,0,1,0,0,0,1 @ F,0,0,1,0,0,0,1 @ F,0,0,1,0,0,0,1 @ F,0,0,1,0,0,0,1 @ F,0,0,1,0,0,0,1 @ F,0,0,1,0,0,0,1 | F,0,0,1,0,0,0,1 @ F,0,0,1,0,0,0,1 @ F,0,0,1,0,0,0,1 @ F,0,0,1,0,0,0,1 @ F,0,0,1,0,0,0,1 @ F,0,0,1,0,0,0,1 @ F,0,0,1,0,0,0,1 @ F,0,0,1,0,0,0,1 @ F,0,0,1,0,0,0,1 @ F,0,0,1,0,0,0,1"
   unit="px"
   method="auto"
   mode="F"
   radius="0"
   chamfer_steps="1"
   flexible="false"
   use_knot_distance="true"
   apply_no_radius="true"
   apply_with_radius="true"
   only_selected="true"
   hide_knots="false" /><inkscape:path-effect
   effect="spiro"
   id="path-effect865"
   is_visible="true"
   lpeversion="1" /><inkscape:path-effect
   effect="spiro"
   id="path-effect847"
   is_visible="true"
   lpeversion="1" /><inkscape:path-effect
   effect="spiro"
   id="path-effect851"
   is_visible="true"
   lpeversion="1" />
  <style
   type="text/css"
   id="style2">
   <![CDATA[
    .fil0 {fill:#EF7F1A;fill-rule:nonzero}
   ]]>
  </style>
 <inkscape:path-effect
   effect="spiro"
   id="path-effect1214"
   is_visible="true"
   lpeversion="1" /><inkscape:path-effect
   effect="spiro"
   id="path-effect1195"
   is_visible="true"
   lpeversion="1" /><inkscape:path-effect
   effect="spiro"
   id="path-effect992"
   is_visible="true"
   lpeversion="1" /><inkscape:path-effect
   effect="spiro"
   id="path-effect1060"
   is_visible="true"
   lpeversion="1" /><inkscape:path-effect
   effect="spiro"
   id="path-effect1047"
   is_visible="true"
   lpeversion="1" /><inkscape:path-effect
   effect="spiro"
   id="path-effect1085"
   is_visible="true"
   lpeversion="1" /><inkscape:path-effect
   effect="spiro"
   id="path-effect1049"
   is_visible="true"
   lpeversion="1" /><inkscape:path-effect
   effect="spiro"
   id="path-effect1271"
   is_visible="true"
   lpeversion="1" /><inkscape:path-effect
   effect="fillet_chamfer"
   id="path-effect2799"
   is_visible="true"
   lpeversion="1"
   satellites_param="F,0,0,1,0,0,0,1 @ F,0,0,1,0,0,0,1 @ F,0,0,1,0,0,0,1 @ F,0,0,1,0,0,0,1 @ F,0,0,1,0,0,0,1 @ F,0,0,1,0,0,0,1 @ F,0,0,1,0,0,0,1 @ F,0,0,1,0,0,0,1 @ F,0,0,1,0,0,0,1 @ F,0,0,1,0,0,0,1 @ F,0,0,1,0,0,0,1 @ F,0,0,1,0,0,0,1 @ F,0,0,1,0,0,0,1 @ F,0,0,1,0,0,0,1 @ F,0,0,1,0,0,0,1 @ F,0,0,1,0,0,0,1 @ F,0,0,1,0,0,0,1 @ F,0,0,1,0,0,0,1 @ F,0,0,1,0,12.775284,0,1 @ F,0,1,1,0,12.775284,0,1 @ F,0,0,1,0,0,0,1 @ F,0,0,1,0,0,0,1 @ F,0,0,1,0,0,0,1 @ F,0,0,1,0,0,0,1 @ F,0,0,1,0,0,0,1 @ F,0,0,1,0,0,0,1 @ F,0,0,1,0,0,0,1 @ F,0,0,1,0,0,0,1 @ F,0,0,1,0,0,0,1 @ F,0,0,1,0,0,0,1 @ F,0,0,1,0,0,0,1 @ F,0,0,1,0,0,0,1 @ F,0,0,1,0,0,0,1 @ F,0,0,1,0,0,0,1 @ F,0,0,1,0,0,0,1 @ F,0,0,1,0,0,0,1 @ F,0,0,1,0,0,0,1 @ F,0,0,1,0,0,0,1 @ F,0,0,1,0,0,0,1 @ F,0,0,1,0,0,0,1 @ F,0,0,1,0,0,0,1 @ F,0,0,1,0,0,0,1 @ F,0,0,1,0,0,0,1 @ F,0,0,1,0,0,0,1 @ F,0,0,1,0,0,0,1 @ F,0,0,1,0,0,0,1 @ F,0,0,1,0,0,0,1 @ F,0,0,1,0,0,0,1 @ F,0,0,1,0,0,0,1 @ F,0,0,1,0,0,0,1 @ F,0,0,1,0,0,0,1 @ F,0,0,1,0,0,0,1 @ F,0,0,1,0,0,0,1 @ F,0,0,1,0,0,0,1 @ F,0,0,1,0,0,0,1 @ F,0,0,1,0,0,0,1 @ F,0,0,1,0,0,0,1 @ F,0,0,1,0,0,0,1 @ F,0,0,1,0,0,0,1 @ F,0,0,1,0,0,0,1 @ F,0,0,1,0,0,0,1 @ F,0,0,1,0,0,0,1 @ F,0,0,1,0,0,0,1 @ F,0,0,1,0,0,0,1 @ F,0,0,1,0,0,0,1 @ F,0,0,1,0,0,0,1 @ F,0,0,1,0,0,0,1 @ F,0,0,1,0,0,0,1 @ F,0,0,1,0,0,0,1 @ F,0,0,1,0,0,0,1 @ F,0,0,1,0,0,0,1 @ F,0,0,1,0,0,0,1 @ F,0,0,1,0,0,0,1 @ F,0,0,1,0,0,0,1 @ F,0,0,1,0,0,0,1 @ F,0,0,1,0,0,0,1 @ F,0,0,1,0,0,0,1 @ F,0,0,1,0,0,0,1 @ F,0,0,1,0,0,0,1 @ F,0,0,1,0,0,0,1 @ F,0,0,1,0,0,0,1 @ F,0,0,1,0,0,0,1 @ F,0,0,1,0,0,0,1 @ F,0,0,1,0,0,0,1 @ F,0,0,1,0,0,0,1 @ F,0,0,1,0,0,0,1 @ F,0,0,1,0,0,0,1 @ F,0,0,1,0,0,0,1 @ F,0,0,1,0,0,0,1 @ F,0,0,1,0,0,0,1 @ F,0,0,1,0,0,0,1"
   unit="px"
   method="auto"
   mode="F"
   radius="0"
   chamfer_steps="1"
   flexible="false"
   use_knot_distance="true"
   apply_no_radius="true"
   apply_with_radius="true"
   only_selected="false"
   hide_knots="false" /></defs>
 
<g
   id="g1819"
   transform="translate(-364.39392,21.303909)"><path
     id="path1102-7-3"
   style="clip-rule:evenodd;fill:#63452c;fill-rule:nonzero;stroke:none;stroke-width:6.77407px;stroke-linecap:butt;stroke-linejoin:miter;stroke-opacity:1;image-rendering:optimizeQuality;shape-rendering:geometricPrecision;text-rendering:geometricPrecision"
     d="m 1049.8623,339.35755 c -44.3364,54.8641 -84.51742,113.26569 -133.13369,164.37584 -49.17718,51.69983 -106.98953,95.6374 -171.669,125.76768 -48.79985,22.73292 -101.01212,37.43597 -153.78843,48.06013 -17.97184,3.61783 -36.74228,6.752 -54.45054,2.00934 -8.85414,-2.37133 -17.27587,-6.76791 -23.67156,-13.33403 -6.3957,-6.56613 -10.64425,-15.38843 -10.92761,-24.55023 -0.30521,-9.86825 3.94922,-19.48829 10.18984,-27.13879 6.24061,-7.6505 14.36264,-13.53961 22.73665,-18.76946 16.3972,-10.24059 34.10877,-18.28649 52.35623,-24.67147 63.18288,-22.10835 131.83535,-24.18848 195.61435,-44.51321 74.30956,-23.68055 139.39767,-71.62552 191.24876,-129.8848 35.5878,-39.98609 66.1521,-86.66703 75.5989,-139.35612 6.822,-38.04949 1.8466,-78.79745 -17.5868,-112.21375 -9.7167,-16.70815 -22.9397,-31.43175 -38.82323,-42.44485 C 977.67261,91.680729 959.12217,84.430799 939.9137,82.28359 912.84433,79.257655 885.22227,86.435288 861.36733,99.582493 837.5124,112.7297 817.1957,131.60376 799.70101,152.48061 754.07747,206.92434 726.68929,276.38898 722.88092,347.31939 l 54.4206,-3.22451 C 763.78762,268.7602 729.07509,197.34502 678.18433,140.17798 657.40807,116.83942 633.62126,95.584705 605.53173,81.898228 577.44219,68.211751 544.61752,62.59208 514.48399,70.85718 c -19.2557,5.281501 -36.83777,16.06029 -51.02021,30.11499 -14.18244,14.0547 -25.02032,31.31544 -32.49171,49.83176 -14.94279,37.03266 -16.36317,78.27148 -12.02107,117.96846 6.24297,57.07546 24.80708,114.17762 61.81997,158.07099 16.78948,19.91054 37.47757,37.00489 61.61534,46.78673 24.13777,9.78184 51.92077,11.79032 76.28672,2.59159 16.30196,-6.15438 30.65598,-17.14233 41.35402,-30.89668 10.69805,-13.75435 17.77352,-30.2097 21.0212,-47.32936 6.18074,-32.58086 -1.65369,-67.03733 -18.65838,-95.50757 -19.99643,-33.47917 -53.35482,-59.48188 -91.54079,-67.39036 -35.65778,-7.38488 -74.36908,1.5804 -103.15007,23.88889 l 11.99849,104.61654 c 7.06243,-15.20029 18.71704,-28.23035 33.03862,-36.93777 14.32159,-8.70742 31.25342,-13.05771 47.99859,-12.33226 13.13476,0.56903 26.27551,4.29987 37.12525,11.72475 10.84974,7.42489 19.25822,18.68535 22.192,31.50091 2.01054,8.7826 1.41022,18.19016 -1.98305,26.53654 -3.39327,8.34638 -9.60855,15.56767 -17.50501,19.90613 -9.41677,5.17374 -20.84785,6.0786 -31.30569,3.61351 -10.45785,-2.4651 -19.98442,-8.11409 -28.05373,-15.20841 -12.15228,-10.68395 -21.17762,-24.63318 -27.3419,-39.59401 -6.16428,-14.96083 -9.56022,-30.94187 -11.52474,-47.00317 -2.28865,-18.71131 -2.65135,-37.85906 1.46182,-56.25561 4.11316,-18.39655 12.95842,-36.07493 26.98145,-48.67277 15.73929,-14.13967 37.74442,-21.09697 58.72486,-18.36258 13.76646,1.79419 26.87337,7.56319 38.08586,15.74945 11.21248,8.18625 20.5808,18.73654 28.21647,30.33099 15.27135,23.18889 23.56652,50.15705 31.68164,76.71046 7.84182,25.65914 15.72269,51.4474 19.41492,78.02282 1.54574,11.12568 2.34955,22.35432 2.40605,33.5867 0.0242,4.81199 3.68596,7.79659 8.36379,6.66694 l 81.55255,-19.69415 c 4.67783,-1.12965 6.4976,-5.41843 4.4135,-9.75484 -8.88937,-18.49623 -13.05119,-39.25944 -11.88594,-59.75265 1.47911,-26.01318 11.33029,-51.01799 24.88859,-73.26761 12.61264,-20.69776 29.19508,-39.92332 51.14994,-50.19269 10.97743,-5.13468 23.16402,-7.88595 35.26204,-7.17405 12.09802,0.7119 24.07864,4.98664 33.42072,12.70639 11.17987,9.23839 18.10397,22.99618 20.6683,37.27069 2.56433,14.27451 1.0186,29.05357 -2.6423,43.08693 -9.23884,35.41535 -31.7326,66.42655 -59.46856,90.30792 -27.73596,23.88138 -60.57989,41.12485 -94.26881,55.4308 -37.39006,15.87764 -76.21885,28.39714 -115.90014,37.08684 -69.2953,15.17479 -141.98259,18.95169 -206.89082,47.57048 -36.34698,16.02581 -70.11877,40.49226 -90.50086,74.58772 -10.19105,17.04772 -16.84988,36.32146 -18.3762,56.12431 -1.52631,19.80285 2.18588,40.11457 11.4857,57.66438 14.12025,26.64648 40.3548,45.51658 68.86661,55.33965 28.51182,9.82307 59.2636,11.34232 89.3751,9.69503 80.83062,-4.42195 159.36841,-31.02661 230.84083,-69.03761 53.90338,-28.6673 104.3409,-63.91446 149.4311,-105.07588 67.51971,-61.63661 122.36415,-135.76429 173.71965,-211.39892 13.4282,-19.77658 26.8271,-39.90097 44.4366,-56.06689 17.6094,-16.16591 40.1841,-28.23392 64.0882,-28.38218 13.2382,-0.0821 26.5995,3.6077 37.4597,11.17819 10.8603,7.57048 19.0661,19.10666 21.8575,32.04747 1.8963,8.79115 1.2763,18.1611 -2.0944,26.49887 -3.3708,8.33777 -9.5297,15.58042 -17.3936,19.9438 -9.4008,5.21611 -20.8474,6.13254 -31.31,3.65949 -10.4626,-2.47306 -19.9849,-8.1448 -28.0494,-15.25439 -12.1363,-10.6993 -21.1558,-24.64642 -27.3229,-39.60411 -6.1671,-14.9577 -9.5733,-30.93435 -11.5438,-46.99307 -2.296,-18.7111 -2.6596,-37.86017 1.4551,-56.25708 4.1147,-18.39691 12.9636,-36.07422 26.9882,-48.6713 15.7404,-14.13819 37.7445,-21.09624 58.7249,-18.36258 13.7666,1.79373 26.8737,7.56252 38.0863,15.74872 11.2126,8.18619 20.5809,18.73655 28.2166,30.3311 15.2712,23.18908 23.566,50.15751 31.681,76.71108 7.8417,25.65919 15.7226,51.44741 19.4149,78.02282 1.5458,11.12568 2.3496,22.35432 2.4061,33.5867 0.024,4.81199 3.6859,7.79659 8.3638,6.66694 l 81.5525,-19.69415 c 4.6779,-1.12965 6.4977,-5.41844 4.4136,-9.75486 -8.8893,-18.49625 -13.0512,-39.25942 -11.886,-59.75263 1.479,-26.01321 11.33,-51.01816 24.8886,-73.26761 12.6127,-20.69729 29.1955,-39.92203 51.1502,-50.19101 10.9773,-5.13449 23.1637,-7.88571 35.2616,-7.17407 12.0978,0.71164 24.0784,4.98577 33.4209,12.70473 11.1808,9.2378 18.1064,22.99537 20.6712,37.27015 2.5648,14.27478 1.0185,29.05446 -2.6452,43.08747 -9.2447,35.41045 -31.7528,66.40782 -59.4915,90.28104 -27.7387,23.87322 -60.5753,41.11686 -94.2459,55.45768 -37.3755,15.91882 -76.1884,28.52422 -115.9001,37.08684 -69.375,14.95861 -142.4171,17.90926 -206.8909,47.57048 -35.6722,16.41102 -68.3039,41.48441 -88.1328,75.37598 -9.9145,16.94578 -16.4895,35.93452 -18.3636,55.47791 -1.8741,19.5434 1.0291,39.62741 9.1051,57.52252 12.7174,28.17973 38.0005,49.83378 66.9418,60.70723 28.9412,10.87345 61.21,11.4284 91.2999,4.32745 38.7699,-9.14935 73.8069,-30.46859 104.1657,-56.25929 30.3588,-25.7907 56.5079,-56.0877 82.7603,-86.04815 19.5645,-22.32795 39.3955,-44.67164 62.69,-63.07487 23.2944,-18.40324 50.4586,-32.83509 79.8379,-37.09732 27.043,-3.92329 55.7096,1.27489 78.4729,16.39276 11.3817,7.55893 21.2061,17.50715 28.3687,29.14229 7.1626,11.63513 11.6332,24.95576 12.6437,38.58141 1.2998,17.52688 -3.2546,35.48664 -13.0149,50.10231 -9.7603,14.61568 -24.7081,25.75257 -41.5951,30.62173 -20.2593,5.84149 -42.6041,2.52717 -61.3315,-7.16036 -18.7273,-9.68753 -33.9546,-25.39738 -44.9378,-43.39543 -22.2648,-36.48499 -27.0742,-83.11719 -12.7247,-123.37842 l -103.8766,82.96633 c 5.8634,25.24565 15.3603,49.64444 28.1073,72.21071 15.8626,28.08197 36.9633,53.48183 63.161,72.29408 26.1976,18.81225 57.6356,30.82234 89.8705,31.88592 42.1841,1.39185 84.2645,-16.4788 113.9685,-46.4639 29.704,-29.9851 47.0458,-71.4222 49.5391,-113.55552 2.268,-38.32686 -7.6145,-77.49397 -28.973,-109.39865 -14.3506,-21.43657 -33.7985,-39.52997 -56.5344,-51.71798 -22.7358,-12.18802 -48.7455,-18.38276 -74.51,-17.09437 -37.332,1.86684 -72.4532,19.08987 -102.4935,41.33261 -30.0404,22.24275 -55.9017,49.53047 -83.2135,75.04968 -33.6424,31.43435 -69.7997,60.42144 -109.5303,83.68972 -16.2034,9.48957 -33.714,18.21153 -52.4855,18.69656 -9.3857,0.24251 -18.9297,-1.6759 -27.1023,-6.29754 -8.1725,-4.62164 -14.8825,-12.05645 -17.8651,-20.95896 -2.0005,-5.97106 -2.301,-12.45733 -1.2006,-18.6577 1.1005,-6.20038 3.5745,-12.11885 6.9215,-17.45301 6.6939,-10.66831 16.6957,-18.85728 27.2055,-25.79754 16.1509,-10.66547 33.9023,-18.83578 52.3563,-24.67147 62.9463,-19.9055 131.6131,-12.3173 195.6143,-28.51321 75.8896,-19.20434 140.0133,-70.6989 191.2488,-129.8848 35.0074,-40.43967 65.9208,-86.75174 75.5989,-139.35612 7.0002,-38.04886 2.0466,-78.86676 -17.4274,-112.29553 -9.737,-16.71439 -22.9934,-31.4318 -38.9074,-42.428369 -15.914,-10.996573 -34.491,-18.220196 -53.7177,-20.344941 -27.0691,-2.991415 -54.6791,4.191268 -78.5329,17.332153 -23.8538,13.140887 -44.1781,31.999187 -61.6798,52.864867 -45.6509,54.42543 -73.0442,123.90309 -76.8201,194.83878 l 54.4206,-3.22451 c -13.5161,-75.33409 -48.2282,-146.74854 -99.1172,-203.9169 -20.7758,-23.33942 -44.5621,-44.595327 -72.6518,-58.282279 -28.0897,-13.686953 -60.9153,-19.30616 -91.0485,-11.038521 -19.2545,5.282852 -36.8347,16.063127 -51.0152,30.118673 -14.1804,14.055547 -25.0163,31.316487 -32.4865,49.832407 -14.9404,37.03186 -16.3623,78.26757 -12.0313,117.96413 6.2277,57.0805 24.7667,114.20722 61.8199,158.07099 16.7996,19.88751 37.5015,36.94412 61.6337,46.7104 24.1321,9.76627 51.8852,11.78933 76.2684,2.66792 16.3369,-6.11139 30.7541,-17.05224 41.4816,-30.80591 10.7275,-13.75368 17.7915,-30.25566 20.8936,-47.42013 5.8846,-32.56047 -2.5428,-66.60942 -18.6583,-95.50757 -9.6063,-17.22581 -22.0251,-33.0621 -37.5687,-45.20321 -15.5435,-12.14112 -34.3239,-20.46742 -53.9721,-22.18715 -19.9263,-1.74408 -40.0614,3.32746 -57.9961,12.18435 -17.9348,8.85689 -33.834,21.37732 -48.4766,35.00428 -20.0323,18.64284 -37.9199,39.4608 -55.1199,60.74487 z"
     sodipodi:nodetypes="aaaaaaaaaaaaccaaacaaaaccaaaaaaacaccaaaaaaaaaaaaaaaaaaacaccaaaaaaaaaaaaaaccaaaaaaaaaaaaaaaccaaacaaaaaa"
     inkscape:path-effect="#path-effect847;#path-effect5759"
     inkscape:original-d="m 1049.8623,339.35755 c -45.8977,53.52531 -82.08218,115.7415 -133.13369,164.37584 -51.36078,48.92896 -108.34704,93.79422 -171.669,125.76768 -47.94262,24.2079 -100.12377,50.21003 -153.78843,48.06013 -31.97584,-1.28101 -80.11936,-5.14473 -89.04971,-35.87492 -5.2552,-18.08365 18.45645,-33.85613 32.92649,-45.90825 14.82417,-12.34707 34.11745,-18.38234 52.35623,-24.67147 63.2188,-21.79921 134.2894,-17.84727 195.61435,-44.51321 70.66948,-30.72922 139.53616,-72.75097 191.24876,-129.8848 35.4633,-39.18118 77.2935,-86.53622 75.5989,-139.35612 -2.2103,-68.89338 -43.6711,-156.50306 -110.0525,-175.06884 -50.3361,-14.07816 -104.9269,31.63763 -140.21269,70.19702 -47.1299,51.50235 -76.82009,194.83878 -76.82009,194.83878 l 54.4206,-3.22451 c 0,0 -44.3086,-151.88007 -99.11719,-203.9169 C 635.21033,99.37725 569.93756,49.96783 514.48399,70.85718 445.93135,96.68095 421.76725,195.5713 418.951,268.77239 c -2.17504,56.53472 32.44321,111.26111 61.81997,158.07099 29.272,45.11132 90.93673,62.72632 137.90206,49.37832 32.07951,-9.1173 54.44451,-45.83277 62.37522,-78.22604 7.71376,-31.50716 -1.30265,-68.10352 -18.65838,-95.50757 -20.27323,-32.01066 -54.43226,-59.73248 -91.54079,-67.39036 -34.56507,-7.133 -103.15007,23.88889 -103.15007,23.88889 l 11.99849,104.61654 c 11.11231,-2.58362 49.45151,-50.58897 81.03721,-49.27003 24.44408,1.02072 52.74733,19.65893 59.31725,43.22566 4.5084,16.17191 -4.67728,38.53716 -19.48806,46.44267 -17.7854,9.49327 -43.5687,0.93888 -59.35942,-11.5949 -24.78198,-19.67053 -36.38292,-55.05503 -38.86664,-86.59718 -2.84471,-36.12656 3.31482,-78.81743 28.44327,-104.92838 14.22178,-14.77784 39.1139,-24.36708 58.72486,-18.36258 50.07021,15.33054 83.74055,90.09817 97.98397,122.7909 15.6797,36.98326 15.4337,51.51947 19.41492,78.02282 2.09758,13.96384 2.49642,34.3722 2.29988,42.29905 l 98.49247,-23.78497 c -5.44012,-32.31027 -17.04423,-44.38163 -15.9424,-67.46208 1.22993,-25.76382 6.91901,-54.76405 24.88859,-73.26761 29.6981,-30.58067 82.3556,-64.9735 119.8327,-44.66035 24.1344,13.0812 26.026,54.09765 18.026,80.35762 -20.5782,67.54734 -92.9628,109.78658 -153.73737,145.73872 -34.91179,20.65262 -76.78342,26.35155 -115.90014,37.08684 -68.23989,18.72793 -150.98071,4.19447 -206.89082,47.57048 -55.85052,43.32978 -121.7528,122.01927 -97.39136,188.37641 19.65391,53.53448 101.28383,62.20339 158.24171,65.03468 80.2154,3.98738 158.5824,-33.9787 230.84083,-69.03761 54.78424,-26.58065 104.78954,-63.66363 149.4311,-105.07588 66.86604,-62.02903 108.37495,-147.76921 173.71965,-211.39892 32.8397,-31.97785 62.6935,-83.72636 108.5248,-84.44907 24.4623,-0.38575 52.7473,19.65893 59.3172,43.22566 4.5084,16.17191 -4.6772,38.53716 -19.488,46.44267 -17.7854,9.49327 -43.5687,0.93888 -59.3594,-11.5949 -24.782,-19.67053 -36.383,-55.05503 -38.8667,-86.59718 -2.8447,-36.12656 3.3148,-78.81743 28.4433,-104.92838 14.2218,-14.77784 39.1139,-24.36708 58.7249,-18.36258 50.0702,15.33054 83.7405,90.09817 97.9839,122.7909 15.6797,36.98326 15.4337,51.51947 19.4149,78.02282 2.0976,13.96384 2.4965,34.3722 2.2999,42.29905 l 98.4925,-23.78497 c -5.4401,-32.31027 -17.0442,-44.38163 -15.9424,-67.46208 1.2299,-25.76382 6.919,-54.76405 24.8886,-73.26761 29.6981,-30.58067 82.3556,-64.9735 119.8327,-44.66035 24.1344,13.0812 26.026,54.09765 18.026,80.35762 -20.5782,67.54734 -92.9628,109.78658 -153.7374,145.73872 -34.9118,20.65262 -76.7834,26.35155 -115.9001,37.08684 -68.2399,18.72793 -150.9807,4.19447 -206.8909,47.57048 -55.8505,43.32978 -121.7528,122.01927 -97.3913,188.37641 19.6539,53.53448 101.6975,72.4489 158.2417,65.03468 77.6458,-10.18112 123.7256,-96.0664 186.926,-142.30744 46.865,-34.28912 84.4583,-100.19481 142.5279,-100.17219 48.7081,0.019 110.7024,36.20674 119.4853,84.11646 5.8579,31.95444 -23.2655,72.18453 -54.61,80.72404 -37.8479,10.31129 -83.6444,-18.51053 -106.2693,-50.55579 -23.8459,-33.77461 -12.7247,-123.37842 -12.7247,-123.37842 l -103.8766,82.96633 c 0,0 12.0242,51.99951 28.1073,72.21071 38.424,48.2867 91.5636,109.63137 153.0315,104.18 75.9623,-6.73684 143.2663,-86.49423 163.5076,-160.01942 10.0127,-36.37035 -5.4563,-79.90252 -28.973,-109.39865 -30.7569,-38.5773 -81.7427,-70.69384 -131.0444,-68.81235 -73.0008,2.78592 -125.6671,74.7638 -185.707,116.38229 -37.7625,26.17629 -65.4027,70.88497 -109.5303,83.68972 -31.3175,9.08758 -81.8997,20.10134 -97.4529,-8.55994 -11.1481,-20.5434 16.0036,-45.78602 32.9264,-61.90825 13.9684,-13.30754 33.8834,-19.10752 52.3563,-24.67147 63.094,-19.00361 134.1956,-4.64408 195.6143,-28.51321 71.8279,-27.91443 139.5362,-72.75097 191.2488,-129.8848 35.4633,-39.18118 77.2935,-86.53622 75.5989,-139.35612 -2.2103,-68.89338 -43.6711,-156.50306 -110.0525,-175.06884 -50.3361,-14.07816 -104.9269,31.63763 -140.2127,70.19702 -47.1299,51.50235 -76.8201,194.83878 -76.8201,194.83878 l 54.4206,-3.22451 c 0,0 -44.3086,-151.88007 -99.1172,-203.9169 -42.974,-40.80073 -108.2468,-90.21015 -163.7003,-69.3208 -68.5527,25.82377 -92.7168,124.71412 -95.533,197.91521 -2.1751,56.53472 32.4432,111.26111 61.8199,158.07099 29.2721,45.11132 90.9368,62.72632 137.9021,49.37832 32.0795,-9.1173 54.4445,-45.83277 62.3752,-78.22604 7.7138,-31.50716 -1.3026,-68.10352 -18.6583,-95.50757 -20.2733,-32.01066 -53.874,-63.27954 -91.5408,-67.39036 -38.5912,-4.21171 -75.0032,24.45775 -106.4727,47.18863 -22.1644,16.00969 -37.3219,39.98907 -55.1199,60.74487 z" /></g></svg>
