<?xml version="1.0" encoding="UTF-8" standalone="no"?>
<svg
   xmlns:dc="http://purl.org/dc/elements/1.1/"
   xmlns:cc="http://creativecommons.org/ns#"
   xmlns:rdf="http://www.w3.org/1999/02/22-rdf-syntax-ns#"
   xmlns:svg="http://www.w3.org/2000/svg"
   xmlns="http://www.w3.org/2000/svg"
   xmlns:sodipodi="http://sodipodi.sourceforge.net/DTD/sodipodi-0.dtd"
   xmlns:inkscape="http://www.inkscape.org/namespaces/inkscape"
   xml:space="preserve"
   width="1000"
   height="1000"
   version="1.1"
   style="clip-rule:evenodd;fill-rule:evenodd;image-rendering:optimizeQuality;shape-rendering:geometricPrecision;text-rendering:geometricPrecision"
   viewBox="0 0 1000 1000"
   id="svg10"
   sodipodi:docname="ജൂ.svg"
   inkscape:version="1.0.2 (e86c870879, 2021-01-15)"><metadata
   id="metadata14"><rdf:RDF><cc:Work
       rdf:about=""><dc:format>image/svg+xml</dc:format><dc:type
         rdf:resource="http://purl.org/dc/dcmitype/StillImage" /><dc:title /></cc:Work></rdf:RDF></metadata><sodipodi:namedview
   pagecolor="#ffffff"
   bordercolor="#666666"
   borderopacity="1"
   objecttolerance="10"
   gridtolerance="10"
   guidetolerance="10"
   inkscape:pageopacity="0"
   inkscape:pageshadow="2"
   inkscape:window-width="1920"
   inkscape:window-height="1007"
   id="namedview12"
   showgrid="false"
   inkscape:zoom="0.6002692"
   inkscape:cx="121.2911"
   inkscape:cy="939.56829"
   inkscape:window-x="1920"
   inkscape:window-y="0"
   inkscape:window-maximized="1"
   inkscape:current-layer="svg10"
   showguides="true"
   inkscape:guide-bbox="true"
   inkscape:document-rotation="0"><sodipodi:guide
     position="0,1000"
     orientation="0,1"
     id="guide16"
     inkscape:label=""
     inkscape:locked="true"
     inkscape:color="rgb(0,0,255)" /><sodipodi:guide
     position="1763.3122,2036.1693"
     orientation="1000,0"
     id="guide18" /><sodipodi:guide
     position="0,200"
     orientation="0,1"
     id="guide20"
     inkscape:label="base"
     inkscape:locked="true"
     inkscape:color="rgb(0,0,255)" /><inkscape:grid
     type="xygrid"
     id="grid24"
     originx="-473.37552"
     originy="-489.69235" /><sodipodi:guide
     position="0,0"
     orientation="0,1"
     id="guide34"
     inkscape:label="bottom"
     inkscape:locked="true"
     inkscape:color="rgb(0,0,255)" /><sodipodi:guide
     position="225.05109,1693.3186"
     orientation="0,1"
     id="guide44"
     inkscape:label=""
     inkscape:locked="false"
     inkscape:color="rgb(0,0,255)" /><sodipodi:guide
     position="0,900"
     orientation="0,1"
     id="guide46"
     inkscape:label=""
     inkscape:locked="true"
     inkscape:color="rgb(0,0,255)" /><sodipodi:guide
     position="881.23811,514.14041"
     orientation="-1,0"
     id="guide841"
     inkscape:label="width"
     inkscape:locked="false"
     inkscape:color="rgb(0,0,255)" /></sodipodi:namedview>
 <defs
   id="defs4"><inkscape:path-effect
   effect="fillet_chamfer"
   id="path-effect862"
   is_visible="true"
   lpeversion="1"
   satellites_param="F,0,0,1,0,0,0,1 @ F,0,0,1,0,0,0,1 @ F,0,0,1,0,0,0,1 @ F,0,0,1,0,0,0,1 @ F,0,0,1,0,0,0,1 @ F,0,0,1,0,0,0,1 @ F,0,0,1,0,0,0,1 @ F,0,0,1,0,0,0,1 @ F,0,0,1,0,0,0,1 @ F,0,0,1,0,0,0,1 @ F,0,0,1,0,0,0,1 | F,0,0,1,0,0,0,1 @ F,0,0,1,0,0,0,1 @ F,0,0,1,0,0,0,1 @ F,0,0,1,0,0,0,1 @ F,0,1,1,0,13.677668,0,1 @ F,0,1,1,0,13.677668,0,1 @ F,0,0,1,0,0,0,1 @ F,0,0,1,0,0,0,1 @ F,0,0,1,0,0,0,1 @ F,0,0,1,0,0,0,1 @ F,0,0,1,0,0,0,1 @ F,0,0,1,0,0,0,1 @ F,0,0,1,0,0,0,1 @ F,0,0,1,0,0,0,1 @ F,0,1,1,0,13.677668,0,1 @ F,0,1,1,0,13.677668,0,1 @ F,0,0,1,0,0,0,1 @ F,0,0,1,0,0,0,1 @ F,0,1,1,0,13.677668,0,1 @ F,0,1,1,0,13.677668,0,1 @ F,0,0,1,0,0,0,1 @ F,0,0,1,0,0,0,1 @ F,0,0,1,0,0,0,1 @ F,0,0,1,0,0,0,1 @ F,0,0,1,0,0,0,1 @ F,0,0,1,0,0,0,1 @ F,0,0,1,0,0,0,1 @ F,0,0,1,0,0,0,1 @ F,0,0,1,0,0,0,1 @ F,0,0,1,0,0,0,1 @ F,0,0,1,0,0,0,1 @ F,0,0,1,0,0,0,1 @ F,0,0,1,0,0,0,1 @ F,0,0,1,0,0,0,1 @ F,0,0,1,0,0,0,1 @ F,0,0,1,0,0,0,1 @ F,0,0,1,0,0,0,1 @ F,0,0,1,0,0,0,1 @ F,0,0,1,0,0,0,1 @ F,0,0,1,0,0,0,1 @ F,0,0,1,0,0,0,1 @ F,0,0,1,0,0,0,1 @ F,0,0,1,0,0,0,1 @ F,0,0,1,0,0,0,1 @ F,0,0,1,0,0,0,1 @ F,0,0,1,0,0,0,1 @ F,0,0,1,0,0,0,1 @ F,0,0,1,0,0,0,1 @ F,0,0,1,0,0,0,1 @ F,0,0,1,0,0,0,1 @ F,0,0,1,0,0,0,1 @ F,0,0,1,0,0,0,1 @ F,0,0,1,0,0,0,1 @ F,0,0,1,0,0,0,1 @ F,0,0,1,0,0,0,1 @ F,0,0,1,0,0,0,1 @ F,0,0,1,0,0,0,1 @ F,0,0,1,0,0,0,1 @ F,0,0,1,0,0,0,1 @ F,0,0,1,0,0,0,1 @ F,0,0,1,0,0,0,1 @ F,0,0,1,0,0,0,1 @ F,0,0,1,0,0,0,1 @ F,0,0,1,0,0,0,1 @ F,0,0,1,0,0,0,1 @ F,0,0,1,0,0,0,1 @ F,0,0,1,0,0,0,1 @ F,0,0,1,0,0,0,1 @ F,0,0,1,0,0,0,1 @ F,0,0,1,0,0,0,1 @ F,0,0,1,0,0,0,1 @ F,0,0,1,0,0,0,1 @ F,0,0,1,0,0,0,1 @ F,0,0,1,0,0,0,1 @ F,0,0,1,0,0,0,1 @ F,0,0,1,0,0,0,1 @ F,0,0,1,0,0,0,1 @ F,0,0,1,0,0,0,1 @ F,0,0,1,0,0,0,1 @ F,0,0,1,0,0,0,1 @ F,0,0,1,0,0,0,1 @ F,0,0,1,0,0,0,1 @ F,0,0,1,0,0,0,1 @ F,0,0,1,0,0,0,1 @ F,0,0,1,0,0,0,1 @ F,0,0,1,0,0,0,1 @ F,0,0,1,0,0,0,1 @ F,0,0,1,0,0,0,1 @ F,0,0,1,0,0,0,1 @ F,0,0,1,0,0,0,1 @ F,0,1,1,0,13.677668,0,1 @ F,0,1,1,0,13.677668,0,1 @ F,0,0,1,0,0,0,1 @ F,0,0,1,0,0,0,1 @ F,0,0,1,0,0,0,1 @ F,0,0,1,0,0,0,1 @ F,0,0,1,0,0,0,1 @ F,0,0,1,0,0,0,1 @ F,0,0,1,0,0,0,1 @ F,0,0,1,0,0,0,1 @ F,0,0,1,0,0,0,1 @ F,0,0,1,0,0,0,1 @ F,0,0,1,0,0,0,1 @ F,0,0,1,0,0,0,1 @ F,0,0,1,0,0,0,1 @ F,0,0,1,0,0,0,1 @ F,0,0,1,0,0,0,1 @ F,0,0,1,0,0,0,1 @ F,0,0,1,0,0,0,1 @ F,0,0,1,0,0,0,1 @ F,0,0,1,0,0,0,1 @ F,0,0,1,0,0,0,1 @ F,0,0,1,0,0,0,1 @ F,0,0,1,0,0,0,1 @ F,0,0,1,0,0,0,1 @ F,0,0,1,0,0,0,1 @ F,0,0,1,0,0,0,1 @ F,0,0,1,0,0,0,1 @ F,0,0,1,0,0,0,1 @ F,0,0,1,0,0,0,1 @ F,0,0,1,0,0,0,1 @ F,0,0,1,0,0,0,1"
   unit="px"
   method="auto"
   mode="F"
   radius="0"
   chamfer_steps="1"
   flexible="false"
   use_knot_distance="true"
   apply_no_radius="true"
   apply_with_radius="true"
   only_selected="true"
   hide_knots="false" /><inkscape:path-effect
   effect="fillet_chamfer"
   id="path-effect849"
   is_visible="true"
   lpeversion="1"
   satellites_param="F,0,0,1,0,0,0,1 @ F,0,0,1,0,0,0,1 @ F,0,0,1,0,0,0,1 @ F,0,0,1,0,0,0,1 @ F,0,0,1,0,0,0,1 @ F,0,0,1,0,0,0,1 @ F,0,0,1,0,0,0,1 @ F,0,0,1,0,0,0,1 @ F,0,0,1,0,0,0,1 @ F,0,0,1,0,0,0,1 @ F,0,0,1,0,0,0,1 | F,0,0,1,0,0,0,1 @ F,0,0,1,0,0,0,1 @ F,0,0,1,0,0,0,1 @ F,0,0,1,0,0,0,1 @ F,0,0,1,0,0,0,1 @ F,0,0,1,0,0,0,1 @ F,0,1,1,0,19.126272,0,1 @ F,0,1,1,0,19.126272,0,1 @ F,0,0,1,0,0,0,1 @ F,0,0,1,0,0,0,1 @ F,0,1,1,0,19.126272,0,1 @ F,0,1,1,0,19.126272,0,1 @ F,0,0,1,0,0,0,1 @ F,0,0,1,0,0,0,1 @ F,0,0,1,0,0,0,1 @ F,0,0,1,0,0,0,1 @ F,0,0,1,0,0,0,1 @ F,0,0,1,0,0,0,1 @ F,0,0,1,0,0,0,1 @ F,0,0,1,0,0,0,1 @ F,0,0,1,0,0,0,1 @ F,0,0,1,0,0,0,1 @ F,0,0,1,0,0,0,1 @ F,0,0,1,0,0,0,1 @ F,0,0,1,0,0,0,1 @ F,0,0,1,0,0,0,1 @ F,0,0,1,0,0,0,1 @ F,0,0,1,0,0,0,1 @ F,0,0,1,0,0,0,1 @ F,0,0,1,0,0,0,1 @ F,0,0,1,0,0,0,1 @ F,0,0,1,0,0,0,1 @ F,0,0,1,0,0,0,1 @ F,0,0,1,0,0,0,1 @ F,0,0,1,0,0,0,1 @ F,0,0,1,0,0,0,1 @ F,0,0,1,0,0,0,1 @ F,0,0,1,0,0,0,1 @ F,0,0,1,0,0,0,1 @ F,0,0,1,0,0,0,1 @ F,0,0,1,0,0,0,1 @ F,0,0,1,0,0,0,1 @ F,0,0,1,0,0,0,1 @ F,0,0,1,0,0,0,1 @ F,0,0,1,0,0,0,1 @ F,0,0,1,0,0,0,1 @ F,0,0,1,0,0,0,1 @ F,0,0,1,0,0,0,1 @ F,0,0,1,0,0,0,1 @ F,0,0,1,0,0,0,1 @ F,0,0,1,0,0,0,1 @ F,0,0,1,0,0,0,1 @ F,0,0,1,0,0,0,1 @ F,0,0,1,0,0,0,1 @ F,0,0,1,0,0,0,1 @ F,0,0,1,0,0,0,1 @ F,0,0,1,0,0,0,1 @ F,0,0,1,0,0,0,1 @ F,0,0,1,0,0,0,1 @ F,0,0,1,0,0,0,1 @ F,0,0,1,0,0,0,1 @ F,0,0,1,0,0,0,1 @ F,0,0,1,0,0,0,1 @ F,0,0,1,0,0,0,1 @ F,0,0,1,0,0,0,1 @ F,0,0,1,0,0,0,1 @ F,0,0,1,0,0,0,1 @ F,0,0,1,0,0,0,1 @ F,0,0,1,0,0,0,1 @ F,0,0,1,0,0,0,1 @ F,0,0,1,0,0,0,1 @ F,0,0,1,0,0,0,1 @ F,0,0,1,0,0,0,1 @ F,0,0,1,0,0,0,1 @ F,0,1,1,0,19.126272,0,1 @ F,0,1,1,0,19.126272,0,1 @ F,0,0,1,0,0,0,1 @ F,0,0,1,0,0,0,1 @ F,0,0,1,0,0,0,1 @ F,0,0,1,0,0,0,1 @ F,0,0,1,0,0,0,1 @ F,0,0,1,0,0,0,1 @ F,0,0,1,0,0,0,1 @ F,0,0,1,0,0,0,1 @ F,0,0,1,0,0,0,1 @ F,0,0,1,0,0,0,1 @ F,0,0,1,0,0,0,1 @ F,0,0,1,0,0,0,1 @ F,0,0,1,0,0,0,1 @ F,0,0,1,0,0,0,1 @ F,0,0,1,0,0,0,1 @ F,0,0,1,0,0,0,1 @ F,0,0,1,0,0,0,1 @ F,0,0,1,0,0,0,1 @ F,0,0,1,0,0,0,1 @ F,0,0,1,0,0,0,1 @ F,0,0,1,0,0,0,1 @ F,0,0,1,0,0,0,1 @ F,0,0,1,0,0,0,1 @ F,0,0,1,0,0,0,1 @ F,0,0,1,0,0,0,1 @ F,0,0,1,0,0,0,1 @ F,0,0,1,0,0,0,1 @ F,0,0,1,0,0,0,1 @ F,0,0,1,0,0,0,1 @ F,0,0,1,0,0,0,1"
   unit="px"
   method="auto"
   mode="F"
   radius="0"
   chamfer_steps="1"
   flexible="false"
   use_knot_distance="true"
   apply_no_radius="true"
   apply_with_radius="true"
   only_selected="true"
   hide_knots="false" /><inkscape:path-effect
   effect="fillet_chamfer"
   id="path-effect848"
   is_visible="true"
   lpeversion="1"
   satellites_param="F,0,0,1,0,0,0,1 @ F,0,0,1,0,0,0,1 @ F,0,0,1,0,0,0,1 @ F,0,0,1,0,0,0,1 @ F,0,0,1,0,0,0,1 @ F,0,0,1,0,0,0,1 @ F,0,0,1,0,0,0,1 @ F,0,0,1,0,0,0,1 @ F,0,0,1,0,0,0,1 @ F,0,0,1,0,0,0,1 @ F,0,0,1,0,0,0,1 | F,0,0,1,0,0,0,1 @ F,0,0,1,0,0,0,1 @ F,0,0,1,0,0,0,1 @ F,0,0,1,0,0,0,1 @ F,0,0,1,0,0,0,1 @ F,0,0,1,0,0,0,1 @ F,0,0,1,0,0,0,1 @ F,0,0,1,0,0,0,1 @ F,0,0,1,0,0,0,1 @ F,0,0,1,0,0,0,1 | F,0,0,1,0,0,0,1 @ F,0,0,1,0,0,0,1 @ F,0,0,1,0,0,0,1 @ F,0,0,1,0,0,0,1 @ F,0,0,1,0,0,0,1 @ F,0,0,1,0,0,0,1 @ F,0,0,1,0,0,0,1 @ F,0,0,1,0,0,0,1 @ F,0,0,1,0,0,0,1 @ F,0,0,1,0,0,0,1 | F,0,0,1,0,0,0,1 @ F,0,0,1,0,0,0,1 @ F,0,0,1,0,0,0,1 @ F,0,0,1,0,0,0,1 @ F,0,0,1,0,0,0,1 @ F,0,0,1,0,0,0,1 @ F,0,0,1,0,0,0,1 @ F,0,0,1,0,0,0,1 @ F,0,0,1,0,0,0,1 @ F,0,0,1,0,0,0,1 @ F,0,0,1,0,0,0,1 @ F,0,0,1,0,0,0,1 @ F,0,0,1,0,0,0,1 @ F,0,0,1,0,0,0,1 @ F,0,0,1,0,0,0,1 @ F,0,0,1,0,0,0,1 @ F,0,0,1,0,0,0,1 @ F,0,0,1,0,0,0,1 @ F,0,0,1,0,0,0,1 @ F,0,0,1,0,0,0,1 @ F,0,0,1,0,0,0,1 @ F,0,0,1,0,0,0,1 @ F,0,0,1,0,0,0,1 @ F,0,0,1,0,0,0,1 @ F,0,0,1,0,0,0,1 @ F,0,0,1,0,0,0,1 @ F,0,0,1,0,0,0,1 @ F,0,0,1,0,0,0,1 @ F,0,0,1,0,0,0,1 @ F,0,0,1,0,0,0,1 @ F,0,1,1,0,34.429278,0,1 @ F,0,1,1,0,34.429278,0,1 @ F,0,0,1,0,0,0,1 @ F,0,0,1,0,0,0,1 @ F,0,0,1,0,0,0,1 @ F,0,0,1,0,0,0,1 @ F,0,0,1,0,0,0,1 @ F,0,0,1,0,0,0,1 @ F,0,0,1,0,0,0,1 @ F,0,0,1,0,0,0,1 @ F,0,0,1,0,0,0,1 @ F,0,0,1,0,0,0,1 @ F,0,0,1,0,0,0,1 @ F,0,0,1,0,0,0,1 @ F,0,0,1,0,0,0,1 @ F,0,0,1,0,0,0,1 @ F,0,0,1,0,0,0,1 @ F,0,0,1,0,0,0,1 @ F,0,0,1,0,0,0,1 @ F,0,0,1,0,0,0,1 @ F,0,0,1,0,0,0,1 @ F,0,0,1,0,0,0,1 @ F,0,0,1,0,0,0,1 @ F,0,0,1,0,0,0,1 @ F,0,0,1,0,0,0,1 @ F,0,0,1,0,0,0,1 @ F,0,0,1,0,0,0,1 @ F,0,0,1,0,0,0,1 @ F,0,0,1,0,0,0,1 @ F,0,0,1,0,0,0,1 @ F,0,0,1,0,0,0,1 @ F,0,0,1,0,0,0,1 @ F,0,0,1,0,0,0,1 @ F,0,1,1,0,34.429278,0,1 @ F,0,1,1,0,34.429278,0,1 @ F,0,0,1,0,0,0,1 @ F,0,0,1,0,0,0,1 @ F,0,0,1,0,0,0,1 @ F,0,0,1,0,0,0,1 @ F,0,1,1,0,34.429278,0,1 @ F,0,1,1,0,34.429278,0,1 @ F,0,0,1,0,0,0,1 @ F,0,0,1,0,0,0,1 @ F,0,0,1,0,0,0,1 @ F,0,0,1,0,0,0,1 @ F,0,0,1,0,0,0,1 @ F,0,0,1,0,0,0,1 @ F,0,0,1,0,0,0,1"
   unit="px"
   method="auto"
   mode="F"
   radius="0"
   chamfer_steps="1"
   flexible="false"
   use_knot_distance="true"
   apply_no_radius="true"
   apply_with_radius="true"
   only_selected="true"
   hide_knots="false" /><inkscape:path-effect
   effect="spiro"
   id="path-effect847"
   is_visible="true"
   lpeversion="1" /><inkscape:path-effect
   effect="spiro"
   id="path-effect851"
   is_visible="true"
   lpeversion="1" />
  <style
   type="text/css"
   id="style2">
   <![CDATA[
    .fil0 {fill:#EF7F1A;fill-rule:nonzero}
   ]]>
  </style>
 <inkscape:path-effect
   effect="spiro"
   id="path-effect1214"
   is_visible="true"
   lpeversion="1" /><inkscape:path-effect
   effect="spiro"
   id="path-effect1195"
   is_visible="true"
   lpeversion="1" /><inkscape:path-effect
   effect="spiro"
   id="path-effect992"
   is_visible="true"
   lpeversion="1" /><inkscape:path-effect
   effect="spiro"
   id="path-effect1060"
   is_visible="true"
   lpeversion="1" /><inkscape:path-effect
   effect="spiro"
   id="path-effect1047"
   is_visible="true"
   lpeversion="1" /><inkscape:path-effect
   effect="spiro"
   id="path-effect1085"
   is_visible="true"
   lpeversion="1" /><inkscape:path-effect
   effect="spiro"
   id="path-effect1049"
   is_visible="true"
   lpeversion="1" /></defs>
 
<path
   id="path1102-7-3"
   style="display:inline;opacity:0.950135;fill:#63452c;fill-opacity:1;fill-rule:nonzero;stroke:none;stroke-width:2.40988;stroke-linecap:round;stroke-linejoin:bevel;stroke-miterlimit:4;stroke-dasharray:none;paint-order:stroke fill markers"
   d="m 256.17427,382.77613 c 0.54658,7.57385 0.0128,15.29573 -2.33045,22.51869 -2.34322,7.22297 -6.57343,13.93626 -12.57509,18.58835 -5.6942,4.41377 -12.84652,6.83796 -20.0465,7.094 -7.19997,0.25604 -14.42365,-1.61603 -20.74368,-5.07471 -12.64006,-6.91736 -21.25812,-19.91541 -24.96521,-33.83943 -3.21205,-12.0646 -2.95524,-25.29199 2.22845,-36.64985 2.59185,-5.67893 6.38922,-10.82893 11.18512,-14.82484 4.7959,-3.99591 10.59623,-6.81711 16.74061,-7.91918 6.58728,-1.18151 13.48218,-0.36853 19.71938,2.05749 6.2372,2.42602 11.81751,6.43462 16.31854,11.38729 9.00208,9.90532 13.5054,23.31211 14.46883,36.66219 z m 475.33555,207.13245 c 7.94666,7.8641 14.68035,17.17967 18.26623,27.76905 3.58589,10.58937 3.81961,22.53881 -0.69632,32.76622 -3.41465,7.7333 -9.48654,14.26355 -16.95134,18.23099 -3.43784,1.82716 -7.16092,3.10534 -10.99006,3.80649 -7.39073,1.35331 -12.59413,6.08336 -11.34775,13.53379 l 8.47878,50.68299 c 1.24638,7.45043 7.40722,9.49378 14.80769,8.38672 1.25088,-0.18712 2.51412,-0.29101 3.77916,-0.30819 5.82467,-0.0791 11.66085,1.68067 16.47096,4.96637 5.00663,3.41994 8.85674,8.44701 11.06923,14.09212 2.21248,5.6451 2.80848,11.88246 1.93457,17.88234 -1.74784,11.99977 -9.31026,22.68504 -19.1139,29.82211 -9.80365,7.13707 -21.68696,10.98768 -33.67416,12.81967 -11.9872,1.832 -24.17426,1.74724 -36.30038,1.66609 -61.25014,-0.40988 -122.85743,-0.59327 -183.26149,9.56036 -37.7238,6.34119 -74.76951,16.70546 -110.31097,30.85047 -7.01836,2.7932 -10.03021,10.75686 -6.80757,17.58892 l 48.86951,103.60437 c 3.22264,6.83206 11.55682,10.18149 18.71583,7.77222 40.36699,-13.58499 83.04355,-20.29623 125.63281,-19.71303 77.34083,1.05907 152.62363,25.79015 229.85032,30.12195 28.73667,1.6119 57.63192,0.3764 86.12717,-3.674 7.47848,-1.063 13.79516,-8.25362 14.14793,-15.79935 l 4.9736,-106.38663 c 0.35277,-7.54573 -4.41847,-10.20252 -10.86465,-6.26566 -23.92521,14.61182 -49.92987,25.81813 -76.98932,33.14944 -85.47619,23.15838 -176.23215,7.05023 -262.71498,-12.00783 -30.49221,-6.71951 -60.90621,-13.79397 -91.23375,-21.22144 l 19.61225,66.95263 c 31.66239,-13.26528 64.3848,-23.99947 97.75241,-32.06648 46.09877,-11.14492 93.34297,-17.19111 139.23951,-29.14157 27.74943,-7.22535 55.55125,-16.925 77.95346,-34.82409 11.2011,-8.94955 20.90642,-19.90934 27.63175,-32.57145 6.72533,-12.66212 10.39516,-27.06346 9.64046,-41.38092 -0.83717,-15.88183 -7.10689,-31.25049 -16.64999,-43.97302 -9.54311,-12.72253 -22.25349,-22.87925 -36.19884,-30.52522 -14.72679,-8.07442 -30.92803,-13.44963 -47.5607,-15.77959 l 12.55888,47.58637 c 21.94876,-13.75885 40.16412,-33.41161 52.2195,-56.34023 10.79269,-20.52704 16.66461,-43.82611 15.43464,-66.98488 -1.40872,-26.5245 -12.15964,-52.21498 -28.80835,-72.91169 -16.64871,-20.69671 -38.99991,-36.49408 -63.45824,-46.85379 -30.72067,-13.01223 -64.67717,-17.57986 -97.97609,-15.51591 -33.29892,2.06395 -65.98869,10.6139 -97.00612,22.90197 -40.87924,16.19498 -79.92172,39.61399 -107.55911,73.81288 -13.81869,17.09945 -24.60898,36.76838 -30.60352,57.92052 -5.99454,21.15213 -7.10698,43.79904 -2.20039,65.22969 6.06468,26.48886 21.28101,50.57216 41.67962,68.5259 20.39861,17.95374 45.80442,29.87623 72.38381,35.53095 34.14096,7.26343 70.69376,4.15024 102.39689,-10.45366 23.95898,-11.03659 44.96169,-28.55933 59.71477,-50.42679 14.75309,-21.86745 23.15753,-48.04379 23.41128,-74.42133 0.35924,-37.34376 -15.84506,-74.16355 -42.16633,-100.65649 -26.32128,-26.49295 -62.21379,-42.76764 -99.28694,-47.26958 -35.75614,-4.34201 -72.31301,1.91748 -105.99239,14.68671 -33.67939,12.76924 -64.65717,31.88445 -93.47216,53.49581 -36.78044,27.58547 -70.46563,59.44702 -109.53033,83.68972 -16.02058,9.94202 -33.63978,18.75364 -52.49059,19.14078 -9.42541,0.19358 -18.99446,-1.81848 -27.16075,-6.52884 -8.16629,-4.71035 -14.8388,-12.22215 -17.8016,-21.17188 -1.98,-5.98101 -2.28279,-12.46575 -1.19472,-18.6713 1.08806,-6.20556 3.54107,-12.1353 6.87358,-17.482 6.66502,-10.6934 16.66845,-18.91007 27.24763,-25.75495 16.23497,-10.50426 34.13639,-18.19452 52.35623,-24.67147 55.28849,-19.65444 113.78003,-28.42571 170.38074,-43.90068 78.94866,-21.58503 155.65367,-57.30948 214.26699,-114.43463 38.78313,-37.79844 69.45503,-85.91203 77.81424,-139.41882 5.81137,-37.19821 0.24676,-76.74583 -19.17972,-108.99627 -9.71324,-16.12522 -22.78715,-30.28035 -38.39309,-40.80766 -15.60593,-10.52732 -33.75,-17.3758 -52.47968,-19.264913 -31.71291,-3.19862 -63.78035,7.973723 -89.75239,26.450543 -25.97205,18.47681 -46.36223,43.83329 -63.3712,70.78945 -34.2348,54.25601 -55.96008,116.35279 -63.01621,180.11758 l 49.85336,-10.46319 c -5.19183,-60.91178 -27.78466,-120.24297 -64.42249,-169.18037 -19.8583,-26.52487 -43.85715,-50.10514 -71.6003,-68.22249 -18.08651,-11.81119 -37.81687,-21.30665 -58.73798,-26.6856 -21.0466,-5.411216 -43.58533,-6.534679 -64.38247,-0.23233 -17.04878,5.16645 -32.45753,15.21397 -44.8049,28.05512 -12.347381,12.84116 -21.691393,28.41516 -28.171397,45.00921 -12.960009,33.1881 -14.456177,69.76449 -12.214109,105.32268 3.531391,56.00627 16.895898,113.4031 51.477386,157.59919 16.13504,20.62102 36.90588,38.04174 61.22482,47.74511 24.31894,9.70336 52.31725,11.23306 76.67724,1.63321 16.16544,-6.37052 30.34971,-17.4444 41.00126,-31.17209 10.65156,-13.72769 17.80918,-30.04815 21.37396,-47.05395 6.83745,-32.61811 0.0737,-67.9431 -18.65838,-95.50757 -10.11478,-14.884 -23.62991,-27.54412 -39.49844,-36.03129 -15.86852,-8.48718 -34.09782,-12.71412 -52.04235,-11.35907 -21.08357,1.59209 -41.48562,11.01722 -56.36509,26.03897 2.34908,-18.05372 11.77581,-35.09129 25.82337,-46.67234 14.26051,-11.75661 33.07082,-17.75095 51.52467,-16.7335 15.87491,0.87526 31.28747,6.7758 44.35243,15.8359 24.50989,16.99676 40.16057,44.07642 51.30548,71.74256 7.83777,19.45648 13.8557,39.66922 17.51076,60.32414 2.1239,12.00226 3.44843,24.1458 3.9646,36.32357 0.31986,7.54641 6.17018,12.14904 13.48612,10.2677 l 65.99911,-16.97205 c 7.31594,-1.88134 10.15413,-8.74413 7.56016,-15.83043 -5.24047,-14.31607 -6.7746,-29.99632 -4.25588,-45.03811 3.21612,-19.2067 12.681,-36.78261 23.18171,-53.18309 13.40321,-20.93375 29.46158,-41.24999 51.52569,-52.69739 11.03206,-5.72369 23.439,-9.0459 35.85909,-8.58962 12.4201,0.45627 24.82199,4.83621 34.15477,13.0439 8.66821,7.62323 14.40704,18.25378 17.16223,29.46362 2.75518,11.20984 2.64975,22.98778 0.86377,34.39224 -5.72342,36.5472 -28.43015,68.84066 -56.90828,92.45107 -28.47813,23.61042 -62.51802,39.45984 -96.82906,53.28765 -37.66525,15.1796 -76.26004,28.26903 -115.90014,37.08684 -69.26929,15.40872 -142.37554,18.01644 -206.89082,47.57048 -35.702669,16.35517 -68.340771,41.44568 -88.155051,75.35094 -9.90714,16.95262 -16.471027,35.94719 -18.3386347,55.49342 -1.8676081,19.54623 1.0366028,39.6299 9.1023297,57.53205 12.705386,28.20003 37.967183,49.90055 66.914621,60.79617 28.947435,10.89562 61.246835,11.439 91.327085,4.23851 46.2266,-11.06554 86.51098,-39.40098 121.70041,-71.35483 34.314,-31.15891 64.88887,-66.19019 98.25825,-98.3587 21.31402,-20.54699 44.24829,-40.22889 71.45204,-51.9089 13.60187,-5.84001 28.18532,-9.59057 42.97813,-10.12857 14.79281,-0.53799 29.80071,2.20493 43.07464,8.75623 11.91596,5.88108 22.28974,14.76759 30.20769,25.43921 7.91794,10.67161 13.39373,23.10032 16.26186,36.07533 4.61504,20.87778 2.29337,43.48435 -7.85476,62.30444 -10.14814,18.82008 -28.34925,33.45969 -49.26762,37.88709 -18.21275,3.85475 -37.9623,-0.21146 -53.1668,-10.95327 -15.2045,-10.74181 -25.63653,-28.00101 -28.07243,-46.45717 -2.69852,-20.44596 4.25019,-41.44659 16.38916,-58.11886 12.13898,-16.67227 29.12923,-29.32767 47.34967,-38.98866 37.86021,-20.07456 82.01393,-27.90564 124.53142,-22.55336 30.15959,3.79662 60.37544,14.67047 81.98175,36.0523 z"
   sodipodi:nodetypes="aaaaaaaccaaaccasccaaccaaaaccaaaaaaasaaaaaaaaaaaccaaaaacaacccsssaaccaaaaaaaaaaaaaaaaaa"
   inkscape:original-d="m 256.17427,382.77613 c 3.19154,14.22162 -1.40328,35.61802 -14.90554,41.10704 -22.55727,9.17012 -57.97665,-8.74608 -65.75539,-31.82014 -7.093,-21.03994 8.23368,-55.86103 30.15418,-59.39387 23.41295,-3.77337 45.31391,26.96742 50.50675,50.10697 z m 475.33555,207.13245 c 13.84631,15.80343 25.75008,41.18188 17.56991,60.53527 -6.10583,14.44571 -41.54593,22.08107 -41.54593,22.08107 l 12.99234,77.66339 c -5.29686,22.95484 28.5415,-10.51624 32.80103,-0.4453 13.98976,33.07642 -43.28397,61.65773 -76.08464,76.28233 -55.86861,24.90974 -122.95999,-0.71224 -183.26149,9.56036 -42.10506,7.17276 -109.48353,30.49646 -122.95364,36.06885 L 431.56711,1000 c 33.10431,-25.26017 91.64764,-23.2933 138.51354,-24.31135 77.25366,-1.67816 141.0901,30.63975 229.85032,30.12195 37.86137,-0.2208 96.69874,15.611 99.63636,-5.8106 l 6.25108,-133.71213 c 2.7777,-20.25541 -56.64233,34.35549 -88.49271,40.54653 -86.05249,16.72678 -175.87458,-0.0261 -262.71498,-12.00783 -30.9301,-4.26755 -72.37329,-22.95389 -91.23375,-21.22144 l 19.61225,66.95263 c -4.70226,-1.62522 64.62701,-23.19604 97.75241,-32.06648 45.80493,-12.26581 97.21139,-7.183 139.23951,-29.14157 46.81503,-24.4596 110.02671,-56.21326 115.22567,-108.77646 2.99682,-30.29881 -28.37454,-56.38726 -52.84883,-74.49824 -13.42685,-9.93587 -35.81601,-8.23438 -47.5607,-15.77959 l 12.55888,47.58637 c 0,0 40.23723,-33.71054 52.2195,-56.34023 10.72216,-20.24988 20.32268,-44.59896 15.43464,-66.98488 -10.75063,-49.23494 -46.63423,-98.37991 -92.26659,-119.76548 -58.89395,-27.6006 -137.74076,-23.49609 -194.98221,7.38606 -70.95259,38.2794 -148.89619,116.79598 -140.36302,196.96309 5.44734,51.17642 65.1929,87.92086 114.06343,104.05685 32.57975,10.75713 73.01436,7.26142 102.39689,-10.45366 42.81661,-25.81475 73.19745,-75.84719 83.12605,-124.84812 7.61855,-37.60004 -75.17123,-131.76242 -141.45327,-147.92607 -68.26485,-16.64719 -137.49735,35.05723 -199.46455,68.18252 -40.52155,21.66127 -65.40273,70.88497 -109.53033,83.68972 -31.31753,9.08758 -81.89971,20.10134 -97.45294,-8.55994 -11.14801,-20.5434 16.00363,-45.78602 32.92649,-61.90825 13.96838,-13.30754 34.20866,-18.12372 52.35623,-24.67147 55.16749,-19.90484 115.7299,-22.61835 170.38074,-43.90068 C 470.19823,493.41884 555.25281,459.67756 609.01421,408.36662 647.51463,371.62107 688.6367,322.13848 686.82845,268.9478 684.54377,201.7426 642.48626,114.15884 576.77596,99.878957 517.69159,87.03899 461.23626,149.75568 423.65237,197.11895 c -39.53832,49.82623 -59.52551,143.3668 -63.01621,180.11758 l 49.85336,-10.46319 C 397.91799,337.1774 379.47401,247.84569 346.06703,197.59297 327.81658,170.13958 301.789,147.81665 274.46673,129.37048 256.64326,117.33726 236.73874,107.27345 215.72875,102.68488 194.762,98.105758 169.51972,91.037727 151.34628,102.45255 95.545374,137.5012 70.430268,215.08336 66.155874,280.83956 c -3.584826,55.14805 22.100631,110.78931 51.477386,157.59919 29.272,45.11132 90.93673,62.72632 137.90206,49.37832 32.07951,-9.1173 54.44451,-45.83277 62.37522,-78.22604 7.71376,-31.50716 -1.13852,-74.67359 -18.65838,-95.50757 -22.68073,-25.81089 -55.83501,-46.39759 -91.54079,-47.39036 -26.17816,-0.72805 -35.86958,10.10806 -56.36509,26.03897 2.19147,-17.98509 11.62329,-35.03195 25.82337,-46.67234 14.19999,-11.64046 33.01929,-17.75222 51.52467,-16.7335 15.92082,0.87646 31.31585,6.86243 44.35243,15.8359 24.78133,17.05798 38.47351,45.29069 51.30548,71.74256 9.13867,18.83847 13.69631,39.73644 17.51076,60.32414 3.04687,16.44484 4.40058,42.07088 4.20404,49.99773 l 92.49247,-23.78497 c -5.44012,-32.31027 -12.26679,-38.16292 -9.9424,-57.46208 2.31243,-19.19985 9.28219,-39.73746 23.18171,-53.18309 31.32868,-30.30564 82.46115,-67.55104 121.53955,-48.24311 19.82888,9.79709 23.89301,42.53109 18.026,63.85586 -18.73133,68.08261 -92.96277,109.78658 -153.73734,145.73872 -34.91179,20.65262 -76.78342,26.35155 -115.90014,37.08684 -68.23989,18.72793 -150.98071,4.19447 -206.89082,47.57048 -55.850518,43.32978 -121.752801,122.01927 -97.391356,188.37641 19.65391,53.53448 101.353876,69.03358 158.241706,65.03468 46.90965,-3.29749 84.49607,-42.59329 121.70041,-71.35483 36.6645,-28.34421 58.89702,-73.89703 98.25825,-98.3587 47.07431,-29.25508 104.53664,-69.59759 157.50481,-53.28124 24.55915,7.56521 44.81581,35.86987 46.46955,61.51454 2.47398,38.36408 -19.59446,91.85016 -57.12238,100.19153 -32.36921,7.19473 -75.06223,-24.83169 -81.23923,-57.41044 -7.21272,-38.04135 31.44883,-75.74111 63.73883,-97.10752 35.18104,-23.27941 82.63691,-27.50176 124.53142,-22.55336 29.64684,3.50176 62.30873,13.59858 81.98175,36.0523 z"
   inkscape:path-effect="#path-effect847;#path-effect862" /></svg>
