<svg xmlns="http://www.w3.org/2000/svg" xmlns:dc="http://purl.org/dc/elements/1.1/" xmlns:ns1="http://sodipodi.sourceforge.net/DTD/sodipodi-0.dtd" xmlns:ns2="http://www.inkscape.org/namespaces/inkscape" xmlns:ns4="http://creativecommons.org/ns#" xmlns:rdf="http://www.w3.org/1999/02/22-rdf-syntax-ns#" xml:space="preserve" width="1000" height="1000" version="1.1" style="clip-rule:evenodd;fill-rule:evenodd;image-rendering:optimizeQuality;shape-rendering:geometricPrecision;text-rendering:geometricPrecision" viewBox="0 0 1000 1000" id="svg10" ns1:docname="ജൂ.svg" ns2:version="1.1.1 (3bf5ae0d25, 2021-09-20)"><metadata id="metadata14"><rdf:RDF><ns4:Work rdf:about=""><dc:format>image/svg+xml</dc:format><dc:type rdf:resource="http://purl.org/dc/dcmitype/StillImage" /></ns4:Work></rdf:RDF></metadata><ns1:namedview pagecolor="#ffffff" bordercolor="#666666" borderopacity="1" objecttolerance="10" gridtolerance="10" guidetolerance="10" ns2:pageopacity="0" ns2:pageshadow="2" ns2:window-width="1920" ns2:window-height="1009" id="namedview12" showgrid="false" ns2:zoom="1.6978177" ns2:cx="852.56504" ns2:cy="852.27054" ns2:window-x="0" ns2:window-y="0" ns2:window-maximized="1" ns2:current-layer="g990" showguides="true" ns2:guide-bbox="true" ns2:document-rotation="0" ns2:pagecheckerboard="0"><ns1:guide position="0,1000" orientation="0,1" id="guide16" ns2:label="" ns2:locked="true" ns2:color="rgb(0,0,255)" /><ns1:guide position="1763.3122,2036.1693" orientation="1000,0" id="guide18" /><ns1:guide position="0,200" orientation="0,1" id="guide20" ns2:label="base" ns2:locked="true" ns2:color="rgb(0,0,255)" /><ns2:grid type="xygrid" id="grid24" originx="-473.37552" originy="-489.69235" /><ns1:guide position="0,0" orientation="0,1" id="guide34" ns2:label="bottom" ns2:locked="true" ns2:color="rgb(0,0,255)" /><ns1:guide position="225.05109,1693.3186" orientation="0,1" id="guide44" ns2:label="" ns2:locked="false" ns2:color="rgb(0,0,255)" /><ns1:guide position="0,900" orientation="0,1" id="guide46" ns2:label="" ns2:locked="true" ns2:color="rgb(0,0,255)" /><ns1:guide position="881.23811,514.14041" orientation="-1,0" id="guide841" ns2:label="width" ns2:locked="false" ns2:color="rgb(0,0,255)" /></ns1:namedview>
 <defs id="defs4"><ns2:path-effect effect="fillet_chamfer" id="path-effect1965" is_visible="true" lpeversion="1" satellites_param="F,0,0,1,0,0,0,1 @ F,0,0,1,0,0,0,1 @ F,0,0,1,0,0,0,1 @ F,0,0,1,0,0,0,1 @ F,0,0,1,0,0,0,1 @ F,0,0,1,0,0,0,1 @ F,0,0,1,0,0,0,1 @ F,0,0,1,0,0,0,1 @ F,0,0,1,0,0,0,1 @ F,0,0,1,0,0,0,1 @ F,0,0,1,0,0,0,1 @ F,0,0,1,0,0,0,1 @ F,0,0,1,0,0,0,1 @ F,0,0,1,0,0,0,1 @ F,0,0,1,0,0,0,1 @ F,0,0,1,0,0,0,1 @ F,0,0,1,0,0,0,1 @ F,0,0,1,0,0,0,1 @ F,0,0,1,0,0,0,1 @ F,0,0,1,0,0,0,1 @ F,0,0,1,0,0,0,1 @ F,0,0,1,0,0,0,1 @ F,0,0,1,0,0,0,1 @ F,0,0,1,0,0,0,1 @ F,0,0,1,0,0,0,1 @ F,0,0,1,0,0,0,1 @ F,0,0,1,0,0,0,1 @ F,0,0,1,0,0,0,1 @ F,0,0,1,0,0,0,1 @ F,0,0,1,0,0,0,1 @ F,0,0,1,0,0,0,1 @ F,0,0,1,0,0,0,1 @ F,0,1,1,0,10.837987,0,1 @ F,0,1,1,0,10.837987,0,1 @ F,0,0,1,0,0,0,1 @ F,0,0,1,0,0,0,1 @ F,0,0,1,0,0,0,1 @ F,0,0,1,0,0,0,1 @ F,0,0,1,0,0,0,1 @ F,0,0,1,0,0,0,1 @ F,0,0,1,0,0,0,1 @ F,0,0,1,0,0,0,1 @ F,0,0,1,0,0,0,1 @ F,0,0,1,0,0,0,1 @ F,0,0,1,0,0,0,1 @ F,0,0,1,0,0,0,1 @ F,0,0,1,0,0,0,1 @ F,0,0,1,0,0,0,1 @ F,0,0,1,0,0,0,1 @ F,0,0,1,0,0,0,1 @ F,0,0,1,0,0,0,1 @ F,0,0,1,0,0,0,1 @ F,0,0,1,0,0,0,1 @ F,0,0,1,0,0,0,1 @ F,0,0,1,0,0,0,1 @ F,0,0,1,0,0,0,1 @ F,0,0,1,0,0,0,1 @ F,0,0,1,0,0,0,1 @ F,0,0,1,0,0,0,1 @ F,0,0,1,0,0,0,1 @ F,0,0,1,0,0,0,1 @ F,0,0,1,0,0,0,1 @ F,0,0,1,0,0,0,1 @ F,0,0,1,0,0,0,1 @ F,0,0,1,0,0,0,1 @ F,0,0,1,0,0,0,1 @ F,0,0,1,0,0,0,1 @ F,0,0,1,0,0,0,1 @ F,0,1,1,0,10.837987,0,1 @ F,0,1,1,0,10.837987,0,1 @ F,0,0,1,0,0,0,1 @ F,0,0,1,0,0,0,1 @ F,0,0,1,0,0,0,1 @ F,0,0,1,0,0,0,1 @ F,0,0,1,0,0,0,1 @ F,0,0,1,0,0,0,1 @ F,0,0,1,0,0,0,1 @ F,0,0,1,0,0,0,1 @ F,0,1,1,0,10.837987,0,1 @ F,0,1,1,0,10.837987,0,1 @ F,0,0,1,0,0,0,1 @ F,0,0,1,0,0,0,1 @ F,0,1,1,0,10.837987,0,1 @ F,0,0,1,0,10.837987,0,1 @ F,0,0,1,0,0,0,1 @ F,0,0,1,0,0,0,1 @ F,0,0,1,0,0,0,1 @ F,0,0,1,0,0,0,1 @ F,0,0,1,0,0,0,1 @ F,0,0,1,0,0,0,1 @ F,0,0,1,0,0,0,1 @ F,0,0,1,0,0,0,1 @ F,0,0,1,0,0,0,1 @ F,0,0,1,0,0,0,1 @ F,0,0,1,0,0,0,1 @ F,0,0,1,0,0,0,1 @ F,0,0,1,0,0,0,1 @ F,0,0,1,0,0,0,1 @ F,0,0,1,0,0,0,1 @ F,0,0,1,0,0,0,1 @ F,0,0,1,0,0,0,1 @ F,0,0,1,0,0,0,1 @ F,0,0,1,0,0,0,1 @ F,0,0,1,0,0,0,1 @ F,0,0,1,0,0,0,1 @ F,0,0,1,0,0,0,1 @ F,0,0,1,0,0,0,1 @ F,0,0,1,0,0,0,1 @ F,0,0,1,0,0,0,1 @ F,0,0,1,0,0,0,1 @ F,0,0,1,0,0,0,1 @ F,0,0,1,0,0,0,1 @ F,0,0,1,0,0,0,1 @ F,0,0,1,0,0,0,1 @ F,0,0,1,0,0,0,1 @ F,0,0,1,0,0,0,1 @ F,0,0,1,0,0,0,1 @ F,0,0,1,0,0,0,1 @ F,0,0,1,0,0,0,1 @ F,0,0,1,0,0,0,1 @ F,0,0,1,0,0,0,1 @ F,0,0,1,0,0,0,1 @ F,0,0,1,0,0,0,1 @ F,0,0,1,0,0,0,1 @ F,0,0,1,0,0,0,1 @ F,0,0,1,0,0,0,1 @ F,0,0,1,0,0,0,1 @ F,0,0,1,0,0,0,1 @ F,0,0,1,0,0,0,1 @ F,0,0,1,0,0,0,1 @ F,0,0,1,0,0,0,1 @ F,0,0,1,0,0,0,1 @ F,0,0,1,0,0,0,1" unit="px" method="auto" mode="F" radius="0" chamfer_steps="1" flexible="false" use_knot_distance="true" apply_no_radius="true" apply_with_radius="true" only_selected="false" hide_knots="false" /><ns2:path-effect effect="fillet_chamfer" id="path-effect862" is_visible="true" lpeversion="1" satellites_param="F,0,0,1,0,0,0,1 @ F,0,0,1,0,0,0,1 @ F,0,0,1,0,0,0,1 @ F,0,0,1,0,0,0,1 @ F,0,0,1,0,0,0,1 @ F,0,0,1,0,0,0,1 @ F,0,0,1,0,0,0,1 @ F,0,0,1,0,0,0,1 @ F,0,0,1,0,0,0,1 @ F,0,0,1,0,0,0,1 @ F,0,0,1,0,0,0,1 | F,0,0,1,0,0,0,1 @ F,0,0,1,0,0,0,1 @ F,0,0,1,0,0,0,1 @ F,0,0,1,0,0,0,1 @ F,0,1,1,0,13.677668,0,1 @ F,0,1,1,0,13.677668,0,1 @ F,0,0,1,0,0,0,1 @ F,0,0,1,0,0,0,1 @ F,0,0,1,0,0,0,1 @ F,0,0,1,0,0,0,1 @ F,0,0,1,0,0,0,1 @ F,0,0,1,0,0,0,1 @ F,0,0,1,0,0,0,1 @ F,0,0,1,0,0,0,1 @ F,0,1,1,0,13.677668,0,1 @ F,0,1,1,0,13.677668,0,1 @ F,0,0,1,0,0,0,1 @ F,0,0,1,0,0,0,1 @ F,0,1,1,0,13.677668,0,1 @ F,0,1,1,0,13.677668,0,1 @ F,0,0,1,0,0,0,1 @ F,0,0,1,0,0,0,1 @ F,0,0,1,0,0,0,1 @ F,0,0,1,0,0,0,1 @ F,0,0,1,0,0,0,1 @ F,0,0,1,0,0,0,1 @ F,0,0,1,0,0,0,1 @ F,0,0,1,0,0,0,1 @ F,0,0,1,0,0,0,1 @ F,0,0,1,0,0,0,1 @ F,0,0,1,0,0,0,1 @ F,0,0,1,0,0,0,1 @ F,0,0,1,0,0,0,1 @ F,0,0,1,0,0,0,1 @ F,0,0,1,0,0,0,1 @ F,0,0,1,0,0,0,1 @ F,0,0,1,0,0,0,1 @ F,0,0,1,0,0,0,1 @ F,0,0,1,0,0,0,1 @ F,0,0,1,0,0,0,1 @ F,0,0,1,0,0,0,1 @ F,0,0,1,0,0,0,1 @ F,0,0,1,0,0,0,1 @ F,0,0,1,0,0,0,1 @ F,0,0,1,0,0,0,1 @ F,0,0,1,0,0,0,1 @ F,0,0,1,0,0,0,1 @ F,0,0,1,0,0,0,1 @ F,0,0,1,0,0,0,1 @ F,0,0,1,0,0,0,1 @ F,0,0,1,0,0,0,1 @ F,0,0,1,0,0,0,1 @ F,0,0,1,0,0,0,1 @ F,0,0,1,0,0,0,1 @ F,0,0,1,0,0,0,1 @ F,0,0,1,0,0,0,1 @ F,0,0,1,0,0,0,1 @ F,0,0,1,0,0,0,1 @ F,0,0,1,0,0,0,1 @ F,0,0,1,0,0,0,1 @ F,0,0,1,0,0,0,1 @ F,0,0,1,0,0,0,1 @ F,0,0,1,0,0,0,1 @ F,0,0,1,0,0,0,1 @ F,0,0,1,0,0,0,1 @ F,0,0,1,0,0,0,1 @ F,0,0,1,0,0,0,1 @ F,0,0,1,0,0,0,1 @ F,0,0,1,0,0,0,1 @ F,0,0,1,0,0,0,1 @ F,0,0,1,0,0,0,1 @ F,0,0,1,0,0,0,1 @ F,0,0,1,0,0,0,1 @ F,0,0,1,0,0,0,1 @ F,0,0,1,0,0,0,1 @ F,0,0,1,0,0,0,1 @ F,0,0,1,0,0,0,1 @ F,0,0,1,0,0,0,1 @ F,0,0,1,0,0,0,1 @ F,0,0,1,0,0,0,1 @ F,0,0,1,0,0,0,1 @ F,0,0,1,0,0,0,1 @ F,0,0,1,0,0,0,1 @ F,0,0,1,0,0,0,1 @ F,0,0,1,0,0,0,1 @ F,0,0,1,0,0,0,1 @ F,0,0,1,0,0,0,1 @ F,0,0,1,0,0,0,1 @ F,0,0,1,0,0,0,1 @ F,0,0,1,0,0,0,1 @ F,0,1,1,0,13.677668,0,1 @ F,0,1,1,0,13.677668,0,1 @ F,0,0,1,0,0,0,1 @ F,0,0,1,0,0,0,1 @ F,0,0,1,0,0,0,1 @ F,0,0,1,0,0,0,1 @ F,0,0,1,0,0,0,1 @ F,0,0,1,0,0,0,1 @ F,0,0,1,0,0,0,1 @ F,0,0,1,0,0,0,1 @ F,0,0,1,0,0,0,1 @ F,0,0,1,0,0,0,1 @ F,0,0,1,0,0,0,1 @ F,0,0,1,0,0,0,1 @ F,0,0,1,0,0,0,1 @ F,0,0,1,0,0,0,1 @ F,0,0,1,0,0,0,1 @ F,0,0,1,0,0,0,1 @ F,0,0,1,0,0,0,1 @ F,0,0,1,0,0,0,1 @ F,0,0,1,0,0,0,1 @ F,0,0,1,0,0,0,1 @ F,0,0,1,0,0,0,1 @ F,0,0,1,0,0,0,1 @ F,0,0,1,0,0,0,1 @ F,0,0,1,0,0,0,1 @ F,0,0,1,0,0,0,1 @ F,0,0,1,0,0,0,1 @ F,0,0,1,0,0,0,1 @ F,0,0,1,0,0,0,1 @ F,0,0,1,0,0,0,1 @ F,0,0,1,0,0,0,1" unit="px" method="auto" mode="F" radius="0" chamfer_steps="1" flexible="false" use_knot_distance="true" apply_no_radius="true" apply_with_radius="true" only_selected="true" hide_knots="false" /><ns2:path-effect effect="fillet_chamfer" id="path-effect849" is_visible="true" lpeversion="1" satellites_param="F,0,0,1,0,0,0,1 @ F,0,0,1,0,0,0,1 @ F,0,0,1,0,0,0,1 @ F,0,0,1,0,0,0,1 @ F,0,0,1,0,0,0,1 @ F,0,0,1,0,0,0,1 @ F,0,0,1,0,0,0,1 @ F,0,0,1,0,0,0,1 @ F,0,0,1,0,0,0,1 @ F,0,0,1,0,0,0,1 @ F,0,0,1,0,0,0,1 | F,0,0,1,0,0,0,1 @ F,0,0,1,0,0,0,1 @ F,0,0,1,0,0,0,1 @ F,0,0,1,0,0,0,1 @ F,0,0,1,0,0,0,1 @ F,0,0,1,0,0,0,1 @ F,0,1,1,0,19.126272,0,1 @ F,0,1,1,0,19.126272,0,1 @ F,0,0,1,0,0,0,1 @ F,0,0,1,0,0,0,1 @ F,0,1,1,0,19.126272,0,1 @ F,0,1,1,0,19.126272,0,1 @ F,0,0,1,0,0,0,1 @ F,0,0,1,0,0,0,1 @ F,0,0,1,0,0,0,1 @ F,0,0,1,0,0,0,1 @ F,0,0,1,0,0,0,1 @ F,0,0,1,0,0,0,1 @ F,0,0,1,0,0,0,1 @ F,0,0,1,0,0,0,1 @ F,0,0,1,0,0,0,1 @ F,0,0,1,0,0,0,1 @ F,0,0,1,0,0,0,1 @ F,0,0,1,0,0,0,1 @ F,0,0,1,0,0,0,1 @ F,0,0,1,0,0,0,1 @ F,0,0,1,0,0,0,1 @ F,0,0,1,0,0,0,1 @ F,0,0,1,0,0,0,1 @ F,0,0,1,0,0,0,1 @ F,0,0,1,0,0,0,1 @ F,0,0,1,0,0,0,1 @ F,0,0,1,0,0,0,1 @ F,0,0,1,0,0,0,1 @ F,0,0,1,0,0,0,1 @ F,0,0,1,0,0,0,1 @ F,0,0,1,0,0,0,1 @ F,0,0,1,0,0,0,1 @ F,0,0,1,0,0,0,1 @ F,0,0,1,0,0,0,1 @ F,0,0,1,0,0,0,1 @ F,0,0,1,0,0,0,1 @ F,0,0,1,0,0,0,1 @ F,0,0,1,0,0,0,1 @ F,0,0,1,0,0,0,1 @ F,0,0,1,0,0,0,1 @ F,0,0,1,0,0,0,1 @ F,0,0,1,0,0,0,1 @ F,0,0,1,0,0,0,1 @ F,0,0,1,0,0,0,1 @ F,0,0,1,0,0,0,1 @ F,0,0,1,0,0,0,1 @ F,0,0,1,0,0,0,1 @ F,0,0,1,0,0,0,1 @ F,0,0,1,0,0,0,1 @ F,0,0,1,0,0,0,1 @ F,0,0,1,0,0,0,1 @ F,0,0,1,0,0,0,1 @ F,0,0,1,0,0,0,1 @ F,0,0,1,0,0,0,1 @ F,0,0,1,0,0,0,1 @ F,0,0,1,0,0,0,1 @ F,0,0,1,0,0,0,1 @ F,0,0,1,0,0,0,1 @ F,0,0,1,0,0,0,1 @ F,0,0,1,0,0,0,1 @ F,0,0,1,0,0,0,1 @ F,0,0,1,0,0,0,1 @ F,0,0,1,0,0,0,1 @ F,0,0,1,0,0,0,1 @ F,0,0,1,0,0,0,1 @ F,0,0,1,0,0,0,1 @ F,0,0,1,0,0,0,1 @ F,0,0,1,0,0,0,1 @ F,0,1,1,0,19.126272,0,1 @ F,0,1,1,0,19.126272,0,1 @ F,0,0,1,0,0,0,1 @ F,0,0,1,0,0,0,1 @ F,0,0,1,0,0,0,1 @ F,0,0,1,0,0,0,1 @ F,0,0,1,0,0,0,1 @ F,0,0,1,0,0,0,1 @ F,0,0,1,0,0,0,1 @ F,0,0,1,0,0,0,1 @ F,0,0,1,0,0,0,1 @ F,0,0,1,0,0,0,1 @ F,0,0,1,0,0,0,1 @ F,0,0,1,0,0,0,1 @ F,0,0,1,0,0,0,1 @ F,0,0,1,0,0,0,1 @ F,0,0,1,0,0,0,1 @ F,0,0,1,0,0,0,1 @ F,0,0,1,0,0,0,1 @ F,0,0,1,0,0,0,1 @ F,0,0,1,0,0,0,1 @ F,0,0,1,0,0,0,1 @ F,0,0,1,0,0,0,1 @ F,0,0,1,0,0,0,1 @ F,0,0,1,0,0,0,1 @ F,0,0,1,0,0,0,1 @ F,0,0,1,0,0,0,1 @ F,0,0,1,0,0,0,1 @ F,0,0,1,0,0,0,1 @ F,0,0,1,0,0,0,1 @ F,0,0,1,0,0,0,1 @ F,0,0,1,0,0,0,1" unit="px" method="auto" mode="F" radius="0" chamfer_steps="1" flexible="false" use_knot_distance="true" apply_no_radius="true" apply_with_radius="true" only_selected="true" hide_knots="false" /><ns2:path-effect effect="fillet_chamfer" id="path-effect848" is_visible="true" lpeversion="1" satellites_param="F,0,0,1,0,0,0,1 @ F,0,0,1,0,0,0,1 @ F,0,0,1,0,0,0,1 @ F,0,0,1,0,0,0,1 @ F,0,0,1,0,0,0,1 @ F,0,0,1,0,0,0,1 @ F,0,0,1,0,0,0,1 @ F,0,0,1,0,0,0,1 @ F,0,0,1,0,0,0,1 @ F,0,0,1,0,0,0,1 @ F,0,0,1,0,0,0,1 | F,0,0,1,0,0,0,1 @ F,0,0,1,0,0,0,1 @ F,0,0,1,0,0,0,1 @ F,0,0,1,0,0,0,1 @ F,0,0,1,0,0,0,1 @ F,0,0,1,0,0,0,1 @ F,0,0,1,0,0,0,1 @ F,0,0,1,0,0,0,1 @ F,0,0,1,0,0,0,1 @ F,0,0,1,0,0,0,1 | F,0,0,1,0,0,0,1 @ F,0,0,1,0,0,0,1 @ F,0,0,1,0,0,0,1 @ F,0,0,1,0,0,0,1 @ F,0,0,1,0,0,0,1 @ F,0,0,1,0,0,0,1 @ F,0,0,1,0,0,0,1 @ F,0,0,1,0,0,0,1 @ F,0,0,1,0,0,0,1 @ F,0,0,1,0,0,0,1 | F,0,0,1,0,0,0,1 @ F,0,0,1,0,0,0,1 @ F,0,0,1,0,0,0,1 @ F,0,0,1,0,0,0,1 @ F,0,0,1,0,0,0,1 @ F,0,0,1,0,0,0,1 @ F,0,0,1,0,0,0,1 @ F,0,0,1,0,0,0,1 @ F,0,0,1,0,0,0,1 @ F,0,0,1,0,0,0,1 @ F,0,0,1,0,0,0,1 @ F,0,0,1,0,0,0,1 @ F,0,0,1,0,0,0,1 @ F,0,0,1,0,0,0,1 @ F,0,0,1,0,0,0,1 @ F,0,0,1,0,0,0,1 @ F,0,0,1,0,0,0,1 @ F,0,0,1,0,0,0,1 @ F,0,0,1,0,0,0,1 @ F,0,0,1,0,0,0,1 @ F,0,0,1,0,0,0,1 @ F,0,0,1,0,0,0,1 @ F,0,0,1,0,0,0,1 @ F,0,0,1,0,0,0,1 @ F,0,0,1,0,0,0,1 @ F,0,0,1,0,0,0,1 @ F,0,0,1,0,0,0,1 @ F,0,0,1,0,0,0,1 @ F,0,0,1,0,0,0,1 @ F,0,0,1,0,0,0,1 @ F,0,1,1,0,34.429278,0,1 @ F,0,1,1,0,34.429278,0,1 @ F,0,0,1,0,0,0,1 @ F,0,0,1,0,0,0,1 @ F,0,0,1,0,0,0,1 @ F,0,0,1,0,0,0,1 @ F,0,0,1,0,0,0,1 @ F,0,0,1,0,0,0,1 @ F,0,0,1,0,0,0,1 @ F,0,0,1,0,0,0,1 @ F,0,0,1,0,0,0,1 @ F,0,0,1,0,0,0,1 @ F,0,0,1,0,0,0,1 @ F,0,0,1,0,0,0,1 @ F,0,0,1,0,0,0,1 @ F,0,0,1,0,0,0,1 @ F,0,0,1,0,0,0,1 @ F,0,0,1,0,0,0,1 @ F,0,0,1,0,0,0,1 @ F,0,0,1,0,0,0,1 @ F,0,0,1,0,0,0,1 @ F,0,0,1,0,0,0,1 @ F,0,0,1,0,0,0,1 @ F,0,0,1,0,0,0,1 @ F,0,0,1,0,0,0,1 @ F,0,0,1,0,0,0,1 @ F,0,0,1,0,0,0,1 @ F,0,0,1,0,0,0,1 @ F,0,0,1,0,0,0,1 @ F,0,0,1,0,0,0,1 @ F,0,0,1,0,0,0,1 @ F,0,0,1,0,0,0,1 @ F,0,0,1,0,0,0,1 @ F,0,1,1,0,34.429278,0,1 @ F,0,1,1,0,34.429278,0,1 @ F,0,0,1,0,0,0,1 @ F,0,0,1,0,0,0,1 @ F,0,0,1,0,0,0,1 @ F,0,0,1,0,0,0,1 @ F,0,1,1,0,34.429278,0,1 @ F,0,1,1,0,34.429278,0,1 @ F,0,0,1,0,0,0,1 @ F,0,0,1,0,0,0,1 @ F,0,0,1,0,0,0,1 @ F,0,0,1,0,0,0,1 @ F,0,0,1,0,0,0,1 @ F,0,0,1,0,0,0,1 @ F,0,0,1,0,0,0,1" unit="px" method="auto" mode="F" radius="0" chamfer_steps="1" flexible="false" use_knot_distance="true" apply_no_radius="true" apply_with_radius="true" only_selected="true" hide_knots="false" /><ns2:path-effect effect="spiro" id="path-effect847" is_visible="true" lpeversion="1" /><ns2:path-effect effect="spiro" id="path-effect851" is_visible="true" lpeversion="1" />
  <style type="text/css" id="style2">
   
    .fil0 {fill:#EF7F1A;fill-rule:nonzero}
   
  </style>
 <ns2:path-effect effect="spiro" id="path-effect1214" is_visible="true" lpeversion="1" /><ns2:path-effect effect="spiro" id="path-effect1195" is_visible="true" lpeversion="1" /><ns2:path-effect effect="spiro" id="path-effect992" is_visible="true" lpeversion="1" /><ns2:path-effect effect="spiro" id="path-effect1060" is_visible="true" lpeversion="1" /><ns2:path-effect effect="spiro" id="path-effect1047" is_visible="true" lpeversion="1" /><ns2:path-effect effect="spiro" id="path-effect1085" is_visible="true" lpeversion="1" /><ns2:path-effect effect="spiro" id="path-effect1049" is_visible="true" lpeversion="1" /><ns2:path-effect effect="spiro" id="path-effect1271" is_visible="true" lpeversion="1" /></defs>
 
<g id="g990" transform="translate(-456.95472,80.352631)" style="clip-rule:evenodd;fill-rule:evenodd;image-rendering:optimizeQuality;shape-rendering:geometricPrecision;text-rendering:geometricPrecision"><path id="path1102-7-3-3" style="clip-rule:evenodd;fill:#63452c;fill-rule:nonzero;stroke:none;stroke-width:6.77407px;stroke-linecap:butt;stroke-linejoin:miter;stroke-opacity:1;image-rendering:optimizeQuality;shape-rendering:geometricPrecision;text-rendering:geometricPrecision" d="M 777.8805,67.227243 C 756.7563,42.205489 732.03923,19.576438 702.6135,5.2081878 673.18778,-9.1600624 638.61116,-14.695206 607.20656,-5.41776 588.11647,0.22177246 570.74046,11.145843 556.6788,25.23505 542.61715,39.324257 531.81982,56.51594 524.31294,74.951847 509.2992,111.82366 507.51758,152.90362 511.67357,192.49745 c 5.99535,57.1173 24.74678,114.20861 61.81997,158.07099 16.80996,19.88836 37.49463,36.97466 61.62689,46.76012 24.13227,9.78546 51.91011,11.80871 76.27517,2.6182 16.30422,-6.14996 30.65983,-17.13808 41.35755,-30.89338 10.69773,-13.7553 17.77122,-30.2122 21.01767,-47.33266 6.17817,-32.58114 -1.65446,-67.03711 -18.65838,-95.50757 -19.99569,-33.47971 -53.35468,-59.48217 -91.54079,-67.39036 -35.6578,-7.38459 -74.36893,1.58066 -103.15007,23.88889 l 11.99849,104.61654 c 7.06271,-15.20009 18.71737,-28.22994 33.03889,-36.93732 14.32153,-8.70738 31.25321,-13.05781 47.99832,-12.33271 13.13488,0.56877 26.27586,4.29932 37.12574,11.72419 10.84988,7.42487 19.25838,18.68565 22.19151,31.50147 2.01003,8.78251 1.40906,18.18977 -1.98431,26.53589 -3.39337,8.34612 -9.60811,15.56724 -17.50375,19.90678 -9.41663,5.17549 -20.84832,6.08322 -31.30708,3.61889 -10.45876,-2.46434 -19.98615,-8.11483 -28.05234,-15.21379 -12.14484,-10.68854 -21.15355,-24.64555 -27.31049,-39.60664 -6.15694,-14.9611 -9.55597,-30.93621 -11.55615,-46.99054 -2.33287,-18.72469 -2.77984,-37.89264 1.30818,-56.31393 4.08802,-18.4213 12.98363,-36.13277 27.13509,-48.61445 15.82827,-13.96064 37.73299,-20.54774 58.72486,-18.36258 14.59142,1.5189 28.63705,7.07299 40.83176,15.22809 12.19471,8.1551 22.57786,18.85984 31.09979,30.80109 17.04386,23.88249 26.53902,52.25619 34.3464,80.5389 6.66427,24.14171 12.29325,48.68576 14.21408,73.65665 0.78887,10.2554 0.9488,20.55909 0.48025,30.83409 -0.27265,5.97898 3.95949,9.55239 9.73969,7.99762 l 72.10773,-19.39579 c 5.7802,-1.55477 8.03477,-7.04074 5.7984,-12.5887 -6.05327,-15.01684 -7.94993,-31.7128 -5.27482,-47.68855 3.21612,-19.2067 12.681,-36.78261 23.18171,-53.18309 13.40321,-20.93375 29.46159,-41.25 51.5257,-52.69739 11.03206,-5.7237 23.439,-9.0459 35.8591,-8.58963 12.42007,0.45628 24.82197,4.83622 34.15477,13.04391 8.6682,7.62323 14.407,18.25378 17.1622,29.46362 2.7552,11.20984 2.6498,22.98778 0.8638,34.39224 -5.7234,36.54721 -28.4302,68.84066 -56.90829,92.45108 -28.47814,23.61041 -62.51803,39.45983 -96.82907,53.28764 -37.66525,15.1796 -76.26004,28.26903 -115.90014,37.08684 -69.26929,15.40872 -142.37554,18.01644 -206.89082,47.57048 -35.70267,16.35517 -68.34077,41.44568 -88.15505,75.35093 -9.90714,16.95263 -16.47103,35.9472 -18.33864,55.49343 -1.86761,19.54623 1.0366,39.6299 9.10233,57.53205 12.70539,28.20003 37.96718,49.90055 66.91462,60.79617 28.94744,10.89562 61.24684,11.439 91.32709,4.23851 46.2266,-11.06554 86.51098,-39.40098 121.70041,-71.35483 34.314,-31.15891 64.88887,-66.19019 98.25825,-98.3587 21.31402,-20.54699 44.2483,-40.22888 71.45204,-51.90888 13.60187,-5.84001 28.18532,-9.59057 42.97813,-10.12857 14.79281,-0.538 29.80071,2.20492 43.07464,8.75621 11.916,5.88107 22.2898,14.76758 30.2077,25.4392 7.918,10.67161 13.3938,23.10032 16.2619,36.07534 4.615,20.87778 2.2934,43.48437 -7.8548,62.30445 -10.1481,18.82008 -28.3493,33.45969 -49.26763,37.88708 -18.21275,3.85475 -37.9623,-0.21147 -53.1668,-10.95328 -15.2045,-10.74181 -25.63653,-28.001 -28.07243,-46.45716 -2.69853,-20.44596 4.25019,-41.44659 16.38916,-58.11886 12.13898,-16.67227 29.12923,-29.32766 47.34967,-38.98866 37.86023,-20.07457 82.01393,-27.90566 124.53143,-22.55336 30.1596,3.79663 60.3754,14.6705 81.9817,36.0523 7.9467,7.86409 14.6804,17.17966 18.2663,27.76903 3.5859,10.58938 3.8196,22.53882 -0.6963,32.76624 -3.4147,7.73332 -9.4865,14.26358 -16.9514,18.23102 -4.2737,2.27145 -8.9884,3.69448 -13.7995,4.2152 -5.9308,0.64188 -9.9945,4.42068 -9.0069,10.32429 l 9.416,56.28451 c 0.9876,5.90361 5.7871,7.60125 11.5561,6.14441 2.1443,-0.5415 4.3504,-0.8366 6.5622,-0.86663 5.8246,-0.0791 11.6608,1.68066 16.4709,4.96636 5.0066,3.41994 8.8567,8.447 11.0692,14.09211 2.2125,5.6451 2.8085,11.88246 1.9346,17.88234 -1.7478,11.99977 -9.3102,22.68504 -19.1139,29.82211 -9.8036,7.13707 -21.6869,10.98768 -33.6741,12.81968 -11.9872,1.832 -24.1743,1.74724 -36.3004,1.66609 -61.2502,-0.40987 -122.8575,-0.59328 -183.26154,9.56036 -38.65727,6.4981 -76.60247,17.22085 -112.9466,31.90746 -5.54957,2.24257 -7.93696,8.55 -5.38339,13.96363 l 51.29241,108.74097 c 2.55357,5.41363 9.15828,8.07185 14.81647,6.11984 41.15797,-14.19901 84.78498,-21.22511 128.32075,-20.62895 77.3408,1.05908 152.6236,25.79016 229.8503,30.12195 29.6818,1.66491 59.5327,0.29202 88.9373,-4.08277 5.9203,-0.88082 10.9257,-6.57487 11.2052,-12.55399 l 5.2388,-112.05981 c 0.2795,-5.97912 -3.5032,-8.08937 -8.581,-4.92077 -24.5866,15.34235 -51.4325,27.06229 -79.4056,34.64114 -85.4762,23.15838 -176.2322,7.05024 -262.715,-12.00783 -30.4922,-6.71951 -60.90618,-13.79397 -91.23371,-21.22144 l 19.61225,66.95263 c 31.6624,-13.26528 64.38486,-23.99947 97.75246,-32.06648 46.0988,-11.14491 93.343,-17.1911 139.2395,-29.14157 27.7494,-7.22535 55.5512,-16.92502 77.9534,-34.82411 11.2011,-8.94955 20.9064,-19.90934 27.6317,-32.57145 6.7254,-12.66211 10.3952,-27.06345 9.6405,-41.3809 -0.8372,-15.88183 -7.1069,-31.25049 -16.65,-43.97302 -9.5431,-12.72252 -22.2535,-22.87925 -36.1988,-30.52522 -14.7268,-8.07442 -30.928,-13.44964 -47.5607,-15.77959 l 12.5589,47.58637 c 21.9488,-13.75884 40.1641,-33.4116 52.2195,-56.34023 10.7927,-20.52705 16.6646,-43.82611 15.4346,-66.98488 -1.4087,-26.52449 -12.1597,-52.21498 -28.8084,-72.91169 -16.6487,-20.69671 -38.9999,-36.49408 -63.4582,-46.85379 -30.7207,-13.01223 -64.6772,-17.57986 -97.9761,-15.51591 -33.2989,2.06395 -65.9887,10.6139 -97.00608,22.90197 -40.87924,16.19498 -79.92172,39.61399 -107.55911,73.81288 -13.81869,17.09945 -24.60898,36.76838 -30.60352,57.92052 -5.99454,21.15213 -7.10698,43.79904 -2.20039,65.22969 6.06468,26.48886 21.28101,50.57217 41.67962,68.5259 20.39861,17.95374 45.80441,29.87623 72.38381,35.53095 34.14095,7.26342 70.69377,4.15023 102.39687,-10.45366 23.959,-11.03659 44.9617,-28.55932 59.7148,-50.42678 14.7531,-21.86745 23.1576,-48.04379 23.4113,-74.42134 0.3592,-37.34377 -15.8451,-74.16356 -42.1663,-100.6565 -26.3213,-26.49295 -62.2138,-42.76763 -99.287,-47.26957 -35.75614,-4.34201 -72.313,1.91748 -105.99239,14.68672 -33.67939,12.76923 -64.65717,31.88445 -93.47216,53.4958 -36.78044,27.58547 -70.46563,59.44702 -109.53033,83.68972 -16.02058,9.94202 -33.63978,18.75364 -52.49059,19.14078 -9.42541,0.19358 -18.99446,-1.81848 -27.16075,-6.52884 -8.16629,-4.71035 -14.8388,-12.22215 -17.8016,-21.17188 -1.98,-5.98101 -2.28279,-12.46575 -1.19472,-18.6713 1.08806,-6.20556 3.54107,-12.1353 6.87358,-17.482 6.66502,-10.6934 16.66845,-18.91007 27.24763,-25.75495 16.23497,-10.50426 34.13639,-18.19452 52.35623,-24.67147 55.28849,-19.65444 113.78004,-28.42571 170.38074,-43.90068 78.94865,-21.58504 155.65366,-57.3095 214.26696,-114.43463 38.7831,-37.79844 69.4551,-85.91202 77.8143,-139.41882 5.8114,-37.19821 0.2468,-76.74584 -19.1797,-108.996274 -9.7133,-16.125218 -22.7872,-30.280347 -38.3931,-40.807662 -15.606,-10.527316 -33.75,-17.3758 -52.4797,-19.264908 -31.7129,-3.198619 -63.78035,7.973728 -89.7524,26.450541 -25.97205,18.476813 -46.36224,43.833289 -63.37121,70.789453 -34.23481,54.25601 -55.96008,116.35279 -63.01621,180.11758 l 50.53835,-13.44911 C 861.02136,204.42829 829.05238,127.84067 777.8805,67.227243 Z" ns1:nodetypes="aaacaaaaccaaaaaaaaaccaaaaaaaaaaaaaaaaaaaccaaaccasccaaccaaaaccaaaaaaasaaaaaaaaaaacca" ns2:path-effect="#path-effect1271;#path-effect1965" ns2:original-d="M 777.8805,67.227243 C 734.3127,23.354311 665.08774,-27.160723 607.20656,-5.41776 c -68.5764,25.760602 -92.71674,124.71412 -95.53299,197.91521 -2.17504,56.53472 32.44321,111.26111 61.81997,158.07099 29.272,45.11132 90.93673,62.72632 137.90206,49.37832 32.07951,-9.1173 54.44451,-45.83277 62.37522,-78.22604 7.71376,-31.50716 -1.30265,-68.10352 -18.65838,-95.50757 -20.27323,-32.01066 -54.43226,-59.73248 -91.54079,-67.39036 -34.56507,-7.133 -103.15007,23.88889 -103.15007,23.88889 l 11.99849,104.61654 c 11.11231,-2.58362 49.45151,-50.58897 81.03721,-49.27003 24.44408,1.02072 52.74733,19.65893 59.31725,43.22566 4.5084,16.17191 -4.67728,38.53716 -19.48806,46.44267 -17.7854,9.49327 -43.5687,0.93888 -59.35942,-11.5949 -24.78198,-19.67053 -36.38292,-55.05503 -38.86664,-86.59718 -2.84471,-36.12656 3.31482,-78.81743 28.44327,-104.92838 14.22178,-14.77784 39.04046,-24.12174 58.72486,-18.36258 52.87377,15.46954 82.58597,76.83246 106.27795,126.56808 10.75367,22.57474 11.9078,48.75803 14.21408,73.65665 1.28041,13.82336 -0.59672,34.96119 -0.24604,41.64688 l 93.03969,-25.02613 c -5.44012,-32.31027 -12.26679,-38.16292 -9.9424,-57.46208 2.31243,-19.19985 9.28219,-39.73746 23.18171,-53.18309 31.32868,-30.30564 82.46115,-67.55104 121.53957,-48.24311 19.8289,9.79709 23.893,42.53109 18.026,63.85586 -18.7313,68.08261 -92.96279,109.78658 -153.73736,145.73872 -34.91179,20.65262 -76.78342,26.35155 -115.90014,37.08684 -68.23989,18.72793 -150.98071,4.19447 -206.89082,47.57048 -55.85052,43.32978 -121.7528,122.01927 -97.39136,188.37641 19.65391,53.53448 101.35388,69.03358 158.24171,65.03468 46.90965,-3.29749 84.49607,-42.59329 121.70041,-71.35483 36.6645,-28.34421 58.89702,-73.89703 98.25825,-98.3587 47.07431,-29.25508 104.53664,-69.59759 157.50481,-53.28124 24.5592,7.56521 44.8158,35.86987 46.4696,61.51454 2.4739,38.36408 -19.5945,91.85016 -57.12243,100.19153 -32.36921,7.19473 -75.06223,-24.83169 -81.23923,-57.41044 -7.21272,-38.04135 31.44883,-75.74111 63.73883,-97.10752 35.18103,-23.27941 82.63693,-27.50176 124.53143,-22.55336 29.6468,3.50176 62.3087,13.59858 81.9817,36.0523 13.8464,15.80343 25.7501,41.18188 17.57,60.53527 -6.1059,14.44571 -41.546,22.08107 -41.546,22.08107 l 12.9924,77.66339 c -5.2969,22.95484 28.5415,-10.51624 32.801,-0.4453 13.9898,33.07642 -43.284,61.65773 -76.0846,76.28233 -55.8687,24.90974 -122.96,-0.71224 -183.26154,9.56036 -42.10506,7.17276 -109.48353,30.49646 -122.95364,36.06885 l 60.53971,128.34545 c 33.10431,-25.26017 91.64764,-23.2933 138.51357,-24.31135 77.2536,-1.67816 141.0901,30.63975 229.8503,30.12195 37.8614,-0.2208 96.6987,15.611 99.6364,-5.8106 l 6.251,-133.71213 c 2.7777,-20.25541 -56.6423,34.35549 -88.4927,40.54653 -86.0525,16.72678 -175.8746,-0.0261 -262.715,-12.00783 -30.93006,-4.26755 -72.37325,-22.95389 -91.23371,-21.22144 l 19.61225,66.95263 c -4.70226,-1.62522 64.62706,-23.19604 97.75246,-32.06648 45.8049,-12.26581 97.2113,-7.183 139.2395,-29.14157 46.815,-24.4596 110.0267,-56.21326 115.2256,-108.77646 2.9969,-30.29881 -28.3745,-56.38726 -52.8488,-74.49824 -13.4268,-9.93587 -35.816,-8.23438 -47.5607,-15.77959 l 12.5589,47.58637 c 0,0 40.2372,-33.71054 52.2195,-56.34023 10.7221,-20.24988 20.3227,-44.59896 15.4346,-66.98488 -10.7506,-49.23494 -46.6342,-98.37991 -92.2666,-119.76548 -58.8939,-27.6006 -137.7407,-23.49609 -194.98218,7.38606 -70.95259,38.2794 -148.89619,116.79598 -140.36302,196.96309 5.44734,51.17642 65.1929,87.92086 114.06343,104.05685 32.57975,10.75713 73.01437,7.26142 102.39687,-10.45366 42.8166,-25.81475 73.1975,-75.84719 83.1261,-124.84812 7.6185,-37.60004 -75.1713,-131.76242 -141.4533,-147.92607 -68.26485,-16.64719 -137.49735,35.05723 -199.46455,68.18252 -40.52155,21.66127 -65.40273,70.88497 -109.53033,83.68972 -31.31753,9.08758 -81.89971,20.10134 -97.45294,-8.55994 -11.14801,-20.5434 16.00363,-45.78602 32.92649,-61.90825 13.96838,-13.30754 34.20866,-18.12372 52.35623,-24.67147 55.16749,-19.90484 115.7299,-22.61835 170.38074,-43.90068 75.45101,-29.38241 160.50556,-63.12369 214.26696,-114.43463 38.5005,-36.74555 79.6225,-86.22814 77.8143,-139.41882 C 1141.4985,121.38997 1099.441,33.806209 1033.7307,19.526326 974.64631,6.686359 918.19098,69.403049 880.60709,116.76632 841.06877,166.59255 821.08158,260.13312 817.59088,296.8839 l 50.53835,-13.44911 c 0,0 -35.21972,-160.79314 -90.24873,-216.207547 z" /></g></svg>