<?xml version="1.0" encoding="UTF-8" standalone="no"?>
<svg
   xmlns:dc="http://purl.org/dc/elements/1.1/"
   xmlns:cc="http://creativecommons.org/ns#"
   xmlns:rdf="http://www.w3.org/1999/02/22-rdf-syntax-ns#"
   xmlns:svg="http://www.w3.org/2000/svg"
   xmlns="http://www.w3.org/2000/svg"
   xmlns:sodipodi="http://sodipodi.sourceforge.net/DTD/sodipodi-0.dtd"
   xmlns:inkscape="http://www.inkscape.org/namespaces/inkscape"
   xml:space="preserve"
   width="1000"
   height="1000"
   version="1.1"
   style="clip-rule:evenodd;fill-rule:evenodd;image-rendering:optimizeQuality;shape-rendering:geometricPrecision;text-rendering:geometricPrecision"
   viewBox="0 0 1000 1000"
   id="svg10"
   sodipodi:docname="ജൃ.svg"
   inkscape:version="1.0.2 (e86c870879, 2021-01-15)"><metadata
   id="metadata14"><rdf:RDF><cc:Work
       rdf:about=""><dc:format>image/svg+xml</dc:format><dc:type
         rdf:resource="http://purl.org/dc/dcmitype/StillImage" /><dc:title /></cc:Work></rdf:RDF></metadata><sodipodi:namedview
   pagecolor="#ffffff"
   bordercolor="#666666"
   borderopacity="1"
   objecttolerance="10"
   gridtolerance="10"
   guidetolerance="10"
   inkscape:pageopacity="0"
   inkscape:pageshadow="2"
   inkscape:window-width="1920"
   inkscape:window-height="1007"
   id="namedview12"
   showgrid="false"
   inkscape:zoom="0.84890884"
   inkscape:cx="434.60154"
   inkscape:cy="572.14053"
   inkscape:window-x="1920"
   inkscape:window-y="0"
   inkscape:window-maximized="1"
   inkscape:current-layer="svg10"
   showguides="true"
   inkscape:guide-bbox="true"
   inkscape:document-rotation="0"><sodipodi:guide
     position="0,1000"
     orientation="0,1"
     id="guide16"
     inkscape:label=""
     inkscape:locked="true"
     inkscape:color="rgb(0,0,255)" /><sodipodi:guide
     position="1763.3122,2036.1693"
     orientation="1000,0"
     id="guide18" /><sodipodi:guide
     position="0,200"
     orientation="0,1"
     id="guide20"
     inkscape:label="base"
     inkscape:locked="true"
     inkscape:color="rgb(0,0,255)" /><inkscape:grid
     type="xygrid"
     id="grid24"
     originx="-473.37552"
     originy="-489.69235" /><sodipodi:guide
     position="0,0"
     orientation="0,1"
     id="guide34"
     inkscape:label="bottom"
     inkscape:locked="true"
     inkscape:color="rgb(0,0,255)" /><sodipodi:guide
     position="225.05109,1693.3186"
     orientation="0,1"
     id="guide44"
     inkscape:label=""
     inkscape:locked="false"
     inkscape:color="rgb(0,0,255)" /><sodipodi:guide
     position="0,900"
     orientation="0,1"
     id="guide46"
     inkscape:label=""
     inkscape:locked="true"
     inkscape:color="rgb(0,0,255)" /><sodipodi:guide
     position="845.89172,515.26267"
     orientation="-1,0"
     id="guide841"
     inkscape:label="width"
     inkscape:locked="false"
     inkscape:color="rgb(0,0,255)" /></sodipodi:namedview>
 <defs
   id="defs4"><inkscape:path-effect
   effect="fillet_chamfer"
   id="path-effect850"
   is_visible="true"
   lpeversion="1"
   satellites_param="F,0,0,1,0,0,0,1 @ F,0,0,1,0,0,0,1 @ F,0,0,1,0,0,0,1 @ F,0,0,1,0,0,0,1 @ F,0,0,1,0,0,0,1 @ F,0,0,1,0,0,0,1 @ F,0,0,1,0,0,0,1 @ F,0,0,1,0,0,0,1 @ F,0,0,1,0,0,0,1 @ F,0,0,1,0,0,0,1 @ F,0,0,1,0,0,0,1 | F,0,0,1,0,0,0,1 @ F,0,0,1,0,0,0,1 @ F,0,0,1,0,0,0,1 @ F,0,0,1,0,0,0,1 @ F,0,0,1,0,0,0,1 @ F,0,0,1,0,0,0,1 @ F,0,0,1,0,0,0,1 @ F,0,0,1,0,0,0,1 @ F,0,0,1,0,0,0,1 @ F,0,0,1,0,0,0,1 @ F,0,0,1,0,0,0,1 @ F,0,0,1,0,0,0,1 @ F,0,0,1,0,0,0,1 @ F,0,0,1,0,0,0,1 @ F,0,0,1,0,0,0,1 @ F,0,0,1,0,0,0,1 @ F,0,0,1,0,0,0,1 @ F,0,0,1,0,0,0,1 @ F,0,0,1,0,0,0,1 @ F,0,0,1,0,0,0,1 @ F,0,0,1,0,0,0,1 @ F,0,0,1,0,0,0,1 @ F,0,0,1,0,0,0,1 @ F,0,0,1,0,0,0,1 @ F,0,0,1,0,0,0,1 @ F,0,0,1,0,0,0,1 @ F,0,0,1,0,0,0,1 @ F,0,0,1,0,0,0,1 @ F,0,0,1,0,0,0,1 @ F,0,0,1,0,0,0,1 @ F,0,0,1,0,0,0,1 @ F,0,0,1,0,0,0,1 @ F,0,0,1,0,0,0,1 @ F,0,0,1,0,0,0,1 @ F,0,0,1,0,0,0,1 @ F,0,0,1,0,0,0,1 @ F,0,0,1,0,0,0,1 @ F,0,0,1,0,0,0,1 @ F,0,0,1,0,0,0,1 @ F,0,0,1,0,0,0,1 @ F,0,0,1,0,0,0,1 @ F,0,0,1,0,0,0,1 @ F,0,0,1,0,0,0,1 @ F,0,0,1,0,0,0,1 @ F,0,0,1,0,0,0,1 @ F,0,0,1,0,0,0,1 @ F,0,0,1,0,0,0,1 @ F,0,0,1,0,0,0,1 @ F,0,0,1,0,0,0,1 @ F,0,0,1,0,0,0,1 @ F,0,0,1,0,0,0,1 @ F,0,0,1,0,0,0,1 @ F,0,0,1,0,0,0,1 @ F,0,0,1,0,0,0,1 @ F,0,0,1,0,0,0,1 @ F,0,0,1,0,0,0,1 @ F,0,0,1,0,0,0,1 @ F,0,0,1,0,0,0,1 @ F,0,0,1,0,0,0,1 @ F,0,0,1,0,0,0,1 @ F,0,0,1,0,0,0,1 @ F,0,0,1,0,0,0,1 @ F,0,0,1,0,0,0,1 @ F,0,0,1,0,0,0,1 @ F,0,0,1,0,0,0,1 @ F,0,0,1,0,0,0,1 @ F,0,0,1,0,0,0,1 @ F,0,0,1,0,0,0,1 @ F,0,0,1,0,0,0,1 @ F,0,0,1,0,0,0,1 @ F,0,0,1,0,0,0,1 @ F,0,0,1,0,0,0,1 @ F,0,0,1,0,0,0,1 @ F,0,0,1,0,0,0,1 @ F,0,0,1,0,0,0,1 @ F,0,0,1,0,0,0,1 @ F,0,0,1,0,0,0,1 @ F,0,0,1,0,0,0,1 @ F,0,0,1,0,0,0,1 @ F,0,1,1,0,20.809257,0,1 @ F,0,1,1,0,20.809257,0,1 @ F,0,0,1,0,0,0,1 @ F,0,0,1,0,0,0,1 @ F,0,0,1,0,0,0,1 @ F,0,0,1,0,0,0,1 @ F,0,0,1,0,0,0,1 @ F,0,0,1,0,0,0,1 @ F,0,0,1,0,0,0,1 @ F,0,0,1,0,0,0,1 @ F,0,0,1,0,0,0,1 @ F,0,0,1,0,0,0,1 @ F,0,0,1,0,0,0,1 @ F,0,0,1,0,0,0,1 @ F,0,0,1,0,0,0,1 @ F,0,0,1,0,0,0,1 @ F,0,0,1,0,0,0,1 @ F,0,0,1,0,0,0,1 @ F,0,0,1,0,0,0,1 @ F,0,0,1,0,0,0,1 @ F,0,0,1,0,0,0,1 @ F,0,0,1,0,0,0,1 @ F,0,0,1,0,0,0,1 @ F,0,0,1,0,0,0,1 @ F,0,0,1,0,0,0,1 @ F,0,0,1,0,0,0,1 @ F,0,0,1,0,0,0,1 @ F,0,0,1,0,0,0,1 @ F,0,0,1,0,0,0,1 @ F,0,0,1,0,0,0,1 @ F,0,0,1,0,0,0,1 @ F,0,0,1,0,0,0,1"
   unit="px"
   method="auto"
   mode="F"
   radius="0"
   chamfer_steps="1"
   flexible="false"
   use_knot_distance="true"
   apply_no_radius="true"
   apply_with_radius="true"
   only_selected="true"
   hide_knots="false" /><inkscape:path-effect
   effect="fillet_chamfer"
   id="path-effect849"
   is_visible="true"
   lpeversion="1"
   satellites_param="F,0,0,1,0,0,0,1 @ F,0,0,1,0,0,0,1 @ F,0,0,1,0,0,0,1 @ F,0,0,1,0,0,0,1 @ F,0,0,1,0,0,0,1 @ F,0,0,1,0,0,0,1 @ F,0,0,1,0,0,0,1 @ F,0,0,1,0,0,0,1 @ F,0,0,1,0,0,0,1 @ F,0,0,1,0,0,0,1 @ F,0,0,1,0,0,0,1 | F,0,0,1,0,0,0,1 @ F,0,0,1,0,0,0,1 @ F,0,0,1,0,0,0,1 @ F,0,0,1,0,0,0,1 @ F,0,0,1,0,0,0,1 @ F,0,0,1,0,0,0,1 @ F,0,1,1,0,19.126272,0,1 @ F,0,1,1,0,19.126272,0,1 @ F,0,0,1,0,0,0,1 @ F,0,0,1,0,0,0,1 @ F,0,1,1,0,19.126272,0,1 @ F,0,1,1,0,19.126272,0,1 @ F,0,0,1,0,0,0,1 @ F,0,0,1,0,0,0,1 @ F,0,0,1,0,0,0,1 @ F,0,0,1,0,0,0,1 @ F,0,0,1,0,0,0,1 @ F,0,0,1,0,0,0,1 @ F,0,0,1,0,0,0,1 @ F,0,0,1,0,0,0,1 @ F,0,0,1,0,0,0,1 @ F,0,0,1,0,0,0,1 @ F,0,0,1,0,0,0,1 @ F,0,0,1,0,0,0,1 @ F,0,0,1,0,0,0,1 @ F,0,0,1,0,0,0,1 @ F,0,0,1,0,0,0,1 @ F,0,0,1,0,0,0,1 @ F,0,0,1,0,0,0,1 @ F,0,0,1,0,0,0,1 @ F,0,0,1,0,0,0,1 @ F,0,0,1,0,0,0,1 @ F,0,0,1,0,0,0,1 @ F,0,0,1,0,0,0,1 @ F,0,0,1,0,0,0,1 @ F,0,0,1,0,0,0,1 @ F,0,0,1,0,0,0,1 @ F,0,0,1,0,0,0,1 @ F,0,0,1,0,0,0,1 @ F,0,0,1,0,0,0,1 @ F,0,0,1,0,0,0,1 @ F,0,0,1,0,0,0,1 @ F,0,0,1,0,0,0,1 @ F,0,0,1,0,0,0,1 @ F,0,0,1,0,0,0,1 @ F,0,0,1,0,0,0,1 @ F,0,0,1,0,0,0,1 @ F,0,0,1,0,0,0,1 @ F,0,0,1,0,0,0,1 @ F,0,0,1,0,0,0,1 @ F,0,0,1,0,0,0,1 @ F,0,0,1,0,0,0,1 @ F,0,0,1,0,0,0,1 @ F,0,0,1,0,0,0,1 @ F,0,0,1,0,0,0,1 @ F,0,0,1,0,0,0,1 @ F,0,0,1,0,0,0,1 @ F,0,0,1,0,0,0,1 @ F,0,0,1,0,0,0,1 @ F,0,0,1,0,0,0,1 @ F,0,0,1,0,0,0,1 @ F,0,0,1,0,0,0,1 @ F,0,0,1,0,0,0,1 @ F,0,0,1,0,0,0,1 @ F,0,0,1,0,0,0,1 @ F,0,0,1,0,0,0,1 @ F,0,0,1,0,0,0,1 @ F,0,0,1,0,0,0,1 @ F,0,0,1,0,0,0,1 @ F,0,0,1,0,0,0,1 @ F,0,0,1,0,0,0,1 @ F,0,0,1,0,0,0,1 @ F,0,0,1,0,0,0,1 @ F,0,0,1,0,0,0,1 @ F,0,1,1,0,19.126272,0,1 @ F,0,1,1,0,19.126272,0,1 @ F,0,0,1,0,0,0,1 @ F,0,0,1,0,0,0,1 @ F,0,0,1,0,0,0,1 @ F,0,0,1,0,0,0,1 @ F,0,0,1,0,0,0,1 @ F,0,0,1,0,0,0,1 @ F,0,0,1,0,0,0,1 @ F,0,0,1,0,0,0,1 @ F,0,0,1,0,0,0,1 @ F,0,0,1,0,0,0,1 @ F,0,0,1,0,0,0,1 @ F,0,0,1,0,0,0,1 @ F,0,0,1,0,0,0,1 @ F,0,0,1,0,0,0,1 @ F,0,0,1,0,0,0,1 @ F,0,0,1,0,0,0,1 @ F,0,0,1,0,0,0,1 @ F,0,0,1,0,0,0,1 @ F,0,0,1,0,0,0,1 @ F,0,0,1,0,0,0,1 @ F,0,0,1,0,0,0,1 @ F,0,0,1,0,0,0,1 @ F,0,0,1,0,0,0,1 @ F,0,0,1,0,0,0,1 @ F,0,0,1,0,0,0,1 @ F,0,0,1,0,0,0,1 @ F,0,0,1,0,0,0,1 @ F,0,0,1,0,0,0,1 @ F,0,0,1,0,0,0,1 @ F,0,0,1,0,0,0,1"
   unit="px"
   method="auto"
   mode="F"
   radius="0"
   chamfer_steps="1"
   flexible="false"
   use_knot_distance="true"
   apply_no_radius="true"
   apply_with_radius="true"
   only_selected="true"
   hide_knots="false" /><inkscape:path-effect
   effect="fillet_chamfer"
   id="path-effect848"
   is_visible="true"
   lpeversion="1"
   satellites_param="F,0,0,1,0,0,0,1 @ F,0,0,1,0,0,0,1 @ F,0,0,1,0,0,0,1 @ F,0,0,1,0,0,0,1 @ F,0,0,1,0,0,0,1 @ F,0,0,1,0,0,0,1 @ F,0,0,1,0,0,0,1 @ F,0,0,1,0,0,0,1 @ F,0,0,1,0,0,0,1 @ F,0,0,1,0,0,0,1 @ F,0,0,1,0,0,0,1 | F,0,0,1,0,0,0,1 @ F,0,0,1,0,0,0,1 @ F,0,0,1,0,0,0,1 @ F,0,0,1,0,0,0,1 @ F,0,0,1,0,0,0,1 @ F,0,0,1,0,0,0,1 @ F,0,0,1,0,0,0,1 @ F,0,0,1,0,0,0,1 @ F,0,0,1,0,0,0,1 @ F,0,0,1,0,0,0,1 | F,0,0,1,0,0,0,1 @ F,0,0,1,0,0,0,1 @ F,0,0,1,0,0,0,1 @ F,0,0,1,0,0,0,1 @ F,0,0,1,0,0,0,1 @ F,0,0,1,0,0,0,1 @ F,0,0,1,0,0,0,1 @ F,0,0,1,0,0,0,1 @ F,0,0,1,0,0,0,1 @ F,0,0,1,0,0,0,1 | F,0,0,1,0,0,0,1 @ F,0,0,1,0,0,0,1 @ F,0,0,1,0,0,0,1 @ F,0,0,1,0,0,0,1 @ F,0,0,1,0,0,0,1 @ F,0,0,1,0,0,0,1 @ F,0,0,1,0,0,0,1 @ F,0,0,1,0,0,0,1 @ F,0,0,1,0,0,0,1 @ F,0,0,1,0,0,0,1 @ F,0,0,1,0,0,0,1 @ F,0,0,1,0,0,0,1 @ F,0,0,1,0,0,0,1 @ F,0,0,1,0,0,0,1 @ F,0,0,1,0,0,0,1 @ F,0,0,1,0,0,0,1 @ F,0,0,1,0,0,0,1 @ F,0,0,1,0,0,0,1 @ F,0,0,1,0,0,0,1 @ F,0,0,1,0,0,0,1 @ F,0,0,1,0,0,0,1 @ F,0,0,1,0,0,0,1 @ F,0,0,1,0,0,0,1 @ F,0,0,1,0,0,0,1 @ F,0,0,1,0,0,0,1 @ F,0,0,1,0,0,0,1 @ F,0,0,1,0,0,0,1 @ F,0,0,1,0,0,0,1 @ F,0,0,1,0,0,0,1 @ F,0,0,1,0,0,0,1 @ F,0,1,1,0,34.429278,0,1 @ F,0,1,1,0,34.429278,0,1 @ F,0,0,1,0,0,0,1 @ F,0,0,1,0,0,0,1 @ F,0,0,1,0,0,0,1 @ F,0,0,1,0,0,0,1 @ F,0,0,1,0,0,0,1 @ F,0,0,1,0,0,0,1 @ F,0,0,1,0,0,0,1 @ F,0,0,1,0,0,0,1 @ F,0,0,1,0,0,0,1 @ F,0,0,1,0,0,0,1 @ F,0,0,1,0,0,0,1 @ F,0,0,1,0,0,0,1 @ F,0,0,1,0,0,0,1 @ F,0,0,1,0,0,0,1 @ F,0,0,1,0,0,0,1 @ F,0,0,1,0,0,0,1 @ F,0,0,1,0,0,0,1 @ F,0,0,1,0,0,0,1 @ F,0,0,1,0,0,0,1 @ F,0,0,1,0,0,0,1 @ F,0,0,1,0,0,0,1 @ F,0,0,1,0,0,0,1 @ F,0,0,1,0,0,0,1 @ F,0,0,1,0,0,0,1 @ F,0,0,1,0,0,0,1 @ F,0,0,1,0,0,0,1 @ F,0,0,1,0,0,0,1 @ F,0,0,1,0,0,0,1 @ F,0,0,1,0,0,0,1 @ F,0,0,1,0,0,0,1 @ F,0,0,1,0,0,0,1 @ F,0,1,1,0,34.429278,0,1 @ F,0,1,1,0,34.429278,0,1 @ F,0,0,1,0,0,0,1 @ F,0,0,1,0,0,0,1 @ F,0,0,1,0,0,0,1 @ F,0,0,1,0,0,0,1 @ F,0,1,1,0,34.429278,0,1 @ F,0,1,1,0,34.429278,0,1 @ F,0,0,1,0,0,0,1 @ F,0,0,1,0,0,0,1 @ F,0,0,1,0,0,0,1 @ F,0,0,1,0,0,0,1 @ F,0,0,1,0,0,0,1 @ F,0,0,1,0,0,0,1 @ F,0,0,1,0,0,0,1"
   unit="px"
   method="auto"
   mode="F"
   radius="0"
   chamfer_steps="1"
   flexible="false"
   use_knot_distance="true"
   apply_no_radius="true"
   apply_with_radius="true"
   only_selected="true"
   hide_knots="false" /><inkscape:path-effect
   effect="spiro"
   id="path-effect847"
   is_visible="true"
   lpeversion="1" /><inkscape:path-effect
   effect="spiro"
   id="path-effect851"
   is_visible="true"
   lpeversion="1" />
  <style
   type="text/css"
   id="style2">
   <![CDATA[
    .fil0 {fill:#EF7F1A;fill-rule:nonzero}
   ]]>
  </style>
 <inkscape:path-effect
   effect="spiro"
   id="path-effect1214"
   is_visible="true"
   lpeversion="1" /><inkscape:path-effect
   effect="spiro"
   id="path-effect1195"
   is_visible="true"
   lpeversion="1" /><inkscape:path-effect
   effect="spiro"
   id="path-effect992"
   is_visible="true"
   lpeversion="1" /><inkscape:path-effect
   effect="spiro"
   id="path-effect1060"
   is_visible="true"
   lpeversion="1" /><inkscape:path-effect
   effect="spiro"
   id="path-effect1047"
   is_visible="true"
   lpeversion="1" /><inkscape:path-effect
   effect="spiro"
   id="path-effect1085"
   is_visible="true"
   lpeversion="1" /><inkscape:path-effect
   effect="spiro"
   id="path-effect1049"
   is_visible="true"
   lpeversion="1" /></defs>
 
<path
   id="path1102-7-3"
   style="display:inline;opacity:0.950135;fill:#63452c;fill-opacity:1;fill-rule:nonzero;stroke:none;stroke-width:2.40988;stroke-linecap:round;stroke-linejoin:bevel;stroke-miterlimit:4;stroke-dasharray:none;paint-order:stroke fill markers"
   d="m 256.17427,382.77613 c 0.54658,7.57385 0.0128,15.29573 -2.33045,22.51869 -2.34322,7.22297 -6.57343,13.93626 -12.57509,18.58835 -5.6942,4.41377 -12.84652,6.83796 -20.0465,7.094 -7.19997,0.25604 -14.42365,-1.61603 -20.74368,-5.07471 -12.64006,-6.91736 -21.25812,-19.91541 -24.96521,-33.83943 -3.21205,-12.0646 -2.95524,-25.29199 2.22845,-36.64985 2.59185,-5.67893 6.38922,-10.82893 11.18512,-14.82484 4.7959,-3.99591 10.59623,-6.81711 16.74061,-7.91918 6.58728,-1.18151 13.48218,-0.36853 19.71938,2.05749 6.2372,2.42602 11.81751,6.43462 16.31854,11.38729 9.00208,9.90532 13.5054,23.31211 14.46883,36.66219 z m 487.18037,243.20796 c 11.31687,22.12651 16.42028,47.11872 16.84544,71.96773 0.78282,45.75349 -14.19666,91.24235 -39.84571,129.13853 -25.64905,37.89619 -61.64666,68.31654 -102.0882,89.7286 -30.42776,16.1102 -64.72853,27.43522 -98.95115,23.66705 -11.8432,-1.30403 -23.80443,-4.56071 -33.27518,-11.79028 -4.73538,-3.61478 -8.77408,-8.19953 -11.45696,-13.51861 -2.68289,-5.31908 -3.97438,-11.38325 -3.35106,-17.30794 0.55012,-5.22894 2.57482,-10.25847 5.56174,-14.58545 2.98692,-4.32698 6.9165,-7.96453 11.30198,-10.86488 8.77096,-5.8007 19.1785,-8.61079 29.54084,-10.39961 31.00501,-5.35232 62.96212,-2.2913 93.68574,4.49232 43.67193,9.64254 85.67182,26.81112 123.59296,50.52195 l 61.53335,-79.5999 C 725.5029,819.27968 652.89912,807.61163 579.83791,802.62242 c -32.21164,-2.19967 -64.84843,-3.07825 -96.51533,3.21741 -31.66691,6.29566 -62.59085,20.32104 -84.4095,44.11967 -12.56584,13.70615 -21.89401,30.55973 -25.69428,48.76184 -3.80026,18.20211 -1.89385,37.73304 6.39783,54.37657 6.13479,12.3141 15.6043,22.8387 26.74617,30.90911 11.14186,8.07041 23.92466,13.73662 37.19214,17.37618 26.53495,7.2792 54.58011,6.5049 82.00125,4.2308 65.67916,-5.447 132.43825,-19.94887 187.16969,-56.66251 C 771.8067,909.3203 812.822,845.47003 830.18407,776.47921 c 12.83551,-51.00384 13.22652,-105.69979 -3.20691,-155.66062 -16.43344,-49.96082 -50.3635,-94.76038 -96.28005,-120.40823 -30.4712,-17.02045 -65.44173,-25.35711 -100.33739,-26.05199 -34.89566,-0.69487 -69.72434,6.09295 -102.59822,17.81889 -41.62375,14.84698 -81.14963,38.32189 -108.71112,72.86654 -13.78075,17.27233 -24.40171,37.17584 -30.16752,58.50652 -5.76581,21.33067 -6.59659,44.09334 -1.48438,65.59003 6.2807,26.41017 21.48936,50.41495 41.84036,68.38106 20.35101,17.9661 45.68135,29.97652 72.22307,35.67579 34.13176,7.32907 70.69875,4.17234 102.39689,-10.45366 23.95002,-11.0509 44.94693,-28.5731 59.70096,-50.43732 14.75403,-21.86423 23.16562,-48.03546 23.42509,-74.4108 0.36739,-37.34502 -15.83668,-74.16847 -42.1598,-100.66146 -26.32312,-26.49299 -62.21873,-42.76475 -99.29347,-47.26461 -35.75622,-4.33983 -72.31253,1.91987 -105.9919,14.68866 -33.67936,12.76878 -64.65753,31.88298 -93.47265,53.49386 -36.78079,27.585 -70.46571,59.4469 -109.53033,83.68972 -16.02056,9.94208 -33.63977,18.75371 -52.4906,19.14085 -9.42541,0.19356 -18.99447,-1.81851 -27.16076,-6.52888 -8.16629,-4.71036 -14.83879,-12.22218 -17.80158,-21.17191 -1.98,-5.98101 -2.28278,-12.46575 -1.19471,-18.6713 1.08806,-6.20556 3.54107,-12.13529 6.87358,-17.48199 6.66501,-10.69341 16.66845,-18.91008 27.24762,-25.75496 16.23496,-10.50426 34.13639,-18.19452 52.35623,-24.67147 55.28849,-19.65444 113.78004,-28.42571 170.38074,-43.90068 78.94866,-21.58503 155.65367,-57.30948 214.26699,-114.43463 38.78313,-37.79844 69.45503,-85.91203 77.81424,-139.41882 5.81137,-37.19821 0.24676,-76.74583 -19.17972,-108.99627 -9.71324,-16.12522 -22.78715,-30.28035 -38.39309,-40.80766 -15.60593,-10.52732 -33.75,-17.3758 -52.47968,-19.264913 -31.71291,-3.19862 -63.78035,7.973723 -89.75239,26.450543 -25.97205,18.47681 -46.36223,43.83329 -63.3712,70.78945 -34.2348,54.25601 -55.96008,116.35279 -63.01621,180.11758 l 49.85336,-10.46319 c -5.19183,-60.91178 -27.78466,-120.24297 -64.42249,-169.18037 -19.8583,-26.52487 -43.85715,-50.10514 -71.6003,-68.22249 -18.08651,-11.81119 -37.81687,-21.30665 -58.73798,-26.6856 -21.0466,-5.411216 -43.58533,-6.534679 -64.38247,-0.23233 -17.04878,5.16645 -32.45753,15.21397 -44.8049,28.05512 -12.347381,12.84116 -21.691393,28.41516 -28.171397,45.00921 -12.960009,33.1881 -14.456177,69.76449 -12.214109,105.32268 3.531391,56.00627 16.895898,113.4031 51.477386,157.59919 16.13504,20.62102 36.90588,38.04174 61.22482,47.74511 24.31894,9.70336 52.31725,11.23306 76.67724,1.63321 16.16544,-6.37052 30.34971,-17.4444 41.00126,-31.17209 10.65156,-13.72769 17.80918,-30.04815 21.37396,-47.05395 6.83745,-32.61811 0.0737,-67.9431 -18.65838,-95.50757 -10.11478,-14.884 -23.62991,-27.54412 -39.49844,-36.03129 -15.86852,-8.48718 -34.09782,-12.71412 -52.04235,-11.35907 -21.08357,1.59209 -41.48562,11.01722 -56.36509,26.03897 2.34908,-18.05372 11.77581,-35.09129 25.82337,-46.67234 14.26051,-11.75661 33.07082,-17.75095 51.52467,-16.7335 15.87491,0.87526 31.28747,6.7758 44.35243,15.8359 24.50989,16.99676 40.16057,44.07642 51.30548,71.74256 7.83777,19.45648 13.8557,39.66922 17.51076,60.32414 1.70967,9.66142 2.90137,19.4144 3.57041,29.20308 0.78349,11.46315 9.65668,18.47432 20.78719,15.61205 l 52.18535,-13.41977 c 11.13051,-2.86227 15.35256,-13.34662 12.2874,-24.3949 -3.4407,-12.4019 -4.20224,-25.55329 -2.07624,-38.24978 3.21612,-19.2067 12.681,-36.78261 23.18171,-53.18309 13.40321,-20.93375 29.46158,-41.24999 51.52569,-52.69739 11.03206,-5.72369 23.439,-9.0459 35.85909,-8.58962 12.4201,0.45627 24.82199,4.83621 34.15477,13.0439 8.66821,7.62323 14.40704,18.25378 17.16223,29.46362 2.75518,11.20984 2.64975,22.98778 0.86377,34.39224 -5.72342,36.5472 -28.43015,68.84066 -56.90828,92.45107 -28.47813,23.61042 -62.51802,39.45984 -96.82906,53.28765 -37.66525,15.1796 -76.26004,28.26903 -115.90014,37.08684 -69.26929,15.40872 -142.37553,18.01646 -206.89082,47.57048 -35.702686,16.35516 -68.340817,41.44565 -88.155111,75.35091 -9.907147,16.95263 -16.471036,35.94721 -18.3386353,55.49344 -1.8675993,19.54624 1.0366319,39.62992 9.1023903,57.53206 12.705423,28.19999 37.967245,49.90043 66.914669,60.79603 28.947427,10.89559 61.246777,11.439 91.327037,4.23865 46.22669,-11.06534 86.51141,-39.40045 121.70041,-71.35483 34.31355,-31.1594 64.8872,-66.19193 98.25825,-98.3587 21.31441,-20.54522 44.2499,-40.22394 71.45321,-51.90255 13.60166,-5.8393 28.18451,-9.58969 42.97681,-10.12861 14.7923,-0.53893 29.79979,2.20187 43.07479,8.74992 11.91804,5.87871 22.29519,14.7629 30.21456,25.43448 7.91937,10.67157 13.39438,23.10255 16.25499,36.08006 4.60063,20.87132 2.25414,43.4643 -7.8973,62.2719 -10.15145,18.80761 -28.32727,33.44087 -49.22508,37.91963 -18.2298,3.90696 -38.02791,-0.0973 -53.26676,-10.83822 -15.23884,-10.74092 -25.67496,-28.07057 -27.97247,-46.57222 -2.53341,-20.40132 4.64047,-41.24418 16.81141,-57.81223 12.17094,-16.56805 29.0115,-29.21304 46.92742,-39.29529 37.59682,-21.15776 82.40551,-31.85816 124.53142,-22.55336 39.79375,8.78967 75.26937,35.84515 93.82657,72.12781 z"
   sodipodi:nodetypes="aaaaaaaaaaaaccaaaaaaaaaaasaaaaaaaaaaaccaaaaacaacccsssaaccaaaaaaaaaaaaaaaaaa"
   inkscape:path-effect="#path-effect847;#path-effect850"
   inkscape:original-d="m 256.17427,382.77613 c 3.19154,14.22162 -1.40328,35.61802 -14.90554,41.10704 -22.55727,9.17012 -57.97665,-8.74608 -65.75539,-31.82014 -7.093,-21.03994 8.23368,-55.86103 30.15418,-59.39387 23.41295,-3.77337 45.31391,26.96742 50.50675,50.10697 z m 487.18037,243.20796 c 13.35062,20.70688 21.07907,47.69655 16.84544,71.96773 -14.9417,85.66003 -70.91893,168.68976 -141.93391,218.86713 -27.69764,19.57045 -66.05165,31.90025 -98.95115,23.66705 -20.77629,-5.19933 -48.80506,-21.21201 -48.0832,-42.61683 0.65882,-19.53543 27.75977,-29.98152 46.40456,-35.84994 29.82215,-9.38649 63.16112,-2.26892 93.68574,4.49232 43.45357,9.62503 128.72693,48.3981 123.59296,50.52195 l 61.53335,-79.5999 c 0,0 -143.56576,-38.34042 -216.61052,-34.81118 -62.26568,3.00843 -138.43609,1.72159 -180.92483,47.33708 -23.83905,25.59337 -36.68172,72.78923 -19.29645,103.13841 25.69829,44.86111 94.25637,51.18599 145.93956,52.51609 65.16459,1.677 134.6299,-18.07744 187.16969,-56.66251 56.06236,-41.17203 108.7174,-103.46705 117.45819,-172.47228 12.29199,-97.04056 -20.60662,-218.22549 -99.48696,-276.06885 -54.59504,-40.03482 -142.13883,-38.01827 -202.93561,-8.2331 -72.39843,35.46899 -148.89619,116.79598 -140.36302,196.96309 5.44734,51.17642 65.1929,87.92086 114.06343,104.05685 32.57975,10.75713 73.01436,7.26142 102.39689,-10.45366 42.81661,-25.81475 73.19745,-75.84719 83.12605,-124.84812 7.61855,-37.60004 -75.17123,-131.76242 -141.45327,-147.92607 -68.26485,-16.64719 -137.49735,35.05723 -199.46455,68.18252 -40.52155,21.66127 -65.40273,70.88497 -109.53033,83.68972 -31.31753,9.08758 -81.89971,20.10134 -97.45294,-8.55994 -11.14801,-20.5434 16.00363,-45.78602 32.92649,-61.90825 13.96838,-13.30754 34.20866,-18.12372 52.35623,-24.67147 55.16749,-19.90484 115.7299,-22.61835 170.38074,-43.90068 C 470.19823,493.41884 555.25281,459.67756 609.01421,408.36662 647.51463,371.62107 688.6367,322.13848 686.82845,268.9478 684.54377,201.7426 642.48626,114.15884 576.77596,99.878957 517.69159,87.03899 461.23626,149.75568 423.65237,197.11895 c -39.53832,49.82623 -59.52551,143.3668 -63.01621,180.11758 l 49.85336,-10.46319 C 397.91799,337.1774 379.47401,247.84569 346.06703,197.59297 327.81658,170.13958 301.789,147.81665 274.46673,129.37048 256.64326,117.33726 236.73874,107.27345 215.72875,102.68488 194.762,98.105758 169.51972,91.037727 151.34628,102.45255 95.545374,137.5012 70.430268,215.08336 66.155874,280.83956 c -3.584826,55.14805 22.100631,110.78931 51.477386,157.59919 29.272,45.11132 90.93673,62.72632 137.90206,49.37832 32.07951,-9.1173 54.44451,-45.83277 62.37522,-78.22604 7.71376,-31.50716 -1.13852,-74.67359 -18.65838,-95.50757 -22.68073,-25.81089 -55.83501,-46.39759 -91.54079,-47.39036 -26.17816,-0.72805 -35.86958,10.10806 -56.36509,26.03897 2.19147,-17.98509 11.62329,-35.03195 25.82337,-46.67234 14.19999,-11.64046 33.01929,-17.75222 51.52467,-16.7335 15.92082,0.87646 31.31585,6.86243 44.35243,15.8359 24.78133,17.05798 38.47351,45.29069 51.30548,71.74256 9.13867,18.83847 13.69631,39.73644 17.51076,60.32414 3.04687,16.44484 4.40058,42.07088 4.20404,49.99773 l 92.49247,-23.78497 c -5.44012,-32.31027 -12.26679,-38.16292 -9.9424,-57.46208 2.31243,-19.19985 9.28219,-39.73746 23.18171,-53.18309 31.32868,-30.30564 82.46115,-67.55104 121.53955,-48.24311 19.82888,9.79709 23.89301,42.53109 18.026,63.85586 -18.73133,68.08261 -92.96277,109.78658 -153.73734,145.73872 -34.91179,20.65262 -76.78342,26.35155 -115.90014,37.08684 -68.23989,18.72793 -150.98071,4.19447 -206.89082,47.57048 -55.850518,43.32978 -121.752801,122.01927 -97.391356,188.37641 19.65391,53.53448 101.353876,69.03358 158.241706,65.03468 46.90965,-3.29749 84.49607,-42.59329 121.70041,-71.35483 36.6645,-28.34421 58.89702,-73.89703 98.25825,-98.3587 47.07431,-29.25508 104.53664,-69.59759 157.50481,-53.28124 24.55915,7.56521 44.81581,35.86987 46.46955,61.51454 2.47398,38.36408 -19.59446,91.85016 -57.12238,100.19153 -32.36921,7.19473 -75.06223,-24.83169 -81.23923,-57.41044 -7.21272,-38.04135 31.44883,-75.74111 63.73883,-97.10752 35.18104,-23.27941 83.53594,-32.50357 124.53142,-22.55336 38.33574,9.30464 72.45012,38.97283 93.82657,72.12781 z" /></svg>
