<svg xmlns="http://www.w3.org/2000/svg" xmlns:dc="http://purl.org/dc/elements/1.1/" xmlns:ns1="http://sodipodi.sourceforge.net/DTD/sodipodi-0.dtd" xmlns:ns2="http://www.inkscape.org/namespaces/inkscape" xmlns:ns4="http://creativecommons.org/ns#" xmlns:rdf="http://www.w3.org/1999/02/22-rdf-syntax-ns#" xml:space="preserve" width="1000" height="1000" version="1.1" style="clip-rule:evenodd;fill-rule:evenodd;image-rendering:optimizeQuality;shape-rendering:geometricPrecision;text-rendering:geometricPrecision" viewBox="0 0 1000 1000" id="svg10" ns1:docname="ഝ.svg" ns2:version="1.1.1 (3bf5ae0d25, 2021-09-20)"><metadata id="metadata14"><rdf:RDF><ns4:Work rdf:about=""><dc:format>image/svg+xml</dc:format><dc:type rdf:resource="http://purl.org/dc/dcmitype/StillImage" /></ns4:Work></rdf:RDF></metadata><ns1:namedview pagecolor="#ffffff" bordercolor="#666666" borderopacity="1" objecttolerance="10" gridtolerance="10" guidetolerance="10" ns2:pageopacity="0" ns2:pageshadow="2" ns2:window-width="1920" ns2:window-height="1009" id="namedview12" showgrid="false" ns2:zoom="0.84890884" ns2:cx="644.94558" ns2:cy="521.84637" ns2:window-x="0" ns2:window-y="0" ns2:window-maximized="1" ns2:current-layer="svg10" showguides="true" ns2:guide-bbox="true" ns2:document-rotation="0" ns2:pagecheckerboard="0"><ns1:guide position="0,1000" orientation="0,1" id="guide16" ns2:label="" ns2:locked="true" ns2:color="rgb(0,0,255)" /><ns1:guide position="1763.3122,2036.1693" orientation="1000,0" id="guide18" /><ns1:guide position="0,200" orientation="0,1" id="guide20" ns2:label="base" ns2:locked="true" ns2:color="rgb(0,0,255)" /><ns2:grid type="xygrid" id="grid24" originx="-473.37552" originy="-489.69235" /><ns1:guide position="0,0" orientation="0,1" id="guide34" ns2:label="bottom" ns2:locked="true" ns2:color="rgb(0,0,255)" /><ns1:guide position="225.05109,1693.3186" orientation="0,1" id="guide44" ns2:label="" ns2:locked="false" ns2:color="rgb(0,0,255)" /><ns1:guide position="0,900" orientation="0,1" id="guide46" ns2:label="" ns2:locked="true" ns2:color="rgb(0,0,255)" /><ns1:guide position="1127.136,603.40431" orientation="-1,0" id="guide841" ns2:label="width" ns2:locked="false" ns2:color="rgb(0,0,255)" /></ns1:namedview>
 <defs id="defs4"><ns2:path-effect effect="fillet_chamfer" id="path-effect849" is_visible="true" lpeversion="1" satellites_param="F,0,0,1,0,0,0,1 @ F,0,0,1,0,0,0,1 @ F,0,0,1,0,0,0,1 @ F,0,0,1,0,0,0,1 @ F,0,0,1,0,0,0,1 @ F,0,0,1,0,0,0,1 @ F,0,0,1,0,0,0,1 @ F,0,0,1,0,0,0,1 @ F,0,0,1,0,0,0,1 @ F,0,0,1,0,0,0,1 @ F,0,0,1,0,0,0,1 @ F,0,1,1,0,19.795271,0,1 @ F,0,1,1,0,19.795271,0,1 @ F,0,0,1,0,0,0,1 @ F,0,0,1,0,0,0,1 @ F,0,0,1,0,0,0,1 @ F,0,0,1,0,0,0,1 @ F,0,0,1,0,0,0,1 @ F,0,0,1,0,0,0,1 @ F,0,0,1,0,0,0,1 @ F,0,0,1,0,0,0,1 @ F,0,0,1,0,0,0,1 @ F,0,1,1,0,19.795271,0,1 @ F,0,1,1,0,19.795271,0,1 @ F,0,0,1,0,0,0,1 @ F,0,0,1,0,0,0,1 @ F,0,0,1,0,0,0,1 @ F,0,0,1,0,0,0,1 @ F,0,0,1,0,0,0,1 @ F,0,0,1,0,0,0,1 @ F,0,0,1,0,0,0,1 @ F,0,0,1,0,0,0,1 @ F,0,0,1,0,0,0,1 @ F,0,0,1,0,0,0,1 @ F,0,0,1,0,0,0,1 @ F,0,0,1,0,0,0,1 @ F,0,0,1,0,0,0,1 @ F,0,0,1,0,0,0,1 @ F,0,0,1,0,0,0,1 @ F,0,0,1,0,0,0,1 @ F,0,0,1,0,0,0,1 @ F,0,0,1,0,0,0,1 @ F,0,0,1,0,0,0,1 @ F,0,0,1,0,0,0,1 @ F,0,0,1,0,0,0,1 @ F,0,0,1,0,0,0,1 @ F,0,0,1,0,0,0,1 @ F,0,0,1,0,0,0,1 @ F,0,0,1,0,0,0,1 @ F,0,0,1,0,0,0,1 @ F,0,0,1,0,0,0,1 @ F,0,0,1,0,0,0,1 @ F,0,0,1,0,0,0,1 @ F,0,0,1,0,0,0,1 @ F,0,0,1,0,0,0,1 @ F,0,0,1,0,0,0,1 @ F,0,0,1,0,0,0,1 @ F,0,0,1,0,0,0,1 @ F,0,0,1,0,0,0,1 @ F,0,0,1,0,0,0,1 @ F,0,0,1,0,0,0,1 @ F,0,0,1,0,0,0,1 @ F,0,0,1,0,0,0,1 @ F,0,0,1,0,0,0,1 @ F,0,0,1,0,0,0,1 @ F,0,1,1,0,19.795271,0,1 @ F,0,1,1,0,19.795271,0,1 @ F,0,0,1,0,0,0,1 @ F,0,0,1,0,0,0,1 @ F,0,0,1,0,0,0,1 @ F,0,0,1,0,0,0,1 @ F,0,0,1,0,0,0,1 @ F,0,0,1,0,0,0,1 @ F,0,0,1,0,0,0,1 @ F,0,0,1,0,0,0,1 @ F,0,0,1,0,0,0,1 @ F,0,0,1,0,0,0,1 @ F,0,0,1,0,0,0,1 @ F,0,0,1,0,0,0,1 @ F,0,0,1,0,0,0,1 @ F,0,0,1,0,0,0,1 @ F,0,0,1,0,0,0,1 @ F,0,0,1,0,0,0,1 @ F,0,0,1,0,0,0,1 @ F,0,0,1,0,0,0,1 @ F,0,0,1,0,0,0,1" unit="px" method="auto" mode="F" radius="0" chamfer_steps="1" flexible="false" use_knot_distance="true" apply_no_radius="true" apply_with_radius="true" only_selected="true" hide_knots="false" /><ns2:path-effect effect="spiro" id="path-effect851" is_visible="true" lpeversion="1" />
  <style type="text/css" id="style2">
   
    .fil0 {fill:#EF7F1A;fill-rule:nonzero}
   
  </style>
 <ns2:path-effect effect="spiro" id="path-effect1214" is_visible="true" lpeversion="1" /><ns2:path-effect effect="spiro" id="path-effect1195" is_visible="true" lpeversion="1" /><ns2:path-effect effect="spiro" id="path-effect992" is_visible="true" lpeversion="1" /><ns2:path-effect effect="spiro" id="path-effect1060" is_visible="true" lpeversion="1" /><ns2:path-effect effect="spiro" id="path-effect1047" is_visible="true" lpeversion="1" /><ns2:path-effect effect="spiro" id="path-effect1085" is_visible="true" lpeversion="1" /><ns2:path-effect effect="spiro" id="path-effect1286" is_visible="true" lpeversion="1" /><ns2:path-effect effect="spiro" id="path-effect1305" is_visible="true" lpeversion="1" /><ns2:path-effect effect="spiro" id="path-effect1078" is_visible="true" lpeversion="1" /></defs>
 
<path style="clip-rule:evenodd;display:inline;fill:#1a5fb4;fill-rule:nonzero;stroke:none;stroke-width:1.92017px;stroke-linecap:butt;stroke-linejoin:miter;stroke-opacity:1;image-rendering:optimizeQuality;shape-rendering:geometricPrecision;text-rendering:geometricPrecision" d="m 566.66285,116.83372 c 28.61207,16.76272 49.70904,44.74537 61.654,75.6801 11.94495,30.93473 15.21941,64.70759 13.45642,97.82151 -4.26494,80.10759 -37.18307,156.34313 -79.92519,224.22926 -10.57813,16.80095 -21.85435,33.34702 -29.32338,51.74219 -7.46903,18.39517 -10.90702,39.17203 -5.19762,58.18706 6.10346,20.32744 22.60916,36.90181 42.4287,44.49411 13.03159,4.99203 27.35804,6.31925 41.19046,4.47352 13.83242,-1.84573 27.17169,-6.80872 39.20747,-13.87148 24.07156,-14.12552 42.56105,-36.25413 57.04179,-60.11369 34.18185,-56.32061 47.93942,-123.70191 44.97626,-189.51703 -1.06432,-23.63977 -4.20756,-47.18517 -9.37303,-70.2781 -2.38621,-10.66792 3.94503,-17.71496 14.72212,-15.87741 l 89.66877,15.28895 c 10.77709,1.83755 15.92029,11.43769 12.11925,21.68677 -10.78892,29.09108 -17.79182,59.58651 -20.74681,90.47342 -3.00549,31.41475 -1.75481,63.66819 8.10265,93.64735 9.85745,29.97916 28.91397,57.60932 55.93529,73.9117 15.40068,9.29147 33.20489,14.74484 51.19035,14.93372 17.98546,0.18888 36.09879,-4.98551 50.86675,-15.25293 11.4903,-7.9886 20.8217,-18.91119 27.5655,-31.17355 6.7437,-12.26235 10.9437,-25.8422 13.0327,-39.67983 4.1781,-27.67525 -0.01,-55.96144 -6.4882,-83.18959 -15.2338,-64.00095 -43.15815,-124.67414 -79.28625,-179.65551 -23.80944,-36.23429 -51.20504,-70.11013 -81.64794,-100.98117 -7.67608,-7.78403 -6.19156,-17.86598 3.57524,-22.77842 l 103.6635,-52.13992 c 9.7668,-4.91244 21.33715,-0.81908 25.65625,9.22408 14.1196,32.83223 26.7552,66.30271 37.8539,100.27531 23.4593,71.80761 40.0005,145.66504 55.905,219.51433 10.8911,50.57029 21.5595,101.88318 18.9954,153.54937 -1.282,25.83309 -5.9246,51.6184 -15.2389,75.74797 -9.3143,24.12957 -23.3944,46.58669 -42.1724,64.37377 -21.2221,20.10226 -48.3648,33.94631 -77.15791,38.98983 -28.7931,5.04351 -59.12636,1.21774 -85.62469,-11.12398 -25.54933,-11.89972 -47.06285,-31.27972 -64.74633,-53.22662 -17.68347,-21.9469 -31.79792,-46.51149 -45.4733,-71.15608 -13.08182,-23.57492 -25.83549,-47.33195 -38.25605,-71.26186 l 54.30595,-7.02348 c -3.66168,19.30633 -9.05106,38.28463 -16.08268,56.63398 -6.56153,17.12263 -14.5415,33.67669 -23.25879,49.80886 -19.48416,36.05726 -43.07182,70.5108 -74.23013,97.13633 -31.15831,26.62553 -70.55427,45.0084 -111.53439,45.63159 -44.30573,0.67376 -88.08543,-20.14592 -116.94896,-53.76657 -28.86353,-33.62065 -42.7784,-79.20263 -39.48757,-123.39111 2.35694,-31.64844 13.04299,-62.17502 26.7983,-90.7752 13.75532,-28.60018 30.60055,-55.58332 46.2041,-83.21859 17.3054,-30.64939 33.26434,-62.58195 40.72803,-96.97898 6.2789,-28.93684 6.07491,-60.37926 -7.30785,-86.79265 -11.34751,-22.39644 -32.27552,-40.00798 -56.61556,-46.16663 -13.40229,-3.39112 -27.54035,-3.3716 -41.15362,-0.96329 -13.61327,2.40831 -26.73428,7.1588 -39.22469,13.08424 -33.3416,15.81724 -62.19426,39.90096 -87.5565,66.70775 -35.70115,37.73458 -65.351,81.6971 -83.32076,130.4368 -11.52053,31.24733 -18.16931,64.26158 -19.94386,97.51769 -1.11366,20.87058 -0.18577,42.44823 8.28768,61.55378 4.23672,9.55278 10.36206,18.34897 18.34294,25.09515 7.98089,6.74617 17.863,11.37543 28.25448,12.4811 9.77458,1.04004 19.77875,-1.05725 28.58908,-5.41641 8.81033,-4.35916 16.44668,-10.92212 22.56084,-18.61896 12.22831,-15.39367 18.22424,-34.85582 21.50229,-54.24012 6.75905,-39.96866 2.91544,-81.44866 -9.17604,-120.13942 -12.41987,-39.74157 -33.66319,-76.92527 -62.96796,-106.50358 -13.89968,-14.02942 -29.78188,-26.45286 -48.01403,-34.04326 -18.23216,-7.5904 -39.01684,-10.06564 -57.91762,-4.3397 -20.58616,6.23652 -37.51429,21.76517 -48.66168,40.16136 -11.147383,18.3962 -16.993402,39.54092 -20.603181,60.74596 -8.440184,49.58044 -5.279518,100.42808 1.09345,150.31638 9.517419,74.50341 27.058661,150.21697 70.010521,211.83252 8.80918,12.63699 18.62391,24.57244 29.31646,35.6613 7.58716,7.86837 5.41682,14.85096 -5.43453,16.18156 L 36.669375,820.15215 C 25.818024,821.48275 18.078285,813.76122 19.17105,802.88348 22.807769,766.6824 24.709523,730.30704 24.866147,693.92407 25.352651,580.91172 9.0406188,468.58923 0.24143881,355.9189 -2.1332092,325.51239 -3.9586598,294.89423 -0.80599897,264.55851 2.3466618,234.22279 10.704065,203.96523 27.319969,178.38972 42.0497,155.71744 63.762595,136.86607 89.700819,129.23681 c 25.164351,-7.40164 52.675561,-3.80299 76.967921,6.09197 24.29235,9.89496 45.71946,25.73459 65.45818,43.00918 82.54508,72.24039 139.34259,172.72366 161.30237,280.1952 7.94259,38.87117 11.47184,78.95421 6.45052,118.30951 -5.02133,39.35529 -18.90694,78.04358 -43.25387,109.36897 -10.61852,13.66206 -23.2287,25.90517 -37.8987,35.08099 -14.67,9.17583 -31.46006,15.21463 -48.73155,16.26361 -15.86432,0.96351 -31.88913,-2.3057 -46.38976,-8.81236 -14.50064,-6.50666 -27.48954,-16.19978 -38.34876,-27.80506 -21.71843,-23.21055 -34.61983,-53.56956 -41.41643,-84.62156 -18.00789,-82.27363 4.76576,-168.37287 39.22974,-245.21991 34.47231,-76.86562 81.62748,-149.35848 146.07663,-203.60763 33.06566,-27.83254 70.91576,-50.81576 112.61467,-62.18191 20.71521,-5.646485 42.32655,-8.379818 63.74081,-6.820172 21.41425,1.559642 42.63451,7.492552 61.16026,18.346082 z" id="path1087-2" ns2:path-effect="#path-effect1078;#path-effect849" ns2:original-d="m 566.66285,116.83372 c 51.02864,36.9821 73.0265,110.51545 75.11042,173.50161 2.62386,79.3059 -54.71306,148.9919 -79.92519,224.22926 -12.2034,36.41708 -43.22772,72.52177 -34.521,109.92925 4.64579,19.96015 22.23201,41.01776 42.4287,44.49411 50.59531,8.70871 105.64812,-29.2001 137.43972,-69.51165 40.20565,-50.98052 42.50904,-124.63698 44.97626,-189.51703 1.14757,-30.17713 -14.16456,-89.48268 -14.16456,-89.48268 l 128.69607,21.94329 c 0,0 -12.08251,23.27525 -28.14121,108.83302 -16.0588,85.55802 14.73281,133.73281 64.03794,167.55905 28.0521,19.24541 75.56206,21.01899 102.0571,-0.31921 40.9596,-32.98745 39.3002,-101.70827 34.11,-154.04297 -6.46,-65.13817 -44.77872,-124.03229 -79.28625,-179.65551 C 933.20237,242.43559 863.7238,169.92942 863.7238,169.92942 L 1002.756,100 c 0,0 32.943,78.08494 45.8258,118.39414 22.9865,71.92317 51.4037,144.14151 55.905,219.51433 5.8854,98.54878 30.0017,222.49855 -38.4159,293.67111 -38.1507,39.68687 -110.8486,46.12454 -162.7826,27.86585 -52.26118,-18.37372 -78.53487,-78.94152 -110.21963,-124.3827 -15.42023,-22.11517 -38.25605,-71.26186 -38.25605,-71.26186 l 54.30595,-7.02348 c 0,0 -9.22867,38.24538 -16.08268,56.63398 -6.39979,17.16999 -11.79105,35.51701 -23.25879,49.80886 -48.87529,60.91158 -108.02856,150.26026 -185.76452,142.76792 -78.41706,-7.55799 -143.51065,-99.44487 -156.43653,-177.15768 -10.38408,-62.43106 48.65844,-115.99998 73.0024,-173.99379 13.57054,-32.32862 35.25291,-62.34774 40.72803,-96.97898 4.53378,-28.67708 6.23684,-61.11247 -7.30785,-86.79265 -11.36024,-21.53855 -33.12886,-39.73706 -56.61556,-46.16663 -26.13412,-7.15431 -55.4254,1.56024 -80.37831,12.12095 -33.78941,14.30055 -62.70555,39.71405 -87.5565,66.70775 -34.94381,37.95681 -63.94035,82.62269 -83.32076,130.4368 -12.46338,30.74886 -24.96634,64.7213 -19.94386,97.51769 5.71749,37.33472 17.39243,94.56159 54.8851,99.13003 35.33732,4.30582 60.91607,-44.66702 72.65221,-78.27549 13.24093,-37.91772 2.88802,-81.83101 -9.17604,-120.13942 -12.38808,-39.33728 -31.21919,-80.18055 -62.96796,-106.50358 -28.91215,-23.97118 -70.17413,-49.86901 -105.93165,-38.38296 -38.84272,12.47708 -57.319901,61.89768 -69.264861,100.90732 -14.6706,47.911 -7.049506,100.87569 1.09345,150.31638 12.085586,73.37873 33.020881,147.3169 70.010521,211.83252 C 168.40506,769.61372 201.01445,800 201.01445,800 L 17.021266,822.56142 c 0,0 8.09867,-85.67932 7.844881,-128.63735 C 24.198768,580.95905 -4.1992115,468.79858 0.24143881,355.9189 2.594524,296.10435 -2.8075517,230.1164 27.319969,178.38972 c 13.323673,-22.87574 36.279143,-44.73468 62.38085,-49.15291 49.513111,-8.38107 103.703151,17.12735 142.426101,49.10115 83.10145,68.61742 141.89802,174.18731 161.30237,280.1952 13.84224,75.6215 6.47922,164.14236 -36.80335,227.67848 -18.8987,27.74211 -53.28532,55.20479 -86.63025,51.3446 -57.93589,-6.70698 -107.62504,-65.93804 -126.15495,-121.23898 -26.30007,-78.49029 7.72087,-168.67182 39.22974,-245.21991 31.79437,-77.24169 83.63708,-148.12372 146.07663,-203.60763 32.05387,-28.48313 70.6429,-53.4007 112.61467,-62.18191 40.92451,-8.5621 91.04648,-13.009606 124.90107,11.52591 z" ns1:nodetypes="aaaaaaaccsaaaaccaaaaaccaaasaaaaaaaaaaaaaaaaccaaaaaaaaaaaaa" /><text text-anchor="middle" x="1016.7791" y="762.99493" id="bottom" ns2:label="bottom" style="clip-rule:evenodd;fill-rule:evenodd;image-rendering:optimizeQuality;shape-rendering:geometricPrecision;text-rendering:geometricPrecision">✛</text></svg>