<?xml version="1.0" encoding="UTF-8" standalone="no"?>
<svg
   xmlns:dc="http://purl.org/dc/elements/1.1/"
   xmlns:cc="http://creativecommons.org/ns#"
   xmlns:rdf="http://www.w3.org/1999/02/22-rdf-syntax-ns#"
   xmlns:svg="http://www.w3.org/2000/svg"
   xmlns="http://www.w3.org/2000/svg"
   xmlns:sodipodi="http://sodipodi.sourceforge.net/DTD/sodipodi-0.dtd"
   xmlns:inkscape="http://www.inkscape.org/namespaces/inkscape"
   xml:space="preserve"
   width="1000"
   height="1000"
   version="1.1"
   style="clip-rule:evenodd;fill-rule:evenodd;image-rendering:optimizeQuality;shape-rendering:geometricPrecision;text-rendering:geometricPrecision"
   viewBox="0 0 1000 1000"
   id="svg10"
   sodipodi:docname="ഝ്ര.svg"
   inkscape:version="1.0.2 (e86c870879, 2021-01-15)"><metadata
   id="metadata14"><rdf:RDF><cc:Work
       rdf:about=""><dc:format>image/svg+xml</dc:format><dc:type
         rdf:resource="http://purl.org/dc/dcmitype/StillImage" /><dc:title /></cc:Work></rdf:RDF></metadata><sodipodi:namedview
   pagecolor="#ffffff"
   bordercolor="#666666"
   borderopacity="1"
   objecttolerance="10"
   gridtolerance="10"
   guidetolerance="10"
   inkscape:pageopacity="0"
   inkscape:pageshadow="2"
   inkscape:window-width="1920"
   inkscape:window-height="1007"
   id="namedview12"
   showgrid="false"
   inkscape:zoom="0.6002692"
   inkscape:cx="738.30228"
   inkscape:cy="574.64365"
   inkscape:window-x="1920"
   inkscape:window-y="0"
   inkscape:window-maximized="1"
   inkscape:current-layer="svg10"
   showguides="true"
   inkscape:guide-bbox="true"
   inkscape:document-rotation="0"><sodipodi:guide
     position="0,1000"
     orientation="0,1"
     id="guide16"
     inkscape:label=""
     inkscape:locked="true"
     inkscape:color="rgb(0,0,255)" /><sodipodi:guide
     position="1763.3122,2036.1693"
     orientation="1000,0"
     id="guide18" /><sodipodi:guide
     position="0,200"
     orientation="0,1"
     id="guide20"
     inkscape:label="base"
     inkscape:locked="true"
     inkscape:color="rgb(0,0,255)" /><inkscape:grid
     type="xygrid"
     id="grid24"
     originx="-473.37552"
     originy="-489.69235" /><sodipodi:guide
     position="0,0"
     orientation="0,1"
     id="guide34"
     inkscape:label="bottom"
     inkscape:locked="true"
     inkscape:color="rgb(0,0,255)" /><sodipodi:guide
     position="225.05109,1693.3186"
     orientation="0,1"
     id="guide44"
     inkscape:label=""
     inkscape:locked="false"
     inkscape:color="rgb(0,0,255)" /><sodipodi:guide
     position="0,900"
     orientation="0,1"
     id="guide46"
     inkscape:label=""
     inkscape:locked="true"
     inkscape:color="rgb(0,0,255)" /><sodipodi:guide
     position="1284.1488,644.12319"
     orientation="-1,0"
     id="guide841"
     inkscape:label="width"
     inkscape:locked="false"
     inkscape:color="rgb(0,0,255)" /></sodipodi:namedview>
 <defs
   id="defs4"><inkscape:path-effect
   effect="fillet_chamfer"
   id="path-effect849"
   is_visible="true"
   lpeversion="1"
   satellites_param="F,0,1,1,0,29.325775,0,1 @ F,0,0,1,0,0,0,1 @ F,0,0,1,0,0,0,1 @ F,0,0,1,0,0,0,1 @ F,0,0,1,0,0,0,1 @ F,0,0,1,0,0,0,1 @ F,0,0,1,0,0,0,1 @ F,0,0,1,0,0,0,1 @ F,0,0,1,0,0,0,1 @ F,0,0,1,0,0,0,1 @ F,0,0,1,0,0,0,1 @ F,0,0,1,0,0,0,1 @ F,0,0,1,0,0,0,1 @ F,0,0,1,0,0,0,1 @ F,0,0,1,0,0,0,1 @ F,0,0,1,0,0,0,1 @ F,0,0,1,0,0,0,1 @ F,0,0,1,0,0,0,1 @ F,0,0,1,0,0,0,1 @ F,0,0,1,0,0,0,1 @ F,0,0,1,0,0,0,1 @ F,0,0,1,0,0,0,1 @ F,0,0,1,0,0,0,1 @ F,0,0,1,0,0,0,1 @ F,0,0,1,0,0,0,1 @ F,0,0,1,0,0,0,1 @ F,0,0,1,0,0,0,1 @ F,0,0,1,0,0,0,1 @ F,0,0,1,0,0,0,1 @ F,0,0,1,0,0,0,1 @ F,0,0,1,0,0,0,1 @ F,0,0,1,0,0,0,1 @ F,0,0,1,0,0,0,1 @ F,0,0,1,0,0,0,1 @ F,0,0,1,0,0,0,1 @ F,0,0,1,0,0,0,1 @ F,0,0,1,0,0,0,1 @ F,0,0,1,0,0,0,1 @ F,0,0,1,0,0,0,1 @ F,0,0,1,0,0,0,1 @ F,0,1,1,0,29.325775,0,1 @ F,0,0,1,0,29.325775,0,1 @ F,0,0,1,0,0,0,1 @ F,0,0,1,0,0,0,1 @ F,0,0,1,0,0,0,1 @ F,0,0,1,0,0,0,1 @ F,0,0,1,0,0,0,1 @ F,0,0,1,0,0,0,1 @ F,0,0,1,0,0,0,1 @ F,0,0,1,0,0,0,1 @ F,0,0,1,0,0,0,1 @ F,0,0,1,0,0,0,1 @ F,0,0,1,0,0,0,1 @ F,0,0,1,0,0,0,1 @ F,0,0,1,0,0,0,1 @ F,0,0,1,0,0,0,1 @ F,0,0,1,0,0,0,1 @ F,0,0,1,0,0,0,1 @ F,0,0,1,0,0,0,1 @ F,0,0,1,0,0,0,1 @ F,0,0,1,0,0,0,1 @ F,0,0,1,0,0,0,1 @ F,0,0,1,0,0,0,1 @ F,0,0,1,0,0,0,1 @ F,0,0,1,0,0,0,1 @ F,0,0,1,0,0,0,1 @ F,0,0,1,0,0,0,1 @ F,0,0,1,0,0,0,1 @ F,0,0,1,0,0,0,1 @ F,0,0,1,0,0,0,1 @ F,0,0,1,0,0,0,1 @ F,0,0,1,0,0,0,1 @ F,0,0,1,0,0,0,1 @ F,0,0,1,0,0,0,1 @ F,0,1,1,0,29.325775,0,1 @ F,0,1,1,0,29.325775,0,1 @ F,0,0,1,0,0,0,1 @ F,0,0,1,0,0,0,1 @ F,0,0,1,0,0,0,1 @ F,0,0,1,0,0,0,1 @ F,0,0,1,0,0,0,1 @ F,0,0,1,0,0,0,1 @ F,0,0,1,0,0,0,1 @ F,0,0,1,0,0,0,1 @ F,0,1,1,0,29.325775,0,1 @ F,0,1,1,0,29.325775,0,1 @ F,0,0,1,0,0,0,1 @ F,0,0,1,0,0,0,1 @ F,0,0,1,0,0,0,1 @ F,0,0,1,0,0,0,1 @ F,0,0,1,0,0,0,1 @ F,0,0,1,0,0,0,1 @ F,0,0,1,0,0,0,1 @ F,0,0,1,0,0,0,1 @ F,0,0,1,0,0,0,1 @ F,0,0,1,0,0,0,1 @ F,0,1,1,0,29.325775,0,1"
   unit="px"
   method="auto"
   mode="F"
   radius="0"
   chamfer_steps="1"
   flexible="false"
   use_knot_distance="true"
   apply_no_radius="true"
   apply_with_radius="true"
   only_selected="true"
   hide_knots="false" /><inkscape:path-effect
   effect="spiro"
   id="path-effect851"
   is_visible="true"
   lpeversion="1" />
  <style
   type="text/css"
   id="style2">
   <![CDATA[
    .fil0 {fill:#EF7F1A;fill-rule:nonzero}
   ]]>
  </style>
 <inkscape:path-effect
   effect="spiro"
   id="path-effect1214"
   is_visible="true"
   lpeversion="1" /><inkscape:path-effect
   effect="spiro"
   id="path-effect1195"
   is_visible="true"
   lpeversion="1" /><inkscape:path-effect
   effect="spiro"
   id="path-effect992"
   is_visible="true"
   lpeversion="1" /><inkscape:path-effect
   effect="spiro"
   id="path-effect1060"
   is_visible="true"
   lpeversion="1" /><inkscape:path-effect
   effect="spiro"
   id="path-effect1047"
   is_visible="true"
   lpeversion="1" /><inkscape:path-effect
   effect="spiro"
   id="path-effect1085"
   is_visible="true"
   lpeversion="1" /><inkscape:path-effect
   effect="spiro"
   id="path-effect1286"
   is_visible="true"
   lpeversion="1" /><inkscape:path-effect
   effect="spiro"
   id="path-effect1305"
   is_visible="true"
   lpeversion="1" /><inkscape:path-effect
   effect="spiro"
   id="path-effect1078"
   is_visible="true"
   lpeversion="1" /></defs>
 
<path
   style="clip-rule:evenodd;display:inline;fill:#1a1a1a;fill-rule:nonzero;stroke:none;stroke-width:1.92017px;stroke-linecap:butt;stroke-linejoin:miter;stroke-opacity:1;image-rendering:optimizeQuality;shape-rendering:geometricPrecision;text-rendering:geometricPrecision"
   d="M 165.51802,125.58944 C 99.187594,250.51149 72.650121,396.33565 91.276175,536.5862 c 8.233963,62.00013 25.139235,123.12031 53.098055,179.06778 27.95882,55.94747 67.17183,106.64982 116.48347,145.12289 64.61342,50.41156 144.47224,78.38335 225.3112,91.8475 80.83895,13.46415 163.2713,13.18026 245.21668,12.0968 67.52392,-0.89279 135.57531,-2.36526 201.4942,-17.02736 65.91889,-14.66211 130.30762,-43.54035 177.10942,-92.22161 24.8144,-25.81086 44.23,-56.78846 56.6422,-90.37256 -34.0013,8.31293 -70.4516,6.31862 -103.3431,-5.65421 -32.1402,-11.69936 -60.7666,-32.87178 -81.36401,-60.17771 -20.5974,-27.30593 -33.09167,-60.64714 -35.51209,-94.7647 -3.49724,20.07685 -9.08199,39.78943 -16.6351,58.71721 -15.36811,38.51182 -39.26509,74.03855 -71.43511,100.20014 -32.17002,26.1616 -72.86451,42.52801 -114.32941,42.56778 -44.69045,0.0429 -89.17338,-19.49942 -118.90863,-52.86186 -29.73526,-33.36244 -44.06318,-80.08578 -37.5279,-124.29582 4.56327,-30.86972 18.59183,-59.56134 34.83571,-86.20527 16.24387,-26.64394 34.88068,-51.82255 50.01928,-79.10965 17.95323,-32.36042 31.02484,-68.71336 28.87544,-105.65785 -1.27471,-21.9101 -8.02651,-43.59879 -20.20774,-61.85516 -12.18123,-18.25638 -29.85976,-32.9568 -50.37935,-40.74294 -29.28625,-11.11265 -62.74901,-7.61888 -91.56825,4.65413 -28.81924,12.27301 -53.48487,32.69038 -75.27004,55.19775 -33.19392,34.29434 -60.85374,74.41688 -77.7536,119.05244 -11.79581,31.15484 -18.25693,64.24729 -19.94386,97.51769 -1.0579,20.86438 -0.12164,42.42599 8.33974,61.52695 4.23069,9.55047 10.34526,18.34772 18.31592,25.09895 7.97066,6.75122 17.84349,11.38949 28.22944,12.50413 9.77517,1.04908 19.78289,-1.04339 28.59575,-5.4009 8.81286,-4.35752 16.45078,-10.92176 22.56483,-18.62065 12.2281,-15.39777 18.2172,-34.8659 21.49163,-54.25394 6.75046,-39.96983 2.9169,-81.44942 -9.17604,-120.13942 -12.42125,-39.7404 -33.67493,-76.91464 -62.96796,-106.50358 -13.89682,-14.0372 -29.77379,-26.47409 -48.00737,-34.07022 -18.23358,-7.59613 -39.02843,-10.067 -57.92428,-4.31274 -20.56566,6.26276 -37.44705,21.82195 -48.57247,40.21743 -11.12541,18.39549 -16.98048,39.51466 -20.69239,60.68989 -8.68893,49.56753 -6.24909,100.53159 1.09345,150.31638 9.62276,65.24543 27.93679,129.95419 61.38502,186.79413 10.94973,18.60732 23.47556,36.28613 37.39095,52.79328 10.43642,12.38022 6.78711,19.52408 -9.18949,16.86621 L 219.19354,775.57922 c -15.9766,-2.65787 -26.71181,-17.76265 -24.82494,-33.84703 2.89583,-24.68515 4.31051,-49.54411 4.22967,-74.39844 -0.34049,-104.68357 -27.04595,-207.34358 -38.35683,-311.41485 -3.28788,-30.25174 -5.27196,-60.8326 -2.00009,-91.08607 3.29998,-30.5134 12.16215,-60.8347 29.07862,-86.44311 14.88971,-22.54027 36.51614,-41.35652 62.38085,-49.15291 27.77158,-8.37118 58.01575,-3.51478 85.27409,6.40087 63.02121,22.92497 114.35224,71.97328 148.93127,129.43212 34.57903,57.45884 53.59303,123.05088 65.40506,189.06379 7.08835,39.61405 11.71979,80.02019 7.99958,120.0911 -3.72021,40.07091 -16.23063,80.02592 -40.68488,111.98695 -10.51111,13.73773 -23.19299,25.92162 -37.89915,35.02861 -14.70617,9.10698 -31.4779,15.0767 -48.7311,16.31599 -16.00275,1.14947 -32.22513,-1.79202 -47.00797,-8.02713 -14.78285,-6.23511 -28.12868,-15.72244 -39.2458,-27.29044 -22.23425,-23.136 -35.18819,-54.18146 -39.90118,-85.92141 -5.55106,-37.38399 -0.25725,-75.46324 5.98385,-112.73824 7.53276,-44.98944 16.53478,-90.03723 33.24589,-132.48167 29.47211,-74.85605 82.76033,-139.60697 148.63367,-185.78853 31.47757,-22.06785 66.13395,-40.17833 103.39395,-49.63983 20.76493,-5.27288 42.31909,-7.82503 63.68703,-6.27701 21.36795,1.54803 42.55721,7.27162 61.21404,17.80292 29.05118,16.39864 50.94956,44.06904 63.21329,75.09303 12.26373,31.02399 15.29496,65.22212 11.89713,98.40858 -7.08292,69.17856 -40.78545,132.37706 -73.26151,193.86808 -9.08563,17.20298 -18.15445,34.49581 -24.78922,52.78436 -6.63477,18.28855 -10.80035,37.71941 -9.73178,57.14489 0.81245,14.76938 4.72458,29.4854 12.31046,42.1838 7.58587,12.6984 18.9529,23.29084 32.60004,28.99613 14.16187,5.92048 30.3153,6.38652 45.16953,2.51838 14.85422,-3.86813 28.43948,-11.90519 39.90078,-22.11544 22.9226,-20.42049 37.08139,-48.69982 49.88761,-76.60041 28.57134,-62.24764 53.58838,-128.80888 49.8156,-197.19642 -1.01127,-18.33091 -4.11402,-36.54358 -9.20249,-54.18278 -4.48643,-15.55219 3.32761,-27.74379 19.52307,-27.89586 l 76.80122,-0.72113 c 16.1955,-0.15207 23.1184,11.32975 16.9197,26.2871 -14.9902,36.17132 -23.63063,74.97664 -25.29995,114.09857 -1.38605,32.48331 2.09962,65.59349 14.29515,95.73243 12.1955,30.13894 33.642,57.17343 62.3663,72.40497 19.9188,10.56227 43.199,15.18551 65.4432,11.5095 22.2443,-3.67601 43.2315,-15.94269 56.1543,-34.41755 13.9415,-19.93117 17.8061,-45.58664 15.183,-69.76797 -2.6231,-24.18134 -11.2153,-47.28128 -20.4113,-69.79906 -25.4911,-62.41847 -56.2223,-122.72429 -92.255,-179.71115 -21.3843,-33.8199 -44.6292,-66.46312 -69.592,-97.73494 -10.1039,-12.65748 -6.3037,-27.27153 8.8655,-32.94695 l 119.8987,-44.85881 c 15.1692,-5.67542 29.4961,2.69576 32.1459,18.67367 1.9756,11.91291 4.0113,23.81585 6.107,35.70822 16.2101,91.98566 36.0044,183.30629 52.6195,275.21966 11.0854,61.32336 20.7794,123.20247 20.9957,185.51934 0.2164,62.31688 -9.3632,125.44249 -35.3542,182.08089 -40.4298,88.1028 -119.5812,155.73 -210.0251,190.60941 -85.23221,32.86956 -178.30765,38.04746 -269.6179,40.76316 -100.49851,2.989 -201.87987,3.3737 -300.56557,-15.8621 C 353.32012,1003.7527 256.59349,963.58977 183.60518,894.44073 106.36739,821.26573 60.258861,719.8664 37.994533,615.82527 15.730205,511.78414 15.680622,404.34932 19.15041,298.00922 20.987226,241.71552 23.783098,185.45311 27.536307,129.25465 28.615562,113.09449 42.70657,100 58.902748,100 l 91.608762,0 c 16.19618,0 22.60134,11.28588 15.00651,25.58944 z"
   id="path1087-2"
   inkscape:path-effect="#path-effect1078;#path-effect849"
   inkscape:original-d="m 179.83729,100 c 0,0 -109.415779,289.56529 -88.561115,436.5862 17.127675,120.74641 72.726675,250.08135 169.581525,324.19067 127.56515,97.60755 309.98476,109.04393 470.52788,103.9443 131.28405,-4.17022 273.71502,-30.18399 378.60362,-109.24897 28.3898,-21.4002 68.4198,-93.37294 56.6422,-90.37256 24.9741,-66.38004 -72.8968,10.56976 -103.3431,-5.65421 C 1006.1949,729.022 946.4122,604.50302 946.4122,604.50302 c 0,0 -5.21929,41.87959 -16.6351,58.71721 -43.82557,64.64004 -108.02856,150.26026 -185.76452,142.76792 -78.41706,-7.55799 -146.6483,-98.98768 -156.43653,-177.15768 -7.69589,-61.46033 62.42747,-107.57754 84.85499,-165.31492 13.21995,-34.03343 34.97769,-69.66057 28.87544,-105.65785 -6.93805,-40.92769 -31.0779,-89.8609 -70.58709,-102.5981 -56.23305,-18.12872 -120.46694,23.23897 -166.83829,59.85188 -37.20031,29.37183 -59.72714,75.21622 -77.7536,119.05244 -12.61858,30.6855 -24.96634,64.7213 -19.94386,97.51769 5.71749,37.33472 17.39243,94.56159 54.8851,99.13003 35.33732,4.30582 60.91607,-44.66702 72.65221,-78.27549 13.24093,-37.91772 2.88802,-81.83101 -9.17604,-120.13942 -12.38808,-39.33728 -31.21919,-80.18055 -62.96796,-106.50358 -28.91215,-23.97118 -70.17413,-49.86901 -105.93165,-38.38296 -38.84272,12.47708 -57.3199,61.89768 -69.26486,100.90732 -14.6706,47.911 -7.00768,100.86882 1.09345,150.31638 10.59644,64.67836 30.77493,128.84073 61.38502,186.79413 14.61227,27.66508 33.51222,55.46119 57.12966,74.47198 L 190.26534,770.76673 c 23.3813,-31.87411 9.06206,-68.8513 8.33293,-103.43298 C 196.39356,562.7676 167.79182,460.2354 160.24144,355.9189 c -2.19238,-30.2901 -6.57663,-61.06354 -2.00009,-91.08607 4.58131,-30.05381 11.56402,-61.5944 29.07862,-86.44311 15.25161,-21.63812 37.06079,-41.42542 62.38085,-49.15291 27.26324,-8.32054 60.63242,-7.92756 85.27409,6.40087 110.62463,64.32507 185.63441,193.78936 214.33633,318.49591 17.5223,76.13239 10.63915,167.0691 -32.6853,232.07805 -18.61555,27.9329 -53.28532,55.20479 -86.63025,51.3446 -57.93589,-6.70698 -117.08592,-57.90829 -126.15495,-121.23898 -4.96717,-37.47677 0.38066,-75.52541 5.98385,-112.73824 6.77907,-45.02231 13.02036,-91.69083 33.24589,-132.48167 35.23114,-71.05416 86.5595,-136.42533 148.63367,-185.78853 29.92283,-23.79551 65.76569,-42.87842 103.39395,-49.63983 41.15151,-7.39449 91.04648,-13.0096 124.90107,11.52591 51.02864,36.98211 73.62184,110.49858 75.11042,173.50161 1.63178,69.06368 -50.69332,128.57543 -73.26151,193.86808 -12.54702,36.30012 -39.47295,71.84244 -34.521,109.92925 3.61714,27.82042 17.38401,65.76217 44.9105,71.17993 54.20458,10.66855 103.78787,-50.58625 134.95792,-96.19747 38.25247,-55.97495 49.16547,-129.40244 49.8156,-197.19642 0.26844,-27.99261 -19.0039,-81.80329 -19.0039,-81.80329 l 135.4502,-1.27183 c 0,0 -41.72647,92.28563 -37.70475,140.66102 5.10325,61.38474 21.98025,139.78089 76.66145,168.1374 36.615,18.98774 95.8693,9.32939 121.5975,-22.90805 29.0401,-36.38731 6.5536,-94.52758 -5.2283,-139.56703 -17.041,-65.14387 -56.8743,-122.41956 -92.255,-179.71115 -26.1404,-42.32888 -88.1928,-120.40564 -88.1928,-120.40564 L 1183.1668,100 c 0,0 6.9369,43.14937 10.7866,64.65814 16.4557,91.94053 45.627,182.08021 52.6195,275.21966 9.1805,122.28272 37.4769,256.4677 -14.3585,367.60023 -39.9634,85.67954 -124.6307,150.04031 -210.0251,190.60941 -82.09997,39.00396 -178.83416,45.23836 -269.6179,40.76316 C 557.13983,1029.2169 323.37373,1031.3752 183.60518,894.44073 36.29297,750.11551 41.424785,503.03241 19.15041,298.00922 12.011697,232.30135 29.576973,100 29.576973,100 Z"
   sodipodi:nodetypes="caaaacacaaaaaaaaaaaaaaaaaccaaaaaaaaacaaaaaaaaaaaccaaaaaccaaaaaaacc" /></svg>
