<?xml version="1.0" encoding="UTF-8" standalone="no"?>
<svg
   xmlns:dc="http://purl.org/dc/elements/1.1/"
   xmlns:cc="http://creativecommons.org/ns#"
   xmlns:rdf="http://www.w3.org/1999/02/22-rdf-syntax-ns#"
   xmlns:svg="http://www.w3.org/2000/svg"
   xmlns="http://www.w3.org/2000/svg"
   xmlns:sodipodi="http://sodipodi.sourceforge.net/DTD/sodipodi-0.dtd"
   xmlns:inkscape="http://www.inkscape.org/namespaces/inkscape"
   xml:space="preserve"
   width="1000"
   height="1000"
   version="1.1"
   style="clip-rule:evenodd;fill-rule:evenodd;image-rendering:optimizeQuality;shape-rendering:geometricPrecision;text-rendering:geometricPrecision"
   viewBox="0 0 1000 1000"
   id="svg10"
   sodipodi:docname="ഞ.svg"
   inkscape:version="1.0.2 (e86c870879, 2021-01-15)"><metadata
   id="metadata14"><rdf:RDF><cc:Work
       rdf:about=""><dc:format>image/svg+xml</dc:format><dc:type
         rdf:resource="http://purl.org/dc/dcmitype/StillImage" /><dc:title /></cc:Work></rdf:RDF></metadata><sodipodi:namedview
   pagecolor="#ffffff"
   bordercolor="#666666"
   borderopacity="1"
   objecttolerance="10"
   gridtolerance="10"
   guidetolerance="10"
   inkscape:pageopacity="0"
   inkscape:pageshadow="2"
   inkscape:window-width="1920"
   inkscape:window-height="1007"
   id="namedview12"
   showgrid="false"
   inkscape:zoom="0.84890884"
   inkscape:cx="480.64619"
   inkscape:cy="483.30529"
   inkscape:window-x="1920"
   inkscape:window-y="0"
   inkscape:window-maximized="1"
   inkscape:current-layer="svg10"
   showguides="true"
   inkscape:guide-bbox="true"
   inkscape:document-rotation="0"><sodipodi:guide
     position="0,1000"
     orientation="0,1"
     id="guide16"
     inkscape:label=""
     inkscape:locked="true"
     inkscape:color="rgb(0,0,255)" /><sodipodi:guide
     position="1763.3122,2036.1693"
     orientation="1000,0"
     id="guide18" /><sodipodi:guide
     position="0,200"
     orientation="0,1"
     id="guide20"
     inkscape:label="base"
     inkscape:locked="true"
     inkscape:color="rgb(0,0,255)" /><inkscape:grid
     type="xygrid"
     id="grid24"
     originx="-473.37552"
     originy="-489.69235" /><sodipodi:guide
     position="0,0"
     orientation="0,1"
     id="guide34"
     inkscape:label="bottom"
     inkscape:locked="true"
     inkscape:color="rgb(0,0,255)" /><sodipodi:guide
     position="225.05109,1693.3186"
     orientation="0,1"
     id="guide44"
     inkscape:label=""
     inkscape:locked="false"
     inkscape:color="rgb(0,0,255)" /><sodipodi:guide
     position="0,900"
     orientation="0,1"
     id="guide46"
     inkscape:label=""
     inkscape:locked="true"
     inkscape:color="rgb(0,0,255)" /><sodipodi:guide
     position="1060.4842,951.49303"
     orientation="-1,0"
     id="guide867"
     inkscape:label="width"
     inkscape:locked="false"
     inkscape:color="rgb(0,0,255)" /></sodipodi:namedview>
 <defs
   id="defs4"><inkscape:path-effect
   effect="fillet_chamfer"
   id="path-effect849"
   is_visible="true"
   lpeversion="1"
   satellites_param="F,0,0,1,0,24.653224,0,1 @ F,0,0,1,0,0,0,1 @ F,0,0,1,0,0,0,1 @ F,0,0,1,0,0,0,1 @ F,0,0,1,0,0,0,1 @ F,0,0,1,0,0,0,1 @ F,0,0,1,0,0,0,1 @ F,0,0,1,0,0,0,1 @ F,0,0,1,0,0,0,1 @ F,0,0,1,0,0,0,1 @ F,0,0,1,0,0,0,1 @ F,0,0,1,0,0,0,1 @ F,0,0,1,0,0,0,1 @ F,0,0,1,0,0,0,1 @ F,0,0,1,0,0,0,1 @ F,0,0,1,0,0,0,1 @ F,0,0,1,0,0,0,1 @ F,0,0,1,0,0,0,1 @ F,0,0,1,0,0,0,1 @ F,0,0,1,0,0,0,1 @ F,0,0,1,0,0,0,1 @ F,0,0,1,0,0,0,1 @ F,0,0,1,0,0,0,1 @ F,0,0,1,0,0,0,1 @ F,0,0,1,0,0,0,1 @ F,0,0,1,0,0,0,1 @ F,0,0,1,0,0,0,1 @ F,0,0,1,0,0,0,1 @ F,0,0,1,0,0,0,1 @ F,0,0,1,0,0,0,1 @ F,0,0,1,0,0,0,1 @ F,0,0,1,0,0,0,1 @ F,0,0,1,0,0,0,1 @ F,0,0,1,0,0,0,1 @ F,0,0,1,0,0,0,1 @ F,0,0,1,0,0,0,1 @ F,0,0,1,0,0,0,1 @ F,0,0,1,0,0,0,1 @ F,0,0,1,0,0,0,1 @ F,0,0,1,0,0,0,1 @ F,0,0,1,0,0,0,1 @ F,0,0,1,0,0,0,1 @ F,0,0,1,0,0,0,1 @ F,0,0,1,0,0,0,1 @ F,0,0,1,0,0,0,1 @ F,0,0,1,0,0,0,1 @ F,0,0,1,0,0,0,1 @ F,0,0,1,0,0,0,1 @ F,0,0,1,0,0,0,1 @ F,0,0,1,0,0,0,1 @ F,0,0,1,0,0,0,1 @ F,0,0,1,0,0,0,1 @ F,0,0,1,0,0,0,1 @ F,0,0,1,0,0,0,1 @ F,0,0,1,0,41.590315,0,1 @ F,0,0,1,0,24.572676,0,1 @ F,0,0,1,0,0,0,1 @ F,0,0,1,0,0,0,1 @ F,0,0,1,0,0,0,1 @ F,0,0,1,0,0,0,1 @ F,0,0,1,0,0,0,1 @ F,0,0,1,0,0,0,1 @ F,0,0,1,0,0,0,1 @ F,0,0,1,0,0,0,1 @ F,0,0,1,0,0,0,1 @ F,0,0,1,0,0,0,1 @ F,0,0,1,0,0,0,1 @ F,0,0,1,0,0,0,1 @ F,0,0,1,0,0,0,1 @ F,0,0,1,0,0,0,1 @ F,0,0,1,0,0,0,1 @ F,0,0,1,0,0,0,1 @ F,0,0,1,0,0,0,1 @ F,0,0,1,0,0,0,1 @ F,0,0,1,0,0,0,1 @ F,0,0,1,0,0,0,1 @ F,0,0,1,0,0,0,1 @ F,0,0,1,0,0,0,1 @ F,0,0,1,0,27.628348,0,1"
   unit="px"
   method="auto"
   mode="F"
   radius="0"
   chamfer_steps="1"
   flexible="false"
   use_knot_distance="true"
   apply_no_radius="true"
   apply_with_radius="true"
   only_selected="true"
   hide_knots="false" /><inkscape:path-effect
   effect="spiro"
   id="path-effect865"
   is_visible="true"
   lpeversion="1" /><inkscape:path-effect
   effect="spiro"
   id="path-effect851"
   is_visible="true"
   lpeversion="1" />
  <style
   type="text/css"
   id="style2">
   <![CDATA[
    .fil0 {fill:#EF7F1A;fill-rule:nonzero}
   ]]>
  </style>
 <inkscape:path-effect
   effect="spiro"
   id="path-effect1214"
   is_visible="true"
   lpeversion="1" /><inkscape:path-effect
   effect="spiro"
   id="path-effect1195"
   is_visible="true"
   lpeversion="1" /><inkscape:path-effect
   effect="spiro"
   id="path-effect992"
   is_visible="true"
   lpeversion="1" /><inkscape:path-effect
   effect="spiro"
   id="path-effect1060"
   is_visible="true"
   lpeversion="1" /><inkscape:path-effect
   effect="spiro"
   id="path-effect1047"
   is_visible="true"
   lpeversion="1" /><inkscape:path-effect
   effect="spiro"
   id="path-effect1085"
   is_visible="true"
   lpeversion="1" /><inkscape:path-effect
   effect="spiro"
   id="path-effect1286"
   is_visible="true"
   lpeversion="1" /><inkscape:path-effect
   effect="spiro"
   id="path-effect1305"
   is_visible="true"
   lpeversion="1" /></defs>
 
<path
   id="path1210-6"
   style="display:inline;fill:#1a1a1a;fill-rule:nonzero;stroke:none;stroke-width:2.55537px;stroke-linecap:butt;stroke-linejoin:miter;stroke-opacity:1"
   d="m 387.80691,734.95037 c 11.26969,-37.24008 19.93531,-75.26825 25.90698,-113.71528 6.83169,-43.98404 10.13885,-88.6492 7.28268,-133.0689 -3.25144,-50.56706 -14.64,-100.91662 -36.62144,-146.57202 -16.22112,-33.69122 -38.74505,-65.23471 -69.65134,-86.28286 -15.45314,-10.52408 -32.88187,-18.28591 -51.22783,-21.88887 -18.34597,-3.60296 -37.61173,-2.97558 -55.44743,2.63187 -29.37079,9.23402 -53.18054,31.24229 -71.63887,55.88373 -31.88539,42.56624 -50.453847,94.39868 -56.419596,147.24726 -6.457867,57.20809 1.967886,116.97393 29.913076,167.30818 12.80612,23.0661 29.872,44.21953 51.90296,58.7343 22.03097,14.51478 49.36089,21.93017 75.30147,17.121 22.78625,-4.22438 43.60157,-17.90444 56.82109,-36.9387 13.21952,-19.03426 18.76999,-43.16522 15.55976,-66.11632 -4.24576,-30.35444 -23.62614,-57.71518 -49.63628,-73.92911 -26.01013,-16.21393 -58.04579,-21.64694 -88.40415,-17.42929 -43.68605,6.06925 -84.164447,32.24773 -107.618878,69.60006 L 30.358838,444.9546 c 37.263349,-37.18684 89.480272,-58.94467 142.123812,-59.22037 52.64354,-0.2757 105.08549,20.93402 142.73629,57.72852 38.4318,37.55775 60.87513,90.52991 62.99657,144.2243 2.12143,53.69439 -15.70053,107.6473 -47.88435,150.67972 -18.58582,24.85077 -42.78193,46.75497 -72.35254,56.16626 -19.8374,6.31355 -41.36816,6.69499 -61.69853,2.21625 -20.33038,-4.47873 -39.47412,-13.71466 -56.35134,-25.90246 C 106.17429,746.47123 81.975556,711.01415 62.850578,674.0308 37.374299,624.76548 19.678178,571.43642 11.208471,516.62423 -0.37067728,441.68911 5.4161903,364.41263 25.375578,291.2623 c 8.609257,-31.55257 19.900978,-62.55549 36.23912,-90.88832 16.338142,-28.33283 37.893461,-53.99489 64.749502,-72.66137 43.11565,-29.967826 99.84696,-40.179493 150.20449,-25.30842 47.00576,13.88126 85.79201,47.63199 116.94144,85.47303 36.49985,44.34085 64.65137,95.53022 82.54826,150.10174 11.72191,-23.45608 26.24953,-45.50848 43.17432,-65.53702 16.92347,-20.02698 36.3497,-38.11053 58.55475,-52.05396 22.20505,-13.94343 47.26944,-23.67255 73.32637,-26.59149 47.77689,-5.35205 96.58193,12.94738 132.97156,44.36506 47.29647,40.8343 73.91081,101.29582 86.4692,162.50597 16.11536,78.54697 11.00556,161.84063 -18.00676,236.591 -12.2179,31.47948 -29.0051,61.91418 -53.96734,84.65449 -12.48112,11.37015 -26.92976,20.68735 -42.74552,26.59671 -15.81576,5.90935 -33.01607,8.35118 -49.77016,6.26327 -16.45626,-2.05079 -32.24961,-8.43625 -46.02548,-17.66877 -13.77588,-9.23251 -25.57077,-21.2623 -35.28004,-34.70641 -17.91159,-24.80161 -28.70229,-54.25903 -34.18566,-84.35683 -5.48336,-30.0978 -5.83144,-60.92057 -4.24131,-91.47243 4.13961,-79.53587 21.65958,-159.07214 57.89702,-229.99421 36.23744,-70.92207 91.89671,-132.91852 162.10448,-170.52119 19.91838,-10.66811 41.06296,-19.40103 63.26746,-23.58563 22.20449,-4.184596 45.56755,-3.670886 66.92222,3.71347 29.73098,10.28085 53.76235,33.21448 71.1045,59.46094 21.6916,32.82915 34.112,71.29983 38.7515,110.37353 4.9999,42.10923 1.2025,84.77064 -4.5941,126.77761 -14.5297,105.29375 -41.6021,208.98356 -47.85873,315.09077 -1.59234,27.00471 -1.82628,54.08936 -0.70415,81.11767 0.95272,22.94739 -15.17792,36.61743 -37.34665,30.60459 l -85.43882,-23.17364 c -13.09789,-3.55255 -18.43232,-16.08566 -12.31717,-28.20038 8.24096,-16.32614 15.93794,-32.92688 23.07332,-49.76561 17.42687,-41.12556 31.47486,-83.5925 44.99929,-126.16124 17.2949,-54.43644 33.85017,-109.5214 40.06721,-166.29981 4.13172,-37.73384 3.44127,-77.00527 -10.82697,-112.18098 -7.13412,-17.58786 -17.66018,-33.9216 -31.54299,-46.86363 -13.88281,-12.94202 -31.19082,-22.39873 -49.82907,-25.98258 -17.57261,-3.37894 -35.97221,-1.48853 -52.91135,4.28031 -16.93914,5.76883 -32.45465,15.3246 -46.04741,26.96293 -27.18552,23.27666 -46.42324,54.31505 -64.1466,85.40746 -23.75469,41.67329 -45.91655,85.31863 -53.8066,132.63349 -4.60156,27.59451 -4.10121,56.5599 5.64987,82.78103 5.26971,14.17051 13.34452,27.53776 24.81456,37.38719 11.47003,9.84944 26.54482,15.93134 41.6297,14.92164 14.83198,-0.99277 28.71745,-8.74699 38.93781,-19.54131 10.22036,-10.79432 17.03017,-24.44375 21.61819,-38.58317 13.52665,-41.68658 8.42288,-87.21321 -2.29216,-129.70944 -4.73287,-18.77073 -10.56571,-37.36704 -19.25631,-54.66484 -8.6906,-17.2978 -20.35086,-33.32209 -35.45592,-45.42902 -22.5059,-18.03882 -52.11492,-26.52657 -80.89453,-24.61638 -36.41058,2.41667 -70.90876,21.12863 -95.0469,48.49505 -29.35419,33.28007 -43.34504,77.3703 -51.49057,120.99233 -9.07301,48.58899 -11.82943,98.63684 -4.60915,147.53548 3.82593,25.9107 10.44718,51.40635 19.69133,75.91208 5.38423,14.27332 -1.57296,26.86243 -16.73302,28.59475 l -98.89932,11.30113 c -13.52757,1.54578 -20.94899,-7.65711 -17.00538,-20.68857 z"
   sodipodi:nodetypes="caaasaaaaaaccaaaaaaaaacaaaaaaaaaaaaaaccaaaaaaaaaaasaaacc"
   inkscape:original-d="m 380.31846,758.43782 c 11.33547,-41.06728 26.51429,-90.63892 33.39543,-137.20273 6.49419,-43.94542 11.50016,-88.84687 7.28268,-133.0689 -4.7811,-50.13178 -6.62219,-106.12329 -36.62144,-146.57202 -40.80553,-55.0191 -104.41015,-105.77268 -176.3266,-105.53986 -30.28574,0.0981 -53.62242,31.53947 -71.63887,55.88373 -31.26807,42.25018 -51.460226,94.91969 -56.419596,147.24726 -5.345431,56.401 -2.309509,120.71042 29.913076,167.30818 28.07885,40.60542 78.9248,86.16544 127.20443,75.8553 41.0523,-8.76673 80.18199,-61.80833 72.38085,-103.05502 -10.25424,-54.21682 -82.86319,-91.06676 -138.04043,-91.3584 -42.72071,-0.2258 -73.318599,59.33443 -107.618878,69.60006 L 30.358838,444.9546 c 25.28118,24.18868 215.849322,-66.71379 284.860102,-1.49185 71.5368,67.60928 56.12185,205.42363 15.11222,294.90402 -12.72051,27.75535 -41.86465,54.53535 -72.35254,56.16626 C 181.64189,798.61656 110.15998,734.07904 62.850578,674.0308 28.676735,630.65509 18.20907,571.39918 11.208471,516.62423 1.6662251,441.96261 2.5591842,362.98973 25.375578,291.2623 44.797884,230.2048 73.205222,163.48086 126.3642,127.71261 168.48995,99.368114 227.15651,90.724044 276.56869,102.40419 c 46.98775,11.10706 85.06047,49.2126 116.94144,85.47303 37.70373,42.88305 82.54826,150.10174 82.54826,150.10174 0,0 24.26671,-47.45805 43.17432,-65.53702 36.99375,-35.37246 80.995,-73.13622 131.88112,-78.64545 46.45433,-5.02942 97.29142,14.19509 132.97156,44.36506 46.8547,39.61881 73.8873,102.45009 86.4692,162.50597 16.21789,77.41114 18.88936,166.63257 -18.00676,236.591 -29.20196,55.3696 -83.96906,114.26602 -146.48302,117.51447 -32.19482,1.67296 -62.92074,-25.89301 -81.30552,-52.37518 -34.21277,-49.28143 -47.01058,-116.45338 -38.42697,-175.82926 21.79346,-150.75316 95.15093,-313.25826 220.0015,-400.5154 35.98233,-25.14779 87.91023,-31.686865 130.18968,-19.87216 29.75671,8.31531 53.50635,34.06584 71.1045,59.46094 22.2096,32.04963 32.897,71.82267 38.7515,110.37353 6.3492,41.80758 -0.6469,84.67529 -4.5941,126.77761 -9.9163,105.77106 -40.7623,209.09317 -47.85873,315.09077 -2.73048,40.78446 -23.47612,84.03517 2.08924,122.60947 L 846.72123,800 c 0,0 24.26609,-47.11149 34.47197,-71.53353 17.21575,-41.19622 32.25238,-83.37074 44.99929,-126.16124 16.27867,-54.64639 46.49272,-109.64351 40.06721,-166.29981 -7.7653,-68.4698 -25.32862,-168.39103 -92.19903,-185.02719 -64.86487,-16.13722 -121.71948,64.16194 -163.10536,116.6507 -29.54052,37.46556 -46.27025,85.52177 -53.8066,132.63349 -4.36882,27.31064 -7.26914,58.32583 5.64987,82.78103 13.16662,24.92392 38.29012,53.68934 66.44426,52.30883 27.94555,-1.37028 49.81247,-32.29023 60.556,-58.12448 16.60469,-39.9282 8.78107,-87.908 -2.29216,-129.70944 -9.73667,-36.75593 -25.21742,-76.09684 -54.71223,-100.09386 -21.86351,-17.78818 -48.45281,-18.24469 -80.89453,-24.61638 -37.18644,-7.30357 -70.78479,22.48686 -95.0469,48.49505 -29.89867,32.05039 -42.06263,78.18728 -51.49057,120.99233 -10.58333,48.05078 -10.99231,98.7488 -4.60915,147.53548 4.57666,34.97944 30.40803,101.37018 30.40803,101.37018 z"
   inkscape:path-effect="#path-effect1305;#path-effect849" /></svg>
