<?xml version="1.0" encoding="UTF-8" standalone="no"?>
<svg
   xmlns:dc="http://purl.org/dc/elements/1.1/"
   xmlns:cc="http://creativecommons.org/ns#"
   xmlns:rdf="http://www.w3.org/1999/02/22-rdf-syntax-ns#"
   xmlns:svg="http://www.w3.org/2000/svg"
   xmlns="http://www.w3.org/2000/svg"
   xmlns:sodipodi="http://sodipodi.sourceforge.net/DTD/sodipodi-0.dtd"
   xmlns:inkscape="http://www.inkscape.org/namespaces/inkscape"
   xml:space="preserve"
   width="1000"
   height="1000"
   version="1.1"
   style="clip-rule:evenodd;fill-rule:evenodd;image-rendering:optimizeQuality;shape-rendering:geometricPrecision;text-rendering:geometricPrecision"
   viewBox="0 0 1000 1000"
   id="svg10"
   sodipodi:docname="ഞ്ഞ.svg"
   inkscape:version="1.0.2 (e86c870879, 2021-01-15)"><metadata
   id="metadata14"><rdf:RDF><cc:Work
       rdf:about=""><dc:format>image/svg+xml</dc:format><dc:type
         rdf:resource="http://purl.org/dc/dcmitype/StillImage" /><dc:title /></cc:Work></rdf:RDF></metadata><sodipodi:namedview
   pagecolor="#ffffff"
   bordercolor="#666666"
   borderopacity="1"
   objecttolerance="10"
   gridtolerance="10"
   guidetolerance="10"
   inkscape:pageopacity="0"
   inkscape:pageshadow="2"
   inkscape:window-width="1920"
   inkscape:window-height="1007"
   id="namedview12"
   showgrid="false"
   inkscape:zoom="0.6002692"
   inkscape:cx="977.25013"
   inkscape:cy="560.19687"
   inkscape:window-x="1920"
   inkscape:window-y="0"
   inkscape:window-maximized="1"
   inkscape:current-layer="svg10"
   showguides="true"
   inkscape:guide-bbox="true"
   inkscape:document-rotation="0"><sodipodi:guide
     position="0,1000"
     orientation="0,1"
     id="guide16"
     inkscape:label=""
     inkscape:locked="true"
     inkscape:color="rgb(0,0,255)" /><sodipodi:guide
     position="1763.3122,2036.1693"
     orientation="1000,0"
     id="guide18" /><sodipodi:guide
     position="0,200"
     orientation="0,1"
     id="guide20"
     inkscape:label="base"
     inkscape:locked="true"
     inkscape:color="rgb(0,0,255)" /><inkscape:grid
     type="xygrid"
     id="grid24"
     originx="-473.37552"
     originy="-489.69235" /><sodipodi:guide
     position="0,0"
     orientation="0,1"
     id="guide34"
     inkscape:label="bottom"
     inkscape:locked="true"
     inkscape:color="rgb(0,0,255)" /><sodipodi:guide
     position="225.05109,1693.3186"
     orientation="0,1"
     id="guide44"
     inkscape:label=""
     inkscape:locked="false"
     inkscape:color="rgb(0,0,255)" /><sodipodi:guide
     position="0,900"
     orientation="0,1"
     id="guide46"
     inkscape:label=""
     inkscape:locked="true"
     inkscape:color="rgb(0,0,255)" /><sodipodi:guide
     position="1605.0184,919.58371"
     orientation="-1,0"
     id="guide867"
     inkscape:label="width"
     inkscape:locked="false"
     inkscape:color="rgb(0,0,255)" /></sodipodi:namedview>
 <defs
   id="defs4"><inkscape:path-effect
   effect="fillet_chamfer"
   id="path-effect853"
   is_visible="true"
   lpeversion="1"
   satellites_param="F,0,0,1,0,0,0,1 @ F,0,0,1,0,0,0,1 @ F,0,0,1,0,0,0,1 @ F,0,0,1,0,0,0,1 @ F,0,0,1,0,0,0,1 @ F,0,0,1,0,0,0,1 @ F,0,0,1,0,0,0,1 @ F,0,0,1,0,0,0,1 @ F,0,0,1,0,0,0,1 @ F,0,0,1,0,0,0,1 @ F,0,0,1,0,0,0,1 @ F,0,0,1,0,0,0,1 @ F,0,0,1,0,0,0,1 @ F,0,0,1,0,0,0,1 @ F,0,0,1,0,0,0,1 @ F,0,0,1,0,0,0,1 @ F,0,0,1,0,0,0,1 @ F,0,0,1,0,0,0,1 @ F,0,0,1,0,0,0,1 @ F,0,0,1,0,0,0,1 @ F,0,0,1,0,0,0,1 @ F,0,0,1,0,0,0,1 @ F,0,1,1,0,29.256141,0,1 @ F,0,1,1,0,29.256141,0,1 @ F,0,0,1,0,0,0,1 @ F,0,0,1,0,0,0,1 @ F,0,0,1,0,0,0,1 @ F,0,0,1,0,0,0,1 @ F,0,0,1,0,0,0,1 @ F,0,0,1,0,0,0,1 @ F,0,0,1,0,0,0,1 @ F,0,0,1,0,0,0,1 @ F,0,0,1,0,0,0,1 @ F,0,0,1,0,0,0,1 @ F,0,0,1,0,0,0,1 @ F,0,0,1,0,0,0,1 @ F,0,0,1,0,0,0,1 @ F,0,0,1,0,0,0,1 @ F,0,0,1,0,0,0,1 @ F,0,0,1,0,0,0,1 @ F,0,0,1,0,0,0,1 @ F,0,0,1,0,0,0,1 @ F,0,0,1,0,0,0,1 @ F,0,0,1,0,0,0,1 @ F,0,0,1,0,0,0,1 @ F,0,0,1,0,0,0,1 @ F,0,0,1,0,0,0,1 @ F,0,1,1,0,29.256141,0,1 @ F,0,1,1,0,29.256141,0,1 @ F,0,0,1,0,0,0,1 @ F,0,0,1,0,0,0,1 @ F,0,0,1,0,0,0,1 @ F,0,0,1,0,0,0,1 @ F,0,0,1,0,0,0,1 @ F,0,0,1,0,0,0,1 @ F,0,0,1,0,0,0,1 @ F,0,0,1,0,0,0,1 @ F,0,0,1,0,0,0,1 @ F,0,0,1,0,0,0,1 @ F,0,0,1,0,0,0,1 @ F,0,0,1,0,0,0,1 @ F,0,0,1,0,0,0,1 @ F,0,0,1,0,0,0,1 @ F,0,0,1,0,0,0,1 @ F,0,0,1,0,0,0,1 @ F,0,0,1,0,0,0,1 @ F,0,0,1,0,0,0,1 @ F,0,0,1,0,0,0,1 @ F,0,0,1,0,0,0,1 @ F,0,0,1,0,0,0,1 @ F,0,0,1,0,0,0,1 @ F,0,1,1,0,29.256141,0,1 @ F,0,1,1,0,29.256141,0,1 @ F,0,0,1,0,0,0,1 @ F,0,0,1,0,0,0,1 @ F,0,0,1,0,0,0,1 @ F,0,0,1,0,0,0,1 @ F,0,0,1,0,0,0,1 @ F,0,0,1,0,0,0,1 @ F,0,0,1,0,0,0,1 @ F,0,0,1,0,0,0,1 @ F,0,0,1,0,0,0,1 @ F,0,0,1,0,0,0,1 @ F,0,0,1,0,0,0,1 @ F,0,0,1,0,0,0,1 @ F,0,0,1,0,0,0,1 @ F,0,0,1,0,0,0,1 @ F,0,0,1,0,0,0,1 @ F,0,0,1,0,0,0,1 @ F,0,0,1,0,0,0,1 @ F,0,0,1,0,0,0,1 @ F,0,0,1,0,0,0,1 @ F,0,0,1,0,0,0,1 @ F,0,0,1,0,0,0,1 @ F,0,0,1,0,0,0,1 @ F,0,0,1,0,0,0,1 @ F,0,0,1,0,0,0,1 @ F,0,0,1,0,0,0,1 @ F,0,0,1,0,0,0,1 @ F,0,0,1,0,0,0,1 @ F,0,0,1,0,0,0,1 @ F,0,0,1,0,0,0,1 @ F,0,0,1,0,0,0,1 @ F,0,0,1,0,0,0,1 @ F,0,0,1,0,0,0,1 @ F,0,0,1,0,0,0,1 @ F,0,0,1,0,0,0,1 @ F,0,0,1,0,0,0,1 @ F,0,0,1,0,0,0,1 @ F,0,0,1,0,0,0,1 @ F,0,0,1,0,0,0,1 @ F,0,0,1,0,0,0,1 @ F,0,0,1,0,0,0,1 @ F,0,0,1,0,0,0,1 @ F,0,0,1,0,0,0,1 @ F,0,0,1,0,0,0,1 @ F,0,0,1,0,0,0,1 @ F,0,0,1,0,0,0,1 @ F,0,0,1,0,0,0,1 @ F,0,0,1,0,0,0,1 @ F,0,0,1,0,0,0,1 @ F,0,0,1,0,0,0,1 @ F,0,0,1,0,0,0,1 @ F,0,0,1,0,0,0,1 @ F,0,0,1,0,0,0,1"
   unit="px"
   method="auto"
   mode="F"
   radius="0"
   chamfer_steps="1"
   flexible="false"
   use_knot_distance="true"
   apply_no_radius="true"
   apply_with_radius="true"
   only_selected="true"
   hide_knots="false" /><inkscape:path-effect
   effect="fillet_chamfer"
   id="path-effect852"
   is_visible="true"
   lpeversion="1"
   satellites_param="F,0,0,1,0,0,0,1 @ F,0,0,1,0,0,0,1 @ F,0,0,1,0,0,0,1 @ F,0,0,1,0,0,0,1 @ F,0,0,1,0,0,0,1 @ F,0,0,1,0,0,0,1 @ F,0,0,1,0,0,0,1 @ F,0,0,1,0,0,0,1 @ F,0,0,1,0,0,0,1 @ F,0,0,1,0,0,0,1 @ F,0,0,1,0,0,0,1 @ F,0,0,1,0,0,0,1 @ F,0,0,1,0,0,0,1 @ F,0,0,1,0,0,0,1 @ F,0,0,1,0,0,0,1 @ F,0,0,1,0,0,0,1 @ F,0,0,1,0,0,0,1 @ F,0,0,1,0,0,0,1 @ F,0,0,1,0,0,0,1 @ F,0,0,1,0,0,0,1 @ F,0,0,1,0,0,0,1 @ F,0,1,1,0,39.911502,0,1 @ F,0,1,1,0,39.911502,0,1 @ F,0,0,1,0,0,0,1 @ F,0,0,1,0,0,0,1 @ F,0,0,1,0,0,0,1 @ F,0,0,1,0,0,0,1 @ F,0,0,1,0,0,0,1 @ F,0,0,1,0,0,0,1 @ F,0,0,1,0,0,0,1 @ F,0,0,1,0,0,0,1 @ F,0,0,1,0,0,0,1 @ F,0,0,1,0,0,0,1 @ F,0,0,1,0,0,0,1 @ F,0,0,1,0,0,0,1 @ F,0,0,1,0,0,0,1 @ F,0,0,1,0,0,0,1 @ F,0,0,1,0,0,0,1 @ F,0,0,1,0,0,0,1 @ F,0,0,1,0,0,0,1 @ F,0,0,1,0,0,0,1 @ F,0,0,1,0,0,0,1 @ F,0,0,1,0,0,0,1 @ F,0,0,1,0,0,0,1 @ F,0,0,1,0,0,0,1 @ F,0,0,1,0,0,0,1 @ F,0,1,1,0,39.911502,0,1 @ F,0,1,1,0,39.911502,0,1 @ F,0,0,1,0,0,0,1 @ F,0,0,1,0,0,0,1 @ F,0,0,1,0,0,0,1 @ F,0,0,1,0,0,0,1 @ F,0,0,1,0,0,0,1 @ F,0,0,1,0,0,0,1 @ F,0,0,1,0,0,0,1 @ F,0,0,1,0,0,0,1 @ F,0,0,1,0,0,0,1 @ F,0,0,1,0,0,0,1 @ F,0,0,1,0,0,0,1 @ F,0,0,1,0,0,0,1 @ F,0,0,1,0,0,0,1 @ F,0,0,1,0,0,0,1 @ F,0,0,1,0,0,0,1 @ F,0,0,1,0,0,0,1 @ F,0,0,1,0,0,0,1 @ F,0,0,1,0,0,0,1 @ F,0,0,1,0,0,0,1 @ F,0,0,1,0,0,0,1 @ F,0,1,1,0,39.911502,0,1 @ F,0,1,1,0,39.911502,0,1 @ F,0,0,1,0,0,0,1 @ F,0,0,1,0,0,0,1 @ F,0,0,1,0,0,0,1 @ F,0,0,1,0,0,0,1 @ F,0,0,1,0,0,0,1 @ F,0,0,1,0,0,0,1 @ F,0,0,1,0,0,0,1 @ F,0,0,1,0,0,0,1 @ F,0,0,1,0,0,0,1 @ F,0,0,1,0,0,0,1 @ F,0,0,1,0,0,0,1 @ F,0,0,1,0,0,0,1 @ F,0,0,1,0,0,0,1 @ F,0,0,1,0,0,0,1 @ F,0,0,1,0,0,0,1 @ F,0,0,1,0,0,0,1 @ F,0,0,1,0,0,0,1 @ F,0,0,1,0,0,0,1 @ F,0,0,1,0,0,0,1 @ F,0,0,1,0,0,0,1 @ F,0,0,1,0,0,0,1 @ F,0,0,1,0,0,0,1 @ F,0,0,1,0,0,0,1 @ F,0,0,1,0,0,0,1 @ F,0,0,1,0,0,0,1 @ F,0,0,1,0,0,0,1 @ F,0,0,1,0,0,0,1 @ F,0,0,1,0,0,0,1 @ F,0,0,1,0,0,0,1 @ F,0,0,1,0,0,0,1 @ F,0,0,1,0,0,0,1 @ F,0,0,1,0,0,0,1 @ F,0,0,1,0,0,0,1 @ F,0,0,1,0,0,0,1 @ F,0,0,1,0,0,0,1 @ F,0,0,1,0,0,0,1 @ F,0,0,1,0,0,0,1 @ F,0,0,1,0,0,0,1 @ F,0,0,1,0,0,0,1 @ F,0,0,1,0,0,0,1 @ F,0,0,1,0,0,0,1 @ F,0,0,1,0,0,0,1 @ F,0,0,1,0,0,0,1 @ F,0,0,1,0,0,0,1 @ F,0,0,1,0,0,0,1 @ F,0,0,1,0,0,0,1 @ F,0,0,1,0,0,0,1 @ F,0,0,1,0,0,0,1 @ F,0,0,1,0,0,0,1 @ F,0,0,1,0,0,0,1 @ F,0,0,1,0,0,0,1"
   unit="px"
   method="auto"
   mode="F"
   radius="0"
   chamfer_steps="1"
   flexible="false"
   use_knot_distance="true"
   apply_no_radius="true"
   apply_with_radius="true"
   only_selected="true"
   hide_knots="false" /><inkscape:path-effect
   effect="spiro"
   id="path-effect866"
   is_visible="true"
   lpeversion="1" /><inkscape:path-effect
   effect="spiro"
   id="path-effect865"
   is_visible="true"
   lpeversion="1" /><inkscape:path-effect
   effect="spiro"
   id="path-effect851"
   is_visible="true"
   lpeversion="1" />
  <style
   type="text/css"
   id="style2">
   <![CDATA[
    .fil0 {fill:#EF7F1A;fill-rule:nonzero}
   ]]>
  </style>
 <inkscape:path-effect
   effect="spiro"
   id="path-effect1214"
   is_visible="true"
   lpeversion="1" /><inkscape:path-effect
   effect="spiro"
   id="path-effect1195"
   is_visible="true"
   lpeversion="1" /><inkscape:path-effect
   effect="spiro"
   id="path-effect992"
   is_visible="true"
   lpeversion="1" /><inkscape:path-effect
   effect="spiro"
   id="path-effect1060"
   is_visible="true"
   lpeversion="1" /><inkscape:path-effect
   effect="spiro"
   id="path-effect1047"
   is_visible="true"
   lpeversion="1" /><inkscape:path-effect
   effect="spiro"
   id="path-effect1085"
   is_visible="true"
   lpeversion="1" /><inkscape:path-effect
   effect="spiro"
   id="path-effect1286"
   is_visible="true"
   lpeversion="1" /><inkscape:path-effect
   effect="spiro"
   id="path-effect1305"
   is_visible="true"
   lpeversion="1" /></defs>
 
<path
   id="path1210-6"
   style="display:inline;fill:#a51d2d;fill-rule:nonzero;stroke:none;stroke-width:2.55537px;stroke-linecap:butt;stroke-linejoin:miter;stroke-opacity:1"
   d="m 979.2723,279.83864 c 41.5167,51.62173 61.1001,120.3223 53.0419,186.07563 l -48.4458,-2.43533 c 3.01578,-67.65218 28.7183,-134.09646 72.0146,-186.167 16.7745,-20.17399 36.2032,-38.30641 58.4413,-52.22919 22.238,-13.92277 47.3587,-23.5612 73.4398,-26.41626 47.7754,-5.22991 96.5322,13.02801 132.9716,44.36506 47.3945,40.75817 74.2367,101.20479 86.4692,162.50597 15.6709,78.53222 9.333,161.322 -18.0068,236.591 -9.2324,25.41759 -20.9776,50.25951 -38.1492,71.15033 -17.1716,20.89083 -40.1969,37.69087 -66.5183,43.89343 -22.7856,5.36934 -47.2067,2.51878 -68.7229,-6.70424 -21.5163,-9.22303 -40.1502,-24.62579 -54.3981,-43.20023 -18.6755,-24.34654 -29.8551,-53.87624 -35.2976,-84.07405 -5.4424,-30.19781 -5.354,-61.15162 -3.1294,-91.75521 10.3111,-141.85093 70.1678,-283.36212 179.2064,-374.67794 23.9564,-20.06263 50.3691,-37.75403 79.8214,-48.19354 29.4522,-10.439514 62.2408,-13.244484 92.0309,-3.81203 34.9813,11.07615 63.3864,38.35834 81.01,70.54189 17.6236,32.18354 25.2986,68.99357 27.9785,105.58853 3.0926,42.23135 -0.1707,84.66486 -4.5941,126.77761 -10.8743,103.52773 -28.7786,206.47564 -32.3176,310.51273 -1.3052,38.37043 -0.6486,76.80746 1.9638,115.11108 1.0995,16.11981 -10.0145,24.89175 -25.2906,19.62755 l -111.7599,-38.51276 c -15.2761,-5.2642 -21.4204,-21.05311 -14.2399,-35.52688 7.433,-14.98264 14.454,-30.16968 21.052,-45.53832 17.6236,-41.05043 32.2132,-83.3565 44.9993,-126.16124 19.1311,-64.04622 34.3389,-130.00361 34.2385,-196.846 -0.048,-31.81946 -3.7645,-64.29995 -17.3368,-93.07966 -6.7862,-14.38985 -16.0214,-27.70839 -27.7178,-38.49327 -11.6964,-10.78489 -25.8974,-18.98476 -41.3158,-22.90807 -17.5329,-4.46136 -36.2813,-3.28869 -53.5415,2.1331 -17.2601,5.42179 -33.0683,14.97856 -46.765,26.7984 -27.3934,23.6397 -46.0473,55.64712 -62.7988,87.7192 -17.4532,33.4154 -33.526,67.92552 -42.1138,104.63318 -8.5878,36.70765 -9.3349,76.01593 3.4591,111.47741 4.6276,12.82643 11.1121,25.21588 20.7142,34.89732 9.6022,9.68144 22.5947,16.46298 36.228,16.71544 7.5252,0.13935 15.0381,-1.69802 21.8101,-4.98258 6.772,-3.28456 12.8126,-7.99267 17.9179,-13.52301 10.2105,-11.06068 16.5666,-25.18166 20.828,-39.61889 12.3869,-41.96561 8.1205,-87.2109 -2.2921,-129.70944 -4.6086,-18.81001 -10.4313,-37.42589 -19.1475,-54.71993 -8.7162,-17.29403 -20.434,-33.28617 -35.5648,-45.37393 -22.532,-18.00043 -52.1178,-26.51552 -80.8945,-24.61638 -36.4115,2.40301 -70.8985,21.13761 -95.0469,48.49505 -31.0792,35.20929 -44.9496,82.46046 -51.4906,128.96666 -7.8694,55.95126 -6.3927,113.04641 2.2525,168.88307 2.7159,17.54157 6.1355,34.97416 10.2463,52.24215 3.7417,15.71718 -5.6716,27.45715 -21.7956,26.41435 l -98.0214,-6.33937 c -16.12404,-1.0428 -24.80944,-14.23534 -19.98032,-29.65372 10.14472,-32.38996 18.38378,-65.37682 24.65642,-98.7337 7.62756,-40.56209 12.35306,-81.77129 11.94086,-123.04226 -0.32951,-32.99139 -4.10064,-66.53797 -17.34028,-96.75804 -6.61982,-15.11003 -15.59477,-29.26206 -27.04923,-41.13348 -11.45446,-11.87141 -25.4281,-21.42453 -40.94376,-27.02804 -24.39326,-8.80968 -51.85273,-7.46255 -76.24053,1.36224 -24.3878,8.82479 -45.81275,24.77783 -63.27778,43.95111 -23.73211,26.05333 -40.53487,58.27179 -48.86365,92.51534 -8.32878,34.24355 -8.22093,70.441 -0.23748,104.7667 3.53814,15.21262 8.75558,30.36761 18.26353,42.75878 4.75398,6.19559 10.5592,11.63226 17.28291,15.60432 6.72371,3.97207 14.38214,6.45015 22.18591,6.74476 7.54368,0.28479 15.11137,-1.47451 21.9228,-4.72914 6.81143,-3.25464 12.87688,-7.97833 17.98189,-13.53956 10.21,-11.12245 16.46285,-25.35027 20.65131,-39.85578 12.13442,-42.02406 8.06096,-87.21146 -2.29216,-129.70944 -4.58407,-18.81692 -10.41,-37.43432 -19.13344,-54.7257 -8.72344,-17.29138 -20.45077,-33.27546 -35.57879,-45.36816 -22.52994,-18.00947 -52.11757,-26.57236 -80.89453,-24.61638 -36.38281,2.47296 -70.68984,21.35544 -95.0469,48.49505 -29.69736,33.08999 -44.87224,77.02554 -51.49057,120.99233 -9.1588,60.84364 -3.20901,123.27704 11.17916,183.10022 3.85349,16.02206 8.30776,31.89958 13.34935,47.58837 4.94291,15.3817 -3.44676,29.15066 -19.4975,31.00693 l -108.02229,12.4928 c -16.05074,1.85627 -25.71161,-9.30422 -22.02973,-25.03639 9.90298,-42.31404 17.38015,-85.19582 22.3789,-128.36482 5.38451,-46.5004 7.886,-93.61449 2.24548,-140.08453 -5.48011,-45.1485 -18.65742,-89.29936 -38.22391,-130.35506 -14.89802,-31.26001 -34.03847,-61.37209 -61.34351,-82.66938 -13.65251,-10.64865 -29.25206,-18.94437 -45.98707,-23.38557 -16.73501,-4.4412 -34.62036,-4.94688 -51.3628,-0.53376 -14.95056,3.94081 -28.73972,11.70798 -40.67264,21.53929 -11.93292,9.83132 -22.07204,21.69759 -30.96623,34.34444 -30.43828,43.28087 -46.342418,95.70632 -50.86329,148.42524 -4.857902,56.64911 3.500202,115.59906 31.77208,164.92878 12.59114,21.96944 29.38934,42.11694 51.24884,54.89799 10.92975,6.39053 23.04071,10.85819 35.58825,12.54859 12.54754,1.6904 25.5306,0.55985 37.41979,-3.79279 14.56725,-5.33308 27.23399,-15.45718 36.19087,-28.12292 8.95688,-12.66573 14.24913,-27.79179 15.80684,-43.22617 3.1846,-31.55408 -9.82831,-64.21823 -33.52893,-85.29148 -23.70063,-21.07326 -57.41857,-30.18043 -88.59612,-24.36992 -32.85416,6.12298 -61.67603,28.0227 -79.646315,56.19992 -13.966732,21.8997 -21.856899,47.6316 -22.566797,73.59624 L 46.315933,509.82502 c 14.155006,-34.013 38.066354,-63.90096 68.143427,-85.17579 33.08782,-23.40446 73.78352,-36.26215 114.28087,-34.66958 40.49736,1.59257 80.49691,17.90345 109.58526,46.12472 31.92658,30.9749 49.63066,74.91796 53.15419,119.26135 3.52354,44.34339 -6.37271,89.04121 -23.54734,130.07514 -12.63623,30.19072 -29.52069,59.1203 -53.31419,81.59302 -23.79349,22.47273 -55.05802,38.08721 -87.77744,38.85735 -36.03605,0.84821 -70.83145,-16.33028 -97.16033,-40.94951 C 103.35149,740.3225 84.568517,708.7372 68.698841,676.37256 44.298173,626.6098 25.877864,573.68264 17.056734,518.96599 4.9850659,444.08655 11.150154,366.74572 31.223841,293.60406 c 8.655483,-31.53762 19.943103,-62.53605 36.268732,-90.87353 16.325629,-28.33749 37.862777,-54.01511 64.719887,-72.67616 43.11408,-29.95684 99.82843,-40.089804 150.20449,-25.30842 47.04793,13.80484 86.02055,47.4207 116.94144,85.47303 62.96675,77.48908 97.92911,177.2574 97.10594,277.10073 l -56.9182,-2.47129 c 9.23865,-69.85965 39.37345,-136.82141 85.53484,-190.06472 17.15882,-19.79127 36.58031,-37.80119 58.7327,-51.77943 22.15239,-13.97824 47.12851,-23.85204 73.14842,-26.86602 47.77626,-5.5341 96.63452,12.85606 132.97156,44.36506 47.19125,40.92102 73.62726,101.378 86.4692,162.50597 16.50424,78.56058 12.41779,162.30438 -18.00676,236.591 -10.40895,25.41519 -23.99347,49.86154 -42.87798,69.8028 -18.8845,19.94125 -43.41687,35.19435 -70.47334,39.90877 -21.07903,3.67289 -43.12227,0.82417 -62.9442,-7.23232 -19.82192,-8.05649 -37.42831,-21.21545 -51.49302,-37.33996 -22.89809,-26.25156 -36.22584,-59.94489 -41.62386,-94.35896 -5.39802,-34.41408 -3.22158,-69.64216 2.17765,-104.05605 11.73927,-74.82427 39.36373,-148.17836 86.91034,-207.13428 23.31116,-28.90493 51.54622,-54.34137 84.71359,-71.03959 33.16738,-16.69821 71.51736,-24.26101 108.0414,-17.56031 43.09417,7.90605 80.98728,35.10661 108.44563,69.24826 z"
   sodipodi:nodetypes="accaaaaaaaaaaaaaccaaaaaaaaaaaaaaccaaaaaaaaaaaaaccaaaaaaaaaaaccaasaaaaaaaccaaaaaaaaaaa"
   inkscape:original-d="m 979.2723,279.83864 c 38.5219,51.72808 53.0419,186.07563 53.0419,186.07563 l -48.4458,-2.43533 c 0,0 29.0951,-135.32353 72.0146,-186.167 33.0159,-39.1114 80.995,-73.13622 131.8811,-78.64545 46.4543,-5.02942 97.2914,14.19509 132.9716,44.36506 46.8547,39.61881 73.8873,102.45009 86.4692,162.50597 16.2179,77.41114 13.3083,163.9627 -18.0068,236.591 -20.5269,47.60739 -54.1157,103.54021 -104.6675,115.04376 -43.1796,9.82593 -94.5781,-16.04699 -123.121,-49.90447 -38.6686,-45.86847 -45.3399,-116.23576 -38.427,-175.82926 15.9525,-137.52097 74.1497,-284.51375 179.2064,-374.67794 45.4165,-38.97841 115.869,-73.167872 171.8523,-52.00557 64.5813,24.41243 91.3093,109.39094 108.9885,176.13042 10.8283,40.87705 -1.638,84.59412 -4.5941,126.77761 -7.2747,103.80874 -28.4849,206.52001 -32.3176,310.51273 -1.7721,48.07914 4.3331,144.2703 4.3331,144.2703 L 1383.3715,804.87 c 0,0 24.2661,-47.11149 34.472,-71.53353 17.2157,-41.19622 33.6326,-82.98359 44.9993,-126.16124 16.9552,-64.40611 45.4271,-131.19205 34.2385,-196.846 -9.9109,-58.15705 -28.7978,-141.60219 -86.3704,-154.481 -65.2299,-14.59172 -127.4033,60.14206 -163.1053,116.6507 -39.0873,61.86689 -62.2803,146.84903 -38.6547,216.11059 8.2704,24.24574 31.3273,51.97869 56.9422,51.61276 27.9763,-0.39967 49.8125,-32.29023 60.556,-58.12448 16.6047,-39.9282 8.7811,-87.908 -2.2921,-129.70944 -9.7367,-36.75593 -25.2175,-76.09684 -54.7123,-100.09386 -21.8635,-17.78818 -52.8184,-27.09903 -80.8945,-24.61638 -35.4297,3.1329 -71.0788,22.21571 -95.0469,48.49505 -31.1925,34.2003 -43.055,83.45323 -51.4906,128.96666 -10.26,55.35658 -4.18,112.95239 2.2525,168.88307 3.1403,27.30499 17.6458,80.54465 17.6458,80.54465 L 905.49935,744.45188 c 11.3355,-41.06728 26.09139,-83.54634 33.87125,-126.49927 7.34409,-40.54704 19.7382,-82.57994 11.94086,-123.04226 -11.71229,-60.77795 -28.07636,-141.40823 -85.33327,-164.91956 -45.23249,-18.57375 -106.17554,9.54714 -139.51831,45.31335 -46.20966,49.56829 -65.25875,131.46959 -49.10113,197.28204 6.91585,28.16932 28.74996,63.94135 57.73235,65.10786 27.95649,1.12522 49.81247,-32.29023 60.556,-58.12448 16.60469,-39.9282 8.78107,-87.908 -2.29216,-129.70944 -9.73667,-36.75593 -25.21742,-76.09684 -54.71223,-100.09386 -21.86351,-17.78818 -52.81841,-27.09904 -80.89453,-24.61638 -35.42966,3.1329 -70.78479,22.48686 -95.0469,48.49505 -29.89867,32.05039 -44.04547,77.79825 -51.49057,120.99233 -10.38638,60.25849 0.33354,122.92269 11.17916,183.10022 4.64982,25.7998 22.91428,75.23423 22.91428,75.23423 L 379.157,772.18665 c 11.33547,-41.06728 24.06443,-103.86603 29.4116,-156.76228 4.69695,-46.46404 8.51258,-93.80611 2.24548,-140.08453 C 404.73749,430.46819 399.351,381.51213 372.59017,344.98478 334.93084,293.58145 277.57888,236.13381 213.89679,238.39607 c -30.2668,1.0752 -54.06059,31.22121 -71.63887,55.88373 -30.35522,42.58869 -47.20963,96.25353 -50.86329,148.42524 -3.91127,55.85028 -1.83548,120.15062 31.77208,164.92878 27.93518,37.22038 78.98558,74.43528 124.25688,63.65379 28.62808,-6.81786 55.07236,-42.08141 51.99771,-71.34909 -5.71614,-54.41209 -67.50743,-106.45739 -122.12505,-109.6614 -32.43691,-1.90283 -60.58441,29.88608 -79.646315,56.19992 -15.053175,20.78002 -7.819943,69.1827 -22.566797,73.59624 L 46.315933,509.82502 c 0,0 34.980021,-70.26816 68.143427,-85.17579 68.1507,-30.63514 169.28972,-39.57862 223.86613,11.45514 61.1329,57.16465 55.66542,169.80047 29.60685,249.33649 C 352.10578,733.74677 288.67521,805.25992 226.84071,805.89123 158.70719,806.58686 107.21665,732.57788 68.698841,676.37256 37.482751,630.82193 24.057333,573.74094 17.056734,518.96599 7.514488,444.30437 8.407447,365.33149 31.223841,293.60406 50.646147,232.54656 79.05349,165.82262 132.21246,130.05437 c 42.12575,-28.3445 100.79231,-36.988565 150.20449,-25.30842 46.98775,11.10706 88.17136,46.69807 116.94144,85.47303 58.32013,78.60113 97.10594,277.10073 97.10594,277.10073 l -56.9182,-2.47129 c 0,0 39.30898,-138.20022 85.53484,-190.06472 34.05548,-38.20959 80.995,-73.13622 131.88112,-78.64545 46.45433,-5.02942 97.29142,14.19509 132.97156,44.36506 46.8547,39.61881 73.8873,102.45009 86.4692,162.50597 16.21789,77.41114 15.59839,164.99352 -18.00676,236.591 -22.34207,47.60093 -61.80392,99.32495 -113.35132,109.71157 -40.13047,8.08615 -88.13334,-13.20436 -114.43722,-44.57228 -43.32854,-51.67017 -46.2127,-131.32266 -39.44621,-198.41501 7.5134,-74.49829 34.86112,-153.30748 86.91034,-207.13428 49.15603,-50.8348 122.20772,-93.45541 192.75499,-88.5999 42.78852,2.94497 82.82861,34.84915 108.44563,69.24826 z"
   inkscape:path-effect="#path-effect1305;#path-effect853" /><g
   inkscape:groupmode="layer"
   id="layer1"
   inkscape:label="Layer 1" /></svg>
