<?xml version="1.0" encoding="UTF-8" standalone="no"?>
<svg
   xml:space="preserve"
   width="1000"
   height="1000"
   version="1.1"
   style="clip-rule:evenodd;fill-rule:evenodd;image-rendering:optimizeQuality;shape-rendering:geometricPrecision;text-rendering:geometricPrecision"
   viewBox="0 0 1000 1000"
   id="svg10"
   sodipodi:docname="ഞ്ഞ.svg"
   inkscape:version="1.1.2 (0a00cf5339, 2022-02-04)"
   xmlns:inkscape="http://www.inkscape.org/namespaces/inkscape"
   xmlns:sodipodi="http://sodipodi.sourceforge.net/DTD/sodipodi-0.dtd"
   xmlns="http://www.w3.org/2000/svg"
   xmlns:svg="http://www.w3.org/2000/svg"
   xmlns:rdf="http://www.w3.org/1999/02/22-rdf-syntax-ns#"
   xmlns:cc="http://creativecommons.org/ns#"
   xmlns:dc="http://purl.org/dc/elements/1.1/"><metadata
   id="metadata14"><rdf:RDF><cc:Work
       rdf:about=""><dc:format>image/svg+xml</dc:format><dc:type
         rdf:resource="http://purl.org/dc/dcmitype/StillImage" /></cc:Work></rdf:RDF></metadata><sodipodi:namedview
   pagecolor="#ffffff"
   bordercolor="#666666"
   borderopacity="1"
   objecttolerance="10"
   gridtolerance="10"
   guidetolerance="10"
   inkscape:pageopacity="0"
   inkscape:pageshadow="2"
   inkscape:window-width="1920"
   inkscape:window-height="1009"
   id="namedview12"
   showgrid="false"
   inkscape:zoom="0.6002692"
   inkscape:cx="695.52128"
   inkscape:cy="418.14573"
   inkscape:window-x="0"
   inkscape:window-y="0"
   inkscape:window-maximized="1"
   inkscape:current-layer="svg10"
   showguides="true"
   inkscape:guide-bbox="true"
   inkscape:document-rotation="0"
   inkscape:pagecheckerboard="0"><sodipodi:guide
     position="0,1000"
     orientation="0,1"
     id="guide16"
     inkscape:label=""
     inkscape:locked="true"
     inkscape:color="rgb(0,0,255)" /><sodipodi:guide
     position="1763.3122,2036.1693"
     orientation="1000,0"
     id="guide18" /><sodipodi:guide
     position="0,200"
     orientation="0,1"
     id="guide20"
     inkscape:label="base"
     inkscape:locked="true"
     inkscape:color="rgb(0,0,255)" /><inkscape:grid
     type="xygrid"
     id="grid24"
     originx="-473.37552"
     originy="-489.69235" /><sodipodi:guide
     position="0,0"
     orientation="0,1"
     id="guide34"
     inkscape:label="bottom"
     inkscape:locked="true"
     inkscape:color="rgb(0,0,255)" /><sodipodi:guide
     position="225.05109,1693.3186"
     orientation="0,1"
     id="guide44"
     inkscape:label=""
     inkscape:locked="false"
     inkscape:color="rgb(0,0,255)" /><sodipodi:guide
     position="0,900"
     orientation="0,1"
     id="guide46"
     inkscape:label=""
     inkscape:locked="true"
     inkscape:color="rgb(0,0,255)" /><sodipodi:guide
     position="1605.0184,919.58371"
     orientation="-1,0"
     id="guide867"
     inkscape:label="width"
     inkscape:locked="false"
     inkscape:color="rgb(0,0,255)" /></sodipodi:namedview>
 <defs
   id="defs4"><inkscape:path-effect
   effect="fillet_chamfer"
   id="path-effect2754"
   is_visible="true"
   lpeversion="1"
   satellites_param="F,0,0,1,0,0,0,1 @ F,0,0,1,0,0,0,1 @ F,0,0,1,0,0,0,1 @ F,0,0,1,0,0,0,1 @ F,0,0,1,0,0,0,1 @ F,0,0,1,0,0,0,1 @ F,0,0,1,0,0,0,1 @ F,0,0,1,0,0,0,1 @ F,0,0,1,0,0,0,1 @ F,0,0,1,0,0,0,1 @ F,0,0,1,0,0,0,1 @ F,0,0,1,0,0,0,1 @ F,0,0,1,0,0,0,1 @ F,0,0,1,0,0,0,1 @ F,0,0,1,0,0,0,1 @ F,0,0,1,0,0,0,1 @ F,0,0,1,0,0,0,1 @ F,0,0,1,0,0,0,1 @ F,0,0,1,0,0,0,1 @ F,0,0,1,0,0,0,1 @ F,0,0,1,0,0,0,1 @ F,0,0,1,0,0,0,1 @ F,0,0,1,0,0,0,1 @ F,0,0,1,0,0,0,1 @ F,0,0,1,0,26.162862,0,1 @ F,0,0,1,0,26.162862,0,1 @ F,0,0,1,0,0,0,1 @ F,0,0,1,0,0,0,1 @ F,0,0,1,0,0,0,1 @ F,0,0,1,0,0,0,1 @ F,0,0,1,0,0,0,1 @ F,0,0,1,0,0,0,1 @ F,0,0,1,0,0,0,1 @ F,0,0,1,0,0,0,1 @ F,0,0,1,0,0,0,1 @ F,0,0,1,0,0,0,1 @ F,0,0,1,0,0,0,1 @ F,0,0,1,0,0,0,1 @ F,0,0,1,0,0,0,1 @ F,0,0,1,0,0,0,1 @ F,0,0,1,0,0,0,1 @ F,0,0,1,0,0,0,1 @ F,0,0,1,0,0,0,1 @ F,0,0,1,0,0,0,1 @ F,0,0,1,0,0,0,1 @ F,0,0,1,0,0,0,1 @ F,0,0,1,0,0,0,1 @ F,0,0,1,0,0,0,1 @ F,0,0,1,0,0,0,1 @ F,0,0,1,0,21.899839,0,1 @ F,0,0,1,0,21.899839,0,1 @ F,0,0,1,0,0,0,1 @ F,0,0,1,0,0,0,1 @ F,0,0,1,0,0,0,1 @ F,0,0,1,0,0,0,1 @ F,0,0,1,0,0,0,1 @ F,0,0,1,0,0,0,1 @ F,0,0,1,0,0,0,1 @ F,0,0,1,0,0,0,1 @ F,0,0,1,0,0,0,1 @ F,0,0,1,0,0,0,1 @ F,0,0,1,0,0,0,1 @ F,0,0,1,0,0,0,1 @ F,0,0,1,0,0,0,1 @ F,0,0,1,0,0,0,1 @ F,0,0,1,0,0,0,1 @ F,0,0,1,0,0,0,1 @ F,0,0,1,0,0,0,1 @ F,0,0,1,0,0,0,1 @ F,0,0,1,0,0,0,1 @ F,0,0,1,0,0,0,1 @ F,0,0,1,0,0,0,1 @ F,0,1,1,0,25.142131,0,1 @ F,0,0,1,0,25.142131,0,1 @ F,0,0,1,0,0,0,1 @ F,0,0,1,0,0,0,1 @ F,0,0,1,0,0,0,1 @ F,0,0,1,0,0,0,1 @ F,0,0,1,0,0,0,1 @ F,0,0,1,0,0,0,1 @ F,0,0,1,0,0,0,1 @ F,0,0,1,0,0,0,1 @ F,0,0,1,0,0,0,1 @ F,0,0,1,0,0,0,1 @ F,0,0,1,0,0,0,1 @ F,0,0,1,0,0,0,1 @ F,0,0,1,0,0,0,1 @ F,0,0,1,0,0,0,1 @ F,0,0,1,0,0,0,1 @ F,0,0,1,0,0,0,1 @ F,0,0,1,0,0,0,1 @ F,0,0,1,0,0,0,1 @ F,0,0,1,0,0,0,1 @ F,0,0,1,0,0,0,1 @ F,0,0,1,0,0,0,1 @ F,0,0,1,0,0,0,1 @ F,0,0,1,0,0,0,1 @ F,0,0,1,0,0,0,1 @ F,0,0,1,0,0,0,1 @ F,0,0,1,0,0,0,1 @ F,0,0,1,0,0,0,1 @ F,0,0,1,0,0,0,1 @ F,0,0,1,0,0,0,1 @ F,0,0,1,0,0,0,1 @ F,0,0,1,0,0,0,1 @ F,0,0,1,0,0,0,1 @ F,0,0,1,0,0,0,1 @ F,0,0,1,0,0,0,1 @ F,0,0,1,0,0,0,1 @ F,0,0,1,0,0,0,1 @ F,0,0,1,0,0,0,1 @ F,0,0,1,0,0,0,1 @ F,0,0,1,0,0,0,1 @ F,0,0,1,0,0,0,1 @ F,0,0,1,0,0,0,1 @ F,0,0,1,0,0,0,1 @ F,0,0,1,0,0,0,1 @ F,0,0,1,0,0,0,1 @ F,0,0,1,0,0,0,1 @ F,0,0,1,0,0,0,1 @ F,0,0,1,0,0,0,1 @ F,0,0,1,0,0,0,1 @ F,0,0,1,0,0,0,1 @ F,0,0,1,0,0,0,1 @ F,0,0,1,0,0,0,1 @ F,0,0,1,0,0,0,1 @ F,0,0,1,0,0,0,1 @ F,0,0,1,0,0,0,1 @ F,0,0,1,0,0,0,1 @ F,0,0,1,0,0,0,1"
   unit="px"
   method="auto"
   mode="F"
   radius="0"
   chamfer_steps="1"
   flexible="false"
   use_knot_distance="true"
   apply_no_radius="true"
   apply_with_radius="true"
   only_selected="false"
   hide_knots="false" /><inkscape:path-effect
   effect="fillet_chamfer"
   id="path-effect853"
   is_visible="true"
   lpeversion="1"
   satellites_param="F,0,0,1,0,0,0,1 @ F,0,0,1,0,0,0,1 @ F,0,0,1,0,0,0,1 @ F,0,0,1,0,0,0,1 @ F,0,0,1,0,0,0,1 @ F,0,0,1,0,0,0,1 @ F,0,0,1,0,0,0,1 @ F,0,0,1,0,0,0,1 @ F,0,0,1,0,0,0,1 @ F,0,0,1,0,0,0,1 @ F,0,0,1,0,0,0,1 @ F,0,0,1,0,0,0,1 @ F,0,0,1,0,0,0,1 @ F,0,0,1,0,0,0,1 @ F,0,0,1,0,0,0,1 @ F,0,0,1,0,0,0,1 @ F,0,0,1,0,0,0,1 @ F,0,0,1,0,0,0,1 @ F,0,0,1,0,0,0,1 @ F,0,0,1,0,0,0,1 @ F,0,0,1,0,0,0,1 @ F,0,0,1,0,0,0,1 @ F,0,1,1,0,29.256141,0,1 @ F,0,1,1,0,29.256141,0,1 @ F,0,0,1,0,0,0,1 @ F,0,0,1,0,0,0,1 @ F,0,0,1,0,0,0,1 @ F,0,0,1,0,0,0,1 @ F,0,0,1,0,0,0,1 @ F,0,0,1,0,0,0,1 @ F,0,0,1,0,0,0,1 @ F,0,0,1,0,0,0,1 @ F,0,0,1,0,0,0,1 @ F,0,0,1,0,0,0,1 @ F,0,0,1,0,0,0,1 @ F,0,0,1,0,0,0,1 @ F,0,0,1,0,0,0,1 @ F,0,0,1,0,0,0,1 @ F,0,0,1,0,0,0,1 @ F,0,0,1,0,0,0,1 @ F,0,0,1,0,0,0,1 @ F,0,0,1,0,0,0,1 @ F,0,0,1,0,0,0,1 @ F,0,0,1,0,0,0,1 @ F,0,0,1,0,0,0,1 @ F,0,0,1,0,0,0,1 @ F,0,0,1,0,0,0,1 @ F,0,1,1,0,29.256141,0,1 @ F,0,1,1,0,29.256141,0,1 @ F,0,0,1,0,0,0,1 @ F,0,0,1,0,0,0,1 @ F,0,0,1,0,0,0,1 @ F,0,0,1,0,0,0,1 @ F,0,0,1,0,0,0,1 @ F,0,0,1,0,0,0,1 @ F,0,0,1,0,0,0,1 @ F,0,0,1,0,0,0,1 @ F,0,0,1,0,0,0,1 @ F,0,0,1,0,0,0,1 @ F,0,0,1,0,0,0,1 @ F,0,0,1,0,0,0,1 @ F,0,0,1,0,0,0,1 @ F,0,0,1,0,0,0,1 @ F,0,0,1,0,0,0,1 @ F,0,0,1,0,0,0,1 @ F,0,0,1,0,0,0,1 @ F,0,0,1,0,0,0,1 @ F,0,0,1,0,0,0,1 @ F,0,0,1,0,0,0,1 @ F,0,0,1,0,0,0,1 @ F,0,0,1,0,0,0,1 @ F,0,1,1,0,29.256141,0,1 @ F,0,1,1,0,29.256141,0,1 @ F,0,0,1,0,0,0,1 @ F,0,0,1,0,0,0,1 @ F,0,0,1,0,0,0,1 @ F,0,0,1,0,0,0,1 @ F,0,0,1,0,0,0,1 @ F,0,0,1,0,0,0,1 @ F,0,0,1,0,0,0,1 @ F,0,0,1,0,0,0,1 @ F,0,0,1,0,0,0,1 @ F,0,0,1,0,0,0,1 @ F,0,0,1,0,0,0,1 @ F,0,0,1,0,0,0,1 @ F,0,0,1,0,0,0,1 @ F,0,0,1,0,0,0,1 @ F,0,0,1,0,0,0,1 @ F,0,0,1,0,0,0,1 @ F,0,0,1,0,0,0,1 @ F,0,0,1,0,0,0,1 @ F,0,0,1,0,0,0,1 @ F,0,0,1,0,0,0,1 @ F,0,0,1,0,0,0,1 @ F,0,0,1,0,0,0,1 @ F,0,0,1,0,0,0,1 @ F,0,0,1,0,0,0,1 @ F,0,0,1,0,0,0,1 @ F,0,0,1,0,0,0,1 @ F,0,0,1,0,0,0,1 @ F,0,0,1,0,0,0,1 @ F,0,0,1,0,0,0,1 @ F,0,0,1,0,0,0,1 @ F,0,0,1,0,0,0,1 @ F,0,0,1,0,0,0,1 @ F,0,0,1,0,0,0,1 @ F,0,0,1,0,0,0,1 @ F,0,0,1,0,0,0,1 @ F,0,0,1,0,0,0,1 @ F,0,0,1,0,0,0,1 @ F,0,0,1,0,0,0,1 @ F,0,0,1,0,0,0,1 @ F,0,0,1,0,0,0,1 @ F,0,0,1,0,0,0,1 @ F,0,0,1,0,0,0,1 @ F,0,0,1,0,0,0,1 @ F,0,0,1,0,0,0,1 @ F,0,0,1,0,0,0,1 @ F,0,0,1,0,0,0,1 @ F,0,0,1,0,0,0,1 @ F,0,0,1,0,0,0,1 @ F,0,0,1,0,0,0,1 @ F,0,0,1,0,0,0,1 @ F,0,0,1,0,0,0,1 @ F,0,0,1,0,0,0,1"
   unit="px"
   method="auto"
   mode="F"
   radius="0"
   chamfer_steps="1"
   flexible="false"
   use_knot_distance="true"
   apply_no_radius="true"
   apply_with_radius="true"
   only_selected="true"
   hide_knots="false" /><inkscape:path-effect
   effect="fillet_chamfer"
   id="path-effect852"
   is_visible="true"
   lpeversion="1"
   satellites_param="F,0,0,1,0,0,0,1 @ F,0,0,1,0,0,0,1 @ F,0,0,1,0,0,0,1 @ F,0,0,1,0,0,0,1 @ F,0,0,1,0,0,0,1 @ F,0,0,1,0,0,0,1 @ F,0,0,1,0,0,0,1 @ F,0,0,1,0,0,0,1 @ F,0,0,1,0,0,0,1 @ F,0,0,1,0,0,0,1 @ F,0,0,1,0,0,0,1 @ F,0,0,1,0,0,0,1 @ F,0,0,1,0,0,0,1 @ F,0,0,1,0,0,0,1 @ F,0,0,1,0,0,0,1 @ F,0,0,1,0,0,0,1 @ F,0,0,1,0,0,0,1 @ F,0,0,1,0,0,0,1 @ F,0,0,1,0,0,0,1 @ F,0,0,1,0,0,0,1 @ F,0,0,1,0,0,0,1 @ F,0,1,1,0,39.911502,0,1 @ F,0,1,1,0,39.911502,0,1 @ F,0,0,1,0,0,0,1 @ F,0,0,1,0,0,0,1 @ F,0,0,1,0,0,0,1 @ F,0,0,1,0,0,0,1 @ F,0,0,1,0,0,0,1 @ F,0,0,1,0,0,0,1 @ F,0,0,1,0,0,0,1 @ F,0,0,1,0,0,0,1 @ F,0,0,1,0,0,0,1 @ F,0,0,1,0,0,0,1 @ F,0,0,1,0,0,0,1 @ F,0,0,1,0,0,0,1 @ F,0,0,1,0,0,0,1 @ F,0,0,1,0,0,0,1 @ F,0,0,1,0,0,0,1 @ F,0,0,1,0,0,0,1 @ F,0,0,1,0,0,0,1 @ F,0,0,1,0,0,0,1 @ F,0,0,1,0,0,0,1 @ F,0,0,1,0,0,0,1 @ F,0,0,1,0,0,0,1 @ F,0,0,1,0,0,0,1 @ F,0,0,1,0,0,0,1 @ F,0,1,1,0,39.911502,0,1 @ F,0,1,1,0,39.911502,0,1 @ F,0,0,1,0,0,0,1 @ F,0,0,1,0,0,0,1 @ F,0,0,1,0,0,0,1 @ F,0,0,1,0,0,0,1 @ F,0,0,1,0,0,0,1 @ F,0,0,1,0,0,0,1 @ F,0,0,1,0,0,0,1 @ F,0,0,1,0,0,0,1 @ F,0,0,1,0,0,0,1 @ F,0,0,1,0,0,0,1 @ F,0,0,1,0,0,0,1 @ F,0,0,1,0,0,0,1 @ F,0,0,1,0,0,0,1 @ F,0,0,1,0,0,0,1 @ F,0,0,1,0,0,0,1 @ F,0,0,1,0,0,0,1 @ F,0,0,1,0,0,0,1 @ F,0,0,1,0,0,0,1 @ F,0,0,1,0,0,0,1 @ F,0,0,1,0,0,0,1 @ F,0,1,1,0,39.911502,0,1 @ F,0,1,1,0,39.911502,0,1 @ F,0,0,1,0,0,0,1 @ F,0,0,1,0,0,0,1 @ F,0,0,1,0,0,0,1 @ F,0,0,1,0,0,0,1 @ F,0,0,1,0,0,0,1 @ F,0,0,1,0,0,0,1 @ F,0,0,1,0,0,0,1 @ F,0,0,1,0,0,0,1 @ F,0,0,1,0,0,0,1 @ F,0,0,1,0,0,0,1 @ F,0,0,1,0,0,0,1 @ F,0,0,1,0,0,0,1 @ F,0,0,1,0,0,0,1 @ F,0,0,1,0,0,0,1 @ F,0,0,1,0,0,0,1 @ F,0,0,1,0,0,0,1 @ F,0,0,1,0,0,0,1 @ F,0,0,1,0,0,0,1 @ F,0,0,1,0,0,0,1 @ F,0,0,1,0,0,0,1 @ F,0,0,1,0,0,0,1 @ F,0,0,1,0,0,0,1 @ F,0,0,1,0,0,0,1 @ F,0,0,1,0,0,0,1 @ F,0,0,1,0,0,0,1 @ F,0,0,1,0,0,0,1 @ F,0,0,1,0,0,0,1 @ F,0,0,1,0,0,0,1 @ F,0,0,1,0,0,0,1 @ F,0,0,1,0,0,0,1 @ F,0,0,1,0,0,0,1 @ F,0,0,1,0,0,0,1 @ F,0,0,1,0,0,0,1 @ F,0,0,1,0,0,0,1 @ F,0,0,1,0,0,0,1 @ F,0,0,1,0,0,0,1 @ F,0,0,1,0,0,0,1 @ F,0,0,1,0,0,0,1 @ F,0,0,1,0,0,0,1 @ F,0,0,1,0,0,0,1 @ F,0,0,1,0,0,0,1 @ F,0,0,1,0,0,0,1 @ F,0,0,1,0,0,0,1 @ F,0,0,1,0,0,0,1 @ F,0,0,1,0,0,0,1 @ F,0,0,1,0,0,0,1 @ F,0,0,1,0,0,0,1 @ F,0,0,1,0,0,0,1 @ F,0,0,1,0,0,0,1 @ F,0,0,1,0,0,0,1 @ F,0,0,1,0,0,0,1"
   unit="px"
   method="auto"
   mode="F"
   radius="0"
   chamfer_steps="1"
   flexible="false"
   use_knot_distance="true"
   apply_no_radius="true"
   apply_with_radius="true"
   only_selected="true"
   hide_knots="false" /><inkscape:path-effect
   effect="spiro"
   id="path-effect866"
   is_visible="true"
   lpeversion="1" /><inkscape:path-effect
   effect="spiro"
   id="path-effect865"
   is_visible="true"
   lpeversion="1" /><inkscape:path-effect
   effect="spiro"
   id="path-effect851"
   is_visible="true"
   lpeversion="1" />
  <style
   type="text/css"
   id="style2">
   
    .fil0 {fill:#EF7F1A;fill-rule:nonzero}
   
  </style>
 <inkscape:path-effect
   effect="spiro"
   id="path-effect1214"
   is_visible="true"
   lpeversion="1" /><inkscape:path-effect
   effect="spiro"
   id="path-effect1195"
   is_visible="true"
   lpeversion="1" /><inkscape:path-effect
   effect="spiro"
   id="path-effect992"
   is_visible="true"
   lpeversion="1" /><inkscape:path-effect
   effect="spiro"
   id="path-effect1060"
   is_visible="true"
   lpeversion="1" /><inkscape:path-effect
   effect="spiro"
   id="path-effect1047"
   is_visible="true"
   lpeversion="1" /><inkscape:path-effect
   effect="spiro"
   id="path-effect1085"
   is_visible="true"
   lpeversion="1" /><inkscape:path-effect
   effect="spiro"
   id="path-effect1286"
   is_visible="true"
   lpeversion="1" /><inkscape:path-effect
   effect="spiro"
   id="path-effect1305"
   is_visible="true"
   lpeversion="1" /></defs>
 
<path
   id="path1210-6"
   style="display:inline;fill:#a51d2d;fill-rule:nonzero;stroke:none;stroke-width:2.55537px;stroke-linecap:butt;stroke-linejoin:miter;stroke-opacity:1"
   d="m 989.67982,279.02058 c 35.64088,54.65529 51.04668,122.18893 42.63438,186.89369 l -48.4458,-2.43533 c 3.01598,-67.65215 28.7185,-134.09635 72.0146,-186.167 16.7745,-20.17406 36.2031,-38.30657 58.4412,-52.22938 22.238,-13.92281 47.3588,-23.56122 73.4399,-26.41607 47.7753,-5.22951 96.5314,13.02907 132.9716,44.36506 47.396,40.75719 74.2434,101.203 86.4692,162.50597 15.6619,78.5319 9.2979,161.31146 -18.0068,236.591 -9.2223,25.42617 -20.9525,50.28146 -38.1223,71.17981 -17.1697,20.89834 -40.2102,37.69895 -66.5452,43.86395 -22.7803,5.33284 -47.1788,2.43065 -68.6758,-6.80303 -21.4969,-9.23367 -40.1206,-24.60321 -54.4452,-43.10144 -18.8117,-24.29258 -30.2678,-53.76039 -35.8188,-83.97949 -5.5511,-30.21909 -5.3912,-61.25136 -2.6082,-91.84977 7.2088,-79.25935 33.6361,-159.38627 88.8816,-216.67456 14.2724,-14.80012 30.2973,-27.90867 47.6329,-38.96409 13.3958,-34.62336 32.8439,-66.89561 57.1982,-94.91508 20.1958,-23.23508 44.1123,-43.78043 72.1287,-56.54053 28.0164,-12.76009 60.437,-17.26703 90.0078,-8.70516 33.3199,9.64737 60.5747,35.20064 77.4186,65.52508 16.8438,30.32445 24.1309,65.13408 26.7794,99.72125 3.2333,42.22389 -0.1188,84.66724 -4.5941,126.77761 -11.0011,103.51494 -28.8092,206.47399 -32.3176,310.51273 -1.3287,39.40102 -0.5982,78.87133 2.1849,118.19637 1.02,14.41298 -8.9262,22.25766 -22.5872,17.55005 l -117.6089,-40.52834 c -13.661,-4.70761 -19.16,-18.8287 -12.6948,-31.7504 7.9451,-15.87947 15.4266,-31.9909 22.4314,-48.30701 17.6236,-41.05043 32.2132,-83.35651 44.9993,-126.16124 19.1311,-64.0462 34.3393,-130.0036 34.2385,-196.846 -0.048,-31.81935 -3.765,-64.29966 -17.3374,-93.07922 -6.7862,-14.38978 -16.0213,-27.70825 -27.7176,-38.49318 -11.6964,-10.78493 -25.8971,-18.98495 -41.3154,-22.9086 -17.533,-4.46181 -36.2816,-3.28968 -53.5421,2.13169 -17.2604,5.42137 -33.0691,14.97786 -46.7661,26.79765 -27.3939,23.63959 -46.0477,55.64773 -62.7971,87.72136 -17.4503,33.41579 -33.5179,67.92697 -42.1037,104.63406 -8.5858,36.70709 -9.3348,76.01243 3.449,111.47653 4.6245,12.82909 11.1057,25.22241 20.7079,34.90581 9.6023,9.68341 22.5993,16.46433 36.2343,16.70695 7.5229,0.13386 15.0319,-1.70988 21.799,-4.9991 6.7671,-3.28923 12.802,-8.00023 17.9035,-13.53077 10.2031,-11.06108 16.5606,-25.17167 20.8535,-39.59461 12.4889,-41.95872 8.5429,-87.29353 -2.2921,-129.70944 -7.0767,-27.70324 -17.2217,-55.03516 -33.9707,-78.20885 -16.749,-23.1737 -40.6698,-41.99476 -68.4988,-48.55941 -23.4739,-5.53731 -48.5925,-2.06555 -70.7232,7.5218 -22.1307,9.58734 -41.4012,25.03771 -57.461,43.03127 -39.2034,43.92381 -59.3961,102.79406 -62.6348,161.57939 -2.5175,45.69433 4.6107,91.35803 13.3967,136.27034 3.8757,19.81181 8.0787,39.5596 12.6065,59.23262 2.7128,11.78672 -4.7452,20.67924 -16.8149,19.89865 l -112.70327,-7.28891 c -12.06973,-0.78059 -17.95349,-10.41248 -13.55515,-21.67876 13.45018,-34.45239 24.02574,-70.02705 31.57222,-106.23389 8.42703,-40.43161 13.08227,-81.75755 11.94086,-123.04226 -0.92579,-33.48577 -5.84155,-67.4446 -20.27533,-97.67406 -14.43377,-30.22946 -39.32467,-56.51452 -71.05794,-67.2455 -24.50107,-8.28533 -51.77464,-6.83595 -76.1233,1.88711 -24.34866,8.72306 -45.85704,24.41654 -63.39501,43.42624 -23.91176,25.91835 -40.76354,58.17452 -49.05516,92.44961 -8.29162,34.2751 -8.07342,70.4945 -0.046,104.83243 3.55487,15.20619 8.77359,30.35609 18.27768,42.74712 4.75205,6.19552 10.55419,11.63341 17.27515,15.6077 6.72097,3.97429 14.37709,6.45557 22.17952,6.75304 7.54402,0.28762 15.11276,-1.47016 21.92497,-4.72422 6.8122,-3.25405 12.87814,-7.97805 17.98314,-13.53987 10.21001,-11.12365 16.46085,-25.35355 20.64789,-39.86039 12.12951,-42.02517 8.05966,-87.21144 -2.29216,-129.70944 -4.58354,-18.81709 -10.40942,-37.43457 -19.13297,-54.72594 -8.72355,-17.29136 -20.45112,-33.27531 -35.57926,-45.36792 -22.53005,-18.0093 -52.11759,-26.5723 -80.89453,-24.61638 -36.38282,2.47288 -70.68986,21.35542 -95.0469,48.49505 -29.69734,33.09001 -44.87223,77.02555 -51.49057,120.99233 -9.15882,60.84364 -3.20902,123.27704 11.17916,183.10022 4.17417,17.35537 9.05327,34.54116 14.62019,51.50116 4.33021,13.19229 -2.88789,25.02627 -16.68157,26.62151 l -116.19583,13.43806 c -13.79368,1.59524 -21.18588,-7.71483 -16.99475,-20.95218 13.71584,-43.32034 23.58146,-87.8597 29.43069,-132.92166 6.02699,-46.43145 7.78573,-93.59249 2.24548,-140.08453 -5.36819,-45.04811 -17.63077,-89.33987 -37.019,-130.35506 -15.86161,-33.55473 -37.06378,-65.506 -66.89588,-87.5867 -14.91605,-11.04035 -31.87998,-19.46056 -49.93699,-23.74099 -18.05701,-4.28043 -37.21678,-4.34076 -55.06542,0.73898 -29.71363,8.45652 -54.00692,30.5159 -71.63887,55.88373 -30.7237,44.2035 -43.644848,98.68943 -46.86329,152.42524 -3.394041,56.66765 3.877024,115.4858 31.77208,164.92878 12.4546,22.07533 29.26626,42.27547 51.16238,55.04252 10.94805,6.38353 23.08214,10.82864 35.64587,12.49063 12.56372,1.66199 25.55541,0.49793 37.44863,-3.87936 14.55475,-5.35686 27.21126,-15.48053 36.1692,-28.14117 8.95795,-12.66064 14.26112,-27.77808 15.82851,-43.20792 3.20553,-31.55612 -9.80726,-64.23105 -33.51317,-85.3046 -23.7059,-21.07354 -57.43108,-30.17248 -88.61188,-24.3568 -32.85287,6.12754 -61.67502,28.02386 -79.646315,56.19992 -13.967756,21.89917 -21.858044,47.63147 -22.566797,73.59624 L 46.315933,509.82502 c 13.577282,-34.31539 37.644546,-64.39824 68.143427,-85.17579 27.34394,-18.62823 59.92514,-29.7856 93.00173,-30.58597 33.0766,-0.80037 66.51518,8.94781 93.27628,28.40404 28.57697,20.77643 48.74923,51.85232 59.89961,85.37801 11.15038,33.52569 13.70465,69.45233 11.46178,104.7124 -2.79257,43.90195 -13.32773,88.25527 -37.63616,124.91969 -12.15422,18.33221 -27.68318,34.53778 -46.06137,46.62236 -18.37819,12.08458 -39.64063,19.97117 -61.56052,21.79147 C 190.54759,808.90514 154.08135,795.03312 125.5595,772.38851 97.037649,749.7439 75.90294,718.88485 60.147685,686.05124 35.138936,633.93354 22.937034,576.4735 17.056734,518.96599 9.3596772,443.69116 12.26153,366.85688 31.223841,293.60406 c 8.203946,-31.69245 19.45669,-62.77488 35.875065,-91.09719 16.418375,-28.32231 38.160384,-53.87178 65.113554,-72.4525 43.20902,-29.78703 99.83093,-40.032263 150.20449,-25.30842 47.06585,13.75702 86.03423,47.40475 116.94144,85.47303 62.931,77.51183 97.88698,177.26194 97.10594,277.10073 l -56.9182,-2.47129 c 9.23868,-69.85965 39.37348,-136.82139 85.53484,-190.06472 17.15881,-19.79128 36.58029,-37.80122 58.73268,-51.77947 22.15239,-13.97824 47.12853,-23.85204 73.14844,-26.86598 47.77625,-5.53402 96.63438,12.85625 132.97156,44.36506 47.1915,40.92084 73.62843,101.37768 86.4692,162.50597 16.50262,78.5605 12.41156,162.30228 -18.00676,236.591 -10.4072,25.41683 -23.98916,49.86578 -42.87344,69.80842 -18.88428,19.94264 -43.41935,35.19565 -70.47788,39.90315 -21.07809,3.66706 -43.1179,0.81017 -62.937,-7.24814 -19.8191,-8.0583 -37.42395,-21.21229 -51.50022,-37.32414 -22.92576,-26.24107 -36.31427,-59.92119 -41.73679,-94.34183 -5.42251,-34.42065 -3.23067,-69.66824 2.29058,-104.07318 5.18606,-32.31622 13.37654,-64.38493 27.55051,-93.88631 14.17398,-29.50138 34.58296,-56.43591 61.26674,-75.38873 26.71335,-18.97382 59.36846,-29.45033 92.13425,-29.55877 9.63434,-25.46669 26.20001,-48.27253 47.43944,-65.30953 12.72212,-10.20492 27.17,-18.39555 42.77348,-23.14152 15.60348,-4.74597 32.38566,-5.97357 48.34194,-2.59867 16.87207,3.5686 32.43125,12.17813 45.58371,23.33226 13.15245,11.15413 24.00856,24.80194 33.42841,39.24729 z"
   sodipodi:nodetypes="accaaaaaaaaacaaaaaccaaaaaaaacaaaaccaaaaaaaaaaaaaccaaaaaaaaaaaccaaaaaaaaaaccaaaaaaasacaaa"
   inkscape:original-d="m 989.67982,279.02058 c 34.08308,54.04938 42.63438,186.89369 42.63438,186.89369 l -48.4458,-2.43533 c 0,0 29.0951,-135.32353 72.0146,-186.167 33.0159,-39.1114 80.995,-73.13622 131.8811,-78.64545 46.4543,-5.02942 97.2914,14.19509 132.9716,44.36506 46.8547,39.61881 73.8873,102.45009 86.4692,162.50597 16.2179,77.41114 13.3083,163.9627 -18.0068,236.591 -20.5269,47.60739 -54.1157,103.54021 -104.6675,115.04376 -43.1796,9.82593 -94.5781,-16.04699 -123.121,-49.90447 -38.6686,-45.86847 -43.6431,-116.06334 -38.427,-175.82926 6.7874,-77.76973 42.4354,-153.92943 88.8816,-216.67456 12.2046,-16.48744 47.6329,-38.96409 47.6329,-38.96409 0,0 29.0773,-70.96274 57.1982,-94.91508 44.35,-37.77563 106.7063,-83.173525 162.1365,-65.24569 61.9583,20.03921 87.2571,102.37025 104.198,165.24633 11.0012,40.83086 -1.638,84.59412 -4.5941,126.77761 -7.2747,103.80874 -28.4849,206.52001 -32.3176,310.51273 -1.7721,48.07914 4.3331,144.2703 4.3331,144.2703 L 1383.3715,804.87 c 0,0 24.2661,-47.11149 34.472,-71.53353 17.2157,-41.19622 33.6326,-82.98359 44.9993,-126.16124 16.9552,-64.40611 45.4271,-131.19205 34.2385,-196.846 -9.9109,-58.15705 -28.7978,-141.60219 -86.3704,-154.481 -65.2299,-14.59172 -127.4033,60.14206 -163.1053,116.6507 -39.0873,61.86689 -62.2803,146.84903 -38.6547,216.11059 8.2704,24.24574 31.3273,51.97869 56.9422,51.61276 27.9763,-0.39967 49.8125,-32.29023 60.556,-58.12448 16.6047,-39.9282 8.7811,-87.908 -2.2921,-129.70944 -19.4448,-68.78274 -49.9288,-112.92199 -102.4695,-126.76826 -44.4145,-11.70473 -95.8012,17.98028 -128.1842,50.55307 -40.7264,40.9651 -54.8083,104.34717 -62.6348,161.57939 -6.184,45.22155 6.2677,91.1881 13.3967,136.27034 4.2929,27.14764 17.6458,80.54465 17.6458,80.54465 L 905.49935,744.45188 c 11.3355,-41.06728 31.04282,-83.17836 39.87125,-126.49927 8.22846,-40.37686 20.30935,-82.6942 11.94086,-123.04226 -12.76197,-61.53086 -32.87132,-141.87363 -91.33327,-164.91956 -45.4905,-17.93254 -106.17554,9.54714 -139.51831,45.31335 -46.20966,49.56829 -65.25875,131.46959 -49.10113,197.28204 6.91585,28.16932 28.74996,63.94135 57.73235,65.10786 27.95649,1.12522 49.81247,-32.29023 60.556,-58.12448 16.60469,-39.9282 8.78107,-87.908 -2.29216,-129.70944 -9.73667,-36.75593 -25.21742,-76.09684 -54.71223,-100.09386 -21.86351,-17.78818 -52.81841,-27.09904 -80.89453,-24.61638 -35.42966,3.1329 -70.78479,22.48686 -95.0469,48.49505 -29.89867,32.05039 -44.04547,77.79825 -51.49057,120.99233 -10.38638,60.25849 0.33354,122.92269 11.17916,183.10022 4.64982,25.7998 22.91428,75.23423 22.91428,75.23423 L 379.157,772.18665 c 11.33547,-41.06728 30.70594,-103.46089 37.4116,-156.76228 5.82932,-46.3356 8.31508,-93.77979 2.24548,-140.08453 -5.87063,-44.78674 -10.11955,-94.0682 -37.019,-130.35506 -40.57437,-54.73407 -103.83554,-113.68073 -171.89829,-110.58871 -30.25469,1.37444 -54.45575,30.94428 -71.63887,55.88373 -30.15853,43.77187 -43.995119,99.34712 -46.86329,152.42524 -3.020954,55.90551 -1.83548,120.15062 31.77208,164.92878 27.93518,37.22038 78.98558,74.43528 124.25688,63.65379 28.62808,-6.81786 55.07236,-42.08141 51.99771,-71.34909 -5.71614,-54.41209 -67.50743,-106.45739 -122.12505,-109.6614 -32.43691,-1.90283 -60.58441,29.88608 -79.646315,56.19992 -15.053175,20.78002 -7.819943,69.1827 -22.566797,73.59624 L 46.315933,509.82502 c 0,0 35.464692,-69.23373 68.143427,-85.17579 55.80994,-27.22644 135.02643,-37.24336 186.27801,-2.18193 55.86063,38.21449 80.98095,123.09622 71.36139,190.09041 C 360.64204,692.34663 306.5239,793.72086 226.84071,805.89123 159.1918,816.22355 98.784678,742.53411 60.147685,686.05124 27.673764,638.57808 22.50171,576.22513 17.056734,518.96599 9.9312871,444.03509 8.407447,365.33149 31.223841,293.60406 50.646147,232.54656 79.05349,165.82262 132.21246,130.05437 c 42.12575,-28.3445 100.79231,-36.988565 150.20449,-25.30842 46.98775,11.10706 88.17136,46.69807 116.94144,85.47303 58.32013,78.60113 97.10594,277.10073 97.10594,277.10073 l -56.9182,-2.47129 c 0,0 39.30898,-138.20022 85.53484,-190.06472 34.05548,-38.20959 80.995,-73.13622 131.88112,-78.64545 46.45433,-5.02942 97.29142,14.19509 132.97156,44.36506 46.8547,39.61881 73.8873,102.45009 86.4692,162.50597 16.21789,77.41114 15.59839,164.99352 -18.00676,236.591 -22.34207,47.60093 -61.80392,99.32495 -113.35132,109.71157 -40.13047,8.08615 -88.13334,-13.20436 -114.43722,-44.57228 -43.32854,-51.67017 -53.95744,-132.5622 -39.44621,-198.41501 10.49575,-47.63033 40.04104,-128.27305 88.81725,-169.27504 24.68899,-20.75392 92.13425,-29.55877 92.13425,-29.55877 0,0 25.36916,-49.91847 47.43944,-65.30953 25.88735,-18.05295 60.16702,-31.92571 91.11542,-25.74019 32.94589,6.58475 61.09136,34.16059 79.01212,62.57955 z"
   inkscape:path-effect="#path-effect1305;#path-effect2754" /> <text
   text-anchor="middle"
   x="1470.1733"
   y="838.07733"
   id="bottom"
   inkscape:label="bottom"
   style="clip-rule:evenodd;fill-rule:evenodd;image-rendering:optimizeQuality;shape-rendering:geometricPrecision;text-rendering:geometricPrecision">✛</text></svg>
