<?xml version="1.0" encoding="UTF-8" standalone="no"?>
<svg
   xmlns:dc="http://purl.org/dc/elements/1.1/"
   xmlns:cc="http://creativecommons.org/ns#"
   xmlns:rdf="http://www.w3.org/1999/02/22-rdf-syntax-ns#"
   xmlns:svg="http://www.w3.org/2000/svg"
   xmlns="http://www.w3.org/2000/svg"
   xmlns:sodipodi="http://sodipodi.sourceforge.net/DTD/sodipodi-0.dtd"
   xmlns:inkscape="http://www.inkscape.org/namespaces/inkscape"
   xml:space="preserve"
   width="1000"
   height="1000"
   version="1.1"
   style="clip-rule:evenodd;fill-rule:evenodd;image-rendering:optimizeQuality;shape-rendering:geometricPrecision;text-rendering:geometricPrecision"
   viewBox="0 0 1000 1000"
   id="svg10"
   sodipodi:docname="ഞ്ജു.svg"
   inkscape:version="1.0.2 (e86c870879, 2021-01-15)"><metadata
   id="metadata14"><rdf:RDF><cc:Work
       rdf:about=""><dc:format>image/svg+xml</dc:format><dc:type
         rdf:resource="http://purl.org/dc/dcmitype/StillImage" /><dc:title /></cc:Work></rdf:RDF></metadata><sodipodi:namedview
   pagecolor="#ffffff"
   bordercolor="#666666"
   borderopacity="1"
   objecttolerance="10"
   gridtolerance="10"
   guidetolerance="10"
   inkscape:pageopacity="0"
   inkscape:pageshadow="2"
   inkscape:window-width="1920"
   inkscape:window-height="1007"
   id="namedview12"
   showgrid="false"
   inkscape:zoom="0.6002692"
   inkscape:cx="768.05481"
   inkscape:cy="619.37836"
   inkscape:window-x="1920"
   inkscape:window-y="0"
   inkscape:window-maximized="1"
   inkscape:current-layer="g876"
   showguides="true"
   inkscape:guide-bbox="true"
   inkscape:document-rotation="0"><sodipodi:guide
     position="0,1000"
     orientation="0,1"
     id="guide16"
     inkscape:label=""
     inkscape:locked="true"
     inkscape:color="rgb(0,0,255)" /><sodipodi:guide
     position="1763.3122,2036.1693"
     orientation="1000,0"
     id="guide18" /><sodipodi:guide
     position="0,200"
     orientation="0,1"
     id="guide20"
     inkscape:label="base"
     inkscape:locked="true"
     inkscape:color="rgb(0,0,255)" /><inkscape:grid
     type="xygrid"
     id="grid24"
     originx="-473.37552"
     originy="-489.69235" /><sodipodi:guide
     position="0,0"
     orientation="0,1"
     id="guide34"
     inkscape:label="bottom"
     inkscape:locked="true"
     inkscape:color="rgb(0,0,255)" /><sodipodi:guide
     position="225.05109,1693.3186"
     orientation="0,1"
     id="guide44"
     inkscape:label=""
     inkscape:locked="false"
     inkscape:color="rgb(0,0,255)" /><sodipodi:guide
     position="0,900"
     orientation="0,1"
     id="guide46"
     inkscape:label=""
     inkscape:locked="true"
     inkscape:color="rgb(0,0,255)" /><sodipodi:guide
     position="1376.4031,538.20422"
     orientation="-1,0"
     id="guide867"
     inkscape:label="width"
     inkscape:locked="false"
     inkscape:color="rgb(0,0,255)" /></sodipodi:namedview>
 <defs
   id="defs4"><inkscape:path-effect
   effect="fillet_chamfer"
   id="path-effect856"
   is_visible="true"
   lpeversion="1"
   satellites_param="F,0,0,1,0,0,0,1 @ F,0,0,1,0,0,0,1 @ F,0,1,1,0,32.835131,0,1 @ F,0,1,1,0,32.835131,0,1 @ F,0,0,1,0,0,0,1 @ F,0,0,1,0,0,0,1 @ F,0,0,1,0,0,0,1 @ F,0,0,1,0,0,0,1 @ F,0,0,1,0,0,0,1 @ F,0,0,1,0,0,0,1 @ F,0,0,1,0,0,0,1 @ F,0,0,1,0,0,0,1 @ F,0,0,1,0,0,0,1 @ F,0,0,1,0,0,0,1 @ F,0,0,1,0,0,0,1 @ F,0,0,1,0,0,0,1 @ F,0,0,1,0,0,0,1 @ F,0,0,1,0,0,0,1 @ F,0,0,1,0,0,0,1 @ F,0,0,1,0,0,0,1 @ F,0,0,1,0,0,0,1 @ F,0,0,1,0,0,0,1 @ F,0,0,1,0,0,0,1 @ F,0,0,1,0,0,0,1 @ F,0,0,1,0,0,0,1 @ F,0,0,1,0,0,0,1 @ F,0,0,1,0,0,0,1 @ F,0,0,1,0,0,0,1 @ F,0,0,1,0,0,0,1 @ F,0,0,1,0,0,0,1 @ F,0,0,1,0,0,0,1 @ F,0,0,1,0,0,0,1 @ F,0,0,1,0,0,0,1 @ F,0,0,1,0,0,0,1 @ F,0,0,1,0,0,0,1 @ F,0,0,1,0,0,0,1 @ F,0,0,1,0,0,0,1 @ F,0,0,1,0,0,0,1 @ F,0,0,1,0,0,0,1 @ F,0,0,1,0,0,0,1 @ F,0,0,1,0,0,0,1 @ F,0,0,1,0,0,0,1 @ F,0,0,1,0,0,0,1 @ F,0,0,1,0,0,0,1 @ F,0,0,1,0,0,0,1 @ F,0,0,1,0,0,0,1 @ F,0,0,1,0,0,0,1 @ F,0,0,1,0,0,0,1 @ F,0,0,1,0,0,0,1 @ F,0,0,1,0,0,0,1 @ F,0,0,1,0,0,0,1 @ F,0,0,1,0,0,0,1 @ F,0,0,1,0,0,0,1 @ F,0,0,1,0,0,0,1 @ F,0,0,1,0,0,0,1 @ F,0,0,1,0,0,0,1 @ F,0,0,1,0,0,0,1 @ F,0,0,1,0,0,0,1 @ F,0,0,1,0,0,0,1 @ F,0,0,1,0,0,0,1 @ F,0,0,1,0,0,0,1 @ F,0,0,1,0,0,0,1 @ F,0,0,1,0,0,0,1 @ F,0,0,1,0,0,0,1 @ F,0,0,1,0,0,0,1 @ F,0,0,1,0,0,0,1 @ F,0,0,1,0,0,0,1 @ F,0,0,1,0,0,0,1 @ F,0,0,1,0,0,0,1 @ F,0,0,1,0,0,0,1 @ F,0,0,1,0,0,0,1 @ F,0,0,1,0,0,0,1 @ F,0,0,1,0,0,0,1 @ F,0,0,1,0,0,0,1 @ F,0,0,1,0,0,0,1 @ F,0,0,1,0,0,0,1 @ F,0,0,1,0,0,0,1 @ F,0,0,1,0,0,0,1 @ F,0,0,1,0,0,0,1 @ F,0,0,1,0,0,0,1 @ F,0,0,1,0,0,0,1 @ F,0,0,1,0,0,0,1 @ F,0,0,1,0,0,0,1 @ F,0,0,1,0,0,0,1 @ F,0,0,1,0,0,0,1 @ F,0,0,1,0,0,0,1 @ F,0,0,1,0,0,0,1 @ F,0,0,1,0,0,0,1 @ F,0,0,1,0,0,0,1 @ F,0,0,1,0,0,0,1 @ F,0,0,1,0,0,0,1 @ F,0,0,1,0,0,0,1 @ F,0,0,1,0,0,0,1 @ F,0,0,1,0,0,0,1 @ F,0,0,1,0,0,0,1 @ F,0,0,1,0,0,0,1 @ F,0,0,1,0,0,0,1 @ F,0,0,1,0,0,0,1 @ F,0,0,1,0,0,0,1 @ F,0,0,1,0,0,0,1 @ F,0,0,1,0,0,0,1 @ F,0,0,1,0,0,0,1 @ F,0,0,1,0,0,0,1 @ F,0,0,1,0,0,0,1 @ F,0,1,1,0,32.835131,0,1 @ F,0,1,1,0,32.835131,0,1 @ F,0,0,1,0,0,0,1 @ F,0,0,1,0,0,0,1 @ F,0,0,1,0,0,0,1 @ F,0,0,1,0,0,0,1 @ F,0,0,1,0,0,0,1 @ F,0,0,1,0,0,0,1 @ F,0,0,1,0,0,0,1 @ F,0,0,1,0,0,0,1 @ F,0,0,1,0,0,0,1 @ F,0,0,1,0,0,0,1 @ F,0,0,1,0,0,0,1 @ F,0,0,1,0,0,0,1 @ F,0,0,1,0,0,0,1 @ F,0,0,1,0,0,0,1 @ F,0,0,1,0,0,0,1 @ F,0,0,1,0,0,0,1 @ F,0,0,1,0,0,0,1 @ F,0,0,1,0,0,0,1 @ F,0,0,1,0,0,0,1 @ F,0,0,1,0,0,0,1 @ F,0,0,1,0,0,0,1 @ F,0,0,1,0,0,0,1 @ F,0,0,1,0,0,0,1 @ F,0,1,1,0,32.835131,0,1 @ F,0,1,1,0,32.835131,0,1 @ F,0,0,1,0,0,0,1 @ F,0,0,1,0,0,0,1 @ F,0,0,1,0,0,0,1 @ F,0,0,1,0,0,0,1 @ F,0,0,1,0,0,0,1 @ F,0,0,1,0,0,0,1 @ F,0,0,1,0,0,0,1 @ F,0,0,1,0,0,0,1 @ F,0,0,1,0,0,0,1 @ F,0,0,1,0,0,0,1 @ F,0,0,1,0,0,0,1 @ F,0,0,1,0,0,0,1 @ F,0,0,1,0,0,0,1 @ F,0,0,1,0,0,0,1 @ F,0,0,1,0,0,0,1 @ F,0,0,1,0,0,0,1 @ F,0,0,1,0,0,0,1 @ F,0,0,1,0,0,0,1 @ F,0,0,1,0,0,0,1 @ F,0,0,1,0,0,0,1 @ F,0,0,1,0,0,0,1 @ F,0,0,1,0,0,0,1 @ F,0,0,1,0,0,0,1 @ F,0,0,1,0,0,0,1 @ F,0,0,1,0,0,0,1 @ F,0,0,1,0,0,0,1 @ F,0,0,1,0,0,0,1 @ F,0,0,1,0,0,0,1 @ F,0,0,1,0,0,0,1 @ F,0,0,1,0,0,0,1 @ F,0,0,1,0,0,0,1 @ F,0,0,1,0,0,0,1 @ F,0,0,1,0,0,0,1 @ F,0,0,1,0,0,0,1 @ F,0,1,1,0,32.835131,0,1 @ F,0,1,1,0,32.835131,0,1"
   unit="px"
   method="auto"
   mode="F"
   radius="0"
   chamfer_steps="1"
   flexible="false"
   use_knot_distance="true"
   apply_no_radius="true"
   apply_with_radius="true"
   only_selected="true"
   hide_knots="false" /><inkscape:path-effect
   effect="fillet_chamfer"
   id="path-effect855"
   is_visible="true"
   lpeversion="1"
   satellites_param="F,0,0,1,0,0,0,1 @ F,0,0,1,0,0,0,1 @ F,0,0,1,0,0,0,1 @ F,0,0,1,0,0,0,1 @ F,0,0,1,0,0,0,1 @ F,0,0,1,0,0,0,1 @ F,0,0,1,0,0,0,1 @ F,0,0,1,0,0,0,1 @ F,0,0,1,0,0,0,1 @ F,0,0,1,0,0,0,1 @ F,0,0,1,0,0,0,1 @ F,0,0,1,0,0,0,1 @ F,0,0,1,0,0,0,1 @ F,0,0,1,0,0,0,1 @ F,0,0,1,0,0,0,1 @ F,0,0,1,0,0,0,1 @ F,0,0,1,0,0,0,1 @ F,0,0,1,0,0,0,1 @ F,0,0,1,0,0,0,1 @ F,0,0,1,0,0,0,1 @ F,0,0,1,0,0,0,1 @ F,0,0,1,0,0,0,1 @ F,0,0,1,0,0,0,1 @ F,0,0,1,0,0,0,1 @ F,0,0,1,0,0,0,1 @ F,0,0,1,0,0,0,1 @ F,0,0,1,0,0,0,1 @ F,0,0,1,0,0,0,1 @ F,0,0,1,0,0,0,1 @ F,0,0,1,0,0,0,1 @ F,0,0,1,0,0,0,1 @ F,0,0,1,0,0,0,1 @ F,0,0,1,0,0,0,1 @ F,0,0,1,0,0,0,1 @ F,0,0,1,0,0,0,1 @ F,0,0,1,0,0,0,1 @ F,0,0,1,0,0,0,1 @ F,0,0,1,0,0,0,1 @ F,0,0,1,0,0,0,1 @ F,0,0,1,0,0,0,1 @ F,0,0,1,0,0,0,1 @ F,0,0,1,0,0,0,1 @ F,0,0,1,0,0,0,1 @ F,0,0,1,0,0,0,1 @ F,0,0,1,0,0,0,1 @ F,0,0,1,0,0,0,1 @ F,0,0,1,0,0,0,1 @ F,0,0,1,0,0,0,1 @ F,0,0,1,0,0,0,1 @ F,0,0,1,0,0,0,1 @ F,0,0,1,0,0,0,1 @ F,0,0,1,0,0,0,1 @ F,0,0,1,0,0,0,1 @ F,0,0,1,0,0,0,1 @ F,0,0,1,0,0,0,1 @ F,0,0,1,0,0,0,1 @ F,0,0,1,0,0,0,1 @ F,0,0,1,0,0,0,1 @ F,0,0,1,0,0,0,1 @ F,0,0,1,0,0,0,1 @ F,0,0,1,0,0,0,1 @ F,0,0,1,0,0,0,1 @ F,0,0,1,0,0,0,1 @ F,0,0,1,0,0,0,1 @ F,0,0,1,0,0,0,1 @ F,0,0,1,0,0,0,1 @ F,0,0,1,0,0,0,1 @ F,0,0,1,0,0,0,1 @ F,0,0,1,0,0,0,1 @ F,0,0,1,0,0,0,1 @ F,0,0,1,0,0,0,1 @ F,0,0,1,0,0,0,1 @ F,0,0,1,0,0,0,1 @ F,0,0,1,0,0,0,1 @ F,0,0,1,0,0,0,1 @ F,0,0,1,0,0,0,1 @ F,0,0,1,0,0,0,1 @ F,0,0,1,0,0,0,1 @ F,0,0,1,0,0,0,1 @ F,0,0,1,0,0,0,1 @ F,0,0,1,0,0,0,1 @ F,0,0,1,0,0,0,1 @ F,0,0,1,0,0,0,1 @ F,0,0,1,0,0,0,1 @ F,0,0,1,0,0,0,1 @ F,0,0,1,0,0,0,1 @ F,0,0,1,0,0,0,1 @ F,0,0,1,0,0,0,1 @ F,0,0,1,0,0,0,1 @ F,0,0,1,0,0,0,1 @ F,0,0,1,0,0,0,1 @ F,0,0,1,0,0,0,1 @ F,0,1,1,0,22.692811,0,1 @ F,0,1,1,0,22.692811,0,1 @ F,0,0,1,0,0,0,1 @ F,0,0,1,0,0,0,1 @ F,0,0,1,0,0,0,1 @ F,0,0,1,0,0,0,1 @ F,0,0,1,0,0,0,1 @ F,0,0,1,0,0,0,1 @ F,0,0,1,0,0,0,1 @ F,0,0,1,0,0,0,1 @ F,0,0,1,0,0,0,1 @ F,0,0,1,0,0,0,1 @ F,0,0,1,0,0,0,1 @ F,0,0,1,0,0,0,1 @ F,0,0,1,0,0,0,1 @ F,0,0,1,0,0,0,1 @ F,0,0,1,0,0,0,1 @ F,0,0,1,0,0,0,1 @ F,0,0,1,0,0,0,1 @ F,0,0,1,0,0,0,1 @ F,0,0,1,0,0,0,1 @ F,0,0,1,0,0,0,1 @ F,0,0,1,0,0,0,1 @ F,0,0,1,0,0,0,1 @ F,0,0,1,0,0,0,1 @ F,0,1,1,0,22.692811,0,1 @ F,0,1,1,0,22.692811,0,1 @ F,0,0,1,0,0,0,1 @ F,0,0,1,0,0,0,1 @ F,0,0,1,0,0,0,1 @ F,0,0,1,0,0,0,1 @ F,0,0,1,0,0,0,1 @ F,0,0,1,0,0,0,1 @ F,0,0,1,0,0,0,1 @ F,0,0,1,0,0,0,1 @ F,0,0,1,0,0,0,1 @ F,0,0,1,0,0,0,1 @ F,0,0,1,0,0,0,1 @ F,0,0,1,0,0,0,1 @ F,0,0,1,0,0,0,1 @ F,0,0,1,0,0,0,1 @ F,0,0,1,0,0,0,1 @ F,0,0,1,0,0,0,1 @ F,0,0,1,0,0,0,1 @ F,0,0,1,0,0,0,1 @ F,0,0,1,0,0,0,1 @ F,0,0,1,0,0,0,1 @ F,0,0,1,0,0,0,1 @ F,0,0,1,0,0,0,1 @ F,0,0,1,0,0,0,1 @ F,0,0,1,0,0,0,1 @ F,0,0,1,0,0,0,1 @ F,0,0,1,0,0,0,1 @ F,0,0,1,0,0,0,1 @ F,0,0,1,0,0,0,1 @ F,0,0,1,0,0,0,1"
   unit="px"
   method="auto"
   mode="F"
   radius="0"
   chamfer_steps="1"
   flexible="false"
   use_knot_distance="true"
   apply_no_radius="true"
   apply_with_radius="true"
   only_selected="true"
   hide_knots="false" /><inkscape:path-effect
   effect="fillet_chamfer"
   id="path-effect854"
   is_visible="true"
   lpeversion="1"
   satellites_param="F,0,0,1,0,0,0,1 @ F,0,0,1,0,0,0,1 @ F,0,0,1,0,0,0,1 @ F,0,0,1,0,0,0,1 @ F,0,0,1,0,0,0,1 @ F,0,0,1,0,0,0,1 @ F,0,0,1,0,0,0,1 @ F,0,0,1,0,0,0,1 @ F,0,0,1,0,0,0,1 @ F,0,0,1,0,0,0,1 | F,0,0,1,0,0,0,1 @ F,0,0,1,0,0,0,1 @ F,0,0,1,0,0,0,1 @ F,0,0,1,0,0,0,1 @ F,0,0,1,0,0,0,1 @ F,0,0,1,0,0,0,1 @ F,0,0,1,0,0,0,1 @ F,0,0,1,0,0,0,1 @ F,0,0,1,0,0,0,1 @ F,0,0,1,0,0,0,1 | F,0,0,1,0,0,0,1 @ F,0,0,1,0,0,0,1 @ F,0,0,1,0,0,0,1 @ F,0,0,1,0,0,0,1 @ F,0,0,1,0,0,0,1 @ F,0,0,1,0,0,0,1 @ F,0,0,1,0,0,0,1 @ F,0,0,1,0,0,0,1 @ F,0,0,1,0,0,0,1 @ F,0,0,1,0,0,0,1 @ F,0,0,1,0,0,0,1 @ F,0,0,1,0,0,0,1 @ F,0,0,1,0,0,0,1 @ F,0,0,1,0,0,0,1 @ F,0,0,1,0,0,0,1 @ F,0,0,1,0,0,0,1 @ F,0,0,1,0,0,0,1 @ F,0,0,1,0,0,0,1 @ F,0,0,1,0,0,0,1 @ F,0,0,1,0,0,0,1 @ F,0,0,1,0,0,0,1 @ F,0,0,1,0,0,0,1 @ F,0,0,1,0,0,0,1 @ F,0,0,1,0,0,0,1 @ F,0,0,1,0,0,0,1 @ F,0,0,1,0,0,0,1 @ F,0,0,1,0,0,0,1 @ F,0,0,1,0,0,0,1 @ F,0,0,1,0,0,0,1 @ F,0,0,1,0,0,0,1 @ F,0,0,1,0,0,0,1 @ F,0,0,1,0,0,0,1 @ F,0,0,1,0,0,0,1 @ F,0,0,1,0,0,0,1 @ F,0,0,1,0,0,0,1 @ F,0,0,1,0,0,0,1 @ F,0,0,1,0,0,0,1 @ F,0,0,1,0,0,0,1 @ F,0,0,1,0,0,0,1 @ F,0,0,1,0,0,0,1 @ F,0,0,1,0,0,0,1 @ F,0,0,1,0,0,0,1 @ F,0,0,1,0,0,0,1 @ F,0,0,1,0,0,0,1 @ F,0,0,1,0,0,0,1 @ F,0,0,1,0,40.388537,0,1 @ F,0,0,1,0,40.388537,0,1 @ F,0,0,1,0,0,0,1 @ F,0,0,1,0,0,0,1 @ F,0,0,1,0,0,0,1 @ F,0,0,1,0,0,0,1 @ F,0,0,1,0,0,0,1 @ F,0,0,1,0,0,0,1 @ F,0,0,1,0,0,0,1 @ F,0,0,1,0,0,0,1 @ F,0,0,1,0,0,0,1 @ F,0,0,1,0,0,0,1 @ F,0,0,1,0,0,0,1 @ F,0,0,1,0,0,0,1 @ F,0,0,1,0,0,0,1 @ F,0,0,1,0,0,0,1 @ F,0,0,1,0,0,0,1 @ F,0,0,1,0,0,0,1 @ F,0,0,1,0,0,0,1 @ F,0,0,1,0,0,0,1 @ F,0,0,1,0,0,0,1 @ F,0,0,1,0,0,0,1 @ F,0,1,1,0,33.312029,0,1 @ F,0,1,1,0,33.312029,0,1 @ F,0,0,1,0,0,0,1 @ F,0,0,1,0,0,0,1 @ F,0,0,1,0,0,0,1 @ F,0,0,1,0,0,0,1 @ F,0,0,1,0,0,0,1 @ F,0,0,1,0,0,0,1 @ F,0,0,1,0,0,0,1 @ F,0,0,1,0,0,0,1 @ F,0,0,1,0,0,0,1 @ F,0,0,1,0,0,0,1 @ F,0,0,1,0,0,0,1 @ F,0,0,1,0,0,0,1 @ F,0,0,1,0,0,0,1 @ F,0,0,1,0,0,0,1 @ F,0,0,1,0,0,0,1 @ F,0,0,1,0,0,0,1 @ F,0,0,1,0,0,0,1 @ F,0,0,1,0,0,0,1 @ F,0,0,1,0,0,0,1 @ F,0,0,1,0,0,0,1 @ F,0,0,1,0,0,0,1 @ F,0,0,1,0,0,0,1 @ F,0,0,1,0,0,0,1 @ F,0,0,1,0,0,0,1 @ F,0,0,1,0,0,0,1 @ F,0,0,1,0,0,0,1 @ F,0,0,1,0,0,0,1 @ F,0,0,1,0,0,0,1 @ F,0,0,1,0,0,0,1 @ F,0,0,1,0,0,0,1 @ F,0,0,1,0,0,0,1 @ F,0,0,1,0,0,0,1 @ F,0,0,1,0,0,0,1 @ F,0,0,1,0,0,0,1 @ F,0,0,1,0,0,0,1 @ F,0,0,1,0,0,0,1"
   unit="px"
   method="auto"
   mode="F"
   radius="0"
   chamfer_steps="1"
   flexible="false"
   use_knot_distance="true"
   apply_no_radius="true"
   apply_with_radius="true"
   only_selected="true"
   hide_knots="false" /><inkscape:path-effect
   effect="spiro"
   id="path-effect880"
   is_visible="true"
   lpeversion="1" /><inkscape:path-effect
   effect="spiro"
   id="path-effect865"
   is_visible="true"
   lpeversion="1" /><inkscape:path-effect
   effect="spiro"
   id="path-effect851"
   is_visible="true"
   lpeversion="1" />
  <style
   type="text/css"
   id="style2">
   <![CDATA[
    .fil0 {fill:#EF7F1A;fill-rule:nonzero}
   ]]>
  </style>
 <inkscape:path-effect
   effect="spiro"
   id="path-effect1214"
   is_visible="true"
   lpeversion="1" /><inkscape:path-effect
   effect="spiro"
   id="path-effect1195"
   is_visible="true"
   lpeversion="1" /><inkscape:path-effect
   effect="spiro"
   id="path-effect992"
   is_visible="true"
   lpeversion="1" /><inkscape:path-effect
   effect="spiro"
   id="path-effect1060"
   is_visible="true"
   lpeversion="1" /><inkscape:path-effect
   effect="spiro"
   id="path-effect1047"
   is_visible="true"
   lpeversion="1" /><inkscape:path-effect
   effect="spiro"
   id="path-effect1085"
   is_visible="true"
   lpeversion="1" /><inkscape:path-effect
   effect="spiro"
   id="path-effect1286"
   is_visible="true"
   lpeversion="1" /><inkscape:path-effect
   effect="spiro"
   id="path-effect1305"
   is_visible="true"
   lpeversion="1" /><inkscape:path-effect
   effect="spiro"
   id="path-effect847"
   is_visible="true"
   lpeversion="1" /><style
   type="text/css"
   id="style2-6">
   <![CDATA[
    .fil0 {fill:#EF7F1A;fill-rule:nonzero}
   ]]>
  </style><inkscape:path-effect
   effect="spiro"
   id="path-effect1049"
   is_visible="true"
   lpeversion="1" /></defs>
 
<g
   style="clip-rule:evenodd;fill-rule:evenodd;image-rendering:optimizeQuality;shape-rendering:geometricPrecision;text-rendering:geometricPrecision"
   id="g876"><path
     id="path1102-7-3"
     style="display:inline;opacity:0.950135;fill:#a51d2d;fill-opacity:1;fill-rule:nonzero;stroke:none;stroke-width:2.40988;stroke-linecap:round;stroke-linejoin:bevel;stroke-miterlimit:4;stroke-dasharray:none;paint-order:stroke fill markers"
     d="m 1052.3257,986.21462 c 70.1106,-2.61353 139.3649,14.83858 209.3975,19.05278 40.6437,2.4457 81.5545,0.3993 121.7553,-6.06172 17.9019,-2.87717 28.0863,-20.26576 22.955,-37.65897 L 1390.3712,907.102 c -5.1313,-17.39321 -22.1723,-24.36106 -38.6878,-16.88107 -41.8845,18.96985 -86.6325,31.62042 -132.2606,37.31466 -76.8851,9.59502 -156.1746,-0.76191 -228.01551,-29.78381 l 12.27081,59.74667 c 75.9745,-6.39992 150.6623,-27.73317 218.5553,-62.42648 37.7758,-19.30341 73.9264,-43.10985 101.728,-75.15204 27.8016,-32.04219 46.7618,-73.07304 46.5767,-115.49469 -0.1204,-27.59794 -8.3536,-54.98667 -22.6541,-78.59079 -14.3006,-23.60413 -34.5594,-43.43539 -57.9612,-58.06482 -46.8034,-29.25885 -105.0402,-37.05348 -159.5562,-28.41355 -37.8685,6.00156 -75.2296,20.01768 -104.1162,45.22903 -14.4432,12.60567 -26.61384,27.91976 -34.94675,45.18457 -8.3329,17.26481 -12.76717,36.49468 -12.07481,55.65275 1.23693,34.22655 19.32684,67.06222 46.46866,87.95021 27.1418,20.88798 62.6482,29.96571 96.734,26.62736 33.8785,-3.31805 66.3759,-18.63596 90.8693,-42.27566 24.4934,-23.6397 40.9031,-55.39599 46.545,-88.96578 3.5541,-21.14726 2.9136,-43.06669 -2.5812,-63.79457 -5.4949,-20.72788 -15.8986,-40.22605 -30.5944,-55.84248 -27.5538,-29.28001 -68.5112,-43.18761 -108.6721,-45.09378 -44.1024,-2.09324 -88.1618,9.048 -128.285,27.47418 -40.12325,18.42618 -76.59923,43.96566 -111.0386,71.59407 -35.87624,28.78112 -70.02637,60.13352 -109.53033,83.68972 -16.09638,9.59827 -33.70171,18.0248 -52.43826,18.42724 -9.35409,0.20091 -18.85678,-1.6897 -27.02713,-6.24873 -8.17035,-4.55903 -14.92101,-11.89901 -17.98755,-20.73845 -2.07023,-5.96753 -2.43432,-12.4728 -1.37656,-18.70003 1.05776,-6.22723 3.50986,-12.17958 6.85784,-17.53572 6.69595,-10.71229 16.78716,-18.89055 27.44521,-25.6725 16.30726,-10.37667 34.24937,-17.90806 52.35623,-24.67147 83.04506,-31.01962 171.19659,-46.82765 253.97725,-78.54611 61.2134,-23.45468 119.7482,-56.01259 166.6705,-101.7892 38.7708,-37.82416 69.6347,-85.87503 77.8142,-139.41882 5.6599,-37.04993 -0.1453,-76.37687 -19.5922,-108.4167 -19.4898,-32.11056 -53.1875,-55.99622 -90.4603,-60.65214 -27.1919,-3.396665 -55.0259,3.27483 -79.4943,15.61313 -38.1014,19.21282 -68.34062,51.55492 -91.32658,87.50619 -24.52445,38.35755 -41.61745,81.44737 -50.05583,126.18599 l 50.42335,-4.71998 c -5.21092,-47.84572 -21.03931,-94.5059 -46.01508,-135.64685 -17.7089,-29.17072 -40.62832,-56.11624 -70.49184,-72.63006 -25.22491,-13.94878 -54.76363,-19.847259 -83.45004,-17.02691 -40.25246,3.95748 -77.77678,24.80868 -106.02828,53.75302 -28.21124,28.90309 -47.5916,65.24246 -63.60083,102.32301 -18.28835,42.35944 -32.88313,87.95484 -28.73591,133.90684 2.43271,26.95492 11.73945,53.86983 29.77276,74.05114 9.31631,10.426 20.8512,18.9069 33.71415,24.38775 12.86295,5.48084 27.04818,7.92824 40.98016,6.74714 18.34749,-1.55543 35.88925,-9.3752 50.31401,-20.81968 14.42476,-11.44447 25.83797,-26.39585 34.49447,-42.64746 20.05942,-37.65933 25.34545,-82.49195 17.0861,-124.35349 -7.46666,-37.84387 -25.42044,-72.91643 -46.90416,-104.95327 -16.99122,-25.33756 -36.54239,-49.34862 -60.79734,-67.85243 -24.25919,-18.50705 -53.51156,-31.26896 -83.98674,-32.77985 -30.42424,-1.50836 -60.86849,8.32136 -86.2774,25.12306 -25.54797,16.89365 -46.18842,40.55674 -61.99512,66.79112 -15.80669,26.23437 -26.95178,55.04226 -35.77355,84.37263 -13.62107,45.28694 -21.86697,92.18803 -24.50946,139.40516 l 56.85169,-1.04841 C 431.53582,375.11997 420.8471,332.21981 407.59065,290.12817 394.83155,249.61571 379.41726,209.32707 354.61087,174.84958 329.80448,140.3721 294.56943,111.89277 253.17464,102.37828 208.38539,92.08358 159.94019,105.30448 123.06833,132.73664 96.412934,152.56789 75.354511,179.28219 59.446697,208.44947 40.54629,243.10372 28.684786,281.21975 20.464009,319.82754 8.6321417,375.39434 4.1406427,432.34337 3.8995256,489.15538 3.5962979,560.60189 10.628308,634.34311 44.204979,697.40897 c 15.553316,29.21324 36.95739,55.84634 64.639611,73.98507 27.68221,18.13874 62.00289,27.21666 94.54475,21.18788 20.14049,-3.73127 39.07037,-13.08299 55.00504,-25.95341 15.93466,-12.87043 28.92838,-29.18918 38.91754,-47.07152 19.97834,-35.76468 27.8234,-77.04794 31.43864,-117.85451 3.15208,-35.5787 3.207,-72.14436 -7.73619,-106.14475 -5.4716,-17.00019 -13.70072,-33.20441 -25.00229,-47.03262 -11.30158,-13.8282 -25.73477,-25.2325 -42.2128,-32.11869 -27.3211,-11.41752 -59.08553,-9.74541 -86.63727,1.10371 -27.55175,10.84913 -51.12728,30.28781 -70.182779,52.95254 -22.715724,27.01822 -39.544701,58.96009 -48.98406,92.97313 l 36.03852,106.8698 c -0.09626,-18.02405 2.881667,-36.06063 8.7666,-53.09716 7.786219,-22.54063 20.560419,-43.13139 35.642669,-61.60382 9.77439,-11.97147 20.72719,-23.2698 34.04736,-31.10739 13.32017,-7.83759 29.29348,-11.98233 44.44751,-8.94748 8.38846,1.67993 16.29761,5.50863 23.03517,10.7806 6.73756,5.27198 12.31579,11.96492 16.59068,19.3753 8.5498,14.82076 11.79625,32.23493 11.8688,49.34483 0.0868,20.47871 -4.40433,41.39627 -15.69842,58.47926 -5.64704,8.5415 -12.95415,16.03063 -21.58295,21.54335 -8.6288,5.51272 -18.59043,9.01468 -28.80637,9.70815 -10.9749,0.74499 -22.06424,-1.75952 -31.97097,-6.54073 -9.90673,-4.78122 -18.65644,-11.78758 -26.02068,-19.95895 C 119.6246,641.93881 110.57001,621.32518 103.07793,600.63987 86.013914,553.52685 75.746442,503.48053 77.828177,453.41573 80.031479,400.42731 96.249456,348.13856 124.04281,302.97047 c 10.53033,-17.11325 22.87686,-33.41441 38.70206,-45.79642 15.82521,-12.382 35.45434,-20.63837 55.54309,-20.19886 18.65394,0.40812 36.61776,8.26862 51.43762,19.60475 14.81986,11.33612 26.762,26.01142 37.37523,41.35728 14.44287,20.8832 26.73249,43.36406 35.18324,67.30752 12.0671,34.18963 16.09984,70.65144 18.58128,106.82309 3.20174,46.67135 3.95144,93.71575 -2.24548,140.08453 -4.29804,32.16031 -11.94263,63.871 -22.74825,94.46471 -6.03814,17.09565 2.64982,29.42057 20.7302,28.02269 l 108.97469,-8.42534 c 18.08038,-1.39788 25.67693,-15.46498 18.60039,-32.15516 -4.31495,-10.1769 -8.17556,-20.54645 -11.5646,-31.06798 -18.32238,-56.88322 -22.64331,-117.52305 -19.7236,-177.21296 1.98024,-40.48357 7.27585,-81.02001 19.32675,-119.71906 12.05091,-38.69905 31.06073,-75.60851 58.34916,-105.5782 9.91954,-10.89419 20.97562,-20.89651 33.65834,-28.39513 12.68272,-7.49863 27.08387,-12.42788 41.81344,-12.77477 14.543,-0.34249 28.99848,3.79882 41.81341,10.68314 12.81494,6.88432 24.05924,16.43969 33.9288,27.12651 10.76829,11.65997 19.99049,24.72013 27.65292,38.61971 6.59142,11.95678 12.06157,24.61465 15.15686,37.91241 3.0953,13.29777 3.76359,27.27599 0.85079,40.61492 -2.2543,10.32339 -6.76465,20.34905 -14.15727,27.8991 -3.69631,3.77503 -8.08665,6.89426 -12.94764,8.96412 -4.86099,2.06986 -10.1952,3.0756 -15.46687,2.7248 -6.90444,-0.45946 -13.57032,-3.25143 -19.02186,-7.51324 -5.45155,-4.26181 -9.71352,-9.94864 -12.68368,-16.19849 -5.9403,-12.49969 -6.69348,-26.86411 -5.54182,-40.65553 3.47346,-41.59554 24.05521,-81.54283 56.0473,-108.35254 13.25645,-11.10905 28.42714,-20.04188 44.84436,-25.48425 16.41302,-5.44098 34.11417,-7.33439 51.16914,-4.48492 26.39829,4.41052 50.30017,20.23621 66.44474,41.58275 14.28547,18.88841 22.68032,41.64002 28.03637,64.7086 6.13366,26.41777 8.52043,53.72441 6.76626,80.7881 -0.4347,6.70659 -1.1228,13.39668 -2.06119,20.0515 -2.53049,17.94545 7.64875,28.39088 25.17968,23.7518 l 43.91538,-11.621 c 17.53093,-4.63908 27.39105,-22.69407 26.7402,-40.77472 -0.49322,-13.70153 1.01293,-27.47598 4.52235,-40.73031 4.9629,-18.74384 13.772,-36.22966 23.1817,-53.18309 11.8845,-21.41216 25.3886,-42.84412 45.4513,-56.88718 10.0314,-7.02153 21.6198,-12.01911 33.779,-13.46231 12.1593,-1.44321 24.8899,0.81101 35.3181,7.22841 12.4957,7.68971 20.9951,20.92797 24.7707,35.10608 3.7756,14.17811 3.1443,29.24456 0.2464,43.62775 -7.283,36.14717 -28.7436,68.62793 -56.8407,92.50709 -28.2095,23.97468 -62.4972,39.54819 -96.8966,53.23163 -37.72954,15.00809 -76.29147,28.14742 -115.90015,37.08684 -69.2028,15.61861 -142.12453,18.61713 -206.89082,47.57048 -35.94072,16.06706 -69.22711,40.86607 -88.32298,75.29329 -18.91034,34.09274 -22.30405,76.41252 -9.06838,113.08312 16.12418,25.82298 40.49826,46.40634 68.65657,57.97893 28.15831,11.57259 59.96233,14.07748 89.58514,7.05575 44.56035,-10.5625 81.59305,-41.23667 113.16838,-74.40577 31.94098,-33.5532 60.39712,-70.82442 96.75844,-99.52805 40.7595,-32.17556 92.4747,-52.73654 144.2228,-48.4076 16.3594,1.36853 32.6672,5.24015 47.181,12.91145 14.5139,7.6713 27.1722,19.31096 34.6024,33.94974 10.276,20.24536 9.5549,45.64138 -1.7306,65.34187 -11.2854,19.7005 -32.7517,33.14849 -55.3918,34.84966 -10.6534,0.8005 -21.5046,-0.87412 -31.3558,-5.00811 -9.8513,-4.13398 -18.6785,-10.73515 -25.2951,-19.12302 -6.6167,-8.38787 -10.9924,-18.55429 -12.3674,-29.14889 -1.3751,-10.59461 0.2758,-21.58791 4.8555,-31.23999 7.2983,-15.38175 21.6432,-26.65507 37.475,-32.91734 15.8319,-6.26226 33.1201,-7.93961 50.1455,-7.9346 35.2131,0.0104 71.2791,7.38127 100.5706,26.92531 14.6458,9.77202 27.4037,22.51847 36.4835,37.60315 9.0798,15.08468 14.4027,32.53252 14.4656,50.13895 0.089,24.83085 -10.3233,49.04847 -26.2727,68.07992 -15.9494,19.03146 -37.1462,33.16494 -59.7577,43.42641 -51.8032,23.50914 -109.9968,27.21059 -166.5076,33.75142 -28.525,3.30162 -56.95627,7.41225 -85.24833,12.32481 -17.86665,3.10231 -28.14084,20.0702 -23.02524,37.46804 l 18.90085,64.28065 c 5.1156,17.39784 23.39356,27.32142 41.20266,23.93455 18.12676,-3.44728 36.51296,-5.531 54.95186,-6.21835 z"
     inkscape:path-effect="#path-effect880;#path-effect856"
     inkscape:original-d="m 1052.3257,986.21462 c 70.0486,-2.33348 139.3111,18.64958 209.3975,19.05278 51.4945,0.2963 154.0014,-12.2275 154.0014,-12.2275 l -34.6445,-117.43109 c 0,0 -105.2912,46.814 -161.6573,51.92678 -76.3374,6.92432 -228.01551,-29.78381 -228.01551,-29.78381 l 12.27081,59.74667 c 0,0 155.7658,-20.02528 218.5553,-62.42648 66.7237,-45.05793 160.6358,-111.08407 148.3047,-190.64673 -14.8781,-95.99651 -143.3641,-173.13178 -240.1715,-165.06916 -69.8202,5.81498 -154.41299,76.08108 -151.13776,146.06635 2.85782,61.06601 82.12846,117.2549 143.20266,114.57757 63.2787,-2.77397 120.5848,-70.1787 137.4143,-131.24144 10.9958,-39.89636 -5.7639,-88.63341 -33.1756,-119.63705 -25.9777,-29.38165 -69.4533,-45.07701 -108.6721,-45.09378 -86.3393,-0.0369 -201.66905,76.0524 -239.3236,99.06825 -39.20429,23.96311 -69.10178,61.85536 -109.53033,83.68972 -16.30174,8.80413 -34.00555,20.29658 -52.43826,18.42724 -17.40558,-1.76517 -40.33206,-10.13064 -45.01468,-26.98718 -6.25602,-22.52047 16.00363,-45.78602 32.92649,-61.90825 13.96838,-13.30754 34.3702,-17.69228 52.35623,-24.67147 82.61366,-32.05689 173.21251,-42.08088 253.97725,-78.54611 59.3312,-26.78798 121.5501,-54.86444 166.6705,-101.7892 36.8884,-38.36355 69.065,-86.92149 77.8142,-139.41882 6.0372,-36.22462 0.5173,-77.68756 -19.5922,-108.4167 -19.8793,-30.3774 -54.8682,-53.49833 -90.4603,-60.65214 -26.4749,-5.3213 -55.529,3.16734 -79.4943,15.61313 -37.4162,19.43116 -67.79286,52.52468 -91.32658,87.50619 -25.25832,37.545 -45.9538,100.16532 -50.05583,126.18599 l 50.42335,-4.71998 C 968.88501,295.05142 953.82058,232.49762 928.91496,191.76155 911.31648,162.97717 888.01789,135.33016 858.42312,119.13149 833.5197,105.50063 803.1085,98.31267 774.97308,102.10458 c -39.27012,5.29257 -76.81816,26.97761 -106.02828,53.75302 -29.604,27.13647 -48.56475,65.08457 -63.60083,102.32301 -17.09245,42.33127 -32.63184,88.42157 -28.73591,133.90684 2.27039,26.50701 11.08023,55.12059 29.77276,74.05114 18.95281,19.19415 47.9261,34.46472 74.69431,31.13489 35.03898,-4.35868 66.88413,-33.04599 84.80848,-63.46714 21.24004,-36.04853 23.00199,-82.93322 17.0861,-124.35349 -5.41798,-37.93415 -26.05057,-72.80545 -46.90416,-104.95327 -16.52685,-25.47774 -35.83896,-50.55124 -60.79734,-67.85243 -24.69847,-17.12102 -53.96399,-31.44656 -83.98674,-32.77985 -29.9241,-1.32891 -62.25217,7.23435 -86.2774,25.12306 -48.13173,35.83794 -75.84115,95.30495 -97.76867,151.16375 -17.24029,43.91844 -24.50946,139.40516 -24.50946,139.40516 l 56.85169,-1.04841 c 0,0 -12.16182,-88.98733 -31.98698,-128.38269 C 371.16519,217.7457 329.92129,128.37805 253.17464,102.37828 210.99558,88.089108 161.02054,109.43678 123.06833,132.73664 94.975247,149.98372 75.762086,179.80526 59.446697,208.44947 39.978842,242.62833 28.936428,281.41648 20.464009,319.82754 8.2485259,375.20838 1.2446158,432.50551 3.8995256,489.15538 7.2095484,559.78389 3.6095894,639.51806 44.204979,697.40897 79.699617,748.02597 143.13141,806.39973 203.38934,792.58192 277.58513,775.568 321.27475,677.45603 328.75056,601.70248 335.29391,535.39764 314.43739,444.01379 253.79928,416.40642 203.47747,393.49586 138.94933,434.46698 96.979231,470.46267 70.389707,493.26719 47.995171,563.4358 47.995171,563.4358 l 36.03852,106.8698 c 0,0 2.715433,-36.20992 8.7666,-53.09716 8.002689,-22.33344 18.431339,-45.27606 35.642669,-61.60382 21.31083,-20.21681 50.12333,-47.66583 78.49487,-40.05487 30.49545,8.18071 52.44232,47.9413 51.49465,79.50073 -1.11495,37.13042 -29.09116,86.38955 -66.08774,89.73076 -40.72481,3.67792 -69.93613,-48.10858 -89.26681,-84.14137 C 79.539526,556.7638 74.639166,503.10473 77.828177,453.41573 81.188191,401.06227 93.179309,345.39238 124.04281,302.97047 c 22.56261,-31.01233 55.89409,-65.81603 94.24515,-65.99528 35.90704,-0.16783 64.98913,34.09618 88.81285,60.96203 16.79665,18.94147 27.05302,43.3324 35.18324,67.30752 11.60704,34.22787 15.76155,70.79088 18.58128,106.82309 3.64347,46.5585 4.43736,93.86432 -2.24548,140.08453 -6.18949,42.80807 -17.60161,85.16816 -34.75548,125.01848 l 174.44955,-13.4875 c -6.37165,-16.19292 -20.14472,-39.43651 -25.70164,-60.69206 -15.03328,-57.5031 -26.2828,-118.14027 -19.7236,-177.21296 8.76651,-78.95198 26.39717,-164.62801 77.67591,-225.29726 18.49875,-21.88636 46.81964,-40.64861 75.47178,-41.1699 28.21363,-0.51332 54.27269,19.49757 75.74221,37.80965 12.04635,10.27475 21.3236,24.10679 27.65292,38.61971 10.67907,24.48674 24.16472,53.08907 16.00765,78.52733 -5.91702,18.45254 -23.4072,42.45616 -42.57178,39.58802 -24.5161,-3.66903 -36.66213,-39.58504 -37.24736,-64.36726 -0.96,-40.65202 27.86602,-79.03832 56.0473,-108.35254 11.91557,-12.3946 28.42974,-20.36885 44.84436,-25.48425 16.3464,-5.09414 34.5215,-8.48631 51.16914,-4.48492 25.40442,6.10615 49.4091,21.77222 66.44474,41.58275 15.3268,17.82334 22.30706,41.91041 28.03637,64.7086 6.58639,26.20872 7.84914,53.78615 6.76626,80.7881 -0.70675,17.62272 -4.03596,35.14357 -8.62406,52.20309 L 997.7046,422.02886 c -13.49166,-27.47691 -5.37494,-49.23298 -0.48,-73.10524 3.8845,-18.94444 10.1547,-38.89046 23.1817,-53.18309 29.3675,-32.22071 74.0581,-79.28162 114.5484,-63.12108 25.5757,10.20784 28.3591,51.39977 25.0171,78.73383 -4.3922,35.924 -30.6349,67.54544 -56.8407,92.50709 -26.6839,25.41713 -63.0408,38.6766 -96.8966,53.23163 -37.26523,16.02081 -76.78343,26.35155 -115.90015,37.08684 -68.23989,18.72793 -143.67191,15.77759 -206.89082,47.57048 -34.56233,17.38145 -70.71802,40.84427 -88.32298,75.29329 -17.2084,33.67305 -23.05049,77.94762 -9.06838,113.08312 30.83602,59.40453 101.4752,70.49178 158.24171,65.03468 44.93864,-4.32006 78.36597,-45.64925 113.16838,-74.40577 35.66885,-29.47244 57.59719,-74.88482 96.75844,-99.52805 42.9193,-27.00808 93.7574,-53.38171 144.2228,-48.4076 31.2677,3.08188 73.5195,16.54827 81.7834,46.86119 10.1115,37.09017 -18.7613,97.67222 -57.1224,100.19153 -35.2958,2.318 -72.6599,-50.18397 -64.1628,-84.52001 7.7414,-31.28163 55.5753,-44.25426 87.6205,-40.85194 62.9853,6.68731 143.1257,51.88674 151.5197,114.66741 6.2214,46.5314 -46.1767,86.69594 -86.0304,111.50633 -48.0764,29.92928 -110.763,23.76944 -166.5076,33.75142 -39.0295,6.98886 -117.53618,18.29127 -117.53618,18.29127 L 965.43379,1000 c 0,0 57.58191,-12.809 86.89191,-13.78538 z"
     sodipodi:nodetypes="aaccaccaaaaaaaaaaaaaaaaaaaaaccaaaaaaaaaaaaaaaccaaaaaaaaaaaccaaaaaaaaaaaaaccaaaaaaaaaaaaaaaccaaaaaaaaacaaaaaaaaaaacca" /></g></svg>
