<?xml version="1.0" encoding="UTF-8" standalone="no"?>
<svg
   xmlns:dc="http://purl.org/dc/elements/1.1/"
   xmlns:cc="http://creativecommons.org/ns#"
   xmlns:rdf="http://www.w3.org/1999/02/22-rdf-syntax-ns#"
   xmlns:svg="http://www.w3.org/2000/svg"
   xmlns="http://www.w3.org/2000/svg"
   xmlns:sodipodi="http://sodipodi.sourceforge.net/DTD/sodipodi-0.dtd"
   xmlns:inkscape="http://www.inkscape.org/namespaces/inkscape"
   xml:space="preserve"
   width="1000"
   height="1000"
   version="1.1"
   style="clip-rule:evenodd;fill-rule:evenodd;image-rendering:optimizeQuality;shape-rendering:geometricPrecision;text-rendering:geometricPrecision"
   viewBox="0 0 1000 1000"
   id="svg10"
   sodipodi:docname="ഞ്ജു.svg"
   inkscape:version="1.0.2 (e86c870879, 2021-01-15)"><metadata
   id="metadata14"><rdf:RDF><cc:Work
       rdf:about=""><dc:format>image/svg+xml</dc:format><dc:type
         rdf:resource="http://purl.org/dc/dcmitype/StillImage" /><dc:title /></cc:Work></rdf:RDF></metadata><sodipodi:namedview
   pagecolor="#ffffff"
   bordercolor="#666666"
   borderopacity="1"
   objecttolerance="10"
   gridtolerance="10"
   guidetolerance="10"
   inkscape:pageopacity="0"
   inkscape:pageshadow="2"
   inkscape:window-width="1920"
   inkscape:window-height="1007"
   id="namedview12"
   showgrid="false"
   inkscape:zoom="0.42445442"
   inkscape:cx="951.83922"
   inkscape:cy="438.28128"
   inkscape:window-x="1920"
   inkscape:window-y="0"
   inkscape:window-maximized="1"
   inkscape:current-layer="g876"
   showguides="true"
   inkscape:guide-bbox="true"
   inkscape:document-rotation="0"><sodipodi:guide
     position="0,1000"
     orientation="0,1"
     id="guide16"
     inkscape:label=""
     inkscape:locked="true"
     inkscape:color="rgb(0,0,255)" /><sodipodi:guide
     position="1763.3122,2036.1693"
     orientation="1000,0"
     id="guide18" /><sodipodi:guide
     position="0,200"
     orientation="0,1"
     id="guide20"
     inkscape:label="base"
     inkscape:locked="true"
     inkscape:color="rgb(0,0,255)" /><inkscape:grid
     type="xygrid"
     id="grid24"
     originx="-473.37552"
     originy="-489.69235" /><sodipodi:guide
     position="0,0"
     orientation="0,1"
     id="guide34"
     inkscape:label="bottom"
     inkscape:locked="true"
     inkscape:color="rgb(0,0,255)" /><sodipodi:guide
     position="225.05109,1693.3186"
     orientation="0,1"
     id="guide44"
     inkscape:label=""
     inkscape:locked="false"
     inkscape:color="rgb(0,0,255)" /><sodipodi:guide
     position="0,900"
     orientation="0,1"
     id="guide46"
     inkscape:label=""
     inkscape:locked="true"
     inkscape:color="rgb(0,0,255)" /><sodipodi:guide
     position="1405.2365,623.49638"
     orientation="-1,0"
     id="guide867"
     inkscape:label="width"
     inkscape:locked="false"
     inkscape:color="rgb(0,0,255)" /></sodipodi:namedview>
 <defs
   id="defs4"><inkscape:path-effect
   effect="fillet_chamfer"
   id="path-effect854"
   is_visible="true"
   lpeversion="1"
   satellites_param="F,0,0,1,0,0,0,1 @ F,0,0,1,0,0,0,1 @ F,0,0,1,0,0,0,1 @ F,0,0,1,0,0,0,1 @ F,0,0,1,0,0,0,1 @ F,0,0,1,0,0,0,1 @ F,0,0,1,0,0,0,1 @ F,0,0,1,0,0,0,1 @ F,0,0,1,0,0,0,1 | F,0,0,1,0,0,0,1 @ F,0,0,1,0,0,0,1 @ F,0,0,1,0,0,0,1 @ F,0,0,1,0,0,0,1 @ F,0,0,1,0,0,0,1 @ F,0,0,1,0,0,0,1 @ F,0,0,1,0,0,0,1 @ F,0,0,1,0,0,0,1 @ F,0,0,1,0,0,0,1 @ F,0,0,1,0,0,0,1 | F,0,0,1,0,23.986367,0,1 @ F,0,0,1,0,0,0,1 @ F,0,0,1,0,0,0,1 @ F,0,0,1,0,0,0,1 @ F,0,1,1,0,30.431186,0,1 @ F,0,1,1,0,30.431186,0,1 @ F,0,0,1,0,0,0,1 @ F,0,0,1,0,0,0,1 @ F,0,0,1,0,0,0,1 @ F,0,0,1,0,0,0,1 @ F,0,0,1,0,0,0,1 @ F,0,0,1,0,0,0,1 @ F,0,0,1,0,0,0,1 @ F,0,0,1,0,0,0,1 @ F,0,0,1,0,0,0,1 @ F,0,0,1,0,0,0,1 @ F,0,0,1,0,0,0,1 @ F,0,0,1,0,0,0,1 @ F,0,0,1,0,0,0,1 @ F,0,0,1,0,0,0,1 @ F,0,0,1,0,0,0,1 @ F,0,0,1,0,0,0,1 @ F,0,0,1,0,0,0,1 @ F,0,0,1,0,0,0,1 @ F,0,0,1,0,0,0,1 @ F,0,0,1,0,0,0,1 @ F,0,0,1,0,0,0,1 @ F,0,0,1,0,0,0,1 @ F,0,0,1,0,0,0,1 @ F,0,0,1,0,0,0,1 @ F,0,0,1,0,0,0,1 @ F,0,0,1,0,0,0,1 @ F,0,0,1,0,0,0,1 @ F,0,0,1,0,0,0,1 @ F,0,0,1,0,0,0,1 @ F,0,0,1,0,0,0,1 @ F,0,0,1,0,0,0,1 @ F,0,0,1,0,0,0,1 @ F,0,0,1,0,0,0,1 @ F,0,0,1,0,0,0,1 @ F,0,0,1,0,0,0,1 @ F,0,0,1,0,0,0,1 @ F,0,0,1,0,0,0,1 @ F,0,0,1,0,0,0,1 @ F,0,0,1,0,0,0,1 @ F,0,0,1,0,0,0,1 @ F,0,0,1,0,0,0,1 @ F,0,0,1,0,0,0,1 @ F,0,0,1,0,0,0,1 @ F,0,0,1,0,0,0,1 @ F,0,0,1,0,0,0,1 @ F,0,0,1,0,0,0,1 @ F,0,0,1,0,0,0,1 @ F,0,0,1,0,0,0,1 @ F,0,0,1,0,0,0,1 @ F,0,0,1,0,0,0,1 @ F,0,0,1,0,0,0,1 @ F,0,0,1,0,0,0,1 @ F,0,0,1,0,0,0,1 @ F,0,0,1,0,0,0,1 @ F,0,0,1,0,0,0,1 @ F,0,0,1,0,0,0,1 @ F,0,0,1,0,0,0,1 @ F,0,0,1,0,0,0,1 @ F,0,0,1,0,0,0,1 @ F,0,0,1,0,0,0,1 @ F,0,0,1,0,0,0,1 @ F,0,0,1,0,0,0,1 @ F,0,0,1,0,0,0,1 @ F,0,0,1,0,38.153835,0,1 @ F,0,0,1,0,38.153835,0,1 @ F,0,0,1,0,0,0,1 @ F,0,0,1,0,0,0,1 @ F,0,0,1,0,0,0,1 @ F,0,0,1,0,0,0,1 @ F,0,0,1,0,0,0,1 @ F,0,0,1,0,0,0,1 @ F,0,0,1,0,0,0,1 @ F,0,0,1,0,0,0,1 @ F,0,0,1,0,0,0,1 @ F,0,0,1,0,0,0,1 @ F,0,0,1,0,0,0,1 @ F,0,0,1,0,0,0,1 @ F,0,0,1,0,0,0,1 @ F,0,0,1,0,0,0,1 @ F,0,0,1,0,0,0,1 @ F,0,0,1,0,0,0,1 @ F,0,0,1,0,0,0,1 @ F,0,0,1,0,0,0,1 @ F,0,0,1,0,0,0,1 @ F,0,0,1,0,0,0,1 @ F,0,0,1,0,24.493138,0,1 @ F,0,0,1,0,24.493138,0,1 @ F,0,0,1,0,0,0,1 @ F,0,0,1,0,0,0,1 @ F,0,0,1,0,0,0,1 @ F,0,0,1,0,0,0,1 @ F,0,0,1,0,0,0,1 @ F,0,0,1,0,0,0,1 @ F,0,0,1,0,0,0,1 @ F,0,0,1,0,0,0,1 @ F,0,0,1,0,0,0,1 @ F,0,0,1,0,0,0,1 @ F,0,0,1,0,0,0,1 @ F,0,0,1,0,0,0,1 @ F,0,0,1,0,0,0,1 @ F,0,0,1,0,0,0,1 @ F,0,0,1,0,0,0,1 @ F,0,0,1,0,0,0,1 @ F,0,0,1,0,0,0,1 @ F,0,0,1,0,0,0,1 @ F,0,0,1,0,0,0,1 @ F,0,0,1,0,0,0,1 @ F,0,0,1,0,0,0,1 @ F,0,0,1,0,0,0,1 @ F,0,0,1,0,0,0,1 @ F,0,0,1,0,0,0,1 @ F,0,0,1,0,0,0,1 @ F,0,0,1,0,0,0,1 @ F,0,0,1,0,0,0,1 @ F,0,0,1,0,0,0,1 @ F,0,0,1,0,0,0,1 @ F,0,0,1,0,0,0,1 @ F,0,0,1,0,0,0,1 @ F,0,0,1,0,23.986367,0,1"
   unit="px"
   method="auto"
   mode="F"
   radius="0"
   chamfer_steps="1"
   flexible="false"
   use_knot_distance="true"
   apply_no_radius="true"
   apply_with_radius="true"
   only_selected="true"
   hide_knots="false" /><inkscape:path-effect
   effect="spiro"
   id="path-effect880"
   is_visible="true"
   lpeversion="1" /><inkscape:path-effect
   effect="spiro"
   id="path-effect865"
   is_visible="true"
   lpeversion="1" /><inkscape:path-effect
   effect="spiro"
   id="path-effect851"
   is_visible="true"
   lpeversion="1" />
  <style
   type="text/css"
   id="style2">
   <![CDATA[
    .fil0 {fill:#EF7F1A;fill-rule:nonzero}
   ]]>
  </style>
 <inkscape:path-effect
   effect="spiro"
   id="path-effect1214"
   is_visible="true"
   lpeversion="1" /><inkscape:path-effect
   effect="spiro"
   id="path-effect1195"
   is_visible="true"
   lpeversion="1" /><inkscape:path-effect
   effect="spiro"
   id="path-effect992"
   is_visible="true"
   lpeversion="1" /><inkscape:path-effect
   effect="spiro"
   id="path-effect1060"
   is_visible="true"
   lpeversion="1" /><inkscape:path-effect
   effect="spiro"
   id="path-effect1047"
   is_visible="true"
   lpeversion="1" /><inkscape:path-effect
   effect="spiro"
   id="path-effect1085"
   is_visible="true"
   lpeversion="1" /><inkscape:path-effect
   effect="spiro"
   id="path-effect1286"
   is_visible="true"
   lpeversion="1" /><inkscape:path-effect
   effect="spiro"
   id="path-effect1305"
   is_visible="true"
   lpeversion="1" /><inkscape:path-effect
   effect="spiro"
   id="path-effect847"
   is_visible="true"
   lpeversion="1" /><style
   type="text/css"
   id="style2-6">
   <![CDATA[
    .fil0 {fill:#EF7F1A;fill-rule:nonzero}
   ]]>
  </style><inkscape:path-effect
   effect="spiro"
   id="path-effect1049"
   is_visible="true"
   lpeversion="1" /></defs>
 
<g
   style="clip-rule:evenodd;fill-rule:evenodd;image-rendering:optimizeQuality;shape-rendering:geometricPrecision;text-rendering:geometricPrecision"
   id="g876"><path
     id="path1102-7-3"
     style="display:inline;opacity:0.950135;fill:#1a1a1a;fill-opacity:1;fill-rule:nonzero;stroke:none;stroke-width:2.40988;stroke-linecap:round;stroke-linejoin:bevel;stroke-miterlimit:4;stroke-dasharray:none;paint-order:stroke fill markers"
     d="m 1094.8784,550.94201 c 19.8341,-0.56222 39.7609,6.29242 55.1738,18.78833 15.413,12.49592 26.2167,30.50656 30.1747,49.94984 4.1936,20.60028 0.6691,42.66788 -9.6753,60.96957 -10.3319,18.27963 -27.4829,32.71615 -47.4471,39.22196 -19.274,6.2809 -40.857,5.04801 -59.3691,-3.21279 -18.5089,-8.25939 -33.7998,-23.43424 -42.3686,-41.80194 -9.1084,-19.52436 -10.5344,-42.51119 -3.909,-63.01162 4.6238,-16.96859 14.8263,-32.36762 28.6491,-43.24147 13.8229,-10.87385 31.1913,-17.16355 48.7715,-17.66188 z m -216.2039,52.15397 c -32.70088,32.46379 -69.55694,60.76871 -109.53033,83.68972 -16.24393,9.31438 -33.71981,17.93485 -52.43826,18.42724 -9.35923,0.2462 -18.8762,-1.63927 -27.04838,-6.20777 -8.17218,-4.5685 -14.91112,-11.92946 -17.9663,-20.77941 -2.06085,-5.96969 -2.42017,-12.47315 -1.36117,-18.69912 1.05899,-6.22598 3.50907,-12.1776 6.85435,-17.53422 6.69055,-10.71325 16.77484,-18.89744 27.43331,-25.67491 16.3099,-10.37109 34.26511,-17.86824 52.35623,-24.67147 55.00121,-20.68341 112.23281,-35.42983 170.38074,-43.90068 -14.95342,19.5201 -31.2297,38.02665 -48.68019,55.35062 z m 10.57354,386.97155 c 17.92399,-7.15988 36.65976,-12.28903 55.73516,-15.23426 52.73216,-8.1418 106.6496,0.43737 158.4705,13.14813 51.8209,12.7108 102.7111,29.5766 155.3329,38.4033 36.7391,6.1625 74.143,8.3451 111.3503,6.5226 16.7842,-0.8222 30.3812,-16.0047 30.4399,-32.8113 l 0.3992,-114.34989 c 0.059,-16.80658 -9.0803,-20.28502 -21.9536,-9.49706 -31.5223,26.41591 -69.606,45.01595 -109.8935,53.34701 -57.1027,11.80827 -118.2873,2.73729 -169.5077,-25.13052 69.0843,3.71957 139.2273,-16.29459 195.9466,-55.91017 40.7291,-28.44724 74.7617,-67.13972 94.8102,-112.59481 20.0484,-45.45509 25.5897,-97.72627 12.3913,-145.62104 -15.8028,-57.34558 -58.9241,-106.50738 -113.7205,-129.6504 -54.7964,-23.14302 -120.1034,-19.77547 -172.2287,8.88096 21.489,-18.08869 41.8121,-37.5621 60.8016,-58.25935 36.4959,-39.77804 68.9385,-86.16977 77.8142,-139.41882 6.1694,-37.01289 0.078,-76.46228 -19.5922,-108.4167 -19.6656,-31.94642 -53.2875,-55.60325 -90.4603,-60.65214 -27.2117,-3.695946 -55.3739,2.48525 -79.4943,15.61313 -24.0833,13.10768 -44.103,32.77227 -60.7183,54.58389 -20.38793,26.76404 -36.07735,57.09704 -46.13893,89.20227 -6.90941,-24.66599 -17.06303,-48.42114 -30.11691,-70.46081 -17.40024,-29.37788 -40.57339,-56.17666 -70.49184,-72.63006 -25.25533,-13.88895 -54.76811,-19.869705 -83.45004,-17.02691 -40.2317,3.98755 -77.58917,25.01789 -106.02828,53.75302 -28.43975,28.73579 -48.5649,64.79321 -63.60083,102.32301 -17.95395,44.81322 -29.12523,94.37387 -18.18296,141.3934 5.33768,22.93632 16.09681,44.92571 32.78473,61.54133 16.68792,16.61562 39.5695,27.48608 63.11867,27.53278 16.97004,0.0336 33.75787,-5.49205 48.00169,-14.71686 14.24382,-9.22481 25.99464,-22.04527 34.89623,-36.49328 23.14274,-37.5626 26.47338,-84.89302 17.00738,-127.98513 -8.26874,-37.64183 -25.60137,-72.83676 -46.90416,-104.95327 -16.86575,-25.42714 -36.51828,-49.37216 -60.79734,-67.85243 -24.27905,-18.48027 -53.5109,-31.29127 -83.98674,-32.77985 -30.41797,-1.48575 -60.80865,8.42567 -86.2774,25.12306 -25.46875,16.69739 -46.23235,39.90972 -62.69837,65.52867 -15.44042,24.02325 -27.31323,50.33526 -35.10937,77.80786 -5.07835,-30.75743 -16.6935,-60.41944 -33.85115,-86.44682 -27.58829,-41.8502 -70.87448,-74.42151 -120.17054,-83.50179 -45.00531,-8.289927 -92.96114,3.6294 -130.10631,30.35836 -27.005512,19.43266 -48.337414,46.16087 -63.621633,75.71283 -16.444819,31.79598 -26.039818,66.68338 -33.37289,101.72111 -13.326223,63.67325 -19.5427106,128.96681 -16.33067,193.9403 2.705004,54.71709 12.120681,109.17993 29.13101,161.25608 7.99377,24.47247 17.758008,48.59992 32.13442,69.95691 14.37705,21.35794 33.657693,39.92074 57.137043,50.48394 23.7323,10.677 51.04173,12.69605 76.39842,6.84299 25.35686,-5.85309 48.71548,-19.37885 67.33429,-37.56041 19.6873,-19.22496 34.15083,-43.55961 42.73091,-69.7048 8.58009,-26.1452 11.35682,-54.05858 9.25483,-81.49525 C 319.66009,549.017 296.23542,497.00297 264.99386,451.696 215.029,379.23623 144.10903,321.40633 63.075997,287.04716 l -6.73468,127.1729 c 44.176863,-2.753 89.216203,14.63201 120.086303,46.35285 30.64394,31.48844 46.62755,75.30866 49.88671,119.1259 1.13752,15.29326 0.77905,30.99042 -4.21179,45.49108 -2.49542,7.25034 -6.1494,14.13824 -11.07282,20.01653 -4.92342,5.8783 -11.13851,10.7284 -18.20326,13.70895 -9.24375,3.89985 -19.7354,4.482 -29.53248,2.32029 -9.79707,-2.16171 -18.90817,-6.98103 -26.69024,-13.31309 -15.56415,-12.66412 -25.56966,-30.862 -33.52581,-49.2827 C 83.136725,552.47045 73.725414,501.53992 77.828177,451.41573 82.204854,397.94509 102.21523,345.62162 135.89856,303.86402 c 13.47356,-16.70333 29.50625,-32.00719 49.20114,-40.53065 18.24169,-7.89455 39.01953,-9.51867 58.42746,-5.22736 24.85139,5.49492 47.08981,20.43872 63.57365,39.83121 16.50498,19.41736 27.45788,43.0224 35.18324,67.30752 10.98094,34.51921 15.75904,70.70949 18.58128,106.82309 3.64554,46.64858 4.0965,93.7255 -2.24548,140.08453 -4.1566,30.3842 -11.2342,60.36687 -21.08303,89.40929 -6.76552,19.9503 3.35878,34.29243 24.36786,32.66812 l 98.36893,-7.60536 c 21.00908,-1.62431 31.68444,-18.81172 24.99977,-38.79259 -1.48591,-4.44148 -2.92928,-8.8972 -4.32981,-13.36635 -19.10592,-60.96759 -30.22284,-124.83276 -28.05489,-188.68715 2.27313,-66.9524 20.55309,-135.76589 64.88433,-185.99071 13.45221,-15.2406 29.22295,-28.61937 47.259,-37.99693 18.03605,-9.37756 38.41547,-14.6448 58.71638,-13.59094 16.81855,0.87308 33.32017,6.07025 47.93882,14.43212 14.61865,8.36187 27.37044,19.84182 37.74429,33.10866 15.51924,19.84714 25.90951,44.83055 23.56819,69.91588 -1.20879,12.9512 -5.97608,25.83692 -14.92729,35.27464 -4.47561,4.71886 -9.95273,8.51911 -16.02991,10.83569 -6.07719,2.31658 -12.75439,3.12498 -19.17512,2.08914 -6.71581,-1.08345 -13.04908,-4.16565 -18.28383,-8.50999 -5.23476,-4.34435 -9.38895,-9.92199 -12.3861,-16.02879 -5.99429,-12.21362 -7.32048,-26.2435 -6.57743,-39.82848 2.28484,-41.77326 23.85505,-81.63392 56.0473,-108.35254 13.3065,-11.044 28.43731,-20.02149 44.84436,-25.48425 16.40705,-5.46276 34.1142,-7.34186 51.16914,-4.48492 26.39549,4.42161 50.29837,20.23873 66.44474,41.58275 14.28763,18.88693 22.68102,41.63973 28.03637,64.7086 6.13282,26.41794 8.52019,53.72442 6.76626,80.7881 -0.61447,9.48144 -1.73545,18.92993 -3.35418,28.29235 -2.30381,13.32477 5.63811,22.78471 19.09379,21.39568 l 68.13554,-7.03362 c 13.45568,-1.38903 19.29197,-12.3651 15.69608,-25.38518 -5.97224,-21.62468 -6.50212,-44.76624 -1.27481,-66.59196 4.5224,-18.88241 13.1392,-36.56545 23.1817,-53.18309 12.9144,-21.36993 29.0379,-41.88947 51.2566,-53.28175 11.1094,-5.69614 23.6074,-8.92531 36.0788,-8.35226 12.4714,0.57305 24.881,5.08762 34.2041,13.3909 8.6137,7.67147 14.3265,18.29121 17.0891,29.49006 2.7626,11.19885 2.6927,22.96564 0.9369,34.3658 -5.6328,36.57234 -28.3438,68.90223 -56.8407,92.50709 -28.497,23.60487 -62.5676,39.41901 -96.8966,53.23163 -37.67329,15.15824 -76.26402,28.25358 -115.90015,37.08684 -69.26079,15.43537 -142.34285,18.09393 -206.89082,47.57048 -35.75086,16.32603 -68.46999,41.37394 -88.32298,75.29329 -9.92649,16.95967 -16.49605,35.974 -18.33907,55.53848 -1.84302,19.56448 1.1179,39.66455 9.27069,57.54464 12.80681,28.08695 38.13813,49.58512 67.04925,60.40354 28.91112,10.81842 61.0831,11.43686 91.19246,4.63114 46.46578,-10.50282 87.73098,-37.95638 121.70041,-71.35483 32.95556,-32.40163 60.00128,-70.79572 79.41455,-112.73686 -11.03853,27.76646 -11.60009,59.55639 -1.54911,87.69539 9.35302,26.18496 27.53784,48.81953 49.96303,65.25858 22.42484,16.43878 48.94494,26.85335 76.24664,32.11862 34.2893,6.61286 71.0687,4.97443 102.3969,-10.45366 23.3073,-11.47805 42.7004,-30.18951 56.6753,-52.09104 13.9853,-21.91785 22.7175,-47.02684 26.4507,-72.75708 5.6709,-39.08527 -0.254,-79.78022 -16.8341,-115.62594 24.0817,12.55772 44.3618,32.2947 57.5686,56.02663 12.0017,21.56655 18.1463,46.2877 18.1314,70.96881 -0.015,24.68111 -6.1416,49.27975 -17.2644,71.31247 -22.2455,44.06545 -64.3615,76.81031 -111.6053,91.11604 -37.5914,11.38294 -77.6236,11.67824 -116.829,9.30798 -39.2055,-2.37026 -78.36055,-7.31029 -117.61739,-6.05021 -19.37505,0.62191 -38.70088,2.76033 -57.74454,6.38192 -13.01181,2.4745 -23.58702,15.97336 -23.81316,29.21873 L 867.834,976.01713 c -0.22614,13.24537 9.11649,18.96276 21.41404,14.0504 z"
     inkscape:path-effect="#path-effect880;#path-effect854"
     inkscape:original-d="m 1094.8784,550.94201 c 36.5284,0.20937 72.2174,34.65093 85.3485,68.73817 7.397,19.20201 0.526,43.09873 -9.6753,60.96957 -10.1727,17.8208 -27.9583,32.79908 -47.4471,39.22196 -18.8228,6.2034 -41.2437,4.80264 -59.3691,-3.21279 -18.1447,-8.0239 -34.1514,-23.74402 -42.3686,-41.80194 -8.7162,-19.15436 -10.278,-42.95429 -3.909,-63.01162 11.3381,-28.44342 44.5863,-61.09155 77.4206,-60.90335 z m -216.2039,52.15397 c -33.59008,31.35145 -69.10178,61.85536 -109.53033,83.68972 -16.30174,8.80413 -34.00555,20.29658 -52.43826,18.42724 -17.40558,-1.76517 -40.33206,-10.13064 -45.01468,-26.98718 -6.25602,-22.52047 16.00363,-45.78602 32.92649,-61.90825 13.96838,-13.30754 34.20869,-18.12371 52.35623,-24.67147 55.16748,-19.9048 112.23281,-35.42983 170.38074,-43.90068 -14.95342,19.5201 -30.71787,38.58541 -48.68019,55.35062 z M 867.42453,1000 c 0,0 50.45616,-23.11738 77.55867,-25.16673 105.7015,-7.99258 208.2885,41.38793 313.8034,51.55143 47.0305,4.5301 105.3959,7.3844 141.6839,4.1423 l 0.6118,-175.21189 c 6.8872,-1.53487 -82.3193,65.10708 -131.9534,74.28095 -56.1688,10.38167 -169.5077,-25.13052 -169.5077,-25.13052 0,0 145.2249,-10.73551 195.9466,-55.91017 69.5943,-61.98322 142.5326,-171.97779 107.2015,-258.21585 -39.226,-95.74508 -258.3707,-119.74758 -285.9492,-120.76944 21.4881,-18.0897 43.6383,-36.04882 60.8016,-58.25935 32.5428,-42.11271 69.065,-86.92149 77.8142,-139.41882 6.0372,-36.22462 0.5173,-77.68756 -19.5922,-108.4167 -19.8793,-30.3774 -54.8682,-53.49833 -90.4603,-60.65214 -26.4749,-5.3213 -55.3342,3.54986 -79.4943,15.61313 -24.349,12.15756 -44.0762,33.04971 -60.7183,54.58389 -20.47043,26.48793 -42.35166,49.44811 -46.13893,89.20227 -6.04503,-32.35698 -15.96573,-49.19673 -30.11691,-70.46081 -18.69168,-28.0868 -40.89707,-56.43139 -70.49184,-72.63006 -24.90342,-13.63086 -55.31462,-20.81882 -83.45004,-17.02691 -39.27012,5.29257 -76.81816,26.97761 -106.02828,53.75302 -29.604,27.13647 -50.13199,64.48949 -63.60083,102.32301 -15.93718,44.76701 -26.72745,94.64866 -18.18296,141.3934 4.17937,22.86426 15.71979,45.76067 32.78473,61.54133 16.85277,15.58446 40.20173,26.22703 63.11867,27.53278 16.70858,0.95202 33.75715,-5.93186 48.00169,-14.71686 14.32556,-8.83497 27.61221,-21.32023 34.89623,-36.49328 18.62532,-38.79765 23.1868,-85.39434 17.00738,-127.98513 -5.50204,-37.92205 -26.05057,-72.80545 -46.90416,-104.95327 -16.52685,-25.47774 -35.83896,-50.55124 -60.79734,-67.85243 -24.69847,-17.12102 -53.96399,-31.44656 -83.98674,-32.77985 -29.9241,-1.32891 -60.66965,9.58406 -86.2774,25.12306 -25.84471,15.68279 -45.78874,40.46947 -62.69837,65.52867 -15.91586,23.58648 -27.31323,50.33526 -35.10937,77.80786 -5.07053,-30.75929 -14.6734,-62.15947 -33.85115,-86.44682 -30.22834,-38.28219 -72.26146,-74.33673 -120.17054,-83.50179 -43.74056,-8.36762 -92.1541,7.0585 -130.10631,30.35836 -28.093083,17.24708 -47.588608,46.90962 -63.621633,75.71283 -17.356127,31.18015 -26.265426,66.75082 -33.37289,101.72111 -12.921322,63.57575 -19.4019177,129.13749 -16.33067,193.9403 2.585842,54.56083 12.746042,109.14942 29.13101,161.25608 7.697658,24.47971 16.832807,49.35665 32.13442,69.95691 15.154618,20.40236 33.793103,40.43509 57.137043,50.48394 23.48461,10.10941 51.39069,12.16661 76.39842,6.84299 25.13734,-5.35121 48.79148,-19.76475 67.33429,-37.56041 19.66308,-18.87079 34.15087,-43.55959 42.73091,-69.7048 8.58004,-26.14522 12.74483,-54.37923 9.25483,-81.49525 C 316.92042,549.94089 296.94779,495.71535 264.99386,451.696 213.97632,381.41485 144.10902,321.40634 63.075997,287.04716 l -6.73468,127.1729 c 44.176023,-2.74275 89.321393,16.44375 120.086303,46.35285 30.8672,30.00854 49.95922,76.07604 49.88671,119.1259 -0.0483,28.66798 -6.01457,71.02671 -33.48787,79.21656 -34.53509,10.29499 -74.87109,-24.02923 -89.74853,-60.2755 C 84.493741,552.44686 72.731306,500.9454 77.828177,451.41573 c 5.410582,-52.5782 27.001833,-104.7909 58.070383,-147.55171 12.48981,-17.1902 29.54136,-32.46892 49.20114,-40.53065 18.09162,-7.41869 39.41237,-9.78478 58.42746,-5.22736 24.31825,5.82845 46.59434,21.47225 63.57365,39.83121 17.18924,18.58594 27.05302,43.3324 35.18324,67.30752 11.60704,34.22787 15.76155,70.79088 18.58128,106.82309 3.64347,46.5585 4.43736,93.86432 -2.24548,140.08453 -6.18949,42.80807 -17.60161,85.16816 -34.75548,125.01848 l 174.44955,-13.4875 c -6.37165,-16.19292 -13.17672,-32.33313 -17.37035,-49.21787 -15.32733,-61.71221 -34.02498,-125.38089 -28.05489,-188.68715 6.16482,-65.37114 27.02015,-132.34656 64.88433,-185.99071 11.65617,-16.51391 29.07851,-29.16261 47.259,-37.99693 18.06927,-8.78028 38.63738,-14.24334 58.71638,-13.59094 16.67924,0.54194 33.34393,6.34016 47.93882,14.43212 14.63675,8.11517 28.46188,19.18288 37.74429,33.10866 13.64071,20.46425 29.41326,46.02677 23.56819,69.91588 -5.50942,22.51729 -27.17838,51.43962 -50.13232,48.19947 -24.54579,-3.46485 -36.66213,-39.58504 -37.24736,-64.36726 -0.96,-40.65202 27.86602,-79.03832 56.0473,-108.35254 11.91557,-12.3946 28.42974,-20.36885 44.84436,-25.48425 16.3464,-5.09414 34.5215,-8.48631 51.16914,-4.48492 25.40442,6.10615 49.4091,21.77222 66.44474,41.58275 15.3268,17.82334 22.30706,41.91041 28.03637,64.7086 6.58639,26.20872 7.84914,53.78615 6.76626,80.7881 -0.70675,17.62272 -4.03596,35.14357 -8.62406,52.20309 L 1007.167,438.3857 c -13.49166,-27.47691 -14.43171,-59.79555 -9.9424,-89.46208 2.8935,-19.12091 12.4459,-37.09818 23.1817,-53.18309 13.6814,-20.49814 29.8224,-41.11921 51.2566,-53.28175 10.7363,-6.09215 23.7672,-9.25053 36.0788,-8.35226 12.2115,0.89097 24.9138,5.41564 34.2041,13.3909 8.6206,7.40027 13.9906,18.55951 17.0891,29.49006 3.1253,11.0251 3.9035,23.29693 0.9369,34.3658 -9.3691,34.95775 -30.6349,67.54544 -56.8407,92.50709 -26.6839,25.41713 -63.0408,38.6766 -96.8966,53.23163 -37.26523,16.02081 -76.78343,26.35155 -115.90015,37.08684 -68.23989,18.72793 -143.67191,15.77759 -206.89082,47.57048 -34.56233,17.38145 -66.73813,43.18778 -88.32298,75.29329 -10.87756,16.17939 -16.78882,36.10422 -18.33907,55.53848 -1.54491,19.36736 -0.0204,40.48129 9.27069,57.54464 14.38531,26.41918 39.24957,48.91059 67.04925,60.40354 28.12769,11.62856 61.62657,11.85945 91.19246,4.63114 45.68005,-11.16792 87.09125,-39.51783 121.70041,-71.35483 33.82984,-31.1201 60.00128,-70.79572 79.41455,-112.73686 -11.03926,27.76626 -11.60083,59.55656 -1.54911,87.69539 9.35363,26.18461 28.28718,48.50412 49.96303,65.25858 21.82004,16.86591 48.97154,28.03893 76.24664,32.11862 33.9322,5.07543 71.1043,3.61495 102.3969,-10.45366 23.4029,-10.52151 42.4399,-30.74275 56.6753,-52.09104 14.3165,-21.46983 23.8216,-47.08603 26.4507,-72.75708 3.9681,-38.74565 -16.8341,-115.62594 -16.8341,-115.62594 0,0 52.8279,29.6725 57.5686,56.02663 15.2455,84.75157 -38.2797,186.86767 -110.7383,233.39732 -65.7644,42.23096 -156.528,-2.83598 -234.44639,3.25777 -27.24204,2.13051 -81.14823,11.61778 -81.14823,11.61778 z"
     sodipodi:nodetypes="aaaaaacaaaaaaacacaaccacaacaaaaaacaaaaaaaaaaaaaaaacaaaaaaaaaaasaaccaaacaaaaaaaaccaaaaaaaaaaaaaaaaccaaaaaaaaaaaaaaaaacsaaaaacaaacc" /></g></svg>
