<?xml version="1.0" encoding="UTF-8" standalone="no"?>
<svg
   xmlns:dc="http://purl.org/dc/elements/1.1/"
   xmlns:cc="http://creativecommons.org/ns#"
   xmlns:rdf="http://www.w3.org/1999/02/22-rdf-syntax-ns#"
   xmlns:svg="http://www.w3.org/2000/svg"
   xmlns="http://www.w3.org/2000/svg"
   xmlns:sodipodi="http://sodipodi.sourceforge.net/DTD/sodipodi-0.dtd"
   xmlns:inkscape="http://www.inkscape.org/namespaces/inkscape"
   xml:space="preserve"
   width="1000"
   height="1000"
   version="1.1"
   style="clip-rule:evenodd;fill-rule:evenodd;image-rendering:optimizeQuality;shape-rendering:geometricPrecision;text-rendering:geometricPrecision"
   viewBox="0 0 1000 1000"
   id="svg10"
   sodipodi:docname="ട്ട.svg"
   inkscape:version="1.0.1 (3bc2e813f5, 2020-09-07)"><metadata
   id="metadata14"><rdf:RDF><cc:Work
       rdf:about=""><dc:format>image/svg+xml</dc:format><dc:type
         rdf:resource="http://purl.org/dc/dcmitype/StillImage" /><dc:title /></cc:Work></rdf:RDF></metadata><sodipodi:namedview
   pagecolor="#ffffff"
   bordercolor="#666666"
   borderopacity="1"
   objecttolerance="10"
   gridtolerance="10"
   guidetolerance="10"
   inkscape:pageopacity="0"
   inkscape:pageshadow="2"
   inkscape:window-width="1920"
   inkscape:window-height="1015"
   id="namedview12"
   showgrid="false"
   inkscape:zoom="0.678"
   inkscape:cx="221.43732"
   inkscape:cy="519.49969"
   inkscape:window-x="1920"
   inkscape:window-y="0"
   inkscape:window-maximized="1"
   inkscape:current-layer="svg10"
   showguides="true"
   inkscape:guide-bbox="true"
   inkscape:document-rotation="0"
   inkscape:snap-to-guides="true"><sodipodi:guide
     position="0,1000"
     orientation="0,1"
     id="guide16"
     inkscape:label=""
     inkscape:locked="true"
     inkscape:color="rgb(0,0,255)" /><sodipodi:guide
     position="1763.3122,2036.1693"
     orientation="1000,0"
     id="guide18" /><sodipodi:guide
     position="0,200"
     orientation="0,1"
     id="guide20"
     inkscape:label="base"
     inkscape:locked="true"
     inkscape:color="rgb(0,0,255)" /><inkscape:grid
     type="xygrid"
     id="grid24"
     originx="-473.37552"
     originy="-489.69235" /><sodipodi:guide
     position="0,0"
     orientation="0,1"
     id="guide34"
     inkscape:label="bottom"
     inkscape:locked="true"
     inkscape:color="rgb(0,0,255)" /><sodipodi:guide
     position="225.05109,1693.3186"
     orientation="0,1"
     id="guide44"
     inkscape:label=""
     inkscape:locked="false"
     inkscape:color="rgb(0,0,255)" /><sodipodi:guide
     position="0,900"
     orientation="0,1"
     id="guide46"
     inkscape:label=""
     inkscape:locked="true"
     inkscape:color="rgb(0,0,255)" /><sodipodi:guide
     position="495.30767,516.89206"
     orientation="-1,0"
     id="guide841"
     inkscape:label="width"
     inkscape:locked="false"
     inkscape:color="rgb(0,0,255)" /><sodipodi:guide
     position="0,1000"
     orientation="0,1000"
     id="guide860" /><sodipodi:guide
     position="1000,1000"
     orientation="1000,0"
     id="guide862" /><sodipodi:guide
     position="1000,0"
     orientation="0,-1000"
     id="guide864" /><sodipodi:guide
     position="0,0"
     orientation="-1000,0"
     id="guide866" /></sodipodi:namedview>
 <defs
   id="defs4"><inkscape:path-effect
   effect="spiro"
   id="path-effect875"
   is_visible="true"
   lpeversion="1" /><inkscape:path-effect
   effect="spiro"
   id="path-effect873"
   is_visible="true"
   lpeversion="1" /><inkscape:path-effect
   effect="spiro"
   id="path-effect859"
   is_visible="true"
   lpeversion="1" /><inkscape:path-effect
   effect="spiro"
   id="path-effect862"
   is_visible="true"
   lpeversion="1" /><inkscape:path-effect
   effect="spiro"
   id="path-effect1521"
   is_visible="true"
   lpeversion="1" /><inkscape:path-effect
   effect="spiro"
   id="path-effect858"
   is_visible="true"
   lpeversion="1" /><inkscape:path-effect
   effect="spiro"
   id="path-effect854"
   is_visible="true"
   lpeversion="1" />
  <style
   type="text/css"
   id="style2">
   <![CDATA[
    .fil0 {fill:#EF7F1A;fill-rule:nonzero}
   ]]>
  </style>
 <inkscape:path-effect
   effect="spiro"
   id="path-effect1214"
   is_visible="true"
   lpeversion="1" /><inkscape:path-effect
   effect="spiro"
   id="path-effect1195"
   is_visible="true"
   lpeversion="1" /><inkscape:path-effect
   effect="spiro"
   id="path-effect992"
   is_visible="true"
   lpeversion="1" /><inkscape:path-effect
   effect="spiro"
   id="path-effect287"
   is_visible="true"
   lpeversion="1" /><inkscape:path-effect
   effect="spiro"
   id="path-effect1032"
   is_visible="true"
   lpeversion="1" /><inkscape:path-effect
   effect="spiro"
   id="path-effect1218"
   is_visible="true"
   lpeversion="1" /><inkscape:path-effect
   effect="spiro"
   id="path-effect309"
   is_visible="true"
   lpeversion="1" /><inkscape:path-effect
   effect="spiro"
   id="path-effect1176"
   is_visible="true"
   lpeversion="1" /><inkscape:path-effect
   effect="spiro"
   id="path-effect1026"
   is_visible="true"
   lpeversion="1" /></defs>
 
<path
   style="fill:#2d2d2d;stroke:none;stroke-width:5.49372px;stroke-linecap:butt;stroke-linejoin:miter;stroke-opacity:1"
   d="m 403.07884,303.87809 73.72399,-100.0183 C 444.67238,155.84489 396.63227,118.67299 342.08967,99.62304 257.83124,70.194317 160.68379,85.630565 85.893175,134.33269 58.866526,151.93189 34.175779,174.00415 17.517704,201.62082 0.85962794,229.23749 -7.2153988,262.82531 -0.49614014,294.3693 5.2853429,321.51084 21.789398,345.85466 43.595695,363.01783 c 34.838402,27.4204 80.419725,36.15613 124.152715,43.43747 62.0117,10.32466 124.27335,19.43381 185.67689,32.91178 13.59078,2.98315 27.46725,6.31986 39.03625,14.05076 5.7845,3.86545 10.90838,8.82395 14.479,14.79494 3.57062,5.971 5.53159,12.98652 5.01271,19.92431 -0.4591,6.1386 -2.84173,12.06346 -6.42575,17.06826 -3.58401,5.00479 -8.33774,9.11257 -13.59885,12.30849 -10.52223,6.39182 -22.82704,9.11166 -34.96299,11.18318 -36.36409,6.20708 -73.78748,7.45862 -110.12204,1.08096 -39.78442,-6.9832 -77.92474,-23.16771 -110.59,-46.92789 l -20.39041,124.43056 c 39.89334,-1.92206 79.99111,0.42753 119.38696,6.99567 48.76143,8.12958 96.60079,22.80084 140.53479,45.46294 16.98645,8.76197 33.72342,19.00631 45.75444,33.85778 6.01551,7.42573 10.7623,15.95694 13.28861,25.17354 2.52631,9.21659 2.77379,19.13263 0.10114,28.30786 -2.38878,8.20071 -7.0596,15.66129 -13.04918,21.75086 -5.98958,6.08957 -13.27131,10.83548 -21.0684,14.32307 -15.59418,6.97519 -32.9558,8.90501 -50.02766,9.52418 -67.14475,2.43522 -134.39714,-14.31802 -194.4282,-44.49449 C 127.16083,733.50635 99.596667,715.72369 73.367824,696.23611 53.593883,681.54441 34.551069,665.86873 16.3334,649.28647 L 0,794 c 53.010377,24.57808 108.25913,44.32588 164.8385,58.91892 76.77416,19.80172 159.77152,29.72147 234.13505,2.21793 22.90869,-8.47284 44.73575,-20.52176 62.52451,-37.25965 17.78876,-16.73789 31.39098,-38.37086 36.46611,-62.26312 6.48057,-30.5087 -1.36371,-62.93519 -17.23806,-89.7826 -19.36482,-32.75065 -50.71151,-58.23554 -86.72531,-70.50777 21.62375,-0.0531 43.15733,-7.62633 60.05394,-21.12054 16.89662,-13.49422 29.04422,-32.81996 33.87786,-53.89661 3.83702,-16.73097 3.1253,-34.39064 -1.32001,-50.97036 -4.44532,-16.57972 -12.56389,-32.08608 -23.06278,-45.66626 -15.6867,-20.29056 -36.57279,-36.23372 -59.4011,-47.92335 -22.82832,-11.68962 -47.59575,-19.24791 -72.71866,-24.40725 -50.24582,-10.31868 -101.97652,-11.19802 -152.55504,-19.73795 -20.02527,-3.38117 -40.22517,-8.1083 -57.67622,-18.49602 -8.72552,-5.19386 -16.67808,-11.79061 -22.916172,-19.80292 -6.238092,-8.01232 -10.725435,-17.47068 -12.385038,-27.4885 -1.813605,-10.94742 -0.201393,-22.35258 3.997132,-32.62427 4.198526,-10.27169 10.922088,-19.42585 19.042788,-26.98822 16.24141,-15.12473 37.58367,-23.67762 59.13233,-28.98764 30.55712,-7.52988 62.70054,-9.13175 93.64199,-3.38167 30.94145,5.75007 60.63002,18.96022 84.80555,39.10918 27.8943,23.24834 48.04052,55.63845 56.56147,90.93676 z"
   id="path871"
   inkscape:path-effect="#path-effect873"
   inkscape:original-d="m 403.07884,303.87809 73.72399,-100.0183 c 0,0 -79.87258,-89.53402 -134.71316,-104.23675 C 258.85026,77.306591 156.76405,85.30064 85.893175,134.33269 36.039886,168.82371 -2.7975644,233.79138 -0.49614014,294.3693 0.53633049,321.54592 22.248552,346.16749 43.595695,363.01783 c 34.414535,27.16506 81.737465,32.33578 124.152715,43.43747 60.80866,15.91595 128.6755,6.41929 185.67689,32.91178 23.029,10.70317 59.27921,23.38638 58.52796,48.77001 -0.67378,22.7661 -33.38697,33.33757 -54.98759,40.55993 -34.8146,11.64056 -74.11398,8.22091 -110.12204,1.08096 -39.28018,-7.78877 -95.89621,-28.70824 -110.59,-46.92789 l -20.39041,124.43056 c 78.68215,5.16201 80.20843,-0.36466 119.38696,6.99567 48.38865,9.0906 101.1677,15.89381 140.53479,45.46294 28.11315,21.11615 67.48394,53.18234 59.14419,87.33918 -7.56691,30.99155 -52.53706,41.2787 -84.14524,45.59811 -65.8726,9.00182 -132.98968,-19.08702 -194.4282,-44.49449 C 126.19779,735.71046 99.852703,715.30421 73.367824,696.23611 53.384019,681.84853 71.608284,725.85802 16.3334,649.28647 L 0,794 c 125.19242,2.70979 107.39313,48.68046 164.8385,58.91892 76.83766,13.69473 161.92661,31.84076 234.13505,2.21793 43.28909,-17.75894 85.31907,-54.77443 98.99062,-99.52277 8.90419,-29.14429 -1.59808,-63.62796 -17.23806,-89.7826 -19.12098,-31.97589 -92.46923,-68.7302 -86.72531,-70.50777 65.0827,12.26286 81.14202,-37.04267 93.9318,-75.01715 10.60379,-31.48402 -1.67501,-72.38707 -24.38279,-96.63662 -68.16826,-72.79664 -195.50147,-47.41007 -284.6748,-92.06855 -33.94693,-17.0008 -89.050494,-28.02502 -92.97743,-65.78744 -4.166267,-40.0639 43.84575,-76.20847 82.17225,-88.60013 57.72103,-18.66226 128.58607,1.17565 178.44754,35.72751 29.34115,20.33215 56.56147,90.93676 56.56147,90.93676 z"
   sodipodi:nodetypes="ccaaaaaaaaaccaaaaaaccaaaacaaaaaac" /></svg>
