<?xml version="1.0" encoding="UTF-8" standalone="no"?>
<svg
   xml:space="preserve"
   width="1000"
   height="1000"
   version="1.1"
   style="clip-rule:evenodd;fill-rule:evenodd;image-rendering:optimizeQuality;shape-rendering:geometricPrecision;text-rendering:geometricPrecision"
   viewBox="0 0 1000 1000"
   id="svg10"
   sodipodi:docname="ഡ.svg"
   inkscape:version="1.1.1 (3bf5ae0d25, 2021-09-20)"
   xmlns:inkscape="http://www.inkscape.org/namespaces/inkscape"
   xmlns:sodipodi="http://sodipodi.sourceforge.net/DTD/sodipodi-0.dtd"
   xmlns="http://www.w3.org/2000/svg"
   xmlns:svg="http://www.w3.org/2000/svg"
   xmlns:rdf="http://www.w3.org/1999/02/22-rdf-syntax-ns#"
   xmlns:cc="http://creativecommons.org/ns#"
   xmlns:dc="http://purl.org/dc/elements/1.1/"><metadata
   id="metadata14"><rdf:RDF><cc:Work
       rdf:about=""><dc:format>image/svg+xml</dc:format><dc:type
         rdf:resource="http://purl.org/dc/dcmitype/StillImage" /></cc:Work></rdf:RDF></metadata><sodipodi:namedview
   pagecolor="#ffffff"
   bordercolor="#666666"
   borderopacity="1"
   objecttolerance="10"
   gridtolerance="10"
   guidetolerance="10"
   inkscape:pageopacity="0"
   inkscape:pageshadow="2"
   inkscape:window-width="1920"
   inkscape:window-height="1009"
   id="namedview12"
   showgrid="false"
   inkscape:zoom="2.4010768"
   inkscape:cx="607.85228"
   inkscape:cy="758.82621"
   inkscape:window-x="0"
   inkscape:window-y="0"
   inkscape:window-maximized="1"
   inkscape:current-layer="svg10"
   showguides="true"
   inkscape:guide-bbox="true"
   inkscape:document-rotation="0"
   inkscape:pagecheckerboard="0"><sodipodi:guide
     position="0,1000"
     orientation="0,1"
     id="guide16"
     inkscape:label=""
     inkscape:locked="true"
     inkscape:color="rgb(0,0,255)" /><sodipodi:guide
     position="1763.3122,2036.1693"
     orientation="1000,0"
     id="guide18" /><sodipodi:guide
     position="0,200"
     orientation="0,1"
     id="guide20"
     inkscape:label="base"
     inkscape:locked="true"
     inkscape:color="rgb(0,0,255)" /><inkscape:grid
     type="xygrid"
     id="grid24"
     originx="-473.37552"
     originy="-489.69235" /><sodipodi:guide
     position="0,0"
     orientation="0,1"
     id="guide34"
     inkscape:label="bottom"
     inkscape:locked="true"
     inkscape:color="rgb(0,0,255)" /><sodipodi:guide
     position="225.05109,1693.3186"
     orientation="0,1"
     id="guide44"
     inkscape:label=""
     inkscape:locked="false"
     inkscape:color="rgb(0,0,255)" /><sodipodi:guide
     position="0,900"
     orientation="0,1"
     id="guide46"
     inkscape:label=""
     inkscape:locked="true"
     inkscape:color="rgb(0,0,255)" /><sodipodi:guide
     position="877.95936,389.77732"
     orientation="-1,0"
     id="guide841"
     inkscape:label="width"
     inkscape:locked="false"
     inkscape:color="rgb(0,0,255)" /></sodipodi:namedview>
 <defs
   id="defs4"><inkscape:path-effect
   effect="fillet_chamfer"
   id="path-effect845"
   is_visible="true"
   lpeversion="1"
   satellites_param="F,0,1,1,0,9.6981486,0,1 @ F,0,1,1,0,9.6981486,0,1 @ F,0,0,1,0,0,0,1 @ F,0,0,1,0,0,0,1 @ F,0,0,1,0,0,0,1 @ F,0,0,1,0,0,0,1 @ F,0,0,1,0,0,0,1 @ F,0,0,1,0,0,0,1 @ F,0,0,1,0,0,0,1 @ F,0,0,1,0,0,0,1 @ F,0,0,1,0,0,0,1 @ F,0,0,1,0,0,0,1 @ F,0,0,1,0,0,0,1 @ F,0,0,1,0,0,0,1 @ F,0,0,1,0,0,0,1 @ F,0,0,1,0,0,0,1 @ F,0,0,1,0,0,0,1 @ F,0,0,1,0,0,0,1 @ F,0,0,1,0,0,0,1 @ F,0,0,1,0,0,0,1 @ F,0,0,1,0,0,0,1 @ F,0,0,1,0,0,0,1 @ F,0,0,1,0,0,0,1 @ F,0,0,1,0,0,0,1 @ F,0,0,1,0,0,0,1 @ F,0,0,1,0,0,0,1 @ F,0,0,1,0,0,0,1 @ F,0,0,1,0,16.112754,0,1 @ F,0,0,1,0,16.112754,0,1 @ F,0,0,1,0,0,0,1 @ F,0,0,1,0,0,0,1 @ F,0,0,1,0,0,0,1 @ F,0,0,1,0,0,0,1 @ F,0,0,1,0,0,0,1 @ F,0,0,1,0,0,0,1 @ F,0,0,1,0,0,0,1 @ F,0,0,1,0,0,0,1 @ F,0,0,1,0,0,0,1 @ F,0,0,1,0,0,0,1 @ F,0,0,1,0,0,0,1 @ F,0,0,1,0,0,0,1 @ F,0,0,1,0,0,0,1 @ F,0,0,1,0,0,0,1 @ F,0,0,1,0,0,0,1 @ F,0,0,1,0,0,0,1 @ F,0,0,1,0,0,0,1 @ F,0,0,1,0,16.112754,0,1 @ F,0,0,1,0,16.112754,0,1 @ F,0,0,1,0,0,0,1 @ F,0,0,1,0,0,0,1 @ F,0,0,1,0,0,0,1 @ F,0,0,1,0,0,0,1 @ F,0,0,1,0,0,0,1 @ F,0,0,1,0,0,0,1 @ F,0,0,1,0,0,0,1 @ F,0,0,1,0,0,0,1 @ F,0,0,1,0,0,0,1 @ F,0,0,1,0,16.112754,0,1"
   unit="px"
   method="auto"
   mode="F"
   radius="0"
   chamfer_steps="1"
   flexible="false"
   use_knot_distance="true"
   apply_no_radius="true"
   apply_with_radius="true"
   only_selected="false"
   hide_knots="false" /><inkscape:path-effect
   effect="fillet_chamfer"
   id="path-effect844"
   is_visible="true"
   lpeversion="1"
   satellites_param="F,0,1,1,0,21.558945,0,1 @ F,0,0,1,0,0,0,1 @ F,0,0,1,0,0,0,1 @ F,0,0,1,0,0,0,1 @ F,0,0,1,0,0,0,1 @ F,0,0,1,0,0,0,1 @ F,0,0,1,0,0,0,1 @ F,0,0,1,0,0,0,1 @ F,0,0,1,0,0,0,1 @ F,0,0,1,0,0,0,1 @ F,0,0,1,0,0,0,1 @ F,0,0,1,0,0,0,1 @ F,0,0,1,0,0,0,1 @ F,0,0,1,0,0,0,1 @ F,0,0,1,0,0,0,1 @ F,0,0,1,0,0,0,1 @ F,0,0,1,0,0,0,1 @ F,0,0,1,0,0,0,1 @ F,0,0,1,0,0,0,1 @ F,0,0,1,0,0,0,1 @ F,0,0,1,0,0,0,1 @ F,0,0,1,0,0,0,1 @ F,0,0,1,0,0,0,1 @ F,0,0,1,0,0,0,1 @ F,0,0,1,0,0,0,1 @ F,0,1,1,0,21.558945,0,1 @ F,0,1,1,0,21.558945,0,1 @ F,0,0,1,0,0,0,1 @ F,0,0,1,0,0,0,1 @ F,0,0,1,0,0,0,1 @ F,0,0,1,0,0,0,1 @ F,0,0,1,0,0,0,1 @ F,0,0,1,0,0,0,1 @ F,0,0,1,0,0,0,1 @ F,0,0,1,0,0,0,1 @ F,0,0,1,0,0,0,1 @ F,0,0,1,0,0,0,1 @ F,0,0,1,0,0,0,1 @ F,0,0,1,0,0,0,1 @ F,0,0,1,0,0,0,1 @ F,0,0,1,0,0,0,1 @ F,0,0,1,0,0,0,1 @ F,0,0,1,0,0,0,1 @ F,0,0,1,0,0,0,1 @ F,0,1,1,0,21.558945,0,1 @ F,0,1,1,0,21.558945,0,1 @ F,0,0,1,0,0,0,1 @ F,0,0,1,0,0,0,1 @ F,0,0,1,0,0,0,1 @ F,0,0,1,0,0,0,1 @ F,0,0,1,0,0,0,1 @ F,0,0,1,0,0,0,1 @ F,0,0,1,0,0,0,1 @ F,0,0,1,0,0,0,1 @ F,0,1,1,0,21.558945,0,1"
   unit="px"
   method="auto"
   mode="F"
   radius="0"
   chamfer_steps="1"
   flexible="false"
   use_knot_distance="true"
   apply_no_radius="true"
   apply_with_radius="true"
   only_selected="true"
   hide_knots="false" /><inkscape:path-effect
   effect="spiro"
   id="path-effect867"
   is_visible="true"
   lpeversion="1" />
  <style
   type="text/css"
   id="style2">
   <![CDATA[
    .fil0 {fill:#EF7F1A;fill-rule:nonzero}
   ]]>
  </style>
 <inkscape:path-effect
   effect="spiro"
   id="path-effect1214"
   is_visible="true"
   lpeversion="1" /><inkscape:path-effect
   effect="spiro"
   id="path-effect1195"
   is_visible="true"
   lpeversion="1" /><inkscape:path-effect
   effect="spiro"
   id="path-effect992"
   is_visible="true"
   lpeversion="1" /><inkscape:path-effect
   effect="spiro"
   id="path-effect1078"
   is_visible="true"
   lpeversion="1" /></defs>
 
<path
   style="display:inline;fill:#a51d2d;fill-rule:nonzero;stroke:none;stroke-width:1.92017px;stroke-linecap:butt;stroke-linejoin:miter;stroke-opacity:1"
   d="m 761.46576,80.656972 c 9.20781,18.508159 17.70956,37.367578 25.48053,56.523468 2.01345,4.96325 5.18154,13.04914 7.07659,18.0588 37.45381,99.01145 55.64975,204.40631 67.09658,309.70193 5.20837,47.91011 9.0606,96.3853 3.08792,144.20614 -5.97268,47.82084 -22.42686,95.39046 -53.81094,131.96293 -17.13343,19.96592 -38.634,36.40531 -63.03754,46.23686 -24.40355,9.83154 -51.74261,12.86443 -77.40759,7.07641 -29.27401,-6.60194 -55.253,-24.32519 -75.39607,-46.56952 -20.14307,-22.24432 -34.86034,-48.8792 -47.09978,-76.27901 -17.8924,-40.05483 -30.86782,-82.30322 -38.54263,-125.49609 l 33.35734,4.92963 c 0.1359,42.02407 -9.58733,84.04865 -28.16754,121.74237 -17.9853,36.48681 -44.43959,69.05379 -77.75416,92.39684 -33.31458,23.34304 -73.57069,37.19013 -114.2494,37.15557 -44.69141,-0.038 -89.59681,-17.45749 -120.87569,-49.37858 -31.27887,-31.92108 -47.88491,-78.33458 -41.52524,-122.5712 6.19606,-43.0986 32.48051,-80.68692 62.05509,-112.64353 29.57458,-31.95661 63.26301,-60.24667 89.59674,-94.92253 18.66955,-24.58379 33.62369,-52.82669 37.83484,-83.40743 2.10557,-15.29037 1.46467,-31.02608 -2.5912,-45.91832 -4.05588,-14.89223 -11.58261,-28.91687 -22.28563,-40.03776 -11.72658,-12.18442 -27.13353,-20.68919 -43.59188,-24.57444 -16.45836,-3.88526 -33.91236,-3.19532 -50.15045,1.52664 -26.86362,7.81182 -49.8144,26.38901 -66.19963,49.06505 -16.38523,22.67605 -26.61919,49.29263 -33.46006,76.41976 -21.0041,83.2907 -11.1232,170.83837 -1.927,256.24295 4.3651,40.5384 8.55251,81.2452 7.27494,121.99792 -0.73737,23.52103 -3.30034,46.98442 -7.65341,70.11082 -1.64603,8.7448 -10.23463,13.93655 -18.83843,11.66417 L 7.0080879,788.73799 C -1.5957132,786.46561 -4.4178354,778.71883 0.31524785,771.18406 12.230087,752.2164 22.303151,732.09167 30.337099,711.18238 53.606155,650.62193 59.411301,584.53608 56.621618,519.71915 54.655733,474.04277 48.550735,428.60236 47.170212,382.90454 c -1.380522,-45.69781 2.156765,-92.32145 18.73165,-134.92977 16.41673,-42.20176 45.815458,-79.53665 83.985028,-103.90018 38.16957,-24.36353 85.04823,-35.32787 129.83837,-28.66899 43.74236,6.50311 84.79249,29.88515 112.53636,64.32295 27.74388,34.4378 41.85975,79.6074 38.45529,123.69928 -3.30302,42.77803 -22.29289,82.96737 -46.10686,118.6572 -23.81398,35.68984 -52.56849,67.77982 -78.43642,102.01022 -12.05273,15.94908 -23.59595,32.57806 -30.80442,51.22422 -7.20846,18.64616 -9.80904,39.66499 -3.71658,58.70503 6.45664,20.17819 22.68526,36.80995 42.42865,44.49411 12.99989,5.05958 27.33318,6.39299 41.15687,4.52157 13.82369,-1.87142 27.13993,-6.88788 39.14622,-13.99037 24.0126,-14.20498 42.42088,-36.33983 57.13663,-60.04285 34.48889,-55.5521 50.81562,-121.89193 47.79992,-187.20981 -1.19187,-25.81514 -5.32711,-51.49239 -12.28516,-76.38036 -2.39578,-8.5694 2.51056,-15.47727 11.40899,-15.56083 l 103.2261,-0.96925 c 8.89843,-0.0836 13.07833,6.39828 9.73468,14.64429 -16.20793,39.9715 -25.45177,82.76362 -27.13331,125.86544 -1.63452,41.89658 3.86771,84.11443 16.76444,124.01016 7.40524,22.90794 17.53182,45.49833 34.05014,63.0128 8.25916,8.75724 18.07013,16.13601 29.07082,21.02352 11.00069,4.8875 23.2115,7.23038 35.19476,6.08831 18.04036,-1.71935 34.79173,-11.31135 47.21453,-24.50547 12.4228,-13.19412 20.78926,-29.78981 26.39119,-47.02435 14.00798,-43.09604 11.31192,-89.89852 3.46024,-134.52859 -10.67122,-60.65673 -30.55077,-119.51084 -56.52807,-175.35253 -24.60603,-52.89395 -54.71844,-103.22377 -89.68396,-149.92073 -5.33363,-7.12314 -3.3104,-15.99509 4.67077,-19.93083 L 748.39622,76.28926 c 4.8038,-2.368893 10.68381,-0.427722 13.06954,4.367712 z"
   id="path1087-2"
   inkscape:path-effect="#path-effect1078;#path-effect845"
   inkscape:original-d="m 757.09428,72 c 0,0 24.8926,48.44575 33.44399,74.1888 34.30631,103.27551 68.6077,209.94585 70.58119,318.75237 1.69733,93.58077 9.20163,204.27138 -50.72302,276.16907 -32.06007,38.46572 -91.49184,63.85062 -140.44513,53.31327 -56.53341,-12.169 -92.71618,-73.27755 -122.49585,-122.84853 -22.5352,-37.5119 -38.54263,-125.49609 -38.54263,-125.49609 l 33.35734,4.92963 c 0,0 -4.56967,87.41894 -28.16754,121.74237 -43.741,63.6219 -115.26415,138.04268 -192.00356,129.55241 -78.36121,-8.6697 -157.44266,-93.2665 -162.40093,-171.94978 -5.38899,-85.5184 121.97425,-127.18149 151.65183,-207.56606 19.60985,-53.11518 46.16287,-123.5028 12.95801,-169.36351 -18.871,-26.06358 -63.29286,-33.45237 -93.74233,-23.0478 -50.54566,17.27142 -81.87888,75.11608 -99.65969,125.48481 -28.43354,80.54534 -4.14933,170.85513 -1.927,256.24295 1.05992,40.72442 8.63582,81.28244 7.27494,121.99792 -0.96408,28.84391 -10.91328,85.88951 -10.91328,85.88951 L -8.570472,784.62347 c 0,0 30.408672,-47.07337 38.907571,-73.44109 C 50.099756,649.86899 51.134344,583.90469 56.621618,519.71915 64.341856,429.4143 20.477051,326.40408 65.901862,247.97477 107.93234,175.40605 197.06684,101.25051 279.72526,115.4056 c 79.22829,13.5677 144.45692,107.90668 150.99165,188.02223 6.8665,84.18287 -90.9492,143.17328 -124.54328,220.66742 -15.27614,35.2387 -43.2277,72.52177 -34.521,109.92925 4.64579,19.96015 22.23198,41.01775 42.42865,44.49411 50.59531,8.70873 105.30708,-29.47141 137.43972,-69.51165 40.31044,-50.23053 45.64337,-122.84066 47.79992,-187.20981 1.0419,-31.09879 -16.98821,-91.7899 -16.98821,-91.7899 l 135.45018,-1.27183 c 0,0 -31.1136,92.52144 -33.51067,140.66102 -2.07447,41.66111 -2.55699,87.04215 16.76444,124.01016 20.59294,39.40081 53.86268,90.77232 98.31572,90.12463 34.20864,-0.49843 59.88347,-40.19008 73.60572,-71.52982 17.99204,-41.09136 9.85603,-90.12919 3.46024,-134.52859 -8.75622,-60.7855 -30.91303,-119.5366 -56.52807,-175.35253 C 693.37467,244.342 620.42589,139.39502 620.42589,139.39502 Z"
   sodipodi:nodetypes="caaaaaccaaaaaaaaaccaaaaaaaaaaccaaaaaacc" /><text
   text-anchor="middle"
   x="771.05951"
   y="779.8186"
   id="bottom"
   inkscape:label="bottom"
   style="clip-rule:evenodd;fill-rule:evenodd;image-rendering:optimizeQuality;shape-rendering:geometricPrecision;text-rendering:geometricPrecision">✛</text></svg>
