<?xml version="1.0" encoding="UTF-8" standalone="no"?>
<svg
   xmlns:dc="http://purl.org/dc/elements/1.1/"
   xmlns:cc="http://creativecommons.org/ns#"
   xmlns:rdf="http://www.w3.org/1999/02/22-rdf-syntax-ns#"
   xmlns:svg="http://www.w3.org/2000/svg"
   xmlns="http://www.w3.org/2000/svg"
   xmlns:sodipodi="http://sodipodi.sourceforge.net/DTD/sodipodi-0.dtd"
   xmlns:inkscape="http://www.inkscape.org/namespaces/inkscape"
   xml:space="preserve"
   width="1000"
   height="1000"
   version="1.1"
   style="clip-rule:evenodd;fill-rule:evenodd;image-rendering:optimizeQuality;shape-rendering:geometricPrecision;text-rendering:geometricPrecision"
   viewBox="0 0 1000 1000"
   id="svg10"
   sodipodi:docname="ഡ്ര.svg"
   inkscape:version="1.0.2 (e86c870879, 2021-01-15)"><metadata
   id="metadata14"><rdf:RDF><cc:Work
       rdf:about=""><dc:format>image/svg+xml</dc:format><dc:type
         rdf:resource="http://purl.org/dc/dcmitype/StillImage" /><dc:title /></cc:Work></rdf:RDF></metadata><sodipodi:namedview
   pagecolor="#ffffff"
   bordercolor="#666666"
   borderopacity="1"
   objecttolerance="10"
   gridtolerance="10"
   guidetolerance="10"
   inkscape:pageopacity="0"
   inkscape:pageshadow="2"
   inkscape:window-width="1920"
   inkscape:window-height="1007"
   id="namedview12"
   showgrid="false"
   inkscape:zoom="0.84890884"
   inkscape:cx="453.973"
   inkscape:cy="361.83064"
   inkscape:window-x="1920"
   inkscape:window-y="0"
   inkscape:window-maximized="1"
   inkscape:current-layer="svg10"
   showguides="true"
   inkscape:guide-bbox="true"
   inkscape:document-rotation="0"><sodipodi:guide
   position="0,1000"
   orientation="0,1"
   id="guide16"
   inkscape:label=""
   inkscape:locked="true"
   inkscape:color="rgb(0,0,255)" /><sodipodi:guide
   position="1763.3122,2036.1693"
   orientation="1000,0"
   id="guide18" /><sodipodi:guide
   position="0,200"
   orientation="0,1"
   id="guide20"
   inkscape:label="base"
   inkscape:locked="true"
   inkscape:color="rgb(0,0,255)" /><inkscape:grid
   type="xygrid"
   id="grid24"
   originx="-473.37552"
   originy="-489.69235" /><sodipodi:guide
   position="0,0"
   orientation="0,1"
   id="guide34"
   inkscape:label="bottom"
   inkscape:locked="true"
   inkscape:color="rgb(0,0,255)" /><sodipodi:guide
   position="225.05109,1693.3186"
   orientation="0,1"
   id="guide44"
   inkscape:label=""
   inkscape:locked="false"
   inkscape:color="rgb(0,0,255)" /><sodipodi:guide
   position="0,900"
   orientation="0,1"
   id="guide46"
   inkscape:label=""
   inkscape:locked="true"
   inkscape:color="rgb(0,0,255)" /><sodipodi:guide
   position="1035.2901,390.30519"
   orientation="1,0"
   id="guide841"
   inkscape:label="width" />    </sodipodi:namedview>
 <defs
   id="defs4"><inkscape:path-effect
   effect="fillet_chamfer"
   id="path-effect892"
   is_visible="true"
   lpeversion="1"
   satellites_param="F,0,0,1,0,0,0,1 @ F,0,0,1,0,0,0,1 @ F,0,0,1,0,0,0,1 @ F,0,0,1,0,0,0,1 @ F,0,0,1,0,0,0,1 @ F,0,0,1,0,0,0,1 @ F,0,0,1,0,0,0,1 @ F,0,0,1,0,0,0,1 @ F,0,0,1,0,0,0,1 @ F,0,0,1,0,0,0,1 @ F,0,0,1,0,0,0,1 @ F,0,0,1,0,0,0,1 @ F,0,0,1,0,0,0,1 @ F,0,0,1,0,0,0,1 @ F,0,0,1,0,0,0,1 @ F,0,0,1,0,0,0,1 @ F,0,0,1,0,0,0,1 @ F,0,0,1,0,0,0,1 @ F,0,0,1,0,0,0,1 @ F,0,0,1,0,0,0,1 @ F,0,0,1,0,0,0,1 @ F,0,0,1,0,0,0,1 @ F,0,0,1,0,0,0,1 @ F,0,1,1,0,37.864431,0,1 @ F,0,1,1,0,37.864431,0,1 @ F,0,0,1,0,0,0,1 @ F,0,0,1,0,0,0,1 @ F,0,0,1,0,0,0,1 @ F,0,0,1,0,0,0,1 @ F,0,0,1,0,0,0,1 @ F,0,0,1,0,0,0,1 @ F,0,0,1,0,0,0,1 @ F,0,0,1,0,0,0,1 @ F,0,0,1,0,0,0,1 @ F,0,0,1,0,0,0,1 @ F,0,0,1,0,0,0,1 @ F,0,0,1,0,0,0,1 @ F,0,0,1,0,0,0,1 @ F,0,0,1,0,0,0,1 @ F,0,0,1,0,0,0,1 @ F,0,0,1,0,0,0,1 @ F,0,0,1,0,0,0,1 @ F,0,1,1,0,37.864431,0,1 @ F,0,1,1,0,37.864431,0,1 @ F,0,0,1,0,0,0,1 @ F,0,0,1,0,0,0,1 @ F,0,0,1,0,0,0,1 @ F,0,0,1,0,0,0,1 @ F,0,0,1,0,0,0,1 @ F,0,0,1,0,0,0,1 @ F,0,0,1,0,0,0,1 @ F,0,0,1,0,0,0,1 @ F,0,0,1,0,0,0,1 @ F,0,1,1,0,37.864431,0,1 @ F,0,1,1,0,37.864431,0,1 @ F,0,0,1,0,0,0,1 @ F,0,0,1,0,0,0,1 @ F,0,0,1,0,0,0,1 @ F,0,0,1,0,0,0,1 @ F,0,0,1,0,0,0,1 @ F,0,0,1,0,0,0,1 @ F,0,0,1,0,0,0,1 @ F,0,0,1,0,0,0,1 @ F,0,0,1,0,0,0,1 @ F,0,0,1,0,0,0,1 @ F,0,0,1,0,0,0,1 @ F,0,1,1,0,37.864431,0,1 @ F,0,1,1,0,37.864431,0,1 @ F,0,0,1,0,0,0,1 @ F,0,0,1,0,0,0,1 @ F,0,0,1,0,0,0,1 @ F,0,0,1,0,0,0,1"
   unit="px"
   method="auto"
   mode="F"
   radius="0"
   chamfer_steps="1"
   flexible="false"
   use_knot_distance="true"
   apply_no_radius="true"
   apply_with_radius="true"
   only_selected="true"
   hide_knots="false" /><inkscape:path-effect
   effect="spiro"
   id="path-effect867"
   is_visible="true"
   lpeversion="1" />
  <style
   type="text/css"
   id="style2">
   <![CDATA[
    .fil0 {fill:#EF7F1A;fill-rule:nonzero}
   ]]>
  </style>
 <inkscape:path-effect
   effect="spiro"
   id="path-effect1214"
   is_visible="true"
   lpeversion="1" /><inkscape:path-effect
   effect="spiro"
   id="path-effect1195"
   is_visible="true"
   lpeversion="1" /><inkscape:path-effect
   effect="spiro"
   id="path-effect992"
   is_visible="true"
   lpeversion="1" /><inkscape:path-effect
   effect="spiro"
   id="path-effect1078"
   is_visible="true"
   lpeversion="1" /></defs>
 
<path
   style="display:inline;fill:#1a1a1a;stroke:none;stroke-width:1.92017px;stroke-linecap:butt;stroke-linejoin:miter;stroke-opacity:1"
   d="m 788.64544,902.95239 c 24.61284,-7.23039 49.08116,-15.5337 71.55719,-27.89892 22.47603,-12.36523 43.01078,-29.02761 57.06388,-50.48876 15.88707,-24.26189 22.82276,-54.24601 19.2035,-83.01995 -39.15902,28.42359 -91.54593,37.7428 -138.10501,24.56778 -31.9015,-9.0273 -60.84575,-28.21237 -81.58645,-54.07782 -20.74071,-25.86544 -33.1781,-58.28685 -35.05785,-91.38767 -4.00907,16.90822 -9.66679,33.42511 -16.86684,49.24029 -16.77405,36.84484 -42.21538,69.98779 -74.7651,94.05908 -32.54972,24.07129 -72.28941,38.80143 -112.76292,39.69904 -46.08971,1.02217 -92.76338,-16.60057 -125.02574,-49.5315 -32.26236,-32.93093 -49.00732,-81.08182 -41.85073,-126.62399 6.75318,-42.97504 33.04251,-80.3745 62.51697,-112.37007 29.47446,-31.99556 62.94089,-60.46365 89.13486,-95.19599 18.57428,-24.62888 33.47872,-52.85781 37.69457,-83.41616 2.10793,-15.27917 1.48297,-31.00257 -2.5472,-45.89063 -4.03017,-14.88805 -11.52144,-28.91707 -22.18936,-40.05672 -11.7044,-12.22197 -27.10494,-20.77249 -43.57235,-24.67047 -16.4674,-3.89798 -33.94464,-3.18442 -50.16998,1.62267 -26.7683,7.93066 -49.48921,26.69324 -65.75492,49.38386 -16.2657,22.69062 -26.52608,49.17527 -33.90477,76.10095 -22.53051,82.21637 -19.29082,169.37684 -8.10195,253.88698 6.00368,45.34609 14.23594,90.36431 21.21894,135.56995 1.73819,11.25245 3.39902,22.51685 4.98233,33.79214 2.90798,20.70856 -11.36712,33.04346 -31.53165,27.5026 l -63.98675,-17.58242 c -20.16453,-5.54086 -27.90019,-24.71869 -19.79603,-43.98313 5.31406,-12.6321 9.816,-25.60585 13.46227,-38.81625 16.65549,-60.34271 15.20608,-124.17607 9.4685,-186.51168 -4.1984,-45.6133 -10.62676,-91.09235 -11.60733,-136.88796 -0.98057,-45.79561 3.68967,-92.40137 20.88757,-134.85642 16.96636,-41.88345 46.32748,-78.98471 84.36421,-103.38321 38.03673,-24.39851 84.73335,-35.64194 129.45919,-29.18596 43.80089,6.32247 84.93325,29.70753 112.67448,64.1882 27.74123,34.48066 41.78061,79.71491 38.31717,123.83403 -3.35751,42.76967 -22.35349,82.94184 -46.15847,118.63273 -23.80498,35.6909 -52.53593,67.79505 -78.38481,102.03469 -12.04364,15.95311 -23.57833,32.58436 -30.78448,51.22899 -7.20615,18.64463 -9.81194,39.65715 -3.73652,58.70026 6.44081,20.18839 22.66368,36.85206 42.42865,44.49411 12.99091,5.02289 27.31062,6.29698 41.10509,4.37197 13.79448,-1.92501 27.06729,-6.98751 39.03825,-14.10714 23.94193,-14.23927 42.32088,-36.28804 57.29638,-59.77648 37.10608,-58.19933 55.7905,-128.43361 49.81559,-197.19642 -1.33883,-15.408 -3.8868,-30.71002 -7.60148,-45.72329 -5.01931,-20.28611 5.54934,-36.23917 26.46036,-36.43552 l 59.72466,-0.56079 c 20.91102,-0.19635 29.1674,14.28812 21.06786,33.55325 -14.10777,33.55597 -22.26376,69.61956 -23.82902,105.99031 -1.31147,30.47379 2.03811,61.48529 13.17728,89.88055 11.13916,28.39526 30.46925,54.07582 56.58925,69.82756 15.45467,9.31998 33.2184,15.06191 51.26283,15.38972 18.04444,0.3278 36.32471,-4.92281 50.79429,-15.70893 11.02685,-8.21979 19.65408,-19.45721 25.51486,-31.89938 5.86078,-12.44217 9.01339,-26.06611 10.0644,-39.7793 2.10202,-27.4264 -4.06095,-54.791 -11.45302,-81.28596 -18.92238,-67.82241 -46.33655,-133.52742 -84.21823,-192.88156 -17.40426,-27.26951 -36.98569,-53.14838 -58.48771,-77.3184 -13.89724,-15.62164 -10.583,-34.47694 8.47066,-43.09481 l 95.72607,-43.29641 c 19.05366,-8.61787 36.36011,1.24754 39.04709,21.98589 1.45847,11.25664 3.00257,22.50218 4.63214,33.73533 13.4122,92.45467 32.59764,183.96794 52.61954,275.21966 20.00145,91.15872 40.97925,183.51612 36.26885,276.72441 -1.8121,35.8574 -7.4945,71.72148 -19.66133,105.50024 -12.16685,33.77876 -31.00127,65.47493 -56.93205,90.30699 -29.19307,27.95612 -66.45856,46.40491 -105.13209,58.15815 -38.67352,11.75324 -78.96055,17.14936 -119.11565,21.76973 C 600.97625,1012.3634 482.3262,1019.491 368.12682,994.66289 274.11182,974.22304 182.95802,930.6222 118.67957,859.03386 50.69091,783.31338 17.279815,681.3966 8.4626296,580.01461 -0.3545559,478.63263 13.62365,376.72853 30.33149,276.34478 38.070987,229.84447 46.403653,183.44289 55.326727,137.15513 59.285118,116.62128 79.573445,100 100.48539,100 h 69.80217 c 20.91195,0 29.95584,15.00089 20.88494,33.84205 -46.72052,97.04323 -79.92814,200.58828 -98.29647,306.71666 -9.687623,55.97306 -15.273639,113.08729 -9.666367,169.61509 5.607271,56.5278 22.879797,112.68827 55.742907,159.02237 41.01704,57.83043 103.81043,97.09348 169.7113,123.24365 151.5216,60.1254 323.57578,56.45912 479.98157,10.51257 z"
   id="path1087-2"
   inkscape:path-effect="#path-effect1078;#path-effect892"
   inkscape:original-d="m 788.64544,902.95239 c 48.48568,-13.03951 99.22849,-37.68184 128.62107,-78.38768 16.62801,-23.02817 17.07961,-90.54589 19.2035,-83.01995 -39.28167,19.64346 -98.81363,40.14737 -138.10501,24.56778 -60.13837,-23.84571 -116.6443,-145.46549 -116.6443,-145.46549 0,0 -6.49711,35.3306 -16.86684,49.24029 -45.89131,61.55745 -111.10368,141.15084 -187.52802,133.75812 -80.5072,-7.78766 -161.7288,-95.43648 -166.87647,-176.15549 -5.45348,-85.51432 121.97425,-127.18149 151.65183,-207.56606 19.60985,-53.11518 46.16287,-123.5028 12.95801,-169.36351 -18.871,-26.06358 -63.29286,-33.45237 -93.74233,-23.0478 -50.54566,17.27142 -81.26621,75.33658 -99.65969,125.48481 -29.15686,79.49363 -13.32105,169.37591 -8.10195,253.88698 2.81938,45.65318 14.51882,90.32318 21.21894,135.56995 3.51653,23.7476 9.9618,71.32735 9.9618,71.32735 L 167.72699,776.13405 c 0,0 24.39764,-47.15204 30.17736,-72.76677 13.7018,-60.72397 6.828,-124.31709 9.4685,-186.51168 3.84446,-90.55269 -36.14457,-193.31507 9.28024,-271.74438 42.03048,-72.56872 131.16498,-146.72426 213.8234,-132.56917 79.22829,13.5677 144.45692,107.90668 150.99165,188.02223 6.8665,84.18287 -90.9492,143.17328 -124.54328,220.66742 -15.27614,35.2387 -43.2277,72.52177 -34.521,109.92925 4.64579,19.96015 22.23198,41.01775 42.42865,44.49411 50.59531,8.70873 105.35805,-29.43056 137.43972,-69.51165 42.36604,-52.92982 49.16546,-129.40243 49.81559,-197.19642 0.26845,-27.99261 -19.00388,-81.80329 -19.00388,-81.80329 l 135.45018,-1.27183 c 0,0 -43.75979,91.44113 -40.62392,139.89908 3.7516,57.97258 21.10668,127.97307 69.76653,159.70811 28.49475,18.58374 76.23042,21.82324 102.05712,-0.31921 39.18774,-33.59752 30.69608,-101.76591 24.12624,-152.96464 C 914.93094,402.61038 876.02082,339.29989 839.64186,279.31365 816.36933,240.93896 755.12511,174.50447 755.12511,174.50447 L 919.85058,100 c 0,0 5.39709,47.65437 9.17953,71.32525 14.73796,92.23148 37.77432,183.00538 52.61954,275.21966 14.78622,91.84778 47.52325,184.37732 36.26885,276.72441 -8.4786,69.57013 -26.28641,147.01072 -76.59338,195.80723 -56.96136,55.25109 -145.96977,66.89562 -224.24774,79.92788 C 602.33092,1018.1082 480.6845,1024.0308 368.12682,994.66289 276.54764,970.76857 173.02517,936.5209 118.67957,859.03386 5.87737,698.19822 27.32368,472.77134 30.33149,276.34478 31.24645,216.59293 62.511464,119.49347 62.620962,100 H 208.15199 c 0,0 -104.08136,221.23613 -115.27596,340.55871 -10.33251,110.13365 -10.890698,233.81703 46.07654,328.63746 36.00498,59.92931 103.45773,100.92002 169.7113,123.24365 151.65491,51.09895 325.44047,52.0741 479.98157,10.51257 z"
   sodipodi:nodetypes="aacscaaaaaaaaaccaaaaaaaaaaccaaaaaccaaaaaaaaccaaaa" /></svg>
