<?xml version="1.0" encoding="UTF-8" standalone="no"?>
<svg
   xml:space="preserve"
   width="1000"
   height="1000"
   version="1.1"
   style="clip-rule:evenodd;fill-rule:evenodd;image-rendering:optimizeQuality;shape-rendering:geometricPrecision;text-rendering:geometricPrecision"
   viewBox="0 0 1000 1000"
   id="svg10"
   sodipodi:docname="ഡൃ.svg"
   inkscape:version="1.1.1 (3bf5ae0d25, 2021-09-20)"
   xmlns:inkscape="http://www.inkscape.org/namespaces/inkscape"
   xmlns:sodipodi="http://sodipodi.sourceforge.net/DTD/sodipodi-0.dtd"
   xmlns="http://www.w3.org/2000/svg"
   xmlns:svg="http://www.w3.org/2000/svg"
   xmlns:rdf="http://www.w3.org/1999/02/22-rdf-syntax-ns#"
   xmlns:cc="http://creativecommons.org/ns#"
   xmlns:dc="http://purl.org/dc/elements/1.1/"><metadata
   id="metadata14"><rdf:RDF><cc:Work
       rdf:about=""><dc:format>image/svg+xml</dc:format><dc:type
         rdf:resource="http://purl.org/dc/dcmitype/StillImage" /></cc:Work></rdf:RDF></metadata><sodipodi:namedview
   pagecolor="#ffffff"
   bordercolor="#666666"
   borderopacity="1"
   objecttolerance="10"
   gridtolerance="10"
   guidetolerance="10"
   inkscape:pageopacity="0"
   inkscape:pageshadow="2"
   inkscape:window-width="1920"
   inkscape:window-height="1009"
   id="namedview12"
   showgrid="false"
   inkscape:zoom="1.2005384"
   inkscape:cx="291.11939"
   inkscape:cy="533.09415"
   inkscape:window-x="0"
   inkscape:window-y="0"
   inkscape:window-maximized="1"
   inkscape:current-layer="svg10"
   showguides="true"
   inkscape:guide-bbox="true"
   inkscape:document-rotation="0"
   inkscape:pagecheckerboard="0"><sodipodi:guide
     position="0,1000"
     orientation="0,1"
     id="guide16"
     inkscape:label=""
     inkscape:locked="true"
     inkscape:color="rgb(0,0,255)" /><sodipodi:guide
     position="1763.3122,2036.1693"
     orientation="1000,0"
     id="guide18" /><sodipodi:guide
     position="0,200"
     orientation="0,1"
     id="guide20"
     inkscape:label="base"
     inkscape:locked="true"
     inkscape:color="rgb(0,0,255)" /><inkscape:grid
     type="xygrid"
     id="grid24"
     originx="-473.37552"
     originy="-489.69235" /><sodipodi:guide
     position="0,0"
     orientation="0,1"
     id="guide34"
     inkscape:label="bottom"
     inkscape:locked="true"
     inkscape:color="rgb(0,0,255)" /><sodipodi:guide
     position="225.05109,1693.3186"
     orientation="0,1"
     id="guide44"
     inkscape:label=""
     inkscape:locked="false"
     inkscape:color="rgb(0,0,255)" /><sodipodi:guide
     position="0,900"
     orientation="0,1"
     id="guide46"
     inkscape:label=""
     inkscape:locked="true"
     inkscape:color="rgb(0,0,255)" /><sodipodi:guide
     position="902.03487,777.81748"
     orientation="-1,0"
     id="guide841"
     inkscape:label="width"
     inkscape:locked="false"
     inkscape:color="rgb(0,0,255)" /></sodipodi:namedview>
 <defs
   id="defs4"><inkscape:path-effect
   effect="fillet_chamfer"
   id="path-effect3456"
   is_visible="true"
   lpeversion="1"
   satellites_param="F,0,0,1,0,0,0,1 @ F,0,0,1,0,0,0,1 @ F,0,0,1,0,0,0,1 @ F,0,0,1,0,0,0,1 @ F,0,0,1,0,0,0,1 @ F,0,0,1,0,0,0,1 @ F,0,0,1,0,0,0,1 @ F,0,0,1,0,0,0,1 @ F,0,0,1,0,0,0,1 @ F,0,0,1,0,0,0,1 @ F,0,0,1,0,0,0,1 @ F,0,0,1,0,0,0,1 @ F,0,0,1,0,0,0,1 @ F,0,0,1,0,0,0,1 @ F,0,0,1,0,0,0,1 @ F,0,0,1,0,0,0,1 @ F,0,0,1,0,0,0,1 @ F,0,0,1,0,0,0,1 @ F,0,0,1,0,0,0,1 @ F,0,0,1,0,0,0,1 @ F,0,0,1,0,0,0,1 @ F,0,0,1,0,0,0,1 @ F,0,0,1,0,0,0,1 @ F,0,0,1,0,12.881103,0,1 @ F,0,0,1,0,12.90991,0,1 @ F,0,0,1,0,0,0,1 @ F,0,0,1,0,0,0,1 @ F,0,0,1,0,0,0,1 @ F,0,0,1,0,0,0,1 @ F,0,0,1,0,0,0,1 @ F,0,0,1,0,0,0,1 @ F,0,0,1,0,0,0,1 @ F,0,0,1,0,0,0,1 @ F,0,0,1,0,0,0,1 @ F,0,0,1,0,0,0,1 @ F,0,0,1,0,0,0,1 @ F,0,0,1,0,0,0,1 @ F,0,0,1,0,0,0,1 @ F,0,0,1,0,0,0,1 @ F,0,0,1,0,0,0,1 @ F,0,0,1,0,0,0,1 @ F,0,0,1,0,0,0,1 @ F,0,0,1,0,13.203053,0,1 @ F,0,0,1,0,13.76379,0,1 @ F,0,0,1,0,0,0,1 @ F,0,0,1,0,0,0,1 @ F,0,0,1,0,0,0,1 @ F,0,0,1,0,0,0,1 @ F,0,0,1,0,0,0,1 @ F,0,0,1,0,0,0,1 @ F,0,0,1,0,0,0,1 @ F,0,0,1,0,0,0,1 @ F,0,0,1,0,0,0,1 @ F,0,0,1,0,14.180398,0,1 @ F,0,0,1,0,18.513933,0,1 @ F,0,0,1,0,0,0,1 @ F,0,0,1,0,0,0,1 @ F,0,0,1,0,0,0,1 @ F,0,0,1,0,0,0,1 @ F,0,0,1,0,0,0,1 @ F,0,0,1,0,0,0,1 @ F,0,0,1,0,0,0,1 @ F,0,0,1,0,0,0,1 @ F,0,0,1,0,0,0,1 @ F,0,0,1,0,0,0,1 @ F,0,0,1,0,0,0,1 @ F,0,0,1,0,0,0,1 @ F,0,0,1,0,0,0,1 @ F,0,0,1,0,0,0,1 @ F,0,0,1,0,0,0,1 @ F,0,0,1,0,0,0,1 @ F,0,0,1,0,0,0,1 @ F,0,0,1,0,0,0,1 @ F,0,0,1,0,0,0,1 @ F,0,0,1,0,0,0,1 @ F,0,0,1,0,0,0,1 @ F,0,0,1,0,0,0,1 @ F,0,0,1,0,0,0,1 @ F,0,0,1,0,0,0,1 @ F,0,0,1,0,0,0,1 @ F,0,0,1,0,0,0,1 @ F,0,0,1,0,0,0,1 @ F,0,0,1,0,0,0,1"
   unit="px"
   method="auto"
   mode="F"
   radius="0"
   chamfer_steps="1"
   flexible="false"
   use_knot_distance="true"
   apply_no_radius="true"
   apply_with_radius="true"
   only_selected="false"
   hide_knots="false" /><inkscape:path-effect
   effect="spiro"
   id="path-effect906"
   is_visible="true"
   lpeversion="1" /><inkscape:path-effect
   effect="fillet_chamfer"
   id="path-effect844"
   is_visible="true"
   lpeversion="1"
   satellites_param="F,0,0,1,0,0,0,1 @ F,0,0,1,0,0,0,1 @ F,0,0,1,0,0,0,1 @ F,0,0,1,0,0,0,1 @ F,0,0,1,0,0,0,1 @ F,0,0,1,0,0,0,1 @ F,0,0,1,0,0,0,1 @ F,0,0,1,0,0,0,1 @ F,0,0,1,0,0,0,1 @ F,0,0,1,0,0,0,1 @ F,0,0,1,0,0,0,1 @ F,0,0,1,0,0,0,1 @ F,0,0,1,0,0,0,1 @ F,0,0,1,0,0,0,1 @ F,0,0,1,0,0,0,1 @ F,0,0,1,0,0,0,1 @ F,0,0,1,0,0,0,1 @ F,0,0,1,0,0,0,1 @ F,0,0,1,0,0,0,1 @ F,0,0,1,0,0,0,1 @ F,0,0,1,0,0,0,1 @ F,0,0,1,0,0,0,1 @ F,0,0,1,0,0,0,1 @ F,0,0,1,0,0,0,1 @ F,0,0,1,0,0,0,1 @ F,0,0,1,0,0,0,1 @ F,0,0,1,0,0,0,1 @ F,0,0,1,0,0,0,1 @ F,0,0,1,0,0,0,1 @ F,0,0,1,0,0,0,1 @ F,0,0,1,0,0,0,1 @ F,0,0,1,0,0,0,1 @ F,0,1,1,0,29.661715,0,1 @ F,0,1,1,0,29.661715,0,1 @ F,0,0,1,0,0,0,1 @ F,0,0,1,0,0,0,1 @ F,0,0,1,0,0,0,1 @ F,0,0,1,0,0,0,1 @ F,0,0,1,0,0,0,1 @ F,0,0,1,0,0,0,1 @ F,0,0,1,0,0,0,1 @ F,0,0,1,0,0,0,1 @ F,0,0,1,0,0,0,1 @ F,0,0,1,0,0,0,1 @ F,0,0,1,0,0,0,1 @ F,0,0,1,0,0,0,1 @ F,0,0,1,0,0,0,1 @ F,0,0,1,0,0,0,1 @ F,0,0,1,0,0,0,1 @ F,0,0,1,0,0,0,1 @ F,0,0,1,0,0,0,1 @ F,0,1,1,0,29.661715,0,1 @ F,0,1,1,0,29.661715,0,1 @ F,0,0,1,0,0,0,1 @ F,0,0,1,0,0,0,1 @ F,0,0,1,0,0,0,1 @ F,0,0,1,0,0,0,1 @ F,0,0,1,0,0,0,1 @ F,0,0,1,0,0,0,1 @ F,0,0,1,0,0,0,1 @ F,0,0,1,0,0,0,1 @ F,0,1,1,0,29.661715,0,1 @ F,0,1,1,0,29.661715,0,1 @ F,0,0,1,0,0,0,1 @ F,0,0,1,0,0,0,1 @ F,0,0,1,0,0,0,1 @ F,0,0,1,0,0,0,1 @ F,0,0,1,0,0,0,1 @ F,0,0,1,0,0,0,1 @ F,0,0,1,0,0,0,1 @ F,0,0,1,0,0,0,1 @ F,0,0,1,0,0,0,1 @ F,0,0,1,0,0,0,1 @ F,0,0,1,0,0,0,1 @ F,0,0,1,0,0,0,1 @ F,0,0,1,0,0,0,1 @ F,0,0,1,0,0,0,1 @ F,0,0,1,0,0,0,1"
   unit="px"
   method="auto"
   mode="F"
   radius="0"
   chamfer_steps="1"
   flexible="false"
   use_knot_distance="true"
   apply_no_radius="true"
   apply_with_radius="true"
   only_selected="true"
   hide_knots="false" /><inkscape:path-effect
   effect="spiro"
   id="path-effect867"
   is_visible="true"
   lpeversion="1" />
  <style
   type="text/css"
   id="style2">
   <![CDATA[
    .fil0 {fill:#EF7F1A;fill-rule:nonzero}
   ]]>
  </style>
 <inkscape:path-effect
   effect="spiro"
   id="path-effect1214"
   is_visible="true"
   lpeversion="1" /><inkscape:path-effect
   effect="spiro"
   id="path-effect1195"
   is_visible="true"
   lpeversion="1" /><inkscape:path-effect
   effect="spiro"
   id="path-effect992"
   is_visible="true"
   lpeversion="1" /><inkscape:path-effect
   effect="spiro"
   id="path-effect1078"
   is_visible="true"
   lpeversion="1" /><inkscape:path-effect
   effect="fillet_chamfer"
   id="path-effect845"
   is_visible="true"
   lpeversion="1"
   satellites_param="F,0,1,1,0,9.6981486,0,1 @ F,0,1,1,0,9.6981486,0,1 @ F,0,0,1,0,0,0,1 @ F,0,0,1,0,0,0,1 @ F,0,0,1,0,0,0,1 @ F,0,0,1,0,0,0,1 @ F,0,0,1,0,0,0,1 @ F,0,0,1,0,0,0,1 @ F,0,0,1,0,0,0,1 @ F,0,0,1,0,0,0,1 @ F,0,0,1,0,0,0,1 @ F,0,0,1,0,0,0,1 @ F,0,0,1,0,0,0,1 @ F,0,0,1,0,0,0,1 @ F,0,0,1,0,0,0,1 @ F,0,0,1,0,0,0,1 @ F,0,0,1,0,0,0,1 @ F,0,0,1,0,0,0,1 @ F,0,0,1,0,0,0,1 @ F,0,0,1,0,0,0,1 @ F,0,0,1,0,0,0,1 @ F,0,0,1,0,0,0,1 @ F,0,0,1,0,0,0,1 @ F,0,0,1,0,0,0,1 @ F,0,0,1,0,0,0,1 @ F,0,0,1,0,0,0,1 @ F,0,0,1,0,0,0,1 @ F,0,0,1,0,16.112754,0,1 @ F,0,0,1,0,16.112754,0,1 @ F,0,0,1,0,0,0,1 @ F,0,0,1,0,0,0,1 @ F,0,0,1,0,0,0,1 @ F,0,0,1,0,0,0,1 @ F,0,0,1,0,0,0,1 @ F,0,0,1,0,0,0,1 @ F,0,0,1,0,0,0,1 @ F,0,0,1,0,0,0,1 @ F,0,0,1,0,0,0,1 @ F,0,0,1,0,0,0,1 @ F,0,0,1,0,0,0,1 @ F,0,0,1,0,0,0,1 @ F,0,0,1,0,0,0,1 @ F,0,0,1,0,0,0,1 @ F,0,0,1,0,0,0,1 @ F,0,0,1,0,0,0,1 @ F,0,0,1,0,0,0,1 @ F,0,0,1,0,16.112754,0,1 @ F,0,0,1,0,16.112754,0,1 @ F,0,0,1,0,0,0,1 @ F,0,0,1,0,0,0,1 @ F,0,0,1,0,0,0,1 @ F,0,0,1,0,0,0,1 @ F,0,0,1,0,0,0,1 @ F,0,0,1,0,0,0,1 @ F,0,0,1,0,0,0,1 @ F,0,0,1,0,0,0,1 @ F,0,0,1,0,0,0,1 @ F,0,0,1,0,16.112754,0,1"
   unit="px"
   method="auto"
   mode="F"
   radius="0"
   chamfer_steps="1"
   flexible="false"
   use_knot_distance="true"
   apply_no_radius="true"
   apply_with_radius="true"
   only_selected="false"
   hide_knots="false" /></defs>
 
<path
   style="clip-rule:evenodd;display:inline;fill:#a51d2d;fill-rule:nonzero;stroke:none;stroke-width:1.92017px;stroke-linecap:butt;stroke-linejoin:miter;stroke-opacity:1;image-rendering:optimizeQuality;shape-rendering:geometricPrecision;text-rendering:geometricPrecision"
   d="m 848.78271,707.57471 c -12.64468,31.11019 -37.16113,57.22267 -67.41311,71.80173 -30.25199,14.57907 -65.95167,17.48601 -98.16377,7.99324 -28.59396,-8.42652 -53.91367,-26.14849 -74.15596,-48.03161 -20.24229,-21.88312 -35.66182,-47.83753 -48.33989,-74.81692 -18.67339,-39.73765 -31.69221,-82.12734 -38.54263,-125.49609 l 33.35734,4.92963 c 0.1359,42.02407 -9.58733,84.04865 -28.16754,121.74237 -17.9853,36.48681 -44.43959,69.05379 -77.75416,92.39684 -33.31458,23.34304 -73.57069,37.19013 -114.2494,37.15557 -44.69141,-0.038 -89.59681,-17.45749 -120.87569,-49.37858 -31.27887,-31.92108 -47.88491,-78.33458 -41.52524,-122.5712 6.19606,-43.0986 32.48051,-80.68692 62.05509,-112.64353 29.57458,-31.95661 63.26301,-60.24667 89.59674,-94.92253 18.66955,-24.58379 33.62369,-52.82669 37.83484,-83.40743 2.10557,-15.29037 1.46467,-31.02608 -2.5912,-45.91832 -4.05588,-14.89223 -11.58261,-28.91687 -22.28563,-40.03776 -11.72658,-12.18442 -27.13353,-20.68919 -43.59188,-24.57444 -16.45836,-3.88526 -33.91236,-3.19532 -50.15045,1.52664 -26.86362,7.81182 -49.8144,26.38901 -66.19963,49.06505 -16.38523,22.67605 -26.61919,49.29263 -33.46006,76.41976 -21.0041,83.2907 -11.1232,170.83837 -1.927,256.24295 4.3651,40.5384 8.55251,81.2452 7.27494,121.99792 -0.77112,24.59773 -3.53881,49.13241 -8.26245,73.28456 -1.36544,6.98152 -8.2267,11.13228 -15.10488,9.31565 L 17.165951,780.86629 C 10.272388,779.0456 8.1562622,772.94402 12.131361,767.0258 25.237546,747.513 35.844021,726.32126 43.59162,704.12855 64.850627,643.2329 64.12122,577.03591 60.040363,512.66532 c -2.902212,-45.77888 -7.378141,-91.55028 -6.46192,-137.41191 0.916222,-45.86163 7.415369,-92.21062 25.577937,-134.33247 17.835348,-41.36297 47.13838,-78.10226 84.96509,-102.55907 37.8267,-24.4568 84.23371,-36.14524 128.85831,-30.0101 43.8916,6.03436 85.15289,29.42748 112.88784,63.97684 27.73495,34.54936 41.65213,79.88324 38.10381,124.04539 -3.43554,42.75851 -22.42738,82.91163 -46.21416,118.60871 -23.78679,35.69709 -52.4845,67.82205 -78.32912,102.05871 -12.04385,15.95462 -23.58524,32.58292 -30.79525,51.22749 -7.21002,18.64458 -9.81574,39.6619 -3.72575,58.70176 6.45441,20.17918 22.68467,36.81077 42.42865,44.49411 13.00003,5.05894 27.33319,6.39194 41.15675,4.52035 13.82356,-1.8716 27.13967,-6.88802 39.14592,-13.99037 24.01252,-14.20471 42.4211,-36.33898 57.13705,-60.04163 34.48964,-55.5517 50.81583,-121.89189 47.79992,-187.20981 -1.23669,-26.78401 -5.64176,-53.41958 -13.08055,-79.17923 -2.02293,-7.00515 2.00329,-12.66617 9.29481,-12.73464 l 108.48453,-1.01863 c 7.60119,-0.0714 11.17716,5.46698 8.27738,12.49322 -16.75338,40.59387 -26.30508,84.15518 -28.02487,128.03857 -1.64195,41.89713 3.84744,84.1201 16.76444,124.01016 7.41442,22.89708 17.55804,45.46988 34.07669,62.97372 8.25932,8.75192 18.06631,16.1278 29.06073,21.02017 10.99442,4.89236 23.19651,7.2484 35.1783,6.13074 18.05702,-1.68436 34.84924,-11.23861 47.29309,-24.43117 12.44386,-13.19256 20.80515,-29.81974 26.31263,-47.09865 13.74743,-43.13053 10.29981,-89.77979 3.46024,-134.52859 -9.10657,-59.58091 -24.05607,-118.49686 -47.94977,-173.83135 -24.23665,-56.12873 -57.63574,-108.28597 -98.44511,-153.80808 -5.22756,-5.83125 -3.90348,-13.24628 3.12053,-16.71002 L 753.74404,73.134439 c 9.17056,-4.522258 20.35468,-0.79493 24.77686,8.42411 9.06663,18.901421 17.4971,38.107991 25.27189,57.576421 40.88984,102.38999 63.3539,211.28202 77.9733,320.5613 7.23142,54.0545 12.59868,108.5185 11.43382,163.04213 -1.89567,88.73085 -22.1514,179.04357 -71.81948,252.59518 -49.76646,73.6973 -127.55984,126.96682 -213.04771,151.45792 -85.48787,24.4912 -178.06518,20.8824 -263.00111,-5.4592 -22.56229,-6.9974 -44.99147,-15.7515 -63.6959,-30.1794 -9.35221,-7.21396 -17.69331,-15.82084 -24.08808,-25.75119 -6.39477,-9.93035 -10.81114,-21.20822 -12.24245,-32.9324 -1.68726,-13.82066 0.82423,-28.02333 6.43553,-40.76581 5.6113,-12.74248 14.25218,-24.04762 24.5525,-33.41571 20.60062,-18.73617 47.2678,-29.49443 74.19865,-36.57678 63.69386,-16.75039 131.27532,-14.74148 195.87566,-1.92431 54.12085,10.73797 106.75246,28.97025 155.89826,54.05133 23.74692,12.11901 46.68198,25.82854 68.60054,41.00626 l -80.91335,44.84492 c -27.63251,-23.36086 -58.27593,-43.15623 -90.9317,-58.74104 -64.2207,-30.64902 -137.28307,-44.73458 -207.55778,-33.5486 -10.26338,1.63367 -20.62271,3.8588 -29.71001,8.9013 -4.54366,2.52126 -8.72886,5.74222 -12.09678,9.69931 -3.36792,3.9571 -5.90251,8.66598 -7.05142,13.73367 -1.52972,6.74735 -0.53901,13.9528 2.27219,20.2745 2.8112,6.32169 7.37651,11.7811 12.77267,16.11102 10.79232,8.65984 24.50416,12.72636 38.00921,15.73976 54.00216,12.04957 110.33768,10.27556 165.00574,1.7416 58.24559,-9.09243 117.17469,-26.78405 161.98014,-65.09454 37.4276,-32.00212 62.81799,-77.17454 73.27116,-125.29618 6.80793,-31.3406 7.48758,-64.00033 1.98939,-95.59703 z"
   id="path1087-2-7"
   inkscape:path-effect="#path-effect906;#path-effect3456"
   inkscape:original-d="m 848.78271,707.57471 c 0,0 -105.18135,90.09252 -165.57688,79.79497 -57.00562,-9.71956 -92.71618,-73.27755 -122.49585,-122.84853 -22.5352,-37.5119 -38.54263,-125.49609 -38.54263,-125.49609 l 33.35734,4.92963 c 0,0 -4.56967,87.41894 -28.16754,121.74237 -43.741,63.6219 -115.26415,138.04268 -192.00356,129.55241 -78.36121,-8.6697 -157.44266,-93.2665 -162.40093,-171.94978 -5.38899,-85.5184 121.97425,-127.18149 151.65183,-207.56606 19.60985,-53.11518 46.16287,-123.5028 12.95801,-169.36351 -18.871,-26.06358 -63.29286,-33.45237 -93.74233,-23.0478 -50.54566,17.27142 -81.87888,75.11608 -99.65969,125.48481 -28.43354,80.54534 -4.14933,170.85513 -1.927,256.24295 1.05992,40.72442 8.63582,81.28244 7.27494,121.99792 -0.96408,28.84391 -10.91328,85.88951 -10.91328,85.88951 L 4.68405,777.56964 c 0,0 31.08014,-46.8663 38.90757,-73.44109 C 61.690191,642.68236 55.051277,576.5269 60.040363,512.66532 67.112837,422.13586 32.235301,318.66421 79.15638,240.92094 122.48954,169.12248 210.32136,94.19668 292.97978,108.35177 c 79.22829,13.5677 144.45692,107.90668 150.99165,188.02223 6.8665,84.18287 -90.9492,143.17328 -124.54328,220.66742 -15.27614,35.2387 -43.2277,72.52177 -34.521,109.92925 4.64579,19.96015 22.23198,41.01775 42.42865,44.49411 50.59531,8.70873 105.30708,-29.47141 137.43972,-69.51165 40.31044,-50.23053 45.64337,-122.84066 47.79992,-187.20981 1.0419,-31.09879 -16.98821,-91.7899 -16.98821,-91.7899 l 135.45018,-1.27183 c 0,0 -31.1136,92.52144 -33.51067,140.66102 -2.07447,41.66111 -2.55699,87.04215 16.76444,124.01016 20.59294,39.40081 53.86268,90.77232 98.31572,90.12463 34.20864,-0.49843 59.88347,-40.19008 73.60572,-71.52982 17.99204,-41.09136 8.90667,-90.00276 3.46024,-134.52859 -7.29803,-59.6631 -23.1389,-119.08313 -47.94977,-173.83135 C 714.67322,236.89876 633.68041,132.34119 633.68041,132.34119 L 770.3488,64.946167 c 0,0 24.62671,48.535603 33.44399,74.188803 35.74515,103.99783 61.07121,211.89859 77.9733,320.5613 8.3736,53.8335 17.0626,108.85283 11.43382,163.04213 -9.04389,87.06717 -10.56219,190.06495 -71.81948,252.59518 -116.15111,118.56475 -313.8708,181.31122 -476.04882,145.99872 -43.57829,-9.4887 -98.13538,-44.30374 -100.02643,-88.86299 -2.15886,-50.86987 58.5012,-90.43909 105.18668,-110.7583 59.87019,-26.05767 131.43511,-12.45319 195.87566,-1.92431 54.28105,8.86894 106.04875,30.81092 155.89826,54.05133 24.14557,11.25694 64.16201,28.30501 68.60054,41.00626 l -80.91335,44.84492 c -15.54064,-6.0105 -57.24847,-45.79653 -90.9317,-58.74104 -65.41935,-25.14075 -139.04572,-48.30821 -207.55778,-33.5486 -19.09156,4.1129 -46.98681,12.8946 -48.85821,32.33428 -2.37568,24.67789 30.15745,42.61806 53.05407,52.12528 50.79981,21.09329 110.94727,11.90176 165.00574,1.7416 57.18886,-10.74851 117.92224,-27.08142 161.98014,-65.09454 36.63216,-31.60619 60.1339,-78.73141 73.27116,-125.29618 8.65433,-30.67513 1.98939,-95.59703 1.98939,-95.59703 z"
   sodipodi:nodetypes="caaccaaaaaaaaaccaaaaaaaaaaccaaaaaaccaaaaaaaaaccaaaaaaacc" /></svg>
