<?xml version="1.0" encoding="UTF-8" standalone="no"?>
<svg
   xmlns:dc="http://purl.org/dc/elements/1.1/"
   xmlns:cc="http://creativecommons.org/ns#"
   xmlns:rdf="http://www.w3.org/1999/02/22-rdf-syntax-ns#"
   xmlns:svg="http://www.w3.org/2000/svg"
   xmlns="http://www.w3.org/2000/svg"
   xmlns:sodipodi="http://sodipodi.sourceforge.net/DTD/sodipodi-0.dtd"
   xmlns:inkscape="http://www.inkscape.org/namespaces/inkscape"
   xml:space="preserve"
   width="1000"
   height="1000"
   version="1.1"
   style="clip-rule:evenodd;fill-rule:evenodd;image-rendering:optimizeQuality;shape-rendering:geometricPrecision;text-rendering:geometricPrecision"
   viewBox="0 0 1000 1000"
   id="svg10"
   sodipodi:docname="ഢ.svg"
   inkscape:version="1.0.2 (e86c870879, 2021-01-15)"><metadata
   id="metadata14"><rdf:RDF><cc:Work
       rdf:about=""><dc:format>image/svg+xml</dc:format><dc:type
         rdf:resource="http://purl.org/dc/dcmitype/StillImage" /><dc:title /></cc:Work></rdf:RDF></metadata><sodipodi:namedview
   pagecolor="#ffffff"
   bordercolor="#666666"
   borderopacity="1"
   objecttolerance="10"
   gridtolerance="10"
   guidetolerance="10"
   inkscape:pageopacity="0"
   inkscape:pageshadow="2"
   inkscape:window-width="1920"
   inkscape:window-height="1007"
   id="namedview12"
   showgrid="false"
   inkscape:zoom="0.84890884"
   inkscape:cx="485.10969"
   inkscape:cy="461.33649"
   inkscape:window-x="1920"
   inkscape:window-y="0"
   inkscape:window-maximized="1"
   inkscape:current-layer="svg10"
   showguides="true"
   inkscape:guide-bbox="true"
   inkscape:document-rotation="0"><sodipodi:guide
   position="0,1000"
   orientation="0,1"
   id="guide16"
   inkscape:label=""
   inkscape:locked="true"
   inkscape:color="rgb(0,0,255)" /><sodipodi:guide
   position="1763.3122,2036.1693"
   orientation="1000,0"
   id="guide18" /><sodipodi:guide
   position="0,200"
   orientation="0,1"
   id="guide20"
   inkscape:label="base"
   inkscape:locked="true"
   inkscape:color="rgb(0,0,255)" /><inkscape:grid
   type="xygrid"
   id="grid24"
   originx="-473.37552"
   originy="-489.69235" /><sodipodi:guide
   position="0,0"
   orientation="0,1"
   id="guide34"
   inkscape:label="bottom"
   inkscape:locked="true"
   inkscape:color="rgb(0,0,255)" /><sodipodi:guide
   position="225.05109,1693.3186"
   orientation="0,1"
   id="guide44"
   inkscape:label=""
   inkscape:locked="false"
   inkscape:color="rgb(0,0,255)" /><sodipodi:guide
   position="0,900"
   orientation="0,1"
   id="guide46"
   inkscape:label=""
   inkscape:locked="true"
   inkscape:color="rgb(0,0,255)" /><sodipodi:guide
   position="940.76535,356.8915"
   orientation="1,0"
   id="guide841"
   inkscape:label="width" />    </sodipodi:namedview>
 <defs
   id="defs4"><inkscape:path-effect
   effect="fillet_chamfer"
   id="path-effect844"
   is_visible="true"
   lpeversion="1"
   satellites_param="F,0,0,1,0,0,0,1 @ F,0,0,1,0,0,0,1 @ F,0,0,1,0,0,0,1 @ F,0,0,1,0,0,0,1 @ F,0,0,1,0,0,0,1 @ F,0,0,1,0,0,0,1 @ F,0,0,1,0,0,0,1 @ F,0,0,1,0,0,0,1 @ F,0,0,1,0,0,0,1 @ F,0,0,1,0,0,0,1 @ F,0,0,1,0,0,0,1 @ F,0,0,1,0,0,0,1 @ F,0,0,1,0,0,0,1 @ F,0,0,1,0,0,0,1 @ F,0,0,1,0,0,0,1 @ F,0,0,1,0,0,0,1 @ F,0,0,1,0,0,0,1 @ F,0,0,1,0,0,0,1 @ F,0,0,1,0,0,0,1 @ F,0,0,1,0,0,0,1 @ F,0,0,1,0,0,0,1 @ F,0,0,1,0,0,0,1 @ F,0,0,1,0,0,0,1 @ F,0,0,1,0,0,0,1 @ F,0,0,1,0,0,0,1 @ F,0,1,1,0,26.299713,0,1 @ F,0,1,1,0,26.299713,0,1 @ F,0,0,1,0,0,0,1 @ F,0,0,1,0,0,0,1 @ F,0,0,1,0,0,0,1 @ F,0,0,1,0,0,0,1 @ F,0,0,1,0,0,0,1 @ F,0,0,1,0,0,0,1 @ F,0,0,1,0,0,0,1 @ F,0,0,1,0,0,0,1 @ F,0,0,1,0,0,0,1 @ F,0,0,1,0,0,0,1 @ F,0,0,1,0,0,0,1 @ F,0,0,1,0,0,0,1 @ F,0,0,1,0,0,0,1 @ F,0,0,1,0,0,0,1 @ F,0,0,1,0,0,0,1 @ F,0,0,1,0,0,0,1 @ F,0,0,1,0,0,0,1 @ F,0,1,1,0,26.299713,0,1 @ F,0,1,1,0,26.299713,0,1 @ F,0,0,1,0,0,0,1 @ F,0,0,1,0,0,0,1 @ F,0,0,1,0,0,0,1 @ F,0,0,1,0,0,0,1 @ F,0,0,1,0,0,0,1 @ F,0,0,1,0,0,0,1 @ F,0,0,1,0,0,0,1 @ F,0,0,1,0,0,0,1 @ F,0,0,1,0,0,0,1 @ F,0,0,1,0,0,0,1 @ F,0,0,1,0,0,0,1 @ F,0,0,1,0,0,0,1 @ F,0,0,1,0,0,0,1 @ F,0,0,1,0,0,0,1 @ F,0,0,1,0,0,0,1 @ F,0,0,1,0,0,0,1 @ F,0,0,1,0,0,0,1 @ F,0,0,1,0,0,0,1 @ F,0,0,1,0,0,0,1 @ F,0,0,1,0,0,0,1 @ F,0,0,1,0,0,0,1 @ F,0,0,1,0,0,0,1"
   unit="px"
   method="auto"
   mode="F"
   radius="0"
   chamfer_steps="1"
   flexible="false"
   use_knot_distance="true"
   apply_no_radius="true"
   apply_with_radius="true"
   only_selected="true"
   hide_knots="false" /><inkscape:path-effect
   effect="spiro"
   id="path-effect867"
   is_visible="true"
   lpeversion="1" />
  <style
   type="text/css"
   id="style2">
   <![CDATA[
    .fil0 {fill:#EF7F1A;fill-rule:nonzero}
   ]]>
  </style>
 <inkscape:path-effect
   effect="spiro"
   id="path-effect1214"
   is_visible="true"
   lpeversion="1" /><inkscape:path-effect
   effect="spiro"
   id="path-effect1195"
   is_visible="true"
   lpeversion="1" /><inkscape:path-effect
   effect="spiro"
   id="path-effect992"
   is_visible="true"
   lpeversion="1" /><inkscape:path-effect
   effect="spiro"
   id="path-effect1078"
   is_visible="true"
   lpeversion="1" /></defs>
 
<path
   style="display:inline;fill:#1a1a1a;fill-rule:nonzero;stroke:none;stroke-width:1.92017px;stroke-linecap:butt;stroke-linejoin:miter;stroke-opacity:1"
   d="m 739.71397,101.78628 c 27.69758,0.4085 54.69231,11.13703 76.96323,27.6091 22.27092,16.47207 40.04691,38.46173 54.15032,62.30322 47.48719,80.27603 53.21468,177.85749 53.94993,271.12449 0.42465,53.86744 -0.48182,108.34742 -13.75579,160.5555 -13.27397,52.20808 -40.10609,102.58171 -83.16961,134.9455 -45.72096,34.36096 -108.30257,45.27277 -162.78267,27.86585 -36.50692,-11.66432 -69.0116,-35.4949 -91.11745,-66.80213 -22.10586,-31.30723 -33.68652,-69.91214 -32.46303,-108.21768 -3.38638,20.09991 -8.97548,39.82793 -16.63504,58.71721 -15.20467,37.49631 -39.01647,72.00246 -71.20692,96.51635 -32.19044,24.51388 -73.06926,38.46917 -113.3796,34.97172 -39.72327,-3.44651 -77.45197,-23.97734 -102.86782,-54.69951 -25.41585,-30.72216 -38.47242,-71.12924 -37.07207,-110.97715 1.46566,-41.70643 18.02891,-81.60415 39.53961,-117.36537 21.5107,-35.76121 48.02506,-68.21302 71.94376,-102.41054 17.22868,-24.63253 33.39249,-50.82292 40.1311,-80.11763 3.3693,-14.64735 4.2913,-29.95276 1.70126,-44.75779 -2.59003,-14.80503 -8.78034,-29.09465 -18.58397,-40.48702 -11.11616,-12.9176 -26.6653,-21.77675 -43.2795,-25.57172 -16.6142,-3.79498 -34.21805,-2.62783 -50.46283,2.52392 -26.54937,8.41968 -49.05386,27.17753 -65.34001,49.77224 -16.28616,22.59472 -26.75671,48.90657 -34.31968,75.71257 -23.16061,82.08991 -20.04164,169.43219 -8.10195,253.88698 5.8426,41.32729 13.76636,82.61684 13.44989,124.35389 -0.1136,14.98254 -1.29601,29.95658 -3.52912,44.77216 -2.16423,14.35856 -16.74863,25.10285 -31.24711,24.22654 L 21.003035,794.72315 C 6.5045636,793.84684 1.8462387,783.71467 9.5905635,771.43046 22.150025,751.5084 32.724086,730.33425 41.088329,708.31883 64.125867,647.682 70.0865,581.66447 67.372848,516.8556 65.460288,471.17882 59.36286,425.73861 57.972736,380.04295 56.582612,334.34729 60.092859,287.72324 76.653092,245.11122 93.056754,202.90208 122.45658,165.56184 160.62932,141.19929 198.80206,116.83673 245.6848,105.879 290.47649,112.54205 c 43.74142,6.50682 84.79052,29.88808 112.53495,64.32494 27.74442,34.43685 41.86195,79.60586 38.4567,123.69729 -3.30379,42.77771 -22.29661,82.96559 -46.11163,118.65441 -23.81503,35.68882 -52.56909,67.77888 -78.43165,102.01301 -12.04967,15.95008 -23.58857,32.58046 -30.79541,51.22613 -7.20684,18.64567 -9.80916,39.66134 -3.72559,58.70312 6.44837,20.18362 22.67344,36.83306 42.42865,44.49411 12.99486,5.03939 27.32064,6.34004 41.12817,4.43899 13.80753,-1.90105 27.09974,-6.94301 39.08645,-14.055 23.97344,-14.22399 42.36528,-36.31105 57.2251,-59.89564 33.33625,-52.90925 50.9656,-115.65531 49.60277,-178.176 -0.55726,-25.56466 -4.23437,-51.0578 -10.89452,-75.74542 -3.78215,-14.01953 3.87772,-25.18885 18.40201,-25.32522 l 82.85308,-0.77797 c 14.52429,-0.13637 20.91394,10.24239 15.26277,23.61996 -16.08005,38.06502 -26.18382,78.65532 -29.75868,119.82436 -3.21369,37.00962 -1.05355,75.07378 11.92127,109.88316 12.97481,34.80939 37.61844,66.18003 71.10993,82.2536 31.75914,15.24216 70.56192,15.46112 102.05712,-0.31921 23.92689,-11.98831 42.97617,-32.38905 56.4138,-55.53307 13.43762,-23.14402 21.58598,-49.00349 27.40461,-75.12549 10.68673,-47.97673 13.81133,-97.70624 8.29323,-146.54806 -4.40019,-38.94701 -14.30561,-77.33424 -30.12294,-113.19569 -9.62516,-21.82241 -21.96341,-43.31986 -41.03566,-57.64154 -9.53613,-7.16084 -20.66965,-12.35703 -32.45436,-14.1835 -11.78471,-1.82646 -24.22047,-0.16486 -34.7257,5.4792 -9.36295,5.03035 -16.98543,13.1192 -21.80397,22.5929 -4.81854,9.4737 -6.86479,20.28091 -6.2387,30.89116 1.2522,21.22049 13.15467,40.97643 29.59881,54.44742 19.38522,15.88031 45.22498,23.63266 70.1505,21.04629 24.92552,-2.58636 48.6231,-15.4789 64.33482,-35.00101 l 21.69806,108.96304 c -39.80509,14.07976 -84.42387,14.11323 -124.25003,0.0932 -49.42981,-17.40081 -90.21521,-55.84893 -114.54874,-102.25985 -11.2489,-21.45484 -19.25285,-44.80821 -21.5883,-68.92031 -2.33545,-24.11211 1.16924,-49.01705 11.8212,-70.77443 9.43686,-19.27546 24.4182,-35.80172 42.69381,-47.05339 18.27561,-11.25166 39.78634,-17.18775 61.24555,-16.87126 z"
   id="path1087-2"
   inkscape:path-effect="#path-effect1078;#path-effect844"
   inkscape:original-d="m 739.71397,101.78628 c 52.97733,1.31715 101.9364,45.67403 131.11355,89.91232 50.7339,76.92256 59.4996,179.14509 53.94993,271.12449 -6.2433,103.47548 -18.42553,227.79633 -96.9254,295.501 C 786.16499,794.2784 715.91802,807.2835 665.06938,786.18994 599.10265,758.82494 541.4889,611.17013 541.4889,611.17013 c 0,0 -4.9155,42.08957 -16.63504,58.71721 -43.52095,61.74737 -109.63464,140.92343 -184.58652,131.48807 -71.72341,-9.02894 -131.57506,-93.87276 -139.93989,-165.67666 -9.50523,-81.59306 86.85057,-141.41136 111.48337,-219.77591 16.69164,-53.10129 54.44885,-119.26591 23.24839,-165.36244 -18.03659,-26.64782 -63.29286,-33.45237 -93.74233,-23.0478 -50.54566,17.27142 -81.26621,75.33658 -99.65969,125.48481 -29.15686,79.49363 -11.31189,169.27577 -8.10195,253.88698 1.5806,41.66307 13.70935,82.66165 13.44989,124.35389 -0.14748,23.69897 -8.52442,70.5854 -8.52442,70.5854 L -5.24877,793.13645 c 0,0 36.25732,-54.21854 46.337099,-84.81762 C 61.24369,647.13342 61.885574,581.04114 67.372848,516.8556 75.093086,426.55075 31.228281,323.54053 76.653092,245.11122 118.68357,172.5425 207.81807,98.38696 290.47649,112.54205 c 79.22829,13.5677 144.45692,107.90668 150.99165,188.02223 6.8665,84.18287 -90.9492,143.17328 -124.54328,220.66742 -15.27614,35.2387 -43.2277,72.52177 -34.521,109.92925 4.64579,19.96015 22.23198,41.01775 42.42865,44.49411 50.59531,8.70873 104.87792,-29.81963 137.43972,-69.51165 39.10166,-47.66394 46.91394,-116.5841 49.60277,-178.176 1.49102,-34.15409 -18.79106,-100.82371 -18.79106,-100.82371 l 135.45018,-1.27183 c 0,0 -44.06041,94.00852 -40.79446,143.69125 4.57653,69.61977 24.6666,153.9081 83.0312,192.13676 28.45803,18.63993 72.23139,16.04332 102.05712,-0.31921 45.36582,-24.88789 67.86318,-81.43565 83.81841,-130.65856 15.0867,-46.54345 13.26438,-97.87375 8.29323,-146.54806 -3.96707,-38.84301 -6.7914,-81.88824 -30.12294,-113.19569 -25.28344,-33.92662 -71.44685,-87.28189 -108.21572,-66.34584 -31.26751,17.80359 -25.3399,84.03109 1.55614,107.93148 33.68956,29.93726 134.48532,-13.95472 134.48532,-13.95472 l 21.69806,108.96304 c 0,0 -85.54716,14.83867 -124.25003,0.0932 C 712.26,389.44244 668.07716,351.36201 645.54171,305.40567 c -20.55168,-41.91085 -31.10677,-98.17957 -9.7671,-139.69474 18.59484,-36.17525 63.2774,-64.93561 103.93936,-63.92465 z"
   sodipodi:nodetypes="aaaaacaaaaaaaaaccaaaaaaaaaaccaaaaaaaaccaaaa" /></svg>
