<?xml version="1.0" encoding="UTF-8" standalone="no"?>
<svg
   xml:space="preserve"
   width="1000"
   height="1000"
   version="1.1"
   style="clip-rule:evenodd;fill-rule:evenodd;image-rendering:optimizeQuality;shape-rendering:geometricPrecision;text-rendering:geometricPrecision"
   viewBox="0 0 1000 1000"
   id="svg10"
   sodipodi:docname="ഢ.svg"
   inkscape:version="1.1.1 (3bf5ae0d25, 2021-09-20)"
   xmlns:inkscape="http://www.inkscape.org/namespaces/inkscape"
   xmlns:sodipodi="http://sodipodi.sourceforge.net/DTD/sodipodi-0.dtd"
   xmlns="http://www.w3.org/2000/svg"
   xmlns:svg="http://www.w3.org/2000/svg"
   xmlns:rdf="http://www.w3.org/1999/02/22-rdf-syntax-ns#"
   xmlns:cc="http://creativecommons.org/ns#"
   xmlns:dc="http://purl.org/dc/elements/1.1/"><metadata
   id="metadata14"><rdf:RDF><cc:Work
       rdf:about=""><dc:format>image/svg+xml</dc:format><dc:type
         rdf:resource="http://purl.org/dc/dcmitype/StillImage" /><dc:title /></cc:Work></rdf:RDF></metadata><sodipodi:namedview
   pagecolor="#ffffff"
   bordercolor="#666666"
   borderopacity="1"
   objecttolerance="10"
   gridtolerance="10"
   guidetolerance="10"
   inkscape:pageopacity="0"
   inkscape:pageshadow="2"
   inkscape:window-width="1920"
   inkscape:window-height="1009"
   id="namedview12"
   showgrid="false"
   inkscape:zoom="0.84890884"
   inkscape:cx="484.73992"
   inkscape:cy="743.30714"
   inkscape:window-x="0"
   inkscape:window-y="60"
   inkscape:window-maximized="1"
   inkscape:current-layer="svg10"
   showguides="true"
   inkscape:guide-bbox="true"
   inkscape:document-rotation="0"
   inkscape:pagecheckerboard="0"><sodipodi:guide
   position="0,1000"
   orientation="0,1"
   id="guide16"
   inkscape:label=""
   inkscape:locked="true"
   inkscape:color="rgb(0,0,255)" /><sodipodi:guide
   position="1763.3122,2036.1693"
   orientation="1000,0"
   id="guide18" /><sodipodi:guide
   position="0,200"
   orientation="0,1"
   id="guide20"
   inkscape:label="base"
   inkscape:locked="true"
   inkscape:color="rgb(0,0,255)" /><inkscape:grid
   type="xygrid"
   id="grid24"
   originx="-473.37552"
   originy="-489.69235" /><sodipodi:guide
   position="0,0"
   orientation="0,1"
   id="guide34"
   inkscape:label="bottom"
   inkscape:locked="true"
   inkscape:color="rgb(0,0,255)" /><sodipodi:guide
   position="225.05109,1693.3186"
   orientation="0,1"
   id="guide44"
   inkscape:label=""
   inkscape:locked="false"
   inkscape:color="rgb(0,0,255)" /><sodipodi:guide
   position="0,900"
   orientation="0,1"
   id="guide46"
   inkscape:label=""
   inkscape:locked="true"
   inkscape:color="rgb(0,0,255)" /><sodipodi:guide
   position="940.76535,356.8915"
   orientation="1,0"
   id="guide841"
   inkscape:label="width" />    </sodipodi:namedview>
 <defs
   id="defs4"><inkscape:path-effect
   effect="fillet_chamfer"
   id="path-effect1337"
   is_visible="true"
   lpeversion="1"
   satellites_param="F,0,0,1,0,0,0,1 @ F,0,0,1,0,0,0,1 @ F,0,0,1,0,0,0,1 @ F,0,0,1,0,0,0,1 @ F,0,0,1,0,0,0,1 @ F,0,0,1,0,0,0,1 @ F,0,0,1,0,0,0,1 @ F,0,0,1,0,0,0,1 @ F,0,0,1,0,0,0,1 @ F,0,0,1,0,0,0,1 @ F,0,0,1,0,0,0,1 @ F,0,0,1,0,0,0,1 @ F,0,0,1,0,0,0,1 @ F,0,0,1,0,0,0,1 @ F,0,0,1,0,0,0,1 @ F,0,0,1,0,0,0,1 @ F,0,0,1,0,0,0,1 @ F,0,0,1,0,0,0,1 @ F,0,0,1,0,0,0,1 @ F,0,0,1,0,0,0,1 @ F,0,0,1,0,0,0,1 @ F,0,0,1,0,0,0,1 @ F,0,0,1,0,0,0,1 @ F,0,0,1,0,0,0,1 @ F,0,0,1,0,0,0,1 @ F,0,0,1,0,0,0,1 @ F,0,0,1,0,0,0,1 @ F,0,0,1,0,0,0,1 @ F,0,1,1,0,12.94607,0,1 @ F,0,1,1,0,12.94607,0,1 @ F,0,0,1,0,0,0,1 @ F,0,0,1,0,0,0,1 @ F,0,0,1,0,0,0,1 @ F,0,0,1,0,0,0,1 @ F,0,0,1,0,0,0,1 @ F,0,0,1,0,0,0,1 @ F,0,0,1,0,0,0,1 @ F,0,0,1,0,0,0,1 @ F,0,0,1,0,0,0,1 @ F,0,0,1,0,0,0,1 @ F,0,0,1,0,0,0,1 @ F,0,0,1,0,0,0,1 @ F,0,0,1,0,0,0,1 @ F,0,0,1,0,0,0,1 @ F,0,0,1,0,0,0,1 @ F,0,0,1,0,0,0,1 @ F,0,0,1,0,0,0,1 @ F,0,0,1,0,12.94607,0,1 @ F,0,1,1,0,12.94607,0,1 @ F,0,0,1,0,0,0,1 @ F,0,0,1,0,0,0,1 @ F,0,0,1,0,0,0,1 @ F,0,0,1,0,0,0,1 @ F,0,0,1,0,0,0,1 @ F,0,0,1,0,0,0,1 @ F,0,0,1,0,0,0,1 @ F,0,0,1,0,0,0,1 @ F,0,0,1,0,0,0,1 @ F,0,0,1,0,0,0,1 @ F,0,0,1,0,0,0,1 @ F,0,0,1,0,0,0,1 @ F,0,0,1,0,0,0,1 @ F,0,0,1,0,0,0,1 @ F,0,0,1,0,0,0,1 @ F,0,0,1,0,0,0,1 @ F,0,0,1,0,0,0,1 @ F,0,0,1,0,0,0,1 @ F,0,0,1,0,0,0,1 @ F,0,0,1,0,0,0,1 @ F,0,0,1,0,0,0,1 @ F,0,0,1,0,0,0,1"
   unit="px"
   method="auto"
   mode="F"
   radius="0"
   chamfer_steps="1"
   flexible="false"
   use_knot_distance="true"
   apply_no_radius="true"
   apply_with_radius="true"
   only_selected="false"
   hide_knots="false" /><inkscape:path-effect
   effect="fillet_chamfer"
   id="path-effect844"
   is_visible="true"
   lpeversion="1"
   satellites_param="F,0,0,1,0,0,0,1 @ F,0,0,1,0,0,0,1 @ F,0,0,1,0,0,0,1 @ F,0,0,1,0,0,0,1 @ F,0,0,1,0,0,0,1 @ F,0,0,1,0,0,0,1 @ F,0,0,1,0,0,0,1 @ F,0,0,1,0,0,0,1 @ F,0,0,1,0,0,0,1 @ F,0,0,1,0,0,0,1 @ F,0,0,1,0,0,0,1 @ F,0,0,1,0,0,0,1 @ F,0,0,1,0,0,0,1 @ F,0,0,1,0,0,0,1 @ F,0,0,1,0,0,0,1 @ F,0,0,1,0,0,0,1 @ F,0,0,1,0,0,0,1 @ F,0,0,1,0,0,0,1 @ F,0,0,1,0,0,0,1 @ F,0,0,1,0,0,0,1 @ F,0,0,1,0,0,0,1 @ F,0,0,1,0,0,0,1 @ F,0,0,1,0,0,0,1 @ F,0,0,1,0,0,0,1 @ F,0,0,1,0,0,0,1 @ F,0,1,1,0,26.299713,0,1 @ F,0,1,1,0,26.299713,0,1 @ F,0,0,1,0,0,0,1 @ F,0,0,1,0,0,0,1 @ F,0,0,1,0,0,0,1 @ F,0,0,1,0,0,0,1 @ F,0,0,1,0,0,0,1 @ F,0,0,1,0,0,0,1 @ F,0,0,1,0,0,0,1 @ F,0,0,1,0,0,0,1 @ F,0,0,1,0,0,0,1 @ F,0,0,1,0,0,0,1 @ F,0,0,1,0,0,0,1 @ F,0,0,1,0,0,0,1 @ F,0,0,1,0,0,0,1 @ F,0,0,1,0,0,0,1 @ F,0,0,1,0,0,0,1 @ F,0,0,1,0,0,0,1 @ F,0,0,1,0,0,0,1 @ F,0,1,1,0,26.299713,0,1 @ F,0,1,1,0,26.299713,0,1 @ F,0,0,1,0,0,0,1 @ F,0,0,1,0,0,0,1 @ F,0,0,1,0,0,0,1 @ F,0,0,1,0,0,0,1 @ F,0,0,1,0,0,0,1 @ F,0,0,1,0,0,0,1 @ F,0,0,1,0,0,0,1 @ F,0,0,1,0,0,0,1 @ F,0,0,1,0,0,0,1 @ F,0,0,1,0,0,0,1 @ F,0,0,1,0,0,0,1 @ F,0,0,1,0,0,0,1 @ F,0,0,1,0,0,0,1 @ F,0,0,1,0,0,0,1 @ F,0,0,1,0,0,0,1 @ F,0,0,1,0,0,0,1 @ F,0,0,1,0,0,0,1 @ F,0,0,1,0,0,0,1 @ F,0,0,1,0,0,0,1 @ F,0,0,1,0,0,0,1 @ F,0,0,1,0,0,0,1 @ F,0,0,1,0,0,0,1"
   unit="px"
   method="auto"
   mode="F"
   radius="0"
   chamfer_steps="1"
   flexible="false"
   use_knot_distance="true"
   apply_no_radius="true"
   apply_with_radius="true"
   only_selected="true"
   hide_knots="false" /><inkscape:path-effect
   effect="spiro"
   id="path-effect867"
   is_visible="true"
   lpeversion="1" />
  <style
   type="text/css"
   id="style2">
   <![CDATA[
    .fil0 {fill:#EF7F1A;fill-rule:nonzero}
   ]]>
  </style>
 <inkscape:path-effect
   effect="spiro"
   id="path-effect1214"
   is_visible="true"
   lpeversion="1" /><inkscape:path-effect
   effect="spiro"
   id="path-effect1195"
   is_visible="true"
   lpeversion="1" /><inkscape:path-effect
   effect="spiro"
   id="path-effect992"
   is_visible="true"
   lpeversion="1" /><inkscape:path-effect
   effect="spiro"
   id="path-effect1078"
   is_visible="true"
   lpeversion="1" /></defs>
 
<path
   style="display:inline;fill:#613583;fill-rule:nonzero;stroke:none;stroke-width:1.92017px;stroke-linecap:butt;stroke-linejoin:miter;stroke-opacity:1"
   d="m 739.71397,101.78628 c 27.68982,0.43234 54.66355,11.18816 76.92253,27.66393 22.25898,16.47577 40.03546,38.44644 54.19102,62.24839 47.70054,80.20634 54.21776,177.80607 53.94993,271.12449 -0.15389,53.61807 -2.21639,107.76399 -15.83227,159.62466 -13.61589,51.86066 -39.71156,101.78109 -81.09313,135.87634 -22.40516,18.46014 -49.11587,31.98341 -77.62889,37.44012 -28.51302,5.45671 -58.80966,2.62227 -85.15378,-9.57427 -27.63064,-12.79216 -49.93053,-35.2322 -66.89058,-60.51952 -16.96004,-25.28733 -29.0087,-53.49488 -40.47991,-81.69954 -9.60754,-23.62239 -18.88322,-47.37974 -27.82337,-71.2627 l 36.43557,-26.8506 c -7.3556,43.14118 -21.39266,85.13659 -41.45723,124.02976 -18.33162,35.53401 -42.0884,68.89969 -73.52923,93.60169 -31.44082,24.702 -71.14081,40.20787 -111.05729,37.88638 -40.00336,-2.32654 -78.26374,-22.86726 -103.67208,-53.85271 -25.40834,-30.98544 -38.01047,-71.7909 -36.26781,-111.82395 1.81386,-41.66853 18.39519,-81.47001 39.83763,-117.244 21.44244,-35.77399 47.80402,-68.31014 71.64574,-102.53191 17.17914,-24.65848 33.33102,-50.84192 40.07817,-80.1274 3.37358,-14.64274 4.30499,-29.94353 1.72534,-44.74678 -2.57965,-14.80325 -8.75896,-29.09413 -18.55512,-40.48826 -11.11099,-12.92344 -26.66148,-21.78529 -43.27696,-25.57939 -16.61548,-3.79409 -34.22041,-2.62307 -50.46537,2.53159 -26.54754,8.42374 -49.05037,27.18143 -65.33679,49.77532 -16.28642,22.59389 -26.75874,48.90436 -34.3229,75.70949 -23.16475,82.08894 -20.04243,169.43211 -8.10195,253.88698 5.84297,41.32725 13.76646,82.61684 13.44989,124.35389 -0.1474,19.43365 -2.09296,38.85297 -5.79716,57.93079 -1.3627,7.01834 -8.51285,12.30492 -15.64975,11.87356 L 7.6737174,793.9175 C 0.5368247,793.48614 -1.7804192,788.48959 2.2578191,782.58974 18.073936,759.48247 31.143185,734.49533 41.088329,708.31883 64.125867,647.682 70.0865,581.66447 67.372848,516.8556 65.460288,471.17882 59.36286,425.73861 57.972736,380.04295 56.582612,334.34729 60.092859,287.72324 76.653092,245.11122 93.056754,202.90208 122.45658,165.56184 160.62932,141.19929 198.80206,116.83673 245.6848,105.879 290.47649,112.54205 c 43.74142,6.50682 84.79052,29.88808 112.53495,64.32494 27.74442,34.43685 41.86195,79.60586 38.4567,123.69729 -3.30379,42.77771 -22.29661,82.96559 -46.11163,118.65441 -23.81503,35.68882 -52.56909,67.77888 -78.43165,102.01301 -12.04967,15.95008 -23.58857,32.58046 -30.79541,51.22613 -7.20684,18.64567 -9.80916,39.66134 -3.72559,58.70312 6.44837,20.18362 22.67344,36.83306 42.42865,44.49411 12.99486,5.03939 27.32064,6.34004 41.12817,4.43899 13.80753,-1.90105 27.09974,-6.94301 39.08645,-14.055 23.97344,-14.22399 42.36528,-36.31105 57.2251,-59.89564 33.33625,-52.90925 50.9656,-115.65531 49.60277,-178.176 -0.65427,-30.01493 -5.60912,-59.93125 -14.64316,-88.56108 -2.15141,-6.81803 1.648,-12.31705 8.7976,-12.38418 l 109.55918,-1.02873 c 7.1496,-0.0671 10.31729,5.04663 7.31345,11.53458 -19.23142,41.53767 -31.20262,86.43133 -35.16241,132.03512 -3.21355,37.00956 -1.0532,75.07364 11.92166,109.88294 12.97485,34.80931 37.6183,66.17988 71.10954,82.25382 31.75907,15.24259 70.56231,15.46217 102.05712,-0.31921 23.92624,-11.98893 42.97401,-32.39066 56.41092,-55.53475 13.4369,-23.14409 21.5855,-49.00287 27.40749,-75.12381 10.69321,-47.97613 13.83439,-97.70802 8.29323,-146.54806 -4.41828,-38.94291 -14.36305,-77.31119 -30.12294,-113.19569 -9.60324,-21.86612 -21.8962,-43.43321 -40.97945,-57.79215 -9.54163,-7.17947 -20.69436,-12.38305 -32.49818,-14.18783 -11.80382,-1.80478 -24.25811,-0.0893 -34.73809,5.63414 -9.29004,5.07354 -16.81961,13.18638 -21.55671,22.65239 -4.73711,9.46602 -6.71598,20.23429 -6.06721,30.79955 1.29753,21.13052 13.03826,40.78193 29.18006,54.47954 22.21093,18.84776 53.03754,27.10068 81.69442,21.87129 28.65688,-5.22939 54.58163,-23.83847 68.70388,-49.31641 l 27.71494,108.42147 c -43.78305,25.06189 -98.4083,30.34025 -146.17989,14.12517 -49.66839,-16.85892 -90.33382,-55.73233 -114.54874,-102.25985 -11.18028,-21.48223 -19.16716,-44.82523 -21.5138,-68.92872 -2.34665,-24.10349 1.12003,-49.00461 11.7467,-70.76602 9.41907,-19.28848 24.39798,-35.82657 42.67728,-47.07964 18.27929,-11.25307 39.79927,-17.18012 61.26208,-16.84501 z"
   id="path1087-2"
   inkscape:path-effect="#path-effect1078;#path-effect1337"
   inkscape:original-d="m 739.71397,101.78628 c 52.97733,1.31715 101.9364,45.67403 131.11355,89.91232 50.7339,76.92256 59.4996,179.14509 53.94993,271.12449 -6.2433,103.47548 -18.42553,227.79633 -96.9254,295.501 -41.68706,35.95431 -111.6044,48.14657 -162.78267,27.86585 -55.22166,-21.88302 -78.40143,-90.36261 -107.37049,-142.21906 -12.4366,-22.26231 -27.82337,-71.2627 -27.82337,-71.2627 l 36.43557,-26.8506 c 0,0 -15.52224,88.99253 -41.45723,124.02976 -44.94481,60.71882 -109.63464,140.92343 -184.58652,131.48807 -71.72341,-9.02894 -131.57506,-93.87276 -139.93989,-165.67666 -9.50523,-81.59306 86.85057,-141.41136 111.48337,-219.77591 16.69164,-53.10129 54.44885,-119.26591 23.24839,-165.36244 -18.03659,-26.64782 -63.29286,-33.45237 -93.74233,-23.0478 -50.54566,17.27142 -81.26621,75.33658 -99.65969,125.48481 -29.15686,79.49363 -11.31189,169.27577 -8.10195,253.88698 1.5806,41.66307 13.70935,82.66165 13.44989,124.35389 -0.14748,23.69897 -8.52442,70.5854 -8.52442,70.5854 L -5.24877,793.13645 c 0,0 36.25732,-54.21854 46.337099,-84.81762 C 61.24369,647.13342 61.885574,581.04114 67.372848,516.8556 75.093086,426.55075 31.228281,323.54053 76.653092,245.11122 118.68357,172.5425 207.81807,98.38696 290.47649,112.54205 c 79.22829,13.5677 144.45692,107.90668 150.99165,188.02223 6.8665,84.18287 -90.9492,143.17328 -124.54328,220.66742 -15.27614,35.2387 -43.2277,72.52177 -34.521,109.92925 4.64579,19.96015 22.23198,41.01775 42.42865,44.49411 50.59531,8.70873 104.87792,-29.81963 137.43972,-69.51165 39.10166,-47.66394 46.91394,-116.5841 49.60277,-178.176 1.49102,-34.15409 -18.79106,-100.82371 -18.79106,-100.82371 l 135.45018,-1.27183 c 0,0 -44.06041,94.00852 -40.79446,143.69125 4.57653,69.61977 24.6666,153.9081 83.0312,192.13676 28.45803,18.63993 72.23139,16.04332 102.05712,-0.31921 45.36582,-24.88789 67.86318,-81.43565 83.81841,-130.65856 15.0867,-46.54345 13.26438,-97.87375 8.29323,-146.54806 -3.96707,-38.84301 -6.7914,-81.88824 -30.12294,-113.19569 -25.28344,-33.92662 -71.44685,-87.28189 -108.21572,-66.34584 -31.26751,17.80359 -26.24108,85.08548 1.55614,107.93148 39.36989,32.35736 150.3983,-27.44512 150.3983,-27.44512 l 27.71494,108.42147 c 0,0 -99.6536,29.34876 -146.17989,14.12517 -48.6464,-15.9173 -92.01329,-56.30351 -114.54874,-102.25985 -20.55168,-41.91085 -31.10677,-98.17957 -9.7671,-139.69474 18.59484,-36.17525 63.2774,-64.93561 103.93936,-63.92465 z"
   sodipodi:nodetypes="aaaaaaccaaaaaaaaaccaaaaaaaaaaccaaaaaaaaccaaaa" />
<text
   text-anchor="middle"
   x="837.05951"
   y="763.8186"
   id="bottom"
   inkscape:label="bottom"
   style="clip-rule:evenodd;fill-rule:evenodd;image-rendering:optimizeQuality;shape-rendering:geometricPrecision;text-rendering:geometricPrecision">✛</text></svg>
