<?xml version="1.0" encoding="UTF-8" standalone="no"?>
<svg
   xmlns:dc="http://purl.org/dc/elements/1.1/"
   xmlns:cc="http://creativecommons.org/ns#"
   xmlns:rdf="http://www.w3.org/1999/02/22-rdf-syntax-ns#"
   xmlns:svg="http://www.w3.org/2000/svg"
   xmlns="http://www.w3.org/2000/svg"
   xmlns:sodipodi="http://sodipodi.sourceforge.net/DTD/sodipodi-0.dtd"
   xmlns:inkscape="http://www.inkscape.org/namespaces/inkscape"
   xml:space="preserve"
   width="1000"
   height="1000"
   version="1.1"
   style="clip-rule:evenodd;fill-rule:evenodd;image-rendering:optimizeQuality;shape-rendering:geometricPrecision;text-rendering:geometricPrecision"
   viewBox="0 0 1000 1000"
   id="svg10"
   sodipodi:docname="ഢ്ര.svg"
   inkscape:version="1.0.1 (3bc2e813f5, 2020-09-07)"><metadata
   id="metadata14"><rdf:RDF><cc:Work
       rdf:about=""><dc:format>image/svg+xml</dc:format><dc:type
         rdf:resource="http://purl.org/dc/dcmitype/StillImage" /><dc:title /></cc:Work></rdf:RDF></metadata><sodipodi:namedview
   pagecolor="#ffffff"
   bordercolor="#666666"
   borderopacity="1"
   objecttolerance="10"
   gridtolerance="10"
   guidetolerance="10"
   inkscape:pageopacity="0"
   inkscape:pageshadow="2"
   inkscape:window-width="1920"
   inkscape:window-height="1015"
   id="namedview12"
   showgrid="false"
   inkscape:zoom="0.6002692"
   inkscape:cx="289.11678"
   inkscape:cy="500.11115"
   inkscape:window-x="1920"
   inkscape:window-y="0"
   inkscape:window-maximized="1"
   inkscape:current-layer="svg10"
   showguides="true"
   inkscape:guide-bbox="true"
   inkscape:document-rotation="0"><sodipodi:guide
   position="0,1000"
   orientation="0,1"
   id="guide16"
   inkscape:label=""
   inkscape:locked="true"
   inkscape:color="rgb(0,0,255)" /><sodipodi:guide
   position="1763.3122,2036.1693"
   orientation="1000,0"
   id="guide18" /><sodipodi:guide
   position="0,200"
   orientation="0,1"
   id="guide20"
   inkscape:label="base"
   inkscape:locked="true"
   inkscape:color="rgb(0,0,255)" /><inkscape:grid
   type="xygrid"
   id="grid24"
   originx="-473.37552"
   originy="-489.69235" /><sodipodi:guide
   position="0,0"
   orientation="0,1"
   id="guide34"
   inkscape:label="bottom"
   inkscape:locked="true"
   inkscape:color="rgb(0,0,255)" /><sodipodi:guide
   position="225.05109,1693.3186"
   orientation="0,1"
   id="guide44"
   inkscape:label=""
   inkscape:locked="false"
   inkscape:color="rgb(0,0,255)" /><sodipodi:guide
   position="0,900"
   orientation="0,1"
   id="guide46"
   inkscape:label=""
   inkscape:locked="true"
   inkscape:color="rgb(0,0,255)" /><sodipodi:guide
   position="1103.0976,935.78488"
   orientation="1,0"
   id="guide841"
   inkscape:label="width" />    </sodipodi:namedview>
 <defs
   id="defs4"><inkscape:path-effect
   effect="spiro"
   id="path-effect867"
   is_visible="true"
   lpeversion="1" />
  <style
   type="text/css"
   id="style2">
   <![CDATA[
    .fil0 {fill:#EF7F1A;fill-rule:nonzero}
   ]]>
  </style>
 <inkscape:path-effect
   effect="spiro"
   id="path-effect1214"
   is_visible="true"
   lpeversion="1" /><inkscape:path-effect
   effect="spiro"
   id="path-effect1195"
   is_visible="true"
   lpeversion="1" /><inkscape:path-effect
   effect="spiro"
   id="path-effect992"
   is_visible="true"
   lpeversion="1" /><inkscape:path-effect
   effect="spiro"
   id="path-effect1078"
   is_visible="true"
   lpeversion="1" /></defs>
 
<path
   style="display:inline;fill:#1a1a1a;fill-rule:nonzero;stroke:none;stroke-width:1.92017px;stroke-linecap:butt;stroke-linejoin:miter;stroke-opacity:1"
   d="m 207.99506,98.17632 c -25.62841,56.82372 -47.05446,115.54224 -64.04541,175.51772 -36.8533,130.08659 -52.114487,271.7208 -6.48595,398.99501 29.64325,82.68556 85.57421,156.88173 160.70215,202.39456 49.65444,30.08088 106.32728,47.17411 163.65798,56.31811 57.3307,9.14401 115.58696,10.59853 173.63881,11.23482 46.57421,0.51049 93.37676,0.49032 139.41107,-6.5991 46.03431,-7.08941 91.59057,-21.56322 130.03521,-47.85822 46.10331,-31.53331 80.44874,-79.85714 95.07134,-133.76488 -45.98568,24.77732 -102.80927,28.47805 -151.6202,9.87452 -31.86778,-12.14591 -60.19439,-33.42789 -80.73194,-60.65449 -20.53755,-27.22659 -33.21954,-60.30962 -36.14416,-94.28792 -2.8991,20.19625 -8.51008,40.00149 -16.63504,58.71721 -15.7072,36.18128 -41.03352,68.26803 -73.13739,91.18401 -32.10388,22.91598 -70.95428,36.48859 -110.38202,37.60865 -45.84578,1.30239 -92.53954,-14.86687 -125.65977,-46.59354 -16.56012,-15.86334 -29.63802,-35.40795 -37.59329,-56.91601 -7.95528,-21.50805 -10.74086,-44.96005 -7.63202,-67.68048 5.90556,-43.15975 32.2036,-80.8391 61.83676,-112.76896 29.63315,-31.92986 63.43815,-60.1287 89.81507,-94.7971 18.68929,-24.56419 33.62321,-52.81816 37.81683,-83.39761 2.09681,-15.28973 1.44882,-31.02226 -2.6054,-45.91305 -4.05422,-14.89079 -11.56972,-28.91593 -22.25342,-40.05285 -11.71401,-12.21094 -27.11118,-20.75935 -43.57648,-24.6605 -16.4653,-3.90114 -33.94197,-3.19467 -50.16585,1.6127 -26.76467,7.93076 -49.47063,26.70906 -65.72589,49.40292 -16.25526,22.69386 -26.51367,49.17118 -33.9338,76.08189 -22.66648,82.20491 -19.94808,169.44123 -8.10195,253.88698 5.79823,41.33298 13.75439,82.61731 13.44989,124.35389 -0.17327,23.74921 -3.03891,47.47774 -8.52442,70.5854 l -120.48071,-1.82368 c 8.33753,-30.39407 16.0359,-60.96347 23.08833,-91.68117 14.44612,-62.92184 26.22359,-126.90438 26.28452,-191.46323 0.0431,-45.65534 -5.77461,-91.11076 -7.51557,-136.73291 -1.74097,-45.62215 0.77726,-92.25848 16.79581,-135.01147 15.91752,-42.48333 45.35191,-80.03229 83.64219,-104.36448 38.29027,-24.33218 85.33239,-35.04457 130.18121,-28.20469 43.69074,6.66327 84.67042,30.04029 112.41836,64.43988 27.74794,34.3996 41.93198,79.51423 38.57329,123.58235 -3.2608,42.78379 -22.25535,82.98247 -46.08018,118.66809 -23.82482,35.68562 -52.59721,67.76424 -78.4631,101.99933 -12.05011,15.94906 -23.58614,32.58081 -30.79116,51.2266 -7.20502,18.64579 -9.80706,39.65941 -3.72984,58.70265 6.44244,20.18767 22.66411,36.85146 42.42865,44.49411 12.99081,5.02335 27.31062,6.29774 41.10518,4.37286 13.79457,-1.92488 27.06748,-6.98741 39.03847,-14.10714 23.94198,-14.23946 42.32072,-36.28866 57.29607,-59.77737 37.1055,-58.19965 55.79034,-128.43364 49.81559,-197.19642 -2.43136,-27.98223 -8.85076,-55.61492 -19.00388,-81.80329 l 135.45018,-1.27183 c -27.6875,41.62796 -44.00276,90.74049 -46.7278,140.66102 -1.69694,31.08648 1.91695,62.86633 14.17772,91.48315 12.26077,28.61682 33.67445,53.89 61.69269,67.46302 31.6422,15.32859 70.17713,14.5085 102.05712,-0.31921 20.10306,-9.35014 37.63981,-23.93177 51.15729,-41.5055 13.5175,-17.57373 23.0567,-38.08691 28.5865,-59.55733 12.1816,-47.29678 4.9274,-97.11415 6.0747,-145.94098 0.689,-29.32053 4.3554,-59.37582 -4.1105,-87.45599 -4.233,-14.04009 -11.6191,-27.3655 -22.587,-37.0993 -10.96794,-9.73381 -25.71989,-15.59451 -40.32629,-14.29255 -7.96626,0.71008 -15.71975,3.51015 -22.38186,7.93528 -6.66211,4.42513 -12.22941,10.45711 -16.23272,17.38091 -8.00662,13.8476 -9.48925,31.06904 -4.99477,46.42031 4.23008,14.44818 13.62968,27.32442 26.10174,35.75599 12.47205,8.43158 27.92364,12.35567 42.90747,10.89681 14.98383,-1.45886 29.38833,-8.2898 39.99973,-18.96884 10.6114,-10.67903 17.3507,-25.12658 18.7143,-40.11938 l 21.698,108.96304 c -37.4508,20.75136 -83.77207,24.7917 -124.24999,10.8376 -26.0468,-8.9792 -49.40843,-24.97748 -68.57622,-44.76782 -19.16779,-19.79034 -34.24646,-43.3053 -45.97252,-68.23643 -10.27011,-21.8356 -18.0865,-45.04247 -20.60648,-69.04077 -2.51998,-23.9983 0.45157,-48.87412 10.83938,-70.65397 9.49154,-19.90066 25.05908,-36.78951 43.91262,-48.2206 18.85353,-11.43109 40.90679,-17.41338 62.95491,-17.49033 32.93552,-0.114949 65.27248,12.92393 90.826,33.70323 22.1024,17.97292 39.3644,41.51116 51.6535,67.21174 12.289,25.70058 19.7194,53.54566 23.8399,81.73364 8.2409,56.37596 3.412,113.7106 1.5281,170.65454 -2.8127,85.02122 0.9695,170.46559 -9.3304,254.90747 -5.1005,41.81556 -13.7111,83.4262 -29.1889,122.6052 -15.4778,39.17899 -38.0335,75.95725 -68.59988,104.9444 -44.91179,42.59144 -105.00194,66.39356 -165.91347,77.38836 -60.91153,10.9948 -123.2648,10.0878 -185.15239,9.0746 -90.54919,-1.4824 -182.49924,-3.329 -269.07297,-29.90611 C 295.51229,966.636 224.11697,922.9841 166.5659,865.56827 109.01484,808.15244 65.316711,737.13985 38.803128,660.29109 -0.60616584,546.06453 -1.8040703,422.16925 8.1396285,301.74532 13.775625,233.49015 22.851183,165.51912 35.320358,98.17632 Z"
   id="path1087-2"
   inkscape:path-effect="#path-effect1078"
   inkscape:original-d="m 207.99506,98.17632 c 0,0 -52.70767,114.27922 -64.04541,175.51772 -24.21516,130.79319 -49.262762,273.04512 -6.48595,398.99501 27.70354,81.5689 87.20255,157.46372 160.70215,202.39456 97.83301,59.80602 222.63185,67.65381 337.29679,67.55293 91.63141,-0.0806 192.60784,-4.53563 269.44628,-54.45732 45.8716,-29.80263 117.87428,-143.06741 95.07134,-133.76488 -9.02111,-30.71983 -105.57843,30.97636 -151.6202,9.87452 -58.81084,-26.95415 -116.8761,-154.94241 -116.8761,-154.94241 0,0 -4.85712,42.13087 -16.63504,58.71721 -43.26926,60.93427 -109.06895,135.2998 -183.51941,128.79266 -80.3217,-7.02029 -164.70196,-90.79955 -170.88508,-171.19003 -6.57116,-85.4357 121.97425,-127.18149 151.65183,-207.56606 19.60985,-53.11518 46.16287,-123.5028 12.95801,-169.36351 -18.871,-26.06358 -63.29286,-33.45237 -93.74233,-23.0478 -50.54566,17.27142 -81.26621,75.33658 -99.65969,125.48481 -29.15686,79.49363 -11.31189,169.27577 -8.10195,253.88698 1.5806,41.66307 13.70935,82.66165 13.44989,124.35389 C 336.85271,753.11357 328.47577,800 328.47577,800 l -120.48071,-1.82368 c 0,0 17.08806,-60.7431 23.08833,-91.68117 12.26529,-63.24126 20.79724,-127.27769 26.28452,-191.46323 7.72023,-90.30485 -36.14457,-193.31507 9.28024,-271.74438 42.03048,-72.56872 131.16498,-146.72426 213.8234,-132.56917 79.22829,13.5677 144.45692,107.90668 150.99165,188.02223 6.8665,84.18287 -90.9492,143.17328 -124.54328,220.66742 -15.27614,35.2387 -43.2277,72.52177 -34.521,109.92925 4.64579,19.96015 22.23198,41.01775 42.42865,44.49411 50.59531,8.70873 105.35805,-29.43056 137.43972,-69.51165 C 694.63333,551.38991 701.43275,474.9173 702.08288,407.12331 702.35133,379.1307 683.079,325.32002 683.079,325.32002 l 135.45018,-1.27183 c 0,0 -30.66904,55.10325 -46.7278,140.66102 -16.05876,85.55802 26.16549,127.7034 75.87041,158.94617 28.80199,18.10393 71.46837,14.56819 102.05712,-0.31921 38.58458,-18.77894 64.83549,-60.82401 79.74379,-101.06283 16.9154,-45.65631 15.9415,-98.26208 6.0747,-145.94098 -10.4146,-50.32641 -15.6909,-136.36931 -67.02379,-138.84784 -27.95136,-1.34958 -58.49342,48.03916 -43.60935,71.7365 22.75154,36.22334 127.72324,-12.43542 127.72324,-12.43542 l 21.698,108.96304 c -2.0316,21.82423 -85.1371,24.92919 -124.24999,10.8376 -50.46092,-18.18006 -92.14098,-64.27323 -114.54874,-113.00425 -19.50114,-42.40986 -31.10883,-98.18063 -9.7671,-139.69474 19.11937,-37.19116 65.25026,-61.62005 106.86753,-65.71093 32.13766,-3.159056 69.3881,9.55323 90.826,33.70323 72.7487,81.95191 66.087,210.56356 77.0215,319.59992 8.4841,84.60172 9.3274,171.95375 -9.3304,254.90747 -18.116,80.5452 -34.8157,174.16313 -97.78878,227.5496 -91.92925,77.93456 -230.80464,78.58726 -351.06586,86.46296 -90.05038,5.8973 -187.61333,8.9291 -269.07297,-29.90611 C 231.81759,923.0777 105.32136,802.12456 38.803128,660.29109 -12.129572,551.68985 5.2957485,421.66313 8.1396285,301.74532 9.7626785,233.30604 40.009428,94.07817 35.320358,98.17632 Z"
   sodipodi:nodetypes="caaaaacacaaaaaaaaaccaaaaaaaaaaccsaaaaaaccaaaaaaaaaaaacc" /></svg>
