<?xml version="1.0" encoding="UTF-8" standalone="no"?>
<svg
   xmlns:dc="http://purl.org/dc/elements/1.1/"
   xmlns:cc="http://creativecommons.org/ns#"
   xmlns:rdf="http://www.w3.org/1999/02/22-rdf-syntax-ns#"
   xmlns:svg="http://www.w3.org/2000/svg"
   xmlns="http://www.w3.org/2000/svg"
   xmlns:sodipodi="http://sodipodi.sourceforge.net/DTD/sodipodi-0.dtd"
   xmlns:inkscape="http://www.inkscape.org/namespaces/inkscape"
   xml:space="preserve"
   width="1000"
   height="1000"
   version="1.1"
   style="clip-rule:evenodd;fill-rule:evenodd;image-rendering:optimizeQuality;shape-rendering:geometricPrecision;text-rendering:geometricPrecision"
   viewBox="0 0 1000 1000"
   id="svg10"
   sodipodi:docname="ഢൃ.svg"
   inkscape:version="1.0.1 (3bc2e813f5, 2020-09-07)"><metadata
   id="metadata14"><rdf:RDF><cc:Work
       rdf:about=""><dc:format>image/svg+xml</dc:format><dc:type
         rdf:resource="http://purl.org/dc/dcmitype/StillImage" /><dc:title /></cc:Work></rdf:RDF></metadata><sodipodi:namedview
   pagecolor="#ffffff"
   bordercolor="#666666"
   borderopacity="1"
   objecttolerance="10"
   gridtolerance="10"
   guidetolerance="10"
   inkscape:pageopacity="0"
   inkscape:pageshadow="2"
   inkscape:window-width="1920"
   inkscape:window-height="1015"
   id="namedview12"
   showgrid="false"
   inkscape:zoom="0.6002692"
   inkscape:cx="289.11678"
   inkscape:cy="500.11115"
   inkscape:window-x="1920"
   inkscape:window-y="0"
   inkscape:window-maximized="1"
   inkscape:current-layer="svg10"
   showguides="true"
   inkscape:guide-bbox="true"
   inkscape:document-rotation="0"><sodipodi:guide
   position="0,1000"
   orientation="0,1"
   id="guide16"
   inkscape:label=""
   inkscape:locked="true"
   inkscape:color="rgb(0,0,255)" /><sodipodi:guide
   position="1763.3122,2036.1693"
   orientation="1000,0"
   id="guide18" /><sodipodi:guide
   position="0,200"
   orientation="0,1"
   id="guide20"
   inkscape:label="base"
   inkscape:locked="true"
   inkscape:color="rgb(0,0,255)" /><inkscape:grid
   type="xygrid"
   id="grid24"
   originx="-473.37552"
   originy="-489.69235" /><sodipodi:guide
   position="0,0"
   orientation="0,1"
   id="guide34"
   inkscape:label="bottom"
   inkscape:locked="true"
   inkscape:color="rgb(0,0,255)" /><sodipodi:guide
   position="225.05109,1693.3186"
   orientation="0,1"
   id="guide44"
   inkscape:label=""
   inkscape:locked="false"
   inkscape:color="rgb(0,0,255)" /><sodipodi:guide
   position="0,900"
   orientation="0,1"
   id="guide46"
   inkscape:label=""
   inkscape:locked="true"
   inkscape:color="rgb(0,0,255)" /><sodipodi:guide
   position="893.80918,374.11209"
   orientation="1,0"
   id="guide841"
   inkscape:label="width" />    </sodipodi:namedview>
 <defs
   id="defs4"><inkscape:path-effect
   effect="spiro"
   id="path-effect867"
   is_visible="true"
   lpeversion="1" />
  <style
   type="text/css"
   id="style2">
   <![CDATA[
    .fil0 {fill:#EF7F1A;fill-rule:nonzero}
   ]]>
  </style>
 <inkscape:path-effect
   effect="spiro"
   id="path-effect1214"
   is_visible="true"
   lpeversion="1" /><inkscape:path-effect
   effect="spiro"
   id="path-effect1195"
   is_visible="true"
   lpeversion="1" /><inkscape:path-effect
   effect="spiro"
   id="path-effect992"
   is_visible="true"
   lpeversion="1" /><inkscape:path-effect
   effect="spiro"
   id="path-effect1078"
   is_visible="true"
   lpeversion="1" /></defs>
 
<path
   style="display:inline;fill:#1a1a1a;fill-rule:nonzero;stroke:none;stroke-width:1.92017px;stroke-linecap:butt;stroke-linejoin:miter;stroke-opacity:1"
   d="m 743.65898,918.09053 c -15.36152,-22.23788 -36.57263,-40.39649 -60.91258,-52.14664 -42.34888,-20.444 -94.22363,-20.40416 -136.15555,0.88195 -9.8547,5.00259 -19.34746,11.27597 -26.00324,20.09875 -3.32789,4.41139 -5.89903,9.4298 -7.23181,14.79254 -1.33278,5.36273 -1.4006,11.07454 0.1053,16.39126 1.33286,4.70579 3.87524,9.03479 7.15842,12.65993 3.28319,3.62513 7.29492,6.55767 11.63695,8.80883 8.68404,4.50234 18.53863,6.25556 28.29268,6.99191 28.41754,2.1453 57.16236,-3.95492 83.15777,-15.63386 25.9954,-11.67894 49.32498,-28.80956 69.74778,-48.68588 35.81562,-34.85725 63.01552,-78.50265 78.5305,-126.0113 -45.98568,24.77732 -102.80927,28.47805 -151.6202,9.87452 -31.86778,-12.14591 -60.19439,-33.42789 -80.73194,-60.65449 -20.53755,-27.22659 -33.21954,-60.30962 -36.14416,-94.28792 -2.8991,20.19625 -8.51008,40.00149 -16.63504,58.71721 -15.7072,36.18128 -41.03352,68.26803 -73.13739,91.18401 -32.10388,22.91598 -70.95428,36.48859 -110.38202,37.60865 -45.84578,1.30239 -92.53954,-14.86687 -125.65977,-46.59354 -16.56012,-15.86334 -29.63802,-35.40795 -37.59329,-56.91601 -7.95528,-21.50805 -10.74086,-44.96005 -7.63202,-67.68048 5.90556,-43.15975 32.2036,-80.8391 61.83676,-112.76896 29.63315,-31.92986 63.43815,-60.1287 89.81507,-94.7971 18.68929,-24.56419 33.62321,-52.81816 37.81683,-83.39761 2.09681,-15.28973 1.44882,-31.02226 -2.6054,-45.91305 -4.05422,-14.89079 -11.56972,-28.91593 -22.25342,-40.05285 -11.71401,-12.21094 -27.11118,-20.75935 -43.57648,-24.6605 -16.4653,-3.90114 -33.94197,-3.19467 -50.16585,1.6127 -26.76467,7.93076 -49.47063,26.70906 -65.72589,49.40292 -16.25526,22.69386 -26.51367,49.17118 -33.9338,76.08189 -22.66648,82.20491 -19.94808,169.44123 -8.10195,253.88698 5.79823,41.33298 13.75439,82.61731 13.44989,124.35389 -0.17327,23.74921 -3.03891,47.47774 -8.52442,70.5854 L -23.24877,793.13645 C -4.0284653,767.15575 11.610535,738.52938 23.088329,708.31883 46.125879,647.682 52.086547,581.66447 49.372848,516.8556 47.460254,471.17882 41.362751,425.73861 39.972598,380.04294 38.582445,334.34727 42.092715,287.7232 58.653092,245.11122 75.056865,202.90221 104.45684,165.5622 142.62955,141.19976 c 38.17272,-24.36243 85.05525,-35.32022 129.84694,-28.65771 43.74177,6.50635 84.7916,29.88707 112.5364,64.32398 27.74481,34.43692 41.8622,79.60666 38.45525,123.69825 -3.3054,42.7773 -22.3006,82.96374 -46.11628,118.65179 -23.81568,35.68805 -52.56895,67.77845 -78.427,102.01563 -12.04713,15.95093 -23.58254,32.58244 -30.78808,51.2277 -7.20554,18.64525 -9.80931,39.65837 -3.73292,58.70155 6.44168,20.188 22.66391,36.85174 42.42865,44.49411 12.99086,5.02314 27.31062,6.29739 41.10514,4.37245 13.79452,-1.92494 27.06739,-6.98745 39.03837,-14.10714 23.94195,-14.23937 42.32079,-36.28837 57.29621,-59.77696 37.10577,-58.1995 55.79041,-128.43363 49.81559,-197.19642 -2.43139,-27.98222 -8.85079,-55.61491 -19.00388,-81.80329 l 135.45018,-1.27183 c -27.6875,41.62796 -44.00276,90.74049 -46.7278,140.66102 -1.69694,31.08648 1.91695,62.86633 14.17772,91.48315 12.26077,28.61682 33.67445,53.89 61.69269,67.46302 31.6422,15.32859 70.17713,14.5085 102.05712,-0.31921 20.10306,-9.35014 37.6398,-23.93177 51.15728,-41.5055 13.51747,-17.57374 23.05666,-38.08691 28.5865,-59.55733 12.18158,-47.29677 4.92738,-97.11415 6.07473,-145.94098 0.68898,-29.32053 4.35543,-59.37582 -4.1105,-87.456 -4.23297,-14.04009 -11.61913,-27.36549 -22.58704,-37.0993 -10.96792,-9.7338 -25.71987,-15.5945 -40.32627,-14.29254 -7.96626,0.71008 -15.71975,3.51015 -22.38186,7.93528 -6.66211,4.42513 -12.22941,10.45711 -16.23272,17.38091 -8.00662,13.8476 -9.48925,31.06904 -4.99477,46.42031 4.23008,14.44818 13.62968,27.32441 26.10173,35.75599 12.47206,8.43157 27.92364,12.35566 42.90747,10.8968 14.98383,-1.45886 29.38828,-8.2898 39.99968,-18.96883 10.6114,-10.67903 17.3507,-25.12658 18.71434,-40.11938 l 21.69806,108.96304 c -37.45078,20.75134 -83.7721,24.79168 -124.25003,10.8376 -26.04681,-8.97919 -49.40846,-24.97745 -68.57626,-44.76779 -19.1678,-19.79033 -34.24646,-43.3053 -45.97248,-68.23646 -10.27007,-21.8356 -18.08638,-45.04249 -20.60633,-69.04077 -2.51995,-23.99828 0.45157,-48.87407 10.83923,-70.65397 9.49144,-19.90078 25.05886,-36.78982 43.9124,-48.22101 18.85355,-11.43119 40.90695,-17.41343 62.95513,-17.48992 32.93537,-0.114259 65.27126,12.92572 90.82604,33.70323 22.10431,17.97208 39.37033,41.50828 51.66392,67.20777 12.29359,25.69949 19.72901,53.54437 23.85247,81.7329 8.24692,56.37706 3.41602,113.71425 1.50505,170.65925 -2.85306,85.01819 0.83294,170.45073 -9.33033,254.90747 -5.0353,41.84334 -13.52899,83.50175 -28.97312,122.71524 -15.44412,39.21349 -38.06257,76.0166 -68.81571,104.83436 -31.45078,29.47149 -70.76567,49.93433 -112.20314,61.79419 -41.43747,11.85989 -84.98753,15.32609 -128.04167,13.31089 -36.0993,-1.6897 -73.24989,-7.6426 -103.6297,-27.21505 -15.1899,-9.78623 -28.38727,-22.94344 -37.04223,-38.80519 -8.65497,-15.86175 -12.59104,-34.48836 -9.76697,-52.33572 2.26904,-14.33974 8.81441,-27.85657 17.96203,-39.13033 9.14762,-11.27376 20.8361,-20.35466 33.60253,-27.26805 25.53285,-13.82679 54.82104,-18.93652 83.69318,-22.01971 85.60506,-9.14156 172.91132,-2.08994 255.93959,20.67191 z"
   id="path1087-2"
   inkscape:path-effect="#path-effect1078"
   inkscape:original-d="m 743.65898,918.09053 c 0,0 -32.16016,-34.71205 -60.91258,-52.14664 -41.08625,-24.91344 -96.36578,-20.95095 -136.15555,0.88195 -17.84164,9.78982 -37.70552,31.4526 -33.12975,51.28255 4.12368,17.87068 28.79626,27.12779 47.08805,28.46067 55.14808,4.01851 110.82273,-28.45198 152.90555,-64.31974 37.66751,-32.10453 101.33343,-135.31383 78.5305,-126.0113 -9.02111,-30.71983 -105.57843,30.97636 -151.6202,9.87452 -58.81084,-26.95415 -116.8761,-154.94241 -116.8761,-154.94241 0,0 -4.85712,42.13087 -16.63504,58.71721 C 463.5846,730.82161 397.78491,805.18714 323.33445,798.68 243.01275,791.65971 158.63249,707.88045 152.44937,627.48997 145.87821,542.05427 274.42362,500.30848 304.1012,419.92391 c 19.60985,-53.11518 46.16287,-123.5028 12.95801,-169.36351 -18.871,-26.06358 -63.29286,-33.45237 -93.74233,-23.0478 -50.54566,17.27142 -81.26621,75.33658 -99.65969,125.48481 -29.15686,79.49363 -11.31189,169.27577 -8.10195,253.88698 1.5806,41.66307 13.70935,82.66165 13.44989,124.35389 -0.14748,23.69897 -8.52442,70.5854 -8.52442,70.5854 l -143.72948,-8.68723 c 0,0 36.25732,-54.21854 46.337099,-84.81762 C 43.24369,647.13342 43.885574,581.04114 49.372848,516.8556 57.093086,426.55075 13.228281,323.54053 58.653092,245.11122 100.68357,172.5425 189.81807,98.38696 272.47649,112.54205 c 79.22829,13.5677 144.45692,107.90668 150.99165,188.02223 6.8665,84.18287 -90.9492,143.17328 -124.54328,220.66742 -15.27614,35.2387 -43.2277,72.52177 -34.521,109.92925 4.64579,19.96015 22.23198,41.01775 42.42865,44.49411 50.59531,8.70873 105.35805,-29.43056 137.43972,-69.51165 42.36604,-52.92982 49.16546,-129.40243 49.81559,-197.19642 0.26845,-27.99261 -19.00388,-81.80329 -19.00388,-81.80329 l 135.45018,-1.27183 c 0,0 -30.66904,55.10325 -46.7278,140.66102 -16.05876,85.55802 26.16549,127.7034 75.87041,158.94617 28.80199,18.10393 71.46837,14.56819 102.05712,-0.31921 38.58458,-18.77894 64.83552,-60.82401 79.74378,-101.06283 16.91542,-45.65631 15.94149,-98.26208 6.07473,-145.94098 -10.41464,-50.32641 -15.69088,-136.36931 -67.02381,-138.84784 -27.95136,-1.34958 -58.49342,48.03916 -43.60935,71.7365 22.75154,36.22334 127.72322,-12.43542 127.72322,-12.43542 l 21.69806,108.96304 c -2.03163,21.82423 -85.13714,24.92919 -124.25003,10.8376 C 691.62953,400.22986 649.94947,354.13669 627.54171,305.40567 608.04057,262.99581 596.43288,207.22504 617.77461,165.71093 636.89398,128.51977 683.02487,104.09088 724.64214,100 c 32.13766,-3.159056 69.38808,9.55323 90.82604,33.70323 72.74871,81.95191 68.58971,210.34153 77.02144,319.59992 5.61412,72.74771 -7.46733,173.8665 -9.33033,254.90747 -0.49071,21.34628 -36.48727,172.25188 -97.78883,227.5496 -62.30119,56.19944 -157.72401,90.27518 -240.24481,75.10508 -62.75368,-11.53628 -153.23361,-54.61194 -150.4389,-118.35596 2.3593,-53.81276 83.05702,-75.13412 135.25774,-88.41809 82.94734,-21.10832 260.62866,16.57376 255.93959,20.67191 z"
   sodipodi:nodetypes="csaaaacacaaaaaaaaaccaaaaaaaaaaccsaaaaaaccaaaaassaaaacc" /></svg>
