<?xml version="1.0" encoding="UTF-8" standalone="no"?>
<svg
   xml:space="preserve"
   width="1000"
   height="1000"
   version="1.1"
   style="clip-rule:evenodd;fill-rule:evenodd;image-rendering:optimizeQuality;shape-rendering:geometricPrecision;text-rendering:geometricPrecision"
   viewBox="0 0 1000 1000"
   id="svg10"
   sodipodi:docname="ഢ്ര.svg"
   inkscape:version="1.1.1 (3bf5ae0d25, 2021-09-20)"
   xmlns:inkscape="http://www.inkscape.org/namespaces/inkscape"
   xmlns:sodipodi="http://sodipodi.sourceforge.net/DTD/sodipodi-0.dtd"
   xmlns="http://www.w3.org/2000/svg"
   xmlns:svg="http://www.w3.org/2000/svg"
   xmlns:rdf="http://www.w3.org/1999/02/22-rdf-syntax-ns#"
   xmlns:cc="http://creativecommons.org/ns#"
   xmlns:dc="http://purl.org/dc/elements/1.1/"><metadata
   id="metadata14"><rdf:RDF><cc:Work
       rdf:about=""><dc:format>image/svg+xml</dc:format><dc:type
         rdf:resource="http://purl.org/dc/dcmitype/StillImage" /></cc:Work></rdf:RDF></metadata><sodipodi:namedview
   pagecolor="#ffffff"
   bordercolor="#666666"
   borderopacity="1"
   objecttolerance="10"
   gridtolerance="10"
   guidetolerance="10"
   inkscape:pageopacity="0"
   inkscape:pageshadow="2"
   inkscape:window-width="1920"
   inkscape:window-height="1009"
   id="namedview12"
   showgrid="false"
   inkscape:zoom="0.84890884"
   inkscape:cx="590.75836"
   inkscape:cy="468.83715"
   inkscape:window-x="0"
   inkscape:window-y="0"
   inkscape:window-maximized="1"
   inkscape:current-layer="svg10"
   showguides="true"
   inkscape:guide-bbox="true"
   inkscape:document-rotation="0"
   inkscape:pagecheckerboard="0"><sodipodi:guide
   position="0,1000"
   orientation="0,1"
   id="guide16"
   inkscape:label=""
   inkscape:locked="true"
   inkscape:color="rgb(0,0,255)" /><sodipodi:guide
   position="1763.3122,2036.1693"
   orientation="1000,0"
   id="guide18" /><sodipodi:guide
   position="0,200"
   orientation="0,1"
   id="guide20"
   inkscape:label="base"
   inkscape:locked="true"
   inkscape:color="rgb(0,0,255)" /><inkscape:grid
   type="xygrid"
   id="grid24"
   originx="-473.37552"
   originy="-489.69235" /><sodipodi:guide
   position="0,0"
   orientation="0,1"
   id="guide34"
   inkscape:label="bottom"
   inkscape:locked="true"
   inkscape:color="rgb(0,0,255)" /><sodipodi:guide
   position="225.05109,1693.3186"
   orientation="0,1"
   id="guide44"
   inkscape:label=""
   inkscape:locked="false"
   inkscape:color="rgb(0,0,255)" /><sodipodi:guide
   position="0,900"
   orientation="0,1"
   id="guide46"
   inkscape:label=""
   inkscape:locked="true"
   inkscape:color="rgb(0,0,255)" /><sodipodi:guide
   position="1113.2688,356.36228"
   orientation="1,0"
   id="guide841"
   inkscape:label="width" />    </sodipodi:namedview>
 <defs
   id="defs4"><inkscape:path-effect
   effect="fillet_chamfer"
   id="path-effect2899"
   is_visible="true"
   lpeversion="1"
   satellites_param="F,0,0,1,0,0,0,1 @ F,0,0,1,0,0,0,1 @ F,0,0,1,0,0,0,1 @ F,0,0,1,0,0,0,1 @ F,0,0,1,0,0,0,1 @ F,0,0,1,0,0,0,1 @ F,0,0,1,0,0,0,1 @ F,0,0,1,0,0,0,1 @ F,0,0,1,0,0,0,1 @ F,0,0,1,0,0,0,1 @ F,0,0,1,0,0,0,1 @ F,0,0,1,0,0,0,1 @ F,0,0,1,0,0,0,1 @ F,0,1,1,0,17.451131,0,1 @ F,0,1,1,0,17.451131,0,1 @ F,0,0,1,0,0,0,1 @ F,0,0,1,0,0,0,1 @ F,0,0,1,0,0,0,1 @ F,0,0,1,0,0,0,1 @ F,0,0,1,0,0,0,1 @ F,0,0,1,0,0,0,1 @ F,0,0,1,0,0,0,1 @ F,0,0,1,0,0,0,1 @ F,0,0,1,0,0,0,1 @ F,0,0,1,0,0,0,1 @ F,0,0,1,0,0,0,1 @ F,0,0,1,0,0,0,1 @ F,0,0,1,0,0,0,1 @ F,0,0,1,0,0,0,1 @ F,0,0,1,0,0,0,1 @ F,0,0,1,0,0,0,1 @ F,0,0,1,0,0,0,1 @ F,0,0,1,0,0,0,1 @ F,0,0,1,0,0,0,1 @ F,0,0,1,0,0,0,1 @ F,0,0,1,0,0,0,1 @ F,0,0,1,0,0,0,1 @ F,0,0,1,0,0,0,1 @ F,0,0,1,0,0,0,1 @ F,0,0,1,0,0,0,1 @ F,0,0,1,0,0,0,1 @ F,0,0,1,0,0,0,1 @ F,0,0,1,0,0,0,1 @ F,0,0,1,0,0,0,1 @ F,0,0,1,0,0,0,1 @ F,0,0,1,0,0,0,1 @ F,0,0,1,0,0,0,1 @ F,0,1,1,0,17.451131,0,1 @ F,0,1,1,0,17.451131,0,1 @ F,0,0,1,0,0,0,1 @ F,0,0,1,0,0,0,1 @ F,0,0,1,0,0,0,1 @ F,0,0,1,0,0,0,1 @ F,0,0,1,0,0,0,1 @ F,0,0,1,0,0,0,1 @ F,0,0,1,0,0,0,1 @ F,0,0,1,0,0,0,1 @ F,0,0,1,0,0,0,1 @ F,0,0,1,0,0,0,1 @ F,0,0,1,0,0,0,1 @ F,0,0,1,0,0,0,1 @ F,0,0,1,0,0,0,1 @ F,0,0,1,0,0,0,1 @ F,0,0,1,0,0,0,1 @ F,0,0,1,0,0,0,1 @ F,0,1,1,0,17.451131,0,1 @ F,0,0,1,0,17.451131,0,1 @ F,0,0,1,0,0,0,1 @ F,0,0,1,0,0,0,1 @ F,0,0,1,0,0,0,1 @ F,0,0,1,0,0,0,1 @ F,0,0,1,0,0,0,1 @ F,0,0,1,0,0,0,1 @ F,0,0,1,0,0,0,1 @ F,0,0,1,0,0,0,1 @ F,0,0,1,0,0,0,1 @ F,0,0,1,0,0,0,1 @ F,0,0,1,0,0,0,1 @ F,0,0,1,0,0,0,1 @ F,0,0,1,0,0,0,1 @ F,0,0,1,0,0,0,1 @ F,0,0,1,0,0,0,1 @ F,0,0,1,0,0,0,1 @ F,0,0,1,0,0,0,1 @ F,0,0,1,0,0,0,1 @ F,0,0,1,0,0,0,1 @ F,0,0,1,0,0,0,1 @ F,0,0,1,0,0,0,1 @ F,0,0,1,0,0,0,1"
   unit="px"
   method="auto"
   mode="F"
   radius="0"
   chamfer_steps="1"
   flexible="false"
   use_knot_distance="true"
   apply_no_radius="true"
   apply_with_radius="true"
   only_selected="false"
   hide_knots="false" /><inkscape:path-effect
   effect="fillet_chamfer"
   id="path-effect845"
   is_visible="true"
   lpeversion="1"
   satellites_param="F,0,0,1,0,0,0,1 @ F,0,0,1,0,0,0,1 @ F,0,0,1,0,0,0,1 @ F,0,0,1,0,0,0,1 @ F,0,0,1,0,0,0,1 @ F,0,0,1,0,0,0,1 @ F,0,0,1,0,0,0,1 @ F,0,0,1,0,0,0,1 @ F,0,0,1,0,0,0,1 @ F,0,0,1,0,0,0,1 @ F,0,0,1,0,0,0,1 @ F,0,0,1,0,0,0,1 @ F,0,0,1,0,0,0,1 @ F,0,0,1,0,0,0,1 @ F,0,1,1,0,33.980784,0,1 @ F,0,1,1,0,33.980784,0,1 @ F,0,0,1,0,0,0,1 @ F,0,0,1,0,0,0,1 @ F,0,0,1,0,0,0,1 @ F,0,0,1,0,0,0,1 @ F,0,0,1,0,0,0,1 @ F,0,0,1,0,0,0,1 @ F,0,0,1,0,0,0,1 @ F,0,0,1,0,0,0,1 @ F,0,0,1,0,0,0,1 @ F,0,0,1,0,0,0,1 @ F,0,0,1,0,0,0,1 @ F,0,0,1,0,0,0,1 @ F,0,0,1,0,0,0,1 @ F,0,0,1,0,0,0,1 @ F,0,0,1,0,0,0,1 @ F,0,0,1,0,0,0,1 @ F,0,0,1,0,0,0,1 @ F,0,0,1,0,0,0,1 @ F,0,0,1,0,0,0,1 @ F,0,0,1,0,0,0,1 @ F,0,0,1,0,0,0,1 @ F,0,0,1,0,0,0,1 @ F,0,0,1,0,0,0,1 @ F,0,0,1,0,0,0,1 @ F,0,0,1,0,0,0,1 @ F,0,0,1,0,0,0,1 @ F,0,0,1,0,0,0,1 @ F,0,0,1,0,0,0,1 @ F,0,0,1,0,0,0,1 @ F,0,0,1,0,0,0,1 @ F,0,1,1,0,33.980784,0,1 @ F,0,1,1,0,33.980784,0,1 @ F,0,0,1,0,0,0,1 @ F,0,0,1,0,0,0,1 @ F,0,0,1,0,0,0,1 @ F,0,0,1,0,0,0,1 @ F,0,0,1,0,0,0,1 @ F,0,0,1,0,0,0,1 @ F,0,0,1,0,0,0,1 @ F,0,0,1,0,0,0,1 @ F,0,0,1,0,0,0,1 @ F,0,0,1,0,0,0,1 @ F,0,0,1,0,0,0,1 @ F,0,0,1,0,0,0,1 @ F,0,0,1,0,0,0,1 @ F,0,0,1,0,0,0,1 @ F,0,0,1,0,0,0,1 @ F,0,0,1,0,0,0,1 @ F,0,0,1,0,0,0,1 @ F,0,1,1,0,33.980784,0,1 @ F,0,1,1,0,33.980784,0,1 @ F,0,0,1,0,0,0,1 @ F,0,0,1,0,0,0,1 @ F,0,0,1,0,0,0,1 @ F,0,0,1,0,0,0,1 @ F,0,0,1,0,0,0,1 @ F,0,0,1,0,0,0,1 @ F,0,0,1,0,0,0,1 @ F,0,0,1,0,0,0,1 @ F,0,0,1,0,0,0,1 @ F,0,0,1,0,0,0,1 @ F,0,0,1,0,0,0,1 @ F,0,0,1,0,0,0,1 @ F,0,0,1,0,0,0,1 @ F,0,0,1,0,0,0,1 @ F,0,0,1,0,0,0,1 @ F,0,0,1,0,0,0,1 @ F,0,0,1,0,0,0,1 @ F,0,0,1,0,0,0,1 @ F,0,0,1,0,0,0,1 @ F,0,0,1,0,0,0,1 @ F,0,0,1,0,0,0,1 @ F,0,0,1,0,0,0,1"
   unit="px"
   method="auto"
   mode="F"
   radius="0"
   chamfer_steps="1"
   flexible="false"
   use_knot_distance="true"
   apply_no_radius="true"
   apply_with_radius="true"
   only_selected="true"
   hide_knots="false" /><inkscape:path-effect
   effect="fillet_chamfer"
   id="path-effect844"
   is_visible="true"
   lpeversion="1"
   satellites_param="F,0,0,1,0,0,0,1 @ F,0,0,1,0,0,0,1 @ F,0,0,1,0,0,0,1 @ F,0,0,1,0,0,0,1 @ F,0,0,1,0,0,0,1 @ F,0,0,1,0,0,0,1 @ F,0,0,1,0,0,0,1 @ F,0,0,1,0,0,0,1 @ F,0,0,1,0,0,0,1 @ F,0,0,1,0,0,0,1 @ F,0,0,1,0,0,0,1 @ F,0,0,1,0,0,0,1 @ F,0,0,1,0,0,0,1 @ F,0,0,1,0,0,0,1 @ F,0,0,1,0,0,0,1 @ F,0,0,1,0,0,0,1 @ F,0,0,1,0,0,0,1 @ F,0,0,1,0,0,0,1 @ F,0,0,1,0,0,0,1 @ F,0,0,1,0,0,0,1 @ F,0,0,1,0,0,0,1 @ F,0,0,1,0,0,0,1 @ F,0,0,1,0,0,0,1 @ F,0,0,1,0,0,0,1 @ F,0,0,1,0,0,0,1 @ F,0,1,1,0,26.299713,0,1 @ F,0,1,1,0,26.299713,0,1 @ F,0,0,1,0,0,0,1 @ F,0,0,1,0,0,0,1 @ F,0,0,1,0,0,0,1 @ F,0,0,1,0,0,0,1 @ F,0,0,1,0,0,0,1 @ F,0,0,1,0,0,0,1 @ F,0,0,1,0,0,0,1 @ F,0,0,1,0,0,0,1 @ F,0,0,1,0,0,0,1 @ F,0,0,1,0,0,0,1 @ F,0,0,1,0,0,0,1 @ F,0,0,1,0,0,0,1 @ F,0,0,1,0,0,0,1 @ F,0,0,1,0,0,0,1 @ F,0,0,1,0,0,0,1 @ F,0,0,1,0,0,0,1 @ F,0,0,1,0,0,0,1 @ F,0,1,1,0,26.299713,0,1 @ F,0,1,1,0,26.299713,0,1 @ F,0,0,1,0,0,0,1 @ F,0,0,1,0,0,0,1 @ F,0,0,1,0,0,0,1 @ F,0,0,1,0,0,0,1 @ F,0,0,1,0,0,0,1 @ F,0,0,1,0,0,0,1 @ F,0,0,1,0,0,0,1 @ F,0,0,1,0,0,0,1 @ F,0,0,1,0,0,0,1 @ F,0,0,1,0,0,0,1 @ F,0,0,1,0,0,0,1 @ F,0,0,1,0,0,0,1 @ F,0,0,1,0,0,0,1 @ F,0,0,1,0,0,0,1 @ F,0,0,1,0,0,0,1 @ F,0,0,1,0,0,0,1 @ F,0,0,1,0,0,0,1 @ F,0,0,1,0,0,0,1 @ F,0,0,1,0,0,0,1 @ F,0,0,1,0,0,0,1 @ F,0,0,1,0,0,0,1 @ F,0,0,1,0,0,0,1"
   unit="px"
   method="auto"
   mode="F"
   radius="0"
   chamfer_steps="1"
   flexible="false"
   use_knot_distance="true"
   apply_no_radius="true"
   apply_with_radius="true"
   only_selected="true"
   hide_knots="false" /><inkscape:path-effect
   effect="spiro"
   id="path-effect867"
   is_visible="true"
   lpeversion="1" />
  <style
   type="text/css"
   id="style2">
   <![CDATA[
    .fil0 {fill:#EF7F1A;fill-rule:nonzero}
   ]]>
  </style>
 <inkscape:path-effect
   effect="spiro"
   id="path-effect1214"
   is_visible="true"
   lpeversion="1" /><inkscape:path-effect
   effect="spiro"
   id="path-effect1195"
   is_visible="true"
   lpeversion="1" /><inkscape:path-effect
   effect="spiro"
   id="path-effect992"
   is_visible="true"
   lpeversion="1" /><inkscape:path-effect
   effect="spiro"
   id="path-effect1078"
   is_visible="true"
   lpeversion="1" /></defs>
 
<path
   style="display:inline;fill:#1a5fb4;fill-rule:nonzero;stroke:none;stroke-width:1.92017px;stroke-linecap:butt;stroke-linejoin:miter;stroke-opacity:1"
   d="m 905.61732,92 c 30.08264,-0.841884 59.70128,10.84787 83.64526,29.07859 23.94402,18.23073 42.58292,42.67846 57.46832,68.83373 46.1708,81.12696 57.1693,177.83482 53.9499,271.12449 -2.0291,58.79921 -9.2966,117.27994 -16.8387,175.62873 -6.3861,49.40545 -13.0423,99.09268 -28.223,146.53979 -15.1806,47.44711 -39.4911,93.00099 -76.47326,126.37765 -51.26958,46.27116 -121.44581,64.89733 -189.60278,76.04266 -90.77249,14.84356 -183.07174,19.12456 -275.0181,16.70786 C 435.57024,1000.2583 355.8897,993.08951 280.93471,968.19165 205.97971,943.2938 135.5092,899.33039 89.8835,834.85985 35.692146,758.28576 21.152382,660.91978 15.806239,567.26236 9.8663353,463.20302 13.346412,358.69449 24.091309,255.02108 28.8711,208.90271 35.086459,162.93314 42.725014,117.20128 44.312839,107.695 52.985087,102.73749 62.012142,106.11435 l 123.644108,46.25309 c 9.02706,3.37686 11.76546,12.44798 6.41387,20.46313 -24.87309,37.25279 -44.95838,77.70129 -59.58126,120.04123 -32.507279,94.12351 -37.564577,195.78231 -30.61767,295.1186 2.58423,36.95289 6.81822,73.97349 16.67716,109.68057 9.85894,35.70709 25.54888,70.21158 49.22365,98.70192 29.38538,35.36252 70.01814,60.14068 113.1032,76.19326 43.08507,16.05259 88.7799,23.85917 134.39862,29.59857 127.46148,16.03623 257.44432,16.48055 383.85756,-6.39481 25.8573,-4.67906 51.65666,-10.36027 76.18795,-19.77885 24.53128,-9.41857 47.86411,-22.72181 66.55103,-41.19591 21.03252,-20.79299 35.69622,-47.94357 41.55104,-76.93385 5.85481,-28.99028 2.87719,-59.70366 -8.43738,-87.0294 l 48.02248,35.56491 c -20.102,30.77232 -49.7633,55.20287 -83.81721,69.03605 -34.0539,13.83318 -72.34969,17.00778 -108.21656,8.9708 -46.96826,-10.52455 -89.25085,-40.5454 -114.67204,-81.41771 -25.4212,-40.87231 -33.65429,-92.0708 -22.32846,-138.8523 l 30.6293,-6.84333 c -5.44492,38.39332 -16.90862,75.92698 -33.84432,110.81074 -17.51536,36.07773 -41.28234,69.72787 -72.91926,94.37531 -31.63691,24.64743 -71.64877,39.74164 -111.66726,37.11276 -39.93396,-2.62333 -78.05683,-23.15577 -103.47075,-54.07075 -25.41392,-30.91499 -38.13701,-71.62064 -36.46914,-111.60591 1.73835,-41.67504 18.34271,-81.48718 39.81133,-117.2493 21.46861,-35.76213 47.8622,-68.27866 71.67204,-102.52661 17.14229,-24.65738 33.22146,-50.85476 39.93972,-80.12437 3.35913,-14.6348 4.28868,-29.92117 1.73094,-44.71708 -2.55773,-14.79592 -8.6894,-29.08716 -18.42227,-40.52099 -11.06707,-13.0012 -26.59532,-21.98068 -43.23312,-25.81408 -16.63779,-3.8334 -34.30452,-2.6114 -50.50921,2.76628 -26.29969,8.7278 -48.1861,27.98703 -64.15319,50.63433 -15.9671,22.6473 -26.5102,48.64142 -35.5065,74.85048 -26.82406,78.14699 -41.08483,162.13415 -28.42082,243.78037 7.01715,45.24029 22.28769,89.18195 44.77891,129.05468 4.73475,8.39384 1.87208,18.36628 -6.8235,22.52293 l -96.03085,45.9046 c -8.69558,4.15665 -16.15601,-0.27602 -16.6601,-9.90082 -1.87274,-35.75731 -3.71228,-71.51636 -5.51861,-107.27709 -2.87106,-56.83956 -5.65894,-113.71125 -5.64813,-170.62327 0.017,-89.54488 7.77616,-182.02245 49.319,-261.34759 20.68396,-39.49556 49.82183,-75.10166 86.95965,-99.76961 37.13781,-24.66794 82.56695,-37.85114 126.86375,-32.79956 44.19302,5.03974 85.91092,28.45555 113.62956,63.24203 27.71865,34.78647 41.21613,80.46803 37.36209,124.7802 -3.71521,42.71592 -22.71415,82.79208 -46.44479,118.50355 -23.73064,35.71147 -52.30825,67.91017 -78.09849,102.16387 -12.02207,15.9673 -23.55527,32.59557 -30.76694,51.2363 -7.21167,18.64074 -9.82999,39.65173 -3.75406,58.69295 6.44143,20.18667 22.6716,36.83561 42.42865,44.49411 12.99528,5.03741 27.32067,6.3368 41.1278,4.43521 13.80713,-1.9016 27.09893,-6.94344 39.08553,-14.05501 23.97318,-14.22314 42.36597,-36.30839 57.22639,-59.89185 33.33844,-52.90805 50.96627,-115.65517 49.60277,-178.176 -0.62184,-28.51353 -5.12453,-56.93805 -13.31829,-84.25527 -2.76866,-9.23048 2.34002,-16.6418 11.97759,-16.73229 l 100.54946,-0.94413 c 9.63757,-0.0905 13.89757,6.80004 9.94904,15.59121 -18.13889,40.38519 -29.46315,83.82854 -33.29314,127.93619 -3.21365,37.0096 -1.05345,75.07374 11.92137,109.88311 12.97483,34.80936 37.61841,66.17998 71.10983,82.25365 31.75912,15.24228 70.56202,15.4614 102.05712,-0.31921 23.92671,-11.98848 42.97559,-32.38948 56.41301,-55.53352 13.43746,-23.14404 21.58586,-49.00332 27.40536,-75.12504 10.6884,-47.97657 13.8174,-97.7067 8.2933,-146.54806 -4.4049,-38.94594 -14.3207,-77.3282 -30.123,-113.19569 -9.61943,-21.83381 -21.94584,-43.34945 -41.02095,-57.68086 -9.53755,-7.16571 -20.67607,-12.36383 -32.46576,-14.18464 -11.7897,-1.82081 -24.2303,-0.14514 -34.72898,5.51966 -9.34383,5.04167 -16.94196,13.13681 -21.73914,22.60848 -4.79719,9.47167 -6.82577,20.26864 -6.19375,30.86704 1.26405,21.1968 13.12383,40.92517 29.48903,54.45596 21.13271,17.47258 49.98349,25.23878 77.0317,20.73578 27.04821,-4.503 51.82675,-21.19744 66.15885,-44.57422 l 26.0856,108.85878 c -42.0505,21.25851 -92.6389,24.97178 -137.3428,10.08118 C 876.17404,389.28458 835.13419,350.4832 811.44506,303.61939 800.5642,282.09396 793.05939,258.71486 790.878,234.69447 c -2.1814,-24.02038 1.07839,-48.69657 10.79996,-70.76982 8.95865,-20.34099 23.40572,-38.29286 41.60336,-51.05448 C 861.47897,100.10854 883.39961,92.621778 905.61732,92 Z"
   id="path1087-2"
   inkscape:path-effect="#path-effect1078;#path-effect2899"
   inkscape:original-d="m 905.61732,92 c 57.25174,0.03613 109.72328,50.0332 141.11358,97.91232 50.5227,77.06142 49.306,179.09491 53.9499,271.12449 2.9639,58.73664 -3.3769,118.37877 -16.8387,175.62873 -22.303,94.84983 -36.3208,203.50048 -104.69626,272.91744 -47.78474,48.51262 -123.16521,61.11267 -189.60278,76.04266 -89.607,20.13666 -184.31303,31.11236 -275.0181,16.70786 C 364.25034,978.46895 191.64719,947.97982 89.8835,834.85985 27.983154,766.05176 27.048348,659.13086 15.806239,567.26236 3.1595906,463.91622 15.52073,358.78479 24.091309,255.02108 28.385921,203.02636 45.667213,100 45.667213,100 l 156.333967,58.48179 c 0,0 -55.073,86.0668 -69.51232,134.39001 -28.31523,94.7609 -40.634937,196.72635 -30.61767,295.1186 7.37883,72.47694 16.96217,154.41617 65.90081,208.38249 60.27094,66.46284 159.45744,88.52674 247.50182,105.79183 125.57859,24.62538 258.70362,20.30505 383.85756,-6.39481 50.60036,-10.79489 110.07806,-20.84758 142.73898,-60.97476 35.19787,-43.24407 33.11366,-163.96325 33.11366,-163.96325 l 48.02248,35.56491 c 0,0 -142.68087,100.58631 -192.03377,78.00685 -56.23478,-25.728 -137.0005,-220.27001 -137.0005,-220.27001 l 30.6293,-6.84333 c 0,0 -11.27429,79.47066 -33.84432,110.81074 -44.14705,61.3013 -109.63464,140.92343 -184.58652,131.48807 -71.72341,-9.02894 -131.57506,-93.87276 -139.93989,-165.67666 -9.50523,-81.59306 86.85057,-141.41136 111.48337,-219.77591 16.69164,-53.10129 54.44885,-119.26591 23.24839,-165.36244 -18.03659,-26.64782 -63.29286,-33.45237 -93.74233,-23.0478 -50.54566,17.27142 -79.1729,76.15473 -99.65969,125.48481 -31.37758,75.55398 -38.2457,162.56197 -28.42082,243.78037 6.15418,50.87417 18.87991,90.15571 53.70015,144.05132 L 205.31954,800 c 0,0 -4.67302,-83.11811 -6.43397,-124.7042 -2.4075,-56.85463 -10.00925,-113.88505 -5.64813,-170.62327 6.79421,-88.39273 -0.82343,-188.2369 49.319,-261.34759 47.43219,-69.15901 131.16498,-146.72426 213.8234,-132.56917 79.22829,13.5677 144.45692,107.90668 150.99165,188.02223 6.8665,84.18287 -90.9492,143.17328 -124.54328,220.66742 -15.27614,35.2387 -43.2277,72.52177 -34.521,109.92925 4.64579,19.96015 22.23198,41.01775 42.42865,44.49411 50.59531,8.70873 104.87792,-29.81963 137.43972,-69.51165 39.10166,-47.66394 46.91394,-116.5841 49.60277,-178.176 1.49102,-34.15409 -18.79106,-100.82371 -18.79106,-100.82371 l 135.45018,-1.27183 c 0,0 -44.06041,94.00852 -40.79446,143.69125 4.57653,69.61977 24.6666,153.9081 83.0312,192.13676 28.45803,18.63993 72.23139,16.04332 102.05712,-0.31921 45.36582,-24.88789 67.86317,-81.43565 83.81837,-130.65856 15.0867,-46.54345 13.2644,-97.87375 8.2933,-146.54806 -3.9671,-38.84301 -6.7914,-81.88824 -30.123,-113.19569 -25.28341,-33.92662 -71.44682,-87.28189 -108.21569,-66.34584 -31.26751,17.80359 -26.06285,84.87033 1.55614,107.93148 37.142,31.01262 143.19055,-23.83844 143.19055,-23.83844 l 26.0856,108.85878 c 0,0 -93.88227,24.85851 -137.3428,10.08118 C 877.53416,389.40213 833.98051,349.57573 811.44506,303.61939 790.89338,261.70854 781.46554,206.00016 801.67796,163.92465 819.92199,125.94667 863.48454,91.973413 905.61732,92 Z"
   sodipodi:nodetypes="aaaaaaaaaaccaaaaaaccsccaaaaaaaaccaaaaaaaaaaccaaaaaaaaccaaaa" /></svg>
