<svg xmlns="http://www.w3.org/2000/svg" xmlns:dc="http://purl.org/dc/elements/1.1/" xmlns:ns1="http://sodipodi.sourceforge.net/DTD/sodipodi-0.dtd" xmlns:ns2="http://www.inkscape.org/namespaces/inkscape" xmlns:ns4="http://creativecommons.org/ns#" xmlns:rdf="http://www.w3.org/1999/02/22-rdf-syntax-ns#" xml:space="preserve" width="1000" height="1000" version="1.1" style="clip-rule:evenodd;fill-rule:evenodd;image-rendering:optimizeQuality;shape-rendering:geometricPrecision;text-rendering:geometricPrecision" viewBox="0 0 1000 1000" id="svg10" ns1:docname="ണ.svg" ns2:version="1.0.2 (e86c870879, 2021-01-15)"><metadata id="metadata14"><rdf:RDF><ns4:Work rdf:about=""><dc:format>image/svg+xml</dc:format><dc:type rdf:resource="http://purl.org/dc/dcmitype/StillImage" /><dc:title /></ns4:Work></rdf:RDF></metadata><ns1:namedview pagecolor="#ffffff" bordercolor="#666666" borderopacity="1" objecttolerance="10" gridtolerance="10" guidetolerance="10" ns2:pageopacity="0" ns2:pageshadow="2" ns2:window-width="1920" ns2:window-height="1007" id="namedview12" showgrid="false" ns2:zoom="0.9588368" ns2:cx="622.92602" ns2:cy="505.81978" ns2:window-x="1920" ns2:window-y="0" ns2:window-maximized="1" ns2:current-layer="svg10" showguides="true" ns2:guide-bbox="true" ns2:document-rotation="0" ns2:snap-to-guides="true"><ns1:guide position="0,1000" orientation="0,1" id="guide16" ns2:label="" ns2:locked="true" ns2:color="rgb(0,0,255)" /><ns1:guide position="1763.3122,2036.1693" orientation="1000,0" id="guide18" /><ns1:guide position="0,200" orientation="0,1" id="guide20" ns2:label="base" ns2:locked="true" ns2:color="rgb(0,0,255)" /><ns2:grid type="xygrid" id="grid24" originx="-473.37552" originy="-489.69235" /><ns1:guide position="0,0" orientation="0,1" id="guide34" ns2:label="bottom" ns2:locked="true" ns2:color="rgb(0,0,255)" /><ns1:guide position="225.05109,1693.3186" orientation="0,1" id="guide44" ns2:label="" ns2:locked="false" ns2:color="rgb(0,0,255)" /><ns1:guide position="0,900" orientation="0,1" id="guide46" ns2:label="" ns2:locked="true" ns2:color="rgb(0,0,255)" /><ns1:guide position="1102.0237,779.52778" orientation="-1,0" id="guide841" ns2:label="width" ns2:locked="false" ns2:color="rgb(0,0,255)" /><ns1:guide position="1133.4574,1000" orientation="0,1000" id="guide860" /><ns1:guide position="1000,1000" orientation="1000,0" id="guide862" /><ns1:guide position="1000,0" orientation="0,-1000" id="guide864" /><ns1:guide position="0,0" orientation="-1000,0" id="guide866" /></ns1:namedview>
 <defs id="defs4"><ns2:path-effect effect="fillet_chamfer" id="path-effect863" is_visible="true" lpeversion="1" satellites_param="F,0,0,1,0,0,0,1 @ F,0,0,1,0,0,0,1 @ F,0,0,1,0,0,0,1 @ F,0,0,1,0,0,0,1 @ F,0,0,1,0,0,0,1 @ F,0,0,1,0,0,0,1 @ F,0,0,1,0,0,0,1 @ F,0,0,1,0,0,0,1 @ F,0,0,1,0,0,0,1 @ F,0,0,1,0,0,0,1 @ F,0,0,1,0,0,0,1 @ F,0,0,1,0,0,0,1 @ F,0,0,1,0,0,0,1 @ F,0,0,1,0,0,0,1 @ F,0,0,1,0,0,0,1 @ F,0,0,1,0,0,0,1 @ F,0,0,1,0,0,0,1 @ F,0,0,1,0,0,0,1 @ F,0,0,1,0,0,0,1 @ F,0,0,1,0,0,0,1 @ F,0,0,1,0,0,0,1 @ F,0,0,1,0,0,0,1 @ F,0,0,1,0,0,0,1 @ F,0,0,1,0,0,0,1 @ F,0,0,1,0,0,0,1 @ F,0,0,1,0,0,0,1 @ F,0,0,1,0,0,0,1 @ F,0,0,1,0,0,0,1 @ F,0,0,1,0,0,0,1 @ F,0,0,1,0,0,0,1 @ F,0,0,1,0,0,0,1 @ F,0,0,1,0,0,0,1 @ F,0,0,1,0,0,0,1 @ F,0,0,1,0,0,0,1 @ F,0,0,1,0,0,0,1 @ F,0,0,1,0,0,0,1 @ F,0,0,1,0,0,0,1 @ F,0,0,1,0,0,0,1 @ F,0,0,1,0,0,0,1 @ F,0,0,1,0,0,0,1 @ F,0,0,1,0,0,0,1 @ F,0,0,1,0,0,0,1 @ F,0,0,1,0,0,0,1 @ F,0,1,1,0,26.46327,0,1 @ F,0,1,1,0,26.46327,0,1 @ F,0,0,1,0,0,0,1 @ F,0,0,1,0,0,0,1 @ F,0,0,1,0,0,0,1 @ F,0,0,1,0,0,0,1 @ F,0,0,1,0,0,0,1 @ F,0,0,1,0,0,0,1 @ F,0,0,1,0,0,0,1 @ F,0,0,1,0,0,0,1 @ F,0,0,1,0,0,0,1 @ F,0,1,1,0,26.46327,0,1 @ F,0,1,1,0,26.46327,0,1 @ F,0,0,1,0,0,0,1 @ F,0,0,1,0,0,0,1 @ F,0,0,1,0,0,0,1 @ F,0,0,1,0,0,0,1 @ F,0,0,1,0,0,0,1 @ F,0,0,1,0,0,0,1 @ F,0,0,1,0,0,0,1 @ F,0,0,1,0,0,0,1 @ F,0,0,1,0,0,0,1 @ F,0,1,1,0,26.46327,0,1 @ F,0,1,1,0,26.46327,0,1 @ F,0,0,1,0,0,0,1 @ F,0,0,1,0,0,0,1 @ F,0,0,1,0,0,0,1 @ F,0,0,1,0,0,0,1 @ F,0,0,1,0,0,0,1 @ F,0,0,1,0,0,0,1 @ F,0,0,1,0,0,0,1 @ F,0,0,1,0,0,0,1" unit="px" method="auto" mode="F" radius="0" chamfer_steps="1" flexible="false" use_knot_distance="true" apply_no_radius="true" apply_with_radius="true" only_selected="true" hide_knots="false" /><ns2:path-effect effect="fillet_chamfer" id="path-effect861" is_visible="true" lpeversion="1" satellites_param="F,0,0,1,0,0,0,1 @ F,0,0,1,0,0,0,1 @ F,0,0,1,0,0,0,1 @ F,0,0,1,0,0,0,1 @ F,0,0,1,0,0,0,1 @ F,0,0,1,0,0,0,1 @ F,0,0,1,0,0,0,1 @ F,0,0,1,0,0,0,1 @ F,0,0,1,0,0,0,1 @ F,0,0,1,0,0,0,1 @ F,0,0,1,0,0,0,1 @ F,0,0,1,0,0,0,1 @ F,0,0,1,0,0,0,1 @ F,0,0,1,0,0,0,1 @ F,0,0,1,0,0,0,1 @ F,0,0,1,0,0,0,1 @ F,0,0,1,0,0,0,1 @ F,0,0,1,0,0,0,1 @ F,0,0,1,0,0,0,1 @ F,0,0,1,0,0,0,1 @ F,0,0,1,0,0,0,1 @ F,0,0,1,0,0,0,1 @ F,0,0,1,0,0,0,1 @ F,0,0,1,0,0,0,1 @ F,0,0,1,0,0,0,1 @ F,0,0,1,0,0,0,1 @ F,0,0,1,0,0,0,1 @ F,0,0,1,0,0,0,1 @ F,0,0,1,0,0,0,1 @ F,0,0,1,0,0,0,1 @ F,0,0,1,0,0,0,1 @ F,0,0,1,0,0,0,1 @ F,0,0,1,0,0,0,1 @ F,0,0,1,0,0,0,1 @ F,0,0,1,0,0,0,1 @ F,0,0,1,0,0,0,1 @ F,0,0,1,0,0,0,1 @ F,0,0,1,0,0,0,1 @ F,0,1,1,0,21.482087,0,1 @ F,0,1,1,0,21.482087,0,1 @ F,0,0,1,0,0,0,1 @ F,0,0,1,0,0,0,1 @ F,0,0,1,0,0,0,1 @ F,0,0,1,0,0,0,1 @ F,0,0,1,0,0,0,1 @ F,0,0,1,0,0,0,1 @ F,0,0,1,0,0,0,1 @ F,0,0,1,0,0,0,1 @ F,0,0,1,0,0,0,1 @ F,0,1,1,0,21.482087,0,1 @ F,0,1,1,0,21.482087,0,1 @ F,0,0,1,0,0,0,1 @ F,0,0,1,0,0,0,1 @ F,0,0,1,0,0,0,1 @ F,0,0,1,0,0,0,1 @ F,0,0,1,0,0,0,1 @ F,0,0,1,0,0,0,1 @ F,0,0,1,0,0,0,1 @ F,0,0,1,0,0,0,1 @ F,0,0,1,0,0,0,1 @ F,0,1,1,0,21.482087,0,1 @ F,0,1,1,0,21.482087,0,1 @ F,0,0,1,0,0,0,1 @ F,0,0,1,0,0,0,1 @ F,0,0,1,0,0,0,1 @ F,0,0,1,0,0,0,1 @ F,0,0,1,0,0,0,1 @ F,0,0,1,0,0,0,1 @ F,0,0,1,0,0,0,1 @ F,0,0,1,0,0,0,1" unit="px" method="auto" mode="F" radius="0" chamfer_steps="1" flexible="false" use_knot_distance="true" apply_no_radius="true" apply_with_radius="true" only_selected="true" hide_knots="false" /><ns2:path-effect effect="fillet_chamfer" id="path-effect860" is_visible="true" lpeversion="1" satellites_param="F,0,0,1,0,0,0,1 @ F,0,0,1,0,0,0,1 @ F,0,0,1,0,0,0,1 @ F,0,0,1,0,0,0,1 @ F,0,0,1,0,0,0,1 @ F,0,0,1,0,0,0,1 @ F,0,0,1,0,0,0,1 @ F,0,0,1,0,0,0,1 @ F,0,0,1,0,0,0,1 @ F,0,0,1,0,0,0,1 @ F,0,0,1,0,0,0,1 @ F,0,0,1,0,0,0,1 @ F,0,0,1,0,0,0,1 @ F,0,0,1,0,0,0,1 @ F,0,0,1,0,0,0,1 @ F,0,0,1,0,0,0,1 @ F,0,0,1,0,0,0,1 @ F,0,0,1,0,0,0,1 @ F,0,0,1,0,0,0,1 @ F,0,0,1,0,0,0,1 @ F,0,0,1,0,0,0,1 @ F,0,0,1,0,0,0,1 @ F,0,0,1,0,0,0,1 @ F,0,0,1,0,0,0,1 @ F,0,0,1,0,0,0,1 @ F,0,0,1,0,0,0,1 @ F,0,0,1,0,0,0,1 @ F,0,0,1,0,26.57703,0,1 @ F,0,0,1,0,39.403001,0,1 @ F,0,0,1,0,0,0,1 @ F,0,0,1,0,0,0,1 @ F,0,0,1,0,0,0,1 @ F,0,0,1,0,0,0,1 @ F,0,0,1,0,0,0,1 @ F,0,0,1,0,0,0,1 @ F,0,0,1,0,0,0,1 @ F,0,0,1,0,0,0,1 @ F,0,0,1,0,0,0,1 @ F,0,0,1,0,27.621521,0,1 @ F,0,0,1,0,28.942872,0,1 @ F,0,0,1,0,0,0,1 @ F,0,0,1,0,0,0,1 @ F,0,0,1,0,0,0,1 @ F,0,0,1,0,0,0,1 @ F,0,0,1,0,0,0,1 @ F,0,0,1,0,0,0,1 @ F,0,0,1,0,0,0,1 @ F,0,0,1,0,0,0,1 @ F,0,0,1,0,0,0,1 @ F,0,0,1,0,27.273074,0,1 @ F,0,0,1,0,28.677321,0,1 @ F,0,0,1,0,0,0,1 @ F,0,0,1,0,0,0,1 @ F,0,0,1,0,0,0,1 @ F,0,0,1,0,0,0,1 @ F,0,0,1,0,0,0,1 @ F,0,0,1,0,0,0,1 @ F,0,0,1,0,0,0,1 @ F,0,0,1,0,0,0,1 @ F,0,0,1,0,0,0,1 | F,0,0,1,0,0,0,1 @ F,0,0,1,0,0,0,1 @ F,0,0,1,0,0,0,1 @ F,0,0,1,0,0,0,1 @ F,0,0,1,0,0,0,1 @ F,0,0,1,0,0,0,1 @ F,0,0,1,0,0,0,1 @ F,0,0,1,0,0,0,1 @ F,0,0,1,0,0,0,1 @ F,0,0,1,0,0,0,1 @ F,0,0,1,0,0,0,1" unit="px" method="auto" mode="F" radius="0" chamfer_steps="1" flexible="false" use_knot_distance="true" apply_no_radius="true" apply_with_radius="true" only_selected="true" hide_knots="false" /><ns2:path-effect effect="spiro" id="path-effect870" is_visible="true" lpeversion="1" /><ns2:path-effect effect="spiro" id="path-effect862" is_visible="true" lpeversion="1" /><ns2:path-effect effect="spiro" id="path-effect1521" is_visible="true" lpeversion="1" /><ns2:path-effect effect="spiro" id="path-effect858" is_visible="true" lpeversion="1" /><ns2:path-effect effect="spiro" id="path-effect854" is_visible="true" lpeversion="1" />
  <style type="text/css" id="style2">
   
    .fil0 {fill:#EF7F1A;fill-rule:nonzero}
   
  </style>
 <ns2:path-effect effect="spiro" id="path-effect1214" is_visible="true" lpeversion="1" /><ns2:path-effect effect="spiro" id="path-effect1195" is_visible="true" lpeversion="1" /><ns2:path-effect effect="spiro" id="path-effect992" is_visible="true" lpeversion="1" /><ns2:path-effect effect="spiro" id="path-effect287" is_visible="true" lpeversion="1" /><ns2:path-effect effect="spiro" id="path-effect1032" is_visible="true" lpeversion="1" /><ns2:path-effect effect="spiro" id="path-effect1218" is_visible="true" lpeversion="1" /><ns2:path-effect effect="spiro" id="path-effect309" is_visible="true" lpeversion="1" /><ns2:path-effect effect="spiro" id="path-effect1176" is_visible="true" lpeversion="1" /><ns2:path-effect effect="spiro" id="path-effect1026" is_visible="true" lpeversion="1" /><ns2:path-effect effect="spiro" id="path-effect1255" is_visible="true" lpeversion="1" /><ns2:path-effect effect="spiro" id="path-effect1033" is_visible="true" lpeversion="1" /><ns2:path-effect effect="spiro" id="path-effect461" is_visible="true" lpeversion="1" /></defs>
 
<path style="display:inline;fill:#a51d2d;fill-rule:nonzero;stroke:none;stroke-width:1.8927px;stroke-linecap:butt;stroke-linejoin:miter;stroke-opacity:1" d="m 96.93791,587.30463 c 6.94637,20.51561 15.89114,40.53745 28.63973,58.0479 15.66508,21.5163 37.36852,39.08225 62.66245,47.36251 25.29393,8.28027 54.19979,6.65978 77.20478,-6.72365 23.41945,-13.62455 39.356,-38.9479 42.58298,-65.84931 3.22698,-26.9014 -5.97508,-54.83341 -23.74154,-75.2895 -15.03066,-17.30612 -35.92325,-29.33219 -58.34683,-34.08675 -22.42357,-4.75456 -46.25371,-2.2856 -67.40838,6.54063 -28.98384,12.09275 -52.70712,36.25742 -64.263556,65.45925 -11.556439,29.20183 -10.793983,63.05657 2.065402,91.70852 L 40.386584,517.33172 c 7.383771,-38.064 29.79158,-73.0029 61.306366,-95.59065 31.51479,-22.58774 71.80032,-32.58335 110.21871,-27.34736 40.43099,5.51029 77.73795,27.39151 105.31643,57.46566 27.57849,30.07416 45.83078,67.93434 56.18344,107.40395 11.20094,42.70368 13.34336,88.56763 0.23806,130.72587 -13.10529,42.15823 -42.58076,80.15137 -82.85737,98.23063 -20.73655,9.30816 -43.77681,13.19411 -66.4761,12.01579 -22.69929,-1.17832 -45.04443,-7.35706 -65.49702,-17.27362 C 117.91393,763.12888 85.245386,728.78571 61.76739,689.85797 18.805434,618.62482 5.2909069,532.27606 12.564132,449.40874 18.636757,380.22043 38.965499,311.63418 76.69738,253.32291 c 23.51668,-36.34293 54.09196,-68.78807 91.7725,-90.0958 37.68054,-21.30774 82.8455,-30.81989 125.14991,-21.64496 25.42831,5.51486 49.1905,17.53579 70.00643,33.14699 20.81593,15.6112 38.78902,34.75991 54.76551,55.29681 41.24265,53.01515 69.60611,115.97764 81.98551,181.99515 l -57.98408,1.01976 c 10.3333,-28.47909 24.53134,-55.55307 42.08277,-80.24686 11.88324,-16.71899 25.45177,-32.49267 42.01949,-44.58591 16.56772,-12.09324 36.36541,-20.36779 56.86871,-20.95996 19.06379,-0.5506 37.95655,5.56294 54.30457,15.38503 16.34802,9.82209 30.30455,23.22799 42.57096,37.83163 21.82934,25.98867 38.69704,56.13011 49.4302,88.32841 l -47.6389,6.01776 c 3.51676,-25.10781 8.97191,-49.94388 16.30091,-74.21434 18.15105,-60.10835 48.06261,-116.91633 89.34135,-164.22954 19.58848,-22.45208 41.95566,-42.9285 68.22459,-56.99078 26.26893,-14.06228 56.75478,-21.398767 86.21007,-16.90539 29.01045,4.42552 55.59434,20.1211 76.18502,41.03081 20.5906,20.90972 35.5379,46.82248 46.849,73.90107 41.0938,98.37767 34.9356,211.24385 5.412,313.69005 -26.2176,90.9745 -70.3237,178.27583 -75.9504,272.78542 -0.83645,14.04962 -0.80354,28.15076 0.0944,42.19657 0.93217,14.58185 -7.93224,21.10328 -21.05583,14.67077 L 873.47156,811.6471 c -13.12359,-6.43251 -16.02205,-20.62579 -7.01638,-32.13541 42.50575,-54.32417 75.98832,-115.70378 98.58077,-180.87906 24.85415,-71.69989 36.52315,-148.83648 26.31365,-224.03202 -3.29376,-24.25929 -9.01001,-48.65155 -21.50992,-69.70183 -6.24995,-10.52515 -14.17632,-20.1177 -23.75136,-27.74391 -9.57505,-7.62621 -20.8272,-13.25095 -32.81853,-15.71034 -14.25093,-2.92283 -29.27354,-1.29783 -42.91762,3.74905 -13.64408,5.04689 -25.93531,13.42816 -36.2985,23.63778 -20.72637,20.41924 -33.48849,47.5338 -43.31125,74.92068 -25.34206,70.6563 -33.72377,146.90654 -28.20456,221.76688 3.87948,52.61967 14.55464,104.73227 31.64235,154.65012 4.73303,13.82647 -2.71396,24.0366 -17.29516,23.03951 l -79.01429,-5.40316 c -14.5812,-0.99709 -22.26767,-12.93573 -18.48372,-27.0482 5.41497,-20.1955 8.82469,-40.92904 10.14527,-61.79636 2.68095,-42.36344 -3.20432,-84.75725 -9.43473,-126.74571 -4.19722,-28.28621 -8.81986,-57.31085 -23.22406,-82.014 -7.2021,-12.35157 -16.85532,-23.4298 -28.84746,-31.2157 -11.99214,-7.78589 -26.40413,-12.14035 -40.66112,-11.05882 -14.83756,1.12558 -28.93189,8.1013 -39.81224,18.25207 -10.88034,10.15077 -18.6701,23.33154 -23.67823,37.34363 -10.01626,28.02418 -9.11343,58.58515 -8.64443,88.34184 0.75797,48.09106 0.0942,96.54694 8.98068,143.8159 2.57581,13.70121 5.94929,27.25226 10.09446,40.56297 4.34461,13.95114 -3.0564,24.68979 -17.668,24.36269 l -89.94222,-2.01344 c -14.6116,-0.3271 -21.74611,-11.47447 -16.73992,-25.20379 12.74585,-34.95505 21.61113,-71.3254 26.35617,-108.22839 7.94544,-61.79302 4.21195,-125.39434 -14.00387,-184.97362 -9.06405,-29.64616 -21.74033,-58.34 -39.27451,-83.90568 -17.53418,-25.56568 -40.03748,-47.96386 -66.76098,-63.67712 -31.24827,-18.37379 -69.04476,-27.22592 -104.42982,-19.35521 -21.56802,4.79738 -41.587,15.60813 -58.40988,29.93241 -16.82288,14.32428 -30.52821,32.09141 -41.42721,51.31135 -17.568474,30.98127 -27.972749,65.90251 -31.00529,101.38905 -3.500496,40.96251 2.753501,82.48312 15.93826,121.42337 z" id="use1033" ns1:nodetypes="aaaaaccaaaaaaaaccaaaccaaaaaaccaaaaaccaaaaaccaaaaaaa" ns2:path-effect="#path-effect870;#path-effect863" ns2:original-d="m 96.93791,587.30463 c 6.26123,20.64775 12.10421,44.18756 28.63973,58.0479 37.20803,31.18835 99.19437,67.15054 139.86723,40.63886 39.76234,-25.91818 46.07935,-102.26861 18.84144,-141.13881 C 259.66028,509.70972 196.4109,497.14256 158.5311,517.30646 108.79605,543.78106 94.537606,647.3089 96.332946,674.47423 L 40.386584,517.33172 c 0,0 101.446596,-129.04509 171.525076,-122.93801 76.63966,6.67886 145.13346,89.70057 161.49987,164.86961 17.26112,79.27835 -8.18911,196.6587 -82.61931,228.9565 C 214.57421,821.29341 114.23555,754.27954 61.76739,689.85797 10.103739,626.42419 7.892977,531.08589 12.564132,449.40874 16.490654,380.75181 32.100523,305.6709 76.69738,253.32291 129.44451,191.4081 212.48477,135.85396 293.61979,141.58215 c 50.85309,3.59027 92.37234,49.08401 124.77194,88.4438 42.28652,51.37067 81.98551,181.99515 81.98551,181.99515 l -57.98408,1.01976 c 0,0 21.8458,-57.82488 42.08277,-80.24686 26.49638,-29.35721 59.37603,-63.90495 98.8882,-65.54587 36.81161,-1.52878 70.72106,27.26719 96.87553,53.21666 23.95119,23.76345 49.4302,88.32841 49.4302,88.32841 l -47.6389,6.01776 c 0,0 7.4445,-50.4854 16.30091,-74.21434 21.79125,-58.38521 44.14574,-121.3221 89.34135,-164.22954 41.38718,-39.29182 98.02936,-82.567251 154.43466,-73.89617 55.47002,8.52729 100.23482,63.64999 123.03402,114.93188 42.4847,95.56043 18.6733,209.95535 5.412,313.69005 -11.9688,93.62518 -65.0875,179.02549 -75.9504,272.78542 -2.6306,22.70534 2.8009,68.51444 2.8009,68.51444 L 849.7092,800 c 0,0 91.10341,-127.90677 115.32675,-201.36737 C 988.5827,527.224 1009.481,447.57248 991.3496,374.60061 980.2991,330.12624 958.67613,267.63717 913.26979,261.44453 c -52.71991,-7.19009 -96.98098,55.63344 -122.52737,102.30751 -35.77771,65.36703 -31.80733,147.33628 -28.20456,221.76688 2.96634,61.28235 40.7488,179.49502 40.7488,179.49502 L 671.46915,756 c 0,0 16.13371,-57.47081 18.06316,-87.03917 2.75865,-42.27555 5.39644,-87.0611 -9.43473,-126.74571 -18.09559,-48.41938 -41.24335,-128.8426 -92.73264,-124.28852 -53.45845,4.72824 -61.41488,91.35196 -72.1349,143.93754 -9.5944,47.06402 0.78416,96.48841 8.98068,143.8159 3.87851,22.3949 18.8831,65.51792 18.8831,65.51792 L 400.23832,768 c 0,0 31.72978,-87.16239 36.07289,-132.83992 5.85294,-61.55669 7.15789,-126.87316 -14.00387,-184.97362 -20.73086,-56.91738 -54.89117,-115.12336 -106.03549,-147.5828 -29.89096,-18.9707 -70.12681,-28.11083 -104.42982,-19.35521 -41.57272,10.61115 -75.88606,45.64549 -99.83709,81.24376 -19.72845,29.32227 -28.07078,66.16979 -31.00529,101.38905 -3.38956,40.68068 4.09216,82.35833 15.93826,121.42337 z" /></svg>