<?xml version="1.0" encoding="UTF-8" standalone="no"?>
<svg
   xmlns:dc="http://purl.org/dc/elements/1.1/"
   xmlns:cc="http://creativecommons.org/ns#"
   xmlns:rdf="http://www.w3.org/1999/02/22-rdf-syntax-ns#"
   xmlns:svg="http://www.w3.org/2000/svg"
   xmlns="http://www.w3.org/2000/svg"
   xmlns:sodipodi="http://sodipodi.sourceforge.net/DTD/sodipodi-0.dtd"
   xmlns:inkscape="http://www.inkscape.org/namespaces/inkscape"
   xml:space="preserve"
   width="1000"
   height="1000"
   version="1.1"
   style="clip-rule:evenodd;fill-rule:evenodd;image-rendering:optimizeQuality;shape-rendering:geometricPrecision;text-rendering:geometricPrecision"
   viewBox="0 0 1000 1000"
   id="svg10"
   sodipodi:docname="ണൂ.svg"
   inkscape:version="1.0.2 (e86c870879, 2021-01-15)"><metadata
   id="metadata14"><rdf:RDF><cc:Work
       rdf:about=""><dc:format>image/svg+xml</dc:format><dc:type
         rdf:resource="http://purl.org/dc/dcmitype/StillImage" /><dc:title /></cc:Work></rdf:RDF></metadata><sodipodi:namedview
   pagecolor="#ffffff"
   bordercolor="#666666"
   borderopacity="1"
   objecttolerance="10"
   gridtolerance="10"
   guidetolerance="10"
   inkscape:pageopacity="0"
   inkscape:pageshadow="2"
   inkscape:window-width="1920"
   inkscape:window-height="1007"
   id="namedview12"
   showgrid="false"
   inkscape:zoom="0.678"
   inkscape:cx="691.10896"
   inkscape:cy="556.53787"
   inkscape:window-x="1920"
   inkscape:window-y="0"
   inkscape:window-maximized="1"
   inkscape:current-layer="svg10"
   showguides="true"
   inkscape:guide-bbox="true"
   inkscape:document-rotation="0"
   inkscape:snap-to-guides="true"><sodipodi:guide
     position="0,1000"
     orientation="0,1"
     id="guide16"
     inkscape:label=""
     inkscape:locked="true"
     inkscape:color="rgb(0,0,255)" /><sodipodi:guide
     position="1763.3122,2036.1693"
     orientation="1000,0"
     id="guide18" /><sodipodi:guide
     position="0,200"
     orientation="0,1"
     id="guide20"
     inkscape:label="base"
     inkscape:locked="true"
     inkscape:color="rgb(0,0,255)" /><inkscape:grid
     type="xygrid"
     id="grid24"
     originx="-473.37552"
     originy="-489.69235" /><sodipodi:guide
     position="0,0"
     orientation="0,1"
     id="guide34"
     inkscape:label="bottom"
     inkscape:locked="true"
     inkscape:color="rgb(0,0,255)" /><sodipodi:guide
     position="225.05109,1693.3186"
     orientation="0,1"
     id="guide44"
     inkscape:label=""
     inkscape:locked="false"
     inkscape:color="rgb(0,0,255)" /><sodipodi:guide
     position="0,900"
     orientation="0,1"
     id="guide46"
     inkscape:label=""
     inkscape:locked="true"
     inkscape:color="rgb(0,0,255)" /><sodipodi:guide
     position="1280.582,769.89508"
     orientation="-1,0"
     id="guide841"
     inkscape:label="width"
     inkscape:locked="false"
     inkscape:color="rgb(0,0,255)" /><sodipodi:guide
     position="1092.9909,1000"
     orientation="0,1000"
     id="guide860" /><sodipodi:guide
     position="1000,1000"
     orientation="1000,0"
     id="guide862" /><sodipodi:guide
     position="1000,0"
     orientation="0,-1000"
     id="guide864" /><sodipodi:guide
     position="0,0"
     orientation="-1000,0"
     id="guide866" /></sodipodi:namedview>
 <defs
   id="defs4"><inkscape:path-effect
   effect="fillet_chamfer"
   id="path-effect861"
   is_visible="true"
   lpeversion="1"
   satellites_param="F,0,0,1,0,0,0,1 @ F,0,0,1,0,0,0,1 @ F,0,0,1,0,0,0,1 @ F,0,0,1,0,0,0,1 @ F,0,0,1,0,0,0,1 @ F,0,0,1,0,0,0,1 @ F,0,0,1,0,0,0,1 @ F,0,0,1,0,0,0,1 @ F,0,0,1,0,0,0,1 @ F,0,0,1,0,0,0,1 @ F,0,0,1,0,0,0,1 @ F,0,0,1,0,0,0,1 @ F,0,0,1,0,0,0,1 @ F,0,0,1,0,0,0,1 @ F,0,0,1,0,0,0,1 @ F,0,0,1,0,0,0,1 @ F,0,0,1,0,0,0,1 @ F,0,0,1,0,0,0,1 @ F,0,0,1,0,0,0,1 @ F,0,0,1,0,0,0,1 @ F,0,0,1,0,0,0,1 @ F,0,0,1,0,0,0,1 @ F,0,0,1,0,0,0,1 @ F,0,0,1,0,0,0,1 @ F,0,0,1,0,0,0,1 @ F,0,0,1,0,0,0,1 @ F,0,0,1,0,0,0,1 @ F,0,0,1,0,0,0,1 @ F,0,0,1,0,0,0,1 @ F,0,0,1,0,0,0,1 @ F,0,0,1,0,0,0,1 @ F,0,0,1,0,0,0,1 @ F,0,0,1,0,0,0,1 @ F,0,0,1,0,0,0,1 @ F,0,0,1,0,0,0,1 @ F,0,0,1,0,0,0,1 @ F,0,0,1,0,0,0,1 @ F,0,0,1,0,0,0,1 @ F,0,0,1,0,0,0,1 @ F,0,0,1,0,0,0,1 @ F,0,0,1,0,0,0,1 @ F,0,0,1,0,0,0,1 @ F,0,0,1,0,0,0,1 @ F,0,0,1,0,0,0,1 @ F,0,0,1,0,0,0,1 @ F,0,1,1,0,27.098119,0,1 @ F,0,1,1,0,27.098119,0,1 @ F,0,0,1,0,0,0,1 @ F,0,0,1,0,0,0,1 @ F,0,0,1,0,0,0,1 @ F,0,0,1,0,0,0,1 @ F,0,0,1,0,0,0,1 @ F,0,0,1,0,0,0,1 @ F,0,0,1,0,0,0,1 @ F,0,0,1,0,0,0,1 @ F,0,0,1,0,0,0,1 @ F,0,0,1,0,0,0,1 @ F,0,0,1,0,0,0,1 @ F,0,0,1,0,0,0,1 @ F,0,0,1,0,0,0,1 @ F,0,0,1,0,0,0,1 @ F,0,0,1,0,0,0,1 @ F,0,0,1,0,0,0,1 @ F,0,0,1,0,0,0,1 @ F,0,0,1,0,0,0,1 @ F,0,0,1,0,0,0,1 @ F,0,0,1,0,0,0,1 @ F,0,0,1,0,0,0,1 @ F,0,1,1,0,27.098119,0,1 @ F,0,1,1,0,27.098119,0,1 @ F,0,0,1,0,0,0,1 @ F,0,0,1,0,0,0,1 @ F,0,0,1,0,0,0,1 @ F,0,0,1,0,0,0,1 @ F,0,0,1,0,0,0,1 @ F,0,0,1,0,0,0,1 @ F,0,0,1,0,0,0,1 @ F,0,0,1,0,0,0,1 @ F,0,0,1,0,0,0,1 @ F,0,1,1,0,27.098119,0,1 @ F,0,1,1,0,27.098119,0,1 @ F,0,0,1,0,0,0,1 @ F,0,0,1,0,0,0,1 @ F,0,0,1,0,0,0,1 @ F,0,0,1,0,0,0,1 @ F,0,0,1,0,0,0,1 @ F,0,0,1,0,0,0,1 @ F,0,0,1,0,0,0,1 @ F,0,0,1,0,0,0,1 @ F,0,0,1,0,0,0,1 @ F,0,0,1,0,0,0,1 @ F,0,0,1,0,0,0,1 @ F,0,0,1,0,0,0,1 @ F,0,0,1,0,0,0,1 @ F,0,0,1,0,0,0,1 @ F,0,0,1,0,0,0,1 @ F,0,0,1,0,0,0,1 @ F,0,0,1,0,0,0,1 @ F,0,0,1,0,0,0,1"
   unit="px"
   method="auto"
   mode="F"
   radius="0"
   chamfer_steps="1"
   flexible="false"
   use_knot_distance="true"
   apply_no_radius="true"
   apply_with_radius="true"
   only_selected="true"
   hide_knots="false" /><inkscape:path-effect
   effect="fillet_chamfer"
   id="path-effect860"
   is_visible="true"
   lpeversion="1"
   satellites_param="F,0,0,1,0,0,0,1 @ F,0,0,1,0,0,0,1 @ F,0,0,1,0,0,0,1 @ F,0,0,1,0,0,0,1 @ F,0,0,1,0,0,0,1 @ F,0,0,1,0,0,0,1 @ F,0,0,1,0,0,0,1 @ F,0,0,1,0,0,0,1 @ F,0,0,1,0,0,0,1 @ F,0,0,1,0,0,0,1 @ F,0,0,1,0,0,0,1 @ F,0,0,1,0,0,0,1 @ F,0,0,1,0,0,0,1 @ F,0,0,1,0,0,0,1 @ F,0,0,1,0,0,0,1 @ F,0,0,1,0,0,0,1 @ F,0,0,1,0,0,0,1 @ F,0,0,1,0,0,0,1 @ F,0,0,1,0,0,0,1 @ F,0,0,1,0,0,0,1 @ F,0,0,1,0,0,0,1 @ F,0,0,1,0,0,0,1 @ F,0,0,1,0,0,0,1 @ F,0,0,1,0,0,0,1 @ F,0,0,1,0,0,0,1 @ F,0,0,1,0,0,0,1 @ F,0,0,1,0,0,0,1 @ F,0,0,1,0,0,0,1 @ F,0,0,1,0,0,0,1 @ F,0,0,1,0,0,0,1 @ F,0,0,1,0,0,0,1 @ F,0,0,1,0,0,0,1 @ F,0,0,1,0,0,0,1 @ F,0,0,1,0,0,0,1 @ F,0,0,1,0,0,0,1 @ F,0,0,1,0,0,0,1 @ F,0,0,1,0,0,0,1 @ F,0,0,1,0,0,0,1 @ F,0,0,1,0,0,0,1 @ F,0,0,1,0,0,0,1 @ F,0,0,1,0,0,0,1 @ F,0,0,1,0,32.664257,0,1 @ F,0,0,1,0,27.563817,0,1 @ F,0,0,1,0,0,0,1 @ F,0,0,1,0,0,0,1 @ F,0,0,1,0,0,0,1 @ F,0,0,1,0,0,0,1 @ F,0,0,1,0,0,0,1 @ F,0,0,1,0,0,0,1 @ F,0,0,1,0,0,0,1 @ F,0,0,1,0,0,0,1 @ F,0,0,1,0,0,0,1 @ F,0,0,1,0,0,0,1 @ F,0,0,1,0,0,0,1 @ F,0,0,1,0,0,0,1 @ F,0,0,1,0,0,0,1 @ F,0,0,1,0,0,0,1 @ F,0,0,1,0,0,0,1 @ F,0,0,1,0,0,0,1 @ F,0,0,1,0,0,0,1 @ F,0,0,1,0,0,0,1 @ F,0,0,1,0,0,0,1 @ F,0,0,1,0,0,0,1 @ F,0,0,1,0,0,0,1 @ F,0,0,1,0,0,0,1 @ F,0,0,1,0,0,0,1 @ F,0,0,1,0,35.378322,0,1 @ F,0,0,1,0,25.46422,0,1 @ F,0,0,1,0,0,0,1 @ F,0,0,1,0,0,0,1 @ F,0,0,1,0,0,0,1 @ F,0,0,1,0,0,0,1 @ F,0,0,1,0,0,0,1 @ F,0,0,1,0,0,0,1 @ F,0,0,1,0,0,0,1 @ F,0,0,1,0,0,0,1 @ F,0,0,1,0,0,0,1 @ F,0,0,1,0,23.93063,0,1 @ F,0,0,1,0,28.326092,0,1 @ F,0,0,1,0,0,0,1 @ F,0,0,1,0,0,0,1 @ F,0,0,1,0,0,0,1 @ F,0,0,1,0,0,0,1 @ F,0,0,1,0,0,0,1 @ F,0,0,1,0,0,0,1 @ F,0,0,1,0,0,0,1 @ F,0,0,1,0,0,0,1 @ F,0,0,1,0,0,0,1 | F,0,0,1,0,0,0,1 @ F,0,0,1,0,0,0,1 @ F,0,0,1,0,0,0,1 @ F,0,0,1,0,0,0,1 @ F,0,0,1,0,0,0,1 @ F,0,0,1,0,0,0,1 @ F,0,0,1,0,0,0,1 @ F,0,0,1,0,0,0,1 @ F,0,0,1,0,0,0,1 @ F,0,0,1,0,0,0,1 @ F,0,0,1,0,0,0,1"
   unit="px"
   method="auto"
   mode="F"
   radius="0"
   chamfer_steps="1"
   flexible="false"
   use_knot_distance="true"
   apply_no_radius="true"
   apply_with_radius="true"
   only_selected="true"
   hide_knots="true" /><inkscape:path-effect
   effect="spiro"
   id="path-effect870"
   is_visible="true"
   lpeversion="1" /><inkscape:path-effect
   effect="spiro"
   id="path-effect862"
   is_visible="true"
   lpeversion="1" /><inkscape:path-effect
   effect="spiro"
   id="path-effect1521"
   is_visible="true"
   lpeversion="1" /><inkscape:path-effect
   effect="spiro"
   id="path-effect858"
   is_visible="true"
   lpeversion="1" /><inkscape:path-effect
   effect="spiro"
   id="path-effect854"
   is_visible="true"
   lpeversion="1" />
  <style
   type="text/css"
   id="style2">
   <![CDATA[
    .fil0 {fill:#EF7F1A;fill-rule:nonzero}
   ]]>
  </style>
 <inkscape:path-effect
   effect="spiro"
   id="path-effect1214"
   is_visible="true"
   lpeversion="1" /><inkscape:path-effect
   effect="spiro"
   id="path-effect1195"
   is_visible="true"
   lpeversion="1" /><inkscape:path-effect
   effect="spiro"
   id="path-effect992"
   is_visible="true"
   lpeversion="1" /><inkscape:path-effect
   effect="spiro"
   id="path-effect287"
   is_visible="true"
   lpeversion="1" /><inkscape:path-effect
   effect="spiro"
   id="path-effect1032"
   is_visible="true"
   lpeversion="1" /><inkscape:path-effect
   effect="spiro"
   id="path-effect1218"
   is_visible="true"
   lpeversion="1" /><inkscape:path-effect
   effect="spiro"
   id="path-effect309"
   is_visible="true"
   lpeversion="1" /><inkscape:path-effect
   effect="spiro"
   id="path-effect1176"
   is_visible="true"
   lpeversion="1" /><inkscape:path-effect
   effect="spiro"
   id="path-effect1026"
   is_visible="true"
   lpeversion="1" /><inkscape:path-effect
   effect="spiro"
   id="path-effect1255"
   is_visible="true"
   lpeversion="1" /><inkscape:path-effect
   effect="spiro"
   id="path-effect1033"
   is_visible="true"
   lpeversion="1" /><inkscape:path-effect
   effect="spiro"
   id="path-effect461"
   is_visible="true"
   lpeversion="1" /></defs>
 
<path
   style="display:inline;fill:#1a1a1a;fill-rule:nonzero;stroke:none;stroke-width:1.8927px;stroke-linecap:butt;stroke-linejoin:miter;stroke-opacity:1"
   d="m 56.637104,488.58194 c 14.340214,-22.62716 32.369217,-42.91075 53.158266,-59.80588 15.79993,-12.84051 33.28261,-23.77635 52.2942,-31.06166 19.0116,-7.28532 39.60265,-10.84746 59.87657,-8.98076 21.31577,1.96263 41.91248,9.91846 59.65264,21.89762 17.74017,11.97917 32.66808,27.9024 44.42823,45.78851 23.5203,35.77221 34.15528,78.59479 38.9302,121.13954 4.5088,40.17358 4.01651,81.63824 -8.70855,120.00905 -6.36252,19.18541 -15.77816,37.44008 -28.46926,53.17213 -12.69111,15.73205 -28.70506,28.90063 -47.00718,37.47933 -19.90198,9.32859 -42.25573,13.08783 -64.1922,11.70852 -21.93647,-1.37931 -43.44341,-7.81724 -62.97867,-17.89123 C 114.55084,761.88915 84.04432,727.75498 61.76739,689.85797 19.63229,618.17868 5.0645689,532.21601 12.564132,449.40874 18.84895,380.01422 40.421184,311.54688 78.69738,253.32291 c 23.76239,-36.14624 54.29374,-68.53282 91.9119,-89.88875 37.61816,-21.35593 82.73452,-31.01406 125.01051,-21.85201 25.42395,5.50988 49.16151,17.57673 69.95707,33.20621 20.79556,15.62949 38.75864,34.76972 54.81487,55.23759 26.75031,34.10028 48.45961,72.14826 64.20553,112.52739 7.11826,-17.96326 18.81587,-34.09039 33.68081,-46.4347 14.86494,-12.34431 32.86648,-20.88028 51.83168,-24.57753 30.38579,-5.92369 63.06279,0.98665 88.44897,18.70467 25.38619,17.71801 43.14225,46.0069 48.06151,76.57138 8.45468,-69.73075 37.70608,-136.80759 83.05299,-190.45008 19.26936,-22.79441 41.65134,-43.39929 68.0006,-57.42105 26.34926,-14.02176 56.95328,-21.141726 86.43406,-16.47512 28.9589,4.584 55.45591,20.31945 76.03082,41.20737 20.5749,20.88791 35.572,46.72527 47.0032,73.72451 34.0745,80.48028 37.2676,171.1414 25.864,257.79071 -10.4978,79.76691 -33.1736,158.47158 -72.2278,228.81171 -16.1905,29.16055 -35.81408,57.48247 -63.45977,76.14222 -13.82284,9.32988 -29.53808,16.06069 -46.03462,18.5064 -16.49655,2.44572 -33.78025,0.48321 -48.86651,-6.62469 -12.55726,-5.91636 -23.36708,-15.2657 -31.70613,-26.36293 -8.33904,-11.09724 -14.25807,-23.9086 -18.11513,-37.24319 -7.71412,-26.66918 -7.22939,-54.98768 -5.16147,-82.67299 5.35228,-71.65628 21.68229,-144.30653 61.50984,-204.11485 19.91377,-29.90417 45.59847,-56.19574 76.13103,-75.13194 30.53257,-18.93621 65.99046,-30.34206 101.91556,-30.79091 36.9402,-0.46153 73.7325,10.71452 105.0121,30.37099 31.2796,19.65648 57.0767,47.60648 75.522,79.61525 36.8905,64.01753 43.5951,142.4029 29.5368,214.93924 -11.3463,58.54355 -35.7394,114.65312 -71.7583,162.17919 -36.0189,47.52607 -83.6929,86.32858 -138.0356,110.88371 -62.93868,28.43927 -134.53291,37.20964 -202.52755,25.26681 -14.73625,-2.58833 -26.66832,-17.88354 -26.90935,-32.84747 l -1.23932,-76.9427 c -0.24103,-14.96393 10.83061,-22.50394 25.21102,-18.38014 55.10501,15.8022 114.99632,14.85432 169.4566,-3.13579 50.2999,-16.61578 96.16,-47.86774 127.4892,-90.58362 31.3291,-42.71588 47.4546,-96.99635 41.4037,-149.62284 -4.8772,-42.41836 -24.477,-83.55591 -56.5896,-111.69636 -32.1126,-28.14045 -76.8971,-42.25669 -118.8854,-34.50493 -32.53366,6.00628 -62.2275,24.70288 -83.24071,50.25594 -21.01322,25.55305 -33.50676,57.64877 -37.27933,90.51641 -1.81048,15.77342 -1.62471,32.08886 3.55733,47.09637 2.59101,7.50375 6.42921,14.61234 11.58596,20.64787 5.15675,6.03552 11.65271,10.97835 18.99992,13.98472 11.38935,4.66035 24.48674,4.45515 36.12143,0.4464 11.63469,-4.00876 21.83619,-11.64542 29.84208,-20.9911 16.01182,-18.69138 23.08822,-43.29362 28.35692,-67.33495 13.6956,-62.49387 18.065,-127.68443 6.0381,-190.52078 -5.4395,-28.41951 -14.4682,-56.73867 -31.51692,-80.11809 -8.52437,-11.68971 -19.01486,-22.02423 -31.24074,-29.76 -12.22587,-7.73577 -26.21415,-12.82543 -40.63145,-14.03193 -14.22352,-1.19029 -28.66441,1.4141 -41.86406,6.84501 -13.19964,5.4309 -25.17625,13.63976 -35.51474,23.48054 -20.67698,19.68156 -34.57363,45.46646 -45.14857,71.98196 -27.85532,69.84413 -34.55655,146.84176 -28.20456,221.76688 4.43648,52.33064 15.10326,104.12866 31.67547,153.96307 4.72223,14.20024 -3.03064,24.70426 -17.96165,23.68324 l -77.74755,-5.31652 c -14.93101,-1.02102 -23.06069,-13.33167 -19.31799,-27.81865 7.07596,-27.38915 11.06937,-55.57523 11.85458,-83.85317 1.25805,-45.30629 -5.69109,-90.59503 -17.48842,-134.35649 -5.98766,-22.21086 -13.4704,-44.56429 -27.48926,-62.80287 -7.00943,-9.1193 -15.62695,-17.09437 -25.66689,-22.70626 -10.03993,-5.61189 -21.53674,-8.79794 -33.03121,-8.38467 -13.72359,0.49342 -27.02636,6.12996 -37.68642,14.78696 -10.66006,8.65699 -18.76296,20.21392 -24.36488,32.75182 -11.20384,25.0758 -12.49023,53.31692 -12.92747,80.77836 -0.85017,53.39679 0.8866,107.16488 11.82455,159.4363 2.80937,13.42572 6.22154,26.72523 10.22126,39.84561 4.36341,14.31339 -3.46736,25.40079 -18.42949,25.06584 l -88.67284,-1.98502 c -14.96213,-0.33495 -22.27758,-11.75434 -17.1775,-25.8225 12.60789,-34.77785 21.40498,-70.93753 26.15906,-107.62389 8.00779,-61.7947 4.41087,-125.44542 -14.00387,-184.97362 -18.3052,-59.17412 -53.02264,-115.54698 -106.03549,-147.5828 -15.56164,-9.40394 -32.5496,-16.60471 -50.36246,-20.25174 -17.81286,-3.64702 -36.46963,-3.67717 -54.06736,0.89653 -20.14902,5.23679 -38.5081,16.41106 -53.57691,30.77552 -15.06881,14.36446 -26.94905,31.8481 -36.26018,50.46824 -30.806686,61.60633 -33.141655,134.57877 -18.16433,201.81025 8.01878,35.99535 21.59366,72.22043 48.09633,97.86366 13.25133,12.82162 29.61372,22.66212 47.53664,26.99346 17.92292,4.33134 37.40827,2.93476 53.97129,-5.16819 12.13541,-5.93688 22.49276,-15.34228 29.90188,-26.63916 7.40912,-11.29688 11.89053,-24.44217 13.32158,-37.87596 2.8621,-26.86758 -6.60898,-54.26906 -23.1678,-75.62003 -14.41856,-18.59131 -34.26543,-33.06052 -56.63022,-40.36449 -22.36478,-7.30396 -47.17854,-7.28927 -69.28311,0.76802 -21.76589,7.93383 -40.61392,23.62369 -52.363761,43.58969 -11.749839,19.96599 -16.315021,44.0612 -12.683024,66.9415 z"
   id="use1033"
   sodipodi:nodetypes="casaaaaaaacacaaaaaaaaaaccaaaaassaaaccaaaaaccsaaaaaaaacc"
   inkscape:path-effect="#path-effect870;#path-effect861"
   inkscape:original-d="m 56.637104,488.58194 c 0,0 31.047924,-44.88856 53.158266,-59.80588 32.91124,-22.20443 78.03838,-44.56105 112.17077,-40.04242 57.87774,7.66217 132.46175,110.57699 143.01107,188.82567 10.10347,74.94164 -14.07979,182.31283 -84.18499,210.66051 C 206.59588,818.22179 111.79651,752.32637 61.76739,689.85797 10.626801,626.00175 7.5178838,531.06358 12.564132,449.40874 16.818916,380.56082 33.723542,305.62486 78.69738,253.32291 131.72832,191.65102 214.48477,135.85396 295.61979,141.58215 c 50.85309,3.59027 90.53529,50.67107 124.77194,88.4438 29.00217,31.99762 64.20553,112.52739 64.20553,112.52739 0,0 48.49372,-69.46244 85.51249,-71.01223 55.44181,-2.32108 106.56697,25.55412 136.51048,95.27605 0,0 34.947,-140.62666 83.05299,-190.45008 39.63932,-41.05448 98.02936,-82.567251 154.43466,-73.89617 55.46998,8.52729 98.13332,64.63685 123.03402,114.93188 38.3179,77.39554 34.7337,171.88575 25.864,257.79071 -8.2143,79.55738 -21.6498,166.85429 -72.2278,228.81171 -38.19162,46.78435 -101.66978,108.84444 -158.3609,88.02393 -48.89701,-17.95803 -62.7236,-94.76709 -54.98273,-146.27911 19.40796,-129.15134 109.06992,-315.51656 239.55643,-310.0377 128.8594,5.41056 215.3048,196.05871 210.0709,324.92548 -4.6581,114.68874 -109.0812,217.99788 -209.7939,273.0629 -67.21896,36.7522 -229.00048,19.51394 -229.00048,19.51394 l -2.11216,-131.1319 c 0,0 136.94211,34.73609 195.10404,5.57867 87.5003,-43.86512 181.7434,-143.17398 168.8929,-240.20646 -9.9954,-75.47414 -99.6107,-152.59303 -175.475,-146.20129 -61.55387,5.18605 -110.91287,79.75209 -120.52004,140.77235 -4.59188,29.16545 5.28263,75.50193 34.14321,81.72896 42.00516,9.06314 78.85043,-44.9692 94.32043,-87.87965 20.4673,-56.772 15.4504,-137.84442 6.0381,-190.52078 -9.462,-52.95412 -49.81336,-119.08248 -103.38911,-123.91002 -52.99326,-4.77505 -96.98098,55.63344 -122.52737,102.30751 -35.77771,65.36703 -31.80733,147.33628 -28.20456,221.76688 2.96634,61.28235 40.7488,179.49502 40.7488,179.49502 L 673.46915,756 c 0,0 18.69927,-72.64888 19.57157,-109.82311 1.05948,-45.15087 1.58617,-93.41894 -17.48842,-134.35649 -17.94316,-38.5093 -43.94553,-98.42709 -86.18736,-93.8938 -49.25627,5.28607 -63.8108,80.05329 -74.97877,128.31714 -12.01388,51.91955 2.42443,106.9805 11.82455,159.4363 4.00906,22.3719 18.8831,65.51792 18.8831,65.51792 L 402.23832,768 c 0,0 29.55103,-84.02794 36.07289,-132.83992 6.52202,-48.81223 7.15789,-126.87316 -14.00387,-184.97362 -20.73086,-56.91738 -54.89117,-115.12336 -106.03549,-147.5828 -29.89096,-18.9707 -70.36667,-29.00192 -104.42982,-19.35521 -38.8472,11.00155 -71.81597,45.11374 -89.83709,81.24376 -30.14696,60.44076 -44.66126,139.68267 -18.16433,201.81025 25.05383,58.74392 90.22433,143.19565 149.60426,119.68893 43.87486,-17.36873 45.20027,-100.20489 20.05566,-140.13515 -23.4447,-37.23076 -84.84725,-55.38761 -125.91333,-39.59647 -39.90187,15.34346 -82.219635,77.05512 -65.046785,110.53119 z" /></svg>
