<?xml version="1.0" encoding="UTF-8" standalone="no"?>
<svg
   xmlns:dc="http://purl.org/dc/elements/1.1/"
   xmlns:cc="http://creativecommons.org/ns#"
   xmlns:rdf="http://www.w3.org/1999/02/22-rdf-syntax-ns#"
   xmlns:svg="http://www.w3.org/2000/svg"
   xmlns="http://www.w3.org/2000/svg"
   xmlns:sodipodi="http://sodipodi.sourceforge.net/DTD/sodipodi-0.dtd"
   xmlns:inkscape="http://www.inkscape.org/namespaces/inkscape"
   xml:space="preserve"
   width="1000"
   height="1000"
   version="1.1"
   style="clip-rule:evenodd;fill-rule:evenodd;image-rendering:optimizeQuality;shape-rendering:geometricPrecision;text-rendering:geometricPrecision"
   viewBox="0 0 1000 1000"
   id="svg10"
   sodipodi:docname="ണ്ണൂ.svg"
   inkscape:version="1.0.2 (e86c870879, 2021-01-15)"><path
   style="clip-rule:evenodd;display:inline;fill:#1a1a1a;fill-rule:nonzero;stroke:none;stroke-width:1.8927px;stroke-linecap:butt;stroke-linejoin:miter;stroke-opacity:1;image-rendering:optimizeQuality;shape-rendering:geometricPrecision;text-rendering:geometricPrecision"
   d="m 46.03342,454.59676 c 11.127349,-17.20464 23.484945,-33.61344 36.94721,-49.05964 12.739325,-14.61672 26.55774,-28.44763 42.45756,-39.54424 15.89982,-11.09661 34.00473,-19.41186 53.18829,-22.22784 22.12587,-3.24789 45.08412,1.00225 65.23029,10.7097 20.14618,9.70744 37.52684,24.71591 51.22649,42.39139 27.39929,35.35095 39.74203,80.17011 45.60914,124.50957 5.48346,41.44009 5.71696,84.42007 -7.39915,124.11034 -6.55805,19.84513 -16.45171,38.68341 -29.88669,54.69398 -13.43499,16.01058 -30.46808,29.13981 -49.78941,37.10999 -19.16664,7.90637 -40.33808,10.62653 -60.97704,8.65076 -20.63896,-1.97578 -40.73746,-8.57934 -58.94473,-18.49731 C 97.280851,707.60754 69.027961,675.00955 48.59232,638.92816 7.7553478,566.82596 -3.4988812,481.29225 -0.61094,398.47893 1.7758932,330.03516 14.111492,259.75753 51.52231,202.3931 c 22.702546,-34.81128 54.42885,-63.95178 91.83372,-82.06548 37.40488,-18.11371 80.47071,-24.924748 121.36918,-17.5392 49.92609,9.01578 94.58051,38.5725 128.49145,76.30772 29.0862,32.36637 51.1408,71.01954 64.20553,112.52739 10.37454,-18.39222 25.59187,-34.02432 43.69852,-44.88958 18.10665,-10.86527 39.06014,-16.9382 60.17066,-17.43923 27.69694,-0.65734 55.52944,8.41966 77.51353,25.27945 21.98408,16.85979 37.96828,41.38622 44.516,68.3061 4.61166,-71.96601 32.78848,-142.23013 79.1772,-197.443 19.18673,-22.83647 41.65837,-43.329276 68.03152,-57.260951 26.37315,-13.931675 56.89824,-21.004837 86.40318,-16.635219 29.12168,4.312858 56.01985,19.61544 76.82597,40.442781 20.80613,20.827339 35.79253,46.953859 46.20803,74.489099 18.3888,48.61398 22.9027,101.61691 19.7591,153.49741 -3.1436,51.8805 -13.7137,102.99613 -24.7054,153.79624 -14.6979,67.92902 -30.2104,135.71991 -41.8402,204.24091 -4.10511,24.18665 -7.72481,48.45567 -10.8562,72.78755 l -95.5544,-93.97792 c 20.69251,-34.80941 38.47185,-71.34995 53.0912,-109.11435 26.96371,-69.65209 43.19207,-144.98727 34.3746,-219.15402 -3.09894,-26.06626 -9.48219,-52.2819 -23.5202,-74.46269 -7.01901,-11.0904 -15.92335,-21.05754 -26.56669,-28.73756 -10.64334,-7.68002 -23.0536,-13.02959 -36.05391,-14.83383 -14.20148,-1.97094 -28.85209,0.3293 -42.13424,5.72849 -13.28215,5.39918 -25.22559,13.82516 -35.43543,23.89124 -20.41966,20.13217 -33.7007,46.31457 -44.95773,72.68778 -29.81005,69.83964 -47.905,148.43131 -28.2045,221.76688 5.86973,21.85019 15.03398,42.80783 27.04598,61.97939 6.9924,11.16011 3.04661,18.78694 -10.09849,17.88805 l -84.2149,-5.75878 c -13.1451,-0.89889 -19.44424,-11.44166 -15.93238,-24.13072 3.96771,-14.33615 6.16253,-29.16371 6.48799,-44.03557 0.58992,-26.95602 -4.89444,-53.70789 -12.27377,-79.64089 -6.25227,-21.9722 -14.11335,-43.98447 -28.1442,-62.01233 -7.01542,-9.01393 -15.54654,-16.92944 -25.44044,-22.63715 -9.89389,-5.70771 -21.18084,-9.15677 -32.60272,-9.24432 -14.04325,-0.10764 -27.92463,4.91168 -39.24583,13.2216 -11.3212,8.30992 -20.13748,19.79277 -26.14444,32.4869 -12.0139,25.38825 -12.77091,54.70219 -9.5885,82.60864 2.36464,20.73547 6.76547,41.18891 11.82455,61.4363 3.58303,14.33996 7.4996,28.59658 11.74528,42.7545 3.78455,12.62022 -3.5406,22.52437 -16.7131,22.22949 l -95.15366,-2.1301 c -13.1725,-0.29488 -18.10284,-9.5733 -12.29233,-21.39275 13.79799,-28.06724 22.20585,-58.7874 24.5143,-89.9811 2.71913,-36.74323 -2.94149,-73.82988 -14.00387,-108.97362 -18.56484,-58.97808 -53.8853,-114.36496 -106.03549,-147.5828 -15.44251,-9.83634 -32.31364,-17.6821 -50.20859,-21.55451 -17.89496,-3.8724 -36.87067,-3.6473 -54.22123,2.1993 -18.07307,6.09007 -33.80066,18.06339 -46.25084,32.51047 -12.45017,14.44708 -21.79806,31.32441 -29.58625,48.73329 -28.855322,64.50005 -36.884006,137.58088 -26.34925,207.45151 4.837231,32.08241 13.939889,64.50996 33.92278,90.07095 9.99145,12.78049 22.64542,23.62225 37.30562,30.56837 14.6602,6.94612 31.3634,9.87592 47.37641,7.27718 15.77271,-2.55975 30.54164,-10.45789 41.85313,-21.7442 11.3115,-11.28632 19.18567,-25.8648 23.00609,-41.38045 3.82042,-15.51564 3.64124,-31.92789 0.0708,-47.50296 -3.57043,-15.57507 -10.48628,-30.31412 -19.68999,-43.37637 -10.0496,-14.26277 -23.01423,-26.69803 -38.53384,-34.67066 -15.51961,-7.97263 -33.69014,-11.26979 -50.75483,-7.63422 -12.61126,2.68678 -24.26907,9.03223 -34.21095,17.24331 -9.94187,8.21107 -18.24478,18.25324 -25.527,28.89429 -18.090089,26.43391 -30.153202,56.96663 -35.01536,88.62673 z"
   id="use1033"
   sodipodi:nodetypes="caaaaaaaaacacaaaaaccaaaaaccaaaaaccaaaaaaaaaacc"
   inkscape:path-effect="#path-effect873;#path-effect864"
   inkscape:original-d="m 46.03342,454.59676 c 0,0 21.95935,-35.11442 36.94721,-49.05964 27.78593,-25.853 58.00736,-66.6485 95.64585,-61.77208 79.48203,10.29764 147.86205,98.73301 162.06592,177.61066 13.75327,76.37533 -14.72509,187.84657 -87.07525,215.91431 C 182.949,764.70522 95.22543,698.68546 48.59232,638.92816 -1.73885,574.43203 -2.98369,480.25513 -0.61094,398.47893 1.35061,330.87477 8.11785,254.26045 51.52231,202.3931 101.8631,142.23699 186.38025,98.91298 264.72521,102.78842 c 49.75317,2.46111 93.57538,40.7788 128.49145,76.30772 30.26984,30.80114 64.20553,112.52739 64.20553,112.52739 0,0 63.55615,-64.62437 103.86918,-62.32881 51.17836,2.91428 92.08603,23.86362 122.02953,93.58555 0,0 30.6906,-145.702 79.1772,-197.443 39.0223,-41.6414 98.0294,-82.56725 154.4347,-73.89617 55.47,8.52729 101.093,63.277 123.034,114.93188 40.0512,94.29092 6.206,205.458 -4.9463,307.29365 -7.5653,69.08115 -29.7366,135.80888 -41.8402,204.24091 -4.2725,24.15597 -10.8562,72.78755 -10.8562,72.78755 l -95.5544,-93.97792 c 0,0 40.9752,-70.52327 53.0912,-109.11435 22.1495,-70.54919 51.7668,-147.28399 34.3746,-219.15402 -11.4564,-47.34159 -37.7967,-112.09085 -86.1408,-118.03408 -52.8104,-6.49229 -96.981,55.63344 -122.5274,102.30751 -35.7777,65.36703 -40.7072,148.30549 -28.2045,221.76688 5.0958,29.94105 40.7488,81.49502 40.7488,81.49502 l -131.81752,-9.01394 c 0,0 13.68087,-43.85879 14.35692,-66.53871 0.8003,-26.84845 -0.6444,-55.42856 -12.27377,-79.64089 -18.39391,-38.29605 -43.94553,-98.42709 -86.18736,-93.8938 -49.25627,5.28607 -66.6301,79.48659 -74.97877,128.31714 -3.51456,20.55634 6.96108,41.1567 11.82455,61.4363 5.30042,22.10158 18.8831,65.51792 18.8831,65.51792 l -142.8555,-3.19796 c 0,0 32.44856,-72.15527 36.07289,-110.83992 3.41624,-36.46356 -0.57566,-74.90097 -14.00387,-108.97362 -22.21039,-56.3565 -54.89117,-115.12336 -106.03549,-147.5828 -29.89096,-18.9707 -70.80504,-30.43362 -104.42982,-19.35521 -35.1857,11.59269 -60.1024,47.70508 -75.83709,81.24376 -29.60633,63.10626 -47.65704,141.08199 -26.34925,207.45151 17.77442,55.3638 62.00173,141.22714 118.60481,127.9165 52.08307,-12.24773 67.12042,-105.17876 45.24003,-154.00398 -13.4686,-30.05465 -56.54453,-45.84138 -89.28867,-42.30488 -25.01468,2.70168 -44.61754,26.02774 -59.73795,46.1376 -19.08931,25.38844 -27.73904,83.74103 -35.01536,88.62673 z" /><metadata
   id="metadata14"><rdf:RDF><cc:Work
       rdf:about=""><dc:format>image/svg+xml</dc:format><dc:type
         rdf:resource="http://purl.org/dc/dcmitype/StillImage" /><dc:title /></cc:Work></rdf:RDF></metadata><sodipodi:namedview
   pagecolor="#ffffff"
   bordercolor="#666666"
   borderopacity="1"
   objecttolerance="10"
   gridtolerance="10"
   guidetolerance="10"
   inkscape:pageopacity="0"
   inkscape:pageshadow="2"
   inkscape:window-width="1920"
   inkscape:window-height="1007"
   id="namedview12"
   showgrid="false"
   inkscape:zoom="0.9588368"
   inkscape:cx="630.83004"
   inkscape:cy="807.15719"
   inkscape:window-x="1920"
   inkscape:window-y="0"
   inkscape:window-maximized="1"
   inkscape:current-layer="svg10"
   showguides="true"
   inkscape:guide-bbox="true"
   inkscape:document-rotation="0"
   inkscape:snap-to-guides="true"><sodipodi:guide
     position="0,1000"
     orientation="0,1"
     id="guide16"
     inkscape:label=""
     inkscape:locked="true"
     inkscape:color="rgb(0,0,255)" /><sodipodi:guide
     position="1763.3122,2036.1693"
     orientation="1000,0"
     id="guide18" /><sodipodi:guide
     position="0,200"
     orientation="0,1"
     id="guide20"
     inkscape:label="base"
     inkscape:locked="true"
     inkscape:color="rgb(0,0,255)" /><inkscape:grid
     type="xygrid"
     id="grid24"
     originx="-473.37552"
     originy="-489.69235" /><sodipodi:guide
     position="0,0"
     orientation="0,1"
     id="guide34"
     inkscape:label="bottom"
     inkscape:locked="true"
     inkscape:color="rgb(0,0,255)" /><sodipodi:guide
     position="225.05109,1693.3186"
     orientation="0,1"
     id="guide44"
     inkscape:label=""
     inkscape:locked="false"
     inkscape:color="rgb(0,0,255)" /><sodipodi:guide
     position="0,900"
     orientation="0,1"
     id="guide46"
     inkscape:label=""
     inkscape:locked="true"
     inkscape:color="rgb(0,0,255)" /><sodipodi:guide
     position="1092.991,1000"
     orientation="-1,0"
     id="guide841"
     inkscape:label="width"
     inkscape:locked="false"
     inkscape:color="rgb(0,0,255)" /><sodipodi:guide
     position="1092.9909,1000"
     orientation="0,1000"
     id="guide860" /><sodipodi:guide
     position="1000.6357,438.41991"
     orientation="1000,0"
     id="guide862" /><sodipodi:guide
     position="1000,0"
     orientation="0,-1000"
     id="guide864" /><sodipodi:guide
     position="0,0"
     orientation="-1000,0"
     id="guide866" /></sodipodi:namedview>
 <defs
   id="defs4"><inkscape:path-effect
   effect="fillet_chamfer"
   id="path-effect876"
   is_visible="true"
   lpeversion="1"
   satellites_param="F,0,0,1,0,0,0,1 @ F,0,0,1,0,0,0,1 @ F,0,0,1,0,0,0,1 @ F,0,0,1,0,0,0,1 @ F,0,0,1,0,0,0,1 @ F,0,0,1,0,0,0,1 @ F,0,0,1,0,0,0,1 @ F,0,0,1,0,0,0,1 @ F,0,0,1,0,0,0,1 @ F,0,0,1,0,0,0,1 @ F,0,0,1,0,0,0,1 @ F,0,0,1,0,0,0,1 @ F,0,0,1,0,0,0,1 @ F,0,0,1,0,0,0,1 @ F,0,0,1,0,0,0,1 @ F,0,0,1,0,0,0,1 @ F,0,0,1,0,0,0,1 @ F,0,0,1,0,0,0,1 @ F,0,0,1,0,0,0,1 @ F,0,0,1,0,0,0,1 @ F,0,0,1,0,0,0,1 @ F,0,0,1,0,0,0,1 @ F,0,0,1,0,0,0,1 @ F,0,0,1,0,0,0,1 @ F,0,0,1,0,0,0,1 @ F,0,0,1,0,0,0,1 @ F,0,0,1,0,0,0,1 @ F,0,0,1,0,0,0,1 @ F,0,0,1,0,0,0,1 @ F,0,0,1,0,0,0,1 @ F,0,0,1,0,0,0,1 @ F,0,0,1,0,0,0,1 @ F,0,0,1,0,0,0,1 @ F,0,0,1,0,0,0,1 @ F,0,0,1,0,0,0,1 @ F,0,0,1,0,0,0,1 @ F,0,0,1,0,0,0,1 @ F,0,0,1,0,0,0,1 @ F,0,0,1,0,0,0,1 @ F,0,0,1,0,0,0,1 @ F,0,0,1,0,0,0,1 @ F,0,0,1,0,0,0,1 @ F,0,0,1,0,0,0,1 @ F,0,0,1,0,0,0,1 @ F,0,0,1,0,0,0,1 @ F,0,1,1,0,23.628615,0,1 @ F,0,1,1,0,23.628615,0,1 @ F,0,0,1,0,0,0,1 @ F,0,0,1,0,0,0,1 @ F,0,0,1,0,0,0,1 @ F,0,0,1,0,0,0,1 @ F,0,0,1,0,0,0,1 @ F,0,0,1,0,0,0,1 @ F,0,0,1,0,0,0,1 @ F,0,0,1,0,0,0,1 @ F,0,0,1,0,0,0,1 @ F,0,0,1,0,0,0,1 @ F,0,0,1,0,0,0,1 @ F,0,0,1,0,0,0,1 @ F,0,0,1,0,0,0,1 @ F,0,0,1,0,0,0,1 @ F,0,0,1,0,0,0,1 @ F,0,0,1,0,0,0,1 @ F,0,0,1,0,0,0,1 @ F,0,0,1,0,0,0,1 @ F,0,0,1,0,0,0,1 @ F,0,0,1,0,0,0,1 @ F,0,0,1,0,0,0,1 @ F,0,1,1,0,23.628615,0,1 @ F,0,1,1,0,23.628615,0,1 @ F,0,0,1,0,0,0,1 @ F,0,0,1,0,0,0,1 @ F,0,0,1,0,0,0,1 @ F,0,0,1,0,0,0,1 @ F,0,0,1,0,0,0,1 @ F,0,0,1,0,0,0,1 @ F,0,0,1,0,0,0,1 @ F,0,0,1,0,0,0,1 @ F,0,0,1,0,0,0,1 @ F,0,1,1,0,23.628615,0,1 @ F,0,1,1,0,23.628615,0,1 @ F,0,0,1,0,0,0,1 @ F,0,0,1,0,0,0,1 @ F,0,0,1,0,0,0,1 @ F,0,0,1,0,0,0,1 @ F,0,0,1,0,0,0,1 @ F,0,0,1,0,0,0,1 @ F,0,0,1,0,0,0,1 @ F,0,0,1,0,0,0,1 @ F,0,0,1,0,0,0,1 @ F,0,0,1,0,0,0,1"
   unit="px"
   method="auto"
   mode="F"
   radius="0"
   chamfer_steps="1"
   flexible="false"
   use_knot_distance="true"
   apply_no_radius="true"
   apply_with_radius="true"
   only_selected="true"
   hide_knots="false" /><inkscape:path-effect
   effect="spiro"
   id="path-effect873"
   is_visible="true"
   lpeversion="1" /><inkscape:path-effect
   effect="spiro"
   id="path-effect877"
   is_visible="true"
   lpeversion="1" /><inkscape:path-effect
   effect="spiro"
   id="path-effect870"
   is_visible="true"
   lpeversion="1" /><inkscape:path-effect
   effect="spiro"
   id="path-effect862"
   is_visible="true"
   lpeversion="1" /><inkscape:path-effect
   effect="spiro"
   id="path-effect1521"
   is_visible="true"
   lpeversion="1" /><inkscape:path-effect
   effect="spiro"
   id="path-effect858"
   is_visible="true"
   lpeversion="1" /><inkscape:path-effect
   effect="spiro"
   id="path-effect854"
   is_visible="true"
   lpeversion="1" />
  <style
   type="text/css"
   id="style2">
   <![CDATA[
    .fil0 {fill:#EF7F1A;fill-rule:nonzero}
   ]]>
  </style>
 <inkscape:path-effect
   effect="spiro"
   id="path-effect1214"
   is_visible="true"
   lpeversion="1" /><inkscape:path-effect
   effect="spiro"
   id="path-effect1195"
   is_visible="true"
   lpeversion="1" /><inkscape:path-effect
   effect="spiro"
   id="path-effect992"
   is_visible="true"
   lpeversion="1" /><inkscape:path-effect
   effect="spiro"
   id="path-effect287"
   is_visible="true"
   lpeversion="1" /><inkscape:path-effect
   effect="spiro"
   id="path-effect1032"
   is_visible="true"
   lpeversion="1" /><inkscape:path-effect
   effect="spiro"
   id="path-effect1218"
   is_visible="true"
   lpeversion="1" /><inkscape:path-effect
   effect="spiro"
   id="path-effect309"
   is_visible="true"
   lpeversion="1" /><inkscape:path-effect
   effect="spiro"
   id="path-effect1176"
   is_visible="true"
   lpeversion="1" /><inkscape:path-effect
   effect="spiro"
   id="path-effect1026"
   is_visible="true"
   lpeversion="1" /><inkscape:path-effect
   effect="spiro"
   id="path-effect1255"
   is_visible="true"
   lpeversion="1" /><inkscape:path-effect
   effect="spiro"
   id="path-effect1033"
   is_visible="true"
   lpeversion="1" /><inkscape:path-effect
   effect="spiro"
   id="path-effect461"
   is_visible="true"
   lpeversion="1" /><inkscape:path-effect
   effect="fillet_chamfer"
   id="path-effect864"
   is_visible="true"
   lpeversion="1"
   satellites_param="F,0,0,1,0,0,0,1 @ F,0,0,1,0,0,0,1 @ F,0,0,1,0,0,0,1 @ F,0,0,1,0,0,0,1 @ F,0,0,1,0,0,0,1 @ F,0,0,1,0,0,0,1 @ F,0,0,1,0,0,0,1 @ F,0,0,1,0,0,0,1 @ F,0,0,1,0,0,0,1 @ F,0,0,1,0,0,0,1 @ F,0,0,1,0,0,0,1 @ F,0,0,1,0,0,0,1 @ F,0,0,1,0,0,0,1 @ F,0,0,1,0,0,0,1 @ F,0,0,1,0,0,0,1 @ F,0,0,1,0,0,0,1 @ F,0,0,1,0,0,0,1 @ F,0,0,1,0,0,0,1 @ F,0,0,1,0,0,0,1 @ F,0,0,1,0,0,0,1 @ F,0,0,1,0,0,0,1 @ F,0,0,1,0,0,0,1 @ F,0,0,1,0,0,0,1 @ F,0,0,1,0,0,0,1 @ F,0,0,1,0,0,0,1 @ F,0,0,1,0,0,0,1 @ F,0,0,1,0,0,0,1 @ F,0,0,1,0,0,0,1 @ F,0,0,1,0,0,0,1 @ F,0,0,1,0,0,0,1 @ F,0,0,1,0,0,0,1 @ F,0,0,1,0,0,0,1 @ F,0,0,1,0,0,0,1 @ F,0,0,1,0,0,0,1 @ F,0,0,1,0,0,0,1 @ F,0,0,1,0,0,0,1 @ F,0,0,1,0,0,0,1 @ F,0,0,1,0,0,0,1 @ F,0,0,1,0,0,0,1 @ F,0,0,1,0,0,0,1 @ F,0,0,1,0,0,0,1 @ F,0,0,1,0,0,0,1 @ F,0,1,1,0,23.856893,0,1 @ F,0,1,1,0,23.856893,0,1 @ F,0,0,1,0,0,0,1 @ F,0,0,1,0,0,0,1 @ F,0,0,1,0,0,0,1 @ F,0,0,1,0,0,0,1 @ F,0,0,1,0,0,0,1 @ F,0,0,1,0,0,0,1 @ F,0,0,1,0,0,0,1 @ F,0,0,1,0,0,0,1 @ F,0,0,1,0,0,0,1 @ F,0,1,1,0,23.856893,0,1 @ F,0,1,1,0,23.856893,0,1 @ F,0,0,1,0,0,0,1 @ F,0,0,1,0,0,0,1 @ F,0,0,1,0,0,0,1 @ F,0,0,1,0,0,0,1 @ F,0,0,1,0,0,0,1 @ F,0,0,1,0,0,0,1 @ F,0,0,1,0,0,0,1 @ F,0,0,1,0,0,0,1 @ F,0,0,1,0,0,0,1 @ F,0,0,1,0,0,0,1 @ F,0,0,1,0,0,0,1 @ F,0,0,1,0,0,0,1 @ F,0,0,1,0,0,0,1 @ F,0,0,1,0,0,0,1 @ F,0,0,1,0,0,0,1 @ F,0,0,1,0,0,0,1 @ F,0,0,1,0,0,0,1 @ F,0,0,1,0,0,0,1 @ F,0,0,1,0,0,0,1 @ F,0,0,1,0,0,0,1"
   unit="px"
   method="auto"
   mode="F"
   radius="0"
   chamfer_steps="1"
   flexible="false"
   use_knot_distance="true"
   apply_no_radius="true"
   apply_with_radius="true"
   only_selected="true"
   hide_knots="false" /></defs>
 
<path
   style="clip-rule:evenodd;display:inline;fill:#1a1a1a;fill-rule:nonzero;stroke:none;stroke-width:1.17915px;stroke-linecap:butt;stroke-linejoin:miter;stroke-opacity:1;image-rendering:optimizeQuality;shape-rendering:geometricPrecision;text-rendering:geometricPrecision"
   d="m 475.1661,944.2508 c 15.41136,-5.47159 27.63288,-19.00789 31.78125,-34.82684 4.14837,-15.81895 0.21627,-33.47768 -10.03098,-46.22296 -8.09079,-10.06312 -19.80881,-17.00181 -32.38314,-19.93666 -12.57434,-2.93484 -25.93755,-1.95751 -38.19207,2.11115 -12.89289,4.28061 -24.63701,11.97003 -33.7161,22.07549 -9.07908,10.10546 -15.47158,22.60296 -18.35215,35.87897 l -13.54515,-76.37784 c 12.78303,-11.8143 27.02098,-22.05284 42.28964,-30.41057 17.91213,-9.80471 37.87035,-17.12003 58.27252,-16.26676 24.06438,1.00643 46.90259,13.68736 62.45741,32.07634 15.55483,18.38898 24.15237,42.0517 26.62664,66.00969 2.51287,24.33174 -1.201,49.59234 -12.65981,71.20354 -11.45881,21.61119 -30.98825,39.26938 -54.3733,46.44485 -21.85881,6.7072 -46.10595,3.98927 -66.81304,-5.70661 -20.70709,-9.69588 -37.94329,-26.03962 -50.41378,-45.20419 -13.72546,-21.0932 -21.86384,-45.53398 -25.50918,-70.43423 -3.64534,-24.90026 -2.90516,-50.29343 0.18087,-75.26917 4.9916,-40.39781 16.55927,-80.9265 40.66894,-113.72319 15.14244,-20.59845 35.18444,-37.80962 58.52172,-48.24805 23.33728,-10.43843 49.9994,-13.88386 74.92662,-8.20733 25.94054,5.90728 49.09483,21.38261 67.01904,41.04298 17.74904,19.46823 30.79293,43.19663 37.71859,68.61464 4.52839,-13.05195 13.49279,-24.51977 25.06542,-32.06523 11.57262,-7.54547 25.68217,-11.12208 39.45177,-10.0006 15.11249,1.23086 29.69417,8.14791 40.20791,19.07328 10.51374,10.92536 16.86598,25.7618 17.51584,40.9104 8.91497,-39.49221 30.19959,-76.09843 60.11132,-103.38212 11.728,-10.69758 24.8578,-20.05293 39.5108,-26.15814 14.65301,-6.10522 30.9179,-8.84964 46.58526,-6.29656 14.74517,2.4028 28.5169,9.41758 40.09895,18.8542 11.58205,9.43661 21.07155,21.23563 29.09554,33.83758 34.66209,54.43797 41.64733,123.56371 27.96534,186.63317 -6.73444,31.04354 -18.90665,62.13704 -42.07065,83.87373 -11.582,10.86834 -25.79746,19.12054 -41.27607,22.68088 -15.47862,3.56034 -32.21722,2.25638 -46.50528,-4.6801 -11.22535,-5.44962 -20.7212,-14.24079 -27.48828,-24.72475 -6.76708,-10.48396 -10.84334,-22.61622 -12.33558,-35.00493 -2.98449,-24.77741 4.31591,-49.97716 16.4929,-71.76128 14.98485,-26.80726 37.68807,-49.52719 65.29049,-62.99128 27.60241,-13.46409 60.08929,-17.31964 89.66358,-9.04097 28.9411,8.10143 54.2026,27.51749 71.2054,52.29911 17.0027,24.78162 25.9599,54.6597 27.4972,84.67401 1.312,25.61581 -2.6815,51.55993 -12.2492,75.35805 -9.5676,23.79812 -24.7494,45.4 -44.3273,61.9709 -30.92498,26.1752 -72.83415,38.6412 -113.06984,34.5826 -12.96927,-1.3082 -22.79474,-14.8399 -22.27908,-27.8795 l 0.78322,-19.805 c 0.51566,-13.0396 10.11124,-18.0309 22.56727,-14.2349 11.24893,3.4281 23.0737,4.973 34.82379,4.4753 19.62051,-0.8312 38.96677,-7.3553 55.08374,-18.5757 15.4392,-10.74862 27.8655,-25.75075 35.6653,-42.8699 7.7999,-17.11915 10.9663,-36.30593 9.2051,-55.03562 -1.847,-19.64216 -9.1249,-38.76613 -20.9288,-54.5742 -11.8038,-15.80808 -28.1123,-28.23951 -46.53884,-35.28841 -18.68652,-7.14834 -39.55682,-8.70438 -58.96918,-3.86239 -19.41236,4.842 -37.24341,16.14593 -49.47219,31.98076 -7.24253,9.37822 -12.60211,20.61863 -13.01107,32.46084 -0.20448,5.9211 0.85226,11.91611 3.3446,17.29101 2.49234,5.3749 6.44618,10.10764 11.45601,13.27038 6.87583,4.34076 15.51109,5.53564 23.48099,3.92322 7.96991,-1.61241 15.27003,-5.89565 21.10847,-11.55532 11.6769,-11.31933 17.31415,-27.42703 21.14834,-43.23134 7.68784,-31.68882 9.4085,-66.21695 -3.9989,-95.94111 -6.01601,-13.33748 -15.04575,-25.42078 -26.69497,-34.27383 -11.64921,-8.85305 -25.96312,-14.36834 -40.58975,-14.74558 -14.65095,-0.37787 -29.20806,4.38578 -41.51147,12.3494 -12.30342,7.96362 -22.42912,19.01772 -30.37361,31.33349 -13.70758,21.24988 -21.0427,46.24942 -23.1497,71.44894 -2.10699,25.19952 0.86624,50.6356 6.60244,75.26386 3.70749,15.91805 8.56969,31.56676 14.53038,46.78513 4.75828,12.14846 -1.17119,20.87004 -14.18229,19.86674 l -30.21816,-2.33014 c -13.0111,-1.0033 -20.28778,-11.92902 -18.0265,-24.77274 2.8807,-16.36185 3.62361,-33.10103 2.16865,-49.65119 -1.14495,-13.02384 -3.63081,-25.89387 -6.47869,-38.654 -3.15225,-14.12384 -6.88734,-28.45806 -14.91557,-40.49829 -4.01412,-6.02011 -9.0929,-11.39136 -15.18575,-15.2942 -6.09284,-3.90284 -13.22801,-6.29377 -20.46362,-6.32421 -9.00893,-0.0379 -17.84622,3.61516 -24.74552,9.40843 -6.8993,5.79327 -11.92851,13.62267 -15.12189,22.04672 -6.38678,16.8481 -5.55223,35.47361 -4.1216,53.43475 1.47313,18.49471 3.48682,36.9688 6.9373,55.1984 1.31044,6.92332 2.82766,13.80748 4.54855,20.64035 3.18653,12.6522 -4.04561,22.43689 -17.09118,22.10757 l -36.56918,-0.92314 c -13.04557,-0.32932 -19.09639,-10.19432 -14.88731,-22.54078 7.24148,-21.24133 11.45586,-43.51599 12.42967,-65.9375 1.05386,-24.2646 -1.67447,-48.70281 -8.21587,-72.0928 -4.71458,-16.85788 -11.44465,-33.24616 -21.02325,-47.89763 -9.57861,-14.65148 -22.07971,-27.54388 -37.10606,-36.52297 -19.45769,-11.62706 -43.56779,-16.29812 -65.34781,-10.01949 -13.08863,3.77312 -24.92919,11.3065 -34.70571,20.79167 -9.77651,9.48518 -17.55842,20.88367 -23.86733,32.95622 -17.85702,34.17068 -23.96023,74.43463 -16.54012,112.26915 4.20787,21.45558 13.07407,42.67817 29.03947,57.61652 7.9827,7.46917 17.65979,13.22235 28.21303,16.07564 10.55323,2.85329 21.98246,2.72982 32.28459,-0.92781 z"
   id="use1033-3"
   sodipodi:nodetypes="aaaccaaaaaaaaacacaaaaaaaaaccaaaaaaaaaaccaaaaaccaaaaaaa"
   inkscape:path-effect="#path-effect877;#path-effect876"
   inkscape:original-d="m 475.1661,944.2508 c 29.10388,-8.26075 37.16656,-57.05517 21.75027,-81.0498 -12.34627,-19.21633 -47.30715,-24.55759 -70.57521,-17.82551 -26.09399,7.5497 -52.06825,57.95446 -52.06825,57.95446 l -13.54515,-76.37784 c 0,0 26.38825,-22.81681 42.28964,-30.41057 17.99735,-8.59469 38.81354,-21.58408 58.27252,-16.26676 44.57771,12.18122 84.1473,55.85982 89.08405,98.08603 5.13844,43.95135 -21.11213,103.59491 -67.03311,117.64839 -41.02914,12.5564 -90.30351,-14.7471 -117.22682,-50.9108 -28.22016,-37.9057 -29.486,-96.4339 -25.32831,-145.7034 3.43372,-40.69 14.72729,-85.1756 40.66894,-113.72319 34.00202,-37.41764 86.05212,-60.16527 133.44834,-56.45538 25.36063,1.98508 49.2314,22.62304 67.01904,41.04298 18.5384,19.19738 37.71859,68.61464 37.71859,68.61464 0,0 38.26082,-44.83101 64.51719,-42.06583 28.96692,3.05065 40.15632,13.85818 57.72375,59.98368 0,0 31.16483,-78.23013 60.11132,-103.38212 23.96916,-20.8271 56.11433,-37.06999 86.09606,-32.4547 27.57584,4.24493 54.64373,28.70817 69.19449,52.69178 33.3272,54.93234 52.35785,127.92151 27.96534,186.63317 -20.2361,48.70747 -76.23421,119.74063 -129.852,101.87451 -45.7027,-15.22871 -45.34692,-91.89557 -23.33096,-131.49096 26.22988,-47.17406 98.92077,-85.57958 154.95407,-72.03225 57.8825,13.99443 92.067,82.66417 98.7026,136.97312 5.9386,48.60351 -18.6921,105.45585 -56.5765,137.32895 -35.6109,29.9604 -136.28261,30.3133 -136.28261,30.3133 l 2.6506,-67.0254 c 0,0 81.04469,14.7481 111.54111,-4.7251 31.7602,-20.28015 48.8283,-62.7158 44.8704,-97.90552 -4.0626,-36.12094 -30.0456,-77.52671 -67.46764,-89.86261 -35.34283,-11.65053 -86.18046,0.49001 -108.44137,28.11837 -13.64118,16.93027 -19.22859,54.43753 1.78954,63.02223 26.22185,10.71012 54.16088,-26.86914 65.7378,-50.86344 14.13197,-29.2899 11.80664,-67.3724 -3.9989,-95.94111 -12.9345,-23.37925 -38.61283,-47.89024 -67.28472,-49.01941 -28.76114,-1.13269 -56.48186,18.37659 -71.88508,43.68289 -24.73978,40.6455 -21.96716,97.7949 -16.54726,146.7128 2.69664,24.3389 23.90677,68.4685 23.90677,68.4685 l -77.33552,-5.9634 c 0,0 8.43308,-48.2464 7.70083,-72.6073 -0.39392,-13.1053 -1.26713,-26.9318 -6.47869,-38.654 -11.17053,-25.1255 -25.78223,-65.1158 -50.56494,-62.1167 -28.89797,3.4971 -38.38547,52.7315 -43.98901,84.8899 -3.17736,18.2346 3.49068,37.026 6.9373,55.1984 C 646.79335,933.3594 655.08307,962 655.08307,962 l -83.81136,-2.1157 c 0,0 19.31245,-57.93653 21.16345,-87.882 1.49105,-24.1222 0.0327,-49.7207 -8.21587,-72.0928 -12.12894,-32.8969 -30.75608,-66.6299 -58.12931,-84.4206 -19.04595,-12.37849 -44.18462,-16.72612 -65.34781,-10.01949 -24.23332,7.67959 -46.32705,31.08601 -58.57304,53.74789 -18.30029,33.86571 -30.91444,76.86122 -16.54012,112.26915 13.88377,34.1996 51.37589,83.5959 89.53709,72.76435 z" /></svg>
