<?xml version="1.0" encoding="UTF-8" standalone="no"?>
<svg
   xmlns:dc="http://purl.org/dc/elements/1.1/"
   xmlns:cc="http://creativecommons.org/ns#"
   xmlns:rdf="http://www.w3.org/1999/02/22-rdf-syntax-ns#"
   xmlns:svg="http://www.w3.org/2000/svg"
   xmlns="http://www.w3.org/2000/svg"
   xmlns:sodipodi="http://sodipodi.sourceforge.net/DTD/sodipodi-0.dtd"
   xmlns:inkscape="http://www.inkscape.org/namespaces/inkscape"
   xml:space="preserve"
   width="1000"
   height="1000"
   version="1.1"
   style="clip-rule:evenodd;fill-rule:evenodd;image-rendering:optimizeQuality;shape-rendering:geometricPrecision;text-rendering:geometricPrecision"
   viewBox="0 0 1000 1000"
   id="svg10"
   sodipodi:docname="ണ്ഠ.svg"
   inkscape:version="1.0.2 (e86c870879, 2021-01-15)"><metadata
   id="metadata14"><rdf:RDF><cc:Work
       rdf:about=""><dc:format>image/svg+xml</dc:format><dc:type
         rdf:resource="http://purl.org/dc/dcmitype/StillImage" /><dc:title /></cc:Work></rdf:RDF></metadata><sodipodi:namedview
   pagecolor="#ffffff"
   bordercolor="#666666"
   borderopacity="1"
   objecttolerance="10"
   gridtolerance="10"
   guidetolerance="10"
   inkscape:pageopacity="0"
   inkscape:pageshadow="2"
   inkscape:window-width="1920"
   inkscape:window-height="1007"
   id="namedview12"
   showgrid="false"
   inkscape:zoom="0.4794184"
   inkscape:cx="784.61579"
   inkscape:cy="559.21201"
   inkscape:window-x="1920"
   inkscape:window-y="0"
   inkscape:window-maximized="1"
   inkscape:current-layer="svg10"
   showguides="true"
   inkscape:guide-bbox="true"
   inkscape:document-rotation="0"
   inkscape:snap-to-guides="true"><sodipodi:guide
     position="0,1000"
     orientation="0,1"
     id="guide16"
     inkscape:label=""
     inkscape:locked="true"
     inkscape:color="rgb(0,0,255)" /><sodipodi:guide
     position="1763.3122,2036.1693"
     orientation="1000,0"
     id="guide18" /><sodipodi:guide
     position="0,200"
     orientation="0,1"
     id="guide20"
     inkscape:label="base"
     inkscape:locked="true"
     inkscape:color="rgb(0,0,255)" /><inkscape:grid
     type="xygrid"
     id="grid24"
     originx="-473.37552"
     originy="-489.69235" /><sodipodi:guide
     position="0,0"
     orientation="0,1"
     id="guide34"
     inkscape:label="bottom"
     inkscape:locked="true"
     inkscape:color="rgb(0,0,255)" /><sodipodi:guide
     position="225.05109,1693.3186"
     orientation="0,1"
     id="guide44"
     inkscape:label=""
     inkscape:locked="false"
     inkscape:color="rgb(0,0,255)" /><sodipodi:guide
     position="0,900"
     orientation="0,1"
     id="guide46"
     inkscape:label=""
     inkscape:locked="true"
     inkscape:color="rgb(0,0,255)" /><sodipodi:guide
     position="1120.2401,780.79512"
     orientation="-1,0"
     id="guide841"
     inkscape:label="width"
     inkscape:locked="false"
     inkscape:color="rgb(0,0,255)" /><sodipodi:guide
     position="1133.4574,1000"
     orientation="0,1000"
     id="guide860" /><sodipodi:guide
     position="1000,1000"
     orientation="1000,0"
     id="guide862" /><sodipodi:guide
     position="1000,0"
     orientation="0,-1000"
     id="guide864" /><sodipodi:guide
     position="0,0"
     orientation="-1000,0"
     id="guide866" /></sodipodi:namedview>
 <defs
   id="defs4"><inkscape:path-effect
   effect="fillet_chamfer"
   id="path-effect861"
   is_visible="true"
   lpeversion="1"
   satellites_param="F,0,0,1,0,0,0,1 @ F,0,0,1,0,0,0,1 @ F,0,0,1,0,0,0,1 @ F,0,0,1,0,0,0,1 @ F,0,0,1,0,0,0,1 @ F,0,0,1,0,0,0,1 @ F,0,0,1,0,0,0,1 @ F,0,0,1,0,0,0,1 @ F,0,0,1,0,0,0,1 @ F,0,0,1,0,0,0,1 @ F,0,0,1,0,0,0,1 @ F,0,0,1,0,0,0,1 @ F,0,0,1,0,0,0,1 @ F,0,0,1,0,0,0,1 @ F,0,0,1,0,0,0,1 @ F,0,0,1,0,0,0,1 @ F,0,0,1,0,0,0,1 @ F,0,0,1,0,0,0,1 @ F,0,0,1,0,0,0,1 @ F,0,0,1,0,0,0,1 @ F,0,0,1,0,0,0,1 @ F,0,0,1,0,0,0,1 @ F,0,0,1,0,0,0,1 @ F,0,0,1,0,0,0,1 @ F,0,0,1,0,0,0,1 @ F,0,0,1,0,0,0,1 @ F,0,0,1,0,0,0,1 @ F,0,0,1,0,0,0,1 @ F,0,0,1,0,0,0,1 @ F,0,0,1,0,0,0,1 @ F,0,0,1,0,0,0,1 @ F,0,0,1,0,0,0,1 @ F,0,0,1,0,0,0,1 @ F,0,0,1,0,0,0,1 @ F,0,0,1,0,0,0,1 @ F,0,0,1,0,0,0,1 @ F,0,0,1,0,0,0,1 @ F,0,0,1,0,0,0,1 @ F,0,1,1,0,21.482087,0,1 @ F,0,1,1,0,21.482087,0,1 @ F,0,0,1,0,0,0,1 @ F,0,0,1,0,0,0,1 @ F,0,0,1,0,0,0,1 @ F,0,0,1,0,0,0,1 @ F,0,0,1,0,0,0,1 @ F,0,0,1,0,0,0,1 @ F,0,0,1,0,0,0,1 @ F,0,0,1,0,0,0,1 @ F,0,0,1,0,0,0,1 @ F,0,1,1,0,21.482087,0,1 @ F,0,1,1,0,21.482087,0,1 @ F,0,0,1,0,0,0,1 @ F,0,0,1,0,0,0,1 @ F,0,0,1,0,0,0,1 @ F,0,0,1,0,0,0,1 @ F,0,0,1,0,0,0,1 @ F,0,0,1,0,0,0,1 @ F,0,0,1,0,0,0,1 @ F,0,0,1,0,0,0,1 @ F,0,0,1,0,0,0,1 @ F,0,1,1,0,21.482087,0,1 @ F,0,1,1,0,21.482087,0,1 @ F,0,0,1,0,0,0,1 @ F,0,0,1,0,0,0,1 @ F,0,0,1,0,0,0,1 @ F,0,0,1,0,0,0,1 @ F,0,0,1,0,0,0,1 @ F,0,0,1,0,0,0,1 @ F,0,0,1,0,0,0,1 @ F,0,0,1,0,0,0,1"
   unit="px"
   method="auto"
   mode="F"
   radius="0"
   chamfer_steps="1"
   flexible="false"
   use_knot_distance="true"
   apply_no_radius="true"
   apply_with_radius="true"
   only_selected="true"
   hide_knots="false" /><inkscape:path-effect
   effect="fillet_chamfer"
   id="path-effect860"
   is_visible="true"
   lpeversion="1"
   satellites_param="F,0,0,1,0,0,0,1 @ F,0,0,1,0,0,0,1 @ F,0,0,1,0,0,0,1 @ F,0,0,1,0,0,0,1 @ F,0,0,1,0,0,0,1 @ F,0,0,1,0,0,0,1 @ F,0,0,1,0,0,0,1 @ F,0,0,1,0,0,0,1 @ F,0,0,1,0,0,0,1 @ F,0,0,1,0,0,0,1 @ F,0,0,1,0,0,0,1 @ F,0,0,1,0,0,0,1 @ F,0,0,1,0,0,0,1 @ F,0,0,1,0,0,0,1 @ F,0,0,1,0,0,0,1 @ F,0,0,1,0,0,0,1 @ F,0,0,1,0,0,0,1 @ F,0,0,1,0,0,0,1 @ F,0,0,1,0,0,0,1 @ F,0,0,1,0,0,0,1 @ F,0,0,1,0,0,0,1 @ F,0,0,1,0,0,0,1 @ F,0,0,1,0,0,0,1 @ F,0,0,1,0,0,0,1 @ F,0,0,1,0,0,0,1 @ F,0,0,1,0,0,0,1 @ F,0,0,1,0,0,0,1 @ F,0,0,1,0,26.57703,0,1 @ F,0,0,1,0,39.403001,0,1 @ F,0,0,1,0,0,0,1 @ F,0,0,1,0,0,0,1 @ F,0,0,1,0,0,0,1 @ F,0,0,1,0,0,0,1 @ F,0,0,1,0,0,0,1 @ F,0,0,1,0,0,0,1 @ F,0,0,1,0,0,0,1 @ F,0,0,1,0,0,0,1 @ F,0,0,1,0,0,0,1 @ F,0,0,1,0,27.621521,0,1 @ F,0,0,1,0,28.942872,0,1 @ F,0,0,1,0,0,0,1 @ F,0,0,1,0,0,0,1 @ F,0,0,1,0,0,0,1 @ F,0,0,1,0,0,0,1 @ F,0,0,1,0,0,0,1 @ F,0,0,1,0,0,0,1 @ F,0,0,1,0,0,0,1 @ F,0,0,1,0,0,0,1 @ F,0,0,1,0,0,0,1 @ F,0,0,1,0,27.273074,0,1 @ F,0,0,1,0,28.677321,0,1 @ F,0,0,1,0,0,0,1 @ F,0,0,1,0,0,0,1 @ F,0,0,1,0,0,0,1 @ F,0,0,1,0,0,0,1 @ F,0,0,1,0,0,0,1 @ F,0,0,1,0,0,0,1 @ F,0,0,1,0,0,0,1 @ F,0,0,1,0,0,0,1 @ F,0,0,1,0,0,0,1 | F,0,0,1,0,0,0,1 @ F,0,0,1,0,0,0,1 @ F,0,0,1,0,0,0,1 @ F,0,0,1,0,0,0,1 @ F,0,0,1,0,0,0,1 @ F,0,0,1,0,0,0,1 @ F,0,0,1,0,0,0,1 @ F,0,0,1,0,0,0,1 @ F,0,0,1,0,0,0,1 @ F,0,0,1,0,0,0,1 @ F,0,0,1,0,0,0,1"
   unit="px"
   method="auto"
   mode="F"
   radius="0"
   chamfer_steps="1"
   flexible="false"
   use_knot_distance="true"
   apply_no_radius="true"
   apply_with_radius="true"
   only_selected="true"
   hide_knots="false" /><inkscape:path-effect
   effect="spiro"
   id="path-effect870"
   is_visible="true"
   lpeversion="1" /><inkscape:path-effect
   effect="spiro"
   id="path-effect862"
   is_visible="true"
   lpeversion="1" /><inkscape:path-effect
   effect="spiro"
   id="path-effect1521"
   is_visible="true"
   lpeversion="1" /><inkscape:path-effect
   effect="spiro"
   id="path-effect858"
   is_visible="true"
   lpeversion="1" /><inkscape:path-effect
   effect="spiro"
   id="path-effect854"
   is_visible="true"
   lpeversion="1" />
  <style
   type="text/css"
   id="style2">
   <![CDATA[
    .fil0 {fill:#EF7F1A;fill-rule:nonzero}
   ]]>
  </style>
 <inkscape:path-effect
   effect="spiro"
   id="path-effect1214"
   is_visible="true"
   lpeversion="1" /><inkscape:path-effect
   effect="spiro"
   id="path-effect1195"
   is_visible="true"
   lpeversion="1" /><inkscape:path-effect
   effect="spiro"
   id="path-effect992"
   is_visible="true"
   lpeversion="1" /><inkscape:path-effect
   effect="spiro"
   id="path-effect287"
   is_visible="true"
   lpeversion="1" /><inkscape:path-effect
   effect="spiro"
   id="path-effect1032"
   is_visible="true"
   lpeversion="1" /><inkscape:path-effect
   effect="spiro"
   id="path-effect1218"
   is_visible="true"
   lpeversion="1" /><inkscape:path-effect
   effect="spiro"
   id="path-effect309"
   is_visible="true"
   lpeversion="1" /><inkscape:path-effect
   effect="spiro"
   id="path-effect1176"
   is_visible="true"
   lpeversion="1" /><inkscape:path-effect
   effect="spiro"
   id="path-effect1026"
   is_visible="true"
   lpeversion="1" /><inkscape:path-effect
   effect="spiro"
   id="path-effect1255"
   is_visible="true"
   lpeversion="1" /><inkscape:path-effect
   effect="spiro"
   id="path-effect1033"
   is_visible="true"
   lpeversion="1" /><inkscape:path-effect
   effect="spiro"
   id="path-effect461"
   is_visible="true"
   lpeversion="1" /><inkscape:path-effect
   effect="spiro"
   id="path-effect852"
   is_visible="true"
   lpeversion="1" /></defs>
 
<path
   style="display:inline;fill:#1a1a1a;fill-rule:nonzero;stroke:none;stroke-width:1.8927px;stroke-linecap:butt;stroke-linejoin:miter;stroke-opacity:1"
   d="m 96.93791,587.30463 c 6.95137,20.51333 15.90433,40.52855 28.63973,58.0479 15.65978,21.54225 37.34369,39.16339 62.64817,47.46884 25.30448,8.30545 54.25716,6.66255 77.21906,-6.82998 23.29525,-13.68841 39.02345,-39.02948 42.18636,-65.86299 3.16291,-26.8335 -5.91152,-54.63321 -23.34492,-75.27582 -14.88061,-17.6199 -35.67857,-30.14957 -58.20809,-35.08048 -22.52953,-4.93092 -46.65601,-2.23574 -67.54712,7.53436 -22.93101,10.72409 -41.76861,29.94546 -52.02811,53.08806 -10.259508,23.14259 -11.853172,50.0085 -4.40159,74.2017 L 40.386584,517.33172 c 7.383729,-38.06402 29.791528,-73.00295 61.306326,-95.5907 31.5148,-22.58776 71.80036,-32.58335 110.21875,-27.34731 40.43096,5.51033 77.73787,27.3916 105.31633,57.46575 27.57847,30.07416 45.83076,67.9343 56.18354,107.40386 11.20109,42.70372 13.34375,88.56776 0.2385,130.72609 -13.10525,42.15833 -42.58092,80.15157 -82.85781,98.23041 -20.73654,9.30788 -43.77673,13.19348 -66.47588,12.01489 -22.69915,-1.1786 -45.04409,-7.35756 -65.49651,-17.27418 C 117.915,763.12731 85.2466,728.78468 61.76739,689.85797 18.802643,618.62574 5.2811758,532.27585 12.564132,449.40874 18.644705,380.22261 38.98936,311.64785 76.69738,253.32291 c 23.5074,-36.36011 54.06568,-68.83631 91.74862,-90.15885 37.68294,-21.32254 82.87504,-30.82693 125.17379,-21.58191 25.41062,5.55387 49.13578,17.62371 69.93295,33.24495 20.79716,15.62124 38.77372,34.74274 54.83899,55.19885 26.76987,34.08642 48.48149,72.13847 64.20553,112.52739 7.11554,-17.96491 18.81239,-34.09375 33.67774,-46.4384 14.86534,-12.34465 32.86843,-20.87955 51.83475,-24.57383 29.24949,-5.69724 60.63287,0.45809 85.56331,16.78182 24.93044,16.32374 43.12092,42.62794 49.59432,71.7155 10.56951,-67.41394 40.13305,-131.74569 84.40584,-183.67135 19.35503,-22.70069 41.73787,-43.26235 68.06577,-57.29017 26.32791,-14.02782 56.89387,-21.206167 86.36889,-16.606 28.98295,4.52337 55.52803,20.22214 76.12082,41.11251 20.5929,20.89036 35.5751,46.76535 46.9132,73.81937 41.2125,98.33799 34.9677,211.24353 5.412,313.69005 -26.244,90.96727 -70.3282,178.27521 -75.9504,272.78542 -0.93438,15.70709 -0.7827,31.4785 0.44896,47.16504 0.92852,11.82588 -6.28429,17.11636 -16.93763,11.89463 L 868.99877,809.45477 c -10.65334,-5.22173 -13.01402,-16.74775 -5.6288,-26.03238 43.97269,-55.28206 78.52969,-118.0456 101.66598,-184.78976 24.85415,-71.69989 36.52315,-148.83648 26.31365,-224.03202 -3.29376,-24.25929 -9.01001,-48.65155 -21.50992,-69.70183 -6.24995,-10.52515 -14.17632,-20.1177 -23.75136,-27.74391 -9.57505,-7.62621 -20.8272,-13.25095 -32.81853,-15.71034 -14.25093,-2.92283 -29.27354,-1.29783 -42.91762,3.74905 -13.64408,5.04689 -25.93531,13.42816 -36.2985,23.63778 -20.72637,20.41924 -33.48849,47.5338 -43.31125,74.92068 -25.34206,70.6563 -33.72377,146.90654 -28.20456,221.76688 4.00157,54.27559 15.23326,108.01171 33.27463,159.35626 3.93289,11.19276 -2.12128,19.4826 -13.95787,18.6732 l -88.95343,-6.08282 c -11.83659,-0.8094 -18.05845,-10.48756 -14.78389,-21.88842 6.23191,-21.69727 10.07398,-44.08136 11.41501,-66.61631 2.98711,-50.19625 -6.37148,-100.29533 -17.96914,-149.22467 -5.50932,-23.24326 -11.75759,-46.87505 -25.09914,-66.68931 -6.67077,-9.90712 -15.10204,-18.73425 -25.21117,-25.09474 -10.10914,-6.36048 -21.94526,-10.17796 -33.88792,-10.02551 -13.78866,0.17601 -27.25706,5.66557 -38.02145,14.2845 -10.76438,8.61894 -18.91557,20.23466 -24.4994,32.84335 -11.16766,25.21736 -12.17122,53.61122 -12.45792,81.18929 -0.55509,53.39455 0.95458,107.15695 11.82455,159.4363 3.17346,15.26282 7.13917,30.36081 11.87396,45.21362 3.60308,11.3027 -2.60631,20.08905 -14.46757,19.82352 l -99.90208,-2.2364 c -11.86126,-0.26553 -17.66389,-9.31641 -13.48956,-20.42106 13.67596,-36.38119 23.12895,-74.34979 28.08574,-112.89964 7.94543,-61.79302 4.21193,-125.39433 -14.00387,-184.97362 -9.06403,-29.64617 -21.74029,-58.34002 -39.27447,-83.90571 -17.53418,-25.56569 -40.03749,-47.96388 -66.76102,-63.67709 -31.24829,-18.37373 -69.04474,-27.22574 -104.42982,-19.35521 -21.56808,4.79728 -41.5872,15.60786 -58.41015,29.93211 -16.82296,14.32424 -30.52829,32.09147 -41.42694,51.31165 -17.567826,30.98152 -27.970476,65.90282 -31.00529,101.38905 -3.503169,40.96273 2.743539,82.48603 15.93826,121.42337 z"
   id="use1033"
   sodipodi:nodetypes="aaaaaccaaaaaaaacacaaaaaccaaaaaccaaaaaccaaaaaaa"
   inkscape:path-effect="#path-effect870;#path-effect861"
   inkscape:original-d="m 96.93791,587.30463 c 6.26123,20.64775 12.10421,44.18756 28.63973,58.0479 37.20803,31.18835 99.19437,67.15054 139.86723,40.63886 39.76234,-25.91818 46.07935,-102.26861 18.84144,-141.13881 C 259.66028,509.70972 196.81095,497.91276 158.5311,517.30646 117.12896,538.282 100.30606,617.43089 102.1014,644.59622 L 40.386584,517.33172 c 0,0 101.446596,-129.04509 171.525076,-122.93801 76.63966,6.67886 145.13346,89.70057 161.49987,164.86961 17.26112,79.27835 -8.18911,196.6587 -82.61931,228.9565 C 214.57421,821.29341 114.23555,754.27954 61.76739,689.85797 10.103739,626.42419 7.892977,531.08589 12.564132,449.40874 16.490654,380.75181 32.100523,305.6709 76.69738,253.32291 129.44451,191.4081 212.48477,135.85396 293.61979,141.58215 c 50.85309,3.59027 90.53529,50.67107 124.77194,88.4438 29.00217,31.99762 64.20553,112.52739 64.20553,112.52739 0,0 48.52073,-68.91438 85.51249,-71.01223 53.7646,-3.04905 105.21412,18.77539 135.15763,88.49732 0,0 37.133,-135.6586 84.40584,-183.67135 40.03854,-40.66522 98.02936,-82.567251 154.43466,-73.89617 55.47002,8.52729 100.23482,63.64999 123.03402,114.93188 42.4847,95.56043 18.6733,209.95535 5.412,313.69005 -11.9688,93.62518 -65.0875,179.02549 -75.9504,272.78542 -2.6306,22.70534 2.8009,68.51444 2.8009,68.51444 L 849.7092,800 c 0,0 91.10341,-127.90677 115.32675,-201.36737 C 988.5827,527.224 1009.481,447.57248 991.3496,374.60061 980.2991,330.12624 958.67613,267.63717 913.26979,261.44453 c -52.71991,-7.19009 -96.98098,55.63344 -122.52737,102.30751 -35.77771,65.36703 -31.80733,147.33628 -28.20456,221.76688 2.96634,61.28235 40.7488,179.49502 40.7488,179.49502 L 671.46915,756 c 0,0 16.80739,-57.43455 18.06316,-87.03917 2.12326,-50.05588 1.79085,-103.18511 -17.96914,-149.22467 -17.36898,-40.46864 -40.30442,-105.37686 -84.19823,-101.80956 -49.37631,4.01287 -63.8108,80.05329 -74.97877,128.31714 -12.01388,51.91955 2.42443,106.9805 11.82455,159.4363 4.00906,22.3719 18.8831,65.51792 18.8831,65.51792 L 400.23832,768 c 0,0 31.72978,-87.16239 36.07289,-132.83992 5.85294,-61.55669 7.15789,-126.87316 -14.00387,-184.97362 -20.73086,-56.91738 -54.89117,-115.12336 -106.03549,-147.5828 -29.89096,-18.9707 -70.12681,-28.11083 -104.42982,-19.35521 -41.57272,10.61115 -75.88606,45.64549 -99.83709,81.24376 -19.72845,29.32227 -28.07078,66.16979 -31.00529,101.38905 -3.38956,40.68068 4.09216,82.35833 15.93826,121.42337 z" /><path
   id="path882-0"
   style="clip-rule:evenodd;fill:#000000;fill-rule:evenodd;stroke:#000000;stroke-width:0.431332px;stroke-linecap:butt;stroke-linejoin:miter;stroke-opacity:1;image-rendering:optimizeQuality;shape-rendering:geometricPrecision;text-rendering:geometricPrecision"
   d="m 698.05266,1039.5628 c 39.76846,-0.6067 79.8257,-13.7427 110.01718,-39.63421 30.19149,-25.89156 49.61667,-64.94972 48.60062,-104.70982 -0.5265,-20.60299 -6.39023,-40.9841 -16.42646,-58.98506 -10.03623,-18.00095 -24.19359,-33.62261 -40.8081,-45.81762 -33.22901,-24.39004 -75.73934,-34.56295 -116.87792,-31.98259 -33.27237,2.08696 -66.37092,12.41074 -93.36605,31.97266 -26.99513,19.56192 -47.50165,48.6825 -54.15967,81.34864 -4.46674,21.91512 -2.6775,44.99225 4.55175,66.15737 7.22925,21.16511 19.82744,40.39892 35.92959,55.92132 32.20429,31.04481 77.81288,46.41161 122.53906,45.72931 z M 487.11747,872.93705 c 3.84099,-50.44233 23.44313,-99.99001 57.2426,-137.63012 33.79947,-37.64011 81.95803,-62.71362 132.42968,-66.14792 58.7962,-4.00074 118.14389,21.87839 157.93224,65.3512 39.78835,43.47282 60.2006,103.23154 59.00661,162.1516 -1.04627,51.63034 -18.48703,103.24149 -51.20665,143.19409 -32.71962,39.9527 -80.91434,67.5474 -132.28699,72.8045 -30.94998,3.1672 -62.622,-1.6535 -91.42914,-13.4043 -28.80714,-11.7507 -54.72291,-30.3702 -75.44549,-53.5759 -41.44516,-46.41153 -60.96725,-110.69955 -56.24286,-172.74315 z"
   sodipodi:nodetypes="aaaaaaaaaa"
   inkscape:path-effect="#path-effect852"
   inkscape:original-d="m 698.05266,1039.5628 c 71.58929,2.195 161.21217,-73.06508 158.6178,-144.34403 C 853.99277,821.6509 756.48008,758.83489 682.55798,758.4335 c -62.10373,-0.33722 -143.02944,51.63687 -147.52572,113.3213 -5.65811,77.62382 84.90474,165.4131 163.0204,167.808 z M 487.11747,872.93705 c 10e-4,-92.61802 96.66971,-203.21916 189.67228,-203.77804 105.01269,-0.63104 213.92553,122.96741 216.93885,227.5028 2.71738,94.26932 -88.81653,213.86249 -183.49364,215.99859 -109.37891,2.4675 -223.11893,-130.77071 -223.11749,-239.72335 z" /></svg>
