<?xml version="1.0" encoding="UTF-8" standalone="no"?>
<svg
   xmlns:dc="http://purl.org/dc/elements/1.1/"
   xmlns:cc="http://creativecommons.org/ns#"
   xmlns:rdf="http://www.w3.org/1999/02/22-rdf-syntax-ns#"
   xmlns:svg="http://www.w3.org/2000/svg"
   xmlns="http://www.w3.org/2000/svg"
   xmlns:sodipodi="http://sodipodi.sourceforge.net/DTD/sodipodi-0.dtd"
   xmlns:inkscape="http://www.inkscape.org/namespaces/inkscape"
   xml:space="preserve"
   width="1000"
   height="1000"
   version="1.1"
   style="clip-rule:evenodd;fill-rule:evenodd;image-rendering:optimizeQuality;shape-rendering:geometricPrecision;text-rendering:geometricPrecision"
   viewBox="0 0 1000 1000"
   id="svg10"
   sodipodi:docname="ണ്ണ.svg"
   inkscape:version="1.0.1 (3bc2e813f5, 2020-09-07)"><metadata
   id="metadata14"><rdf:RDF><cc:Work
       rdf:about=""><dc:format>image/svg+xml</dc:format><dc:type
         rdf:resource="http://purl.org/dc/dcmitype/StillImage" /><dc:title /></cc:Work></rdf:RDF></metadata><sodipodi:namedview
   pagecolor="#ffffff"
   bordercolor="#666666"
   borderopacity="1"
   objecttolerance="10"
   gridtolerance="10"
   guidetolerance="10"
   inkscape:pageopacity="0"
   inkscape:pageshadow="2"
   inkscape:window-width="1920"
   inkscape:window-height="1015"
   id="namedview12"
   showgrid="false"
   inkscape:zoom="0.9588368"
   inkscape:cx="550.02276"
   inkscape:cy="371.57528"
   inkscape:window-x="1920"
   inkscape:window-y="0"
   inkscape:window-maximized="1"
   inkscape:current-layer="svg10"
   showguides="true"
   inkscape:guide-bbox="true"
   inkscape:document-rotation="0"
   inkscape:snap-to-guides="true"><sodipodi:guide
     position="0,1000"
     orientation="0,1"
     id="guide16"
     inkscape:label=""
     inkscape:locked="true"
     inkscape:color="rgb(0,0,255)" /><sodipodi:guide
     position="1763.3122,2036.1693"
     orientation="1000,0"
     id="guide18" /><sodipodi:guide
     position="0,200"
     orientation="0,1"
     id="guide20"
     inkscape:label="base"
     inkscape:locked="true"
     inkscape:color="rgb(0,0,255)" /><inkscape:grid
     type="xygrid"
     id="grid24"
     originx="-473.37552"
     originy="-489.69235" /><sodipodi:guide
     position="0,0"
     orientation="0,1"
     id="guide34"
     inkscape:label="bottom"
     inkscape:locked="true"
     inkscape:color="rgb(0,0,255)" /><sodipodi:guide
     position="225.05109,1693.3186"
     orientation="0,1"
     id="guide44"
     inkscape:label=""
     inkscape:locked="false"
     inkscape:color="rgb(0,0,255)" /><sodipodi:guide
     position="0,900"
     orientation="0,1"
     id="guide46"
     inkscape:label=""
     inkscape:locked="true"
     inkscape:color="rgb(0,0,255)" /><sodipodi:guide
     position="1092.9909,1000"
     orientation="-1,0"
     id="guide841"
     inkscape:label=""
     inkscape:locked="false"
     inkscape:color="rgb(0,0,255)" /><sodipodi:guide
     position="1092.9909,1000"
     orientation="0,1"
     id="guide860"
     inkscape:label="width"
     inkscape:locked="false"
     inkscape:color="rgb(0,0,255)" /><sodipodi:guide
     position="1000,0"
     orientation="0,-1000"
     id="guide864" /><sodipodi:guide
     position="0,0"
     orientation="-1000,0"
     id="guide866" /></sodipodi:namedview>
 <defs
   id="defs4"><inkscape:path-effect
   effect="spiro"
   id="path-effect877"
   is_visible="true"
   lpeversion="1" /><inkscape:path-effect
   effect="spiro"
   id="path-effect870"
   is_visible="true"
   lpeversion="1" /><inkscape:path-effect
   effect="spiro"
   id="path-effect862"
   is_visible="true"
   lpeversion="1" /><inkscape:path-effect
   effect="spiro"
   id="path-effect1521"
   is_visible="true"
   lpeversion="1" /><inkscape:path-effect
   effect="spiro"
   id="path-effect858"
   is_visible="true"
   lpeversion="1" /><inkscape:path-effect
   effect="spiro"
   id="path-effect854"
   is_visible="true"
   lpeversion="1" />
  <style
   type="text/css"
   id="style2">
   <![CDATA[
    .fil0 {fill:#EF7F1A;fill-rule:nonzero}
   ]]>
  </style>
 <inkscape:path-effect
   effect="spiro"
   id="path-effect1214"
   is_visible="true"
   lpeversion="1" /><inkscape:path-effect
   effect="spiro"
   id="path-effect1195"
   is_visible="true"
   lpeversion="1" /><inkscape:path-effect
   effect="spiro"
   id="path-effect992"
   is_visible="true"
   lpeversion="1" /><inkscape:path-effect
   effect="spiro"
   id="path-effect287"
   is_visible="true"
   lpeversion="1" /><inkscape:path-effect
   effect="spiro"
   id="path-effect1032"
   is_visible="true"
   lpeversion="1" /><inkscape:path-effect
   effect="spiro"
   id="path-effect1218"
   is_visible="true"
   lpeversion="1" /><inkscape:path-effect
   effect="spiro"
   id="path-effect309"
   is_visible="true"
   lpeversion="1" /><inkscape:path-effect
   effect="spiro"
   id="path-effect1176"
   is_visible="true"
   lpeversion="1" /><inkscape:path-effect
   effect="spiro"
   id="path-effect1026"
   is_visible="true"
   lpeversion="1" /><inkscape:path-effect
   effect="spiro"
   id="path-effect1255"
   is_visible="true"
   lpeversion="1" /><inkscape:path-effect
   effect="spiro"
   id="path-effect1033"
   is_visible="true"
   lpeversion="1" /><inkscape:path-effect
   effect="spiro"
   id="path-effect461"
   is_visible="true"
   lpeversion="1" /></defs>
 
<path
   style="display:inline;fill:#1a1a1a;fill-rule:nonzero;stroke:none;stroke-width:1.8927px;stroke-linecap:butt;stroke-linejoin:miter;stroke-opacity:1"
   d="m 216.41584,338.08388 c 29.60441,6.61316 56.10364,24.06944 76.73834,46.30374 20.6347,22.2343 35.74572,49.09433 47.66295,76.98939 20.63749,48.30689 32.20618,101.90141 23.2483,153.66258 -4.47893,25.88058 -14.11942,50.99464 -29.18564,72.50916 -15.06622,21.51452 -35.64464,39.33532 -59.63787,50.02131 -20.73926,9.23675 -43.76389,13.046 -66.43336,11.8091 -22.66947,-1.23689 -44.97151,-7.45523 -65.39081,-17.37929 C 102.57916,712.15176 69.930624,677.93039 46.21709,639.20821 2.7061269,568.15852 -12.121647,481.57084 -2.986168,398.75898 4.7986392,328.19077 29.834463,258.92697 73.14708,202.67315 98.276049,170.036 129.67396,141.77062 166.4839,123.28611 c 36.80994,-18.4845 79.20754,-26.815525 119.86608,-20.21764 50.14667,8.13758 94.75006,38.32842 128.49145,76.30772 28.88985,32.51841 50.91001,71.11122 64.20553,112.52739 7.2068,-21.47467 21.42204,-40.53418 39.95047,-53.56479 18.52843,-13.03061 41.27209,-19.96343 63.91871,-19.48397 29.06724,0.61539 57.66519,13.66528 77.17818,35.21815 19.513,21.55286 29.66454,51.30331 27.39628,80.28844 11.56086,-76.82282 45.51751,-150.14046 96.63232,-208.64409 19.60685,-22.44109 41.95647,-42.938935 68.22004,-57.019254 26.26358,-14.080319 56.76429,-21.427619 86.21462,-16.87692 28.97935,4.477922 55.48479,20.258348 76.03032,41.180489 20.5455,20.922145 35.4953,46.780825 47.0037,73.751395 41.9515,98.31591 38.909,212.18191 5.412,313.69005 -13.9408,42.24568 -32.8619,82.66436 -48.4043,124.34739 -15.5424,41.68304 -27.79899,85.33876 -27.54608,129.82447 0.12564,22.09943 3.36149,44.17893 9.58248,65.38506 L 884.64256,713.42457 c 32.16749,-51.77541 58.03254,-107.46236 76.84309,-165.4417 23.39338,-72.10488 35.86263,-148.83108 26.31368,-224.03202 -3.09218,-24.3519 -8.65024,-48.87151 -21.15458,-69.99539 -6.25218,-10.56193 -14.2213,-20.17305 -23.86702,-27.7628 -9.64572,-7.58975 -20.99772,-13.12015 -33.05824,-15.39789 -14.1982,-2.68146 -29.08948,-0.78374 -42.55363,4.45989 -13.46416,5.24364 -25.53476,13.74273 -35.752,23.95974 -20.43447,20.43402 -33.24839,47.15396 -44.22174,73.88788 -14.40446,35.09299 -26.3648,71.38767 -32.27854,108.85811 -5.91374,37.47044 -5.64953,76.2419 4.07398,112.90877 7.83951,29.5624 21.80198,57.48645 40.7488,81.49502 l -131.81751,-9.01394 c 8.9556,-20.99797 13.85746,-43.71618 14.35692,-66.53871 0.58992,-26.95602 -4.89444,-53.70789 -12.27377,-79.64089 -6.25227,-21.9722 -14.11335,-43.98447 -28.1442,-62.01233 -7.01542,-9.01393 -15.54654,-16.92944 -25.44044,-22.63715 -9.89389,-5.70771 -21.18084,-9.15677 -32.60272,-9.24432 -14.04325,-0.10764 -27.92463,4.91168 -39.24583,13.2216 -11.3212,8.30992 -20.13748,19.79277 -26.14444,32.4869 -12.0139,25.38825 -12.77091,54.70219 -9.5885,82.60864 2.36464,20.73547 6.76547,41.18891 11.82455,61.4363 5.51075,22.05507 11.81048,43.913 18.8831,65.51792 l -142.8555,-3.19796 c 20.77215,-33.2908 33.2725,-71.7002 36.07289,-110.83992 2.62862,-36.73906 -3.19365,-73.76273 -14.00387,-108.97362 -9.09668,-29.62958 -21.79806,-58.30268 -39.33397,-83.85955 -17.53591,-25.55686 -40.01549,-47.95881 -66.70152,-63.72325 -31.22626,-18.44652 -69.07205,-27.42874 -104.42982,-19.35521 -21.50223,4.90978 -41.37085,15.90658 -58.10879,30.26948 -16.73795,14.36291 -30.44351,32.02421 -41.7283,50.97428 -18.624503,31.27534 -30.848539,66.3436 -35.701213,102.4195 10.321645,-27.90371 31.026753,-51.82935 57.159483,-66.05023 26.13274,-14.22089 57.46704,-18.614 86.50293,-12.12784 z m 33.47873,297.25775 c 11.61589,-6.32909 21.31322,-15.99401 28.131,-27.32998 6.81779,-11.33596 10.79021,-24.30178 12.01618,-37.47308 2.45192,-26.34261 -6.05656,-52.90521 -20.09152,-75.33209 -14.19916,-22.68926 -34.75548,-42.176 -60.01368,-51.03274 -12.6291,-4.42837 -26.28109,-6.1144 -39.54217,-4.31206 -13.26108,1.80234 -26.10028,7.15214 -36.35748,15.74833 -15.42175,12.92442 -24.28398,32.6381 -26.35373,52.65277 -2.06975,20.01468 2.21255,40.30307 9.69288,58.98236 10.44155,26.07383 27.78416,50.13572 52.02005,64.33052 12.11795,7.0974 25.82257,11.60857 39.8394,12.47245 14.01682,0.86388 28.32736,-1.98736 40.65907,-8.70648 z"
   id="use1033"
   sodipodi:nodetypes="aaaaaaaacacaaaaaccaaaaaccaaaaaccaaaaacaaaaaa"
   inkscape:path-effect="#path-effect870"
   inkscape:original-d="m 216.41584,338.08388 c 57.80103,8.22093 108.35773,67.15806 124.40129,123.29313 26.00256,90.98077 18.95839,233.67594 -65.57521,276.19305 C 201.01693,774.90233 98.68525,703.62978 46.21709,639.20821 -5.446564,575.77443 -9.870772,480.2794 -2.986168,398.75898 2.914276,328.89197 25.248553,253.87808 73.14708,202.67315 c 53.58565,-57.28464 134.85794,-103.480124 213.2029,-99.60468 49.75317,2.46111 93.57538,40.7788 128.49145,76.30772 30.26984,30.80114 64.20553,112.52739 64.20553,112.52739 0,0 61.80194,-77.73982 103.86918,-73.04876 51.61762,5.75605 74.63095,45.78466 104.57446,115.50659 0,0 42.77765,-154.10844 96.63232,-208.64409 40.09878,-40.605824 98.02936,-82.567255 154.43466,-73.896174 55.46998,8.52729 100.23482,63.649994 123.03402,114.931884 42.4847,95.56043 19.6489,210.08474 5.412,313.69005 -12.0378,87.60239 -69.55172,165.97806 -75.95038,254.17186 C 989.45924,756.58503 1000.6357,800 1000.6357,800 L 884.64256,713.42457 c 0,0 60.28054,-106.93533 76.84309,-165.4417 20.48086,-72.34759 44.44505,-151.06015 26.31368,-224.03202 -11.05055,-44.47437 -32.6735,-106.96344 -78.07984,-113.15608 -52.71991,-7.19009 -96.98098,55.63344 -122.52737,102.30751 -35.77771,65.36703 -40.70728,148.30549 -28.20456,221.76688 5.0958,29.94105 40.7488,81.49502 40.7488,81.49502 l -131.81751,-9.01394 c 0,0 13.68087,-43.85879 14.35692,-66.53871 0.80031,-26.84845 -0.64439,-55.42856 -12.27377,-79.64089 -18.39391,-38.29605 -43.94553,-98.42709 -86.18736,-93.8938 -49.25627,5.28607 -66.6301,79.48659 -74.97877,128.31714 -3.51456,20.55634 6.96108,41.1567 11.82455,61.4363 5.30042,22.10158 18.8831,65.51792 18.8831,65.51792 l -142.8555,-3.19796 c 0,0 32.44856,-72.15527 36.07289,-110.83992 3.41624,-36.46356 -0.57566,-74.90097 -14.00387,-108.97362 -22.21039,-56.3565 -54.89117,-115.12336 -106.03549,-147.5828 -29.89096,-18.9707 -70.12681,-28.11083 -104.42982,-19.35521 -41.57272,10.61115 -75.20293,46.11477 -99.83709,81.24376 -20.758044,29.60155 -35.701213,102.4195 -35.701213,102.4195 0,0 89.686813,-85.85492 143.662413,-78.17807 z m 33.47873,297.25775 c 41.92076,-21.66395 45.62197,-100.47357 20.05566,-140.13515 -25.56644,-39.6618 -96.17502,-65.04384 -135.91333,-39.59647 -31.68412,20.28967 -33.8337,78.15906 -16.66085,111.63513 22.66822,44.18856 88.39816,90.89716 132.51852,68.09649 z" /><path
   style="clip-rule:evenodd;display:inline;fill:#1a1a1a;fill-rule:nonzero;stroke:none;stroke-width:1.12644px;stroke-linecap:butt;stroke-linejoin:miter;stroke-opacity:1;image-rendering:optimizeQuality;shape-rendering:geometricPrecision;text-rendering:geometricPrecision"
   d="m 408.60256,775.6617 c 16.48049,2.36858 31.59267,11.28272 43.25015,23.17052 11.65749,11.8878 20.07533,26.62443 26.49115,41.98848 11.86844,28.42148 17.17223,60.47235 9.42595,90.28234 -3.87315,14.905 -11.0035,29.04072 -21.25241,40.53506 -10.24892,11.49434 -23.66007,20.27381 -38.50501,24.3711 -20.40436,5.6317 -42.77257,2.14505 -61.56405,-7.59837 -18.79148,-9.74343 -34.13407,-25.40251 -45.41631,-43.31243 -13.38992,-21.25574 -21.30242,-45.71175 -24.65216,-70.60905 -3.34975,-24.8973 -2.23264,-50.25727 1.53773,-75.09435 5.92928,-39.05882 18.64362,-77.52084 40.78175,-110.24165 13.15059,-19.43696 29.79904,-36.89633 50.25528,-48.39745 20.45623,-11.50113 44.96189,-16.67339 67.86116,-11.53947 24.38764,5.46761 45.03076,21.95204 61.1611,41.04298 14.65715,17.34735 26.33662,37.20405 34.37601,58.44389 2.59223,-14.54754 11.01892,-27.9706 22.99405,-36.62778 11.97514,-8.65718 27.36336,-12.45061 41.99016,-10.35121 16.60634,2.38352 31.95711,12.41487 40.80771,26.66683 8.85061,14.25196 11.03617,32.45903 5.81,48.40076 5.90801,-39.32647 25.60328,-76.44356 54.85716,-103.38212 10.71661,-9.86843 22.74081,-18.44355 36.05849,-24.34873 13.31768,-5.90518 27.97654,-9.07934 42.51216,-8.10597 15.76582,1.05575 31.03175,6.98843 44.00877,16.00356 12.97702,9.01513 23.7209,21.03403 32.16567,34.38923 17.49157,27.66251 25.09863,60.85938 25.03072,93.58803 -0.0679,32.72865 -7.50137,65.09836 -18.25227,96.01094 -19.93544,57.32132 -51.70686,112.30086 -53.85151,172.95196 -0.59207,16.7439 1.13981,33.5683 5.13049,49.8404 l -82.70778,-52.4061 c 25.61743,-41.83196 46.3827,-86.6326 61.74663,-133.2171 15.74851,-47.75057 25.81117,-99.3165 14.0885,-148.2114 -2.71315,-11.31645 -6.66031,-22.53232 -13.49238,-31.95282 -6.83208,-9.4205 -16.84284,-16.93716 -28.31204,-18.90707 -7.73994,-1.32938 -15.8225,-0.0803 -23.03857,3.01849 -7.21607,3.09876 -13.58671,7.99345 -18.87548,13.79888 -10.57753,11.61085 -16.72795,26.51827 -21.88264,41.35489 -14.71928,42.36616 -23.01612,87.79129 -16.90604,132.22343 3.27936,23.84732 10.69515,47.1202 21.81715,68.4685 l -77.52498,-2.84759 c 5.77805,-18.91182 8.79772,-38.66398 8.93393,-58.43831 0.12904,-18.73339 -2.30996,-37.38064 -4.86948,-55.9388 -1.86449,-13.51871 -3.89548,-27.34403 -10.31452,-39.38677 -3.20952,-6.02137 -7.51921,-11.51997 -12.96092,-15.63649 -5.44171,-4.11652 -12.05266,-6.8017 -18.86976,-7.09344 -7.23089,-0.30945 -14.46041,2.09449 -20.40255,6.22638 -5.94213,4.1319 -10.63147,9.92512 -13.95464,16.35458 -6.64633,12.85894 -7.83162,27.80985 -7.79452,42.28482 0.0648,25.26666 3.46432,50.43039 8.33858,75.22252 2.86261,14.5602 6.23541,29.02008 10.11012,43.3442 l -76.48565,-2.1157 c 11.60417,-27.83102 18.1794,-57.75003 19.31362,-87.882 0.91178,-24.22256 -1.67772,-48.56216 -7.49775,-72.0928 -4.0907,-16.53891 -9.81801,-32.7829 -18.42818,-47.48441 -8.61017,-14.7015 -20.20842,-27.84942 -34.62021,-36.93619 -17.56295,-11.07361 -39.66394,-15.69406 -59.63595,-10.01949 -12.59021,3.57721 -23.90628,11.05322 -32.89205,20.56982 -8.98576,9.5166 -15.71089,21.02145 -20.56129,33.17807 -6.05772,15.18255 -9.26597,31.49649 -9.4085,47.8423 6.24192,-10.98313 15.85129,-20.02196 27.19546,-25.58077 11.34418,-5.55882 24.37551,-7.61427 36.87995,-5.81713 z m 11.94961,168.5891 c 7.78885,-2.45187 14.8332,-7.15105 20.21456,-13.29261 5.38136,-6.14156 9.10099,-13.69884 10.84877,-21.67525 3.49556,-15.95282 -1.14408,-33.22487 -11.21419,-46.08194 -7.42983,-9.48608 -17.83004,-16.76836 -29.50813,-19.73659 -11.67809,-2.96824 -24.58423,-1.43402 -34.85582,4.86539 -10.01654,6.14299 -17.13741,16.55969 -20.01151,27.95297 -2.8741,11.39329 -1.64072,23.65188 2.68637,34.57633 4.74629,11.98278 13.31978,22.56537 24.52008,28.94248 11.20029,6.37711 25.02608,8.31921 37.31987,4.44922 z"
   id="use1033-3"
   sodipodi:nodetypes="aaaaaaaacacaaaaaccaaaaaccaaaaaccaaaaacaaaaaa"
   inkscape:path-effect="#path-effect877"
   inkscape:original-d="m 408.60256,775.6617 c 28.87969,4.8444 61.93613,30.4625 69.7413,65.159 12.07854,53.693 -8.98614,132.9229 -50.33147,155.1885 -35.03099,18.8651 -82.41034,-14.7471 -106.98036,-50.9108 -25.75352,-37.9057 -27.9501,-96.76659 -23.11443,-145.7034 3.85289,-38.99112 14.71838,-80.98668 40.78175,-110.24165 29.36953,-32.96599 74.04667,-62.61655 118.11644,-59.93692 24.50674,1.49012 43.71833,22.14263 61.1611,41.04298 14.65401,15.87854 34.37601,58.44389 34.37601,58.44389 0,0 38.75948,-52.14667 64.98421,-46.97899 28.89922,5.6947 46.61771,75.06759 46.61771,75.06759 0,0 28.4408,-78.23013 54.85716,-103.38212 21.87408,-20.8271 50.36554,-35.18114 78.57065,-32.4547 30.30356,2.92929 61.28429,23.83775 76.17444,50.39279 30.92985,55.16019 15.16823,126.91793 6.77845,189.59897 -8.01043,59.8469 -47.84528,112.87082 -53.85151,172.95196 -1.66132,16.6184 5.13049,49.8404 5.13049,49.8404 l -82.70778,-52.4061 c 0,0 48.77734,-84.6183 61.74663,-133.2171 12.60704,-47.2414 27.44236,-101.2844 14.0885,-148.2114 -6.48685,-22.7955 -19.91565,-49.28672 -41.80442,-50.85989 -28.70487,-2.06304 -50.52444,32.63654 -63.79669,58.17226 -20.49174,39.42595 -20.92849,87.97259 -16.90604,132.22343 2.16846,23.85513 21.81715,68.4685 21.81715,68.4685 l -77.52498,-2.84759 c 0,0 8.29486,-38.74292 8.93393,-58.43831 0.60699,-18.70694 1.39853,-38.30276 -4.86948,-55.9388 -8.37939,-23.57676 -17.12489,-62.36546 -42.1452,-62.1167 -25.78489,0.25636 -36.19958,39.77597 -42.15171,64.86578 -5.82324,24.54649 4.076,50.35748 8.33858,75.22252 C 577.13972,933.27839 584.74311,962 584.74311,962 l -76.48565,-2.1157 c 0,0 17.62441,-57.93653 19.31362,-87.882 1.36072,-24.1222 0.0298,-49.7207 -7.49775,-72.0928 -11.06878,-32.8969 -28.06778,-66.6299 -53.04839,-84.4206 -17.3812,-12.37849 -40.32257,-16.72612 -59.63595,-10.01949 -22.11516,7.67959 -41.19175,29.74479 -53.45334,53.74789 -7.08942,13.8781 -9.4085,47.8423 -9.4085,47.8423 0,0 41.30758,-35.2172 64.07541,-31.3979 z m 11.94961,168.5891 c 20.74055,-11.8304 31.71225,-56.9279 19.84914,-81.0498 -11.33481,-23.0477 -45.51035,-28.4597 -64.36395,-14.8712 -15.40108,11.1001 -24.50533,42.3639 -17.32514,62.5293 9.05925,25.4427 41.41552,45.0417 61.83995,33.3917 z" /></svg>
