<svg xmlns="http://www.w3.org/2000/svg" xmlns:dc="http://purl.org/dc/elements/1.1/" xmlns:ns1="http://sodipodi.sourceforge.net/DTD/sodipodi-0.dtd" xmlns:ns2="http://www.inkscape.org/namespaces/inkscape" xmlns:ns4="http://creativecommons.org/ns#" xmlns:rdf="http://www.w3.org/1999/02/22-rdf-syntax-ns#" xml:space="preserve" width="1000" height="1000" version="1.1" style="clip-rule:evenodd;fill-rule:evenodd;image-rendering:optimizeQuality;shape-rendering:geometricPrecision;text-rendering:geometricPrecision" viewBox="0 0 1000 1000" id="svg10" ns1:docname="ത.svg" ns2:version="1.1.1 (3bf5ae0d25, 2021-09-20)"><metadata id="metadata14"><rdf:RDF><ns4:Work rdf:about=""><dc:format>image/svg+xml</dc:format><dc:type rdf:resource="http://purl.org/dc/dcmitype/StillImage" /><dc:title /></ns4:Work></rdf:RDF></metadata><ns1:namedview pagecolor="#ffffff" bordercolor="#666666" borderopacity="1" objecttolerance="10" gridtolerance="10" guidetolerance="10" ns2:pageopacity="0" ns2:pageshadow="2" ns2:window-width="1920" ns2:window-height="1009" id="namedview12" showgrid="false" ns2:zoom="1.2005384" ns2:cx="636.79762" ns2:cy="713.01343" ns2:window-x="0" ns2:window-y="60" ns2:window-maximized="1" ns2:current-layer="svg10" showguides="true" ns2:guide-bbox="true" ns2:document-rotation="0" ns2:pagecheckerboard="0"><ns1:guide position="0,1000" orientation="0,1" id="guide16" ns2:label="" ns2:locked="true" ns2:color="rgb(0,0,255)" /><ns1:guide position="1763.3122,2036.1693" orientation="1000,0" id="guide18" /><ns1:guide position="0,200" orientation="0,1" id="guide20" ns2:label="base" ns2:locked="true" ns2:color="rgb(0,0,255)" /><ns2:grid type="xygrid" id="grid24" originx="-473.37552" originy="-489.69235" /><ns1:guide position="0,0" orientation="0,1" id="guide34" ns2:label="bottom" ns2:locked="true" ns2:color="rgb(0,0,255)" /><ns1:guide position="225.05109,1693.3186" orientation="0,1" id="guide44" ns2:label="" ns2:locked="false" ns2:color="rgb(0,0,255)" /><ns1:guide position="0,900" orientation="0,1" id="guide46" ns2:label="" ns2:locked="true" ns2:color="rgb(0,0,255)" /><ns1:guide position="601.58051,919.28149" orientation="1,0" id="guide841" ns2:label="width" />    </ns1:namedview>
 <defs id="defs4"><ns2:path-effect effect="fillet_chamfer" id="path-effect848" is_visible="true" lpeversion="1" satellites_param="F,0,0,1,0,0,0,1 @ F,0,0,1,0,0,0,1 @ F,0,0,1,0,0,0,1 @ F,0,0,1,0,0,0,1 @ F,0,0,1,0,0,0,1 @ F,0,0,1,0,0,0,1 @ F,0,0,1,0,0,0,1 @ F,0,0,1,0,0,0,1 @ F,0,0,1,0,0,0,1 @ F,0,0,1,0,0,0,1 @ F,0,0,1,0,0,0,1 @ F,0,0,1,0,0,0,1 @ F,0,0,1,0,0,0,1 @ F,0,0,1,0,0,0,1 @ F,0,0,1,0,0,0,1 @ F,0,0,1,0,0,0,1 @ F,0,0,1,0,0,0,1 @ F,0,0,1,0,0,0,1 @ F,0,0,1,0,0,0,1 @ F,0,0,1,0,15.084002,0,1 @ F,0,0,1,0,14.591014,0,1 @ F,0,0,1,0,0,0,1 @ F,0,0,1,0,0,0,1 @ F,0,0,1,0,0,0,1 @ F,0,0,1,0,0,0,1 @ F,0,0,1,0,0,0,1 @ F,0,0,1,0,0,0,1 @ F,0,0,1,0,0,0,1 @ F,0,0,1,0,0,0,1 @ F,0,0,1,0,0,0,1 @ F,0,0,1,0,0,0,1 @ F,0,0,1,0,0,0,1 @ F,0,0,1,0,0,0,1 @ F,0,0,1,0,0,0,1 @ F,0,0,1,0,0,0,1 @ F,0,0,1,0,0,0,1 @ F,0,0,1,0,0,0,1 @ F,0,0,1,0,0,0,1 @ F,0,0,1,0,0,0,1 @ F,0,0,1,0,0,0,1 @ F,0,0,1,0,0,0,1 @ F,0,0,1,0,0,0,1 @ F,0,0,1,0,0,0,1 @ F,0,0,1,0,0,0,1 @ F,0,0,1,0,0,0,1 @ F,0,0,1,0,16.822608,0,1 @ F,0,0,1,0,24.090679,0,1 @ F,0,0,1,0,0,0,1 @ F,0,0,1,0,0,0,1 @ F,0,0,1,0,0,0,1 @ F,0,0,1,0,0,0,1 @ F,0,0,1,0,0,0,1 @ F,0,0,1,0,0,0,1 @ F,0,0,1,0,0,0,1" unit="px" method="auto" mode="F" radius="0" chamfer_steps="1" flexible="false" use_knot_distance="true" apply_no_radius="true" apply_with_radius="true" only_selected="true" hide_knots="false" /><ns2:path-effect effect="spiro" id="path-effect851" is_visible="true" lpeversion="1" />
  <style type="text/css" id="style2">
   
    .fil0 {fill:#EF7F1A;fill-rule:nonzero}
   
  </style>
 <ns2:path-effect effect="spiro" id="path-effect1214" is_visible="true" lpeversion="1" /><ns2:path-effect effect="spiro" id="path-effect1195" is_visible="true" lpeversion="1" /><ns2:path-effect effect="spiro" id="path-effect992" is_visible="true" lpeversion="1" /><ns2:path-effect effect="spiro" id="path-effect1060" is_visible="true" lpeversion="1" /><ns2:path-effect effect="spiro" id="path-effect1047" is_visible="true" lpeversion="1" /><ns2:path-effect effect="spiro" id="path-effect1085" is_visible="true" lpeversion="1" /><ns2:path-effect effect="spiro" id="path-effect1286" is_visible="true" lpeversion="1" /><ns2:path-effect effect="spiro" id="path-effect1305" is_visible="true" lpeversion="1" /></defs>
 
<path id="path1210-6" style="display:inline;fill:#63452c;fill-rule:nonzero;stroke:none;stroke-width:2.22142px;stroke-linecap:butt;stroke-linejoin:miter;stroke-opacity:1" d="m 402.17114,447.66425 c 7.08759,39.61393 11.71769,80.01991 7.99705,120.09052 -3.72064,40.07061 -16.23039,80.02507 -40.68235,111.98753 -10.51038,13.73868 -23.19148,25.92393 -37.89768,35.03147 -14.70619,9.10754 -31.47884,15.07688 -48.73257,16.31313 -16.00106,1.14649 -32.22089,-1.79914 -47.00033,-8.03745 -14.77945,-6.2383 -28.12111,-15.7278 -39.23533,-27.29597 -22.22845,-23.13634 -35.18241,-54.17299 -39.91929,-85.90556 -5.58026,-37.38245 -0.34253,-75.4748 5.98385,-112.73824 7.63353,-44.96278 16.9259,-89.89552 33.24589,-132.48167 30.16739,-78.7202 83.60736,-146.99905 146.07663,-203.60763 16.14452,-14.62989 33.00985,-28.61697 51.6931,-39.82481 18.68324,-11.20785 39.30911,-19.60374 60.92157,-22.357096 28.91257,-3.683368 59.40863,3.321356 82.69358,20.851756 14.62342,11.00945 26.16907,25.85175 34.28172,42.2602 8.11266,16.40845 12.86504,34.35955 15.08901,52.52838 6.11803,49.98164 -6.623,100.14756 -19.55051,148.81453 -13.46891,50.70515 -27.26117,101.34081 -38.9513,152.48536 -11.91383,52.12323 -21.67654,105.20044 -20.62034,158.65748 0.74498,37.70517 6.92046,75.29699 18.24943,111.26675 2.50247,7.94538 -1.88922,13.40938 -10.14761,12.31436 L 397.29863,782.32244 c -7.98848,-1.05923 -12.64598,-8.19237 -10.36609,-15.92152 7.02101,-23.80221 14.30035,-47.52822 21.83633,-71.17243 16.02231,-50.27018 33.20374,-100.16793 48.90411,-150.53959 10.55961,-33.87852 20.44872,-67.9706 29.30428,-102.33393 8.51789,-33.05304 16.12708,-67.29827 11.21809,-101.07636 -3.54054,-24.36199 -14.05402,-48.24357 -32.25377,-64.821 -13.57782,-12.3675 -31.23029,-20.30582 -49.53976,-21.74662 -17.68489,-1.39165 -35.51026,3.19881 -51.3684,11.14938 -15.85813,7.95056 -29.88706,19.15517 -42.72526,31.39741 -37.67955,35.93043 -65.8566,81.38838 -83.32076,130.4368 -11.16704,31.36283 -18.05674,64.27963 -19.94386,97.51769 -1.1854,20.87851 -0.26868,42.47704 8.22019,61.58873 4.24444,9.55584 10.38365,18.35077 18.3778,25.09042 7.99415,6.73965 17.88841,11.35714 28.28711,12.45088 9.77367,1.028 19.77298,-1.07592 28.57969,-5.4375 8.80671,-4.36158 16.44062,-10.92307 22.55464,-18.61724 12.22804,-15.38834 18.23291,-34.84203 21.51788,-54.22075 6.77502,-39.96722 2.9307,-81.45213 -9.17604,-120.13942 -12.43441,-39.73435 -33.69875,-76.89368 -62.96796,-106.50358 -13.89074,-14.05243 -29.75836,-26.51406 -47.99478,-34.1204 -18.23641,-7.60634 -39.05,-10.06856 -57.93687,-4.26256 -20.52853,6.31066 -37.32522,21.92498 -48.41104,40.31925 -11.08582,18.39428 -16.95754,39.46785 -20.853819,60.58807 -9.140779,49.54862 -8.002762,100.75956 1.093449,150.31638 15.34066,83.57702 52.61871,161.20606 86.3024,239.218 5.7675,13.35762 11.43928,26.75657 17.01476,40.19547 3.56031,8.58162 -1.07471,16.45182 -10.29965,17.55671 L 54.14859,845.9072 c -13.210499,1.58223 -20.567611,-7.39506 -17.136688,-20.24861 4.997808,-18.7237 8.884502,-37.74403 11.629471,-56.9279 C 68.580695,629.37994 28.033195,489.42545 13.101344,349.44956 9.8737018,319.19262 7.8457497,288.61744 11.101251,258.36349 c 3.283695,-30.51596 12.15815,-60.83639 29.078618,-86.44311 14.892688,-22.53797 36.516724,-41.35554 62.380851,-49.15291 27.77132,-8.37234 58.01582,-3.51524 85.27409,6.40087 63.02085,22.92594 114.35202,71.97367 148.9315,129.43223 34.57948,57.45856 53.59398,123.05057 65.40483,189.06368 z" ns1:nodetypes="aaacaaaaaaaaaccaaaaaaaaaaaaaaaaaccaaaaaaa" ns2:original-d="m 402.17114,447.66425 c 18.02515,76.28638 13.29086,165.82562 -32.6853,232.07805 -18.26618,26.32183 -52.22679,54.99263 -86.63025,51.3446 -61.30481,-6.50064 -117.08592,-57.90829 -126.15495,-121.23898 -4.96717,-37.47677 0.35944,-75.45418 5.98385,-112.73824 6.76613,-44.85243 14.09619,-91.17485 33.24589,-132.48167 35.1322,-75.78185 83.63708,-148.12372 146.07663,-203.60763 32.05387,-28.48313 70.08905,-56.67635 112.61467,-62.181906 28.19206,-3.649867 60.87961,4.258636 82.69358,20.851756 29.6906,22.5846 43.18124,60.3761 49.37073,94.78858 8.86938,49.31228 -10.05933,99.59488 -19.55051,148.81453 -9.9076,51.37927 -29.07934,101.10061 -38.9513,152.48536 -10.08105,52.47315 -22.01599,105.34513 -20.62034,158.65748 1.11364,42.53971 8.49562,95.16758 23.05495,125.56382 L 382.83421,780.40453 c 33.81688,-30.71216 17.02696,-56.86538 25.93466,-85.17604 15.83552,-50.32882 33.48859,-100.08055 48.90411,-150.53959 10.36705,-33.93407 22.45607,-67.6587 29.30428,-102.33393 6.58485,-33.34175 17.24519,-67.65037 11.21809,-101.07636 -4.20986,-23.34751 -13.90813,-47.78591 -32.25377,-64.821 -12.76004,-11.84848 -31.5058,-21.84594 -49.53976,-21.74662 -34.42145,0.18958 -68.06814,20.01805 -94.09366,42.54679 -39.00773,33.76665 -63.94035,82.62269 -83.32076,130.4368 -12.46338,30.74887 -24.96634,64.7213 -19.94386,97.51769 5.71748,37.33472 17.39243,94.56159 54.8851,99.13003 35.33732,4.30582 60.91608,-44.66702 72.65221,-78.27549 13.24094,-37.91772 2.88802,-81.83102 -9.17604,-120.13942 -12.38808,-39.33728 -31.21919,-80.18054 -62.96796,-106.50358 -28.91214,-23.97118 -70.17413,-49.86901 -105.93165,-38.38296 -38.84272,12.47708 -57.40741,62.89226 -69.264859,100.90732 -15.054426,48.26456 -7.717135,100.99029 1.093449,150.31638 14.90561,83.44909 55.49407,160.24474 86.3024,239.218 7.32568,18.77845 -0.1991,36.74082 23.41834,55.75161 L 30.228866,848.77209 C 53.610163,816.89798 46.705475,796.03945 48.641373,768.73069 58.559522,628.82023 20.56792,489.51225 13.101344,349.44956 11.484686,319.12328 6.4873781,288.44985 11.101251,258.36349 15.67284,228.55287 22.011503,197.24776 40.179869,171.92038 55.143242,151.06089 76.24619,130.54641 102.56072,122.76747 c 27.08294,-8.00609 61.05248,-7.06993 85.27409,6.40087 117.6677,65.44058 185.69234,197.26846 214.33633,318.49591 z" ns2:path-effect="#path-effect1305;#path-effect848" /><text text-anchor="middle" x="593.82227" y="795.38605" id="right" ns2:label="right" style="clip-rule:evenodd;fill-rule:evenodd;image-rendering:optimizeQuality;shape-rendering:geometricPrecision;text-rendering:geometricPrecision">✛</text></svg>