<?xml version="1.0" encoding="UTF-8" standalone="no"?>
<svg
   xmlns:dc="http://purl.org/dc/elements/1.1/"
   xmlns:cc="http://creativecommons.org/ns#"
   xmlns:rdf="http://www.w3.org/1999/02/22-rdf-syntax-ns#"
   xmlns:svg="http://www.w3.org/2000/svg"
   xmlns="http://www.w3.org/2000/svg"
   xmlns:sodipodi="http://sodipodi.sourceforge.net/DTD/sodipodi-0.dtd"
   xmlns:inkscape="http://www.inkscape.org/namespaces/inkscape"
   xml:space="preserve"
   width="1000"
   height="1000"
   version="1.1"
   style="clip-rule:evenodd;fill-rule:evenodd;image-rendering:optimizeQuality;shape-rendering:geometricPrecision;text-rendering:geometricPrecision"
   viewBox="0 0 1000 1000"
   id="svg10"
   sodipodi:docname="ത്ഭു.svg"
   inkscape:version="1.0.1 (3bc2e813f5, 2020-09-07)"><metadata
   id="metadata14"><rdf:RDF><cc:Work
       rdf:about=""><dc:format>image/svg+xml</dc:format><dc:type
         rdf:resource="http://purl.org/dc/dcmitype/StillImage" /><dc:title /></cc:Work></rdf:RDF></metadata><sodipodi:namedview
   pagecolor="#ffffff"
   bordercolor="#666666"
   borderopacity="1"
   objecttolerance="10"
   gridtolerance="10"
   guidetolerance="10"
   inkscape:pageopacity="0"
   inkscape:pageshadow="2"
   inkscape:window-width="1920"
   inkscape:window-height="1015"
   id="namedview12"
   showgrid="false"
   inkscape:zoom="1.2005384"
   inkscape:cx="533.65807"
   inkscape:cy="723.83018"
   inkscape:window-x="1920"
   inkscape:window-y="0"
   inkscape:window-maximized="1"
   inkscape:current-layer="svg10"
   showguides="true"
   inkscape:guide-bbox="true"
   inkscape:document-rotation="0"><sodipodi:guide
     position="0,1000"
     orientation="0,1"
     id="guide16"
     inkscape:label=""
     inkscape:locked="true"
     inkscape:color="rgb(0,0,255)" /><sodipodi:guide
     position="1035.938,422.80095"
     orientation="-1,0"
     id="guide18"
     inkscape:label="width"
     inkscape:locked="false"
     inkscape:color="rgb(0,0,255)" /><sodipodi:guide
     position="0,200"
     orientation="0,1"
     id="guide20"
     inkscape:label="base"
     inkscape:locked="true"
     inkscape:color="rgb(0,0,255)" /><inkscape:grid
     type="xygrid"
     id="grid24"
     originx="-473.37552"
     originy="-489.69235" /><sodipodi:guide
     position="0,0"
     orientation="0,1"
     id="guide34"
     inkscape:label="bottom"
     inkscape:locked="true"
     inkscape:color="rgb(0,0,255)" /><sodipodi:guide
     position="225.05109,1693.3186"
     orientation="0,1"
     id="guide44"
     inkscape:label=""
     inkscape:locked="false"
     inkscape:color="rgb(0,0,255)" /><sodipodi:guide
     position="0,900"
     orientation="0,1"
     id="guide46"
     inkscape:label=""
     inkscape:locked="true"
     inkscape:color="rgb(0,0,255)" /></sodipodi:namedview>
 <defs
   id="defs4"><inkscape:path-effect
   effect="spiro"
   id="path-effect851"
   is_visible="true"
   lpeversion="1" />
  <style
   type="text/css"
   id="style2">
   <![CDATA[
    .fil0 {fill:#EF7F1A;fill-rule:nonzero}
   ]]>
  </style>
 <inkscape:path-effect
   effect="spiro"
   id="path-effect1214"
   is_visible="true"
   lpeversion="1" /><inkscape:path-effect
   effect="spiro"
   id="path-effect1195"
   is_visible="true"
   lpeversion="1" /><inkscape:path-effect
   effect="spiro"
   id="path-effect992"
   is_visible="true"
   lpeversion="1" /><inkscape:path-effect
   effect="spiro"
   id="path-effect1060"
   is_visible="true"
   lpeversion="1" /><inkscape:path-effect
   effect="spiro"
   id="path-effect1047"
   is_visible="true"
   lpeversion="1" /><inkscape:path-effect
   effect="spiro"
   id="path-effect1085"
   is_visible="true"
   lpeversion="1" /><inkscape:path-effect
   effect="spiro"
   id="path-effect1286"
   is_visible="true"
   lpeversion="1" /><inkscape:path-effect
   effect="spiro"
   id="path-effect1305"
   is_visible="true"
   lpeversion="1" /><inkscape:path-effect
   effect="spiro"
   id="path-effect844"
   is_visible="true"
   lpeversion="1" /><style
   type="text/css"
   id="style2-9">
   <![CDATA[
    .fil0 {fill:#EF7F1A;fill-rule:nonzero}
   ]]>
  </style></defs>
 
<path
   id="path1210-6"
   style="display:inline;fill:#1a1a1a;fill-rule:nonzero;stroke:none;stroke-width:2.22142px;stroke-linecap:butt;stroke-linejoin:miter;stroke-opacity:1"
   d="m 616.42347,689.18983 -153.9226,7.37283 c 7.32898,-25.10242 13.78286,-50.46033 19.34598,-76.01218 14.71615,-67.59248 23.16483,-137.7315 11.46774,-205.91131 -2.90836,-16.95222 -7.08748,-33.80126 -14.23363,-49.44635 -7.14614,-15.6451 -17.38826,-30.10284 -31.00585,-40.60986 -17.39857,-13.42434 -39.71228,-19.78916 -61.68615,-19.5195 -21.97386,0.26967 -43.59416,6.90545 -62.97013,17.27344 -41.95692,22.45096 -73.12708,61.86318 -92.43143,105.35768 -13.58767,30.61428 -21.85945,64.07835 -19.94386,97.51769 0.97434,17.00837 4.70779,34.19095 13.5692,48.74118 4.43071,7.27511 10.12222,13.82098 16.94597,18.91949 6.82376,5.09851 14.79397,8.72528 23.19195,10.15089 8.36378,1.4198 17.05296,0.63777 25.1344,-1.94274 8.08143,-2.58051 15.55755,-6.93359 22.01046,-12.44074 12.90581,-11.0143 21.52598,-26.41013 26.68533,-42.57354 12.45203,-39.01017 5.55865,-81.93294 -9.17604,-120.13942 -14.89464,-38.62123 -37.46303,-73.90069 -62.96796,-106.50358 -14.21836,-18.1753 -29.69668,-35.87288 -49.20984,-48.19113 -9.75659,-6.15913 -20.47142,-10.90353 -31.75132,-13.3304 -11.2799,-2.42686 -23.13811,-2.49192 -34.29197,0.46057 -11.62503,3.07721 -22.28964,9.38512 -31.07844,17.59289 -8.78881,8.20777 -15.73936,18.27726 -20.947313,29.11645 -10.415909,21.67836 -13.833844,46.02578 -15.442796,70.02274 -3.516758,52.45121 0.976782,105.15905 8.618621,157.16962 13.853628,94.28815 38.082678,187.02059 71.643758,276.21607 7.48756,19.89972 15.43823,39.62519 23.84341,59.15505 l -163.519983,7.3526 C 31.810363,848.03313 37.277925,820.50942 40.641373,792.73069 58.50716,645.17711 16.858444,497.61506 5.101344,349.44956 2.6973351,319.15372 1.5450293,288.71469 3.1012509,258.36349 4.9421507,222.46018 10.989302,185.62335 30.101431,155.17399 c 14.387499,-22.9221 36.409124,-41.54423 62.380854,-49.15291 27.814925,-8.148658 57.975015,-3.33728 85.274085,6.40087 66.00706,23.5461 119.76208,75.0568 154.90062,135.69205 35.13854,60.63526 52.90897,129.99953 61.51415,199.55025 4.41078,35.64979 6.50915,71.8604 1.58934,107.44351 -4.9198,35.58312 -17.1805,70.68886 -39.22815,99.0484 -10.73679,13.81057 -23.76907,25.94837 -38.84721,34.81741 -15.07815,8.86905 -32.24199,14.40188 -49.72458,15.00985 -29.39083,1.02208 -58.36704,-12.17717 -79.22603,-32.90801 -20.85899,-20.73085 -33.97203,-48.45043 -40.03387,-77.22749 -6.95467,-33.01555 -5.03162,-67.26872 -0.72225,-100.73248 5.9453,-46.1673 16.42351,-91.90269 33.57921,-135.17448 17.35065,-43.76351 41.86052,-85.27564 75.8674,-117.83054 34.00689,-32.5549 78.03705,-55.71219 124.91871,-60.00165 37.45283,-3.42677 76.40586,5.63913 106.92934,27.61126 19.83492,14.27804 35.87209,33.78255 46.04733,56.00306 19.09458,-43.92646 49.91227,-82.69255 88.40111,-111.20125 38.48885,-28.5087 84.55393,-46.68969 132.13853,-52.15252 46.43163,-5.330464 94.88708,1.68648 135.87341,24.14602 40.98633,22.45955 73.7971,61.07541 85.08,106.42965 8.31886,33.43962 4.81364,69.34042 -7.61606,101.4794 -8.3679,21.63655 -20.81065,41.85993 -37.47036,58.00354 -16.6597,16.14361 -37.63713,28.08648 -60.3742,32.68944 -15.13016,3.063 -31.01195,2.94109 -45.43866,8.43418 -7.21335,2.74654 -14.00615,6.95892 -18.87795,12.9457 -4.8718,5.98678 -7.66625,13.86886 -6.62417,21.51674 0.9417,6.91123 4.94837,13.20478 10.33469,17.63642 5.38632,4.43165 12.0676,7.10184 18.91282,8.44155 13.69044,2.67943 27.78541,0.23747 41.72331,-0.34783 31.33701,-1.31596 63.03481,7.10424 89.5124,23.91725 26.47759,16.81301 47.60175,41.9595 59.46345,70.99465 10.7032,26.19933 13.8579,55.27336 10.2019,83.33752 -3.656,28.06416 -14.0112,55.10412 -29.0271,79.09343 -30.03177,47.9786 -77.87191,82.86995 -129.66975,105.69181 -47.95623,21.12926 -100.06549,32.7828 -152.45371,34.09424 28.84668,13.91155 60.3426,22.30479 92.2867,24.59317 69.53124,4.98101 140.70519,-20.17161 191.66756,-67.73463 L 1002.1719,1000 c -32.0919,7.8795 -65.36706,10.9213 -98.35571,8.9911 -56.81362,-3.3243 -111.60165,-21.14944 -166.9178,-34.5271 -55.31616,-13.37765 -113.7208,-22.31609 -168.76516,-7.86073 -25.10087,6.59181 -48.93017,17.99085 -69.81473,33.39673 l 0.3946,-164.16341 c 34.99672,-18.31693 73.59776,-29.7147 112.93094,-33.34526 40.96632,-3.7813 82.17216,0.78485 123.26352,2.79411 41.09137,2.00926 83.21237,1.30511 121.98231,-12.45822 24.31714,-8.63259 46.91365,-22.40196 65.02348,-40.78344 18.10984,-18.38147 31.63734,-41.41905 37.8957,-66.45259 4.63071,-18.52294 5.24567,-38.22672 0.28292,-56.66347 -4.96275,-18.43675 -15.70196,-35.51545 -31.09656,-46.80921 -19.65365,-14.41828 -45.0168,-18.48673 -69.38004,-19.25168 -24.36324,-0.76494 -48.94646,1.31951 -72.99774,-2.64137 -25.67216,-4.22781 -50.57735,-15.74597 -68.28784,-34.80569 -8.85524,-9.52986 -15.8293,-20.85633 -19.97382,-33.18745 -4.14452,-12.33112 -5.42322,-25.66417 -3.30433,-38.49943 3.50839,-21.25221 16.30567,-40.39589 33.28791,-53.64614 16.98223,-13.25024 37.89422,-20.89087 59.1948,-24.09252 16.09648,-2.41943 32.5249,-2.41604 48.49003,-5.58855 7.98257,-1.58626 15.85159,-3.98018 23.06935,-7.74069 7.21776,-3.76052 13.78126,-8.93032 18.59287,-15.49432 8.16753,-11.14216 10.77378,-25.79508 8.64342,-39.44491 -2.13037,-13.64982 -8.6899,-26.33788 -17.2398,-37.1894 -18.58806,-23.59192 -46.65349,-38.8967 -76.18157,-44.39099 -29.52808,-5.4943 -60.37317,-1.58993 -88.65066,8.53324 -46.3796,16.60361 -86.70372,50.54935 -109.15391,94.39836 -19.03661,37.18171 -24.94971,79.82832 -24.968,121.59998 -0.0171,39.03432 4.85386,77.95922 12.40089,116.25702 8.18402,41.53026 19.52283,82.43845 33.8865,122.25586 z"
   sodipodi:nodetypes="ccaaaaaaaaaaaaaaccaaaaaaaaacaaaacaaaaaaaacaccaaccaaaaaaaaaaaaac"
   inkscape:original-d="m 616.42347,689.18983 -153.9226,7.37283 c 33.81688,-30.71216 15.37615,-50.17018 19.34598,-76.01218 10.43788,-67.94641 25.4579,-138.60648 11.46774,-205.91131 -6.83671,-32.8905 -16.80656,-72.165 -45.23948,-90.05621 -35.17458,-22.13335 -86.64728,-19.05241 -124.65628,-2.24606 -42.7282,18.89303 -71.65156,63.51461 -92.43143,105.35768 -14.75744,29.7161 -26.57445,65.00825 -19.94386,97.51769 6.29822,30.87985 22.5683,72.95288 53.70712,77.81156 30.71073,4.79189 61.19194,-28.56009 73.83019,-56.95702 16.33055,-36.69317 2.88802,-81.83102 -9.17604,-120.13942 -12.38808,-39.33728 -33.13205,-78.0307 -62.96796,-106.50358 -31.45245,-30.01558 -73.46711,-73.06598 -115.25313,-61.06096 -43.19509,12.40984 -57.01959,73.02121 -67.468549,116.73208 -12.198769,51.03079 0.555717,105.32425 8.618621,157.16962 14.616998,93.98891 41.861208,185.88019 71.643758,276.21607 6.65665,20.19084 0.22597,40.14426 23.84341,59.15505 l -163.519983,7.3526 C 47.682274,843.11416 39.019603,820.63857 40.641373,792.73069 49.241,644.74583 12.653361,497.43515 5.101344,349.44956 3.5532182,319.11324 -0.44331949,288.52527 3.1012509,258.36349 7.2510055,223.05202 10.626161,184.92015 30.101431,155.17399 44.60225,133.02572 67.162218,113.74858 92.482285,106.02108 c 27.263245,-8.320534 60.770455,-8.162362 85.274085,6.40087 114.33939,67.9553 190.45023,204.79208 216.41477,335.2423 13.65773,68.61874 2.97491,149.52182 -37.63881,206.49191 -19.66412,27.58345 -54.92669,53.76825 -88.57179,49.82726 -53.74433,-6.2953 -110.19087,-46.80481 -119.2599,-110.1355 -4.96717,-37.47677 -4.68057,-67.38825 -0.72225,-100.73248 5.47302,-46.10389 9.52152,-95.46617 33.57921,-135.17448 46.32758,-76.46579 113.86082,-156.92153 200.78611,-177.83219 35.7912,-8.6099 75.89095,7.81835 106.92934,27.61126 20.3771,12.99429 37.44001,46.85579 46.04733,56.00306 80.44949,-64.19026 129.1798,-158.60916 220.53964,-163.35377 85.43564,-4.436949 181.36678,54.73482 220.95341,130.57567 15.69643,30.07153 7.1115,70.92169 -7.61606,101.4794 -19.3076,40.06068 -62.32596,63.93348 -97.84456,90.69298 -22.07114,16.62827 -73.64523,15.39533 -70.94078,42.89662 2.4627,25.04288 48.3953,14.61453 70.97082,25.73014 52.82435,26.00936 134.47235,37.84575 148.97585,94.9119 25.1656,99.01784 -66.70201,206.90384 -148.49495,268.12276 -41.6893,31.20287 -180.54767,43.11169 -152.45371,34.09424 33.84943,22.95427 60.47591,25.85454 92.2867,24.59317 67.70817,-2.68479 96.80854,-38.3993 191.66756,-67.73463 L 1002.1719,1000 c -0.3629,-5.45271 -65.43866,9.5581 -98.35571,8.9911 C 791.05005,1007.0486 679.47034,948.60265 568.13323,966.60327 542.66677,970.7206 498.3185,1000 498.3185,1000 l 0.3946,-164.16341 c 20.56418,31.8184 74.20245,-26.9661 112.93094,-33.34526 80.72432,-13.29651 170.63318,23.89427 245.24583,-9.66411 45.18462,-20.32259 91.25238,-59.08477 102.91918,-107.23603 8.47444,-34.97575 -3.68601,-79.82504 -30.81364,-103.47268 -36.19533,-31.55211 -100.39162,1.40502 -142.37778,-21.89305 -40.93529,-22.71493 -95.3451,-59.83011 -91.56599,-106.49257 3.25089,-40.14036 57.22275,-58.28225 92.48271,-77.73866 27.62299,-15.24234 72.99941,-2.34454 90.15225,-28.82356 13.97538,-21.57394 8.62484,-57.55092 -8.59638,-76.63431 -37.67106,-41.74454 -110.343,-49.73721 -164.83223,-35.85775 -46.61515,11.87378 -84.8302,52.89757 -109.15391,94.39836 -20.92337,35.69916 -22.97744,80.26894 -24.968,121.59998 -1.87478,38.92706 5.10467,77.97392 12.40089,116.25702 7.91708,41.5407 26.04558,105.88597 33.8865,122.25586 z"
   inkscape:path-effect="#path-effect1305" /><g
   style="clip-rule:evenodd;fill-rule:evenodd;image-rendering:optimizeQuality;shape-rendering:geometricPrecision;text-rendering:geometricPrecision"
   id="g869" /></svg>
