<?xml version="1.0" encoding="UTF-8" standalone="no"?>
<svg
   xmlns:dc="http://purl.org/dc/elements/1.1/"
   xmlns:cc="http://creativecommons.org/ns#"
   xmlns:rdf="http://www.w3.org/1999/02/22-rdf-syntax-ns#"
   xmlns:svg="http://www.w3.org/2000/svg"
   xmlns="http://www.w3.org/2000/svg"
   xmlns:sodipodi="http://sodipodi.sourceforge.net/DTD/sodipodi-0.dtd"
   xmlns:inkscape="http://www.inkscape.org/namespaces/inkscape"
   xml:space="preserve"
   width="1000"
   height="1000"
   version="1.1"
   style="clip-rule:evenodd;fill-rule:evenodd;image-rendering:optimizeQuality;shape-rendering:geometricPrecision;text-rendering:geometricPrecision"
   viewBox="0 0 1000 1000"
   id="svg10"
   sodipodi:docname="തൃ.svg"
   inkscape:version="1.0.2 (e86c870879, 2021-01-15)"><metadata
   id="metadata14"><rdf:RDF><cc:Work
       rdf:about=""><dc:format>image/svg+xml</dc:format><dc:type
         rdf:resource="http://purl.org/dc/dcmitype/StillImage" /><dc:title /></cc:Work></rdf:RDF></metadata><sodipodi:namedview
   pagecolor="#ffffff"
   bordercolor="#666666"
   borderopacity="1"
   objecttolerance="10"
   gridtolerance="10"
   guidetolerance="10"
   inkscape:pageopacity="0"
   inkscape:pageshadow="2"
   inkscape:window-width="1920"
   inkscape:window-height="1007"
   id="namedview12"
   showgrid="false"
   inkscape:zoom="0.6002692"
   inkscape:cx="132.19883"
   inkscape:cy="662.16309"
   inkscape:window-x="1920"
   inkscape:window-y="0"
   inkscape:window-maximized="1"
   inkscape:current-layer="svg10"
   showguides="true"
   inkscape:guide-bbox="true"
   inkscape:document-rotation="0"><sodipodi:guide
   position="0,1000"
   orientation="0,1"
   id="guide16"
   inkscape:label=""
   inkscape:locked="true"
   inkscape:color="rgb(0,0,255)" /><sodipodi:guide
   position="1763.3122,2036.1693"
   orientation="1000,0"
   id="guide18" /><sodipodi:guide
   position="0,200"
   orientation="0,1"
   id="guide20"
   inkscape:label="base"
   inkscape:locked="true"
   inkscape:color="rgb(0,0,255)" /><inkscape:grid
   type="xygrid"
   id="grid24"
   originx="-473.37552"
   originy="-489.69235" /><sodipodi:guide
   position="0,0"
   orientation="0,1"
   id="guide34"
   inkscape:label="bottom"
   inkscape:locked="true"
   inkscape:color="rgb(0,0,255)" /><sodipodi:guide
   position="225.05109,1693.3186"
   orientation="0,1"
   id="guide44"
   inkscape:label=""
   inkscape:locked="false"
   inkscape:color="rgb(0,0,255)" /><sodipodi:guide
   position="0,900"
   orientation="0,1"
   id="guide46"
   inkscape:label=""
   inkscape:locked="true"
   inkscape:color="rgb(0,0,255)" /><sodipodi:guide
   position="581.10382,922.31275"
   orientation="1,0"
   id="guide841"
   inkscape:label="width" />    </sodipodi:namedview>
 <defs
   id="defs4"><inkscape:path-effect
   effect="fillet_chamfer"
   id="path-effect848"
   is_visible="true"
   lpeversion="1"
   satellites_param="F,0,0,1,0,0,0,1 @ F,0,0,1,0,0,0,1 @ F,0,0,1,0,0,0,1 @ F,0,0,1,0,0,0,1 @ F,0,0,1,0,0,0,1 @ F,0,0,1,0,0,0,1 @ F,0,0,1,0,0,0,1 @ F,0,0,1,0,0,0,1 @ F,0,0,1,0,0,0,1 @ F,0,0,1,0,0,0,1 @ F,0,0,1,0,0,0,1 @ F,0,0,1,0,0,0,1 @ F,0,0,1,0,0,0,1 @ F,0,0,1,0,0,0,1 @ F,0,0,1,0,0,0,1 @ F,0,0,1,0,0,0,1 @ F,0,0,1,0,0,0,1 @ F,0,0,1,0,0,0,1 @ F,0,0,1,0,0,0,1 @ F,0,0,1,0,0,0,1 @ F,0,0,1,0,0,0,1 @ F,0,0,1,0,0,0,1 @ F,0,0,1,0,0,0,1 @ F,0,0,1,0,0,0,1 @ F,0,0,1,0,0,0,1 @ F,0,0,1,0,0,0,1 @ F,0,0,1,0,0,0,1 @ F,0,0,1,0,0,0,1 @ F,0,0,1,0,0,0,1 @ F,0,0,1,0,0,0,1 @ F,0,0,1,0,0,0,1 @ F,0,0,1,0,0,0,1 @ F,0,0,1,0,0,0,1 @ F,0,0,1,0,0,0,1 @ F,0,0,1,0,0,0,1 @ F,0,0,1,0,0,0,1 @ F,0,0,1,0,0,0,1 @ F,0,0,1,0,0,0,1 @ F,0,0,1,0,0,0,1 @ F,0,0,1,0,0,0,1 @ F,0,0,1,0,0,0,1 @ F,0,0,1,0,0,0,1 @ F,0,0,1,0,0,0,1 @ F,0,0,1,0,0,0,1 @ F,0,0,1,0,0,0,1 @ F,0,0,1,0,0,0,1 @ F,0,0,1,0,0,0,1 @ F,0,0,1,0,0,0,1 @ F,0,0,1,0,0,0,1 @ F,0,0,1,0,0,0,1 @ F,0,0,1,0,0,0,1 @ F,0,0,1,0,0,0,1 @ F,0,0,1,0,0,0,1 @ F,0,0,1,0,0,0,1 @ F,0,0,1,0,0,0,1 @ F,0,0,1,0,0,0,1 @ F,0,0,1,0,0,0,1 @ F,0,0,1,0,0,0,1 @ F,0,0,1,0,0,0,1 @ F,0,0,1,0,0,0,1 @ F,0,0,1,0,0,0,1 @ F,0,0,1,0,26.740844,0,1 @ F,0,0,1,0,23.921075,0,1 @ F,0,0,1,0,0,0,1 @ F,0,0,1,0,0,0,1 @ F,0,0,1,0,0,0,1 @ F,0,0,1,0,0,0,1 @ F,0,0,1,0,0,0,1 @ F,0,0,1,0,0,0,1 @ F,0,0,1,0,0,0,1"
   unit="px"
   method="auto"
   mode="F"
   radius="0"
   chamfer_steps="1"
   flexible="false"
   use_knot_distance="true"
   apply_no_radius="true"
   apply_with_radius="true"
   only_selected="true"
   hide_knots="false" /><inkscape:path-effect
   effect="spiro"
   id="path-effect851"
   is_visible="true"
   lpeversion="1" />
  <style
   type="text/css"
   id="style2">
   <![CDATA[
    .fil0 {fill:#EF7F1A;fill-rule:nonzero}
   ]]>
  </style>
 <inkscape:path-effect
   effect="spiro"
   id="path-effect1214"
   is_visible="true"
   lpeversion="1" /><inkscape:path-effect
   effect="spiro"
   id="path-effect1195"
   is_visible="true"
   lpeversion="1" /><inkscape:path-effect
   effect="spiro"
   id="path-effect992"
   is_visible="true"
   lpeversion="1" /><inkscape:path-effect
   effect="spiro"
   id="path-effect1060"
   is_visible="true"
   lpeversion="1" /><inkscape:path-effect
   effect="spiro"
   id="path-effect1047"
   is_visible="true"
   lpeversion="1" /><inkscape:path-effect
   effect="spiro"
   id="path-effect1085"
   is_visible="true"
   lpeversion="1" /><inkscape:path-effect
   effect="spiro"
   id="path-effect1286"
   is_visible="true"
   lpeversion="1" /><inkscape:path-effect
   effect="spiro"
   id="path-effect1305"
   is_visible="true"
   lpeversion="1" /></defs>
 
<path
   id="path1210-6"
   style="display:inline;fill:#1a1a1a;fill-rule:nonzero;stroke:none;stroke-width:2.22142px;stroke-linecap:butt;stroke-linejoin:miter;stroke-opacity:1"
   d="m 394.17114,447.66425 c 7.08842,39.61383 11.71851,80.01991 7.99766,120.09055 -3.72086,40.07064 -16.231,80.02498 -40.68296,111.9875 -10.51038,13.7387 -23.19142,25.92404 -37.89761,35.03162 -14.70618,9.10759 -31.47888,15.07693 -48.73264,16.31298 -16.00094,1.1463 -32.22059,-1.79963 -46.99979,-8.03817 -14.7792,-6.23854 -28.12056,-15.7282 -39.23456,-27.29639 -22.22802,-23.13637 -35.18197,-54.17239 -39.9206,-85.90442 -5.58241,-37.38234 -0.34882,-75.47566 5.98385,-112.73824 7.64097,-44.96083 16.9548,-89.88518 33.24589,-132.48167 30.11915,-78.7529 83.40077,-147.208 146.07663,-203.60763 16.18337,-14.56281 33.10361,-28.45207 51.79126,-39.62115 18.68766,-11.16908 39.25629,-19.58822 60.82341,-22.560756 28.95391,-3.990637 59.89957,2.557306 82.69358,20.851756 14.15187,11.35827 24.71173,26.71839 32.39362,43.15841 7.68188,16.44003 12.62884,34.01262 16.97711,51.63017 19.48313,78.93823 27.56162,160.63234 24.61375,241.88594 -2.66841,73.55083 -14.35335,146.7657 -34.63956,217.51395 -23.81039,83.03884 -60.76074,164.53345 -122.08117,225.37906 -51.13992,50.74393 -117.7531,85.05467 -188.15802,100.33162 -38.05823,8.25812 -78.78761,10.90702 -115.11851,-3.11762 -18.16546,-7.01233 -34.88209,-18.21405 -47.221742,-33.27691 -12.33965,-15.06285 -20.121634,-34.07709 -20.51667,-53.54502 -0.410093,-20.20996 7.150526,-40.20729 19.546937,-56.17412 12.396415,-15.96682 29.416325,-28.02638 47.972465,-36.04389 37.11227,-16.035 79.0195,-16.05384 119.36324,-13.44136 74.52771,4.82609 148.52851,17.74692 220.28192,38.46209 l -78.02447,78.56259 c -22.60808,-19.27835 -48.61251,-34.56241 -76.45437,-44.93595 -42.37858,-15.78974 -89.54139,-19.97661 -133.28406,-8.49452 -9.53403,2.5026 -19.04807,5.81612 -26.95796,11.69782 -3.95494,2.94085 -7.46991,6.51277 -10.11554,10.67099 -2.64563,4.15822 -4.40529,8.914 -4.82987,13.82418 -0.68192,7.88625 2.15883,15.87466 7.07613,22.07773 4.9173,6.20307 11.79077,10.69117 19.19992,13.47727 14.81831,5.57219 31.19376,4.49102 46.98077,3.30699 26.11127,-1.95835 52.47385,-4.03151 77.48832,-11.77168 30.93117,-9.57096 58.84726,-27.62102 82.34687,-49.89452 23.4996,-22.2735 42.75222,-48.70784 59.33787,-76.51533 40.7028,-68.24227 65.72061,-145.02289 80.18498,-223.15424 14.72448,-79.53639 18.20755,-164.42747 -13.89568,-238.67186 -9.46312,-21.88514 -22.10099,-42.73675 -39.54274,-58.99391 -17.44175,-16.25717 -40.02671,-27.66973 -63.83698,-28.92712 -17.67105,-0.93319 -35.36008,3.71282 -51.21194,11.57764 -15.85186,7.86482 -29.97773,18.86032 -42.88172,30.96915 -37.9814,35.64094 -65.93499,81.33896 -83.32076,130.4368 -11.11198,31.38049 -18.03933,64.2824 -19.94386,97.51769 -1.1965,20.87967 -0.28138,42.48141 8.20991,61.59398 4.24565,9.55628 10.387,18.35099 18.38317,25.08964 7.99617,6.73865 17.89223,11.35438 28.29202,12.44641 9.77358,1.02627 19.77224,-1.07851 28.57851,-5.44036 8.80627,-4.36185 16.43996,-10.92306 22.55404,-18.61683 12.22818,-15.38754 18.23438,-34.84018 21.51966,-54.2183 6.77582,-39.96698 2.92727,-81.45116 -9.17604,-120.13942 -12.43114,-39.73618 -33.68712,-76.90409 -62.96796,-106.50358 -13.89362,-14.04482 -29.76619,-26.49359 -48.0012,-34.09451 -18.23501,-7.60092 -39.03884,-10.06745 -57.93045,-4.28845 -20.54793,6.28567 -37.38902,21.87104 -48.49562,40.26589 -11.1066,18.39485 -16.969648,39.49219 -20.769239,60.64143 -8.903367,49.55781 -7.082013,100.6333 1.093451,150.31638 11.671638,70.92969 36.135148,139.32908 67.276088,204.11712 5.76647,11.99702 11.7643,23.88284 17.9889,35.64868 6.90605,13.05392 0.83962,23.7555 -13.92482,24.10419 L 23.914407,799.43522 C 10.706845,799.74714 3.069828,789.7346 6.310096,776.92771 12.98502,750.54564 17.936511,723.72747 21.118069,696.70066 34.694645,581.36987 15.966548,465.0673 5.101344,349.44956 2.255067,319.16204 -0.05067485,288.62073 3.1012509,258.36349 6.2818,227.83148 15.234046,197.51645 32.179869,171.92038 47.091425,149.397 68.700334,130.57116 94.560723,122.76747 c 27.769697,-8.37984 58.016357,-3.5185 85.274087,6.40087 63.01749,22.93271 114.34607,71.97958 148.92631,129.43669 34.58024,57.45712 53.59796,123.04719 65.41002,189.05922 z"
   sodipodi:nodetypes="aaacaaaaaaaaaaaaccaaaaaaaaaaaaaaaaaaaaccaaaaaaa"
   inkscape:original-d="m 394.17114,447.66425 c 18.02515,76.28638 13.29086,165.82562 -32.6853,232.07805 -18.26618,26.32183 -52.22679,54.99263 -86.63025,51.3446 -61.30481,-6.50064 -117.08592,-57.90829 -126.15495,-121.23898 -4.96717,-37.47677 0.35944,-75.45418 5.98385,-112.73824 6.76613,-44.85243 14.09619,-91.17485 33.24589,-132.48167 35.1322,-75.78185 83.63708,-148.12372 146.07663,-203.60763 32.05387,-28.48313 70.08905,-56.67635 112.61467,-62.181906 28.19206,-3.649867 60.87961,4.258636 82.69358,20.851756 29.6906,22.5846 39.15638,60.65917 49.37073,94.78858 23.23703,77.64235 26.90367,160.87329 24.61375,241.88594 -2.07443,73.38899 -11.04513,147.99022 -34.63956,217.51395 C 541.20242,754.78617 507.19151,839.04088 446.57901,899.25776 396.15435,949.35329 329.49034,998.42498 258.42099,999.58938 190.50386,1000.7021 77.515347,977.54805 75.564068,909.64983 73.50837,838.11818 191.92749,816.15771 262.44671,803.99046 c 73.45287,-12.67342 219.11387,36.02348 220.28192,38.46209 l -78.02447,78.56259 c 0,0 -48.19225,-36.27067 -76.45437,-44.93595 -42.56252,-13.04984 -91.0876,-22.68344 -133.28406,-8.49452 -17.49408,5.88254 -43.97231,17.85269 -41.90337,36.19299 3.09862,27.46797 46.00606,34.22659 73.25682,38.86199 25.75583,4.38111 53.84678,-0.65257 77.48832,-11.77168 57.27458,-26.93741 106.28003,-73.94549 141.68474,-126.40985 44.21385,-65.51816 68.88917,-144.92446 80.18498,-223.15424 11.38882,-78.87402 21.63283,-167.33784 -13.89568,-238.67186 -20.16768,-40.49259 -58.58565,-81.60619 -103.37972,-87.92103 -34.08493,-4.80512 -68.06814,20.01805 -94.09366,42.54679 -39.00773,33.76665 -63.94035,82.62269 -83.32076,130.4368 -12.46338,30.74887 -24.96634,64.7213 -19.94386,97.51769 5.71748,37.33472 17.39243,94.56159 54.8851,99.13003 35.33732,4.30582 60.91608,-44.66702 72.65221,-78.27549 13.24094,-37.91772 2.88802,-81.83102 -9.17604,-120.13942 -12.38808,-39.33728 -31.21919,-80.18054 -62.96796,-106.50358 -28.91214,-23.97118 -70.17413,-49.86901 -105.93165,-38.38296 -38.84272,12.47708 -57.40741,62.89226 -69.264859,100.90732 -15.054426,48.26456 -7.029356,100.87237 1.093451,150.31638 11.613458,70.69183 39.423768,138.11367 67.276088,204.11712 8.63907,20.47257 7.18003,40.11072 30.79747,59.12151 L 0,800 C 23.381297,768.12589 18.38713,731.73969 21.118069,696.70066 30.121925,581.17758 9.0429689,465.25593 5.101344,349.44956 4.068281,319.09779 -1.5126219,288.44985 3.1012509,258.36349 7.6728396,228.55287 14.011503,197.24776 32.179869,171.92038 47.143242,151.06089 68.24619,130.54641 94.560723,122.76747 c 27.082937,-8.00609 61.052477,-7.06993 85.274087,6.40087 117.6677,65.44058 185.69234,197.26846 214.33633,318.49591 z"
   inkscape:path-effect="#path-effect1305;#path-effect848" /></svg>
