<?xml version="1.0" encoding="UTF-8" standalone="no"?>
<svg
   xmlns:dc="http://purl.org/dc/elements/1.1/"
   xmlns:cc="http://creativecommons.org/ns#"
   xmlns:rdf="http://www.w3.org/1999/02/22-rdf-syntax-ns#"
   xmlns:svg="http://www.w3.org/2000/svg"
   xmlns="http://www.w3.org/2000/svg"
   xmlns:sodipodi="http://sodipodi.sourceforge.net/DTD/sodipodi-0.dtd"
   xmlns:inkscape="http://www.inkscape.org/namespaces/inkscape"
   xml:space="preserve"
   width="1000"
   height="1000"
   version="1.1"
   style="clip-rule:evenodd;fill-rule:evenodd;image-rendering:optimizeQuality;shape-rendering:geometricPrecision;text-rendering:geometricPrecision"
   viewBox="0 0 1000 1000"
   id="svg10"
   sodipodi:docname="തു.svg"
   inkscape:version="1.0.1 (3bc2e813f5, 2020-09-07)"><metadata
   id="metadata14"><rdf:RDF><cc:Work
       rdf:about=""><dc:format>image/svg+xml</dc:format><dc:type
         rdf:resource="http://purl.org/dc/dcmitype/StillImage" /><dc:title /></cc:Work></rdf:RDF></metadata><sodipodi:namedview
   pagecolor="#ffffff"
   bordercolor="#666666"
   borderopacity="1"
   objecttolerance="10"
   gridtolerance="10"
   guidetolerance="10"
   inkscape:pageopacity="0"
   inkscape:pageshadow="2"
   inkscape:window-width="1920"
   inkscape:window-height="1015"
   id="namedview12"
   showgrid="false"
   inkscape:zoom="0.6002692"
   inkscape:cx="469.69598"
   inkscape:cy="760.50288"
   inkscape:window-x="1920"
   inkscape:window-y="0"
   inkscape:window-maximized="1"
   inkscape:current-layer="svg10"
   showguides="true"
   inkscape:guide-bbox="true"
   inkscape:document-rotation="0"><sodipodi:guide
     position="0,1000"
     orientation="0,1"
     id="guide16"
     inkscape:label=""
     inkscape:locked="true"
     inkscape:color="rgb(0,0,255)" /><sodipodi:guide
     position="1763.3122,2036.1693"
     orientation="1000,0"
     id="guide18" /><sodipodi:guide
     position="0,200"
     orientation="0,1"
     id="guide20"
     inkscape:label="base"
     inkscape:locked="true"
     inkscape:color="rgb(0,0,255)" /><inkscape:grid
     type="xygrid"
     id="grid24"
     originx="-473.37552"
     originy="-489.69235" /><sodipodi:guide
     position="0,0"
     orientation="0,1"
     id="guide34"
     inkscape:label="bottom"
     inkscape:locked="true"
     inkscape:color="rgb(0,0,255)" /><sodipodi:guide
     position="225.05109,1693.3186"
     orientation="0,1"
     id="guide44"
     inkscape:label=""
     inkscape:locked="false"
     inkscape:color="rgb(0,0,255)" /><sodipodi:guide
     position="0,900"
     orientation="0,1"
     id="guide46"
     inkscape:label=""
     inkscape:locked="true"
     inkscape:color="rgb(0,0,255)" /><sodipodi:guide
     position="649.055,327.29233"
     orientation="-1,0"
     id="guide841"
     inkscape:label="width"
     inkscape:locked="false"
     inkscape:color="rgb(0,0,255)" /></sodipodi:namedview>
 <defs
   id="defs4"><inkscape:path-effect
   effect="spiro"
   id="path-effect851"
   is_visible="true"
   lpeversion="1" />
  <style
   type="text/css"
   id="style2">
   <![CDATA[
    .fil0 {fill:#EF7F1A;fill-rule:nonzero}
   ]]>
  </style>
 <inkscape:path-effect
   effect="spiro"
   id="path-effect1214"
   is_visible="true"
   lpeversion="1" /><inkscape:path-effect
   effect="spiro"
   id="path-effect1195"
   is_visible="true"
   lpeversion="1" /><inkscape:path-effect
   effect="spiro"
   id="path-effect992"
   is_visible="true"
   lpeversion="1" /><inkscape:path-effect
   effect="spiro"
   id="path-effect1060"
   is_visible="true"
   lpeversion="1" /><inkscape:path-effect
   effect="spiro"
   id="path-effect1047"
   is_visible="true"
   lpeversion="1" /><inkscape:path-effect
   effect="spiro"
   id="path-effect1085"
   is_visible="true"
   lpeversion="1" /><inkscape:path-effect
   effect="spiro"
   id="path-effect1286"
   is_visible="true"
   lpeversion="1" /><inkscape:path-effect
   effect="spiro"
   id="path-effect1305"
   is_visible="true"
   lpeversion="1" /></defs>
 
<path
   id="path1210-6"
   style="display:inline;fill:#1a1a1a;fill-rule:nonzero;stroke:none;stroke-width:2.22142px;stroke-linecap:butt;stroke-linejoin:miter;stroke-opacity:1"
   d="m 418.17114,447.66425 c 7.08734,39.61397 11.71754,80.01992 7.99701,120.09055 -3.72053,40.07062 -16.23019,80.02517 -40.68231,111.9875 -10.51043,13.7386 -23.19161,25.92373 -37.89781,35.03121 -14.70619,9.10748 -31.47876,15.07685 -48.73244,16.31339 -16.00123,1.14678 -32.2213,-1.79845 -47.00108,-8.03645 -14.77977,-6.23799 -28.12185,-15.72728 -39.23635,-27.29543 -22.22902,-23.1363 -35.18299,-54.17381 -39.91752,-85.9071 -5.57739,-37.3826 -0.33415,-75.47366 5.98385,-112.73824 7.62363,-44.96538 16.88742,-89.90931 33.24589,-132.48167 30.23166,-78.67685 83.8833,-146.72188 146.07663,-203.60763 16.09287,-14.7195 32.88484,-28.83706 51.56267,-40.09684 18.67783,-11.25979 39.38194,-19.62479 61.052,-22.085066 28.86048,-3.276631 58.78936,4.351696 82.69358,20.851756 22.70462,15.67202 39.6265,38.73421 51.16027,63.79581 11.53376,25.06161 17.97284,52.16658 22.67707,79.35081 13.2928,76.81477 13.19628,155.76726 1.68313,232.86884 -10.80272,72.34397 -31.87863,143.75632 -68.25528,207.21566 -36.37666,63.45934 -88.64706,118.75799 -153.37515,152.8259 -34.19263,17.99638 -71.55796,29.9441 -109.84855,35.12451 48.66563,5.68307 98.16472,4.17707 146.39484,-4.45405 56.62449,-10.13335 111.47384,-30.10997 161.35223,-58.76593 V 1000 c -48.29343,3.8469 -96.98708,2.6506 -145.03335,-3.56305 C 398.97804,988.53604 339.20854,972.59471 278.39766,962.75874 217.58678,952.92277 154.40657,949.35739 95.097074,966.00349 68.445374,973.48369 42.926305,984.98571 19.67039,1000 l 4.578717,-145.57582 c 42.176456,-11.41354 84.987393,-20.48205 128.169163,-27.14967 44.39809,-6.85543 89.21345,-11.18009 133.24329,-20.09976 44.02984,-8.91968 87.68027,-22.6785 125.54213,-46.85839 46.94337,-29.97966 83.20519,-75.15305 106.84766,-125.58611 23.64248,-50.43306 35.10484,-105.99592 38.37707,-161.59945 2.75619,-46.83461 -0.33865,-94.75372 -16.68586,-138.72924 -7.19546,-19.35646 -17.03294,-37.95735 -30.884,-53.27386 -13.85106,-15.3165 -31.93769,-27.22433 -52.11382,-31.62558 -21.69327,-4.7322 -44.70138,-0.55976 -64.86657,8.73308 -20.16519,9.29283 -37.73765,23.4557 -53.57001,39.02258 -37.09869,36.47661 -65.70664,81.48173 -83.32076,130.4368 -11.27218,31.32886 -18.09023,64.2743 -19.94386,97.51769 -1.16404,20.87616 -0.24396,42.46845 8.24033,61.57828 4.24215,9.55491 10.37723,18.35021 18.36742,25.09181 7.99019,6.74159 17.88081,11.3626 28.27735,12.45994 9.77396,1.03162 19.77475,-1.07026 28.58258,-5.43109 8.80782,-4.36083 16.44251,-10.92274 22.5566,-18.61771 12.22818,-15.38993 18.23037,-34.84622 21.51303,-54.22669 6.76971,-39.96765 2.92423,-81.4506 -9.17604,-120.13942 -12.42825,-39.73748 -33.68247,-76.90816 -62.96796,-106.50358 -13.89482,-14.04186 -29.76917,-26.48588 -48.00363,-34.08486 -18.23446,-7.59897 -39.0347,-10.06717 -57.92802,-4.2981 -20.55506,6.27648 -37.41237,21.85129 -48.52656,40.24638 -11.11419,18.39509 -16.97404,39.50119 -20.7383,60.66094 -8.81687,49.56157 -6.74613,100.59086 1.09345,150.31638 11.1808,70.91849 34.03632,139.85127 65.91382,204.18064 10.76545,21.72488 22.55696,42.94128 35.32205,63.55481 L 39.089009,802.77209 C 52.635948,765.43242 61.251398,726.30693 64.641373,686.73069 74.31324,573.81655 41.661692,462.07897 29.101344,349.44956 25.72853,319.20533 23.806288,288.6163 27.101251,258.36349 30.4242,227.85372 39.269049,197.53117 56.179869,171.92038 c 14.8855,-22.54352 36.515301,-41.35794 62.380851,-49.15291 27.77194,-8.36949 58.01562,-3.514 85.27409,6.40087 63.02212,22.92337 114.35423,71.97146 148.9334,129.43057 34.57917,57.45912 53.59244,123.05185 65.40293,189.06534 z"
   sodipodi:nodetypes="aaacaaaaaaaacaccaaccaaaaaaaaaaaaaaaaccaaaaaaa"
   inkscape:original-d="m 418.17114,447.66425 c 18.02515,76.28638 13.29086,165.82562 -32.6853,232.07805 -18.26618,26.32183 -52.22679,54.99263 -86.63025,51.3446 -61.30481,-6.50064 -117.08592,-57.90829 -126.15495,-121.23898 -4.96717,-37.47677 0.35944,-75.45418 5.98385,-112.73824 6.76613,-44.85243 14.09619,-91.17485 33.24589,-132.48167 35.1322,-75.78185 83.63708,-148.12372 146.07663,-203.60763 32.05387,-28.48313 70.08905,-56.67635 112.61467,-62.181906 28.19206,-3.649867 60.4256,3.181136 82.69358,20.851756 42.05646,33.37364 60.98535,91.0182 73.83734,143.14662 18.58162,75.36816 22.55871,158.10356 1.68313,232.86884 -37.89996,135.73762 -110.66495,273.16366 -221.63043,360.04156 -30.26898,23.69841 -100.05325,35.02113 -109.84855,35.12451 2.85696,9.52323 98.45113,4.75883 146.39484,-4.45405 56.21179,-10.80167 154.12559,-73.85335 161.35223,-58.76593 V 1000 c 8.19997,-7.44713 -96.74448,-0.95884 -145.03335,-3.56305 C 338.1676,989.86276 215.41458,945.33396 95.097074,966.00349 67.917163,970.67277 42.171835,1002.5667 19.67039,1000 l 4.578717,-145.57582 c 15.806356,-23.52127 85.657753,-17.15265 128.169163,-27.14967 86.73647,-20.39702 189.38426,-11.07672 258.78542,-66.95815 83.55332,-67.27667 126.62796,-181.53771 145.22473,-287.18556 8.0745,-45.87113 3.4426,-96.72683 -16.68586,-138.72924 -17.10331,-35.68979 -44.26415,-76.77623 -82.99782,-84.89944 -41.66105,-8.73713 -85.68299,20.56774 -118.43658,47.75566 -39.69803,32.95233 -63.94035,82.62269 -83.32076,130.4368 -12.46338,30.74887 -24.96634,64.7213 -19.94386,97.51769 5.71748,37.33472 17.39243,94.56159 54.8851,99.13003 35.33732,4.30582 60.91608,-44.66702 72.65221,-78.27549 13.24094,-37.91772 2.88802,-81.83102 -9.17604,-120.13942 -12.38808,-39.33728 -31.21919,-80.18054 -62.96796,-106.50358 -28.91214,-23.97118 -70.17413,-49.86901 -105.93165,-38.38296 -38.84272,12.47708 -57.40741,62.89226 -69.26486,100.90732 -15.05443,48.26456 -6.87795,100.84774 1.09345,150.31638 11.37779,70.6079 37.42138,138.58254 65.91382,204.18064 9.65578,22.23049 11.70461,44.54402 35.32205,63.55481 L 39.089009,802.77209 C 62.470306,770.89798 62.429342,726.27601 64.641373,686.73069 70.955107,573.85766 36.271747,462.27141 29.101344,349.44956 c -1.92624,-30.30819 -6.613966,-60.99971 -2.000093,-91.08607 4.571589,-29.81062 10.910252,-61.11573 29.078618,-86.44311 14.963373,-20.85949 36.066321,-41.37397 62.380851,-49.15291 27.08294,-8.00609 61.05248,-7.06993 85.27409,6.40087 117.6677,65.44058 185.69234,197.26846 214.33633,318.49591 z"
   inkscape:path-effect="#path-effect1305" /></svg>
