<svg xmlns="http://www.w3.org/2000/svg" xmlns:dc="http://purl.org/dc/elements/1.1/" xmlns:ns1="http://sodipodi.sourceforge.net/DTD/sodipodi-0.dtd" xmlns:ns2="http://www.inkscape.org/namespaces/inkscape" xmlns:ns4="http://creativecommons.org/ns#" xmlns:rdf="http://www.w3.org/1999/02/22-rdf-syntax-ns#" xml:space="preserve" width="1000" height="1000" version="1.1" style="clip-rule:evenodd;fill-rule:evenodd;image-rendering:optimizeQuality;shape-rendering:geometricPrecision;text-rendering:geometricPrecision" viewBox="0 0 1000 1000" id="svg10" ns1:docname="ത്ഥ.svg" ns2:version="1.1.1 (3bf5ae0d25, 2021-09-20)"><metadata id="metadata14"><rdf:RDF><ns4:Work rdf:about=""><dc:format>image/svg+xml</dc:format><dc:type rdf:resource="http://purl.org/dc/dcmitype/StillImage" /></ns4:Work></rdf:RDF></metadata><ns1:namedview pagecolor="#ffffff" bordercolor="#666666" borderopacity="1" objecttolerance="10" gridtolerance="10" guidetolerance="10" ns2:pageopacity="0" ns2:pageshadow="2" ns2:window-width="1920" ns2:window-height="1009" id="namedview12" showgrid="false" ns2:zoom="0.84890884" ns2:cx="957.11101" ns2:cy="488.86286" ns2:window-x="0" ns2:window-y="0" ns2:window-maximized="1" ns2:current-layer="svg10" showguides="true" ns2:guide-bbox="true" ns2:document-rotation="0" ns2:pagecheckerboard="0"><ns1:guide position="0,1000" orientation="0,1" id="guide16" ns2:label="" ns2:locked="true" ns2:color="rgb(0,0,255)" /><ns1:guide position="1763.3122,2036.1693" orientation="1000,0" id="guide18" /><ns1:guide position="0,200" orientation="0,1" id="guide20" ns2:label="base" ns2:locked="true" ns2:color="rgb(0,0,255)" /><ns2:grid type="xygrid" id="grid24" originx="-473.37552" originy="-489.69235" /><ns1:guide position="0,0" orientation="0,1" id="guide34" ns2:label="bottom" ns2:locked="true" ns2:color="rgb(0,0,255)" /><ns1:guide position="225.05109,1693.3186" orientation="0,1" id="guide44" ns2:label="" ns2:locked="false" ns2:color="rgb(0,0,255)" /><ns1:guide position="0,900" orientation="0,1" id="guide46" ns2:label="" ns2:locked="true" ns2:color="rgb(0,0,255)" /><ns1:guide position="1080.5424,773.81185" orientation="1,0" id="guide841" ns2:label="width" />    </ns1:namedview>
 <defs id="defs4"><ns2:path-effect effect="fillet_chamfer" id="path-effect862" is_visible="true" lpeversion="1" satellites_param="F,0,0,1,0,0,0,1 @ F,0,0,1,0,0,0,1 @ F,0,0,1,0,0,0,1 @ F,0,0,1,0,0,0,1 @ F,0,0,1,0,0,0,1 @ F,0,0,1,0,0,0,1 @ F,0,0,1,0,0,0,1 @ F,0,0,1,0,0,0,1 @ F,0,0,1,0,0,0,1 @ F,0,0,1,0,0,0,1 @ F,0,0,1,0,0,0,1 @ F,0,0,1,0,21.773071,0,1 @ F,0,0,1,0,20.276289,0,1 @ F,0,0,1,0,0,0,1 @ F,0,0,1,0,0,0,1 @ F,0,0,1,0,0,0,1 @ F,0,0,1,0,0,0,1 @ F,0,0,1,0,0,0,1 @ F,0,0,1,0,0,0,1 @ F,0,0,1,0,0,0,1 @ F,0,0,1,0,0,0,1 @ F,0,0,1,0,0,0,1 @ F,0,0,1,0,0,0,1 @ F,0,1,1,0,11.327592,0,1 @ F,0,1,1,0,11.327592,0,1 @ F,0,0,1,0,0,0,1 @ F,0,0,1,0,0,0,1 @ F,0,0,1,0,0,0,1 @ F,0,0,1,0,0,0,1 @ F,0,0,1,0,0,0,1 @ F,0,0,1,0,0,0,1 @ F,0,0,1,0,0,0,1 @ F,0,0,1,0,0,0,1 @ F,0,0,1,0,0,0,1 @ F,0,0,1,0,0,0,1 @ F,0,0,1,0,0,0,1 @ F,0,0,1,0,0,0,1 @ F,0,0,1,0,0,0,1 @ F,0,0,1,0,0,0,1 @ F,0,0,1,0,0,0,1 @ F,0,0,1,0,0,0,1 @ F,0,0,1,0,0,0,1 @ F,0,0,1,0,0,0,1 @ F,0,0,1,0,0,0,1 @ F,0,0,1,0,0,0,1 @ F,0,0,1,0,0,0,1 @ F,0,0,1,0,0,0,1 @ F,0,0,1,0,0,0,1 @ F,0,0,1,0,0,0,1 @ F,0,0,1,0,36.282006,0,1 @ F,0,0,1,0,17.864422,0,1 @ F,0,0,1,0,0,0,1 @ F,0,0,1,0,0,0,1 @ F,0,0,1,0,0,0,1 @ F,0,0,1,0,0,0,1 @ F,0,0,1,0,0,0,1 @ F,0,0,1,0,0,0,1 @ F,0,0,1,0,0,0,1 @ F,0,0,1,0,0,0,1 @ F,0,0,1,0,0,0,1 @ F,0,0,1,0,0,0,1 @ F,0,0,1,0,0,0,1 @ F,0,0,1,0,0,0,1 @ F,0,0,1,0,0,0,1 @ F,0,0,1,0,0,0,1 @ F,0,0,1,0,0,0,1 @ F,0,0,1,0,0,0,1 @ F,0,0,1,0,0,0,1 @ F,0,0,1,0,0,0,1 @ F,0,0,1,0,0,0,1 @ F,0,0,1,0,0,0,1 @ F,0,0,1,0,0,0,1 @ F,0,0,1,0,0,0,1 @ F,0,0,1,0,0,0,1 @ F,0,0,1,0,0,0,1 @ F,0,0,1,0,0,0,1 @ F,0,0,1,0,0,0,1 @ F,0,0,1,0,0,0,1 @ F,0,0,1,0,0,0,1" unit="px" method="auto" mode="F" radius="0" chamfer_steps="1" flexible="false" use_knot_distance="true" apply_no_radius="true" apply_with_radius="true" only_selected="true" hide_knots="false" /><ns2:path-effect effect="fillet_chamfer" id="path-effect848" is_visible="true" lpeversion="1" satellites_param="F,0,0,1,0,0,0,1 @ F,0,0,1,0,0,0,1 @ F,0,0,1,0,0,0,1 @ F,0,0,1,0,0,0,1 @ F,0,0,1,0,0,0,1 @ F,0,0,1,0,0,0,1 @ F,0,0,1,0,0,0,1 @ F,0,0,1,0,0,0,1 @ F,0,0,1,0,0,0,1 @ F,0,0,1,0,0,0,1 @ F,0,0,1,0,0,0,1 @ F,0,0,1,0,0,0,1 @ F,0,0,1,0,0,0,1 @ F,0,0,1,0,0,0,1 @ F,0,0,1,0,0,0,1 @ F,0,0,1,0,0,0,1 @ F,0,0,1,0,0,0,1 @ F,0,0,1,0,0,0,1 @ F,0,0,1,0,0,0,1 @ F,0,0,1,0,25.594955,0,1 @ F,0,0,1,0,22.127578,0,1 @ F,0,0,1,0,0,0,1 @ F,0,0,1,0,0,0,1 @ F,0,0,1,0,0,0,1 @ F,0,0,1,0,0,0,1 @ F,0,0,1,0,0,0,1 @ F,0,0,1,0,0,0,1 @ F,0,0,1,0,0,0,1 @ F,0,0,1,0,0,0,1 @ F,0,0,1,0,0,0,1 @ F,0,0,1,0,0,0,1 @ F,0,0,1,0,0,0,1 @ F,0,0,1,0,0,0,1 @ F,0,0,1,0,0,0,1 @ F,0,0,1,0,0,0,1 @ F,0,0,1,0,0,0,1 @ F,0,0,1,0,0,0,1 @ F,0,0,1,0,0,0,1 @ F,0,0,1,0,0,0,1 @ F,0,0,1,0,0,0,1 @ F,0,0,1,0,0,0,1 @ F,0,0,1,0,0,0,1 @ F,0,0,1,0,0,0,1 @ F,0,0,1,0,0,0,1 @ F,0,0,1,0,0,0,1 @ F,0,0,1,0,16.822608,0,1 @ F,0,0,1,0,24.090679,0,1 @ F,0,0,1,0,0,0,1 @ F,0,0,1,0,0,0,1 @ F,0,0,1,0,0,0,1 @ F,0,0,1,0,0,0,1 @ F,0,0,1,0,0,0,1 @ F,0,0,1,0,0,0,1 @ F,0,0,1,0,0,0,1" unit="px" method="auto" mode="F" radius="0" chamfer_steps="1" flexible="false" use_knot_distance="true" apply_no_radius="true" apply_with_radius="true" only_selected="true" hide_knots="false" /><ns2:path-effect effect="spiro" id="path-effect851" is_visible="true" lpeversion="1" />
  <style type="text/css" id="style2">
   
    .fil0 {fill:#EF7F1A;fill-rule:nonzero}
   
  </style>
 <ns2:path-effect effect="spiro" id="path-effect1214" is_visible="true" lpeversion="1" /><ns2:path-effect effect="spiro" id="path-effect1195" is_visible="true" lpeversion="1" /><ns2:path-effect effect="spiro" id="path-effect992" is_visible="true" lpeversion="1" /><ns2:path-effect effect="spiro" id="path-effect1060" is_visible="true" lpeversion="1" /><ns2:path-effect effect="spiro" id="path-effect1047" is_visible="true" lpeversion="1" /><ns2:path-effect effect="spiro" id="path-effect1085" is_visible="true" lpeversion="1" /><ns2:path-effect effect="spiro" id="path-effect1286" is_visible="true" lpeversion="1" /><ns2:path-effect effect="spiro" id="path-effect1305" is_visible="true" lpeversion="1" /><ns2:path-effect effect="spiro" id="path-effect1078" is_visible="true" lpeversion="1" /><ns2:path-effect effect="fillet_chamfer" id="path-effect888" is_visible="true" lpeversion="1" satellites_param="F,0,0,1,0,0,0,1 @ F,0,0,1,0,0,0,1 @ F,0,0,1,0,0,0,1 @ F,0,0,1,0,0,0,1 @ F,0,0,1,0,0,0,1 @ F,0,0,1,0,0,0,1 @ F,0,0,1,0,0,0,1 @ F,0,0,1,0,0,0,1 @ F,0,0,1,0,0,0,1 @ F,0,0,1,0,0,0,1 @ F,0,0,1,0,29.36034,0,1 @ F,0,0,1,0,29.36034,0,1 @ F,0,0,1,0,0,0,1 @ F,0,0,1,0,0,0,1 @ F,0,0,1,0,0,0,1 @ F,0,0,1,0,0,0,1 @ F,0,0,1,0,0,0,1 @ F,0,0,1,0,0,0,1 @ F,0,0,1,0,0,0,1 @ F,0,0,1,0,0,0,1 @ F,0,0,1,0,0,0,1 @ F,0,0,1,0,0,0,1 @ F,0,0,1,0,14.315946,0,1 @ F,0,0,1,0,0,0,1 @ F,0,0,1,0,12.192539,0,1" unit="px" method="auto" mode="F" radius="0" chamfer_steps="1" flexible="false" use_knot_distance="true" apply_no_radius="true" apply_with_radius="true" only_selected="true" hide_knots="false" /></defs>
 
<path style="clip-rule:evenodd;display:inline;fill:#63452c;fill-rule:nonzero;stroke:none;stroke-width:1.92017px;stroke-linecap:butt;stroke-linejoin:miter;stroke-opacity:1;image-rendering:optimizeQuality;shape-rendering:geometricPrecision;text-rendering:geometricPrecision" d="m 669.53521,724.08949 c 37.36968,-1.25017 74.86247,-3.25334 111.57027,-10.36628 36.70779,-7.11294 72.79066,-19.51515 103.93163,-40.21046 39.95713,-26.55425 70.4904,-66.18439 89.12373,-110.3941 18.63334,-44.20972 25.6919,-92.83734 23.82896,-140.77719 -1.80502,-46.44934 -12.27758,-93.52242 -37.42194,-132.61923 -12.57218,-19.5484 -28.73944,-36.89362 -47.95033,-49.97572 -19.2109,-13.08211 -41.49968,-21.82542 -64.61052,-24.29295 -23.30083,-2.48782 -47.17743,1.45263 -68.6997,10.7214 -21.52226,9.26877 -40.6802,23.79633 -55.89968,41.61446 -30.43896,35.63625 -44.38089,83.77933 -42.49592,130.60795 2.66682,66.25229 37.31473,130.27538 90.5222,169.63272 9.66319,7.14782 11.46725,19.12439 3.23292,27.88765 l -59.61779,63.44734 c -7.66827,8.16083 -20.0077,8.065 -27.07819,-0.61736 -55.84337,-68.57411 -89.13639,-155.34284 -93.07786,-243.72312 -2.76993,-62.11056 8.85415,-125.33443 37.34548,-180.59416 20.93955,-40.61285 51.15476,-76.8696 89.29954,-102.026 38.14477,-25.15639 84.39815,-38.764012 129.9334,-34.968001 41.21712,3.436031 80.70661,20.962971 112.84181,47.001131 32.1352,26.03816 57.10458,60.31367 74.80678,97.694 35.5984,75.17022 41.8191,162.14924 27.2414,244.03511 -12.4502,69.93542 -39.8114,137.44024 -81.5189,194.94203 -34.83961,48.0331 -81.42881,89.96098 -138.24719,107.06798 -42.37922,12.75963 -87.55577,11.03355 -131.80003,9.9149 -84.2576,-2.13032 -168.58147,-1.6385 -252.80849,1.47428 -6.25179,0.23105 -15.19474,-2.83714 -19.97538,-6.87245 l -41.32098,-34.87887 c -4.78064,-4.03531 -7.24185,-12.17696 -5.46874,-18.17648 4.38649,-14.84221 8.90244,-29.64615 13.54718,-44.40958 15.8343,-50.32978 33.16267,-100.18068 48.90411,-150.53959 10.58727,-33.87004 20.45598,-67.96857 29.30428,-102.33393 8.5108,-33.05459 16.12539,-67.29829 11.21809,-101.07636 -3.53936,-24.36225 -14.05376,-48.24373 -32.25377,-64.821 -13.57796,-12.36733 -31.23032,-20.30574 -49.53976,-21.74662 -17.68489,-1.39173 -35.51029,3.19872 -51.36842,11.1493 -15.85814,7.95059 -29.88705,19.15523 -42.72524,31.39749 -37.6795,35.93048 -65.85658,81.38839 -83.32076,130.4368 -11.16705,31.36283 -18.05674,64.27963 -19.94386,97.51769 -1.1854,20.87851 -0.26868,42.47704 8.22019,61.58872 4.24444,9.55585 10.38365,18.35078 18.3778,25.09043 7.99415,6.73965 17.88841,11.35714 28.28711,12.45088 9.77367,1.028 19.77298,-1.07592 28.57969,-5.4375 8.80671,-4.36158 16.44062,-10.92307 22.55464,-18.61724 12.22804,-15.38834 18.23291,-34.84203 21.51788,-54.22075 6.77502,-39.96722 2.9307,-81.45213 -9.17604,-120.13942 -12.43441,-39.73435 -33.69875,-76.89368 -62.96796,-106.50358 -13.89074,-14.05243 -29.75836,-26.51406 -47.99478,-34.1204 -18.23641,-7.60634 -39.05,-10.06856 -57.93687,-4.26256 -20.52853,6.31066 -37.32522,21.92498 -48.41104,40.31925 -11.08582,18.39428 -16.95754,39.46785 -20.853819,60.58807 -9.140779,49.54862 -8.002762,100.75956 1.093449,150.31638 15.34066,83.57702 52.61871,161.20606 86.3024,239.218 3.19624,7.40255 6.36309,14.81779 9.50044,22.24549 7.79673,18.45881 -2.21083,35.43788 -22.10664,37.82082 L 47.966517,846.64763 c -9.796234,1.17331 -15.263821,-5.48491 -12.598528,-14.98377 5.796135,-20.65688 10.234443,-41.6948 13.273384,-62.93317 C 68.580695,629.37994 28.033195,489.42545 13.101344,349.44956 9.8737018,319.19262 7.8457497,288.61744 11.101251,258.36349 c 3.283695,-30.51596 12.15815,-60.83639 29.078618,-86.44311 14.892688,-22.53797 36.516724,-41.35554 62.380851,-49.15291 27.77132,-8.37234 58.01582,-3.51524 85.27409,6.40087 63.02085,22.92594 114.35202,71.97367 148.9315,129.43223 34.57948,57.45856 53.59398,123.05057 65.40483,189.06368 7.08759,39.61393 11.71769,80.01991 7.99705,120.09052 -3.72064,40.07061 -16.23039,80.02507 -40.68235,111.98753 -10.51038,13.73868 -23.19148,25.92393 -37.89768,35.03147 -14.70619,9.10754 -31.47885,15.07688 -48.73257,16.31313 -16.00106,1.14649 -32.22089,-1.79913 -47.00034,-8.03744 -14.77944,-6.23831 -28.12111,-15.72781 -39.23533,-27.29597 -22.22845,-23.13634 -35.18242,-54.173 -39.91928,-85.90557 -5.58025,-37.38245 -0.34249,-75.4748 5.98385,-112.73824 7.63348,-44.96279 16.9257,-89.89559 33.24589,-132.48167 30.16771,-78.71998 83.60878,-146.99762 146.07663,-203.60763 16.14426,-14.63035 33.00921,-28.61809 51.69243,-39.8262 18.68321,-11.20811 39.30948,-19.60385 60.92224,-22.355706 28.91229,-3.681274 59.40536,3.326596 82.69358,20.851756 14.62674,11.0071 26.17916,25.8458 34.29483,42.25414 8.11567,16.40834 12.86676,34.36256 15.0759,52.53444 6.0761,49.98059 -6.79713,100.10796 -19.55051,148.81453 -13.43771,51.3201 -26.8637,102.64332 -40.17962,153.99516 -12.9179,49.81693 -25.79731,100.07452 -28.38507,151.47396 -1.89391,37.61777 1.79524,75.5119 10.90931,112.058 l -91.4264,-59.42197 c 83.73312,4.59669 167.6692,5.49486 251.48151,2.691 z" id="path1087-2" ns2:path-effect="#path-effect1078;#path-effect862" ns2:original-d="m 669.53521,724.08949 c 73.34055,-8.0935 158.56462,-3.64607 215.5019,-50.57674 70.83815,-58.38848 122.33049,-159.85144 112.95269,-251.17129 -8.7013,-84.73228 -64.94054,-202.08305 -149.98279,-206.8879 -82.45803,-4.65884 -158.8066,100.77126 -167.0953,182.94381 -7.0812,70.20175 108.6647,181.65308 108.6647,181.65308 l -88.412,94.09113 c 0,0 -97.635,-166.16304 -106.27142,-259.11698 C 589.2061,353.81651 605.5747,289.81829 632.23847,234.43044 673.37551,155.64876 765.40364,93.200448 851.47141,97.436439 930.36162,101.31917 1000.3854,173.29575 1039.12,242.13157 c 40.1394,71.3323 38.8617,163.01389 27.2414,244.03511 -9.9994,69.71994 -38.6727,139.03977 -81.5189,194.94203 -35.45698,46.26141 -83.84277,86.1521 -138.24719,107.06798 -41.12311,15.80986 -87.77986,8.10221 -131.80003,9.9149 C 626.82495,801.71408 450.66752,800 450.66752,800 l -58.6332,-49.49203 c 0,0 10.97102,-36.91012 16.73455,-55.27948 15.79503,-50.34154 33.48859,-100.08055 48.90411,-150.53959 10.36705,-33.93407 22.45607,-67.6587 29.30428,-102.33393 6.58485,-33.34175 17.24519,-67.65037 11.21809,-101.07636 -4.20986,-23.34751 -13.90813,-47.78591 -32.25377,-64.821 -12.76004,-11.84848 -31.5058,-21.84594 -49.53976,-21.74662 -34.42145,0.18958 -68.06814,20.01805 -94.09366,42.54679 -39.00773,33.76665 -63.94035,82.62269 -83.32076,130.4368 -12.46338,30.74887 -24.96634,64.7213 -19.94386,97.51769 5.71748,37.33472 17.39243,94.56159 54.8851,99.13003 35.33732,4.30582 60.91608,-44.66702 72.65221,-78.27549 13.24094,-37.91772 2.88802,-81.83102 -9.17604,-120.13942 -12.38808,-39.33728 -31.21919,-80.18054 -62.96796,-106.50358 -28.91214,-23.97118 -70.17413,-49.86901 -105.93165,-38.38296 -38.84272,12.47708 -57.40741,62.89226 -69.264859,100.90732 -15.054426,48.26456 -7.717135,100.99029 1.093449,150.31638 14.90561,83.44909 55.49407,160.24474 86.3024,239.218 7.32568,18.77845 -0.1991,36.74082 23.41834,55.75161 L 30.228866,848.77209 C 53.610163,816.89798 46.705475,796.03945 48.641373,768.73069 58.559522,628.82023 20.56792,489.51225 13.101344,349.44956 11.484686,319.12328 6.4873781,288.44985 11.101251,258.36349 15.67284,228.55287 22.011503,197.24776 40.179869,171.92038 55.143242,151.06089 76.24619,130.54641 102.56072,122.76747 c 27.08294,-8.00609 61.05248,-7.06993 85.27409,6.40087 117.6677,65.44058 185.69234,197.26846 214.33633,318.49591 18.02515,76.28638 13.29086,165.82562 -32.6853,232.07805 -18.26618,26.32183 -52.22679,54.99263 -86.63025,51.3446 -61.30481,-6.50064 -117.08592,-57.90829 -126.15495,-121.23898 -4.96717,-37.47677 0.35944,-75.45418 5.98385,-112.73824 6.76613,-44.85243 14.09619,-91.17485 33.24589,-132.48167 35.1322,-75.78185 83.63708,-148.12372 146.07663,-203.60763 32.05387,-28.48313 70.08905,-56.67635 112.61467,-62.181906 28.19206,-3.649867 60.87961,4.258636 82.69358,20.851756 29.6906,22.5846 43.18124,60.3761 49.37073,94.78858 8.86938,49.31228 -9.95799,99.71165 -19.55051,148.81453 -10.17138,52.06598 -28.59036,102.22632 -40.17962,153.99516 -11.22225,50.12941 -26.12049,100.1537 -28.38507,151.47396 -1.65442,37.49278 10.90931,112.058 10.90931,112.058 l -91.4264,-59.42197 c 0,0 168.15539,11.88646 251.48151,2.691 z" ns1:nodetypes="aaaaaccacaaaaaaccaaaaaaaaaaaaaaaaaccaaaaaaaaacaaaaaaaaacca" /><text text-anchor="middle" x="909.76257" y="760.56183" id="bottom" ns2:label="bottom" style="clip-rule:evenodd;fill-rule:evenodd;image-rendering:optimizeQuality;shape-rendering:geometricPrecision;text-rendering:geometricPrecision">✛</text></svg>