<?xml version="1.0" encoding="UTF-8" standalone="no"?>
<svg
   xmlns:dc="http://purl.org/dc/elements/1.1/"
   xmlns:cc="http://creativecommons.org/ns#"
   xmlns:rdf="http://www.w3.org/1999/02/22-rdf-syntax-ns#"
   xmlns:svg="http://www.w3.org/2000/svg"
   xmlns="http://www.w3.org/2000/svg"
   xmlns:sodipodi="http://sodipodi.sourceforge.net/DTD/sodipodi-0.dtd"
   xmlns:inkscape="http://www.inkscape.org/namespaces/inkscape"
   xml:space="preserve"
   width="1000"
   height="1000"
   version="1.1"
   style="clip-rule:evenodd;fill-rule:evenodd;image-rendering:optimizeQuality;shape-rendering:geometricPrecision;text-rendering:geometricPrecision"
   viewBox="0 0 1000 1000"
   id="svg10"
   sodipodi:docname="തൂ.svg"
   inkscape:version="1.0.2 (e86c870879, 2021-01-15)"><metadata
   id="metadata14"><rdf:RDF><cc:Work
       rdf:about=""><dc:format>image/svg+xml</dc:format><dc:type
         rdf:resource="http://purl.org/dc/dcmitype/StillImage" /><dc:title /></cc:Work></rdf:RDF></metadata><sodipodi:namedview
   pagecolor="#ffffff"
   bordercolor="#666666"
   borderopacity="1"
   objecttolerance="10"
   gridtolerance="10"
   guidetolerance="10"
   inkscape:pageopacity="0"
   inkscape:pageshadow="2"
   inkscape:window-width="1920"
   inkscape:window-height="1007"
   id="namedview12"
   showgrid="false"
   inkscape:zoom="0.6002692"
   inkscape:cx="469.69598"
   inkscape:cy="360.68227"
   inkscape:window-x="1920"
   inkscape:window-y="0"
   inkscape:window-maximized="1"
   inkscape:current-layer="svg10"
   showguides="true"
   inkscape:guide-bbox="true"
   inkscape:document-rotation="0"><sodipodi:guide
   position="0,1000"
   orientation="0,1"
   id="guide16"
   inkscape:label=""
   inkscape:locked="true"
   inkscape:color="rgb(0,0,255)" /><sodipodi:guide
   position="1763.3122,2036.1693"
   orientation="1000,0"
   id="guide18" /><sodipodi:guide
   position="0,200"
   orientation="0,1"
   id="guide20"
   inkscape:label="base"
   inkscape:locked="true"
   inkscape:color="rgb(0,0,255)" /><inkscape:grid
   type="xygrid"
   id="grid24"
   originx="-473.37552"
   originy="-489.69235" /><sodipodi:guide
   position="0,0"
   orientation="0,1"
   id="guide34"
   inkscape:label="bottom"
   inkscape:locked="true"
   inkscape:color="rgb(0,0,255)" /><sodipodi:guide
   position="225.05109,1693.3186"
   orientation="0,1"
   id="guide44"
   inkscape:label=""
   inkscape:locked="false"
   inkscape:color="rgb(0,0,255)" /><sodipodi:guide
   position="0,900"
   orientation="0,1"
   id="guide46"
   inkscape:label=""
   inkscape:locked="true"
   inkscape:color="rgb(0,0,255)" /><sodipodi:guide
   position="598.49734,900"
   orientation="1,0"
   id="guide841"
   inkscape:label="width" />    </sodipodi:namedview>
 <defs
   id="defs4"><inkscape:path-effect
   effect="fillet_chamfer"
   id="path-effect848"
   is_visible="true"
   lpeversion="1"
   satellites_param="F,0,0,1,0,0,0,1 @ F,0,0,1,0,0,0,1 @ F,0,0,1,0,0,0,1 @ F,0,0,1,0,0,0,1 @ F,0,0,1,0,0,0,1 @ F,0,0,1,0,0,0,1 @ F,0,0,1,0,0,0,1 @ F,0,0,1,0,0,0,1 @ F,0,0,1,0,0,0,1 @ F,0,0,1,0,0,0,1 @ F,0,0,1,0,0,0,1 @ F,0,0,1,0,0,0,1 @ F,0,0,1,0,0,0,1 @ F,0,0,1,0,0,0,1 @ F,0,0,1,0,0,0,1 @ F,0,0,1,0,0,0,1 @ F,0,0,1,0,0,0,1 @ F,0,0,1,0,0,0,1 @ F,0,0,1,0,0,0,1 @ F,0,0,1,0,0,0,1 @ F,0,0,1,0,0,0,1 @ F,0,0,1,0,0,0,1 @ F,0,0,1,0,0,0,1 @ F,0,0,1,0,0,0,1 @ F,0,0,1,0,30.1977,0,1 @ F,0,0,1,0,28.864206,0,1 @ F,0,0,1,0,0,0,1 @ F,0,0,1,0,0,0,1 @ F,0,0,1,0,0,0,1 @ F,0,0,1,0,37.912251,0,1 @ F,0,0,1,0,23.422889,0,1 @ F,0,0,1,0,0,0,1 @ F,0,0,1,0,0,0,1 @ F,0,0,1,0,0,0,1 @ F,0,0,1,0,0,0,1 @ F,0,0,1,0,0,0,1 @ F,0,0,1,0,0,0,1 @ F,0,0,1,0,18.925322,0,1 @ F,0,0,1,0,32.336751,0,1 @ F,0,0,1,0,0,0,1 @ F,0,0,1,0,0,0,1 @ F,0,0,1,0,0,0,1 @ F,0,0,1,0,0,0,1 @ F,0,0,1,0,0,0,1 @ F,0,0,1,0,0,0,1 @ F,0,0,1,0,0,0,1 @ F,0,0,1,0,0,0,1 @ F,0,0,1,0,0,0,1 @ F,0,0,1,0,0,0,1 @ F,0,0,1,0,0,0,1 @ F,0,0,1,0,0,0,1 @ F,0,0,1,0,0,0,1 @ F,0,0,1,0,0,0,1 @ F,0,0,1,0,0,0,1 @ F,0,0,1,0,0,0,1 @ F,0,0,1,0,0,0,1 @ F,0,0,1,0,0,0,1 @ F,0,0,1,0,0,0,1 @ F,0,0,1,0,0,0,1 @ F,0,0,1,0,0,0,1 @ F,0,0,1,0,0,0,1 @ F,0,0,1,0,0,0,1 @ F,0,0,1,0,0,0,1 @ F,0,0,1,0,29.242678,0,1 @ F,0,0,1,0,30.244813,0,1 @ F,0,0,1,0,0,0,1 @ F,0,0,1,0,0,0,1 @ F,0,0,1,0,0,0,1 @ F,0,0,1,0,0,0,1 @ F,0,0,1,0,0,0,1 @ F,0,0,1,0,0,0,1 @ F,0,0,1,0,0,0,1"
   unit="px"
   method="auto"
   mode="F"
   radius="0"
   chamfer_steps="1"
   flexible="false"
   use_knot_distance="true"
   apply_no_radius="true"
   apply_with_radius="true"
   only_selected="true"
   hide_knots="false" /><inkscape:path-effect
   effect="spiro"
   id="path-effect851"
   is_visible="true"
   lpeversion="1" />
  <style
   type="text/css"
   id="style2">
   <![CDATA[
    .fil0 {fill:#EF7F1A;fill-rule:nonzero}
   ]]>
  </style>
 <inkscape:path-effect
   effect="spiro"
   id="path-effect1214"
   is_visible="true"
   lpeversion="1" /><inkscape:path-effect
   effect="spiro"
   id="path-effect1195"
   is_visible="true"
   lpeversion="1" /><inkscape:path-effect
   effect="spiro"
   id="path-effect992"
   is_visible="true"
   lpeversion="1" /><inkscape:path-effect
   effect="spiro"
   id="path-effect1060"
   is_visible="true"
   lpeversion="1" /><inkscape:path-effect
   effect="spiro"
   id="path-effect1047"
   is_visible="true"
   lpeversion="1" /><inkscape:path-effect
   effect="spiro"
   id="path-effect1085"
   is_visible="true"
   lpeversion="1" /><inkscape:path-effect
   effect="spiro"
   id="path-effect1286"
   is_visible="true"
   lpeversion="1" /><inkscape:path-effect
   effect="spiro"
   id="path-effect1305"
   is_visible="true"
   lpeversion="1" /></defs>
 
<path
   id="path1210-6"
   style="display:inline;fill:#1a1a1a;fill-rule:nonzero;stroke:none;stroke-width:2.22142px;stroke-linecap:butt;stroke-linejoin:miter;stroke-opacity:1"
   d="m 394.17114,447.66425 c 7.08709,39.61399 11.71723,80.01991 7.99674,120.09051 -3.7205,40.07061 -16.23001,80.02516 -40.68204,111.98754 -10.5104,13.73864 -23.19156,25.9238 -37.89776,35.03129 -14.7062,9.1075 -31.4788,15.07685 -48.73249,16.31331 -16.00119,1.1467 -32.2212,-1.79862 -47.0009,-8.03669 -14.7797,-6.23807 -28.12168,-15.7274 -39.23612,-27.29556 -22.22888,-23.1363 -35.18286,-54.17361 -39.91793,-85.90673 -5.57806,-37.38257 -0.33607,-75.47392 5.98385,-112.73824 7.6259,-44.96479 16.89624,-89.90615 33.24589,-132.48167 30.21692,-78.68676 83.81998,-146.78528 146.07663,-203.60763 16.1047,-14.69894 32.9135,-28.78657 51.59253,-40.03442 18.67903,-11.24785 39.365,-19.61992 61.02214,-22.147486 28.87212,-3.369609 58.92782,4.114296 82.69358,20.851756 22.20035,15.63499 38.49576,38.72558 48.83595,63.83312 10.34019,25.10755 15.01432,52.23288 17.00139,79.3135 4.27127,58.21074 -4.0654,118.41745 -31.71317,169.82109 -11.25334,20.92259 -25.58792,40.18463 -42.39789,56.97204 42.83671,24.66965 73.94754,68.79483 82.7945,117.42925 5.64427,31.02828 2.51806,63.42771 -7.62821,93.28848 -10.14628,29.86076 -27.18938,57.19963 -48.50157,80.44619 -42.62438,46.49312 -101.24946,75.90258 -161.88698,93.26748 -30.77777,8.8139 -62.37109,14.77768 -94.24398,17.79017 42.74532,3.10705 85.8473,1.27981 128.17629,-5.43384 51.22369,-8.1244 101.29853,-23.4363 148.32736,-45.2999 15.12146,-7.02993 27.02487,0.0539 27.02487,16.73167 v 88.57215 c 0,15.94126 -12.27325,32.96617 -27.72557,36.87176 -38.6553,9.77018 -78.66799,14.17316 -118.52258,12.99135 C 385.2507,994.39866 323.0309,978.50367 260.40191,967.24496 197.77292,955.98624 132.53683,949.44132 71.097074,966.00349 c -14.539677,3.91943 -28.733812,9.1152 -42.374768,15.49373 -18.9503084,8.8612 -32.518309,1.53728 -31.8600718,-19.39073 l 2.65052958,-84.271 C -0.0805651,864.90578 10.312407,851.46626 22.825525,848.18679 c 34.730357,-9.10221 70.014537,-16.09131 105.592745,-20.91228 88.31787,-11.96738 179.9655,-10.95617 262.96649,-43.42308 30.49403,-11.92813 59.54094,-28.45015 83.03887,-51.25395 23.49793,-22.80379 41.22975,-52.20063 47.08205,-84.41734 2.82144,-15.53191 2.85973,-31.6626 -0.83947,-47.00915 -3.6992,-15.34656 -11.22179,-29.88175 -22.31427,-41.11375 -12.39841,-12.55436 -29.21763,-20.53385 -46.71351,-22.6481 -10.35011,-1.25074 -18.05764,-8.3901 -17.04714,-18.79331 l 4.52185,-46.55296 c 1.72658,-17.77544 17.27604,-25.11115 34.70191,-27.68523 0.47566,-0.0703 0.95043,-0.1468 1.42414,-0.22963 11.09354,-1.93962 21.56047,-7.32085 29.59304,-15.2143 11.95384,-11.7468 18.11129,-28.54892 19.14969,-45.27624 1.0384,-16.72732 -2.6823,-33.4445 -8.23936,-49.25591 -6.86038,-19.51975 -16.68255,-38.21802 -30.60675,-53.52169 -13.9242,-15.30367 -32.15223,-27.07952 -52.39107,-31.37775 -21.70537,-4.60968 -44.67155,-0.42035 -64.83245,8.84844 -20.16089,9.26878 -37.75752,23.37477 -53.60413,38.90722 -37.15808,36.42141 -65.72191,81.47229 -83.32076,130.4368 -11.26148,31.33233 -18.08683,64.27484 -19.94386,97.51769 -1.16621,20.87639 -0.24645,42.46931 8.23831,61.57932 4.24238,9.55501 10.37788,18.35027 18.36846,25.09167 7.99059,6.7414 17.88157,11.36206 28.27833,12.45904 9.77394,1.03127 19.77459,-1.07081 28.58231,-5.4317 8.80772,-4.3609 16.44235,-10.92276 22.55644,-18.61765 12.22818,-15.38977 18.23064,-34.84582 21.51346,-54.22614 6.77009,-39.9676 2.92434,-81.45061 -9.17604,-120.13942 -12.42835,-39.73744 -33.68249,-76.90815 -62.96796,-106.50358 -13.89481,-14.04187 -29.76916,-26.4859 -48.00362,-34.08487 -18.23447,-7.59897 -39.03471,-10.06716 -57.92803,-4.29809 -20.55506,6.27648 -37.41237,21.85129 -48.52656,40.24638 -11.11419,18.39509 -16.974037,39.50119 -20.738299,60.66094 -8.816869,49.56157 -6.746131,100.59086 1.093451,150.31638 11.180808,70.91849 34.036318,139.85127 65.913818,204.18064 6.43743,12.99086 13.24175,25.79989 20.40173,38.40693 7.9753,14.04262 1.8294,25.34459 -14.31906,25.58724 L 39.330408,802.31767 C 22.628544,802.56864 14.693644,790.41929 20.278224,774.68104 30.36305,746.26037 37.218843,716.69322 40.641373,686.73069 53.513156,574.0447 18.046108,462.12718 5.101344,349.44956 1.6278425,319.21449 -0.221093,288.61555 3.1012509,258.36349 6.4514235,227.85804 15.27574,197.53399 32.179869,171.92038 c 14.880513,-22.54737 36.514314,-41.35961 62.380854,-49.15291 27.772367,-8.36751 58.015467,-3.51314 85.274087,6.40087 63.02302,22.92158 114.35584,71.96987 148.93482,129.42937 34.57898,57.45949 53.5914,123.05275 65.40151,189.06654 z"
   sodipodi:nodetypes="aaacaaaaasacaacaccaaccaaaaccaaaaaaaaaaaaaaccaaaaaaa"
   inkscape:original-d="m 394.17114,447.66425 c 18.02515,76.28638 13.29086,165.82562 -32.6853,232.07805 -18.26618,26.32183 -52.22679,54.99263 -86.63025,51.3446 -61.30481,-6.50064 -117.08592,-57.90829 -126.15495,-121.23898 -4.96717,-37.47677 0.35944,-75.45418 5.98385,-112.73824 6.76613,-44.85243 14.09619,-91.17485 33.24589,-132.48167 35.1322,-75.78185 83.63708,-148.12372 146.07663,-203.60763 32.05387,-28.48313 70.08905,-56.67635 112.61467,-62.181906 28.19206,-3.649867 60.83006,2.683096 82.69358,20.851756 40.39352,33.56716 62.56341,90.72838 65.83734,143.14662 3.73609,59.81763 -8.64317,117.05863 -31.71317,169.82109 -9.48362,21.68959 -12.21051,56.90332 -42.39789,56.97204 22.33742,29.58533 84.48552,69.56506 82.7945,117.42925 -4.05689,114.82998 -119.24748,208.29088 -218.01676,267.00215 -27.4809,16.33543 -84.44868,17.68679 -94.24398,17.79017 2.85696,9.52323 86.12552,2.34277 128.17629,-5.43384 60.61793,-11.2103 168.12559,-73.85335 175.35223,-58.76593 v 147.63406 c 8.19997,-7.44713 -97.02295,19.45715 -146.24815,20.9989 C 322.59414,1000.2393 195.56232,944.4161 71.097074,966.00349 43.924678,970.7163 18.171835,1002.5667 -4.3296097,1000 L 0.24910698,854.42418 c 0,0 85.25295202,-19.06519 128.16916302,-27.14967 87.30692,-16.44672 184.36826,-2.00676 262.96649,-43.42308 55.43609,-29.21132 114.38815,-75.01701 130.12092,-135.67129 7.62549,-29.39843 -2.4977,-65.8576 -23.15374,-88.1229 -15.72799,-16.95332 -65.59032,-22.60474 -65.59032,-22.60474 l 9.47778,-97.57491 c 0,0 48.05776,4.46253 62.59283,-10.94388 21.7674,-23.07232 21.17644,-64.51951 10.91033,-94.53215 -12.80883,-37.4462 -44.26415,-76.77623 -82.99782,-84.89944 -41.66105,-8.73713 -85.68299,20.56774 -118.43658,47.75566 -39.69803,32.95233 -63.94035,82.62269 -83.32076,130.4368 -12.46338,30.74887 -24.96634,64.7213 -19.94386,97.51769 5.71748,37.33472 17.39243,94.56159 54.8851,99.13003 35.33732,4.30582 60.91608,-44.66702 72.65221,-78.27549 13.24094,-37.91772 2.88802,-81.83102 -9.17604,-120.13942 -12.38808,-39.33728 -31.21919,-80.18054 -62.96796,-106.50358 -28.91214,-23.97118 -70.17413,-49.86901 -105.93165,-38.38296 -38.84272,12.47708 -57.40741,62.89226 -69.264859,100.90732 -15.054426,48.26456 -6.877949,100.84774 1.093451,150.31638 11.377788,70.6079 37.421378,138.58254 65.913818,204.18064 9.65578,22.23049 11.70461,44.54402 35.32205,63.55481 L 9.0890088,802.77209 C 32.470306,770.89798 37.427958,726.68653 40.641373,686.73069 49.70402,574.04506 12.271747,462.27141 5.101344,349.44956 3.175104,319.14137 -1.5126219,288.44985 3.1012509,258.36349 7.6728396,228.55287 14.011503,197.24776 32.179869,171.92038 47.143242,151.06089 68.24619,130.54641 94.560723,122.76747 c 27.082937,-8.00609 61.052477,-7.06993 85.274087,6.40087 117.6677,65.44058 185.69234,197.26846 214.33633,318.49591 z"
   inkscape:path-effect="#path-effect1305;#path-effect848" /></svg>
