<?xml version="1.0" encoding="UTF-8" standalone="no"?>
<svg
   xmlns:dc="http://purl.org/dc/elements/1.1/"
   xmlns:cc="http://creativecommons.org/ns#"
   xmlns:rdf="http://www.w3.org/1999/02/22-rdf-syntax-ns#"
   xmlns:svg="http://www.w3.org/2000/svg"
   xmlns="http://www.w3.org/2000/svg"
   xmlns:sodipodi="http://sodipodi.sourceforge.net/DTD/sodipodi-0.dtd"
   xmlns:inkscape="http://www.inkscape.org/namespaces/inkscape"
   xml:space="preserve"
   width="1000"
   height="1000"
   version="1.1"
   style="clip-rule:evenodd;fill-rule:evenodd;image-rendering:optimizeQuality;shape-rendering:geometricPrecision;text-rendering:geometricPrecision"
   viewBox="0 0 1000 1000"
   id="svg10"
   sodipodi:docname="ത്ര_small.svg"
   inkscape:version="1.0.1 (3bc2e813f5, 2020-09-07)"><metadata
   id="metadata14"><rdf:RDF><cc:Work
       rdf:about=""><dc:format>image/svg+xml</dc:format><dc:type
         rdf:resource="http://purl.org/dc/dcmitype/StillImage" /><dc:title /></cc:Work></rdf:RDF></metadata><sodipodi:namedview
   pagecolor="#ffffff"
   bordercolor="#666666"
   borderopacity="1"
   objecttolerance="10"
   gridtolerance="10"
   guidetolerance="10"
   inkscape:pageopacity="0"
   inkscape:pageshadow="2"
   inkscape:window-width="1920"
   inkscape:window-height="1015"
   id="namedview12"
   showgrid="false"
   inkscape:zoom="0.6002692"
   inkscape:cx="430.38462"
   inkscape:cy="594.60951"
   inkscape:window-x="1920"
   inkscape:window-y="0"
   inkscape:window-maximized="1"
   inkscape:current-layer="svg10"
   showguides="true"
   inkscape:guide-bbox="true"
   inkscape:document-rotation="0"><sodipodi:guide
     position="0,1000"
     orientation="0,1"
     id="guide16"
     inkscape:label=""
     inkscape:locked="true"
     inkscape:color="rgb(0,0,255)" /><sodipodi:guide
     position="1763.3122,2036.1693"
     orientation="1000,0"
     id="guide18" /><sodipodi:guide
     position="0,200"
     orientation="0,1"
     id="guide20"
     inkscape:label="base"
     inkscape:locked="true"
     inkscape:color="rgb(0,0,255)" /><inkscape:grid
     type="xygrid"
     id="grid24"
     originx="-473.37552"
     originy="-489.69235" /><sodipodi:guide
     position="0,0"
     orientation="0,1"
     id="guide34"
     inkscape:label="bottom"
     inkscape:locked="true"
     inkscape:color="rgb(0,0,255)" /><sodipodi:guide
     position="225.05109,1693.3186"
     orientation="0,1"
     id="guide44"
     inkscape:label=""
     inkscape:locked="false"
     inkscape:color="rgb(0,0,255)" /><sodipodi:guide
     position="0,900"
     orientation="0,1"
     id="guide46"
     inkscape:label=""
     inkscape:locked="true"
     inkscape:color="rgb(0,0,255)" /><sodipodi:guide
     position="865.16359,386.94071"
     orientation="1,0"
     id="guide841"
  inkscape:label="width"  />    </sodipodi:namedview>
 <defs
   id="defs4"><inkscape:path-effect
   effect="spiro"
   id="path-effect867"
   is_visible="true"
   lpeversion="1" />
  <style
   type="text/css"
   id="style2">
   <![CDATA[
    .fil0 {fill:#EF7F1A;fill-rule:nonzero}
   ]]>
  </style>
 <inkscape:path-effect
   effect="spiro"
   id="path-effect1214"
   is_visible="true"
   lpeversion="1" /><inkscape:path-effect
   effect="spiro"
   id="path-effect1195"
   is_visible="true"
   lpeversion="1" /><inkscape:path-effect
   effect="spiro"
   id="path-effect992"
   is_visible="true"
   lpeversion="1" /><inkscape:path-effect
   effect="spiro"
   id="path-effect1078"
   is_visible="true"
   lpeversion="1" /><inkscape:path-effect
   effect="spiro"
   id="path-effect851"
   is_visible="true"
   lpeversion="1" /><style
   type="text/css"
   id="style2-0">
   <![CDATA[
    .fil0 {fill:#EF7F1A;fill-rule:nonzero}
   ]]>
  </style><inkscape:path-effect
   effect="spiro"
   id="path-effect1060"
   is_visible="true"
   lpeversion="1" /><inkscape:path-effect
   effect="spiro"
   id="path-effect1047"
   is_visible="true"
   lpeversion="1" /><inkscape:path-effect
   effect="spiro"
   id="path-effect1085"
   is_visible="true"
   lpeversion="1" /><inkscape:path-effect
   effect="spiro"
   id="path-effect1286"
   is_visible="true"
   lpeversion="1" /><inkscape:path-effect
   effect="spiro"
   id="path-effect1305"
   is_visible="true"
   lpeversion="1" /></defs>
 
<g
   style="clip-rule:evenodd;fill-rule:evenodd;image-rendering:optimizeQuality;shape-rendering:geometricPrecision;text-rendering:geometricPrecision"
   id="g875"
   transform="translate(127.07007,638.65055)"><path
     id="path1210-6"
     style="display:inline;fill:#1a1a1a;fill-rule:nonzero;stroke:none;stroke-width:1.99396px;stroke-linecap:butt;stroke-linejoin:miter;stroke-opacity:1"
     d="m 436.92697,404.4807 c 6.57202,26.79693 10.13649,54.72081 6.17516,82.02603 -3.96133,27.30522 -15.99327,54.06033 -36.73887,72.25063 -23.18478,20.32903 -55.4951,28.32138 -86.24401,26.01745 -23.36537,-1.7507 -46.4071,-9.15425 -65.89193,-22.16757 -19.48483,-13.01332 -35.29452,-31.70464 -44.00536,-53.45611 -11.42381,-28.5259 -10.30237,-60.60421 -4.78164,-90.83254 5.07829,-27.80577 13.71815,-54.93153 25.24589,-80.73969 29.52385,-66.09762 79.9324,-124.54437 145.85547,-154.45593 33.63008,-15.25912 70.98331,-22.86954 107.78971,-19.851 31.23244,2.56141 62.22766,13.02166 86.7521,32.53006 24.21839,19.26494 41.20534,46.53314 51.9566,75.55174 10.75126,29.01859 15.61749,59.8783 18.7735,90.66317 6.48838,63.29001 5.7341,128.77599 -16.14549,188.51717 -16.48824,45.02034 -44.89169,85.667 -81.74321,116.33715 C 488.03433,713.3869 415.29842,735.48509 343.04151,743.63365 250.59744,754.05876 153.5467,742.45128 72.579111,696.63821 18.862633,666.24436 -26.474274,621.33605 -57.823301,568.17136 -74.417458,540.02939 -87.155293,509.61698 -95.569815,478.04908 l 129.095146,-4.05792 c -4.218844,27.16254 -1.400584,55.38777 8.105728,81.17987 9.506313,25.7921 25.67996,49.09487 46.517773,67.02217 26.793998,23.05155 60.640618,36.84748 95.305398,43.75003 34.66477,6.90255 70.30685,7.23663 105.62279,5.79559 45.50965,-1.85699 91.2801,-6.69985 134.65793,-20.59013 43.37783,-13.89029 84.49092,-37.33944 114.13951,-71.91598 38.91934,-45.3882 55.43661,-108.36197 46.95247,-167.54663 -6.92042,-48.27627 -30.0821,-94.29174 -65.66314,-127.6456 -18.93398,-17.74882 -42.2023,-32.25013 -68.00614,-35.02107 -17.01294,-1.82693 -34.32566,1.56423 -50.1779,8.00506 -15.85224,6.44082 -30.34677,15.85061 -43.91576,26.27463 -35.8687,27.55519 -66.24259,63.20913 -83.32076,105.09216 -6.82261,16.73198 -11.5124,34.50507 -11.94386,52.56942 -0.42079,17.61777 3.38891,35.61126 12.78802,50.51828 9.39912,14.90703 24.71761,26.43185 42.09708,29.3502 17.75311,2.98109 36.53506,-3.3316 49.82685,-15.47196 13.29178,-12.14036 21.17243,-29.66852 22.82536,-47.59414 2.25799,-24.48725 -6.48315,-48.65095 -17.17604,-70.79562 -15.53748,-32.17769 -35.83543,-62.55758 -62.96796,-85.8093 -14.54873,-12.4678 -31.10596,-22.84689 -49.31966,-28.79435 -18.21371,-5.94746 -38.16264,-7.30095 -56.61199,-2.13057 -18.02784,5.05225 -34.09096,16.20582 -46.1554,30.52286 -12.06443,14.31705 -20.23466,31.69215 -24.87557,49.83024 -7.92766,30.98369 -5.66863,64.02266 3.09245,94.78108 8.85354,31.08301 24.12232,60.00495 41.61643,87.18021 11.51089,17.88095 24.02754,35.11436 37.47107,51.59163 L 99.868171,596.11589 C 95.760657,564.56989 90.27999,533.20271 83.446891,502.13294 70.522438,443.36608 52.707501,385.3252 47.857171,325.34971 45.325496,294.04494 46.542698,261.63318 58.685475,232.66853 72.73935,199.14527 102.13404,171.85174 137.31655,162.71329 c 27.91377,-7.25043 57.66546,-3.18017 85.27409,5.15715 53.29618,16.09452 101.44992,48.03149 138.37646,89.69619 36.92654,41.66469 62.69883,92.84318 75.95987,146.91407 z"
     sodipodi:nodetypes="aaaaaaaaaaaaaaaccaaaaaaaaaaaaaaaaaccaaaaaa"
     inkscape:original-d="m 436.92697,404.4807 c 13.9952,50.52242 4.65756,115.4457 -30.56371,154.27666 -20.17381,22.24134 -56.57571,30.64904 -86.24401,26.01745 -43.93551,-6.85888 -88.1761,-36.8221 -109.89729,-75.62368 -14.81019,-26.45613 -8.56859,-60.75053 -4.78164,-90.83254 3.522,-27.9774 10.99296,-56.40878 25.24589,-80.73969 35.79284,-61.10129 83.64593,-120.62594 145.85547,-154.45593 32.09535,-17.45368 71.39796,-23.07327 107.78971,-19.851 30.76317,2.72389 64.4436,11.17302 86.7521,32.53006 43.49423,41.63921 61.22966,106.75641 70.7301,166.21491 9.95112,62.2791 5.4195,129.24945 -16.14549,188.51717 -16.20549,44.53803 -44.34982,87.21691 -81.74321,116.33715 C 487.3682,710.915 414.39155,736.72836 343.04151,743.63365 251.96206,752.44836 153.95461,738.48547 72.579111,696.63821 18.315934,668.73343 -23.634592,618.71145 -57.823301,568.17136 -76.072111,541.19472 -82.77863,497.18173 -95.569815,478.04908 l 129.095146,-4.05792 c -4.025072,34.71649 15.380587,113.10295 54.623501,148.20204 51.416848,45.98753 132.058428,53.4828 200.928188,49.54562 88.33523,-5.05 188.87431,-27.40745 248.79744,-92.50611 39.28103,-42.67371 52.79733,-109.84149 46.95247,-167.54663 -4.8218,-47.60462 -31.83674,-93.80444 -65.66314,-127.6456 -18.02584,-18.03371 -42.55892,-33.41345 -68.00614,-35.02107 -33.31474,-2.10464 -68.06814,16.12842 -94.09366,34.27969 -39.00773,27.20559 -64.00126,64.77739 -83.32076,105.09216 -7.76574,16.20507 -15.32587,34.92082 -11.94386,52.56942 6.07961,31.72572 22.84193,75.77967 54.8851,79.86848 31.81087,4.05916 62.90145,-32.51563 72.65221,-63.0661 7.38347,-23.13342 -6.93103,-48.77948 -17.17604,-70.79562 -14.96811,-32.16589 -31.21919,-64.60098 -62.96796,-85.8093 -28.91214,-19.31344 -70.59432,-41.14106 -105.93165,-30.92492 -34.34276,9.92861 -58.91918,46.71819 -71.03097,80.3531 -10.70962,29.74102 -4.39057,64.06906 3.09245,94.78108 7.62287,31.28604 25.14997,59.50749 41.61643,87.18021 10.8687,18.26539 13.85363,36.27475 37.47107,51.59163 L 99.868171,596.11589 C 123.24947,570.43511 89.322483,533.38772 83.446891,502.13294 72.341329,443.05772 50.331693,385.40878 47.857171,325.34971 c -1.280438,-31.0775 -3.535197,-65.09241 10.828304,-92.68118 16.200467,-31.11714 45.480335,-58.47659 78.631075,-69.95524 26.90917,-9.31747 59.60246,-7.16706 85.27409,5.15715 95.93626,46.05623 185.92716,134.05364 214.33633,236.61026 z"
     inkscape:path-effect="#path-effect1305" /></g></svg>
