<svg xmlns="http://www.w3.org/2000/svg" xmlns:dc="http://purl.org/dc/elements/1.1/" xmlns:ns1="http://sodipodi.sourceforge.net/DTD/sodipodi-0.dtd" xmlns:ns2="http://www.inkscape.org/namespaces/inkscape" xmlns:ns4="http://creativecommons.org/ns#" xmlns:rdf="http://www.w3.org/1999/02/22-rdf-syntax-ns#" xml:space="preserve" width="1000" height="1000" version="1.1" style="clip-rule:evenodd;fill-rule:evenodd;image-rendering:optimizeQuality;shape-rendering:geometricPrecision;text-rendering:geometricPrecision" viewBox="0 0 1000 1000" id="svg10" ns1:docname="ത്തു.svg" ns2:version="1.0.2 (e86c870879, 2021-01-15)"><metadata id="metadata14"><rdf:RDF><ns4:Work rdf:about=""><dc:format>image/svg+xml</dc:format><dc:type rdf:resource="http://purl.org/dc/dcmitype/StillImage" /><dc:title /></ns4:Work></rdf:RDF></metadata><ns1:namedview pagecolor="#ffffff" bordercolor="#666666" borderopacity="1" objecttolerance="10" gridtolerance="10" guidetolerance="10" ns2:pageopacity="0" ns2:pageshadow="2" ns2:window-width="1920" ns2:window-height="1007" id="namedview12" showgrid="false" ns2:zoom="0.6002692" ns2:cx="525.08761" ns2:cy="601.43824" ns2:window-x="1920" ns2:window-y="0" ns2:window-maximized="1" ns2:current-layer="svg10" showguides="true" ns2:guide-bbox="true" ns2:document-rotation="0"><ns1:guide position="0,1000" orientation="0,1" id="guide16" ns2:label="" ns2:locked="true" ns2:color="rgb(0,0,255)" /><ns1:guide position="1763.3122,2036.1693" orientation="1000,0" id="guide18" /><ns1:guide position="0,200" orientation="0,1" id="guide20" ns2:label="base" ns2:locked="true" ns2:color="rgb(0,0,255)" /><ns2:grid type="xygrid" id="grid24" originx="-473.37552" originy="-489.69235" /><ns1:guide position="0,0" orientation="0,1" id="guide34" ns2:label="bottom" ns2:locked="true" ns2:color="rgb(0,0,255)" /><ns1:guide position="225.05109,1693.3186" orientation="0,1" id="guide44" ns2:label="" ns2:locked="false" ns2:color="rgb(0,0,255)" /><ns1:guide position="0,900" orientation="0,1" id="guide46" ns2:label="" ns2:locked="true" ns2:color="rgb(0,0,255)" /><ns1:guide position="1148.646,834.89194" orientation="-1,0" id="guide867" ns2:label="width" ns2:locked="false" ns2:color="rgb(0,0,255)" /></ns1:namedview>
 <defs id="defs4"><ns2:path-effect effect="fillet_chamfer" id="path-effect849" is_visible="true" lpeversion="1" satellites_param="F,0,1,1,0,20.667921,0,1 @ F,0,0,1,0,0,0,1 @ F,0,0,1,0,0,0,1 @ F,0,0,1,0,0,0,1 @ F,0,0,1,0,0,0,1 @ F,0,0,1,0,0,0,1 @ F,0,0,1,0,0,0,1 @ F,0,0,1,0,0,0,1 @ F,0,0,1,0,0,0,1 @ F,0,0,1,0,0,0,1 @ F,0,0,1,0,0,0,1 @ F,0,0,1,0,0,0,1 @ F,0,0,1,0,0,0,1 @ F,0,0,1,0,0,0,1 @ F,0,0,1,0,0,0,1 @ F,0,0,1,0,0,0,1 @ F,0,0,1,0,0,0,1 @ F,0,0,1,0,0,0,1 @ F,0,0,1,0,0,0,1 @ F,0,0,1,0,0,0,1 @ F,0,0,1,0,0,0,1 @ F,0,0,1,0,0,0,1 @ F,0,0,1,0,0,0,1 @ F,0,0,1,0,0,0,1 @ F,0,1,1,0,20.667921,0,1 @ F,0,1,1,0,20.667921,0,1 @ F,0,0,1,0,0,0,1 @ F,0,0,1,0,0,0,1 @ F,0,0,1,0,0,0,1 @ F,0,0,1,0,0,0,1 @ F,0,0,1,0,0,0,1 @ F,0,0,1,0,0,0,1 @ F,0,0,1,0,0,0,1 @ F,0,0,1,0,0,0,1 @ F,0,0,1,0,0,0,1 @ F,0,0,1,0,0,0,1 @ F,0,0,1,0,0,0,1 @ F,0,0,1,0,0,0,1 @ F,0,0,1,0,0,0,1 @ F,0,0,1,0,0,0,1 @ F,0,0,1,0,0,0,1 @ F,0,0,1,0,0,0,1 @ F,0,0,1,0,0,0,1 @ F,0,0,1,0,0,0,1 @ F,0,0,1,0,0,0,1 @ F,0,0,1,0,0,0,1 @ F,0,0,1,0,0,0,1 @ F,0,0,1,0,0,0,1 @ F,0,0,1,0,0,0,1 @ F,0,0,1,0,0,0,1 @ F,0,0,1,0,0,0,1 @ F,0,0,1,0,0,0,1 @ F,0,0,1,0,0,0,1 @ F,0,0,1,0,0,0,1 @ F,0,0,1,0,0,0,1 @ F,0,0,1,0,0,0,1 @ F,0,0,1,0,0,0,1 @ F,0,0,1,0,0,0,1 @ F,0,0,1,0,0,0,1 @ F,0,0,1,0,0,0,1 @ F,0,0,1,0,0,0,1 @ F,0,0,1,0,0,0,1 @ F,0,0,1,0,0,0,1 @ F,0,0,1,0,0,0,1 @ F,0,0,1,0,0,0,1 @ F,0,0,1,0,0,0,1 @ F,0,0,1,0,0,0,1 @ F,0,0,1,0,0,0,1 @ F,0,0,1,0,0,0,1 @ F,0,0,1,0,0,0,1 @ F,0,0,1,0,0,0,1 @ F,0,0,1,0,0,0,1 @ F,0,0,1,0,0,0,1 @ F,0,0,1,0,0,0,1 @ F,0,0,1,0,0,0,1 @ F,0,1,1,0,20.667921,0,1 @ F,0,1,1,0,20.667921,0,1 @ F,0,0,1,0,0,0,1 @ F,0,0,1,0,0,0,1 @ F,0,0,1,0,0,0,1 @ F,0,1,1,0,20.667921,0,1 @ F,0,1,1,0,20.667921,0,1 @ F,0,0,1,0,0,0,1 @ F,0,0,1,0,0,0,1 @ F,0,0,1,0,0,0,1 @ F,0,0,1,0,0,0,1 @ F,0,0,1,0,0,0,1 @ F,0,0,1,0,0,0,1 @ F,0,0,1,0,0,0,1 @ F,0,0,1,0,0,0,1 @ F,0,0,1,0,0,0,1 @ F,0,0,1,0,0,0,1 @ F,0,0,1,0,0,0,1 @ F,0,0,1,0,0,0,1 @ F,0,0,1,0,0,0,1 @ F,0,0,1,0,0,0,1 @ F,0,0,1,0,0,0,1 @ F,0,0,1,0,0,0,1 @ F,0,0,1,0,0,0,1 @ F,0,0,1,0,0,0,1 @ F,0,0,1,0,0,0,1 @ F,0,0,1,0,0,0,1 @ F,0,0,1,0,0,0,1 @ F,0,0,1,0,0,0,1 @ F,0,0,1,0,0,0,1 @ F,0,0,1,0,0,0,1 @ F,0,0,1,0,0,0,1 @ F,0,0,1,0,0,0,1 @ F,0,1,1,0,20.667921,0,1" unit="px" method="auto" mode="F" radius="0" chamfer_steps="1" flexible="false" use_knot_distance="true" apply_no_radius="true" apply_with_radius="true" only_selected="true" hide_knots="false" /><ns2:path-effect effect="spiro" id="path-effect865" is_visible="true" lpeversion="1" /><ns2:path-effect effect="spiro" id="path-effect851" is_visible="true" lpeversion="1" />
  <style type="text/css" id="style2">
   
    .fil0 {fill:#EF7F1A;fill-rule:nonzero}
   
  </style>
 <ns2:path-effect effect="spiro" id="path-effect1214" is_visible="true" lpeversion="1" /><ns2:path-effect effect="spiro" id="path-effect1195" is_visible="true" lpeversion="1" /><ns2:path-effect effect="spiro" id="path-effect992" is_visible="true" lpeversion="1" /><ns2:path-effect effect="spiro" id="path-effect1060" is_visible="true" lpeversion="1" /><ns2:path-effect effect="spiro" id="path-effect1047" is_visible="true" lpeversion="1" /><ns2:path-effect effect="spiro" id="path-effect1085" is_visible="true" lpeversion="1" /><ns2:path-effect effect="spiro" id="path-effect1286" is_visible="true" lpeversion="1" /><ns2:path-effect effect="spiro" id="path-effect1305" is_visible="true" lpeversion="1" /></defs>
 
<path id="path1210-6" style="display:inline;fill:#1a1a1a;fill-rule:nonzero;stroke:none;stroke-width:2.22142px;stroke-linecap:butt;stroke-linejoin:miter;stroke-opacity:1" d="m 481.09717,602.59931 c 10.62419,-27.22386 18.62295,-55.47243 23.83676,-84.22726 6.92179,-38.17457 8.90942,-77.56595 2.05364,-115.75243 -5.34913,-29.79447 -15.98143,-58.40522 -28.32927,-86.04314 -7.41199,-16.59011 -15.57535,-33.07651 -27.23296,-47.01456 -11.65761,-13.93806 -27.20943,-25.26942 -45.02352,-28.85093 -17.61863,-3.54221 -36.16619,0.77123 -52.07473,9.13077 -15.90854,8.35953 -29.47914,20.54291 -42.01893,33.41602 -36.26882,37.2329 -65.49458,81.61116 -83.32076,130.4368 -11.42044,31.2804 -18.13753,64.26672 -19.94386,97.51769 -1.1339,20.87279 -0.20902,42.45626 8.26882,61.56347 4.23892,9.55361 10.36817,18.34941 18.35275,25.09375 7.98459,6.74435 17.87005,11.37035 28.26353,12.47281 9.77439,1.03679 19.7773,-1.06218 28.58674,-5.42191 8.80945,-4.35972 16.44528,-10.92221 22.5595,-18.61831 12.22845,-15.39218 18.22684,-34.85225 21.50597,-54.23527 6.76165,-39.96824 2.91312,-81.44792 -9.17604,-120.13942 -12.41768,-39.74291 -33.65366,-76.93384 -62.96796,-106.50358 -13.90203,-14.02317 -29.78834,-26.43596 -48.01935,-34.02186 -18.23102,-7.5859 -39.00766,-10.06465 -57.9123,-4.3611 -20.60239,6.21577 -37.56745,21.7203 -48.7322,40.11711 -11.164743,18.39681 -17.003608,39.56193 -20.53266,60.79021 -8.244299,49.59187 -4.514511,100.35766 1.09345,150.31638 10.30521,91.80436 27.64988,185.05968 73.99772,264.97286 9.28199,16.00405 19.67462,31.3636 31.07496,45.93465 7.03294,8.98896 3.89702,16.0643 -7.51656,16.21479 L 16.520347,847.64634 C 5.1067614,847.79683 -0.66283015,839.34122 3.1581537,828.58596 14.300825,797.22172 22.436993,764.7893 27.406586,731.87742 47.239495,600.53096 16.473761,467.61013 3.101344,335.44956 0.03846561,305.17891 -2.1094944,274.61881 1.101251,244.36349 c 3.2391445,-30.52293 12.147226,-60.84098 29.078618,-86.44311 14.900822,-22.53169 36.518303,-41.3529 62.380851,-49.15291 27.77063,-8.37547 58.01594,-3.51626 85.27409,6.40087 63.02045,22.92825 114.3539,71.97284 148.93574,129.43047 34.58183,57.45762 53.59769,123.05049 65.40059,189.06544 7.0825,39.6132 11.70433,80.01817 7.98112,120.08693 -3.7232,40.06875 -16.22858,80.01989 -40.66642,111.99112 -10.50589,13.74451 -23.18224,25.93817 -37.88858,35.04908 -14.70634,9.11091 -31.48471,15.07798 -48.74167,16.29552 -15.99076,1.12821 -32.19496,-1.84278 -46.95353,-8.10071 -14.75858,-6.25794 -28.07477,-15.76075 -39.17119,-27.32996 -22.19286,-23.13843 -35.14703,-54.12134 -40.03023,-85.80831 -5.7595,-37.37325 -0.86533,-75.54925 5.98385,-112.73824 8.25226,-44.80732 19.34274,-89.0939 33.24589,-132.48167 13.11874,-40.93983 28.90515,-81.40277 52.30762,-117.46515 23.40247,-36.06238 54.92599,-67.71993 93.76901,-86.14248 29.78199,-14.12506 64.12094,-20.07763 96.20731,-12.53116 28.14112,6.61858 53.14274,23.15034 74.14825,43.01228 18.54219,17.53272 34.44182,37.85521 46.9978,60.07134 8.75299,-17.67801 19.98523,-34.12626 33.26521,-48.71286 25.69831,-28.22677 59.80055,-49.55986 97.37209,-56.30765 33.61565,-6.03732 68.9212,-0.16871 99.77937,14.46805 38.84228,18.42382 70.36538,50.08123 93.76802,86.14335 23.40264,36.06211 39.18967,76.52465 52.30861,117.46428 13.90341,43.38769 24.99364,87.67435 33.24593,132.48167 6.8492,37.18899 11.7436,75.36502 5.9838,112.73824 -4.88342,31.68673 -17.83804,62.66922 -40.0309,85.80736 -11.09643,11.56907 -24.41251,21.0718 -39.17093,27.32985 -14.75843,6.25805 -30.9624,9.22936 -46.95311,8.10177 -17.25718,-1.2169 -34.03605,-7.18318 -48.74268,-16.29395 -14.70663,-9.11077 -27.38301,-21.30492 -37.88757,-35.05065 -24.43349,-31.97241 -36.92753,-71.92558 -40.64601,-111.99307 -3.71848,-40.06749 0.9009,-80.46946 7.96071,-120.08498 11.76944,-66.04323 30.70296,-131.68613 65.26606,-189.18065 34.5631,-57.49453 85.96373,-106.56019 149.07027,-129.31526 27.27197,-9.83378 57.46241,-14.58476 85.27406,-6.40087 25.9587,7.63863 47.9661,26.25275 62.3809,49.15291 16.2919,25.88229 23.2332,56.42395 29.0786,86.44311 12.5114,64.25233 21.246,129.23418 26.3396,194.49482 5.2029,66.66032 6.5073,134.59007 -9.6929,199.46087 -16.2002,64.8708 -51.6614,127.02301 -107.3734,163.99377 -32.03666,21.25968 -69.40606,33.42611 -107.25437,40.19569 -37.84831,6.76957 -76.40608,8.35857 -114.82157,9.96218 -38.93434,1.62527 -77.86741,3.28095 -116.79917,4.96704 55.90143,21.26432 116.04138,31.31783 175.81956,29.3915 50.57717,-1.62983 100.63484,-11.73761 149.00325,-26.61053 42.8595,-13.17897 84.5614,-30.11892 124.4743,-50.55347 10.16,-5.20173 19.1525,-0.4544 20.2438,10.90789 l 14.5429,151.42143 c 1.0913,11.36229 -7.231,21.52298 -18.6169,22.3249 -38.9365,2.7423 -78.0987,2.27877 -116.9587,-1.39198 -69.8203,-6.59528 -138.21101,-23.45451 -207.36926,-35.09528 -69.15825,-11.64076 -140.47549,-18.00603 -209.11217,-3.6054 -33.53377,7.03571 -66.02478,19.00681 -96.1263,35.37249 -10.02682,5.4514 -18.2802,1.15694 -18.80242,-10.24569 l -7.26859,-158.70744 c -0.52222,-11.40263 7.46706,-24.52809 18.1473,-28.55048 24.50193,-9.22791 50.13501,-15.45366 76.14346,-18.46796 57.06872,-6.6141 114.63099,2.18524 171.98798,5.46565 57.35699,3.28041 117.47668,0.38321 167.8751,-27.19548 38.13545,-20.86823 68.1731,-54.86605 88.3373,-93.37837 20.1643,-38.51232 30.8898,-81.42946 35.9161,-124.60969 6.0744,-52.1849 3.9852,-105.52673 -8.5896,-156.53689 -5.919,-24.0106 -14.3071,-47.78527 -28.5295,-68.01564 -14.22234,-20.23038 -34.82543,-36.74835 -58.9198,-42.31657 -19.08963,-4.41162 -39.42663,-1.73713 -57.59687,5.59218 -18.17024,7.32932 -34.29107,19.12871 -48.33473,32.79078 -29.87304,29.06136 -50.71674,66.66806 -62.96796,106.50358 -11.91393,38.73877 -15.94141,80.17864 -9.17604,120.13942 3.27902,19.3681 9.31684,38.79978 21.55185,54.16793 6.11751,7.68407 13.74811,14.23739 22.54594,18.60398 8.79782,4.36659 18.78222,6.49 28.55442,5.50358 10.42591,-1.05241 20.36541,-5.62562 28.41065,-12.33988 8.04524,-6.71426 14.23927,-15.50296 18.51513,-25.06978 8.55173,-19.13365 9.42949,-40.81422 7.95932,-61.72037 -2.33256,-33.1694 -10.19737,-65.72687 -19.94386,-97.51769 -7.73306,-25.22347 -16.74127,-50.2379 -29.96676,-73.06574 -13.22548,-22.82784 -30.90846,-43.50666 -53.354,-57.37106 -27.74221,-17.13611 -62.12441,-22.96893 -94.09366,-16.54679 -17.82612,3.581 -34.96352,10.87798 -49.53976,21.74662 -18.99423,14.16288 -33.25621,34.09466 -42.67114,55.83694 -9.41493,21.74229 -14.1618,45.28211 -16.25149,68.88298 -4.74893,53.6342 4.13807,108.31345 24.78023,158.04353 2.95866,7.12785 6.15466,14.15716 9.58049,21.07261 5.06624,10.2268 0.48568,18.84994 -10.90382,19.60617 l -126.60651,8.40624 c -11.3895,0.75623 -16.82247,-7.07416 -12.67306,-17.70677 z" ns1:nodetypes="caaaaaaaaaaaaaaaccaaaaaaaaacaaaaacaaaaacaaaaaaaaaacaaccaaccaaaaaaaaaaaaaaaacc" ns2:original-d="m 473.14772,621.67535 c 10.36705,-33.93407 26.11316,-67.72509 31.78621,-103.3033 6.07656,-38.10879 7.82672,-77.59648 2.05364,-115.75243 -4.51725,-29.8558 -12.81622,-60.13716 -28.32927,-86.04314 -17.94178,-29.96184 -37.97882,-69.18258 -72.25648,-75.86549 -33.78584,-6.58703 -68.06814,20.01805 -94.09366,42.54679 -39.00773,33.76665 -63.94035,82.62269 -83.32076,130.4368 -12.46338,30.74886 -24.96634,64.7213 -19.94386,97.51769 5.71749,37.33472 17.39243,94.56159 54.8851,99.13003 35.33732,4.30582 60.91607,-44.66702 72.65221,-78.27549 13.24093,-37.91772 2.88802,-81.83101 -9.17604,-120.13942 C 315.01673,372.59011 296.18562,331.74684 264.43685,305.42381 235.5247,281.45263 194.26272,255.5548 158.5052,267.04085 c -38.84272,12.47708 -57.3199,61.89768 -69.26486,100.90732 -14.6706,47.911 -5.88872,100.69845 1.09345,150.31638 12.77854,90.80911 34.40469,182.25661 73.99772,264.97286 10.94576,22.86744 20.60708,42.86617 44.22452,61.87696 L -4.1457778,847.91882 C 19.235519,816.04471 23.319961,771.75342 27.406586,731.87742 40.903738,600.17648 8.6064653,467.7258 3.101344,335.44956 1.8385147,305.10648 -3.475287,274.38602 1.101251,244.36349 5.682556,214.30968 12.66527,182.76909 30.179869,157.92038 45.431484,136.28226 67.240656,116.49496 92.56072,108.76747 c 27.26324,-8.32054 60.63242,-7.92756 85.27409,6.40087 110.62463,64.32507 185.63441,193.78936 214.33633,318.49591 17.5223,76.13239 10.63915,167.0691 -32.6853,232.07805 -18.61555,27.9329 -53.28532,55.20479 -86.63025,51.3446 -57.93589,-6.70698 -117.08592,-57.90829 -126.15495,-121.23898 -4.96717,-37.47677 0.38066,-75.52541 5.98385,-112.73824 6.77907,-45.02231 14.09619,-91.17485 33.24589,-132.48167 35.1322,-75.78186 74.38945,-160.73445 146.07663,-203.60763 27.75505,-16.59917 64.49958,-18.8947 96.20731,-12.53116 28.01491,5.62241 52.59645,24.25151 74.14825,43.01228 19.17614,16.69277 46.9978,60.07134 46.9978,60.07134 0,0 18.85123,-35.33938 33.26521,-48.71286 27.4854,-25.5013 60.55434,-49.22126 97.37209,-56.30765 33.00189,-6.35194 71.062,-2.99004 99.77937,14.46805 71.37502,43.39087 110.94442,127.82578 146.07663,203.60763 19.1497,41.30682 26.46686,87.45935 33.24593,132.48167 5.60319,37.21283 10.951,75.26147 5.9838,112.73824 -9.069,63.33069 -68.21905,114.532 -126.15494,121.23898 -33.34493,3.86019 -68.0147,-23.4117 -86.63025,-51.3446 -43.32445,-65.00895 -50.2076,-155.94566 -32.6853,-232.07805 28.70192,-124.70655 103.7117,-254.17084 214.33633,-318.49591 24.64166,-14.32842 58.01086,-14.7214 85.27406,-6.40087 25.3201,7.72749 47.1293,27.51478 62.3809,49.15291 17.5146,24.84871 22.1611,56.8396 29.0786,86.44311 14.8866,63.70724 32.1218,129.32743 26.3396,194.49482 -11.2493,126.78279 -23.1304,277.5683 -117.0663,363.45464 -56.00836,51.20885 -146.84937,40.14566 -222.07594,50.15787 -38.62762,5.14111 -76.40143,0.4806 -116.79917,4.96704 2.1358,6.33767 116.40071,29.72099 175.81956,29.3915 50.45282,-0.27977 100.62725,-12.28127 149.00325,-26.61053 49.515,-14.66665 132.8074,-73.76225 142.7422,-60.21883 l 18.4947,192.56793 c 4.0616,-3.26934 -91.7473,2.42322 -137.5515,0.35967 -139.28394,-6.27495 -278.51139,-58.79199 -416.48143,-38.70068 -40.51617,5.9 -35.46576,26.35558 -113.98315,45.77308 l -9.15973,-200 c 28.07945,16.68378 62.75448,-20.8968 95.23633,-26.37216 111.93978,-18.86933 243.58046,38.40521 339.86308,-21.72983 70.93858,-44.30596 105.0535,-136.58374 124.2534,-217.98806 11.9963,-50.8619 9.9423,-107.67576 -8.5896,-156.53689 -16.6421,-43.87853 -42.30303,-97.52206 -87.4493,-110.33221 -36.13067,-10.25199 -77.01947,14.41179 -105.9316,38.38296 -31.74876,26.32304 -50.57988,67.1663 -62.96796,106.50358 -12.06406,38.30841 -22.41697,82.2217 -9.17604,120.13942 11.73614,33.60847 37.31489,82.58131 72.65221,78.27549 37.49267,-4.56844 49.16761,-61.79531 54.8851,-99.13003 5.02248,-32.79639 -7.48048,-66.76883 -19.94386,-97.51769 -19.38041,-47.81411 -40.39914,-101.80947 -83.32076,-130.4368 -26.49365,-17.67041 -62.47603,-20.35235 -94.09366,-16.54679 -17.90501,2.15508 -36.61217,9.17239 -49.53976,21.74662 -32.95968,32.05875 -52.37384,79.20929 -58.92263,124.71992 -7.59499,52.78116 8.71852,107.19516 24.78023,158.04353 4.39674,13.91927 19.29918,39.30951 19.29918,39.30951 z" ns2:path-effect="#path-effect1305;#path-effect849" /></svg>