<svg xmlns="http://www.w3.org/2000/svg" xmlns:dc="http://purl.org/dc/elements/1.1/" xmlns:ns1="http://sodipodi.sourceforge.net/DTD/sodipodi-0.dtd" xmlns:ns2="http://www.inkscape.org/namespaces/inkscape" xmlns:ns4="http://creativecommons.org/ns#" xmlns:rdf="http://www.w3.org/1999/02/22-rdf-syntax-ns#" xml:space="preserve" width="1000" height="1000" version="1.1" style="clip-rule:evenodd;fill-rule:evenodd;image-rendering:optimizeQuality;shape-rendering:geometricPrecision;text-rendering:geometricPrecision" viewBox="0 0 1000 1000" id="svg10" ns1:docname="ത്ര.svg" ns2:version="1.1.1 (3bf5ae0d25, 2021-09-20)"><metadata id="metadata14"><rdf:RDF><ns4:Work rdf:about=""><dc:format>image/svg+xml</dc:format><dc:type rdf:resource="http://purl.org/dc/dcmitype/StillImage" /></ns4:Work></rdf:RDF></metadata><ns1:namedview pagecolor="#ffffff" bordercolor="#666666" borderopacity="1" objecttolerance="10" gridtolerance="10" guidetolerance="10" ns2:pageopacity="0" ns2:pageshadow="2" ns2:window-width="1920" ns2:window-height="1009" id="namedview12" showgrid="false" ns2:zoom="2.4010768" ns2:cx="235.51933" ns2:cy="122.86154" ns2:window-x="0" ns2:window-y="0" ns2:window-maximized="1" ns2:current-layer="svg10" showguides="true" ns2:guide-bbox="true" ns2:document-rotation="0" ns2:pagecheckerboard="0"><ns1:guide position="0,1000" orientation="0,1" id="guide16" ns2:label="" ns2:locked="true" ns2:color="rgb(0,0,255)" /><ns1:guide position="1763.3122,2036.1693" orientation="1000,0" id="guide18" /><ns1:guide position="0,200" orientation="0,1" id="guide20" ns2:label="base" ns2:locked="true" ns2:color="rgb(0,0,255)" /><ns2:grid type="xygrid" id="grid24" originx="-473.37552" originy="-489.69235" /><ns1:guide position="0,0" orientation="0,1" id="guide34" ns2:label="bottom" ns2:locked="true" ns2:color="rgb(0,0,255)" /><ns1:guide position="225.05109,1693.3186" orientation="0,1" id="guide44" ns2:label="" ns2:locked="false" ns2:color="rgb(0,0,255)" /><ns1:guide position="0,900" orientation="0,1" id="guide46" ns2:label="" ns2:locked="true" ns2:color="rgb(0,0,255)" /><ns1:guide position="849.41352,954.26538" orientation="1,0" id="guide841" ns2:label="width" />    </ns1:namedview>
 <defs id="defs4"><ns2:path-effect effect="fillet_chamfer" id="path-effect2362" is_visible="true" lpeversion="1" satellites_param="F,0,0,1,0,0,0,1 @ F,0,0,1,0,0,0,1 @ F,0,0,1,0,0,0,1 @ F,0,0,1,0,0,0,1 @ F,0,0,1,0,0,0,1 @ F,0,0,1,0,0,0,1 @ F,0,0,1,0,0,0,1 @ F,0,0,1,0,0,0,1 @ F,0,0,1,0,0,0,1 @ F,0,0,1,0,0,0,1 @ F,0,0,1,0,0,0,1 @ F,0,0,1,0,0,0,1 @ F,0,0,1,0,0,0,1 @ F,0,0,1,0,0,0,1 @ F,0,0,1,0,0,0,1 @ F,0,0,1,0,0,0,1 @ F,0,0,1,0,0,0,1 @ F,0,0,1,0,0,0,1 @ F,0,0,1,0,0,0,1 @ F,0,0,1,0,0,0,1 @ F,0,0,1,0,0,0,1 @ F,0,0,1,0,0,0,1 @ F,0,0,1,0,10.194821,0,1 @ F,0,1,1,0,10.194821,0,1 @ F,0,0,1,0,0,0,1 @ F,0,0,1,0,0,0,1 @ F,0,0,1,0,0,0,1 @ F,0,0,1,0,0,0,1 @ F,0,0,1,0,0,0,1 @ F,0,0,1,0,0,0,1 @ F,0,0,1,0,0,0,1 @ F,0,0,1,0,0,0,1 @ F,0,0,1,0,0,0,1 @ F,0,0,1,0,0,0,1 @ F,0,0,1,0,0,0,1 @ F,0,0,1,0,0,0,1 @ F,0,0,1,0,0,0,1 @ F,0,0,1,0,0,0,1 @ F,0,0,1,0,0,0,1 @ F,0,0,1,0,0,0,1 @ F,0,0,1,0,0,0,1 @ F,0,0,1,0,0,0,1 @ F,0,0,1,0,0,0,1 @ F,0,0,1,0,0,0,1 @ F,0,0,1,0,0,0,1 @ F,0,0,1,0,0,0,1 @ F,0,0,1,0,0,0,1 @ F,0,0,1,0,0,0,1 @ F,0,0,1,0,0,0,1 @ F,0,0,1,0,0,0,1 @ F,0,0,1,0,0,0,1 @ F,0,0,1,0,0,0,1 @ F,0,0,1,0,0,0,1 @ F,0,0,1,0,0,0,1 @ F,0,1,1,0,10.194821,0,1 @ F,0,1,1,0,10.194821,0,1 @ F,0,0,1,0,0,0,1 @ F,0,0,1,0,0,0,1 @ F,0,0,1,0,0,0,1 @ F,0,0,1,0,0,0,1 @ F,0,0,1,0,0,0,1 @ F,0,0,1,0,0,0,1 @ F,0,0,1,0,0,0,1" unit="px" method="auto" mode="F" radius="0" chamfer_steps="1" flexible="false" use_knot_distance="true" apply_no_radius="true" apply_with_radius="true" only_selected="false" hide_knots="false" /><ns2:path-effect effect="clone_original" id="path-effect2360" is_visible="true" lpeversion="1" linkeditem="" method="d" attributes="" css_properties="" allow_transforms="true" /><ns2:path-effect effect="fillet_chamfer" id="path-effect849" is_visible="true" lpeversion="1" satellites_param="F,0,0,1,0,0,0,1 @ F,0,0,1,0,0,0,1 @ F,0,0,1,0,0,0,1 @ F,0,0,1,0,0,0,1 @ F,0,0,1,0,0,0,1 @ F,0,0,1,0,0,0,1 @ F,0,0,1,0,0,0,1 @ F,0,0,1,0,0,0,1 @ F,0,0,1,0,0,0,1 @ F,0,0,1,0,0,0,1 @ F,0,0,1,0,0,0,1 @ F,0,0,1,0,0,0,1 @ F,0,0,1,0,0,0,1 @ F,0,0,1,0,0,0,1 @ F,0,0,1,0,0,0,1 @ F,0,0,1,0,0,0,1 @ F,0,0,1,0,0,0,1 @ F,0,0,1,0,0,0,1 @ F,0,0,1,0,0,0,1 @ F,0,0,1,0,0,0,1 @ F,0,0,1,0,0,0,1 @ F,0,1,1,0,16.602556,0,1 @ F,0,1,1,0,16.602556,0,1 @ F,0,0,1,0,0,0,1 @ F,0,0,1,0,0,0,1 @ F,0,0,1,0,0,0,1 @ F,0,0,1,0,0,0,1 @ F,0,0,1,0,0,0,1 @ F,0,0,1,0,0,0,1 @ F,0,0,1,0,0,0,1 @ F,0,0,1,0,0,0,1 @ F,0,0,1,0,0,0,1 @ F,0,0,1,0,0,0,1 @ F,0,0,1,0,0,0,1 @ F,0,0,1,0,0,0,1 @ F,0,0,1,0,0,0,1 @ F,0,0,1,0,0,0,1 @ F,0,0,1,0,0,0,1 @ F,0,0,1,0,0,0,1 @ F,0,0,1,0,0,0,1 @ F,0,0,1,0,0,0,1 @ F,0,0,1,0,0,0,1 @ F,0,0,1,0,0,0,1 @ F,0,0,1,0,0,0,1 @ F,0,0,1,0,0,0,1 @ F,0,0,1,0,0,0,1 @ F,0,0,1,0,0,0,1 @ F,0,0,1,0,0,0,1 @ F,0,0,1,0,0,0,1 @ F,0,0,1,0,0,0,1 @ F,0,0,1,0,0,0,1 @ F,0,0,1,0,0,0,1 @ F,0,1,1,0,16.602556,0,1 @ F,0,1,1,0,16.602556,0,1 @ F,0,0,1,0,0,0,1 @ F,0,0,1,0,0,0,1 @ F,0,0,1,0,0,0,1 @ F,0,0,1,0,0,0,1 @ F,0,0,1,0,0,0,1 @ F,0,0,1,0,0,0,1 @ F,0,0,1,0,0,0,1" unit="px" method="auto" mode="F" radius="0" chamfer_steps="1" flexible="false" use_knot_distance="true" apply_no_radius="true" apply_with_radius="true" only_selected="true" hide_knots="false" /><ns2:path-effect effect="fillet_chamfer" id="path-effect848" is_visible="true" lpeversion="1" satellites_param="F,0,0,1,0,0,0,1 @ F,0,0,1,0,0,0,1 @ F,0,0,1,0,0,0,1 @ F,0,0,1,0,0,0,1 @ F,0,0,1,0,0,0,1 @ F,0,0,1,0,0,0,1 @ F,0,0,1,0,0,0,1 @ F,0,0,1,0,0,0,1 @ F,0,0,1,0,0,0,1 @ F,0,0,1,0,0,0,1 @ F,0,0,1,0,0,0,1 @ F,0,0,1,0,0,0,1 @ F,0,0,1,0,0,0,1 @ F,0,0,1,0,0,0,1 @ F,0,0,1,0,0,0,1 @ F,0,0,1,0,0,0,1 @ F,0,0,1,0,0,0,1 @ F,0,0,1,0,0,0,1 @ F,0,0,1,0,0,0,1 @ F,0,0,1,0,0,0,1 @ F,0,0,1,0,0,0,1 @ F,0,0,1,0,0,0,1 @ F,0,0,1,0,0,0,1 @ F,0,0,1,0,30.954064,0,1 @ F,0,0,1,0,24.128516,0,1 @ F,0,0,1,0,0,0,1 @ F,0,0,1,0,0,0,1 @ F,0,0,1,0,0,0,1 @ F,0,0,1,0,0,0,1 @ F,0,0,1,0,0,0,1 @ F,0,0,1,0,0,0,1 @ F,0,0,1,0,0,0,1 @ F,0,0,1,0,0,0,1 @ F,0,0,1,0,0,0,1 @ F,0,0,1,0,0,0,1 @ F,0,0,1,0,0,0,1 @ F,0,0,1,0,0,0,1 @ F,0,0,1,0,0,0,1 @ F,0,0,1,0,0,0,1 @ F,0,0,1,0,0,0,1 @ F,0,0,1,0,0,0,1 @ F,0,0,1,0,0,0,1 @ F,0,0,1,0,0,0,1 @ F,0,0,1,0,0,0,1 @ F,0,0,1,0,0,0,1 @ F,0,0,1,0,0,0,1 @ F,0,0,1,0,0,0,1 @ F,0,0,1,0,0,0,1 @ F,0,0,1,0,0,0,1 @ F,0,0,1,0,0,0,1 @ F,0,0,1,0,0,0,1 @ F,0,0,1,0,0,0,1 @ F,0,0,1,0,0,0,1 @ F,0,0,1,0,0,0,1 @ F,0,0,1,0,0,0,1 @ F,0,0,1,0,38.915421,0,1 @ F,0,0,1,0,29.969251,0,1 @ F,0,0,1,0,0,0,1 @ F,0,0,1,0,0,0,1 @ F,0,0,1,0,0,0,1 @ F,0,0,1,0,0,0,1 @ F,0,0,1,0,0,0,1 @ F,0,0,1,0,0,0,1 @ F,0,0,1,0,0,0,1" unit="px" method="auto" mode="F" radius="0" chamfer_steps="1" flexible="false" use_knot_distance="true" apply_no_radius="true" apply_with_radius="true" only_selected="true" hide_knots="false" /><ns2:path-effect effect="spiro" id="path-effect851" is_visible="true" lpeversion="1" />
  <style type="text/css" id="style2">
   
    .fil0 {fill:#EF7F1A;fill-rule:nonzero}
   
  </style>
 <ns2:path-effect effect="spiro" id="path-effect1214" is_visible="true" lpeversion="1" /><ns2:path-effect effect="spiro" id="path-effect1195" is_visible="true" lpeversion="1" /><ns2:path-effect effect="spiro" id="path-effect992" is_visible="true" lpeversion="1" /><ns2:path-effect effect="spiro" id="path-effect1060" is_visible="true" lpeversion="1" /><ns2:path-effect effect="spiro" id="path-effect1047" is_visible="true" lpeversion="1" /><ns2:path-effect effect="spiro" id="path-effect1085" is_visible="true" lpeversion="1" /><ns2:path-effect effect="spiro" id="path-effect1286" is_visible="true" lpeversion="1" /><ns2:path-effect effect="spiro" id="path-effect1305" is_visible="true" lpeversion="1" /></defs>
 
<path id="path1210-6" style="display:inline;fill:#63452c;fill-rule:nonzero;stroke:none;stroke-width:2.22142px;stroke-linecap:butt;stroke-linejoin:miter;stroke-opacity:1" d="m 584.74927,449.17119 c 7.00327,39.60336 11.50474,79.99284 7.7455,120.03457 -3.75923,40.04173 -16.1989,79.9454 -40.4308,112.04348 -10.44037,13.82953 -23.04777,26.14525 -37.75665,35.30528 -14.70889,9.16003 -31.57148,15.0938 -48.8736,16.03932 -15.84745,0.86603 -31.82906,-2.46911 -46.28994,-9.00932 -14.46088,-6.54022 -27.41376,-16.23554 -38.25784,-27.82422 -21.68816,-23.17736 -34.64841,-53.43543 -41.60717,-84.40544 -8.50587,-37.8554 -8.57317,-77.2689 -3.59071,-115.7469 6.04237,-46.66341 19.40303,-92.15274 36.37145,-136.0396 31.4171,-81.2567 76.9649,-159.47 145.36915,-213.41947 25.59674,-20.18779 54.92615,-37.007 87.16265,-41.85968 41.14093,-6.193093 84.10907,8.29594 115.80796,35.24238 24.50753,20.83324 42.54407,48.41676 56.1217,77.57651 26.56395,57.04958 36.85588,120.26937 42.71834,182.92661 9.52354,101.78642 7.93221,205.68103 -17.84602,304.60856 -17.99547,69.06011 -48.67601,136.4654 -99.21436,186.85399 -57.0012,56.83229 -135.99433,88.24066 -215.91331,97.83245 -60.28014,7.23476 -122.13699,2.73576 -180.21007,-14.97169 C 247.98247,956.65056 193.79405,925.6056 150.44523,883.09776 71.660343,805.84133 32.84519,695.66712 17.995725,586.3277 4.2696557,485.26006 8.9051302,382.24757 24.879198,281.51077 35.251157,216.10239 50.382656,151.44932 70.112056,88.230819 71.789429,82.856047 77.374075,80.324032 82.540928,82.561337 L 197.21517,132.21656 c 5.16685,2.23731 6.87736,7.88451 3.9028,12.66502 -24.95002,40.09813 -45.59709,82.87255 -61.46429,127.35418 -35.86116,100.53211 -46.930294,209.16741 -37.7651,315.50991 3.92203,45.50676 11.58392,91.05073 28.07316,133.64595 16.48924,42.59522 42.23507,82.2947 78.00752,110.69505 43.33315,34.40292 98.51828,50.30837 153.15166,59.05577 40.17519,6.43249 81.10437,9.42218 121.60293,5.51202 40.49856,-3.91016 80.63869,-14.8876 115.956,-35.08935 43.77523,-25.03974 78.99947,-63.73578 103.34042,-107.90339 48.97727,-88.87118 53.683,-195.8093 41.36323,-296.5321 -4.15423,-33.96378 -10.18825,-68.01206 -23.07494,-99.70953 -12.88668,-31.69747 -33.10059,-61.13679 -61.29255,-80.52776 -17.68646,-12.16508 -38.57502,-20.20121 -60.03606,-20.6744 -17.64177,-0.38898 -35.17693,4.322 -51.02338,12.08559 -15.84645,7.7636 -30.08715,18.5104 -43.07028,30.4612 -38.34021,35.29164 -66.02862,81.27936 -83.32076,130.4368 -11.04612,31.40151 -18.01856,64.2857 -19.94386,97.51769 -1.20974,20.88104 -0.29648,42.48656 8.19773,61.60016 4.2471,9.55681 10.39101,18.35123 18.38956,25.0887 7.99855,6.73746 17.89675,11.35111 28.29781,12.44117 9.7735,1.02429 19.77143,-1.08146 28.57724,-5.44358 8.80582,-4.36212 16.4393,-10.92296 22.55352,-18.61626 12.22844,-15.38659 18.23619,-34.83811 21.52145,-54.21565 6.77594,-39.96668 2.92027,-81.44926 -9.17604,-120.13942 -12.42449,-39.73985 -33.66468,-76.92417 -62.96796,-106.50358 -13.89919,-14.03017 -29.78127,-26.4542 -48.01358,-34.04472 -18.23231,-7.59052 -39.01744,-10.06531 -57.91807,-4.33824 -20.5854,6.23757 -37.51193,21.7672 -48.65861,40.16332 -11.14669,18.39613 -16.99309,39.53996 -20.60625,60.744 -8.44841,49.57998 -5.3111,100.4312 1.09345,150.31638 6.2932,49.01789 15.79111,97.90086 33.25142,144.13391 11.95014,31.64272 27.59333,61.8884 46.50198,89.93322 3.14754,4.66834 1.28607,9.07748 -4.27929,9.93109 L 223.52581,798.4544 c -5.56536,0.85361 -9.25709,-2.94479 -8.32847,-8.49808 5.98926,-35.81668 9.42385,-72.06044 10.26655,-108.36469 2.57022,-110.72667 -18.8832,-220.41641 -29.78442,-330.63513 -2.99447,-30.27612 -5.19238,-60.83017 -2.00009,-91.08607 3.22076,-30.52577 12.1431,-60.84264 29.07862,-86.44311 14.90391,-22.5294 36.51843,-41.35316 62.38085,-49.15291 27.77043,-8.37518 58.01438,-3.51117 85.27409,6.40087 63.03519,22.92054 114.41772,71.92463 149.02925,129.37747 34.61152,57.45284 53.62743,123.07018 65.30708,189.11844 z" ns1:nodetypes="aaaaaaaaaaaaaaaaaccaaaaaaaaaaaaaaaaaaaaccaaaaaaa" ns2:original-d="m 584.74927,449.17119 c 18.02515,76.28638 13.29086,165.82562 -32.6853,232.07805 -18.26618,26.32183 -52.22679,54.99263 -86.63025,51.3446 -61.30481,-6.50064 -102.47234,-67.9409 -126.15495,-121.23898 -15.6743,-35.27524 -8.02457,-77.40153 -3.59071,-115.7469 5.39165,-46.62859 16.82077,-93.36565 36.37145,-136.0396 35.8511,-78.2534 80.10891,-157.29464 145.36915,-213.41947 24.43691,-21.01612 55.02503,-39.40753 87.16265,-41.85968 40.23361,-3.0699 82.96665,11.7985 115.80796,35.24238 25.97654,18.54345 42.87922,48.53728 56.1217,77.57651 25.98036,56.97191 37.37443,120.53895 42.71834,182.92661 8.68037,101.33921 9.60848,206.67371 -17.84602,304.60856 -19.03541,67.90253 -47.81099,138.5757 -99.21436,186.85399 -57.59506,54.09357 -137.03869,93.13142 -215.91331,97.83245 C 369.06616,996.31494 238.03611,961.27925 150.44523,883.09776 69.627708,810.96202 39.368443,692.52678 17.995725,586.3277 -2.0557368,486.69382 11.896015,382.30962 24.879198,281.51077 33.764843,212.52439 65.686142,112.70746 73.185513,78.510338 L 206.57058,136.26756 c -8.78596,16.09233 -52.5575,87.53785 -66.9169,135.9682 -30.10944,101.55103 -53.094288,210.70435 -37.7651,315.50991 12.85022,87.85688 42.00443,182.87399 106.08068,244.341 39.48451,37.87666 98.84447,52.39264 153.15166,59.05577 79.20378,9.71777 166.24947,6.23656 237.55893,-29.57733 44.50469,-22.35167 81.62443,-63.08508 103.34042,-107.90339 43.51767,-89.81346 56.23787,-197.84578 41.36323,-296.5321 -9.88681,-65.59439 -35.03904,-135.88555 -84.36749,-180.23729 -15.73906,-14.15116 -38.89357,-21.65838 -60.03606,-20.6744 -34.38475,1.60028 -68.06814,20.01805 -94.09366,42.54679 -39.00773,33.76665 -63.94035,82.62269 -83.32076,130.4368 -12.46338,30.74887 -24.96634,64.7213 -19.94386,97.51769 5.71748,37.33472 17.39243,94.56159 54.8851,99.13003 35.33732,4.30582 60.91608,-44.66702 72.65221,-78.27549 13.24094,-37.91772 2.88802,-81.83102 -9.17604,-120.13942 -12.38808,-39.33728 -31.21919,-80.18054 -62.96796,-106.50358 -28.91214,-23.97118 -70.17413,-49.86901 -105.93165,-38.38296 -38.84272,12.47708 -57.40741,62.89226 -69.26486,100.90732 -15.05443,48.26456 -4.75581,100.55218 1.09345,150.31638 5.75585,48.96946 15.98347,97.94998 33.25142,144.13391 13.00042,34.77024 28.68223,79.30792 52.29967,98.31871 L 213.44883,800 c 23.3813,-31.87411 11.79121,-78.73687 12.01506,-118.40837 0.6244,-110.65622 -23.60215,-220.14998 -29.78442,-330.63513 -1.69668,-30.32191 -6.61396,-60.99971 -2.00009,-91.08607 4.57159,-29.81062 10.91025,-61.11573 29.07862,-86.44311 14.96337,-20.85949 36.06632,-41.37397 62.38085,-49.15291 27.08294,-8.00609 61.05248,-7.06993 85.27409,6.40087 117.6677,65.44058 185.69234,197.26846 214.33633,318.49591 z" ns2:path-effect="#path-effect1305;#path-effect2362" /><text text-anchor="middle" x="686.17334" y="902.07733" id="bottom" ns2:label="bottom" style="clip-rule:evenodd;fill-rule:evenodd;image-rendering:optimizeQuality;shape-rendering:geometricPrecision;text-rendering:geometricPrecision">✛</text></svg>