<svg xmlns="http://www.w3.org/2000/svg" xmlns:dc="http://purl.org/dc/elements/1.1/" xmlns:ns1="http://sodipodi.sourceforge.net/DTD/sodipodi-0.dtd" xmlns:ns2="http://www.inkscape.org/namespaces/inkscape" xmlns:ns4="http://creativecommons.org/ns#" xmlns:rdf="http://www.w3.org/1999/02/22-rdf-syntax-ns#" xml:space="preserve" width="1000" height="1000" version="1.1" style="clip-rule:evenodd;fill-rule:evenodd;image-rendering:optimizeQuality;shape-rendering:geometricPrecision;text-rendering:geometricPrecision" viewBox="0 0 1000 1000" id="svg10" ns1:docname="ത്ഭു.svg" ns2:version="1.0.2 (e86c870879, 2021-01-15)"><metadata id="metadata14"><rdf:RDF><ns4:Work rdf:about=""><dc:format>image/svg+xml</dc:format><dc:type rdf:resource="http://purl.org/dc/dcmitype/StillImage" /><dc:title /></ns4:Work></rdf:RDF></metadata><ns1:namedview pagecolor="#ffffff" bordercolor="#666666" borderopacity="1" objecttolerance="10" gridtolerance="10" guidetolerance="10" ns2:pageopacity="0" ns2:pageshadow="2" ns2:window-width="1920" ns2:window-height="1127" id="namedview12" showgrid="false" ns2:zoom="0.84890884" ns2:cx="587.34096" ns2:cy="661.20267" ns2:window-x="0" ns2:window-y="0" ns2:window-maximized="1" ns2:current-layer="svg10" showguides="true" ns2:guide-bbox="true" ns2:document-rotation="0"><ns1:guide position="0,1000" orientation="0,1" id="guide16" ns2:label="" ns2:locked="true" ns2:color="rgb(0,0,255)" /><ns1:guide position="1035.938,422.80095" orientation="-1,0" id="guide18" ns2:label="width" ns2:locked="false" ns2:color="rgb(0,0,255)" /><ns1:guide position="0,200" orientation="0,1" id="guide20" ns2:label="base" ns2:locked="true" ns2:color="rgb(0,0,255)" /><ns2:grid type="xygrid" id="grid24" originx="-473.37552" originy="-489.69235" /><ns1:guide position="0,0" orientation="0,1" id="guide34" ns2:label="bottom" ns2:locked="true" ns2:color="rgb(0,0,255)" /><ns1:guide position="225.05109,1693.3186" orientation="0,1" id="guide44" ns2:label="" ns2:locked="false" ns2:color="rgb(0,0,255)" /><ns1:guide position="0,900" orientation="0,1" id="guide46" ns2:label="" ns2:locked="true" ns2:color="rgb(0,0,255)" /></ns1:namedview>
 <defs id="defs4"><ns2:path-effect effect="fillet_chamfer" id="path-effect852" is_visible="true" lpeversion="1" satellites_param="F,0,0,1,0,23.578759,0,1 @ F,0,0,1,0,18.34343,0,1 @ F,0,0,1,0,0,0,1 @ F,0,0,1,0,0,0,1 @ F,0,0,1,0,0,0,1 @ F,0,0,1,0,0,0,1 @ F,0,0,1,0,0,0,1 @ F,0,0,1,0,0,0,1 @ F,0,0,1,0,0,0,1 @ F,0,0,1,0,0,0,1 @ F,0,0,1,0,0,0,1 @ F,0,0,1,0,0,0,1 @ F,0,0,1,0,0,0,1 @ F,0,0,1,0,0,0,1 @ F,0,0,1,0,0,0,1 @ F,0,0,1,0,0,0,1 @ F,0,0,1,0,0,0,1 @ F,0,0,1,0,0,0,1 @ F,0,0,1,0,0,0,1 @ F,0,0,1,0,0,0,1 @ F,0,0,1,0,0,0,1 @ F,0,0,1,0,0,0,1 @ F,0,0,1,0,0,0,1 @ F,0,0,1,0,0,0,1 @ F,0,0,1,0,0,0,1 @ F,0,0,1,0,0,0,1 @ F,0,0,1,0,18.34343,0,1 @ F,0,0,1,0,18.34343,0,1 @ F,0,0,1,0,0,0,1 @ F,0,0,1,0,0,0,1 @ F,0,0,1,0,0,0,1 @ F,0,0,1,0,0,0,1 @ F,0,0,1,0,0,0,1 @ F,0,0,1,0,0,0,1 @ F,0,0,1,0,0,0,1 @ F,0,0,1,0,0,0,1 @ F,0,0,1,0,0,0,1 @ F,0,0,1,0,0,0,1 @ F,0,0,1,0,0,0,1 @ F,0,0,1,0,0,0,1 @ F,0,0,1,0,0,0,1 @ F,0,0,1,0,0,0,1 @ F,0,0,1,0,0,0,1 @ F,0,0,1,0,0,0,1 @ F,0,0,1,0,0,0,1 @ F,0,0,1,0,0,0,1 @ F,0,0,1,0,0,0,1 @ F,0,0,1,0,0,0,1 @ F,0,0,1,0,0,0,1 @ F,0,0,1,0,0,0,1 @ F,0,0,1,0,0,0,1 @ F,0,0,1,0,0,0,1 @ F,0,0,1,0,0,0,1 @ F,0,0,1,0,0,0,1 @ F,0,0,1,0,0,0,1 @ F,0,0,1,0,0,0,1 @ F,0,0,1,0,0,0,1 @ F,0,0,1,0,0,0,1 @ F,0,0,1,0,0,0,1 @ F,0,0,1,0,0,0,1 @ F,0,0,1,0,0,0,1 @ F,0,0,1,0,0,0,1 @ F,0,0,1,0,0,0,1 @ F,0,0,1,0,0,0,1 @ F,0,0,1,0,0,0,1 @ F,0,0,1,0,0,0,1 @ F,0,0,1,0,0,0,1 @ F,0,0,1,0,0,0,1 @ F,0,0,1,0,0,0,1 @ F,0,0,1,0,0,0,1 @ F,0,0,1,0,0,0,1 @ F,0,0,1,0,0,0,1 @ F,0,0,1,0,0,0,1 @ F,0,0,1,0,0,0,1 @ F,0,0,1,0,0,0,1 @ F,0,0,1,0,0,0,1 @ F,0,0,1,0,19.800681,0,1 @ F,0,1,1,0,19.800681,0,1 @ F,0,0,1,0,0,0,1 @ F,0,0,1,0,0,0,1 @ F,0,0,1,0,0,0,1 @ F,0,1,1,0,19.800681,0,1 @ F,0,1,1,0,19.800681,0,1 @ F,0,0,1,0,0,0,1 @ F,0,0,1,0,0,0,1 @ F,0,0,1,0,0,0,1 @ F,0,0,1,0,0,0,1 @ F,0,0,1,0,0,0,1 @ F,0,0,1,0,0,0,1 @ F,0,0,1,0,0,0,1 @ F,0,0,1,0,0,0,1 @ F,0,0,1,0,0,0,1 @ F,0,0,1,0,0,0,1 @ F,0,0,1,0,0,0,1 @ F,0,0,1,0,0,0,1 @ F,0,0,1,0,0,0,1 @ F,0,0,1,0,0,0,1 @ F,0,0,1,0,0,0,1 @ F,0,0,1,0,0,0,1 @ F,0,0,1,0,0,0,1 @ F,0,0,1,0,0,0,1 @ F,0,0,1,0,0,0,1 @ F,0,0,1,0,0,0,1 @ F,0,0,1,0,0,0,1 @ F,0,0,1,0,0,0,1 @ F,0,0,1,0,0,0,1" unit="px" method="auto" mode="F" radius="0" chamfer_steps="1" flexible="false" use_knot_distance="true" apply_no_radius="true" apply_with_radius="true" only_selected="false" hide_knots="false" /><ns2:path-effect effect="fillet_chamfer" id="path-effect850" is_visible="true" lpeversion="1" satellites_param="F,0,1,1,0,28.125962,0,1 @ F,0,1,1,0,28.125962,0,1 @ F,0,0,1,0,0,0,1 @ F,0,0,1,0,0,0,1 @ F,0,0,1,0,0,0,1 @ F,0,0,1,0,0,0,1 @ F,0,0,1,0,0,0,1 @ F,0,0,1,0,0,0,1 @ F,0,0,1,0,0,0,1 @ F,0,0,1,0,0,0,1 @ F,0,0,1,0,0,0,1 @ F,0,0,1,0,0,0,1 @ F,0,0,1,0,0,0,1 @ F,0,0,1,0,0,0,1 @ F,0,0,1,0,0,0,1 @ F,0,0,1,0,0,0,1 @ F,0,0,1,0,0,0,1 @ F,0,0,1,0,0,0,1 @ F,0,0,1,0,0,0,1 @ F,0,0,1,0,0,0,1 @ F,0,0,1,0,0,0,1 @ F,0,0,1,0,0,0,1 @ F,0,0,1,0,0,0,1 @ F,0,0,1,0,0,0,1 @ F,0,0,1,0,0,0,1 @ F,0,0,1,0,0,0,1 @ F,0,1,1,0,28.125962,0,1 @ F,0,1,1,0,28.125962,0,1 @ F,0,0,1,0,0,0,1 @ F,0,0,1,0,0,0,1 @ F,0,0,1,0,0,0,1 @ F,0,0,1,0,0,0,1 @ F,0,0,1,0,0,0,1 @ F,0,0,1,0,0,0,1 @ F,0,0,1,0,0,0,1 @ F,0,0,1,0,0,0,1 @ F,0,0,1,0,0,0,1 @ F,0,0,1,0,0,0,1 @ F,0,0,1,0,0,0,1 @ F,0,0,1,0,0,0,1 @ F,0,0,1,0,0,0,1 @ F,0,0,1,0,0,0,1 @ F,0,0,1,0,0,0,1 @ F,0,0,1,0,0,0,1 @ F,0,0,1,0,0,0,1 @ F,0,0,1,0,0,0,1 @ F,0,0,1,0,0,0,1 @ F,0,0,1,0,0,0,1 @ F,0,0,1,0,0,0,1 @ F,0,0,1,0,0,0,1 @ F,0,0,1,0,0,0,1 @ F,0,0,1,0,0,0,1 @ F,0,0,1,0,0,0,1 @ F,0,0,1,0,0,0,1 @ F,0,0,1,0,0,0,1 @ F,0,0,1,0,0,0,1 @ F,0,0,1,0,0,0,1 @ F,0,0,1,0,0,0,1 @ F,0,0,1,0,0,0,1 @ F,0,0,1,0,0,0,1 @ F,0,0,1,0,0,0,1 @ F,0,0,1,0,0,0,1 @ F,0,0,1,0,0,0,1 @ F,0,0,1,0,0,0,1 @ F,0,0,1,0,0,0,1 @ F,0,0,1,0,0,0,1 @ F,0,0,1,0,0,0,1 @ F,0,0,1,0,0,0,1 @ F,0,1,1,0,28.125962,0,1 @ F,0,1,1,0,28.125962,0,1 @ F,0,0,1,0,0,0,1 @ F,0,0,1,0,0,0,1 @ F,0,0,1,0,0,0,1 @ F,0,1,1,0,28.125962,0,1 @ F,0,1,1,0,28.125962,0,1 @ F,0,0,1,0,0,0,1 @ F,0,0,1,0,0,0,1 @ F,0,0,1,0,0,0,1 @ F,0,0,1,0,0,0,1 @ F,0,0,1,0,0,0,1 @ F,0,0,1,0,0,0,1 @ F,0,0,1,0,0,0,1 @ F,0,0,1,0,0,0,1 @ F,0,0,1,0,0,0,1 @ F,0,0,1,0,0,0,1 @ F,0,0,1,0,0,0,1 @ F,0,0,1,0,0,0,1 @ F,0,0,1,0,0,0,1 @ F,0,0,1,0,0,0,1 @ F,0,0,1,0,0,0,1 @ F,0,0,1,0,0,0,1 @ F,0,0,1,0,0,0,1 @ F,0,0,1,0,0,0,1 @ F,0,0,1,0,0,0,1 @ F,0,0,1,0,0,0,1 @ F,0,0,1,0,0,0,1 @ F,0,0,1,0,0,0,1 @ F,0,0,1,0,0,0,1 @ F,0,0,1,0,0,0,1" unit="px" method="auto" mode="F" radius="0" chamfer_steps="1" flexible="false" use_knot_distance="true" apply_no_radius="true" apply_with_radius="true" only_selected="true" hide_knots="false" /><ns2:path-effect effect="spiro" id="path-effect851" is_visible="true" lpeversion="1" />
  <style type="text/css" id="style2">
   
    .fil0 {fill:#EF7F1A;fill-rule:nonzero}
   
  </style>
 <ns2:path-effect effect="spiro" id="path-effect1214" is_visible="true" lpeversion="1" /><ns2:path-effect effect="spiro" id="path-effect1195" is_visible="true" lpeversion="1" /><ns2:path-effect effect="spiro" id="path-effect992" is_visible="true" lpeversion="1" /><ns2:path-effect effect="spiro" id="path-effect1060" is_visible="true" lpeversion="1" /><ns2:path-effect effect="spiro" id="path-effect1047" is_visible="true" lpeversion="1" /><ns2:path-effect effect="spiro" id="path-effect1085" is_visible="true" lpeversion="1" /><ns2:path-effect effect="spiro" id="path-effect1286" is_visible="true" lpeversion="1" /><ns2:path-effect effect="spiro" id="path-effect1305" is_visible="true" lpeversion="1" /><ns2:path-effect effect="spiro" id="path-effect844" is_visible="true" lpeversion="1" /><style type="text/css" id="style2-9">
   
    .fil0 {fill:#EF7F1A;fill-rule:nonzero}
   
  </style></defs>
 
<path id="path1210-6" style="display:inline;fill:#26a269;fill-rule:nonzero;stroke:none;stroke-width:2.22142px;stroke-linecap:butt;stroke-linejoin:miter;stroke-opacity:1" d="m 592.87171,690.31795 -112.04842,5.36707 c -10.11919,0.48471 -16.00556,-7.0021 -13.32518,-16.77177 5.30113,-19.32195 10.08639,-38.78543 14.34874,-58.36277 14.71615,-67.59248 23.16483,-137.7315 11.46774,-205.91131 -2.90836,-16.95222 -7.08748,-33.80126 -14.23363,-49.44635 -7.14614,-15.6451 -17.38826,-30.10284 -31.00585,-40.60986 -17.39857,-13.42434 -39.71228,-19.78916 -61.68615,-19.5195 -21.97386,0.26967 -43.59416,6.90545 -62.97013,17.27344 -41.95692,22.45096 -73.12708,61.86318 -92.43143,105.35768 -13.58767,30.61428 -21.85945,64.07835 -19.94386,97.51769 0.97434,17.00837 4.70779,34.19095 13.5692,48.74118 4.43071,7.27511 10.12222,13.82098 16.94597,18.91949 6.82376,5.09851 14.79397,8.72528 23.19195,10.15089 8.36378,1.4198 17.05296,0.63777 25.1344,-1.94274 8.08143,-2.58051 15.55755,-6.93359 22.01046,-12.44074 12.90581,-11.0143 21.52598,-26.41013 26.68533,-42.57354 12.45203,-39.01017 5.55865,-81.93294 -9.17604,-120.13942 -14.89464,-38.62123 -37.46303,-73.90069 -62.96796,-106.50358 -14.21836,-18.1753 -29.69668,-35.87288 -49.20984,-48.19113 -9.75659,-6.15913 -20.47142,-10.90353 -31.75132,-13.3304 -11.2799,-2.42686 -23.13811,-2.49192 -34.29197,0.46057 -11.62503,3.07721 -22.28964,9.38512 -31.07844,17.59289 -8.78881,8.20777 -15.73936,18.27726 -20.947313,29.11645 -10.415909,21.67836 -13.833844,46.02578 -15.442796,70.02274 -3.516758,52.45121 0.976782,105.15905 8.618621,157.16962 13.853628,94.28815 38.082678,187.02059 71.643758,276.21607 5.33428,14.17694 10.90361,28.26544 16.70487,42.25778 3.87997,9.35828 -1.0658,17.26617 -11.18637,17.72124 L 42.625892,874.1643 C 32.505321,874.61937 26.536114,867.08282 28.930641,857.23955 34.099412,835.99211 38.012899,814.43927 40.641373,792.73069 58.50716,645.17711 16.858442,497.61506 5.101344,349.44956 2.6973355,319.15372 1.5450302,288.71469 3.1012509,258.36349 4.9421497,222.46018 10.989299,185.62335 30.101431,155.17399 c 14.387501,-22.9221 36.409127,-41.54423 62.380854,-49.15291 27.814925,-8.148668 57.975025,-3.33731 85.274085,6.40087 66.00696,23.54615 119.76164,75.05712 154.89998,135.6924 35.13834,60.63527 52.90878,129.99937 61.51479,199.5499 4.41123,35.64986 6.51024,71.86058 1.59062,107.44384 -4.91962,35.58326 -17.18068,70.68923 -39.22943,99.04807 -10.73718,13.81004 -23.76987,25.94706 -38.848,34.8158 -15.07812,8.86873 -32.24144,14.40178 -49.72379,15.01146 -29.39246,1.02504 -58.37292,-12.16952 -79.23465,-32.90006 -20.86174,-20.73054 -33.97483,-48.4542 -40.02525,-77.23544 -6.94086,-33.01699 -4.99129,-67.26499 -0.72225,-100.73248 5.89071,-46.18075 16.19909,-91.98544 33.57921,-135.17448 17.51789,-43.53141 42.49842,-84.56433 76.56735,-116.83147 34.06892,-32.26713 77.63067,-55.39627 124.21876,-61.00072 18.79749,-2.2613 38.02203,-1.67205 56.4354,2.73329 18.41337,4.40534 36.00201,12.69424 50.49394,24.87797 19.35201,16.26971 32.57547,38.92038 40.88696,62.79762 8.31149,23.87725 12.00641,49.09429 14.81049,74.22079 3.13892,28.12698 5.21651,56.37238 6.22684,84.65593 l -28.7244,2.34379 c -8.96843,-54.32057 -2.38169,-111.12039 18.78004,-161.94694 18.33294,-44.03232 47.57539,-83.58561 84.83554,-113.36184 37.26014,-29.77623 82.50997,-49.63433 129.7715,-56.06006 46.44752,-6.315052 95.23068,0.63701 136.24815,23.32666 41.01746,22.68964 73.54931,61.72103 84.70526,107.24901 8.19904,33.46069 4.77495,69.33434 -7.61606,101.4794 -8.34487,21.64846 -20.78694,41.87928 -37.45161,58.02183 -16.66466,16.14255 -37.65145,28.07583 -60.39295,32.67115 -15.1331,3.05791 -31.01712,2.93237 -45.44562,8.42597 -7.21425,2.7468 -14.00764,6.96054 -18.87859,12.94921 -4.87096,5.98867 -7.66289,13.8732 -6.61657,21.52144 0.94525,6.90944 4.95456,13.19955 10.3419,17.62791 5.38734,4.42837 12.06812,7.09556 18.91228,8.43393 13.68833,2.67673 27.78072,0.23856 41.71664,-0.3317 31.31612,-1.28145 62.96861,7.21788 89.40926,24.04741 26.44066,16.82953 47.54719,41.91843 59.56659,70.86449 15.4662,37.24672 15.5261,80.37987 1.4005,118.15537 -14.1256,37.7755 -42.06047,69.98097 -76.79527,90.47521 -36.93716,21.79368 -80.13823,30.29507 -122.72854,35.33326 -42.59031,5.03819 -85.74737,7.00964 -127.38647,17.28114 -37.70873,9.30196 -73.7313,25.3959 -105.81977,47.27752 l -6.7379,-75.24628 c 45.25441,24.63838 93.8861,43.06365 144.10538,54.59776 67.93397,15.60273 140.33787,18.30278 206.4448,-3.79569 31.59964,-10.56325 61.32282,-26.69613 87.43897,-47.38237 8.5705,-6.78862 15.121,-3.95732 15.1678,6.97819 l 0.405,94.55494 c 0.047,10.93551 -7.8294,23.82691 -17.9478,27.96845 -36.01121,14.73977 -75.20418,21.7015 -114.08921,20.13757 -43.23827,-1.73901 -85.31284,-13.737 -127.05453,-25.14765 -41.74169,-11.41066 -84.2283,-22.39127 -127.4999,-22.01696 -32.82345,0.28393 -65.56527,7.24573 -95.70207,20.24504 -10.03856,4.33006 -19.90519,-0.0528 -22.44747,-10.68879 L 503.31631,819.09477 c -2.54228,-10.636 3.36158,-23.16897 13.45267,-27.37939 30.29248,-12.63928 62.30309,-21.16115 94.87506,-25.22405 81.33868,-10.14587 165.06064,7.3434 245.24583,-9.66411 21.2435,-4.50581 42.18732,-11.50541 60.54565,-23.10542 18.35832,-11.60002 34.05945,-28.06909 42.37353,-48.13061 7.46692,-18.01736 8.66793,-38.59487 3.16289,-57.30516 -5.50504,-18.71028 -17.71117,-35.40562 -33.97653,-46.16752 -20.26617,-13.40901 -45.37044,-17.19555 -69.65185,-18.16119 -24.28141,-0.96565 -48.80243,0.53255 -72.72593,-3.73186 -25.55689,-4.55556 -50.32736,-16.07565 -68.03931,-35.05444 -8.85598,-9.4894 -15.86091,-20.75781 -20.05416,-33.04169 -4.19324,-12.28388 -5.5372,-25.58184 -3.47252,-38.39644 3.42814,-21.27699 16.22953,-40.4547 33.22953,-53.70093 17,-13.24623 37.93829,-20.85372 59.25318,-24.03773 16.09969,-2.40497 32.52894,-2.39944 48.49455,-5.5748 7.98281,-1.58768 15.85166,-3.98423 23.06861,-7.74742 7.21694,-3.76319 13.77894,-8.93565 18.58909,-15.50134 8.16421,-11.14387 10.76926,-25.79553 8.63947,-39.44486 -2.12978,-13.64933 -8.68738,-26.33754 -17.23585,-37.18945 -18.58598,-23.59409 -46.65207,-38.89986 -76.18064,-44.39374 -29.52858,-5.49388 -60.37397,-1.58802 -88.65159,8.53599 -46.3791,16.60473 -86.70348,50.54957 -109.15391,94.39836 -19.03685,37.1816 -24.94978,79.82831 -24.968,121.59998 -0.017,39.03432 4.85388,77.95922 12.40089,116.25702 6.66441,33.81897 15.42082,67.22544 26.19909,99.96629 4.0718,12.36878 -2.85707,22.79465 -15.86435,23.41769 z" ns1:nodetypes="ccaaaaaaaaaaaaaaccaaaaaaaaacaaaaaccaaaaaaaaaaccsaccaaccaaaaaaaaaaaaac" ns2:original-d="m 616.42347,689.18983 -153.9226,7.37283 c 33.81688,-30.71216 15.37615,-50.17018 19.34598,-76.01218 10.43788,-67.94641 25.4579,-138.60648 11.46774,-205.91131 -6.83671,-32.8905 -16.80656,-72.165 -45.23948,-90.05621 -35.17458,-22.13335 -86.64728,-19.05241 -124.65628,-2.24606 -42.7282,18.89303 -71.65156,63.51461 -92.43143,105.35768 -14.75744,29.7161 -26.57445,65.00825 -19.94386,97.51769 6.29822,30.87985 22.5683,72.95288 53.70712,77.81156 30.71073,4.79189 61.19194,-28.56009 73.83019,-56.95702 16.33055,-36.69317 2.88802,-81.83102 -9.17604,-120.13942 -12.38808,-39.33728 -33.13205,-78.0307 -62.96796,-106.50358 -31.45245,-30.01558 -73.46711,-73.06598 -115.25313,-61.06096 -43.19509,12.40984 -57.01959,73.02121 -67.468549,116.73208 -12.198769,51.03079 0.555717,105.32425 8.618621,157.16962 14.616998,93.98891 41.861208,185.88019 71.643758,276.21607 6.65665,20.19084 0.22597,40.14426 23.84341,59.15505 l -163.519983,7.3526 C 47.682274,843.11416 39.019603,820.63857 40.641373,792.73069 49.241,644.74583 12.653361,497.43515 5.101344,349.44956 3.5532182,319.11324 -0.44331949,288.52527 3.1012509,258.36349 7.2510055,223.05202 10.626161,184.92015 30.101431,155.17399 44.60225,133.02572 67.162218,113.74858 92.482285,106.02108 c 27.263245,-8.320534 60.770455,-8.162362 85.274085,6.40087 114.33939,67.9553 190.45023,204.79208 216.41477,335.2423 13.65773,68.61874 2.97491,149.52182 -37.63881,206.49191 -19.66412,27.58345 -54.92669,53.76825 -88.57179,49.82726 -53.74433,-6.2953 -110.19087,-46.80481 -119.2599,-110.1355 -4.96717,-37.47677 -4.68057,-67.38825 -0.72225,-100.73248 5.47302,-46.10389 9.52152,-95.46617 33.57921,-135.17448 46.32758,-76.46579 113.86082,-156.92153 200.78611,-177.83219 35.7912,-8.6099 79.22219,3.37381 106.92934,27.61126 37.10778,32.46086 44.46929,89.01192 55.69745,137.01841 6.44393,27.55133 6.22684,84.65593 6.22684,84.65593 l -28.7244,2.34379 c 0,0 -7.70132,-114.49154 18.78004,-161.94694 44.41211,-79.58786 123.67225,-163.29609 214.60704,-169.4219 85.35732,-5.750084 181.36678,54.73482 220.95341,130.57567 15.69643,30.07153 7.1115,70.92169 -7.61606,101.4794 -19.3076,40.06068 -62.32596,63.93348 -97.84456,90.69298 -22.07114,16.62827 -73.64523,15.39533 -70.94078,42.89662 2.4627,25.04288 48.3953,14.61453 70.97082,25.73014 52.82435,26.00936 129.98605,39.17784 148.97585,94.9119 23.8484,69.99394 -19.5921,160.11289 -75.39477,208.63058 -64.29326,55.89989 -169.07775,26.32021 -250.11501,52.6144 -36.74757,11.9235 -105.81977,47.27752 -105.81977,47.27752 l -6.7379,-75.24628 c 0,0 100.82396,51.31556 144.10538,54.59776 67.51055,5.1196 140.19846,14.87294 206.4448,-3.79569 38.14504,-10.74951 75.39837,-51.81665 102.52197,-60.20468 l 0.5746,134.15594 c -0.3629,-5.45271 -87.08622,27.67853 -132.12181,28.30552 -86.28729,1.2013 -168.30479,-49.98238 -254.55443,-47.16461 -39.02764,1.27502 -113.54633,28.81443 -113.54633,28.81443 L 498.7131,799.83659 c 20.56418,31.8184 74.20245,-26.9661 112.93094,-33.34526 80.72432,-13.29651 167.64927,16.25858 245.24583,-9.66411 39.57272,-13.22006 89.08548,-31.87363 102.91918,-71.23603 11.93226,-33.95204 -3.68601,-79.82504 -30.81364,-103.47268 -36.19533,-31.55211 -100.39162,1.40502 -142.37778,-21.89305 -40.93529,-22.71493 -95.3451,-59.83011 -91.56599,-106.49257 3.25089,-40.14036 57.22275,-58.28225 92.48271,-77.73866 27.62299,-15.24234 72.99941,-2.34454 90.15225,-28.82356 13.97538,-21.57394 8.62484,-57.55092 -8.59638,-76.63431 -37.67106,-41.74454 -110.343,-49.73721 -164.83223,-35.85775 -46.61515,11.87378 -84.8302,52.89757 -109.15391,94.39836 -20.92337,35.69916 -22.97744,80.26894 -24.968,121.59998 -1.87478,38.92706 5.10467,77.97392 12.40089,116.25702 7.91708,41.5407 26.04558,105.88597 33.8865,122.25586 z" ns2:path-effect="#path-effect1305;#path-effect852" /><g style="clip-rule:evenodd;fill-rule:evenodd;image-rendering:optimizeQuality;shape-rendering:geometricPrecision;text-rendering:geometricPrecision" id="g869" /></svg>