<?xml version="1.0" encoding="UTF-8" standalone="no"?>
<svg
   xml:space="preserve"
   width="1000"
   height="1000"
   version="1.1"
   style="clip-rule:evenodd;fill-rule:evenodd;image-rendering:optimizeQuality;shape-rendering:geometricPrecision;text-rendering:geometricPrecision"
   viewBox="0 0 1000 1000"
   id="svg10"
   sodipodi:docname="ത്തു.svg"
   inkscape:version="1.1.2 (0a00cf5339, 2022-02-04)"
   xmlns:inkscape="http://www.inkscape.org/namespaces/inkscape"
   xmlns:sodipodi="http://sodipodi.sourceforge.net/DTD/sodipodi-0.dtd"
   xmlns="http://www.w3.org/2000/svg"
   xmlns:svg="http://www.w3.org/2000/svg"
   xmlns:rdf="http://www.w3.org/1999/02/22-rdf-syntax-ns#"
   xmlns:cc="http://creativecommons.org/ns#"
   xmlns:dc="http://purl.org/dc/elements/1.1/"><metadata
   id="metadata14"><rdf:RDF><cc:Work
       rdf:about=""><dc:format>image/svg+xml</dc:format><dc:type
         rdf:resource="http://purl.org/dc/dcmitype/StillImage" /></cc:Work></rdf:RDF></metadata><sodipodi:namedview
   pagecolor="#ffffff"
   bordercolor="#666666"
   borderopacity="1"
   objecttolerance="10"
   gridtolerance="10"
   guidetolerance="10"
   inkscape:pageopacity="0"
   inkscape:pageshadow="2"
   inkscape:window-width="1920"
   inkscape:window-height="1009"
   id="namedview12"
   showgrid="false"
   inkscape:zoom="0.84890884"
   inkscape:cx="586.04644"
   inkscape:cy="462.94723"
   inkscape:window-x="0"
   inkscape:window-y="0"
   inkscape:window-maximized="1"
   inkscape:current-layer="svg10"
   showguides="true"
   inkscape:guide-bbox="true"
   inkscape:document-rotation="0"
   inkscape:pagecheckerboard="0"><sodipodi:guide
     position="0,1000"
     orientation="0,1"
     id="guide16"
     inkscape:label=""
     inkscape:locked="true"
     inkscape:color="rgb(0,0,255)" /><sodipodi:guide
     position="1763.3122,2036.1693"
     orientation="1000,0"
     id="guide18" /><sodipodi:guide
     position="0,200"
     orientation="0,1"
     id="guide20"
     inkscape:label="base"
     inkscape:locked="true"
     inkscape:color="rgb(0,0,255)" /><inkscape:grid
     type="xygrid"
     id="grid24"
     originx="-473.37552"
     originy="-489.69235" /><sodipodi:guide
     position="0,0"
     orientation="0,1"
     id="guide34"
     inkscape:label="bottom"
     inkscape:locked="true"
     inkscape:color="rgb(0,0,255)" /><sodipodi:guide
     position="225.05109,1693.3186"
     orientation="0,1"
     id="guide44"
     inkscape:label=""
     inkscape:locked="false"
     inkscape:color="rgb(0,0,255)" /><sodipodi:guide
     position="0,900"
     orientation="0,1"
     id="guide46"
     inkscape:label=""
     inkscape:locked="true"
     inkscape:color="rgb(0,0,255)" /><sodipodi:guide
     position="1196.3484,303.81901"
     orientation="-1,0"
     id="guide867"
     inkscape:label="width"
     inkscape:locked="false"
     inkscape:color="rgb(0,0,255)" /><sodipodi:guide
     position="572.49963,579.46015"
     orientation="-1,0"
     id="guide861"
     inkscape:label="vc"
     inkscape:locked="false"
     inkscape:color="rgb(0,0,255)" /></sodipodi:namedview>
 <defs
   id="defs4"><inkscape:path-effect
   effect="fillet_chamfer"
   id="path-effect3137"
   is_visible="true"
   lpeversion="1"
   satellites_param="F,0,1,1,0,22.910303,0,1 @ F,0,0,1,0,0,0,1 @ F,0,0,1,0,0,0,1 @ F,0,0,1,0,0,0,1 @ F,0,0,1,0,0,0,1 @ F,0,0,1,0,0,0,1 @ F,0,0,1,0,0,0,1 @ F,0,0,1,0,0,0,1 @ F,0,0,1,0,0,0,1 @ F,0,0,1,0,0,0,1 @ F,0,0,1,0,0,0,1 @ F,0,0,1,0,0,0,1 @ F,0,0,1,0,0,0,1 @ F,0,0,1,0,0,0,1 @ F,0,0,1,0,0,0,1 @ F,0,0,1,0,0,0,1 @ F,0,0,1,0,0,0,1 @ F,0,0,1,0,0,0,1 @ F,0,0,1,0,0,0,1 @ F,0,0,1,0,0,0,1 @ F,0,0,1,0,0,0,1 @ F,0,0,1,0,0,0,1 @ F,0,0,1,0,0,0,1 @ F,0,0,1,0,0,0,1 @ F,0,1,1,0,22.910303,0,1 @ F,0,0,1,0,22.910303,0,1 @ F,0,0,1,0,0,0,1 @ F,0,0,1,0,0,0,1 @ F,0,0,1,0,0,0,1 @ F,0,0,1,0,0,0,1 @ F,0,0,1,0,0,0,1 @ F,0,0,1,0,0,0,1 @ F,0,0,1,0,0,0,1 @ F,0,0,1,0,0,0,1 @ F,0,0,1,0,0,0,1 @ F,0,0,1,0,0,0,1 @ F,0,0,1,0,0,0,1 @ F,0,0,1,0,0,0,1 @ F,0,0,1,0,0,0,1 @ F,0,0,1,0,0,0,1 @ F,0,0,1,0,0,0,1 @ F,0,0,1,0,0,0,1 @ F,0,0,1,0,0,0,1 @ F,0,0,1,0,0,0,1 @ F,0,0,1,0,0,0,1 @ F,0,0,1,0,0,0,1 @ F,0,0,1,0,0,0,1 @ F,0,0,1,0,0,0,1 @ F,0,0,1,0,0,0,1 @ F,0,0,1,0,0,0,1 @ F,0,0,1,0,0,0,1 @ F,0,0,1,0,0,0,1 @ F,0,0,1,0,0,0,1 @ F,0,0,1,0,0,0,1 @ F,0,0,1,0,0,0,1 @ F,0,0,1,0,0,0,1 @ F,0,0,1,0,0,0,1 @ F,0,0,1,0,0,0,1 @ F,0,0,1,0,0,0,1 @ F,0,0,1,0,0,0,1 @ F,0,0,1,0,0,0,1 @ F,0,0,1,0,0,0,1 @ F,0,0,1,0,0,0,1 @ F,0,0,1,0,0,0,1 @ F,0,0,1,0,0,0,1 @ F,0,0,1,0,0,0,1 @ F,0,0,1,0,0,0,1 @ F,0,0,1,0,0,0,1 @ F,0,0,1,0,0,0,1 @ F,0,0,1,0,0,0,1 @ F,0,0,1,0,0,0,1 @ F,0,0,1,0,0,0,1 @ F,0,0,1,0,0,0,1 @ F,0,0,1,0,0,0,1 @ F,0,0,1,0,0,0,1 @ F,0,0,1,0,0,0,1 @ F,0,0,1,0,0,0,1 @ F,0,0,1,0,0,0,1 @ F,0,0,1,0,0,0,1 @ F,0,1,1,0,22.910303,0,1 @ F,0,1,1,0,22.910303,0,1 @ F,0,0,1,0,0,0,1 @ F,0,0,1,0,0,0,1 @ F,0,1,1,0,22.910303,0,1 @ F,0,1,1,0,22.910303,0,1 @ F,0,0,1,0,0,0,1 @ F,0,0,1,0,0,0,1 @ F,0,0,1,0,0,0,1 @ F,0,0,1,0,0,0,1 @ F,0,0,1,0,0,0,1 @ F,0,0,1,0,0,0,1 @ F,0,0,1,0,0,0,1 @ F,0,0,1,0,0,0,1 @ F,0,0,1,0,0,0,1 @ F,0,0,1,0,0,0,1 @ F,0,0,1,0,0,0,1 @ F,0,0,1,0,0,0,1 @ F,0,0,1,0,0,0,1 @ F,0,0,1,0,0,0,1 @ F,0,0,1,0,0,0,1 @ F,0,0,1,0,0,0,1 @ F,0,0,1,0,0,0,1 @ F,0,0,1,0,0,0,1 @ F,0,0,1,0,0,0,1 @ F,0,0,1,0,0,0,1 @ F,0,0,1,0,0,0,1 @ F,0,0,1,0,0,0,1 @ F,0,0,1,0,0,0,1 @ F,0,0,1,0,0,0,1 @ F,0,0,1,0,0,0,1 @ F,0,0,1,0,0,0,1 @ F,0,0,1,0,0,0,1 @ F,0,1,1,0,22.910303,0,1"
   unit="px"
   method="auto"
   mode="F"
   radius="0"
   chamfer_steps="1"
   flexible="false"
   use_knot_distance="true"
   apply_no_radius="true"
   apply_with_radius="true"
   only_selected="false"
   hide_knots="false" /><inkscape:path-effect
   effect="fillet_chamfer"
   id="path-effect849"
   is_visible="true"
   lpeversion="1"
   satellites_param="F,0,1,1,0,20.667921,0,1 @ F,0,0,1,0,0,0,1 @ F,0,0,1,0,0,0,1 @ F,0,0,1,0,0,0,1 @ F,0,0,1,0,0,0,1 @ F,0,0,1,0,0,0,1 @ F,0,0,1,0,0,0,1 @ F,0,0,1,0,0,0,1 @ F,0,0,1,0,0,0,1 @ F,0,0,1,0,0,0,1 @ F,0,0,1,0,0,0,1 @ F,0,0,1,0,0,0,1 @ F,0,0,1,0,0,0,1 @ F,0,0,1,0,0,0,1 @ F,0,0,1,0,0,0,1 @ F,0,0,1,0,0,0,1 @ F,0,0,1,0,0,0,1 @ F,0,0,1,0,0,0,1 @ F,0,0,1,0,0,0,1 @ F,0,0,1,0,0,0,1 @ F,0,0,1,0,0,0,1 @ F,0,0,1,0,0,0,1 @ F,0,0,1,0,0,0,1 @ F,0,0,1,0,0,0,1 @ F,0,1,1,0,20.667921,0,1 @ F,0,1,1,0,20.667921,0,1 @ F,0,0,1,0,0,0,1 @ F,0,0,1,0,0,0,1 @ F,0,0,1,0,0,0,1 @ F,0,0,1,0,0,0,1 @ F,0,0,1,0,0,0,1 @ F,0,0,1,0,0,0,1 @ F,0,0,1,0,0,0,1 @ F,0,0,1,0,0,0,1 @ F,0,0,1,0,0,0,1 @ F,0,0,1,0,0,0,1 @ F,0,0,1,0,0,0,1 @ F,0,0,1,0,0,0,1 @ F,0,0,1,0,0,0,1 @ F,0,0,1,0,0,0,1 @ F,0,0,1,0,0,0,1 @ F,0,0,1,0,0,0,1 @ F,0,0,1,0,0,0,1 @ F,0,0,1,0,0,0,1 @ F,0,0,1,0,0,0,1 @ F,0,0,1,0,0,0,1 @ F,0,0,1,0,0,0,1 @ F,0,0,1,0,0,0,1 @ F,0,0,1,0,0,0,1 @ F,0,0,1,0,0,0,1 @ F,0,0,1,0,0,0,1 @ F,0,0,1,0,0,0,1 @ F,0,0,1,0,0,0,1 @ F,0,0,1,0,0,0,1 @ F,0,0,1,0,0,0,1 @ F,0,0,1,0,0,0,1 @ F,0,0,1,0,0,0,1 @ F,0,0,1,0,0,0,1 @ F,0,0,1,0,0,0,1 @ F,0,0,1,0,0,0,1 @ F,0,0,1,0,0,0,1 @ F,0,0,1,0,0,0,1 @ F,0,0,1,0,0,0,1 @ F,0,0,1,0,0,0,1 @ F,0,0,1,0,0,0,1 @ F,0,0,1,0,0,0,1 @ F,0,0,1,0,0,0,1 @ F,0,0,1,0,0,0,1 @ F,0,0,1,0,0,0,1 @ F,0,0,1,0,0,0,1 @ F,0,0,1,0,0,0,1 @ F,0,0,1,0,0,0,1 @ F,0,0,1,0,0,0,1 @ F,0,0,1,0,0,0,1 @ F,0,0,1,0,0,0,1 @ F,0,1,1,0,20.667921,0,1 @ F,0,1,1,0,20.667921,0,1 @ F,0,0,1,0,0,0,1 @ F,0,0,1,0,0,0,1 @ F,0,0,1,0,0,0,1 @ F,0,1,1,0,20.667921,0,1 @ F,0,1,1,0,20.667921,0,1 @ F,0,0,1,0,0,0,1 @ F,0,0,1,0,0,0,1 @ F,0,0,1,0,0,0,1 @ F,0,0,1,0,0,0,1 @ F,0,0,1,0,0,0,1 @ F,0,0,1,0,0,0,1 @ F,0,0,1,0,0,0,1 @ F,0,0,1,0,0,0,1 @ F,0,0,1,0,0,0,1 @ F,0,0,1,0,0,0,1 @ F,0,0,1,0,0,0,1 @ F,0,0,1,0,0,0,1 @ F,0,0,1,0,0,0,1 @ F,0,0,1,0,0,0,1 @ F,0,0,1,0,0,0,1 @ F,0,0,1,0,0,0,1 @ F,0,0,1,0,0,0,1 @ F,0,0,1,0,0,0,1 @ F,0,0,1,0,0,0,1 @ F,0,0,1,0,0,0,1 @ F,0,0,1,0,0,0,1 @ F,0,0,1,0,0,0,1 @ F,0,0,1,0,0,0,1 @ F,0,0,1,0,0,0,1 @ F,0,0,1,0,0,0,1 @ F,0,0,1,0,0,0,1 @ F,0,1,1,0,20.667921,0,1"
   unit="px"
   method="auto"
   mode="F"
   radius="0"
   chamfer_steps="1"
   flexible="false"
   use_knot_distance="true"
   apply_no_radius="true"
   apply_with_radius="true"
   only_selected="true"
   hide_knots="false" /><inkscape:path-effect
   effect="spiro"
   id="path-effect865"
   is_visible="true"
   lpeversion="1" /><inkscape:path-effect
   effect="spiro"
   id="path-effect851"
   is_visible="true"
   lpeversion="1" />
  <style
   type="text/css"
   id="style2">
   
    .fil0 {fill:#EF7F1A;fill-rule:nonzero}
   
  </style>
 <inkscape:path-effect
   effect="spiro"
   id="path-effect1214"
   is_visible="true"
   lpeversion="1" /><inkscape:path-effect
   effect="spiro"
   id="path-effect1195"
   is_visible="true"
   lpeversion="1" /><inkscape:path-effect
   effect="spiro"
   id="path-effect992"
   is_visible="true"
   lpeversion="1" /><inkscape:path-effect
   effect="spiro"
   id="path-effect1060"
   is_visible="true"
   lpeversion="1" /><inkscape:path-effect
   effect="spiro"
   id="path-effect1047"
   is_visible="true"
   lpeversion="1" /><inkscape:path-effect
   effect="spiro"
   id="path-effect1085"
   is_visible="true"
   lpeversion="1" /><inkscape:path-effect
   effect="spiro"
   id="path-effect1286"
   is_visible="true"
   lpeversion="1" /><inkscape:path-effect
   effect="spiro"
   id="path-effect1305"
   is_visible="true"
   lpeversion="1" /></defs>
 
<path
   id="path1210-6"
   style="display:inline;fill:#26a269;fill-rule:nonzero;stroke:none;stroke-width:2.22142px;stroke-linecap:butt;stroke-linejoin:miter;stroke-opacity:1"
   d="m 506.31977,595.62531 c 8.01823,-25.26853 14.2455,-51.10544 18.61416,-77.25326 6.39036,-38.24829 8.77898,-77.56162 2.05364,-115.75243 -5.25035,-29.81488 -15.95328,-58.41474 -28.32927,-86.04314 -7.4275,-16.5813 -15.59195,-33.06397 -27.24609,-47.0027 -11.65414,-13.93874 -27.19903,-25.27633 -45.01039,-28.86279 -17.61819,-3.54756 -36.16773,0.76516 -52.07643,9.12572 -15.90871,8.36056 -29.47816,20.54638 -42.01723,33.42107 -36.26533,37.23602 -65.49369,81.61169 -83.32076,130.4368 -11.42106,31.2802 -18.13772,64.26669 -19.94386,97.51769 -1.13377,20.87278 -0.20887,42.45621 8.26894,61.56341 4.23891,9.5536 10.36813,18.3494 18.35269,25.09376 7.98456,6.74436 17.87001,11.37038 28.26347,12.47286 9.77439,1.03682 19.77731,-1.06215 28.58676,-5.42187 8.80945,-4.35973 16.44529,-10.92221 22.55951,-18.61831 12.22844,-15.3922 18.22682,-34.85228 21.50594,-54.23531 6.76162,-39.96824 2.91312,-81.44792 -9.17604,-120.13942 -12.41767,-39.74291 -33.65366,-76.93384 -62.96796,-106.50358 -13.90203,-14.02317 -29.78834,-26.43596 -48.01935,-34.02186 -18.23102,-7.5859 -39.00766,-10.06465 -57.9123,-4.3611 -20.60239,6.21577 -37.56745,21.7203 -48.7322,40.11711 -11.16474,18.39681 -17.00361,39.56193 -20.53266,60.79021 -8.2443,49.59187 -4.51451,100.35766 1.09345,150.31638 10.30521,91.80436 27.64988,185.05968 73.99772,264.97286 8.90698,15.35746 18.83668,30.12146 29.69813,44.16473 7.73999,10.00738 4.26999,17.84746 -8.38192,18.01427 L 38.762534,847.61678 C 26.110623,847.78359 19.720159,838.41145 23.904281,826.47136 34.664649,795.76484 42.548593,764.05022 47.406586,731.87742 67.239495,600.53096 36.473761,467.61013 23.101344,335.44956 c -3.062878,-30.27065 -5.210838,-60.83075 -2.000093,-91.08607 3.239144,-30.52293 12.147226,-60.84098 29.078618,-86.44311 14.900822,-22.53169 36.518304,-41.3529 62.380851,-49.15291 27.77063,-8.37547 58.01594,-3.51626 85.27409,6.40087 63.02043,22.92826 114.35382,71.97291 148.93562,129.43054 34.58179,57.45763 53.59765,123.05046 65.40071,189.06537 7.0826,39.61322 11.70458,80.0182 7.98142,120.08699 -3.72316,40.0688 -16.22862,80.01999 -40.66672,111.99106 -10.50597,13.7444 -23.18241,25.9379 -37.88875,35.04875 -14.70633,9.11085 -31.4846,15.07796 -48.7415,16.29585 -15.99095,1.12854 -32.19543,-1.84197 -46.9544,-8.09954 -14.75896,-6.25758 -28.07561,-15.76014 -39.17237,-27.32934 -22.19351,-23.13838 -35.14767,-54.12229 -40.02818,-85.8101 -5.75619,-37.37342 -0.85568,-75.54782 5.98385,-112.73824 8.24083,-44.81007 19.29784,-89.10765 33.24589,-132.48167 13.15446,-40.9062 29.04035,-81.3042 52.46954,-117.32406 23.42918,-36.01986 54.88551,-67.65574 93.60709,-86.28357 29.7384,-14.30629 64.19654,-20.55319 96.20731,-12.53116 29.01071,7.2702 54.31771,25.7691 73.90299,48.37207 19.58527,22.60296 33.92747,49.23494 46.69782,76.27926 13.01955,27.57206 24.58144,55.83237 34.62125,84.62351 l -53.99826,0.95042 c 7.84074,-45.15841 24.43609,-88.78018 48.59366,-127.73106 11.93857,-19.24936 25.8107,-37.47847 42.76893,-52.49465 16.95822,-15.01619 37.14642,-26.75559 59.19696,-31.93644 33.3474,-7.83509 68.82134,-0.19611 99.77937,14.46805 40.53143,19.19888 74.85453,50.06208 101.99231,85.76831 27.13778,35.70622 47.39348,76.21229 64.08432,117.83932 17.01947,42.44665 30.58608,86.82747 33.24593,132.48167 2.2136,37.99424 -3.21039,76.24582 -14.0162,112.73824 -8.93208,30.16464 -21.89747,59.80824 -43.10318,83.04627 -10.60285,11.61901 -23.20739,21.50672 -37.38449,28.32079 -14.17711,6.81407 -29.95006,10.49748 -45.66727,9.87192 -17.33855,-0.6901 -34.27473,-6.60979 -48.97944,-15.82246 -14.7047,-9.21267 -27.24294,-21.6377 -37.65081,-35.52214 -24.13362,-32.19505 -36.78541,-72.00248 -40.69585,-112.04822 -3.91045,-40.04575 0.53179,-80.49477 8.01055,-120.02983 12.37487,-65.41745 33.37761,-129.84651 68.4835,-186.41644 35.10589,-56.56992 85.00719,-105.05378 145.85283,-132.07947 20.35616,-9.04156 42.56855,-15.727974 64.69186,-13.14303 20.4877,2.39383 39.5128,12.70709 54.7824,26.57483 15.2696,13.86774 27.0573,31.16419 37.1012,49.18069 53.8167,96.53502 58.9733,212.50202 51.7388,322.78759 -3.8375,58.50055 -10.964,117.52574 -32.0026,172.24702 -21.0386,54.72127 -57.3006,105.29637 -108.4116,134.014 -30.56386,17.17284 -65.14649,25.94573 -99.75285,31.55423 -34.60637,5.6085 -69.65063,8.23299 -104.21629,14.08715 -59.60768,10.09537 -117.56959,29.84422 -170.94087,58.24315 l -22.67713,-69.08713 c 79.67551,32.92885 166.48809,48.46152 252.63839,45.20252 50.59557,-1.91399 101.07728,-10.28032 149.00325,-26.61053 34.689,-11.81987 67.9586,-27.79468 98.8864,-47.45334 10.6773,-6.78682 21.2732,-2.75839 24.0507,9.58599 l 33.2706,147.86497 c 2.7775,12.34438 -5.1963,23.18342 -17.8311,23.85435 -38.2038,2.02868 -76.5355,1.64787 -114.6912,-1.1432 -126.18417,-9.23033 -252.80181,-44.69707 -377.45212,-23.01893 -26.45514,4.60086 -52.46372,11.76189 -77.55012,21.33812 -11.81954,4.51188 -24.27103,-1.02382 -28.09742,-13.08439 L 516.89319,821.8376 c -3.82639,-12.06057 2.68675,-25.43143 14.76217,-29.20646 42.61573,-13.32257 87.13548,-20.5534 131.77908,-21.35927 47.60483,-0.85932 95.05206,5.51812 142.6556,6.44651 47.60353,0.92839 96.65728,-3.99764 138.97426,-25.82037 39.21394,-20.2225 70.4157,-54.08965 91.8382,-92.66112 21.4225,-38.57147 33.5364,-81.74524 40.4152,-125.32694 7.9913,-50.63016 9.1225,-102.36058 3.0327,-153.25447 -3.2979,-27.56163 -8.8682,-55.34284 -21.9696,-79.81472 -6.5507,-12.23594 -14.9692,-23.54088 -25.328,-32.77809 -10.3587,-9.23721 -22.6925,-16.37118 -36.07863,-20.03739 -24.05426,-6.588 -50.26624,-1.5736 -72.43902,9.84467 -22.17278,11.41827 -40.73363,28.81182 -57.18795,47.55386 -27.39313,31.20172 -49.92773,67.08425 -62.96796,106.50358 -12.74267,38.51985 -16.18214,80.17607 -9.17604,120.13942 3.38877,19.32984 9.4358,38.72294 21.64462,54.08755 6.10441,7.6823 13.71404,14.24303 22.49363,18.62485 8.7796,4.38182 18.7492,6.52806 28.51396,5.56309 10.43197,-1.0309 20.38287,-5.59452 28.43522,-12.30633 8.05234,-6.71182 14.24948,-15.50458 18.52393,-25.0763 8.5489,-19.14343 9.40683,-40.83421 7.92595,-61.7474 -2.34865,-33.16784 -10.20245,-65.72576 -19.94386,-97.51769 -7.72921,-25.22494 -16.73718,-50.23999 -29.96349,-73.06767 -13.22632,-22.82768 -30.91104,-43.50533 -53.35727,-57.36913 -27.74272,-17.13514 -62.12445,-22.96869 -94.09366,-16.54679 -17.82615,3.58088 -34.96354,10.87793 -49.53976,21.74662 -18.99419,14.16293 -33.25615,34.0947 -42.67109,55.83697 -9.41494,21.74228 -14.16183,45.28208 -16.25154,68.88295 -4.74897,53.6342 4.13806,108.31345 24.78023,158.04353 2.6721,6.4375 5.5378,12.79462 8.59157,19.06008 5.54262,11.3719 0.45929,20.67847 -12.18264,21.20773 l -116.27264,4.86772 c -12.64193,0.52926 -19.34333,-8.67175 -15.51659,-20.73128 z"
   sodipodi:nodetypes="caaaaaaaaaaaaaaaccaaaaaaaaacaaaaaccaaaaacaaaaaaaaaccaaccaaccaaaaaaaaaaaaaaaacc"
   inkscape:original-d="m 498.94611,617.31489 c 10.36705,-33.93407 21.32076,-65.16412 25.98782,-98.94284 5.28167,-38.22707 7.82672,-77.59648 2.05364,-115.75243 -4.51725,-29.8558 -12.81622,-60.13716 -28.32927,-86.04314 -17.94178,-29.96184 -37.97882,-69.18258 -72.25648,-75.86549 -33.78584,-6.58703 -68.06814,20.01805 -94.09366,42.54679 -39.00773,33.76665 -63.94035,82.62269 -83.32076,130.4368 -12.46338,30.74886 -24.96634,64.7213 -19.94386,97.51769 5.71749,37.33472 17.39243,94.56159 54.8851,99.13003 35.33732,4.30582 60.91607,-44.66702 72.65221,-78.27549 13.24093,-37.91772 2.88802,-81.83101 -9.17604,-120.13942 C 335.01673,372.59011 316.18562,331.74684 284.43685,305.42381 255.5247,281.45263 214.26272,255.5548 178.5052,267.04085 c -38.84272,12.47708 -57.3199,61.89768 -69.26486,100.90732 -14.6706,47.911 -5.88872,100.69845 1.09345,150.31638 12.77854,90.80911 34.40469,182.25661 73.99772,264.97286 10.94576,22.86744 20.60708,42.86617 44.22452,61.87696 L 15.854222,847.91882 C 39.235519,816.04471 43.319961,771.75342 47.406586,731.87742 60.903738,600.17648 28.606465,467.7258 23.101344,335.44956 c -1.262829,-30.34308 -6.576631,-61.06354 -2.000093,-91.08607 4.581305,-30.05381 11.564019,-61.5944 29.078618,-86.44311 15.251615,-21.63812 37.060787,-41.42542 62.380851,-49.15291 27.26324,-8.32054 60.63242,-7.92756 85.27409,6.40087 110.62463,64.32507 185.63441,193.78936 214.33633,318.49591 17.5223,76.13239 10.63915,167.0691 -32.6853,232.07805 -18.61555,27.9329 -53.28532,55.20479 -86.63025,51.3446 -57.93589,-6.70698 -117.08592,-57.90829 -126.15495,-121.23898 -4.96717,-37.47677 0.38066,-75.52541 5.98385,-112.73824 6.77907,-45.02231 14.09619,-91.17485 33.24589,-132.48167 35.1322,-75.78186 74.38945,-160.73445 146.07663,-203.60763 27.75505,-16.59917 65.67781,-23.20004 96.20731,-12.53116 54.57773,19.07281 88.9842,76.24791 120.60081,124.65133 16.66693,25.51621 34.62125,84.62351 34.62125,84.62351 l -53.99826,0.95042 c 0,0 22.07467,-90.69165 48.59366,-127.73106 25.6889,-35.88001 59.48152,-72.49909 101.96589,-84.43109 32.35572,-9.08731 70.53563,-2.09321 99.77937,14.46805 76.21081,43.15956 126.79863,125.32561 166.07663,203.60763 20.41851,40.69459 30.46625,87.03678 33.24593,132.48167 2.312,37.79809 -9.049,75.26147 -14.0162,112.73824 -9.069,63.33069 -68.21905,114.532 -126.15494,121.23898 -33.34493,3.86019 -68.0147,-23.4117 -86.63025,-51.3446 -43.32445,-65.00895 -50.2076,-155.94566 -32.6853,-232.07805 28.70192,-124.70655 107.96367,-247.35956 214.33633,-318.49591 18.29125,-12.23221 43.34192,-18.470216 64.69186,-13.14303 38.5145,9.61008 72.1555,41.30954 91.8836,75.75552 54.1563,94.55897 66.4561,214.81674 51.7388,322.78759 -15.1679,111.27613 -53.1261,235.59836 -140.4142,306.26102 -54.15129,43.83722 -136.902,26.77189 -203.96914,45.64138 -57.9471,16.30355 -170.94087,58.24315 -170.94087,58.24315 l -22.67713,-69.08713 c 0,0 167.08826,45.18878 252.63839,45.20252 50.4536,0.008 101.18217,-10.52607 149.00325,-26.61053 41.8292,-14.0691 107.9731,-73.76225 117.9079,-60.21883 l 43.329,192.56793 c 4.0616,-3.26934 -91.7203,1.69591 -137.5515,0.35967 C 923.59162,989.25406 797.31935,955.13417 672.13708,969.90867 637.97301,973.94085 651.93523,980.5825 573.41784,1000 L 509.96489,800 c 28.07945,16.68378 101.84275,-22.14304 153.46955,-28.72813 93.34223,-11.90595 201.26504,29.5753 281.62986,-19.37386 72.5857,-44.21103 108.557,-136.36829 132.2534,-217.98806 14.246,-49.06866 16.6964,-104.02048 3.0327,-153.25447 -13.9645,-50.3182 -33.4328,-117.37938 -83.37623,-132.6302 -45.19532,-13.80093 -94.31428,25.99635 -129.62697,57.39853 -30.81882,27.40596 -50.57988,67.1663 -62.96796,106.50358 -12.06406,38.30841 -22.41697,82.2217 -9.17604,120.13942 11.73614,33.60847 37.31489,82.58131 72.65221,78.27549 37.49267,-4.56844 49.16761,-61.79531 54.8851,-99.13003 5.02248,-32.79639 -7.48048,-66.76883 -19.94386,-97.51769 -19.38041,-47.81411 -40.39914,-101.80947 -83.32076,-130.4368 -26.49365,-17.67041 -62.47603,-20.35235 -94.09366,-16.54679 -17.90501,2.15508 -36.61217,9.17239 -49.53976,21.74662 -32.95968,32.05875 -52.37384,79.20929 -58.92263,124.71992 -7.59499,52.78116 8.71852,107.19516 24.78023,158.04353 4.39674,13.91927 19.29918,39.30951 19.29918,39.30951 z"
   inkscape:path-effect="#path-effect1305;#path-effect3137" /></svg>
