<?xml version="1.0" encoding="UTF-8" standalone="no"?>
<svg
   xmlns:dc="http://purl.org/dc/elements/1.1/"
   xmlns:cc="http://creativecommons.org/ns#"
   xmlns:rdf="http://www.w3.org/1999/02/22-rdf-syntax-ns#"
   xmlns:svg="http://www.w3.org/2000/svg"
   xmlns="http://www.w3.org/2000/svg"
   xmlns:sodipodi="http://sodipodi.sourceforge.net/DTD/sodipodi-0.dtd"
   xmlns:inkscape="http://www.inkscape.org/namespaces/inkscape"
   xml:space="preserve"
   width="1000"
   height="1000"
   version="1.1"
   style="clip-rule:evenodd;fill-rule:evenodd;image-rendering:optimizeQuality;shape-rendering:geometricPrecision;text-rendering:geometricPrecision"
   viewBox="0 0 1000 1000"
   id="svg10"
   sodipodi:docname="ത്മ.svg"
   inkscape:version="1.0.2 (e86c870879, 2021-01-15)"><metadata
   id="metadata14"><rdf:RDF><cc:Work
       rdf:about=""><dc:format>image/svg+xml</dc:format><dc:type
         rdf:resource="http://purl.org/dc/dcmitype/StillImage" /><dc:title /></cc:Work></rdf:RDF></metadata><sodipodi:namedview
   pagecolor="#ffffff"
   bordercolor="#666666"
   borderopacity="1"
   objecttolerance="10"
   gridtolerance="10"
   guidetolerance="10"
   inkscape:pageopacity="0"
   inkscape:pageshadow="2"
   inkscape:window-width="1920"
   inkscape:window-height="1007"
   id="namedview12"
   showgrid="false"
   inkscape:zoom="0.84890884"
   inkscape:cx="543.52982"
   inkscape:cy="520.21483"
   inkscape:window-x="1920"
   inkscape:window-y="0"
   inkscape:window-maximized="1"
   inkscape:current-layer="svg10"
   showguides="true"
   inkscape:guide-bbox="true"
   inkscape:document-rotation="0"><sodipodi:guide
   position="0,1000"
   orientation="0,1"
   id="guide16"
   inkscape:label=""
   inkscape:locked="true"
   inkscape:color="rgb(0,0,255)" /><sodipodi:guide
   position="1763.3122,2036.1693"
   orientation="1000,0"
   id="guide18" /><sodipodi:guide
   position="0,200"
   orientation="0,1"
   id="guide20"
   inkscape:label="base"
   inkscape:locked="true"
   inkscape:color="rgb(0,0,255)" /><inkscape:grid
   type="xygrid"
   id="grid24"
   originx="-473.37552"
   originy="-489.69235" /><sodipodi:guide
   position="0,0"
   orientation="0,1"
   id="guide34"
   inkscape:label="bottom"
   inkscape:locked="true"
   inkscape:color="rgb(0,0,255)" /><sodipodi:guide
   position="225.05109,1693.3186"
   orientation="0,1"
   id="guide44"
   inkscape:label=""
   inkscape:locked="false"
   inkscape:color="rgb(0,0,255)" /><sodipodi:guide
   position="0,900"
   orientation="0,1"
   id="guide46"
   inkscape:label=""
   inkscape:locked="true"
   inkscape:color="rgb(0,0,255)" /><sodipodi:guide
   position="1005.5331,369.00184"
   orientation="1,0"
   id="guide841"
   inkscape:label="width" />    </sodipodi:namedview>
 <defs
   id="defs4"><inkscape:path-effect
   effect="fillet_chamfer"
   id="path-effect850"
   is_visible="true"
   lpeversion="1"
   satellites_param="F,0,0,1,0,0,0,1 @ F,0,0,1,0,0,0,1 @ F,0,0,1,0,0,0,1 @ F,0,0,1,0,0,0,1 @ F,0,0,1,0,0,0,1 @ F,0,0,1,0,0,0,1 @ F,0,0,1,0,0,0,1 @ F,0,0,1,0,0,0,1 @ F,0,0,1,0,0,0,1 @ F,0,0,1,0,0,0,1 @ F,0,0,1,0,0,0,1 @ F,0,0,1,0,0,0,1 @ F,0,0,1,0,0,0,1 @ F,0,0,1,0,0,0,1 @ F,0,0,1,0,0,0,1 @ F,0,0,1,0,0,0,1 @ F,0,0,1,0,0,0,1 @ F,0,0,1,0,0,0,1 @ F,0,0,1,0,0,0,1 @ F,0,0,1,0,0,0,1 @ F,0,0,1,0,0,0,1 @ F,0,0,1,0,0,0,1 @ F,0,0,1,0,0,0,1 @ F,0,0,1,0,0,0,1 @ F,0,1,1,0,28.284205,0,1 @ F,0,1,1,0,28.284205,0,1 @ F,0,0,1,0,0,0,1 @ F,0,0,1,0,0,0,1 @ F,0,0,1,0,0,0,1 @ F,0,0,1,0,0,0,1 @ F,0,0,1,0,0,0,1 @ F,0,0,1,0,0,0,1 @ F,0,0,1,0,0,0,1 @ F,0,0,1,0,0,0,1 @ F,0,0,1,0,0,0,1 @ F,0,0,1,0,0,0,1 @ F,0,0,1,0,0,0,1 @ F,0,0,1,0,0,0,1 @ F,0,0,1,0,0,0,1 @ F,0,0,1,0,0,0,1 @ F,0,0,1,0,0,0,1 @ F,0,0,1,0,0,0,1 @ F,0,0,1,0,0,0,1 @ F,0,0,1,0,0,0,1 @ F,0,0,1,0,0,0,1 @ F,0,0,1,0,0,0,1 @ F,0,0,1,0,0,0,1 @ F,0,0,1,0,0,0,1 @ F,0,0,1,0,0,0,1 @ F,0,0,1,0,0,0,1 @ F,0,0,1,0,0,0,1 @ F,0,0,1,0,0,0,1 @ F,0,0,1,0,0,0,1 @ F,0,0,1,0,0,0,1 @ F,0,0,1,0,0,0,1 @ F,0,0,1,0,0,0,1 @ F,0,0,1,0,0,0,1 @ F,0,0,1,0,0,0,1 @ F,0,1,1,0,28.284205,0,1 @ F,0,0,1,0,0,0,1 @ F,0,1,1,0,28.284205,0,1 @ F,0,0,1,0,0,0,1 @ F,0,1,1,0,28.284205,0,1 @ F,0,1,1,0,28.284205,0,1 @ F,0,0,1,0,0,0,1 @ F,0,0,1,0,0,0,1 @ F,0,0,1,0,0,0,1 @ F,0,0,1,0,0,0,1 @ F,0,0,1,0,0,0,1 @ F,0,0,1,0,0,0,1 @ F,0,0,1,0,0,0,1 @ F,0,0,1,0,0,0,1 @ F,0,0,1,0,0,0,1 @ F,0,0,1,0,0,0,1 @ F,0,0,1,0,0,0,1 @ F,0,1,1,0,28.284205,0,1 @ F,0,1,1,0,28.284205,0,1 @ F,0,0,1,0,0,0,1"
   unit="px"
   method="auto"
   mode="F"
   radius="0"
   chamfer_steps="1"
   flexible="false"
   use_knot_distance="true"
   apply_no_radius="true"
   apply_with_radius="true"
   only_selected="true"
   hide_knots="false" /><inkscape:path-effect
   effect="spiro"
   id="path-effect851"
   is_visible="true"
   lpeversion="1" />
  <style
   type="text/css"
   id="style2">
   <![CDATA[
    .fil0 {fill:#EF7F1A;fill-rule:nonzero}
   ]]>
  </style>
 <inkscape:path-effect
   effect="spiro"
   id="path-effect1214"
   is_visible="true"
   lpeversion="1" /><inkscape:path-effect
   effect="spiro"
   id="path-effect1195"
   is_visible="true"
   lpeversion="1" /><inkscape:path-effect
   effect="spiro"
   id="path-effect992"
   is_visible="true"
   lpeversion="1" /><inkscape:path-effect
   effect="spiro"
   id="path-effect1060"
   is_visible="true"
   lpeversion="1" /><inkscape:path-effect
   effect="spiro"
   id="path-effect1047"
   is_visible="true"
   lpeversion="1" /><inkscape:path-effect
   effect="spiro"
   id="path-effect1085"
   is_visible="true"
   lpeversion="1" /><inkscape:path-effect
   effect="spiro"
   id="path-effect1286"
   is_visible="true"
   lpeversion="1" /><inkscape:path-effect
   effect="spiro"
   id="path-effect1305"
   is_visible="true"
   lpeversion="1" /><style
   type="text/css"
   id="style2-8">
   <![CDATA[
    .fil0 {fill:#EF7F1A;fill-rule:nonzero}
   ]]>
  </style></defs>
 
<path
   id="path1210-6"
   style="display:inline;fill:#000000;fill-rule:nonzero;stroke:none;stroke-width:2.22142px;stroke-linecap:butt;stroke-linejoin:miter;stroke-opacity:1"
   d="m 510.40972,324.23028 c -2.27305,-14.97484 -5.63847,-29.86413 -11.39362,-43.87451 -5.75515,-14.01038 -13.97991,-27.15841 -25.07713,-37.46686 -18.46045,-17.14831 -44.66928,-25.51815 -69.68885,-22.53923 -17.95199,2.13743 -34.93802,9.77651 -49.83819,20.01503 -14.90017,10.23851 -27.86643,23.03233 -40.10377,36.33984 -35.14303,38.21636 -65.22121,81.77543 -83.32076,130.4368 -11.61099,31.21662 -18.17687,64.25856 -19.94386,97.51769 -1.10925,20.87881 -0.20734,42.46557 8.25757,61.58364 4.23245,9.55904 10.3584,18.36151 18.34598,25.10594 7.98758,6.74443 17.8831,11.36297 28.28155,12.44045 9.76403,1.01175 19.74781,-1.11736 28.53231,-5.49828 8.78449,-4.38093 16.39061,-10.95517 22.4855,-18.65011 12.18979,-15.38988 18.19686,-34.79778 21.6344,-54.1271 7.10906,-39.97427 4.12875,-81.77976 -9.17604,-120.13942 -13.57834,-39.14835 -37.3822,-73.91013 -62.96796,-106.50358 -15.13453,-19.27973 -31.35176,-38.31226 -52.12108,-51.32754 -10.38466,-6.50764 -21.84984,-11.42352 -33.89803,-13.66671 -12.04818,-2.24318 -24.69477,-1.7511 -36.30077,2.18479 -10.37674,3.51902 -19.75627,9.72842 -27.48625,17.49423 -7.72997,7.76581 -13.84076,17.06169 -18.464314,26.99562 -9.247109,19.86786 -12.521437,41.96643 -14.283856,63.80985 -4.501914,55.79671 0.186731,111.98591 8.451242,167.3505 10.908458,73.07656 28.218388,145.70149 58.741738,212.98822 11.73232,25.86313 25.3845,50.85476 40.80095,74.70591 8.47878,13.11773 3.2719,23.67789 -12.34433,24.06113 L 57.558075,826.45994 C 41.941841,826.84318 31.983104,814.77541 34.615236,799.37893 39.985861,767.96381 43.19456,736.17903 44.204943,704.3241 48.198578,578.41445 18.008776,454.2063 5.101344,328.89633 1.9838052,298.63015 -0.12433727,268.06512 3.1012509,237.81026 6.3551734,207.28964 15.252093,176.9708 32.179869,151.36715 c 14.89813,-22.53377 36.517792,-41.35375 62.380854,-49.15291 27.770857,-8.374465 58.015927,-3.516025 85.274087,6.40087 63.02029,22.92766 114.35204,71.97405 148.93254,129.43207 34.58049,57.45802 53.59591,123.05014 65.40379,189.06384 7.0857,39.61363 11.71256,80.01923 7.99089,120.08912 -3.72167,40.06988 -16.22976,80.02303 -40.67619,111.98893 -10.50862,13.74096 -23.18786,25.92952 -37.89411,35.03838 -14.70624,9.10887 -31.48114,15.07732 -48.73614,16.30622 -15.99701,1.13931 -32.21069,-1.81629 -46.98193,-8.06231 -14.77124,-6.24602 -28.10288,-15.74076 -39.21011,-27.30933 -22.21444,-23.13715 -35.16848,-54.15263 -39.96291,-85.86734 -5.65069,-37.37879 -0.54805,-75.50333 5.98385,-112.73824 7.87655,-44.90004 17.87211,-89.56663 33.24589,-132.48167 28.60576,-79.85137 77.14634,-154.17945 146.07663,-203.60763 14.99048,-10.74929 30.95346,-20.32376 48.20155,-26.86325 17.24809,-6.5395 35.86398,-9.9762 54.23318,-8.29269 27.83063,2.55064 53.62498,16.74148 74.38126,35.45581 24.48838,22.07927 42.94881,50.77984 52.88431,82.21964 9.08806,-30.6659 26.9089,-58.69122 50.82503,-79.92819 23.91612,-21.23698 53.85217,-35.61869 85.3776,-41.01663 55.39695,-9.485349 113.88781,9.51551 156.67478,45.95819 38.1569,32.49914 64.28497,77.75303 78.34316,125.86239 17.02138,58.24985 16.87237,121.42734 -0.57518,179.55096 -23.96369,79.83104 -79.31737,147.68633 -145.61874,198.19753 -39.05061,29.75041 -82.16579,54.1583 -127.77018,72.33184 L 897.0686,713.55627 c -0.14653,-52.01967 -7.9782,-104.0113 -23.16224,-153.76582 -7.47712,-24.50076 -16.7271,-48.46029 -27.6537,-71.62932 l 123.36981,-2.11907 c 15.61863,-0.26828 23.62929,11.31198 19.03066,26.23746 -4.65916,15.12194 -8.44773,30.51214 -11.33713,46.06954 -13.31105,71.67066 -7.01649,146.84342 17.70218,215.40012 5.29732,14.69192 -2.08074,24.93936 -17.63669,23.51686 -101.00773,-9.23654 -202.57379,-12.36553 -303.95847,-9.36002 -56.24697,1.66742 -112.43798,5.22119 -168.44692,10.65263 -15.54791,1.50775 -27.79212,-9.77047 -27.36767,-25.38564 l 1.64772,-60.61813 c 0.42445,-15.61517 13.16606,-25.532 28.68198,-23.7743 20.80075,2.35638 41.84733,2.54685 62.68555,0.54613 25.10033,-2.40994 49.95646,-8.01118 73.33663,-17.45586 41.60662,-16.80745 77.79496,-45.56766 106.6678,-79.91821 28.87284,-34.35055 50.68729,-74.19725 67.82929,-115.66715 19.40867,-46.95343 33.14818,-98.51256 23.39362,-148.37406 -4.87728,-24.93075 -15.77759,-48.9312 -32.92098,-67.67779 -17.14338,-18.74659 -40.72071,-31.95658 -65.96352,-34.80806 -17.92339,-2.02466 -36.29274,1.15583 -52.8619,8.28395 -16.56916,7.12811 -31.35783,18.12638 -43.62562,31.34941 -24.53558,26.44605 -38.64681,61.10318 -46.56462,96.29831 -8.7304,38.80714 -10.49216,79.15076 -5.40923,118.60171 1.92927,14.97393 4.83811,29.82133 8.69682,44.41757 3.99134,15.09794 -4.29074,28.02081 -19.86288,29.25456 l -83.50549,6.616 c -15.57214,1.23375 -22.81681,-9.24538 -17.1515,-23.80026 11.09505,-28.50452 19.41858,-58.08816 24.79757,-88.19945 7.30429,-40.88902 9.1635,-82.95119 2.93005,-124.0171 z"
   sodipodi:nodetypes="aaaaaaaaaaaaaaccaaaaaaaaacaaaaacaaaaaccaccacaccaaaaaaccaa"
   inkscape:original-d="m 510.40972,324.23028 c -5.87238,-29.1284 -14.34922,-61.50236 -36.47075,-81.34137 -18.17578,-16.30039 -45.46031,-25.54576 -69.68885,-22.53923 -35.11028,4.35685 -64.81596,31.44707 -89.94196,56.35487 -36.64018,36.32199 -63.94035,82.62269 -83.32076,130.4368 -12.46338,30.74887 -24.96634,64.7213 -19.94386,97.51769 5.71748,37.33472 17.39243,94.56159 54.8851,99.13003 35.33732,4.30582 60.91608,-44.66702 72.65221,-78.27549 13.24094,-37.91772 2.88802,-81.83102 -9.17604,-120.13942 -12.38808,-39.33728 -32.9501,-78.22259 -62.96796,-106.50358 -33.36063,-31.43034 -78.45765,-76.10995 -122.31988,-62.80946 -39.53034,11.98692 -50.875091,68.06616 -60.23442,108.2997 -12.655273,54.40201 -0.435428,112.20739 8.451242,167.3505 11.717468,72.70861 30.281408,145.06288 58.741738,212.98822 14.5947,34.83269 33.11487,79.06234 56.73231,98.07313 L 29.282383,827.15385 C 52.66368,795.27974 43.852019,745.56689 44.204943,704.3241 45.281573,578.50912 13.006284,454.46734 5.101344,328.89633 3.1933117,298.58699 -1.5126219,267.89662 3.1012509,237.81026 7.6728396,207.99964 14.011503,176.69453 32.179869,151.36715 47.143242,130.50766 68.24619,109.99318 94.560723,102.21424 c 27.082937,-8.006086 61.052477,-7.069926 85.274087,6.40087 117.6677,65.44058 185.69234,197.26846 214.33633,318.49591 18.02515,76.28638 13.29086,165.82562 -32.6853,232.07805 -18.26618,26.32183 -52.22679,54.99263 -86.63025,51.3446 -61.30481,-6.50064 -117.08592,-57.90829 -126.15495,-121.23898 -4.96717,-37.47677 0.35944,-75.45418 5.98385,-112.73824 6.76613,-44.85243 14.09619,-91.17485 33.24589,-132.48167 35.1322,-75.78185 79.05479,-153.75551 146.07663,-203.60763 28.96561,-21.54518 66.39369,-37.21627 102.43473,-35.15594 27.42175,1.5676 53.76828,17.30327 74.38126,35.45581 24.45529,21.5362 49.38089,51.386 52.88431,82.21964 29.49053,-46.43663 76.95454,-107.67085 136.20263,-120.94482 53.10887,-11.898534 113.33709,13.03446 156.67478,45.95819 39.35016,29.8944 64.83928,78.3255 78.34316,125.86239 16.35478,57.57272 18.16233,122.70904 -0.57518,179.55096 C 908.68699,531.2726 850.03433,597.177 788.73396,651.61091 752.13851,684.10718 660.96378,723.94275 660.96378,723.94275 L 897.0686,713.55627 c 0,0 -9.88828,-103.66078 -23.16224,-153.76582 -6.55433,-24.74055 -27.6537,-71.62932 -27.6537,-71.62932 L 997.9025,485.5563 c 0,0 -18.57929,47.65684 -20.5865,72.79276 C 970.86055,639.18932 1005.5331,800 1005.5331,800 c 0,0 -221.34785,-13.88695 -332.11008,-12.09398 -65.67437,1.06311 -136.70642,12.52161 -196.58313,13.54075 l 3.1848,-117.16565 c 0,0 60.4723,7.7346 90.59899,5.04559 25.02898,-2.23401 51.75788,-4.57959 73.33663,-17.45586 75.02848,-44.7703 155.59357,-110.28408 174.49709,-195.58536 18.89343,-85.25577 8.91392,-228.46935 -75.49088,-250.85991 -63.57947,-16.86611 -115.7359,76.09324 -143.05214,135.93167 -16.43455,36.0012 -9.13248,79.20224 -5.40923,118.60171 2.3031,24.37142 17.02979,71.43822 17.02979,71.43822 L 471.63775,562.481 c 0,0 29.33309,-74.8598 35.84192,-114.23362 6.74408,-40.7969 11.10203,-83.48207 2.93005,-124.0171 z"
   inkscape:path-effect="#path-effect1305;#path-effect850" /><g
   style="clip-rule:evenodd;fill-rule:evenodd;image-rendering:optimizeQuality;shape-rendering:geometricPrecision;text-rendering:geometricPrecision"
   id="g867"
   transform="translate(-386.82594,-132.27717)" /></svg>
