<?xml version="1.0" encoding="UTF-8" standalone="no"?>
<svg
   xmlns:dc="http://purl.org/dc/elements/1.1/"
   xmlns:cc="http://creativecommons.org/ns#"
   xmlns:rdf="http://www.w3.org/1999/02/22-rdf-syntax-ns#"
   xmlns:svg="http://www.w3.org/2000/svg"
   xmlns="http://www.w3.org/2000/svg"
   xmlns:sodipodi="http://sodipodi.sourceforge.net/DTD/sodipodi-0.dtd"
   xmlns:inkscape="http://www.inkscape.org/namespaces/inkscape"
   xml:space="preserve"
   width="1000"
   height="1000"
   version="1.1"
   style="clip-rule:evenodd;fill-rule:evenodd;image-rendering:optimizeQuality;shape-rendering:geometricPrecision;text-rendering:geometricPrecision"
   viewBox="0 0 1000 1000"
   id="svg10"
   sodipodi:docname="ത്ഭൂ.svg"
   inkscape:version="1.0.1 (3bc2e813f5, 2020-09-07)"><metadata
   id="metadata14"><rdf:RDF><cc:Work
       rdf:about=""><dc:format>image/svg+xml</dc:format><dc:type
         rdf:resource="http://purl.org/dc/dcmitype/StillImage" /><dc:title /></cc:Work></rdf:RDF></metadata><sodipodi:namedview
   pagecolor="#ffffff"
   bordercolor="#666666"
   borderopacity="1"
   objecttolerance="10"
   gridtolerance="10"
   guidetolerance="10"
   inkscape:pageopacity="0"
   inkscape:pageshadow="2"
   inkscape:window-width="1920"
   inkscape:window-height="1015"
   id="namedview12"
   showgrid="false"
   inkscape:zoom="0.6002692"
   inkscape:cx="276.40373"
   inkscape:cy="617.81987"
   inkscape:window-x="1920"
   inkscape:window-y="0"
   inkscape:window-maximized="1"
   inkscape:current-layer="svg10"
   showguides="true"
   inkscape:guide-bbox="true"
   inkscape:document-rotation="0"><sodipodi:guide
     position="0,1000"
     orientation="0,1"
     id="guide16"
     inkscape:label=""
     inkscape:locked="true"
     inkscape:color="rgb(0,0,255)" /><sodipodi:guide
     position="1274.9728,388.69793"
     orientation="-1,0"
     id="guide18"
     inkscape:label="width"
     inkscape:locked="false"
     inkscape:color="rgb(0,0,255)" /><sodipodi:guide
     position="0,200"
     orientation="0,1"
     id="guide20"
     inkscape:label="base"
     inkscape:locked="true"
     inkscape:color="rgb(0,0,255)" /><inkscape:grid
     type="xygrid"
     id="grid24"
     originx="-473.37552"
     originy="-489.69235" /><sodipodi:guide
     position="0,0"
     orientation="0,1"
     id="guide34"
     inkscape:label="bottom"
     inkscape:locked="true"
     inkscape:color="rgb(0,0,255)" /><sodipodi:guide
     position="225.05109,1693.3186"
     orientation="0,1"
     id="guide44"
     inkscape:label=""
     inkscape:locked="false"
     inkscape:color="rgb(0,0,255)" /><sodipodi:guide
     position="0,900"
     orientation="0,1"
     id="guide46"
     inkscape:label=""
     inkscape:locked="true"
     inkscape:color="rgb(0,0,255)" /></sodipodi:namedview>
 <defs
   id="defs4"><inkscape:path-effect
   effect="spiro"
   id="path-effect851"
   is_visible="true"
   lpeversion="1" />
  <style
   type="text/css"
   id="style2">
   <![CDATA[
    .fil0 {fill:#EF7F1A;fill-rule:nonzero}
   ]]>
  </style>
 <inkscape:path-effect
   effect="spiro"
   id="path-effect1214"
   is_visible="true"
   lpeversion="1" /><inkscape:path-effect
   effect="spiro"
   id="path-effect1195"
   is_visible="true"
   lpeversion="1" /><inkscape:path-effect
   effect="spiro"
   id="path-effect992"
   is_visible="true"
   lpeversion="1" /><inkscape:path-effect
   effect="spiro"
   id="path-effect1060"
   is_visible="true"
   lpeversion="1" /><inkscape:path-effect
   effect="spiro"
   id="path-effect1047"
   is_visible="true"
   lpeversion="1" /><inkscape:path-effect
   effect="spiro"
   id="path-effect1085"
   is_visible="true"
   lpeversion="1" /><inkscape:path-effect
   effect="spiro"
   id="path-effect1286"
   is_visible="true"
   lpeversion="1" /><inkscape:path-effect
   effect="spiro"
   id="path-effect1305"
   is_visible="true"
   lpeversion="1" /><inkscape:path-effect
   effect="spiro"
   id="path-effect844"
   is_visible="true"
   lpeversion="1" /><style
   type="text/css"
   id="style2-9">
   <![CDATA[
    .fil0 {fill:#EF7F1A;fill-rule:nonzero}
   ]]>
  </style></defs>
 
<path
   id="path1210-6"
   style="display:inline;fill:#1a1a1a;fill-rule:nonzero;stroke:none;stroke-width:2.22142px;stroke-linecap:butt;stroke-linejoin:miter;stroke-opacity:1"
   d="m 858.8619,664.77634 -153.9226,7.37283 c 7.32898,-25.10242 13.78286,-50.46033 19.34598,-76.01218 14.71615,-67.59248 23.16482,-137.7315 11.46774,-205.91131 -2.90836,-16.95222 -7.08748,-33.80126 -14.23362,-49.44636 -7.14614,-15.64509 -17.38827,-30.10283 -31.00586,-40.60985 -17.39858,-13.42434 -39.71228,-19.78915 -61.68615,-19.51949 -21.97386,0.26967 -43.59416,6.90545 -62.97013,17.27343 -41.95694,22.45095 -73.12714,61.86315 -92.43143,105.35768 -13.58762,30.61429 -21.85928,64.07835 -19.94386,97.51769 0.97425,17.00842 4.70756,34.1911 13.56896,48.7414 4.43069,7.27515 10.12222,13.82104 16.94603,18.91952 6.82381,5.09849 14.79409,8.72519 23.19213,10.15064 8.36373,1.41963 17.05281,0.63739 25.13412,-1.94328 8.0813,-2.58066 15.55726,-6.93384 22.01005,-12.441 12.90558,-11.01431 21.52575,-26.40979 26.68602,-42.57274 12.45454,-39.01003 5.56757,-81.9357 -9.17604,-120.13942 -14.90305,-38.61686 -37.49128,-73.87994 -62.96796,-106.50358 -14.20959,-18.1958 -29.6679,-35.92811 -49.18322,-48.26309 -9.75765,-6.16749 -20.47886,-10.91493 -31.76638,-13.33189 -11.28753,-2.41696 -23.15474,-2.45834 -34.30353,0.53402 -11.59804,3.11294 -22.22052,9.45972 -30.96356,17.69163 -8.74303,8.2319 -15.64559,18.31079 -20.82591,29.1445 -10.36064,21.66742 -13.81014,45.9517 -15.67908,69.89595 -4.09499,52.4635 -1.19867,105.47041 8.61862,157.16962 13.65908,71.93058 40.47166,140.60963 67.68476,208.5804 7.90192,19.7368 15.84975,39.45522 23.84341,59.15505 l -163.51998,7.3526 c 7.79926,-26.8811 13.27311,-54.43647 16.34039,-82.25758 13.80461,-125.21168 -21.1784,-250.10536 -31.58103,-375.64546 -2.50981,-30.28871 -3.58684,-60.735 -2.00009,-91.08607 1.87683,-35.89968 7.89637,-72.73701 27.00018,-103.1895 14.38222,-22.92601 36.40808,-41.545969 62.38085,-49.152905 27.81536,-8.146596 57.97487,-3.336377 85.27409,6.40087 66.00804,23.544135 119.76382,75.055105 154.90214,135.690785 35.13832,60.63568 52.90781,130.00049 61.51263,199.55151 4.41058,35.6498 6.50893,71.86038 1.58916,107.44349 -4.91976,35.5831 -17.18036,70.68887 -39.22797,99.04842 -10.73678,13.81058 -23.76905,25.94839 -38.8472,34.81743 -15.07815,8.86904 -32.242,14.40187 -49.72459,15.00983 -29.39083,1.02207 -58.36703,-12.17718 -79.22602,-32.90802 -20.859,-20.73084 -33.97204,-48.45042 -40.03388,-77.22748 -6.95467,-33.01555 -5.03162,-67.26872 -0.72225,-100.73248 5.9453,-46.1673 16.42351,-91.90269 33.57921,-135.17448 17.35065,-43.76351 41.86052,-85.27564 75.8674,-117.83054 34.00689,-32.5549 78.03705,-55.71219 124.91871,-60.00165 37.45283,-3.42677 76.40586,5.63913 106.92934,27.61126 19.83492,14.27804 35.87209,33.78255 46.04733,56.00306 19.09392,-43.92689 49.91146,-82.69343 88.40041,-111.2022 38.48895,-28.508779 84.55441,-46.689492 132.13923,-52.151565 46.43135,-5.329672 94.88625,1.688209 135.87205,24.147825 40.9859,22.45962 73.7965,61.07446 85.0814,106.42784 8.3204,33.43951 4.8173,69.34156 -7.6161,101.4794 -8.3699,21.63452 -20.8164,41.85405 -37.4766,57.99551 -16.6602,16.14146 -37.6342,28.08433 -60.368,32.69747 -15.1237,3.0689 -30.999,2.95909 -45.4197,8.45351 -7.2103,2.74721 -14.0004,6.95725 -18.874,12.93929 -4.8735,5.98203 -7.675,13.85664 -6.647,21.50382 0.93,6.91764 4.9269,13.22346 10.3093,17.66744 5.3823,4.44398 12.065,7.12603 18.914,8.47146 13.698,2.69085 27.8027,0.23616 41.7475,-0.40876 31.4235,-1.45326 63.3051,6.64337 89.9347,23.38891 26.6295,16.74553 47.8287,42.13203 59.0411,71.52299 10.2216,26.79397 12.0338,57.00803 3.4368,84.36659 -8.5971,27.35855 -27.8842,51.52289 -53.4557,64.50353 -16.6609,8.45743 -35.7256,12.11241 -54.3331,10.41642 36.5939,11.10615 68.5753,36.69627 87.4371,69.96323 14.5909,25.73425 21.3738,55.81942 19.2963,85.32924 -2.0774,29.50982 -12.9993,58.33237 -30.9528,81.84442 -15.6593,20.50752 -36.4244,36.85019 -59.2965,48.79323 -22.8721,11.9431 -47.8314,19.5843 -73.2159,24.2103 -50.7689,9.2519 -102.82875,6.5779 -154.42997,5.9445 -103.00586,-1.2643 -206.07619,5.7366 -308.99455,1.3073 C 535.37043,1034.492 431.18933,1018.0521 338.71121,972.66929 228.51773,918.59278 139.71749,824.46476 85.990335,714.10053 20.139076,578.83144 6.4333871,423.80832 12.523297,273.48525 14.874204,215.45557 20.007014,157.53868 27.898205,100 H 204.47651 c -18.68992,50.40928 -35.21718,101.62033 -49.52111,153.44509 -28.83126,104.45896 -48.69123,213.55112 -34.85039,321.02832 6.92043,53.7386 22.36627,106.63333 48.11242,154.30791 25.74614,47.67457 61.98276,90.02882 106.81503,120.45573 50.76868,34.45586 111.02484,52.79689 171.6905,61.98075 60.66565,9.18386 122.25876,9.65701 183.59654,11.18728 153.85457,3.8384 308.75387,14.38505 460.9672,-8.35402 18.1,-2.70395 36.4391,-5.97482 52.7761,-14.22251 8.1685,-4.12384 15.7663,-9.48925 21.9565,-16.22808 6.1902,-6.73882 10.943,-14.88405 13.1973,-23.75246 2.8828,-11.34107 1.5621,-23.5717 -2.9195,-34.38121 -4.4816,-10.80951 -12.0155,-20.22252 -21.0651,-27.64105 -18.0993,-14.83705 -41.5313,-21.5133 -64.6468,-25.17346 -37.1552,-5.88324 -75.3889,-4.88324 -112.18568,2.93422 l -1.1868,-147.18023 c 55.44508,15.67992 112.42578,25.92452 169.86018,30.53926 14.8061,1.18964 29.9446,1.97823 44.2974,-1.8467 7.1765,-1.91247 14.0907,-4.99156 20.0102,-9.4769 5.9195,-4.48534 10.8189,-10.4142 13.6375,-17.28547 3.2219,-7.85444 3.6224,-16.74517 1.6549,-25.00361 -1.9675,-8.25843 -6.2319,-15.88768 -11.8214,-22.27755 -11.1789,-12.77974 -27.1846,-20.37243 -43.4177,-25.35029 -45.9814,-14.10016 -95.8533,-9.70378 -142.3777,-21.89305 -24.7899,-6.49488 -48.80519,-18.03097 -66.53746,-36.53199 -8.86614,-9.25051 -16.05864,-20.17348 -20.54539,-32.17553 -4.48675,-12.00206 -6.22289,-25.09042 -4.48318,-37.78505 2.93584,-21.42279 15.76249,-40.81246 32.87163,-54.03488 17.10913,-13.22243 38.208,-20.62736 59.6111,-23.70378 16.119,-2.3169 32.5534,-2.29846 48.522,-5.49111 7.9843,-1.59633 15.8521,-4.0089 23.0641,-7.78837 7.212,-3.77948 13.7648,-8.96803 18.5661,-15.54408 8.144,-11.15426 10.7417,-25.79828 8.6155,-39.44457 -2.1263,-13.6463 -8.6722,-26.33547 -17.2119,-37.18974 -18.5733,-23.60724 -46.6434,-38.91907 -76.175,-44.41043 -29.5316,-5.49135 -60.37874,-1.57642 -88.65718,8.55268 -46.37605,16.61151 -86.70207,50.55095 -109.15391,94.39836 -19.03831,37.18094 -24.9502,79.82822 -24.968,121.59998 -0.0166,39.03431 4.85402,77.9592 12.40089,116.25702 8.18386,41.5303 19.52267,82.43851 33.8865,122.25586 z"
   sodipodi:nodetypes="ccaaaaaaaaaaaaaaccaaaaaaaaacaaaacaaaaaaaacaaaaaaccaaaaaaccaaaaaaaaaaaac"
   inkscape:original-d="m 858.8619,664.77634 -153.9226,7.37283 c 33.81688,-30.71216 15.37615,-50.17018 19.34598,-76.01218 10.43788,-67.94641 25.4579,-138.60648 11.46774,-205.91131 -6.83671,-32.8905 -16.80656,-72.165 -45.23948,-90.05621 -35.17458,-22.13335 -86.64728,-19.05241 -124.65628,-2.24606 -42.7282,18.89303 -71.65156,63.51461 -92.43143,105.35768 -14.75744,29.7161 -26.57445,65.00825 -19.94386,97.51769 6.29822,30.87985 22.5683,72.95288 53.70712,77.81156 30.71073,4.79189 61.19194,-28.56009 73.83019,-56.95702 16.33055,-36.69317 2.88802,-81.83102 -9.17604,-120.13942 -12.38808,-39.33728 -33.13205,-78.0307 -62.96796,-106.50358 -31.45245,-30.01558 -73.46711,-73.06598 -115.25313,-61.06096 -43.19509,12.40984 -57.01959,73.02121 -67.46855,116.73208 -12.19877,51.03079 -0.99574,105.58943 8.61862,157.16962 13.3941,71.85819 42.72584,139.87775 67.68476,208.5804 7.25928,19.98209 0.22597,40.14426 23.84341,59.15505 l -163.51998,7.3526 c 23.38129,-31.87411 14.77263,-54.34662 16.34039,-82.25758 7.04705,-125.45912 -24.93507,-250.16445 -31.58103,-375.64546 -1.60623,-30.32684 -5.54466,-60.92429 -2.00009,-91.08607 4.14975,-35.31147 7.52491,-73.44334 27.00018,-103.1895 14.50082,-22.14827 37.06079,-41.425405 62.38085,-49.152905 27.26325,-8.320534 60.77046,-8.162362 85.27409,6.40087 114.33939,67.955295 190.45023,204.792075 216.41477,335.242295 13.65773,68.61874 2.97491,149.52182 -37.63881,206.49191 -19.66412,27.58345 -54.92669,53.76825 -88.57179,49.82726 -53.74433,-6.2953 -110.19087,-46.80481 -119.2599,-110.1355 -4.96717,-37.47677 -4.68057,-67.38825 -0.72225,-100.73248 5.47302,-46.10389 9.52152,-95.46617 33.57921,-135.17448 46.32758,-76.46579 113.86082,-156.92153 200.78611,-177.83219 35.7912,-8.6099 75.89095,7.81835 106.92934,27.61126 20.3771,12.99429 37.44001,46.85579 46.04733,56.00306 80.44949,-64.19026 129.1798,-158.609155 220.53964,-163.353765 85.43565,-4.436949 181.36675,54.734815 220.95345,130.575665 15.6964,30.07153 7.1115,70.92169 -7.6161,101.4794 -19.3076,40.06068 -62.326,63.93348 -97.8446,90.69298 -22.0711,16.62827 -73.6452,15.39533 -70.9407,42.89662 2.4627,25.04288 48.3953,14.61453 70.9708,25.73014 52.8243,26.00936 129.3564,39.39634 148.9758,94.9119 17.4432,49.35789 -10.5946,114.42904 -50.0189,148.87012 -13.8878,12.13237 -82.4271,19.43387 -54.3331,10.41642 33.8494,22.95427 72.4495,35.77676 87.4371,69.96323 22.4287,51.15932 23.726,123.94865 -11.6565,167.17366 -62.8359,76.76343 -188.0667,70.91263 -286.94237,78.94803 -203.33886,16.5248 -425.01257,24.0814 -608.57212,-64.94471 C 230.272,920.07642 140.52806,821.57475 85.990335,714.10053 18.610374,581.31888 18.241466,422.27479 12.523297,273.48525 10.293814,215.47301 -38.670605,134.01383 27.898205,100 H 204.47651 c -40.55473,60.99032 -46.47807,99.78526 -49.52111,153.44509 -11.47045,202.26562 -22.8733,452.23659 120.07706,595.79196 85.3186,85.67969 234.88953,62.00059 355.28704,73.16803 153.0241,14.19372 313.49707,34.89412 460.9672,-8.35402 33.0398,-9.6895 84.0677,-19.98903 87.9299,-54.20305 4.6489,-41.18267 -50.0755,-71.99494 -88.6314,-87.19572 -34.801,-13.72039 -112.18568,2.93422 -112.18568,2.93422 l -1.1868,-147.18023 c 20.56418,31.8184 112.54958,35.53459 169.86018,30.53926 27.572,-2.40324 69.9858,-2.10172 77.9451,-28.60907 8.6522,-28.81519 -27.8392,-57.06318 -53.5842,-72.63145 -41.0886,-24.84672 -100.3916,1.40502 -142.3777,-21.89305 -40.93533,-22.71493 -95.34514,-59.83011 -91.56603,-106.49257 3.25089,-40.14036 57.22275,-58.28225 92.48273,-77.73866 27.623,-15.24234 72.9994,-2.34454 90.1522,-28.82356 13.9754,-21.57394 8.6249,-57.55092 -8.5964,-76.63431 -37.671,-41.74454 -110.343,-49.73721 -164.83218,-35.85775 -46.61515,11.87378 -84.8302,52.89757 -109.15391,94.39836 -20.92337,35.69916 -22.97744,80.26894 -24.968,121.59998 -1.87478,38.92706 5.10467,77.97392 12.40089,116.25702 7.91708,41.5407 26.04558,105.88597 33.8865,122.25586 z"
   inkscape:path-effect="#path-effect1305" /><g
   style="clip-rule:evenodd;fill-rule:evenodd;image-rendering:optimizeQuality;shape-rendering:geometricPrecision;text-rendering:geometricPrecision"
   id="g869" /></svg>
