<?xml version="1.0" encoding="UTF-8" standalone="no"?>
<svg
   xml:space="preserve"
   width="1000"
   height="1000"
   version="1.1"
   style="clip-rule:evenodd;fill-rule:evenodd;image-rendering:optimizeQuality;shape-rendering:geometricPrecision;text-rendering:geometricPrecision"
   viewBox="0 0 1000 1000"
   id="svg10"
   sodipodi:docname="ത്തൃ.svg"
   inkscape:version="1.1.2 (0a00cf5339, 2022-02-04)"
   xmlns:inkscape="http://www.inkscape.org/namespaces/inkscape"
   xmlns:sodipodi="http://sodipodi.sourceforge.net/DTD/sodipodi-0.dtd"
   xmlns="http://www.w3.org/2000/svg"
   xmlns:svg="http://www.w3.org/2000/svg"
   xmlns:rdf="http://www.w3.org/1999/02/22-rdf-syntax-ns#"
   xmlns:cc="http://creativecommons.org/ns#"
   xmlns:dc="http://purl.org/dc/elements/1.1/"><metadata
   id="metadata14"><rdf:RDF><cc:Work
       rdf:about=""><dc:format>image/svg+xml</dc:format><dc:type
         rdf:resource="http://purl.org/dc/dcmitype/StillImage" /></cc:Work></rdf:RDF></metadata><sodipodi:namedview
   pagecolor="#ffffff"
   bordercolor="#666666"
   borderopacity="1"
   objecttolerance="10"
   gridtolerance="10"
   guidetolerance="10"
   inkscape:pageopacity="0"
   inkscape:pageshadow="2"
   inkscape:window-width="1920"
   inkscape:window-height="1009"
   id="namedview12"
   showgrid="false"
   inkscape:zoom="0.6002692"
   inkscape:cx="792.14459"
   inkscape:cy="601.39684"
   inkscape:window-x="0"
   inkscape:window-y="0"
   inkscape:window-maximized="1"
   inkscape:current-layer="svg10"
   showguides="true"
   inkscape:guide-bbox="true"
   inkscape:document-rotation="0"
   inkscape:pagecheckerboard="0"><sodipodi:guide
     position="0,1000"
     orientation="0,1"
     id="guide16"
     inkscape:label=""
     inkscape:locked="true"
     inkscape:color="rgb(0,0,255)" /><sodipodi:guide
     position="1763.3122,2036.1693"
     orientation="1000,0"
     id="guide18" /><sodipodi:guide
     position="0,200"
     orientation="0,1"
     id="guide20"
     inkscape:label="base"
     inkscape:locked="true"
     inkscape:color="rgb(0,0,255)" /><inkscape:grid
     type="xygrid"
     id="grid24"
     originx="-473.37552"
     originy="-489.69235" /><sodipodi:guide
     position="0,0"
     orientation="0,1"
     id="guide34"
     inkscape:label="bottom"
     inkscape:locked="true"
     inkscape:color="rgb(0,0,255)" /><sodipodi:guide
     position="225.05109,1693.3186"
     orientation="0,1"
     id="guide44"
     inkscape:label=""
     inkscape:locked="false"
     inkscape:color="rgb(0,0,255)" /><sodipodi:guide
     position="0,900"
     orientation="0,1"
     id="guide46"
     inkscape:label=""
     inkscape:locked="true"
     inkscape:color="rgb(0,0,255)" /><sodipodi:guide
     position="1186.6709,0"
     orientation="-1,0"
     id="guide867"
     inkscape:label="width"
     inkscape:locked="false"
     inkscape:color="rgb(0,0,255)" /><sodipodi:guide
     position="561.95048,968.24217"
     orientation="-1,0"
     id="guide861"
     inkscape:label="vc"
     inkscape:locked="false"
     inkscape:color="rgb(0,0,255)" /></sodipodi:namedview>
 <defs
   id="defs4"><inkscape:path-effect
   effect="fillet_chamfer"
   id="path-effect1397"
   is_visible="true"
   lpeversion="1"
   satellites_param="F,0,0,1,0,27.462609,0,1 @ F,0,0,1,0,0,0,1 @ F,0,0,1,0,0,0,1 @ F,0,0,1,0,0,0,1 @ F,0,0,1,0,0,0,1 @ F,0,0,1,0,0,0,1 @ F,0,0,1,0,0,0,1 @ F,0,0,1,0,0,0,1 @ F,0,0,1,0,0,0,1 @ F,0,0,1,0,0,0,1 @ F,0,0,1,0,0,0,1 @ F,0,0,1,0,0,0,1 @ F,0,0,1,0,0,0,1 @ F,0,0,1,0,0,0,1 @ F,0,0,1,0,0,0,1 @ F,0,0,1,0,0,0,1 @ F,0,0,1,0,0,0,1 @ F,0,0,1,0,0,0,1 @ F,0,0,1,0,0,0,1 @ F,0,0,1,0,0,0,1 @ F,0,0,1,0,0,0,1 @ F,0,0,1,0,0,0,1 @ F,0,0,1,0,0,0,1 @ F,0,0,1,0,0,0,1 @ F,0,1,1,0,27.462609,0,1 @ F,0,1,1,0,27.462609,0,1 @ F,0,0,1,0,0,0,1 @ F,0,0,1,0,0,0,1 @ F,0,0,1,0,0,0,1 @ F,0,0,1,0,0,0,1 @ F,0,0,1,0,0,0,1 @ F,0,0,1,0,0,0,1 @ F,0,0,1,0,0,0,1 @ F,0,0,1,0,0,0,1 @ F,0,0,1,0,0,0,1 @ F,0,0,1,0,0,0,1 @ F,0,0,1,0,0,0,1 @ F,0,0,1,0,0,0,1 @ F,0,0,1,0,0,0,1 @ F,0,0,1,0,0,0,1 @ F,0,0,1,0,0,0,1 @ F,0,0,1,0,0,0,1 @ F,0,0,1,0,0,0,1 @ F,0,0,1,0,0,0,1 @ F,0,0,1,0,0,0,1 @ F,0,0,1,0,0,0,1 @ F,0,0,1,0,0,0,1 @ F,0,0,1,0,0,0,1 @ F,0,0,1,0,0,0,1 @ F,0,0,1,0,0,0,1 @ F,0,0,1,0,0,0,1 @ F,0,0,1,0,0,0,1 @ F,0,0,1,0,0,0,1 @ F,0,0,1,0,0,0,1 @ F,0,0,1,0,0,0,1 @ F,0,0,1,0,0,0,1 @ F,0,0,1,0,0,0,1 @ F,0,0,1,0,0,0,1 @ F,0,0,1,0,0,0,1 @ F,0,0,1,0,0,0,1 @ F,0,0,1,0,0,0,1 @ F,0,0,1,0,0,0,1 @ F,0,0,1,0,0,0,1 @ F,0,0,1,0,0,0,1 @ F,0,0,1,0,0,0,1 @ F,0,0,1,0,0,0,1 @ F,0,0,1,0,0,0,1 @ F,0,0,1,0,0,0,1 @ F,0,0,1,0,0,0,1 @ F,0,0,1,0,0,0,1 @ F,0,0,1,0,0,0,1 @ F,0,0,1,0,0,0,1 @ F,0,0,1,0,0,0,1 @ F,0,0,1,0,0,0,1 @ F,0,0,1,0,0,0,1 @ F,0,0,1,0,0,0,1 @ F,0,0,1,0,0,0,1 @ F,0,0,1,0,0,0,1 @ F,0,0,1,0,0,0,1 @ F,0,0,1,0,0,0,1 @ F,0,0,1,0,0,0,1 @ F,0,0,1,0,0,0,1 @ F,0,0,1,0,0,0,1 @ F,0,0,1,0,0,0,1 @ F,0,0,1,0,0,0,1 @ F,0,0,1,0,0,0,1 @ F,0,0,1,0,0,0,1 @ F,0,0,1,0,0,0,1 @ F,0,0,1,0,0,0,1 @ F,0,0,1,0,0,0,1 @ F,0,0,1,0,0,0,1 @ F,0,0,1,0,0,0,1 @ F,0,0,1,0,0,0,1 @ F,0,0,1,0,0,0,1 @ F,0,0,1,0,0,0,1 @ F,0,0,1,0,0,0,1 @ F,0,0,1,0,0,0,1 @ F,0,0,1,0,0,0,1 @ F,0,0,1,0,0,0,1 @ F,0,0,1,0,0,0,1 @ F,0,0,1,0,0,0,1 @ F,0,0,1,0,0,0,1 @ F,0,0,1,0,0,0,1 @ F,0,0,1,0,0,0,1 @ F,0,0,1,0,0,0,1 @ F,0,0,1,0,0,0,1 @ F,0,0,1,0,0,0,1 @ F,0,0,1,0,0,0,1 @ F,0,0,1,0,0,0,1 @ F,0,0,1,0,0,0,1 @ F,0,0,1,0,0,0,1 @ F,0,0,1,0,0,0,1 @ F,0,0,1,0,0,0,1 @ F,0,0,1,0,0,0,1 @ F,0,1,1,0,27.462609,0,1"
   unit="px"
   method="auto"
   mode="F"
   radius="0"
   chamfer_steps="1"
   flexible="false"
   use_knot_distance="true"
   apply_no_radius="true"
   apply_with_radius="true"
   only_selected="false"
   hide_knots="false" /><inkscape:path-effect
   effect="fillet_chamfer"
   id="path-effect849"
   is_visible="true"
   lpeversion="1"
   satellites_param="F,0,1,1,0,52.326484,0,1 @ F,0,0,1,0,0,0,1 @ F,0,0,1,0,0,0,1 @ F,0,0,1,0,0,0,1 @ F,0,0,1,0,0,0,1 @ F,0,0,1,0,0,0,1 @ F,0,0,1,0,0,0,1 @ F,0,0,1,0,0,0,1 @ F,0,0,1,0,0,0,1 @ F,0,0,1,0,0,0,1 @ F,0,0,1,0,0,0,1 @ F,0,0,1,0,0,0,1 @ F,0,0,1,0,0,0,1 @ F,0,0,1,0,0,0,1 @ F,0,0,1,0,0,0,1 @ F,0,0,1,0,0,0,1 @ F,0,0,1,0,0,0,1 @ F,0,0,1,0,0,0,1 @ F,0,0,1,0,0,0,1 @ F,0,0,1,0,0,0,1 @ F,0,0,1,0,0,0,1 @ F,0,0,1,0,0,0,1 @ F,0,0,1,0,0,0,1 @ F,0,0,1,0,0,0,1 @ F,0,1,1,0,52.326484,0,1 @ F,0,1,1,0,52.326484,0,1 @ F,0,0,1,0,0,0,1 @ F,0,0,1,0,0,0,1 @ F,0,0,1,0,0,0,1 @ F,0,0,1,0,0,0,1 @ F,0,0,1,0,0,0,1 @ F,0,0,1,0,0,0,1 @ F,0,0,1,0,0,0,1 @ F,0,0,1,0,0,0,1 @ F,0,0,1,0,0,0,1 @ F,0,0,1,0,0,0,1 @ F,0,0,1,0,0,0,1 @ F,0,0,1,0,0,0,1 @ F,0,0,1,0,0,0,1 @ F,0,0,1,0,0,0,1 @ F,0,0,1,0,0,0,1 @ F,0,0,1,0,0,0,1 @ F,0,0,1,0,0,0,1 @ F,0,0,1,0,0,0,1 @ F,0,0,1,0,0,0,1 @ F,0,0,1,0,0,0,1 @ F,0,0,1,0,0,0,1 @ F,0,0,1,0,0,0,1 @ F,0,0,1,0,0,0,1 @ F,0,0,1,0,0,0,1 @ F,0,0,1,0,0,0,1 @ F,0,0,1,0,0,0,1 @ F,0,0,1,0,0,0,1 @ F,0,0,1,0,0,0,1 @ F,0,0,1,0,0,0,1 @ F,0,0,1,0,0,0,1 @ F,0,0,1,0,0,0,1 @ F,0,0,1,0,0,0,1 @ F,0,0,1,0,0,0,1 @ F,0,0,1,0,0,0,1 @ F,0,0,1,0,0,0,1 @ F,0,0,1,0,0,0,1 @ F,0,0,1,0,0,0,1 @ F,0,0,1,0,0,0,1 @ F,0,0,1,0,0,0,1 @ F,0,0,1,0,0,0,1 @ F,0,0,1,0,0,0,1 @ F,0,0,1,0,0,0,1 @ F,0,0,1,0,0,0,1 @ F,0,0,1,0,0,0,1 @ F,0,0,1,0,0,0,1 @ F,0,0,1,0,0,0,1 @ F,0,0,1,0,0,0,1 @ F,0,0,1,0,0,0,1 @ F,0,0,1,0,0,0,1 @ F,0,0,1,0,0,0,1 @ F,0,0,1,0,0,0,1 @ F,0,0,1,0,0,0,1 @ F,0,0,1,0,0,0,1 @ F,0,0,1,0,0,0,1 @ F,0,0,1,0,0,0,1 @ F,0,0,1,0,0,0,1 @ F,0,0,1,0,0,0,1 @ F,0,0,1,0,0,0,1 @ F,0,0,1,0,0,0,1 @ F,0,0,1,0,0,0,1 @ F,0,0,1,0,0,0,1 @ F,0,0,1,0,0,0,1 @ F,0,0,1,0,0,0,1 @ F,0,0,1,0,0,0,1 @ F,0,0,1,0,0,0,1 @ F,0,0,1,0,0,0,1 @ F,0,0,1,0,0,0,1 @ F,0,0,1,0,0,0,1 @ F,0,0,1,0,0,0,1 @ F,0,0,1,0,0,0,1 @ F,0,0,1,0,0,0,1 @ F,0,0,1,0,0,0,1 @ F,0,0,1,0,0,0,1 @ F,0,0,1,0,0,0,1 @ F,0,0,1,0,0,0,1 @ F,0,0,1,0,0,0,1 @ F,0,0,1,0,0,0,1 @ F,0,0,1,0,0,0,1 @ F,0,0,1,0,0,0,1 @ F,0,0,1,0,0,0,1 @ F,0,0,1,0,0,0,1 @ F,0,0,1,0,0,0,1 @ F,0,0,1,0,0,0,1 @ F,0,0,1,0,0,0,1 @ F,0,0,1,0,0,0,1 @ F,0,0,1,0,0,0,1 @ F,0,0,1,0,0,0,1 @ F,0,0,1,0,0,0,1 @ F,0,1,1,0,52.326484,0,1"
   unit="px"
   method="auto"
   mode="F"
   radius="0"
   chamfer_steps="1"
   flexible="false"
   use_knot_distance="true"
   apply_no_radius="true"
   apply_with_radius="true"
   only_selected="true"
   hide_knots="false" /><inkscape:path-effect
   effect="spiro"
   id="path-effect865"
   is_visible="true"
   lpeversion="1" /><inkscape:path-effect
   effect="spiro"
   id="path-effect851"
   is_visible="true"
   lpeversion="1" />
  <style
   type="text/css"
   id="style2">
   
    .fil0 {fill:#EF7F1A;fill-rule:nonzero}
   
  </style>
 <inkscape:path-effect
   effect="spiro"
   id="path-effect1214"
   is_visible="true"
   lpeversion="1" /><inkscape:path-effect
   effect="spiro"
   id="path-effect1195"
   is_visible="true"
   lpeversion="1" /><inkscape:path-effect
   effect="spiro"
   id="path-effect992"
   is_visible="true"
   lpeversion="1" /><inkscape:path-effect
   effect="spiro"
   id="path-effect1060"
   is_visible="true"
   lpeversion="1" /><inkscape:path-effect
   effect="spiro"
   id="path-effect1047"
   is_visible="true"
   lpeversion="1" /><inkscape:path-effect
   effect="spiro"
   id="path-effect1085"
   is_visible="true"
   lpeversion="1" /><inkscape:path-effect
   effect="spiro"
   id="path-effect1286"
   is_visible="true"
   lpeversion="1" /><inkscape:path-effect
   effect="spiro"
   id="path-effect1305"
   is_visible="true"
   lpeversion="1" /></defs>
 
<path
   id="path1210-6"
   style="display:inline;fill:#613583;fill-rule:nonzero;stroke:none;stroke-width:2.22142px;stroke-linecap:butt;stroke-linejoin:miter;stroke-opacity:1"
   d="m 495.51999,596.25133 c 9.42449,-25.25759 16.60422,-51.35303 21.41394,-77.87928 6.92179,-38.17457 8.90942,-77.56595 2.05364,-115.75243 -5.34913,-29.79447 -15.98143,-58.40522 -28.32927,-86.04314 -7.41199,-16.59011 -15.57535,-33.07651 -27.23296,-47.01456 -11.65761,-13.93806 -27.20943,-25.26942 -45.02352,-28.85093 -17.61863,-3.54221 -36.16619,0.77124 -52.07473,9.13077 -15.90853,8.35953 -29.47914,20.54291 -42.01893,33.41602 -36.26883,37.23289 -65.4946,81.61115 -83.32076,130.4368 -11.42042,31.28041 -18.13747,64.26672 -19.94386,97.51769 -1.13393,20.87282 -0.20912,42.45632 8.26871,61.56356 4.23892,9.55362 10.36817,18.34944 18.35278,25.09377 7.98461,6.74434 17.87011,11.37031 28.26361,12.4727 9.77436,1.03672 19.77722,-1.06233 28.58661,-5.42211 8.80939,-4.35977 16.44515,-10.92228 22.55933,-18.61837 12.22835,-15.39218 18.22677,-34.85211 21.50627,-54.23501 6.76244,-39.96824 2.91586,-81.44863 -9.17604,-120.13942 -12.42028,-39.74152 -33.66174,-76.92662 -62.96796,-106.50358 -13.90002,-14.02843 -29.78293,-26.45006 -48.01491,-34.03967 -18.23198,-7.58962 -39.01529,-10.06541 -57.91674,-4.34329 -20.58894,6.23298 -37.52341,21.75747 -48.67379,40.15376 -11.15037,18.39629 -16.99517,39.54451 -20.59107,60.75356 -8.406458,49.58233 -5.147814,100.41525 1.09345,150.31638 13.76963,110.09313 43.40992,221.36999 109.91382,310.18064 7.11199,9.4975 14.61843,18.69955 22.49256,27.57541 10.06372,11.34401 6.57658,20.20137 -8.58735,20.5151 L 68.759783,879.79206 C 53.595848,880.10579 43.099476,868.19372 44.847651,853.12812 47.71544,828.41379 49.64885,803.59104 50.641373,778.73069 56.560852,630.46171 29.065231,483.17816 15.101344,335.44956 12.238566,305.16328 9.944838,274.62058 13.101251,244.36349 c 3.185021,-30.53132 12.133921,-60.84656 29.078618,-86.44311 14.91072,-22.52404 36.520265,-41.34959 62.380851,-49.15291 27.76977,-8.37941 58.01622,-3.51797 85.27409,6.40087 63.01868,22.93181 114.35075,71.97597 148.93297,129.43283 34.58222,57.45687 53.59977,123.04871 65.40336,189.06308 7.08296,39.61316 11.70484,80.01818 7.98154,120.08697 -3.7233,40.06878 -16.22891,80.01987 -40.66684,111.99108 -10.50591,13.74448 -23.18227,25.93813 -37.8886,35.04905 -14.70633,9.11091 -31.48469,15.078 -48.74165,16.29555 -15.99076,1.12822 -32.19496,-1.84276 -46.95354,-8.10069 -14.75858,-6.25793 -28.07477,-15.76075 -39.1712,-27.32996 -22.19285,-23.13843 -35.14701,-54.12136 -40.03021,-85.80833 -5.7595,-37.37325 -0.86533,-75.54925 5.98385,-112.73824 8.25226,-44.80732 19.34273,-89.0939 33.24589,-132.48167 13.11874,-40.93983 28.90515,-81.40277 52.30762,-117.46515 23.40247,-36.06238 54.92599,-67.71993 93.76901,-86.14248 29.78199,-14.12506 64.12094,-20.07763 96.20731,-12.53116 28.14112,6.61858 53.14274,23.15034 74.14825,43.01228 18.54219,17.53272 34.44182,37.85521 46.9978,60.07134 8.788,-17.65857 20.01608,-34.10072 33.26521,-48.71286 25.65539,-28.29468 59.72742,-49.85268 97.37209,-56.30765 33.6034,-5.76201 68.58757,0.70358 99.77937,14.46805 40.95427,18.0725 75.8407,48.38675 102.89683,84.04952 27.05613,35.66278 46.57945,76.58283 61.37791,118.83059 15.37207,43.88536 25.83933,89.61845 29.14408,136.0006 2.6224,36.80533 0.69404,74.11452 -8.11246,109.94683 -7.5543,30.73732 -20.52356,60.79589 -42.06774,83.98421 -10.77209,11.59417 -23.61925,21.34483 -37.99245,27.96855 -14.3732,6.62373 -30.28809,10.0686 -46.09475,9.28622 -17.31739,-0.85716 -34.21168,-6.77113 -48.92522,-15.94383 -14.71355,-9.1727 -27.30088,-21.53064 -37.70503,-35.40077 -24.11606,-32.14996 -36.39209,-72.06574 -40.10165,-112.08379 -3.70955,-40.01804 0.72563,-80.3655 7.41635,-119.99426 11.21487,-66.42501 29.17304,-132.69104 63.55669,-190.62047 34.38365,-57.92943 86.66662,-107.19754 150.77964,-127.87544 27.4366,-8.84892 57.06016,-12.32101 85.27406,-6.40087 27.8797,5.85003 53.5373,20.80148 73.5726,41.05219 28.452,28.75798 45.3415,67.32842 54.2808,106.78254 8.9394,39.45411 10.4763,80.15672 11.9867,120.58268 2.7973,74.87128 5.6215,149.90015 0.7336,224.66406 -3.7383,57.17977 -12.0646,114.37991 -30.0592,168.78301 -17.9945,54.4031 -45.9729,106.07986 -85.7288,147.34687 -40.4159,41.95202 -92.17531,72.19511 -147.4145,90.68958 -55.23919,18.4945 -113.91941,25.5212 -172.16673,24.7068 -63.36027,-0.8859 -128.76446,-11.7966 -181.47637,-46.96422 -20.1169,-13.42133 -38.11692,-30.30487 -51.3764,-50.52881 -13.25948,-20.22395 -21.64738,-43.87826 -22.3885,-68.04999 -0.6777,-22.10337 5.05659,-44.23998 15.5098,-63.72712 10.4532,-19.48715 25.53418,-36.35001 43.14353,-49.72645 35.2187,-26.75288 79.66158,-39.17137 123.76614,-42.467 96.21551,-7.18952 190.69065,26.25741 278.85248,65.45698 45.90731,20.41186 91.05735,42.52672 135.32615,66.28382 L 971.12427,954.71139 C 949.73298,937.37637 927.77735,920.73776 905.30385,904.83077 838.47956,857.53181 763.41976,815.59972 681.6305,811.96722 c -18.95225,-0.84173 -38.46939,0.5227 -55.77539,8.29434 -8.65301,3.88582 -16.64797,9.36833 -22.97823,16.43247 -6.33025,7.06413 -10.95357,15.7417 -12.73938,25.05754 -1.87852,9.79947 -0.57298,20.09503 3.1043,29.3706 3.67729,9.27556 9.66333,17.55016 16.88761,24.43262 14.44856,13.76493 33.40052,21.79588 52.46044,27.70804 51.35419,15.92947 106.89317,18.33029 159.34105,6.4888 52.44787,-11.8415 101.65844,-37.9403 140.59927,-75.01607 64.54673,-61.45527 98.13073,-149.43982 112.21273,-237.44394 13.4009,-83.74743 10.7438,-170.52463 -12.3097,-252.14419 -7.2968,-25.83376 -16.7932,-51.46054 -32.5206,-73.21538 -15.7275,-21.75485 -38.34364,-39.46413 -64.6338,-44.8912 -19.13798,-3.95064 -39.32948,-1.21002 -57.48076,6.02883 -18.15128,7.23885 -34.35486,18.81998 -48.45084,32.35413 -30.07381,28.87515 -50.78228,66.63232 -62.96796,106.50358 -11.84492,38.75629 -15.92141,80.17878 -9.17604,120.13942 3.26988,19.37126 9.30693,38.80617 21.54412,54.17461 6.1186,7.68423 13.75095,14.23693 22.5503,18.60226 8.79934,4.36532 18.78497,6.48683 28.55779,5.49862 10.4254,-1.0542 20.36396,-5.62821 28.40861,-12.34267 8.04465,-6.71446 14.23842,-15.50282 18.5144,-25.06924 8.55196,-19.13283 9.43137,-40.81255 7.96209,-61.71812 -2.33122,-33.16953 -10.19695,-65.72697 -19.94386,-97.51769 -7.73338,-25.22335 -16.74161,-50.23772 -29.96703,-73.06558 -13.22541,-22.82786 -30.90825,-43.50676 -53.35373,-57.37122 -27.74217,-17.13619 -62.12441,-22.96895 -94.09366,-16.54679 -17.82612,3.58101 -34.96352,10.87798 -49.53976,21.74662 -18.99424,14.16287 -33.25621,34.09465 -42.67115,55.83694 -9.41493,21.74229 -14.16179,45.28211 -16.25148,68.88298 -4.74892,53.6342 4.13807,108.31345 24.78023,158.04353 2.09036,5.036 4.29921,10.02281 6.62388,14.95503 6.46471,13.71611 0.40688,25.16906 -14.72697,26.1739 l -113.04699,7.50594 c -15.13385,1.00484 -22.3315,-9.3966 -17.03,-23.6046 z"
   sodipodi:nodetypes="caaaaaaaaaaaaaaaccaaaaaaaaacaaaaacaaaaaaaaaaaaaaaaaaaaccaaaaaaaaaaaaaaaaaaacc"
   inkscape:original-d="m 485.14772,621.67535 c 10.36705,-33.93407 26.11316,-67.72509 31.78621,-103.3033 6.07656,-38.10879 7.82672,-77.59648 2.05364,-115.75243 -4.51725,-29.8558 -12.81622,-60.13716 -28.32927,-86.04314 -17.94178,-29.96184 -37.97882,-69.18258 -72.25648,-75.86549 -33.78584,-6.58703 -68.06814,20.01805 -94.09366,42.54679 -39.00773,33.76665 -63.94035,82.62269 -83.32076,130.4368 -12.46338,30.74886 -24.96634,64.7213 -19.94386,97.51769 5.71749,37.33472 17.39243,94.56159 54.8851,99.13003 35.33732,4.30582 60.91607,-44.66702 72.65221,-78.27549 13.24093,-37.91772 2.88802,-81.83101 -9.17604,-120.13942 C 327.01673,372.59011 308.18562,331.74684 276.43685,305.42381 247.5247,281.45263 206.26272,255.5548 170.5052,267.04085 c -38.84272,12.47708 -57.3199,61.89768 -69.26486,100.90732 -14.6706,47.911 -7.57683,100.96543 1.09345,150.31638 18.98085,108.03838 54.61428,215.44667 109.91382,310.18064 10.58698,18.13663 17.7445,28.51166 41.36194,47.52245 l -212.3065,4.39248 C 64.684347,848.48601 50.443639,812.7493 50.641373,778.73069 51.502975,630.49867 22.654959,483.4915 15.101344,335.44956 13.553808,305.11967 8.524713,274.38602 13.101251,244.36349 c 4.581305,-30.05381 11.564019,-61.5944 29.078618,-86.44311 15.251615,-21.63812 37.060787,-41.42542 62.380851,-49.15291 27.26324,-8.32054 60.63242,-7.92756 85.27409,6.40087 110.62463,64.32507 185.63441,193.78936 214.33633,318.49591 17.5223,76.13239 10.63915,167.0691 -32.6853,232.07805 -18.61555,27.9329 -53.28532,55.20479 -86.63025,51.3446 -57.93589,-6.70698 -117.08592,-57.90829 -126.15495,-121.23898 -4.96717,-37.47677 0.38066,-75.52541 5.98385,-112.73824 6.77907,-45.02231 14.09619,-91.17485 33.24589,-132.48167 35.1322,-75.78186 74.38945,-160.73445 146.07663,-203.60763 27.75505,-16.59917 64.49958,-18.8947 96.20731,-12.53116 28.01491,5.62241 52.59645,24.25151 74.14825,43.01228 19.17614,16.69277 46.9978,60.07134 46.9978,60.07134 0,0 18.85123,-35.33938 33.26521,-48.71286 27.4854,-25.5013 60.55434,-49.22126 97.37209,-56.30765 33.00189,-6.35194 70.56538,-2.14564 99.77937,14.46805 75.6404,43.01589 126.7497,124.37083 164.27474,202.88011 19.99354,41.83017 25.96032,89.7473 29.14408,136.0006 2.52354,36.66182 7.52222,76.69004 -8.11246,109.94683 -24.81345,52.78109 -68.21905,114.532 -126.15494,121.23898 -33.34493,3.86019 -68.0147,-23.4117 -86.63025,-51.3446 -43.32445,-65.00895 -50.2076,-155.94566 -32.6853,-232.07805 28.70192,-124.70655 103.7117,-254.17084 214.33633,-318.49591 24.64166,-14.32842 57.43796,-12.53835 85.27406,-6.40087 27.4249,6.04683 56.0732,19.08722 73.5726,41.05219 49.1901,61.74257 54.9834,149.23403 66.2675,227.36522 10.7047,74.11939 13.6922,150.90532 0.7336,224.66406 -19.4188,110.52961 -36.2534,236.95836 -115.788,316.12988 -80.26925,79.9028 -206.44538,110.11568 -319.58123,115.39638 -62.41699,2.9133 -131.12591,-9.9615 -181.47637,-46.96422 -37.51013,-27.5663 -80.88382,-72.57629 -73.7649,-118.5788 12.23317,-79.05078 104.68896,-137.03554 182.41947,-155.92057 92.77838,-22.541 188.93706,33.34558 278.85248,65.45698 47.30312,16.89332 51.76167,27.07788 135.32615,66.28382 L 971.12427,954.71139 c 4.23787,2.51799 -41.94437,-36.17819 -65.82042,-49.88062 -70.01711,-40.18271 -143.05596,-97.0921 -223.67335,-92.86355 -34.67257,1.81865 -85.51904,15.58192 -91.493,49.78435 -6.25478,35.81019 37.83033,70.42939 72.45235,81.51126 97.6748,31.26391 220.0001,-4.28275 299.94032,-68.52727 68.23633,-54.83865 95.13443,-151.58469 112.21273,-237.44394 16.4164,-82.53131 18.0078,-173.64729 -12.3097,-252.14419 -18.3665,-47.55371 -47.9888,-104.63704 -97.1544,-118.10658 -36.22225,-9.92355 -77.01947,14.41179 -105.9316,38.38296 -31.74876,26.32304 -50.57988,67.1663 -62.96796,106.50358 -12.06406,38.30841 -22.41697,82.2217 -9.17604,120.13942 11.73614,33.60847 37.31489,82.58131 72.65221,78.27549 37.49267,-4.56844 49.16761,-61.79531 54.8851,-99.13003 5.02248,-32.79639 -7.48048,-66.76883 -19.94386,-97.51769 -19.38041,-47.81411 -40.39914,-101.80947 -83.32076,-130.4368 -26.49365,-17.67041 -62.47603,-20.35235 -94.09366,-16.54679 -17.90501,2.15508 -36.61217,9.17239 -49.53976,21.74662 -32.95968,32.05875 -52.37384,79.20929 -58.92263,124.71992 -7.59499,52.78116 8.71852,107.19516 24.78023,158.04353 4.39674,13.91927 19.29918,39.30951 19.29918,39.30951 z"
   inkscape:path-effect="#path-effect1305;#path-effect1397" /></svg>
