<?xml version="1.0" encoding="UTF-8" standalone="no"?>
<svg
   xml:space="preserve"
   width="1000"
   height="1000"
   version="1.1"
   style="clip-rule:evenodd;fill-rule:evenodd;image-rendering:optimizeQuality;shape-rendering:geometricPrecision;text-rendering:geometricPrecision"
   viewBox="0 0 1000 1000"
   id="svg10"
   sodipodi:docname="ത്ത്ര.svg"
   inkscape:version="1.1.2 (0a00cf5339, 2022-02-04)"
   xmlns:inkscape="http://www.inkscape.org/namespaces/inkscape"
   xmlns:sodipodi="http://sodipodi.sourceforge.net/DTD/sodipodi-0.dtd"
   xmlns="http://www.w3.org/2000/svg"
   xmlns:svg="http://www.w3.org/2000/svg"
   xmlns:rdf="http://www.w3.org/1999/02/22-rdf-syntax-ns#"
   xmlns:cc="http://creativecommons.org/ns#"
   xmlns:dc="http://purl.org/dc/elements/1.1/"><metadata
   id="metadata14"><rdf:RDF><cc:Work
       rdf:about=""><dc:format>image/svg+xml</dc:format><dc:type
         rdf:resource="http://purl.org/dc/dcmitype/StillImage" /></cc:Work></rdf:RDF></metadata><sodipodi:namedview
   pagecolor="#ffffff"
   bordercolor="#666666"
   borderopacity="1"
   objecttolerance="10"
   gridtolerance="10"
   guidetolerance="10"
   inkscape:pageopacity="0"
   inkscape:pageshadow="2"
   inkscape:window-width="1920"
   inkscape:window-height="1009"
   id="namedview12"
   showgrid="false"
   inkscape:zoom="0.6002692"
   inkscape:cx="835.45849"
   inkscape:cy="506.43944"
   inkscape:window-x="0"
   inkscape:window-y="0"
   inkscape:window-maximized="1"
   inkscape:current-layer="svg10"
   showguides="true"
   inkscape:guide-bbox="true"
   inkscape:document-rotation="0"
   inkscape:pagecheckerboard="0"><sodipodi:guide
     position="0,1000"
     orientation="0,1"
     id="guide16"
     inkscape:label=""
     inkscape:locked="true"
     inkscape:color="rgb(0,0,255)" /><sodipodi:guide
     position="1763.3122,2036.1693"
     orientation="1000,0"
     id="guide18" /><sodipodi:guide
     position="0,200"
     orientation="0,1"
     id="guide20"
     inkscape:label="base"
     inkscape:locked="true"
     inkscape:color="rgb(0,0,255)" /><inkscape:grid
     type="xygrid"
     id="grid24"
     originx="-473.37552"
     originy="-489.69235" /><sodipodi:guide
     position="0,0"
     orientation="0,1"
     id="guide34"
     inkscape:label="bottom"
     inkscape:locked="true"
     inkscape:color="rgb(0,0,255)" /><sodipodi:guide
     position="225.05109,1693.3186"
     orientation="0,1"
     id="guide44"
     inkscape:label=""
     inkscape:locked="false"
     inkscape:color="rgb(0,0,255)" /><sodipodi:guide
     position="0,900"
     orientation="0,1"
     id="guide46"
     inkscape:label=""
     inkscape:locked="true"
     inkscape:color="rgb(0,0,255)" /><sodipodi:guide
     position="1345.4733,976.20518"
     orientation="-1,0"
     id="guide867"
     inkscape:label="width"
     inkscape:locked="false"
     inkscape:color="rgb(0,0,255)" /></sodipodi:namedview>
 <defs
   id="defs4"><inkscape:path-effect
   effect="fillet_chamfer"
   id="path-effect3441"
   is_visible="true"
   lpeversion="1"
   satellites_param="F,0,0,1,0,17.202029,0,1 @ F,0,0,1,0,0,0,1 @ F,0,0,1,0,0,0,1 @ F,0,0,1,0,0,0,1 @ F,0,0,1,0,0,0,1 @ F,0,0,1,0,0,0,1 @ F,0,0,1,0,0,0,1 @ F,0,0,1,0,0,0,1 @ F,0,0,1,0,0,0,1 @ F,0,0,1,0,0,0,1 @ F,0,0,1,0,0,0,1 @ F,0,0,1,0,0,0,1 @ F,0,0,1,0,0,0,1 @ F,0,0,1,0,0,0,1 @ F,0,0,1,0,0,0,1 @ F,0,0,1,0,0,0,1 @ F,0,0,1,0,0,0,1 @ F,0,0,1,0,0,0,1 @ F,0,0,1,0,0,0,1 @ F,0,0,1,0,0,0,1 @ F,0,0,1,0,0,0,1 @ F,0,0,1,0,0,0,1 @ F,0,0,1,0,0,0,1 @ F,0,0,1,0,0,0,1 @ F,0,0,1,0,32.925386,0,1 @ F,0,0,1,0,27.886442,0,1 @ F,0,0,1,0,0,0,1 @ F,0,0,1,0,0,0,1 @ F,0,0,1,0,0,0,1 @ F,0,0,1,0,0,0,1 @ F,0,0,1,0,0,0,1 @ F,0,0,1,0,0,0,1 @ F,0,0,1,0,0,0,1 @ F,0,0,1,0,0,0,1 @ F,0,0,1,0,0,0,1 @ F,0,0,1,0,0,0,1 @ F,0,0,1,0,0,0,1 @ F,0,0,1,0,0,0,1 @ F,0,0,1,0,0,0,1 @ F,0,0,1,0,0,0,1 @ F,0,0,1,0,0,0,1 @ F,0,0,1,0,0,0,1 @ F,0,0,1,0,0,0,1 @ F,0,0,1,0,0,0,1 @ F,0,0,1,0,0,0,1 @ F,0,0,1,0,0,0,1 @ F,0,0,1,0,0,0,1 @ F,0,0,1,0,0,0,1 @ F,0,0,1,0,0,0,1 @ F,0,0,1,0,0,0,1 @ F,0,0,1,0,0,0,1 @ F,0,0,1,0,0,0,1 @ F,0,0,1,0,0,0,1 @ F,0,0,1,0,0,0,1 @ F,0,0,1,0,0,0,1 @ F,0,0,1,0,0,0,1 @ F,0,0,1,0,0,0,1 @ F,0,0,1,0,0,0,1 @ F,0,0,1,0,0,0,1 @ F,0,0,1,0,0,0,1 @ F,0,0,1,0,0,0,1 @ F,0,0,1,0,0,0,1 @ F,0,0,1,0,0,0,1 @ F,0,0,1,0,0,0,1 @ F,0,0,1,0,0,0,1 @ F,0,0,1,0,0,0,1 @ F,0,0,1,0,0,0,1 @ F,0,0,1,0,0,0,1 @ F,0,0,1,0,0,0,1 @ F,0,0,1,0,0,0,1 @ F,0,0,1,0,0,0,1 @ F,0,0,1,0,0,0,1 @ F,0,0,1,0,0,0,1 @ F,0,0,1,0,0,0,1 @ F,0,0,1,0,0,0,1 @ F,0,0,1,0,0,0,1 @ F,0,0,1,0,0,0,1 @ F,0,0,1,0,17.202029,0,1 @ F,0,0,1,0,17.202029,0,1 @ F,0,0,1,0,0,0,1 @ F,0,0,1,0,0,0,1 @ F,0,0,1,0,0,0,1 @ F,0,0,1,0,0,0,1 @ F,0,0,1,0,0,0,1 @ F,0,0,1,0,0,0,1 @ F,0,0,1,0,0,0,1 @ F,0,0,1,0,0,0,1 @ F,0,0,1,0,0,0,1 @ F,0,0,1,0,0,0,1 @ F,0,0,1,0,0,0,1 @ F,0,0,1,0,0,0,1 @ F,0,0,1,0,0,0,1 @ F,0,0,1,0,0,0,1 @ F,0,0,1,0,0,0,1 @ F,0,0,1,0,0,0,1 @ F,0,0,1,0,0,0,1 @ F,0,0,1,0,0,0,1 @ F,0,0,1,0,0,0,1 @ F,0,0,1,0,0,0,1 @ F,0,0,1,0,0,0,1 @ F,0,0,1,0,0,0,1 @ F,0,0,1,0,0,0,1 @ F,0,0,1,0,0,0,1 @ F,0,0,1,0,0,0,1 @ F,0,0,1,0,0,0,1 @ F,0,0,1,0,0,0,1 @ F,0,0,1,0,0,0,1 @ F,0,0,1,0,17.202029,0,1"
   unit="px"
   method="auto"
   mode="F"
   radius="0"
   chamfer_steps="1"
   flexible="false"
   use_knot_distance="true"
   apply_no_radius="true"
   apply_with_radius="true"
   only_selected="false"
   hide_knots="false" /><inkscape:path-effect
   effect="fillet_chamfer"
   id="path-effect849"
   is_visible="true"
   lpeversion="1"
   satellites_param="F,0,0,1,0,34.318438,0,1 @ F,0,0,1,0,0,0,1 @ F,0,0,1,0,0,0,1 @ F,0,0,1,0,0,0,1 @ F,0,0,1,0,0,0,1 @ F,0,0,1,0,0,0,1 @ F,0,0,1,0,0,0,1 @ F,0,0,1,0,0,0,1 @ F,0,0,1,0,0,0,1 @ F,0,0,1,0,0,0,1 @ F,0,0,1,0,0,0,1 @ F,0,0,1,0,0,0,1 @ F,0,0,1,0,0,0,1 @ F,0,0,1,0,0,0,1 @ F,0,0,1,0,0,0,1 @ F,0,0,1,0,0,0,1 @ F,0,0,1,0,0,0,1 @ F,0,0,1,0,0,0,1 @ F,0,0,1,0,0,0,1 @ F,0,0,1,0,0,0,1 @ F,0,0,1,0,0,0,1 @ F,0,0,1,0,0,0,1 @ F,0,0,1,0,0,0,1 @ F,0,0,1,0,0,0,1 @ F,0,0,1,0,34.318438,0,1 @ F,0,0,1,0,26.440746,0,1 @ F,0,0,1,0,0,0,1 @ F,0,0,1,0,0,0,1 @ F,0,0,1,0,0,0,1 @ F,0,0,1,0,0,0,1 @ F,0,0,1,0,0,0,1 @ F,0,0,1,0,0,0,1 @ F,0,0,1,0,0,0,1 @ F,0,0,1,0,0,0,1 @ F,0,0,1,0,0,0,1 @ F,0,0,1,0,0,0,1 @ F,0,0,1,0,0,0,1 @ F,0,0,1,0,0,0,1 @ F,0,0,1,0,0,0,1 @ F,0,0,1,0,0,0,1 @ F,0,0,1,0,0,0,1 @ F,0,0,1,0,0,0,1 @ F,0,0,1,0,0,0,1 @ F,0,0,1,0,0,0,1 @ F,0,0,1,0,0,0,1 @ F,0,0,1,0,0,0,1 @ F,0,0,1,0,0,0,1 @ F,0,0,1,0,0,0,1 @ F,0,0,1,0,0,0,1 @ F,0,0,1,0,0,0,1 @ F,0,0,1,0,0,0,1 @ F,0,0,1,0,0,0,1 @ F,0,0,1,0,0,0,1 @ F,0,0,1,0,0,0,1 @ F,0,0,1,0,0,0,1 @ F,0,0,1,0,0,0,1 @ F,0,0,1,0,0,0,1 @ F,0,0,1,0,0,0,1 @ F,0,0,1,0,0,0,1 @ F,0,0,1,0,0,0,1 @ F,0,0,1,0,0,0,1 @ F,0,0,1,0,0,0,1 @ F,0,0,1,0,0,0,1 @ F,0,0,1,0,0,0,1 @ F,0,0,1,0,0,0,1 @ F,0,0,1,0,0,0,1 @ F,0,0,1,0,0,0,1 @ F,0,0,1,0,0,0,1 @ F,0,0,1,0,0,0,1 @ F,0,0,1,0,0,0,1 @ F,0,0,1,0,0,0,1 @ F,0,0,1,0,0,0,1 @ F,0,0,1,0,0,0,1 @ F,0,0,1,0,0,0,1 @ F,0,0,1,0,0,0,1 @ F,0,0,1,0,34.318438,0,1 @ F,0,0,1,0,34.318438,0,1 @ F,0,0,1,0,0,0,1 @ F,0,0,1,0,0,0,1 @ F,0,0,1,0,0,0,1 @ F,0,0,1,0,0,0,1 @ F,0,0,1,0,0,0,1 @ F,0,0,1,0,0,0,1 @ F,0,0,1,0,0,0,1 @ F,0,0,1,0,0,0,1 @ F,0,0,1,0,0,0,1 @ F,0,0,1,0,0,0,1 @ F,0,0,1,0,0,0,1 @ F,0,0,1,0,0,0,1 @ F,0,0,1,0,0,0,1 @ F,0,0,1,0,0,0,1 @ F,0,0,1,0,0,0,1 @ F,0,0,1,0,0,0,1 @ F,0,0,1,0,0,0,1 @ F,0,0,1,0,0,0,1 @ F,0,0,1,0,0,0,1 @ F,0,0,1,0,0,0,1 @ F,0,0,1,0,0,0,1 @ F,0,0,1,0,0,0,1 @ F,0,0,1,0,0,0,1 @ F,0,0,1,0,0,0,1 @ F,0,0,1,0,0,0,1 @ F,0,0,1,0,0,0,1 @ F,0,0,1,0,0,0,1 @ F,0,0,1,0,0,0,1 @ F,0,0,1,0,0,0,1 @ F,0,0,1,0,0,0,1 @ F,0,0,1,0,0,0,1 @ F,0,0,1,0,34.318438,0,1"
   unit="px"
   method="auto"
   mode="F"
   radius="0"
   chamfer_steps="1"
   flexible="false"
   use_knot_distance="true"
   apply_no_radius="true"
   apply_with_radius="true"
   only_selected="true"
   hide_knots="false" /><inkscape:path-effect
   effect="spiro"
   id="path-effect865"
   is_visible="true"
   lpeversion="1" /><inkscape:path-effect
   effect="spiro"
   id="path-effect851"
   is_visible="true"
   lpeversion="1" />
  <style
   type="text/css"
   id="style2">
   
    .fil0 {fill:#EF7F1A;fill-rule:nonzero}
   
  </style>
 <inkscape:path-effect
   effect="spiro"
   id="path-effect1214"
   is_visible="true"
   lpeversion="1" /><inkscape:path-effect
   effect="spiro"
   id="path-effect1195"
   is_visible="true"
   lpeversion="1" /><inkscape:path-effect
   effect="spiro"
   id="path-effect992"
   is_visible="true"
   lpeversion="1" /><inkscape:path-effect
   effect="spiro"
   id="path-effect1060"
   is_visible="true"
   lpeversion="1" /><inkscape:path-effect
   effect="spiro"
   id="path-effect1047"
   is_visible="true"
   lpeversion="1" /><inkscape:path-effect
   effect="spiro"
   id="path-effect1085"
   is_visible="true"
   lpeversion="1" /><inkscape:path-effect
   effect="spiro"
   id="path-effect1286"
   is_visible="true"
   lpeversion="1" /><inkscape:path-effect
   effect="spiro"
   id="path-effect1305"
   is_visible="true"
   lpeversion="1" /></defs>
 
<path
   id="path1210-6"
   style="display:inline;fill:#26a269;fill-rule:nonzero;stroke:none;stroke-width:2.22142px;stroke-linecap:butt;stroke-linejoin:miter;stroke-opacity:1"
   d="m 676.40091,607.85557 c 11.25973,-28.21504 19.68917,-57.55956 25.10909,-87.45116 6.92179,-38.17457 8.90942,-77.56595 2.05364,-115.75243 -5.34913,-29.79447 -15.98144,-58.40522 -28.32927,-86.04314 -7.41199,-16.59011 -15.57535,-33.07651 -27.23296,-47.01457 -11.65761,-13.93805 -27.20943,-25.26941 -45.02352,-28.85092 -17.61863,-3.54221 -36.16619,0.77124 -52.07473,9.13078 -15.90853,8.35953 -29.47914,20.54291 -42.01893,33.41601 -36.26885,37.23288 -65.4947,81.6111 -83.32076,130.4368 -11.42035,31.28043 -18.13725,64.26674 -19.94386,97.51769 -1.13408,20.87291 -0.20954,42.45656 8.26825,61.56393 4.2389,9.55369 10.36819,18.34956 18.3529,25.09387 7.98471,6.7443 17.87037,11.37013 28.26395,12.47223 9.77426,1.03642 19.77691,-1.06295 28.58605,-5.42294 8.80913,-4.35998 16.4446,-10.9226 22.5586,-18.61866 12.22799,-15.39212 18.22654,-34.85152 21.50756,-54.23389 6.76578,-39.96828 2.92737,-81.45161 -9.17604,-120.13942 -12.43123,-39.73565 -33.69574,-76.89624 -62.96796,-106.50358 -13.89155,-14.05059 -29.76016,-26.50947 -47.99623,-34.11473 -18.23607,-7.60526 -39.04758,-10.06853 -57.93542,-4.26823 -20.53258,6.30539 -37.33849,21.91374 -48.42859,40.30815 -11.09011,18.39441 -16.95998,39.4729 -20.83627,60.59917 -9.0916,49.5504 -7.81252,100.73228 1.09345,150.31638 9.63043,53.61754 28.34662,105.98723 58.35503,151.4524 10.95689,16.60058 23.38345,32.22973 37.07679,46.65612 12.51378,13.18368 9.12102,24.19866 -8.97432,25.99405 l -115.96318,11.50566 c -15.32601,1.52061 -25.8517,-9.59465 -24.29015,-24.91519 0.88938,-8.72584 1.5908,-17.47084 2.10341,-26.2269 7.2003,-122.99016 -22.80379,-244.74047 -35.54002,-367.28113 -3.14547,-30.26394 -5.23688,-60.83176 -2.0001,-91.08607 3.26502,-30.51831 12.16528,-60.83127 29.07862,-86.44311 14.88794,-22.54478 36.50132,-41.3961 62.38085,-49.15291 27.77383,-8.32458 57.96647,-3.34482 85.27409,6.40087 64.2696,22.93688 117.40775,71.4366 154.46333,128.73901 37.05558,57.30241 59.09534,123.13631 73.873,189.7569 13.13296,59.20596 20.58485,122.25122 0.79466,179.57634 -9.8951,28.66256 -26.71947,55.26866 -50.14936,74.51691 -23.42989,19.24826 -53.67104,30.73752 -83.96085,29.3294 -31.29359,-1.45478 -61.19381,-16.60981 -83.0738,-39.03014 -21.88,-22.42032 -36.04826,-51.68109 -43.08115,-82.20884 -8.4836,-36.82486 -6.94739,-75.27192 -2.01615,-112.73824 5.93013,-45.05563 16.69564,-89.42976 31.24589,-132.48167 14.08701,-41.68125 31.89721,-82.46416 57.28886,-118.39513 25.39166,-35.93097 58.75899,-66.95141 98.78777,-85.2125 29.95629,-13.66603 64.11855,-19.91024 96.20731,-12.53116 29.04604,6.67938 54.9279,24.21827 74.61633,46.59352 19.68844,22.37526 33.5142,49.41086 43.56368,77.46963 14.13269,39.45932 21.11287,81.46818 20.50039,123.37756 l -37.13477,-0.70993 c -2.3874,-49.55191 8.04394,-99.66752 30.00449,-144.15152 12.1746,-24.66127 27.97272,-47.75751 48.21026,-66.38119 20.23753,-18.62367 45.0725,-32.65121 72.02297,-38.13496 33.50659,-6.81776 68.85736,-0.12654 99.77937,14.46805 39.70129,18.73826 72.63549,49.98946 97.90359,85.8899 25.2681,35.90044 43.2725,76.42253 58.173,117.71773 15.4869,42.92026 27.8324,87.17511 33.246,132.48167 4.4827,37.51524 4.1443,75.84795 -4.0162,112.73824 -6.8719,31.06504 -19.6613,61.4897 -41.3438,84.77335 -10.8413,11.64182 -23.8316,21.36741 -38.3532,27.86266 -14.5216,6.49525 -30.5882,9.70567 -46.458,8.60297 -17.2213,-1.19661 -33.8875,-7.43144 -48.48411,-16.6479 -14.59659,-9.21646 -27.20163,-21.34672 -38.14611,-34.6967 -25.9017,-31.59467 -42.68023,-70.13979 -51.07491,-110.12292 -8.39467,-39.98313 -8.61047,-81.40737 -3.61039,-121.95513 8.52646,-69.14464 32.53415,-136.82668 72.93787,-193.58249 40.40375,-56.75581 97.54625,-102.17198 163.39845,-124.91342 27.4064,-9.46453 57.5715,-14.95956 85.2741,-6.40087 25.7443,7.95366 46.6226,27.29646 62.3809,49.15291 27.3439,37.92558 41.4532,84.07769 47.5766,130.43009 6.1233,46.3524 4.6881,93.32648 3.5434,140.06758 -1.5391,62.8475 -2.5505,125.92904 -12.0161,188.0787 -9.4655,62.14966 -27.7518,123.79909 -61.4571,176.86635 -44.0621,69.37356 -112.6617,120.80974 -187.5662,154.62506 -74.90446,33.81531 -156.22169,51.09118 -237.57482,62.74558 -127.51571,18.2675 -259.29919,23.0216 -383.56943,-10.9028 C 317.53915,966.49006 198.60227,887.26007 124.31828,775.3517 75.245792,701.4243 46.37975,615.16332 33.93842,527.30785 21.497089,439.45239 25.069695,349.88628 37.286811,261.99935 44.08644,213.08449 53.550944,164.54024 65.622574,116.65317 c 2.322251,-9.21216 10.868555,-12.61552 18.958716,-7.63484 l 82.38005,50.71708 c 8.09016,4.98068 10.8173,15.70193 6.37893,24.10144 -15.74405,29.7952 -28.79401,61.01393 -38.9303,93.15262 -28.50066,90.36583 -33.4881,188.44963 -11.29203,280.56698 34.70503,144.03161 138.62201,270.42281 274.55989,329.33322 129.4501,56.09885 276.63734,50.93462 416.82395,35.05622 62.58528,-7.08879 125.40276,-16.21896 184.95336,-36.73467 59.55056,-20.51571 116.12936,-53.14644 156.97956,-101.0884 59.0049,-69.24846 79.9431,-163.94822 80.53,-254.92396 0.3453,-53.52829 -5.6555,-107.09525 -17.8449,-159.21833 -4.8657,-20.80631 -10.8271,-41.65396 -21.7047,-60.04565 -10.8777,-18.39169 -27.2258,-34.29753 -47.5602,-40.86167 -18.837,-6.08074 -39.7512,-3.66393 -58.0026,3.99719 -18.2515,7.66113 -34.069,20.25402 -47.929,34.38577 -29.1468,29.71813 -50.48187,66.79467 -62.96799,106.50358 -12.16106,38.67513 -16.01308,80.17804 -9.17604,120.13942 3.31177,19.35675 9.35233,38.77689 21.57953,54.14397 6.1136,7.68354 13.738,14.23906 22.5303,18.6102 8.7924,4.37113 18.7724,6.50135 28.5424,5.52132 10.4277,-1.04601 20.3706,-5.61636 28.418,-12.32989 8.0473,-6.71352 14.2423,-15.50344 18.5177,-25.07172 8.5509,-19.13656 9.4228,-40.82017 7.9494,-61.72842 -2.3374,-33.16894 -10.1989,-65.72654 -19.9439,-97.51769 -7.7319,-25.22391 -16.7401,-50.23852 -29.9658,-73.06631 -13.2257,-22.82779 -30.9092,-43.50626 -53.35494,-57.37049 -27.74236,-17.13583 -62.12442,-22.96886 -94.09366,-16.54679 -17.82613,3.58096 -34.96353,10.87797 -49.53976,21.74662 -18.99422,14.16289 -33.25619,34.09467 -42.67113,55.83695 -9.41493,21.74229 -14.16181,45.2821 -16.2515,68.88297 -4.74894,53.6342 4.13807,108.31345 24.78023,158.04353 3.40156,8.19487 7.11685,16.2595 11.13445,24.1706 4.30134,8.46983 0.48004,15.64915 -8.99951,16.27856 l -133.52305,8.86548 c -9.47955,0.62941 -14.00818,-5.88927 -10.48712,-14.71249 z"
   sodipodi:nodetypes="caaaaaaaaaaaaaaaccaaaaaaaacaaaaaccaaaaacaaaaaaaaaaaaccaaaaaaaaaaaaaaaaaaacc"
   inkscape:original-d="m 669.72379,623.70771 c 10.36705,-33.93407 26.11316,-67.72509 31.78621,-103.3033 6.07656,-38.10879 7.82672,-77.59648 2.05364,-115.75243 -4.51725,-29.8558 -12.81622,-60.13716 -28.32927,-86.04314 -17.94178,-29.96184 -37.97882,-69.18258 -72.25648,-75.86549 -33.78584,-6.58703 -68.06814,20.01805 -94.09366,42.54679 -39.00773,33.76665 -63.94035,82.62269 -83.32076,130.4368 -12.46338,30.74886 -24.96634,64.7213 -19.94386,97.51769 5.71749,37.33472 17.39243,94.56159 54.8851,99.13003 35.33732,4.30582 60.91607,-44.66702 72.65221,-78.27549 13.24093,-37.91772 2.88802,-81.83101 -9.17604,-120.13942 -12.38808,-39.33728 -31.21919,-80.18055 -62.96796,-106.50358 -28.91215,-23.97118 -70.17413,-49.86901 -105.93165,-38.38296 -38.84272,12.47708 -57.3199,61.89768 -69.26486,100.90732 -14.6706,47.911 -8.24777,101.08802 1.09345,150.31638 10.08601,53.15344 30.35935,105.15707 58.35503,151.4524 15.92223,26.32995 37.24954,50.38854 60.86698,69.39933 l -176.47788,17.50982 c 0,0 5.50568,-35.8349 5.56345,-53.89541 0.39345,-122.99825 -28.26154,-244.49779 -35.54002,-367.28113 -1.79712,-30.31612 -6.57664,-61.06354 -2.0001,-91.08607 4.58131,-30.05381 11.56402,-61.5944 29.07862,-86.44311 15.25162,-21.63812 37.06079,-41.42542 62.38085,-49.15291 27.26324,-8.32054 60.42277,-7.56078 85.27409,6.40087 113.88737,63.98274 216.44446,188.4086 228.33633,318.49591 9.5044,103.97031 -30.65121,264.44391 -133.31555,283.42265 -57.35109,10.60204 -117.08592,-57.90829 -126.15495,-121.23898 -4.96717,-37.47677 -6.0252,-75.36724 -2.01615,-112.73824 4.83962,-45.11332 11.8046,-91.4857 31.24589,-132.48167 36.64208,-77.26736 81.99905,-160.88294 156.07663,-203.60763 28.01446,-16.15751 65.71948,-23.31852 96.20731,-12.53116 53.84309,19.05104 92.67672,72.95931 118.18001,124.06315 18.61581,37.3026 20.50039,123.37756 20.50039,123.37756 l -37.13477,-0.70993 c 0,0 5.1836,-101.81 30.00449,-144.15152 26.85538,-45.81212 69.28385,-89.54542 120.23323,-104.51615 32.24445,-9.47456 70.78911,-2.53303 99.77937,14.46805 73.76639,43.25968 118.88479,126.60336 156.07659,203.60763 19.8015,40.99836 28.4682,87.20322 33.246,132.48167 3.946,37.39564 0.951,75.26147 -4.0162,112.73824 -9.069,63.33069 -68.2191,114.532 -126.155,121.23898 -33.3449,3.86019 -66.75674,-24.29225 -86.63022,-51.3446 -47.05438,-64.05178 -70.74667,-154.2399 -54.6853,-232.07805 26.716,-129.47364 120.55192,-254.69039 236.33632,-318.49591 24.9649,-13.75747 58.0109,-14.7214 85.2741,-6.40087 25.3201,7.72749 48.6542,26.51669 62.3809,49.15291 47.58,78.46266 51.6655,178.73737 51.12,270.49767 -0.7376,124.08703 1.4671,266.04066 -73.4732,364.94505 -96.1221,126.85943 -269.88825,182.30873 -425.14102,217.37064 -124.766,28.1768 -262.16037,29.3505 -383.56943,-10.9028 C 322.34793,960.4961 194.52307,886.48119 124.31828,775.3517 31.622144,628.61992 34.603954,435.5378 37.286811,261.99935 38.138313,206.9206 84.877778,154.6341 69.932758,100 l 111.677112,68.75374 c 0,0 -38.3907,69.87431 -47.1999,108.23573 -20.94832,91.22369 -41.387947,191.9395 -11.29203,280.56698 45.95615,135.33325 147.77967,263.34965 274.55989,329.33322 123.68317,64.37167 278.94992,55.8406 416.82395,35.05622 121.5151,-18.31828 258.45472,-47.64062 341.93292,-137.82307 60.5352,-65.39686 71.8834,-166.23072 80.53,-254.92396 5.1819,-53.15308 0.7975,-109.17271 -17.8449,-159.21833 -14.2414,-38.23112 -30.4222,-88.43025 -69.2649,-100.90732 -35.7575,-11.48604 -77.0195,14.41179 -105.9316,38.38296 -31.7488,26.32304 -50.57991,67.1663 -62.96799,106.50358 -12.06406,38.30841 -22.41697,82.2217 -9.17604,120.13942 11.73614,33.60847 37.31493,82.58131 72.65223,78.27549 37.4927,-4.56844 49.1676,-61.79531 54.8851,-99.13003 5.0225,-32.79639 -7.4805,-66.76883 -19.9439,-97.51769 -19.3804,-47.81411 -40.3991,-101.80947 -83.32074,-130.4368 -26.49365,-17.67041 -62.47603,-20.35235 -94.09366,-16.54679 -17.90501,2.15508 -36.61217,9.17239 -49.53976,21.74662 -32.95968,32.05875 -52.37384,79.20929 -58.92263,124.71992 -7.59499,52.78116 8.71852,107.19516 24.78023,158.04353 4.39674,13.91927 19.29918,39.30951 19.29918,39.30951 z"
   inkscape:path-effect="#path-effect1305;#path-effect3441" /><text
   text-anchor="middle"
   x="1114.491"
   y="912.17438"
   id="bottom"
   inkscape:label="bottom"
   style="clip-rule:evenodd;fill-rule:evenodd;image-rendering:optimizeQuality;shape-rendering:geometricPrecision;text-rendering:geometricPrecision">✛</text></svg>
