<?xml version="1.0" encoding="UTF-8" standalone="no"?>
<svg
   xmlns:dc="http://purl.org/dc/elements/1.1/"
   xmlns:cc="http://creativecommons.org/ns#"
   xmlns:rdf="http://www.w3.org/1999/02/22-rdf-syntax-ns#"
   xmlns:svg="http://www.w3.org/2000/svg"
   xmlns="http://www.w3.org/2000/svg"
   xmlns:sodipodi="http://sodipodi.sourceforge.net/DTD/sodipodi-0.dtd"
   xmlns:inkscape="http://www.inkscape.org/namespaces/inkscape"
   xml:space="preserve"
   width="1000"
   height="1000"
   version="1.1"
   style="clip-rule:evenodd;fill-rule:evenodd;image-rendering:optimizeQuality;shape-rendering:geometricPrecision;text-rendering:geometricPrecision"
   viewBox="0 0 1000 1000"
   id="svg10"
   sodipodi:docname="ത്സ.svg"
   inkscape:version="1.0.1 (3bc2e813f5, 2020-09-07)"><metadata
   id="metadata14"><rdf:RDF><cc:Work
       rdf:about=""><dc:format>image/svg+xml</dc:format><dc:type
         rdf:resource="http://purl.org/dc/dcmitype/StillImage" /><dc:title /></cc:Work></rdf:RDF></metadata><sodipodi:namedview
   pagecolor="#ffffff"
   bordercolor="#666666"
   borderopacity="1"
   objecttolerance="10"
   gridtolerance="10"
   guidetolerance="10"
   inkscape:pageopacity="0"
   inkscape:pageshadow="2"
   inkscape:window-width="1920"
   inkscape:window-height="1015"
   id="namedview12"
   showgrid="false"
   inkscape:zoom="0.6002692"
   inkscape:cx="126.74211"
   inkscape:cy="563.97401"
   inkscape:window-x="1920"
   inkscape:window-y="0"
   inkscape:window-maximized="1"
   inkscape:current-layer="g910"
   showguides="true"
   inkscape:guide-bbox="true"
   inkscape:document-rotation="0"><sodipodi:guide
     position="0,1000"
     orientation="0,1"
     id="guide16"
     inkscape:label=""
     inkscape:locked="true"
     inkscape:color="rgb(0,0,255)" /><sodipodi:guide
     position="1763.3122,2036.1693"
     orientation="1000,0"
     id="guide18" /><sodipodi:guide
     position="0,200"
     orientation="0,1"
     id="guide20"
     inkscape:label="base"
     inkscape:locked="true"
     inkscape:color="rgb(0,0,255)" /><inkscape:grid
     type="xygrid"
     id="grid24"
     originx="-473.37552"
     originy="-489.69235" /><sodipodi:guide
     position="0,0"
     orientation="0,1"
     id="guide34"
     inkscape:label="bottom"
     inkscape:locked="true"
     inkscape:color="rgb(0,0,255)" /><sodipodi:guide
     position="225.05109,1693.3186"
     orientation="0,1"
     id="guide44"
     inkscape:label=""
     inkscape:locked="false"
     inkscape:color="rgb(0,0,255)" /><sodipodi:guide
     position="0,900"
     orientation="0,1"
     id="guide46"
     inkscape:label=""
     inkscape:locked="true"
     inkscape:color="rgb(0,0,255)" /><sodipodi:guide
     position="1130.233,181.007"
     orientation="-1,0"
     id="guide841"
     inkscape:label="width"
     inkscape:locked="false"
     inkscape:color="rgb(0,0,255)" /></sodipodi:namedview>
 <defs
   id="defs4"><inkscape:path-effect
   effect="spiro"
   id="path-effect867"
   is_visible="true"
   lpeversion="1" /><inkscape:path-effect
   effect="spiro"
   id="path-effect851"
   is_visible="true"
   lpeversion="1" />
  <style
   type="text/css"
   id="style2">
   <![CDATA[
    .fil0 {fill:#EF7F1A;fill-rule:nonzero}
   ]]>
  </style>
 <inkscape:path-effect
   effect="spiro"
   id="path-effect1214"
   is_visible="true"
   lpeversion="1" /><inkscape:path-effect
   effect="spiro"
   id="path-effect1195"
   is_visible="true"
   lpeversion="1" /><inkscape:path-effect
   effect="spiro"
   id="path-effect992"
   is_visible="true"
   lpeversion="1" /><inkscape:path-effect
   effect="spiro"
   id="path-effect1060"
   is_visible="true"
   lpeversion="1" /><inkscape:path-effect
   effect="spiro"
   id="path-effect1047"
   is_visible="true"
   lpeversion="1" /><inkscape:path-effect
   effect="spiro"
   id="path-effect1085"
   is_visible="true"
   lpeversion="1" /><inkscape:path-effect
   effect="spiro"
   id="path-effect1286"
   is_visible="true"
   lpeversion="1" /><inkscape:path-effect
   effect="spiro"
   id="path-effect1305"
   is_visible="true"
   lpeversion="1" /><inkscape:path-effect
   effect="spiro"
   id="path-effect1078"
   is_visible="true"
   lpeversion="1" /></defs>
 
<g
   style="clip-rule:evenodd;fill-rule:evenodd;image-rendering:optimizeQuality;shape-rendering:geometricPrecision;text-rendering:geometricPrecision"
   id="g910"><path
     style="clip-rule:evenodd;display:inline;fill:#1a1a1a;fill-rule:nonzero;stroke:none;stroke-width:1.92017px;stroke-linecap:butt;stroke-linejoin:miter;stroke-opacity:1;image-rendering:optimizeQuality;shape-rendering:geometricPrecision;text-rendering:geometricPrecision"
     d="m 594.48376,180.03797 c 19.37365,37.8405 31.17295,79.53973 34.49905,121.92108 2.16015,-20.26866 6.54908,-40.29901 13.06224,-59.61387 13.19328,-39.12486 35.41449,-75.50468 66.00446,-103.23681 30.58997,-27.73214 69.71103,-46.498868 110.80824,-50.478488 47.67128,-4.616217 97.31223,11.528698 132.01803,44.534268 34.70579,33.00558 53.39792,82.59142 47.48607,130.11942 -5.35986,43.09032 -29.35928,81.62611 -56.62189,115.42335 -27.26262,33.79724 -58.44749,64.58425 -82.23091,100.91403 -16.88112,25.78634 -30.01004,54.82542 -32.4063,85.5527 -1.19812,15.36364 0.34052,31.00852 5.2252,45.62415 4.88467,14.61564 13.17083,28.17531 24.4647,38.65985 12.405,11.51605 28.2972,19.13313 44.97414,22.02854 16.67693,2.8954 34.08363,1.11468 49.98786,-4.67834 26.22646,-9.55283 47.74891,-29.66528 62.60705,-53.29403 14.8582,-23.62876 23.5107,-50.6698 29.3005,-77.97477 17.6885,-83.41885 9.6933,-170.33592 -7.2302,-253.91331 -8.2833,-40.90749 -18.7142,-81.63695 -20.9278,-123.31592 -1.2596,-23.7164 0.1692,-47.57455 4.2503,-70.971108 h 143.9918 c -17.6178,27.092968 -31.5013,56.610708 -41.1355,87.458698 -19.3373,61.91626 -21.3042,128.17315 -14.6854,192.70024 4.6649,45.4782 13.4927,90.46777 17.6372,135.99633 4.1446,45.52857 3.4536,92.2795 -10.5058,135.81297 -13.8274,43.12178 -40.921,82.1675 -77.5544,108.78856 -36.6334,26.62106 -82.76939,40.38737 -127.88145,36.43934 -44.05462,-3.85549 -86.44026,-24.717 -116.21217,-57.41729 -29.7719,-32.70028 -46.58875,-76.936 -45.84813,-121.15281 0.71855,-42.89882 17.25466,-84.15807 38.87386,-121.21796 21.6192,-37.05988 48.38407,-70.82655 72.12944,-106.56144 11.06284,-16.64869 21.57383,-33.94586 27.64134,-52.99187 6.06752,-19.04601 7.39879,-40.17793 0.18456,-58.81982 -7.64793,-19.7626 -24.84597,-35.41727 -45.0358,-41.85328 -13.27024,-4.23022 -27.6408,-4.63821 -41.29405,-1.88453 -13.65326,2.75367 -26.59652,8.60774 -38.11614,16.43668 -23.03926,15.65788 -40.05437,38.77554 -53.58541,63.12482 -33.52693,60.33214 -47.94023,131.56562 -37.8277,199.8427 4.11517,27.78455 12.19001,54.9796 23.9046,80.5077 l -135.12673,9.4414 c 25.33023,-43.12642 38.67343,-93.21149 38.15639,-143.2239 -0.57833,-55.94056 -18.40659,-111.21797 -48.33111,-158.48534 -7.99207,-12.6239 -16.88365,-24.7699 -27.57158,-35.2104 -10.68793,-10.4405 -23.25246,-19.16124 -37.31828,-24.19995 -20.23925,-7.25018 -42.73445,-6.53148 -63.50516,-0.9844 -33.78749,9.02338 -63.23174,30.15835 -88.1349,54.71133 -37.0462,36.52526 -65.69312,81.49003 -83.32076,130.43676 -11.28164,31.32579 -18.0933,64.27382 -19.94386,97.5177 -1.16208,20.87592 -0.24161,42.46761 8.24228,61.57725 4.24195,9.55482 10.37665,18.35013 18.36645,25.09192 7.9898,6.74179 17.88005,11.36317 28.27637,12.46093 9.77402,1.03205 19.77502,-1.06955 28.58303,-5.43023 8.80801,-4.36069 16.44287,-10.92261 22.55703,-18.61765 12.22832,-15.3901 18.23022,-34.84681 21.51215,-54.22762 6.76809,-39.9677 2.9197,-81.44949 -9.17604,-120.1395 -12.42392,-39.73976 -33.6693,-76.91988 -62.96796,-106.5035 -13.8981,-14.03328 -29.77799,-26.46287 -48.01087,-34.0558 -18.23287,-7.59292 -39.0222,-10.06598 -57.92078,-4.32719 -20.57689,6.24843 -37.484,21.79075 -48.62154,40.18658 -11.13754,18.39584 -16.98769,39.52902 -20.64332,60.72071 -8.55174,49.57443 -5.71422,100.47252 1.09345,150.3164 14.96539,109.57248 49.60838,217.4803 109.91382,310.1806 14.41238,22.15443 30.24271,43.38628 47.36194,63.5225 l -240.520535,2.8044 C 42.371507,858.8345 52.984668,819.80204 58.937195,780.06935 80.98144,632.92558 38.931352,484.76097 23.397165,336.78825 c -3.176827,-30.26124 -5.241782,-60.83169 -2.00009,-91.08605 3.269953,-30.51812 12.154771,-60.83781 29.07862,-86.44311 14.895204,-22.53602 36.517223,-41.35468 62.380845,-49.15291 27.7711,-8.37336 58.01591,-3.51572 85.27409,6.40087 63.02027,22.92692 114.35067,71.97487 148.93,129.43328 34.57933,57.4584 53.59427,123.04994 65.40633,189.06262 7.08838,39.614 11.7195,80.02014 7.99914,120.09099 -3.72037,40.07086 -16.23073,80.02572 -40.68444,111.98711 -10.51094,13.73796 -23.19261,25.92219 -37.89879,35.02932 -14.70617,9.10713 -31.47813,15.07676 -48.73146,16.31528 -16.00232,1.14872 -32.22405,-1.79384 -47.00602,-8.02977 -14.78198,-6.23592 -28.12674,-15.72381 -39.24312,-27.29186 -22.23277,-23.1361 -35.18671,-54.1793 -39.90581,-85.91737 -5.55853,-37.38361 -0.27909,-75.46623 5.98385,-112.7383 7.55856,-44.98255 16.63485,-90.0006 33.24589,-132.4816 30.65513,-78.39728 85.71964,-144.93139 146.07663,-203.60766 15.96214,-15.51766 32.48202,-30.689 51.36837,-42.47431 18.88635,-11.785307 40.40549,-20.108212 62.658,-20.751398 28.05325,-0.81085 55.58299,10.782663 77.30561,28.552578 21.72262,17.76992 38.05903,41.37081 50.84895,66.35201 z"
     id="path1087-2-3"
     inkscape:path-effect="#path-effect867"
     inkscape:original-d="m 594.48376,180.03797 c 20.51228,36.92056 34.49905,121.92108 34.49905,121.92108 0,0 2.68308,-42.11818 13.06224,-59.61387 39.84587,-67.16636 98.74721,-155.904521 176.8127,-153.715298 83.45082,2.340245 169.98769,91.714238 179.5041,174.653688 9.76775,85.1295 -114.07902,134.30873 -138.8528,216.33738 -16.36959,54.20149 -38.6276,126.06285 -2.7164,169.8367 20.40907,24.87757 65.19575,29.57286 94.962,17.3502 49.41155,-20.28944 76.57305,-80.10222 91.90755,-131.2688 24.3077,-81.1079 1.0785,-169.64989 -7.2302,-253.91331 -4.0913,-41.49182 -18.6715,-81.68398 -20.9278,-123.31592 -1.2826,-23.66469 4.2503,-70.971108 4.2503,-70.971108 h 143.9918 c 0,0 -32.9202,56.307228 -41.1355,87.458698 -16.4273,62.28997 -13.0806,128.30057 -14.6854,192.70024 -2.258,90.60615 47.7417,190.78231 7.1314,271.8093 -37.5758,74.97228 -122.07401,154.3703 -205.43585,145.2279 -79.90251,-8.76301 -150.70397,-98.99475 -162.0603,-178.5701 -11.93287,-83.61529 82.14575,-148.39961 111.0033,-227.7794 13.12232,-36.09613 38.77361,-74.99764 27.8259,-111.81169 -5.84155,-19.64351 -24.66617,-39.60175 -45.0358,-41.85328 -51.02855,-5.64036 -103.39052,35.73336 -132.9956,77.67697 -39.09553,55.38942 -41.26887,132.13297 -37.8277,199.8427 1.42089,27.95781 23.9046,80.5077 23.9046,80.5077 l -135.12673,9.4414 c 0,0 39.03663,-93.82527 38.15639,-143.2239 -0.98399,-55.22156 -18.86611,-111.77128 -48.33111,-158.48534 -15.64537,-24.80431 -37.63843,-48.57562 -64.88986,-59.41035 -19.67306,-7.82169 -43.10137,-6.63187 -63.50516,-0.9844 -33.32557,9.22403 -63.52698,30.4188 -88.1349,54.71133 -36.71594,36.24538 -63.94035,82.62266 -83.32076,130.43676 -12.46338,30.74887 -24.96633,64.72131 -19.94386,97.5177 5.71749,37.33474 17.39242,94.56165 54.8851,99.1301 35.33733,4.30582 60.91608,-44.66703 72.65221,-78.2755 13.24095,-37.91774 2.88804,-81.83107 -9.17604,-120.1395 -12.38807,-39.33726 -31.21921,-80.18048 -62.96796,-106.5035 -28.91214,-23.97118 -70.17412,-49.86903 -105.93165,-38.38299 -38.84271,12.47707 -57.3199,61.89766 -69.26486,100.90729 -14.670598,47.911 -7.57683,100.96545 1.09345,150.3164 18.98086,108.03837 58.23025,213.42643 109.91382,310.1806 12.44435,23.29642 23.7445,44.5117 47.36194,63.5225 l -240.520535,2.8044 c 23.3813,-31.8741 27.840143,-76.12881 31.55236,-116.0414 13.727846,-147.59748 -27.986418,-295.23917 -35.54003,-443.2811 -1.547536,-30.32988 -6.576628,-61.06353 -2.00009,-91.08605 4.581306,-30.05381 11.56402,-61.5944 29.07862,-86.44311 15.251613,-21.63812 37.060784,-41.42541 62.380845,-49.15291 27.26325,-8.32054 60.63243,-7.92756 85.27409,6.40087 110.62463,64.32507 185.63441,193.78936 214.33633,318.4959 17.52231,76.13241 10.63916,167.06913 -32.6853,232.0781 -18.61554,27.9329 -53.28532,55.2048 -86.63025,51.3446 -57.93589,-6.70698 -117.08592,-57.9083 -126.15495,-121.239 -4.96717,-37.4768 0.38066,-75.52544 5.98385,-112.7383 6.77908,-45.02229 14.09621,-91.17479 33.24589,-132.4816 35.13221,-75.78186 83.68634,-148.06836 146.07663,-203.60766 32.46195,-28.89734 70.65906,-66.073506 114.02637,-63.225708 53.04221,3.483118 106.05368,55.991908 128.15456,94.904588 z"
     sodipodi:nodetypes="ccaaaaaaaaaccaaaaaaaaaaccaaaaaaaaaaaaaaaccaaaaaaaaacaaaac" /></g></svg>
