<?xml version="1.0" encoding="UTF-8" standalone="no"?>
<svg
   xml:space="preserve"
   width="1000"
   height="1000"
   version="1.1"
   style="clip-rule:evenodd;fill-rule:evenodd;image-rendering:optimizeQuality;shape-rendering:geometricPrecision;text-rendering:geometricPrecision"
   viewBox="0 0 1000 1000"
   id="svg10"
   sodipodi:docname="ത്മ.svg"
   inkscape:version="1.1.1 (3bf5ae0d25, 2021-09-20)"
   xmlns:inkscape="http://www.inkscape.org/namespaces/inkscape"
   xmlns:sodipodi="http://sodipodi.sourceforge.net/DTD/sodipodi-0.dtd"
   xmlns="http://www.w3.org/2000/svg"
   xmlns:svg="http://www.w3.org/2000/svg"
   xmlns:rdf="http://www.w3.org/1999/02/22-rdf-syntax-ns#"
   xmlns:cc="http://creativecommons.org/ns#"
   xmlns:dc="http://purl.org/dc/elements/1.1/"><metadata
   id="metadata14"><rdf:RDF><cc:Work
       rdf:about=""><dc:format>image/svg+xml</dc:format><dc:type
         rdf:resource="http://purl.org/dc/dcmitype/StillImage" /><dc:title /></cc:Work></rdf:RDF></metadata><sodipodi:namedview
   pagecolor="#ffffff"
   bordercolor="#666666"
   borderopacity="1"
   objecttolerance="10"
   gridtolerance="10"
   guidetolerance="10"
   inkscape:pageopacity="0"
   inkscape:pageshadow="2"
   inkscape:window-width="1920"
   inkscape:window-height="1009"
   id="namedview12"
   showgrid="false"
   inkscape:zoom="0.84890884"
   inkscape:cx="611.96206"
   inkscape:cy="798.67233"
   inkscape:window-x="0"
   inkscape:window-y="60"
   inkscape:window-maximized="1"
   inkscape:current-layer="svg10"
   showguides="true"
   inkscape:guide-bbox="true"
   inkscape:document-rotation="0"
   inkscape:pagecheckerboard="0"><sodipodi:guide
   position="0,1000"
   orientation="0,1"
   id="guide16"
   inkscape:label=""
   inkscape:locked="true"
   inkscape:color="rgb(0,0,255)" /><sodipodi:guide
   position="1763.3122,2036.1693"
   orientation="1000,0"
   id="guide18" /><sodipodi:guide
   position="0,200"
   orientation="0,1"
   id="guide20"
   inkscape:label="base"
   inkscape:locked="true"
   inkscape:color="rgb(0,0,255)" /><inkscape:grid
   type="xygrid"
   id="grid24"
   originx="-473.37552"
   originy="-489.69235" /><sodipodi:guide
   position="0,0"
   orientation="0,1"
   id="guide34"
   inkscape:label="bottom"
   inkscape:locked="true"
   inkscape:color="rgb(0,0,255)" /><sodipodi:guide
   position="225.05109,1693.3186"
   orientation="0,1"
   id="guide44"
   inkscape:label=""
   inkscape:locked="false"
   inkscape:color="rgb(0,0,255)" /><sodipodi:guide
   position="0,900"
   orientation="0,1"
   id="guide46"
   inkscape:label=""
   inkscape:locked="true"
   inkscape:color="rgb(0,0,255)" /><sodipodi:guide
   position="1005.5331,369.00184"
   orientation="1,0"
   id="guide841"
   inkscape:label="width" />    </sodipodi:namedview>
 <defs
   id="defs4"><inkscape:path-effect
   effect="fillet_chamfer"
   id="path-effect852"
   is_visible="true"
   lpeversion="1"
   satellites_param="F,0,0,1,0,0,0,1 @ F,0,0,1,0,0,0,1 @ F,0,0,1,0,0,0,1 @ F,0,0,1,0,0,0,1 @ F,0,0,1,0,0,0,1 @ F,0,0,1,0,0,0,1 @ F,0,0,1,0,0,0,1 @ F,0,0,1,0,0,0,1 @ F,0,0,1,0,0,0,1 @ F,0,0,1,0,0,0,1 @ F,0,0,1,0,0,0,1 @ F,0,0,1,0,0,0,1 @ F,0,0,1,0,0,0,1 @ F,0,0,1,0,0,0,1 @ F,0,0,1,0,0,0,1 @ F,0,0,1,0,0,0,1 @ F,0,0,1,0,0,0,1 @ F,0,0,1,0,0,0,1 @ F,0,0,1,0,0,0,1 @ F,0,0,1,0,0,0,1 @ F,0,0,1,0,0,0,1 @ F,0,0,1,0,0,0,1 @ F,0,0,1,0,0,0,1 @ F,0,0,1,0,0,0,1 @ F,0,1,1,0,21.969415,0,1 @ F,0,1,1,0,21.969415,0,1 @ F,0,0,1,0,0,0,1 @ F,0,0,1,0,0,0,1 @ F,0,0,1,0,0,0,1 @ F,0,0,1,0,0,0,1 @ F,0,0,1,0,0,0,1 @ F,0,0,1,0,0,0,1 @ F,0,0,1,0,0,0,1 @ F,0,0,1,0,0,0,1 @ F,0,0,1,0,0,0,1 @ F,0,0,1,0,0,0,1 @ F,0,0,1,0,0,0,1 @ F,0,0,1,0,0,0,1 @ F,0,0,1,0,0,0,1 @ F,0,0,1,0,0,0,1 @ F,0,0,1,0,0,0,1 @ F,0,0,1,0,0,0,1 @ F,0,0,1,0,0,0,1 @ F,0,0,1,0,0,0,1 @ F,0,0,1,0,0,0,1 @ F,0,0,1,0,0,0,1 @ F,0,0,1,0,0,0,1 @ F,0,0,1,0,0,0,1 @ F,0,0,1,0,0,0,1 @ F,0,0,1,0,0,0,1 @ F,0,0,1,0,0,0,1 @ F,0,0,1,0,0,0,1 @ F,0,0,1,0,0,0,1 @ F,0,0,1,0,0,0,1 @ F,0,0,1,0,0,0,1 @ F,0,0,1,0,0,0,1 @ F,0,0,1,0,0,0,1 @ F,0,0,1,0,0,0,1 @ F,0,0,1,0,0,0,1 @ F,0,0,1,0,0,0,1 @ F,0,0,1,0,0,0,1 @ F,0,0,1,0,0,0,1 @ F,0,0,1,0,0,0,1 @ F,0,0,1,0,0,0,1 @ F,0,1,1,0,21.969415,0,1 @ F,0,0,1,0,0,0,1 @ F,0,1,1,0,21.969415,0,1 @ F,0,0,1,0,0,0,1 @ F,0,1,1,0,21.969415,0,1 @ F,0,1,1,0,21.969415,0,1 @ F,0,0,1,0,0,0,1 @ F,0,0,1,0,0,0,1 @ F,0,0,1,0,0,0,1 @ F,0,0,1,0,0,0,1 @ F,0,0,1,0,0,0,1 @ F,0,0,1,0,0,0,1 @ F,0,0,1,0,0,0,1 @ F,0,0,1,0,0,0,1 @ F,0,0,1,0,0,0,1 @ F,0,0,1,0,0,0,1 @ F,0,1,1,0,21.969415,0,1 @ F,0,0,1,0,21.969415,0,1 @ F,0,0,1,0,0,0,1"
   unit="px"
   method="auto"
   mode="F"
   radius="0"
   chamfer_steps="1"
   flexible="false"
   use_knot_distance="true"
   apply_no_radius="true"
   apply_with_radius="true"
   only_selected="false"
   hide_knots="false" /><inkscape:path-effect
   effect="fillet_chamfer"
   id="path-effect850"
   is_visible="true"
   lpeversion="1"
   satellites_param="F,0,0,1,0,0,0,1 @ F,0,0,1,0,0,0,1 @ F,0,0,1,0,0,0,1 @ F,0,0,1,0,0,0,1 @ F,0,0,1,0,0,0,1 @ F,0,0,1,0,0,0,1 @ F,0,0,1,0,0,0,1 @ F,0,0,1,0,0,0,1 @ F,0,0,1,0,0,0,1 @ F,0,0,1,0,0,0,1 @ F,0,0,1,0,0,0,1 @ F,0,0,1,0,0,0,1 @ F,0,0,1,0,0,0,1 @ F,0,0,1,0,0,0,1 @ F,0,0,1,0,0,0,1 @ F,0,0,1,0,0,0,1 @ F,0,0,1,0,0,0,1 @ F,0,0,1,0,0,0,1 @ F,0,0,1,0,0,0,1 @ F,0,0,1,0,0,0,1 @ F,0,0,1,0,0,0,1 @ F,0,0,1,0,0,0,1 @ F,0,0,1,0,0,0,1 @ F,0,0,1,0,0,0,1 @ F,0,1,1,0,28.284205,0,1 @ F,0,1,1,0,28.284205,0,1 @ F,0,0,1,0,0,0,1 @ F,0,0,1,0,0,0,1 @ F,0,0,1,0,0,0,1 @ F,0,0,1,0,0,0,1 @ F,0,0,1,0,0,0,1 @ F,0,0,1,0,0,0,1 @ F,0,0,1,0,0,0,1 @ F,0,0,1,0,0,0,1 @ F,0,0,1,0,0,0,1 @ F,0,0,1,0,0,0,1 @ F,0,0,1,0,0,0,1 @ F,0,0,1,0,0,0,1 @ F,0,0,1,0,0,0,1 @ F,0,0,1,0,0,0,1 @ F,0,0,1,0,0,0,1 @ F,0,0,1,0,0,0,1 @ F,0,0,1,0,0,0,1 @ F,0,0,1,0,0,0,1 @ F,0,0,1,0,0,0,1 @ F,0,0,1,0,0,0,1 @ F,0,0,1,0,0,0,1 @ F,0,0,1,0,0,0,1 @ F,0,0,1,0,0,0,1 @ F,0,0,1,0,0,0,1 @ F,0,0,1,0,0,0,1 @ F,0,0,1,0,0,0,1 @ F,0,0,1,0,0,0,1 @ F,0,0,1,0,0,0,1 @ F,0,0,1,0,0,0,1 @ F,0,0,1,0,0,0,1 @ F,0,0,1,0,0,0,1 @ F,0,0,1,0,0,0,1 @ F,0,1,1,0,28.284205,0,1 @ F,0,0,1,0,0,0,1 @ F,0,1,1,0,28.284205,0,1 @ F,0,0,1,0,0,0,1 @ F,0,1,1,0,28.284205,0,1 @ F,0,1,1,0,28.284205,0,1 @ F,0,0,1,0,0,0,1 @ F,0,0,1,0,0,0,1 @ F,0,0,1,0,0,0,1 @ F,0,0,1,0,0,0,1 @ F,0,0,1,0,0,0,1 @ F,0,0,1,0,0,0,1 @ F,0,0,1,0,0,0,1 @ F,0,0,1,0,0,0,1 @ F,0,0,1,0,0,0,1 @ F,0,0,1,0,0,0,1 @ F,0,0,1,0,0,0,1 @ F,0,1,1,0,28.284205,0,1 @ F,0,1,1,0,28.284205,0,1 @ F,0,0,1,0,0,0,1"
   unit="px"
   method="auto"
   mode="F"
   radius="0"
   chamfer_steps="1"
   flexible="false"
   use_knot_distance="true"
   apply_no_radius="true"
   apply_with_radius="true"
   only_selected="true"
   hide_knots="false" /><inkscape:path-effect
   effect="spiro"
   id="path-effect851"
   is_visible="true"
   lpeversion="1" />
  <style
   type="text/css"
   id="style2">
   <![CDATA[
    .fil0 {fill:#EF7F1A;fill-rule:nonzero}
   ]]>
  </style>
 <inkscape:path-effect
   effect="spiro"
   id="path-effect1214"
   is_visible="true"
   lpeversion="1" /><inkscape:path-effect
   effect="spiro"
   id="path-effect1195"
   is_visible="true"
   lpeversion="1" /><inkscape:path-effect
   effect="spiro"
   id="path-effect992"
   is_visible="true"
   lpeversion="1" /><inkscape:path-effect
   effect="spiro"
   id="path-effect1060"
   is_visible="true"
   lpeversion="1" /><inkscape:path-effect
   effect="spiro"
   id="path-effect1047"
   is_visible="true"
   lpeversion="1" /><inkscape:path-effect
   effect="spiro"
   id="path-effect1085"
   is_visible="true"
   lpeversion="1" /><inkscape:path-effect
   effect="spiro"
   id="path-effect1286"
   is_visible="true"
   lpeversion="1" /><inkscape:path-effect
   effect="spiro"
   id="path-effect1305"
   is_visible="true"
   lpeversion="1" /><style
   type="text/css"
   id="style2-8">
   <![CDATA[
    .fil0 {fill:#EF7F1A;fill-rule:nonzero}
   ]]>
  </style></defs>
 
<path
   id="path1210-6"
   style="display:inline;fill:#26a269;fill-rule:nonzero;stroke:none;stroke-width:2.22142px;stroke-linecap:butt;stroke-linejoin:miter;stroke-opacity:1"
   d="m 510.40972,324.23028 c -2.27305,-14.97484 -5.63847,-29.86413 -11.39362,-43.87451 -5.75515,-14.01038 -13.97991,-27.15841 -25.07713,-37.46686 -18.46045,-17.14831 -44.66928,-25.51815 -69.68885,-22.53923 -17.95199,2.13743 -34.93802,9.77651 -49.83819,20.01503 -14.90017,10.23851 -27.86643,23.03233 -40.10377,36.33984 -35.14303,38.21636 -65.22121,81.77543 -83.32076,130.4368 -11.61099,31.21662 -18.17687,64.25856 -19.94386,97.51769 -1.10925,20.87881 -0.20734,42.46557 8.25757,61.58364 4.23245,9.55904 10.3584,18.36151 18.34598,25.10594 7.98758,6.74443 17.8831,11.36297 28.28155,12.44045 9.76403,1.01175 19.74781,-1.11736 28.53231,-5.49828 8.78449,-4.38093 16.39061,-10.95517 22.4855,-18.65011 12.18979,-15.38988 18.19686,-34.79778 21.6344,-54.1271 7.10906,-39.97427 4.12875,-81.77976 -9.17604,-120.13942 -13.57834,-39.14835 -37.3822,-73.91013 -62.96796,-106.50358 -15.13453,-19.27973 -31.35176,-38.31226 -52.12108,-51.32754 -10.38466,-6.50764 -21.84984,-11.42352 -33.89803,-13.66671 -12.04818,-2.24318 -24.69477,-1.7511 -36.30077,2.18479 -10.37674,3.51902 -19.75627,9.72842 -27.48625,17.49423 -7.72997,7.76581 -13.84076,17.06169 -18.464314,26.99562 -9.247109,19.86786 -12.521437,41.96643 -14.283856,63.80985 -4.501914,55.79671 0.186731,111.98591 8.451242,167.3505 10.908458,73.07656 28.218388,145.70149 58.741738,212.98822 12.6019,27.78005 27.41879,54.55463 44.25787,79.99041 6.69742,10.11659 2.64136,18.32403 -9.48836,18.62171 l -134.599855,3.3032 C 39.115465,826.91254 31.369651,817.53877 33.522838,805.59849 39.552432,772.162 43.127829,738.2829 44.204943,704.3241 48.198578,578.41445 18.008776,454.2063 5.101344,328.89633 1.9838051,298.63015 -0.12433742,268.06512 3.1012509,237.81026 6.3551735,207.28964 15.252094,176.9708 32.179869,151.36715 47.077999,128.83338 68.69766,110.0134 94.560723,102.21424 c 27.770857,-8.374463 58.015927,-3.516019 85.274087,6.40087 63.02031,22.92765 114.35211,71.974 148.93264,129.43202 34.58052,57.45801 53.59594,123.05015 65.40369,189.06389 7.08561,39.61362 11.71234,80.0192 7.99063,120.08906 -3.72171,40.06986 -16.22972,80.02295 -40.67593,111.98899 -10.50855,13.74105 -23.18771,25.92974 -37.89396,35.03866 -14.70625,9.10891 -31.48124,15.07733 -48.73629,16.30594 -15.99685,1.13902 -32.21028,-1.81697 -46.9812,-8.0633 -14.77091,-6.24633 -28.10216,-15.74127 -39.2091,-27.30986 -22.21389,-23.13718 -35.16794,-54.15182 -39.96465,-85.86582 -5.65348,-37.37864 -0.55621,-75.50449 5.98385,-112.73824 7.8862,-44.8976 17.90977,-89.55394 33.24589,-132.48167 28.54429,-79.89906 76.90221,-154.47987 146.07663,-203.60763 15.02324,-10.66952 31.02404,-20.13266 48.26631,-26.63194 17.24227,-6.49928 35.79903,-9.97389 54.16842,-8.524 27.94025,2.20531 54.32172,15.88195 74.38126,35.45581 19.65372,19.17787 33.51689,43.71547 42.8355,69.54612 9.31862,25.83066 14.27922,53.0272 17.91132,80.24608 3.08169,23.09407 5.23566,46.31193 6.45497,69.57878 l -38.9507,-6.56526 c 4.0162,-19.37451 8.56366,-38.6389 13.63555,-57.76421 10.92036,-41.17899 24.53963,-82.27372 48.01412,-117.82526 23.47449,-35.55154 57.91095,-65.39064 99.18618,-75.94143 27.44971,-7.016705 56.82769,-5.197678 83.82938,3.38309 27.00168,8.58077 51.67531,23.74565 72.8454,42.5751 37.3987,33.26377 63.94299,77.92727 78.34316,125.86239 17.47209,58.1609 17.28443,121.50789 -0.57518,179.55096 C 909.87506,532.9648 853.8396,599.7569 788.73396,651.61091 721.8091,704.91386 644.10808,744.62852 561.70568,767.64994 l -2.25971,-40.65593 337.62263,-13.43774 c -0.14653,-52.01967 -7.9782,-104.0113 -23.16224,-153.76582 -7.47712,-24.50076 -16.7271,-48.46029 -27.6537,-71.62932 l 129.68367,-2.22753 c 12.13158,-0.20838 18.37173,8.78755 14.62232,20.32556 -5.54081,17.05065 -9.96888,34.46296 -13.24265,52.0899 -13.69551,73.74073 -6.63653,151.18877 19.89011,221.32369 4.29179,11.34736 -1.45669,19.31146 -13.5368,18.17623 -103.07993,-9.68697 -206.7576,-13.01084 -310.24629,-9.94296 -58.35097,1.72979 -116.64173,5.4897 -174.73145,11.27002 -12.07371,1.20142 -21.58442,-7.56168 -21.25473,-19.69057 l 1.9909,-73.24305 c 0.32969,-12.12889 9.98504,-18.88864 21.90748,-16.6753 22.84071,4.24026 46.48125,4.19044 69.28846,-0.24041 27.38659,-5.3205 53.24971,-16.7716 77.61566,-30.3596 83.83842,-46.75361 153.23099,-121.85936 185.03495,-212.43137 15.22346,-43.35368 21.6456,-91.47532 7.51476,-135.19734 -7.06541,-21.86101 -19.28127,-42.22051 -36.23146,-57.72905 -16.9502,-15.50854 -38.72201,-25.98607 -61.59107,-28.18377 -17.90711,-1.72086 -36.16943,1.62044 -52.66211,8.80496 -16.49268,7.18452 -31.2339,18.14163 -43.50601,31.29538 -24.54423,26.30749 -38.87438,60.755 -46.88402,95.83133 -8.85618,38.78356 -10.52799,79.15054 -5.40923,118.60171 2.21338,17.05887 5.6875,33.95377 10.37916,50.50342 3.30873,11.67145 -3.15469,21.71166 -15.25016,22.66996 l -96.09561,7.6135 c -12.09547,0.9583 -17.73801,-7.18373 -13.18631,-18.42979 12.26539,-30.30457 21.37829,-61.88523 27.12744,-94.06867 7.30429,-40.88902 9.1635,-82.95119 2.93005,-124.0171 z"
   sodipodi:nodetypes="aaaaaaaaaaaaaaccaaaaaaaaacaaaasaccaaaaaacccaccacaccaaaaaaccaa"
   inkscape:original-d="m 510.40972,324.23028 c -5.87238,-29.1284 -14.34922,-61.50236 -36.47075,-81.34137 -18.17578,-16.30039 -45.46031,-25.54576 -69.68885,-22.53923 -35.11028,4.35685 -64.81596,31.44707 -89.94196,56.35487 -36.64018,36.32199 -63.94035,82.62269 -83.32076,130.4368 -12.46338,30.74887 -24.96634,64.7213 -19.94386,97.51769 5.71748,37.33472 17.39243,94.56159 54.8851,99.13003 35.33732,4.30582 60.91608,-44.66702 72.65221,-78.27549 13.24094,-37.91772 2.88802,-81.83102 -9.17604,-120.13942 -12.38808,-39.33728 -32.9501,-78.22259 -62.96796,-106.50358 -33.36063,-31.43034 -78.45765,-76.10995 -122.31988,-62.80946 -39.53034,11.98692 -50.875091,68.06616 -60.23442,108.2997 -12.655273,54.40201 -0.435428,112.20739 8.451242,167.3505 11.717468,72.70861 30.281408,145.06288 58.741738,212.98822 14.5947,34.83269 33.11487,79.06234 56.73231,98.07313 L 29.282383,827.15385 C 52.66368,795.27974 43.852019,745.56689 44.204943,704.3241 45.281573,578.50912 13.006284,454.46734 5.101344,328.89633 3.1933117,298.58699 -1.5126219,267.89662 3.1012509,237.81026 7.6728396,207.99964 14.011503,176.69453 32.179869,151.36715 47.143242,130.50766 68.24619,109.99318 94.560723,102.21424 c 27.082937,-8.006086 61.052477,-7.069926 85.274087,6.40087 117.6677,65.44058 185.69234,197.26846 214.33633,318.49591 18.02515,76.28638 13.29086,165.82562 -32.6853,232.07805 -18.26618,26.32183 -52.22679,54.99263 -86.63025,51.3446 -61.30481,-6.50064 -117.08592,-57.90829 -126.15495,-121.23898 -4.96717,-37.47677 0.35944,-75.45418 5.98385,-112.73824 6.76613,-44.85243 14.09619,-91.17485 33.24589,-132.48167 35.1322,-75.78185 79.05479,-153.75551 146.07663,-203.60763 28.96561,-21.54518 66.39369,-37.21627 102.43473,-35.15594 27.42175,1.5676 56.44391,14.65531 74.38126,35.45581 31.07519,36.0354 47.99739,97.44194 60.74682,149.7922 5.51159,22.63104 6.45497,69.57878 6.45497,69.57878 l -38.9507,-6.56526 c 0,0 5.19557,-39.8709 13.63555,-57.76421 34.60334,-73.36131 70.15181,-168.41312 147.2003,-193.76669 51.69839,-17.011866 113.33709,13.03446 156.67478,45.95819 39.35016,29.8944 64.83928,78.3255 78.34316,125.86239 16.35478,57.57272 18.16233,122.70904 -0.57518,179.55096 -25.66571,77.85922 -83.17235,145.08224 -145.61874,198.19753 -64.73748,55.06403 -227.02828,116.03903 -227.02828,116.03903 l -2.25971,-40.65593 337.62263,-13.43774 c 0,0 -9.88828,-103.66078 -23.16224,-153.76582 -6.55433,-24.74055 -27.6537,-71.62932 -27.6537,-71.62932 L 997.9025,485.5563 c 0,0 -18.57929,47.65684 -20.5865,72.79276 C 970.86055,639.18932 1005.5331,800 1005.5331,800 c 0,0 -221.34785,-13.88695 -332.11008,-12.09398 -65.67437,1.06311 -136.70642,12.52161 -196.58313,13.54075 l 3.1848,-117.16565 c 0,0 60.7322,9.82293 90.59899,5.04559 27.43197,-4.38788 54.90171,-14.36452 77.61566,-30.3596 76.77912,-54.06757 169.66496,-119.79175 185.03495,-212.43137 13.03072,-78.54015 -12.46938,-204.39071 -90.30777,-221.11016 -64.31166,-13.81395 -115.7359,76.09324 -143.05214,135.93167 -16.43455,36.0012 -9.13248,79.20224 -5.40923,118.60171 2.3031,24.37142 17.02979,71.43822 17.02979,71.43822 L 471.63775,562.481 c 0,0 29.33309,-74.8598 35.84192,-114.23362 6.74408,-40.7969 11.10203,-83.48207 2.93005,-124.0171 z"
   inkscape:path-effect="#path-effect1305;#path-effect852" /><g
   style="clip-rule:evenodd;fill-rule:evenodd;image-rendering:optimizeQuality;shape-rendering:geometricPrecision;text-rendering:geometricPrecision"
   id="g867"
   transform="translate(-386.82594,-132.27717)" /><text
   text-anchor="middle"
   x="918.74945"
   y="786.73456"
   id="bottom"
   inkscape:label="bottom"
   style="clip-rule:evenodd;fill-rule:evenodd;image-rendering:optimizeQuality;shape-rendering:geometricPrecision;text-rendering:geometricPrecision">✛</text></svg>
