<?xml version="1.0" encoding="UTF-8" standalone="no"?>
<svg
   xmlns:dc="http://purl.org/dc/elements/1.1/"
   xmlns:cc="http://creativecommons.org/ns#"
   xmlns:rdf="http://www.w3.org/1999/02/22-rdf-syntax-ns#"
   xmlns:svg="http://www.w3.org/2000/svg"
   xmlns="http://www.w3.org/2000/svg"
   xmlns:sodipodi="http://sodipodi.sourceforge.net/DTD/sodipodi-0.dtd"
   xmlns:inkscape="http://www.inkscape.org/namespaces/inkscape"
   xml:space="preserve"
   width="1000"
   height="1000"
   version="1.1"
   style="clip-rule:evenodd;fill-rule:evenodd;image-rendering:optimizeQuality;shape-rendering:geometricPrecision;text-rendering:geometricPrecision"
   viewBox="0 0 1000 1000"
   id="svg10"
   sodipodi:docname="ത്തു.svg"
   inkscape:version="1.0.1 (3bc2e813f5, 2020-09-07)"><metadata
   id="metadata14"><rdf:RDF><cc:Work
       rdf:about=""><dc:format>image/svg+xml</dc:format><dc:type
         rdf:resource="http://purl.org/dc/dcmitype/StillImage" /><dc:title /></cc:Work></rdf:RDF></metadata><sodipodi:namedview
   pagecolor="#ffffff"
   bordercolor="#666666"
   borderopacity="1"
   objecttolerance="10"
   gridtolerance="10"
   guidetolerance="10"
   inkscape:pageopacity="0"
   inkscape:pageshadow="2"
   inkscape:window-width="1920"
   inkscape:window-height="1015"
   id="namedview12"
   showgrid="false"
   inkscape:zoom="0.6002692"
   inkscape:cx="525.08761"
   inkscape:cy="601.43824"
   inkscape:window-x="1920"
   inkscape:window-y="0"
   inkscape:window-maximized="1"
   inkscape:current-layer="svg10"
   showguides="true"
   inkscape:guide-bbox="true"
   inkscape:document-rotation="0"><sodipodi:guide
     position="0,1000"
     orientation="0,1"
     id="guide16"
     inkscape:label=""
     inkscape:locked="true"
     inkscape:color="rgb(0,0,255)" /><sodipodi:guide
     position="1763.3122,2036.1693"
     orientation="1000,0"
     id="guide18" /><sodipodi:guide
     position="0,200"
     orientation="0,1"
     id="guide20"
     inkscape:label="base"
     inkscape:locked="true"
     inkscape:color="rgb(0,0,255)" /><inkscape:grid
     type="xygrid"
     id="grid24"
     originx="-473.37552"
     originy="-489.69235" /><sodipodi:guide
     position="0,0"
     orientation="0,1"
     id="guide34"
     inkscape:label="bottom"
     inkscape:locked="true"
     inkscape:color="rgb(0,0,255)" /><sodipodi:guide
     position="225.05109,1693.3186"
     orientation="0,1"
     id="guide44"
     inkscape:label=""
     inkscape:locked="false"
     inkscape:color="rgb(0,0,255)" /><sodipodi:guide
     position="0,900"
     orientation="0,1"
     id="guide46"
     inkscape:label=""
     inkscape:locked="true"
     inkscape:color="rgb(0,0,255)" /><sodipodi:guide
     position="1148.646,834.89194"
     orientation="-1,0"
     id="guide867"
     inkscape:label="width"
     inkscape:locked="false"
     inkscape:color="rgb(0,0,255)" /></sodipodi:namedview>
 <defs
   id="defs4"><inkscape:path-effect
   effect="spiro"
   id="path-effect865"
   is_visible="true"
   lpeversion="1" /><inkscape:path-effect
   effect="spiro"
   id="path-effect851"
   is_visible="true"
   lpeversion="1" />
  <style
   type="text/css"
   id="style2">
   <![CDATA[
    .fil0 {fill:#EF7F1A;fill-rule:nonzero}
   ]]>
  </style>
 <inkscape:path-effect
   effect="spiro"
   id="path-effect1214"
   is_visible="true"
   lpeversion="1" /><inkscape:path-effect
   effect="spiro"
   id="path-effect1195"
   is_visible="true"
   lpeversion="1" /><inkscape:path-effect
   effect="spiro"
   id="path-effect992"
   is_visible="true"
   lpeversion="1" /><inkscape:path-effect
   effect="spiro"
   id="path-effect1060"
   is_visible="true"
   lpeversion="1" /><inkscape:path-effect
   effect="spiro"
   id="path-effect1047"
   is_visible="true"
   lpeversion="1" /><inkscape:path-effect
   effect="spiro"
   id="path-effect1085"
   is_visible="true"
   lpeversion="1" /><inkscape:path-effect
   effect="spiro"
   id="path-effect1286"
   is_visible="true"
   lpeversion="1" /><inkscape:path-effect
   effect="spiro"
   id="path-effect1305"
   is_visible="true"
   lpeversion="1" /></defs>
 
<path
   id="path1210-6"
   style="display:inline;fill:#1a1a1a;fill-rule:nonzero;stroke:none;stroke-width:2.22142px;stroke-linecap:butt;stroke-linejoin:miter;stroke-opacity:1"
   d="m 473.14772,621.67535 c 14.64752,-33.0091 25.34327,-67.76966 31.78621,-103.3033 6.92179,-38.17457 8.90942,-77.56595 2.05364,-115.75243 -5.34913,-29.79447 -15.98143,-58.40522 -28.32927,-86.04314 -7.41199,-16.59011 -15.57535,-33.07651 -27.23296,-47.01456 -11.65761,-13.93806 -27.20943,-25.26942 -45.02352,-28.85093 -17.61863,-3.54221 -36.16619,0.77123 -52.07473,9.13077 -15.90854,8.35953 -29.47914,20.54291 -42.01893,33.41602 -36.26882,37.2329 -65.49458,81.61116 -83.32076,130.4368 -11.42044,31.2804 -18.13753,64.26672 -19.94386,97.51769 -1.1339,20.87279 -0.20902,42.45626 8.26882,61.56347 4.23892,9.55361 10.36817,18.34941 18.35275,25.09375 7.98459,6.74435 17.87005,11.37035 28.26353,12.47281 9.77439,1.03679 19.7773,-1.06218 28.58674,-5.42191 8.80945,-4.35972 16.44528,-10.92221 22.5595,-18.61831 12.22845,-15.39218 18.22684,-34.85225 21.50597,-54.23527 6.76165,-39.96824 2.91312,-81.44792 -9.17604,-120.13942 -12.41768,-39.74291 -33.65366,-76.93384 -62.96796,-106.50358 -13.90203,-14.02317 -29.78834,-26.43596 -48.01935,-34.02186 -18.23102,-7.5859 -39.00766,-10.06465 -57.9123,-4.3611 -20.60239,6.21577 -37.56745,21.7203 -48.7322,40.11711 -11.164743,18.39681 -17.003608,39.56193 -20.53266,60.79021 -8.244299,49.59187 -4.514511,100.35766 1.09345,150.31638 10.30521,91.80436 27.64988,185.05968 73.99772,264.97286 12.73838,21.96358 27.56858,42.71332 44.22452,61.87696 L -4.1457778,847.91882 C 10.79711,810.62693 21.408385,771.60142 27.406586,731.87742 47.239495,600.53096 16.473761,467.61013 3.101344,335.44956 0.03846561,305.17891 -2.1094944,274.61881 1.101251,244.36349 c 3.2391445,-30.52293 12.147226,-60.84098 29.078618,-86.44311 14.900822,-22.53169 36.518303,-41.3529 62.380851,-49.15291 27.77063,-8.37547 58.01594,-3.51626 85.27409,6.40087 63.02045,22.92825 114.3539,71.97284 148.93574,129.43047 34.58183,57.45762 53.59769,123.05049 65.40059,189.06544 7.0825,39.6132 11.70433,80.01817 7.98112,120.08693 -3.7232,40.06875 -16.22858,80.01989 -40.66642,111.99112 -10.50589,13.74451 -23.18224,25.93817 -37.88858,35.04908 -14.70634,9.11091 -31.48471,15.07798 -48.74167,16.29552 -15.99076,1.12821 -32.19496,-1.84278 -46.95353,-8.10071 -14.75858,-6.25794 -28.07477,-15.76075 -39.17119,-27.32996 -22.19286,-23.13843 -35.14703,-54.12134 -40.03023,-85.80831 -5.7595,-37.37325 -0.86533,-75.54925 5.98385,-112.73824 8.25226,-44.80732 19.34274,-89.0939 33.24589,-132.48167 13.11874,-40.93983 28.90515,-81.40277 52.30762,-117.46515 23.40247,-36.06238 54.92599,-67.71993 93.76901,-86.14248 29.78199,-14.12506 64.12094,-20.07763 96.20731,-12.53116 28.14112,6.61858 53.14274,23.15034 74.14825,43.01228 18.54219,17.53272 34.44182,37.85521 46.9978,60.07134 8.75299,-17.67801 19.98523,-34.12626 33.26521,-48.71286 25.69831,-28.22677 59.80055,-49.55986 97.37209,-56.30765 33.61565,-6.03732 68.9212,-0.16871 99.77937,14.46805 38.84228,18.42382 70.36538,50.08123 93.76802,86.14334 23.40264,36.06212 39.18967,76.52466 52.30861,117.46429 13.90341,43.38769 24.99363,87.67435 33.24593,132.48167 6.84921,37.18899 11.74362,75.36503 5.9838,112.73824 -4.88344,31.68672 -17.83808,62.66918 -40.03094,85.8073 -11.09643,11.56906 -24.41251,21.07179 -39.17092,27.32985 -14.75841,6.25805 -30.96238,9.22938 -46.95308,8.10183 -17.25719,-1.21686 -34.0361,-7.18309 -48.74275,-16.29385 -14.70665,-9.11076 -27.38302,-21.30494 -37.8875,-35.05075 -24.43322,-31.97249 -36.92655,-71.92579 -40.64473,-111.99319 -3.71818,-40.06741 0.90105,-80.46919 7.95943,-120.08486 11.76734,-66.04501 30.69569,-131.69105 65.25762,-189.18789 34.56192,-57.49684 85.96678,-106.56383 149.07871,-129.30802 27.27284,-9.82855 57.45988,-14.57273 85.27406,-6.40087 25.9648,7.6285 47.9969,26.22989 62.3809,49.15291 16.2523,25.90042 23.0714,56.46176 29.0786,86.44311 12.8654,64.21034 23.2741,129.08007 26.3396,194.49482 2.975,63.48434 -1.0947,127.82362 -18.7898,188.86456 -17.6951,61.04093 -49.5941,118.8145 -96.6106,161.5762 -60.61257,55.12741 -141.65556,81.87715 -221.74184,99.17175 -37.19259,8.03172 -74.75475,14.35188 -112.52781,18.93376 56.09636,13.07278 114.01959,18.28096 171.5482,15.42478 50.53271,-2.50885 100.7989,-11.24207 149.00325,-26.61053 49.8005,-15.87736 97.3391,-38.83156 140.7422,-67.95804 l 18.4947,164.30714 c -42.4086,20.38067 -88.6361,32.78057 -135.5515,36.35967 -69.77425,5.323 -139.3962,-8.6748 -208.13159,-21.7984 -68.73539,-13.12351 -138.90148,-25.48754 -208.34984,-16.90228 -39.59025,4.89418 -78.32663,16.62188 -113.98315,34.50908 l 0.82765,-166.08726 c 23.34608,-15.83516 48.92364,-28.37525 75.73946,-37.13333 56.57916,-18.47882 117.05059,-19.82732 176.38214,-24.56401 59.33154,-4.73669 120.38917,-13.71363 170.99043,-45.05339 36.76154,-22.76817 66.13058,-56.50836 86.5707,-94.61351 20.4401,-38.10514 32.2057,-80.48163 37.6827,-123.37455 6.6573,-52.13617 4.1403,-105.54229 -8.5896,-156.53689 -5.9875,-23.98535 -14.38,-47.74263 -28.5871,-67.97394 -14.20707,-20.2313 -34.78009,-36.77265 -58.8622,-42.35827 -19.08783,-4.42724 -39.42986,-1.75503 -57.60077,5.57736 -18.17091,7.33239 -34.28893,19.13918 -48.33083,32.8056 -29.86624,29.06763 -50.71452,66.66926 -62.96796,106.50358 -11.91626,38.73818 -15.94208,80.17864 -9.17604,120.13942 3.27933,19.368 9.31717,38.79956 21.55211,54.1677 6.11747,7.68407 13.74802,14.23741 22.54579,18.60404 8.79777,4.36664 18.78214,6.49011 28.55431,5.50375 10.42593,-1.05235 20.36546,-5.62554 28.41072,-12.33978 8.04526,-6.71425 14.2393,-15.50297 18.51516,-25.0698 8.55171,-19.13368 9.42942,-40.81428 7.95922,-61.72045 -2.3326,-33.1694 -10.19739,-65.72687 -19.94386,-97.51769 -7.73305,-25.22348 -16.74126,-50.2379 -29.96675,-73.06575 -13.22548,-22.82784 -30.90847,-43.50665 -53.35401,-57.37105 -27.74221,-17.13611 -62.12441,-22.96893 -94.09366,-16.54679 -17.82612,3.581 -34.96352,10.87798 -49.53976,21.74662 -18.99423,14.16288 -33.25621,34.09466 -42.67114,55.83694 -9.41493,21.74229 -14.1618,45.28211 -16.25149,68.88298 -4.74893,53.6342 4.13807,108.31345 24.78023,158.04353 5.59981,13.49078 12.04986,26.62857 19.29918,39.30951 z"
   sodipodi:nodetypes="caaaaaaaaaaaaaaaccaaaaaaaaacaaaaacaaaaacaaaaaaaaaacaaccaaccaaaaaaaaaaaaaaaacc"
   inkscape:original-d="m 473.14772,621.67535 c 10.36705,-33.93407 26.11316,-67.72509 31.78621,-103.3033 6.07656,-38.10879 7.82672,-77.59648 2.05364,-115.75243 -4.51725,-29.8558 -12.81622,-60.13716 -28.32927,-86.04314 -17.94178,-29.96184 -37.97882,-69.18258 -72.25648,-75.86549 -33.78584,-6.58703 -68.06814,20.01805 -94.09366,42.54679 -39.00773,33.76665 -63.94035,82.62269 -83.32076,130.4368 -12.46338,30.74886 -24.96634,64.7213 -19.94386,97.51769 5.71749,37.33472 17.39243,94.56159 54.8851,99.13003 35.33732,4.30582 60.91607,-44.66702 72.65221,-78.27549 13.24093,-37.91772 2.88802,-81.83101 -9.17604,-120.13942 C 315.01673,372.59011 296.18562,331.74684 264.43685,305.42381 235.5247,281.45263 194.26272,255.5548 158.5052,267.04085 c -38.84272,12.47708 -57.3199,61.89768 -69.26486,100.90732 -14.6706,47.911 -5.88872,100.69845 1.09345,150.31638 12.77854,90.80911 34.40469,182.25661 73.99772,264.97286 10.94576,22.86744 20.60708,42.86617 44.22452,61.87696 L -4.1457778,847.91882 C 19.235519,816.04471 23.319961,771.75342 27.406586,731.87742 40.903738,600.17648 8.6064653,467.7258 3.101344,335.44956 1.8385147,305.10648 -3.475287,274.38602 1.101251,244.36349 5.682556,214.30968 12.66527,182.76909 30.179869,157.92038 45.431484,136.28226 67.240656,116.49496 92.56072,108.76747 c 27.26324,-8.32054 60.63242,-7.92756 85.27409,6.40087 110.62463,64.32507 185.63441,193.78936 214.33633,318.49591 17.5223,76.13239 10.63915,167.0691 -32.6853,232.07805 -18.61555,27.9329 -53.28532,55.20479 -86.63025,51.3446 -57.93589,-6.70698 -117.08592,-57.90829 -126.15495,-121.23898 -4.96717,-37.47677 0.38066,-75.52541 5.98385,-112.73824 6.77907,-45.02231 14.09619,-91.17485 33.24589,-132.48167 35.1322,-75.78186 74.38945,-160.73445 146.07663,-203.60763 27.75505,-16.59917 64.49958,-18.8947 96.20731,-12.53116 28.01491,5.62241 52.59645,24.25151 74.14825,43.01228 19.17614,16.69277 46.9978,60.07134 46.9978,60.07134 0,0 18.85123,-35.33938 33.26521,-48.71286 27.4854,-25.5013 60.55434,-49.22126 97.37209,-56.30765 33.00189,-6.35194 71.062,-2.99004 99.77937,14.46805 71.37502,43.39087 110.94442,127.82578 146.07663,203.60763 19.1497,41.30682 26.46686,87.45935 33.24593,132.48167 5.60319,37.21283 10.951,75.26147 5.9838,112.73824 -9.069,63.33069 -68.21905,114.532 -126.15494,121.23898 -33.34493,3.86019 -68.0147,-23.4117 -86.63025,-51.3446 -43.32445,-65.00895 -50.2076,-155.94566 -32.6853,-232.07805 28.70192,-124.70655 103.7117,-254.17084 214.33633,-318.49591 24.64166,-14.32842 58.01086,-14.7214 85.27406,-6.40087 25.3201,7.72749 47.1293,27.51478 62.3809,49.15291 17.5146,24.84871 22.1611,56.8396 29.0786,86.44311 14.8866,63.70724 32.3341,129.34661 26.3396,194.49482 -11.2685,122.46685 -33.0038,259.1396 -115.4004,350.44076 -54.24772,60.11021 -144.23783,75.73713 -221.74184,99.17175 -36.40858,11.00874 -72.13007,14.44732 -112.52781,18.93376 2.1358,6.33767 114.18916,17.923 171.5482,15.42478 50.40581,-2.19538 101.00537,-11.0616 149.00325,-26.61053 49.5611,-16.05533 130.8074,-81.50146 140.7422,-67.95804 l 18.4947,164.30714 c 4.0616,-3.26934 -88.9381,32.40187 -135.5515,36.35967 -138.92533,11.7958 -277.76202,-52.712 -416.48143,-38.70068 -39.49656,3.98933 -35.46576,15.09158 -113.98315,34.50908 l 0.82765,-166.08726 c 28.07945,16.68378 49.11022,-28.10681 75.73946,-37.13333 111.84259,-37.91129 251.62115,-0.49652 347.37257,-69.6174 67.8146,-48.95388 105.0535,-136.58374 124.2534,-217.98806 11.9963,-50.8619 9.9423,-107.67576 -8.5896,-156.53689 -16.6421,-43.87853 -42.30303,-97.52206 -87.4493,-110.33221 -36.13067,-10.25199 -77.01947,14.41179 -105.9316,38.38296 -31.74876,26.32304 -50.57988,67.1663 -62.96796,106.50358 -12.06406,38.30841 -22.41697,82.2217 -9.17604,120.13942 11.73614,33.60847 37.31489,82.58131 72.65221,78.27549 37.49267,-4.56844 49.16761,-61.79531 54.8851,-99.13003 5.02248,-32.79639 -7.48048,-66.76883 -19.94386,-97.51769 -19.38041,-47.81411 -40.39914,-101.80947 -83.32076,-130.4368 -26.49365,-17.67041 -62.47603,-20.35235 -94.09366,-16.54679 -17.90501,2.15508 -36.61217,9.17239 -49.53976,21.74662 -32.95968,32.05875 -52.37384,79.20929 -58.92263,124.71992 -7.59499,52.78116 8.71852,107.19516 24.78023,158.04353 4.39674,13.91927 19.29918,39.30951 19.29918,39.30951 z"
   inkscape:path-effect="#path-effect1305" /></svg>
