<svg xmlns="http://www.w3.org/2000/svg" xmlns:dc="http://purl.org/dc/elements/1.1/" xmlns:ns1="http://sodipodi.sourceforge.net/DTD/sodipodi-0.dtd" xmlns:ns2="http://www.inkscape.org/namespaces/inkscape" xmlns:ns4="http://creativecommons.org/ns#" xmlns:rdf="http://www.w3.org/1999/02/22-rdf-syntax-ns#" xml:space="preserve" width="1000" height="1000" version="1.1" style="clip-rule:evenodd;fill-rule:evenodd;image-rendering:optimizeQuality;shape-rendering:geometricPrecision;text-rendering:geometricPrecision" viewBox="0 0 1000 1000" id="svg10" ns1:docname="ത്സൃ.svg" ns2:version="1.0.2 (e86c870879, 2021-01-15)"><metadata id="metadata14"><rdf:RDF><ns4:Work rdf:about=""><dc:format>image/svg+xml</dc:format><dc:type rdf:resource="http://purl.org/dc/dcmitype/StillImage" /><dc:title /></ns4:Work></rdf:RDF></metadata><ns1:namedview pagecolor="#ffffff" bordercolor="#666666" borderopacity="1" objecttolerance="10" gridtolerance="10" guidetolerance="10" ns2:pageopacity="0" ns2:pageshadow="2" ns2:window-width="1920" ns2:window-height="1007" id="namedview12" showgrid="false" ns2:zoom="0.6002692" ns2:cx="326.65242" ns2:cy="563.97401" ns2:window-x="1920" ns2:window-y="0" ns2:window-maximized="1" ns2:current-layer="g910" showguides="true" ns2:guide-bbox="true" ns2:document-rotation="0"><ns1:guide position="0,1000" orientation="0,1" id="guide16" ns2:label="" ns2:locked="true" ns2:color="rgb(0,0,255)" /><ns1:guide position="1763.3122,2036.1693" orientation="1000,0" id="guide18" /><ns1:guide position="0,200" orientation="0,1" id="guide20" ns2:label="base" ns2:locked="true" ns2:color="rgb(0,0,255)" /><ns2:grid type="xygrid" id="grid24" originx="-473.37552" originy="-489.69235" /><ns1:guide position="0,0" orientation="0,1" id="guide34" ns2:label="bottom" ns2:locked="true" ns2:color="rgb(0,0,255)" /><ns1:guide position="225.05109,1693.3186" orientation="0,1" id="guide44" ns2:label="" ns2:locked="false" ns2:color="rgb(0,0,255)" /><ns1:guide position="0,900" orientation="0,1" id="guide46" ns2:label="" ns2:locked="true" ns2:color="rgb(0,0,255)" /><ns1:guide position="1160.5828,174.31933" orientation="-1,0" id="guide841" ns2:label="width" ns2:locked="false" ns2:color="rgb(0,0,255)" /></ns1:namedview>
 <defs id="defs4"><ns2:path-effect effect="fillet_chamfer" id="path-effect850" is_visible="true" lpeversion="1" satellites_param="F,0,0,1,0,0,0,1 @ F,0,0,1,0,0,0,1 @ F,0,0,1,0,0,0,1 @ F,0,0,1,0,0,0,1 @ F,0,0,1,0,0,0,1 @ F,0,0,1,0,0,0,1 @ F,0,0,1,0,0,0,1 @ F,0,0,1,0,0,0,1 @ F,0,0,1,0,0,0,1 @ F,0,0,1,0,0,0,1 @ F,0,0,1,0,0,0,1 @ F,0,0,1,0,0,0,1 @ F,0,0,1,0,0,0,1 @ F,0,0,1,0,0,0,1 @ F,0,0,1,0,0,0,1 @ F,0,0,1,0,0,0,1 @ F,0,0,1,0,0,0,1 @ F,0,0,1,0,0,0,1 @ F,0,0,1,0,0,0,1 @ F,0,0,1,0,0,0,1 @ F,0,0,1,0,0,0,1 @ F,0,0,1,0,0,0,1 @ F,0,0,1,0,0,0,1 @ F,0,0,1,0,0,0,1 @ F,0,0,1,0,0,0,1 @ F,0,0,1,0,0,0,1 @ F,0,0,1,0,34.025308,0,1 @ F,0,0,1,0,34.025308,0,1 @ F,0,0,1,0,0,0,1 @ F,0,0,1,0,0,0,1 @ F,0,0,1,0,0,0,1 @ F,0,0,1,0,0,0,1 @ F,0,0,1,0,0,0,1 @ F,0,0,1,0,0,0,1 @ F,0,0,1,0,0,0,1 @ F,0,0,1,0,0,0,1 @ F,0,0,1,0,0,0,1 @ F,0,0,1,0,0,0,1 @ F,0,0,1,0,0,0,1 @ F,0,0,1,0,0,0,1 @ F,0,0,1,0,0,0,1 @ F,0,0,1,0,0,0,1 @ F,0,0,1,0,0,0,1 @ F,0,0,1,0,0,0,1 @ F,0,0,1,0,0,0,1 @ F,0,0,1,0,0,0,1 @ F,0,0,1,0,0,0,1 @ F,0,0,1,0,0,0,1 @ F,0,0,1,0,0,0,1 @ F,0,0,1,0,0,0,1 @ F,0,0,1,0,14.465743,0,1 @ F,0,0,1,0,14.465743,0,1 @ F,0,0,1,0,0,0,1 @ F,0,0,1,0,0,0,1 @ F,0,0,1,0,0,0,1 @ F,0,0,1,0,0,0,1 @ F,0,0,1,0,0,0,1 @ F,0,0,1,0,0,0,1 @ F,0,0,1,0,0,0,1 @ F,0,0,1,0,0,0,1 @ F,0,0,1,0,0,0,1 @ F,0,0,1,0,0,0,1 @ F,0,0,1,0,0,0,1 @ F,0,0,1,0,0,0,1 @ F,0,0,1,0,0,0,1 @ F,0,0,1,0,0,0,1 @ F,0,0,1,0,0,0,1 @ F,0,0,1,0,0,0,1 @ F,0,0,1,0,0,0,1 @ F,0,0,1,0,0,0,1 @ F,0,0,1,0,0,0,1 @ F,0,0,1,0,0,0,1 @ F,0,0,1,0,0,0,1 @ F,0,0,1,0,0,0,1 @ F,0,0,1,0,0,0,1 @ F,0,0,1,0,0,0,1 @ F,0,0,1,0,0,0,1 @ F,0,0,1,0,0,0,1 @ F,0,0,1,0,0,0,1 @ F,0,0,1,0,0,0,1 @ F,0,0,1,0,0,0,1 @ F,0,0,1,0,0,0,1 @ F,0,0,1,0,0,0,1 @ F,0,0,1,0,0,0,1 @ F,0,0,1,0,0,0,1 @ F,0,0,1,0,0,0,1 @ F,0,0,1,0,0,0,1 @ F,0,0,1,0,0,0,1 @ F,0,0,1,0,0,0,1 @ F,0,0,1,0,0,0,1 @ F,0,0,1,0,0,0,1 @ F,0,0,1,0,0,0,1 @ F,0,1,1,0,35.628546,0,1 @ F,0,1,1,0,35.628546,0,1 @ F,0,0,1,0,0,0,1 @ F,0,0,1,0,0,0,1 @ F,0,0,1,0,0,0,1 @ F,0,0,1,0,0,0,1 @ F,0,0,1,0,0,0,1 @ F,0,0,1,0,0,0,1 @ F,0,0,1,0,0,0,1 @ F,0,0,1,0,0,0,1 @ F,0,0,1,0,0,0,1 @ F,0,0,1,0,0,0,1 @ F,0,0,1,0,0,0,1 @ F,0,0,1,0,0,0,1 @ F,0,0,1,0,0,0,1 @ F,0,0,1,0,0,0,1" unit="px" method="auto" mode="F" radius="0" chamfer_steps="1" flexible="false" use_knot_distance="true" apply_no_radius="true" apply_with_radius="true" only_selected="true" hide_knots="false" /><ns2:path-effect effect="spiro" id="path-effect851" is_visible="true" lpeversion="1" />
  <style type="text/css" id="style2">
   
    .fil0 {fill:#EF7F1A;fill-rule:nonzero}
   
  </style>
 <ns2:path-effect effect="spiro" id="path-effect1214" is_visible="true" lpeversion="1" /><ns2:path-effect effect="spiro" id="path-effect1195" is_visible="true" lpeversion="1" /><ns2:path-effect effect="spiro" id="path-effect992" is_visible="true" lpeversion="1" /><ns2:path-effect effect="spiro" id="path-effect1060" is_visible="true" lpeversion="1" /><ns2:path-effect effect="spiro" id="path-effect1047" is_visible="true" lpeversion="1" /><ns2:path-effect effect="spiro" id="path-effect1085" is_visible="true" lpeversion="1" /><ns2:path-effect effect="spiro" id="path-effect1286" is_visible="true" lpeversion="1" /><ns2:path-effect effect="spiro" id="path-effect1305" is_visible="true" lpeversion="1" /><ns2:path-effect effect="spiro" id="path-effect1078" is_visible="true" lpeversion="1" /></defs>
 
<g style="clip-rule:evenodd;fill-rule:evenodd;image-rendering:optimizeQuality;shape-rendering:geometricPrecision;text-rendering:geometricPrecision" id="g910"><path style="display:inline;fill:#1a1a1a;fill-rule:nonzero;stroke:none;stroke-width:1.92017px;stroke-linecap:butt;stroke-linejoin:miter;stroke-opacity:1" d="m 988.82231,974.7492 c -21.77421,-18.38002 -45.16054,-34.84952 -69.80247,-49.15743 -22.88061,-13.28523 -46.99157,-24.76256 -72.53112,-31.67278 -25.53955,-6.91022 -52.6211,-9.13949 -78.5714,-3.98183 -17.8573,3.54917 -35.49903,10.90458 -48.07303,24.07176 -6.287,6.58359 -11.19309,14.55704 -13.76077,23.29071 -2.56769,8.73367 -2.73806,18.22946 -0.013,26.91533 2.49308,7.94657 7.34564,15.06281 13.47208,20.70463 6.12645,5.64183 13.49665,9.8449 21.29146,12.77823 15.58963,5.86668 32.57904,6.67718 49.23569,6.77718 34.00743,0.2041 68.3489,-2.3435 100.9094,-12.15986 32.56049,-9.81638 63.41323,-27.31763 85.26454,-53.37655 18.51875,-22.08466 30.04715,-49.94518 32.54795,-78.65794 2.5007,-28.71277 -4.0376,-58.14681 -18.45958,-83.10045 -26.72355,14.53182 -57.48717,21.53964 -87.86809,20.01596 -44.44751,-2.22915 -87.56475,-23.08386 -117.33212,-56.16639 -29.76737,-33.08254 -45.94337,-77.917 -44.72814,-122.40378 1.17075,-42.85831 17.72219,-83.99591 39.24854,-121.0745 21.52635,-37.07858 48.0918,-70.95189 71.75468,-106.70484 11.03028,-16.66598 21.53325,-33.96098 27.60564,-53.00168 6.07239,-19.04069 7.42224,-40.16723 0.22028,-58.81002 -7.63703,-19.76901 -24.83949,-35.43075 -45.03575,-41.85328 -13.26785,-4.21925 -27.63371,-4.61159 -41.27856,-1.84464 -13.64485,2.76695 -26.57637,8.63152 -38.087,16.46372 -23.02126,15.66441 -40.0317,38.75899 -53.63006,63.05789 -33.73608,60.283 -48.78353,131.63611 -37.8277,199.84266 3.49314,21.74689 9.57304,43.07433 18.03803,63.40792 7.21779,17.33769 -0.28084,30.1206 -19.06526,29.5993 l -76.18269,-2.11417 c -18.78442,-0.5213 -26.08359,-14.03355 -18.64914,-31.27893 15.3067,-35.50627 23.1931,-74.21931 22.79332,-112.88891 -0.57834,-55.94056 -18.40661,-111.21795 -48.33112,-158.48531 -7.99207,-12.62389 -16.88365,-24.7699 -27.57158,-35.2104 -10.68792,-10.4405 -23.25245,-19.16124 -37.31827,-24.19995 -20.23925,-7.25018 -42.73445,-6.53148 -63.50516,-0.9844 -33.78749,9.02338 -63.23173,30.15836 -88.1349,54.71133 -37.04622,36.52526 -65.69319,81.49004 -83.32076,130.4368 -11.2816,31.32579 -18.09316,64.27382 -19.94386,97.51769 -1.16217,20.87598 -0.24187,42.46775 8.242,61.57746 4.24193,9.55485 10.37666,18.3502 18.36652,25.09196 7.98986,6.74176 17.88021,11.36304 28.27658,12.46061 9.77396,1.03186 19.77481,-1.06995 28.58266,-5.43078 8.80785,-4.36082 16.44251,-10.9228 22.55655,-18.61783 12.22808,-15.39006 18.23007,-34.84642 21.513,-54.22688 6.77028,-39.96769 2.92727,-81.4514 -9.17604,-120.13942 -12.43113,-39.73592 -33.69169,-76.89993 -62.96796,-106.50358 -13.89252,-14.04788 -29.76299,-26.50202 -47.99856,-34.10525 -18.23557,-7.60322 -39.04348,-10.06802 -57.93309,-4.27771 -20.53977,6.29614 -37.36217,21.89372 -48.46,40.28834 -11.09784,18.39461 -16.96451,39.48192 -20.80486,60.61898 -9.003322,49.55375 -7.470119,100.68474 1.09345,150.31638 13.02038,75.46182 42.27909,147.91116 83.91382,212.18064 11.74878,18.136 24.47511,35.63863 38.10418,52.40753 5.03878,6.1996 2.78178,11.19958 -5.20675,11.30402 L 34.692327,810.58299 C 26.7038,810.68743 23.07244,804.95024 26.257081,797.62378 38.322338,769.86691 46.923962,740.60475 51.78018,710.73069 61.533321,650.73218 56.142102,589.26482 46.566965,529.23764 36.991828,469.21047 23.259677,409.82895 16.24015,349.44956 c -3.514595,-30.23125 -5.333618,-60.83431 -2.00009,-91.08607 3.361289,-30.50368 12.177241,-60.82834 29.07862,-86.44311 14.878463,-22.54895 36.513884,-41.36035 62.38085,-49.15291 27.77255,-8.36662 58.01534,-3.51252 85.27409,6.40087 63.02408,22.92044 114.35945,71.96697 148.93971,129.42642 34.58025,57.45944 53.5923,123.05404 65.39662,189.06949 7.08336,39.61355 11.70797,80.01875 7.98585,120.0881 -3.72212,40.06935 -16.22856,80.02173 -40.67115,111.98995 -10.5074,13.74253 -23.18541,25.93327 -37.89171,35.043 -14.7063,9.10973 -31.4827,15.07756 -48.73854,16.3016 -15.99435,1.13455 -32.20398,-1.82761 -46.96982,-8.07871 -14.76584,-6.2511 -28.0909,-15.74926 -39.19352,-27.3181 -22.20525,-23.13768 -35.15937,-54.13926 -39.99161,-85.84217 -5.69701,-37.37641 -0.68314,-75.52261 5.98385,-112.73824 8.03643,-44.85995 18.49678,-89.36017 33.24589,-132.48167 27.41893,-80.16384 70.92896,-156.6783 135.90948,-211.04346 17.52137,-14.65904 36.59494,-27.67438 57.53694,-36.80227 20.94199,-9.1279 43.84837,-14.28036 66.65658,-12.98761 27.0409,1.53266 53.18259,12.14876 75.00484,28.19085 21.82226,16.0421 39.46534,37.34073 53.14971,60.71374 21.57084,36.84316 33.56696,79.23793 34.49906,121.92108 2.16137,-20.26849 6.55026,-40.29866 13.06224,-59.61387 13.19148,-39.12731 35.40752,-75.51243 65.99689,-103.24781 30.58937,-27.73539 69.71546,-46.50238 110.81582,-50.46749 47.66041,-4.597987 97.27741,11.57048 131.96776,44.57403 34.69036,33.00356 53.38513,82.55653 47.53633,130.07966 -5.30486,43.10349 -29.22856,81.6931 -56.47052,115.51512 -27.24195,33.82202 -58.44514,64.58597 -82.38229,100.82222 -17.02608,25.77422 -30.36939,54.81017 -32.83004,85.6021 -1.23033,15.39596 0.3178,31.08509 5.274,45.71333 4.95621,14.62825 13.37969,28.16662 24.83958,38.52134 12.50379,11.29794 28.43697,18.60222 45.0554,21.39792 16.61844,2.7957 33.87804,1.15525 49.90668,-4.04772 27.03441,-8.7755 50.2352,-27.50141 67.04765,-50.41889 16.8124,-22.91748 27.5354,-49.87406 34.1326,-77.52086 20.1285,-84.35176 2.7273,-172.68134 -16.503,-257.24239 -9.2586,-40.71251 -18.9792,-81.60942 -20.9278,-123.31592 -0.5539,-11.85514 -0.4743,-23.73968 0.2348,-35.58654 C 1009.7569,115.75191 1028.5489,100 1048.226,100 l 72.7347,0 c 19.6771,0 29.2445,14.65606 23.1276,33.35202 -6.5545,20.03319 -11.6033,40.55911 -15.0799,61.34866 -11.1133,66.45643 -6.0981,134.37794 -4.3844,201.73539 2.1675,85.19116 -1.0039,170.41961 -4.4412,255.56899 -2.1856,54.1422 -4.5047,108.51041 -14.6397,161.74044 -10.135,53.23003 -28.4485,105.66725 -60.0911,149.65478 -47.35017,65.82322 -122.79116,108.83652 -202.39425,124.26652 -42.29099,8.1976 -86.84488,8.9531 -127.73924,-4.5887 -20.44718,-6.7708 -39.79743,-17.0977 -56.24421,-31.0058 -16.44678,-13.9081 -29.94113,-31.4403 -38.37396,-51.26 -15.41204,-36.22292 -12.63419,-79.80077 7.77116,-113.46459 13.48649,-22.24941 34.01504,-39.85259 57.27204,-51.51593 23.25701,-11.66335 49.16338,-17.55268 75.13906,-19.03109 51.95136,-2.95683 103.21851,11.29914 152.92924,26.67869 51.50599,15.93497 102.59226,33.2267 153.18786,51.85121 z" id="path1087-2" ns2:path-effect="#path-effect1078;#path-effect850" ns2:original-d="m 988.82231,974.7492 c -1.25214,2.4983 -43.84835,-37.48463 -69.80247,-49.15743 -47.19705,-21.22675 -102.01765,-52.05007 -151.10252,-35.65461 -30.55872,10.20731 -68.71303,42.79956 -61.84684,74.2778 6.61713,30.33639 52.99521,38.57684 83.99923,40.26004 65.69397,3.5665 156.2842,-48.17037 186.17394,-65.53641 45.18155,-26.25065 26.44425,-203.43401 14.08837,-161.75839 -27.95976,15.19385 -57.98693,23.29307 -87.86809,20.01596 -79.90252,-8.76302 -150.70394,-98.99481 -162.06026,-178.57017 -11.93286,-83.61526 82.14567,-148.39958 111.00322,-227.77934 13.12231,-36.09614 38.77361,-74.99765 27.82592,-111.8117 -5.84155,-19.6435 -24.66613,-39.60175 -45.03575,-41.85328 -51.02856,-5.64038 -103.39054,35.73336 -132.99562,77.67697 -39.09553,55.38941 -42.92693,132.23759 -37.8277,199.84266 2.4964,33.09705 32.98498,93.95111 32.98498,93.95111 l -144.20711,-4.00195 c 0,0 39.03663,-93.8253 38.15639,-143.22395 -0.984,-55.22155 -18.86612,-111.77127 -48.33112,-158.48531 -15.64537,-24.80431 -37.63843,-48.57562 -64.88985,-59.41035 -19.67306,-7.82169 -43.10138,-6.63187 -63.50516,-0.9844 -33.32558,9.22403 -63.52698,30.4188 -88.1349,54.71133 -36.71595,36.24539 -63.94035,82.62269 -83.32076,130.4368 -12.46338,30.74887 -24.96634,64.7213 -19.94386,97.51769 5.71748,37.33472 17.39243,94.56159 54.8851,99.13003 35.33732,4.30582 60.91608,-44.66702 72.65221,-78.27549 13.24094,-37.91772 2.88802,-81.83102 -9.17604,-120.13942 -12.38808,-39.33728 -31.21919,-80.18054 -62.96796,-106.50358 -28.91214,-23.97118 -70.17413,-49.86901 -105.93165,-38.38296 -38.84272,12.47708 -57.40741,62.89226 -69.26486,100.90732 -15.05442,48.26456 -8.46511,101.12976 1.09345,150.31638 14.50895,74.66039 46.87473,145.75181 83.91382,212.18064 12.8623,23.06827 23.7445,44.51166 47.36194,63.52245 L 20.22782,810.77209 C 43.60912,778.89798 48.15959,745.50912 51.78018,710.73069 64.30997,590.3728 23.49699,470.2401 16.24015,349.44956 14.41891,319.13488 9.62619,288.44985 14.24006,258.36349 c 4.57159,-29.81062 10.91025,-61.11573 29.07862,-86.44311 14.96337,-20.85949 36.06632,-41.37397 62.38085,-49.15291 27.08294,-8.00609 61.05248,-7.06993 85.27409,6.40087 117.6677,65.44058 185.69234,197.26846 214.33633,318.49591 18.02515,76.28638 13.29086,165.82562 -32.6853,232.07805 -18.26618,26.32183 -52.22679,54.99263 -86.63025,51.3446 -61.30481,-6.50064 -117.08592,-57.90829 -126.15495,-121.23898 -4.96717,-37.47677 0.35944,-75.45418 5.98385,-112.73824 6.76613,-44.85243 15.13889,-90.70726 33.24589,-132.48167 33.27641,-76.77156 71.37547,-157.78415 135.90948,-211.04346 34.39894,-28.38912 79.87523,-54.801728 124.19352,-49.78988 51.66174,5.8423 97.94498,46.59088 128.15455,88.90459 24.54138,34.37444 34.49906,121.92108 34.49906,121.92108 0,0 2.68307,-42.11818 13.06224,-59.61387 39.84587,-67.16637 98.74722,-155.904525 176.81271,-153.7153 83.45081,2.34025 169.98768,91.71424 179.50409,174.65369 9.76766,85.12949 -114.07902,134.3087 -138.85281,216.33734 -16.36961,54.20151 -38.62768,126.0629 -2.71646,169.83677 20.40908,24.87759 64.85216,28.7 94.96208,17.3502 50.8767,-19.17775 84.98095,-76.03786 101.18025,-127.93975 25.6,-82.02149 -6.5508,-171.89696 -16.503,-257.24239 -4.8291,-41.41243 -18.6714,-81.68397 -20.9278,-123.31592 C 1007.0645,147.30642 1012.5975,100 1012.5975,100 h 143.9917 c 0,0 -22.5841,62.20416 -27.5808,94.70068 -10.222,66.47973 -3.0694,134.48724 -4.3844,201.73539 -1.6659,85.18624 6.3043,171.04678 -4.4412,255.56899 -13.4625,105.8933 -12.0281,225.00653 -74.7308,311.39522 -46.50244,64.06882 -123.54225,117.22002 -202.39425,124.26652 -79.25701,7.0827 -179.75186,-19.6488 -222.35741,-86.8545 -20.29816,-32.01819 -17.88389,-85.55409 7.77116,-113.46459 65.1227,-70.84792 189.47265,-52.22173 285.34034,-43.86833 53.70494,4.67957 154.77036,48.69387 153.18786,51.85121 z" ns1:nodetypes="caaaascsaaaaaaccaaaaaaaaaaaaaaaccaaaaaaaaacaaaaacaaaaaaaaaccaaaaaaaacc" /></g></svg>