<?xml version="1.0" encoding="UTF-8" standalone="no"?>
<svg
   xmlns:dc="http://purl.org/dc/elements/1.1/"
   xmlns:cc="http://creativecommons.org/ns#"
   xmlns:rdf="http://www.w3.org/1999/02/22-rdf-syntax-ns#"
   xmlns:svg="http://www.w3.org/2000/svg"
   xmlns="http://www.w3.org/2000/svg"
   xmlns:sodipodi="http://sodipodi.sourceforge.net/DTD/sodipodi-0.dtd"
   xmlns:inkscape="http://www.inkscape.org/namespaces/inkscape"
   xml:space="preserve"
   width="1000"
   height="1000"
   version="1.1"
   style="clip-rule:evenodd;fill-rule:evenodd;image-rendering:optimizeQuality;shape-rendering:geometricPrecision;text-rendering:geometricPrecision"
   viewBox="0 0 1000 1000"
   id="svg10"
   sodipodi:docname="ദ.svg"
   inkscape:version="1.0.2 (e86c870879, 2021-01-15)"><metadata
   id="metadata14"><rdf:RDF><cc:Work
       rdf:about=""><dc:format>image/svg+xml</dc:format><dc:type
         rdf:resource="http://purl.org/dc/dcmitype/StillImage" /><dc:title /></cc:Work></rdf:RDF></metadata><sodipodi:namedview
   pagecolor="#ffffff"
   bordercolor="#666666"
   borderopacity="1"
   objecttolerance="10"
   gridtolerance="10"
   guidetolerance="10"
   inkscape:pageopacity="0"
   inkscape:pageshadow="2"
   inkscape:window-width="1920"
   inkscape:window-height="1007"
   id="namedview12"
   showgrid="false"
   inkscape:zoom="1.6978177"
   inkscape:cx="366.00465"
   inkscape:cy="616.64471"
   inkscape:window-x="1920"
   inkscape:window-y="0"
   inkscape:window-maximized="1"
   inkscape:current-layer="svg10"
   showguides="true"
   inkscape:guide-bbox="true"
   inkscape:document-rotation="0"><sodipodi:guide
   position="0,1000"
   orientation="0,1"
   id="guide16"
   inkscape:label=""
   inkscape:locked="true"
   inkscape:color="rgb(0,0,255)" /><sodipodi:guide
   position="1763.3122,2036.1693"
   orientation="1000,0"
   id="guide18" /><sodipodi:guide
   position="0,200"
   orientation="0,1"
   id="guide20"
   inkscape:label="base"
   inkscape:locked="true"
   inkscape:color="rgb(0,0,255)" /><inkscape:grid
   type="xygrid"
   id="grid24"
   originx="-473.37552"
   originy="-489.69235" /><sodipodi:guide
   position="0,0"
   orientation="0,1"
   id="guide34"
   inkscape:label="bottom"
   inkscape:locked="true"
   inkscape:color="rgb(0,0,255)" /><sodipodi:guide
   position="225.05109,1693.3186"
   orientation="0,1"
   id="guide44"
   inkscape:label=""
   inkscape:locked="false"
   inkscape:color="rgb(0,0,255)" /><sodipodi:guide
   position="0,900"
   orientation="0,1"
   id="guide46"
   inkscape:label=""
   inkscape:locked="true"
   inkscape:color="rgb(0,0,255)" /><sodipodi:guide
   position="496.23569,900"
   orientation="1,0"
   id="guide841"
   inkscape:label="width" />    </sodipodi:namedview>
 <defs
   id="defs4"><inkscape:path-effect
   effect="fillet_chamfer"
   id="path-effect857"
   is_visible="true"
   lpeversion="1"
   satellites_param="F,0,1,1,0,27.782684,0,1 @ F,0,1,1,0,27.782684,0,1 @ F,0,0,1,0,0,0,1 @ F,0,0,1,0,0,0,1 @ F,0,0,1,0,0,0,1 @ F,0,0,1,0,0,0,1 @ F,0,0,1,0,0,0,1 @ F,0,0,1,0,0,0,1 @ F,0,0,1,0,0,0,1 @ F,0,0,1,0,0,0,1 @ F,0,0,1,0,0,0,1 @ F,0,0,1,0,0,0,1 @ F,0,0,1,0,0,0,1 @ F,0,0,1,0,0,0,1 @ F,0,0,1,0,0,0,1 @ F,0,0,1,0,0,0,1 @ F,0,1,1,0,27.782684,0,1 @ F,0,1,1,0,27.782684,0,1 @ F,0,0,1,0,0,0,1 @ F,0,0,1,0,0,0,1 @ F,0,0,1,0,0,0,1 @ F,0,0,1,0,0,0,1 @ F,0,0,1,0,0,0,1 @ F,0,0,1,0,0,0,1 @ F,0,0,1,0,0,0,1 @ F,0,0,1,0,0,0,1 @ F,0,1,1,0,27.782684,0,1 @ F,0,1,1,0,27.782684,0,1 @ F,0,0,1,0,0,0,1 @ F,0,0,1,0,0,0,1 @ F,0,0,1,0,0,0,1 @ F,0,0,1,0,0,0,1 @ F,0,0,1,0,0,0,1 @ F,0,0,1,0,0,0,1 @ F,0,0,1,0,0,0,1 @ F,0,0,1,0,0,0,1 @ F,0,0,1,0,0,0,1 @ F,0,0,1,0,0,0,1 @ F,0,0,1,0,0,0,1"
   unit="px"
   method="auto"
   mode="F"
   radius="0"
   chamfer_steps="1"
   flexible="false"
   use_knot_distance="true"
   apply_no_radius="true"
   apply_with_radius="true"
   only_selected="true"
   hide_knots="false" /><inkscape:path-effect
   effect="fillet_chamfer"
   id="path-effect852"
   is_visible="true"
   lpeversion="1"
   satellites_param="F,0,0,1,0,17.448946,0,1 @ F,0,0,1,0,23.033376,0,1 @ F,0,0,1,0,0,0,1 @ F,0,0,1,0,0,0,1 @ F,0,0,1,0,0,0,1 @ F,0,0,1,0,0,0,1 @ F,0,0,1,0,0,0,1 @ F,0,0,1,0,0,0,1 @ F,0,0,1,0,0,0,1 @ F,0,0,1,0,0,0,1 @ F,0,0,1,0,0,0,1 @ F,0,0,1,0,0,0,1 @ F,0,0,1,0,0,0,1 @ F,0,0,1,0,0,0,1 @ F,0,0,1,0,0,0,1 @ F,0,0,1,0,0,0,1 @ F,0,0,1,0,9.3771215,0,1 @ F,0,0,1,0,23.981142,0,1 @ F,0,0,1,0,0,0,1 @ F,0,0,1,0,0,0,1 @ F,0,0,1,0,0,0,1 @ F,0,0,1,0,0,0,1 @ F,0,0,1,0,0,0,1 @ F,0,0,1,0,0,0,1 @ F,0,0,1,0,0,0,1 @ F,0,0,1,0,0,0,1 @ F,0,0,1,0,10.952723,0,1 @ F,0,0,1,0,21.569615,0,1 @ F,0,0,1,0,0,0,1 @ F,0,0,1,0,0,0,1 @ F,0,0,1,0,0,0,1 @ F,0,0,1,0,0,0,1 @ F,0,0,1,0,0,0,1 @ F,0,0,1,0,0,0,1 @ F,0,0,1,0,0,0,1 @ F,0,0,1,0,0,0,1 @ F,0,0,1,0,0,0,1 @ F,0,0,1,0,0,0,1 @ F,0,0,1,0,0,0,1"
   unit="px"
   method="auto"
   mode="F"
   radius="0"
   chamfer_steps="1"
   flexible="false"
   use_knot_distance="true"
   apply_no_radius="true"
   apply_with_radius="true"
   only_selected="true"
   hide_knots="false" /><inkscape:path-effect
   effect="spiro"
   id="path-effect856"
   is_visible="true"
   lpeversion="1" /><inkscape:path-effect
   effect="spiro"
   id="path-effect850"
   is_visible="true"
   lpeversion="1" /><inkscape:path-effect
   effect="spiro"
   id="path-effect851"
   is_visible="true"
   lpeversion="1" />
  <style
   type="text/css"
   id="style2">
   <![CDATA[
    .fil0 {fill:#EF7F1A;fill-rule:nonzero}
   ]]>
  </style>
 <inkscape:path-effect
   effect="spiro"
   id="path-effect1214"
   is_visible="true"
   lpeversion="1" /><inkscape:path-effect
   effect="spiro"
   id="path-effect1195"
   is_visible="true"
   lpeversion="1" /><inkscape:path-effect
   effect="spiro"
   id="path-effect992"
   is_visible="true"
   lpeversion="1" /><inkscape:path-effect
   effect="spiro"
   id="path-effect1060"
   is_visible="true"
   lpeversion="1" /><inkscape:path-effect
   effect="spiro"
   id="path-effect1047"
   is_visible="true"
   lpeversion="1" /><inkscape:path-effect
   effect="spiro"
   id="path-effect1085"
   is_visible="true"
   lpeversion="1" /><inkscape:path-effect
   effect="spiro"
   id="path-effect1286"
   is_visible="true"
   lpeversion="1" /><inkscape:path-effect
   effect="spiro"
   id="path-effect1305"
   is_visible="true"
   lpeversion="1" /></defs>
 
<path
   style="fill:#000000;fill-rule:nonzero;stroke:#000000;stroke-width:1px;stroke-linecap:butt;stroke-linejoin:miter;stroke-opacity:1"
   d="m 131.36683,777.4614 -87.871873,17.20132 c -15.058152,2.9477 -22.741115,-6.26808 -18.264494,-20.9414 7.268923,-23.82586 12.370889,-48.31309 15.20828,-73.06114 C 48.269382,632.36045 38.85649,563.37301 28.766795,495.37029 18.677101,427.36758 7.8614933,358.75495 12.900579,290.19272 16.070205,247.06651 26.082177,203.17173 51.125276,167.91893 76.749191,131.84853 117.38698,107.13966 160.97593,99.546135 c 43.58896,-7.593525 89.65138,1.675555 127.68888,24.276615 42.41408,25.20153 74.91712,67.27701 86.63503,115.20156 11.09163,45.36315 3.02334,95.4448 -23.30243,134.01672 -14.15673,20.74211 -33.31369,38.04607 -55.38416,50.02699 58.91988,17.97255 111.19877,56.94131 145.25339,108.27207 28.70416,43.26597 44.53877,96.55503 36.12987,147.79137 -4.20446,25.61818 -14.44289,50.35234 -30.41464,70.81869 -15.97176,20.46634 -37.73807,36.54216 -62.34597,44.81376 -36.21768,12.17407 -76.30649,7.0177 -112.42637,-5.44353 -35.26935,-12.1678 -68.14279,-31.20164 -96.33467,-55.63305 -11.59114,-10.04501 -14.46105,-30.25985 -7.5116,-43.93983 l 27.80449,-54.73305 c 6.94945,-13.67998 13.37186,-12.15845 18.15379,2.38519 3.92839,11.94772 9.71399,23.2862 17.1402,33.43758 12.89483,17.62679 30.69856,31.62298 50.87135,39.99189 21.10787,8.75684 44.89407,11.29877 67.18967,6.28574 22.29561,-5.01303 42.94061,-17.71128 56.75061,-35.91865 11.8973,-15.68562 18.56396,-35.2178 19.03002,-54.89945 0.46606,-19.68165 -5.22686,-39.42414 -15.8562,-55.99525 -12.11993,-18.89494 -30.3348,-33.4198 -50.5038,-43.27491 -20.16899,-9.8551 -42.27472,-15.24566 -64.51647,-18.28144 -25.49853,-3.4803 -51.40683,-3.93403 -77.01411,-1.37853 -15.26353,1.52323 -28.80362,-8.44255 -30.41753,-23.70139 l -6.54677,-61.89709 c -1.61391,-15.25884 8.7869,-22.36377 24.03242,-21.44767 9.31111,0.55951 18.71457,-0.4172 27.68999,-2.96077 17.88789,-5.06931 33.95795,-16.32889 44.8305,-31.41073 9.1386,-12.6766 14.59526,-27.9388 15.79627,-43.51982 1.201,-15.58101 -1.83031,-31.43889 -8.48366,-45.57902 -6.65336,-14.14013 -16.89409,-26.54428 -29.37953,-35.94237 -12.48544,-9.3981 -27.18391,-15.79241 -42.52859,-18.75063 -29.91476,-5.76711 -61.93836,1.92696 -86.69802,19.67835 -16.58865,11.8932 -29.961002,28.02303 -39.548126,46.04297 -9.587125,18.01994 -15.455019,37.89911 -18.285836,58.11341 -5.661632,40.42859 0.697467,81.59986 10.018378,121.34462 19.456384,82.96284 51.764464,162.55967 69.828284,245.83682 2.26676,10.45014 4.30694,20.94942 6.11879,31.48796 2.59974,15.1212 -8.01439,29.85244 -23.07255,32.80014 z"
   id="path854"
   inkscape:path-effect="#path-effect856;#path-effect857"
   inkscape:original-d="M 158.63203,772.12412 16.229761,800 c 0,0 21.280663,-65.38348 24.208982,-99.33982 11.782062,-136.62298 -43.6820417,-274.291 -27.538164,-410.46746 5.0273,-42.40616 6.280616,-93.93421 38.224697,-122.27379 60.242444,-53.44482 162.492504,-73.309946 237.539534,-44.09618 44.77465,17.42955 75.38577,68.48954 86.63503,115.20156 10.61595,44.08225 -1.39849,94.31584 -23.30243,134.01672 -12.01786,21.78237 -55.38416,50.02699 -55.38416,50.02699 0,0 124.02266,51.73821 145.25339,108.27207 31.57564,84.08062 14.57812,208.68927 -56.63074,263.42382 -29.74712,22.86507 -76.69227,5.99222 -112.42637,-5.44353 -43.93446,-14.06006 -76.3161,-52.90715 -116.42937,-74.80308 l 52.97069,-104.27265 c 0,0 34.59123,86.25156 73.58224,100.58446 39.86946,14.65581 97.15257,3.33352 123.94028,-29.63291 23.32064,-28.69967 21.72136,-78.90233 3.17382,-110.8947 -21.81035,-37.62036 -72.71498,-51.49429 -115.02027,-61.55635 -33.90113,-8.06318 -104.5094,2.54865 -104.5094,2.54865 L 178.12627,394.13957 c 0,0 84.91361,3.04625 99.47515,-28.1906 22.20086,-47.62442 -17.57558,-120.33785 -64.59551,-143.79184 -26.51844,-13.22764 -65.89313,-1.42508 -86.69802,19.67835 -53.944409,54.71851 -50.420182,148.70692 -47.815584,225.501 2.887605,85.13825 37.905454,179.17702 69.828284,245.83682 14.70482,30.70595 10.31144,58.95082 10.31144,58.95082 z"
   sodipodi:nodetypes="ccaaaaaacaaaccaaaaccaaaasc" /></svg>
