<?xml version="1.0" encoding="UTF-8" standalone="no"?>
<svg
   xmlns:dc="http://purl.org/dc/elements/1.1/"
   xmlns:cc="http://creativecommons.org/ns#"
   xmlns:rdf="http://www.w3.org/1999/02/22-rdf-syntax-ns#"
   xmlns:svg="http://www.w3.org/2000/svg"
   xmlns="http://www.w3.org/2000/svg"
   xmlns:sodipodi="http://sodipodi.sourceforge.net/DTD/sodipodi-0.dtd"
   xmlns:inkscape="http://www.inkscape.org/namespaces/inkscape"
   xml:space="preserve"
   width="1000"
   height="1000"
   version="1.1"
   style="clip-rule:evenodd;fill-rule:evenodd;image-rendering:optimizeQuality;shape-rendering:geometricPrecision;text-rendering:geometricPrecision"
   viewBox="0 0 1000 1000"
   id="svg10"
   sodipodi:docname="ദൃ.svg"
   inkscape:version="1.0.2 (e86c870879, 2021-01-15)"><metadata
   id="metadata14"><rdf:RDF><cc:Work
       rdf:about=""><dc:format>image/svg+xml</dc:format><dc:type
         rdf:resource="http://purl.org/dc/dcmitype/StillImage" /><dc:title /></cc:Work></rdf:RDF></metadata><sodipodi:namedview
   pagecolor="#ffffff"
   bordercolor="#666666"
   borderopacity="1"
   objecttolerance="10"
   gridtolerance="10"
   guidetolerance="10"
   inkscape:pageopacity="0"
   inkscape:pageshadow="2"
   inkscape:window-width="1920"
   inkscape:window-height="1007"
   id="namedview12"
   showgrid="false"
   inkscape:zoom="0.84890884"
   inkscape:cx="284.6083"
   inkscape:cy="507.89859"
   inkscape:window-x="1920"
   inkscape:window-y="0"
   inkscape:window-maximized="1"
   inkscape:current-layer="svg10"
   showguides="true"
   inkscape:guide-bbox="true"
   inkscape:document-rotation="0"><sodipodi:guide
   position="0,1000"
   orientation="0,1"
   id="guide16"
   inkscape:label=""
   inkscape:locked="true"
   inkscape:color="rgb(0,0,255)" /><sodipodi:guide
   position="1763.3122,2036.1693"
   orientation="1000,0"
   id="guide18" /><sodipodi:guide
   position="0,200"
   orientation="0,1"
   id="guide20"
   inkscape:label="base"
   inkscape:locked="true"
   inkscape:color="rgb(0,0,255)" /><inkscape:grid
   type="xygrid"
   id="grid24"
   originx="-473.37552"
   originy="-489.69235" /><sodipodi:guide
   position="0,0"
   orientation="0,1"
   id="guide34"
   inkscape:label="bottom"
   inkscape:locked="true"
   inkscape:color="rgb(0,0,255)" /><sodipodi:guide
   position="225.05109,1693.3186"
   orientation="0,1"
   id="guide44"
   inkscape:label=""
   inkscape:locked="false"
   inkscape:color="rgb(0,0,255)" /><sodipodi:guide
   position="0,900"
   orientation="0,1"
   id="guide46"
   inkscape:label=""
   inkscape:locked="true"
   inkscape:color="rgb(0,0,255)" /><sodipodi:guide
   position="496.23569,900"
   orientation="1,0"
   id="guide841"
   inkscape:label="width" />    </sodipodi:namedview>
 <defs
   id="defs4"><inkscape:path-effect
   effect="fillet_chamfer"
   id="path-effect852"
   is_visible="true"
   lpeversion="1"
   satellites_param="F,0,1,1,0,22.350821,0,1 @ F,0,1,1,0,22.350821,0,1 @ F,0,0,1,0,0,0,1 @ F,0,0,1,0,0,0,1 @ F,0,0,1,0,0,0,1 @ F,0,0,1,0,0,0,1 @ F,0,0,1,0,0,0,1 @ F,0,0,1,0,0,0,1 @ F,0,0,1,0,0,0,1 @ F,0,0,1,0,0,0,1 @ F,0,0,1,0,0,0,1 @ F,0,0,1,0,0,0,1 @ F,0,0,1,0,0,0,1 @ F,0,0,1,0,0,0,1 @ F,0,0,1,0,0,0,1 @ F,0,0,1,0,0,0,1 @ F,0,0,1,0,0,0,1 @ F,0,0,1,0,0,0,1 @ F,0,0,1,0,0,0,1 @ F,0,0,1,0,0,0,1 @ F,0,0,1,0,0,0,1 @ F,0,0,1,0,0,0,1 @ F,0,0,1,0,0,0,1 @ F,0,0,1,0,0,0,1 @ F,0,0,1,0,0,0,1 @ F,0,0,1,0,0,0,1 @ F,0,0,1,0,0,0,1 @ F,0,0,1,0,0,0,1 @ F,0,0,1,0,0,0,1 @ F,0,0,1,0,0,0,1 @ F,0,0,1,0,0,0,1 @ F,0,0,1,0,0,0,1 @ F,0,0,1,0,0,0,1 @ F,0,0,1,0,0,0,1 @ F,0,0,1,0,0,0,1 @ F,0,0,1,0,0,0,1 @ F,0,0,1,0,0,0,1 @ F,0,0,1,0,0,0,1 @ F,0,1,1,0,22.350821,0,1 @ F,0,1,1,0,22.350821,0,1 @ F,0,0,1,0,0,0,1 @ F,0,0,1,0,0,0,1 @ F,0,0,1,0,0,0,1 @ F,0,0,1,0,0,0,1 @ F,0,0,1,0,0,0,1 @ F,0,0,1,0,0,0,1 @ F,0,0,1,0,0,0,1 @ F,0,0,1,0,0,0,1 @ F,0,0,1,0,0,0,1 @ F,0,0,1,0,0,0,1"
   unit="px"
   method="auto"
   mode="F"
   radius="0"
   chamfer_steps="1"
   flexible="false"
   use_knot_distance="true"
   apply_no_radius="true"
   apply_with_radius="true"
   only_selected="true"
   hide_knots="false" /><inkscape:path-effect
   effect="spiro"
   id="path-effect856"
   is_visible="true"
   lpeversion="1" /><inkscape:path-effect
   effect="spiro"
   id="path-effect850"
   is_visible="true"
   lpeversion="1" /><inkscape:path-effect
   effect="spiro"
   id="path-effect851"
   is_visible="true"
   lpeversion="1" />
  <style
   type="text/css"
   id="style2">
   <![CDATA[
    .fil0 {fill:#EF7F1A;fill-rule:nonzero}
   ]]>
  </style>
 <inkscape:path-effect
   effect="spiro"
   id="path-effect1214"
   is_visible="true"
   lpeversion="1" /><inkscape:path-effect
   effect="spiro"
   id="path-effect1195"
   is_visible="true"
   lpeversion="1" /><inkscape:path-effect
   effect="spiro"
   id="path-effect992"
   is_visible="true"
   lpeversion="1" /><inkscape:path-effect
   effect="spiro"
   id="path-effect1060"
   is_visible="true"
   lpeversion="1" /><inkscape:path-effect
   effect="spiro"
   id="path-effect1047"
   is_visible="true"
   lpeversion="1" /><inkscape:path-effect
   effect="spiro"
   id="path-effect1085"
   is_visible="true"
   lpeversion="1" /><inkscape:path-effect
   effect="spiro"
   id="path-effect1286"
   is_visible="true"
   lpeversion="1" /><inkscape:path-effect
   effect="spiro"
   id="path-effect1305"
   is_visible="true"
   lpeversion="1" /></defs>
 
<path
   style="fill:#a51d2d;fill-rule:nonzero;stroke:none;stroke-width:1px;stroke-linecap:butt;stroke-linejoin:miter;stroke-opacity:1"
   d="M 121.50591,784.32413 22.972658,803.61245 C 10.858563,805.98384 5.1754845,798.78193 9.4807579,787.21516 16.961356,767.11739 22.646339,746.35108 26.435156,725.2435 38.594784,657.50194 31.106661,587.8579 20.874058,519.7986 10.641455,451.7393 -2.3454179,383.58906 -1.1030078,314.77604 -0.17481478,263.36647 9.603045,210.10103 40.067145,168.6795 66.202122,133.1442 106.68879,108.76024 150.13002,101.10162 c 43.44122,-7.658609 89.39421,1.2214 127.47666,23.4817 50.66222,29.61354 86.74854,83.18736 94.54335,141.34974 8.17149,60.97307 -14.30909,123.9152 -54.02688,170.89377 -26.5797,31.43873 -60.69138,56.46548 -98.65858,72.38295 l -14.46221,-59.83609 c 39.74429,-6.60063 80.87392,-4.73342 119.85665,5.44125 57.33746,14.96535 110.41379,48.77627 144.32017,97.37569 39.09175,56.03184 50.55732,127.98277 42.96016,195.87986 -5.14382,45.97115 -18.62211,91.20817 -41.39886,131.47013 -22.77675,40.26196 -54.99436,75.43773 -94.28363,99.85409 -46.61627,28.96969 -101.92396,42.11259 -156.78919,43.57149 -37.37751,0.9939 -75.97037,-3.5798 -108.7043,-21.6507 -16.366966,-9.03545 -31.021756,-21.41167 -41.752297,-36.72089 -10.730541,-15.30922 -17.424057,-33.6059 -17.983958,-52.29288 -0.443246,-14.79358 2.940817,-29.6141 9.195914,-43.02753 6.255097,-13.41344 15.337493,-25.43405 26.105124,-35.5881 21.535257,-20.30808 49.375697,-32.90378 77.957067,-40.60383 40.57917,-10.93236 83.45756,-12.58777 125.03016,-6.43112 54.84714,8.12254 107.62055,29.8929 152.24193,62.80364 l -63.98729,84.20873 C 331.25608,894.16753 273.50429,868.0571 213.12642,859.22575 c -18.13611,-2.65273 -37.22425,-3.67458 -54.25098,3.11113 -8.51337,3.39285 -16.33735,8.76086 -21.96955,15.99047 -5.6322,7.22961 -8.96365,16.37709 -8.54029,25.53185 0.41851,9.04973 4.48552,17.75312 10.61582,24.42337 6.1303,6.67025 14.22584,11.37353 22.84624,14.1595 17.24078,5.57193 35.95162,3.61268 53.80567,0.52658 54.35824,-9.3959 107.77682,-29.25444 150.78536,-63.79958 43.00855,-34.54513 74.81398,-84.76065 80.64479,-139.61594 5.9671,-56.13748 -16.5178,-114.35973 -57.974,-152.67952 -31.69253,-29.2948 -73.78799,-47.02067 -116.87262,-49.53398 -19.63481,-1.14538 -39.44192,0.79774 -58.4924,5.68384 -11.95007,3.06498 -23.05582,-3.03492 -25.25397,-15.18164 l -14.09062,-77.86325 c -2.19815,-12.14672 6.00038,-20.05253 18.29065,-20.84884 10.14495,-0.6573 20.18776,-2.9086 29.62139,-6.69961 16.34756,-6.56945 30.81629,-17.7427 41.30592,-31.89784 10.16388,-13.71556 16.56501,-30.17073 18.47195,-47.13495 1.90694,-16.96422 -0.67065,-34.39613 -7.28417,-50.13407 -6.61352,-15.73793 -17.23696,-29.75456 -30.5189,-40.4789 -13.28194,-10.72433 -29.19039,-18.14672 -45.91575,-21.56483 -29.93604,-6.11794 -62.42105,1.12506 -86.69802,19.67835 -27.190008,20.77953 -42.863494,53.9806 -48.472136,87.73898 -5.608642,33.75839 -2.094074,68.34924 3.107977,102.17267 15.441748,100.40133 45.525299,197.88905 68.028219,296.94708 1.54307,6.79262 3.05063,13.5933 4.52259,20.40168 2.60848,12.0652 -5.21958,23.79444 -17.33368,26.16583 z"
   id="path854"
   inkscape:path-effect="#path-effect856;#path-effect852"
   inkscape:original-d="M 143.44042,780.03035 1.0381491,807.90623 c 0,0 22.0737369,-54.02954 25.3970069,-82.66273 C 42.244828,589.02783 -15.317605,451.16739 -1.1030078,314.77604 4.1416136,264.45305 2.6982334,202.78923 40.067145,168.6795 99.547006,114.38726 203.39566,93.306718 277.60668,124.58332 c 52.23492,22.01466 86.54025,85.23305 94.54335,141.34974 8.43499,59.14506 -19.21593,122.33983 -54.02688,170.89377 -23.76596,33.14852 -98.65858,72.38295 -98.65858,72.38295 l -14.46221,-59.83609 c 0,0 81.88677,-7.1189 119.85665,5.44125 55.09667,18.22556 111.71682,49.36697 144.32017,97.37569 37.55416,55.29884 53.43055,129.8598 42.96016,195.87986 -14.00226,88.28997 -64.82701,176.82025 -135.68249,231.32422 -42.99486,33.07279 -103.19678,51.95149 -156.78919,43.57149 C 153.29378,1012.5877 58.927781,979.03932 51.227105,912.30173 44.944007,857.84953 114.68938,815.99285 164.48521,793.08227 c 37.91166,-17.44279 83.89944,-13.48865 125.03016,-6.43112 54.10505,9.28377 152.24193,62.80364 152.24193,62.80364 l -63.98729,84.20873 C 341.11627,899.8371 273.3289,857.41688 213.12642,859.22575 c -31.91702,0.95899 -85.77236,12.71805 -84.76082,44.63345 1.00981,31.86086 55.74821,43.86904 87.26773,39.10945 101.55527,-15.3353 206.6755,-103.73679 231.43015,-203.41552 13.12095,-52.83369 -20.2181,-113.46154 -57.974,-152.67952 -29.34558,-30.48197 -74.87886,-44.35349 -116.87262,-49.53398 -26.71056,-3.2951 -79.76627,12.49579 -79.76627,12.49579 L 170.39977,427.98499 c 0,0 80.1605,-6.6148 93.19806,-37.4527 22.34619,-52.85572 -14.33163,-132.84169 -65.24687,-159.31275 -26.29317,-13.66995 -65.62546,-1.15781 -86.69802,19.67835 -46.280815,45.7616 -45.062486,124.8275 -45.364159,189.91165 -0.470675,101.54551 36.105389,230.28728 68.028219,296.94708 14.70482,30.70595 9.12342,42.27373 9.12342,42.27373 z"
   sodipodi:nodetypes="ccaaaaaaccaaaaaaaaccaaaaaaccaaaasc" /></svg>
