<?xml version="1.0" encoding="UTF-8" standalone="no"?>
<svg
   xmlns:dc="http://purl.org/dc/elements/1.1/"
   xmlns:cc="http://creativecommons.org/ns#"
   xmlns:rdf="http://www.w3.org/1999/02/22-rdf-syntax-ns#"
   xmlns:svg="http://www.w3.org/2000/svg"
   xmlns="http://www.w3.org/2000/svg"
   xmlns:sodipodi="http://sodipodi.sourceforge.net/DTD/sodipodi-0.dtd"
   xmlns:inkscape="http://www.inkscape.org/namespaces/inkscape"
   xml:space="preserve"
   width="1000"
   height="1000"
   version="1.1"
   style="clip-rule:evenodd;fill-rule:evenodd;image-rendering:optimizeQuality;shape-rendering:geometricPrecision;text-rendering:geometricPrecision"
   viewBox="0 0 1000 1000"
   id="svg10"
   sodipodi:docname="ദ്ധ്ര.svg"
   inkscape:version="1.0.1 (3bc2e813f5, 2020-09-07)"><metadata
   id="metadata14"><rdf:RDF><cc:Work
       rdf:about=""><dc:format>image/svg+xml</dc:format><dc:type
         rdf:resource="http://purl.org/dc/dcmitype/StillImage" /><dc:title /></cc:Work></rdf:RDF></metadata><sodipodi:namedview
   pagecolor="#ffffff"
   bordercolor="#666666"
   borderopacity="1"
   objecttolerance="10"
   gridtolerance="10"
   guidetolerance="10"
   inkscape:pageopacity="0"
   inkscape:pageshadow="2"
   inkscape:window-width="1920"
   inkscape:window-height="1015"
   id="namedview12"
   showgrid="false"
   inkscape:zoom="0.678"
   inkscape:cx="484.76219"
   inkscape:cy="636.47607"
   inkscape:window-x="1920"
   inkscape:window-y="0"
   inkscape:window-maximized="1"
   inkscape:current-layer="g895"
   showguides="true"
   inkscape:guide-bbox="true"
   inkscape:document-rotation="0"
   inkscape:snap-to-guides="true"><sodipodi:guide
     position="0,1000"
     orientation="0,1"
     id="guide16"
     inkscape:label=""
     inkscape:locked="true"
     inkscape:color="rgb(0,0,255)" /><sodipodi:guide
     position="1763.3122,2036.1693"
     orientation="1000,0"
     id="guide18" /><sodipodi:guide
     position="0,200"
     orientation="0,1"
     id="guide20"
     inkscape:label="base"
     inkscape:locked="true"
     inkscape:color="rgb(0,0,255)" /><inkscape:grid
     type="xygrid"
     id="grid24"
     originx="-473.37552"
     originy="-489.69235" /><sodipodi:guide
     position="0,0"
     orientation="0,1"
     id="guide34"
     inkscape:label="bottom"
     inkscape:locked="true"
     inkscape:color="rgb(0,0,255)" /><sodipodi:guide
     position="225.05109,1693.3186"
     orientation="0,1"
     id="guide44"
     inkscape:label=""
     inkscape:locked="false"
     inkscape:color="rgb(0,0,255)" /><sodipodi:guide
     position="0,900"
     orientation="0,1"
     id="guide46"
     inkscape:label=""
     inkscape:locked="true"
     inkscape:color="rgb(0,0,255)" /><sodipodi:guide
     position="1314.7509,-190.29906"
     orientation="-1,0"
     id="guide841"
     inkscape:label="width"
     inkscape:locked="false"
     inkscape:color="rgb(0,0,255)" /><sodipodi:guide
     position="0,1000"
     orientation="0,1000"
     id="guide860" /><sodipodi:guide
     position="1000,1000"
     orientation="1000,0"
     id="guide862" /><sodipodi:guide
     position="1000,0"
     orientation="0,-1000"
     id="guide864" /><sodipodi:guide
     position="0,0"
     orientation="-1000,0"
     id="guide866" /></sodipodi:namedview>
 <defs
   id="defs4"><inkscape:path-effect
   effect="spiro"
   id="path-effect876"
   is_visible="true"
   lpeversion="1" /><inkscape:path-effect
   effect="spiro"
   id="path-effect866"
   is_visible="true"
   lpeversion="1" /><inkscape:path-effect
   effect="spiro"
   id="path-effect862"
   is_visible="true"
   lpeversion="1" /><inkscape:path-effect
   effect="spiro"
   id="path-effect1521"
   is_visible="true"
   lpeversion="1" /><inkscape:path-effect
   effect="spiro"
   id="path-effect858"
   is_visible="true"
   lpeversion="1" /><inkscape:path-effect
   effect="spiro"
   id="path-effect854"
   is_visible="true"
   lpeversion="1" />
  <style
   type="text/css"
   id="style2">
   <![CDATA[
    .fil0 {fill:#EF7F1A;fill-rule:nonzero}
   ]]>
  </style>
 <inkscape:path-effect
   effect="spiro"
   id="path-effect1214"
   is_visible="true"
   lpeversion="1" /><inkscape:path-effect
   effect="spiro"
   id="path-effect1195"
   is_visible="true"
   lpeversion="1" /><inkscape:path-effect
   effect="spiro"
   id="path-effect992"
   is_visible="true"
   lpeversion="1" /><inkscape:path-effect
   effect="spiro"
   id="path-effect287"
   is_visible="true"
   lpeversion="1" /><inkscape:path-effect
   effect="spiro"
   id="path-effect1032"
   is_visible="true"
   lpeversion="1" /><inkscape:path-effect
   effect="spiro"
   id="path-effect1218"
   is_visible="true"
   lpeversion="1" /><inkscape:path-effect
   effect="spiro"
   id="path-effect309"
   is_visible="true"
   lpeversion="1" /><inkscape:path-effect
   effect="spiro"
   id="path-effect1176"
   is_visible="true"
   lpeversion="1" /><inkscape:path-effect
   effect="spiro"
   id="path-effect1026"
   is_visible="true"
   lpeversion="1" /><inkscape:path-effect
   effect="spiro"
   id="path-effect1030"
   is_visible="true"
   lpeversion="1" /></defs>
 
<g
   style="clip-rule:evenodd;fill-rule:evenodd;image-rendering:optimizeQuality;shape-rendering:geometricPrecision;text-rendering:geometricPrecision"
   id="g895"><path
     style="clip-rule:evenodd;display:inline;fill:#1a1a1a;fill-rule:nonzero;stroke:none;stroke-width:2.09522px;stroke-linecap:butt;stroke-linejoin:miter;stroke-opacity:1;image-rendering:optimizeQuality;shape-rendering:geometricPrecision;text-rendering:geometricPrecision"
     d="M 36.89445,100.08647 C 26.182362,133.34326 17.393327,167.21937 10.58587,201.4892 -8.2699872,296.41262 -11.811551,394.297 -0.67601,490.43231 12.522987,604.38184 47.71448,718.4573 118.92244,808.39136 c 50.53438,63.82379 117.76914,113.48 191.41091,148.17998 73.64178,34.69998 153.61885,54.79816 234.4178,64.73446 132.91433,16.3452 267.44581,5.6007 401.1567,-1.8009 73.65755,-4.0773 150.20805,-7.8841 215.21755,-42.75275 60.9399,-32.68586 106.1316,-90.88219 130.1219,-155.73972 23.9904,-64.85753 27.892,-135.96856 19.0857,-204.55781 -18.9776,-147.81078 -93.9629,-281.48423 -162.8413,-413.63542 -18.5804,-35.64857 -36.814,-71.47789 -54.6973,-107.481174 L 1000,209.71119 c 37.5623,21.08428 71.9267,47.85384 101.5611,79.11525 59.3055,62.56155 98.8855,142.5982 118.0102,226.65377 6.7544,29.68659 11.048,60.49606 6.1997,90.55285 -2.4242,15.02839 -7.1554,29.75244 -14.6588,42.9974 -7.5033,13.24495 -17.8276,24.98513 -30.4704,33.46387 -14.2006,9.52345 -31.1198,14.75974 -48.1929,15.6863 -17.0732,0.92656 -34.2763,-2.38317 -50.0967,-8.86908 -31.6407,-12.97183 -57.0968,-38.19267 -75.6903,-66.89265 -22.22922,-34.31189 -35.56221,-73.92613 -41.89256,-114.31636 -6.33036,-40.39024 -5.8255,-81.61794 -1.84164,-122.30668 2.88013,-29.41584 7.56902,-58.65447 14.0314,-87.49584 l -164.0134,-4.12025 c 11.31176,20.16424 20.91837,41.28469 28.6837,63.06202 24.48824,68.67559 30.14505,144.87877 10.1747,215.00149 -11.9064,41.80743 -33.09732,81.48688 -64.3354,111.7161 -33.68665,32.59871 -78.67407,53.29022 -125.3478,57.65247 22.4969,-21.4135 39.2909,-48.76472 48.20952,-78.51547 8.91862,-29.75074 9.94058,-61.83007 2.93368,-92.08816 -9.96801,-43.04514 -36.45544,-82.04631 -72.7927,-107.18291 -36.33726,-25.13661 -82.17414,-36.16639 -125.96879,-30.31202 12.73912,-7.6443 24.56789,-16.80418 35.15714,-27.22475 C 589.96187,366.6284 610.8529,307.92711 604.04298,251.79501 596.96667,193.46718 560.32941,139.91633 509.49963,110.44527 471.34554,88.323562 425.44188,79.417377 381.99885,87.020515 c -43.44303,7.603139 -83.98128,31.938455 -110.03877,67.520925 -30.36412,41.46333 -39.81862,94.72183 -41.17014,146.09655 -3.61481,137.40815 44.26215,274.03295 27.53815,410.46746 -4.15623,33.90657 -12.29969,67.32266 -24.20897,99.33982 l 142.40227,-27.87588 c -2.209,-19.83891 -5.65503,-39.54 -10.31144,-58.95082 -18.35992,-76.53561 -55.19825,-147.44947 -76.63419,-223.18114 -12.34293,-43.6067 -19.51702,-89.53912 -12.50917,-134.31391 3.50393,-22.3874 10.57873,-44.30687 21.77758,-64.00608 11.19885,-19.69921 26.58436,-37.13991 45.35308,-49.83669 25.17082,-17.02771 56.79921,-25.11659 86.69802,-19.67835 15.41421,2.80366 30.20229,9.12549 42.75117,18.50546 12.54889,9.37997 22.82634,21.81865 29.47671,36.00424 6.65038,14.18559 9.63987,30.09811 8.37685,45.71423 -1.26302,15.61612 -6.79981,30.89332 -16.00922,43.56791 -10.91951,15.02814 -26.98752,26.24152 -44.86004,31.30647 -17.87252,5.06495 -37.43461,3.94891 -54.61511,-3.11587 l 12.39125,117.15423 c 34.33969,-6.87894 69.87522,-7.74554 104.5094,-2.54865 18.33407,2.75104 36.52006,7.22527 53.40464,14.88147 16.88459,7.65619 32.47074,18.6009 44.15353,32.996 13.39985,16.51079 21.31502,37.35783 22.4672,58.5907 1.15217,21.23287 -4.43059,42.74995 -15.57496,60.85976 -11.88754,19.31748 -30.09685,34.70376 -51.19089,43.04163 -21.09404,8.33788 -44.9604,9.55138 -66.74433,3.23165 -21.45857,-6.22533 -40.73697,-19.7219 -53.92905,-37.75503 -13.19209,-18.03313 -20.21765,-40.49322 -19.65319,-62.82943 l -55.6168,96.34672 c 29.84763,29.89506 65.64029,53.83084 104.66952,69.99608 52.29191,21.65842 109.65473,29.18715 166.24243,28.0198 35.92411,-0.74108 71.95269,-4.94222 106.38737,-15.20594 34.43468,-10.26372 67.29765,-26.7414 94.38815,-50.34639 46.91351,-40.87754 74.40934,-103.14218 73.0183,-165.35083 5.27465,37.38387 19.61362,73.45644 41.4435,104.25955 30.18533,42.59308 74.7913,74.76972 124.7322,89.97592 49.941,15.2062 104.9099,13.34849 153.7102,-5.19474 -24.8873,41.15405 -59.3474,76.47821 -99.8726,102.37689 -84.271,53.85553 -188.52582,64.53078 -288.49634,67.34292 C 726.1181,957.8122 605.18536,951.85701 486.79878,930.01475 428.115,919.18762 369.75252,904.33399 315.68973,879.07085 261.62693,853.8077 211.79011,817.62857 176.43381,769.55628 146.27537,728.55127 127.42465,679.99414 116.88844,630.19524 106.35223,580.39633 103.86877,529.21751 104.24825,478.31762 c 0.54916,-73.65931 7.146,-147.87028 28.52066,-218.36226 17.35675,-57.24124 44.39994,-111.53222 79.63321,-159.86889 z"
     id="path1087-1-75-5-3"
     inkscape:path-effect="#path-effect876"
     inkscape:original-d="m 36.89445,100.08647 c 4.0226,-1.683664 -21.21443,66.8563 -26.30858,101.40273 -14.06106,95.35637 -26.65704,193.79302 -11.26188,288.94311 18.08624,111.7824 43.79314,233.84026 119.59845,317.95905 106.23886,117.88996 271.29556,176.80013 425.82871,212.91444 130.21173,30.4305 268.10841,11.5878 401.1567,-1.8009 72.77345,-7.3232 158.67475,3.6424 215.21755,-42.75275 C 1261.6165,894.29607 1309.1909,746.43987 1310.333,616.45462 1311.635,468.28194 1155.7564,322.71696 1147.4917,202.8192 1139.2268,82.921642 1092.7944,95.338026 1092.7944,95.338026 L 1000,209.71119 c 0,0 71.0105,48.97876 101.5611,79.11525 74.8301,71.85342 107.3467,142.14542 118.0102,226.65377 7.1563,56.71401 11.1082,139.37511 -38.9295,167.01412 -53.7051,29.66471 -133.9627,-13.56897 -173.9799,-60.07543 -52.31651,-60.8002 -42.78167,-156.41845 -43.7342,-236.62304 -0.35077,-29.53584 14.0314,-87.49584 14.0314,-87.49584 l -164.0134,-4.12025 c 0,0 23.25987,40.61502 28.6837,63.06202 16.85124,69.74038 27.06225,145.26989 10.1747,215.00149 -10.1146,41.76493 -32.59288,82.75014 -64.3354,111.7161 -33.9718,31.00024 -79.5822,14.07987 -125.3478,57.65247 45.7656,-44.6346 70.78409,-114.57849 51.1432,-170.60363 -26.65222,-76.02479 -198.76149,-137.49493 -198.76149,-137.49493 0,0 26.4828,-15.20618 35.15714,-27.22475 31.95111,-44.26928 61.21849,-100.32784 54.38323,-154.49353 -7.09682,-56.23849 -42.30842,-119.33508 -94.54335,-141.34974 -74.21102,-31.276608 -178.05969,-10.19607 -237.53955,44.09617 -37.36891,34.10973 -35.92552,95.77356 -41.17014,146.09655 -14.21459,136.39135 39.32021,273.84449 27.53815,410.46746 -2.92832,33.95634 -24.20897,99.33982 -24.20897,99.33982 l 142.40227,-27.87588 c 0,0 4.39338,-28.24487 -10.31144,-58.95082 -31.92283,-66.6598 -71.16953,-147.99076 -76.63419,-223.18114 -7.64507,-105.19134 -5.07356,-188.06993 54.62149,-248.15668 20.88606,-21.0231 60.17958,-32.90599 86.69802,-19.67835 47.01994,23.45399 86.79637,96.16742 64.59551,143.79184 -14.56154,31.23686 -99.47515,28.1906 -99.47515,28.1906 l 12.39125,117.15423 c 0,0 70.47175,-10.01453 104.5094,-2.54865 35.38322,7.76102 77.52181,17.69884 97.55817,47.87747 22.06004,33.22668 28.40192,85.86489 6.89224,119.45046 -22.77514,35.56148 -77.38149,58.05125 -117.93522,46.27328 -39.89349,-11.58622 -73.58224,-100.58446 -73.58224,-100.58446 l -55.6168,96.34672 c 40.11327,21.89593 65.66334,54.49762 104.66952,69.99608 52.22432,20.75047 110.20174,32.19146 166.24243,28.0198 70.2077,-5.22625 148.56186,-18.32766 200.77552,-65.55233 44.68583,-40.41611 73.0183,-165.35083 73.0183,-165.35083 0,0 13.92733,78.93201 41.4435,104.25955 71.3846,65.70663 318.8196,-8.14785 278.4424,84.78118 5.0518,-0.43682 -58.348,78.95579 -99.8726,102.37689 -86.0124,48.51348 -190.06768,59.37511 -288.49634,67.34292 -119.76954,9.69536 -243.92772,7.92362 -359.65638,-24.4124 C 374.6317,898.67388 248.60073,860.96546 176.43381,769.55628 114.45788,691.05535 109.90042,578.17484 104.24825,478.31762 c -4.1483,-73.28834 7.10795,-148.14912 28.52066,-218.36226 17.36653,-56.94553 79.63321,-159.86889 79.63321,-159.86889 z"
     sodipodi:nodetypes="caaaaaaascccaaaaccaaacacaaaaaaccssaaaccaaaaccaaacacaaaaaacc" /></g></svg>
