<?xml version="1.0" encoding="UTF-8" standalone="no"?>
<svg
   xml:space="preserve"
   width="1000"
   height="1000"
   version="1.1"
   style="clip-rule:evenodd;fill-rule:evenodd;image-rendering:optimizeQuality;shape-rendering:geometricPrecision;text-rendering:geometricPrecision"
   viewBox="0 0 1000 1000"
   id="svg10"
   sodipodi:docname="ധ.svg"
   inkscape:version="1.1.2 (0a00cf5339, 2022-02-04)"
   xmlns:inkscape="http://www.inkscape.org/namespaces/inkscape"
   xmlns:sodipodi="http://sodipodi.sourceforge.net/DTD/sodipodi-0.dtd"
   xmlns="http://www.w3.org/2000/svg"
   xmlns:svg="http://www.w3.org/2000/svg"
   xmlns:rdf="http://www.w3.org/1999/02/22-rdf-syntax-ns#"
   xmlns:cc="http://creativecommons.org/ns#"
   xmlns:dc="http://purl.org/dc/elements/1.1/"><metadata
   id="metadata14"><rdf:RDF><cc:Work
       rdf:about=""><dc:format>image/svg+xml</dc:format><dc:type
         rdf:resource="http://purl.org/dc/dcmitype/StillImage" /></cc:Work></rdf:RDF></metadata><sodipodi:namedview
   pagecolor="#ffffff"
   bordercolor="#666666"
   borderopacity="1"
   objecttolerance="10"
   gridtolerance="10"
   guidetolerance="10"
   inkscape:pageopacity="0"
   inkscape:pageshadow="2"
   inkscape:window-width="1920"
   inkscape:window-height="1009"
   id="namedview12"
   showgrid="false"
   inkscape:zoom="0.9588368"
   inkscape:cx="315.48643"
   inkscape:cy="589.25565"
   inkscape:window-x="0"
   inkscape:window-y="0"
   inkscape:window-maximized="1"
   inkscape:current-layer="svg10"
   showguides="true"
   inkscape:guide-bbox="true"
   inkscape:document-rotation="0"
   inkscape:snap-to-guides="true"
   inkscape:pagecheckerboard="0"><sodipodi:guide
     position="0,1000"
     orientation="0,1"
     id="guide16"
     inkscape:label=""
     inkscape:locked="true"
     inkscape:color="rgb(0,0,255)" /><sodipodi:guide
     position="1763.3122,2036.1693"
     orientation="1000,0"
     id="guide18" /><sodipodi:guide
     position="0,200"
     orientation="0,1"
     id="guide20"
     inkscape:label="base"
     inkscape:locked="true"
     inkscape:color="rgb(0,0,255)" /><inkscape:grid
     type="xygrid"
     id="grid24"
     originx="-473.37552"
     originy="-489.69235" /><sodipodi:guide
     position="0,0"
     orientation="0,1"
     id="guide34"
     inkscape:label="bottom"
     inkscape:locked="true"
     inkscape:color="rgb(0,0,255)" /><sodipodi:guide
     position="225.05109,1693.3186"
     orientation="0,1"
     id="guide44"
     inkscape:label=""
     inkscape:locked="false"
     inkscape:color="rgb(0,0,255)" /><sodipodi:guide
     position="0,900"
     orientation="0,1"
     id="guide46"
     inkscape:label=""
     inkscape:locked="true"
     inkscape:color="rgb(0,0,255)" /><sodipodi:guide
     position="778.78863,579.95671"
     orientation="-1,0"
     id="guide841"
     inkscape:label="width"
     inkscape:locked="false"
     inkscape:color="rgb(0,0,255)" /><sodipodi:guide
     position="0,1000"
     orientation="0,1000"
     id="guide860" /><sodipodi:guide
     position="1000,1000"
     orientation="1000,0"
     id="guide862" /><sodipodi:guide
     position="1000,0"
     orientation="0,-1000"
     id="guide864" /><sodipodi:guide
     position="0,0"
     orientation="-1000,0"
     id="guide866" /></sodipodi:namedview>
 <defs
   id="defs4"><inkscape:path-effect
   effect="fillet_chamfer"
   id="path-effect857"
   is_visible="true"
   lpeversion="1"
   satellites_param="F,0,1,1,0,18.142978,0,1 @ F,0,0,1,0,0,0,1 @ F,0,0,1,0,0,0,1 @ F,0,0,1,0,0,0,1 @ F,0,0,1,0,0,0,1 @ F,0,0,1,0,0,0,1 @ F,0,0,1,0,0,0,1 @ F,0,0,1,0,0,0,1 @ F,0,0,1,0,0,0,1 @ F,0,0,1,0,0,0,1 @ F,0,0,1,0,0,0,1 @ F,0,0,1,0,0,0,1 @ F,0,0,1,0,0,0,1 @ F,0,0,1,0,0,0,1 @ F,0,0,1,0,0,0,1 @ F,0,0,1,0,0,0,1 @ F,0,0,1,0,0,0,1 @ F,0,1,1,0,18.142978,0,1 @ F,0,1,1,0,18.142978,0,1 @ F,0,0,1,0,0,0,1 @ F,0,0,1,0,0,0,1 @ F,0,0,1,0,0,0,1 @ F,0,0,1,0,0,0,1 @ F,0,0,1,0,0,0,1 @ F,0,0,1,0,0,0,1 @ F,0,0,1,0,0,0,1 @ F,0,0,1,0,0,0,1 @ F,0,0,1,0,0,0,1 @ F,0,0,1,0,0,0,1 @ F,0,1,1,0,18.142978,0,1 @ F,0,1,1,0,18.142978,0,1 @ F,0,0,1,0,0,0,1 @ F,0,0,1,0,0,0,1 @ F,0,0,1,0,0,0,1 @ F,0,0,1,0,0,0,1 @ F,0,0,1,0,0,0,1 @ F,0,0,1,0,0,0,1 @ F,0,0,1,0,0,0,1 @ F,0,0,1,0,0,0,1 @ F,0,0,1,0,0,0,1 @ F,0,0,1,0,0,0,1 @ F,0,1,1,0,18.142978,0,1"
   unit="px"
   method="auto"
   mode="F"
   radius="0"
   chamfer_steps="1"
   flexible="false"
   use_knot_distance="true"
   apply_no_radius="true"
   apply_with_radius="true"
   only_selected="true"
   hide_knots="false" /><inkscape:path-effect
   effect="spiro"
   id="path-effect862"
   is_visible="true"
   lpeversion="1" /><inkscape:path-effect
   effect="spiro"
   id="path-effect1521"
   is_visible="true"
   lpeversion="1" /><inkscape:path-effect
   effect="spiro"
   id="path-effect858"
   is_visible="true"
   lpeversion="1" /><inkscape:path-effect
   effect="spiro"
   id="path-effect854"
   is_visible="true"
   lpeversion="1" />
  <style
   type="text/css"
   id="style2">
   
    .fil0 {fill:#EF7F1A;fill-rule:nonzero}
   
  </style>
 <inkscape:path-effect
   effect="spiro"
   id="path-effect1214"
   is_visible="true"
   lpeversion="1" /><inkscape:path-effect
   effect="spiro"
   id="path-effect1195"
   is_visible="true"
   lpeversion="1" /><inkscape:path-effect
   effect="spiro"
   id="path-effect992"
   is_visible="true"
   lpeversion="1" /><inkscape:path-effect
   effect="spiro"
   id="path-effect287"
   is_visible="true"
   lpeversion="1" /><inkscape:path-effect
   effect="spiro"
   id="path-effect1032"
   is_visible="true"
   lpeversion="1" /><inkscape:path-effect
   effect="spiro"
   id="path-effect1218"
   is_visible="true"
   lpeversion="1" /><inkscape:path-effect
   effect="spiro"
   id="path-effect309"
   is_visible="true"
   lpeversion="1" /><inkscape:path-effect
   effect="spiro"
   id="path-effect1176"
   is_visible="true"
   lpeversion="1" /><inkscape:path-effect
   effect="spiro"
   id="path-effect1026"
   is_visible="true"
   lpeversion="1" /><inkscape:path-effect
   effect="spiro"
   id="path-effect1030"
   is_visible="true"
   lpeversion="1" /></defs>
 
<path
   style="display:inline;fill:#3d3846;stroke:none;stroke-width:2.09522px;stroke-linecap:butt;stroke-linejoin:miter;stroke-opacity:1"
   d="m 332.92539,189.16869 c -34.1348,17.11288 -65.82784,39.09511 -93.79298,65.0963 -34.45784,32.03792 -63.0954,69.95289 -87.55113,110.14851 -23.22256,38.16877 -43.14238,79.6704 -47.32869,124.15206 -2.09316,22.24082 -0.13124,45.00105 7.1043,66.13592 7.23554,21.13486 19.87187,40.59018 37.16134,54.73621 15.6147,12.77575 34.93535,21.05443 55.00066,23.15738 20.0653,2.10296 40.79754,-2.03558 58.32767,-12.02224 14.95886,-8.52184 27.39278,-21.08795 37.01426,-35.36439 9.62147,-14.27643 16.52194,-30.24714 21.77548,-46.64194 22.29704,-69.58271 14.80507,-146.33621 -10.17472,-215.00149 -7.90283,-21.72355 -17.5028,-42.82946 -28.68362,-63.06202 l 164.01333,4.12025 c -6.46235,28.84137 -11.15124,58.08 -14.03136,87.49584 -3.98386,40.68873 -4.48872,81.91644 1.84162,122.30667 6.33034,40.39024 19.66331,80.00448 41.89253,114.31637 18.5935,28.69998 44.04957,53.92082 75.69035,66.89264 10.22013,4.18996 21.01727,7.05441 31.98366,8.30754 9.9436,1.13626 26.31097,0.28685 36.0445,-2.0349 4.86837,-1.16125 9.64602,-2.69055 14.26877,-4.58733 9.25443,-3.79723 22.89525,-12.95608 29.94405,-20.05456 6.4566,-6.50209 11.99954,-13.93399 16.51904,-21.91182 7.50336,-13.24495 12.23463,-27.969 14.65878,-42.99739 4.84831,-30.05679 0.55479,-60.86627 -6.19963,-90.55287 C 669.27891,397.74784 629.69892,317.7112 570.39335,255.14966 540.75892,223.88826 506.39454,197.11869 468.83222,176.03441 L 561.62666,61.66125 c 17.43646,36.224745 35.67482,72.0635 54.69721,107.48117 35.37172,65.85839 73.50179,130.35634 104.31417,198.46716 30.81239,68.11081 54.33601,140.52967 58.52729,215.16826 2.08555,37.13961 -0.74927,75.01381 -13.19586,110.0678 -10.41695,29.33782 -27.98631,56.64644 -51.98016,76.25186 -7.7537,6.33556 -21.63375,14.93189 -30.76375,19.04299 -14.15882,6.3755 -29.36667,10.43139 -44.83498,12.20035 -9.94981,1.13786 -26.25464,1.11842 -36.21064,0.0314 -21.44339,-2.34126 -42.45139,-8.71786 -61.86399,-18.18103 -49.70662,-24.23075 -87.90378,-67.79485 -115.10206,-115.94182 -18.45096,-32.66226 -32.43566,-67.84362 -41.44351,-104.25955 -4.27221,53.78805 -27.26459,105.90874 -64.10948,145.32777 -29.38109,31.43378 -67.79434,54.9346 -109.89587,63.81108 -42.10154,8.87649 -87.77045,2.51179 -124.364741,-20.1198 C 56.687202,733.25139 34.266473,706.10538 20.172872,675.42737 6.0792715,644.74936 0.09873714,610.66452 0.60468511,576.90783 1.6165811,509.39446 27.835881,444.76663 59.274313,385.01126 99.903613,307.7867 150.03722,235.23603 182.10634,154.0822 c 8.40787,-21.27687 15.53295,-43.06047 21.32627,-65.192657 2.53726,-9.69309 10.7255,-12.634104 18.6342,-6.48149 l 112.93603,87.859157 c 7.9087,6.15261 6.87925,14.4112 -2.07745,18.90148 z"
   id="path1087-1-75"
   inkscape:path-effect="#path-effect1030;#path-effect857"
   inkscape:original-d="m 349.32281,181.4075 c 0,0 -77.72412,43.11115 -110.1904,72.85749 -34.58141,31.68426 -71.81962,65.96383 -87.55113,110.14851 -27.39705,76.94937 -57.544498,184.16718 -3.06305,245.02419 25.31807,28.28086 78.75401,26.80126 113.32833,11.13514 30.63585,-13.88154 49.25768,-49.75122 58.78974,-82.00633 20.33354,-68.80576 6.67648,-145.2611 -10.17472,-215.00149 -5.42382,-22.44699 -28.68362,-63.06202 -28.68362,-63.06202 l 164.01333,4.12025 c 0,0 -14.38214,57.96 -14.03136,87.49584 0.95254,80.20458 -8.58235,175.82283 43.73415,236.62304 40.01723,46.50646 120.27483,89.74012 173.97991,60.07543 50.03776,-27.639 46.08593,-110.30011 38.92961,-167.01412 C 677.74012,397.29507 645.22339,327.00308 570.39335,255.14966 539.84276,225.01317 468.83222,176.03441 468.83222,176.03441 L 561.62666,61.66125 c 0,0 46.43241,-12.41638 54.69721,107.48117 8.26479,119.89776 163.62879,265.45905 162.84146,413.63542 -0.3763,70.82141 -14.59635,169.51627 -79.92719,196.86015 -91.18751,38.16613 -204.6155,-43.00233 -274.02425,-113.38861 -26.25898,-26.62879 -41.44351,-104.25955 -41.44351,-104.25955 0,0 -22.60422,112.45429 -64.10948,145.32777 C 257.39242,756.63609 148.27013,799.55837 85.400289,751.00888 -11.405066,676.2535 33.922282,504.66456 59.274313,385.01126 77.346458,299.71661 148.59214,234.57164 182.10634,154.0822 c 11.10793,-26.67744 12.87623,-48.63191 25.6405,-82.81444 z"
   sodipodi:nodetypes="caaaaaaccaaaacccsaaacaaaacc" /><text
   text-anchor="middle"
   x="693.51324"
   y="786.68048"
   id="bottom"
   inkscape:label="bottom"
   style="clip-rule:evenodd;fill-rule:evenodd;image-rendering:optimizeQuality;shape-rendering:geometricPrecision;text-rendering:geometricPrecision">✛</text></svg>
