<?xml version="1.0" encoding="UTF-8" standalone="no"?>
<svg
   xmlns:dc="http://purl.org/dc/elements/1.1/"
   xmlns:cc="http://creativecommons.org/ns#"
   xmlns:rdf="http://www.w3.org/1999/02/22-rdf-syntax-ns#"
   xmlns:svg="http://www.w3.org/2000/svg"
   xmlns="http://www.w3.org/2000/svg"
   xmlns:sodipodi="http://sodipodi.sourceforge.net/DTD/sodipodi-0.dtd"
   xmlns:inkscape="http://www.inkscape.org/namespaces/inkscape"
   xml:space="preserve"
   width="1000"
   height="1000"
   version="1.1"
   style="clip-rule:evenodd;fill-rule:evenodd;image-rendering:optimizeQuality;shape-rendering:geometricPrecision;text-rendering:geometricPrecision"
   viewBox="0 0 1000 1000"
   id="svg10"
   sodipodi:docname="เดงเต.svg"
   inkscape:version="1.0.2 (e86c870879, 2021-01-15)"><metadata
   id="metadata14"><rdf:RDF><cc:Work
       rdf:about=""><dc:format>image/svg+xml</dc:format><dc:type
         rdf:resource="http://purl.org/dc/dcmitype/StillImage" /><dc:title /></cc:Work></rdf:RDF></metadata><sodipodi:namedview
   pagecolor="#ffffff"
   bordercolor="#666666"
   borderopacity="1"
   objecttolerance="10"
   gridtolerance="10"
   guidetolerance="10"
   inkscape:pageopacity="0"
   inkscape:pageshadow="2"
   inkscape:window-width="1920"
   inkscape:window-height="1007"
   id="namedview12"
   showgrid="false"
   inkscape:zoom="0.9588368"
   inkscape:cx="315.44364"
   inkscape:cy="380.18713"
   inkscape:window-x="1920"
   inkscape:window-y="0"
   inkscape:window-maximized="1"
   inkscape:current-layer="svg10"
   showguides="true"
   inkscape:guide-bbox="true"
   inkscape:document-rotation="0"
   inkscape:snap-to-guides="true"><sodipodi:guide
     position="0,1000"
     orientation="0,1"
     id="guide16"
     inkscape:label=""
     inkscape:locked="true"
     inkscape:color="rgb(0,0,255)" /><sodipodi:guide
     position="1763.3122,2036.1693"
     orientation="1000,0"
     id="guide18" /><sodipodi:guide
     position="0,200"
     orientation="0,1"
     id="guide20"
     inkscape:label="base"
     inkscape:locked="true"
     inkscape:color="rgb(0,0,255)" /><inkscape:grid
     type="xygrid"
     id="grid24"
     originx="-473.37552"
     originy="-489.69235" /><sodipodi:guide
     position="0,0"
     orientation="0,1"
     id="guide34"
     inkscape:label="bottom"
     inkscape:locked="true"
     inkscape:color="rgb(0,0,255)" /><sodipodi:guide
     position="225.05109,1693.3186"
     orientation="0,1"
     id="guide44"
     inkscape:label=""
     inkscape:locked="false"
     inkscape:color="rgb(0,0,255)" /><sodipodi:guide
     position="0,900"
     orientation="0,1"
     id="guide46"
     inkscape:label=""
     inkscape:locked="true"
     inkscape:color="rgb(0,0,255)" /><sodipodi:guide
     position="778.78863,579.95671"
     orientation="-1,0"
     id="guide841"
     inkscape:label="width"
     inkscape:locked="false"
     inkscape:color="rgb(0,0,255)" /><sodipodi:guide
     position="0,1000"
     orientation="0,1000"
     id="guide860" /><sodipodi:guide
     position="1000,1000"
     orientation="1000,0"
     id="guide862" /><sodipodi:guide
     position="1000,0"
     orientation="0,-1000"
     id="guide864" /><sodipodi:guide
     position="0,0"
     orientation="-1000,0"
     id="guide866" /></sodipodi:namedview>
 <defs
   id="defs4"><inkscape:path-effect
   effect="fillet_chamfer"
   id="path-effect857"
   is_visible="true"
   lpeversion="1"
   satellites_param="F,0,0,1,0,0,0,1 @ F,0,0,1,0,0,0,1 @ F,0,0,1,0,0,0,1 @ F,0,0,1,0,0,0,1 @ F,0,0,1,0,0,0,1 @ F,0,0,1,0,0,0,1 @ F,0,0,1,0,0,0,1 @ F,0,0,1,0,0,0,1 @ F,0,0,1,0,0,0,1 @ F,0,0,1,0,0,0,1 @ F,0,0,1,0,0,0,1 @ F,0,0,1,0,0,0,1 @ F,0,1,1,0,18.627601,0,1 @ F,0,1,1,0,18.627601,0,1 @ F,0,0,1,0,0,0,1 @ F,0,0,1,0,0,0,1 @ F,0,0,1,0,0,0,1 @ F,0,0,1,0,0,0,1 @ F,0,0,1,0,0,0,1 @ F,0,0,1,0,0,0,1 @ F,0,0,1,0,0,0,1 @ F,0,0,1,0,0,0,1 @ F,0,0,1,0,0,0,1 @ F,0,0,1,0,0,0,1 @ F,0,1,1,0,18.627601,0,1 @ F,0,1,1,0,18.627601,0,1 @ F,0,0,1,0,0,0,1 @ F,0,0,1,0,0,0,1 @ F,0,0,1,0,0,0,1 @ F,0,0,1,0,0,0,1 @ F,0,0,1,0,0,0,1 @ F,0,0,1,0,0,0,1 @ F,0,0,1,0,0,0,1 @ F,0,0,1,0,0,0,1 @ F,0,0,1,0,0,0,1 @ F,0,0,1,0,0,0,1 @ F,0,1,1,0,18.627601,0,1 @ F,0,1,1,0,18.627601,0,1 @ F,0,0,1,0,0,0,1 @ F,0,0,1,0,0,0,1 @ F,0,0,1,0,0,0,1 @ F,0,0,1,0,0,0,1 @ F,0,0,1,0,0,0,1 @ F,0,0,1,0,0,0,1 @ F,0,0,1,0,0,0,1 @ F,0,0,1,0,0,0,1 @ F,0,0,1,0,0,0,1 @ F,0,0,1,0,0,0,1 @ F,0,0,1,0,0,0,1 @ F,0,0,1,0,0,0,1 @ F,0,0,1,0,0,0,1 @ F,0,0,1,0,0,0,1 @ F,0,0,1,0,0,0,1 @ F,0,0,1,0,0,0,1 @ F,0,0,1,0,0,0,1 @ F,0,0,1,0,0,0,1 @ F,0,0,1,0,0,0,1 @ F,0,0,1,0,0,0,1 @ F,0,0,1,0,0,0,1 @ F,0,0,1,0,0,0,1 @ F,0,0,1,0,0,0,1"
   unit="px"
   method="auto"
   mode="F"
   radius="0"
   chamfer_steps="1"
   flexible="false"
   use_knot_distance="true"
   apply_no_radius="true"
   apply_with_radius="true"
   only_selected="true"
   hide_knots="false" /><inkscape:path-effect
   effect="spiro"
   id="path-effect862"
   is_visible="true"
   lpeversion="1" /><inkscape:path-effect
   effect="spiro"
   id="path-effect1521"
   is_visible="true"
   lpeversion="1" /><inkscape:path-effect
   effect="spiro"
   id="path-effect858"
   is_visible="true"
   lpeversion="1" /><inkscape:path-effect
   effect="spiro"
   id="path-effect854"
   is_visible="true"
   lpeversion="1" />
  <style
   type="text/css"
   id="style2">
   <![CDATA[
    .fil0 {fill:#EF7F1A;fill-rule:nonzero}
   ]]>
  </style>
 <inkscape:path-effect
   effect="spiro"
   id="path-effect1214"
   is_visible="true"
   lpeversion="1" /><inkscape:path-effect
   effect="spiro"
   id="path-effect1195"
   is_visible="true"
   lpeversion="1" /><inkscape:path-effect
   effect="spiro"
   id="path-effect992"
   is_visible="true"
   lpeversion="1" /><inkscape:path-effect
   effect="spiro"
   id="path-effect287"
   is_visible="true"
   lpeversion="1" /><inkscape:path-effect
   effect="spiro"
   id="path-effect1032"
   is_visible="true"
   lpeversion="1" /><inkscape:path-effect
   effect="spiro"
   id="path-effect1218"
   is_visible="true"
   lpeversion="1" /><inkscape:path-effect
   effect="spiro"
   id="path-effect309"
   is_visible="true"
   lpeversion="1" /><inkscape:path-effect
   effect="spiro"
   id="path-effect1176"
   is_visible="true"
   lpeversion="1" /><inkscape:path-effect
   effect="spiro"
   id="path-effect1026"
   is_visible="true"
   lpeversion="1" /><inkscape:path-effect
   effect="spiro"
   id="path-effect1030"
   is_visible="true"
   lpeversion="1" /></defs>
 
<path
   style="display:inline;fill:#1a1a1a;fill-rule:nonzero;stroke:none;stroke-width:2.09522px;stroke-linecap:butt;stroke-linejoin:miter;stroke-opacity:1"
   d="m 441.47206,779.95366 c -51.62151,0.62843 -104.96111,8.05311 -148.79597,35.3236 -21.91743,13.63525 -41.0252,32.18316 -53.68353,54.67894 -12.65832,22.49579 -18.62081,49.02276 -14.96184,74.57478 2.65915,18.5699 10.30692,36.3026 21.32826,51.48294 11.02133,15.18038 25.35778,27.83878 41.36538,37.61988 32.01521,19.5621 70.05136,27.4097 107.54821,28.6889 67.51696,2.3033 135.26127,-15.9729 193.76599,-49.7523 C 646.54327,978.79112 695.83694,929.81175 732.17623,872.86177 789.51821,782.99692 814.2572,672.56275 799.45384,566.99451 789.07676,492.99171 760.14223,422.66858 724.4022,357.04277 688.66216,291.41696 646.03816,229.84155 605.90457,166.8067 587.64783,138.13219 569.89519,109.13672 552.65757,79.838254 547.44076,70.971341 538.5118,70.606983 532.65052,79.061749 L 469.96446,169.4851 c -5.86128,8.45477 -3.0314,18.7952 6.09499,23.54175 32.70628,17.01025 63.21983,38.23606 90.52656,63.00378 63.85146,57.91448 109.35034,134.74086 134.75493,217.11624 8.97235,29.09318 15.5754,59.49151 13.00591,89.82818 -1.28475,15.16834 -4.89299,30.20707 -11.3769,43.97979 -6.4839,13.77273 -15.89414,26.25754 -27.86204,35.66491 -13.44251,10.56649 -29.91902,17.06289 -46.87382,19.27342 -16.95481,2.21053 -34.35834,0.20661 -50.62252,-5.06866 -32.52834,-10.55054 -59.81263,-33.78134 -80.51604,-60.99854 -24.7517,-32.53917 -41.03202,-71.03602 -50.3881,-110.83436 -9.35607,-39.79835 -11.95949,-80.94687 -11.05319,-121.82012 0.51756,-23.34156 2.16887,-46.65791 4.94475,-69.83959 1.22313,-10.21449 -5.87613,-18.04541 -16.15085,-17.52801 l -126.6494,6.37757 c -10.27472,0.5174 -13.99534,7.89292 -8.72088,16.7248 8.66883,14.51563 16.51018,29.52547 23.47115,44.93318 30.08326,66.5876 43.33794,142.55827 26.34793,213.62339 -4.00312,16.74408 -9.68045,33.18939 -18.19871,48.15028 -8.51827,14.9609 -19.96988,28.42827 -34.24401,38.05316 -16.72771,11.2793 -37.08912,16.96842 -57.25585,16.38353 -20.16672,-0.58489 -40.0563,-7.38405 -56.58936,-18.94678 -18.30632,-12.8029 -32.37284,-31.25065 -41.1805,-51.78016 -8.80765,-20.52951 -12.47916,-43.07717 -12.06798,-65.4125 0.82235,-44.67064 17.55803,-87.55539 37.83823,-127.36564 21.35712,-41.92427 47.05604,-81.8895 79.00158,-116.433 25.81653,-27.91606 55.61929,-52.13697 88.20526,-71.72981 8.81594,-5.30072 9.13058,-13.67839 0.43295,-19.17283 L 220.31479,123.17966 c -8.69763,-5.49444 -19.21507,-2.36332 -23.50241,6.98849 -8.31104,18.12851 -16.65291,36.24289 -25.02556,54.34303 -36.61194,79.14836 -73.847892,158.10751 -105.080344,239.52883 -24.029842,62.6445 -44.725145,128.4708 -41.188569,195.47274 1.768288,33.50096 9.758527,66.92004 25.565276,96.51038 15.80675,29.59035 39.656329,55.21555 69.255917,71.00498 38.03272,20.28795 84.23771,23.31158 125.6043,11.19163 41.3666,-12.11996 77.8346,-38.70068 104.6977,-72.41214 33.61306,-42.18222 52.58508,-95.81034 52.97554,-149.74571 8.24136,36.82979 25.23431,71.67084 49.18248,100.83998 26.52924,32.31291 61.57216,57.57207 100.61522,72.52411 39.04307,14.95203 81.99401,19.56161 123.32074,13.235 -10.63427,36.58458 -28.69686,70.99295 -52.7694,100.52315 -56.56652,69.39113 -145.27269,109.09717 -234.66471,113.99262 -17.08457,0.93562 -34.57679,0.63531 -50.77703,-4.87016 -8.10012,-2.75273 -15.80316,-6.81097 -22.33544,-12.33534 -6.53229,-5.52437 -11.86927,-12.5453 -14.98075,-20.5145 -5.1975,-13.31197 -3.82524,-28.74982 2.45618,-41.58596 6.28142,-12.83614 17.16907,-23.12182 29.73261,-29.93212 12.56354,-6.8103 26.74422,-10.29026 40.9819,-11.51956 14.23767,-1.22931 28.58079,-0.27057 42.77521,1.38505 46.2706,5.39696 91.35294,18.14368 135.8004,32.09067 28.54052,8.95562 56.91936,18.42651 85.11802,28.4065 l 61.67639,-88.24259 C 618.25512,796.0441 529.77271,778.8787 441.47206,779.95366 Z"
   id="path1087-1-75"
   inkscape:path-effect="#path-effect1030;#path-effect857"
   inkscape:original-d="m 441.47206,779.95366 c -88.54542,20.55835 -219.37812,73.69726 -217.44134,164.57732 1.47029,68.99092 101.31189,114.54072 170.24185,117.79172 128.98805,6.0835 260.97932,-85.74222 337.90366,-189.46093 62.18751,-83.84873 79.46218,-202.18779 67.27761,-305.86726 C 782.15871,419.82888 676.72727,296.96426 605.90457,166.8067 586.69101,131.49612 543.2633,63.753041 543.2633,63.753041 L 459.35168,184.79381 c 0,0 77.36251,40.42745 107.23433,71.23682 59.29262,61.15356 117.75336,133.65176 134.75493,217.11624 11.40983,56.01345 21.57962,138.14172 -26.23303,169.47288 -51.31689,33.62746 -134.60429,-3.43519 -178.01238,-46.79378 -56.74954,-56.68485 -54.44738,-152.74974 -61.44129,-232.65448 -2.57555,-29.42542 7.39793,-88.30443 7.39793,-88.30443 l -163.85746,8.25123 c 0,0 26.25434,38.74672 33.3543,60.72115 22.0588,68.27221 41.43857,143.48098 26.34793,213.62339 -7.07427,32.88172 -22.94007,70.05271 -52.44272,86.20344 -33.29544,18.22704 -86.46793,23.72927 -113.84521,-2.56325 -58.91261,-56.57834 -36.93063,-165.76314 -15.41025,-244.5583 12.35709,-45.24454 46.90617,-82.23284 79.00158,-116.433 C 266.33267,248.00336 340.587,199.15764 340.587,199.15764 L 204.56634,113.2311 C 194.4143,148.27832 182.50362,160.65583 171.78682,184.51118 136.05811,264.0425 78.299578,337.626 66.706476,424.04001 50.443397,545.26356 18.175579,719.78038 120.3391,787.02811 c 66.34968,43.67368 171.92713,-7.34981 230.302,-61.22051 38.90995,-35.90777 52.97554,-149.74571 52.97554,-149.74571 0,0 21.59977,75.58492 49.18248,100.83998 58.95307,53.97814 139.31149,108.12794 223.93596,85.75911 -8.14072,-8.17448 -25.59536,74.18421 -52.7694,100.52315 -62.44358,60.52459 -147.72715,111.92164 -234.66471,113.99262 -31.93397,0.76072 -84.76131,-5.95122 -88.09322,-37.72 -4.93069,-47.01276 69.53271,-72.6901 115.9459,-81.65259 45.66983,-8.81894 91.06099,19.36701 135.8004,32.09067 28.77014,8.18208 64.93702,14.61882 85.11802,28.4065 l 61.67639,-88.24259 c 0,0 -172.85146,-69.93892 -258.2764,-50.10508 z"
   sodipodi:nodetypes="aaaaaaccaaaaaccaaaaaaccaaaacacaaaaacca" /></svg>
