<?xml version="1.0" encoding="UTF-8" standalone="no"?>
<svg
   xmlns:dc="http://purl.org/dc/elements/1.1/"
   xmlns:cc="http://creativecommons.org/ns#"
   xmlns:rdf="http://www.w3.org/1999/02/22-rdf-syntax-ns#"
   xmlns:svg="http://www.w3.org/2000/svg"
   xmlns="http://www.w3.org/2000/svg"
   xmlns:sodipodi="http://sodipodi.sourceforge.net/DTD/sodipodi-0.dtd"
   xmlns:inkscape="http://www.inkscape.org/namespaces/inkscape"
   xml:space="preserve"
   width="1000"
   height="1000"
   version="1.1"
   style="clip-rule:evenodd;fill-rule:evenodd;image-rendering:optimizeQuality;shape-rendering:geometricPrecision;text-rendering:geometricPrecision"
   viewBox="0 0 1000 1000"
   id="svg10"
   sodipodi:docname="ധ്ര.svg"
   inkscape:version="1.0.1 (3bc2e813f5, 2020-09-07)"><metadata
   id="metadata14"><rdf:RDF><cc:Work
       rdf:about=""><dc:format>image/svg+xml</dc:format><dc:type
         rdf:resource="http://purl.org/dc/dcmitype/StillImage" /><dc:title /></cc:Work></rdf:RDF></metadata><sodipodi:namedview
   pagecolor="#ffffff"
   bordercolor="#666666"
   borderopacity="1"
   objecttolerance="10"
   gridtolerance="10"
   guidetolerance="10"
   inkscape:pageopacity="0"
   inkscape:pageshadow="2"
   inkscape:window-width="1920"
   inkscape:window-height="1015"
   id="namedview12"
   showgrid="false"
   inkscape:zoom="0.678"
   inkscape:cx="349.46417"
   inkscape:cy="609.82304"
   inkscape:window-x="1920"
   inkscape:window-y="0"
   inkscape:window-maximized="1"
   inkscape:current-layer="svg10"
   showguides="true"
   inkscape:guide-bbox="true"
   inkscape:document-rotation="0"
   inkscape:snap-to-guides="true"><sodipodi:guide
     position="0,1000"
     orientation="0,1"
     id="guide16"
     inkscape:label=""
     inkscape:locked="true"
     inkscape:color="rgb(0,0,255)" /><sodipodi:guide
     position="1763.3122,2036.1693"
     orientation="1000,0"
     id="guide18" /><sodipodi:guide
     position="0,200"
     orientation="0,1"
     id="guide20"
     inkscape:label="base"
     inkscape:locked="true"
     inkscape:color="rgb(0,0,255)" /><inkscape:grid
     type="xygrid"
     id="grid24"
     originx="-473.37552"
     originy="-489.69235" /><sodipodi:guide
     position="0,0"
     orientation="0,1"
     id="guide34"
     inkscape:label="bottom"
     inkscape:locked="true"
     inkscape:color="rgb(0,0,255)" /><sodipodi:guide
     position="225.05109,1693.3186"
     orientation="0,1"
     id="guide44"
     inkscape:label=""
     inkscape:locked="false"
     inkscape:color="rgb(0,0,255)" /><sodipodi:guide
     position="0,900"
     orientation="0,1"
     id="guide46"
     inkscape:label=""
     inkscape:locked="true"
     inkscape:color="rgb(0,0,255)" /><sodipodi:guide
     position="949.90291,566.67609"
     orientation="-1,0"
     id="guide841"
     inkscape:label="width"
     inkscape:locked="false"
     inkscape:color="rgb(0,0,255)" /><sodipodi:guide
     position="0,1000"
     orientation="0,1000"
     id="guide860" /><sodipodi:guide
     position="1000,1000"
     orientation="1000,0"
     id="guide862" /><sodipodi:guide
     position="1000,0"
     orientation="0,-1000"
     id="guide864" /><sodipodi:guide
     position="0,0"
     orientation="-1000,0"
     id="guide866" /></sodipodi:namedview>
 <defs
   id="defs4"><inkscape:path-effect
   effect="spiro"
   id="path-effect862"
   is_visible="true"
   lpeversion="1" /><inkscape:path-effect
   effect="spiro"
   id="path-effect1521"
   is_visible="true"
   lpeversion="1" /><inkscape:path-effect
   effect="spiro"
   id="path-effect858"
   is_visible="true"
   lpeversion="1" /><inkscape:path-effect
   effect="spiro"
   id="path-effect854"
   is_visible="true"
   lpeversion="1" />
  <style
   type="text/css"
   id="style2">
   <![CDATA[
    .fil0 {fill:#EF7F1A;fill-rule:nonzero}
   ]]>
  </style>
 <inkscape:path-effect
   effect="spiro"
   id="path-effect1214"
   is_visible="true"
   lpeversion="1" /><inkscape:path-effect
   effect="spiro"
   id="path-effect1195"
   is_visible="true"
   lpeversion="1" /><inkscape:path-effect
   effect="spiro"
   id="path-effect992"
   is_visible="true"
   lpeversion="1" /><inkscape:path-effect
   effect="spiro"
   id="path-effect287"
   is_visible="true"
   lpeversion="1" /><inkscape:path-effect
   effect="spiro"
   id="path-effect1032"
   is_visible="true"
   lpeversion="1" /><inkscape:path-effect
   effect="spiro"
   id="path-effect1218"
   is_visible="true"
   lpeversion="1" /><inkscape:path-effect
   effect="spiro"
   id="path-effect309"
   is_visible="true"
   lpeversion="1" /><inkscape:path-effect
   effect="spiro"
   id="path-effect1176"
   is_visible="true"
   lpeversion="1" /><inkscape:path-effect
   effect="spiro"
   id="path-effect1026"
   is_visible="true"
   lpeversion="1" /><inkscape:path-effect
   effect="spiro"
   id="path-effect1030"
   is_visible="true"
   lpeversion="1" /></defs>
 
<path
   style="display:inline;fill:#1a1a1a;stroke:none;stroke-width:2.09522px;stroke-linecap:butt;stroke-linejoin:miter;stroke-opacity:1"
   d="m 371.0798,93.497633 c -6.43023,28.201757 -15.01005,55.913127 -25.6405,82.814437 -32.06912,81.15383 -82.20273,153.7045 -122.83203,230.92906 -31.43843,59.75537 -57.65773,124.3832 -58.66963,191.89657 -0.50594,33.75669 5.47459,67.84153 19.56819,98.51954 14.0936,30.67801 36.51433,57.82402 65.22742,75.58151 36.59429,22.63159 82.2632,28.99628 124.36474,20.1198 42.10153,-8.87648 80.51478,-32.3773 109.89587,-63.81108 36.84489,-39.41903 59.83727,-91.53972 64.10948,-145.32777 5.78713,37.26694 20.06652,73.18963 41.44351,104.25955 26.99456,39.23465 65.34385,70.55923 109.17742,89.17862 43.83358,18.61939 93.00328,24.47065 139.9823,16.6581 -11.60128,21.13172 -26.71313,40.33075 -44.52825,56.57146 -34.25182,31.22481 -77.8677,50.95547 -122.95671,61.68661 -45.089,10.73115 -91.80507,12.85869 -138.14763,12.12187 -58.65613,-0.9326 -117.56242,-6.44404 -174.15547,-21.89197 C 301.32546,887.35601 246.95296,861.65682 202.48397,823.39561 142.05532,771.40268 102.11777,697.44594 86.376304,619.29805 70.634839,541.15016 78.36017,459.14429 103.14412,383.37727 132.88952,292.4426 187.24262,209.68792 258.87799,146.26649 L 96.635719,100 c -39.596103,93.28142 -67.17963,191.65407 -81.854801,291.92328 -12.5402832,85.68243 -15.60532039,173.54356 0.952586,258.54105 16.557907,84.99749 53.64055,167.25415 113.789606,229.55044 54.29883,56.23722 125.58471,94.40888 200.66494,116.17922 75.08022,21.77031 154.01814,27.75611 232.16393,25.70091 52.5465,-1.382 105.33956,-6.4083 155.88651,-20.8323 50.54694,-14.42397 98.96882,-38.63032 137.04123,-74.87307 40.95843,-38.99007 68.63576,-90.88839 82.28923,-145.76463 14.21511,-57.13357 13.66576,-117.19358 4.92934,-175.41719 C 920.40308,457.75488 847.98944,323.66836 779.65683,191.37229 761.20869,155.65557 742.97584,119.82765 724.95962,83.891123 L 632.16518,198.26428 c 37.56232,21.08428 71.9267,47.85385 101.56113,79.11525 59.30557,62.56154 98.88556,142.59818 118.01025,226.65377 6.75442,29.6866 11.04794,60.49608 6.19963,90.55287 -2.42415,15.02839 -7.15542,29.75244 -14.65878,42.99739 -7.50335,13.24495 -17.82767,24.98512 -30.47046,33.46386 -14.20056,9.52344 -31.11977,14.75973 -48.19295,15.68629 -17.07318,0.92655 -34.27621,-2.38317 -50.09661,-8.86908 -31.64078,-12.97182 -57.09685,-38.19266 -75.69035,-66.89264 -22.22922,-34.31189 -35.56219,-73.92613 -41.89253,-114.31637 -6.33034,-40.39023 -5.82548,-81.61794 -1.84162,-122.30667 2.88012,-29.41584 7.56901,-58.65447 14.03136,-87.49584 l -164.01333,-4.12025 c 11.18082,20.23256 20.78079,41.33847 28.68362,63.06202 24.97979,68.66528 32.47176,145.41878 10.17472,215.00149 -5.25354,16.3948 -12.15401,32.36551 -21.77548,46.64194 -9.62148,14.27644 -22.0554,26.84255 -37.01426,35.36439 -17.53013,9.98666 -38.26237,14.1252 -58.32767,12.02224 -20.06531,-2.10295 -39.38596,-10.38163 -55.00066,-23.15738 -17.28947,-14.14603 -29.9258,-33.60135 -37.16134,-54.73621 -7.23554,-21.13487 -9.19746,-43.8951 -7.1043,-66.13592 4.18631,-44.48166 24.10613,-85.98329 47.32869,-124.15206 24.45573,-40.19562 53.09329,-78.11059 87.55113,-110.14851 32.39425,-30.11925 69.79076,-54.84568 110.1904,-72.85749 z"
   id="path1087-1-75"
   inkscape:path-effect="#path-effect1030"
   inkscape:original-d="m 371.0798,93.497633 c -12.76427,34.182527 -14.53257,56.136997 -25.6405,82.814437 -33.5142,80.48944 -104.75988,145.63441 -122.83203,230.92906 -25.35203,119.6533 -70.67938,291.24224 26.12598,365.99762 62.86984,48.54949 171.99213,5.62721 234.26061,-43.69128 41.50526,-32.87348 64.10948,-145.32777 64.10948,-145.32777 0,0 15.30923,77.5084 41.44351,104.25955 63.05758,64.54598 192.14852,70.07904 249.15972,105.83672 1.1039,-0.46203 -24.58375,43.22543 -44.52825,56.57146 -75.16846,50.29965 -170.66487,74.83492 -261.10434,73.80848 C 417.14598,923.39153 280.60309,907.7019 202.48397,823.39561 100.28465,713.10194 76.291145,531.32426 103.14412,383.37727 120.03125,290.33726 227.25854,205.28831 258.87799,146.26649 L 96.635719,100 c -1.56684,24.85806 -79.708081,190.88537 -81.854801,291.92328 -3.55021,167.09466 1.74312,364.94751 114.742192,488.09149 102.65298,111.86902 280.99901,141.80623 432.82887,141.88013 102.72193,0.05 213.46407,-30.61065 292.92774,-95.70537 43.16277,-35.35789 67.35216,-92.00509 82.28923,-145.76463 15.65972,-56.3604 15.0262,-117.79971 4.92934,-175.41719 C 916.92133,459.05339 840.4697,326.49682 779.65683,191.37229 763.15884,154.71421 724.95962,83.891123 724.95962,83.891123 L 632.16518,198.26428 c 0,0 71.01054,48.97876 101.56113,79.11525 74.83004,71.85342 107.34677,142.14541 118.01025,226.65377 7.15632,56.71401 11.10815,139.37512 -38.92961,167.01412 -53.70508,29.66469 -133.96268,-13.56897 -173.97991,-60.07543 -52.3165,-60.80021 -42.78161,-156.41846 -43.73415,-236.62304 -0.35078,-29.53584 14.03136,-87.49584 14.03136,-87.49584 l -164.01333,-4.12025 c 0,0 23.2598,40.61503 28.68362,63.06202 16.8512,69.74039 30.50826,146.19573 10.17472,215.00149 -9.53206,32.25511 -28.15389,68.12479 -58.78974,82.00633 -34.57432,15.66612 -88.01026,17.14572 -113.32833,-11.13514 -54.48145,-60.85701 -24.334,-168.07482 3.06305,-245.02419 15.73151,-44.18468 52.96972,-78.46425 87.55113,-110.14851 32.46628,-29.74634 110.1904,-72.85749 110.1904,-72.85749 z"
   sodipodi:nodetypes="caaaacacaaaaccaaaaaaacccaaaaccaaaaaacc" /></svg>
