<svg xmlns="http://www.w3.org/2000/svg" xmlns:dc="http://purl.org/dc/elements/1.1/" xmlns:ns1="http://sodipodi.sourceforge.net/DTD/sodipodi-0.dtd" xmlns:ns2="http://www.inkscape.org/namespaces/inkscape" xmlns:ns4="http://creativecommons.org/ns#" xmlns:rdf="http://www.w3.org/1999/02/22-rdf-syntax-ns#" xml:space="preserve" width="1000" height="1000" version="1.1" style="clip-rule:evenodd;fill-rule:evenodd;image-rendering:optimizeQuality;shape-rendering:geometricPrecision;text-rendering:geometricPrecision" viewBox="0 0 1000 1000" id="svg10" ns1:docname="ന.svg" ns2:version="1.1.1 (3bf5ae0d25, 2021-09-20)"><metadata id="metadata14"><rdf:RDF><ns4:Work rdf:about=""><dc:format>image/svg+xml</dc:format><dc:type rdf:resource="http://purl.org/dc/dcmitype/StillImage" /></ns4:Work></rdf:RDF></metadata><ns1:namedview pagecolor="#ffffff" bordercolor="#666666" borderopacity="1" objecttolerance="10" gridtolerance="10" guidetolerance="10" ns2:pageopacity="0" ns2:pageshadow="2" ns2:window-width="1920" ns2:window-height="1009" id="namedview12" showgrid="false" ns2:zoom="0.9588368" ns2:cx="355.11778" ns2:cy="404.65698" ns2:window-x="0" ns2:window-y="0" ns2:window-maximized="1" ns2:current-layer="svg10" showguides="true" ns2:guide-bbox="true" ns2:document-rotation="0" ns2:snap-to-guides="true" ns2:snap-grids="true" ns2:pagecheckerboard="0"><ns1:guide position="0,1000" orientation="0,1" id="guide16" ns2:label="" ns2:locked="true" ns2:color="rgb(0,0,255)" /><ns1:guide position="1763.3122,2036.1693" orientation="1000,0" id="guide18" /><ns1:guide position="0,200" orientation="0,1" id="guide20" ns2:label="base" ns2:locked="true" ns2:color="rgb(0,0,255)" /><ns2:grid type="xygrid" id="grid24" originx="-473.37552" originy="-489.69235" /><ns1:guide position="0,0" orientation="0,1" id="guide34" ns2:label="bottom" ns2:locked="true" ns2:color="rgb(0,0,255)" /><ns1:guide position="225.05109,1693.3186" orientation="0,1" id="guide44" ns2:label="" ns2:locked="false" ns2:color="rgb(0,0,255)" /><ns1:guide position="0,900" orientation="0,1" id="guide46" ns2:label="" ns2:locked="true" ns2:color="rgb(0,0,255)" /><ns1:guide position="787.36289,827.49949" orientation="-1,0" id="guide841" ns2:label="width" ns2:locked="false" ns2:color="rgb(0,0,255)" /><ns1:guide position="0,1000" orientation="0,1000" id="guide860" /><ns1:guide position="1000,1000" orientation="1000,0" id="guide862" /><ns1:guide position="1000,0" orientation="0,-1000" id="guide864" /><ns1:guide position="0,0" orientation="-1000,0" id="guide866" /></ns1:namedview>
 <defs id="defs4"><ns2:path-effect effect="fillet_chamfer" id="path-effect859" is_visible="true" lpeversion="1" satellites_param="F,0,1,1,0,12.148488,0,1 @ F,0,0,1,0,0,0,1 @ F,0,0,1,0,0,0,1 @ F,0,0,1,0,0,0,1 @ F,0,0,1,0,0,0,1 @ F,0,0,1,0,0,0,1 @ F,0,0,1,0,0,0,1 @ F,0,0,1,0,0,0,1 @ F,0,0,1,0,0,0,1 @ F,0,0,1,0,0,0,1 @ F,0,0,1,0,0,0,1 @ F,0,0,1,0,0,0,1 @ F,0,0,1,0,0,0,1 @ F,0,0,1,0,0,0,1 @ F,0,0,1,0,0,0,1 @ F,0,0,1,0,0,0,1 @ F,0,0,1,0,0,0,1 @ F,0,0,1,0,0,0,1 @ F,0,0,1,0,0,0,1 @ F,0,0,1,0,0,0,1 @ F,0,1,1,0,12.148488,0,1 @ F,0,1,1,0,12.148488,0,1 @ F,0,0,1,0,0,0,1 @ F,0,0,1,0,0,0,1 @ F,0,0,1,0,0,0,1 @ F,0,0,1,0,0,0,1 @ F,0,0,1,0,0,0,1 @ F,0,0,1,0,0,0,1 @ F,0,0,1,0,0,0,1 @ F,0,0,1,0,0,0,1 @ F,0,0,1,0,0,0,1 @ F,0,1,1,0,12.148488,0,1 @ F,0,1,1,0,12.148488,0,1 @ F,0,0,1,0,0,0,1 @ F,0,0,1,0,0,0,1 @ F,0,0,1,0,0,0,1 @ F,0,0,1,0,0,0,1 @ F,0,0,1,0,0,0,1 @ F,0,0,1,0,0,0,1 @ F,0,0,1,0,0,0,1 @ F,0,0,1,0,0,0,1 @ F,0,0,1,0,0,0,1 @ F,0,1,1,0,12.148488,0,1" unit="px" method="auto" mode="F" radius="0" chamfer_steps="1" flexible="false" use_knot_distance="true" apply_no_radius="true" apply_with_radius="true" only_selected="true" hide_knots="false" /><ns2:path-effect effect="fillet_chamfer" id="path-effect857" is_visible="true" lpeversion="1" satellites_param="F,0,0,1,0,26.191177,0,1 @ F,0,0,1,0,0,0,1 @ F,0,0,1,0,0,0,1 @ F,0,0,1,0,0,0,1 @ F,0,0,1,0,0,0,1 @ F,0,0,1,0,0,0,1 @ F,0,0,1,0,0,0,1 @ F,0,0,1,0,0,0,1 @ F,0,0,1,0,0,0,1 @ F,0,0,1,0,0,0,1 @ F,0,0,1,0,0,0,1 @ F,0,0,1,0,0,0,1 @ F,0,0,1,0,0,0,1 @ F,0,0,1,0,0,0,1 @ F,0,0,1,0,0,0,1 @ F,0,0,1,0,0,0,1 @ F,0,0,1,0,0,0,1 @ F,0,0,1,0,34.838769,0,1 @ F,0,0,1,0,27.086102,0,1 @ F,0,0,1,0,0,0,1 @ F,0,0,1,0,0,0,1 @ F,0,0,1,0,0,0,1 @ F,0,0,1,0,0,0,1 @ F,0,0,1,0,0,0,1 @ F,0,0,1,0,0,0,1 @ F,0,0,1,0,0,0,1 @ F,0,0,1,0,0,0,1 @ F,0,0,1,0,0,0,1 @ F,0,0,1,0,25.787644,0,1 @ F,0,0,1,0,23.765083,0,1 @ F,0,0,1,0,0,0,1 @ F,0,0,1,0,0,0,1 @ F,0,0,1,0,0,0,1 @ F,0,0,1,0,0,0,1 @ F,0,0,1,0,0,0,1 @ F,0,0,1,0,0,0,1 @ F,0,0,1,0,0,0,1 @ F,0,0,1,0,0,0,1 @ F,0,0,1,0,0,0,1 @ F,0,0,1,0,25.667557,0,1" unit="px" method="auto" mode="F" radius="0" chamfer_steps="1" flexible="false" use_knot_distance="true" apply_no_radius="true" apply_with_radius="true" only_selected="true" hide_knots="false" /><ns2:path-effect effect="spiro" id="path-effect862" is_visible="true" lpeversion="1" /><ns2:path-effect effect="spiro" id="path-effect1521" is_visible="true" lpeversion="1" /><ns2:path-effect effect="spiro" id="path-effect858" is_visible="true" lpeversion="1" /><ns2:path-effect effect="spiro" id="path-effect854" is_visible="true" lpeversion="1" />
  <style type="text/css" id="style2">
   
    .fil0 {fill:#EF7F1A;fill-rule:nonzero}
   
  </style>
 <ns2:path-effect effect="spiro" id="path-effect1214" is_visible="true" lpeversion="1" /><ns2:path-effect effect="spiro" id="path-effect1195" is_visible="true" lpeversion="1" /><ns2:path-effect effect="spiro" id="path-effect992" is_visible="true" lpeversion="1" /><ns2:path-effect effect="spiro" id="path-effect287" is_visible="true" lpeversion="1" /><ns2:path-effect effect="spiro" id="path-effect1032" is_visible="true" lpeversion="1" /><ns2:path-effect effect="spiro" id="path-effect1218" is_visible="true" lpeversion="1" /><ns2:path-effect effect="spiro" id="path-effect309" is_visible="true" lpeversion="1" /><ns2:path-effect effect="spiro" id="path-effect1176" is_visible="true" lpeversion="1" /><ns2:path-effect effect="spiro" id="path-effect1026" is_visible="true" lpeversion="1" /><ns2:path-effect effect="spiro" id="path-effect1030" is_visible="true" lpeversion="1" /></defs>
 
<path style="display:inline;fill:#63452c;fill-rule:nonzero;stroke:none;stroke-width:2.09522px;stroke-linecap:butt;stroke-linejoin:miter;stroke-opacity:1" d="M 207.68602,815.92544 C 201.64595,791.79359 194.01904,768.05893 184.8688,744.92663 152.77218,663.78464 102.53315,591.2909 62.036768,513.99757 30.74631,454.27511 4.8201939,389.65466 3.9024976,322.23788 3.4436494,288.52949 9.4145876,254.50859 23.413434,223.84104 37.41228,193.1735 59.645655,165.97888 88.16274,147.99995 c 36.53287,-23.03257 82.33774,-29.92349 124.62559,-21.15496 42.28785,8.76854 80.87645,32.62678 109.63503,64.84624 48.6748,54.53245 67.98412,128.86098 79.98072,200.9658 1.7401,10.45878 3.36043,20.93748 4.86055,31.43337 l -43.3456,3.57337 c 4.09717,-15.51733 8.21388,-31.0295 12.35009,-46.53646 13.52671,-50.71259 27.43901,-101.82978 51.70723,-148.36786 25.71787,-49.318 64.12225,-93.55412 114.25729,-117.64046 25.06752,-12.04317 52.79093,-18.840158 80.5994,-18.513224 27.80848,0.326934 55.66008,7.905174 79.16756,22.765074 31.40526,19.85237 53.93142,51.96178 66.41134,86.95691 12.47992,34.99512 15.47892,72.8013 13.51585,109.90324 -3.95048,74.66413 -27.46199,147.1316 -58.32401,215.23353 -30.86202,68.10194 -69.10313,132.55233 -104.51745,198.40189 -17.12417,31.84076 -33.5985,64.031 -49.40935,96.54389 -2.9342,6.0338 -8.71472,6.71353 -12.94196,1.50327 l -77.48624,-95.50514 c -4.22724,-5.21026 -2.90049,-12.07996 2.85515,-15.52757 33.47906,-20.05381 64.21086,-44.69131 91.05188,-73.02169 59.28462,-62.57421 98.79484,-142.62421 118.01025,-226.65377 6.79039,-29.69459 11.1386,-60.51604 6.30403,-90.59103 -2.41729,-15.0375 -7.15255,-29.77105 -14.67421,-43.01469 -7.52167,-13.24364 -17.87947,-24.97109 -30.55943,-33.4084 -14.20723,-9.45357 -31.1183,-14.60334 -48.16192,-15.4579 -17.04362,-0.85457 -34.19694,2.51064 -49.97478,9.01257 -31.55568,13.00386 -56.96595,38.08645 -75.84321,66.52076 -45.36125,68.32644 -55.18811,155.41373 -43.73415,236.62304 3.96477,28.11046 10.30626,55.88512 18.93007,82.93216 2.03812,6.3922 -1.60335,11.26825 -8.30507,10.94683 l -138.41495,-6.63857 c -6.70172,-0.32142 -10.31547,-5.70809 -8.15456,-12.05996 5.24735,-15.42423 10.13124,-30.9721 14.64616,-46.62639 20.18846,-69.99817 32.78113,-145.7464 10.17472,-215.00149 -10.64782,-32.61975 -29.83173,-63.59825 -58.78974,-82.00633 -18.37147,-11.6784 -40.24365,-17.85922 -62.00263,-17.19382 -21.75898,0.66539 -43.30442,8.22382 -60.51143,21.55854 -18.30796,14.18791 -31.39476,34.57698 -38.33554,56.67458 -6.940782,22.0976 -7.921271,45.83159 -4.566265,68.74932 6.710015,45.83545 30.061515,87.42906 55.150585,126.37071 25.46463,39.52457 53.39015,77.84268 87.55113,110.14851 29.21103,27.6247 62.80773,50.59918 99.13268,67.82757 6.0619,2.87506 6.76475,8.36966 1.46911,12.48943 l -122.39875,95.22072 c -5.29564,4.11977 -10.78284,2.1524 -12.41189,-4.35612 z" id="path1087-1-75" ns2:path-effect="#path-effect1030;#path-effect859" ns2:original-d="M 210.5093,827.74107 C 197.74503,793.55854 195.97673,771.60407 184.8688,744.92663 151.3546,664.43719 80.108913,599.29222 62.036768,513.99757 36.684737,394.34427 -8.642611,222.75533 88.16274,147.99995 c 62.86985,-48.549488 172.90752,-6.76127 234.26062,43.69128 55.688,45.79397 61.02152,131.40439 79.98072,200.9658 2.788,10.22918 4.86055,31.43337 4.86055,31.43337 l -43.3456,3.57337 c 0,0 7.64752,-31.19176 12.35009,-46.53646 15.34597,-50.07458 15.74395,-110.29419 51.70723,-148.36786 67.87922,-71.8625 182.83674,-151.554742 274.02425,-113.38861 65.33084,27.34388 79.55089,126.03874 79.92719,196.86015 0.78733,148.17637 -102.02859,278.51089 -162.84146,413.63542 -16.49799,36.65808 -54.69721,107.48117 -54.69721,107.48117 L 471.59468,722.97442 c 0,0 74.09599,-46.1424 101.56113,-79.11525 54.5156,-65.44786 107.34677,-142.14541 118.01025,-226.65377 7.15632,-56.71401 11.10815,-139.37512 -38.92961,-167.01412 -53.70508,-29.66469 -133.96268,13.56897 -173.97991,60.07543 -52.3165,60.80021 -45.88637,156.44168 -43.73415,236.62304 0.86904,32.37639 22.75954,94.46098 22.75954,94.46098 L 294.5979,633.54818 c 0,0 15.00986,-38.0895 18.62614,-58.10436 12.75675,-70.60418 30.50826,-146.19573 10.17472,-215.00149 -9.53206,-32.25511 -28.60132,-67.17692 -58.78974,-82.00633 -36.67759,-18.01708 -94.86091,-25.72123 -122.51406,4.36472 -56.86472,61.86741 -17.36089,173.1534 12.24878,251.79461 16.5266,43.89348 52.96972,78.46425 87.55113,110.14851 32.46628,29.74634 110.1904,72.85749 110.1904,72.85749 z" ns1:nodetypes="caaaaaccaaaaaccaaaaaccaaaaaacc" /></svg>