<?xml version="1.0" encoding="UTF-8" standalone="no"?>
<svg
   xmlns:dc="http://purl.org/dc/elements/1.1/"
   xmlns:cc="http://creativecommons.org/ns#"
   xmlns:rdf="http://www.w3.org/1999/02/22-rdf-syntax-ns#"
   xmlns:svg="http://www.w3.org/2000/svg"
   xmlns="http://www.w3.org/2000/svg"
   xmlns:sodipodi="http://sodipodi.sourceforge.net/DTD/sodipodi-0.dtd"
   xmlns:inkscape="http://www.inkscape.org/namespaces/inkscape"
   xml:space="preserve"
   width="1000"
   height="1000"
   version="1.1"
   style="clip-rule:evenodd;fill-rule:evenodd;image-rendering:optimizeQuality;shape-rendering:geometricPrecision;text-rendering:geometricPrecision"
   viewBox="0 0 1000 1000"
   id="svg10"
   sodipodi:docname="ന.svg"
   inkscape:version="1.0.1 (3bc2e813f5, 2020-09-07)"><metadata
   id="metadata14"><rdf:RDF><cc:Work
       rdf:about=""><dc:format>image/svg+xml</dc:format><dc:type
         rdf:resource="http://purl.org/dc/dcmitype/StillImage" /><dc:title /></cc:Work></rdf:RDF></metadata><sodipodi:namedview
   pagecolor="#ffffff"
   bordercolor="#666666"
   borderopacity="1"
   objecttolerance="10"
   gridtolerance="10"
   guidetolerance="10"
   inkscape:pageopacity="0"
   inkscape:pageshadow="2"
   inkscape:window-width="1920"
   inkscape:window-height="1015"
   id="namedview12"
   showgrid="false"
   inkscape:zoom="0.9588368"
   inkscape:cx="315.44364"
   inkscape:cy="463.62156"
   inkscape:window-x="1920"
   inkscape:window-y="0"
   inkscape:window-maximized="1"
   inkscape:current-layer="svg10"
   showguides="true"
   inkscape:guide-bbox="true"
   inkscape:document-rotation="0"
   inkscape:snap-to-guides="true"
   inkscape:snap-grids="true"><sodipodi:guide
     position="0,1000"
     orientation="0,1"
     id="guide16"
     inkscape:label=""
     inkscape:locked="true"
     inkscape:color="rgb(0,0,255)" /><sodipodi:guide
     position="1763.3122,2036.1693"
     orientation="1000,0"
     id="guide18" /><sodipodi:guide
     position="0,200"
     orientation="0,1"
     id="guide20"
     inkscape:label="base"
     inkscape:locked="true"
     inkscape:color="rgb(0,0,255)" /><inkscape:grid
     type="xygrid"
     id="grid24"
     originx="-473.37552"
     originy="-489.69235" /><sodipodi:guide
     position="0,0"
     orientation="0,1"
     id="guide34"
     inkscape:label="bottom"
     inkscape:locked="true"
     inkscape:color="rgb(0,0,255)" /><sodipodi:guide
     position="225.05109,1693.3186"
     orientation="0,1"
     id="guide44"
     inkscape:label=""
     inkscape:locked="false"
     inkscape:color="rgb(0,0,255)" /><sodipodi:guide
     position="0,900"
     orientation="0,1"
     id="guide46"
     inkscape:label=""
     inkscape:locked="true"
     inkscape:color="rgb(0,0,255)" /><sodipodi:guide
     position="801.08916,580.39014"
     orientation="-1,0"
     id="guide841"
     inkscape:label="width"
     inkscape:locked="false"
     inkscape:color="rgb(0,0,255)" /><sodipodi:guide
     position="0,1000"
     orientation="0,1000"
     id="guide860" /><sodipodi:guide
     position="1000,1000"
     orientation="1000,0"
     id="guide862" /><sodipodi:guide
     position="1000,0"
     orientation="0,-1000"
     id="guide864" /><sodipodi:guide
     position="0,0"
     orientation="-1000,0"
     id="guide866" /></sodipodi:namedview>
 <defs
   id="defs4"><inkscape:path-effect
   effect="spiro"
   id="path-effect862"
   is_visible="true"
   lpeversion="1" /><inkscape:path-effect
   effect="spiro"
   id="path-effect1521"
   is_visible="true"
   lpeversion="1" /><inkscape:path-effect
   effect="spiro"
   id="path-effect858"
   is_visible="true"
   lpeversion="1" /><inkscape:path-effect
   effect="spiro"
   id="path-effect854"
   is_visible="true"
   lpeversion="1" />
  <style
   type="text/css"
   id="style2">
   <![CDATA[
    .fil0 {fill:#EF7F1A;fill-rule:nonzero}
   ]]>
  </style>
 <inkscape:path-effect
   effect="spiro"
   id="path-effect1214"
   is_visible="true"
   lpeversion="1" /><inkscape:path-effect
   effect="spiro"
   id="path-effect1195"
   is_visible="true"
   lpeversion="1" /><inkscape:path-effect
   effect="spiro"
   id="path-effect992"
   is_visible="true"
   lpeversion="1" /><inkscape:path-effect
   effect="spiro"
   id="path-effect287"
   is_visible="true"
   lpeversion="1" /><inkscape:path-effect
   effect="spiro"
   id="path-effect1032"
   is_visible="true"
   lpeversion="1" /><inkscape:path-effect
   effect="spiro"
   id="path-effect1218"
   is_visible="true"
   lpeversion="1" /><inkscape:path-effect
   effect="spiro"
   id="path-effect309"
   is_visible="true"
   lpeversion="1" /><inkscape:path-effect
   effect="spiro"
   id="path-effect1176"
   is_visible="true"
   lpeversion="1" /><inkscape:path-effect
   effect="spiro"
   id="path-effect1026"
   is_visible="true"
   lpeversion="1" /><inkscape:path-effect
   effect="spiro"
   id="path-effect1030"
   is_visible="true"
   lpeversion="1" /></defs>
 
<path
   style="display:inline;fill:#2d2d2d;fill-rule:nonzero;stroke:none;stroke-width:2.09522px;stroke-linecap:butt;stroke-linejoin:miter;stroke-opacity:1"
   d="M 220.5093,827.74107 C 214.07907,799.53931 205.49925,771.82794 194.8688,744.92663 162.79968,663.7728 112.66607,591.22213 72.036768,513.99757 40.598336,454.2422 14.379035,389.61437 13.367138,322.101 c -0.505948,-33.75669 5.474586,-67.84153 19.568186,-98.51954 14.093601,-30.67801 36.51433,-57.82402 65.227416,-75.58151 36.59429,-22.63159 82.2632,-28.99629 124.36474,-20.11981 42.10154,8.87648 80.51478,32.37731 109.89588,63.81109 36.84489,39.41903 59.83727,91.53972 64.10948,145.32777 9.00785,-36.41593 22.99255,-71.59729 41.44351,-104.25955 27.19828,-48.14697 65.39544,-91.71107 115.10206,-115.94182 24.85331,-12.11538 52.32161,-19.171615 79.97065,-19.177756 27.64903,-0.0061 55.44341,7.176336 78.95154,21.730966 31.62707,19.58133 54.28474,51.73836 66.73133,86.79235 12.44659,35.05399 15.28141,72.92819 13.19586,110.0678 -4.19128,74.63859 -27.7149,147.05745 -58.52729,215.16826 -30.81238,68.11082 -68.94245,132.60877 -104.31417,198.46716 -19.02239,35.41767 -37.26075,71.25643 -54.69721,107.48117 L 481.59468,722.97442 c 37.56232,-21.08428 71.9267,-47.85385 101.56113,-79.11525 59.30557,-62.56154 98.88556,-142.59818 118.01025,-226.65377 6.75442,-29.6866 11.04794,-60.49608 6.19963,-90.55287 -2.42415,-15.02839 -7.15542,-29.75244 -14.65878,-42.99739 -7.50335,-13.24495 -17.82767,-24.98512 -30.47046,-33.46386 -14.20056,-9.52344 -31.11977,-14.75973 -48.19295,-15.68629 -17.07318,-0.92655 -34.27621,2.38317 -50.09661,8.86908 -31.64078,12.97182 -57.09685,38.19266 -75.69035,66.89264 -22.22922,34.31189 -35.56219,73.92613 -41.89253,114.31637 -6.33034,40.39023 -5.82548,81.61794 -1.84162,122.30667 2.88012,29.41584 7.56901,58.65447 14.03136,87.49584 l -164.01333,4.12025 c 11.18082,-20.23256 20.78079,-41.33847 28.68362,-63.06202 24.97979,-68.66528 32.47176,-145.41878 10.17472,-215.00149 -5.25354,-16.3948 -12.15401,-32.36551 -21.77548,-46.64194 -9.62148,-14.27644 -22.0554,-26.84255 -37.01426,-35.36439 -17.53013,-9.98666 -38.26237,-14.1252 -58.32767,-12.02224 -20.06531,2.10295 -39.38596,10.38163 -55.00066,23.15738 -17.28947,14.14603 -29.9258,33.60135 -37.16134,54.73621 -7.23554,21.13487 -9.19746,43.8951 -7.1043,66.13592 4.18631,44.48166 24.10613,85.98329 47.32869,124.15206 24.45573,40.19562 53.09329,78.11059 87.55113,110.14851 32.39425,30.11925 69.79076,54.84568 110.1904,72.85749 z"
   id="path1087-1-75"
   inkscape:path-effect="#path-effect1030"
   inkscape:original-d="M 220.5093,827.74107 C 207.74503,793.55854 205.97673,771.60407 194.8688,744.92663 161.3546,664.43719 90.108913,599.29222 72.036768,513.99757 46.684737,394.34427 1.357389,222.75533 98.16274,147.99995 c 62.86985,-48.549488 171.99214,-5.62721 234.26062,43.69128 41.50526,32.87348 64.10948,145.32777 64.10948,145.32777 0,0 15.18453,-77.63076 41.44351,-104.25955 69.40875,-70.38628 182.83674,-151.554742 274.02425,-113.38861 65.33084,27.34388 79.55089,126.03874 79.92719,196.86015 0.78733,148.17637 -102.02859,278.51089 -162.84146,413.63542 -16.49799,36.65808 -54.69721,107.48117 -54.69721,107.48117 L 481.59468,722.97442 c 0,0 74.09599,-46.1424 101.56113,-79.11525 54.5156,-65.44786 107.34677,-142.14541 118.01025,-226.65377 7.15632,-56.71401 11.10815,-139.37512 -38.92961,-167.01412 -53.70508,-29.66469 -133.96268,13.56897 -173.97991,60.07543 -52.3165,60.80021 -42.78161,156.41846 -43.73415,236.62304 -0.35078,29.53584 14.03136,87.49584 14.03136,87.49584 l -164.01333,4.12025 c 0,0 23.2598,-40.61503 28.68362,-63.06202 16.8512,-69.74039 30.50826,-146.19573 10.17472,-215.00149 -9.53206,-32.25511 -28.15389,-68.12479 -58.78974,-82.00633 -34.57432,-15.66612 -88.01026,-17.14572 -113.32833,11.13514 -54.48145,60.85701 -24.334,168.07482 3.06305,245.02419 15.73151,44.18468 52.96972,78.46425 87.55113,110.14851 32.46628,29.74634 110.1904,72.85749 110.1904,72.85749 z"
   sodipodi:nodetypes="caaaacaaaaccaaaaaccaaaaaacc" /></svg>
