<svg xmlns="http://www.w3.org/2000/svg" xmlns:dc="http://purl.org/dc/elements/1.1/" xmlns:ns1="http://sodipodi.sourceforge.net/DTD/sodipodi-0.dtd" xmlns:ns2="http://www.inkscape.org/namespaces/inkscape" xmlns:ns4="http://creativecommons.org/ns#" xmlns:rdf="http://www.w3.org/1999/02/22-rdf-syntax-ns#" xml:space="preserve" width="1000" height="1000" version="1.1" style="clip-rule:evenodd;fill-rule:evenodd;image-rendering:optimizeQuality;shape-rendering:geometricPrecision;text-rendering:geometricPrecision" viewBox="0 0 1000 1000" id="svg10" ns1:docname="ന_small.svg" ns2:version="1.0.1 (3bc2e813f5, 2020-09-07)"><metadata id="metadata14"><rdf:RDF><ns4:Work rdf:about=""><dc:format>image/svg+xml</dc:format><dc:type rdf:resource="http://purl.org/dc/dcmitype/StillImage" /><dc:title /></ns4:Work></rdf:RDF></metadata><ns1:namedview pagecolor="#ffffff" bordercolor="#666666" borderopacity="1" objecttolerance="10" gridtolerance="10" guidetolerance="10" ns2:pageopacity="0" ns2:pageshadow="2" ns2:window-width="1920" ns2:window-height="1015" id="namedview12" showgrid="false" ns2:zoom="0.9588368" ns2:cx="362.50651" ns2:cy="754.64592" ns2:window-x="1920" ns2:window-y="0" ns2:window-maximized="1" ns2:current-layer="svg10" showguides="true" ns2:guide-bbox="true" ns2:document-rotation="0" ns2:snap-to-guides="true"><ns1:guide position="0,1000" orientation="0,1" id="guide16" ns2:label="" ns2:locked="true" ns2:color="rgb(0,0,255)" /><ns1:guide position="1763.3122,2036.1693" orientation="1000,0" id="guide18" /><ns1:guide position="0,200" orientation="0,1" id="guide20" ns2:label="base" ns2:locked="true" ns2:color="rgb(0,0,255)" /><ns2:grid type="xygrid" id="grid24" originx="-473.37552" originy="-489.69235" /><ns1:guide position="0,0" orientation="0,1" id="guide34" ns2:label="bottom" ns2:locked="true" ns2:color="rgb(0,0,255)" /><ns1:guide position="225.05109,1693.3186" orientation="0,1" id="guide44" ns2:label="" ns2:locked="false" ns2:color="rgb(0,0,255)" /><ns1:guide position="0,900" orientation="0,1" id="guide46" ns2:label="" ns2:locked="true" ns2:color="rgb(0,0,255)" /><ns1:guide position="486.9344,569.10191" orientation="-1,0" id="guide841" ns2:label="width" ns2:locked="false" ns2:color="rgb(0,0,255)" /><ns1:guide position="0,1000" orientation="0,1000" id="guide860" /><ns1:guide position="1000,1000" orientation="1000,0" id="guide862" /><ns1:guide position="1000,0" orientation="0,-1000" id="guide864" /><ns1:guide position="0,0" orientation="-1000,0" id="guide866" /></ns1:namedview>
 <defs id="defs4"><ns2:path-effect effect="spiro" id="path-effect862" is_visible="true" lpeversion="1" /><ns2:path-effect effect="spiro" id="path-effect1521" is_visible="true" lpeversion="1" /><ns2:path-effect effect="spiro" id="path-effect858" is_visible="true" lpeversion="1" /><ns2:path-effect effect="spiro" id="path-effect854" is_visible="true" lpeversion="1" />
  <style type="text/css" id="style2">
   
    .fil0 {fill:#EF7F1A;fill-rule:nonzero}
   
  </style>
 <ns2:path-effect effect="spiro" id="path-effect1214" is_visible="true" lpeversion="1" /><ns2:path-effect effect="spiro" id="path-effect1195" is_visible="true" lpeversion="1" /><ns2:path-effect effect="spiro" id="path-effect992" is_visible="true" lpeversion="1" /><ns2:path-effect effect="spiro" id="path-effect287" is_visible="true" lpeversion="1" /><ns2:path-effect effect="spiro" id="path-effect1032" is_visible="true" lpeversion="1" /><ns2:path-effect effect="spiro" id="path-effect1218" is_visible="true" lpeversion="1" /><ns2:path-effect effect="spiro" id="path-effect309" is_visible="true" lpeversion="1" /><ns2:path-effect effect="spiro" id="path-effect1176" is_visible="true" lpeversion="1" /><ns2:path-effect effect="spiro" id="path-effect1026" is_visible="true" lpeversion="1" /><ns2:path-effect effect="spiro" id="path-effect1030" is_visible="true" lpeversion="1" /></defs>
 
<path style="display:inline;fill:#1a1a1a;stroke:none;stroke-width:1.21516px;stroke-linecap:butt;stroke-linejoin:miter;stroke-opacity:1" d="m 123.05158,1191.7217 c -4.03429,-15.101 -9.48849,-29.8222 -16.26721,-43.9064 C 85.784903,1104.1847 52.613127,1067.5737 28.855538,1025.3815 11.355853,994.30299 -1.0614498,959.40985 -0.24434827,923.75252 0.16420251,905.92386 3.9304768,888.08986 11.569305,871.97538 c 7.638828,-16.11448 19.215157,-30.46389 33.861444,-40.6381 22.393422,-15.55584 51.309978,-20.63271 78.129881,-15.71921 26.8199,4.9135 51.46124,19.35805 70.49304,38.88342 20.55207,21.08507 34.85787,48.18539 40.67324,77.04971 6.25616,-19.48449 15.12451,-38.12845 26.29319,-55.27621 18.56114,-28.49774 44.20777,-53.24103 75.74382,-65.97346 15.76802,-6.36622 32.85554,-9.63573 49.84211,-8.85102 16.98657,0.78471 33.85161,5.68432 48.2644,14.70823 17.12219,10.72027 30.42443,27.04794 38.80743,45.4278 8.38299,18.37985 11.98463,38.74215 11.9011,58.94331 -0.16979,41.06252 -15.22734,80.81595 -35.33294,116.61985 -20.1056,35.804 -45.28168,68.4614 -67.97923,102.681 -12.29605,18.5379 -23.87484,37.5516 -34.70178,56.9842 l -58.87196,-60.6382 c 23.21002,-11.044 44.94132,-25.1906 64.43385,-41.9452 36.45639,-31.3356 65.41237,-73.0338 74.86973,-120.1671 3.18589,-15.87774 4.12312,-32.43151 0.49623,-48.21435 -3.62689,-15.78285 -12.12111,-30.77595 -25.1945,-40.33308 -8.61668,-6.29911 -18.98868,-10.07523 -29.60068,-11.22042 -10.612,-1.14519 -21.44711,0.30144 -31.53776,3.78064 -20.18129,6.9584 -36.96947,21.82261 -49.24036,39.29056 -25.1527,35.80555 -32.17956,81.92036 -27.74644,125.45245 1.59722,15.6842 4.57991,31.2272 8.90198,46.3885 l -104.05565,2.1845 c 7.01051,-10.5949 13.10646,-21.7947 18.19787,-33.4342 7.8368,-17.9157 13.30342,-36.9797 14.84424,-56.4736 1.54083,-19.4939 -0.92853,-39.44 -8.38906,-57.5156 -7.42997,-18.00155 -20.1541,-34.24014 -37.29821,-43.47809 -11.22895,-6.05061 -24.17422,-8.95465 -36.89403,-8.00302 -12.71981,0.95163 -25.162112,5.79432 -35.005334,13.90666 -9.190313,7.57425 -16.005652,17.8623 -20.005404,29.07983 -3.999752,11.21754 -5.238475,23.33582 -4.238387,35.20304 2.000177,23.73443 12.737652,45.96588 26.187091,65.62388 15.233144,22.2651 34.145004,41.9727 55.545434,58.3984 21.19887,16.271 44.85104,29.3399 69.90855,38.6275 z" id="path1087-1-75" ns2:path-effect="#path-effect1030" ns2:original-d="m 123.05158,1191.7217 c -8.09809,-18.1228 -9.21996,-29.7627 -16.26721,-43.9064 C 85.521816,1105.1415 40.321124,1070.603 28.855538,1025.3815 12.771345,961.9439 -15.985871,870.97102 45.430749,831.33728 c 39.886767,-25.73991 109.117681,-2.98342 148.622921,23.16421 26.33236,17.42884 40.67324,77.04971 40.67324,77.04971 0,0 9.63359,-41.15818 26.29319,-55.27621 44.03528,-37.31733 115.99786,-80.35114 173.85033,-60.11625 41.44811,14.49716 50.4698,66.82307 50.70853,104.37111 0.49951,78.55995 -98.06871,155.73355 -103.31217,219.30085 -5.24348,63.567 -34.70178,56.9842 -34.70178,56.9842 l -58.87196,-60.6382 c 0,0 45.05151,-25.9675 64.43385,-41.9452 47.47473,-38.0952 68.10445,-75.3626 74.86973,-120.1671 4.54021,-30.0686 7.04738,-73.89382 -24.69827,-88.54743 -34.07234,-15.72761 -84.99051,7.19399 -110.3788,31.85078 -33.19137,32.23495 -27.14211,82.92975 -27.74644,125.45245 -0.22255,15.6594 8.90198,46.3885 8.90198,46.3885 l -104.05565,2.1845 c 0,0 14.75681,-21.5332 18.19787,-33.4342 10.69097,-36.9749 19.35548,-77.5099 6.45518,-113.9892 -6.04746,-17.10098 -17.86178,-36.11836 -37.29821,-43.47809 -21.93513,-8.30584 -55.83671,-9.09029 -71.899364,5.90364 -34.564893,32.26515 -15.438322,89.10975 1.9433,129.90675 9.98061,23.4258 33.605794,41.6 55.545434,58.3984 20.59771,15.7708 69.90855,38.6275 69.90855,38.6275 z" ns1:nodetypes="caaaacaaascccaaaaccaaaaaacc" /></svg>