<svg xmlns="http://www.w3.org/2000/svg" xmlns:dc="http://purl.org/dc/elements/1.1/" xmlns:ns1="http://sodipodi.sourceforge.net/DTD/sodipodi-0.dtd" xmlns:ns2="http://www.inkscape.org/namespaces/inkscape" xmlns:ns4="http://creativecommons.org/ns#" xmlns:rdf="http://www.w3.org/1999/02/22-rdf-syntax-ns#" xml:space="preserve" width="1000" height="1000" version="1.1" style="clip-rule:evenodd;fill-rule:evenodd;image-rendering:optimizeQuality;shape-rendering:geometricPrecision;text-rendering:geometricPrecision" viewBox="0 0 1000 1000" id="svg10" ns1:docname="നൃ.svg" ns2:version="1.1.1 (3bf5ae0d25, 2021-09-20)"><metadata id="metadata14"><rdf:RDF><ns4:Work rdf:about=""><dc:format>image/svg+xml</dc:format><dc:type rdf:resource="http://purl.org/dc/dcmitype/StillImage" /><dc:title /></ns4:Work></rdf:RDF></metadata><ns1:namedview pagecolor="#ffffff" bordercolor="#666666" borderopacity="1" objecttolerance="10" gridtolerance="10" guidetolerance="10" ns2:pageopacity="0" ns2:pageshadow="2" ns2:window-width="1920" ns2:window-height="1009" id="namedview12" showgrid="false" ns2:zoom="0.9588368" ns2:cx="315.48643" ns2:cy="672.16861" ns2:window-x="0" ns2:window-y="60" ns2:window-maximized="1" ns2:current-layer="svg10" showguides="true" ns2:guide-bbox="true" ns2:document-rotation="0" ns2:snap-to-guides="true" ns2:snap-grids="true" ns2:pagecheckerboard="0"><ns1:guide position="0,1000" orientation="0,1" id="guide16" ns2:label="" ns2:locked="true" ns2:color="rgb(0,0,255)" /><ns1:guide position="1763.3122,2036.1693" orientation="1000,0" id="guide18" /><ns1:guide position="0,200" orientation="0,1" id="guide20" ns2:label="base" ns2:locked="true" ns2:color="rgb(0,0,255)" /><ns2:grid type="xygrid" id="grid24" originx="-473.37552" originy="-489.69235" /><ns1:guide position="0,0" orientation="0,1" id="guide34" ns2:label="bottom" ns2:locked="true" ns2:color="rgb(0,0,255)" /><ns1:guide position="225.05109,1693.3186" orientation="0,1" id="guide44" ns2:label="" ns2:locked="false" ns2:color="rgb(0,0,255)" /><ns1:guide position="0,900" orientation="0,1" id="guide46" ns2:label="" ns2:locked="true" ns2:color="rgb(0,0,255)" /><ns1:guide position="800.90711,576.40376" orientation="-1,0" id="guide841" ns2:label="width" ns2:locked="false" ns2:color="rgb(0,0,255)" /><ns1:guide position="0,1000" orientation="0,1000" id="guide860" /><ns1:guide position="1000,1000" orientation="1000,0" id="guide862" /><ns1:guide position="1000,0" orientation="0,-1000" id="guide864" /><ns1:guide position="0,0" orientation="-1000,0" id="guide866" /></ns1:namedview>
 <defs id="defs4"><ns2:path-effect effect="fillet_chamfer" id="path-effect1086" is_visible="true" lpeversion="1" satellites_param="F,0,1,1,0,14.665432,0,1 @ F,0,0,1,0,0,0,1 @ F,0,0,1,0,0,0,1 @ F,0,0,1,0,0,0,1 @ F,0,0,1,0,0,0,1 @ F,0,0,1,0,0,0,1 @ F,0,0,1,0,0,0,1 @ F,0,0,1,0,0,0,1 @ F,0,0,1,0,0,0,1 @ F,0,0,1,0,0,0,1 @ F,0,0,1,0,0,0,1 @ F,0,0,1,0,0,0,1 @ F,0,0,1,0,0,0,1 @ F,0,0,1,0,0,0,1 @ F,0,0,1,0,0,0,1 @ F,0,0,1,0,0,0,1 @ F,0,0,1,0,0,0,1 @ F,0,0,1,0,0,0,1 @ F,0,0,1,0,0,0,1 @ F,0,0,1,0,0,0,1 @ F,0,0,1,0,0,0,1 @ F,0,0,1,0,0,0,1 @ F,0,0,1,0,0,0,1 @ F,0,0,1,0,0,0,1 @ F,0,0,1,0,0,0,1 @ F,0,0,1,0,0,0,1 @ F,0,0,1,0,0,0,1 @ F,0,0,1,0,0,0,1 @ F,0,0,1,0,0,0,1 @ F,0,0,1,0,0,0,1 @ F,0,0,1,0,0,0,1 @ F,0,0,1,0,0,0,1 @ F,0,0,1,0,0,0,1 @ F,0,0,1,0,0,0,1 @ F,0,0,1,0,0,0,1 @ F,0,0,1,0,0,0,1 @ F,0,0,1,0,0,0,1 @ F,0,0,1,0,0,0,1 @ F,0,0,1,0,0,0,1 @ F,0,0,1,0,0,0,1 @ F,0,0,1,0,0,0,1 @ F,0,0,1,0,0,0,1 @ F,0,0,1,0,0,0,1 @ F,0,0,1,0,0,0,1 @ F,0,0,1,0,0,0,1 @ F,0,0,1,0,0,0,1 @ F,0,1,1,0,14.665432,0,1 @ F,0,0,1,0,14.665432,0,1 @ F,0,0,1,0,0,0,1 @ F,0,0,1,0,0,0,1 @ F,0,0,1,0,0,0,1 @ F,0,0,1,0,0,0,1 @ F,0,0,1,0,0,0,1 @ F,0,0,1,0,0,0,1 @ F,0,0,1,0,0,0,1 @ F,0,0,1,0,0,0,1 @ F,0,0,1,0,0,0,1 @ F,0,0,1,0,0,0,1 @ F,0,1,1,0,14.665432,0,1" unit="px" method="auto" mode="F" radius="0" chamfer_steps="1" flexible="false" use_knot_distance="true" apply_no_radius="true" apply_with_radius="true" only_selected="false" hide_knots="false" /><ns2:path-effect effect="fillet_chamfer" id="path-effect857" is_visible="true" lpeversion="1" satellites_param="F,0,1,1,0,32.226716,0,1 @ F,0,0,1,0,0,0,1 @ F,0,0,1,0,0,0,1 @ F,0,0,1,0,0,0,1 @ F,0,0,1,0,0,0,1 @ F,0,0,1,0,0,0,1 @ F,0,0,1,0,0,0,1 @ F,0,0,1,0,0,0,1 @ F,0,0,1,0,0,0,1 @ F,0,0,1,0,0,0,1 @ F,0,0,1,0,0,0,1 @ F,0,0,1,0,0,0,1 @ F,0,0,1,0,0,0,1 @ F,0,0,1,0,0,0,1 @ F,0,0,1,0,0,0,1 @ F,0,0,1,0,0,0,1 @ F,0,0,1,0,0,0,1 @ F,0,0,1,0,0,0,1 @ F,0,0,1,0,0,0,1 @ F,0,0,1,0,0,0,1 @ F,0,0,1,0,0,0,1 @ F,0,0,1,0,0,0,1 @ F,0,0,1,0,0,0,1 @ F,0,0,1,0,0,0,1 @ F,0,0,1,0,0,0,1 @ F,0,0,1,0,0,0,1 @ F,0,0,1,0,0,0,1 @ F,0,0,1,0,0,0,1 @ F,0,0,1,0,0,0,1 @ F,0,0,1,0,0,0,1 @ F,0,0,1,0,0,0,1 @ F,0,0,1,0,0,0,1 @ F,0,0,1,0,0,0,1 @ F,0,0,1,0,0,0,1 @ F,0,0,1,0,0,0,1 @ F,0,0,1,0,0,0,1 @ F,0,0,1,0,0,0,1 @ F,0,0,1,0,0,0,1 @ F,0,0,1,0,0,0,1 @ F,0,0,1,0,0,0,1 @ F,0,0,1,0,0,0,1 @ F,0,0,1,0,0,0,1 @ F,0,0,1,0,0,0,1 @ F,0,0,1,0,0,0,1 @ F,0,0,1,0,0,0,1 @ F,0,1,1,0,32.226716,0,1 @ F,0,1,1,0,32.226716,0,1 @ F,0,0,1,0,0,0,1 @ F,0,0,1,0,0,0,1 @ F,0,0,1,0,0,0,1 @ F,0,0,1,0,0,0,1 @ F,0,0,1,0,0,0,1 @ F,0,0,1,0,0,0,1 @ F,0,0,1,0,0,0,1 @ F,0,0,1,0,0,0,1 @ F,0,0,1,0,0,0,1 @ F,0,0,1,0,0,0,1 @ F,0,1,1,0,32.226716,0,1" unit="px" method="auto" mode="F" radius="0" chamfer_steps="1" flexible="false" use_knot_distance="true" apply_no_radius="true" apply_with_radius="true" only_selected="true" hide_knots="false" /><ns2:path-effect effect="spiro" id="path-effect862" is_visible="true" lpeversion="1" /><ns2:path-effect effect="spiro" id="path-effect1521" is_visible="true" lpeversion="1" /><ns2:path-effect effect="spiro" id="path-effect858" is_visible="true" lpeversion="1" /><ns2:path-effect effect="spiro" id="path-effect854" is_visible="true" lpeversion="1" />
  <style type="text/css" id="style2">
   
    .fil0 {fill:#EF7F1A;fill-rule:nonzero}
   
  </style>
 <ns2:path-effect effect="spiro" id="path-effect1214" is_visible="true" lpeversion="1" /><ns2:path-effect effect="spiro" id="path-effect1195" is_visible="true" lpeversion="1" /><ns2:path-effect effect="spiro" id="path-effect992" is_visible="true" lpeversion="1" /><ns2:path-effect effect="spiro" id="path-effect287" is_visible="true" lpeversion="1" /><ns2:path-effect effect="spiro" id="path-effect1032" is_visible="true" lpeversion="1" /><ns2:path-effect effect="spiro" id="path-effect1218" is_visible="true" lpeversion="1" /><ns2:path-effect effect="spiro" id="path-effect309" is_visible="true" lpeversion="1" /><ns2:path-effect effect="spiro" id="path-effect1176" is_visible="true" lpeversion="1" /><ns2:path-effect effect="spiro" id="path-effect1026" is_visible="true" lpeversion="1" /><ns2:path-effect effect="spiro" id="path-effect1030" is_visible="true" lpeversion="1" /></defs>
 
<path style="display:inline;fill:#e66100;fill-rule:nonzero;stroke:none;stroke-width:2.09522px;stroke-linecap:butt;stroke-linejoin:miter;stroke-opacity:1" d="M 164.91923,785.8589 C 158.4043,762.7431 151.14794,739.83625 143.16476,717.18556 119.00843,648.64672 88.276185,582.65222 59.274313,516.01895 32.559092,454.63938 6.900143,390.94507 4.7904168,324.0369 3.7355536,290.58281 8.7733632,256.6672 22.027612,225.93264 35.28186,195.19807 57.021723,167.76804 85.400289,150.02133 121.75739,127.2852 167.49448,121.64913 209.36754,130.89126 c 41.87306,9.24213 79.90052,32.57163 110.29336,62.82135 57.72016,57.44834 88.28463,141.09421 81.2007,222.22218 l -43.51891,12.39845 c 7.42458,-68.57174 30.84488,-135.36083 67.8712,-193.55241 29.19562,-45.88465 67.84235,-87.21345 116.78773,-110.92284 24.47268,-11.8547 51.30038,-19.11818 78.47996,-19.9649 27.17957,-0.84672 54.69262,4.83529 78.75656,17.49913 42.35027,22.28717 71.45654,64.87403 85.79672,110.5317 14.34017,45.65766 15.32774,94.44156 12.51645,142.21561 -4.10959,69.83697 -16.08061,139.15164 -34.59591,206.61477 -27.55103,100.3861 -71.31002,199.20998 -145.5424,272.18931 -39.46948,38.80324 -88.21389,69.98372 -142.6034,80.24589 -43.2754,8.16516 -89.72654,2.32584 -127.81807,-19.77543 -17.21957,-9.99105 -32.68083,-23.26243 -44.13789,-39.54341 -11.45706,-16.28097 -18.79821,-35.63628 -19.7611,-55.52113 -0.80993,-16.72606 2.8918,-33.56588 10.01081,-48.72295 7.119,-15.15708 17.59977,-28.64583 30.06371,-39.82918 24.92787,-22.3667 57.24087,-35.2046 90.11829,-41.58768 67.55756,-13.11615 137.05637,-0.54992 205.79828,2.70694 29.49355,1.39735 59.06879,1.06832 88.52395,-0.98484 l -45.82154,96.82613 -56.85402,-20.68072 c -60.97499,-31.30661 -135.55138,-34.83691 -199.21107,-9.43028 -11.99665,4.78787 -23.82488,10.69485 -33.03967,19.74642 -4.6074,4.52579 -8.5096,9.81537 -11.13795,15.71474 -2.62834,5.89937 -3.95708,12.42024 -3.47983,18.86097 0.49187,6.63801 2.89775,13.08031 6.59776,18.6134 3.7,5.53308 8.66741,10.17059 14.26072,13.77892 11.1866,7.21665 24.61033,10.24612 37.88326,11.27063 43.13033,3.32913 85.64237,-13.28795 122.32908,-36.20943 51.13532,-31.94883 94.09608,-76.67756 124.72072,-128.61676 40.09234,-67.99635 58.6515,-146.84034 65.90268,-225.44263 3.7124,-40.2421 4.50634,-81.53337 -6.91446,-120.29899 -5.71039,-19.38282 -14.48962,-37.96598 -26.79246,-53.9954 -12.30284,-16.02941 -28.19992,-29.45425 -46.57681,-37.85616 -30.2447,-13.82786 -66.09363,-13.22958 -97.15333,-1.34484 -31.05969,11.88474 -57.4245,34.41081 -76.82658,61.42027 -23.93964,33.32616 -37.65615,73.26284 -43.63925,113.85769 -5.9831,40.59485 -4.50329,81.96945 -0.0949,122.76535 2.64959,24.5197 6.35131,48.92567 11.09082,73.12841 1.5565,7.94843 -3.62333,14.53232 -11.72027,14.73573 l -134.69171,3.38365 c -8.09694,0.20341 -11.4633,-5.36892 -7.78295,-12.58356 8.28292,-16.23712 15.5704,-32.98205 21.80576,-50.11016 24.99699,-68.66508 32.55272,-145.4388 10.17472,-215.00149 -5.27071,-16.38417 -12.19389,-32.33846 -21.81971,-46.60609 -9.62582,-14.26762 -22.04289,-26.83274 -36.97003,-35.40024 -17.52481,-10.05845 -38.26907,-14.3191 -58.36936,-12.25268 -20.10028,2.06642 -39.47128,10.41003 -54.95897,23.38782 -16.99609,14.24174 -29.17091,33.81838 -35.93822,54.93467 -6.76731,21.1163 -8.27366,43.72397 -5.95325,65.77641 4.64081,44.10488 24.08004,85.18468 44.95452,124.31311 14.74962,27.64761 30.39965,54.88427 48.60955,80.38606 23.7938,33.32169 51.91052,63.55138 83.41014,89.70873 6.23093,5.17418 5.96132,12.83374 -0.77916,17.3246 l -101.81184,67.83248 c -6.74048,4.49086 -13.89359,1.78606 -16.09074,-6.00968 z" id="path1087-1-75" ns1:nodetypes="caaaaccaaaaasaaaacccaaaaaaaaaccaaaaaacc" ns2:original-d="M 168.80526,800 C 156.04099,765.81747 153.01049,744.35421 143.16476,717.18556 118.41124,648.87989 70.986523,587.72129 59.274313,516.01895 39.556973,395.30908 -11.405066,224.77671 85.400289,150.02133 148.27013,101.47184 259.03128,142.39291 319.6609,193.71261 c 60.19528,50.95205 81.2007,222.22218 81.2007,222.22218 l -43.51891,12.39845 c 0,0 20.87636,-143.89536 67.8712,-193.55241 67.94814,-71.79733 183.11991,-152.224263 274.02425,-113.38861 83.12994,35.51432 89.06058,162.82377 98.31317,252.74731 7.14738,69.46364 -12.06925,140.51763 -34.59591,206.61477 -33.19007,97.38548 -73.57838,198.6591 -145.5424,272.18931 -38.15083,38.98113 -66.31739,52.16846 -142.6034,80.24589 -24.73015,9.10205 -91.43421,3.35334 -127.81807,-19.77543 -32.22201,-20.48313 -67.59303,-57.0623 -63.89899,-95.06454 5.93667,-61.07313 73.3471,-107.03708 130.19281,-130.13981 63.557,-25.83027 137.19296,2.63737 205.79828,2.70694 29.5098,0.0299 88.52395,-0.98484 88.52395,-0.98484 l -45.82154,96.82613 -56.85402,-20.68072 c 0,0 -138.02425,-35.42075 -199.21107,-9.43028 -22.17083,9.41756 -50.19951,30.36854 -47.65745,54.32213 2.57468,24.26104 34.72011,39.39814 58.74174,43.66295 41.87042,7.43368 85.94875,-14.18981 122.32908,-36.20943 51.08988,-30.92275 94.67446,-77.00654 124.72072,-128.61676 39.39095,-67.66151 68.93073,-147.20863 65.90268,-225.44263 -2.92433,-75.55452 -11.81887,-180.06316 -80.28373,-212.15055 -55.55463,-26.03676 -133.96268,13.56897 -173.97991,60.07543 -52.3165,60.80021 -42.78161,156.41846 -43.73415,236.62304 -0.35078,29.53584 14.03136,87.49584 14.03136,87.49584 l -164.01333,4.12025 c 0,0 23.2598,-40.61503 28.68362,-63.06202 16.8512,-69.74039 30.50826,-146.19573 10.17472,-215.00149 -9.53206,-32.25511 -28.15389,-68.12479 -58.78974,-82.00633 -34.57432,-15.66612 -88.01026,-17.14572 -113.32833,11.13514 -54.481448,60.85701 -19.36745,166.48327 3.06305,245.02419 8.59901,30.10965 29.55599,55.53659 48.60955,80.38606 27.79189,36.24591 94.83569,98.90191 94.83569,98.90191 z" ns2:path-effect="#path-effect1030;#path-effect1086" /></svg>