<?xml version="1.0" encoding="UTF-8" standalone="no"?>
<svg
   xmlns:dc="http://purl.org/dc/elements/1.1/"
   xmlns:cc="http://creativecommons.org/ns#"
   xmlns:rdf="http://www.w3.org/1999/02/22-rdf-syntax-ns#"
   xmlns:svg="http://www.w3.org/2000/svg"
   xmlns="http://www.w3.org/2000/svg"
   xmlns:sodipodi="http://sodipodi.sourceforge.net/DTD/sodipodi-0.dtd"
   xmlns:inkscape="http://www.inkscape.org/namespaces/inkscape"
   xml:space="preserve"
   width="1000"
   height="1000"
   version="1.1"
   style="clip-rule:evenodd;fill-rule:evenodd;image-rendering:optimizeQuality;shape-rendering:geometricPrecision;text-rendering:geometricPrecision"
   viewBox="0 0 1000 1000"
   id="svg10"
   sodipodi:docname="ന്റ.svg"
   inkscape:version="1.0.2 (e86c870879, 2021-01-15)"><metadata
   id="metadata14"><rdf:RDF><cc:Work
       rdf:about=""><dc:format>image/svg+xml</dc:format><dc:type
         rdf:resource="http://purl.org/dc/dcmitype/StillImage" /><dc:title /></cc:Work></rdf:RDF></metadata><sodipodi:namedview
   pagecolor="#ffffff"
   bordercolor="#666666"
   borderopacity="1"
   objecttolerance="10"
   gridtolerance="10"
   guidetolerance="10"
   inkscape:pageopacity="0"
   inkscape:pageshadow="2"
   inkscape:window-width="1920"
   inkscape:window-height="1007"
   id="namedview12"
   showgrid="false"
   inkscape:zoom="0.678"
   inkscape:cx="218.42856"
   inkscape:cy="464.2983"
   inkscape:window-x="1920"
   inkscape:window-y="0"
   inkscape:window-maximized="1"
   inkscape:current-layer="svg10"
   showguides="true"
   inkscape:guide-bbox="true"
   inkscape:document-rotation="0"
   inkscape:snap-to-guides="true"><sodipodi:guide
     position="0,1000"
     orientation="0,1"
     id="guide16"
     inkscape:label=""
     inkscape:locked="true"
     inkscape:color="rgb(0,0,255)" /><sodipodi:guide
     position="1763.3122,2036.1693"
     orientation="1000,0"
     id="guide18" /><sodipodi:guide
     position="0,200"
     orientation="0,1"
     id="guide20"
     inkscape:label="base"
     inkscape:locked="true"
     inkscape:color="rgb(0,0,255)" /><inkscape:grid
     type="xygrid"
     id="grid24"
     originx="-473.37552"
     originy="-489.69235" /><sodipodi:guide
     position="0,0"
     orientation="0,1"
     id="guide34"
     inkscape:label="bottom"
     inkscape:locked="true"
     inkscape:color="rgb(0,0,255)" /><sodipodi:guide
     position="225.05109,1693.3186"
     orientation="0,1"
     id="guide44"
     inkscape:label=""
     inkscape:locked="false"
     inkscape:color="rgb(0,0,255)" /><sodipodi:guide
     position="0,900"
     orientation="0,1"
     id="guide46"
     inkscape:label=""
     inkscape:locked="true"
     inkscape:color="rgb(0,0,255)" /><sodipodi:guide
     position="804.34685,879.87687"
     orientation="-1,0"
     id="guide841"
     inkscape:label="width"
     inkscape:locked="false"
     inkscape:color="rgb(0,0,255)" /><sodipodi:guide
     position="0,1000"
     orientation="0,1000"
     id="guide860" /><sodipodi:guide
     position="1000,1000"
     orientation="1000,0"
     id="guide862" /><sodipodi:guide
     position="1000,0"
     orientation="0,-1000"
     id="guide864" /><sodipodi:guide
     position="0,0"
     orientation="-1000,0"
     id="guide866" /></sodipodi:namedview>
 <defs
   id="defs4"><inkscape:path-effect
   effect="fillet_chamfer"
   id="path-effect861"
   is_visible="true"
   lpeversion="1"
   satellites_param="F,0,1,1,0,34.16123,0,1 @ F,0,0,1,0,0,0,1 @ F,0,0,1,0,0,0,1 @ F,0,0,1,0,0,0,1 @ F,0,0,1,0,0,0,1 @ F,0,0,1,0,0,0,1 @ F,0,0,1,0,0,0,1 @ F,0,0,1,0,0,0,1 @ F,0,0,1,0,0,0,1 @ F,0,0,1,0,0,0,1 @ F,0,0,1,0,0,0,1 @ F,0,0,1,0,0,0,1 @ F,0,0,1,0,0,0,1 @ F,0,1,1,0,34.16123,0,1 @ F,0,1,1,0,34.16123,0,1 @ F,0,0,1,0,0,0,1 @ F,0,0,1,0,0,0,1 @ F,0,0,1,0,0,0,1 @ F,0,0,1,0,0,0,1 @ F,0,0,1,0,0,0,1 @ F,0,0,1,0,0,0,1 @ F,0,0,1,0,0,0,1 @ F,0,0,1,0,0,0,1 @ F,0,0,1,0,0,0,1 @ F,0,1,1,0,34.16123,0,1"
   unit="px"
   method="auto"
   mode="F"
   radius="0"
   chamfer_steps="1"
   flexible="false"
   use_knot_distance="true"
   apply_no_radius="true"
   apply_with_radius="true"
   only_selected="true"
   hide_knots="false" /><inkscape:path-effect
   effect="fillet_chamfer"
   id="path-effect859"
   is_visible="true"
   lpeversion="1"
   satellites_param="F,0,1,1,0,22.226773,0,1 @ F,0,0,1,0,0,0,1 @ F,0,0,1,0,0,0,1 @ F,0,0,1,0,0,0,1 @ F,0,0,1,0,0,0,1 @ F,0,0,1,0,0,0,1 @ F,0,0,1,0,0,0,1 @ F,0,0,1,0,0,0,1 @ F,0,0,1,0,0,0,1 @ F,0,0,1,0,0,0,1 @ F,0,0,1,0,0,0,1 @ F,0,0,1,0,0,0,1 @ F,0,0,1,0,0,0,1 @ F,0,0,1,0,0,0,1 @ F,0,0,1,0,0,0,1 @ F,0,0,1,0,0,0,1 @ F,0,0,1,0,0,0,1 @ F,0,0,1,0,0,0,1 @ F,0,0,1,0,0,0,1 @ F,0,0,1,0,0,0,1 @ F,0,0,1,0,0,0,1 @ F,0,0,1,0,0,0,1 @ F,0,0,1,0,0,0,1 @ F,0,0,1,0,0,0,1 @ F,0,0,1,0,0,0,1 @ F,0,0,1,0,0,0,1 @ F,0,0,1,0,0,0,1 @ F,0,0,1,0,50.161367,0,1 @ F,0,0,1,0,50.161367,0,1 @ F,0,0,1,0,0,0,1 @ F,0,0,1,0,0,0,1 @ F,0,0,1,0,0,0,1 @ F,0,0,1,0,0,0,1 @ F,0,0,1,0,0,0,1 @ F,0,0,1,0,0,0,1 @ F,0,0,1,0,0,0,1 @ F,0,0,1,0,0,0,1 @ F,0,0,1,0,0,0,1 @ F,0,0,1,0,0,0,1 @ F,0,0,1,0,0,0,1 @ F,0,0,1,0,0,0,1 @ F,0,0,1,0,0,0,1 @ F,0,0,1,0,0,0,1 @ F,0,0,1,0,0,0,1 @ F,0,0,1,0,0,0,1 @ F,0,0,1,0,0,0,1 @ F,0,0,1,0,0,0,1 @ F,0,0,1,0,0,0,1 @ F,0,0,1,0,0,0,1 @ F,0,1,1,0,22.226773,0,1 @ F,0,1,1,0,22.226773,0,1 @ F,0,0,1,0,0,0,1 @ F,0,0,1,0,0,0,1 @ F,0,0,1,0,0,0,1 @ F,0,0,1,0,0,0,1 @ F,0,0,1,0,0,0,1 @ F,0,0,1,0,0,0,1 @ F,0,0,1,0,0,0,1 @ F,0,0,1,0,0,0,1 @ F,0,0,1,0,0,0,1 @ F,0,0,1,0,0,0,1 @ F,0,1,1,0,22.226773,0,1"
   unit="px"
   method="auto"
   mode="F"
   radius="0"
   chamfer_steps="1"
   flexible="false"
   use_knot_distance="true"
   apply_no_radius="true"
   apply_with_radius="true"
   only_selected="true"
   hide_knots="false" /><inkscape:path-effect
   effect="spiro"
   id="path-effect862"
   is_visible="true"
   lpeversion="1" /><inkscape:path-effect
   effect="spiro"
   id="path-effect1521"
   is_visible="true"
   lpeversion="1" /><inkscape:path-effect
   effect="spiro"
   id="path-effect858"
   is_visible="true"
   lpeversion="1" /><inkscape:path-effect
   effect="spiro"
   id="path-effect854"
   is_visible="true"
   lpeversion="1" />
  <style
   type="text/css"
   id="style2">
   <![CDATA[
    .fil0 {fill:#EF7F1A;fill-rule:nonzero}
   ]]>
  </style>
 <inkscape:path-effect
   effect="spiro"
   id="path-effect1214"
   is_visible="true"
   lpeversion="1" /><inkscape:path-effect
   effect="spiro"
   id="path-effect1195"
   is_visible="true"
   lpeversion="1" /><inkscape:path-effect
   effect="spiro"
   id="path-effect992"
   is_visible="true"
   lpeversion="1" /><inkscape:path-effect
   effect="spiro"
   id="path-effect287"
   is_visible="true"
   lpeversion="1" /><inkscape:path-effect
   effect="spiro"
   id="path-effect1032"
   is_visible="true"
   lpeversion="1" /><inkscape:path-effect
   effect="spiro"
   id="path-effect1218"
   is_visible="true"
   lpeversion="1" /><inkscape:path-effect
   effect="spiro"
   id="path-effect309"
   is_visible="true"
   lpeversion="1" /><inkscape:path-effect
   effect="spiro"
   id="path-effect1176"
   is_visible="true"
   lpeversion="1" /><inkscape:path-effect
   effect="spiro"
   id="path-effect1026"
   is_visible="true"
   lpeversion="1" /><inkscape:path-effect
   effect="spiro"
   id="path-effect1030"
   is_visible="true"
   lpeversion="1" /><inkscape:path-effect
   effect="spiro"
   id="path-effect1525"
   is_visible="true"
   lpeversion="1" /></defs>
 
<path
   style="display:inline;fill:#1a1a1a;fill-rule:nonzero;stroke:none;stroke-width:2.09522px;stroke-linecap:butt;stroke-linejoin:miter;stroke-opacity:1"
   d="m 202.38434,780.19371 c -5.5975,-20.77574 -12.37041,-41.23484 -20.278,-61.2457 C 150.03722,637.79418 99.903613,565.24351 59.274313,488.01895 27.835881,428.26358 1.6165811,363.63575 0.60468511,296.12238 0.09873714,262.36569 6.0792715,228.28085 20.172872,197.60284 34.266473,166.92483 56.687202,139.77882 85.400289,122.02133 121.99458,99.389737 167.66349,93.025045 209.76503,101.90153 c 42.10153,8.87648 80.51478,32.3773 109.89587,63.81108 36.84489,39.41903 59.83727,91.53972 64.10948,145.32777 7.97489,-36.71104 22.03888,-72.09187 41.44351,-104.25955 21.67812,-35.93653 50.50516,-68.22822 86.63043,-89.59034 36.12526,-21.362111 79.94729,-31.108 120.96685,-22.232729 42.42497,9.179349 79.2203,37.684349 103.64926,73.564219 24.42895,35.87986 37.2887,78.66296 42.7049,121.73039 6.03352,47.97614 3.18242,97.01927 -7.97619,144.06816 -14.55339,61.36252 -43.62729,119.74227 -86.85895,165.65723 -16.77074,17.81167 -35.84935,33.86858 -57.99963,44.25503 -22.15028,10.38646 -47.64425,14.78707 -71.4334,9.07834 -19.65439,-4.7165 -37.42049,-16.19029 -50.82775,-31.31595 -13.40726,-15.12567 -22.55809,-33.7782 -27.64049,-53.34116 -10.16479,-39.12594 -4.23744,-80.72969 6.58655,-119.67841 18.05605,-64.97233 49.23442,-125.37009 77.65339,-186.52388 15.81626,-34.03446 31.0293,-69.17338 34.69148,-106.52425 1.83108,-18.67543 0.68583,-37.76167 -4.65388,-55.75089 -5.33971,-17.989231 -14.98394,-34.855255 -28.7028,-47.658292 -20.18271,-18.835386 -48.03088,-27.863014 -75.57559,-29.707647 -27.5447,-1.844633 -55.08577,2.928376 -82.09573,8.635847 -27.30682,5.770198 -54.40724,12.51689 -81.23256,20.221401 -26.62486,7.646938 -51.52832,-7.288826 -56.00252,-34.628497 l -7.79369,-47.623494 c -4.4742,-27.339671 14.3548,-50.259965 42.05471,-49.960656 23.1234,0.249857 46.23992,1.137004 69.31442,2.660793 56.24101,3.714032 113.13693,11.459317 164.66835,34.29259 38.46409,17.043218 73.96867,43.13854898 95.94022,79.016242 19.89027,32.479148 27.68147,71.376793 26.89038,109.454253 -0.7911,38.07745 -9.76517,75.55877 -21.42493,111.81574 -21.19044,65.89343 -51.26529,128.54168 -75.89052,193.22998 -7.41499,19.47853 -14.433,39.72398 -13.75471,60.55509 0.33915,10.41556 2.66694,20.85665 7.57069,30.05187 4.90375,9.19522 12.47264,17.09108 21.85322,21.6302 8.95728,4.33429 19.30194,5.48276 29.13146,3.93369 9.82952,-1.54906 19.15044,-5.71145 27.314,-11.40138 16.32712,-11.37986 27.7746,-28.40694 37.6815,-45.66757 22.19671,-38.67298 38.72698,-80.9992 44.76558,-125.17871 4.69689,-34.36332 2.8151,-70.2894 -10.64113,-102.25545 -6.72812,-15.98303 -16.31984,-30.82677 -28.62884,-43.04206 -12.309,-12.21528 -27.36528,-21.75808 -43.8887,-27.02128 -29.50764,-9.39906 -62.50189,-4.57195 -90.02059,9.63242 -27.5187,14.20437 -49.85088,37.17175 -66.7446,63.12642 -22.30589,34.26967 -35.6552,73.89732 -41.97007,114.2964 -6.31487,40.39908 -5.76677,81.63337 -1.76408,122.32664 2.168,22.04093 5.34413,43.98265 9.51377,65.73389 2.31099,12.05553 -5.43054,22.01186 -17.70217,22.32014 l -119.57381,3.00387 c -12.27163,0.30828 -17.35255,-8.13018 -11.96021,-19.15648 6.90062,-14.11046 13.05414,-28.58632 18.42407,-43.34735 24.97979,-68.66528 32.47176,-145.41878 10.17472,-215.00149 -5.25354,-16.3948 -12.15401,-32.36551 -21.77548,-46.64194 -9.62148,-14.27644 -22.0554,-26.84255 -37.01426,-35.36439 -17.53013,-9.98666 -38.26237,-14.1252 -58.32767,-12.02224 -20.06531,2.10295 -39.38596,10.38163 -55.00066,23.15738 -17.28947,14.14603 -29.9258,33.60135 -37.16134,54.73621 -7.23554,21.13487 -9.19746,43.8951 -7.1043,66.13592 4.18631,44.48166 24.10613,85.98329 47.32869,124.15206 24.45573,40.19562 53.09329,78.11059 87.55113,110.14851 26.96818,25.07425 57.40321,46.41098 90.15164,63.24755 10.9158,5.61202 12.18438,15.72029 2.49551,23.2578 l -106.48947,82.84402 c -9.68887,7.53751 -19.7125,3.93122 -22.90575,-7.92088 z"
   id="path1087-1-75"
   inkscape:path-effect="#path-effect1030;#path-effect859"
   inkscape:original-d="m 207.74684,801.76245 c -12.76427,-34.18253 -14.53257,-56.137 -25.6405,-82.81444 C 148.59214,638.45857 77.346458,573.3136 59.274313,488.01895 33.922282,368.36565 -11.405066,196.77671 85.400289,122.02133 148.27013,73.47184 257.39242,116.39412 319.6609,165.71261 c 41.50526,32.87348 64.10948,145.32777 64.10948,145.32777 0,0 16.57273,-76.32984 41.44351,-104.25955 52.27078,-58.69972 130.83756,-128.729804 207.59728,-111.823069 79.44518,17.498229 122.78786,117.433489 146.35416,195.294609 13.93312,46.03389 4.81154,97.70304 -7.97619,144.06816 -16.57726,60.10504 -40.78933,123.64518 -86.85895,165.65723 -34.47953,31.44275 -74.45358,63.35663 -129.43303,53.33337 C 479.93312,639.6445 480.98565,521.15048 483.01547,448.97561 484.90878,381.6547 547.26083,328.45108 560.66886,262.45173 574.60083,193.87337 607.92503,105.32284 562.00366,52.518298 527.2083,12.50745 457.24038,27.935888 404.33234,31.446498 359.82421,34.399748 275.19851,66.542255 275.19851,66.542255 l -23.99619,-146.6292 c 0,0 79.88916,-2.243835 119.47038,2.20299 55.71655,6.259578 114.11342,10.049745 164.66835,34.29259 37.35698,17.913972 77.79791,41.7696121 95.94022,79.016242 32.30799,66.329163 18.2944,148.614763 5.46545,221.269993 -12.03263,68.14538 -67.76017,124.50972 -75.89052,193.22998 -4.43826,37.51358 -18.19469,95.49786 15.6692,112.23716 32.29909,15.9658 70.91152,-25.58202 94.12696,-53.13526 28.55345,-33.88866 47.11708,-80.92703 44.76558,-125.17871 -3.38435,-63.68852 -23.10223,-150.85009 -83.15867,-172.31879 -54.24709,-19.39199 -121.46642,27.23089 -156.76519,72.75884 -49.14723,63.38953 -42.78161,156.41846 -43.73415,236.62304 -0.35078,29.53584 14.03136,87.49584 14.03136,87.49584 l -164.01333,4.12025 c 0,0 23.2598,-40.61503 28.68362,-63.06202 16.8512,-69.74039 30.50826,-146.19573 10.17472,-215.00149 -9.53206,-32.25511 -28.15389,-68.12479 -58.78974,-82.00633 -34.57432,-15.66612 -88.01026,-17.14572 -113.32833,11.13514 -54.481448,60.85701 -24.334,168.07482 3.06305,245.02419 15.73151,44.18468 52.96972,78.46425 87.55113,110.14851 32.46628,29.74634 110.1904,72.85749 110.1904,72.85749 z"
   sodipodi:nodetypes="caaaacaaaaasaaaaccaaaaaaaaaaaccaaaaaacc" /><path
   style="clip-rule:evenodd;display:inline;fill:#1a1a1a;fill-rule:evenodd;stroke:none;stroke-width:2.02105px;stroke-linecap:butt;stroke-linejoin:miter;stroke-opacity:1;image-rendering:optimizeQuality;shape-rendering:geometricPrecision;text-rendering:geometricPrecision"
   d="m 365.30529,1117.2074 c 3.23285,-11.7207 5.20934,-23.7881 5.85627,-35.9294 1.61238,-30.2604 -4.95272,-60.4518 -14.60364,-89.1772 -8.36998,-24.91277 -19.0806,-49.04769 -26.11065,-74.37122 -13.02625,-46.92291 -12.47287,-99.20282 10.3501,-142.22089 11.93203,-22.49019 29.5338,-41.73634 49.9144,-56.99456 20.3806,-15.25821 43.50337,-26.62028 67.52686,-35.04963 37.19925,-13.05245 76.99327,-19.18657 116.30411,-16.21864 39.31084,2.96793 78.09768,15.18052 111.11683,36.71854 31.48656,20.53833 58.11174,50.68155 67.61709,87.05289 5.28281,20.21418 5.12254,41.56695 1.8847,62.20763 -3.23785,20.64068 -9.48032,40.68596 -16.26619,60.44636 -11.74615,34.2047 -25.34782,68.64321 -26.17481,104.79912 -0.49893,21.8133 3.86836,43.6945 12.49853,63.7292 7.44804,17.2905 1.66275,28.466 -17.1525,27.0733 l -89.89974,-6.6548 c -18.81525,-1.3927 -27.57538,-16.3747 -18.98488,-33.1714 7.13286,-13.9466 14.56185,-27.7417 22.28047,-41.3729 18.24169,-32.21501 38.56191,-64.82601 42.77474,-101.60668 2.57242,-22.45888 -1.20441,-45.61946 -10.84058,-66.06849 -9.63617,-20.44903 -25.10888,-38.118 -44.14447,-50.31082 -28.08819,-17.99126 -63.43657,-23.5595 -96.13651,-16.97571 -18.86708,3.79869 -37.0143,11.52566 -52.39615,23.09266 -15.38185,11.567 -27.93613,27.01476 -35.44663,44.7345 -10.28957,24.27649 -10.78994,51.99647 -4.60188,77.62714 9.34821,38.71987 32.83296,72.2415 55.22095,105.1868 14.19091,20.8828 28.1274,41.9385 41.80538,63.1608 10.22081,15.8583 3.09393,29.9213 -15.7234,31.2857 l -114.92622,8.3334 c -18.81733,1.3644 -26.7502,-11.1691 -21.74218,-29.3257 z"
   id="path933-8"
   inkscape:path-effect="#path-effect1525;#path-effect861"
   inkscape:original-d="m 352.97569,1149.0036 c 0,0 17.01743,-44.3799 18.18587,-67.7256 1.50569,-30.084 -7.15199,-59.9918 -14.60364,-89.1772 -6.49976,-25.4572 -22.63961,-48.32764 -26.11065,-74.37122 -6.2795,-47.11572 -16.25648,-97.84819 10.3501,-142.22089 22.10478,-36.86489 59.444,-77.59929 117.44126,-92.04419 71.2488,-17.7453 165.45034,-7.9511 227.42094,20.4999 41.36512,18.9909 57.88351,55.0147 67.61709,87.05289 12.21035,40.1905 -6.92597,81.94759 -14.38149,122.65399 -6.43854,35.1538 -27.29318,69.39102 -26.17481,104.79912 1.00386,31.783 -1.21561,91.8585 29.41405,93.3243 l -158.03578,-11.6984 c 30.96674,-40.01 25.8802,-47.5356 37.36361,-72.0225 15.60276,-33.2709 43.56316,-64.86737 42.77474,-101.60668 -0.92053,-42.89506 -20.88369,-90.34221 -54.98505,-116.37931 -25.86419,-19.74784 -64.5386,-24.75423 -96.13651,-16.97571 -35.92139,8.84283 -70.55528,35.12113 -87.84278,67.82716 -12.11315,22.91674 -10.05886,52.28692 -4.60188,77.62714 8.33674,38.7128 35.15689,71.0457 55.22095,105.1868 18.56087,31.5832 36.90114,66.858 60.15376,91.976 z"
   sodipodi:nodetypes="caaaaaaaaaccaaaaaaacc" /></svg>
