<?xml version="1.0" encoding="UTF-8" standalone="no"?>
<svg
   xmlns:dc="http://purl.org/dc/elements/1.1/"
   xmlns:cc="http://creativecommons.org/ns#"
   xmlns:rdf="http://www.w3.org/1999/02/22-rdf-syntax-ns#"
   xmlns:svg="http://www.w3.org/2000/svg"
   xmlns="http://www.w3.org/2000/svg"
   xmlns:sodipodi="http://sodipodi.sourceforge.net/DTD/sodipodi-0.dtd"
   xmlns:inkscape="http://www.inkscape.org/namespaces/inkscape"
   xml:space="preserve"
   width="1000"
   height="1000"
   version="1.1"
   style="clip-rule:evenodd;fill-rule:evenodd;image-rendering:optimizeQuality;shape-rendering:geometricPrecision;text-rendering:geometricPrecision"
   viewBox="0 0 1000 1000"
   id="svg10"
   sodipodi:docname="ന്നൃ.svg"
   inkscape:version="1.0.1 (3bc2e813f5, 2020-09-07)"><metadata
   id="metadata14"><rdf:RDF><cc:Work
       rdf:about=""><dc:format>image/svg+xml</dc:format><dc:type
         rdf:resource="http://purl.org/dc/dcmitype/StillImage" /><dc:title /></cc:Work></rdf:RDF></metadata><sodipodi:namedview
   pagecolor="#ffffff"
   bordercolor="#666666"
   borderopacity="1"
   objecttolerance="10"
   gridtolerance="10"
   guidetolerance="10"
   inkscape:pageopacity="0"
   inkscape:pageshadow="2"
   inkscape:window-width="1920"
   inkscape:window-height="1015"
   id="namedview12"
   showgrid="false"
   inkscape:zoom="0.678"
   inkscape:cx="455.12076"
   inkscape:cy="556.53787"
   inkscape:window-x="1920"
   inkscape:window-y="0"
   inkscape:window-maximized="1"
   inkscape:current-layer="svg10"
   showguides="true"
   inkscape:guide-bbox="true"
   inkscape:document-rotation="0"
   inkscape:snap-to-guides="true"><sodipodi:guide
     position="0,1000"
     orientation="0,1"
     id="guide16"
     inkscape:label=""
     inkscape:locked="true"
     inkscape:color="rgb(0,0,255)" /><sodipodi:guide
     position="1763.3122,2036.1693"
     orientation="1000,0"
     id="guide18" /><sodipodi:guide
     position="0,200"
     orientation="0,1"
     id="guide20"
     inkscape:label="base"
     inkscape:locked="true"
     inkscape:color="rgb(0,0,255)" /><inkscape:grid
     type="xygrid"
     id="grid24"
     originx="-473.37552"
     originy="-489.69235" /><sodipodi:guide
     position="0,0"
     orientation="0,1"
     id="guide34"
     inkscape:label="bottom"
     inkscape:locked="true"
     inkscape:color="rgb(0,0,255)" /><sodipodi:guide
     position="225.05109,1693.3186"
     orientation="0,1"
     id="guide44"
     inkscape:label=""
     inkscape:locked="false"
     inkscape:color="rgb(0,0,255)" /><sodipodi:guide
     position="0,900"
     orientation="0,1"
     id="guide46"
     inkscape:label=""
     inkscape:locked="true"
     inkscape:color="rgb(0,0,255)" /><sodipodi:guide
     position="1000,975.353"
     orientation="-1,0"
     id="guide841"
     inkscape:label="width"
     inkscape:locked="false"
     inkscape:color="rgb(0,0,255)" /><sodipodi:guide
     position="1015.499,1000"
     orientation="0,1000"
     id="guide860" /><sodipodi:guide
     position="1000,1000"
     orientation="1000,0"
     id="guide862" /><sodipodi:guide
     position="1000,0"
     orientation="0,-1000"
     id="guide864" /><sodipodi:guide
     position="0,0"
     orientation="-1000,0"
     id="guide866" /></sodipodi:namedview>
 <defs
   id="defs4"><inkscape:path-effect
   effect="spiro"
   id="path-effect870"
   is_visible="true"
   lpeversion="1" /><inkscape:path-effect
   effect="spiro"
   id="path-effect862"
   is_visible="true"
   lpeversion="1" /><inkscape:path-effect
   effect="spiro"
   id="path-effect1521"
   is_visible="true"
   lpeversion="1" /><inkscape:path-effect
   effect="spiro"
   id="path-effect858"
   is_visible="true"
   lpeversion="1" /><inkscape:path-effect
   effect="spiro"
   id="path-effect854"
   is_visible="true"
   lpeversion="1" />
  <style
   type="text/css"
   id="style2">
   <![CDATA[
    .fil0 {fill:#EF7F1A;fill-rule:nonzero}
   ]]>
  </style>
 <inkscape:path-effect
   effect="spiro"
   id="path-effect1214"
   is_visible="true"
   lpeversion="1" /><inkscape:path-effect
   effect="spiro"
   id="path-effect1195"
   is_visible="true"
   lpeversion="1" /><inkscape:path-effect
   effect="spiro"
   id="path-effect992"
   is_visible="true"
   lpeversion="1" /><inkscape:path-effect
   effect="spiro"
   id="path-effect287"
   is_visible="true"
   lpeversion="1" /><inkscape:path-effect
   effect="spiro"
   id="path-effect1032"
   is_visible="true"
   lpeversion="1" /><inkscape:path-effect
   effect="spiro"
   id="path-effect1218"
   is_visible="true"
   lpeversion="1" /><inkscape:path-effect
   effect="spiro"
   id="path-effect309"
   is_visible="true"
   lpeversion="1" /><inkscape:path-effect
   effect="spiro"
   id="path-effect1176"
   is_visible="true"
   lpeversion="1" /><inkscape:path-effect
   effect="spiro"
   id="path-effect1026"
   is_visible="true"
   lpeversion="1" /><inkscape:path-effect
   effect="spiro"
   id="path-effect1255"
   is_visible="true"
   lpeversion="1" /><inkscape:path-effect
   effect="spiro"
   id="path-effect1033"
   is_visible="true"
   lpeversion="1" /><inkscape:path-effect
   effect="spiro"
   id="path-effect461"
   is_visible="true"
   lpeversion="1" /></defs>
 
<path
   style="display:inline;fill:#1a1a1a;fill-rule:nonzero;stroke:none;stroke-width:1.8927px;stroke-linecap:butt;stroke-linejoin:miter;stroke-opacity:1"
   d="M 95.634685,564.77181 C 115.18557,659.89129 173.66721,746.40449 254.64544,800 L 122.26891,877.10372 C 122.08035,857.67659 120.44278,838.26369 117.37429,819.0795 98.220574,699.33061 24.6208,593.72625 4.4029746,474.15242 -8.5346683,397.63561 1.7110686,316.70208 37.213505,247.69642 c 15.263792,-29.66805 35.39845,-57.38163 62.046577,-77.45783 26.648128,-20.0762 60.291368,-32.00872 93.486838,-28.65644 26.14526,2.6403 50.77116,14.52471 71.48383,30.69663 20.71267,16.17192 37.80414,36.5153 53.28811,57.74717 25.49908,34.96474 47.07878,72.78559 64.20553,112.52739 6.37132,-18.40177 17.86304,-35.00093 32.84439,-47.44191 14.98136,-12.44098 33.40907,-20.68785 52.6681,-23.57032 31.62209,-4.73283 65.16555,5.5852 88.66084,27.27223 23.49529,21.68704 36.46093,54.29866 34.27031,86.19783 11.6353,-76.80423 45.57983,-150.09571 96.63232,-208.64409 19.59126,-22.46779 41.9234,-43.00297 68.19016,-57.09822 26.26677,-14.09524 56.79686,-21.42997 86.2445,-16.79795 28.94024,4.55221 55.3513,20.42854 75.84657,41.36187 20.49527,20.93333 35.45379,46.72636 47.18745,73.57001 30.22312,69.14288 39.90687,146.03812 36.43937,221.41816 -3.46754,75.38005 -19.67302,149.62508 -39.47219,222.44106 -22.48569,82.69628 -50.3795,165.51309 -100.10266,235.312 -30.64217,43.01395 -69.66292,80.67015 -116.19141,105.65499 -46.52848,24.9849 -100.82856,36.7725 -153.02216,28.7121 -19.60416,-3.0275 -38.90512,-8.8471 -56.22104,-18.5243 -17.31592,-9.6772 -32.60631,-23.32349 -42.93248,-40.26042 -14.22565,-23.33285 -18.36246,-52.29563 -12.68938,-79.02777 5.67307,-26.73214 20.82591,-51.11493 41.30325,-69.21105 27.28098,-24.1086 63.10552,-36.90044 99.16885,-41.89169 36.06332,-4.99125 72.70443,-2.6981 108.99663,0.19191 56.54847,4.50305 112.98331,10.43297 169.23271,17.78222 l -51.09764,94.03393 c -37.89507,-9.08495 -75.86897,-17.84106 -113.91599,-26.26703 -37.02757,-8.2002 -75.12264,-16.12626 -112.60967,-10.38112 -19.43278,2.9782 -39.03491,10.11598 -52.41816,24.51707 -6.69163,7.20054 -11.63936,16.13197 -13.52,25.78023 -1.88064,9.64826 -0.57914,19.99999 4.23076,28.57266 4.63732,8.26509 12.30672,14.57334 20.85828,18.65834 8.55156,4.085 17.9724,6.07184 27.39888,7.05054 40.33615,4.18789 81.11681,-9.86425 114.49796,-32.89123 33.38116,-23.02697 60.06689,-54.5259 83.33167,-87.74176 41.88372,-59.7987 74.12651,-126.89478 89.86551,-198.18583 19.44516,-88.0784 13.29377,-180.20463 -4.92336,-268.54519 -4.90149,-23.76883 -10.81347,-47.74132 -22.97267,-68.74455 -6.07961,-10.50161 -13.71027,-20.17441 -23.00209,-27.97873 -9.29183,-7.80432 -20.28115,-13.70512 -32.10508,-16.4328 -14.2349,-3.28387 -29.37751,-1.86924 -43.1165,3.09628 -13.73899,4.96552 -26.10128,13.38439 -36.47287,23.67256 -20.74319,20.57632 -33.26883,47.96745 -42.938,75.53867 -24.83325,70.81091 -33.55609,146.9188 -28.20456,221.76688 4.39242,61.43372 18.1845,122.18666 40.7488,179.49502 L 570.59628,756 c 11.9156,-35.36842 18.53563,-72.51582 19.57157,-109.82311 1.25805,-45.30629 -5.69109,-90.59503 -17.48842,-134.35649 -5.98766,-22.21086 -13.4704,-44.56429 -27.48926,-62.80287 -7.00943,-9.1193 -15.62695,-17.09437 -25.66689,-22.70626 -10.03993,-5.61189 -21.53674,-8.79794 -33.03121,-8.38467 -13.72359,0.49342 -27.02636,6.12996 -37.68642,14.78696 -10.66006,8.65699 -18.76296,20.21392 -24.36488,32.75182 -11.20384,25.0758 -12.49023,53.31692 -12.92747,80.77836 -0.85017,53.39679 0.8866,107.16488 11.82455,159.4363 4.65942,22.26694 10.97698,44.18672 18.8831,65.51792 L 299.36545,768 c 18.62553,-42.12476 30.83325,-87.0802 36.07289,-132.83992 7.07343,-61.77485 1.41574,-124.73741 -14.00387,-184.97362 -7.59036,-29.65149 -17.57892,-58.8173 -31.82531,-85.90724 -10.38279,-19.74319 -23.26762,-38.60611 -40.7368,-52.47779 -17.46918,-13.87168 -40.01906,-22.35491 -62.15162,-19.57186 -21.91995,2.75631 -41.48419,16.29138 -55.16528,33.63813 -13.68108,17.34674 -22.06018,38.28422 -28.3393,59.46568 -17.187135,57.97769 -19.756304,120.20513 -7.581475,179.43843 z"
   id="use1033"
   sodipodi:nodetypes="accaaaaacacaaaaaaaaaccaaasaaaaaaccaaaaaccsssaaa"
   inkscape:path-effect="#path-effect870"
   inkscape:original-d="M 95.634685,564.77181 C 121.43504,655.83088 205.13949,803.95446 254.64544,800 L 122.26891,877.10372 C 114.42173,867.46879 121.23683,838.1014 117.37429,819.0795 93.298665,700.51377 14.832615,594.68743 4.4029746,474.15242 c -6.57522,-75.98958 -7.574335,-161.75119 32.8105304,-226.456 33.23052,-53.24208 92.774585,-106.67648 155.533415,-106.11427 50.97763,0.45667 90.53529,50.67107 124.77194,88.4438 29.00217,31.99762 64.20553,112.52739 64.20553,112.52739 0,0 48.47399,-71.9824 85.51249,-71.01223 55.74579,1.46018 92.98764,43.74813 122.93115,113.47006 0,0 42.77765,-154.10844 96.63232,-208.64409 40.09878,-40.60582 98.02936,-82.567251 154.43466,-73.89617 55.46998,8.52729 100.85402,63.37917 123.03402,114.93188 58.47437,135.9113 27.01714,298.9864 -3.03282,443.85922 -17.31217,83.46315 -41.68655,173.23651 -100.10266,235.312 -68.73323,73.03892 -168.98469,137.98799 -269.21357,134.36709 -38.39813,-1.3872 -83.39913,-23.7399 -99.15352,-58.78472 -20.63443,-45.90023 -6.84613,-112.52889 28.61387,-148.23882 49.86381,-50.21524 137.47498,-38.40987 208.16548,-41.69978 C 786.20594,779.58084 898.77852,800 898.77852,800 l -51.09764,94.03393 c 0,0 -75.44085,-20.08658 -113.91599,-26.26703 -37.21859,-5.9786 -78.00036,-25.31975 -112.60967,-10.38112 -30.64734,13.2285 -68.62314,46.21379 -61.7074,78.86996 3.77606,17.8306 27.82077,34.30744 48.25716,25.70888 54.19422,-22.80208 146.6426,-62.79425 197.82963,-120.63299 48.07214,-54.31907 75.19257,-127.14923 89.86551,-198.18583 18.11055,-87.67923 22.48777,-183.3145 -4.92336,-268.54519 -14.0306,-43.62599 -32.6735,-106.96344 -78.07984,-113.15608 -52.71991,-7.19009 -96.98098,55.63344 -122.52737,102.30751 -35.77771,65.36703 -31.80733,147.33628 -28.20456,221.76688 2.96634,61.28235 40.7488,179.49502 40.7488,179.49502 L 570.59628,756 c 0,0 18.69927,-72.64888 19.57157,-109.82311 1.05948,-45.15087 1.58617,-93.41894 -17.48842,-134.35649 -17.94316,-38.5093 -43.94553,-98.42709 -86.18736,-93.8938 -49.25627,5.28607 -63.8108,80.05329 -74.97877,128.31714 -12.01388,51.91955 2.42443,106.9805 11.82455,159.4363 4.00906,22.3719 18.8831,65.51792 18.8831,65.51792 L 299.36545,768 c 0,0 29.55103,-84.02794 36.07289,-132.83992 6.52202,-48.81223 9.55372,-127.80262 -14.00387,-184.97362 -11.98648,-29.08951 -12.92964,-56.182 -31.82531,-85.90724 -22.66479,-35.65451 -61.293,-76.82884 -102.88842,-72.04965 -41.41596,4.75858 -67.7839,54.49311 -83.50458,93.10381 -22.575475,55.44642 -23.901325,121.83963 -7.581475,179.43843 z" /></svg>
