<svg xmlns="http://www.w3.org/2000/svg" xmlns:dc="http://purl.org/dc/elements/1.1/" xmlns:ns1="http://sodipodi.sourceforge.net/DTD/sodipodi-0.dtd" xmlns:ns2="http://www.inkscape.org/namespaces/inkscape" xmlns:ns4="http://creativecommons.org/ns#" xmlns:rdf="http://www.w3.org/1999/02/22-rdf-syntax-ns#" xml:space="preserve" width="1000" height="1000" version="1.1" style="clip-rule:evenodd;fill-rule:evenodd;image-rendering:optimizeQuality;shape-rendering:geometricPrecision;text-rendering:geometricPrecision" viewBox="0 0 1000 1000" id="svg10" ns1:docname="ന്നൃ.svg" ns2:version="1.0.2 (e86c870879, 2021-01-15)"><metadata id="metadata14"><rdf:RDF><ns4:Work rdf:about=""><dc:format>image/svg+xml</dc:format><dc:type rdf:resource="http://purl.org/dc/dcmitype/StillImage" /><dc:title /></ns4:Work></rdf:RDF></metadata><ns1:namedview pagecolor="#ffffff" bordercolor="#666666" borderopacity="1" objecttolerance="10" gridtolerance="10" guidetolerance="10" ns2:pageopacity="0" ns2:pageshadow="2" ns2:window-width="1920" ns2:window-height="1007" id="namedview12" showgrid="false" ns2:zoom="0.678" ns2:cx="583.9478" ns2:cy="591.79328" ns2:window-x="1920" ns2:window-y="0" ns2:window-maximized="1" ns2:current-layer="svg10" showguides="true" ns2:guide-bbox="true" ns2:document-rotation="0" ns2:snap-to-guides="true"><ns1:guide position="0,1000" orientation="0,1" id="guide16" ns2:label="" ns2:locked="true" ns2:color="rgb(0,0,255)" /><ns1:guide position="1763.3122,2036.1693" orientation="1000,0" id="guide18" /><ns1:guide position="0,200" orientation="0,1" id="guide20" ns2:label="base" ns2:locked="true" ns2:color="rgb(0,0,255)" /><ns2:grid type="xygrid" id="grid24" originx="-473.37552" originy="-489.69235" /><ns1:guide position="0,0" orientation="0,1" id="guide34" ns2:label="bottom" ns2:locked="true" ns2:color="rgb(0,0,255)" /><ns1:guide position="225.05109,1693.3186" orientation="0,1" id="guide44" ns2:label="" ns2:locked="false" ns2:color="rgb(0,0,255)" /><ns1:guide position="0,900" orientation="0,1" id="guide46" ns2:label="" ns2:locked="true" ns2:color="rgb(0,0,255)" /><ns1:guide position="1000,975.353" orientation="-1,0" id="guide841" ns2:label="width" ns2:locked="false" ns2:color="rgb(0,0,255)" /><ns1:guide position="1015.499,1000" orientation="0,1000" id="guide860" /><ns1:guide position="1000,1000" orientation="1000,0" id="guide862" /><ns1:guide position="1000,0" orientation="0,-1000" id="guide864" /><ns1:guide position="0,0" orientation="-1000,0" id="guide866" /></ns1:namedview>
 <defs id="defs4"><ns2:path-effect effect="spiro" id="path-effect870" is_visible="true" lpeversion="1" /><ns2:path-effect effect="spiro" id="path-effect862" is_visible="true" lpeversion="1" /><ns2:path-effect effect="spiro" id="path-effect1521" is_visible="true" lpeversion="1" /><ns2:path-effect effect="spiro" id="path-effect858" is_visible="true" lpeversion="1" /><ns2:path-effect effect="spiro" id="path-effect854" is_visible="true" lpeversion="1" />
  <style type="text/css" id="style2">
   
    .fil0 {fill:#EF7F1A;fill-rule:nonzero}
   
  </style>
 <ns2:path-effect effect="spiro" id="path-effect1214" is_visible="true" lpeversion="1" /><ns2:path-effect effect="spiro" id="path-effect1195" is_visible="true" lpeversion="1" /><ns2:path-effect effect="spiro" id="path-effect992" is_visible="true" lpeversion="1" /><ns2:path-effect effect="spiro" id="path-effect287" is_visible="true" lpeversion="1" /><ns2:path-effect effect="spiro" id="path-effect1032" is_visible="true" lpeversion="1" /><ns2:path-effect effect="spiro" id="path-effect1218" is_visible="true" lpeversion="1" /><ns2:path-effect effect="spiro" id="path-effect309" is_visible="true" lpeversion="1" /><ns2:path-effect effect="spiro" id="path-effect1176" is_visible="true" lpeversion="1" /><ns2:path-effect effect="spiro" id="path-effect1026" is_visible="true" lpeversion="1" /><ns2:path-effect effect="spiro" id="path-effect1255" is_visible="true" lpeversion="1" /><ns2:path-effect effect="spiro" id="path-effect1033" is_visible="true" lpeversion="1" /><ns2:path-effect effect="spiro" id="path-effect461" is_visible="true" lpeversion="1" /></defs>
 
<path style="display:inline;fill:#63452c;fill-rule:nonzero;stroke:none;stroke-width:1.8927px;stroke-linecap:butt;stroke-linejoin:miter;stroke-opacity:1" d="M 95.634685,564.77181 C 115.18557,659.89129 173.66721,746.40449 254.64544,800 L 122.26891,877.10372 C 122.07893,857.67664 120.44137,838.26388 117.37429,819.0795 98.229506,699.33013 24.693325,593.71302 4.4029746,474.15242 -8.5829675,397.63294 1.5737707,316.64332 37.213505,247.69642 c 15.306864,-29.61191 35.505251,-57.23378 62.14982,-77.26457 26.644565,-20.03079 60.196875,-31.98137 93.383595,-28.8497 26.2087,2.47319 50.99933,14.14131 71.80252,30.27325 20.8032,16.13195 37.88384,36.59654 52.96942,58.17055 52.62452,75.25874 82.38122,166.28732 84.3708,258.09832 L 357.8241,483.4733 c 4.54676,-24.88264 10.34403,-49.53673 17.36262,-73.83813 9.18547,-31.80408 20.80536,-63.63263 41.35755,-89.58412 10.27609,-12.97575 22.74449,-24.3333 37.15971,-32.46775 14.41523,-8.13445 30.81993,-12.97175 47.37187,-12.93721 18.22788,0.038 36.22245,5.99801 51.59482,15.79326 15.37237,9.79526 28.18906,23.31728 38.26254,38.50878 20.14697,30.38301 29.21721,66.65258 36.15667,102.44184 4.61315,23.79165 8.43978,47.73579 11.47154,71.78017 L 598.7206,498.4128 c -1.17512,-39.3945 1.15073,-78.89279 6.94117,-117.87713 10.8858,-73.28903 34.91212,-146.26438 81.13858,-204.16859 18.68635,-23.40691 41.08335,-44.27876 67.5786,-58.24532 26.49524,-13.96657 57.33303,-20.695991 86.85606,-15.65085 28.83128,4.92693 55.09132,20.82018 75.59317,41.68143 20.50185,20.86125 35.5937,46.50793 47.44085,73.25045 30.57561,69.01821 40.31767,145.98964 36.77727,221.39419 -3.5405,75.40456 -19.9323,149.64158 -39.81009,222.46503 -22.56586,82.67137 -50.40127,165.50122 -100.10266,235.312 -30.63073,43.02405 -69.65303,80.68379 -116.18435,105.66669 -46.53131,24.983 -100.83443,36.7636 -153.02922,28.7004 -19.60393,-3.0285 -38.90466,-8.8482 -56.22057,-18.5252 -17.31592,-9.677 -32.60655,-23.32284 -42.93295,-40.25952 -14.22607,-23.33268 -18.363,-52.29562 -12.68985,-79.02782 5.67316,-26.73219 20.82623,-51.11494 41.30372,-69.211 27.28109,-24.10844 63.1056,-36.90022 99.1689,-41.8915 36.06331,-4.99128 72.70439,-2.69823 108.99658,0.19172 56.54848,4.50296 112.98332,10.43288 169.23271,17.78222 l -51.09764,94.03393 c -37.89484,-9.0859 -75.86876,-17.84202 -113.91599,-26.26703 -37.02765,-8.19924 -75.12233,-16.12342 -112.60967,-10.38112 -19.43429,2.97694 -39.03879,10.1129 -52.42343,24.51446 -6.69233,7.20078 -11.64037,16.13301 -13.52025,25.78208 -1.87987,9.64906 -0.57642,20.00159 4.23628,28.57342 4.63937,8.26311 12.31019,14.56811 20.86151,18.65192 8.55132,4.08382 17.97058,6.07173 27.39565,7.05696 40.3543,4.21837 81.18711,-9.72981 114.61372,-32.7282 33.42661,-22.9984 60.12852,-54.53958 83.21591,-87.90479 41.50721,-59.98499 72.66383,-127.29754 89.86551,-198.18583 20.76364,-85.56714 20.9813,-175.66289 4.08392,-262.07668 -5.04396,-25.79498 -11.77946,-51.75335 -25.57133,-74.1276 -6.89594,-11.18712 -15.53853,-21.37446 -25.94805,-29.39616 -10.40952,-8.02169 -22.62279,-13.83503 -35.56774,-16.10083 -14.26024,-2.49602 -29.14047,-0.62534 -42.67341,4.51704 -13.53295,5.14238 -25.74266,13.47992 -36.09736,23.59747 -20.7094,20.23511 -33.75094,47.02269 -43.7566,74.193 -25.95006,70.46725 -33.92454,146.89151 -28.20456,221.76688 4.6903,61.3967 18.46917,122.09144 40.7488,179.49502 L 570.59628,756 c 11.9156,-35.36842 18.53563,-72.51582 19.57157,-109.82311 1.25805,-45.30629 -5.69109,-90.59503 -17.48842,-134.35649 -5.98766,-22.21086 -13.4704,-44.56429 -27.48926,-62.80287 -7.00943,-9.1193 -15.62695,-17.09437 -25.66689,-22.70626 -10.03993,-5.61189 -21.53674,-8.79794 -33.03121,-8.38467 -13.72359,0.49342 -27.02636,6.12996 -37.68642,14.78696 -10.66006,8.65699 -18.76296,20.21392 -24.36488,32.75182 -11.20384,25.0758 -12.49023,53.31692 -12.92747,80.77836 -0.85017,53.39679 0.8866,107.16488 11.82455,159.4363 4.65942,22.26694 10.97698,44.18672 18.8831,65.51792 L 299.36545,768 c 18.62553,-42.12476 30.83325,-87.0802 36.07289,-132.83992 7.07343,-61.77485 1.41574,-124.73741 -14.00387,-184.97362 -7.59036,-29.65149 -17.57892,-58.8173 -31.82531,-85.90724 -10.38279,-19.74319 -23.26762,-38.60611 -40.7368,-52.47779 -17.46918,-13.87168 -40.01906,-22.35491 -62.15162,-19.57186 -21.91995,2.75631 -41.48419,16.29138 -55.16528,33.63813 -13.68108,17.34674 -22.06018,38.28422 -28.3393,59.46568 -17.187135,57.97769 -19.756304,120.20513 -7.581475,179.43843 z" id="use1033" ns1:nodetypes="accaaaaaccaaaccaaaaaaaaaaccaaaaaaaaaaccaaaaaccaaaaaa" ns2:path-effect="#path-effect870" ns2:original-d="M 95.634685,564.77181 C 121.43504,655.83088 205.13949,803.95446 254.64544,800 L 122.26891,877.10372 C 114.42173,867.46879 121.23683,838.1014 117.37429,819.0795 93.298665,700.51377 14.832615,594.68743 4.4029746,474.15242 c -6.57522,-75.98958 -7.574335,-161.75119 32.8105304,-226.456 33.23052,-53.24208 92.774585,-106.67648 155.533415,-106.11427 50.97763,0.45667 94.52982,47.40308 124.77194,88.4438 53.69396,72.86655 84.3708,258.09832 84.3708,258.09832 L 357.8241,483.4733 c 0,0 5.44682,-51.53802 17.36262,-73.83813 28.99633,-54.26584 64.40356,-137.24619 125.88913,-134.98908 66.99398,2.45933 98.81229,95.47148 126.01403,156.74388 9.83169,22.14606 11.47154,71.78017 11.47154,71.78017 L 598.7206,498.4128 c 0,0 -1.59251,-79.45291 6.94117,-117.87713 15.87765,-71.49155 31.14559,-150.6537 81.13858,-204.16859 38.95753,-41.702 98.02936,-82.567251 154.43466,-73.89617 55.46998,8.52729 100.85402,63.37917 123.03402,114.93188 58.47437,135.9113 27.01714,298.9864 -3.03282,443.85922 -17.31217,83.46315 -41.68655,173.23651 -100.10266,235.312 -68.73323,73.03892 -168.98469,137.98799 -269.21357,134.36709 -38.39813,-1.3872 -83.39913,-23.7399 -99.15352,-58.78472 -20.63443,-45.90023 -6.84613,-112.52889 28.61387,-148.23882 49.86381,-50.21524 137.47498,-38.40987 208.16548,-41.69978 C 786.20594,779.58084 898.77852,800 898.77852,800 l -51.09764,94.03393 c 0,0 -75.44085,-20.08658 -113.91599,-26.26703 -37.21859,-5.9786 -78.00036,-25.31975 -112.60967,-10.38112 -30.64734,13.2285 -68.62314,46.21379 -61.7074,78.86996 3.77606,17.8306 30.03879,26.23809 48.25716,25.70888 77.20364,-2.24263 146.6426,-62.79425 197.82963,-120.63299 48.07214,-54.31907 73.99021,-127.40824 89.86551,-198.18583 19.12174,-85.25133 30.47419,-178.78813 4.08392,-262.07668 -14.89799,-47.01851 -38.13688,-113.57776 -87.08712,-119.62459 -52.80658,-6.5232 -96.98098,55.63344 -122.52737,102.30751 -35.77771,65.36703 -31.80733,147.33628 -28.20456,221.76688 2.96634,61.28235 40.7488,179.49502 40.7488,179.49502 L 570.59628,756 c 0,0 18.69927,-72.64888 19.57157,-109.82311 1.05948,-45.15087 1.58617,-93.41894 -17.48842,-134.35649 -17.94316,-38.5093 -43.94553,-98.42709 -86.18736,-93.8938 -49.25627,5.28607 -63.8108,80.05329 -74.97877,128.31714 -12.01388,51.91955 2.42443,106.9805 11.82455,159.4363 4.00906,22.3719 18.8831,65.51792 18.8831,65.51792 L 299.36545,768 c 0,0 31.72978,-87.16239 36.07289,-132.83992 5.85294,-61.55669 -0.80114,-124.56525 -14.00387,-184.97362 -6.52032,-29.83338 -13.16649,-61.73301 -31.82531,-85.90724 -25.58248,-33.14448 -61.293,-76.82884 -102.88842,-72.04965 -41.41596,4.75858 -67.7839,54.49311 -83.50458,93.10381 -22.575475,55.44642 -23.901325,121.83963 -7.581475,179.43843 z" /></svg>