<?xml version="1.0" encoding="UTF-8" standalone="no"?>
<svg
   xmlns:dc="http://purl.org/dc/elements/1.1/"
   xmlns:cc="http://creativecommons.org/ns#"
   xmlns:rdf="http://www.w3.org/1999/02/22-rdf-syntax-ns#"
   xmlns:svg="http://www.w3.org/2000/svg"
   xmlns="http://www.w3.org/2000/svg"
   xmlns:sodipodi="http://sodipodi.sourceforge.net/DTD/sodipodi-0.dtd"
   xmlns:inkscape="http://www.inkscape.org/namespaces/inkscape"
   xml:space="preserve"
   width="1000"
   height="1000"
   version="1.1"
   style="clip-rule:evenodd;fill-rule:evenodd;image-rendering:optimizeQuality;shape-rendering:geometricPrecision;text-rendering:geometricPrecision"
   viewBox="0 0 1000 1000"
   id="svg10"
   sodipodi:docname="ന്ത.svg"
   inkscape:version="1.0.1 (3bc2e813f5, 2020-09-07)"><metadata
   id="metadata14"><rdf:RDF><cc:Work
       rdf:about=""><dc:format>image/svg+xml</dc:format><dc:type
         rdf:resource="http://purl.org/dc/dcmitype/StillImage" /><dc:title /></cc:Work></rdf:RDF></metadata><sodipodi:namedview
   pagecolor="#ffffff"
   bordercolor="#666666"
   borderopacity="1"
   objecttolerance="10"
   gridtolerance="10"
   guidetolerance="10"
   inkscape:pageopacity="0"
   inkscape:pageshadow="2"
   inkscape:window-width="1920"
   inkscape:window-height="1015"
   id="namedview12"
   showgrid="false"
   inkscape:zoom="0.678"
   inkscape:cx="451.99968"
   inkscape:cy="463.0375"
   inkscape:window-x="1920"
   inkscape:window-y="0"
   inkscape:window-maximized="1"
   inkscape:current-layer="svg10"
   showguides="true"
   inkscape:guide-bbox="true"
   inkscape:document-rotation="0"
   inkscape:snap-to-guides="true"><sodipodi:guide
     position="0,1000"
     orientation="0,1"
     id="guide16"
     inkscape:label=""
     inkscape:locked="true"
     inkscape:color="rgb(0,0,255)" /><sodipodi:guide
     position="1763.3122,2036.1693"
     orientation="1000,0"
     id="guide18" /><sodipodi:guide
     position="0,200"
     orientation="0,1"
     id="guide20"
     inkscape:label="base"
     inkscape:locked="true"
     inkscape:color="rgb(0,0,255)" /><inkscape:grid
     type="xygrid"
     id="grid24"
     originx="-473.37552"
     originy="-489.69235" /><sodipodi:guide
     position="0,0"
     orientation="0,1"
     id="guide34"
     inkscape:label="bottom"
     inkscape:locked="true"
     inkscape:color="rgb(0,0,255)" /><sodipodi:guide
     position="225.05109,1693.3186"
     orientation="0,1"
     id="guide44"
     inkscape:label=""
     inkscape:locked="false"
     inkscape:color="rgb(0,0,255)" /><sodipodi:guide
     position="0,900"
     orientation="0,1"
     id="guide46"
     inkscape:label=""
     inkscape:locked="true"
     inkscape:color="rgb(0,0,255)" /><sodipodi:guide
     position="932.9906,923.88079"
     orientation="-1,0"
     id="guide841"
     inkscape:label="width"
     inkscape:locked="false"
     inkscape:color="rgb(0,0,255)" /><sodipodi:guide
     position="0,1000"
     orientation="0,1000"
     id="guide860" /><sodipodi:guide
     position="1000,1000"
     orientation="1000,0"
     id="guide862" /><sodipodi:guide
     position="1000,0"
     orientation="0,-1000"
     id="guide864" /><sodipodi:guide
     position="0,0"
     orientation="-1000,0"
     id="guide866" /></sodipodi:namedview>
 <defs
   id="defs4"><inkscape:path-effect
   effect="spiro"
   id="path-effect877"
   is_visible="true"
   lpeversion="1" /><inkscape:path-effect
   effect="spiro"
   id="path-effect862"
   is_visible="true"
   lpeversion="1" /><inkscape:path-effect
   effect="spiro"
   id="path-effect1521"
   is_visible="true"
   lpeversion="1" /><inkscape:path-effect
   effect="spiro"
   id="path-effect858"
   is_visible="true"
   lpeversion="1" /><inkscape:path-effect
   effect="spiro"
   id="path-effect854"
   is_visible="true"
   lpeversion="1" />
  <style
   type="text/css"
   id="style2">
   <![CDATA[
    .fil0 {fill:#EF7F1A;fill-rule:nonzero}
   ]]>
  </style>
 <inkscape:path-effect
   effect="spiro"
   id="path-effect1214"
   is_visible="true"
   lpeversion="1" /><inkscape:path-effect
   effect="spiro"
   id="path-effect1195"
   is_visible="true"
   lpeversion="1" /><inkscape:path-effect
   effect="spiro"
   id="path-effect992"
   is_visible="true"
   lpeversion="1" /><inkscape:path-effect
   effect="spiro"
   id="path-effect287"
   is_visible="true"
   lpeversion="1" /><inkscape:path-effect
   effect="spiro"
   id="path-effect1032"
   is_visible="true"
   lpeversion="1" /><inkscape:path-effect
   effect="spiro"
   id="path-effect1218"
   is_visible="true"
   lpeversion="1" /><inkscape:path-effect
   effect="spiro"
   id="path-effect309"
   is_visible="true"
   lpeversion="1" /><inkscape:path-effect
   effect="spiro"
   id="path-effect1176"
   is_visible="true"
   lpeversion="1" /><inkscape:path-effect
   effect="spiro"
   id="path-effect1026"
   is_visible="true"
   lpeversion="1" /><inkscape:path-effect
   effect="spiro"
   id="path-effect1030"
   is_visible="true"
   lpeversion="1" /></defs>
 
<path
   style="fill:#2d2d2d;fill-rule:nonzero;stroke:none;stroke-width:1.70778px;stroke-linecap:butt;stroke-linejoin:miter;stroke-opacity:1"
   d="M 296.88034,783.28415 152.52342,828.18617 C 141.32115,787.82086 128.33379,747.95099 113.61201,708.73214 93.390294,654.86144 69.904708,602.2346 50.74128,547.97842 32.21388,495.52299 17.71612,441.35224 12.414683,385.97416 7.5381645,335.03471 10.521364,283.36048 21.095428,233.29256 c 5.179949,-24.52693 12.26808,-48.9086 24.457847,-70.81321 12.189767,-21.9046 29.839894,-41.32025 52.31597,-52.42106 26.651015,-13.162794 58.572305,-13.655129 86.859055,-4.523 28.28675,9.13214 53.09183,27.30592 73.12324,49.26676 36.00142,39.46907 57.3656,91.99638 59.13342,145.38912 10.03941,-27.98584 23.98377,-54.56774 41.30278,-78.73484 25.97414,-36.24454 60.84917,-67.73201 103.31233,-81.34094 33.0227,-10.58338 69.45997,-9.70437 102.23736,1.61594 50.30483,17.37375 90.30387,58.36967 113.90674,106.07006 26.95186,54.46855 34.05069,117.20165 28.65174,177.73327 -3.99693,44.81252 -14.77612,89.44107 -35.82538,129.20369 -21.04926,39.76262 -52.8132,74.49959 -92.77313,95.17182 -13.4807,6.97389 -27.89094,12.34681 -42.88232,14.71808 -14.99138,2.37126 -30.598,1.66647 -44.98057,-3.18184 -15.16167,-5.11094 -28.60171,-14.70814 -39.39823,-26.51631 -10.79652,-11.80817 -19.04054,-25.7817 -25.44999,-40.44174 -21.17435,-48.43111 -22.29764,-103.80751 -12.08655,-155.66944 21.09527,-107.1424 88.94986,-201.71363 175.74961,-267.97303 26.68218,-20.36809 55.34884,-38.42169 86.42344,-51.11684 31.0746,-12.69516 64.67738,-19.928594 98.20883,-18.36681 22.42042,1.04427 44.76683,6.06216 64.98299,15.8127 20.21615,9.75053 38.24923,24.32226 51.06205,42.75043 13.3129,19.14742 20.71306,41.951 24.01791,65.03639 3.30484,23.08539 2.67269,46.55715 1.02344,69.8195 -6.56143,92.54765 -29.26223,183.95496 -67.03736,268.69668 -22.44024,50.34065 -50.14033,98.33733 -69.9088,149.78588 -14.32432,37.27984 -24.38877,76.19457 -29.93488,115.74471 L 599.02019,778.51906 c 28.2453,-24.51806 55.05185,-50.69341 80.23588,-78.34656 42.43715,-46.59783 80.44145,-97.70315 108.19855,-154.28772 27.70181,-56.47185 45.02339,-119.00721 42.5407,-181.85859 -0.98283,-24.8813 -5.12545,-49.88243 -14.95243,-72.76202 -9.82698,-22.87959 -25.62306,-43.59412 -46.71267,-56.83321 -19.03565,-11.94971 -41.7807,-17.41696 -64.25508,-17.18562 -22.47439,0.23133 -44.68846,5.98759 -65.24291,15.07966 -45.344,20.05751 -82.30403,55.88995 -110.88305,96.40689 -18.74775,26.57899 -34.39898,55.68511 -42.92647,87.07305 -8.52748,31.38795 -9.66598,65.21759 0.0109,96.27043 2.79008,8.95329 6.49798,17.70867 11.96179,25.33053 5.46381,7.62186 12.78171,14.08671 21.49286,17.55973 11.34882,4.52462 24.3818,3.65575 35.81319,-0.65601 11.43138,-4.31177 21.40817,-11.83942 30.16327,-20.36093 22.00232,-21.41531 36.97212,-49.42666 45.37653,-78.95772 8.99816,-31.61733 10.66629,-65.6374 2.24324,-97.41278 -8.42306,-31.77537 -27.30492,-61.11385 -54.27418,-79.90962 -34.23568,-23.85998 -80.36262,-29.04155 -119.53641,-14.66118 -21.45133,7.87461 -40.76984,21.20055 -56.40274,37.86733 -15.6329,16.66678 -27.61902,36.62121 -35.82462,57.94812 -13.9799,36.33469 -16.94792,76.08907 -14.90523,114.96676 2.38525,45.39741 11.42864,90.43955 26.75131,133.23944 l -136.46232,8.48631 c 27.98129,-57.47867 37.7066,-123.67878 27.43891,-186.77652 -5.82293,-35.78349 -17.87305,-70.38273 -33.602,-103.04716 -9.36367,-19.44561 -20.29466,-38.58779 -36.09406,-53.29115 -7.8997,-7.35168 -16.9785,-13.51402 -26.9802,-17.56599 -10.00171,-4.05196 -20.94506,-5.95202 -31.68407,-4.89078 -12.06974,1.19275 -23.64891,6.1187 -33.3282,13.4271 -9.67928,7.3084 -17.495084,16.93965 -23.305754,27.58566 -11.621338,21.292 -15.151908,46.09031 -15.68696,70.34147 -2.01964,91.5399 35.830044,179.86539 85.916944,256.51351 39.96955,61.1655 88.12402,116.97516 142.77543,165.47266 z"
   id="path875"
   inkscape:path-effect="#path-effect877"
   inkscape:original-d="m 296.88034,783.28415 -144.35692,44.90202 c 0,0 -24.79369,-80.02819 -38.91141,-119.45403 C 94.215097,654.56335 67.885179,602.90187 50.74128,547.97842 34.206681,495.00697 17.278209,441.25267 12.414683,385.97416 7.946954,335.19426 5.69173,281.88561 21.095428,233.29256 35.719963,187.15748 52.755045,127.58061 97.869245,110.05829 c 51.617195,-20.048075 118.667805,7.87409 159.982295,44.74376 39.0347,34.83515 59.13342,145.38912 59.13342,145.38912 0,0 22.35853,-55.94319 41.30278,-78.73484 28.0168,-33.70677 61.78475,-67.32141 103.31233,-81.34094 32.2928,-10.9019 70.62081,-11.11474 102.23736,1.61594 48.12691,19.37872 89.47055,60.30319 113.90674,106.07006 28.26415,52.93631 39.41301,118.69675 28.65174,177.73327 -15.45887,84.80773 -56.98904,176.38164 -128.59851,224.37551 -24.53765,16.44555 -59.9701,21.25964 -87.86289,11.53624 -29.33943,-10.2277 -52.08118,-38.6312 -64.84822,-66.95805 -21.38563,-47.44933 -25.03827,-105.26074 -12.08655,-155.66944 26.58268,-103.46106 92.36207,-201.20965 175.74961,-267.97303 51.33236,-41.09873 118.96909,-73.014035 184.63227,-69.48365 43.26583,2.32619 90.04761,23.9008 116.04504,58.56313 27.43269,36.57596 26.43334,89.15671 25.04135,134.85589 -2.81047,92.26823 -36.20173,181.68813 -67.03736,268.69668 -18.40529,51.934 -51.28079,97.93135 -69.9088,149.78588 -13.47294,37.50445 -29.93488,115.74471 -29.93488,115.74471 L 599.02019,778.51906 c 0,0 56.02753,-49.86345 80.23588,-78.34656 40.67985,-47.8632 82.54567,-96.94954 108.19855,-154.28772 25.42455,-56.8278 49.19973,-119.95977 42.5407,-181.85859 -5.117,-47.56499 -21.42694,-103.72049 -61.6651,-129.59523 -36.31209,-23.35011 -88.93934,-16.89758 -129.49799,-2.10596 -46.01323,16.78089 -85.5958,54.46204 -110.88305,96.40689 -32.40636,53.75358 -56.38318,122.03897 -42.91557,183.34348 3.89044,17.70928 16.13283,37.53221 33.45465,42.89026 22.05023,6.82066 48.01174,-6.52547 65.97646,-21.01694 23.62703,-19.05904 41.79997,-48.81321 45.37653,-78.95772 7.25769,-61.17042 -5.06467,-137.46435 -52.03094,-177.3224 -30.60767,-25.97528 -81.70675,-28.09479 -119.53641,-14.66118 -41.77445,14.83444 -73.04015,55.85277 -92.22736,95.81545 -16.72565,34.8358 -16.24226,76.34691 -14.90523,114.96676 1.56734,45.27235 26.75131,133.23944 26.75131,133.23944 l -136.46232,8.48631 c 0,0 32.76082,-124.07488 27.43891,-186.77652 -3.05553,-35.99967 -13.0287,-73.34781 -33.602,-103.04716 -23.0268,-33.24118 -54.8385,-82.19903 -94.75833,-75.74792 -43.692597,7.06079 -66.741327,67.4479 -72.320914,111.35423 -11.367729,89.45382 41.303724,178.1498 85.916944,256.51351 36.04328,63.31049 142.77543,165.47266 142.77543,165.47266 z"
   sodipodi:nodetypes="ccaaaaaacaaaaaaaaaaaaaaaccaaaaaaaaaaaaaaccaaaaac" /></svg>
