<?xml version="1.0" encoding="UTF-8" standalone="no"?>
<svg
   xml:space="preserve"
   width="1000"
   height="1000"
   version="1.1"
   style="clip-rule:evenodd;fill-rule:evenodd;image-rendering:optimizeQuality;shape-rendering:geometricPrecision;text-rendering:geometricPrecision"
   viewBox="0 0 1000 1000"
   id="svg10"
   sodipodi:docname="ന്തു.svg"
   inkscape:version="1.1.2 (0a00cf5339, 2022-02-04)"
   xmlns:inkscape="http://www.inkscape.org/namespaces/inkscape"
   xmlns:sodipodi="http://sodipodi.sourceforge.net/DTD/sodipodi-0.dtd"
   xmlns="http://www.w3.org/2000/svg"
   xmlns:svg="http://www.w3.org/2000/svg"
   xmlns:rdf="http://www.w3.org/1999/02/22-rdf-syntax-ns#"
   xmlns:cc="http://creativecommons.org/ns#"
   xmlns:dc="http://purl.org/dc/elements/1.1/"><metadata
   id="metadata14"><rdf:RDF><cc:Work
       rdf:about=""><dc:format>image/svg+xml</dc:format><dc:type
         rdf:resource="http://purl.org/dc/dcmitype/StillImage" /></cc:Work></rdf:RDF></metadata><sodipodi:namedview
   pagecolor="#ffffff"
   bordercolor="#666666"
   borderopacity="1"
   objecttolerance="10"
   gridtolerance="10"
   guidetolerance="10"
   inkscape:pageopacity="0"
   inkscape:pageshadow="2"
   inkscape:window-width="1920"
   inkscape:window-height="1009"
   id="namedview12"
   showgrid="false"
   inkscape:zoom="0.9588368"
   inkscape:cx="475.05477"
   inkscape:cy="407.78577"
   inkscape:window-x="0"
   inkscape:window-y="0"
   inkscape:window-maximized="1"
   inkscape:current-layer="svg10"
   showguides="true"
   inkscape:guide-bbox="true"
   inkscape:document-rotation="0"
   inkscape:snap-to-guides="true"
   inkscape:pagecheckerboard="0"><sodipodi:guide
     position="0,1000"
     orientation="0,1"
     id="guide16"
     inkscape:label=""
     inkscape:locked="true"
     inkscape:color="rgb(0,0,255)" /><sodipodi:guide
     position="1763.3122,2036.1693"
     orientation="1000,0"
     id="guide18" /><sodipodi:guide
     position="0,200"
     orientation="0,1"
     id="guide20"
     inkscape:label="base"
     inkscape:locked="true"
     inkscape:color="rgb(0,0,255)" /><inkscape:grid
     type="xygrid"
     id="grid24"
     originx="-473.37552"
     originy="-489.69235" /><sodipodi:guide
     position="0,0"
     orientation="0,1"
     id="guide34"
     inkscape:label="bottom"
     inkscape:locked="true"
     inkscape:color="rgb(0,0,255)" /><sodipodi:guide
     position="225.05109,1693.3186"
     orientation="0,1"
     id="guide44"
     inkscape:label=""
     inkscape:locked="false"
     inkscape:color="rgb(0,0,255)" /><sodipodi:guide
     position="0,900"
     orientation="0,1"
     id="guide46"
     inkscape:label=""
     inkscape:locked="true"
     inkscape:color="rgb(0,0,255)" /><sodipodi:guide
     position="892.43229,336.5149"
     orientation="-1,0"
     id="guide841"
     inkscape:label="width"
     inkscape:locked="false"
     inkscape:color="rgb(0,0,255)" /><sodipodi:guide
     position="0,1000"
     orientation="0,1000"
     id="guide860" /><sodipodi:guide
     position="1000,1000"
     orientation="1000,0"
     id="guide862" /><sodipodi:guide
     position="1000,0"
     orientation="0,-1000"
     id="guide864" /><sodipodi:guide
     position="0,0"
     orientation="-1000,0"
     id="guide866" /></sodipodi:namedview>
 <defs
   id="defs4"><inkscape:path-effect
   effect="fillet_chamfer"
   id="path-effect860"
   is_visible="true"
   lpeversion="1"
   satellites_param="F,0,0,1,0,21.799453,0,1 @ F,0,0,1,0,21.799453,0,1 @ F,0,0,1,0,0,0,1 @ F,0,0,1,0,0,0,1 @ F,0,0,1,0,0,0,1 @ F,0,0,1,0,0,0,1 @ F,0,0,1,0,0,0,1 @ F,0,0,1,0,0,0,1 @ F,0,0,1,0,0,0,1 @ F,0,0,1,0,0,0,1 @ F,0,0,1,0,0,0,1 @ F,0,0,1,0,0,0,1 @ F,0,0,1,0,0,0,1 @ F,0,0,1,0,0,0,1 @ F,0,0,1,0,0,0,1 @ F,0,0,1,0,0,0,1 @ F,0,0,1,0,0,0,1 @ F,0,0,1,0,0,0,1 @ F,0,0,1,0,0,0,1 @ F,0,0,1,0,0,0,1 @ F,0,0,1,0,0,0,1 @ F,0,0,1,0,0,0,1 @ F,0,0,1,0,0,0,1 @ F,0,0,1,0,0,0,1 @ F,0,0,1,0,0,0,1 @ F,0,0,1,0,0,0,1 @ F,0,0,1,0,0,0,1 @ F,0,0,1,0,0,0,1 @ F,0,0,1,0,0,0,1 @ F,0,0,1,0,0,0,1 @ F,0,0,1,0,0,0,1 @ F,0,0,1,0,0,0,1 @ F,0,0,1,0,0,0,1 @ F,0,0,1,0,0,0,1 @ F,0,0,1,0,0,0,1 @ F,0,0,1,0,0,0,1 @ F,0,0,1,0,0,0,1 @ F,0,0,1,0,0,0,1 @ F,0,0,1,0,0,0,1 @ F,0,0,1,0,21.799453,0,1 @ F,0,0,1,0,21.799453,0,1 @ F,0,0,1,0,0,0,1 @ F,0,0,1,0,0,0,1 @ F,0,0,1,0,0,0,1 @ F,0,0,1,0,13.696268,0,1 @ F,0,0,1,0,11.545779,0,1 @ F,0,0,1,0,0,0,1 @ F,0,0,1,0,0,0,1 @ F,0,0,1,0,0,0,1 @ F,0,0,1,0,0,0,1 @ F,0,0,1,0,0,0,1 @ F,0,0,1,0,0,0,1 @ F,0,0,1,0,0,0,1 @ F,0,0,1,0,0,0,1 @ F,0,0,1,0,0,0,1 @ F,0,0,1,0,0,0,1 @ F,0,0,1,0,0,0,1 @ F,0,0,1,0,0,0,1 @ F,0,0,1,0,0,0,1 @ F,0,0,1,0,0,0,1 @ F,0,0,1,0,0,0,1 @ F,0,0,1,0,0,0,1 @ F,0,0,1,0,0,0,1 @ F,0,0,1,0,0,0,1 @ F,0,0,1,0,0,0,1 @ F,0,0,1,0,0,0,1 @ F,0,0,1,0,0,0,1 @ F,0,0,1,0,0,0,1 @ F,0,0,1,0,0,0,1 @ F,0,0,1,0,0,0,1 @ F,0,0,1,0,0,0,1 @ F,0,0,1,0,0,0,1 @ F,0,0,1,0,18.315315,0,1 @ F,0,0,1,0,12.534655,0,1 @ F,0,0,1,0,0,0,1 @ F,0,0,1,0,0,0,1 @ F,0,0,1,0,0,0,1 @ F,0,0,1,0,0,0,1 @ F,0,0,1,0,0,0,1 @ F,0,0,1,0,0,0,1 @ F,0,0,1,0,0,0,1 @ F,0,0,1,0,0,0,1 @ F,0,0,1,0,0,0,1"
   unit="px"
   method="auto"
   mode="F"
   radius="0"
   chamfer_steps="1"
   flexible="false"
   use_knot_distance="true"
   apply_no_radius="true"
   apply_with_radius="true"
   only_selected="true"
   hide_knots="false" /><inkscape:path-effect
   effect="fillet_chamfer"
   id="path-effect859"
   is_visible="true"
   lpeversion="1"
   satellites_param="F,0,0,1,0,43.74665,0,1 @ F,0,0,1,0,43.74665,0,1 @ F,0,0,1,0,0,0,1 @ F,0,0,1,0,0,0,1 @ F,0,0,1,0,0,0,1 @ F,0,0,1,0,0,0,1 @ F,0,0,1,0,0,0,1 @ F,0,0,1,0,0,0,1 @ F,0,0,1,0,0,0,1 @ F,0,0,1,0,0,0,1 @ F,0,0,1,0,0,0,1 @ F,0,0,1,0,0,0,1 @ F,0,0,1,0,0,0,1 @ F,0,0,1,0,0,0,1 @ F,0,0,1,0,0,0,1 @ F,0,0,1,0,0,0,1 @ F,0,0,1,0,0,0,1 @ F,0,0,1,0,0,0,1 @ F,0,0,1,0,0,0,1 @ F,0,0,1,0,0,0,1 @ F,0,0,1,0,0,0,1 @ F,0,0,1,0,0,0,1 @ F,0,0,1,0,0,0,1 @ F,0,0,1,0,0,0,1 @ F,0,0,1,0,0,0,1 @ F,0,0,1,0,0,0,1 @ F,0,0,1,0,0,0,1 @ F,0,0,1,0,0,0,1 @ F,0,0,1,0,0,0,1 @ F,0,0,1,0,0,0,1 @ F,0,0,1,0,0,0,1 @ F,0,0,1,0,0,0,1 @ F,0,0,1,0,0,0,1 @ F,0,0,1,0,0,0,1 @ F,0,0,1,0,43.74665,0,1 @ F,0,0,1,0,43.74665,0,1 @ F,0,0,1,0,0,0,1 @ F,0,0,1,0,0,0,1 @ F,0,0,1,0,43.74665,0,1 @ F,0,1,1,0,22.893254,0,1 @ F,0,0,1,0,0,0,1 @ F,0,0,1,0,0,0,1 @ F,0,0,1,0,0,0,1 @ F,0,0,1,0,0,0,1 @ F,0,0,1,0,0,0,1 @ F,0,0,1,0,0,0,1 @ F,0,0,1,0,0,0,1 @ F,0,0,1,0,0,0,1 @ F,0,0,1,0,0,0,1 @ F,0,0,1,0,0,0,1 @ F,0,0,1,0,0,0,1 @ F,0,0,1,0,0,0,1 @ F,0,0,1,0,0,0,1 @ F,0,0,1,0,0,0,1 @ F,0,0,1,0,0,0,1 @ F,0,0,1,0,0,0,1 @ F,0,0,1,0,0,0,1 @ F,0,0,1,0,0,0,1 @ F,0,0,1,0,0,0,1 @ F,0,0,1,0,0,0,1 @ F,0,0,1,0,0,0,1 @ F,0,0,1,0,0,0,1 @ F,0,0,1,0,0,0,1 @ F,0,0,1,0,0,0,1 @ F,0,0,1,0,0,0,1 @ F,0,0,1,0,43.74665,0,1 @ F,0,0,1,0,43.74665,0,1 @ F,0,0,1,0,0,0,1 @ F,0,0,1,0,0,0,1 @ F,0,0,1,0,0,0,1 @ F,0,0,1,0,0,0,1 @ F,0,0,1,0,0,0,1 @ F,0,0,1,0,0,0,1 @ F,0,0,1,0,0,0,1 @ F,0,0,1,0,0,0,1 @ F,0,0,1,0,0,0,1"
   unit="px"
   method="auto"
   mode="F"
   radius="0"
   chamfer_steps="1"
   flexible="false"
   use_knot_distance="true"
   apply_no_radius="true"
   apply_with_radius="true"
   only_selected="true"
   hide_knots="false" /><inkscape:path-effect
   effect="spiro"
   id="path-effect877"
   is_visible="true"
   lpeversion="1" /><inkscape:path-effect
   effect="spiro"
   id="path-effect862"
   is_visible="true"
   lpeversion="1" /><inkscape:path-effect
   effect="spiro"
   id="path-effect1521"
   is_visible="true"
   lpeversion="1" /><inkscape:path-effect
   effect="spiro"
   id="path-effect858"
   is_visible="true"
   lpeversion="1" /><inkscape:path-effect
   effect="spiro"
   id="path-effect854"
   is_visible="true"
   lpeversion="1" />
  <style
   type="text/css"
   id="style2">
   
    .fil0 {fill:#EF7F1A;fill-rule:nonzero}
   
  </style>
 <inkscape:path-effect
   effect="spiro"
   id="path-effect1214"
   is_visible="true"
   lpeversion="1" /><inkscape:path-effect
   effect="spiro"
   id="path-effect1195"
   is_visible="true"
   lpeversion="1" /><inkscape:path-effect
   effect="spiro"
   id="path-effect992"
   is_visible="true"
   lpeversion="1" /><inkscape:path-effect
   effect="spiro"
   id="path-effect287"
   is_visible="true"
   lpeversion="1" /><inkscape:path-effect
   effect="spiro"
   id="path-effect1032"
   is_visible="true"
   lpeversion="1" /><inkscape:path-effect
   effect="spiro"
   id="path-effect1218"
   is_visible="true"
   lpeversion="1" /><inkscape:path-effect
   effect="spiro"
   id="path-effect309"
   is_visible="true"
   lpeversion="1" /><inkscape:path-effect
   effect="spiro"
   id="path-effect1176"
   is_visible="true"
   lpeversion="1" /><inkscape:path-effect
   effect="spiro"
   id="path-effect1026"
   is_visible="true"
   lpeversion="1" /><inkscape:path-effect
   effect="spiro"
   id="path-effect1030"
   is_visible="true"
   lpeversion="1" /></defs>
 
<path
   style="fill:#c64600;fill-rule:nonzero;stroke:none;stroke-width:1.70778px;stroke-linecap:butt;stroke-linejoin:miter;stroke-opacity:1"
   d="m 275.89125,745.19709 -108.62012,71.29657 c -10.06498,6.6065 -17.66884,2.21367 -17.49811,-9.82389 0.46287,-32.63605 -1.87687,-65.3119 -6.99402,-97.54774 C 133.38396,649.93734 114.68886,592.50753 91.223359,537.36713 69.793587,487.01038 44.289185,438.20534 27.950847,385.97416 12.554916,336.75571 5.544334,284.30698 13.095428,233.29256 c 3.684484,-24.892 10.899913,-49.48303 23.492229,-71.26882 12.592316,-21.78579 30.787361,-40.6873 53.281588,-51.96545 28.192165,-14.13498 61.986795,-15.475645 92.115095,-6.15463 30.1283,9.32101 56.61106,28.78171 76.73008,53.06793 29.98896,36.2005 45.87816,81.98826 56.80663,127.70896 7.94092,33.22189 13.5851,66.99255 16.8789,100.99113 l -56.41215,3.9743 c 6.43496,-42.32639 18.4866,-83.79538 35.73958,-122.97786 21.07425,-47.86079 51.39536,-93.74337 96.09586,-120.88456 37.60955,-22.83571 85.08858,-30.59135 126.79078,-16.56016 26.31237,8.85311 49.4855,25.86884 67.68204,46.83558 18.19655,20.96673 31.59043,45.78967 41.44811,71.74241 21.46021,56.49922 26.39272,118.52243 19.17023,178.52691 -10.5034,87.26232 -48.39996,173.46429 -115.63133,230.0768 -13.61427,11.46396 -28.47797,21.7367 -45.08105,28.14831 -16.60308,6.41161 -35.11656,8.77833 -52.3618,4.3769 -18.4163,-4.70032 -34.36941,-16.87994 -45.96487,-31.93977 -11.59546,-15.05982 -19.12909,-32.88909 -24.55138,-51.10589 -16.08132,-54.02704 -14.23736,-112.44014 -0.32423,-167.06573 14.73595,-57.85615 42.65911,-111.89504 78.04563,-159.98117 29.31192,-39.83145 63.78617,-75.80334 101.86949,-107.3532 26.77941,-22.18522 55.58809,-42.33791 87.48578,-56.1892 31.89768,-13.8513 67.13197,-21.205394 101.6811,-17.245775 42.2416,4.841245 82.49851,27.372945 107.34492,61.875795 18.87699,26.21344 28.55788,58.2009 32.04597,90.31505 3.48809,32.11415 1.08304,64.56876 -2.36288,96.68746 -6.44574,60.07943 -16.59249,120.02968 -35.5718,177.39579 -31.49427,95.19333 -90.65429,185.11512 -178.6974,233.09501 -35.52745,19.361 -74.49817,31.33202 -112.66339,44.7657 -36.34976,12.79466 -72.19759,27.0152 -107.4334,42.61795 l -23.21879,-65.49658 c 56.88351,3.94257 113.49555,11.79701 169.30383,23.48948 42.62847,8.93115 85.50978,20.16839 129.00893,17.98314 41.66772,-2.09324 82.5565,-16.99324 116.00133,-41.89822 9.65182,-7.18731 18.40974,-4.29311 20.43462,7.5749 l 16.17564,94.80729 c 2.02488,11.86801 -5.75905,24.05406 -17.54117,26.52336 -24.69554,5.1757 -49.86657,8.08349 -75.09214,8.66348 -58.84429,1.35296 -117.14785,-9.88228 -175.14873,-19.90119 -58.00089,-10.01891 -116.98974,-18.88918 -175.53206,-12.78362 -23.41733,2.44227 -46.58344,7.28224 -69.02252,14.41072 -7.20873,2.29008 -14.63845,-1.49592 -16.69918,-8.77404 L 320.77333,788.24892 c -1.73717,-6.13537 1.1685,-13.96271 6.65524,-17.21069 16.6757,-9.8715 34.46106,-17.86853 52.9157,-23.78125 37.19627,-11.91739 76.50084,-15.25873 115.37915,-19.00894 38.87831,-3.75022 78.19963,-8.09681 114.75734,-21.84894 60.02029,-22.57819 109.00993,-69.89531 140.11204,-125.97443 31.1021,-56.07913 45.23386,-120.45435 47.94014,-184.52373 1.33577,-31.62337 -0.10438,-63.84605 -10.07336,-93.88671 -9.96898,-30.04066 -29.27457,-57.91489 -57.02086,-73.14529 -19.20135,-10.53994 -41.60496,-14.5798 -63.47317,-13.32929 -21.8682,1.2505 -43.23968,7.61881 -63.13332,16.78535 -45.01283,20.74089 -82.60895,55.70167 -110.88305,96.40689 -18.46662,26.58574 -33.29139,55.93941 -41.43749,87.26765 -8.14611,31.32824 -9.44934,64.70265 -1.47808,96.07583 2.34778,9.24035 5.54659,18.40482 10.95711,26.25481 5.41053,7.84998 13.24626,14.33116 22.49754,16.63545 5.47732,1.36428 11.28363,1.22731 16.77099,-0.096 5.48735,-1.32333 10.66133,-3.81106 15.3063,-7.01834 9.28992,-6.41456 16.35537,-15.5528 22.45121,-25.0549 16.86118,-26.28294 27.3489,-56.27024 33.73016,-86.83774 4.5443,-21.7681 7.07672,-44.03231 6.23625,-66.2538 -0.63576,-16.80913 -3.2261,-33.63129 -8.84872,-49.4849 -5.62262,-15.85362 -14.35166,-30.73566 -26.32414,-42.55135 -15.33858,-15.13771 -35.86036,-24.86733 -57.2605,-27.40826 -21.40014,-2.54094 -43.55104,2.0793 -62.27591,12.74708 -17.29446,9.85286 -31.50416,24.6093 -42.30018,41.33123 -10.79602,16.72193 -18.30231,35.39134 -23.92718,54.48422 -10.95824,37.1963 -14.93362,76.18988 -14.90523,114.96676 0.0206,28.1916 2.13354,56.38126 6.31074,84.26161 1.49874,10.00318 -5.16532,17.35686 -15.24264,16.4815 l -80.40517,-6.9844 c -6.89673,-0.59909 -10.37129,-6.28581 -8.07638,-12.81648 14.13504,-40.22432 19.37262,-83.5636 15.14135,-125.993 -3.61713,-36.27104 -14.24558,-72.16025 -33.602,-103.04716 -9.80598,-15.64733 -22.08976,-30.18441 -37.95763,-39.62935 -7.93394,-4.72247 -16.70744,-8.11056 -25.83413,-9.50788 -9.1267,-1.39733 -18.60867,-0.77006 -27.33849,2.23648 -12.51529,4.31025 -23.11114,13.43127 -30.22557,24.59351 -7.114441,11.16224 -10.874031,24.26807 -11.937125,37.46204 -2.126186,26.38792 6.170225,52.40835 14.993215,77.36828 23.73184,67.13658 52.19972,132.89947 89.83238,193.35031 23.44026,37.65302 50.37792,73.12718 80.34497,105.82508 8.13419,8.87544 6.8114,21.20045 -3.25358,27.80695 z"
   id="path875"
   inkscape:path-effect="#path-effect877;#path-effect860"
   inkscape:original-d="m 294.11551,733.23496 -145.06864,95.22083 c 0,0 0.55137,-80.08907 -6.26787,-119.33376 C 132.54568,650.22924 111.36838,593.64554 91.223359,537.36713 72.790667,485.8724 41.293257,439.01614 27.950847,385.97416 15.476917,336.38477 1.4339531,283.07927 13.095428,233.29256 24.132792,186.17039 44.76995,127.61893 89.869245,110.05829 c 54.432945,-21.194959 124.608805,8.7647 168.845175,46.9133 35.28312,30.42749 43.39155,83.09097 56.80663,127.70896 9.82731,32.68523 16.8789,100.99113 16.8789,100.99113 l -56.41215,3.9743 c 0,0 16.13154,-85.05895 35.73958,-122.97786 23.64406,-45.72395 51.28479,-95.55298 96.09586,-120.88456 37.10434,-20.97499 86.73036,-31.11508 126.79078,-16.56016 50.48842,18.34366 86.95926,69.64925 109.13015,118.57799 24.70241,54.51552 29.84815,119.63606 19.17023,178.52691 -15.31334,84.45607 -50.74195,173.89232 -115.63133,230.0768 -25.88721,22.41445 -64.46216,41.7355 -97.44285,32.52521 -34.97688,-9.76775 -57.96281,-48.96924 -70.51625,-83.04566 -19.25048,-52.25561 -12.80121,-112.79277 -0.32423,-167.06573 13.29379,-57.82596 44.22366,-111.23037 78.04563,-159.98117 28.11994,-40.53192 60.90424,-79.86838 101.86949,-107.3532 56.1693,-37.68567 121.72346,-78.591137 189.16688,-73.434975 41.18028,3.148305 83.93446,27.851135 107.34492,61.875795 35.77541,51.99584 30.96044,123.90088 29.68309,187.00251 -1.22058,60.29669 -10.65139,122.47628 -35.5718,177.39579 -40.45494,89.15444 -100.60853,174.04212 -178.6974,233.09501 -32.23173,24.3745 -75.10475,29.85432 -112.66339,44.7657 -35.80715,14.21601 -107.4334,42.61795 -107.4334,42.61795 l -23.21879,-65.49658 c 0,0 112.87173,15.64157 169.30383,23.48948 43.0049,5.9806 85.95497,23.59963 129.00893,17.98314 47.60448,-6.21012 132.76959,-55.81225 132.76959,-55.81225 l 23.50836,137.78515 c 0,0 -63.88615,12.91401 -96.29967,13.69791 C 668.4501,919.2876 552.27737,875.98433 435.13522,883.76437 407.15635,885.6226 353.1448,902.57926 353.1448,902.57926 L 317.62791,777.13985 c 0,0 40.6642,-22.81459 62.71636,-29.88287 74.19371,-23.78098 165.87589,3.19682 230.13649,-40.85788 99.80063,-68.41964 178.22538,-189.89614 188.05218,-310.49816 4.87282,-59.80303 -16.93089,-134.11107 -67.09422,-167.032 -35.29577,-23.16373 -87.26829,-11.86895 -126.60649,3.45606 -45.63693,17.77881 -85.5958,54.46204 -110.88305,96.40689 -32.40636,53.75358 -56.38318,122.03897 -42.91557,183.34348 3.89044,17.70928 15.64147,39.50721 33.45465,42.89026 20.7329,3.93757 40.86649,-16.0849 54.5285,-32.16927 20.10304,-23.66744 26.58521,-56.61806 33.73016,-86.83774 5.10391,-21.58705 9.23479,-44.27519 6.23625,-66.2538 -4.4396,-32.54127 -9.3061,-71.79877 -35.17286,-92.03625 -31.61724,-24.73651 -82.91382,-31.10292 -119.53641,-14.66118 -35.41956,15.90164 -52.3012,59.57363 -66.22736,95.81545 -13.86075,36.07159 -14.16814,76.3308 -14.90523,114.96676 -0.65331,34.24416 9.3147,102.3281 9.3147,102.3281 l -111.1394,-9.65413 c 0,0 23.58586,-91.53191 19.5526,-137.72474 -3.14261,-35.99217 -10.17943,-75.53906 -33.602,-103.04716 -22.14837,-26.01164 -60.39026,-61.80743 -91.13025,-46.90075 -42.603796,20.65977 -32.89597,92.42259 -27.16948,139.42383 8.59498,70.54497 52.7028,132.75443 89.83238,193.35031 26.91712,43.92905 95.31565,121.6699 95.31565,121.6699 z"
   sodipodi:nodetypes="ccaaaaaaaccaaaaaaaaaaaaaaaaaccaaccaaccaaaaaaaaaaaaaaaccaaaaac" /></svg>
