<?xml version="1.0" encoding="UTF-8" standalone="no"?>
<svg
   xmlns:dc="http://purl.org/dc/elements/1.1/"
   xmlns:cc="http://creativecommons.org/ns#"
   xmlns:rdf="http://www.w3.org/1999/02/22-rdf-syntax-ns#"
   xmlns:svg="http://www.w3.org/2000/svg"
   xmlns="http://www.w3.org/2000/svg"
   xmlns:sodipodi="http://sodipodi.sourceforge.net/DTD/sodipodi-0.dtd"
   xmlns:inkscape="http://www.inkscape.org/namespaces/inkscape"
   xml:space="preserve"
   width="1000"
   height="1000"
   version="1.1"
   style="clip-rule:evenodd;fill-rule:evenodd;image-rendering:optimizeQuality;shape-rendering:geometricPrecision;text-rendering:geometricPrecision"
   viewBox="0 0 1000 1000"
   id="svg10"
   sodipodi:docname="ന്ന്ര.svg"
   inkscape:version="1.0.2 (e86c870879, 2021-01-15)"><metadata
   id="metadata14"><rdf:RDF><cc:Work
       rdf:about=""><dc:format>image/svg+xml</dc:format><dc:type
         rdf:resource="http://purl.org/dc/dcmitype/StillImage" /><dc:title /></cc:Work></rdf:RDF></metadata><sodipodi:namedview
   pagecolor="#ffffff"
   bordercolor="#666666"
   borderopacity="1"
   objecttolerance="10"
   gridtolerance="10"
   guidetolerance="10"
   inkscape:pageopacity="0"
   inkscape:pageshadow="2"
   inkscape:window-width="1920"
   inkscape:window-height="1007"
   id="namedview12"
   showgrid="false"
   inkscape:zoom="0.678"
   inkscape:cx="727.64712"
   inkscape:cy="409.09356"
   inkscape:window-x="1920"
   inkscape:window-y="0"
   inkscape:window-maximized="1"
   inkscape:current-layer="svg10"
   showguides="true"
   inkscape:guide-bbox="true"
   inkscape:document-rotation="0"
   inkscape:snap-to-guides="true"><sodipodi:guide
     position="0,1000"
     orientation="0,1"
     id="guide16"
     inkscape:label=""
     inkscape:locked="true"
     inkscape:color="rgb(0,0,255)" /><sodipodi:guide
     position="1763.3122,2036.1693"
     orientation="1000,0"
     id="guide18" /><sodipodi:guide
     position="0,200"
     orientation="0,1"
     id="guide20"
     inkscape:label="base"
     inkscape:locked="true"
     inkscape:color="rgb(0,0,255)" /><inkscape:grid
     type="xygrid"
     id="grid24"
     originx="-473.37552"
     originy="-489.69235" /><sodipodi:guide
     position="0,0"
     orientation="0,1"
     id="guide34"
     inkscape:label="bottom"
     inkscape:locked="true"
     inkscape:color="rgb(0,0,255)" /><sodipodi:guide
     position="225.05109,1693.3186"
     orientation="0,1"
     id="guide44"
     inkscape:label=""
     inkscape:locked="false"
     inkscape:color="rgb(0,0,255)" /><sodipodi:guide
     position="0,900"
     orientation="0,1"
     id="guide46"
     inkscape:label=""
     inkscape:locked="true"
     inkscape:color="rgb(0,0,255)" /><sodipodi:guide
     position="1224.8085,1035.9238"
     orientation="-1,0"
     id="guide841"
     inkscape:label="width"
     inkscape:locked="false"
     inkscape:color="rgb(0,0,255)" /><sodipodi:guide
     position="1015.499,1000"
     orientation="0,1000"
     id="guide860" /><sodipodi:guide
     position="1000,0"
     orientation="0,-1000"
     id="guide864" /><sodipodi:guide
     position="0,0"
     orientation="-1000,0"
     id="guide866" /></sodipodi:namedview>
 <defs
   id="defs4"><inkscape:path-effect
   effect="spiro"
   id="path-effect870"
   is_visible="true"
   lpeversion="1" /><inkscape:path-effect
   effect="spiro"
   id="path-effect862"
   is_visible="true"
   lpeversion="1" /><inkscape:path-effect
   effect="spiro"
   id="path-effect1521"
   is_visible="true"
   lpeversion="1" /><inkscape:path-effect
   effect="spiro"
   id="path-effect858"
   is_visible="true"
   lpeversion="1" /><inkscape:path-effect
   effect="spiro"
   id="path-effect854"
   is_visible="true"
   lpeversion="1" />
  <style
   type="text/css"
   id="style2">
   <![CDATA[
    .fil0 {fill:#EF7F1A;fill-rule:nonzero}
   ]]>
  </style>
 <inkscape:path-effect
   effect="spiro"
   id="path-effect1214"
   is_visible="true"
   lpeversion="1" /><inkscape:path-effect
   effect="spiro"
   id="path-effect1195"
   is_visible="true"
   lpeversion="1" /><inkscape:path-effect
   effect="spiro"
   id="path-effect992"
   is_visible="true"
   lpeversion="1" /><inkscape:path-effect
   effect="spiro"
   id="path-effect287"
   is_visible="true"
   lpeversion="1" /><inkscape:path-effect
   effect="spiro"
   id="path-effect1032"
   is_visible="true"
   lpeversion="1" /><inkscape:path-effect
   effect="spiro"
   id="path-effect1218"
   is_visible="true"
   lpeversion="1" /><inkscape:path-effect
   effect="spiro"
   id="path-effect309"
   is_visible="true"
   lpeversion="1" /><inkscape:path-effect
   effect="spiro"
   id="path-effect1176"
   is_visible="true"
   lpeversion="1" /><inkscape:path-effect
   effect="spiro"
   id="path-effect1026"
   is_visible="true"
   lpeversion="1" /><inkscape:path-effect
   effect="spiro"
   id="path-effect1255"
   is_visible="true"
   lpeversion="1" /><inkscape:path-effect
   effect="spiro"
   id="path-effect1033"
   is_visible="true"
   lpeversion="1" /><inkscape:path-effect
   effect="spiro"
   id="path-effect461"
   is_visible="true"
   lpeversion="1" /></defs>
 
<path
   style="display:inline;fill:#63452c;fill-rule:nonzero;stroke:none;stroke-width:1.8927px;stroke-linecap:butt;stroke-linejoin:miter;stroke-opacity:1"
   d="M 319.96679,564.77181 C 339.51767,659.89129 397.99932,746.4045 478.97755,800 l -119.58903,44.26708 c -4.3476,-17.48756 -9.37236,-34.80676 -15.05923,-51.90576 -35.69456,-107.3246 -97.56624,-206.55021 -115.59421,-318.2089 -12.36437,-76.58042 -2.66968,-157.47344 32.81053,-226.456 15.25013,-29.65013 35.45152,-57.29002 62.11009,-77.31544 26.65857,-20.02542 60.23013,-31.9465 93.42333,-28.79883 26.20682,2.48516 50.99513,14.15074 71.80006,30.27924 20.80493,16.1285 37.88981,36.589 52.97188,58.16456 52.53937,75.15989 82.16923,166.11164 83.98378,257.79644 l -52.32401,5.22398 c 4.22052,-42.28129 15.23996,-83.87658 32.5062,-122.7018 10.69565,-24.05046 24.03158,-47.37623 42.95026,-65.67666 18.91867,-18.30042 43.9997,-31.24968 70.31889,-31.59937 16.19469,-0.21517 32.29486,4.32922 46.51279,12.0858 14.21793,7.75659 26.59726,18.65275 36.9301,31.12458 20.66569,24.94365 32.99256,55.64013 43.5653,86.25832 7.07261,20.48198 13.50807,41.18397 19.29392,62.06596 l -53.11198,5.92957 c 1.01527,-26.87028 3.71961,-53.67663 8.09175,-80.20826 12.74113,-77.31753 40.56209,-153.62421 90.56449,-213.95743 19.06578,-23.00489 41.46459,-43.68162 67.86521,-57.6722 26.40063,-13.99058 57.07093,-20.974553 86.56943,-16.22397 28.9391,4.66049 55.4129,20.3883 75.9952,41.25833 20.5823,20.87003 35.6088,46.68197 47.0388,73.67355 42.7083,100.85455 36.0447,215.43575 19.412,323.69005 -14.1888,92.34816 -36.2341,186.33887 -89.9503,262.78542 -46.2083,65.76158 -113.8388,114.79993 -187.85943,146.1167 -74.0206,31.31678 -154.35624,45.64692 -234.58646,50.43244 C 545.46855,1009.3833 389.27484,983.64314 263.04128,901.85177 136.38045,819.78356 47.481556,683.85765 16.143726,536.22264 -2.724141,447.33462 -1.6665089,355.04818 10.825696,265.0425 19.358101,203.56697 33.176457,142.826 52.078316,83.709487 L 224.33211,132.40627 c -40.12236,38.64784 -71.12684,86.70094 -89.80421,139.18537 -31.11079,87.42302 -27.42262,183.99539 -7.67044,274.66246 22.54013,103.46438 68.63891,206.46073 152.23318,271.46021 49.84151,38.75472 110.48315,61.92832 172.433,74.10704 61.94984,12.17872 125.48494,13.81549 188.61403,12.90823 56.91004,-0.81788 114.0574,-3.70396 169.82512,-15.07862 55.76771,-11.37467 110.36678,-31.53899 156.73315,-64.5478 71.45736,-50.87143 119.75406,-130.38357 142.04816,-215.21891 20.0999,-76.48581 20.2194,-157.4779 6.0648,-235.28364 -4.3563,-23.9462 -10.201,-48.05496 -22.4756,-69.07241 -6.1373,-10.50873 -13.8684,-20.15376 -23.2566,-27.89723 -9.3882,-7.74347 -20.4671,-13.55021 -32.3477,-16.18644 -14.2412,-3.16003 -29.3427,-1.67297 -43.04907,3.32052 -13.70634,4.9935 -26.04403,13.39941 -36.41261,23.66056 -20.73716,20.52231 -33.34392,47.81856 -43.06566,75.32643 -25.0072,70.75842 -33.61338,146.91464 -28.20456,221.76688 4.43879,61.42802 18.22878,122.17178 40.7488,179.49502 L 794.92839,743.13187 c 11.45761,-31.05515 18.08514,-63.88702 19.57157,-96.95498 2.03638,-45.30238 -5.53603,-90.61185 -17.48842,-134.35649 -6.06437,-22.19503 -13.5053,-44.56117 -27.49633,-62.82719 -6.99551,-9.133 -15.60367,-17.12463 -25.64483,-22.73926 -10.04116,-5.61462 -21.55111,-8.78772 -33.0462,-8.32735 -13.6871,0.54815 -26.92534,6.25654 -37.50456,14.95811 -10.57921,8.70157 -18.58968,20.27481 -24.13542,32.80007 -11.09148,25.0505 -12.4234,53.17811 -13.33879,80.55896 -1.7879,53.4792 -2.52194,107.88633 11.82455,159.4363 4.40335,15.82218 10.20472,31.25501 17.31438,46.05986 L 523.69756,768 c 18.62553,-42.12476 30.83325,-87.0802 36.07289,-132.83992 7.07343,-61.77485 1.41574,-124.73741 -14.00387,-184.97362 -7.59036,-29.65149 -17.57892,-58.8173 -31.82531,-85.90724 -10.38279,-19.74319 -23.26762,-38.60611 -40.7368,-52.47779 -17.46918,-13.87168 -40.01906,-22.35491 -62.15162,-19.57186 -21.91995,2.75631 -41.48419,16.29138 -55.16528,33.63813 -13.68108,17.34674 -22.06018,38.28422 -28.3393,59.46568 -17.18714,57.97769 -19.75631,120.20513 -7.58148,179.43843 z"
   id="use1033"
   sodipodi:nodetypes="accaaaaaccaaaccaaaaaaaaaaccaaaaaaaaaaccaaaaaccsaaaaa"
   inkscape:path-effect="#path-effect870"
   inkscape:original-d="M 319.96679,564.77181 C 345.76715,655.83088 429.4716,803.95446 478.97755,800 l -119.58903,44.26708 c -7.84718,-9.63493 -9.47077,-34.77908 -15.05923,-51.90576 -35.00705,-107.2844 -104.07203,-205.94726 -115.59421,-318.2089 -7.78756,-75.87492 -7.57433,-161.75119 32.81053,-226.456 33.23052,-53.24208 92.77459,-106.67648 155.53342,-106.11427 50.97763,0.45667 94.55056,47.3878 124.77194,88.4438 53.57669,72.7844 83.98378,257.79644 83.98378,257.79644 l -52.32401,5.22398 c 0,0 10.0276,-86.85521 32.5062,-122.7018 26.44046,-42.16455 63.54558,-99.40072 113.26915,-97.27603 60.39985,2.58088 95.99883,77.57243 127.00819,129.4687 11.11281,18.59805 8.55779,37.06743 19.29392,62.06596 l -53.11198,5.92957 c 1.10851,-19.1125 1.43108,-54.17503 8.09175,-80.20826 19.19622,-75.02833 37.07308,-157.95373 90.56449,-213.95743 39.41685,-41.26811 98.02934,-82.567251 154.43464,-73.89617 55.47,8.52729 99.1466,64.14779 123.034,114.93188 46.0073,97.81047 33.9543,216.58224 19.412,323.69005 -12.4562,91.74289 -28.0321,193.95188 -89.9503,262.78542 C 1014.1953,919.34633 850.06042,984.04001 695.61691,1000.4274 548.55404,1016.0316 385.06054,985.41181 263.04128,901.85177 141.70451,818.75909 60.553551,676.41813 16.143726,536.22264 -11.158683,450.03283 1.6161361,354.98298 10.825696,265.0425 17.140096,203.3762 52.078316,83.709487 52.078316,83.709487 L 224.33211,132.40627 c 0,0 -73.46301,86.44486 -89.80421,139.18537 -27.10699,87.48663 -29.58269,185.73241 -7.67044,274.66246 24.82009,100.73136 69.52509,208.83262 152.23318,271.46021 98.69322,74.73171 237.25224,87.18055 361.04703,87.01527 112.04189,-0.14959 234.93493,-15.13944 326.55827,-79.62642 70.29176,-49.47326 116.27056,-133.21856 142.04816,-215.21891 23.5276,-74.84298 28.4321,-160.08576 6.0648,-235.28364 -13.0653,-43.92475 -32.6735,-106.96344 -78.0799,-113.15608 -52.71988,-7.19009 -96.98095,55.63344 -122.52734,102.30751 -35.77771,65.36703 -31.80733,147.33628 -28.20456,221.76688 2.96634,61.28235 40.7488,179.49502 40.7488,179.49502 L 794.92839,743.13187 c 0,0 18.42198,-64.00482 19.57157,-96.95498 1.57473,-45.13584 1.58617,-93.41894 -17.48842,-134.35649 -17.94316,-38.5093 -43.94553,-98.42709 -86.18736,-93.8938 -49.25627,5.28607 -63.8108,80.05329 -74.97877,128.31714 -12.01388,51.91955 0.36133,107.3924 11.82455,159.4363 3.52819,16.01827 17.31438,46.05986 17.31438,46.05986 L 523.69756,768 c 0,0 29.55103,-84.02794 36.07289,-132.83992 6.52202,-48.81223 -0.80114,-124.56525 -14.00387,-184.97362 -6.52032,-29.83338 -13.16649,-61.73301 -31.82531,-85.90724 -25.58248,-33.14448 -61.293,-76.82884 -102.88842,-72.04965 -41.41596,4.75858 -67.7839,54.49311 -83.50458,93.10381 -22.57548,55.44642 -23.90133,121.83963 -7.58148,179.43843 z" /></svg>
