<svg xmlns="http://www.w3.org/2000/svg" xmlns:dc="http://purl.org/dc/elements/1.1/" xmlns:ns1="http://sodipodi.sourceforge.net/DTD/sodipodi-0.dtd" xmlns:ns2="http://www.inkscape.org/namespaces/inkscape" xmlns:ns4="http://creativecommons.org/ns#" xmlns:rdf="http://www.w3.org/1999/02/22-rdf-syntax-ns#" xml:space="preserve" width="1000" height="1000" version="1.1" style="clip-rule:evenodd;fill-rule:evenodd;image-rendering:optimizeQuality;shape-rendering:geometricPrecision;text-rendering:geometricPrecision" viewBox="0 0 1000 1000" id="svg10" ns1:docname="ന്ദൃ.svg" ns2:version="1.0.2 (e86c870879, 2021-01-15)"><metadata id="metadata14"><rdf:RDF><ns4:Work rdf:about=""><dc:format>image/svg+xml</dc:format><dc:type rdf:resource="http://purl.org/dc/dcmitype/StillImage" /><dc:title /></ns4:Work></rdf:RDF></metadata><ns1:namedview pagecolor="#ffffff" bordercolor="#666666" borderopacity="1" objecttolerance="10" gridtolerance="10" guidetolerance="10" ns2:pageopacity="0" ns2:pageshadow="2" ns2:window-width="1920" ns2:window-height="1007" id="namedview12" showgrid="false" ns2:zoom="0.678" ns2:cx="605.5541" ns2:cy="642.64006" ns2:window-x="1920" ns2:window-y="0" ns2:window-maximized="1" ns2:current-layer="svg10" showguides="true" ns2:guide-bbox="true" ns2:document-rotation="0" ns2:snap-to-guides="true"><ns1:guide position="0,1000" orientation="0,1" id="guide16" ns2:label="" ns2:locked="true" ns2:color="rgb(0,0,255)" /><ns1:guide position="1763.3122,2036.1693" orientation="1000,0" id="guide18" /><ns1:guide position="0,200" orientation="0,1" id="guide20" ns2:label="base" ns2:locked="true" ns2:color="rgb(0,0,255)" /><ns2:grid type="xygrid" id="grid24" originx="-473.37552" originy="-489.69235" /><ns1:guide position="0,0" orientation="0,1" id="guide34" ns2:label="bottom" ns2:locked="true" ns2:color="rgb(0,0,255)" /><ns1:guide position="225.05109,1693.3186" orientation="0,1" id="guide44" ns2:label="" ns2:locked="false" ns2:color="rgb(0,0,255)" /><ns1:guide position="877.18106,560.28185" orientation="-1,0" id="guide841" ns2:label="width" ns2:locked="false" ns2:color="rgb(0,0,255)" /><ns1:guide position="0,1000" orientation="0,1000" id="guide860" /><ns1:guide position="1000,1000" orientation="1000,0" id="guide862" /><ns1:guide position="1000,0" orientation="0,-1000" id="guide864" /><ns1:guide position="0,0" orientation="-1000,0" id="guide866" /></ns1:namedview>
 <defs id="defs4"><ns2:path-effect effect="fillet_chamfer" id="path-effect857" is_visible="true" lpeversion="1" satellites_param="F,0,1,1,0,28.266502,0,1 @ F,0,0,1,0,0,0,1 @ F,0,0,1,0,0,0,1 @ F,0,0,1,0,0,0,1 @ F,0,0,1,0,0,0,1 @ F,0,0,1,0,0,0,1 @ F,0,0,1,0,0,0,1 @ F,0,0,1,0,0,0,1 @ F,0,0,1,0,0,0,1 @ F,0,0,1,0,0,0,1 @ F,0,0,1,0,0,0,1 @ F,0,1,1,0,28.266502,0,1 @ F,0,1,1,0,28.266502,0,1 @ F,0,0,1,0,0,0,1 @ F,0,0,1,0,0,0,1 @ F,0,0,1,0,0,0,1 @ F,0,0,1,0,0,0,1 @ F,0,0,1,0,0,0,1 @ F,0,0,1,0,0,0,1 @ F,0,0,1,0,0,0,1 @ F,0,0,1,0,0,0,1 @ F,0,0,1,0,0,0,1 @ F,0,0,1,0,0,0,1 @ F,0,0,1,0,0,0,1 @ F,0,0,1,0,0,0,1 @ F,0,0,1,0,0,0,1 @ F,0,0,1,0,0,0,1 @ F,0,0,1,0,0,0,1 @ F,0,0,1,0,0,0,1 @ F,0,0,1,0,0,0,1 @ F,0,0,1,0,0,0,1 @ F,0,0,1,0,0,0,1 @ F,0,0,1,0,0,0,1 @ F,0,0,1,0,0,0,1 @ F,0,0,1,0,0,0,1 @ F,0,0,1,0,0,0,1 @ F,0,0,1,0,0,0,1 @ F,0,0,1,0,0,0,1 @ F,0,0,1,0,0,0,1 @ F,0,0,1,0,0,0,1 @ F,0,0,1,0,0,0,1 @ F,0,0,1,0,0,0,1 @ F,0,0,1,0,0,0,1 @ F,0,0,1,0,0,0,1 @ F,0,0,1,0,0,0,1 @ F,0,0,1,0,0,0,1 @ F,0,0,1,0,0,0,1 @ F,0,0,1,0,0,0,1 @ F,0,0,1,0,0,0,1 @ F,0,0,1,0,0,0,1 @ F,0,0,1,0,0,0,1 @ F,0,0,1,0,0,0,1 @ F,0,0,1,0,0,0,1 @ F,0,0,1,0,0,0,1 @ F,0,0,1,0,0,0,1 @ F,0,0,1,0,0,0,1 @ F,0,0,1,0,0,0,1 @ F,0,0,1,0,0,0,1 @ F,0,0,1,0,0,0,1 @ F,0,0,1,0,0,0,1 @ F,0,1,1,0,28.266502,0,1 @ F,0,1,1,0,28.266502,0,1 @ F,0,0,1,0,0,0,1 @ F,0,0,1,0,0,0,1 @ F,0,0,1,0,0,0,1 @ F,0,0,1,0,0,0,1 @ F,0,0,1,0,0,0,1 @ F,0,0,1,0,0,0,1 @ F,0,0,1,0,0,0,1 @ F,0,0,1,0,0,0,1 @ F,0,0,1,0,0,0,1 @ F,0,1,1,0,28.266502,0,1" unit="px" method="auto" mode="F" radius="0" chamfer_steps="1" flexible="false" use_knot_distance="true" apply_no_radius="true" apply_with_radius="true" only_selected="true" hide_knots="false" /><ns2:path-effect effect="spiro" id="path-effect862" is_visible="true" lpeversion="1" /><ns2:path-effect effect="spiro" id="path-effect1521" is_visible="true" lpeversion="1" /><ns2:path-effect effect="spiro" id="path-effect858" is_visible="true" lpeversion="1" /><ns2:path-effect effect="spiro" id="path-effect854" is_visible="true" lpeversion="1" />
  <style type="text/css" id="style2">
   
    .fil0 {fill:#EF7F1A;fill-rule:nonzero}
   
  </style>
 <ns2:path-effect effect="spiro" id="path-effect1214" is_visible="true" lpeversion="1" /><ns2:path-effect effect="spiro" id="path-effect1195" is_visible="true" lpeversion="1" /><ns2:path-effect effect="spiro" id="path-effect992" is_visible="true" lpeversion="1" /><ns2:path-effect effect="spiro" id="path-effect287" is_visible="true" lpeversion="1" /><ns2:path-effect effect="spiro" id="path-effect1032" is_visible="true" lpeversion="1" /><ns2:path-effect effect="spiro" id="path-effect1218" is_visible="true" lpeversion="1" /><ns2:path-effect effect="spiro" id="path-effect309" is_visible="true" lpeversion="1" /><ns2:path-effect effect="spiro" id="path-effect1176" is_visible="true" lpeversion="1" /><ns2:path-effect effect="spiro" id="path-effect1026" is_visible="true" lpeversion="1" /><ns2:path-effect effect="spiro" id="path-effect1030" is_visible="true" lpeversion="1" /><ns2:path-effect effect="spiro" id="path-effect856" is_visible="true" lpeversion="1" /></defs>
 
<path style="display:inline;fill:#63452c;fill-rule:nonzero;stroke:none;stroke-width:2.09522px;stroke-linecap:butt;stroke-linejoin:miter;stroke-opacity:1" d="m 320.19391,589.5569 c 3.06383,-13.58914 5.72541,-27.26898 7.9796,-41.01563 10.14203,-61.84881 11.8025,-126.46119 -7.53721,-186.07756 -5.31088,-16.37125 -12.21672,-32.32928 -21.82685,-46.60754 -9.61012,-14.27826 -22.01795,-26.86229 -36.96289,-35.39879 -17.52161,-10.00829 -38.26014,-14.15355 -58.3284,-12.04705 -20.06827,2.1065 -39.38837,10.39737 -54.99993,23.18219 -17.28192,14.15274 -29.91185,33.60907 -37.1443,54.74332 -7.23245,21.13425 -9.19433,43.89238 -7.10297,66.13179 4.18272,44.47881 24.09256,85.98109 47.31032,124.14908 24.45247,40.19774 53.09234,78.11145 87.55113,110.14851 25.49433,23.70261 54.08616,44.06571 84.80142,60.44524 13.77206,7.34422 15.40031,20.18298 3.07867,29.76867 l -96.95535,75.4269 c -12.32164,9.58569 -25.05638,4.993 -29.27714,-10.0351 -5.27359,-18.77675 -11.50823,-37.28362 -18.67367,-55.42292 C 150.04704,665.78995 99.951107,593.21887 59.274313,516.01895 27.782796,456.25164 1.4583676,391.62117 0.41274816,324.07301 -0.11006156,290.29893 5.8739818,256.19105 20.001632,225.50927 34.129283,194.82749 56.617305,167.69905 85.400289,150.02133 122.01666,127.53256 167.63707,121.35537 209.67302,130.27067 c 42.03594,8.91529 80.38841,32.29111 109.98788,63.44194 40.44093,42.56051 64.46553,98.35603 79.26258,155.17076 10.45814,40.15507 16.70652,81.40519 18.60968,122.85613 l -59.29751,-2.5213 c 9.90861,-47.5236 20.12643,-94.98273 30.65258,-142.37337 13.56396,-61.06739 28.82061,-124.47991 68.79414,-172.59773 27.20375,-32.74629 65.20565,-56.550328 106.74619,-65.864103 41.54055,-9.313774 86.37328,-3.911162 124.10901,15.796153 26.19442,13.67992 48.84703,34.05929 65.26003,58.63369 16.41301,24.5744 26.55796,53.29055 29.28332,82.71606 5.17978,55.92573 -16.94539,112.62559 -54.38323,154.49354 -27.7849,31.07276 -63.83569,54.68561 -103.42218,67.74037 l -7.9432,-39.7783 c 53.38209,-4.97528 108.38885,9.94584 151.93928,41.21501 34.70499,24.91815 61.99672,59.83589 78.61927,99.19376 16.62256,39.35786 22.62863,83.02334 18.14101,125.51113 -4.95584,46.92077 -22.5413,92.12953 -48.35728,131.62199 -25.81598,39.49246 -59.70991,73.38421 -97.62476,101.46594 -43.92051,32.52984 -93.71674,57.58568 -146.81094,70.55516 -53.0942,12.9695 -109.52934,13.6047 -162.18208,-1.05447 -30.0561,-8.36797 -59.16646,-21.93247 -82.10676,-43.07803 -22.9403,-21.14556 -39.27058,-50.42297 -40.97665,-81.57552 -1.67318,-30.55184 10.83398,-60.8946 30.71424,-84.15379 19.88026,-23.25919 46.66004,-39.87722 75.03864,-51.31705 64.95931,-26.18606 139.33322,-25.96127 205.73138,-3.67434 54.39925,18.25942 103.86454,50.99858 141.92936,93.93754 l -78.65828,84.0428 c -30.88967,-40.56556 -70.90179,-74.14362 -116.21233,-97.52505 -17.3794,-8.96823 -35.69472,-16.50473 -54.95721,-19.88544 -19.26249,-3.3807 -39.60083,-2.42555 -57.65999,5.0804 -12.4169,5.16085 -23.61847,13.42508 -31.7053,24.16831 -8.08683,10.74324 -12.96436,23.98638 -13.14093,37.43193 -0.1648,12.54888 3.7502,25.02892 10.51705,35.59827 6.76685,10.56935 16.31243,19.25075 27.15839,25.56475 23.57982,13.72705 52.56518,15.9901 79.36722,10.88224 26.80205,-5.10786 51.80589,-17.0556 75.62947,-30.35511 74.93163,-41.83057 143.19749,-100.39933 181.17181,-177.35709 12.50951,-25.35144 21.64357,-52.71209 23.48267,-80.92203 1.8391,-28.20994 -3.98231,-57.36738 -19.37501,-81.07915 -11.98874,-18.46813 -29.45979,-33.13689 -49.21594,-42.85779 -19.75616,-9.7209 -41.73434,-14.59087 -63.73893,-15.36516 -12.29158,-0.43251 -24.6257,0.39883 -36.75124,2.45747 -15.37533,2.61038 -29.78127,-5.55109 -32.73359,-20.88054 l -8.92505,-46.34189 c -2.95232,-15.32945 7.08406,-30.39237 21.80636,-35.55873 11.1924,-3.92764 22.10015,-8.66662 32.6058,-14.17373 14.0773,-7.37939 27.55236,-16.23244 38.53603,-27.7209 10.98368,-11.48846 19.39868,-25.78228 22.2039,-41.42698 2.03893,-11.37108 1.06217,-23.22955 -2.49982,-34.21913 -3.56199,-10.98958 -9.67807,-21.10576 -17.515,-29.59347 -15.67386,-16.97541 -37.95632,-27.09821 -60.84389,-30.25953 -29.97729,-4.14058 -61.22577,3.33985 -86.69802,19.67835 -37.33623,23.94833 -60.9592,65.19165 -72.2395,108.09004 -17.8056,67.71379 -7.88749,139.35065 4.36625,208.28571 2.26223,12.72646 4.60061,25.43939 7.01498,38.13787 2.91592,15.33636 -7.22091,26.8237 -22.79058,25.68642 l -97.96849,-7.15607 C 326.04818,617.92133 316.7606,604.78477 320.19391,589.5569 Z" id="path1087-1-75" ns1:nodetypes="caaaaaaccaaaaaccaaaaaccaaaaaaaccaaaaaaaaccaaaaaacc" ns2:original-d="m 313.42646,616.99938 c 0,0 12.74563,-45.20124 14.74705,-68.45811 5.32248,-61.84812 12.65046,-127.37512 -7.53721,-186.07756 -10.93798,-31.80586 -28.15389,-68.12479 -58.78974,-82.00633 -34.57432,-15.66612 -88.01026,-17.14572 -113.32833,11.13514 -54.481448,60.85701 -24.334,168.07482 3.06305,245.02419 15.73151,44.18468 52.96972,78.46425 87.55113,110.14851 32.46628,29.74634 110.1904,72.85749 110.1904,72.85749 L 207.74684,829.76245 c -12.76427,-34.18253 -14.53257,-56.137 -25.6405,-82.81444 C 148.59214,666.45857 77.346458,601.3136 59.274313,516.01895 33.922282,396.36565 -11.405066,224.77671 85.400289,150.02133 148.27013,101.47184 256.01723,146.18214 319.6609,193.71261 c 46.53562,34.75381 61.47289,99.88135 79.26258,155.17076 12.68634,39.42849 18.60968,122.85613 18.60968,122.85613 l -59.29751,-2.5213 c 0,0 16.50737,-95.93467 30.65258,-142.37337 18.04652,-59.24668 21.52588,-132.57827 68.79414,-172.59773 60.09502,-50.87918 157.8445,-79.555929 230.8552,-50.06795 52.55952,21.22804 87.44652,85.11126 94.54335,141.34975 6.83526,54.1657 -20.70791,111.52127 -54.38323,154.49354 -25.41949,32.4372 -103.42218,67.74037 -103.42218,67.74037 l -7.9432,-39.7783 c 0,0 112.29847,6.82884 151.93928,41.21501 61.60337,53.43747 102.98949,143.39232 96.76028,224.70489 -7.00262,91.40837 -71.16979,180.10063 -145.98204,233.08793 C 633.89879,988.01057 512.3619,1026.2 411.05681,996.49303 355.023,980.06153 291.36535,930.13421 287.9734,871.83948 c -3.32767,-57.19009 54.4953,-109.8888 105.75288,-135.47084 61.36941,-30.62872 139.87938,-22.85339 205.73138,-3.67434 54.47033,15.86419 147.76358,97.12217 141.92936,93.93754 l -78.65828,84.0428 c 0,0 -69.9232,-77.1609 -116.21233,-97.52505 -34.65656,-15.24659 -77.82404,-29.73728 -112.6172,-14.80504 -23.33987,10.01681 -43.86615,36.22061 -44.84623,61.60024 -0.924,23.92737 16.08149,50.81536 37.67544,61.16302 46.95863,22.50224 108.10591,3.17038 154.99669,-19.47287 76.10237,-36.74934 147.43121,-99.87382 181.17181,-177.35709 21.56635,-49.52585 31.6368,-115.52469 4.10766,-162.00118 -21.58757,-36.44555 -71.17597,-51.23547 -112.95487,-58.22295 -21.30893,-3.5639 -64.13918,9.33336 -64.13918,9.33336 L 570.29418,411.53233 c 0,0 42.25592,-9.97096 59.75781,-21.97603 25.29924,-17.35352 60.57503,-38.4694 60.73993,-69.14788 0.22224,-41.34845 -41.59312,-81.11229 -80.85871,-94.07213 -28.14122,-9.28817 -62.28025,2.88637 -86.69802,19.67835 -35.70735,24.55576 -60.0929,66.49124 -72.2395,108.09004 -19.46437,66.6602 -2.81616,139.21432 4.36625,208.28571 2.31137,22.22788 12.41579,65.88352 12.41579,65.88352 z" ns2:path-effect="#path-effect1030;#path-effect857" /></svg>