<?xml version="1.0" encoding="UTF-8" standalone="no"?>
<svg
   xmlns:dc="http://purl.org/dc/elements/1.1/"
   xmlns:cc="http://creativecommons.org/ns#"
   xmlns:rdf="http://www.w3.org/1999/02/22-rdf-syntax-ns#"
   xmlns:svg="http://www.w3.org/2000/svg"
   xmlns="http://www.w3.org/2000/svg"
   xmlns:sodipodi="http://sodipodi.sourceforge.net/DTD/sodipodi-0.dtd"
   xmlns:inkscape="http://www.inkscape.org/namespaces/inkscape"
   xml:space="preserve"
   width="1000"
   height="1000"
   version="1.1"
   style="clip-rule:evenodd;fill-rule:evenodd;image-rendering:optimizeQuality;shape-rendering:geometricPrecision;text-rendering:geometricPrecision"
   viewBox="0 0 1000 1000"
   id="svg10"
   sodipodi:docname="ന്ധ.svg"
   inkscape:version="1.0.2 (e86c870879, 2021-01-15)"><metadata
   id="metadata14"><rdf:RDF><cc:Work
       rdf:about=""><dc:format>image/svg+xml</dc:format><dc:type
         rdf:resource="http://purl.org/dc/dcmitype/StillImage" /><dc:title /></cc:Work></rdf:RDF></metadata><sodipodi:namedview
   pagecolor="#ffffff"
   bordercolor="#666666"
   borderopacity="1"
   objecttolerance="10"
   gridtolerance="10"
   guidetolerance="10"
   inkscape:pageopacity="0"
   inkscape:pageshadow="2"
   inkscape:window-width="1920"
   inkscape:window-height="1007"
   id="namedview12"
   showgrid="false"
   inkscape:zoom="0.84890884"
   inkscape:cx="667.65013"
   inkscape:cy="404.99499"
   inkscape:window-x="1920"
   inkscape:window-y="0"
   inkscape:window-maximized="1"
   inkscape:current-layer="svg10"
   showguides="true"
   inkscape:guide-bbox="true"
   inkscape:document-rotation="0"><sodipodi:guide
   position="0,1000"
   orientation="0,1"
   id="guide16"
   inkscape:label=""
   inkscape:locked="true"
   inkscape:color="rgb(0,0,255)" /><sodipodi:guide
   position="1763.3122,2036.1693"
   orientation="1000,0"
   id="guide18" /><sodipodi:guide
   position="0,200"
   orientation="0,1"
   id="guide20"
   inkscape:label="base"
   inkscape:locked="true"
   inkscape:color="rgb(0,0,255)" /><inkscape:grid
   type="xygrid"
   id="grid24"
   originx="-473.37552"
   originy="-489.69235" /><sodipodi:guide
   position="0,0"
   orientation="0,1"
   id="guide34"
   inkscape:label="bottom"
   inkscape:locked="true"
   inkscape:color="rgb(0,0,255)" /><sodipodi:guide
   position="225.05109,1693.3186"
   orientation="0,1"
   id="guide44"
   inkscape:label=""
   inkscape:locked="false"
   inkscape:color="rgb(0,0,255)" /><sodipodi:guide
   position="0,900"
   orientation="0,1"
   id="guide46"
   inkscape:label=""
   inkscape:locked="true"
   inkscape:color="rgb(0,0,255)" /><sodipodi:guide
   position="1091.6383,924.78062"
   orientation="1,0"
   id="guide841"
   inkscape:label="width" />    </sodipodi:namedview>
 <defs
   id="defs4"><inkscape:path-effect
   effect="fillet_chamfer"
   id="path-effect844"
   is_visible="true"
   lpeversion="1"
   satellites_param="F,0,0,1,0,0,0,1 @ F,0,0,1,0,0,0,1 @ F,0,0,1,0,0,0,1 @ F,0,0,1,0,0,0,1 @ F,0,0,1,0,0,0,1 @ F,0,0,1,0,0,0,1 @ F,0,0,1,0,20.716745,0,1 @ F,0,0,1,0,26.722839,0,1 @ F,0,0,1,0,0,0,1 @ F,0,0,1,0,0,0,1 @ F,0,0,1,0,0,0,1 @ F,0,0,1,0,0,0,1 @ F,0,0,1,0,0,0,1 @ F,0,0,1,0,0,0,1 @ F,0,0,1,0,0,0,1 @ F,0,0,1,0,0,0,1 @ F,0,0,1,0,21.088094,0,1 @ F,0,0,1,0,26.324911,0,1 @ F,0,0,1,0,0,0,1 @ F,0,0,1,0,0,0,1 @ F,0,0,1,0,0,0,1 @ F,0,0,1,0,0,0,1 @ F,0,0,1,0,0,0,1 @ F,0,0,1,0,0,0,1 @ F,0,0,1,0,0,0,1 @ F,0,0,1,0,0,0,1 @ F,0,0,1,0,0,0,1 @ F,0,0,1,0,0,0,1 @ F,0,0,1,0,0,0,1 @ F,0,0,1,0,0,0,1 @ F,0,0,1,0,0,0,1 @ F,0,0,1,0,0,0,1 @ F,0,0,1,0,0,0,1 @ F,0,0,1,0,0,0,1 @ F,0,0,1,0,0,0,1 @ F,0,0,1,0,0,0,1 @ F,0,0,1,0,0,0,1 @ F,0,0,1,0,0,0,1 @ F,0,0,1,0,0,0,1 @ F,0,0,1,0,0,0,1 @ F,0,0,1,0,36.941154,0,1 @ F,0,0,1,0,27.733549,0,1 @ F,0,0,1,0,0,0,1 @ F,0,0,1,0,0,0,1 @ F,0,0,1,0,0,0,1 @ F,0,0,1,0,0,0,1 @ F,0,0,1,0,0,0,1 @ F,0,0,1,0,0,0,1 @ F,0,0,1,0,0,0,1 @ F,0,0,1,0,0,0,1 @ F,0,0,1,0,0,0,1 @ F,0,0,1,0,0,0,1 @ F,0,0,1,0,35.125175,0,1 @ F,0,0,1,0,29.66189,0,1 @ F,0,0,1,0,0,0,1 @ F,0,0,1,0,0,0,1 @ F,0,0,1,0,0,0,1 @ F,0,0,1,0,0,0,1 @ F,0,0,1,0,0,0,1 @ F,0,0,1,0,0,0,1 @ F,0,0,1,0,0,0,1 @ F,0,0,1,0,0,0,1 @ F,0,0,1,0,0,0,1 @ F,0,0,1,0,0,0,1 @ F,0,0,1,0,0,0,1 @ F,0,0,1,0,0,0,1 @ F,0,0,1,0,0,0,1 @ F,0,0,1,0,0,0,1 @ F,0,0,1,0,0,0,1 @ F,0,0,1,0,0,0,1 @ F,0,0,1,0,0,0,1"
   unit="px"
   method="auto"
   mode="F"
   radius="0"
   chamfer_steps="1"
   flexible="false"
   use_knot_distance="true"
   apply_no_radius="true"
   apply_with_radius="true"
   only_selected="true"
   hide_knots="false" />
  <style
   type="text/css"
   id="style2">
   <![CDATA[
    .fil0 {fill:#EF7F1A;fill-rule:nonzero}
   ]]>
  </style>
 <inkscape:path-effect
   effect="spiro"
   id="path-effect1214"
   is_visible="true"
   lpeversion="1" /><inkscape:path-effect
   effect="spiro"
   id="path-effect1195"
   is_visible="true"
   lpeversion="1" /><inkscape:path-effect
   effect="spiro"
   id="path-effect992"
   is_visible="true"
   lpeversion="1" /><inkscape:path-effect
   effect="spiro"
   id="path-effect1060"
   is_visible="true"
   lpeversion="1" /><inkscape:path-effect
   effect="spiro"
   id="path-effect1094"
   is_visible="true"
   lpeversion="1" /></defs>
 
<path
   style="display:inline;fill:#1a1a1a;stroke:none;stroke-width:1.84694px;stroke-linecap:butt;stroke-linejoin:miter;stroke-opacity:1"
   d="m 593.81533,640.61614 c 11.97828,6.43404 25.83171,9.24979 39.39233,8.25696 13.56062,-0.99283 26.79265,-5.76067 38.01701,-13.43464 12.90797,-8.82503 23.03211,-21.30599 30.61984,-34.97798 7.58774,-13.67198 12.75492,-28.55402 17.06478,-43.58472 17.56943,-61.2737 21.1945,-127.41471 3.76883,-188.72945 -5.91391,-20.80896 -14.20458,-40.94017 -24.64231,-59.88816 -5.51932,-10.01941 -1.42325,-18.76481 9.95197,-19.99499 l 92.90536,-10.04734 c 14.67306,-1.58683 23.51865,8.70226 20.41914,23.13066 -6.43833,29.97075 -10.75499,60.39735 -12.90064,90.97673 -5.0085,71.38016 3.04534,146.93953 43.14272,206.20514 12.0983,17.8818 27.22743,34.17305 46.13745,44.59124 18.91002,10.4182 41.94069,14.46891 62.49706,7.86867 14.294,-4.58952 26.78157,-14.10468 35.92355,-26.01294 9.14198,-11.90825 15.03658,-26.12544 18.14658,-40.81251 6.22,-29.37414 1.5087,-59.89582 -4.6185,-89.28948 -15.59876,-74.83153 -41.13249,-149.243 -88.15215,-209.51098 -18.73185,-24.00976 -40.69754,-45.49048 -65.099,-63.70786 -9.33116,-6.96635 -11.93189,-19.8672 -5.33749,-29.46709 l 48.42042,-70.48874 c 8.23199,-11.98384 20.86322,-11.52845 28.0047,1.13542 26.75101,47.43719 51.3335,96.09725 73.64342,145.77795 47.0588,104.79254 84.3231,215.87098 89.7039,330.61875 1.7746,37.84352 -0.081,76.5756 -13.26,112.09453 -6.5895,17.75946 -16.0077,34.56013 -28.499,48.80052 -12.4912,14.2404 -28.1097,25.87354 -45.723,32.84434 -19.60437,7.75881 -41.36201,9.58791 -62.18495,6.28098 -20.82293,-3.30694 -40.71089,-11.64605 -58.29831,-23.27416 -35.17486,-23.25622 -60.54808,-58.92603 -79.12643,-96.78058 -15.52178,-31.62659 -26.85631,-65.30507 -33.61503,-99.88088 0.41364,50.65885 -18.47812,101.24 -51.99946,139.22433 -23.29772,26.39955 -53.85825,46.91471 -88.00863,55.48625 -34.15039,8.57154 -71.85804,4.56694 -102.00116,-13.62955 -24.92181,-15.04454 -43.78342,-39.06253 -55.18238,-65.84869 -11.39897,-26.78617 -15.6467,-56.24305 -15.23337,-85.35085 1.00998,-71.1265 29.00976,-139.15782 62.75842,-201.77593 13.84504,-25.68843 28.96833,-51.45557 34.15235,-80.17327 2.59201,-14.35885 2.57633,-29.33596 -1.41179,-43.37127 -3.98813,-14.03531 -12.11589,-27.08106 -23.81822,-35.79602 -10.79585,-8.03989 -24.31337,-12.14108 -37.77346,-12.26768 -13.4601,-0.1266 -26.83331,3.61464 -38.68894,9.98914 -23.71127,12.74898 -40.76284,35.36693 -52.61553,59.5387 -32.40102,66.07695 -29.87987,143.48357 -21.89009,216.64198 1.91831,17.56502 4.11056,35.10012 6.57557,52.59679 2.84618,20.20213 -10.98124,37.01161 -31.3743,37.61675 l -68.38575,2.02929 c -15.31008,0.45431 -23.01598,-10.68572 -18.2795,-25.24886 9.73404,-29.92904 16.11147,-60.9503 18.94787,-92.29487 4.49085,-49.62759 0.061,-100.10768 -13.63258,-148.01959 -4.11079,-14.38306 -9.10012,-28.64529 -16.78419,-41.47986 -7.68406,-12.83457 -18.24315,-24.24928 -31.52935,-31.123 -14.45611,-7.47898 -31.6287,-9.17855 -47.51231,-5.62533 -15.8836,3.55322 -30.44903,12.18781 -41.92002,23.73469 -11.47755,11.55349 -19.92997,25.95744 -25.22033,41.35969 -5.29036,15.40226 -7.47094,31.78786 -7.24322,48.07176 0.45543,32.5678 10.3811,64.28474 22.5962,94.47845 23.90121,59.07985 57.36627,114.92222 102.78177,159.63384 12.21558,12.02625 25.2579,23.21207 39.00037,33.45874 15.54624,11.59159 17.51894,30.29051 3.23435,43.41589 l -67.12677,61.67942 c -12.06279,11.08389 -24.37181,7.0247 -28.2626,-8.88705 -4.14907,-16.96804 -8.94542,-33.77783 -14.37614,-50.38014 C 134.72539,640.05487 96.222341,568.30153 60.264766,495.76896 31.350546,437.44404 3.4781349,376.44677 0.28982723,311.42629 -1.3043266,278.91605 3.5304821,245.78915 16.966845,216.14254 c 13.436363,-29.6466 35.792194,-55.63941 64.488824,-71.00041 30.792131,-16.48271 67.848561,-20.0191 101.789041,-11.78021 33.94047,8.23888 64.69042,27.82686 88.22075,53.63691 34.20029,37.51378 53.23431,88.47576 51.99952,139.22434 6.83865,-34.55645 18.16867,-68.2214 33.61512,-99.88088 19.34802,-39.65623 45.96955,-76.92858 82.75367,-101.29846 18.39206,-12.18494 39.17041,-20.95821 60.93909,-24.54506 21.76867,-3.586852 44.5277,-1.885173 65.15639,5.93774 30.17898,11.44462 54.65915,35.71343 69.24089,64.50793 14.58173,28.7945 19.70612,61.81706 17.78742,94.03614 -3.83739,64.43815 -34.40022,123.83906 -64.32296,181.03723 -16.78503,32.08506 -33.88908,65.2201 -37.2151,101.27736 -1.663,18.02863 0.28612,36.57776 7.26092,53.28551 6.97481,16.70776 19.18506,31.46812 35.13491,40.03546 z"
   id="path1087-1-75-2"
   inkscape:path-effect="#path-effect1094;#path-effect844"
   inkscape:original-d="m 593.81533,640.61614 c 19.12005,17.41248 55.30889,8.25207 77.40934,-5.17768 26.17947,-15.90781 39.13798,-49.14518 47.68462,-78.5627 17.55488,-60.42391 16.47125,-127.10257 3.76883,-188.72945 -5.73976,-27.84696 -35.28699,-77.65571 -35.28699,-77.65571 l 140.06994,-15.14799 c 0,0 -19.93474,77.48336 -19.04943,116.9806 1.57363,70.2057 -0.11092,150.8839 43.14272,206.20514 24.76872,31.67911 71.70798,68.38118 108.63451,52.45991 50.12593,-21.61235 51.94813,-101.58539 49.45163,-156.11493 -3.4652,-75.68765 -27.45713,-140.67586 -88.15215,-209.51098 -24.77971,-28.87145 -82.37671,-75.79281 -82.37671,-75.79281 L 914.37762,100 c 0,0 63.88426,109.68476 86.74278,168.61203 41.2977,106.46143 98.7836,216.78965 89.7039,330.61875 -5.6342,70.63392 -20.0949,171.83335 -87.482,193.73939 -72.83405,23.67673 -150.93721,-54.64358 -199.60969,-113.77376 -22.32522,-27.12199 -33.61503,-99.88088 -33.61503,-99.88088 0,0 -14.59538,106.742 -51.99946,139.22433 -48.96806,42.52411 -131.86927,70.59495 -190.00979,41.8567 -49.84131,-24.63575 -66.68524,-95.72753 -70.41575,-151.19954 -4.72627,-70.27844 50.23539,-132.46126 62.75842,-201.77593 9.45789,-52.34921 52.68875,-129.10164 8.92234,-159.34056 -38.72538,-26.75598 -101.46197,19.14328 -129.07793,57.26016 -42.58413,58.77665 -23.14342,144.07111 -21.89009,216.64198 0.51769,29.97521 12.12617,89.11783 12.12617,89.11783 l -133.032,3.9476 c 0,0 25.48183,-77.50251 28.38972,-118.36633 3.51923,-49.45631 2.86791,-101.29909 -13.63258,-148.01959 -9.68063,-27.41034 -21.44811,-61.49925 -48.31354,-72.60286 -28.10956,-11.61781 -69.5532,-4.9111 -89.43233,18.10936 -40.124177,46.46464 -25.60376,124.56954 -9.86735,183.9099 16.22226,61.17243 60.09668,112.90899 102.78177,159.63384 19.41578,21.2533 68.09925,53.10902 68.09925,53.10902 L 180.69151,796.33563 C 170.33836,763.58846 168.90411,742.55609 159.89439,716.99928 132.71086,639.89035 74.923143,577.4809 60.264766,495.76896 39.701612,381.14074 2.9364431,216.75763 81.455669,145.14213 c 50.994081,-46.510616 139.503551,-5.3909 190.009791,41.8567 33.66515,31.49243 51.99952,139.22434 51.99952,139.22434 0,0 11.33226,-72.72406 33.61512,-99.88088 50.91966,-62.05737 138.0747,-157.785933 208.84915,-119.90578 100.02125,53.53373 17.41047,226.25842 22.70535,339.5813 3.02856,64.81838 -42.79482,150.90697 5.18073,194.59833 z"
   sodipodi:nodetypes="aaaaccaaaacccaaaacaaaaaaaccaaaaaaccaaaacaaaa" /></svg>
