<?xml version="1.0" encoding="UTF-8" standalone="no"?>
<svg
   xmlns:dc="http://purl.org/dc/elements/1.1/"
   xmlns:cc="http://creativecommons.org/ns#"
   xmlns:rdf="http://www.w3.org/1999/02/22-rdf-syntax-ns#"
   xmlns:svg="http://www.w3.org/2000/svg"
   xmlns="http://www.w3.org/2000/svg"
   xmlns:sodipodi="http://sodipodi.sourceforge.net/DTD/sodipodi-0.dtd"
   xmlns:inkscape="http://www.inkscape.org/namespaces/inkscape"
   xml:space="preserve"
   width="1000"
   height="1000"
   version="1.1"
   style="clip-rule:evenodd;fill-rule:evenodd;image-rendering:optimizeQuality;shape-rendering:geometricPrecision;text-rendering:geometricPrecision"
   viewBox="0 0 1000 1000"
   id="svg10"
   sodipodi:docname="ന്തു.svg"
   inkscape:version="1.0.1 (3bc2e813f5, 2020-09-07)"><metadata
   id="metadata14"><rdf:RDF><cc:Work
       rdf:about=""><dc:format>image/svg+xml</dc:format><dc:type
         rdf:resource="http://purl.org/dc/dcmitype/StillImage" /><dc:title></dc:title></cc:Work></rdf:RDF></metadata><sodipodi:namedview
   pagecolor="#ffffff"
   bordercolor="#666666"
   borderopacity="1"
   objecttolerance="10"
   gridtolerance="10"
   guidetolerance="10"
   inkscape:pageopacity="0"
   inkscape:pageshadow="2"
   inkscape:window-width="1920"
   inkscape:window-height="1015"
   id="namedview12"
   showgrid="false"
   inkscape:zoom="0.678"
   inkscape:cx="279.17694"
   inkscape:cy="587.37325"
   inkscape:window-x="1920"
   inkscape:window-y="0"
   inkscape:window-maximized="1"
   inkscape:current-layer="svg10"
   showguides="true"
   inkscape:guide-bbox="true"
   inkscape:document-rotation="0"
   inkscape:snap-to-guides="true"><sodipodi:guide
     position="0,1000"
     orientation="0,1"
     id="guide16"
     inkscape:label=""
     inkscape:locked="true"
     inkscape:color="rgb(0,0,255)" /><sodipodi:guide
     position="1763.3122,2036.1693"
     orientation="1000,0"
     id="guide18" /><sodipodi:guide
     position="0,200"
     orientation="0,1"
     id="guide20"
     inkscape:label="base"
     inkscape:locked="true"
     inkscape:color="rgb(0,0,255)" /><inkscape:grid
     type="xygrid"
     id="grid24"
     originx="-473.37552"
     originy="-489.69235" /><sodipodi:guide
     position="0,0"
     orientation="0,1"
     id="guide34"
     inkscape:label="bottom"
     inkscape:locked="true"
     inkscape:color="rgb(0,0,255)" /><sodipodi:guide
     position="225.05109,1693.3186"
     orientation="0,1"
     id="guide44"
     inkscape:label=""
     inkscape:locked="false"
     inkscape:color="rgb(0,0,255)" /><sodipodi:guide
     position="0,900"
     orientation="0,1"
     id="guide46"
     inkscape:label=""
     inkscape:locked="true"
     inkscape:color="rgb(0,0,255)" /><sodipodi:guide
     position="863.98306,931.81669"
     orientation="-1,0"
     id="guide841"
     inkscape:label="width"
     inkscape:locked="false"
     inkscape:color="rgb(0,0,255)" /><sodipodi:guide
     position="0,1000"
     orientation="0,1000"
     id="guide860" /><sodipodi:guide
     position="1000,1000"
     orientation="1000,0"
     id="guide862" /><sodipodi:guide
     position="1000,0"
     orientation="0,-1000"
     id="guide864" /><sodipodi:guide
     position="0,0"
     orientation="-1000,0"
     id="guide866" /></sodipodi:namedview>
 <defs
   id="defs4"><inkscape:path-effect
   effect="spiro"
   id="path-effect877"
   is_visible="true"
   lpeversion="1" /><inkscape:path-effect
   effect="spiro"
   id="path-effect862"
   is_visible="true"
   lpeversion="1" /><inkscape:path-effect
   effect="spiro"
   id="path-effect1521"
   is_visible="true"
   lpeversion="1" /><inkscape:path-effect
   effect="spiro"
   id="path-effect858"
   is_visible="true"
   lpeversion="1" /><inkscape:path-effect
   effect="spiro"
   id="path-effect854"
   is_visible="true"
   lpeversion="1" />
  <style
   type="text/css"
   id="style2">
   <![CDATA[
    .fil0 {fill:#EF7F1A;fill-rule:nonzero}
   ]]>
  </style>
 <inkscape:path-effect
   effect="spiro"
   id="path-effect1214"
   is_visible="true"
   lpeversion="1" /><inkscape:path-effect
   effect="spiro"
   id="path-effect1195"
   is_visible="true"
   lpeversion="1" /><inkscape:path-effect
   effect="spiro"
   id="path-effect992"
   is_visible="true"
   lpeversion="1" /><inkscape:path-effect
   effect="spiro"
   id="path-effect287"
   is_visible="true"
   lpeversion="1" /><inkscape:path-effect
   effect="spiro"
   id="path-effect1032"
   is_visible="true"
   lpeversion="1" /><inkscape:path-effect
   effect="spiro"
   id="path-effect1218"
   is_visible="true"
   lpeversion="1" /><inkscape:path-effect
   effect="spiro"
   id="path-effect309"
   is_visible="true"
   lpeversion="1" /><inkscape:path-effect
   effect="spiro"
   id="path-effect1176"
   is_visible="true"
   lpeversion="1" /><inkscape:path-effect
   effect="spiro"
   id="path-effect1026"
   is_visible="true"
   lpeversion="1" /><inkscape:path-effect
   effect="spiro"
   id="path-effect1030"
   is_visible="true"
   lpeversion="1" /></defs>
 
<path
   style="fill:#2d2d2d;fill-rule:nonzero;stroke:none;stroke-width:1.70778px;stroke-linecap:butt;stroke-linejoin:miter;stroke-opacity:1"
   d="M 321.94794,721.57391 114.80421,843.30786 c 5.77704,-46.06536 6.81841,-92.72326 3.10238,-139.0005 C 113.33107,647.3265 101.49622,590.81584 81.223359,537.36713 61.817898,486.20529 34.797321,438.03473 17.950847,385.97416 2.0677159,336.89061 -4.4778191,284.32309 3.0954276,233.29256 6.791912,208.38467 13.915163,183.75158 26.472289,161.92532 c 12.557127,-21.82625 30.79543,-40.76578 53.396956,-51.86703 28.178725,-13.840619 61.831125,-14.65305 91.767725,-5.19773 29.93661,9.45532 56.25822,28.61289 77.07745,52.11103 31.6265,35.69604 51.14867,81.92957 54.67731,129.48996 7.11283,-24.62541 17.33663,-48.35047 30.35138,-70.43258 16.23928,-27.55317 37.22157,-52.8814 64.08013,-70.24541 37.05488,-23.95591 85.1108,-31.04219 126.79078,-16.56016 26.19149,9.10044 49.24475,26.15373 67.43378,47.08149 18.18904,20.92776 31.67794,45.64223 41.69637,71.4965 21.85813,56.40865 27.40652,118.59464 19.17023,178.52691 -11.90275,86.61173 -52.94024,169.14164 -115.63133,230.0768 -13.42798,13.05187 -28.01162,25.2637 -44.92352,33.30421 -16.9119,8.04051 -36.45339,11.6517 -54.60519,7.05017 -19.35369,-4.90621 -35.59012,-18.77757 -46.59221,-35.43862 -11.00208,-16.66105 -17.25688,-36.00304 -21.83818,-55.43621 -12.89423,-54.69529 -13.35041,-112.40171 -0.32423,-167.06573 13.84764,-58.11128 42.55233,-111.93012 78.04563,-159.98117 29.38579,-39.78266 63.58488,-76.04069 101.86949,-107.3532 26.84359,-21.95504 55.88085,-41.58336 87.77658,-55.19456 31.89572,-13.6112 66.82601,-21.05328 101.3903,-18.240415 21.40506,1.741958 42.60589,7.457835 61.4152,17.822255 18.80931,10.36441 35.15972,25.47349 45.92972,44.05354 11.68588,20.1601 16.51008,43.74643 16.98655,67.04369 0.47647,23.29726 -3.20503,46.47385 -7.57776,69.36203 -30.16427,157.88886 -95.17018,310.69656 -198.82424,433.55669 -33.60858,39.83591 -71.10706,76.38838 -111.78855,108.96832 68.9977,18.45397 142.18864,21.03923 212.31643,7.49947 C 802.39156,837.50271 846.92042,821.82553 888.20563,800 l -1.47482,154.01199 c -29.03341,5.4534 -58.63273,7.88902 -88.16705,7.25497 -100.31843,-2.15367 -198.1133,-39.46649 -298.37906,-35.56738 -39.35184,1.5303 -78.44688,9.48023 -115.27115,23.44024 l -2.3053,-118.37095 c 17.03165,-5.78925 33.76186,-12.46517 50.10027,-19.99171 66.79211,-30.76881 126.83321,-75.86092 175.7439,-130.77585 74.74663,-83.92247 122.95834,-190.6149 139.41252,-301.78729 3.59647,-24.2995 5.71018,-49.14569 1.59577,-73.36288 -4.11442,-24.21718 -15.00047,-47.96406 -33.80647,-63.76707 -16.27061,-13.67248 -37.59766,-20.59777 -58.83644,-21.36191 -21.23877,-0.76415 -42.40269,4.34569 -61.98557,12.60284 -45.76012,19.29482 -82.94767,55.34726 -110.88305,96.40689 -18.19501,26.74316 -32.97386,56.05859 -41.17762,87.34683 -8.20375,31.28823 -9.66182,64.63636 -1.73795,95.99665 2.33591,9.24484 5.53359,18.41247 10.94664,26.26246 5.41305,7.85 13.25429,14.3273 22.50801,16.6278 5.47757,1.36174 11.28324,1.22324 16.77006,-0.10074 5.48682,-1.32399 10.66035,-3.81154 15.30522,-7.0183 9.28973,-6.41352 16.35652,-15.54956 22.45322,-25.05023 16.86476,-26.28084 27.3498,-56.26989 33.73016,-86.83774 4.54363,-21.76822 7.0765,-44.03232 6.23625,-66.2538 -0.6356,-16.80915 -3.22591,-33.63134 -8.84857,-49.48496 -5.62265,-15.85361 -14.35176,-30.73563 -26.32429,-42.55129 -15.33862,-15.13766 -35.86038,-24.86725 -57.26051,-27.4082 -21.40013,-2.54094 -43.55103,2.07926 -62.2759,12.74702 -17.29447,9.85285 -31.50417,24.60928 -42.30019,41.33122 -10.79602,16.72194 -18.3023,35.39135 -23.92717,54.48423 -10.95823,37.1963 -14.93361,76.18988 -14.90523,114.96676 0.0251,34.29671 3.1468,68.59055 9.3147,102.3281 l -120.97668,-0.31265 c 19.607,-46.36025 29.67316,-96.73108 29.38988,-147.06622 -0.10437,-18.54445 -1.62118,-37.21638 -6.67148,-55.0602 -5.0503,-17.84382 -13.79109,-34.90022 -26.93052,-47.98696 -11.79514,-11.74784 -27.15445,-20.09256 -43.61715,-22.56578 -16.46269,-2.47322 -33.94949,1.14554 -47.5131,10.79778 -15.47125,11.00977 -24.95842,29.0445 -28.609022,47.67908 -3.650598,18.63459 -1.958135,37.92964 1.439542,56.612 12.86964,70.76459 49.79337,135.45084 96.20236,190.40046 36.64309,43.38651 79.46845,81.5437 126.7781,112.9587 z"
   id="path875"
   inkscape:path-effect="#path-effect877"
   inkscape:original-d="M 321.94794,721.57391 114.80421,843.30786 c 0,0 7.59047,-92.87329 3.10238,-139.0005 C 112.38914,647.60078 98.391403,591.69333 81.223359,537.36713 64.74235,485.21497 31.293257,439.01614 17.950847,385.97416 5.4769172,336.38477 -8.5660469,283.07927 3.0954276,233.29256 14.132792,186.17039 34.76995,127.61893 79.869245,110.05829 c 54.432945,-21.194959 124.973055,8.34635 168.845175,46.9133 35.18967,30.93441 54.67731,129.48996 54.67731,129.48996 0,0 16.48694,-48.95404 30.35138,-70.43258 17.18866,-26.62836 35.97591,-55.5937 64.08013,-70.24541 37.79478,-19.70374 86.73036,-31.11508 126.79078,-16.56016 50.48842,18.34366 86.95926,69.64925 109.13015,118.57799 24.70241,54.51552 29.84815,119.63606 19.17023,178.52691 -15.31334,84.45607 -52.54484,171.87524 -115.63133,230.0768 -26.31227,24.27486 -65.02699,49.90611 -99.52871,40.35438 -36.54481,-10.11735 -56.36963,-54.92456 -68.43039,-90.87483 -17.71249,-52.79675 -12.80121,-112.79277 -0.32423,-167.06573 13.29379,-57.82596 44.22366,-111.23037 78.04563,-159.98117 28.11994,-40.53192 60.90424,-79.86838 101.86949,-107.3532 56.1693,-37.68567 121.72346,-78.591137 189.16688,-73.434975 41.18028,3.148305 85.46336,26.848315 107.34492,61.875795 24.14713,38.65415 17.59314,91.56998 9.40879,136.40572 -28.55054,156.40627 -107.21359,303.61231 -198.82424,433.55669 -29.98386,42.53037 -67.72355,91.00827 -111.78855,108.96832 10.29398,23.72746 142.31241,18.19444 212.31643,7.49947 C 802.53486,839.3285 888.20563,800 888.20563,800 l -1.47482,154.01199 c 0,0 -58.68362,7.7937 -88.16705,7.25497 -100.14709,-1.82992 -198.29937,-39.6715 -298.37906,-35.56738 -39.17717,1.6066 -115.27115,23.44024 -115.27115,23.44024 l -2.3053,-118.37095 c 29.72766,25.72396 34.40522,-11.21867 50.10027,-19.99171 63.73904,-35.62811 131.23201,-78.72249 175.7439,-130.77585 72.01651,-84.21798 128.23729,-191.54138 139.41252,-301.78729 4.7353,-46.71467 3.51266,-106.65824 -32.2107,-137.12995 -30.72149,-26.20515 -82.51323,-21.52453 -120.82201,-8.75907 -46.46583,15.4836 -85.5958,54.46204 -110.88305,96.40689 -32.40636,53.75358 -56.38318,122.03897 -42.91557,183.34348 3.89044,17.70928 15.64147,39.50721 33.45465,42.89026 20.7329,3.93757 40.86649,-16.0849 54.5285,-32.16927 20.10304,-23.66744 26.58521,-56.61806 33.73016,-86.83774 5.10391,-21.58705 9.23479,-44.27519 6.23625,-66.2538 -4.4396,-32.54127 -9.3061,-71.79877 -35.17286,-92.03625 -31.61724,-24.73651 -82.91382,-31.10292 -119.53641,-14.66118 -35.41956,15.90164 -52.3012,59.57363 -66.22736,95.81545 -13.86075,36.07159 -14.16814,76.3308 -14.90523,114.96676 -0.65331,34.24416 9.3147,102.3281 9.3147,102.3281 l -120.97668,-0.31265 c 0,0 32.33689,-97.16178 29.38988,-147.06622 -2.12982,-36.06628 -5.78371,-79.99385 -33.602,-103.04716 -23.58336,-19.54378 -65.74366,-28.90437 -91.13025,-11.768 -29.775341,20.09885 -30.988126,68.57061 -27.16948,104.29108 7.55864,70.70521 52.86288,134.02628 96.20236,190.40046 34.49718,44.87248 126.7781,112.9587 126.7781,112.9587 z"
   sodipodi:nodetypes="ccaaaaaacaaaaaaaaaaaaaaacaccaaccasaaaaaaaaaaaaaccaaaaac" /></svg>
