<?xml version="1.0" encoding="UTF-8" standalone="no"?>
<svg
   xmlns:dc="http://purl.org/dc/elements/1.1/"
   xmlns:cc="http://creativecommons.org/ns#"
   xmlns:rdf="http://www.w3.org/1999/02/22-rdf-syntax-ns#"
   xmlns:svg="http://www.w3.org/2000/svg"
   xmlns="http://www.w3.org/2000/svg"
   xmlns:sodipodi="http://sodipodi.sourceforge.net/DTD/sodipodi-0.dtd"
   xmlns:inkscape="http://www.inkscape.org/namespaces/inkscape"
   xml:space="preserve"
   width="1000"
   height="1000"
   version="1.1"
   style="clip-rule:evenodd;fill-rule:evenodd;image-rendering:optimizeQuality;shape-rendering:geometricPrecision;text-rendering:geometricPrecision"
   viewBox="0 0 1000 1000"
   id="svg10"
   sodipodi:docname="ന്ത.svg"
   inkscape:version="1.0.2 (e86c870879, 2021-01-15)"><metadata
   id="metadata14"><rdf:RDF><cc:Work
       rdf:about=""><dc:format>image/svg+xml</dc:format><dc:type
         rdf:resource="http://purl.org/dc/dcmitype/StillImage" /><dc:title /></cc:Work></rdf:RDF></metadata><sodipodi:namedview
   pagecolor="#ffffff"
   bordercolor="#666666"
   borderopacity="1"
   objecttolerance="10"
   gridtolerance="10"
   guidetolerance="10"
   inkscape:pageopacity="0"
   inkscape:pageshadow="2"
   inkscape:window-width="1920"
   inkscape:window-height="1007"
   id="namedview12"
   showgrid="false"
   inkscape:zoom="0.678"
   inkscape:cx="451.99968"
   inkscape:cy="463.0375"
   inkscape:window-x="1920"
   inkscape:window-y="0"
   inkscape:window-maximized="1"
   inkscape:current-layer="svg10"
   showguides="true"
   inkscape:guide-bbox="true"
   inkscape:document-rotation="0"
   inkscape:snap-to-guides="true"><sodipodi:guide
     position="0,1000"
     orientation="0,1"
     id="guide16"
     inkscape:label=""
     inkscape:locked="true"
     inkscape:color="rgb(0,0,255)" /><sodipodi:guide
     position="1763.3122,2036.1693"
     orientation="1000,0"
     id="guide18" /><sodipodi:guide
     position="0,200"
     orientation="0,1"
     id="guide20"
     inkscape:label="base"
     inkscape:locked="true"
     inkscape:color="rgb(0,0,255)" /><inkscape:grid
     type="xygrid"
     id="grid24"
     originx="-473.37552"
     originy="-489.69235" /><sodipodi:guide
     position="0,0"
     orientation="0,1"
     id="guide34"
     inkscape:label="bottom"
     inkscape:locked="true"
     inkscape:color="rgb(0,0,255)" /><sodipodi:guide
     position="225.05109,1693.3186"
     orientation="0,1"
     id="guide44"
     inkscape:label=""
     inkscape:locked="false"
     inkscape:color="rgb(0,0,255)" /><sodipodi:guide
     position="0,900"
     orientation="0,1"
     id="guide46"
     inkscape:label=""
     inkscape:locked="true"
     inkscape:color="rgb(0,0,255)" /><sodipodi:guide
     position="906.55968,922.64366"
     orientation="-1,0"
     id="guide841"
     inkscape:label="width"
     inkscape:locked="false"
     inkscape:color="rgb(0,0,255)" /><sodipodi:guide
     position="0,1000"
     orientation="0,1000"
     id="guide860" /><sodipodi:guide
     position="1000,1000"
     orientation="1000,0"
     id="guide862" /><sodipodi:guide
     position="1000,0"
     orientation="0,-1000"
     id="guide864" /><sodipodi:guide
     position="0,0"
     orientation="-1000,0"
     id="guide866" /></sodipodi:namedview>
 <defs
   id="defs4"><inkscape:path-effect
   effect="fillet_chamfer"
   id="path-effect860"
   is_visible="true"
   lpeversion="1"
   satellites_param="F,0,1,1,0,33.688233,0,1 @ F,0,1,1,0,33.688233,0,1 @ F,0,0,1,0,0,0,1 @ F,0,0,1,0,0,0,1 @ F,0,0,1,0,0,0,1 @ F,0,0,1,0,0,0,1 @ F,0,0,1,0,0,0,1 @ F,0,0,1,0,0,0,1 @ F,0,0,1,0,0,0,1 @ F,0,0,1,0,0,0,1 @ F,0,0,1,0,0,0,1 @ F,0,0,1,0,0,0,1 @ F,0,0,1,0,0,0,1 @ F,0,0,1,0,0,0,1 @ F,0,0,1,0,0,0,1 @ F,0,0,1,0,0,0,1 @ F,0,0,1,0,0,0,1 @ F,0,0,1,0,0,0,1 @ F,0,0,1,0,0,0,1 @ F,0,0,1,0,0,0,1 @ F,0,0,1,0,0,0,1 @ F,0,0,1,0,0,0,1 @ F,0,0,1,0,0,0,1 @ F,0,0,1,0,0,0,1 @ F,0,0,1,0,0,0,1 @ F,0,0,1,0,0,0,1 @ F,0,0,1,0,0,0,1 @ F,0,0,1,0,0,0,1 @ F,0,0,1,0,0,0,1 @ F,0,0,1,0,0,0,1 @ F,0,0,1,0,0,0,1 @ F,0,1,1,0,33.688233,0,1 @ F,0,1,1,0,33.688233,0,1 @ F,0,0,1,0,0,0,1 @ F,0,0,1,0,0,0,1 @ F,0,0,1,0,0,0,1 @ F,0,0,1,0,0,0,1 @ F,0,0,1,0,0,0,1 @ F,0,0,1,0,0,0,1 @ F,0,0,1,0,0,0,1 @ F,0,0,1,0,0,0,1 @ F,0,0,1,0,0,0,1 @ F,0,0,1,0,0,0,1 @ F,0,0,1,0,0,0,1 @ F,0,0,1,0,0,0,1 @ F,0,0,1,0,0,0,1 @ F,0,0,1,0,0,0,1 @ F,0,0,1,0,0,0,1 @ F,0,0,1,0,0,0,1 @ F,0,0,1,0,0,0,1 @ F,0,0,1,0,0,0,1 @ F,0,0,1,0,0,0,1 @ F,0,0,1,0,0,0,1 @ F,0,1,1,0,33.688233,0,1 @ F,0,1,1,0,33.688233,0,1 @ F,0,0,1,0,0,0,1 @ F,0,0,1,0,0,0,1 @ F,0,0,1,0,0,0,1 @ F,0,0,1,0,0,0,1 @ F,0,0,1,0,0,0,1 @ F,0,0,1,0,0,0,1 @ F,0,0,1,0,0,0,1 @ F,0,0,1,0,0,0,1 @ F,0,0,1,0,0,0,1"
   unit="px"
   method="auto"
   mode="F"
   radius="0"
   chamfer_steps="1"
   flexible="false"
   use_knot_distance="true"
   apply_no_radius="true"
   apply_with_radius="true"
   only_selected="true"
   hide_knots="false" /><inkscape:path-effect
   effect="fillet_chamfer"
   id="path-effect859"
   is_visible="true"
   lpeversion="1"
   satellites_param="F,0,0,1,0,20.455059,0,1 @ F,0,0,1,0,26.594509,0,1 @ F,0,0,1,0,0,0,1 @ F,0,0,1,0,0,0,1 @ F,0,0,1,0,0,0,1 @ F,0,0,1,0,0,0,1 @ F,0,0,1,0,0,0,1 @ F,0,0,1,0,0,0,1 @ F,0,0,1,0,0,0,1 @ F,0,0,1,0,0,0,1 @ F,0,0,1,0,0,0,1 @ F,0,0,1,0,0,0,1 @ F,0,0,1,0,0,0,1 @ F,0,0,1,0,0,0,1 @ F,0,0,1,0,0,0,1 @ F,0,0,1,0,0,0,1 @ F,0,0,1,0,0,0,1 @ F,0,0,1,0,0,0,1 @ F,0,0,1,0,0,0,1 @ F,0,0,1,0,0,0,1 @ F,0,0,1,0,0,0,1 @ F,0,0,1,0,0,0,1 @ F,0,0,1,0,0,0,1 @ F,0,0,1,0,0,0,1 @ F,0,0,1,0,0,0,1 @ F,0,0,1,0,0,0,1 @ F,0,0,1,0,0,0,1 @ F,0,0,1,0,0,0,1 @ F,0,0,1,0,0,0,1 @ F,0,0,1,0,0,0,1 @ F,0,0,1,0,0,0,1 @ F,0,0,1,0,0,0,1 @ F,0,0,1,0,25.345363,0,1 @ F,0,0,1,0,35.048981,0,1 @ F,0,0,1,0,0,0,1 @ F,0,0,1,0,0,0,1 @ F,0,0,1,0,0,0,1 @ F,0,0,1,0,0,0,1 @ F,0,0,1,0,0,0,1 @ F,0,0,1,0,0,0,1 @ F,0,0,1,0,0,0,1 @ F,0,0,1,0,0,0,1 @ F,0,0,1,0,0,0,1 @ F,0,0,1,0,0,0,1 @ F,0,0,1,0,0,0,1 @ F,0,0,1,0,0,0,1 @ F,0,0,1,0,0,0,1 @ F,0,0,1,0,0,0,1 @ F,0,0,1,0,0,0,1 @ F,0,0,1,0,0,0,1 @ F,0,0,1,0,0,0,1 @ F,0,0,1,0,0,0,1 @ F,0,0,1,0,0,0,1 @ F,0,0,1,0,0,0,1 @ F,0,0,1,0,0,0,1 @ F,0,0,1,0,35.075848,0,1 @ F,0,0,1,0,31.00169,0,1 @ F,0,0,1,0,0,0,1 @ F,0,0,1,0,0,0,1 @ F,0,0,1,0,0,0,1 @ F,0,0,1,0,0,0,1 @ F,0,0,1,0,0,0,1 @ F,0,0,1,0,0,0,1 @ F,0,0,1,0,0,0,1 @ F,0,0,1,0,0,0,1 @ F,0,0,1,0,0,0,1"
   unit="px"
   method="auto"
   mode="F"
   radius="0"
   chamfer_steps="1"
   flexible="false"
   use_knot_distance="true"
   apply_no_radius="true"
   apply_with_radius="true"
   only_selected="true"
   hide_knots="false" /><inkscape:path-effect
   effect="spiro"
   id="path-effect877"
   is_visible="true"
   lpeversion="1" /><inkscape:path-effect
   effect="spiro"
   id="path-effect862"
   is_visible="true"
   lpeversion="1" /><inkscape:path-effect
   effect="spiro"
   id="path-effect1521"
   is_visible="true"
   lpeversion="1" /><inkscape:path-effect
   effect="spiro"
   id="path-effect858"
   is_visible="true"
   lpeversion="1" /><inkscape:path-effect
   effect="spiro"
   id="path-effect854"
   is_visible="true"
   lpeversion="1" />
  <style
   type="text/css"
   id="style2">
   <![CDATA[
    .fil0 {fill:#EF7F1A;fill-rule:nonzero}
   ]]>
  </style>
 <inkscape:path-effect
   effect="spiro"
   id="path-effect1214"
   is_visible="true"
   lpeversion="1" /><inkscape:path-effect
   effect="spiro"
   id="path-effect1195"
   is_visible="true"
   lpeversion="1" /><inkscape:path-effect
   effect="spiro"
   id="path-effect992"
   is_visible="true"
   lpeversion="1" /><inkscape:path-effect
   effect="spiro"
   id="path-effect287"
   is_visible="true"
   lpeversion="1" /><inkscape:path-effect
   effect="spiro"
   id="path-effect1032"
   is_visible="true"
   lpeversion="1" /><inkscape:path-effect
   effect="spiro"
   id="path-effect1218"
   is_visible="true"
   lpeversion="1" /><inkscape:path-effect
   effect="spiro"
   id="path-effect309"
   is_visible="true"
   lpeversion="1" /><inkscape:path-effect
   effect="spiro"
   id="path-effect1176"
   is_visible="true"
   lpeversion="1" /><inkscape:path-effect
   effect="spiro"
   id="path-effect1026"
   is_visible="true"
   lpeversion="1" /><inkscape:path-effect
   effect="spiro"
   id="path-effect1030"
   is_visible="true"
   lpeversion="1" /></defs>
 
<path
   style="fill:#000000;fill-rule:nonzero;stroke:none;stroke-width:1.70778px;stroke-linecap:butt;stroke-linejoin:miter;stroke-opacity:1"
   d="m 264.71233,793.28996 -80.0209,24.8904 c -17.7659,5.52605 -36.16189,-4.54119 -41.5606,-22.34575 -8.89718,-29.34225 -18.74341,-58.39675 -29.51882,-87.10247 C 93.390294,654.86144 69.904708,602.2346 50.74128,547.97842 32.21388,495.52299 17.71612,441.35224 12.414683,385.97416 7.5381645,335.03471 10.521364,283.36048 21.095428,233.29256 c 5.179949,-24.52693 12.26808,-48.9086 24.457847,-70.81321 12.189767,-21.9046 29.839894,-41.32025 52.31597,-52.42106 26.651015,-13.162794 58.572305,-13.655129 86.859055,-4.523 28.28675,9.13214 53.09183,27.30592 73.12324,49.26676 36.00142,39.46907 57.3656,91.99638 59.13342,145.38912 9.89525,-28.04492 23.85322,-54.65277 41.30278,-78.73484 26.13016,-36.06213 61.15714,-66.98119 103.31233,-81.34094 32.9712,-11.23131 70.04314,-11.67973 102.23736,1.61594 34.58901,14.28468 61.63334,43.44843 78.787,76.70807 17.15365,33.25964 25.18465,70.50736 29.55346,107.67408 6.48872,55.20147 5.1554,111.93058 -10.34479,165.30707 -15.50019,53.3765 -45.90125,103.32343 -90.29962,136.76129 -14.96922,11.27381 -31.63365,20.70249 -49.8254,25.20101 -18.19175,4.49853 -38.05625,3.76762 -54.91796,-4.40913 -13.24405,-6.42243 -24.10935,-17.14122 -32.18824,-29.44505 -8.07889,-12.30382 -13.51002,-26.17435 -17.64533,-40.30063 -13.28621,-45.38587 -13.51081,-94.09366 -3.95681,-140.40912 21.97627,-106.53559 93.45847,-196.83263 175.74961,-267.97303 23.82306,-20.59495 48.97462,-40.11766 77.41752,-53.63399 28.4429,-13.51633 60.58907,-20.768228 91.69369,-15.84966 21.88513,3.46069 42.66637,12.87702 60.37989,26.18743 17.71351,13.31041 32.40556,30.44302 43.82829,49.42872 25.53125,42.43543 34.43733,93.38779 32.14929,142.85875 -2.28804,49.47096 -15.19028,97.85577 -30.75321,144.87072 -30.79078,93.01765 -72.15286,182.14161 -107.26651,273.61503 -9.74426,25.38445 -19.00836,50.95322 -27.78582,76.68797 -6.00606,17.60923 -24.91166,27.13129 -42.53445,21.16456 l -74.93537,-25.37169 c -17.62279,-5.96673 -21.25332,-21.48599 -8.62959,-35.15245 22.47856,-24.33529 43.72353,-49.8101 63.62364,-76.29555 33.07031,-44.01394 62.44603,-90.86245 86.73062,-140.27025 28.65931,-58.3083 50.43627,-121.64828 49.63806,-186.61425 -0.33626,-27.36788 -4.81095,-55.02998 -16.42225,-79.81488 -11.61131,-24.7849 -30.79346,-46.55996 -55.55293,-58.22539 -28.31016,-13.33833 -61.98089,-12.5039 -91.49799,-2.10596 -47.01007,16.56016 -83.10265,55.02531 -110.88305,96.40689 -31.72793,47.26181 -55.56193,101.89545 -55.61808,158.81941 -0.0121,12.31239 1.13153,24.81694 5.59236,36.29283 4.46082,11.47589 12.55583,21.90663 23.66724,27.21057 6.6724,3.18502 14.21077,4.41917 21.58618,3.90094 7.37541,-0.51823 14.58595,-2.75591 21.14302,-6.17206 13.11414,-6.8323 23.39717,-18.16068 31.57849,-30.47843 17.85964,-26.88939 26.72805,-59.18767 28.01878,-91.44198 1.92621,-48.13468 -13.34235,-97.41177 -45.00147,-133.72097 -10.86349,-12.45911 -23.62684,-23.40396 -38.23158,-31.14648 -14.60473,-7.74253 -31.10994,-12.19992 -47.62999,-11.62283 -27.2098,0.9505 -52.77581,15.63612 -70.79462,36.04688 -18.01881,20.41076 -29.12664,46.11504 -36.21297,72.40307 -13.40208,49.71742 -13.23708,102.24589 -6.96022,153.354 2.56385,20.87565 6.13016,41.62808 10.68014,62.16253 4.02451,18.16293 -6.92749,33.62583 -25.49712,34.78063 l -69.21576,4.30439 c -18.56963,1.1548 -27.44004,-11.69784 -21.36678,-29.27898 8.35654,-24.19084 14.51951,-49.13977 18.37172,-74.44191 10.12762,-66.52039 3.59004,-137.02844 -28.01593,-196.43041 -10.28264,-19.32576 -23.44157,-37.64225 -41.33941,-50.2472 -8.94892,-6.30248 -19.02085,-11.09554 -29.69261,-13.52821 -10.67176,-2.43267 -21.94952,-2.46187 -32.50169,0.44607 -11.01971,3.03678 -21.06685,9.22803 -29.20486,17.25479 -8.138,8.02676 -14.403636,17.84931 -18.868934,28.37153 -8.930596,21.04444 -10.644831,44.4499 -10.083723,67.30398 2.121024,86.38988 35.027707,169.52043 78.646377,244.12017 31.8831,54.52874 69.70279,105.58195 112.5556,151.98752 12.62164,13.66805 8.92489,28.78217 -8.84101,34.30822 z"
   id="path875"
   inkscape:path-effect="#path-effect877;#path-effect860"
   inkscape:original-d="m 296.88034,783.28415 -144.35692,44.90202 c 0,0 -24.79369,-80.02819 -38.91141,-119.45403 C 94.215097,654.56335 67.885179,602.90187 50.74128,547.97842 34.206681,495.00697 17.278209,441.25267 12.414683,385.97416 7.946954,335.19426 5.69173,281.88561 21.095428,233.29256 35.719963,187.15748 52.755045,127.58061 97.869245,110.05829 c 51.617195,-20.048075 118.667805,7.87409 159.982295,44.74376 39.0347,34.83515 59.13342,145.38912 59.13342,145.38912 0,0 22.35853,-55.94319 41.30278,-78.73484 28.0168,-33.70677 61.78475,-67.32141 103.31233,-81.34094 32.2928,-10.9019 72.79008,-15.54606 102.23736,1.61594 61.58898,35.89431 100.88252,113.48798 108.34046,184.38215 11.10356,105.54883 -21.0343,231.88237 -100.64441,302.06836 -26.70068,23.53989 -71.65037,33.90321 -104.74336,20.79188 -26.56424,-10.52466 -40.7293,-42.66175 -49.83357,-69.74568 -14.91876,-44.38124 -16.72294,-95.36148 -3.95681,-140.40912 29.12537,-102.77423 93.36966,-199.97029 175.74961,-267.97303 46.99889,-38.7965 108.59862,-76.7149 169.11121,-69.48365 42.61423,5.0924 84.6199,37.4297 104.20818,75.61615 43.77547,85.33826 18.98052,193.44428 1.39608,287.72947 -17.96073,96.30276 -73.05831,181.81847 -107.26651,273.61503 -13.41439,35.99707 -38.41139,108.65626 -38.41139,108.65626 L 579.03379,800 c 0,0 60.68185,-64.90838 86.90293,-100.64427 32.52074,-44.3215 64.97571,-89.78543 86.73062,-140.27025 25.4729,-59.11289 56.72513,-122.63789 49.63806,-186.61425 -5.71352,-51.57707 -27.91523,-110.62569 -71.97518,-138.04027 -25.90265,-16.11691 -62.80198,-12.46169 -91.49799,-2.10596 -46.06961,16.62547 -83.39067,55.87315 -110.88305,96.40689 -31.4859,46.42164 -58.27901,102.7904 -55.61808,158.81941 1.10563,23.28043 7.46308,55.25037 29.2596,63.5034 25.31428,9.585 56.3274,-12.51606 74.30769,-32.74955 21.17623,-23.82994 28.45391,-59.56551 28.01878,-91.44198 -0.64193,-47.02567 -14.10953,-98.25954 -45.00147,-133.72097 -21.00275,-24.10944 -54.32103,-48.02045 -85.86157,-42.76931 -50.09543,8.34031 -86.66974,61.91518 -107.00759,108.44995 -20.4923,46.88815 -10.804,102.32795 -6.96022,153.354 2.42124,32.1418 18.8063,94.8522 18.8063,94.8522 l -136.46232,8.48631 c 0,0 28.0584,-69.18339 30.62822,-105.81185 4.62891,-65.97724 8.32691,-141.17085 -28.01593,-196.43041 -22.22984,-33.80063 -64.57789,-74.24227 -103.53371,-63.32934 -40.772313,11.42179 -54.691458,70.73047 -58.157517,112.9303 -6.998271,85.20506 38.852157,168.45447 78.646377,244.12017 34.53513,65.66595 135.8826,176.28993 135.8826,176.28993 z"
   sodipodi:nodetypes="ccaaaaaacaaaaaaaaaaaaaccaaaaaaaaaaaaaaccaaaaac" /></svg>
