<?xml version="1.0" encoding="UTF-8" standalone="no"?>
<svg
   xmlns:dc="http://purl.org/dc/elements/1.1/"
   xmlns:cc="http://creativecommons.org/ns#"
   xmlns:rdf="http://www.w3.org/1999/02/22-rdf-syntax-ns#"
   xmlns:svg="http://www.w3.org/2000/svg"
   xmlns="http://www.w3.org/2000/svg"
   xmlns:sodipodi="http://sodipodi.sourceforge.net/DTD/sodipodi-0.dtd"
   xmlns:inkscape="http://www.inkscape.org/namespaces/inkscape"
   xml:space="preserve"
   width="1000"
   height="1000"
   version="1.1"
   style="clip-rule:evenodd;fill-rule:evenodd;image-rendering:optimizeQuality;shape-rendering:geometricPrecision;text-rendering:geometricPrecision"
   viewBox="0 0 1000 1000"
   id="svg10"
   sodipodi:docname="ന്നൂ.svg"
   inkscape:version="1.0.1 (3bc2e813f5, 2020-09-07)"><metadata
   id="metadata14"><rdf:RDF><cc:Work
       rdf:about=""><dc:format>image/svg+xml</dc:format><dc:type
         rdf:resource="http://purl.org/dc/dcmitype/StillImage" /><dc:title /></cc:Work></rdf:RDF></metadata><sodipodi:namedview
   pagecolor="#ffffff"
   bordercolor="#666666"
   borderopacity="1"
   objecttolerance="10"
   gridtolerance="10"
   guidetolerance="10"
   inkscape:pageopacity="0"
   inkscape:pageshadow="2"
   inkscape:window-width="1920"
   inkscape:window-height="1015"
   id="namedview12"
   showgrid="false"
   inkscape:zoom="0.678"
   inkscape:cx="809.10306"
   inkscape:cy="556.53787"
   inkscape:window-x="1920"
   inkscape:window-y="0"
   inkscape:window-maximized="1"
   inkscape:current-layer="svg10"
   showguides="true"
   inkscape:guide-bbox="true"
   inkscape:document-rotation="0"
   inkscape:snap-to-guides="true"><sodipodi:guide
     position="0,1000"
     orientation="0,1"
     id="guide16"
     inkscape:label=""
     inkscape:locked="true"
     inkscape:color="rgb(0,0,255)" /><sodipodi:guide
     position="1763.3122,2036.1693"
     orientation="1000,0"
     id="guide18" /><sodipodi:guide
     position="0,200"
     orientation="0,1"
     id="guide20"
     inkscape:label="base"
     inkscape:locked="true"
     inkscape:color="rgb(0,0,255)" /><inkscape:grid
     type="xygrid"
     id="grid24"
     originx="-473.37552"
     originy="-489.69235" /><sodipodi:guide
     position="0,0"
     orientation="0,1"
     id="guide34"
     inkscape:label="bottom"
     inkscape:locked="true"
     inkscape:color="rgb(0,0,255)" /><sodipodi:guide
     position="225.05109,1693.3186"
     orientation="0,1"
     id="guide44"
     inkscape:label=""
     inkscape:locked="false"
     inkscape:color="rgb(0,0,255)" /><sodipodi:guide
     position="0,900"
     orientation="0,1"
     id="guide46"
     inkscape:label=""
     inkscape:locked="true"
     inkscape:color="rgb(0,0,255)" /><sodipodi:guide
     position="1092.9909,1000"
     orientation="-1,0"
     id="guide841"
     inkscape:label=""
     inkscape:locked="false"
     inkscape:color="rgb(0,0,255)" /><sodipodi:guide
     position="1092.9909,1000"
     orientation="0,1000"
     id="guide860" /><sodipodi:guide
     position="1000,1000"
     orientation="1000,0"
     id="guide862" /><sodipodi:guide
     position="1000,0"
     orientation="0,-1000"
     id="guide864" /><sodipodi:guide
     position="0,0"
     orientation="-1000,0"
     id="guide866" /></sodipodi:namedview>
 <defs
   id="defs4"><inkscape:path-effect
   effect="spiro"
   id="path-effect870"
   is_visible="true"
   lpeversion="1" /><inkscape:path-effect
   effect="spiro"
   id="path-effect862"
   is_visible="true"
   lpeversion="1" /><inkscape:path-effect
   effect="spiro"
   id="path-effect1521"
   is_visible="true"
   lpeversion="1" /><inkscape:path-effect
   effect="spiro"
   id="path-effect858"
   is_visible="true"
   lpeversion="1" /><inkscape:path-effect
   effect="spiro"
   id="path-effect854"
   is_visible="true"
   lpeversion="1" />
  <style
   type="text/css"
   id="style2">
   <![CDATA[
    .fil0 {fill:#EF7F1A;fill-rule:nonzero}
   ]]>
  </style>
 <inkscape:path-effect
   effect="spiro"
   id="path-effect1214"
   is_visible="true"
   lpeversion="1" /><inkscape:path-effect
   effect="spiro"
   id="path-effect1195"
   is_visible="true"
   lpeversion="1" /><inkscape:path-effect
   effect="spiro"
   id="path-effect992"
   is_visible="true"
   lpeversion="1" /><inkscape:path-effect
   effect="spiro"
   id="path-effect287"
   is_visible="true"
   lpeversion="1" /><inkscape:path-effect
   effect="spiro"
   id="path-effect1032"
   is_visible="true"
   lpeversion="1" /><inkscape:path-effect
   effect="spiro"
   id="path-effect1218"
   is_visible="true"
   lpeversion="1" /><inkscape:path-effect
   effect="spiro"
   id="path-effect309"
   is_visible="true"
   lpeversion="1" /><inkscape:path-effect
   effect="spiro"
   id="path-effect1176"
   is_visible="true"
   lpeversion="1" /><inkscape:path-effect
   effect="spiro"
   id="path-effect1026"
   is_visible="true"
   lpeversion="1" /><inkscape:path-effect
   effect="spiro"
   id="path-effect1255"
   is_visible="true"
   lpeversion="1" /><inkscape:path-effect
   effect="spiro"
   id="path-effect1033"
   is_visible="true"
   lpeversion="1" /><inkscape:path-effect
   effect="spiro"
   id="path-effect461"
   is_visible="true"
   lpeversion="1" /></defs>
 
<path
   style="display:inline;fill:#1a1a1a;fill-rule:nonzero;stroke:none;stroke-width:1.8927px;stroke-linecap:butt;stroke-linejoin:miter;stroke-opacity:1"
   d="m 878.94367,1000 c 54.58225,-7.77592 107.83453,-24.80481 156.80123,-50.14152 64.2407,-33.23989 121.4678,-81.38607 160.7108,-142.14579 39.243,-60.75971 59.7456,-134.42032 52.2026,-206.35682 -6.5897,-62.84534 -34.7828,-123.39844 -79.4234,-168.12176 -44.6406,-44.72331 -105.5404,-73.12046 -168.58,-77.47615 -53.25564,-3.67967 -107.41463,9.65387 -153.39427,36.77538 -45.97964,27.12151 -83.68253,67.81326 -108.12868,115.26945 -25.07065,48.6685 -36.19826,105.71437 -24.04553,159.09481 6.07636,26.69023 17.91524,52.15995 35.15113,73.42528 17.2359,21.26533 39.91474,38.23541 65.52616,47.89694 42.07703,15.87294 90.43157,11.13172 131.04191,-8.18736 40.61034,-19.31908 73.78158,-52.27038 97.98288,-90.17449 44.9256,-70.36245 59.7242,-157.63318 49.2033,-240.44923 -8.9238,-70.24473 -35.4573,-138.12529 -76.1333,-196.08583 -24.7603,-35.28179 -55.19156,-67.32512 -92.55515,-88.81557 -37.36358,-21.49046 -82.17894,-31.75849 -124.36721,-22.92519 -25.47646,5.33421 -49.26391,17.38923 -70.05316,33.05164 -20.78925,15.66242 -38.69855,34.87738 -54.71878,55.39216 -26.67236,34.15541 -48.37249,72.18732 -64.20553,112.52739 -9.78193,-18.40543 -24.86882,-33.95228 -42.97227,-44.28237 -18.10346,-10.3301 -39.16342,-15.40918 -59.98547,-14.46683 -26.57326,1.20263 -52.5804,12.35074 -71.77504,30.76678 -19.19464,18.41603 -31.40951,43.93953 -33.71086,70.44025 -11.51932,-76.83317 -45.48274,-150.16545 -96.63232,-208.64409 -19.61555,-22.4262 -41.97491,-42.90323 -68.23673,-56.97522 -26.26181,-14.072 -56.74617,-21.4263 -86.19793,-16.92095 -29.00126,4.43644 -55.559412,20.16327 -76.133086,41.07927 -20.573674,20.916 -35.518792,46.81186 -46.900935,73.85261 -41.40069,98.35631 -36.408988,211.57655 -5.412,313.69005 13.774927,45.3788 32.414396,89.11918 47.84137,133.96327 15.426973,44.84409 27.722011,91.40028 28.10901,138.82215 0.207211,25.39061 -3.025623,50.80706 -9.58248,75.33732 L 244.84673,800 C 194.33675,740.82415 155.00162,672.14267 129.51998,598.63263 104.66582,526.93274 92.99677,449.79615 103.2063,374.60061 c 3.29376,-24.2593 9.01002,-48.65155 21.50993,-69.70184 6.24995,-10.52514 14.17633,-20.1177 23.75137,-27.74391 9.57505,-7.62621 20.82721,-13.25094 32.81854,-15.71033 14.25093,-2.92283 29.27354,-1.29783 42.91762,3.74906 13.64408,5.04688 25.93531,13.42815 36.29849,23.63777 20.72637,20.41924 33.4885,47.5338 43.31126,74.92068 25.34206,70.6563 33.72378,146.90654 28.20456,221.76688 -4.52808,61.41698 -18.31409,122.14319 -40.7488,179.49502 L 423.08678,756 c -11.9156,-35.36842 -18.53563,-72.51582 -19.57157,-109.82311 -1.25805,-45.30629 5.69109,-90.59503 17.48842,-134.35649 5.98766,-22.21086 13.4704,-44.56429 27.48926,-62.80287 7.00943,-9.1193 15.62695,-17.09437 25.66689,-22.70626 10.03993,-5.61189 21.53674,-8.79794 33.03121,-8.38467 13.72359,0.49342 27.02636,6.12996 37.68642,14.78696 10.66006,8.65699 18.76296,20.21392 24.36488,32.75182 11.20384,25.0758 12.49023,53.31692 12.92747,80.77836 0.85017,53.39679 -0.8866,107.16488 -11.82455,159.4363 -4.65942,22.26694 -10.97698,44.18672 -18.8831,65.51792 L 694.31761,768 c -18.03015,-42.34975 -30.20585,-87.18726 -36.07289,-132.83992 -7.9413,-61.79291 -4.19876,-125.39097 14.00387,-184.97362 9.05817,-29.6501 21.72422,-58.35106 39.256,-83.92088 17.53178,-25.56981 40.04169,-47.96897 66.77949,-63.66192 31.25662,-18.34513 69.03355,-27.14135 104.42982,-19.35521 33.87316,7.4511 63.6034,29.79025 82.93197,58.5881 23.29432,34.70646 31.83121,77.32565 34.35413,119.04853 3.2387,53.56021 -2.95806,108.7289 -26.37042,157.00982 -12.10654,24.96607 -29.28496,48.3116 -53.05401,62.62611 -11.88452,7.15725 -25.29741,11.92149 -39.11871,13.12152 -13.82129,1.20002 -28.04072,-1.24386 -40.3458,-7.65114 -11.75053,-6.11853 -21.55745,-15.74669 -28.39793,-27.09214 -6.84048,-11.34545 -10.75633,-24.36145 -11.90216,-37.55988 -2.29166,-26.39685 6.42265,-52.87773 20.24443,-75.48313 22.15333,-36.23158 57.84247,-63.96339 98.42002,-76.49175 40.57754,-12.52837 85.68378,-9.74515 124.41868,7.66469 30.8875,13.88273 57.5238,36.74987 76.7842,64.60309 19.2605,27.85323 31.1986,60.57658 35.4385,94.17407 5.8144,46.07467 -3.0861,94.21892 -26.8278,134.13155 -23.7416,39.91263 -62.5101,71.06804 -107.2038,83.6838 -33.65526,9.49993 -70.20929,8.44223 -103.25894,-2.98783 z"
   id="use1033"
   sodipodi:nodetypes="caaaaaaaaaacacaaaaaccaaaaaccaaaaaccaaaaaaaaaaaacc"
   inkscape:path-effect="#path-effect870"
   inkscape:original-d="m 878.94367,1000 c 0,0 113.6514,-16.24032 156.80123,-50.14152 107.0454,-84.10157 229.3349,-213.36515 212.9134,-348.50261 -14.0346,-115.49472 -132.5954,-230.86721 -248.0034,-245.59791 -100.0249,-12.7672 -223.30671,58.7308 -261.52295,152.04483 -36.72428,89.67105 -10.65567,238.34001 76.63176,280.41703 74.84265,36.078 176.55667,-33.94028 229.02479,-98.36185 51.6637,-63.43378 56.0879,-158.92881 49.2033,-240.44923 -5.9004,-69.86701 -29.2323,-143.96562 -76.1333,-196.08583 -54.40686,-60.46148 -135.78734,-117.46895 -216.92236,-111.74076 -50.85309,3.59027 -90.53529,50.67107 -124.77194,88.4438 -29.00217,31.99762 -64.20553,112.52739 -64.20553,112.52739 0,0 -63.74329,-63.60038 -102.95774,-58.7492 -48.35979,5.98253 -75.54239,31.4851 -105.4859,101.20703 0,0 -42.77765,-154.10844 -96.63232,-208.64409 C 266.78393,135.76126 208.85335,93.799829 152.44805,102.47091 96.978069,110.9982 52.213229,166.1209 29.414029,217.40279 c -42.4847,95.56043 -18.6733,209.95535 -5.412,313.69005 11.9688,93.62518 69.1118,178.64637 75.95038,272.78542 1.834131,25.24823 -9.58248,75.33732 -9.58248,75.33732 L 244.84673,800 c 0,0 -91.10341,-127.90677 -115.32675,-201.36737 C 105.97327,527.224 85.074929,447.57248 103.2063,374.60061 c 11.05055,-44.47437 32.6735,-106.96344 78.07984,-113.15608 52.71991,-7.19009 96.98098,55.63344 122.52737,102.30751 35.77771,65.36703 31.80733,147.33628 28.20456,221.76688 -2.96634,61.28235 -40.7488,179.49502 -40.7488,179.49502 L 423.08678,756 c 0,0 -18.69927,-72.64888 -19.57157,-109.82311 -1.05948,-45.15087 -1.58617,-93.41894 17.48842,-134.35649 17.94316,-38.5093 43.94553,-98.42709 86.18736,-93.8938 49.25627,5.28607 63.8108,80.05329 74.97877,128.31714 12.01388,51.91955 -2.42443,106.9805 -11.82455,159.4363 -4.00906,22.3719 -18.8831,65.51792 -18.8831,65.51792 L 694.31761,768 c 0,0 -31.72978,-87.16239 -36.07289,-132.83992 -5.85294,-61.55669 -7.15789,-126.87316 14.00387,-184.97362 20.73086,-56.91738 54.89117,-115.12336 106.03549,-147.5828 29.89096,-18.9707 69.8489,-26.93919 104.42982,-19.35521 33.06078,7.25059 63.3116,31.00863 82.93197,58.5881 23.94227,33.65457 31.99007,77.81416 34.35413,119.04853 3.0376,52.98264 3.6956,116.22421 -26.37042,157.00982 -29.46895,39.97571 -88.39816,90.89716 -132.51852,68.09649 -41.92076,-21.66395 -45.30226,-100.2693 -20.05566,-140.13515 41.5939,-65.67918 149.24079,-93.87001 222.8387,-68.82706 61.3563,20.87751 110.1606,93.99904 112.2227,158.77716 2.7124,85.2068 -59.0192,177.30982 -134.0316,217.81535 -30.29891,16.36094 -106.79677,-5.23522 -103.25894,-2.98783 z" /></svg>
