<?xml version="1.0" encoding="UTF-8" standalone="no"?>
<svg
   xmlns:dc="http://purl.org/dc/elements/1.1/"
   xmlns:cc="http://creativecommons.org/ns#"
   xmlns:rdf="http://www.w3.org/1999/02/22-rdf-syntax-ns#"
   xmlns:svg="http://www.w3.org/2000/svg"
   xmlns="http://www.w3.org/2000/svg"
   xmlns:sodipodi="http://sodipodi.sourceforge.net/DTD/sodipodi-0.dtd"
   xmlns:inkscape="http://www.inkscape.org/namespaces/inkscape"
   xml:space="preserve"
   width="1000"
   height="1000"
   version="1.1"
   style="clip-rule:evenodd;fill-rule:evenodd;image-rendering:optimizeQuality;shape-rendering:geometricPrecision;text-rendering:geometricPrecision"
   viewBox="0 0 1000 1000"
   id="svg10"
   sodipodi:docname="നൂ.svg"
   inkscape:version="1.0.2 (e86c870879, 2021-01-15)"><metadata
   id="metadata14"><rdf:RDF><cc:Work
       rdf:about=""><dc:format>image/svg+xml</dc:format><dc:type
         rdf:resource="http://purl.org/dc/dcmitype/StillImage" /><dc:title /></cc:Work></rdf:RDF></metadata><sodipodi:namedview
   pagecolor="#ffffff"
   bordercolor="#666666"
   borderopacity="1"
   objecttolerance="10"
   gridtolerance="10"
   guidetolerance="10"
   inkscape:pageopacity="0"
   inkscape:pageshadow="2"
   inkscape:window-width="1920"
   inkscape:window-height="1009"
   id="namedview12"
   showgrid="false"
   inkscape:zoom="0.9588368"
   inkscape:cx="607.46414"
   inkscape:cy="505.33877"
   inkscape:window-x="1920"
   inkscape:window-y="0"
   inkscape:window-maximized="1"
   inkscape:current-layer="svg10"
   showguides="true"
   inkscape:guide-bbox="true"
   inkscape:document-rotation="0"
   inkscape:snap-to-guides="true"><sodipodi:guide
     position="0,1000"
     orientation="0,1"
     id="guide16"
     inkscape:label=""
     inkscape:locked="true"
     inkscape:color="rgb(0,0,255)" /><sodipodi:guide
     position="1763.3122,2036.1693"
     orientation="1000,0"
     id="guide18" /><sodipodi:guide
     position="0,200"
     orientation="0,1"
     id="guide20"
     inkscape:label="base"
     inkscape:locked="true"
     inkscape:color="rgb(0,0,255)" /><inkscape:grid
     type="xygrid"
     id="grid24"
     originx="-473.37552"
     originy="-489.69235" /><sodipodi:guide
     position="0,0"
     orientation="0,1"
     id="guide34"
     inkscape:label="bottom"
     inkscape:locked="true"
     inkscape:color="rgb(0,0,255)" /><sodipodi:guide
     position="225.05109,1693.3186"
     orientation="0,1"
     id="guide44"
     inkscape:label=""
     inkscape:locked="false"
     inkscape:color="rgb(0,0,255)" /><sodipodi:guide
     position="0,900"
     orientation="0,1"
     id="guide46"
     inkscape:label=""
     inkscape:locked="true"
     inkscape:color="rgb(0,0,255)" /><sodipodi:guide
     position="926.61586,336.16993"
     orientation="-1,0"
     id="guide841"
     inkscape:label="width"
     inkscape:locked="false"
     inkscape:color="rgb(0,0,255)" /><sodipodi:guide
     position="0,1000"
     orientation="0,1000"
     id="guide860" /><sodipodi:guide
     position="1000,1000"
     orientation="1000,0"
     id="guide862" /><sodipodi:guide
     position="1000,0"
     orientation="0,-1000"
     id="guide864" /><sodipodi:guide
     position="0,0"
     orientation="-1000,0"
     id="guide866" /></sodipodi:namedview>
 <defs
   id="defs4"><inkscape:path-effect
   effect="fillet_chamfer"
   id="path-effect859"
   is_visible="true"
   lpeversion="1"
   satellites_param="F,0,0,1,0,20.922676,0,1 @ F,0,0,1,0,0,0,1 @ F,0,0,1,0,0,0,1 @ F,0,0,1,0,0,0,1 @ F,0,0,1,0,0,0,1 @ F,0,0,1,0,0,0,1 @ F,0,0,1,0,0,0,1 @ F,0,0,1,0,0,0,1 @ F,0,0,1,0,0,0,1 @ F,0,0,1,0,0,0,1 @ F,0,0,1,0,0,0,1 @ F,0,0,1,0,0,0,1 @ F,0,0,1,0,0,0,1 @ F,0,0,1,0,0,0,1 @ F,0,0,1,0,0,0,1 @ F,0,0,1,0,0,0,1 @ F,0,0,1,0,0,0,1 @ F,0,0,1,0,0,0,1 @ F,0,0,1,0,0,0,1 @ F,0,0,1,0,0,0,1 @ F,0,0,1,0,0,0,1 @ F,0,0,1,0,0,0,1 @ F,0,0,1,0,0,0,1 @ F,0,0,1,0,0,0,1 @ F,0,0,1,0,0,0,1 @ F,0,0,1,0,0,0,1 @ F,0,0,1,0,0,0,1 @ F,0,0,1,0,0,0,1 @ F,0,0,1,0,0,0,1 @ F,0,0,1,0,20.922676,0,1 @ F,0,0,1,0,9.7878692,0,1 @ F,0,0,1,0,0,0,1 @ F,0,0,1,0,0,0,1 @ F,0,0,1,0,0,0,1 @ F,0,0,1,0,0,0,1 @ F,0,0,1,0,0,0,1 @ F,0,0,1,0,0,0,1 @ F,0,0,1,0,0,0,1 @ F,0,0,1,0,0,0,1 @ F,0,0,1,0,0,0,1 @ F,0,0,1,0,0,0,1 @ F,0,0,1,0,0,0,1 @ F,0,0,1,0,0,0,1 @ F,0,0,1,0,0,0,1 @ F,0,0,1,0,0,0,1 @ F,0,0,1,0,0,0,1 @ F,0,0,1,0,0,0,1 @ F,0,0,1,0,0,0,1 @ F,0,0,1,0,0,0,1 @ F,0,0,1,0,0,0,1 @ F,0,0,1,0,0,0,1 @ F,0,0,1,0,0,0,1 @ F,0,0,1,0,0,0,1 @ F,0,0,1,0,20.922676,0,1 @ F,0,0,1,0,15.673278,0,1 @ F,0,0,1,0,0,0,1 @ F,0,0,1,0,0,0,1 @ F,0,0,1,0,0,0,1 @ F,0,0,1,0,0,0,1 @ F,0,0,1,0,0,0,1 @ F,0,0,1,0,0,0,1 @ F,0,0,1,0,0,0,1 @ F,0,0,1,0,0,0,1 @ F,0,0,1,0,0,0,1 @ F,0,0,1,0,0,0,1 @ F,0,0,1,0,20.922676,0,1"
   unit="px"
   method="auto"
   mode="F"
   radius="0"
   chamfer_steps="1"
   flexible="false"
   use_knot_distance="true"
   apply_no_radius="true"
   apply_with_radius="true"
   only_selected="true"
   hide_knots="false" /><inkscape:path-effect
   effect="fillet_chamfer"
   id="path-effect857"
   is_visible="true"
   lpeversion="1"
   satellites_param="F,0,1,1,0,28.311814,0,1 @ F,0,0,1,0,0,0,1 @ F,0,0,1,0,0,0,1 @ F,0,0,1,0,0,0,1 @ F,0,0,1,0,0,0,1 @ F,0,0,1,0,0,0,1 @ F,0,0,1,0,0,0,1 @ F,0,0,1,0,0,0,1 @ F,0,0,1,0,0,0,1 @ F,0,0,1,0,0,0,1 @ F,0,0,1,0,0,0,1 @ F,0,0,1,0,0,0,1 @ F,0,0,1,0,0,0,1 @ F,0,0,1,0,0,0,1 @ F,0,0,1,0,0,0,1 @ F,0,0,1,0,0,0,1 @ F,0,0,1,0,0,0,1 @ F,0,0,1,0,0,0,1 @ F,0,0,1,0,0,0,1 @ F,0,0,1,0,0,0,1 @ F,0,0,1,0,0,0,1 @ F,0,0,1,0,0,0,1 @ F,0,0,1,0,0,0,1 @ F,0,0,1,0,0,0,1 @ F,0,0,1,0,0,0,1 @ F,0,0,1,0,0,0,1 @ F,0,0,1,0,0,0,1 @ F,0,0,1,0,0,0,1 @ F,0,1,1,0,28.311814,0,1 @ F,0,1,1,0,28.311814,0,1 @ F,0,0,1,0,0,0,1 @ F,0,0,1,0,0,0,1 @ F,0,0,1,0,0,0,1 @ F,0,0,1,0,0,0,1 @ F,0,0,1,0,0,0,1 @ F,0,0,1,0,0,0,1 @ F,0,0,1,0,0,0,1 @ F,0,0,1,0,0,0,1 @ F,0,0,1,0,0,0,1 @ F,0,0,1,0,0,0,1 @ F,0,0,1,0,0,0,1 @ F,0,0,1,0,0,0,1 @ F,0,0,1,0,0,0,1 @ F,0,0,1,0,0,0,1 @ F,0,0,1,0,0,0,1 @ F,0,0,1,0,0,0,1 @ F,0,0,1,0,0,0,1 @ F,0,0,1,0,0,0,1 @ F,0,0,1,0,0,0,1 @ F,0,0,1,0,0,0,1 @ F,0,0,1,0,0,0,1 @ F,0,0,1,0,0,0,1 @ F,0,1,1,0,28.311814,0,1 @ F,0,1,1,0,28.311814,0,1 @ F,0,0,1,0,0,0,1 @ F,0,0,1,0,0,0,1 @ F,0,0,1,0,0,0,1 @ F,0,0,1,0,0,0,1 @ F,0,0,1,0,0,0,1 @ F,0,0,1,0,0,0,1 @ F,0,0,1,0,0,0,1 @ F,0,0,1,0,0,0,1 @ F,0,0,1,0,0,0,1 @ F,0,0,1,0,0,0,1 @ F,0,1,1,0,28.311814,0,1"
   unit="px"
   method="auto"
   mode="F"
   radius="0"
   chamfer_steps="1"
   flexible="false"
   use_knot_distance="true"
   apply_no_radius="true"
   apply_with_radius="true"
   only_selected="true"
   hide_knots="false" /><inkscape:path-effect
   effect="spiro"
   id="path-effect862"
   is_visible="true"
   lpeversion="1" /><inkscape:path-effect
   effect="spiro"
   id="path-effect1521"
   is_visible="true"
   lpeversion="1" /><inkscape:path-effect
   effect="spiro"
   id="path-effect858"
   is_visible="true"
   lpeversion="1" /><inkscape:path-effect
   effect="spiro"
   id="path-effect854"
   is_visible="true"
   lpeversion="1" />
  <style
   type="text/css"
   id="style2">
   <![CDATA[
    .fil0 {fill:#EF7F1A;fill-rule:nonzero}
   ]]>
  </style>
 <inkscape:path-effect
   effect="spiro"
   id="path-effect1214"
   is_visible="true"
   lpeversion="1" /><inkscape:path-effect
   effect="spiro"
   id="path-effect1195"
   is_visible="true"
   lpeversion="1" /><inkscape:path-effect
   effect="spiro"
   id="path-effect992"
   is_visible="true"
   lpeversion="1" /><inkscape:path-effect
   effect="spiro"
   id="path-effect287"
   is_visible="true"
   lpeversion="1" /><inkscape:path-effect
   effect="spiro"
   id="path-effect1032"
   is_visible="true"
   lpeversion="1" /><inkscape:path-effect
   effect="spiro"
   id="path-effect1218"
   is_visible="true"
   lpeversion="1" /><inkscape:path-effect
   effect="spiro"
   id="path-effect309"
   is_visible="true"
   lpeversion="1" /><inkscape:path-effect
   effect="spiro"
   id="path-effect1176"
   is_visible="true"
   lpeversion="1" /><inkscape:path-effect
   effect="spiro"
   id="path-effect1026"
   is_visible="true"
   lpeversion="1" /><inkscape:path-effect
   effect="spiro"
   id="path-effect1030"
   is_visible="true"
   lpeversion="1" /></defs>
 
<path
   style="display:inline;fill:#1a5fb4;fill-rule:nonzero;stroke:none;stroke-width:2.09522px;stroke-linecap:butt;stroke-linejoin:miter;stroke-opacity:1"
   d="M 202.70775,809.45684 C 197.03554,788.25176 190.15434,767.37005 182.10634,746.94801 150.11214,665.76178 100.26556,593.05499 59.274313,516.01895 27.42847,456.17013 0.40305182,391.52213 -0.86669918,323.73993 -1.5015747,289.84883 4.5067956,255.5857 18.862495,224.87864 c 14.3557,-30.70706 37.293947,-57.7165 66.537794,-74.85731 36.764181,-21.54873 82.064531,-26.49088 123.678961,-17.31531 41.61444,9.17556 79.59002,31.75815 110.58165,61.00659 65.63979,61.94775 100.08451,155.42529 90.33424,245.15286 l -44.4744,-2.49581 c 3.9477,-70.6029 24.56217,-140.21971 59.69315,-201.58883 27.56986,-48.16084 65.33193,-92.28878 115.04419,-116.95159 24.85614,-12.33141 52.42866,-19.53402 80.17531,-19.415745 27.74666,0.118274 55.62806,7.723165 78.80475,22.978725 30.7905,20.26719 51.89571,52.98357 63.74128,87.89054 11.84557,34.90697 15.14305,72.12227 16.18591,108.96961 2.93931,103.85429 -11.8358,209.41009 -54.15319,304.29735 -15.14109,33.9505 -34.32469,67.10209 -62.86202,90.92455 -14.26866,11.91124 -30.7786,21.3074 -48.65492,26.39756 -17.87631,5.09015 -37.14075,5.76901 -55.06568,0.8528 -15.71948,-4.31133 -30.16055,-12.8434 -42.09052,-23.95039 -11.92998,-11.107 -21.38825,-24.7417 -28.36663,-39.47234 -13.95676,-29.46129 -17.91985,-62.73577 -17.75545,-95.33533 0.41323,-81.94089 27.37613,-165.26906 83.02467,-225.41654 32.27244,-34.88152 74.01548,-61.52028 120.13058,-72.99319 46.11511,-11.47292 96.52986,-7.19489 138.69521,14.72118 42.46666,22.07268 74.96594,61.06143 93.36944,105.2421 18.4035,44.18068 23.32057,93.2567 18.77424,140.90071 -9.40228,98.53268 -59.73034,192.08824 -135.20871,256.12033 -79.58276,67.51405 -186.54284,101.55338 -290.49717,93.23646 -11.51703,-0.92142 -16.34181,-10.47717 -10.84245,-20.63991 l 34.91879,-64.52938 c 2.57267,-4.75425 8.92181,-7.58737 14.22749,-6.55406 73.67126,14.34791 153.20102,-3.65759 213.28486,-48.71796 32.81849,-24.6125 59.94647,-56.94202 77.64543,-93.9498 17.69896,-37.00777 25.84765,-78.66285 22.47008,-119.54586 -2.53368,-30.66833 -11.57742,-60.94246 -27.5323,-87.25611 -15.95488,-26.31364 -38.9268,-48.54938 -66.41493,-62.38298 -30.44292,-15.32062 -66.13804,-19.97148 -99.47781,-12.90375 -33.33977,7.06773 -64.09342,25.8166 -85.60131,52.25338 -26.35758,32.39786 -38.20763,75.18404 -37.1026,116.93475 0.45509,17.19452 3.08848,34.65419 10.78609,50.03618 3.8488,7.691 8.95206,14.79317 15.30064,20.59491 6.34858,5.80175 13.96105,10.28101 22.2367,12.62159 9.9361,2.81021 20.64613,2.47311 30.58738,-0.31881 9.94126,-2.79192 19.12859,-7.97671 27.10693,-14.53181 15.95669,-13.11022 26.8759,-31.30088 36.06836,-49.79391 19.64079,-39.51256 32.84535,-82.16241 39.58522,-125.76948 5.41063,-35.00689 6.59846,-71.32868 -3.14326,-105.38534 -4.87086,-17.02833 -12.47698,-33.34811 -23.07926,-47.53546 -10.60227,-14.18736 -24.24622,-26.2059 -40.05524,-34.19115 -29.87175,-15.08843 -66.25366,-14.78134 -97.43958,-2.63965 -31.18592,12.1417 -57.3354,35.30791 -76.54033,62.71508 -23.5257,33.57329 -37.14556,73.42738 -43.21313,113.9713 -6.06758,40.54391 -4.8258,81.88296 -0.52102,122.65174 2.37083,22.45314 5.66565,44.80867 9.87237,66.99126 2.15292,11.35263 -5.03927,18.73249 -16.38589,16.54651 L 316.7797,611.5523 c -8.49981,-1.63753 -12.83359,-9.50204 -9.96204,-17.6676 5.94968,-16.91857 10.99843,-34.15398 15.11615,-51.60911 13.92994,-59.04933 16.93592,-121.94644 -1.29751,-179.81188 -5.17595,-16.42636 -12.06921,-32.41437 -21.70604,-46.68838 -9.63683,-14.27401 -22.10602,-26.8159 -37.0837,-35.31795 -17.5416,-9.95745 -38.26536,-14.08693 -58.32668,-11.98875 -20.06132,2.09817 -39.3827,10.36038 -55.00165,23.12389 -17.29965,14.13695 -29.94464,33.59091 -37.18436,54.72661 -7.23972,21.13569 -9.20168,43.89875 -7.10609,66.1415 4.19117,44.48549 24.12446,85.98624 47.3535,124.15608 24.46013,40.19276 53.09458,78.10944 87.55113,110.14851 27.28568,25.37131 58.12149,46.9156 91.31213,63.84253 10.29271,5.24919 11.48473,14.7668 2.36433,21.86206 l -108.54809,84.44554 c -9.1204,7.09526 -18.56722,3.70368 -21.55303,-7.45851 z"
   id="path1087-1-75"
   inkscape:path-effect="#path-effect1030;#path-effect859"
   inkscape:original-d="m 207.74684,829.76245 c -12.76427,-34.18253 -14.53257,-56.137 -25.6405,-82.81444 C 148.59214,666.45857 77.346458,601.3136 59.274313,516.01895 33.922282,396.36565 -11.405066,224.77671 85.400289,150.02133 148.27013,101.47184 258.96173,142.47519 319.6609,193.71261 c 66.54911,56.17547 90.33424,245.15286 90.33424,245.15286 l -44.4744,-2.49581 c 0,0 12.79322,-149.51528 59.69315,-201.58883 66.15509,-73.45279 182.83674,-151.554744 274.02425,-113.38861 65.33084,27.34388 72.52003,126.42619 79.92719,196.86015 10.77528,102.4611 1.00438,217.27996 -54.15319,304.29735 -36.44878,57.50213 -100.19219,133.25202 -166.58262,118.17491 -59.03656,-13.40707 -83.54762,-98.39828 -88.2126,-158.75806 -6.17017,-79.8353 22.80777,-172.63709 83.02467,-225.41654 66.50487,-58.29079 179.61981,-97.60552 258.82579,-58.27201 80.75284,40.10168 114.768,156.01913 112.14368,246.14281 -2.80995,96.49868 -60.43027,195.06236 -135.20871,256.12033 -83.73937,68.37474 -311.2971,90.99782 -311.2971,90.99782 L 527.23975,800 c 0,0 163.33519,0.42834 222.85412,-46.66369 61.64071,-48.7708 104.91273,-135.04087 100.11551,-213.49566 -3.59452,-58.78554 -39.70881,-126.6858 -93.94723,-149.63909 -58.08482,-24.58107 -138.35475,-3.01673 -185.07912,39.34963 -30.29416,27.4686 -41.56475,76.28565 -37.1026,116.93475 3.50124,31.89538 17.0143,76.23044 48.32343,83.25268 37.04222,8.3081 71.21187,-34.10584 93.76267,-64.64453 26.10796,-35.35585 40.36522,-81.82573 39.58522,-125.76948 -1.17429,-66.1574 -6.6668,-158.39412 -66.27776,-187.11195 -55.27355,-26.62826 -133.96268,13.56897 -173.97991,60.07543 -52.3165,60.80021 -42.78161,156.41846 -43.73415,236.62304 -0.35078,29.53584 14.03136,87.49584 14.03136,87.49584 L 301.38943,608.58729 c 0,0 17.16389,-43.41953 20.54438,-66.3117 8.75623,-59.29582 17.24944,-122.81471 -1.29751,-179.81188 -10.40744,-31.9834 -28.15389,-68.12479 -58.78974,-82.00633 -34.57432,-15.66612 -88.01026,-17.14572 -113.32833,11.13514 -54.481448,60.85701 -24.334,168.07482 3.06305,245.02419 15.73151,44.18468 52.96972,78.46425 87.55113,110.14851 32.46628,29.74634 110.1904,72.85749 110.1904,72.85749 z"
   sodipodi:nodetypes="caaaaccaaaaaaaaaaccaaaaaaaaaaaccaaaaaacc" /></svg>
