<?xml version="1.0" encoding="UTF-8" standalone="no"?>
<svg
   xmlns:dc="http://purl.org/dc/elements/1.1/"
   xmlns:cc="http://creativecommons.org/ns#"
   xmlns:rdf="http://www.w3.org/1999/02/22-rdf-syntax-ns#"
   xmlns:svg="http://www.w3.org/2000/svg"
   xmlns="http://www.w3.org/2000/svg"
   xmlns:sodipodi="http://sodipodi.sourceforge.net/DTD/sodipodi-0.dtd"
   xmlns:inkscape="http://www.inkscape.org/namespaces/inkscape"
   xml:space="preserve"
   width="1000"
   height="1000"
   version="1.1"
   style="clip-rule:evenodd;fill-rule:evenodd;image-rendering:optimizeQuality;shape-rendering:geometricPrecision;text-rendering:geometricPrecision"
   viewBox="0 0 1000 1000"
   id="svg10"
   sodipodi:docname="ന്മ.svg"
   inkscape:version="1.0.2 (e86c870879, 2021-01-15)"><metadata
   id="metadata14"><rdf:RDF><cc:Work
       rdf:about=""><dc:format>image/svg+xml</dc:format><dc:type
         rdf:resource="http://purl.org/dc/dcmitype/StillImage" /><dc:title /></cc:Work></rdf:RDF></metadata><sodipodi:namedview
   pagecolor="#ffffff"
   bordercolor="#666666"
   borderopacity="1"
   objecttolerance="10"
   gridtolerance="10"
   guidetolerance="10"
   inkscape:pageopacity="0"
   inkscape:pageshadow="2"
   inkscape:window-width="1920"
   inkscape:window-height="1007"
   id="namedview12"
   showgrid="false"
   inkscape:zoom="0.678"
   inkscape:cx="806.78144"
   inkscape:cy="396.64601"
   inkscape:window-x="1920"
   inkscape:window-y="0"
   inkscape:window-maximized="1"
   inkscape:current-layer="svg10"
   showguides="true"
   inkscape:guide-bbox="true"
   inkscape:document-rotation="0"
   inkscape:snap-to-guides="true"
   inkscape:snap-grids="true"><sodipodi:guide
     position="0,1000"
     orientation="0,1"
     id="guide16"
     inkscape:label=""
     inkscape:locked="true"
     inkscape:color="rgb(0,0,255)" /><sodipodi:guide
     position="1763.3122,2036.1693"
     orientation="1000,0"
     id="guide18" /><sodipodi:guide
     position="0,200"
     orientation="0,1"
     id="guide20"
     inkscape:label="base"
     inkscape:locked="true"
     inkscape:color="rgb(0,0,255)" /><inkscape:grid
     type="xygrid"
     id="grid24"
     originx="-473.37552"
     originy="-489.69235" /><sodipodi:guide
     position="0,0"
     orientation="0,1"
     id="guide34"
     inkscape:label="bottom"
     inkscape:locked="true"
     inkscape:color="rgb(0,0,255)" /><sodipodi:guide
     position="225.05109,1693.3186"
     orientation="0,1"
     id="guide44"
     inkscape:label=""
     inkscape:locked="false"
     inkscape:color="rgb(0,0,255)" /><sodipodi:guide
     position="0,900"
     orientation="0,1"
     id="guide46"
     inkscape:label=""
     inkscape:locked="true"
     inkscape:color="rgb(0,0,255)" /><sodipodi:guide
     position="890.70746,557.64599"
     orientation="-1,0"
     id="guide841"
     inkscape:label="width"
     inkscape:locked="false"
     inkscape:color="rgb(0,0,255)" /><sodipodi:guide
     position="0,1000"
     orientation="0,1000"
     id="guide860" /><sodipodi:guide
     position="1000,1000"
     orientation="1000,0"
     id="guide862" /><sodipodi:guide
     position="1000,0"
     orientation="0,-1000"
     id="guide864" /><sodipodi:guide
     position="0,0"
     orientation="-1000,0"
     id="guide866" /></sodipodi:namedview>
 <defs
   id="defs4"><inkscape:path-effect
   effect="fillet_chamfer"
   id="path-effect860"
   is_visible="true"
   lpeversion="1"
   satellites_param="F,0,0,1,0,0,0,1 @ F,0,1,1,0,24.787597,0,1 @ F,0,1,1,0,24.787597,0,1 @ F,0,0,1,0,0,0,1 @ F,0,0,1,0,0,0,1 @ F,0,0,1,0,0,0,1 @ F,0,0,1,0,0,0,1 @ F,0,0,1,0,0,0,1 @ F,0,0,1,0,0,0,1 @ F,0,0,1,0,0,0,1 @ F,0,0,1,0,0,0,1 @ F,0,0,1,0,0,0,1 @ F,0,0,1,0,0,0,1 @ F,0,1,1,0,24.787597,0,1 @ F,0,1,1,0,24.787597,0,1 @ F,0,0,1,0,0,0,1 @ F,0,0,1,0,0,0,1 @ F,0,0,1,0,0,0,1 @ F,0,0,1,0,0,0,1 @ F,0,0,1,0,0,0,1 @ F,0,0,1,0,0,0,1 @ F,0,0,1,0,0,0,1 @ F,0,0,1,0,0,0,1 @ F,0,0,1,0,0,0,1 @ F,0,0,1,0,0,0,1 @ F,0,1,1,0,0,0,1 @ F,0,0,1,0,0,0,1 @ F,0,0,1,0,0,0,1 @ F,0,0,1,0,0,0,1 @ F,0,0,1,0,0,0,1 @ F,0,0,1,0,0,0,1 @ F,0,0,1,0,0,0,1 @ F,0,0,1,0,0,0,1 @ F,0,0,1,0,0,0,1 @ F,0,0,1,0,0,0,1 @ F,0,0,1,0,0,0,1 @ F,0,0,1,0,0,0,1 @ F,0,0,1,0,0,0,1 @ F,0,0,1,0,0,0,1 @ F,0,1,1,0,24.787597,0,1 @ F,0,0,1,0,0,0,1 @ F,0,0,1,0,0,0,1 @ F,0,0,1,0,0,0,1 @ F,0,1,1,0,24.787597,0,1 @ F,0,1,1,0,24.787597,0,1 @ F,0,0,1,0,0,0,1 @ F,0,0,1,0,0,0,1 @ F,0,0,1,0,0,0,1 @ F,0,0,1,0,0,0,1 @ F,0,0,1,0,0,0,1 @ F,0,0,1,0,0,0,1 @ F,0,0,1,0,0,0,1 @ F,0,0,1,0,0,0,1 @ F,0,0,1,0,0,0,1"
   unit="px"
   method="auto"
   mode="F"
   radius="0"
   chamfer_steps="1"
   flexible="false"
   use_knot_distance="true"
   apply_no_radius="true"
   apply_with_radius="true"
   only_selected="true"
   hide_knots="false" /><inkscape:path-effect
   effect="fillet_chamfer"
   id="path-effect859"
   is_visible="true"
   lpeversion="1"
   satellites_param="F,0,0,1,0,0,0,1 @ F,0,0,1,0,31.186958,0,1 @ F,0,0,1,0,26.138829,0,1 @ F,0,0,1,0,0,0,1 @ F,0,0,1,0,0,0,1 @ F,0,0,1,0,0,0,1 @ F,0,0,1,0,0,0,1 @ F,0,0,1,0,0,0,1 @ F,0,0,1,0,0,0,1 @ F,0,0,1,0,0,0,1 @ F,0,0,1,0,0,0,1 @ F,0,0,1,0,0,0,1 @ F,0,0,1,0,0,0,1 @ F,0,0,1,0,29.927175,0,1 @ F,0,0,1,0,24.463266,0,1 @ F,0,0,1,0,0,0,1 @ F,0,0,1,0,0,0,1 @ F,0,0,1,0,0,0,1 @ F,0,0,1,0,0,0,1 @ F,0,0,1,0,0,0,1 @ F,0,0,1,0,0,0,1 @ F,0,0,1,0,0,0,1 @ F,0,0,1,0,0,0,1 @ F,0,0,1,0,0,0,1 @ F,0,0,1,0,0,0,1 @ F,0,0,1,0,0,0,1 @ F,0,0,1,0,0,0,1 @ F,0,0,1,0,0,0,1 @ F,0,0,1,0,0,0,1 @ F,0,0,1,0,0,0,1 @ F,0,0,1,0,0,0,1 @ F,0,0,1,0,0,0,1 @ F,0,0,1,0,0,0,1 @ F,0,0,1,0,0,0,1 @ F,0,0,1,0,0,0,1 @ F,0,0,1,0,23.147399,0,1 @ F,0,0,1,0,0,0,1 @ F,0,0,1,0,28.280956,0,1 @ F,0,0,1,0,0,0,1 @ F,0,0,1,0,23.397344,0,1 @ F,0,0,1,0,38.851313,0,1 @ F,0,0,1,0,0,0,1 @ F,0,0,1,0,0,0,1 @ F,0,0,1,0,0,0,1 @ F,0,0,1,0,0,0,1 @ F,0,0,1,0,0,0,1 @ F,0,0,1,0,0,0,1 @ F,0,0,1,0,0,0,1 @ F,0,0,1,0,0,0,1 @ F,0,0,1,0,0,0,1"
   unit="px"
   method="auto"
   mode="F"
   radius="0"
   chamfer_steps="1"
   flexible="false"
   use_knot_distance="true"
   apply_no_radius="true"
   apply_with_radius="true"
   only_selected="true"
   hide_knots="false" /><inkscape:path-effect
   effect="spiro"
   id="path-effect862"
   is_visible="true"
   lpeversion="1" /><inkscape:path-effect
   effect="spiro"
   id="path-effect1521"
   is_visible="true"
   lpeversion="1" /><inkscape:path-effect
   effect="spiro"
   id="path-effect858"
   is_visible="true"
   lpeversion="1" /><inkscape:path-effect
   effect="spiro"
   id="path-effect854"
   is_visible="true"
   lpeversion="1" />
  <style
   type="text/css"
   id="style2">
   <![CDATA[
    .fil0 {fill:#EF7F1A;fill-rule:nonzero}
   ]]>
  </style>
 <inkscape:path-effect
   effect="spiro"
   id="path-effect1214"
   is_visible="true"
   lpeversion="1" /><inkscape:path-effect
   effect="spiro"
   id="path-effect1195"
   is_visible="true"
   lpeversion="1" /><inkscape:path-effect
   effect="spiro"
   id="path-effect992"
   is_visible="true"
   lpeversion="1" /><inkscape:path-effect
   effect="spiro"
   id="path-effect287"
   is_visible="true"
   lpeversion="1" /><inkscape:path-effect
   effect="spiro"
   id="path-effect1032"
   is_visible="true"
   lpeversion="1" /><inkscape:path-effect
   effect="spiro"
   id="path-effect1218"
   is_visible="true"
   lpeversion="1" /><inkscape:path-effect
   effect="spiro"
   id="path-effect309"
   is_visible="true"
   lpeversion="1" /><inkscape:path-effect
   effect="spiro"
   id="path-effect1176"
   is_visible="true"
   lpeversion="1" /><inkscape:path-effect
   effect="spiro"
   id="path-effect1026"
   is_visible="true"
   lpeversion="1" /><inkscape:path-effect
   effect="spiro"
   id="path-effect1030"
   is_visible="true"
   lpeversion="1" /><style
   type="text/css"
   id="style2-2">
   <![CDATA[
    .fil0 {fill:#EF7F1A;fill-rule:nonzero}
   ]]>
  </style></defs>
 
<path
   style="display:inline;fill:#63452c;fill-rule:nonzero;stroke:none;stroke-width:2.09522px;stroke-linecap:butt;stroke-linejoin:miter;stroke-opacity:1"
   d="m 448.47975,477.12108 c 3.67811,30.949 12.15599,61.31829 24.98586,89.72027 5.63414,12.4725 0.28845,24.59374 -13.06501,27.60967 l -104.20988,23.53614 c -13.35346,3.01593 -21.13021,-5.21797 -18.07595,-18.5614 5.87307,-25.65832 9.80603,-51.76082 11.74704,-78.01113 4.01053,-54.23871 -0.63057,-109.5921 -18.46305,-160.9723 -5.6327,-16.22934 -12.60506,-32.09651 -22.1648,-46.36991 -9.55975,-14.2734 -21.8053,-26.94752 -36.62494,-35.63642 -17.46802,-10.24166 -38.25965,-14.62948 -58.40334,-12.5667 -20.14369,2.06278 -39.54738,10.52791 -54.92499,23.70184 -15.58506,13.35165 -26.93312,31.32664 -33.5265,50.76083 -6.59339,19.43419 -8.54221,40.28741 -6.97733,60.74986 3.12978,40.92489 19.92219,79.5426 39.1421,115.8088 24.6868,46.5817 54.09141,91.19182 91.97591,127.85321 25.88569,25.04997 55.57237,46.15913 87.70695,62.43283 12.21056,6.18371 13.72414,17.23901 2.91899,25.64493 l -102.44705,79.6992 c -10.80515,8.40592 -21.97838,4.3817 -25.59881,-8.81959 -5.46499,-19.92718 -12.0124,-39.55755 -19.60615,-58.77458 C 160.80018,663.77258 110.66852,591.22086 70.03677,513.99757 38.595601,454.24158 12.370879,389.61362 11.357242,322.09846 c -0.506818,-33.75758 5.473895,-67.84361 19.56925,-98.52181 14.095355,-30.67821 36.519553,-57.82332 65.236248,-75.5767 36.59543,-22.62422 82.26184,-28.97923 124.35998,-20.10075 42.09814,8.87848 80.50822,32.37282 109.90064,63.79203 41.9382,44.83009 65.20711,103.91245 81.61347,163.06802 5.89647,21.26059 11.03234,42.73211 15.3945,64.35969 l -58.83596,14.59485 c 1.97447,-25.18665 4.67132,-50.31667 8.08611,-75.34876 7.47958,-54.829 18.92862,-110.55525 48.10477,-157.57562 16.54996,-26.67196 38.65337,-50.00635 64.95724,-67.13531 26.30386,-17.12897 56.82454,-27.95513 88.13147,-30.22904 51.53568,-3.743181 103.30226,16.05848 143.11105,49.00082 39.80879,32.94234 68.24566,78.21106 86.40936,126.58479 21.33851,56.82893 29.0871,119.36483 17.52165,178.95594 -9.21738,47.49267 -30.46571,92.2521 -58.94777,131.35818 -28.48207,39.10609 -64.0824,72.70294 -102.94982,101.50984 -47.94364,35.53381 -101.09755,64.02569 -157.23135,84.28009 l -20.52284,-50.01571 292.18425,-16.96979 c 4.4448,-48.18552 0.0228,-97.17481 -12.97875,-143.78554 -6.88732,-24.69114 -16.16238,-48.71563 -27.6537,-71.62932 l 126.86584,-2.17913 c 13.68779,-0.23511 20.69857,9.90637 16.54906,22.94989 -5.15076,16.19085 -9.28025,32.70665 -12.35162,49.41717 -14.42662,78.49135 -4.88743,161.22299 27.0237,234.37147 -102.06858,-8.49554 -204.62376,-11.14142 -306.99462,-7.92032 -48.11107,1.51381 -96.18139,4.32248 -144.14141,8.42162 -13.64003,1.16581 -27.52883,-8.50294 -31.03384,-21.73645 l -20.73298,-78.27934 c -3.50501,-13.23351 3.85704,-19.4587 17.03153,-15.77268 7.20261,2.01518 14.52204,3.61283 21.90978,4.77907 46.7413,7.37866 95.13406,-2.80996 137.98613,-22.88219 48.88958,-22.90025 91.81803,-58.8901 121.50093,-103.98486 29.6829,-45.09477 45.82416,-99.26509 43.99343,-153.22119 -1.31904,-38.87524 -12.26187,-78.15754 -35.78956,-109.13289 -11.76385,-15.48767 -26.57773,-28.73827 -43.62514,-38.10001 -17.0474,-9.36173 -36.34022,-14.77422 -55.78822,-14.95078 -24.31951,-0.22079 -48.39363,7.7713 -68.76877,21.05063 -20.37515,13.27934 -37.1479,31.68307 -50.04852,52.30009 -29.28047,46.79436 -38.43739,104.46219 -31.92301,159.27662 z"
   id="path1087-1-75"
   inkscape:path-effect="#path-effect1030;#path-effect860"
   inkscape:original-d="m 448.47975,477.12108 c 2.23888,39.11913 36.09944,111.86912 36.09944,111.86912 l -152.56706,34.45778 c 0,0 16.83145,-67.52074 17.84968,-102.03335 1.59275,-53.98573 0.9711,-110.58073 -18.46305,-160.9723 -12.10256,-31.38121 -28.15389,-68.12479 -58.78974,-82.00633 -34.57433,-15.66612 -87.74988,-16.91044 -113.32833,11.13514 -51.06153,55.98659 -24.39183,155.12952 -1.36173,227.31949 15.95621,50.01623 54.12867,91.46901 91.97591,127.85321 31.74353,30.51643 110.1904,72.85749 110.1904,72.85749 L 218.5093,827.74107 C 205.74503,793.55854 203.97681,771.60408 192.8688,744.92663 159.35443,664.43714 88.10887,599.29218 70.03677,513.99757 44.684777,394.34422 -0.642652,222.75531 96.16274,147.99995 c 62.86978,-48.549495 172.29627,-6.00864 234.26062,43.69128 38.7708,31.09701 66.05857,107.39428 81.61347,163.06802 10.23925,36.64806 15.3945,64.35969 15.3945,64.35969 l -58.83596,14.59485 c 0,0 1.91423,-32.97157 8.08611,-75.34876 7.7575,-53.26424 22.24131,-121.38765 48.10477,-157.57562 35.1643,-49.20165 92.66949,-99.9812 153.08871,-97.36435 96.23672,4.16816 194.86207,86.25837 229.52041,175.58561 21.16796,56.07485 32.63823,120.95629 17.52165,178.95594 -23.84335,91.48272 -91.30258,169.98767 -161.89759,232.86802 -44.40435,39.55182 -157.23135,84.28009 -157.23135,84.28009 l -20.52284,-50.01571 292.18425,-16.96979 c 0,0 -2.04383,-96.92099 -12.97875,-143.78554 -5.81565,-24.92453 -27.6537,-71.62932 -27.6537,-71.62932 l 151.64978,-2.60483 c 0,0 -18.56112,47.6583 -20.5865,72.79276 -6.3166,78.38734 27.0237,234.37147 27.0237,234.37147 0,0 -204.64672,-9.82339 -306.99462,-7.92032 C 531.53107,790.40175 419.08054,800 419.08054,800 L 385.65478,673.79788 c 0,0 14.20844,-0.84056 45.2877,12.96778 31.07926,13.80903 99.03063,2.73462 137.98613,-22.88219 85.18222,-56.01511 171.76927,-155.44982 165.49436,-257.20605 -4.33199,-70.24914 -65.7351,-150.87303 -135.20292,-162.18368 -45.93998,-7.47988 -92.23858,35.14073 -118.81729,73.35072 -30.92035,44.4516 -35.01698,105.21702 -31.92301,159.27662 z"
   sodipodi:nodetypes="accaaaaaaccaaassccssacaacccaccacaccsaaaaa" /><g
   style="clip-rule:evenodd;fill-rule:evenodd;image-rendering:optimizeQuality;shape-rendering:geometricPrecision;text-rendering:geometricPrecision"
   id="g876"
   transform="translate(421.89575,2.72624)" /></svg>
