<?xml version="1.0" encoding="UTF-8" standalone="no"?>
<svg
   xmlns:dc="http://purl.org/dc/elements/1.1/"
   xmlns:cc="http://creativecommons.org/ns#"
   xmlns:rdf="http://www.w3.org/1999/02/22-rdf-syntax-ns#"
   xmlns:svg="http://www.w3.org/2000/svg"
   xmlns="http://www.w3.org/2000/svg"
   xmlns:sodipodi="http://sodipodi.sourceforge.net/DTD/sodipodi-0.dtd"
   xmlns:inkscape="http://www.inkscape.org/namespaces/inkscape"
   xml:space="preserve"
   width="1000"
   height="1000"
   version="1.1"
   style="clip-rule:evenodd;fill-rule:evenodd;image-rendering:optimizeQuality;shape-rendering:geometricPrecision;text-rendering:geometricPrecision"
   viewBox="0 0 1000 1000"
   id="svg10"
   sodipodi:docname="നു.svg"
   inkscape:version="1.0.2 (e86c870879, 2021-01-15)"><metadata
   id="metadata14"><rdf:RDF><cc:Work
       rdf:about=""><dc:format>image/svg+xml</dc:format><dc:type
         rdf:resource="http://purl.org/dc/dcmitype/StillImage" /><dc:title /></cc:Work></rdf:RDF></metadata><sodipodi:namedview
   pagecolor="#ffffff"
   bordercolor="#666666"
   borderopacity="1"
   objecttolerance="10"
   gridtolerance="10"
   guidetolerance="10"
   inkscape:pageopacity="0"
   inkscape:pageshadow="2"
   inkscape:window-width="1920"
   inkscape:window-height="1007"
   id="namedview12"
   showgrid="false"
   inkscape:zoom="0.86197894"
   inkscape:cx="563.29573"
   inkscape:cy="385.7715"
   inkscape:window-x="1920"
   inkscape:window-y="0"
   inkscape:window-maximized="1"
   inkscape:current-layer="svg10"
   showguides="true"
   inkscape:guide-bbox="true"
   inkscape:document-rotation="0"
   inkscape:snap-to-guides="true"><sodipodi:guide
     position="0,1000"
     orientation="0,1"
     id="guide16"
     inkscape:label=""
     inkscape:locked="true"
     inkscape:color="rgb(0,0,255)" /><sodipodi:guide
     position="1763.3122,2036.1693"
     orientation="1000,0"
     id="guide18" /><sodipodi:guide
     position="0,200"
     orientation="0,1"
     id="guide20"
     inkscape:label="base"
     inkscape:locked="true"
     inkscape:color="rgb(0,0,255)" /><inkscape:grid
     type="xygrid"
     id="grid24"
     originx="-473.37552"
     originy="-489.69235" /><sodipodi:guide
     position="0,0"
     orientation="0,1"
     id="guide34"
     inkscape:label="bottom"
     inkscape:locked="true"
     inkscape:color="rgb(0,0,255)" /><sodipodi:guide
     position="225.05109,1693.3186"
     orientation="0,1"
     id="guide44"
     inkscape:label=""
     inkscape:locked="false"
     inkscape:color="rgb(0,0,255)" /><sodipodi:guide
     position="0,900"
     orientation="0,1"
     id="guide46"
     inkscape:label=""
     inkscape:locked="true"
     inkscape:color="rgb(0,0,255)" /><sodipodi:guide
     position="801.00736,581.53742"
     orientation="-1,0"
     id="guide841"
     inkscape:label="width"
     inkscape:locked="false"
     inkscape:color="rgb(0,0,255)" /><sodipodi:guide
     position="0,1000"
     orientation="0,1000"
     id="guide860" /><sodipodi:guide
     position="1000,1000"
     orientation="1000,0"
     id="guide862" /><sodipodi:guide
     position="1000,0"
     orientation="0,-1000"
     id="guide864" /><sodipodi:guide
     position="0,0"
     orientation="-1000,0"
     id="guide866" /></sodipodi:namedview>
 <defs
   id="defs4"><inkscape:path-effect
   effect="fillet_chamfer"
   id="path-effect859"
   is_visible="true"
   lpeversion="1"
   satellites_param="F,0,1,1,0,29.616974,0,1 @ F,0,0,1,0,0,0,1 @ F,0,0,1,0,0,0,1 @ F,0,0,1,0,0,0,1 @ F,0,0,1,0,0,0,1 @ F,0,0,1,0,0,0,1 @ F,0,0,1,0,0,0,1 @ F,0,0,1,0,0,0,1 @ F,0,0,1,0,0,0,1 @ F,0,0,1,0,0,0,1 @ F,0,0,1,0,0,0,1 @ F,0,0,1,0,0,0,1 @ F,0,0,1,0,0,0,1 @ F,0,0,1,0,0,0,1 @ F,0,0,1,0,0,0,1 @ F,0,0,1,0,0,0,1 @ F,0,0,1,0,0,0,1 @ F,0,0,1,0,0,0,1 @ F,0,0,1,0,0,0,1 @ F,0,0,1,0,0,0,1 @ F,0,0,1,0,0,0,1 @ F,0,0,1,0,0,0,1 @ F,0,0,1,0,0,0,1 @ F,0,0,1,0,0,0,1 @ F,0,0,1,0,0,0,1 @ F,0,0,1,0,0,0,1 @ F,0,0,1,0,0,0,1 @ F,0,0,1,0,0,0,1 @ F,0,0,1,0,0,0,1 @ F,0,0,1,0,0,0,1 @ F,0,0,1,0,0,0,1 @ F,0,0,1,0,0,0,1 @ F,0,0,1,0,0,0,1 @ F,0,0,1,0,0,0,1 @ F,0,0,1,0,0,0,1 @ F,0,0,1,0,0,0,1 @ F,0,0,1,0,0,0,1 @ F,0,0,1,0,0,0,1 @ F,0,0,1,0,0,0,1 @ F,0,0,1,0,0,0,1 @ F,0,0,1,0,0,0,1 @ F,0,1,1,0,29.616974,0,1 @ F,0,1,1,0,29.616974,0,1 @ F,0,0,1,0,0,0,1 @ F,0,0,1,0,0,0,1 @ F,0,0,1,0,0,0,1 @ F,0,0,1,0,0,0,1 @ F,0,0,1,0,0,0,1 @ F,0,0,1,0,0,0,1 @ F,0,0,1,0,0,0,1 @ F,0,0,1,0,0,0,1 @ F,0,0,1,0,0,0,1 @ F,0,0,1,0,0,0,1 @ F,0,1,1,0,29.616974,0,1"
   unit="px"
   method="auto"
   mode="F"
   radius="0"
   chamfer_steps="1"
   flexible="false"
   use_knot_distance="true"
   apply_no_radius="true"
   apply_with_radius="true"
   only_selected="true"
   hide_knots="false" /><inkscape:path-effect
   effect="spiro"
   id="path-effect862"
   is_visible="true"
   lpeversion="1" /><inkscape:path-effect
   effect="spiro"
   id="path-effect1521"
   is_visible="true"
   lpeversion="1" /><inkscape:path-effect
   effect="spiro"
   id="path-effect858"
   is_visible="true"
   lpeversion="1" /><inkscape:path-effect
   effect="spiro"
   id="path-effect854"
   is_visible="true"
   lpeversion="1" />
  <style
   type="text/css"
   id="style2">
   <![CDATA[
    .fil0 {fill:#EF7F1A;fill-rule:nonzero}
   ]]>
  </style>
 <inkscape:path-effect
   effect="spiro"
   id="path-effect1214"
   is_visible="true"
   lpeversion="1" /><inkscape:path-effect
   effect="spiro"
   id="path-effect1195"
   is_visible="true"
   lpeversion="1" /><inkscape:path-effect
   effect="spiro"
   id="path-effect992"
   is_visible="true"
   lpeversion="1" /><inkscape:path-effect
   effect="spiro"
   id="path-effect287"
   is_visible="true"
   lpeversion="1" /><inkscape:path-effect
   effect="spiro"
   id="path-effect1032"
   is_visible="true"
   lpeversion="1" /><inkscape:path-effect
   effect="spiro"
   id="path-effect1218"
   is_visible="true"
   lpeversion="1" /><inkscape:path-effect
   effect="spiro"
   id="path-effect309"
   is_visible="true"
   lpeversion="1" /><inkscape:path-effect
   effect="spiro"
   id="path-effect1176"
   is_visible="true"
   lpeversion="1" /><inkscape:path-effect
   effect="spiro"
   id="path-effect1026"
   is_visible="true"
   lpeversion="1" /><inkscape:path-effect
   effect="spiro"
   id="path-effect1030"
   is_visible="true"
   lpeversion="1" /></defs>
 
<path
   style="display:inline;fill:#000000;fill-rule:nonzero;stroke:none;stroke-width:2.09522px;stroke-linecap:butt;stroke-linejoin:miter;stroke-opacity:1"
   d="M 208.41564,801.07062 C 203.22113,782.73918 197.1086,764.66786 190.10634,746.94801 158.03722,665.79418 107.90361,593.24351 67.274313,516.01895 35.835881,456.26358 9.6165811,391.63575 8.6046851,324.12238 8.0987371,290.36569 14.079272,256.28085 28.172872,225.60284 c 14.093601,-30.67801 36.51433,-57.82402 65.227417,-75.58151 36.594291,-22.63159 82.263201,-28.99629 124.364741,-20.1198 42.10153,8.87648 80.51478,32.3773 109.89587,63.81108 36.84489,39.41903 59.83727,91.53972 64.10948,145.32777 9.23164,-36.34918 23.2011,-71.49218 41.44351,-104.25955 27.0496,-48.58701 64.88045,-92.9493 114.74634,-117.56173 24.93295,-12.30621 52.59763,-19.416632 80.40119,-19.178719 27.80357,0.237914 55.70391,7.985789 78.87672,23.351839 30.70904,20.36338 51.76578,53.06355 63.62282,87.95084 11.85705,34.88728 15.21334,72.07832 16.30437,108.90931 3.07665,103.86192 -11.6758,209.4689 -54.15319,304.29735 -15.184,33.89745 -34.4203,66.97344 -62.94883,90.75818 -14.26426,11.89237 -30.75498,21.2818 -48.60859,26.39515 -17.85362,5.11334 -37.09178,5.84756 -55.0252,1.02158 -15.77068,-4.24398 -30.28791,-12.70946 -42.29746,-23.77727 -12.00955,-11.06782 -21.54872,-24.69083 -28.57212,-39.43524 -14.04679,-29.48883 -17.94568,-62.88762 -17.34302,-95.54555 1.50584,-81.60053 30.85191,-162.65574 83.02467,-225.41654 42.9231,-51.63399 100.88833,-90.61168 164.89999,-110.88406 l 35.56493,99.98896 c -60.97133,-4.90612 -123.64598,19.29498 -165.49725,63.90489 -34.40677,36.6747 -54.57048,86.64029 -54.12883,136.92612 0.15144,17.24267 2.74296,34.78827 10.50318,50.1867 3.88011,7.69922 9.03899,14.79161 15.44204,20.56519 6.40304,5.77358 14.06745,10.20637 22.37821,12.50079 9.9434,2.74516 20.63507,2.36903 30.56102,-0.43855 9.92596,-2.80758 19.10088,-7.98643 27.07719,-14.52751 15.95262,-13.08214 26.91026,-31.21968 36.12446,-49.67847 19.70837,-39.48176 32.86928,-82.15612 39.58522,-125.76948 5.39071,-35.00731 6.57525,-71.32434 -3.16255,-105.37939 -4.8689,-17.02753 -12.47137,-33.34736 -23.06993,-47.53585 -10.59857,-14.18849 -24.23884,-26.20927 -40.04528,-34.19671 -29.86996,-15.09414 -66.25435,-14.78841 -97.44086,-2.64555 -31.18651,12.14287 -57.33501,35.312 -76.53905,62.72098 -23.52383,33.5744 -37.14326,73.42812 -43.21121,113.97181 -6.06796,40.54368 -4.82726,81.88257 -0.52294,122.65123 2.0663,19.57109 4.83474,39.06801 8.29734,58.44087 2.87779,16.10096 -7.52177,29.38797 -23.87361,29.79876 l -104.79807,2.63267 c -16.35184,0.41079 -23.09642,-10.82784 -16.15667,-25.63637 5.62005,-11.99249 10.7049,-24.2358 15.23266,-36.68186 24.97979,-68.66528 32.47176,-145.41878 10.17472,-215.00149 -5.25354,-16.3948 -12.15401,-32.36551 -21.77548,-46.64194 -9.62148,-14.27644 -22.0554,-26.84255 -37.01426,-35.36439 -17.53013,-9.98666 -38.26237,-14.1252 -58.32767,-12.02224 -20.06531,2.10295 -39.38596,10.38163 -55.00066,23.15738 -17.28947,14.14603 -29.9258,33.60135 -37.16134,54.73621 -7.23554,21.13487 -9.19746,43.8951 -7.1043,66.13592 4.18631,44.48166 24.10613,85.98329 47.32869,124.15206 24.45573,40.19562 53.09329,78.11059 87.55113,110.14851 25.16405,23.39682 53.34661,43.53946 83.61059,59.80834 14.40398,7.74309 16.11392,21.19114 3.20359,31.23479 l -94.82353,73.76846 c -12.91033,10.04365 -26.24849,5.22941 -30.70742,-10.50619 z"
   id="path1087-1-75"
   sodipodi:nodetypes="caaaacaaaaaaaccaaaaaaaaccaaaaaacc"
   inkscape:original-d="m 215.74684,829.76245 c -12.76427,-34.18253 -14.53257,-56.137 -25.6405,-82.81444 C 156.59214,666.45857 85.346458,601.3136 67.274313,516.01895 41.922282,396.36565 -3.405066,224.77671 93.400289,150.02133 156.27013,101.47184 265.39242,144.39412 327.6609,193.71261 c 41.50526,32.87348 64.10948,145.32777 64.10948,145.32777 0,0 15.18453,-77.63076 41.44351,-104.25955 69.40875,-70.38628 182.83674,-151.554744 274.02425,-113.38861 65.33084,27.34388 72.52003,126.42619 79.92719,196.86015 10.77528,102.4611 1.00438,217.27996 -54.15319,304.29735 -36.44878,57.50213 -100.19219,133.25202 -166.58262,118.17491 -59.03656,-13.40707 -83.54762,-98.39828 -88.2126,-158.75806 -6.17017,-79.8353 33.56076,-162.44776 83.02467,-225.41654 40.91736,-52.08882 164.89999,-110.88406 164.89999,-110.88406 l 35.56493,99.98896 c 0,0 -123.51597,22.25646 -165.49725,63.90489 -34.84191,34.56566 -57.79296,87.98414 -54.12883,136.92612 2.39555,31.99742 17.0143,76.23044 48.32343,83.25268 37.04222,8.3081 71.21187,-34.10584 93.76267,-64.64453 26.10796,-35.35585 40.36522,-81.82573 39.58522,-125.76948 -1.17429,-66.1574 -6.6668,-158.39412 -66.27776,-187.11195 -55.27355,-26.62826 -133.96268,13.56897 -173.97991,60.07543 -52.3165,60.80021 -42.78161,156.41846 -43.73415,236.62304 -0.35078,29.53584 14.03136,87.49584 14.03136,87.49584 l -164.01333,4.12025 c 0,0 23.2598,-40.61503 28.68362,-63.06202 16.8512,-69.74039 30.50826,-146.19573 10.17472,-215.00149 -9.53206,-32.25511 -28.15389,-68.12479 -58.78974,-82.00633 -34.57432,-15.66612 -88.01026,-17.14572 -113.32833,11.13514 -54.48145,60.85701 -24.334,168.07482 3.06305,245.02419 15.73151,44.18468 52.96972,78.46425 87.55113,110.14851 32.46628,29.74634 110.1904,72.85749 110.1904,72.85749 z"
   inkscape:path-effect="#path-effect1030;#path-effect859" /></svg>
