<?xml version="1.0" encoding="UTF-8" standalone="no"?>
<svg
   xmlns:dc="http://purl.org/dc/elements/1.1/"
   xmlns:cc="http://creativecommons.org/ns#"
   xmlns:rdf="http://www.w3.org/1999/02/22-rdf-syntax-ns#"
   xmlns:svg="http://www.w3.org/2000/svg"
   xmlns="http://www.w3.org/2000/svg"
   xmlns:sodipodi="http://sodipodi.sourceforge.net/DTD/sodipodi-0.dtd"
   xmlns:inkscape="http://www.inkscape.org/namespaces/inkscape"
   xml:space="preserve"
   width="1000"
   height="1000"
   version="1.1"
   style="clip-rule:evenodd;fill-rule:evenodd;image-rendering:optimizeQuality;shape-rendering:geometricPrecision;text-rendering:geometricPrecision"
   viewBox="0 0 1000 1000"
   id="svg10"
   sodipodi:docname="ഩ.svg"
   inkscape:version="1.0.1 (3bc2e813f5, 2020-09-07)"><metadata
   id="metadata14"><rdf:RDF><cc:Work
       rdf:about=""><dc:format>image/svg+xml</dc:format><dc:type
         rdf:resource="http://purl.org/dc/dcmitype/StillImage" /><dc:title /></cc:Work></rdf:RDF></metadata><sodipodi:namedview
   pagecolor="#ffffff"
   bordercolor="#666666"
   borderopacity="1"
   objecttolerance="10"
   gridtolerance="10"
   guidetolerance="10"
   inkscape:pageopacity="0"
   inkscape:pageshadow="2"
   inkscape:window-width="1920"
   inkscape:window-height="1051"
   id="namedview12"
   showgrid="false"
   inkscape:zoom="0.9588368"
   inkscape:cx="315.44364"
   inkscape:cy="505.33877"
   inkscape:window-x="0"
   inkscape:window-y="0"
   inkscape:window-maximized="1"
   inkscape:current-layer="svg10"
   showguides="true"
   inkscape:guide-bbox="true"
   inkscape:document-rotation="0"
   inkscape:snap-to-guides="true"><sodipodi:guide
     position="0,1000"
     orientation="0,1"
     id="guide16"
     inkscape:label=""
     inkscape:locked="true"
     inkscape:color="rgb(0,0,255)" /><sodipodi:guide
     position="1763.3122,2036.1693"
     orientation="1000,0"
     id="guide18" /><sodipodi:guide
     position="0,200"
     orientation="0,1"
     id="guide20"
     inkscape:label="base"
     inkscape:locked="true"
     inkscape:color="rgb(0,0,255)" /><inkscape:grid
     type="xygrid"
     id="grid24"
     originx="-473.37552"
     originy="-489.69235" /><sodipodi:guide
     position="0,0"
     orientation="0,1"
     id="guide34"
     inkscape:label="bottom"
     inkscape:locked="true"
     inkscape:color="rgb(0,0,255)" /><sodipodi:guide
     position="225.05109,1693.3186"
     orientation="0,1"
     id="guide44"
     inkscape:label=""
     inkscape:locked="false"
     inkscape:color="rgb(0,0,255)" /><sodipodi:guide
     position="0,900"
     orientation="0,1"
     id="guide46"
     inkscape:label=""
     inkscape:locked="true"
     inkscape:color="rgb(0,0,255)" /><sodipodi:guide
     position="778.78863,579.95671"
     orientation="-1,0"
     id="guide841"
     inkscape:label=""
     inkscape:locked="false"
     inkscape:color="rgb(0,0,255)" /><sodipodi:guide
     position="0,1000"
     orientation="0,1000"
     id="guide860" /><sodipodi:guide
     position="1000,1000"
     orientation="1000,0"
     id="guide862" /><sodipodi:guide
     position="1000,0"
     orientation="0,-1000"
     id="guide864" /><sodipodi:guide
     position="0,0"
     orientation="-1000,0"
     id="guide866" /></sodipodi:namedview>
 <defs
   id="defs4"><inkscape:path-effect
   effect="spiro"
   id="path-effect862"
   is_visible="true"
   lpeversion="1" /><inkscape:path-effect
   effect="spiro"
   id="path-effect1521"
   is_visible="true"
   lpeversion="1" /><inkscape:path-effect
   effect="spiro"
   id="path-effect858"
   is_visible="true"
   lpeversion="1" /><inkscape:path-effect
   effect="spiro"
   id="path-effect854"
   is_visible="true"
   lpeversion="1" />
  <style
   type="text/css"
   id="style2">
   <![CDATA[
    .fil0 {fill:#EF7F1A;fill-rule:nonzero}
   ]]>
  </style>
 <inkscape:path-effect
   effect="spiro"
   id="path-effect1214"
   is_visible="true"
   lpeversion="1" /><inkscape:path-effect
   effect="spiro"
   id="path-effect1195"
   is_visible="true"
   lpeversion="1" /><inkscape:path-effect
   effect="spiro"
   id="path-effect992"
   is_visible="true"
   lpeversion="1" /><inkscape:path-effect
   effect="spiro"
   id="path-effect287"
   is_visible="true"
   lpeversion="1" /><inkscape:path-effect
   effect="spiro"
   id="path-effect1032"
   is_visible="true"
   lpeversion="1" /><inkscape:path-effect
   effect="spiro"
   id="path-effect1218"
   is_visible="true"
   lpeversion="1" /><inkscape:path-effect
   effect="spiro"
   id="path-effect309"
   is_visible="true"
   lpeversion="1" /><inkscape:path-effect
   effect="spiro"
   id="path-effect1176"
   is_visible="true"
   lpeversion="1" /><inkscape:path-effect
   effect="spiro"
   id="path-effect1026"
   is_visible="true"
   lpeversion="1" /><inkscape:path-effect
   effect="spiro"
   id="path-effect1030"
   is_visible="true"
   lpeversion="1" /></defs>
 
<path
   style="display:inline;fill:#1a1a1a;fill-rule:nonzero;stroke:none;stroke-width:2.09522px;stroke-linecap:butt;stroke-linejoin:miter;stroke-opacity:1"
   d="m 572.38572,829.76245 c 6.43023,-28.20176 15.01005,-55.91313 25.6405,-82.81444 32.06912,-81.15383 82.20273,-153.7045 122.83203,-230.92906 31.43843,-59.75537 57.65773,-124.3832 58.66963,-191.89657 0.50594,-33.75669 -5.47459,-67.84153 -19.56819,-98.51954 -14.0936,-30.67801 -36.51433,-57.82402 -65.22742,-75.58151 -36.59429,-22.63159 -82.2632,-28.99628 -124.36474,-20.1198 -42.10153,8.87648 -80.51478,32.3773 -109.89587,63.81108 -36.84489,39.41903 -59.83727,91.53972 -64.10948,145.32777 C 387.13054,302.6912 373.16108,267.5482 354.91867,234.78083 327.86907,186.19382 290.03822,141.83153 240.17233,117.21911 215.23938,104.91289 187.5747,97.802469 159.77114,98.040382 131.96758,98.278295 104.06723,106.02617 80.894423,121.39222 50.185387,141.7556 29.128647,174.45577 17.271598,209.34306 5.4145496,244.23034 2.0582596,281.42138 0.96723278,318.25237 -2.1094195,422.11429 12.643034,527.72127 55.120423,622.54972 c 15.184,33.89745 34.420294,66.97344 62.948827,90.75818 14.26427,11.89237 30.75498,21.2818 48.60859,26.39515 17.85362,5.11334 37.09178,5.84756 55.0252,1.02158 15.77068,-4.24398 30.28791,-12.70946 42.29746,-23.77727 12.00955,-11.06781 21.54872,-24.69083 28.57212,-39.43524 14.04679,-29.48883 17.94568,-62.88762 17.34302,-95.54555 C 308.4098,500.36604 279.06373,419.31083 226.89097,356.55003 183.96787,304.91604 126.00264,265.93835 61.990983,245.66597 l -35.56493,99.98896 c 32.394028,-6.81003 66.667118,-4.43494 97.812147,6.77831 31.14503,11.21324 59.06646,31.23023 79.6851,57.12658 30.38697,38.16506 44.15823,88.18373 42.12883,136.92612 -0.71404,17.14989 -3.38305,34.53843 -11.02736,49.907 -3.82216,7.68429 -8.87801,14.79496 -15.1801,20.62082 -6.3021,5.82587 -13.87021,10.34482 -22.11597,12.72486 -9.92956,2.86604 -20.65532,2.56254 -30.60975,-0.2159 -9.95443,-2.77844 -19.15248,-7.96835 -27.13262,-14.53553 -15.96026,-13.13436 -26.84645,-31.37062 -36.0203,-49.8931 -19.582879,-39.53886 -32.824852,-82.16778 -39.585217,-125.76948 -5.427698,-35.00652 -6.618352,-71.33239 3.126729,-105.39043 4.87254,-17.02902 12.481798,-33.34876 23.087253,-47.53514 10.605455,-14.18638 24.252545,-26.20302 40.063775,-34.18638 29.87328,-15.08354 66.25307,-14.77529 97.43849,-2.6346 31.18541,12.1407 57.33573,35.30442 76.54142,62.71003 23.5273,33.57235 37.14753,73.42675 43.21478,113.97086 6.06725,40.54411 4.82455,81.8833 0.51937,122.65218 -3.10345,29.38877 -7.78959,58.61035 -14.03136,87.49584 l 164.01333,4.12025 C 487.17378,620.29466 477.57381,599.18875 469.67098,577.4652 444.69119,508.79992 437.19922,432.04642 459.49626,362.46371 c 5.25354,-16.3948 12.15401,-32.36551 21.77548,-46.64194 9.62148,-14.27644 22.0554,-26.84255 37.01426,-35.36439 17.53013,-9.98666 38.26237,-14.1252 58.32767,-12.02224 20.06531,2.10295 39.38596,10.38163 55.00066,23.15738 17.28947,14.14603 29.9258,33.60135 37.16134,54.73621 7.23554,21.13487 9.19746,43.8951 7.1043,66.13592 -4.18631,44.48166 -24.10613,85.98329 -47.32869,124.15206 -24.45573,40.19562 -53.09329,78.11059 -87.55113,110.14851 -32.39425,30.11925 -69.79076,54.84568 -110.1904,72.85749 z"
   id="path1087-1-75"
   inkscape:path-effect="#path-effect1030"
   inkscape:original-d="m 572.38572,829.76245 c 12.76427,-34.18253 14.53257,-56.137 25.6405,-82.81444 33.5142,-80.48944 104.75988,-145.63441 122.83203,-230.92906 25.35203,-119.6533 70.67938,-291.24224 -26.12598,-365.99762 -62.86984,-48.54949 -171.99213,-5.62721 -234.26061,43.69128 -41.50526,32.87348 -64.10948,145.32777 -64.10948,145.32777 0,0 -15.18453,-77.63076 -41.44351,-104.25955 C 285.50992,164.39455 172.08193,83.226086 80.894423,121.39222 15.563583,148.7361 8.3743928,247.81841 0.96723278,318.25237 -9.8080472,420.71347 -0.03714722,535.53233 55.120423,622.54972 91.569203,680.05185 155.31261,755.80174 221.70304,740.72463 280.7396,727.31756 305.25066,642.32635 309.91564,581.96657 316.08581,502.13127 276.35488,419.51881 226.89097,356.55003 185.97361,304.46121 61.990983,245.66597 61.990983,245.66597 l -35.56493,99.98896 c 0,0 134.091257,18.40472 177.497247,63.90489 32.96233,34.55264 47.54746,89.48101 42.12883,136.92612 -3.64093,31.87973 -17.0143,76.23044 -48.32343,83.25268 -37.04222,8.3081 -71.21187,-34.10584 -93.76267,-64.64453 -26.107957,-35.35585 -40.365217,-81.82573 -39.585217,-125.76948 1.17429,-66.1574 6.6668,-158.39412 66.277757,-187.11195 55.27355,-26.62826 133.96268,13.56897 173.97991,60.07543 52.3165,60.80021 42.78161,156.41846 43.73415,236.62304 0.35078,29.53584 -14.03136,87.49584 -14.03136,87.49584 l 164.01333,4.12025 c 0,0 -23.2598,-40.61503 -28.68362,-63.06202 -16.8512,-69.74039 -30.50826,-146.19573 -10.17472,-215.00149 9.53206,-32.25511 28.15389,-68.12479 58.78974,-82.00633 34.57432,-15.66612 88.01026,-17.14572 113.32833,11.13514 54.48145,60.85701 24.334,168.07482 -3.06305,245.02419 -15.73151,44.18468 -52.96972,78.46425 -87.55113,110.14851 -32.46628,29.74634 -110.1904,72.85749 -110.1904,72.85749 z"
   sodipodi:nodetypes="caaaacaaaaaaaccaaaaaaaaccaaaaaacc" /></svg>
