<?xml version="1.0" encoding="UTF-8" standalone="no"?>
<svg
   xmlns:dc="http://purl.org/dc/elements/1.1/"
   xmlns:cc="http://creativecommons.org/ns#"
   xmlns:rdf="http://www.w3.org/1999/02/22-rdf-syntax-ns#"
   xmlns:svg="http://www.w3.org/2000/svg"
   xmlns="http://www.w3.org/2000/svg"
   xmlns:sodipodi="http://sodipodi.sourceforge.net/DTD/sodipodi-0.dtd"
   xmlns:inkscape="http://www.inkscape.org/namespaces/inkscape"
   xml:space="preserve"
   width="1000"
   height="1000"
   version="1.1"
   style="clip-rule:evenodd;fill-rule:evenodd;image-rendering:optimizeQuality;shape-rendering:geometricPrecision;text-rendering:geometricPrecision"
   viewBox="0 0 1000 1000"
   id="svg10"
   sodipodi:docname="പ_small.svg"
   inkscape:version="1.0.1 (3bc2e813f5, 2020-09-07)"><metadata
   id="metadata14"><rdf:RDF><cc:Work
       rdf:about=""><dc:format>image/svg+xml</dc:format><dc:type
         rdf:resource="http://purl.org/dc/dcmitype/StillImage" /><dc:title /></cc:Work></rdf:RDF></metadata><sodipodi:namedview
   pagecolor="#ffffff"
   bordercolor="#666666"
   borderopacity="1"
   objecttolerance="10"
   gridtolerance="10"
   guidetolerance="10"
   inkscape:pageopacity="0"
   inkscape:pageshadow="2"
   inkscape:window-width="1920"
   inkscape:window-height="1015"
   id="namedview12"
   showgrid="false"
   inkscape:zoom="0.79682018"
   inkscape:cx="365.69573"
   inkscape:cy="829.19089"
   inkscape:window-x="1920"
   inkscape:window-y="0"
   inkscape:window-maximized="1"
   inkscape:current-layer="svg10"
   showguides="true"
   inkscape:guide-bbox="true"
   inkscape:document-rotation="0"><sodipodi:guide
     position="0,1000"
     orientation="0,1"
     id="guide16"
     inkscape:label=""
     inkscape:locked="true"
     inkscape:color="rgb(0,0,255)" /><sodipodi:guide
     position="1763.3122,2036.1693"
     orientation="1000,0"
     id="guide18" /><sodipodi:guide
     position="0,200"
     orientation="0,1"
     id="guide20"
     inkscape:label="base"
     inkscape:locked="true"
     inkscape:color="rgb(0,0,255)" /><inkscape:grid
     type="xygrid"
     id="grid24"
     originx="-473.37552"
     originy="-489.69235" /><sodipodi:guide
     position="0,0"
     orientation="0,1"
     id="guide34"
     inkscape:label="bottom"
     inkscape:locked="true"
     inkscape:color="rgb(0,0,255)" /><sodipodi:guide
     position="225.05109,1693.3186"
     orientation="0,1"
     id="guide44"
     inkscape:label=""
     inkscape:locked="false"
     inkscape:color="rgb(0,0,255)" /><sodipodi:guide
     position="0,900"
     orientation="0,1"
     id="guide46"
     inkscape:label=""
     inkscape:locked="true"
     inkscape:color="rgb(0,0,255)" /><sodipodi:guide
     position="464.31319,529.5355"
     orientation="-1,0"
     id="guide841"
     inkscape:label="width"
     inkscape:locked="false"
     inkscape:color="rgb(0,0,255)" /><sodipodi:guide
     position="0,1000"
     orientation="0,1000"
     id="guide860" /><sodipodi:guide
     position="1000,1000"
     orientation="1000,0"
     id="guide862" /><sodipodi:guide
     position="1000,0"
     orientation="0,-1000"
     id="guide864" /><sodipodi:guide
     position="0,0"
     orientation="-1000,0"
     id="guide866" /></sodipodi:namedview>
 <defs
   id="defs4"><inkscape:path-effect
   effect="spiro"
   id="path-effect858"
   is_visible="true"
   lpeversion="1" /><inkscape:path-effect
   effect="spiro"
   id="path-effect854"
   is_visible="true"
   lpeversion="1" />
  <style
   type="text/css"
   id="style2">
   <![CDATA[
    .fil0 {fill:#EF7F1A;fill-rule:nonzero}
   ]]>
  </style>
 <inkscape:path-effect
   effect="spiro"
   id="path-effect1214"
   is_visible="true"
   lpeversion="1" /><inkscape:path-effect
   effect="spiro"
   id="path-effect1195"
   is_visible="true"
   lpeversion="1" /><inkscape:path-effect
   effect="spiro"
   id="path-effect992"
   is_visible="true"
   lpeversion="1" /><inkscape:path-effect
   effect="spiro"
   id="path-effect287"
   is_visible="true"
   lpeversion="1" /><inkscape:path-effect
   effect="spiro"
   id="path-effect1032"
   is_visible="true"
   lpeversion="1" /><inkscape:path-effect
   effect="spiro"
   id="path-effect1218"
   is_visible="true"
   lpeversion="1" /><inkscape:path-effect
   effect="spiro"
   id="path-effect309"
   is_visible="true"
   lpeversion="1" /></defs>
 
<path
   style="display:inline;fill:#1a1a1a;stroke:none;stroke-width:1.3005px;stroke-linecap:butt;stroke-linejoin:miter;stroke-opacity:1"
   d="M 44.965873,1095.2337 C 48.415892,1068.687 43.534839,1041.5684 34.511563,1016.365 27.055281,995.53844 16.816539,975.79066 9.4231479,954.94168 2.0297567,934.09271 -2.4745928,911.47715 2.0931029,889.8328 5.2526453,874.86108 12.718336,860.90741 22.949874,849.52976 33.181411,838.15212 46.122383,829.32265 60.205343,823.3389 c 24.577209,-10.44269 52.478987,-12.14832 78.589097,-6.54914 26.11012,5.59918 50.44472,18.28201 71.21421,35.06644 29.22134,23.61463 51.92761,56.1924 60.01801,92.8814 5.97867,27.11258 3.80574,55.9683 -6.16583,81.8798 16.33811,4.2105 33.38463,5.6581 50.19878,4.2629 13.51456,-1.1214 27.00332,-4.1184 39.13389,-10.1806 12.13057,-6.0622 22.86457,-15.3326 29.41279,-27.2079 6.90652,-12.52504 8.85952,-27.30914 7.90637,-41.58037 -0.95316,-14.27123 -4.65371,-28.20101 -8.47859,-41.98313 -18.17778,-65.4997 -39.80298,-131.80844 -36.15373,-199.68572 0.87354,-16.24807 3.20425,-32.41753 6.95502,-48.25087 h 111.42727 c -8.89731,12.27634 -16.47137,25.51104 -22.54881,39.40116 -16.65318,38.06124 -21.77556,80.44367 -19.74372,121.93894 2.03185,41.49528 10.98147,82.34416 21.51623,122.53129 5.13037,19.57091 10.67747,39.24575 11.55422,59.4589 0.87675,20.2132 -3.3835,41.3869 -16.0127,57.1934 -11.69477,14.637 -29.58023,23.3791 -47.94495,27.0865 -18.36473,3.7075 -37.3386,2.7991 -55.98517,0.9787 -36.88664,-3.6011 -73.79678,-10.7153 -110.72999,-7.6282 -15.76587,1.3178 -31.37513,4.4996 -46.39892,9.4579 L 166.28277,1000 c 4.505,3.3392 9.87738,5.4976 15.44041,6.2032 5.56303,0.7057 11.30415,-0.043 16.5002,-2.1516 8.55701,-3.4726 15.41543,-10.57937 19.32088,-18.94768 3.90544,-8.36832 4.97334,-17.90858 3.83164,-27.07252 -1.37384,-11.02728 -5.88166,-21.57957 -12.47523,-30.52458 -6.59357,-8.94502 -15.2313,-16.30465 -24.84891,-21.87152 -14.4095,-8.34052 -31.24777,-12.69381 -47.85117,-11.45896 -16.60341,1.23486 -32.87475,8.21152 -44.590642,20.04096 -14.259688,14.39789 -21.043969,35.15545 -20.900762,55.41914 0.143207,20.2637 6.723728,40.07156 16.164922,58.00206 12.777093,24.2659 30.925522,45.685 52.764112,62.2731 l -105.658357,43.2323 c 5.564697,-11.9785 9.28381,-24.8123 10.98601,-37.9102 z"
   id="use1061"
   sodipodi:nodetypes="aaaaaacaaaaccaaaaaccaaaaacca"
   inkscape:path-effect="#path-effect858"
   inkscape:original-d="m 44.965873,1095.2337 c 1.99078,-26.4447 -5.41206,-52.833 -10.45431,-78.8687 -8.27838,-42.7454 -42.5018001,-84.1762 -32.4184601,-126.5322 6.81714,-28.6361 30.2855301,-56.8934 58.1122401,-66.4939 48.051687,-16.5784 107.639657,0.1265 149.803307,28.5173 30.57625,20.5884 50.92464,57.1588 60.01801,92.8814 6.75199,26.5246 -6.16583,81.8798 -6.16583,81.8798 0,0 33.7652,7.7195 50.19878,4.2629 25.46952,-5.3571 55.33756,-14.9628 68.54668,-37.3885 14.13704,-24.0011 2.01403,-55.8287 -0.57222,-83.5635 -6.2805,-67.3519 -34.93769,-132.05258 -36.15373,-199.68572 -0.29212,-16.24722 6.95502,-48.25087 6.95502,-48.25087 h 111.42727 c 0,0 -18.71312,24.76298 -22.54881,39.40116 -20.65631,78.83081 3.03361,162.98773 1.77251,244.47023 -0.60217,38.9078 19.78564,86.2154 -4.45848,116.6523 -22.35738,28.0683 -68.21623,24.5726 -103.93012,28.0652 -36.82182,3.6009 -73.81343,-10.0739 -110.72999,-7.6282 -15.74982,1.0434 -46.39892,9.4579 -46.39892,9.4579 2.19863,-34.7351 7.05915,-49.4583 -11.68605,-92.4103 0,0 22.46747,9.0953 31.94061,4.0516 15.15746,-8.0703 24.46355,-28.8983 23.15252,-46.0202 -1.63715,-21.381 -17.82935,-43.4641 -37.32414,-52.3961 -28.13401,-12.8903 -71.12264,-13.8496 -92.441812,8.582 -26.068165,27.4284 -17.01901,77.6303 -4.73584,113.4212 8.83162,25.7337 52.764112,62.2731 52.764112,62.2731 l -105.658357,43.2323 c 5.34364,-12.0225 9.99835,-24.7907 10.98601,-37.9102 z" /></svg>
