<?xml version="1.0" encoding="UTF-8" standalone="no"?>
<svg
   xmlns:dc="http://purl.org/dc/elements/1.1/"
   xmlns:cc="http://creativecommons.org/ns#"
   xmlns:rdf="http://www.w3.org/1999/02/22-rdf-syntax-ns#"
   xmlns:svg="http://www.w3.org/2000/svg"
   xmlns="http://www.w3.org/2000/svg"
   xmlns:sodipodi="http://sodipodi.sourceforge.net/DTD/sodipodi-0.dtd"
   xmlns:inkscape="http://www.inkscape.org/namespaces/inkscape"
   xml:space="preserve"
   width="1000"
   height="1000"
   version="1.1"
   style="clip-rule:evenodd;fill-rule:evenodd;image-rendering:optimizeQuality;shape-rendering:geometricPrecision;text-rendering:geometricPrecision"
   viewBox="0 0 1000 1000"
   id="svg10"
   sodipodi:docname="പ്ര.svg"
   inkscape:version="1.0.2 (e86c870879, 2021-01-15)"><metadata
   id="metadata14"><rdf:RDF><cc:Work
       rdf:about=""><dc:format>image/svg+xml</dc:format><dc:type
         rdf:resource="http://purl.org/dc/dcmitype/StillImage" /><dc:title /></cc:Work></rdf:RDF></metadata><sodipodi:namedview
   pagecolor="#ffffff"
   bordercolor="#666666"
   borderopacity="1"
   objecttolerance="10"
   gridtolerance="10"
   guidetolerance="10"
   inkscape:pageopacity="0"
   inkscape:pageshadow="2"
   inkscape:window-width="1920"
   inkscape:window-height="1007"
   id="namedview12"
   showgrid="false"
   inkscape:zoom="0.56343695"
   inkscape:cx="251.53711"
   inkscape:cy="546.63134"
   inkscape:window-x="1920"
   inkscape:window-y="0"
   inkscape:window-maximized="1"
   inkscape:current-layer="svg10"
   showguides="true"
   inkscape:guide-bbox="true"
   inkscape:document-rotation="0"><sodipodi:guide
     position="0,1000"
     orientation="0,1"
     id="guide16"
     inkscape:label=""
     inkscape:locked="true"
     inkscape:color="rgb(0,0,255)" /><sodipodi:guide
     position="1763.3122,2036.1693"
     orientation="1000,0"
     id="guide18" /><sodipodi:guide
     position="0,200"
     orientation="0,1"
     id="guide20"
     inkscape:label="base"
     inkscape:locked="true"
     inkscape:color="rgb(0,0,255)" /><inkscape:grid
     type="xygrid"
     id="grid24"
     originx="-473.37552"
     originy="-489.69235" /><sodipodi:guide
     position="0,0"
     orientation="0,1"
     id="guide34"
     inkscape:label="bottom"
     inkscape:locked="true"
     inkscape:color="rgb(0,0,255)" /><sodipodi:guide
     position="225.05109,1693.3186"
     orientation="0,1"
     id="guide44"
     inkscape:label=""
     inkscape:locked="false"
     inkscape:color="rgb(0,0,255)" /><sodipodi:guide
     position="0,900"
     orientation="0,1"
     id="guide46"
     inkscape:label=""
     inkscape:locked="true"
     inkscape:color="rgb(0,0,255)" /><sodipodi:guide
     position="939.87153,554.2699"
     orientation="-1,0"
     id="guide841"
     inkscape:label="width"
     inkscape:locked="false"
     inkscape:color="rgb(0,0,255)" /><sodipodi:guide
     position="0,1000"
     orientation="0,1000"
     id="guide860" /><sodipodi:guide
     position="1000,0"
     orientation="0,-1000"
     id="guide864" /><sodipodi:guide
     position="0,0"
     orientation="-1000,0"
     id="guide866" /></sodipodi:namedview>
 <defs
   id="defs4"><inkscape:path-effect
   effect="fillet_chamfer"
   id="path-effect852"
   is_visible="true"
   lpeversion="1"
   satellites_param="F,0,0,1,0,0,0,1 @ F,0,0,1,0,0,0,1 @ F,0,0,1,0,0,0,1 @ F,0,0,1,0,0,0,1 @ F,0,0,1,0,0,0,1 @ F,0,0,1,0,0,0,1 @ F,0,0,1,0,0,0,1 @ F,0,0,1,0,0,0,1 @ F,0,1,1,0,31.238477,0,1 @ F,0,1,1,0,31.238477,0,1 @ F,0,0,1,0,0,0,1 @ F,0,0,1,0,0,0,1 @ F,0,0,1,0,0,0,1 @ F,0,0,1,0,0,0,1 @ F,0,0,1,0,0,0,1 @ F,0,0,1,0,0,0,1 @ F,0,0,1,0,0,0,1 @ F,0,0,1,0,0,0,1 @ F,0,0,1,0,0,0,1 @ F,0,0,1,0,0,0,1 @ F,0,1,1,0,31.238477,0,1 @ F,0,1,1,0,31.238477,0,1 @ F,0,0,1,0,0,0,1 @ F,0,0,1,0,0,0,1 @ F,0,0,1,0,0,0,1 @ F,0,0,1,0,0,0,1 @ F,0,0,1,0,0,0,1 @ F,0,0,1,0,0,0,1 @ F,0,0,1,0,0,0,1 @ F,0,0,1,0,0,0,1 @ F,0,0,1,0,0,0,1 @ F,0,0,1,0,0,0,1 @ F,0,0,1,0,0,0,1 @ F,0,0,1,0,0,0,1 @ F,0,0,1,0,0,0,1 @ F,0,0,1,0,0,0,1 @ F,0,0,1,0,0,0,1 @ F,0,0,1,0,0,0,1 @ F,0,1,1,0,31.238477,0,1 @ F,0,1,1,0,31.238477,0,1 @ F,0,0,1,0,0,0,1 @ F,0,0,1,0,0,0,1 @ F,0,0,1,0,0,0,1 @ F,0,0,1,0,0,0,1 @ F,0,0,1,0,0,0,1 @ F,0,0,1,0,0,0,1 @ F,0,0,1,0,0,0,1 @ F,0,0,1,0,0,0,1 @ F,0,0,1,0,0,0,1 @ F,0,0,1,0,0,0,1 @ F,0,1,1,0,31.238477,0,1 @ F,0,1,1,0,31.238477,0,1 @ F,0,0,1,0,0,0,1 @ F,0,0,1,0,0,0,1"
   unit="px"
   method="auto"
   mode="F"
   radius="0"
   chamfer_steps="1"
   flexible="false"
   use_knot_distance="true"
   apply_no_radius="true"
   apply_with_radius="true"
   only_selected="true"
   hide_knots="false" /><inkscape:path-effect
   effect="fillet_chamfer"
   id="path-effect851"
   is_visible="true"
   lpeversion="1"
   satellites_param="F,0,0,1,0,0,0,1 @ F,0,0,1,0,0,0,1 @ F,0,0,1,0,0,0,1 @ F,0,0,1,0,0,0,1 @ F,0,0,1,0,0,0,1 @ F,0,0,1,0,0,0,1 @ F,0,0,1,0,0,0,1 @ F,0,0,1,0,0,0,1 @ F,0,0,1,0,32.127839,0,1 @ F,0,0,1,0,39.869041,0,1 @ F,0,0,1,0,0,0,1 @ F,0,0,1,0,0,0,1 @ F,0,0,1,0,0,0,1 @ F,0,0,1,0,0,0,1 @ F,0,0,1,0,0,0,1 @ F,0,0,1,0,0,0,1 @ F,0,0,1,0,0,0,1 @ F,0,0,1,0,0,0,1 @ F,0,0,1,0,0,0,1 @ F,0,0,1,0,0,0,1 @ F,0,0,1,0,27.79051,0,1 @ F,0,0,1,0,27.049803,0,1 @ F,0,0,1,0,0,0,1 @ F,0,0,1,0,0,0,1 @ F,0,0,1,0,0,0,1 @ F,0,0,1,0,0,0,1 @ F,0,0,1,0,0,0,1 @ F,0,0,1,0,0,0,1 @ F,0,0,1,0,0,0,1 @ F,0,0,1,0,0,0,1 @ F,0,0,1,0,0,0,1 @ F,0,0,1,0,0,0,1 @ F,0,0,1,0,0,0,1 @ F,0,0,1,0,0,0,1 @ F,0,0,1,0,0,0,1 @ F,0,0,1,0,0,0,1 @ F,0,0,1,0,0,0,1 @ F,0,0,1,0,0,0,1 @ F,0,0,1,0,16.455782,0,1 @ F,0,0,1,0,28.263685,0,1 @ F,0,0,1,0,0,0,1 @ F,0,0,1,0,0,0,1 @ F,0,0,1,0,0,0,1 @ F,0,0,1,0,0,0,1 @ F,0,0,1,0,0,0,1 @ F,0,0,1,0,0,0,1 @ F,0,0,1,0,0,0,1 @ F,0,0,1,0,0,0,1 @ F,0,0,1,0,0,0,1 @ F,0,0,1,0,0,0,1 @ F,0,0,1,0,29.04618,0,1 @ F,0,0,1,0,32.698139,0,1 @ F,0,0,1,0,0,0,1 @ F,0,0,1,0,0,0,1"
   unit="px"
   method="auto"
   mode="F"
   radius="0"
   chamfer_steps="1"
   flexible="false"
   use_knot_distance="true"
   apply_no_radius="true"
   apply_with_radius="true"
   only_selected="true"
   hide_knots="false" /><inkscape:path-effect
   effect="spiro"
   id="path-effect858"
   is_visible="true"
   lpeversion="1" /><inkscape:path-effect
   effect="spiro"
   id="path-effect854"
   is_visible="true"
   lpeversion="1" />
  <style
   type="text/css"
   id="style2">
   <![CDATA[
    .fil0 {fill:#EF7F1A;fill-rule:nonzero}
   ]]>
  </style>
 <inkscape:path-effect
   effect="spiro"
   id="path-effect1214"
   is_visible="true"
   lpeversion="1" /><inkscape:path-effect
   effect="spiro"
   id="path-effect1195"
   is_visible="true"
   lpeversion="1" /><inkscape:path-effect
   effect="spiro"
   id="path-effect992"
   is_visible="true"
   lpeversion="1" /><inkscape:path-effect
   effect="spiro"
   id="path-effect287"
   is_visible="true"
   lpeversion="1" /><inkscape:path-effect
   effect="spiro"
   id="path-effect1032"
   is_visible="true"
   lpeversion="1" /><inkscape:path-effect
   effect="spiro"
   id="path-effect1218"
   is_visible="true"
   lpeversion="1" /><inkscape:path-effect
   effect="spiro"
   id="path-effect309"
   is_visible="true"
   lpeversion="1" /></defs>
 
<path
   style="display:inline;fill:#1a1a1a;stroke:none;stroke-width:2.10838px;stroke-linecap:butt;stroke-linejoin:miter;stroke-opacity:1"
   d="m 130.12498,725.32426 c 26.67004,63.98021 73.00805,119.03815 129.32344,159.45268 56.31539,40.41453 122.33453,66.46705 190.45346,79.29551 43.35578,8.16495 87.94368,11.08314 131.69311,5.39306 43.74943,-5.69008 86.6886,-20.19525 123.22844,-44.91832 25.61375,-17.33042 48.29709,-40.1452 60.93235,-68.3721 9.6743,-21.61218 13.12996,-45.96618 9.8497,-69.41652 -75.03783,-12.6141 -152.06443,-13.32288 -227.32168,-2.09176 -15.02248,2.2419 -29.97445,4.95607 -44.82657,8.13652 -16.86877,3.6123 -32.15038,-6.67877 -34.31487,-23.79499 l -11.10721,-87.83291 c -2.16449,-17.11622 6.33244,-22.80988 21.11296,-20.93497 9.01882,1.14402 18.32638,-0.0697 26.75025,-3.48822 13.87268,-5.62975 24.99159,-17.15133 31.32313,-30.71809 6.33154,-13.56676 8.06282,-29.0335 6.21191,-43.89013 -2.22727,-17.87752 -9.53537,-34.98499 -20.22492,-49.48672 -10.68954,-14.50173 -24.69312,-26.43323 -40.28526,-35.45829 -23.36079,-13.52171 -50.65913,-20.5793 -77.57669,-18.57734 -26.91756,2.00197 -53.29679,13.31259 -72.29068,32.49057 -23.1179,23.34196 -34.11662,56.99426 -33.88445,89.8459 0.23216,32.85164 10.90054,64.96434 26.20666,94.03335 15.86263,30.12592 36.83184,57.54532 61.68367,80.81368 12.58846,11.78636 10.91362,25.44046 -5.05396,31.97392 l -113.4704,46.42869 c -15.96758,6.53346 -22.77187,-0.83923 -17.90519,-17.37459 3.10576,-10.55235 5.38629,-21.34761 6.80392,-32.25583 5.59319,-43.03775 -2.32001,-87.00251 -16.94861,-127.86247 -12.08819,-33.7642 -28.68732,-65.77947 -40.67355,-99.58001 -11.98622,-33.80053 -19.2887,-70.46507 -11.8835,-105.55508 5.12228,-24.27225 17.22572,-46.89405 33.81317,-65.33955 16.58745,-18.44551 37.56744,-32.75991 60.39884,-42.46081 39.84476,-16.92976 85.07933,-19.69494 127.40925,-10.61752 42.32991,9.07742 81.78136,29.63891 115.45302,56.84996 47.37386,38.2842 84.18544,91.09951 97.30166,150.57999 9.69269,43.95515 6.16991,90.73633 -9.99609,132.74424 26.48747,6.82615 54.12341,9.17302 81.38265,6.91108 21.90991,-1.81806 43.77801,-6.67684 63.44418,-16.50492 19.66618,-9.82807 37.06821,-24.85744 47.68423,-44.10971 11.19689,-20.30568 14.3631,-44.27376 12.81784,-67.41038 -1.54526,-23.13662 -7.54462,-45.71966 -13.74553,-68.06333 -29.46993,-106.18862 -64.5289,-213.68884 -58.61271,-323.73201 0.85717,-15.94368 2.5798,-31.84066 5.15455,-47.59838 2.78152,-17.0232 20.10693,-30.6263 37.35947,-30.6263 h 112.16975 c 17.25254,0 23.76763,11.86617 16.13115,27.32972 -5.85981,11.86588 -11.02263,24.07599 -15.44895,36.54774 -22.31537,62.87659 -25.50556,131.07261 -20.95992,197.63671 4.54564,66.56409 16.5623,132.3785 23.83354,198.70022 10.31652,94.09799 10.28741,193.01167 -29.70588,278.81027 -33.88202,72.68794 -95.14605,131.06349 -166.68901,167.30068 -92.06935,46.634 -200.36226,57.3477 -301.66712,37.6292 C 330.0843,1031.4855 257.77812,1000.3127 196.37354,954.20413 134.96897,908.09558 84.650789,846.99675 52.704804,777.16857 21.044595,707.96505 7.7036258,631.37066 6.1752409,555.28412 4.646856,479.19759 14.614487,403.32124 27.868706,328.38245 39.64682,261.7895 54.036997,195.6586 70.993836,130.1925 75.319753,113.49122 92.994981,100 110.24751,100 h 114.802 c 17.25254,0 24.70078,12.36488 16.88628,27.74598 -24.8763,48.96351 -47.86884,98.88407 -68.90856,149.6146 -29.51662,71.16985 -55.3382,144.52758 -66.25412,220.79829 -10.915918,76.27071 -6.29294,156.04884 23.35187,227.16539 z"
   id="use1061"
   sodipodi:nodetypes="aaaacaccaaaaaccaaaaaacaaaaccaaaaaaaccaa"
   inkscape:path-effect="#path-effect858;#path-effect852"
   inkscape:original-d="m 130.12498,725.32426 c 53.87653,121.62504 190.68538,206.64356 319.7769,238.74819 83.44728,20.75306 179.39094,1.5754 254.92155,-39.52526 26.81477,-14.5915 48.08319,-40.68017 60.93235,-68.3721 9.83671,-21.19964 13.19926,-77.80988 9.8497,-69.41652 -59.69583,5.83784 -151.89306,-9.35075 -227.32168,-2.09176 C 522.81177,787.11815 473.06151,800 473.06151,800 c 3.56444,-56.31268 11.44435,-80.18214 -18.94551,-149.81623 0,0 36.42443,14.74543 51.78236,6.56847 24.57338,-13.08352 39.66049,-46.85012 37.53504,-74.60822 -2.65416,-34.66304 -28.90508,-70.46437 -60.51018,-84.94501 -45.61108,-20.89781 -115.30458,-22.45301 -149.86737,13.91323 -42.26192,44.46709 -27.59136,125.85476 -7.67779,183.87925 14.31789,41.71971 85.54158,100.95772 85.54158,100.95772 L 239.6255,866.03766 c 8.66315,-19.49098 16.20941,-40.19083 17.8106,-61.4603 3.22747,-42.87231 -8.77406,-85.65313 -16.94861,-127.86247 -13.42097,-69.29931 -68.90424,-136.46715 -52.55705,-205.13509 11.052,-46.42497 49.09914,-92.23589 94.21201,-107.80036 77.90176,-26.87701 174.50625,0.20515 242.86227,46.23244 49.57046,33.3781 82.55942,92.66631 97.30166,150.57999 10.94639,43.00199 -9.99609,132.74424 -9.99609,132.74424 0,0 54.74041,12.51484 81.38265,6.91108 41.29138,-8.68496 89.71368,-24.25785 111.12841,-60.61463 22.91907,-38.91077 3.26515,-90.50981 -0.92769,-135.47371 -10.182,-109.19137 -56.64126,-214.08465 -58.61271,-323.73201 -0.47359,-26.34013 11.27554,-78.22468 11.27554,-78.22468 H 931.2032 c 0,0 -25.41763,40.84038 -30.55628,63.87746 -28.76286,128.9468 9.40368,264.38263 2.87362,396.33693 -4.61959,93.34853 10.51375,194.44398 -29.70588,278.81027 -33.87636,71.06041 -95.99884,132.65827 -166.68901,167.30068 -90.99572,44.5932 -203.83481,64.0416 -301.66712,37.6292 C 262.69972,1007.6151 121.94394,907.82643 52.704804,777.16857 -17.449411,644.78391 15.521779,477.6971 27.868706,328.38245 34.297688,250.63507 56.646534,190.64094 79.009038,100 H 256.28799 c 0,0 -66.01718,114.36758 -83.26076,177.36058 -39.60491,144.68169 -103.656191,310.81304 -42.90225,447.96368 z" /></svg>
