<?xml version="1.0" encoding="UTF-8" standalone="no"?>
<svg
   xmlns:dc="http://purl.org/dc/elements/1.1/"
   xmlns:cc="http://creativecommons.org/ns#"
   xmlns:rdf="http://www.w3.org/1999/02/22-rdf-syntax-ns#"
   xmlns:svg="http://www.w3.org/2000/svg"
   xmlns="http://www.w3.org/2000/svg"
   xmlns:sodipodi="http://sodipodi.sourceforge.net/DTD/sodipodi-0.dtd"
   xmlns:inkscape="http://www.inkscape.org/namespaces/inkscape"
   xml:space="preserve"
   width="1000"
   height="1000"
   version="1.1"
   style="clip-rule:evenodd;fill-rule:evenodd;image-rendering:optimizeQuality;shape-rendering:geometricPrecision;text-rendering:geometricPrecision"
   viewBox="0 0 1000 1000"
   id="svg10"
   sodipodi:docname="ഫ.svg"
   inkscape:version="1.0.2 (e86c870879, 2021-01-15)"><metadata
   id="metadata14"><rdf:RDF><cc:Work
       rdf:about=""><dc:format>image/svg+xml</dc:format><dc:type
         rdf:resource="http://purl.org/dc/dcmitype/StillImage" /><dc:title /></cc:Work></rdf:RDF></metadata><sodipodi:namedview
   pagecolor="#ffffff"
   bordercolor="#666666"
   borderopacity="1"
   objecttolerance="10"
   gridtolerance="10"
   guidetolerance="10"
   inkscape:pageopacity="0"
   inkscape:pageshadow="2"
   inkscape:window-width="1920"
   inkscape:window-height="1007"
   id="namedview12"
   showgrid="false"
   inkscape:zoom="0.79682018"
   inkscape:cx="365.69573"
   inkscape:cy="527.9937"
   inkscape:window-x="1920"
   inkscape:window-y="0"
   inkscape:window-maximized="1"
   inkscape:current-layer="svg10"
   showguides="true"
   inkscape:guide-bbox="true"
   inkscape:document-rotation="0"><sodipodi:guide
     position="0,1000"
     orientation="0,1"
     id="guide16"
     inkscape:label=""
     inkscape:locked="true"
     inkscape:color="rgb(0,0,255)" /><sodipodi:guide
     position="1763.3122,2036.1693"
     orientation="1000,0"
     id="guide18" /><sodipodi:guide
     position="0,200"
     orientation="0,1"
     id="guide20"
     inkscape:label="base"
     inkscape:locked="true"
     inkscape:color="rgb(0,0,255)" /><inkscape:grid
     type="xygrid"
     id="grid24"
     originx="-473.37552"
     originy="-489.69235" /><sodipodi:guide
     position="0,0"
     orientation="0,1"
     id="guide34"
     inkscape:label="bottom"
     inkscape:locked="true"
     inkscape:color="rgb(0,0,255)" /><sodipodi:guide
     position="225.05109,1693.3186"
     orientation="0,1"
     id="guide44"
     inkscape:label=""
     inkscape:locked="false"
     inkscape:color="rgb(0,0,255)" /><sodipodi:guide
     position="0,900"
     orientation="0,1"
     id="guide46"
     inkscape:label=""
     inkscape:locked="true"
     inkscape:color="rgb(0,0,255)" /><sodipodi:guide
     position="870.56816,503.22191"
     orientation="-1,0"
     id="guide841"
     inkscape:label="width"
     inkscape:locked="false"
     inkscape:color="rgb(0,0,255)" /><sodipodi:guide
     position="0,1000"
     orientation="0,1000"
     id="guide860" /><sodipodi:guide
     position="1000,1000"
     orientation="1000,0"
     id="guide862" /><sodipodi:guide
     position="1000,0"
     orientation="0,-1000"
     id="guide864" /><sodipodi:guide
     position="0,0"
     orientation="-1000,0"
     id="guide866" /></sodipodi:namedview>
 <defs
   id="defs4"><inkscape:path-effect
   effect="fillet_chamfer"
   id="path-effect853"
   is_visible="true"
   lpeversion="1"
   satellites_param="F,0,0,1,0,0,0,1 @ F,0,0,1,0,0,0,1 @ F,0,0,1,0,0,0,1 @ F,0,0,1,0,0,0,1 @ F,0,0,1,0,0,0,1 @ F,0,0,1,0,0,0,1 @ F,0,0,1,0,0,0,1 @ F,0,0,1,0,0,0,1 @ F,0,0,1,0,0,0,1 @ F,0,0,1,0,0,0,1 @ F,0,0,1,0,0,0,1 @ F,0,0,1,0,0,0,1 @ F,0,0,1,0,0,0,1 @ F,0,0,1,0,0,0,1 @ F,0,0,1,0,0,0,1 @ F,0,0,1,0,0,0,1 @ F,0,0,1,0,0,0,1 @ F,0,0,1,0,0,0,1 @ F,0,0,1,0,24.961776,0,1 @ F,0,0,1,0,25.401338,0,1 @ F,0,0,1,0,0,0,1 @ F,0,0,1,0,0,0,1 @ F,0,0,1,0,0,0,1 @ F,0,0,1,0,0,0,1 @ F,0,0,1,0,0,0,1 @ F,0,0,1,0,0,0,1 @ F,0,0,1,0,0,0,1 @ F,0,0,1,0,0,0,1 @ F,0,0,1,0,0,0,1 @ F,0,0,1,0,0,0,1 @ F,0,0,1,0,0,0,1 @ F,0,0,1,0,0,0,1 @ F,0,0,1,0,0,0,1 @ F,0,1,1,0,24.961776,0,1 @ F,0,1,1,0,24.961776,0,1 @ F,0,0,1,0,0,0,1 @ F,0,0,1,0,0,0,1 @ F,0,0,1,0,0,0,1 @ F,0,0,1,0,0,0,1 @ F,0,0,1,0,0,0,1 @ F,0,0,1,0,0,0,1 @ F,0,0,1,0,0,0,1 @ F,0,0,1,0,0,0,1 @ F,0,0,1,0,0,0,1 @ F,0,0,1,0,24.825602,0,1 @ F,0,0,1,0,24.825602,0,1"
   unit="px"
   method="auto"
   mode="F"
   radius="0"
   chamfer_steps="1"
   flexible="false"
   use_knot_distance="true"
   apply_no_radius="true"
   apply_with_radius="true"
   only_selected="true"
   hide_knots="false" /><inkscape:path-effect
   effect="fillet_chamfer"
   id="path-effect852"
   is_visible="true"
   lpeversion="1"
   satellites_param="F,0,0,1,0,0,0,1 @ F,0,0,1,0,0,0,1 @ F,0,0,1,0,0,0,1 @ F,0,0,1,0,0,0,1 @ F,0,0,1,0,0,0,1 @ F,0,0,1,0,0,0,1 @ F,0,0,1,0,0,0,1 @ F,0,0,1,0,0,0,1 @ F,0,0,1,0,0,0,1 @ F,0,0,1,0,0,0,1 @ F,0,0,1,0,0,0,1 @ F,0,0,1,0,0,0,1 @ F,0,0,1,0,0,0,1 @ F,0,0,1,0,0,0,1 @ F,0,0,1,0,0,0,1 @ F,0,0,1,0,0,0,1 @ F,0,0,1,0,0,0,1 @ F,0,0,1,0,0,0,1 @ F,0,0,1,0,0,0,1 @ F,0,0,1,0,0,0,1 @ F,0,0,1,0,0,0,1 @ F,0,0,1,0,31.74681,0,1 @ F,0,0,1,0,26.341688,0,1 @ F,0,0,1,0,0,0,1 @ F,0,0,1,0,0,0,1 @ F,0,0,1,0,0,0,1 @ F,0,0,1,0,0,0,1 @ F,0,0,1,0,0,0,1 @ F,0,0,1,0,0,0,1 @ F,0,0,1,0,0,0,1 @ F,0,0,1,0,0,0,1 @ F,0,0,1,0,0,0,1 @ F,0,0,1,0,0,0,1 @ F,0,0,1,0,0,0,1 @ F,0,0,1,0,0,0,1 @ F,0,0,1,0,0,0,1 @ F,0,0,1,0,0,0,1 @ F,0,0,1,0,0,0,1 @ F,0,0,1,0,24.389539,0,1 @ F,0,0,1,0,24.060814,0,1 @ F,0,0,1,0,0,0,1 @ F,0,0,1,0,0,0,1 @ F,0,0,1,0,0,0,1 @ F,0,0,1,0,0,0,1 @ F,0,0,1,0,0,0,1 @ F,0,0,1,0,0,0,1 @ F,0,0,1,0,0,0,1 @ F,0,0,1,0,0,0,1 @ F,0,0,1,0,0,0,1 @ F,0,0,1,0,0,0,1 @ F,0,0,1,0,36.267682,0,1 @ F,0,0,1,0,24.053344,0,1"
   unit="px"
   method="auto"
   mode="F"
   radius="0"
   chamfer_steps="1"
   flexible="false"
   use_knot_distance="true"
   apply_no_radius="true"
   apply_with_radius="true"
   only_selected="true"
   hide_knots="false" /><inkscape:path-effect
   effect="spiro"
   id="path-effect858"
   is_visible="true"
   lpeversion="1" /><inkscape:path-effect
   effect="spiro"
   id="path-effect854"
   is_visible="true"
   lpeversion="1" />
  <style
   type="text/css"
   id="style2">
   <![CDATA[
    .fil0 {fill:#EF7F1A;fill-rule:nonzero}
   ]]>
  </style>
 <inkscape:path-effect
   effect="spiro"
   id="path-effect1214"
   is_visible="true"
   lpeversion="1" /><inkscape:path-effect
   effect="spiro"
   id="path-effect1195"
   is_visible="true"
   lpeversion="1" /><inkscape:path-effect
   effect="spiro"
   id="path-effect992"
   is_visible="true"
   lpeversion="1" /><inkscape:path-effect
   effect="spiro"
   id="path-effect287"
   is_visible="true"
   lpeversion="1" /><inkscape:path-effect
   effect="spiro"
   id="path-effect1032"
   is_visible="true"
   lpeversion="1" /><inkscape:path-effect
   effect="spiro"
   id="path-effect1218"
   is_visible="true"
   lpeversion="1" /><inkscape:path-effect
   effect="spiro"
   id="path-effect309"
   is_visible="true"
   lpeversion="1" /></defs>
 
<path
   style="display:inline;fill:#1a1a1a;fill-rule:nonzero;stroke:none;stroke-width:2.10838px;stroke-linecap:butt;stroke-linejoin:miter;stroke-opacity:1"
   d="M 11.147792,674.51273 C 7.7610877,616.99859 9.0720162,557.90658 29.032479,503.86098 44.992195,460.64793 73.059308,421.59911 110.47737,394.72964 c 29.68819,-21.31874 65.17276,-34.79708 101.6434,-37.19914 36.47063,-2.40206 73.80609,6.47625 104.58369,26.1896 28.42156,18.20429 50.80656,45.28426 64.78717,76.00435 13.98061,30.72009 19.69383,64.95399 18.04107,98.66526 -2.41977,49.35596 -20.74778,97.80826 -51.59944,136.40932 100.50781,22.59257 206.02137,22.62087 306.54128,0.0822 27.00632,-6.05538 54.82826,-14.36529 74.79809,-33.52813 20.56654,-19.73544 29.99087,-48.38411 34.99879,-76.4446 13.57452,-76.06105 -0.70643,-156.62335 -38.75625,-223.8674 -28.29336,-50.00182 -70.31608,-93.28789 -122.63345,-117.02792 -14.62456,-6.63618 -30.1565,-11.7623 -46.1877,-12.72017 -16.0312,-0.95786 -32.66353,2.51874 -45.76384,11.80844 -12.5936,8.93038 -21.20955,22.70613 -25.96086,37.39543 -4.75132,14.68929 -5.88969,30.31729 -5.70861,45.75483 0.93453,79.67149 36.1161,155.58461 82.49075,220.37514 15.31339,21.39451 31.90402,41.87457 49.65167,61.29735 9.29887,10.17656 7.10957,22.94868 -5.31472,28.92288 l -107.97044,51.91737 c -12.64307,6.07939 -22.0483,-0.34748 -22.005,-14.37381 0.075,-24.31364 -2.0706,-48.63437 -6.41409,-72.55718 -18.32664,-100.93832 -74.77638,-191.48857 -96.4083,-291.77052 -8.35718,-38.74248 -11.21281,-80.09044 2.54766,-117.2586 15.59035,-42.11081 52.51352,-75.22709 95.53187,-88.10346 43.68313,-13.075349 91.776,-5.941994 133.16534,13.19183 41.38934,19.13382 76.6838,49.5186 107.52249,83.10663 54.82634,59.71424 97.34795,131.10054 120.94303,208.65691 24.80033,81.51799 28.42944,168.6063 17.41572,253.09853 -2.00941,15.41529 -4.51276,30.83397 -9.18612,45.66058 -4.67337,14.82662 -11.59814,29.11079 -21.71184,40.91681 -11.23361,13.11333 -26.09487,22.7929 -41.97742,29.56772 -15.88254,6.77481 -32.81703,10.76373 -49.82609,13.73783 -132.7605,23.2137 -268.9486,-14.08906 -403.40065,-4.76857 -16.55328,1.14751 -33.05744,3.00285 -49.45253,5.55799 -13.62054,2.12273 -26.42091,-6.65142 -28.69892,-20.24791 l -12.79795,-76.38536 c -2.27801,-13.59649 7.1388,-26.09375 19.85887,-31.32536 11.42036,-4.69704 22.03106,-11.36853 31.15563,-19.69061 11.45856,-10.45079 20.61142,-23.52192 25.92626,-38.09141 5.31484,-14.5695 6.71639,-30.63344 3.39498,-45.78223 -3.01595,-13.75559 -9.89665,-26.61276 -19.506,-36.90707 -9.60935,-10.2943 -21.90753,-18.0188 -35.28443,-22.42003 -18.57161,-6.11037 -39.00896,-5.75827 -57.76331,-0.23421 -18.75436,5.52406 -35.84701,16.06868 -50.12844,29.4209 -29.95931,28.01003 -47.31439,68.25944 -50.35229,109.16045 -3.037914,40.90102 7.67276,82.24208 27.32357,118.24163 9.66687,17.70936 21.47918,34.24404 35.07699,49.14883 9.23697,10.1248 6.79767,20.06908 -6.53776,23.2554 L 61.970075,854.16377 C 48.634654,857.35009 35.294662,849.10825 32.508064,835.6839 21.48374,782.57455 14.336269,728.66052 11.147792,674.51273 Z"
   id="use1061"
   sodipodi:nodetypes="aaaaacaaaaaaaaccaaaaaaaaaaccaaaaacca"
   inkscape:path-effect="#path-effect858;#path-effect853"
   inkscape:original-d="M 11.147792,674.51273 C 10.047759,617.32785 8.201796,557.12826 29.032479,503.86098 45.563885,461.58762 70.45969,416.15181 110.47737,394.72964 171.1687,362.24053 257.5654,348.48443 316.70446,383.7201 c 55.35696,32.98224 80.21403,110.28493 82.82824,174.66961 1.97225,48.57411 -51.59944,136.40932 -51.59944,136.40932 0,0 206.61769,21.43908 306.54128,0.0822 26.71947,-5.71081 55.40119,-14.28486 74.79809,-33.52813 19.89542,-19.73785 31.3946,-48.65216 34.99879,-76.4446 9.73963,-75.10357 -3.10772,-157.04982 -38.75625,-223.8674 -26.59745,-49.85276 -70.28595,-95.75679 -122.63345,-117.02792 -28.39713,-11.53903 -66.62718,-18.18087 -91.95154,-0.91173 -24.50396,16.70969 -31.58445,53.49136 -31.66947,83.15026 -0.22484,78.43573 42.91226,152.65692 82.49075,220.37514 17.45663,29.86804 66.83312,79.40299 66.83312,79.40299 l -153.35892,73.74233 c 0,0 0.57633,-65.81516 -5.52678,-97.93871 -19.11829,-100.62859 -81.23286,-190.47231 -96.4083,-291.77052 -5.79223,-38.66396 -13.52858,-81.62145 2.54766,-117.2586 17.81286,-39.48682 52.93016,-80.25486 95.53187,-88.10346 84.98229,-15.656462 175.32751,39.77287 240.68783,96.29846 60.8061,52.58696 97.41604,131.78526 120.94303,208.65691 24.74862,80.86321 28.96883,169.32575 17.41572,253.09853 -4.18621,30.35459 -10.31787,63.8753 -30.89796,86.57739 -22.72468,25.06781 -58.74374,36.10432 -91.80351,43.30555 -131.39521,28.62107 -269.17247,-12.93347 -403.40065,-4.76857 -24.8506,1.51162 -74.02674,9.92871 -74.02674,9.92871 3.56444,-56.31268 9.34249,-55.98853 -21.04737,-125.62262 0,0 41.54551,-11.21675 55.13921,-26.39734 19.75742,-22.06385 35.34097,-54.87481 29.32124,-83.87364 -5.47135,-26.35711 -28.92326,-51.87576 -54.79043,-59.3271 -35.80084,-10.31284 -83.78332,0.78178 -107.89175,29.18669 -49.30084,58.08698 -44.37987,154.2666 -23.02872,227.40208 7.93519,27.18093 52.68515,66.63489 52.68515,66.63489 L 37.824159,859.93311 C 31.362593,799.22055 12.348754,736.94435 11.147792,674.51273 Z" /></svg>
