<?xml version="1.0" encoding="UTF-8" standalone="no"?>
<svg
   xmlns:dc="http://purl.org/dc/elements/1.1/"
   xmlns:cc="http://creativecommons.org/ns#"
   xmlns:rdf="http://www.w3.org/1999/02/22-rdf-syntax-ns#"
   xmlns:svg="http://www.w3.org/2000/svg"
   xmlns="http://www.w3.org/2000/svg"
   xmlns:sodipodi="http://sodipodi.sourceforge.net/DTD/sodipodi-0.dtd"
   xmlns:inkscape="http://www.inkscape.org/namespaces/inkscape"
   xml:space="preserve"
   width="1000"
   height="1000"
   version="1.1"
   style="clip-rule:evenodd;fill-rule:evenodd;image-rendering:optimizeQuality;shape-rendering:geometricPrecision;text-rendering:geometricPrecision"
   viewBox="0 0 1000 1000"
   id="svg10"
   sodipodi:docname="ബ.svg"
   inkscape:version="1.0.1 (3bc2e813f5, 2020-09-07)"><metadata
   id="metadata14"><rdf:RDF><cc:Work
       rdf:about=""><dc:format>image/svg+xml</dc:format><dc:type
         rdf:resource="http://purl.org/dc/dcmitype/StillImage" /><dc:title /></cc:Work></rdf:RDF></metadata><sodipodi:namedview
   pagecolor="#ffffff"
   bordercolor="#666666"
   borderopacity="1"
   objecttolerance="10"
   gridtolerance="10"
   guidetolerance="10"
   inkscape:pageopacity="0"
   inkscape:pageshadow="2"
   inkscape:window-width="1920"
   inkscape:window-height="1015"
   id="namedview12"
   showgrid="false"
   inkscape:zoom="0.678"
   inkscape:cx="433.59441"
   inkscape:cy="431.36681"
   inkscape:window-x="1920"
   inkscape:window-y="0"
   inkscape:window-maximized="1"
   inkscape:current-layer="svg10"
   showguides="true"
   inkscape:guide-bbox="true"
   inkscape:document-rotation="0"
   inkscape:snap-to-guides="true"><sodipodi:guide
     position="0,1000"
     orientation="0,1"
     id="guide16"
     inkscape:label=""
     inkscape:locked="true"
     inkscape:color="rgb(0,0,255)" /><sodipodi:guide
     position="1763.3122,2036.1693"
     orientation="1000,0"
     id="guide18" /><sodipodi:guide
     position="0,200"
     orientation="0,1"
     id="guide20"
     inkscape:label="base"
     inkscape:locked="true"
     inkscape:color="rgb(0,0,255)" /><inkscape:grid
     type="xygrid"
     id="grid24"
     originx="-473.37552"
     originy="-489.69235" /><sodipodi:guide
     position="0,0"
     orientation="0,1"
     id="guide34"
     inkscape:label="bottom"
     inkscape:locked="true"
     inkscape:color="rgb(0,0,255)" /><sodipodi:guide
     position="225.05109,1693.3186"
     orientation="0,1"
     id="guide44"
     inkscape:label=""
     inkscape:locked="false"
     inkscape:color="rgb(0,0,255)" /><sodipodi:guide
     position="0,900"
     orientation="0,1"
     id="guide46"
     inkscape:label=""
     inkscape:locked="true"
     inkscape:color="rgb(0,0,255)" /><sodipodi:guide
     position="1025.9905,546.40301"
     orientation="-1,0"
     id="guide841"
     inkscape:label="width"
     inkscape:locked="false"
     inkscape:color="rgb(0,0,255)" /><sodipodi:guide
     position="0,1000"
     orientation="0,1000"
     id="guide860" /><sodipodi:guide
     position="1001.0497,612.78754"
     orientation="1000,0"
     id="guide862" /><sodipodi:guide
     position="1000,0"
     orientation="0,-1000"
     id="guide864" /><sodipodi:guide
     position="0,0"
     orientation="-1000,0"
     id="guide866" /></sodipodi:namedview>
 <defs
   id="defs4"><inkscape:path-effect
   effect="spiro"
   id="path-effect859"
   is_visible="true"
   lpeversion="1" /><inkscape:path-effect
   effect="spiro"
   id="path-effect862"
   is_visible="true"
   lpeversion="1" /><inkscape:path-effect
   effect="spiro"
   id="path-effect1521"
   is_visible="true"
   lpeversion="1" /><inkscape:path-effect
   effect="spiro"
   id="path-effect858"
   is_visible="true"
   lpeversion="1" /><inkscape:path-effect
   effect="spiro"
   id="path-effect854"
   is_visible="true"
   lpeversion="1" />
  <style
   type="text/css"
   id="style2">
   <![CDATA[
    .fil0 {fill:#EF7F1A;fill-rule:nonzero}
   ]]>
  </style>
 <inkscape:path-effect
   effect="spiro"
   id="path-effect1214"
   is_visible="true"
   lpeversion="1" /><inkscape:path-effect
   effect="spiro"
   id="path-effect1195"
   is_visible="true"
   lpeversion="1" /><inkscape:path-effect
   effect="spiro"
   id="path-effect992"
   is_visible="true"
   lpeversion="1" /><inkscape:path-effect
   effect="spiro"
   id="path-effect287"
   is_visible="true"
   lpeversion="1" /><inkscape:path-effect
   effect="spiro"
   id="path-effect1032"
   is_visible="true"
   lpeversion="1" /><inkscape:path-effect
   effect="spiro"
   id="path-effect1218"
   is_visible="true"
   lpeversion="1" /><inkscape:path-effect
   effect="spiro"
   id="path-effect309"
   is_visible="true"
   lpeversion="1" /><inkscape:path-effect
   effect="spiro"
   id="path-effect1176"
   is_visible="true"
   lpeversion="1" /><inkscape:path-effect
   effect="spiro"
   id="path-effect1026"
   is_visible="true"
   lpeversion="1" /><inkscape:path-effect
   effect="spiro"
   id="path-effect1030"
   is_visible="true"
   lpeversion="1" /></defs>
 
<path
   style="display:inline;fill:#1a1a1a;fill-rule:nonzero;stroke:none;stroke-width:2.09522px;stroke-linecap:butt;stroke-linejoin:miter;stroke-opacity:1"
   d="m 456.03543,800 -12.9239,-100.8137 c 49.66788,-10.41668 97.52209,-29.42461 140.80075,-55.92674 37.28441,-22.83149 71.49215,-51.55688 96.62723,-87.32883 25.13508,-35.77195 40.80307,-78.95962 39.77605,-122.66717 -0.56694,-24.12747 -6.30479,-48.38961 -18.59644,-69.1591 -12.29164,-20.76949 -31.4047,-37.84115 -54.22623,-45.69188 -24.36276,-8.38092 -51.98737,-5.77544 -75.08231,5.64416 -23.09495,11.41961 -41.62763,31.26294 -52.8976,54.43127 -17.01192,34.97239 -17.55509,75.60509 -14.133,114.34477 2.6013,29.44802 7.2941,58.71109 14.03136,87.49584 l -144.52529,1.43831 c 3.93703,-19.98098 7.00608,-40.13296 9.19558,-60.38008 5.73966,-53.07673 5.05574,-108.58683 -16.45353,-157.44821 -14.11827,-32.07166 -36.89881,-60.11519 -64.6556,-81.50392 -18.23677,-14.05283 -38.85198,-25.39906 -61.19625,-30.94842 -22.34427,-5.54936 -46.51399,-5.04769 -67.8273,3.65889 -21.80853,8.90888 -39.65611,25.96314 -52.36838,45.7969 -12.71228,19.83377 -20.61377,42.39189 -26.351212,65.24057 -17.235627,68.63879 -15.467864,142.16322 6.557802,209.41811 11.63422,35.52483 29.91048,70.5436 60.32897,92.27109 12.67868,9.0562 27.27874,15.56943 42.65003,18.11641 15.37129,2.54697 31.50964,1.03569 45.83118,-5.10085 9.31454,-3.99113 17.85052,-9.9462 24.38765,-17.6893 6.53713,-7.7431 11.01869,-17.30396 12.23485,-27.36431 1.42675,-11.8024 -1.68739,-23.92488 -7.69282,-34.18486 -6.00543,-10.25998 -14.78188,-18.7295 -24.6564,-25.34964 -24.17266,-16.206 -55.64225,-21.27541 -83.51006,-12.88868 -19.70265,5.92945 -37.38834,18.36404 -49.63518,34.89788 -12.24684,16.53383 -18.98728,37.07572 -18.91715,57.65114 L 38,523.14029 c 36.165553,-31.42298 82.46065,-50.9987 130.19853,-55.05399 37.99803,-3.2279 77.50265,3.55638 109.99877,23.51312 22.41967,13.76852 40.96477,33.44784 54.70145,55.88703 13.73669,22.43919 22.75904,47.5905 27.9415,73.38499 5.65714,28.15712 6.76279,57.58049 -0.13388,85.45993 -6.89666,27.87943 -22.23248,54.14791 -45.23908,71.33869 -27.62025,20.63815 -64.59029,26.69254 -98.42816,20.07365 -33.83787,-6.61889 -64.62001,-25.0295 -89.74903,-48.63763 C 94.254249,718.06967 70.407526,678.24999 53.22892,636.30334 6.7932526,522.9169 8.037128,393.83394 39.491432,275.41358 49.72387,236.89011 63.318968,198.62816 86.377724,166.11578 109.43648,133.60341 142.97165,107.11367 182.0268,99.147761 c 36.46738,-7.438094 75.04708,1.859709 107.29343,20.443779 32.24635,18.58408 58.70345,45.88886 81.24988,75.50057 37.02057,48.62154 64.58182,104.41781 80.69664,163.366 4.05336,-19.69395 10.08197,-38.9808 17.96604,-57.47736 18.54514,-43.50813 48.2276,-83.20923 88.46626,-108.06341 20.11933,-12.42708 42.70153,-21.00843 66.12506,-24.25775 23.42353,-3.24933 47.67605,-1.09622 69.89217,7.00711 41.8213,15.25432 74.21956,51.03952 91.53923,92.0486 17.31967,41.00908 20.71794,86.82537 16.57828,131.14894 -11.69134,125.18002 -85.10645,243.10074 -192.27627,308.83776 41.52006,15.13612 86.21974,21.48578 130.31247,18.51108 44.63674,-3.0114 90.40042,-16.60617 122.34534,-47.92755 30.73457,-30.13465 45.43862,-73.68188 48.56211,-116.61152 3.12348,-42.92965 -4.26043,-85.8639 -12.05243,-128.19587 C 878.15042,321.7016 854.52321,210.48698 827.87858,100 h 195.33062 c -27.18782,56.816 -44.88823,118.1581 -52.1484,180.72427 -10.89141,93.85918 1.62698,188.76218 16.79348,282.02603 5.63527,34.65315 11.6606,69.60517 9.63928,104.6553 -2.02132,35.05012 -12.89782,70.78577 -36.99716,96.31651 -14.33134,15.18257 -32.77305,26.14908 -52.40515,33.2539 -19.63209,7.10483 -40.46371,10.46686 -61.30034,11.78317 -59.67816,3.77003 -118.99582,-8.93339 -178.48173,-15.02613 C 597.68523,786.49951 526.10964,788.61263 456.03543,800 Z"
   id="path1087-1-75"
   inkscape:path-effect="#path-effect1030"
   inkscape:original-d="m 456.03543,800 -12.9239,-100.8137 c 0,0 101.7375,-23.92116 140.80075,-55.92674 64.56544,-52.90024 135.94543,-126.52792 136.40328,-209.996 0.24865,-45.33006 -29.30033,-102.17494 -72.82267,-114.85098 -45.24618,-13.17812 -100.31309,21.92538 -127.97991,60.07543 -22.54676,31.08994 -14.82494,75.94604 -14.133,114.34477 0.53218,29.53313 14.03136,87.49584 14.03136,87.49584 l -144.52529,1.43831 c 0,0 8.71709,-40.02694 9.19558,-60.38008 1.24022,-52.75395 3.48038,-108.58967 -16.45353,-157.44821 -13.10011,-32.10871 -35.16976,-63.25106 -64.6556,-81.50392 -37.37723,-23.13794 -88.08419,-43.30172 -129.02355,-27.28953 -42.25332,16.52611 -65.62853,67.59695 -78.719592,111.03747 -20.151621,66.86982 -14.426812,142.805 6.557802,209.41811 11.04144,35.04968 29.36916,72.47504 60.32897,92.27109 25.11577,16.0593 60.6994,23.8264 88.48121,13.01556 18.0361,-7.01845 34.8368,-25.78262 36.6225,-45.05361 2.08389,-22.48887 -13.8774,-46.53896 -32.34922,-59.5345 -23.0364,-16.20688 -57.45955,-23.59895 -83.51006,-12.88868 -35.50708,14.59819 -68.55233,92.54902 -68.55233,92.54902 L 38,523.14029 c 16.819472,8.16166 83.28985,-50.59707 130.19853,-55.05399 37.32649,-3.54649 79.18685,2.14797 109.99877,23.51312 42.02837,29.14267 75.32555,78.65448 82.64295,129.27202 7.78479,53.8507 0.45764,127.47188 -45.37296,156.79862 C 262.02745,811.86591 180.69583,783.35518 127.2901,749.10608 89.426361,724.82406 66.929662,679.14689 53.22892,636.30334 16.561202,521.63985 1.511969,389.64929 39.491432,275.41358 63.330108,203.71093 108.12595,114.90266 182.0268,99.147761 250.994,84.44467 321.00494,144.93287 370.57011,195.09211 c 42.69066,43.20233 80.69664,163.366 80.69664,163.366 0,0 5.30818,-41.89806 17.96604,-57.47736 C 523.27213,234.4691 611.98128,149.90937 693.71628,175.6667 772.56227,200.51361 806.20347,316.31143 801.83379,398.86424 795.42387,519.9616 607.87253,588.24513 609.55752,707.702 c 0,0 54.45657,8.28873 130.31247,18.51108 51.06668,6.88176 95.05267,-13.67129 122.34534,-47.92755 51.4113,-64.52865 39.03763,-162.34117 36.50968,-244.80739 C 895.24308,319.89128 827.87858,100 827.87858,100 h 195.33062 c 0,0 -45.22034,118.409 -52.1484,180.72427 -10.40606,93.59851 20.36284,187.9185 16.79348,282.02603 -2.56244,67.55987 14.33302,147.74802 -27.35788,200.97181 -25.13884,32.09297 -73.37594,39.08334 -113.70549,45.03707 -59.06423,8.71947 -118.7995,-13.4001 -178.48173,-15.02613 C 597.54669,791.80514 456.03543,800 456.03543,800 Z"
   sodipodi:nodetypes="ccaaaaaccaaaaaaaaaaaccaaaaaaaaacaaacsaaccaaaaac" /></svg>
