<?xml version="1.0" encoding="UTF-8" standalone="no"?>
<svg
   xml:space="preserve"
   width="1000"
   height="1000"
   version="1.1"
   style="clip-rule:evenodd;fill-rule:evenodd;image-rendering:optimizeQuality;shape-rendering:geometricPrecision;text-rendering:geometricPrecision"
   viewBox="0 0 1000 1000"
   id="svg10"
   sodipodi:docname="ബ്ബ.svg"
   inkscape:version="1.1.2 (0a00cf5339, 2022-02-04)"
   xmlns:inkscape="http://www.inkscape.org/namespaces/inkscape"
   xmlns:sodipodi="http://sodipodi.sourceforge.net/DTD/sodipodi-0.dtd"
   xmlns="http://www.w3.org/2000/svg"
   xmlns:svg="http://www.w3.org/2000/svg"
   xmlns:rdf="http://www.w3.org/1999/02/22-rdf-syntax-ns#"
   xmlns:cc="http://creativecommons.org/ns#"
   xmlns:dc="http://purl.org/dc/elements/1.1/"><metadata
   id="metadata14"><rdf:RDF><cc:Work
       rdf:about=""><dc:format>image/svg+xml</dc:format><dc:type
         rdf:resource="http://purl.org/dc/dcmitype/StillImage" /></cc:Work></rdf:RDF></metadata><sodipodi:namedview
   pagecolor="#ffffff"
   bordercolor="#666666"
   borderopacity="1"
   objecttolerance="10"
   gridtolerance="10"
   guidetolerance="10"
   inkscape:pageopacity="0"
   inkscape:pageshadow="2"
   inkscape:window-width="1920"
   inkscape:window-height="1009"
   id="namedview12"
   showgrid="false"
   inkscape:zoom="0.9588368"
   inkscape:cx="517.81492"
   inkscape:cy="618.4577"
   inkscape:window-x="0"
   inkscape:window-y="0"
   inkscape:window-maximized="1"
   inkscape:current-layer="svg10"
   showguides="true"
   inkscape:guide-bbox="true"
   inkscape:document-rotation="0"
   inkscape:snap-to-guides="true"
   inkscape:pagecheckerboard="0"><sodipodi:guide
     position="0,1000"
     orientation="0,1"
     id="guide16"
     inkscape:label=""
     inkscape:locked="true"
     inkscape:color="rgb(0,0,255)" /><sodipodi:guide
     position="1763.3122,2036.1693"
     orientation="1000,0"
     id="guide18" /><sodipodi:guide
     position="0,200"
     orientation="0,1"
     id="guide20"
     inkscape:label="base"
     inkscape:locked="true"
     inkscape:color="rgb(0,0,255)" /><inkscape:grid
     type="xygrid"
     id="grid24"
     originx="-473.37552"
     originy="-489.69235" /><sodipodi:guide
     position="0,0"
     orientation="0,1"
     id="guide34"
     inkscape:label="bottom"
     inkscape:locked="true"
     inkscape:color="rgb(0,0,255)" /><sodipodi:guide
     position="225.05109,1693.3186"
     orientation="0,1"
     id="guide44"
     inkscape:label=""
     inkscape:locked="false"
     inkscape:color="rgb(0,0,255)" /><sodipodi:guide
     position="0,900"
     orientation="0,1"
     id="guide46"
     inkscape:label=""
     inkscape:locked="true"
     inkscape:color="rgb(0,0,255)" /><sodipodi:guide
     position="1025.9905,546.40301"
     orientation="-1,0"
     id="guide841"
     inkscape:label="width"
     inkscape:locked="false"
     inkscape:color="rgb(0,0,255)" /><sodipodi:guide
     position="0,1000"
     orientation="0,1000"
     id="guide860" /><sodipodi:guide
     position="1001.0497,612.78754"
     orientation="1000,0"
     id="guide862" /><sodipodi:guide
     position="1000,0"
     orientation="0,-1000"
     id="guide864" /><sodipodi:guide
     position="0,0"
     orientation="-1000,0"
     id="guide866" /></sodipodi:namedview>
 <defs
   id="defs4"><inkscape:path-effect
   effect="fillet_chamfer"
   id="path-effect5166"
   is_visible="true"
   lpeversion="1"
   satellites_param="F,0,0,1,0,0,0,1 @ F,0,0,1,0,0,0,1 @ F,0,1,1,0,19.048459,0,1 @ F,0,1,1,0,19.048459,0,1 @ F,0,0,1,0,0,0,1 @ F,0,0,1,0,0,0,1 @ F,0,0,1,0,0,0,1 @ F,0,0,1,0,0,0,1 @ F,0,0,1,0,0,0,1 @ F,0,0,1,0,0,0,1 @ F,0,0,1,0,0,0,1 @ F,0,0,1,0,0,0,1 @ F,0,0,1,0,19.048459,0,1 @ F,0,1,1,0,19.048459,0,1 @ F,0,0,1,0,0,0,1 @ F,0,0,1,0,0,0,1 @ F,0,0,1,0,0,0,1 @ F,0,0,1,0,0,0,1 @ F,0,0,1,0,0,0,1 @ F,0,0,1,0,0,0,1 @ F,0,0,1,0,0,0,1 @ F,0,0,1,0,0,0,1 @ F,0,0,1,0,0,0,1 @ F,0,0,1,0,0,0,1 @ F,0,0,1,0,0,0,1 @ F,0,0,1,0,0,0,1 @ F,0,0,1,0,0,0,1 @ F,0,0,1,0,0,0,1 @ F,0,0,1,0,0,0,1 @ F,0,0,1,0,0,0,1 @ F,0,0,1,0,0,0,1 @ F,0,0,1,0,0,0,1 @ F,0,0,1,0,0,0,1 @ F,0,0,1,0,0,0,1 @ F,0,0,1,0,0,0,1 @ F,0,0,1,0,0,0,1 @ F,0,0,1,0,0,0,1 @ F,0,0,1,0,0,0,1 @ F,0,0,1,0,0,0,1 @ F,0,0,1,0,0,0,1 @ F,0,0,1,0,0,0,1 @ F,0,0,1,0,0,0,1 @ F,0,0,1,0,0,0,1 @ F,0,0,1,0,0,0,1 @ F,0,0,1,0,0,0,1 @ F,0,0,1,0,0,0,1 @ F,0,0,1,0,0,0,1 @ F,0,0,1,0,0,0,1 @ F,0,0,1,0,0,0,1 @ F,0,0,1,0,0,0,1 @ F,0,0,1,0,0,0,1 @ F,0,0,1,0,0,0,1 @ F,0,0,1,0,0,0,1 @ F,0,0,1,0,0,0,1 @ F,0,0,1,0,0,0,1 @ F,0,0,1,0,0,0,1 @ F,0,0,1,0,0,0,1 @ F,0,0,1,0,0,0,1 @ F,0,0,1,0,0,0,1 @ F,0,0,1,0,0,0,1 @ F,0,0,1,0,0,0,1 @ F,0,0,1,0,0,0,1 @ F,0,0,1,0,0,0,1 @ F,0,0,1,0,0,0,1 @ F,0,0,1,0,0,0,1 @ F,0,1,1,0,19.048459,0,1 @ F,0,1,1,0,19.048459,0,1 @ F,0,0,1,0,0,0,1 @ F,0,0,1,0,0,0,1 @ F,0,0,1,0,0,0,1 @ F,0,0,1,0,0,0,1 @ F,0,0,1,0,0,0,1 @ F,0,0,1,0,0,0,1 @ F,0,0,1,0,0,0,1 @ F,0,1,1,0,19.048459,0,1 @ F,0,1,1,0,19.048459,0,1 @ F,0,0,1,0,0,0,1 @ F,0,0,1,0,0,0,1 @ F,0,0,1,0,0,0,1 @ F,0,0,1,0,0,0,1 @ F,0,0,1,0,0,0,1 @ F,0,0,1,0,0,0,1 @ F,0,0,1,0,0,0,1 @ F,0,0,1,0,0,0,1 @ F,0,0,1,0,0,0,1 @ F,0,0,1,0,0,0,1 @ F,0,0,1,0,0,0,1"
   unit="px"
   method="auto"
   mode="F"
   radius="0"
   chamfer_steps="1"
   flexible="false"
   use_knot_distance="true"
   apply_no_radius="true"
   apply_with_radius="true"
   only_selected="false"
   hide_knots="false" /><inkscape:path-effect
   effect="fillet_chamfer"
   id="path-effect861"
   is_visible="true"
   lpeversion="1"
   satellites_param="F,0,1,1,0,13.062111,0,1 @ F,0,1,1,0,13.062111,0,1 @ F,0,0,1,0,0,0,1 @ F,0,0,1,0,0,0,1 @ F,0,0,1,0,0,0,1 @ F,0,0,1,0,0,0,1 @ F,0,0,1,0,0,0,1 @ F,0,0,1,0,0,0,1 @ F,0,0,1,0,0,0,1 @ F,0,0,1,0,0,0,1 @ F,0,1,1,0,13.062111,0,1 @ F,0,1,1,0,13.062111,0,1 @ F,0,0,1,0,0,0,1 @ F,0,0,1,0,0,0,1 @ F,0,0,1,0,0,0,1 @ F,0,0,1,0,0,0,1 @ F,0,0,1,0,0,0,1 @ F,0,0,1,0,0,0,1 @ F,0,0,1,0,0,0,1 @ F,0,0,1,0,0,0,1 @ F,0,0,1,0,0,0,1 @ F,0,0,1,0,0,0,1 @ F,0,0,1,0,0,0,1 @ F,0,0,1,0,0,0,1 @ F,0,0,1,0,0,0,1 @ F,0,0,1,0,0,0,1 @ F,0,0,1,0,0,0,1 @ F,0,0,1,0,0,0,1 @ F,0,0,1,0,0,0,1 @ F,0,0,1,0,0,0,1 @ F,0,0,1,0,0,0,1 @ F,0,0,1,0,0,0,1 @ F,0,0,1,0,0,0,1 @ F,0,0,1,0,0,0,1 @ F,0,0,1,0,0,0,1 @ F,0,0,1,0,0,0,1 @ F,0,0,1,0,0,0,1 @ F,0,0,1,0,0,0,1 @ F,0,0,1,0,0,0,1 @ F,0,0,1,0,0,0,1 @ F,0,0,1,0,0,0,1 @ F,0,0,1,0,0,0,1 @ F,0,0,1,0,0,0,1 @ F,0,0,1,0,0,0,1 @ F,0,0,1,0,0,0,1 @ F,0,0,1,0,0,0,1 @ F,0,0,1,0,0,0,1 @ F,0,0,1,0,0,0,1 @ F,0,0,1,0,0,0,1 @ F,0,0,1,0,0,0,1 @ F,0,0,1,0,0,0,1 @ F,0,0,1,0,0,0,1 @ F,0,0,1,0,0,0,1 @ F,0,0,1,0,0,0,1 @ F,0,0,1,0,0,0,1 @ F,0,0,1,0,0,0,1 @ F,0,0,1,0,0,0,1 @ F,0,0,1,0,0,0,1 @ F,0,0,1,0,0,0,1 @ F,0,0,1,0,0,0,1 @ F,0,0,1,0,0,0,1 @ F,0,0,1,0,0,0,1 @ F,0,0,1,0,0,0,1 @ F,0,1,1,0,13.062111,0,1 @ F,0,1,1,0,13.062111,0,1 @ F,0,0,1,0,0,0,1 @ F,0,0,1,0,0,0,1 @ F,0,0,1,0,0,0,1 @ F,0,0,1,0,0,0,1 @ F,0,0,1,0,0,0,1 @ F,0,0,1,0,0,0,1 @ F,0,0,1,0,0,0,1"
   unit="px"
   method="auto"
   mode="F"
   radius="0"
   chamfer_steps="1"
   flexible="false"
   use_knot_distance="true"
   apply_no_radius="true"
   apply_with_radius="true"
   only_selected="true"
   hide_knots="false" /><inkscape:path-effect
   effect="fillet_chamfer"
   id="path-effect860"
   is_visible="true"
   lpeversion="1"
   satellites_param="F,0,0,1,0,26.432937,0,1 @ F,0,0,1,0,25.309377,0,1 @ F,0,0,1,0,0,0,1 @ F,0,0,1,0,0,0,1 @ F,0,0,1,0,0,0,1 @ F,0,0,1,0,0,0,1 @ F,0,0,1,0,0,0,1 @ F,0,0,1,0,0,0,1 @ F,0,0,1,0,0,0,1 @ F,0,0,1,0,0,0,1 @ F,0,0,1,0,25.987297,0,1 @ F,0,0,1,0,30.851032,0,1 @ F,0,0,1,0,0,0,1 @ F,0,0,1,0,0,0,1 @ F,0,0,1,0,0,0,1 @ F,0,0,1,0,0,0,1 @ F,0,0,1,0,0,0,1 @ F,0,0,1,0,0,0,1 @ F,0,0,1,0,0,0,1 @ F,0,0,1,0,0,0,1 @ F,0,0,1,0,0,0,1 @ F,0,0,1,0,0,0,1 @ F,0,0,1,0,0,0,1 @ F,0,0,1,0,0,0,1 @ F,0,0,1,0,0,0,1 @ F,0,0,1,0,0,0,1 @ F,0,0,1,0,0,0,1 @ F,0,0,1,0,0,0,1 @ F,0,0,1,0,0,0,1 @ F,0,0,1,0,0,0,1 @ F,0,0,1,0,0,0,1 @ F,0,0,1,0,0,0,1 @ F,0,0,1,0,0,0,1 @ F,0,0,1,0,0,0,1 @ F,0,0,1,0,0,0,1 @ F,0,0,1,0,0,0,1 @ F,0,0,1,0,0,0,1 @ F,0,0,1,0,0,0,1 @ F,0,0,1,0,0,0,1 @ F,0,0,1,0,0,0,1 @ F,0,0,1,0,0,0,1 @ F,0,0,1,0,0,0,1 @ F,0,0,1,0,0,0,1 @ F,0,0,1,0,0,0,1 @ F,0,0,1,0,0,0,1 @ F,0,0,1,0,0,0,1 @ F,0,0,1,0,0,0,1 @ F,0,0,1,0,0,0,1 @ F,0,0,1,0,0,0,1 @ F,0,0,1,0,0,0,1 @ F,0,0,1,0,0,0,1 @ F,0,0,1,0,0,0,1 @ F,0,0,1,0,0,0,1 @ F,0,0,1,0,0,0,1 @ F,0,0,1,0,0,0,1 @ F,0,0,1,0,0,0,1 @ F,0,0,1,0,0,0,1 @ F,0,0,1,0,26.865911,0,1 @ F,0,0,1,0,45.02054,0,1 @ F,0,0,1,0,0,0,1 @ F,0,0,1,0,0,0,1 @ F,0,0,1,0,0,0,1 @ F,0,0,1,0,0,0,1 @ F,0,0,1,0,0,0,1 @ F,0,0,1,0,0,0,1 @ F,0,0,1,0,0,0,1"
   unit="px"
   method="auto"
   mode="F"
   radius="0"
   chamfer_steps="1"
   flexible="false"
   use_knot_distance="true"
   apply_no_radius="true"
   apply_with_radius="true"
   only_selected="true"
   hide_knots="false" /><inkscape:path-effect
   effect="spiro"
   id="path-effect859"
   is_visible="true"
   lpeversion="1" /><inkscape:path-effect
   effect="spiro"
   id="path-effect862"
   is_visible="true"
   lpeversion="1" /><inkscape:path-effect
   effect="spiro"
   id="path-effect1521"
   is_visible="true"
   lpeversion="1" /><inkscape:path-effect
   effect="spiro"
   id="path-effect858"
   is_visible="true"
   lpeversion="1" /><inkscape:path-effect
   effect="spiro"
   id="path-effect854"
   is_visible="true"
   lpeversion="1" />
  <style
   type="text/css"
   id="style2">
   
    .fil0 {fill:#EF7F1A;fill-rule:nonzero}
   
  </style>
 <inkscape:path-effect
   effect="spiro"
   id="path-effect1214"
   is_visible="true"
   lpeversion="1" /><inkscape:path-effect
   effect="spiro"
   id="path-effect1195"
   is_visible="true"
   lpeversion="1" /><inkscape:path-effect
   effect="spiro"
   id="path-effect992"
   is_visible="true"
   lpeversion="1" /><inkscape:path-effect
   effect="spiro"
   id="path-effect287"
   is_visible="true"
   lpeversion="1" /><inkscape:path-effect
   effect="spiro"
   id="path-effect1032"
   is_visible="true"
   lpeversion="1" /><inkscape:path-effect
   effect="spiro"
   id="path-effect1218"
   is_visible="true"
   lpeversion="1" /><inkscape:path-effect
   effect="spiro"
   id="path-effect309"
   is_visible="true"
   lpeversion="1" /><inkscape:path-effect
   effect="spiro"
   id="path-effect1176"
   is_visible="true"
   lpeversion="1" /><inkscape:path-effect
   effect="spiro"
   id="path-effect1026"
   is_visible="true"
   lpeversion="1" /><inkscape:path-effect
   effect="spiro"
   id="path-effect1030"
   is_visible="true"
   lpeversion="1" /><inkscape:path-effect
   effect="spiro"
   id="path-effect842"
   is_visible="true"
   lpeversion="1" /><inkscape:path-effect
   effect="fillet_chamfer"
   id="path-effect934"
   is_visible="true"
   lpeversion="1"
   satellites_param="F,0,0,1,0,13.871628,0,1 @ F,0,0,1,0,0,0,1 @ F,0,0,1,0,0,0,1 @ F,0,0,1,0,0,0,1 @ F,0,0,1,0,0,0,1 @ F,0,0,1,0,0,0,1 @ F,0,1,1,0,13.871628,0,1 @ F,0,0,1,0,0,0,1 @ F,0,0,1,0,0,0,1 @ F,0,0,1,0,0,0,1 @ F,0,0,1,0,0,0,1 @ F,0,0,1,0,0,0,1 @ F,0,0,1,0,0,0,1 @ F,0,0,1,0,0,0,1 @ F,0,0,1,0,0,0,1 @ F,0,0,1,0,0,0,1 @ F,0,1,1,0,13.871628,0,1 @ F,0,1,1,0,13.871628,0,1 @ F,0,0,1,0,0,0,1 @ F,0,0,1,0,0,0,1 @ F,0,0,1,0,0,0,1 @ F,0,0,1,0,0,0,1 @ F,0,0,1,0,0,0,1 @ F,0,0,1,0,0,0,1 @ F,0,0,1,0,0,0,1 @ F,0,0,1,0,0,0,1 @ F,0,1,1,0,13.871628,0,1"
   unit="px"
   method="auto"
   mode="F"
   radius="0"
   chamfer_steps="1"
   flexible="false"
   use_knot_distance="true"
   apply_no_radius="true"
   apply_with_radius="true"
   only_selected="false"
   hide_knots="false" /></defs>

<path
   style="display:inline;fill:#63452c;fill-rule:nonzero;stroke:none;stroke-width:2.09522px;stroke-linecap:butt;stroke-linejoin:miter;stroke-opacity:1"
   d="m 935.55221,764.83687 c -110.5425,13.84484 -221.58152,23.72494 -332.83183,29.61492 -44.06071,2.33273 -88.15455,4.03979 -132.26373,5.12054 -10.51701,0.25769 -21.34893,-7.78313 -24.19265,-17.91167 l -19.86733,-70.76184 c -2.84372,-10.12854 3.34628,-19.15901 13.74403,-20.752 46.97159,-7.19628 92.59635,-23.15935 133.77158,-46.88726 37.98555,-21.88981 72.4809,-50.67669 97.50439,-86.67518 25.02348,-35.99848 40.18151,-79.49822 38.89889,-123.32082 -0.70553,-24.10537 -6.4582,-48.32467 -18.72098,-69.0898 -12.26278,-20.76513 -31.31215,-37.87428 -54.10169,-45.76118 -24.35474,-8.42858 -51.99947,-5.8319 -75.0984,5.59762 -23.09892,11.42952 -41.62139,31.29584 -52.88151,54.47781 -16.99095,34.98042 -17.53471,75.60525 -14.133,114.34477 2.2838,26.00851 6.19133,51.87425 11.68931,77.39736 2.21526,10.28388 -4.22555,18.14934 -14.73366,17.64567 l -108.42296,-5.1969 c -10.50811,-0.50367 -16.38845,-9.0297 -13.73935,-19.20958 3.73471,-14.3516 6.57474,-28.93606 8.49506,-43.64081 6.88253,-52.70267 1.54725,-107.77809 -21.04028,-155.88988 -14.87267,-31.67902 -37.09573,-59.93518 -64.6556,-81.50392 -18.14588,-14.20122 -38.78211,-25.59045 -61.1521,-31.11596 -22.36999,-5.52551 -46.5602,-4.93589 -67.87145,3.82643 -21.78278,8.9562 -39.6112,26.00742 -52.32744,45.83165 -12.716238,19.82423 -20.639989,42.36692 -26.392152,65.20582 -17.284843,68.6293 -15.47783,142.16354 6.557802,209.41811 11.63892,35.52295 29.91148,70.54274 60.32897,92.27109 12.67841,9.05667 27.27857,15.57001 42.64993,18.1169 15.37136,2.54689 31.50974,1.03534 45.83128,-5.10134 9.3145,-3.9912 17.85045,-9.94627 24.38759,-17.68936 6.53713,-7.74308 11.01872,-17.30391 12.23491,-27.36425 1.42678,-11.8024 -1.68736,-23.92489 -7.69279,-34.18487 -6.00544,-10.25998 -14.78191,-18.72949 -24.65643,-25.34963 -24.17267,-16.20598 -55.64225,-21.2754 -83.51006,-12.88868 -19.70265,5.92945 -37.38835,18.36403 -49.63519,34.89787 -12.24684,16.53384 -18.987274,37.07573 -18.91714,57.65115 L 28,523.14029 c 36.165532,-31.42301 82.46064,-50.99873 130.19853,-55.05399 37.99802,-3.22787 77.50261,3.55645 109.99877,23.51312 22.41971,13.76848 40.96491,33.44774 54.70164,55.88692 13.73673,22.43919 22.75907,47.59054 27.94131,73.3851 5.65688,28.15705 6.76206,57.5803 -0.13473,85.45958 -6.89679,27.87928 -22.23229,54.14757 -45.23823,71.33904 -27.62004,20.6394 -64.59045,26.69588 -98.42902,20.07754 C 173.1997,791.12925 142.41685,772.71748 117.2901,749.10608 84.258326,718.06639 60.421823,678.24335 43.22892,636.30334 -3.2524153,522.91773 -2.2296396,393.77989 29.491432,275.41358 39.799505,236.94929 53.509003,198.77742 76.581614,166.3211 99.654224,133.86478 133.06694,107.38714 172.0268,99.147761 c 37.50489,-7.931671 77.30892,1.679089 110.46557,20.918759 33.15665,19.23966 60.26449,47.50032 83.44415,78.03278 57.32048,75.50307 92.87836,167.3359 101.35129,261.75285 l -55.6463,-3.4688 c 8.45066,-48.77306 23.89294,-96.32924 45.70797,-140.76267 21.33092,-43.44738 49.56094,-84.74474 88.94075,-112.8857 19.6899,-14.07049 42.01874,-24.64946 65.67805,-29.73945 23.6593,-5.08999 48.6597,-4.58148 71.748,2.67117 21.39631,6.72115 40.85369,19.13144 56.69146,35.01038 15.83777,15.87895 28.10325,35.16468 36.7088,55.87508 17.21109,41.42079 19.66963,87.73207 14.71725,132.31208 -9.22334,83.02606 -43.64926,162.65385 -95.33786,228.27918 -50.4701,64.0783 -117.37477,115.10171 -192.52163,146.8225 l -24.24295,-57.25019 c 82.19687,16.22647 166.94801,19.44433 250.13864,9.49735 22.1873,-2.6529 44.39339,-6.26697 65.52424,-13.53345 21.13085,-7.26647 41.25933,-18.35834 56.8211,-34.3941 16.00647,-16.494 26.64421,-37.69091 32.79803,-59.83565 6.15382,-22.14474 8.0026,-45.28412 8.06045,-68.26793 C 893.33712,445.56179 857.32667,344.12617 849.20109,239.8217 845.53622,192.77738 847.599,145.29079 855.3074,98.738386 857.02591,88.36 866.9728,82.171623 877.1462,84.850456 l 120.42374,31.709684 c 10.17336,2.67884 14.47136,12.41334 9.99516,21.93303 -27.47674,58.43548 -43.87501,122.07011 -47.97923,186.51611 -6.62908,104.09235 18.3942,207.51698 22.49658,311.73949 1.90723,48.45389 -0.71527,96.98494 0.5458,145.45995 1.36179,52.34666 7.10973,105.93521 -7.69996,156.1617 -3.96103,13.43367 -9.51204,26.68949 -18.69645,37.26304 -11.40427,13.12916 -27.71954,21.23944 -44.5626,25.56884 -16.84306,4.3294 -34.36201,5.1684 -51.74044,5.8184 -100.37022,3.7541 -200.94982,1.9023 -301.11395,-5.5419 -10.49122,-0.7797 -22.35796,-9.31428 -26.51141,-18.97983 l -17.87688,-41.60159 c -4.15345,-9.66555 0.10842,-21.32469 9.26444,-26.50375 38.507,-21.78131 73.6104,-49.57703 103.60623,-82.09776 24.876,-26.96994 46.24966,-57.16661 63.41578,-89.59372 l 104.10417,-5.95997 c -28.345,47.28499 -61.03247,91.96568 -97.51672,133.29616 -35.62368,40.35561 -74.86542,77.51618 -117.1005,110.89013 l -32.74118,-45.54452 c 67.9176,3.42043 136.00752,3.4168 203.92475,-0.0109 19.51606,-0.98495 39.16291,-2.27496 58.06683,-7.22353 18.90393,-4.94857 37.20733,-13.81734 50.61062,-28.03699 13.39022,-14.2058 21.11884,-32.85147 26.26598,-51.68255 10.70629,-39.16951 11.28681,-81.06131 1.67002,-120.51245 z"
   id="path1087-1-75"
   inkscape:path-effect="#path-effect1030;#path-effect5166"
   inkscape:original-d="m 935.55221,764.83687 c -45.47177,-0.0215 -287.48669,28.94574 -332.83183,29.61492 -50.4642,0.74472 -116.5896,6.78518 -151.30737,5.54821 L 421.24766,692.55948 c 0,0 110.20845,-16.78628 152.66462,-49.29992 66.26899,-50.7499 135.94543,-126.52792 136.40328,-209.996 0.24865,-45.33006 -29.30033,-102.17494 -72.82267,-114.85098 -45.24618,-13.17812 -100.31309,21.92538 -127.97991,60.07543 -22.54676,31.08994 -14.94077,75.94831 -14.133,114.34477 0.682,32.41846 15.98227,95.95501 15.98227,95.95501 l -146.4762,-7.02086 c 0,0 12.88589,-40.80632 13.78233,-61.93841 2.22233,-52.38734 -0.50575,-107.64359 -21.04028,-155.88988 -13.5808,-31.90836 -35.16976,-63.25106 -64.6556,-81.50392 -37.37723,-23.13794 -88.08419,-43.30172 -129.02355,-27.28953 -42.25332,16.52611 -65.62853,67.59695 -78.719592,111.03747 -20.151621,66.86982 -14.426812,142.805 6.557802,209.41811 11.04144,35.04968 29.36916,72.47504 60.32897,92.27109 25.11577,16.0593 60.6994,23.8264 88.48121,13.01556 18.0361,-7.01845 34.8368,-25.78262 36.6225,-45.05361 2.08389,-22.48887 -13.8774,-46.53896 -32.34922,-59.5345 -23.0364,-16.20688 -57.45955,-23.59895 -83.51006,-12.88868 -35.50708,14.59819 -68.55233,92.54902 -68.55233,92.54902 L 28,523.14029 c 16.819472,8.16166 83.28985,-50.59707 130.19853,-55.05399 37.32649,-3.54649 79.18685,2.14797 109.99877,23.51312 42.02837,29.14267 75.32555,78.65448 82.64295,129.27202 7.78479,53.8507 0.45764,127.47188 -45.37296,156.79862 C 252.02745,811.86591 170.69583,783.35518 117.2901,749.10608 79.426361,724.82406 56.929662,679.14689 43.22892,636.30334 6.561202,521.63985 -8.488031,389.64929 29.491432,275.41358 53.330108,203.71093 98.11705,114.86084 172.0268,99.147761 243.00643,84.057615 317.31858,144.228 365.93652,198.0993 c 62.6857,69.45915 101.35129,261.75285 101.35129,261.75285 l -55.6463,-3.4688 c 0,0 15.2468,-101.95774 45.70797,-140.76267 54.77685,-69.78102 141.18274,-164.72432 226.3668,-139.95398 79.3804,23.08272 105.82481,140.56097 108.11751,223.19754 2.28699,82.43086 -44.94561,163.00516 -95.33786,228.27918 -49.31894,63.88376 -192.52163,146.8225 -192.52163,146.8225 l -24.24295,-57.25019 c 0,0 167.86967,23.42531 250.13864,9.49735 43.18483,-7.3111 92.39113,-15.97247 122.34534,-47.92755 30.65262,-32.70014 37.09086,-83.44166 40.85848,-128.10358 C 901.85658,446.06979 853.42653,344.21817 849.20109,239.8217 847.04277,186.49694 858.72564,80 858.72564,80 l 157.26486,41.4106 c 0,0 -49.43647,133.52181 -56.40463,203.59868 -10.30874,103.67212 18.54939,207.6309 22.49658,311.73949 1.83702,48.45218 1.64916,96.98551 0.5458,145.45995 -1.18597,52.10364 5.55496,105.75829 -7.69996,156.1617 -3.53437,13.43985 -8.16136,28.20031 -18.69645,37.26304 -25.5955,22.01834 -62.90208,26.45634 -96.30304,31.38724 C 754.34583,1022.6076 539.82392,1000 539.82392,1000 l -32.91784,-76.60365 c 0,0 85.37685,-54.95369 120.39115,-91.10048 25.45715,-26.28053 63.41578,-89.59372 63.41578,-89.59372 l 104.10417,-5.95997 c 0,0 -61.12807,91.98411 -97.51672,133.29616 -35.53266,40.34024 -117.1005,110.89013 -117.1005,110.89013 l -32.74118,-45.54452 c 0,0 136.78475,10.61028 203.92475,-0.0109 37.61705,-5.95081 79.72512,-10.51749 108.67745,-35.26052 14.69074,-12.55489 21.63439,-32.92112 26.26598,-51.68255 9.62876,-39.00374 1.67002,-120.51245 1.67002,-120.51245 z"
   sodipodi:nodetypes="csccaaaaaccaaaaaaaaaaaccaaaaaaaaaccaaaaccaaaaccaaaaaaccaccaccaaacc" /><text
   text-anchor="middle"
   x="956.52863"
   y="977.39258"
   id="bottom"
   inkscape:label="bottom"
   style="clip-rule:evenodd;fill-rule:evenodd;image-rendering:optimizeQuality;shape-rendering:geometricPrecision;text-rendering:geometricPrecision">✛</text>
   <text
   text-anchor="middle"
   x="999.57214"
   y="803.71216"
   id="right"
   inkscape:label="right"
   style="clip-rule:evenodd;fill-rule:evenodd;image-rendering:optimizeQuality;shape-rendering:geometricPrecision;text-rendering:geometricPrecision">✛</text></svg>
