<?xml version="1.0" encoding="UTF-8" standalone="no"?>
<svg
   xml:space="preserve"
   width="1000"
   height="1000"
   version="1.1"
   style="clip-rule:evenodd;fill-rule:evenodd;image-rendering:optimizeQuality;shape-rendering:geometricPrecision;text-rendering:geometricPrecision"
   viewBox="0 0 1000 1000"
   id="svg10"
   sodipodi:docname="ബ്ദ.svg"
   inkscape:version="1.1.1 (3bf5ae0d25, 2021-09-20)"
   xmlns:inkscape="http://www.inkscape.org/namespaces/inkscape"
   xmlns:sodipodi="http://sodipodi.sourceforge.net/DTD/sodipodi-0.dtd"
   xmlns="http://www.w3.org/2000/svg"
   xmlns:svg="http://www.w3.org/2000/svg"
   xmlns:rdf="http://www.w3.org/1999/02/22-rdf-syntax-ns#"
   xmlns:cc="http://creativecommons.org/ns#"
   xmlns:dc="http://purl.org/dc/elements/1.1/"><metadata
   id="metadata14"><rdf:RDF><cc:Work
       rdf:about=""><dc:format>image/svg+xml</dc:format><dc:type
         rdf:resource="http://purl.org/dc/dcmitype/StillImage" /></cc:Work></rdf:RDF></metadata><sodipodi:namedview
   pagecolor="#ffffff"
   bordercolor="#666666"
   borderopacity="1"
   objecttolerance="10"
   gridtolerance="10"
   guidetolerance="10"
   inkscape:pageopacity="0"
   inkscape:pageshadow="2"
   inkscape:window-width="1920"
   inkscape:window-height="1009"
   id="namedview12"
   showgrid="false"
   inkscape:zoom="2.712"
   inkscape:cx="683.07522"
   inkscape:cy="1016.9616"
   inkscape:window-x="0"
   inkscape:window-y="0"
   inkscape:window-maximized="1"
   inkscape:current-layer="svg10"
   showguides="true"
   inkscape:guide-bbox="true"
   inkscape:document-rotation="0"
   inkscape:snap-to-guides="true"
   inkscape:pagecheckerboard="0"><sodipodi:guide
     position="0,1000"
     orientation="0,1"
     id="guide16"
     inkscape:label=""
     inkscape:locked="true"
     inkscape:color="rgb(0,0,255)" /><sodipodi:guide
     position="1763.3122,2036.1693"
     orientation="1000,0"
     id="guide18" /><sodipodi:guide
     position="0,200"
     orientation="0,1"
     id="guide20"
     inkscape:label="base"
     inkscape:locked="true"
     inkscape:color="rgb(0,0,255)" /><inkscape:grid
     type="xygrid"
     id="grid24"
     originx="-473.37552"
     originy="-489.69235" /><sodipodi:guide
     position="0,0"
     orientation="0,1"
     id="guide34"
     inkscape:label="bottom"
     inkscape:locked="true"
     inkscape:color="rgb(0,0,255)" /><sodipodi:guide
     position="225.05109,1693.3186"
     orientation="0,1"
     id="guide44"
     inkscape:label=""
     inkscape:locked="false"
     inkscape:color="rgb(0,0,255)" /><sodipodi:guide
     position="0,900"
     orientation="0,1"
     id="guide46"
     inkscape:label=""
     inkscape:locked="true"
     inkscape:color="rgb(0,0,255)" /><sodipodi:guide
     position="1025.9905,546.40301"
     orientation="-1,0"
     id="guide841"
     inkscape:label="width"
     inkscape:locked="false"
     inkscape:color="rgb(0,0,255)" /><sodipodi:guide
     position="0,1000"
     orientation="0,1000"
     id="guide860" /><sodipodi:guide
     position="1001.0497,612.78754"
     orientation="1000,0"
     id="guide862" /><sodipodi:guide
     position="1000,0"
     orientation="0,-1000"
     id="guide864" /><sodipodi:guide
     position="0,0"
     orientation="-1000,0"
     id="guide866" /></sodipodi:namedview>
 <defs
   id="defs4"><inkscape:path-effect
   effect="fillet_chamfer"
   id="path-effect6457"
   is_visible="true"
   lpeversion="1"
   satellites_param="F,0,1,1,0,6.1832581,0,1 @ F,0,0,1,0,6.1832581,0,1 @ F,0,0,1,0,0,0,1 @ F,0,0,1,0,0,0,1 @ F,0,0,1,0,0,0,1 @ F,0,0,1,0,0,0,1 @ F,0,0,1,0,0,0,1 @ F,0,0,1,0,0,0,1 @ F,0,0,1,0,0,0,1 @ F,0,0,1,0,0,0,1 @ F,0,0,1,0,0,0,1 @ F,0,0,1,0,0,0,1 @ F,0,0,1,0,0,0,1 @ F,0,0,1,0,0,0,1 @ F,0,0,1,0,0,0,1 @ F,0,0,1,0,0,0,1 @ F,0,0,1,0,0,0,1 @ F,0,0,1,0,0,0,1 @ F,0,0,1,0,0,0,1 @ F,0,0,1,0,0,0,1 @ F,0,1,1,0,6.1832581,0,1 @ F,0,1,1,0,6.1832581,0,1 @ F,0,0,1,0,0,0,1 @ F,0,0,1,0,0,0,1 @ F,0,0,1,0,0,0,1 @ F,0,0,1,0,0,0,1 @ F,0,0,1,0,0,0,1 @ F,0,0,1,0,0,0,1 @ F,0,0,1,0,0,0,1 @ F,0,1,1,0,6.1832581,0,1 @ F,0,1,1,0,6.1832581,0,1 @ F,0,0,1,0,0,0,1 @ F,0,0,1,0,0,0,1 @ F,0,0,1,0,0,0,1 @ F,0,0,1,0,0,0,1 @ F,0,0,1,0,0,0,1 @ F,0,0,1,0,0,0,1 @ F,0,0,1,0,0,0,1 @ F,0,0,1,0,0,0,1 @ F,0,0,1,0,0,0,1 @ F,0,0,1,0,0,0,1"
   unit="px"
   method="auto"
   mode="F"
   radius="0"
   chamfer_steps="1"
   flexible="false"
   use_knot_distance="true"
   apply_no_radius="true"
   apply_with_radius="true"
   only_selected="false"
   hide_knots="false" /><inkscape:path-effect
   effect="fillet_chamfer"
   id="path-effect6262"
   is_visible="true"
   lpeversion="1"
   satellites_param="F,0,1,1,0,15.154599,0,1 @ F,0,0,1,0,15.154599,0,1 @ F,0,0,1,0,0,0,1 @ F,0,0,1,0,0,0,1 @ F,0,0,1,0,0,0,1 @ F,0,0,1,0,0,0,1 @ F,0,0,1,0,0,0,1 @ F,0,0,1,0,0,0,1 @ F,0,0,1,0,0,0,1 @ F,0,0,1,0,0,0,1 @ F,0,1,1,0,15.154599,0,1 @ F,0,1,1,0,15.154599,0,1 @ F,0,0,1,0,0,0,1 @ F,0,0,1,0,0,0,1 @ F,0,0,1,0,0,0,1 @ F,0,0,1,0,0,0,1 @ F,0,0,1,0,0,0,1 @ F,0,0,1,0,0,0,1 @ F,0,0,1,0,0,0,1 @ F,0,0,1,0,0,0,1 @ F,0,0,1,0,0,0,1 @ F,0,0,1,0,0,0,1 @ F,0,0,1,0,0,0,1 @ F,0,0,1,0,0,0,1 @ F,0,0,1,0,0,0,1 @ F,0,0,1,0,0,0,1 @ F,0,0,1,0,0,0,1 @ F,0,0,1,0,0,0,1 @ F,0,0,1,0,0,0,1 @ F,0,0,1,0,0,0,1 @ F,0,0,1,0,0,0,1 @ F,0,0,1,0,0,0,1 @ F,0,0,1,0,0,0,1 @ F,0,0,1,0,0,0,1 @ F,0,0,1,0,0,0,1 @ F,0,0,1,0,0,0,1 @ F,0,0,1,0,0,0,1 @ F,0,0,1,0,0,0,1 @ F,0,0,1,0,0,0,1 @ F,0,0,1,0,0,0,1 @ F,0,0,1,0,0,0,1 @ F,0,0,1,0,0,0,1 @ F,0,0,1,0,0,0,1 @ F,0,0,1,0,0,0,1 @ F,0,0,1,0,0,0,1 @ F,0,0,1,0,0,0,1 @ F,0,0,1,0,0,0,1 @ F,0,0,1,0,0,0,1 @ F,0,0,1,0,0,0,1 @ F,0,0,1,0,0,0,1 @ F,0,0,1,0,0,0,1 @ F,0,0,1,0,0,0,1 @ F,0,0,1,0,0,0,1 @ F,0,0,1,0,0,0,1 @ F,0,0,1,0,0,0,1 @ F,0,0,1,0,0,0,1 @ F,0,0,1,0,0,0,1 @ F,0,0,1,0,0,0,1 @ F,0,0,1,0,0,0,1 @ F,0,0,1,0,0,0,1 @ F,0,0,1,0,0,0,1 @ F,0,0,1,0,0,0,1 @ F,0,0,1,0,0,0,1 @ F,0,0,1,0,0,0,1 @ F,0,0,1,0,0,0,1 @ F,0,1,1,0,15.154599,0,1 @ F,0,1,1,0,15.154599,0,1 @ F,0,0,1,0,0,0,1 @ F,0,0,1,0,0,0,1 @ F,0,0,1,0,0,0,1 @ F,0,0,1,0,0,0,1 @ F,0,0,1,0,0,0,1 @ F,0,0,1,0,0,0,1 @ F,0,0,1,0,0,0,1"
   unit="px"
   method="auto"
   mode="F"
   radius="0"
   chamfer_steps="1"
   flexible="false"
   use_knot_distance="true"
   apply_no_radius="true"
   apply_with_radius="true"
   only_selected="false"
   hide_knots="false" /><inkscape:path-effect
   effect="fillet_chamfer"
   id="path-effect861"
   is_visible="true"
   lpeversion="1"
   satellites_param="F,0,1,1,0,13.062111,0,1 @ F,0,1,1,0,13.062111,0,1 @ F,0,0,1,0,0,0,1 @ F,0,0,1,0,0,0,1 @ F,0,0,1,0,0,0,1 @ F,0,0,1,0,0,0,1 @ F,0,0,1,0,0,0,1 @ F,0,0,1,0,0,0,1 @ F,0,0,1,0,0,0,1 @ F,0,0,1,0,0,0,1 @ F,0,1,1,0,13.062111,0,1 @ F,0,1,1,0,13.062111,0,1 @ F,0,0,1,0,0,0,1 @ F,0,0,1,0,0,0,1 @ F,0,0,1,0,0,0,1 @ F,0,0,1,0,0,0,1 @ F,0,0,1,0,0,0,1 @ F,0,0,1,0,0,0,1 @ F,0,0,1,0,0,0,1 @ F,0,0,1,0,0,0,1 @ F,0,0,1,0,0,0,1 @ F,0,0,1,0,0,0,1 @ F,0,0,1,0,0,0,1 @ F,0,0,1,0,0,0,1 @ F,0,0,1,0,0,0,1 @ F,0,0,1,0,0,0,1 @ F,0,0,1,0,0,0,1 @ F,0,0,1,0,0,0,1 @ F,0,0,1,0,0,0,1 @ F,0,0,1,0,0,0,1 @ F,0,0,1,0,0,0,1 @ F,0,0,1,0,0,0,1 @ F,0,0,1,0,0,0,1 @ F,0,0,1,0,0,0,1 @ F,0,0,1,0,0,0,1 @ F,0,0,1,0,0,0,1 @ F,0,0,1,0,0,0,1 @ F,0,0,1,0,0,0,1 @ F,0,0,1,0,0,0,1 @ F,0,0,1,0,0,0,1 @ F,0,0,1,0,0,0,1 @ F,0,0,1,0,0,0,1 @ F,0,0,1,0,0,0,1 @ F,0,0,1,0,0,0,1 @ F,0,0,1,0,0,0,1 @ F,0,0,1,0,0,0,1 @ F,0,0,1,0,0,0,1 @ F,0,0,1,0,0,0,1 @ F,0,0,1,0,0,0,1 @ F,0,0,1,0,0,0,1 @ F,0,0,1,0,0,0,1 @ F,0,0,1,0,0,0,1 @ F,0,0,1,0,0,0,1 @ F,0,0,1,0,0,0,1 @ F,0,0,1,0,0,0,1 @ F,0,0,1,0,0,0,1 @ F,0,0,1,0,0,0,1 @ F,0,0,1,0,0,0,1 @ F,0,0,1,0,0,0,1 @ F,0,0,1,0,0,0,1 @ F,0,0,1,0,0,0,1 @ F,0,0,1,0,0,0,1 @ F,0,0,1,0,0,0,1 @ F,0,1,1,0,13.062111,0,1 @ F,0,1,1,0,13.062111,0,1 @ F,0,0,1,0,0,0,1 @ F,0,0,1,0,0,0,1 @ F,0,0,1,0,0,0,1 @ F,0,0,1,0,0,0,1 @ F,0,0,1,0,0,0,1 @ F,0,0,1,0,0,0,1 @ F,0,0,1,0,0,0,1"
   unit="px"
   method="auto"
   mode="F"
   radius="0"
   chamfer_steps="1"
   flexible="false"
   use_knot_distance="true"
   apply_no_radius="true"
   apply_with_radius="true"
   only_selected="true"
   hide_knots="false" /><inkscape:path-effect
   effect="fillet_chamfer"
   id="path-effect860"
   is_visible="true"
   lpeversion="1"
   satellites_param="F,0,0,1,0,26.432937,0,1 @ F,0,0,1,0,25.309377,0,1 @ F,0,0,1,0,0,0,1 @ F,0,0,1,0,0,0,1 @ F,0,0,1,0,0,0,1 @ F,0,0,1,0,0,0,1 @ F,0,0,1,0,0,0,1 @ F,0,0,1,0,0,0,1 @ F,0,0,1,0,0,0,1 @ F,0,0,1,0,0,0,1 @ F,0,0,1,0,25.987297,0,1 @ F,0,0,1,0,30.851032,0,1 @ F,0,0,1,0,0,0,1 @ F,0,0,1,0,0,0,1 @ F,0,0,1,0,0,0,1 @ F,0,0,1,0,0,0,1 @ F,0,0,1,0,0,0,1 @ F,0,0,1,0,0,0,1 @ F,0,0,1,0,0,0,1 @ F,0,0,1,0,0,0,1 @ F,0,0,1,0,0,0,1 @ F,0,0,1,0,0,0,1 @ F,0,0,1,0,0,0,1 @ F,0,0,1,0,0,0,1 @ F,0,0,1,0,0,0,1 @ F,0,0,1,0,0,0,1 @ F,0,0,1,0,0,0,1 @ F,0,0,1,0,0,0,1 @ F,0,0,1,0,0,0,1 @ F,0,0,1,0,0,0,1 @ F,0,0,1,0,0,0,1 @ F,0,0,1,0,0,0,1 @ F,0,0,1,0,0,0,1 @ F,0,0,1,0,0,0,1 @ F,0,0,1,0,0,0,1 @ F,0,0,1,0,0,0,1 @ F,0,0,1,0,0,0,1 @ F,0,0,1,0,0,0,1 @ F,0,0,1,0,0,0,1 @ F,0,0,1,0,0,0,1 @ F,0,0,1,0,0,0,1 @ F,0,0,1,0,0,0,1 @ F,0,0,1,0,0,0,1 @ F,0,0,1,0,0,0,1 @ F,0,0,1,0,0,0,1 @ F,0,0,1,0,0,0,1 @ F,0,0,1,0,0,0,1 @ F,0,0,1,0,0,0,1 @ F,0,0,1,0,0,0,1 @ F,0,0,1,0,0,0,1 @ F,0,0,1,0,0,0,1 @ F,0,0,1,0,0,0,1 @ F,0,0,1,0,0,0,1 @ F,0,0,1,0,0,0,1 @ F,0,0,1,0,0,0,1 @ F,0,0,1,0,0,0,1 @ F,0,0,1,0,0,0,1 @ F,0,0,1,0,26.865911,0,1 @ F,0,0,1,0,45.02054,0,1 @ F,0,0,1,0,0,0,1 @ F,0,0,1,0,0,0,1 @ F,0,0,1,0,0,0,1 @ F,0,0,1,0,0,0,1 @ F,0,0,1,0,0,0,1 @ F,0,0,1,0,0,0,1 @ F,0,0,1,0,0,0,1"
   unit="px"
   method="auto"
   mode="F"
   radius="0"
   chamfer_steps="1"
   flexible="false"
   use_knot_distance="true"
   apply_no_radius="true"
   apply_with_radius="true"
   only_selected="true"
   hide_knots="false" /><inkscape:path-effect
   effect="spiro"
   id="path-effect859"
   is_visible="true"
   lpeversion="1" /><inkscape:path-effect
   effect="spiro"
   id="path-effect862"
   is_visible="true"
   lpeversion="1" /><inkscape:path-effect
   effect="spiro"
   id="path-effect1521"
   is_visible="true"
   lpeversion="1" /><inkscape:path-effect
   effect="spiro"
   id="path-effect858"
   is_visible="true"
   lpeversion="1" /><inkscape:path-effect
   effect="spiro"
   id="path-effect854"
   is_visible="true"
   lpeversion="1" />
  <style
   type="text/css"
   id="style2">
   <![CDATA[
    .fil0 {fill:#EF7F1A;fill-rule:nonzero}
   ]]>
  </style>
 <inkscape:path-effect
   effect="spiro"
   id="path-effect1214"
   is_visible="true"
   lpeversion="1" /><inkscape:path-effect
   effect="spiro"
   id="path-effect1195"
   is_visible="true"
   lpeversion="1" /><inkscape:path-effect
   effect="spiro"
   id="path-effect992"
   is_visible="true"
   lpeversion="1" /><inkscape:path-effect
   effect="spiro"
   id="path-effect287"
   is_visible="true"
   lpeversion="1" /><inkscape:path-effect
   effect="spiro"
   id="path-effect1032"
   is_visible="true"
   lpeversion="1" /><inkscape:path-effect
   effect="spiro"
   id="path-effect1218"
   is_visible="true"
   lpeversion="1" /><inkscape:path-effect
   effect="spiro"
   id="path-effect309"
   is_visible="true"
   lpeversion="1" /><inkscape:path-effect
   effect="spiro"
   id="path-effect1176"
   is_visible="true"
   lpeversion="1" /><inkscape:path-effect
   effect="spiro"
   id="path-effect1026"
   is_visible="true"
   lpeversion="1" /><inkscape:path-effect
   effect="spiro"
   id="path-effect1030"
   is_visible="true"
   lpeversion="1" /><inkscape:path-effect
   effect="spiro"
   id="path-effect856"
   is_visible="true"
   lpeversion="1" /><inkscape:path-effect
   effect="fillet_chamfer"
   id="path-effect853"
   is_visible="true"
   lpeversion="1"
   satellites_param="F,0,0,1,0,19.230802,0,1 @ F,0,0,1,0,19.230802,0,1 @ F,0,0,1,0,0,0,1 @ F,0,0,1,0,0,0,1 @ F,0,0,1,0,0,0,1 @ F,0,0,1,0,0,0,1 @ F,0,0,1,0,0,0,1 @ F,0,0,1,0,0,0,1 @ F,0,0,1,0,0,0,1 @ F,0,0,1,0,0,0,1 @ F,0,0,1,0,0,0,1 @ F,0,0,1,0,0,0,1 @ F,0,0,1,0,0,0,1 @ F,0,0,1,0,0,0,1 @ F,0,0,1,0,0,0,1 @ F,0,0,1,0,0,0,1 @ F,0,0,1,0,0,0,1 @ F,0,0,1,0,0,0,1 @ F,0,1,1,0,15.762286,0,1 @ F,0,0,1,0,19.230802,0,1 @ F,0,0,1,0,0,0,1 @ F,0,0,1,0,0,0,1 @ F,0,0,1,0,0,0,1 @ F,0,0,1,0,0,0,1 @ F,0,0,1,0,0,0,1 @ F,0,0,1,0,0,0,1 @ F,0,0,1,0,0,0,1 @ F,0,0,1,0,0,0,1 @ F,0,0,1,0,19.230802,0,1 @ F,0,0,1,0,19.230802,0,1 @ F,0,0,1,0,0,0,1 @ F,0,0,1,0,0,0,1 @ F,0,0,1,0,0,0,1 @ F,0,0,1,0,0,0,1 @ F,0,0,1,0,0,0,1 @ F,0,0,1,0,0,0,1 @ F,0,0,1,0,0,0,1 @ F,0,0,1,0,0,0,1 @ F,0,0,1,0,0,0,1 @ F,0,0,1,0,0,0,1"
   unit="px"
   method="auto"
   mode="F"
   radius="0"
   chamfer_steps="1"
   flexible="false"
   use_knot_distance="true"
   apply_no_radius="true"
   apply_with_radius="true"
   only_selected="true"
   hide_knots="false" /></defs>

<path
   style="display:inline;fill:#a51d2d;fill-rule:nonzero;stroke:none;stroke-width:2.09522px;stroke-linecap:butt;stroke-linejoin:miter;stroke-opacity:1"
   d="m 459.31655,725.40956 -21.97243,-78.25964 c -2.26241,-8.05808 2.50339,-16.17244 10.57193,-18.39606 54.21855,-14.94219 105.92894,-38.96522 152.29286,-70.8008 28.80322,-19.77761 55.72472,-42.72462 77.21784,-70.2714 21.49311,-27.54679 37.43162,-59.90725 42.88881,-94.4181 4.38113,-27.70591 1.75236,-56.97165 -10.60241,-82.1544 -12.35477,-25.18276 -35.02745,-45.81453 -62.22026,-52.69658 -26.64553,-6.74354 -55.7614,0.15962 -78.4699,15.64458 -22.7085,15.48495 -39.29539,38.91377 -49.51001,64.43085 -14.39334,35.95591 -16.65823,75.6974 -14.133,114.34477 1.78834,27.36961 5.89086,54.58741 12.24363,81.26944 1.93847,8.14173 -3.03852,14.36073 -11.39858,13.96002 l -116.20176,-5.56976 c -8.36006,-0.40071 -12.96935,-7.15982 -10.72541,-15.22223 4.3263,-15.54431 7.46348,-31.41964 9.37052,-47.44173 6.26405,-52.62775 -0.98561,-106.83146 -21.04028,-155.88988 -6.69081,-16.36729 -14.8253,-32.23877 -25.42582,-46.39095 -10.60052,-14.15218 -23.74614,-26.57411 -39.22978,-35.11297 -20.00283,-11.03108 -43.54569,-15.2335 -66.24698,-12.69387 -22.70128,2.53963 -44.50569,11.69402 -62.77657,25.40434 -35.22647,26.43366 -56.1101,68.2931 -66.71959,111.03747 -16.992855,68.46221 -10.402414,140.9478 6.5578,209.41811 4.25043,17.15945 9.17426,34.24983 16.73046,50.23159 7.55619,15.98177 17.87251,30.89905 31.59851,42.0395 12.17939,9.88517 26.94751,16.6181 42.45048,19.00814 15.50296,2.39004 31.70235,0.39112 46.03073,-5.99258 9.24148,-4.11734 17.73423,-10.07279 24.27892,-17.788 6.54468,-7.71522 11.08365,-17.22718 12.34358,-27.26561 1.48136,-11.80263 -1.62631,-23.94491 -7.64255,-34.20655 -6.01624,-10.26165 -14.81707,-18.71794 -24.70667,-25.32795 -24.19199,-16.16944 -55.64164,-21.25853 -83.51006,-12.88868 -19.70841,5.91912 -37.40125,18.35131 -49.64961,34.88719 -12.24835,16.53588 -18.98441,37.08391 -18.90272,57.66183 L 38,523.14029 c 36.165248,-31.42342 82.46055,-50.99922 130.19853,-55.05399 37.99798,-3.22747 77.50212,3.55741 109.99877,23.51312 22.42031,13.76798 40.96679,33.4464 54.70412,55.88551 13.73733,22.43911 22.75949,47.59112 27.93883,73.38651 5.65334,28.15613 6.75231,57.57772 -0.14615,85.45493 -6.89847,27.87722 -22.22974,54.14303 -45.22681,71.34369 -27.61724,20.65633 -64.59252,26.7409 -98.44056,20.12985 C 183.17869,791.18885 152.38624,772.76152 127.2901,749.10608 94.313148,718.02225 70.613969,678.1536 53.22892,636.30334 6.1291035,522.92204 4.1816782,393.00156 39.491432,275.41358 50.809784,237.72138 66.031631,200.7456 89.308141,169.01216 112.58465,137.27873 144.48241,110.94714 182.0268,99.147761 c 33.89235,-10.651617 71.11017,-8.968927 104.82942,2.218589 33.71924,11.18752 64.01037,31.56061 89.0803,56.73295 32.53117,32.66406 56.63146,73.65573 69.35537,117.9651 12.72391,44.30937 14.04448,91.84248 3.80029,136.78995 l -27.45067,3.529 c 8.38645,-48.78733 23.8326,-96.35542 45.70797,-140.76267 21.3701,-43.38154 49.67199,-84.56878 89.04105,-112.65287 19.68453,-14.04204 41.98852,-24.60983 65.61949,-29.73201 23.63098,-5.12217 48.59952,-4.69219 71.70626,2.4309 21.48339,6.62266 41.06697,18.93413 57.0359,34.75781 15.96893,15.82368 28.36707,35.09806 37.04576,55.83632 17.35739,41.47653 19.70278,87.99996 14.03585,132.60341 -9.72816,76.56871 -42.80126,149.94003 -93.33786,208.27918 -56.55134,65.28253 -134.85168,111.39279 -219.36981,129.1846 l -5.17297,-56.44863 c 82.96443,26.28165 171.35291,35.30624 257.91684,26.33369 22.25824,-2.30712 44.53251,-5.82239 65.68268,-13.13147 21.15017,-7.30907 41.23659,-18.58533 56.66266,-34.79608 13.49117,-14.17743 23.08571,-31.79094 29.20134,-50.38154 6.11563,-18.5906 8.84504,-38.16822 9.65714,-57.72204 3.79824,-91.45401 -33.46556,-179.42096 -43.87272,-270.36025 -5.5241,-48.27034 -3.38701,-97.40679 6.26895,-145.021624 1.66338,-8.202316 9.79975,-13.008536 17.87236,-10.798559 l 122.0313,33.407563 c 8.0727,2.20998 11.1908,9.8612 7.2661,17.25308 -31.01141,58.40757 -48.01697,124.21815 -49.05393,190.34712 -1.32682,84.61442 22.86242,167.45972 30.49658,251.73949 2.03827,22.50219 2.8782,45.34856 -1.3386,67.5459 -4.21681,22.19733 -13.8523,43.88067 -30.24745,59.42744 -13.66796,12.9607 -31.37638,21.07069 -49.63699,25.69054 -18.2606,4.61984 -37.18118,5.93943 -55.9989,6.76789 -80.65081,3.55069 -161.41134,-1.57625 -242.14013,-1.72875 -45.43057,-0.0858 -90.86409,1.40487 -136.19135,4.46808 -8.35059,0.56433 -16.95007,-5.45223 -19.21248,-13.51031 z"
   id="path1087-1-75"
   inkscape:path-effect="#path-effect1030;#path-effect6262"
   inkscape:original-d="M 463.41301,740 433.24766,632.55948 c 0,0 119.57995,-36.25528 166.96125,-74.60642 52.81241,-42.74716 115.52509,-96.89953 120.10665,-164.6895 3.44477,-50.96963 -23.43119,-121.80293 -72.82267,-134.85098 -48.65312,-12.85299 -100.93724,37.63701 -127.97991,80.07543 -20.63845,32.3882 -14.94076,75.94831 -14.133,114.34477 0.682,32.41846 15.98227,95.95501 15.98227,95.95501 l -146.4762,-7.02086 c 0,0 12.88588,-40.80632 13.78233,-61.93841 2.22233,-52.38734 -0.50575,-107.64358 -21.04028,-155.88988 -13.5808,-31.90836 -32.72812,-67.96813 -64.6556,-81.50392 -39.78802,-16.8683 -92.49985,-10.39029 -129.02355,12.71047 -36.49348,23.08164 -55.83262,69.25219 -66.71959,111.03747 -17.608713,67.58398 -11.18704,141.86974 6.5578,209.41811 8.82171,33.58115 20.01394,72.17693 48.32897,92.27109 24.31134,17.25289 60.6994,23.8264 88.48121,13.01556 18.0361,-7.01845 34.8368,-25.78262 36.6225,-45.05361 2.08389,-22.48887 -13.8774,-46.53896 -32.34922,-59.5345 -23.0364,-16.20688 -57.45955,-23.59895 -83.51006,-12.88868 -35.50708,14.59819 -68.55233,92.54902 -68.55233,92.54902 L 38,523.14029 c 16.819472,8.16166 83.28985,-50.59707 130.19853,-55.05399 37.32649,-3.54649 79.18685,2.14797 109.99877,23.51312 42.02837,29.14267 75.32555,78.65448 82.64295,129.27202 7.78479,53.8507 0.45764,127.47188 -45.37296,156.79862 C 262.02745,811.86591 180.69583,783.35518 127.2901,749.10608 89.426361,724.82406 66.929662,679.14689 53.22892,636.30334 16.561202,521.63985 1.511969,389.64929 39.491432,275.41358 63.330108,203.71093 109.79193,121.32152 182.0268,99.147761 246.61008,79.32279 328.53774,109.96008 375.93652,158.0993 c 61.98701,62.95534 73.15566,254.75505 73.15566,254.75505 l -27.45067,3.529 c 0,0 15.2468,-101.95774 45.70797,-140.76267 54.77684,-69.78102 141.18274,-164.72432 226.3668,-139.95398 79.3804,23.08272 106.88631,140.53834 108.11751,223.19754 1.13306,76.07059 -42.60616,151.58426 -93.33786,208.27918 -56.58745,63.23898 -219.36981,129.1846 -219.36981,129.1846 l -5.17297,-56.44863 c 0,0 172.29333,38.03409 257.91684,26.33369 43.39604,-5.93004 91.81573,-16.52175 122.34534,-47.92755 26.69069,-27.45669 35.33677,-69.97406 38.85848,-108.10358 8.3968,-90.912 -39.2482,-179.1785 -43.87272,-270.36025 C 856.49785,186.52179 868.72564,80 868.72564,80 l 151.26486,41.4106 c 0,0 -51.13828,133.37341 -56.40463,203.59868 -6.32109,84.28998 35.70251,167.37329 30.49658,251.73949 -2.68618,43.53156 12.17455,75.43779 -31.58605,126.97334 -23.84312,28.07933 -69.18833,27.11811 -105.63589,32.45843 -79.86273,11.70155 -161.43348,-2.91977 -242.14013,-1.72875 -50.46419,0.74472 -116.5896,6.78518 -151.30737,5.54821 z"
   sodipodi:nodetypes="ccaaaaaccaaaaaaaaaaaccaaaaaaaaaccaaaaccaaaaccaasaac" />
   <text
   text-anchor="middle"
   x="999.57214"
   y="803.71216"
   id="right"
   inkscape:label="right"
   style="clip-rule:evenodd;fill-rule:evenodd;image-rendering:optimizeQuality;shape-rendering:geometricPrecision;text-rendering:geometricPrecision">✛</text><path
   style="clip-rule:evenodd;fill:#a51d2d;fill-rule:nonzero;stroke:none;stroke-width:0.821346px;stroke-linecap:butt;stroke-linejoin:miter;stroke-opacity:1;image-rendering:optimizeQuality;shape-rendering:geometricPrecision;text-rendering:geometricPrecision"
   d="m 681.2796,1106.1277 -94.01425,8.6762 c -3.40046,0.3138 -5.39157,-2.0924 -4.50782,-5.391 8.31619,-31.0396 12.65201,-63.1443 12.85904,-95.2783 0.47689,-74.02071 -20.75476,-148.34608 -8.34198,-221.32016 4.56175,-26.81829 14.34171,-53.92815 34.26668,-72.44911 15.68773,-14.5823 36.50122,-22.68146 57.57472,-26.50975 21.07351,-3.82829 42.63689,-3.68978 64.05526,-3.73142 31.76007,-0.0617 64.22994,-0.43929 94.32425,9.71149 15.04715,5.07539 29.33478,12.82155 40.90674,23.69657 11.57197,10.87502 20.32937,24.98841 23.64671,40.51812 3.62486,16.96934 0.62869,34.93509 -6.38176,50.80808 -7.01045,15.87299 -17.85688,29.80504 -30.02647,42.17432 -24.34917,24.74871 -54.44429,43.80889 -87.22604,55.24297 l -5.47992,-35.37253 c 40.13245,-13.62582 86.34771,-7.95651 121.99676,14.96556 35.41701,22.77287 59.72336,62.23464 63.54779,104.16723 2.22168,24.35943 -2.31983,49.48333 -14.09758,70.92163 -11.77776,21.4383 -30.92924,38.9781 -53.80511,47.639 -16.02852,6.0684 -33.50216,7.7507 -50.595,6.4959 -17.09284,-1.2547 -33.86565,-5.3718 -50.19006,-10.5923 -30.58116,-9.7797 -59.89921,-23.5001 -87.0052,-40.7076 -2.88302,-1.8302 -4.10551,-5.9029 -2.76451,-9.0435 l 30.45384,-71.32255 c 1.341,-3.14061 3.35065,-3.07369 4.68657,0.0686 14.27768,33.58326 45.00733,59.85356 80.53708,68.37796 13.56256,3.254 27.87646,4.0414 41.45439,0.8522 13.57792,-3.1892 26.37596,-10.5453 34.89081,-21.592 6.86784,-8.9099 10.77273,-20.0257 11.20357,-31.2671 0.43085,-11.24135 -2.58258,-22.56146 -8.35839,-32.21518 -5.7656,-9.63665 -14.17492,-17.5492 -23.69476,-23.50569 -9.51983,-5.95649 -20.13649,-10.01547 -31.0071,-12.83274 -25.48875,-6.60577 -52.702,-6.39887 -78.10173,0.52494 -3.29447,0.89805 -6.59956,-0.93667 -7.42533,-4.25024 l -16.79355,-67.38694 c -0.82577,-3.31357 1.27497,-6.05387 4.6789,-6.32247 18.02969,-1.42268 35.72492,-7.02614 51.26448,-16.28381 8.35929,-4.98003 16.17028,-11.06788 22.18855,-18.71372 6.01827,-7.64583 10.17522,-16.93985 10.76884,-26.65201 0.46175,-7.55462 -1.24586,-15.18581 -4.57187,-21.98456 -3.32601,-6.79876 -8.23971,-12.77342 -14.04705,-17.6273 -11.61469,-9.70777 -26.51335,-14.79589 -41.4893,-17.00101 -26.61099,-3.91831 -54.65125,0.97764 -77.72078,14.80858 -29.19001,17.50037 -49.17216,48.87145 -54.60596,82.46897 -5.06348,31.30785 1.76718,63.22998 9.64922,93.94958 11.00517,42.89176 24.13092,85.2359 34.21068,128.3545 2.96955,12.703 5.67342,25.4681 8.10927,38.2841 0.63763,3.3549 -1.62217,6.3327 -5.02263,6.6465 z"
   id="path854"
   inkscape:path-effect="#path-effect856;#path-effect6457"
   inkscape:original-d="m 687.43669,1105.5595 -106.32843,9.8126 c 0,0 12.72479,-67.1223 14.50831,-101.2375 3.85371,-73.7135 -22.90314,-149.28494 -8.34198,-221.32016 5.38281,-26.62922 13.60107,-55.51961 34.26668,-72.44911 32.31784,-26.47514 80.04428,-34.24182 121.62998,-30.24117 58.14314,5.59353 137.15524,19.70399 158.8777,73.92618 12.3784,30.89815 -16.10627,67.84216 -36.40823,92.9824 -22.36739,27.69788 -87.22604,55.24297 -87.22604,55.24297 l -5.47992,-35.37253 c 0,0 86.94529,-8.53392 121.99676,14.96556 32.29173,21.64925 62.98535,63.49744 63.54779,104.16723 0.62978,45.53853 -28.04527,96.52563 -67.90269,118.56063 -29.42537,16.2677 -68.15199,4.0013 -100.78506,-4.0964 -33.05959,-8.2035 -56.2381,-27.5872 -92.1978,-44.0645 l 35.31002,-82.69572 c 0,0 48.23034,65.56692 82.79556,74.13312 25.5691,6.3367 59.65691,1.7482 76.3452,-20.7398 12.11901,-16.3307 11.82385,-44.80386 2.84518,-63.48228 -10.02108,-20.84699 -34.16697,-30.33368 -54.70186,-36.33843 -27.10048,-7.92464 -84.03186,2.27445 -84.03186,2.27445 L 736.37205,860.2006 c 0,0 40.80906,-4.67604 57.43858,-16.60653 14.68251,-10.53365 34.60147,-25.99981 32.95739,-45.36573 -2.47009,-29.09567 -34.79348,-48.92299 -60.10822,-56.61287 -25.3571,-7.70276 -55.34652,-0.55231 -77.72078,14.80858 -26.10595,17.92285 -46.69915,49.46692 -54.60596,82.46897 -7.29659,30.45507 3.99249,63.06492 9.64922,93.94958 8.00936,43.72965 23.97481,85.2049 34.21068,128.3545 3.48161,14.6768 9.24373,44.3624 9.24373,44.3624 z"
   sodipodi:nodetypes="ccaaaaaaccaaaaccaaaaccaaaaaaac" /></svg>
