<svg xmlns="http://www.w3.org/2000/svg" xmlns:dc="http://purl.org/dc/elements/1.1/" xmlns:ns1="http://sodipodi.sourceforge.net/DTD/sodipodi-0.dtd" xmlns:ns2="http://www.inkscape.org/namespaces/inkscape" xmlns:ns4="http://creativecommons.org/ns#" xmlns:rdf="http://www.w3.org/1999/02/22-rdf-syntax-ns#" xml:space="preserve" width="1000" height="1000" version="1.1" style="clip-rule:evenodd;fill-rule:evenodd;image-rendering:optimizeQuality;shape-rendering:geometricPrecision;text-rendering:geometricPrecision" viewBox="0 0 1000 1000" id="svg10" ns1:docname="ഭ.svg" ns2:version="1.0.2 (e86c870879, 2021-01-15)"><metadata id="metadata14"><rdf:RDF><ns4:Work rdf:about=""><dc:format>image/svg+xml</dc:format><dc:type rdf:resource="http://purl.org/dc/dcmitype/StillImage" /><dc:title /></ns4:Work></rdf:RDF></metadata><ns1:namedview pagecolor="#ffffff" bordercolor="#666666" borderopacity="1" objecttolerance="10" gridtolerance="10" guidetolerance="10" ns2:pageopacity="0" ns2:pageshadow="2" ns2:window-width="1920" ns2:window-height="1007" id="namedview12" showgrid="false" ns2:zoom="0.84890884" ns2:cx="327.86116" ns2:cy="503.78033" ns2:window-x="1920" ns2:window-y="0" ns2:window-maximized="1" ns2:current-layer="svg10" showguides="true" ns2:guide-bbox="true" ns2:document-rotation="0"><ns1:guide position="0,1000" orientation="0,1" id="guide16" ns2:label="" ns2:locked="true" ns2:color="rgb(0,0,255)" /><ns1:guide position="1763.3122,2036.1693" orientation="1000,0" id="guide18" /><ns1:guide position="0,200" orientation="0,1" id="guide20" ns2:label="base" ns2:locked="true" ns2:color="rgb(0,0,255)" /><ns2:grid type="xygrid" id="grid24" originx="-473.37552" originy="-489.69235" /><ns1:guide position="0,0" orientation="0,1" id="guide34" ns2:label="bottom" ns2:locked="true" ns2:color="rgb(0,0,255)" /><ns1:guide position="225.05109,1693.3186" orientation="0,1" id="guide44" ns2:label="" ns2:locked="false" ns2:color="rgb(0,0,255)" /><ns1:guide position="0,900" orientation="0,1" id="guide46" ns2:label="" ns2:locked="true" ns2:color="rgb(0,0,255)" /><ns1:guide position="552.33818,623.39461" orientation="-1,0" id="guide841" ns2:label="width" ns2:locked="false" ns2:color="rgb(0,0,255)" /></ns1:namedview>
 <defs id="defs4"><ns2:path-effect effect="fillet_chamfer" id="path-effect843" is_visible="true" lpeversion="1" satellites_param="F,0,1,1,0,31.458082,0,1 @ F,0,1,1,0,31.458082,0,1 @ F,0,0,1,0,0,0,1 @ F,0,0,1,0,0,0,1 @ F,0,0,1,0,0,0,1 @ F,0,0,1,0,0,0,1 @ F,0,0,1,0,0,0,1 @ F,0,0,1,0,0,0,1 @ F,0,0,1,0,0,0,1 @ F,0,0,1,0,0,0,1 @ F,0,0,1,0,0,0,1 @ F,0,0,1,0,0,0,1 @ F,0,0,1,0,0,0,1 @ F,0,0,1,0,0,0,1 @ F,0,0,1,0,0,0,1 @ F,0,0,1,0,0,0,1 @ F,0,0,1,0,0,0,1 @ F,0,0,1,0,0,0,1 @ F,0,0,1,0,0,0,1 @ F,0,0,1,0,0,0,1 @ F,0,0,1,0,0,0,1 @ F,0,0,1,0,0,0,1 @ F,0,0,1,0,0,0,1 @ F,0,0,1,0,0,0,1 @ F,0,1,1,0,31.458082,0,1 @ F,0,1,1,0,31.458082,0,1 @ F,0,0,1,0,0,0,1 @ F,0,0,1,0,0,0,1 @ F,0,0,1,0,0,0,1 @ F,0,0,1,0,0,0,1 @ F,0,0,1,0,0,0,1 @ F,0,0,1,0,0,0,1 @ F,0,0,1,0,0,0,1 @ F,0,0,1,0,0,0,1 @ F,0,0,1,0,0,0,1 @ F,0,0,1,0,0,0,1 @ F,0,0,1,0,0,0,1 @ F,0,0,1,0,0,0,1 @ F,0,0,1,0,0,0,1 @ F,0,0,1,0,0,0,1 @ F,0,0,1,0,0,0,1 @ F,0,0,1,0,0,0,1 @ F,0,0,1,0,0,0,1 @ F,0,0,1,0,0,0,1 @ F,0,0,1,0,0,0,1 @ F,0,0,1,0,0,0,1 @ F,0,0,1,0,0,0,1 @ F,0,0,1,0,0,0,1 @ F,0,0,1,0,0,0,1 @ F,0,0,1,0,0,0,1" unit="px" method="auto" mode="F" radius="0" chamfer_steps="1" flexible="false" use_knot_distance="true" apply_no_radius="true" apply_with_radius="true" only_selected="true" hide_knots="false" /><ns2:path-effect effect="spiro" id="path-effect844" is_visible="true" lpeversion="1" />
  <style type="text/css" id="style2">
   
    .fil0 {fill:#EF7F1A;fill-rule:nonzero}
   
  </style>
 <ns2:path-effect effect="spiro" id="path-effect1214" is_visible="true" lpeversion="1" /><ns2:path-effect effect="spiro" id="path-effect1195" is_visible="true" lpeversion="1" /><ns2:path-effect effect="spiro" id="path-effect992" is_visible="true" lpeversion="1" /></defs>
 
<path style="fill:#63452c;stroke:none;stroke-width:0.895896px;stroke-linecap:butt;stroke-linejoin:miter;stroke-opacity:1" d="M 114.29305,800 H 27.458082 C 10.084263,800 -0.18974792,786.43224 3.6745413,769.49508 17.726879,707.90375 23.573179,644.4407 20.960785,581.31941 18.841861,530.12146 11.209633,479.28337 8.6871147,428.10372 6.1645964,376.92406 8.9642073,324.53947 26.940259,276.55425 47.333823,222.11572 87.05341,175.54852 136.34274,144.72625 185.63207,113.90397 244.10287,98.633749 302.23511,98.939357 c 40.59072,0.21339 81.72932,8.083233 117.31515,27.610163 35.58582,19.52693 65.21645,51.44699 77.38327,90.17192 10.41222,33.14032 7.46382,70.18575 -7.61606,101.4794 -9.25513,19.20618 -22.94932,36.28913 -39.8426,49.29497 -16.89328,13.00584 -36.9721,21.89375 -58.00196,25.39801 -15.30822,2.55085 -31.27861,2.34601 -45.74683,7.96018 -7.23411,2.80709 -14.0166,7.12842 -18.83148,13.21357 -4.81487,6.08514 -7.50451,14.04773 -6.36247,21.72287 1.02459,6.88583 5.0593,13.13011 10.44802,17.53762 5.38872,4.40752 12.051,7.07533 18.8799,8.42834 13.65779,2.70601 27.73174,0.34501 41.6429,-0.23582 31.40804,-1.31138 63.23634,6.80816 89.85729,23.52668 26.62096,16.71853 47.85566,42.03679 59.11861,71.38522 11.61267,30.25971 12.48725,64.2256 4.24509,95.5716 -8.24217,31.34599 -25.34888,60.06755 -47.63705,83.59927 -33.4763,35.34408 -79.13858,59.19098 -127.43543,65.29681 -48.29685,6.10583 -98.86158,-5.81979 -138.67866,-33.82812 -16.79723,-11.81559 -31.64125,-26.38591 -43.83622,-42.90805 -10.30576,-13.96259 -9.79975,-39.11017 -1.51355,-54.38069 l 30.1944,-55.64479 c 8.2862,-15.27052 17.5006,-13.62168 24.18005,2.38563 15.36441,36.82083 44.3272,68.02327 80.38655,85.23902 27.98512,13.36088 60.45865,18.45729 90.53168,10.88811 15.03652,-3.78458 29.32891,-10.69116 41.3559,-20.47745 12.02698,-9.78629 21.74838,-22.47084 27.65754,-36.80618 7.43293,-18.03194 8.65102,-38.60004 3.16265,-57.31572 -5.48837,-18.71569 -17.68818,-35.42866 -33.97629,-46.15696 -20.28927,-13.3637 -45.41631,-17.01434 -69.69419,-17.92379 -24.27788,-0.90946 -48.81481,0.56107 -72.68359,-3.96926 -25.31671,-4.80515 -49.65324,-16.70351 -67.10974,-35.65862 -17.4565,-18.9551 -27.4608,-45.24102 -24.45625,-70.83395 2.56139,-21.81807 14.46162,-42.17748 31.52194,-56.01707 17.06031,-13.83959 38.99818,-21.23852 60.96077,-21.72159 15.702,-0.34537 31.31711,2.69297 47.02262,2.59768 7.85275,-0.0476 15.75685,-0.89371 23.23647,-3.28604 7.47962,-2.39234 14.53977,-6.38983 19.89316,-12.1352 4.8067,-5.15865 8.1334,-11.62941 9.83879,-18.47102 1.7054,-6.84162 1.81444,-14.0425 0.62977,-20.99322 -2.36932,-13.90146 -9.79908,-26.53955 -19.06494,-37.17007 -19.53901,-22.41666 -47.47113,-36.76275 -76.70601,-42.20345 -29.23489,-5.4407 -59.68255,-2.32825 -88.12622,6.3457 -51.39866,15.67411 -97.45586,50.48581 -123.15425,97.6779 -24.337023,44.69209 -29.586469,97.68628 -24.911573,148.35993 4.674896,50.67365 18.655383,99.94378 30.832833,149.35413 9.15423,37.14357 17.31815,74.52664 24.86839,112.02915 2.76074,13.71277 5.43956,27.44204 8.03628,41.18682 C 143.27503,786.13476 131.66687,800 114.29305,800 Z" id="path842" ns2:path-effect="#path-effect844;#path-effect843" ns2:original-d="M 145.75113,800 H -4 C -4,800 16.075668,654.52343 20.960785,581.31941 27.72633,479.93696 -22.548609,365.29559 26.940259,276.55425 80.130003,181.17666 193.04015,100.51904 302.23511,98.939357 c 75.84286,-1.097191 159.94696,50.360423 194.69842,117.782083 15.54137,30.15196 8.55288,71.65927 -7.61606,101.4794 -19.55814,36.07078 -63.93161,51.59462 -97.84456,74.69298 -22.83947,15.55614 -73.64523,15.39533 -70.94078,42.89662 2.4627,25.04288 48.3953,14.61453 70.97082,25.73014 52.82435,26.00936 126.97368,40.29687 148.9759,94.9119 22.96247,56.99862 2.58518,138.40053 -43.39196,179.17087 -66.83151,59.263 -182.81997,63.72771 -266.11409,31.46869 -28.64434,-11.09368 -60.35326,-69.63903 -60.35326,-69.63903 L 230.82092,586.4888 c 20.56418,31.8184 43.2773,100.26198 89.56311,115.27436 52.68294,17.08723 133.03191,2.23076 159.54512,-46.39552 17.22771,-31.59629 -3.68601,-79.82504 -30.81364,-103.47268 -36.19533,-31.55211 -100.39162,1.40501 -142.37778,-21.89305 -40.93529,-22.71494 -95.3451,-59.83011 -91.56599,-106.49257 3.25089,-40.14036 55.71339,-61.31204 92.48271,-77.73866 27.7134,-12.3809 71.56863,11.17578 90.15225,-12.82356 15.73775,-20.32411 8.62484,-57.55092 -8.59638,-76.63431 -37.67106,-41.74454 -110.06042,-48.57644 -164.83223,-35.85775 -51.03789,11.85163 -100.82803,50.27677 -123.15425,97.6779 -42.294325,89.79571 -5.878599,199.1603 5.92126,297.71406 4.54744,37.98077 17.14412,74.56511 24.86839,112.02915 C 136.95544,751.84551 145.75113,800 145.75113,800 Z" ns1:nodetypes="ccaaaaaaaaaaaccaaaaaaaaaaaac" /></svg>