<?xml version="1.0" encoding="UTF-8" standalone="no"?>
<svg
   xmlns:dc="http://purl.org/dc/elements/1.1/"
   xmlns:cc="http://creativecommons.org/ns#"
   xmlns:rdf="http://www.w3.org/1999/02/22-rdf-syntax-ns#"
   xmlns:svg="http://www.w3.org/2000/svg"
   xmlns="http://www.w3.org/2000/svg"
   xmlns:sodipodi="http://sodipodi.sourceforge.net/DTD/sodipodi-0.dtd"
   xmlns:inkscape="http://www.inkscape.org/namespaces/inkscape"
   xml:space="preserve"
   width="1000"
   height="1000"
   version="1.1"
   style="clip-rule:evenodd;fill-rule:evenodd;image-rendering:optimizeQuality;shape-rendering:geometricPrecision;text-rendering:geometricPrecision"
   viewBox="0 0 1000 1000"
   id="svg10"
   sodipodi:docname="ഭൂ.svg"
   inkscape:version="1.0.2 (e86c870879, 2021-01-15)"><metadata
   id="metadata14"><rdf:RDF><cc:Work
       rdf:about=""><dc:format>image/svg+xml</dc:format><dc:type
         rdf:resource="http://purl.org/dc/dcmitype/StillImage" /><dc:title /></cc:Work></rdf:RDF></metadata><sodipodi:namedview
   pagecolor="#ffffff"
   bordercolor="#666666"
   borderopacity="1"
   objecttolerance="10"
   gridtolerance="10"
   guidetolerance="10"
   inkscape:pageopacity="0"
   inkscape:pageshadow="2"
   inkscape:window-width="1920"
   inkscape:window-height="1007"
   id="namedview12"
   showgrid="false"
   inkscape:zoom="0.6002692"
   inkscape:cx="227.50812"
   inkscape:cy="682.4627"
   inkscape:window-x="1920"
   inkscape:window-y="0"
   inkscape:window-maximized="1"
   inkscape:current-layer="svg10"
   showguides="true"
   inkscape:guide-bbox="true"
   inkscape:document-rotation="0"><sodipodi:guide
     position="0,1000"
     orientation="0,1"
     id="guide16"
     inkscape:label=""
     inkscape:locked="true"
     inkscape:color="rgb(0,0,255)" /><sodipodi:guide
     position="1763.3122,2036.1693"
     orientation="1000,0"
     id="guide18" /><sodipodi:guide
     position="0,200"
     orientation="0,1"
     id="guide20"
     inkscape:label="base"
     inkscape:locked="true"
     inkscape:color="rgb(0,0,255)" /><inkscape:grid
     type="xygrid"
     id="grid24"
     originx="-473.37552"
     originy="-489.69235" /><sodipodi:guide
     position="0,0"
     orientation="0,1"
     id="guide34"
     inkscape:label="bottom"
     inkscape:locked="true"
     inkscape:color="rgb(0,0,255)" /><sodipodi:guide
     position="225.05109,1693.3186"
     orientation="0,1"
     id="guide44"
     inkscape:label=""
     inkscape:locked="false"
     inkscape:color="rgb(0,0,255)" /><sodipodi:guide
     position="0,900"
     orientation="0,1"
     id="guide46"
     inkscape:label=""
     inkscape:locked="true"
     inkscape:color="rgb(0,0,255)" /><sodipodi:guide
     position="809.89664,611.80437"
     orientation="-1,0"
     id="guide841"
     inkscape:label="width"
     inkscape:locked="false"
     inkscape:color="rgb(0,0,255)" /></sodipodi:namedview>
 <defs
   id="defs4"><inkscape:path-effect
   effect="fillet_chamfer"
   id="path-effect851"
   is_visible="true"
   lpeversion="1"
   satellites_param="F,0,0,1,0,0,0,1 @ F,0,0,1,0,0,0,1 @ F,0,0,1,0,0,0,1 @ F,0,0,1,0,0,0,1 @ F,0,0,1,0,0,0,1 @ F,0,0,1,0,0,0,1 @ F,0,0,1,0,0,0,1 @ F,0,0,1,0,0,0,1 @ F,0,0,1,0,0,0,1 @ F,0,0,1,0,0,0,1 @ F,0,0,1,0,0,0,1 @ F,0,0,1,0,0,0,1 @ F,0,0,1,0,0,0,1 @ F,0,0,1,0,0,0,1 @ F,0,0,1,0,0,0,1 @ F,0,0,1,0,0,0,1 @ F,0,0,1,0,0,0,1 @ F,0,0,1,0,0,0,1 @ F,0,0,1,0,0,0,1 @ F,0,0,1,0,0,0,1 @ F,0,0,1,0,0,0,1 @ F,0,0,1,0,0,0,1 @ F,0,0,1,0,0,0,1 @ F,0,1,1,0,44.540776,0,1 @ F,0,1,1,0,44.540776,0,1 | F,0,1,1,0,44.540776,0,1 @ F,0,1,1,0,44.540776,0,1 @ F,0,0,1,0,0,0,1 @ F,0,0,1,0,0,0,1 @ F,0,0,1,0,0,0,1 @ F,0,0,1,0,0,0,1 @ F,0,0,1,0,0,0,1 @ F,0,0,1,0,0,0,1 @ F,0,0,1,0,0,0,1 @ F,0,0,1,0,0,0,1 @ F,0,0,1,0,0,0,1 @ F,0,0,1,0,0,0,1 @ F,0,0,1,0,0,0,1 @ F,0,0,1,0,0,0,1 @ F,0,0,1,0,0,0,1 @ F,0,0,1,0,0,0,1 @ F,0,0,1,0,0,0,1 @ F,0,0,1,0,0,0,1 @ F,0,0,1,0,0,0,1 @ F,0,0,1,0,0,0,1 @ F,0,0,1,0,0,0,1 @ F,0,0,1,0,0,0,1 @ F,0,0,1,0,0,0,1 @ F,0,0,1,0,0,0,1 @ F,0,1,1,0,44.540776,0,1 @ F,0,1,1,0,44.540776,0,1 @ F,0,0,1,0,0,0,1 @ F,0,0,1,0,0,0,1 @ F,0,0,1,0,0,0,1 @ F,0,0,1,0,0,0,1 @ F,0,0,1,0,0,0,1 @ F,0,0,1,0,0,0,1 @ F,0,0,1,0,0,0,1 @ F,0,0,1,0,0,0,1 @ F,0,0,1,0,0,0,1 @ F,0,0,1,0,0,0,1 @ F,0,0,1,0,0,0,1 @ F,0,0,1,0,0,0,1 @ F,0,0,1,0,0,0,1 @ F,0,0,1,0,0,0,1 @ F,0,0,1,0,0,0,1 @ F,0,0,1,0,0,0,1 @ F,0,0,1,0,0,0,1 @ F,0,0,1,0,0,0,1 @ F,0,0,1,0,0,0,1 @ F,0,0,1,0,0,0,1 @ F,0,0,1,0,0,0,1 @ F,0,0,1,0,0,0,1 @ F,0,0,1,0,0,0,1 @ F,0,0,1,0,0,0,1"
   unit="px"
   method="auto"
   mode="F"
   radius="0"
   chamfer_steps="1"
   flexible="false"
   use_knot_distance="true"
   apply_no_radius="true"
   apply_with_radius="true"
   only_selected="true"
   hide_knots="false" /><inkscape:path-effect
   effect="spiro"
   id="path-effect846"
   is_visible="true"
   lpeversion="1" /><inkscape:path-effect
   effect="fillet_chamfer"
   id="path-effect843"
   is_visible="true"
   lpeversion="1"
   satellites_param="F,0,1,1,0,31.458082,0,1 @ F,0,1,1,0,31.458082,0,1 @ F,0,0,1,0,0,0,1 @ F,0,0,1,0,0,0,1 @ F,0,0,1,0,0,0,1 @ F,0,0,1,0,0,0,1 @ F,0,0,1,0,0,0,1 @ F,0,0,1,0,0,0,1 @ F,0,0,1,0,0,0,1 @ F,0,0,1,0,0,0,1 @ F,0,0,1,0,0,0,1 @ F,0,0,1,0,0,0,1 @ F,0,0,1,0,0,0,1 @ F,0,0,1,0,0,0,1 @ F,0,0,1,0,0,0,1 @ F,0,0,1,0,0,0,1 @ F,0,0,1,0,0,0,1 @ F,0,0,1,0,0,0,1 @ F,0,0,1,0,0,0,1 @ F,0,0,1,0,0,0,1 @ F,0,0,1,0,0,0,1 @ F,0,0,1,0,0,0,1 @ F,0,0,1,0,0,0,1 @ F,0,0,1,0,0,0,1 @ F,0,1,1,0,31.458082,0,1 @ F,0,1,1,0,31.458082,0,1 @ F,0,0,1,0,0,0,1 @ F,0,0,1,0,0,0,1 @ F,0,0,1,0,0,0,1 @ F,0,0,1,0,0,0,1 @ F,0,0,1,0,0,0,1 @ F,0,0,1,0,0,0,1 @ F,0,0,1,0,0,0,1 @ F,0,0,1,0,0,0,1 @ F,0,0,1,0,0,0,1 @ F,0,0,1,0,0,0,1 @ F,0,0,1,0,0,0,1 @ F,0,0,1,0,0,0,1 @ F,0,0,1,0,0,0,1 @ F,0,0,1,0,0,0,1 @ F,0,0,1,0,0,0,1 @ F,0,0,1,0,0,0,1 @ F,0,0,1,0,0,0,1 @ F,0,0,1,0,0,0,1 @ F,0,0,1,0,0,0,1 @ F,0,0,1,0,0,0,1 @ F,0,0,1,0,0,0,1 @ F,0,0,1,0,0,0,1 @ F,0,0,1,0,0,0,1 @ F,0,0,1,0,0,0,1"
   unit="px"
   method="auto"
   mode="F"
   radius="0"
   chamfer_steps="1"
   flexible="false"
   use_knot_distance="true"
   apply_no_radius="true"
   apply_with_radius="true"
   only_selected="true"
   hide_knots="false" /><inkscape:path-effect
   effect="spiro"
   id="path-effect844"
   is_visible="true"
   lpeversion="1" />
  <style
   type="text/css"
   id="style2">
   <![CDATA[
    .fil0 {fill:#EF7F1A;fill-rule:nonzero}
   ]]>
  </style>
 <inkscape:path-effect
   effect="spiro"
   id="path-effect1214"
   is_visible="true"
   lpeversion="1" /><inkscape:path-effect
   effect="spiro"
   id="path-effect1195"
   is_visible="true"
   lpeversion="1" /><inkscape:path-effect
   effect="spiro"
   id="path-effect992"
   is_visible="true"
   lpeversion="1" /></defs>
 
<path
   id="path844"
   style="fill:#000000;fill-rule:nonzero;stroke:#000000;stroke-width:1px;stroke-linecap:butt;stroke-linejoin:miter;stroke-opacity:1"
   inkscape:path-effect="#path-effect846;#path-effect851"
   inkscape:original-d="m 125.76529,308.73053 c -16.98861,126.49241 -27.33739,263.40215 18.73067,382.42599 33.3439,86.14903 94.93461,170.1107 176.32786,213.79834 89.06632,47.80614 203.88716,57.33933 301.61508,31.50349 37.3484,-9.87361 96.88834,-28.88897 94.25818,-67.43081 -3.3237,-48.70485 -84.15287,-50.37493 -129.58468,-68.23997 -27.00169,-10.61781 -84.01343,-22.7641 -84.01343,-22.7641 l 155.87091,-47.34168 c 0,0 133.12961,139.4664 103.3099,212.29853 C 739.51313,998.58594 652.37049,999.78318 592.3825,1003.2104 459.60982,1010.7959 314.79905,986.55564 203.60936,913.5969 148.26111,877.27934 111.15154,814.91438 85.65319,753.82242 29.1605,618.47057 18.77156,465.74713 17.7938,319.08224 17.30205,245.31913 49.00458,100 49.00458,100 H 194 c 0,0 -58.49101,136.18173 -68.23471,208.73053 z M 375.75113,800 H 226 c 0,0 20.07567,-145.47657 24.96079,-218.68059 6.76554,-101.38245 -43.5094,-216.02382 5.97947,-304.76516 C 310.13,181.17666 423.04015,100.51904 532.23511,98.939357 c 75.84286,-1.097191 159.94696,50.360423 194.69842,117.782083 15.54137,30.15196 8.55288,71.65927 -7.61606,101.4794 -19.55814,36.07078 -63.93161,51.59462 -97.84456,74.69298 -22.83947,15.55614 -73.64523,15.39533 -70.94078,42.89662 2.4627,25.04288 48.3953,14.61453 70.97082,25.73014 52.82435,26.00936 126.97368,40.29687 148.9759,94.9119 22.96247,56.99862 2.58518,138.40053 -43.39196,179.17087 -66.83151,59.263 -182.81997,63.72771 -266.11409,31.46869 -28.64434,-11.09368 -60.35326,-69.63903 -60.35326,-69.63903 L 460.82092,586.4888 c 20.56418,31.8184 43.2773,100.26198 89.56311,115.27436 52.68294,17.08723 133.03191,2.23076 159.54512,-46.39552 17.22771,-31.59629 -3.68601,-79.82504 -30.81364,-103.47268 -36.19533,-31.55211 -100.39162,1.40501 -142.37778,-21.89305 -40.93529,-22.71494 -95.3451,-59.83011 -91.56599,-106.49257 3.25089,-40.14036 55.71339,-61.31204 92.48271,-77.73866 27.7134,-12.3809 71.56863,11.17578 90.15225,-12.82356 15.73775,-20.32411 8.62484,-57.55092 -8.59638,-76.63431 -37.67106,-41.74454 -110.06042,-48.57644 -164.83223,-35.85775 -51.03789,11.85163 -100.82803,50.27677 -123.15425,97.6779 -42.29432,89.79572 -5.8786,199.1603 5.92126,297.71406 4.54745,37.98078 17.14412,74.56511 24.86839,112.02915 C 366.95544,751.84551 375.75113,800 375.75113,800 Z"
   d="m 125.76529,308.73053 c -26.173873,126.65008 -26.476829,261.25835 18.73067,382.42599 33.0299,88.52856 92.537,170.12486 176.32786,213.79834 45.56362,23.74868 96.70164,35.57643 147.95249,39.23606 51.25085,3.65962 102.77398,-0.63383 153.66259,-7.73257 20.9503,-2.92248 42.35452,-6.49757 60.73516,-16.96696 9.19032,-5.23469 17.49799,-12.19215 23.58408,-20.84221 6.08609,-8.65006 9.87194,-19.04527 9.93894,-29.62164 0.0857,-13.52765 -5.95392,-26.69672 -15.15274,-36.61571 -9.19883,-9.91898 -21.3616,-16.76592 -34.17484,-21.10473 -25.62649,-8.67764 -53.35311,-7.65702 -80.2571,-10.51953 -28.97276,-3.08262 -57.44768,-10.79812 -84.01343,-22.7641 l 155.87091,-47.34168 c 25.0577,-1.54824 50.53505,4.50303 72.22034,17.15347 21.68528,12.65045 39.49246,31.84987 50.47779,54.42436 10.98533,22.5745 15.10522,48.43451 11.6786,73.30504 -3.42661,24.87054 -14.38614,48.65294 -31.06683,67.41566 -20.50368,23.06289 -48.90334,38.04301 -78.50776,46.7537 -29.60443,8.71069 -60.59023,11.55238 -91.38952,13.47638 -67.96634,4.2458 -136.66657,4.1923 -203.5886,-8.41293 C 321.87186,982.19224 256.49204,956.5023 203.60936,913.5969 151.75015,871.52187 113.68579,814.43479 85.65319,753.82242 23.444635,619.31447 8.4688405,466.98538 17.7938,319.08224 21.50585,260.20544 28.92009,201.56252 39.971033,143.61319 44.578868,119.45046 68.946165,100 93.545356,100 h 55.913864 c 24.5992,0 36.16143,18.10941 26.97809,40.92787 -21.8435,54.27598 -38.83103,110.50652 -50.67202,167.80266 z M 331.21035,800 l -60.66957,0 c -24.5992,0 -39.1029,-19.21043 -34.07353,-43.28588 12.02647,-57.57043 16.9256,-116.63068 14.49354,-175.39471 -2.11892,-51.19795 -9.75115,-102.03604 -12.27367,-153.21569 -2.52252,-51.17966 0.27709,-103.56425 18.25314,-151.54947 20.39356,-54.43853 60.11315,-101.00573 109.40248,-131.828 49.28933,-30.82228 107.76013,-46.092501 165.89237,-45.786893 40.59072,0.21339 81.72932,8.083233 117.31515,27.610163 35.58582,19.52693 65.21645,51.44699 77.38327,90.17192 10.41222,33.14032 7.46382,70.18575 -7.61606,101.4794 -9.25513,19.20618 -22.94932,36.28913 -39.8426,49.29497 -16.89328,13.00584 -36.9721,21.89375 -58.00196,25.39801 -15.30822,2.55085 -31.27861,2.34601 -45.74683,7.96018 -7.23411,2.80709 -14.0166,7.12842 -18.83148,13.21357 -4.81487,6.08514 -7.50451,14.04773 -6.36247,21.72287 1.02459,6.88583 5.0593,13.13011 10.44802,17.53762 5.38872,4.40752 12.051,7.07533 18.8799,8.42834 13.65779,2.70601 27.73174,0.34501 41.6429,-0.23582 31.40804,-1.31138 63.23634,6.80816 89.85729,23.52668 26.62096,16.71853 47.85566,42.03679 59.11861,71.38522 11.61267,30.25971 12.48725,64.2256 4.24509,95.5716 -8.24217,31.34599 -25.34888,60.06755 -47.63705,83.59927 -33.4763,35.34408 -79.13858,59.19098 -127.43543,65.29681 -48.29685,6.10583 -98.86158,-5.81979 -138.67866,-33.82812 -13.23023,-9.30648 -25.24873,-20.32194 -35.71547,-32.65405 -15.88185,-18.71231 -15.12693,-54.5124 -3.39469,-76.13356 l 17.71518,-32.64705 c 11.73224,-21.62116 24.71901,-19.05741 35.93548,2.74601 16.26351,31.61422 42.75198,58.04538 74.87073,73.37977 27.98512,13.36088 60.45865,18.45729 90.53168,10.88811 15.03652,-3.78458 29.32891,-10.69116 41.3559,-20.47745 12.02698,-9.78629 21.74838,-22.47084 27.65754,-36.80618 7.43293,-18.03194 8.65102,-38.60004 3.16265,-57.31572 -5.48837,-18.71569 -17.68818,-35.42866 -33.97629,-46.15696 -20.28927,-13.3637 -45.41631,-17.01434 -69.69419,-17.92379 -24.27788,-0.90946 -48.81481,0.56107 -72.68359,-3.96926 -25.31671,-4.80515 -49.65324,-16.70351 -67.10974,-35.65862 -17.4565,-18.9551 -27.4608,-45.24102 -24.45625,-70.83395 2.56139,-21.81807 14.46162,-42.17748 31.52194,-56.01707 17.06031,-13.83959 38.99818,-21.23852 60.96077,-21.72159 15.702,-0.34537 31.31711,2.69297 47.02262,2.59768 7.85275,-0.0476 15.75685,-0.89371 23.23647,-3.28604 7.47962,-2.39234 14.53977,-6.38983 19.89316,-12.1352 4.8067,-5.15865 8.1334,-11.62941 9.83879,-18.47102 1.7054,-6.84162 1.81444,-14.0425 0.62977,-20.99322 -2.36932,-13.90146 -9.79908,-26.53955 -19.06494,-37.17007 -19.53901,-22.41666 -47.47113,-36.76275 -76.70601,-42.20345 -29.23489,-5.4407 -59.68255,-2.32825 -88.12622,6.3457 -51.39866,15.67411 -97.45586,50.48581 -123.15425,97.6779 -24.33702,44.69209 -29.58647,97.68628 -24.91157,148.35993 4.67489,50.67365 18.65538,99.94378 30.83283,149.35413 9.15423,37.14357 17.31815,74.52664 24.86839,112.02915 1.90005,9.43765 3.76129,18.88312 5.58367,28.33608 C 372.25372,780.36652 355.80955,800 331.21035,800 Z"
   sodipodi:nodetypes="aaaaasccaaaaaccaccaaaaaaaaasaccaaaaaaaaaaaac" /></svg>
