<?xml version="1.0" encoding="UTF-8" standalone="no"?>
<svg
   xmlns:dc="http://purl.org/dc/elements/1.1/"
   xmlns:cc="http://creativecommons.org/ns#"
   xmlns:rdf="http://www.w3.org/1999/02/22-rdf-syntax-ns#"
   xmlns:svg="http://www.w3.org/2000/svg"
   xmlns="http://www.w3.org/2000/svg"
   xmlns:sodipodi="http://sodipodi.sourceforge.net/DTD/sodipodi-0.dtd"
   xmlns:inkscape="http://www.inkscape.org/namespaces/inkscape"
   xml:space="preserve"
   width="1000"
   height="1000"
   version="1.1"
   style="clip-rule:evenodd;fill-rule:evenodd;image-rendering:optimizeQuality;shape-rendering:geometricPrecision;text-rendering:geometricPrecision"
   viewBox="0 0 1000 1000"
   id="svg10"
   sodipodi:docname="ഭ്ര.svg"
   inkscape:version="1.0.2 (e86c870879, 2021-01-15)"><metadata
   id="metadata14"><rdf:RDF><cc:Work
       rdf:about=""><dc:format>image/svg+xml</dc:format><dc:type
         rdf:resource="http://purl.org/dc/dcmitype/StillImage" /><dc:title /></cc:Work></rdf:RDF></metadata><sodipodi:namedview
   pagecolor="#ffffff"
   bordercolor="#666666"
   borderopacity="1"
   objecttolerance="10"
   gridtolerance="10"
   guidetolerance="10"
   inkscape:pageopacity="0"
   inkscape:pageshadow="2"
   inkscape:window-width="1920"
   inkscape:window-height="1007"
   id="namedview12"
   showgrid="false"
   inkscape:zoom="0.84890884"
   inkscape:cx="327.86116"
   inkscape:cy="503.78033"
   inkscape:window-x="1920"
   inkscape:window-y="0"
   inkscape:window-maximized="1"
   inkscape:current-layer="svg10"
   showguides="true"
   inkscape:guide-bbox="true"
   inkscape:document-rotation="0"><sodipodi:guide
     position="0,1000"
     orientation="0,1"
     id="guide16"
     inkscape:label=""
     inkscape:locked="true"
     inkscape:color="rgb(0,0,255)" /><sodipodi:guide
     position="1763.3122,2036.1693"
     orientation="1000,0"
     id="guide18" /><sodipodi:guide
     position="0,200"
     orientation="0,1"
     id="guide20"
     inkscape:label="base"
     inkscape:locked="true"
     inkscape:color="rgb(0,0,255)" /><inkscape:grid
     type="xygrid"
     id="grid24"
     originx="-473.37552"
     originy="-489.69235" /><sodipodi:guide
     position="0,0"
     orientation="0,1"
     id="guide34"
     inkscape:label="bottom"
     inkscape:locked="true"
     inkscape:color="rgb(0,0,255)" /><sodipodi:guide
     position="225.05109,1693.3186"
     orientation="0,1"
     id="guide44"
     inkscape:label=""
     inkscape:locked="false"
     inkscape:color="rgb(0,0,255)" /><sodipodi:guide
     position="0,900"
     orientation="0,1"
     id="guide46"
     inkscape:label=""
     inkscape:locked="true"
     inkscape:color="rgb(0,0,255)" /><sodipodi:guide
     position="736.68904,591.69735"
     orientation="-1,0"
     id="guide841"
     inkscape:label="width"
     inkscape:locked="false"
     inkscape:color="rgb(0,0,255)" /></sodipodi:namedview>
 <defs
   id="defs4"><inkscape:path-effect
   effect="fillet_chamfer"
   id="path-effect846"
   is_visible="true"
   lpeversion="1"
   satellites_param="F,0,1,1,0,24.78495,0,1 @ F,0,1,1,0,24.78495,0,1 @ F,0,0,1,0,0,0,1 @ F,0,0,1,0,0,0,1 @ F,0,0,1,0,0,0,1 @ F,0,0,1,0,0,0,1 @ F,0,0,1,0,0,0,1 @ F,0,0,1,0,0,0,1 @ F,0,0,1,0,0,0,1 @ F,0,0,1,0,0,0,1 @ F,0,0,1,0,0,0,1 @ F,0,0,1,0,0,0,1 @ F,0,0,1,0,0,0,1 @ F,0,0,1,0,0,0,1 @ F,0,0,1,0,0,0,1 @ F,0,0,1,0,0,0,1 @ F,0,0,1,0,0,0,1 @ F,0,0,1,0,0,0,1 @ F,0,0,1,0,0,0,1 @ F,0,0,1,0,0,0,1 @ F,0,0,1,0,0,0,1 @ F,0,0,1,0,0,0,1 @ F,0,0,1,0,0,0,1 @ F,0,0,1,0,0,0,1 @ F,0,0,1,0,0,0,1 @ F,0,0,1,0,0,0,1 @ F,0,0,1,0,0,0,1 @ F,0,0,1,0,0,0,1 @ F,0,1,1,0,24.78495,0,1 @ F,0,1,1,0,24.78495,0,1 @ F,0,0,1,0,0,0,1 @ F,0,0,1,0,0,0,1 @ F,0,0,1,0,0,0,1 @ F,0,0,1,0,0,0,1 @ F,0,0,1,0,0,0,1 @ F,0,0,1,0,0,0,1 @ F,0,0,1,0,0,0,1 @ F,0,0,1,0,0,0,1 @ F,0,0,1,0,0,0,1 @ F,0,0,1,0,0,0,1 @ F,0,0,1,0,0,0,1 @ F,0,0,1,0,0,0,1 @ F,0,0,1,0,0,0,1 @ F,0,0,1,0,0,0,1 @ F,0,0,1,0,0,0,1 @ F,0,0,1,0,0,0,1 @ F,0,0,1,0,0,0,1 @ F,0,0,1,0,0,0,1 @ F,0,0,1,0,0,0,1 @ F,0,0,1,0,0,0,1 @ F,0,0,1,0,0,0,1 @ F,0,0,1,0,0,0,1 @ F,0,0,1,0,0,0,1 @ F,0,0,1,0,0,0,1 @ F,0,0,1,0,0,0,1 @ F,0,0,1,0,0,0,1 @ F,0,0,1,0,0,0,1 @ F,0,0,1,0,0,0,1 @ F,0,0,1,0,0,0,1 @ F,0,0,1,0,0,0,1"
   unit="px"
   method="auto"
   mode="F"
   radius="0"
   chamfer_steps="1"
   flexible="false"
   use_knot_distance="true"
   apply_no_radius="true"
   apply_with_radius="true"
   only_selected="true"
   hide_knots="false" /><inkscape:path-effect
   effect="fillet_chamfer"
   id="path-effect845"
   is_visible="true"
   lpeversion="1"
   satellites_param="F,0,1,1,0,39.099936,0,1 @ F,0,1,1,0,39.099936,0,1 @ F,0,0,1,0,0,0,1 @ F,0,0,1,0,0,0,1 @ F,0,0,1,0,0,0,1 @ F,0,0,1,0,0,0,1 @ F,0,0,1,0,0,0,1 @ F,0,0,1,0,0,0,1 @ F,0,0,1,0,0,0,1 @ F,0,0,1,0,0,0,1 @ F,0,0,1,0,0,0,1 @ F,0,0,1,0,0,0,1 @ F,0,0,1,0,0,0,1 @ F,0,0,1,0,0,0,1 @ F,0,0,1,0,0,0,1 @ F,0,0,1,0,0,0,1 @ F,0,0,1,0,0,0,1 @ F,0,0,1,0,0,0,1 @ F,0,0,1,0,0,0,1 @ F,0,0,1,0,0,0,1 @ F,0,0,1,0,0,0,1 @ F,0,0,1,0,0,0,1 @ F,0,0,1,0,0,0,1 @ F,0,0,1,0,0,0,1 @ F,0,0,1,0,0,0,1 @ F,0,0,1,0,0,0,1 @ F,0,0,1,0,0,0,1 @ F,0,1,1,0,39.099936,0,1 @ F,0,1,1,0,39.099936,0,1 @ F,0,0,1,0,0,0,1 @ F,0,0,1,0,0,0,1 @ F,0,0,1,0,0,0,1 @ F,0,0,1,0,0,0,1 @ F,0,0,1,0,0,0,1 @ F,0,0,1,0,0,0,1 @ F,0,0,1,0,0,0,1 @ F,0,0,1,0,0,0,1 @ F,0,0,1,0,0,0,1 @ F,0,0,1,0,0,0,1 @ F,0,0,1,0,0,0,1 @ F,0,0,1,0,0,0,1 @ F,0,0,1,0,0,0,1 @ F,0,0,1,0,0,0,1 @ F,0,0,1,0,0,0,1 @ F,0,0,1,0,0,0,1 @ F,0,0,1,0,0,0,1 @ F,0,0,1,0,0,0,1 @ F,0,0,1,0,0,0,1 @ F,0,0,1,0,0,0,1 @ F,0,0,1,0,0,0,1 @ F,0,0,1,0,0,0,1 @ F,0,0,1,0,0,0,1 @ F,0,0,1,0,0,0,1 @ F,0,0,1,0,0,0,1 @ F,0,0,1,0,0,0,1 @ F,0,0,1,0,0,0,1 @ F,0,0,1,0,0,0,1"
   unit="px"
   method="auto"
   mode="F"
   radius="0"
   chamfer_steps="1"
   flexible="false"
   use_knot_distance="true"
   apply_no_radius="true"
   apply_with_radius="true"
   only_selected="true"
   hide_knots="false" /><inkscape:path-effect
   effect="fillet_chamfer"
   id="path-effect843"
   is_visible="true"
   lpeversion="1"
   satellites_param="F,0,1,1,0,31.458082,0,1 @ F,0,1,1,0,31.458082,0,1 @ F,0,0,1,0,0,0,1 @ F,0,0,1,0,0,0,1 @ F,0,0,1,0,0,0,1 @ F,0,0,1,0,0,0,1 @ F,0,0,1,0,0,0,1 @ F,0,0,1,0,0,0,1 @ F,0,0,1,0,0,0,1 @ F,0,0,1,0,0,0,1 @ F,0,0,1,0,0,0,1 @ F,0,0,1,0,0,0,1 @ F,0,0,1,0,0,0,1 @ F,0,0,1,0,0,0,1 @ F,0,0,1,0,0,0,1 @ F,0,0,1,0,0,0,1 @ F,0,0,1,0,0,0,1 @ F,0,0,1,0,0,0,1 @ F,0,0,1,0,0,0,1 @ F,0,0,1,0,0,0,1 @ F,0,0,1,0,0,0,1 @ F,0,0,1,0,0,0,1 @ F,0,0,1,0,0,0,1 @ F,0,0,1,0,0,0,1 @ F,0,1,1,0,31.458082,0,1 @ F,0,1,1,0,31.458082,0,1 @ F,0,0,1,0,0,0,1 @ F,0,0,1,0,0,0,1 @ F,0,0,1,0,0,0,1 @ F,0,0,1,0,0,0,1 @ F,0,0,1,0,0,0,1 @ F,0,0,1,0,0,0,1 @ F,0,0,1,0,0,0,1 @ F,0,0,1,0,0,0,1 @ F,0,0,1,0,0,0,1 @ F,0,0,1,0,0,0,1 @ F,0,0,1,0,0,0,1 @ F,0,0,1,0,0,0,1 @ F,0,0,1,0,0,0,1 @ F,0,0,1,0,0,0,1 @ F,0,0,1,0,0,0,1 @ F,0,0,1,0,0,0,1 @ F,0,0,1,0,0,0,1 @ F,0,0,1,0,0,0,1 @ F,0,0,1,0,0,0,1 @ F,0,0,1,0,0,0,1 @ F,0,0,1,0,0,0,1 @ F,0,0,1,0,0,0,1 @ F,0,0,1,0,0,0,1 @ F,0,0,1,0,0,0,1"
   unit="px"
   method="auto"
   mode="F"
   radius="0"
   chamfer_steps="1"
   flexible="false"
   use_knot_distance="true"
   apply_no_radius="true"
   apply_with_radius="true"
   only_selected="true"
   hide_knots="false" /><inkscape:path-effect
   effect="spiro"
   id="path-effect844"
   is_visible="true"
   lpeversion="1" />
  <style
   type="text/css"
   id="style2">
   <![CDATA[
    .fil0 {fill:#EF7F1A;fill-rule:nonzero}
   ]]>
  </style>
 <inkscape:path-effect
   effect="spiro"
   id="path-effect1214"
   is_visible="true"
   lpeversion="1" /><inkscape:path-effect
   effect="spiro"
   id="path-effect1195"
   is_visible="true"
   lpeversion="1" /><inkscape:path-effect
   effect="spiro"
   id="path-effect992"
   is_visible="true"
   lpeversion="1" /></defs>
 
<path
   style="fill:#000000;stroke:none;stroke-width:0.895896px;stroke-linecap:butt;stroke-linejoin:miter;stroke-opacity:1"
   d="m 316.54286,793.62727 -90.14333,-23.9841 c -13.22814,-3.51956 -21.54007,-17.21161 -19.26801,-30.70882 7.21374,-42.85339 9.17077,-86.5917 5.783,-129.91646 -4.36773,-55.85702 -17.51465,-110.63355 -25.00461,-166.15817 -7.48995,-55.52463 -9.09827,-113.29192 9.03035,-166.30547 18.87276,-55.18964 58.83906,-102.26569 108.48335,-132.88467 49.64429,-30.61898 108.48563,-45.14386 166.8115,-44.730223 40.65229,0.288299 81.88828,7.890063 117.60047,27.315093 35.71219,19.42502 65.48019,51.50907 77.09795,90.46699 9.89406,33.17781 6.13808,69.70704 -7.61606,101.4794 -20.04277,46.29921 -61.85978,82.91484 -110.74974,95.36883 -12.89374,3.28449 -26.32515,5.00925 -38.41465,10.56625 -6.04475,2.7785 -11.71328,6.53375 -16.13328,11.50594 -4.42001,4.97218 -7.5402,11.21869 -8.19356,17.83928 -0.54206,5.49279 0.62632,11.09794 3.02025,16.07124 2.39393,4.97329 5.98341,9.32638 10.19724,12.89124 8.42766,7.12971 19.11674,11.02934 29.83117,13.68623 26.024,6.45324 53.1488,6.32726 79.86992,8.53517 26.72112,2.2079 54.1849,7.15003 76.35851,22.22398 21.25252,14.44778 35.92142,37.34143 43.39834,61.92809 7.47691,24.58666 8.18002,50.82735 5.44293,76.37958 -6.28378,58.66246 -30.91627,115.3677 -70.22307,159.36481 -46.67351,52.24285 -112.79265,85.39199 -181.80874,97.41327 C 412.8967,933.99603 341.20614,925.68588 274.62101,903.91083 200.24062,879.58653 129.80048,836.98752 84.233925,773.36517 56.250356,734.29308 38.481041,688.5364 28.288043,641.57034 18.095045,594.60427 15.264479,546.31908 15.28928,498.25966 15.33917,401.58415 26.821183,305.15119 44.81916,210.16577 c 5.582794,-29.46354 11.792888,-58.80821 18.624501,-88.00747 3.118368,-13.32833 16.66393,-21.89888 30.080394,-19.18422 l 74.333295,15.04048 c 13.41647,2.71467 17.76836,13.90045 10.31727,25.38164 -8.82704,13.60136 -17.0281,27.60899 -24.56707,41.96441 -49.18281,93.65205 -69.221266,200.51562 -71.544104,306.27128 -1.137787,51.80191 1.89803,104.15776 15.828534,154.06441 13.9305,49.90664 39.34394,97.48547 77.88769,132.11366 31.92323,28.68023 71.84578,47.60029 113.4183,58.24801 41.57252,10.64771 84.85524,13.3007 127.75219,12.07602 33.54288,-0.95763 67.19222,-4.28886 99.57808,-13.0751 32.38586,-8.78624 63.56827,-23.19726 89.33711,-44.69165 16.33634,-13.62652 30.41777,-30.07495 40.58997,-48.75875 10.17221,-18.6838 16.37584,-39.62595 17.14085,-60.8856 0.63536,-17.65672 -2.5234,-35.54468 -10.01705,-51.54495 -7.49365,-16.00027 -19.40419,-30.043 -34.46361,-39.28298 -20.66688,-12.68054 -45.74533,-15.73256 -69.97832,-16.55605 -24.23299,-0.82348 -48.80441,0.24776 -72.39946,-5.337 -30.9215,-7.31887 -59.0636,-26.4906 -76.35318,-53.15097 -17.28959,-26.66037 -23.2875,-60.60881 -15.21281,-91.3416 5.47082,-20.8223 17.26088,-40.0031 33.64931,-53.96439 16.38843,-13.96129 37.33747,-22.58141 58.8334,-23.77427 15.64762,-0.86833 31.26641,2.08873 46.93811,2.08929 7.83585,2.8e-4 15.7288,-0.75253 23.22155,-3.04583 7.49275,-2.29329 14.59314,-6.18843 19.99259,-11.86702 4.86702,-5.11863 8.2411,-11.58616 9.9702,-18.4344 1.72911,-6.84825 1.83954,-14.06491 0.64247,-21.02589 -2.39413,-13.92197 -9.89698,-26.55148 -19.20905,-37.17402 -19.60356,-22.36232 -47.49397,-36.74299 -76.72197,-42.22911 -29.22799,-5.48613 -59.69798,-2.41019 -88.11026,6.37136 -55.96655,17.2979 -105.19416,58.22906 -128.09597,112.14547 -15.37409,36.19434 -18.70093,76.65206 -14.9122,115.79332 3.78873,39.14126 14.41948,77.28093 26.10677,114.82824 15.78323,50.70616 33.59478,100.83631 46.49053,152.35256 4.96037,19.81579 9.18686,39.81526 12.66874,59.94353 2.33313,13.48753 -6.86496,21.62865 -20.0931,18.10909 z"
   id="path842"
   inkscape:path-effect="#path-effect844;#path-effect846"
   inkscape:original-d="M 340.49452,800 202.44787,763.27044 c 0,0 9.95803,-102.71931 10.46665,-154.25255 1.09499,-110.94366 -66.70593,-233.79251 -15.97426,-332.46364 49.93482,-97.1213 166.09989,-176.03521 275.29485,-177.614893 75.84286,-1.097191 159.94696,50.360423 194.69842,117.782083 15.54137,30.15196 7.66776,71.19608 -7.61606,101.4794 -21.95039,43.49246 -71.63678,66.32422 -110.74974,95.36883 -19.89998,14.77738 -60.09226,15.26676 -62.74149,39.91147 -2.15892,20.08358 25.20307,33.18583 43.04866,42.64871 46.89127,24.8648 116.077,-3.95269 156.22843,30.75915 36.9869,31.97604 50.68851,89.44986 48.84127,138.30767 -2.19322,58.00874 -25.02871,122.93276 -70.22307,159.36481 -103.055,83.07462 -259.3679,105.63951 -389.10052,79.34935 C 199.20562,888.62799 128.16667,836.53921 84.233925,773.36517 30.25873,695.75037 22.0623,592.55443 15.28928,498.25966 8.3732,401.97327 29.60363,305.49356 44.81916,210.16577 50.8472,172.39908 69.231398,98.058744 69.231398,98.058744 L 192.15001,122.9299 c 5.26848,8.15177 -29.21528,39.82258 -38.54246,62.43071 -39.98315,96.91507 -76.10247,201.53158 -71.544104,306.27128 4.364384,100.28248 21.586294,216.37193 93.716224,286.17807 60.17316,58.23458 157.43413,70.86936 241.17049,70.32403 65.84856,-0.42883 138.1896,-15.7771 188.91519,-57.76675 31.81789,-26.33824 57.12675,-68.34403 57.73082,-109.64435 0.49303,-33.70799 -17.32018,-70.85846 -44.48066,-90.82793 -38.68599,-28.44349 -102.19401,4.39197 -142.37778,-21.89305 -47.71876,-31.2138 -100.28333,-88.14198 -91.56599,-144.49257 6.15674,-39.79838 55.71339,-61.31204 92.48271,-77.73866 27.7134,-12.3809 71.56863,11.17578 90.15225,-12.82356 15.73775,-20.32411 8.62484,-57.55092 -8.59638,-76.63431 -37.67106,-41.74454 -110.38536,-49.90245 -164.83223,-35.85775 -54.95134,14.17483 -105.91304,59.91048 -128.09597,112.14547 -30.08442,70.84095 -2.00385,154.79732 11.19457,230.62156 9.1053,52.30945 33.62481,100.83888 46.49053,152.35256 C 330.9157,743.39602 340.49452,800 340.49452,800 Z"
   sodipodi:nodetypes="ccaaaaaaaaaaaaaaaccaaaaaaaaaaaaaaaac" /></svg>
