<?xml version="1.0" encoding="UTF-8" standalone="no"?>
<svg
   xmlns:dc="http://purl.org/dc/elements/1.1/"
   xmlns:cc="http://creativecommons.org/ns#"
   xmlns:rdf="http://www.w3.org/1999/02/22-rdf-syntax-ns#"
   xmlns:svg="http://www.w3.org/2000/svg"
   xmlns="http://www.w3.org/2000/svg"
   xmlns:sodipodi="http://sodipodi.sourceforge.net/DTD/sodipodi-0.dtd"
   xmlns:inkscape="http://www.inkscape.org/namespaces/inkscape"
   xml:space="preserve"
   width="1000"
   height="1000"
   version="1.1"
   style="clip-rule:evenodd;fill-rule:evenodd;image-rendering:optimizeQuality;shape-rendering:geometricPrecision;text-rendering:geometricPrecision"
   viewBox="0 0 1000 1000"
   id="svg10"
   sodipodi:docname="ഭ്ര.svg"
   inkscape:version="1.0.2 (e86c870879, 2021-01-15)"><metadata
   id="metadata14"><rdf:RDF><cc:Work
       rdf:about=""><dc:format>image/svg+xml</dc:format><dc:type
         rdf:resource="http://purl.org/dc/dcmitype/StillImage" /><dc:title /></cc:Work></rdf:RDF></metadata><sodipodi:namedview
   pagecolor="#ffffff"
   bordercolor="#666666"
   borderopacity="1"
   objecttolerance="10"
   gridtolerance="10"
   guidetolerance="10"
   inkscape:pageopacity="0"
   inkscape:pageshadow="2"
   inkscape:window-width="1920"
   inkscape:window-height="1007"
   id="namedview12"
   showgrid="false"
   inkscape:zoom="0.84890884"
   inkscape:cx="327.86116"
   inkscape:cy="503.78033"
   inkscape:window-x="1920"
   inkscape:window-y="0"
   inkscape:window-maximized="1"
   inkscape:current-layer="svg10"
   showguides="true"
   inkscape:guide-bbox="true"
   inkscape:document-rotation="0"><sodipodi:guide
     position="0,1000"
     orientation="0,1"
     id="guide16"
     inkscape:label=""
     inkscape:locked="true"
     inkscape:color="rgb(0,0,255)" /><sodipodi:guide
     position="1763.3122,2036.1693"
     orientation="1000,0"
     id="guide18" /><sodipodi:guide
     position="0,200"
     orientation="0,1"
     id="guide20"
     inkscape:label="base"
     inkscape:locked="true"
     inkscape:color="rgb(0,0,255)" /><inkscape:grid
     type="xygrid"
     id="grid24"
     originx="-473.37552"
     originy="-489.69235" /><sodipodi:guide
     position="0,0"
     orientation="0,1"
     id="guide34"
     inkscape:label="bottom"
     inkscape:locked="true"
     inkscape:color="rgb(0,0,255)" /><sodipodi:guide
     position="225.05109,1693.3186"
     orientation="0,1"
     id="guide44"
     inkscape:label=""
     inkscape:locked="false"
     inkscape:color="rgb(0,0,255)" /><sodipodi:guide
     position="0,900"
     orientation="0,1"
     id="guide46"
     inkscape:label=""
     inkscape:locked="true"
     inkscape:color="rgb(0,0,255)" /><sodipodi:guide
     position="736.68904,591.69735"
     orientation="-1,0"
     id="guide841"
     inkscape:label="width"
     inkscape:locked="false"
     inkscape:color="rgb(0,0,255)" /></sodipodi:namedview>
 <defs
   id="defs4"><inkscape:path-effect
   effect="fillet_chamfer"
   id="path-effect845"
   is_visible="true"
   lpeversion="1"
   satellites_param="F,0,1,1,0,39.099936,0,1 @ F,0,1,1,0,39.099936,0,1 @ F,0,0,1,0,0,0,1 @ F,0,0,1,0,0,0,1 @ F,0,0,1,0,0,0,1 @ F,0,0,1,0,0,0,1 @ F,0,0,1,0,0,0,1 @ F,0,0,1,0,0,0,1 @ F,0,0,1,0,0,0,1 @ F,0,0,1,0,0,0,1 @ F,0,0,1,0,0,0,1 @ F,0,0,1,0,0,0,1 @ F,0,0,1,0,0,0,1 @ F,0,0,1,0,0,0,1 @ F,0,0,1,0,0,0,1 @ F,0,0,1,0,0,0,1 @ F,0,0,1,0,0,0,1 @ F,0,0,1,0,0,0,1 @ F,0,0,1,0,0,0,1 @ F,0,0,1,0,0,0,1 @ F,0,0,1,0,0,0,1 @ F,0,0,1,0,0,0,1 @ F,0,0,1,0,0,0,1 @ F,0,0,1,0,0,0,1 @ F,0,0,1,0,0,0,1 @ F,0,0,1,0,0,0,1 @ F,0,0,1,0,0,0,1 @ F,0,1,1,0,39.099936,0,1 @ F,0,1,1,0,39.099936,0,1 @ F,0,0,1,0,0,0,1 @ F,0,0,1,0,0,0,1 @ F,0,0,1,0,0,0,1 @ F,0,0,1,0,0,0,1 @ F,0,0,1,0,0,0,1 @ F,0,0,1,0,0,0,1 @ F,0,0,1,0,0,0,1 @ F,0,0,1,0,0,0,1 @ F,0,0,1,0,0,0,1 @ F,0,0,1,0,0,0,1 @ F,0,0,1,0,0,0,1 @ F,0,0,1,0,0,0,1 @ F,0,0,1,0,0,0,1 @ F,0,0,1,0,0,0,1 @ F,0,0,1,0,0,0,1 @ F,0,0,1,0,0,0,1 @ F,0,0,1,0,0,0,1 @ F,0,0,1,0,0,0,1 @ F,0,0,1,0,0,0,1 @ F,0,0,1,0,0,0,1 @ F,0,0,1,0,0,0,1 @ F,0,0,1,0,0,0,1 @ F,0,0,1,0,0,0,1 @ F,0,0,1,0,0,0,1 @ F,0,0,1,0,0,0,1 @ F,0,0,1,0,0,0,1 @ F,0,0,1,0,0,0,1 @ F,0,0,1,0,0,0,1"
   unit="px"
   method="auto"
   mode="F"
   radius="0"
   chamfer_steps="1"
   flexible="false"
   use_knot_distance="true"
   apply_no_radius="true"
   apply_with_radius="true"
   only_selected="true"
   hide_knots="false" /><inkscape:path-effect
   effect="fillet_chamfer"
   id="path-effect843"
   is_visible="true"
   lpeversion="1"
   satellites_param="F,0,1,1,0,31.458082,0,1 @ F,0,1,1,0,31.458082,0,1 @ F,0,0,1,0,0,0,1 @ F,0,0,1,0,0,0,1 @ F,0,0,1,0,0,0,1 @ F,0,0,1,0,0,0,1 @ F,0,0,1,0,0,0,1 @ F,0,0,1,0,0,0,1 @ F,0,0,1,0,0,0,1 @ F,0,0,1,0,0,0,1 @ F,0,0,1,0,0,0,1 @ F,0,0,1,0,0,0,1 @ F,0,0,1,0,0,0,1 @ F,0,0,1,0,0,0,1 @ F,0,0,1,0,0,0,1 @ F,0,0,1,0,0,0,1 @ F,0,0,1,0,0,0,1 @ F,0,0,1,0,0,0,1 @ F,0,0,1,0,0,0,1 @ F,0,0,1,0,0,0,1 @ F,0,0,1,0,0,0,1 @ F,0,0,1,0,0,0,1 @ F,0,0,1,0,0,0,1 @ F,0,0,1,0,0,0,1 @ F,0,1,1,0,31.458082,0,1 @ F,0,1,1,0,31.458082,0,1 @ F,0,0,1,0,0,0,1 @ F,0,0,1,0,0,0,1 @ F,0,0,1,0,0,0,1 @ F,0,0,1,0,0,0,1 @ F,0,0,1,0,0,0,1 @ F,0,0,1,0,0,0,1 @ F,0,0,1,0,0,0,1 @ F,0,0,1,0,0,0,1 @ F,0,0,1,0,0,0,1 @ F,0,0,1,0,0,0,1 @ F,0,0,1,0,0,0,1 @ F,0,0,1,0,0,0,1 @ F,0,0,1,0,0,0,1 @ F,0,0,1,0,0,0,1 @ F,0,0,1,0,0,0,1 @ F,0,0,1,0,0,0,1 @ F,0,0,1,0,0,0,1 @ F,0,0,1,0,0,0,1 @ F,0,0,1,0,0,0,1 @ F,0,0,1,0,0,0,1 @ F,0,0,1,0,0,0,1 @ F,0,0,1,0,0,0,1 @ F,0,0,1,0,0,0,1 @ F,0,0,1,0,0,0,1"
   unit="px"
   method="auto"
   mode="F"
   radius="0"
   chamfer_steps="1"
   flexible="false"
   use_knot_distance="true"
   apply_no_radius="true"
   apply_with_radius="true"
   only_selected="true"
   hide_knots="false" /><inkscape:path-effect
   effect="spiro"
   id="path-effect844"
   is_visible="true"
   lpeversion="1" />
  <style
   type="text/css"
   id="style2">
   <![CDATA[
    .fil0 {fill:#EF7F1A;fill-rule:nonzero}
   ]]>
  </style>
 <inkscape:path-effect
   effect="spiro"
   id="path-effect1214"
   is_visible="true"
   lpeversion="1" /><inkscape:path-effect
   effect="spiro"
   id="path-effect1195"
   is_visible="true"
   lpeversion="1" /><inkscape:path-effect
   effect="spiro"
   id="path-effect992"
   is_visible="true"
   lpeversion="1" /></defs>
 
<path
   style="fill:#000000;stroke:none;stroke-width:0.895896px;stroke-linecap:butt;stroke-linejoin:miter;stroke-opacity:1"
   d="m 298.60649,787.34906 -53.61431,-0.47914 c -21.59343,-0.19298 -35.78775,-17.56053 -33.20823,-38.99661 5.54151,-46.05053 5.93362,-92.72138 1.13057,-138.85542 -5.80631,-55.77046 -19.12087,-110.50245 -26.34061,-166.1076 -7.21975,-55.60515 -8.09787,-113.41145 10.36635,-166.35604 19.20067,-55.05631 59.04346,-102.10195 108.60539,-132.81803 49.56194,-30.71608 108.38429,-45.40533 166.68946,-44.796863 40.56451,0.423327 81.64706,8.301623 117.23171,27.779593 35.58466,19.47798 65.27667,51.31061 77.46671,90.00249 10.43881,33.13338 7.45888,70.18186 -7.61606,101.4794 -9.25318,19.2108 -22.93511,36.30738 -39.82623,49.32146 -16.89111,13.01408 -36.97919,21.90299 -58.01833,25.37152 -15.33354,2.5279 -31.33038,2.27418 -45.82342,7.88306 -7.24651,2.80444 -14.0399,7.13532 -18.84768,13.23959 -4.80778,6.10427 -7.46857,14.09676 -6.26968,21.77397 1.07122,6.85968 5.14463,13.05466 10.5493,17.41266 5.40468,4.358 12.06149,6.97828 18.87572,8.30831 13.62845,2.66005 27.66435,0.34985 41.5458,0.009 31.07257,-0.7626 62.16065,8.65664 88.18102,25.65741 26.02037,17.00078 46.97115,41.41584 60.79488,69.25449 16.45952,33.14669 22.84157,70.96995 19.8716,107.85895 -2.96997,36.889 -15.11965,72.81412 -33.66933,104.83799 -39.99201,69.04159 -109.52513,118.90254 -186.18258,141.03253 -76.65746,22.13 -159.74581,17.62487 -235.87753,-6.25112 C 199.88839,880.47362 129.60315,837.20795 84.233925,773.36517 28.569727,695.03547 15.333417,594.35359 15.28928,498.25966 15.244875,401.58229 26.800362,305.14913 44.81916,210.16577 49.518946,185.39156 54.658739,160.70083 60.235156,136.1091 65.010572,115.04976 86.737036,98.058744 108.33133,98.058744 l 54.02239,0 c 21.5943,0 29.61136,14.727456 18.97033,33.515236 -9.9425,17.55447 -19.19144,35.50177 -27.7165,53.78663 -44.61838,95.69907 -69.135605,200.7094 -71.544104,306.27128 -1.177924,51.62711 2.944985,103.7463 17.352394,153.33635 14.40741,49.59004 39.48671,96.6917 76.36383,132.84172 31.67533,31.0508 71.45225,53.38867 113.85317,66.41327 42.40092,13.0246 87.37144,16.89076 131.60045,13.53321 53.50759,-4.06192 106.94249,-19.02226 151.49375,-48.93457 44.55126,-29.91231 79.57564,-75.6393 90.86913,-128.09898 5.10128,-23.69609 5.30712,-48.7378 -1.82453,-71.90388 -7.13164,-23.16608 -21.95699,-44.31163 -42.65613,-56.92405 -20.70634,-12.61681 -45.66066,-16.07557 -69.88505,-17.13181 -24.22438,-1.05625 -48.71521,-0.0109 -72.49273,-4.76124 -25.22987,-5.04052 -49.47157,-16.93969 -66.93067,-35.83765 -17.45911,-18.89796 -27.56286,-45.09357 -24.63532,-70.65492 2.50075,-21.83488 14.40321,-42.22104 31.47758,-56.05872 17.07437,-13.83768 39.0325,-21.21167 61.00513,-21.67994 15.70304,-0.33466 31.31822,2.70577 47.02452,2.60871 7.85315,-0.0485 15.75754,-0.89647 23.23691,-3.29093 7.47936,-2.39445 14.53866,-6.39428 19.89082,-12.14134 4.80506,-5.15958 8.13027,-11.63047 9.83471,-18.47187 1.70444,-6.8414 1.81305,-14.04174 0.62848,-20.99204 -2.36914,-13.9006 -9.79669,-26.53844 -19.05957,-37.1704 -19.53578,-22.42321 -47.46553,-36.78112 -76.70246,-42.22619 -29.23694,-5.44506 -59.69013,-2.32835 -88.12977,6.36844 -51.37491,15.71035 -97.33658,50.56479 -123.15425,97.6779 -27.05628,49.37337 -30.88632,108.77658 -21.95366,164.36416 8.93266,55.58759 29.7382,108.45422 49.82865,161.04838 9.06733,23.73707 18.02932,47.55688 24.86839,72.02915 3.08692,11.04595 5.73697,22.21391 7.94348,33.46883 4.15305,21.18381 -11.71078,38.49856 -33.30421,38.30558 z"
   id="path842"
   inkscape:path-effect="#path-effect844;#path-effect845"
   inkscape:original-d="M 337.70486,787.69848 205.89381,786.5205 c 0,0 7.27175,-118.28934 7.02071,-177.50261 -0.47037,-110.94806 -66.70593,-233.79251 -15.97426,-332.46364 49.93482,-97.1213 166.09989,-176.03521 275.29485,-177.614893 75.84286,-1.097191 159.94696,50.360423 194.69842,117.782083 15.54137,30.15196 8.55288,71.65927 -7.61606,101.4794 -19.55814,36.07078 -63.93161,51.59462 -97.84456,74.69298 -22.83947,15.55614 -73.64523,15.39533 -70.94078,42.89662 2.4627,25.04288 48.3953,14.61453 70.97082,25.73014 52.82435,26.00936 122.34216,42.39959 148.9759,94.9119 32.1376,63.36397 29.94434,156.71079 -13.79773,212.69694 C 605.75529,885.50678 420.73646,925.39272 274.62101,903.91083 198.49105,892.71821 128.16667,836.53921 84.233925,773.36517 30.25873,695.75037 22.0623,592.55443 15.28928,498.25966 8.3732,401.97327 29.60363,305.49356 44.81916,210.16577 50.8472,172.39908 69.231398,98.058744 69.231398,98.058744 H 201.45366 c 5.26848,8.151776 -35.98809,56.308406 -47.84611,87.301866 -37.46279,97.91692 -76.10247,201.53158 -71.544104,306.27128 4.364384,100.28248 22.682064,215.25718 93.716224,286.17807 60.89393,60.79682 160.47704,93.4855 245.45362,79.94648 98.79865,-15.74124 212.44087,-81.5682 242.36288,-177.03355 13.58756,-43.35073 -9.60107,-99.71915 -44.48066,-128.82793 -36.86565,-30.76624 -100.39162,1.40501 -142.37778,-21.89305 -40.93529,-22.71494 -95.3451,-59.83011 -91.56599,-106.49257 3.25089,-40.14036 55.71339,-61.31204 92.48271,-77.73866 27.7134,-12.3809 71.56863,11.17578 90.15225,-12.82356 15.73775,-20.32411 8.62484,-57.55092 -8.59638,-76.63431 -37.67106,-41.74454 -110.06042,-48.57644 -164.83223,-35.85775 -51.03789,11.85163 -102.39369,49.57046 -123.15425,97.6779 -43.13628,99.9576 5.29256,218.91234 27.87499,325.41254 5.2688,24.84797 18.33035,47.48459 24.86839,72.02915 6.29946,23.64887 13.73764,72.12383 13.73764,72.12383 z"
   sodipodi:nodetypes="ccaaaaaaaaaaaaaaccaaaaaaaaaaaaaaac" /></svg>
