<?xml version="1.0" encoding="UTF-8" standalone="no"?>
<svg
   xmlns:dc="http://purl.org/dc/elements/1.1/"
   xmlns:cc="http://creativecommons.org/ns#"
   xmlns:rdf="http://www.w3.org/1999/02/22-rdf-syntax-ns#"
   xmlns:svg="http://www.w3.org/2000/svg"
   xmlns="http://www.w3.org/2000/svg"
   xmlns:sodipodi="http://sodipodi.sourceforge.net/DTD/sodipodi-0.dtd"
   xmlns:inkscape="http://www.inkscape.org/namespaces/inkscape"
   xml:space="preserve"
   width="1000"
   height="1000"
   version="1.1"
   style="clip-rule:evenodd;fill-rule:evenodd;image-rendering:optimizeQuality;shape-rendering:geometricPrecision;text-rendering:geometricPrecision"
   viewBox="0 0 1000 1000"
   id="svg10"
   sodipodi:docname="ഭൃ.svg"
   inkscape:version="1.0.2 (e86c870879, 2021-01-15)"><metadata
   id="metadata14"><rdf:RDF><cc:Work
       rdf:about=""><dc:format>image/svg+xml</dc:format><dc:type
         rdf:resource="http://purl.org/dc/dcmitype/StillImage" /><dc:title /></cc:Work></rdf:RDF></metadata><sodipodi:namedview
   pagecolor="#ffffff"
   bordercolor="#666666"
   borderopacity="1"
   objecttolerance="10"
   gridtolerance="10"
   guidetolerance="10"
   inkscape:pageopacity="0"
   inkscape:pageshadow="2"
   inkscape:window-width="1920"
   inkscape:window-height="1007"
   id="namedview12"
   showgrid="false"
   inkscape:zoom="0.84890884"
   inkscape:cx="327.86116"
   inkscape:cy="645.13826"
   inkscape:window-x="1920"
   inkscape:window-y="0"
   inkscape:window-maximized="1"
   inkscape:current-layer="svg10"
   showguides="true"
   inkscape:guide-bbox="true"
   inkscape:document-rotation="0"><sodipodi:guide
     position="0,1000"
     orientation="0,1"
     id="guide16"
     inkscape:label=""
     inkscape:locked="true"
     inkscape:color="rgb(0,0,255)" /><sodipodi:guide
     position="1763.3122,2036.1693"
     orientation="1000,0"
     id="guide18" /><sodipodi:guide
     position="0,200"
     orientation="0,1"
     id="guide20"
     inkscape:label="base"
     inkscape:locked="true"
     inkscape:color="rgb(0,0,255)" /><inkscape:grid
     type="xygrid"
     id="grid24"
     originx="-473.37552"
     originy="-489.69235" /><sodipodi:guide
     position="0,0"
     orientation="0,1"
     id="guide34"
     inkscape:label="bottom"
     inkscape:locked="true"
     inkscape:color="rgb(0,0,255)" /><sodipodi:guide
     position="225.05109,1693.3186"
     orientation="0,1"
     id="guide44"
     inkscape:label=""
     inkscape:locked="false"
     inkscape:color="rgb(0,0,255)" /><sodipodi:guide
     position="0,900"
     orientation="0,1"
     id="guide46"
     inkscape:label=""
     inkscape:locked="true"
     inkscape:color="rgb(0,0,255)" /><sodipodi:guide
     position="568.27978,621.8039"
     orientation="-1,0"
     id="guide841"
     inkscape:label="width"
     inkscape:locked="false"
     inkscape:color="rgb(0,0,255)" /></sodipodi:namedview>
 <defs
   id="defs4"><inkscape:path-effect
   effect="fillet_chamfer"
   id="path-effect845"
   is_visible="true"
   lpeversion="1"
   satellites_param="F,0,1,1,0,33.977293,0,1 @ F,0,1,1,0,33.977293,0,1 @ F,0,0,1,0,0,0,1 @ F,0,0,1,0,0,0,1 @ F,0,0,1,0,0,0,1 @ F,0,0,1,0,0,0,1 @ F,0,0,1,0,0,0,1 @ F,0,0,1,0,0,0,1 @ F,0,0,1,0,0,0,1 @ F,0,0,1,0,0,0,1 @ F,0,0,1,0,0,0,1 @ F,0,0,1,0,0,0,1 @ F,0,0,1,0,0,0,1 @ F,0,0,1,0,0,0,1 @ F,0,0,1,0,0,0,1 @ F,0,0,1,0,0,0,1 @ F,0,0,1,0,0,0,1 @ F,0,0,1,0,0,0,1 @ F,0,0,1,0,0,0,1 @ F,0,0,1,0,0,0,1 @ F,0,0,1,0,0,0,1 @ F,0,0,1,0,0,0,1 @ F,0,0,1,0,0,0,1 @ F,0,0,1,0,0,0,1 @ F,0,0,1,0,0,0,1 @ F,0,0,1,0,0,0,1 @ F,0,0,1,0,0,0,1 @ F,0,0,1,0,0,0,1 @ F,0,0,1,0,0,0,1 @ F,0,0,1,0,0,0,1 @ F,0,0,1,0,0,0,1 @ F,0,0,1,0,0,0,1 @ F,0,0,1,0,0,0,1 @ F,0,0,1,0,0,0,1 @ F,0,0,1,0,0,0,1 @ F,0,0,1,0,0,0,1 @ F,0,0,1,0,0,0,1 @ F,0,0,1,0,0,0,1 @ F,0,0,1,0,0,0,1 @ F,0,0,1,0,0,0,1 @ F,0,0,1,0,0,0,1 @ F,0,0,1,0,0,0,1 @ F,0,0,1,0,0,0,1 @ F,0,0,1,0,0,0,1 @ F,0,0,1,0,0,0,1 @ F,0,0,1,0,0,0,1 @ F,0,0,1,0,0,0,1 @ F,0,0,1,0,0,0,1 @ F,0,0,1,0,0,0,1 @ F,0,0,1,0,0,0,1 @ F,0,0,1,0,0,0,1 @ F,0,0,1,0,0,0,1 @ F,0,0,1,0,0,0,1 @ F,0,0,1,0,0,0,1 @ F,0,0,1,0,0,0,1 @ F,0,0,1,0,0,0,1 @ F,0,0,1,0,0,0,1 @ F,0,0,1,0,0,0,1 @ F,0,0,1,0,0,0,1 @ F,0,0,1,0,0,0,1 @ F,0,0,1,0,0,0,1"
   unit="px"
   method="auto"
   mode="F"
   radius="0"
   chamfer_steps="1"
   flexible="false"
   use_knot_distance="true"
   apply_no_radius="true"
   apply_with_radius="true"
   only_selected="true"
   hide_knots="false" /><inkscape:path-effect
   effect="fillet_chamfer"
   id="path-effect843"
   is_visible="true"
   lpeversion="1"
   satellites_param="F,0,1,1,0,31.458082,0,1 @ F,0,1,1,0,31.458082,0,1 @ F,0,0,1,0,0,0,1 @ F,0,0,1,0,0,0,1 @ F,0,0,1,0,0,0,1 @ F,0,0,1,0,0,0,1 @ F,0,0,1,0,0,0,1 @ F,0,0,1,0,0,0,1 @ F,0,0,1,0,0,0,1 @ F,0,0,1,0,0,0,1 @ F,0,0,1,0,0,0,1 @ F,0,0,1,0,0,0,1 @ F,0,0,1,0,0,0,1 @ F,0,0,1,0,0,0,1 @ F,0,0,1,0,0,0,1 @ F,0,0,1,0,0,0,1 @ F,0,0,1,0,0,0,1 @ F,0,0,1,0,0,0,1 @ F,0,0,1,0,0,0,1 @ F,0,0,1,0,0,0,1 @ F,0,0,1,0,0,0,1 @ F,0,0,1,0,0,0,1 @ F,0,0,1,0,0,0,1 @ F,0,0,1,0,0,0,1 @ F,0,1,1,0,31.458082,0,1 @ F,0,1,1,0,31.458082,0,1 @ F,0,0,1,0,0,0,1 @ F,0,0,1,0,0,0,1 @ F,0,0,1,0,0,0,1 @ F,0,0,1,0,0,0,1 @ F,0,0,1,0,0,0,1 @ F,0,0,1,0,0,0,1 @ F,0,0,1,0,0,0,1 @ F,0,0,1,0,0,0,1 @ F,0,0,1,0,0,0,1 @ F,0,0,1,0,0,0,1 @ F,0,0,1,0,0,0,1 @ F,0,0,1,0,0,0,1 @ F,0,0,1,0,0,0,1 @ F,0,0,1,0,0,0,1 @ F,0,0,1,0,0,0,1 @ F,0,0,1,0,0,0,1 @ F,0,0,1,0,0,0,1 @ F,0,0,1,0,0,0,1 @ F,0,0,1,0,0,0,1 @ F,0,0,1,0,0,0,1 @ F,0,0,1,0,0,0,1 @ F,0,0,1,0,0,0,1 @ F,0,0,1,0,0,0,1 @ F,0,0,1,0,0,0,1"
   unit="px"
   method="auto"
   mode="F"
   radius="0"
   chamfer_steps="1"
   flexible="false"
   use_knot_distance="true"
   apply_no_radius="true"
   apply_with_radius="true"
   only_selected="true"
   hide_knots="false" /><inkscape:path-effect
   effect="spiro"
   id="path-effect844"
   is_visible="true"
   lpeversion="1" />
  <style
   type="text/css"
   id="style2">
   <![CDATA[
    .fil0 {fill:#EF7F1A;fill-rule:nonzero}
   ]]>
  </style>
 <inkscape:path-effect
   effect="spiro"
   id="path-effect1214"
   is_visible="true"
   lpeversion="1" /><inkscape:path-effect
   effect="spiro"
   id="path-effect1195"
   is_visible="true"
   lpeversion="1" /><inkscape:path-effect
   effect="spiro"
   id="path-effect992"
   is_visible="true"
   lpeversion="1" /></defs>
 
<path
   style="fill:#000000;fill-rule:nonzero;stroke:none;stroke-width:0.895896px;stroke-linecap:butt;stroke-linejoin:miter;stroke-opacity:1"
   d="M 115.77384,800 H 33.977293 C 15.212152,800 4.1217427,785.34594 8.2306802,767.03803 21.881112,706.21671 27.538722,643.60167 24.960785,581.31941 22.841639,530.12143 15.209031,479.28334 12.686379,428.10365 10.163728,376.92397 12.96348,324.53925 30.940259,276.55425 51.334488,222.11641 91.05496,175.55059 140.34422,144.72899 189.63349,113.90738 248.10327,98.636898 306.23511,98.939357 c 40.59174,0.211198 81.73219,8.078033 117.31939,27.604573 35.5872,19.52653 65.21842,51.44956 77.37903,90.17751 10.40624,33.14081 7.44967,70.18041 -7.61606,101.4794 -9.24838,19.21347 -22.93148,36.31057 -39.82386,49.32354 -16.89238,13.01297 -36.98148,21.89943 -58.0207,25.36944 -15.33192,2.5287 -31.32691,2.27856 -45.81813,7.88807 -7.24561,2.80475 -14.03814,7.1351 -18.84636,13.23809 -4.80822,6.10299 -7.47102,14.09334 -6.27629,21.77046 1.06782,6.86162 5.13833,13.06027 10.54179,17.422 5.40346,4.36173 12.06065,6.98562 18.87596,8.31743 13.6306,2.6636 27.66929,0.34969 41.55307,-0.009 31.09686,-0.80404 62.2413,8.51645 88.30651,25.49485 26.06521,16.97841 47.03578,41.45661 60.66939,69.41705 20.71847,42.49042 24.27596,91.99777 16.12988,138.56313 -8.14608,46.56535 -27.40486,90.54505 -50.46753,131.81009 -27.76454,49.67789 -62.13266,97.01027 -108.56553,129.91546 -23.21643,16.45259 -49.29722,29.08896 -76.98073,35.67031 -27.6835,6.58135 -56.99048,6.99495 -84.51167,-0.2352 -27.43027,-7.20626 -53.12773,-22.28567 -70.91372,-44.37658 -17.78599,-22.09092 -27.11927,-51.37513 -22.99296,-79.43442 3.1759,-21.59637 14.10002,-41.73312 29.39656,-57.30571 15.29654,-15.57258 34.80446,-26.69965 55.55369,-33.47896 41.49845,-13.55863 86.65061,-9.90228 129.558,-1.84541 42.52192,7.98449 84.2585,20.14567 124.41398,36.25168 l -67.68568,95.64072 c -39.98849,-45.73411 -102.70706,-70.53824 -163.15996,-64.52698 -12.1436,1.20752 -24.45118,3.6835 -34.9115,9.96895 -5.23016,3.14272 -9.9346,7.22774 -13.483,12.19162 -3.54841,4.96388 -5.9125,10.82454 -6.43717,16.90369 -0.58247,6.74882 1.12446,13.61333 4.43012,19.52589 3.30567,5.91257 8.16315,10.89074 13.75627,14.71212 11.18623,7.64275 24.94636,10.58241 38.45197,11.651 49.65382,3.92872 99.17541,-15.67119 138.55592,-46.16893 62.30467,-48.25106 101.70974,-124.23417 107.4838,-202.82614 1.75003,-23.82003 0.51355,-48.17099 -7.0028,-70.8417 -7.51634,-22.6707 -21.73906,-43.62506 -41.98128,-56.30215 -20.56359,-12.87835 -45.57656,-16.40289 -69.81915,-17.40793 -24.24258,-1.00504 -48.74958,0.18843 -72.55863,-4.48512 -25.26041,-4.95844 -49.53508,-16.85729 -66.99327,-35.77517 -17.45818,-18.91788 -27.52722,-45.14505 -24.57272,-70.7174 2.52201,-21.82898 14.42376,-42.20569 31.49322,-56.04398 17.06945,-13.8383 39.02041,-21.22102 60.98949,-21.69468 15.70261,-0.33855 31.31775,2.70088 47.02371,2.60435 7.85299,-0.0483 15.75724,-0.89553 23.2367,-3.28917 7.47945,-2.39363 14.53907,-6.39248 19.89184,-12.13874 4.80588,-5.15918 8.13193,-11.62998 9.83698,-18.4715 1.70505,-6.84152 1.81405,-14.04218 0.62953,-20.99276 -2.36902,-13.90116 -9.79777,-26.53934 -19.06289,-37.17005 -19.53803,-22.41777 -47.47046,-36.76432 -76.70557,-42.20482 -29.23511,-5.4405 -59.68293,-2.32731 -88.12666,6.34707 -51.3984,15.67477 -97.45567,50.48599 -123.15425,97.6779 -24.33724,44.69199 -29.586724,97.68625 -24.911779,148.35991 4.674945,50.67367 18.655551,99.94378 30.833039,149.35415 9.15426,37.14356 17.31815,74.52664 24.86839,112.02915 2.595,12.88955 5.11763,25.79368 7.56772,38.71156 C 147.07798,785.02412 134.53898,800 115.77384,800 Z"
   id="path842"
   inkscape:path-effect="#path-effect844;#path-effect845"
   inkscape:original-d="M 149.75113,800 H 0 C 0,800 20.075668,654.52343 24.960785,581.31941 31.72633,479.93696 -18.548609,365.29559 30.940259,276.55425 84.130003,181.17666 197.04015,100.51904 306.23511,98.939357 c 75.84286,-1.097191 159.94696,50.360423 194.69842,117.782083 15.54137,30.15196 8.55288,71.65927 -7.61606,101.4794 -19.55814,36.07078 -63.93161,51.59462 -97.84456,74.69298 -22.83947,15.55614 -73.64523,15.39533 -70.94078,42.89662 2.4627,25.04288 48.3953,14.61453 70.97082,25.73014 52.82435,26.00936 123.97045,41.60499 148.9759,94.9119 38.58166,82.24885 14.98197,194.0778 -34.33765,270.37322 -57.30224,88.64422 -166.33083,184.8962 -270.05793,165.35057 -50.90254,-9.59174 -107.07932,-73.71558 -93.90668,-123.811 19.80653,-75.32407 136.77354,-87.80013 214.50825,-92.63008 43.11283,-2.67876 124.41398,36.25168 124.41398,36.25168 l -67.68568,95.64072 c 8.85732,13.70469 -105.10364,-71.59864 -163.15996,-64.52698 -22.2767,2.71346 -54.13711,16.63366 -54.83167,39.06426 -0.75204,24.28674 32.73101,41.54734 56.63836,45.88901 47.89843,8.69854 101.40264,-14.7117 138.55592,-46.16893 58.39529,-49.44258 102.91226,-126.44761 107.4838,-202.82614 2.71357,-45.33668 -13.6061,-98.6627 -48.98408,-127.14385 -37.40265,-30.11112 -100.39162,1.40501 -142.37778,-21.89305 -40.93529,-22.71494 -95.3451,-59.83011 -91.56599,-106.49257 3.25089,-40.14036 55.71339,-61.31204 92.48271,-77.73866 27.7134,-12.3809 71.56863,11.17578 90.15225,-12.82356 15.73775,-20.32411 8.62484,-57.55092 -8.59638,-76.63431 -37.67106,-41.74454 -110.06042,-48.57644 -164.83223,-35.85775 -51.03789,11.85163 -100.82803,50.27677 -123.15425,97.6779 -42.294325,89.79571 -5.878599,199.1603 5.92126,297.71406 4.54744,37.98077 17.14412,74.56511 24.86839,112.02915 C 140.95544,751.84551 149.75113,800 149.75113,800 Z"
   sodipodi:nodetypes="ccaaaaaaaaaaaaaccaaaaaaaaaaaaaaac" /></svg>
