<?xml version="1.0" encoding="UTF-8" standalone="no"?>
<svg
   xmlns:dc="http://purl.org/dc/elements/1.1/"
   xmlns:cc="http://creativecommons.org/ns#"
   xmlns:rdf="http://www.w3.org/1999/02/22-rdf-syntax-ns#"
   xmlns:svg="http://www.w3.org/2000/svg"
   xmlns="http://www.w3.org/2000/svg"
   xmlns:sodipodi="http://sodipodi.sourceforge.net/DTD/sodipodi-0.dtd"
   xmlns:inkscape="http://www.inkscape.org/namespaces/inkscape"
   xml:space="preserve"
   width="1000"
   height="1000"
   version="1.1"
   style="clip-rule:evenodd;fill-rule:evenodd;image-rendering:optimizeQuality;shape-rendering:geometricPrecision;text-rendering:geometricPrecision"
   viewBox="0 0 1000 1000"
   id="svg10"
   sodipodi:docname="ഭ്ര.svg"
   inkscape:version="1.0.1 (3bc2e813f5, 2020-09-07)"><metadata
   id="metadata14"><rdf:RDF><cc:Work
       rdf:about=""><dc:format>image/svg+xml</dc:format><dc:type
         rdf:resource="http://purl.org/dc/dcmitype/StillImage" /><dc:title /></cc:Work></rdf:RDF></metadata><sodipodi:namedview
   pagecolor="#ffffff"
   bordercolor="#666666"
   borderopacity="1"
   objecttolerance="10"
   gridtolerance="10"
   guidetolerance="10"
   inkscape:pageopacity="0"
   inkscape:pageshadow="2"
   inkscape:window-width="1920"
   inkscape:window-height="1015"
   id="namedview12"
   showgrid="false"
   inkscape:zoom="0.84890884"
   inkscape:cx="327.86116"
   inkscape:cy="503.78033"
   inkscape:window-x="1920"
   inkscape:window-y="0"
   inkscape:window-maximized="1"
   inkscape:current-layer="svg10"
   showguides="true"
   inkscape:guide-bbox="true"
   inkscape:document-rotation="0"><sodipodi:guide
   position="0,1000"
   orientation="0,1"
   id="guide16"
   inkscape:label=""
   inkscape:locked="true"
   inkscape:color="rgb(0,0,255)" /><sodipodi:guide
   position="1763.3122,2036.1693"
   orientation="1000,0"
   id="guide18" /><sodipodi:guide
   position="0,200"
   orientation="0,1"
   id="guide20"
   inkscape:label="base"
   inkscape:locked="true"
   inkscape:color="rgb(0,0,255)" /><inkscape:grid
   type="xygrid"
   id="grid24"
   originx="-473.37552"
   originy="-489.69235" /><sodipodi:guide
   position="0,0"
   orientation="0,1"
   id="guide34"
   inkscape:label="bottom"
   inkscape:locked="true"
   inkscape:color="rgb(0,0,255)" /><sodipodi:guide
   position="225.05109,1693.3186"
   orientation="0,1"
   id="guide44"
   inkscape:label=""
   inkscape:locked="false"
   inkscape:color="rgb(0,0,255)" /><sodipodi:guide
   position="0,900"
   orientation="0,1"
   id="guide46"
   inkscape:label=""
   inkscape:locked="true"
   inkscape:color="rgb(0,0,255)" /><sodipodi:guide
   position="675.50842,510.82489"
   orientation="1,0"
   id="guide841"
   inkscape:label="width" />    </sodipodi:namedview>
 <defs
   id="defs4"><inkscape:path-effect
   effect="spiro"
   id="path-effect844"
   is_visible="true"
   lpeversion="1" />
  <style
   type="text/css"
   id="style2">
   <![CDATA[
    .fil0 {fill:#EF7F1A;fill-rule:nonzero}
   ]]>
  </style>
 <inkscape:path-effect
   effect="spiro"
   id="path-effect1214"
   is_visible="true"
   lpeversion="1" /><inkscape:path-effect
   effect="spiro"
   id="path-effect1195"
   is_visible="true"
   lpeversion="1" /><inkscape:path-effect
   effect="spiro"
   id="path-effect992"
   is_visible="true"
   lpeversion="1" /></defs>
 
<path
   style="fill:#2d2d2d;stroke:#000000;stroke-width:0.895896px;stroke-linecap:butt;stroke-linejoin:miter;stroke-opacity:1"
   d="m 340.02667,777.09203 -138.80188,0.82366 C 177.54606,718.27168 158.51005,656.78517 144.34568,594.19554 121.56751,493.54323 112.03482,385.26139 150.32516,289.43038 c 27.48226,-68.78112 79.88255,-127.93347 146.44302,-160.42684 66.56048,-32.493376 146.87333,-37.165868 215.5532,-9.43155 24.68363,9.96775 47.89321,24.01493 66.96124,42.5904 19.06803,18.57547 33.89202,41.79139 41.03581,67.43518 9.26723,33.26622 5.2296,69.42457 -7.61606,101.4794 -8.60732,21.47855 -21.18193,41.51654 -37.82122,57.59597 -16.63929,16.07942 -37.43171,28.09382 -60.02334,33.09701 -18.44218,4.08424 -37.73791,3.50901 -56.00007,8.33486 -9.13107,2.41293 -18.0163,6.23124 -25.32861,12.20861 -7.31231,5.97737 -12.96845,14.25201 -14.72821,23.53113 -2.04651,10.79116 1.36977,22.21034 7.93219,31.01783 6.56242,8.8075 16.03368,15.15574 26.20843,19.29237 20.3495,8.27327 42.98524,8.0345 64.7121,11.27379 49.55561,7.38832 96.68322,34.86339 123.88768,76.93788 17.32013,26.78736 26.25396,58.61964 27.32592,90.50069 1.07196,31.88104 -5.53887,63.79275 -17.39287,93.40749 -18.25612,45.60907 -49.09666,86.07671 -88.10008,115.94653 -39.00342,29.86983 -86.05227,49.0831 -134.78824,55.27003 -65.63016,8.33162 -133.08394,-6.96545 -191.90239,-37.24949 C 166.17501,885.93866 107.07198,828.08828 68.567221,758.75746 22.243585,675.34814 6.25307,578.23892 3.312182,482.87464 0.1124356,379.11635 11.428595,275.53941 20.838519,172.15917 23.027066,148.11514 25.113253,124.06179 27.097006,100 H 171.84425 c -26.26439,44.56692 -47.87439,91.87492 -64.36515,140.90638 -25.843883,76.84078 -39.056072,158.15768 -36.198521,239.17772 2.478806,70.2815 17.22819,140.6004 47.754591,203.95474 30.26715,62.81629 77.20456,119.15668 138.88677,151.67271 36.47766,19.22935 77.41907,29.74845 118.62835,31.22611 45.98687,1.64898 93.00217,-8.23801 132.10627,-32.49457 39.1041,-24.25656 69.61417,-63.57779 78.9267,-108.64206 3.8042,-18.40893 4.07709,-37.70788 -0.6839,-55.89287 -4.761,-18.18498 -14.7265,-35.19849 -29.24079,-47.14404 -16.55991,-13.62914 -37.85289,-19.98648 -58.82968,-24.45393 -20.97679,-4.46746 -42.48208,-7.43627 -62.30328,-15.62797 -25.57126,-10.56809 -47.39858,-29.78786 -61.52228,-53.5806 -14.12371,-23.79275 -20.53836,-52.00388 -18.56125,-79.60215 1.61445,-22.53589 8.92514,-44.97474 22.87737,-62.74573 13.95223,-17.771 34.86073,-30.48995 57.37226,-32.41448 14.49401,-1.23911 28.97335,1.88357 43.50086,2.63405 7.26375,0.37525 14.61165,0.14894 21.69732,-1.49306 7.08567,-1.64201 13.92511,-4.75852 19.30171,-9.657 5.29143,-4.82088 9.01729,-11.2598 10.92986,-18.15779 1.91256,-6.89799 2.04803,-14.23661 0.77032,-21.27988 -2.55541,-14.08653 -10.59237,-26.67099 -20.29656,-37.19664 -20.10119,-21.80276 -47.81888,-36.0052 -76.9365,-41.62499 -29.11762,-5.61979 -59.53899,-2.91108 -87.89573,5.76724 -51.28442,15.69513 -96.16355,51.33213 -123.15425,97.6779 -18.77323,32.23554 -28.96297,69.14939 -31.46116,106.36932 -2.49819,37.21992 2.55699,74.74783 12.80669,110.61575 12.1029,42.35301 31.35059,82.41347 53.99874,120.19335 23.20138,38.70275 50.04982,75.21808 80.07366,108.90452 z"
   id="path842"
   inkscape:path-effect="#path-effect844"
   inkscape:original-d="m 340.02667,777.09203 -138.80188,0.82366 c 0,0 -47.91362,-120.24232 -56.87911,-183.72015 C 130.1358,493.58614 94.99536,374.65236 150.32516,289.43038 222.90653,177.6366 381.13827,95.973343 512.32138,119.57199 c 50.57878,9.09866 90.34672,61.76105 107.99705,110.02558 11.65051,31.85813 7.1115,70.92169 -7.61606,101.4794 -19.3076,40.06068 -60.86319,65.9944 -97.84456,90.69298 -29.29576,19.56563 -93.82189,8.91696 -96.05689,44.0746 -2.46299,38.74396 65.88733,41.07926 98.85272,61.58399 41.27778,25.6751 99.12418,35.10685 123.88768,76.93788 31.27421,52.82907 35.57604,128.12804 9.93305,183.90818 C 612.34228,873.39701 519.76992,937.98192 428.58605,959.49116 365.16526,974.4514 294.43398,952.4229 236.68366,922.24167 167.40721,886.03671 107.12243,826.75393 68.567221,758.75746 21.956465,676.55413 11.613377,577.00774 3.312182,482.87464 -5.800526,379.53921 20.551286,279.96234 20.838519,172.15917 20.902847,148.0159 27.097006,100 27.097006,100 H 171.84425 c 1.47258,2.27849 -54.66654,90.1883 -64.36515,140.90638 -14.225176,74.38939 -39.414713,158.60807 -36.198521,239.17772 2.785011,69.76806 15.158334,142.20669 47.754591,203.95474 32.00252,60.62333 80.20879,116.22917 138.88677,151.67271 35.00023,21.14136 78.30095,37.98435 118.62835,31.22611 83.46239,-13.987 182.0675,-61.6218 211.03297,-141.13663 12.2414,-33.6046 -5.10602,-77.28511 -29.92469,-103.03691 -29.5138,-30.62347 -87.91524,-13.52169 -121.13296,-40.0819 -40.45886,-32.35007 -84.20311,-81.54482 -80.08353,-133.18275 3.29979,-41.36218 43.54748,-75.80379 80.24963,-95.16021 25.04031,-13.20606 66.71409,13.50858 84.49989,-8.51601 16.14959,-19.99842 8.62484,-57.55092 -8.59638,-76.63431 C 474.92416,227.4444 402.5348,220.6125 347.76299,233.33119 c -51.03789,11.85163 -98.35645,51.52169 -123.15425,97.6779 -34.35768,63.95003 -30.81044,145.4149 -18.65447,216.98507 7.35469,43.30189 31.86584,82.25551 53.99874,120.19335 22.7053,38.91901 80.07366,108.90452 80.07366,108.90452 z"
   sodipodi:nodetypes="ccaaaaaaaaaaaaaasccsaaaaaaaaaaaaaaac" /></svg>
