<?xml version="1.0" encoding="UTF-8" standalone="no"?>
<svg
   xml:space="preserve"
   width="1000"
   height="1000"
   version="1.1"
   style="clip-rule:evenodd;fill-rule:evenodd;image-rendering:optimizeQuality;shape-rendering:geometricPrecision;text-rendering:geometricPrecision"
   viewBox="0 0 1000 1000"
   id="svg10"
   sodipodi:docname="മൃ.svg"
   inkscape:version="1.1.1 (3bf5ae0d25, 2021-09-20)"
   xmlns:inkscape="http://www.inkscape.org/namespaces/inkscape"
   xmlns:sodipodi="http://sodipodi.sourceforge.net/DTD/sodipodi-0.dtd"
   xmlns="http://www.w3.org/2000/svg"
   xmlns:svg="http://www.w3.org/2000/svg"
   xmlns:rdf="http://www.w3.org/1999/02/22-rdf-syntax-ns#"
   xmlns:cc="http://creativecommons.org/ns#"
   xmlns:dc="http://purl.org/dc/elements/1.1/"><metadata
   id="metadata14"><rdf:RDF><cc:Work
       rdf:about=""><dc:format>image/svg+xml</dc:format><dc:type
         rdf:resource="http://purl.org/dc/dcmitype/StillImage" /></cc:Work></rdf:RDF></metadata><sodipodi:namedview
   pagecolor="#ffffff"
   bordercolor="#666666"
   borderopacity="1"
   objecttolerance="10"
   gridtolerance="10"
   guidetolerance="10"
   inkscape:pageopacity="0"
   inkscape:pageshadow="2"
   inkscape:window-width="1920"
   inkscape:window-height="1009"
   id="namedview12"
   showgrid="false"
   inkscape:zoom="1.2005384"
   inkscape:cx="397.73822"
   inkscape:cy="253.21972"
   inkscape:window-x="0"
   inkscape:window-y="0"
   inkscape:window-maximized="1"
   inkscape:current-layer="svg10"
   showguides="true"
   inkscape:guide-bbox="true"
   inkscape:document-rotation="0"
   inkscape:pagecheckerboard="0"><sodipodi:guide
   position="0,1000"
   orientation="0,1"
   id="guide16"
   inkscape:label=""
   inkscape:locked="true"
   inkscape:color="rgb(0,0,255)" /><sodipodi:guide
   position="1763.3122,2036.1693"
   orientation="1000,0"
   id="guide18" /><sodipodi:guide
   position="0,200"
   orientation="0,1"
   id="guide20"
   inkscape:label="base"
   inkscape:locked="true"
   inkscape:color="rgb(0,0,255)" /><inkscape:grid
   type="xygrid"
   id="grid24"
   originx="-473.37552"
   originy="-489.69235" /><sodipodi:guide
   position="0,0"
   orientation="0,1"
   id="guide34"
   inkscape:label="bottom"
   inkscape:locked="true"
   inkscape:color="rgb(0,0,255)" /><sodipodi:guide
   position="225.05109,1693.3186"
   orientation="0,1"
   id="guide44"
   inkscape:label=""
   inkscape:locked="false"
   inkscape:color="rgb(0,0,255)" /><sodipodi:guide
   position="0,900"
   orientation="0,1"
   id="guide46"
   inkscape:label=""
   inkscape:locked="true"
   inkscape:color="rgb(0,0,255)" /><sodipodi:guide
   position="638.46667,573.57023"
   orientation="1,0"
   id="guide841"
   inkscape:label="width" />    </sodipodi:namedview>
 <defs
   id="defs4"><inkscape:path-effect
   effect="fillet_chamfer"
   id="path-effect844"
   is_visible="true"
   lpeversion="1"
   satellites_param="F,0,0,1,0,0,0,1 @ F,0,0,1,0,0,0,1 @ F,0,0,1,0,0,0,1 @ F,0,0,1,0,0,0,1 @ F,0,0,1,0,0,0,1 @ F,0,0,1,0,0,0,1 @ F,0,0,1,0,0,0,1 @ F,0,0,1,0,0,0,1 @ F,0,0,1,0,0,0,1 @ F,0,0,1,0,0,0,1 @ F,0,0,1,0,0,0,1 @ F,0,0,1,0,0,0,1 @ F,0,0,1,0,0,0,1 @ F,0,0,1,0,0,0,1 @ F,0,0,1,0,0,0,1 @ F,0,0,1,0,0,0,1 @ F,0,0,1,0,0,0,1 @ F,0,0,1,0,0,0,1 @ F,0,0,1,0,0,0,1 @ F,0,0,1,0,0,0,1 @ F,0,0,1,0,0,0,1 @ F,0,0,1,0,0,0,1 @ F,0,0,1,0,0,0,1 @ F,0,0,1,0,0,0,1 @ F,0,0,1,0,14.618681,0,1 @ F,0,0,1,0,30.786781,0,1 @ F,0,0,1,0,0,0,1 @ F,0,0,1,0,0,0,1 @ F,0,0,1,0,0,0,1 @ F,0,0,1,0,0,0,1 @ F,0,0,1,0,0,0,1 @ F,0,0,1,0,0,0,1 @ F,0,0,1,0,0,0,1 @ F,0,1,1,0,0,0,1 @ F,0,1,1,0,0,0,1 @ F,0,1,1,0,0,0,1 @ F,0,1,1,0,0,0,1 @ F,0,0,1,0,0,0,1 @ F,0,0,1,0,0,0,1 @ F,0,0,1,0,18.963214,0,1 @ F,0,0,1,0,30.786781,0,1 @ F,0,0,1,0,0,0,1 @ F,0,0,1,0,0,0,1 @ F,0,0,1,0,0,0,1 @ F,0,0,1,0,0,0,1 @ F,0,1,1,0,0,0,1 @ F,0,0,1,0,0,0,1 @ F,0,1,1,0,0,0,1 @ F,0,0,1,0,0,0,1 @ F,0,0,1,0,0,0,1 @ F,0,0,1,0,0,0,1 @ F,0,0,1,0,0,0,1 @ F,0,0,1,0,0,0,1 @ F,0,0,1,0,13.282493,0,1 @ F,0,0,1,0,14.973611,0,1 @ F,0,0,1,0,0,0,1 @ F,0,0,1,0,0,0,1"
   unit="px"
   method="auto"
   mode="F"
   radius="0"
   chamfer_steps="1"
   flexible="false"
   use_knot_distance="true"
   apply_no_radius="true"
   apply_with_radius="true"
   only_selected="true"
   hide_knots="false" /><inkscape:path-effect
   effect="fillet_chamfer"
   id="path-effect843"
   is_visible="true"
   lpeversion="1"
   satellites_param="F,0,0,1,0,0,0,1 @ F,0,0,1,0,0,0,1 @ F,0,0,1,0,0,0,1 @ F,0,0,1,0,0,0,1 @ F,0,0,1,0,0,0,1 @ F,0,0,1,0,0,0,1 @ F,0,0,1,0,0,0,1 @ F,0,0,1,0,0,0,1 @ F,0,0,1,0,0,0,1 @ F,0,0,1,0,0,0,1 @ F,0,0,1,0,0,0,1 @ F,0,0,1,0,0,0,1 @ F,0,0,1,0,0,0,1 @ F,0,0,1,0,0,0,1 @ F,0,0,1,0,0,0,1 @ F,0,0,1,0,0,0,1 @ F,0,0,1,0,0,0,1 @ F,0,0,1,0,0,0,1 @ F,0,0,1,0,0,0,1 @ F,0,0,1,0,0,0,1 @ F,0,0,1,0,0,0,1 @ F,0,0,1,0,0,0,1 @ F,0,0,1,0,0,0,1 @ F,0,0,1,0,0,0,1 @ F,0,1,1,0,21.065593,0,1 @ F,0,0,1,0,0,0,1 @ F,0,0,1,0,0,0,1 @ F,0,0,1,0,0,0,1 @ F,0,0,1,0,0,0,1 @ F,0,0,1,0,0,0,1 @ F,0,0,1,0,0,0,1 @ F,0,0,1,0,0,0,1 @ F,0,0,1,0,0,0,1 @ F,0,0,1,0,0,0,1 @ F,0,0,1,0,0,0,1 @ F,0,0,1,0,0,0,1 @ F,0,0,1,0,0,0,1 @ F,0,0,1,0,0,0,1 @ F,0,1,1,0,21.065593,0,1 @ F,0,1,1,0,21.065593,0,1 @ F,0,0,1,0,0,0,1 @ F,0,0,1,0,0,0,1 @ F,0,0,1,0,0,0,1 @ F,0,0,1,0,0,0,1 @ F,0,0,1,0,0,0,1 @ F,0,0,1,0,0,0,1 @ F,0,0,1,0,0,0,1 @ F,0,0,1,0,0,0,1 @ F,0,0,1,0,0,0,1 @ F,0,0,1,0,0,0,1 @ F,0,0,1,0,0,0,1 @ F,0,0,1,0,0,0,1 @ F,0,0,1,0,0,0,1 @ F,0,1,1,0,21.065593,0,1 @ F,0,1,1,0,21.065593,0,1 @ F,0,0,1,0,0,0,1 @ F,0,0,1,0,0,0,1"
   unit="px"
   method="auto"
   mode="F"
   radius="0"
   chamfer_steps="1"
   flexible="false"
   use_knot_distance="true"
   apply_no_radius="true"
   apply_with_radius="true"
   only_selected="true"
   hide_knots="false" />
  <style
   type="text/css"
   id="style2">
   <![CDATA[
    .fil0 {fill:#EF7F1A;fill-rule:nonzero}
   ]]>
  </style>
 <inkscape:path-effect
   effect="spiro"
   id="path-effect1214"
   is_visible="true"
   lpeversion="1" /><inkscape:path-effect
   effect="spiro"
   id="path-effect1195"
   is_visible="true"
   lpeversion="1" /><inkscape:path-effect
   effect="spiro"
   id="path-effect992"
   is_visible="true"
   lpeversion="1" /><inkscape:path-effect
   effect="spiro"
   id="path-effect1343"
   is_visible="true"
   lpeversion="1" /></defs>
 
<path
   style="clip-rule:evenodd;display:inline;fill:#63452c;fill-rule:nonzero;stroke:none;stroke-width:1.80255px;stroke-linecap:butt;stroke-linejoin:miter;stroke-opacity:1;image-rendering:optimizeQuality;shape-rendering:geometricPrecision;text-rendering:geometricPrecision"
   d="m 512.8362,868.37929 c -11.24501,28.66083 -30.30032,53.90886 -53.21678,74.46924 -22.91647,20.56038 -49.63351,36.57929 -77.61804,49.41517 -26.03114,11.9399 -53.53311,21.275 -82.01048,24.3116 -28.47736,3.0367 -58.06389,-0.4856 -83.75379,-13.143 -11.47831,-5.65537 -22.25086,-13.23892 -29.90688,-23.49173 -7.65603,-10.25281 -11.94443,-23.40241 -9.87969,-36.03062 1.30264,-7.96709 5.0682,-15.44573 10.31637,-21.57989 5.24818,-6.13417 11.94096,-10.95333 19.21254,-14.45983 14.54315,-7.01298 31.05084,-8.75984 47.19413,-9.04197 45.82677,-0.80089 92.10075,9.65147 132.04198,32.13329 33.56457,18.89257 62.37731,46.15261 83.09836,78.62025 l 49.21347,-59.82945 C 488.72073,923.72376 457.70807,900.13741 424.9311,879.32921 374.98552,847.62166 319.14385,821.93155 260.0343,819.48394 c -46.29111,-1.91682 -94.12689,11.52717 -128.9659,42.06868 -17.41951,15.27076 -31.367455,34.61618 -39.616413,56.26311 -8.248958,21.64694 -10.700816,45.58213 -6.239525,68.31387 3.907916,19.9121 13.039502,38.6744 25.643418,54.5774 12.60392,15.903 28.62297,28.9789 46.32344,38.9014 35.40093,19.8452 76.83464,26.8749 117.41718,26.5372 95.111,-0.7914 189.75075,-42.5159 252.30732,-114.1637 42.90284,-49.13781 70.4262,-111.29458 79.18733,-175.93529 11.35385,-83.77014 -8.03782,-169.67692 5.36143,-253.14432 3.23348,-20.1422 8.36846,-39.97833 15.30698,-59.16205 2.74582,-7.59169 -1.2645,-13.51831 -9.33698,-13.37965 l -106.251,1.82504 c -17.00056,0.29201 -24.48287,12.81666 -18.05746,28.55434 5.81026,14.231 10.79889,28.7975 14.92892,43.60371 13.00155,46.61073 17.42355,95.60002 12.97875,143.78554 l -156.31098,2.39652 c -48.68591,0.74644 -97.37183,1.49288 -146.05774,2.23933 l 8.36189,33.2147 C 297.26794,729.02112 364.18017,698.33647 422.87065,656.16414 490.91809,607.26832 549.53419,539.58743 568.48934,457.96661 582.91101,395.86695 572.92983,328.77632 542.80948,272.58809 521.03389,231.96664 489.28658,197.14096 452.81049,168.96698 378.41144,111.50147 281.06525,81.439678 188.33164,96.86628 134.32313,105.85081 81.701439,130.9087 46.753003,173.05425 9.0803098,218.48508 -5.1137493,280.72505 1.8174117,339.33521 8.7485727,397.94537 35.385636,453.01494 71.122974,499.98338 114.9637,557.60185 172.99246,604.31989 238.55965,635.00269 c 9.48511,4.43865 23.25857,1.57723 30.55624,-5.93474 l 72.64941,-74.78287 c 11.84777,-12.19569 8.12919,-18.2543 -8.72409,-16.10686 -36.54952,4.65713 -74.24916,0.37722 -108.73383,-12.63059 -25.66528,-9.68109 -49.61683,-24.14373 -69.48399,-43.05738 -19.86717,-18.91365 -35.58448,-42.31735 -44.68211,-68.1952 -9.09764,-25.87786 -11.466398,-54.21688 -5.86487,-81.06931 5.60154,-26.85243 19.27947,-52.10348 39.35716,-70.79349 29.46994,-27.4331 71.6182,-39.41195 111.69477,-35.54922 40.07657,3.86274 77.91181,22.63824 108.15761,49.21349 33.86635,29.75641 58.92221,69.59239 70.26925,113.22286 11.34704,43.63048 8.81001,90.88811 -7.91764,132.75169 -13.60507,34.04884 -36.29266,64.187 -64.08859,88.0995 -27.79594,23.91249 -60.60573,41.69913 -95.24806,53.7129 -44.21821,15.33463 -91.20952,21.34924 -137.98613,22.88219 -21.06232,0.69025 -42.153763,0.49059 -63.199266,-0.59761 -7.325835,-0.37879 -11.17289,4.76572 -8.600788,11.63574 l 33.011663,88.1732 c 2.899581,7.74469 11.870551,12.96657 20.052161,11.76308 56.68853,-8.33874 113.89926,-13.12669 171.18533,-14.324 81.40509,-1.70141 162.96053,3.85572 243.38239,16.58393 0.93944,23.26089 -3.0073,46.70778 -11.51007,68.37929 z"
   id="path979-0-6-9"
   inkscape:path-effect="#path-effect1343;#path-effect844"
   inkscape:original-d="m 512.8362,868.37929 c -28.25111,53.00102 -75.81708,99.79539 -130.83482,123.88441 -50.73047,22.2119 -116.07097,35.6129 -165.76427,11.1686 -21.41449,-10.53386 -45.11485,-36.25968 -39.78657,-59.52235 6.62265,-28.91376 47.37725,-40.75858 76.72304,-45.08169 44.81488,-6.60195 92.25006,10.48698 132.04198,32.13329 33.4966,18.22173 83.09836,78.62025 83.09836,78.62025 l 49.21347,-59.82945 c 0,0 -58.55025,-51.86004 -92.59629,-70.42314 C 373.59269,851.3377 317.26367,807.48576 260.0343,819.48394 181.2396,836.00331 77.310695,906.01058 85.212462,986.1296 c 7.335344,74.3758 114.830198,114.7913 189.384038,120.016 92.08542,6.4533 187.0981,-48.8251 252.30732,-114.1637 45.4301,-45.52022 65.02375,-113.2027 79.18733,-175.93529 18.58779,-82.32809 -10.1035,-155.91317 5.36143,-253.14432 4.35306,-24.83736 20.58652,-72.79276 20.58652,-72.79276 l -151.64976,2.60483 c 0,0 21.83801,46.70506 27.6537,71.62932 10.93488,46.86438 12.97875,143.78554 12.97875,143.78554 l -156.31098,2.39652 c -48.68591,0.74644 -146.05774,2.23933 -146.05774,2.23933 l 8.36189,33.2147 c 0,0 140.16948,-44.45569 195.85569,-89.81563 63.5619,-51.77519 125.49548,-118.72526 145.61869,-198.19753 15.31274,-60.47436 0.12173,-128.58146 -25.67986,-185.37852 C 523.88748,230.93506 491.5503,193.30305 452.81049,168.96698 375.43431,120.35981 279.11777,86.492797 188.33164,96.86628 135.0859,102.95029 72.510087,126.05748 46.753003,173.05425 -5.7677202,268.88437 19.325451,403.76043 71.122974,499.98338 108.00895,568.50553 255.90229,642.66958 255.90229,642.66958 L 363.21758,532.20283 c 0,0 -102.30541,21.78799 -138.9102,-6.6552 -72.43739,-56.28636 -137.473003,-191.07941 -80.67381,-263.11538 45.46254,-57.65819 163.3311,-33.20421 219.85238,13.66427 65.11137,53.99155 87.15673,165.10871 62.35161,245.97455 -20.85109,67.9755 -95.18413,111.15502 -159.33665,141.8124 -42.06676,20.10355 -91.48681,19.48145 -137.98613,22.88219 -25.42213,1.85925 -76.457257,-1.40113 -76.457257,-1.40113 L 94.976544,800 c 0,0 123.748986,-15.93359 185.987336,-16.58393 C 362.27503,782.56644 524.34627,800 524.34627,800 c -5.52041,34.02251 -0.63784,47.98223 -11.51007,68.37929 z"
   sodipodi:nodetypes="aaaaaaccaaaaaacccacaccaaaaaaaccaaaaaaccaca" /></svg>
