<?xml version="1.0" encoding="UTF-8" standalone="no"?>
<svg
   xmlns:dc="http://purl.org/dc/elements/1.1/"
   xmlns:cc="http://creativecommons.org/ns#"
   xmlns:rdf="http://www.w3.org/1999/02/22-rdf-syntax-ns#"
   xmlns:svg="http://www.w3.org/2000/svg"
   xmlns="http://www.w3.org/2000/svg"
   xmlns:sodipodi="http://sodipodi.sourceforge.net/DTD/sodipodi-0.dtd"
   xmlns:inkscape="http://www.inkscape.org/namespaces/inkscape"
   xml:space="preserve"
   width="1000"
   height="1000"
   version="1.1"
   style="clip-rule:evenodd;fill-rule:evenodd;image-rendering:optimizeQuality;shape-rendering:geometricPrecision;text-rendering:geometricPrecision"
   viewBox="0 0 1000 1000"
   id="svg10"
   sodipodi:docname="മ്പ്ര.svg"
   inkscape:version="1.0.2 (e86c870879, 2021-01-15)"><metadata
   id="metadata14"><rdf:RDF><cc:Work
       rdf:about=""><dc:format>image/svg+xml</dc:format><dc:type
         rdf:resource="http://purl.org/dc/dcmitype/StillImage" /><dc:title /></cc:Work></rdf:RDF></metadata><sodipodi:namedview
   pagecolor="#ffffff"
   bordercolor="#666666"
   borderopacity="1"
   objecttolerance="10"
   gridtolerance="10"
   guidetolerance="10"
   inkscape:pageopacity="0"
   inkscape:pageshadow="2"
   inkscape:window-width="1920"
   inkscape:window-height="1007"
   id="namedview12"
   showgrid="false"
   inkscape:zoom="0.678"
   inkscape:cx="734.32249"
   inkscape:cy="636.2149"
   inkscape:window-x="1920"
   inkscape:window-y="0"
   inkscape:window-maximized="1"
   inkscape:current-layer="svg10"
   showguides="true"
   inkscape:guide-bbox="true"
   inkscape:document-rotation="0"
   inkscape:snap-to-guides="true"><sodipodi:guide
     position="0,1000"
     orientation="0,1"
     id="guide16"
     inkscape:label=""
     inkscape:locked="true"
     inkscape:color="rgb(0,0,255)" /><sodipodi:guide
     position="1763.3122,2036.1693"
     orientation="1000,0"
     id="guide18" /><sodipodi:guide
     position="0,200"
     orientation="0,1"
     id="guide20"
     inkscape:label="base"
     inkscape:locked="true"
     inkscape:color="rgb(0,0,255)" /><inkscape:grid
     type="xygrid"
     id="grid24"
     originx="-473.37552"
     originy="-489.69235" /><sodipodi:guide
     position="0,0"
     orientation="0,1"
     id="guide34"
     inkscape:label="bottom"
     inkscape:locked="true"
     inkscape:color="rgb(0,0,255)" /><sodipodi:guide
     position="225.05109,1693.3186"
     orientation="0,1"
     id="guide44"
     inkscape:label=""
     inkscape:locked="false"
     inkscape:color="rgb(0,0,255)" /><sodipodi:guide
     position="0,900"
     orientation="0,1"
     id="guide46"
     inkscape:label=""
     inkscape:locked="true"
     inkscape:color="rgb(0,0,255)" /><sodipodi:guide
     position="1162.0201,550.37084"
     orientation="-1,0"
     id="guide841"
     inkscape:label="width"
     inkscape:locked="false"
     inkscape:color="rgb(0,0,255)" /><sodipodi:guide
     position="0,1000"
     orientation="0,1000"
     id="guide860" /><sodipodi:guide
     position="1001.0497,612.78754"
     orientation="1000,0"
     id="guide862" /><sodipodi:guide
     position="1000,0"
     orientation="0,-1000"
     id="guide864" /><sodipodi:guide
     position="0,0"
     orientation="-1000,0"
     id="guide866" /></sodipodi:namedview>
 <defs
   id="defs4"><inkscape:path-effect
   effect="fillet_chamfer"
   id="path-effect861"
   is_visible="true"
   lpeversion="1"
   satellites_param="F,0,0,1,0,29.192297,0,1 @ F,0,0,1,0,0,0,1 @ F,0,0,1,0,0,0,1 @ F,0,0,1,0,0,0,1 @ F,0,0,1,0,0,0,1 @ F,0,0,1,0,0,0,1 @ F,0,0,1,0,0,0,1 @ F,0,0,1,0,0,0,1 @ F,0,0,1,0,0,0,1 @ F,0,0,1,0,0,0,1 @ F,0,0,1,0,17.358497,0,1 @ F,0,0,1,0,18.307801,0,1 @ F,0,0,1,0,0,0,1 @ F,0,0,1,0,0,0,1 @ F,0,0,1,0,0,0,1 @ F,0,0,1,0,0,0,1 @ F,0,0,1,0,0,0,1 @ F,0,0,1,0,0,0,1 @ F,0,0,1,0,0,0,1 @ F,0,0,1,0,0,0,1 @ F,0,0,1,0,0,0,1 @ F,0,0,1,0,29.192297,0,1 @ F,0,0,1,0,29.192297,0,1 @ F,0,0,1,0,0,0,1 @ F,0,0,1,0,0,0,1 @ F,0,0,1,0,0,0,1 @ F,0,0,1,0,0,0,1 @ F,0,0,1,0,0,0,1 @ F,0,0,1,0,0,0,1 @ F,0,0,1,0,0,0,1 @ F,0,0,1,0,0,0,1 @ F,0,0,1,0,0,0,1 @ F,0,0,1,0,0,0,1 @ F,0,0,1,0,29.192297,0,1 @ F,0,0,1,0,29.192297,0,1 @ F,0,0,1,0,0,0,1 @ F,0,0,1,0,0,0,1 @ F,0,0,1,0,0,0,1 @ F,0,0,1,0,0,0,1 @ F,0,0,1,0,0,0,1 @ F,0,0,1,0,0,0,1 @ F,0,0,1,0,0,0,1 @ F,0,0,1,0,0,0,1 @ F,0,0,1,0,0,0,1 @ F,0,0,1,0,0,0,1 @ F,0,0,1,0,0,0,1 @ F,0,0,1,0,0,0,1 @ F,0,0,1,0,0,0,1 @ F,0,0,1,0,0,0,1 @ F,0,0,1,0,0,0,1 @ F,0,0,1,0,0,0,1 @ F,0,0,1,0,0,0,1 @ F,0,0,1,0,0,0,1 @ F,0,0,1,0,0,0,1 @ F,0,0,1,0,0,0,1 @ F,0,0,1,0,0,0,1 @ F,0,0,1,0,0,0,1 @ F,0,0,1,0,29.192297,0,1 @ F,0,0,1,0,29.192297,0,1 @ F,0,0,1,0,0,0,1 @ F,0,0,1,0,0,0,1 @ F,0,0,1,0,0,0,1 @ F,0,0,1,0,0,0,1 @ F,0,0,1,0,0,0,1 @ F,0,0,1,0,0,0,1 @ F,0,0,1,0,0,0,1 @ F,0,0,1,0,0,0,1 @ F,0,0,1,0,0,0,1 @ F,0,0,1,0,29.192297,0,1"
   unit="px"
   method="auto"
   mode="F"
   radius="0"
   chamfer_steps="1"
   flexible="false"
   use_knot_distance="true"
   apply_no_radius="true"
   apply_with_radius="true"
   only_selected="true"
   hide_knots="true" /><inkscape:path-effect
   effect="fillet_chamfer"
   id="path-effect860"
   is_visible="true"
   lpeversion="1"
   satellites_param="F,0,0,1,0,41.289006,0,1 @ F,0,0,1,0,0,0,1 @ F,0,0,1,0,0,0,1 @ F,0,0,1,0,0,0,1 @ F,0,0,1,0,0,0,1 @ F,0,0,1,0,0,0,1 @ F,0,0,1,0,0,0,1 @ F,0,0,1,0,0,0,1 @ F,0,0,1,0,0,0,1 @ F,0,0,1,0,0,0,1 @ F,0,0,1,0,11.317498,0,1 @ F,0,0,1,0,15.066426,0,1 @ F,0,0,1,0,0,0,1 @ F,0,0,1,0,0,0,1 @ F,0,0,1,0,0,0,1 @ F,0,0,1,0,0,0,1 @ F,0,0,1,0,0,0,1 @ F,0,0,1,0,0,0,1 @ F,0,0,1,0,0,0,1 @ F,0,0,1,0,0,0,1 @ F,0,0,1,0,0,0,1 @ F,0,0,1,0,41.289006,0,1 @ F,0,0,1,0,41.289006,0,1 @ F,0,0,1,0,0,0,1 @ F,0,0,1,0,0,0,1 @ F,0,0,1,0,0,0,1 @ F,0,0,1,0,0,0,1 @ F,0,0,1,0,0,0,1 @ F,0,0,1,0,0,0,1 @ F,0,0,1,0,0,0,1 @ F,0,0,1,0,0,0,1 @ F,0,0,1,0,0,0,1 @ F,0,0,1,0,0,0,1 @ F,0,0,1,0,41.289006,0,1 @ F,0,0,1,0,41.289006,0,1 @ F,0,0,1,0,0,0,1 @ F,0,0,1,0,0,0,1 @ F,0,0,1,0,0,0,1 @ F,0,0,1,0,0,0,1 @ F,0,0,1,0,0,0,1 @ F,0,0,1,0,0,0,1 @ F,0,0,1,0,0,0,1 @ F,0,0,1,0,0,0,1 @ F,0,0,1,0,0,0,1 @ F,0,0,1,0,0,0,1 @ F,0,0,1,0,0,0,1 @ F,0,0,1,0,0,0,1 @ F,0,0,1,0,0,0,1 @ F,0,0,1,0,0,0,1 @ F,0,0,1,0,0,0,1 @ F,0,0,1,0,0,0,1 @ F,0,0,1,0,0,0,1 @ F,0,0,1,0,0,0,1 @ F,0,0,1,0,0,0,1 @ F,0,0,1,0,41.289006,0,1 @ F,0,0,1,0,41.289006,0,1 @ F,0,0,1,0,0,0,1 @ F,0,0,1,0,0,0,1 @ F,0,0,1,0,0,0,1 @ F,0,0,1,0,0,0,1 @ F,0,0,1,0,0,0,1 @ F,0,0,1,0,0,0,1 @ F,0,0,1,0,0,0,1 @ F,0,0,1,0,0,0,1 @ F,0,0,1,0,0,0,1 @ F,0,0,1,0,0,0,1 @ F,0,0,1,0,41.289006,0,1"
   unit="px"
   method="auto"
   mode="F"
   radius="0"
   chamfer_steps="1"
   flexible="false"
   use_knot_distance="true"
   apply_no_radius="true"
   apply_with_radius="true"
   only_selected="true"
   hide_knots="false" /><inkscape:path-effect
   effect="spiro"
   id="path-effect859"
   is_visible="true"
   lpeversion="1" /><inkscape:path-effect
   effect="spiro"
   id="path-effect862"
   is_visible="true"
   lpeversion="1" /><inkscape:path-effect
   effect="spiro"
   id="path-effect1521"
   is_visible="true"
   lpeversion="1" /><inkscape:path-effect
   effect="spiro"
   id="path-effect858"
   is_visible="true"
   lpeversion="1" /><inkscape:path-effect
   effect="spiro"
   id="path-effect854"
   is_visible="true"
   lpeversion="1" />
  <style
   type="text/css"
   id="style2">
   <![CDATA[
    .fil0 {fill:#EF7F1A;fill-rule:nonzero}
   ]]>
  </style>
 <inkscape:path-effect
   effect="spiro"
   id="path-effect1214"
   is_visible="true"
   lpeversion="1" /><inkscape:path-effect
   effect="spiro"
   id="path-effect1195"
   is_visible="true"
   lpeversion="1" /><inkscape:path-effect
   effect="spiro"
   id="path-effect992"
   is_visible="true"
   lpeversion="1" /><inkscape:path-effect
   effect="spiro"
   id="path-effect287"
   is_visible="true"
   lpeversion="1" /><inkscape:path-effect
   effect="spiro"
   id="path-effect1032"
   is_visible="true"
   lpeversion="1" /><inkscape:path-effect
   effect="spiro"
   id="path-effect1218"
   is_visible="true"
   lpeversion="1" /><inkscape:path-effect
   effect="spiro"
   id="path-effect309"
   is_visible="true"
   lpeversion="1" /><inkscape:path-effect
   effect="spiro"
   id="path-effect1176"
   is_visible="true"
   lpeversion="1" /><inkscape:path-effect
   effect="spiro"
   id="path-effect1026"
   is_visible="true"
   lpeversion="1" /><inkscape:path-effect
   effect="spiro"
   id="path-effect1030"
   is_visible="true"
   lpeversion="1" /></defs>
 
<path
   style="display:inline;fill:#241f31;fill-rule:nonzero;stroke:none;stroke-width:2.09522px;stroke-linecap:butt;stroke-linejoin:miter;stroke-opacity:1"
   d="m 211.72663,124.44865 c -34.43447,55.34256 -60.95222,115.60951 -78.4375,178.40289 -23.20782,83.34422 -30.40374,171.79559 -14.8853,256.90752 15.51843,85.11192 54.4109,166.69661 115.18786,228.26789 69.00515,69.90701 162.39419,111.09359 257.40498,136.02649 133.73255,35.09434 279.90309,39.88922 406.89526,-14.78247 17.46538,-7.51906 34.56807,-16.17372 49.77113,-27.59488 15.20305,-11.42116 28.50439,-25.74761 36.92754,-42.79537 5.97125,-12.08532 9.4095,-25.41494 10.0289,-38.88072 -62.15706,-0.7875 -124.31977,-1.12956 -186.48173,-1.02613 -41.94336,0.0698 -83.88638,0.34239 -125.8271,0.8178 -9.58622,0.10866 -20.93593,-6.69035 -25.35045,-15.20031 l -27.02854,-52.10343 c -4.65594,-8.97535 -1.2577,-20.22794 7.34014,-25.54736 31.44145,-19.45264 60.36261,-42.97831 85.79066,-69.8192 59.28197,-62.57582 98.78338,-142.62751 118.01025,-226.65377 6.79494,-29.6956 11.15006,-60.51857 6.31722,-90.59586 -2.41642,-15.03865 -7.15218,-29.77341 -14.67616,-43.01688 -7.52399,-13.24348 -17.88602,-24.96931 -30.57067,-33.40138 -14.20808,-9.44476 -31.11812,-14.58363 -48.15802,-15.42911 -17.03991,-0.84548 -34.18697,2.52673 -49.95946,9.03069 -31.54499,13.00793 -56.94955,38.07323 -75.86243,66.47385 -42.11163,63.23715 -54.1335,143.36229 -43.73415,218.62304 2.86615,20.74253 7.34067,41.2622 13.36175,61.3174 4.63496,15.43823 -3.67827,27.84324 -19.79867,28.101 l -108.25549,1.73097 c -16.1204,0.25776 -24.12503,-11.59015 -18.59479,-26.73316 4.32435,-11.84102 8.32278,-23.80106 11.98885,-35.86214 19.40343,-63.83571 29.28403,-133.07712 10.17472,-197.00149 -4.93862,-16.52064 -11.81021,-32.56271 -21.49404,-46.82963 -9.68382,-14.26692 -22.26048,-26.73492 -37.2957,-35.1767 -17.57629,-9.86851 -38.27437,-13.9705 -58.32361,-11.88688 -20.04923,2.08362 -39.37285,10.29575 -55.00472,23.02202 -17.33064,14.10928 -30.00199,33.55908 -37.25445,54.6973 -7.25245,21.13823 -9.21455,43.90993 -7.11157,66.15853 4.20597,44.4972 24.1803,85.99526 47.42907,124.16836 24.47351,40.18406 53.0985,78.10592 87.55113,110.14851 25.26451,23.4972 53.57575,43.71076 83.98328,60.01225 14.2062,7.61595 15.8913,20.87048 3.1661,30.77012 l -95.49393,74.28998 c -12.7252,9.89964 -25.88378,5.15755 -30.27122,-10.35465 -5.22392,-18.46964 -11.37013,-36.67845 -18.4103,-54.53491 -32.00672,-81.1808 -81.90125,-153.8614 -122.83203,-230.92906 -31.77732,-59.83282 -58.66727,-124.47743 -59.89381,-192.21413 -0.61327,-33.86834 5.39028,-68.10125 19.70177,-98.8034 14.31149,-30.70216 37.16253,-57.73485 66.31802,-74.98009 36.73553,-21.72877 82.09732,-26.90759 123.7911,-17.78252 41.69379,9.12507 79.73834,31.85566 110.46951,61.4738 46.20778,44.53422 76.5484,105.20896 84.45655,168.89504 l -47.52433,-3.56696 c 18.64946,-43.57188 41.67606,-85.26891 68.62077,-124.25986 31.05393,-44.9373 68.5471,-87.25345 117.17946,-112.12515 24.31618,-12.43586 51.19219,-20.246381 78.49224,-21.042607 27.30006,-0.796226 55.00753,5.603915 78.35255,19.779147 31.72231,19.26198 53.83598,51.87005 65.84729,86.98497 12.01131,35.11491 14.68448,72.76772 14.0799,109.87518 -2.80213,171.98782 -77.11313,341.71132 -201.59062,460.42532 L 702.166,709.98697 c 58.02712,13.48774 118.57782,16.03447 177.53258,7.46693 19.9464,-2.89869 39.82333,-7.09052 58.53835,-14.57446 18.71502,-7.48393 36.30135,-18.39116 49.80697,-33.35309 22.8034,-25.26228 32.3082,-60.23835 33.3842,-94.25334 1.076,-34.01499 -5.4828,-67.74034 -11.0631,-101.31172 C 991.44643,360.14586 983.53123,244.50484 986.74822,129.17303 987.19775,113.05701 1000.8696,100 1016.9921,100 h 113.4713 c 16.1225,0 23.3653,11.70965 16.9839,26.51367 -21.193,49.16485 -35.7656,101.18336 -43.1526,154.2106 -13.029,93.52772 -3.7453,188.5283 4.0492,282.63692 5.4142,65.36925 10.0376,131.84715 -3.591,196.00878 -9.9271,46.73543 -29.601,91.49133 -58.1896,129.77241 -28.5885,38.28108 -66.12787,69.98666 -109.1276,90.81381 -81.48657,39.46841 -175.91497,38.10891 -266.45456,37.47411 -98.68681,-0.6919 -199.549,0.108 -292.99715,-31.62536 C 265.74991,947.6922 172.03832,863.75069 110.87924,762.21924 24.432233,618.70677 1.2344772,443.1474 22.443712,276.9575 29.260033,223.54663 40.434449,170.69298 55.809511,119.09092 60.413094,103.64029 77.607016,91.941639 93.706282,92.806144 l 104.817568,5.628532 c 16.09927,0.864505 21.71949,12.326044 13.20278,26.013974 z"
   id="path1087-1-75"
   inkscape:path-effect="#path-effect1030;#path-effect861"
   inkscape:original-d="m 227.67415,100 c 0,0 -85.76687,128.77288 -94.38502,202.85154 -19.08389,164.03862 1.11608,353.1341 100.30256,485.17541 58.28579,77.59255 162.80379,114.38276 257.40498,136.02649 132.30274,30.26944 279.83279,32.91849 406.89526,-14.78247 34.85031,-13.08328 66.59067,-39.06319 86.69867,-70.39025 C 991.82049,827.61698 994.6195,800 994.6195,800 c 0,0 -124.32023,-1.07784 -186.48173,-1.02613 C 760.40844,799.01358 664.95342,800 664.95342,800 l -43.45207,-83.76338 c 0,0 74.09599,-46.1424 101.56113,-79.11525 54.5156,-65.44786 107.34677,-142.14541 118.01025,-226.65377 7.15632,-56.71401 11.10815,-139.37512 -38.92961,-167.01412 -53.70508,-29.66469 -133.62255,13.86382 -173.97991,60.07543 -48.88546,55.9768 -45.70221,144.33094 -43.73415,218.62304 0.81047,30.59435 22.75165,88.95168 22.75165,88.95168 l -166.63263,2.66441 c 0,0 18.19628,-41.16927 22.58263,-63.06202 12.91764,-64.47336 28.67386,-133.90267 10.17472,-197.00149 -9.46247,-32.27559 -28.15389,-68.12479 -58.78974,-82.00633 -34.57432,-15.66612 -88.01026,-17.14572 -113.32833,11.13514 -54.48145,60.85701 -24.334,168.07482 3.06305,245.02419 15.73151,44.18468 52.96972,78.46425 87.55113,110.14851 32.46628,29.74634 110.1904,72.85749 110.1904,72.85749 L 360.41597,821.00327 C 347.6517,786.82074 345.8834,764.86627 334.77547,738.18883 301.26127,657.69939 230.01559,592.55442 211.94344,507.25977 186.59141,387.60647 141.26406,216.01753 238.06942,141.26215 c 62.86984,-48.54949 170.82112,-4.11137 234.26061,43.69128 50.27089,37.8799 84.45655,168.89504 84.45655,168.89504 l -47.52433,-3.56696 c 0,0 33.33956,-92.7313 68.62077,-124.25986 73.70924,-65.86923 182.83674,-151.554744 274.02425,-113.38861 65.33084,27.34388 80.88381,126.04424 79.92719,196.86015 -2.26303,167.52584 -201.59062,460.42532 -201.59062,460.42532 L 702.166,709.98697 c 0,0 119.33779,18.49148 177.53258,7.46693 38.80076,-7.3505 84.95268,-16.11068 108.34532,-47.92755 38.8654,-52.86171 20.5702,-129.97684 22.3211,-195.56506 C 1013.6975,349.12527 987.7998,100 987.7998,100 h 171.8559 c 0,0 -46.4779,118.34914 -55.361,180.72427 -13.2846,93.28076 4.2373,188.41513 4.0492,282.63692 -0.1305,65.34709 17.8081,134.26465 -3.591,196.00878 -30.2213,87.19926 -87.7278,173.86825 -167.3172,220.58622 -77.35098,45.40411 -176.77391,36.03001 -266.45456,37.47411 -98.22026,1.5815 -202.60412,6.8301 -292.99715,-31.62536 C 271.13996,940.35082 169.28239,862.5726 110.87924,762.21924 28.177785,620.11442 18.932005,441.33809 22.443712,276.9575 23.799482,213.49484 66.171583,90.721186 64.555982,91.24082 Z"
   sodipodi:nodetypes="caaaaacaccaaaaaccaaaaaaccaaaaccaaaccaaaccaaaaaaaacc" /></svg>
