<?xml version="1.0" encoding="UTF-8" standalone="no"?>
<svg
   xmlns:dc="http://purl.org/dc/elements/1.1/"
   xmlns:cc="http://creativecommons.org/ns#"
   xmlns:rdf="http://www.w3.org/1999/02/22-rdf-syntax-ns#"
   xmlns:svg="http://www.w3.org/2000/svg"
   xmlns="http://www.w3.org/2000/svg"
   xmlns:sodipodi="http://sodipodi.sourceforge.net/DTD/sodipodi-0.dtd"
   xmlns:inkscape="http://www.inkscape.org/namespaces/inkscape"
   xml:space="preserve"
   width="1000"
   height="1000"
   version="1.1"
   style="clip-rule:evenodd;fill-rule:evenodd;image-rendering:optimizeQuality;shape-rendering:geometricPrecision;text-rendering:geometricPrecision"
   viewBox="0 0 1000 1000"
   id="svg10"
   sodipodi:docname="മൃ.svg"
   inkscape:version="1.0.1 (3bc2e813f5, 2020-09-07)"><metadata
   id="metadata14"><rdf:RDF><cc:Work
       rdf:about=""><dc:format>image/svg+xml</dc:format><dc:type
         rdf:resource="http://purl.org/dc/dcmitype/StillImage" /><dc:title /></cc:Work></rdf:RDF></metadata><sodipodi:namedview
   pagecolor="#ffffff"
   bordercolor="#666666"
   borderopacity="1"
   objecttolerance="10"
   gridtolerance="10"
   guidetolerance="10"
   inkscape:pageopacity="0"
   inkscape:pageshadow="2"
   inkscape:window-width="1920"
   inkscape:window-height="1015"
   id="namedview12"
   showgrid="false"
   inkscape:zoom="0.84890884"
   inkscape:cx="327.86116"
   inkscape:cy="739.37689"
   inkscape:window-x="1920"
   inkscape:window-y="0"
   inkscape:window-maximized="1"
   inkscape:current-layer="svg10"
   showguides="true"
   inkscape:guide-bbox="true"
   inkscape:document-rotation="0"><sodipodi:guide
     position="0,1000"
     orientation="0,1"
     id="guide16"
     inkscape:label=""
     inkscape:locked="true"
     inkscape:color="rgb(0,0,255)" /><sodipodi:guide
     position="1763.3122,2036.1693"
     orientation="1000,0"
     id="guide18" /><sodipodi:guide
     position="0,200"
     orientation="0,1"
     id="guide20"
     inkscape:label="base"
     inkscape:locked="true"
     inkscape:color="rgb(0,0,255)" /><inkscape:grid
     type="xygrid"
     id="grid24"
     originx="-473.37552"
     originy="-489.69235" /><sodipodi:guide
     position="0,0"
     orientation="0,1"
     id="guide34"
     inkscape:label="bottom"
     inkscape:locked="true"
     inkscape:color="rgb(0,0,255)" /><sodipodi:guide
     position="225.05109,1693.3186"
     orientation="0,1"
     id="guide44"
     inkscape:label=""
     inkscape:locked="false"
     inkscape:color="rgb(0,0,255)" /><sodipodi:guide
     position="0,900"
     orientation="0,1"
     id="guide46"
     inkscape:label=""
     inkscape:locked="true"
     inkscape:color="rgb(0,0,255)" /><sodipodi:guide
     position="638.46667,573.57023"
     orientation="1,0"
     id="guide841"
  inkscape:label="width"  />    </sodipodi:namedview>
 <defs
   id="defs4">
  <style
   type="text/css"
   id="style2">
   <![CDATA[
    .fil0 {fill:#EF7F1A;fill-rule:nonzero}
   ]]>
  </style>
 <inkscape:path-effect
   effect="spiro"
   id="path-effect1214"
   is_visible="true"
   lpeversion="1" /><inkscape:path-effect
   effect="spiro"
   id="path-effect1195"
   is_visible="true"
   lpeversion="1" /><inkscape:path-effect
   effect="spiro"
   id="path-effect992"
   is_visible="true"
   lpeversion="1" /><inkscape:path-effect
   effect="spiro"
   id="path-effect1343"
   is_visible="true"
   lpeversion="1" /></defs>
 
<path
   style="clip-rule:evenodd;display:inline;fill:#1a1a1a;fill-rule:nonzero;stroke:none;stroke-width:1.80255px;stroke-linecap:butt;stroke-linejoin:miter;stroke-opacity:1;image-rendering:optimizeQuality;shape-rendering:geometricPrecision;text-rendering:geometricPrecision"
   d="m 512.8362,898.37929 c -11.82276,28.36917 -30.87027,53.44251 -53.66989,74.05233 -22.79962,20.60983 -49.29843,36.86888 -77.16493,49.83208 -25.97827,12.0849 -53.50031,21.4427 -81.99361,24.4503 -28.49331,3.0075 -58.08213,-0.5926 -83.77066,-13.2817 -11.47093,-5.6662 -22.23924,-13.2497 -29.8958,-23.4998 -7.65655,-10.25013 -11.95059,-23.3954 -9.89077,-36.02255 1.2998,-7.96805 5.06407,-15.44822 10.31188,-21.58335 5.2478,-6.13513 11.94106,-10.95474 19.21326,-14.46107 14.5444,-7.01267 31.0536,-8.75691 47.1979,-9.03727 45.82657,-0.79581 92.10021,9.65303 132.04198,32.13329 33.56534,18.89144 62.3784,46.15175 83.09836,78.62025 l 49.21347,-59.82945 c -28.80632,-26.02898 -59.81903,-49.61537 -92.59629,-70.42314 -49.94586,-31.7068 -105.78753,-57.39488 -164.8968,-59.84527 -46.29298,-1.91909 -94.13223,11.52117 -128.97369,42.06287 -17.42073,15.27085 -31.369398,34.61733 -39.617379,56.26569 -8.247981,21.64836 -10.697047,45.58534 -6.230769,68.3171 3.911757,19.9094 13.047261,38.6678 25.653588,54.5665 12.60634,15.8987 28.62627,28.97 46.32604,38.89 35.39953,19.84 76.82543,26.8728 117.40441,26.5595 95.13097,-0.7346 189.90013,-42.3599 252.30732,-114.1637 42.77243,-49.21264 69.97608,-111.38672 79.18733,-175.93529 13.36019,-93.62256 -10.15787,-189.85537 5.36143,-283.14432 4.14646,-24.92503 11.06481,-49.38791 20.58652,-72.79276 l -151.64976,2.60483 c 11.49132,22.91369 20.76638,46.93818 27.6537,71.62932 13.00155,46.61073 17.42355,95.60002 12.97875,143.78554 l -231.30657,11.95592 c 47.26389,-14.44473 92.32435,-36.07592 133.15543,-63.921 34.70097,-23.66461 66.48129,-51.94973 92.02912,-85.28859 25.54783,-33.33885 44.762,-71.84502 53.58957,-112.90894 C 581.306,398.34633 571.44778,334.4276 542.80948,280.58809 521.16127,239.88982 489.33416,205.09198 452.81049,176.96698 378.3463,119.62595 281.07584,89.653697 188.33164,104.86628 134.27488,113.73307 81.459362,138.67239 46.753003,181.05425 10.308929,225.55813 -3.2484259,286.2359 3.624658,343.34568 c 6.873084,57.10978 32.807405,110.75408 67.498316,156.6377 47.489676,62.81179 111.999076,112.62581 184.779316,142.6862 L 363.21758,532.20283 c -45.45877,12.45153 -94.85002,10.08519 -138.9102,-6.6552 -24.85868,-9.4449 -48.0882,-23.41254 -67.43987,-41.65185 -19.35168,-18.23931 -34.76399,-40.79038 -43.8381,-65.78678 -9.07412,-24.99641 -11.70355,-52.42957 -6.61416,-78.53048 5.08939,-26.10092 18.00532,-50.76094 37.21832,-69.14627 29.12377,-27.86915 71.48778,-39.85028 111.59488,-35.81245 40.10709,4.03782 77.82786,23.03962 108.2575,49.47672 33.12452,28.7784 58.46682,66.85242 70.24965,109.12056 11.78282,42.26813 9.63144,88.62779 -7.89804,128.85399 -14.49853,33.27085 -38.89472,61.55824 -67.01199,84.50548 -28.11727,22.94724 -59.96785,40.86937 -92.32466,57.30692 -21.4812,10.91265 -43.4879,21.30457 -66.97152,26.69417 -23.48362,5.3896 -48.78644,5.48515 -71.01461,-3.81198 -14.45717,-6.04684 -27.26652,-15.98183 -36.719894,-28.48014 L 94.976544,800 c 61.524006,-9.73728 123.711146,-15.28232 185.987336,-16.58393 81.40509,-1.70141 162.96053,3.85572 243.38239,16.58393 5.39228,33.00961 1.35632,67.50588 -11.51007,98.37929 z"
   id="path979-0-6-9"
   inkscape:path-effect="#path-effect1343"
   inkscape:original-d="m 512.8362,898.37929 c -26.90944,53.69465 -75.81708,99.79539 -130.83482,123.88441 -50.73047,22.2119 -116.07097,35.6129 -165.76427,11.1686 -21.41449,-10.5339 -45.11485,-36.25968 -39.78657,-59.52235 6.62265,-28.91376 47.37725,-40.75858 76.72304,-45.08169 44.81488,-6.60195 92.25007,10.48699 132.04198,32.13329 33.49659,18.22173 83.09836,78.62025 83.09836,78.62025 l 49.21347,-59.82945 c 0,0 -58.55025,-51.86004 -92.59629,-70.42314 -51.33841,-27.99152 -107.66743,-71.84346 -164.8968,-59.84527 -78.7947,16.51937 -182.723599,86.52664 -174.821838,166.64566 7.335339,74.3758 114.830188,114.7913 189.384038,120.016 92.08543,6.4533 187.0981,-48.8251 252.30732,-114.1637 45.4301,-45.52022 65.09412,-113.18686 79.18733,-175.93529 20.6864,-92.10387 -10.1035,-185.91317 5.36143,-283.14432 4.35306,-24.83736 20.58652,-72.79276 20.58652,-72.79276 l -151.64976,2.60483 c 0,0 21.83801,46.70506 27.6537,71.62932 10.93488,46.86438 12.97875,143.78554 12.97875,143.78554 l -231.30657,11.95592 c 0,0 95.25737,-32.49258 133.15543,-63.921 C 485.9746,603.83145 548.60959,537.50011 568.48934,457.96661 582.97656,400.00716 567.6855,334.90533 542.80948,280.58809 523.76,238.9932 491.55029,201.30304 452.81049,176.96698 375.4343,128.35977 279.11776,94.492781 188.33164,104.86628 135.08591,110.9503 72.466395,134.03353 46.753003,181.05425 -4.4028105,274.60007 9.5281849,458.50247 71.122974,499.98338 132.7179,541.46495 255.90229,642.66958 255.90229,642.66958 L 363.21758,532.20283 c 0,0 -102.18111,21.6273 -138.9102,-6.6552 -70.66605,-54.41498 -135.589097,-184.83742 -80.67381,-255.11538 45.20942,-57.85686 163.1443,-32.97802 219.85238,13.66427 63.33221,52.09062 86.08586,159.48181 62.35161,237.97455 -20.57933,68.05826 -95.18413,111.15502 -159.33665,141.8124 -42.06676,20.10355 -106.90687,36.69122 -137.98613,22.88219 C 97.435515,672.95732 91.794886,658.28552 91.794886,658.28552 L 94.976544,800 c 0,0 123.748986,-15.93359 185.987336,-16.58393 C 362.27503,782.56644 524.34627,800 524.34627,800 c -5.52041,34.02251 3.28279,68.86186 -11.51007,98.37929 z"
   sodipodi:nodetypes="aaaaaaccaaaaaacccaccaaaaaasccaaaaasccaca" /></svg>
