<?xml version="1.0" encoding="UTF-8" standalone="no"?>
<svg
   xmlns:dc="http://purl.org/dc/elements/1.1/"
   xmlns:cc="http://creativecommons.org/ns#"
   xmlns:rdf="http://www.w3.org/1999/02/22-rdf-syntax-ns#"
   xmlns:svg="http://www.w3.org/2000/svg"
   xmlns="http://www.w3.org/2000/svg"
   xmlns:sodipodi="http://sodipodi.sourceforge.net/DTD/sodipodi-0.dtd"
   xmlns:inkscape="http://www.inkscape.org/namespaces/inkscape"
   xml:space="preserve"
   width="1000"
   height="1000"
   version="1.1"
   style="clip-rule:evenodd;fill-rule:evenodd;image-rendering:optimizeQuality;shape-rendering:geometricPrecision;text-rendering:geometricPrecision"
   viewBox="0 0 1000 1000"
   id="svg10"
   sodipodi:docname="മ്മ.svg"
   inkscape:version="1.0.2 (e86c870879, 2021-01-15)"><metadata
   id="metadata14"><rdf:RDF><cc:Work
       rdf:about=""><dc:format>image/svg+xml</dc:format><dc:type
         rdf:resource="http://purl.org/dc/dcmitype/StillImage" /><dc:title /></cc:Work></rdf:RDF></metadata><sodipodi:namedview
   pagecolor="#ffffff"
   bordercolor="#666666"
   borderopacity="1"
   objecttolerance="10"
   gridtolerance="10"
   guidetolerance="10"
   inkscape:pageopacity="0"
   inkscape:pageshadow="2"
   inkscape:window-width="1920"
   inkscape:window-height="1007"
   id="namedview12"
   showgrid="false"
   inkscape:zoom="0.84890884"
   inkscape:cx="621.17888"
   inkscape:cy="467.26287"
   inkscape:window-x="1920"
   inkscape:window-y="0"
   inkscape:window-maximized="1"
   inkscape:current-layer="svg10"
   showguides="true"
   inkscape:guide-bbox="true"
   inkscape:document-rotation="0"
   inkscape:snap-grids="true"
   inkscape:snap-to-guides="false"><sodipodi:guide
   position="0,1000"
   orientation="0,1"
   id="guide16"
   inkscape:label=""
   inkscape:locked="true"
   inkscape:color="rgb(0,0,255)" /><sodipodi:guide
   position="1763.3122,2036.1693"
   orientation="1000,0"
   id="guide18" /><sodipodi:guide
   position="0,200"
   orientation="0,1"
   id="guide20"
   inkscape:label="base"
   inkscape:locked="true"
   inkscape:color="rgb(0,0,255)" /><inkscape:grid
   type="xygrid"
   id="grid24"
   originx="-473.37552"
   originy="-489.69235" /><sodipodi:guide
   position="0,0"
   orientation="0,1"
   id="guide34"
   inkscape:label="bottom"
   inkscape:locked="true"
   inkscape:color="rgb(0,0,255)" /><sodipodi:guide
   position="225.05109,1693.3186"
   orientation="0,1"
   id="guide44"
   inkscape:label=""
   inkscape:locked="false"
   inkscape:color="rgb(0,0,255)" /><sodipodi:guide
   position="0,900"
   orientation="0,1"
   id="guide46"
   inkscape:label=""
   inkscape:locked="true"
   inkscape:color="rgb(0,0,255)" /><sodipodi:guide
   position="1101.0052,551.5904"
   orientation="1,0"
   id="guide841"
   inkscape:label="width" />    </sodipodi:namedview>
 <defs
   id="defs4"><inkscape:path-effect
   effect="fillet_chamfer"
   id="path-effect844"
   is_visible="true"
   lpeversion="1"
   satellites_param="F,0,1,1,0,18.720233,0,1 @ F,0,0,1,0,0,0,1 @ F,0,0,1,0,0,0,1 @ F,0,0,1,0,0,0,1 @ F,0,0,1,0,0,0,1 @ F,0,0,1,0,0,0,1 @ F,0,0,1,0,0,0,1 @ F,0,0,1,0,0,0,1 @ F,0,0,1,0,0,0,1 @ F,0,0,1,0,0,0,1 @ F,0,0,1,0,0,0,1 @ F,0,0,1,0,0,0,1 @ F,0,0,1,0,0,0,1 @ F,0,0,1,0,0,0,1 @ F,0,0,1,0,0,0,1 @ F,0,0,1,0,0,0,1 @ F,0,0,1,0,0,0,1 @ F,0,0,1,0,0,0,1 @ F,0,0,1,0,0,0,1 @ F,0,0,1,0,0,0,1 @ F,0,0,1,0,0,0,1 @ F,0,0,1,0,0,0,1 @ F,0,1,1,0,18.720233,0,1 @ F,0,1,1,0,18.720233,0,1 @ F,0,0,1,0,0,0,1 @ F,0,0,1,0,0,0,1 @ F,0,0,1,0,0,0,1 @ F,0,0,1,0,0,0,1 @ F,0,0,1,0,0,0,1 @ F,0,0,1,0,0,0,1 @ F,0,0,1,0,0,0,1 @ F,0,0,1,0,0,0,1 @ F,0,0,1,0,0,0,1 @ F,0,0,1,0,0,0,1 @ F,0,0,1,0,0,0,1 @ F,0,0,1,0,0,0,1 @ F,0,1,1,0,18.720233,0,1 @ F,0,1,1,0,18.720233,0,1 @ F,0,0,1,0,0,0,1 @ F,0,0,1,0,0,0,1 @ F,0,0,1,0,0,0,1 @ F,0,0,1,0,0,0,1 @ F,0,1,1,0,18.720233,0,1 @ F,0,0,1,0,0,0,1 @ F,0,0,1,0,0,0,1 @ F,0,0,1,0,0,0,1 @ F,0,0,1,0,0,0,1 @ F,0,0,1,0,0,0,1 @ F,0,0,1,0,0,0,1 @ F,0,0,1,0,0,0,1 @ F,0,0,1,0,0,0,1 @ F,0,0,1,0,0,0,1 @ F,0,0,1,0,0,0,1 @ F,0,0,1,0,0,0,1 @ F,0,0,1,0,0,0,1 @ F,0,0,1,0,0,0,1 @ F,0,0,1,0,0,0,1 @ F,0,0,1,0,0,0,1 @ F,0,1,1,0,18.720233,0,1"
   unit="px"
   method="auto"
   mode="F"
   radius="0"
   chamfer_steps="1"
   flexible="false"
   use_knot_distance="true"
   apply_no_radius="true"
   apply_with_radius="true"
   only_selected="true"
   hide_knots="false" /><inkscape:path-effect
   effect="fillet_chamfer"
   id="path-effect843"
   is_visible="true"
   lpeversion="1"
   satellites_param="F,0,0,1,0,40.96097,0,1 @ F,0,0,1,0,0,0,1 @ F,0,0,1,0,0,0,1 @ F,0,0,1,0,0,0,1 @ F,0,0,1,0,0,0,1 @ F,0,0,1,0,0,0,1 @ F,0,0,1,0,0,0,1 @ F,0,0,1,0,0,0,1 @ F,0,0,1,0,0,0,1 @ F,0,0,1,0,0,0,1 @ F,0,0,1,0,0,0,1 @ F,0,0,1,0,0,0,1 @ F,0,0,1,0,0,0,1 @ F,0,0,1,0,0,0,1 @ F,0,0,1,0,0,0,1 @ F,0,0,1,0,0,0,1 @ F,0,0,1,0,0,0,1 @ F,0,0,1,0,0,0,1 @ F,0,0,1,0,0,0,1 @ F,0,0,1,0,0,0,1 @ F,0,0,1,0,0,0,1 @ F,0,0,1,0,20.281271,0,1 @ F,0,0,1,0,31.904212,0,1 @ F,0,0,1,0,0,0,1 @ F,0,0,1,0,0,0,1 @ F,0,0,1,0,0,0,1 @ F,0,0,1,0,0,0,1 @ F,0,0,1,0,0,0,1 @ F,0,0,1,0,0,0,1 @ F,0,0,1,0,0,0,1 @ F,0,0,1,0,0,0,1 @ F,0,0,1,0,0,0,1 @ F,0,0,1,0,0,0,1 @ F,0,0,1,0,0,0,1 @ F,0,0,1,0,0,0,1 @ F,0,0,1,0,0,0,1 @ F,0,0,1,0,22.330227,0,1 @ F,0,0,1,0,36.975962,0,1 @ F,0,0,1,0,0,0,1 @ F,0,0,1,0,0,0,1 @ F,0,0,1,0,37.996478,0,1 @ F,0,0,1,0,0,0,1 @ F,0,0,1,0,20.204811,0,1 @ F,0,0,1,0,0,0,1 @ F,0,0,1,0,0,0,1 @ F,0,0,1,0,0,0,1 @ F,0,0,1,0,0,0,1 @ F,0,0,1,0,0,0,1 @ F,0,0,1,0,0,0,1 @ F,0,0,1,0,0,0,1 @ F,0,0,1,0,0,0,1 @ F,0,0,1,0,0,0,1 @ F,0,0,1,0,0,0,1 @ F,0,0,1,0,0,0,1 @ F,0,0,1,0,0,0,1 @ F,0,0,1,0,0,0,1 @ F,0,0,1,0,29.370118,0,1"
   unit="px"
   method="auto"
   mode="F"
   radius="0"
   chamfer_steps="1"
   flexible="false"
   use_knot_distance="true"
   apply_no_radius="true"
   apply_with_radius="true"
   only_selected="true"
   hide_knots="false" /><inkscape:path-effect
   effect="spiro"
   id="path-effect878"
   is_visible="true"
   lpeversion="1" />
  <style
   type="text/css"
   id="style2">
   <![CDATA[
    .fil0 {fill:#EF7F1A;fill-rule:nonzero}
   ]]>
  </style>
 <inkscape:path-effect
   effect="spiro"
   id="path-effect1214"
   is_visible="true"
   lpeversion="1" /><inkscape:path-effect
   effect="spiro"
   id="path-effect1195"
   is_visible="true"
   lpeversion="1" /><inkscape:path-effect
   effect="spiro"
   id="path-effect992"
   is_visible="true"
   lpeversion="1" /></defs>
 
<path
   style="clip-rule:evenodd;display:inline;fill:#63452c;fill-rule:nonzero;stroke:none;stroke-width:1.82472px;stroke-linecap:butt;stroke-linejoin:miter;stroke-opacity:1;image-rendering:optimizeQuality;shape-rendering:geometricPrecision;text-rendering:geometricPrecision"
   d="m 813.46962,536.99519 c -40.16831,8.60997 -83.01058,4.67106 -120.82122,-11.44756 -47.30523,-20.16616 -86.56621,-59.94958 -103.07035,-108.65351 -8.25208,-24.35196 -10.85701,-50.64988 -7.11326,-76.08802 3.74376,-25.43814 13.87091,-49.96454 29.5098,-70.37385 29.3605,-38.31648 77.79793,-60.40662 126.06999,-60.40183 48.27205,0.005 95.62156,21.22606 129.95532,55.15812 33.34132,32.95123 54.70872,77.51512 60.70624,124.00659 5.99752,46.49148 -3.21164,94.64672 -24.88225,136.21368 -34.46589,66.10992 -98.75887,113.43196 -168.98196,138.47466 -53.28746,19.00318 -109.95855,26.25409 -166.22704,32.13042 -130.47433,13.62592 -261.6516,20.51845 -392.83545,20.64101 l 33.06651,42.43676 c 76.88045,-20.69658 149.85869,-55.79286 214.0247,-102.92752 33.76387,-24.80205 65.25294,-53.06907 90.95363,-86.15403 25.70069,-33.08496 45.52113,-71.15916 54.66506,-112.0435 13.31828,-59.54869 3.08485,-123.56389 -25.67986,-177.37852 C 521.08122,239.93765 489.31055,205.11517 452.81049,176.96698 378.38273,119.56963 281.07894,89.638489 188.33164,104.86628 134.27693,113.7413 81.461405,138.67496 46.753003,181.05425 10.305994,225.5564 -3.2524028,286.23531 3.6212507,343.34554 10.494904,400.45578 36.430957,454.09995 71.122974,499.98338 c 43.726966,57.833 101.881686,104.64731 167.635766,135.17008 9.37708,4.3528 22.98368,1.50449 30.18784,-5.91123 l 81.22671,-83.61205 c 7.20416,-7.41572 5.02117,-10.93114 -5.1087,-8.8809 -40.18307,8.13285 -82.77756,4.28676 -120.75721,-11.20165 -48.22268,-19.6656 -89.08066,-58.97432 -106.21848,-108.15214 -8.56891,-24.58891 -11.18834,-51.30698 -6.93572,-76.99659 4.25263,-25.68961 15.43625,-50.28066 32.48039,-69.96665 15.04506,-17.37705 34.50807,-30.80761 55.88798,-39.24651 21.37991,-8.4389 44.63357,-11.9211 67.58594,-10.69472 45.90476,2.45275 89.7802,23.8167 123.22128,55.35962 32.92081,31.05219 56.41905,72.1728 65.46854,116.5138 9.04949,44.34101 3.44077,91.70409 -16.62059,132.26959 -16.7618,33.89356 -43.0674,62.50408 -73.29638,85.21841 -30.22898,22.71432 -64.35634,39.77921 -99.37943,54.03103 -43.7958,17.82167 -91.51075,31.5841 -137.98613,22.88219 -7.8259,-1.4653 -15.53316,-3.56158 -23.02525,-6.256 -9.722474,-3.49655 -15.637263,0.81777 -13.743083,10.98167 l 16.447433,88.25464 c 1.89418,10.1639 11.80984,18.26073 22.14705,18.07402 75.75302,-1.36829 151.49829,-3.16536 227.23096,-5.39111 131.81969,-3.87412 263.63649,-9.04755 395.51287,-8.80668 118.02499,0.21557 236.04199,4.77019 353.73254,13.65156 -31.9111,-73.14848 -41.4503,-155.88012 -27.0237,-234.37147 3.437,-18.69966 8.199,-37.15548 14.2343,-55.18497 3.2817,-9.80329 -1.462,-20.63852 -11.1013,-24.37711 L 962.21067,436.52054 c 5.134,42.56097 9.85874,85.17131 14.17333,127.82314 4.84346,47.87995 9.17006,95.81219 12.9788,143.78554 -69.68053,8.57108 -140.06762,11.39108 -210.2105,8.42192 -26.13355,-1.10624 -52.23314,-3.01452 -78.24966,-5.72127 l -1.58564,51.0449 c 68.65618,-25.64299 133.53214,-61.38176 191.89467,-105.71063 33.32513,-25.31188 64.6894,-53.57561 90.46145,-86.54616 25.77208,-32.97055 45.86898,-70.84715 55.15718,-111.65137 13.5473,-59.51468 3.1404,-123.5741 -25.6799,-177.37852 C 989.38714,239.95842 957.64487,205.1209 921.1515,176.96697 846.7371,119.5577 749.42693,89.701434 656.67266,104.86628 c -54.07035,8.84022 -106.9573,33.72486 -141.57864,76.18796 -36.29783,44.51931 -49.53274,105.18498 -42.55138,162.20044 6.98137,57.01545 32.77814,110.53625 66.92135,156.7287 40.90994,55.34718 94.25666,101.43169 154.89273,133.97827 9.10897,4.88926 22.85344,2.85843 30.48151,-4.12049 l 92.90852,-85.00188 c 7.62807,-6.97892 5.82826,-10.01016 -4.27713,-7.84409 z"
   id="path3501-3-8"
   sodipodi:nodetypes="caaaaaaccaaaaaaaccaaaaasccaacaccacaccaaaaaaacc"
   inkscape:original-d="m 831.5586,532.20283 c 0,0 -102.18111,21.6273 -138.9102,-6.6552 -70.66605,-54.41498 -132.64241,-182.63128 -80.67381,-255.11538 49.73732,-69.37198 191.11158,-60.67367 256.02531,-5.24371 66.58565,56.85762 67.79192,178.70653 35.82399,260.22027 -26.58844,67.79678 -103.05451,107.54054 -168.98196,138.47466 -51.0901,23.97222 -110.20995,25.27834 -166.22704,32.13042 -130.15568,15.9208 -392.83545,20.64101 -392.83545,20.64101 l 33.06651,42.43676 c 0,0 153.10735,-52.37246 214.0247,-102.92752 C 485.95625,603.80966 548.60959,537.50011 568.48934,457.96661 582.97656,400.00716 567.6855,334.90533 542.80948,280.58809 523.76,238.9932 491.55029,201.30304 452.81049,176.96698 375.4343,128.35977 279.11776,94.492781 188.33164,104.86628 135.08591,110.9503 72.466395,134.03353 46.753003,181.05425 -4.4028105,274.60007 20.4986,406.14887 71.122974,499.98338 108.07264,568.47121 255.90229,642.66958 255.90229,642.66958 L 363.21758,532.20283 c 0,0 -102.18111,21.6273 -138.9102,-6.6552 -70.66605,-54.41498 -134.168658,-183.75025 -80.67381,-255.11538 49.33382,-65.81409 183.75596,-47.53415 246.6952,5.41839 64.66833,54.40727 77.75803,169.37085 48.84795,248.78339 -25.29465,69.48139 -105.20477,108.99814 -172.67581,139.24944 -42.54306,19.0746 -106.90687,36.69122 -137.98613,22.88219 -31.079265,-13.80834 -40.198049,-13.6777 -40.198049,-13.6777 2.238535,42.85391 23.306869,125.06138 23.306869,125.06138 0,0 163.96459,-3.8543 245.94829,-5.72046 131.83615,-3.00094 263.64695,-9.88214 395.51287,-8.80668 117.9947,0.96232 353.73254,13.65156 353.73254,13.65156 0,0 -33.3404,-155.98413 -27.0237,-234.37147 2.0253,-25.13446 20.5865,-72.79276 20.5865,-72.79276 L 962.21067,436.52054 c 0,0 9.88394,85.16943 14.17333,127.82314 4.81515,47.88187 12.9788,143.78554 12.9788,143.78554 0,0 -140.09363,9.57696 -210.2105,8.42192 -26.1493,-0.43075 -78.24966,-5.72127 -78.24966,-5.72127 l -1.58564,51.0449 c 0,0 137.00758,-57.53852 191.89467,-105.71063 61.61528,-54.07716 125.73893,-118.66403 145.61863,-198.19753 14.4872,-57.95945 -0.8038,-123.06128 -25.6799,-177.37852 C 992.101,238.9932 959.8913,201.30304 921.1515,176.96697 843.77532,128.35977 747.45878,94.492776 656.67266,104.86628 c -53.24573,6.08402 -115.86525,29.16725 -141.57864,76.18796 -51.15581,93.54583 -24.57873,224.20972 24.36997,318.92914 34.12935,66.04287 171.56239,142.49423 171.56239,142.49423 z"
   inkscape:path-effect="#path-effect878;#path-effect844" /></svg>
