<svg xmlns="http://www.w3.org/2000/svg" xmlns:dc="http://purl.org/dc/elements/1.1/" xmlns:ns1="http://sodipodi.sourceforge.net/DTD/sodipodi-0.dtd" xmlns:ns2="http://www.inkscape.org/namespaces/inkscape" xmlns:ns4="http://creativecommons.org/ns#" xmlns:rdf="http://www.w3.org/1999/02/22-rdf-syntax-ns#" xml:space="preserve" width="1000" height="1000" version="1.1" style="clip-rule:evenodd;fill-rule:evenodd;image-rendering:optimizeQuality;shape-rendering:geometricPrecision;text-rendering:geometricPrecision" viewBox="0 0 1000 1000" id="svg10" ns1:docname="യ.svg" ns2:version="1.1.1 (3bf5ae0d25, 2021-09-20)"><metadata id="metadata14"><rdf:RDF><ns4:Work rdf:about=""><dc:format>image/svg+xml</dc:format><dc:type rdf:resource="http://purl.org/dc/dcmitype/StillImage" /></ns4:Work></rdf:RDF></metadata><ns1:namedview pagecolor="#ffffff" bordercolor="#666666" borderopacity="1" objecttolerance="10" gridtolerance="10" guidetolerance="10" ns2:pageopacity="0" ns2:pageshadow="2" ns2:window-width="1920" ns2:window-height="1009" id="namedview12" showgrid="false" ns2:zoom="0.678" ns2:cx="639.38053" ns2:cy="411.50442" ns2:window-x="0" ns2:window-y="0" ns2:window-maximized="1" ns2:current-layer="svg10" showguides="true" ns2:guide-bbox="true" ns2:document-rotation="0" ns2:snap-to-guides="true" ns2:pagecheckerboard="0"><ns1:guide position="0,1000" orientation="0,1" id="guide16" ns2:label="" ns2:locked="true" ns2:color="rgb(0,0,255)" /><ns1:guide position="1763.3122,2036.1693" orientation="1000,0" id="guide18" /><ns1:guide position="0,200" orientation="0,1" id="guide20" ns2:label="base" ns2:locked="true" ns2:color="rgb(0,0,255)" /><ns2:grid type="xygrid" id="grid24" originx="-473.37552" originy="-489.69235" /><ns1:guide position="0,0" orientation="0,1" id="guide34" ns2:label="bottom" ns2:locked="true" ns2:color="rgb(0,0,255)" /><ns1:guide position="225.05109,1693.3186" orientation="0,1" id="guide44" ns2:label="" ns2:locked="false" ns2:color="rgb(0,0,255)" /><ns1:guide position="0,900" orientation="0,1" id="guide46" ns2:label="" ns2:locked="true" ns2:color="rgb(0,0,255)" /><ns1:guide position="826.33914,1049.7685" orientation="-1,0" id="guide841" ns2:label="width" ns2:locked="false" ns2:color="rgb(0,0,255)" /><ns1:guide position="0,1000" orientation="0,1000" id="guide860" /><ns1:guide position="1000,1000" orientation="1000,0" id="guide862" /><ns1:guide position="1000,0" orientation="0,-1000" id="guide864" /><ns1:guide position="0,0" orientation="-1000,0" id="guide866" /></ns1:namedview>
 <defs id="defs4"><ns2:path-effect effect="fillet_chamfer" id="path-effect859" is_visible="true" lpeversion="1" satellites_param="F,0,0,1,0,0,0,1 @ F,0,0,1,0,0,0,1 @ F,0,0,1,0,0,0,1 @ F,0,0,1,0,0,0,1 @ F,0,0,1,0,0,0,1 @ F,0,0,1,0,0,0,1 @ F,0,0,1,0,0,0,1 @ F,0,0,1,0,0,0,1 @ F,0,0,1,0,0,0,1 @ F,0,0,1,0,0,0,1 @ F,0,0,1,0,0,0,1 @ F,0,0,1,0,0,0,1 @ F,0,0,1,0,0,0,1 @ F,0,0,1,0,0,0,1 @ F,0,0,1,0,0,0,1 @ F,0,0,1,0,0,0,1 @ F,0,0,1,0,0,0,1 @ F,0,0,1,0,0,0,1 @ F,0,0,1,0,0,0,1 @ F,0,0,1,0,0,0,1 @ F,0,0,1,0,0,0,1 @ F,0,0,1,0,0,0,1 @ F,0,0,1,0,0,0,1 @ F,0,0,1,0,0,0,1 @ F,0,0,1,0,0,0,1 @ F,0,0,1,0,24.760319,0,1 @ F,0,1,1,0,25.275285,0,1 @ F,0,0,1,0,0,0,1 @ F,0,0,1,0,0,0,1 @ F,0,0,1,0,0,0,1 @ F,0,0,1,0,0,0,1 @ F,0,0,1,0,0,0,1 @ F,0,0,1,0,0,0,1 @ F,0,0,1,0,0,0,1 @ F,0,0,1,0,0,0,1 @ F,0,0,1,0,0,0,1 @ F,0,0,1,0,0,0,1 @ F,0,0,1,0,0,0,1 @ F,0,0,1,0,0,0,1 @ F,0,0,1,0,0,0,1 @ F,0,0,1,0,0,0,1 @ F,0,0,1,0,0,0,1 @ F,0,0,1,0,0,0,1 @ F,0,0,1,0,0,0,1 @ F,0,0,1,0,0,0,1 @ F,0,0,1,0,0,0,1 @ F,0,0,1,0,0,0,1 @ F,0,0,1,0,0,0,1 @ F,0,0,1,0,0,0,1 @ F,0,0,1,0,0,0,1 @ F,0,0,1,0,0,0,1 @ F,0,0,1,0,0,0,1 @ F,0,0,1,0,0,0,1 @ F,0,0,1,0,0,0,1 @ F,0,0,1,0,0,0,1" unit="px" method="auto" mode="F" radius="0" chamfer_steps="1" flexible="false" use_knot_distance="true" apply_no_radius="true" apply_with_radius="true" only_selected="true" hide_knots="false" /><ns2:path-effect effect="fillet_chamfer" id="path-effect857" is_visible="true" lpeversion="1" satellites_param="F,0,0,1,0,0,0,1 @ F,0,0,1,0,0,0,1 @ F,0,0,1,0,0,0,1 @ F,0,0,1,0,0,0,1 @ F,0,0,1,0,0,0,1 @ F,0,0,1,0,0,0,1 @ F,0,0,1,0,0,0,1 @ F,0,0,1,0,0,0,1 @ F,0,0,1,0,0,0,1 @ F,0,0,1,0,0,0,1 @ F,0,0,1,0,0,0,1 @ F,0,0,1,0,0,0,1 @ F,0,0,1,0,0,0,1 @ F,0,0,1,0,0,0,1 @ F,0,0,1,0,0,0,1 @ F,0,0,1,0,0,0,1 @ F,0,0,1,0,0,0,1 @ F,0,0,1,0,0,0,1 @ F,0,0,1,0,0,0,1 @ F,0,0,1,0,0,0,1 @ F,0,0,1,0,0,0,1 @ F,0,0,1,0,0,0,1 @ F,0,0,1,0,0,0,1 @ F,0,0,1,0,0,0,1 @ F,0,0,1,0,0,0,1 @ F,0,0,1,0,16.927809,0,1 @ F,0,0,1,0,30.117285,0,1 @ F,0,0,1,0,0,0,1 @ F,0,0,1,0,0,0,1 @ F,0,0,1,0,0,0,1 @ F,0,0,1,0,0,0,1 @ F,0,0,1,0,0,0,1 @ F,0,0,1,0,0,0,1 @ F,0,0,1,0,0,0,1 @ F,0,0,1,0,0,0,1 @ F,0,0,1,0,0,0,1 @ F,0,0,1,0,0,0,1 @ F,0,0,1,0,0,0,1 @ F,0,0,1,0,0,0,1 @ F,0,0,1,0,0,0,1 @ F,0,0,1,0,0,0,1 @ F,0,0,1,0,0,0,1 @ F,0,0,1,0,0,0,1 @ F,0,0,1,0,0,0,1 @ F,0,0,1,0,0,0,1 @ F,0,0,1,0,0,0,1 @ F,0,0,1,0,0,0,1 @ F,0,0,1,0,0,0,1 @ F,0,0,1,0,0,0,1 @ F,0,0,1,0,0,0,1 @ F,0,0,1,0,0,0,1 @ F,0,0,1,0,0,0,1 @ F,0,0,1,0,0,0,1 @ F,0,0,1,0,0,0,1 @ F,0,0,1,0,0,0,1" unit="px" method="auto" mode="F" radius="0" chamfer_steps="1" flexible="false" use_knot_distance="true" apply_no_radius="true" apply_with_radius="true" only_selected="true" hide_knots="false" /><ns2:path-effect effect="spiro" id="path-effect862" is_visible="true" lpeversion="1" /><ns2:path-effect effect="spiro" id="path-effect1521" is_visible="true" lpeversion="1" /><ns2:path-effect effect="spiro" id="path-effect858" is_visible="true" lpeversion="1" /><ns2:path-effect effect="spiro" id="path-effect854" is_visible="true" lpeversion="1" />
  <style type="text/css" id="style2">
   
    .fil0 {fill:#EF7F1A;fill-rule:nonzero}
   
  </style>
 <ns2:path-effect effect="spiro" id="path-effect1214" is_visible="true" lpeversion="1" /><ns2:path-effect effect="spiro" id="path-effect1195" is_visible="true" lpeversion="1" /><ns2:path-effect effect="spiro" id="path-effect992" is_visible="true" lpeversion="1" /><ns2:path-effect effect="spiro" id="path-effect287" is_visible="true" lpeversion="1" /><ns2:path-effect effect="spiro" id="path-effect1032" is_visible="true" lpeversion="1" /><ns2:path-effect effect="spiro" id="path-effect1218" is_visible="true" lpeversion="1" /><ns2:path-effect effect="spiro" id="path-effect309" is_visible="true" lpeversion="1" /><ns2:path-effect effect="spiro" id="path-effect1176" is_visible="true" lpeversion="1" /><ns2:path-effect effect="spiro" id="path-effect1026" is_visible="true" lpeversion="1" /><ns2:path-effect effect="spiro" id="path-effect1255" is_visible="true" lpeversion="1" /></defs>
 
<path style="display:inline;fill:#613583;fill-rule:nonzero;stroke:none;stroke-width:2.23544px;stroke-linecap:butt;stroke-linejoin:miter;stroke-opacity:1" d="m 252.66943,322.06845 c 8.46009,-47.25862 29.47233,-92.21142 60.30431,-129.01277 20.78118,-24.80462 46.16442,-46.05853 75.35266,-60.02897 29.18824,-13.97045 62.28174,-20.43333 94.35365,-16.12993 40.31753,5.4098 77.47211,27.79956 103.86664,58.75271 26.39453,30.95316 42.40507,69.99447 48.95861,110.14195 12.57053,77.00802 -8.57653,155.53354 -36.37814,228.4398 C 575.04382,577.38681 545.29809,639.38543 501.2184,690.62618 457.13871,741.86693 397.29269,781.84905 330.43254,791.76642 262.53974,801.83697 191.18233,779.34497 139.13167,734.60598 89.144851,691.64092 57.407608,630.6048 38.886303,567.34629 20.423529,504.28769 14.069285,437.17794 25.090746,372.40303 c 6.167287,-36.24614 17.897846,-71.92274 37.896754,-102.775 14.909124,-23.00026 34.599031,-43.30087 58.69566,-56.36405 24.09663,-13.06317 52.79476,-18.48322 79.49423,-12.28382 31.52305,7.31939 57.66474,29.91251 76.69905,56.08446 19.03431,26.17195 32.06633,56.10964 46.60328,85.02249 41.82083,83.17836 96.8167,159.0488 141.22104,240.87713 13.09203,24.126 25.36417,48.92625 42.3278,70.50633 16.96363,21.58009 39.37314,40.04923 66.01205,46.66993 22.95393,5.70485 47.76146,2.10244 69.05619,-8.19138 21.29474,-10.29382 39.15925,-26.99239 52.55247,-46.48726 26.21848,-38.16305 35.24656,-86.07371 33.62861,-132.34692 -2.0522,-58.69295 -19.99839,-115.5104 -37.41533,-171.59716 -17.41694,-56.08677 -34.60986,-113.25022 -35.0798,-171.97716 -0.12262,-15.32372 0.90475,-30.65618 3.06388,-45.82747 1.9262,-13.53468 15.17494,-21.46401 28.37929,-17.9082 L 790.802,133.42773 c 13.47898,3.62977 18.14946,16.03603 11.68192,28.40097 -15.50344,29.64021 -25.64005,62.09014 -29.66783,95.2997 -10.61073,87.48671 20.61827,174.07766 30.1938,261.68371 5.56277,50.89353 3.64898,103.2534 -12.10705,151.96524 -9.99343,30.89599 -25.68931,60.27613 -48.12131,83.75454 -22.43201,23.47842 -51.86729,40.80176 -83.90157,46.11551 -28.72462,4.76475 -58.61584,-0.22958 -85.37222,-11.71448 -26.75638,-11.4849 -50.51018,-29.24939 -71.07846,-49.85891 C 461.29273,697.85496 432.94561,645.96911 400.58571,597.55358 371.27527,553.70053 338.39943,512.35843 307.46533,469.63521 285.91069,439.866 265.23084,409.33909 240.81404,381.8686 c -11.01819,-12.39618 -22.96028,-24.28474 -37.34215,-32.54476 -14.38186,-8.26001 -31.55206,-12.64566 -47.77274,-9.18799 -10.99855,2.3445 -21.11268,8.21105 -29.15505,16.07139 -8.04236,7.86035 -14.06335,17.65802 -18.1702,28.12695 -8.21369,20.93787 -8.800759,44.04973 -7.69072,66.51363 2.09769,42.45111 10.04223,85.06417 28.07235,123.55329 17.92342,38.26135 46.35394,72.34004 83.41933,92.62148 25.02181,13.69143 53.50597,20.83233 82.02626,21.20533 28.52029,0.37301 57.03751,-5.96651 82.98805,-17.80357 37.56724,-17.13589 69.44287,-45.59026 93.30682,-79.28667 23.86395,-33.69641 39.94377,-72.51206 49.99029,-112.56207 11.10956,-44.2878 14.99581,-90.44627 10.66192,-135.90009 -1.89097,-19.83255 -5.40746,-39.75586 -13.57848,-57.92562 -8.17102,-18.16976 -21.37395,-34.58244 -39.06063,-43.75233 -17.12421,-8.87827 -37.63653,-10.40371 -56.30841,-5.56395 -18.67188,4.83975 -35.49505,15.77762 -48.64299,29.89122 -26.51401,28.46135 -37.55015,68.09777 -41.97807,106.74275 -3.96857,34.63599 -3.34504,69.79533 1.84915,104.26882 z" id="path1253" ns2:path-effect="#path-effect1255;#path-effect859" ns2:original-d="m 252.66943,322.06845 c 0,0 26.47985,-95.70602 60.30431,-129.01277 44.18021,-43.50401 109.02269,-88.88635 169.70631,-76.1589 74.30789,15.58491 131.2028,96.11402 152.82525,168.89466 21.95891,73.91314 -1.90078,159.47127 -36.37814,228.4398 C 541.55118,629.40629 455.01323,759.20973 330.43254,791.76642 266.04226,808.59354 191.68294,775.44253 139.13167,734.60598 87.80647,694.72218 58.423418,629.3406 38.886303,567.34629 19.306011,505.21498 15.915986,436.89731 25.090746,372.40303 c 5.14247,-36.14917 13.506387,-75.60301 37.896754,-102.775 34.35727,-38.27558 87.7387,-78.65384 138.18989,-68.64787 61.26961,12.15158 86.79515,90.42311 123.30233,141.10695 54.39821,75.5224 85.76816,166.12571 141.22104,240.87713 31.69345,42.72331 56.21546,106.55539 108.33985,117.17626 43.55038,8.87383 93.0259,-20.64328 121.60866,-54.67864 29.27233,-34.85648 32.69839,-86.83892 33.62861,-132.34692 2.39203,-117.02201 -66.58725,-226.67706 -72.49513,-343.57432 -1.18746,-23.4958 7.53458,-70.17403 7.53458,-70.17403 L 815.20785,140 c 0,0 -37.57816,75.88712 -42.39176,117.1284 -10.1795,87.21457 28.64089,173.89082 30.1938,261.68371 0.8987,50.80764 9.37903,105.91557 -12.10705,151.96524 C 764.80152,726.71855 720.516,797.2276 658.87996,800.6474 549.5224,806.71497 476.58327,676.42221 400.58571,597.55358 363.98987,559.5752 338.93557,511.95822 307.46533,469.63521 285.54557,440.15624 269.17917,405.2118 240.81404,381.8686 c -24.3987,-20.07901 -55.18952,-51.87843 -85.11489,-41.73275 -39.02738,13.23156 -50.12829,69.7935 -55.01597,110.71197 -5.00923,41.93599 8.63345,86.05865 28.07235,123.55329 19.12397,36.8872 45.63666,75.33388 83.41933,92.62148 50.02829,22.89062 115.57889,27.54612 165.01431,3.40176 71.72213,-35.02923 115.18536,-117.14371 143.29711,-191.84874 16.00336,-42.52782 19.67632,-91.36399 10.66192,-135.90009 -7.57136,-37.4067 -17.99058,-85.67587 -52.63911,-101.67795 -32.60229,-15.05704 -77.76312,0.86621 -104.9514,24.32727 -28.94635,24.97811 -35.19046,69.11663 -41.97807,106.74275 -6.17127,34.20956 0.78975,97.58196 1.84915,104.26882 z" ns1:nodetypes="caaaaaaaaaaaaaaaaccaaaaaaaaaaaaaaaaacc" /><text text-anchor="middle" x="711.25665" y="784.54218" id="bottom" ns2:label="bottom" style="clip-rule:evenodd;fill-rule:evenodd;image-rendering:optimizeQuality;shape-rendering:geometricPrecision;text-rendering:geometricPrecision">✛</text></svg>