<?xml version="1.0" encoding="UTF-8" standalone="no"?>
<svg
   xmlns:dc="http://purl.org/dc/elements/1.1/"
   xmlns:cc="http://creativecommons.org/ns#"
   xmlns:rdf="http://www.w3.org/1999/02/22-rdf-syntax-ns#"
   xmlns:svg="http://www.w3.org/2000/svg"
   xmlns="http://www.w3.org/2000/svg"
   xmlns:sodipodi="http://sodipodi.sourceforge.net/DTD/sodipodi-0.dtd"
   xmlns:inkscape="http://www.inkscape.org/namespaces/inkscape"
   xml:space="preserve"
   width="1000"
   height="1000"
   version="1.1"
   style="clip-rule:evenodd;fill-rule:evenodd;image-rendering:optimizeQuality;shape-rendering:geometricPrecision;text-rendering:geometricPrecision"
   viewBox="0 0 1000 1000"
   id="svg10"
   sodipodi:docname="ര.svg"
   inkscape:version="1.0.1 (3bc2e813f5, 2020-09-07)"><metadata
   id="metadata14"><rdf:RDF><cc:Work
       rdf:about=""><dc:format>image/svg+xml</dc:format><dc:type
         rdf:resource="http://purl.org/dc/dcmitype/StillImage" /><dc:title /></cc:Work></rdf:RDF></metadata><sodipodi:namedview
   pagecolor="#ffffff"
   bordercolor="#666666"
   borderopacity="1"
   objecttolerance="10"
   gridtolerance="10"
   guidetolerance="10"
   inkscape:pageopacity="0"
   inkscape:pageshadow="2"
   inkscape:window-width="1920"
   inkscape:window-height="1015"
   id="namedview12"
   showgrid="false"
   inkscape:zoom="0.84890884"
   inkscape:cx="166.27761"
   inkscape:cy="456.73057"
   inkscape:window-x="1920"
   inkscape:window-y="0"
   inkscape:window-maximized="1"
   inkscape:current-layer="svg10"
   showguides="true"
   inkscape:guide-bbox="true"
   inkscape:document-rotation="0"><sodipodi:guide
     position="0,1000"
     orientation="0,1"
     id="guide16"
     inkscape:label=""
     inkscape:locked="true"
     inkscape:color="rgb(0,0,255)" /><sodipodi:guide
     position="1763.3122,2036.1693"
     orientation="1000,0"
     id="guide18" /><sodipodi:guide
     position="0,200"
     orientation="0,1"
     id="guide20"
     inkscape:label="base"
     inkscape:locked="true"
     inkscape:color="rgb(0,0,255)" /><inkscape:grid
     type="xygrid"
     id="grid24"
     originx="-473.37552"
     originy="-489.69235" /><sodipodi:guide
     position="0,0"
     orientation="0,1"
     id="guide34"
     inkscape:label="bottom"
     inkscape:locked="true"
     inkscape:color="rgb(0,0,255)" /><sodipodi:guide
     position="225.05109,1693.3186"
     orientation="0,1"
     id="guide44"
     inkscape:label=""
     inkscape:locked="false"
     inkscape:color="rgb(0,0,255)" /><sodipodi:guide
     position="0,900"
     orientation="0,1"
     id="guide46"
     inkscape:label=""
     inkscape:locked="true"
     inkscape:color="rgb(0,0,255)" /><sodipodi:guide
     position="458.51254,526.1859"
     orientation="-1,0"
     id="guide841"
     inkscape:label="width"
     inkscape:locked="false"
     inkscape:color="rgb(0,0,255)" /></sodipodi:namedview>
 <defs
   id="defs4"><inkscape:path-effect
   effect="spiro"
   id="path-effect851"
   is_visible="true"
   lpeversion="1" />
  <style
   type="text/css"
   id="style2">
   <![CDATA[
    .fil0 {fill:#EF7F1A;fill-rule:nonzero}
   ]]>
  </style>
 <inkscape:path-effect
   effect="spiro"
   id="path-effect1214"
   is_visible="true"
   lpeversion="1" /><inkscape:path-effect
   effect="spiro"
   id="path-effect1195"
   is_visible="true"
   lpeversion="1" /><inkscape:path-effect
   effect="spiro"
   id="path-effect992"
   is_visible="true"
   lpeversion="1" /><inkscape:path-effect
   effect="spiro"
   id="path-effect1060"
   is_visible="true"
   lpeversion="1" /><inkscape:path-effect
   effect="spiro"
   id="path-effect1047"
   is_visible="true"
   lpeversion="1" /><inkscape:path-effect
   effect="spiro"
   id="path-effect1085"
   is_visible="true"
   lpeversion="1" /><inkscape:path-effect
   effect="spiro"
   id="path-effect1286"
   is_visible="true"
   lpeversion="1" /><inkscape:path-effect
   effect="spiro"
   id="path-effect1305"
   is_visible="true"
   lpeversion="1" /></defs>
 
<path
   id="path1210-6"
   style="display:inline;fill:#1a1a1a;fill-rule:nonzero;stroke:none;stroke-width:2.10056px;stroke-linecap:butt;stroke-linejoin:miter;stroke-opacity:1"
   d="m 450.51254,500.64587 c 7.08395,76.14813 -3.0511,155.75985 -41.30755,221.98042 -11.62581,20.12387 -25.93669,39.03376 -44.33397,53.23482 -18.39727,14.20105 -41.18936,23.44709 -64.42438,22.93378 -16.68752,-0.36866 -33.11174,-5.75582 -47.28993,-14.56423 -14.17819,-8.80842 -26.14815,-20.96008 -35.54036,-34.75846 -18.78444,-27.59677 -27.07743,-61.06912 -30.83684,-94.23995 -4.24824,-37.48403 -3.1305,-75.57512 3.35044,-112.73824 7.80443,-44.75234 23.27795,-87.84019 41.29796,-129.54103 20.31383,-47.00906 43.95252,-92.581 70.68101,-136.2627 l 79.20025,91.83185 c -47.89533,21.94113 -87.84864,60.76993 -111.14784,108.01951 -12.80138,25.96055 -20.62197,54.10028 -26.56161,82.42952 -5.37931,25.65671 -9.23756,52.53116 -2.50263,77.86581 3.36747,12.66732 9.43733,24.74291 18.43199,34.2769 8.99467,9.53399 21.01152,16.40802 33.98586,18.27013 12.28379,1.763 25.02796,-1.01724 35.92961,-6.9463 10.90164,-5.92906 20.0032,-14.89387 26.89884,-25.21133 13.79127,-20.63491 18.66288,-45.91659 20.98357,-70.62718 3.35101,-35.68143 2.01009,-71.77719 -3.60942,-107.17232 -10.05109,-63.30796 -34.64915,-125.54273 -77.98417,-172.77618 -17.78701,-19.38714 -38.95276,-36.28896 -63.59778,-45.50102 -24.64502,-9.21207 -53.07844,-10.10322 -76.80107,1.27551 -18.50472,8.87592 -33.14635,24.64745 -43.08068,42.60617 -9.93433,17.95872 -15.441417,38.06325 -18.85227,58.30115 -8.355167,49.57441 -4.561612,100.34892 0.9777,150.31638 12.0794,108.96242 33.90922,220.84225 96.8719,310.58868 16.31556,23.25605 35.2093,44.70197 56.22366,63.81839 L 29.844606,886.19798 C 38.045309,849.30918 43.503301,811.81096 46.158661,774.11502 56.581686,626.14796 23.861885,478.86428 14.380657,330.83389 12.43766,300.49788 11.474683,269.9857 14.59228,239.74782 c 3.110575,-30.16978 10.482806,-60.38374 26.000554,-86.44311 14.220345,-23.88061 35.788638,-44.09632 62.131156,-52.96049 27.4105,-9.223537 57.65889,-5.606017 85.29294,2.92441 46.55763,14.372 88.34336,42.24161 122.51855,76.97234 34.17519,34.73073 60.99893,76.18639 82.47939,119.92147 30.81822,62.74713 51.0223,130.87715 57.49767,200.48343 z"
   sodipodi:nodetypes="aaaaaaccaaaaaaaaaaccaaaaaaaa"
   inkscape:original-d="m 450.51254,500.64587 c 3.58558,75.17824 -0.57191,158.69352 -41.30755,221.98042 -23.9549,37.21634 -64.96388,82.56684 -108.75835,76.1686 -60.39658,-8.82376 -94.4671,-85.62333 -113.66713,-143.56264 -11.8262,-35.68754 -2.97912,-75.67888 3.35044,-112.73824 7.63022,-44.67465 23.9181,-87.68431 41.29796,-129.54103 19.62178,-47.25604 70.68101,-136.2627 70.68101,-136.2627 l 79.20025,91.83185 c 0,0 -83.89339,64.12973 -111.14784,108.01951 -15.22885,24.5241 -27.33831,53.57218 -26.56161,82.42952 1.25235,46.52947 3.95796,123.03111 49.91522,130.41284 43.64859,7.01091 69.68757,-60.89385 83.81202,-102.78481 11.4203,-33.87087 4.49859,-72.35969 -3.60942,-107.17232 C 359.38468,417.88713 342.9873,348.59872 295.73337,306.65069 259.0392,274.07672 201.29744,245.25148 155.33452,262.42518 c -36.9695,13.81338 -51.33065,62.89226 -61.93295,100.90732 -13.460871,48.26456 -6.729041,100.80608 0.9777,150.31638 16.68014,107.15796 43.71462,216.06166 96.8719,310.58868 13.89646,24.71141 35.1062,44.8076 56.22366,63.81839 L 29.844606,886.19798 C 50.750918,854.32387 44.781437,811.84457 46.158661,774.11502 51.562531,626.07404 19.508402,478.88469 14.380657,330.83389 c -1.050962,-30.34391 -4.243023,-61.05253 0.211623,-91.08607 4.41466,-29.76395 9.547439,-61.25031 26.000554,-86.44311 14.88038,-22.78465 36.437813,-43.99287 62.131156,-52.96049 26.85874,-9.374364 59.08817,-8.14721 85.29294,2.92441 87.27595,36.87443 156.0883,115.74789 204.99794,196.89381 35.88845,59.54248 54.18563,131.04052 57.49767,200.48343 z"
   inkscape:path-effect="#path-effect1305" /></svg>
