<?xml version="1.0" encoding="UTF-8" standalone="no"?>
<svg
   xmlns:dc="http://purl.org/dc/elements/1.1/"
   xmlns:cc="http://creativecommons.org/ns#"
   xmlns:rdf="http://www.w3.org/1999/02/22-rdf-syntax-ns#"
   xmlns:svg="http://www.w3.org/2000/svg"
   xmlns="http://www.w3.org/2000/svg"
   xmlns:sodipodi="http://sodipodi.sourceforge.net/DTD/sodipodi-0.dtd"
   xmlns:inkscape="http://www.inkscape.org/namespaces/inkscape"
   xml:space="preserve"
   width="1000"
   height="1000"
   version="1.1"
   style="clip-rule:evenodd;fill-rule:evenodd;image-rendering:optimizeQuality;shape-rendering:geometricPrecision;text-rendering:geometricPrecision"
   viewBox="0 0 1000 1000"
   id="svg10"
   sodipodi:docname="രു.svg"
   inkscape:version="1.0.2 (e86c870879, 2021-01-15)"><metadata
   id="metadata14"><rdf:RDF><cc:Work
       rdf:about=""><dc:format>image/svg+xml</dc:format><dc:type
         rdf:resource="http://purl.org/dc/dcmitype/StillImage" /><dc:title /></cc:Work></rdf:RDF></metadata><sodipodi:namedview
   pagecolor="#ffffff"
   bordercolor="#666666"
   borderopacity="1"
   objecttolerance="10"
   gridtolerance="10"
   guidetolerance="10"
   inkscape:pageopacity="0"
   inkscape:pageshadow="2"
   inkscape:window-width="1920"
   inkscape:window-height="1007"
   id="namedview12"
   showgrid="false"
   inkscape:zoom="0.6002692"
   inkscape:cx="300.73619"
   inkscape:cy="685.91549"
   inkscape:window-x="1920"
   inkscape:window-y="0"
   inkscape:window-maximized="1"
   inkscape:current-layer="svg10"
   showguides="true"
   inkscape:guide-bbox="true"
   inkscape:document-rotation="0"><sodipodi:guide
   position="0,1000"
   orientation="0,1"
   id="guide16"
   inkscape:label=""
   inkscape:locked="true"
   inkscape:color="rgb(0,0,255)" /><sodipodi:guide
   position="1763.3122,2036.1693"
   orientation="1000,0"
   id="guide18" /><sodipodi:guide
   position="0,200"
   orientation="0,1"
   id="guide20"
   inkscape:label="base"
   inkscape:locked="true"
   inkscape:color="rgb(0,0,255)" /><inkscape:grid
   type="xygrid"
   id="grid24"
   originx="-473.37552"
   originy="-489.69235" /><sodipodi:guide
   position="0,0"
   orientation="0,1"
   id="guide34"
   inkscape:label="bottom"
   inkscape:locked="true"
   inkscape:color="rgb(0,0,255)" /><sodipodi:guide
   position="225.05109,1693.3186"
   orientation="0,1"
   id="guide44"
   inkscape:label=""
   inkscape:locked="false"
   inkscape:color="rgb(0,0,255)" /><sodipodi:guide
   position="0,900"
   orientation="0,1"
   id="guide46"
   inkscape:label=""
   inkscape:locked="true"
   inkscape:color="rgb(0,0,255)" /><sodipodi:guide
   position="668.35654,561.91957"
   orientation="1,0"
   id="guide841"
   inkscape:label="width" />    </sodipodi:namedview>
 <defs
   id="defs4"><inkscape:path-effect
   effect="fillet_chamfer"
   id="path-effect849"
   is_visible="true"
   lpeversion="1"
   satellites_param="F,0,0,1,0,0,0,1 @ F,0,0,1,0,0,0,1 @ F,0,0,1,0,0,0,1 @ F,0,0,1,0,0,0,1 @ F,0,0,1,0,0,0,1 @ F,0,0,1,0,0,0,1 @ F,0,0,1,0,0,0,1 @ F,0,0,1,0,0,0,1 @ F,0,0,1,0,0,0,1 @ F,0,0,1,0,0,0,1 @ F,0,0,1,0,0,0,1 @ F,0,0,1,0,0,0,1 @ F,0,0,1,0,0,0,1 @ F,0,0,1,0,0,0,1 @ F,0,0,1,0,0,0,1 @ F,0,0,1,0,0,0,1 @ F,0,0,1,0,0,0,1 @ F,0,0,1,0,0,0,1 @ F,0,0,1,0,0,0,1 @ F,0,0,1,0,0,0,1 @ F,0,0,1,0,0,0,1 @ F,0,0,1,0,0,0,1 @ F,0,0,1,0,0,0,1 @ F,0,1,1,0,25.123092,0,1 @ F,0,1,1,0,25.123092,0,1 @ F,0,0,1,0,0,0,1 @ F,0,0,1,0,0,0,1 @ F,0,0,1,0,0,0,1 @ F,0,0,1,0,0,0,1 @ F,0,1,1,0,25.123092,0,1 @ F,0,1,1,0,25.123092,0,1 @ F,0,0,1,0,0,0,1 @ F,0,0,1,0,0,0,1 @ F,0,0,1,0,0,0,1 @ F,0,0,1,0,0,0,1 @ F,0,0,1,0,0,0,1 @ F,0,0,1,0,0,0,1 @ F,0,0,1,0,0,0,1 @ F,0,0,1,0,0,0,1 @ F,0,0,1,0,0,0,1 @ F,0,0,1,0,0,0,1 @ F,0,0,1,0,0,0,1 @ F,0,0,1,0,0,0,1 @ F,0,0,1,0,0,0,1 @ F,0,0,1,0,0,0,1 @ F,0,0,1,0,0,0,1 @ F,0,0,1,0,0,0,1 @ F,0,0,1,0,0,0,1 @ F,0,0,1,0,0,0,1 @ F,0,0,1,0,0,0,1 @ F,0,0,1,0,0,0,1 @ F,0,0,1,0,0,0,1 @ F,0,0,1,0,0,0,1 @ F,0,1,1,0,25.123092,0,1 @ F,0,1,1,0,25.123092,0,1 @ F,0,0,1,0,0,0,1 @ F,0,0,1,0,0,0,1 @ F,0,0,1,0,0,0,1 @ F,0,0,1,0,0,0,1 @ F,0,0,1,0,0,0,1 @ F,0,0,1,0,0,0,1 @ F,0,0,1,0,0,0,1"
   unit="px"
   method="auto"
   mode="F"
   radius="0"
   chamfer_steps="1"
   flexible="false"
   use_knot_distance="true"
   apply_no_radius="true"
   apply_with_radius="true"
   only_selected="true"
   hide_knots="false" /><inkscape:path-effect
   effect="fillet_chamfer"
   id="path-effect848"
   is_visible="true"
   lpeversion="1"
   satellites_param="F,0,0,1,0,0,0,1 @ F,0,0,1,0,0,0,1 @ F,0,0,1,0,0,0,1 @ F,0,0,1,0,0,0,1 @ F,0,0,1,0,0,0,1 @ F,0,0,1,0,0,0,1 @ F,0,0,1,0,0,0,1 @ F,0,0,1,0,0,0,1 @ F,0,0,1,0,0,0,1 @ F,0,0,1,0,0,0,1 @ F,0,0,1,0,0,0,1 @ F,0,0,1,0,0,0,1 @ F,0,0,1,0,0,0,1 @ F,0,0,1,0,0,0,1 @ F,0,0,1,0,0,0,1 @ F,0,0,1,0,0,0,1 @ F,0,0,1,0,0,0,1 @ F,0,0,1,0,0,0,1 @ F,0,0,1,0,0,0,1 @ F,0,0,1,0,0,0,1 @ F,0,0,1,0,0,0,1 @ F,0,0,1,0,40.773687,0,1 @ F,0,0,1,0,32.275252,0,1 @ F,0,0,1,0,0,0,1 @ F,0,0,1,0,0,0,1 @ F,0,0,1,0,0,0,1 @ F,0,0,1,0,0,0,1 @ F,0,0,1,0,0,0,1 @ F,0,0,1,0,0,0,1 @ F,0,0,1,0,19.272168,0,1 @ F,0,0,1,0,29.459868,0,1 @ F,0,0,1,0,0,0,1 @ F,0,0,1,0,0,0,1 @ F,0,0,1,0,0,0,1 @ F,0,0,1,0,0,0,1 @ F,0,0,1,0,0,0,1 @ F,0,0,1,0,0,0,1 @ F,0,0,1,0,0,0,1 @ F,0,0,1,0,0,0,1 @ F,0,0,1,0,0,0,1 @ F,0,0,1,0,0,0,1 @ F,0,0,1,0,0,0,1 @ F,0,0,1,0,0,0,1 @ F,0,0,1,0,0,0,1 @ F,0,0,1,0,0,0,1 @ F,0,0,1,0,0,0,1 @ F,0,0,1,0,0,0,1 @ F,0,0,1,0,0,0,1 @ F,0,0,1,0,0,0,1 @ F,0,0,1,0,0,0,1 @ F,0,0,1,0,0,0,1 @ F,0,0,1,0,0,0,1 @ F,0,0,1,0,0,0,1 @ F,0,0,1,0,38.198757,0,1 @ F,0,0,1,0,34.646419,0,1 @ F,0,0,1,0,0,0,1 @ F,0,0,1,0,0,0,1 @ F,0,0,1,0,0,0,1 @ F,0,0,1,0,0,0,1 @ F,0,0,1,0,0,0,1 @ F,0,0,1,0,0,0,1 @ F,0,0,1,0,0,0,1"
   unit="px"
   method="auto"
   mode="F"
   radius="0"
   chamfer_steps="1"
   flexible="false"
   use_knot_distance="true"
   apply_no_radius="true"
   apply_with_radius="true"
   only_selected="true"
   hide_knots="false" /><inkscape:path-effect
   effect="spiro"
   id="path-effect851"
   is_visible="true"
   lpeversion="1" />
  <style
   type="text/css"
   id="style2">
   <![CDATA[
    .fil0 {fill:#EF7F1A;fill-rule:nonzero}
   ]]>
  </style>
 <inkscape:path-effect
   effect="spiro"
   id="path-effect1214"
   is_visible="true"
   lpeversion="1" /><inkscape:path-effect
   effect="spiro"
   id="path-effect1195"
   is_visible="true"
   lpeversion="1" /><inkscape:path-effect
   effect="spiro"
   id="path-effect992"
   is_visible="true"
   lpeversion="1" /><inkscape:path-effect
   effect="spiro"
   id="path-effect1060"
   is_visible="true"
   lpeversion="1" /><inkscape:path-effect
   effect="spiro"
   id="path-effect1047"
   is_visible="true"
   lpeversion="1" /><inkscape:path-effect
   effect="spiro"
   id="path-effect1085"
   is_visible="true"
   lpeversion="1" /><inkscape:path-effect
   effect="spiro"
   id="path-effect1286"
   is_visible="true"
   lpeversion="1" /><inkscape:path-effect
   effect="spiro"
   id="path-effect1305"
   is_visible="true"
   lpeversion="1" /></defs>
 
<path
   id="path1210-6"
   style="display:inline;fill:#1a1a1a;fill-rule:nonzero;stroke:none;stroke-width:2.22142px;stroke-linecap:butt;stroke-linejoin:miter;stroke-opacity:1"
   d="m 400.17114,447.66425 c 9.50444,39.28492 14.29721,80.0482 10.02037,120.23959 -4.27684,40.19139 -17.97079,79.87246 -42.70567,111.83846 -10.59107,13.68732 -23.20299,25.93844 -37.87936,35.11001 -14.67638,9.17156 -31.47575,15.19395 -48.75089,16.23459 -15.86605,0.95576 -31.89082,-2.31261 -46.39445,-8.81569 -14.50363,-6.50307 -27.49826,-16.19026 -38.36307,-27.79203 -21.72963,-23.20353 -34.64053,-53.56802 -41.39743,-84.63126 -8.46933,-38.93573 -7.83202,-79.44253 -2.14076,-118.8802 8.73894,-60.55659 29.2653,-119.09953 57.24798,-173.50945 29.96501,-58.26438 68.79549,-112.34967 117.26062,-156.43789 20.35645,-18.51805 42.5748,-35.36344 67.60111,-46.8084 25.02631,-11.44496 53.09996,-17.282049 80.33056,-13.30745 30.59448,4.46559 58.57936,21.13926 80.22427,43.21779 21.64491,22.07853 37.37336,49.34224 49.73121,77.68386 12.10266,27.75636 21.21795,56.97955 24.85224,87.04085 3.63429,30.06129 1.67356,61.01731 -7.81965,89.77089 -11.28572,34.18284 -33.28862,64.74121 -62.12774,86.2851 23.2401,6.27613 44.84832,18.49849 62.20104,35.18307 17.35273,16.68458 30.41367,37.79648 37.59702,60.77238 7.96271,25.46868 8.67808,52.92187 3.9457,79.1833 -4.73239,26.26143 -14.7881,51.38324 -27.79783,74.68142 -22.02887,39.44991 -52.26037,73.57946 -78.9079,110.06885 -9.8807,13.52999 -19.28389,27.40868 -28.18682,41.60117 -7.37282,11.7533 -21.43241,14.10049 -31.86817,4.95646 l -85.35855,-74.79294 c -10.43576,-9.14403 -7.69564,-17.90838 5.80707,-21.07655 31.99354,-7.5067 62.53983,-21.19475 89.37105,-40.1756 24.70268,-17.47508 46.83311,-40.27779 57.10714,-68.73908 8.45511,-23.4225 8.18643,-50.0775 -1.73714,-72.91661 -9.42524,-21.69219 -27.45271,-39.50506 -49.25622,-48.66984 -14.07917,-5.91798 -29.63292,-8.18801 -44.83474,-6.7801 -13.77327,1.2756 -23.47932,-5.56672 -22.34194,-19.39512 l 3.9759,-48.33936 c 1.13738,-13.8284 13.31075,-26.96096 25.97706,-32.55364 13.77592,-6.08261 26.35149,-14.89601 36.6763,-25.86161 16.06698,-17.06415 26.6038,-39.25543 29.67212,-62.49157 2.9072,-22.01597 -0.89519,-44.90545 -10.96955,-64.6959 -10.07435,-19.79045 -26.40543,-36.37527 -46.14408,-46.55075 -27.45291,-14.15227 -60.58175,-15.45035 -90.15346,-6.53616 -28.05702,8.4576 -52.90667,25.48478 -74.32632,45.48294 -38.09269,35.56471 -66.49,81.11513 -83.32076,130.4368 -12.12464,35.53064 -18.36366,73.14404 -17.45027,110.67534 0.44499,18.28473 2.7054,36.97092 10.94099,53.30201 4.1178,8.16555 9.72227,15.64223 16.78487,21.45189 7.0626,5.80965 15.61482,9.90898 24.66565,11.21848 9.79418,1.41705 19.94735,-0.47585 28.86623,-4.76392 8.91888,-4.28807 16.62547,-10.90244 22.73885,-18.6845 12.22677,-15.56412 17.94001,-35.28016 21.04713,-54.82707 6.36048,-40.01385 2.80684,-81.43574 -9.17604,-120.13942 -12.31591,-39.77936 -33.6447,-76.93627 -62.96796,-106.50358 -13.907,-14.02274 -29.78509,-26.45027 -48.01564,-34.04558 -18.23056,-7.59532 -39.01836,-10.07502 -57.91601,-4.33738 -20.57624,6.24729 -37.4791,21.79416 -48.61332,40.19088 -11.13422,18.39672 -16.98343,39.52788 -20.651539,60.71644 -8.581971,49.57315 -5.844253,100.48652 1.093449,150.31638 12.33766,88.6149 38.39033,176.37605 85.91382,252.18064 9.59616,15.30681 20.03806,30.08326 31.26006,44.24133 8.61777,10.87247 4.85483,19.4268 -9.0191,19.6065 L 40.209994,850.44671 C 26.336057,850.62641 19.044324,840.23401 23.212921,827.00133 34.730694,790.43962 42.21576,752.60733 45.465956,714.41195 55.848765,592.39611 23.223624,471.30487 11.101344,349.44956 8.0903968,319.18298 6.3452775,288.65435 9.101251,258.36349 11.73813,229.3816 18.69858,200.31197 33.681,175.36343 c 14.98242,-24.94855 38.659403,-45.48846 66.87972,-52.59596 26.01747,-6.5527 53.99884,-1.32073 78.23282,10.19277 24.23398,11.51351 45.1646,28.9441 64.5586,47.48377 75.67781,72.34407 132.20006,165.46218 156.819,267.22024 z"
   sodipodi:nodetypes="aaacaaaaaacaaaccaaaccaaaaaaaaaaaaaaccaacaaa"
   inkscape:original-d="m 400.17114,447.66425 c 15.16744,76.63629 13.29086,165.82562 -32.6853,232.07805 -18.26618,26.32183 -52.22679,54.99263 -86.63025,51.3446 -61.30481,-6.50064 -117.08592,-57.90829 -126.15495,-121.23898 -4.96717,-37.47677 -8.07697,-79.69412 -2.14076,-118.8802 9.12202,-60.21624 29.07231,-119.51558 57.24798,-173.50945 30.14907,-57.77559 65.64937,-116.64764 117.26062,-156.43789 42.15346,-32.49866 95.5809,-69.732217 147.93167,-60.11585 58.19246,10.68943 103.75484,67.85306 129.95548,120.90165 26.22012,53.08803 32.48329,119.6531 17.03259,176.81174 -9.24839,34.21367 -62.12774,86.2851 -62.12774,86.2851 0,0 85.03558,52.23192 99.79806,95.95545 16.60263,49.17367 -4.22156,105.81955 -23.85213,153.86472 -17.07481,41.79004 -53.42056,72.80825 -78.9079,110.06885 -14.18029,20.73052 -41.15937,63.11436 -41.15937,63.11436 L 392.58935,800 c 0,0 80.9666,-20.78412 114.07374,-44.69542 24.14886,-17.44127 47.32183,-40.60346 57.10714,-68.73908 7.98642,-22.96326 11.95759,-52.82809 -1.73714,-72.91661 -24.13368,-35.4012 -118.49231,-49.80652 -118.49231,-49.80652 l 8.09472,-98.41644 c 0,0 84.11944,-52.40864 90.26607,-95.86828 5.83736,-41.27295 -22.34834,-88.24869 -57.11363,-111.24665 -25.12922,-16.6235 -60.87551,-13.65096 -90.15346,-6.53616 -28.2247,6.85885 -53.59037,25.14337 -74.32632,45.48294 -36.83176,36.1277 -65.02942,82.19556 -83.32076,130.4368 -13.24099,34.92154 -24.7038,74.03896 -17.45027,110.67534 6.51782,32.92041 19.00117,82.60775 52.39151,85.97238 35.41931,3.56908 60.91608,-44.66702 72.65221,-78.27549 13.24094,-37.91772 2.88802,-81.83102 -9.17604,-120.13942 -12.38808,-39.33728 -31.21919,-80.18054 -62.96796,-106.50358 -28.91214,-23.97118 -70.17413,-49.86901 -105.93165,-38.38296 -38.84272,12.47708 -57.40741,62.89226 -69.264859,100.90732 -15.054426,48.26456 -7.275693,100.91347 1.093449,150.31638 14.83269,87.55708 44.55064,173.59732 85.91382,252.18064 12.30203,23.37186 23.7445,44.51166 47.36194,63.52245 L 15.089009,850.77209 C 38.470306,818.89798 42.550212,760.88814 45.465956,714.41195 53.116802,592.45947 18.174595,471.4369 11.101344,349.44956 9.343376,319.13114 4.4873781,288.44985 9.101251,258.36349 c 9.097523,-58.08133 39.32324,-119.65364 91.459469,-135.59602 49.08956,-15.01076 103.9289,24.13831 142.79142,57.67654 78.18861,67.47652 136.76752,165.90648 156.819,267.22024 z"
   inkscape:path-effect="#path-effect1305;#path-effect849" /></svg>
