<?xml version="1.0" encoding="UTF-8" standalone="no"?>
<svg
   xml:space="preserve"
   width="1000"
   height="1000"
   version="1.1"
   style="clip-rule:evenodd;fill-rule:evenodd;image-rendering:optimizeQuality;shape-rendering:geometricPrecision;text-rendering:geometricPrecision"
   viewBox="0 0 1000 1000"
   id="svg10"
   sodipodi:docname="രൂ.svg"
   inkscape:version="1.1.2 (0a00cf5339, 2022-02-04)"
   xmlns:inkscape="http://www.inkscape.org/namespaces/inkscape"
   xmlns:sodipodi="http://sodipodi.sourceforge.net/DTD/sodipodi-0.dtd"
   xmlns="http://www.w3.org/2000/svg"
   xmlns:svg="http://www.w3.org/2000/svg"
   xmlns:rdf="http://www.w3.org/1999/02/22-rdf-syntax-ns#"
   xmlns:cc="http://creativecommons.org/ns#"
   xmlns:dc="http://purl.org/dc/elements/1.1/"><metadata
   id="metadata14"><rdf:RDF><cc:Work
       rdf:about=""><dc:format>image/svg+xml</dc:format><dc:type
         rdf:resource="http://purl.org/dc/dcmitype/StillImage" /></cc:Work></rdf:RDF></metadata><sodipodi:namedview
   pagecolor="#ffffff"
   bordercolor="#666666"
   borderopacity="1"
   objecttolerance="10"
   gridtolerance="10"
   guidetolerance="10"
   inkscape:pageopacity="0"
   inkscape:pageshadow="2"
   inkscape:window-width="1920"
   inkscape:window-height="1009"
   id="namedview12"
   showgrid="false"
   inkscape:zoom="0.84890884"
   inkscape:cx="516.54545"
   inkscape:cy="713.85757"
   inkscape:window-x="0"
   inkscape:window-y="0"
   inkscape:window-maximized="1"
   inkscape:current-layer="svg10"
   showguides="true"
   inkscape:guide-bbox="true"
   inkscape:document-rotation="0"
   inkscape:pagecheckerboard="0"><sodipodi:guide
   position="0,1000"
   orientation="0,1"
   id="guide16"
   inkscape:label=""
   inkscape:locked="true"
   inkscape:color="rgb(0,0,255)" /><sodipodi:guide
   position="1763.3122,2036.1693"
   orientation="1000,0"
   id="guide18" /><sodipodi:guide
   position="0,200"
   orientation="0,1"
   id="guide20"
   inkscape:label="base"
   inkscape:locked="true"
   inkscape:color="rgb(0,0,255)" /><inkscape:grid
   type="xygrid"
   id="grid24"
   originx="-473.37552"
   originy="-489.69235" /><sodipodi:guide
   position="0,0"
   orientation="0,1"
   id="guide34"
   inkscape:label="bottom"
   inkscape:locked="true"
   inkscape:color="rgb(0,0,255)" /><sodipodi:guide
   position="225.05109,1693.3186"
   orientation="0,1"
   id="guide44"
   inkscape:label=""
   inkscape:locked="false"
   inkscape:color="rgb(0,0,255)" /><sodipodi:guide
   position="0,900"
   orientation="0,1"
   id="guide46"
   inkscape:label=""
   inkscape:locked="true"
   inkscape:color="rgb(0,0,255)" /><sodipodi:guide
   position="914.49973,542.71444"
   orientation="1,0"
   id="guide841"
   inkscape:label="width" />    </sodipodi:namedview>
 <defs
   id="defs4"><inkscape:path-effect
   effect="fillet_chamfer"
   id="path-effect3460"
   is_visible="true"
   lpeversion="1"
   satellites_param="F,0,0,1,0,0,0,1 @ F,0,0,1,0,0,0,1 @ F,0,0,1,0,0,0,1 @ F,0,0,1,0,0,0,1 @ F,0,0,1,0,0,0,1 @ F,0,0,1,0,0,0,1 @ F,0,0,1,0,0,0,1 @ F,0,0,1,0,0,0,1 @ F,0,0,1,0,0,0,1 @ F,0,0,1,0,0,0,1 @ F,0,0,1,0,0,0,1 @ F,0,0,1,0,0,0,1 @ F,0,0,1,0,0,0,1 @ F,0,0,1,0,0,0,1 @ F,0,0,1,0,0,0,1 @ F,0,0,1,0,0,0,1 @ F,0,0,1,0,0,0,1 @ F,0,0,1,0,0,0,1 @ F,0,0,1,0,0,0,1 @ F,0,0,1,0,0,0,1 @ F,0,0,1,0,0,0,1 @ F,0,0,1,0,0,0,1 @ F,0,0,1,0,0,0,1 @ F,0,0,1,0,0,0,1 @ F,0,0,1,0,0,0,1 @ F,0,0,1,0,0,0,1 @ F,0,0,1,0,0,0,1 @ F,0,0,1,0,0,0,1 @ F,0,0,1,0,0,0,1 @ F,0,1,1,0,16.626509,0,1 @ F,0,1,1,0,16.626509,0,1 @ F,0,0,1,0,0,0,1 @ F,0,0,1,0,0,0,1 @ F,0,0,1,0,0,0,1 @ F,0,0,1,0,0,0,1 @ F,0,0,1,0,0,0,1 @ F,0,0,1,0,0,0,1 @ F,0,0,1,0,0,0,1 @ F,0,0,1,0,0,0,1 @ F,0,0,1,0,0,0,1 @ F,0,0,1,0,0,0,1 @ F,0,0,1,0,16.626509,0,1 @ F,0,1,1,0,16.626509,0,1 @ F,0,0,1,0,0,0,1 @ F,0,0,1,0,0,0,1 @ F,0,0,1,0,0,0,1 @ F,0,0,1,0,0,0,1 @ F,0,0,1,0,0,0,1 @ F,0,0,1,0,0,0,1 @ F,0,0,1,0,0,0,1 @ F,0,0,1,0,0,0,1 @ F,0,0,1,0,0,0,1 @ F,0,0,1,0,0,0,1 @ F,0,0,1,0,0,0,1 @ F,0,0,1,0,0,0,1 @ F,0,0,1,0,0,0,1 @ F,0,0,1,0,0,0,1 @ F,0,0,1,0,0,0,1 @ F,0,0,1,0,0,0,1 @ F,0,0,1,0,0,0,1 @ F,0,0,1,0,0,0,1 @ F,0,0,1,0,0,0,1 @ F,0,0,1,0,0,0,1 @ F,0,0,1,0,0,0,1 @ F,0,1,1,0,16.626509,0,1 @ F,0,1,1,0,16.626509,0,1 @ F,0,0,1,0,0,0,1 @ F,0,0,1,0,0,0,1 @ F,0,0,1,0,0,0,1 @ F,0,0,1,0,0,0,1 @ F,0,0,1,0,0,0,1 @ F,0,0,1,0,0,0,1 @ F,0,0,1,0,0,0,1"
   unit="px"
   method="auto"
   mode="F"
   radius="0"
   chamfer_steps="1"
   flexible="false"
   use_knot_distance="true"
   apply_no_radius="true"
   apply_with_radius="true"
   only_selected="false"
   hide_knots="false" /><inkscape:path-effect
   effect="fillet_chamfer"
   id="path-effect849"
   is_visible="true"
   lpeversion="1"
   satellites_param="F,0,0,1,0,0,0,1 @ F,0,0,1,0,0,0,1 @ F,0,0,1,0,0,0,1 @ F,0,0,1,0,0,0,1 @ F,0,0,1,0,0,0,1 @ F,0,0,1,0,0,0,1 @ F,0,0,1,0,0,0,1 @ F,0,0,1,0,0,0,1 @ F,0,0,1,0,0,0,1 @ F,0,0,1,0,0,0,1 @ F,0,0,1,0,0,0,1 @ F,0,0,1,0,0,0,1 @ F,0,0,1,0,0,0,1 @ F,0,0,1,0,0,0,1 @ F,0,0,1,0,0,0,1 @ F,0,0,1,0,0,0,1 @ F,0,0,1,0,0,0,1 @ F,0,0,1,0,0,0,1 @ F,0,0,1,0,0,0,1 @ F,0,0,1,0,0,0,1 @ F,0,0,1,0,0,0,1 @ F,0,0,1,0,0,0,1 @ F,0,0,1,0,0,0,1 @ F,0,0,1,0,0,0,1 @ F,0,0,1,0,0,0,1 @ F,0,0,1,0,0,0,1 @ F,0,0,1,0,0,0,1 @ F,0,0,1,0,0,0,1 @ F,0,0,1,0,0,0,1 @ F,0,1,1,0,18.991682,0,1 @ F,0,1,1,0,18.991682,0,1 @ F,0,0,1,0,0,0,1 @ F,0,0,1,0,0,0,1 @ F,0,0,1,0,0,0,1 @ F,0,0,1,0,0,0,1 @ F,0,0,1,0,0,0,1 @ F,0,0,1,0,0,0,1 @ F,0,0,1,0,0,0,1 @ F,0,0,1,0,0,0,1 @ F,0,0,1,0,0,0,1 @ F,0,0,1,0,0,0,1 @ F,0,1,1,0,18.991682,0,1 @ F,0,1,1,0,18.991682,0,1 @ F,0,0,1,0,0,0,1 @ F,0,0,1,0,0,0,1 @ F,0,0,1,0,0,0,1 @ F,0,0,1,0,0,0,1 @ F,0,0,1,0,0,0,1 @ F,0,0,1,0,0,0,1 @ F,0,0,1,0,0,0,1 @ F,0,0,1,0,0,0,1 @ F,0,0,1,0,0,0,1 @ F,0,0,1,0,0,0,1 @ F,0,0,1,0,0,0,1 @ F,0,0,1,0,0,0,1 @ F,0,0,1,0,0,0,1 @ F,0,0,1,0,0,0,1 @ F,0,0,1,0,0,0,1 @ F,0,0,1,0,0,0,1 @ F,0,0,1,0,0,0,1 @ F,0,0,1,0,0,0,1 @ F,0,0,1,0,0,0,1 @ F,0,0,1,0,0,0,1 @ F,0,0,1,0,0,0,1 @ F,0,1,1,0,18.991682,0,1 @ F,0,1,1,0,18.991682,0,1 @ F,0,0,1,0,0,0,1 @ F,0,0,1,0,0,0,1 @ F,0,0,1,0,0,0,1 @ F,0,0,1,0,0,0,1 @ F,0,0,1,0,0,0,1 @ F,0,0,1,0,0,0,1 @ F,0,0,1,0,0,0,1"
   unit="px"
   method="auto"
   mode="F"
   radius="0"
   chamfer_steps="1"
   flexible="false"
   use_knot_distance="true"
   apply_no_radius="true"
   apply_with_radius="true"
   only_selected="true"
   hide_knots="false" /><inkscape:path-effect
   effect="fillet_chamfer"
   id="path-effect848"
   is_visible="true"
   lpeversion="1"
   satellites_param="F,0,0,1,0,0,0,1 @ F,0,0,1,0,0,0,1 @ F,0,0,1,0,0,0,1 @ F,0,0,1,0,0,0,1 @ F,0,0,1,0,0,0,1 @ F,0,0,1,0,0,0,1 @ F,0,0,1,0,0,0,1 @ F,0,0,1,0,0,0,1 @ F,0,0,1,0,0,0,1 @ F,0,0,1,0,0,0,1 @ F,0,0,1,0,0,0,1 @ F,0,0,1,0,0,0,1 @ F,0,0,1,0,0,0,1 @ F,0,0,1,0,0,0,1 @ F,0,0,1,0,0,0,1 @ F,0,0,1,0,0,0,1 @ F,0,0,1,0,0,0,1 @ F,0,0,1,0,0,0,1 @ F,0,0,1,0,0,0,1 @ F,0,0,1,0,0,0,1 @ F,0,0,1,0,0,0,1 @ F,0,0,1,0,0,0,1 @ F,0,0,1,0,0,0,1 @ F,0,0,1,0,0,0,1 @ F,0,0,1,0,0,0,1 @ F,0,0,1,0,0,0,1 @ F,0,0,1,0,0,0,1 @ F,0,0,1,0,46.443255,0,1 @ F,0,0,1,0,33.074284,0,1 @ F,0,0,1,0,0,0,1 @ F,0,0,1,0,0,0,1 @ F,0,0,1,0,0,0,1 @ F,0,0,1,0,0,0,1 @ F,0,0,1,0,0,0,1 @ F,0,0,1,0,0,0,1 @ F,0,0,1,0,0,0,1 @ F,0,0,1,0,0,0,1 @ F,0,0,1,0,0,0,1 @ F,0,0,1,0,33.244887,0,1 @ F,0,0,1,0,31.167741,0,1 @ F,0,0,1,0,0,0,1 @ F,0,0,1,0,0,0,1 @ F,0,0,1,0,0,0,1 @ F,0,0,1,0,0,0,1 @ F,0,0,1,0,0,0,1 @ F,0,0,1,0,0,0,1 @ F,0,0,1,0,0,0,1 @ F,0,0,1,0,0,0,1 @ F,0,0,1,0,0,0,1 @ F,0,0,1,0,0,0,1 @ F,0,0,1,0,0,0,1 @ F,0,0,1,0,0,0,1 @ F,0,0,1,0,0,0,1 @ F,0,0,1,0,0,0,1 @ F,0,0,1,0,0,0,1 @ F,0,0,1,0,0,0,1 @ F,0,0,1,0,0,0,1 @ F,0,0,1,0,0,0,1 @ F,0,0,1,0,0,0,1 @ F,0,0,1,0,0,0,1 @ F,0,0,1,0,0,0,1 @ F,0,0,1,0,0,0,1 @ F,0,0,1,0,47.202228,0,1 @ F,0,0,1,0,33.858216,0,1 @ F,0,0,1,0,0,0,1 @ F,0,0,1,0,0,0,1 @ F,0,0,1,0,0,0,1 @ F,0,0,1,0,0,0,1 @ F,0,0,1,0,0,0,1 @ F,0,0,1,0,0,0,1 @ F,0,0,1,0,0,0,1"
   unit="px"
   method="auto"
   mode="F"
   radius="0"
   chamfer_steps="1"
   flexible="false"
   use_knot_distance="true"
   apply_no_radius="true"
   apply_with_radius="true"
   only_selected="true"
   hide_knots="false" /><inkscape:path-effect
   effect="spiro"
   id="path-effect851"
   is_visible="true"
   lpeversion="1" />
  <style
   type="text/css"
   id="style2">
   
    .fil0 {fill:#EF7F1A;fill-rule:nonzero}
   
  </style>
 <inkscape:path-effect
   effect="spiro"
   id="path-effect1214"
   is_visible="true"
   lpeversion="1" /><inkscape:path-effect
   effect="spiro"
   id="path-effect1195"
   is_visible="true"
   lpeversion="1" /><inkscape:path-effect
   effect="spiro"
   id="path-effect992"
   is_visible="true"
   lpeversion="1" /><inkscape:path-effect
   effect="spiro"
   id="path-effect1060"
   is_visible="true"
   lpeversion="1" /><inkscape:path-effect
   effect="spiro"
   id="path-effect1047"
   is_visible="true"
   lpeversion="1" /><inkscape:path-effect
   effect="spiro"
   id="path-effect1085"
   is_visible="true"
   lpeversion="1" /><inkscape:path-effect
   effect="spiro"
   id="path-effect1286"
   is_visible="true"
   lpeversion="1" /><inkscape:path-effect
   effect="spiro"
   id="path-effect1305"
   is_visible="true"
   lpeversion="1" /></defs>
 
<path
   id="path1210-6"
   style="display:inline;fill:#1a5fb4;fill-rule:nonzero;stroke:none;stroke-width:2.22142px;stroke-linecap:butt;stroke-linejoin:miter;stroke-opacity:1"
   d="m 615.20239,454.73068 c 5.18043,38.97699 6.68522,78.72771 0.31703,117.52834 -6.36819,38.80064 -20.90373,76.73169 -45.40643,107.48328 -10.75968,13.5037 -23.43837,25.59722 -38.08955,34.73305 -14.65118,9.13583 -31.32803,15.25337 -48.5407,16.61155 -16.01079,1.26335 -32.27101,-1.62121 -47.0795,-7.83812 -14.8085,-6.2169 -28.16821,-15.72257 -39.28076,-27.31794 -22.2251,-23.19075 -35.09365,-54.30768 -39.79469,-86.08292 -5.53148,-37.38834 -0.34942,-75.47733 5.98385,-112.73824 7.64176,-44.9592 17.02924,-89.85836 33.24589,-132.48167 29.99583,-78.84004 82.82675,-147.79586 146.07663,-203.60763 16.12481,-14.22856 33.0404,-27.72899 51.7718,-38.2929 18.7314,-10.56391 39.40866,-18.14655 60.84287,-19.88901 28.79195,-2.3406 57.88197,6.05856 82.69358,20.85176 36.66315,21.85934 64.10737,57.03533 82.27648,95.66046 27.9096,59.33212 34.92506,129.20173 14.44858,191.49106 -22.65968,68.93061 -79.29064,125.77283 -148.1364,148.68902 L 675.17,496.65642 c 33.77912,-1.55378 67.88762,4.52909 99.04718,17.66396 38.66608,16.29913 72.90532,43.79248 95.20551,79.33722 17.55785,27.98582 27.50264,60.48318 30.18167,93.41199 2.67904,32.92882 -1.79063,66.27007 -11.54014,97.83637 -22.27835,72.13131 -73.05124,135.10135 -138.9896,171.86252 -63.17413,35.22008 -137.03164,46.03842 -209.29256,49.16642 -60.05274,2.5995 -120.62965,0.2798 -179.43287,-12.18096 C 301.54598,981.29313 244.42224,958.40859 196.23299,922.47969 135.00857,876.83205 90.1379,811.40077 62.119014,740.35797 34.100127,669.31518 22.242757,592.70896 19.34228,516.39563 15.883512,425.39332 24.92002,334.05296 44.156209,245.03975 53.605967,201.3121 65.510247,158.11506 79.792499,115.71906 82.724,107.01708 92.205837,102.54326 100.83585,105.68053 l 98.43948,35.78576 c 8.63001,3.13727 11.86439,12.10522 7.40863,20.1341 -52.25619,94.16098 -85.64828,198.75664 -97.53612,305.792 -10.953523,98.62296 -2.31248,203.63107 50.4704,287.65747 27.10962,43.15649 65.01711,79.15268 108.29152,106.07367 43.2744,26.921 91.82893,44.90214 141.7705,55.06353 56.50181,11.49617 115.24081,13.05878 171.86811,2.19758 56.6273,-10.8612 111.07892,-34.31968 156.43139,-69.92544 19.21566,-15.08602 36.86684,-32.41473 50.57948,-52.63336 13.71264,-20.21862 23.39899,-43.44566 26.03221,-67.73342 2.90533,-26.79766 -3.10053,-54.68382 -17.8403,-77.25138 -14.73976,-22.56756 -38.30967,-39.46655 -64.69202,-44.99169 -12.71707,-2.66328 -25.96869,-2.69468 -38.71355,-0.17853 -8.99745,1.77633 -16.90603,-2.77793 -18.07978,-11.88517 L 662.21006,492.48529 c -1.17375,-9.10724 5.34937,-17.17059 14.17557,-19.66478 21.7221,-6.13843 41.41289,-19.52169 54.8226,-37.70701 16.70142,-22.6493 23.40704,-52.40502 18.03492,-80.02872 -6.47156,-33.27708 -29.67044,-61.82308 -58.48768,-79.67838 -22.02146,-13.6446 -47.84114,-21.7288 -73.7265,-20.69541 -35.08176,1.40052 -67.8034,19.27634 -94.09366,42.54679 -39.06005,34.57344 -66.21833,81.15682 -83.32076,130.4368 -10.91244,31.44377 -17.97602,64.2924 -19.94386,97.51769 -1.2369,20.88399 -0.32795,42.4975 8.17207,61.61348 4.25001,9.55799 10.39918,18.35196 18.40277,25.08695 8.0036,6.73499 17.90644,11.34415 28.31026,12.4296 9.77312,1.01965 19.76914,-1.08871 28.57351,-5.45182 8.80436,-4.3631 16.43682,-10.92342 22.55092,-18.61571 12.22822,-15.38456 18.23939,-34.83271 21.52778,-54.20796 6.78311,-39.96615 2.92996,-81.45159 -9.17604,-120.13942 -12.43371,-39.73512 -33.6897,-76.90188 -62.96796,-106.50358 -13.89293,-14.04641 -29.76462,-26.49757 -47.99993,-34.09944 -18.23531,-7.60187 -39.04096,-10.06748 -57.93172,-4.28352 -20.54439,6.29027 -37.37741,21.88086 -48.48027,40.27559 -11.10285,18.39472 -16.9675,39.48772 -20.78459,60.63173 -8.94626,49.55603 -7.24834,100.65503 1.09345,150.31638 9.72645,57.90469 28.44681,114.23895 54.70625,166.75559 11.61236,23.22372 24.69362,45.71274 39.1374,67.28967 5.10789,7.63046 2.3323,15.92099 -6.42823,18.67282 l -137.29711,43.12735 c -8.76053,2.75183 -14.34843,-2.307 -12.71682,-11.34323 6.08329,-33.69062 9.73267,-67.82069 10.90609,-102.03606 4.19796,-122.40634 -23.16799,-243.4293 -35.54003,-365.28113 -3.07341,-30.26994 -5.22079,-60.83145 -2.00009,-91.08607 3.24898,-30.52026 12.1727,-60.82609 29.07862,-86.44311 14.88296,-22.5517 36.48635,-41.43562 62.38085,-49.15291 27.77639,-8.27815 57.91945,-3.17927 85.27409,6.40087 65.71276,23.01392 120.98409,71.36012 158.74951,129.8544 37.76541,58.49427 58.81757,126.68869 67.99092,195.70794 z"
   sodipodi:nodetypes="aaacaaaaaaaccaaaaaaaaccaaaaaaccaaaaaaaaaaaaaaccaaaaaaa"
   inkscape:original-d="m 615.20239,454.73068 c 15.59347,74.88872 -0.8445,162.61078 -45.0894,225.01162 -19.41561,27.38283 -52.22679,54.99263 -86.63025,51.3446 -61.30481,-6.50064 -117.08592,-57.90829 -126.15495,-121.23898 -4.96717,-37.47677 0.35944,-75.45418 5.98385,-112.73824 6.76613,-44.85243 14.09619,-91.17485 33.24589,-132.48167 35.1322,-75.78185 82.87659,-148.99155 146.07663,-203.60763 31.96883,-27.62676 70.64128,-53.33639 112.61467,-58.18191 28.23979,-3.260073 58.51433,5.90259 82.69358,20.85176 35.77351,22.11748 66.1768,56.80525 82.27648,95.66046 24.50318,59.13632 36.64521,131.45091 14.44858,191.49106 -24.26012,65.62167 -148.1364,148.68902 -148.1364,148.68902 L 675.17,496.65642 c 0,0 68.64241,3.51276 99.04718,17.66396 37.452,17.43117 75.88758,42.82263 95.20551,79.33722 29.95281,56.61655 37.04536,129.8977 18.64153,191.24836 -21.16952,70.57029 -76.5955,132.67973 -138.9896,171.86252 -60.68874,38.11183 -137.62973,49.43772 -209.29256,49.16642 C 421.93614,1005.4888 286.43221,998.32137 196.23299,922.47969 83.225459,827.46024 42.837675,662.16039 19.34228,516.39563 4.8883246,426.7237 27.581237,334.34396 44.156209,245.03975 53.325335,195.63747 85.209832,100 85.209832,100 l 129.691518,47.14682 c 0,0 -97.59539,208.1236 -105.75351,320.24557 -7.06466,97.09382 -3.3701,206.55062 50.4704,287.65747 54.84183,82.61529 152.5837,142.94679 250.06202,161.1372 109.84145,20.4975 236.31335,-4.29411 328.2995,-67.72786 39.15292,-26.9999 77.25459,-72.81121 76.61169,-120.36678 -0.6646,-49.16071 -38.22058,-100.94314 -82.53232,-122.24307 -16.47754,-7.92049 -54.66806,4.42642 -54.66806,4.42642 0,0 -22.50014,-114.25305 -17.30628,-134.2806 41.31142,-5.98022 89.10403,-70.83432 89.15836,-120.91039 0.0358,-32.94683 -31.40051,-60.92258 -58.48768,-79.67838 -20.98561,-14.53093 -48.27385,-22.62073 -73.7265,-20.69541 -34.32391,2.59637 -68.06814,20.01805 -94.09366,42.54679 -39.00773,33.76665 -63.94035,82.62269 -83.32076,130.4368 -12.46338,30.74887 -24.96634,64.7213 -19.94386,97.51769 5.71748,37.33472 17.39243,94.56159 54.8851,99.13003 35.33732,4.30582 60.91608,-44.66702 72.65221,-78.27549 13.24094,-37.91772 2.88802,-81.83102 -9.17604,-120.13942 C 525.64388,386.59011 506.81277,345.74685 475.064,319.42381 446.15186,295.45263 404.88987,269.5548 369.13235,281.04085 c -38.84272,12.47708 -57.40741,62.89226 -69.26486,100.90732 -15.05442,48.26456 -6.99515,100.86676 1.09345,150.31638 9.44349,57.7327 30.39194,113.5479 54.70625,166.75559 13.08257,28.62895 24.95408,61.96907 48.57152,80.97986 L 235.2169,833.09261 c 23.3813,-31.87411 13.63098,-78.63312 14.05162,-118.36192 1.29518,-122.32847 -28.26876,-243.16208 -35.54003,-365.28113 -1.80507,-30.31565 -6.61396,-60.99971 -2.00009,-91.08607 4.57159,-29.81062 10.91025,-61.11573 29.07862,-86.44311 14.96337,-20.85949 36.06632,-41.37397 62.38085,-49.15291 27.08294,-8.00609 60.51862,-7.73003 85.27409,6.40087 114.85218,65.55985 199.78205,196.09279 226.74043,325.56234 z"
   inkscape:path-effect="#path-effect1305;#path-effect3460" /></svg>
