<?xml version="1.0" encoding="UTF-8" standalone="no"?>
<svg
   xmlns:dc="http://purl.org/dc/elements/1.1/"
   xmlns:cc="http://creativecommons.org/ns#"
   xmlns:rdf="http://www.w3.org/1999/02/22-rdf-syntax-ns#"
   xmlns:svg="http://www.w3.org/2000/svg"
   xmlns="http://www.w3.org/2000/svg"
   xmlns:sodipodi="http://sodipodi.sourceforge.net/DTD/sodipodi-0.dtd"
   xmlns:inkscape="http://www.inkscape.org/namespaces/inkscape"
   xml:space="preserve"
   width="1000"
   height="1000"
   version="1.1"
   style="clip-rule:evenodd;fill-rule:evenodd;image-rendering:optimizeQuality;shape-rendering:geometricPrecision;text-rendering:geometricPrecision"
   viewBox="0 0 1000 1000"
   id="svg10"
   sodipodi:docname="രൂ.svg"
   inkscape:version="1.0.2 (e86c870879, 2021-01-15)"><metadata
   id="metadata14"><rdf:RDF><cc:Work
       rdf:about=""><dc:format>image/svg+xml</dc:format><dc:type
         rdf:resource="http://purl.org/dc/dcmitype/StillImage" /><dc:title /></cc:Work></rdf:RDF></metadata><sodipodi:namedview
   pagecolor="#ffffff"
   bordercolor="#666666"
   borderopacity="1"
   objecttolerance="10"
   gridtolerance="10"
   guidetolerance="10"
   inkscape:pageopacity="0"
   inkscape:pageshadow="2"
   inkscape:window-width="1920"
   inkscape:window-height="1007"
   id="namedview12"
   showgrid="false"
   inkscape:zoom="0.6002692"
   inkscape:cx="300.73619"
   inkscape:cy="685.91549"
   inkscape:window-x="1920"
   inkscape:window-y="0"
   inkscape:window-maximized="1"
   inkscape:current-layer="svg10"
   showguides="true"
   inkscape:guide-bbox="true"
   inkscape:document-rotation="0"><sodipodi:guide
   position="0,1000"
   orientation="0,1"
   id="guide16"
   inkscape:label=""
   inkscape:locked="true"
   inkscape:color="rgb(0,0,255)" /><sodipodi:guide
   position="1763.3122,2036.1693"
   orientation="1000,0"
   id="guide18" /><sodipodi:guide
   position="0,200"
   orientation="0,1"
   id="guide20"
   inkscape:label="base"
   inkscape:locked="true"
   inkscape:color="rgb(0,0,255)" /><inkscape:grid
   type="xygrid"
   id="grid24"
   originx="-473.37552"
   originy="-489.69235" /><sodipodi:guide
   position="0,0"
   orientation="0,1"
   id="guide34"
   inkscape:label="bottom"
   inkscape:locked="true"
   inkscape:color="rgb(0,0,255)" /><sodipodi:guide
   position="225.05109,1693.3186"
   orientation="0,1"
   id="guide44"
   inkscape:label=""
   inkscape:locked="false"
   inkscape:color="rgb(0,0,255)" /><sodipodi:guide
   position="0,900"
   orientation="0,1"
   id="guide46"
   inkscape:label=""
   inkscape:locked="true"
   inkscape:color="rgb(0,0,255)" /><sodipodi:guide
   position="842.68019,-61.590859"
   orientation="1,0"
   id="guide841"
   inkscape:label="width" />    </sodipodi:namedview>
 <defs
   id="defs4"><inkscape:path-effect
   effect="fillet_chamfer"
   id="path-effect848"
   is_visible="true"
   lpeversion="1"
   satellites_param="F,0,0,1,0,0,0,1 @ F,0,0,1,0,0,0,1 @ F,0,0,1,0,0,0,1 @ F,0,0,1,0,0,0,1 @ F,0,0,1,0,0,0,1 @ F,0,0,1,0,0,0,1 @ F,0,0,1,0,0,0,1 @ F,0,0,1,0,0,0,1 @ F,0,0,1,0,0,0,1 @ F,0,0,1,0,0,0,1 @ F,0,0,1,0,0,0,1 @ F,0,0,1,0,0,0,1 @ F,0,0,1,0,0,0,1 @ F,0,0,1,0,0,0,1 @ F,0,0,1,0,0,0,1 @ F,0,0,1,0,0,0,1 @ F,0,0,1,0,0,0,1 @ F,0,0,1,0,0,0,1 @ F,0,0,1,0,0,0,1 @ F,0,0,1,0,0,0,1 @ F,0,0,1,0,0,0,1 @ F,0,0,1,0,0,0,1 @ F,0,0,1,0,0,0,1 @ F,0,0,1,0,0,0,1 @ F,0,0,1,0,0,0,1 @ F,0,0,1,0,0,0,1 @ F,0,0,1,0,0,0,1 @ F,0,0,1,0,46.443255,0,1 @ F,0,0,1,0,33.074284,0,1 @ F,0,0,1,0,0,0,1 @ F,0,0,1,0,0,0,1 @ F,0,0,1,0,0,0,1 @ F,0,0,1,0,0,0,1 @ F,0,0,1,0,0,0,1 @ F,0,0,1,0,0,0,1 @ F,0,0,1,0,0,0,1 @ F,0,0,1,0,0,0,1 @ F,0,0,1,0,0,0,1 @ F,0,0,1,0,33.244887,0,1 @ F,0,0,1,0,31.167741,0,1 @ F,0,0,1,0,0,0,1 @ F,0,0,1,0,0,0,1 @ F,0,0,1,0,0,0,1 @ F,0,0,1,0,0,0,1 @ F,0,0,1,0,0,0,1 @ F,0,0,1,0,0,0,1 @ F,0,0,1,0,0,0,1 @ F,0,0,1,0,0,0,1 @ F,0,0,1,0,0,0,1 @ F,0,0,1,0,0,0,1 @ F,0,0,1,0,0,0,1 @ F,0,0,1,0,0,0,1 @ F,0,0,1,0,0,0,1 @ F,0,0,1,0,0,0,1 @ F,0,0,1,0,0,0,1 @ F,0,0,1,0,0,0,1 @ F,0,0,1,0,0,0,1 @ F,0,0,1,0,0,0,1 @ F,0,0,1,0,0,0,1 @ F,0,0,1,0,0,0,1 @ F,0,0,1,0,0,0,1 @ F,0,0,1,0,0,0,1 @ F,0,0,1,0,47.202228,0,1 @ F,0,0,1,0,33.858216,0,1 @ F,0,0,1,0,0,0,1 @ F,0,0,1,0,0,0,1 @ F,0,0,1,0,0,0,1 @ F,0,0,1,0,0,0,1 @ F,0,0,1,0,0,0,1 @ F,0,0,1,0,0,0,1 @ F,0,0,1,0,0,0,1"
   unit="px"
   method="auto"
   mode="F"
   radius="0"
   chamfer_steps="1"
   flexible="false"
   use_knot_distance="true"
   apply_no_radius="true"
   apply_with_radius="true"
   only_selected="true"
   hide_knots="false" /><inkscape:path-effect
   effect="spiro"
   id="path-effect851"
   is_visible="true"
   lpeversion="1" />
  <style
   type="text/css"
   id="style2">
   <![CDATA[
    .fil0 {fill:#EF7F1A;fill-rule:nonzero}
   ]]>
  </style>
 <inkscape:path-effect
   effect="spiro"
   id="path-effect1214"
   is_visible="true"
   lpeversion="1" /><inkscape:path-effect
   effect="spiro"
   id="path-effect1195"
   is_visible="true"
   lpeversion="1" /><inkscape:path-effect
   effect="spiro"
   id="path-effect992"
   is_visible="true"
   lpeversion="1" /><inkscape:path-effect
   effect="spiro"
   id="path-effect1060"
   is_visible="true"
   lpeversion="1" /><inkscape:path-effect
   effect="spiro"
   id="path-effect1047"
   is_visible="true"
   lpeversion="1" /><inkscape:path-effect
   effect="spiro"
   id="path-effect1085"
   is_visible="true"
   lpeversion="1" /><inkscape:path-effect
   effect="spiro"
   id="path-effect1286"
   is_visible="true"
   lpeversion="1" /><inkscape:path-effect
   effect="spiro"
   id="path-effect1305"
   is_visible="true"
   lpeversion="1" /></defs>
 
<path
   id="path1210-6"
   style="display:inline;fill:#1a1a1a;fill-rule:nonzero;stroke:none;stroke-width:2.22142px;stroke-linecap:butt;stroke-linejoin:miter;stroke-opacity:1"
   d="m 603.20239,454.73068 c 5.18024,38.97708 6.68551,78.72782 0.31759,117.52856 -6.36793,38.80073 -20.90349,76.73203 -45.40699,107.48306 -10.75994,13.50334 -23.43894,25.59631 -38.09013,34.73192 -14.65118,9.1356 -31.32767,15.25327 -48.54012,16.61268 -16.01147,1.26456 -32.27273,-1.61831 -47.08262,-7.8339 -14.80989,-6.21559 -28.17132,-15.72037 -39.28506,-27.31567 -22.22748,-23.19061 -35.09603,-54.31115 -39.78727,-86.08941 -5.51951,-37.38896 -0.31448,-75.47257 5.98385,-112.73824 7.60045,-44.97003 16.86874,-89.91573 33.24589,-132.48167 30.26353,-78.65813 83.97222,-146.63373 146.07663,-203.60763 16.07627,-14.7482 32.84515,-28.90689 51.52148,-40.18299 18.67633,-11.2761 39.40565,-19.63113 61.09319,-21.998916 28.8448,-3.149198 58.60286,4.678406 82.69358,20.851756 33.97485,22.80908 55.51584,60.53824 67.51567,99.66046 16.17657,52.73933 16.73706,110.57023 -0.97894,162.81256 -12.26952,36.18133 -33.15187,69.40997 -60.43051,96.15891 45.37612,34.07373 79.30922,83.12226 95.19442,137.5986 11.76968,40.36266 13.75735,83.2889 8.07975,124.94744 -8.17028,59.9482 -32.22063,117.53887 -68.32793,166.08579 -37.21352,50.03425 -86.98375,90.34774 -142.7315,118.28441 -55.74776,27.9367 -117.36137,43.6208 -179.57106,47.8901 -55.82723,3.8313 -112.51777,-1.5034 -165.89217,-18.3121 C 225.42574,1038.0077 175.43703,1009.54 135.59966,970.24189 84.00843,919.34902 50.897518,851.88403 32.547105,781.77696 14.196691,711.66989 9.8491276,638.6451 9.6215482,566.17658 9.2704688,454.3817 18.527548,342.58552 36.613243,232.26269 42.651414,195.42982 49.672128,158.75803 57.664833,122.29933 63.157412,97.244948 87.886916,83.472194 112.28159,91.397927 l 67.70333,21.996543 c 17.37252,5.64426 23.53705,22.73992 14.42542,38.57032 -54.19353,94.15501 -91.09403,198.24858 -108.174014,305.54046 -12.914487,81.12534 -14.418684,165.26035 7.466219,244.43835 21.884905,79.17801 68.823835,153.22476 137.977465,197.56302 53.70304,34.43202 117.91771,49.52165 181.58027,53.60327 55.6966,3.57089 112.52169,-1.00537 165.1124,-19.68907 52.5907,-18.68369 100.81487,-52.19927 131.63117,-98.73118 29.76537,-44.94502 42.01414,-99.70685 43.3926,-153.59684 0.58692,-22.94516 -0.84285,-46.58897 -10.42913,-67.44391 -9.07392,-19.7403 -25.40467,-36.04568 -45.15905,-45.08891 -9.67491,-4.42901 -20.13171,-7.09808 -30.7358,-7.96017 -18.20065,-1.47967 -32.67345,-11.63989 -32.38838,-29.99832 l 0.89138,-57.40481 c 0.26726,-17.21139 14.82626,-28.90371 31.40319,-33.14665 12.46395,-3.19021 24.20929,-9.20918 33.91765,-17.65755 17.55137,-15.27349 28.15824,-38.2375 28.40754,-61.50266 0.18508,-17.27198 -5.14201,-34.42328 -14.22828,-49.11325 -9.08628,-14.68997 -21.83432,-26.96178 -36.3201,-36.37017 -21.7565,-14.13066 -47.81209,-21.90536 -73.7265,-20.69541 -35.05305,1.63663 -67.76769,19.34468 -94.09366,42.54679 -39.1382,34.49402 -66.23907,81.14327 -83.32076,130.4368 -10.8978,31.44837 -17.97134,64.29313 -19.94386,97.51769 -1.23989,20.88432 -0.33145,42.49873 8.1692,61.61498 4.25033,9.55813 10.40008,18.35206 18.40424,25.08677 8.00416,6.73472 17.90752,11.34337 28.31166,12.42828 9.77306,1.0191 19.76885,-1.08958 28.57303,-5.45282 8.80417,-4.36324 16.43648,-10.92352 22.55055,-18.61569 12.22814,-15.38433 18.2397,-34.83204 21.52863,-54.20698 6.78432,-39.96609 2.93249,-81.45222 -9.17604,-120.13942 C 513.59584,386.19353 492.33518,349.03182 463.064,319.42381 449.17284,305.3728 433.30411,292.9139 415.06794,285.30879 c -18.23616,-7.60511 -39.04767,-10.06811 -57.93559,-4.26794 -20.53274,6.30527 -37.33914,21.91322 -48.42953,40.3076 -11.0904,18.39437 -16.96026,39.47311 -20.83533,60.59972 -9.08863,49.55049 -7.80044,100.73056 1.09345,150.31638 16.31049,90.93537 57.78114,175.90838 109.91382,252.18064 6.02952,8.82144 12.20578,17.54259 18.52523,26.1587 15.4163,21.019 7.70499,37.61014 -18.36231,37.91409 l -159.46561,1.85935 c -18.6981,0.21802 -27.83527,-13.54531 -21.88449,-31.26791 9.20485,-27.41385 15.77847,-55.71161 19.58094,-84.37873 17.01787,-128.29907 -21.42974,-256.62982 -35.54003,-385.28113 -3.3177,-30.24927 -5.28717,-60.83346 -2.00009,-91.08607 3.31503,-30.50989 12.18894,-60.81927 29.07862,-86.44311 14.87086,-22.56104 36.48396,-41.43967 62.38085,-49.15291 27.77742,-8.27335 57.91913,-3.1772 85.27409,6.40087 65.71489,23.00941 120.98772,71.35631 158.75253,129.85161 37.76481,58.49529 58.81483,126.69091 67.9879,195.71073 z"
   sodipodi:nodetypes="aaacaaaaaaacaaaasaaccaaaaaaccaaaaaaaaaaaaaaccaaaaaaa"
   inkscape:original-d="m 603.20239,454.73068 c 15.59347,74.88872 -0.8445,162.61078 -45.0894,225.01162 -19.41561,27.38283 -52.22679,54.99263 -86.63025,51.3446 -61.30481,-6.50064 -117.08592,-57.90829 -126.15495,-121.23898 -4.96717,-37.47677 0.35944,-75.45418 5.98385,-112.73824 6.76613,-44.85243 14.09619,-91.17485 33.24589,-132.48167 35.1322,-75.78185 83.63708,-148.12372 146.07663,-203.60763 32.05387,-28.48313 70.08905,-56.67635 112.61467,-62.181906 28.19206,-3.649867 59.41247,4.539076 82.69358,20.851756 32.86162,23.02558 55.86063,61.26484 67.51567,99.66046 15.764,51.93196 14.20406,110.70778 -0.97894,162.81256 -10.59081,36.3454 -60.43051,96.15891 -60.43051,96.15891 0,0 76.86347,84.92441 95.19442,137.5986 13.71751,39.41745 14.84691,83.76358 8.07975,124.94744 -9.70643,59.07177 -27.85081,121.98033 -68.32793,166.08579 C 685.26623,996.00876 565.20403,1063.7878 444.69231,1073.1285 336.42814,1081.5199 204.83778,1053.8937 135.59966,970.24189 45.690514,861.61582 25.21923,706.39453 9.6215482,566.17658 -2.7240864,455.19345 20.982683,342.83103 36.613243,232.26269 44.002897,179.98934 68.111124,77.047118 68.111124,77.047118 L 211.44065,123.61431 c 0,0 -122.776021,215.05108 -125.204324,333.89094 -3.168669,155.073 34.089214,334.02981 145.443684,442.00137 45.3077,43.93127 118.53898,56.52574 181.58027,53.60327 106.38567,-4.93183 225.46724,-39.28797 296.74357,-118.42025 35.60666,-39.53115 40.15148,-100.49279 43.3926,-153.59684 1.38584,-22.70625 3.2918,-49.29921 -10.42913,-67.44391 -24.05751,-31.81391 -108.79939,-49.80652 -108.79939,-49.80652 0,0 -3.30241,-101.78212 1.89145,-121.80967 41.31142,-5.98022 86.66663,-40.46899 93.24447,-81.14288 5.28487,-32.67889 -24.30022,-65.31232 -50.54838,-85.48342 -20.23939,-15.5535 -48.27385,-22.62073 -73.7265,-20.69541 -34.32391,2.59637 -68.06814,20.01805 -94.09366,42.54679 -39.00773,33.76665 -63.94035,82.62269 -83.32076,130.4368 -12.46338,30.74887 -24.96634,64.7213 -19.94386,97.51769 5.71748,37.33472 17.39243,94.56159 54.8851,99.13003 35.33732,4.30582 60.91608,-44.66702 72.65221,-78.27549 13.24094,-37.91772 2.88802,-81.83102 -9.17604,-120.13942 C 513.64388,386.59011 494.81277,345.74685 463.064,319.42381 434.15186,295.45263 392.88987,269.5548 357.13235,281.04085 c -38.84272,12.47708 -57.40741,62.89226 -69.26486,100.90732 -15.05442,48.26456 -9.31019,101.30154 1.09345,150.31638 19.03913,89.69933 63.88623,172.87163 109.91382,252.18064 13.2574,22.8435 23.7445,44.51166 47.36194,63.52245 l -240.52054,2.80445 c 23.3813,-31.87411 28.07929,-76.10729 31.55236,-116.0414 11.17454,-128.48727 -28.19652,-256.51808 -35.54003,-385.28113 -1.72918,-30.32007 -6.61396,-60.99971 -2.00009,-91.08607 4.57159,-29.81062 10.91025,-61.11573 29.07862,-86.44311 14.96337,-20.85949 36.06632,-41.37397 62.38085,-49.15291 27.08294,-8.00609 60.51862,-7.73003 85.27409,6.40087 114.85218,65.55985 199.78205,196.09279 226.74043,325.56234 z"
   inkscape:path-effect="#path-effect1305;#path-effect848" /></svg>
