<?xml version="1.0" encoding="UTF-8" standalone="no"?>
<svg
   xmlns:dc="http://purl.org/dc/elements/1.1/"
   xmlns:cc="http://creativecommons.org/ns#"
   xmlns:rdf="http://www.w3.org/1999/02/22-rdf-syntax-ns#"
   xmlns:svg="http://www.w3.org/2000/svg"
   xmlns="http://www.w3.org/2000/svg"
   xmlns:sodipodi="http://sodipodi.sourceforge.net/DTD/sodipodi-0.dtd"
   xmlns:inkscape="http://www.inkscape.org/namespaces/inkscape"
   xml:space="preserve"
   width="1000"
   height="1000"
   version="1.1"
   style="clip-rule:evenodd;fill-rule:evenodd;image-rendering:optimizeQuality;shape-rendering:geometricPrecision;text-rendering:geometricPrecision"
   viewBox="0 0 1000 1000"
   id="svg10"
   sodipodi:docname="ല.svg"
   inkscape:version="1.0.2 (e86c870879, 2021-01-15)"><metadata
   id="metadata14"><rdf:RDF><cc:Work
       rdf:about=""><dc:format>image/svg+xml</dc:format><dc:type
         rdf:resource="http://purl.org/dc/dcmitype/StillImage" /><dc:title /></cc:Work></rdf:RDF></metadata><sodipodi:namedview
   pagecolor="#ffffff"
   bordercolor="#666666"
   borderopacity="1"
   objecttolerance="10"
   gridtolerance="10"
   guidetolerance="10"
   inkscape:pageopacity="0"
   inkscape:pageshadow="2"
   inkscape:window-width="1920"
   inkscape:window-height="1007"
   id="namedview12"
   showgrid="false"
   inkscape:zoom="0.84890884"
   inkscape:cx="327.86116"
   inkscape:cy="503.78033"
   inkscape:window-x="1920"
   inkscape:window-y="0"
   inkscape:window-maximized="1"
   inkscape:current-layer="svg10"
   showguides="true"
   inkscape:guide-bbox="true"
   inkscape:document-rotation="0"><sodipodi:guide
     position="0,1000"
     orientation="0,1"
     id="guide16"
     inkscape:label=""
     inkscape:locked="true"
     inkscape:color="rgb(0,0,255)" /><sodipodi:guide
     position="1763.3122,2036.1693"
     orientation="1000,0"
     id="guide18" /><sodipodi:guide
     position="0,200"
     orientation="0,1"
     id="guide20"
     inkscape:label="base"
     inkscape:locked="true"
     inkscape:color="rgb(0,0,255)" /><inkscape:grid
     type="xygrid"
     id="grid24"
     originx="-473.37552"
     originy="-489.69235" /><sodipodi:guide
     position="0,0"
     orientation="0,1"
     id="guide34"
     inkscape:label="bottom"
     inkscape:locked="true"
     inkscape:color="rgb(0,0,255)" /><sodipodi:guide
     position="225.05109,1693.3186"
     orientation="0,1"
     id="guide44"
     inkscape:label=""
     inkscape:locked="false"
     inkscape:color="rgb(0,0,255)" /><sodipodi:guide
     position="0,900"
     orientation="0,1"
     id="guide46"
     inkscape:label=""
     inkscape:locked="true"
     inkscape:color="rgb(0,0,255)" /><sodipodi:guide
     position="607.48135,689.50803"
     orientation="-1,0"
     id="guide841"
     inkscape:label="width"
     inkscape:locked="false"
     inkscape:color="rgb(0,0,255)" /></sodipodi:namedview>
 <defs
   id="defs4"><inkscape:path-effect
   effect="fillet_chamfer"
   id="path-effect845"
   is_visible="true"
   lpeversion="1"
   satellites_param="F,0,0,1,0,0,0,1 @ F,0,0,1,0,0,0,1 @ F,0,0,1,0,0,0,1 @ F,0,0,1,0,0,0,1 @ F,0,0,1,0,0,0,1 @ F,0,0,1,0,16.565834,0,1 @ F,0,0,1,0,26.33522,0,1 @ F,0,0,1,0,0,0,1 @ F,0,0,1,0,0,0,1 @ F,0,0,1,0,0,0,1 @ F,0,0,1,0,0,0,1 @ F,0,0,1,0,0,0,1 @ F,0,0,1,0,0,0,1 @ F,0,0,1,0,0,0,1 @ F,0,0,1,0,0,0,1 @ F,0,0,1,0,0,0,1 @ F,0,0,1,0,0,0,1 @ F,0,0,1,0,0,0,1 @ F,0,0,1,0,0,0,1 @ F,0,0,1,0,0,0,1 @ F,0,0,1,0,0,0,1 @ F,0,0,1,0,0,0,1 @ F,0,0,1,0,28.101594,0,1 @ F,0,0,1,0,29.073939,0,1 @ F,0,0,1,0,0,0,1 @ F,0,0,1,0,0,0,1 @ F,0,0,1,0,0,0,1 @ F,0,0,1,0,0,0,1 @ F,0,0,1,0,0,0,1 @ F,0,0,1,0,0,0,1 @ F,0,0,1,0,0,0,1 @ F,0,0,1,0,0,0,1 @ F,0,0,1,0,0,0,1 @ F,0,0,1,0,0,0,1"
   unit="px"
   method="auto"
   mode="F"
   radius="0"
   chamfer_steps="1"
   flexible="false"
   use_knot_distance="true"
   apply_no_radius="true"
   apply_with_radius="true"
   only_selected="true"
   hide_knots="false" /><inkscape:path-effect
   effect="spiro"
   id="path-effect854"
   is_visible="true"
   lpeversion="1" />
  <style
   type="text/css"
   id="style2">
   <![CDATA[
    .fil0 {fill:#EF7F1A;fill-rule:nonzero}
   ]]>
  </style>
 <inkscape:path-effect
   effect="spiro"
   id="path-effect1214"
   is_visible="true"
   lpeversion="1" /><inkscape:path-effect
   effect="spiro"
   id="path-effect1195"
   is_visible="true"
   lpeversion="1" /><inkscape:path-effect
   effect="spiro"
   id="path-effect992"
   is_visible="true"
   lpeversion="1" /><inkscape:path-effect
   effect="spiro"
   id="path-effect287"
   is_visible="true"
   lpeversion="1" /><inkscape:path-effect
   effect="spiro"
   id="path-effect1032"
   is_visible="true"
   lpeversion="1" /></defs>
 
<path
   style="display:inline;fill:#c64600;fill-rule:nonzero;stroke:none;stroke-width:1.85181px;stroke-linecap:butt;stroke-linejoin:miter;stroke-opacity:1"
   d="m 336.3272,700.37296 c 33.58319,-6.48969 65.10726,-22.80096 90.31418,-45.92147 25.20692,-23.12051 44.09333,-52.93256 54.94516,-85.36996 20.38685,-60.93868 12.19558,-127.63228 -1.86782,-190.33289 -14.0634,-62.70062 -33.85926,-124.77825 -36.22373,-188.99317 -0.90537,-24.58828 0.78073,-49.27053 5.00895,-73.50921 1.57209,-9.01212 10.50668,-14.80982 19.4825,-13.03788 l 109.87726,21.69115 c 14.26915,2.81691 19.26229,14.91538 12.27444,27.66689 -24.49102,44.69148 -38.69903,95.0152 -40.99344,145.93487 -2.86077,63.48907 12.35246,126.19434 21.00527,189.15603 8.65281,62.9617 10.1431,129.93833 -18.02709,186.9075 -18.10504,36.61422 -47.83778,67.01907 -82.94043,87.90443 -35.10264,20.88535 -75.40513,32.43636 -116.12807,35.60428 -52.99311,4.12244 -107.01536,-5.89718 -155.02566,-28.70672 C 150.01841,746.55727 108.13358,711.01744 77.77328,667.38813 31.133522,600.3644 12.952828,517.24519 8.5070137,435.71187 6.1052407,391.66493 7.4342528,347.18354 16.301304,303.97154 c 8.867051,-43.212 25.480733,-85.22113 51.732662,-120.67162 25.004672,-33.7662 59.088914,-61.40569 98.721824,-75.35642 39.6329,-13.950727 84.86088,-13.455232 122.73189,4.74302 33.92478,16.30196 60.53403,45.9649 76.45834,80.06858 15.92432,34.10368 21.62482,72.41476 20.09392,110.02195 -3.18302,78.19218 -37.90612,154.3439 -93.61876,209.3007 -36.02918,35.54038 -80.57331,62.3525 -128.76304,77.77615 -14.77664,4.72942 -30.9889,-4.58954 -35.7783,-19.35215 l -21.00999,-64.76024 c -4.95512,-15.27341 3.88129,-25.05284 19.9168,-24.66143 27.17527,0.66332 54.50485,-4.62763 79.3945,-15.57152 33.76318,-14.84554 62.89581,-40.03134 82.46618,-71.29384 16.63969,-26.58091 26.44942,-58.48142 21.8196,-89.49736 -2.31491,-15.50797 -8.25315,-30.55436 -17.76365,-43.02057 -9.5105,-12.46621 -22.64517,-22.26734 -37.55003,-27.13572 -19.24566,-6.28622 -40.65103,-4.1111 -59.37192,3.59864 -18.72088,7.70975 -34.93682,20.64482 -48.71067,35.48372 -29.6347,31.92617 -48.569953,72.85875 -58.083111,115.36753 -16.874141,75.40073 -3.627551,158.32429 41.231741,221.23416 22.99941,32.25397 54.02128,59.01563 90.07581,75.42789 36.05453,16.41226 77.13737,22.21605 116.0321,14.69995 z"
   id="path1188-4-2"
   inkscape:path-effect="#path-effect1032;#path-effect845"
   inkscape:original-d="M 336.3272,700.37296 C 400.74618,689.88769 458.11355,629.98116 481.58654,569.08153 527.28976,450.50658 444.03781,316.83225 443.49499,189.75547 443.36665,159.71146 451.73427,100 451.73427,100 l 151.96601,30 c 3.49015,33.45127 -45.58138,110.1497 -54.55558,168.50129 -19.0555,123.90168 63.49411,266.27937 2.97818,376.06353 -37.69749,68.3884 -121.10091,119.13494 -199.0685,123.50871 C 251.63826,803.76269 143.90985,744.48255 77.77328,667.38813 25.292046,606.21153 10.890025,515.81169 8.5070137,435.71187 5.9458678,349.62444 6.2143726,247.64188 68.033966,183.29992 119.92766,129.28885 218.00631,82.794626 289.48768,112.68652 c 65.56659,27.41847 94.79814,119.04355 96.55226,190.09053 1.8864,76.40479 -41.76377,153.15526 -93.61876,209.3007 -40.16908,43.49263 -155.86937,85.15407 -155.86937,85.15407 L 97.897822,478.08655 c 0,0 158.991338,-22.09929 190.749508,-83.87183 24.8624,-48.35964 17.79231,-133.50512 -33.49408,-159.65365 -33.8807,-17.27419 -79.8735,14.58055 -108.08259,39.08236 -33.41986,29.02778 -52.02919,72.74064 -58.083111,115.36753 -10.547807,74.26926 -5.434206,162.50199 41.231741,221.23416 46.64701,58.70833 132.09781,102.17423 206.10791,90.12784 z"
   sodipodi:nodetypes="aaascaaaaaaaaaccaaaaaa" /></svg>
