<?xml version="1.0" encoding="UTF-8" standalone="no"?>
<svg
   xmlns:dc="http://purl.org/dc/elements/1.1/"
   xmlns:cc="http://creativecommons.org/ns#"
   xmlns:rdf="http://www.w3.org/1999/02/22-rdf-syntax-ns#"
   xmlns:svg="http://www.w3.org/2000/svg"
   xmlns="http://www.w3.org/2000/svg"
   xmlns:sodipodi="http://sodipodi.sourceforge.net/DTD/sodipodi-0.dtd"
   xmlns:inkscape="http://www.inkscape.org/namespaces/inkscape"
   xml:space="preserve"
   width="1000"
   height="1000"
   version="1.1"
   style="clip-rule:evenodd;fill-rule:evenodd;image-rendering:optimizeQuality;shape-rendering:geometricPrecision;text-rendering:geometricPrecision"
   viewBox="0 0 1000 1000"
   id="svg10"
   sodipodi:docname="ല്പ.svg"
   inkscape:version="1.0.2 (e86c870879, 2021-01-15)"><metadata
   id="metadata14"><rdf:RDF><cc:Work
       rdf:about=""><dc:format>image/svg+xml</dc:format><dc:type
         rdf:resource="http://purl.org/dc/dcmitype/StillImage" /><dc:title /></cc:Work></rdf:RDF></metadata><sodipodi:namedview
   pagecolor="#ffffff"
   bordercolor="#666666"
   borderopacity="1"
   objecttolerance="10"
   gridtolerance="10"
   guidetolerance="10"
   inkscape:pageopacity="0"
   inkscape:pageshadow="2"
   inkscape:window-width="1920"
   inkscape:window-height="1007"
   id="namedview12"
   showgrid="false"
   inkscape:zoom="0.84890884"
   inkscape:cx="327.86116"
   inkscape:cy="739.37689"
   inkscape:window-x="1920"
   inkscape:window-y="0"
   inkscape:window-maximized="1"
   inkscape:current-layer="g860"
   showguides="true"
   inkscape:guide-bbox="true"
   inkscape:document-rotation="0"><sodipodi:guide
     position="0,1000"
     orientation="0,1"
     id="guide16"
     inkscape:label=""
     inkscape:locked="true"
     inkscape:color="rgb(0,0,255)" /><sodipodi:guide
     position="1763.3122,2036.1693"
     orientation="1000,0"
     id="guide18" /><sodipodi:guide
     position="0,200"
     orientation="0,1"
     id="guide20"
     inkscape:label="base"
     inkscape:locked="true"
     inkscape:color="rgb(0,0,255)" /><inkscape:grid
     type="xygrid"
     id="grid24"
     originx="-473.37552"
     originy="-489.69235" /><sodipodi:guide
     position="0,0"
     orientation="0,1"
     id="guide34"
     inkscape:label="bottom"
     inkscape:locked="true"
     inkscape:color="rgb(0,0,255)" /><sodipodi:guide
     position="225.05109,1693.3186"
     orientation="0,1"
     id="guide44"
     inkscape:label=""
     inkscape:locked="false"
     inkscape:color="rgb(0,0,255)" /><sodipodi:guide
     position="0,900"
     orientation="0,1"
     id="guide46"
     inkscape:label=""
     inkscape:locked="true"
     inkscape:color="rgb(0,0,255)" /><sodipodi:guide
     position="578.47985,545.00537"
     orientation="-1,0"
     id="guide841"
     inkscape:label="width"
     inkscape:locked="false"
     inkscape:color="rgb(0,0,255)" /></sodipodi:namedview>
 <defs
   id="defs4"><inkscape:path-effect
   effect="fillet_chamfer"
   id="path-effect857"
   is_visible="true"
   lpeversion="1"
   satellites_param="F,0,0,1,0,0,0,1 @ F,0,0,1,0,0,0,1 @ F,0,0,1,0,0,0,1 @ F,0,0,1,0,0,0,1 @ F,0,0,1,0,0,0,1 @ F,0,0,1,0,0,0,1 @ F,0,0,1,0,0,0,1 @ F,0,0,1,0,0,0,1 @ F,0,0,1,0,0,0,1 @ F,0,0,1,0,0,0,1 @ F,0,0,1,0,0,0,1 @ F,0,0,1,0,0,0,1 @ F,0,0,1,0,0,0,1 @ F,0,0,1,0,0,0,1 @ F,0,0,1,0,0,0,1 @ F,0,0,1,0,0,0,1 @ F,0,0,1,0,0,0,1 @ F,0,0,1,0,26.677169,0,1 @ F,0,0,1,0,0,0,1 @ F,0,0,1,0,0,0,1 @ F,0,0,1,0,0,0,1 @ F,0,0,1,0,0,0,1 @ F,0,0,1,0,0,0,1 @ F,0,0,1,0,0,0,1 @ F,0,0,1,0,0,0,1 @ F,0,0,1,0,0,0,1 @ F,0,0,1,0,0,0,1 @ F,0,1,1,0,12.700274,0,1 @ F,0,1,1,0,12.700274,0,1 @ F,0,0,1,0,0,0,1 @ F,0,0,1,0,0,0,1 @ F,0,0,1,0,0,0,1 @ F,0,0,1,0,0,0,1 @ F,0,0,1,0,0,0,1 @ F,0,0,1,0,0,0,1 @ F,0,0,1,0,0,0,1 @ F,0,0,1,0,0,0,1 @ F,0,0,1,0,0,0,1 @ F,0,1,1,0,12.700274,0,1 @ F,0,0,1,0,12.700274,0,1"
   unit="px"
   method="auto"
   mode="F"
   radius="0"
   chamfer_steps="1"
   flexible="false"
   use_knot_distance="true"
   apply_no_radius="true"
   apply_with_radius="true"
   only_selected="true"
   hide_knots="false" /><inkscape:path-effect
   effect="fillet_chamfer"
   id="path-effect855"
   is_visible="true"
   lpeversion="1"
   satellites_param="F,0,0,1,0,0,0,1 @ F,0,0,1,0,0,0,1 @ F,0,0,1,0,0,0,1 @ F,0,0,1,0,0,0,1 @ F,0,0,1,0,0,0,1 @ F,0,0,1,0,0,0,1 @ F,0,0,1,0,24.086081,0,1 @ F,0,0,1,0,24.086081,0,1 @ F,0,0,1,0,0,0,1 @ F,0,0,1,0,0,0,1 @ F,0,0,1,0,0,0,1 @ F,0,0,1,0,0,0,1 @ F,0,0,1,0,0,0,1 @ F,0,0,1,0,0,0,1 @ F,0,0,1,0,0,0,1 @ F,0,0,1,0,0,0,1 @ F,0,0,1,0,0,0,1 @ F,0,0,1,0,0,0,1 @ F,0,0,1,0,0,0,1 @ F,0,0,1,0,0,0,1 @ F,0,0,1,0,0,0,1 @ F,0,0,1,0,0,0,1 @ F,0,0,1,0,0,0,1 @ F,0,1,1,0,28.364734,0,1 @ F,0,1,1,0,28.364734,0,1 @ F,0,0,1,0,0,0,1 @ F,0,0,1,0,0,0,1 @ F,0,0,1,0,0,0,1 @ F,0,0,1,0,0,0,1 @ F,0,0,1,0,0,0,1 @ F,0,0,1,0,0,0,1 @ F,0,0,1,0,0,0,1 @ F,0,0,1,0,0,0,1 @ F,0,0,1,0,0,0,1"
   unit="px"
   method="auto"
   mode="F"
   radius="0"
   chamfer_steps="1"
   flexible="false"
   use_knot_distance="true"
   apply_no_radius="true"
   apply_with_radius="true"
   only_selected="true"
   hide_knots="false" /><inkscape:path-effect
   effect="spiro"
   id="path-effect854"
   is_visible="true"
   lpeversion="1" />
  <style
   type="text/css"
   id="style2">
   <![CDATA[
    .fil0 {fill:#EF7F1A;fill-rule:nonzero}
   ]]>
  </style>
 <inkscape:path-effect
   effect="spiro"
   id="path-effect1214"
   is_visible="true"
   lpeversion="1" /><inkscape:path-effect
   effect="spiro"
   id="path-effect1195"
   is_visible="true"
   lpeversion="1" /><inkscape:path-effect
   effect="spiro"
   id="path-effect992"
   is_visible="true"
   lpeversion="1" /><inkscape:path-effect
   effect="spiro"
   id="path-effect287"
   is_visible="true"
   lpeversion="1" /><inkscape:path-effect
   effect="spiro"
   id="path-effect1032"
   is_visible="true"
   lpeversion="1" /><style
   type="text/css"
   id="style2-3">
   <![CDATA[
    .fil0 {fill:#EF7F1A;fill-rule:nonzero}
   ]]>
  </style><inkscape:path-effect
   effect="spiro"
   id="path-effect858"
   is_visible="true"
   lpeversion="1" /><style
   type="text/css"
   id="style2-2">
   <![CDATA[
    .fil0 {fill:#EF7F1A;fill-rule:nonzero}
   ]]>
  </style><inkscape:path-effect
   effect="spiro"
   id="path-effect1218"
   is_visible="true"
   lpeversion="1" /><inkscape:path-effect
   effect="spiro"
   id="path-effect309"
   is_visible="true"
   lpeversion="1" /></defs>
 
<g
   id="g860"><g
     style="clip-rule:evenodd;fill-rule:evenodd;image-rendering:optimizeQuality;shape-rendering:geometricPrecision;text-rendering:geometricPrecision"
     id="g867"
     transform="matrix(1.1456714,0,0,1,-3.9454528,0)"><path
       style="display:inline;fill:#1a1a1a;fill-rule:nonzero;stroke:none;stroke-width:1.59242px;stroke-linecap:butt;stroke-linejoin:miter;stroke-opacity:1"
       d="m 257.03322,551.14054 c 26.65814,-2.23778 53.11185,-8.8992 76.8618,-21.21196 23.74995,-12.31276 44.72576,-30.42046 58.87745,-53.12274 13.49504,-21.64887 20.50554,-46.92979 22.6956,-72.34619 2.19006,-25.4164 -0.28589,-51.04353 -4.69928,-76.16944 -8.82679,-50.25184 -25.40966,-99.30861 -28.4002,-150.24206 -1.03603,-17.64511 -0.4161,-35.38635 1.83617,-52.91763 1.69453,-13.18998 14.85973,-23.89815 28.16051,-24.10417 l 56.29199,-0.87194 c 13.30078,-0.206029 19.60659,9.45153 14.9475,21.909 -17.74106,47.43612 -26.1769,98.34971 -24.56622,148.97384 1.25407,39.41561 8.48273,78.38952 11.6787,117.69536 3.19598,39.30583 2.15088,79.9443 -12.43038,116.58512 -15.28851,38.41804 -45.02081,70.29785 -80.6524,91.27579 -35.6316,20.97794 -76.8893,31.43465 -118.18494,33.52138 C 221.68153,632.02337 183.3656,627.02561 148.0527,613.49555 112.73981,599.96549 80.517767,577.73204 56.928126,548.17545 21.793242,504.15328 7.6180554,446.90208 2.0774255,390.85109 -1.7998193,351.6275 -1.8944988,311.79356 5.3499973,273.0503 12.594493,234.30704 27.399068,196.59952 51.335197,165.28523 c 21.060781,-27.55264 49.523463,-50.0489 82.517063,-60.7319 32.9936,-10.683003 70.57619,-8.772665 100.73298,8.35252 18.54751,10.5326 33.82998,26.42419 44.70935,44.77045 10.87938,18.34625 17.4446,39.08881 20.34951,60.21954 5.80982,42.26144 -2.8237,85.24548 -15.40412,126.00719 -11.4765,37.18493 -26.27522,73.34321 -44.15076,107.91022 -7.19524,13.91385 -25.03058,19.43367 -39.16734,12.68406 l -60.1754,-28.73083 c -14.13676,-6.74961 -13.40675,-16.03178 0.64475,-22.92877 32.59954,-16.00104 61.01873,-40.54589 81.332,-70.6651 14.24011,-21.11433 24.74976,-45.85325 23.58323,-71.29406 -0.58326,-12.7204 -4.16021,-25.39647 -11.02753,-36.11975 -6.86732,-10.72329 -17.1056,-19.4026 -29.10499,-23.66446 -15.9879,-5.67848 -34.08035,-3.21087 -49.47299,3.9253 -15.39263,7.13617 -28.39372,18.59112 -39.96392,31.00033 -26.497148,28.41859 -46.808834,63.16626 -55.179758,101.10889 -10.764849,48.7935 -0.323979,102.70455 31.135072,141.52484 19.201326,23.69433 45.498876,41.26743 74.205096,51.56621 28.70622,10.29878 59.74493,13.47174 90.13578,10.92063 z"
       id="path1188-4-2"
       sodipodi:nodetypes="aaascaaaaaaaascaaaaaa"
       inkscape:original-d="m 257.03322,551.14054 c 50.05111,-3.60146 109.84739,-25.12939 135.73925,-74.3347 44.9136,-85.35452 -12.50388,-199.12161 -10.40388,-298.75769 0.54044,-25.64172 5.91349,-76.64876 5.91349,-76.64876 l 104.45837,-1.618025 c 2.88806,29.893455 -27.96543,113.359195 -33.70191,171.255885 -7.69995,77.71336 37.15073,166.00117 -0.75168,234.28048 C 420.30763,573.73543 337.39879,623.23647 259.44952,630.1149 186.90819,636.51613 107.14517,600.91509 56.928126,548.17545 18.630998,507.9545 5.4206968,446.2877 2.0774255,390.85109 -2.5554923,314.03015 -1.331603,221.40234 51.335197,165.28523 94.810802,118.96146 180.10588,80.225298 234.58524,112.90585 c 67.53823,40.51418 57.44825,152.62582 49.65474,230.99718 -4.77678,48.03512 -57.72124,132.81553 -57.72124,132.81553 L 115.14962,423.54523 c 0,0 90.11463,-39.93962 107.57361,-81.37262 17.1011,-40.58375 21.3039,-108.56995 -16.54929,-131.07827 -27.50893,-16.35742 -65.4127,13.77984 -89.43691,34.92563 -28.821229,25.36806 -49.764484,63.09736 -55.179758,101.10889 -6.812661,47.82022 -0.42367,104.95666 31.135072,141.52484 38.290496,44.36849 106.735986,66.63184 164.340876,62.48684 z"
       inkscape:path-effect="#path-effect1032;#path-effect855" /></g><g
     style="clip-rule:evenodd;fill-rule:evenodd;image-rendering:optimizeQuality;shape-rendering:geometricPrecision;text-rendering:geometricPrecision"
     id="g901"><path
       style="display:inline;fill:#1a1a1a;stroke:none;stroke-width:1.41382px;stroke-linecap:butt;stroke-linejoin:miter;stroke-opacity:1"
       d="M 61.663446,980.0941 C 60.159243,955.07373 51.79934,930.88327 40.789841,908.365 30.874132,888.08391 18.756848,868.85989 10.234913,847.95486 1.7129786,827.04983 -3.0834898,803.71287 2.4758325,781.8328 6.5620422,765.75052 16.110599,751.32333 28.374058,740.14548 40.637517,728.96763 55.529553,720.91955 71.156234,715.3389 c 29.215106,-10.4334 61.215806,-12.38589 91.763346,-6.97974 30.54753,5.40615 59.63859,18.03995 85.28286,35.49704 32.92108,22.41072 61.08634,54.29272 70.93275,92.8814 6.9059,27.06464 4.28976,56.4601 -7.28714,81.8798 19.53556,3.61958 39.47546,5.05233 59.32782,4.2629 15.52724,-0.61744 31.19062,-2.64007 45.62583,-8.39344 14.43521,-5.75337 27.64233,-15.52276 35.3866,-28.99506 7.14704,-12.43333 9.25355,-27.27341 8.28977,-41.58212 -0.96377,-14.3087 -4.82429,-28.25136 -8.96606,-41.98138 -19.77794,-65.56423 -46.79848,-131.32439 -42.72856,-199.68572 0.97155,-16.31896 3.73333,-32.53071 8.21984,-48.25087 H 522.0173 c 14.73339,0 18.54178,8.8513 10.48623,21.17147 -3.836,5.86679 -7.33105,11.95647 -10.45854,18.22969 -18.59828,37.30505 -23.74136,80.19181 -21.10285,121.7923 2.63852,41.60049 12.69729,82.33807 23.1977,122.67793 5.09121,19.55911 10.32782,39.29585 10.9544,59.497 0.62658,20.20116 -3.78048,41.22904 -16.22369,57.1553 -6.77579,8.67243 -15.71723,15.5459 -25.56052,20.46851 -9.84328,4.92261 -20.57746,7.93329 -31.46822,9.51875 -21.78152,3.1709 -43.9484,0.70754 -65.80188,-1.92206 -43.46187,-5.22971 -87.23102,-11.11784 -130.86709,-7.6282 -14.2954,1.14322 -28.51007,3.29349 -42.50462,6.42675 -6.84422,1.53236 -13.1728,-2.5925 -14.20959,-9.52961 l -10.05669,-67.28878 c -1.03679,-6.93711 2.92586,-9.23395 9.65975,-7.3739 8.57121,2.36755 17.90143,2.05276 26.21223,-1.13526 8.96053,-3.43725 16.6373,-10.05357 21.49649,-18.32968 4.85919,-8.27611 6.89569,-18.14869 5.8665,-27.69052 -1.27789,-11.84757 -7.16084,-22.90593 -15.22403,-31.67992 -8.06319,-8.774 -18.21947,-15.40725 -28.8878,-20.71618 -17.47649,-8.69691 -36.89473,-14.07902 -56.40031,-13.30672 -19.50557,0.7723 -39.07342,8.06144 -52.85276,21.88872 -14.342382,14.39229 -21.543166,35.01228 -21.710262,55.3301 -0.167096,20.31782 6.272704,40.31451 16.113172,58.0911 12.36495,22.33701 30.22384,41.59205 51.50124,55.69259 5.84522,3.87363 5.47787,8.41935 -1.15939,10.68767 l -82.409432,28.16384 c -6.637263,2.2684 -10.711522,-1.442 -9.817947,-8.3965 1.093648,-8.51155 1.389045,-17.12584 0.874055,-25.692 z"
       id="use1061"
       sodipodi:nodetypes="aaaaaacaaaaccaaaaaccaaaaacca"
       inkscape:original-d="M 61.663446,980.0941 C 59.141769,955.32059 47.877183,932.23664 40.789841,908.365 28.247268,866.11901 -8.587979,824.48995 2.4758325,781.8328 10.475839,750.98832 40.759567,724.90051 71.156234,715.3389 128.17772,697.40215 196.90575,713.167 248.20244,743.8562 c 33.43034,20.00033 60.10251,55.46072 70.93275,92.8814 7.61777,26.32095 -7.28714,81.8798 -7.28714,81.8798 0,0 39.8224,7.81893 59.32782,4.2629 29.25905,-5.33422 65.08451,-12.27183 81.01243,-37.3885 14.91793,-23.52402 2.36631,-55.87475 -0.67629,-83.5635 -7.43502,-67.66141 -41.29706,-131.63209 -42.72856,-199.68572 -0.34312,-16.31173 8.21984,-48.25087 8.21984,-48.25087 h 131.69118 c 0,0 -22.06904,24.22141 -26.64948,39.40116 -23.54184,78.0186 3.58493,162.99079 2.09485,244.47023 -0.71171,38.91724 19.67642,86.77305 -5.26929,116.6523 -26.91641,32.23969 -80.97721,24.57479 -122.83062,28.0652 -43.54524,3.6315 -87.23988,-10.08633 -130.86709,-7.6282 -18.51948,1.04346 -54.83693,9.4579 -54.83693,9.4579 2.59847,-34.7351 8.34291,-49.4583 -13.81125,-92.4103 0,0 26.4304,9.71211 37.74926,4.0516 15.96211,-7.98257 28.81891,-28.23283 27.36299,-46.0202 -1.8625,-22.75469 -23.0507,-43.58284 -44.11183,-52.3961 -33.69838,-14.10145 -83.80088,-17.62139 -109.25307,8.582 -26.374131,27.15254 -19.228597,78.10779 -5.59709,113.4212 10.57886,27.40531 62.35968,62.2731 62.35968,62.2731 l -106.44509,36.3782 c 6.315422,-12.0225 4.367413,-25.4883 3.073936,-38.1957 z"
       inkscape:path-effect="#path-effect858;#path-effect857" /></g></g></svg>
