<?xml version="1.0" encoding="UTF-8" standalone="no"?>
<svg
   xmlns:dc="http://purl.org/dc/elements/1.1/"
   xmlns:cc="http://creativecommons.org/ns#"
   xmlns:rdf="http://www.w3.org/1999/02/22-rdf-syntax-ns#"
   xmlns:svg="http://www.w3.org/2000/svg"
   xmlns="http://www.w3.org/2000/svg"
   xmlns:sodipodi="http://sodipodi.sourceforge.net/DTD/sodipodi-0.dtd"
   xmlns:inkscape="http://www.inkscape.org/namespaces/inkscape"
   xml:space="preserve"
   width="1000"
   height="1000"
   version="1.1"
   style="clip-rule:evenodd;fill-rule:evenodd;image-rendering:optimizeQuality;shape-rendering:geometricPrecision;text-rendering:geometricPrecision"
   viewBox="0 0 1000 1000"
   id="svg10"
   sodipodi:docname="ള്ള.svg"
   inkscape:version="1.0.2 (e86c870879, 2021-01-15)"><metadata
   id="metadata14"><rdf:RDF><cc:Work
       rdf:about=""><dc:format>image/svg+xml</dc:format><dc:type
         rdf:resource="http://purl.org/dc/dcmitype/StillImage" /><dc:title /></cc:Work></rdf:RDF></metadata><sodipodi:namedview
   pagecolor="#ffffff"
   bordercolor="#666666"
   borderopacity="1"
   objecttolerance="10"
   gridtolerance="10"
   guidetolerance="10"
   inkscape:pageopacity="0"
   inkscape:pageshadow="2"
   inkscape:window-width="1920"
   inkscape:window-height="1007"
   id="namedview12"
   showgrid="false"
   inkscape:zoom="1.0519779"
   inkscape:cx="746.33763"
   inkscape:cy="549.14022"
   inkscape:window-x="1920"
   inkscape:window-y="0"
   inkscape:window-maximized="1"
   inkscape:current-layer="svg10"
   showguides="true"
   inkscape:guide-bbox="true"
   inkscape:document-rotation="0"><sodipodi:guide
     position="0,1000"
     orientation="0,1"
     id="guide16"
     inkscape:label=""
     inkscape:locked="true"
     inkscape:color="rgb(0,0,255)" /><sodipodi:guide
     position="1763.3122,2036.1693"
     orientation="1000,0"
     id="guide18" /><sodipodi:guide
     position="0,200"
     orientation="0,1"
     id="guide20"
     inkscape:label="base"
     inkscape:locked="true"
     inkscape:color="rgb(0,0,255)" /><inkscape:grid
     type="xygrid"
     id="grid24"
     originx="-473.37552"
     originy="-489.69235" /><sodipodi:guide
     position="0,0"
     orientation="0,1"
     id="guide34"
     inkscape:label="bottom"
     inkscape:locked="true"
     inkscape:color="rgb(0,0,255)" /><sodipodi:guide
     position="225.05109,1693.3186"
     orientation="0,1"
     id="guide44"
     inkscape:label=""
     inkscape:locked="false"
     inkscape:color="rgb(0,0,255)" /><sodipodi:guide
     position="0,900"
     orientation="0,1"
     id="guide46"
     inkscape:label=""
     inkscape:locked="true"
     inkscape:color="rgb(0,0,255)" /><sodipodi:guide
     position="998.19192,555.22746"
     orientation="-1,0"
     id="guide841"
     inkscape:label="width"
     inkscape:locked="false"
     inkscape:color="rgb(0,0,255)" /></sodipodi:namedview>
 <defs
   id="defs4"><inkscape:path-effect
   effect="fillet_chamfer"
   id="path-effect846"
   is_visible="true"
   lpeversion="1"
   satellites_param="F,0,0,1,0,0,0,1 @ F,0,0,1,0,0,0,1 @ F,0,0,1,0,0,0,1 @ F,0,1,1,0,12.981487,0,1 @ F,0,1,1,0,12.981487,0,1 @ F,0,0,1,0,0,0,1 @ F,0,0,1,0,0,0,1 @ F,0,0,1,0,0,0,1 @ F,0,0,1,0,0,0,1 @ F,0,0,1,0,0,0,1 @ F,0,0,1,0,0,0,1 @ F,0,0,1,0,0,0,1 @ F,0,0,1,0,0,0,1 @ F,0,1,1,0,12.981487,0,1 @ F,0,1,1,0,12.981487,0,1 @ F,0,0,1,0,0,0,1 @ F,0,0,1,0,0,0,1 @ F,0,0,1,0,0,0,1 @ F,0,0,1,0,0,0,1 @ F,0,0,1,0,0,0,1 @ F,0,0,1,0,0,0,1 @ F,0,0,1,0,0,0,1 @ F,0,0,1,0,0,0,1 @ F,0,0,1,0,0,0,1 @ F,0,0,1,0,0,0,1 @ F,0,0,1,0,0,0,1 @ F,0,0,1,0,0,0,1 @ F,0,0,1,0,0,0,1 @ F,0,0,1,0,0,0,1 @ F,0,0,1,0,0,0,1 @ F,0,0,1,0,0,0,1 @ F,0,0,1,0,0,0,1 @ F,0,0,1,0,0,0,1 @ F,0,0,1,0,0,0,1 @ F,0,0,1,0,0,0,1 @ F,0,0,1,0,0,0,1 @ F,0,0,1,0,0,0,1 @ F,0,0,1,0,0,0,1 @ F,0,0,1,0,0,0,1 @ F,0,0,1,0,0,0,1 @ F,0,0,1,0,0,0,1 @ F,0,0,1,0,0,0,1 @ F,0,0,1,0,0,0,1 @ F,0,0,1,0,0,0,1 @ F,0,0,1,0,0,0,1 @ F,0,0,1,0,0,0,1 @ F,0,0,1,0,0,0,1 @ F,0,0,1,0,0,0,1 @ F,0,0,1,0,0,0,1 @ F,0,0,1,0,0,0,1 @ F,0,0,1,0,0,0,1 @ F,0,0,1,0,0,0,1 @ F,0,0,1,0,0,0,1 @ F,0,0,1,0,0,0,1 @ F,0,0,1,0,0,0,1 @ F,0,0,1,0,0,0,1 @ F,0,0,1,0,0,0,1 @ F,0,0,1,0,0,0,1 @ F,0,0,1,0,0,0,1 @ F,0,0,1,0,0,0,1 @ F,0,0,1,0,0,0,1 @ F,0,0,1,0,0,0,1 @ F,0,0,1,0,0,0,1 @ F,0,0,1,0,0,0,1 @ F,0,0,1,0,0,0,1 @ F,0,0,1,0,0,0,1 @ F,0,0,1,0,0,0,1 @ F,0,0,1,0,0,0,1 @ F,0,0,1,0,0,0,1 @ F,0,1,1,0,12.981487,0,1 @ F,0,1,1,0,12.981487,0,1 @ F,0,0,1,0,0,0,1 @ F,0,0,1,0,0,0,1 @ F,0,0,1,0,0,0,1 @ F,0,0,1,0,0,0,1 @ F,0,0,1,0,0,0,1 @ F,0,0,1,0,0,0,1 @ F,0,0,1,0,0,0,1 @ F,0,0,1,0,0,0,1 @ F,0,0,1,0,0,0,1 @ F,0,0,1,0,0,0,1 @ F,0,0,1,0,0,0,1 @ F,0,0,1,0,0,0,1 @ F,0,0,1,0,0,0,1 @ F,0,0,1,0,0,0,1 @ F,0,0,1,0,0,0,1 @ F,0,0,1,0,0,0,1 @ F,0,0,1,0,0,0,1 @ F,0,0,1,0,0,0,1 @ F,0,0,1,0,0,0,1 @ F,0,0,1,0,0,0,1 @ F,0,0,1,0,0,0,1 @ F,0,0,1,0,0,0,1 @ F,0,0,1,0,0,0,1 @ F,0,0,1,0,0,0,1 @ F,0,0,1,0,0,0,1 @ F,0,0,1,0,0,0,1 @ F,0,0,1,0,0,0,1 @ F,0,0,1,0,0,0,1 @ F,0,0,1,0,0,0,1 @ F,0,0,1,0,0,0,1 @ F,0,0,1,0,0,0,1 @ F,0,0,1,0,0,0,1 @ F,0,0,1,0,0,0,1 @ F,0,0,1,0,0,0,1 @ F,0,0,1,0,0,0,1 @ F,0,0,1,0,0,0,1 @ F,0,0,1,0,0,0,1 @ F,0,0,1,0,0,0,1 @ F,0,0,1,0,0,0,1 @ F,0,0,1,0,0,0,1 @ F,0,0,1,0,0,0,1 @ F,0,0,1,0,0,0,1 @ F,0,0,1,0,0,0,1 @ F,0,0,1,0,0,0,1 @ F,0,1,1,0,12.981487,0,1 @ F,0,1,1,0,12.981487,0,1 @ F,0,0,1,0,0,0,1 @ F,0,0,1,0,0,0,1 @ F,0,0,1,0,0,0,1 @ F,0,0,1,0,0,0,1"
   unit="px"
   method="auto"
   mode="F"
   radius="0"
   chamfer_steps="1"
   flexible="false"
   use_knot_distance="true"
   apply_no_radius="true"
   apply_with_radius="true"
   only_selected="true"
   hide_knots="false" /><inkscape:path-effect
   effect="fillet_chamfer"
   id="path-effect845"
   is_visible="true"
   lpeversion="1"
   satellites_param="F,0,0,1,0,0,0,1 @ F,0,0,1,0,0,0,1 @ F,0,0,1,0,0,0,1 @ F,0,0,1,0,19.685079,0,1 @ F,0,0,1,0,10.403621,0,1 @ F,0,0,1,0,0,0,1 @ F,0,0,1,0,0,0,1 @ F,0,0,1,0,0,0,1 @ F,0,0,1,0,0,0,1 @ F,0,0,1,0,0,0,1 @ F,0,0,1,0,0,0,1 @ F,0,0,1,0,0,0,1 @ F,0,0,1,0,0,0,1 @ F,0,0,1,0,29.328006,0,1 @ F,0,0,1,0,18.552057,0,1 @ F,0,0,1,0,0,0,1 @ F,0,0,1,0,0,0,1 @ F,0,0,1,0,0,0,1 @ F,0,0,1,0,0,0,1 @ F,0,0,1,0,0,0,1 @ F,0,0,1,0,0,0,1 @ F,0,0,1,0,0,0,1 @ F,0,0,1,0,0,0,1 @ F,0,0,1,0,0,0,1 @ F,0,0,1,0,0,0,1 @ F,0,0,1,0,0,0,1 @ F,0,0,1,0,0,0,1 @ F,0,0,1,0,0,0,1 @ F,0,0,1,0,0,0,1 @ F,0,0,1,0,0,0,1 @ F,0,0,1,0,0,0,1 @ F,0,0,1,0,0,0,1 @ F,0,0,1,0,0,0,1 @ F,0,0,1,0,0,0,1 @ F,0,0,1,0,0,0,1 @ F,0,0,1,0,0,0,1 @ F,0,0,1,0,0,0,1 @ F,0,0,1,0,0,0,1 @ F,0,0,1,0,0,0,1 @ F,0,0,1,0,0,0,1 @ F,0,0,1,0,0,0,1 @ F,0,0,1,0,0,0,1 @ F,0,0,1,0,0,0,1 @ F,0,0,1,0,0,0,1 @ F,0,0,1,0,0,0,1 @ F,0,0,1,0,0,0,1 @ F,0,0,1,0,0,0,1 @ F,0,0,1,0,0,0,1 @ F,0,0,1,0,0,0,1 @ F,0,0,1,0,0,0,1 @ F,0,0,1,0,0,0,1 @ F,0,0,1,0,0,0,1 @ F,0,0,1,0,0,0,1 @ F,0,0,1,0,0,0,1 @ F,0,0,1,0,0,0,1 @ F,0,0,1,0,0,0,1 @ F,0,0,1,0,0,0,1 @ F,0,0,1,0,0,0,1 @ F,0,0,1,0,0,0,1 @ F,0,0,1,0,0,0,1 @ F,0,0,1,0,0,0,1 @ F,0,0,1,0,0,0,1 @ F,0,0,1,0,0,0,1 @ F,0,0,1,0,13.212796,0,1 @ F,0,0,1,0,10.711141,0,1 @ F,0,0,1,0,0,0,1 @ F,0,0,1,0,0,0,1 @ F,0,0,1,0,0,0,1 @ F,0,0,1,0,0,0,1 @ F,0,0,1,0,0,0,1 @ F,0,0,1,0,0,0,1 @ F,0,0,1,0,0,0,1 @ F,0,0,1,0,0,0,1 @ F,0,0,1,0,0,0,1 @ F,0,0,1,0,0,0,1 @ F,0,0,1,0,0,0,1 @ F,0,0,1,0,0,0,1 @ F,0,0,1,0,0,0,1 @ F,0,0,1,0,0,0,1 @ F,0,0,1,0,0,0,1 @ F,0,0,1,0,0,0,1 @ F,0,0,1,0,0,0,1 @ F,0,0,1,0,0,0,1 @ F,0,0,1,0,0,0,1 @ F,0,0,1,0,0,0,1 @ F,0,0,1,0,0,0,1 @ F,0,0,1,0,0,0,1 @ F,0,0,1,0,0,0,1 @ F,0,0,1,0,0,0,1 @ F,0,0,1,0,0,0,1 @ F,0,0,1,0,0,0,1 @ F,0,0,1,0,0,0,1 @ F,0,0,1,0,0,0,1 @ F,0,0,1,0,0,0,1 @ F,0,0,1,0,0,0,1 @ F,0,0,1,0,0,0,1 @ F,0,0,1,0,0,0,1 @ F,0,0,1,0,0,0,1 @ F,0,0,1,0,0,0,1 @ F,0,0,1,0,0,0,1 @ F,0,0,1,0,0,0,1 @ F,0,0,1,0,0,0,1 @ F,0,0,1,0,0,0,1 @ F,0,0,1,0,28.02036,0,1 @ F,0,0,1,0,22.454315,0,1 @ F,0,0,1,0,0,0,1 @ F,0,0,1,0,0,0,1 @ F,0,0,1,0,0,0,1 @ F,0,0,1,0,0,0,1"
   unit="px"
   method="auto"
   mode="F"
   radius="0"
   chamfer_steps="1"
   flexible="false"
   use_knot_distance="true"
   apply_no_radius="true"
   apply_with_radius="true"
   only_selected="true"
   hide_knots="false" /><inkscape:path-effect
   effect="spiro"
   id="path-effect860"
   is_visible="true"
   lpeversion="1" /><inkscape:path-effect
   effect="spiro"
   id="path-effect844"
   is_visible="true"
   lpeversion="1" />
  <style
   type="text/css"
   id="style2">
   <![CDATA[
    .fil0 {fill:#EF7F1A;fill-rule:nonzero}
   ]]>
  </style>
 <inkscape:path-effect
   effect="spiro"
   id="path-effect1214"
   is_visible="true"
   lpeversion="1" /><inkscape:path-effect
   effect="spiro"
   id="path-effect1195"
   is_visible="true"
   lpeversion="1" /><inkscape:path-effect
   effect="spiro"
   id="path-effect992"
   is_visible="true"
   lpeversion="1" /></defs>
 
<path
   style="fill:#1a5fb4;fill-rule:nonzero;stroke:none;stroke-width:1px;stroke-linecap:butt;stroke-linejoin:miter;stroke-opacity:1"
   d="m 370.35465,848.90781 c -44.97243,0.17135 -88.03802,-16.69049 -129.94216,-33.01813 -41.90414,-16.32765 -85.30964,-32.62195 -130.26105,-31.23658 -27.943515,0.8612 -55.628396,8.77193 -79.865118,22.6936 -6.215321,3.5701 -11.838961,1.14308 -12.878756,-5.9506 L 0.70322716,687.43598 C -0.33656771,680.3423 3.5191582,671.16125 9.5652872,667.31004 38.327732,648.98919 71.176031,637.09405 105.01597,632.8411 c 42.86143,-5.38675 86.18387,1.31433 129.08437,6.38057 42.9005,5.06624 87.12218,8.40669 128.67696,-3.39671 22.31896,-6.33958 43.80929,-17.30973 59.46602,-34.4326 7.82837,-8.56144 14.10908,-18.59669 17.93553,-29.54839 3.82645,-10.95171 5.15935,-22.82504 3.38333,-34.28921 -3.14053,-20.27198 -16.00071,-38.3432 -32.82839,-50.07542 -16.82768,-11.73223 -37.31736,-17.49593 -57.78489,-18.87294 -19.58717,-1.31778 -39.42291,1.26368 -58.0384,7.49027 -6.79707,2.27351 -13.27402,-1.0493 -14.70118,-8.07529 l -15.07443,-74.21287 c -1.42716,-7.02599 3.14745,-13.72587 10.10514,-15.45076 6.9065,-1.7122 13.72531,-3.77812 20.42036,-6.18804 15.98994,-5.75568 31.47037,-13.61597 43.95799,-25.1427 12.48762,-11.52673 21.81876,-27.00795 23.77646,-43.88911 1.5483,-13.35091 -1.59441,-27.08666 -8.14031,-38.82528 -6.54589,-11.73862 -16.39389,-21.5025 -27.79677,-28.61716 -22.80576,-14.22931 -50.9802,-17.65027 -77.74946,-15.20439 -45.85458,4.18968 -90.00354,25.06058 -122.34297,57.83796 -34.242355,34.70607 -54.801804,82.13882 -58.680242,130.73932 -1.708097,21.40407 -0.104326,43.78725 9.951102,62.75934 5.027715,9.48604 12.153413,17.94785 21.066758,23.93243 8.913342,5.98458 19.649562,9.40562 30.377052,8.97678 11.62954,-0.4649 22.89898,-5.46413 31.56011,-13.2389 8.66114,-7.77477 14.76193,-18.20925 18.02312,-29.38185 6.52237,-22.3452 1.75423,-46.68514 -7.68777,-67.96184 C 160.94109,369.28933 143.55672,347.27329 121.92849,330.77347 100.30026,314.27365 74.473214,303.3244 47.576338,299.25224 L 139.2154,212.12418 c 43.97058,67.59326 73.26737,144.67918 85.28958,224.41453 4.68759,31.0897 6.71908,63.26893 -1.45774,93.62815 -4.08841,15.17961 -10.74685,29.75468 -20.31225,42.23021 -9.56539,12.47553 -22.09879,22.80299 -36.56282,28.96152 -20.07312,8.54678 -43.28602,8.68501 -64.022,1.90294 C 81.414183,596.47946 63.144122,583.06134 49.144748,566.32829 21.145998,532.86219 10.696762,487.95938 7.9709891,444.41079 3.2669439,369.25613 19.771963,291.90357 60.542956,228.59419 92.361049,179.18692 138.83248,138.99068 193.13452,116.52385 c 28.92799,-11.96861 60.16777,-18.949209 91.46095,-18.04732 31.29317,0.90189 62.63199,9.92573 88.35626,27.76776 34.47533,23.91166 57.42629,63.43056 62.05728,105.13032 3.48192,31.35292 -3.019,63.49679 -16.82796,91.85948 -13.80895,28.36269 -34.74546,52.99793 -59.41934,72.65319 -18.4794,14.72072 -39.0976,26.75216 -61.00492,35.59848 l -1.34743,-38.71735 c 24.88179,-4.50758 50.67569,-3.91772 75.32541,1.72258 27.81683,6.36499 54.2283,19.23884 75.81049,37.90696 21.58219,18.66811 38.22738,43.16443 46.80492,70.38051 12.61953,40.0411 6.98599,85.32225 -14.49103,121.3955 -21.47701,36.07326 -58.31962,62.49681 -99.22951,71.92669 -43.18926,9.95529 -88.25464,1.58781 -132.56436,2.62149 -27.95178,0.65208 -55.69215,5.06779 -83.07261,10.72795 -27.10841,5.60392 -53.96271,12.43696 -80.452756,20.4711 l 1.530622,-25.8775 c 31.098234,6.4869 61.874184,14.51856 92.176444,24.05547 29.89598,9.40904 59.40295,20.30184 90.01194,27.03899 30.60899,6.73715 62.75945,9.19928 93.17268,1.6273 46.12465,-11.48365 83.28983,-44.35969 123.21807,-70.14909 37.91063,-24.48623 79.98359,-43.24645 124.4493,-50.966 42.02619,-7.29603 85.05602,-4.62723 127.65292,-2.40533 42.5969,2.22189 85.79006,3.92778 127.45321,-5.2163 22.10182,-4.85083 44.04037,-13.02797 61.10443,-27.88862 8.53203,-7.43032 15.72831,-16.48475 20.47934,-26.75281 4.75102,-10.26806 7.00154,-21.76745 5.85631,-33.02328 -1.91665,-18.83775 -13.37839,-35.97576 -28.74994,-47.03243 -15.37154,-11.05667 -34.31595,-16.42402 -53.20914,-17.68162 -23.01194,-1.53176 -46.37958,2.88886 -67.29223,12.59768 -6.50037,3.01784 -13.20781,0.46616 -15.32002,-6.38511 l -24.64843,-79.95111 c -2.11221,-6.85127 1.77919,-13.95729 8.5995,-16.16601 9.72948,-3.15085 19.31562,-6.74437 28.71847,-10.76645 15.51602,-6.63699 30.71962,-14.56952 43.22257,-25.9041 12.50295,-11.33458 22.18853,-26.41249 24.51188,-43.12771 1.85906,-13.37487 -1.1191,-27.24883 -7.61448,-39.08746 -6.49538,-11.83863 -16.39656,-21.66573 -27.87501,-28.77827 -22.95691,-14.22508 -51.31636,-17.38892 -78.19705,-14.7811 -45.81116,4.44435 -89.96528,25.12559 -122.34297,57.83796 -34.30137,34.65594 -54.82225,82.13136 -58.68024,130.73932 -1.69874,21.40296 -0.0933,43.78279 9.96002,62.75389 5.02668,9.48555 12.1505,17.94752 21.06207,23.9331 8.91157,5.98557 19.64617,9.40843 30.37282,8.98156 11.63014,-0.46282 22.90084,-5.46109 31.56284,-13.23567 8.662,-7.77458 14.76325,-18.20955 18.02438,-29.3827 6.52225,-22.3463 1.75201,-46.68719 -7.69176,-67.96422 -11.03584,-24.864 -28.42059,-46.87908 -50.04859,-63.37872 -21.62799,-16.49964 -47.45421,-27.44952 -74.35053,-31.52335 l 91.63906,-87.12806 c 43.96879,67.59424 73.26538,144.67963 85.28958,224.41453 4.68843,31.08994 6.72102,63.26957 -1.4556,93.62923 -4.08832,15.17983 -10.7469,29.75509 -20.31269,42.23055 -9.5658,12.47545 -22.09987,22.80255 -36.56452,28.9601 -20.07282,8.54494 -43.28471,8.68111 -64.01921,1.89769 -20.73449,-6.78342 -39.00267,-20.20214 -53.00082,-36.93492 -27.9963,-33.46555 -38.44622,-78.36454 -41.18115,-121.91057 -4.72029,-75.15742 11.75392,-152.53307 52.57197,-215.8166 31.8483,-49.377 78.35016,-89.48113 132.59156,-112.07034 28.92808,-12.0473 60.17313,-19.16524 91.49783,-18.30856 31.32471,0.85668 62.72567,9.94771 88.31938,28.029 34.18423,24.15027 56.36003,63.66541 62.05728,105.13032 4.54114,33.05067 -0.93775,67.27548 -14.65455,97.6863 -13.71681,30.41082 -35.53637,56.98656 -62.0898,77.1827 -15.96381,12.14184 -33.63453,22.03611 -52.32935,29.3005 l -2.89679,-28.71935 c 21.14202,-3.46573 42.77688,-3.91072 64.04353,-1.31728 27.87802,3.39969 55.30861,12.1399 78.9945,27.2303 23.6859,15.0904 43.49458,36.70596 54.68815,62.4634 8.5627,19.70362 11.9791,41.56775 10.2213,62.9795 -1.7579,21.41174 -8.6523,42.34109 -19.63142,60.8076 -21.9582,36.93303 -60.14711,63.16416 -101.90765,73.27696 -38.20138,9.25091 -78.13899,5.66966 -117.4445,5.71443 -80.26375,0.0914 -160.48117,15.7428 -234.89233,45.83031 l 24.23762,-64.05623 c 35.39108,14.90007 71.48327,28.13469 108.11718,39.64542 63.02191,19.80209 128.49938,34.58312 194.52885,32.58471 49.00267,-1.48309 97.70112,-12.32258 142.72675,-31.71112 6.5846,-2.8354 13.064,0.34714 14.5806,7.35439 l 24.9693,115.37112 c 1.5166,7.00725 -2.9604,13.80071 -10.0428,14.91262 -55.10425,8.6511 -112.03194,5.58798 -165.87295,-9.00308 -43.70061,-11.84298 -85.00118,-31.03203 -127.54797,-46.51656 -42.54678,-15.48453 -87.52634,-27.39627 -132.65524,-23.73815 -42.26285,3.4258 -82.10067,20.24761 -121.4247,36.10652 -39.32404,15.8589 -80.05393,31.17738 -122.45509,31.33893 z"
   id="path842"
   inkscape:path-effect="#path-effect844;#path-effect846"
   inkscape:original-d="M 370.35465,848.90781 C 281.02344,850.14564 199.4322,781.40606 110.15144,784.6531 78.320125,785.81077 19.290281,814.24034 19.290281,814.24034 L -1.179488,674.59174 c 0,0 68.784337,-34.88475 106.195458,-41.75064 84.5147,-15.51058 179.85858,39.23953 257.76133,2.98386 38.44488,-17.89211 85.69903,-56.15147 80.78488,-98.2702 -4.39841,-37.69841 -53.74314,-59.94233 -90.61328,-68.94836 -23.05471,-5.63142 -70.15549,12.13667 -70.15549,12.13667 L 262.5508,381.08682 c 0,0 23.24201,-3.14902 33.10959,-8.91711 27.83139,-16.26883 70.41167,-36.9056 67.73445,-69.03181 -3.89082,-46.68914 -67.04018,-78.27297 -113.68654,-82.64683 -44.91155,-4.21119 -90.7626,25.62831 -122.34297,57.83796 -33.442324,34.10871 -62.227747,83.10311 -58.680242,130.73932 2.814007,37.78674 23.709056,99.60968 61.394912,95.66855 39.20382,-4.09987 52.73094,-72.6835 41.89546,-110.58259 C 157.63854,344.00828 47.576338,299.25224 47.576338,299.25224 L 139.2154,212.12418 c 0,0 84.36801,144.39471 85.28958,224.41453 0.67115,58.27545 -1.51737,151.83973 -58.33281,164.81988 C 93.756087,617.9029 28.157504,515.89721 7.9709891,444.41079 -12.150461,373.15479 21.589078,291.56153 60.542956,228.59419 c 30.44543,-49.21378 77.730064,-93.6547 132.591564,-112.07034 56.90611,-19.101968 128.51102,-21.43827 179.81721,9.72044 34.78155,21.12314 60.03878,64.48713 62.05728,105.13032 2.99805,60.36663 -35.56916,119.80911 -76.2473,164.51267 -15.84558,17.41363 -61.00492,35.59848 -61.00492,35.59848 l -1.34743,-38.71735 c 0,0 51.93866,-7.433 75.32541,1.72258 50.77662,19.87833 114.04531,54.43614 122.61541,108.28747 11.75022,73.83406 -49.19239,155.56436 -113.72054,193.32219 -38.14624,22.32079 -88.48889,-0.65052 -132.56436,2.62149 -27.8442,2.06706 -55.64792,5.4879 -83.07261,10.72795 -27.18041,5.19337 -71.073457,17.25383 -80.452756,20.4711 2.7877,7.08993 1.530622,-25.8775 1.530622,-25.8775 0,0 61.088444,17.58339 92.176444,24.05547 60.50735,12.59676 122.39134,39.80159 183.18462,28.66629 46.48895,-8.51522 80.72518,-49.45884 123.21807,-70.14909 40.30331,-19.62412 80.60038,-41.65284 124.4493,-50.966 83.21705,-17.67464 177.02521,26.15469 255.10613,-7.62163 37.88033,-16.3863 89.88035,-46.46428 87.44008,-87.66471 -2.05812,-34.74842 -47.97481,-57.18026 -81.95908,-64.71405 -26.34626,-5.84056 -78.78776,18.6179 -78.78776,18.6179 L 758.60093,389.5061 c 0,0 28.87562,-6.7136 41.14246,-14.52713 27.19021,-17.31916 70.41167,-36.9056 67.73445,-69.03181 -3.89082,-46.68914 -67.04018,-78.27297 -113.68654,-82.64683 -44.91155,-4.21119 -90.7626,25.62831 -122.34297,57.83796 -33.44232,34.10871 -62.22775,83.10311 -58.68024,130.73932 2.81401,37.78674 23.70905,99.60968 61.39491,95.66855 39.20382,-4.09987 52.73094,-72.6835 41.89546,-110.58259 C 661.72154,346.81754 551.65934,302.0615 551.65934,302.0615 l 91.63906,-87.12806 c 0,0 84.36801,144.39471 85.28958,224.41453 0.67115,58.27545 -1.51737,151.83973 -58.33281,164.81988 -72.41608,16.54431 -138.01467,-85.46138 -158.20118,-156.9478 -20.12145,-71.256 13.61809,-152.84926 52.57197,-215.8166 30.44543,-49.21378 77.73006,-93.6547 132.59156,-112.07034 56.90611,-19.10196 128.51102,-21.438265 179.81721,9.72044 34.78155,21.12314 59.62343,64.50989 62.05728,105.13032 3.80725,63.54212 -33.96486,127.73079 -76.74435,174.869 -13.435,14.80386 -52.32935,29.3005 -52.32935,29.3005 l -2.89679,-28.71935 c 0,0 43.55367,-7.32468 64.04353,-1.31728 51.49392,15.09745 121.30171,37.48001 133.68265,89.6937 17.4066,73.40828 -47.1032,157.46288 -111.31777,197.06406 -33.36069,20.57356 -78.53496,0.9969 -117.4445,5.71443 -79.19391,9.60175 -234.89233,45.83031 -234.89233,45.83031 l 24.23762,-64.05623 c 0,0 71.00908,29.82491 108.11718,39.64542 63.55828,16.82044 128.82194,34.86146 194.52885,32.58471 52.94778,-1.83465 154.56135,-37.04447 154.56135,-37.04447 l 30.4613,140.7466 c 0,0 -119.7415,2.1759 -178.66175,-6.7782 -88.82046,-13.49803 -170.36338,-70.5286 -260.20321,-70.25471 -84.3443,0.25714 -159.5432,66.27683 -243.87979,67.44545 z"
   sodipodi:nodetypes="aaccaaaaccaaaaaaaccaaaaaaaaccaaaaaccaaaaaaaccaaaaaaaccaaaaaaaaccaaaaccaaccaaa" /></svg>
