<?xml version="1.0" encoding="UTF-8" standalone="no"?>
<svg
   xmlns:dc="http://purl.org/dc/elements/1.1/"
   xmlns:cc="http://creativecommons.org/ns#"
   xmlns:rdf="http://www.w3.org/1999/02/22-rdf-syntax-ns#"
   xmlns:svg="http://www.w3.org/2000/svg"
   xmlns="http://www.w3.org/2000/svg"
   xmlns:sodipodi="http://sodipodi.sourceforge.net/DTD/sodipodi-0.dtd"
   xmlns:inkscape="http://www.inkscape.org/namespaces/inkscape"
   xml:space="preserve"
   width="1000"
   height="1000"
   version="1.1"
   style="clip-rule:evenodd;fill-rule:evenodd;image-rendering:optimizeQuality;shape-rendering:geometricPrecision;text-rendering:geometricPrecision"
   viewBox="0 0 1000 1000"
   id="svg10"
   sodipodi:docname="ള്ള.svg"
   inkscape:version="1.0.2 (e86c870879, 2021-01-15)"><metadata
   id="metadata14"><rdf:RDF><cc:Work
       rdf:about=""><dc:format>image/svg+xml</dc:format><dc:type
         rdf:resource="http://purl.org/dc/dcmitype/StillImage" /><dc:title /></cc:Work></rdf:RDF></metadata><sodipodi:namedview
   pagecolor="#ffffff"
   bordercolor="#666666"
   borderopacity="1"
   objecttolerance="10"
   gridtolerance="10"
   guidetolerance="10"
   inkscape:pageopacity="0"
   inkscape:pageshadow="2"
   inkscape:window-width="1920"
   inkscape:window-height="1007"
   id="namedview12"
   showgrid="false"
   inkscape:zoom="0.74386071"
   inkscape:cx="537.97542"
   inkscape:cy="497.11999"
   inkscape:window-x="1920"
   inkscape:window-y="0"
   inkscape:window-maximized="1"
   inkscape:current-layer="svg10"
   showguides="true"
   inkscape:guide-bbox="true"
   inkscape:document-rotation="0"><sodipodi:guide
     position="0,1000"
     orientation="0,1"
     id="guide16"
     inkscape:label=""
     inkscape:locked="true"
     inkscape:color="rgb(0,0,255)" /><sodipodi:guide
     position="1763.3122,2036.1693"
     orientation="1000,0"
     id="guide18" /><sodipodi:guide
     position="0,200"
     orientation="0,1"
     id="guide20"
     inkscape:label="base"
     inkscape:locked="true"
     inkscape:color="rgb(0,0,255)" /><inkscape:grid
     type="xygrid"
     id="grid24"
     originx="-473.37552"
     originy="-489.69235" /><sodipodi:guide
     position="0,0"
     orientation="0,1"
     id="guide34"
     inkscape:label="bottom"
     inkscape:locked="true"
     inkscape:color="rgb(0,0,255)" /><sodipodi:guide
     position="225.05109,1693.3186"
     orientation="0,1"
     id="guide44"
     inkscape:label=""
     inkscape:locked="false"
     inkscape:color="rgb(0,0,255)" /><sodipodi:guide
     position="0,900"
     orientation="0,1"
     id="guide46"
     inkscape:label=""
     inkscape:locked="true"
     inkscape:color="rgb(0,0,255)" /><sodipodi:guide
     position="998.19192,555.22746"
     orientation="-1,0"
     id="guide841"
     inkscape:label="width"
     inkscape:locked="false"
     inkscape:color="rgb(0,0,255)" /></sodipodi:namedview>
 <defs
   id="defs4"><inkscape:path-effect
   effect="fillet_chamfer"
   id="path-effect845"
   is_visible="true"
   lpeversion="1"
   satellites_param="F,0,0,1,0,0,0,1 @ F,0,0,1,0,0,0,1 @ F,0,0,1,0,0,0,1 @ F,0,0,1,0,19.685079,0,1 @ F,0,0,1,0,10.403621,0,1 @ F,0,0,1,0,0,0,1 @ F,0,0,1,0,0,0,1 @ F,0,0,1,0,0,0,1 @ F,0,0,1,0,0,0,1 @ F,0,0,1,0,0,0,1 @ F,0,0,1,0,0,0,1 @ F,0,0,1,0,0,0,1 @ F,0,0,1,0,0,0,1 @ F,0,0,1,0,29.328006,0,1 @ F,0,0,1,0,18.552057,0,1 @ F,0,0,1,0,0,0,1 @ F,0,0,1,0,0,0,1 @ F,0,0,1,0,0,0,1 @ F,0,0,1,0,0,0,1 @ F,0,0,1,0,0,0,1 @ F,0,0,1,0,0,0,1 @ F,0,0,1,0,0,0,1 @ F,0,0,1,0,0,0,1 @ F,0,0,1,0,0,0,1 @ F,0,0,1,0,0,0,1 @ F,0,0,1,0,0,0,1 @ F,0,0,1,0,0,0,1 @ F,0,0,1,0,0,0,1 @ F,0,0,1,0,0,0,1 @ F,0,0,1,0,0,0,1 @ F,0,0,1,0,0,0,1 @ F,0,0,1,0,0,0,1 @ F,0,0,1,0,0,0,1 @ F,0,0,1,0,0,0,1 @ F,0,0,1,0,0,0,1 @ F,0,0,1,0,0,0,1 @ F,0,0,1,0,0,0,1 @ F,0,0,1,0,0,0,1 @ F,0,0,1,0,0,0,1 @ F,0,0,1,0,0,0,1 @ F,0,0,1,0,0,0,1 @ F,0,0,1,0,0,0,1 @ F,0,0,1,0,0,0,1 @ F,0,0,1,0,0,0,1 @ F,0,0,1,0,0,0,1 @ F,0,0,1,0,0,0,1 @ F,0,0,1,0,0,0,1 @ F,0,0,1,0,0,0,1 @ F,0,0,1,0,0,0,1 @ F,0,0,1,0,0,0,1 @ F,0,0,1,0,0,0,1 @ F,0,0,1,0,0,0,1 @ F,0,0,1,0,0,0,1 @ F,0,0,1,0,0,0,1 @ F,0,0,1,0,0,0,1 @ F,0,0,1,0,0,0,1 @ F,0,0,1,0,0,0,1 @ F,0,0,1,0,0,0,1 @ F,0,0,1,0,0,0,1 @ F,0,0,1,0,0,0,1 @ F,0,0,1,0,0,0,1 @ F,0,0,1,0,0,0,1 @ F,0,0,1,0,0,0,1 @ F,0,0,1,0,13.212796,0,1 @ F,0,0,1,0,10.711141,0,1 @ F,0,0,1,0,0,0,1 @ F,0,0,1,0,0,0,1 @ F,0,0,1,0,0,0,1 @ F,0,0,1,0,0,0,1 @ F,0,0,1,0,0,0,1 @ F,0,0,1,0,0,0,1 @ F,0,0,1,0,0,0,1 @ F,0,0,1,0,0,0,1 @ F,0,0,1,0,0,0,1 @ F,0,0,1,0,0,0,1 @ F,0,0,1,0,0,0,1 @ F,0,0,1,0,0,0,1 @ F,0,0,1,0,0,0,1 @ F,0,0,1,0,0,0,1 @ F,0,0,1,0,0,0,1 @ F,0,0,1,0,0,0,1 @ F,0,0,1,0,0,0,1 @ F,0,0,1,0,0,0,1 @ F,0,0,1,0,0,0,1 @ F,0,0,1,0,0,0,1 @ F,0,0,1,0,0,0,1 @ F,0,0,1,0,0,0,1 @ F,0,0,1,0,0,0,1 @ F,0,0,1,0,0,0,1 @ F,0,0,1,0,0,0,1 @ F,0,0,1,0,0,0,1 @ F,0,0,1,0,0,0,1 @ F,0,0,1,0,0,0,1 @ F,0,0,1,0,0,0,1 @ F,0,0,1,0,0,0,1 @ F,0,0,1,0,0,0,1 @ F,0,0,1,0,0,0,1 @ F,0,0,1,0,0,0,1 @ F,0,0,1,0,0,0,1 @ F,0,0,1,0,0,0,1 @ F,0,0,1,0,0,0,1 @ F,0,0,1,0,0,0,1 @ F,0,0,1,0,0,0,1 @ F,0,0,1,0,28.02036,0,1 @ F,0,0,1,0,22.454315,0,1 @ F,0,0,1,0,0,0,1 @ F,0,0,1,0,0,0,1 @ F,0,0,1,0,0,0,1 @ F,0,0,1,0,0,0,1"
   unit="px"
   method="auto"
   mode="F"
   radius="0"
   chamfer_steps="1"
   flexible="false"
   use_knot_distance="true"
   apply_no_radius="true"
   apply_with_radius="true"
   only_selected="true"
   hide_knots="false" /><inkscape:path-effect
   effect="spiro"
   id="path-effect860"
   is_visible="true"
   lpeversion="1" /><inkscape:path-effect
   effect="spiro"
   id="path-effect844"
   is_visible="true"
   lpeversion="1" />
  <style
   type="text/css"
   id="style2">
   <![CDATA[
    .fil0 {fill:#EF7F1A;fill-rule:nonzero}
   ]]>
  </style>
 <inkscape:path-effect
   effect="spiro"
   id="path-effect1214"
   is_visible="true"
   lpeversion="1" /><inkscape:path-effect
   effect="spiro"
   id="path-effect1195"
   is_visible="true"
   lpeversion="1" /><inkscape:path-effect
   effect="spiro"
   id="path-effect992"
   is_visible="true"
   lpeversion="1" /></defs>
 
<path
   style="fill:#2d2d2d;fill-rule:nonzero;stroke:none;stroke-width:1px;stroke-linecap:butt;stroke-linejoin:miter;stroke-opacity:1"
   d="m 370.35465,848.90781 c -44.93692,0.52452 -88.21655,-15.548 -130.20339,-31.57012 -41.98683,-16.02212 -85.06045,-32.44958 -129.99982,-32.68459 -32.19971,-0.16839 -64.376982,8.3152 -92.409111,24.13769 -9.4631007,5.34136 -16.7315711,1.76659 -16.90667973,-9.10377 L -1.0119197,684.99401 C -1.1044651,679.249 2.5935185,671.8555 7.4090319,668.72198 36.707713,649.65694 70.337722,637.2664 105.01597,632.8411 c 42.84021,-5.46684 86.16985,1.05703 129.06721,6.05569 42.89735,4.99865 87.05482,8.38847 128.69412,-3.07183 22.46451,-6.18286 44.18383,-16.97371 59.96154,-34.11855 7.88886,-8.57243 14.19416,-18.66651 17.95336,-29.69325 3.75919,-11.02674 4.92771,-22.99165 2.86998,-34.4584 -3.18498,-17.74841 -14.05571,-33.63908 -28.34405,-44.63877 -14.28835,-10.9997 -31.7907,-17.34704 -49.61503,-20.07528 -21.7691,-3.33204 -44.30269,-1.31031 -65.20451,5.60432 -15.34893,5.07766 -27.25276,-1.05163 -27.97098,-17.23311 l -2.91046,-65.57215 c -0.45432,-10.23594 7.50341,-19.12958 17.50787,-21.30841 2.89977,-0.63152 5.78008,-1.35241 8.63537,-2.16165 16.49964,-4.67627 32.3492,-12.46022 44.82832,-24.22361 12.47913,-11.76339 21.38537,-27.72625 22.90613,-44.8082 1.18542,-13.31526 -2.14717,-26.88914 -8.7516,-38.51165 -6.60444,-11.62251 -16.39097,-21.31428 -27.70612,-28.43246 -22.63032,-14.23637 -50.58831,-17.95847 -77.22882,-15.70272 -45.90461,3.88691 -90.04886,24.98326 -122.34297,57.83796 -34.172259,34.76545 -54.777537,82.14767 -58.680242,130.73932 -1.719202,21.40537 -0.117376,43.79255 9.940512,62.76581 5.028943,9.48663 12.156872,17.94823 21.072327,23.93163 8.915453,5.98341 19.653583,9.40229 30.382073,8.97111 11.62884,-0.46736 22.89676,-5.46772 31.55688,-13.24273 8.66011,-7.775 14.76035,-18.20889 18.02161,-29.38084 6.52252,-22.34389 1.75686,-46.68271 -7.68303,-67.95902 C 160.94283,369.28818 143.55891,347.27099 121.9304,330.77096 100.3019,314.27092 74.47387,303.32241 47.576338,299.25224 L 139.2154,212.12418 c 43.96815,67.5946 73.26466,144.67979 85.28958,224.41453 4.68873,31.09003 6.72171,63.2698 -1.45484,93.62961 -4.08827,15.17991 -10.74691,29.75524 -20.31285,42.23067 -9.56594,12.47544 -22.10025,22.8024 -36.56512,28.9596 -20.07271,8.54428 -43.28424,8.67971 -64.0182,1.89581 C 81.420007,596.47049 63.152501,583.05156 49.154791,566.31888 21.159369,532.85352 10.709202,487.95589 7.9709891,444.41079 3.2448607,369.25238 19.708002,291.86843 60.542956,228.59419 92.40211,179.22806 138.91495,139.15697 193.13452,116.52385 c 28.92816,-12.07561 60.17509,-19.242967 91.51121,-18.402532 31.33612,0.840434 62.75969,9.955842 88.306,28.122972 34.08027,24.23601 55.97936,63.75511 62.05728,105.13032 4.32695,29.4555 1.02977,59.99828 -9.48382,87.8517 -10.51358,27.85343 -28.22076,52.95699 -50.932,72.20662 28.06103,5.79487 54.46309,19.4172 75.44745,38.92767 20.98436,19.51047 36.49003,44.85235 44.30954,72.41786 11.4227,40.26754 5.90923,85.11715 -15.21702,121.25072 -21.12624,36.13356 -57.64356,62.99311 -98.50352,72.07147 -35.44971,7.8763 -72.33036,2.7581 -108.62721,3.87902 -23.11412,0.71381 -46.14833,3.986 -68.5468,9.7376 20.64462,20.29994 46.65327,35.09528 74.65233,42.4669 27.99907,7.37162 57.92141,7.30184 85.88579,-0.20029 44.37043,-11.90345 81.55714,-41.2488 120.65592,-65.36752 38.37599,-23.67286 80.08583,-42.90353 124.4493,-50.966 41.96691,-7.62693 85.02652,-5.08831 127.62186,-2.84582 42.59534,2.2425 85.76785,4.11983 127.48427,-4.77581 22.18953,-4.73171 44.25468,-12.79382 61.38827,-27.66677 8.56679,-7.43647 15.77844,-16.52825 20.49172,-26.84697 4.71329,-10.31872 6.86934,-21.88257 5.56009,-33.15097 -2.17225,-18.69598 -13.8595,-35.49989 -29.20285,-46.40126 -15.34336,-10.90138 -34.03773,-16.34397 -52.75623,-18.31279 -27.08819,-2.84914 -54.87342,1.37289 -79.94066,12.00929 -6.71558,2.84952 -12.19668,-0.24867 -12.52025,-7.53872 l -3.97272,-89.50471 c -0.26231,-5.90979 4.31419,-11.07202 10.15272,-12.01531 5.50994,-0.8902 10.96831,-2.09963 16.3382,-3.62155 16.49964,-4.67627 32.3492,-12.46022 44.82832,-24.22361 12.47913,-11.76339 21.38537,-27.72625 22.90613,-44.8082 1.18542,-13.31526 -2.14717,-26.88914 -8.7516,-38.51165 -6.60444,-11.62251 -16.39097,-21.31428 -27.70612,-28.43246 -22.63032,-14.23637 -50.58831,-17.95847 -77.22882,-15.70272 -45.90461,3.88691 -90.04886,24.98326 -122.34297,57.83796 -34.17226,34.76545 -54.77754,82.14767 -58.68024,130.73932 -1.7192,21.40537 -0.11738,43.79254 9.94051,62.7658 5.02894,9.48663 12.15687,17.94824 21.07233,23.93164 8.91545,5.9834 19.65358,9.40229 30.38207,8.97111 11.62884,-0.46736 22.89676,-5.46772 31.55688,-13.24272 8.66011,-7.77501 14.76035,-18.2089 18.02161,-29.38085 6.52252,-22.34389 1.75686,-46.68271 -7.68303,-67.95902 -11.03263,-24.86613 -28.41655,-46.88331 -50.04505,-63.38335 -21.62851,-16.50004 -47.45654,-27.44855 -74.35407,-31.51872 l 91.63906,-87.12806 c 43.96815,67.5946 73.26466,144.67979 85.28958,224.41453 4.68873,31.09003 6.72171,63.2698 -1.45484,93.62961 -4.08827,15.17991 -10.74691,29.75524 -20.31285,42.23067 -9.56594,12.47544 -22.10025,22.8024 -36.56512,28.9596 -20.07271,8.54428 -43.28424,8.67971 -64.0182,1.89581 -20.73396,-6.78391 -39.00147,-20.20284 -52.99918,-36.93552 -27.99542,-33.46536 -38.44559,-78.36299 -41.1838,-121.90809 -4.72613,-75.15841 11.73702,-152.54236 52.57197,-215.8166 31.85915,-49.36613 78.37199,-89.43721 132.59156,-112.07034 28.92816,-12.07561 60.17509,-19.24297 91.51121,-18.40253 31.33612,0.84043 62.75969,9.95584 88.306,28.12297 34.08027,24.23601 55.97936,63.75511 62.05728,105.13032 4.32695,29.4555 1.02977,59.99828 -9.48382,87.8517 -10.51358,27.85343 -28.22076,52.95699 -50.932,72.20662 28.05843,5.80124 54.45692,19.42568 75.44037,38.93529 20.98344,19.50962 36.49095,44.84779 44.31662,72.41024 10.97072,38.63931 6.40332,81.55007 -12.90328,116.7723 -19.30665,35.22223 -53.22126,62.24722 -91.99997,72.71448 -37.96679,10.24811 -78.12685,4.92453 -117.4445,5.71443 -23.02209,0.46252 -46.00092,3.05638 -68.5468,7.7376 47.9399,29.69919 104.14539,45.89744 160.53812,46.26661 52.29903,0.34237 104.59392,-12.9913 150.47395,-38.06698 13.5745,-7.41915 23.921,-2.00489 23.9039,13.47032 l -0.1274,115.1797 c -0.014,12.40117 -10.0359,23.45441 -22.4241,23.99034 -49.01684,2.12053 -98.38205,-3.84678 -145.46545,-17.64945 -43.4663,-12.7423 -84.71435,-31.98838 -127.3463,-47.29206 -42.63194,-15.30368 -87.72089,-26.76073 -132.85691,-22.96265 -42.24053,3.55443 -82.09757,20.20976 -121.4537,35.95749 -39.35613,15.74773 -80.03917,30.9932 -122.42609,31.48796 z"
   id="path842"
   inkscape:path-effect="#path-effect844;#path-effect845"
   inkscape:original-d="M 370.35465,848.90781 C 281.02344,850.14564 199.44222,781.69437 110.15144,784.6531 72.041071,785.91592 1.1527115,819.36955 1.1527115,819.36955 L -1.179488,674.59174 c 0,0 68.784337,-34.88475 106.195458,-41.75064 84.5147,-15.51058 179.85858,39.23953 257.76133,2.98386 38.44488,-17.89211 84.80543,-56.05679 80.78488,-98.2702 -3.20217,-33.62083 -45.24783,-56.31238 -77.95908,-64.71405 -30.20588,-7.75819 -91.87503,17.67037 -91.87503,17.67037 l -5.03355,-113.40512 c 0,0 18.8944,-0.65207 26.96587,-4.93625 28.47504,-15.11398 70.41167,-36.9056 67.73445,-69.03181 -3.89082,-46.68914 -67.04018,-78.27297 -113.68654,-82.64683 -44.91155,-4.21119 -90.7626,25.62831 -122.34297,57.83796 -33.442324,34.10871 -62.227747,83.10311 -58.680242,130.73932 2.814007,37.78674 23.709056,99.60968 61.394912,95.66855 39.20382,-4.09987 52.73094,-72.6835 41.89546,-110.58259 C 157.63854,344.00828 47.576338,299.25224 47.576338,299.25224 L 139.2154,212.12418 c 0,0 84.36801,144.39471 85.28958,224.41453 0.67115,58.27545 -1.51737,151.83973 -58.33281,164.81988 C 93.756087,617.9029 28.157504,515.89721 7.9709891,444.41079 -12.150461,373.15479 21.589078,291.56153 60.542956,228.59419 c 30.44543,-49.21378 77.730064,-93.6547 132.591564,-112.07034 56.90611,-19.101968 128.51102,-21.43827 179.81721,9.72044 34.78155,21.12314 58.55545,64.58799 62.05728,105.13032 4.90742,56.81548 -60.41582,160.05832 -60.41582,160.05832 0,0 111.87976,57.41027 119.75699,111.34553 10.80453,73.97837 -49.49501,155.05186 -113.72054,193.32219 -31.12533,18.54677 -72.53655,0.68013 -108.62721,3.87902 -22.98821,2.03756 -40.52569,0.12586 -68.5468,9.7376 7.66526,19.49497 105.59666,48.86529 160.53812,42.26661 45.41536,-5.45456 79.32178,-45.77682 120.65592,-65.36752 40.50757,-19.19894 80.60038,-41.65284 124.4493,-50.966 83.21705,-17.67464 177.02521,26.15469 255.10613,-7.62163 37.88033,-16.3863 89.88035,-46.46428 87.44008,-87.66471 -2.05812,-34.74842 -48.14065,-56.46767 -81.95908,-64.71405 -30.29853,-7.38808 -91.87503,17.67037 -91.87503,17.67037 l -5.03355,-113.40512 c 0,0 18.8944,-0.65207 26.96587,-4.93625 28.47504,-15.11398 70.41167,-36.9056 67.73445,-69.03181 -3.89082,-46.68914 -67.04018,-78.27297 -113.68654,-82.64683 -44.91155,-4.21119 -90.7626,25.62831 -122.34297,57.83796 -33.44232,34.10871 -62.22775,83.10311 -58.68024,130.73932 2.81401,37.78674 23.70905,99.60968 61.39491,95.66855 39.20382,-4.09987 52.73094,-72.6835 41.89546,-110.58259 C 661.72154,346.81754 551.65934,302.0615 551.65934,302.0615 l 91.63906,-87.12806 c 0,0 84.36801,144.39471 85.28958,224.41453 0.67115,58.27545 -1.51737,151.83973 -58.33281,164.81988 -72.41608,16.54431 -138.01467,-85.46138 -158.20118,-156.9478 -20.12145,-71.256 13.61809,-152.84926 52.57197,-215.8166 30.44543,-49.21378 77.73006,-93.6547 132.59156,-112.07034 56.90611,-19.10196 128.51102,-21.438265 179.81721,9.72044 34.78155,21.12314 58.55545,64.58799 62.05728,105.13032 4.90742,56.81548 -60.41582,160.05832 -60.41582,160.05832 0,0 111.17622,57.51772 119.75699,111.34553 11.36532,71.29547 -43.61647,151.32731 -104.90325,189.48678 -33.27213,20.71649 -78.37698,2.56224 -117.4445,5.71443 -22.91956,1.84928 -40.52569,-1.87414 -68.5468,7.7376 7.66526,19.49497 104.84849,46.61219 160.53812,46.26661 60.72316,-0.37682 174.40885,-52.617 174.40885,-52.617 l -0.1832,165.65434 c 0,0 -112.55784,-6.06614 -167.86475,-16.11341 -88.39352,-16.05792 -170.36338,-70.5286 -260.20321,-70.25471 -84.3443,0.25714 -159.5432,66.27683 -243.87979,67.44545 z"
   sodipodi:nodetypes="aaccaaaaccaaaaaaaccaaaaaaacaaacaaaaaaccaaaaaaaccaaaaaaacaaacaccaaa" /></svg>
