<?xml version="1.0" encoding="UTF-8" standalone="no"?>
<svg
   xmlns:dc="http://purl.org/dc/elements/1.1/"
   xmlns:cc="http://creativecommons.org/ns#"
   xmlns:rdf="http://www.w3.org/1999/02/22-rdf-syntax-ns#"
   xmlns:svg="http://www.w3.org/2000/svg"
   xmlns="http://www.w3.org/2000/svg"
   xmlns:sodipodi="http://sodipodi.sourceforge.net/DTD/sodipodi-0.dtd"
   xmlns:inkscape="http://www.inkscape.org/namespaces/inkscape"
   xml:space="preserve"
   width="1000"
   height="1000"
   version="1.1"
   style="clip-rule:evenodd;fill-rule:evenodd;image-rendering:optimizeQuality;shape-rendering:geometricPrecision;text-rendering:geometricPrecision"
   viewBox="0 0 1000 1000"
   id="svg10"
   sodipodi:docname="ഴ.svg"
   inkscape:version="1.0.2 (e86c870879, 2021-01-15)"><metadata
   id="metadata14"><rdf:RDF><cc:Work
       rdf:about=""><dc:format>image/svg+xml</dc:format><dc:type
         rdf:resource="http://purl.org/dc/dcmitype/StillImage" /><dc:title /></cc:Work></rdf:RDF></metadata><sodipodi:namedview
   pagecolor="#ffffff"
   bordercolor="#666666"
   borderopacity="1"
   objecttolerance="10"
   gridtolerance="10"
   guidetolerance="10"
   inkscape:pageopacity="0"
   inkscape:pageshadow="2"
   inkscape:window-width="1920"
   inkscape:window-height="1009"
   id="namedview12"
   showgrid="false"
   inkscape:zoom="0.84890884"
   inkscape:cx="176.0361"
   inkscape:cy="390.97091"
   inkscape:window-x="1920"
   inkscape:window-y="0"
   inkscape:window-maximized="1"
   inkscape:current-layer="svg10"
   showguides="true"
   inkscape:guide-bbox="true"
   inkscape:document-rotation="0"><sodipodi:guide
     position="0,1000"
     orientation="0,1"
     id="guide16"
     inkscape:label=""
     inkscape:locked="true"
     inkscape:color="rgb(0,0,255)" /><sodipodi:guide
     position="1763.3122,2036.1693"
     orientation="1000,0"
     id="guide18" /><sodipodi:guide
     position="0,200"
     orientation="0,1"
     id="guide20"
     inkscape:label="base"
     inkscape:locked="true"
     inkscape:color="rgb(0,0,255)" /><inkscape:grid
     type="xygrid"
     id="grid24"
     originx="-473.37552"
     originy="-489.69235" /><sodipodi:guide
     position="0,0"
     orientation="0,1"
     id="guide34"
     inkscape:label="bottom"
     inkscape:locked="true"
     inkscape:color="rgb(0,0,255)" /><sodipodi:guide
     position="225.05109,1693.3186"
     orientation="0,1"
     id="guide44"
     inkscape:label=""
     inkscape:locked="false"
     inkscape:color="rgb(0,0,255)" /><sodipodi:guide
     position="0,900"
     orientation="0,1"
     id="guide46"
     inkscape:label=""
     inkscape:locked="true"
     inkscape:color="rgb(0,0,255)" /><sodipodi:guide
     position="559.07678,556.72157"
     orientation="-1,0"
     id="guide841"
     inkscape:label="width"
     inkscape:locked="false"
     inkscape:color="rgb(0,0,255)" /></sodipodi:namedview>
 <defs
   id="defs4"><inkscape:path-effect
   effect="fillet_chamfer"
   id="path-effect844"
   is_visible="true"
   lpeversion="1"
   satellites_param="F,0,0,1,0,12.641699,0,1 @ F,0,0,1,0,0,0,1 @ F,0,0,1,0,0,0,1 @ F,0,0,1,0,0,0,1 @ F,0,0,1,0,0,0,1 @ F,0,0,1,0,0,0,1 @ F,0,0,1,0,0,0,1 @ F,0,0,1,0,0,0,1 @ F,0,0,1,0,0,0,1 @ F,0,0,1,0,0,0,1 @ F,0,0,1,0,0,0,1 @ F,0,0,1,0,0,0,1 @ F,0,0,1,0,0,0,1 @ F,0,0,1,0,0,0,1 @ F,0,0,1,0,0,0,1 @ F,0,0,1,0,0,0,1 @ F,0,0,1,0,0,0,1 @ F,0,0,1,0,0,0,1 @ F,0,0,1,0,0,0,1 @ F,0,0,1,0,0,0,1 @ F,0,0,1,0,0,0,1 @ F,0,0,1,0,0,0,1 @ F,0,0,1,0,0,0,1 @ F,0,0,1,0,15.510821,0,1 @ F,0,0,1,0,15.54861,0,1 @ F,0,0,1,0,0,0,1 @ F,0,0,1,0,0,0,1 @ F,0,0,1,0,0,0,1 @ F,0,0,1,0,0,0,1 @ F,0,0,1,0,0,0,1 @ F,0,0,1,0,0,0,1 @ F,0,0,1,0,0,0,1 @ F,0,0,1,0,0,0,1 @ F,0,0,1,0,0,0,1 @ F,0,0,1,0,0,0,1 @ F,0,0,1,0,0,0,1 @ F,0,0,1,0,0,0,1 @ F,0,0,1,0,0,0,1 @ F,0,0,1,0,0,0,1 @ F,0,0,1,0,0,0,1 @ F,0,0,1,0,0,0,1 @ F,0,0,1,0,0,0,1 @ F,0,0,1,0,0,0,1 @ F,0,0,1,0,0,0,1 @ F,0,0,1,0,0,0,1 @ F,0,0,1,0,0,0,1 @ F,0,0,1,0,17.066229,0,1"
   unit="px"
   method="auto"
   mode="F"
   radius="0"
   chamfer_steps="1"
   flexible="false"
   use_knot_distance="true"
   apply_no_radius="true"
   apply_with_radius="true"
   only_selected="true"
   hide_knots="false" /><inkscape:path-effect
   effect="fillet_chamfer"
   id="path-effect843"
   is_visible="true"
   lpeversion="1"
   satellites_param="F,0,0,1,0,24.961778,0,1 @ F,0,0,1,0,0,0,1 @ F,0,0,1,0,0,0,1 @ F,0,0,1,0,0,0,1 @ F,0,0,1,0,0,0,1 @ F,0,0,1,0,0,0,1 @ F,0,0,1,0,0,0,1 @ F,0,0,1,0,0,0,1 @ F,0,0,1,0,0,0,1 @ F,0,0,1,0,0,0,1 @ F,0,0,1,0,0,0,1 @ F,0,0,1,0,0,0,1 @ F,0,0,1,0,0,0,1 @ F,0,0,1,0,0,0,1 @ F,0,0,1,0,0,0,1 @ F,0,0,1,0,0,0,1 @ F,0,0,1,0,0,0,1 @ F,0,0,1,0,0,0,1 @ F,0,0,1,0,0,0,1 @ F,0,0,1,0,0,0,1 @ F,0,0,1,0,0,0,1 @ F,0,0,1,0,0,0,1 @ F,0,0,1,0,0,0,1 @ F,0,0,1,0,23.69385,0,1 @ F,0,0,1,0,29.807989,0,1 @ F,0,0,1,0,0,0,1 @ F,0,0,1,0,0,0,1 @ F,0,0,1,0,0,0,1 @ F,0,0,1,0,0,0,1 @ F,0,0,1,0,0,0,1 @ F,0,0,1,0,0,0,1 @ F,0,0,1,0,0,0,1 @ F,0,0,1,0,0,0,1 @ F,0,0,1,0,0,0,1 @ F,0,0,1,0,0,0,1 @ F,0,0,1,0,0,0,1 @ F,0,0,1,0,0,0,1 @ F,0,0,1,0,0,0,1 @ F,0,0,1,0,0,0,1 @ F,0,0,1,0,0,0,1 @ F,0,0,1,0,0,0,1 @ F,0,0,1,0,0,0,1 @ F,0,0,1,0,0,0,1 @ F,0,0,1,0,0,0,1 @ F,0,0,1,0,0,0,1 @ F,0,0,1,0,0,0,1 @ F,0,0,1,0,0,0,1 @ F,0,0,1,0,29.801292,0,1"
   unit="px"
   method="auto"
   mode="F"
   radius="0"
   chamfer_steps="1"
   flexible="false"
   use_knot_distance="true"
   apply_no_radius="true"
   apply_with_radius="true"
   only_selected="true"
   hide_knots="false" />
  <style
   type="text/css"
   id="style2">
   <![CDATA[
    .fil0 {fill:#EF7F1A;fill-rule:nonzero}
   ]]>
  </style>
 <inkscape:path-effect
   effect="spiro"
   id="path-effect1214"
   is_visible="true"
   lpeversion="1" /><inkscape:path-effect
   effect="spiro"
   id="path-effect1195"
   is_visible="true"
   lpeversion="1" /><inkscape:path-effect
   effect="spiro"
   id="path-effect992"
   is_visible="true"
   lpeversion="1" /><inkscape:path-effect
   effect="spiro"
   id="path-effect1060"
   is_visible="true"
   lpeversion="1" /></defs>
 
<path
   style="display:inline;fill:#613583;fill-rule:nonzero;stroke:none;stroke-width:2.01241px;stroke-linecap:butt;stroke-linejoin:miter;stroke-opacity:1"
   d="M 27.965295,100.03934 C 12.260747,152.68275 4.4204722,207.66822 4.812991,262.60375 c 0.316085,44.23813 5.973695,88.54031 18.307508,131.02547 12.451746,42.8914 31.88039,84.08748 59.860375,118.89895 27.979986,34.81147 64.772206,63.05646 106.889956,77.91623 49.14647,17.33961 104.42886,15.68914 153.10466,-2.93083 41.0932,-15.7194 77.27113,-43.00691 106.20288,-76.15362 28.93176,-33.1467 50.82046,-72.04057 67.25693,-112.85225 16.13098,-40.05316 27.2322,-82.76226 26.3037,-125.93172 -0.92851,-43.16945 -14.68867,-86.95566 -43.4139,-119.19423 -26.24706,-29.45731 -63.93515,-47.84018 -103.05288,-52.98267 -39.11772,-5.142484 -79.44824,2.53905 -115.15538,19.32123 -38.96202,18.31196 -73.01089,47.76944 -94.57137,85.0322 -21.56048,37.26275 -30.1183,82.35637 -21.26048,124.48601 8.61727,40.98555 32.95068,77.40853 63.04735,106.53349 30.09667,29.12495 65.87972,51.63917 102.0036,72.83204 21.40585,12.55822 43.1956,24.8459 61.90827,41.1479 18.71267,16.30201 34.38756,37.19088 39.90791,61.38685 3.52714,15.45965 2.74412,31.87014 -2.17287,46.94545 -4.91699,15.07531 -13.94708,28.77741 -25.81514,39.29362 -12.66408,11.22156 -28.41751,18.74535 -44.92667,22.45345 -16.50916,3.7081 -33.75408,3.67374 -50.43288,0.82418 -33.3576,-5.69913 -63.89176,-22.33948 -91.67602,-41.65902 -11.38497,-7.91644 -22.42824,-16.32425 -33.0893,-25.19156 -6.58573,-5.47767 -15.12896,-4.03415 -19.28042,3.45908 l -55.36756,99.93635 c -4.16157,7.51148 -0.81964,15.4368 7.5069,17.53628 50.18212,12.65305 101.4884,20.84625 153.11606,24.44413 47.02078,3.27683 95.16582,2.6139 140.03324,-11.82931 22.43371,-7.2216 43.86571,-17.89468 62.3898,-32.46454 18.52409,-14.56987 34.08959,-33.10583 44.11898,-54.43267 17.79882,-37.84802 16.84641,-83.87135 -2.04003,-121.18854 -11.07869,-21.89008 -27.7787,-40.57717 -46.6037,-56.31034 -18.82499,-15.73316 -39.80403,-28.6704 -61.01144,-41.00566 -42.41481,-24.67054 -87.32302,-48.19832 -117.88614,-86.58514 -14.74814,-18.52345 -25.70862,-40.22694 -30.62347,-63.38876 -4.91486,-23.16182 -3.64256,-47.77853 4.8152,-69.89396 9.08193,-23.74753 26.5389,-44.29419 48.78457,-56.60504 22.24567,-12.31085 49.14221,-16.17415 73.82634,-10.08147 20.48676,5.05666 39.14602,16.77867 53.24048,32.48291 14.09447,15.70424 23.66797,35.2794 28.25857,55.8756 6.52326,29.26724 3.02636,60.31564 -7.52162,88.38457 -10.54798,28.06892 -27.91927,53.26618 -48.60779,74.97124 -19.51422,20.47306 -42.18696,38.10559 -67.54353,50.63535 -25.35658,12.52976 -53.44564,19.8689 -81.72903,19.84663 -37.44789,-0.0295 -74.60655,-13.19407 -104.32997,-35.97265 -29.72342,-22.77857 -51.96502,-54.93845 -63.73664,-90.48805 -18.403863,-55.57857 -11.141135,-116.96226 7.74699,-172.37813 8.44788,-24.78522 19.15876,-48.79821 31.94869,-71.64737 4.60346,-8.22406 1.53917,-17.57373 -7.20574,-21.09013 L 43.446772,92.684027 c -6.477734,-2.604753 -13.485628,0.665 -15.481477,7.355313 z"
   id="path1058"
   inkscape:path-effect="#path-effect1060;#path-effect844"
   inkscape:original-d="m 31.717797,87.967705 c 0,0 -26.491507,115.738695 -26.904806,174.636045 -0.30945,44.09835 0.290932,90.77422 18.307508,131.02547 C 58.24948,472.11169 111.51263,555.0391 189.87083,590.4444 236.3871,611.46227 296.44491,608.49974 342.97549,587.51357 420.92645,552.35621 488.20653,479.22652 516.4353,398.5077 543.474,321.19185 554.77859,213.66228 499.3251,153.38175 449.49838,99.217782 347.18174,87.287822 281.11684,119.72031 209.48165,154.88736 155.77799,250.00507 165.28499,329.23852 c 9.67951,80.67119 108.90735,120.63368 165.05095,179.36553 33.28288,34.81724 90.6463,55.68154 101.81618,102.53475 7.00864,29.39844 -2.70002,69.68892 -27.98801,86.23907 -52.41751,34.30552 -128.9141,4.99294 -187.03557,-18.38139 -17.65195,-7.09897 -44.85284,-35.30017 -44.85284,-35.30017 4.46099,62.95021 -47.59324,68.37498 -70.41963,127.10478 0,0 111.63696,34.44198 168.15815,28.37967 88.02003,-9.44079 197.54524,-24.99749 246.54202,-98.72652 C 538.9179,666.80502 532.15318,615.61472 514.51621,579.2657 472.17465,492.00161 338.79692,478.60867 289.01493,395.36456 265.789,356.52678 243.90326,303.01099 263.20666,262.08184 c 19.84575,-42.07908 76.70951,-74.27365 122.61091,-66.68651 39.53205,6.53433 73.26256,49.14575 81.49905,88.35851 11.83548,56.34706 -17.71992,120.46314 -56.12941,163.35581 -36.70745,40.99197 -94.53309,76.08283 -149.27256,70.48198 C 192.1688,510.45536 123.7367,454.55079 93.84804,391.13093 69.32775,339.10205 87.80821,274.5934 101.59503,218.7528 c 7.62458,-30.88176 40.57701,-86.37049 40.57701,-86.37049 z"
   sodipodi:nodetypes="caaaaaaaaaaaaccaaaaaaaaaaacc" /></svg>
