<?xml version="1.0" encoding="UTF-8" standalone="no"?>
<svg
   xml:space="preserve"
   width="1000"
   height="1000"
   version="1.1"
   style="clip-rule:evenodd;fill-rule:evenodd;image-rendering:optimizeQuality;shape-rendering:geometricPrecision;text-rendering:geometricPrecision"
   viewBox="0 0 1000 1000"
   id="svg10"
   sodipodi:docname="വ.svg"
   inkscape:version="1.1.1 (3bf5ae0d25, 2021-09-20)"
   xmlns:inkscape="http://www.inkscape.org/namespaces/inkscape"
   xmlns:sodipodi="http://sodipodi.sourceforge.net/DTD/sodipodi-0.dtd"
   xmlns="http://www.w3.org/2000/svg"
   xmlns:svg="http://www.w3.org/2000/svg"
   xmlns:rdf="http://www.w3.org/1999/02/22-rdf-syntax-ns#"
   xmlns:cc="http://creativecommons.org/ns#"
   xmlns:dc="http://purl.org/dc/elements/1.1/"><metadata
   id="metadata14"><rdf:RDF><cc:Work
       rdf:about=""><dc:format>image/svg+xml</dc:format><dc:type
         rdf:resource="http://purl.org/dc/dcmitype/StillImage" /></cc:Work></rdf:RDF></metadata><sodipodi:namedview
   pagecolor="#ffffff"
   bordercolor="#666666"
   borderopacity="1"
   objecttolerance="10"
   gridtolerance="10"
   guidetolerance="10"
   inkscape:pageopacity="0"
   inkscape:pageshadow="2"
   inkscape:window-width="1920"
   inkscape:window-height="1009"
   id="namedview12"
   showgrid="false"
   inkscape:zoom="1.2005384"
   inkscape:cx="298.61602"
   inkscape:cy="592.23428"
   inkscape:window-x="0"
   inkscape:window-y="0"
   inkscape:window-maximized="1"
   inkscape:current-layer="svg10"
   showguides="true"
   inkscape:guide-bbox="true"
   inkscape:document-rotation="0"
   inkscape:pagecheckerboard="0"><sodipodi:guide
   position="0,1000"
   orientation="0,1"
   id="guide16"
   inkscape:label=""
   inkscape:locked="true"
   inkscape:color="rgb(0,0,255)" /><sodipodi:guide
   position="1763.3122,2036.1693"
   orientation="1000,0"
   id="guide18" /><sodipodi:guide
   position="0,200"
   orientation="0,1"
   id="guide20"
   inkscape:label="base"
   inkscape:locked="true"
   inkscape:color="rgb(0,0,255)" /><inkscape:grid
   type="xygrid"
   id="grid24"
   originx="-473.37552"
   originy="-489.69235" /><sodipodi:guide
   position="0,0"
   orientation="0,1"
   id="guide34"
   inkscape:label="bottom"
   inkscape:locked="true"
   inkscape:color="rgb(0,0,255)" /><sodipodi:guide
   position="225.05109,1693.3186"
   orientation="0,1"
   id="guide44"
   inkscape:label=""
   inkscape:locked="false"
   inkscape:color="rgb(0,0,255)" /><sodipodi:guide
   position="0,900"
   orientation="0,1"
   id="guide46"
   inkscape:label=""
   inkscape:locked="true"
   inkscape:color="rgb(0,0,255)" /><sodipodi:guide
   position="620.93957,564.74453"
   orientation="1,0"
   id="guide841"
   inkscape:label="width" />    </sodipodi:namedview>
 <defs
   id="defs4"><inkscape:path-effect
   effect="fillet_chamfer"
   id="path-effect845"
   is_visible="true"
   lpeversion="1"
   satellites_param="F,0,0,1,0,0,0,1 @ F,0,0,1,0,0,0,1 @ F,0,0,1,0,0,0,1 @ F,0,0,1,0,0,0,1 @ F,0,0,1,0,0,0,1 @ F,0,0,1,0,0,0,1 @ F,0,0,1,0,0,0,1 @ F,0,0,1,0,0,0,1 @ F,0,0,1,0,16.006965,0,1 @ F,0,0,1,0,12.705025,0,1 @ F,0,0,1,0,0,0,1 @ F,0,0,1,0,0,0,1 @ F,0,0,1,0,0,0,1 @ F,0,0,1,0,0,0,1 @ F,0,0,1,0,0,0,1 @ F,0,0,1,0,0,0,1 @ F,0,0,1,0,0,0,1 @ F,0,0,1,0,0,0,1 @ F,0,0,1,0,0,0,1 @ F,0,0,1,0,10.710522,0,1 @ F,0,0,1,0,10.875155,0,1 @ F,0,0,1,0,0,0,1 @ F,0,0,1,0,0,0,1 @ F,0,0,1,0,0,0,1 @ F,0,0,1,0,0,0,1 @ F,0,0,1,0,0,0,1 @ F,0,0,1,0,0,0,1 @ F,0,0,1,0,0,0,1 @ F,0,0,1,0,12.78842,0,1 @ F,0,0,1,0,9.4447629,0,1 @ F,0,0,1,0,0,0,1 @ F,0,0,1,0,0,0,1 @ F,0,0,1,0,0,0,1 @ F,0,0,1,0,0,0,1 @ F,0,0,1,0,0,0,1 @ F,0,0,1,0,0,0,1 @ F,0,0,1,0,0,0,1 @ F,0,0,1,0,0,0,1 @ F,0,0,1,0,0,0,1 @ F,0,0,1,0,0,0,1 @ F,0,0,1,0,0,0,1"
   unit="px"
   method="auto"
   mode="F"
   radius="0"
   chamfer_steps="1"
   flexible="false"
   use_knot_distance="true"
   apply_no_radius="true"
   apply_with_radius="true"
   only_selected="true"
   hide_knots="false" /><inkscape:path-effect
   effect="fillet_chamfer"
   id="path-effect844"
   is_visible="true"
   lpeversion="1"
   satellites_param="F,0,0,1,0,0,0,1 @ F,0,0,1,0,0,0,1 @ F,0,0,1,0,0,0,1 @ F,0,0,1,0,0,0,1 @ F,0,0,1,0,0,0,1 @ F,0,0,1,0,0,0,1 @ F,0,0,1,0,0,0,1 @ F,0,0,1,0,0,0,1 @ F,0,0,1,0,28.383225,0,1 @ F,0,0,1,0,18.46733,0,1 @ F,0,0,1,0,0,0,1 @ F,0,0,1,0,0,0,1 @ F,0,0,1,0,0,0,1 @ F,0,0,1,0,0,0,1 @ F,0,0,1,0,0,0,1 @ F,0,0,1,0,0,0,1 @ F,0,0,1,0,0,0,1 @ F,0,0,1,0,0,0,1 @ F,0,0,1,0,0,0,1 @ F,0,0,1,0,0,0,1 @ F,0,1,1,0,27.61614,0,1 @ F,0,0,1,0,0,0,1 @ F,0,0,1,0,23.24714,0,1 @ F,0,0,1,0,0,0,1 @ F,0,0,1,0,0,0,1 @ F,0,0,1,0,0,0,1 @ F,0,0,1,0,0,0,1 @ F,0,0,1,0,0,0,1 @ F,0,0,1,0,0,0,1 @ F,0,0,1,0,0,0,1 @ F,0,0,1,0,27.61614,0,1 @ F,0,0,1,0,26.731904,0,1 @ F,0,0,1,0,0,0,1 @ F,0,0,1,0,0,0,1 @ F,0,0,1,0,0,0,1 @ F,0,0,1,0,0,0,1 @ F,0,0,1,0,0,0,1 @ F,0,0,1,0,0,0,1 @ F,0,0,1,0,0,0,1 @ F,0,0,1,0,0,0,1 @ F,0,0,1,0,0,0,1"
   unit="px"
   method="auto"
   mode="F"
   radius="0"
   chamfer_steps="1"
   flexible="false"
   use_knot_distance="true"
   apply_no_radius="true"
   apply_with_radius="true"
   only_selected="true"
   hide_knots="false" /><inkscape:path-effect
   effect="spiro"
   id="path-effect854"
   is_visible="true"
   lpeversion="1" />
  <style
   type="text/css"
   id="style2">
   <![CDATA[
    .fil0 {fill:#EF7F1A;fill-rule:nonzero}
   ]]>
  </style>
 <inkscape:path-effect
   effect="spiro"
   id="path-effect1214"
   is_visible="true"
   lpeversion="1" /><inkscape:path-effect
   effect="spiro"
   id="path-effect1195"
   is_visible="true"
   lpeversion="1" /><inkscape:path-effect
   effect="spiro"
   id="path-effect992"
   is_visible="true"
   lpeversion="1" /><inkscape:path-effect
   effect="spiro"
   id="path-effect287"
   is_visible="true"
   lpeversion="1" /></defs>
 
<path
   style="display:inline;fill:#a51d2d;fill-rule:nonzero;stroke:none;stroke-width:1.96742;stroke-linecap:butt;stroke-linejoin:miter;stroke-miterlimit:4;stroke-dasharray:none;stroke-opacity:1"
   d="m 427.07715,392.36698 c 1.24767,-47.63746 -7.51302,-96.07534 -29.65823,-138.27101 -22.14521,-42.19567 -58.27434,-77.75591 -102.67453,-95.06219 -36.45823,-14.21067 -77.42143,-15.7217 -115.35982,-6.13923 -37.9384,9.58248 -72.82148,29.98423 -101.194349,56.93095 C 47.096662,239.35616 23.55874,276.95922 11.550404,318.12558 -2.8452291,367.47595 -0.55070696,420.084 5.0023969,471.19032 c 10.4762581,96.41509 32.1087911,193.376 18.6591241,289.42145 -3.665408,26.17505 -9.93158,51.98473 -18.6667706,76.92977 -2.9215546,8.34307 1.2187384,12.76465 9.6190616,10.01015 L 159.58416,800.01527 c 6.66749,-2.1863 11.0106,-9.5475 9.55613,-16.41178 -5.47304,-25.82968 -12.46164,-51.33822 -20.91947,-76.35008 C 123.29801,633.5506 85.309248,562.72579 79.081711,485.17278 75.840303,444.80675 81.824636,402.9037 101.70847,367.62543 c 9.94192,-17.63913 23.2894,-33.43945 39.49644,-45.57669 16.20704,-12.13723 35.29807,-20.54929 55.32077,-23.5613 23.80014,-3.58024 48.61125,0.59293 70.22037,11.1906 21.60912,10.59767 39.98096,27.50603 52.88255,47.82385 23.26988,36.64614 28.07828,82.67794 21.64387,125.60841 -8.07391,53.86923 -33.55804,105.5554 -73.84213,142.21974 -16.45379,14.97532 -35.2315,27.38962 -55.44384,36.68551 -5.37358,2.47138 -8.34632,8.78944 -6.50653,14.41131 l 37.05763,113.23737 c 1.86807,5.70829 7.77221,8.21788 13.33904,5.96524 19.21505,-7.77543 39.72098,-12.3601 60.42059,-13.47578 36.17665,-1.94987 71.97331,6.55612 107.82238,11.79027 35.84906,5.23415 73.80834,6.94392 106.94977,-7.69156 28.47613,-12.57525 51.04284,-36.55462 65.33714,-64.20783 14.29429,-27.65321 20.77749,-58.82664 22.64426,-89.89981 5.0905,-84.7337 -22.83717,-167.47689 -37.3668,-251.11064 -8.48828,-48.85921 -12.40949,-99.04788 -4.58323,-148.01749 5.4556,-34.13618 16.62973,-67.34852 32.88352,-97.85692 3.3207,-6.23296 0.58861,-12.05645 -6.38708,-13.16264 L 472.96301,101.28141 c -5.15182,-0.81696 -10.38904,2.61596 -11.48364,7.71571 -4.56097,21.24969 -6.36395,43.09103 -5.33571,64.80071 2.74852,58.03054 25.31035,112.96875 41.02572,168.8984 17.14938,61.03318 26.28589,124.18894 29.19477,187.51894 1.26779,27.6014 1.30798,55.67928 -6.03281,82.3168 -3.6704,13.31875 -9.19527,26.18865 -16.97975,37.60193 -7.78447,11.41328 -17.87092,21.34835 -29.80688,28.30493 -13.82045,8.05491 -29.76665,11.94198 -45.71019,13.24197 -15.94354,1.29999 -31.9799,0.11079 -47.90381,-1.41087 -45.71011,-4.36798 -91.15787,-11.47963 -136.0173,-21.28395 l 30.70679,101.55128 c 32.08374,-48.30073 60.99648,-98.70745 86.49036,-150.78804 34.97114,-71.44135 63.88403,-147.86803 65.96659,-227.38224 z"
   id="use1029"
   sodipodi:nodetypes="aaaaaaccaaaaaaccaaaaaccsaaaaccaa"
   inkscape:path-effect="#path-effect854;#path-effect845"
   inkscape:original-d="M 427.07715,392.36698 C 416.65954,303.56032 376.66876,194.86041 294.74439,159.03378 226.8125,129.32625 138.32741,166.45734 78.190221,209.8255 43.810689,234.61842 23.962431,277.59679 11.550404,318.12558 -3.4037874,366.95526 4.4501541,420.12506 5.0023969,471.19032 6.0478133,567.85877 33.005833,664.39033 23.661521,760.61177 20.598301,792.15475 -3.4622909,822.93351 -0.5963186,852.53916 L 171.65672,796.05662 C 146.77573,740.31809 156.67895,736.67636 148.22082,707.25341 126.80059,632.73974 69.041393,562.05129 79.081711,485.17278 88.602339,412.27352 125.89317,318.88335 196.52568,298.48744 c 43.7196,-12.62451 95.6648,22.71112 123.10292,59.01445 25.61759,33.89458 28.16646,83.62557 21.64387,125.60841 -8.20045,52.78246 -37.63147,102.95113 -73.84213,142.21974 -17.40968,18.87991 -65.28161,40.91752 -65.28161,40.91752 L 245.92004,800 c 0,0 46.33447,-15.0781 70.37719,-17.84631 71.13381,-8.19013 152.5082,39.45826 214.77215,4.09871 51.43577,-29.21025 77.07072,-95.9713 87.9814,-154.10764 15.60943,-83.17314 -29.81659,-166.82292 -37.3668,-251.11064 -4.40412,-49.16595 -12.2925,-99.2604 -4.58323,-148.01749 C 583.13046,194.88188 616.22779,124 616.22779,124 L 463.63481,99.802168 c 8.41861,-18.494912 -5.54777,41.254842 -7.49115,73.995662 -3.43287,57.83474 29.7218,112.07531 41.02572,168.8984 12.34245,62.04359 35.12832,124.5385 29.19477,187.51894 -4.91977,52.21995 -11.93921,115.36131 -52.81944,148.22366 -24.51424,19.70624 -62.16454,12.2951 -93.614,11.8311 -45.88583,-0.677 -136.0173,-21.28395 -136.0173,-21.28395 l 30.70679,101.55128 c 8.87944,-26.52876 63.84225,-97.45347 86.49036,-150.78804 30.84652,-72.64121 75.1613,-149.00042 65.96659,-227.38224 z" /><text
   text-anchor="middle"
   x="555.03638"
   y="776.38824"
   id="bottom"
   inkscape:label="bottom"
   style="clip-rule:evenodd;fill-rule:evenodd;image-rendering:optimizeQuality;shape-rendering:geometricPrecision;text-rendering:geometricPrecision">✛</text><text
   text-anchor="middle"
   x="620.25208"
   y="804.40594"
   id="right"
   inkscape:label="right"
   style="clip-rule:evenodd;fill-rule:evenodd;image-rendering:optimizeQuality;shape-rendering:geometricPrecision;text-rendering:geometricPrecision">✛</text></svg>
