<?xml version="1.0" encoding="UTF-8" standalone="no"?>
<svg
   xml:space="preserve"
   width="1000"
   height="1000"
   version="1.1"
   style="clip-rule:evenodd;fill-rule:evenodd;image-rendering:optimizeQuality;shape-rendering:geometricPrecision;text-rendering:geometricPrecision"
   viewBox="0 0 1000 1000"
   id="svg10"
   sodipodi:docname="വ.svg"
   inkscape:version="1.1.2 (0a00cf5339, 2022-02-04)"
   xmlns:inkscape="http://www.inkscape.org/namespaces/inkscape"
   xmlns:sodipodi="http://sodipodi.sourceforge.net/DTD/sodipodi-0.dtd"
   xmlns="http://www.w3.org/2000/svg"
   xmlns:svg="http://www.w3.org/2000/svg"
   xmlns:rdf="http://www.w3.org/1999/02/22-rdf-syntax-ns#"
   xmlns:cc="http://creativecommons.org/ns#"
   xmlns:dc="http://purl.org/dc/elements/1.1/"><metadata
   id="metadata14"><rdf:RDF><cc:Work
       rdf:about=""><dc:format>image/svg+xml</dc:format><dc:type
         rdf:resource="http://purl.org/dc/dcmitype/StillImage" /></cc:Work></rdf:RDF></metadata><sodipodi:namedview
   pagecolor="#ffffff"
   bordercolor="#666666"
   borderopacity="1"
   objecttolerance="10"
   gridtolerance="10"
   guidetolerance="10"
   inkscape:pageopacity="0"
   inkscape:pageshadow="2"
   inkscape:window-width="1920"
   inkscape:window-height="1009"
   id="namedview12"
   showgrid="false"
   inkscape:zoom="1.2005384"
   inkscape:cx="298.61602"
   inkscape:cy="592.23428"
   inkscape:window-x="0"
   inkscape:window-y="0"
   inkscape:window-maximized="1"
   inkscape:current-layer="svg10"
   showguides="true"
   inkscape:guide-bbox="true"
   inkscape:document-rotation="0"
   inkscape:pagecheckerboard="0"><sodipodi:guide
   position="0,1000"
   orientation="0,1"
   id="guide16"
   inkscape:label=""
   inkscape:locked="true"
   inkscape:color="rgb(0,0,255)" /><sodipodi:guide
   position="1763.3122,2036.1693"
   orientation="1000,0"
   id="guide18" /><sodipodi:guide
   position="0,200"
   orientation="0,1"
   id="guide20"
   inkscape:label="base"
   inkscape:locked="true"
   inkscape:color="rgb(0,0,255)" /><inkscape:grid
   type="xygrid"
   id="grid24"
   originx="-473.37552"
   originy="-489.69235" /><sodipodi:guide
   position="0,0"
   orientation="0,1"
   id="guide34"
   inkscape:label="bottom"
   inkscape:locked="true"
   inkscape:color="rgb(0,0,255)" /><sodipodi:guide
   position="225.05109,1693.3186"
   orientation="0,1"
   id="guide44"
   inkscape:label=""
   inkscape:locked="false"
   inkscape:color="rgb(0,0,255)" /><sodipodi:guide
   position="0,900"
   orientation="0,1"
   id="guide46"
   inkscape:label=""
   inkscape:locked="true"
   inkscape:color="rgb(0,0,255)" /><sodipodi:guide
   position="654.00487,774.75758"
   orientation="1,0"
   id="guide841"
   inkscape:label="width" />    </sodipodi:namedview>
 <defs
   id="defs4"><inkscape:path-effect
   effect="fillet_chamfer"
   id="path-effect845"
   is_visible="true"
   lpeversion="1"
   satellites_param="F,0,0,1,0,0,0,1 @ F,0,0,1,0,0,0,1 @ F,0,0,1,0,0,0,1 @ F,0,0,1,0,0,0,1 @ F,0,0,1,0,0,0,1 @ F,0,0,1,0,0,0,1 @ F,0,0,1,0,0,0,1 @ F,0,0,1,0,0,0,1 @ F,0,0,1,0,16.006965,0,1 @ F,0,0,1,0,12.705025,0,1 @ F,0,0,1,0,0,0,1 @ F,0,0,1,0,0,0,1 @ F,0,0,1,0,0,0,1 @ F,0,0,1,0,0,0,1 @ F,0,0,1,0,0,0,1 @ F,0,0,1,0,0,0,1 @ F,0,0,1,0,0,0,1 @ F,0,0,1,0,0,0,1 @ F,0,0,1,0,0,0,1 @ F,0,0,1,0,10.710522,0,1 @ F,0,0,1,0,10.875155,0,1 @ F,0,0,1,0,0,0,1 @ F,0,0,1,0,0,0,1 @ F,0,0,1,0,0,0,1 @ F,0,0,1,0,0,0,1 @ F,0,0,1,0,0,0,1 @ F,0,0,1,0,0,0,1 @ F,0,0,1,0,0,0,1 @ F,0,0,1,0,12.78842,0,1 @ F,0,0,1,0,9.4447629,0,1 @ F,0,0,1,0,0,0,1 @ F,0,0,1,0,0,0,1 @ F,0,0,1,0,0,0,1 @ F,0,0,1,0,0,0,1 @ F,0,0,1,0,0,0,1 @ F,0,0,1,0,0,0,1 @ F,0,0,1,0,0,0,1 @ F,0,0,1,0,0,0,1 @ F,0,0,1,0,0,0,1 @ F,0,0,1,0,0,0,1 @ F,0,0,1,0,0,0,1"
   unit="px"
   method="auto"
   mode="F"
   radius="0"
   chamfer_steps="1"
   flexible="false"
   use_knot_distance="true"
   apply_no_radius="true"
   apply_with_radius="true"
   only_selected="true"
   hide_knots="false" /><inkscape:path-effect
   effect="fillet_chamfer"
   id="path-effect844"
   is_visible="true"
   lpeversion="1"
   satellites_param="F,0,0,1,0,0,0,1 @ F,0,0,1,0,0,0,1 @ F,0,0,1,0,0,0,1 @ F,0,0,1,0,0,0,1 @ F,0,0,1,0,0,0,1 @ F,0,0,1,0,0,0,1 @ F,0,0,1,0,0,0,1 @ F,0,0,1,0,0,0,1 @ F,0,0,1,0,28.383225,0,1 @ F,0,0,1,0,18.46733,0,1 @ F,0,0,1,0,0,0,1 @ F,0,0,1,0,0,0,1 @ F,0,0,1,0,0,0,1 @ F,0,0,1,0,0,0,1 @ F,0,0,1,0,0,0,1 @ F,0,0,1,0,0,0,1 @ F,0,0,1,0,0,0,1 @ F,0,0,1,0,0,0,1 @ F,0,0,1,0,0,0,1 @ F,0,0,1,0,0,0,1 @ F,0,1,1,0,27.61614,0,1 @ F,0,0,1,0,0,0,1 @ F,0,0,1,0,23.24714,0,1 @ F,0,0,1,0,0,0,1 @ F,0,0,1,0,0,0,1 @ F,0,0,1,0,0,0,1 @ F,0,0,1,0,0,0,1 @ F,0,0,1,0,0,0,1 @ F,0,0,1,0,0,0,1 @ F,0,0,1,0,0,0,1 @ F,0,0,1,0,27.61614,0,1 @ F,0,0,1,0,26.731904,0,1 @ F,0,0,1,0,0,0,1 @ F,0,0,1,0,0,0,1 @ F,0,0,1,0,0,0,1 @ F,0,0,1,0,0,0,1 @ F,0,0,1,0,0,0,1 @ F,0,0,1,0,0,0,1 @ F,0,0,1,0,0,0,1 @ F,0,0,1,0,0,0,1 @ F,0,0,1,0,0,0,1"
   unit="px"
   method="auto"
   mode="F"
   radius="0"
   chamfer_steps="1"
   flexible="false"
   use_knot_distance="true"
   apply_no_radius="true"
   apply_with_radius="true"
   only_selected="true"
   hide_knots="false" /><inkscape:path-effect
   effect="spiro"
   id="path-effect854"
   is_visible="true"
   lpeversion="1" />
  <style
   type="text/css"
   id="style2">
   
    .fil0 {fill:#EF7F1A;fill-rule:nonzero}
   
  </style>
 <inkscape:path-effect
   effect="spiro"
   id="path-effect1214"
   is_visible="true"
   lpeversion="1" /><inkscape:path-effect
   effect="spiro"
   id="path-effect1195"
   is_visible="true"
   lpeversion="1" /><inkscape:path-effect
   effect="spiro"
   id="path-effect992"
   is_visible="true"
   lpeversion="1" /><inkscape:path-effect
   effect="spiro"
   id="path-effect287"
   is_visible="true"
   lpeversion="1" /></defs>
 
<path
   style="display:inline;fill:#a51d2d;fill-rule:nonzero;stroke:none;stroke-width:1.96742;stroke-linecap:butt;stroke-linejoin:miter;stroke-miterlimit:4;stroke-dasharray:none;stroke-opacity:1"
   d="M 381.11056,619.74922 C 355.61668,671.82981 326.70394,722.23653 294.6202,770.53726 L 263.91341,668.98598 c 44.85943,9.80432 90.30719,16.91597 136.0173,21.28395 15.92391,1.52166 31.96027,2.71086 47.90381,1.41087 15.94354,-1.29999 31.88974,-5.18706 45.71019,-13.24197 11.93596,-6.95658 22.02241,-16.89165 29.80688,-28.30493 7.78448,-11.41328 13.30935,-24.28318 16.97975,-37.60193 5.92612,-21.50408 7.04197,-43.94685 6.58496,-66.31985 -0.18054,-8.83829 -0.86647,-23.15723 -1.41989,-31.98019 -3.37039,-53.73299 -11.33837,-107.22219 -24.99658,-159.27512 -1.78084,-6.78696 -4.86491,-17.73828 -6.86224,-24.46473 -15.36441,-51.74306 -34.94556,-102.88948 -37.49393,-156.69425 -1.17719,-24.85444 1.35649,-49.88145 7.49115,-73.995662 L 636.22779,124 c -19.65448,33.49102 -32.99869,70.67096 -39.12704,109.01663 -7.82626,48.96961 -3.90505,99.15828 4.58323,148.01749 14.52963,83.63375 42.4573,166.37694 37.3668,251.11064 -1.86677,31.07317 -8.34997,62.2466 -22.64426,89.89981 -14.2943,27.65321 -36.86101,51.63258 -65.33714,64.20783 -33.14143,14.63548 -71.10071,12.92571 -106.94977,7.69156 -32.30947,-4.71735 -64.57638,-12.09235 -97.11726,-12.07526 -5.91437,0.003 -15.49979,0.51181 -21.37764,1.16874 -17.05232,1.90583 -33.84246,6.15578 -49.74807,12.59203 -5.56683,2.25264 -11.47097,-0.25695 -13.33904,-5.96524 L 222.14873,666.24756 c 23.96363,-9.60952 46.18743,-23.53906 65.28161,-40.91752 40.28409,-36.66434 65.76822,-88.35051 73.84213,-142.21974 6.43441,-42.93047 1.62601,-88.96227 -21.64387,-125.60841 -12.90159,-20.31782 -31.27343,-37.22618 -52.88255,-47.82385 -21.60912,-10.59767 -46.42023,-14.77084 -70.22037,-11.1906 -20.0227,3.01201 -39.11373,11.42407 -55.32077,23.5613 -12.79659,9.5832 -23.81047,21.45003 -32.77288,34.70254 -3.95552,5.84894 -9.58181,15.84725 -12.55779,22.25053 -13.8894,29.88523 -18.833056,63.61646 -17.378494,96.74492 0.228793,5.21089 0.909682,13.64355 1.497063,18.82634 8.375361,73.90043 44.315661,141.9657 68.228011,212.68034 9.81444,29.0237 17.65054,58.7162 23.4359,88.80321 L 19.403681,852.53916 C 31.093966,823.00233 39.256154,792.07094 43.661521,760.61177 57.111189,664.56632 35.478655,567.60541 25.002397,471.19032 19.449293,420.084 17.154771,367.47595 31.550404,318.12558 43.55874,276.95922 67.096662,239.35616 98.190221,209.8255 126.56309,182.87878 161.44617,162.47703 199.38457,152.89455 c 37.93839,-9.58247 78.90159,-8.07144 115.35982,6.13923 44.40019,17.30628 80.52932,52.86652 102.67453,95.06219 22.14521,42.19567 30.9059,90.63355 29.65823,138.27101 -2.08256,79.51421 -30.99545,155.94089 -65.96659,227.38224 z"
   id="use1029"
   sodipodi:nodetypes="accaaaasccaaaaaccaaaaaaccaaaaaaa"
   inkscape:path-effect="#path-effect854;#path-effect845"
   inkscape:original-d="M 381.11056,619.74922 C 358.46245,673.08379 303.49964,744.0085 294.6202,770.53726 L 263.91341,668.98598 c 0,0 90.13147,20.60695 136.0173,21.28395 31.44946,0.464 69.09976,7.87514 93.614,-11.8311 40.88023,-32.86235 47.89967,-96.00371 52.81944,-148.22366 5.93355,-62.98044 -16.85232,-125.47535 -29.19477,-187.51894 -11.30392,-56.82309 -44.45859,-111.06366 -41.02572,-168.8984 1.94338,-32.74082 15.90976,-92.490574 7.49115,-73.995662 L 636.22779,124 c 0,0 -33.09733,70.88188 -39.12704,109.01663 -7.70927,48.75709 0.17911,98.85154 4.58323,148.01749 7.55021,84.28772 52.97623,167.9375 37.3668,251.11064 C 628.1401,690.2811 602.50515,757.04215 551.06938,786.2524 488.80543,821.61195 407.43104,773.96356 336.29723,782.15369 312.25451,784.9219 265.92004,800 265.92004,800 L 222.14873,666.24756 c 0,0 47.87193,-22.03761 65.28161,-40.91752 36.21066,-39.26861 65.64168,-89.43728 73.84213,-142.21974 6.52259,-41.98284 3.97372,-91.71383 -21.64387,-125.60841 -27.43812,-36.30333 -79.38332,-71.63896 -123.10292,-59.01445 -70.63251,20.39591 -107.92334,113.78608 -117.443969,186.68534 -10.040318,76.87851 47.718879,147.56696 69.139109,222.08063 8.45813,29.42295 -1.44509,33.06468 23.4359,88.80321 L 19.403681,852.53916 C 16.537709,822.93351 40.598301,792.15475 43.661521,760.61177 53.005833,664.39033 26.047813,567.85877 25.002397,471.19032 24.450154,420.12506 16.596213,366.95526 31.550404,318.12558 43.962431,277.59679 63.810689,234.61842 98.190221,209.8255 158.32741,166.45734 246.8125,129.32625 314.74439,159.03378 c 81.92437,35.82663 121.91515,144.52654 132.33276,233.3332 9.19471,78.38182 -35.12007,154.74103 -65.96659,227.38224 z" /><text
   text-anchor="middle"
   x="575.03638"
   y="776.38824"
   id="bottom"
   inkscape:label="bottom"
   style="clip-rule:evenodd;fill-rule:evenodd;image-rendering:optimizeQuality;shape-rendering:geometricPrecision;text-rendering:geometricPrecision">✛</text><text
   text-anchor="middle"
   x="640.25208"
   y="804.40594"
   id="right"
   inkscape:label="right"
   style="clip-rule:evenodd;fill-rule:evenodd;image-rendering:optimizeQuality;shape-rendering:geometricPrecision;text-rendering:geometricPrecision">✛</text></svg>
