<?xml version="1.0" encoding="UTF-8" standalone="no"?>
<svg
   xml:space="preserve"
   width="1000"
   height="1000"
   version="1.1"
   style="clip-rule:evenodd;fill-rule:evenodd;image-rendering:optimizeQuality;shape-rendering:geometricPrecision;text-rendering:geometricPrecision"
   viewBox="0 0 1000 1000"
   id="svg10"
   sodipodi:docname="വൃ.svg"
   inkscape:version="1.1.2 (0a00cf5339, 2022-02-04)"
   xmlns:inkscape="http://www.inkscape.org/namespaces/inkscape"
   xmlns:sodipodi="http://sodipodi.sourceforge.net/DTD/sodipodi-0.dtd"
   xmlns="http://www.w3.org/2000/svg"
   xmlns:svg="http://www.w3.org/2000/svg"
   xmlns:rdf="http://www.w3.org/1999/02/22-rdf-syntax-ns#"
   xmlns:cc="http://creativecommons.org/ns#"
   xmlns:dc="http://purl.org/dc/elements/1.1/"><metadata
   id="metadata14"><rdf:RDF><cc:Work
       rdf:about=""><dc:format>image/svg+xml</dc:format><dc:type
         rdf:resource="http://purl.org/dc/dcmitype/StillImage" /></cc:Work></rdf:RDF></metadata><sodipodi:namedview
   pagecolor="#ffffff"
   bordercolor="#666666"
   borderopacity="1"
   objecttolerance="10"
   gridtolerance="10"
   guidetolerance="10"
   inkscape:pageopacity="0"
   inkscape:pageshadow="2"
   inkscape:window-width="1920"
   inkscape:window-height="1129"
   id="namedview12"
   showgrid="false"
   inkscape:zoom="1.2005384"
   inkscape:cx="328.60257"
   inkscape:cy="287.37107"
   inkscape:window-x="0"
   inkscape:window-y="0"
   inkscape:window-maximized="1"
   inkscape:current-layer="svg10"
   showguides="true"
   inkscape:guide-bbox="true"
   inkscape:document-rotation="0"
   inkscape:pagecheckerboard="0"><sodipodi:guide
   position="0,1000"
   orientation="0,1"
   id="guide16"
   inkscape:label=""
   inkscape:locked="true"
   inkscape:color="rgb(0,0,255)" /><sodipodi:guide
   position="1763.3122,2036.1693"
   orientation="1000,0"
   id="guide18" /><sodipodi:guide
   position="0,200"
   orientation="0,1"
   id="guide20"
   inkscape:label="base"
   inkscape:locked="true"
   inkscape:color="rgb(0,0,255)" /><inkscape:grid
   type="xygrid"
   id="grid24"
   originx="-473.37552"
   originy="-489.69235" /><sodipodi:guide
   position="0,0"
   orientation="0,1"
   id="guide34"
   inkscape:label="bottom"
   inkscape:locked="true"
   inkscape:color="rgb(0,0,255)" /><sodipodi:guide
   position="225.05109,1693.3186"
   orientation="0,1"
   id="guide44"
   inkscape:label=""
   inkscape:locked="false"
   inkscape:color="rgb(0,0,255)" /><sodipodi:guide
   position="0,900"
   orientation="0,1"
   id="guide46"
   inkscape:label=""
   inkscape:locked="true"
   inkscape:color="rgb(0,0,255)" /><sodipodi:guide
   position="654.00487,774.75758"
   orientation="1,0"
   id="guide841"
   inkscape:label="width" />    </sodipodi:namedview>
 <defs
   id="defs4"><inkscape:path-effect
   effect="fillet_chamfer"
   id="path-effect845"
   is_visible="true"
   lpeversion="1"
   satellites_param="F,0,0,1,0,0,0,1 @ F,0,0,1,0,0,0,1 @ F,0,0,1,0,0,0,1 @ F,0,0,1,0,0,0,1 @ F,0,0,1,0,0,0,1 @ F,0,0,1,0,0,0,1 @ F,0,0,1,0,0,0,1 @ F,0,0,1,0,0,0,1 @ F,0,0,1,0,0,0,1 @ F,0,0,1,0,0,0,1 @ F,0,0,1,0,0,0,1 @ F,0,1,1,0,19.042,0,1 @ F,0,1,1,0,19.042,0,1 @ F,0,0,1,0,0,0,1 @ F,0,0,1,0,0,0,1 @ F,0,0,1,0,0,0,1 @ F,0,0,1,0,0,0,1 @ F,0,0,1,0,0,0,1 @ F,0,0,1,0,0,0,1 @ F,0,0,1,0,0,0,1 @ F,0,1,1,0,19.042,0,1 @ F,0,1,1,0,19.042,0,1 @ F,0,0,1,0,0,0,1 @ F,0,0,1,0,0,0,1 @ F,0,0,1,0,0,0,1 @ F,0,0,1,0,0,0,1 @ F,0,0,1,0,0,0,1 @ F,0,0,1,0,0,0,1 @ F,0,0,1,0,0,0,1 @ F,0,0,1,0,0,0,1 @ F,0,0,1,0,0,0,1 @ F,0,1,1,0,19.042,0,1 @ F,0,1,1,0,19.042,0,1 @ F,0,0,1,0,0,0,1 @ F,0,0,1,0,0,0,1 @ F,0,0,1,0,0,0,1 @ F,0,0,1,0,0,0,1 @ F,0,0,1,0,0,0,1 @ F,0,0,1,0,0,0,1 @ F,0,0,1,0,0,0,1 @ F,0,0,1,0,0,0,1"
   unit="px"
   method="auto"
   mode="F"
   radius="0"
   chamfer_steps="1"
   flexible="false"
   use_knot_distance="true"
   apply_no_radius="true"
   apply_with_radius="true"
   only_selected="true"
   hide_knots="false" /><inkscape:path-effect
   effect="fillet_chamfer"
   id="path-effect844"
   is_visible="true"
   lpeversion="1"
   satellites_param="F,0,0,1,0,0,0,1 @ F,0,0,1,0,0,0,1 @ F,0,0,1,0,0,0,1 @ F,0,0,1,0,0,0,1 @ F,0,0,1,0,0,0,1 @ F,0,0,1,0,0,0,1 @ F,0,0,1,0,0,0,1 @ F,0,0,1,0,0,0,1 @ F,0,0,1,0,28.383225,0,1 @ F,0,0,1,0,18.46733,0,1 @ F,0,0,1,0,0,0,1 @ F,0,0,1,0,0,0,1 @ F,0,0,1,0,0,0,1 @ F,0,0,1,0,0,0,1 @ F,0,0,1,0,0,0,1 @ F,0,0,1,0,0,0,1 @ F,0,0,1,0,0,0,1 @ F,0,0,1,0,0,0,1 @ F,0,0,1,0,0,0,1 @ F,0,0,1,0,0,0,1 @ F,0,1,1,0,27.61614,0,1 @ F,0,0,1,0,0,0,1 @ F,0,0,1,0,23.24714,0,1 @ F,0,0,1,0,0,0,1 @ F,0,0,1,0,0,0,1 @ F,0,0,1,0,0,0,1 @ F,0,0,1,0,0,0,1 @ F,0,0,1,0,0,0,1 @ F,0,0,1,0,0,0,1 @ F,0,0,1,0,0,0,1 @ F,0,0,1,0,27.61614,0,1 @ F,0,0,1,0,26.731904,0,1 @ F,0,0,1,0,0,0,1 @ F,0,0,1,0,0,0,1 @ F,0,0,1,0,0,0,1 @ F,0,0,1,0,0,0,1 @ F,0,0,1,0,0,0,1 @ F,0,0,1,0,0,0,1 @ F,0,0,1,0,0,0,1 @ F,0,0,1,0,0,0,1 @ F,0,0,1,0,0,0,1"
   unit="px"
   method="auto"
   mode="F"
   radius="0"
   chamfer_steps="1"
   flexible="false"
   use_knot_distance="true"
   apply_no_radius="true"
   apply_with_radius="true"
   only_selected="true"
   hide_knots="false" /><inkscape:path-effect
   effect="spiro"
   id="path-effect854"
   is_visible="true"
   lpeversion="1" />
  <style
   type="text/css"
   id="style2">
   
    .fil0 {fill:#EF7F1A;fill-rule:nonzero}
   
  </style>
 <inkscape:path-effect
   effect="spiro"
   id="path-effect1214"
   is_visible="true"
   lpeversion="1" /><inkscape:path-effect
   effect="spiro"
   id="path-effect1195"
   is_visible="true"
   lpeversion="1" /><inkscape:path-effect
   effect="spiro"
   id="path-effect992"
   is_visible="true"
   lpeversion="1" /><inkscape:path-effect
   effect="spiro"
   id="path-effect287"
   is_visible="true"
   lpeversion="1" /><inkscape:path-effect
   effect="spiro"
   id="path-effect1521"
   is_visible="true"
   lpeversion="1" /></defs>
 
<path
   style="display:inline;fill:#a51d2d;fill-rule:nonzero;stroke:none;stroke-width:1.96742;stroke-linecap:butt;stroke-linejoin:miter;stroke-miterlimit:4;stroke-dasharray:none;stroke-opacity:1"
   d="M 381.11056,619.74922 C 355.61668,671.82981 326.70394,722.23653 294.6202,770.53726 L 263.91341,668.98598 c 44.85777,9.81273 90.30621,16.92449 136.0173,21.28395 15.92358,1.51863 31.95945,2.70377 47.90226,1.4026 15.94282,-1.30117 31.88773,-5.18614 45.71174,-13.2337 11.94218,-6.95206 22.03846,-16.88105 29.83353,-28.29085 7.79508,-11.4098 13.331,-24.27877 17.00775,-37.59899 7.35352,-26.64044 7.30649,-54.72906 5.97816,-82.33382 -3.04647,-63.3105 -12.58336,-126.35064 -29.19477,-187.51894 -15.21242,-56.0168 -36.44449,-111.0338 -41.02572,-168.8984 -1.99015,-25.13718 -0.76991,-50.52515 3.5966,-75.359502 1.82085,-10.355953 12.31473,-17.300908 22.70155,-15.653791 l 114.97898,18.233093 c 10.38682,1.64712 14.8304,10.53143 10.47846,20.10402 -16.07705,35.36334 -26.53139,73.28214 -30.7985,111.89498 -5.43365,49.16879 -0.90092,98.8543 4.58323,148.01749 9.72662,87.19524 22.44382,174.05685 38.12171,260.38078 l -32.64952,92.27936 c -12.05028,23.17046 -32.18324,42.03676 -56.08679,52.55814 -33.15689,14.59432 -71.10488,12.87787 -106.95274,7.6525 -35.84786,-5.22537 -71.64567,-13.7094 -107.81941,-11.75121 -17.98055,0.97334 -35.81455,4.56102 -52.78452,10.58111 -9.90715,3.51455 -20.24428,-0.83735 -23.5152,-10.83235 l -31.92625,-97.55734 c -3.27092,-9.995 2.04015,-21.19886 11.41576,-25.95547 17.36365,-8.80924 33.54346,-19.95365 47.94332,-33.0596 40.28409,-36.66434 65.76822,-88.35051 73.84213,-142.21974 6.43441,-42.93047 1.62601,-88.96227 -21.64387,-125.60841 -12.90159,-20.31782 -31.27343,-37.22618 -52.88255,-47.82385 -21.60912,-10.59767 -46.42023,-14.77084 -70.22037,-11.1906 -20.0227,3.01201 -39.11373,11.42407 -55.32077,23.5613 -16.20704,12.13724 -29.55452,27.93756 -39.49644,45.57669 -19.88383,35.27827 -25.868167,77.18132 -22.626759,117.54735 6.227539,77.55301 44.216299,148.37782 69.139109,222.08063 7.78118,23.01084 14.31881,46.44207 19.57682,70.157 2.27636,10.26693 -4.24192,21.30256 -14.235,24.57934 L 37.497761,846.60603 c -9.993084,3.27678 -14.91092,-1.98201 -11.510793,-11.93275 8.218867,-24.05317 14.149447,-48.88837 17.674553,-74.06151 C 57.111189,664.56632 35.478655,567.60541 25.002397,471.19032 19.449293,420.084 17.154771,367.47595 31.550404,318.12558 43.55874,276.95922 67.096662,239.35616 98.190221,209.8255 126.56309,182.87878 161.44617,162.47703 199.38457,152.89455 c 37.93839,-9.58247 78.90159,-8.07144 115.35982,6.13923 44.40019,17.30628 80.52932,52.86652 102.67453,95.06219 22.14521,42.19567 30.9059,90.63355 29.65823,138.27101 -2.08256,79.51421 -30.99545,155.94089 -65.96659,227.38224 z"
   id="use1029"
   sodipodi:nodetypes="accaaaasccaaccsaccaaaaaaccaaaaaaa"
   inkscape:path-effect="#path-effect854;#path-effect845"
   inkscape:original-d="M 381.11056,619.74922 C 358.46245,673.08379 303.49964,744.0085 294.6202,770.53726 L 263.91341,668.98598 c 0,0 90.13147,20.60695 136.0173,21.28395 31.44946,0.464 69.09976,7.87514 93.614,-11.8311 40.88023,-32.86235 47.89967,-96.00371 52.81944,-148.22366 5.93355,-62.98044 -16.85232,-125.47535 -29.19477,-187.51894 -11.30392,-56.82309 -44.45859,-111.06366 -41.02572,-168.8984 1.94338,-32.74082 15.90976,-112.490574 7.49115,-93.995662 L 636.22779,104 c 0,0 -33.22332,84.46637 -39.12704,129.01663 -6.48478,48.935 0.23682,98.8464 4.58323,148.01749 7.72367,87.37818 38.12171,260.38078 38.12171,260.38078 l -32.64952,92.27936 c 0,0 -32.86624,39.37125 -56.08679,52.55814 C 488.80543,821.61195 407.43104,773.96356 336.29723,782.15369 312.25451,784.9219 265.92004,800 265.92004,800 L 222.14873,666.24756 c 0,0 47.87193,-22.03761 65.28161,-40.91752 36.21066,-39.26861 65.64168,-89.43728 73.84213,-142.21974 6.52259,-41.98284 3.97372,-91.71383 -21.64387,-125.60841 -27.43812,-36.30333 -79.38332,-71.63896 -123.10292,-59.01445 -70.63251,20.39591 -107.92334,113.78608 -117.443969,186.68534 -10.040318,76.87851 47.718879,147.56696 69.139109,222.08063 8.45813,29.42295 -1.44509,33.06468 23.4359,88.80321 L 19.403681,852.53916 C 16.537709,822.93351 40.598301,792.15475 43.661521,760.61177 53.005833,664.39033 26.047813,567.85877 25.002397,471.19032 24.450154,420.12506 16.596213,366.95526 31.550404,318.12558 43.962431,277.59679 63.810689,234.61842 98.190221,209.8255 158.32741,166.45734 246.8125,129.32625 314.74439,159.03378 c 81.92437,35.82663 121.91515,144.52654 132.33276,233.3332 9.19471,78.38182 -35.12007,154.74103 -65.96659,227.38224 z" /><text
   text-anchor="middle"
   x="575.03638"
   y="776.38824"
   id="bottom"
   inkscape:label="bottom"
   style="clip-rule:evenodd;fill-rule:evenodd;image-rendering:optimizeQuality;shape-rendering:geometricPrecision;text-rendering:geometricPrecision">✛</text><path
   id="path1164-3-3-2-0"
   style="clip-rule:evenodd;display:inline;fill:#63452c;fill-rule:nonzero;stroke:none;stroke-width:2.83729;stroke-linecap:butt;stroke-linejoin:miter;stroke-miterlimit:4;stroke-dasharray:none;stroke-opacity:1;image-rendering:optimizeQuality;shape-rendering:geometricPrecision;text-rendering:geometricPrecision"
   d="m 638.19408,631.67734 c 6.06039,36.01664 8.91317,72.57241 8.51352,109.09319 -0.53826,49.18797 -7.44143,99.7088 -31.71472,142.49377 -24.53009,43.23762 -65.72302,75.78343 -111.78721,94.47321 -46.06419,18.68978 -96.7737,24.15349 -146.38247,20.96169 -30.84805,-1.98473 -62.4326,-7.59524 -88.45836,-24.2746 -13.01288,-8.33969 -24.40944,-19.41597 -32.18638,-32.77278 -7.77694,-13.35681 -11.81029,-29.04432 -10.3672,-44.43272 1.19249,-12.71608 6.0777,-24.97337 13.37743,-35.45358 7.29973,-10.4802 16.96178,-19.21592 27.74676,-26.05734 21.56995,-13.68284 47.136,-19.68614 72.48241,-22.85516 83.2493,-10.40852 169.85503,8.31123 241.37392,52.17274 l -82.3177,68.72994 c -9.68853,-6.36551 -19.3868,-12.71619 -29.09477,-19.052 -18.57997,-12.12604 -37.3224,-24.26539 -57.79356,-32.82036 -20.47116,-8.55498 -42.97564,-13.41421 -64.94668,-10.32722 -7.43664,1.04487 -14.92397,3.07182 -21.02921,7.44462 -3.05263,2.18641 -5.71875,4.9484 -7.60901,8.19274 -1.89025,3.24435 -2.98581,6.97958 -2.93084,10.73402 0.0639,4.36104 1.68265,8.63254 4.25323,12.156 2.57059,3.52347 6.05934,6.32153 9.90128,8.38604 7.68389,4.12901 16.5622,5.32803 25.23903,6.22446 37.50943,3.87523 76.11971,3.27592 111.98856,-8.36027 35.86885,-11.63618 68.89938,-35.32903 86.01797,-68.92857 14.51656,-28.49241 16.70723,-61.56164 16.63136,-93.53885 -0.11907,-50.18339 -5.14314,-100.35393 -14.97736,-149.56444 z"
   sodipodi:nodetypes="caaaaaccaaaaaacc"
   inkscape:path-effect="#path-effect1521"
   inkscape:original-d="m 638.19408,631.67734 c 0,0 11.08503,72.70899 8.51352,109.09319 -3.43057,48.53908 -0.94133,104.80013 -31.71472,142.49377 -59.61598,73.0222 -164.57243,126.6539 -258.16968,115.4349 -54.84662,-6.5741 -131.57242,-46.2437 -131.01194,-101.4801 0.47859,-47.1664 67.50314,-74.39758 113.6066,-84.36608 80.4568,-17.39639 241.37392,52.17274 241.37392,52.17274 l -82.3177,68.72994 c 0,0 -18.70159,-13.9169 -29.09477,-19.052 -38.88095,-19.2103 -80.06494,-50.86663 -122.74024,-43.14758 -13.49259,2.44052 -32.24832,12.67668 -31.56906,26.37138 0.78647,15.8561 23.61805,24.987 39.39354,26.7665 70.40552,7.9423 153.05391,-22.5232 198.00653,-77.28884 20.0924,-24.47852 15.42578,-61.89318 16.63136,-93.53885 1.9074,-50.06784 -14.97736,-149.56444 -14.97736,-149.56444 z" /><text
   text-anchor="middle"
   x="640.25208"
   y="804.40594"
   id="right"
   inkscape:label="right"
   style="clip-rule:evenodd;fill-rule:evenodd;image-rendering:optimizeQuality;shape-rendering:geometricPrecision;text-rendering:geometricPrecision">✛</text></svg>
