<?xml version="1.0" encoding="UTF-8" standalone="no"?>
<svg
   xml:space="preserve"
   width="1000"
   height="1000"
   version="1.1"
   style="clip-rule:evenodd;fill-rule:evenodd;image-rendering:optimizeQuality;shape-rendering:geometricPrecision;text-rendering:geometricPrecision"
   viewBox="0 0 1000 1000"
   id="svg10"
   sodipodi:docname="വൃ.svg"
   inkscape:version="1.1.2 (0a00cf5339, 2022-02-04)"
   xmlns:inkscape="http://www.inkscape.org/namespaces/inkscape"
   xmlns:sodipodi="http://sodipodi.sourceforge.net/DTD/sodipodi-0.dtd"
   xmlns="http://www.w3.org/2000/svg"
   xmlns:svg="http://www.w3.org/2000/svg"
   xmlns:rdf="http://www.w3.org/1999/02/22-rdf-syntax-ns#"
   xmlns:cc="http://creativecommons.org/ns#"
   xmlns:dc="http://purl.org/dc/elements/1.1/"><metadata
   id="metadata14"><rdf:RDF><cc:Work
       rdf:about=""><dc:format>image/svg+xml</dc:format><dc:type
         rdf:resource="http://purl.org/dc/dcmitype/StillImage" /></cc:Work></rdf:RDF></metadata><sodipodi:namedview
   pagecolor="#ffffff"
   bordercolor="#666666"
   borderopacity="1"
   objecttolerance="10"
   gridtolerance="10"
   guidetolerance="10"
   inkscape:pageopacity="0"
   inkscape:pageshadow="2"
   inkscape:window-width="1920"
   inkscape:window-height="1009"
   id="namedview12"
   showgrid="false"
   inkscape:zoom="0.84890884"
   inkscape:cx="152.54877"
   inkscape:cy="233.24059"
   inkscape:window-x="0"
   inkscape:window-y="0"
   inkscape:window-maximized="1"
   inkscape:current-layer="svg10"
   showguides="true"
   inkscape:guide-bbox="true"
   inkscape:document-rotation="0"
   inkscape:pagecheckerboard="0"><sodipodi:guide
   position="0,1000"
   orientation="0,1"
   id="guide16"
   inkscape:label=""
   inkscape:locked="true"
   inkscape:color="rgb(0,0,255)" /><sodipodi:guide
   position="1763.3122,2036.1693"
   orientation="1000,0"
   id="guide18" /><sodipodi:guide
   position="0,200"
   orientation="0,1"
   id="guide20"
   inkscape:label="base"
   inkscape:locked="true"
   inkscape:color="rgb(0,0,255)" /><inkscape:grid
   type="xygrid"
   id="grid24"
   originx="-473.37552"
   originy="-489.69235" /><sodipodi:guide
   position="0,0"
   orientation="0,1"
   id="guide34"
   inkscape:label="bottom"
   inkscape:locked="true"
   inkscape:color="rgb(0,0,255)" /><sodipodi:guide
   position="225.05109,1693.3186"
   orientation="0,1"
   id="guide44"
   inkscape:label=""
   inkscape:locked="false"
   inkscape:color="rgb(0,0,255)" /><sodipodi:guide
   position="0,900"
   orientation="0,1"
   id="guide46"
   inkscape:label=""
   inkscape:locked="true"
   inkscape:color="rgb(0,0,255)" /><sodipodi:guide
   position="654.00487,774.75758"
   orientation="1,0"
   id="guide841"
   inkscape:label="width" />    </sodipodi:namedview>
 <defs
   id="defs4"><inkscape:path-effect
   effect="fillet_chamfer"
   id="path-effect3142"
   is_visible="true"
   lpeversion="1"
   satellites_param="F,0,0,1,0,0,0,1 @ F,0,0,1,0,0,0,1 @ F,0,0,1,0,0,0,1 @ F,0,0,1,0,0,0,1 @ F,0,1,1,0,19.483472,0,1 @ F,0,1,1,0,19.483472,0,1 @ F,0,0,1,0,0,0,1 @ F,0,0,1,0,0,0,1 @ F,0,0,1,0,0,0,1 @ F,0,0,1,0,0,0,1 @ F,0,0,1,0,0,0,1 @ F,0,0,1,0,0,0,1 @ F,0,0,1,0,0,0,1 @ F,0,0,1,0,0,0,1 @ F,0,0,1,0,0,0,1 @ F,0,1,1,0,19.483472,0,1 @ F,0,1,1,0,19.483472,0,1 @ F,0,0,1,0,0,0,1 @ F,0,0,1,0,0,0,1 @ F,0,0,1,0,0,0,1 @ F,0,0,1,0,0,0,1 @ F,0,0,1,0,0,0,1 @ F,0,0,1,0,0,0,1 @ F,0,0,1,0,0,0,1 @ F,0,0,1,0,0,0,1 @ F,0,0,1,0,0,0,1 @ F,0,0,1,0,0,0,1 @ F,0,0,1,0,0,0,1 @ F,0,0,1,0,0,0,1 @ F,0,0,1,0,0,0,1 @ F,0,0,1,0,0,0,1 @ F,0,0,1,0,0,0,1 @ F,0,0,1,0,0,0,1 @ F,0,0,1,0,0,0,1 @ F,0,0,1,0,0,0,1 @ F,0,0,1,0,19.483472,0,1 @ F,0,1,1,0,19.483472,0,1 @ F,0,0,1,0,0,0,1 @ F,0,0,1,0,0,0,1 @ F,0,0,1,0,0,0,1 @ F,0,0,1,0,0,0,1 @ F,0,0,1,0,0,0,1 @ F,0,0,1,0,0,0,1 @ F,0,0,1,0,0,0,1 @ F,0,0,1,0,0,0,1 @ F,0,0,1,0,0,0,1 @ F,0,0,1,0,0,0,1 @ F,0,0,1,0,0,0,1 @ F,0,0,1,0,0,0,1 @ F,0,0,1,0,0,0,1 @ F,0,0,1,0,0,0,1 @ F,0,0,1,0,0,0,1 @ F,0,0,1,0,0,0,1 @ F,0,0,1,0,0,0,1 @ F,0,0,1,0,0,0,1 @ F,0,0,1,0,0,0,1 @ F,0,0,1,0,0,0,1 @ F,0,0,1,0,0,0,1 @ F,0,0,1,0,0,0,1 @ F,0,0,1,0,0,0,1 @ F,0,0,1,0,0,0,1 @ F,0,0,1,0,0,0,1 @ F,0,0,1,0,0,0,1 @ F,0,0,1,0,0,0,1"
   unit="px"
   method="auto"
   mode="F"
   radius="0"
   chamfer_steps="1"
   flexible="false"
   use_knot_distance="true"
   apply_no_radius="true"
   apply_with_radius="true"
   only_selected="false"
   hide_knots="false" /><inkscape:path-effect
   effect="fillet_chamfer"
   id="path-effect845"
   is_visible="true"
   lpeversion="1"
   satellites_param="F,0,0,1,0,0,0,1 @ F,0,0,1,0,0,0,1 @ F,0,0,1,0,0,0,1 @ F,0,0,1,0,0,0,1 @ F,0,0,1,0,0,0,1 @ F,0,0,1,0,0,0,1 @ F,0,0,1,0,0,0,1 @ F,0,0,1,0,0,0,1 @ F,0,0,1,0,0,0,1 @ F,0,0,1,0,0,0,1 @ F,0,0,1,0,0,0,1 @ F,0,0,1,0,19.042,0,1 @ F,0,0,1,0,19.042,0,1 @ F,0,0,1,0,0,0,1 @ F,0,0,1,0,0,0,1 @ F,0,0,1,0,44.227607,0,1 @ F,0,0,1,0,0,0,1 @ F,0,0,1,0,0,0,1 @ F,0,0,1,0,0,0,1 @ F,0,0,1,0,0,0,1 @ F,0,0,1,0,19.042,0,1 @ F,0,0,1,0,19.042,0,1 @ F,0,0,1,0,0,0,1 @ F,0,0,1,0,0,0,1 @ F,0,0,1,0,0,0,1 @ F,0,0,1,0,0,0,1 @ F,0,0,1,0,0,0,1 @ F,0,0,1,0,0,0,1 @ F,0,0,1,0,0,0,1 @ F,0,0,1,0,0,0,1 @ F,0,0,1,0,0,0,1 @ F,0,0,1,0,19.042,0,1 @ F,0,0,1,0,19.042,0,1 @ F,0,0,1,0,0,0,1 @ F,0,0,1,0,0,0,1 @ F,0,0,1,0,0,0,1 @ F,0,0,1,0,0,0,1 @ F,0,0,1,0,0,0,1 @ F,0,0,1,0,0,0,1 @ F,0,0,1,0,0,0,1 @ F,0,0,1,0,0,0,1"
   unit="px"
   method="auto"
   mode="F"
   radius="0"
   chamfer_steps="1"
   flexible="false"
   use_knot_distance="true"
   apply_no_radius="true"
   apply_with_radius="true"
   only_selected="true"
   hide_knots="false" /><inkscape:path-effect
   effect="fillet_chamfer"
   id="path-effect844"
   is_visible="true"
   lpeversion="1"
   satellites_param="F,0,0,1,0,0,0,1 @ F,0,0,1,0,0,0,1 @ F,0,0,1,0,0,0,1 @ F,0,0,1,0,0,0,1 @ F,0,0,1,0,0,0,1 @ F,0,0,1,0,0,0,1 @ F,0,0,1,0,0,0,1 @ F,0,0,1,0,0,0,1 @ F,0,0,1,0,28.383225,0,1 @ F,0,0,1,0,18.46733,0,1 @ F,0,0,1,0,0,0,1 @ F,0,0,1,0,0,0,1 @ F,0,0,1,0,0,0,1 @ F,0,0,1,0,0,0,1 @ F,0,0,1,0,0,0,1 @ F,0,0,1,0,0,0,1 @ F,0,0,1,0,0,0,1 @ F,0,0,1,0,0,0,1 @ F,0,0,1,0,0,0,1 @ F,0,0,1,0,0,0,1 @ F,0,1,1,0,27.61614,0,1 @ F,0,0,1,0,0,0,1 @ F,0,0,1,0,23.24714,0,1 @ F,0,0,1,0,0,0,1 @ F,0,0,1,0,0,0,1 @ F,0,0,1,0,0,0,1 @ F,0,0,1,0,0,0,1 @ F,0,0,1,0,0,0,1 @ F,0,0,1,0,0,0,1 @ F,0,0,1,0,0,0,1 @ F,0,0,1,0,27.61614,0,1 @ F,0,0,1,0,26.731904,0,1 @ F,0,0,1,0,0,0,1 @ F,0,0,1,0,0,0,1 @ F,0,0,1,0,0,0,1 @ F,0,0,1,0,0,0,1 @ F,0,0,1,0,0,0,1 @ F,0,0,1,0,0,0,1 @ F,0,0,1,0,0,0,1 @ F,0,0,1,0,0,0,1 @ F,0,0,1,0,0,0,1"
   unit="px"
   method="auto"
   mode="F"
   radius="0"
   chamfer_steps="1"
   flexible="false"
   use_knot_distance="true"
   apply_no_radius="true"
   apply_with_radius="true"
   only_selected="true"
   hide_knots="false" /><inkscape:path-effect
   effect="spiro"
   id="path-effect854"
   is_visible="true"
   lpeversion="1" />
  <style
   type="text/css"
   id="style2">
   
    .fil0 {fill:#EF7F1A;fill-rule:nonzero}
   
  </style>
 <inkscape:path-effect
   effect="spiro"
   id="path-effect1214"
   is_visible="true"
   lpeversion="1" /><inkscape:path-effect
   effect="spiro"
   id="path-effect1195"
   is_visible="true"
   lpeversion="1" /><inkscape:path-effect
   effect="spiro"
   id="path-effect992"
   is_visible="true"
   lpeversion="1" /><inkscape:path-effect
   effect="spiro"
   id="path-effect287"
   is_visible="true"
   lpeversion="1" /><inkscape:path-effect
   effect="spiro"
   id="path-effect1521"
   is_visible="true"
   lpeversion="1" /></defs>
 
<path
   style="display:inline;fill:#a51d2d;fill-rule:nonzero;stroke:none;stroke-width:1.96742;stroke-linecap:butt;stroke-linejoin:miter;stroke-miterlimit:4;stroke-dasharray:none;stroke-opacity:1"
   d="m 607.15617,733.69426 c -12.65875,22.78079 -32.34759,41.80366 -56.08679,52.55814 -33.01851,14.95824 -71.06739,13.3014 -106.92611,7.99831 -35.85872,-5.3031 -71.64633,-13.98163 -107.84604,-12.09702 -17.83882,0.92871 -35.53709,4.45812 -52.37967,10.40687 -10.14149,3.58194 -20.7106,-0.85096 -24.05736,-11.07769 l -31.65163,-96.71818 c -3.34676,-10.22673 2.08903,-21.68889 11.67195,-26.57519 17.21462,-8.77767 33.25879,-19.85256 47.54982,-32.85946 40.28409,-36.66434 65.76822,-88.35051 73.84213,-142.21974 6.43441,-42.93047 1.62601,-88.96227 -21.64387,-125.60841 -12.90159,-20.31782 -31.27343,-37.22618 -52.88255,-47.82385 -21.60912,-10.59767 -46.42023,-14.77084 -70.22037,-11.1906 -20.0227,3.01201 -39.11373,11.42407 -55.32077,23.5613 -16.20704,12.13724 -29.55452,27.93756 -39.49644,45.57669 -19.88383,35.27827 -25.868167,77.18132 -22.626759,117.54735 6.227539,77.55301 44.216299,148.37782 69.139109,222.08063 7.73404,22.87144 14.23955,46.15819 19.48112,69.72602 2.33599,10.50342 -4.33403,21.79513 -14.5588,25.14787 L 37.917256,846.46848 C 27.692491,849.82122 21.529514,844.07672 23.803939,833.55981 29.217183,808.52907 33.166845,783.18179 35.623428,757.69047 44.804729,662.41848 33.101222,566.56043 25.002397,471.19032 20.656236,420.01082 17.464223,367.52002 31.550404,318.12558 43.31482,276.87262 67.022974,239.3011 98.190221,209.8255 126.61248,182.9459 161.48371,162.56833 199.40882,152.97547 c 37.92511,-9.59287 78.87729,-8.12375 115.33557,6.05831 44.4161,17.27761 80.55773,52.84157 102.70019,95.04367 22.14246,42.2021 30.88858,90.64786 29.63257,138.28953 -2.09625,79.51318 -30.9994,155.93971 -65.96659,227.38224 -25.49125,52.08196 -54.40412,102.4889 -86.49036,150.78804 L 263.91341,668.98598 c 44.85011,9.85138 90.30169,16.96363 136.0173,21.28395 15.92202,1.5047 31.95567,2.67118 47.89517,1.36461 15.9395,-1.30658 31.87852,-5.18193 45.71883,-13.19571 23.94172,-13.86267 39.68071,-39.15775 47.09276,-65.81185 7.41204,-26.6541 7.33344,-54.79302 5.72668,-82.41181 -3.67831,-63.22698 -15.0626,-125.7819 -29.19477,-187.51894 -12.3283,-53.85674 -26.80171,-107.44628 -32.61864,-162.38897 -2.84904,-26.9101 -3.60026,-54.04179 -2.25068,-81.06853 0.53662,-10.746409 9.95015,-18.070353 20.57777,-16.385049 l 114.10694,18.094809 c 10.62762,1.6853 15.24123,10.81013 10.85939,20.63669 -15.75145,35.32354 -26.16846,73.02531 -30.74341,111.43145 -5.85504,49.15239 -2.18539,98.98255 4.58323,148.01749 11.40304,82.60884 31.55774,163.91946 40.39174,246.84237 3.99272,37.47888 5.65925,75.21709 4.63188,112.89404 -1.33966,49.12944 -7.72415,99.59914 -31.71472,142.49377 -24.28602,43.42287 -65.51222,76.09157 -111.63057,94.7585 -46.11835,18.66693 -96.89655,23.9889 -146.53911,20.6764 -30.8152,-2.05622 -62.35182,-7.71577 -88.34988,-24.38628 -12.99903,-8.33525 -24.38909,-19.39264 -32.18049,-32.72475 -7.7914,-13.33212 -11.8619,-28.98902 -10.48157,-44.36907 1.14338,-12.73985 5.98222,-25.03712 13.25348,-35.56043 7.27125,-10.52331 16.92272,-19.30403 27.71422,-26.17097 21.58299,-13.73387 47.22522,-19.70389 72.6389,-22.63468 83.45524,-9.62434 170.16684,12.26722 239.05257,60.35216 l -54.60659,57.21868 c -15.47509,-10.16205 -31.48357,-19.51177 -47.93753,-27.99782 -39.98629,-20.62273 -84.63481,-36.38 -129.28724,-30.86992 -8.15201,1.00595 -16.34516,2.76117 -23.57368,6.66188 -7.22853,3.90072 -13.45296,10.17196 -15.91221,18.00901 -2.05637,6.55316 -1.33437,13.82904 1.44747,20.10868 2.78184,6.27964 7.5284,11.58486 13.13529,15.55164 11.21377,7.93356 25.32556,10.46278 39.00801,11.67958 37.92188,3.37246 76.96188,-1.97135 111.42196,-18.15609 34.46007,-16.18474 64.06385,-43.57175 80.30417,-78.00566 13.63512,-28.91017 17.5532,-61.58788 16.63136,-93.53885 -0.82065,-28.44372 -5.33842,-56.77865 -13.40382,-84.06725 l 68.19948,-0.36207 c -0.0568,22.37063 -5.87494,44.70276 -16.74093,64.25727 z"
   id="use1029"
   sodipodi:nodetypes="aaaccaaaaaaccaaaaaaaccaaaaaccaaaaaaaaccaaaaaacca"
   inkscape:path-effect="#path-effect854;#path-effect3142"
   inkscape:original-d="m 607.15617,733.69426 c -13.09289,22.0234 -32.17092,43.36657 -56.08679,52.55814 C 484.23193,811.93999 407.43104,773.96356 336.29723,782.15369 312.25451,784.9219 265.92004,800 265.92004,800 L 222.14873,666.24756 c 0,0 47.87193,-22.03761 65.28161,-40.91752 36.21066,-39.26861 65.64168,-89.43728 73.84213,-142.21974 6.52259,-41.98284 3.97372,-91.71383 -21.64387,-125.60841 -27.43812,-36.30333 -79.38332,-71.63896 -123.10292,-59.01445 -70.63251,20.39591 -107.92334,113.78608 -117.443969,186.68534 -10.040318,76.87851 47.718879,147.56696 69.139109,222.08063 8.45813,29.42295 -1.44509,33.06468 23.4359,88.80321 L 19.403681,852.53916 C 16.537709,822.93351 33.502984,789.69548 35.623428,757.69047 41.941134,662.33387 24.730103,566.75558 25.002397,471.19032 25.147905,420.12228 16.596213,366.95526 31.550404,318.12558 43.962431,277.59679 63.810689,234.61842 98.190221,209.8255 158.32741,166.45734 246.8125,129.32625 314.74439,159.03378 c 81.92437,35.82663 121.91515,144.52654 132.33276,233.3332 9.19471,78.38182 -35.12007,154.74103 -65.96659,227.38224 -22.64811,53.33457 -77.61092,124.25928 -86.49036,150.78804 L 263.91341,668.98598 c 0,0 90.13147,20.60695 136.0173,21.28395 31.44946,0.464 69.09976,7.87514 93.614,-11.8311 40.88023,-32.86235 47.89967,-96.00371 52.81944,-148.22366 C 552.2977,467.23473 528.26678,404.97456 517.16938,342.69623 507.4839,288.34155 490.26426,235.22169 484.55074,180.30726 481.08365,146.98405 492.05342,61.307256 483.63481,79.802168 L 636.22779,104 c 0,0 -33.22332,84.46637 -39.12704,129.01663 -6.48478,48.935 -0.17659,98.8847 4.58323,148.01749 8.03946,82.98658 31.93532,163.89724 40.39174,246.84237 3.82001,37.46878 7.43211,79.92923 4.63188,112.89404 -4.11865,48.48554 -0.94133,104.80013 -31.71472,142.49377 -59.61598,73.0222 -164.57243,126.6539 -258.16968,115.4349 -54.84662,-6.5741 -131.57242,-46.2437 -131.01194,-101.4801 0.47859,-47.1664 67.33841,-75.19251 113.6066,-84.36608 80.61517,-15.98354 239.05257,60.35216 239.05257,60.35216 l -54.60659,57.21868 c 0,0 -30.76295,-21.1083 -47.93753,-27.99782 -41.12191,-16.49593 -85.56045,-38.01799 -129.28724,-30.86992 -15.31654,2.50381 -38.20628,9.20389 -39.48589,24.67089 -1.96521,23.75401 29.95465,44.26598 53.59077,47.3399 70.89962,9.22062 148.97515,-38.85442 191.72613,-96.16175 18.93605,-25.38362 16.34869,-61.87148 16.63136,-93.53885 0.25328,-28.37524 -13.40382,-84.06725 -13.40382,-84.06725 l 68.19948,-0.36207 c 0,0 -5.43009,45.23144 -16.74093,64.25727 z" /><text
   text-anchor="middle"
   x="575.03638"
   y="776.38824"
   id="bottom"
   inkscape:label="bottom"
   style="clip-rule:evenodd;fill-rule:evenodd;image-rendering:optimizeQuality;shape-rendering:geometricPrecision;text-rendering:geometricPrecision">✛</text><text
   text-anchor="middle"
   x="640.25208"
   y="804.40594"
   id="right"
   inkscape:label="right"
   style="clip-rule:evenodd;fill-rule:evenodd;image-rendering:optimizeQuality;shape-rendering:geometricPrecision;text-rendering:geometricPrecision">✛</text></svg>
