<?xml version="1.0" encoding="UTF-8" standalone="no"?>
<svg
   xmlns:dc="http://purl.org/dc/elements/1.1/"
   xmlns:cc="http://creativecommons.org/ns#"
   xmlns:rdf="http://www.w3.org/1999/02/22-rdf-syntax-ns#"
   xmlns:svg="http://www.w3.org/2000/svg"
   xmlns="http://www.w3.org/2000/svg"
   xmlns:sodipodi="http://sodipodi.sourceforge.net/DTD/sodipodi-0.dtd"
   xmlns:inkscape="http://www.inkscape.org/namespaces/inkscape"
   xml:space="preserve"
   width="1000"
   height="1000"
   version="1.1"
   style="clip-rule:evenodd;fill-rule:evenodd;image-rendering:optimizeQuality;shape-rendering:geometricPrecision;text-rendering:geometricPrecision"
   viewBox="0 0 1000 1000"
   id="svg10"
   sodipodi:docname="ശ.svg"
   inkscape:version="1.0.1 (3bc2e813f5, 2020-09-07)"><metadata
   id="metadata14"><rdf:RDF><cc:Work
       rdf:about=""><dc:format>image/svg+xml</dc:format><dc:type
         rdf:resource="http://purl.org/dc/dcmitype/StillImage" /><dc:title /></cc:Work></rdf:RDF></metadata><sodipodi:namedview
   pagecolor="#ffffff"
   bordercolor="#666666"
   borderopacity="1"
   objecttolerance="10"
   gridtolerance="10"
   guidetolerance="10"
   inkscape:pageopacity="0"
   inkscape:pageshadow="2"
   inkscape:window-width="1920"
   inkscape:window-height="1015"
   id="namedview12"
   showgrid="false"
   inkscape:zoom="0.84890884"
   inkscape:cx="327.86116"
   inkscape:cy="503.78033"
   inkscape:window-x="1920"
   inkscape:window-y="0"
   inkscape:window-maximized="1"
   inkscape:current-layer="svg10"
   showguides="true"
   inkscape:guide-bbox="true"
   inkscape:document-rotation="0"><sodipodi:guide
     position="0,1000"
     orientation="0,1"
     id="guide16"
     inkscape:label=""
     inkscape:locked="true"
     inkscape:color="rgb(0,0,255)" /><sodipodi:guide
     position="1763.3122,2036.1693"
     orientation="1000,0"
     id="guide18" /><sodipodi:guide
     position="0,200"
     orientation="0,1"
     id="guide20"
     inkscape:label="base"
     inkscape:locked="true"
     inkscape:color="rgb(0,0,255)" /><inkscape:grid
     type="xygrid"
     id="grid24"
     originx="-473.37552"
     originy="-489.69235" /><sodipodi:guide
     position="0,0"
     orientation="0,1"
     id="guide34"
     inkscape:label="bottom"
     inkscape:locked="true"
     inkscape:color="rgb(0,0,255)" /><sodipodi:guide
     position="225.05109,1693.3186"
     orientation="0,1"
     id="guide44"
     inkscape:label=""
     inkscape:locked="false"
     inkscape:color="rgb(0,0,255)" /><sodipodi:guide
     position="0,900"
     orientation="0,1"
     id="guide46"
     inkscape:label=""
     inkscape:locked="true"
     inkscape:color="rgb(0,0,255)" /><sodipodi:guide
     position="775.92455,582.50522"
     orientation="-1,0"
     id="guide841"
     inkscape:label="width"
     inkscape:locked="false"
     inkscape:color="rgb(0,0,255)" /></sodipodi:namedview>
 <defs
   id="defs4"><inkscape:path-effect
   effect="spiro"
   id="path-effect853"
   is_visible="true"
   lpeversion="1" /><inkscape:path-effect
   effect="spiro"
   id="path-effect854"
   is_visible="true"
   lpeversion="1" />
  <style
   type="text/css"
   id="style2">
   <![CDATA[
    .fil0 {fill:#EF7F1A;fill-rule:nonzero}
   ]]>
  </style>
 <inkscape:path-effect
   effect="spiro"
   id="path-effect1214"
   is_visible="true"
   lpeversion="1" /><inkscape:path-effect
   effect="spiro"
   id="path-effect1195"
   is_visible="true"
   lpeversion="1" /><inkscape:path-effect
   effect="spiro"
   id="path-effect992"
   is_visible="true"
   lpeversion="1" /><inkscape:path-effect
   effect="spiro"
   id="path-effect287"
   is_visible="true"
   lpeversion="1" /><inkscape:path-effect
   effect="spiro"
   id="path-effect1032"
   is_visible="true"
   lpeversion="1" /><inkscape:path-effect
   effect="spiro"
   id="path-effect1102"
   is_visible="true"
   lpeversion="1" /></defs>
 
<path
   id="path1038-8-6"
   style="display:inline;fill:#1a1a1a;fill-rule:nonzero;stroke:none;stroke-width:4.4069;stroke-linecap:butt;stroke-linejoin:miter;stroke-miterlimit:4;stroke-dasharray:none;stroke-opacity:1"
   d="m 457.43925,573.6575 c 7.80309,-25.61265 22.34499,-49.66798 43.68738,-65.8358 10.67119,-8.08392 22.94873,-14.11414 35.98048,-17.1797 13.03174,-3.06556 26.81359,-3.12743 39.76645,0.256 15.3443,4.0081 29.30446,12.82267 40.00232,24.53029 10.69785,11.70761 18.16596,26.23418 22.09493,41.59893 7.85793,30.72951 1.43794,63.94598 -13.06568,92.15404 -9.68584,18.83797 -23.12401,36.06109 -40.58052,48.05921 -17.4565,11.99811 -39.14369,18.45159 -60.12696,15.5556 -14.5343,-2.00594 -28.35219,-8.42368 -39.63902,-17.79796 -11.28684,-9.37427 -20.06254,-21.64072 -25.83228,-35.13071 -11.53946,-26.97998 -10.83894,-58.13955 -2.2871,-86.2099 z M 58.326675,100 C 28.390741,220.94185 11.669184,345.14979 8.5552763,469.70257 c -1.704688,68.18558 0.7760371,137.2735 19.2717827,202.92475 6.721597,23.85853 15.626327,47.32177 29.118372,68.11538 13.492044,20.7936 31.826906,38.88369 54.239879,49.46991 15.7575,7.44267 33.25118,11.03499 50.67775,10.95386 34.62397,-0.16118 68.45629,-14.94716 94.11547,-38.19478 25.65918,-23.24762 43.39286,-54.51772 53.06525,-87.76362 18.8079,-64.64648 7.84523,-133.82182 13.30615,-200.92683 4.70778,-57.85033 22.32805,-115.48455 56.51912,-162.38651 15.96708,-21.90302 35.60661,-41.43856 59.02974,-55.07847 23.42313,-13.63991 50.79369,-21.15473 77.79898,-18.83004 25.98983,2.23727 50.7725,13.4998 71.14372,29.79367 20.37123,16.29386 36.50751,37.44985 49.06465,60.31456 20.98462,38.20994 32.29315,81.68453 32.5867,125.27659 -11.45618,-29.29262 -32.58527,-54.70875 -59.29249,-71.32278 -26.70723,-16.61403 -58.84475,-24.33399 -90.18437,-21.66377 -40.63278,3.46202 -78.78055,24.13949 -107.15642,53.42803 -25.90625,26.73948 -44.19891,60.53766 -53.79512,96.51051 -9.59622,35.97285 -10.60824,74.04919 -4.34453,110.74932 8.44844,49.50089 30.73029,97.38345 67.11846,131.99003 36.38817,34.60659 87.47297,54.77859 137.37769,49.18991 31.60726,-3.5396 61.67414,-17.04838 87.00467,-36.28148 25.33053,-19.23309 46.09148,-44.03645 62.93084,-71.01762 58.87868,-94.33943 68.86398,-212.72711 50.43679,-322.39509 -10.46254,-62.26696 -30.05854,-124.17413 -66.9678,-175.4025 -18.45463,-25.61419 -41.14899,-48.32018 -67.558,-65.61828 -26.40901,-17.29809 -56.58017,-29.10333 -87.9171,-32.931713 -57.6059,-7.037613 -117.04685,13.815793 -161.02251,51.685423 -41.55322,35.78355 -69.53029,85.26301 -87.40278,137.1061 -16.08915,46.67012 -24.56814,95.77094 -27.57492,145.04487 -2.10882,34.55856 -1.55632,69.26176 -4.49774,103.75943 -2.94143,34.49768 -9.54884,69.19933 -25.08524,100.14059 -5.24924,10.45404 -11.57082,20.51517 -19.98244,28.64451 -8.41163,8.12933 -19.07469,14.25263 -30.66729,15.81893 -7.44383,1.00575 -15.09523,0.11284 -22.23136,-2.23191 -7.13613,-2.34475 -13.76494,-6.11847 -19.66269,-10.77021 -11.79551,-9.30347 -20.54223,-21.93125 -27.82878,-35.06879 C 90.601079,597.41657 80.488105,557.33586 77.385326,517.06867 74.282548,476.80148 78.010226,436.25469 84.828521,396.44785 102.88328,291.03984 142.86932,189.43931 201.49895,100 Z"
   sodipodi:nodetypes="aaaaacaasaaaaaacaaaaaaaaaaaaaacc"
   inkscape:path-effect="#path-effect853"
   inkscape:original-d="m 457.43925,573.6575 c 12.25622,-46.85884 73.64751,-98.55615 119.43431,-82.7595 52.21439,18.0142 68.15316,106.46416 49.03157,158.28326 -13.74566,37.25044 -62.51664,74.47749 -100.70748,63.61481 -49.61868,-14.11313 -80.8121,-89.23071 -67.7584,-139.13857 z M 58.326675,100 C -10.733493,204.61523 10.988249,345.38045 8.5552763,469.70257 7.2258351,537.6355 4.166012,608.93426 27.827059,672.62732 c 16.730875,45.03776 49.477378,86.84179 83.358251,117.58529 12.79892,11.61374 33.92167,15.18765 50.67775,10.95386 62.60598,-15.81877 118.25138,-68.22768 147.18072,-125.9584 30.0712,-60.0094 -0.0641,-135.14961 13.30615,-200.92683 11.41644,-56.16521 19.36732,-118.74468 56.51912,-162.38651 33.6023,-39.47227 85.13262,-77.74085 136.82872,-73.90851 49.94018,3.70216 92.30515,48.52533 120.20837,90.10823 24.0425,35.82944 32.5867,125.27659 32.5867,125.27659 0,0 -90.86185,-90.23047 -149.47686,-92.98655 -39.86843,-1.87462 -81.72361,22.66803 -107.15642,53.42803 -45.72227,55.29931 -78.39257,138.42409 -58.13965,207.25983 25.7054,87.36764 113.54826,176.45213 204.49615,181.17994 61.37512,3.1905 117.6855,-54.98256 149.93551,-107.2991 C 765.22964,602.36011 786.90958,477.57854 758.58836,372.5581 727.96088,258.98559 648.89365,132.14071 536.14546,98.605607 482.11342,82.53466 419.76174,115.86553 375.12295,150.29103 c -42.91815,33.09854 -67.41534,86.7277 -87.40278,137.1061 -18.14933,45.74544 -19.444,96.50693 -27.57492,145.04487 -11.34666,67.73449 3.17512,143.53766 -29.58298,203.90002 -10.71569,19.74549 -28.22229,43.15181 -50.64973,44.46344 -28.18123,1.64812 -55.28052,-23.81564 -69.72283,-48.07091 C 69.663098,564.67173 74.244692,474.95223 84.828521,396.44785 99.016972,291.20659 201.49895,100 201.49895,100 c -69.4284,-5.68555 -83.34139,35.19642 -143.172275,0 z" /></svg>
