<?xml version="1.0" encoding="UTF-8" standalone="no"?>
<svg
   xmlns:dc="http://purl.org/dc/elements/1.1/"
   xmlns:cc="http://creativecommons.org/ns#"
   xmlns:rdf="http://www.w3.org/1999/02/22-rdf-syntax-ns#"
   xmlns:svg="http://www.w3.org/2000/svg"
   xmlns="http://www.w3.org/2000/svg"
   xmlns:sodipodi="http://sodipodi.sourceforge.net/DTD/sodipodi-0.dtd"
   xmlns:inkscape="http://www.inkscape.org/namespaces/inkscape"
   xml:space="preserve"
   width="1000"
   height="1000"
   version="1.1"
   style="clip-rule:evenodd;fill-rule:evenodd;image-rendering:optimizeQuality;shape-rendering:geometricPrecision;text-rendering:geometricPrecision"
   viewBox="0 0 1000 1000"
   id="svg10"
   sodipodi:docname="ശു.svg"
   inkscape:version="1.0.2 (e86c870879, 2021-01-15)"><metadata
   id="metadata14"><rdf:RDF><cc:Work
       rdf:about=""><dc:format>image/svg+xml</dc:format><dc:type
         rdf:resource="http://purl.org/dc/dcmitype/StillImage" /><dc:title /></cc:Work></rdf:RDF></metadata><sodipodi:namedview
   pagecolor="#ffffff"
   bordercolor="#666666"
   borderopacity="1"
   objecttolerance="10"
   gridtolerance="10"
   guidetolerance="10"
   inkscape:pageopacity="0"
   inkscape:pageshadow="2"
   inkscape:window-width="1920"
   inkscape:window-height="1007"
   id="namedview12"
   showgrid="false"
   inkscape:zoom="0.84890884"
   inkscape:cx="327.86116"
   inkscape:cy="456.66102"
   inkscape:window-x="1920"
   inkscape:window-y="0"
   inkscape:window-maximized="1"
   inkscape:current-layer="svg10"
   showguides="true"
   inkscape:guide-bbox="true"
   inkscape:document-rotation="0"><sodipodi:guide
     position="0,1000"
     orientation="0,1"
     id="guide16"
     inkscape:label=""
     inkscape:locked="true"
     inkscape:color="rgb(0,0,255)" /><sodipodi:guide
     position="1763.3122,2036.1693"
     orientation="1000,0"
     id="guide18" /><sodipodi:guide
     position="0,200"
     orientation="0,1"
     id="guide20"
     inkscape:label="base"
     inkscape:locked="true"
     inkscape:color="rgb(0,0,255)" /><inkscape:grid
     type="xygrid"
     id="grid24"
     originx="-473.37552"
     originy="-489.69235" /><sodipodi:guide
     position="0,0"
     orientation="0,1"
     id="guide34"
     inkscape:label="bottom"
     inkscape:locked="true"
     inkscape:color="rgb(0,0,255)" /><sodipodi:guide
     position="225.05109,1693.3186"
     orientation="0,1"
     id="guide44"
     inkscape:label=""
     inkscape:locked="false"
     inkscape:color="rgb(0,0,255)" /><sodipodi:guide
     position="0,900"
     orientation="0,1"
     id="guide46"
     inkscape:label=""
     inkscape:locked="true"
     inkscape:color="rgb(0,0,255)" /><sodipodi:guide
     position="872.49124,577.21875"
     orientation="-1,0"
     id="guide841"
     inkscape:label="width"
     inkscape:locked="false"
     inkscape:color="rgb(0,0,255)" /></sodipodi:namedview>
 <defs
   id="defs4"><inkscape:path-effect
   effect="spiro"
   id="path-effect853"
   is_visible="true"
   lpeversion="1" /><inkscape:path-effect
   effect="spiro"
   id="path-effect854"
   is_visible="true"
   lpeversion="1" />
  <style
   type="text/css"
   id="style2">
   <![CDATA[
    .fil0 {fill:#EF7F1A;fill-rule:nonzero}
   ]]>
  </style>
 <inkscape:path-effect
   effect="spiro"
   id="path-effect1214"
   is_visible="true"
   lpeversion="1" /><inkscape:path-effect
   effect="spiro"
   id="path-effect1195"
   is_visible="true"
   lpeversion="1" /><inkscape:path-effect
   effect="spiro"
   id="path-effect992"
   is_visible="true"
   lpeversion="1" /><inkscape:path-effect
   effect="spiro"
   id="path-effect287"
   is_visible="true"
   lpeversion="1" /><inkscape:path-effect
   effect="spiro"
   id="path-effect1032"
   is_visible="true"
   lpeversion="1" /><inkscape:path-effect
   effect="spiro"
   id="path-effect1102"
   is_visible="true"
   lpeversion="1" /></defs>
 
<path
   id="path1038-8-6"
   style="display:inline;fill:#000000;fill-rule:nonzero;stroke:none;stroke-width:4.4069;stroke-linecap:butt;stroke-linejoin:miter;stroke-miterlimit:4;stroke-dasharray:none;stroke-opacity:1"
   d="m 889.99617,876.85941 c -37.3558,24.44633 -80.3607,40.20194 -124.66795,45.6743 -55.42724,6.84579 -112.76419,-2.56631 -163.09411,-26.77256 63.52224,11.29088 131.63521,-6.554 181.46121,-47.54093 35.83517,-29.47806 62.02797,-70.10751 75.8386,-114.40629 13.81063,-44.29878 15.4145,-92.10407 6.41259,-137.62419 C 853.00344,530.74029 817.717,469.66807 766.46338,426.95717 715.20977,384.24627 648.19349,360.47628 581.52039,362.89522 c -55.31383,2.00682 -110.29853,22.19198 -151.83435,58.77644 -55.46675,48.85472 -83.93865,125.91747 -75.96613,199.40069 5.47089,50.42557 27.77378,99.51453 64.89063,134.08342 37.11685,34.56888 89.29124,53.51068 139.60552,47.09652 31.49919,-4.01557 61.40841,-17.56238 86.74378,-36.70507 25.33537,-19.14269 46.23872,-43.74409 63.19173,-70.59403 59.39599,-94.07055 69.03438,-212.7079 50.43679,-322.39509 C 748.03547,310.31796 728.43707,248.4355 691.5492,197.20579 673.10526,171.59093 650.42693,148.87795 624.03152,131.56953 597.6361,114.2611 567.47561,102.44241 536.14546,98.605607 478.5401,91.551049 419.09682,112.41699 375.12295,150.29103 c -41.55025,35.78662 -69.52932,85.2636 -87.40278,137.1061 -16.0901,46.66983 -24.56844,95.77089 -27.57492,145.04487 -2.10861,34.55858 -1.55609,69.26178 -4.49756,103.75946 -2.94148,34.49767 -9.54899,69.1993 -25.08542,100.14056 -5.24925,10.45404 -11.57082,20.51516 -19.98245,28.6445 -8.41163,8.12933 -19.07468,14.25264 -30.66728,15.81894 -7.44383,1.00575 -15.09523,0.11284 -22.23136,-2.23191 -7.13613,-2.34474 -13.76494,-6.11846 -19.6627,-10.7702 -11.79551,-9.30348 -20.54222,-21.93126 -27.82877,-35.0688 C 90.601083,597.41657 80.488111,557.33586 77.385331,517.06867 74.282552,476.80148 78.010228,436.25469 84.828521,396.44785 102.88327,291.03984 142.86932,189.43931 201.49895,100 H 58.326675 C 28.390645,220.94183 11.669086,345.14978 8.5552763,469.70257 6.8506421,537.88815 9.3314465,606.97603 27.827059,672.62732 c 6.721554,23.85856 15.626218,47.32184 29.11825,68.11548 13.492032,20.79363 31.826947,38.88373 54.240001,49.46981 15.75753,7.44256 33.25119,11.0347 50.67775,10.95386 34.62449,-0.16063 68.45809,-14.94483 94.11825,-38.19214 25.66016,-23.2473 43.39412,-54.51864 53.06247,-87.76626 18.79966,-64.64845 7.81396,-133.82478 13.30615,-200.92683 4.73431,-57.84245 22.40748,-115.43378 56.51912,-162.38651 15.94224,-21.94359 35.54328,-41.54834 58.96915,-55.21966 23.42586,-13.67132 50.84998,-21.17043 77.85957,-18.68885 25.92573,2.382 50.54946,13.84916 70.82739,30.17776 20.27792,16.3286 36.41322,37.35494 49.38098,59.93047 30.66451,53.38375 43.98447,115.36491 46.72996,176.86775 2.25398,50.49218 -3.01916,103.37046 -29.56068,146.38311 -13.27076,21.50633 -31.81172,40.03232 -54.29967,51.56172 -22.48796,11.5294 -48.99587,15.74987 -73.5781,9.88904 -28.52385,-6.80058 -53.31637,-27.29689 -65.95725,-53.75566 -12.64089,-26.45876 -13.08564,-58.31783 -1.80115,-85.38291 9.72635,-23.32799 27.62036,-42.77313 48.8504,-56.48744 21.23005,-13.71432 45.68571,-21.92733 70.58391,-26.27206 45.53172,-7.94527 93.72913,-2.93037 135.33309,17.20359 41.60395,20.13395 76.07657,55.83536 91.80015,99.29838 14.45226,39.94885 12.56791,85.36354 -4.24518,124.37762 -16.81308,39.01408 -48.20783,71.36025 -86.27181,90.22588 -42.04934,20.84089 -90.27648,25.20292 -137.20645,25.46416 -46.92996,0.26124 -94.14532,-3.20396 -140.60913,3.39943 -32.30449,4.59108 -63.91217,14.05414 -93.42474,27.97054 L 359.87273,1000 c 25.94188,-17.34663 55.7811,-28.82872 86.65952,-33.34645 57.37749,-8.39473 115.35333,7.08287 170.76131,24.18854 55.40798,17.10571 111.572,36.19791 169.55207,35.21821 36.97676,-0.6248 73.78861,-9.5985 106.90477,-26.0603 z"
   sodipodi:nodetypes="cacaaaaaaaaaaaaaaaaccaasaaaaaaaaasaaaccaacc"
   inkscape:path-effect="#path-effect853"
   inkscape:original-d="m 889.99617,876.85941 c 0,0 -80.6072,41.50972 -124.66795,45.6743 -54.84785,5.18417 -163.09411,-26.77256 -163.09411,-26.77256 0,0 135.95716,-4.65511 181.46121,-47.54093 C 848.00569,787.61017 890.72416,681.01586 865.94651,596.18974 831.56552,478.48668 702.59905,382.28641 581.52039,362.89522 c -53.58837,-8.58238 -113.56152,20.29837 -151.83435,58.77644 -50.15974,50.42871 -92.93482,130.32741 -75.96613,199.40069 21.72663,88.44108 113.54826,176.45213 204.49615,181.17994 61.37512,3.1905 117.6855,-54.98256 149.93551,-107.2991 C 765.22964,602.36011 786.90958,477.57854 758.58836,372.5581 727.96088,258.98559 648.89365,132.14071 536.14546,98.605607 482.11342,82.53466 419.76174,115.86553 375.12295,150.29103 c -42.91815,33.09854 -67.41534,86.7277 -87.40278,137.1061 -18.14933,45.74544 -19.444,96.50693 -27.57492,145.04487 -11.34666,67.73449 3.17512,143.53766 -29.58298,203.90002 -10.71569,19.74549 -28.22229,43.15181 -50.64973,44.46344 -28.18123,1.64812 -55.28052,-23.81564 -69.72283,-48.07091 C 69.663098,564.67173 74.244692,474.95223 84.828521,396.44785 99.016972,291.20659 201.49895,100 201.49895,100 H 58.326675 c 0,0 -47.338426,245.38045 -49.7713987,369.70257 -1.3294412,67.93293 -4.3892643,139.23169 19.2717827,202.92475 16.730875,45.03776 49.477378,86.84179 83.358251,117.58529 12.79892,11.61374 33.92167,15.18765 50.67775,10.95386 62.60598,-15.81877 118.25138,-68.22768 147.18072,-125.9584 30.0712,-60.0094 -0.0641,-135.14961 13.30615,-200.92683 11.41644,-56.16521 19.36732,-118.74468 56.51912,-162.38651 33.6023,-39.47227 85.13262,-77.74085 136.82872,-73.90851 49.94018,3.70216 92.22562,48.57881 120.20837,90.10823 34.07455,50.57032 58.54537,117.04444 46.72996,176.86775 -16.84007,85.26397 -70.94066,216.29927 -157.43845,207.83387 -51.34146,-5.02471 -80.8121,-89.23071 -67.7584,-139.13857 12.25622,-46.85884 72.1262,-93.14739 119.43431,-82.7595 69.54604,15.27089 198.04744,36.53784 227.13324,116.50197 26.53841,72.96072 -28.13271,168.38926 -90.51699,214.6035 -74.812,55.4207 -186.51657,10.62134 -277.81558,28.86359 -31.87723,6.36932 -89.38722,2.39758 -93.42474,27.97054 L 359.87273,1000 c 24.38213,9.0022 55.85447,-30.34103 86.65952,-33.34645 114.60905,-11.18158 225.22341,63.22245 340.31338,59.40675 36.65829,-1.2154 108.13741,-29.4007 106.90477,-26.0603 z" /></svg>
