<?xml version="1.0" encoding="UTF-8" standalone="no"?>
<svg
   xmlns:dc="http://purl.org/dc/elements/1.1/"
   xmlns:cc="http://creativecommons.org/ns#"
   xmlns:rdf="http://www.w3.org/1999/02/22-rdf-syntax-ns#"
   xmlns:svg="http://www.w3.org/2000/svg"
   xmlns="http://www.w3.org/2000/svg"
   xmlns:sodipodi="http://sodipodi.sourceforge.net/DTD/sodipodi-0.dtd"
   xmlns:inkscape="http://www.inkscape.org/namespaces/inkscape"
   xml:space="preserve"
   width="1000"
   height="1000"
   version="1.1"
   style="clip-rule:evenodd;fill-rule:evenodd;image-rendering:optimizeQuality;shape-rendering:geometricPrecision;text-rendering:geometricPrecision"
   viewBox="0 0 1000 1000"
   id="svg10"
   sodipodi:docname="ശ്ശ.svg"
   inkscape:version="1.0.2 (e86c870879, 2021-01-15)"><metadata
   id="metadata14"><rdf:RDF><cc:Work
       rdf:about=""><dc:format>image/svg+xml</dc:format><dc:type
         rdf:resource="http://purl.org/dc/dcmitype/StillImage" /><dc:title /></cc:Work></rdf:RDF></metadata><sodipodi:namedview
   pagecolor="#ffffff"
   bordercolor="#666666"
   borderopacity="1"
   objecttolerance="10"
   gridtolerance="10"
   guidetolerance="10"
   inkscape:pageopacity="0"
   inkscape:pageshadow="2"
   inkscape:window-width="1920"
   inkscape:window-height="1007"
   id="namedview12"
   showgrid="false"
   inkscape:zoom="0.6002692"
   inkscape:cx="728.44853"
   inkscape:cy="523.36092"
   inkscape:window-x="1920"
   inkscape:window-y="0"
   inkscape:window-maximized="1"
   inkscape:current-layer="svg10"
   showguides="true"
   inkscape:guide-bbox="true"
   inkscape:document-rotation="0"><sodipodi:guide
     position="0,1000"
     orientation="0,1"
     id="guide16"
     inkscape:label=""
     inkscape:locked="true"
     inkscape:color="rgb(0,0,255)" /><sodipodi:guide
     position="1763.3122,2036.1693"
     orientation="1000,0"
     id="guide18" /><sodipodi:guide
     position="0,200"
     orientation="0,1"
     id="guide20"
     inkscape:label="base"
     inkscape:locked="true"
     inkscape:color="rgb(0,0,255)" /><inkscape:grid
     type="xygrid"
     id="grid24"
     originx="-473.37552"
     originy="-489.69235" /><sodipodi:guide
     position="0,0"
     orientation="0,1"
     id="guide34"
     inkscape:label="bottom"
     inkscape:locked="true"
     inkscape:color="rgb(0,0,255)" /><sodipodi:guide
     position="225.05109,1693.3186"
     orientation="0,1"
     id="guide44"
     inkscape:label=""
     inkscape:locked="false"
     inkscape:color="rgb(0,0,255)" /><sodipodi:guide
     position="0,900"
     orientation="0,1"
     id="guide46"
     inkscape:label=""
     inkscape:locked="true"
     inkscape:color="rgb(0,0,255)" /><sodipodi:guide
     position="755.10677,466.12434"
     orientation="-1,0"
     id="guide841"
     inkscape:label="width"
     inkscape:locked="false"
     inkscape:color="rgb(0,0,255)" /><sodipodi:guide
     position="57.721156,438.10221"
     orientation="0,-1"
     id="guide868" /></sodipodi:namedview>
 <defs
   id="defs4"><inkscape:path-effect
   effect="fillet_chamfer"
   id="path-effect852"
   is_visible="true"
   lpeversion="1"
   satellites_param="F,0,0,1,0,0,0,1 @ F,0,0,1,0,0,0,1 @ F,0,0,1,0,0,0,1 @ F,0,0,1,0,0,0,1 @ F,0,0,1,0,0,0,1 @ F,0,0,1,0,0,0,1 @ F,0,0,1,0,0,0,1 @ F,0,0,1,0,0,0,1 @ F,0,0,1,0,0,0,1 @ F,0,0,1,0,0,0,1 @ F,0,0,1,0,0,0,1 | F,0,1,1,0,26.80473,0,1 @ F,0,0,1,0,0,0,1 @ F,0,0,1,0,0,0,1 @ F,0,0,1,0,0,0,1 @ F,0,0,1,0,0,0,1 @ F,0,0,1,0,0,0,1 @ F,0,0,1,0,0,0,1 @ F,0,0,1,0,0,0,1 @ F,0,0,1,0,0,0,1 @ F,0,0,1,0,0,0,1 @ F,0,0,1,0,0,0,1 @ F,0,0,1,0,0,0,1 @ F,0,0,1,0,0,0,1 @ F,0,0,1,0,0,0,1 @ F,0,0,1,0,0,0,1 @ F,0,0,1,0,0,0,1 @ F,0,0,1,0,0,0,1 @ F,0,0,1,0,0,0,1 @ F,0,0,1,0,0,0,1 @ F,0,0,1,0,0,0,1 @ F,0,0,1,0,0,0,1 @ F,0,0,1,0,0,0,1 @ F,0,0,1,0,0,0,1 @ F,0,0,1,0,0,0,1 @ F,0,0,1,0,0,0,1 @ F,0,0,1,0,0,0,1 @ F,0,0,1,0,0,0,1 @ F,0,0,1,0,0,0,1 @ F,0,0,1,0,0,0,1 @ F,0,0,1,0,0,0,1 @ F,0,0,1,0,0,0,1 @ F,0,0,1,0,0,0,1 @ F,0,0,1,0,0,0,1 @ F,0,0,1,0,0,0,1 @ F,0,0,1,0,0,0,1 @ F,0,0,1,0,0,0,1 @ F,0,0,1,0,0,0,1 @ F,0,1,1,0,26.80473,0,1"
   unit="px"
   method="auto"
   mode="F"
   radius="0"
   chamfer_steps="1"
   flexible="false"
   use_knot_distance="true"
   apply_no_radius="true"
   apply_with_radius="true"
   only_selected="true"
   hide_knots="false" /><inkscape:path-effect
   effect="fillet_chamfer"
   id="path-effect851"
   is_visible="true"
   lpeversion="1"
   satellites_param="F,0,0,1,0,0,0,1 @ F,0,0,1,0,0,0,1 @ F,0,0,1,0,0,0,1 @ F,0,0,1,0,0,0,1 @ F,0,0,1,0,0,0,1 @ F,0,0,1,0,0,0,1 @ F,0,0,1,0,0,0,1 @ F,0,0,1,0,0,0,1 @ F,0,0,1,0,0,0,1 @ F,0,0,1,0,0,0,1 | F,0,1,1,0,29.584982,0,1 @ F,0,0,1,0,0,0,1 @ F,0,0,1,0,0,0,1 @ F,0,0,1,0,0,0,1 @ F,0,0,1,0,0,0,1 @ F,0,0,1,0,0,0,1 @ F,0,0,1,0,0,0,1 @ F,0,0,1,0,0,0,1 @ F,0,0,1,0,0,0,1 @ F,0,0,1,0,0,0,1 @ F,0,0,1,0,0,0,1 @ F,0,0,1,0,0,0,1 @ F,0,0,1,0,0,0,1 @ F,0,0,1,0,0,0,1 @ F,0,0,1,0,0,0,1 @ F,0,0,1,0,0,0,1 @ F,0,0,1,0,0,0,1 @ F,0,0,1,0,0,0,1 @ F,0,0,1,0,0,0,1 @ F,0,0,1,0,0,0,1 @ F,0,0,1,0,0,0,1 @ F,0,0,1,0,0,0,1 @ F,0,0,1,0,0,0,1 @ F,0,0,1,0,0,0,1 @ F,0,0,1,0,0,0,1 @ F,0,0,1,0,0,0,1 @ F,0,0,1,0,0,0,1 @ F,0,0,1,0,0,0,1 @ F,0,0,1,0,0,0,1 @ F,0,0,1,0,0,0,1 @ F,0,0,1,0,0,0,1 @ F,0,0,1,0,0,0,1 @ F,0,0,1,0,0,0,1 @ F,0,0,1,0,0,0,1 @ F,0,0,1,0,0,0,1 @ F,0,0,1,0,0,0,1 @ F,0,0,1,0,0,0,1 @ F,0,0,1,0,0,0,1 @ F,0,0,1,0,0,0,1 @ F,0,1,1,0,29.584982,0,1"
   unit="px"
   method="auto"
   mode="F"
   radius="0"
   chamfer_steps="1"
   flexible="false"
   use_knot_distance="true"
   apply_no_radius="true"
   apply_with_radius="true"
   only_selected="true"
   hide_knots="false" /><inkscape:path-effect
   effect="spiro"
   id="path-effect34"
   is_visible="true"
   lpeversion="1" /><inkscape:path-effect
   effect="spiro"
   id="path-effect866"
   is_visible="true"
   lpeversion="1" /><inkscape:path-effect
   effect="spiro"
   id="path-effect853"
   is_visible="true"
   lpeversion="1" /><inkscape:path-effect
   effect="spiro"
   id="path-effect854"
   is_visible="true"
   lpeversion="1" />
  <style
   type="text/css"
   id="style2">
   <![CDATA[
    .fil0 {fill:#EF7F1A;fill-rule:nonzero}
   ]]>
  </style>
 <inkscape:path-effect
   effect="spiro"
   id="path-effect1214"
   is_visible="true"
   lpeversion="1" /><inkscape:path-effect
   effect="spiro"
   id="path-effect1195"
   is_visible="true"
   lpeversion="1" /><inkscape:path-effect
   effect="spiro"
   id="path-effect992"
   is_visible="true"
   lpeversion="1" /><inkscape:path-effect
   effect="spiro"
   id="path-effect287"
   is_visible="true"
   lpeversion="1" /><inkscape:path-effect
   effect="spiro"
   id="path-effect1032"
   is_visible="true"
   lpeversion="1" /><inkscape:path-effect
   effect="spiro"
   id="path-effect1102"
   is_visible="true"
   lpeversion="1" /></defs>
 
<path
   id="path1038-8-6-3"
   style="clip-rule:evenodd;display:inline;fill:#1a1a1a;fill-rule:nonzero;stroke:none;stroke-width:2.88279;stroke-linecap:butt;stroke-linejoin:miter;stroke-miterlimit:4;stroke-dasharray:none;stroke-opacity:1;image-rendering:optimizeQuality;shape-rendering:geometricPrecision;text-rendering:geometricPrecision"
   d="m 549.79391,972.33338 c 0.45393,-9.76483 4.32778,-19.24599 10.36699,-26.93272 6.03922,-7.68674 14.17285,-13.61433 23.10088,-17.5953 8.59089,-3.83064 17.98366,-5.90949 27.38961,-5.83647 9.40594,0.073 18.81393,2.3163 27.13896,6.69477 8.32504,4.37847 15.54098,10.9039 20.54518,18.86853 5.00419,7.96462 7.75959,17.36037 7.62891,26.76569 -0.11621,8.36401 -2.50321,16.66399 -6.69741,23.90132 -4.19419,7.2373 -10.17361,13.408 -17.18063,17.9765 -14.01404,9.1372 -31.91528,11.58 -48.21506,7.812 -11.97063,-2.7672 -23.29868,-8.8534 -31.51488,-17.9884 -8.2162,-9.13497 -13.13308,-21.39286 -12.56255,-33.66592 z M 260.97284,764.47801 c -11.84775,45.38849 -17.46912,92.40229 -16.611,139.30494 0.53962,29.49455 3.7411,59.41626 14.96417,86.69743 7.80628,18.97562 19.49147,36.43902 34.62081,50.29952 15.12933,13.8606 33.73627,24.0459 53.75824,28.5328 21.16382,4.7428 43.89994,2.9602 63.66531,-5.9691 19.76537,-8.9292 36.341,-25.1251 44.80782,-45.0929 7.62138,-17.974 8.56919,-38.05561 7.72882,-57.56057 -0.84037,-19.50495 -3.3572,-38.9986 -2.24023,-58.48967 0.88801,-15.49573 4.10789,-30.92133 10.22461,-45.18639 6.11673,-14.26505 15.17748,-27.35113 26.90233,-37.52138 13.02243,-11.29579 29.16218,-18.81717 46.05578,-22.25012 16.89359,-3.43294 34.51209,-2.83907 51.31822,0.99926 27.60846,6.30546 53.16602,21.53928 71.54107,43.08791 14.67681,17.21166 24.73117,38.32829 28.84025,60.57161 -18.00463,-27.31564 -48.70809,-45.86831 -81.26333,-49.10365 -24.49665,-2.43448 -49.82425,3.65628 -70.30991,17.3073 -17.06114,11.36902 -30.62704,27.80468 -38.96416,46.53513 -8.33712,18.73044 -11.47157,39.68433 -9.42595,60.08415 2.40811,24.01472 12.06793,47.34312 27.81162,65.63642 15.7437,18.2933 37.56554,31.3909 61.23945,36.087 25.3791,5.0343 52.32946,0.3335 75.22349,-11.7208 22.89403,-12.0543 41.7531,-31.2128 54.75839,-53.5803 25.65611,-44.12538 27.9544,-99.59109 12.24295,-148.15482 -8.9839,-27.76902 -23.62149,-53.81324 -43.47177,-75.20939 -19.85029,-21.39615 -44.96076,-38.05373 -72.73614,-47.01795 -34.2453,-11.05233 -72.31199,-10.05091 -105.79606,3.12905 -27.04031,10.64357 -50.99889,29.13134 -67.82847,52.82162 -17.46553,24.58547 -27.13922,55.02226 -24.96987,85.10189 1.05234,14.59143 4.79455,28.84447 6.89968,43.32154 2.10513,14.47707 2.48591,29.69078 -2.94103,43.27627 -4.38935,10.98805 -12.53129,20.41394 -22.69414,26.47366 -10.16286,6.05973 -22.27933,8.73993 -34.06322,7.67053 -10.33364,-0.9378 -20.34632,-4.70347 -28.97375,-10.46811 -8.62743,-5.76464 -15.88174,-13.49408 -21.44598,-22.2521 -11.12847,-17.51603 -15.34167,-38.76681 -14.98557,-59.51597 0.64603,-37.64315 15.41868,-73.48907 31.20632,-107.66763 6.67016,-14.44018 13.56469,-28.77672 20.68022,-43.00272 6.62227,-13.23985 0.1992,-23.74188 -14.60384,-23.58714 l -36.91601,0.38588 c -14.80304,0.15474 -30.51059,11.70454 -34.24912,26.0268 z"
   sodipodi:nodetypes="aaaaacaaaaaaaacaaaaaaaaaaaaaacc"
   inkscape:path-effect="#path-effect866;#path-effect852"
   inkscape:original-d="m 549.79391,972.33338 c -0.50892,-20.62221 17.71231,-40.52586 33.46787,-44.52802 29.51993,-7.49851 81.5002,7.86579 82.70266,46.49252 1.08976,35.00652 -45.02974,54.00722 -72.0931,49.68982 -19.73566,-3.1484 -43.44726,-26.11862 -44.07743,-51.65432 z M 268.41869,738.73139 c -61.12038,50.58177 -24.78472,109.45782 -24.05685,165.05156 0.38393,29.32395 0.73286,61.05546 14.96417,86.69743 19.15673,34.51662 49.31251,73.15942 88.37905,78.83232 39.54873,5.7429 86.27064,-17.8335 108.47313,-51.062 21.51534,-32.20004 -3.51343,-78.38436 5.48859,-116.05024 7.02455,-29.39177 13.66457,-63.66209 37.12694,-82.70777 25.79345,-20.93793 64.5957,-26.66218 97.374,-21.25086 27.46644,4.53439 51.91694,20.5213 71.54107,43.08791 13.72732,15.78562 28.84025,60.57161 28.84025,60.57161 0,0 -49.97496,-44.33995 -81.26333,-49.10365 -23.86128,-3.63291 -51.74184,1.88701 -70.30991,17.3073 -30.02498,24.93497 -54.08763,68.00852 -48.39011,106.61928 6.5787,44.58232 44.82345,93.07592 89.05107,101.72342 47.58665,9.3042 102.85048,-25.1147 129.98188,-65.3011 27.72763,-41.06951 28.7148,-101.41934 12.24295,-148.15482 -18.68714,-53.02087 -64.22316,-100.82621 -116.20791,-122.22734 -32.62432,-13.43081 -72.60146,-8.82301 -105.79606,3.12905 -26.96215,9.708 -51.71226,29.12625 -67.82847,52.82162 -16.62603,24.44495 -21.43491,55.75083 -24.96987,85.10189 -3.4552,28.68876 17.60292,61.12591 3.95865,86.59781 -10.42521,19.46238 -35.14637,38.66469 -56.75736,34.14419 -36.89234,-7.71694 -59.1271,-55.07194 -65.4053,-92.23618 -6.22415,-36.84425 17.70994,-72.82388 31.20632,-107.66763 8.97155,-23.16193 32.87965,-66.87004 32.87965,-66.87004 z" /><path
   id="path1038-8-6"
   style="clip-rule:evenodd;display:inline;fill:#1a1a1a;fill-rule:nonzero;stroke:none;stroke-width:4.17497;stroke-linecap:butt;stroke-linejoin:miter;stroke-miterlimit:4;stroke-dasharray:none;stroke-opacity:1;image-rendering:optimizeQuality;shape-rendering:geometricPrecision;text-rendering:geometricPrecision"
   d="m 463.94942,523.1805 c 6.98795,-25.22023 22.49248,-48.35109 44.35597,-62.73439 21.86349,-14.3833 50.11763,-19.40798 75.07834,-11.54323 13.58467,4.28033 25.96232,12.19886 35.783,22.5148 9.82068,10.31595 17.09118,22.99196 21.35321,36.58239 8.52405,27.18084 4.70587,57.52085 -8.10464,82.9639 -9.30128,18.47333 -23.37153,34.74106 -41.11799,45.36371 -17.74647,10.62264 -39.22572,15.35001 -59.58949,11.73133 -13.12614,-2.33254 -25.59919,-8.0559 -36.11452,-16.25126 -10.51534,-8.19537 -19.07495,-18.83137 -25.10281,-30.72259 -12.05572,-23.78246 -13.66069,-52.2092 -6.54107,-77.90466 z M 57.363061,126.69217 c -24.805827,99.17896 -39.019642,201.00554 -42.297622,303.18756 -1.967623,61.33525 0.16142,123.81201 19.271783,182.12735 7.194759,21.95483 16.842014,43.28808 30.543017,61.89082 13.701002,18.60273 31.630835,34.42379 52.815231,43.64337 15.89501,6.9176 33.34355,10.00456 50.67775,9.83122 32.97487,-0.32974 65.49925,-12.55472 91.37563,-32.99642 25.87638,-20.44171 45.12523,-48.85352 55.8051,-80.05273 19.61148,-57.29122 10.41261,-119.84849 13.30615,-180.3342 2.65799,-55.5619 16.56892,-112.15411 50.05921,-156.56796 15.18747,-20.14118 34.28574,-37.49608 56.4638,-49.51524 22.17805,-12.01915 47.47954,-18.58099 72.68262,-17.51749 28.34843,1.19623 55.89387,12.0172 78.84159,28.70452 22.94772,16.68733 41.43543,39.05444 55.50899,63.6918 19.53716,34.202 30.80733,73.08864 32.5867,112.43722 -14.22067,-26.57406 -36.19198,-48.94118 -62.50793,-63.634 -26.31594,-14.69283 -56.88521,-21.66038 -86.96893,-19.82253 -39.8714,2.43579 -78.26246,20.36968 -107.15642,47.95229 -24.44151,23.33223 -42.26085,53.34881 -52.01588,85.70031 -9.75503,32.3515 -11.52354,66.96183 -6.12377,100.31783 7.78137,48.06784 31.12699,94.23529 68.30672,125.67943 18.58987,15.72208 40.45087,27.6539 63.89664,34.21611 23.44577,6.56221 48.46162,7.69978 72.29279,2.71559 29.0055,-6.06638 55.75329,-21.0697 77.7758,-40.89717 22.02251,-19.82748 39.48191,-44.35903 53.28024,-70.58356 44.1433,-83.89693 50.50668,-184.00059 32.70264,-277.11527 -10.31407,-53.94234 -28.81953,-107.22551 -61.56237,-151.31703 -32.74284,-44.09152 -80.90305,-78.34051 -135.17307,-86.76194 -52.74716,-8.185117 -107.92074,8.83972 -150.11635,41.53206 -40.266,31.19732 -69.03788,75.54272 -87.40278,123.05434 -16.05315,41.53092 -24.60716,85.75299 -27.57492,130.17948 -2.08101,31.15208 -1.45237,62.46453 -4.37565,93.54889 -2.92328,31.08436 -9.61907,62.40218 -25.20733,89.45378 -5.56343,9.65468 -12.28769,18.75743 -20.77115,25.98207 -8.48345,7.22465 -18.82584,12.50966 -29.87858,13.92439 -14.32752,1.83389 -28.98674,-2.98168 -40.84736,-11.22587 C 133.71473,599.877 124.41329,588.41531 116.69987,576.20285 97.235753,545.38579 87.17194,509.24114 84.120761,472.91989 81.069582,436.59863 84.799521,399.99056 91.338684,364.13275 106.73916,279.68353 137.91375,198.14786 182.6766,124.90653 191.19669,110.96589 185.39487,99.808695 169.05724,99.572708 L 94.418734,98.494602 C 78.081104,98.258615 61.32753,110.84139 57.363061,126.69217 Z"
   sodipodi:nodetypes="aaaaacaasaaaaaacaaaaaaaaaaaaaacc"
   inkscape:path-effect="#path-effect34;#path-effect851"
   inkscape:original-d="m 463.94942,523.1805 c 12.25622,-42.05636 73.64751,-88.4553 119.43431,-74.27762 52.21439,16.16795 68.15316,95.55284 49.03157,142.06109 -13.74566,33.43271 -62.51664,66.84442 -100.70748,57.09504 -49.61868,-12.6667 -80.8121,-80.08561 -67.7584,-124.87851 z M 64.836838,98.06731 c -69.0601677,93.89341 -47.338426,220.23185 -49.771399,331.81242 -1.329441,60.9706 -4.389264,124.96208 19.271783,182.12735 16.730875,40.42192 49.477378,77.94153 83.358248,105.53419 12.79892,10.42347 33.92167,13.63109 50.67775,9.83122 62.60599,-14.19754 118.25139,-61.23515 147.18073,-113.04915 30.0712,-53.85915 1.83072,-121.16185 13.30615,-180.3342 10.43158,-53.78981 14.73012,-114.68698 50.05921,-156.56796 31.27354,-37.07332 80.7369,-70.03005 129.14642,-67.03273 54.24801,3.3588 102.53955,48.32607 134.35058,92.39632 22.8384,31.63979 32.5867,112.43722 32.5867,112.43722 0,0 -90.86185,-80.98291 -149.47686,-83.45653 -39.86843,-1.68249 -81.72361,20.34483 -107.15642,47.95229 -45.72227,49.63178 -78.39257,124.23725 -58.13965,186.01814 25.7054,78.41349 117.41866,164.05097 204.49615,162.61113 57.34452,-0.9482 103.9785,-60.92285 131.05604,-111.48073 43.91374,-81.99362 58.99363,-187.89557 32.70264,-277.11527 -29.09957,-98.75073 -98.54223,-207.15024 -196.73544,-238.07897 -49.52016,-15.597774 -107.60785,11.72326 -150.11635,41.53206 -41.19307,28.88636 -67.41534,77.83913 -87.40278,123.05434 -18.14933,41.05707 -19.444,86.6161 -27.57492,130.17948 -11.34666,60.7925 3.17512,128.82674 -29.58298,183.00267 -10.71569,17.72181 -28.22229,38.72926 -50.64973,39.90646 -28.18124,1.47922 -55.0239,-20.10278 -69.72284,-43.14421 C 78.410583,516.18221 81.867893,434.69372 91.338684,364.13275 103.98063,269.94551 198.63914,100 198.63914,100 129.21073,94.89715 124.66772,129.65651 64.836838,98.06731 Z" /></svg>
