<?xml version="1.0" encoding="UTF-8" standalone="no"?>
<svg
   xmlns:dc="http://purl.org/dc/elements/1.1/"
   xmlns:cc="http://creativecommons.org/ns#"
   xmlns:rdf="http://www.w3.org/1999/02/22-rdf-syntax-ns#"
   xmlns:svg="http://www.w3.org/2000/svg"
   xmlns="http://www.w3.org/2000/svg"
   xmlns:sodipodi="http://sodipodi.sourceforge.net/DTD/sodipodi-0.dtd"
   xmlns:inkscape="http://www.inkscape.org/namespaces/inkscape"
   xml:space="preserve"
   width="1000"
   height="1000"
   version="1.1"
   style="clip-rule:evenodd;fill-rule:evenodd;image-rendering:optimizeQuality;shape-rendering:geometricPrecision;text-rendering:geometricPrecision"
   viewBox="0 0 1000 1000"
   id="svg10"
   sodipodi:docname="ശു.svg"
   inkscape:version="1.0.1 (3bc2e813f5, 2020-09-07)"><metadata
   id="metadata14"><rdf:RDF><cc:Work
       rdf:about=""><dc:format>image/svg+xml</dc:format><dc:type
         rdf:resource="http://purl.org/dc/dcmitype/StillImage" /><dc:title /></cc:Work></rdf:RDF></metadata><sodipodi:namedview
   pagecolor="#ffffff"
   bordercolor="#666666"
   borderopacity="1"
   objecttolerance="10"
   gridtolerance="10"
   guidetolerance="10"
   inkscape:pageopacity="0"
   inkscape:pageshadow="2"
   inkscape:window-width="1920"
   inkscape:window-height="1015"
   id="namedview12"
   showgrid="false"
   inkscape:zoom="0.84890884"
   inkscape:cx="327.86116"
   inkscape:cy="786.4962"
   inkscape:window-x="1920"
   inkscape:window-y="0"
   inkscape:window-maximized="1"
   inkscape:current-layer="svg10"
   showguides="true"
   inkscape:guide-bbox="true"
   inkscape:document-rotation="0"><sodipodi:guide
     position="0,1000"
     orientation="0,1"
     id="guide16"
     inkscape:label=""
     inkscape:locked="true"
     inkscape:color="rgb(0,0,255)" /><sodipodi:guide
     position="1763.3122,2036.1693"
     orientation="1000,0"
     id="guide18" /><sodipodi:guide
     position="0,200"
     orientation="0,1"
     id="guide20"
     inkscape:label="base"
     inkscape:locked="true"
     inkscape:color="rgb(0,0,255)" /><inkscape:grid
     type="xygrid"
     id="grid24"
     originx="-473.37552"
     originy="-489.69235" /><sodipodi:guide
     position="0,0"
     orientation="0,1"
     id="guide34"
     inkscape:label="bottom"
     inkscape:locked="true"
     inkscape:color="rgb(0,0,255)" /><sodipodi:guide
     position="225.05109,1693.3186"
     orientation="0,1"
     id="guide44"
     inkscape:label=""
     inkscape:locked="false"
     inkscape:color="rgb(0,0,255)" /><sodipodi:guide
     position="0,900"
     orientation="0,1"
     id="guide46"
     inkscape:label=""
     inkscape:locked="true"
     inkscape:color="rgb(0,0,255)" /><sodipodi:guide
     position="872.49124,577.21875"
     orientation="-1,0"
     id="guide841"
     inkscape:label="width"
     inkscape:locked="false"
     inkscape:color="rgb(0,0,255)" /></sodipodi:namedview>
 <defs
   id="defs4"><inkscape:path-effect
   effect="spiro"
   id="path-effect853"
   is_visible="true"
   lpeversion="1" /><inkscape:path-effect
   effect="spiro"
   id="path-effect854"
   is_visible="true"
   lpeversion="1" />
  <style
   type="text/css"
   id="style2">
   <![CDATA[
    .fil0 {fill:#EF7F1A;fill-rule:nonzero}
   ]]>
  </style>
 <inkscape:path-effect
   effect="spiro"
   id="path-effect1214"
   is_visible="true"
   lpeversion="1" /><inkscape:path-effect
   effect="spiro"
   id="path-effect1195"
   is_visible="true"
   lpeversion="1" /><inkscape:path-effect
   effect="spiro"
   id="path-effect992"
   is_visible="true"
   lpeversion="1" /><inkscape:path-effect
   effect="spiro"
   id="path-effect287"
   is_visible="true"
   lpeversion="1" /><inkscape:path-effect
   effect="spiro"
   id="path-effect1032"
   is_visible="true"
   lpeversion="1" /><inkscape:path-effect
   effect="spiro"
   id="path-effect1102"
   is_visible="true"
   lpeversion="1" /></defs>
 
<path
   id="path1038-8-6"
   style="display:inline;fill:#1a1a1a;fill-rule:nonzero;stroke:none;stroke-width:4.4069;stroke-linecap:butt;stroke-linejoin:miter;stroke-miterlimit:4;stroke-dasharray:none;stroke-opacity:1"
   d="m 889.99617,876.85941 c -38.42691,22.41969 -80.85236,37.963 -124.66795,45.6743 -52.74225,9.28234 -107.46252,7.15731 -159.32606,-6.18734 64.95688,0.68808 129.84504,-24.18953 177.69316,-68.12615 33.94994,-31.1746 59.28967,-71.49989 73.35437,-115.39337 14.0647,-43.89349 16.89779,-91.24506 8.89682,-136.63711 -13.54642,-76.85312 -59.00314,-147.64607 -123.47084,-191.62132 -64.4677,-43.97524 -147.13735,-60.45685 -223.45969,-44.18393 -39.52745,8.42777 -77.77586,25.67503 -107.15642,53.42803 -27.19752,25.69089 -45.98029,59.73004 -55.36632,95.94646 -9.38603,36.21643 -9.58543,74.52584 -2.77333,111.31337 9.12313,49.26788 31.40073,96.88943 67.62404,131.50774 36.22331,34.61831 87.05847,55.07195 136.87211,49.6722 31.63151,-3.42882 61.73558,-16.92878 87.06512,-36.18296 25.32955,-19.25418 46.05739,-44.10444 62.87039,-71.11614 58.75865,-94.40141 68.8245,-212.73153 50.43679,-322.39509 C 748.14678,310.28493 728.55133,248.37203 691.63711,197.14396 673.18,171.52993 650.48192,148.82555 624.06976,131.52985 597.6576,114.23415 567.48397,102.43203 536.14546,98.605607 478.53944,91.571922 419.09902,112.42242 375.12295,150.29103 c -41.5539,35.78284 -69.53051,85.26287 -87.40278,137.1061 -16.08893,46.67019 -24.56807,95.77095 -27.57492,145.04487 -2.10887,34.55856 -1.55637,69.26175 -4.49778,103.75943 -2.94142,34.49767 -9.54881,69.19932 -25.0852,100.14059 -5.24924,10.45405 -11.57081,20.51517 -19.98244,28.64451 -8.41163,8.12933 -19.07469,14.25263 -30.66729,15.81893 -7.44383,1.00575 -15.09523,0.11284 -22.23136,-2.23191 -7.13613,-2.34475 -13.76494,-6.11847 -19.66269,-10.77021 -11.79551,-9.30347 -20.54223,-21.93126 -27.82878,-35.06879 C 90.601078,597.41657 80.488104,557.33586 77.385325,517.06867 74.282547,476.80148 78.010226,436.25469 84.828521,396.44785 102.88328,291.03984 142.86932,189.43931 201.49895,100 H 58.326675 C 28.390644,220.94183 11.669085,345.14978 8.5552763,469.70257 6.8506427,537.88815 9.3314478,606.97603 27.827059,672.62732 c 6.721553,23.85856 15.626217,47.32185 29.118249,68.11548 13.492032,20.79363 31.826947,38.88373 54.240002,49.46981 15.75753,7.44256 33.25119,11.0347 50.67775,10.95386 34.62449,-0.16062 68.45811,-14.9448 94.11828,-38.19211 25.66017,-23.2473 43.39413,-54.51866 53.06244,-87.76629 18.79958,-64.64847 7.81363,-133.82481 13.30615,-200.92683 4.73458,-57.84237 22.4083,-115.43326 56.51912,-162.38651 15.94199,-21.94401 35.54262,-41.54948 58.96852,-55.22112 23.42589,-13.67165 50.85057,-21.1706 77.8602,-18.68739 25.92507,2.3835 50.54715,13.85279 70.82411,30.18175 20.27696,16.32896 36.41227,37.35398 49.38426,59.92648 30.67628,53.37966 44.03235,115.36047 46.72996,176.86775 2.21271,50.45126 -3.14527,103.26937 -29.68865,146.23068 -13.27169,21.48066 -31.79151,39.98785 -54.24665,51.53439 -22.45515,11.54655 -48.91811,15.82486 -73.50315,10.0688 -28.61151,-6.69877 -53.56164,-27.13776 -66.26185,-53.63675 -12.70021,-26.499 -13.06989,-58.49164 -1.49655,-85.50182 9.92346,-23.15965 28.02465,-42.28108 49.2533,-55.85269 21.22866,-13.5716 45.49641,-21.85556 70.18101,-26.90681 46.32611,-9.47978 95.95891,-7.54685 139.00779,12.01762 21.52444,9.78223 41.16947,23.89976 56.63905,41.77952 15.46958,17.87975 26.68671,39.55409 31.4864,62.70483 6.14043,29.61767 1.62677,60.89813 -9.95357,88.84105 -11.58035,27.94291 -29.9668,52.70823 -51.30999,74.14137 -49.98276,50.19341 -116.97076,82.74118 -187.08679,92.81078 -42.51999,6.10644 -86.18299,4.15539 -127.98888,-5.71909 l 0.73346,158.67182 c 27.09153,-15.4541 57.50311,-25.05397 88.55735,-27.95455 45.4076,-4.24123 90.84252,5.67904 135.17659,16.37145 44.33408,10.6925 89.11249,22.3008 134.71066,21.4975 36.97433,-0.6514 73.77856,-9.6232 106.90477,-26.0603 z"
   sodipodi:nodetypes="cacaasaaaaaaaaaaaaaccaasaaaaaaaaasaaaccaacc"
   inkscape:path-effect="#path-effect853"
   inkscape:original-d="m 889.99617,876.85941 c 0,0 -80.94951,38.79015 -124.66795,45.6743 -52.5018,8.26723 -159.32606,-6.18734 -159.32606,-6.18734 0,0 133.98808,-22.14932 177.69316,-68.12615 60.88519,-64.04995 110.81921,-168.4047 82.25119,-252.03048 C 820.74393,463.87049 620.15264,379.99358 519.01598,360.38449 c -39.18279,-7.59704 -81.72361,22.66803 -107.15642,53.42803 -45.72227,55.29931 -78.39257,138.42409 -58.13965,207.25983 25.7054,87.36764 113.54826,176.45213 204.49615,181.17994 61.37512,3.1905 117.6855,-54.98256 149.93551,-107.2991 C 765.22964,602.36011 786.90958,477.57854 758.58836,372.5581 727.96088,258.98559 648.89365,132.14071 536.14546,98.605607 482.11342,82.53466 419.76174,115.86553 375.12295,150.29103 c -42.91815,33.09854 -67.41534,86.7277 -87.40278,137.1061 -18.14933,45.74544 -19.444,96.50693 -27.57492,145.04487 -11.34666,67.73449 3.17512,143.53766 -29.58298,203.90002 -10.71569,19.74549 -28.22229,43.15181 -50.64973,44.46344 -28.18123,1.64812 -55.28052,-23.81564 -69.72283,-48.07091 C 69.663098,564.67173 74.244692,474.95223 84.828521,396.44785 99.016972,291.20659 201.49895,100 201.49895,100 132.07055,94.31445 118.15756,135.19642 58.326675,100 -10.733493,204.61523 10.988249,345.38045 8.5552763,469.70257 7.2258351,537.6355 4.166012,608.93426 27.827059,672.62732 c 16.730875,45.03776 49.477378,86.84179 83.358251,117.58529 12.79892,11.61374 33.92167,15.18765 50.67775,10.95386 62.60598,-15.81877 118.25138,-68.22768 147.18072,-125.9584 30.0712,-60.0094 -0.0641,-135.14961 13.30615,-200.92683 11.41644,-56.16521 19.36732,-118.74468 56.51912,-162.38651 33.6023,-39.47227 85.13262,-77.74085 136.82872,-73.90851 49.94018,3.70216 92.22562,48.57881 120.20837,90.10823 34.07455,50.57032 58.54537,117.04444 46.72996,176.86775 -16.84007,85.26397 -70.94066,216.29927 -157.43845,207.83387 -51.34146,-5.02471 -80.8121,-89.23071 -67.7584,-139.13857 12.25622,-46.85884 72.1262,-93.14739 119.43431,-82.7595 69.54604,15.27089 196.47015,37.12929 227.13324,116.50197 20.91498,54.13929 -22.347,119.92431 -61.26356,162.98242 -46.67823,51.64579 -118.97196,78.44013 -187.08679,92.81078 -41.78569,8.81582 -123.95136,-31.29205 -127.98888,-5.71909 l 0.73346,158.67182 c 24.38213,9.0022 57.70946,-25.38264 88.55735,-27.95455 90.52959,-7.54781 179.15642,42.39575 269.88725,37.86895 C 823.4785,1024.2326 894.98304,996.6596 893.7504,1000 Z" /></svg>
