<?xml version="1.0" encoding="UTF-8" standalone="no"?>
<svg
   xmlns:dc="http://purl.org/dc/elements/1.1/"
   xmlns:cc="http://creativecommons.org/ns#"
   xmlns:rdf="http://www.w3.org/1999/02/22-rdf-syntax-ns#"
   xmlns:svg="http://www.w3.org/2000/svg"
   xmlns="http://www.w3.org/2000/svg"
   xmlns:sodipodi="http://sodipodi.sourceforge.net/DTD/sodipodi-0.dtd"
   xmlns:inkscape="http://www.inkscape.org/namespaces/inkscape"
   xml:space="preserve"
   width="1000"
   height="1000"
   version="1.1"
   style="clip-rule:evenodd;fill-rule:evenodd;image-rendering:optimizeQuality;shape-rendering:geometricPrecision;text-rendering:geometricPrecision"
   viewBox="0 0 1000 1000"
   id="svg10"
   sodipodi:docname="ശ്ശൂ.svg"
   inkscape:version="1.0.2 (e86c870879, 2021-01-15)"><metadata
   id="metadata14"><rdf:RDF><cc:Work
       rdf:about=""><dc:format>image/svg+xml</dc:format><dc:type
         rdf:resource="http://purl.org/dc/dcmitype/StillImage" /><dc:title /></cc:Work></rdf:RDF></metadata><sodipodi:namedview
   pagecolor="#ffffff"
   bordercolor="#666666"
   borderopacity="1"
   objecttolerance="10"
   gridtolerance="10"
   guidetolerance="10"
   inkscape:pageopacity="0"
   inkscape:pageshadow="2"
   inkscape:window-width="1920"
   inkscape:window-height="1007"
   id="namedview12"
   showgrid="false"
   inkscape:zoom="0.84890884"
   inkscape:cx="548.78371"
   inkscape:cy="406.44275"
   inkscape:window-x="1920"
   inkscape:window-y="0"
   inkscape:window-maximized="1"
   inkscape:current-layer="svg10"
   showguides="true"
   inkscape:guide-bbox="true"
   inkscape:document-rotation="0"><sodipodi:guide
     position="0,1000"
     orientation="0,1"
     id="guide16"
     inkscape:label=""
     inkscape:locked="true"
     inkscape:color="rgb(0,0,255)" /><sodipodi:guide
     position="1763.3122,2036.1693"
     orientation="1000,0"
     id="guide18" /><sodipodi:guide
     position="0,200"
     orientation="0,1"
     id="guide20"
     inkscape:label="base"
     inkscape:locked="true"
     inkscape:color="rgb(0,0,255)" /><inkscape:grid
     type="xygrid"
     id="grid24"
     originx="-473.37552"
     originy="-489.69235" /><sodipodi:guide
     position="0,0"
     orientation="0,1"
     id="guide34"
     inkscape:label="bottom"
     inkscape:locked="true"
     inkscape:color="rgb(0,0,255)" /><sodipodi:guide
     position="225.05109,1693.3186"
     orientation="0,1"
     id="guide44"
     inkscape:label=""
     inkscape:locked="false"
     inkscape:color="rgb(0,0,255)" /><sodipodi:guide
     position="0,900"
     orientation="0,1"
     id="guide46"
     inkscape:label=""
     inkscape:locked="true"
     inkscape:color="rgb(0,0,255)" /><sodipodi:guide
     position="782.84619,-52.984596"
     orientation="-1,0"
     id="guide841"
     inkscape:label="width"
     inkscape:locked="false"
     inkscape:color="rgb(0,0,255)" /></sodipodi:namedview>
 <defs
   id="defs4"><inkscape:path-effect
   effect="fillet_chamfer"
   id="path-effect859"
   is_visible="true"
   lpeversion="1"
   satellites_param="F,0,1,1,0,17.189591,0,1 @ F,0,1,1,0,17.189591,0,1 @ F,0,0,1,0,0,0,1 @ F,0,1,1,0,17.189591,0,1 @ F,0,1,1,0,17.189591,0,1 @ F,0,0,1,0,0,0,1 @ F,0,0,1,0,0,0,1 @ F,0,0,1,0,0,0,1 @ F,0,0,1,0,0,0,1 @ F,0,0,1,0,0,0,1 @ F,0,0,1,0,0,0,1 @ F,0,0,1,0,0,0,1 @ F,0,0,1,0,0,0,1 @ F,0,0,1,0,0,0,1 @ F,0,0,1,0,0,0,1 @ F,0,0,1,0,0,0,1 @ F,0,0,1,0,0,0,1 @ F,0,0,1,0,0,0,1 @ F,0,0,1,0,0,0,1 @ F,0,0,1,0,0,0,1 @ F,0,0,1,0,0,0,1 @ F,0,0,1,0,0,0,1 @ F,0,0,1,0,0,0,1 @ F,0,0,1,0,0,0,1 @ F,0,0,1,0,0,0,1 @ F,0,0,1,0,0,0,1 @ F,0,0,1,0,0,0,1 @ F,0,0,1,0,0,0,1 @ F,0,0,1,0,0,0,1 @ F,0,0,1,0,0,0,1 @ F,0,0,1,0,0,0,1 @ F,0,0,1,0,0,0,1 @ F,0,0,1,0,0,0,1 @ F,0,0,1,0,0,0,1 @ F,0,0,1,0,0,0,1 @ F,0,0,1,0,0,0,1"
   unit="px"
   method="auto"
   mode="F"
   radius="0"
   chamfer_steps="1"
   flexible="false"
   use_knot_distance="true"
   apply_no_radius="true"
   apply_with_radius="true"
   only_selected="true"
   hide_knots="false" /><inkscape:path-effect
   effect="fillet_chamfer"
   id="path-effect857"
   is_visible="true"
   lpeversion="1"
   satellites_param="F,0,1,1,0,7.9529876,0,1 @ F,0,1,1,0,7.9529876,0,1 @ F,0,0,1,0,0,0,1 @ F,0,1,1,0,7.9529876,0,1 @ F,0,1,1,0,7.9529876,0,1 @ F,0,0,1,0,0,0,1 @ F,0,0,1,0,0,0,1 @ F,0,0,1,0,0,0,1 @ F,0,0,1,0,0,0,1 @ F,0,0,1,0,0,0,1 @ F,0,0,1,0,0,0,1 @ F,0,0,1,0,0,0,1 @ F,0,0,1,0,0,0,1 @ F,0,0,1,0,0,0,1 @ F,0,0,1,0,0,0,1 @ F,0,0,1,0,0,0,1 @ F,0,0,1,0,0,0,1 @ F,0,0,1,0,0,0,1 @ F,0,0,1,0,0,0,1 @ F,0,0,1,0,0,0,1 @ F,0,0,1,0,0,0,1 @ F,0,0,1,0,0,0,1 @ F,0,0,1,0,0,0,1 @ F,0,0,1,0,0,0,1 @ F,0,0,1,0,0,0,1 @ F,0,1,1,0,7.9529876,0,1 @ F,0,1,1,0,7.9529876,0,1 @ F,0,0,1,0,0,0,1 @ F,0,0,1,0,0,0,1 @ F,0,0,1,0,0,0,1 @ F,0,0,1,0,0,0,1 @ F,0,0,1,0,0,0,1 @ F,0,0,1,0,0,0,1 @ F,0,0,1,0,0,0,1 @ F,0,0,1,0,0,0,1 @ F,0,1,1,0,7.9529876,0,1 @ F,0,1,1,0,7.9529876,0,1 @ F,0,0,1,0,0,0,1 @ F,0,0,1,0,0,0,1 @ F,0,0,1,0,0,0,1 @ F,0,1,1,0,7.9529876,0,1 @ F,0,1,1,0,7.9529876,0,1 @ F,0,0,1,0,0,0,1 @ F,0,0,1,0,0,0,1 @ F,0,0,1,0,0,0,1 @ F,0,0,1,0,0,0,1 @ F,0,0,1,0,0,0,1 @ F,0,0,1,0,0,0,1 @ F,0,0,1,0,0,0,1 @ F,0,0,1,0,0,0,1 @ F,0,0,1,0,0,0,1 @ F,0,0,1,0,0,0,1 @ F,0,0,1,0,0,0,1 @ F,0,0,1,0,0,0,1 @ F,0,0,1,0,0,0,1 @ F,0,0,1,0,0,0,1 @ F,0,0,1,0,0,0,1 @ F,0,0,1,0,0,0,1 @ F,0,0,1,0,0,0,1 @ F,0,0,1,0,0,0,1 @ F,0,0,1,0,0,0,1 @ F,0,0,1,0,0,0,1 @ F,0,0,1,0,0,0,1 @ F,0,0,1,0,0,0,1 @ F,0,0,1,0,0,0,1 @ F,0,0,1,0,0,0,1 @ F,0,0,1,0,0,0,1 @ F,0,0,1,0,0,0,1 @ F,0,0,1,0,0,0,1 @ F,0,0,1,0,0,0,1 @ F,0,0,1,0,0,0,1 @ F,0,0,1,0,0,0,1"
   unit="px"
   method="auto"
   mode="F"
   radius="0"
   chamfer_steps="1"
   flexible="false"
   use_knot_distance="true"
   apply_no_radius="true"
   apply_with_radius="true"
   only_selected="true"
   hide_knots="false" /><inkscape:path-effect
   effect="fillet_chamfer"
   id="path-effect856"
   is_visible="true"
   lpeversion="1"
   satellites_param="F,0,0,1,0,18.270609,0,1 @ F,0,0,1,0,18.270609,0,1 @ F,0,0,1,0,0,0,1 @ F,0,0,1,0,0,0,1 @ F,0,0,1,0,0,0,1 @ F,0,0,1,0,0,0,1 @ F,0,0,1,0,0,0,1 @ F,0,0,1,0,0,0,1 @ F,0,0,1,0,0,0,1 @ F,0,0,1,0,0,0,1 @ F,0,0,1,0,0,0,1 @ F,0,0,1,0,0,0,1 @ F,0,0,1,0,0,0,1 @ F,0,0,1,0,0,0,1 @ F,0,0,1,0,0,0,1 @ F,0,0,1,0,0,0,1 @ F,0,0,1,0,0,0,1 @ F,0,0,1,0,0,0,1 @ F,0,0,1,0,0,0,1 @ F,0,0,1,0,0,0,1 @ F,0,0,1,0,0,0,1 @ F,0,0,1,0,0,0,1 @ F,0,0,1,0,0,0,1 @ F,0,0,1,0,0,0,1 @ F,0,0,1,0,0,0,1 @ F,0,0,1,0,0,0,1 @ F,0,0,1,0,18.270609,0,1 @ F,0,0,1,0,18.270609,0,1 @ F,0,0,1,0,0,0,1 @ F,0,0,1,0,0,0,1 @ F,0,0,1,0,0,0,1 @ F,0,0,1,0,0,0,1 @ F,0,0,1,0,0,0,1 @ F,0,0,1,0,0,0,1 @ F,0,0,1,0,15.526067,0,1 @ F,0,0,1,0,19.438277,0,1 @ F,0,0,1,0,0,0,1 @ F,0,0,1,0,0,0,1 @ F,0,0,1,0,18.270609,0,1 @ F,0,0,1,0,18.270609,0,1 @ F,0,0,1,0,0,0,1 @ F,0,0,1,0,0,0,1 @ F,0,0,1,0,0,0,1 @ F,0,0,1,0,0,0,1 @ F,0,0,1,0,0,0,1 @ F,0,0,1,0,0,0,1 @ F,0,0,1,0,0,0,1 @ F,0,0,1,0,0,0,1 @ F,0,0,1,0,0,0,1 @ F,0,0,1,0,0,0,1 @ F,0,0,1,0,0,0,1 @ F,0,0,1,0,0,0,1 @ F,0,0,1,0,0,0,1 @ F,0,0,1,0,0,0,1 @ F,0,0,1,0,0,0,1 @ F,0,0,1,0,0,0,1 @ F,0,0,1,0,0,0,1 @ F,0,0,1,0,0,0,1 @ F,0,0,1,0,0,0,1 @ F,0,0,1,0,0,0,1 @ F,0,0,1,0,0,0,1 @ F,0,0,1,0,0,0,1 @ F,0,0,1,0,0,0,1 @ F,0,0,1,0,0,0,1 @ F,0,0,1,0,0,0,1 @ F,0,0,1,0,0,0,1"
   unit="px"
   method="auto"
   mode="F"
   radius="0"
   chamfer_steps="1"
   flexible="false"
   use_knot_distance="true"
   apply_no_radius="true"
   apply_with_radius="true"
   only_selected="true"
   hide_knots="false" /><inkscape:path-effect
   effect="fillet_chamfer"
   id="path-effect894"
   is_visible="true"
   lpeversion="1"
   satellites_param="F,0,0,1,0,25.052643,0,1 @ F,0,0,1,0,25.052643,0,1 @ F,0,0,1,0,0,0,1 @ F,0,1,1,0,16.017131,0,1 @ F,0,1,1,0,16.017131,0,1 @ F,0,0,1,0,0,0,1 @ F,0,0,1,0,0,0,1 @ F,0,0,1,0,0,0,1 @ F,0,0,1,0,0,0,1 @ F,0,0,1,0,0,0,1 @ F,0,0,1,0,0,0,1 @ F,0,0,1,0,0,0,1 @ F,0,0,1,0,0,0,1 @ F,0,0,1,0,0,0,1 @ F,0,0,1,0,0,0,1 @ F,0,0,1,0,0,0,1 @ F,0,0,1,0,0,0,1 @ F,0,0,1,0,0,0,1 @ F,0,0,1,0,0,0,1 @ F,0,0,1,0,0,0,1 @ F,0,0,1,0,0,0,1 @ F,0,0,1,0,0,0,1 @ F,0,0,1,0,0,0,1 @ F,0,0,1,0,0,0,1 @ F,0,0,1,0,0,0,1 @ F,0,0,1,0,21.21503,0,1 @ F,0,0,1,0,21.21503,0,1 @ F,0,0,1,0,0,0,1 @ F,0,0,1,0,0,0,1 @ F,0,0,1,0,21.903264,0,1 @ F,0,0,1,0,21.903264,0,1 @ F,0,0,1,0,0,0,1 @ F,0,0,1,0,0,0,1 @ F,0,0,1,0,0,0,1 @ F,0,0,1,0,0,0,1 @ F,0,0,1,0,0,0,1 @ F,0,0,1,0,0,0,1 @ F,0,0,1,0,0,0,1 @ F,0,0,1,0,0,0,1 @ F,0,0,1,0,0,0,1 @ F,0,0,1,0,0,0,1 @ F,0,0,1,0,0,0,1 @ F,0,0,1,0,0,0,1 @ F,0,0,1,0,0,0,1 @ F,0,0,1,0,0,0,1 @ F,0,0,1,0,0,0,1 @ F,0,0,1,0,0,0,1 @ F,0,0,1,0,0,0,1 @ F,0,0,1,0,0,0,1 @ F,0,0,1,0,0,0,1 @ F,0,0,1,0,0,0,1 @ F,0,0,1,0,0,0,1"
   unit="px"
   method="auto"
   mode="F"
   radius="0"
   chamfer_steps="1"
   flexible="false"
   use_knot_distance="true"
   apply_no_radius="true"
   apply_with_radius="true"
   only_selected="true"
   hide_knots="false" /><inkscape:path-effect
   effect="fillet_chamfer"
   id="path-effect892"
   is_visible="true"
   lpeversion="1"
   satellites_param="F,0,0,1,0,33.756739,0,1 @ F,0,0,1,0,33.756739,0,1 @ F,0,0,1,0,0,0,1 @ F,0,1,1,0,28.079016,0,1 @ F,0,1,1,0,28.079016,0,1 @ F,0,0,1,0,0,0,1 @ F,0,0,1,0,0,0,1 @ F,0,0,1,0,0,0,1 @ F,0,0,1,0,0,0,1 @ F,0,0,1,0,0,0,1 @ F,0,0,1,0,0,0,1 @ F,0,0,1,0,0,0,1 @ F,0,0,1,0,0,0,1 @ F,0,0,1,0,0,0,1 @ F,0,0,1,0,0,0,1 @ F,0,0,1,0,0,0,1 @ F,0,0,1,0,0,0,1 @ F,0,0,1,0,0,0,1 @ F,0,0,1,0,0,0,1 @ F,0,0,1,0,0,0,1 @ F,0,0,1,0,0,0,1 @ F,0,0,1,0,0,0,1 @ F,0,0,1,0,0,0,1 @ F,0,0,1,0,0,0,1 @ F,0,0,1,0,0,0,1 @ F,0,0,1,0,0,0,1 @ F,0,0,1,0,0,0,1 @ F,0,0,1,0,0,0,1 @ F,0,0,1,0,0,0,1 @ F,0,0,1,0,0,0,1 @ F,0,0,1,0,0,0,1 @ F,0,0,1,0,0,0,1 @ F,0,0,1,0,0,0,1 @ F,0,0,1,0,0,0,1"
   unit="px"
   method="auto"
   mode="F"
   radius="0"
   chamfer_steps="1"
   flexible="false"
   use_knot_distance="true"
   apply_no_radius="true"
   apply_with_radius="true"
   only_selected="true"
   hide_knots="false" /><inkscape:path-effect
   effect="spiro"
   id="path-effect889"
   is_visible="true"
   lpeversion="1" /><inkscape:path-effect
   effect="spiro"
   id="path-effect853"
   is_visible="true"
   lpeversion="1" /><inkscape:path-effect
   effect="spiro"
   id="path-effect854"
   is_visible="true"
   lpeversion="1" />
  <style
   type="text/css"
   id="style2">
   <![CDATA[
    .fil0 {fill:#EF7F1A;fill-rule:nonzero}
   ]]>
  </style>
 <inkscape:path-effect
   effect="spiro"
   id="path-effect1214"
   is_visible="true"
   lpeversion="1" /><inkscape:path-effect
   effect="spiro"
   id="path-effect1195"
   is_visible="true"
   lpeversion="1" /><inkscape:path-effect
   effect="spiro"
   id="path-effect992"
   is_visible="true"
   lpeversion="1" /><inkscape:path-effect
   effect="spiro"
   id="path-effect287"
   is_visible="true"
   lpeversion="1" /><inkscape:path-effect
   effect="spiro"
   id="path-effect1032"
   is_visible="true"
   lpeversion="1" /><inkscape:path-effect
   effect="spiro"
   id="path-effect1102"
   is_visible="true"
   lpeversion="1" /><inkscape:path-effect
   effect="spiro"
   id="path-effect873"
   is_visible="true"
   lpeversion="1" /><inkscape:path-effect
   effect="fillet_chamfer"
   id="path-effect855"
   is_visible="true"
   lpeversion="1"
   satellites_param="F,0,1,1,0,35.652031,0,1 @ F,0,1,1,0,35.652031,0,1 @ F,0,0,1,0,0,0,1 @ F,0,1,1,0,35.652031,0,1 @ F,0,1,1,0,35.652031,0,1 @ F,0,0,1,0,0,0,1 @ F,0,0,1,0,0,0,1 @ F,0,0,1,0,0,0,1 @ F,0,0,1,0,0,0,1 @ F,0,0,1,0,0,0,1 @ F,0,0,1,0,0,0,1 @ F,0,0,1,0,0,0,1 @ F,0,0,1,0,0,0,1 @ F,0,0,1,0,0,0,1 @ F,0,0,1,0,0,0,1 @ F,0,0,1,0,0,0,1 @ F,0,0,1,0,0,0,1 @ F,0,0,1,0,0,0,1 @ F,0,0,1,0,0,0,1 @ F,0,0,1,0,0,0,1 @ F,0,0,1,0,0,0,1 @ F,0,0,1,0,0,0,1 @ F,0,0,1,0,0,0,1 @ F,0,0,1,0,0,0,1 @ F,0,0,1,0,0,0,1 @ F,0,1,1,0,35.652031,0,1 @ F,0,1,1,0,35.652031,0,1 @ F,0,0,1,0,0,0,1 @ F,0,0,1,0,0,0,1 @ F,0,1,1,0,35.652031,0,1 @ F,0,1,1,0,35.652031,0,1 @ F,0,0,1,0,0,0,1 @ F,0,0,1,0,0,0,1 @ F,0,0,1,0,0,0,1 @ F,0,0,1,0,0,0,1 @ F,0,0,1,0,0,0,1 @ F,0,0,1,0,0,0,1 @ F,0,0,1,0,0,0,1 @ F,0,0,1,0,0,0,1 @ F,0,0,1,0,0,0,1 @ F,0,0,1,0,0,0,1 @ F,0,0,1,0,0,0,1 @ F,0,0,1,0,0,0,1 @ F,0,0,1,0,0,0,1 @ F,0,0,1,0,0,0,1 @ F,0,0,1,0,0,0,1 @ F,0,0,1,0,0,0,1 @ F,0,0,1,0,0,0,1 @ F,0,0,1,0,0,0,1 @ F,0,0,1,0,0,0,1 @ F,0,0,1,0,0,0,1 @ F,0,0,1,0,0,0,1 @ F,0,0,1,0,0,0,1"
   unit="px"
   method="auto"
   mode="F"
   radius="0"
   chamfer_steps="1"
   flexible="false"
   use_knot_distance="true"
   apply_no_radius="true"
   apply_with_radius="true"
   only_selected="true"
   hide_knots="false" /><inkscape:path-effect
   effect="fillet_chamfer"
   id="path-effect896"
   is_visible="true"
   lpeversion="1"
   satellites_param="F,0,0,1,0,44.528382,0,1 @ F,0,0,1,0,20.637183,0,1 @ F,0,0,1,0,0,0,1 @ F,0,0,1,0,34.572396,0,1 @ F,0,0,1,0,34.572396,0,1 @ F,0,0,1,0,0,0,1 @ F,0,0,1,0,0,0,1 @ F,0,0,1,0,0,0,1 @ F,0,0,1,0,0,0,1 @ F,0,0,1,0,0,0,1 @ F,0,0,1,0,0,0,1 @ F,0,0,1,0,0,0,1 @ F,0,0,1,0,0,0,1 @ F,0,0,1,0,0,0,1 @ F,0,0,1,0,0,0,1 @ F,0,0,1,0,0,0,1 @ F,0,0,1,0,0,0,1 @ F,0,0,1,0,0,0,1 @ F,0,0,1,0,0,0,1 @ F,0,0,1,0,0,0,1 @ F,0,0,1,0,0,0,1 @ F,0,0,1,0,0,0,1 @ F,0,0,1,0,0,0,1 @ F,0,0,1,0,0,0,1 @ F,0,0,1,0,0,0,1 @ F,0,0,1,0,0,0,1 @ F,0,0,1,0,0,0,1 @ F,0,0,1,0,0,0,1 @ F,0,0,1,0,0,0,1 @ F,0,0,1,0,0,0,1 @ F,0,0,1,0,0,0,1 @ F,0,0,1,0,0,0,1 @ F,0,0,1,0,0,0,1 @ F,0,0,1,0,0,0,1"
   unit="px"
   method="auto"
   mode="F"
   radius="0"
   chamfer_steps="1"
   flexible="false"
   use_knot_distance="true"
   apply_no_radius="true"
   apply_with_radius="true"
   only_selected="true"
   hide_knots="false" /></defs>
 
<path
   style="clip-rule:evenodd;fill:#a51d2d;fill-rule:nonzero;stroke:none;stroke-width:4.35273px;stroke-linecap:butt;stroke-linejoin:miter;stroke-opacity:1;image-rendering:optimizeQuality;shape-rendering:geometricPrecision;text-rendering:geometricPrecision"
   d="M 173.06157,660.08635 94.419034,644.57247 c -4.309265,-0.85009 -8.735624,1.89764 -9.775654,6.16494 -17.567621,72.08104 -11.642689,149.73196 16.81033,218.26416 22.71946,54.7223 59.55965,103.50331 105.92221,140.38953 3.4371,2.7346 9.65498,3.7442 13.81811,2.3439 l 71.57785,-24.0751 c 4.16313,-1.40026 5.68067,-5.57503 3.5489,-9.41505 -15.57624,-28.05792 -24.81787,-59.62031 -26.77809,-91.65491 -2.38112,-38.91314 6.3682,-79.16815 28.70108,-111.1235 13.73605,-19.65444 32.42443,-35.86478 53.96043,-46.40881 21.536,-10.54403 45.88422,-15.36708 69.79176,-13.52171 17.09566,1.31958 33.97131,6.03597 49.04934,14.2003 15.07803,8.16432 28.32408,19.80242 37.96727,33.98029 12.21869,17.96449 18.44557,39.85274 17.96689,61.57346 -0.47868,21.72073 -7.59525,43.18805 -19.81054,61.15485 -9.40854,13.8385 -22.02641,25.7849 -37.27292,32.68191 -15.2465,6.89701 -33.23085,8.40282 -48.83203,2.35071 -14.52323,-5.63394 -26.27404,-17.59985 -32.51484,-31.87283 -6.24079,-14.27298 -7.10831,-30.66155 -3.33691,-45.77585 6.30789,-25.2796 25.12608,-46.28388 47.78098,-59.15258 22.6549,-12.8687 48.87785,-18.28689 74.87939,-19.95062 26.65549,-1.70557 53.57966,0.36472 79.56907,6.52709 15.04623,3.56762 30.20872,8.74448 41.82872,18.94706 5.81,5.10129 10.62381,11.42903 13.4645,18.61997 2.8407,7.19095 3.6399,15.26242 1.71756,22.75134 -1.81459,7.06915 -5.97707,13.4062 -11.23847,18.46419 -5.2614,5.058 -11.59315,8.89788 -18.21593,11.96454 -5.3478,2.47628 -10.91763,4.47232 -16.62002,5.96002 -4.24891,1.1085 -7.00951,5.17552 -6.07419,9.46709 l 8.42353,38.64992 c 0.93532,4.29157 4.75954,5.84034 8.95324,4.57157 3.6519,-1.10485 7.49547,-1.57851 11.30524,-1.36553 6.45715,0.36098 12.79091,2.69293 17.94051,6.60531 5.23623,3.97819 9.20805,9.54063 11.51295,15.69948 2.3049,6.15886 2.96513,12.89245 2.15744,19.41869 -0.95161,7.6892 -3.91764,15.07734 -8.24501,21.5041 -4.32737,6.42675 -9.99326,11.90585 -16.35505,16.32817 -12.72357,8.84463 -27.98332,13.38303 -43.27565,15.88543 -46.52947,7.6139 -94.05052,-2.4818 -141.18175,-1.213 -32.22856,0.8676 -64.30416,7.1171 -94.50845,18.3899 -4.11493,1.5358 -6.74438,6.38 -5.92086,10.6945 l 14.11771,73.9628 c 0.82352,4.3145 4.63682,6.1401 8.60296,4.2535 19.97134,-9.5003 41.5175,-15.6869 63.49027,-18.2058 34.02572,-3.9006 68.44221,0.9471 102.05156,7.5331 33.60936,6.586 66.97791,14.9349 101.07589,18.143 38.73256,3.6441 78.08897,0.5392 115.77651,-9.1073 4.25504,-1.0891 7.58755,-5.6226 7.47284,-10.0134 l -2.64406,-101.211 c -0.11471,-4.3908 -2.9185,-5.6405 -6.34456,-2.8921 -35.10299,28.1592 -76.5229,48.4142 -120.31873,58.7757 -69.26737,16.3877 -144.24133,7.4293 -207.69757,-24.8171 l 13.70049,34.1989 c 41.74493,-1.455 83.37163,-6.2888 124.33916,-14.4385 41.49155,-8.254 83.42539,-20.4555 116.96195,-46.2426 10.34942,-7.9579 19.86362,-17.24635 26.62759,-28.41273 6.76396,-11.16638 10.64583,-24.35176 9.32221,-37.33973 -1.44735,-14.20206 -9.03454,-27.31266 -19.22964,-37.30532 -10.1951,-9.99267 -22.87414,-17.11524 -35.97648,-22.78286 -9.57764,-4.14295 -19.46426,-7.57138 -29.55059,-10.24739 l 12.83628,21.22897 c 21.58706,-8.67695 39.3952,-26.34525 48.24207,-47.86324 10.36004,-25.19845 8.17219,-54.83221 -4.14292,-79.1351 -7.95603,-15.7006 -19.88489,-29.26725 -33.97611,-39.81451 -14.09122,-10.54726 -30.30907,-18.11721 -47.24133,-22.92405 -33.86452,-9.61367 -70.01876,-8.17471 -104.6817,-2.03397 -34.01884,6.02664 -67.5551,16.64784 -97.04125,34.65253 -29.48615,18.0047 -54.80303,43.7465 -69.04378,75.22353 -16.81651,37.17037 -17.07003,81.44843 -0.81398,118.86731 7.38133,16.99066 18.05738,32.62912 31.73503,45.12266 13.67765,12.49354 30.39065,21.7808 48.41791,26.0451 24.19419,5.7231 50.16987,2.1854 72.77434,-8.16592 22.60447,-10.35137 41.90119,-27.26335 56.6781,-47.25724 33.82276,-45.76389 43.36661,-107.02836 31.2564,-162.63102 -6.48043,-29.75418 -18.90935,-58.3914 -37.6331,-82.40658 -18.72374,-24.01518 -43.8665,-43.27213 -72.55553,-53.48228 -41.68276,-14.8345 -89.16861,-9.67765 -128.81628,9.95846 -31.82247,15.76056 -58.92001,40.36417 -79.43721,69.34881 -38.63191,54.57529 -53.58714,125.32588 -40.34524,190.86624 -45.06252,-45.64058 -67.72157,-112.43622 -59.72964,-176.07443 3.40881,-27.14368 12.12541,-53.6075 25.48159,-77.48055 2.14442,-3.83297 0.5197,-7.55485 -3.78956,-8.40494 z"
   id="path871"
   inkscape:path-effect="#path-effect873;#path-effect857"
   inkscape:original-d="M 180.86418,661.62558 86.61642,643.03324 c 0,0 -11.868395,155.3653 14.83729,225.96833 21.64651,57.22786 112.2023,145.26883 112.2023,145.26883 l 86.65389,-29.1459 c 0,0 -29.90883,-64.13648 -30.76721,-98.53456 -0.95437,-38.24481 4.45916,-81.5278 28.70108,-111.1235 29.04298,-35.45705 77.93596,-61.18353 123.75219,-59.93052 33.14256,0.9064 70.39748,19.49165 87.01661,48.18059 20.50843,35.40288 21.24823,88.95369 -1.84365,122.72831 -17.48865,25.57923 -57.28241,46.4085 -86.10495,35.03262 -26.51788,-10.46625 -43.80506,-50.27195 -35.85175,-77.64868 13.57282,-46.72008 75.46705,-67.28044 122.66037,-79.1032 25.81439,-6.46696 55.57988,-4.99346 79.56907,6.52709 24.93897,11.97667 57.17559,32.65313 57.01078,60.31837 -0.0841,14.11621 -17.44149,23.01493 -29.4544,30.42873 -7.2508,4.47485 -24.38776,7.65653 -24.38776,7.65653 l 11.81063,54.19108 c 0,0 31.24741,-8.95412 36.50544,2.04077 5.05451,10.56933 16.96098,22.99513 13.67039,35.11817 -7.55828,27.84592 -40.58328,44.3558 -67.87571,53.7177 -44.51615,15.27 -94.34795,-5.8452 -141.18175,-1.213 -34.53705,3.4159 -101.92042,21.2724 -101.92042,21.2724 l 17.09993,89.5868 c 0,0 46.06763,-19.6332 70.60212,-21.7643 67.99192,-5.9059 134.89027,24.4647 203.12745,25.6761 41.31395,0.7335 102.19579,-7.6761 123.45705,-11.1704 L 752.84595,1000 c 6.72235,-2.725 -79.95292,55.6465 -126.45559,63.8339 -68.66882,12.09 -207.69757,-24.8171 -207.69757,-24.8171 l 13.70049,34.1989 c 0,0 83.87098,-4.2752 124.33916,-14.4385 40.66114,-10.2118 96.08629,-9.8858 116.96195,-46.2426 10.7448,-18.71301 38.97411,-40.95673 35.9498,-65.75246 -3.29309,-26.9994 -41.85904,-44.06135 -55.20612,-60.08818 -6.67179,-8.01132 -29.55059,-10.24739 -29.55059,-10.24739 l 12.83628,21.22897 c 0,0 40.08192,-26.73166 48.24207,-47.86324 9.51537,-24.64109 11.71449,-58.01005 -4.14292,-79.1351 -39.3937,-52.47983 -120.78772,-72.92728 -185.89914,-64.77253 -65.86564,8.24921 -134.45945,51.51379 -166.08503,109.87606 -18.8778,34.83734 -18.58176,81.76326 -0.81398,118.86731 14.17883,29.6092 44.88432,65.44776 80.15294,71.16776 46.33386,7.5146 100.00767,-18.8677 129.45244,-55.42316 34.62823,-42.99068 44.68517,-109.08683 31.2564,-162.63102 -14.1863,-56.56467 -56.61634,-112.84927 -110.18863,-135.88886 -39.56328,-17.01479 -89.10601,-6.71039 -128.81628,9.95846 -32.41017,13.60456 -61.64644,39.03394 -79.43721,69.34881 -32.91339,56.08331 -40.34524,190.86624 -40.34524,190.86624 0,0 -60.01928,-114.09856 -59.72964,-176.07443 0.13919,-29.78451 29.49464,-84.34626 29.49464,-84.34626 z"
   sodipodi:nodetypes="ccaccaaaaaaaaaaaccsaaaccaaccaccasasccaaaaaaaaaaacac" /><path
   style="clip-rule:evenodd;fill:#c64600;fill-rule:nonzero;stroke:none;stroke-width:7.19673px;stroke-linecap:butt;stroke-linejoin:miter;stroke-opacity:1;image-rendering:optimizeQuality;shape-rendering:geometricPrecision;text-rendering:geometricPrecision"
   d="M 168.54284,122.01504 51.134911,102.78984 c -9.368777,-1.53411 -19.186665,4.5929 -21.590947,13.77651 -29.23193423,111.6569 -21.3804992,232.78753 22.370416,339.62619 34.000223,83.02771 89.27145,157.22312 158.97538,213.69491 7.37616,5.97593 20.70297,7.81107 29.55071,4.36944 l 101.18579,-39.3597 c 8.84774,-3.44163 10.54353,-11.65579 4.35961,-18.85629 -29.45529,-34.29745 -49.17538,-76.92895 -56.00536,-121.63467 -10.23615,-67.00085 9.02002,-137.60539 50.2766,-191.38073 23.79329,-31.01305 54.74624,-56.70185 90.22045,-73.11865 35.4742,-16.41679 75.46362,-23.39213 114.25561,-18.58463 30.11943,3.7327 59.42863,14.57208 84.27881,31.99568 24.85018,17.42361 45.14062,41.46507 57.42033,69.21975 12.18111,27.53183 16.36018,58.29657 13.86708,88.29933 -2.4931,30.00276 -11.51224,59.26614 -24.61675,86.37062 -12.8533,26.5849 -30.21621,51.81389 -54.59395,68.47791 -12.18888,8.33201 -26.02883,14.38607 -40.57972,16.88858 -14.55089,2.50252 -29.81444,1.37602 -43.5714,-3.98467 -14.01707,-5.46205 -26.20228,-15.21525 -35.31843,-27.18221 -9.11615,-11.96696 -15.22581,-26.08866 -18.58642,-40.75218 -6.72124,-29.32703 -2.54519,-60.13369 5.14716,-89.2211 22.25678,-84.16046 74.6048,-160.0289 145.38557,-210.70858 l -80.37932,-39.90296 c -58.16464,59.88071 -104.70205,131.01397 -136.27177,208.29383 -13.22354,32.37004 -23.89855,66.05234 -27.79913,100.80096 -3.90057,34.74863 -0.79095,70.73011 12.67906,102.99836 10.6007,25.39463 27.54339,48.12307 48.89997,65.47699 21.35658,17.35392 47.08929,29.29305 74.14454,34.32052 39.99636,7.43221 82.23637,-0.46294 118.12921,-19.61107 35.89283,-19.14814 65.5113,-49.14792 86.49595,-83.99891 33.9041,-56.30741 45.23279,-124.09862 41.73068,-189.73205 C 768.29301,324.99132 755.39248,270.57023 728.65926,223.12651 701.92605,175.68279 660.74497,135.55949 610.367,114.88023 550.29585,90.222085 480.31338,94.830269 420.86496,120.95407 364.62051,145.66993 317.34969,188.53122 282.51812,239.13828 220.83455,328.75883 197.85874,444.09204 220.48919,550.50899 179.14818,512.97828 148.14672,464.17068 131.74764,410.79744 115.34855,357.42419 113.59622,299.62971 126.73159,245.36098 c 9.25243,-38.22638 25.82087,-74.6616 48.48466,-106.80168 5.47032,-7.75758 2.69537,-15.01015 -6.67341,-16.54426 z"
   id="path871-0"
   inkscape:path-effect="#path-effect889;#path-effect859"
   inkscape:original-d="M 185.50651,124.79279 34.17124,100.01209 c 0,0 -23.319121,244.62361 17.74314,356.18045 32.580761,88.51453 172.50583,224.29598 172.50583,224.29598 l 133.22631,-51.82296 c 0,0 -62.41505,-84.41947 -67.66601,-134.25933 -6.91088,-65.59512 7.63133,-141.06313 50.2766,-191.38073 48.29689,-56.986 130.14494,-99.11131 204.47606,-91.70328 57.75906,5.75642 116.7374,48.81164 141.69914,101.21543 25.08571,52.66404 19.78488,124.96648 -10.74967,174.66995 -28.0658,45.6849 -88.75134,100.75775 -138.74507,81.38182 -51.1418,-19.82089 -57.0392,-102.93586 -48.75769,-157.15549 12.8843,-84.35443 145.38557,-210.70858 145.38557,-210.70858 l -80.37932,-39.90296 c 0,0 -109.64517,129.71228 -136.27177,208.29383 -21.86088,64.51675 -42.12598,141.26141 -15.12007,203.79932 20.93614,48.48207 70.53361,94.19059 123.04451,99.79751 76.02154,8.1173 157.79279,-43.17908 204.62516,-103.60998 C 769.13063,517.91855 781.8255,443.24813 771.19464,379.37102 754.25519,277.5878 701.10542,164.00565 610.367,114.88023 554.78964,84.790866 479.18009,98.89118 420.86496,120.95407 c -58.51063,22.13688 -107.67317,65.86098 -138.34684,118.18421 -53.522,91.29797 -62.02893,311.37071 -62.02893,311.37071 0,0 -102.02184,-199.06046 -93.7576,-305.14801 3.47243,-44.57535 58.77492,-120.56819 58.77492,-120.56819 z"
   sodipodi:nodetypes="ccaccaaaaaaaccaaaaaaaacac" /></svg>
