<?xml version="1.0" encoding="UTF-8" standalone="no"?>
<svg
   xmlns:dc="http://purl.org/dc/elements/1.1/"
   xmlns:cc="http://creativecommons.org/ns#"
   xmlns:rdf="http://www.w3.org/1999/02/22-rdf-syntax-ns#"
   xmlns:svg="http://www.w3.org/2000/svg"
   xmlns="http://www.w3.org/2000/svg"
   xmlns:sodipodi="http://sodipodi.sourceforge.net/DTD/sodipodi-0.dtd"
   xmlns:inkscape="http://www.inkscape.org/namespaces/inkscape"
   xml:space="preserve"
   width="1000"
   height="1000"
   version="1.1"
   style="clip-rule:evenodd;fill-rule:evenodd;image-rendering:optimizeQuality;shape-rendering:geometricPrecision;text-rendering:geometricPrecision"
   viewBox="0 0 1000 1000"
   id="svg10"
   sodipodi:docname="ശൂ.svg"
   inkscape:version="1.0.1 (3bc2e813f5, 2020-09-07)"><metadata
   id="metadata14"><rdf:RDF><cc:Work
       rdf:about=""><dc:format>image/svg+xml</dc:format><dc:type
         rdf:resource="http://purl.org/dc/dcmitype/StillImage" /><dc:title></dc:title></cc:Work></rdf:RDF></metadata><sodipodi:namedview
   pagecolor="#ffffff"
   bordercolor="#666666"
   borderopacity="1"
   objecttolerance="10"
   gridtolerance="10"
   guidetolerance="10"
   inkscape:pageopacity="0"
   inkscape:pageshadow="2"
   inkscape:window-width="1920"
   inkscape:window-height="1015"
   id="namedview12"
   showgrid="false"
   inkscape:zoom="0.84890884"
   inkscape:cx="465.4807"
   inkscape:cy="763.94301"
   inkscape:window-x="1920"
   inkscape:window-y="0"
   inkscape:window-maximized="1"
   inkscape:current-layer="svg10"
   showguides="true"
   inkscape:guide-bbox="true"
   inkscape:document-rotation="0"><sodipodi:guide
     position="0,1000"
     orientation="0,1"
     id="guide16"
     inkscape:label=""
     inkscape:locked="true"
     inkscape:color="rgb(0,0,255)" /><sodipodi:guide
     position="1763.3122,2036.1693"
     orientation="1000,0"
     id="guide18" /><sodipodi:guide
     position="0,200"
     orientation="0,1"
     id="guide20"
     inkscape:label="base"
     inkscape:locked="true"
     inkscape:color="rgb(0,0,255)" /><inkscape:grid
     type="xygrid"
     id="grid24"
     originx="-473.37552"
     originy="-489.69235" /><sodipodi:guide
     position="0,0"
     orientation="0,1"
     id="guide34"
     inkscape:label="bottom"
     inkscape:locked="true"
     inkscape:color="rgb(0,0,255)" /><sodipodi:guide
     position="225.05109,1693.3186"
     orientation="0,1"
     id="guide44"
     inkscape:label=""
     inkscape:locked="false"
     inkscape:color="rgb(0,0,255)" /><sodipodi:guide
     position="0,900"
     orientation="0,1"
     id="guide46"
     inkscape:label=""
     inkscape:locked="true"
     inkscape:color="rgb(0,0,255)" /><sodipodi:guide
     position="944.494,569.89423"
     orientation="-1,0"
     id="guide841"
     inkscape:label="width"
     inkscape:locked="false"
     inkscape:color="rgb(0,0,255)" /></sodipodi:namedview>
 <defs
   id="defs4"><inkscape:path-effect
   effect="spiro"
   id="path-effect853"
   is_visible="true"
   lpeversion="1" /><inkscape:path-effect
   effect="spiro"
   id="path-effect854"
   is_visible="true"
   lpeversion="1" />
  <style
   type="text/css"
   id="style2">
   <![CDATA[
    .fil0 {fill:#EF7F1A;fill-rule:nonzero}
   ]]>
  </style>
 <inkscape:path-effect
   effect="spiro"
   id="path-effect1214"
   is_visible="true"
   lpeversion="1" /><inkscape:path-effect
   effect="spiro"
   id="path-effect1195"
   is_visible="true"
   lpeversion="1" /><inkscape:path-effect
   effect="spiro"
   id="path-effect992"
   is_visible="true"
   lpeversion="1" /><inkscape:path-effect
   effect="spiro"
   id="path-effect287"
   is_visible="true"
   lpeversion="1" /><inkscape:path-effect
   effect="spiro"
   id="path-effect1032"
   is_visible="true"
   lpeversion="1" /><inkscape:path-effect
   effect="spiro"
   id="path-effect1102"
   is_visible="true"
   lpeversion="1" /></defs>
 
<path
   id="path1038-8-6"
   style="display:inline;fill:#1a1a1a;fill-rule:nonzero;stroke:none;stroke-width:4.4069;stroke-linecap:butt;stroke-linejoin:miter;stroke-miterlimit:4;stroke-dasharray:none;stroke-opacity:1"
   d="m 942.95938,887.82528 c -52.27267,35.0129 -114.16331,55.50768 -177.00191,58.61334 -54.69107,2.70298 -109.98548,-7.6995 -159.95531,-30.09225 64.34675,-0.052 128.67751,-9.70881 190.20347,-28.55192 30.77969,-9.42667 61.15745,-21.2945 87.73315,-39.45996 26.5757,-18.16546 49.28739,-43.09879 60.64416,-73.21981 11.56757,-30.68012 10.5485,-65.89698 -2.77381,-95.85686 -13.32231,-29.95988 -38.78901,-54.30557 -69.31789,-66.26659 20.45405,-9.88874 37.06705,-27.48468 45.76502,-48.47279 6.33934,-15.29676 8.52362,-32.19587 7.04067,-48.68766 -1.48295,-16.49179 -6.57404,-32.57508 -14.17294,-47.28681 C 895.9262,439.12051 871.10618,415.62148 843.8905,396.753 786.53793,356.99079 717.23726,335.92954 647.5599,332.00322 c -42.90085,-2.41746 -86.426,1.52949 -127.34712,14.63632 -40.92112,13.10683 -79.19052,35.61567 -108.35322,67.17298 -25.20615,27.27587 -43.25101,60.95675 -52.96031,96.80438 -9.7093,35.84763 -11.15201,73.79961 -5.17934,110.45545 8.08546,49.6226 30.36972,97.64748 66.84661,132.24825 36.47689,34.60077 87.69555,54.62171 137.64954,48.93169 31.59418,-3.59874 61.64128,-17.11223 86.97236,-36.33408 25.33108,-19.22185 46.1097,-44.00015 62.96315,-70.96502 C 767.09439,600.64694 777.03666,482.22845 758.58836,372.5581 748.11462,310.29445 728.51832,248.39036 691.61172,197.16182 673.15841,171.54755 650.46603,148.84069 624.05871,131.54131 597.65139,114.24194 567.48155,102.43503 536.14546,98.605607 478.53963,91.565894 419.09839,112.42085 375.12295,150.29103 c -41.55285,35.78393 -69.53017,85.26308 -87.40278,137.1061 -16.08927,46.67008 -24.56818,95.77093 -27.57492,145.04487 -2.1088,34.55857 -1.55629,69.26176 -4.49772,103.75944 -2.94143,34.49767 -9.54886,69.19932 -25.08526,100.14058 -5.24924,10.45404 -11.57082,20.51517 -19.98244,28.6445 -8.41163,8.12934 -19.07469,14.25264 -30.66729,15.81894 -7.44383,1.00575 -15.09523,0.11284 -22.23136,-2.23191 -7.13613,-2.34475 -13.76494,-6.11847 -19.66269,-10.77021 -11.79551,-9.30347 -20.54223,-21.93125 -27.82878,-35.06879 C 90.60108,597.41657 80.488106,557.33586 77.385327,517.06867 74.282548,476.80148 78.010227,436.25469 84.828521,396.44785 102.88328,291.03984 142.86932,189.43931 201.49895,100 H 58.326675 C 28.390664,220.94184 11.669105,345.14978 8.5552763,469.70257 6.8506317,537.88815 9.3314208,606.97604 27.827059,672.62732 c 6.721562,23.85855 15.626239,47.32183 29.118274,68.11546 13.492034,20.79362 31.826938,38.88372 54.239977,49.46983 15.75753,7.44258 33.25119,11.03476 50.67775,10.95386 34.62439,-0.16073 68.45774,-14.94528 94.11771,-38.19265 25.65998,-23.24736 43.39388,-54.51846 53.06301,-87.76575 18.80125,-64.64807 7.81999,-133.82421 13.30615,-200.92683 4.72919,-57.84397 22.39216,-115.44356 56.51912,-162.38651 15.94703,-21.93575 35.5555,-41.52715 58.98083,-55.19241 23.42532,-13.66525 50.83907,-21.1674 77.84789,-18.7161 25.93802,2.35412 50.59238,13.78188 70.8882,30.10372 20.29582,16.32183 36.43114,37.37277 49.32017,60.00451 30.44622,53.46025 43.09622,115.45304 46.72996,176.86775 3.03473,51.29069 -0.62201,105.31897 -27.14762,149.32279 -13.26281,22.0019 -32.22456,40.89208 -55.34712,52.08732 -23.12256,11.19524 -50.48538,14.28353 -74.94371,6.42376 -26.93324,-8.65509 -48.86841,-30.19358 -60.4474,-56.00514 -11.57899,-25.81157 -13.26159,-55.4766 -7.311,-83.13343 5.65589,-26.28711 18.05796,-51.05557 35.48044,-71.53626 17.42247,-20.48069 39.81326,-36.6574 64.61005,-47.05551 48.8857,-20.49939 103.99342,-18.02329 156.84661,-13.9519 25.71211,1.98066 52.19626,4.4829 74.98829,16.54768 11.39602,6.03238 21.66831,14.47256 28.8289,25.19566 7.1606,10.72309 11.06011,23.8104 9.77436,36.64027 -1.22199,12.19361 -7.18841,23.84971 -16.36526,31.97145 -9.17686,8.12174 -21.47168,12.6273 -33.72342,12.35826 l -3.61597,79.36089 c 18.54473,-3.92244 38.6884,0.47214 53.91437,11.76206 15.22597,11.28992 25.28243,29.28846 26.91602,48.17295 0.99216,11.4695 -1.00605,23.11581 -5.20131,33.83652 -4.19527,10.7207 -10.55032,20.5326 -18.16449,29.16731 -15.22835,17.26941 -35.19085,29.66485 -55.63849,40.24924 -67.89737,35.14599 -144.08434,52.7932 -220.4329,56.81705 -42.71372,2.25117 -85.64617,0.33276 -127.98888,-5.71909 l 0.73346,158.67182 c 27.68371,-14.1709 57.75496,-23.66335 88.55735,-27.95455 90.51578,-12.61011 180.36732,19.47595 269.88725,37.86895 54.65896,11.2304 110.35306,17.4174 166.14413,18.4567 z"
   sodipodi:nodetypes="cacaacaaaaaaaaaaaaaaaaccaasaaaaaaaaaaaaccaaaccaacc"
   inkscape:path-effect="#path-effect853"
   inkscape:original-d="m 942.95938,887.82528 c 0,0 -114.98956,54.45776 -177.00191,58.61334 -54.13236,3.62753 -159.95531,-30.09225 -159.95531,-30.09225 0,0 131.13414,-3.63006 190.20347,-28.55192 57.22004,-24.14163 132.92571,-52.52831 148.37731,-112.67977 14.71486,-57.28339 -62.60025,-124.76563 -72.0917,-162.12345 30.0868,-6.21698 42.01185,-26.57081 45.76502,-48.47279 C 928.58783,504.22763 889.22454,437.82061 843.8905,396.753 792.81935,350.48821 716.46859,331.46871 647.5599,332.00322 c -83.16227,0.64508 -178.70232,21.24855 -235.70034,81.8093 -49.17704,52.25091 -78.39257,138.42409 -58.13965,207.25983 25.7054,87.36764 113.54826,176.45213 204.49615,181.17994 61.37512,3.1905 117.6855,-54.98256 149.93551,-107.2991 C 765.22964,602.36011 786.90958,477.57854 758.58836,372.5581 727.96088,258.98559 648.89365,132.14071 536.14546,98.605607 482.11342,82.53466 419.76174,115.86553 375.12295,150.29103 c -42.91815,33.09854 -67.41534,86.7277 -87.40278,137.1061 -18.14933,45.74544 -19.444,96.50693 -27.57492,145.04487 -11.34666,67.73449 3.17512,143.53766 -29.58298,203.90002 -10.71569,19.74549 -28.22229,43.15181 -50.64973,44.46344 -28.18123,1.64812 -55.28052,-23.81564 -69.72283,-48.07091 C 69.663098,564.67173 74.244692,474.95223 84.828521,396.44785 99.016972,291.20659 201.49895,100 201.49895,100 132.07055,94.31445 118.15756,135.19642 58.326675,100 -10.733493,204.61523 10.988249,345.38045 8.5552763,469.70257 7.2258351,537.6355 4.166012,608.93426 27.827059,672.62732 c 16.730875,45.03776 49.477378,86.84179 83.358251,117.58529 12.79892,11.61374 33.92167,15.18765 50.67775,10.95386 62.60598,-15.81877 118.25138,-68.22768 147.18072,-125.9584 30.0712,-60.0094 -0.0641,-135.14961 13.30615,-200.92683 11.41644,-56.16521 19.36732,-118.74468 56.51912,-162.38651 33.6023,-39.47227 85.13262,-77.74085 136.82872,-73.90851 49.94018,3.70216 92.22562,48.57881 120.20837,90.10823 34.07455,50.57032 58.54537,117.04444 46.72996,176.86775 -16.84007,85.26397 -70.94066,216.29927 -157.43845,207.83387 -51.34146,-5.02471 -74.13402,-87.94731 -67.7584,-139.13857 6.39308,-51.33146 54.19031,-94.7388 100.09049,-118.59177 46.57508,-24.20369 106.09052,-27.32638 156.84661,-13.9519 44.48517,11.72205 110.82233,32.46337 113.59155,78.38361 1.34212,22.25556 -50.08868,44.32971 -50.08868,44.32971 l -3.61597,79.36089 c 38.88878,-2.53034 76.15585,26.72006 80.83039,59.93501 6.03955,42.91411 -42.87285,79.32367 -79.00429,103.25307 -63.26286,41.89821 -144.96216,48.95467 -220.4329,56.81705 -42.47566,4.42502 -92.79952,26.90062 -127.98888,-5.71909 l 0.73346,158.67182 c 24.38213,9.0022 57.70946,-25.38264 88.55735,-27.95455 90.52959,-7.54781 179.75257,26.54125 269.88725,37.86895 55.28715,6.9482 167.37677,15.1163 166.14413,18.4567 z" /></svg>
