<?xml version="1.0" encoding="UTF-8" standalone="no"?>
<svg
   xmlns:dc="http://purl.org/dc/elements/1.1/"
   xmlns:cc="http://creativecommons.org/ns#"
   xmlns:rdf="http://www.w3.org/1999/02/22-rdf-syntax-ns#"
   xmlns:svg="http://www.w3.org/2000/svg"
   xmlns="http://www.w3.org/2000/svg"
   xmlns:sodipodi="http://sodipodi.sourceforge.net/DTD/sodipodi-0.dtd"
   xmlns:inkscape="http://www.inkscape.org/namespaces/inkscape"
   xml:space="preserve"
   width="1000"
   height="1000"
   version="1.1"
   style="clip-rule:evenodd;fill-rule:evenodd;image-rendering:optimizeQuality;shape-rendering:geometricPrecision;text-rendering:geometricPrecision"
   viewBox="0 0 1000 1000"
   id="svg10"
   sodipodi:docname="ശൃ.svg"
   inkscape:version="1.0.1 (3bc2e813f5, 2020-09-07)"><metadata
   id="metadata14"><rdf:RDF><cc:Work
       rdf:about=""><dc:format>image/svg+xml</dc:format><dc:type
         rdf:resource="http://purl.org/dc/dcmitype/StillImage" /><dc:title /></cc:Work></rdf:RDF></metadata><sodipodi:namedview
   pagecolor="#ffffff"
   bordercolor="#666666"
   borderopacity="1"
   objecttolerance="10"
   gridtolerance="10"
   guidetolerance="10"
   inkscape:pageopacity="0"
   inkscape:pageshadow="2"
   inkscape:window-width="1920"
   inkscape:window-height="1015"
   id="namedview12"
   showgrid="false"
   inkscape:zoom="0.6002692"
   inkscape:cx="130.40511"
   inkscape:cy="516.15889"
   inkscape:window-x="1920"
   inkscape:window-y="0"
   inkscape:window-maximized="1"
   inkscape:current-layer="svg10"
   showguides="true"
   inkscape:guide-bbox="true"
   inkscape:document-rotation="0"><sodipodi:guide
     position="0,1000"
     orientation="0,1"
     id="guide16"
     inkscape:label=""
     inkscape:locked="true"
     inkscape:color="rgb(0,0,255)" /><sodipodi:guide
     position="1763.3122,2036.1693"
     orientation="1000,0"
     id="guide18" /><sodipodi:guide
     position="0,200"
     orientation="0,1"
     id="guide20"
     inkscape:label="base"
     inkscape:locked="true"
     inkscape:color="rgb(0,0,255)" /><inkscape:grid
     type="xygrid"
     id="grid24"
     originx="-473.37552"
     originy="-489.69235" /><sodipodi:guide
     position="0,0"
     orientation="0,1"
     id="guide34"
     inkscape:label="bottom"
     inkscape:locked="true"
     inkscape:color="rgb(0,0,255)" /><sodipodi:guide
     position="225.05109,1693.3186"
     orientation="0,1"
     id="guide44"
     inkscape:label=""
     inkscape:locked="false"
     inkscape:color="rgb(0,0,255)" /><sodipodi:guide
     position="0,900"
     orientation="0,1"
     id="guide46"
     inkscape:label=""
     inkscape:locked="true"
     inkscape:color="rgb(0,0,255)" /><sodipodi:guide
     position="768.45201,586.15029"
     orientation="-1,0"
     id="guide841"
     inkscape:label=""
     inkscape:locked="false"
     inkscape:color="rgb(0,0,255)" /></sodipodi:namedview>
 <defs
   id="defs4"><inkscape:path-effect
   effect="spiro"
   id="path-effect853"
   is_visible="true"
   lpeversion="1" /><inkscape:path-effect
   effect="spiro"
   id="path-effect854"
   is_visible="true"
   lpeversion="1" />
  <style
   type="text/css"
   id="style2">
   <![CDATA[
    .fil0 {fill:#EF7F1A;fill-rule:nonzero}
   ]]>
  </style>
 <inkscape:path-effect
   effect="spiro"
   id="path-effect1214"
   is_visible="true"
   lpeversion="1" /><inkscape:path-effect
   effect="spiro"
   id="path-effect1195"
   is_visible="true"
   lpeversion="1" /><inkscape:path-effect
   effect="spiro"
   id="path-effect992"
   is_visible="true"
   lpeversion="1" /><inkscape:path-effect
   effect="spiro"
   id="path-effect287"
   is_visible="true"
   lpeversion="1" /><inkscape:path-effect
   effect="spiro"
   id="path-effect1032"
   is_visible="true"
   lpeversion="1" /><inkscape:path-effect
   effect="spiro"
   id="path-effect1102"
   is_visible="true"
   lpeversion="1" /></defs>
 
<path
   id="path1038-8-6"
   style="display:inline;fill:#1a1a1a;fill-rule:nonzero;stroke:none;stroke-width:4.4069;stroke-linecap:butt;stroke-linejoin:miter;stroke-miterlimit:4;stroke-dasharray:none;stroke-opacity:1"
   d="m 389.47906,947.85016 c -8.69129,-3.31029 -17.30965,-7.19295 -24.48886,-13.10527 -7.17921,-5.91232 -12.85472,-14.09856 -14.12529,-23.31172 -1.1627,-8.431 1.49725,-17.16915 6.51996,-24.03982 5.02271,-6.87067 12.27019,-11.94096 20.1675,-15.11369 15.79462,-6.34546 33.48613,-5.25226 50.42141,-3.54018 48.10873,4.86356 95.81021,13.92619 142.24089,27.42792 41.38804,12.03537 81.75108,27.59346 120.50953,46.45088 l 61.94878,-66.90245 c -31.81854,-16.29121 -64.81693,-30.27748 -98.65115,-41.813 -73.63535,-25.10541 -151.95053,-38.55272 -229.49971,-32.34211 -28.23047,2.26087 -56.27471,7.11472 -83.50246,14.90707 -18.29438,5.2357 -36.40801,11.89289 -52.21468,22.48751 -15.80667,10.59462 -29.26039,25.45626 -35.49378,43.43518 -6.13725,17.70163 -4.86771,37.57456 2.04312,54.98875 6.91082,17.41418 19.21265,32.41827 33.99857,43.92437 29.57182,23.0122 67.64733,31.8225 104.76543,36.951 69.55335,9.6099 141.0436,8.3602 209.20248,-8.5035 68.15888,-16.8637 132.91571,-49.74225 183.51592,-98.42116 66.15056,-63.63881 106.02022,-154.1585 106.9234,-245.94619 0.93308,-94.82578 -40.54385,-189.9132 -112.81174,-251.31477 -72.26788,-61.40157 -174.43251,-86.9295 -266.36191,-63.6532 -41.39695,10.48161 -80.91851,30.73516 -110.38294,61.64501 -25.74826,27.01138 -43.15443,61.54983 -51.32263,97.96229 -8.1682,36.41247 -7.2628,74.62197 0.83901,111.04927 10.60554,47.68451 34.06746,93.16485 70.26064,125.97252 36.19318,32.80766 85.59347,51.98763 134.23551,47.48863 30.87956,-2.85611 60.55898,-14.97232 85.96563,-32.75452 25.40666,-17.7822 46.66164,-41.09391 63.96988,-66.82579 31.14896,-46.30866 49.69694,-100.51243 57.09989,-155.82921 7.40296,-55.31677 3.89594,-111.76391 -6.6631,-166.56588 -11.84235,-61.46242 -33.07003,-122.19171 -70.74134,-172.17913 -37.67132,-49.98742 -93.20408,-88.42648 -155.25449,-96.6494 -55.83088,-7.398709 -114.1383,10.58608 -157.46958,46.56146 -42.23285,35.06342 -69.65514,85.16307 -87.40278,137.1061 -15.96207,46.7171 -24.8546,95.75111 -27.57492,145.04487 -1.911,34.62839 -0.80133,69.39579 -3.52389,103.96984 -2.72256,34.57405 -9.50073,69.45727 -26.05909,99.93018 -8.49524,15.63407 -19.65155,30.07247 -34.02431,40.56137 -14.37275,10.48891 -32.15116,16.81402 -49.90746,15.67068 -17.3594,-1.11778 -33.91483,-9.36949 -46.29522,-21.58932 C 87.954893,658.76492 79.621984,642.77539 75.265967,625.93427 66.553933,592.25202 73.407802,556.51188 83.598539,523.24715 106.35086,448.97874 145.37601,380.3945 166.80387,305.73318 183.10569,248.93255 188.927,189.14206 183.88788,130.26364 L -4.1863635,63.720553 C 32.302028,103.65005 56.168724,154.94755 63.209911,208.57766 70.584376,264.74623 59.878823,321.71422 45.491399,376.5074 31.103976,431.30058 12.944041,485.34279 4.9649596,541.42866 c -6.8525927,48.16765 -5.88101434,98.36597 10.7465794,144.08909 8.313797,22.86156 20.519777,44.40225 36.653731,62.60845 16.133955,18.2062 36.245427,33.02236 58.82004,42.08641 16.10933,6.46814 33.34574,9.97973 50.67775,10.95386 38.03137,2.13753 76.81234,-8.25658 108.13677,-29.92993 31.32443,-21.67335 54.86408,-54.62343 64.28804,-91.53065 8.53537,-33.42721 5.61314,-68.67404 0.49201,-102.79156 -5.12114,-34.11751 -12.40133,-68.13338 -12.42995,-102.63309 -0.0484,-58.33752 21.22869,-115.93379 56.51912,-162.38651 16.37401,-21.55308 35.93032,-41.03204 59.24977,-54.77419 23.31945,-13.74215 50.61569,-21.50619 77.57895,-19.13432 25.93093,2.28106 50.54153,13.83073 70.77526,30.20791 20.23374,16.37718 36.31762,37.41477 49.43311,59.90032 32.20699,55.21655 47.00909,119.37153 49.91549,183.22848 2.29775,50.48426 -3.3453,103.51873 -30.85815,145.90956 -13.75643,21.19542 -32.92144,39.17148 -55.87807,49.72981 -22.95662,10.55833 -49.76238,13.34716 -73.88776,5.83377 -27.1741,-8.46285 -49.62916,-29.73867 -61.45649,-55.62623 -11.82732,-25.88757 -13.3681,-55.94205 -6.30191,-83.51234 7.2806,-28.40686 23.48866,-54.33196 45.27192,-73.96474 21.78326,-19.63278 49.008,-32.9976 77.69634,-39.07508 29.31712,-6.21068 60.1555,-4.87136 88.93154,3.49558 28.77603,8.36694 55.45132,23.71396 77.40798,44.10933 43.91332,40.79073 67.65857,101.59836 65.82732,161.50587 -1.33209,43.57813 -15.51507,86.31967 -38.04107,123.64804 -22.526,37.32837 -53.20265,69.38113 -87.76963,95.95088 -41.83387,32.15541 -89.98496,56.68907 -141.50667,68.07134 -51.52172,11.38227 -106.4693,9.23183 -155.77792,-9.54856 z"
   sodipodi:nodetypes="aaaaccaaaaaaaaaaaaaaaaaaaaaccaaaaaaaaaaaaaasa"
   inkscape:path-effect="#path-effect853"
   inkscape:original-d="m 389.47906,947.85016 c -16.99927,-4.90433 -40.82399,-18.86295 -38.61415,-36.41699 3.6696,-29.14968 48.09317,-38.08294 77.10887,-42.69369 47.68872,-7.57799 95.82364,14.1208 142.24089,27.42792 41.38361,11.86405 79.06464,-41.78405 120.50953,46.45088 l 61.94878,-66.90245 c -69.55075,-64.96751 -64.23386,-32.27113 -98.65115,-41.813 -74.44765,-20.63991 -152.25689,-33.75809 -229.49971,-32.34211 -28.26946,0.51823 -57.57831,3.62124 -83.50246,14.90707 -33.53359,14.59854 -85.46056,29.41836 -87.70846,65.92269 -4.00874,65.09914 77.62609,119.67382 140.80712,135.86412 131.425,33.678 290.11951,-18.1541 392.7184,-106.92466 C 854.43946,852.83876 914.46793,752.34659 893.76012,665.38375 855.69861,505.54378 678.20193,365.49823 514.58647,350.41578 c -41.96535,-3.86846 -84.90402,28.07597 -110.38294,61.64501 -43.33255,57.09158 -72.70067,140.86788 -50.48362,209.01156 27.70707,84.98255 115.26439,168.2258 204.49615,173.46115 59.89413,3.51407 117.56618,-49.06416 149.93551,-99.58031 C 766.83575,603.36961 787.80389,477.33328 758.58836,372.5581 727.14479,259.79256 644.70021,137.44357 532.59253,103.72957 480.17511,87.966142 418.85019,117.36688 375.12295,150.29103 c -43.29757,32.60063 -67.41534,86.7277 -87.40278,137.1061 -18.14933,45.74544 -19.444,96.50693 -27.57492,145.04487 -11.34666,67.73449 7.03138,145.79583 -29.58298,203.90002 -17.95357,28.49095 -51.88248,66.5717 -83.93177,56.23205 C 89.313424,674.0826 83.327608,583.47263 83.598539,523.24715 83.947756,445.61958 149.01526,381.29591 166.80387,305.73318 180.27025,248.53049 183.88788,130.26364 183.88788,130.26364 114.45948,124.57809 55.644531,98.916969 -4.1863635,63.720553 c 0,0 60.4333975,92.058217 67.3962745,144.857107 14.726448,111.66938 -71.1860335,220.96067 -58.2449514,332.851 10.3599164,89.57323 36.6808724,191.38228 106.2203504,248.78395 13.32843,11.00201 33.74097,14.39433 50.67775,10.95386 68.8962,-13.99529 141.87513,-58.14177 172.42481,-121.46058 29.80536,-61.77609 -21.40367,-137.49053 -11.93794,-205.42465 7.90951,-56.76535 19.36732,-118.74468 56.51912,-162.38651 33.6023,-39.47227 85.13262,-77.74085 136.82872,-73.90851 49.94018,3.70216 92.06673,48.68631 120.20837,90.10823 35.57348,52.3609 62.71158,121.23334 49.91549,183.22848 -17.3618,84.1154 -75.25402,210.89666 -160.62398,201.47314 -51.27532,-5.66 -77.35559,-88.4524 -67.7584,-139.13857 10.35811,-54.70484 67.29214,-112.75705 122.96826,-113.03982 104.15066,-0.52896 215.7105,106.26707 232.16684,209.11078 13.3294,83.30197 -100.15798,174.75628 -125.8107,219.59892 -42.87851,74.95444 -200.24561,86.51875 -297.28459,58.52278 z" /></svg>
