<?xml version="1.0" encoding="UTF-8" standalone="no"?>
<svg
   xmlns:dc="http://purl.org/dc/elements/1.1/"
   xmlns:cc="http://creativecommons.org/ns#"
   xmlns:rdf="http://www.w3.org/1999/02/22-rdf-syntax-ns#"
   xmlns:svg="http://www.w3.org/2000/svg"
   xmlns="http://www.w3.org/2000/svg"
   xmlns:sodipodi="http://sodipodi.sourceforge.net/DTD/sodipodi-0.dtd"
   xmlns:inkscape="http://www.inkscape.org/namespaces/inkscape"
   xml:space="preserve"
   width="1000"
   height="1000"
   version="1.1"
   style="clip-rule:evenodd;fill-rule:evenodd;image-rendering:optimizeQuality;shape-rendering:geometricPrecision;text-rendering:geometricPrecision"
   viewBox="0 0 1000 1000"
   id="svg10"
   sodipodi:docname="ഷ.svg"
   inkscape:version="1.0.2 (e86c870879, 2021-01-15)"><metadata
   id="metadata14"><rdf:RDF><cc:Work
       rdf:about=""><dc:format>image/svg+xml</dc:format><dc:type
         rdf:resource="http://purl.org/dc/dcmitype/StillImage" /><dc:title /></cc:Work></rdf:RDF></metadata><sodipodi:namedview
   pagecolor="#ffffff"
   bordercolor="#666666"
   borderopacity="1"
   objecttolerance="10"
   gridtolerance="10"
   guidetolerance="10"
   inkscape:pageopacity="0"
   inkscape:pageshadow="2"
   inkscape:window-width="1920"
   inkscape:window-height="1007"
   id="namedview12"
   showgrid="false"
   inkscape:zoom="0.678"
   inkscape:cx="693.84266"
   inkscape:cy="414.82667"
   inkscape:window-x="1920"
   inkscape:window-y="0"
   inkscape:window-maximized="1"
   inkscape:current-layer="svg10"
   showguides="true"
   inkscape:guide-bbox="true"
   inkscape:document-rotation="0"
   inkscape:snap-to-guides="true"><sodipodi:guide
     position="0,1000"
     orientation="0,1"
     id="guide16"
     inkscape:label=""
     inkscape:locked="true"
     inkscape:color="rgb(0,0,255)" /><sodipodi:guide
     position="1763.3122,2036.1693"
     orientation="1000,0"
     id="guide18" /><sodipodi:guide
     position="0,200"
     orientation="0,1"
     id="guide20"
     inkscape:label="base"
     inkscape:locked="true"
     inkscape:color="rgb(0,0,255)" /><inkscape:grid
     type="xygrid"
     id="grid24"
     originx="-473.37552"
     originy="-489.69235" /><sodipodi:guide
     position="0,0"
     orientation="0,1"
     id="guide34"
     inkscape:label="bottom"
     inkscape:locked="true"
     inkscape:color="rgb(0,0,255)" /><sodipodi:guide
     position="225.05109,1693.3186"
     orientation="0,1"
     id="guide44"
     inkscape:label=""
     inkscape:locked="false"
     inkscape:color="rgb(0,0,255)" /><sodipodi:guide
     position="0,900"
     orientation="0,1"
     id="guide46"
     inkscape:label=""
     inkscape:locked="true"
     inkscape:color="rgb(0,0,255)" /><sodipodi:guide
     position="878.57137,799.17327"
     orientation="-1,0"
     id="guide841"
     inkscape:label="width"
     inkscape:locked="false"
     inkscape:color="rgb(0,0,255)" /><sodipodi:guide
     position="0,1000"
     orientation="0,1000"
     id="guide860" /><sodipodi:guide
     position="1000,1000"
     orientation="1000,0"
     id="guide862" /><sodipodi:guide
     position="1000,0"
     orientation="0,-1000"
     id="guide864" /><sodipodi:guide
     position="0,0"
     orientation="-1000,0"
     id="guide866" /></sodipodi:namedview>
 <defs
   id="defs4"><inkscape:path-effect
   effect="fillet_chamfer"
   id="path-effect871"
   is_visible="true"
   lpeversion="1"
   satellites_param="F,0,0,1,0,0,0,1 @ F,0,0,1,0,0,0,1 @ F,0,0,1,0,0,0,1 @ F,0,0,1,0,0,0,1 @ F,0,0,1,0,0,0,1 @ F,0,0,1,0,0,0,1 @ F,0,0,1,0,0,0,1 @ F,0,0,1,0,0,0,1 @ F,0,0,1,0,0,0,1 @ F,0,0,1,0,0,0,1 @ F,0,0,1,0,0,0,1 @ F,0,0,1,0,0,0,1 @ F,0,0,1,0,0,0,1 @ F,0,0,1,0,0,0,1 @ F,0,0,1,0,0,0,1 @ F,0,0,1,0,0,0,1 @ F,0,0,1,0,0,0,1 @ F,0,0,1,0,0,0,1 @ F,0,0,1,0,0,0,1 @ F,0,0,1,0,0,0,1 @ F,0,0,1,0,0,0,1 @ F,0,0,1,0,0,0,1 @ F,0,0,1,0,0,0,1 @ F,0,0,1,0,0,0,1 @ F,0,0,1,0,0,0,1 @ F,0,0,1,0,0,0,1 @ F,0,0,1,0,0,0,1 @ F,0,0,1,0,0,0,1 @ F,0,0,1,0,0,0,1 @ F,0,0,1,0,0,0,1 @ F,0,0,1,0,0,0,1 @ F,0,0,1,0,0,0,1 @ F,0,0,1,0,0,0,1 @ F,0,0,1,0,0,0,1 @ F,0,0,1,0,0,0,1 @ F,0,0,1,0,0,0,1 @ F,0,0,1,0,0,0,1 @ F,0,0,1,0,0,0,1 @ F,0,0,1,0,0,0,1 @ F,0,0,1,0,0,0,1 @ F,0,0,1,0,0,0,1 @ F,0,0,1,0,0,0,1 @ F,0,0,1,0,0,0,1 @ F,0,0,1,0,0,0,1 @ F,0,0,1,0,0,0,1 @ F,0,0,1,0,0,0,1 @ F,0,0,1,0,0,0,1 @ F,0,1,1,0,20.841913,0,1 @ F,0,1,1,0,20.841913,0,1 @ F,0,0,1,0,0,0,1 @ F,0,0,1,0,0,0,1 @ F,0,0,1,0,0,0,1 @ F,0,0,1,0,0,0,1 @ F,0,0,1,0,0,0,1 @ F,0,0,1,0,0,0,1 @ F,0,0,1,0,0,0,1 @ F,0,0,1,0,0,0,1 @ F,0,0,1,0,0,0,1 @ F,0,1,1,0,20.841913,0,1 @ F,0,1,1,0,20.841913,0,1"
   unit="px"
   method="auto"
   mode="F"
   radius="0"
   chamfer_steps="1"
   flexible="false"
   use_knot_distance="true"
   apply_no_radius="true"
   apply_with_radius="true"
   only_selected="true"
   hide_knots="false" /><inkscape:path-effect
   effect="fillet_chamfer"
   id="path-effect860"
   is_visible="true"
   lpeversion="1"
   satellites_param="F,0,0,1,0,0,0,1 @ F,0,0,1,0,0,0,1 @ F,0,0,1,0,0,0,1 @ F,0,0,1,0,0,0,1 @ F,0,0,1,0,0,0,1 @ F,0,0,1,0,0,0,1 @ F,0,0,1,0,0,0,1 @ F,0,0,1,0,0,0,1 @ F,0,0,1,0,0,0,1 @ F,0,0,1,0,0,0,1 @ F,0,0,1,0,0,0,1 @ F,0,0,1,0,0,0,1 @ F,0,0,1,0,0,0,1 @ F,0,0,1,0,0,0,1 @ F,0,0,1,0,0,0,1 @ F,0,0,1,0,0,0,1 @ F,0,0,1,0,0,0,1 @ F,0,0,1,0,0,0,1 @ F,0,0,1,0,0,0,1 @ F,0,0,1,0,0,0,1 @ F,0,0,1,0,0,0,1 @ F,0,0,1,0,0,0,1 @ F,0,0,1,0,0,0,1 @ F,0,0,1,0,0,0,1 @ F,0,0,1,0,0,0,1 @ F,0,0,1,0,0,0,1 @ F,0,0,1,0,0,0,1 @ F,0,0,1,0,0,0,1 @ F,0,0,1,0,0,0,1 @ F,0,0,1,0,0,0,1 @ F,0,0,1,0,0,0,1 @ F,0,0,1,0,0,0,1 @ F,0,0,1,0,0,0,1 @ F,0,0,1,0,0,0,1 @ F,0,0,1,0,0,0,1 @ F,0,0,1,0,0,0,1 @ F,0,0,1,0,0,0,1 @ F,0,0,1,0,0,0,1 @ F,0,0,1,0,0,0,1 @ F,0,0,1,0,0,0,1 @ F,0,0,1,0,0,0,1 @ F,0,0,1,0,0,0,1 @ F,0,0,1,0,0,0,1 @ F,0,0,1,0,0,0,1 @ F,0,0,1,0,0,0,1 @ F,0,0,1,0,0,0,1 @ F,0,0,1,0,0,0,1 @ F,0,0,1,0,0,0,1 @ F,0,0,1,0,0,0,1 @ F,0,0,1,0,26.807484,0,1 @ F,0,0,1,0,15.382118,0,1 @ F,0,0,1,0,0,0,1 @ F,0,0,1,0,0,0,1 @ F,0,0,1,0,0,0,1 @ F,0,0,1,0,0,0,1 @ F,0,0,1,0,0,0,1 @ F,0,0,1,0,0,0,1 @ F,0,0,1,0,0,0,1 @ F,0,0,1,0,0,0,1 @ F,0,0,1,0,0,0,1 @ F,0,0,1,0,40.609832,0,1 @ F,0,0,1,0,23.75099,0,1"
   unit="px"
   method="auto"
   mode="F"
   radius="0"
   chamfer_steps="1"
   flexible="false"
   use_knot_distance="true"
   apply_no_radius="true"
   apply_with_radius="true"
   only_selected="true"
   hide_knots="false" /><inkscape:path-effect
   effect="spiro"
   id="path-effect859"
   is_visible="true"
   lpeversion="1" /><inkscape:path-effect
   effect="spiro"
   id="path-effect862"
   is_visible="true"
   lpeversion="1" /><inkscape:path-effect
   effect="spiro"
   id="path-effect1521"
   is_visible="true"
   lpeversion="1" /><inkscape:path-effect
   effect="spiro"
   id="path-effect858"
   is_visible="true"
   lpeversion="1" /><inkscape:path-effect
   effect="spiro"
   id="path-effect854"
   is_visible="true"
   lpeversion="1" />
  <style
   type="text/css"
   id="style2">
   <![CDATA[
    .fil0 {fill:#EF7F1A;fill-rule:nonzero}
   ]]>
  </style>
 <inkscape:path-effect
   effect="spiro"
   id="path-effect1214"
   is_visible="true"
   lpeversion="1" /><inkscape:path-effect
   effect="spiro"
   id="path-effect1195"
   is_visible="true"
   lpeversion="1" /><inkscape:path-effect
   effect="spiro"
   id="path-effect992"
   is_visible="true"
   lpeversion="1" /><inkscape:path-effect
   effect="spiro"
   id="path-effect287"
   is_visible="true"
   lpeversion="1" /><inkscape:path-effect
   effect="spiro"
   id="path-effect1032"
   is_visible="true"
   lpeversion="1" /><inkscape:path-effect
   effect="spiro"
   id="path-effect1218"
   is_visible="true"
   lpeversion="1" /><inkscape:path-effect
   effect="spiro"
   id="path-effect309"
   is_visible="true"
   lpeversion="1" /><inkscape:path-effect
   effect="spiro"
   id="path-effect1176"
   is_visible="true"
   lpeversion="1" /><inkscape:path-effect
   effect="spiro"
   id="path-effect1026"
   is_visible="true"
   lpeversion="1" /><inkscape:path-effect
   effect="spiro"
   id="path-effect1247"
   is_visible="true"
   lpeversion="1" /></defs>
 
<path
   style="display:inline;fill:#1a1a1a;fill-rule:nonzero;stroke:none;stroke-width:1.97338px;stroke-linecap:butt;stroke-linejoin:miter;stroke-opacity:1"
   d="m 13.177139,714.57659 c 16.723804,-78.20924 37.400687,-158.61396 87.455781,-220.99071 23.52747,-29.31904 53.41818,-53.98668 88.04648,-68.6164 34.6283,-14.62972 74.11733,-18.79522 110.32033,-8.67145 47.02811,13.15089 86.37565,51.09584 101.11299,97.65118 13.13759,41.50171 7.07614,87.5742 -10.89398,127.22345 -9.93663,21.92416 -23.40377,42.24364 -39.72428,59.93676 73.724,11.84524 148.38606,17.84713 223.05553,17.93086 41.54599,0.0466 83.41614,-1.77962 123.79812,-11.54522 11.51792,-2.78539 23.2162,-6.38213 32.39848,-13.87257 10.26679,-8.37512 16.47728,-21.10807 18.3563,-34.22367 1.87901,-13.11561 -0.32063,-26.58414 -4.72922,-39.0787 C 732.25081,591.63054 710.81504,567.9671 685.94808,550.44004 661.08111,532.91297 632.76949,520.96718 604.3944,509.99365 532.53489,482.20333 458.63471,459.75317 387.60282,429.91088 361.13871,418.79264 334.90988,406.54812 311.69246,389.66866 288.47505,372.78921 268.2513,350.92038 256.99722,324.51375 c -11.36623,-26.66977 -13.04348,-56.87947 -7.70614,-85.37474 5.4004,-28.8319 17.92793,-56.40996 36.76698,-78.89402 24.58248,-29.33874 59.31995,-49.30074 96.28029,-59.25025 36.96035,-9.949514 76.07585,-10.270886 113.91874,-4.528472 40.0076,6.070892 79.3026,19.018462 113.3665,40.861402 34.06391,21.84294 62.71685,52.88376 78.77729,90.02573 18.044,41.72923 19.5266,89.15663 11.83089,133.9639 -7.69571,44.80726 -24.10459,87.59485 -40.93406,129.82853 -16.61353,41.69178 -33.83464,83.52232 -42.25348,127.60562 -8.5671,44.85964 -7.75199,91.48882 2.37774,136.02163 l -153.38826,5.42091 c 8.08752,-19.22856 15.87454,-38.5835 23.35726,-58.05539 19.87838,-51.72848 37.64094,-104.358 61.0582,-154.58367 16.05679,-34.43883 34.75408,-67.7073 48.34217,-103.19276 13.58808,-35.48545 21.97521,-73.96558 16.28806,-111.53564 -5.71571,-37.75873 -25.98239,-73.06979 -55.49393,-97.30737 -29.51155,-24.23757 -67.96101,-37.24036 -106.13629,-36.22074 -25.70049,0.68643 -51.85014,7.91139 -71.80503,24.12215 -9.97745,8.10538 -18.26429,18.37964 -23.56555,30.09046 -5.30126,11.71082 -7.55547,24.86438 -5.90346,37.61261 2.07691,16.02712 10.20589,30.85268 20.97787,42.90037 10.77198,12.04768 24.10722,21.53293 37.9204,29.9221 59.70767,36.26229 128.76287,53.14226 195.31786,74.36473 65.36715,20.8437 130.99029,47.35892 180.88559,94.45226 31.79858,30.01288 56.22035,67.81277 70.3565,109.1902 9.11199,26.6714 13.98312,55.45409 8.76696,83.15217 -2.60808,13.84905 -7.75188,27.2846 -15.63859,38.96355 -7.8867,11.67896 -18.55965,21.56191 -31.13077,27.93098 -19.85882,10.06134 -42.97674,10.89543 -65.23884,10.94335 -63.49183,0.13667 -126.88566,-4.45123 -190.32174,-7.11483 -106.49398,-4.47154 -213.21556,-3.51723 -319.61263,2.85618 -11.49005,0.68827 -21.65589,-7.97664 -22.71128,-19.43882 l -5.26978,-57.23324 c -1.05539,-11.46218 7.45172,-21.75206 18.43721,-25.14006 13.58926,-4.19102 26.44182,-10.78014 37.73218,-19.42886 16.8062,-12.87403 30.1076,-30.27849 38.11728,-49.87528 6.07318,-14.85887 9.12945,-31.12713 7.39504,-47.08525 -1.73441,-15.95811 -8.46289,-31.56346 -19.91827,-42.80818 -7.35234,-7.21714 -16.50473,-12.52914 -26.31807,-15.66637 -9.81335,-3.13723 -20.27254,-4.12245 -30.53574,-3.22209 -20.52641,1.80072 -39.92589,11.07852 -56.05062,23.90697 -27.9709,22.25299 -46.43495,54.68666 -57.6369,88.62901 -13.11664,39.74393 -17.04782,82.30407 -13.15305,123.97489 2.02309,21.64536 6.13459,43.0944 12.24728,63.95685 3.23605,11.04454 -2.50431,17.25449 -13.5754,14.10385 L 16.045979,805.70474 C 4.9748905,802.5541 -2.2786928,790.8288 -0.08153281,779.52978 4.1365178,757.83824 8.5563264,736.18592 13.177139,714.57659 Z"
   id="path1216-0"
   inkscape:path-effect="#path-effect1247;#path-effect871"
   inkscape:original-d="m 13.177139,714.57659 c 22.474095,-75.96757 31.288832,-165.12095 87.455781,-220.99071 50.31194,-50.04573 128.79265,-91.26293 198.36681,-77.28785 45.93868,9.22753 84.66392,53.77707 101.11299,97.65118 14.94191,39.85409 3.1139,87.03155 -10.89398,127.22345 -7.88828,22.63333 -39.72428,59.93676 -39.72428,59.93676 0,0 148.46536,18.4073 223.05553,17.93086 41.44426,-0.26472 83.62895,-1.34063 123.79812,-11.54522 11.38619,-2.89255 25.05712,-4.70106 32.39848,-13.87257 15.53075,-19.40245 22.29482,-50.0101 13.62708,-73.30237 -20.538,-55.1905 -86.7054,-81.36458 -137.97927,-110.32647 -67.0759,-37.88762 -149.80106,-42.04439 -216.79158,-80.08277 -48.64745,-27.62287 -104.23237,-56.06103 -130.6056,-105.39713 -13.47067,-25.19943 -12.62602,-57.22754 -7.70614,-85.37474 4.99557,-28.58025 14.85223,-59.88007 36.76698,-78.89402 55.30559,-47.98493 137.81929,-74.843754 210.19903,-63.778722 76.60601,11.711122 159.73508,60.493192 192.14379,130.887132 36.99565,80.35708 -10.24492,177.36151 -29.10317,263.79243 -9.55154,43.77653 -35.50711,83.30999 -42.25348,127.60562 -6.82783,44.8305 2.37774,136.02163 2.37774,136.02163 l -153.38826,5.42091 c 0,0 15.63285,-38.67903 23.35726,-58.05539 20.51586,-51.46316 42.88209,-102.24835 61.0582,-154.58367 C 574.97234,476.9442 636.7387,404.36768 615.0794,332.82653 594.82948,265.9406 523.31477,197.69016 453.44918,199.29842 c -45.55632,1.04868 -97.76392,46.39222 -101.27404,91.82522 -2.40486,31.1271 33.62135,54.49879 58.89827,72.82247 56.4039,40.88816 131.77873,45.79865 195.31786,74.36473 62.03884,27.89158 130.6462,48.59637 180.88559,94.45226 31.97974,29.18943 63.36564,66.46019 70.3565,109.1902 8.33043,50.91783 -0.0571,115.08704 -38.0024,150.0467 -16.2167,14.94074 -43.23447,9.52398 -65.23884,10.94335 -63.35323,4.08655 -126.84185,-6.31773 -190.32174,-7.11483 C 450.59982,794.4037 223.65742,800 223.65742,800 l -9.09168,-98.74148 c 0,0 87.61419,-165.63534 96.19762,-73.69008 2.86815,30.72351 10.73315,-70.54307 -12.52323,-89.89343 -28.95874,-24.09499 -80.19905,-13.67736 -112.90443,5.01851 -30.59457,17.48924 -45.84646,55.41926 -57.6369,88.62901 -13.90367,39.16201 -15.52352,82.48566 -13.15305,123.97489 1.63198,28.56384 18.71786,83.76544 18.71786,83.76544 L -4,800 c 0,0 8.9376879,-57.57219 17.177139,-85.42341 z"
   sodipodi:nodetypes="aaaaacaaaaaaaaaaaaaccaaaaaaaaaaaaccsaaaacca" /></svg>
