<?xml version="1.0" encoding="UTF-8" standalone="no"?>
<svg
   xmlns:dc="http://purl.org/dc/elements/1.1/"
   xmlns:cc="http://creativecommons.org/ns#"
   xmlns:rdf="http://www.w3.org/1999/02/22-rdf-syntax-ns#"
   xmlns:svg="http://www.w3.org/2000/svg"
   xmlns="http://www.w3.org/2000/svg"
   xmlns:sodipodi="http://sodipodi.sourceforge.net/DTD/sodipodi-0.dtd"
   xmlns:inkscape="http://www.inkscape.org/namespaces/inkscape"
   xml:space="preserve"
   width="1000"
   height="1000"
   version="1.1"
   style="clip-rule:evenodd;fill-rule:evenodd;image-rendering:optimizeQuality;shape-rendering:geometricPrecision;text-rendering:geometricPrecision"
   viewBox="0 0 1000 1000"
   id="svg10"
   sodipodi:docname="ഷ്ര.svg"
   inkscape:version="1.0.2 (e86c870879, 2021-01-15)"><metadata
   id="metadata14"><rdf:RDF><cc:Work
       rdf:about=""><dc:format>image/svg+xml</dc:format><dc:type
         rdf:resource="http://purl.org/dc/dcmitype/StillImage" /><dc:title /></cc:Work></rdf:RDF></metadata><sodipodi:namedview
   pagecolor="#ffffff"
   bordercolor="#666666"
   borderopacity="1"
   objecttolerance="10"
   gridtolerance="10"
   guidetolerance="10"
   inkscape:pageopacity="0"
   inkscape:pageshadow="2"
   inkscape:window-width="1920"
   inkscape:window-height="1007"
   id="namedview12"
   showgrid="false"
   inkscape:zoom="0.4794184"
   inkscape:cx="940.92003"
   inkscape:cy="779.87629"
   inkscape:window-x="1920"
   inkscape:window-y="0"
   inkscape:window-maximized="1"
   inkscape:current-layer="svg10"
   showguides="true"
   inkscape:guide-bbox="true"
   inkscape:document-rotation="0"
   inkscape:snap-to-guides="true"><sodipodi:guide
     position="0,1000"
     orientation="0,1"
     id="guide16"
     inkscape:label=""
     inkscape:locked="true"
     inkscape:color="rgb(0,0,255)" /><sodipodi:guide
     position="1763.3122,2036.1693"
     orientation="1000,0"
     id="guide18" /><sodipodi:guide
     position="0,200"
     orientation="0,1"
     id="guide20"
     inkscape:label="base"
     inkscape:locked="true"
     inkscape:color="rgb(0,0,255)" /><inkscape:grid
     type="xygrid"
     id="grid24"
     originx="-473.37552"
     originy="-489.69235" /><sodipodi:guide
     position="0,0"
     orientation="0,1"
     id="guide34"
     inkscape:label="bottom"
     inkscape:locked="true"
     inkscape:color="rgb(0,0,255)" /><sodipodi:guide
     position="225.05109,1693.3186"
     orientation="0,1"
     id="guide44"
     inkscape:label=""
     inkscape:locked="false"
     inkscape:color="rgb(0,0,255)" /><sodipodi:guide
     position="0,900"
     orientation="0,1"
     id="guide46"
     inkscape:label=""
     inkscape:locked="true"
     inkscape:color="rgb(0,0,255)" /><sodipodi:guide
     position="1060.6653,792.63821"
     orientation="-1,0"
     id="guide841"
     inkscape:label="width"
     inkscape:locked="false"
     inkscape:color="rgb(0,0,255)" /><sodipodi:guide
     position="0,1000"
     orientation="0,1000"
     id="guide860" /><sodipodi:guide
     position="1000,1000"
     orientation="1000,0"
     id="guide862" /><sodipodi:guide
     position="1000,0"
     orientation="0,-1000"
     id="guide864" /><sodipodi:guide
     position="0,0"
     orientation="-1000,0"
     id="guide866" /></sodipodi:namedview>
 <defs
   id="defs4"><inkscape:path-effect
   effect="fillet_chamfer"
   id="path-effect861"
   is_visible="true"
   lpeversion="1"
   satellites_param="F,0,1,1,0,52.68059,0,1 @ F,0,0,1,0,0,0,1 @ F,0,0,1,0,0,0,1 @ F,0,0,1,0,0,0,1 @ F,0,0,1,0,0,0,1 @ F,0,0,1,0,0,0,1 @ F,0,0,1,0,0,0,1 @ F,0,0,1,0,0,0,1 @ F,0,0,1,0,0,0,1 @ F,0,0,1,0,0,0,1 @ F,0,0,1,0,0,0,1 @ F,0,1,1,0,52.68059,0,1 @ F,0,1,1,0,52.68059,0,1 @ F,0,0,1,0,0,0,1 @ F,0,0,1,0,0,0,1 @ F,0,0,1,0,0,0,1 @ F,0,0,1,0,0,0,1 @ F,0,0,1,0,0,0,1 @ F,0,0,1,0,0,0,1 @ F,0,0,1,0,0,0,1 @ F,0,0,1,0,0,0,1 @ F,0,0,1,0,0,0,1 @ F,0,1,1,0,52.68059,0,1 @ F,0,1,1,0,52.68059,0,1 @ F,0,0,1,0,0,0,1 @ F,0,0,1,0,0,0,1 @ F,0,0,1,0,0,0,1 @ F,0,0,1,0,0,0,1 @ F,0,0,1,0,0,0,1 @ F,0,0,1,0,0,0,1 @ F,0,0,1,0,0,0,1 @ F,0,0,1,0,0,0,1 @ F,0,0,1,0,0,0,1 @ F,0,0,1,0,0,0,1 @ F,0,0,1,0,0,0,1 @ F,0,0,1,0,0,0,1 @ F,0,0,1,0,0,0,1 @ F,0,0,1,0,0,0,1 @ F,0,0,1,0,0,0,1 @ F,0,0,1,0,0,0,1 @ F,0,0,1,0,0,0,1 @ F,0,0,1,0,0,0,1 @ F,0,0,1,0,0,0,1 @ F,0,0,1,0,0,0,1 @ F,0,0,1,0,0,0,1 @ F,0,0,1,0,0,0,1 @ F,0,0,1,0,0,0,1 @ F,0,0,1,0,0,0,1 @ F,0,0,1,0,0,0,1 @ F,0,0,1,0,0,0,1 @ F,0,0,1,0,0,0,1 @ F,0,0,1,0,0,0,1 @ F,0,0,1,0,0,0,1 @ F,0,0,1,0,0,0,1 @ F,0,0,1,0,0,0,1 @ F,0,0,1,0,0,0,1 @ F,0,0,1,0,0,0,1 @ F,0,0,1,0,0,0,1 @ F,0,0,1,0,0,0,1 @ F,0,0,1,0,0,0,1 @ F,0,0,1,0,0,0,1 @ F,0,0,1,0,0,0,1 @ F,0,0,1,0,0,0,1 @ F,0,0,1,0,0,0,1 @ F,0,0,1,0,0,0,1 @ F,0,0,1,0,0,0,1 @ F,0,0,1,0,0,0,1 @ F,0,0,1,0,0,0,1 @ F,0,0,1,0,0,0,1 @ F,0,0,1,0,0,0,1 @ F,0,0,1,0,0,0,1 @ F,0,0,1,0,0,0,1 @ F,0,0,1,0,0,0,1 @ F,0,0,1,0,0,0,1 @ F,0,1,1,0,52.68059,0,1"
   unit="px"
   method="auto"
   mode="F"
   radius="0"
   chamfer_steps="1"
   flexible="false"
   use_knot_distance="true"
   apply_no_radius="true"
   apply_with_radius="true"
   only_selected="true"
   hide_knots="false" /><inkscape:path-effect
   effect="fillet_chamfer"
   id="path-effect871"
   is_visible="true"
   lpeversion="1"
   satellites_param="F,0,0,1,0,0,0,1 @ F,0,0,1,0,0,0,1 @ F,0,0,1,0,0,0,1 @ F,0,0,1,0,0,0,1 @ F,0,0,1,0,0,0,1 @ F,0,0,1,0,0,0,1 @ F,0,0,1,0,0,0,1 @ F,0,0,1,0,0,0,1 @ F,0,0,1,0,0,0,1 @ F,0,0,1,0,0,0,1 @ F,0,0,1,0,0,0,1 @ F,0,0,1,0,0,0,1 @ F,0,0,1,0,0,0,1 @ F,0,0,1,0,0,0,1 @ F,0,0,1,0,0,0,1 @ F,0,0,1,0,0,0,1 @ F,0,0,1,0,0,0,1 @ F,0,0,1,0,0,0,1 @ F,0,0,1,0,0,0,1 @ F,0,0,1,0,0,0,1 @ F,0,0,1,0,0,0,1 @ F,0,0,1,0,0,0,1 @ F,0,0,1,0,0,0,1 @ F,0,0,1,0,0,0,1 @ F,0,0,1,0,0,0,1 @ F,0,0,1,0,0,0,1 @ F,0,0,1,0,0,0,1 @ F,0,0,1,0,0,0,1 @ F,0,0,1,0,0,0,1 @ F,0,0,1,0,0,0,1 @ F,0,0,1,0,0,0,1 @ F,0,0,1,0,0,0,1 @ F,0,0,1,0,0,0,1 @ F,0,0,1,0,0,0,1 @ F,0,0,1,0,0,0,1 @ F,0,0,1,0,0,0,1 @ F,0,0,1,0,0,0,1 @ F,0,0,1,0,0,0,1 @ F,0,0,1,0,0,0,1 @ F,0,0,1,0,0,0,1 @ F,0,0,1,0,0,0,1 @ F,0,0,1,0,0,0,1 @ F,0,0,1,0,0,0,1 @ F,0,0,1,0,0,0,1 @ F,0,0,1,0,0,0,1 @ F,0,0,1,0,0,0,1 @ F,0,0,1,0,0,0,1 @ F,0,1,1,0,20.841913,0,1 @ F,0,1,1,0,20.841913,0,1 @ F,0,0,1,0,0,0,1 @ F,0,0,1,0,0,0,1 @ F,0,0,1,0,0,0,1 @ F,0,0,1,0,0,0,1 @ F,0,0,1,0,0,0,1 @ F,0,0,1,0,0,0,1 @ F,0,0,1,0,0,0,1 @ F,0,0,1,0,0,0,1 @ F,0,0,1,0,0,0,1 @ F,0,1,1,0,20.841913,0,1 @ F,0,1,1,0,20.841913,0,1"
   unit="px"
   method="auto"
   mode="F"
   radius="0"
   chamfer_steps="1"
   flexible="false"
   use_knot_distance="true"
   apply_no_radius="true"
   apply_with_radius="true"
   only_selected="true"
   hide_knots="false" /><inkscape:path-effect
   effect="fillet_chamfer"
   id="path-effect860"
   is_visible="true"
   lpeversion="1"
   satellites_param="F,0,0,1,0,0,0,1 @ F,0,0,1,0,0,0,1 @ F,0,0,1,0,0,0,1 @ F,0,0,1,0,0,0,1 @ F,0,0,1,0,0,0,1 @ F,0,0,1,0,0,0,1 @ F,0,0,1,0,0,0,1 @ F,0,0,1,0,0,0,1 @ F,0,0,1,0,0,0,1 @ F,0,0,1,0,0,0,1 @ F,0,0,1,0,0,0,1 @ F,0,0,1,0,0,0,1 @ F,0,0,1,0,0,0,1 @ F,0,0,1,0,0,0,1 @ F,0,0,1,0,0,0,1 @ F,0,0,1,0,0,0,1 @ F,0,0,1,0,0,0,1 @ F,0,0,1,0,0,0,1 @ F,0,0,1,0,0,0,1 @ F,0,0,1,0,0,0,1 @ F,0,0,1,0,0,0,1 @ F,0,0,1,0,0,0,1 @ F,0,0,1,0,0,0,1 @ F,0,0,1,0,0,0,1 @ F,0,0,1,0,0,0,1 @ F,0,0,1,0,0,0,1 @ F,0,0,1,0,0,0,1 @ F,0,0,1,0,0,0,1 @ F,0,0,1,0,0,0,1 @ F,0,0,1,0,0,0,1 @ F,0,0,1,0,0,0,1 @ F,0,0,1,0,0,0,1 @ F,0,0,1,0,0,0,1 @ F,0,0,1,0,0,0,1 @ F,0,0,1,0,0,0,1 @ F,0,0,1,0,0,0,1 @ F,0,0,1,0,0,0,1 @ F,0,0,1,0,0,0,1 @ F,0,0,1,0,0,0,1 @ F,0,0,1,0,0,0,1 @ F,0,0,1,0,0,0,1 @ F,0,0,1,0,0,0,1 @ F,0,0,1,0,0,0,1 @ F,0,0,1,0,0,0,1 @ F,0,0,1,0,0,0,1 @ F,0,0,1,0,0,0,1 @ F,0,0,1,0,0,0,1 @ F,0,0,1,0,0,0,1 @ F,0,0,1,0,0,0,1 @ F,0,0,1,0,26.807484,0,1 @ F,0,0,1,0,15.382118,0,1 @ F,0,0,1,0,0,0,1 @ F,0,0,1,0,0,0,1 @ F,0,0,1,0,0,0,1 @ F,0,0,1,0,0,0,1 @ F,0,0,1,0,0,0,1 @ F,0,0,1,0,0,0,1 @ F,0,0,1,0,0,0,1 @ F,0,0,1,0,0,0,1 @ F,0,0,1,0,0,0,1 @ F,0,0,1,0,40.609832,0,1 @ F,0,0,1,0,23.75099,0,1"
   unit="px"
   method="auto"
   mode="F"
   radius="0"
   chamfer_steps="1"
   flexible="false"
   use_knot_distance="true"
   apply_no_radius="true"
   apply_with_radius="true"
   only_selected="true"
   hide_knots="false" /><inkscape:path-effect
   effect="spiro"
   id="path-effect859"
   is_visible="true"
   lpeversion="1" /><inkscape:path-effect
   effect="spiro"
   id="path-effect862"
   is_visible="true"
   lpeversion="1" /><inkscape:path-effect
   effect="spiro"
   id="path-effect1521"
   is_visible="true"
   lpeversion="1" /><inkscape:path-effect
   effect="spiro"
   id="path-effect858"
   is_visible="true"
   lpeversion="1" /><inkscape:path-effect
   effect="spiro"
   id="path-effect854"
   is_visible="true"
   lpeversion="1" />
  <style
   type="text/css"
   id="style2">
   <![CDATA[
    .fil0 {fill:#EF7F1A;fill-rule:nonzero}
   ]]>
  </style>
 <inkscape:path-effect
   effect="spiro"
   id="path-effect1214"
   is_visible="true"
   lpeversion="1" /><inkscape:path-effect
   effect="spiro"
   id="path-effect1195"
   is_visible="true"
   lpeversion="1" /><inkscape:path-effect
   effect="spiro"
   id="path-effect992"
   is_visible="true"
   lpeversion="1" /><inkscape:path-effect
   effect="spiro"
   id="path-effect287"
   is_visible="true"
   lpeversion="1" /><inkscape:path-effect
   effect="spiro"
   id="path-effect1032"
   is_visible="true"
   lpeversion="1" /><inkscape:path-effect
   effect="spiro"
   id="path-effect1218"
   is_visible="true"
   lpeversion="1" /><inkscape:path-effect
   effect="spiro"
   id="path-effect309"
   is_visible="true"
   lpeversion="1" /><inkscape:path-effect
   effect="spiro"
   id="path-effect1176"
   is_visible="true"
   lpeversion="1" /><inkscape:path-effect
   effect="spiro"
   id="path-effect1026"
   is_visible="true"
   lpeversion="1" /><inkscape:path-effect
   effect="spiro"
   id="path-effect1247"
   is_visible="true"
   lpeversion="1" /></defs>
 
<path
   style="display:inline;fill:#1a1a1a;fill-rule:nonzero;stroke:none;stroke-width:1.97338px;stroke-linecap:butt;stroke-linejoin:miter;stroke-opacity:1"
   d="m 215.00871,144.44876 c -38.17078,82.00836 -69.50451,167.19905 -93.54919,254.40163 -17.30161,62.74757 -30.906688,127.20662 -29.860229,192.28739 1.04646,65.08078 17.653529,131.28772 56.086769,183.81855 25.05157,34.24067 58.69961,61.76601 96.00007,81.98186 37.30046,20.21584 78.21215,33.28067 119.89869,41.16969 83.37309,15.77804 169.05475,11.07571 253.85976,8.22456 48.93886,-1.64533 98.10801,-2.6738 146.35897,-11.01434 48.25095,-8.34053 95.99648,-24.39537 135.39213,-53.47632 16.2415,-11.9891 30.9204,-26.0925 43.54914,-41.84178 -63.39167,-3.50056 -126.84565,-5.87267 -190.32174,-7.11483 -95.9201,-1.87706 -191.89068,-1.17329 -287.77295,2.10961 -29.07753,0.99558 -54.80255,-21.42469 -57.47017,-50.39682 -2.35362,-25.56172 20.51771,-48.52776 44.93689,-63.91785 3.05222,-1.92364 6.01735,-3.9854 8.88193,-6.17974 16.8062,-12.87403 30.1076,-30.27849 38.11728,-49.87528 6.07318,-14.85887 9.12945,-31.12713 7.39504,-47.08525 -1.73441,-15.95811 -8.46289,-31.56346 -19.91827,-42.80818 -7.35234,-7.21714 -16.50473,-12.52914 -26.31807,-15.66637 -9.81335,-3.13723 -20.27254,-4.12245 -30.53574,-3.22209 -20.52641,1.80072 -39.92589,11.07852 -56.05062,23.90697 -27.9709,22.25299 -46.43495,54.68666 -57.6369,88.62901 -13.11664,39.74393 -17.04782,82.30407 -13.15305,123.97489 1.03545,11.07848 2.61798,22.10553 4.73589,33.02884 5.53247,28.5342 -8.70321,44.28079 -36.6868,36.31714 l -35.92607,-10.22394 c -27.98359,-7.96365 -46.34188,-37.60666 -40.53339,-66.11538 2.29289,-11.25376 4.64018,-22.49643 7.04176,-33.72749 16.7238,-78.20924 37.40069,-158.61396 87.45578,-220.99071 23.52747,-29.31904 53.41818,-53.98668 88.04648,-68.6164 34.6283,-14.62972 74.11733,-18.79522 110.32033,-8.67145 47.02811,13.15089 86.37565,51.09584 101.11299,97.65118 13.13759,41.50171 7.07614,87.5742 -10.89398,127.22345 -9.93663,21.92416 -23.40377,42.24364 -39.72428,59.93676 73.724,11.84524 148.38606,17.84713 223.05553,17.93086 41.54599,0.0466 83.41614,-1.77962 123.79812,-11.54522 11.51792,-2.78539 23.2162,-6.38213 32.39848,-13.87257 10.26679,-8.37512 16.47728,-21.10807 18.3563,-34.22367 1.87901,-13.11561 -0.32063,-26.58414 -4.72922,-39.0787 C 920.60351,588.68719 899.16774,565.02375 874.30078,547.49669 849.43381,529.96962 821.12219,518.02383 792.7471,507.0503 720.88759,479.25998 646.98741,456.80982 575.95552,426.96753 549.49141,415.84929 523.26258,403.60477 500.04516,386.72531 476.82775,369.84586 456.604,347.97703 445.34992,321.5704 c -11.36623,-26.66977 -13.04348,-56.87947 -7.70614,-85.37474 5.4004,-28.8319 17.92793,-56.40996 36.76698,-78.89402 24.58248,-29.33874 59.31995,-49.30074 96.28029,-59.250253 36.96035,-9.949511 76.07585,-10.270883 113.91874,-4.528469 40.0076,6.070894 79.3026,19.018462 113.3665,40.861402 34.06391,21.84294 62.71685,52.88376 78.77729,90.02573 18.044,41.72923 19.5266,89.15663 11.83089,133.9639 -7.69571,44.80726 -24.10459,87.59485 -40.93406,129.82853 -16.61353,41.69178 -33.83464,83.52232 -42.25348,127.60562 -8.5671,44.85964 -7.75199,91.48882 2.37774,136.02163 l -153.38826,5.42091 c 8.08751,-19.22856 15.87453,-38.58351 23.35726,-58.05539 19.87841,-51.72847 37.64108,-104.35794 61.0582,-154.58367 16.05668,-34.43884 34.75375,-67.70739 48.34175,-103.19284 13.58799,-35.48546 21.97516,-73.96546 16.28848,-111.53556 -5.71529,-37.75906 -25.98142,-73.07079 -55.49301,-97.30873 -29.51158,-24.23794 -67.96172,-37.24063 -106.13721,-36.21938 -25.6998,0.68751 -51.84824,7.91372 -71.80236,24.12438 -9.97706,8.10534 -18.26368,18.37922 -23.56529,30.08952 -5.3016,11.7103 -7.55674,24.8632 -5.90639,37.61132 2.07494,16.02792 10.2018,30.85541 20.97351,42.90406 10.7717,12.04865 24.1083,21.53362 37.92476,29.91841 59.71789,36.24098 128.80409,53.02102 195.31786,74.36473 65.30589,20.95611 130.68144,47.72366 180.88559,94.45226 32.04464,29.82629 57.09014,67.47122 70.35654,109.1902 16.333,51.3627 14.2921,108.10327 -4.1731,158.73853 -18.4653,50.63526 -53.02529,95.01528 -96.64987,126.66636 -42.85793,31.09485 -93.67967,49.85571 -145.48512,60.80497 -51.80545,10.94926 -104.87101,14.40166 -157.74587,17.21949 -93.75105,4.9962 -188.57036,8.021 -280.75167,-9.7786 C 268.99916,974.86105 178.5821,934.41238 116.02708,864.40459 71.156514,814.18817 42.517256,750.90444 26.946271,685.38649 11.375287,619.86855 8.3562381,551.94743 10.303317,484.63275 13.59894,370.69602 31.009779,257.17826 61.949654,147.47504 69.846739,119.47443 100.79645,97.05665 129.89114,97.05665 h 55.43675 c 29.09469,0 41.95764,21.01586 29.68082,47.39211 z"
   id="path1216-0"
   inkscape:path-effect="#path-effect1247;#path-effect861"
   inkscape:original-d="m 238.00848,97.05665 c -3.38714,0.22786 -100.4911,195.15706 -116.54896,301.79374 -18.71346,124.272 -53.172193,278.69155 26.22654,376.10594 102.72524,126.03372 307.21023,127.49989 469.75852,131.37611 96.31848,2.29687 196.97942,-18.70543 281.7511,-64.49066 C 916.90818,832.27525 942.74482,800 942.74482,800 c 0,0 -126.84185,-6.31773 -190.32174,-7.11483 -113.47056,-1.42482 -340.41296,4.17148 -340.41296,4.17148 l -9.09168,-98.74148 c 0,0 87.61419,-165.63534 96.19762,-73.69008 2.86815,30.72351 10.73315,-70.54307 -12.52323,-89.89343 -28.95874,-24.09499 -80.19905,-13.67736 -112.90443,5.01851 -30.59457,17.48924 -45.84646,55.41926 -57.6369,88.62901 -13.90367,39.16201 -15.52352,82.48566 -13.15305,123.97489 1.63198,28.56384 18.71786,83.76544 18.71786,83.76544 L 184.3527,797.05665 c 0,0 8.93768,-57.57219 17.17714,-85.42341 22.47409,-75.96757 31.28883,-165.12095 87.45578,-220.99071 50.31194,-50.04573 128.79265,-91.26293 198.36681,-77.28785 45.93868,9.22753 84.66392,53.77707 101.11299,97.65118 14.94191,39.85409 3.1139,87.03155 -10.89398,127.22345 -7.88828,22.63333 -39.72428,59.93676 -39.72428,59.93676 0,0 148.46536,18.4073 223.05553,17.93086 41.44426,-0.26472 83.62895,-1.34063 123.79812,-11.54522 11.38619,-2.89255 25.05712,-4.70106 32.39848,-13.87257 15.53075,-19.40245 22.29482,-50.0101 13.62708,-73.30237 C 910.18837,562.18627 844.02097,536.01219 792.7471,507.0503 725.6712,469.16268 642.94604,465.00591 575.95552,426.96753 527.30807,399.34466 471.72315,370.9065 445.34992,321.5704 c -13.47067,-25.19943 -12.62602,-57.22754 -7.70614,-85.37474 4.99557,-28.58025 14.85223,-59.88007 36.76698,-78.89402 55.30559,-47.98493 137.81929,-74.843754 210.19903,-63.778722 76.60601,11.711122 159.73508,60.493192 192.14379,130.887132 36.99565,80.35708 -10.24492,177.36151 -29.10317,263.79243 -9.55154,43.77653 -35.50711,83.30999 -42.25348,127.60562 -6.82783,44.8305 2.37774,136.02163 2.37774,136.02163 l -153.38826,5.42091 c 0,0 15.63285,-38.67903 23.35726,-58.05539 20.51586,-51.46316 42.88209,-102.24835 61.0582,-154.58367 24.52317,-70.61073 86.28953,-143.18725 64.63023,-214.7284 -20.24992,-66.88593 -91.76463,-135.13637 -161.63022,-133.52811 -45.55632,1.04868 -97.76392,46.39222 -101.27404,91.82522 -2.40486,31.1271 33.62135,54.49879 58.89827,72.82247 56.4039,40.88816 131.77873,45.79865 195.31786,74.36473 62.03884,27.89158 130.6462,48.59637 180.88559,94.45226 31.97974,29.18943 65.32764,66.18511 70.35654,109.1902 11.7185,100.21383 -26.4183,217.2574 -100.82297,285.40489 C 868.1975,994.90793 746.30129,1002.6915 641.93214,1002.4393 460.6932,1002.0013 245.1296,991.60634 116.02708,864.40459 22.423597,772.17923 16.908057,615.87111 10.303317,484.63275 3.713727,353.69553 77.210547,97.05665 77.210547,97.05665 Z"
   sodipodi:nodetypes="caaaacaccsaaaaccaaaaacaaaaaaaaaaaaaccaaaaaaaaaaaaacc" /></svg>
