<?xml version="1.0" encoding="UTF-8" standalone="no"?>
<svg
   xmlns:dc="http://purl.org/dc/elements/1.1/"
   xmlns:cc="http://creativecommons.org/ns#"
   xmlns:rdf="http://www.w3.org/1999/02/22-rdf-syntax-ns#"
   xmlns:svg="http://www.w3.org/2000/svg"
   xmlns="http://www.w3.org/2000/svg"
   xmlns:sodipodi="http://sodipodi.sourceforge.net/DTD/sodipodi-0.dtd"
   xmlns:inkscape="http://www.inkscape.org/namespaces/inkscape"
   xml:space="preserve"
   width="1000"
   height="1000"
   version="1.1"
   style="clip-rule:evenodd;fill-rule:evenodd;image-rendering:optimizeQuality;shape-rendering:geometricPrecision;text-rendering:geometricPrecision"
   viewBox="0 0 1000 1000"
   id="svg10"
   sodipodi:docname="ഷ്ര.svg"
   inkscape:version="1.0.1 (3bc2e813f5, 2020-09-07)"><metadata
   id="metadata14"><rdf:RDF><cc:Work
       rdf:about=""><dc:format>image/svg+xml</dc:format><dc:type
         rdf:resource="http://purl.org/dc/dcmitype/StillImage" /><dc:title /></cc:Work></rdf:RDF></metadata><sodipodi:namedview
   pagecolor="#ffffff"
   bordercolor="#666666"
   borderopacity="1"
   objecttolerance="10"
   gridtolerance="10"
   guidetolerance="10"
   inkscape:pageopacity="0"
   inkscape:pageshadow="2"
   inkscape:window-width="1920"
   inkscape:window-height="1015"
   id="namedview12"
   showgrid="false"
   inkscape:zoom="0.678"
   inkscape:cx="693.84266"
   inkscape:cy="650.81487"
   inkscape:window-x="1920"
   inkscape:window-y="0"
   inkscape:window-maximized="1"
   inkscape:current-layer="svg10"
   showguides="true"
   inkscape:guide-bbox="true"
   inkscape:document-rotation="0"
   inkscape:snap-to-guides="true"><sodipodi:guide
     position="0,1000"
     orientation="0,1"
     id="guide16"
     inkscape:label=""
     inkscape:locked="true"
     inkscape:color="rgb(0,0,255)" /><sodipodi:guide
     position="1763.3122,2036.1693"
     orientation="1000,0"
     id="guide18" /><sodipodi:guide
     position="0,200"
     orientation="0,1"
     id="guide20"
     inkscape:label="base"
     inkscape:locked="true"
     inkscape:color="rgb(0,0,255)" /><inkscape:grid
     type="xygrid"
     id="grid24"
     originx="-473.37552"
     originy="-489.69235" /><sodipodi:guide
     position="0,0"
     orientation="0,1"
     id="guide34"
     inkscape:label="bottom"
     inkscape:locked="true"
     inkscape:color="rgb(0,0,255)" /><sodipodi:guide
     position="225.05109,1693.3186"
     orientation="0,1"
     id="guide44"
     inkscape:label=""
     inkscape:locked="false"
     inkscape:color="rgb(0,0,255)" /><sodipodi:guide
     position="0,900"
     orientation="0,1"
     id="guide46"
     inkscape:label=""
     inkscape:locked="true"
     inkscape:color="rgb(0,0,255)" /><sodipodi:guide
     position="1123.8852,302.6322"
     orientation="-1,0"
     id="guide841"
     inkscape:label="width"
     inkscape:locked="false"
     inkscape:color="rgb(0,0,255)" /><sodipodi:guide
     position="0,1000"
     orientation="0,1000"
     id="guide860" /><sodipodi:guide
     position="1000,1000"
     orientation="1000,0"
     id="guide862" /><sodipodi:guide
     position="1000,0"
     orientation="0,-1000"
     id="guide864" /><sodipodi:guide
     position="0,0"
     orientation="-1000,0"
     id="guide866" /></sodipodi:namedview>
 <defs
   id="defs4"><inkscape:path-effect
   effect="spiro"
   id="path-effect859"
   is_visible="true"
   lpeversion="1" /><inkscape:path-effect
   effect="spiro"
   id="path-effect862"
   is_visible="true"
   lpeversion="1" /><inkscape:path-effect
   effect="spiro"
   id="path-effect1521"
   is_visible="true"
   lpeversion="1" /><inkscape:path-effect
   effect="spiro"
   id="path-effect858"
   is_visible="true"
   lpeversion="1" /><inkscape:path-effect
   effect="spiro"
   id="path-effect854"
   is_visible="true"
   lpeversion="1" />
  <style
   type="text/css"
   id="style2">
   <![CDATA[
    .fil0 {fill:#EF7F1A;fill-rule:nonzero}
   ]]>
  </style>
 <inkscape:path-effect
   effect="spiro"
   id="path-effect1214"
   is_visible="true"
   lpeversion="1" /><inkscape:path-effect
   effect="spiro"
   id="path-effect1195"
   is_visible="true"
   lpeversion="1" /><inkscape:path-effect
   effect="spiro"
   id="path-effect992"
   is_visible="true"
   lpeversion="1" /><inkscape:path-effect
   effect="spiro"
   id="path-effect287"
   is_visible="true"
   lpeversion="1" /><inkscape:path-effect
   effect="spiro"
   id="path-effect1032"
   is_visible="true"
   lpeversion="1" /><inkscape:path-effect
   effect="spiro"
   id="path-effect1218"
   is_visible="true"
   lpeversion="1" /><inkscape:path-effect
   effect="spiro"
   id="path-effect309"
   is_visible="true"
   lpeversion="1" /><inkscape:path-effect
   effect="spiro"
   id="path-effect1176"
   is_visible="true"
   lpeversion="1" /><inkscape:path-effect
   effect="spiro"
   id="path-effect1026"
   is_visible="true"
   lpeversion="1" /><inkscape:path-effect
   effect="spiro"
   id="path-effect1247"
   is_visible="true"
   lpeversion="1" /></defs>
 
<path
   style="display:inline;fill:#1a1a1a;fill-rule:nonzero;stroke:none;stroke-width:1.97338px;stroke-linecap:butt;stroke-linejoin:miter;stroke-opacity:1"
   d="m 982.04029,804.59511 c -52.98985,-3.8528 -106.06443,-6.54017 -159.17243,-8.05953 -101.99709,-2.91802 -204.11741,-1.52587 -305.99705,4.17148 l -7.63116,-126.11395 c 20.4778,-5.20999 38.68902,-18.80416 49.50662,-36.95529 8.31079,-13.94489 12.27636,-30.3741 11.65135,-46.59565 -0.625,-16.22155 -5.78871,-32.19239 -14.43164,-45.9339 -12.61727,-20.06037 -32.65353,-35.22475 -55.2227,-42.45291 -22.56918,-7.22817 -47.49174,-6.57098 -69.84231,1.30723 -22.29922,7.86012 -42.01086,22.83898 -55.64829,42.15368 -13.63742,19.31469 -21.15184,42.86681 -21.33225,66.51008 -0.17862,23.40896 6.66414,46.47798 16.96093,67.50148 10.29679,21.02349 23.98164,40.1937 38.1903,58.79815 16.19033,21.19919 33.14981,41.81095 50.83388,61.78108 l -131.22821,80.67682 c 1.67349,-37.27686 -2.61478,-74.8151 -12.65226,-110.75413 -15.94216,-57.08061 -46.14229,-109.78235 -58.07067,-167.83459 -4.38118,-21.32201 -6.23065,-43.26702 -4.06053,-64.92605 2.17012,-21.65903 8.43988,-43.04538 19.53637,-61.77212 19.26376,-32.51006 52.3364,-55.44013 88.2313,-67.25338 35.8949,-11.81325 74.52207,-13.24844 112.13977,-9.65606 35.35442,3.37624 70.68452,11.24708 102.28056,27.4651 31.59605,16.21802 59.3429,41.28499 74.77997,73.26984 10.61932,22.00272 15.1708,46.74033 14.27733,71.15531 -0.89348,24.41498 -7.13898,48.50371 -17.12295,70.80192 -9.83909,21.97462 -23.3193,42.31382 -39.72428,59.93676 74.97404,0.92498 149.92224,3.94387 224.72779,9.05196 40.77326,2.7842 82.2186,6.14395 122.12586,-2.66632 11.58315,-2.55719 23.26829,-6.29971 32.39848,-13.87257 10.18321,-8.44626 16.33553,-21.16131 18.21823,-34.25682 1.8827,-13.09552 -0.2602,-26.54437 -4.5912,-39.04555 -9.97456,-28.79098 -31.25039,-52.67327 -56.10578,-70.29774 -24.85539,-17.62447 -53.27223,-29.52238 -81.87344,-40.02873 -78.23474,-28.7387 -159.8037,-48.1539 -236.79158,-80.08277 -58.49304,-24.25858 -116.32793,-57.78356 -150.21175,-111.27937 -15.89668,-25.09769 -26.004,-54.87973 -22.82161,-84.41735 2.05117,-19.03814 9.57334,-37.30742 20.56219,-52.98873 10.98885,-15.6813 25.36949,-28.83262 41.32679,-39.4167 28.47667,-18.88785 61.75463,-29.61197 95.45891,-35.24165 33.70428,-5.62967 68.01788,-6.35989 102.18811,-6.61924 52.29461,-0.39692 105.60667,0.43891 155.21805,16.97961 24.80569,8.27034 48.46292,20.4977 68.41458,37.39894 19.95166,16.90125 36.10679,38.59947 44.89549,63.22628 14.51915,40.68411 8.09482,86.18926 -6.41543,126.87654 -14.51025,40.68728 -36.65879,78.15745 -54.47543,117.50932 -22.50454,49.7061 -38.11605,102.64815 -44.69849,156.81292 -5.48817,45.16033 -4.68545,91.0807 2.37774,136.02163 l -153.38826,5.42091 c 8.46155,-19.07068 16.2537,-38.43836 23.35726,-58.05539 26.89657,-74.27693 43.97988,-152.24916 77.45559,-223.8024 13.39884,-28.63958 29.38482,-56.15633 40.1205,-85.89687 10.73568,-29.74054 15.98209,-62.65132 7.11786,-93.00227 -5.72798,-19.61251 -17.19971,-37.35823 -31.964,-51.48183 -14.7643,-14.1236 -32.74549,-24.69269 -51.89288,-31.82274 -38.29479,-14.26012 -80.40287,-14.7619 -121.03268,-10.3961 -20.38708,2.19065 -41.12686,5.72145 -59.02728,15.7218 -8.95021,5.00018 -17.0789,11.61029 -23.24179,19.80338 -6.1629,8.19309 -10.30409,18.0092 -11.17483,28.22437 -0.86469,10.1442 1.51191,20.43904 6.06875,29.5433 4.55684,9.10427 11.23375,17.05306 18.92874,23.71936 15.38998,13.33259 34.49566,21.45698 53.27431,29.32919 70.46364,29.53912 141.17654,58.49394 212.36801,86.23305 63.71885,24.82747 129.30527,49.55271 180.88555,94.45226 33.1813,28.88359 59.9327,66.45145 70.3565,109.1902 12.9739,53.19424 -0.01,109.02737 -15.4284,161.5647 -12.4954,42.57266 -27.2313,85.79586 -55.7547,119.78089 -37.3312,44.47932 -94.55093,68.14617 -151.81833,77.76235 -57.26741,9.6162 -115.7718,6.7655 -173.83877,7.269 -94.27589,0.8174 -188.72375,10.5461 -282.66001,2.5094 -93.93627,-8.0368 -189.82016,-35.92364 -259.06874,-99.90212 -43.8047,-40.47099 -74.76973,-93.51573 -94.757701,-149.705 C 63.116179,705.75031 53.666232,646.31572 48.528415,586.89892 34.394655,423.44766 52.516413,257.27011 101.54792,100.70706 H 234.3724 c -40.76577,83.0367 -70.4465,171.50697 -88.00806,262.32841 -18.17643,94.0013 -23.21233,192.08904 0.26883,284.90748 23.48115,92.81843 77.74922,180.16009 159.0721,230.68944 86.48303,53.73557 193.46328,61.43135 295.24018,58.55239 87.17612,-2.46595 174.1056,-11.59032 260.18064,-25.62042 20.89787,-3.40632 41.93972,-7.15575 61.52887,-15.19252 19.58914,-8.03676 37.84959,-20.77092 48.98091,-38.78252 9.67111,-15.64882 13.44099,-34.85047 10.40442,-52.99421 z"
   id="path1216-0"
   inkscape:path-effect="#path-effect1247"
   inkscape:original-d="m 982.04029,804.59511 c -6.08224,-58.69176 -106.09254,-7.4296 -159.17243,-8.05953 -102.00134,-1.21051 -305.99705,4.17148 -305.99705,4.17148 l -7.63116,-126.11395 c 0,0 40.55389,-18.41034 49.50662,-36.95529 13.41509,-27.78842 15.68447,-67.80682 -2.78029,-92.52955 -26.26149,-35.1619 -83.38295,-54.87997 -125.06501,-41.14568 -42.15976,13.89169 -72.44637,64.50648 -76.98054,108.66376 -4.69241,45.6984 31.13562,87.13827 55.15123,126.29963 13.94175,22.7343 -0.0387,23.86546 50.83388,61.78108 l -131.22821,80.67682 c 11.90393,-32.1326 -4.41909,-74.51957 -12.65226,-110.75413 -13.11678,-57.72752 -51.82024,-108.96652 -58.07067,-167.83459 -4.49222,-42.30879 -10.70837,-93.16309 15.47584,-126.69817 44.02833,-56.38871 129.03278,-82.29735 200.37107,-76.90944 67.71065,5.11393 143.51252,41.69753 177.06053,100.73494 23.38288,41.14894 11.26167,96.78003 -2.84562,141.95723 -7.14435,22.87905 -39.72428,59.93676 -39.72428,59.93676 0,0 149.76097,8.36117 224.72779,9.05196 40.71659,0.37519 82.32943,5.94912 122.12586,-2.66632 11.48188,-2.48568 25.05712,-4.70106 32.39848,-13.87257 15.53073,-19.40245 22.29483,-50.0101 13.62703,-73.30237 C 980.63315,565.83668 914.86234,538.94897 863.19188,510.70071 790.0819,470.73145 700.23507,469.23191 626.4003,430.61794 571.18224,401.7401 511.30209,370.81675 476.18855,319.33857 c -16.42557,-24.0807 -27.55346,-55.65472 -22.82161,-84.41735 6.01796,-36.5803 31.18131,-71.6359 61.88898,-92.40543 55.78253,-37.72924 130.65354,-48.72092 197.64702,-41.86089 97.20911,9.95405 225.41776,29.9111 268.52812,117.60483 37.03764,75.34076 -39.23263,163.27521 -60.89086,244.38586 -14.02211,52.51315 -37.64708,102.91925 -44.69849,156.81292 -5.88309,44.96423 2.37774,136.02163 2.37774,136.02163 l -153.38826,5.42091 c 0,0 16.05108,-38.51748 23.35726,-58.05539 27.65031,-73.94144 54.45316,-148.28575 77.45559,-223.8024 17.9716,-59.00053 73.61249,-123.1457 47.23836,-178.89914 -32.11391,-67.88701 -130.06035,-100.06778 -204.88956,-93.70067 -37.57036,3.1968 -89.42543,26.25816 -93.4439,63.74955 -4.04228,37.71358 46.94535,61.2071 78.2718,82.59185 63.10177,43.07592 143.0315,54.1423 212.36801,86.23305 61.72937,28.56997 130.6462,48.59637 180.88555,94.45226 31.9798,29.18943 60.1236,67.11867 70.3565,109.1902 12.7858,52.56732 -1.2369,109.35933 -15.4284,161.5647 -11.5526,42.4982 -21.9371,91.56865 -55.7547,119.78089 -86.14932,71.86985 -213.54963,80.68365 -325.6571,85.03135 -183.33346,7.1099 -399.62603,18.6613 -541.72875,-97.39272 C 87.616393,837.94195 64.232747,702.35321 48.528415,586.89892 26.55579,425.36171 101.54792,100.70706 101.54792,100.70706 H 234.3724 c -16.70839,94.91465 -86.90326,170.10246 -88.00806,262.32841 -2.15475,179.87277 25.70614,395.17848 159.34093,515.59692 74.53395,67.16262 195.02959,53.65694 295.24018,58.55239 87.04255,4.25217 176.33838,-1.85149 260.18064,-25.62042 39.44123,-11.18142 85.53172,-21.46763 110.50978,-53.97504 10.96836,-14.27466 11.81319,-52.99363 10.40442,-52.99421 z"
   sodipodi:nodetypes="csccaaaaaccaaaaaacaaaaaaaaaaaaaccaaaaaaaaaaaaaaccaaaaac" /></svg>
