<?xml version="1.0" encoding="UTF-8" standalone="no"?>
<svg
   xmlns:dc="http://purl.org/dc/elements/1.1/"
   xmlns:cc="http://creativecommons.org/ns#"
   xmlns:rdf="http://www.w3.org/1999/02/22-rdf-syntax-ns#"
   xmlns:svg="http://www.w3.org/2000/svg"
   xmlns="http://www.w3.org/2000/svg"
   xmlns:sodipodi="http://sodipodi.sourceforge.net/DTD/sodipodi-0.dtd"
   xmlns:inkscape="http://www.inkscape.org/namespaces/inkscape"
   xml:space="preserve"
   width="1000"
   height="1000"
   version="1.1"
   style="clip-rule:evenodd;fill-rule:evenodd;image-rendering:optimizeQuality;shape-rendering:geometricPrecision;text-rendering:geometricPrecision"
   viewBox="0 0 1000 1000"
   id="svg10"
   sodipodi:docname="സൃ.svg"
   inkscape:version="1.0.1 (3bc2e813f5, 2020-09-07)"><metadata
   id="metadata14"><rdf:RDF><cc:Work
       rdf:about=""><dc:format>image/svg+xml</dc:format><dc:type
         rdf:resource="http://purl.org/dc/dcmitype/StillImage" /><dc:title /></cc:Work></rdf:RDF></metadata><sodipodi:namedview
   pagecolor="#ffffff"
   bordercolor="#666666"
   borderopacity="1"
   objecttolerance="10"
   gridtolerance="10"
   guidetolerance="10"
   inkscape:pageopacity="0"
   inkscape:pageshadow="2"
   inkscape:window-width="1920"
   inkscape:window-height="1015"
   id="namedview12"
   showgrid="false"
   inkscape:zoom="0.84890884"
   inkscape:cx="602.53422"
   inkscape:cy="583.05411"
   inkscape:window-x="1920"
   inkscape:window-y="0"
   inkscape:window-maximized="1"
   inkscape:current-layer="g913"
   showguides="true"
   inkscape:guide-bbox="true"
   inkscape:document-rotation="0"><sodipodi:guide
     position="0,1000"
     orientation="0,1"
     id="guide16"
     inkscape:label=""
     inkscape:locked="true"
     inkscape:color="rgb(0,0,255)" /><sodipodi:guide
     position="1763.3122,2036.1693"
     orientation="1000,0"
     id="guide18" /><sodipodi:guide
     position="0,200"
     orientation="0,1"
     id="guide20"
     inkscape:label="base"
     inkscape:locked="true"
     inkscape:color="rgb(0,0,255)" /><inkscape:grid
     type="xygrid"
     id="grid24"
     originx="-473.37552"
     originy="-489.69235" /><sodipodi:guide
     position="0,0"
     orientation="0,1"
     id="guide34"
     inkscape:label="bottom"
     inkscape:locked="true"
     inkscape:color="rgb(0,0,255)" /><sodipodi:guide
     position="225.05109,1693.3186"
     orientation="0,1"
     id="guide44"
     inkscape:label=""
     inkscape:locked="false"
     inkscape:color="rgb(0,0,255)" /><sodipodi:guide
     position="0,900"
     orientation="0,1"
     id="guide46"
     inkscape:label=""
     inkscape:locked="true"
     inkscape:color="rgb(0,0,255)" /><sodipodi:guide
     position="904.93235,126.24968"
     orientation="-1,0"
     id="guide841"
     inkscape:label="width"
     inkscape:locked="false"
     inkscape:color="rgb(0,0,255)" /></sodipodi:namedview>
 <defs
   id="defs4"><inkscape:path-effect
   effect="spiro"
   id="path-effect855"
   is_visible="true"
   lpeversion="1" /><inkscape:path-effect
   effect="spiro"
   id="path-effect867"
   is_visible="true"
   lpeversion="1" />
  <style
   type="text/css"
   id="style2">
   <![CDATA[
    .fil0 {fill:#EF7F1A;fill-rule:nonzero}
   ]]>
  </style>
 <inkscape:path-effect
   effect="spiro"
   id="path-effect1214"
   is_visible="true"
   lpeversion="1" /><inkscape:path-effect
   effect="spiro"
   id="path-effect1195"
   is_visible="true"
   lpeversion="1" /><inkscape:path-effect
   effect="spiro"
   id="path-effect992"
   is_visible="true"
   lpeversion="1" /><inkscape:path-effect
   effect="spiro"
   id="path-effect1078"
   is_visible="true"
   lpeversion="1" /><inkscape:path-effect
   effect="spiro"
   id="path-effect858"
   is_visible="true"
   lpeversion="1" /><inkscape:path-effect
   effect="spiro"
   id="path-effect854"
   is_visible="true"
   lpeversion="1" /><style
   type="text/css"
   id="style2-3">
   <![CDATA[
    .fil0 {fill:#EF7F1A;fill-rule:nonzero}
   ]]>
  </style><inkscape:path-effect
   effect="spiro"
   id="path-effect287"
   is_visible="true"
   lpeversion="1" /><inkscape:path-effect
   effect="spiro"
   id="path-effect1032"
   is_visible="true"
   lpeversion="1" /><inkscape:path-effect
   effect="spiro"
   id="path-effect1218"
   is_visible="true"
   lpeversion="1" /><inkscape:path-effect
   effect="spiro"
   id="path-effect309"
   is_visible="true"
   lpeversion="1" /><inkscape:path-effect
   effect="spiro"
   id="path-effect1525"
   is_visible="true"
   lpeversion="1" /><inkscape:path-effect
   effect="spiro"
   id="path-effect1343"
   is_visible="true"
   lpeversion="1" /><inkscape:path-effect
   effect="spiro"
   id="path-effect861"
   is_visible="true"
   lpeversion="1" /><style
   type="text/css"
   id="style2-2">
   <![CDATA[
    .fil0 {fill:#EF7F1A;fill-rule:nonzero}
   ]]>
  </style><style
   type="text/css"
   id="style2-0">
   <![CDATA[
    .fil0 {fill:#EF7F1A;fill-rule:nonzero}
   ]]>
  </style><style
   type="text/css"
   id="style2-02">
   <![CDATA[
    .fil0 {fill:#EF7F1A;fill-rule:nonzero}
   ]]>
  </style></defs>
 
<g
   style="clip-rule:evenodd;fill-rule:evenodd;image-rendering:optimizeQuality;shape-rendering:geometricPrecision;text-rendering:geometricPrecision"
   id="g883"
   transform="translate(241.32914,-63.1412)"><g
     style="clip-rule:evenodd;fill-rule:evenodd;image-rendering:optimizeQuality;shape-rendering:geometricPrecision;text-rendering:geometricPrecision"
     id="g878"
     transform="translate(-251.55574,62.449147)"><g
       style="clip-rule:evenodd;fill-rule:evenodd;image-rendering:optimizeQuality;shape-rendering:geometricPrecision;text-rendering:geometricPrecision"
       id="g880"
       transform="translate(27.045173,0.17151238)" /><g
       style="clip-rule:evenodd;fill-rule:evenodd;image-rendering:optimizeQuality;shape-rendering:geometricPrecision;text-rendering:geometricPrecision"
       id="g913"
       transform="translate(315.52572,-96.903451)"><path
         style="display:inline;fill:#1a1a1a;fill-rule:nonzero;stroke:none;stroke-width:1.80255px;stroke-linecap:butt;stroke-linejoin:miter;stroke-opacity:1"
         d="m 575.63364,819.34513 c -15.11687,62.97949 -40.17375,124.2354 -79.18733,175.93527 -60.66523,80.3921 -153.97907,134.1919 -253.17738,151.5947 -53.67742,9.4168 -111.11152,8.165 -159.933358,-16.05 C 58.92465,1118.7175 37.129698,1100.9196 21.755428,1078.4225 6.3811576,1055.9255 -2.3508956,1028.6542 -1.2450551,1001.4281 -0.43863631,981.57382 5.5402428,962.03359 15.376007,944.768 25.211772,927.50241 38.848592,912.49749 54.678542,900.48685 86.338443,876.46556 126.15781,864.77875 165.82471,862.348 223.25322,858.82884 281.5645,874.20229 330.23375,904.88978 368.0109,928.70946 400.02708,961.597 422.824,1000 l -69.91358,63.1412 c -19.12707,-33.9955 -44.80997,-64.28679 -75.21945,-88.71635 -32.30621,-25.95331 -70.61423,-45.47213 -111.67116,-51.09299 -15.31033,-2.09605 -31.31064,-2.17959 -45.7477,3.33139 -7.21854,2.7555 -13.95186,6.91014 -19.32701,12.4606 -5.375151,5.55047 -9.354449,12.52502 -10.952075,20.08462 -1.333067,6.30777 -0.995302,12.92696 0.696639,19.14807 1.691941,6.22112 4.716773,12.04755 8.602806,17.19184 7.77207,10.28862 18.81153,17.71062 30.48713,23.18242 25.85618,12.1175 55.3185,15.3069 83.71099,12.2667 28.3925,-3.0401 55.85708,-12.0715 82.05328,-23.4353 55.00396,-23.86042 105.97187,-58.86918 143.04412,-105.99034 25.10992,-31.91629 43.53647,-69.066 53.7523,-108.36988 -8.17483,28.39148 -25.82031,53.96795 -49.45981,71.69018 -23.6395,17.72224 -53.13756,27.48867 -82.68229,27.37506 -42.19834,-0.16227 -83.33674,-20.67151 -110.97561,-52.55912 -27.63886,-31.88761 -41.9967,-74.3577 -42.17986,-116.55596 -0.23262,-53.59518 21.63368,-105.8238 54.66299,-148.03236 12.33102,-15.75797 26.20303,-30.29804 37.9097,-46.52523 11.70668,-16.22718 21.33705,-34.58624 23.63545,-54.46299 2.12192,-18.35055 -2.32323,-37.41109 -12.44205,-52.86601 -10.11881,-15.45493 -25.85108,-27.16972 -43.59068,-32.32257 -23.72161,-6.89046 -49.94862,-1.88045 -71.35621,10.44466 -21.40759,12.32512 -38.31521,31.43455 -51.14103,52.54596 -28.71181,47.2599 -37.81896,105.05494 -30.32415,159.84266 4.83238,35.32514 16.31674,69.72885 33.67274,100.87346 L -6.683427,716.04934 C 17.457191,667.0643 31.344686,613.05547 33.827453,558.50147 35.557236,520.49284 31.687519,481.80773 18.173246,446.24071 4.6589733,410.67369 -19.007168,378.33075 -51.313097,358.23161 c -22.468998,-13.97909 -49.673743,-21.80775 -75.698093,-17.01149 -22.46401,4.14009 -42.732,17.55731 -56.92006,35.45901 -14.18807,17.9017 -22.51292,40.04491 -25.66849,62.66822 -6.31114,45.24664 7.37575,90.79619 23.65349,133.48253 24.09926,63.19729 54.58154,124.57096 96.900353,177.3326 31.027739,38.68431 68.225189,72.40945 109.75541,99.50995 l -160.276153,73.34153 c -3.06713,-19.26671 -6.95243,-38.40316 -11.64191,-57.34048 -22.72744,-91.77914 -63.98096,-177.69924 -98.1632,-265.85548 -23.08515,-59.53676 -43.22606,-121.52802 -43.87609,-185.38041 -0.32502,-31.9262 4.32985,-64.07249 15.57452,-93.95468 11.24467,-29.88218 29.2223,-57.4542 53.35223,-78.36195 21.60613,-18.72096 47.93774,-31.87691 75.80176,-38.27188 27.86403,-6.39497 57.207852,-6.05127 85.003203,0.63588 40.137422,9.65647 76.928933,32.71368 103.119359,64.62484 26.190426,31.91115 41.629399,72.49302 43.272401,113.743 6.97886,-15.32463 15.570647,-29.91413 25.587577,-43.44963 20.69857,-27.9692 47.75974,-51.50631 79.2682,-66.26855 31.50847,-14.76224 67.51268,-20.48491 101.7357,-14.20064 36.91097,6.77785 71.0315,27.65883 93.95633,57.37097 22.92484,29.71214 34.46395,67.96791 31.90907,105.40895 -2.25596,33.06041 -15.03154,64.67311 -31.87113,93.2127 -16.8396,28.53959 -37.7335,54.43096 -57.86566,80.7516 -16.2957,21.30487 -32.36068,43.3702 -41.2943,68.66126 -4.46681,12.64553 -7.07944,26.02474 -6.80782,39.43325 0.27163,13.4085 3.49328,26.85159 10.1042,38.52025 10.08602,17.8024 27.83453,30.73196 47.4635,36.50751 19.62896,5.77554 40.954,4.67903 60.47841,-1.44067 26.41404,-8.27918 49.49401,-25.44175 67.60545,-46.37549 18.11145,-20.93375 31.5224,-45.55727 42.43893,-70.99495 25.67735,-59.83333 38.14526,-126.08357 30.08982,-190.69366 -6.55985,-52.61446 -26.55031,-103.09141 -54.68953,-148.03023 -16.47332,-26.30818 -35.7495,-50.86006 -57.39695,-73.10592 l 116.59294,-88.49993 c 25.00297,113.03296 42.0285,227.82976 50.90805,343.25399 8.13384,105.73088 9.29563,213.31704 -15.45478,316.43152 z"
         id="path979-0-6-9"
         inkscape:path-effect="#path-effect1343"
         inkscape:original-d="m 575.63364,819.34513 c -15.02872,62.53096 -36.43868,127.88804 -79.18733,175.93527 -65.38382,73.488 -154.81323,151.4523 -253.17738,151.5947 -94.83421,0.1373 -256.488955,-51.3718 -244.5139851,-145.447 C 7.7641749,930.65173 77.924275,869.00105 165.82471,862.348 219.70767,858.26968 287.94213,893.74279 330.23375,904.88978 373.01797,916.1666 422.824,1000 422.824,1000 l -69.91358,63.1412 c 0,0 -44.31532,-65.30466 -75.21945,-88.71635 -32.62911,-24.71846 -70.73705,-51.33476 -111.67116,-51.09299 -28.02173,0.16551 -68.543435,8.87209 -76.026785,35.87661 -6.37318,22.99837 18.372085,48.98853 39.786575,59.52233 49.6933,24.4443 113.7891,7.9502 165.76427,-11.1686 55.69559,-20.48736 104.96006,-60.47842 143.04412,-105.99034 25.8771,-30.92414 49.90708,-53.9647 53.7523,-108.36988 -41.38767,52.6041 -73.24387,101.82205 -132.1421,99.06524 -75.96981,-3.55587 -138.71064,-94.44646 -153.15547,-169.11508 -9.99053,-51.64336 31.75844,-100.68019 54.66299,-148.03236 17.16569,-35.48783 62.22474,-61.57267 61.54515,-100.98822 -0.58592,-33.98312 -23.16098,-76.54891 -56.03273,-85.18858 -44.40647,-11.67134 -95.0161,26.20827 -122.49724,62.99062 -32.45883,43.44479 -33.97377,105.73438 -30.32415,159.84266 2.38559,35.36805 33.67274,100.87346 33.67274,100.87346 l -154.752907,3.39962 c 0,0 44.58196,-103.47662 40.51088,-157.54787 -5.44611,-72.33409 -29.42386,-153.82062 -85.14055,-200.26986 -19.86447,-16.56038 -53.653953,-30.53552 -75.698093,-17.01149 -67.90319,41.65844 -68.90383,152.57247 -58.93506,231.60976 8.42919,66.83069 55.21814,124.41771 96.900353,177.3326 30.55826,38.79321 109.75541,99.50995 109.75541,99.50995 l -160.276153,73.34153 c 0,0 -6.30813,-38.58053 -11.64191,-57.34048 -25.83456,-90.86518 -84.80392,-172.33845 -98.1632,-265.85548 -16.90294,-118.32316 -52.44187,-266.69712 25.05066,-357.69704 35.69128,-41.91247 108.66863,-55.30875 160.804963,-37.636 72.84544,24.69257 146.39176,178.36784 146.39176,178.36784 0,0 13.04534,-32.26023 25.587577,-43.44963 49.27067,-43.95618 116.98163,-96.62139 181.0039,-80.46919 66.5046,16.77846 119.63366,94.47514 125.8654,162.77992 5.92828,64.9786 -66.45176,113.0121 -89.73679,173.9643 -18.01687,47.16197 -62.27084,102.34644 -37.99792,146.61476 18.18884,33.17233 71.30269,44.49049 107.94191,35.06684 51.93954,-13.35891 86.48335,-69.19312 110.04438,-117.37044 28.27105,-57.8083 36.43075,-126.65582 30.08982,-190.69366 -5.18335,-52.34723 -29.02138,-102.11459 -54.68953,-148.03023 -15.11783,-27.04307 -57.39695,-73.10592 -57.39695,-73.10592 l 116.59294,-88.49993 c 0,0 45.2174,227.72454 50.90805,343.25399 5.19541,105.47503 9.22314,213.75254 -15.45478,316.43152 z"
         sodipodi:nodetypes="aaasssccaaaaaacaaaaaaaccaaaaaccaaaacaaaaaaaaaccaa" /></g></g></g></svg>
