<?xml version="1.0" encoding="UTF-8" standalone="no"?>
<svg
   xmlns:dc="http://purl.org/dc/elements/1.1/"
   xmlns:cc="http://creativecommons.org/ns#"
   xmlns:rdf="http://www.w3.org/1999/02/22-rdf-syntax-ns#"
   xmlns:svg="http://www.w3.org/2000/svg"
   xmlns="http://www.w3.org/2000/svg"
   xmlns:sodipodi="http://sodipodi.sourceforge.net/DTD/sodipodi-0.dtd"
   xmlns:inkscape="http://www.inkscape.org/namespaces/inkscape"
   xml:space="preserve"
   width="1000"
   height="1000"
   version="1.1"
   style="clip-rule:evenodd;fill-rule:evenodd;image-rendering:optimizeQuality;shape-rendering:geometricPrecision;text-rendering:geometricPrecision"
   viewBox="0 0 1000 1000"
   id="svg10"
   sodipodi:docname="സ്ത്ര.svg"
   inkscape:version="1.0.2 (e86c870879, 2021-01-15)"><metadata
   id="metadata14"><rdf:RDF><cc:Work
       rdf:about=""><dc:format>image/svg+xml</dc:format><dc:type
         rdf:resource="http://purl.org/dc/dcmitype/StillImage" /><dc:title /></cc:Work></rdf:RDF></metadata><sodipodi:namedview
   pagecolor="#ffffff"
   bordercolor="#666666"
   borderopacity="1"
   objecttolerance="10"
   gridtolerance="10"
   guidetolerance="10"
   inkscape:pageopacity="0"
   inkscape:pageshadow="2"
   inkscape:window-width="1920"
   inkscape:window-height="1007"
   id="namedview12"
   showgrid="false"
   inkscape:zoom="0.6002692"
   inkscape:cx="854.93047"
   inkscape:cy="613.37477"
   inkscape:window-x="1920"
   inkscape:window-y="0"
   inkscape:window-maximized="1"
   inkscape:current-layer="g875"
   showguides="true"
   inkscape:guide-bbox="true"
   inkscape:document-rotation="0"><sodipodi:guide
     position="1763.3122,2036.1693"
     orientation="1000,0"
     id="guide18" /><sodipodi:guide
     position="0,200"
     orientation="0,1"
     id="guide20"
     inkscape:label="base"
     inkscape:locked="true"
     inkscape:color="rgb(0,0,255)" /><inkscape:grid
     type="xygrid"
     id="grid24"
     originx="-473.37552"
     originy="-489.69235" /><sodipodi:guide
     position="0,0"
     orientation="0,1"
     id="guide34"
     inkscape:label="bottom"
     inkscape:locked="true"
     inkscape:color="rgb(0,0,255)" /><sodipodi:guide
     position="225.05109,1693.3186"
     orientation="0,1"
     id="guide44"
     inkscape:label=""
     inkscape:locked="false"
     inkscape:color="rgb(0,0,255)" /><sodipodi:guide
     position="0,900"
     orientation="0,1"
     id="guide46"
     inkscape:label=""
     inkscape:locked="true"
     inkscape:color="rgb(0,0,255)" /><sodipodi:guide
     position="1061.6335,280.67511"
     orientation="-1,0"
     id="guide841"
     inkscape:label="width"
     inkscape:locked="false"
     inkscape:color="rgb(0,0,255)" /></sodipodi:namedview>
 <defs
   id="defs4"><inkscape:path-effect
   effect="fillet_chamfer"
   id="path-effect858"
   is_visible="true"
   lpeversion="1"
   satellites_param="F,0,0,1,0,0,0,1 @ F,0,0,1,0,0,0,1 @ F,0,0,1,0,0,0,1 @ F,0,0,1,0,0,0,1 @ F,0,0,1,0,0,0,1 @ F,0,0,1,0,0,0,1 @ F,0,0,1,0,0,0,1 @ F,0,0,1,0,0,0,1 @ F,0,0,1,0,0,0,1 @ F,0,1,1,0,27.102997,0,1 @ F,0,1,1,0,27.102997,0,1 @ F,0,0,1,0,0,0,1 @ F,0,0,1,0,0,0,1 @ F,0,0,1,0,0,0,1 @ F,0,0,1,0,0,0,1 @ F,0,0,1,0,0,0,1 @ F,0,0,1,0,0,0,1 @ F,0,0,1,0,0,0,1 @ F,0,0,1,0,0,0,1 @ F,0,0,1,0,0,0,1 @ F,0,0,1,0,0,0,1 @ F,0,0,1,0,0,0,1 @ F,0,0,1,0,0,0,1 @ F,0,0,1,0,0,0,1 @ F,0,0,1,0,0,0,1 @ F,0,0,1,0,0,0,1 @ F,0,0,1,0,0,0,1 @ F,0,0,1,0,0,0,1 @ F,0,0,1,0,0,0,1 @ F,0,0,1,0,0,0,1 @ F,0,0,1,0,0,0,1 @ F,0,0,1,0,0,0,1 @ F,0,0,1,0,0,0,1 @ F,0,0,1,0,0,0,1 @ F,0,0,1,0,0,0,1 @ F,0,0,1,0,0,0,1 @ F,0,0,1,0,0,0,1"
   unit="px"
   method="auto"
   mode="F"
   radius="0"
   chamfer_steps="1"
   flexible="false"
   use_knot_distance="true"
   apply_no_radius="true"
   apply_with_radius="true"
   only_selected="true"
   hide_knots="false" /><inkscape:path-effect
   effect="fillet_chamfer"
   id="path-effect856"
   is_visible="true"
   lpeversion="1"
   satellites_param="F,0,1,1,0,38.45676,0,1 @ F,0,0,1,0,0,0,1 @ F,0,0,1,0,0,0,1 @ F,0,0,1,0,0,0,1 @ F,0,0,1,0,0,0,1 @ F,0,0,1,0,0,0,1 @ F,0,0,1,0,0,0,1 @ F,0,0,1,0,0,0,1 @ F,0,0,1,0,0,0,1 @ F,0,0,1,0,0,0,1 @ F,0,0,1,0,0,0,1 @ F,0,0,1,0,0,0,1 @ F,0,0,1,0,0,0,1 @ F,0,0,1,0,0,0,1 @ F,0,0,1,0,0,0,1 @ F,0,0,1,0,0,0,1 @ F,0,0,1,0,0,0,1 @ F,0,0,1,0,0,0,1 @ F,0,0,1,0,0,0,1 @ F,0,0,1,0,0,0,1 @ F,0,0,1,0,0,0,1 @ F,0,0,1,0,0,0,1 @ F,0,0,1,0,0,0,1 @ F,0,0,1,0,0,0,1 @ F,0,1,1,0,38.45676,0,1 @ F,0,1,1,0,38.45676,0,1 @ F,0,0,1,0,0,0,1 @ F,0,0,1,0,0,0,1 @ F,0,0,1,0,0,0,1 @ F,0,0,1,0,0,0,1 @ F,0,0,1,0,0,0,1 @ F,0,0,1,0,0,0,1 @ F,0,0,1,0,0,0,1 @ F,0,0,1,0,0,0,1 @ F,0,0,1,0,0,0,1 @ F,0,0,1,0,0,0,1 @ F,0,0,1,0,0,0,1 @ F,0,0,1,0,0,0,1 @ F,0,0,1,0,0,0,1 @ F,0,0,1,0,0,0,1 @ F,0,0,1,0,0,0,1 @ F,0,0,1,0,0,0,1 @ F,0,0,1,0,0,0,1 @ F,0,1,1,0,38.45676,0,1 @ F,0,1,1,0,38.45676,0,1 @ F,0,0,1,0,0,0,1 @ F,0,0,1,0,0,0,1 @ F,0,0,1,0,0,0,1 @ F,0,0,1,0,0,0,1 @ F,0,0,1,0,0,0,1 @ F,0,0,1,0,0,0,1 @ F,0,0,1,0,0,0,1 @ F,0,0,1,0,0,0,1 @ F,0,1,1,0,38.45676,0,1"
   unit="px"
   method="auto"
   mode="F"
   radius="0"
   chamfer_steps="1"
   flexible="false"
   use_knot_distance="true"
   apply_no_radius="true"
   apply_with_radius="true"
   only_selected="true"
   hide_knots="false" /><inkscape:path-effect
   effect="fillet_chamfer"
   id="path-effect855"
   is_visible="true"
   lpeversion="1"
   satellites_param="F,0,0,1,0,0,0,1 @ F,0,0,1,0,0,0,1 @ F,0,0,1,0,0,0,1 @ F,0,0,1,0,0,0,1 @ F,0,0,1,0,0,0,1 @ F,0,0,1,0,0,0,1 @ F,0,0,1,0,0,0,1 @ F,0,0,1,0,0,0,1 @ F,0,0,1,0,0,0,1 @ F,0,0,1,0,29.505914,0,1 @ F,0,0,1,0,36.402125,0,1 @ F,0,0,1,0,0,0,1 @ F,0,0,1,0,0,0,1 @ F,0,0,1,0,0,0,1 @ F,0,0,1,0,0,0,1 @ F,0,0,1,0,0,0,1 @ F,0,0,1,0,0,0,1 @ F,0,0,1,0,0,0,1 @ F,0,0,1,0,0,0,1 @ F,0,0,1,0,0,0,1 @ F,0,0,1,0,0,0,1 @ F,0,0,1,0,0,0,1 @ F,0,0,1,0,0,0,1 @ F,0,0,1,0,0,0,1 @ F,0,0,1,0,0,0,1 @ F,0,0,1,0,0,0,1 @ F,0,0,1,0,0,0,1 @ F,0,0,1,0,0,0,1 @ F,0,0,1,0,0,0,1 @ F,0,0,1,0,0,0,1 @ F,0,0,1,0,0,0,1 @ F,0,0,1,0,0,0,1 @ F,0,0,1,0,0,0,1 @ F,0,0,1,0,0,0,1 @ F,0,0,1,0,0,0,1 @ F,0,0,1,0,0,0,1"
   unit="px"
   method="auto"
   mode="F"
   radius="0"
   chamfer_steps="1"
   flexible="false"
   use_knot_distance="true"
   apply_no_radius="true"
   apply_with_radius="true"
   only_selected="true"
   hide_knots="false" /><inkscape:path-effect
   effect="fillet_chamfer"
   id="path-effect853"
   is_visible="true"
   lpeversion="1"
   satellites_param="F,0,0,1,0,22.134406,0,1 @ F,0,0,1,0,0,0,1 @ F,0,0,1,0,0,0,1 @ F,0,0,1,0,0,0,1 @ F,0,0,1,0,0,0,1 @ F,0,0,1,0,0,0,1 @ F,0,0,1,0,0,0,1 @ F,0,0,1,0,0,0,1 @ F,0,0,1,0,0,0,1 @ F,0,0,1,0,0,0,1 @ F,0,0,1,0,0,0,1 @ F,0,0,1,0,0,0,1 @ F,0,0,1,0,0,0,1 @ F,0,0,1,0,0,0,1 @ F,0,0,1,0,0,0,1 @ F,0,0,1,0,0,0,1 @ F,0,0,1,0,0,0,1 @ F,0,0,1,0,0,0,1 @ F,0,0,1,0,0,0,1 @ F,0,0,1,0,0,0,1 @ F,0,0,1,0,0,0,1 @ F,0,0,1,0,0,0,1 @ F,0,0,1,0,0,0,1 @ F,0,0,1,0,0,0,1 @ F,0,0,1,0,0,0,1 @ F,0,0,1,0,0,0,1 @ F,0,0,1,0,29.064726,0,1 @ F,0,0,1,0,35.282313,0,1 @ F,0,0,1,0,0,0,1 @ F,0,0,1,0,0,0,1 @ F,0,0,1,0,0,0,1 @ F,0,0,1,0,0,0,1 @ F,0,0,1,0,0,0,1 @ F,0,0,1,0,0,0,1 @ F,0,0,1,0,0,0,1 @ F,0,0,1,0,0,0,1 @ F,0,0,1,0,0,0,1 @ F,0,0,1,0,0,0,1 @ F,0,0,1,0,0,0,1 @ F,0,0,1,0,0,0,1 @ F,0,0,1,0,0,0,1 @ F,0,0,1,0,0,0,1 @ F,0,0,1,0,0,0,1 @ F,0,0,1,0,0,0,1 @ F,0,0,1,0,32.166004,0,1 @ F,0,0,1,0,31.149749,0,1 @ F,0,0,1,0,0,0,1 @ F,0,0,1,0,0,0,1 @ F,0,0,1,0,0,0,1 @ F,0,0,1,0,0,0,1 @ F,0,0,1,0,0,0,1 @ F,0,0,1,0,0,0,1 @ F,0,0,1,0,0,0,1 @ F,0,0,1,0,0,0,1 @ F,0,0,1,0,42.349056,0,1"
   unit="px"
   method="auto"
   mode="F"
   radius="0"
   chamfer_steps="1"
   flexible="false"
   use_knot_distance="true"
   apply_no_radius="true"
   apply_with_radius="true"
   only_selected="true"
   hide_knots="false" /><inkscape:path-effect
   effect="spiro"
   id="path-effect859"
   is_visible="true"
   lpeversion="1" /><inkscape:path-effect
   effect="spiro"
   id="path-effect867"
   is_visible="true"
   lpeversion="1" />
  <style
   type="text/css"
   id="style2">
   <![CDATA[
    .fil0 {fill:#EF7F1A;fill-rule:nonzero}
   ]]>
  </style>
 <inkscape:path-effect
   effect="spiro"
   id="path-effect1214"
   is_visible="true"
   lpeversion="1" /><inkscape:path-effect
   effect="spiro"
   id="path-effect1195"
   is_visible="true"
   lpeversion="1" /><inkscape:path-effect
   effect="spiro"
   id="path-effect992"
   is_visible="true"
   lpeversion="1" /><inkscape:path-effect
   effect="spiro"
   id="path-effect1078"
   is_visible="true"
   lpeversion="1" /><inkscape:path-effect
   effect="spiro"
   id="path-effect851"
   is_visible="true"
   lpeversion="1" /><style
   type="text/css"
   id="style2-0">
   <![CDATA[
    .fil0 {fill:#EF7F1A;fill-rule:nonzero}
   ]]>
  </style><inkscape:path-effect
   effect="spiro"
   id="path-effect1060"
   is_visible="true"
   lpeversion="1" /><inkscape:path-effect
   effect="spiro"
   id="path-effect1047"
   is_visible="true"
   lpeversion="1" /><inkscape:path-effect
   effect="spiro"
   id="path-effect1085"
   is_visible="true"
   lpeversion="1" /><inkscape:path-effect
   effect="spiro"
   id="path-effect1286"
   is_visible="true"
   lpeversion="1" /><inkscape:path-effect
   effect="spiro"
   id="path-effect1305"
   is_visible="true"
   lpeversion="1" /></defs>
 
<g
   style="clip-rule:evenodd;fill-rule:evenodd;image-rendering:optimizeQuality;shape-rendering:geometricPrecision;text-rendering:geometricPrecision"
   id="g875"><path
     id="path1210-6-3"
     style="clip-rule:evenodd;display:inline;fill:#1a1a1a;fill-rule:nonzero;stroke:none;stroke-width:1.99396px;stroke-linecap:butt;stroke-linejoin:miter;stroke-opacity:1;image-rendering:optimizeQuality;shape-rendering:geometricPrecision;text-rendering:geometricPrecision"
     d="m 1030.8768,890.81579 c 4.3474,29.35619 3.0858,59.78174 -5.8977,88.06569 -8.9835,28.28392 -25.93584,54.32822 -49.58656,72.25382 -19.99458,15.1545 -44.1288,24.1544 -68.73342,29.0591 -24.60462,4.9047 -49.81064,5.8887 -74.8961,6.2923 -60.14012,0.9675 -120.32151,-1.3197 -180.25256,-6.4225 -86.0227,-7.3244 -172.36354,-20.667 -252.80019,-52.0278 C 218.00692,957.58351 77.899324,793.92444 30.81496,605.77457 3.976468,498.52753 5.7481876,386.23598 14.029231,275.99235 17.772074,226.16474 22.809835,176.43441 29.135402,126.86843 31.030303,112.02034 44.827112,100 59.795684,100 H 162.03293 c 14.96857,0 21.69669,10.86875 15.56995,24.52515 -32.41514,72.25282 -53.54217,149.56527 -62.31032,228.27163 -8.08934,72.61311 -5.68168,146.44514 7.89735,218.23449 21.17232,111.93344 71.53472,220.93872 156.13413,297.22963 85.58836,77.18273 200.87386,116.02426 315.80501,124.59 61.83961,4.60887 124.0105,1.04006 185.95878,3.83113 20.33032,0.91598 40.66399,2.51727 61.0054,1.89447 20.34141,-0.6228 40.84725,-3.54086 59.65262,-11.32025 19.75165,-8.17084 37.43454,-21.87874 48.91053,-39.91183 11.476,-18.03308 16.41,-40.4591 11.98297,-61.37063 -4.54121,-21.45087 -18.7935,-40.38759 -37.47217,-51.87105 -18.67867,-11.48346 -41.45868,-15.67782 -63.21901,-12.9851 -16.95917,2.0986 -33.52028,8.34307 -47.04069,18.79372 -13.52041,10.45065 -23.86972,25.19245 -28.14179,41.73835 -2.96519,11.48428 -2.99136,23.69313 -0.24911,35.23267 2.74226,11.53955 8.23319,22.39581 15.76548,31.55799 15.06459,18.32437 38.21293,29.40384 61.88173,30.98883 24.42408,1.63557 48.97515,-6.45779 69.14437,-20.32911 18.82126,-12.94426 34.1545,-30.9103 43.98023,-51.53186 L 990.26684,1000 c -31.45452,35.486 -79.05773,56.0606 -126.4568,54.656 -28.8061,-0.8537 -57.3641,-9.5532 -81.65967,-25.053 -24.29558,-15.4999 -44.24749,-37.77314 -56.83295,-63.69854 -16.44559,-33.87709 -19.99954,-73.51485 -11.57329,-110.21789 7.87016,-34.2808 26.17854,-66.29109 52.62697,-89.47714 26.44843,-23.18606 61.03477,-37.23295 96.20355,-37.75173 42.56018,-0.62781 84.34977,18.63144 114.13986,49.03396 29.79009,30.40253 47.92689,71.21852 54.16229,113.32413 z"
     sodipodi:nodetypes="aaaaaaaccaaaaaaaaaaaccaaaaa"
     inkscape:path-effect="#path-effect859;#path-effect858"
     inkscape:original-d="m 1030.8768,890.81579 c 13.1724,54.99417 -13.704,122.21071 -55.48426,160.31951 -36.42798,33.2268 -94.58476,30.2889 -143.62952,35.3514 -59.80455,6.1732 -120.55754,0.7327 -180.25256,-6.4225 -85.42138,-10.2389 -178.50675,-8.6443 -252.80019,-52.0278 C 237.50135,933.8987 100.71378,778.87678 30.81496,605.77457 -10.398103,503.71172 11.013888,386.02075 14.029231,275.99235 15.645337,217.02143 32.692687,100 32.692687,100 H 189.13593 c -26.02088,30.91764 -62.98448,165.68394 -73.84337,252.79678 -9.00412,72.23341 -10.81098,147.88722 7.89735,218.23449 28.763,108.155 72.8462,222.47714 156.13413,297.22963 84.2182,75.58742 204.8558,102.30913 315.80501,124.59 60.78582,12.207 123.98487,5.6091 185.95878,3.83113 40.32528,-1.1569 86.34424,11.78817 120.65802,-9.42578 33.50654,-20.71489 69.8215,-62.91469 60.8935,-101.28246 -9.0483,-38.88471 -60.82328,-66.96396 -100.69118,-64.85615 -32.1292,1.69866 -71.59674,28.55844 -75.18248,60.53207 -4.6327,41.30932 37.78137,85.19234 77.3981,97.77949 22.89578,7.27452 48.98555,-7.26169 69.14437,-20.32911 18.94967,-12.28361 43.98023,-51.53186 43.98023,-51.53186 L 990.26684,1000 c 0,0 -80.68631,58.3703 -126.4568,54.656 -54.65043,-4.4349 -109.705,-42.0867 -138.49262,-88.75154 -19.39539,-31.44006 -25.25616,-75.90408 -11.57329,-110.21789 24.17448,-60.62458 83.59328,-129.19038 148.83052,-127.22887 77.91475,2.34269 150.14485,86.55236 168.30215,162.35809 z" /><path
     style="clip-rule:evenodd;display:inline;fill:#1a1a1a;fill-rule:evenodd;stroke:none;stroke-width:1.92017px;stroke-linecap:butt;stroke-linejoin:miter;stroke-opacity:1;image-rendering:optimizeQuality;shape-rendering:geometricPrecision;text-rendering:geometricPrecision"
     d="m 289.30789,784.20972 c -1.41846,-6.5383 -2.93207,-13.05596 -4.54025,-19.5502 -22.72744,-91.77914 -63.98096,-177.69924 -98.1632,-265.85548 -23.08515,-59.53676 -43.22606,-121.52802 -43.87609,-185.38041 -0.32502,-31.9262 4.32985,-64.07249 15.57452,-93.95468 11.24467,-29.88218 29.2223,-57.4542 53.35223,-78.36195 21.60613,-18.72096 47.93774,-31.87691 75.80176,-38.27188 27.86402,-6.39497 57.20785,-6.051268 85.0032,0.63588 40.13742,9.65647 76.92893,32.71368 103.11936,64.62484 26.19043,31.91115 41.6294,72.49302 43.2724,113.743 6.95794,-15.33504 15.55139,-29.92737 25.58758,-43.44963 20.71777,-27.91409 47.84554,-51.3218 79.34791,-66.01954 31.50236,-14.69775 67.41415,-20.44291 101.65599,-14.44965 37.14718,6.50178 71.74072,27.02412 94.9202,56.77136 23.17948,29.74723 34.63484,68.4776 30.94523,106.00856 -4.27303,43.46547 -27.52405,82.52564 -51.5102,119.02455 -23.98615,36.49891 -49.77583,73.16675 -60.29508,115.55603 -4.17025,16.8048 -5.8105,34.52093 -2.16104,51.44646 3.64947,16.92553 12.99641,33.02153 27.42778,42.58854 12.02479,7.97161 26.91648,11.00596 41.31232,10.05629 14.39584,-0.94968 28.3451,-5.68834 41.22717,-12.18407 42.39817,-21.3791 73.07773,-61.13116 93.58413,-103.95823 25.90997,-54.11229 37.63435,-115.34778 30.75629,-174.94777 -6.08123,-52.6953 -26.42663,-103.14168 -54.68957,-148.03023 -9.70699,-15.41711 -20.35545,-30.24106 -31.86213,-44.36582 -13.41038,-16.4616 -11.82044,-39.14998 5.09705,-51.99121 l 55.32923,-41.997709 c 16.91749,-12.841234 36.04169,-6.904443 42.41396,13.356015 11.02268,35.046304 21.37626,70.303054 31.05306,105.744594 19.8875,72.83874 37.0022,147.10954 38.7168,222.59502 1.7145,75.48547 -12.8341,152.86118 -52.4171,217.15882 -21.42481,34.80198 -50.14758,65.4394 -84.97977,86.81505 -34.8322,21.37566 -75.89349,33.19728 -116.70133,30.97909 -36.01591,-1.95771 -71.56383,-15.03081 -99.37532,-37.99817 -27.81148,-22.96736 -47.53933,-55.88633 -53.29066,-91.49392 -4.25952,-26.37151 -0.95223,-53.63574 7.20278,-79.07382 8.15501,-25.43808 21.04125,-49.15871 35.94356,-71.32899 12.96792,-19.29248 27.5301,-37.56608 38.92338,-57.82836 11.39327,-20.26228 19.60697,-43.08603 18.39263,-66.30008 -0.84653,-16.18265 -6.4001,-32.16617 -16.19907,-45.07256 -9.79898,-12.90639 -23.86374,-22.62128 -39.54408,-26.71052 -11.62091,-3.03059 -23.96476,-2.98307 -35.69262,-0.3971 -11.72787,2.58597 -22.84499,7.67022 -32.79388,14.39702 -19.89777,13.45358 -34.85633,33.16146 -46.47994,54.18078 -26.6824,48.25059 -37.15708,105.13086 -30.32415,159.84266 2.83315,22.68527 8.57952,45.00072 17.00716,66.25151 7.82312,19.72649 -0.54794,35.0001 -21.7819,35.46657 l -77.85795,1.71038 c -21.23396,0.46647 -30.64606,-14.55916 -23.15668,-34.425 14.74141,-39.10211 23.32013,-80.53055 25.22008,-122.27825 1.72978,-38.00863 -2.13994,-76.69373 -15.65421,-112.26075 -13.51428,-35.56702 -37.18041,-67.90996 -69.48634,-88.0091 -22.469,-13.97909 -49.67374,-21.80775 -75.69809,-17.0115 -22.46401,4.14009 -42.732,17.5573 -56.92007,35.45901 -14.18806,17.9017 -22.51292,40.04491 -25.66849,62.66823 -6.31113,45.24663 7.37575,90.79619 23.6535,133.48253 24.09927,63.19729 54.58154,124.57096 96.90035,177.3326 23.00703,28.68437 49.4063,54.64209 78.4489,77.19416 16.77065,13.02269 15.65015,29.48006 -3.66295,38.31763 l -90.33723,41.33784 c -19.3131,8.83757 -37.56869,-1.03489 -42.07112,-21.78844 z"
     id="path1087-2"
     inkscape:path-effect="#path-effect1078;#path-effect856"
     inkscape:original-d="m 296.40955,822 c 0,0 -6.30813,-38.58053 -11.64191,-57.34048 C 258.93308,673.79434 199.96373,592.32107 186.60444,498.80404 169.7015,380.48088 134.16257,232.10692 211.6551,141.107 247.34638,99.194529 320.32374,85.798246 372.46006,103.471 c 72.84545,24.69257 146.39176,178.36784 146.39176,178.36784 0,0 13.04534,-32.26023 25.58758,-43.44963 49.27067,-43.95618 116.98163,-96.62138 181.0039,-80.46919 66.5046,16.77846 118.55981,94.58163 125.86543,162.77992 9.22631,86.12804 -103.92192,148.31926 -111.80528,234.58058 -2.95389,32.32209 -0.74219,74.61906 25.26674,94.035 22.05473,16.46408 57.54358,9.39097 82.53949,-2.12778 42.34541,-19.51382 73.15784,-62.04536 93.58413,-103.95823 25.93966,-53.22581 36.0742,-115.97683 30.75629,-174.94777 -4.72451,-52.39064 -29.02142,-102.11458 -54.68957,-148.03023 -15.11783,-27.04305 -57.3969,-73.10592 -57.3969,-73.10592 L 976.1565,58.64566 c 0,0 36.3833,93.22125 42.8352,142.35172 19.0951,145.4073 61.2803,313.71493 -13.7003,439.75384 -39.80422,66.90901 -124.12472,124.5912 -201.6811,117.79414 -66.47442,-5.82583 -133.32978,-65.62582 -152.66598,-129.49209 -15.11343,-49.91868 24.96961,-101.51624 43.14634,-150.40281 15.88277,-42.71694 62.49336,-78.84937 57.31601,-124.12844 -3.44161,-30.09892 -25.97971,-66.13262 -55.74315,-71.78308 -43.77262,-8.31005 -89.38811,31.69991 -114.96644,68.1807 -31.13368,44.40405 -33.97377,105.73438 -30.32415,159.84266 2.38559,35.36805 33.67274,100.87346 33.67274,100.87346 l -154.75291,3.39962 c 0,0 44.58196,-103.47662 40.51088,-157.54787 -5.44611,-72.33409 -29.42387,-153.82061 -85.14055,-200.26985 -19.86447,-16.56038 -53.65394,-30.53553 -75.69809,-17.0115 -67.90319,41.65844 -68.90383,152.57248 -58.93506,231.60977 8.42919,66.83069 55.21814,124.41771 96.90035,177.3326 30.55826,38.79321 109.75541,99.50995 109.75541,99.50995 z"
     sodipodi:nodetypes="caaaacaaaaaaaaaccaaaaaaaaaccaaaaacc" /></g></svg>
