<?xml version="1.0" encoding="UTF-8" standalone="no"?>
<svg
   xmlns:dc="http://purl.org/dc/elements/1.1/"
   xmlns:cc="http://creativecommons.org/ns#"
   xmlns:rdf="http://www.w3.org/1999/02/22-rdf-syntax-ns#"
   xmlns:svg="http://www.w3.org/2000/svg"
   xmlns="http://www.w3.org/2000/svg"
   xmlns:sodipodi="http://sodipodi.sourceforge.net/DTD/sodipodi-0.dtd"
   xmlns:inkscape="http://www.inkscape.org/namespaces/inkscape"
   xml:space="preserve"
   width="1000"
   height="1000"
   version="1.1"
   style="clip-rule:evenodd;fill-rule:evenodd;image-rendering:optimizeQuality;shape-rendering:geometricPrecision;text-rendering:geometricPrecision"
   viewBox="0 0 1000 1000"
   id="svg10"
   sodipodi:docname="സ്പ.svg"
   inkscape:version="1.0.1 (3bc2e813f5, 2020-09-07)"><metadata
   id="metadata14"><rdf:RDF><cc:Work
       rdf:about=""><dc:format>image/svg+xml</dc:format><dc:type
         rdf:resource="http://purl.org/dc/dcmitype/StillImage" /><dc:title /></cc:Work></rdf:RDF></metadata><sodipodi:namedview
   pagecolor="#ffffff"
   bordercolor="#666666"
   borderopacity="1"
   objecttolerance="10"
   gridtolerance="10"
   guidetolerance="10"
   inkscape:pageopacity="0"
   inkscape:pageshadow="2"
   inkscape:window-width="1920"
   inkscape:window-height="1015"
   id="namedview12"
   showgrid="false"
   inkscape:zoom="1.0323759"
   inkscape:cx="322.17647"
   inkscape:cy="742.41674"
   inkscape:window-x="1920"
   inkscape:window-y="0"
   inkscape:window-maximized="1"
   inkscape:current-layer="svg10"
   showguides="true"
   inkscape:guide-bbox="true"
   inkscape:document-rotation="0"><sodipodi:guide
     position="0,1000"
     orientation="0,1"
     id="guide16"
     inkscape:label=""
     inkscape:locked="true"
     inkscape:color="rgb(0,0,255)" /><sodipodi:guide
     position="1763.3122,2036.1693"
     orientation="1000,0"
     id="guide18" /><sodipodi:guide
     position="0,200"
     orientation="0,1"
     id="guide20"
     inkscape:label="base"
     inkscape:locked="true"
     inkscape:color="rgb(0,0,255)" /><inkscape:grid
     type="xygrid"
     id="grid24"
     originx="-473.37552"
     originy="-489.69235" /><sodipodi:guide
     position="0,0"
     orientation="0,1"
     id="guide34"
     inkscape:label="bottom"
     inkscape:locked="true"
     inkscape:color="rgb(0,0,255)" /><sodipodi:guide
     position="225.05109,1693.3186"
     orientation="0,1"
     id="guide44"
     inkscape:label=""
     inkscape:locked="false"
     inkscape:color="rgb(0,0,255)" /><sodipodi:guide
     position="0,900"
     orientation="0,1"
     id="guide46"
     inkscape:label=""
     inkscape:locked="true"
     inkscape:color="rgb(0,0,255)" /><sodipodi:guide
     position="898.18032,376.13759"
     orientation="-1,0"
     id="guide841"
     inkscape:label="width"
     inkscape:locked="false"
     inkscape:color="rgb(0,0,255)" /></sodipodi:namedview>
 <defs
   id="defs4"><inkscape:path-effect
   effect="spiro"
   id="path-effect861"
   is_visible="true"
   lpeversion="1" /><inkscape:path-effect
   effect="spiro"
   id="path-effect867"
   is_visible="true"
   lpeversion="1" />
  <style
   type="text/css"
   id="style2">
   <![CDATA[
    .fil0 {fill:#EF7F1A;fill-rule:nonzero}
   ]]>
  </style>
 <inkscape:path-effect
   effect="spiro"
   id="path-effect1214"
   is_visible="true"
   lpeversion="1" /><inkscape:path-effect
   effect="spiro"
   id="path-effect1195"
   is_visible="true"
   lpeversion="1" /><inkscape:path-effect
   effect="spiro"
   id="path-effect992"
   is_visible="true"
   lpeversion="1" /><inkscape:path-effect
   effect="spiro"
   id="path-effect1078"
   is_visible="true"
   lpeversion="1" /><inkscape:path-effect
   effect="spiro"
   id="path-effect858"
   is_visible="true"
   lpeversion="1" /></defs>
 
<path
   id="use1061"
   style="clip-rule:evenodd;display:inline;fill:#1a1a1a;fill-rule:nonzero;stroke:none;stroke-width:1.41601px;stroke-linecap:butt;stroke-linejoin:miter;stroke-opacity:1;image-rendering:optimizeQuality;shape-rendering:geometricPrecision;text-rendering:geometricPrecision"
   d="m 312.68785,1074.7107 c 2.81187,-28.9629 -1.8656,-58.3749 -11.38285,-85.8736 -7.87404,-22.75087 -18.99222,-44.26281 -27.0848,-66.93687 -8.09259,-22.67405 -13.12324,-47.26504 -8.21303,-70.83393 3.39898,-16.31504 11.52548,-31.52237 22.67391,-43.90971 11.14844,-12.38734 25.25574,-21.98677 40.59981,-28.49009 26.76753,-11.34496 57.13986,-13.19741 85.56704,-7.10608 28.42718,6.09133 54.926,19.88772 77.54167,38.15628 31.82261,25.70578 56.54222,61.18215 65.34876,101.131 6.50776,29.52093 4.14188,60.93887 -6.71347,89.1523 18.2624,0.964 36.49395,2.5123 54.65739,4.6416 32.66645,3.8296 65.47433,9.5498 98.244,6.7372 16.38484,-1.4064 32.68453,-4.9867 47.66799,-11.76437 14.98347,-6.77763 28.6311,-16.84347 38.55912,-29.95358 10.1714,-13.43151 16.19156,-29.70537 18.94629,-46.32687 2.75472,-16.6215 2.35675,-33.63147 0.5945,-50.38728 -7.72435,-73.44452 -41.32719,-143.59811 -39.36488,-217.42163 0.47121,-17.72703 3.01835,-35.39801 7.57277,-52.53647 h 121.32414 c -9.70759,13.35325 -17.95611,27.76646 -24.55158,42.90074 -18.06105,41.44372 -23.39848,87.60106 -21.08532,132.75007 2.31316,45.14901 12.01478,89.58426 23.01527,133.43369 5.34115,21.29052 11.02805,42.70727 11.87439,64.64122 0.84634,21.93394 -3.58171,44.79478 -16.72887,62.37218 -11.03366,14.7517 -27.50579,24.8037 -44.99011,30.6049 -17.48431,5.8012 -36.03759,7.6289 -54.44746,8.2865 -75.66096,2.7025 -150.85082,-13.6944 -226.56001,-13.7451 -29.55456,-0.02 -59.11038,2.4599 -88.2485,7.4038 L 444.78003,971.0185 c 4.90514,3.63577 10.75469,5.98582 16.81182,6.75414 6.05713,0.76833 12.30818,-0.0468 17.96573,-2.34274 9.31702,-3.781 16.78459,-11.51901 21.03691,-20.63057 4.25233,-9.11157 5.41508,-19.49917 4.17199,-29.47703 -1.49585,-12.00672 -6.40404,-23.49627 -13.58325,-33.23577 -7.1792,-9.7395 -16.58414,-17.75282 -27.05598,-23.81413 -15.68934,-9.08131 -34.02318,-13.82126 -52.10129,-12.47671 -18.0781,1.34455 -35.79465,8.94088 -48.55113,21.82101 -15.5262,15.67669 -22.91305,38.2779 -22.75712,60.34139 0.15592,22.06348 7.3209,43.63068 17.60064,63.15371 13.91194,26.4212 33.6723,49.7427 57.45058,67.8042 l -109.97045,39.9569 c 3.45242,-11.113 5.76489,-22.5798 6.88937,-34.1622 z M 148.91391,825.939 C 145.84678,806.67229 141.96148,787.53584 137.272,768.59852 114.54456,676.81938 73.29104,590.89928 39.108795,502.74304 16.023641,443.20628 -4.1172676,381.21502 -4.7672966,317.36263 -5.0923112,285.43643 -0.43744637,253.29014 10.807228,223.40795 22.051903,193.52577 40.029526,165.95375 64.159459,145.046 85.765592,126.32504 112.0972,113.16909 139.96122,106.77412 c 27.86402,-6.39497 57.20785,-6.05127 85.0032,0.63588 40.13742,9.65647 76.92893,32.71368 103.11936,64.62484 26.19043,31.91115 41.6294,72.49302 43.2724,113.743 6.97886,-15.32463 15.57065,-29.91413 25.58758,-43.44963 20.69857,-27.9692 47.75974,-51.50631 79.2682,-66.26855 31.50847,-14.76224 67.51268,-20.48491 101.7357,-14.20064 36.91097,6.77785 71.0315,27.65883 93.95633,57.37097 22.92484,29.71214 34.46395,67.96791 31.90907,105.40895 -2.25596,33.06041 -15.03154,64.67311 -31.87113,93.2127 -16.8396,28.53959 -37.7335,54.43096 -57.86566,80.7516 -16.2957,21.30487 -32.36068,43.3702 -41.2943,68.66126 -4.46681,12.64553 -7.07944,26.02474 -6.80782,39.43325 0.27163,13.4085 3.49328,26.85159 10.1042,38.52025 10.08602,17.8024 27.83453,30.73196 47.4635,36.50751 19.62896,5.77554 40.954,4.67903 60.47841,-1.44067 26.41404,-8.27918 49.49401,-25.44175 67.60545,-46.37549 18.11145,-20.93375 31.5224,-45.55727 42.43893,-70.99495 25.67735,-59.83333 38.14526,-126.08357 30.08982,-190.69366 -6.55985,-52.61446 -26.55031,-103.09141 -54.68953,-148.03023 -16.47332,-26.30818 -35.7495,-50.86006 -57.39695,-73.10592 L 828.66092,62.584655 c 16.71411,46.671705 31.01784,94.206515 42.83513,142.351725 18.09914,73.73827 30.39093,149.33248 29.41451,225.25322 -0.97641,75.92074 -15.58373,152.37883 -49.11482,220.50062 -19.46905,39.55333 -45.62955,76.48739 -80.40064,103.5887 -34.77109,27.10131 -78.72357,43.76715 -122.71636,40.91334 -41.69016,-2.70444 -81.67714,-23.16122 -109.36075,-54.45022 -27.68361,-31.28899 -43.04268,-72.89384 -43.79472,-114.66486 -0.96573,-53.63979 21.46654,-105.8879 54.66299,-148.03236 12.38313,-15.72097 26.26349,-30.25673 37.96259,-46.49316 11.6991,-16.23643 21.30195,-34.61317 23.58256,-54.49506 2.10486,-18.34976 -2.34244,-37.40347 -12.45768,-52.85747 -10.11523,-15.45399 -25.83971,-27.17342 -43.57505,-32.33111 -23.72056,-6.89828 -49.95093,-1.88942 -71.35894,10.43732 -21.40801,12.32674 -38.31379,31.43972 -51.1383,52.5533 -28.70733,47.26218 -37.81748,105.05512 -30.32415,159.84266 4.83147,35.32533 16.3159,69.72925 33.67274,100.87346 l -154.75291,3.39962 c 24.14062,-48.98504 38.02811,-102.99387 40.51088,-157.54787 1.72978,-38.00863 -2.13993,-76.69374 -15.65421,-112.26076 -13.51427,-35.56702 -37.18041,-67.90996 -69.48634,-88.0091 -22.469,-13.97909 -49.67374,-21.80775 -75.69809,-17.01149 -22.46401,4.14009 -42.732,17.55731 -56.92006,35.45901 -14.188067,17.9017 -22.512923,40.04491 -25.668492,62.66822 -6.311137,45.24664 7.375748,90.79619 23.653492,133.48253 24.09926,63.19729 54.58153,124.57096 96.90035,177.3326 31.02774,38.68431 68.22519,72.40945 109.75541,99.50995 z" /></svg>
