<?xml version="1.0" encoding="UTF-8" standalone="no"?>
<svg
   xmlns:dc="http://purl.org/dc/elements/1.1/"
   xmlns:cc="http://creativecommons.org/ns#"
   xmlns:rdf="http://www.w3.org/1999/02/22-rdf-syntax-ns#"
   xmlns:svg="http://www.w3.org/2000/svg"
   xmlns="http://www.w3.org/2000/svg"
   xmlns:sodipodi="http://sodipodi.sourceforge.net/DTD/sodipodi-0.dtd"
   xmlns:inkscape="http://www.inkscape.org/namespaces/inkscape"
   xml:space="preserve"
   width="1000"
   height="1000"
   version="1.1"
   style="clip-rule:evenodd;fill-rule:evenodd;image-rendering:optimizeQuality;shape-rendering:geometricPrecision;text-rendering:geometricPrecision"
   viewBox="0 0 1000 1000"
   id="svg10"
   sodipodi:docname="സ്സ.svg"
   inkscape:version="1.0.1 (3bc2e813f5, 2020-09-07)"><metadata
   id="metadata14"><rdf:RDF><cc:Work
       rdf:about=""><dc:format>image/svg+xml</dc:format><dc:type
         rdf:resource="http://purl.org/dc/dcmitype/StillImage" /><dc:title /></cc:Work></rdf:RDF></metadata><sodipodi:namedview
   pagecolor="#ffffff"
   bordercolor="#666666"
   borderopacity="1"
   objecttolerance="10"
   gridtolerance="10"
   guidetolerance="10"
   inkscape:pageopacity="0"
   inkscape:pageshadow="2"
   inkscape:window-width="1920"
   inkscape:window-height="1015"
   id="namedview12"
   showgrid="false"
   inkscape:zoom="0.73"
   inkscape:cx="582.68796"
   inkscape:cy="607.08512"
   inkscape:window-x="1920"
   inkscape:window-y="0"
   inkscape:window-maximized="1"
   inkscape:current-layer="svg10"
   showguides="true"
   inkscape:guide-bbox="true"
   inkscape:document-rotation="0"><sodipodi:guide
     position="0,1000"
     orientation="0,1"
     id="guide16"
     inkscape:label=""
     inkscape:locked="true"
     inkscape:color="rgb(0,0,255)" /><sodipodi:guide
     position="1763.3122,2036.1693"
     orientation="1000,0"
     id="guide18" /><sodipodi:guide
     position="0,200"
     orientation="0,1"
     id="guide20"
     inkscape:label="base"
     inkscape:locked="true"
     inkscape:color="rgb(0,0,255)" /><inkscape:grid
     type="xygrid"
     id="grid24"
     originx="-473.37552"
     originy="-489.69235" /><sodipodi:guide
     position="0,0"
     orientation="0,1"
     id="guide34"
     inkscape:label="bottom"
     inkscape:locked="true"
     inkscape:color="rgb(0,0,255)" /><sodipodi:guide
     position="225.05109,1693.3186"
     orientation="0,1"
     id="guide44"
     inkscape:label=""
     inkscape:locked="false"
     inkscape:color="rgb(0,0,255)" /><sodipodi:guide
     position="0,900"
     orientation="0,1"
     id="guide46"
     inkscape:label=""
     inkscape:locked="true"
     inkscape:color="rgb(0,0,255)" /><sodipodi:guide
     position="898.18032,376.13759"
     orientation="-1,0"
     id="guide841"
     inkscape:label="width"
     inkscape:locked="false"
     inkscape:color="rgb(0,0,255)" /></sodipodi:namedview>
 <defs
   id="defs4"><inkscape:path-effect
   effect="spiro"
   id="path-effect851"
   is_visible="true"
   lpeversion="1" /><inkscape:path-effect
   effect="spiro"
   id="path-effect861"
   is_visible="true"
   lpeversion="1" /><inkscape:path-effect
   effect="spiro"
   id="path-effect867"
   is_visible="true"
   lpeversion="1" />
  <style
   type="text/css"
   id="style2">
   <![CDATA[
    .fil0 {fill:#EF7F1A;fill-rule:nonzero}
   ]]>
  </style>
 <inkscape:path-effect
   effect="spiro"
   id="path-effect1214"
   is_visible="true"
   lpeversion="1" /><inkscape:path-effect
   effect="spiro"
   id="path-effect1195"
   is_visible="true"
   lpeversion="1" /><inkscape:path-effect
   effect="spiro"
   id="path-effect992"
   is_visible="true"
   lpeversion="1" /><inkscape:path-effect
   effect="spiro"
   id="path-effect1078"
   is_visible="true"
   lpeversion="1" /></defs>
 
<path
   style="display:inline;fill:#1a1a1a;stroke:none;stroke-width:1.92017px;stroke-linecap:butt;stroke-linejoin:miter;stroke-opacity:1"
   d="M 148.91391,825.939 C 145.84678,806.67229 141.96148,787.53584 137.272,768.59852 114.54456,676.81938 73.29104,590.89928 39.108795,502.74304 16.023641,443.20628 -4.1172676,381.21502 -4.7672966,317.36263 -5.0923112,285.43643 -0.43744637,253.29014 10.807228,223.40795 22.051903,193.52577 40.029526,165.95375 64.159459,145.046 85.765592,126.32504 112.0972,113.16909 139.96122,106.77412 c 27.86402,-6.39497 57.20785,-6.05127 85.0032,0.63588 40.13742,9.65647 76.92893,32.71368 103.11936,64.62484 26.19043,31.91115 41.6294,72.49302 43.2724,113.743 6.97886,-15.32463 15.57065,-29.91413 25.58758,-43.44963 20.69857,-27.9692 47.75974,-51.50631 79.2682,-66.26855 31.50847,-14.76224 67.51268,-20.48491 101.7357,-14.20064 36.91097,6.77785 71.0315,27.65883 93.95633,57.37097 22.92484,29.71214 34.46395,67.96791 31.90907,105.40895 -2.25596,33.06041 -15.03154,64.67311 -31.87113,93.2127 -16.8396,28.53959 -37.7335,54.43096 -57.86566,80.7516 -16.2957,21.30487 -32.36068,43.3702 -41.2943,68.66126 -4.46681,12.64553 -7.07944,26.02474 -6.80782,39.43325 0.27163,13.4085 3.49328,26.85159 10.1042,38.52025 10.08602,17.8024 27.83453,30.73196 47.4635,36.50751 19.62896,5.77554 40.954,4.67903 60.47841,-1.44067 26.41404,-8.27918 49.49401,-25.44175 67.60545,-46.37549 18.11145,-20.93375 31.5224,-45.55727 42.43893,-70.99495 25.67735,-59.83333 38.14526,-126.08357 30.08982,-190.69366 -6.55985,-52.61446 -26.55031,-103.09141 -54.68953,-148.03023 -16.47332,-26.30818 -35.7495,-50.86006 -57.39695,-73.10592 L 828.66092,62.584655 c 16.71411,46.671705 31.01784,94.206515 42.83513,142.351725 18.09914,73.73827 30.39093,149.33248 29.41451,225.25322 -0.97641,75.92074 -15.58373,152.37883 -49.11482,220.50062 -19.46905,39.55333 -45.62955,76.48739 -80.40064,103.5887 -34.77109,27.10131 -78.72357,43.76715 -122.71636,40.91334 -41.69016,-2.70444 -81.67714,-23.16122 -109.36075,-54.45022 -27.68361,-31.28899 -43.04268,-72.89384 -43.79472,-114.66486 -0.96573,-53.63979 21.46654,-105.8879 54.66299,-148.03236 12.38313,-15.72097 26.26349,-30.25673 37.96259,-46.49316 11.6991,-16.23643 21.30195,-34.61317 23.58256,-54.49506 2.10486,-18.34976 -2.34244,-37.40347 -12.45768,-52.85747 -10.11523,-15.45399 -25.83971,-27.17342 -43.57505,-32.33111 -23.72056,-6.89828 -49.95093,-1.88942 -71.35894,10.43732 -21.40801,12.32674 -38.31379,31.43972 -51.1383,52.5533 -28.70733,47.26218 -37.81748,105.05512 -30.32415,159.84266 4.83147,35.32533 16.3159,69.72925 33.67274,100.87346 l -154.75291,3.39962 c 24.14062,-48.98504 38.02811,-102.99387 40.51088,-157.54787 1.72978,-38.00863 -2.13993,-76.69374 -15.65421,-112.26076 -13.51427,-35.56702 -37.18041,-67.90996 -69.48634,-88.0091 -22.469,-13.97909 -49.67374,-21.80775 -75.69809,-17.01149 -22.46401,4.14009 -42.732,17.55731 -56.92006,35.45901 -14.188067,17.9017 -22.512923,40.04491 -25.668492,62.66822 -6.311137,45.24664 7.375748,90.79619 23.653492,133.48253 24.09926,63.19729 54.58153,124.57096 96.90035,177.3326 31.02774,38.68431 68.22519,72.40945 109.75541,99.50995 z"
   id="path1087-2"
   inkscape:path-effect="#path-effect1078"
   inkscape:original-d="m 148.91391,825.939 c 0,0 -6.30813,-38.58053 -11.64191,-57.34048 C 111.43744,677.73334 52.468081,596.26007 39.108795,502.74304 22.205854,384.41988 -13.333076,236.04592 64.159459,145.046 99.850738,103.13353 172.82809,89.737246 224.96442,107.41 c 72.84544,24.69257 146.39176,178.36784 146.39176,178.36784 0,0 13.04534,-32.26023 25.58758,-43.44963 49.27067,-43.95618 116.98163,-96.62139 181.0039,-80.46919 66.5046,16.77846 119.63366,94.47514 125.8654,162.77992 5.92828,64.9786 -66.45176,113.0121 -89.73679,173.9643 -18.01687,47.16197 -62.27084,102.34644 -37.99792,146.61476 18.18884,33.17233 71.30269,44.49049 107.94191,35.06684 C 735.9598,666.92593 770.50361,611.09172 794.06464,562.9144 822.33569,505.1061 830.49539,436.25858 824.15446,372.22074 818.97111,319.87351 795.13308,270.10615 769.46493,224.19051 754.3471,197.14744 712.06798,151.08459 712.06798,151.08459 L 828.66092,62.584655 c 0,0 36.7033,93.180295 42.83513,142.351725 18.40449,147.58653 51.38328,315.11069 -19.70031,445.75384 C 812.08327,723.677 731.28347,804.17053 648.67874,795.19226 573.07104,786.9745 509.9681,700.7458 495.52327,626.07718 c -9.99053,-51.64336 31.75844,-100.68019 54.66299,-148.03236 17.16569,-35.48783 62.22474,-61.57267 61.54515,-100.98822 -0.58592,-33.98312 -23.16098,-76.54891 -56.03273,-85.18858 -44.40647,-11.67134 -95.0161,26.20827 -122.49724,62.99062 -32.45883,43.44479 -33.97377,105.73438 -30.32415,159.84266 2.38559,35.36805 33.67274,100.87346 33.67274,100.87346 l -154.75291,3.39962 c 0,0 44.58196,-103.47662 40.51088,-157.54787 C 316.86189,389.09242 292.88414,307.60589 237.16745,261.15665 217.30298,244.59627 183.5135,230.62113 161.46936,244.14516 93.56617,285.8036 92.565527,396.71763 102.5343,475.75492 c 8.42919,66.83069 55.21814,124.41771 96.90035,177.3326 30.55826,38.79321 109.75541,99.50995 109.75541,99.50995 z"
   sodipodi:nodetypes="caaaacaaaaaaaaaccaaaaaaaaaccaaaaacc" /><path
   style="fill:#1a1a1a;fill-opacity:1;stroke:none;stroke-width:0.909608px;stroke-linecap:butt;stroke-linejoin:miter;stroke-opacity:1"
   d="m 373.92555,1016.6599 -90.17277,32.0982 c -47.89622,-22.146 -83.53335,-68.99686 -92.08956,-121.06686 -4.77669,-29.06919 -1.36241,-59.70355 11.38087,-86.26373 12.74327,-26.56019 35.04842,-48.75077 62.39231,-59.71189 19.72435,-7.90674 41.59864,-9.90301 62.64841,-6.99202 21.04977,2.91099 41.29039,10.61925 59.65238,21.31522 32.31533,18.82386 59.03518,47.12195 75.97562,80.46321 0.2058,-19.47488 7.1939,-38.81315 19.48492,-53.9209 12.29101,-15.10775 29.80299,-25.88424 48.82864,-30.0481 27.62559,-6.046 57.72774,2.27744 79.18787,20.69455 13.66783,11.72974 23.82082,27.04193 32.19495,42.98779 8.37414,15.94585 15.13359,32.68764 23.15728,48.81268 8.02368,16.12503 17.45599,31.81068 30.32598,44.41067 12.86999,12.59999 29.52104,21.9708 47.46796,23.48885 18.34748,1.55193 37.01336,-5.39345 50.73495,-17.67175 13.72158,-12.27831 22.5695,-29.57809 25.74985,-47.71435 3.18036,-18.13626 0.86677,-37.03299 -5.38806,-54.35106 -6.25484,-17.31808 -16.35393,-33.1032 -28.4912,-46.94969 -7.01792,-8.00621 -14.73088,-15.40296 -23.0237,-22.07976 l 114.23807,-94.14531 c 32.67263,86.13523 28.54159,185.55176 -11.16439,268.67945 -10.60823,22.2092 -23.87039,43.5675 -42.17391,60.0224 -18.30352,16.4549 -42.14017,27.688 -66.75018,27.3268 -23.56242,-0.3458 -46.10827,-11.2534 -63.88217,-26.7258 -17.7739,-15.4725 -31.23636,-35.28414 -42.92331,-55.74685 -11.48721,-20.11298 -21.66976,-41.37511 -37.52951,-58.25575 -7.92988,-8.44033 -17.27134,-15.69392 -27.89278,-20.30985 -10.62145,-4.61594 -22.57724,-6.49661 -33.9515,-4.31757 -13.91342,2.66548 -26.29583,11.32364 -34.8847,22.58948 -8.58888,11.26585 -13.57879,24.98767 -15.87284,38.96713 -3.49395,21.29136 -0.86381,43.55226 7.49583,63.44311 L 421.6219,1000 c 3.94669,-27.2101 0.50586,-55.45554 -9.85789,-80.92236 -8.2864,-20.36215 -21.18339,-39.16972 -38.78467,-52.34076 -17.60128,-13.17104 -40.12561,-20.32892 -61.90949,-17.37191 -14.53655,1.97324 -28.52477,8.47229 -38.96103,18.78197 -10.43626,10.30967 -17.16123,24.44826 -17.93702,39.0976 -0.87634,16.54789 5.73666,32.89078 15.8379,46.02719 10.10125,13.13641 23.5015,23.37285 37.49686,32.24588 20.70701,13.1282 43.0835,23.61999 66.41899,31.14229 z"
   id="path849"
   inkscape:path-effect="#path-effect851"
   inkscape:original-d="m 373.92555,1016.6599 -90.17277,32.0982 c 0,0 -87.47331,-70.57387 -92.08956,-121.06686 -4.96367,-54.29305 25.74953,-120.16665 73.77318,-145.97562 36.1551,-19.43055 85.61946,-4.09467 122.30079,14.3232 32.96597,16.55236 75.97562,80.46321 75.97562,80.46321 0,0 34.01889,-72.75187 68.31356,-83.969 25.93062,-8.48141 56.15598,6.07047 79.18787,20.69455 58.50967,37.15068 65.54492,174.98477 133.14617,159.69999 55.93661,-12.64737 58.34606,-111.54072 42.60554,-166.68685 -2.91854,-10.22495 -23.0237,-22.07976 -23.0237,-22.07976 l 114.23807,-94.14531 c 0,0 29.28752,188.68912 -11.16439,268.67945 -21.00314,41.532 -62.38338,87.3502 -108.92409,87.3492 -42.73565,-10e-4 -71.72703,-54.317 -106.80548,-82.47265 -33.63839,-26.99979 -63.01643,-87.8291 -99.37379,-82.88317 -26.35207,3.58485 -43.2555,36.04187 -50.75754,61.55661 -6.00698,20.42999 7.49583,63.44311 7.49583,63.44311 L 421.6219,1000 c 0,0 4.18826,-57.66067 -9.85789,-80.92236 -21.102,-34.94682 -60.05145,-73.55249 -100.69416,-69.71267 -26.93439,2.54469 -54.48372,30.93318 -56.89805,57.87957 -2.81751,31.44629 29.3003,57.79986 53.33476,78.27307 18.61453,15.85639 66.41899,31.14229 66.41899,31.14229 z"
   sodipodi:nodetypes="ccaaacaaaaccasasaccaaaac" /></svg>
