<?xml version="1.0" encoding="UTF-8" standalone="no"?>
<svg
   xmlns:dc="http://purl.org/dc/elements/1.1/"
   xmlns:cc="http://creativecommons.org/ns#"
   xmlns:rdf="http://www.w3.org/1999/02/22-rdf-syntax-ns#"
   xmlns:svg="http://www.w3.org/2000/svg"
   xmlns="http://www.w3.org/2000/svg"
   xmlns:sodipodi="http://sodipodi.sourceforge.net/DTD/sodipodi-0.dtd"
   xmlns:inkscape="http://www.inkscape.org/namespaces/inkscape"
   xml:space="preserve"
   width="1000"
   height="1000"
   version="1.1"
   style="clip-rule:evenodd;fill-rule:evenodd;image-rendering:optimizeQuality;shape-rendering:geometricPrecision;text-rendering:geometricPrecision"
   viewBox="0 0 1000 1000"
   id="svg10"
   sodipodi:docname="സ്പ.svg"
   inkscape:version="1.0.1 (3bc2e813f5, 2020-09-07)"><metadata
   id="metadata14"><rdf:RDF><cc:Work
       rdf:about=""><dc:format>image/svg+xml</dc:format><dc:type
         rdf:resource="http://purl.org/dc/dcmitype/StillImage" /><dc:title /></cc:Work></rdf:RDF></metadata><sodipodi:namedview
   pagecolor="#ffffff"
   bordercolor="#666666"
   borderopacity="1"
   objecttolerance="10"
   gridtolerance="10"
   guidetolerance="10"
   inkscape:pageopacity="0"
   inkscape:pageshadow="2"
   inkscape:window-width="1920"
   inkscape:window-height="1015"
   id="namedview12"
   showgrid="false"
   inkscape:zoom="0.5"
   inkscape:cx="790.77883"
   inkscape:cy="541.26548"
   inkscape:window-x="1920"
   inkscape:window-y="0"
   inkscape:window-maximized="1"
   inkscape:current-layer="g880"
   showguides="true"
   inkscape:guide-bbox="true"
   inkscape:document-rotation="0"><sodipodi:guide
     position="0,1000"
     orientation="0,1"
     id="guide16"
     inkscape:label=""
     inkscape:locked="true"
     inkscape:color="rgb(0,0,255)" /><sodipodi:guide
     position="1763.3122,2036.1693"
     orientation="1000,0"
     id="guide18" /><sodipodi:guide
     position="0,200"
     orientation="0,1"
     id="guide20"
     inkscape:label="base"
     inkscape:locked="true"
     inkscape:color="rgb(0,0,255)" /><inkscape:grid
     type="xygrid"
     id="grid24"
     originx="-473.37552"
     originy="-489.69235" /><sodipodi:guide
     position="0,0"
     orientation="0,1"
     id="guide34"
     inkscape:label="bottom"
     inkscape:locked="true"
     inkscape:color="rgb(0,0,255)" /><sodipodi:guide
     position="225.05109,1693.3186"
     orientation="0,1"
     id="guide44"
     inkscape:label=""
     inkscape:locked="false"
     inkscape:color="rgb(0,0,255)" /><sodipodi:guide
     position="0,900"
     orientation="0,1"
     id="guide46"
     inkscape:label=""
     inkscape:locked="true"
     inkscape:color="rgb(0,0,255)" /><sodipodi:guide
     position="887.65662,379.37685"
     orientation="-1,0"
     id="guide841"
     inkscape:label="width"
     inkscape:locked="false"
     inkscape:color="rgb(0,0,255)" /></sodipodi:namedview>
 <defs
   id="defs4"><inkscape:path-effect
   effect="spiro"
   id="path-effect861"
   is_visible="true"
   lpeversion="1" /><inkscape:path-effect
   effect="spiro"
   id="path-effect867"
   is_visible="true"
   lpeversion="1" />
  <style
   type="text/css"
   id="style2">
   <![CDATA[
    .fil0 {fill:#EF7F1A;fill-rule:nonzero}
   ]]>
  </style>
 <inkscape:path-effect
   effect="spiro"
   id="path-effect1214"
   is_visible="true"
   lpeversion="1" /><inkscape:path-effect
   effect="spiro"
   id="path-effect1195"
   is_visible="true"
   lpeversion="1" /><inkscape:path-effect
   effect="spiro"
   id="path-effect992"
   is_visible="true"
   lpeversion="1" /><inkscape:path-effect
   effect="spiro"
   id="path-effect1078"
   is_visible="true"
   lpeversion="1" /><inkscape:path-effect
   effect="spiro"
   id="path-effect858"
   is_visible="true"
   lpeversion="1" /><inkscape:path-effect
   effect="spiro"
   id="path-effect854"
   is_visible="true"
   lpeversion="1" /><style
   type="text/css"
   id="style2-9">
   <![CDATA[
    .fil0 {fill:#EF7F1A;fill-rule:nonzero}
   ]]>
  </style><inkscape:path-effect
   effect="spiro"
   id="path-effect287"
   is_visible="true"
   lpeversion="1" /><inkscape:path-effect
   effect="spiro"
   id="path-effect1032"
   is_visible="true"
   lpeversion="1" /><inkscape:path-effect
   effect="spiro"
   id="path-effect1218"
   is_visible="true"
   lpeversion="1" /><inkscape:path-effect
   effect="spiro"
   id="path-effect309"
   is_visible="true"
   lpeversion="1" /></defs>
 
<g
   style="clip-rule:evenodd;fill-rule:evenodd;image-rendering:optimizeQuality;shape-rendering:geometricPrecision;text-rendering:geometricPrecision"
   id="g880"><path
     id="use1061"
     style="display:inline;fill:#1a1a1a;fill-rule:nonzero;stroke:none;stroke-width:1.58395px;stroke-linecap:butt;stroke-linejoin:miter;stroke-opacity:1"
     d="m 340.99759,1080.591 c 3.14538,-32.3982 -2.08686,-65.2985 -12.73292,-96.05869 -8.80793,-25.44925 -21.24478,-49.51256 -30.29719,-74.87587 -9.0524,-25.3634 -14.67971,-52.8709 -9.18713,-79.2351 3.80212,-18.25009 12.89246,-35.2611 25.36315,-49.11763 12.47069,-13.85653 28.25118,-24.5945 45.41513,-31.86914 29.94228,-12.69053 63.9169,-14.7627 95.71568,-7.94893 31.79878,6.81379 61.44049,22.24649 86.73848,42.68179 35.59693,28.75457 63.24837,68.43862 73.09942,113.12556 7.27961,33.02226 4.63313,68.16652 -7.50973,99.72621 37.09955,8.9378 75.91147,10.7106 113.67131,5.1921 16.24298,-2.37384 32.44557,-6.13753 47.20666,-13.31933 14.76117,-7.18179 28.07917,-17.9983 36.28038,-32.21837 8.71948,-15.11891 11.18589,-33.20704 9.97267,-50.61795 -1.21315,-17.4108 -5.88865,-34.37334 -10.66963,-51.15875 -22.68319,-79.63837 -48.57085,-160.52756 -44.03372,-243.2089 1.08579,-19.78762 3.92416,-39.47877 8.47089,-58.76753 h 135.71374 c -10.83314,14.95437 -20.05767,31.07318 -27.46355,47.98896 -20.29513,46.35671 -26.57534,97.97488 -24.11794,148.51991 2.45731,50.54504 13.36501,100.30474 26.27686,149.23451 6.29094,23.83991 13.10828,47.80398 14.19477,72.43616 1.08647,24.63207 -4.13963,50.45519 -19.62509,69.64159 -14.30926,17.7291 -36.13428,28.1959 -58.47881,32.6456 -22.34445,4.45 -45.39682,3.4011 -68.10368,1.5365 -62.4558,-5.1286 -125.12164,-16.2881 -187.39578,-9.2909 -19.1298,2.1495 -38.06706,6.0097 -56.51194,11.5194 L 488.75651,964.60034 c 5.4869,4.06696 12.03023,6.69585 18.80577,7.55532 6.77553,0.85937 13.76798,-0.0523 20.09654,-2.62061 10.42209,-4.22943 18.77534,-12.88532 23.53201,-23.07748 4.75666,-10.19226 6.05732,-21.81182 4.6668,-32.97327 -1.67327,-13.43073 -7.1636,-26.28297 -15.1943,-37.17758 -8.03069,-10.8946 -18.5511,-19.85837 -30.26494,-26.63859 -17.55017,-10.15835 -38.05847,-15.46051 -58.28074,-13.95653 -20.22225,1.50409 -40.04006,10.00127 -54.30952,24.40904 -17.36768,17.53601 -25.63065,42.81787 -25.45623,67.4982 0.17442,24.68033 8.18919,48.80551 19.68817,70.64403 15.56195,29.55483 37.66598,55.64243 64.26448,75.84613 l -123.01344,44.6959 c 3.86189,-12.431 6.44862,-25.2578 7.70648,-38.2139 z M 126.73816,837.12471 c 2.08724,-20.48589 2.73091,-41.1187 1.9247,-61.69487 C 124.93572,680.30674 90.569154,589.32719 54.787593,501.11167 31.287047,443.17366 6.7150171,384.50125 0.52181437,322.28604 -2.5747836,291.17842 -0.93437928,259.38865 7.6770889,229.33678 16.288557,199.28492 32.070971,171.00669 54.803302,149.54713 75.90871,129.62337 102.67922,115.94154 131.00711,109.62291 c 28.32789,-6.31866 58.14216,-5.35389 86.24416,1.90366 39.60147,10.2274 75.84108,33.07756 102.14002,64.40233 26.29894,31.32478 42.53029,70.97302 45.74747,111.74709 3.93559,-26.7493 14.17145,-52.55089 29.64382,-74.72339 16.06337,-23.01937 37.80108,-42.11539 62.908,-54.66795 25.10693,-12.55255 53.54931,-18.48978 81.55366,-16.57159 42.65141,2.92143 83.49665,24.45855 110.85756,57.30757 27.3609,32.84903 41.12563,76.44816 38.69948,119.13062 -2.02004,35.53819 -14.71766,69.75336 -31.43974,101.17654 -16.72207,31.4232 -37.47451,60.48481 -57.03863,90.22182 -15.74248,23.9282 -30.97939,48.89286 -37.59333,76.76112 -3.30697,13.93413 -4.37479,28.49224 -2.13931,42.63788 2.23549,14.14561 7.86007,27.86888 16.97639,38.91374 11.99304,14.53016 29.74665,23.893 48.36422,26.7817 18.61754,2.88871 37.97742,-0.49809 55.06658,-8.43021 24.87475,-11.54591 44.71603,-32.33334 58.41228,-56.09199 13.69628,-23.75867 21.62311,-50.43787 26.93577,-77.34208 16.2782,-82.43579 8.80499,-168.10835 -9.89717,-250.02826 -9.89268,-43.33239 -22.97496,-86.60965 -22.5894,-131.05527 0.21153,-24.38589 4.53857,-48.73101 12.74308,-71.69624 h 141.0546 c -10.89168,31.34174 -20.29408,63.20101 -28.16481,95.43432 -15.29532,62.64001 -24.81461,127.05337 -22.70242,191.49914 1.48765,45.38828 8.71701,90.38471 12.16554,135.66624 3.44847,45.28151 2.9908,91.64108 -10.48534,135.00817 -12.8546,41.36728 -37.80182,79.20857 -72.05925,105.72125 -34.25746,26.51267 -77.85791,41.26291 -121.1155,38.96618 -43.12243,-2.28955 -85.11748,-21.70147 -114.73448,-53.12786 -29.61699,-31.4264 -46.51279,-74.53447 -46.04714,-117.71514 0.3187,-29.55417 8.44756,-58.64872 20.5884,-85.59592 12.14083,-26.9472 28.23369,-51.92218 45.12759,-76.17393 13.16666,-18.90116 26.91888,-37.53274 37.31781,-58.08698 10.39891,-20.55424 17.37957,-43.41535 15.92477,-66.40444 -0.86241,-13.62786 -4.73982,-27.13171 -11.8078,-38.81528 -7.06799,-11.68356 -17.37715,-21.48732 -29.69358,-27.38375 -13.02644,-6.23637 -28.01182,-7.96914 -42.28928,-5.79323 -14.27745,2.17591 -27.848,8.15147 -39.6695,16.448 -23.64302,16.59302 -39.86981,41.7885 -52.39571,67.81585 -24.06783,50.01018 -36.61271,106.29856 -30.63397,161.47584 3.88734,35.87604 15.57431,70.88675 34.01678,101.90412 l -156.33409,3.43435 c 25.05624,-49.20787 39.1366,-103.96671 40.9248,-159.1576 1.22028,-37.66223 -3.3334,-75.88198 -17.12392,-110.94983 -13.79053,-35.06787 -37.23347,-66.87992 -68.88655,-87.32539 -11.27269,-7.28129 -23.5663,-13.11221 -36.58936,-16.35115 -13.02306,-3.23893 -26.80132,-3.83122 -39.88216,-0.83415 -21.26021,4.87112 -39.7725,19.19574 -51.68321,37.46756 -11.910702,18.27181 -17.512957,40.22245 -18.055256,62.02681 -1.084614,43.60873 17.086676,85.14547 35.492166,124.69463 27.9367,60.02955 57.53819,119.87816 97.99075,172.29571 27.13163,35.15657 58.97366,66.67326 94.407,93.44242 -30.67463,13.79125 -60.9244,28.52751 -90.69193,44.18081 -31.85106,16.74892 -63.14995,34.54778 -93.82881,53.35796 z" /></g></svg>
