<?xml version="1.0" encoding="UTF-8" standalone="no"?>
<svg
   xmlns:dc="http://purl.org/dc/elements/1.1/"
   xmlns:cc="http://creativecommons.org/ns#"
   xmlns:rdf="http://www.w3.org/1999/02/22-rdf-syntax-ns#"
   xmlns:svg="http://www.w3.org/2000/svg"
   xmlns="http://www.w3.org/2000/svg"
   xmlns:sodipodi="http://sodipodi.sourceforge.net/DTD/sodipodi-0.dtd"
   xmlns:inkscape="http://www.inkscape.org/namespaces/inkscape"
   xml:space="preserve"
   width="1000"
   height="1000"
   version="1.1"
   style="clip-rule:evenodd;fill-rule:evenodd;image-rendering:optimizeQuality;shape-rendering:geometricPrecision;text-rendering:geometricPrecision"
   viewBox="0 0 1000 1000"
   id="svg10"
   sodipodi:docname="ഹ്മ.svg"
   inkscape:version="1.0.2 (e86c870879, 2021-01-15)"><metadata
   id="metadata14"><rdf:RDF><cc:Work
       rdf:about=""><dc:format>image/svg+xml</dc:format><dc:type
         rdf:resource="http://purl.org/dc/dcmitype/StillImage" /><dc:title /></cc:Work></rdf:RDF></metadata><sodipodi:namedview
   pagecolor="#ffffff"
   bordercolor="#666666"
   borderopacity="1"
   objecttolerance="10"
   gridtolerance="10"
   guidetolerance="10"
   inkscape:pageopacity="0"
   inkscape:pageshadow="2"
   inkscape:window-width="1920"
   inkscape:window-height="1007"
   id="namedview12"
   showgrid="false"
   inkscape:zoom="1.5936404"
   inkscape:cx="420.41192"
   inkscape:cy="681.27511"
   inkscape:window-x="1920"
   inkscape:window-y="0"
   inkscape:window-maximized="1"
   inkscape:current-layer="svg10"
   showguides="true"
   inkscape:guide-bbox="true"
   inkscape:document-rotation="0"><sodipodi:guide
     position="0,1000"
     orientation="0,1"
     id="guide16"
     inkscape:label=""
     inkscape:locked="true"
     inkscape:color="rgb(0,0,255)" /><sodipodi:guide
     position="1763.3122,2036.1693"
     orientation="1000,0"
     id="guide18" /><sodipodi:guide
     position="0,200"
     orientation="0,1"
     id="guide20"
     inkscape:label="base"
     inkscape:locked="true"
     inkscape:color="rgb(0,0,255)" /><inkscape:grid
     type="xygrid"
     id="grid24"
     originx="-473.37552"
     originy="-489.69235" /><sodipodi:guide
     position="0,0"
     orientation="0,1"
     id="guide34"
     inkscape:label="bottom"
     inkscape:locked="true"
     inkscape:color="rgb(0,0,255)" /><sodipodi:guide
     position="225.05109,1693.3186"
     orientation="0,1"
     id="guide44"
     inkscape:label=""
     inkscape:locked="false"
     inkscape:color="rgb(0,0,255)" /><sodipodi:guide
     position="0,900"
     orientation="0,1"
     id="guide46"
     inkscape:label=""
     inkscape:locked="true"
     inkscape:color="rgb(0,0,255)" /><sodipodi:guide
     position="1054.423,547.00131"
     orientation="-1,0"
     id="guide841"
     inkscape:label="width"
     inkscape:locked="false"
     inkscape:color="rgb(0,0,255)" /><sodipodi:guide
     position="0,1000"
     orientation="0,1000"
     id="guide860" /><sodipodi:guide
     position="1000,1000"
     orientation="1000,0"
     id="guide862" /><sodipodi:guide
     position="1000,0"
     orientation="0,-1000"
     id="guide864" /><sodipodi:guide
     position="0,0"
     orientation="-1000,0"
     id="guide866" /></sodipodi:namedview>
 <defs
   id="defs4"><inkscape:path-effect
   effect="fillet_chamfer"
   id="path-effect856"
   is_visible="true"
   lpeversion="1"
   satellites_param="F,0,0,1,1,0,0,1 @ F,0,0,1,1,0,0,1 @ F,0,0,1,1,0,0,1 @ F,0,0,1,1,0,0,1 @ F,0,0,1,1,0,0,1 @ F,0,0,1,1,0,0,1 @ F,0,0,1,1,0,0,1 @ F,0,0,1,1,18.817302,0,1 @ F,0,0,1,1,18.817302,0,1 @ F,0,0,1,1,0,0,1 @ F,0,0,1,1,0,0,1 @ F,0,0,1,1,0,0,1 @ F,0,0,1,1,0,0,1 @ F,0,0,1,1,0,0,1 @ F,0,0,1,1,0,0,1 @ F,0,0,1,1,0,0,1 @ F,0,0,1,1,0,0,1 @ F,0,0,1,1,0,0,1 @ F,0,0,1,1,32.087263,0,1 @ F,0,0,1,1,18.817302,0,1 @ F,0,0,1,1,0,0,1 @ F,0,0,1,1,0,0,1 @ F,0,0,1,1,0,0,1 @ F,0,0,1,1,0,0,1 @ F,0,0,1,1,0,0,1 @ F,0,0,1,1,0,0,1 @ F,0,0,1,1,0,0,1 @ F,0,0,1,1,0,0,1 @ F,0,0,1,1,0,0,1 @ F,0,0,1,1,0,0,1 @ F,0,0,1,1,0,0,1 @ F,0,0,1,1,0,0,1 @ F,0,0,1,1,0,0,1 @ F,0,0,1,1,0,0,1 @ F,0,0,1,1,0,0,1 @ F,0,0,1,1,0,0,1 @ F,0,0,1,1,0,0,1 @ F,0,0,1,1,0,0,1 @ F,0,0,1,1,0,0,1 @ F,0,0,1,1,0,0,1 @ F,0,0,1,1,0,0,1 @ F,0,0,1,1,0,0,1 @ F,0,0,1,1,0,0,1 @ F,0,0,1,1,18.817302,0,1 @ F,0,0,1,1,18.817302,0,1 @ F,0,0,1,1,0,0,1 @ F,0,0,1,1,27.651489,0,1 @ F,0,0,1,1,0,0,1 @ F,0,0,1,1,18.817302,0,1 @ F,0,0,1,1,18.817302,0,1 @ F,0,0,1,1,0,0,1 @ F,0,0,1,1,0,0,1 @ F,0,0,1,1,0,0,1 @ F,0,0,1,1,0,0,1 @ F,0,0,1,1,0,0,1 @ F,0,0,1,1,0,0,1 @ F,0,0,1,1,0,0,1 @ F,0,0,1,1,0,0,1 @ F,0,0,1,1,0,0,1"
   unit="px"
   method="auto"
   mode="F"
   radius="0"
   chamfer_steps="1"
   flexible="false"
   use_knot_distance="true"
   apply_no_radius="true"
   apply_with_radius="true"
   only_selected="true"
   hide_knots="true" /><inkscape:path-effect
   effect="fillet_chamfer"
   id="path-effect855"
   is_visible="true"
   lpeversion="1"
   satellites_param="F,0,0,1,0,0,0,1 @ F,0,0,1,0,0,0,1 @ F,0,0,1,0,0,0,1 @ F,0,0,1,0,0,0,1 @ F,0,0,1,0,0,0,1 @ F,0,0,1,0,0,0,1 @ F,0,1,1,0,13.425077,0,1 @ F,0,1,1,0,13.425077,0,1 @ F,0,0,1,0,0,0,1 @ F,0,0,1,0,0,0,1 @ F,0,0,1,0,0,0,1 @ F,0,0,1,0,0,0,1 @ F,0,0,1,0,0,0,1 @ F,0,0,1,0,0,0,1 @ F,0,0,1,0,0,0,1 @ F,0,0,1,0,0,0,1 @ F,0,0,1,0,0,0,1 @ F,0,0,1,0,21.704071,0,1 @ F,0,0,1,0,21.704071,0,1 @ F,0,0,1,0,21.704071,0,1 @ F,0,0,1,0,0,0,1 @ F,0,0,1,0,0,0,1 @ F,0,0,1,0,0,0,1 @ F,0,0,1,0,0,0,1 @ F,0,0,1,0,0,0,1 @ F,0,0,1,0,0,0,1 @ F,0,0,1,0,0,0,1 @ F,0,0,1,0,0,0,1 @ F,0,0,1,0,0,0,1 @ F,0,0,1,0,0,0,1 @ F,0,0,1,0,0,0,1 @ F,0,0,1,0,0,0,1 @ F,0,0,1,0,0,0,1 @ F,0,0,1,0,0,0,1 @ F,0,0,1,0,0,0,1 @ F,0,0,1,0,0,0,1 @ F,0,0,1,0,0,0,1 @ F,0,0,1,0,0,0,1 @ F,0,0,1,0,0,0,1 @ F,0,0,1,0,0,0,1 @ F,0,0,1,0,0,0,1 @ F,0,0,1,0,0,0,1 @ F,0,0,1,0,0,0,1 @ F,0,0,1,0,0,0,1 @ F,0,0,1,0,0,0,1 @ F,0,0,1,0,21.543361,0,1 @ F,0,0,1,0,0,0,1 @ F,0,0,1,0,21.543361,0,1 @ F,0,0,1,0,0,0,1 @ F,0,0,1,0,21.543361,0,1 @ F,0,0,1,0,21.543361,0,1 @ F,0,0,1,0,0,0,1 @ F,0,0,1,0,0,0,1 @ F,0,0,1,0,0,0,1 @ F,0,0,1,0,0,0,1 @ F,0,0,1,0,0,0,1 @ F,0,0,1,0,0,0,1 @ F,0,0,1,0,0,0,1 @ F,0,0,1,0,0,0,1 @ F,0,0,1,0,0,0,1 @ F,0,0,1,0,0,0,1"
   unit="px"
   method="auto"
   mode="F"
   radius="0"
   chamfer_steps="1"
   flexible="false"
   use_knot_distance="true"
   apply_no_radius="true"
   apply_with_radius="true"
   only_selected="true"
   hide_knots="false" /><inkscape:path-effect
   effect="spiro"
   id="path-effect858"
   is_visible="true"
   lpeversion="1" /><inkscape:path-effect
   effect="spiro"
   id="path-effect854"
   is_visible="true"
   lpeversion="1" />
  <style
   type="text/css"
   id="style2">
   <![CDATA[
    .fil0 {fill:#EF7F1A;fill-rule:nonzero}
   ]]>
  </style>
 <inkscape:path-effect
   effect="spiro"
   id="path-effect1214"
   is_visible="true"
   lpeversion="1" /><inkscape:path-effect
   effect="spiro"
   id="path-effect1195"
   is_visible="true"
   lpeversion="1" /><inkscape:path-effect
   effect="spiro"
   id="path-effect992"
   is_visible="true"
   lpeversion="1" /><inkscape:path-effect
   effect="spiro"
   id="path-effect287"
   is_visible="true"
   lpeversion="1" /><inkscape:path-effect
   effect="spiro"
   id="path-effect1032"
   is_visible="true"
   lpeversion="1" /><inkscape:path-effect
   effect="spiro"
   id="path-effect1218"
   is_visible="true"
   lpeversion="1" /><inkscape:path-effect
   effect="spiro"
   id="path-effect309"
   is_visible="true"
   lpeversion="1" /><inkscape:path-effect
   effect="spiro"
   id="path-effect860"
   is_visible="true"
   lpeversion="1" /><style
   type="text/css"
   id="style2-2">
   <![CDATA[
    .fil0 {fill:#EF7F1A;fill-rule:nonzero}
   ]]>
  </style></defs>
 
<path
   id="path856"
   style="clip-rule:evenodd;fill:#000000;fill-rule:nonzero;stroke:none;stroke-width:1px;stroke-linecap:butt;stroke-linejoin:miter;stroke-opacity:1;image-rendering:optimizeQuality;shape-rendering:geometricPrecision;text-rendering:geometricPrecision"
   d="m 538.1306,687.62784 c 5.80717,22.778 9.69546,46.65442 5.27743,69.74211 -2.3059,12.05012 -7.12001,24.04369 -16.07433,32.43075 -8.36545,7.83549 -19.68862,11.89114 -31.03528,13.51254 -11.34666,1.6214 -22.87584,1.0051 -34.33209,0.64462 -45.97334,-1.44659 -91.99367,1.28647 -137.97621,0.16967 -28.75699,-0.69844 -57.64129,-2.89686 -86.20821,0.47702 -7.94273,0.93807 -15.83455,2.30631 -23.62994,4.09482 -10.1263,2.3233 -18.76659,-3.42285 -19.53842,-13.78665 l -6.07323,-81.54804 c -0.77183,-10.3638 7.06097,-20.59006 15.91282,-25.9593 0.23038,-0.13973 0.45984,-0.28098 0.68837,-0.42373 13.32943,-8.32609 23.19022,-21.69162 28.37703,-36.5272 5.1868,-14.83555 5.85654,-31.05326 3.13475,-46.5319 -3.97643,-22.61368 -15.37485,-44.06832 -32.76151,-59.0648 -17.38665,-14.99647 -40.79179,-23.17937 -63.65086,-21.0224 -15.94834,1.50487 -31.32687,7.92439 -43.94311,17.7958 -12.616257,9.87143 -22.478699,23.12358 -28.804469,37.8409 -10.147903,23.60977 -11.104332,50.49647 -5.97336,75.6773 5.130973,25.18084 16.063505,48.85056 28.951749,71.0833 25.17168,43.42216 58.21191,82.25501 96.96324,114.14612 13.68002,11.25821 11.37404,21.85232 -6.09158,24.85178 L 48.977675,887.96239 c -10.242565,1.759 -16.915921,-5.09247 -15.68067,-15.40932 2.452013,-20.47928 2.638039,-41.23021 0.536736,-61.74872 C 29.768252,771.10624 17.277512,732.80856 9.5434809,693.65945 2.0042876,655.49659 -0.99548293,616.14441 4.3747309,577.61645 9.7449398,539.08852 23.774685,501.3408 47.824901,470.76585 c 24.723497,-31.43089 60.310709,-54.75417 99.614929,-62.1251 39.30421,-7.37093 82.00182,1.99898 112.95091,27.323 32.03106,26.20934 49.51388,67.15558 54.23883,108.2724 6.76555,58.87426 -11.34375,120.20609 -49.00349,165.963 24.76293,2.23549 49.5578,4.11708 74.3745,5.644 17.38551,1.06969 34.79703,1.96565 52.21382,1.7298 23.22276,-0.31447 46.41786,-2.64598 69.23862,-6.9597 -6.26007,-17.29192 -12.55427,-34.57149 -18.88255,-51.83856 C 423.62761,607.08804 404.34009,555.38787 390.9243,501.99912 377.24303,447.55388 369.74506,390.92648 376.1696,335.15744 c 6.42455,-55.76905 27.53412,-110.81764 65.57311,-152.10319 36.91638,-40.06713 88.18009,-65.38113 141.57864,-76.18797 95.6162,-19.350887 199.40383,8.01096 273.59878,71.35149 32.56557,27.80136 59.62334,62.15735 78.26258,100.70616 25.5465,52.83408 34.87936,113.42097 26.11796,171.44942 -12.43611,82.36676 -61.14376,157.35561 -127.44031,207.79079 -39.45426,30.01488 -85.05958,51.90762 -133.15543,63.921 L 932.0115,710.12922 c 4.4448,-48.18552 0.0228,-97.17481 -12.97875,-143.78554 -5.20203,-18.64933 -11.76622,-36.91836 -19.6187,-54.61569 -4.21458,-9.4985 0.38855,-17.15832 10.77953,-17.3368 l 114.02072,-1.95849 c 10.3909,-0.17848 15.7278,7.52177 12.4315,17.37667 -6.0207,18.00026 -10.7724,36.42509 -14.2035,55.09292 -12.7602,69.42459 -6.7714,142.16643 16.8633,208.66039 5.1136,14.38662 -2.0575,23.70564 -17.1778,21.56322 -104.58677,-14.81908 -210.83817,-17.87482 -316.10229,-9.06519 -35.31075,2.95518 -70.51022,7.23979 -105.4989,12.84105 -10.26177,1.64278 -18.84675,-5.32168 -19.20005,-15.70819 l -3.15725,-92.8199 c -0.3533,-10.38651 7.72703,-17.56127 18.11189,-17.36721 13.76148,0.25715 27.55618,-1.22802 40.942,-4.43336 20.15476,-4.82621 39.23713,-13.4786 57.19199,-23.82895 56.86405,-32.78015 103.89705,-84.53097 124.7537,-146.76487 12.08026,-36.04612 15.2333,-75.21403 7.80645,-112.49804 -7.42685,-37.28401 -25.56993,-72.55108 -52.49968,-99.38472 -30.56271,-30.45364 -72.33533,-49.51259 -115.39887,-52.16488 -43.06354,-2.6523 -87.01995,11.22974 -120.45351,38.50061 -27.36218,22.31861 -47.40459,53.04782 -58.75273,86.48476 -11.34814,33.43694 -14.18962,69.48719 -10.27921,104.58018 8.67062,77.81242 49.19719,148.26342 68.53926,224.13065 z"
   sodipodi:nodetypes="aaaaaaccaaaaaaaaaccaaaaaaacaacaaaaaaaaccaccacaccaaaaaaa"
   inkscape:original-d="m 538.1306,687.62784 c 4.31481,22.91107 9.73351,46.85809 5.27743,69.74211 -2.30609,11.84284 -6.55737,25.01466 -16.07433,32.43075 -17.5855,13.70348 -43.2012,11.77053 -65.36737,14.15716 -45.72781,4.92353 -91.98437,0.0141 -137.97621,0.16967 -28.73635,0.0972 -57.64448,-2.6695 -86.20821,0.47702 -14.16264,1.56013 -28.28316,4.3726 -41.77083,9.0735 l -8.86829,-119.0787 c 6.3507,-1.5704 12.83355,-3.64736 17.99872,-7.6177 12.22413,-9.39638 22.88975,-22.1184 28.37703,-36.5272 5.5327,-14.5279 6.52091,-31.3594 3.13475,-46.5319 -4.90398,-21.9736 -15.42178,-44.7045 -32.76151,-59.0648 -17.20888,-14.2519 -41.31874,-21.7573 -63.65086,-21.0224 -15.79471,0.5198 -31.3861,8.2008 -43.94311,17.7958 -12.595868,9.6248 -23.150489,23.0313 -28.804469,37.8409 -9.02523,23.64 -9.85494,50.6726 -5.97336,75.6773 3.92455,25.2816 15.264629,49.46797 28.951749,71.0833 32.31865,51.03911 72.65201,98.5983 122.49596,133.5669 -60.84482,10.44886 -121.690657,20.89849 -182.535819,31.3478 4.99246,-26.431 5.57255,-53.62604 3.40187,-80.343 -3.229411,-39.74793 -19.338802,-77.57458 -24.2902601,-117.1449 -4.8074856,-38.41974 -11.75197,-77.8874 -5.16875,-116.043 6.5372701,-37.8892 18.6896101,-77.4356 43.4501701,-106.8506 25.20112,-29.9384 60.982469,-55.8849 99.614929,-62.1251 38.24057,-6.1769 82.63357,3.2117 112.95091,27.323 31.59294,25.1257 50.66514,68.0648 54.23883,108.2724 5.10673,57.4556 -11.34373,120.2061 -49.00349,165.963 24.83175,1.2885 49.54854,4.2914 74.3745,5.644 17.38837,0.9473 34.80945,2.31362 52.21382,1.7298 23.1828,-0.77766 40.78429,-30.28545 69.23862,-6.9597 11.17152,-11.77364 -12.85771,-34.46329 -18.88255,-51.83856 C 424.54489,606.79006 395.3275,556.84376 390.9243,501.99912 382.30886,394.6884 379.40497,270.82566 441.74271,183.05425 472.77504,139.36079 530.11,113.24412 583.32135,106.86628 c 93.58007,-11.216372 194.89837,19.4932 273.59878,71.35149 35.49977,23.39197 61.47585,61.64693 78.26258,100.70616 22.82618,53.11177 37.57383,114.78675 26.11796,171.44942 -16.10162,79.64134 -67.11569,153.35785 -127.44031,207.79079 -36.55322,32.9832 -133.15543,63.921 -133.15543,63.921 L 932.0115,710.12922 c 0,0 -2.04383,-96.92099 -12.97875,-143.78554 -5.81565,-24.92453 -27.6537,-71.62932 -27.6537,-71.62932 l 151.64975,-2.60483 c 0,0 -18.5611,47.6583 -20.5865,72.79276 -6.3166,78.38734 27.0237,234.37147 27.0237,234.37147 0,0 -228.98989,-18.32825 -343.44049,-13.21305 C 664.37409,787.92226 581.96626,802 581.96626,802 l -4.43665,-130.43276 c 0,0 40.2616,1.40116 59.69359,-2.99414 20.14367,-4.55628 40.51065,-11.65275 57.19199,-23.82895 51.86129,-37.85509 108.97362,-84.5267 124.7537,-146.76487 17.73988,-69.96782 10.02825,-164.81091 -44.69323,-211.88276 -59.70041,-51.35476 -170.11604,-57.02537 -235.85238,-13.66427 -56.52769,37.28688 -67.34131,123.36832 -69.03194,191.06494 -1.95047,78.10103 54.0802,147.35493 68.53926,224.13065 z"
   inkscape:path-effect="#path-effect860;#path-effect856" /><g
   style="clip-rule:evenodd;fill-rule:evenodd;image-rendering:optimizeQuality;shape-rendering:geometricPrecision;text-rendering:geometricPrecision"
   id="g872"
   transform="translate(954.96814)" /></svg>
