<?xml version="1.0" encoding="UTF-8" standalone="no"?>
<svg
   xmlns:dc="http://purl.org/dc/elements/1.1/"
   xmlns:cc="http://creativecommons.org/ns#"
   xmlns:rdf="http://www.w3.org/1999/02/22-rdf-syntax-ns#"
   xmlns:svg="http://www.w3.org/2000/svg"
   xmlns="http://www.w3.org/2000/svg"
   xmlns:sodipodi="http://sodipodi.sourceforge.net/DTD/sodipodi-0.dtd"
   xmlns:inkscape="http://www.inkscape.org/namespaces/inkscape"
   xml:space="preserve"
   width="1000"
   height="1000"
   version="1.1"
   style="clip-rule:evenodd;fill-rule:evenodd;image-rendering:optimizeQuality;shape-rendering:geometricPrecision;text-rendering:geometricPrecision"
   viewBox="0 0 1000 1000"
   id="svg10"
   sodipodi:docname="ഹൃ.svg"
   inkscape:version="1.0.2 (e86c870879, 2021-01-15)"><metadata
   id="metadata14"><rdf:RDF><cc:Work
       rdf:about=""><dc:format>image/svg+xml</dc:format><dc:type
         rdf:resource="http://purl.org/dc/dcmitype/StillImage" /><dc:title /></cc:Work></rdf:RDF></metadata><sodipodi:namedview
   pagecolor="#ffffff"
   bordercolor="#666666"
   borderopacity="1"
   objecttolerance="10"
   gridtolerance="10"
   guidetolerance="10"
   inkscape:pageopacity="0"
   inkscape:pageshadow="2"
   inkscape:window-width="1920"
   inkscape:window-height="1007"
   id="namedview12"
   showgrid="false"
   inkscape:zoom="0.79682018"
   inkscape:cx="365.69573"
   inkscape:cy="578.19323"
   inkscape:window-x="1920"
   inkscape:window-y="0"
   inkscape:window-maximized="1"
   inkscape:current-layer="svg10"
   showguides="true"
   inkscape:guide-bbox="true"
   inkscape:document-rotation="0"><sodipodi:guide
     position="0,1000"
     orientation="0,1"
     id="guide16"
     inkscape:label=""
     inkscape:locked="true"
     inkscape:color="rgb(0,0,255)" /><sodipodi:guide
     position="1763.3122,2036.1693"
     orientation="1000,0"
     id="guide18" /><sodipodi:guide
     position="0,200"
     orientation="0,1"
     id="guide20"
     inkscape:label="base"
     inkscape:locked="true"
     inkscape:color="rgb(0,0,255)" /><inkscape:grid
     type="xygrid"
     id="grid24"
     originx="-473.37552"
     originy="-489.69235" /><sodipodi:guide
     position="0,0"
     orientation="0,1"
     id="guide34"
     inkscape:label="bottom"
     inkscape:locked="true"
     inkscape:color="rgb(0,0,255)" /><sodipodi:guide
     position="225.05109,1693.3186"
     orientation="0,1"
     id="guide44"
     inkscape:label=""
     inkscape:locked="false"
     inkscape:color="rgb(0,0,255)" /><sodipodi:guide
     position="0,900"
     orientation="0,1"
     id="guide46"
     inkscape:label=""
     inkscape:locked="true"
     inkscape:color="rgb(0,0,255)" /><sodipodi:guide
     position="876.59615,441.83775"
     orientation="-1,0"
     id="guide841"
     inkscape:label="width"
     inkscape:locked="false"
     inkscape:color="rgb(0,0,255)" /><sodipodi:guide
     position="0,1000"
     orientation="0,1000"
     id="guide860" /><sodipodi:guide
     position="1001.8805,397.62645"
     orientation="1000,0"
     id="guide862" /><sodipodi:guide
     position="1000,0"
     orientation="0,-1000"
     id="guide864" /><sodipodi:guide
     position="0,0"
     orientation="-1000,0"
     id="guide866" /></sodipodi:namedview>
 <defs
   id="defs4"><inkscape:path-effect
   effect="fillet_chamfer"
   id="path-effect857"
   is_visible="true"
   lpeversion="1"
   satellites_param="F,0,1,1,0,19.294809,0,1 @ F,0,1,1,0,19.294809,0,1 @ F,0,0,1,0,0,0,1 @ F,0,0,1,0,0,0,1 @ F,0,0,1,0,0,0,1 @ F,0,0,1,0,0,0,1 @ F,0,0,1,0,0,0,1 @ F,0,0,1,0,0,0,1 @ F,0,0,1,0,0,0,1 @ F,0,0,1,0,0,0,1 @ F,0,0,1,0,0,0,1 @ F,0,0,1,0,0,0,1 @ F,0,0,1,0,0,0,1 @ F,0,0,1,0,0,0,1 @ F,0,0,1,0,0,0,1 @ F,0,0,1,0,0,0,1 @ F,0,0,1,0,0,0,1 @ F,0,0,1,0,0,0,1 @ F,0,0,1,0,0,0,1 @ F,0,0,1,0,0,0,1 @ F,0,0,1,0,0,0,1 @ F,0,0,1,0,0,0,1 @ F,0,0,1,0,0,0,1 @ F,0,0,1,0,0,0,1 @ F,0,0,1,0,0,0,1 @ F,0,0,1,0,0,0,1 @ F,0,0,1,0,0,0,1 @ F,0,0,1,0,0,0,1 @ F,0,0,1,0,0,0,1 @ F,0,0,1,0,0,0,1 @ F,0,0,1,0,0,0,1 @ F,0,0,1,0,0,0,1 @ F,0,0,1,0,0,0,1 @ F,0,0,1,0,0,0,1 @ F,0,0,1,0,0,0,1 @ F,0,0,1,0,0,0,1 @ F,0,0,1,0,0,0,1 @ F,0,0,1,0,0,0,1 @ F,0,0,1,0,0,0,1 @ F,0,0,1,0,0,0,1 @ F,0,0,1,0,0,0,1 @ F,0,0,1,0,0,0,1 @ F,0,0,1,0,0,0,1 @ F,0,0,1,0,0,0,1 @ F,0,0,1,0,0,0,1 @ F,0,0,1,0,0,0,1 @ F,0,0,1,0,0,0,1 @ F,0,0,1,0,0,0,1 @ F,0,0,1,0,0,0,1 @ F,0,0,1,0,0,0,1 @ F,0,0,1,0,0,0,1 @ F,0,0,1,0,0,0,1 @ F,0,0,1,0,0,0,1 @ F,0,0,1,0,0,0,1 @ F,0,0,1,0,0,0,1 @ F,0,0,1,0,0,0,1 @ F,0,0,1,0,0,0,1 @ F,0,0,1,0,0,0,1 @ F,0,1,1,0,19.294809,0,1 @ F,0,1,1,0,19.294809,0,1 @ F,0,0,1,0,0,0,1 @ F,0,0,1,0,0,0,1 @ F,0,0,1,0,0,0,1 @ F,0,0,1,0,0,0,1 @ F,0,0,1,0,0,0,1 @ F,0,0,1,0,0,0,1 @ F,0,0,1,0,0,0,1 @ F,0,0,1,0,0,0,1 @ F,0,0,1,0,0,0,1"
   unit="px"
   method="auto"
   mode="F"
   radius="0"
   chamfer_steps="1"
   flexible="false"
   use_knot_distance="true"
   apply_no_radius="true"
   apply_with_radius="true"
   only_selected="true"
   hide_knots="false" /><inkscape:path-effect
   effect="fillet_chamfer"
   id="path-effect856"
   is_visible="true"
   lpeversion="1"
   satellites_param="F,0,1,1,0,26.522418,0,1 @ F,0,1,1,0,26.522418,0,1 @ F,0,0,1,0,0,0,1 @ F,0,0,1,0,0,0,1 @ F,0,0,1,0,0,0,1 @ F,0,0,1,0,0,0,1 @ F,0,0,1,0,0,0,1 @ F,0,0,1,0,0,0,1 @ F,0,0,1,0,0,0,1 @ F,0,0,1,0,0,0,1 @ F,0,0,1,0,0,0,1 @ F,0,0,1,0,0,0,1 @ F,0,0,1,0,0,0,1 @ F,0,0,1,0,0,0,1 @ F,0,0,1,0,0,0,1 @ F,0,0,1,0,0,0,1 @ F,0,0,1,0,0,0,1 @ F,0,0,1,0,0,0,1 @ F,0,0,1,0,0,0,1 @ F,0,0,1,0,0,0,1 @ F,0,0,1,0,0,0,1 @ F,0,0,1,0,0,0,1 @ F,0,0,1,0,0,0,1 @ F,0,0,1,0,0,0,1 @ F,0,0,1,0,0,0,1 @ F,0,1,1,0,26.522418,0,1 @ F,0,1,1,0,26.522418,0,1 @ F,0,0,1,0,0,0,1 @ F,0,0,1,0,0,0,1 @ F,0,0,1,0,0,0,1 @ F,0,0,1,0,0,0,1 @ F,0,0,1,0,0,0,1 @ F,0,0,1,0,0,0,1 @ F,0,0,1,0,0,0,1 @ F,0,0,1,0,0,0,1 @ F,0,0,1,0,0,0,1 @ F,0,0,1,0,0,0,1 @ F,0,0,1,0,0,0,1 @ F,0,0,1,0,0,0,1 @ F,0,0,1,0,0,0,1 @ F,0,0,1,0,0,0,1 @ F,0,0,1,0,0,0,1 @ F,0,1,1,0,26.522418,0,1 @ F,0,1,1,0,26.522418,0,1 @ F,0,0,1,0,0,0,1 @ F,0,0,1,0,0,0,1 @ F,0,0,1,0,0,0,1 @ F,0,0,1,0,0,0,1 @ F,0,0,1,0,0,0,1 @ F,0,0,1,0,0,0,1 @ F,0,0,1,0,0,0,1 @ F,0,0,1,0,0,0,1 @ F,0,0,1,0,0,0,1"
   unit="px"
   method="auto"
   mode="F"
   radius="0"
   chamfer_steps="1"
   flexible="false"
   use_knot_distance="true"
   apply_no_radius="true"
   apply_with_radius="true"
   only_selected="true"
   hide_knots="false" /><inkscape:path-effect
   effect="fillet_chamfer"
   id="path-effect855"
   is_visible="true"
   lpeversion="1"
   satellites_param="F,0,1,1,0,23.524697,0,1 @ F,0,1,1,0,23.524697,0,1 @ F,0,0,1,0,0,0,1 @ F,0,0,1,0,0,0,1 @ F,0,0,1,0,0,0,1 @ F,0,0,1,0,0,0,1 @ F,0,0,1,0,0,0,1 @ F,0,0,1,0,0,0,1 @ F,0,0,1,0,0,0,1 @ F,0,0,1,0,0,0,1 @ F,0,0,1,0,0,0,1 @ F,0,0,1,0,0,0,1 @ F,0,0,1,0,0,0,1 @ F,0,0,1,0,0,0,1 @ F,0,0,1,0,0,0,1 @ F,0,0,1,0,0,0,1 @ F,0,0,1,0,0,0,1 @ F,0,0,1,0,0,0,1 @ F,0,0,1,0,0,0,1 @ F,0,0,1,0,0,0,1 @ F,0,0,1,0,0,0,1 @ F,0,0,1,0,0,0,1 @ F,0,0,1,0,0,0,1 @ F,0,0,1,0,0,0,1 @ F,0,1,1,0,23.524697,0,1 @ F,0,1,1,0,23.524697,0,1 @ F,0,0,1,0,0,0,1 @ F,0,0,1,0,0,0,1 @ F,0,0,1,0,0,0,1 @ F,0,0,1,0,0,0,1 @ F,0,0,1,0,0,0,1 @ F,0,0,1,0,0,0,1 @ F,0,0,1,0,0,0,1 @ F,0,0,1,0,0,0,1 @ F,0,0,1,0,0,0,1 @ F,0,0,1,0,0,0,1 @ F,0,0,1,0,0,0,1 @ F,0,0,1,0,0,0,1 @ F,0,0,1,0,0,0,1 @ F,0,0,1,0,0,0,1 @ F,0,0,1,0,0,0,1 @ F,0,0,1,0,0,0,1 @ F,0,1,1,0,23.524697,0,1 @ F,0,1,1,0,23.524697,0,1 @ F,0,0,1,0,0,0,1 @ F,0,0,1,0,0,0,1 @ F,0,0,1,0,0,0,1 @ F,0,0,1,0,0,0,1 @ F,0,0,1,0,0,0,1 @ F,0,0,1,0,0,0,1 @ F,0,0,1,0,0,0,1 @ F,0,0,1,0,0,0,1"
   unit="px"
   method="auto"
   mode="F"
   radius="0"
   chamfer_steps="1"
   flexible="false"
   use_knot_distance="true"
   apply_no_radius="true"
   apply_with_radius="true"
   only_selected="true"
   hide_knots="false" /><inkscape:path-effect
   effect="fillet_chamfer"
   id="path-effect853"
   is_visible="true"
   lpeversion="1"
   satellites_param="F,0,0,1,0,26.721097,0,1 @ F,0,0,1,0,30.432235,0,1 @ F,0,0,1,0,0,0,1 @ F,0,0,1,0,0,0,1 @ F,0,0,1,0,0,0,1 @ F,0,0,1,0,0,0,1 @ F,0,0,1,0,0,0,1 @ F,0,0,1,0,0,0,1 @ F,0,0,1,0,0,0,1 @ F,0,0,1,0,0,0,1 @ F,0,0,1,0,0,0,1 @ F,0,0,1,0,0,0,1 @ F,0,0,1,0,0,0,1 @ F,0,0,1,0,0,0,1 @ F,0,0,1,0,0,0,1 @ F,0,0,1,0,0,0,1 @ F,0,0,1,0,0,0,1 @ F,0,0,1,0,0,0,1 @ F,0,0,1,0,0,0,1 @ F,0,0,1,0,0,0,1 @ F,0,0,1,0,0,0,1 @ F,0,0,1,0,0,0,1 @ F,0,0,1,0,0,0,1 @ F,0,0,1,0,0,0,1 @ F,0,0,1,0,28.946078,0,1 @ F,0,0,1,0,34.1368,0,1 @ F,0,0,1,0,0,0,1 @ F,0,0,1,0,0,0,1 @ F,0,0,1,0,0,0,1 @ F,0,0,1,0,0,0,1 @ F,0,0,1,0,0,0,1 @ F,0,0,1,0,0,0,1 @ F,0,0,1,0,0,0,1 @ F,0,0,1,0,0,0,1 @ F,0,0,1,0,0,0,1 @ F,0,0,1,0,0,0,1 @ F,0,0,1,0,0,0,1 @ F,0,0,1,0,0,0,1 @ F,0,0,1,0,0,0,1 @ F,0,0,1,0,0,0,1 @ F,0,0,1,0,0,0,1 @ F,0,0,1,0,0,0,1 @ F,0,0,1,0,0,0,1 @ F,0,0,1,0,0,0,1 @ F,0,0,1,0,0,0,1 @ F,0,0,1,0,0,0,1 @ F,0,0,1,0,0,0,1 @ F,0,0,1,0,0,0,1 @ F,0,0,1,0,0,0,1 @ F,0,0,1,0,0,0,1 @ F,0,0,1,0,0,0,1 @ F,0,0,1,0,0,0,1 @ F,0,0,1,0,0,0,1 @ F,0,0,1,0,0,0,1 @ F,0,0,1,0,0,0,1 @ F,0,0,1,0,0,0,1"
   unit="px"
   method="auto"
   mode="F"
   radius="0"
   chamfer_steps="1"
   flexible="false"
   use_knot_distance="true"
   apply_no_radius="true"
   apply_with_radius="true"
   only_selected="true"
   hide_knots="false" /><inkscape:path-effect
   effect="spiro"
   id="path-effect858"
   is_visible="true"
   lpeversion="1" /><inkscape:path-effect
   effect="spiro"
   id="path-effect854"
   is_visible="true"
   lpeversion="1" />
  <style
   type="text/css"
   id="style2">
   <![CDATA[
    .fil0 {fill:#EF7F1A;fill-rule:nonzero}
   ]]>
  </style>
 <inkscape:path-effect
   effect="spiro"
   id="path-effect1214"
   is_visible="true"
   lpeversion="1" /><inkscape:path-effect
   effect="spiro"
   id="path-effect1195"
   is_visible="true"
   lpeversion="1" /><inkscape:path-effect
   effect="spiro"
   id="path-effect992"
   is_visible="true"
   lpeversion="1" /><inkscape:path-effect
   effect="spiro"
   id="path-effect287"
   is_visible="true"
   lpeversion="1" /><inkscape:path-effect
   effect="spiro"
   id="path-effect1032"
   is_visible="true"
   lpeversion="1" /><inkscape:path-effect
   effect="spiro"
   id="path-effect1218"
   is_visible="true"
   lpeversion="1" /><inkscape:path-effect
   effect="spiro"
   id="path-effect309"
   is_visible="true"
   lpeversion="1" /><inkscape:path-effect
   effect="spiro"
   id="path-effect860"
   is_visible="true"
   lpeversion="1" /></defs>
 
<path
   id="path856"
   style="clip-rule:evenodd;fill:#2d2d2d;fill-rule:nonzero;stroke:none;stroke-width:1px;stroke-linecap:butt;stroke-linejoin:miter;stroke-opacity:1;image-rendering:optimizeQuality;shape-rendering:geometricPrecision;text-rendering:geometricPrecision"
   d="M 108.90069,842.28851 19.064,828.26687 C 8.5352435,826.62355 1.6974333,816.82029 3.5740828,806.33077 5.7585603,794.12064 7.7245231,781.87141 9.470639,769.59093 19.157181,701.4652 22.143003,632.05396 40.179984,565.64906 50.562521,527.42474 66.107985,490.15397 90.05909,458.60654 c 23.95111,-31.54743 56.79712,-57.15049 94.8301,-68.2134 28.08038,-8.16793 58.58017,-8.16498 86.46834,0.63688 27.88818,8.80186 53.01108,26.45809 70.2175,50.1047 13.23844,18.19345 21.72605,39.70163 25.26632,61.92154 3.54027,22.21991 2.19074,45.12609 -3.15868,66.98111 -11.76431,48.06301 -43.50475,90.90721 -86.05659,116.16178 24.83361,1.25708 49.63558,3.1392 74.3745,5.644 17.3641,1.7581 34.88694,3.82309 52.21382,1.7298 17.30837,-2.09105 34.62165,-8.73865 46.50483,-21.4957 8.40705,-9.02529 13.69559,-20.70594 16.01448,-32.82028 2.31889,-12.11434 1.76896,-24.65998 -0.50829,-36.78222 -6.16744,-32.83044 -24.45508,-61.84638 -39.69554,-91.57185 -20.55267,-40.08656 -36.10221,-83.12337 -41.73186,-127.81847 -4.84888,-38.49642 -2.20469,-78.07954 9.20254,-115.1654 15.42406,-50.14491 47.24092,-95.34428 90.12587,-125.56505 42.88495,-30.22078 96.69917,-45.013953 148.87024,-39.48278 62.31644,6.60678 119.72259,41.66872 159.98155,89.69168 40.25896,48.02297 64.31521,108.15573 75.95636,169.73066 23.7262,125.4978 -3.03498,257.80679 -62.91878,370.61885 -34.66011,65.29443 -80.49698,125.1255 -137.55333,172.12826 -57.05634,47.00276 -125.57526,80.87517 -198.45877,93.2315 -31.55195,5.34915 -64.88255,6.51105 -94.67249,-5.18082 -14.89497,-5.8459 -28.65262,-14.91709 -39.0737,-27.05941 -10.42108,-12.14232 -17.38249,-27.42784 -18.61901,-43.38108 -1.61038,-20.77674 6.57448,-41.57929 19.73794,-57.73446 13.16346,-16.15517 30.9807,-28.00424 49.85387,-36.83995 33.77331,-15.8114 71.261,-22.51294 108.52855,-23.84212 37.26755,-1.32919 74.51341,2.55263 111.53117,7.06072 36.5096,4.4462 72.94431,9.50734 109.28347,15.18055 l -100.07997,86.49329 c -57.3287,-39.76339 -132.33397,-52.9392 -199.78235,-35.09481 -7.40019,1.95782 -14.85526,4.33954 -21.0497,8.83673 -3.09722,2.2486 -5.84404,5.01902 -7.85225,8.27725 -2.0082,3.25823 -3.25952,7.01616 -3.35392,10.84239 -0.0919,3.72332 0.91349,7.43899 2.67629,10.71987 1.7628,3.28087 4.26618,6.13567 7.15012,8.49247 5.76787,4.71359 12.92033,7.39313 20.08892,9.41741 44.2627,12.49898 92.5065,2.29207 133.49706,-18.56904 79.38817,-40.4026 134.12071,-116.91544 175.3251,-195.89044 40.67005,-77.95083 71.65623,-162.79869 74.67093,-250.66959 1.23466,-35.98713 -2.29891,-72.34586 -13.00446,-106.72593 -10.70556,-34.38007 -28.76785,-66.76315 -54.30078,-92.15345 -26.13865,-25.99264 -60.92424,-44.50024 -97.75163,-46.10928 -36.71697,-1.60422 -73.30932,13.98549 -99.60923,39.65696 -26.29991,25.67147 -42.54072,60.78385 -47.93998,97.13708 -6.40335,43.11373 1.85428,87.21541 15.22785,128.69968 13.37357,41.48426 31.8052,81.15165 46.58165,122.15718 7.04279,19.54416 13.29128,39.57069 15.2714,60.2505 1.77522,18.53984 0.0319,37.51393 -6.0573,55.11502 -6.08921,17.60109 -16.60989,33.78439 -30.88523,45.74648 -20.08041,16.82647 -46.51846,24.55052 -72.64804,26.44733 -26.12958,1.8968 -52.31315,-1.59123 -78.30577,-4.86793 -37.68062,-4.75012 -75.67138,-9.07891 -113.56395,-6.52047 -16.16553,1.09147 -32.24583,3.43905 -48.04996,7.00887 -10.39272,2.34749 -19.64645,-3.75729 -20.84091,-14.34637 l -10.60816,-94.04377 c -1.19446,-10.58908 6.42485,-20.54089 16.52043,-23.92094 12.10404,-4.05251 23.6155,-9.87872 34.02565,-17.26619 11.04653,-7.83907 20.90429,-17.47721 28.30973,-28.81901 7.40544,-11.34179 12.30598,-24.42386 13.36298,-37.92792 0.92542,-11.82302 -1.13412,-23.90627 -6.20583,-34.62626 -5.07171,-10.71998 -13.17556,-20.03167 -23.258,-26.27545 -13.75695,-8.5193 -30.7869,-11.05403 -46.75421,-8.43157 -15.96731,2.62245 -30.88814,10.15737 -43.54334,20.24092 -24.04857,19.16169 -39.97465,47.23409 -48.28642,76.83846 -8.311775,29.60437 -9.458849,60.79465 -7.775855,91.49761 2.398915,43.76352 10.469835,87.21131 23.921695,128.92444 3.27042,10.1413 -2.26661,16.91473 -12.79537,15.27141 z"
   sodipodi:nodetypes="ccaaaaacaaaaaaaaaaaaaaccaaaaaaaaaaaaaaccaaaaac"
   inkscape:original-d="M 127.96469,845.264 0,825.29138 C 4.99246,798.86038 6.4899245,788.18684 9.470639,769.59093 20.35112,701.71041 12.157915,628.42576 40.179984,565.64906 71.060392,496.46895 112.15809,411.5987 184.88919,390.39314 c 52.70459,-15.36661 120.74562,9.24209 156.68584,50.74158 28.53984,32.95441 32.21081,86.49462 22.10764,128.90265 -11.16777,46.8767 -48.39683,70.40488 -86.05659,116.16178 24.83175,1.2885 49.54854,4.2914 74.3745,5.644 17.38837,0.9473 35.14654,5.1883 52.21382,1.7298 16.73732,-3.3915 35.78639,-8.20076 46.50483,-21.4957 14.91866,-18.50481 17.75899,-45.93989 15.50619,-69.6025 C 463.07235,569.356 438.32144,542.01162 426.52988,510.9029 410.64421,468.99305 390.07099,427.5927 384.79802,383.08443 380.26726,344.84105 374.76257,301.28044 394.00056,267.91903 442.36472,184.04869 536.81132,91.839302 632.99667,102.8712 749.12402,116.19033 836.07824,250.11769 868.93458,362.29354 904.1573,482.54852 869.9301,625.13083 806.0158,732.91239 733.22014,855.67098 611.95399,983.4736 470.0037,998.27215 c -56.3941,5.87915 -139.00536,-20.518 -152.3652,-75.62131 -9.2223,-38.03782 35.3616,-75.59497 69.59181,-94.57441 64.33822,-35.67328 146.52875,-19.05848 220.05972,-16.7814 36.75998,1.13837 108.4731,12.38341 109.28347,15.18055 l -100.07997,86.49329 c 5.93325,-6.34045 -134.62014,-53.13678 -199.78235,-35.09481 -13.7124,3.79666 -31.90497,13.7324 -32.25587,27.95637 -0.3404,13.79834 16.78178,24.38479 29.91533,28.62975 42.74991,13.8174 93.84503,2.5542 133.49706,-18.56904 77.34088,-41.20066 132.56229,-119.40222 175.3251,-195.89044 42.54539,-76.09934 76.27538,-163.49937 74.67093,-250.66959 -1.28794,-69.97466 -20.72812,-146.64258 -67.30524,-198.87938 -23.97648,-26.88991 -62.14788,-51.61488 -97.75163,-46.10928 -66.2805,10.24932 -128.31873,72.54186 -147.54921,136.79404 -24.69313,82.50375 40.92817,167.30693 61.8095,250.85686 5.0236,20.10033 16.33646,39.55931 15.2714,60.2505 -1.84058,35.75737 -9.12084,78.32419 -36.94253,100.8615 -39.49655,31.99467 -100.16984,19.42899 -150.95381,21.5794 -37.88305,1.60413 -75.71314,-8.75993 -113.56395,-6.52047 -22.55045,1.3342 -53.24045,7.13482 -66.72812,11.83572 L 179.21648,667.60979 c 6.3507,-1.5704 38.19697,-9.6874 52.70883,-22.01391 19.99093,-16.98049 40.26323,-40.55557 41.67271,-66.74693 1.21185,-22.51893 -9.62003,-50.18751 -29.46383,-60.90171 -26.71078,-14.42187 -66.87977,-7.50552 -90.29755,11.80935 C 108.21148,567.38801 101.29579,639.05556 97.774365,698.09266 94.792586,748.08248 127.96469,845.264 127.96469,845.264 Z"
   inkscape:path-effect="#path-effect860;#path-effect857" /></svg>
