<?xml version="1.0" encoding="UTF-8" standalone="no"?>
<svg
   xmlns:dc="http://purl.org/dc/elements/1.1/"
   xmlns:cc="http://creativecommons.org/ns#"
   xmlns:rdf="http://www.w3.org/1999/02/22-rdf-syntax-ns#"
   xmlns:svg="http://www.w3.org/2000/svg"
   xmlns="http://www.w3.org/2000/svg"
   xmlns:sodipodi="http://sodipodi.sourceforge.net/DTD/sodipodi-0.dtd"
   xmlns:inkscape="http://www.inkscape.org/namespaces/inkscape"
   xml:space="preserve"
   width="1000"
   height="1000"
   version="1.1"
   style="clip-rule:evenodd;fill-rule:evenodd;image-rendering:optimizeQuality;shape-rendering:geometricPrecision;text-rendering:geometricPrecision"
   viewBox="0 0 1000 1000"
   id="svg10"
   sodipodi:docname="ഹ്നൂ.svg"
   inkscape:version="1.0.1 (3bc2e813f5, 2020-09-07)"><metadata
   id="metadata14"><rdf:RDF><cc:Work
       rdf:about=""><dc:format>image/svg+xml</dc:format><dc:type
         rdf:resource="http://purl.org/dc/dcmitype/StillImage" /><dc:title></dc:title></cc:Work></rdf:RDF></metadata><sodipodi:namedview
   pagecolor="#ffffff"
   bordercolor="#666666"
   borderopacity="1"
   objecttolerance="10"
   gridtolerance="10"
   guidetolerance="10"
   inkscape:pageopacity="0"
   inkscape:pageshadow="2"
   inkscape:window-width="1920"
   inkscape:window-height="1015"
   id="namedview12"
   showgrid="false"
   inkscape:zoom="0.56343695"
   inkscape:cx="642.36262"
   inkscape:cy="507.19701"
   inkscape:window-x="1920"
   inkscape:window-y="0"
   inkscape:window-maximized="1"
   inkscape:current-layer="svg10"
   showguides="true"
   inkscape:guide-bbox="true"
   inkscape:document-rotation="0"><sodipodi:guide
     position="0,1000"
     orientation="0,1"
     id="guide16"
     inkscape:label=""
     inkscape:locked="true"
     inkscape:color="rgb(0,0,255)" /><sodipodi:guide
     position="1763.3122,2036.1693"
     orientation="1000,0"
     id="guide18" /><sodipodi:guide
     position="0,200"
     orientation="0,1"
     id="guide20"
     inkscape:label="base"
     inkscape:locked="true"
     inkscape:color="rgb(0,0,255)" /><inkscape:grid
     type="xygrid"
     id="grid24"
     originx="-473.37552"
     originy="-489.69235" /><sodipodi:guide
     position="0,0"
     orientation="0,1"
     id="guide34"
     inkscape:label="bottom"
     inkscape:locked="true"
     inkscape:color="rgb(0,0,255)" /><sodipodi:guide
     position="225.05109,1693.3186"
     orientation="0,1"
     id="guide44"
     inkscape:label=""
     inkscape:locked="false"
     inkscape:color="rgb(0,0,255)" /><sodipodi:guide
     position="0,900"
     orientation="0,1"
     id="guide46"
     inkscape:label=""
     inkscape:locked="true"
     inkscape:color="rgb(0,0,255)" /><sodipodi:guide
     position="1206.5099,964.80526"
     orientation="-1,0"
     id="guide841"
     inkscape:label="width"
     inkscape:locked="false"
     inkscape:color="rgb(0,0,255)" /><sodipodi:guide
     position="0,1000"
     orientation="0,1000"
     id="guide860" /><sodipodi:guide
     position="1000,1000"
     orientation="1000,0"
     id="guide862" /><sodipodi:guide
     position="1000,0"
     orientation="0,-1000"
     id="guide864" /><sodipodi:guide
     position="0,0"
     orientation="-1000,0"
     id="guide866" /></sodipodi:namedview>
 <defs
   id="defs4"><inkscape:path-effect
   effect="spiro"
   id="path-effect858"
   is_visible="true"
   lpeversion="1" /><inkscape:path-effect
   effect="spiro"
   id="path-effect854"
   is_visible="true"
   lpeversion="1" />
  <style
   type="text/css"
   id="style2">
   <![CDATA[
    .fil0 {fill:#EF7F1A;fill-rule:nonzero}
   ]]>
  </style>
 <inkscape:path-effect
   effect="spiro"
   id="path-effect1214"
   is_visible="true"
   lpeversion="1" /><inkscape:path-effect
   effect="spiro"
   id="path-effect1195"
   is_visible="true"
   lpeversion="1" /><inkscape:path-effect
   effect="spiro"
   id="path-effect992"
   is_visible="true"
   lpeversion="1" /><inkscape:path-effect
   effect="spiro"
   id="path-effect287"
   is_visible="true"
   lpeversion="1" /><inkscape:path-effect
   effect="spiro"
   id="path-effect1032"
   is_visible="true"
   lpeversion="1" /><inkscape:path-effect
   effect="spiro"
   id="path-effect1218"
   is_visible="true"
   lpeversion="1" /><inkscape:path-effect
   effect="spiro"
   id="path-effect309"
   is_visible="true"
   lpeversion="1" /><inkscape:path-effect
   effect="spiro"
   id="path-effect860"
   is_visible="true"
   lpeversion="1" /><inkscape:path-effect
   effect="spiro"
   id="path-effect862"
   is_visible="true"
   lpeversion="1" /><inkscape:path-effect
   effect="spiro"
   id="path-effect1521"
   is_visible="true"
   lpeversion="1" /><style
   type="text/css"
   id="style2-3">
   <![CDATA[
    .fil0 {fill:#EF7F1A;fill-rule:nonzero}
   ]]>
  </style><inkscape:path-effect
   effect="spiro"
   id="path-effect1176"
   is_visible="true"
   lpeversion="1" /><inkscape:path-effect
   effect="spiro"
   id="path-effect1026"
   is_visible="true"
   lpeversion="1" /><inkscape:path-effect
   effect="spiro"
   id="path-effect1030"
   is_visible="true"
   lpeversion="1" /></defs>
 
<path
   id="path856"
   style="clip-rule:evenodd;fill:#2d2d2d;fill-rule:nonzero;stroke:none;stroke-width:1px;stroke-linecap:butt;stroke-linejoin:miter;stroke-opacity:1;image-rendering:optimizeQuality;shape-rendering:geometricPrecision;text-rendering:geometricPrecision"
   d="m 237.78191,804.60455 c -14.07578,2.25639 -28.02742,5.28698 -41.77083,9.0735 l -8.86829,-119.0787 c 6.3507,-1.57035 12.45024,-4.1519 17.99872,-7.6177 13.32943,-8.32609 23.19022,-21.69162 28.37703,-36.5272 5.1868,-14.83555 5.85654,-31.05326 3.13475,-46.5319 -3.97643,-22.61368 -15.37485,-44.06832 -32.76151,-59.0648 -17.38665,-14.99647 -40.79179,-23.17937 -63.65086,-21.0224 -15.94834,1.50487 -31.32687,7.92439 -43.94311,17.7958 -12.616258,9.87143 -22.478699,23.12358 -28.80447,37.8409 -10.147903,23.60977 -11.104332,50.49647 -5.97336,75.6773 5.130974,25.18084 16.063506,48.85056 28.95175,71.0833 30.53614,52.67607 72.65201,98.59828 122.49596,133.5669 v -2e-4 l -182.535819,31.348 c 4.992464,-26.43097 6.1422,-53.58461 3.40187,-80.343 C 29.768252,771.10624 17.277512,732.80856 9.543481,693.65945 2.0042878,655.49659 -0.9954826,616.14441 4.374731,577.61645 9.7449397,539.08852 23.774684,501.3408 47.8249,470.76585 c 24.723497,-31.43089 60.31071,-54.75417 99.61493,-62.1251 39.30421,-7.37093 82.00182,1.99898 112.95091,27.323 32.03106,26.20934 49.51388,67.15558 54.23883,108.2724 6.76555,58.87426 -11.34375,120.20609 -49.00349,165.963 24.81674,1.52624 49.61163,3.40783 74.3745,5.644 17.36921,1.5685 34.84588,3.31231 52.21382,1.7298 23.33036,-2.12579 46.07715,-10.36187 65.36029,-23.66544 -31.61634,-58.68989 -61.02817,-118.5673 -88.15265,-179.46359 -27.21174,-61.09219 -52.49405,-124.90567 -54.2881,-191.7601 -0.89702,-33.42722 4.27133,-67.2712 17.50654,-97.9797 13.23522,-30.70851 34.78485,-58.16645 62.90754,-76.25782 36.28772,-23.34395 82.22902,-29.91245 124.42415,-20.89527 42.19513,9.01718 80.53797,32.91105 109.83646,64.58655 36.61703,39.58779 59.559,91.59423 64.10948,145.32777 9.33409,-36.31828 23.2968,-71.44431 41.44351,-104.25955 26.98215,-48.79262 64.64314,-93.52514 114.58539,-118.31482 24.97113,-12.39484 52.72896,-19.530158 80.60484,-19.178069 27.87589,0.352088 55.82423,8.364609 78.83405,24.104279 30.2937,20.72217 50.6196,53.66831 62.2107,88.49308 11.5911,34.82478 15.1826,71.75152 17.7165,108.36707 8.093,116.94723 5.5884,237.65938 -37.4698,346.69213 -15.1316,38.31657 -35.8671,75.61461 -67.61582,101.86613 -15.87438,13.12576 -34.37782,23.26599 -54.3316,28.37755 -19.95378,5.11156 -41.37344,5.06664 -60.95909,-1.31174 -30.84915,-10.04652 -55.30394,-35.3171 -69.05543,-64.70246 -13.7515,-29.38536 -17.65919,-62.57744 -16.43751,-94.99827 1.66822,-44.27118 12.82682,-88.58299 35.48885,-126.65073 22.66203,-38.06775 57.21371,-69.57732 98.58312,-85.42953 28.51003,-10.92466 59.77937,-14.28956 90.06898,-10.45406 30.2896,3.83551 59.5684,14.79854 85.3576,31.14131 51.5784,32.68554 88.1366,86.4198 105.4357,144.98107 13.9312,47.16023 15.982,97.79248 5.8103,145.90383 -10.1717,48.11135 -32.5554,93.60248 -64.5441,130.95066 -33.453,39.05778 -76.8898,68.85469 -123.7279,90.08701 -46.83801,21.23232 -97.0948,34.15348 -147.82306,42.5949 -54.37375,9.04806 -109.58579,13.05196 -164.69608,11.94346 l 5.23199,-167.92141 c 71.97711,37.15781 157.11492,48.14608 236.16774,30.48087 33.24023,-7.42789 65.52501,-19.83018 94.21881,-38.18094 28.6938,-18.35075 53.7361,-42.75921 71.2493,-71.97178 21.207,-35.37396 30.9216,-77.94148 24.8345,-118.73367 -6.087,-40.79219 -28.441,-79.35192 -62.1809,-103.07268 -29.5542,-20.77803 -67.5755,-29.65067 -102.99846,-22.55192 -35.42296,7.09876 -67.55369,30.50528 -83.81324,62.7668 -8.04702,15.96656 -12.25915,34.34949 -8.95274,51.92086 1.65321,8.78568 5.1857,17.25679 10.58124,24.38487 5.39553,7.12808 12.67822,12.878 21.0112,16.11571 10.26351,3.9878 21.86541,4.04658 32.42821,0.937 10.5628,-3.10958 20.09985,-9.27421 27.88697,-17.05901 15.57423,-15.56959 23.91432,-36.92275 29.60729,-58.19618 15.06603,-56.29855 14.35293,-115.40979 15.40143,-173.67996 0.5676,-31.54422 1.6463,-63.46743 -5.2046,-94.26396 -3.4254,-15.39826 -8.8538,-30.4321 -16.97698,-43.95443 -8.12322,-13.52233 -19.00394,-25.51166 -32.26732,-34.05114 -14.32684,-9.22417 -31.21707,-14.24586 -48.23651,-15.07193 -17.01944,-0.82606 -34.14642,2.47675 -49.92941,8.89866 -31.56598,12.84382 -57.1287,37.74895 -75.81397,66.2487 -22.42498,34.20375 -35.79979,73.85239 -42.09062,114.26528 -6.29084,40.41288 -5.67551,81.6574 -1.64353,122.35776 2.91368,29.41185 7.60213,58.64777 14.03136,87.49584 l -164.01333,4.12025 c 11.18671,-20.22951 20.78697,-41.33604 28.68362,-63.06202 24.95758,-68.66556 32.36719,-145.39305 10.17472,-215.00149 -5.23135,-16.40856 -12.10248,-32.40047 -21.71836,-46.68832 -9.61588,-14.28785 -22.0717,-26.8553 -37.07138,-35.31801 -17.53731,-9.89442 -38.254,-13.87583 -58.27483,-11.72569 -20.02083,2.15013 -39.2783,10.34684 -55.0535,22.86083 -17.68445,14.02855 -30.92883,33.32978 -38.78003,54.4934 -7.8512,21.16362 -10.41132,44.13022 -8.61249,66.63143 3.59765,45.00241 24.22297,87.15686 50.45557,123.89936 27.26191,38.1842 60.74264,71.64461 87.55113,110.14851 16.66644,23.93731 30.65008,49.69132 42.41267,76.38227 3.60688,8.18451 7.03106,16.53926 8.62067,25.3409 1.58962,8.80164 1.23814,18.16928 -2.4876,26.30037 -4.1458,9.04781 -12.18141,15.8964 -21.12905,20.25419 -8.94764,4.35779 -18.81791,6.44759 -28.64764,8.00547 -37.46156,5.93714 -75.66445,4.67955 -113.5345,2.56357 -65.61725,-3.66635 -131.84165,-9.83466 -196.73278,0.56759 z"
   sodipodi:nodetypes="sccsaaaaaaassccssaaaaacacccaacaasaaasaaaccaaaaaaaaaaccaaaaaaaaaas"
   inkscape:original-d="m 237.78191,804.60455 c -14.22245,1.31826 -28.28316,4.3726 -41.77083,9.0735 l -8.86829,-119.0787 c 6.3507,-1.5704 12.45025,-4.1519 17.99872,-7.6177 13.32944,-8.326 22.88975,-22.1184 28.37703,-36.5272 5.5327,-14.5279 6.52091,-31.3594 3.13475,-46.5319 -4.90398,-21.9736 -15.42178,-44.7045 -32.76151,-59.0648 -17.20888,-14.2519 -41.31874,-21.7573 -63.65086,-21.0224 -15.79471,0.5198 -31.3861,8.2008 -43.94311,17.7958 -12.59587,9.6248 -23.15049,23.0313 -28.80447,37.8409 -9.02523,23.64 -9.85494,50.6726 -5.97336,75.6773 3.92455,25.2816 16.06351,48.8506 28.95175,71.0833 30.53615,52.6761 72.65201,98.5983 122.49596,133.5669 v -2e-4 l -182.535819,31.348 c 4.99246,-26.431 6.1422,-53.5846 3.40187,-80.343 -4.06549,-39.6981 -16.55623,-77.9958 -24.29026,-117.1449 -7.53919,-38.1629 -11.75197,-77.8874 -5.16875,-116.043 6.53727,-37.8892 18.68961,-77.4356 43.450169,-106.8506 25.20112,-29.9384 60.98247,-55.8849 99.61493,-62.1251 38.24057,-6.1769 82.63357,3.2117 112.95091,27.323 31.59294,25.1257 50.66514,68.0648 54.23883,108.2724 5.10673,57.4556 -11.34373,120.2061 -49.00349,165.963 24.83175,1.2885 49.54854,4.2914 74.3745,5.644 17.38837,0.9473 35.14654,5.1883 52.21382,1.7298 22.17015,-4.03801 49.64248,-32.07484 65.36029,-23.66544 -22.62874,-79.86422 -70.98404,-113.22739 -88.15265,-179.46359 -25.35203,-119.6533 -70.67938,-291.24224 26.12598,-365.99762 62.86984,-48.549489 171.99213,-5.62721 234.26061,43.69128 41.50526,32.87348 64.10948,145.32777 64.10948,145.32777 0,0 15.18453,-77.63076 41.44351,-104.25955 69.40875,-70.38628 182.83674,-151.554744 274.02428,-113.38861 65.3308,27.34388 81.2079,126.04936 79.9272,196.86015 -1.7197,95.08685 21.5147,246.53285 -37.4698,346.69213 -37.8527,64.27616 -110.32203,146.1291 -182.90651,128.93194 -58.75498,-13.92058 -87.67316,-99.35857 -85.49294,-159.70073 3.01985,-83.58047 50.75887,-204.74933 134.07197,-212.08026 98.71138,-8.68587 237.09658,66.17479 280.86228,165.66832 37.9855,86.35326 -0.694,202.4827 -58.7338,276.85449 -61.9807,79.42152 -174.28256,106.4476 -271.55096,132.68191 -53.14384,14.33346 -164.69608,11.94346 -164.69608,11.94346 l 5.23199,-167.92141 c 0,0 158.87324,48.53732 236.16774,30.48087 64.52271,-15.07287 139.15811,-49.3403 165.46811,-110.15272 29.771,-68.81213 24.704,-179.72093 -37.3464,-221.80635 -52.7157,-35.75428 -153.01632,-13.77763 -186.8117,40.21488 -16.82843,26.88559 -7.46868,82.44565 22.6397,92.42144 36.91284,12.2303 71.81802,-39.90355 89.92247,-74.31819 27.05943,-51.43714 21.71493,-115.90339 15.40143,-173.67996 -6.542,-59.8668 -0.6496,-145.20539 -54.4489,-172.26953 -54.80887,-27.57203 -133.96266,13.56897 -173.97989,60.07543 -52.3165,60.80021 -42.78161,156.41846 -43.73415,236.62304 -0.35078,29.53584 14.03136,87.49584 14.03136,87.49584 l -164.01333,4.12025 c 0,0 23.2598,-40.61503 28.68362,-63.06202 16.8512,-69.74039 30.50826,-146.19573 10.17472,-215.00149 -9.53206,-32.25511 -28.15389,-68.12479 -58.78974,-82.00633 -34.57432,-15.66612 -88.01026,-17.14572 -113.32833,11.13514 -54.48145,60.85701 -24.334,168.07482 3.06305,245.02419 15.73151,44.18468 61.4867,71.15606 87.55113,110.14851 16.18411,24.21147 33.45806,48.67062 42.41267,76.38227 5.33009,16.49494 13.95462,36.17142 6.13307,51.64127 -8.60891,17.02712 -31.38547,23.18035 -49.77669,28.25966 -36.48845,10.07743 -75.68309,2.08168 -113.5345,2.56357 -65.57255,0.83481 -170.14394,-1.89689 -196.73278,0.56759 z"
   inkscape:path-effect="#path-effect860" /><g
   style="clip-rule:evenodd;fill-rule:evenodd;image-rendering:optimizeQuality;shape-rendering:geometricPrecision;text-rendering:geometricPrecision"
   id="g892"
   transform="translate(1024.3372,-2.1627393)" /></svg>
