<svg xmlns="http://www.w3.org/2000/svg" xmlns:dc="http://purl.org/dc/elements/1.1/" xmlns:ns1="http://sodipodi.sourceforge.net/DTD/sodipodi-0.dtd" xmlns:ns2="http://www.inkscape.org/namespaces/inkscape" xmlns:ns4="http://creativecommons.org/ns#" xmlns:rdf="http://www.w3.org/1999/02/22-rdf-syntax-ns#" xml:space="preserve" width="1000" height="1000" version="1.1" style="clip-rule:evenodd;fill-rule:evenodd;image-rendering:optimizeQuality;shape-rendering:geometricPrecision;text-rendering:geometricPrecision" viewBox="0 0 1000 1000" id="svg10" ns1:docname="ഹ്നു.svg" ns2:version="1.1.1 (3bf5ae0d25, 2021-09-20)"><metadata id="metadata14"><rdf:RDF><ns4:Work rdf:about=""><dc:format>image/svg+xml</dc:format><dc:type rdf:resource="http://purl.org/dc/dcmitype/StillImage" /><dc:title /></ns4:Work></rdf:RDF></metadata><ns1:namedview pagecolor="#ffffff" bordercolor="#666666" borderopacity="1" objecttolerance="10" gridtolerance="10" guidetolerance="10" ns2:pageopacity="0" ns2:pageshadow="2" ns2:window-width="1920" ns2:window-height="1009" id="namedview12" showgrid="false" ns2:zoom="1.1268739" ns2:cx="603.883" ns2:cy="588.79702" ns2:window-x="0" ns2:window-y="60" ns2:window-maximized="1" ns2:current-layer="svg10" showguides="true" ns2:guide-bbox="true" ns2:document-rotation="0" ns2:pagecheckerboard="0"><ns1:guide position="0,1000" orientation="0,1" id="guide16" ns2:label="" ns2:locked="true" ns2:color="rgb(0,0,255)" /><ns1:guide position="1763.3122,2036.1693" orientation="1000,0" id="guide18" /><ns1:guide position="0,200" orientation="0,1" id="guide20" ns2:label="base" ns2:locked="true" ns2:color="rgb(0,0,255)" /><ns2:grid type="xygrid" id="grid24" originx="-473.37552" originy="-489.69235" /><ns1:guide position="0,0" orientation="0,1" id="guide34" ns2:label="bottom" ns2:locked="true" ns2:color="rgb(0,0,255)" /><ns1:guide position="225.05109,1693.3186" orientation="0,1" id="guide44" ns2:label="" ns2:locked="false" ns2:color="rgb(0,0,255)" /><ns1:guide position="0,900" orientation="0,1" id="guide46" ns2:label="" ns2:locked="true" ns2:color="rgb(0,0,255)" /><ns1:guide position="1102.3895,1000" orientation="-1,0" id="guide841" ns2:label="width" ns2:locked="false" ns2:color="rgb(0,0,255)" /><ns1:guide position="0,1000" orientation="0,1000" id="guide860" /><ns1:guide position="1000,1000" orientation="1000,0" id="guide862" /><ns1:guide position="1000,0" orientation="0,-1000" id="guide864" /><ns1:guide position="0,0" orientation="-1000,0" id="guide866" /></ns1:namedview>
 <defs id="defs4"><ns2:path-effect effect="fillet_chamfer" id="path-effect3453" is_visible="true" lpeversion="1" satellites_param="F,0,0,1,0,0,0,1 @ F,0,1,1,0,15.900784,0,1 @ F,0,1,1,0,15.900784,0,1 @ F,0,0,1,0,0,0,1 @ F,0,0,1,0,0,0,1 @ F,0,0,1,0,0,0,1 @ F,0,0,1,0,0,0,1 @ F,0,0,1,0,0,0,1 @ F,0,0,1,0,0,0,1 @ F,0,0,1,0,0,0,1 @ F,0,0,1,0,0,0,1 @ F,0,1,1,0,15.900784,0,1 @ F,0,1,1,0,15.900784,0,1 @ F,0,0,1,0,0,0,1 @ F,0,0,1,0,0,0,1 @ F,0,0,1,0,0,0,1 @ F,0,0,1,0,0,0,1 @ F,0,0,1,0,0,0,1 @ F,0,0,1,0,0,0,1 @ F,0,0,1,0,0,0,1 @ F,0,0,1,0,0,0,1 @ F,0,0,1,0,0,0,1 @ F,0,0,1,0,0,0,1 @ F,0,0,1,0,0,0,1 @ F,0,0,1,0,0,0,1 @ F,0,0,1,0,0,0,1 @ F,0,0,1,0,0,0,1 @ F,0,0,1,0,0,0,1 @ F,0,0,1,0,0,0,1 @ F,0,0,1,0,0,0,1 @ F,0,0,1,0,0,0,1 @ F,0,0,1,0,0,0,1 @ F,0,0,1,0,0,0,1 @ F,0,0,1,0,0,0,1 @ F,0,0,1,0,0,0,1 @ F,0,0,1,0,0,0,1 @ F,0,0,1,0,0,0,1 @ F,0,0,1,0,0,0,1 @ F,0,0,1,0,0,0,1 @ F,0,0,1,0,0,0,1 @ F,0,0,1,0,0,0,1 @ F,0,0,1,0,0,0,1 @ F,0,0,1,0,0,0,1 @ F,0,0,1,0,0,0,1 @ F,0,0,1,0,0,0,1 @ F,0,0,1,0,0,0,1 @ F,0,0,1,0,0,0,1 @ F,0,0,1,0,0,0,1 @ F,0,0,1,0,0,0,1 @ F,0,0,1,0,0,0,1 @ F,0,0,1,0,0,0,1 @ F,0,0,1,0,0,0,1 @ F,0,0,1,0,0,0,1 @ F,0,0,1,0,0,0,1 @ F,0,0,1,0,0,0,1 @ F,0,0,1,0,0,0,1 @ F,0,0,1,0,0,0,1 @ F,0,0,1,0,0,0,1 @ F,0,0,1,0,0,0,1 @ F,0,0,1,0,0,0,1 @ F,0,0,1,0,0,0,1 @ F,0,0,1,0,0,0,1 @ F,0,0,1,0,0,0,1 @ F,0,0,1,0,0,0,1 @ F,0,0,1,0,0,0,1 @ F,0,0,1,0,0,0,1 @ F,0,0,1,0,0,0,1 @ F,0,0,1,0,0,0,1 @ F,0,0,1,0,0,0,1 @ F,0,0,1,0,0,0,1 @ F,0,0,1,0,0,0,1 @ F,0,0,1,0,0,0,1 @ F,0,1,1,0,15.900784,0,1 @ F,0,0,1,0,15.900784,0,1 @ F,0,0,1,0,0,0,1 @ F,0,0,1,0,0,0,1 @ F,0,0,1,0,0,0,1 @ F,0,0,1,0,0,0,1 @ F,0,0,1,0,0,0,1 @ F,0,0,1,0,0,0,1 @ F,0,0,1,0,0,0,1 @ F,0,0,1,0,0,0,1 @ F,0,0,1,0,0,0,1 @ F,0,0,1,0,0,0,1 @ F,0,0,1,0,0,0,1 @ F,0,0,1,0,0,0,1 @ F,0,0,1,0,0,0,1 @ F,0,0,1,0,0,0,1 @ F,0,0,1,0,0,0,1 @ F,0,0,1,0,0,0,1" unit="px" method="auto" mode="F" radius="0" chamfer_steps="1" flexible="false" use_knot_distance="true" apply_no_radius="true" apply_with_radius="true" only_selected="false" hide_knots="false" /><ns2:path-effect effect="fillet_chamfer" id="path-effect861" is_visible="true" lpeversion="1" satellites_param="F,0,0,1,0,0,0,1 @ F,0,1,1,0,22.651916,0,1 @ F,0,1,1,0,22.651916,0,1 @ F,0,0,1,0,0,0,1 @ F,0,0,1,0,0,0,1 @ F,0,0,1,0,0,0,1 @ F,0,0,1,0,0,0,1 @ F,0,0,1,0,0,0,1 @ F,0,0,1,0,0,0,1 @ F,0,0,1,0,0,0,1 @ F,0,0,1,0,0,0,1 @ F,0,0,1,0,0,0,1 @ F,0,0,1,0,0,0,1 @ F,0,1,1,0,22.651916,0,1 @ F,0,1,1,0,22.651916,0,1 @ F,0,1,1,0,22.651916,0,1 @ F,0,0,1,0,0,0,1 @ F,0,0,1,0,0,0,1 @ F,0,0,1,0,0,0,1 @ F,0,0,1,0,0,0,1 @ F,0,0,1,0,0,0,1 @ F,0,0,1,0,0,0,1 @ F,0,0,1,0,0,0,1 @ F,0,0,1,0,0,0,1 @ F,0,0,1,0,0,0,1 @ F,0,0,1,0,0,0,1 @ F,0,0,1,0,0,0,1 @ F,0,0,1,0,0,0,1 @ F,0,0,1,0,0,0,1 @ F,0,0,1,0,0,0,1 @ F,0,0,1,0,0,0,1 @ F,0,0,1,0,0,0,1 @ F,0,0,1,0,0,0,1 @ F,0,0,1,0,0,0,1 @ F,0,0,1,0,0,0,1 @ F,0,0,1,0,0,0,1 @ F,0,0,1,0,0,0,1 @ F,0,0,1,0,0,0,1 @ F,0,0,1,0,0,0,1 @ F,0,0,1,0,0,0,1 @ F,0,0,1,0,0,0,1 @ F,0,0,1,0,0,0,1 @ F,0,0,1,0,0,0,1 @ F,0,0,1,0,0,0,1 @ F,0,0,1,0,0,0,1 @ F,0,0,1,0,0,0,1 @ F,0,0,1,0,0,0,1 @ F,0,0,1,0,0,0,1 @ F,0,0,1,0,0,0,1 @ F,0,0,1,0,0,0,1 @ F,0,0,1,0,0,0,1 @ F,0,0,1,0,0,0,1 @ F,0,0,1,0,0,0,1 @ F,0,0,1,0,0,0,1 @ F,0,0,1,0,0,0,1 @ F,0,0,1,0,0,0,1 @ F,0,0,1,0,0,0,1 @ F,0,0,1,0,0,0,1 @ F,0,0,1,0,0,0,1 @ F,0,0,1,0,0,0,1 @ F,0,0,1,0,0,0,1 @ F,0,0,1,0,0,0,1 @ F,0,0,1,0,0,0,1 @ F,0,0,1,0,0,0,1 @ F,0,0,1,0,0,0,1 @ F,0,0,1,0,0,0,1 @ F,0,0,1,0,0,0,1 @ F,0,0,1,0,0,0,1 @ F,0,0,1,0,0,0,1 @ F,0,0,1,0,0,0,1 @ F,0,1,1,0,22.651916,0,1 @ F,0,1,1,0,22.651916,0,1 @ F,0,0,1,0,0,0,1 @ F,0,0,1,0,0,0,1 @ F,0,0,1,0,0,0,1 @ F,0,0,1,0,0,0,1 @ F,0,0,1,0,0,0,1 @ F,0,0,1,0,0,0,1 @ F,0,0,1,0,0,0,1 @ F,0,0,1,0,0,0,1 @ F,0,0,1,0,0,0,1 @ F,0,0,1,0,0,0,1 @ F,0,0,1,0,0,0,1 @ F,0,0,1,0,0,0,1 @ F,0,0,1,0,0,0,1 @ F,0,0,1,0,0,0,1 @ F,0,0,1,0,0,0,1 @ F,0,0,1,0,0,0,1" unit="px" method="auto" mode="F" radius="0" chamfer_steps="1" flexible="false" use_knot_distance="true" apply_no_radius="true" apply_with_radius="true" only_selected="true" hide_knots="false" /><ns2:path-effect effect="spiro" id="path-effect858" is_visible="true" lpeversion="1" /><ns2:path-effect effect="spiro" id="path-effect854" is_visible="true" lpeversion="1" />
  <style type="text/css" id="style2">
   
    .fil0 {fill:#EF7F1A;fill-rule:nonzero}
   
  </style>
 <ns2:path-effect effect="spiro" id="path-effect1214" is_visible="true" lpeversion="1" /><ns2:path-effect effect="spiro" id="path-effect1195" is_visible="true" lpeversion="1" /><ns2:path-effect effect="spiro" id="path-effect992" is_visible="true" lpeversion="1" /><ns2:path-effect effect="spiro" id="path-effect287" is_visible="true" lpeversion="1" /><ns2:path-effect effect="spiro" id="path-effect1032" is_visible="true" lpeversion="1" /><ns2:path-effect effect="spiro" id="path-effect1218" is_visible="true" lpeversion="1" /><ns2:path-effect effect="spiro" id="path-effect309" is_visible="true" lpeversion="1" /><ns2:path-effect effect="spiro" id="path-effect860" is_visible="true" lpeversion="1" /><ns2:path-effect effect="spiro" id="path-effect862" is_visible="true" lpeversion="1" /><ns2:path-effect effect="spiro" id="path-effect1521" is_visible="true" lpeversion="1" /><style type="text/css" id="style2-3">
   
    .fil0 {fill:#EF7F1A;fill-rule:nonzero}
   
  </style><ns2:path-effect effect="spiro" id="path-effect1176" is_visible="true" lpeversion="1" /><ns2:path-effect effect="spiro" id="path-effect1026" is_visible="true" lpeversion="1" /><ns2:path-effect effect="spiro" id="path-effect1030" is_visible="true" lpeversion="1" /></defs>
 
<path id="path856" style="clip-rule:evenodd;fill:#26a269;fill-rule:nonzero;stroke:none;stroke-width:1px;stroke-linecap:butt;stroke-linejoin:miter;stroke-opacity:1;image-rendering:optimizeQuality;shape-rendering:geometricPrecision;text-rendering:geometricPrecision" d="m 237.78191,804.60455 c -8.8423,1.41762 -17.63563,3.14065 -26.35914,5.16458 -8.55395,1.98458 -17.39389,-2.92858 -19.83906,-11.36306 l -19.62608,-67.69902 c -2.44517,-8.43448 2.50436,-17.14961 10.38462,-21.00078 8.86508,-4.33246 17.04609,-10.06763 24.11285,-16.95481 11.57632,-11.28214 20.0997,-25.56749 25.10961,-40.93624 5.00991,-15.36875 6.54864,-31.79404 5.08858,-47.89267 -2.16444,-23.86514 -11.50499,-47.85963 -29.55479,-63.62143 -17.9429,-15.66845 -43.62745,-21.73921 -66.85758,-16.46577 -22.40328,5.08574 -41.976505,20.16706 -54.293455,39.55944 -12.31695,19.39239 -17.640086,42.79226 -16.937462,65.7548 1.05034,34.32627 14.940159,66.97602 31.461727,97.08306 15.02979,27.38859 32.42737,53.47698 51.92999,77.88332 5.48188,6.86024 3.95621,15.85993 -3.63074,20.28232 l -94.997355,55.37343 c -7.586949,4.42239 -13.738413,0.88627 -14.048774,-7.88964 -0.72334,-20.45354 -2.691097,-40.86309 -5.89111,-61.07773 -6.236194,-39.39434 -17.118222,-77.91014 -24.29026,-117.1449 -6.9919528,-38.2496 -10.43279174,-77.51756 -5.16875,-116.043 5.338074,-39.06725 19.926812,-77.2497 44.588304,-108.01585 24.661493,-30.76615 59.718375,-53.71208 98.476795,-60.95985 39.2868,-7.34658 81.84795,2.22258 112.95091,27.323 20.86476,16.83808 36.20116,40.02783 45.35961,65.22668 9.15844,25.19885 12.30497,52.35548 11.10843,79.14032 -2.53007,56.63624 -24.79649,112.20094 -62.07759,154.91141 l -38.68668,49.16769 -6.64047,-45.52781 c 20.84037,-3.08876 41.87938,-4.83661 62.94374,-5.22916 50.77602,-0.94625 101.6761,5.96716 152.25406,1.38788 10.06011,-0.91083 20.24705,-2.32159 29.45637,-6.47174 4.60467,-2.07507 8.928,-4.83375 12.54625,-8.35755 3.61825,-3.52379 6.51855,-7.82859 8.14729,-12.60939 2.01043,-5.90115 2.03248,-12.34459 0.91651,-18.47811 -1.11597,-6.13351 -3.32828,-12.01079 -5.72179,-17.76722 C 446.09217,613.8664 403.92886,566.26897 369.42204,514.44392 332.29333,458.68109 303.19835,395.30496 300.40036,328.37063 c -1.39899,-33.46717 3.94539,-67.41436 17.38487,-98.09642 13.43947,-30.68206 35.15133,-57.9803 63.13091,-76.39636 37.82789,-24.89818 85.80616,-32.43271 130.34075,-24.21452 44.53459,8.21819 85.58286,31.42716 118.55174,62.47425 60.34794,56.8302 93.85978,141.02772 89.0693,223.78396 l -54.99932,8.51849 c 6.23267,-63.54912 24.72253,-125.87366 54.15434,-182.54027 23.11331,-44.50127 53.74605,-86.30165 95.29373,-114.37973 20.77383,-14.03904 44.12267,-24.46186 68.71035,-29.370357 24.58767,-4.9085 50.4216,-4.20496 74.38024,3.186297 33.48278,10.32946 62.12123,33.32752 83.51053,61.08173 21.3892,27.75421 36.0171,60.14544 47.6105,93.21186 27.3159,77.90997 38.6558,161.90156 28.4996,243.83428 -10.1563,81.93272 -42.2748,161.6392 -95.2329,224.97605 -18.8212,22.50978 -40.54675,43.17727 -66.62836,56.61891 -26.0816,13.44164 -56.98047,19.13788 -85.23985,11.24261 -15.77611,-4.40762 -30.30787,-12.91101 -42.34742,-24.01786 -12.03954,-11.10684 -21.61536,-24.77429 -28.5683,-39.60565 -13.90587,-29.66272 -17.19665,-63.42161 -14.57722,-96.07722 3.48397,-43.43362 17.21844,-86.08973 40.31021,-123.04089 23.09177,-36.95115 55.55396,-68.09225 93.76176,-89.03937 42.34762,-23.21674 91.57958,-33.68477 139.70968,-29.70603 l -1.2434,201.14448 c 0.1999,-26.57825 -13.2456,-52.89969 -34.8971,-68.31581 -21.87015,-15.57182 -51.03202,-19.63427 -76.91284,-12.49506 -25.88082,7.13921 -48.30554,24.88484 -62.93942,47.39339 -12.36879,19.02459 -19.46983,42.31637 -15.42305,64.64451 2.02339,11.16407 6.83991,21.88492 14.28625,30.44545 7.44634,8.56052 17.55995,14.88139 28.65076,17.27396 10.35364,2.23354 21.31422,1.01957 31.22229,-2.72431 9.90808,-3.74389 18.78959,-9.9444 26.28744,-17.42564 14.99569,-14.96247 24.30631,-34.59703 32.41274,-54.16824 29.58133,-71.41775 47.08863,-149.95487 34.83073,-226.27849 -3.8606,-24.03815 -10.7283,-47.82159 -22.7382,-68.99941 -12.0099,-21.17781 -29.41262,-39.68714 -51.14,-50.67159 -29.8681,-15.10005 -66.25506,-14.79574 -97.44218,-2.65166 -31.18712,12.14408 -57.33459,35.31623 -76.53771,62.72709 -23.52188,33.57554 -37.14087,73.42889 -43.20922,113.97234 -6.06835,40.54344 -4.82876,81.88217 -0.52493,122.6507 2.54607,24.11792 6.15866,48.1232 10.8228,71.9224 1.68888,8.61769 -3.90822,15.75222 -12.68721,15.97276 l -132.22179,3.32161 c -8.77899,0.22054 -12.42668,-5.8204 -8.45799,-13.65371 8.05189,-15.89263 15.15149,-32.26777 21.24584,-49.00899 24.99635,-68.66508 32.54968,-145.43805 10.17472,-215.00149 -5.27007,-16.38457 -12.19239,-32.33948 -21.81805,-46.60743 -9.62566,-14.26795 -22.04336,-26.83311 -36.97169,-35.3989 -17.52501,-10.05576 -38.26882,-14.31182 -58.36778,-12.24403 -20.09896,2.06779 -39.46806,10.40895 -54.96055,23.37917 -21.99842,18.41694 -35.68453,45.60882 -40.70336,73.85639 -4.66226,26.24069 -2.24055,53.45934 4.89019,79.13935 7.13074,25.68002 18.86994,49.90604 32.74668,72.66009 27.75349,45.50809 63.95919,85.26898 93.68067,129.51687 16.25871,24.20517 30.55951,49.74135 42.41267,76.38227 3.63688,8.17419 7.06731,16.53123 8.65207,25.3365 1.58477,8.80527 1.217,18.17541 -2.519,26.30477 -4.15539,9.04194 -12.18992,15.88612 -21.13564,20.24481 -8.94571,4.35869 -18.81324,6.45343 -28.64105,8.01485 -37.45965,5.9515 -75.66435,4.68428 -113.5345,2.56357 -65.61693,-3.67452 -131.84171,-9.83591 -196.73278,0.56759 z" ns1:nodetypes="accaaaaaaccaaaaaacccaaaaaaaccaaaaaaaccaaaaaaaaccaaaaaaaaaaa" ns2:original-d="m 237.78191,804.60455 c -14.1647,1.54137 -28.28316,4.3726 -41.77083,9.0735 l -28.48082,-98.24298 c 6.3507,-1.5704 29.41878,-11.05795 38.92484,-22.68361 19.79651,-24.21062 31.87334,-57.59991 30.19819,-88.82891 -1.25252,-23.35012 -11.50082,-48.76038 -29.55479,-63.62143 -17.72051,-14.58656 -45.43682,-24.70804 -66.85758,-16.46577 -39.55344,15.21935 -65.289813,63.35227 -71.230917,105.31424 -4.768798,33.68199 16.419373,66.57166 31.461727,97.08306 16.13102,32.71961 62.03664,90.1582 62.03664,90.1582 0,0 -51.13936,33.06623 -122.472131,71.38831 4.99246,-26.431 -2.548535,-51.49403 -6.202498,-76.97481 C 28.172983,771.32926 14.49494,733.22977 9.543481,693.65945 4.7359954,655.23971 -8.1361019,614.25887 4.374731,577.61645 28.22127,507.77338 77.279622,431.53742 147.43983,408.64075 c 36.82484,-12.01773 83.76874,1.84956 112.95091,27.323 38.92783,33.98053 56.68217,92.69489 56.46804,144.367 -0.23053,55.62842 -62.07759,154.91141 -62.07759,154.91141 l -38.68668,49.16769 -6.64047,-45.52781 c 0,0 41.90453,-4.45276 62.94374,-5.22916 50.71894,-1.87164 103.02563,13.73598 152.25406,1.38788 18.4826,-4.63604 41.53411,-10.44258 50.14991,-27.43868 5.51058,-10.87053 -0.61592,-24.8005 -4.80528,-36.24533 -21.35542,-58.34035 -84.05959,-97.02201 -100.57443,-156.91283 -31.96572,-115.92322 -81.0025,-283.72611 11.4941,-360.56607 64.56596,-53.63707 183.21775,-14.01384 248.89249,38.25973 62.81687,49.99886 89.0693,223.78396 89.0693,223.78396 l -54.99932,8.51849 c 0,0 15.08032,-132.52624 54.15434,-182.54027 56.79171,-72.69234 147.41805,-155.880838 238.38432,-140.56379 66.55733,11.20703 112.37163,89.45586 131.12103,154.29359 43.8482,151.63276 28.287,342.76945 -66.7333,468.81033 -33.37805,44.27476 -99.40471,85.80394 -151.86821,67.86152 -57.1327,-19.53928 -87.67316,-99.35857 -85.49294,-159.70073 3.01985,-83.58047 65.43841,-164.28645 134.07197,-212.08026 39.07109,-27.20763 139.70968,-29.70603 139.70968,-29.70603 l -1.2434,201.14448 c 0,0 -11.6221,-57.72596 -34.8971,-68.31581 -43.73303,-19.89795 -115.02376,-6.23621 -139.85226,34.89833 -19.92669,33.01348 -9.08976,100.23418 27.51396,112.36392 36.91228,12.23199 70.7214,-40.50315 89.92247,-74.31819 37.68223,-66.36228 50.00503,-151.48781 34.83073,-226.27849 -9.3214,-45.94337 -29.7235,-103.9216 -73.8782,-119.671 -57.78733,-20.61197 -133.96266,13.56897 -173.97989,60.07543 -52.3165,60.80021 -42.78161,156.41846 -43.73415,236.62304 -0.35078,29.53584 14.03136,87.49584 14.03136,87.49584 l -164.01333,4.12025 c 0,0 23.2598,-40.61503 28.68362,-63.06202 16.8512,-69.74039 30.50826,-146.19573 10.17472,-215.00149 -9.53206,-32.25511 -28.15389,-68.12479 -58.78974,-82.00633 -34.57432,-15.66612 -81.63037,-9.74669 -113.32833,11.13514 -23.47405,15.46412 -39.76235,45.76219 -40.70336,73.85639 -3.4643,103.42746 84.28379,189.13678 131.31754,281.31631 13.23607,25.94084 33.45806,48.67062 42.41267,76.38227 5.33009,16.49494 13.95462,36.17142 6.13307,51.64127 -8.60891,17.02712 -31.38547,23.18035 -49.77669,28.25966 -36.48845,10.07743 -75.68309,2.08168 -113.5345,2.56357 -65.57255,0.83481 -131.53976,-6.52659 -196.73278,0.56759 z" ns2:path-effect="#path-effect860;#path-effect3453" /><g style="clip-rule:evenodd;fill-rule:evenodd;image-rendering:optimizeQuality;shape-rendering:geometricPrecision;text-rendering:geometricPrecision" id="g892" transform="translate(1024.3372,-2.1627393)" /></svg>