<?xml version="1.0" encoding="UTF-8" standalone="no"?>
<svg
   xmlns:dc="http://purl.org/dc/elements/1.1/"
   xmlns:cc="http://creativecommons.org/ns#"
   xmlns:rdf="http://www.w3.org/1999/02/22-rdf-syntax-ns#"
   xmlns:svg="http://www.w3.org/2000/svg"
   xmlns="http://www.w3.org/2000/svg"
   xmlns:sodipodi="http://sodipodi.sourceforge.net/DTD/sodipodi-0.dtd"
   xmlns:inkscape="http://www.inkscape.org/namespaces/inkscape"
   xml:space="preserve"
   width="1000"
   height="1000"
   version="1.1"
   style="clip-rule:evenodd;fill-rule:evenodd;image-rendering:optimizeQuality;shape-rendering:geometricPrecision;text-rendering:geometricPrecision"
   viewBox="0 0 1000 1000"
   id="svg10"
   sodipodi:docname="ൂ.svg"
   inkscape:version="1.0.2 (e86c870879, 2021-01-15)"><metadata
   id="metadata14"><rdf:RDF><cc:Work
       rdf:about=""><dc:format>image/svg+xml</dc:format><dc:type
         rdf:resource="http://purl.org/dc/dcmitype/StillImage" /><dc:title /></cc:Work></rdf:RDF></metadata><sodipodi:namedview
   pagecolor="#ffffff"
   bordercolor="#666666"
   borderopacity="1"
   objecttolerance="10"
   gridtolerance="10"
   guidetolerance="10"
   inkscape:pageopacity="0"
   inkscape:pageshadow="2"
   inkscape:window-width="1920"
   inkscape:window-height="1007"
   id="namedview12"
   showgrid="false"
   inkscape:zoom="0.84890884"
   inkscape:cx="145.62378"
   inkscape:cy="834.80684"
   inkscape:window-x="1920"
   inkscape:window-y="0"
   inkscape:window-maximized="1"
   inkscape:current-layer="svg10"
   showguides="true"
   inkscape:guide-bbox="true"
   inkscape:document-rotation="0"><sodipodi:guide
   position="0,1000"
   orientation="0,1"
   id="guide16"
   inkscape:label=""
   inkscape:locked="true"
   inkscape:color="rgb(0,0,255)" /><sodipodi:guide
   position="1763.3122,2036.1693"
   orientation="1000,0"
   id="guide18" /><sodipodi:guide
   position="0,200"
   orientation="0,1"
   id="guide20"
   inkscape:label="base"
   inkscape:locked="true"
   inkscape:color="rgb(0,0,255)" /><inkscape:grid
   type="xygrid"
   id="grid24"
   originx="-473.37552"
   originy="-489.69235" /><sodipodi:guide
   position="0,0"
   orientation="0,1"
   id="guide34"
   inkscape:label="bottom"
   inkscape:locked="true"
   inkscape:color="rgb(0,0,255)" /><sodipodi:guide
   position="225.05109,1693.3186"
   orientation="0,1"
   id="guide44"
   inkscape:label=""
   inkscape:locked="false"
   inkscape:color="rgb(0,0,255)" /><sodipodi:guide
   position="0,900"
   orientation="0,1"
   id="guide46"
   inkscape:label=""
   inkscape:locked="true"
   inkscape:color="rgb(0,0,255)" /><sodipodi:guide
   position="297.89857,548.58673"
   orientation="1,0"
   id="guide841"
   inkscape:label="width" />    </sodipodi:namedview>
 <defs
   id="defs4"><inkscape:path-effect
   effect="fillet_chamfer"
   id="path-effect848"
   is_visible="true"
   lpeversion="1"
   satellites_param="F,0,0,1,0,0,0,1 @ F,0,0,1,0,0,0,1 @ F,0,0,1,0,0,0,1 @ F,0,0,1,0,0,0,1 @ F,0,0,1,0,0,0,1 @ F,0,0,1,0,0,0,1 @ F,0,0,1,0,0,0,1 @ F,0,0,1,0,0,0,1 @ F,0,0,1,0,0,0,1 @ F,0,0,1,0,0,0,1 @ F,0,0,1,0,0,0,1 @ F,0,0,1,0,0,0,1 @ F,0,0,1,0,0,0,1 @ F,0,0,1,0,0,0,1 @ F,0,0,1,0,0,0,1 @ F,0,0,1,0,18.768813,0,1 @ F,0,0,1,0,23.690856,0,1 @ F,0,0,1,0,0,0,1 @ F,0,0,1,0,0,0,1 @ F,0,0,1,0,0,0,1 @ F,0,0,1,0,0,0,1 @ F,0,0,1,0,0,0,1 @ F,0,0,1,0,0,0,1 @ F,0,0,1,0,0,0,1 @ F,0,0,1,0,0,0,1 @ F,0,0,1,0,0,0,1 @ F,0,0,1,0,0,0,1 @ F,0,0,1,0,0,0,1 @ F,0,0,1,0,0,0,1 @ F,0,0,1,0,0,0,1 @ F,0,0,1,0,0,0,1 @ F,0,0,1,0,0,0,1 | F,0,0,1,0,12.11372,0,1 @ F,0,0,1,0,0,0,1 @ F,0,0,1,0,0,0,1 @ F,0,0,1,0,0,0,1 @ F,0,0,1,0,0,0,1 @ F,0,0,1,0,0,0,1 @ F,0,0,1,0,0,0,1 @ F,0,0,1,0,0,0,1 @ F,0,0,1,0,0,0,1 @ F,0,0,1,0,0,0,1 @ F,0,0,1,0,18.475754,0,1"
   unit="px"
   method="auto"
   mode="F"
   radius="0"
   chamfer_steps="1"
   flexible="false"
   use_knot_distance="true"
   apply_no_radius="true"
   apply_with_radius="true"
   only_selected="true"
   hide_knots="false" /><inkscape:path-effect
   effect="spiro"
   id="path-effect845"
   is_visible="true"
   lpeversion="1" /><inkscape:path-effect
   effect="spiro"
   id="path-effect887"
   is_visible="true"
   lpeversion="1" />
  <style
   type="text/css"
   id="style2">
   <![CDATA[
    .fil0 {fill:#EF7F1A;fill-rule:nonzero}
   ]]>
  </style>
 <inkscape:path-effect
   effect="spiro"
   id="path-effect1214"
   is_visible="true"
   lpeversion="1" /><inkscape:path-effect
   effect="spiro"
   id="path-effect1195"
   is_visible="true"
   lpeversion="1" /><inkscape:path-effect
   effect="spiro"
   id="path-effect992"
   is_visible="true"
   lpeversion="1" /><inkscape:path-effect
   effect="spiro"
   id="path-effect1011"
   is_visible="true"
   lpeversion="1" /><inkscape:path-effect
   effect="spiro"
   id="path-effect261"
   is_visible="true"
   lpeversion="1" /></defs>
 
<path
   id="path979-0-6-9"
   style="clip-rule:evenodd;display:inline;fill:#1a5fb4;fill-rule:nonzero;stroke:none;stroke-width:1.80255px;stroke-linecap:butt;stroke-linejoin:miter;stroke-opacity:1;image-rendering:optimizeQuality;shape-rendering:geometricPrecision;text-rendering:geometricPrecision"
   inkscape:path-effect="#path-effect845;#path-effect848"
   inkscape:original-d="m 247.01909,888.7009 77.8383,76.5209 c -24.9656,35.8861 -63.71047,60.9393 -103.8527,76.1444 -29.4381,11.1506 -62.80291,12.5065 -94.0424,8.6294 -38.80065,-4.8155 -78.094276,-17.2799 -110.640501,-38.9461 -16.37202,-10.8989 -29.899154,-26.64948 -39.5491,-43.7874 -9.619997,-17.08473 -16.075826,-36.75626 -16.8802,-56.3467 -0.799528,-19.47241 3.905851,-39.52589 12.1305,-57.1942 8.246786,-17.71586 20.369121,-34.56965 36.0518,-46.2279 31.084427,-23.10766 69.689741,-39.37832 108.331701,-42.0249 51.41964,-3.52172 106.20638,9.27824 150.4318,35.7451 44.29044,26.50577 84.2661,67.65513 102.7456,115.8496 24.26368,63.27959 26.01155,140.1753 1.3762,203.3111 -16.35401,41.9123 -53.74561,75.1338 -92.0817,98.6803 -38.50642,23.6511 -85.04541,38.4636 -130.2284,37.6781 -73.39328,-1.276 -150.850001,-21.4541 -209.282001,-68.519 l 25.8188,-166.4796 c 28.6716,53.8531 81.979145,90.8027 135.914501,116.15 20.81885,9.784 45.00347,12.4333 67.9974,11.7775 22.90468,-0.6532 46.70155,-4.8558 66.9548,-15.5729 20.15168,-10.6634 39.162,-26.4627 50.2838,-46.3651 11.05334,-19.7798 17.40879,-44.4743 13.0551,-66.7108 -5.73866,-29.3103 -24.7727,-56.392 -49.0989,-74.9502 -24.3261,-18.5583 -53.35862,-29.82917 -81.6121,-41.2812 -12.34014,-5.00185 -24.95812,-9.99257 -38.1394,-11.8771 -13.0774,-1.86968 -27.05036,-3.34088 -39.6248,0.7085 -12.27987,3.95451 -24.67936,11.28047 -31.828401,22.0194 -7.081687,10.63775 -9.67402,24.83935 -7.9582,37.503 1.044106,7.70605 5.636039,14.84339 10.740801,20.7098 5.11813,5.88178 11.69108,11.03645 19.0768,13.5348 14.59999,4.9387 31.32561,5.63564 46.2092,1.632 20.90496,-5.62337 38.11524,-20.99026 54.9948,-34.5446 24.00872,-19.27907 44.8107,-42.3698 64.8669,-65.7662 z M 61.12969,88.700899 c 48.2616,14.312511 94.39353,41.632681 125.5223,80.349421 42.57002,52.9469 64.87277,123.54085 70.4556,191.24914 4.76149,57.74713 -19.67197,114.26112 -32.5617,170.75234 -12.92652,56.65248 -36.71079,110.92108 -44.8545,168.4561 -4.69558,33.17408 -5.3139,67.0646 -2.1095,100.4921 L 57.642289,804.7088 C 67.83899,771.3005 81.11375,738.89127 91.20589,705.4567 c 27.30509,-90.45987 74.73008,-179.4564 72.9327,-273.93034 -0.83074,-43.66562 -11.47347,-90.93005 -38.5007,-125.2361 -23.32031,-29.6008 -59.1618,-51.5607 -97.282401,-57.58936 z"
   d="m 247.01909,888.7009 77.8383,76.5209 c -24.96558,35.8861 -62.11961,63.1273 -103.8527,76.1444 -30.24617,9.4342 -62.48924,11.4986 -94.0424,8.6294 -39.439038,-3.5862 -78.93324,-15.2196 -110.640501,-38.9461 -15.85363804,-11.86327 -29.59424,-26.67086 -39.5491,-43.7874 -9.954864,-17.11654 -16.061941,-36.56272 -16.8802,-56.3467 -0.813439,-19.66745 3.613473,-39.44792 12.1305,-57.1942 8.51703,-17.74629 21.0653764,-33.46555 36.0518,-46.2279 29.972841,-25.5247 69.096302,-38.78997 108.331701,-42.0249 52.21506,-4.30509 105.60369,8.62707 150.4318,35.7451 44.82808,27.11802 80.94812,68.20704 102.7456,115.8496 29.12315,63.65421 31.74947,140.2438 1.3762,203.3111 -19.80502,41.1233 -52.80308,75.4305 -92.0817,98.6803 -39.27864,23.2498 -84.63126,35.6129 -130.2284,37.6781 -68.700875,3.1117 -138.195703,-17.5054 -194.307105,-57.2094 -8.460276,-5.9864 -13.687083,-19.6134 -12.098486,-29.8567 l 19.311653,-124.5215 c 2.005201,-12.9295 8.527128,-13.9665 15.792925,-3.0917 29.4852344,44.1306 73.555506,78.4836 123.752313,95.8307 21.84807,7.5503 44.88246,11.989 67.9974,11.7775 23.11493,-0.2115 46.3178,-5.1585 66.9548,-15.5729 20.63702,-10.4144 38.61969,-26.4078 50.2838,-46.3651 11.66411,-19.9573 16.78224,-43.8973 13.0551,-66.7108 -4.93335,-30.19659 -24.77273,-56.39193 -49.0989,-74.9502 -24.32617,-18.55826 -53.00993,-30.41441 -81.6121,-41.2812 -12.46331,-4.73517 -25.05015,-9.34188 -38.1394,-11.8771 -13.08923,-2.53521 -26.79916,-2.93266 -39.6248,0.7085 -12.65461,3.5926 -24.270863,11.25234 -31.828401,22.0194 -7.557548,10.76707 -10.814658,24.66217 -7.9582,37.503 1.706916,7.67322 5.516229,14.8365 10.740801,20.7098 5.224598,5.87333 11.840576,10.46405 19.0768,13.5348 14.472391,6.14148 31.12889,6.07635 46.2092,1.632 20.93693,-6.17036 38.62022,-20.11194 54.9948,-34.5446 23.11807,-20.37642 44.81069,-42.36979 64.8669,-65.7662 z M 72.660023,92.411392 c 43.730067,15.188778 83.451557,41.838758 113.991967,76.638928 45.77963,52.16494 70.02961,121.84616 70.4556,191.24914 0.35713,58.18337 -15.16795,115.22856 -32.5617,170.75234 -17.39374,55.52376 -36.87662,110.82119 -44.8545,168.4561 -4.60438,33.26357 -5.31392,67.06461 -2.1095,100.4921 l -119.939601,4.7088 c 10.196701,-33.40825 21.391218,-66.51195 33.563601,-99.2521 33.1421,-89.14256 74.18786,-178.83449 72.9327,-273.93034 -0.5866,-44.4432 -11.29725,-90.08621 -38.5007,-125.2361 C 105.78771,280.64161 77.520412,261.68912 46.378145,252.71363 36.579615,249.88961 30.015423,240.59729 32.063056,230.60097 L 58.698805,100.56821 c 1.342541,-6.554136 7.64191,-10.351705 13.961218,-8.156818 z" /></svg>
