<svg xmlns="http://www.w3.org/2000/svg" xmlns:dc="http://purl.org/dc/elements/1.1/" xmlns:ns1="http://sodipodi.sourceforge.net/DTD/sodipodi-0.dtd" xmlns:ns2="http://www.inkscape.org/namespaces/inkscape" xmlns:ns4="http://creativecommons.org/ns#" xmlns:rdf="http://www.w3.org/1999/02/22-rdf-syntax-ns#" xml:space="preserve" width="1000" height="1000" version="1.1" style="clip-rule:evenodd;fill-rule:evenodd;image-rendering:optimizeQuality;shape-rendering:geometricPrecision;text-rendering:geometricPrecision" viewBox="0 0 1000 1000" id="svg10" ns1:docname="ൃ.svg" ns2:version="1.0.2 (e86c870879, 2021-01-15)"><metadata id="metadata14"><rdf:RDF><ns4:Work rdf:about=""><dc:format>image/svg+xml</dc:format><dc:type rdf:resource="http://purl.org/dc/dcmitype/StillImage" /><dc:title /></ns4:Work></rdf:RDF></metadata><ns1:namedview pagecolor="#ffffff" bordercolor="#666666" borderopacity="1" objecttolerance="10" gridtolerance="10" guidetolerance="10" ns2:pageopacity="0" ns2:pageshadow="2" ns2:window-width="1920" ns2:window-height="1009" id="namedview12" showgrid="false" ns2:zoom="0.84890884" ns2:cx="326.60847" ns2:cy="600.46482" ns2:window-x="1920" ns2:window-y="0" ns2:window-maximized="1" ns2:current-layer="svg10" showguides="true" ns2:guide-bbox="true" ns2:document-rotation="0"><ns1:guide position="0,1000" orientation="0,1" id="guide16" ns2:label="" ns2:locked="true" ns2:color="rgb(0,0,255)" /><ns1:guide position="1763.3122,2036.1693" orientation="1000,0" id="guide18" /><ns1:guide position="0,200" orientation="0,1" id="guide20" ns2:label="base" ns2:locked="true" ns2:color="rgb(0,0,255)" /><ns2:grid type="xygrid" id="grid24" originx="-473.37552" originy="-489.69235" /><ns1:guide position="0,0" orientation="0,1" id="guide34" ns2:label="bottom" ns2:locked="true" ns2:color="rgb(0,0,255)" /><ns1:guide position="225.05109,1693.3186" orientation="0,1" id="guide44" ns2:label="" ns2:locked="false" ns2:color="rgb(0,0,255)" /><ns1:guide position="0,900" orientation="0,1" id="guide46" ns2:label="" ns2:locked="true" ns2:color="rgb(0,0,255)" /><ns1:guide position="195.74243,494.96418" orientation="-1,0" id="guide840" ns2:label="width" ns2:locked="false" ns2:color="rgb(0,0,255)" /></ns1:namedview>
 <defs id="defs4"><ns2:path-effect effect="fillet_chamfer" id="path-effect841" is_visible="true" lpeversion="1" satellites_param="F,0,0,1,0,0,0,1 @ F,0,0,1,0,0,0,1 @ F,0,0,1,0,0,0,1 @ F,0,0,1,0,0,0,1 @ F,0,0,1,0,0,0,1 @ F,0,0,1,0,0,0,1 @ F,0,0,1,0,0,0,1 @ F,0,0,1,0,0,0,1 @ F,0,0,1,0,0,0,1 @ F,0,0,1,0,0,0,1 @ F,0,0,1,0,0,0,1 @ F,0,0,1,0,0,0,1 @ F,0,0,1,0,0,0,1 @ F,0,0,1,0,0,0,1 @ F,0,0,1,0,0,0,1 @ F,0,0,1,0,15.105062,0,1 @ F,0,0,1,0,17.256957,0,1 @ F,0,0,1,0,0,0,1 @ F,0,0,1,0,0,0,1 @ F,0,0,1,0,0,0,1 @ F,0,0,1,0,0,0,1 @ F,0,0,1,0,0,0,1 @ F,0,0,1,0,0,0,1 @ F,0,0,1,0,0,0,1 @ F,0,0,1,0,0,0,1 @ F,0,0,1,0,0,0,1 @ F,0,0,1,0,0,0,1 @ F,0,0,1,0,0,0,1 @ F,0,0,1,0,0,0,1 @ F,0,0,1,0,0,0,1 @ F,0,0,1,0,0,0,1 @ F,0,0,1,0,0,0,1" unit="px" method="auto" mode="F" radius="0" chamfer_steps="1" flexible="false" use_knot_distance="true" apply_no_radius="true" apply_with_radius="true" only_selected="true" hide_knots="false" />
  <style type="text/css" id="style2">
   
    .fil0 {fill:#EF7F1A;fill-rule:nonzero}
   
  </style>
 <ns2:path-effect effect="spiro" id="path-effect1214" is_visible="true" lpeversion="1" /><ns2:path-effect effect="spiro" id="path-effect1195" is_visible="true" lpeversion="1" /></defs>
 
<path style="display:inline;fill:#c64600;fill-rule:nonzero;stroke:none;stroke-width:1.855;stroke-linecap:butt;stroke-linejoin:miter;stroke-miterlimit:4;stroke-dasharray:none;stroke-opacity:1" d="M 149.93016,880.91859 C 89.913431,833.81749 13.856298,807.5514 -62.43604,807.5786 c -38.53068,0.0137 -78.54913,7.18122 -109.63668,29.94473 -15.54378,11.38176 -28.48669,26.57961 -36.01267,44.31412 -7.52598,17.73451 -9.42452,38.03322 -4.02993,56.52786 4.0442,13.865 12.04804,26.4323 22.2691,36.6364 10.22107,10.20409 22.6119,18.09955 35.8268,23.92709 26.4298,11.6551 55.681668,15.0426 84.482958,17.2473 32.660159,2.5 65.6325309,3.6457 98.064881,-0.9455 32.43235,-4.5911 64.490455,-15.1743 91.013411,-34.39586 23.40296,-16.96047 41.91072,-40.29433 54.48347,-66.31897 12.57276,-26.02465 19.31564,-54.68286 21.20605,-83.5235 3.39362,-51.77406 -8.59788,-103.3658 -24.35358,-152.80088 -15.7557,-49.43509 -35.36842,-97.69856 -47.97538,-148.02881 -25.187449,-100.55483 -21.46732,-207.41257 4.77858,-307.69634 7.64646,-29.2166 17.16947,-57.94184 28.48844,-85.94107 3.12657,-7.73407 -0.84283,-15.15327 -9.05031,-16.64696 L 37.683438,99.961934 C 28.3067,98.255455 20.22626,104.58376 19.76404,114.10324 c -0.933551,19.22661 -1.477414,38.47215 -1.631047,57.7208 -1.00176,125.51053 14.670579,251.09813 45.79454,372.69252 16.472596,64.35477 37.334757,128.04562 43.919007,194.14804 3.11623,31.28527 2.9432,63.26418 -4.97113,93.69184 -7.914335,30.42766 -24.062051,59.34027 -48.74064,78.81966 -22.635893,17.86704 -51.1659051,26.9299 -79.746326,30.77362 -24.993773,3.36136 -50.816819,2.93309 -74.945244,-4.4022 -8.23438,-2.50334 -16.38531,-5.89171 -22.88416,-11.5341 -3.24943,-2.82119 -6.04937,-6.19214 -8.01566,-10.01988 -1.96628,-3.82775 -3.08217,-8.12044 -2.99189,-12.42274 0.0988,-4.70713 1.64283,-9.33621 4.14851,-13.32224 2.50568,-3.98602 5.94944,-7.34216 9.8399,-9.99379 7.78091,-5.30327 17.15058,-7.74787 26.4434,-9.26801 31.555132,-5.16185 64.650045,-0.47417 93.53037971,13.24798 C 28.394015,897.95688 52.93244,920.65299 68.86235,948.37679 Z" id="path933-9-3-62-3-6" ns1:nodetypes="caaaaaaaccaaaasaaacc" ns2:original-d="m 149.93016,880.91859 c 0,0 -138.862774,-87.69027 -212.3662,-73.33999 -65.02856,12.6957 -156.90578,64.9257 -149.67928,130.78671 5.90533,53.82006 89.10503,69.32429 142.578858,77.81079 63.3250808,10.05 137.800266,3.1506 189.078292,-35.34136 44.75237,-33.59348 69.21883,-94.25986 75.68952,-149.84247 11.9259,-102.44236 -60.98533,-198.32122 -72.32896,-300.82969 -11.28244,-101.95545 -12.89435,-206.65241 4.77858,-307.69634 6.06502,-34.6764 34.29909,-99.88347 34.29909,-99.88347 L 20.705353,96.87208 c 0,0 -3.67139,49.97743 -2.57236,74.95196 5.502699,125.04414 24.327013,249.38209 45.79454,372.69252 11.380134,65.368 46.551427,127.84908 43.919007,194.14804 -2.38943,60.17917 -12.563297,128.53373 -53.71177,172.5115 -19.466985,20.8055 -51.3229658,28.7874 -79.746326,30.77362 -36.035382,2.51815 -52.122604,5.8627 -74.945244,-4.4022 -14.58905,-6.56169 -34.75769,-18.00342 -33.89171,-33.97672 0.93702,-17.28374 23.2418,-30.55689 40.43181,-32.58404 59.696249,-7.03974 162.87905,77.39003 162.87905,77.39003 z" ns2:path-effect="#path-effect1214;#path-effect841" /></svg>