<?xml version="1.0" encoding="UTF-8" standalone="no"?>
<svg
   xmlns:dc="http://purl.org/dc/elements/1.1/"
   xmlns:cc="http://creativecommons.org/ns#"
   xmlns:rdf="http://www.w3.org/1999/02/22-rdf-syntax-ns#"
   xmlns:svg="http://www.w3.org/2000/svg"
   xmlns="http://www.w3.org/2000/svg"
   xmlns:sodipodi="http://sodipodi.sourceforge.net/DTD/sodipodi-0.dtd"
   xmlns:inkscape="http://www.inkscape.org/namespaces/inkscape"
   xml:space="preserve"
   width="1000"
   height="1000"
   version="1.1"
   style="clip-rule:evenodd;fill-rule:evenodd;image-rendering:optimizeQuality;shape-rendering:geometricPrecision;text-rendering:geometricPrecision"
   viewBox="0 0 1000 1000"
   id="svg10"
   sodipodi:docname="ൄ.svg"
   inkscape:version="1.0.2 (e86c870879, 2021-01-15)"><metadata
   id="metadata14"><rdf:RDF><cc:Work
       rdf:about=""><dc:format>image/svg+xml</dc:format><dc:type
         rdf:resource="http://purl.org/dc/dcmitype/StillImage" /><dc:title /></cc:Work></rdf:RDF></metadata><sodipodi:namedview
   pagecolor="#ffffff"
   bordercolor="#666666"
   borderopacity="1"
   objecttolerance="10"
   gridtolerance="10"
   guidetolerance="10"
   inkscape:pageopacity="0"
   inkscape:pageshadow="2"
   inkscape:window-width="1920"
   inkscape:window-height="1007"
   id="namedview12"
   showgrid="false"
   inkscape:zoom="0.84890884"
   inkscape:cx="-174.43453"
   inkscape:cy="445.57918"
   inkscape:window-x="1920"
   inkscape:window-y="0"
   inkscape:window-maximized="1"
   inkscape:current-layer="svg10"
   showguides="true"
   inkscape:guide-bbox="true"
   inkscape:document-rotation="0"><sodipodi:guide
     position="0,1000"
     orientation="0,1"
     id="guide16"
     inkscape:label=""
     inkscape:locked="true"
     inkscape:color="rgb(0,0,255)" /><sodipodi:guide
     position="1763.3122,2036.1693"
     orientation="1000,0"
     id="guide18" /><sodipodi:guide
     position="0,200"
     orientation="0,1"
     id="guide20"
     inkscape:label="base"
     inkscape:locked="true"
     inkscape:color="rgb(0,0,255)" /><inkscape:grid
     type="xygrid"
     id="grid24"
     originx="-473.37552"
     originy="-489.69235" /><sodipodi:guide
     position="0,0"
     orientation="0,1"
     id="guide34"
     inkscape:label="bottom"
     inkscape:locked="true"
     inkscape:color="rgb(0,0,255)" /><sodipodi:guide
     position="225.05109,1693.3186"
     orientation="0,1"
     id="guide44"
     inkscape:label=""
     inkscape:locked="false"
     inkscape:color="rgb(0,0,255)" /><sodipodi:guide
     position="0,900"
     orientation="0,1"
     id="guide46"
     inkscape:label=""
     inkscape:locked="true"
     inkscape:color="rgb(0,0,255)" /><sodipodi:guide
     position="195.74243,494.96418"
     orientation="-1,0"
     id="guide840"
     inkscape:label="width"
     inkscape:locked="false"
     inkscape:color="rgb(0,0,255)" /></sodipodi:namedview>
 <defs
   id="defs4"><inkscape:path-effect
   effect="fillet_chamfer"
   id="path-effect842"
   is_visible="true"
   lpeversion="1"
   satellites_param="F,0,0,1,0,0,0,1 @ F,0,0,1,0,0,0,1 @ F,0,0,1,0,0,0,1 @ F,0,0,1,0,0,0,1 @ F,0,0,1,0,0,0,1 @ F,0,0,1,0,0,0,1 @ F,0,0,1,0,0,0,1 @ F,0,0,1,0,0,0,1 @ F,0,0,1,0,0,0,1 @ F,0,0,1,0,0,0,1 @ F,0,0,1,0,0,0,1 @ F,0,0,1,0,0,0,1 @ F,0,0,1,0,0,0,1 @ F,0,0,1,0,0,0,1 @ F,0,0,1,0,0,0,1 @ F,0,0,1,0,0,0,1 @ F,0,0,1,0,0,0,1 @ F,0,0,1,0,0,0,1 @ F,0,0,1,0,0,0,1 @ F,0,0,1,0,0,0,1 @ F,0,0,1,0,0,0,1 @ F,0,0,1,0,0,0,1 @ F,0,0,1,0,0,0,1 @ F,0,1,1,0,29.785633,0,1 @ F,0,1,1,0,29.785633,0,1 @ F,0,0,1,0,0,0,1 @ F,0,0,1,0,0,0,1 @ F,0,0,1,0,0,0,1 @ F,0,0,1,0,0,0,1 @ F,0,0,1,0,0,0,1 @ F,0,0,1,0,0,0,1 @ F,0,0,1,0,0,0,1 @ F,0,0,1,0,0,0,1 @ F,0,0,1,0,0,0,1 @ F,0,0,1,0,0,0,1 @ F,0,0,1,0,0,0,1 @ F,0,0,1,0,0,0,1 @ F,0,0,1,0,0,0,1 @ F,0,0,1,0,0,0,1 @ F,0,0,1,0,0,0,1 @ F,0,0,1,0,0,0,1 @ F,0,0,1,0,0,0,1"
   unit="px"
   method="auto"
   mode="F"
   radius="0"
   chamfer_steps="1"
   flexible="false"
   use_knot_distance="true"
   apply_no_radius="true"
   apply_with_radius="true"
   only_selected="true"
   hide_knots="false" /><inkscape:path-effect
   effect="fillet_chamfer"
   id="path-effect841"
   is_visible="true"
   lpeversion="1"
   satellites_param="F,0,0,1,0,0,0,1 @ F,0,0,1,0,0,0,1 @ F,0,0,1,0,0,0,1 @ F,0,0,1,0,0,0,1 @ F,0,0,1,0,0,0,1 @ F,0,0,1,0,0,0,1 @ F,0,0,1,0,0,0,1 @ F,0,0,1,0,0,0,1 @ F,0,0,1,0,0,0,1 @ F,0,0,1,0,0,0,1 @ F,0,0,1,0,0,0,1 @ F,0,0,1,0,0,0,1 @ F,0,0,1,0,0,0,1 @ F,0,0,1,0,0,0,1 @ F,0,0,1,0,0,0,1 @ F,0,0,1,0,0,0,1 @ F,0,0,1,0,0,0,1 @ F,0,0,1,0,0,0,1 @ F,0,0,1,0,25.281133,0,1 @ F,0,0,1,0,25.281133,0,1 @ F,0,0,1,0,0,0,1 @ F,0,0,1,0,0,0,1 @ F,0,0,1,0,0,0,1 @ F,0,0,1,0,0,0,1 @ F,0,0,1,0,0,0,1 @ F,0,0,1,0,0,0,1 @ F,0,0,1,0,0,0,1 @ F,0,0,1,0,0,0,1 @ F,0,0,1,0,0,0,1 @ F,0,0,1,0,0,0,1 @ F,0,0,1,0,0,0,1 @ F,0,0,1,0,0,0,1 @ F,0,0,1,0,0,0,1 @ F,0,0,1,0,12.111636,0,1 @ F,0,0,1,0,0,0,1 @ F,0,0,1,0,0,0,1"
   unit="px"
   method="auto"
   mode="F"
   radius="0"
   chamfer_steps="1"
   flexible="false"
   use_knot_distance="true"
   apply_no_radius="true"
   apply_with_radius="true"
   only_selected="true"
   hide_knots="false" />
  <style
   type="text/css"
   id="style2">
   <![CDATA[
    .fil0 {fill:#EF7F1A;fill-rule:nonzero}
   ]]>
  </style>
 <inkscape:path-effect
   effect="spiro"
   id="path-effect1214"
   is_visible="true"
   lpeversion="1" /><inkscape:path-effect
   effect="spiro"
   id="path-effect1195"
   is_visible="true"
   lpeversion="1" /></defs>
 
<path
   style="display:inline;fill:#c64600;fill-rule:nonzero;stroke:none;stroke-width:1.855;stroke-linecap:butt;stroke-linejoin:miter;stroke-miterlimit:4;stroke-dasharray:none;stroke-opacity:1"
   d="m 156.23983,866.79113 c -8.6299,-7.69254 -17.41149,-15.21489 -26.33796,-22.56121 -14.05623,-11.56802 -28.58057,-22.76947 -44.788188,-31.0586 -16.207619,-8.28913 -34.300314,-13.58714 -52.481331,-12.66669 -15.777548,0.79877 -31.1861006,6.30672 -44.342371,15.05209 -13.156271,8.74538 -24.089338,20.65787 -32.360819,34.11713 -4.805626,7.81966 -8.740738,16.17387 -11.70934,24.85883 l 26.420099,2.7928 c -1.60891,-4.18642 -3.367634,-8.31527 -5.271675,-12.37598 -6.33955,-13.52023 -14.341798,-26.34003 -24.462356,-37.32006 -10.120559,-10.98002 -22.411501,-20.09294 -36.257863,-25.68444 -17.897396,-7.22741 -38.161576,-8.33075 -56.807346,-3.34201 -18.64578,4.98873 -35.58864,16.00318 -47.91937,30.85262 -12.33072,14.84943 -20.02677,33.4462 -22.05894,52.64054 -2.03218,19.19434 1.57161,38.91583 10.02231,56.26916 8.48056,17.41464 21.71286,32.34265 37.37587,43.73826 15.663,11.39561 33.70881,19.32493 52.45054,24.21753 37.483465,9.7851 77.083103,7.4931 115.4058157,1.8249 C 37.44518,1001.5895 82.523656,989.9461 118.0082,962.58134 158.8736,931.067 182.91814,881.08257 190.30843,830.00891 197.95595,777.15754 189.17338,723.20865 175.40164,671.61319 161.6299,620.01773 142.88481,569.82175 130.01833,517.99313 107.93678,429.0445 103.62929,334.7755 125.46823,245.76699 c 7.51952,-30.64716 18.09303,-60.54311 31.49622,-89.11108 6.98597,-14.89011 0.46589,-29.44205 -15.59357,-33.00594 l -91.587307,-20.3249 c -16.059458,-3.563888 -29.90322,6.85857 -30.55285,23.29562 -0.595248,15.06105 -0.961237,30.13116 -1.09773,45.20335 -1.136818,125.53311 13.749992,251.31294 45.79454,372.69252 16.964981,64.26061 38.821867,127.88149 43.919007,194.14804 2.39023,31.07473 0.99602,62.69646 -7.2526,92.75161 -8.24863,30.05516 -23.626024,58.5467 -46.45917,79.75989 -21.535146,20.00728 -49.4507638,33.06982 -78.62663,36.6507 -25.652776,3.14847 -51.964356,-0.94442 -76.06494,-10.27928 -7.87836,-3.05152 -15.65758,-6.72901 -22.01128,-12.29774 -6.35369,-5.56874 -11.19898,-13.25782 -11.88043,-21.67898 -0.39864,-4.92629 0.64568,-9.94011 2.83675,-14.37028 2.19106,-4.43018 5.51011,-8.27607 9.47861,-11.22196 7.93699,-5.89177 18.28709,-8.03709 28.11645,-6.9918 10.159384,1.08038 19.940878,5.46414 27.508154,12.3283 7.567276,6.86416 12.881153,16.17317 14.94403,26.17941 19.185985,-21.83013 46.891529,-35.96778 75.826462,-38.69289 24.066738,-2.26662 49.533752,3.65281 67.83545,19.445 5.247174,4.52769 9.851614,9.79913 13.632634,15.60746 z"
   id="path933-9-3-62-3-6"
   sodipodi:nodetypes="caaaccasaaaaaaccaaaaaaaacsacc"
   inkscape:original-d="m 156.23983,866.79113 c 0,0 -16.57694,-16.36803 -26.33796,-22.56121 -30.01646,-19.04489 -61.817764,-46.34612 -97.269519,-43.72529 -30.2872765,2.23903 -56.666789,26.34653 -76.70319,49.16922 -6.04294,6.88328 -11.70934,24.85883 -11.70934,24.85883 l 26.420099,2.7928 c 0,0 -2.796327,-8.63716 -5.271675,-12.37598 -16.101487,-24.32007 -36.138845,-62.81675 -60.720219,-63.0045 -59.853806,-0.45717 -132.588356,78.69462 -116.763346,136.42031 19.10378,69.68579 132.979673,70.57849 205.2322257,69.78069 44.3117973,-0.4893 91.3043443,-16.65633 124.8912943,-45.56466 38.15023,-32.83597 64.56921,-82.83439 72.30023,-132.57243 16.26969,-104.67219 -49.31502,-206.65678 -60.2901,-312.01578 -9.4029,-90.2663 -20.53806,-182.89079 -4.5501,-272.22614 7.28757,-40.72055 44.98087,-115.66403 44.98087,-115.66403 L 20.705353,96.87208 c 0,0 -3.67139,49.97743 -2.57236,74.95196 5.502699,125.04414 24.327013,249.38209 45.79454,372.69252 11.380134,65.368 46.551427,127.84908 43.919007,194.14804 -2.38943,60.17917 -14.079863,127.16226 -53.71177,172.5115 -19.028339,21.77338 -50.0389809,32.30281 -78.62663,36.6507 -25.294576,3.84706 -53.144572,1.09051 -76.06494,-10.27928 -14.33047,-7.10872 -34.75769,-18.00342 -33.89171,-33.97672 0.93702,-17.28374 23.13006,-33.08928 40.43181,-32.58404 19.096924,0.55766 46.077875,12.08236 42.452184,38.50771 37.599036,-35.16482 47.4656581,-37.76343 75.826462,-38.69289 18.671372,-0.61191 47.981237,6.83086 67.83545,19.445 5.830431,3.7043 13.632634,15.60746 13.632634,15.60746 z"
   inkscape:path-effect="#path-effect1214;#path-effect842" /></svg>
