<?xml version="1.0" encoding="UTF-8" standalone="no"?>
<svg
   xmlns:dc="http://purl.org/dc/elements/1.1/"
   xmlns:cc="http://creativecommons.org/ns#"
   xmlns:rdf="http://www.w3.org/1999/02/22-rdf-syntax-ns#"
   xmlns:svg="http://www.w3.org/2000/svg"
   xmlns="http://www.w3.org/2000/svg"
   xmlns:sodipodi="http://sodipodi.sourceforge.net/DTD/sodipodi-0.dtd"
   xmlns:inkscape="http://www.inkscape.org/namespaces/inkscape"
   xml:space="preserve"
   width="1000"
   height="1000"
   version="1.1"
   style="clip-rule:evenodd;fill-rule:evenodd;image-rendering:optimizeQuality;shape-rendering:geometricPrecision;text-rendering:geometricPrecision"
   viewBox="0 0 1000 1000"
   id="svg10"
   sodipodi:docname="േ.svg"
   inkscape:version="1.0.1 (3bc2e813f5, 2020-09-07)"><metadata
   id="metadata14"><rdf:RDF><cc:Work
       rdf:about=""><dc:format>image/svg+xml</dc:format><dc:type
         rdf:resource="http://purl.org/dc/dcmitype/StillImage" /><dc:title /></cc:Work></rdf:RDF></metadata><sodipodi:namedview
   pagecolor="#ffffff"
   bordercolor="#666666"
   borderopacity="1"
   objecttolerance="10"
   gridtolerance="10"
   guidetolerance="10"
   inkscape:pageopacity="0"
   inkscape:pageshadow="2"
   inkscape:window-width="1920"
   inkscape:window-height="1015"
   id="namedview12"
   showgrid="false"
   inkscape:zoom="0.89956887"
   inkscape:cx="149.02695"
   inkscape:cy="448.34125"
   inkscape:window-x="1920"
   inkscape:window-y="0"
   inkscape:window-maximized="1"
   inkscape:current-layer="svg10"
   showguides="true"
   inkscape:guide-bbox="true"
   inkscape:document-rotation="0"
   inkscape:snap-to-guides="true"><sodipodi:guide
     position="0,1000"
     orientation="0,1"
     id="guide16"
     inkscape:label=""
     inkscape:locked="true"
     inkscape:color="rgb(0,0,255)" /><sodipodi:guide
     position="1763.3122,2036.1693"
     orientation="1000,0"
     id="guide18" /><sodipodi:guide
     position="0,200"
     orientation="0,1"
     id="guide20"
     inkscape:label="base"
     inkscape:locked="true"
     inkscape:color="rgb(0,0,255)" /><inkscape:grid
     type="xygrid"
     id="grid24"
     originx="-473.37552"
     originy="-489.69235" /><sodipodi:guide
     position="0,0"
     orientation="0,1"
     id="guide34"
     inkscape:label="bottom"
     inkscape:locked="true"
     inkscape:color="rgb(0,0,255)" /><sodipodi:guide
     position="225.05109,1693.3186"
     orientation="0,1"
     id="guide44"
     inkscape:label=""
     inkscape:locked="false"
     inkscape:color="rgb(0,0,255)" /><sodipodi:guide
     position="0,900"
     orientation="0,1"
     id="guide46"
     inkscape:label=""
     inkscape:locked="true"
     inkscape:color="rgb(0,0,255)" /><sodipodi:guide
     position="431.77123,559.89918"
     orientation="-1,0"
     id="guide841"
     inkscape:label="width"
     inkscape:locked="false"
     inkscape:color="rgb(0,0,255)" /><sodipodi:guide
     position="0,1000"
     orientation="0,1000"
     id="guide860" /><sodipodi:guide
     position="1000,1000"
     orientation="1000,0"
     id="guide862" /><sodipodi:guide
     position="1000,0"
     orientation="0,-1000"
     id="guide864" /><sodipodi:guide
     position="0,0"
     orientation="-1000,0"
     id="guide866" /></sodipodi:namedview>
 <defs
   id="defs4"><inkscape:path-effect
   effect="spiro"
   id="path-effect877"
   is_visible="true"
   lpeversion="1" /><inkscape:path-effect
   effect="spiro"
   id="path-effect861"
   is_visible="true"
   lpeversion="1" /><inkscape:path-effect
   effect="spiro"
   id="path-effect876"
   is_visible="true"
   lpeversion="1" /><inkscape:path-effect
   effect="spiro"
   id="path-effect860"
   is_visible="true"
   lpeversion="1" /><inkscape:path-effect
   effect="spiro"
   id="path-effect859"
   is_visible="true"
   lpeversion="1" /><inkscape:path-effect
   effect="spiro"
   id="path-effect862"
   is_visible="true"
   lpeversion="1" /><inkscape:path-effect
   effect="spiro"
   id="path-effect1521"
   is_visible="true"
   lpeversion="1" /><inkscape:path-effect
   effect="spiro"
   id="path-effect858"
   is_visible="true"
   lpeversion="1" /><inkscape:path-effect
   effect="spiro"
   id="path-effect854"
   is_visible="true"
   lpeversion="1" />
  <style
   type="text/css"
   id="style2">
   <![CDATA[
    .fil0 {fill:#EF7F1A;fill-rule:nonzero}
   ]]>
  </style>
 <inkscape:path-effect
   effect="spiro"
   id="path-effect1214"
   is_visible="true"
   lpeversion="1" /><inkscape:path-effect
   effect="spiro"
   id="path-effect1195"
   is_visible="true"
   lpeversion="1" /><inkscape:path-effect
   effect="spiro"
   id="path-effect992"
   is_visible="true"
   lpeversion="1" /><inkscape:path-effect
   effect="spiro"
   id="path-effect287"
   is_visible="true"
   lpeversion="1" /><inkscape:path-effect
   effect="spiro"
   id="path-effect1032"
   is_visible="true"
   lpeversion="1" /><inkscape:path-effect
   effect="spiro"
   id="path-effect1218"
   is_visible="true"
   lpeversion="1" /><inkscape:path-effect
   effect="spiro"
   id="path-effect309"
   is_visible="true"
   lpeversion="1" /><inkscape:path-effect
   effect="spiro"
   id="path-effect1176"
   is_visible="true"
   lpeversion="1" /><inkscape:path-effect
   effect="spiro"
   id="path-effect1026"
   is_visible="true"
   lpeversion="1" /></defs>
 
<path
   style="fill:#2d2d2d;fill-rule:nonzero;stroke:none;stroke-width:2.79248px;stroke-linecap:butt;stroke-linejoin:miter;stroke-opacity:1"
   d="m 184.16941,361.47831 22.41267,123.91506 c 31.99326,-5.09613 63.16011,-15.34477 91.93414,-30.23082 32.98817,-17.06621 63.03059,-40.46583 85.405,-70.11142 29.38333,-38.93224 44.55722,-87.49716 47.55689,-136.18085 1.28058,-20.78344 0.41842,-41.82747 -4.40123,-62.08486 -4.81966,-20.2574 -13.71891,-39.74716 -27.31407,-55.51938 -13.2081,-15.32317 -30.62081,-26.8267 -49.58199,-33.878431 -18.96119,-7.051729 -39.43206,-9.723734 -59.63875,-8.75255 -28.74175,1.3814 -56.8879,10.060885 -82.4069,23.356641 -25.51901,13.29576 -48.49421,31.1298 -69.17466,51.13768 C 89.309372,211.16576 52.637535,271.98907 30.389602,337.39365 8.1416691,402.79822 0.10824135,472.68628 3.8231828,541.67127 6.7263499,595.58193 17.012157,649.91449 41.846021,697.85265 66.679886,745.7908 107.2191,786.9845 158.03269,805.22639 c 55.50575,19.92636 119.42212,10.49544 170.12731,-19.61986 33.639,-19.97919 62.35439,-49.12713 78.67962,-84.68325 16.32523,-35.55611 19.54027,-77.61906 5.57075,-114.16496 -7.81792,-20.45261 -20.85371,-38.91937 -37.66981,-52.94251 -16.81609,-14.02314 -37.38968,-23.54772 -59.00365,-27.04994 -26.89121,-4.35731 -54.76419,0.61285 -79.90857,11.0954 -25.14437,10.48255 -47.76397,26.28601 -68.55851,43.88461 -32.52478,27.526 -61.07478,59.74122 -84.491786,95.33877 l 64.749406,81.77134 c 5.74431,-27.68625 17.02719,-54.2117 32.98772,-77.55237 18.33947,-26.81963 43.22212,-49.61964 72.93018,-62.77487 19.05212,-8.43659 40.49168,-12.81617 60.90035,-8.61548 10.20433,2.10034 20.01723,6.35143 28.22738,12.76495 8.21015,6.41352 14.77343,15.02209 18.31969,24.8182 3.16446,8.74143 3.89051,18.2988 2.48828,27.48901 -1.40223,9.19022 -4.89788,18.01234 -9.82264,25.89733 -9.8495,15.76998 -25.15283,27.53659 -41.69333,36.02876 -25.42844,13.05539 -54.53104,18.99935 -83.00493,16.49202 -28.47388,-2.50732 -56.21082,-13.52019 -78.35698,-31.59216 -21.9942,-17.94796 -38.1441,-42.41261 -48.65362,-68.7835 -10.509521,-26.3709 -15.58685,-54.65146 -17.774165,-82.95499 -5.152844,-66.67701 5.800304,-134.96626 34.673045,-195.28823 19.00251,-39.70072 45.70961,-75.82762 78.89699,-104.73853 16.43768,-14.31955 34.60826,-26.95608 54.85898,-35.02793 20.25073,-8.07185 42.73665,-11.39966 64.0978,-7.04674 13.3539,2.72122 26.18321,8.47469 36.57013,17.29759 10.38691,8.82291 18.23864,20.77992 21.40794,34.03462 3.06304,12.8103 1.69687,26.47766 -2.81797,38.85111 -4.51484,12.37345 -12.07501,23.49899 -21.12617,33.06783 -20.65785,21.83938 -49.12737,35.63361 -78.78196,40.56415 -29.41878,4.89134 -60.20248,1.27232 -87.68476,-10.30845 z"
   id="path875"
   inkscape:path-effect="#path-effect877"
   inkscape:original-d="m 184.16941,361.47831 22.41267,123.91506 c 0,0 63.66347,-14.69337 91.93414,-30.23082 32.27863,-17.7402 64.31395,-39.91552 85.405,-70.11142 27.53281,-39.41852 45.8127,-88.13053 47.55689,-136.18085 1.47285,-40.57516 -4.60776,-87.37686 -31.7153,-117.60424 C 373.67006,102.17025 329.58899,86.981439 290.54207,88.635059 234.29331,91.017169 176.43979,121.11866 138.96051,163.12938 49.767758,263.10601 -8.6529616,408.2733 3.8231828,541.67127 13.301348,643.01412 66.976999,759.73937 158.03269,805.22639 c 51.0675,25.51086 124.42253,14.58199 170.12731,-19.61986 57.63575,-43.13005 101.31907,-128.91438 84.25037,-198.84821 -9.91727,-40.63302 -55.43864,-72.98643 -96.67346,-79.99245 -52.02777,-8.8398 -104.91583,25.17533 -148.46708,54.98001 -35.04301,23.982 -84.491786,95.33877 -84.491786,95.33877 l 64.749406,81.77134 c 0,0 16.41159,-54.87186 32.98772,-77.55237 18.92645,-25.89637 41.65385,-55.65982 72.93018,-62.77487 36.17045,-8.22841 92.90122,-5.15587 107.44742,28.96767 13.32935,31.26896 -19.00349,73.47876 -49.02769,89.4151 -47.71717,25.32747 -117.5749,16.54014 -161.36191,-15.10014 -44.75288,-32.33821 -59.902238,-96.91151 -66.427785,-151.73849 -7.813803,-65.65077 8.279587,-134.67087 34.673045,-195.28823 17.4494,-40.07571 43.64494,-78.89599 78.89699,-104.73853 33.92108,-24.86683 77.67302,-50.11522 118.95678,-42.07467 25.33619,4.93456 51.28324,26.40328 57.97807,51.33221 6.55333,24.40205 -7.50612,52.73046 -23.94414,71.91894 -19.21636,22.4317 -49.71786,35.29842 -78.78196,40.56415 -28.95811,5.24652 -87.68476,-10.30845 -87.68476,-10.30845 z"
   sodipodi:nodetypes="ccaaaaaaaaaaaaccaaaaaaaaaaaac" /></svg>
