<?xml version="1.0" encoding="UTF-8" standalone="no"?>
<svg
   xmlns:dc="http://purl.org/dc/elements/1.1/"
   xmlns:cc="http://creativecommons.org/ns#"
   xmlns:rdf="http://www.w3.org/1999/02/22-rdf-syntax-ns#"
   xmlns:svg="http://www.w3.org/2000/svg"
   xmlns="http://www.w3.org/2000/svg"
   xmlns:sodipodi="http://sodipodi.sourceforge.net/DTD/sodipodi-0.dtd"
   xmlns:inkscape="http://www.inkscape.org/namespaces/inkscape"
   xml:space="preserve"
   width="1000"
   height="1000"
   version="1.1"
   style="clip-rule:evenodd;fill-rule:evenodd;image-rendering:optimizeQuality;shape-rendering:geometricPrecision;text-rendering:geometricPrecision"
   viewBox="0 0 1000 1000"
   id="svg10"
   sodipodi:docname="േ.svg"
   inkscape:version="1.0.2 (e86c870879, 2021-01-15)"><metadata
   id="metadata14"><rdf:RDF><cc:Work
       rdf:about=""><dc:format>image/svg+xml</dc:format><dc:type
         rdf:resource="http://purl.org/dc/dcmitype/StillImage" /><dc:title /></cc:Work></rdf:RDF></metadata><sodipodi:namedview
   pagecolor="#ffffff"
   bordercolor="#666666"
   borderopacity="1"
   objecttolerance="10"
   gridtolerance="10"
   guidetolerance="10"
   inkscape:pageopacity="0"
   inkscape:pageshadow="2"
   inkscape:window-width="1920"
   inkscape:window-height="1007"
   id="namedview12"
   showgrid="false"
   inkscape:zoom="0.89956887"
   inkscape:cx="149.02695"
   inkscape:cy="448.34125"
   inkscape:window-x="1920"
   inkscape:window-y="0"
   inkscape:window-maximized="1"
   inkscape:current-layer="svg10"
   showguides="true"
   inkscape:guide-bbox="true"
   inkscape:document-rotation="0"
   inkscape:snap-to-guides="true"><sodipodi:guide
     position="0,1000"
     orientation="0,1"
     id="guide16"
     inkscape:label=""
     inkscape:locked="true"
     inkscape:color="rgb(0,0,255)" /><sodipodi:guide
     position="1763.3122,2036.1693"
     orientation="1000,0"
     id="guide18" /><sodipodi:guide
     position="0,200"
     orientation="0,1"
     id="guide20"
     inkscape:label="base"
     inkscape:locked="true"
     inkscape:color="rgb(0,0,255)" /><inkscape:grid
     type="xygrid"
     id="grid24"
     originx="-473.37552"
     originy="-489.69235" /><sodipodi:guide
     position="0,0"
     orientation="0,1"
     id="guide34"
     inkscape:label="bottom"
     inkscape:locked="true"
     inkscape:color="rgb(0,0,255)" /><sodipodi:guide
     position="225.05109,1693.3186"
     orientation="0,1"
     id="guide44"
     inkscape:label=""
     inkscape:locked="false"
     inkscape:color="rgb(0,0,255)" /><sodipodi:guide
     position="0,900"
     orientation="0,1"
     id="guide46"
     inkscape:label=""
     inkscape:locked="true"
     inkscape:color="rgb(0,0,255)" /><sodipodi:guide
     position="431.77123,559.89918"
     orientation="-1,0"
     id="guide841"
     inkscape:label="width"
     inkscape:locked="false"
     inkscape:color="rgb(0,0,255)" /><sodipodi:guide
     position="0,1000"
     orientation="0,1000"
     id="guide860" /><sodipodi:guide
     position="1000,1000"
     orientation="1000,0"
     id="guide862" /><sodipodi:guide
     position="1000,0"
     orientation="0,-1000"
     id="guide864" /><sodipodi:guide
     position="0,0"
     orientation="-1000,0"
     id="guide866" /></sodipodi:namedview>
 <defs
   id="defs4"><inkscape:path-effect
   effect="fillet_chamfer"
   id="path-effect863"
   is_visible="true"
   lpeversion="1"
   satellites_param="F,0,1,1,0,24.573284,0,1 @ F,0,1,1,0,22.955218,0,1 @ F,0,1,1,0,0,0,1 @ F,0,1,1,0,0,0,1 @ F,0,1,1,0,0,0,1 @ F,0,0,1,0,0,0,1 @ F,0,1,1,0,0,0,1 @ F,0,0,1,0,0,0,1 @ F,0,1,1,0,0,0,1 @ F,0,0,1,0,0,0,1 @ F,0,1,1,0,0,0,1 @ F,0,1,1,0,0,0,1 @ F,0,0,1,0,0,0,1 @ F,0,1,1,0,0,0,1 @ F,0,1,1,0,0,0,1 @ F,0,0,1,0,0,0,1 @ F,0,1,1,0,0,0,1 @ F,0,0,1,0,0,0,1 @ F,0,1,1,0,0,0,1 @ F,0,0,1,0,0,0,1 @ F,0,1,1,0,0,0,1 @ F,0,1,1,0,0,0,1 @ F,0,1,1,0,0,0,1 @ F,0,1,1,0,0,0,1 @ F,0,1,1,0,0,0,1 @ F,0,0,1,0,0,0,1 @ F,0,0,1,0,0,0,1 @ F,0,1,1,0,0,0,1 @ F,0,0,1,0,0,0,1 @ F,0,0,1,0,0,0,1 @ F,0,1,1,0,0,0,1 @ F,0,0,1,0,0,0,1 @ F,0,1,1,0,0,0,1 @ F,0,0,1,0,0,0,1 @ F,0,1,1,0,0,0,1 @ F,0,1,1,0,0,0,1 @ F,0,1,1,0,0,0,1 @ F,0,0,1,0,0,0,1 @ F,0,1,1,0,0,0,1 @ F,0,0,1,0,0,0,1 @ F,0,1,1,0,0,0,1 @ F,0,0,1,0,0,0,1 @ F,0,1,1,0,0,0,1 @ F,0,1,1,0,0,0,1"
   unit="px"
   method="auto"
   mode="F"
   radius="0"
   chamfer_steps="1"
   flexible="false"
   use_knot_distance="true"
   apply_no_radius="true"
   apply_with_radius="true"
   only_selected="true"
   hide_knots="false" /><inkscape:path-effect
   effect="spiro"
   id="path-effect877"
   is_visible="true"
   lpeversion="1" /><inkscape:path-effect
   effect="spiro"
   id="path-effect861"
   is_visible="true"
   lpeversion="1" /><inkscape:path-effect
   effect="spiro"
   id="path-effect876"
   is_visible="true"
   lpeversion="1" /><inkscape:path-effect
   effect="spiro"
   id="path-effect860"
   is_visible="true"
   lpeversion="1" /><inkscape:path-effect
   effect="spiro"
   id="path-effect859"
   is_visible="true"
   lpeversion="1" /><inkscape:path-effect
   effect="spiro"
   id="path-effect862"
   is_visible="true"
   lpeversion="1" /><inkscape:path-effect
   effect="spiro"
   id="path-effect1521"
   is_visible="true"
   lpeversion="1" /><inkscape:path-effect
   effect="spiro"
   id="path-effect858"
   is_visible="true"
   lpeversion="1" /><inkscape:path-effect
   effect="spiro"
   id="path-effect854"
   is_visible="true"
   lpeversion="1" />
  <style
   type="text/css"
   id="style2">
   <![CDATA[
    .fil0 {fill:#EF7F1A;fill-rule:nonzero}
   ]]>
  </style>
 <inkscape:path-effect
   effect="spiro"
   id="path-effect1214"
   is_visible="true"
   lpeversion="1" /><inkscape:path-effect
   effect="spiro"
   id="path-effect1195"
   is_visible="true"
   lpeversion="1" /><inkscape:path-effect
   effect="spiro"
   id="path-effect992"
   is_visible="true"
   lpeversion="1" /><inkscape:path-effect
   effect="spiro"
   id="path-effect287"
   is_visible="true"
   lpeversion="1" /><inkscape:path-effect
   effect="spiro"
   id="path-effect1032"
   is_visible="true"
   lpeversion="1" /><inkscape:path-effect
   effect="spiro"
   id="path-effect1218"
   is_visible="true"
   lpeversion="1" /><inkscape:path-effect
   effect="spiro"
   id="path-effect309"
   is_visible="true"
   lpeversion="1" /><inkscape:path-effect
   effect="spiro"
   id="path-effect1176"
   is_visible="true"
   lpeversion="1" /><inkscape:path-effect
   effect="spiro"
   id="path-effect1026"
   is_visible="true"
   lpeversion="1" /></defs>
 
<path
   style="fill:#2d2d2d;fill-rule:nonzero;stroke:none;stroke-width:2.79248px;stroke-linecap:butt;stroke-linejoin:miter;stroke-opacity:1"
   d="m 170.61247,399.64659 13.81911,75.1699 c 2.29226,12.46887 14.40864,21.69997 26.8994,19.54833 30.3209,-5.22302 59.84256,-15.09195 87.18524,-29.20227 33.00711,-17.03348 63.03838,-40.4577 85.405,-70.11142 29.37119,-38.94039 44.55591,-87.49805 47.55689,-136.18085 1.28115,-20.78321 0.41741,-41.82705 -4.40309,-62.08404 -4.8205,-20.25699 -13.71962,-39.74602 -27.31221,-55.5202 -13.20647,-15.32609 -30.61685,-26.83542 -49.57835,-33.88962 -18.9615,-7.0542 -39.43514,-9.724841 -59.64239,-8.741361 -28.73562,1.398551 -56.86562,10.112221 -82.3734,23.418041 -25.50778,13.30583 -48.47963,31.12584 -69.20816,51.07628 C 45.579102,263.00553 -0.3787279,396.13304 3.8231828,525.67127 5.5778579,579.76511 15.781571,634.38775 40.870707,682.34354 c 25.089135,47.9558 66.137483,88.83505 117.161983,106.88285 55.57294,19.65662 119.40132,10.40693 170.12731,-19.61986 33.67546,-19.93389 62.40935,-49.08925 78.72861,-84.65719 16.31925,-35.56793 19.50637,-77.64205 5.52176,-114.19102 -7.82442,-20.44922 -20.86018,-38.91364 -37.67487,-52.93714 -16.81468,-14.0235 -37.38582,-23.55094 -58.99859,-27.05531 -26.89104,-4.3602 -54.76488,0.60955 -79.90935,11.09264 -25.14446,10.48309 -47.76353,26.28792 -68.55773,43.88737 -32.52384,27.527 -61.07367,59.74203 -84.491786,95.33877 l 64.749406,81.77134 c 5.74575,-27.68585 17.02848,-54.21094 32.98772,-77.55237 18.33825,-26.82088 43.21966,-49.62438 72.93018,-62.77487 19.05109,-8.43241 40.48887,-12.80492 60.89454,-8.60271 10.20283,2.10111 20.01419,6.35145 28.22458,12.76252 8.21039,6.41107 14.77585,15.01539 18.3283,24.80786 3.17136,8.74198 3.90537,18.30166 2.50931,27.49572 -1.39606,9.19406 -4.88743,18.02143 -9.81134,25.91034 -9.84782,15.77782 -25.16382,27.54592 -41.72566,36.00904 -25.42806,12.99377 -54.52234,18.81916 -82.96425,16.27316 -28.4419,-2.54601 -56.12718,-13.50014 -78.39766,-31.3733 C 128.30966,668 111.77841,643.69853 101.11125,617.31655 90.444081,590.93458 85.459468,562.49614 84.075385,534.07289 c -2.830762,-58.13194 9.38341,-116.86905 34.673045,-169.28823 19.12249,-39.63621 45.74552,-75.79585 78.89699,-104.73853 16.42511,-14.33984 34.59319,-26.9903 54.84736,-35.06397 20.25416,-8.07367 42.7497,-11.38995 64.10942,-7.0107 13.34511,2.73606 26.15945,8.50503 36.5384,17.32859 10.37895,8.82357 18.23168,20.76403 21.43967,34.00362 3.10496,12.81437 1.80178,26.50414 -2.69747,38.89792 -4.49926,12.39377 -12.09295,23.53111 -21.24667,33.02102 -20.81998,21.58465 -49.4017,34.55008 -78.78196,40.56415 -26.94561,5.5157 -55.00178,5.47594 -81.954,0.0129 -13.29284,-2.69437 -21.74154,4.49916 -19.2877,17.84693 z"
   id="path875"
   inkscape:path-effect="#path-effect877;#path-effect863"
   inkscape:original-d="m 166.16941,375.47831 22.41267,121.91506 c 0,0 76.17375,-14.38435 109.93414,-32.23082 32.56266,-17.21332 64.31395,-39.91552 85.405,-70.11142 27.53281,-39.41852 45.8127,-88.13053 47.55689,-136.18085 1.47285,-40.57516 -4.60776,-87.37686 -31.7153,-117.60424 C 373.67006,112.17024 329.58899,96.981438 290.54207,98.635059 234.29331,101.01717 176.92365,131.55538 138.96051,173.12938 54.097355,266.06429 -6.4445766,400.23911 3.8231828,525.67127 12.12744,627.11706 66.976999,743.73937 158.03269,789.22639 c 51.0675,25.51086 124.42253,14.58199 170.12731,-19.61986 57.63575,-43.13005 101.31907,-128.91438 84.25037,-198.84821 -9.91727,-40.63302 -55.43864,-72.98643 -96.67346,-79.99245 -52.02777,-8.8398 -104.91583,25.17533 -148.46708,54.98001 -35.04302,23.982 -84.491786,95.33877 -84.491786,95.33877 l 64.749406,81.77134 c 0,0 16.41159,-54.87186 32.98772,-77.55237 18.92645,-25.89637 41.65385,-55.65982 72.93018,-62.77487 36.17045,-8.22841 92.90122,-5.15587 107.44742,28.96767 13.32935,31.26896 -19.00349,73.47876 -49.02769,89.4151 -47.71717,25.32747 -117.5749,16.54014 -161.36191,-15.10014 C 105.75029,653.47317 89.879257,588.98095 84.075385,534.07289 78.02061,476.79115 95.060947,417.28953 118.74843,364.78466 c 17.97498,-39.84274 43.64494,-78.89599 78.89699,-104.73853 33.92108,-24.86683 77.67302,-50.11522 118.95678,-42.07467 25.33619,4.93456 51.28324,26.40328 57.97807,51.33221 6.55333,24.40205 -7.50612,52.73046 -23.94414,71.91894 -19.21636,22.4317 -49.88095,34.4665 -78.78196,40.56415 -34.53077,7.28544 -105.68476,-6.30845 -105.68476,-6.30845 z"
   sodipodi:nodetypes="ccaaaaaaaaaaaaccaaaaaaaaaaaac" /></svg>
