<?xml version="1.0" encoding="UTF-8" standalone="no"?>
<svg
   xmlns:dc="http://purl.org/dc/elements/1.1/"
   xmlns:cc="http://creativecommons.org/ns#"
   xmlns:rdf="http://www.w3.org/1999/02/22-rdf-syntax-ns#"
   xmlns:svg="http://www.w3.org/2000/svg"
   xmlns="http://www.w3.org/2000/svg"
   xmlns:sodipodi="http://sodipodi.sourceforge.net/DTD/sodipodi-0.dtd"
   xmlns:inkscape="http://www.inkscape.org/namespaces/inkscape"
   xml:space="preserve"
   width="1000"
   height="1000"
   version="1.1"
   style="clip-rule:evenodd;fill-rule:evenodd;image-rendering:optimizeQuality;shape-rendering:geometricPrecision;text-rendering:geometricPrecision"
   viewBox="0 0 1000 1000"
   id="svg10"
   sodipodi:docname="ൔ.svg"
   inkscape:version="1.0.2 (e86c870879, 2021-01-15)"><metadata
   id="metadata14"><rdf:RDF><cc:Work
       rdf:about=""><dc:format>image/svg+xml</dc:format><dc:type
         rdf:resource="http://purl.org/dc/dcmitype/StillImage" /><dc:title /></cc:Work></rdf:RDF></metadata><sodipodi:namedview
   pagecolor="#ffffff"
   bordercolor="#666666"
   borderopacity="1"
   objecttolerance="10"
   gridtolerance="10"
   guidetolerance="10"
   inkscape:pageopacity="0"
   inkscape:pageshadow="2"
   inkscape:window-width="1920"
   inkscape:window-height="1007"
   id="namedview12"
   showgrid="false"
   inkscape:zoom="0.84890884"
   inkscape:cx="327.86116"
   inkscape:cy="366.79044"
   inkscape:window-x="1920"
   inkscape:window-y="0"
   inkscape:window-maximized="1"
   inkscape:current-layer="svg10"
   showguides="true"
   inkscape:guide-bbox="true"
   inkscape:document-rotation="0"><sodipodi:guide
   position="0,1000"
   orientation="0,1"
   id="guide16"
   inkscape:label=""
   inkscape:locked="true"
   inkscape:color="rgb(0,0,255)" /><sodipodi:guide
   position="1763.3122,2036.1693"
   orientation="1000,0"
   id="guide18" /><sodipodi:guide
   position="0,200"
   orientation="0,1"
   id="guide20"
   inkscape:label="base"
   inkscape:locked="true"
   inkscape:color="rgb(0,0,255)" /><inkscape:grid
   type="xygrid"
   id="grid24"
   originx="-473.37552"
   originy="-489.69235" /><sodipodi:guide
   position="0,0"
   orientation="0,1"
   id="guide34"
   inkscape:label="bottom"
   inkscape:locked="true"
   inkscape:color="rgb(0,0,255)" /><sodipodi:guide
   position="225.05109,1693.3186"
   orientation="0,1"
   id="guide44"
   inkscape:label=""
   inkscape:locked="false"
   inkscape:color="rgb(0,0,255)" /><sodipodi:guide
   position="0,900"
   orientation="0,1"
   id="guide46"
   inkscape:label=""
   inkscape:locked="true"
   inkscape:color="rgb(0,0,255)" /><sodipodi:guide
   position="675.81844,652.82581"
   orientation="1,0"
   id="guide841"
   inkscape:label="width" />    </sodipodi:namedview>
 <defs
   id="defs4"><inkscape:path-effect
   effect="fillet_chamfer"
   id="path-effect843"
   is_visible="true"
   lpeversion="1"
   satellites_param="F,0,1,1,0,16.852442,0,1 @ F,0,0,1,0,0,0,1 @ F,0,0,1,0,0,0,1 @ F,0,0,1,0,0,0,1 @ F,0,0,1,0,0,0,1 @ F,0,0,1,0,0,0,1 @ F,0,0,1,0,0,0,1 @ F,0,0,1,0,0,0,1 @ F,0,0,1,0,0,0,1 @ F,0,0,1,0,0,0,1 @ F,0,0,1,0,0,0,1 @ F,0,0,1,0,0,0,1 @ F,0,0,1,0,0,0,1 @ F,0,0,1,0,0,0,1 @ F,0,0,1,0,0,0,1 @ F,0,0,1,0,0,0,1 @ F,0,0,1,0,0,0,1 @ F,0,0,1,0,0,0,1 @ F,0,0,1,0,0,0,1 @ F,0,1,1,0,16.852442,0,1 @ F,0,1,1,0,16.852442,0,1 @ F,0,0,1,0,0,0,1 @ F,0,0,1,0,0,0,1 @ F,0,0,1,0,0,0,1 @ F,0,0,1,0,0,0,1 @ F,0,0,1,0,0,0,1 @ F,0,0,1,0,0,0,1 @ F,0,0,1,0,0,0,1 @ F,0,0,1,0,0,0,1 @ F,0,0,1,0,0,0,1 @ F,0,0,1,0,0,0,1 @ F,0,1,1,0,16.852442,0,1 @ F,0,1,1,0,16.852442,0,1 @ F,0,0,1,0,0,0,1 @ F,0,0,1,0,0,0,1 @ F,0,0,1,0,0,0,1 @ F,0,0,1,0,0,0,1 @ F,0,0,1,0,0,0,1 @ F,0,0,1,0,0,0,1 @ F,0,0,1,0,0,0,1 @ F,0,0,1,0,0,0,1 @ F,0,0,1,0,0,0,1 @ F,0,0,1,0,0,0,1 @ F,0,0,1,0,0,0,1 @ F,0,0,1,0,0,0,1 @ F,0,1,1,0,16.852442,0,1"
   unit="px"
   method="auto"
   mode="F"
   radius="0"
   chamfer_steps="1"
   flexible="false"
   use_knot_distance="true"
   apply_no_radius="true"
   apply_with_radius="true"
   only_selected="true"
   hide_knots="false" /><inkscape:path-effect
   effect="fillet_chamfer"
   id="path-effect842"
   is_visible="true"
   lpeversion="1"
   satellites_param="F,0,1,1,0,34.403726,0,1 @ F,0,0,1,0,0,0,1 @ F,0,0,1,0,0,0,1 @ F,0,0,1,0,0,0,1 @ F,0,0,1,0,0,0,1 @ F,0,0,1,0,0,0,1 @ F,0,0,1,0,0,0,1 @ F,0,0,1,0,0,0,1 @ F,0,0,1,0,0,0,1 @ F,0,0,1,0,0,0,1 @ F,0,0,1,0,0,0,1 @ F,0,0,1,0,0,0,1 @ F,0,0,1,0,0,0,1 @ F,0,0,1,0,0,0,1 @ F,0,0,1,0,0,0,1 @ F,0,0,1,0,0,0,1 @ F,0,0,1,0,0,0,1 @ F,0,0,1,0,0,0,1 @ F,0,1,1,0,34.403726,0,1 @ F,0,1,1,0,34.403726,0,1 @ F,0,0,1,0,0,0,1 @ F,0,0,1,0,0,0,1 @ F,0,0,1,0,0,0,1 @ F,0,0,1,0,0,0,1 @ F,0,0,1,0,0,0,1 @ F,0,0,1,0,0,0,1 @ F,0,0,1,0,0,0,1 @ F,0,0,1,0,0,0,1 @ F,0,0,1,0,0,0,1 @ F,0,0,1,0,0,0,1 @ F,0,0,1,0,0,0,1 @ F,0,0,1,0,0,0,1 @ F,0,1,1,0,34.403726,0,1 @ F,0,1,1,0,34.403726,0,1 @ F,0,0,1,0,0,0,1 @ F,0,0,1,0,0,0,1 @ F,0,0,1,0,0,0,1 @ F,0,0,1,0,0,0,1 @ F,0,0,1,0,0,0,1 @ F,0,0,1,0,0,0,1 @ F,0,0,1,0,0,0,1 @ F,0,0,1,0,0,0,1 @ F,0,0,1,0,0,0,1 @ F,0,0,1,0,0,0,1 @ F,0,0,1,0,0,0,1 @ F,0,0,1,0,0,0,1 @ F,0,0,1,0,0,0,1 @ F,0,1,1,0,34.403726,0,1"
   unit="px"
   method="auto"
   mode="F"
   radius="0"
   chamfer_steps="1"
   flexible="false"
   use_knot_distance="true"
   apply_no_radius="true"
   apply_with_radius="true"
   only_selected="true"
   hide_knots="false" />
  <style
   type="text/css"
   id="style2">
   <![CDATA[
    .fil0 {fill:#EF7F1A;fill-rule:nonzero}
   ]]>
  </style>
 <inkscape:path-effect
   effect="spiro"
   id="path-effect1214"
   is_visible="true"
   lpeversion="1" /><inkscape:path-effect
   effect="spiro"
   id="path-effect1195"
   is_visible="true"
   lpeversion="1" /><inkscape:path-effect
   effect="spiro"
   id="path-effect992"
   is_visible="true"
   lpeversion="1" /></defs>
 
<path
   style="display:inline;fill:#63452c;fill-rule:nonzero;stroke:none;stroke-width:1.82472px;stroke-linecap:butt;stroke-linejoin:miter;stroke-opacity:1"
   d="M 246.4562,635.93252 C 180.0147,605.41618 121.23963,558.30007 77.122974,499.98338 42.414209,454.10275 16.451939,400.4606 9.5696615,343.34348 2.6873841,286.22636 16.261561,225.53015 52.753003,181.05425 c 34.739331,-42.34042 87.555117,-67.1884 141.578637,-76.18797 92.79488,-15.458339 190.60736,13.85249 264.47885,72.1007 36.98059,29.15947 68.59661,65.50199 90.19139,107.35296 27.36253,53.02894 38.00344,115.30177 25.48746,173.64667 -8.79278,40.98871 -28.61999,79.14834 -54.39751,112.20748 -25.77753,33.05914 -57.40756,61.21049 -91.22118,85.99005 -66.50297,48.73522 -142.13054,84.97542 -221.78023,106.27553 l -2.18729,-56.0272 c 99.75371,17.95531 201.93593,22.36826 302.86621,13.07991 12.93425,-1.1903 25.99461,-2.63709 38.21185,-7.04738 12.21724,-4.41028 23.67597,-12.10567 30.2372,-23.31557 6.5729,-11.22986 7.65593,-24.73841 8.40409,-37.72891 2.52063,-43.76669 2.97957,-88.03237 -5.48726,-131.0462 C 563.50162,440.93137 518.73186,370.93338 480.63902,299.50965 449.9307,241.93182 422.50324,179.15988 426.59426,114.03331 428.7701,79.395221 440.13551,45.397709 459.06728,16.321151 464.14419,8.5237421 476.39371,2.4752499 485.69969,2.3154047 L 603.64953,0.28942527 c 9.30598,-0.15984516 12.27425,5.71061603 6.766,13.21287773 -12.98355,17.683633 -25.40427,35.780495 -37.23674,54.254154 -23.48925,36.673033 -45.22814,76.765133 -46.68226,120.291463 -0.92397,27.6573 6.50728,55.05518 17.43133,80.48046 10.92404,25.42529 25.30171,49.18683 39.07476,73.18856 27.8613,48.55276 53.56035,98.77147 69.76269,152.35417 23.91573,79.09163 26.33827,164.40183 8.22424,245.02025 -3.32657,14.80526 -7.69503,30.12883 -18.16705,41.11056 -6.80099,7.13202 -15.77403,11.92287 -25.15345,14.94706 -9.37941,3.02419 -19.20967,4.37518 -29.00952,5.41541 -82.13359,8.71827 -164.83274,-3.50368 -247.29388,-8.20432 -74.53692,-4.24893 -149.42418,-2.332 -223.64667,5.71853 -9.25301,1.00363 -18.852587,-5.32261 -21.455585,-14.25856 L 68.229767,687.58219 c -2.602998,-8.93595 2.353256,-13.50765 11.273844,-10.85832 17.903493,5.31718 36.383149,8.6953 55.011169,10.04179 46.87518,3.38827 94.07587,-6.1295 137.98613,-22.88219 34.2098,-13.05176 66.93652,-30.63005 94.91942,-54.24394 27.9829,-23.61389 51.12558,-53.45115 64.41723,-87.56846 15.8046,-40.56762 17.10485,-86.31229 5.45169,-128.26132 -11.65315,-41.94902 -35.95331,-80.02998 -67.8033,-109.71323 -30.35252,-28.28765 -68.38803,-49.39578 -109.51428,-54.88186 -20.56313,-2.74303 -41.71476,-1.54204 -61.65385,4.18502 -19.93909,5.72706 -38.63212,16.02877 -53.65444,30.33599 -22.39201,21.32609 -36.01121,51.23207 -39.02179,82.00772 -3.01058,30.77565 4.31754,62.23518 19.18329,89.35 22.6868,41.38024 62.06125,71.97155 105.4825,90.45424 39.19457,16.68356 82.24102,24.205 124.77156,21.93122 9.29263,-0.49681 11.12204,3.56739 4.12959,9.71006 l -84.64529,74.35839 c -6.99245,6.14267 -19.64967,8.26966 -28.10704,4.38522 z"
   id="path3501-3"
   inkscape:path-effect="#path-effect992;#path-effect843"
   inkscape:original-d="m 261.90229,642.66958 c 0,0 -147.82965,-74.19837 -184.779316,-142.6862 C 26.4986,406.14887 1.5971895,274.60007 52.753003,181.05425 78.466395,134.03353 141.08591,110.9503 194.33164,104.86628 c 90.78612,-10.373499 187.50428,22.86 264.47885,72.1007 39.3706,25.18541 71.03837,64.72068 90.19139,107.35296 23.97452,53.36434 39.61826,116.87651 25.48746,173.64667 -19.80173,79.55298 -82.49649,145.88719 -145.61869,198.19753 -63.11902,52.30771 -221.78023,106.27553 -221.78023,106.27553 l -2.18729,-56.0272 c 0,0 203.58161,31.8834 302.86621,13.07991 24.52442,-4.64467 52.63352,-11.05261 68.44905,-30.36295 8.16397,-9.96798 7.26323,-24.89499 8.40409,-37.72891 3.87123,-43.54862 4.50913,-88.484 -5.48726,-131.0462 C 560.70548,441.88495 508.39373,375.18509 480.63902,299.50965 458.46523,239.05102 424.05355,178.37978 426.59426,114.03331 428.16153,74.340431 468.84973,2.60483 468.84973,2.60483 L 620.49949,0 c 0,0 -34.35779,43.448589 -47.3207,67.756457 -20.23876,37.951433 -46.29907,77.282483 -46.68226,120.291463 -0.48622,54.57409 35.71219,103.20933 56.50609,153.66902 21.28135,51.64254 56.94852,97.98834 69.76269,152.35417 18.74775,79.53983 23.76001,164.79119 8.22424,245.02025 -2.84823,14.70868 -7.27822,30.82022 -18.16705,41.11056 -14.01852,13.24801 -35.13127,17.22826 -54.16297,20.36247 -81.38047,13.40205 -164.81725,-8.14685 -247.29388,-8.20432 C 261.19551,792.30422 100.97654,800 100.97654,800 L 63.516622,671.40223 c 0,0 39.918898,1.55509 70.998158,15.36343 31.07926,13.80903 95.91937,-2.77864 137.98613,-22.88219 64.15252,-30.65738 138.75732,-73.75414 159.33665,-141.8124 23.73425,-78.49274 0.23864,-184.99473 -62.35161,-237.97455 -57.43443,-48.61565 -177.9486,-79.22532 -224.82257,-20.36085 -34.38854,43.18524 -40.81083,117.81803 -19.8385,171.35772 16.89377,43.12763 63.31138,71.2973 105.4825,90.45424 43.41127,19.7203 141.5621,20.519 141.5621,20.519 z"
   sodipodi:nodetypes="caaaaaaaccaaaaaaccaaaaaaaaccsaaasaacc" /></svg>
