<svg xmlns="http://www.w3.org/2000/svg" xmlns:dc="http://purl.org/dc/elements/1.1/" xmlns:ns1="http://sodipodi.sourceforge.net/DTD/sodipodi-0.dtd" xmlns:ns2="http://www.inkscape.org/namespaces/inkscape" xmlns:ns4="http://creativecommons.org/ns#" xmlns:rdf="http://www.w3.org/1999/02/22-rdf-syntax-ns#" xml:space="preserve" width="1000" height="1000" version="1.1" style="clip-rule:evenodd;fill-rule:evenodd;image-rendering:optimizeQuality;shape-rendering:geometricPrecision;text-rendering:geometricPrecision" viewBox="0 0 1000 1000" id="svg10" ns1:docname="ൕ.svg" ns2:version="1.1.1 (3bf5ae0d25, 2021-09-20)"><metadata id="metadata14"><rdf:RDF><ns4:Work rdf:about=""><dc:format>image/svg+xml</dc:format><dc:type rdf:resource="http://purl.org/dc/dcmitype/StillImage" /></ns4:Work></rdf:RDF></metadata><ns1:namedview pagecolor="#ffffff" bordercolor="#666666" borderopacity="1" objecttolerance="10" gridtolerance="10" guidetolerance="10" ns2:pageopacity="0" ns2:pageshadow="2" ns2:window-width="1920" ns2:window-height="1009" id="namedview12" showgrid="false" ns2:zoom="1.356" ns2:cx="661.13569" ns2:cy="289.08555" ns2:window-x="0" ns2:window-y="0" ns2:window-maximized="1" ns2:current-layer="svg10" showguides="true" ns2:guide-bbox="true" ns2:document-rotation="0" ns2:snap-to-guides="true" ns2:pagecheckerboard="0"><ns1:guide position="0,1000" orientation="0,1" id="guide16" ns2:label="" ns2:locked="true" ns2:color="rgb(0,0,255)" /><ns1:guide position="1763.3122,2036.1693" orientation="1000,0" id="guide18" /><ns1:guide position="0,200" orientation="0,1" id="guide20" ns2:label="base" ns2:locked="true" ns2:color="rgb(0,0,255)" /><ns2:grid type="xygrid" id="grid24" originx="-473.37552" originy="-489.69235" /><ns1:guide position="0,0" orientation="0,1" id="guide34" ns2:label="bottom" ns2:locked="true" ns2:color="rgb(0,0,255)" /><ns1:guide position="225.05109,1693.3186" orientation="0,1" id="guide44" ns2:label="" ns2:locked="false" ns2:color="rgb(0,0,255)" /><ns1:guide position="0,900" orientation="0,1" id="guide46" ns2:label="" ns2:locked="true" ns2:color="rgb(0,0,255)" /><ns1:guide position="814.33538,474.10683" orientation="-1,0" id="guide841" ns2:label="width" ns2:locked="false" ns2:color="rgb(0,0,255)" /><ns1:guide position="0,1000" orientation="0,1000" id="guide860" /><ns1:guide position="1000,1000" orientation="1000,0" id="guide862" /><ns1:guide position="1000,0" orientation="0,-1000" id="guide864" /><ns1:guide position="0,0" orientation="-1000,0" id="guide866" /></ns1:namedview>
 <defs id="defs4"><ns2:path-effect effect="fillet_chamfer" id="path-effect859" is_visible="true" lpeversion="1" satellites_param="F,0,0,1,0,0,0,1 @ F,0,0,1,0,0,0,1 @ F,0,0,1,0,0,0,1 @ F,0,0,1,0,0,0,1 @ F,0,0,1,0,0,0,1 @ F,0,0,1,0,0,0,1 @ F,0,0,1,0,0,0,1 @ F,0,0,1,0,0,0,1 @ F,0,0,1,0,0,0,1 @ F,0,0,1,0,0,0,1 @ F,0,0,1,0,0,0,1 @ F,0,0,1,0,0,0,1 @ F,0,0,1,0,0,0,1 @ F,0,0,1,0,0,0,1 @ F,0,0,1,0,0,0,1 @ F,0,0,1,0,0,0,1 @ F,0,0,1,0,0,0,1 @ F,0,0,1,0,0,0,1 @ F,0,0,1,0,0,0,1 @ F,0,0,1,0,0,0,1 @ F,0,0,1,0,0,0,1 @ F,0,0,1,0,0,0,1 @ F,0,0,1,0,0,0,1 @ F,0,0,1,0,0,0,1 @ F,0,0,1,0,13.198717,0,1 @ F,0,0,1,0,13.550296,0,1 @ F,0,0,1,0,0,0,1 @ F,0,0,1,0,0,0,1 @ F,0,0,1,0,0,0,1 @ F,0,0,1,0,0,0,1 @ F,0,0,1,0,0,0,1 @ F,0,0,1,0,0,0,1 @ F,0,0,1,0,0,0,1 @ F,0,0,1,0,0,0,1 @ F,0,0,1,0,0,0,1 @ F,0,0,1,0,0,0,1 @ F,0,0,1,0,0,0,1 @ F,0,0,1,0,0,0,1 @ F,0,0,1,0,0,0,1 @ F,0,0,1,0,0,0,1 @ F,0,0,1,0,0,0,1 @ F,0,0,1,0,0,0,1 @ F,0,0,1,0,0,0,1 @ F,0,0,1,0,0,0,1 @ F,0,0,1,0,0,0,1 @ F,0,0,1,0,0,0,1 @ F,0,0,1,0,0,0,1 @ F,0,0,1,0,0,0,1 @ F,0,0,1,0,0,0,1 @ F,0,0,1,0,0,0,1 @ F,0,0,1,0,0,0,1 @ F,0,0,1,0,0,0,1 @ F,0,0,1,0,0,0,1 @ F,0,0,1,0,0,0,1" unit="px" method="auto" mode="F" radius="0" chamfer_steps="1" flexible="false" use_knot_distance="true" apply_no_radius="true" apply_with_radius="true" only_selected="true" hide_knots="false" /><ns2:path-effect effect="fillet_chamfer" id="path-effect857" is_visible="true" lpeversion="1" satellites_param="F,0,0,1,0,0,0,1 @ F,0,0,1,0,0,0,1 @ F,0,0,1,0,0,0,1 @ F,0,0,1,0,0,0,1 @ F,0,0,1,0,0,0,1 @ F,0,0,1,0,0,0,1 @ F,0,0,1,0,0,0,1 @ F,0,0,1,0,0,0,1 @ F,0,0,1,0,0,0,1 @ F,0,0,1,0,0,0,1 @ F,0,0,1,0,0,0,1 @ F,0,0,1,0,0,0,1 @ F,0,0,1,0,0,0,1 @ F,0,0,1,0,0,0,1 @ F,0,0,1,0,0,0,1 @ F,0,0,1,0,0,0,1 @ F,0,0,1,0,0,0,1 @ F,0,0,1,0,0,0,1 @ F,0,0,1,0,0,0,1 @ F,0,0,1,0,0,0,1 @ F,0,0,1,0,0,0,1 @ F,0,0,1,0,0,0,1 @ F,0,0,1,0,0,0,1 @ F,0,0,1,0,0,0,1 @ F,0,0,1,0,0,0,1 @ F,0,1,1,0,20.579265,0,1 @ F,0,1,1,0,20.579265,0,1 @ F,0,0,1,0,0,0,1 @ F,0,0,1,0,0,0,1 @ F,0,0,1,0,0,0,1 @ F,0,0,1,0,0,0,1 @ F,0,0,1,0,0,0,1 @ F,0,0,1,0,0,0,1 @ F,0,0,1,0,0,0,1 @ F,0,0,1,0,0,0,1 @ F,0,0,1,0,0,0,1 @ F,0,0,1,0,0,0,1 @ F,0,0,1,0,0,0,1 @ F,0,0,1,0,0,0,1 @ F,0,0,1,0,0,0,1 @ F,0,0,1,0,0,0,1 @ F,0,0,1,0,0,0,1 @ F,0,0,1,0,0,0,1 @ F,0,0,1,0,0,0,1 @ F,0,0,1,0,0,0,1 @ F,0,0,1,0,0,0,1 @ F,0,0,1,0,0,0,1 @ F,0,0,1,0,0,0,1 @ F,0,0,1,0,0,0,1 @ F,0,0,1,0,0,0,1 @ F,0,0,1,0,0,0,1 @ F,0,0,1,0,0,0,1 @ F,0,0,1,0,0,0,1 @ F,0,0,1,0,0,0,1 @ F,0,0,1,0,0,0,1" unit="px" method="auto" mode="F" radius="0" chamfer_steps="1" flexible="false" use_knot_distance="true" apply_no_radius="true" apply_with_radius="true" only_selected="true" hide_knots="false" /><ns2:path-effect effect="spiro" id="path-effect862" is_visible="true" lpeversion="1" /><ns2:path-effect effect="spiro" id="path-effect1521" is_visible="true" lpeversion="1" /><ns2:path-effect effect="spiro" id="path-effect858" is_visible="true" lpeversion="1" /><ns2:path-effect effect="spiro" id="path-effect854" is_visible="true" lpeversion="1" />
  <style type="text/css" id="style2">
   
    .fil0 {fill:#EF7F1A;fill-rule:nonzero}
   
  </style>
 <ns2:path-effect effect="spiro" id="path-effect1214" is_visible="true" lpeversion="1" /><ns2:path-effect effect="spiro" id="path-effect1195" is_visible="true" lpeversion="1" /><ns2:path-effect effect="spiro" id="path-effect992" is_visible="true" lpeversion="1" /><ns2:path-effect effect="spiro" id="path-effect287" is_visible="true" lpeversion="1" /><ns2:path-effect effect="spiro" id="path-effect1032" is_visible="true" lpeversion="1" /><ns2:path-effect effect="spiro" id="path-effect1218" is_visible="true" lpeversion="1" /><ns2:path-effect effect="spiro" id="path-effect309" is_visible="true" lpeversion="1" /><ns2:path-effect effect="spiro" id="path-effect1176" is_visible="true" lpeversion="1" /><ns2:path-effect effect="spiro" id="path-effect1026" is_visible="true" lpeversion="1" /><ns2:path-effect effect="spiro" id="path-effect1255" is_visible="true" lpeversion="1" /></defs>
 
<path style="display:inline;fill:#613583;fill-rule:nonzero;stroke:none;stroke-width:2.23544px;stroke-linecap:butt;stroke-linejoin:miter;stroke-opacity:1" d="m 240.66943,322.06845 c 3.16756,-70.5269 38.30208,-139.0007 93.74689,-182.70368 21.47175,-16.92456 45.92783,-30.30394 72.25422,-37.67946 26.32639,-7.375507 54.55731,-8.612736 81.08027,-1.978753 39.6537,9.918273 73.76282,37.156083 96.46808,71.145183 22.70526,33.9891 34.65768,74.32735 39.28641,114.9397 11.99203,105.21772 -23.59029,210.71449 -73.96859,303.86278 -25.22753,46.6451 -54.60472,91.64992 -92.82555,128.41079 -38.22084,36.76086 -85.96369,65.02148 -138.27862,73.70141 C 250.61329,803.01877 179.05752,779.65897 127.13167,734.60598 77.359644,691.42173 45.479884,630.56348 26.886303,567.34629 8.3450383,504.30698 2.0529294,437.1788 13.090746,372.40303 c 6.176039,-36.24428 17.899998,-71.92179 37.896754,-102.775 14.90767,-23.00121 34.59826,-43.30153 58.69525,-56.36404 24.09699,-13.06251 52.79483,-18.48175 79.49464,-12.28383 31.52412,7.31781 57.66931,29.90766 76.70556,56.07904 19.03624,26.17139 32.06785,56.11025 46.59677,85.02791 41.79681,83.19036 96.70781,159.10805 141.22104,240.87713 13.11848,24.09813 25.43438,48.86013 42.40489,70.41972 16.97051,21.55959 39.33576,40.02624 65.93496,46.75654 22.96978,5.81196 47.84939,2.35611 69.20289,-7.9112 21.3535,-10.26731 39.24388,-27.06581 52.40577,-46.76744 25.64792,-38.39157 33.15584,-86.17869 33.62861,-132.34692 1.53731,-150.12706 -63.79525,-293.69167 -72.49513,-443.57432 -2.47736,-42.680291 -0.31225,-85.627953 6.43391,-127.844195 1.15023,-7.197973 7.85915,-11.216838 14.80528,-9.0061 l 135.40134,43.094064 c 7.13116,2.269627 10.05982,9.465535 6.75275,16.1785181 C 782.73104,43.613387 766.59106,99.838666 760.81609,157.1284 c -12.16041,120.63563 21.20905,240.77009 30.1938,361.68371 3.78832,50.98189 3.09831,103.15642 -12.10705,151.96524 -9.67123,31.0444 -25.34755,60.53527 -47.84856,84.00849 -22.50101,23.47322 -52.07539,40.67061 -84.17432,45.86156 -28.72837,4.64587 -58.57999,-0.41197 -85.30999,-11.91894 -26.73,-11.50698 -50.46924,-29.25602 -71.04147,-49.83967 -41.14447,-41.1673 -69.56968,-92.96585 -101.94279,-141.33521 -29.33793,-43.83444 -62.19307,-85.19046 -93.12038,-127.91837 -21.55002,-29.77264 -42.2319,-60.29832 -66.65129,-87.76661 -11.01902,-12.3948 -22.96188,-24.28171 -37.34355,-32.5411 -14.38166,-8.25939 -31.55039,-12.64573 -47.77134,-9.19165 -11.00019,2.34237 -21.11696,8.20662 -29.16222,16.06567 -8.04526,7.85906 -14.06929,17.65643 -18.177855,28.12593 -8.217132,20.93902 -8.801995,44.05494 -7.675895,66.52037 2.127594,42.445 10.141941,85.02271 28.07235,123.55329 17.83781,38.33159 46.14261,72.67293 83.41933,92.62148 25.05811,13.40979 53.5631,19.9947 81.9832,20.16642 28.4201,0.17172 56.7392,-5.97267 83.03111,-16.76466 62.97741,-25.85022 113.60508,-78.71401 140.10024,-141.42281 22.80966,-53.98595 28.284,-114.46303 20.32435,-172.52685 -3.02717,-22.08249 -8.00607,-44.0844 -17.34523,-64.32249 -9.33916,-20.23809 -23.26288,-38.71769 -41.75944,-51.15463 -18.80702,-12.6457 -42.03904,-18.58678 -64.60115,-16.44929 -22.56211,2.1375 -44.28654,12.35182 -60.27364,28.41514 -14.50393,14.57308 -24.12192,33.548 -29.42267,53.41356 -5.30075,19.86556 -6.4517,40.64705 -5.59307,61.18972 0.68843,16.47081 2.65153,32.88818 5.86595,49.05694 z" id="path1253" ns2:path-effect="#path-effect1255;#path-effect859" ns2:original-d="m 240.66943,322.06845 c 0,0 40.30311,-139.93431 93.74689,-182.70368 C 375.6356,106.37828 438.04541,81.915808 487.75081,99.706557 560.04009,125.58062 608.57183,210.47744 623.5053,285.79144 643.78064,388.0461 603.62418,500.53829 549.53671,589.65422 496.43864,677.13999 418.4342,770.02172 318.43254,791.76642 253.39953,805.90742 179.68294,775.44253 127.13167,734.60598 75.80647,694.72218 46.423418,629.3406 26.886303,567.34629 7.306011,505.21498 3.9159862,436.89731 13.090746,372.40303 c 5.14247,-36.14917 13.506387,-75.60301 37.896754,-102.775 34.35727,-38.27558 87.7387,-78.65384 138.18989,-68.64787 61.26961,12.15158 86.79515,90.42311 123.30233,141.10695 54.39821,75.5224 85.76816,166.12571 141.22104,240.87713 31.69345,42.72331 56.21546,106.55539 108.33985,117.17626 43.55038,8.87383 93.0259,-20.64328 121.60866,-54.67864 29.27233,-34.85648 31.65316,-86.8723 33.62861,-132.34692 6.50214,-149.67863 -64.96374,-293.94395 -72.49513,-443.57432 -2.36467,-46.98029 8.66211,-140.853191 8.66211,-140.853191 l 160.89052,51.206483 c 0,0 -47.05213,115.861348 -53.51929,177.234488 -12.67807,120.31448 29.96477,240.70332 30.1938,361.68371 0.0962,50.8155 9.37903,105.91557 -12.10705,151.96524 C 752.80152,726.71855 708.516,797.2276 646.87996,800.6474 537.5224,806.71497 464.58327,676.42221 388.58571,597.55358 351.98987,559.5752 326.93557,511.95822 295.46533,469.63521 273.54557,440.15624 257.17917,405.2118 228.81404,381.8686 c -24.3987,-20.07901 -55.18952,-51.87843 -85.11489,-41.73275 -39.02738,13.23156 -50.12829,69.7935 -55.01597,110.71197 -5.00923,41.93599 8.63345,86.05865 28.07235,123.55329 19.12397,36.8872 45.63666,75.33388 83.41933,92.62148 50.02829,22.89062 114.01982,24.05054 165.01431,3.40176 61.50539,-24.90487 111.29836,-81.64307 140.10024,-141.42281 25.13429,-52.16747 30.57178,-115.53416 20.32435,-172.52685 -7.6522,-42.55888 -21.17963,-94.70441 -59.10467,-115.47712 -36.67458,-20.08779 -92.48931,-14.48646 -124.87479,11.96585 -30.93629,25.26862 -31.4749,74.8161 -35.01574,114.60328 -1.45986,16.40397 4.80655,42.37008 5.86595,49.05694 z" ns1:nodetypes="caaaaaaaaaaaaaaaaccaaaaaaaaaaaaaaaaacc" /></svg>