<?xml version="1.0" encoding="UTF-8" standalone="no"?>
<svg
   xml:space="preserve"
   width="1000"
   height="1000"
   version="1.1"
   style="clip-rule:evenodd;fill-rule:evenodd;image-rendering:optimizeQuality;shape-rendering:geometricPrecision;text-rendering:geometricPrecision"
   viewBox="0 0 1000 1000"
   id="svg10"
   sodipodi:docname="൛.svg"
   inkscape:version="1.1.2 (0a00cf5339, 2022-02-04)"
   xmlns:inkscape="http://www.inkscape.org/namespaces/inkscape"
   xmlns:sodipodi="http://sodipodi.sourceforge.net/DTD/sodipodi-0.dtd"
   xmlns="http://www.w3.org/2000/svg"
   xmlns:svg="http://www.w3.org/2000/svg"
   xmlns:rdf="http://www.w3.org/1999/02/22-rdf-syntax-ns#"
   xmlns:cc="http://creativecommons.org/ns#"
   xmlns:dc="http://purl.org/dc/elements/1.1/"><metadata
   id="metadata14"><rdf:RDF><cc:Work
       rdf:about=""><dc:format>image/svg+xml</dc:format><dc:type
         rdf:resource="http://purl.org/dc/dcmitype/StillImage" /></cc:Work></rdf:RDF></metadata><sodipodi:namedview
   pagecolor="#ffffff"
   bordercolor="#666666"
   borderopacity="1"
   objecttolerance="10"
   gridtolerance="10"
   guidetolerance="10"
   inkscape:pageopacity="0"
   inkscape:pageshadow="2"
   inkscape:window-width="1920"
   inkscape:window-height="1009"
   id="namedview12"
   showgrid="false"
   inkscape:zoom="0.6002692"
   inkscape:cx="79.131163"
   inkscape:cy="568.07846"
   inkscape:window-x="0"
   inkscape:window-y="0"
   inkscape:window-maximized="1"
   inkscape:current-layer="svg10"
   showguides="true"
   inkscape:guide-bbox="true"
   inkscape:document-rotation="0"
   inkscape:pagecheckerboard="0"><sodipodi:guide
   position="0,1000"
   orientation="0,1"
   id="guide16"
   inkscape:label=""
   inkscape:locked="true"
   inkscape:color="rgb(0,0,255)" /><sodipodi:guide
   position="1763.3122,2036.1693"
   orientation="1000,0"
   id="guide18" /><sodipodi:guide
   position="0,200"
   orientation="0,1"
   id="guide20"
   inkscape:label="base"
   inkscape:locked="true"
   inkscape:color="rgb(0,0,255)" /><inkscape:grid
   type="xygrid"
   id="grid24"
   originx="-473.37552"
   originy="-489.69235" /><sodipodi:guide
   position="0,0"
   orientation="0,1"
   id="guide34"
   inkscape:label="bottom"
   inkscape:locked="true"
   inkscape:color="rgb(0,0,255)" /><sodipodi:guide
   position="225.05109,1693.3186"
   orientation="0,1"
   id="guide44"
   inkscape:label=""
   inkscape:locked="false"
   inkscape:color="rgb(0,0,255)" /><sodipodi:guide
   position="0,900"
   orientation="0,1"
   id="guide46"
   inkscape:label=""
   inkscape:locked="true"
   inkscape:color="rgb(0,0,255)" /><sodipodi:guide
   position="654.00487,774.75758"
   orientation="1,0"
   id="guide841"
   inkscape:label="width" />    </sodipodi:namedview>
 <defs
   id="defs4"><inkscape:path-effect
   effect="fillet_chamfer"
   id="path-effect845"
   is_visible="true"
   lpeversion="1"
   satellites_param="F,0,0,1,0,0,0,1 @ F,0,0,1,0,0,0,1 @ F,0,0,1,0,0,0,1 @ F,0,0,1,0,0,0,1 @ F,0,0,1,0,0,0,1 @ F,0,0,1,0,0,0,1 @ F,0,0,1,0,0,0,1 @ F,0,0,1,0,0,0,1 @ F,0,0,1,0,16.006965,0,1 @ F,0,0,1,0,12.705025,0,1 @ F,0,0,1,0,0,0,1 @ F,0,0,1,0,14.380943,0,1 @ F,0,0,1,0,13.820267,0,1 @ F,0,0,1,0,0,0,1 @ F,0,0,1,0,0,0,1 @ F,0,0,1,0,0,0,1 @ F,0,0,1,0,0,0,1 @ F,0,0,1,0,0,0,1 @ F,0,0,1,0,0,0,1 @ F,0,0,1,0,10.710522,0,1 @ F,0,0,1,0,10.875155,0,1 @ F,0,0,1,0,13.314799,0,1 @ F,0,0,1,0,0,0,1 @ F,0,0,1,0,0,0,1 @ F,0,0,1,0,0,0,1 @ F,0,0,1,0,0,0,1 @ F,0,0,1,0,0,0,1 @ F,0,0,1,0,0,0,1 @ F,0,0,1,0,12.78842,0,1 @ F,0,0,1,0,9.4447629,0,1 @ F,0,0,1,0,0,0,1 @ F,0,0,1,0,12.948124,0,1 @ F,0,0,1,0,16.933971,0,1 @ F,0,0,1,0,0,0,1 @ F,0,0,1,0,0,0,1 @ F,0,0,1,0,0,0,1 @ F,0,0,1,0,0,0,1 @ F,0,0,1,0,0,0,1 @ F,0,0,1,0,0,0,1 @ F,0,0,1,0,0,0,1 @ F,0,0,1,0,0,0,1"
   unit="px"
   method="auto"
   mode="F"
   radius="0"
   chamfer_steps="1"
   flexible="false"
   use_knot_distance="true"
   apply_no_radius="true"
   apply_with_radius="true"
   only_selected="true"
   hide_knots="false" /><inkscape:path-effect
   effect="fillet_chamfer"
   id="path-effect844"
   is_visible="true"
   lpeversion="1"
   satellites_param="F,0,0,1,0,0,0,1 @ F,0,0,1,0,0,0,1 @ F,0,0,1,0,0,0,1 @ F,0,0,1,0,0,0,1 @ F,0,0,1,0,0,0,1 @ F,0,0,1,0,0,0,1 @ F,0,0,1,0,0,0,1 @ F,0,0,1,0,0,0,1 @ F,0,0,1,0,28.383225,0,1 @ F,0,0,1,0,18.46733,0,1 @ F,0,0,1,0,0,0,1 @ F,0,0,1,0,0,0,1 @ F,0,0,1,0,0,0,1 @ F,0,0,1,0,0,0,1 @ F,0,0,1,0,0,0,1 @ F,0,0,1,0,0,0,1 @ F,0,0,1,0,0,0,1 @ F,0,0,1,0,0,0,1 @ F,0,0,1,0,0,0,1 @ F,0,0,1,0,0,0,1 @ F,0,1,1,0,27.61614,0,1 @ F,0,0,1,0,0,0,1 @ F,0,0,1,0,23.24714,0,1 @ F,0,0,1,0,0,0,1 @ F,0,0,1,0,0,0,1 @ F,0,0,1,0,0,0,1 @ F,0,0,1,0,0,0,1 @ F,0,0,1,0,0,0,1 @ F,0,0,1,0,0,0,1 @ F,0,0,1,0,0,0,1 @ F,0,0,1,0,27.61614,0,1 @ F,0,0,1,0,26.731904,0,1 @ F,0,0,1,0,0,0,1 @ F,0,0,1,0,0,0,1 @ F,0,0,1,0,0,0,1 @ F,0,0,1,0,0,0,1 @ F,0,0,1,0,0,0,1 @ F,0,0,1,0,0,0,1 @ F,0,0,1,0,0,0,1 @ F,0,0,1,0,0,0,1 @ F,0,0,1,0,0,0,1"
   unit="px"
   method="auto"
   mode="F"
   radius="0"
   chamfer_steps="1"
   flexible="false"
   use_knot_distance="true"
   apply_no_radius="true"
   apply_with_radius="true"
   only_selected="true"
   hide_knots="false" /><inkscape:path-effect
   effect="spiro"
   id="path-effect854"
   is_visible="true"
   lpeversion="1" />
  <style
   type="text/css"
   id="style2">
   
    .fil0 {fill:#EF7F1A;fill-rule:nonzero}
   
  </style>
 <inkscape:path-effect
   effect="spiro"
   id="path-effect1214"
   is_visible="true"
   lpeversion="1" /><inkscape:path-effect
   effect="spiro"
   id="path-effect1195"
   is_visible="true"
   lpeversion="1" /><inkscape:path-effect
   effect="spiro"
   id="path-effect992"
   is_visible="true"
   lpeversion="1" /><inkscape:path-effect
   effect="spiro"
   id="path-effect287"
   is_visible="true"
   lpeversion="1" /></defs>
 
<path
   style="display:inline;fill:#a51d2d;fill-rule:nonzero;stroke:none;stroke-width:1.96742;stroke-linecap:butt;stroke-linejoin:miter;stroke-miterlimit:4;stroke-dasharray:none;stroke-opacity:1"
   d="m 277.2019,328.25062 c 25.49388,-52.08059 54.40662,-102.48731 86.49036,-150.78804 l 30.70679,101.55128 c -44.85777,-9.81273 -90.30621,-16.92449 -136.0173,-21.28395 -15.92358,-1.51863 -31.95945,-2.70377 -47.90226,-1.4026 -15.94282,1.30117 -31.88773,5.18614 -45.71174,13.2337 -11.94218,6.95206 -22.03846,16.88105 -29.83353,28.29085 -7.79508,11.4098 -13.331,24.27877 -17.00775,37.59899 -5.93672,21.50763 -7.04989,43.95915 -6.55949,66.33792 0.19367,8.838 0.91114,23.15552 1.48896,31.97691 3.51768,53.70269 11.74915,107.11332 25.05188,159.25186 1.73469,6.79891 4.722,17.77684 6.64972,24.52359 14.80537,51.81661 33.36403,103.01499 37.61126,156.66088 2.11278,26.68606 0.60735,53.65476 -4.43958,79.94366 -1.49728,7.79917 -9.41068,13.0436 -17.25504,11.79966 L 35.734377,846.16438 c -7.538526,-1.19544 -10.86614,-7.6931 -7.698761,-14.63719 16.825509,-36.88785 28.062213,-76.3228 33.176092,-116.54398 6.247728,-49.13902 3.379003,-99.127 -4.58323,-148.01749 -13.642398,-83.7684 -42.243846,-166.37887 -37.3668,-251.11064 1.789317,-31.08684 8.263856,-62.28044 22.574003,-89.9357 14.310147,-27.65525 36.913146,-51.61523 65.407399,-64.17194 33.15139,-14.60899 71.10339,-12.89492 106.95168,-7.66642 32.30863,4.71224 64.57593,12.0752 97.1154,12.05194 5.91437,-0.004 15.4997,-0.51438 21.37748,-1.17193 17.05189,-1.9076 33.84155,-6.15744 49.74762,-12.59193 5.56707,-2.25205 11.47153,0.25822 13.3396,5.96651 l 36.24764,110.76226 c 2.28714,6.98884 -1.41362,14.83653 -8.05598,17.9888 -19.31477,9.16621 -37.27264,21.19214 -53.0844,35.58313 -40.28409,36.66434 -65.76822,88.35051 -73.84213,142.21974 -6.43441,42.93047 -1.62601,88.96227 21.64387,125.60841 12.90159,20.31782 31.27343,37.22618 52.88255,47.82385 21.60912,10.59767 46.42023,14.77084 70.22037,11.1906 20.0227,-3.01201 39.11373,-11.42407 55.32077,-23.5613 12.79659,-9.5832 23.81047,-21.45003 32.77288,-34.70254 3.95552,-5.84894 9.58181,-15.84725 12.55779,-22.25053 13.88941,-29.88523 18.83306,-63.61646 17.37849,-96.74492 -0.22879,-5.21089 -0.90968,-13.64355 -1.49706,-18.82634 -8.37536,-73.90043 -44.31566,-141.9657 -68.22801,-212.68034 -8.43187,-24.93509 -15.40352,-50.36383 -20.86904,-76.11227 -1.48482,-6.99509 2.94163,-14.4972 9.7367,-16.72533 l 143.85849,-47.17184 c 8.88681,-2.914023 13.26485,1.76329 10.19456,10.59658 -8.57599,24.67332 -14.73886,50.18547 -18.36141,76.0545 -13.44967,96.04545 8.18286,193.00636 18.65912,289.42145 5.5531,51.10632 7.84762,103.71437 -6.54801,153.06474 -12.00833,41.16636 -35.54625,78.76942 -66.63981,108.30008 -28.37287,26.94672 -63.25595,47.34848 -101.19435,56.93095 -37.93839,9.58248 -78.90159,8.07144 -115.35982,-6.13923 -44.40019,-17.30628 -80.52932,-52.86653 -102.67453,-95.06219 -22.14521,-42.19567 -30.9059,-90.63355 -29.65823,-138.27101 2.08256,-79.51421 30.99545,-155.94089 65.96659,-227.38224 z"
   id="use1029"
   sodipodi:nodetypes="accaaaasccaaaaaccaaaaaaccaaaaaaa"
   inkscape:path-effect="#path-effect854;#path-effect845"
   inkscape:original-d="m 277.2019,328.25062 c 22.64811,-53.33457 77.61092,-124.25928 86.49036,-150.78804 l 30.70679,101.55128 c 0,0 -90.13147,-20.60695 -136.0173,-21.28395 -31.44946,-0.464 -69.09976,-7.87514 -93.614,11.8311 -40.88023,32.86235 -47.89967,96.00371 -52.81944,148.22366 -5.93355,62.98044 16.85232,125.47535 29.19477,187.51894 11.30392,56.82309 44.45859,111.06366 41.02572,168.8984 -1.94338,32.74082 -15.90976,112.49058 -7.49115,93.99567 L 22.084668,843.99984 c 0,0 33.22332,-84.46637 39.12704,-129.01663 6.48478,-48.935 -0.17911,-98.85154 -4.58323,-148.01749 -7.55021,-84.28772 -52.9762304,-167.9375 -37.3668,-251.11064 10.91068,-58.13634 36.54563,-124.89739 87.981402,-154.10764 62.26395,-35.35955 143.63834,12.28884 214.77215,4.09871 24.04272,-2.76821 70.37719,-17.84631 70.37719,-17.84631 l 43.77131,133.75244 c 0,0 -47.87193,22.03761 -65.28161,40.91752 -36.21066,39.26861 -65.64168,89.43728 -73.84213,142.21974 -6.52259,41.98284 -3.97372,91.71383 21.64387,125.60841 27.43812,36.30333 79.38332,71.63896 123.10292,59.01445 70.63251,-20.39591 107.92334,-113.78608 117.44397,-186.68534 10.04031,-76.87851 -47.71888,-147.56696 -69.13911,-222.08063 -8.45813,-29.42295 1.44509,-33.06468 -23.4359,-88.80321 L 638.90878,95.460684 c 2.86597,29.605646 -21.19462,60.384406 -24.25784,91.927386 -9.34432,96.22144 17.6137,192.753 18.65912,289.42145 0.55224,51.06526 8.40618,104.23506 -6.54801,153.06474 -12.41202,40.52879 -32.26028,83.50716 -66.63981,108.30008 C 499.98505,781.5425 411.49996,818.67359 343.56807,788.96606 261.6437,753.13943 221.65292,644.43952 211.23531,555.63286 202.0406,477.25104 246.35538,400.89183 277.2019,328.25062 Z" /><text
   text-anchor="middle"
   x="575.03638"
   y="776.38824"
   id="bottom"
   inkscape:label="bottom"
   style="clip-rule:evenodd;fill-rule:evenodd;image-rendering:optimizeQuality;shape-rendering:geometricPrecision;text-rendering:geometricPrecision">✛</text><text
   text-anchor="middle"
   x="640.25208"
   y="804.40594"
   id="right"
   inkscape:label="right"
   style="clip-rule:evenodd;fill-rule:evenodd;image-rendering:optimizeQuality;shape-rendering:geometricPrecision;text-rendering:geometricPrecision">✛</text></svg>
