<?xml version="1.0" encoding="UTF-8" standalone="no"?>
<svg
   xmlns:dc="http://purl.org/dc/elements/1.1/"
   xmlns:cc="http://creativecommons.org/ns#"
   xmlns:rdf="http://www.w3.org/1999/02/22-rdf-syntax-ns#"
   xmlns:svg="http://www.w3.org/2000/svg"
   xmlns="http://www.w3.org/2000/svg"
   xmlns:sodipodi="http://sodipodi.sourceforge.net/DTD/sodipodi-0.dtd"
   xmlns:inkscape="http://www.inkscape.org/namespaces/inkscape"
   xml:space="preserve"
   width="1000"
   height="1000"
   version="1.1"
   style="clip-rule:evenodd;fill-rule:evenodd;image-rendering:optimizeQuality;shape-rendering:geometricPrecision;text-rendering:geometricPrecision"
   viewBox="0 0 1000 1000"
   id="svg10"
   sodipodi:docname="àµ.svg"
   inkscape:version="1.0.2 (e86c870879, 2021-01-15)"><metadata
   id="metadata14"><rdf:RDF><cc:Work
       rdf:about=""><dc:format>image/svg+xml</dc:format><dc:type
         rdf:resource="http://purl.org/dc/dcmitype/StillImage" /><dc:title /></cc:Work></rdf:RDF></metadata><sodipodi:namedview
   pagecolor="#ffffff"
   bordercolor="#666666"
   borderopacity="1"
   objecttolerance="10"
   gridtolerance="10"
   guidetolerance="10"
   inkscape:pageopacity="0"
   inkscape:pageshadow="2"
   inkscape:window-width="1920"
   inkscape:window-height="1009"
   id="namedview12"
   showgrid="false"
   inkscape:zoom="0.4794184"
   inkscape:cx="924.44987"
   inkscape:cy="399.4379"
   inkscape:window-x="0"
   inkscape:window-y="0"
   inkscape:window-maximized="1"
   inkscape:current-layer="svg10"
   showguides="true"
   inkscape:guide-bbox="true"
   inkscape:document-rotation="0"
   inkscape:snap-to-guides="true"><sodipodi:guide
     position="0,1000"
     orientation="0,1"
     id="guide16"
     inkscape:label=""
     inkscape:locked="true"
     inkscape:color="rgb(0,0,255)" /><sodipodi:guide
     position="1763.3122,2036.1693"
     orientation="1000,0"
     id="guide18" /><sodipodi:guide
     position="0,200"
     orientation="0,1"
     id="guide20"
     inkscape:label="base"
     inkscape:locked="true"
     inkscape:color="rgb(0,0,255)" /><inkscape:grid
     type="xygrid"
     id="grid24"
     originx="-473.37552"
     originy="-489.69235" /><sodipodi:guide
     position="0,0"
     orientation="0,1"
     id="guide34"
     inkscape:label="bottom"
     inkscape:locked="true"
     inkscape:color="rgb(0,0,255)" /><sodipodi:guide
     position="225.05109,1693.3186"
     orientation="0,1"
     id="guide44"
     inkscape:label=""
     inkscape:locked="false"
     inkscape:color="rgb(0,0,255)" /><sodipodi:guide
     position="0,900"
     orientation="0,1"
     id="guide46"
     inkscape:label=""
     inkscape:locked="true"
     inkscape:color="rgb(0,0,255)" /><sodipodi:guide
     position="1763.3122,930.74857"
     orientation="-1,0"
     id="guide841"
     inkscape:label="width"
     inkscape:locked="false"
     inkscape:color="rgb(0,0,255)" /><sodipodi:guide
     position="0,1000"
     orientation="0,1000"
     id="guide860" /><sodipodi:guide
     position="1000,1000"
     orientation="1000,0"
     id="guide862" /><sodipodi:guide
     position="559.8322,0"
     orientation="0,-1000"
     id="guide864" /><sodipodi:guide
     position="0,0"
     orientation="-1000,0"
     id="guide866" /></sodipodi:namedview>
 <defs
   id="defs4"><inkscape:path-effect
   effect="fillet_chamfer"
   id="path-effect880"
   is_visible="true"
   lpeversion="1"
   satellites_param="F,0,0,1,0,0,0,1 @ F,0,0,1,0,0,0,1 @ F,0,0,1,0,0,0,1 @ F,0,0,1,0,0,0,1 @ F,0,0,1,0,0,0,1 @ F,0,0,1,0,0,0,1 @ F,0,0,1,0,0,0,1 @ F,0,0,1,0,0,0,1 @ F,0,0,1,0,0,0,1 @ F,0,0,1,0,0,0,1 @ F,0,0,1,0,0,0,1 @ F,0,0,1,0,0,0,1 @ F,0,0,1,0,0,0,1 @ F,0,0,1,0,0,0,1 @ F,0,0,1,0,0,0,1 @ F,0,0,1,0,0,0,1 @ F,0,0,1,0,0,0,1 @ F,0,0,1,0,0,0,1 @ F,0,0,1,0,0,0,1 @ F,0,0,1,0,0,0,1 @ F,0,0,1,0,0,0,1 @ F,0,0,1,0,0,0,1 @ F,0,0,1,0,0,0,1 @ F,0,0,1,0,0,0,1 @ F,0,0,1,0,0,0,1 @ F,0,0,1,0,0,0,1 @ F,0,0,1,0,0,0,1 @ F,0,0,1,0,0,0,1 @ F,0,0,1,0,0,0,1 @ F,0,1,1,0,16.236282,0,1 @ F,0,1,1,0,16.236282,0,1 @ F,0,0,1,0,0,0,1 @ F,0,0,1,0,0,0,1 @ F,0,0,1,0,0,0,1 @ F,0,0,1,0,0,0,1 @ F,0,0,1,0,0,0,1 @ F,0,0,1,0,0,0,1 @ F,0,0,1,0,0,0,1 @ F,0,0,1,0,0,0,1 @ F,0,0,1,0,0,0,1 @ F,0,0,1,0,0,0,1 @ F,0,0,1,0,0,0,1 @ F,0,0,1,0,0,0,1 @ F,0,0,1,0,0,0,1 @ F,0,0,1,0,0,0,1 @ F,0,0,1,0,0,0,1 @ F,0,0,1,0,0,0,1 @ F,0,0,1,0,0,0,1 @ F,0,0,1,0,0,0,1 @ F,0,0,1,0,0,0,1 @ F,0,0,1,0,0,0,1 @ F,0,0,1,0,0,0,1 @ F,0,0,1,0,0,0,1 @ F,0,0,1,0,0,0,1 @ F,0,0,1,0,0,0,1 @ F,0,0,1,0,0,0,1 @ F,0,0,1,0,0,0,1 @ F,0,0,1,0,0,0,1 @ F,0,0,1,0,0,0,1 @ F,0,0,1,0,0,0,1 @ F,0,0,1,0,0,0,1 @ F,0,0,1,0,0,0,1 @ F,0,0,1,0,0,0,1 @ F,0,0,1,0,0,0,1 @ F,0,0,1,0,0,0,1 @ F,0,0,1,0,0,0,1 @ F,0,0,1,0,0,0,1 @ F,0,0,1,0,0,0,1 @ F,0,0,1,0,0,0,1 @ F,0,0,1,0,0,0,1 @ F,0,0,1,0,0,0,1 @ F,0,0,1,0,0,0,1 @ F,0,0,1,0,0,0,1 @ F,0,0,1,0,0,0,1 @ F,0,0,1,0,0,0,1 @ F,0,1,1,0,16.236282,0,1 @ F,0,1,1,0,16.236282,0,1 @ F,0,0,1,0,0,0,1 @ F,0,0,1,0,0,0,1 @ F,0,0,1,0,0,0,1 @ F,0,0,1,0,0,0,1 @ F,0,0,1,0,0,0,1 @ F,0,0,1,0,16.236282,0,1 @ F,0,1,1,0,16.236282,0,1 @ F,0,0,1,0,0,0,1 @ F,0,0,1,0,0,0,1 @ F,0,0,1,0,0,0,1 @ F,0,0,1,0,0,0,1 @ F,0,0,1,0,0,0,1 @ F,0,0,1,0,0,0,1 @ F,0,0,1,0,0,0,1 @ F,0,0,1,0,0,0,1"
   unit="px"
   method="auto"
   mode="F"
   radius="0"
   chamfer_steps="1"
   flexible="false"
   use_knot_distance="true"
   apply_no_radius="true"
   apply_with_radius="true"
   only_selected="false"
   hide_knots="false" /><inkscape:path-effect
   effect="fillet_chamfer"
   id="path-effect891"
   is_visible="true"
   lpeversion="1"
   satellites_param="F,0,0,1,0,0,0,1 @ F,0,0,1,0,0,0,1 @ F,0,0,1,0,0,0,1 @ F,0,0,1,0,0,0,1 @ F,0,0,1,0,0,0,1 @ F,0,0,1,0,0,0,1 @ F,0,0,1,0,0,0,1 @ F,0,0,1,0,0,0,1 @ F,0,0,1,0,0,0,1 @ F,0,0,1,0,0,0,1 @ F,0,0,1,0,0,0,1 @ F,0,0,1,0,0,0,1 @ F,0,0,1,0,0,0,1 @ F,0,0,1,0,0,0,1 @ F,0,0,1,0,0,0,1 @ F,0,0,1,0,0,0,1 @ F,0,0,1,0,13.43824,0,1 @ F,0,0,1,0,19.374061,0,1 @ F,0,0,1,0,0,0,1 @ F,0,0,1,0,0,0,1 @ F,0,0,1,0,0,0,1 @ F,0,0,1,0,0,0,1 @ F,0,0,1,0,0,0,1 @ F,0,0,1,0,0,0,1 @ F,0,0,1,0,0,0,1 @ F,0,0,1,0,0,0,1 @ F,0,0,1,0,0,0,1 @ F,0,0,1,0,0,0,1 @ F,0,0,1,0,0,0,1 @ F,0,0,1,0,0,0,1 @ F,0,0,1,0,0,0,1 @ F,0,0,1,0,0,0,1 @ F,0,0,1,0,0,0,1 @ F,0,0,1,0,0,0,1 @ F,0,0,1,0,0,0,1 @ F,0,0,1,0,0,0,1 @ F,0,0,1,0,0,0,1 @ F,0,0,1,0,0,0,1 @ F,0,0,1,0,0,0,1 @ F,0,0,1,0,0,0,1 @ F,0,0,1,0,0,0,1 @ F,0,0,1,0,0,0,1 @ F,0,0,1,0,0,0,1 @ F,0,0,1,0,0,0,1 @ F,0,0,1,0,0,0,1 @ F,0,0,1,0,18.098516,0,1 @ F,0,0,1,0,20.829348,0,1 @ F,0,0,1,0,0,0,1 @ F,0,0,1,0,12.402964,0,1 @ F,0,0,1,0,16.882364,0,1 @ F,0,0,1,0,0,0,1 @ F,0,0,1,0,0,0,1 @ F,0,0,1,0,0,0,1 @ F,0,0,1,0,0,0,1 @ F,0,0,1,0,0,0,1 @ F,0,0,1,0,0,0,1 @ F,0,0,1,0,0,0,1 @ F,0,0,1,0,0,0,1"
   unit="px"
   method="auto"
   mode="F"
   radius="0"
   chamfer_steps="1"
   flexible="false"
   use_knot_distance="true"
   apply_no_radius="true"
   apply_with_radius="true"
   only_selected="false"
   hide_knots="false" /><inkscape:path-effect
   effect="fillet_chamfer"
   id="path-effect888"
   is_visible="true"
   lpeversion="1"
   satellites_param="F,0,0,1,0,0,0,1 @ F,0,0,1,0,0,0,1 @ F,0,0,1,0,0,0,1 @ F,0,0,1,0,0,0,1 @ F,0,0,1,0,0,0,1 @ F,0,0,1,0,0,0,1 @ F,0,0,1,0,0,0,1 @ F,0,0,1,0,0,0,1 @ F,0,0,1,0,0,0,1 @ F,0,0,1,0,0,0,1 @ F,0,1,1,0,18.252622,0,1 @ F,0,1,1,0,18.252622,0,1 @ F,0,0,1,0,0,0,1 @ F,0,0,1,0,0,0,1 @ F,0,0,1,0,0,0,1 @ F,0,0,1,0,0,0,1 @ F,0,0,1,0,0,0,1 @ F,0,0,1,0,0,0,1 @ F,0,0,1,0,0,0,1 @ F,0,0,1,0,0,0,1 @ F,0,0,1,0,0,0,1 @ F,0,0,1,0,0,0,1 @ F,0,0,1,0,0,0,1 @ F,0,0,1,0,0,0,1 @ F,0,1,1,0,18.252622,0,1 @ F,0,0,1,0,18.252622,0,1 @ F,0,0,1,0,0,0,1 @ F,0,1,1,0,18.252622,0,1 @ F,0,1,1,0,18.252622,0,1"
   unit="px"
   method="auto"
   mode="F"
   radius="0"
   chamfer_steps="1"
   flexible="false"
   use_knot_distance="true"
   apply_no_radius="true"
   apply_with_radius="true"
   only_selected="false"
   hide_knots="false" /><inkscape:path-effect
   effect="spiro"
   id="path-effect886"
   is_visible="true"
   lpeversion="1" /><inkscape:path-effect
   effect="fillet_chamfer"
   id="path-effect864"
   is_visible="true"
   lpeversion="1"
   satellites_param="F,0,0,1,0,0,0,1 @ F,0,0,1,0,0,0,1 @ F,0,0,1,0,0,0,1 @ F,0,0,1,0,0,0,1 @ F,0,0,1,0,0,0,1 @ F,0,0,1,0,0,0,1 @ F,0,0,1,0,0,0,1 @ F,0,0,1,0,0,0,1 @ F,0,0,1,0,0,0,1 @ F,0,0,1,0,0,0,1 @ F,0,1,1,0,18.252622,0,1 @ F,0,1,1,0,18.252622,0,1 @ F,0,0,1,0,0,0,1 @ F,0,0,1,0,0,0,1 @ F,0,0,1,0,0,0,1 @ F,0,0,1,0,0,0,1 @ F,0,0,1,0,0,0,1 @ F,0,0,1,0,0,0,1 @ F,0,0,1,0,0,0,1 @ F,0,0,1,0,0,0,1 @ F,0,0,1,0,0,0,1 @ F,0,0,1,0,0,0,1 @ F,0,0,1,0,0,0,1 @ F,0,0,1,0,0,0,1 @ F,0,1,1,0,18.252622,0,1 @ F,0,0,1,0,18.252622,0,1 @ F,0,0,1,0,0,0,1 @ F,0,1,1,0,18.252622,0,1 @ F,0,1,1,0,18.252622,0,1"
   unit="px"
   method="auto"
   mode="F"
   radius="0"
   chamfer_steps="1"
   flexible="false"
   use_knot_distance="true"
   apply_no_radius="true"
   apply_with_radius="true"
   only_selected="false"
   hide_knots="false" /><inkscape:path-effect
   effect="fillet_chamfer"
   id="path-effect863"
   is_visible="true"
   lpeversion="1"
   satellites_param="F,0,0,1,0,0,0,1 @ F,0,0,1,0,0,0,1 @ F,0,0,1,0,0,0,1 @ F,0,0,1,0,0,0,1 @ F,0,0,1,0,0,0,1 @ F,0,0,1,0,0,0,1 @ F,0,0,1,0,0,0,1 @ F,0,0,1,0,0,0,1 @ F,0,0,1,0,0,0,1 @ F,0,0,1,0,0,0,1 @ F,0,1,1,0,22.279423,0,1 @ F,0,1,1,0,22.279423,0,1 @ F,0,0,1,0,0,0,1 @ F,0,0,1,0,0,0,1 @ F,0,0,1,0,0,0,1 @ F,0,0,1,0,0,0,1 @ F,0,0,1,0,0,0,1 @ F,0,0,1,0,0,0,1 @ F,0,0,1,0,0,0,1 @ F,0,0,1,0,0,0,1 @ F,0,0,1,0,0,0,1 @ F,0,0,1,0,0,0,1 @ F,0,0,1,0,0,0,1 @ F,0,0,1,0,0,0,1 @ F,0,1,1,0,22.279423,0,1 @ F,0,1,1,0,22.279423,0,1 @ F,0,0,1,0,0,0,1 @ F,0,1,1,0,22.279423,0,1 @ F,0,1,1,0,22.279423,0,1"
   unit="px"
   method="auto"
   mode="F"
   radius="0"
   chamfer_steps="1"
   flexible="false"
   use_knot_distance="true"
   apply_no_radius="true"
   apply_with_radius="true"
   only_selected="true"
   hide_knots="false" /><inkscape:path-effect
   effect="fillet_chamfer"
   id="path-effect861"
   is_visible="true"
   lpeversion="1"
   satellites_param="F,0,0,1,0,0,0,1 @ F,0,0,1,0,0,0,1 @ F,0,0,1,0,0,0,1 @ F,0,0,1,0,0,0,1 @ F,0,0,1,0,0,0,1 @ F,0,0,1,0,0,0,1 @ F,0,0,1,0,0,0,1 @ F,0,0,1,0,0,0,1 @ F,0,0,1,0,0,0,1 @ F,0,0,1,0,0,0,1 @ F,0,0,1,0,18.745288,0,1 @ F,0,0,1,0,22.258793,0,1 @ F,0,0,1,0,0,0,1 @ F,0,0,1,0,0,0,1 @ F,0,0,1,0,0,0,1 @ F,0,0,1,0,0,0,1 @ F,0,0,1,0,0,0,1 @ F,0,0,1,0,0,0,1 @ F,0,0,1,0,0,0,1 @ F,0,0,1,0,0,0,1 @ F,0,0,1,0,0,0,1 @ F,0,0,1,0,0,0,1 @ F,0,0,1,0,44.937544,0,1 @ F,0,0,1,0,24.008986,0,1 @ F,0,0,1,0,0,0,1 @ F,0,0,1,0,20.706957,0,1 @ F,0,0,1,0,19.829215,0,1"
   unit="px"
   method="auto"
   mode="F"
   radius="0"
   chamfer_steps="1"
   flexible="false"
   use_knot_distance="true"
   apply_no_radius="true"
   apply_with_radius="true"
   only_selected="true"
   hide_knots="false" /><inkscape:path-effect
   effect="fillet_chamfer"
   id="path-effect860"
   is_visible="true"
   lpeversion="1"
   satellites_param="F,0,0,1,0,16,0,1 @ F,0,0,1,0,16,0,1 @ F,0,0,1,0,16,0,1 @ F,0,0,1,0,16,0,1 @ F,0,0,1,0,16,0,1 @ F,0,0,1,0,16,0,1 @ F,0,0,1,0,16,0,1 @ F,0,0,1,0,16,0,1 @ F,0,0,1,0,16,0,1 @ F,0,0,1,0,16,0,1 @ F,0,0,1,0,16,0,1 @ F,0,0,1,0,16,0,1 @ F,0,0,1,0,16,0,1 @ F,0,0,1,0,16,0,1 @ F,0,0,1,0,16,0,1 @ F,0,0,1,0,16,0,1 @ F,0,0,1,0,16,0,1 @ F,0,0,1,0,16,0,1 @ F,0,0,1,0,16,0,1 @ F,0,0,1,0,16,0,1 @ F,0,0,1,0,16,0,1 @ F,0,0,1,0,16,0,1 @ F,0,0,1,0,16,0,1 @ F,0,0,1,0,16,0,1 @ F,0,0,1,0,16,0,1 @ F,0,0,1,0,16,0,1 @ F,0,0,1,0,16,0,1"
   unit="px"
   method="bezier"
   mode="F"
   radius="16"
   chamfer_steps="1"
   flexible="false"
   use_knot_distance="true"
   apply_no_radius="true"
   apply_with_radius="true"
   only_selected="false"
   hide_knots="false" /><inkscape:path-effect
   effect="spiro"
   id="path-effect873"
   is_visible="true"
   lpeversion="1" /><inkscape:path-effect
   effect="spiro"
   id="path-effect859"
   is_visible="true"
   lpeversion="1" /><inkscape:path-effect
   effect="spiro"
   id="path-effect862"
   is_visible="true"
   lpeversion="1" /><inkscape:path-effect
   effect="spiro"
   id="path-effect1521"
   is_visible="true"
   lpeversion="1" /><inkscape:path-effect
   effect="spiro"
   id="path-effect858"
   is_visible="true"
   lpeversion="1" /><inkscape:path-effect
   effect="spiro"
   id="path-effect854"
   is_visible="true"
   lpeversion="1" />
  <style
   type="text/css"
   id="style2">
   <![CDATA[
    .fil0 {fill:#EF7F1A;fill-rule:nonzero}
   ]]>
  </style>
 <inkscape:path-effect
   effect="spiro"
   id="path-effect1214"
   is_visible="true"
   lpeversion="1" /><inkscape:path-effect
   effect="spiro"
   id="path-effect1195"
   is_visible="true"
   lpeversion="1" /><inkscape:path-effect
   effect="spiro"
   id="path-effect992"
   is_visible="true"
   lpeversion="1" /><inkscape:path-effect
   effect="spiro"
   id="path-effect287"
   is_visible="true"
   lpeversion="1" /><inkscape:path-effect
   effect="spiro"
   id="path-effect1032"
   is_visible="true"
   lpeversion="1" /><inkscape:path-effect
   effect="spiro"
   id="path-effect1218"
   is_visible="true"
   lpeversion="1" /><inkscape:path-effect
   effect="spiro"
   id="path-effect309"
   is_visible="true"
   lpeversion="1" /><inkscape:path-effect
   effect="spiro"
   id="path-effect1176"
   is_visible="true"
   lpeversion="1" /><inkscape:path-effect
   effect="spiro"
   id="path-effect1026"
   is_visible="true"
   lpeversion="1" /><inkscape:path-effect
   effect="spiro"
   id="path-effect1030"
   is_visible="true"
   lpeversion="1" /></defs>
 
<path
   style="clip-rule:evenodd;display:inline;fill:#613583;fill-rule:nonzero;stroke:none;stroke-width:2.09522px;stroke-linecap:butt;stroke-linejoin:miter;stroke-opacity:1;image-rendering:optimizeQuality;shape-rendering:geometricPrecision;text-rendering:geometricPrecision"
   d="m 633.06279,286.21901 c 5.16455,-36.87458 11.92551,-74.12004 28.30294,-107.55934 8.18872,-16.71966 18.77299,-32.36194 32.03956,-45.42333 13.26658,-13.06139 29.2704,-23.49793 46.94203,-29.35587 23.23412,-7.701842 48.90434,-7.224976 72.23074,0.19273 23.32639,7.4177 44.2941,21.59988 60.78975,39.68403 29.48066,32.31959 44.06449,75.56695 52.31753,118.52684 10.28578,53.54099 11.9202,108.32733 18.49314,162.44971 6.57294,54.12238 18.58788,108.86555 47.34282,155.18605 14.5389,23.42034 33.6524,44.65898 57.984,57.61521 12.1658,6.47812 25.5402,10.80051 39.2647,12.06969 13.7245,1.26918 27.7957,-0.56257 40.5213,-5.85725 22.9085,-9.53148 40.2696,-29.91772 49.5094,-52.94544 9.2399,-23.02771 10.962,-48.51467 8.7148,-73.225 -4.6506,-51.13814 -25.4842,-99.14388 -41.9519,-147.78083 -16.4677,-48.63695 -28.7719,-101.28273 -15.9079,-150.99444 9.127,-35.27035 31.0348,-67.0629 60.6617,-88.26538 29.627,-21.20248 66.7356,-31.678561 103.086,-29.23998 29.0191,1.94676 57.3204,11.93462 81.757,27.70644 24.4366,15.77181 45.037,37.22866 60.7622,61.69525 39.6309,61.66091 46.9108,138.33897 47.4956,211.63516 0.5848,73.2962 -4.2637,147.953 15.0364,218.66496 3.278,12.01008 7.3232,24.00674 14.3137,34.3082 6.9905,10.30146 17.2812,18.8444 29.4502,21.47188 7.6471,1.65113 15.7231,0.89701 23.1255,-1.63455 7.4024,-2.53156 14.1484,-6.79442 19.9944,-11.99323 11.6922,-10.39764 19.6702,-24.25985 26.9476,-38.11109 20.7341,-39.46376 37.5541,-81.2262 46.7329,-124.85007 9.1787,-43.62386 10.5665,-89.21219 0.839,-132.71698 -15.6452,-69.97077 -61.1033,-132.64684 -122.3606,-169.78025 -7.6669,-4.64756 -7.5963,-11.12723 0.4798,-15.02391 l 156.712,-75.61265 c 8.0761,-3.89668 16.2899,0.0202 18.2448,8.77156 17.8172,79.7624 29.3935,160.9184 34.583,242.48175 3.8903,61.14358 4.1748,122.80843 -5.0886,183.3713 -9.2634,60.56287 -28.3463,120.18444 -61.0704,171.98027 -14.2033,22.48107 -31.064,43.544 -51.8146,60.17367 -20.7506,16.62966 -45.5962,28.69517 -71.9872,31.95793 -25.9236,3.20498 -52.605,-2.23078 -76.0065,-13.83572 -23.4016,-11.60493 -43.5858,-29.20472 -59.6602,-49.7941 -38.864,-49.78028 -52.9659,-115.45861 -50.5394,-178.56645 1.6734,-43.52211 10.6007,-86.4629 13.6151,-129.91273 3.0143,-43.44983 -0.3893,-88.93916 -21.5277,-127.01988 -8.403,-15.1379 -19.772,-29.04361 -34.6944,-37.82356 -7.4612,-4.38997 -15.7511,-7.44014 -24.3363,-8.55156 -8.5852,-1.11143 -17.4645,-0.25247 -25.5491,2.84291 -9.1537,3.50472 -17.1211,9.81639 -23.1381,17.55393 -6.0169,7.73754 -10.1288,16.86339 -12.5666,26.35711 -4.8754,18.98745 -3.1221,39.03644 0.081,58.37634 11.7168,70.73908 42.1927,137.50249 51.9584,208.53721 5.2892,38.4733 4.2774,78.35624 -7.9612,115.21259 -12.2385,36.85634 -36.4252,70.51201 -70.1672,89.73825 -24.17,13.77209 -52.4656,19.73679 -80.2555,18.48169 -27.79,-1.2551 -55.0562,-9.56413 -79.6249,-22.61162 -49.1374,-26.09497 -86.55444,-70.10775 -115.94259,-117.34937 -34.93801,-56.16305 -60.3019,-118.59189 -71.47988,-183.78396 -6.14964,-35.86585 -8.00477,-72.32887 -13.01735,-108.37122 -5.01259,-36.04235 -13.41623,-72.24103 -31.49754,-103.82019 -4.59049,-8.01733 -9.86494,-15.78722 -16.83748,-21.84806 -6.97254,-6.06084 -15.82861,-10.32209 -25.06677,-10.40256 -9.0222,-0.0786 -17.75655,3.83258 -24.77191,9.50628 -7.01537,5.67371 -12.4822,13.02553 -17.33606,20.63121 -33.43651,52.39277 -39.72911,117.09022 -43.95276,179.0996 -3.4252,50.28704 -6.10122,100.80229 -15.64198,150.29463 -9.54076,49.49235 -26.28901,98.33966 -55.53534,139.39049 -14.44664,20.27765 -32.06686,38.65603 -53.46566,51.38315 -21.3988,12.72713 -46.81566,19.5139 -71.48859,16.17702 -27.41221,-3.70735 -51.91908,-19.43779 -72.00451,-38.45749 C 388.6197,718.85071 363.20472,666.708 348.57022,612.84877 333.93572,558.98955 329.35356,502.98138 325.14117,447.32852 317.79854,350.31984 311.38447,253.24088 305.90013,156.10942 l 56.38918,22.21173 c -31.37565,40.41423 -54.00427,87.58408 -65.88961,137.34832 -16.88843,70.71229 -12.04798,144.51611 -15.93666,217.11312 -1.94434,36.2985 -6.13534,72.67345 -16.21738,107.59786 -10.08205,34.9244 -26.26263,68.47927 -50.24697,95.79434 -23.19475,26.41583 -53.48504,46.54172 -86.8246,57.6892 -28.206172,9.43107 -58.534093,12.4154 -88.047066,8.77982 -8.897271,-1.09602 -16.704585,-9.88025 -17.555295,-18.80686 L 9.3447838,655.53816 c -0.8507104,-8.92661 3.7260282,-11.06388 11.2030752,-6.13324 14.664083,9.67002 31.935183,15.40476 49.489809,16.22404 22.963107,1.07169 46.226552,-6.27616 64.407932,-20.3435 21.03805,-16.2776 34.65109,-40.61787 42.66243,-65.98278 8.01133,-25.3649 10.90764,-52.01096 14.05861,-78.42367 7.02174,-58.85901 15.51771,-117.60311 19.04044,-176.77471 4.1311,-69.39047 1.38283,-139.18828 -8.18119,-208.04029 -1.23373,-8.88168 4.78,-14.68797 13.58493,-12.99055 l 182.17853,35.12065 c 8.80493,1.69742 15.84308,10.34201 15.71527,19.30815 -0.70548,49.48967 -1.52133,98.97777 -2.44757,148.46381 -0.83862,44.80481 -1.76214,89.74867 2.94268,134.31367 4.70482,44.56499 15.22736,89.00621 36.11753,128.65183 7.4114,14.06545 16.27094,27.66749 28.38581,37.96291 12.11487,10.29542 27.87193,17.03892 43.72003,15.77263 8.55797,-0.6838 16.8636,-3.66703 24.17404,-8.16856 7.31044,-4.50154 13.6461,-10.49331 18.95416,-17.24097 10.61612,-13.4953 17.04966,-29.76601 22.47668,-46.05628 28.37118,-85.16167 32.78435,-176.08674 45.23481,-264.98229 z"
   id="path1087-1-75"
   sodipodi:nodetypes="aaaaaaaaaaaaaaccsaaaaaaaaaaaaaaaaaaaccaaccaaaccaaaaa"
   inkscape:original-d="m 633.06279,286.21901 c 24.21125,-66.2333 41.63583,-156.58425 107.28453,-182.33854 43.09228,-16.905305 98.31708,9.24332 133.02049,39.87676 32.37703,28.57989 39.14201,77.39914 52.31753,118.52684 32.98838,102.97397 -1.3665,232.92625 65.83596,317.63576 31.4558,39.65036 90.266,81.29162 137.77,63.82765 43.4742,-15.98252 52.6548,-80.18751 58.2242,-126.17044 12.1975,-100.70607 -95.3485,-204.51454 -57.8598,-298.77527 24.8277,-62.42605 96.5982,-115.4166 163.7477,-117.50536 56.0526,-1.743578 111.9069,42.41429 142.5192,89.40169 79.1187,121.44066 5.451,297.07339 62.532,430.30012 9.3073,21.72317 20.345,52.60534 43.7639,55.78008 28.7701,3.90017 54.6776,-27.1202 70.0675,-51.73887 46.2801,-74.03244 67.9968,-172.68197 47.5719,-257.56705 C 1642.3813,294.84013 1523.354,189.72379 1523.354,189.72379 L 1709.3122,100 c 0,0 48.3465,171.86213 38.2047,258.30888 -12.4092,105.77374 -2.4089,253.11268 -66.159,355.35157 -27.2176,43.65006 -72.6214,86.96501 -123.8018,92.1316 -49.6965,5.01679 -103.335,-25.55658 -135.6667,-63.62982 -40.0417,-47.1524 -41.0933,-117.43168 -50.5394,-178.56645 -13.0842,-84.67993 37.8288,-184.4784 -7.9126,-256.93261 -16.927,-26.81229 -55.1353,-55.29844 -84.5798,-43.53221 -33.5266,13.39749 -33.9823,66.22031 -35.6235,102.28738 -3.2565,71.56349 56.2546,137.0286 51.9584,208.53721 -4.3847,72.98087 -10.6703,176.75808 -78.1284,204.95084 -92.6936,38.73939 -206.3623,-48.89799 -275.82299,-121.4793 -45.44724,-47.48901 -52.75562,-120.77555 -71.47988,-183.78396 -20.58679,-69.27596 -6.07579,-150.99165 -44.51489,-212.19141 -9.37491,-14.926 -24.28095,-31.94442 -41.90425,-32.25062 -17.25798,-0.29985 -32.43146,15.84438 -42.10797,30.13749 -34.46162,50.90305 -29.2935,119.40178 -43.95276,179.0996 -23.71228,96.56502 -10.36726,211.01358 -71.17732,289.68512 -28.95734,37.46286 -77.60471,67.43928 -124.95425,67.56017 -27.21026,0.0695 -54.43312,-17.68132 -72.00451,-38.45749 -70.36307,-83.19631 -82.90326,-202.99872 -104.00411,-309.89747 -18.8396,-95.44306 -19.24104,-291.2191 -19.24104,-291.2191 l 56.38918,22.21173 c 0,0 -49.89708,89.15409 -65.88961,137.34832 -44.9853,135.5653 11.86897,313.19829 -82.40101,420.50532 C 169.71864,786.57855 23.112076,800 23.112076,800 L 7.8044363,639.37511 c 0,0 91.1758747,28.89062 126.6411637,5.91035 43.4009,-28.12227 44.38869,-94.18282 56.72104,-144.40645 14.1328,-57.55598 17.25374,-117.53592 19.04044,-176.77471 C 212.46163,249.3543 199.66809,100 199.66809,100 l 214.06399,41.26757 c 0,0 -6.27484,109.90989 -2.67503,164.6985 5.80992,88.42622 -6.41779,186.90827 39.06021,262.9655 15.38335,25.72706 42.26226,56.54444 72.10584,53.73554 32.1951,-3.03022 51.36848,-42.4308 65.60488,-71.46581 39.4483,-80.45446 14.47104,-180.82363 45.23481,-264.98229 z"
   inkscape:path-effect="#path-effect1030;#path-effect880" /></svg>
