<svg xmlns="http://www.w3.org/2000/svg" xmlns:dc="http://purl.org/dc/elements/1.1/" xmlns:ns1="http://sodipodi.sourceforge.net/DTD/sodipodi-0.dtd" xmlns:ns2="http://www.inkscape.org/namespaces/inkscape" xmlns:ns4="http://creativecommons.org/ns#" xmlns:rdf="http://www.w3.org/1999/02/22-rdf-syntax-ns#" xml:space="preserve" width="1000" height="1000" version="1.1" style="clip-rule:evenodd;fill-rule:evenodd;image-rendering:optimizeQuality;shape-rendering:geometricPrecision;text-rendering:geometricPrecision" viewBox="0 0 1000 1000" id="svg10" ns1:docname="൞.svg" ns2:version="1.1.1 (3bf5ae0d25, 2021-09-20)"><metadata id="metadata14"><rdf:RDF><ns4:Work rdf:about=""><dc:format>image/svg+xml</dc:format><dc:type rdf:resource="http://purl.org/dc/dcmitype/StillImage" /><dc:title /></ns4:Work></rdf:RDF></metadata><ns1:namedview pagecolor="#ffffff" bordercolor="#666666" borderopacity="1" objecttolerance="10" gridtolerance="10" guidetolerance="10" ns2:pageopacity="0" ns2:pageshadow="2" ns2:window-width="1920" ns2:window-height="1009" id="namedview12" showgrid="false" ns2:zoom="0.84890884" ns2:cx="707.37866" ns2:cy="349.86089" ns2:window-x="0" ns2:window-y="60" ns2:window-maximized="1" ns2:current-layer="svg10" showguides="true" ns2:guide-bbox="true" ns2:document-rotation="0" ns2:pagecheckerboard="0"><ns1:guide position="0,1000" orientation="0,1" id="guide16" ns2:label="" ns2:locked="true" ns2:color="rgb(0,0,255)" /><ns1:guide position="1763.3122,2036.1693" orientation="1000,0" id="guide18" /><ns1:guide position="0,200" orientation="0,1" id="guide20" ns2:label="base" ns2:locked="true" ns2:color="rgb(0,0,255)" /><ns2:grid type="xygrid" id="grid24" originx="-473.37552" originy="-489.69235" /><ns1:guide position="0,0" orientation="0,1" id="guide34" ns2:label="bottom" ns2:locked="true" ns2:color="rgb(0,0,255)" /><ns1:guide position="225.05109,1693.3186" orientation="0,1" id="guide44" ns2:label="" ns2:locked="false" ns2:color="rgb(0,0,255)" /><ns1:guide position="0,900" orientation="0,1" id="guide46" ns2:label="" ns2:locked="true" ns2:color="rgb(0,0,255)" /><ns1:guide position="1107.4666,457.82249" orientation="-1,0" id="guide841" ns2:label="width" ns2:locked="false" ns2:color="rgb(0,0,255)" /></ns1:namedview>
 <defs id="defs4"><ns2:path-effect effect="fillet_chamfer" id="path-effect4720" is_visible="true" lpeversion="1" satellites_param="F,0,0,1,0,0,0,1 @ F,0,0,1,0,0,0,1 @ F,0,0,1,0,0,0,1 @ F,0,0,1,0,0,0,1 @ F,0,0,1,0,0,0,1 @ F,0,0,1,0,0,0,1 @ F,0,0,1,0,0,0,1 @ F,0,0,1,0,0,0,1 @ F,0,0,1,0,0,0,1 @ F,0,0,1,0,0,0,1 @ F,0,0,1,0,0,0,1 @ F,0,0,1,0,0,0,1 @ F,0,0,1,0,0,0,1 @ F,0,0,1,0,0,0,1 @ F,0,0,1,0,15.199187,0,1 @ F,0,1,1,0,15.199187,0,1 @ F,0,0,1,0,0,0,1 @ F,0,0,1,0,0,0,1 @ F,0,0,1,0,0,0,1 @ F,0,0,1,0,0,0,1 @ F,0,0,1,0,0,0,1 @ F,0,0,1,0,0,0,1 @ F,0,0,1,0,0,0,1 @ F,0,1,1,0,15.199187,0,1 @ F,0,1,1,0,15.199187,0,1 @ F,0,0,1,0,0,0,1 @ F,0,0,1,0,0,0,1 @ F,0,0,1,0,0,0,1 @ F,0,0,1,0,0,0,1 @ F,0,0,1,0,0,0,1 @ F,0,0,1,0,0,0,1 @ F,0,0,1,0,0,0,1 @ F,0,0,1,0,0,0,1 @ F,0,0,1,0,0,0,1 @ F,0,0,1,0,0,0,1 @ F,0,0,1,0,0,0,1 @ F,0,0,1,0,0,0,1 @ F,0,0,1,0,0,0,1 @ F,0,0,1,0,0,0,1 @ F,0,0,1,0,0,0,1 @ F,0,0,1,0,0,0,1 @ F,0,0,1,0,0,0,1 @ F,0,0,1,0,0,0,1 @ F,0,0,1,0,0,0,1 @ F,0,0,1,0,0,0,1 @ F,0,0,1,0,0,0,1 @ F,0,0,1,0,0,0,1 @ F,0,0,1,0,0,0,1 @ F,0,0,1,0,0,0,1 @ F,0,0,1,0,0,0,1 @ F,0,0,1,0,0,0,1 @ F,0,0,1,0,0,0,1 @ F,0,0,1,0,0,0,1 @ F,0,1,1,0,15.199187,0,1 @ F,0,1,1,0,15.199187,0,1 @ F,0,0,1,0,0,0,1 @ F,0,0,1,0,0,0,1 @ F,0,0,1,0,0,0,1 @ F,0,0,1,0,0,0,1 @ F,0,0,1,0,0,0,1 @ F,0,0,1,0,0,0,1 @ F,0,0,1,0,0,0,1 @ F,0,0,1,0,0,0,1 @ F,0,0,1,0,0,0,1" unit="px" method="auto" mode="F" radius="0" chamfer_steps="1" flexible="false" use_knot_distance="true" apply_no_radius="true" apply_with_radius="true" only_selected="false" hide_knots="false" /><ns2:path-effect effect="fillet_chamfer" id="path-effect852" is_visible="true" lpeversion="1" satellites_param="F,0,0,1,0,0,0,1 @ F,0,0,1,0,0,0,1 @ F,0,0,1,0,0,0,1 @ F,0,0,1,0,0,0,1 @ F,0,0,1,0,0,0,1 @ F,0,0,1,0,0,0,1 @ F,0,0,1,0,0,0,1 @ F,0,0,1,0,0,0,1 @ F,0,0,1,0,0,0,1 @ F,0,0,1,0,0,0,1 @ F,0,0,1,0,0,0,1 @ F,0,0,1,0,0,0,1 @ F,0,0,1,0,0,0,1 @ F,0,0,1,0,0,0,1 @ F,0,0,1,0,0,0,1 @ F,0,0,1,0,0,0,1 @ F,0,0,1,0,0,0,1 @ F,0,0,1,0,0,0,1 @ F,0,0,1,0,0,0,1 @ F,0,0,1,0,0,0,1 @ F,0,0,1,0,0,0,1 @ F,0,0,1,0,0,0,1 @ F,0,0,1,0,0,0,1 @ F,0,0,1,0,0,0,1 @ F,0,0,1,0,0,0,1 @ F,0,0,1,0,0,0,1 @ F,0,0,1,0,0,0,1 @ F,0,0,1,0,0,0,1 @ F,0,0,1,0,0,0,1 @ F,0,0,1,0,0,0,1 @ F,0,0,1,0,0,0,1 @ F,0,0,1,0,0,0,1 @ F,0,0,1,0,0,0,1 @ F,0,0,1,0,0,0,1 @ F,0,0,1,0,0,0,1 @ F,0,0,1,0,0,0,1 @ F,0,0,1,0,0,0,1 @ F,0,0,1,0,0,0,1 @ F,0,0,1,0,0,0,1 @ F,0,0,1,0,0,0,1 @ F,0,0,1,0,0,0,1 @ F,0,0,1,0,0,0,1 @ F,0,0,1,0,0,0,1 @ F,0,0,1,0,0,0,1 @ F,0,0,1,0,0,0,1 @ F,0,0,1,0,0,0,1 @ F,0,0,1,0,0,0,1 @ F,0,0,1,0,0,0,1 @ F,0,0,1,0,0,0,1 @ F,0,0,1,0,0,0,1 @ F,0,0,1,0,0,0,1 @ F,0,0,1,0,15.02302,0,1 @ F,0,1,1,0,15.02302,0,1 @ F,0,0,1,0,0,0,1 @ F,0,0,1,0,0,0,1 @ F,0,0,1,0,0,0,1 @ F,0,0,1,0,0,0,1 @ F,0,0,1,0,0,0,1 @ F,0,0,1,0,0,0,1 @ F,0,0,1,0,0,0,1 @ F,0,0,1,0,0,0,1 @ F,0,0,1,0,0,0,1" unit="px" method="auto" mode="F" radius="0" chamfer_steps="1" flexible="false" use_knot_distance="true" apply_no_radius="true" apply_with_radius="true" only_selected="false" hide_knots="false" /><ns2:path-effect effect="fillet_chamfer" id="path-effect850" is_visible="true" lpeversion="1" satellites_param="F,0,0,1,0,0,0,1 @ F,0,0,1,0,0,0,1 @ F,0,0,1,0,0,0,1 @ F,0,0,1,0,0,0,1 @ F,0,0,1,0,0,0,1 @ F,0,0,1,0,0,0,1 @ F,0,0,1,0,0,0,1 @ F,0,0,1,0,0,0,1 @ F,0,0,1,0,0,0,1 @ F,0,0,1,0,0,0,1 @ F,0,0,1,0,0,0,1 @ F,0,0,1,0,0,0,1 @ F,0,0,1,0,0,0,1 @ F,0,0,1,0,0,0,1 @ F,0,0,1,0,0,0,1 @ F,0,0,1,0,0,0,1 @ F,0,0,1,0,0,0,1 @ F,0,0,1,0,0,0,1 @ F,0,0,1,0,0,0,1 @ F,0,0,1,0,0,0,1 @ F,0,0,1,0,0,0,1 @ F,0,0,1,0,0,0,1 @ F,0,0,1,0,0,0,1 @ F,0,0,1,0,0,0,1 @ F,0,0,1,0,0,0,1 @ F,0,0,1,0,0,0,1 @ F,0,0,1,0,0,0,1 @ F,0,1,1,0,31.308509,0,1 @ F,0,1,1,0,31.308509,0,1 @ F,0,0,1,0,0,0,1 @ F,0,0,1,0,0,0,1 @ F,0,0,1,0,0,0,1 @ F,0,0,1,0,0,0,1 @ F,0,0,1,0,0,0,1 @ F,0,0,1,0,0,0,1 @ F,0,0,1,0,0,0,1 @ F,0,0,1,0,0,0,1 @ F,0,0,1,0,0,0,1" unit="px" method="auto" mode="F" radius="0" chamfer_steps="1" flexible="false" use_knot_distance="true" apply_no_radius="true" apply_with_radius="true" only_selected="true" hide_knots="false" /><ns2:path-effect effect="fillet_chamfer" id="path-effect849" is_visible="true" lpeversion="1" satellites_param="F,0,0,1,0,0,0,1 @ F,0,0,1,0,0,0,1 @ F,0,0,1,0,0,0,1 @ F,0,0,1,0,0,0,1 @ F,0,0,1,0,0,0,1 @ F,0,0,1,0,0,0,1 @ F,0,0,1,0,0,0,1 @ F,0,0,1,0,0,0,1 @ F,0,0,1,0,0,0,1 @ F,0,0,1,0,0,0,1 @ F,0,0,1,0,0,0,1 @ F,0,0,1,0,0,0,1 @ F,0,0,1,0,0,0,1 @ F,0,0,1,0,0,0,1 @ F,0,0,1,0,0,0,1 @ F,0,0,1,0,0,0,1 @ F,0,0,1,0,0,0,1 @ F,0,0,1,0,0,0,1 @ F,0,0,1,0,0,0,1 @ F,0,0,1,0,0,0,1 @ F,0,0,1,0,0,0,1 @ F,0,0,1,0,0,0,1 @ F,0,0,1,0,0,0,1 @ F,0,0,1,0,0,0,1 @ F,0,0,1,0,0,0,1 @ F,0,0,1,0,0,0,1 @ F,0,0,1,0,0,0,1 @ F,0,0,1,0,0,0,1 @ F,0,0,1,0,0,0,1 @ F,0,0,1,0,0,0,1 @ F,0,0,1,0,0,0,1 @ F,0,0,1,0,0,0,1 @ F,0,0,1,0,0,0,1 @ F,0,0,1,0,0,0,1 @ F,0,0,1,0,0,0,1 @ F,0,0,1,0,0,0,1 @ F,0,0,1,0,0,0,1 @ F,0,0,1,0,0,0,1 @ F,0,0,1,0,0,0,1 @ F,0,0,1,0,0,0,1" unit="px" method="auto" mode="F" radius="0" chamfer_steps="1" flexible="false" use_knot_distance="true" apply_no_radius="true" apply_with_radius="true" only_selected="true" hide_knots="false" /><ns2:path-effect effect="fillet_chamfer" id="path-effect848" is_visible="true" lpeversion="1" satellites_param="F,0,0,1,0,0,0,1 @ F,0,0,1,0,0,0,1 @ F,0,0,1,0,0,0,1 @ F,0,0,1,0,0,0,1 @ F,0,0,1,0,0,0,1 @ F,0,0,1,0,0,0,1 @ F,0,0,1,0,0,0,1 @ F,0,0,1,0,0,0,1 @ F,0,0,1,0,0,0,1 @ F,0,0,1,0,0,0,1 @ F,0,0,1,0,0,0,1 @ F,0,0,1,0,0,0,1 @ F,0,0,1,0,0,0,1 @ F,0,0,1,0,0,0,1 @ F,0,0,1,0,0,0,1 @ F,0,0,1,0,0,0,1 @ F,0,0,1,0,0,0,1 @ F,0,0,1,0,0,0,1 @ F,0,0,1,0,0,0,1 @ F,0,0,1,0,0,0,1 @ F,0,0,1,0,0,0,1 @ F,0,0,1,0,0,0,1 @ F,0,0,1,0,0,0,1 @ F,0,0,1,0,0,0,1 @ F,0,0,1,0,0,0,1 @ F,0,0,1,0,0,0,1 @ F,0,0,1,0,0,0,1 @ F,0,0,1,0,49.862757,0,1 @ F,0,0,1,0,36.710293,0,1 @ F,0,0,1,0,0,0,1 @ F,0,1,1,0,0,0,1 @ F,0,0,1,0,0,0,1 @ F,0,0,1,0,0,0,1 @ F,0,0,1,0,0,0,1 @ F,0,0,1,0,0,0,1 @ F,0,0,1,0,0,0,1 @ F,0,0,1,0,0,0,1 @ F,0,0,1,0,0,0,1" unit="px" method="auto" mode="F" radius="0" chamfer_steps="1" flexible="false" use_knot_distance="true" apply_no_radius="true" apply_with_radius="true" only_selected="true" hide_knots="false" /><ns2:path-effect effect="spiro" id="path-effect851" is_visible="true" lpeversion="1" />
  <style type="text/css" id="style2">
   
    .fil0 {fill:#EF7F1A;fill-rule:nonzero}
   
  </style>
 <ns2:path-effect effect="spiro" id="path-effect1214" is_visible="true" lpeversion="1" /><ns2:path-effect effect="spiro" id="path-effect1195" is_visible="true" lpeversion="1" /><ns2:path-effect effect="spiro" id="path-effect992" is_visible="true" lpeversion="1" /><ns2:path-effect effect="spiro" id="path-effect1060" is_visible="true" lpeversion="1" /><ns2:path-effect effect="spiro" id="path-effect1047" is_visible="true" lpeversion="1" /><ns2:path-effect effect="spiro" id="path-effect1085" is_visible="true" lpeversion="1" /><ns2:path-effect effect="spiro" id="path-effect1286" is_visible="true" lpeversion="1" /><ns2:path-effect effect="spiro" id="path-effect1305" is_visible="true" lpeversion="1" /></defs>
 
<path id="path1210-6" style="display:inline;fill:#63452c;fill-rule:nonzero;stroke:none;stroke-width:2.10056px;stroke-linecap:butt;stroke-linejoin:miter;stroke-opacity:1" d="m 450.51254,500.64587 c 7.02854,76.13926 -3.23748,155.6686 -41.30755,221.98042 -11.58344,20.17645 -25.83822,39.16641 -44.23715,53.40526 -18.39893,14.23885 -41.26679,23.46892 -64.5212,22.76334 -16.61234,-0.50404 -32.90962,-6.05597 -46.93199,-14.97767 -14.02238,-8.9217 -25.8138,-21.13301 -35.09342,-34.92114 -18.55923,-27.57626 -26.921,-60.76079 -31.64172,-93.66383 -5.37603,-37.47052 -6.3826,-76.1567 3.35044,-112.73824 10.54985,-39.65153 33.65187,-75.59192 64.10643,-103.08852 30.45456,-27.4966 68.06279,-46.65957 107.76773,-57.00658 46.69734,-12.16921 96.67644,-12.5899 140.83886,-32.04271 22.26705,-9.80826 43.03176,-24.97359 54.70979,-46.31948 7.23057,-13.21653 10.6809,-28.24343 11.85591,-43.26266 1.17501,-15.01922 0.15422,-30.1178 -1.09338,-45.13117 C 565.51792,181.97988 561.57983,148.41168 556.51043,115.0152 555.25066,106.71603 560.958,100 569.35228,100 l 270.12672,0 c 8.39428,0 12.55887,6.27236 9.43949,14.06543 -7.69101,19.21427 -14.76053,38.67731 -21.19346,58.34854 -5.92102,18.10588 -11.33958,36.58912 -12.46287,55.60542 -1.12328,19.0163 2.36282,38.8106 13.01011,54.6067 6.56338,9.7373 15.69654,17.68735 26.12876,23.07825 10.43222,5.39089 22.13643,8.23565 33.87632,8.49633 23.47978,0.52135 46.64776,-9.43242 63.84189,-25.43036 19.79074,-18.4139 31.76731,-44.23184 36.47266,-70.85147 6.30108,-35.64713 -0.20052,-73.36442 -17.72723,-105.0065 C 966.79896,105.57227 969.66341,100 978.05769,100 l 106.29471,0 c 8.3943,0 16.2099,6.73326 17.0571,15.08403 6.4206,63.28916 -4.1507,128.25924 -30.4733,186.18415 -14.6555,32.25062 -34.3637,62.64653 -60.8113,86.2137 -26.44756,23.56717 -60.01655,39.98288 -95.361,42.36122 -37.58438,2.52906 -75.46578,-11.11349 -104.79376,-34.75353 -29.32799,-23.64003 -50.32472,-56.75984 -62.18868,-92.51216 -11.36775,-34.25698 -14.62416,-71.17632 -9.42842,-106.89426 l -71.79338,-0.30744 c 2.34943,38.41102 -3.14101,77.28479 -16.03648,113.54266 -10.03448,28.21369 -24.61093,54.95996 -44.1544,77.64818 -19.54348,22.68822 -44.14473,41.24065 -71.97021,52.30615 -37.11772,14.7608 -77.99957,15.75709 -117.80277,19.12029 -39.8032,3.36321 -81.20813,9.99402 -113.37259,33.68059 -18.18152,13.38924 -32.50385,31.77133 -41.89388,52.30586 -9.39003,20.53452 -13.91323,43.16883 -14.07602,65.74787 -0.11953,16.57895 2.183,33.50641 9.62353,48.32242 3.72026,7.40801 8.71184,14.21586 14.92592,19.70259 6.21408,5.48673 13.66815,9.62857 21.71218,11.63168 12.27593,3.05693 25.56361,0.97484 36.84906,-4.74198 11.28544,-5.71682 20.6209,-14.90012 27.49226,-25.52216 13.74271,-21.2441 17.58973,-47.28903 19.4707,-72.52067 2.66332,-35.72623 2.03716,-71.79474 -3.60942,-107.17232 -10.0836,-63.17693 -36.59826,-123.98878 -77.98417,-172.77618 -18.09024,-21.32552 -39.45552,-40.6613 -65.22563,-51.52114 -12.88506,-5.42991 -26.77036,-8.65288 -40.75259,-8.72976 -13.98223,-0.0769 -28.0569,3.0504 -40.36835,9.67889 -18.46989,9.9442 -32.17155,27.31371 -40.80584,46.43105 -8.634296,19.11734 -12.591131,40.00632 -15.17939,60.82277 -6.197615,49.84522 -4.930676,100.43605 0.9777,150.31638 12.5942,106.32414 46.46697,210.07804 98.96748,303.38576 4.11622,7.31565 1.11054,15.29166 -6.86738,17.90254 L 44.28991,881.47056 C 36.311989,884.08144 31.432053,879.57964 33.173662,871.36822 39.965971,839.3435 44.312595,806.8001 46.158661,774.11502 49.695795,711.48914 44.064999,648.73665 37.757292,586.32892 29.156507,501.23374 19.282508,416.22203 14.380657,330.83389 12.63865,300.48887 11.528759,269.98802 14.59228,239.74782 c 3.057182,-30.17763 10.469316,-60.38901 26.000554,-86.44311 14.231081,-23.87305 35.790872,-44.09281 62.131156,-52.96049 27.40949,-9.227638 57.65926,-5.608432 85.29294,2.92441 46.55547,14.37559 88.33707,42.24916 122.51033,76.98038 34.17326,34.73123 60.99769,76.18411 82.48761,119.91343 30.83331,62.74195 51.0716,130.87056 57.49767,200.48343 z" ns1:nodetypes="aaaaaaaaaccaaasccsaaccaaaaaaaaaaaccsasaaaaaa" ns2:original-d="m 450.51254,500.64587 c 3.58558,75.17824 -0.57191,158.69352 -41.30755,221.98042 -23.9549,37.21634 -64.96388,82.56684 -108.75835,76.1686 -60.39658,-8.82376 -94.4671,-85.62333 -113.66713,-143.56264 -11.8262,-35.68754 -12.16103,-78.49129 3.35044,-112.73824 32.30325,-71.32062 102.67488,-123.46739 171.87416,-160.0951 42.55267,-22.52346 97.76449,-10.53378 140.83886,-32.04271 21.37777,-10.67486 43.36514,-25.28949 54.70979,-46.31948 14.09237,-26.12353 10.77289,-58.71162 10.76253,-88.39383 C 568.30174,176.80728 554.15309,100 554.15309,100 h 300.5251 c 0,0 -22.45166,47.05459 -26.95316,72.41397 -6.42089,36.17237 -24.84454,83.66169 0.54724,110.21212 28.56786,29.87143 88.0373,26.78623 123.84697,6.14422 23.01305,-13.26557 23.12022,-45.58495 36.47266,-70.85147 C 1007.3893,182.34892 962.8585,100 962.8585,100 h 136.6931 c 0,0 2.338,145.05007 -28.6154,201.26818 -30.9529,56.21738 -88.75414,127.30903 -156.1723,128.57492 -69.97155,1.31384 -133.19908,-65.97599 -166.98244,-127.26569 -17.26715,-31.32604 -9.42842,-106.89426 -9.42842,-106.89426 l -71.79338,-0.30744 c 0,0 0.0636,78.87571 -16.03648,113.54266 -24.46953,52.68801 -66.09131,100.43396 -116.12461,129.95433 -68.07677,40.16627 -169.531,3.32615 -231.17536,52.80088 -33.96389,27.25885 -57.78619,74.54176 -55.9699,118.05373 1.28059,30.67856 15.65201,77.23481 46.26163,79.65669 44.07033,3.48691 69.68757,-60.89385 83.81202,-102.78481 11.4203,-33.87087 4.49859,-72.35969 -3.60942,-107.17232 C 359.38468,417.88713 342.40486,349.2458 295.73337,306.65069 257.61082,271.85783 197.3464,237.00647 149.3868,256.07868 111.91242,270.9812 102.88162,324.13374 93.40157,363.3325 c -11.778483,48.70247 -7.281235,100.8952 0.9777,150.31638 18.35135,109.81387 106.5454,316.56088 106.5454,316.56088 L 29.844606,886.19798 C 50.750918,854.32387 44.781437,811.84457 46.158661,774.11502 48.447543,711.41026 42.013209,648.8422 37.757292,586.32892 31.948468,501.00568 17.336476,416.17577 14.380657,330.83389 c -1.050962,-30.34391 -4.243023,-61.05253 0.211623,-91.08607 4.41466,-29.76395 9.547439,-61.25031 26.000554,-86.44311 14.88038,-22.78465 36.437813,-43.99287 62.131156,-52.96049 26.85874,-9.374364 59.08817,-8.14721 85.29294,2.92441 87.27595,36.87443 156.0883,115.74789 204.99794,196.89381 35.88845,59.54248 54.18563,131.04052 57.49767,200.48343 z" ns2:path-effect="#path-effect1305;#path-effect4720" /></svg>