<?xml version="1.0" encoding="UTF-8" standalone="no"?>
<svg
   xml:space="preserve"
   width="1000"
   height="1000"
   version="1.1"
   style="clip-rule:evenodd;fill-rule:evenodd;image-rendering:optimizeQuality;shape-rendering:geometricPrecision;text-rendering:geometricPrecision"
   viewBox="0 0 1000 1000"
   id="svg10"
   sodipodi:docname="ൣ.svg"
   inkscape:version="1.1.1 (3bf5ae0d25, 2021-09-20)"
   xmlns:inkscape="http://www.inkscape.org/namespaces/inkscape"
   xmlns:sodipodi="http://sodipodi.sourceforge.net/DTD/sodipodi-0.dtd"
   xmlns="http://www.w3.org/2000/svg"
   xmlns:svg="http://www.w3.org/2000/svg"
   xmlns:rdf="http://www.w3.org/1999/02/22-rdf-syntax-ns#"
   xmlns:cc="http://creativecommons.org/ns#"
   xmlns:dc="http://purl.org/dc/elements/1.1/"><metadata
   id="metadata14"><rdf:RDF><cc:Work
       rdf:about=""><dc:format>image/svg+xml</dc:format><dc:type
         rdf:resource="http://purl.org/dc/dcmitype/StillImage" /><dc:title /></cc:Work></rdf:RDF></metadata><sodipodi:namedview
   pagecolor="#ffffff"
   bordercolor="#666666"
   borderopacity="1"
   objecttolerance="10"
   gridtolerance="10"
   guidetolerance="10"
   inkscape:pageopacity="0"
   inkscape:pageshadow="2"
   inkscape:window-width="1920"
   inkscape:window-height="1009"
   id="namedview12"
   showgrid="false"
   inkscape:zoom="0.95883679"
   inkscape:cx="612.72159"
   inkscape:cy="1087.7764"
   inkscape:window-x="0"
   inkscape:window-y="60"
   inkscape:window-maximized="1"
   inkscape:current-layer="svg10"
   showguides="true"
   inkscape:guide-bbox="true"
   inkscape:document-rotation="0"
   inkscape:snap-to-guides="true"
   inkscape:pagecheckerboard="0"><sodipodi:guide
     position="0,1000"
     orientation="0,1"
     id="guide16"
     inkscape:label=""
     inkscape:locked="true"
     inkscape:color="rgb(0,0,255)" /><sodipodi:guide
     position="1763.3122,2036.1693"
     orientation="1000,0"
     id="guide18" /><sodipodi:guide
     position="0,200"
     orientation="0,1"
     id="guide20"
     inkscape:label="base"
     inkscape:locked="true"
     inkscape:color="rgb(0,0,255)" /><inkscape:grid
     type="xygrid"
     id="grid24"
     originx="-473.37552"
     originy="-489.69235" /><sodipodi:guide
     position="0,0"
     orientation="0,1"
     id="guide34"
     inkscape:label="bottom"
     inkscape:locked="true"
     inkscape:color="rgb(0,0,255)" /><sodipodi:guide
     position="225.05109,1693.3186"
     orientation="0,1"
     id="guide44"
     inkscape:label=""
     inkscape:locked="false"
     inkscape:color="rgb(0,0,255)" /><sodipodi:guide
     position="0,900"
     orientation="0,1"
     id="guide46"
     inkscape:label=""
     inkscape:locked="true"
     inkscape:color="rgb(0,0,255)" /><sodipodi:guide
     position="562.486,161.81538"
     orientation="-1,0"
     id="guide841"
     inkscape:label="width"
     inkscape:locked="false"
     inkscape:color="rgb(0,0,255)" /><sodipodi:guide
     position="0,1000"
     orientation="0,1000"
     id="guide860" /><sodipodi:guide
     position="1000,1000"
     orientation="1000,0"
     id="guide862" /><sodipodi:guide
     position="1000,0"
     orientation="0,-1000"
     id="guide864" /><sodipodi:guide
     position="0,0"
     orientation="-1000,0"
     id="guide866" /></sodipodi:namedview>
 <defs
   id="defs4"><inkscape:path-effect
   effect="fillet_chamfer"
   id="path-effect1888"
   is_visible="true"
   lpeversion="1"
   satellites_param="F,0,0,1,0,0,0,1 @ F,0,0,1,0,0,0,1 @ F,0,0,1,0,0,0,1 @ F,0,0,1,0,0,0,1 @ F,0,0,1,0,0,0,1 @ F,0,0,1,0,0,0,1 @ F,0,0,1,0,0,0,1 @ F,0,0,1,0,0,0,1 @ F,0,0,1,0,0,0,1 @ F,0,0,1,0,0,0,1 @ F,0,0,1,0,0,0,1 @ F,0,0,1,0,0,0,1 @ F,0,0,1,0,0,0,1 @ F,0,0,1,0,0,0,1 @ F,0,0,1,0,0,0,1 @ F,0,0,1,0,0,0,1 @ F,0,0,1,0,0,0,1 @ F,0,0,1,0,0,0,1 @ F,0,0,1,0,0,0,1 @ F,0,0,1,0,0,0,1 @ F,0,0,1,0,0,0,1 @ F,0,0,1,0,0,0,1 @ F,0,0,1,0,0,0,1 @ F,0,0,1,0,0,0,1 @ F,0,0,1,0,0,0,1 @ F,0,0,1,0,0,0,1 @ F,0,0,1,0,0,0,1 @ F,0,0,1,0,0,0,1 @ F,0,0,1,0,0,0,1 @ F,0,0,1,0,0,0,1 @ F,0,0,1,0,0,0,1 @ F,0,0,1,0,0,0,1 @ F,0,0,1,0,0,0,1 @ F,0,0,1,0,0,0,1 @ F,0,0,1,0,0,0,1 @ F,0,0,1,0,0,0,1 @ F,0,1,1,0,8.4967377,0,1 @ F,0,1,1,0,8.4967377,0,1 @ F,0,0,1,0,0,0,1 @ F,0,0,1,0,0,0,1 @ F,0,0,1,0,0,0,1 @ F,0,0,1,0,0,0,1 @ F,0,0,1,0,0,0,1 @ F,0,0,1,0,0,0,1 @ F,0,0,1,0,0,0,1 @ F,0,0,1,0,0,0,1 @ F,0,0,1,0,0,0,1 @ F,0,0,1,0,0,0,1 @ F,0,0,1,0,0,0,1 @ F,0,0,1,0,0,0,1 @ F,0,0,1,0,0,0,1 @ F,0,0,1,0,0,0,1 @ F,0,0,1,0,0,0,1 @ F,0,0,1,0,0,0,1 @ F,0,0,1,0,0,0,1 @ F,0,0,1,0,0,0,1 @ F,0,0,1,0,0,0,1 @ F,0,0,1,0,0,0,1 @ F,0,1,1,0,8.4967377,0,1 @ F,0,0,1,0,8.4967377,0,1 @ F,0,0,1,0,0,0,1 @ F,0,0,1,0,0,0,1 @ F,0,0,1,0,0,0,1 @ F,0,0,1,0,0,0,1 @ F,0,0,1,0,0,0,1 @ F,0,0,1,0,0,0,1 @ F,0,0,1,0,0,0,1 @ F,0,0,1,0,0,0,1 @ F,0,0,1,0,0,0,1 @ F,0,0,1,0,0,0,1 @ F,0,0,1,0,0,0,1 @ F,0,0,1,0,0,0,1 @ F,0,0,1,0,0,0,1 @ F,0,0,1,0,0,0,1 @ F,0,0,1,0,0,0,1 @ F,0,0,1,0,0,0,1"
   unit="px"
   method="auto"
   mode="F"
   radius="0"
   chamfer_steps="1"
   flexible="false"
   use_knot_distance="true"
   apply_no_radius="true"
   apply_with_radius="true"
   only_selected="false"
   hide_knots="false" /><inkscape:path-effect
   effect="fillet_chamfer"
   id="path-effect2728"
   is_visible="true"
   lpeversion="1"
   satellites_param="F,0,0,1,0,0,0,1 @ F,0,0,1,0,0,0,1 @ F,0,0,1,0,0,0,1 @ F,0,0,1,0,0,0,1 @ F,0,0,1,0,0,0,1 @ F,0,0,1,0,0,0,1 @ F,0,0,1,0,0,0,1 @ F,0,0,1,0,0,0,1 @ F,0,0,1,0,0,0,1 @ F,0,0,1,0,0,0,1 @ F,0,0,1,0,0,0,1 @ F,0,0,1,0,0,0,1 @ F,0,0,1,0,0,0,1 @ F,0,0,1,0,0,0,1 @ F,0,0,1,0,0,0,1 @ F,0,0,1,0,0,0,1 @ F,0,0,1,0,0,0,1 @ F,0,0,1,0,0,0,1 @ F,0,0,1,0,0,0,1 @ F,0,0,1,0,0,0,1 @ F,0,0,1,0,0,0,1 @ F,0,0,1,0,0,0,1 @ F,0,0,1,0,0,0,1 @ F,0,0,1,0,0,0,1 @ F,0,0,1,0,0,0,1 @ F,0,0,1,0,0,0,1 @ F,0,0,1,0,0,0,1 @ F,0,0,1,0,0,0,1 @ F,0,0,1,0,0,0,1 @ F,0,0,1,0,0,0,1 @ F,0,0,1,0,0,0,1 @ F,0,0,1,0,0,0,1 @ F,0,0,1,0,0,0,1 @ F,0,0,1,0,0,0,1 @ F,0,0,1,0,0,0,1 @ F,0,0,1,0,0,0,1 @ F,0,0,1,0,0,0,1 @ F,0,0,1,0,0,0,1 @ F,0,0,1,0,0,0,1 @ F,0,0,1,0,0,0,1 @ F,0,0,1,0,0,0,1 @ F,0,0,1,0,0,0,1 @ F,0,0,1,0,0,0,1 @ F,0,0,1,0,0,0,1 @ F,0,0,1,0,0,0,1 @ F,0,0,1,0,0,0,1 @ F,0,0,1,0,0,0,1 @ F,0,0,1,0,0,0,1 @ F,0,0,1,0,0,0,1 @ F,0,0,1,0,0,0,1 @ F,0,1,1,0,7.3894008,0,1 @ F,0,0,1,0,7.3894008,0,1 @ F,0,0,1,0,0,0,1 @ F,0,0,1,0,0,0,1 @ F,0,0,1,0,0,0,1 @ F,0,0,1,0,0,0,1 @ F,0,0,1,0,0,0,1 @ F,0,0,1,0,0,0,1 @ F,0,0,1,0,0,0,1 @ F,0,0,1,0,0,0,1 @ F,0,0,1,0,0,0,1 @ F,0,0,1,0,0,0,1 @ F,0,0,1,0,0,0,1 @ F,0,0,1,0,0,0,1 @ F,0,0,1,0,0,0,1 @ F,0,0,1,0,0,0,1 @ F,0,0,1,0,0,0,1 @ F,0,0,1,0,0,0,1"
   unit="px"
   method="auto"
   mode="F"
   radius="0"
   chamfer_steps="1"
   flexible="false"
   use_knot_distance="true"
   apply_no_radius="true"
   apply_with_radius="true"
   only_selected="false"
   hide_knots="false" /><inkscape:path-effect
   effect="fillet_chamfer"
   id="path-effect857"
   is_visible="true"
   lpeversion="1"
   satellites_param="F,0,0,1,0,0,0,1 @ F,0,0,1,0,0,0,1 @ F,0,0,1,0,0,0,1 @ F,0,0,1,0,0,0,1 @ F,0,0,1,0,0,0,1 @ F,0,0,1,0,0,0,1 @ F,0,0,1,0,0,0,1 @ F,0,0,1,0,0,0,1 @ F,0,0,1,0,0,0,1 @ F,0,0,1,0,0,0,1 @ F,0,0,1,0,0,0,1 @ F,0,0,1,0,0,0,1 @ F,0,0,1,0,0,0,1 @ F,0,0,1,0,0,0,1 @ F,0,0,1,0,0,0,1 @ F,0,0,1,0,0,0,1 @ F,0,0,1,0,0,0,1 @ F,0,0,1,0,0,0,1 @ F,0,0,1,0,0,0,1 @ F,0,0,1,0,0,0,1 @ F,0,0,1,0,0,0,1 @ F,0,0,1,0,0,0,1 @ F,0,0,1,0,0,0,1 @ F,0,0,1,0,0,0,1 @ F,0,0,1,0,0,0,1 @ F,0,0,1,0,0,0,1 @ F,0,0,1,0,0,0,1 @ F,0,0,1,0,0,0,1 @ F,0,0,1,0,0,0,1 @ F,0,0,1,0,0,0,1 @ F,0,0,1,0,0,0,1 @ F,0,0,1,0,0,0,1 @ F,0,0,1,0,0,0,1 @ F,0,0,1,0,0,0,1 @ F,0,0,1,0,0,0,1 @ F,0,0,1,0,0,0,1 @ F,0,0,1,0,0,0,1 @ F,0,0,1,0,0,0,1 @ F,0,0,1,0,0,0,1 @ F,0,0,1,0,0,0,1 @ F,0,0,1,0,0,0,1 @ F,0,0,1,0,0,0,1 @ F,0,0,1,0,0,0,1 @ F,0,0,1,0,0,0,1 @ F,0,0,1,0,0,0,1 @ F,0,0,1,0,0,0,1 @ F,0,0,1,0,0,0,1 @ F,0,0,1,0,0,0,1 @ F,0,0,1,0,0,0,1 @ F,0,0,1,0,0,0,1 @ F,0,0,1,0,0,0,1 @ F,0,0,1,0,0,0,1 @ F,0,1,1,0,14.976071,0,1 @ F,0,1,1,0,14.976071,0,1 @ F,0,0,1,0,0,0,1 @ F,0,0,1,0,0,0,1 @ F,0,0,1,0,0,0,1 @ F,0,0,1,0,0,0,1 @ F,0,0,1,0,0,0,1 @ F,0,0,1,0,0,0,1 @ F,0,0,1,0,0,0,1 @ F,0,0,1,0,0,0,1 @ F,0,0,1,0,0,0,1 @ F,0,0,1,0,0,0,1 @ F,0,0,1,0,0,0,1 @ F,0,0,1,0,0,0,1 @ F,0,0,1,0,0,0,1 @ F,0,0,1,0,0,0,1 @ F,0,0,1,0,0,0,1 @ F,0,0,1,0,0,0,1 @ F,0,0,1,0,0,0,1 @ F,0,0,1,0,0,0,1"
   unit="px"
   method="auto"
   mode="F"
   radius="0"
   chamfer_steps="1"
   flexible="false"
   use_knot_distance="true"
   apply_no_radius="true"
   apply_with_radius="true"
   only_selected="true"
   hide_knots="false" /><inkscape:path-effect
   effect="spiro"
   id="path-effect862"
   is_visible="true"
   lpeversion="1" /><inkscape:path-effect
   effect="spiro"
   id="path-effect1521"
   is_visible="true"
   lpeversion="1" /><inkscape:path-effect
   effect="spiro"
   id="path-effect858"
   is_visible="true"
   lpeversion="1" /><inkscape:path-effect
   effect="spiro"
   id="path-effect854"
   is_visible="true"
   lpeversion="1" />
  <style
   type="text/css"
   id="style2">
   <![CDATA[
    .fil0 {fill:#EF7F1A;fill-rule:nonzero}
   ]]>
  </style>
 <inkscape:path-effect
   effect="spiro"
   id="path-effect1214"
   is_visible="true"
   lpeversion="1" /><inkscape:path-effect
   effect="spiro"
   id="path-effect1195"
   is_visible="true"
   lpeversion="1" /><inkscape:path-effect
   effect="spiro"
   id="path-effect992"
   is_visible="true"
   lpeversion="1" /><inkscape:path-effect
   effect="spiro"
   id="path-effect287"
   is_visible="true"
   lpeversion="1" /><inkscape:path-effect
   effect="spiro"
   id="path-effect1032"
   is_visible="true"
   lpeversion="1" /><inkscape:path-effect
   effect="spiro"
   id="path-effect1218"
   is_visible="true"
   lpeversion="1" /><inkscape:path-effect
   effect="spiro"
   id="path-effect309"
   is_visible="true"
   lpeversion="1" /><inkscape:path-effect
   effect="spiro"
   id="path-effect1176"
   is_visible="true"
   lpeversion="1" /><inkscape:path-effect
   effect="spiro"
   id="path-effect1026"
   is_visible="true"
   lpeversion="1" /><inkscape:path-effect
   effect="spiro"
   id="path-effect1030"
   is_visible="true"
   lpeversion="1" /></defs>
 
<path
   style="display:inline;fill:#613583;fill-rule:nonzero;stroke:none;stroke-width:1.18827px;stroke-linecap:butt;stroke-linejoin:miter;stroke-opacity:1"
   d="m 32.226157,906.51325 c 6.621623,-2.46255 13.414244,-4.46519 20.312722,-5.98869 21.71683,-4.79608 44.5268,-4.76865 66.147481,0.44377 21.62068,5.21242 42.01128,15.6343 58.65575,30.38505 13.37789,11.85583 24.35645,26.55395 31.10481,43.10654 6.74837,16.55259 9.17024,34.97278 6.05432,52.57448 -2.30684,13.0312 -7.6345,25.5357 -15.55895,36.1346 -7.92444,10.5989 -18.44373,19.2658 -30.42898,24.8772 -17.78624,8.3273 -38.41687,9.7228 -57.61284,5.5744 -19.195967,-4.1484 -37.000406,-13.6189 -52.367842,-25.8474 -31.963623,-25.4348 -53.7052259,-63.3584 -59.5378904,-103.78835 -4.4920834,-31.13753 0.37804243,-63.73259 14.8085004,-91.68767 14.430459,-27.95507 38.517223,-51.01816 67.530135,-63.18267 27.246277,-11.4238 58.261697,-13.0639 86.914367,-5.8606 28.65266,7.2033 54.89131,23.03845 75.60399,44.10614 28.2081,28.69158 45.94281,66.38026 56.20438,105.28532 1.84998,7.01388 3.47388,14.08739 4.86835,21.20584 l -29.3845,0.0205 c 1.91946,-6.71709 3.82221,-13.43895 5.70825,-20.1655 8.33103,-29.71264 16.51872,-59.95211 32.44628,-86.38239 16.44876,-27.29516 41.3219,-49.86444 71.03177,-61.39315 29.70987,-11.52871 64.20693,-11.43657 92.92718,2.37411 18.98471,9.12916 35.02884,23.8928 46.80769,41.3576 11.77884,17.4648 19.38683,37.56412 23.43745,58.23664 6.16542,31.46549 4.1205,64.53327 -6.10241,94.92378 -10.2229,30.3905 -28.62359,58.0193 -52.88194,78.9865 -11.9063,10.2909 -25.31693,19.0545 -40.14583,24.3239 -14.8289,5.2695 -31.15665,6.914 -46.43862,3.1557 -11.62976,-2.8601 -22.43667,-8.7975 -31.37313,-16.7707 -8.93645,-7.9731 -16.01742,-17.9489 -20.98526,-28.8463 -12.59454,-27.6271 -10.98771,-60.9251 2.67703,-88.03884 13.66475,-27.11373 38.74734,-47.87474 67.3932,-57.93925 25.8658,-9.08776 54.48771,-9.71513 80.9851,-2.67842 26.49739,7.0367 50.82596,21.60057 70.23154,40.96679 30.79065,30.7282 48.96699,73.99572 48.31055,117.49122 -0.7128,47.2299 -23.96495,93.6249 -61.37563,122.4626 -35.16635,27.1077 -82.15092,38.1678 -125.74966,29.984 -4.61146,-0.8657 -8.16425,-5.6045 -7.9942,-10.2941 l 2.4202,-66.7399 c 0.17005,-4.6896 3.17255,-5.9707 7.01724,-3.2836 14.84882,10.3779 32.98594,16.0398 51.11086,15.7873 20.95797,-0.292 41.71194,-8.4893 57.21279,-22.5977 14.20848,-12.9321 23.91397,-30.6653 27.39583,-49.5597 3.48186,-18.8943 0.76218,-38.8421 -7.42284,-56.2239 -8.41847,-17.8775 -22.44834,-32.8895 -39.13344,-43.47641 -16.68511,-10.58695 -35.94615,-16.83936 -55.56193,-19.22631 -16.9663,-2.06455 -34.87105,-1.13307 -50.05654,6.71032 -7.59275,3.92169 -14.36687,9.55708 -19.16185,16.63081 -4.79498,7.07369 -7.54333,15.61129 -7.23966,24.15159 0.29581,8.3194 3.51764,16.4994 8.94344,22.8129 5.42579,6.3136 13.01445,10.7242 21.17797,12.3541 8.3211,1.6614 17.06193,0.465 24.99397,-2.5489 7.93205,-3.0139 15.10527,-7.7827 21.58867,-13.2569 20.89043,-17.6385 34.98758,-43.25684 38.20479,-70.40782 2.10433,-17.75901 -0.40315,-36.1505 -7.92742,-52.37382 -7.52427,-16.22332 -20.14471,-30.17149 -35.92754,-38.58059 -18.9323,-10.08714 -41.84998,-11.83146 -62.51908,-6.08943 -20.66909,5.74203 -39.04266,18.66769 -52.60068,35.29185 -12.83287,15.73503 -21.47941,34.69116 -26.06211,54.47177 -4.5827,19.78062 -5.17502,40.37588 -2.87609,60.54984 1.32512,11.6284 3.60335,23.1479 6.80142,34.406 1.2822,4.5137 -1.29878,7.7128 -5.96373,7.204 l -59.70048,-6.512 c -4.66495,-0.5088 -6.91406,-4.4078 -5.32381,-8.8219 3.94435,-10.9486 6.51387,-22.3927 7.61769,-33.9779 2.82007,-29.59824 -4.32389,-60.36965 -21.48874,-84.64673 -10.40021,-14.70952 -24.15001,-26.77849 -38.84347,-37.20139 -13.09496,-9.289 -27.19467,-17.44993 -42.57311,-22.06157 -15.37843,-4.61165 -32.17672,-5.50207 -47.41112,-0.43487 -10.56961,3.51562 -20.133953,9.81613 -27.924794,17.77722 -7.79084,7.9611 -13.834346,17.55347 -18.152664,27.8213 -11.535509,27.42843 -10.183368,60.20512 4.550756,86.05647 5.971803,10.47767 14.093853,19.85647 24.207303,26.42627 10.113449,6.5698 22.280939,10.2137 34.305159,9.2853 7.80275,-0.6025 15.54859,-3.1702 21.73233,-7.9667 6.18375,-4.7966 10.69162,-11.9133 11.66943,-19.678 0.82607,-6.5597 -0.8781,-13.32197 -4.266,-18.99948 -3.3879,-5.67751 -8.39169,-10.30041 -14.05474,-13.71241 -11.32612,-6.824 -24.86994,-8.79069 -38.05126,-9.83977 -28.569418,-2.27379 -57.427559,-0.89474 -85.649969,4.09298 z"
   id="path1087-1-75"
   inkscape:path-effect="#path-effect1030;#path-effect1888"
   inkscape:original-d="m 32.226157,906.51325 c 0,0 13.255426,-5.83153 20.312722,-5.98869 42.840883,-0.95403 92.623021,2.53243 124.803231,30.82882 25.69404,22.59303 41.85666,61.79058 37.15913,95.68102 -3.4966,25.2263 -22.25593,51.7714 -45.98793,61.0118 -34.73753,13.5257 -79.557505,1.2693 -109.980682,-20.273 C 25.982311,1044.7248 -0.36391512,1003.864 -1.0052624,963.98485 -1.9454081,905.5264 13.214343,832.9318 81.333373,809.11451 132.69704,791.15559 202.36731,818.767 243.85173,847.36005 c 37.42241,25.7933 48.37872,75.33398 56.20438,105.28532 3.32525,12.72686 4.86835,21.20584 4.86835,21.20584 l -29.3845,0.0205 c 0,0 2.22841,-8.23356 5.70825,-20.1655 8.13659,-27.89937 6.49532,-63.38724 32.44628,-86.38239 38.84422,-34.41986 106.15998,-73.02263 163.95895,-59.01904 48.33513,11.71066 64.42958,59.38782 70.24514,99.59424 8.7629,60.58312 -15.27617,131.05348 -58.98435,173.91028 -21.62087,21.1996 -56.93642,33.6344 -86.58445,27.4796 -22.66439,-4.7051 -47.68514,-22.9461 -52.35839,-45.617 -10.8969,-52.8633 17.51922,-133.66298 70.07023,-145.97809 43.65472,-10.2303 111.93207,4.22474 151.21664,38.28837 31.99299,27.74111 59.27807,76.59092 48.31055,117.49122 -21.3029,79.4432 -195.4274,150.6437 -195.4274,150.6437 l 3.03602,-83.7223 c 0,0 85.67951,23.074 115.03298,-1.6028 27.46753,-23.0914 33.93558,-72.7272 19.97299,-105.7836 -14.73049,-34.87427 -64.18279,-53.30528 -94.69537,-62.70272 -28.67347,-8.83102 -71.87527,17.84218 -76.45805,47.49272 -2.35756,15.2534 15.23667,31.0842 30.12141,35.167 15.81298,4.3373 34.04547,-5.2379 46.58264,-15.8058 20.41617,-17.2095 37.56556,-43.7137 38.20479,-70.40782 0.80576,-33.64871 -4.41132,-76.99479 -43.85496,-90.95441 -36.57363,-12.9439 -88.64099,6.59582 -115.11976,29.20242 -34.617,29.55475 -28.30793,76.03444 -28.9382,115.02161 -0.23211,14.3572 9.28433,42.5313 9.28433,42.5313 l -76.59376,-8.3546 c 0,0 10.72265,-27.6734 10.74052,-41.8785 0.0361,-28.70204 -5.5806,-58.43168 -21.48874,-84.64673 -8.66207,-14.27426 -21.55696,-28.09224 -38.84347,-37.20139 -25.74563,-13.5667 -60.16671,-30.67155 -89.98423,-22.49644 -20.839469,5.71358 -38.285741,25.44367 -46.077458,45.59852 -10.358017,26.79309 -10.164502,61.38625 4.550756,86.05647 11.705276,19.62397 35.721362,37.34837 58.512462,35.71157 14.41549,-1.0354 33.72533,-13.1957 33.40176,-27.6447 -0.52707,-23.53707 -33.8765,-35.6073 -56.372,-42.55166 -27.310873,-8.43087 -85.649969,4.09298 -85.649969,4.09298 z"
   sodipodi:nodetypes="caaaaaaaasccsaaaaaasaaccaasaaaaaaaccaaaaaaaaacc" /></svg>
