<?xml version="1.0" encoding="UTF-8" standalone="no"?>
<svg
   xmlns:dc="http://purl.org/dc/elements/1.1/"
   xmlns:cc="http://creativecommons.org/ns#"
   xmlns:rdf="http://www.w3.org/1999/02/22-rdf-syntax-ns#"
   xmlns:svg="http://www.w3.org/2000/svg"
   xmlns="http://www.w3.org/2000/svg"
   xmlns:sodipodi="http://sodipodi.sourceforge.net/DTD/sodipodi-0.dtd"
   xmlns:inkscape="http://www.inkscape.org/namespaces/inkscape"
   xml:space="preserve"
   width="1000"
   height="1000"
   version="1.1"
   style="clip-rule:evenodd;fill-rule:evenodd;image-rendering:optimizeQuality;shape-rendering:geometricPrecision;text-rendering:geometricPrecision"
   viewBox="0 0 1000 1000"
   id="svg10"
   sodipodi:docname="൮.svg"
   inkscape:version="1.0.2 (e86c870879, 2021-01-15)"><metadata
   id="metadata14"><rdf:RDF><cc:Work
       rdf:about=""><dc:format>image/svg+xml</dc:format><dc:type
         rdf:resource="http://purl.org/dc/dcmitype/StillImage" /><dc:title /></cc:Work></rdf:RDF></metadata><sodipodi:namedview
   pagecolor="#ffffff"
   bordercolor="#666666"
   borderopacity="1"
   objecttolerance="10"
   gridtolerance="10"
   guidetolerance="10"
   inkscape:pageopacity="0"
   inkscape:pageshadow="2"
   inkscape:window-width="1920"
   inkscape:window-height="1007"
   id="namedview12"
   showgrid="false"
   inkscape:zoom="0.84890884"
   inkscape:cx="198.43955"
   inkscape:cy="716.6775"
   inkscape:window-x="1920"
   inkscape:window-y="0"
   inkscape:window-maximized="1"
   inkscape:current-layer="svg10"
   showguides="true"
   inkscape:guide-bbox="true"
   inkscape:document-rotation="0"><sodipodi:guide
     position="0,1000"
     orientation="0,1"
     id="guide16"
     inkscape:label=""
     inkscape:locked="true"
     inkscape:color="rgb(0,0,255)" /><sodipodi:guide
     position="1763.3122,2036.1693"
     orientation="1000,0"
     id="guide18" /><sodipodi:guide
     position="0,200"
     orientation="0,1"
     id="guide20"
     inkscape:label="base"
     inkscape:locked="true"
     inkscape:color="rgb(0,0,255)" /><inkscape:grid
     type="xygrid"
     id="grid24"
     originx="-473.37552"
     originy="-489.69235" /><sodipodi:guide
     position="0,0"
     orientation="0,1"
     id="guide34"
     inkscape:label="bottom"
     inkscape:locked="true"
     inkscape:color="rgb(0,0,255)" /><sodipodi:guide
     position="225.05109,1693.3186"
     orientation="0,1"
     id="guide44"
     inkscape:label=""
     inkscape:locked="false"
     inkscape:color="rgb(0,0,255)" /><sodipodi:guide
     position="0,900"
     orientation="0,1"
     id="guide46"
     inkscape:label=""
     inkscape:locked="true"
     inkscape:color="rgb(0,0,255)" /><sodipodi:guide
     position="636.51937,328.08758"
     orientation="-1,0"
     id="guide841"
     inkscape:label="width"
     inkscape:locked="false"
     inkscape:color="rgb(0,0,255)" /></sodipodi:namedview>
 <defs
   id="defs4"><inkscape:path-effect
   effect="fillet_chamfer"
   id="path-effect848"
   is_visible="true"
   lpeversion="1"
   satellites_param="F,0,1,1,0,21.178644,0,1 @ F,0,0,1,0,0,0,1 @ F,0,0,1,0,0,0,1 @ F,0,0,1,0,0,0,1 @ F,0,0,1,0,0,0,1 @ F,0,0,1,0,0,0,1 @ F,0,0,1,0,0,0,1 @ F,0,0,1,0,0,0,1 @ F,0,1,1,0,21.178644,0,1 @ F,0,1,1,0,21.178644,0,1 @ F,0,0,1,0,0,0,1 @ F,0,0,1,0,0,0,1 @ F,0,0,1,0,0,0,1 @ F,0,0,1,0,0,0,1 @ F,0,0,1,0,0,0,1 @ F,0,0,1,0,0,0,1 @ F,0,0,1,0,0,0,1 @ F,0,0,1,0,0,0,1 @ F,0,0,1,0,0,0,1 @ F,0,0,1,0,0,0,1 @ F,0,0,1,0,0,0,1 @ F,0,0,1,0,0,0,1 @ F,0,0,1,0,0,0,1 @ F,0,0,1,0,0,0,1 @ F,0,0,1,0,0,0,1 @ F,0,0,1,0,0,0,1 @ F,0,0,1,0,0,0,1 @ F,0,0,1,0,0,0,1 @ F,0,1,1,0,21.178644,0,1 @ F,0,1,1,0,21.178644,0,1 @ F,0,0,1,0,0,0,1 @ F,0,0,1,0,0,0,1 @ F,0,0,1,0,0,0,1 @ F,0,0,1,0,0,0,1 @ F,0,0,1,0,0,0,1 @ F,0,0,1,0,0,0,1 @ F,0,0,1,0,0,0,1 @ F,0,0,1,0,0,0,1 @ F,0,0,1,0,0,0,1 @ F,0,1,1,0,21.178644,0,1 @ F,0,1,1,0,21.178644,0,1 @ F,0,0,1,0,0,0,1 @ F,0,0,1,0,0,0,1 @ F,0,0,1,0,0,0,1 @ F,0,0,1,0,0,0,1 @ F,0,0,1,0,0,0,1 @ F,0,0,1,0,0,0,1 @ F,0,1,1,0,21.178644,0,1"
   unit="px"
   method="auto"
   mode="F"
   radius="0"
   chamfer_steps="1"
   flexible="false"
   use_knot_distance="true"
   apply_no_radius="true"
   apply_with_radius="true"
   only_selected="true"
   hide_knots="false" /><inkscape:path-effect
   effect="spiro"
   id="path-effect854"
   is_visible="true"
   lpeversion="1" />
  <style
   type="text/css"
   id="style2">
   <![CDATA[
    .fil0 {fill:#EF7F1A;fill-rule:nonzero}
   ]]>
  </style>
 <inkscape:path-effect
   effect="spiro"
   id="path-effect1214"
   is_visible="true"
   lpeversion="1" /><inkscape:path-effect
   effect="spiro"
   id="path-effect1195"
   is_visible="true"
   lpeversion="1" /><inkscape:path-effect
   effect="spiro"
   id="path-effect992"
   is_visible="true"
   lpeversion="1" /><inkscape:path-effect
   effect="spiro"
   id="path-effect287"
   is_visible="true"
   lpeversion="1" /><inkscape:path-effect
   effect="spiro"
   id="path-effect867"
   is_visible="true"
   lpeversion="1" /><style
   type="text/css"
   id="style2-0">
   <![CDATA[
    .fil0 {fill:#EF7F1A;fill-rule:nonzero}
   ]]>
  </style><inkscape:path-effect
   effect="spiro"
   id="path-effect1078"
   is_visible="true"
   lpeversion="1" /></defs>
 
<path
   style="display:inline;fill:#63452c;fill-rule:nonzero;stroke:none;stroke-width:1.96742;stroke-linecap:butt;stroke-linejoin:miter;stroke-miterlimit:4;stroke-dasharray:none;stroke-opacity:1"
   d="m 324.92301,1002.2689 c 36.28266,3.002 72.94853,1.3731 108.81779,-4.86306 27.79006,-4.83153 55.26474,-12.4788 80.51966,-25.04145 25.25491,-12.56266 48.28118,-30.20625 65.03142,-52.9012 23.93729,-32.43271 33.78141,-73.02039 40.0664,-112.83714 9.33835,-59.16045 12.02659,-119.48081 6.18258,-179.08795 -8.27031,-84.35473 -33.42824,-166.18489 -45.04389,-250.14437 -6.61051,-47.78167 -8.78961,-96.53228 -1.26958,-144.17927 4.09829,-25.96682 11.07236,-51.47765 20.73672,-75.92462 4.29947,-10.87593 -0.80028,-21.88578 -12.10556,-24.88612 L 486.23147,105.4326 c -11.30528,-3.00034 -22.87421,3.75976 -24.77916,15.29686 -2.90291,17.58109 -3.97655,35.46458 -3.18201,53.2662 2.59095,58.0502 24.65458,113.14426 41.02572,168.8984 20.37428,69.38737 32.16121,141.19424 36.69837,213.36856 3.46412,55.10511 2.71998,110.47427 -2.2238,165.46638 l 56.29965,-46.40503 c -40.18237,5.71075 -80.4295,10.96592 -120.73102,15.76417 -30.94563,3.68435 -61.93436,7.10029 -93.02555,9.23205 -44.38756,3.04342 -88.9548,3.4642 -133.39191,1.25941 l 15.38203,48.95265 c 41.06424,-39.63874 76.50515,-85.09444 104.93341,-134.5852 39.09435,-68.05935 65.0203,-144.89945 65.96659,-223.38224 0.57347,-47.56219 -8.26467,-95.80045 -30.26992,-137.96987 -22.00524,-42.16942 -57.81999,-77.89734 -102.06284,-95.36333 -36.42074,-14.37801 -77.43777,-15.9473 -115.3977,-6.34306 -37.95993,9.60425 -72.83311,30.09804 -101.15647,57.13478 -31.007845,29.59927 -54.417805,67.21205 -66.63982,108.30008 -14.66843972,49.31243 -13.12119237,102.03855 -6.548,153.06474 12.586067,97.70276 43.114398,193.98798 38.49645,292.38977 -0.698567,14.88545 -2.205511,29.73285 -4.509776,44.45544 -1.80845,11.55469 5.408843,18.61432 16.781472,15.88032 l 95.294204,-22.90889 c 11.37263,-2.734 18.77879,-14.25978 16.17565,-25.66266 -5.24688,-22.98351 -11.59596,-45.71541 -19.01958,-68.09089 C 125.86739,633.66606 89.462027,562.67134 81.20835,485.37061 77.272365,448.5077 80.141364,410.17506 95.366705,376.37336 102.97937,359.4725 113.64767,343.87123 127.18772,331.2119 c 13.54004,-12.65934 29.98599,-22.32465 47.8572,-27.24516 33.85004,-9.31998 71.45724,-0.72175 99.86839,19.90575 28.41114,20.62751 47.81685,52.388 56.44899,86.41995 10.15828,40.04873 5.92681,83.0254 -8.30746,121.81299 -14.23427,38.78759 -38.10858,73.56633 -66.44649,103.63383 -11.42981,12.12742 -23.60991,23.54745 -36.44553,34.17576 -9.00802,7.45894 -14.17802,22.22644 -11.11878,33.51592 l 20.62922,76.12764 c 3.05924,11.28948 14.7888,18.34722 26.26168,16.07171 33.51816,-6.64793 67.42319,-11.34541 101.48646,-14.05797 74.21051,-5.9096 149.16892,-2.36299 222.48994,10.52696 l -32.24663,-23.97182 c 1.82497,14.93529 0.14384,30.28766 -4.87003,44.47408 -7.95322,22.50311 -24.11887,41.59776 -43.65578,55.30735 -19.53692,13.70958 -42.32708,22.28482 -65.63024,27.44297 -45.77318,10.13188 -94.33144,7.17669 -138.61712,-8.15567 -11.04963,-3.82554 -17.50209,1.45682 -14.79602,12.83613 l 18.87315,79.36362 c 2.70607,11.37931 14.29873,21.90856 25.95434,22.87296 z"
   id="use1029"
   sodipodi:nodetypes="caaaaaaccaaaccaaccaaaaaaaccaaaaaccaccaacc"
   inkscape:path-effect="#path-effect854;#path-effect848"
   inkscape:original-d="m 303.86844,1000 c 26.20681,-6.81125 87.98193,8.3617 129.87236,-2.59416 53.24462,-13.92545 109.66981,-36.21206 145.55108,-77.94265 26.02201,-30.26408 32.61266,-73.62615 40.0664,-112.83714 11.1548,-58.68073 10.46921,-119.51042 6.18258,-179.08795 -6.0801,-84.50408 -37.13524,-165.79178 -45.04389,-250.14437 -4.48644,-47.85176 -8.15078,-96.61281 -1.26958,-144.17927 4.75907,-32.8972 29.10118,-95.37814 29.10118,-95.37814 L 465.76145,100 c 0,0 -9.19289,49.26284 -7.49115,73.99566 3.97691,57.79988 29.27101,112.16685 41.02572,168.8984 14.64195,70.66622 31.04303,141.42331 36.69837,213.36856 4.32262,54.99081 -2.2238,165.46638 -2.2238,165.46638 l 56.29965,-46.40503 c 0,0 -80.41093,11.13221 -120.73102,15.76417 -30.95724,3.55635 -61.91043,7.54459 -93.02555,9.23205 -44.4007,2.40797 -133.39191,1.25941 -133.39191,1.25941 l 15.38203,48.95265 c 0,0 78.93307,-83.98872 104.93341,-134.5852 35.48598,-69.05547 74.8277,-146.24993 65.96659,-223.38224 -10.20511,-88.83133 -50.40839,-197.50657 -132.33276,-233.3332 -67.93189,-29.70753 -156.41698,7.42356 -216.55417,50.79172 -34.37953,24.79292 -54.22779,67.77129 -66.63982,108.30008 -14.95419,48.82968 -8.79824,102.0461 -6.548,153.06474 4.33162,98.2089 38.29254,194.08561 38.49645,292.38977 0.0455,21.938 -11.18624,35.68045 -8.32027,65.2861 L 173.78336,796.25445 C 148.90237,740.51592 158.80559,736.87419 150.34746,707.45124 128.92723,632.93757 74.41129,562.60346 81.20835,485.37061 c 5.96838,-67.81681 27.84144,-164.6891 93.83657,-181.40387 61.08814,-15.47197 136.09651,46.64104 156.31738,106.3257 25.40481,74.98577 -31.23879,159.30531 -74.75395,225.44682 -13.02273,19.79409 -41.66972,50.94708 -53.10356,47.25026 C 210.75204,732.09657 235.21251,800 235.21251,800 c 0,0 81.06605,-16.3197 122.20889,-18.42768 74.14902,-3.79908 222.48994,10.52696 222.48994,10.52696 l -32.24663,-23.97182 c 0,0 2.48683,31.50167 -4.87003,44.47408 -22.54096,39.74669 -65.29609,70.38987 -109.28602,82.75032 -51.05989,14.34699 -123.42332,-25.46664 -158.31291,-15.9236 z" /><g
   style="clip-rule:evenodd;fill-rule:evenodd;image-rendering:optimizeQuality;shape-rendering:geometricPrecision;text-rendering:geometricPrecision"
   id="g867"
   transform="translate(-877.37044,-23.810327)" /></svg>
