<?xml version="1.0" encoding="UTF-8" standalone="no"?>
<svg
   xmlns:dc="http://purl.org/dc/elements/1.1/"
   xmlns:cc="http://creativecommons.org/ns#"
   xmlns:rdf="http://www.w3.org/1999/02/22-rdf-syntax-ns#"
   xmlns:svg="http://www.w3.org/2000/svg"
   xmlns="http://www.w3.org/2000/svg"
   xmlns:sodipodi="http://sodipodi.sourceforge.net/DTD/sodipodi-0.dtd"
   xmlns:inkscape="http://www.inkscape.org/namespaces/inkscape"
   xml:space="preserve"
   width="1000"
   height="1000"
   version="1.1"
   style="clip-rule:evenodd;fill-rule:evenodd;image-rendering:optimizeQuality;shape-rendering:geometricPrecision;text-rendering:geometricPrecision"
   viewBox="0 0 1000 1000"
   id="svg10"
   sodipodi:docname="൵.svg"
   inkscape:version="1.0.2 (e86c870879, 2021-01-15)"><metadata
   id="metadata14"><rdf:RDF><cc:Work
       rdf:about=""><dc:format>image/svg+xml</dc:format><dc:type
         rdf:resource="http://purl.org/dc/dcmitype/StillImage" /><dc:title /></cc:Work></rdf:RDF></metadata><sodipodi:namedview
   pagecolor="#ffffff"
   bordercolor="#666666"
   borderopacity="1"
   objecttolerance="10"
   gridtolerance="10"
   guidetolerance="10"
   inkscape:pageopacity="0"
   inkscape:pageshadow="2"
   inkscape:window-width="1920"
   inkscape:window-height="1009"
   id="namedview12"
   showgrid="false"
   inkscape:zoom="0.60951115"
   inkscape:cx="673.06029"
   inkscape:cy="297.04125"
   inkscape:window-x="0"
   inkscape:window-y="0"
   inkscape:window-maximized="1"
   inkscape:current-layer="svg10"
   showguides="true"
   inkscape:guide-bbox="true"
   inkscape:document-rotation="0"
   inkscape:snap-to-guides="true"><sodipodi:guide
     position="0,1000"
     orientation="0,1"
     id="guide16"
     inkscape:label=""
     inkscape:locked="true"
     inkscape:color="rgb(0,0,255)" /><sodipodi:guide
     position="1763.3122,2036.1693"
     orientation="1000,0"
     id="guide18" /><sodipodi:guide
     position="0,200"
     orientation="0,1"
     id="guide20"
     inkscape:label="base"
     inkscape:locked="true"
     inkscape:color="rgb(0,0,255)" /><inkscape:grid
     type="xygrid"
     id="grid24"
     originx="-473.37552"
     originy="-489.69235" /><sodipodi:guide
     position="0,0"
     orientation="0,1"
     id="guide34"
     inkscape:label="bottom"
     inkscape:locked="true"
     inkscape:color="rgb(0,0,255)" /><sodipodi:guide
     position="225.05109,1693.3186"
     orientation="0,1"
     id="guide44"
     inkscape:label=""
     inkscape:locked="false"
     inkscape:color="rgb(0,0,255)" /><sodipodi:guide
     position="0,900"
     orientation="0,1"
     id="guide46"
     inkscape:label=""
     inkscape:locked="true"
     inkscape:color="rgb(0,0,255)" /><sodipodi:guide
     position="857.9284,577.01428"
     orientation="-1,0"
     id="guide841"
     inkscape:label="width"
     inkscape:locked="false"
     inkscape:color="rgb(0,0,255)" /><sodipodi:guide
     position="0,1000"
     orientation="0,1000"
     id="guide860" /><sodipodi:guide
     position="1000,1000"
     orientation="1000,0"
     id="guide862" /><sodipodi:guide
     position="1000,0"
     orientation="0,-1000"
     id="guide864" /><sodipodi:guide
     position="0,0"
     orientation="-1000,0"
     id="guide866" /></sodipodi:namedview>
 <defs
   id="defs4"><inkscape:path-effect
   effect="fillet_chamfer"
   id="path-effect861"
   is_visible="true"
   lpeversion="1"
   satellites_param="F,0,0,1,0,20.884034,0,1 @ F,0,0,1,0,0,0,1 @ F,0,0,1,0,0,0,1 @ F,0,0,1,0,0,0,1 @ F,0,0,1,0,0,0,1 @ F,0,0,1,0,0,0,1 @ F,0,0,1,0,0,0,1 @ F,0,0,1,0,0,0,1 @ F,0,0,1,0,0,0,1 @ F,0,0,1,0,0,0,1 @ F,0,0,1,0,0,0,1 @ F,0,0,1,0,0,0,1 @ F,0,0,1,0,0,0,1 @ F,0,0,1,0,0,0,1 @ F,0,0,1,0,0,0,1 @ F,0,0,1,0,0,0,1 @ F,0,0,1,0,0,0,1 @ F,0,0,1,0,0,0,1 @ F,0,0,1,0,0,0,1 @ F,0,0,1,0,0,0,1 @ F,0,0,1,0,0,0,1 @ F,0,0,1,0,0,0,1 @ F,0,0,1,0,0,0,1 @ F,0,0,1,0,0,0,1 @ F,0,0,1,0,0,0,1 @ F,0,0,1,0,0,0,1 @ F,0,0,1,0,0,0,1 @ F,0,0,1,0,0,0,1 @ F,0,0,1,0,0,0,1 @ F,0,0,1,0,0,0,1 @ F,0,0,1,0,0,0,1 @ F,0,0,1,0,0,0,1 @ F,0,0,1,0,0,0,1 @ F,0,0,1,0,0,0,1 @ F,0,0,1,0,0,0,1 @ F,0,0,1,0,0,0,1 @ F,0,0,1,0,0,0,1 @ F,0,0,1,0,0,0,1 @ F,0,0,1,0,0,0,1 @ F,0,0,1,0,0,0,1 @ F,0,0,1,0,0,0,1 @ F,0,0,1,0,0,0,1 @ F,0,0,1,0,0,0,1 @ F,0,0,1,0,0,0,1 @ F,0,0,1,0,0,0,1 @ F,0,0,1,0,0,0,1 @ F,0,0,1,0,0,0,1 @ F,0,0,1,0,0,0,1 @ F,0,0,1,0,0,0,1 @ F,0,0,1,0,0,0,1 @ F,0,0,1,0,0,0,1 @ F,0,0,1,0,0,0,1 @ F,0,0,1,0,0,0,1 @ F,0,0,1,0,0,0,1 @ F,0,1,1,0,12.561069,0,1 @ F,0,0,1,0,12.561069,0,1 @ F,0,0,1,0,0,0,1 @ F,0,0,1,0,0,0,1 @ F,0,0,1,0,0,0,1 @ F,0,0,1,0,0,0,1 @ F,0,0,1,0,0,0,1 @ F,0,0,1,0,0,0,1 @ F,0,0,1,0,0,0,1 @ F,0,0,1,0,0,0,1 @ F,0,0,1,0,0,0,1 @ F,0,0,1,0,0,0,1 @ F,0,0,1,0,0,0,1 @ F,0,0,1,0,0,0,1 @ F,0,0,1,0,0,0,1 @ F,0,0,1,0,0,0,1 @ F,0,0,1,0,0,0,1 @ F,0,0,1,0,0,0,1 @ F,0,0,1,0,0,0,1 @ F,0,0,1,0,0,0,1 @ F,0,0,1,0,0,0,1 @ F,0,0,1,0,0,0,1 @ F,0,0,1,0,0,0,1 @ F,0,0,1,0,13.490779,0,1"
   unit="px"
   method="auto"
   mode="F"
   radius="0"
   chamfer_steps="1"
   flexible="false"
   use_knot_distance="true"
   apply_no_radius="true"
   apply_with_radius="true"
   only_selected="false"
   hide_knots="false" /><inkscape:path-effect
   effect="fillet_chamfer"
   id="path-effect860"
   is_visible="true"
   lpeversion="1"
   satellites_param="F,0,1,1,0,21.192832,0,1 @ F,0,0,1,0,0,0,1 @ F,0,0,1,0,0,0,1 @ F,0,0,1,0,0,0,1 @ F,0,0,1,0,0,0,1 @ F,0,0,1,0,0,0,1 @ F,0,0,1,0,0,0,1 @ F,0,0,1,0,0,0,1 @ F,0,0,1,0,0,0,1 @ F,0,0,1,0,0,0,1 @ F,0,0,1,0,0,0,1 @ F,0,0,1,0,0,0,1 @ F,0,0,1,0,0,0,1 @ F,0,0,1,0,0,0,1 @ F,0,0,1,0,0,0,1 @ F,0,0,1,0,0,0,1 @ F,0,0,1,0,0,0,1 @ F,0,0,1,0,0,0,1 @ F,0,0,1,0,0,0,1 @ F,0,0,1,0,0,0,1 @ F,0,0,1,0,0,0,1 @ F,0,0,1,0,0,0,1 @ F,0,0,1,0,0,0,1 @ F,0,0,1,0,0,0,1 @ F,0,0,1,0,0,0,1 @ F,0,0,1,0,0,0,1 @ F,0,0,1,0,0,0,1 @ F,0,0,1,0,0,0,1 @ F,0,0,1,0,0,0,1 @ F,0,0,1,0,0,0,1 @ F,0,0,1,0,0,0,1 @ F,0,0,1,0,0,0,1 @ F,0,0,1,0,0,0,1 @ F,0,0,1,0,0,0,1 @ F,0,0,1,0,0,0,1 @ F,0,0,1,0,0,0,1 @ F,0,0,1,0,0,0,1 @ F,0,0,1,0,0,0,1 @ F,0,0,1,0,0,0,1 @ F,0,0,1,0,0,0,1 @ F,0,0,1,0,0,0,1 @ F,0,0,1,0,0,0,1 @ F,0,0,1,0,0,0,1 @ F,0,0,1,0,0,0,1 @ F,0,1,1,0,21.192832,0,1 @ F,0,1,1,0,21.192832,0,1 @ F,0,0,1,0,0,0,1 @ F,0,0,1,0,0,0,1 @ F,0,0,1,0,0,0,1 @ F,0,0,1,0,0,0,1 @ F,0,0,1,0,0,0,1 @ F,0,0,1,0,0,0,1 @ F,0,0,1,0,0,0,1 @ F,0,0,1,0,0,0,1 @ F,0,0,1,0,0,0,1 @ F,0,0,1,0,0,0,1 @ F,0,1,1,0,21.192832,0,1"
   unit="px"
   method="auto"
   mode="F"
   radius="0"
   chamfer_steps="1"
   flexible="false"
   use_knot_distance="true"
   apply_no_radius="true"
   apply_with_radius="true"
   only_selected="true"
   hide_knots="false" /><inkscape:path-effect
   effect="fillet_chamfer"
   id="path-effect859"
   is_visible="true"
   lpeversion="1"
   satellites_param="F,0,1,1,0,29.616974,0,1 @ F,0,0,1,0,0,0,1 @ F,0,0,1,0,0,0,1 @ F,0,0,1,0,0,0,1 @ F,0,0,1,0,0,0,1 @ F,0,0,1,0,0,0,1 @ F,0,0,1,0,0,0,1 @ F,0,0,1,0,0,0,1 @ F,0,0,1,0,0,0,1 @ F,0,0,1,0,0,0,1 @ F,0,0,1,0,0,0,1 @ F,0,0,1,0,0,0,1 @ F,0,0,1,0,0,0,1 @ F,0,0,1,0,0,0,1 @ F,0,0,1,0,0,0,1 @ F,0,0,1,0,0,0,1 @ F,0,0,1,0,0,0,1 @ F,0,0,1,0,0,0,1 @ F,0,0,1,0,0,0,1 @ F,0,0,1,0,0,0,1 @ F,0,0,1,0,0,0,1 @ F,0,0,1,0,0,0,1 @ F,0,0,1,0,0,0,1 @ F,0,0,1,0,0,0,1 @ F,0,0,1,0,0,0,1 @ F,0,0,1,0,0,0,1 @ F,0,0,1,0,0,0,1 @ F,0,0,1,0,0,0,1 @ F,0,0,1,0,0,0,1 @ F,0,0,1,0,0,0,1 @ F,0,0,1,0,0,0,1 @ F,0,0,1,0,0,0,1 @ F,0,0,1,0,0,0,1 @ F,0,0,1,0,0,0,1 @ F,0,0,1,0,0,0,1 @ F,0,0,1,0,0,0,1 @ F,0,0,1,0,0,0,1 @ F,0,0,1,0,0,0,1 @ F,0,0,1,0,0,0,1 @ F,0,0,1,0,0,0,1 @ F,0,0,1,0,0,0,1 @ F,0,1,1,0,29.616974,0,1 @ F,0,1,1,0,29.616974,0,1 @ F,0,0,1,0,0,0,1 @ F,0,0,1,0,0,0,1 @ F,0,0,1,0,0,0,1 @ F,0,0,1,0,0,0,1 @ F,0,0,1,0,0,0,1 @ F,0,0,1,0,0,0,1 @ F,0,0,1,0,0,0,1 @ F,0,0,1,0,0,0,1 @ F,0,0,1,0,0,0,1 @ F,0,0,1,0,0,0,1 @ F,0,1,1,0,29.616974,0,1"
   unit="px"
   method="auto"
   mode="F"
   radius="0"
   chamfer_steps="1"
   flexible="false"
   use_knot_distance="true"
   apply_no_radius="true"
   apply_with_radius="true"
   only_selected="true"
   hide_knots="false" /><inkscape:path-effect
   effect="spiro"
   id="path-effect862"
   is_visible="true"
   lpeversion="1" /><inkscape:path-effect
   effect="spiro"
   id="path-effect1521"
   is_visible="true"
   lpeversion="1" /><inkscape:path-effect
   effect="spiro"
   id="path-effect858"
   is_visible="true"
   lpeversion="1" /><inkscape:path-effect
   effect="spiro"
   id="path-effect854"
   is_visible="true"
   lpeversion="1" />
  <style
   type="text/css"
   id="style2">
   <![CDATA[
    .fil0 {fill:#EF7F1A;fill-rule:nonzero}
   ]]>
  </style>
 <inkscape:path-effect
   effect="spiro"
   id="path-effect1214"
   is_visible="true"
   lpeversion="1" /><inkscape:path-effect
   effect="spiro"
   id="path-effect1195"
   is_visible="true"
   lpeversion="1" /><inkscape:path-effect
   effect="spiro"
   id="path-effect992"
   is_visible="true"
   lpeversion="1" /><inkscape:path-effect
   effect="spiro"
   id="path-effect287"
   is_visible="true"
   lpeversion="1" /><inkscape:path-effect
   effect="spiro"
   id="path-effect1032"
   is_visible="true"
   lpeversion="1" /><inkscape:path-effect
   effect="spiro"
   id="path-effect1218"
   is_visible="true"
   lpeversion="1" /><inkscape:path-effect
   effect="spiro"
   id="path-effect309"
   is_visible="true"
   lpeversion="1" /><inkscape:path-effect
   effect="spiro"
   id="path-effect1176"
   is_visible="true"
   lpeversion="1" /><inkscape:path-effect
   effect="spiro"
   id="path-effect1026"
   is_visible="true"
   lpeversion="1" /><inkscape:path-effect
   effect="spiro"
   id="path-effect1030"
   is_visible="true"
   lpeversion="1" /></defs>
 
<path
   style="display:inline;fill:#1a5fb4;fill-rule:nonzero;stroke:none;stroke-width:2.09522px;stroke-linecap:butt;stroke-linejoin:miter;stroke-opacity:1"
   d="m 291.78848,91.32207 c 44.4064,-18.64923 92.7924,-27.809544 140.94522,-26.552947 26.73789,0.697752 53.61344,4.619068 78.56356,14.257198 24.95012,9.63813 47.95568,25.233179 64.05529,46.592119 12.36915,16.40982 20.4168,35.8702 24.54142,56.00141 4.12462,20.13121 4.4051,40.93537 2.14013,61.35957 -4.52995,40.8484 -19.02015,79.8238 -32.79087,118.54691 -18.26162,51.35145 -35.52333,103.34668 -44.51565,157.10164 -8.99232,53.75497 -9.47441,109.66391 5.53078,162.05954 7.02176,24.5188 17.58564,48.40135 34.05742,67.87331 16.47177,19.47196 39.2975,34.27377 64.54888,37.85764 21.05769,2.98867 42.76766,-1.92416 61.77535,-11.46701 19.0077,-9.54286 35.49561,-23.52849 50.05953,-39.02851 63.78539,-67.88523 90.64329,-163.29415 96.7256,-256.24567 4.64326,-70.95952 -1.98532,-144.17555 -31.97298,-208.65464 -22.04199,-47.39442 -57.56355,-89.81852 -104.46921,-112.88232 -37.46066,-18.41964 -80.89825,-23.71171 -122.0633,-16.78185 -41.16504,6.92987 -79.98855,25.79892 -112.19731,52.35415 -66.02027,54.43188 -102.90763,142.31797 -95.51252,227.5636 l 62.90976,-1.55575 C 421.26142,354.33829 396.40927,291.33442 361.16935,234.78083 332.00562,187.97841 294.44893,144.54894 245.20871,119.72172 220.58861,107.30811 193.30014,99.817125 165.72872,99.563997 138.15729,99.31087 110.3334,106.47411 87.1451,121.39222 56.106404,141.36085 34.858696,174.13268 23.053141,209.10089 11.247585,244.0691 8.1315126,281.35641 7.2179104,318.25237 4.6466512,422.09307 19.306123,527.57583 61.3711,622.54972 c 15.07157,34.02844 34.18635,67.28367 62.73892,91.15495 14.27628,11.93564 30.81402,21.33895 48.72198,26.39627 17.90797,5.05731 37.20795,5.66042 55.12172,0.62369 15.65227,-4.40088 29.99329,-13.02032 41.81931,-24.17857 11.82603,-11.15824 21.17917,-24.80811 28.09943,-39.52108 13.84053,-29.42593 17.88852,-62.54255 18.29386,-95.05841 0.51374,-41.21221 -4.6049,-82.72855 -17.93061,-121.73029 C 284.91001,421.23455 263.17216,384.77907 233.14165,356.55003 182.57201,309.01396 108.72081,287.5231 40.54094,300.5028 l -5.80765,115.96098 c 24.908545,-12.42067 53.314086,-17.73088 81.02753,-15.1475 27.71344,2.58338 54.64809,13.05226 76.83178,29.86276 35.65488,27.01878 58.13348,70.59897 59.71021,115.3069 0.61168,17.34413 -1.8731,35.11784 -9.79119,50.56118 -3.95904,7.72168 -9.25792,14.79051 -15.79787,20.49379 -6.53994,5.70328 -14.33477,10.01942 -22.73437,12.19771 -9.95985,2.58292 -20.60552,2.10946 -30.49309,-0.73765 -9.88757,-2.84711 -19.03134,-8.01187 -27.00229,-14.51834 -15.94188,-13.01295 -26.99481,-31.01732 -36.26729,-49.38854 -19.886796,-39.40095 -32.96881,-82.133 -39.58522,-125.76948 -5.30561,-34.99151 -6.405678,-71.27353 3.34259,-105.29596 4.874134,-17.01122 12.462813,-33.31747 23.028321,-47.51285 10.565509,-14.19538 24.152559,-26.24454 39.906849,-34.30314 29.86337,-15.27563 66.3473,-15.20973 97.63112,-3.10648 31.28381,12.10326 57.48783,35.44331 76.34879,63.18191 22.96989,33.78157 35.50956,73.83241 41.16713,114.28982 5.65758,40.45741 4.7102,81.5384 2.56702,122.33322 -1.51028,28.74771 -3.60853,57.46452 -6.29293,86.12644 -0.64689,6.90705 4.35751,11.69875 11.22353,10.70693 l 107.70675,-15.55859 c 6.86602,-0.99182 10.82662,-7.18596 8.94955,-13.86442 -5.61644,-19.98287 -10.5462,-40.15875 -14.77732,-60.48011 -13.33043,-64.02386 -19.34794,-132.41157 4.31405,-193.37767 12.30369,-31.70097 32.525,-60.40781 58.78974,-82.00633 18.85994,-15.50926 40.92795,-27.38485 64.69697,-32.97668 23.76901,-5.59183 49.25895,-4.71352 72.05421,4.03924 18.32495,7.03628 34.59424,19.00171 47.59802,33.70596 13.00378,14.70425 22.80204,32.09609 29.67559,50.4827 13.74709,36.77322 15.79512,76.87435 14.46869,116.11072 -1.14059,33.73895 -4.69479,67.55593 -13.53035,100.13737 -8.83555,32.58144 -23.09928,63.97998 -44.21237,90.32111 -6.77013,8.44656 -14.3369,16.44504 -23.55734,22.11624 -9.22045,5.67119 -20.28763,8.87143 -30.97683,7.16262 -6.10116,-0.97535 -11.90905,-3.51752 -16.95521,-7.08287 -5.04616,-3.56535 -9.3434,-8.13707 -12.85972,-13.21752 -7.03263,-10.16089 -10.8921,-22.17769 -13.63518,-34.22664 -8.71287,-38.27115 -6.99162,-78.3704 0.50657,-116.89795 7.49818,-38.52754 20.63946,-75.71689 34.73033,-112.35078 18.77206,-48.80419 39.41412,-97.25154 50.24583,-148.40731 10.83171,-51.15577 11.23576,-106.12167 -9.70344,-154.036058 -22.02659,-50.402625 -66.15297,-88.9027344 -115.7595,-112.66798 -49.60654,-23.765246 -104.60948,-34.026526 -159.3257,-39.659504 -66.19068,-6.814263 -133.04234,-7.189527 -199.30591,-1.126913 -7.41971,0.678847 -10.61957,6.665714 -7.15739,13.263218 l 71.55826,136.361216 c 5.35952,10.213088 18.06378,14.279801 28.69627,9.814501 z"
   id="path1087-1-75"
   sodipodi:nodetypes="caaaaaaaaaaccaaaaaaaccaaaaaaaaccaaaaaaaaaaacc"
   inkscape:original-d="m 272.79648,100 c 1.48908,-3.987729 105.58376,-40.312885 159.93722,-35.230877 51.46133,4.811596 114.69205,17.357783 142.61885,60.849317 42.50273,66.19123 -0.3157,157.4592 -6.10932,235.90789 -7.89383,106.88668 -72.13932,217.24034 -38.98487,319.16118 14.90775,45.82826 51.3565,96.24796 98.6063,105.73095 40.10241,8.04851 83.84065,-20.6743 111.83488,-50.49552 62.4861,-66.56415 87.20755,-165.44531 96.7256,-256.24567 7.33558,-69.97994 -1.40659,-145.2772 -31.97298,-208.65464 -22.27149,-46.17847 -56.07923,-95.94478 -104.46921,-112.88232 -74.54733,-26.09318 -171.96499,-12.9809 -234.26061,35.5723 -64.88505,50.5714 -95.51252,227.5636 -95.51252,227.5636 l 62.90976,-1.55575 c 0,0 -26.48191,-137.69245 -72.95023,-184.93963 C 291.85343,164.3031 178.33261,83.226086 87.1451,121.39222 21.81426,148.7361 14.62507,247.81841 7.2179104,318.25237 c -10.77528,102.4611 -1.00438,217.27996 54.1531896,304.29735 36.44878,57.50213 100.19219,133.25202 166.58262,118.17491 59.03656,-13.40707 83.54762,-98.39828 88.2126,-158.75806 6.17017,-79.8353 -24.46534,-170.80381 -83.02467,-225.41654 C 184.24311,310.947 40.54094,300.5028 40.54094,300.5028 l -5.80765,115.96098 c 0,0 114.03321,-14.81732 157.85931,14.71526 35.89429,24.18767 60.75107,72.03613 59.71021,115.3069 -0.77161,32.07769 -17.0143,76.23044 -48.32343,83.25268 -37.04222,8.3081 -71.21187,-34.10584 -93.76267,-64.64453 -26.10796,-35.35585 -40.36522,-81.82573 -39.58522,-125.76948 1.17429,-66.1574 6.6668,-158.39412 66.27776,-187.11195 55.27355,-26.62826 133.96268,13.56897 173.97991,60.07543 52.3165,60.80021 39.45083,156.52725 43.73415,236.62304 1.76071,32.92431 -7.50143,98.62922 -7.50143,98.62922 l 132.57081,-19.15029 c 0,0 -15.46941,-47.76819 -18.2598,-72.54868 -7.21459,-64.07035 -16.0986,-132.219 4.31405,-193.37767 10.64844,-31.90397 30.6317,-63.61129 58.78974,-82.00633 39.00716,-25.48254 95.13411,-49.88826 136.75118,-28.93744 65.5938,33.02116 86.784,127.0303 91.7423,200.29938 4.47912,66.18836 -15.70862,139.13503 -57.74272,190.45848 -13.07301,15.96209 -34.32398,33.43097 -54.53417,29.27886 -22.76508,-4.67701 -37.47196,-32.06851 -43.45011,-54.52703 C 577.41582,542.31754 621.53074,464.30669 632.54006,387.7809 647.02425,287.10124 718.77731,176.21199 673.08245,85.337532 625.99553,-8.3053606 499.49096,-40.813659 397.99725,-66.989952 c -68.66381,-17.70912 -212.73212,0.190467 -212.73212,0.190467 z"
   inkscape:path-effect="#path-effect1030;#path-effect861" /></svg>
