<svg xmlns="http://www.w3.org/2000/svg" xmlns:dc="http://purl.org/dc/elements/1.1/" xmlns:ns1="http://sodipodi.sourceforge.net/DTD/sodipodi-0.dtd" xmlns:ns2="http://www.inkscape.org/namespaces/inkscape" xmlns:ns4="http://creativecommons.org/ns#" xmlns:rdf="http://www.w3.org/1999/02/22-rdf-syntax-ns#" xml:space="preserve" width="1000" height="1000" version="1.1" style="clip-rule:evenodd;fill-rule:evenodd;image-rendering:optimizeQuality;shape-rendering:geometricPrecision;text-rendering:geometricPrecision" viewBox="0 0 1000 1000" id="svg10" ns1:docname="൷.svg" ns2:version="1.1.1 (3bf5ae0d25, 2021-09-20)"><metadata id="metadata14"><rdf:RDF><ns4:Work rdf:about=""><dc:format>image/svg+xml</dc:format><dc:type rdf:resource="http://purl.org/dc/dcmitype/StillImage" /><dc:title /></ns4:Work></rdf:RDF></metadata><ns1:namedview pagecolor="#ffffff" bordercolor="#666666" borderopacity="1" objecttolerance="10" gridtolerance="10" guidetolerance="10" ns2:pageopacity="0" ns2:pageshadow="2" ns2:window-width="1920" ns2:window-height="1009" id="namedview12" showgrid="false" ns2:zoom="0.7968202" ns2:cx="749.85548" ns2:cy="430.46097" ns2:window-x="0" ns2:window-y="60" ns2:window-maximized="1" ns2:current-layer="svg10" showguides="true" ns2:guide-bbox="true" ns2:document-rotation="0" ns2:pagecheckerboard="0"><ns1:guide position="0,1000" orientation="0,1" id="guide16" ns2:label="" ns2:locked="true" ns2:color="rgb(0,0,255)" /><ns1:guide position="1763.3122,2036.1693" orientation="1000,0" id="guide18" /><ns1:guide position="0,200" orientation="0,1" id="guide20" ns2:label="base" ns2:locked="true" ns2:color="rgb(0,0,255)" /><ns2:grid type="xygrid" id="grid24" originx="-473.37552" originy="-489.69235" /><ns1:guide position="0,0" orientation="0,1" id="guide34" ns2:label="bottom" ns2:locked="true" ns2:color="rgb(0,0,255)" /><ns1:guide position="225.05109,1693.3186" orientation="0,1" id="guide44" ns2:label="" ns2:locked="false" ns2:color="rgb(0,0,255)" /><ns1:guide position="0,900" orientation="0,1" id="guide46" ns2:label="" ns2:locked="true" ns2:color="rgb(0,0,255)" /><ns1:guide position="1502.179,1000" orientation="-1,0" id="guide841" ns2:label="width" ns2:locked="false" ns2:color="rgb(0,0,255)" /><ns1:guide position="0,1000" orientation="0,1000" id="guide860" /><ns1:guide position="1000,1000" orientation="1000,0" id="guide862" /><ns1:guide position="1000,0" orientation="0,-1000" id="guide864" /><ns1:guide position="0,0" orientation="-1000,0" id="guide866" /></ns1:namedview>
 <defs id="defs4"><ns2:path-effect effect="fillet_chamfer" id="path-effect9697" is_visible="true" lpeversion="1" satellites_param="F,0,0,1,0,0,0,1 @ F,0,0,1,0,0,0,1 @ F,0,0,1,0,0,0,1 @ F,0,0,1,0,0,0,1 @ F,0,0,1,0,0,0,1 @ F,0,0,1,0,0,0,1 @ F,0,0,1,0,0,0,1 @ F,0,0,1,0,0,0,1 @ F,0,1,1,0,9.9556462,0,1 @ F,0,1,1,0,9.9556462,0,1 @ F,0,0,1,0,0,0,1 @ F,0,0,1,0,0,0,1 @ F,0,0,1,0,0,0,1 @ F,0,0,1,0,0,0,1 @ F,0,0,1,0,0,0,1 @ F,0,0,1,0,0,0,1 @ F,0,0,1,0,0,0,1 @ F,0,0,1,0,0,0,1 @ F,0,1,1,0,9.9556462,0,1 @ F,0,0,1,0,9.9556462,0,1 @ F,0,0,1,0,0,0,1 @ F,0,0,1,0,0,0,1 @ F,0,0,1,0,0,0,1 @ F,0,0,1,0,0,0,1 @ F,0,0,1,0,0,0,1 @ F,0,0,1,0,0,0,1 @ F,0,0,1,0,0,0,1 @ F,0,0,1,0,0,0,1 @ F,0,0,1,0,0,0,1 @ F,0,0,1,0,0,0,1 @ F,0,0,1,0,0,0,1 @ F,0,0,1,0,0,0,1 @ F,0,0,1,0,0,0,1 @ F,0,0,1,0,0,0,1 @ F,0,0,1,0,0,0,1 @ F,0,0,1,0,0,0,1 @ F,0,0,1,0,0,0,1 @ F,0,0,1,0,0,0,1 @ F,0,0,1,0,0,0,1 @ F,0,0,1,0,0,0,1 @ F,0,0,1,0,0,0,1 @ F,0,0,1,0,0,0,1 @ F,0,0,1,0,0,0,1 @ F,0,0,1,0,0,0,1 @ F,0,0,1,0,0,0,1 @ F,0,0,1,0,0,0,1 @ F,0,0,1,0,0,0,1 @ F,0,0,1,0,0,0,1 @ F,0,0,1,0,0,0,1 @ F,0,0,1,0,0,0,1 @ F,0,0,1,0,0,0,1 @ F,0,0,1,0,0,0,1 @ F,0,0,1,0,0,0,1 @ F,0,0,1,0,0,0,1 @ F,0,0,1,0,0,0,1 @ F,0,0,1,0,0,0,1 @ F,0,0,1,0,0,0,1 @ F,0,0,1,0,0,0,1 @ F,0,0,1,0,0,0,1 @ F,0,0,1,0,0,0,1 @ F,0,0,1,0,0,0,1 @ F,0,0,1,0,0,0,1 @ F,0,0,1,0,0,0,1 @ F,0,0,1,0,15.660894,0,1 @ F,0,0,1,0,17.588231,0,1 @ F,0,0,1,0,0,0,1 @ F,0,0,1,0,0,0,1 @ F,0,0,1,0,0,0,1 @ F,0,0,1,0,0,0,1 @ F,0,0,1,0,0,0,1 @ F,0,0,1,0,0,0,1 @ F,0,0,1,0,0,0,1 @ F,0,0,1,0,0,0,1 @ F,0,0,1,0,0,0,1 @ F,0,0,1,0,0,0,1 @ F,0,0,1,0,0,0,1 @ F,0,0,1,0,0,0,1 @ F,0,0,1,0,0,0,1 @ F,0,0,1,0,0,0,1 @ F,0,0,1,0,0,0,1 @ F,0,0,1,0,0,0,1 @ F,0,0,1,0,0,0,1 @ F,0,0,1,0,0,0,1 @ F,0,0,1,0,0,0,1 @ F,0,0,1,0,0,0,1 @ F,0,0,1,0,10.430603,0,1 @ F,0,0,1,0,10.430603,0,1 @ F,0,0,1,0,0,0,1 @ F,0,0,1,0,0,0,1 @ F,0,0,1,0,0,0,1 @ F,0,0,1,0,0,0,1 @ F,0,0,1,0,0,0,1 @ F,0,0,1,0,0,0,1 @ F,0,0,1,0,0,0,1" unit="px" method="auto" mode="F" radius="0" chamfer_steps="1" flexible="false" use_knot_distance="true" apply_no_radius="true" apply_with_radius="true" only_selected="false" hide_knots="false" /><ns2:path-effect effect="fillet_chamfer" id="path-effect1109" is_visible="true" lpeversion="1" satellites_param="F,0,0,1,0,0,0,1 @ F,0,0,1,0,0,0,1 @ F,0,0,1,0,0,0,1 @ F,0,0,1,0,0,0,1 @ F,0,0,1,0,0,0,1 @ F,0,0,1,0,0,0,1 @ F,0,0,1,0,0,0,1 @ F,0,0,1,0,0,0,1 @ F,0,1,1,0,10.402106,0,1 @ F,0,1,1,0,10.402106,0,1 @ F,0,0,1,0,0,0,1 @ F,0,0,1,0,0,0,1 @ F,0,0,1,0,0,0,1 @ F,0,0,1,0,0,0,1 @ F,0,0,1,0,0,0,1 @ F,0,0,1,0,0,0,1 @ F,0,0,1,0,0,0,1 @ F,0,0,1,0,0,0,1 @ F,0,0,1,0,10.402106,0,1 @ F,0,1,1,0,10.402106,0,1 @ F,0,0,1,0,0,0,1 @ F,0,0,1,0,0,0,1 @ F,0,0,1,0,0,0,1 @ F,0,0,1,0,0,0,1 @ F,0,0,1,0,0,0,1 @ F,0,0,1,0,0,0,1 @ F,0,0,1,0,0,0,1 @ F,0,0,1,0,0,0,1 @ F,0,0,1,0,0,0,1 @ F,0,0,1,0,0,0,1 @ F,0,0,1,0,0,0,1 @ F,0,0,1,0,0,0,1 @ F,0,0,1,0,0,0,1 @ F,0,0,1,0,0,0,1 @ F,0,0,1,0,0,0,1 @ F,0,0,1,0,0,0,1 @ F,0,0,1,0,0,0,1 @ F,0,0,1,0,0,0,1 @ F,0,0,1,0,0,0,1 @ F,0,0,1,0,0,0,1 @ F,0,0,1,0,0,0,1 @ F,0,0,1,0,0,0,1 @ F,0,0,1,0,0,0,1 @ F,0,0,1,0,0,0,1 @ F,0,0,1,0,0,0,1 @ F,0,0,1,0,0,0,1 @ F,0,0,1,0,0,0,1 @ F,0,0,1,0,0,0,1 @ F,0,0,1,0,0,0,1 @ F,0,0,1,0,0,0,1 @ F,0,1,1,0,10.402106,0,1 @ F,0,0,1,0,0,0,1 @ F,0,0,1,0,0,0,1 @ F,0,0,1,0,0,0,1 @ F,0,1,1,0,10.402106,0,1 @ F,0,1,1,0,10.402106,0,1 @ F,0,0,1,0,0,0,1 @ F,0,0,1,0,0,0,1 @ F,0,0,1,0,0,0,1 @ F,0,0,1,0,0,0,1 @ F,0,0,1,0,0,0,1 @ F,0,0,1,0,0,0,1 @ F,0,0,1,0,0,0,1 @ F,0,0,1,0,0,0,1 @ F,0,0,1,0,0,0,1 @ F,0,0,1,0,0,0,1" unit="px" method="auto" mode="F" radius="0" chamfer_steps="1" flexible="false" use_knot_distance="true" apply_no_radius="true" apply_with_radius="true" only_selected="false" hide_knots="false" /><ns2:path-effect effect="fillet_chamfer" id="path-effect6024" is_visible="true" lpeversion="1" satellites_param="F,0,0,1,0,0,0,1 @ F,0,0,1,0,0,0,1 @ F,0,0,1,0,0,0,1 @ F,0,0,1,0,0,0,1 @ F,0,0,1,0,0,0,1 @ F,0,0,1,0,0,0,1 @ F,0,0,1,0,0,0,1 @ F,0,0,1,0,0,0,1 @ F,0,1,1,0,5.6372286,0,1 @ F,0,1,1,0,5.6372286,0,1 @ F,0,0,1,0,0,0,1 @ F,0,0,1,0,0,0,1 @ F,0,0,1,0,0,0,1 @ F,0,0,1,0,0,0,1 @ F,0,0,1,0,0,0,1 @ F,0,0,1,0,0,0,1 @ F,0,0,1,0,0,0,1 @ F,0,0,1,0,0,0,1 @ F,0,1,1,0,5.6372286,0,1 @ F,0,1,1,0,5.6372286,0,1 @ F,0,0,1,0,0,0,1 @ F,0,0,1,0,0,0,1 @ F,0,0,1,0,0,0,1 @ F,0,0,1,0,0,0,1 @ F,0,0,1,0,0,0,1 @ F,0,0,1,0,0,0,1 @ F,0,0,1,0,0,0,1 @ F,0,0,1,0,0,0,1 @ F,0,0,1,0,0,0,1 @ F,0,0,1,0,0,0,1 @ F,0,0,1,0,0,0,1 @ F,0,0,1,0,0,0,1 @ F,0,0,1,0,0,0,1 @ F,0,0,1,0,0,0,1 @ F,0,0,1,0,0,0,1 @ F,0,0,1,0,0,0,1 @ F,0,0,1,0,0,0,1 @ F,0,0,1,0,0,0,1 @ F,0,0,1,0,0,0,1 @ F,0,0,1,0,0,0,1 @ F,0,0,1,0,0,0,1 @ F,0,0,1,0,0,0,1 @ F,0,0,1,0,0,0,1 @ F,0,0,1,0,0,0,1 @ F,0,0,1,0,0,0,1 @ F,0,0,1,0,0,0,1 @ F,0,0,1,0,0,0,1 @ F,0,0,1,0,0,0,1 @ F,0,0,1,0,0,0,1 @ F,0,0,1,0,0,0,1 @ F,0,1,1,0,5.6372286,0,1 @ F,0,0,1,0,0,0,1 @ F,0,1,1,0,5.6372286,0,1 @ F,0,0,1,0,0,0,1 @ F,0,1,1,0,5.6372286,0,1 @ F,0,0,1,0,5.6372286,0,1 @ F,0,0,1,0,0,0,1 @ F,0,0,1,0,0,0,1 @ F,0,0,1,0,0,0,1 @ F,0,0,1,0,0,0,1 @ F,0,0,1,0,0,0,1 @ F,0,0,1,0,0,0,1 @ F,0,0,1,0,0,0,1 @ F,0,0,1,0,0,0,1 @ F,0,0,1,0,0,0,1 @ F,0,0,1,0,0,0,1" unit="px" method="auto" mode="F" radius="0" chamfer_steps="1" flexible="false" use_knot_distance="true" apply_no_radius="true" apply_with_radius="true" only_selected="false" hide_knots="false" /><ns2:path-effect effect="fillet_chamfer" id="path-effect856" is_visible="true" lpeversion="1" satellites_param="F,0,0,1,1,0,0,1 @ F,0,0,1,1,0,0,1 @ F,0,0,1,1,0,0,1 @ F,0,0,1,1,0,0,1 @ F,0,0,1,1,0,0,1 @ F,0,0,1,1,0,0,1 @ F,0,0,1,1,0,0,1 @ F,0,0,1,1,18.817302,0,1 @ F,0,0,1,1,18.817302,0,1 @ F,0,0,1,1,0,0,1 @ F,0,0,1,1,0,0,1 @ F,0,0,1,1,0,0,1 @ F,0,0,1,1,0,0,1 @ F,0,0,1,1,0,0,1 @ F,0,0,1,1,0,0,1 @ F,0,0,1,1,0,0,1 @ F,0,0,1,1,0,0,1 @ F,0,0,1,1,0,0,1 @ F,0,0,1,1,32.087263,0,1 @ F,0,0,1,1,18.817302,0,1 @ F,0,0,1,1,0,0,1 @ F,0,0,1,1,0,0,1 @ F,0,0,1,1,0,0,1 @ F,0,0,1,1,0,0,1 @ F,0,0,1,1,0,0,1 @ F,0,0,1,1,0,0,1 @ F,0,0,1,1,0,0,1 @ F,0,0,1,1,0,0,1 @ F,0,0,1,1,0,0,1 @ F,0,0,1,1,0,0,1 @ F,0,0,1,1,0,0,1 @ F,0,0,1,1,0,0,1 @ F,0,0,1,1,0,0,1 @ F,0,0,1,1,0,0,1 @ F,0,0,1,1,0,0,1 @ F,0,0,1,1,0,0,1 @ F,0,0,1,1,0,0,1 @ F,0,0,1,1,0,0,1 @ F,0,0,1,1,0,0,1 @ F,0,0,1,1,0,0,1 @ F,0,0,1,1,0,0,1 @ F,0,0,1,1,0,0,1 @ F,0,0,1,1,0,0,1 @ F,0,0,1,1,18.817302,0,1 @ F,0,0,1,1,18.817302,0,1 @ F,0,0,1,1,0,0,1 @ F,0,0,1,1,27.651489,0,1 @ F,0,0,1,1,0,0,1 @ F,0,0,1,1,18.817302,0,1 @ F,0,0,1,1,18.817302,0,1 @ F,0,0,1,1,0,0,1 @ F,0,0,1,1,0,0,1 @ F,0,0,1,1,0,0,1 @ F,0,0,1,1,0,0,1 @ F,0,0,1,1,0,0,1 @ F,0,0,1,1,0,0,1 @ F,0,0,1,1,0,0,1 @ F,0,0,1,1,0,0,1 @ F,0,0,1,1,0,0,1" unit="px" method="auto" mode="F" radius="0" chamfer_steps="1" flexible="false" use_knot_distance="true" apply_no_radius="true" apply_with_radius="true" only_selected="true" hide_knots="true" /><ns2:path-effect effect="fillet_chamfer" id="path-effect855" is_visible="true" lpeversion="1" satellites_param="F,0,0,1,0,0,0,1 @ F,0,0,1,0,0,0,1 @ F,0,0,1,0,0,0,1 @ F,0,0,1,0,0,0,1 @ F,0,0,1,0,0,0,1 @ F,0,0,1,0,0,0,1 @ F,0,1,1,0,13.425077,0,1 @ F,0,1,1,0,13.425077,0,1 @ F,0,0,1,0,0,0,1 @ F,0,0,1,0,0,0,1 @ F,0,0,1,0,0,0,1 @ F,0,0,1,0,0,0,1 @ F,0,0,1,0,0,0,1 @ F,0,0,1,0,0,0,1 @ F,0,0,1,0,0,0,1 @ F,0,0,1,0,0,0,1 @ F,0,0,1,0,0,0,1 @ F,0,0,1,0,21.704071,0,1 @ F,0,0,1,0,21.704071,0,1 @ F,0,0,1,0,21.704071,0,1 @ F,0,0,1,0,0,0,1 @ F,0,0,1,0,0,0,1 @ F,0,0,1,0,0,0,1 @ F,0,0,1,0,0,0,1 @ F,0,0,1,0,0,0,1 @ F,0,0,1,0,0,0,1 @ F,0,0,1,0,0,0,1 @ F,0,0,1,0,0,0,1 @ F,0,0,1,0,0,0,1 @ F,0,0,1,0,0,0,1 @ F,0,0,1,0,0,0,1 @ F,0,0,1,0,0,0,1 @ F,0,0,1,0,0,0,1 @ F,0,0,1,0,0,0,1 @ F,0,0,1,0,0,0,1 @ F,0,0,1,0,0,0,1 @ F,0,0,1,0,0,0,1 @ F,0,0,1,0,0,0,1 @ F,0,0,1,0,0,0,1 @ F,0,0,1,0,0,0,1 @ F,0,0,1,0,0,0,1 @ F,0,0,1,0,0,0,1 @ F,0,0,1,0,0,0,1 @ F,0,0,1,0,0,0,1 @ F,0,0,1,0,0,0,1 @ F,0,0,1,0,21.543361,0,1 @ F,0,0,1,0,0,0,1 @ F,0,0,1,0,21.543361,0,1 @ F,0,0,1,0,0,0,1 @ F,0,0,1,0,21.543361,0,1 @ F,0,0,1,0,21.543361,0,1 @ F,0,0,1,0,0,0,1 @ F,0,0,1,0,0,0,1 @ F,0,0,1,0,0,0,1 @ F,0,0,1,0,0,0,1 @ F,0,0,1,0,0,0,1 @ F,0,0,1,0,0,0,1 @ F,0,0,1,0,0,0,1 @ F,0,0,1,0,0,0,1 @ F,0,0,1,0,0,0,1 @ F,0,0,1,0,0,0,1" unit="px" method="auto" mode="F" radius="0" chamfer_steps="1" flexible="false" use_knot_distance="true" apply_no_radius="true" apply_with_radius="true" only_selected="true" hide_knots="false" /><ns2:path-effect effect="spiro" id="path-effect858" is_visible="true" lpeversion="1" /><ns2:path-effect effect="spiro" id="path-effect854" is_visible="true" lpeversion="1" />
  <style type="text/css" id="style2">
   
    .fil0 {fill:#EF7F1A;fill-rule:nonzero}
   
  </style>
 <ns2:path-effect effect="spiro" id="path-effect1214" is_visible="true" lpeversion="1" /><ns2:path-effect effect="spiro" id="path-effect1195" is_visible="true" lpeversion="1" /><ns2:path-effect effect="spiro" id="path-effect992" is_visible="true" lpeversion="1" /><ns2:path-effect effect="spiro" id="path-effect287" is_visible="true" lpeversion="1" /><ns2:path-effect effect="spiro" id="path-effect1032" is_visible="true" lpeversion="1" /><ns2:path-effect effect="spiro" id="path-effect1218" is_visible="true" lpeversion="1" /><ns2:path-effect effect="spiro" id="path-effect309" is_visible="true" lpeversion="1" /><ns2:path-effect effect="spiro" id="path-effect860" is_visible="true" lpeversion="1" /><style type="text/css" id="style2-2">
   
    .fil0 {fill:#EF7F1A;fill-rule:nonzero}
   
  </style></defs>
 
<path id="path856" style="clip-rule:evenodd;fill:#a51d2d;fill-rule:nonzero;stroke:none;stroke-width:1px;stroke-linecap:butt;stroke-linejoin:miter;stroke-opacity:1;image-rendering:optimizeQuality;shape-rendering:geometricPrecision;text-rendering:geometricPrecision" d="m 585.95864,655.94364 c 11.00715,17.22647 21.94691,34.8329 27.89247,54.392 2.97279,9.77955 4.65718,20.00099 4.34668,30.21767 -0.3105,10.21669 -2.65462,20.43422 -7.39004,29.49252 -4.94314,9.45564 -12.42437,17.49873 -21.21184,23.55052 -8.78747,6.05178 -18.85571,10.14374 -29.27144,12.45809 -24.3421,5.40876 -49.63769,1.17329 -74.35814,-2.09658 -54.67974,-7.23269 -109.9208,-9.64635 -165.0755,-9.26564 -37.0385,0.25566 -74.06831,1.7683 -111.00428,4.53417 -5.48299,0.41059 -11.31028,-3.46313 -13.01845,-8.68941 l -22.81659,-69.80917 c -1.70817,-5.22628 0.83176,-11.58268 5.51991,-14.45445 17.80982,-10.90959 33.94987,-24.54431 47.66505,-40.29653 18.76975,-21.55751 33.28834,-48.21961 34.24947,-76.78718 0.46061,-13.69064 -2.25683,-27.52227 -8.20829,-39.86026 -5.95145,-12.33798 -15.16122,-23.14034 -26.61426,-30.65523 -14.14361,-9.28029 -31.48546,-13.35066 -48.35607,-12.10645 -16.87061,1.24421 -33.21642,7.68228 -46.88505,17.64892 -23.08813,16.83498 -38.080589,43.14746 -45.302163,70.79393 -8.642857,33.08759 -6.887614,68.37125 1.722864,101.46728 11.80532,45.37602 36.566969,87.28795 70.513539,119.61625 3.9814,3.79161 3.36709,8.72875 -1.54059,11.20796 L 39.318023,886.65834 c -4.907686,2.47921 -8.93115,0.0318 -9.054354,-5.46516 -0.60283,-26.8963 -2.407644,-53.76565 -5.407836,-80.50089 C 20.836354,764.874 14.677933,729.33498 9.5434809,693.65945 4.0110471,655.21864 -0.33528581,616.16667 4.3747309,577.61645 9.2496717,537.71637 24.083395,498.82798 48.569022,466.94953 73.054648,435.07108 107.32572,410.459 145.92529,399.24048 c 50.13251,-14.57043 106.89376,-5.29571 149.08341,25.4549 23.49984,17.12824 42.42562,40.57007 53.7956,67.33465 11.36998,26.76458 15.09716,56.79262 10.16625,85.45105 -8.03911,46.72325 -37.69842,86.54827 -68.17084,122.86797 -19.86994,23.68273 -40.48028,46.74424 -61.79078,69.13952 l -1.27789,-48.49173 c 34.7969,5.64047 70.05921,8.40707 105.31,8.26238 63.66964,-0.26134 127.29181,-10.06818 188.08482,-28.99175 L 496.28408,726.1101 C 485.93747,703.86353 476.03036,681.41255 466.57047,658.77469 445.32406,607.93125 426.27009,555.92257 414.9243,501.99912 403.53222,447.85568 400.04053,391.7938 407.72345,337.00087 c 7.68293,-54.79292 26.74569,-108.30392 58.01926,-153.94662 13.75505,-20.07501 29.92757,-38.68374 49.25642,-53.46896 19.32886,-14.78522 41.93748,-25.66147 65.96956,-29.4912 20.67124,-3.294147 42.04879,-1.314357 62.07785,4.76746 20.02906,6.08182 38.72871,16.202 55.40719,28.85031 33.35696,25.29664 58.25951,60.18398 78.70813,96.71425 32.3474,57.78675 54.81218,121.08899 66.12834,186.33933 l -48.09637,6.73189 c 14.1064,-62.30192 35.30178,-122.99588 63.04602,-180.53524 15.8719,-32.91706 34.15425,-65.17867 59.40568,-91.59486 25.25142,-26.41619 58.19607,-46.75595 94.44777,-51.36723 26.5715,-3.379943 53.9379,1.85688 78.1581,13.29579 24.2203,11.43891 45.3542,28.91453 62.504,49.49006 34.2997,41.15107 52.2872,93.45432 64.2124,145.6814 12.4549,54.54688 19.049,111.34469 9.4755,166.47031 -9.5735,55.12562 -36.7315,108.70455 -81.7338,141.95033 -24.6961,18.24443 -54.3518,29.95109 -84.9571,32.41549 -30.6052,2.46439 -62.06111,-4.47521 -88.24509,-20.51127 -27.86219,-17.06386 -49.29662,-44.30124 -59.53126,-75.32912 -10.23465,-31.02788 -9.23068,-65.5969 2.59125,-96.05538 8.68232,-22.36948 23.0023,-42.4242 40.79702,-58.52153 17.79473,-16.09733 39.01049,-28.27219 61.62088,-36.30628 47.1076,-16.73863 98.3717,-15.3434 148.1506,-19.96641 24.8895,-2.3115 49.8037,-6.21578 73.3568,-14.58703 23.5532,-8.37124 45.8014,-21.41934 62.4997,-40.02027 13.9583,-15.5487 23.7677,-34.78807 28.1533,-55.2175 3.2898,-15.32478 3.5216,-31.29151 0.7531,-46.71684 -1.5268,-8.50716 3.2484,-15.22959 11.8976,-15.27778 l 114.7999,-0.6397 c 9.7136,-0.0541 17.1899,7.77346 16.1133,17.42613 -1.8021,16.15744 -4.818,32.17958 -9.0185,47.88523 -14.1278,52.82331 -42.3988,102.56489 -84.1532,137.8702 -46.0772,38.96044 -106.8344,58.66709 -167.167,59.66617 -46.4733,0.76958 -93.2904,-8.95302 -139.1727,-1.5249 -15.4555,2.50217 -30.761,7.01386 -44.1891,15.06495 -13.4281,8.05108 -24.9148,19.84907 -30.87935,34.32516 -6.88665,16.71395 -5.78485,36.619 3.30825,52.24263 4.5466,7.81181 10.9784,14.5261 18.6215,19.35078 7.6432,4.82468 16.4868,7.74571 25.5045,8.35976 15.7753,1.0742 31.5554,-4.97582 43.9154,-14.83706 12.3601,-9.86125 21.5087,-23.30423 28.1091,-37.67258 10.4077,-22.65649 14.775,-47.76265 15.1981,-72.6917 0.4232,-24.92904 -2.992,-49.77578 -7.5789,-74.28285 -4.5651,-24.39042 -10.4604,-48.98001 -22.9547,-70.41887 -6.2472,-10.71943 -14.1314,-20.55659 -23.7269,-28.42168 -9.5955,-7.86509 -20.939,-13.71969 -33.082,-16.26533 -12.6426,-2.65037 -25.9288,-1.66275 -38.2917,2.08157 -12.36278,3.74433 -23.8222,10.18699 -33.96065,18.19145 -20.27688,16.00891 -35.05524,37.87494 -48.19458,60.11893 -25.04102,42.39269 -45.5892,88.2677 -52.65229,136.99455 -4.88006,33.66655 -3.16869,68.2717 4.96135,101.30214 1.37673,5.59334 -1.96661,9.77886 -7.71559,9.4123 L 754.11998,566.9687 c -5.74898,-0.36656 -8.56548,-4.95682 -6.53901,-10.34884 13.68919,-36.42406 18.96331,-75.99673 15.21091,-114.73116 -4.97914,-51.39754 -26.53182,-101.89832 -63.91011,-137.52643 -14.82529,-14.13112 -32.09188,-25.89427 -51.23561,-33.17404 -19.14374,-7.27977 -40.21436,-9.95546 -60.36231,-6.2761 -22.56011,4.11986 -43.35687,16.13941 -59.37645,32.54992 -16.01958,16.4105 -27.38346,37.05778 -34.26103,58.93541 -16.21907,51.59306 -7.4954,108.34337 12.52185,158.5849 20.01725,50.24154 50.67052,95.3879 79.79042,140.96128 z" ns1:nodetypes="aaaaaccaaaaaaccaaaaaaaccaccaaaaaccaaaaaaaaccaaaaasaaaaaccaaaaa" ns2:original-d="m 585.95864,655.94364 c 9.88225,37.65023 38.8668,77.78824 24.84911,114.10219 -7.44353,19.28305 -30.71052,29.98528 -50.48328,36.00861 -23.71973,7.22569 -49.58424,-1.05225 -74.35814,-2.09658 -55.06288,-2.32115 -109.96475,-8.92925 -165.0755,-9.26564 C 280.54284,794.44594 231.16922,790.18465 199.96102,800 l -29.00243,-88.73521 c 22.85923,-10.7469 41.58384,-26.21219 56.27788,-45.28796 17.10287,-22.20291 34.79804,-48.76618 34.24947,-76.78718 -0.51312,-26.20999 -12.16419,-57.33119 -34.82255,-70.51549 -27.48626,-15.99354 -67.80057,-10.52936 -95.24112,5.54247 -24.17473,14.15905 -37.66383,43.8393 -45.302163,70.79393 -9.222737,32.54578 -7.776396,69.00114 1.722864,101.46728 13.891069,47.47627 42.185339,101.15328 77.859099,126.3352 -60.84482,10.44886 -74.425037,57.885 -135.270199,68.33431 4.99246,-26.431 -2.505111,-60.40264 -5.576038,-90.45506 C 21.192053,764.83813 12.901401,729.54355 9.5434809,693.65945 5.9360065,655.10852 -7.5527482,614.45289 4.3747309,577.61645 27.757328,505.40239 75.032366,426.3663 145.92529,399.24048 c 47.08458,-18.01602 109.62199,-5.91916 149.08341,25.4549 43.2168,34.3598 66.999,97.658 63.96185,152.7857 -2.57651,46.76663 -41.03528,84.69184 -68.17084,122.86797 -17.90736,25.19328 -61.79078,69.13952 -61.79078,69.13952 l -1.27789,-48.49173 c 0,0 70.12331,9.57617 105.31,8.26238 63.3912,-2.36689 188.08482,-28.99175 188.08482,-28.99175 l -24.84178,25.84263 c 0,0 -20.91284,-44.43496 -29.71361,-67.33541 C 446.8329,607.41565 419.3275,556.84376 414.9243,501.99912 406.30886,394.6884 409.25252,274.69853 465.74271,183.05425 c 24.83433,-40.28884 67.90641,-82.06943 115.22598,-82.96016 78.49879,-1.47764 147.88695,68.43894 196.19317,130.33202 40.55125,51.95689 66.12834,186.33933 66.12834,186.33933 l -48.09637,6.73189 c 0,0 28.16561,-127.18317 63.04602,-180.53524 C 896.54844,184.36638 942.10413,98.412048 1012.0933,100 c 97.4042,2.20996 178.5786,114.65366 204.8745,208.46725 28.4986,101.67214 8.1853,240.02308 -72.2583,308.42064 -44.0881,37.48612 -125.1382,44.13492 -173.20219,11.90422 -49.99778,-33.52744 -71.92369,-113.08049 -56.94001,-171.3845 11.58043,-45.06142 61.62931,-72.44637 102.4179,-94.82781 85.8088,-47.08487 216.3827,-3.813 284.0071,-74.57371 27.5886,-28.86804 25.1433,-117.12486 25.1433,-117.12486 l 148.0486,-0.82496 c 29.6555,-5.38926 -2.8479,44.69318 -10.4932,65.40936 -18.6411,50.51132 -42.3828,103.89786 -84.1532,137.8702 -45.9008,37.33167 -108.8143,49.89342 -167.167,59.66617 -45.7564,7.66317 -94.6568,-14.59058 -139.1727,-1.5249 -28.7407,8.43555 -68.3361,20.2035 -75.06845,49.39011 -6.96509,30.19549 11.31955,83.67394 47.43425,79.95317 28.9151,-2.97902 57.8764,-26.38331 72.0245,-52.50964 23.3606,-43.1382 21.0395,-99.78858 7.6192,-146.97455 -12.7701,-44.89979 -33.9068,-106.37538 -79.7636,-115.10588 -47.41869,-9.02787 -90.29818,42.6946 -120.44693,80.39195 -30.55534,38.20575 -45.38246,88.61627 -52.65229,136.99455 C 866.81476,500.41727 880,574.99497 880,574.99497 l -136.28948,-8.68999 c 0,0 24.99514,-82.87814 19.08136,-124.41628 -7.125,-50.04568 -26.50483,-103.52377 -63.91011,-137.52643 -29.19531,-26.53952 -73.06796,-47.94453 -111.59792,-39.45014 -42.61352,9.39465 -82.88206,49.19476 -93.63748,91.48533 -25.75243,101.25917 65.7867,198.48678 92.31227,299.54618 z" ns2:path-effect="#path-effect860;#path-effect9697" /><g style="clip-rule:evenodd;fill-rule:evenodd;image-rendering:optimizeQuality;shape-rendering:geometricPrecision;text-rendering:geometricPrecision" id="g872" transform="translate(954.96814)" /></svg>