<?xml version="1.0" encoding="UTF-8" standalone="no"?>
<svg
   xml:space="preserve"
   width="1000"
   height="1000"
   version="1.1"
   style="clip-rule:evenodd;fill-rule:evenodd;image-rendering:optimizeQuality;shape-rendering:geometricPrecision;text-rendering:geometricPrecision"
   viewBox="0 0 1000 1000"
   id="svg10"
   sodipodi:docname="൸.svg"
   inkscape:version="1.1.1 (3bf5ae0d25, 2021-09-20)"
   xmlns:inkscape="http://www.inkscape.org/namespaces/inkscape"
   xmlns:sodipodi="http://sodipodi.sourceforge.net/DTD/sodipodi-0.dtd"
   xmlns="http://www.w3.org/2000/svg"
   xmlns:svg="http://www.w3.org/2000/svg"
   xmlns:rdf="http://www.w3.org/1999/02/22-rdf-syntax-ns#"
   xmlns:cc="http://creativecommons.org/ns#"
   xmlns:dc="http://purl.org/dc/elements/1.1/"><metadata
   id="metadata14"><rdf:RDF><cc:Work
       rdf:about=""><dc:format>image/svg+xml</dc:format><dc:type
         rdf:resource="http://purl.org/dc/dcmitype/StillImage" /><dc:title /></cc:Work></rdf:RDF></metadata><sodipodi:namedview
   pagecolor="#ffffff"
   bordercolor="#666666"
   borderopacity="1"
   objecttolerance="10"
   gridtolerance="10"
   guidetolerance="10"
   inkscape:pageopacity="0"
   inkscape:pageshadow="2"
   inkscape:window-width="1920"
   inkscape:window-height="1009"
   id="namedview12"
   showgrid="false"
   inkscape:zoom="0.4794184"
   inkscape:cx="925.07922"
   inkscape:cy="566.31118"
   inkscape:window-x="0"
   inkscape:window-y="0"
   inkscape:window-maximized="1"
   inkscape:current-layer="svg10"
   showguides="true"
   inkscape:guide-bbox="true"
   inkscape:document-rotation="0"
   inkscape:snap-to-guides="true"
   inkscape:pagecheckerboard="0"><sodipodi:guide
     position="0,1000"
     orientation="0,1"
     id="guide16"
     inkscape:label=""
     inkscape:locked="true"
     inkscape:color="rgb(0,0,255)" /><sodipodi:guide
     position="1996.5993,1039.7162"
     orientation="1000,0"
     id="guide18" /><sodipodi:guide
     position="0,200"
     orientation="0,1"
     id="guide20"
     inkscape:label="base"
     inkscape:locked="true"
     inkscape:color="rgb(0,0,255)" /><inkscape:grid
     type="xygrid"
     id="grid24"
     originx="-473.37552"
     originy="-489.69235" /><sodipodi:guide
     position="0,0"
     orientation="0,1"
     id="guide34"
     inkscape:label="bottom"
     inkscape:locked="true"
     inkscape:color="rgb(0,0,255)" /><sodipodi:guide
     position="225.05109,1693.3186"
     orientation="0,1"
     id="guide44"
     inkscape:label=""
     inkscape:locked="false"
     inkscape:color="rgb(0,0,255)" /><sodipodi:guide
     position="0,900"
     orientation="0,1"
     id="guide46"
     inkscape:label=""
     inkscape:locked="true"
     inkscape:color="rgb(0,0,255)" /><sodipodi:guide
     position="1943.6797,900"
     orientation="-1,0"
     id="guide841"
     inkscape:label="width"
     inkscape:locked="false"
     inkscape:color="rgb(0,0,255)" /><sodipodi:guide
     position="0,1000"
     orientation="0,1000"
     id="guide860" /><sodipodi:guide
     position="1000,1000"
     orientation="1000,0"
     id="guide862" /><sodipodi:guide
     position="559.8322,0"
     orientation="0,-1000"
     id="guide864" /><sodipodi:guide
     position="0,0"
     orientation="-1000,0"
     id="guide866" /></sodipodi:namedview>
 <defs
   id="defs4"><inkscape:path-effect
   effect="fillet_chamfer"
   id="path-effect5102"
   is_visible="true"
   lpeversion="1"
   satellites_param="F,0,0,1,0,0,0,1 @ F,0,0,1,0,0,0,1 @ F,0,0,1,0,0,0,1 @ F,0,0,1,0,0,0,1 @ F,0,0,1,0,0,0,1 @ F,0,0,1,0,0,0,1 @ F,0,0,1,0,0,0,1 @ F,0,0,1,0,0,0,1 @ F,0,0,1,0,0,0,1 @ F,0,0,1,0,0,0,1 @ F,0,0,1,0,0,0,1 @ F,0,0,1,0,0,0,1 @ F,0,1,1,0,21.589491,0,1 @ F,0,0,1,0,21.589491,0,1 @ F,0,0,1,0,0,0,1 @ F,0,0,1,0,0,0,1 @ F,0,0,1,0,0,0,1 @ F,0,0,1,0,0,0,1 @ F,0,0,1,0,0,0,1 @ F,0,0,1,0,0,0,1 @ F,0,0,1,0,0,0,1 @ F,0,0,1,0,0,0,1 @ F,0,0,1,0,0,0,1 @ F,0,0,1,0,0,0,1 @ F,0,0,1,0,0,0,1 @ F,0,0,1,0,0,0,1 @ F,0,0,1,0,0,0,1 @ F,0,0,1,0,0,0,1 @ F,0,0,1,0,0,0,1 @ F,0,0,1,0,0,0,1 @ F,0,0,1,0,0,0,1 @ F,0,0,1,0,0,0,1 @ F,0,0,1,0,0,0,1 @ F,0,0,1,0,0,0,1 @ F,0,0,1,0,0,0,1 @ F,0,0,1,0,0,0,1 @ F,0,0,1,0,0,0,1 @ F,0,0,1,0,0,0,1 @ F,0,0,1,0,0,0,1 @ F,0,0,1,0,0,0,1 @ F,0,0,1,0,0,0,1 @ F,0,0,1,0,0,0,1 @ F,0,0,1,0,0,0,1 @ F,0,0,1,0,0,0,1 @ F,0,0,1,0,0,0,1 @ F,0,0,1,0,0,0,1 @ F,0,0,1,0,0,0,1 @ F,0,0,1,0,0,0,1 @ F,0,0,1,0,0,0,1 @ F,0,0,1,0,0,0,1 @ F,0,1,1,0,21.589491,0,1 @ F,0,1,1,0,21.589491,0,1 @ F,0,0,1,0,0,0,1 @ F,0,0,1,0,0,0,1 @ F,0,0,1,0,0,0,1 @ F,0,0,1,0,0,0,1 @ F,0,0,1,0,0,0,1 @ F,0,1,1,0,21.589491,0,1 @ F,0,1,1,0,21.589491,0,1 @ F,0,0,1,0,0,0,1 @ F,0,0,1,0,0,0,1 @ F,0,0,1,0,0,0,1 @ F,0,0,1,0,0,0,1 @ F,0,0,1,0,0,0,1 @ F,0,0,1,0,0,0,1 @ F,0,0,1,0,0,0,1 @ F,0,0,1,0,0,0,1 @ F,0,0,1,0,0,0,1 @ F,0,0,1,0,0,0,1 @ F,0,0,1,0,0,0,1 @ F,0,0,1,0,0,0,1 @ F,0,0,1,0,0,0,1 @ F,0,0,1,0,0,0,1 @ F,0,0,1,0,0,0,1 @ F,0,0,1,0,0,0,1 @ F,0,0,1,0,0,0,1 @ F,0,0,1,0,0,0,1 @ F,0,0,1,0,0,0,1 @ F,0,0,1,0,0,0,1 @ F,0,0,1,0,0,0,1 @ F,0,0,1,0,0,0,1 @ F,0,0,1,0,0,0,1 @ F,0,0,1,0,0,0,1 @ F,0,0,1,0,0,0,1 @ F,0,0,1,0,0,0,1 @ F,0,0,1,0,0,0,1 @ F,0,0,1,0,0,0,1 @ F,0,0,1,0,0,0,1 @ F,0,0,1,0,0,0,1 @ F,0,0,1,0,0,0,1 @ F,0,0,1,0,0,0,1 @ F,0,0,1,0,0,0,1 @ F,0,0,1,0,0,0,1 @ F,0,0,1,0,0,0,1 @ F,0,0,1,0,0,0,1 @ F,0,0,1,0,0,0,1 @ F,0,0,1,0,0,0,1 @ F,0,0,1,0,0,0,1 @ F,0,0,1,0,0,0,1 @ F,0,1,1,0,21.589491,0,1 @ F,0,1,1,0,21.589491,0,1 @ F,0,0,1,0,0,0,1 @ F,0,0,1,0,0,0,1"
   unit="px"
   method="auto"
   mode="F"
   radius="0"
   chamfer_steps="1"
   flexible="false"
   use_knot_distance="true"
   apply_no_radius="true"
   apply_with_radius="true"
   only_selected="false"
   hide_knots="false" /><inkscape:path-effect
   effect="fillet_chamfer"
   id="path-effect880"
   is_visible="true"
   lpeversion="1"
   satellites_param="F,0,0,1,0,0,0,1 @ F,0,0,1,0,0,0,1 @ F,0,0,1,0,0,0,1 @ F,0,0,1,0,0,0,1 @ F,0,0,1,0,0,0,1 @ F,0,0,1,0,0,0,1 @ F,0,0,1,0,0,0,1 @ F,0,0,1,0,0,0,1 @ F,0,0,1,0,0,0,1 @ F,0,0,1,0,0,0,1 @ F,0,0,1,0,0,0,1 @ F,0,0,1,0,0,0,1 @ F,0,0,1,0,0,0,1 @ F,0,0,1,0,0,0,1 @ F,0,0,1,0,0,0,1 @ F,0,0,1,0,0,0,1 @ F,0,0,1,0,0,0,1 @ F,0,0,1,0,0,0,1 @ F,0,0,1,0,0,0,1 @ F,0,0,1,0,0,0,1 @ F,0,0,1,0,0,0,1 @ F,0,0,1,0,0,0,1 @ F,0,0,1,0,0,0,1 @ F,0,0,1,0,0,0,1 @ F,0,0,1,0,0,0,1 @ F,0,0,1,0,0,0,1 @ F,0,0,1,0,0,0,1 @ F,0,0,1,0,0,0,1 @ F,0,0,1,0,0,0,1 @ F,0,1,1,0,16.236282,0,1 @ F,0,1,1,0,16.236282,0,1 @ F,0,0,1,0,0,0,1 @ F,0,0,1,0,0,0,1 @ F,0,0,1,0,0,0,1 @ F,0,0,1,0,0,0,1 @ F,0,0,1,0,0,0,1 @ F,0,0,1,0,0,0,1 @ F,0,0,1,0,0,0,1 @ F,0,0,1,0,0,0,1 @ F,0,0,1,0,0,0,1 @ F,0,0,1,0,0,0,1 @ F,0,0,1,0,0,0,1 @ F,0,0,1,0,0,0,1 @ F,0,0,1,0,0,0,1 @ F,0,0,1,0,0,0,1 @ F,0,0,1,0,0,0,1 @ F,0,0,1,0,0,0,1 @ F,0,0,1,0,0,0,1 @ F,0,0,1,0,0,0,1 @ F,0,0,1,0,0,0,1 @ F,0,0,1,0,0,0,1 @ F,0,0,1,0,0,0,1 @ F,0,0,1,0,0,0,1 @ F,0,0,1,0,0,0,1 @ F,0,0,1,0,0,0,1 @ F,0,0,1,0,0,0,1 @ F,0,0,1,0,0,0,1 @ F,0,0,1,0,0,0,1 @ F,0,0,1,0,0,0,1 @ F,0,0,1,0,0,0,1 @ F,0,0,1,0,0,0,1 @ F,0,0,1,0,0,0,1 @ F,0,0,1,0,0,0,1 @ F,0,0,1,0,0,0,1 @ F,0,0,1,0,0,0,1 @ F,0,0,1,0,0,0,1 @ F,0,0,1,0,0,0,1 @ F,0,0,1,0,0,0,1 @ F,0,0,1,0,0,0,1 @ F,0,0,1,0,0,0,1 @ F,0,0,1,0,0,0,1 @ F,0,0,1,0,0,0,1 @ F,0,0,1,0,0,0,1 @ F,0,0,1,0,0,0,1 @ F,0,0,1,0,0,0,1 @ F,0,1,1,0,16.236282,0,1 @ F,0,1,1,0,16.236282,0,1 @ F,0,0,1,0,0,0,1 @ F,0,0,1,0,0,0,1 @ F,0,0,1,0,0,0,1 @ F,0,0,1,0,0,0,1 @ F,0,0,1,0,0,0,1 @ F,0,0,1,0,16.236282,0,1 @ F,0,1,1,0,16.236282,0,1 @ F,0,0,1,0,0,0,1 @ F,0,0,1,0,0,0,1 @ F,0,0,1,0,0,0,1 @ F,0,0,1,0,0,0,1 @ F,0,0,1,0,0,0,1 @ F,0,0,1,0,0,0,1 @ F,0,0,1,0,0,0,1 @ F,0,0,1,0,0,0,1"
   unit="px"
   method="auto"
   mode="F"
   radius="0"
   chamfer_steps="1"
   flexible="false"
   use_knot_distance="true"
   apply_no_radius="true"
   apply_with_radius="true"
   only_selected="false"
   hide_knots="false" /><inkscape:path-effect
   effect="fillet_chamfer"
   id="path-effect891"
   is_visible="true"
   lpeversion="1"
   satellites_param="F,0,0,1,0,0,0,1 @ F,0,0,1,0,0,0,1 @ F,0,0,1,0,0,0,1 @ F,0,0,1,0,0,0,1 @ F,0,0,1,0,0,0,1 @ F,0,0,1,0,0,0,1 @ F,0,0,1,0,0,0,1 @ F,0,0,1,0,0,0,1 @ F,0,0,1,0,0,0,1 @ F,0,0,1,0,0,0,1 @ F,0,0,1,0,0,0,1 @ F,0,0,1,0,0,0,1 @ F,0,0,1,0,0,0,1 @ F,0,0,1,0,0,0,1 @ F,0,0,1,0,0,0,1 @ F,0,0,1,0,0,0,1 @ F,0,0,1,0,13.43824,0,1 @ F,0,0,1,0,19.374061,0,1 @ F,0,0,1,0,0,0,1 @ F,0,0,1,0,0,0,1 @ F,0,0,1,0,0,0,1 @ F,0,0,1,0,0,0,1 @ F,0,0,1,0,0,0,1 @ F,0,0,1,0,0,0,1 @ F,0,0,1,0,0,0,1 @ F,0,0,1,0,0,0,1 @ F,0,0,1,0,0,0,1 @ F,0,0,1,0,0,0,1 @ F,0,0,1,0,0,0,1 @ F,0,0,1,0,0,0,1 @ F,0,0,1,0,0,0,1 @ F,0,0,1,0,0,0,1 @ F,0,0,1,0,0,0,1 @ F,0,0,1,0,0,0,1 @ F,0,0,1,0,0,0,1 @ F,0,0,1,0,0,0,1 @ F,0,0,1,0,0,0,1 @ F,0,0,1,0,0,0,1 @ F,0,0,1,0,0,0,1 @ F,0,0,1,0,0,0,1 @ F,0,0,1,0,0,0,1 @ F,0,0,1,0,0,0,1 @ F,0,0,1,0,0,0,1 @ F,0,0,1,0,0,0,1 @ F,0,0,1,0,0,0,1 @ F,0,0,1,0,18.098516,0,1 @ F,0,0,1,0,20.829348,0,1 @ F,0,0,1,0,0,0,1 @ F,0,0,1,0,12.402964,0,1 @ F,0,0,1,0,16.882364,0,1 @ F,0,0,1,0,0,0,1 @ F,0,0,1,0,0,0,1 @ F,0,0,1,0,0,0,1 @ F,0,0,1,0,0,0,1 @ F,0,0,1,0,0,0,1 @ F,0,0,1,0,0,0,1 @ F,0,0,1,0,0,0,1 @ F,0,0,1,0,0,0,1"
   unit="px"
   method="auto"
   mode="F"
   radius="0"
   chamfer_steps="1"
   flexible="false"
   use_knot_distance="true"
   apply_no_radius="true"
   apply_with_radius="true"
   only_selected="false"
   hide_knots="false" /><inkscape:path-effect
   effect="fillet_chamfer"
   id="path-effect888"
   is_visible="true"
   lpeversion="1"
   satellites_param="F,0,0,1,0,0,0,1 @ F,0,0,1,0,0,0,1 @ F,0,0,1,0,0,0,1 @ F,0,0,1,0,0,0,1 @ F,0,0,1,0,0,0,1 @ F,0,0,1,0,0,0,1 @ F,0,0,1,0,0,0,1 @ F,0,0,1,0,0,0,1 @ F,0,0,1,0,0,0,1 @ F,0,0,1,0,0,0,1 @ F,0,1,1,0,18.252622,0,1 @ F,0,1,1,0,18.252622,0,1 @ F,0,0,1,0,0,0,1 @ F,0,0,1,0,0,0,1 @ F,0,0,1,0,0,0,1 @ F,0,0,1,0,0,0,1 @ F,0,0,1,0,0,0,1 @ F,0,0,1,0,0,0,1 @ F,0,0,1,0,0,0,1 @ F,0,0,1,0,0,0,1 @ F,0,0,1,0,0,0,1 @ F,0,0,1,0,0,0,1 @ F,0,0,1,0,0,0,1 @ F,0,0,1,0,0,0,1 @ F,0,1,1,0,18.252622,0,1 @ F,0,0,1,0,18.252622,0,1 @ F,0,0,1,0,0,0,1 @ F,0,1,1,0,18.252622,0,1 @ F,0,1,1,0,18.252622,0,1"
   unit="px"
   method="auto"
   mode="F"
   radius="0"
   chamfer_steps="1"
   flexible="false"
   use_knot_distance="true"
   apply_no_radius="true"
   apply_with_radius="true"
   only_selected="false"
   hide_knots="false" /><inkscape:path-effect
   effect="spiro"
   id="path-effect886"
   is_visible="true"
   lpeversion="1" /><inkscape:path-effect
   effect="fillet_chamfer"
   id="path-effect864"
   is_visible="true"
   lpeversion="1"
   satellites_param="F,0,0,1,0,0,0,1 @ F,0,0,1,0,0,0,1 @ F,0,0,1,0,0,0,1 @ F,0,0,1,0,0,0,1 @ F,0,0,1,0,0,0,1 @ F,0,0,1,0,0,0,1 @ F,0,0,1,0,0,0,1 @ F,0,0,1,0,0,0,1 @ F,0,0,1,0,0,0,1 @ F,0,0,1,0,0,0,1 @ F,0,1,1,0,18.252622,0,1 @ F,0,1,1,0,18.252622,0,1 @ F,0,0,1,0,0,0,1 @ F,0,0,1,0,0,0,1 @ F,0,0,1,0,0,0,1 @ F,0,0,1,0,0,0,1 @ F,0,0,1,0,0,0,1 @ F,0,0,1,0,0,0,1 @ F,0,0,1,0,0,0,1 @ F,0,0,1,0,0,0,1 @ F,0,0,1,0,0,0,1 @ F,0,0,1,0,0,0,1 @ F,0,0,1,0,0,0,1 @ F,0,0,1,0,0,0,1 @ F,0,1,1,0,18.252622,0,1 @ F,0,0,1,0,18.252622,0,1 @ F,0,0,1,0,0,0,1 @ F,0,1,1,0,18.252622,0,1 @ F,0,1,1,0,18.252622,0,1"
   unit="px"
   method="auto"
   mode="F"
   radius="0"
   chamfer_steps="1"
   flexible="false"
   use_knot_distance="true"
   apply_no_radius="true"
   apply_with_radius="true"
   only_selected="false"
   hide_knots="false" /><inkscape:path-effect
   effect="fillet_chamfer"
   id="path-effect863"
   is_visible="true"
   lpeversion="1"
   satellites_param="F,0,0,1,0,0,0,1 @ F,0,0,1,0,0,0,1 @ F,0,0,1,0,0,0,1 @ F,0,0,1,0,0,0,1 @ F,0,0,1,0,0,0,1 @ F,0,0,1,0,0,0,1 @ F,0,0,1,0,0,0,1 @ F,0,0,1,0,0,0,1 @ F,0,0,1,0,0,0,1 @ F,0,0,1,0,0,0,1 @ F,0,1,1,0,22.279423,0,1 @ F,0,1,1,0,22.279423,0,1 @ F,0,0,1,0,0,0,1 @ F,0,0,1,0,0,0,1 @ F,0,0,1,0,0,0,1 @ F,0,0,1,0,0,0,1 @ F,0,0,1,0,0,0,1 @ F,0,0,1,0,0,0,1 @ F,0,0,1,0,0,0,1 @ F,0,0,1,0,0,0,1 @ F,0,0,1,0,0,0,1 @ F,0,0,1,0,0,0,1 @ F,0,0,1,0,0,0,1 @ F,0,0,1,0,0,0,1 @ F,0,1,1,0,22.279423,0,1 @ F,0,1,1,0,22.279423,0,1 @ F,0,0,1,0,0,0,1 @ F,0,1,1,0,22.279423,0,1 @ F,0,1,1,0,22.279423,0,1"
   unit="px"
   method="auto"
   mode="F"
   radius="0"
   chamfer_steps="1"
   flexible="false"
   use_knot_distance="true"
   apply_no_radius="true"
   apply_with_radius="true"
   only_selected="true"
   hide_knots="false" /><inkscape:path-effect
   effect="fillet_chamfer"
   id="path-effect861"
   is_visible="true"
   lpeversion="1"
   satellites_param="F,0,0,1,0,0,0,1 @ F,0,0,1,0,0,0,1 @ F,0,0,1,0,0,0,1 @ F,0,0,1,0,0,0,1 @ F,0,0,1,0,0,0,1 @ F,0,0,1,0,0,0,1 @ F,0,0,1,0,0,0,1 @ F,0,0,1,0,0,0,1 @ F,0,0,1,0,0,0,1 @ F,0,0,1,0,0,0,1 @ F,0,0,1,0,18.745288,0,1 @ F,0,0,1,0,22.258793,0,1 @ F,0,0,1,0,0,0,1 @ F,0,0,1,0,0,0,1 @ F,0,0,1,0,0,0,1 @ F,0,0,1,0,0,0,1 @ F,0,0,1,0,0,0,1 @ F,0,0,1,0,0,0,1 @ F,0,0,1,0,0,0,1 @ F,0,0,1,0,0,0,1 @ F,0,0,1,0,0,0,1 @ F,0,0,1,0,0,0,1 @ F,0,0,1,0,44.937544,0,1 @ F,0,0,1,0,24.008986,0,1 @ F,0,0,1,0,0,0,1 @ F,0,0,1,0,20.706957,0,1 @ F,0,0,1,0,19.829215,0,1"
   unit="px"
   method="auto"
   mode="F"
   radius="0"
   chamfer_steps="1"
   flexible="false"
   use_knot_distance="true"
   apply_no_radius="true"
   apply_with_radius="true"
   only_selected="true"
   hide_knots="false" /><inkscape:path-effect
   effect="fillet_chamfer"
   id="path-effect860"
   is_visible="true"
   lpeversion="1"
   satellites_param="F,0,0,1,0,16,0,1 @ F,0,0,1,0,16,0,1 @ F,0,0,1,0,16,0,1 @ F,0,0,1,0,16,0,1 @ F,0,0,1,0,16,0,1 @ F,0,0,1,0,16,0,1 @ F,0,0,1,0,16,0,1 @ F,0,0,1,0,16,0,1 @ F,0,0,1,0,16,0,1 @ F,0,0,1,0,16,0,1 @ F,0,0,1,0,16,0,1 @ F,0,0,1,0,16,0,1 @ F,0,0,1,0,16,0,1 @ F,0,0,1,0,16,0,1 @ F,0,0,1,0,16,0,1 @ F,0,0,1,0,16,0,1 @ F,0,0,1,0,16,0,1 @ F,0,0,1,0,16,0,1 @ F,0,0,1,0,16,0,1 @ F,0,0,1,0,16,0,1 @ F,0,0,1,0,16,0,1 @ F,0,0,1,0,16,0,1 @ F,0,0,1,0,16,0,1 @ F,0,0,1,0,16,0,1 @ F,0,0,1,0,16,0,1 @ F,0,0,1,0,16,0,1 @ F,0,0,1,0,16,0,1"
   unit="px"
   method="bezier"
   mode="F"
   radius="16"
   chamfer_steps="1"
   flexible="false"
   use_knot_distance="true"
   apply_no_radius="true"
   apply_with_radius="true"
   only_selected="false"
   hide_knots="false" /><inkscape:path-effect
   effect="spiro"
   id="path-effect873"
   is_visible="true"
   lpeversion="1" /><inkscape:path-effect
   effect="spiro"
   id="path-effect859"
   is_visible="true"
   lpeversion="1" /><inkscape:path-effect
   effect="spiro"
   id="path-effect862"
   is_visible="true"
   lpeversion="1" /><inkscape:path-effect
   effect="spiro"
   id="path-effect1521"
   is_visible="true"
   lpeversion="1" /><inkscape:path-effect
   effect="spiro"
   id="path-effect858"
   is_visible="true"
   lpeversion="1" /><inkscape:path-effect
   effect="spiro"
   id="path-effect854"
   is_visible="true"
   lpeversion="1" />
  <style
   type="text/css"
   id="style2">
   <![CDATA[
    .fil0 {fill:#EF7F1A;fill-rule:nonzero}
   ]]>
  </style>
 <inkscape:path-effect
   effect="spiro"
   id="path-effect1214"
   is_visible="true"
   lpeversion="1" /><inkscape:path-effect
   effect="spiro"
   id="path-effect1195"
   is_visible="true"
   lpeversion="1" /><inkscape:path-effect
   effect="spiro"
   id="path-effect992"
   is_visible="true"
   lpeversion="1" /><inkscape:path-effect
   effect="spiro"
   id="path-effect287"
   is_visible="true"
   lpeversion="1" /><inkscape:path-effect
   effect="spiro"
   id="path-effect1032"
   is_visible="true"
   lpeversion="1" /><inkscape:path-effect
   effect="spiro"
   id="path-effect1218"
   is_visible="true"
   lpeversion="1" /><inkscape:path-effect
   effect="spiro"
   id="path-effect309"
   is_visible="true"
   lpeversion="1" /><inkscape:path-effect
   effect="spiro"
   id="path-effect1176"
   is_visible="true"
   lpeversion="1" /><inkscape:path-effect
   effect="spiro"
   id="path-effect1026"
   is_visible="true"
   lpeversion="1" /><inkscape:path-effect
   effect="spiro"
   id="path-effect1030"
   is_visible="true"
   lpeversion="1" /></defs>
 
<path
   style="clip-rule:evenodd;display:inline;fill:#613583;fill-rule:nonzero;stroke:none;stroke-width:2.09522px;stroke-linecap:butt;stroke-linejoin:miter;stroke-opacity:1;image-rendering:optimizeQuality;shape-rendering:geometricPrecision;text-rendering:geometricPrecision"
   d="m 1468.7076,793.12018 c -13.7126,-48.20962 -14.1151,-100.13298 -1.1515,-148.54938 16.3941,-61.22872 53.3633,-115.38529 97.6423,-160.74053 44.2789,-45.35525 95.918,-82.74988 147.3334,-119.81983 16.8147,-12.12323 33.8921,-24.48304 46.4974,-40.93943 6.3027,-8.22819 11.4161,-17.44695 14.3529,-27.38688 2.9368,-9.93993 3.643,-20.62372 1.322,-30.72519 -2.1917,-9.53884 -7.0529,-18.39633 -13.6177,-25.65554 -6.5649,-7.2592 -14.8004,-12.93851 -23.7562,-16.88637 -17.9118,-7.89571 -38.3078,-8.78455 -57.6365,-5.69066 -35.2663,5.64496 -67.8094,24.15542 -93.223,49.2497 -25.4137,25.09428 -43.9945,56.52346 -57.097,89.74846 -17.5755,44.56755 -25.5734,92.87146 -23.4319,140.72578 0.533,11.90959 -7.9993,22.02355 -19.9069,22.64177 l -80.5649,4.18282 c -11.9076,0.61822 -18.5212,-8.05858 -15.119,-19.48607 6.9254,-23.26191 12.7824,-46.84194 17.5449,-70.64105 4.4724,-22.34937 7.9906,-45.03764 7.4897,-67.8246 -0.5009,-22.78697 -5.1822,-45.80464 -16.2667,-65.72022 -11.4844,-20.634 -30.1316,-37.60889 -52.5193,-45.12163 -11.1939,-3.75637 -23.2107,-5.13468 -34.9344,-3.73178 -11.7237,1.40289 -23.1353,5.60947 -32.8076,12.38141 -15.4945,10.84821 -25.9754,27.88601 -31.3127,46.03196 -5.3373,18.14594 -5.8603,37.40441 -4.3108,56.25542 5.8792,71.52313 40.5064,137.69249 51.9584,208.53721 6.217,38.45998 5.3731,78.5895 -7.0401,115.51829 -12.4131,36.9288 -37.0745,70.43566 -71.0883,89.43255 -24.2519,13.54478 -52.5121,19.35653 -80.2586,18.03684 -27.7466,-1.31969 -54.9625,-9.61157 -79.5135,-22.60633 C 1008.1901,748.34737 970.66667,704.55024 941.24111,657.42709 906.20536,601.31958 880.91,538.84483 869.76123,473.64313 c -6.13321,-35.86901 -7.9873,-72.33193 -13.0036,-108.37411 -5.0163,-36.04218 -13.42809,-72.23882 -31.51129,-103.8173 -4.5909,-8.01703 -9.86536,-15.7868 -16.8378,-21.84767 -6.97245,-6.06087 -15.82834,-10.32233 -25.06645,-10.40295 -9.02222,-0.0787 -17.75663,3.83241 -24.772,9.50614 -7.01536,5.67374 -12.48215,13.02562 -17.33597,20.63135 -33.43614,52.39297 -39.72898,117.09026 -43.95276,179.0996 -3.42531,50.28703 -6.10134,100.80227 -15.64207,150.29461 -9.54074,49.49235 -26.28894,98.33967 -55.53525,139.39051 -14.44664,20.27765 -32.06685,38.65604 -53.46566,51.38316 -21.3988,12.72713 -46.81565,19.51389 -71.48859,16.17701 -27.41221,-3.70735 -51.91907,-19.43779 -72.00451,-38.45749 C 388.6197,718.85071 363.20471,666.708 348.57022,612.84877 333.93572,558.98955 329.35356,502.98138 325.14117,447.32852 317.79855,350.31984 311.38447,253.24088 305.90013,156.10942 l 56.38918,22.21173 c -31.37565,40.41423 -54.00427,87.58408 -65.88961,137.34832 -16.88843,70.71229 -12.04798,144.51611 -15.93666,217.11312 -1.94434,36.2985 -6.13534,72.67345 -16.21738,107.59786 -10.08205,34.9244 -26.26263,68.47927 -50.24697,95.79434 -23.19475,26.41583 -53.48504,46.54172 -86.8246,57.6892 -26.51358,8.86513 -54.901903,12.03402 -82.725861,9.36283 C 32.58514,802.08793 22.195061,790.37765 21.063866,778.50789 L 9.8526465,660.86722 c -1.1311953,-11.86976 4.9675675,-14.63957 15.2421825,-8.63832 13.628813,7.96038 29.1714,12.66401 44.942839,13.40006 22.963107,1.07169 46.226552,-6.27616 64.407932,-20.3435 21.03805,-16.2776 34.65109,-40.61787 42.66243,-65.98278 8.01133,-25.3649 10.90764,-52.01096 14.05861,-78.42367 7.02174,-58.85901 15.51771,-117.60311 19.04044,-176.77471 4.02506,-67.60921 1.51939,-135.60512 -7.45814,-202.73614 -1.58046,-11.81813 6.41033,-19.53844 18.1183,-17.28136 l 171.66569,33.09397 c 11.70797,2.25708 21.06682,13.75184 20.89495,25.67415 -0.68771,47.70534 -1.47799,95.40921 -2.37083,143.11115 -0.83862,44.80481 -1.76214,89.74867 2.94268,134.31367 4.70482,44.56499 15.22736,89.00621 36.11753,128.65183 7.4114,14.06545 16.27094,27.66749 28.38581,37.96291 12.11487,10.29541 27.87193,17.03892 43.72003,15.77263 8.55797,-0.6838 16.8636,-3.66703 24.17404,-8.16856 7.31044,-4.50154 13.6461,-10.49331 18.95416,-17.24096 10.61613,-13.49531 17.04966,-29.76602 22.47668,-46.05629 28.37116,-85.16167 32.78425,-176.08675 45.23481,-264.98229 5.16459,-36.87456 11.92562,-74.11997 28.30306,-107.55925 8.18873,-16.71964 18.77299,-32.36191 32.03954,-45.42331 13.26655,-13.0614 29.27034,-23.49797 46.94193,-29.35598 23.23413,-7.701951 48.9044,-7.225228 72.23084,0.19245 23.32644,7.41767 44.29419,21.59994 60.78965,39.68431 29.48021,32.31986 44.06283,75.56737 52.31753,118.52684 10.28774,53.53994 11.92883,108.32507 18.50446,162.44645 6.57562,54.12138 18.58844,108.86222 47.3315,155.18931 14.5349,23.42684 33.6441,44.67499 57.9775,57.6352 12.1667,6.4801 25.5432,10.80282 39.2697,12.06901 13.7265,1.26619 27.7995,-0.57203 40.5228,-5.87656 22.895,-9.54525 40.2296,-29.94197 49.459,-52.96607 9.2294,-23.02411 10.9598,-48.49658 8.7652,-73.20437 -4.5401,-51.11472 -25.0773,-99.18687 -41.4209,-147.83059 -16.3437,-48.64372 -28.7076,-101.11692 -16.4389,-150.94468 8.7605,-35.57968 30.2845,-67.95015 59.9684,-89.43332 29.6839,-21.48318 67.3293,-31.821778 103.7793,-28.07204 28.6391,2.94621 56.0463,14.2883 79.9521,30.33174 23.9058,16.04343 44.4619,36.68512 62.5671,59.06995 14.8266,18.33118 28.1094,37.91055 39.6618,58.46294 9.4903,-19.63039 21.1309,-38.22034 34.6464,-55.33026 34.3429,-43.47627 81.3129,-77.28005 134.1872,-93.83078 56.4155,-17.659198 120.5601,-14.660702 171.583,15.19275 25.5114,14.92672 47.3563,36.31911 61.9186,62.04033 14.5622,25.72122 21.6847,55.76245 19.1953,85.21483 -2.173,25.70801 -11.5194,50.50307 -24.9112,72.55491 -13.3917,22.05184 -30.7501,41.48601 -49.6062,59.09482 -37.7123,35.21763 -81.5479,63.45361 -118.7221,99.2387 -57.7788,55.61977 -98.0574,129.16246 -113.8098,207.79969 l 218.0656,-11.57383 c 5.4663,-42.08494 3.6941,-85.10054 -5.2157,-126.59318 -6.349,-29.56693 -16.3129,-58.35422 -29.5771,-85.53032 -5.2293,-10.71382 -0.9316,-22.39066 10.2872,-26.42919 l 114.7014,-41.29003 c 11.2188,-4.03853 22.0957,2.18913 24.0179,13.95649 8.2927,50.76542 12.7691,102.15415 13.3728,153.58898 0.8773,74.74181 -6.4354,149.57693 -21.765,222.73505 z"
   id="path1087-1-75"
   sodipodi:nodetypes="caaaaaccssaaaaaaaaaaaaaaccaaccaaaccaaaaaaaaaaaaaacaaaaccaccscc"
   inkscape:original-d="m 1468.7076,793.12018 c 0,0 -18.3644,-102.11938 -1.1515,-148.54938 43.1568,-116.41145 170.9158,-180.91468 244.9757,-280.56036 23.2537,-31.2872 72.5799,-61.48419 62.1723,-99.0515 -9.4825,-34.22814 -59.832,-53.12778 -95.0104,-48.23257 -67.5938,9.40594 -118.8681,78.43266 -150.32,138.99816 -25.1484,48.42723 -21.7783,162.24816 -21.7783,162.24816 l -123.6859,6.4216 c 0,0 14.8766,-41.88869 23.9864,-91.24651 8.8602,-48.00506 12.2653,-103.07545 -8.777,-133.54482 -23.8045,-34.46917 -82.9249,-55.46599 -120.2613,-36.472 -32.1796,16.37062 -33.9823,66.22031 -35.6235,102.28738 -3.2565,71.56349 56.2546,137.0286 51.9584,208.53721 -4.3847,72.98087 -10.6703,176.75808 -78.1284,204.95084 -92.6936,38.73939 -206.3623,-48.89799 -275.82299,-121.4793 -45.44724,-47.48901 -52.75562,-120.77555 -71.47988,-183.78396 -20.58679,-69.27596 -6.07579,-150.99165 -44.51489,-212.19141 -9.37491,-14.926 -24.28095,-31.94442 -41.90425,-32.25062 -17.25798,-0.29985 -32.43146,15.84438 -42.10797,30.13749 -34.46162,50.90305 -29.2935,119.40178 -43.95276,179.0996 -23.71228,96.56502 -10.36726,211.01358 -71.17732,289.68512 -28.95734,37.46286 -77.60471,67.43928 -124.95425,67.56017 -27.21026,0.0695 -54.43312,-17.68132 -72.00451,-38.45749 -70.36307,-83.19631 -82.90326,-202.99872 -104.00411,-309.89747 -18.8396,-95.44306 -19.24104,-291.2191 -19.24104,-291.2191 l 56.38918,22.21173 c 0,0 -49.89708,89.15409 -65.88961,137.34832 -44.9853,135.5653 11.86897,313.19829 -82.40101,420.50532 C 169.71864,786.57855 23.112076,800 23.112076,800 L 7.8044363,639.37511 c 0,0 91.1758747,28.89062 126.6411637,5.91035 43.4009,-28.12227 44.38869,-94.18282 56.72104,-144.40645 14.1328,-57.55598 17.25374,-117.53592 19.04044,-176.77471 C 212.46163,249.3543 199.66809,100 199.66809,100 l 214.06399,41.26757 c 0,0 -6.27484,109.90989 -2.67503,164.6985 5.80992,88.42622 -6.41779,186.90827 39.06021,262.9655 15.38335,25.72706 42.26226,56.54444 72.10584,53.73554 32.1951,-3.03022 51.36848,-42.4308 65.60488,-71.46581 39.4483,-80.45446 14.47104,-180.82363 45.23481,-264.98229 24.21125,-66.2333 41.63583,-156.58425 107.28453,-182.33854 43.09228,-16.905305 98.31708,9.24332 133.02049,39.87676 32.37703,28.57989 39.14201,77.39914 52.31753,118.52684 32.98838,102.97397 -1.3665,232.92625 65.83596,317.63576 31.4558,39.65036 90.266,81.29162 137.77,63.82765 43.4742,-15.98252 52.6548,-80.18751 58.2242,-126.17044 12.1975,-100.70607 -95.3485,-204.51454 -57.8598,-298.77527 24.8277,-62.42605 96.5982,-115.4166 163.7477,-117.50536 56.0526,-1.743578 102.1607,50.46428 142.5192,89.40169 16.9473,16.35056 39.6618,58.46294 39.6618,58.46294 0,0 19.6548,-39.55733 34.6464,-55.33026 37.6014,-39.56098 79.6179,-92.76963 134.1872,-93.83078 100.1171,-1.946876 237.6042,63.45581 252.6969,162.44791 15.1266,99.21449 -136.6572,147.99833 -193.2395,230.88843 -44.5251,65.22695 -113.8098,207.79969 -113.8098,207.79969 l 218.0656,-11.57383 c 0,0 3.2362,-85.214 -5.2157,-126.59318 -7.4639,-36.54229 -39.6033,-104.64711 -39.6033,-104.64711 l 155.3282,-55.91483 c 54.5421,-69.64976 41.2459,49.31495 17.0773,174.85787 -20.9313,108.72725 -21.5284,222.38851 -21.765,222.73505 -15.7908,19.53482 -445.2451,-6.87982 -445.2451,-6.87982 z"
   inkscape:path-effect="#path-effect1030;#path-effect5102" /></svg>
