<?xml version="1.0" encoding="UTF-8" standalone="no"?>
<svg
   xmlns:dc="http://purl.org/dc/elements/1.1/"
   xmlns:cc="http://creativecommons.org/ns#"
   xmlns:rdf="http://www.w3.org/1999/02/22-rdf-syntax-ns#"
   xmlns:svg="http://www.w3.org/2000/svg"
   xmlns="http://www.w3.org/2000/svg"
   xmlns:sodipodi="http://sodipodi.sourceforge.net/DTD/sodipodi-0.dtd"
   xmlns:inkscape="http://www.inkscape.org/namespaces/inkscape"
   xml:space="preserve"
   width="1000"
   height="1000"
   version="1.1"
   style="clip-rule:evenodd;fill-rule:evenodd;image-rendering:optimizeQuality;shape-rendering:geometricPrecision;text-rendering:geometricPrecision"
   viewBox="0 0 1000 1000"
   id="svg10"
   sodipodi:docname="ർ.svg"
   inkscape:version="1.0.2 (e86c870879, 2021-01-15)"><metadata
   id="metadata14"><rdf:RDF><cc:Work
       rdf:about=""><dc:format>image/svg+xml</dc:format><dc:type
         rdf:resource="http://purl.org/dc/dcmitype/StillImage" /><dc:title /></cc:Work></rdf:RDF></metadata><sodipodi:namedview
   pagecolor="#ffffff"
   bordercolor="#666666"
   borderopacity="1"
   objecttolerance="10"
   gridtolerance="10"
   guidetolerance="10"
   inkscape:pageopacity="0"
   inkscape:pageshadow="2"
   inkscape:window-width="1920"
   inkscape:window-height="1007"
   id="namedview12"
   showgrid="false"
   inkscape:zoom="0.84890884"
   inkscape:cx="269.35029"
   inkscape:cy="406.01258"
   inkscape:window-x="1920"
   inkscape:window-y="0"
   inkscape:window-maximized="1"
   inkscape:current-layer="svg10"
   showguides="true"
   inkscape:guide-bbox="true"
   inkscape:document-rotation="0"><sodipodi:guide
   position="0,1000"
   orientation="0,1"
   id="guide16"
   inkscape:label=""
   inkscape:locked="true"
   inkscape:color="rgb(0,0,255)" /><sodipodi:guide
   position="1763.3122,2036.1693"
   orientation="1000,0"
   id="guide18" /><sodipodi:guide
   position="0,200"
   orientation="0,1"
   id="guide20"
   inkscape:label="base"
   inkscape:locked="true"
   inkscape:color="rgb(0,0,255)" /><inkscape:grid
   type="xygrid"
   id="grid24"
   originx="-473.37552"
   originy="-489.69235" /><sodipodi:guide
   position="0,0"
   orientation="0,1"
   id="guide34"
   inkscape:label="bottom"
   inkscape:locked="true"
   inkscape:color="rgb(0,0,255)" /><sodipodi:guide
   position="225.05109,1693.3186"
   orientation="0,1"
   id="guide44"
   inkscape:label=""
   inkscape:locked="false"
   inkscape:color="rgb(0,0,255)" /><sodipodi:guide
   position="0,900"
   orientation="0,1"
   id="guide46"
   inkscape:label=""
   inkscape:locked="true"
   inkscape:color="rgb(0,0,255)" /><sodipodi:guide
   position="446.16472,520.33791"
   orientation="1,0"
   id="guide841"
   inkscape:label="width" />    </sodipodi:namedview>
 <defs
   id="defs4"><inkscape:path-effect
   effect="fillet_chamfer"
   id="path-effect849"
   is_visible="true"
   lpeversion="1"
   satellites_param="F,0,0,1,0,0,0,1 @ F,0,0,1,0,0,0,1 @ F,0,0,1,0,0,0,1 @ F,0,0,1,0,0,0,1 @ F,0,0,1,0,0,0,1 @ F,0,0,1,0,0,0,1 @ F,0,0,1,0,0,0,1 @ F,0,0,1,0,0,0,1 @ F,0,1,1,0,0,0,1 @ F,0,0,1,0,0,0,1 @ F,0,0,1,0,0,0,1 @ F,0,0,1,0,0,0,1 @ F,0,0,1,0,0,0,1 @ F,0,0,1,0,0,0,1 @ F,0,1,1,0,31.024117,0,1 @ F,0,1,1,0,31.024117,0,1 @ F,0,0,1,0,0,0,1 @ F,0,0,1,0,0,0,1 @ F,0,0,1,0,0,0,1 @ F,0,0,1,0,0,0,1 @ F,0,0,1,0,0,0,1 @ F,0,0,1,0,0,0,1 @ F,0,1,1,0,0,0,1 @ F,0,0,1,0,0,0,1 @ F,0,0,1,0,0,0,1 @ F,0,0,1,0,0,0,1 @ F,0,0,1,0,0,0,1 @ F,0,0,1,0,0,0,1 @ F,0,0,1,0,0,0,1 @ F,0,0,1,0,0,0,1 @ F,0,0,1,0,0,0,1 @ F,0,0,1,0,0,0,1 @ F,0,0,1,0,0,0,1 @ F,0,0,1,0,0,0,1 @ F,0,0,1,0,0,0,1 @ F,0,0,1,0,0,0,1 @ F,0,0,1,0,0,0,1 @ F,0,1,1,0,31.024117,0,1 @ F,0,1,1,0,31.024117,0,1 @ F,0,0,1,0,0,0,1 @ F,0,1,1,0,0,0,1 @ F,0,0,1,0,0,0,1 @ F,0,0,1,0,0,0,1 @ F,0,0,1,0,0,0,1 @ F,0,0,1,0,0,0,1 @ F,0,0,1,0,0,0,1 @ F,0,0,1,0,0,0,1 @ F,0,0,1,0,0,0,1"
   unit="px"
   method="auto"
   mode="F"
   radius="0"
   chamfer_steps="1"
   flexible="false"
   use_knot_distance="true"
   apply_no_radius="true"
   apply_with_radius="true"
   only_selected="true"
   hide_knots="false" /><inkscape:path-effect
   effect="fillet_chamfer"
   id="path-effect848"
   is_visible="true"
   lpeversion="1"
   satellites_param="F,0,0,1,0,0,0,1 @ F,0,0,1,0,0,0,1 @ F,0,0,1,0,0,0,1 @ F,0,0,1,0,0,0,1 @ F,0,0,1,0,0,0,1 @ F,0,0,1,0,0,0,1 @ F,0,0,1,0,0,0,1 @ F,0,0,1,0,0,0,1 @ F,0,0,1,0,0,0,1 @ F,0,0,1,0,0,0,1 @ F,0,0,1,0,0,0,1 @ F,0,0,1,0,0,0,1 @ F,0,0,1,0,0,0,1 @ F,0,0,1,0,27.687142,0,1 @ F,0,0,1,0,22.816902,0,1 @ F,0,0,1,0,0,0,1 @ F,0,0,1,0,0,0,1 @ F,0,0,1,0,0,0,1 @ F,0,0,1,0,0,0,1 @ F,0,0,1,0,0,0,1 @ F,0,0,1,0,0,0,1 @ F,0,0,1,0,0,0,1 @ F,0,0,1,0,0,0,1 @ F,0,0,1,0,0,0,1 @ F,0,0,1,0,0,0,1 @ F,0,0,1,0,0,0,1 @ F,0,0,1,0,0,0,1 @ F,0,0,1,0,0,0,1 @ F,0,0,1,0,0,0,1 @ F,0,0,1,0,0,0,1 @ F,0,0,1,0,0,0,1 @ F,0,0,1,0,0,0,1 @ F,0,0,1,0,0,0,1 @ F,0,0,1,0,0,0,1 @ F,0,0,1,0,0,0,1 @ F,0,0,1,0,0,0,1 @ F,0,0,1,0,69.197104,0,1 @ F,0,0,1,0,39.507908,0,1 @ F,0,0,1,0,0,0,1 @ F,0,0,1,0,0,0,1 @ F,0,0,1,0,0,0,1 @ F,0,0,1,0,0,0,1 @ F,0,0,1,0,0,0,1 @ F,0,0,1,0,0,0,1 @ F,0,0,1,0,0,0,1 @ F,0,0,1,0,0,0,1"
   unit="px"
   method="auto"
   mode="F"
   radius="0"
   chamfer_steps="1"
   flexible="false"
   use_knot_distance="true"
   apply_no_radius="true"
   apply_with_radius="true"
   only_selected="true"
   hide_knots="false" /><inkscape:path-effect
   effect="spiro"
   id="path-effect851"
   is_visible="true"
   lpeversion="1" />
  <style
   type="text/css"
   id="style2">
   <![CDATA[
    .fil0 {fill:#EF7F1A;fill-rule:nonzero}
   ]]>
  </style>
 <inkscape:path-effect
   effect="spiro"
   id="path-effect1214"
   is_visible="true"
   lpeversion="1" /><inkscape:path-effect
   effect="spiro"
   id="path-effect1195"
   is_visible="true"
   lpeversion="1" /><inkscape:path-effect
   effect="spiro"
   id="path-effect992"
   is_visible="true"
   lpeversion="1" /><inkscape:path-effect
   effect="spiro"
   id="path-effect1060"
   is_visible="true"
   lpeversion="1" /><inkscape:path-effect
   effect="spiro"
   id="path-effect1047"
   is_visible="true"
   lpeversion="1" /><inkscape:path-effect
   effect="spiro"
   id="path-effect1085"
   is_visible="true"
   lpeversion="1" /><inkscape:path-effect
   effect="spiro"
   id="path-effect1286"
   is_visible="true"
   lpeversion="1" /><inkscape:path-effect
   effect="spiro"
   id="path-effect1305"
   is_visible="true"
   lpeversion="1" /></defs>
 
<path
   id="path1210-6"
   style="display:inline;fill:#1a1a1a;fill-rule:nonzero;stroke:none;stroke-width:2.10056px;stroke-linecap:butt;stroke-linejoin:miter;stroke-opacity:1"
   d="m 437.91228,502.61653 c 7.58725,76.23193 -1.35397,156.61541 -41.30755,221.98042 -11.94967,19.54994 -26.69508,37.6674 -45.11703,51.29188 -18.42196,13.62447 -40.73063,22.56887 -63.64132,22.87672 -18.54703,0.24922 -37.00255,-5.17499 -52.98915,-14.58155 -15.98659,-9.40655 -29.53958,-22.70396 -40.08992,-37.95993 -21.10069,-30.51195 -29.94426,-68.01807 -32.58806,-105.02116 -6.31555,-88.39348 20.73677,-176.99817 65.12634,-253.69798 26.9724,-46.60505 60.13934,-89.26484 91.25284,-133.21358 11.2134,-15.83925 22.21679,-31.9413 30.61069,-49.43886 8.3939,-17.49756 14.13826,-36.55264 14.25431,-55.95905 0.14299,-23.91184 -8.42738,-47.54751 -22.6545,-66.766919 C 326.54181,62.907113 306.8564,48.020549 285.09421,38.110763 251.88707,22.989321 214.46711,19.363101 178.01511,20.982858 139.27564,22.70426 100.8005,30.158751 64.201563,42.969292 48.033628,48.628473 34.336655,40.501472 33.08597,23.413032 l -5.632238,-76.954789 c -1.250685,-17.08844 11.588402,-29.853129 28.70962,-29.212952 15.58538,0.582752 31.186903,0.73381 46.780638,0.452505 53.52701,-0.965608 107.59498,-6.982721 160.25053,2.685084 49.8924,9.160477 98.14785,33.468801 129.68778,73.1978661 24.43643,30.7811899 37.85953,69.5941869 40.6496,108.7966939 2.79007,39.2025 -4.72145,78.75868 -18.87507,115.42332 -31.47478,81.53469 -93.84874,146.99141 -136.06865,223.51622 -26.11627,47.33649 -44.5758,99.64591 -47.58872,153.62484 -1.09984,19.70455 -0.0344,40.00873 7.66505,58.18007 3.84971,9.08567 9.35549,17.53053 16.53794,24.29677 7.18245,6.76625 16.07605,11.81147 25.71223,13.936 12.33487,2.71952 25.52214,0.52833 36.79402,-5.17163 11.27189,-5.69995 20.67028,-14.76451 27.64241,-25.29704 13.94425,-21.06507 18.09038,-47.08664 19.37559,-72.31614 1.82586,-35.84276 -1.43515,-71.81817 -7.60942,-107.17232 -10.91732,-62.51308 -31.99021,-125.19908 -73.98417,-172.77618 -17.4556,-19.77633 -38.67984,-36.81946 -63.41911,-45.97203 -24.73928,-9.15257 -53.25712,-9.78772 -76.97974,1.74652 -18.44641,8.96887 -33.04983,24.73123 -42.993714,42.67085 -9.943881,17.93962 -15.498365,38.01591 -18.93924,58.23647 -8.434124,49.56376 -4.589779,100.34935 0.977706,150.31638 12.139884,108.95296 33.919498,220.83836 96.871898,310.58868 10.3749,14.79134 21.79358,28.84999 34.13814,42.04213 11.70393,12.50753 8.19614,21.90448 -8.93728,22.06265 l -165.48302,1.52769 c -17.133416,0.15817 -25.965129,-12.66935 -20.916268,-29.03954 8.715261,-28.25794 14.7912,-57.33023 18.105919,-86.71547 7.284361,-64.57642 1.244034,-129.84958 -5.685878,-194.465 C 20.979372,498.69976 10.622574,415.91984 3.7803974,332.80455 1.28568,302.49999 -0.74023894,272.00255 1.9920205,241.71848 4.7188883,211.49417 12.378753,181.29754 27.992574,155.27537 42.289245,131.44838 63.795859,111.20102 90.12373,102.31488 c 27.40363,-9.249231 57.65842,-5.610275 85.29294,2.92441 46.56069,14.37987 88.37189,42.21278 122.56769,76.93058 34.1958,34.71781 61.0291,76.18345 82.43025,119.96323 30.69342,62.78874 50.57589,130.93776 57.49767,200.48343 z"
   sodipodi:nodetypes="aaaaaaaaaccaasaaaaaaaaaaaccsasaaaaaa"
   inkscape:original-d="m 437.91228,502.61653 c 3.58558,75.17824 -0.1789,158.94821 -41.30755,221.98042 -23.97887,36.74912 -65.36755,80.70485 -108.75835,74.1686 -66.4304,-10.00685 -111.59795,-91.87251 -125.66713,-157.56264 -18.28452,-85.37186 29.05279,-174.19089 65.12634,-253.69798 22.23867,-49.01464 65.3767,-86.01804 91.25284,-133.21358 18.35683,-33.48106 48.92389,-67.43109 44.865,-105.39791 C 358.61591,103.924 323.48423,62.018283 285.09421,38.110763 254.41087,19.002606 214.13899,19.696802 178.01511,20.982858 129.20748,22.720472 35.350535,54.354389 35.350535,54.354389 L 25.189167,-84.483114 c 0,0 51.832858,1.600223 77.754823,2.18091 53.41094,1.196475 108.69528,-11.322656 160.25053,2.685084 47.90296,13.015401 98.89884,39.144573 129.68778,73.1978661 50.3609,55.7003469 38.52904,151.0214139 21.77453,224.2200139 -19.46178,85.02635 -100.2137,144.00104 -136.06865,223.51622 -22.03658,48.87033 -52.33568,100.22647 -47.58872,153.62484 3.20448,36.04711 13.91839,92.68577 49.91522,96.41284 43.97298,4.55291 70.46949,-60.63829 83.81202,-102.78481 10.80911,-34.14394 0.82481,-72.36558 -7.60942,-107.17232 -14.75414,-60.88797 -27.53725,-130.732 -73.98417,-172.77618 -36.3765,-32.92835 -94.43593,-61.39921 -140.39885,-44.22551 -36.9695,13.81338 -51.330651,62.89226 -61.932954,100.90732 -13.460867,48.26456 -6.729036,100.80608 0.977706,150.31638 16.680141,107.15796 43.714618,216.06166 96.871898,310.58868 13.89646,24.71141 35.1062,44.8076 56.22366,63.81839 L 7.3459551,892.12708 C 28.252267,860.25297 32.239702,815.75436 35.558401,776.08568 40.980011,711.28073 34.20491,646.32517 29.872523,581.62068 24.30126,498.4135 7.5687008,415.8264 3.7803974,332.80455 2.3961451,302.46823 -2.1334591,271.80484 1.9920205,241.71848 6.0796919,211.90786 11.539459,180.46817 27.992574,155.27537 42.872954,132.49072 64.430387,111.2825 90.12373,102.31488 c 26.85874,-9.374362 59.08817,-8.147208 85.29294,2.92441 87.27595,36.87443 156.0883,115.74789 204.99794,196.89381 35.88845,59.54248 54.18563,131.04052 57.49767,200.48343 z"
   inkscape:path-effect="#path-effect1305;#path-effect849" /></svg>
