<?xml version="1.0" encoding="UTF-8" standalone="no"?>
<svg
   xmlns:dc="http://purl.org/dc/elements/1.1/"
   xmlns:cc="http://creativecommons.org/ns#"
   xmlns:rdf="http://www.w3.org/1999/02/22-rdf-syntax-ns#"
   xmlns:svg="http://www.w3.org/2000/svg"
   xmlns="http://www.w3.org/2000/svg"
   xmlns:sodipodi="http://sodipodi.sourceforge.net/DTD/sodipodi-0.dtd"
   xmlns:inkscape="http://www.inkscape.org/namespaces/inkscape"
   xml:space="preserve"
   width="1000"
   height="1000"
   version="1.1"
   style="clip-rule:evenodd;fill-rule:evenodd;image-rendering:optimizeQuality;shape-rendering:geometricPrecision;text-rendering:geometricPrecision"
   viewBox="0 0 1000 1000"
   id="svg10"
   sodipodi:docname="ർ.svg"
   inkscape:version="1.0.1 (3bc2e813f5, 2020-09-07)"><metadata
   id="metadata14"><rdf:RDF><cc:Work
       rdf:about=""><dc:format>image/svg+xml</dc:format><dc:type
         rdf:resource="http://purl.org/dc/dcmitype/StillImage" /><dc:title /></cc:Work></rdf:RDF></metadata><sodipodi:namedview
   pagecolor="#ffffff"
   bordercolor="#666666"
   borderopacity="1"
   objecttolerance="10"
   gridtolerance="10"
   guidetolerance="10"
   inkscape:pageopacity="0"
   inkscape:pageshadow="2"
   inkscape:window-width="1920"
   inkscape:window-height="1015"
   id="namedview12"
   showgrid="false"
   inkscape:zoom="0.84890884"
   inkscape:cx="127.99236"
   inkscape:cy="217.53534"
   inkscape:window-x="1920"
   inkscape:window-y="0"
   inkscape:window-maximized="1"
   inkscape:current-layer="svg10"
   showguides="true"
   inkscape:guide-bbox="true"
   inkscape:document-rotation="0"><sodipodi:guide
   position="0,1000"
   orientation="0,1"
   id="guide16"
   inkscape:label=""
   inkscape:locked="true"
   inkscape:color="rgb(0,0,255)" /><sodipodi:guide
   position="1763.3122,2036.1693"
   orientation="1000,0"
   id="guide18" /><sodipodi:guide
   position="0,200"
   orientation="0,1"
   id="guide20"
   inkscape:label="base"
   inkscape:locked="true"
   inkscape:color="rgb(0,0,255)" /><inkscape:grid
   type="xygrid"
   id="grid24"
   originx="-473.37552"
   originy="-489.69235" /><sodipodi:guide
   position="0,0"
   orientation="0,1"
   id="guide34"
   inkscape:label="bottom"
   inkscape:locked="true"
   inkscape:color="rgb(0,0,255)" /><sodipodi:guide
   position="225.05109,1693.3186"
   orientation="0,1"
   id="guide44"
   inkscape:label=""
   inkscape:locked="false"
   inkscape:color="rgb(0,0,255)" /><sodipodi:guide
   position="0,900"
   orientation="0,1"
   id="guide46"
   inkscape:label=""
   inkscape:locked="true"
   inkscape:color="rgb(0,0,255)" /><sodipodi:guide
   position="438.56075,524.18228"
   orientation="1,0"
   id="guide841"
   inkscape:label="width" />    </sodipodi:namedview>
 <defs
   id="defs4"><inkscape:path-effect
   effect="spiro"
   id="path-effect851"
   is_visible="true"
   lpeversion="1" />
  <style
   type="text/css"
   id="style2">
   <![CDATA[
    .fil0 {fill:#EF7F1A;fill-rule:nonzero}
   ]]>
  </style>
 <inkscape:path-effect
   effect="spiro"
   id="path-effect1214"
   is_visible="true"
   lpeversion="1" /><inkscape:path-effect
   effect="spiro"
   id="path-effect1195"
   is_visible="true"
   lpeversion="1" /><inkscape:path-effect
   effect="spiro"
   id="path-effect992"
   is_visible="true"
   lpeversion="1" /><inkscape:path-effect
   effect="spiro"
   id="path-effect1060"
   is_visible="true"
   lpeversion="1" /><inkscape:path-effect
   effect="spiro"
   id="path-effect1047"
   is_visible="true"
   lpeversion="1" /><inkscape:path-effect
   effect="spiro"
   id="path-effect1085"
   is_visible="true"
   lpeversion="1" /><inkscape:path-effect
   effect="spiro"
   id="path-effect1286"
   is_visible="true"
   lpeversion="1" /><inkscape:path-effect
   effect="spiro"
   id="path-effect1305"
   is_visible="true"
   lpeversion="1" /></defs>
 
<path
   id="path1210-6"
   style="display:inline;fill:#1a1a1a;fill-rule:nonzero;stroke:none;stroke-width:2.10056px;stroke-linecap:butt;stroke-linejoin:miter;stroke-opacity:1"
   d="m 437.91228,502.61653 c 7.22838,76.17192 -2.55936,156.00324 -41.30755,221.98042 -11.67988,19.88752 -26.07494,38.52069 -44.50713,52.38386 -18.43219,13.86317 -41.20574,22.70085 -64.25122,21.78474 -16.29088,-0.6476 -32.24391,-6.14279 -45.982,-14.92215 -13.73809,-8.77935 -25.29806,-20.7696 -34.34261,-34.33457 -18.08911,-27.12993 -25.94626,-59.87578 -29.34252,-92.30592 -3.93407,-37.56557 -2.29459,-75.74902 5.35044,-112.73824 10.39031,-50.2718 31.78458,-97.92837 59.7759,-140.95974 26.23559,-40.33227 58.22471,-76.77105 83.19266,-117.90011 24.96795,-41.12906 42.94596,-88.97514 36.92518,-136.71138 C 357.52873,102.1569 327.29582,59.041009 285.09421,38.110763 252.34194,21.866999 214.51587,18.917587 178.01511,20.982858 129.00972,23.75566 80.501218,35.102577 35.350535,54.354389 L 25.189167,-84.483114 c 25.866468,1.920099 51.821395,2.648097 77.754823,2.18091 53.5269,-0.96428 107.59414,-6.977373 160.25053,2.685084 49.89477,9.155698 98.16147,33.456125 129.68778,73.1978661 24.42112,30.7850109 37.81245,69.6017519 40.59049,108.7985739 2.77804,39.19682 -4.723,78.74043 -18.81596,115.42144 -31.34633,81.58791 -93.37362,147.25145 -136.06865,223.51622 -21.02732,37.56043 -37.37058,77.80948 -47.58872,119.62484 -6.25012,25.57715 -10.16549,52.66159 -3.21373,78.05702 3.47588,12.69771 9.71501,24.75806 18.84796,34.23977 9.13296,9.48171 21.2461,16.2707 34.28099,18.11605 12.32319,1.7446 25.10057,-0.97465 36.07796,-6.83994 10.97739,-5.86529 20.19046,-14.77048 27.1732,-25.07321 13.96546,-20.60545 18.8823,-46.03618 20.56086,-70.87166 2.42123,-35.82365 -1.23209,-71.83783 -7.60942,-107.17232 -11.26755,-62.42946 -32.09734,-125.13283 -73.98417,-172.77618 -17.42512,-19.81986 -38.646,-36.89775 -63.39664,-46.05567 -24.75064,-9.15791 -53.29457,-9.76334 -77.00221,1.83016 -18.41488,9.00524 -32.96332,24.79615 -42.885949,42.73335 -9.922633,17.93721 -15.493491,37.98549 -19.047005,58.17397 -8.720997,49.54635 -5.702503,100.45385 0.977706,150.31638 14.813954,110.57457 48.654368,220.80323 114.871898,310.58868 16.84862,22.84532 35.68393,44.22492 56.22366,63.81839 L 7.3459551,892.12708 C 20.761721,854.57145 30.234513,815.60864 35.558401,776.08568 55.393861,628.83311 17.50824,480.75153 3.7803974,332.80455 0.97052012,302.52209 -0.825168,272.00026 1.9920205,241.71848 4.8027875,211.50572 12.399519,181.3055 27.992574,155.27537 42.272771,131.43685 63.793043,111.19712 90.12373,102.31488 c 27.40503,-9.244651 57.65939,-5.61295 85.29294,2.92441 46.55491,14.3831 88.34533,42.24197 122.52713,76.96714 34.18179,34.72517 61.01171,76.18036 82.47081,119.92667 30.78495,62.75788 50.89396,130.89424 57.49767,200.48343 z"
   sodipodi:nodetypes="aaacaaaaaccaasaaaaaaaaaaaccaaaaaaaa"
   inkscape:original-d="m 437.91228,502.61653 c 3.58558,75.17824 -0.1789,158.94821 -41.30755,221.98042 -23.97887,36.74912 -65.41484,81.01147 -108.75835,74.1686 -58.96048,-9.30841 -101.55809,-78.23195 -109.66713,-141.56264 -4.44138,-37.47677 -3.01571,-76.05854 5.35044,-112.73824 11.34934,-49.75891 38.92117,-94.37824 59.7759,-140.95974 C 281.65106,317.85582 371.60698,242.37699 363.42343,148.89344 359.47945,103.84005 323.48423,62.018283 285.09421,38.110763 254.41087,19.002606 214.13899,19.696802 178.01511,20.982858 129.20748,22.720472 35.350535,54.354389 35.350535,54.354389 L 25.189167,-84.483114 c 0,0 51.832858,1.600223 77.754823,2.18091 53.41094,1.196475 108.69528,-11.322656 160.25053,2.685084 47.90296,13.015401 98.89884,39.144573 129.68778,73.1978661 50.3609,55.7003469 38.52904,151.0214139 21.77453,224.2200139 -19.46178,85.02635 -97.1319,145.46386 -136.06865,223.51622 -19.15669,38.40136 -47.30813,76.71139 -47.58872,119.62484 -0.30433,46.54532 3.95796,123.03111 49.91522,130.41284 43.64859,7.01091 70.46949,-60.63829 83.81202,-102.78481 10.80911,-34.14394 0.82481,-72.36558 -7.60942,-107.17232 -14.75414,-60.88797 -27.53725,-130.732 -73.98417,-172.77618 -36.3765,-32.92835 -94.43593,-61.39921 -140.39885,-44.22551 -36.9695,13.81338 -51.330651,62.89226 -61.932954,100.90732 -13.460867,48.26456 -8.011429,101.02277 0.977706,150.31638 19.802878,108.59276 58.287138,215.81153 114.871898,310.58868 14.53315,24.34241 35.1062,44.8076 56.22366,63.81839 L 7.3459551,892.12708 C 28.252267,860.25297 32.239764,815.75437 35.558401,776.08568 47.908678,628.4618 10.533009,480.79014 3.7803974,332.80455 2.3961456,302.46823 -2.1334591,271.80484 1.9920205,241.71848 6.0796919,211.90786 11.539459,180.46817 27.992574,155.27537 42.872954,132.49072 64.430387,111.2825 90.12373,102.31488 c 26.85874,-9.374362 59.08817,-8.147208 85.29294,2.92441 87.27595,36.87443 156.0883,115.74789 204.99794,196.89381 35.88845,59.54248 54.18563,131.04052 57.49767,200.48343 z"
   inkscape:path-effect="#path-effect1305" /></svg>
