<?xml version="1.0" encoding="UTF-8" standalone="no"?>
<svg
   xmlns:dc="http://purl.org/dc/elements/1.1/"
   xmlns:cc="http://creativecommons.org/ns#"
   xmlns:rdf="http://www.w3.org/1999/02/22-rdf-syntax-ns#"
   xmlns:svg="http://www.w3.org/2000/svg"
   xmlns="http://www.w3.org/2000/svg"
   xmlns:sodipodi="http://sodipodi.sourceforge.net/DTD/sodipodi-0.dtd"
   xmlns:inkscape="http://www.inkscape.org/namespaces/inkscape"
   xml:space="preserve"
   width="1000"
   height="1000"
   version="1.1"
   style="clip-rule:evenodd;fill-rule:evenodd;image-rendering:optimizeQuality;shape-rendering:geometricPrecision;text-rendering:geometricPrecision"
   viewBox="0 0 1000 1000"
   id="svg10"
   sodipodi:docname="ർ.svg"
   inkscape:version="1.0.2 (e86c870879, 2021-01-15)"><metadata
   id="metadata14"><rdf:RDF><cc:Work
       rdf:about=""><dc:format>image/svg+xml</dc:format><dc:type
         rdf:resource="http://purl.org/dc/dcmitype/StillImage" /><dc:title /></cc:Work></rdf:RDF></metadata><sodipodi:namedview
   pagecolor="#ffffff"
   bordercolor="#666666"
   borderopacity="1"
   objecttolerance="10"
   gridtolerance="10"
   guidetolerance="10"
   inkscape:pageopacity="0"
   inkscape:pageshadow="2"
   inkscape:window-width="1920"
   inkscape:window-height="1007"
   id="namedview12"
   showgrid="false"
   inkscape:zoom="0.84890884"
   inkscape:cx="269.35029"
   inkscape:cy="311.77396"
   inkscape:window-x="1920"
   inkscape:window-y="0"
   inkscape:window-maximized="1"
   inkscape:current-layer="svg10"
   showguides="true"
   inkscape:guide-bbox="true"
   inkscape:document-rotation="0"><sodipodi:guide
   position="0,1000"
   orientation="0,1"
   id="guide16"
   inkscape:label=""
   inkscape:locked="true"
   inkscape:color="rgb(0,0,255)" /><sodipodi:guide
   position="1763.3122,2036.1693"
   orientation="1000,0"
   id="guide18" /><sodipodi:guide
   position="0,200"
   orientation="0,1"
   id="guide20"
   inkscape:label="base"
   inkscape:locked="true"
   inkscape:color="rgb(0,0,255)" /><inkscape:grid
   type="xygrid"
   id="grid24"
   originx="-473.37552"
   originy="-489.69235" /><sodipodi:guide
   position="0,0"
   orientation="0,1"
   id="guide34"
   inkscape:label="bottom"
   inkscape:locked="true"
   inkscape:color="rgb(0,0,255)" /><sodipodi:guide
   position="225.05109,1693.3186"
   orientation="0,1"
   id="guide44"
   inkscape:label=""
   inkscape:locked="false"
   inkscape:color="rgb(0,0,255)" /><sodipodi:guide
   position="0,900"
   orientation="0,1"
   id="guide46"
   inkscape:label=""
   inkscape:locked="true"
   inkscape:color="rgb(0,0,255)" /><sodipodi:guide
   position="438.56075,524.18228"
   orientation="1,0"
   id="guide841"
   inkscape:label="width" />    </sodipodi:namedview>
 <defs
   id="defs4"><inkscape:path-effect
   effect="fillet_chamfer"
   id="path-effect849"
   is_visible="true"
   lpeversion="1"
   satellites_param="F,0,0,1,0,0,0,1 @ F,0,0,1,0,0,0,1 @ F,0,0,1,0,0,0,1 @ F,0,0,1,0,0,0,1 @ F,0,0,1,0,0,0,1 @ F,0,0,1,0,0,0,1 @ F,0,0,1,0,0,0,1 @ F,0,0,1,0,0,0,1 @ F,0,0,1,0,0,0,1 @ F,0,0,1,0,0,0,1 @ F,0,0,1,0,0,0,1 @ F,0,0,1,0,0,0,1 @ F,0,0,1,0,0,0,1 @ F,0,1,1,0,31.024117,0,1 @ F,0,1,1,0,31.024117,0,1 @ F,0,0,1,0,0,0,1 @ F,0,0,1,0,0,0,1 @ F,0,0,1,0,0,0,1 @ F,0,0,1,0,0,0,1 @ F,0,0,1,0,0,0,1 @ F,0,0,1,0,0,0,1 @ F,0,0,1,0,0,0,1 @ F,0,0,1,0,0,0,1 @ F,0,0,1,0,0,0,1 @ F,0,0,1,0,0,0,1 @ F,0,0,1,0,0,0,1 @ F,0,0,1,0,0,0,1 @ F,0,0,1,0,0,0,1 @ F,0,0,1,0,0,0,1 @ F,0,0,1,0,0,0,1 @ F,0,0,1,0,0,0,1 @ F,0,0,1,0,0,0,1 @ F,0,0,1,0,0,0,1 @ F,0,0,1,0,0,0,1 @ F,0,0,1,0,0,0,1 @ F,0,0,1,0,0,0,1 @ F,0,1,1,0,31.024117,0,1 @ F,0,1,1,0,31.024117,0,1 @ F,0,0,1,0,0,0,1 @ F,0,0,1,0,0,0,1 @ F,0,0,1,0,0,0,1 @ F,0,0,1,0,0,0,1 @ F,0,0,1,0,0,0,1 @ F,0,0,1,0,0,0,1 @ F,0,0,1,0,0,0,1 @ F,0,0,1,0,0,0,1"
   unit="px"
   method="auto"
   mode="F"
   radius="0"
   chamfer_steps="1"
   flexible="false"
   use_knot_distance="true"
   apply_no_radius="true"
   apply_with_radius="true"
   only_selected="true"
   hide_knots="false" /><inkscape:path-effect
   effect="fillet_chamfer"
   id="path-effect848"
   is_visible="true"
   lpeversion="1"
   satellites_param="F,0,0,1,0,0,0,1 @ F,0,0,1,0,0,0,1 @ F,0,0,1,0,0,0,1 @ F,0,0,1,0,0,0,1 @ F,0,0,1,0,0,0,1 @ F,0,0,1,0,0,0,1 @ F,0,0,1,0,0,0,1 @ F,0,0,1,0,0,0,1 @ F,0,0,1,0,0,0,1 @ F,0,0,1,0,0,0,1 @ F,0,0,1,0,0,0,1 @ F,0,0,1,0,0,0,1 @ F,0,0,1,0,0,0,1 @ F,0,0,1,0,27.687142,0,1 @ F,0,0,1,0,22.816902,0,1 @ F,0,0,1,0,0,0,1 @ F,0,0,1,0,0,0,1 @ F,0,0,1,0,0,0,1 @ F,0,0,1,0,0,0,1 @ F,0,0,1,0,0,0,1 @ F,0,0,1,0,0,0,1 @ F,0,0,1,0,0,0,1 @ F,0,0,1,0,0,0,1 @ F,0,0,1,0,0,0,1 @ F,0,0,1,0,0,0,1 @ F,0,0,1,0,0,0,1 @ F,0,0,1,0,0,0,1 @ F,0,0,1,0,0,0,1 @ F,0,0,1,0,0,0,1 @ F,0,0,1,0,0,0,1 @ F,0,0,1,0,0,0,1 @ F,0,0,1,0,0,0,1 @ F,0,0,1,0,0,0,1 @ F,0,0,1,0,0,0,1 @ F,0,0,1,0,0,0,1 @ F,0,0,1,0,0,0,1 @ F,0,0,1,0,69.197104,0,1 @ F,0,0,1,0,39.507908,0,1 @ F,0,0,1,0,0,0,1 @ F,0,0,1,0,0,0,1 @ F,0,0,1,0,0,0,1 @ F,0,0,1,0,0,0,1 @ F,0,0,1,0,0,0,1 @ F,0,0,1,0,0,0,1 @ F,0,0,1,0,0,0,1 @ F,0,0,1,0,0,0,1"
   unit="px"
   method="auto"
   mode="F"
   radius="0"
   chamfer_steps="1"
   flexible="false"
   use_knot_distance="true"
   apply_no_radius="true"
   apply_with_radius="true"
   only_selected="true"
   hide_knots="false" /><inkscape:path-effect
   effect="spiro"
   id="path-effect851"
   is_visible="true"
   lpeversion="1" />
  <style
   type="text/css"
   id="style2">
   <![CDATA[
    .fil0 {fill:#EF7F1A;fill-rule:nonzero}
   ]]>
  </style>
 <inkscape:path-effect
   effect="spiro"
   id="path-effect1214"
   is_visible="true"
   lpeversion="1" /><inkscape:path-effect
   effect="spiro"
   id="path-effect1195"
   is_visible="true"
   lpeversion="1" /><inkscape:path-effect
   effect="spiro"
   id="path-effect992"
   is_visible="true"
   lpeversion="1" /><inkscape:path-effect
   effect="spiro"
   id="path-effect1060"
   is_visible="true"
   lpeversion="1" /><inkscape:path-effect
   effect="spiro"
   id="path-effect1047"
   is_visible="true"
   lpeversion="1" /><inkscape:path-effect
   effect="spiro"
   id="path-effect1085"
   is_visible="true"
   lpeversion="1" /><inkscape:path-effect
   effect="spiro"
   id="path-effect1286"
   is_visible="true"
   lpeversion="1" /><inkscape:path-effect
   effect="spiro"
   id="path-effect1305"
   is_visible="true"
   lpeversion="1" /></defs>
 
<path
   id="path1210-6"
   style="display:inline;fill:#1a1a1a;fill-rule:nonzero;stroke:none;stroke-width:2.10056px;stroke-linecap:butt;stroke-linejoin:miter;stroke-opacity:1"
   d="m 437.91228,502.61653 c 7.54972,76.22547 -1.48081,156.54991 -41.30755,221.98042 -11.92126,19.58519 -26.63,37.75673 -45.05262,51.40603 -18.42261,13.6493 -40.77837,22.5827 -63.70573,22.76257 -18.4873,0.14504 -36.84362,-5.41048 -52.70547,-14.908 -15.86185,-9.49753 -29.2696,-22.8432 -39.72684,-38.08943 -20.91449,-30.49244 -29.80825,-67.74859 -33.23482,-104.56521 -8.25968,-88.74562 14.09908,-180.62113 65.12634,-253.69798 30.21131,-43.26604 69.68542,-79.50498 99.25284,-123.21358 23.06621,-34.09807 40.13626,-74.36101 36.865,-115.39791 C 361.54249,125.2976 352.86948,102.34579 339.07035,83.113371 325.27122,63.880956 306.42111,48.380391 285.09421,38.110763 252.17833,22.260643 214.49852,19.074374 178.01511,20.982858 139.31366,23.00737 100.90689,30.510863 64.272067,43.147779 48.078292,48.733704 34.336655,40.501472 33.08597,23.413032 l -5.632238,-76.954789 c -1.250685,-17.08844 11.588425,-29.853505 28.709648,-29.213413 15.585373,0.582673 31.186878,0.733885 46.78061,0.452966 53.5269,-0.96428 107.59414,-6.977372 160.25053,2.685084 49.89477,9.155697 98.16147,33.456123 129.68778,73.1978661 24.42112,30.7850109 37.81244,69.6017539 40.59048,108.7985739 2.77803,39.19681 -4.723,78.74043 -18.81595,115.42144 -31.34631,81.58792 -93.37353,147.2515 -136.06865,223.51622 -21.02737,37.56041 -37.37071,77.80945 -47.58872,119.62484 -6.25002,25.57711 -10.16522,52.66148 -3.21343,78.05683 3.47589,12.69768 9.71499,24.75798 18.84788,34.23971 9.1329,9.48172 21.24594,16.27078 34.28077,18.1163 12.32325,1.74477 25.10075,-0.9743 36.07829,-6.83948 10.97754,-5.86517 20.19079,-14.77033 27.17362,-25.07308 13.96567,-20.60551 18.8824,-46.03655 20.56011,-70.87225 2.41997,-35.82364 -1.23597,-71.83723 -7.60942,-107.17232 -11.26109,-62.43266 -32.0702,-125.15404 -73.98417,-172.77618 -17.43093,-19.80481 -38.65961,-36.85852 -63.40587,-46.00673 -24.74627,-9.14821 -53.27033,-9.76449 -76.99298,1.78122 -18.44211,8.97569 -33.04274,24.73738 -42.987322,42.6756 -9.944585,17.93821 -15.502551,38.01243 -18.945632,58.23172 -8.439929,49.56297 -4.59185,100.34938 0.977706,150.31638 12.144331,108.95226 33.920248,220.83808 96.871898,310.58868 10.3748,14.79142 21.79345,28.85011 34.13804,42.04223 11.70396,12.50751 8.19624,21.90438 -8.93718,22.06255 L 38.36875,891.84069 C 21.235334,891.99886 12.104743,879.06457 16.983612,862.64192 25.395572,834.32661 31.615062,805.3598 35.558401,776.08568 55.393901,628.83312 17.508466,480.75152 3.7803974,332.80455 0.97047379,302.52209 -0.8252777,272.00025 1.9920205,241.71848 4.8028949,211.50575 12.399864,181.30569 27.992574,155.27537 42.272515,131.43658 63.792547,111.19595 90.12373,102.31488 c 27.40517,-9.243311 57.65827,-5.608291 85.29294,2.92441 46.56151,14.3767 88.37159,42.2124 122.56565,76.93171 34.19406,34.7193 61.02565,76.18517 82.43229,119.9621 30.70194,62.78598 50.6091,130.93319 57.49767,200.48343 z"
   sodipodi:nodetypes="aaaaaaaaaccaasaaaaaaaaaaaccaaaaaaaa"
   inkscape:original-d="m 437.91228,502.61653 c 3.58558,75.17824 -0.1789,158.94821 -41.30755,221.98042 -23.97887,36.74912 -65.36755,80.70485 -108.75835,74.1686 -66.4304,-10.00685 -111.59795,-91.87251 -125.66713,-157.56264 -18.28452,-85.37186 25.99931,-175.64829 65.12634,-253.69798 23.63501,-47.14657 74.26232,-76.77129 99.25284,-123.21358 19.13467,-35.55979 43.02384,-75.48923 36.865,-115.39791 C 356.5257,104.19686 323.48423,62.018283 285.09421,38.110763 254.41087,19.002606 214.13899,19.696802 178.01511,20.982858 129.20748,22.720472 35.350535,54.354389 35.350535,54.354389 L 25.189167,-84.483114 c 0,0 51.832858,1.600223 77.754823,2.18091 53.41094,1.196475 108.69528,-11.322656 160.25053,2.685084 47.90296,13.015401 98.89884,39.144573 129.68778,73.1978661 50.3609,55.7003469 38.52904,151.0214139 21.77453,224.2200139 -19.46178,85.02635 -97.1319,145.46386 -136.06865,223.51622 -19.15669,38.40136 -47.30813,76.71139 -47.58872,119.62484 -0.30433,46.54532 3.95796,123.03111 49.91522,130.41284 43.64859,7.01091 70.46949,-60.63829 83.81202,-102.78481 10.80911,-34.14394 0.82481,-72.36558 -7.60942,-107.17232 -14.75414,-60.88797 -27.53725,-130.732 -73.98417,-172.77618 -36.3765,-32.92835 -94.43593,-61.39921 -140.39885,-44.22551 -36.9695,13.81338 -51.330651,62.89226 -61.932954,100.90732 -13.460867,48.26456 -6.729036,100.80608 0.977706,150.31638 16.680141,107.15796 43.714618,216.06166 96.871898,310.58868 13.89646,24.71141 35.1062,44.8076 56.22366,63.81839 L 7.3459551,892.12708 C 28.252267,860.25297 32.239764,815.75437 35.558401,776.08568 47.908678,628.4618 10.533009,480.79014 3.7803974,332.80455 2.3961456,302.46823 -2.1334591,271.80484 1.9920205,241.71848 6.0796919,211.90786 11.539459,180.46817 27.992574,155.27537 42.872954,132.49072 64.430387,111.2825 90.12373,102.31488 c 26.85874,-9.374362 59.08817,-8.147208 85.29294,2.92441 87.27595,36.87443 156.0883,115.74789 204.99794,196.89381 35.88845,59.54248 54.18563,131.04052 57.49767,200.48343 z"
   inkscape:path-effect="#path-effect1305;#path-effect849" /></svg>
