<?xml version="1.0" encoding="UTF-8" standalone="no"?>
<svg
   xml:space="preserve"
   width="1000"
   height="1000"
   version="1.1"
   style="clip-rule:evenodd;fill-rule:evenodd;image-rendering:optimizeQuality;shape-rendering:geometricPrecision;text-rendering:geometricPrecision"
   viewBox="0 0 1000 1000"
   id="svg10"
   sodipodi:docname="ൽ.svg"
   inkscape:version="1.1.2 (0a00cf5339, 2022-02-04)"
   xmlns:inkscape="http://www.inkscape.org/namespaces/inkscape"
   xmlns:sodipodi="http://sodipodi.sourceforge.net/DTD/sodipodi-0.dtd"
   xmlns="http://www.w3.org/2000/svg"
   xmlns:svg="http://www.w3.org/2000/svg"
   xmlns:rdf="http://www.w3.org/1999/02/22-rdf-syntax-ns#"
   xmlns:cc="http://creativecommons.org/ns#"
   xmlns:dc="http://purl.org/dc/elements/1.1/"><metadata
   id="metadata14"><rdf:RDF><cc:Work
       rdf:about=""><dc:format>image/svg+xml</dc:format><dc:type
         rdf:resource="http://purl.org/dc/dcmitype/StillImage" /></cc:Work></rdf:RDF></metadata><sodipodi:namedview
   pagecolor="#ffffff"
   bordercolor="#666666"
   borderopacity="1"
   objecttolerance="10"
   gridtolerance="10"
   guidetolerance="10"
   inkscape:pageopacity="0"
   inkscape:pageshadow="2"
   inkscape:window-width="1920"
   inkscape:window-height="1009"
   id="namedview12"
   showgrid="false"
   inkscape:zoom="0.84890884"
   inkscape:cx="394.03524"
   inkscape:cy="453.52337"
   inkscape:window-x="0"
   inkscape:window-y="0"
   inkscape:window-maximized="1"
   inkscape:current-layer="svg10"
   showguides="true"
   inkscape:guide-bbox="true"
   inkscape:document-rotation="0"
   inkscape:pagecheckerboard="0"><sodipodi:guide
     position="0,1000"
     orientation="0,1"
     id="guide16"
     inkscape:label=""
     inkscape:locked="true"
     inkscape:color="rgb(0,0,255)" /><sodipodi:guide
     position="1763.3122,2036.1693"
     orientation="1000,0"
     id="guide18" /><sodipodi:guide
     position="0,200"
     orientation="0,1"
     id="guide20"
     inkscape:label="base"
     inkscape:locked="true"
     inkscape:color="rgb(0,0,255)" /><inkscape:grid
     type="xygrid"
     id="grid24"
     originx="-473.37552"
     originy="-489.69235" /><sodipodi:guide
     position="0,0"
     orientation="0,1"
     id="guide34"
     inkscape:label="bottom"
     inkscape:locked="true"
     inkscape:color="rgb(0,0,255)" /><sodipodi:guide
     position="225.05109,1693.3186"
     orientation="0,1"
     id="guide44"
     inkscape:label=""
     inkscape:locked="false"
     inkscape:color="rgb(0,0,255)" /><sodipodi:guide
     position="0,900"
     orientation="0,1"
     id="guide46"
     inkscape:label=""
     inkscape:locked="true"
     inkscape:color="rgb(0,0,255)" /><sodipodi:guide
     position="742.34384,730.06611"
     orientation="-1,0"
     id="guide841"
     inkscape:label="width"
     inkscape:locked="false"
     inkscape:color="rgb(0,0,255)" /></sodipodi:namedview>
 <defs
   id="defs4"><inkscape:path-effect
   effect="fillet_chamfer"
   id="path-effect3428"
   is_visible="true"
   lpeversion="1"
   satellites_param="F,0,0,1,0,0,0,1 @ F,0,0,1,0,0,0,1 @ F,0,0,1,0,0,0,1 @ F,0,0,1,0,0,0,1 @ F,0,0,1,0,0,0,1 @ F,0,0,1,0,0,0,1 @ F,0,0,1,0,0,0,1 @ F,0,0,1,0,0,0,1 @ F,0,0,1,0,0,0,1 @ F,0,0,1,0,0,0,1 @ F,0,0,1,0,0,0,1 @ F,0,0,1,0,0,0,1 @ F,0,0,1,0,0,0,1 @ F,0,0,1,0,0,0,1 @ F,0,0,1,0,0,0,1 @ F,0,0,1,0,0,0,1 @ F,0,0,1,0,0,0,1 @ F,0,0,1,0,0,0,1 @ F,0,0,1,0,0,0,1 @ F,0,0,1,0,0,0,1 @ F,0,0,1,0,0,0,1 @ F,0,0,1,0,0,0,1 @ F,0,0,1,0,0,0,1 @ F,0,0,1,0,0,0,1 @ F,0,0,1,0,0,0,1 @ F,0,0,1,0,0,0,1 @ F,0,0,1,0,0,0,1 @ F,0,0,1,0,0,0,1 @ F,0,0,1,0,0,0,1 @ F,0,0,1,0,0,0,1 @ F,0,0,1,0,0,0,1 @ F,0,0,1,0,14.74447,0,1 @ F,0,0,1,0,14.74447,0,1 @ F,0,0,1,0,0,0,1 @ F,0,0,1,0,0,0,1 @ F,0,0,1,0,0,0,1 @ F,0,0,1,0,0,0,1 @ F,0,0,1,0,0,0,1 @ F,0,0,1,0,0,0,1 @ F,0,0,1,0,0,0,1 @ F,0,0,1,0,0,0,1 @ F,0,0,1,0,0,0,1 @ F,0,0,1,0,0,0,1 @ F,0,0,1,0,0,0,1 @ F,0,0,1,0,0,0,1 @ F,0,0,1,0,0,0,1 @ F,0,0,1,0,0,0,1 @ F,0,0,1,0,0,0,1 @ F,0,0,1,0,0,0,1 @ F,0,0,1,0,0,0,1 @ F,0,0,1,0,0,0,1 @ F,0,0,1,0,0,0,1 @ F,0,0,1,0,0,0,1 @ F,0,0,1,0,0,0,1 @ F,0,0,1,0,0,0,1 @ F,0,0,1,0,0,0,1 @ F,0,0,1,0,0,0,1 @ F,0,0,1,0,0,0,1 @ F,0,0,1,0,0,0,1 @ F,0,0,1,0,0,0,1 @ F,0,0,1,0,0,0,1 @ F,0,0,1,0,0,0,1 @ F,0,0,1,0,0,0,1 @ F,0,0,1,0,0,0,1 @ F,0,0,1,0,0,0,1 @ F,0,0,1,0,0,0,1 @ F,0,0,1,0,0,0,1 @ F,0,0,1,0,0,0,1 @ F,0,0,1,0,0,0,1 @ F,0,0,1,0,0,0,1 @ F,0,1,1,0,12.018276,0,1 @ F,0,0,1,0,12.018276,0,1 @ F,0,0,1,0,0,0,1 @ F,0,0,1,0,0,0,1 @ F,0,0,1,0,0,0,1 @ F,0,0,1,0,0,0,1 @ F,0,0,1,0,0,0,1 @ F,0,0,1,0,0,0,1 @ F,0,0,1,0,0,0,1"
   unit="px"
   method="auto"
   mode="F"
   radius="0"
   chamfer_steps="1"
   flexible="false"
   use_knot_distance="true"
   apply_no_radius="true"
   apply_with_radius="true"
   only_selected="false"
   hide_knots="false" /><inkscape:path-effect
   effect="fillet_chamfer"
   id="path-effect850"
   is_visible="true"
   lpeversion="1"
   satellites_param="F,0,0,1,0,0,0,1 @ F,0,0,1,0,0,0,1 @ F,0,0,1,0,0,0,1 @ F,0,0,1,0,0,0,1 @ F,0,0,1,0,0,0,1 @ F,0,0,1,0,0,0,1 @ F,0,0,1,0,0,0,1 @ F,0,0,1,0,0,0,1 @ F,0,0,1,0,0,0,1 @ F,0,0,1,0,0,0,1 @ F,0,0,1,0,0,0,1 @ F,0,0,1,0,0,0,1 @ F,0,0,1,0,0,0,1 @ F,0,0,1,0,0,0,1 @ F,0,0,1,0,0,0,1 @ F,0,0,1,0,0,0,1 @ F,0,0,1,0,0,0,1 @ F,0,0,1,0,0,0,1 @ F,0,0,1,0,0,0,1 @ F,0,0,1,0,0,0,1 @ F,0,0,1,0,0,0,1 @ F,0,0,1,0,0,0,1 @ F,0,0,1,0,0,0,1 @ F,0,0,1,0,0,0,1 @ F,0,0,1,0,0,0,1 @ F,0,0,1,0,0,0,1 @ F,0,0,1,0,0,0,1 @ F,0,0,1,0,0,0,1 @ F,0,0,1,0,0,0,1 @ F,0,1,1,0,25.672333,0,1 @ F,0,1,1,0,25.672333,0,1 @ F,0,0,1,0,0,0,1 @ F,0,0,1,0,0,0,1 @ F,0,0,1,0,0,0,1 @ F,0,0,1,0,0,0,1 @ F,0,0,1,0,0,0,1 @ F,0,0,1,0,0,0,1 @ F,0,0,1,0,0,0,1 @ F,0,0,1,0,0,0,1 @ F,0,0,1,0,0,0,1 @ F,0,0,1,0,0,0,1 @ F,0,0,1,0,0,0,1 @ F,0,0,1,0,0,0,1 @ F,0,0,1,0,0,0,1 @ F,0,0,1,0,0,0,1 @ F,0,0,1,0,0,0,1 @ F,0,0,1,0,0,0,1 @ F,0,0,1,0,0,0,1 @ F,0,0,1,0,0,0,1 @ F,0,0,1,0,0,0,1 @ F,0,0,1,0,0,0,1 @ F,0,0,1,0,0,0,1 @ F,0,0,1,0,0,0,1 @ F,0,0,1,0,0,0,1 @ F,0,0,1,0,0,0,1 @ F,0,0,1,0,0,0,1 @ F,0,0,1,0,0,0,1 @ F,0,0,1,0,0,0,1 @ F,0,0,1,0,0,0,1 @ F,0,0,1,0,0,0,1 @ F,0,0,1,0,0,0,1 @ F,0,0,1,0,0,0,1 @ F,0,0,1,0,0,0,1 @ F,0,0,1,0,0,0,1 @ F,0,0,1,0,0,0,1 @ F,0,0,1,0,0,0,1 @ F,0,0,1,0,0,0,1 @ F,0,0,1,0,0,0,1 @ F,0,0,1,0,28.559999,0,1 @ F,0,0,1,0,28.559999,0,1 @ F,0,0,1,0,0,0,1 @ F,0,0,1,0,0,0,1 @ F,0,0,1,0,0,0,1 @ F,0,0,1,0,0,0,1 @ F,0,0,1,0,0,0,1 @ F,0,0,1,0,0,0,1 @ F,0,0,1,0,0,0,1 @ F,0,0,1,0,0,0,1"
   unit="px"
   method="auto"
   mode="F"
   radius="0"
   chamfer_steps="1"
   flexible="false"
   use_knot_distance="true"
   apply_no_radius="true"
   apply_with_radius="true"
   only_selected="true"
   hide_knots="false" /><inkscape:path-effect
   effect="fillet_chamfer"
   id="path-effect849"
   is_visible="true"
   lpeversion="1"
   satellites_param="F,0,0,1,0,0,0,1 @ F,0,0,1,0,0,0,1 @ F,0,0,1,0,0,0,1 @ F,0,0,1,0,0,0,1 @ F,0,0,1,0,0,0,1 @ F,0,0,1,0,0,0,1 @ F,0,0,1,0,0,0,1 @ F,0,0,1,0,0,0,1 @ F,0,0,1,0,0,0,1 @ F,0,0,1,0,0,0,1 @ F,0,0,1,0,0,0,1 @ F,0,0,1,0,0,0,1 @ F,0,0,1,0,0,0,1 @ F,0,0,1,0,0,0,1 @ F,0,0,1,0,0,0,1 @ F,0,0,1,0,0,0,1 @ F,0,0,1,0,0,0,1 @ F,0,0,1,0,0,0,1 @ F,0,0,1,0,0,0,1 @ F,0,0,1,0,0,0,1 @ F,0,0,1,0,0,0,1 @ F,0,0,1,0,0,0,1 @ F,0,0,1,0,0,0,1 @ F,0,0,1,0,0,0,1 @ F,0,0,1,0,0,0,1 @ F,0,0,1,0,0,0,1 @ F,0,0,1,0,0,0,1 @ F,0,0,1,0,0,0,1 @ F,0,0,1,0,0,0,1 @ F,0,0,1,0,25.11295,0,1 @ F,0,0,1,0,25.11295,0,1 @ F,0,0,1,0,0,0,1 @ F,0,0,1,0,0,0,1 @ F,0,0,1,0,0,0,1 @ F,0,0,1,0,0,0,1 @ F,0,0,1,0,0,0,1 @ F,0,0,1,0,0,0,1 @ F,0,0,1,0,0,0,1 @ F,0,0,1,0,0,0,1 @ F,0,0,1,0,0,0,1 @ F,0,0,1,0,0,0,1 @ F,0,0,1,0,0,0,1 @ F,0,0,1,0,0,0,1 @ F,0,0,1,0,0,0,1 @ F,0,0,1,0,0,0,1 @ F,0,0,1,0,0,0,1 @ F,0,0,1,0,0,0,1 @ F,0,0,1,0,0,0,1 @ F,0,0,1,0,0,0,1 @ F,0,0,1,0,0,0,1 @ F,0,0,1,0,0,0,1 @ F,0,0,1,0,0,0,1 @ F,0,0,1,0,0,0,1 @ F,0,0,1,0,0,0,1 @ F,0,0,1,0,0,0,1 @ F,0,0,1,0,0,0,1 @ F,0,0,1,0,0,0,1 @ F,0,0,1,0,0,0,1 @ F,0,0,1,0,0,0,1 @ F,0,0,1,0,0,0,1 @ F,0,0,1,0,0,0,1 @ F,0,0,1,0,0,0,1 @ F,0,0,1,0,0,0,1 @ F,0,0,1,0,0,0,1 @ F,0,0,1,0,0,0,1 @ F,0,0,1,0,0,0,1 @ F,0,0,1,0,0,0,1 @ F,0,0,1,0,0,0,1 @ F,0,1,1,0,0,0,1 @ F,0,1,1,0,38.226359,0,1 @ F,0,0,1,0,0,0,1 @ F,0,0,1,0,0,0,1 @ F,0,0,1,0,0,0,1 @ F,0,0,1,0,0,0,1 @ F,0,0,1,0,0,0,1 @ F,0,0,1,0,0,0,1 @ F,0,0,1,0,0,0,1 @ F,0,0,1,0,0,0,1"
   unit="px"
   method="auto"
   mode="F"
   radius="0"
   chamfer_steps="1"
   flexible="false"
   use_knot_distance="true"
   apply_no_radius="true"
   apply_with_radius="true"
   only_selected="true"
   hide_knots="false" /><inkscape:path-effect
   effect="fillet_chamfer"
   id="path-effect848"
   is_visible="true"
   lpeversion="1"
   satellites_param="F,0,0,1,0,0,0,1 @ F,0,0,1,0,0,0,1 @ F,0,0,1,0,0,0,1 @ F,0,0,1,0,0,0,1 @ F,0,0,1,0,0,0,1 @ F,0,0,1,0,0,0,1 @ F,0,0,1,0,0,0,1 @ F,0,0,1,0,0,0,1 @ F,0,0,1,0,0,0,1 @ F,0,0,1,0,0,0,1 @ F,0,0,1,0,0,0,1 @ F,0,0,1,0,0,0,1 @ F,0,0,1,0,0,0,1 @ F,0,0,1,0,0,0,1 @ F,0,0,1,0,0,0,1 @ F,0,0,1,0,0,0,1 @ F,0,0,1,0,0,0,1 @ F,0,0,1,0,0,0,1 @ F,0,0,1,0,0,0,1 @ F,0,0,1,0,0,0,1 @ F,0,0,1,0,0,0,1 @ F,0,0,1,0,0,0,1 @ F,0,0,1,0,0,0,1 @ F,0,0,1,0,0,0,1 @ F,0,0,1,0,0,0,1 @ F,0,0,1,0,0,0,1 @ F,0,0,1,0,0,0,1 @ F,0,0,1,0,0,0,1 @ F,0,0,1,0,0,0,1 @ F,0,0,1,0,40.356054,0,1 @ F,0,0,1,0,34.538287,0,1 @ F,0,0,1,0,0,0,1 @ F,0,0,1,0,0,0,1 @ F,0,0,1,0,0,0,1 @ F,0,0,1,0,0,0,1 @ F,0,0,1,0,0,0,1 @ F,0,0,1,0,0,0,1 @ F,0,0,1,0,0,0,1 @ F,0,0,1,0,0,0,1 @ F,0,0,1,0,0,0,1 @ F,0,0,1,0,0,0,1 @ F,0,0,1,0,0,0,1 @ F,0,0,1,0,0,0,1 @ F,0,0,1,0,0,0,1 @ F,0,0,1,0,0,0,1 @ F,0,0,1,0,0,0,1 @ F,0,0,1,0,0,0,1 @ F,0,0,1,0,0,0,1 @ F,0,0,1,0,0,0,1 @ F,0,0,1,0,0,0,1 @ F,0,0,1,0,0,0,1 @ F,0,0,1,0,0,0,1 @ F,0,0,1,0,0,0,1 @ F,0,0,1,0,0,0,1 @ F,0,0,1,0,0,0,1 @ F,0,0,1,0,0,0,1 @ F,0,0,1,0,0,0,1 @ F,0,0,1,0,0,0,1 @ F,0,0,1,0,0,0,1 @ F,0,0,1,0,0,0,1 @ F,0,0,1,0,0,0,1 @ F,0,0,1,0,0,0,1 @ F,0,0,1,0,0,0,1 @ F,0,0,1,0,0,0,1 @ F,0,0,1,0,0,0,1 @ F,0,0,1,0,0,0,1 @ F,0,0,1,0,0,0,1 @ F,0,0,1,0,49.104829,0,1 @ F,0,0,1,0,39.420446,0,1 @ F,0,0,1,0,0,0,1 @ F,0,0,1,0,0,0,1 @ F,0,0,1,0,0,0,1 @ F,0,0,1,0,0,0,1 @ F,0,0,1,0,0,0,1 @ F,0,0,1,0,0,0,1 @ F,0,0,1,0,0,0,1"
   unit="px"
   method="auto"
   mode="F"
   radius="0"
   chamfer_steps="1"
   flexible="false"
   use_knot_distance="true"
   apply_no_radius="true"
   apply_with_radius="true"
   only_selected="true"
   hide_knots="false" /><inkscape:path-effect
   effect="spiro"
   id="path-effect851"
   is_visible="true"
   lpeversion="1" />
  <style
   type="text/css"
   id="style2">
   
    .fil0 {fill:#EF7F1A;fill-rule:nonzero}
   
  </style>
 <inkscape:path-effect
   effect="spiro"
   id="path-effect1214"
   is_visible="true"
   lpeversion="1" /><inkscape:path-effect
   effect="spiro"
   id="path-effect1195"
   is_visible="true"
   lpeversion="1" /><inkscape:path-effect
   effect="spiro"
   id="path-effect992"
   is_visible="true"
   lpeversion="1" /><inkscape:path-effect
   effect="spiro"
   id="path-effect1060"
   is_visible="true"
   lpeversion="1" /><inkscape:path-effect
   effect="spiro"
   id="path-effect1047"
   is_visible="true"
   lpeversion="1" /><inkscape:path-effect
   effect="spiro"
   id="path-effect1085"
   is_visible="true"
   lpeversion="1" /><inkscape:path-effect
   effect="spiro"
   id="path-effect1286"
   is_visible="true"
   lpeversion="1" /><inkscape:path-effect
   effect="spiro"
   id="path-effect1305"
   is_visible="true"
   lpeversion="1" /></defs>
 
<path
   id="path1210-6"
   style="display:inline;fill:#63452c;fill-rule:nonzero;stroke:none;stroke-width:2.22142px;stroke-linecap:butt;stroke-linejoin:miter;stroke-opacity:1"
   d="m 416.18562,446.80089 c 6.05041,39.78088 8.54348,80.41054 2.86957,120.24686 -5.67392,39.83633 -19.84298,78.98406 -44.61334,110.69455 -10.64936,13.63309 -23.25895,25.86534 -37.92202,35.0449 -14.66307,9.17956 -31.4415,15.23675 -48.70823,16.2997 -15.86495,0.97665 -31.89378,-2.28688 -46.39652,-8.79233 -14.50275,-6.50544 -27.49196,-16.20149 -38.34963,-27.81017 -21.71534,-23.21736 -34.60626,-53.58286 -41.4088,-84.63648 -8.52138,-38.90015 -8.04369,-79.47074 -1.31362,-118.72047 7.50234,-43.75361 22.62535,-85.88407 40.54336,-126.49944 34.05542,-77.19457 79.84039,-151.34355 146.07663,-203.60763 21.46983,-16.94089 45.0146,-31.47173 70.54119,-41.28706 25.52658,-9.81533 53.10514,-14.82536 80.37201,-12.71238 28.26439,2.19028 55.69275,12.01028 79.91054,26.74703 38.93558,23.69266 69.43068,59.7416 90.98681,99.89947 21.55613,40.15788 34.58446,84.40377 43.45326,129.11021 13.48171,67.9595 17.59963,138.35879 5.52262,206.58193 -12.077,68.22314 -40.95491,134.2798 -87.81254,185.31521 -13.35474,14.54543 -28.27612,27.94923 -45.69292,37.25371 -17.4168,9.30449 -37.55439,14.31578 -57.1019,11.52053 -13.73218,-1.96367 -26.81044,-7.72806 -37.98331,-15.94972 -11.17287,-8.22167 -20.47345,-18.85281 -27.79152,-30.63731 -14.63613,-23.56902 -21.23763,-51.26249 -24.81478,-78.77465 -7.29321,-56.09271 -2.88753,-113.20829 7.24786,-168.8577 12.68804,-69.66503 34.26985,-137.46602 59.87583,-203.48524 16.8168,-43.35832 35.56602,-86.69101 41.37818,-132.83175 2.5062,-19.89591 2.54212,-40.21373 -1.34602,-59.88632 C 539.82019,91.35375 531.91229,72.321395 519.54516,56.535878 505.81492,39.010475 486.87609,25.891016 466.19481,17.648199 445.51354,9.4053808 423.12663,5.9062384 400.86365,5.7688488 347.49712,5.4395126 295.87179,23.969952 246.96143,45.321098 c -18.2843,7.98176 -36.38115,16.392929 -54.27064,25.224123 -7.30186,3.604579 -15.84981,0.564265 -19.13922,-6.884935 L 125.75168,-44.587249 c -3.28941,-7.4492 0.3936,-15.294098 8.24807,-17.442957 31.00936,-8.483665 62.2691,-16.052125 93.72487,-22.691961 63.4545,-13.394283 128.839,-23.021903 193.04275,-13.869849 32.10187,4.576028 63.67637,13.900596 92.29747,29.142074 28.6211,15.241478 54.23974,36.511439 73.03969,62.9317346 24.20587,34.0174404 36.444,75.6766904 38.78166,117.3617674 2.33767,41.68507 -4.84762,83.48235 -16.80717,123.48334 -17.82915,59.63297 -46.08651,115.56762 -67.73828,173.92146 -25.16624,67.82571 -41.37613,142.21406 -23.78369,212.38651 2.59046,10.33277 5.96784,20.63646 11.89765,29.48597 5.92982,8.84951 14.6997,16.1847 25.08888,18.53875 6.00735,1.36119 12.34663,1.01349 18.2791,-0.64386 5.93248,-1.65735 11.46687,-4.59734 16.39545,-8.29195 9.85717,-7.38922 17.18506,-17.61761 23.71924,-28.06121 26.73113,-42.72446 42.786,-92.12869 45.87537,-142.43165 3.08937,-50.30297 -6.8348,-101.39973 -28.89133,-146.71465 -12.79136,-26.27973 -29.73161,-50.75841 -51.38061,-70.39419 -21.649,-19.63578 -48.14756,-34.29988 -76.79581,-40.0896 -31.3906,-6.34394 -64.46101,-1.83812 -94.201,10.04248 -29.73998,11.88061 -56.28914,30.88833 -79.27982,53.18282 -37.3623,36.23092 -65.78209,81.43663 -83.32076,130.4368 -11.21953,31.34552 -18.05804,64.27821 -19.94386,97.51769 -1.18489,20.88477 -0.28738,42.49066 8.1959,61.61164 4.24164,9.56049 10.38182,18.35992 18.38131,25.09806 7.99949,6.73815 17.90388,11.34744 28.30789,12.42033 9.76598,1.0071 19.75037,-1.12007 28.53826,-5.49747 8.78789,-4.37741 16.39984,-10.947 22.49993,-18.63971 12.20017,-15.3854 18.21341,-34.79947 21.61402,-54.13831 7.02862,-39.97086 3.8091,-81.68871 -9.17604,-120.13942 -13.27205,-39.30028 -36.36604,-74.67596 -62.96796,-106.50358 -14.26629,-17.06877 -29.91816,-33.50015 -49.28089,-44.45254 -9.68136,-5.4762 -20.23606,-9.51572 -31.21923,-11.27281 -10.98318,-1.75708 -22.4044,-1.18825 -32.98,2.25765 -11.06578,3.60562 -21.01337,10.30002 -29.07062,18.6984 -8.05725,8.39838 -14.26725,18.46642 -18.85658,29.16176 -9.17865,21.39067 -11.88093,44.93348 -13.78919,68.1319 -4.11499,50.02539 -4.998864,100.49313 1.09346,150.31638 8.58341,70.19541 31.10549,138.60905 65.44439,200.43066 11.48559,20.67794 24.28001,40.62871 38.27968,59.6945 3.9284,5.35 1.99162,10.8967 -4.45341,12.48356 l -130.5784,32.15037 c -6.44503,1.58686 -11.49652,-2.50485 -11.353552,-9.1408 0.454223,-21.08306 0.378832,-42.17752 -0.226207,-63.25679 C 58.407559,623.45075 31.39893,486.0415 18.057357,347.44956 c -2.91514,-30.28241 -5.176164,-60.82992 -2.000093,-91.08607 3.204548,-30.52743 12.15642,-60.83389 29.078618,-86.44311 14.894825,-22.54109 36.495281,-41.41381 62.380858,-49.15291 27.77435,-8.30379 57.94175,-3.25891 85.27408,6.40087 64.40207,22.76096 118.3091,70.54043 155.27711,127.97783 36.96801,57.43739 57.84694,124.12547 68.11769,191.65472 z"
   sodipodi:nodetypes="aaaaaaaaaaaaaaaaaaaccaaaaaaaaaaaaaaaaaaaaccaaaaaaa"
   inkscape:original-d="m 416.18562,446.80089 c 16.73447,76.41705 2.89704,166.70118 -41.74377,230.94141 -19.15538,27.5655 -52.22679,54.99263 -86.63025,51.3446 -61.30481,-6.50064 -103.0051,-67.70735 -126.15495,-121.23898 -15.70872,-36.32477 -7.21004,-79.58628 -1.31362,-118.72047 6.59718,-43.78504 20.63818,-86.94649 40.54336,-126.49944 37.54959,-74.6136 79.38063,-153.32041 146.07663,-203.60763 42.66064,-32.16513 97.48828,-53.4483 150.9132,-53.99944 28.08784,-0.28976 58.09507,9.05251 79.91054,26.74703 68.74748,55.76103 120.16835,141.64936 134.44007,229.00968 21.52102,131.73484 0.3247,287.05418 -82.28992,391.89714 -23.47353,29.78934 -66.05697,58.19451 -102.79482,48.77424 -49.94017,-12.80558 -75.77663,-75.97971 -90.58961,-125.36168 -16.18691,-53.96224 -1.97993,-113.28084 7.24786,-168.8577 11.58089,-69.749 39.38179,-135.81668 59.87583,-203.48524 13.44237,-44.38487 39.46468,-86.49545 41.37818,-132.83175 1.61173,-39.02903 -0.5539,-84.325218 -25.50919,-114.376782 C 492.05642,23.433489 443.76627,9.0498214 400.86365,5.7688488 348.05008,1.7299372 296.78644,27.347373 246.96143,45.321098 223.57476,53.757538 179.50758,77.148256 179.50758,77.148256 L 119.79567,-58.075219 c 0,0 70.87579,-26.142894 107.92895,-26.646948 122.2598,-1.663166 277.4379,-13.439998 358.37991,78.2039596 53.36628,60.4222274 33.24031,161.0210174 21.97449,240.8451074 -8.69453,61.60519 -52.86123,113.51063 -67.73828,173.92146 -17.03447,69.17139 -42.9484,143.77478 -23.78369,212.38651 5.43577,19.46064 17.0892,44.509 36.98653,48.02472 22.69102,4.00934 46.69812,-17.14335 58.39379,-36.99702 49.00495,-83.18699 54.61391,-200.23313 16.98404,-289.1463 -21.98479,-51.94643 -72.69031,-100.33226 -128.17642,-110.48379 -60.54273,-11.07667 -125.46549,24.72019 -173.48082,63.2253 -40.24901,32.27704 -63.94035,82.62269 -83.32076,130.4368 -12.46338,30.74887 -24.96634,64.7213 -19.94386,97.51769 5.71748,37.33472 17.39243,94.56159 54.8851,99.13003 35.33732,4.30582 60.91608,-44.66702 72.65221,-78.27549 13.24094,-37.91772 2.88802,-81.83102 -9.17604,-120.13942 -12.38808,-39.33728 -32.4728,-78.73793 -62.96796,-106.50358 -30.91908,-28.15162 -73.79765,-66.65123 -113.48012,-53.4677 -41.56264,13.80816 -51.26968,73.45989 -61.71639,115.99206 -11.951934,48.66047 -6.960674,100.86114 1.09346,150.31638 11.29699,69.36764 34.98482,137.09263 65.44439,200.43066 11.97666,24.90444 21.87859,50.294 45.49603,69.30479 L 62.312311,837.89691 c 23.381297,-31.87411 1.409277,-50.21526 0.09,-75.27086 -7.318207,-138.9868 -35.418471,-276.2837 -44.344954,-415.17649 -1.947785,-30.30682 -6.613966,-60.99971 -2.000093,-91.08607 4.571589,-29.81062 10.910252,-61.11573 29.078618,-86.44311 14.963373,-20.85949 36.066321,-41.37397 62.380858,-49.15291 27.08293,-8.00609 60.50696,-7.7096 85.27408,6.40087 112.9433,64.34672 195.58801,192.65432 223.3948,319.63255 z"
   inkscape:path-effect="#path-effect1305;#path-effect3428" /></svg>
