<?xml version="1.0" encoding="UTF-8" standalone="no"?>
<svg
   xmlns:dc="http://purl.org/dc/elements/1.1/"
   xmlns:cc="http://creativecommons.org/ns#"
   xmlns:rdf="http://www.w3.org/1999/02/22-rdf-syntax-ns#"
   xmlns:svg="http://www.w3.org/2000/svg"
   xmlns="http://www.w3.org/2000/svg"
   xmlns:sodipodi="http://sodipodi.sourceforge.net/DTD/sodipodi-0.dtd"
   xmlns:inkscape="http://www.inkscape.org/namespaces/inkscape"
   xml:space="preserve"
   width="1000"
   height="1000"
   version="1.1"
   style="clip-rule:evenodd;fill-rule:evenodd;image-rendering:optimizeQuality;shape-rendering:geometricPrecision;text-rendering:geometricPrecision"
   viewBox="0 0 1000 1000"
   id="svg10"
   sodipodi:docname="ൽ.svg"
   inkscape:version="1.0.2 (e86c870879, 2021-01-15)"><metadata
   id="metadata14"><rdf:RDF><cc:Work
       rdf:about=""><dc:format>image/svg+xml</dc:format><dc:type
         rdf:resource="http://purl.org/dc/dcmitype/StillImage" /><dc:title /></cc:Work></rdf:RDF></metadata><sodipodi:namedview
   pagecolor="#ffffff"
   bordercolor="#666666"
   borderopacity="1"
   objecttolerance="10"
   gridtolerance="10"
   guidetolerance="10"
   inkscape:pageopacity="0"
   inkscape:pageshadow="2"
   inkscape:window-width="1920"
   inkscape:window-height="1007"
   id="namedview12"
   showgrid="false"
   inkscape:zoom="0.84890884"
   inkscape:cx="393.21271"
   inkscape:cy="30.008844"
   inkscape:window-x="1920"
   inkscape:window-y="0"
   inkscape:window-maximized="1"
   inkscape:current-layer="svg10"
   showguides="true"
   inkscape:guide-bbox="true"
   inkscape:document-rotation="0"><sodipodi:guide
     position="0,1000"
     orientation="0,1"
     id="guide16"
     inkscape:label=""
     inkscape:locked="true"
     inkscape:color="rgb(0,0,255)" /><sodipodi:guide
     position="1763.3122,2036.1693"
     orientation="1000,0"
     id="guide18" /><sodipodi:guide
     position="0,200"
     orientation="0,1"
     id="guide20"
     inkscape:label="base"
     inkscape:locked="true"
     inkscape:color="rgb(0,0,255)" /><inkscape:grid
     type="xygrid"
     id="grid24"
     originx="-473.37552"
     originy="-489.69235" /><sodipodi:guide
     position="0,0"
     orientation="0,1"
     id="guide34"
     inkscape:label="bottom"
     inkscape:locked="true"
     inkscape:color="rgb(0,0,255)" /><sodipodi:guide
     position="225.05109,1693.3186"
     orientation="0,1"
     id="guide44"
     inkscape:label=""
     inkscape:locked="false"
     inkscape:color="rgb(0,0,255)" /><sodipodi:guide
     position="0,900"
     orientation="0,1"
     id="guide46"
     inkscape:label=""
     inkscape:locked="true"
     inkscape:color="rgb(0,0,255)" /><sodipodi:guide
     position="729.59267,876.43803"
     orientation="-1,0"
     id="guide841"
     inkscape:label="width"
     inkscape:locked="false"
     inkscape:color="rgb(0,0,255)" /></sodipodi:namedview>
 <defs
   id="defs4"><inkscape:path-effect
   effect="fillet_chamfer"
   id="path-effect850"
   is_visible="true"
   lpeversion="1"
   satellites_param="F,0,0,1,0,0,0,1 @ F,0,0,1,0,0,0,1 @ F,0,0,1,0,0,0,1 @ F,0,0,1,0,0,0,1 @ F,0,0,1,0,0,0,1 @ F,0,0,1,0,0,0,1 @ F,0,0,1,0,0,0,1 @ F,0,0,1,0,0,0,1 @ F,0,0,1,0,0,0,1 @ F,0,0,1,0,0,0,1 @ F,0,0,1,0,0,0,1 @ F,0,0,1,0,0,0,1 @ F,0,0,1,0,0,0,1 @ F,0,0,1,0,0,0,1 @ F,0,0,1,0,0,0,1 @ F,0,0,1,0,0,0,1 @ F,0,0,1,0,0,0,1 @ F,0,0,1,0,0,0,1 @ F,0,0,1,0,0,0,1 @ F,0,0,1,0,0,0,1 @ F,0,0,1,0,0,0,1 @ F,0,0,1,0,0,0,1 @ F,0,0,1,0,0,0,1 @ F,0,0,1,0,0,0,1 @ F,0,0,1,0,0,0,1 @ F,0,0,1,0,0,0,1 @ F,0,0,1,0,0,0,1 @ F,0,0,1,0,0,0,1 @ F,0,0,1,0,0,0,1 @ F,0,1,1,0,25.672333,0,1 @ F,0,1,1,0,25.672333,0,1 @ F,0,0,1,0,0,0,1 @ F,0,0,1,0,0,0,1 @ F,0,0,1,0,0,0,1 @ F,0,0,1,0,0,0,1 @ F,0,0,1,0,0,0,1 @ F,0,0,1,0,0,0,1 @ F,0,0,1,0,0,0,1 @ F,0,0,1,0,0,0,1 @ F,0,0,1,0,0,0,1 @ F,0,0,1,0,0,0,1 @ F,0,0,1,0,0,0,1 @ F,0,0,1,0,0,0,1 @ F,0,0,1,0,0,0,1 @ F,0,0,1,0,0,0,1 @ F,0,0,1,0,0,0,1 @ F,0,0,1,0,0,0,1 @ F,0,0,1,0,0,0,1 @ F,0,0,1,0,0,0,1 @ F,0,0,1,0,0,0,1 @ F,0,0,1,0,0,0,1 @ F,0,0,1,0,0,0,1 @ F,0,0,1,0,0,0,1 @ F,0,0,1,0,0,0,1 @ F,0,0,1,0,0,0,1 @ F,0,0,1,0,0,0,1 @ F,0,0,1,0,0,0,1 @ F,0,0,1,0,0,0,1 @ F,0,0,1,0,0,0,1 @ F,0,0,1,0,0,0,1 @ F,0,0,1,0,0,0,1 @ F,0,0,1,0,0,0,1 @ F,0,0,1,0,0,0,1 @ F,0,0,1,0,0,0,1 @ F,0,0,1,0,0,0,1 @ F,0,0,1,0,0,0,1 @ F,0,0,1,0,0,0,1 @ F,0,0,1,0,0,0,1 @ F,0,0,1,0,28.559999,0,1 @ F,0,0,1,0,28.559999,0,1 @ F,0,0,1,0,0,0,1 @ F,0,0,1,0,0,0,1 @ F,0,0,1,0,0,0,1 @ F,0,0,1,0,0,0,1 @ F,0,0,1,0,0,0,1 @ F,0,0,1,0,0,0,1 @ F,0,0,1,0,0,0,1 @ F,0,0,1,0,0,0,1"
   unit="px"
   method="auto"
   mode="F"
   radius="0"
   chamfer_steps="1"
   flexible="false"
   use_knot_distance="true"
   apply_no_radius="true"
   apply_with_radius="true"
   only_selected="true"
   hide_knots="false" /><inkscape:path-effect
   effect="fillet_chamfer"
   id="path-effect849"
   is_visible="true"
   lpeversion="1"
   satellites_param="F,0,0,1,0,0,0,1 @ F,0,0,1,0,0,0,1 @ F,0,0,1,0,0,0,1 @ F,0,0,1,0,0,0,1 @ F,0,0,1,0,0,0,1 @ F,0,0,1,0,0,0,1 @ F,0,0,1,0,0,0,1 @ F,0,0,1,0,0,0,1 @ F,0,0,1,0,0,0,1 @ F,0,0,1,0,0,0,1 @ F,0,0,1,0,0,0,1 @ F,0,0,1,0,0,0,1 @ F,0,0,1,0,0,0,1 @ F,0,0,1,0,0,0,1 @ F,0,0,1,0,0,0,1 @ F,0,0,1,0,0,0,1 @ F,0,0,1,0,0,0,1 @ F,0,0,1,0,0,0,1 @ F,0,0,1,0,0,0,1 @ F,0,0,1,0,0,0,1 @ F,0,0,1,0,0,0,1 @ F,0,0,1,0,0,0,1 @ F,0,0,1,0,0,0,1 @ F,0,0,1,0,0,0,1 @ F,0,0,1,0,0,0,1 @ F,0,0,1,0,0,0,1 @ F,0,0,1,0,0,0,1 @ F,0,0,1,0,0,0,1 @ F,0,0,1,0,0,0,1 @ F,0,0,1,0,25.11295,0,1 @ F,0,0,1,0,25.11295,0,1 @ F,0,0,1,0,0,0,1 @ F,0,0,1,0,0,0,1 @ F,0,0,1,0,0,0,1 @ F,0,0,1,0,0,0,1 @ F,0,0,1,0,0,0,1 @ F,0,0,1,0,0,0,1 @ F,0,0,1,0,0,0,1 @ F,0,0,1,0,0,0,1 @ F,0,0,1,0,0,0,1 @ F,0,0,1,0,0,0,1 @ F,0,0,1,0,0,0,1 @ F,0,0,1,0,0,0,1 @ F,0,0,1,0,0,0,1 @ F,0,0,1,0,0,0,1 @ F,0,0,1,0,0,0,1 @ F,0,0,1,0,0,0,1 @ F,0,0,1,0,0,0,1 @ F,0,0,1,0,0,0,1 @ F,0,0,1,0,0,0,1 @ F,0,0,1,0,0,0,1 @ F,0,0,1,0,0,0,1 @ F,0,0,1,0,0,0,1 @ F,0,0,1,0,0,0,1 @ F,0,0,1,0,0,0,1 @ F,0,0,1,0,0,0,1 @ F,0,0,1,0,0,0,1 @ F,0,0,1,0,0,0,1 @ F,0,0,1,0,0,0,1 @ F,0,0,1,0,0,0,1 @ F,0,0,1,0,0,0,1 @ F,0,0,1,0,0,0,1 @ F,0,0,1,0,0,0,1 @ F,0,0,1,0,0,0,1 @ F,0,0,1,0,0,0,1 @ F,0,0,1,0,0,0,1 @ F,0,0,1,0,0,0,1 @ F,0,0,1,0,0,0,1 @ F,0,1,1,0,0,0,1 @ F,0,1,1,0,38.226359,0,1 @ F,0,0,1,0,0,0,1 @ F,0,0,1,0,0,0,1 @ F,0,0,1,0,0,0,1 @ F,0,0,1,0,0,0,1 @ F,0,0,1,0,0,0,1 @ F,0,0,1,0,0,0,1 @ F,0,0,1,0,0,0,1 @ F,0,0,1,0,0,0,1"
   unit="px"
   method="auto"
   mode="F"
   radius="0"
   chamfer_steps="1"
   flexible="false"
   use_knot_distance="true"
   apply_no_radius="true"
   apply_with_radius="true"
   only_selected="true"
   hide_knots="false" /><inkscape:path-effect
   effect="fillet_chamfer"
   id="path-effect848"
   is_visible="true"
   lpeversion="1"
   satellites_param="F,0,0,1,0,0,0,1 @ F,0,0,1,0,0,0,1 @ F,0,0,1,0,0,0,1 @ F,0,0,1,0,0,0,1 @ F,0,0,1,0,0,0,1 @ F,0,0,1,0,0,0,1 @ F,0,0,1,0,0,0,1 @ F,0,0,1,0,0,0,1 @ F,0,0,1,0,0,0,1 @ F,0,0,1,0,0,0,1 @ F,0,0,1,0,0,0,1 @ F,0,0,1,0,0,0,1 @ F,0,0,1,0,0,0,1 @ F,0,0,1,0,0,0,1 @ F,0,0,1,0,0,0,1 @ F,0,0,1,0,0,0,1 @ F,0,0,1,0,0,0,1 @ F,0,0,1,0,0,0,1 @ F,0,0,1,0,0,0,1 @ F,0,0,1,0,0,0,1 @ F,0,0,1,0,0,0,1 @ F,0,0,1,0,0,0,1 @ F,0,0,1,0,0,0,1 @ F,0,0,1,0,0,0,1 @ F,0,0,1,0,0,0,1 @ F,0,0,1,0,0,0,1 @ F,0,0,1,0,0,0,1 @ F,0,0,1,0,0,0,1 @ F,0,0,1,0,0,0,1 @ F,0,0,1,0,40.356054,0,1 @ F,0,0,1,0,34.538287,0,1 @ F,0,0,1,0,0,0,1 @ F,0,0,1,0,0,0,1 @ F,0,0,1,0,0,0,1 @ F,0,0,1,0,0,0,1 @ F,0,0,1,0,0,0,1 @ F,0,0,1,0,0,0,1 @ F,0,0,1,0,0,0,1 @ F,0,0,1,0,0,0,1 @ F,0,0,1,0,0,0,1 @ F,0,0,1,0,0,0,1 @ F,0,0,1,0,0,0,1 @ F,0,0,1,0,0,0,1 @ F,0,0,1,0,0,0,1 @ F,0,0,1,0,0,0,1 @ F,0,0,1,0,0,0,1 @ F,0,0,1,0,0,0,1 @ F,0,0,1,0,0,0,1 @ F,0,0,1,0,0,0,1 @ F,0,0,1,0,0,0,1 @ F,0,0,1,0,0,0,1 @ F,0,0,1,0,0,0,1 @ F,0,0,1,0,0,0,1 @ F,0,0,1,0,0,0,1 @ F,0,0,1,0,0,0,1 @ F,0,0,1,0,0,0,1 @ F,0,0,1,0,0,0,1 @ F,0,0,1,0,0,0,1 @ F,0,0,1,0,0,0,1 @ F,0,0,1,0,0,0,1 @ F,0,0,1,0,0,0,1 @ F,0,0,1,0,0,0,1 @ F,0,0,1,0,0,0,1 @ F,0,0,1,0,0,0,1 @ F,0,0,1,0,0,0,1 @ F,0,0,1,0,0,0,1 @ F,0,0,1,0,0,0,1 @ F,0,0,1,0,49.104829,0,1 @ F,0,0,1,0,39.420446,0,1 @ F,0,0,1,0,0,0,1 @ F,0,0,1,0,0,0,1 @ F,0,0,1,0,0,0,1 @ F,0,0,1,0,0,0,1 @ F,0,0,1,0,0,0,1 @ F,0,0,1,0,0,0,1 @ F,0,0,1,0,0,0,1"
   unit="px"
   method="auto"
   mode="F"
   radius="0"
   chamfer_steps="1"
   flexible="false"
   use_knot_distance="true"
   apply_no_radius="true"
   apply_with_radius="true"
   only_selected="true"
   hide_knots="false" /><inkscape:path-effect
   effect="spiro"
   id="path-effect851"
   is_visible="true"
   lpeversion="1" />
  <style
   type="text/css"
   id="style2">
   <![CDATA[
    .fil0 {fill:#EF7F1A;fill-rule:nonzero}
   ]]>
  </style>
 <inkscape:path-effect
   effect="spiro"
   id="path-effect1214"
   is_visible="true"
   lpeversion="1" /><inkscape:path-effect
   effect="spiro"
   id="path-effect1195"
   is_visible="true"
   lpeversion="1" /><inkscape:path-effect
   effect="spiro"
   id="path-effect992"
   is_visible="true"
   lpeversion="1" /><inkscape:path-effect
   effect="spiro"
   id="path-effect1060"
   is_visible="true"
   lpeversion="1" /><inkscape:path-effect
   effect="spiro"
   id="path-effect1047"
   is_visible="true"
   lpeversion="1" /><inkscape:path-effect
   effect="spiro"
   id="path-effect1085"
   is_visible="true"
   lpeversion="1" /><inkscape:path-effect
   effect="spiro"
   id="path-effect1286"
   is_visible="true"
   lpeversion="1" /><inkscape:path-effect
   effect="spiro"
   id="path-effect1305"
   is_visible="true"
   lpeversion="1" /></defs>
 
<path
   id="path1210-6"
   style="display:inline;fill:#1a1a1a;fill-rule:nonzero;stroke:none;stroke-width:2.22142px;stroke-linecap:butt;stroke-linejoin:miter;stroke-opacity:1"
   d="m 394.17114,445.66425 c 7.08542,39.6138 11.7131,80.01939 7.99188,120.08944 -3.72121,40.07004 -16.22936,80.02363 -40.67718,111.98861 -10.50906,13.74037 -23.18882,25.92802 -37.89507,35.03651 -14.70624,9.10849 -31.48053,15.07716 -48.73518,16.30809 -15.99814,1.14129 -32.21353,-1.81153 -46.98705,-8.0554 -14.77353,-6.24388 -28.10797,-15.73714 -39.21715,-27.3056 -22.21835,-23.13691 -35.17239,-54.15828 -39.95075,-85.87798 -5.63102,-37.3798 -0.49064,-75.49527 5.98385,-112.73824 7.80864,-44.91735 17.60728,-89.65671 33.24589,-132.48167 29.03941,-79.52188 78.89141,-152.09877 146.07663,-203.60763 21.6827,-16.62346 45.19923,-31.08997 70.67376,-40.96556 25.47453,-9.87558 52.99354,-15.06854 80.23944,-13.03388 28.27469,2.11149 55.70377,11.98393 79.91054,26.74703 38.91069,23.73065 69.40969,59.76211 90.98164,99.9098 21.57196,40.14768 34.62182,84.38858 43.45843,129.09988 13.36711,67.63463 17.32412,137.81476 4.16291,205.48976 -13.1612,67.67499 -44.21833,132.84106 -93.84398,180.69937 -16.39058,15.80686 -35.02827,29.83741 -56.45292,37.55052 -21.42466,7.71311 -45.95984,8.58447 -66.54635,-1.14711 -18.92224,-8.94485 -33.07473,-26.08397 -41.89103,-45.06645 -8.81629,-18.98248 -12.77431,-39.83475 -15.58068,-60.57567 -7.64813,-56.52466 -7.28544,-114.17495 1.72556,-170.49842 11.1881,-69.93149 35.46328,-137.00506 59.87583,-203.48524 8.35522,-22.75292 16.76354,-45.56598 22.25743,-69.17365 5.49389,-23.60768 8.02384,-48.16913 4.4803,-72.14721 -4.80242,-32.49654 -20.93216,-63.061127 -44.39723,-86.049789 -23.46507,-22.988663 -54.05682,-38.402775 -86.331,-44.523673 -48.8732,-9.268952 -99.55691,2.476757 -145.60601,21.291212 -15.88697,6.491002 -31.4294,13.824975 -46.54141,21.958599 -12.4835,6.7189 -27.06586,2.310634 -32.97654,-10.577035 l -38.78359,-84.56396 c -5.91068,-12.887669 0.74315,-24.390245 14.86411,-25.665549 27.29688,-2.465256 54.60031,-4.857957 81.9099,-7.178068 61.7579,-5.246698 124.35797,-10.088419 185.38179,0.758696 30.51191,5.423557 60.46207,14.810067 87.76577,29.469512 27.30371,14.6594454 51.92814,34.699163 70.35877,59.613081 20.45886,27.655613 32.90774,60.86035 37.72798,94.921514 4.82025,34.06117 2.17056,68.96246 -5.70742,102.44881 -14.2666,60.64202 -45.0971,115.88383 -67.73828,173.92146 -26.31692,67.4599 -41.59778,142.20049 -23.78369,212.38651 2.61932,10.31991 6.00669,20.61175 11.93238,29.45753 5.92568,8.84578 14.67631,16.18771 25.05415,18.56719 6.00897,1.37776 12.3547,1.04746 18.29618,-0.59715 5.94148,-1.64462 11.48708,-4.57663 16.42316,-8.27 9.87216,-7.38675 17.19784,-17.6381 23.67445,-28.12987 26.3518,-42.68852 41.17945,-92.25589 43.73913,-142.35754 2.55969,-50.10164 -7.04706,-100.65504 -26.75509,-146.78876 -11.63452,-27.23478 -26.91954,-53.19832 -47.47854,-74.51551 -20.55899,-21.3172 -46.64728,-37.83896 -75.53716,-44.35587 -32.72167,-7.38128 -67.55791,-1.57212 -98.11998,12.2536 -30.56207,13.82572 -57.16009,35.28789 -80.52156,59.35929 -36.19725,37.29724 -65.48404,81.61901 -83.32076,130.4368 -11.42797,31.27752 -18.12429,64.26757 -19.94386,97.51769 -1.14264,20.88017 -0.2387,42.47381 8.23544,61.59124 4.23708,9.55871 10.36909,18.35892 18.36081,25.10089 7.99172,6.74198 17.88905,11.35813 28.28885,12.4379 9.76647,1.01401 19.75359,-1.10945 28.54346,-5.48556 8.78987,-4.37611 16.40308,-10.94664 22.50313,-18.64089 12.2001,-15.3885 18.20815,-34.80723 21.60562,-54.14904 7.02121,-39.97175 3.80703,-81.68843 -9.17604,-120.13942 -13.2701,-39.30104 -36.36553,-74.67627 -62.96796,-106.50358 -14.2665,-17.06854 -29.91837,-33.49983 -49.28103,-44.45225 -9.68133,-5.47621 -20.236,-9.51577 -31.21914,-11.27292 -10.98314,-1.75714 -22.40436,-1.18837 -32.97995,2.25747 -11.06581,3.60557 -21.01343,10.29995 -29.07069,18.69832 -8.05727,8.39838 -14.26727,18.46643 -18.85659,29.16178 -9.178647,21.39068 -11.880878,44.93352 -13.789109,68.13196 -4.114931,50.02539 -4.998852,100.49313 1.093451,150.31638 8.583378,70.19542 31.105498,138.60905 65.444398,200.43066 8.80818,15.8577 18.38612,31.28774 28.68708,46.21894 8.95613,12.98188 4.48879,26.5085 -10.7089,30.73056 L 45.801506,843.74738 c -15.197687,4.22206 -21.88111,-3.86151 -16.266395,-18.59688 4.294561,-11.27072 8.004153,-22.76436 11.106262,-34.41981 19.21932,-72.21213 14.718344,-148.69017 3.13179,-222.51244 C 32.186609,494.39599 13.68065,421.68143 5.101344,347.44956 1.6071638,317.2164 -0.22672,286.61539 3.1012509,256.36349 6.4570165,225.85893 15.277122,195.53457 32.179869,169.92038 c 14.879483,-22.54816 36.5141,-41.35998 62.380854,-49.15291 27.772457,-8.36707 58.015407,-3.51284 85.274087,6.40087 63.02351,22.92103 114.35748,71.96854 148.93703,129.42803 34.57954,57.45948 53.59178,123.05334 65.3993,189.06788 z"
   sodipodi:nodetypes="aaaaaaaaaaaaaaaaaaccaaaaaaaaaaaaaaaaaaaaccaaaaaaa"
   inkscape:original-d="m 394.17114,445.66425 c 18.02515,76.28638 13.29086,165.82562 -32.6853,232.07805 -18.26618,26.32183 -52.22679,54.99263 -86.63025,51.3446 -61.30481,-6.50064 -104.73216,-66.9931 -126.15495,-121.23898 -13.82287,-35.0017 0.35944,-75.45418 5.98385,-112.73824 6.76613,-44.85243 14.09619,-91.17485 33.24589,-132.48167 35.1322,-75.78185 79.38063,-153.32041 146.07663,-203.60763 42.66064,-32.16513 97.48828,-53.4483 150.9132,-53.99944 28.08784,-0.28976 58.09507,9.05251 79.91054,26.74703 68.74748,55.76103 121.09537,141.50296 134.44007,229.00968 19.92321,130.6447 0.94213,289.9997 -89.68107,386.18913 -29.32043,31.12134 -83.49139,52.75435 -122.99927,36.40341 -37.04082,-15.3299 -47.78469,-66.74238 -57.47171,-105.64212 -13.73409,-55.15137 -6.66374,-114.28527 1.72556,-170.49842 10.43633,-69.92941 43.3042,-134.75082 59.87583,-203.48524 C 501.957,257.13719 531.60305,208.23199 517.45789,162.42355 499.28633,103.57586 445.19629,51.212658 386.72966,31.850088 340.16525,16.429212 287.89334,38.35469 241.12365,53.1413 216.62649,60.886272 172.30793,87.858053 172.30793,87.858053 L 112.11988,-43.376285 c 0,0 71.63706,-12.518286 107.47624,-9.508428 117.93836,9.90474 263.88484,2.274284 343.50633,89.841289 44.8385,49.312988 39.02477,131.089084 32.02056,197.370324 -6.53819,61.87121 -52.86123,113.51063 -67.73828,173.92146 -17.03447,69.17139 -42.9484,143.77478 -23.78369,212.38651 5.43577,19.46064 17.0892,44.509 36.98653,48.02472 22.69102,4.00934 46.69812,-17.14335 58.39379,-36.99702 49.00495,-83.18699 52.07097,-199.19928 16.98404,-289.1463 -20.72246,-53.12301 -67.05822,-107.90623 -123.0157,-118.87138 -62.95632,-12.33661 -129.23704,30.68753 -178.64154,71.61289 -39.73124,32.91229 -63.94035,82.62269 -83.32076,130.4368 -12.46338,30.74887 -24.96634,64.7213 -19.94386,97.51769 5.71748,37.33472 17.39243,94.56159 54.8851,99.13003 35.33732,4.30582 60.91608,-44.66702 72.65221,-78.27549 13.24094,-37.91772 2.88802,-81.83102 -9.17604,-120.13942 -12.38808,-39.33728 -32.4728,-78.73793 -62.96796,-106.50358 -30.91908,-28.15162 -73.79765,-66.65123 -113.48012,-53.4677 -41.56264,13.80816 -51.26968,73.45989 -61.716389,115.99206 -11.951938,48.66047 -6.960678,100.86114 1.093451,150.31638 11.296998,69.36764 34.984828,137.09263 65.444398,200.43066 11.97666,24.90444 21.87859,50.294 45.49603,69.30479 L 18.283659,851.39209 C 41.664956,819.51798 37.70769,812.0802 40.641373,790.73069 60.82098,643.87615 12.653361,495.43515 5.101344,347.44956 3.5532182,317.11324 -1.5126219,286.44985 3.1012509,256.36349 7.6728396,226.55287 14.011503,195.24776 32.179869,169.92038 47.143242,149.06089 68.24619,128.54641 94.560723,120.76747 c 27.082937,-8.00609 61.052477,-7.06993 85.274087,6.40087 117.6677,65.44058 185.69234,197.26846 214.33633,318.49591 z"
   inkscape:path-effect="#path-effect1305;#path-effect850" /></svg>
