<?xml version="1.0" encoding="UTF-8" standalone="no"?>
<svg
   xmlns:dc="http://purl.org/dc/elements/1.1/"
   xmlns:cc="http://creativecommons.org/ns#"
   xmlns:rdf="http://www.w3.org/1999/02/22-rdf-syntax-ns#"
   xmlns:svg="http://www.w3.org/2000/svg"
   xmlns="http://www.w3.org/2000/svg"
   xmlns:sodipodi="http://sodipodi.sourceforge.net/DTD/sodipodi-0.dtd"
   xmlns:inkscape="http://www.inkscape.org/namespaces/inkscape"
   xml:space="preserve"
   width="1000"
   height="1000"
   version="1.1"
   style="clip-rule:evenodd;fill-rule:evenodd;image-rendering:optimizeQuality;shape-rendering:geometricPrecision;text-rendering:geometricPrecision"
   viewBox="0 0 1000 1000"
   id="svg10"
   sodipodi:docname="ൾ.svg"
   inkscape:version="1.0.1 (3bc2e813f5, 2020-09-07)"><metadata
   id="metadata14"><rdf:RDF><cc:Work
       rdf:about=""><dc:format>image/svg+xml</dc:format><dc:type
         rdf:resource="http://purl.org/dc/dcmitype/StillImage" /><dc:title /></cc:Work></rdf:RDF></metadata><sodipodi:namedview
   pagecolor="#ffffff"
   bordercolor="#666666"
   borderopacity="1"
   objecttolerance="10"
   gridtolerance="10"
   guidetolerance="10"
   inkscape:pageopacity="0"
   inkscape:pageshadow="2"
   inkscape:window-width="1920"
   inkscape:window-height="1015"
   id="namedview12"
   showgrid="false"
   inkscape:zoom="0.54793055"
   inkscape:cx="749.00133"
   inkscape:cy="485.44581"
   inkscape:window-x="1920"
   inkscape:window-y="0"
   inkscape:window-maximized="1"
   inkscape:current-layer="svg10"
   showguides="true"
   inkscape:guide-bbox="true"
   inkscape:document-rotation="0"><sodipodi:guide
   position="0,1000"
   orientation="0,1"
   id="guide16"
   inkscape:label=""
   inkscape:locked="true"
   inkscape:color="rgb(0,0,255)" /><sodipodi:guide
   position="1763.3122,2036.1693"
   orientation="1000,0"
   id="guide18" /><sodipodi:guide
   position="0,200"
   orientation="0,1"
   id="guide20"
   inkscape:label="base"
   inkscape:locked="true"
   inkscape:color="rgb(0,0,255)" /><inkscape:grid
   type="xygrid"
   id="grid24"
   originx="-473.37552"
   originy="-489.69235" /><sodipodi:guide
   position="0,0"
   orientation="0,1"
   id="guide34"
   inkscape:label="bottom"
   inkscape:locked="true"
   inkscape:color="rgb(0,0,255)" /><sodipodi:guide
   position="225.05109,1693.3186"
   orientation="0,1"
   id="guide44"
   inkscape:label=""
   inkscape:locked="false"
   inkscape:color="rgb(0,0,255)" /><sodipodi:guide
   position="0,900"
   orientation="0,1"
   id="guide46"
   inkscape:label=""
   inkscape:locked="true"
   inkscape:color="rgb(0,0,255)" /><sodipodi:guide
   position="789.14246,809.22954"
   orientation="1,0"
   id="guide841"
   inkscape:label="width" />    </sodipodi:namedview>
 <defs
   id="defs4"><inkscape:path-effect
   effect="spiro"
   id="path-effect845"
   is_visible="true"
   lpeversion="1" /><inkscape:path-effect
   effect="spiro"
   id="path-effect844"
   is_visible="true"
   lpeversion="1" />
  <style
   type="text/css"
   id="style2">
   <![CDATA[
    .fil0 {fill:#EF7F1A;fill-rule:nonzero}
   ]]>
  </style>
 <inkscape:path-effect
   effect="spiro"
   id="path-effect1214"
   is_visible="true"
   lpeversion="1" /><inkscape:path-effect
   effect="spiro"
   id="path-effect1195"
   is_visible="true"
   lpeversion="1" /><inkscape:path-effect
   effect="spiro"
   id="path-effect992"
   is_visible="true"
   lpeversion="1" /><inkscape:path-effect
   effect="spiro"
   id="path-effect873"
   is_visible="true"
   lpeversion="1" /></defs>
 
<path
   style="clip-rule:evenodd;fill:#2d2d2d;fill-rule:nonzero;stroke:none;stroke-width:7.56547px;stroke-linecap:butt;stroke-linejoin:miter;stroke-opacity:1;image-rendering:optimizeQuality;shape-rendering:geometricPrecision;text-rendering:geometricPrecision"
   d="M 174.47448,100 H 0 C -14.176743,243.4315 5.7743429,390.12218 57.743139,524.55737 96.624883,625.13839 153.26032,718.82769 224.24897,800 l 133.22631,-57.26955 c -24.23064,-53.42867 -41.14495,-110.16953 -50.12356,-168.14479 -6.58895,-42.54516 -8.89691,-86.10977 -1.98906,-128.60433 6.90784,-42.49455 23.42019,-84.00742 51.35715,-116.76458 34.24162,-40.14962 84.41912,-65.23237 136.57587,-73.24197 33.17333,-5.09436 67.60551,-3.56228 99.56603,6.68211 31.96051,10.24438 61.33515,29.44237 81.80245,56.04146 25.56432,33.22312 36.0783,76.34534 35.06404,118.25335 -1.01425,41.90801 -12.824,82.88845 -28.2168,121.88039 -9.38179,23.76528 -20.36493,47.37043 -37.28143,66.51824 -8.45825,9.5739 -18.36744,17.94488 -29.58806,24.0522 -11.22062,6.10732 -23.77931,9.90987 -36.54735,10.33259 -19.72167,0.65293 -39.32618,-6.91075 -54.54086,-19.47594 -15.21469,-12.56519 -26.15676,-29.88729 -32.51336,-48.56787 -12.7132,-37.36116 -7.34044,-78.50189 2.9683,-116.59666 19.05485,-70.41506 54.03788,-135.28187 82.26529,-202.54688 28.2274,-67.26502 50.0857,-140.06004 40.67294,-212.397911 C 609.46258,2.6325022 581.10152,-52.735546 535.83822,-89.005294 494.6648,-121.9978 441.88685,-137.94051 389.33443,-142.63082 c -52.55241,-4.6903 -105.42591,1.14241 -157.78844,7.61706 -38.13098,4.71491 -76.21938,9.77413 -114.259,15.17684 L 132.95418,37.168192 C 169.51498,26.44208 205.80577,14.795639 241.78059,2.2436148 287.47848,-13.700895 333.54894,-31.294023 381.88447,-33.784023 c 24.16777,-1.245 48.7272,1.409858 71.44505,9.748344 22.71785,8.338485 43.53938,22.5529387 58.02404,41.939165 17.75549,23.763904 25.17032,54.13485 24.94075,83.798434 -0.22957,29.66357 -7.63658,58.83855 -17.17038,86.92925 -28.00857,82.5254 -74.53638,158.15307 -98.64006,241.9023 -23.37573,81.21994 -24.29223,170.50511 7.74314,248.71533 12.87298,31.42772 31.22231,61.14583 56.8454,83.43648 25.62308,22.29064 59.01546,36.6623 92.95795,35.51213 19.12021,-0.6479 37.94766,-6.14843 54.89066,-15.03309 16.943,-8.88466 32.03417,-21.09925 45.00705,-35.16007 25.94576,-28.12164 43.20166,-63.12495 57.36465,-98.66955 C 771.1463,559.3536 789.36534,461.11144 777.9368,364.9269 771.82394,313.48002 757.06915,262.55758 730.2336,218.24051 703.39806,173.92344 663.96977,136.47553 616.19576,116.43077 556.16657,91.244045 485.55459,95.335186 426.69372,123.14296 368.56218,150.60618 322.44976,199.24588 288.34688,253.74816 219.35294,364.01237 196.50098,502.17951 226.31795,628.78642 153.05615,522.23719 119.18582,389.23729 132.56035,260.62488 138.30577,205.37571 152.49163,151.01211 174.47448,100 Z"
   id="path871"
   inkscape:path-effect="#path-effect873"
   inkscape:original-d="M 174.47448,100 H 0 C 0,100 10.187745,389.8851 57.743139,524.55737 93.466157,625.7215 224.24897,800 224.24897,800 l 133.22631,-57.26955 c 0,0 -47.45865,-109.71998 -50.12356,-168.14479 -3.80144,-83.34203 -0.35811,-178.37898 49.36809,-245.36891 30.79011,-41.47968 85.08117,-69.13214 136.57587,-73.24197 63.76665,-5.08926 143.51749,11.15432 181.36848,62.72357 47.382,64.55456 36.89103,165.90629 6.84724,240.13374 -18.06981,44.64403 -56.07798,109.7709 -103.41684,100.90303 C 511.6223,647.28304 498.71521,542.55919 494.00864,475.09465 483.96909,331.18656 632.06784,203.61305 616.94687,60.149859 611.01475,3.8676711 582.17995,-56.519617 535.83822,-89.005294 451.83806,-147.88964 334.12542,-134.0902 231.54599,-135.01376 c -38.41929,-0.3459 -114.259,15.17684 -114.259,15.17684 l 15.66719,157.005112 c 0,0 71.03195,-30.1272993 108.82641,-34.9245772 89.29271,-11.3339875 206.32734,-48.3841508 269.57297,15.6598712 40.02911,40.534423 17.45619,114.588984 7.77037,170.727684 -14.80551,85.8123 -83.21883,156.19851 -98.64006,241.9023 -14.68897,81.63427 -29.48209,174.59245 7.74314,248.71533 28.61572,56.97961 86.10195,121.71739 149.80335,118.94861 C 650.1438,795.063 701.90763,713.33164 735.29272,649.3347 779.63056,564.34208 798.30271,458.60091 777.9368,364.9269 756.93991,268.3507 703.89608,161.99924 616.19576,116.43077 560.10814,87.288033 485.00885,98.761286 426.69372,123.14296 c -58.51063,24.46341 -108.55389,74.62009 -138.34684,130.6052 -59.52641,111.85842 -62.02893,375.03826 -62.02893,375.03826 0,0 -94.13045,-241.52463 -93.7576,-368.16154 C 132.72327,205.29064 174.47448,100 174.47448,100 Z"
   sodipodi:nodetypes="ccaccaaaaaaaaaaccaaaaaaaaaaacac" /></svg>
