<?xml version="1.0" encoding="UTF-8" standalone="no"?>
<svg
   xmlns:dc="http://purl.org/dc/elements/1.1/"
   xmlns:cc="http://creativecommons.org/ns#"
   xmlns:rdf="http://www.w3.org/1999/02/22-rdf-syntax-ns#"
   xmlns:svg="http://www.w3.org/2000/svg"
   xmlns="http://www.w3.org/2000/svg"
   xmlns:sodipodi="http://sodipodi.sourceforge.net/DTD/sodipodi-0.dtd"
   xmlns:inkscape="http://www.inkscape.org/namespaces/inkscape"
   xml:space="preserve"
   width="1000"
   height="1000"
   version="1.1"
   style="clip-rule:evenodd;fill-rule:evenodd;image-rendering:optimizeQuality;shape-rendering:geometricPrecision;text-rendering:geometricPrecision"
   viewBox="0 0 1000 1000"
   id="svg10"
   sodipodi:docname="ൾ.svg"
   inkscape:version="1.0.2 (e86c870879, 2021-01-15)"><metadata
   id="metadata14"><rdf:RDF><cc:Work
       rdf:about=""><dc:format>image/svg+xml</dc:format><dc:type
         rdf:resource="http://purl.org/dc/dcmitype/StillImage" /><dc:title /></cc:Work></rdf:RDF></metadata><sodipodi:namedview
   pagecolor="#ffffff"
   bordercolor="#666666"
   borderopacity="1"
   objecttolerance="10"
   gridtolerance="10"
   guidetolerance="10"
   inkscape:pageopacity="0"
   inkscape:pageshadow="2"
   inkscape:window-width="1920"
   inkscape:window-height="1007"
   id="namedview12"
   showgrid="false"
   inkscape:zoom="0.54793055"
   inkscape:cx="749.00133"
   inkscape:cy="485.44581"
   inkscape:window-x="1920"
   inkscape:window-y="0"
   inkscape:window-maximized="1"
   inkscape:current-layer="svg10"
   showguides="true"
   inkscape:guide-bbox="true"
   inkscape:document-rotation="0"><sodipodi:guide
   position="0,1000"
   orientation="0,1"
   id="guide16"
   inkscape:label=""
   inkscape:locked="true"
   inkscape:color="rgb(0,0,255)" /><sodipodi:guide
   position="1763.3122,2036.1693"
   orientation="1000,0"
   id="guide18" /><sodipodi:guide
   position="0,200"
   orientation="0,1"
   id="guide20"
   inkscape:label="base"
   inkscape:locked="true"
   inkscape:color="rgb(0,0,255)" /><inkscape:grid
   type="xygrid"
   id="grid24"
   originx="-473.37552"
   originy="-489.69235" /><sodipodi:guide
   position="0,0"
   orientation="0,1"
   id="guide34"
   inkscape:label="bottom"
   inkscape:locked="true"
   inkscape:color="rgb(0,0,255)" /><sodipodi:guide
   position="225.05109,1693.3186"
   orientation="0,1"
   id="guide44"
   inkscape:label=""
   inkscape:locked="false"
   inkscape:color="rgb(0,0,255)" /><sodipodi:guide
   position="0,900"
   orientation="0,1"
   id="guide46"
   inkscape:label=""
   inkscape:locked="true"
   inkscape:color="rgb(0,0,255)" /><sodipodi:guide
   position="768.28005,613.08921"
   orientation="1,0"
   id="guide841"
   inkscape:label="width" />    </sodipodi:namedview>
 <defs
   id="defs4"><inkscape:path-effect
   effect="fillet_chamfer"
   id="path-effect846"
   is_visible="true"
   lpeversion="1"
   satellites_param="F,0,1,1,0,38.681216,0,1 @ F,0,0,1,0,14.953281,0,1 @ F,0,0,1,0,0,0,1 @ F,0,0,1,0,22.9845,0,1 @ F,0,0,1,0,32.697019,0,1 @ F,0,0,1,0,0,0,1 @ F,0,0,1,0,0,0,1 @ F,0,0,1,0,0,0,1 @ F,0,0,1,0,0,0,1 @ F,0,0,1,0,0,0,1 @ F,0,0,1,0,0,0,1 @ F,0,0,1,0,0,0,1 @ F,0,0,1,0,0,0,1 @ F,0,0,1,0,0,0,1 @ F,0,0,1,0,0,0,1 @ F,0,0,1,0,0,0,1 @ F,0,0,1,0,0,0,1 @ F,0,0,1,0,0,0,1 @ F,0,0,1,0,0,0,1 @ F,0,0,1,0,0,0,1 @ F,0,0,1,0,0,0,1 @ F,0,0,1,0,0,0,1 @ F,0,0,1,0,0,0,1 @ F,0,0,1,0,28.74625,0,1 @ F,0,0,1,0,40.748205,0,1 @ F,0,0,1,0,0,0,1 @ F,0,0,1,0,0,0,1 @ F,0,0,1,0,0,0,1 @ F,0,0,1,0,0,0,1 @ F,0,0,1,0,0,0,1 @ F,0,0,1,0,0,0,1 @ F,0,0,1,0,0,0,1 @ F,0,0,1,0,0,0,1 @ F,0,0,1,0,0,0,1 @ F,0,0,1,0,0,0,1 @ F,0,0,1,0,0,0,1 @ F,0,0,1,0,0,0,1 @ F,0,0,1,0,0,0,1 @ F,0,0,1,0,0,0,1 @ F,0,0,1,0,0,0,1 @ F,0,0,1,0,0,0,1 @ F,0,0,1,0,0,0,1 @ F,0,0,1,0,0,0,1 @ F,0,0,1,0,0,0,1 @ F,0,0,1,0,0,0,1 @ F,0,0,1,0,0,0,1"
   unit="px"
   method="auto"
   mode="F"
   radius="0"
   chamfer_steps="1"
   flexible="false"
   use_knot_distance="true"
   apply_no_radius="true"
   apply_with_radius="true"
   only_selected="true"
   hide_knots="false" /><inkscape:path-effect
   effect="spiro"
   id="path-effect845"
   is_visible="true"
   lpeversion="1" /><inkscape:path-effect
   effect="spiro"
   id="path-effect844"
   is_visible="true"
   lpeversion="1" />
  <style
   type="text/css"
   id="style2">
   <![CDATA[
    .fil0 {fill:#EF7F1A;fill-rule:nonzero}
   ]]>
  </style>
 <inkscape:path-effect
   effect="spiro"
   id="path-effect1214"
   is_visible="true"
   lpeversion="1" /><inkscape:path-effect
   effect="spiro"
   id="path-effect1195"
   is_visible="true"
   lpeversion="1" /><inkscape:path-effect
   effect="spiro"
   id="path-effect992"
   is_visible="true"
   lpeversion="1" /><inkscape:path-effect
   effect="spiro"
   id="path-effect873"
   is_visible="true"
   lpeversion="1" /></defs>
 
<path
   style="clip-rule:evenodd;fill:#2d2d2d;fill-rule:nonzero;stroke:none;stroke-width:7.56547px;stroke-linecap:butt;stroke-linejoin:miter;stroke-opacity:1;image-rendering:optimizeQuality;shape-rendering:geometricPrecision;text-rendering:geometricPrecision"
   d="M 144.59372,125.78256 40.611959,103.17668 c -8.069962,-1.75443 -16.218828,3.32327 -18.021116,11.38254 -30.23408,135.19736 -22.90019733,278.63783 21.152296,409.99815 33.198734,98.99544 86.993181,191.02044 156.866281,268.60068 8.49492,9.43193 25.09358,12.77798 36.75572,7.76481 l 82.07094,-35.27956 c 16.59019,-7.13157 22.04484,-25.20387 13.45494,-41.08355 -26.4469,-48.89094 -43.89866,-102.64829 -51.08175,-157.77243 -10.90206,-83.66402 2.99303,-172.56052 50.2766,-242.43746 22.48969,-33.23587 52.3948,-61.80337 87.94812,-80.41439 35.55333,-18.61103 76.84949,-26.9292 116.52794,-20.92675 55.894,8.4555 105.77258,45.56945 133.78399,94.67134 20.74735,36.36855 30.11978,78.78424 28.87104,120.63594 -1.24874,41.8517 -12.89541,83.10884 -31.70556,120.51609 -15.34268,30.51157 -36.31341,59.4247 -65.79376,76.66601 -14.74017,8.62065 -31.44441,14.11375 -48.50525,14.83204 -17.06085,0.71829 -34.45506,-3.47413 -48.75807,-12.80216 -12.38632,-8.07802 -22.21074,-19.81297 -28.83178,-33.03558 -6.62103,-13.2226 -10.11166,-27.89556 -11.10325,-42.64996 -1.98318,-29.50878 5.83373,-58.793 15.48935,-86.74779 23.85661,-69.06925 59.16965,-133.58341 86.47542,-201.36316 27.30576,-67.77975 46.7285,-141.23307 36.46281,-213.581631 C 594.80644,2.7793036 566.90977,-52.588226 521.83822,-89.005294 480.78375,-122.17663 427.95809,-138.16854 375.3828,-142.821 c -52.5753,-4.65247 -105.46041,1.28654 -157.83681,7.80724 -28.61827,3.56289 -57.21461,7.30183 -85.78688,11.21654 -15.72915,2.15507 -28.495,16.83041 -28.52323,32.706505 l -0.16195,91.07553742 c -0.04,22.50457658 16.06527,32.22677958 36.33164,22.44477358 25.85556,-12.4797486 52.13787,-24.0753637 78.78594,-34.758746 47.15907,-18.906376 96.67603,-35.152987 147.47316,-34.113404 25.39856,0.519791 50.86964,5.469827 73.94123,16.102746 23.07159,10.632918 43.67292,27.0947937 57.74766,48.243294 16.33924,24.551118 23.34456,54.524344 23.38476,84.015474 0.0402,29.49113 -6.55501,58.647 -15.61439,86.71221 -26.77517,82.94728 -74.99039,158.01038 -98.64006,241.9023 -22.87975,81.16079 -21.41687,169.59359 7.74314,248.71533 9.17894,24.90582 21.15827,49.05028 38.08774,69.49401 16.92946,20.44372 39.09692,37.08035 64.5397,44.64458 21.91545,6.51554 45.64929,6.08854 67.71728,0.11002 22.068,-5.97852 42.49297,-17.37389 60.10092,-31.95811 35.21589,-29.16845 58.65446,-70.15471 76.62007,-112.2046 C 759.39893,560.1442 776.04374,461.15814 763.9368,364.9269 757.47433,313.56037 742.69911,262.72642 715.93979,218.40686 689.18048,174.0873 649.90365,136.53653 602.19576,116.43077 542.19774,91.145524 471.5506,95.304611 412.69372,123.14296 c -58.11735,27.48856 -104.23501,76.11088 -138.34684,130.6052 -69.01589,110.25423 -91.8699,248.43374 -62.02893,375.03826 -47.4772,-42.16371 -83.17023,-97.4602 -102.0431,-158.08757 -18.872862,-60.62737 -20.871703,-126.41262 -5.7145,-188.07397 10.4018,-42.31579 28.82759,-82.62818 53.88291,-118.27433 12.27846,-17.46854 7.02587,-34.02962 -13.84954,-38.56799 z"
   id="path871"
   inkscape:path-effect="#path-effect873;#path-effect846"
   inkscape:original-d="M 182.392,134 26,100 C 26,100 2.8754139,388.93852 43.743139,524.55737 75.819667,631.00278 216.24897,810 216.24897,810 l 133.22631,-57.26955 c 0,0 -62.90378,-120.15777 -67.66601,-185.94313 -5.95893,-82.31652 -0.16669,-177.11525 50.2766,-242.43746 46.49409,-60.20814 128.63598,-107.25743 204.47606,-101.34114 54.46543,4.24885 108.96437,46.00388 133.78399,94.67134 36.52216,71.61434 40.3056,173.31832 -2.83452,241.15203 -32.38689,50.92528 -109.69057,106.8794 -163.05708,78.69589 C 456.03724,611.95834 476.21554,529.71729 480.00864,475.09465 490.00212,331.18335 618.06784,203.61305 602.94687,60.149859 597.01475,3.8676711 568.17995,-56.519617 521.83822,-89.005294 437.83806,-147.88964 320.12542,-134.0902 217.54599,-135.01376 c -38.41929,-0.3459 -114.259,15.17684 -114.259,15.17684 l -0.28551,160.569883 c 0,0 73.46818,-46.2477778 115.19003,-53.062113 92.37414,-15.087259 215.07485,-37.983473 279.16205,30.232636 39.00643,41.519478 17.45619,114.588984 7.77037,170.727684 -14.80551,85.8123 -83.21883,156.19851 -98.64006,241.9023 -14.68897,81.63427 -23.15642,171.74042 7.74314,248.71533 19.06019,47.48145 51.78557,108.4042 102.62744,114.13859 82.83888,9.34328 160.65888,-73.10947 204.43827,-144.05269 C 771.63566,567.75542 784.30271,458.60091 763.9368,364.9269 742.93991,268.3507 689.89608,161.99924 602.19576,116.43077 546.10814,87.288033 471.00885,98.761286 412.69372,123.14296 c -58.51063,24.46341 -108.55389,74.62009 -138.34684,130.6052 -59.52641,111.85842 -62.02893,375.03826 -62.02893,375.03826 0,0 -118.656956,-225.80543 -107.7576,-346.16154 C 109.60412,226.92911 182.392,134 182.392,134 Z"
   sodipodi:nodetypes="ccaccaaaaaaaaaaccaaaaaaaaaaacac" /></svg>
