<?xml version="1.0" encoding="UTF-8"?>
<!DOCTYPE svg PUBLIC "-//W3C//DTD SVG 1.1//EN" "http://www.w3.org/Graphics/SVG/1.1/DTD/svg11.dtd">
<!-- Creator: CorelDRAW X8 -->
<svg xmlns="http://www.w3.org/2000/svg" xml:space="preserve" width="478px" height="653px" version="1.1" style="shape-rendering:geometricPrecision; text-rendering:geometricPrecision; image-rendering:optimizeQuality; fill-rule:evenodd; clip-rule:evenodd"
viewBox="0 0 478 653"
 xmlns:xlink="http://www.w3.org/1999/xlink">
 <defs>
  <style type="text/css">
   <![CDATA[
    .fil0 {fill:#EF7F1A;fill-rule:nonzero}
   ]]>
  </style>
 </defs>
 <g id="Layer_x0020_1">
  <metadata id="CorelCorpID_0Corel-Layer"/>
  <path class="fil0" d="M410 653c21,0 65,-9 65,-36 0,-26 -44,-35 -65,-35l-279 0c3,-30 9,-62 24,-87 21,-35 61,-52 96,-69 99,-48 227,-111 227,-231 0,-128 -121,-195 -236,-195 -48,0 -97,9 -140,32 -54,29 -99,92 -99,155 0,7 0,14 1,20 5,27 51,32 66,32 21,0 64,-9 64,-35 0,-45 13,-88 44,-112 16,-13 37,-21 64,-21 63,0 105,63 105,122 0,94 -107,143 -182,180 -52,26 -101,47 -133,99 -26,43 -32,96 -32,145 0,27 44,36 65,36l345 0z"/>
 </g>
</svg>
