<?xml version="1.0" encoding="UTF-8"?>
<!DOCTYPE svg PUBLIC "-//W3C//DTD SVG 1.1//EN" "http://www.w3.org/Graphics/SVG/1.1/DTD/svg11.dtd">
<!-- Creator: CorelDRAW X8 -->
<svg xmlns="http://www.w3.org/2000/svg" xml:space="preserve" width="551px" height="677px" version="1.1" style="shape-rendering:geometricPrecision; text-rendering:geometricPrecision; image-rendering:optimizeQuality; fill-rule:evenodd; clip-rule:evenodd"
viewBox="0 0 551 677"
 xmlns:xlink="http://www.w3.org/1999/xlink">
 <defs>
  <style type="text/css">
   <![CDATA[
    .fil0 {fill:#EF7F1A;fill-rule:nonzero}
   ]]>
  </style>
 </defs>
 <g id="Layer_x0020_1">
  <metadata id="CorelCorpID_0Corel-Layer"/>
  <path class="fil0" d="M369 677c21,0 66,-9 66,-37l0 -130 50 0c21,0 66,-9 66,-36 0,-27 -45,-36 -66,-36l-50 0 0 -401c0,-28 -45,-37 -66,-37 -21,0 -50,7 -62,25l-302 435c-3,4 -5,9 -5,14 0,27 45,36 66,36l237 0 0 130c0,28 45,37 66,37zm-66 -239l-176 0 176 -256 0 256z"/>
 </g>
</svg>
