<?xml version="1.0" encoding="UTF-8"?>
<!DOCTYPE svg PUBLIC "-//W3C//DTD SVG 1.1//EN" "http://www.w3.org/Graphics/SVG/1.1/DTD/svg11.dtd">
<!-- Creator: CorelDRAW X8 -->
<svg xmlns="http://www.w3.org/2000/svg" xml:space="preserve" width="503px" height="677px" version="1.1" style="shape-rendering:geometricPrecision; text-rendering:geometricPrecision; image-rendering:optimizeQuality; fill-rule:evenodd; clip-rule:evenodd"
viewBox="0 0 503 677"
 xmlns:xlink="http://www.w3.org/1999/xlink">
 <defs>
  <style type="text/css">
   <![CDATA[
    .fil0 {fill:#EF7F1A;fill-rule:nonzero}
   ]]>
  </style>
 </defs>
 <g id="Layer_x0020_1">
  <metadata id="CorelCorpID_0Corel-Layer"/>
  <path class="fil0" d="M261 677c135,0 242,-83 242,-221 0,-137 -107,-220 -242,-220 -45,0 -90,10 -128,34 2,-28 7,-57 17,-84 18,-53 59,-114 122,-114 44,0 79,52 88,89 6,24 45,31 66,31 22,0 71,-10 64,-40 -23,-103 -118,-152 -218,-152 -117,0 -199,60 -242,167 -22,55 -29,115 -30,174 -1,43 3,87 12,128 28,133 108,208 249,208zm0 -72c-75,0 -110,-86 -110,-149 0,-62 35,-148 110,-148 75,0 110,86 110,148 0,63 -35,149 -110,149z"/>
 </g>
</svg>
