<?xml version="1.0" encoding="UTF-8"?>
<!DOCTYPE svg PUBLIC "-//W3C//DTD SVG 1.1//EN" "http://www.w3.org/Graphics/SVG/1.1/DTD/svg11.dtd">
<!-- Creator: CorelDRAW X8 -->
<svg xmlns="http://www.w3.org/2000/svg" xml:space="preserve" width="1006px" height="1381px" version="1.1" style="shape-rendering:geometricPrecision; text-rendering:geometricPrecision; image-rendering:optimizeQuality; fill-rule:evenodd; clip-rule:evenodd"
viewBox="0 0 1006 1381"
 xmlns:xlink="http://www.w3.org/1999/xlink">
 <defs>
  <style type="text/css">
   <![CDATA[
    .fil0 {fill:#EF7F1A;fill-rule:nonzero}
   ]]>
  </style>
 </defs>
 <g id="Layer_x0020_1">
  <metadata id="CorelCorpID_0Corel-Layer"/>
  <path class="fil0" d="M429 1381c34,0 100,-14 102,-54 13,-237 49,-471 134,-694 78,-204 191,-383 330,-552 8,-9 11,-18 11,-27 0,-14 -10,-28 -28,-37 -23,-12 -55,-17 -74,-17l-802 0c-33,0 -102,14 -102,56 0,42 69,56 102,56l648 0c-118,154 -214,318 -283,499 -80,209 -136,491 -139,714 -1,42 69,56 101,56z"/>
 </g>
</svg>
