<?xml version="1.0" encoding="UTF-8"?>
<!DOCTYPE svg PUBLIC "-//W3C//DTD SVG 1.1//EN" "http://www.w3.org/Graphics/SVG/1.1/DTD/svg11.dtd">
<!-- Creator: CorelDRAW X8 -->
<svg xmlns="http://www.w3.org/2000/svg" xml:space="preserve" width="500px" height="653px" version="1.1" style="shape-rendering:geometricPrecision; text-rendering:geometricPrecision; image-rendering:optimizeQuality; fill-rule:evenodd; clip-rule:evenodd"
viewBox="0 0 500 653"
 xmlns:xlink="http://www.w3.org/1999/xlink">
 <defs>
  <style type="text/css">
   <![CDATA[
    .fil0 {fill:#EF7F1A;fill-rule:nonzero}
   ]]>
  </style>
 </defs>
 <g id="Layer_x0020_1">
  <metadata id="CorelCorpID_0Corel-Layer"/>
  <path class="fil0" d="M214 653c21,0 66,-8 67,-35 6,-107 22,-214 61,-316 35,-92 88,-174 151,-251 5,-6 7,-12 7,-17 0,-11 -11,-20 -24,-25 -15,-6 -32,-9 -41,-9l-370 0c-21,0 -65,9 -65,36 0,26 44,35 65,35l271 0c-49,67 -91,139 -121,217 -35,92 -64,231 -64,330 0,25 43,35 63,35z"/>
 </g>
</svg>
