<?xml version="1.0" encoding="UTF-8" standalone="no"?>
<svg
   xmlns:dc="http://purl.org/dc/elements/1.1/"
   xmlns:cc="http://creativecommons.org/ns#"
   xmlns:rdf="http://www.w3.org/1999/02/22-rdf-syntax-ns#"
   xmlns:svg="http://www.w3.org/2000/svg"
   xmlns="http://www.w3.org/2000/svg"
   xmlns:sodipodi="http://sodipodi.sourceforge.net/DTD/sodipodi-0.dtd"
   xmlns:inkscape="http://www.inkscape.org/namespaces/inkscape"
   xml:space="preserve"
   width="1000"
   height="1000"
   version="1.1"
   style="clip-rule:evenodd;fill-rule:evenodd;image-rendering:optimizeQuality;shape-rendering:geometricPrecision;text-rendering:geometricPrecision"
   viewBox="0 0 1000 1000"
   id="svg10"
   sodipodi:docname="8.svg"
   inkscape:version="1.0.1 (3bc2e813f5, 2020-09-07)"><metadata
   id="metadata14"><rdf:RDF><cc:Work
       rdf:about=""><dc:format>image/svg+xml</dc:format><dc:type
         rdf:resource="http://purl.org/dc/dcmitype/StillImage" /><dc:title /></cc:Work></rdf:RDF></metadata><sodipodi:namedview
   pagecolor="#ffffff"
   bordercolor="#666666"
   borderopacity="1"
   objecttolerance="10"
   gridtolerance="10"
   guidetolerance="10"
   inkscape:pageopacity="0"
   inkscape:pageshadow="2"
   inkscape:window-width="1920"
   inkscape:window-height="1015"
   id="namedview12"
   showgrid="false"
   inkscape:zoom="0.6002692"
   inkscape:cx="300.73619"
   inkscape:cy="619.27872"
   inkscape:window-x="1920"
   inkscape:window-y="0"
   inkscape:window-maximized="1"
   inkscape:current-layer="svg10"
   showguides="true"
   inkscape:guide-bbox="true"
   inkscape:document-rotation="0"><sodipodi:guide
     position="0,1000"
     orientation="0,1"
     id="guide16"
     inkscape:label=""
     inkscape:locked="true"
     inkscape:color="rgb(0,0,255)" /><sodipodi:guide
     position="1763.3122,2036.1693"
     orientation="1000,0"
     id="guide18" /><sodipodi:guide
     position="0,200"
     orientation="0,1"
     id="guide20"
     inkscape:label="base"
     inkscape:locked="true"
     inkscape:color="rgb(0,0,255)" /><inkscape:grid
     type="xygrid"
     id="grid24"
     originx="-473.37552"
     originy="-489.69235" /><sodipodi:guide
     position="0,0"
     orientation="0,1"
     id="guide34"
     inkscape:label="bottom"
     inkscape:locked="true"
     inkscape:color="rgb(0,0,255)" /><sodipodi:guide
     position="225.05109,1693.3186"
     orientation="0,1"
     id="guide44"
     inkscape:label=""
     inkscape:locked="false"
     inkscape:color="rgb(0,0,255)" /><sodipodi:guide
     position="0,900"
     orientation="0,1"
     id="guide46"
     inkscape:label=""
     inkscape:locked="true"
     inkscape:color="rgb(0,0,255)" /><sodipodi:guide
     position="479.442,877.39146"
     orientation="-1,0"
     id="guide841"
     inkscape:label="width"
     inkscape:locked="false"
     inkscape:color="rgb(0,0,255)" /></sodipodi:namedview>
 <defs
   id="defs4"><inkscape:path-effect
   effect="spiro"
   id="path-effect878"
   is_visible="true"
   lpeversion="1" /><inkscape:path-effect
   effect="spiro"
   id="path-effect875"
   is_visible="true"
   lpeversion="1" /><inkscape:path-effect
   effect="spiro"
   id="path-effect856"
   is_visible="true"
   lpeversion="1" /><inkscape:path-effect
   effect="spiro"
   id="path-effect852"
   is_visible="true"
   lpeversion="1" /><inkscape:path-effect
   effect="spiro"
   id="path-effect850"
   is_visible="true"
   lpeversion="1" /><inkscape:path-effect
   effect="spiro"
   id="path-effect851"
   is_visible="true"
   lpeversion="1" />
  <style
   type="text/css"
   id="style2">
   <![CDATA[
    .fil0 {fill:#EF7F1A;fill-rule:nonzero}
   ]]>
  </style>
 <inkscape:path-effect
   effect="spiro"
   id="path-effect1214"
   is_visible="true"
   lpeversion="1" /><inkscape:path-effect
   effect="spiro"
   id="path-effect1195"
   is_visible="true"
   lpeversion="1" /><inkscape:path-effect
   effect="spiro"
   id="path-effect992"
   is_visible="true"
   lpeversion="1" /><inkscape:path-effect
   effect="spiro"
   id="path-effect1060"
   is_visible="true"
   lpeversion="1" /><inkscape:path-effect
   effect="spiro"
   id="path-effect1047"
   is_visible="true"
   lpeversion="1" /><inkscape:path-effect
   effect="spiro"
   id="path-effect1085"
   is_visible="true"
   lpeversion="1" /><inkscape:path-effect
   effect="spiro"
   id="path-effect1286"
   is_visible="true"
   lpeversion="1" /><inkscape:path-effect
   effect="spiro"
   id="path-effect1305"
   is_visible="true"
   lpeversion="1" /></defs>
 
<path
   id="path854-3"
   style="clip-rule:evenodd;fill:#2d2d2d;fill-rule:evenodd;stroke:#000000;stroke-width:1.28931px;stroke-linecap:butt;stroke-linejoin:miter;stroke-opacity:1;image-rendering:optimizeQuality;shape-rendering:geometricPrecision;text-rendering:geometricPrecision"
   d="m 98.895476,597.44774 c 2.694034,-15.42552 10.149404,-29.86233 20.499314,-41.61323 10.34991,-11.7509 23.52096,-20.8674 37.80885,-27.27527 28.57576,-12.81573 60.89209,-14.75639 92.14106,-12.67806 28.149,1.87215 56.70983,7.0656 81.23448,21.00879 12.26233,6.97159 23.37699,16.10762 31.97388,27.2907 8.59688,11.18309 14.6207,24.45054 16.60994,38.41516 2.32595,16.32838 -0.94946,33.26211 -8.34459,48.0045 -7.39513,14.74239 -18.79257,27.32148 -32.18469,36.94836 -26.78426,19.25376 -60.59348,26.42699 -93.5654,27.40487 -35.84142,1.06298 -73.10281,-5.17302 -102.66271,-25.46957 C 127.62566,679.33572 115.0623,665.74794 107.07189,649.6984 99.081486,633.64885 95.810973,615.109 98.895476,597.44774 Z m 2.440484,-327.90788 c 1.9106,-13.79768 8.1082,-26.85317 16.92747,-37.63495 8.81928,-10.78177 20.19256,-19.33949 32.61573,-25.63958 24.84634,-12.60018 53.28079,-16.13079 81.12328,-17.07999 31.17798,-1.06291 63.38095,1.09507 91.51401,14.57569 14.06652,6.74031 26.90235,16.30842 36.54391,28.56971 9.64157,12.26129 15.98295,27.281 16.98076,42.8471 1.0206,15.92167 -3.58559,31.99242 -12.00691,45.54316 -8.42132,13.55073 -20.53399,24.63104 -34.26063,32.7625 -27.45328,16.26291 -60.40046,20.60915 -92.3088,20.45918 -32.63082,-0.15336 -66.36123,-5.05254 -93.95287,-22.47366 -13.79582,-8.71056 -25.78781,-20.51395 -33.7292,-34.76642 -7.94138,-14.25247 -11.684661,-31.00136 -9.44675,-47.16274 z M 148.1269,433.73789 C 107.89197,425.36316 71.364203,400.43218 48.903336,366.01568 26.442469,331.59918 18.32786,288.12523 26.860914,247.92358 c 9.77656,-46.06017 40.761425,-86.33751 80.621646,-111.40309 39.86022,-25.06557 87.9237,-35.54708 134.98067,-33.8852 48.53853,1.7142 97.28389,16.44936 135.7627,46.08563 38.47881,29.63628 65.7894,74.8511 69.29911,123.29291 2.63932,36.42851 -8.31275,73.6848 -30.24607,102.88979 -21.93331,29.205 -54.65987,50.10838 -90.38015,57.72835 39.0602,5.41094 75.97754,25.12956 102.19478,54.58518 26.21724,29.45562 41.52253,68.41024 42.36818,107.83437 1.19357,55.64393 -26.50676,110.05117 -68.9102,146.1014 -42.40345,36.05023 -98.23312,54.45978 -153.85741,56.35965 C 186.40915,799.63994 122.37559,780.85719 75.489953,739.80009 52.047133,719.27153 33.1409,693.43257 21.532826,664.51476 9.9247524,635.59694 5.7228256,603.61587 10.386779,572.80621 15.608551,538.31166 32.034717,505.60433 56.585287,480.81703 81.135857,456.02972 113.68405,439.29044 148.1269,433.73789 Z"
   sodipodi:nodetypes="aaaaaaaacacaaacaacc"
   inkscape:path-effect="#path-effect878"
   inkscape:original-d="m 98.895476,597.44774 c 5.135864,-56.8142 93.463844,-84.19273 150.449224,-81.56656 51.98351,2.39566 126.996,34.75256 129.8183,86.71465 3.16269,58.22907 -75.7828,111.76519 -134.09468,112.35773 C 182.55567,715.58879 93.267146,659.70974 98.895476,597.44774 Z m 2.440484,-327.90788 c 2.53968,-51.06916 79.53588,-79.94117 130.66648,-80.35452 56.20307,-0.45437 142.67798,29.83719 145.03868,85.9925 2.38248,56.67334 -89.1879,97.03269 -138.57634,98.76484 C 182.75146,372.792 98.482499,326.9187 101.33596,269.53986 Z M 148.1269,433.73789 C 84.75928,387.77801 12.181292,320.41341 26.860914,247.92358 44.061387,162.98547 155.9038,98.415925 242.46323,102.63529 c 88.55115,4.31644 194.61318,81.34012 205.06181,169.37854 7.89122,66.49012 -64.77815,122.34844 -120.62622,160.61814 85.20219,15.59081 148.39605,90.0422 144.56296,162.41955 C 466.15514,695.25267 349.03152,798.43327 248.69417,797.51257 139.5183,796.51076 -9.7262126,703.89535 10.386779,572.80621 23.75417,506.1138 90.516603,419.46569 148.1269,433.73789 Z" /></svg>
