<?xml version="1.0" encoding="UTF-8"?>
<!DOCTYPE svg PUBLIC "-//W3C//DTD SVG 1.1//EN" "http://www.w3.org/Graphics/SVG/1.1/DTD/svg11.dtd">
<!-- Creator: CorelDRAW X8 -->
<svg xmlns="http://www.w3.org/2000/svg" xml:space="preserve" width="501px" height="677px" version="1.1" style="shape-rendering:geometricPrecision; text-rendering:geometricPrecision; image-rendering:optimizeQuality; fill-rule:evenodd; clip-rule:evenodd"
viewBox="0 0 501 677"
 xmlns:xlink="http://www.w3.org/1999/xlink">
 <defs>
  <style type="text/css">
   <![CDATA[
    .fil0 {fill:#EF7F1A;fill-rule:nonzero}
   ]]>
  </style>
 </defs>
 <g id="Layer_x0020_1">
  <metadata id="CorelCorpID_0Corel-Layer"/>
  <path class="fil0" d="M483 180c0,-123 -122,-180 -232,-180 -111,0 -233,57 -233,180 0,62 31,111 85,142 -64,34 -103,89 -103,161 0,132 131,194 251,194 119,0 250,-62 250,-194 0,-72 -39,-127 -103,-161 54,-31 85,-80 85,-142zm-131 0c0,58 -40,108 -101,108 -62,0 -102,-50 -102,-108 0,-58 40,-108 102,-108 61,0 101,50 101,108zm17 303c0,68 -47,122 -118,122 -72,0 -119,-54 -119,-122 0,-69 47,-122 119,-122 71,0 118,53 118,122z"/>
 </g>
</svg>
