<?xml version="1.0" encoding="UTF-8"?>
<!DOCTYPE svg PUBLIC "-//W3C//DTD SVG 1.1//EN" "http://www.w3.org/Graphics/SVG/1.1/DTD/svg11.dtd">
<!-- Creator: CorelDRAW X8 -->
<svg xmlns="http://www.w3.org/2000/svg" xml:space="preserve" width="1046px" height="1024px" version="1.1" style="shape-rendering:geometricPrecision; text-rendering:geometricPrecision; image-rendering:optimizeQuality; fill-rule:evenodd; clip-rule:evenodd"
viewBox="0 0 1046 1024"
 xmlns:xlink="http://www.w3.org/1999/xlink">
 <defs>
  <style type="text/css">
   <![CDATA[
    .fil0 {fill:#EF7F1A;fill-rule:nonzero}
   ]]>
  </style>
 </defs>
 <g id="Layer_x0020_1">
  <metadata id="CorelCorpID_0Corel-Layer"/>
  <path class="fil0" d="M944 1024c26,0 51,-4 71,-15 20,-10 31,-26 31,-41 0,-13 -9,-27 -28,-38 -58,-33 -65,-104 -65,-163l0 -431c0,-247 -256,-336 -463,-336 -112,0 -233,26 -326,87 -69,46 -134,120 -134,206 0,42 69,55 100,55 33,0 102,-12 102,-55 0,-56 42,-105 87,-134 50,-32 111,-48 171,-48 139,0 261,73 261,225l0 95c-39,21 -99,26 -161,26 -55,0 -124,-4 -166,-4 -197,0 -424,38 -424,280 0,214 235,291 418,291 114,0 279,-24 365,-124 15,56 50,85 88,107 20,12 47,17 73,17zm-526 -111c-115,0 -215,-56 -215,-180 0,-145 98,-170 221,-170 62,0 125,5 187,5 47,0 94,-2 140,-10l0 96c0,166 -183,259 -333,259z"/>
 </g>
</svg>
