<?xml version="1.0" encoding="UTF-8"?>
<!DOCTYPE svg PUBLIC "-//W3C//DTD SVG 1.1//EN" "http://www.w3.org/Graphics/SVG/1.1/DTD/svg11.dtd">
<!-- Creator: CorelDRAW X8 -->
<svg xmlns="http://www.w3.org/2000/svg" xml:space="preserve" width="1363px" height="1405px" version="1.1" style="shape-rendering:geometricPrecision; text-rendering:geometricPrecision; image-rendering:optimizeQuality; fill-rule:evenodd; clip-rule:evenodd"
viewBox="0 0 1363 1405"
 xmlns:xlink="http://www.w3.org/1999/xlink">
 <defs>
  <style type="text/css">
   <![CDATA[
    .fil0 {fill:#EF7F1A;fill-rule:nonzero}
   ]]>
  </style>
 </defs>
 <g id="Layer_x0020_1">
  <metadata id="CorelCorpID_0Corel-Layer"/>
  <path class="fil0" d="M1256 1405c32,0 107,-13 107,-54 0,-4 -1,-8 -3,-13l-572 -1296c-15,-33 -70,-42 -104,-42 -32,0 -100,8 -114,41l-568 1315c-1,3 -2,6 -2,9 0,25 41,40 81,40 33,0 66,-10 75,-31l184 -427 623 0 183 415c14,32 70,43 110,43zm-343 -570l-524 0 259 -601 265 601z"/>
 </g>
</svg>
