<?xml version="1.0" encoding="UTF-8"?>
<!DOCTYPE svg PUBLIC "-//W3C//DTD SVG 1.1//EN" "http://www.w3.org/Graphics/SVG/1.1/DTD/svg11.dtd">
<!-- Creator: CorelDRAW X8 -->
<svg xmlns="http://www.w3.org/2000/svg" xml:space="preserve" width="1156px" height="1405px" version="1.1" style="shape-rendering:geometricPrecision; text-rendering:geometricPrecision; image-rendering:optimizeQuality; fill-rule:evenodd; clip-rule:evenodd"
viewBox="0 0 1156 1405"
 xmlns:xlink="http://www.w3.org/1999/xlink">
 <defs>
  <style type="text/css">
   <![CDATA[
    .fil0 {fill:#EF7F1A;fill-rule:nonzero}
   ]]>
  </style>
 </defs>
 <g id="Layer_x0020_1">
  <metadata id="CorelCorpID_0Corel-Layer"/>
  <path class="fil0" d="M425 1405c159,0 305,-60 418,-170l120 138c20,23 57,31 91,31 34,0 102,-13 102,-55 0,-7 -2,-15 -10,-24l-197 -226c63,-106 100,-234 101,-357 0,-36 -50,-56 -100,-56 -50,0 -101,19 -102,56 -1,67 -13,135 -35,200l-126 -148 -122 -145c135,-82 275,-194 275,-365 0,-194 -181,-284 -357,-284 -160,0 -364,86 -364,268 0,132 124,262 205,359 -167,99 -324,218 -324,428 0,230 219,350 425,350zm47 -868c-60,-72 -150,-171 -150,-269 0,-87 74,-156 161,-156 98,0 154,82 154,172 0,111 -77,194 -165,253zm-47 756c-134,0 -222,-115 -222,-243 0,-144 98,-239 213,-313 43,52 90,108 138,164l176 204c-68,97 -179,188 -305,188z"/>
 </g>
</svg>
