<?xml version="1.0" encoding="UTF-8"?>
<!DOCTYPE svg PUBLIC "-//W3C//DTD SVG 1.1//EN" "http://www.w3.org/Graphics/SVG/1.1/DTD/svg11.dtd">
<!-- Creator: CorelDRAW X8 -->
<svg xmlns="http://www.w3.org/2000/svg" xml:space="preserve" width="1096px" height="1405px" version="1.1" style="shape-rendering:geometricPrecision; text-rendering:geometricPrecision; image-rendering:optimizeQuality; fill-rule:evenodd; clip-rule:evenodd"
viewBox="0 0 1096 1405"
 xmlns:xlink="http://www.w3.org/1999/xlink">
 <defs>
  <style type="text/css">
   <![CDATA[
    .fil0 {fill:#EF7F1A;fill-rule:nonzero}
   ]]>
  </style>
 </defs>
 <g id="Layer_x0020_1">
  <metadata id="CorelCorpID_0Corel-Layer"/>
  <path class="fil0" d="M747 1405c56,0 102,-25 102,-56l0 -301 145 0c56,0 102,-25 102,-56 0,-31 -46,-56 -102,-56l-745 0 593 -860c5,-7 7,-14 7,-20 0,-28 -40,-47 -66,-52 -11,-2 -23,-4 -36,-4 -36,0 -76,10 -94,36l-644 933c-5,8 -9,15 -9,23 0,31 46,56 102,56l544 0 0 301c0,31 45,56 101,56z"/>
 </g>
</svg>
