<?xml version="1.0" encoding="UTF-8" standalone="no"?>
<svg
   xmlns:dc="http://purl.org/dc/elements/1.1/"
   xmlns:cc="http://creativecommons.org/ns#"
   xmlns:rdf="http://www.w3.org/1999/02/22-rdf-syntax-ns#"
   xmlns:svg="http://www.w3.org/2000/svg"
   xmlns="http://www.w3.org/2000/svg"
   xmlns:sodipodi="http://sodipodi.sourceforge.net/DTD/sodipodi-0.dtd"
   xmlns:inkscape="http://www.inkscape.org/namespaces/inkscape"
   xml:space="preserve"
   width="1000"
   height="1000"
   version="1.1"
   style="clip-rule:evenodd;fill-rule:evenodd;image-rendering:optimizeQuality;shape-rendering:geometricPrecision;text-rendering:geometricPrecision"
   viewBox="0 0 1000 1000"
   id="svg10"
   sodipodi:docname="archaic_na.svg"
   inkscape:version="1.0.1 (3bc2e813f5, 2020-09-07)"><metadata
   id="metadata14"><rdf:RDF><cc:Work
       rdf:about=""><dc:format>image/svg+xml</dc:format><dc:type
         rdf:resource="http://purl.org/dc/dcmitype/StillImage" /><dc:title /></cc:Work></rdf:RDF></metadata><sodipodi:namedview
   pagecolor="#ffffff"
   bordercolor="#666666"
   borderopacity="1"
   objecttolerance="10"
   gridtolerance="10"
   guidetolerance="10"
   inkscape:pageopacity="0"
   inkscape:pageshadow="2"
   inkscape:window-width="1920"
   inkscape:window-height="1051"
   id="namedview12"
   showgrid="false"
   inkscape:zoom="0.9588368"
   inkscape:cx="315.44364"
   inkscape:cy="505.33877"
   inkscape:window-x="0"
   inkscape:window-y="0"
   inkscape:window-maximized="1"
   inkscape:current-layer="svg10"
   showguides="true"
   inkscape:guide-bbox="true"
   inkscape:document-rotation="0"
   inkscape:snap-to-guides="true"><sodipodi:guide
     position="0,1000"
     orientation="0,1"
     id="guide16"
     inkscape:label=""
     inkscape:locked="true"
     inkscape:color="rgb(0,0,255)" /><sodipodi:guide
     position="1763.3122,2036.1693"
     orientation="1000,0"
     id="guide18" /><sodipodi:guide
     position="0,200"
     orientation="0,1"
     id="guide20"
     inkscape:label="base"
     inkscape:locked="true"
     inkscape:color="rgb(0,0,255)" /><inkscape:grid
     type="xygrid"
     id="grid24"
     originx="-473.37552"
     originy="-489.69235" /><sodipodi:guide
     position="0,0"
     orientation="0,1"
     id="guide34"
     inkscape:label="bottom"
     inkscape:locked="true"
     inkscape:color="rgb(0,0,255)" /><sodipodi:guide
     position="225.05109,1693.3186"
     orientation="0,1"
     id="guide44"
     inkscape:label=""
     inkscape:locked="false"
     inkscape:color="rgb(0,0,255)" /><sodipodi:guide
     position="0,900"
     orientation="0,1"
     id="guide46"
     inkscape:label=""
     inkscape:locked="true"
     inkscape:color="rgb(0,0,255)" /><sodipodi:guide
     position="778.78863,579.95671"
     orientation="-1,0"
     id="guide841"
     inkscape:label="width"
     inkscape:locked="false"
     inkscape:color="rgb(0,0,255)" /><sodipodi:guide
     position="0,1000"
     orientation="0,1000"
     id="guide860" /><sodipodi:guide
     position="1000,1000"
     orientation="1000,0"
     id="guide862" /><sodipodi:guide
     position="1000,0"
     orientation="0,-1000"
     id="guide864" /><sodipodi:guide
     position="0,0"
     orientation="-1000,0"
     id="guide866" /></sodipodi:namedview>
 <defs
   id="defs4"><inkscape:path-effect
   effect="spiro"
   id="path-effect862"
   is_visible="true"
   lpeversion="1" /><inkscape:path-effect
   effect="spiro"
   id="path-effect1521"
   is_visible="true"
   lpeversion="1" /><inkscape:path-effect
   effect="spiro"
   id="path-effect858"
   is_visible="true"
   lpeversion="1" /><inkscape:path-effect
   effect="spiro"
   id="path-effect854"
   is_visible="true"
   lpeversion="1" />
  <style
   type="text/css"
   id="style2">
   <![CDATA[
    .fil0 {fill:#EF7F1A;fill-rule:nonzero}
   ]]>
  </style>
 <inkscape:path-effect
   effect="spiro"
   id="path-effect1214"
   is_visible="true"
   lpeversion="1" /><inkscape:path-effect
   effect="spiro"
   id="path-effect1195"
   is_visible="true"
   lpeversion="1" /><inkscape:path-effect
   effect="spiro"
   id="path-effect992"
   is_visible="true"
   lpeversion="1" /><inkscape:path-effect
   effect="spiro"
   id="path-effect287"
   is_visible="true"
   lpeversion="1" /><inkscape:path-effect
   effect="spiro"
   id="path-effect1032"
   is_visible="true"
   lpeversion="1" /><inkscape:path-effect
   effect="spiro"
   id="path-effect1218"
   is_visible="true"
   lpeversion="1" /><inkscape:path-effect
   effect="spiro"
   id="path-effect309"
   is_visible="true"
   lpeversion="1" /><inkscape:path-effect
   effect="spiro"
   id="path-effect1176"
   is_visible="true"
   lpeversion="1" /><inkscape:path-effect
   effect="spiro"
   id="path-effect1026"
   is_visible="true"
   lpeversion="1" /><inkscape:path-effect
   effect="spiro"
   id="path-effect1030"
   is_visible="true"
   lpeversion="1" /></defs>
 
<path
   style="display:inline;fill:#1a1a1a;fill-rule:nonzero;stroke:none;stroke-width:2.09522px;stroke-linecap:butt;stroke-linejoin:miter;stroke-opacity:1"
   d="m 623.84643,817.70099 c 3.53846,-28.7083 9.26515,-57.14662 17.11401,-84.98692 23.67785,-83.9865 66.19918,-161.24525 98.7914,-242.19042 25.21944,-62.63433 44.75274,-129.58698 38.91597,-196.85519 -2.91838,-33.6341 -12.3231,-66.93717 -29.45377,-96.02858 -17.13066,-29.09141 -42.18755,-53.82494 -72.55272,-68.58049 -38.69985,-18.80567 -84.77868,-20.50838 -125.76361,-7.41003 -40.98493,13.09835 -76.81818,40.37187 -102.86168,74.62194 -32.65943,42.95076 -50.2502,97.1336 -49.04822,151.07766 -12.8686,-35.2262 -30.32836,-68.77219 -51.79825,-99.52166 C 315.35429,202.23241 273.22155,161.93331 221.11767,142.50228 195.06573,132.78676 166.8228,128.51717 139.18656,131.57215 111.55032,134.62713 84.579035,145.1632 63.08315,162.799 34.596405,186.1703 16.962753,220.83645 8.7031012,256.74592 0.44344954,292.65539 0.8742913,329.99508 3.5222322,366.74696 10.98932,470.38579 36.37057,573.95345 88.241397,663.98779 c 18.541783,32.18374 41.031723,63.13949 71.824243,83.90995 15.39626,10.38523 32.75379,18.05473 51.03376,21.33202 18.27996,3.27729 37.49346,2.05767 54.84533,-4.56127 15.25927,-5.82071 28.84362,-15.71411 39.66943,-27.94226 10.82581,-12.22815 18.93497,-26.74792 24.42763,-42.12832 10.98533,-30.76078 11.47869,-64.38276 7.56878,-96.81139 C 327.8411,516.75892 290.43008,439.09584 232.16434,381.94676 184.22848,334.92959 122.61085,302.02826 56.874,288.3488 L 31.627566,391.42777 C 63.16445,381.36921 97.501764,380.25801 129.623,388.2565 c 32.12124,7.99849 61.92786,25.08214 85.06527,48.75512 34.09903,34.88833 52.86947,83.25345 55.79126,131.9505 1.02802,17.13393 0.13534,34.70346 -5.91177,50.76773 -3.02356,8.03214 -7.3326,15.61867 -13.0117,22.05334 -5.67911,6.43466 -12.75017,11.69748 -20.71221,14.90108 -9.5879,3.85779 -20.28919,4.64305 -30.47398,2.88795 -10.18479,-1.75511 -19.86154,-5.98593 -28.46624,-11.71038 -17.20942,-11.44891 -29.88805,-28.48778 -40.89216,-45.98495 -23.48985,-37.3502 -40.984668,-78.4173 -52.12987,-121.10916 -8.948156,-34.27604 -13.814824,-70.29412 -7.572206,-105.16454 3.121309,-17.43521 9.037135,-34.44221 18.149972,-49.63053 9.112838,-15.18833 21.471574,-28.5264 36.392144,-38.07134 28.19049,-18.03393 64.41414,-21.41488 96.66956,-12.49781 32.25542,8.91707 60.61903,29.31077 82.50375,54.62846 26.80916,31.0146 44.39905,69.28312 54.54477,109.0034 10.14573,39.72028 13.09975,80.97251 12.94925,121.9678 -0.10849,29.55198 -1.80847,59.09805 -5.09013,88.46746 L 531.01492,636.94456 C 517.84083,617.94954 506.15092,597.92544 496.0868,577.11484 464.27546,511.33529 449.04201,435.73653 464.171,364.2521 c 3.56463,-16.84288 8.8107,-33.43079 16.9355,-48.60897 8.12479,-15.17817 19.22092,-28.93991 33.23892,-38.93416 16.42755,-11.71215 36.6335,-17.93088 56.80862,-17.87266 20.17512,0.0582 40.23542,6.33582 57.0647,17.463 18.63432,12.32063 33.17764,30.39487 42.51823,50.68745 9.3406,20.29258 13.59948,42.73671 13.77153,65.07516 0.3441,44.67688 -15.26632,87.98391 -34.50032,128.31003 -20.25536,42.46753 -44.90219,83.09004 -75.93505,118.45574 -29.17438,33.24774 -63.87189,61.63749 -102.2377,83.65161 z"
   id="path1087-1-75"
   inkscape:path-effect="#path-effect1030"
   inkscape:original-d="m 623.84643,817.70099 c 9.23364,-35.30031 8.76743,-57.32094 17.11401,-84.98692 25.18282,-83.47202 89.45816,-155.50322 98.7914,-242.19042 13.09287,-121.6068 40.79376,-296.90653 -63.09052,-361.46426 -67.46721,-41.926672 -171.67666,11.83564 -228.62529,67.21191 -37.95928,36.91132 -49.04822,151.07766 -49.04822,151.07766 0,0 -22.97531,-75.69174 -51.79825,-99.52166 C 271.00365,184.83913 149.9323,115.58629 63.08315,162.799 0.8604992,196.62426 3.7517502,295.92496 3.5222322,366.74696 3.1883532,469.77255 24.547464,583.0096 88.241397,663.98779 130.33111,717.49914 201.42453,786.39756 265.94473,764.66849 323.31822,745.34627 339.08795,658.30827 337.61057,597.78652 335.65651,517.73699 287.75627,439.57733 232.16434,381.94676 186.17778,334.27379 56.874,288.3488 56.874,288.3488 L 31.627566,391.42777 c 0,0 135.266184,4.71785 183.060704,45.58385 36.29496,31.03346 56.37274,84.20051 55.79126,131.9505 -0.39071,32.08459 -9.19962,77.56245 -39.63568,87.72215 -36.00928,12.02007 -74.3022,-26.71183 -99.83238,-54.80738 C 101.45416,569.34956 82.559946,524.56421 78.8816,480.76773 73.343841,414.83205 69.458547,322.51366 125.85151,287.90132 c 52.2897,-32.09387 134.64809,-0.0799 179.17331,42.13065 58.21001,55.18402 58.41651,151.27628 67.49402,230.9712 3.34286,29.34816 -5.09013,88.46746 -5.09013,88.46746 l 163.58621,-12.52607 c 0,0 -27.25692,-38.04812 -34.92812,-59.82972 -23.8336,-67.67307 -45.17016,-142.35028 -31.9158,-212.86274 6.21345,-33.05519 21.10346,-70.62771 50.17442,-87.54313 32.80825,-19.09003 85.81899,-25.97851 113.87332,-0.40966 60.36957,55.02108 41.24546,164.74253 21.78944,244.07264 -11.17173,45.55172 -44.74341,83.42935 -75.93505,118.45574 -29.28384,32.88405 -102.2377,83.65161 -102.2377,83.65161 z"
   sodipodi:nodetypes="caaaacaaaaaaaccaaaaaaaaccaaaaaacc" /></svg>
