<?xml version="1.0" encoding="UTF-8"?>
<!DOCTYPE svg PUBLIC "-//W3C//DTD SVG 1.1//EN" "http://www.w3.org/Graphics/SVG/1.1/DTD/svg11.dtd">
<!-- Creator: CorelDRAW X8 -->
<svg xmlns="http://www.w3.org/2000/svg" xml:space="preserve" width="1759px" height="1024px" version="1.1" style="shape-rendering:geometricPrecision; text-rendering:geometricPrecision; image-rendering:optimizeQuality; fill-rule:evenodd; clip-rule:evenodd"
viewBox="0 0 1759 1024"
 xmlns:xlink="http://www.w3.org/1999/xlink">
 <defs>
  <style type="text/css">
   <![CDATA[
    .fil0 {fill:#EF7F1A;fill-rule:nonzero}
   ]]>
  </style>
 </defs>
 <g id="Layer_x0020_1">
  <metadata id="CorelCorpID_0Corel-Layer"/>
  <path class="fil0" d="M1399 1024c25,0 51,-5 73,-15 197,-87 287,-293 287,-499 0,-85 -15,-171 -52,-248 -83,-172 -260,-262 -449,-262 -115,0 -239,37 -320,122 -110,-95 -252,-122 -393,-122 -201,0 -391,88 -484,269 -43,84 -61,177 -61,270 0,145 44,310 163,406 68,55 146,78 232,78 87,0 177,-25 246,-80 76,-61 108,-155 108,-250 0,-78 -25,-151 -81,-209 -65,-68 -162,-101 -257,-101 -77,0 -149,23 -206,75 6,-52 21,-103 45,-150 58,-115 162,-197 295,-197 173,0 297,100 297,279l0 578c0,42 69,56 101,56 33,0 102,-14 102,-56l0 -599c0,-133 61,-257 213,-257 122,0 221,94 263,200 26,63 35,131 35,198 0,153 -61,350 -215,414 -23,10 -39,27 -39,45 0,11 6,22 20,33 21,16 49,22 77,22zm-999 -112c-109,0 -154,-113 -154,-206 0,-91 46,-207 155,-207 108,0 153,117 153,207 0,89 -47,206 -154,206z"/>
 </g>
</svg>
