<?xml version="1.0" encoding="UTF-8"?>
<!DOCTYPE svg PUBLIC "-//W3C//DTD SVG 1.1//EN" "http://www.w3.org/Graphics/SVG/1.1/DTD/svg11.dtd">
<!-- Creator: CorelDRAW X8 -->
<svg xmlns="http://www.w3.org/2000/svg" xml:space="preserve" width="1787px" height="1780px" version="1.1" style="shape-rendering:geometricPrecision; text-rendering:geometricPrecision; image-rendering:optimizeQuality; fill-rule:evenodd; clip-rule:evenodd"
viewBox="0 0 1787 1780"
 xmlns:xlink="http://www.w3.org/1999/xlink">
 <defs>
  <style type="text/css">
   <![CDATA[
    .fil0 {fill:#EF7F1A;fill-rule:nonzero}
   ]]>
  </style>
 </defs>
 <g id="Layer_x0020_1">
  <metadata id="CorelCorpID_0Corel-Layer"/>
  <path class="fil0" d="M869 1780c103,0 205,-16 303,-47 25,-8 51,-26 51,-49 0,-8 -4,-17 -14,-27 -20,-20 -54,-28 -87,-28 -18,0 -36,2 -51,7 -66,21 -137,33 -207,32 -130,0 -256,-40 -363,-114 -214,-146 -300,-389 -299,-639 0,-220 62,-439 222,-600 130,-131 310,-203 495,-203 169,0 328,58 452,175 155,147 214,351 214,558 0,123 -29,245 -102,346 -26,36 -85,98 -136,98 -58,0 -71,-66 -71,-127 0,-34 4,-66 7,-85l84 -560c5,-33 -46,-52 -98,-52 -50,0 -99,16 -104,53l-8 64c-78,-85 -189,-118 -303,-118 -283,0 -437,224 -437,483 0,268 172,455 444,455 102,0 195,-30 267,-104 41,81 128,103 213,103 136,0 249,-60 329,-169 84,-114 117,-248 117,-387 0,-230 -68,-452 -241,-615 -167,-158 -400,-230 -627,-230 -249,0 -497,84 -673,261 -175,176 -246,412 -246,655 0,282 104,543 344,708 153,106 339,156 525,156zm-11 -491c-172,0 -238,-205 -238,-346 0,-134 74,-367 237,-367 176,0 239,208 239,352 0,135 -78,361 -238,361z"/>
 </g>
</svg>
