<?xml version="1.0" encoding="UTF-8"?>
<!DOCTYPE svg PUBLIC "-//W3C//DTD SVG 1.1//EN" "http://www.w3.org/Graphics/SVG/1.1/DTD/svg11.dtd">
<!-- Creator: CorelDRAW X8 -->
<svg xmlns="http://www.w3.org/2000/svg" xml:space="preserve" width="1399px" height="1780px" version="1.1" style="shape-rendering:geometricPrecision; text-rendering:geometricPrecision; image-rendering:optimizeQuality; fill-rule:evenodd; clip-rule:evenodd"
viewBox="0 0 1399 1780"
 xmlns:xlink="http://www.w3.org/1999/xlink">
 <defs>
  <style type="text/css">
   <![CDATA[
    .fil0 {fill:#EF7F1A;fill-rule:nonzero}
   ]]>
  </style>
 </defs>
 <g id="Layer_x0020_1">
  <metadata id="CorelCorpID_0Corel-Layer"/>
  <path class="fil0" d="M340 1780c102,0 210,-36 277,-115 133,-156 163,-569 184,-773 18,-179 50,-594 164,-729 24,-28 59,-51 96,-51 87,0 135,97 135,174 0,26 -4,51 -12,76 -1,4 -3,9 -3,14 0,34 53,53 104,53 45,0 88,-14 98,-45 10,-32 16,-65 16,-98 0,-194 -167,-286 -340,-286 -102,0 -210,36 -277,115 -133,155 -162,569 -183,771 -18,180 -51,596 -165,731 -24,28 -59,51 -96,51 -87,0 -135,-97 -135,-174 0,-26 4,-52 12,-76 1,-4 3,-10 3,-14 0,-33 -51,-54 -102,-54 -45,0 -90,14 -100,46 -11,33 -16,65 -16,99 0,196 166,285 340,285z"/>
 </g>
</svg>
