<?xml version="1.0" encoding="UTF-8"?>
<!DOCTYPE svg PUBLIC "-//W3C//DTD SVG 1.1//EN" "http://www.w3.org/Graphics/SVG/1.1/DTD/svg11.dtd">
<!-- Creator: CorelDRAW X8 -->
<svg xmlns="http://www.w3.org/2000/svg" xml:space="preserve" width="1130px" height="1357px" version="1.1" style="shape-rendering:geometricPrecision; text-rendering:geometricPrecision; image-rendering:optimizeQuality; fill-rule:evenodd; clip-rule:evenodd"
viewBox="0 0 1130 1357"
 xmlns:xlink="http://www.w3.org/1999/xlink">
 <defs>
  <style type="text/css">
   <![CDATA[
    .fil0 {fill:#EF7F1A;fill-rule:nonzero}
   ]]>
  </style>
 </defs>
 <g id="Layer_x0020_1">
  <metadata id="CorelCorpID_0Corel-Layer"/>
  <path class="fil0" d="M719 1357c214,0 411,-146 411,-367 0,-145 -91,-269 -223,-328 98,-68 158,-177 158,-295 0,-218 -190,-367 -403,-367l-560 0c-33,0 -102,14 -102,56l0 1245c0,43 72,56 102,56l617 0zm-57 -734l-459 0 0 -511 459 0c121,0 200,150 200,255 0,105 -79,256 -200,256zm57 622l-516 0 0 -511 516 0c124,0 208,146 208,256 0,109 -84,255 -208,255z"/>
 </g>
</svg>
