<?xml version="1.0" encoding="UTF-8"?>
<!DOCTYPE svg PUBLIC "-//W3C//DTD SVG 1.1//EN" "http://www.w3.org/Graphics/SVG/1.1/DTD/svg11.dtd">
<!-- Creator: CorelDRAW X8 -->
<svg xmlns="http://www.w3.org/2000/svg" xml:space="preserve" width="1023px" height="1024px" version="1.1" style="shape-rendering:geometricPrecision; text-rendering:geometricPrecision; image-rendering:optimizeQuality; fill-rule:evenodd; clip-rule:evenodd"
viewBox="0 0 1023 1024"
 xmlns:xlink="http://www.w3.org/1999/xlink">
 <defs>
  <style type="text/css">
   <![CDATA[
    .fil0 {fill:#EF7F1A;fill-rule:nonzero}
   ]]>
  </style>
 </defs>
 <g id="Layer_x0020_1">
  <metadata id="CorelCorpID_0Corel-Layer"/>
  <path class="fil0" d="M534 1024c197,0 438,-98 486,-305 1,-6 4,-14 4,-20 0,-41 -71,-55 -102,-55 -32,0 -95,13 -101,50 -24,128 -154,219 -283,219 -227,0 -336,-195 -337,-395 0,-205 115,-407 342,-407 131,0 257,86 276,218 5,38 69,51 101,51 32,0 101,-15 101,-55 0,-6 -1,-10 -2,-16 -37,-209 -278,-309 -475,-309 -314,0 -545,193 -545,516 0,322 222,508 535,508z"/>
 </g>
</svg>
