<?xml version="1.0" encoding="UTF-8"?>
<!DOCTYPE svg PUBLIC "-//W3C//DTD SVG 1.1//EN" "http://www.w3.org/Graphics/SVG/1.1/DTD/svg11.dtd">
<!-- Creator: CorelDRAW X8 -->
<svg xmlns="http://www.w3.org/2000/svg" xml:space="preserve" width="1282px" height="1780px" version="1.1" style="shape-rendering:geometricPrecision; text-rendering:geometricPrecision; image-rendering:optimizeQuality; fill-rule:evenodd; clip-rule:evenodd"
viewBox="0 0 1282 1780"
 xmlns:xlink="http://www.w3.org/1999/xlink">
 <defs>
  <style type="text/css">
   <![CDATA[
    .fil0 {fill:#EF7F1A;fill-rule:nonzero}
   ]]>
  </style>
 </defs>
 <g id="Layer_x0020_1">
  <metadata id="CorelCorpID_0Corel-Layer"/>
  <path class="fil0" d="M1283 968c0,-41 -70,-55 -101,-55 -36,0 -96,12 -102,50 -33,193 -219,331 -410,331 -324,0 -469,-304 -469,-589 0,-290 155,-593 481,-593 195,0 370,136 396,329 5,39 69,52 104,52 30,0 98,-17 98,-56 0,-8 -2,-17 -4,-25 -49,-270 -333,-412 -594,-412 -427,0 -683,289 -683,707 0,389 220,666 600,696l-36 100c-2,6 -5,12 -5,16 0,11 10,19 20,24 14,6 32,9 48,9 48,0 110,20 110,76 0,59 -66,85 -129,85 -29,0 -57,-7 -77,-17 -14,-6 -29,-12 -54,-12 -10,0 -20,1 -28,3 -16,4 -38,16 -38,31 0,5 3,10 8,15 42,37 135,47 189,47 92,0 265,-34 265,-152 0,-84 -96,-122 -168,-135l32 -91c240,-21 473,-156 541,-401 3,-11 6,-24 6,-33z"/>
 </g>
</svg>
