<?xml version="1.0" encoding="UTF-8"?>
<!DOCTYPE svg PUBLIC "-//W3C//DTD SVG 1.1//EN" "http://www.w3.org/Graphics/SVG/1.1/DTD/svg11.dtd">
<!-- Creator: CorelDRAW X8 -->
<svg xmlns="http://www.w3.org/2000/svg" xml:space="preserve" width="461px" height="454px" version="1.1" style="shape-rendering:geometricPrecision; text-rendering:geometricPrecision; image-rendering:optimizeQuality; fill-rule:evenodd; clip-rule:evenodd"
viewBox="0 0 461 454"
 xmlns:xlink="http://www.w3.org/1999/xlink">
 <defs>
  <style type="text/css">
   <![CDATA[
    .fil0 {fill:#EF7F1A;fill-rule:nonzero}
   ]]>
  </style>
 </defs>
 <g id="Layer_x0020_1">
  <metadata id="CorelCorpID_0Corel-Layer"/>
  <path class="fil0" d="M196 454c92,0 265,-34 265,-152 0,-84 -96,-122 -168,-135l43 -119c2,-6 4,-9 4,-15 0,-20 -32,-33 -62,-33 -32,0 -65,8 -72,28l-54 149c-2,6 -4,12 -4,16 0,11 9,19 20,24 14,6 32,9 47,9 48,0 111,20 111,76 0,59 -67,85 -130,85 -28,0 -56,-7 -77,-16 -14,-7 -28,-13 -53,-13 -10,0 -21,1 -29,3 -16,4 -37,16 -37,31 0,5 2,10 8,15 41,37 134,47 188,47z"/>
 </g>
</svg>
