<?xml version="1.0" encoding="UTF-8"?>
<!DOCTYPE svg PUBLIC "-//W3C//DTD SVG 1.1//EN" "http://www.w3.org/Graphics/SVG/1.1/DTD/svg11.dtd">
<!-- Creator: CorelDRAW X8 -->
<svg xmlns="http://www.w3.org/2000/svg" xml:space="preserve" width="936px" height="1405px" version="1.1" style="shape-rendering:geometricPrecision; text-rendering:geometricPrecision; image-rendering:optimizeQuality; fill-rule:evenodd; clip-rule:evenodd"
viewBox="0 0 936 1405"
 xmlns:xlink="http://www.w3.org/1999/xlink">
 <defs>
  <style type="text/css">
   <![CDATA[
    .fil0 {fill:#E31E24;fill-rule:nonzero}
   ]]>
  </style>
 </defs>
 <g id="Layer_x0020_1">
  <metadata id="CorelCorpID_0Corel-Layer"/>
  <path class="fil0" d="M466 1102c32,0 100,-15 98,-56l-2 -50c-2,-49 6,-92 33,-137 30,-49 84,-98 139,-148 109,-100 202,-197 202,-355 0,-244 -235,-356 -459,-356 -144,0 -293,35 -389,148 -60,70 -88,162 -88,252 0,41 69,55 101,55 33,0 101,-14 101,-56 0,-72 21,-148 69,-204 52,-61 126,-84 206,-84 147,0 257,104 257,245 0,127 -73,207 -163,288 -56,51 -126,113 -166,176 -37,58 -46,118 -46,185 0,20 1,23 2,43 3,42 72,54 105,54zm-5 63c-63,0 -120,48 -120,121 0,71 57,119 120,119 62,0 120,-48 120,-119 0,-73 -58,-121 -120,-121z"/>
 </g>
</svg>
