<?xml version="1.0" encoding="UTF-8"?>
<!DOCTYPE svg PUBLIC "-//W3C//DTD SVG 1.1//EN" "http://www.w3.org/Graphics/SVG/1.1/DTD/svg11.dtd">
<!-- Creator: CorelDRAW X8 -->
<svg xmlns="http://www.w3.org/2000/svg" xml:space="preserve" width="1036px" height="1381px" version="1.1" style="shape-rendering:geometricPrecision; text-rendering:geometricPrecision; image-rendering:optimizeQuality; fill-rule:evenodd; clip-rule:evenodd"
viewBox="0 0 1036 1381"
 xmlns:xlink="http://www.w3.org/1999/xlink">
 <defs>
  <style type="text/css">
   <![CDATA[
    .fil0 {fill:#EF7F1A;fill-rule:nonzero}
   ]]>
  </style>
 </defs>
 <g id="Layer_x0020_1">
  <metadata id="CorelCorpID_0Corel-Layer"/>
  <path class="fil0" d="M699 1381c16,0 33,-2 46,-6 25,-7 55,-26 55,-50 0,-8 -4,-17 -12,-26l-476 -500c172,-21 371,-86 470,-236 27,-41 44,-87 49,-135l103 0c33,0 102,-14 102,-56 0,-42 -69,-56 -102,-56l-115 0c-11,-36 -30,-70 -54,-101 -32,-41 -72,-75 -116,-103l285 0c33,0 102,-14 102,-56 0,-42 -69,-56 -102,-56l-832 0c-33,0 -102,14 -102,56 0,42 69,56 102,56l103 0c135,0 289,37 374,147 14,18 25,37 34,57l-511 0c-33,0 -102,14 -102,56 0,42 69,56 102,56l526 0c-4,35 -18,68 -37,97 -89,135 -286,171 -438,171 -32,0 -101,14 -101,56 0,12 7,22 15,30l542 569c20,21 56,30 90,30z"/>
 </g>
</svg>
