<?xml version="1.0" encoding="UTF-8"?>
<!DOCTYPE svg PUBLIC "-//W3C//DTD SVG 1.1//EN" "http://www.w3.org/Graphics/SVG/1.1/DTD/svg11.dtd">
<!-- Creator: CorelDRAW X8 -->
<svg xmlns="http://www.w3.org/2000/svg" xml:space="preserve" width="259px" height="871px" version="1.1" style="shape-rendering:geometricPrecision; text-rendering:geometricPrecision; image-rendering:optimizeQuality; fill-rule:evenodd; clip-rule:evenodd"
viewBox="0 0 259 871"
 xmlns:xlink="http://www.w3.org/1999/xlink">
 <defs>
  <style type="text/css">
   <![CDATA[
    .fil0 {fill:#E31E24;fill-rule:nonzero}
   ]]>
  </style>
 </defs>
 <g id="Layer_x0020_1">
  <metadata id="CorelCorpID_0Corel-Layer"/>
  <path class="fil0" d="M121 0c-64,0 -121,48 -121,121 0,71 57,119 121,119 62,0 119,-48 119,-119 0,-73 -57,-121 -119,-121zm-49 871c19,0 37,-6 54,-15 85,-46 133,-160 133,-237 0,-78 -47,-153 -139,-153 -63,0 -120,48 -120,119 0,71 57,120 120,120 7,0 13,-1 20,-2 0,46 -45,125 -92,143 -8,4 -11,7 -11,11 0,9 20,14 35,14z"/>
 </g>
</svg>
