<?xml version="1.0" encoding="UTF-8"?>
<!DOCTYPE svg PUBLIC "-//W3C//DTD SVG 1.1//EN" "http://www.w3.org/Graphics/SVG/1.1/DTD/svg11.dtd">
<!-- Creator: CorelDRAW X8 -->
<svg xmlns="http://www.w3.org/2000/svg" xml:space="preserve" width="759px" height="1405px" version="1.1" style="shape-rendering:geometricPrecision; text-rendering:geometricPrecision; image-rendering:optimizeQuality; fill-rule:evenodd; clip-rule:evenodd"
viewBox="0 0 759 1405"
 xmlns:xlink="http://www.w3.org/1999/xlink">
 <defs>
  <style type="text/css">
   <![CDATA[
    .fil0 {fill:#EF7F1A;fill-rule:nonzero}
   ]]>
  </style>
 </defs>
 <g id="Layer_x0020_1">
  <metadata id="CorelCorpID_0Corel-Layer"/>
  <path class="fil0" d="M549 1405c42,0 85,-4 127,-11 28,-5 84,-22 84,-54 0,-44 -72,-58 -105,-58 -35,0 -68,11 -105,11 -102,0 -134,-75 -134,-164l0 -636 168 0c32,0 102,-14 102,-56 0,-42 -71,-56 -102,-56l-168 0 0 -325c0,-42 -70,-56 -102,-56 -32,0 -102,14 -102,56l0 325 -112 0c-32,0 -101,14 -101,56 0,42 69,56 101,56l112 0 0 636c0,198 153,275 337,276z"/>
 </g>
</svg>
