<?xml version="1.0" encoding="UTF-8"?>
<!DOCTYPE svg PUBLIC "-//W3C//DTD SVG 1.1//EN" "http://www.w3.org/Graphics/SVG/1.1/DTD/svg11.dtd">
<!-- Creator: CorelDRAW X8 -->
<svg xmlns="http://www.w3.org/2000/svg" xml:space="preserve" width="960px" height="1405px" version="1.1" style="shape-rendering:geometricPrecision; text-rendering:geometricPrecision; image-rendering:optimizeQuality; fill-rule:evenodd; clip-rule:evenodd"
viewBox="0 0 960 1405"
 xmlns:xlink="http://www.w3.org/1999/xlink">
 <defs>
  <style type="text/css">
   <![CDATA[
    .fil0 {fill:#EF7F1A;fill-rule:nonzero}
   ]]>
  </style>
 </defs>
 <g id="Layer_x0020_1">
  <metadata id="CorelCorpID_0Corel-Layer"/>
  <path class="fil0" d="M960 972l0 -916c0,-42 -69,-56 -102,-56 -32,0 -101,14 -101,56l0 521c0,158 -99,336 -277,336 -185,0 -277,-177 -277,-339l0 -518c0,-42 -69,-56 -101,-56 -33,0 -102,14 -102,56l0 518c0,276 204,450 480,450 98,0 204,-30 277,-117l0 54c0,201 -87,332 -300,332 -96,0 -204,-29 -261,-112 -18,-26 -59,-35 -95,-35 -33,0 -101,14 -101,55 0,6 2,13 7,20 94,136 292,184 452,184 277,0 501,-131 501,-433z"/>
 </g>
</svg>
