<?xml version="1.0" encoding="UTF-8"?>
<!DOCTYPE svg PUBLIC "-//W3C//DTD SVG 1.1//EN" "http://www.w3.org/Graphics/SVG/1.1/DTD/svg11.dtd">
<!-- Creator: CorelDRAW X8 -->
<svg xmlns="http://www.w3.org/2000/svg" xml:space="preserve" width="1386px" height="1405px" version="1.1" style="shape-rendering:geometricPrecision; text-rendering:geometricPrecision; image-rendering:optimizeQuality; fill-rule:evenodd; clip-rule:evenodd"
viewBox="0 0 1386 1405"
 xmlns:xlink="http://www.w3.org/1999/xlink">
 <defs>
  <style type="text/css">
   <![CDATA[
    .fil0 {fill:#EF7F1A;fill-rule:nonzero}
   ]]>
  </style>
 </defs>
 <g id="Layer_x0020_1">
  <metadata id="CorelCorpID_0Corel-Layer"/>
  <path class="fil0" d="M693 1405c419,0 693,-297 693,-703 0,-251 -106,-461 -286,-584l30 -56c3,-5 4,-10 4,-14 0,-35 -58,-48 -87,-48 -31,0 -68,9 -82,34l-6 11c-80,-29 -169,-45 -266,-45 -419,0 -693,297 -693,702 0,252 106,463 286,586l-30 55c-3,5 -4,10 -4,14 0,35 58,48 87,48 31,0 68,-9 82,-34l6 -11c80,29 169,45 266,45zm-331 -257c-106,-115 -159,-283 -159,-446 0,-286 166,-590 490,-590 77,0 145,17 204,47l-535 989zm331 145c-77,0 -145,-17 -204,-47l535 -989c106,115 159,283 159,445 0,287 -166,591 -490,591z"/>
 </g>
</svg>
