<?xml version="1.0" encoding="UTF-8"?>
<!DOCTYPE svg PUBLIC "-//W3C//DTD SVG 1.1//EN" "http://www.w3.org/Graphics/SVG/1.1/DTD/svg11.dtd">
<!-- Creator: CorelDRAW X8 -->
<svg xmlns="http://www.w3.org/2000/svg" xml:space="preserve" width="481px" height="917px" version="1.1" style="shape-rendering:geometricPrecision; text-rendering:geometricPrecision; image-rendering:optimizeQuality; fill-rule:evenodd; clip-rule:evenodd"
viewBox="0 0 481 917"
 xmlns:xlink="http://www.w3.org/1999/xlink">
 <defs>
  <style type="text/css">
   <![CDATA[
    .fil0 {fill:#EF7F1A;fill-rule:nonzero}
   ]]>
  </style>
 </defs>
 <g id="Layer_x0020_1">
  <metadata id="CorelCorpID_0Corel-Layer"/>
  <path class="fil0" d="M481 202c0,-138 -112,-202 -240,-202 -128,0 -241,63 -241,202 0,139 115,209 241,209 126,0 240,-71 240,-209zm-240 105c-33,0 -66,-39 -66,-105 0,-66 33,-98 66,-98 33,0 65,32 65,98 0,65 -32,105 -65,105zm240 401c0,-138 -112,-202 -240,-202 -128,0 -241,63 -241,202 0,139 115,209 241,209 126,0 240,-71 240,-209zm-240 105c-33,0 -66,-39 -66,-105 0,-66 33,-98 66,-98 33,0 65,33 65,98 0,66 -32,105 -65,105z"/>
 </g>
</svg>
