<?xml version="1.0" encoding="UTF-8" standalone="no"?>
<svg
   xmlns:dc="http://purl.org/dc/elements/1.1/"
   xmlns:cc="http://creativecommons.org/ns#"
   xmlns:rdf="http://www.w3.org/1999/02/22-rdf-syntax-ns#"
   xmlns:svg="http://www.w3.org/2000/svg"
   xmlns="http://www.w3.org/2000/svg"
   xmlns:sodipodi="http://sodipodi.sourceforge.net/DTD/sodipodi-0.dtd"
   xmlns:inkscape="http://www.inkscape.org/namespaces/inkscape"
   xml:space="preserve"
   width="1200"
   height="1000"
   version="1.1"
   style="clip-rule:evenodd;fill-rule:evenodd;image-rendering:optimizeQuality;shape-rendering:geometricPrecision;text-rendering:geometricPrecision"
   viewBox="0 0 1200 1000"
   id="svg10"
   sodipodi:docname="ആ.svg"
   inkscape:version="1.0.1 (3bc2e813f5, 2020-09-07)"><metadata
   id="metadata14"><rdf:RDF><cc:Work
       rdf:about=""><dc:format>image/svg+xml</dc:format><dc:type
         rdf:resource="http://purl.org/dc/dcmitype/StillImage" /><dc:title></dc:title></cc:Work></rdf:RDF></metadata><sodipodi:namedview
   pagecolor="#ffffff"
   bordercolor="#666666"
   borderopacity="1"
   objecttolerance="10"
   gridtolerance="10"
   guidetolerance="10"
   inkscape:pageopacity="0"
   inkscape:pageshadow="2"
   inkscape:window-width="1920"
   inkscape:window-height="1015"
   id="namedview12"
   showgrid="false"
   inkscape:zoom="0.678"
   inkscape:cx="320.09523"
   inkscape:cy="558.9889"
   inkscape:window-x="1920"
   inkscape:window-y="0"
   inkscape:window-maximized="1"
   inkscape:current-layer="svg10"
   showguides="true"
   inkscape:guide-bbox="true"
   inkscape:document-rotation="0"
   inkscape:snap-to-guides="true"><sodipodi:guide
     position="0,1000"
     orientation="0,1"
     id="guide16"
     inkscape:label=""
     inkscape:locked="true"
     inkscape:color="rgb(0,0,255)" /><sodipodi:guide
     position="1763.3122,2036.1693"
     orientation="1000,0"
     id="guide18" /><sodipodi:guide
     position="0,200"
     orientation="0,1"
     id="guide20"
     inkscape:label="base"
     inkscape:locked="true"
     inkscape:color="rgb(0,0,255)" /><inkscape:grid
     type="xygrid"
     id="grid24"
     originx="-473.37552"
     originy="-489.69235" /><sodipodi:guide
     position="0,0"
     orientation="0,1"
     id="guide34"
     inkscape:label="bottom"
     inkscape:locked="true"
     inkscape:color="rgb(0,0,255)" /><sodipodi:guide
     position="225.05109,1693.3186"
     orientation="0,1"
     id="guide44"
     inkscape:label=""
     inkscape:locked="false"
     inkscape:color="rgb(0,0,255)" /><sodipodi:guide
     position="0,900"
     orientation="0,1"
     id="guide46"
     inkscape:label=""
     inkscape:locked="true"
     inkscape:color="rgb(0,0,255)" /><sodipodi:guide
     position="0,1000"
     orientation="0,1000"
     id="guide860" /><sodipodi:guide
     position="1164.9026,960.58425"
     orientation="1000,0"
     id="guide862" /><sodipodi:guide
     position="1000,0"
     orientation="0,-1000"
     id="guide864" /><sodipodi:guide
     position="0,0"
     orientation="-1000,0"
     id="guide866" /></sodipodi:namedview>
 <defs
   id="defs4"><inkscape:path-effect
   effect="spiro"
   id="path-effect1521"
   is_visible="true"
   lpeversion="1" /><inkscape:path-effect
   effect="spiro"
   id="path-effect858"
   is_visible="true"
   lpeversion="1" /><inkscape:path-effect
   effect="spiro"
   id="path-effect854"
   is_visible="true"
   lpeversion="1" />
  <style
   type="text/css"
   id="style2">
   <![CDATA[
    .fil0 {fill:#EF7F1A;fill-rule:nonzero}
   ]]>
  </style>
 <inkscape:path-effect
   effect="spiro"
   id="path-effect1214"
   is_visible="true"
   lpeversion="1" /><inkscape:path-effect
   effect="spiro"
   id="path-effect1195"
   is_visible="true"
   lpeversion="1" /><inkscape:path-effect
   effect="spiro"
   id="path-effect992"
   is_visible="true"
   lpeversion="1" /><inkscape:path-effect
   effect="spiro"
   id="path-effect287"
   is_visible="true"
   lpeversion="1" /><inkscape:path-effect
   effect="spiro"
   id="path-effect1032"
   is_visible="true"
   lpeversion="1" /><inkscape:path-effect
   effect="spiro"
   id="path-effect1218"
   is_visible="true"
   lpeversion="1" /><inkscape:path-effect
   effect="spiro"
   id="path-effect309"
   is_visible="true"
   lpeversion="1" /><inkscape:path-effect
   effect="spiro"
   id="path-effect1176"
   is_visible="true"
   lpeversion="1" /><inkscape:path-effect
   effect="spiro"
   id="path-effect1112"
   is_visible="true"
   lpeversion="1" /></defs>
 
<path
   style="display:inline;fill:#1a1a1a;fill-rule:nonzero;stroke:none;stroke-width:1.89919px;stroke-linecap:butt;stroke-linejoin:miter;stroke-opacity:1"
   d="M -10.48937,849.39249 C 15.96151,815.52171 35.024878,775.91225 44.994484,734.10931 61.822707,663.54793 52.636626,589.50302 39.161068,518.22535 26.874304,453.23569 11.052265,388.62333 6.7295472,322.62382 3.9965715,280.89659 6.0612482,238.07654 20.711621,198.91027 c 7.325187,-19.58314 17.788749,-38.08443 31.590056,-53.79054 13.801307,-15.7061 30.992795,-28.56896 50.362803,-36.44046 18.8438,-7.65766 39.5074,-10.497031 59.80484,-9.17708 20.29744,1.31995 40.233,6.73537 58.82991,14.9745 37.19382,16.47826 68.57238,43.84452 96.18216,73.72116 27.25402,29.49167 51.57138,62.03972 68.92631,98.25225 17.35492,36.21252 27.58214,76.26779 26.15772,116.39897 -1.30056,36.64164 -12.41591,72.88936 -31.87968,103.96126 33.78569,10.97264 63.21325,34.8218 80.94633,65.60182 17.73307,30.78002 23.60435,68.2005 16.15011,102.93241 -7.40997,34.52563 -27.97897,66.13907 -56.81167,86.52538 -28.83271,20.38632 -65.68373,29.24024 -100.56185,23.72266 -38.44262,-6.08147 -72.98328,-28.95359 -98.03597,-58.7392 -25.05269,-29.7856 -41.28507,-66.12366 -52.39118,-103.42612 -13.3977,-44.99931 -19.75005,-92.39849 -15.39223,-139.14724 4.35781,-46.74875 19.69923,-92.83814 46.91918,-131.094 26.82761,-37.70445 65.22618,-67.33368 109.01906,-82.28462 43.79287,-14.95093 92.81259,-14.88487 136.05065,1.60199 31.71839,12.09436 60.08918,32.84045 81.2303,59.3995 21.14111,26.55904 34.99592,58.85992 39.66862,92.48276 8.79904,-66.32722 30.74602,-130.88396 64.19572,-188.83084 18.76115,-32.50104 41.3698,-63.21575 70.09175,-87.36835 28.72195,-24.15259 63.95005,-41.49964 101.31075,-45.03187 30.73375,-2.90569 62.07727,3.6492 89.83971,17.14934 27.76243,13.50015 51.99182,33.78686 71.50208,57.71083 39.0205,47.84795 58.6514,108.87529 68.1479,169.88219 14.0798,90.45037 7.4889,183.7236 -16.0646,272.18117 -12.159,45.66447 -29.44436,91.25053 -60.72254,126.67315 -15.63909,17.71131 -34.68777,32.61209 -56.30904,42.14058 -21.62128,9.52849 -45.86507,13.53814 -69.2235,9.98069 -35.2654,-5.37086 -66.40188,-27.65449 -88.27784,-55.83137 -21.87596,-28.17689 -35.39021,-61.94107 -45.71192,-96.08718 -13.52377,-44.73913 -22.07102,-91.5637 -18.58699,-138.17211 3.48402,-46.60841 19.72936,-93.1606 51.00611,-127.89167 31.35291,-34.81564 76.16088,-55.86534 122.35831,-63.6712 45.87497,-7.75137 93.80259,-3.02722 137.26321,13.57915 43.4606,16.60636 82.3364,45.05615 111.2704,81.48991 49.648,62.51685 68.1295,145.65884 63.981,225.38382 -4.7858,91.97269 -39.0415,183.32886 -101.377,251.12387 C 999.8351,956.5908 908.77332,998.97579 816.72135,996.09236 765.91815,994.501 715.5989,979.41282 672.30187,952.78831 L 726.39936,800 c 16.13569,25.63876 39.5248,46.65722 66.73572,59.97158 39.34855,19.25333 85.8962,21.92802 128.16863,10.4371 42.27242,-11.49092 80.26259,-36.57112 110.00299,-68.73487 42.2099,-45.6493 68.3245,-106.63884 68.8819,-168.80978 0.5418,-60.42905 -24.0827,-121.66227 -69.7447,-161.24695 -26.4909,-22.96511 -59.59301,-38.38116 -94.33259,-43.10596 -34.73959,-4.7248 -70.98778,1.37432 -101.91069,17.89511 -25.04423,13.38006 -46.49489,33.5204 -61.07776,57.88389 -14.58287,24.36348 -22.20995,52.90145 -21.32182,81.28191 0.86195,27.54382 9.99854,55.21101 27.92621,76.13954 8.96384,10.46427 20.03904,19.16111 32.4911,25.06005 12.45205,5.89895 26.28023,8.96723 40.05182,8.52627 17.67558,-0.56597 34.90696,-6.89192 49.69045,-16.59733 14.7835,-9.70541 27.21933,-22.69155 37.64798,-36.97405 24.89561,-34.09566 38.5354,-75.63603 42.73673,-117.64382 4.20132,-42.00778 -0.71373,-84.54958 -10.39774,-125.64125 -9.59877,-40.72997 -24.26811,-81.06325 -49.91525,-114.12819 -12.82358,-16.53247 -28.3329,-31.08957 -46.19644,-41.98271 -17.86355,-10.89314 -38.11618,-18.06141 -58.96432,-19.82829 -25.53346,-2.16396 -51.46135,3.84921 -74.28882,15.49169 -22.82746,11.64249 -42.62962,28.76218 -58.87709,48.57784 -25.97894,31.6843 -42.97735,70.1766 -52.11635,110.11754 -9.139,39.94095 -10.6252,81.35745 -7.68971,122.22532 3.29504,45.87349 12.12725,91.3467 26.24388,135.11832 l -149.39775,-3.829 c 23.40888,-56.88863 25.40555,-122.29788 5.51016,-180.50841 -8.02968,-23.49349 -19.5658,-45.91789 -35.20327,-65.20233 -15.63746,-19.28443 -35.46228,-35.37082 -58.1889,-45.36685 -23.70234,-10.4252 -50.34717,-14.03358 -75.97885,-10.35892 -25.63167,3.67466 -50.17227,14.61225 -70.08701,31.16185 -29.82412,24.78452 -48.54411,61.5773 -54.60829,99.87843 -6.06418,38.30113 -0.0316,77.94852 13.72146,114.20597 9.10249,23.99702 21.74217,46.97624 39.60623,65.40414 17.86406,18.42791 41.27308,32.08826 66.70892,35.51322 15.19467,2.04598 30.98985,0.37398 45.09338,-5.63887 14.10353,-6.01286 26.42194,-16.46589 33.89895,-29.8509 6.96729,-12.47253 9.58414,-27.28185 7.54137,-41.42166 -2.04277,-14.13981 -8.69698,-27.54123 -18.56003,-37.87697 -9.86304,-10.33575 -22.86893,-17.58594 -36.79653,-20.76857 -13.92761,-3.18264 -28.72419,-2.31684 -42.26244,2.24638 -11.79077,3.97422 -22.6347,10.72779 -31.40181,19.55698 L 267.83496,455.0905 c 9.66484,7.02213 21.57769,10.89871 33.52421,10.90917 11.94652,0.0105 23.86614,-3.84527 33.54326,-10.85047 14.49085,-10.48983 23.39293,-27.53047 26.48812,-45.1498 3.0952,-17.61934 0.82242,-35.81822 -3.74025,-53.11571 -14.34881,-54.39763 -52.95113,-102.66585 -104.42083,-125.37841 -20.2419,-8.93235 -42.3723,-13.97319 -64.48198,-13.14658 -22.10968,0.82661 -44.17399,7.69068 -61.99879,20.79785 -14.11691,10.38063 -25.33897,24.45846 -33.261138,40.08804 -7.922167,15.62958 -12.61112,32.78609 -14.799542,50.17158 -4.376843,34.77099 1.115253,69.9848 7.78471,104.3897 22.39426,115.52248 58.13989,228.02951 96.97574,339.10931 6.69808,19.15812 13.49052,38.28326 20.37697,57.37448 z"
   id="path1110"
   inkscape:path-effect="#path-effect1112"
   inkscape:original-d="m -10.48937,849.39249 c 0,0 46.561482,-73.58025 55.483854,-115.28318 C 60.055528,663.71484 46.03703,589.88382 39.161068,518.22535 32.84837,452.43685 -1.74702,388.16862 6.7295472,322.62382 16.753626,245.11293 30.597837,138.92525 102.66448,108.67927 c 70.40477,-29.548494 159.1668,27.24037 214.81691,79.51858 57.03636,53.58047 90.41311,136.53466 95.08403,214.65122 2.16347,36.18184 -31.87968,103.96126 -31.87968,103.96126 0,0 111.15105,105.24151 97.09644,168.53423 C 463.89772,737.87104 384.09923,792.36393 320.40866,785.5926 247.09117,777.79777 192.88503,693.51039 169.98151,623.42728 141.80937,537.22258 144.1696,423.45107 201.50846,353.18604 255.88324,286.5533 364.17173,247.89209 446.57817,272.50341 c 62.00241,18.5175 120.89892,151.88226 120.89892,151.88226 16.26647,-40.45424 25.54632,-134.73813 64.19572,-188.83084 41.97075,-58.74119 99.43825,-138.163648 171.4025,-132.40022 111.47843,8.92802 191.44152,139.57827 229.48969,244.74236 30.9205,85.46342 22.0203,189.66077 -16.0646,272.18117 -36.0634,78.14039 -100.26833,182.36754 -186.25508,178.79442 -67.46338,-2.80339 -124.52157,-85.06408 -133.98976,-151.91855 -10.13135,-71.537 -18.47848,-192.63517 32.41912,-266.06378 26.19269,-37.78751 76.45584,-61.04131 122.35831,-63.6712 88.55343,-5.07349 188.65811,29.62917 248.53361,95.06906 52.7185,57.61778 83.0132,149.64199 63.981,225.38382 C 1123.0321,798.91023 977.58519,954.1147 816.72135,996.09236 768.09243,1008.7822 672.30187,952.78831 672.30187,952.78831 L 726.39936,800 c 25.41077,-8.80049 36.8524,58.76369 66.73572,59.97158 72.56721,2.93318 176.27888,-4.91452 238.17162,-58.29777 46.0209,-39.69354 69.5143,-108.03894 68.8819,-168.80978 -0.6094,-58.55819 -22.9541,-126.03224 -69.7447,-161.24695 -52.69569,-39.65894 -136.97858,-54.14809 -196.24328,-25.21085 -48.44391,23.65376 -87.96397,85.54351 -82.39958,139.1658 5.11862,49.32659 51.36015,102.82509 100.46913,109.72586 33.8208,4.75249 68.7254,-24.93595 87.33843,-53.57138 44.58459,-68.59168 56.13575,-165.01427 32.33899,-243.28507 C 949.20746,323.64605 893.48982,238.02988 816.87158,222.50225 768.594,212.7182 714.95241,248.4917 683.70567,286.57178 c -50.7292,61.82314 -57.40346,152.40676 -59.80606,232.34286 -1.3784,45.86042 26.24388,135.11832 26.24388,135.11832 l -149.39775,-3.829 c 0,0 -2.14876,-119.12538 5.51016,-180.50841 7.65895,-61.38309 -48.30834,-93.39468 -93.39217,-110.56918 -45.95815,-17.50757 -110.47874,-13.14148 -146.06586,20.80293 -52.57122,50.14453 -63.14405,144.92644 -40.88683,214.0844 14.96913,46.51231 58.14584,92.72063 106.31515,100.91736 28.45713,4.8424 73.19629,-7.21146 78.99233,-35.48977 8.90015,-43.42296 -46.15397,-91.86445 -90.07763,-97.82082 -12.21946,-1.65705 -31.40181,19.55698 -31.40181,19.55698 L 267.83496,455.0905 c 0,0 49.5614,13.96265 67.06747,0.0587 26.32773,-20.91047 30.52673,-65.55639 22.74787,-98.26551 C 345.06653,303.97043 303.15479,253.08358 253.22947,231.50528 214.45852,214.74803 158.68083,211.51002 126.7487,239.15655 76.656909,282.52554 84.005154,367.59433 86.47273,433.80587 c 4.378479,117.48611 61.12191,227.14208 96.97574,339.10931 6.18929,19.32841 20.37697,57.37448 20.37697,57.37448 z"
   sodipodi:nodetypes="caaaaaacaaaaacaaaaasaaaaaccsaaaaaaaaaaaccsaaaaaaccaaaaaacc" /></svg>
