<?xml version="1.0" encoding="UTF-8" standalone="no"?>
<svg
   xmlns:dc="http://purl.org/dc/elements/1.1/"
   xmlns:cc="http://creativecommons.org/ns#"
   xmlns:rdf="http://www.w3.org/1999/02/22-rdf-syntax-ns#"
   xmlns:svg="http://www.w3.org/2000/svg"
   xmlns="http://www.w3.org/2000/svg"
   xmlns:sodipodi="http://sodipodi.sourceforge.net/DTD/sodipodi-0.dtd"
   xmlns:inkscape="http://www.inkscape.org/namespaces/inkscape"
   xml:space="preserve"
   width="1200"
   height="1000"
   version="1.1"
   style="clip-rule:evenodd;fill-rule:evenodd;image-rendering:optimizeQuality;shape-rendering:geometricPrecision;text-rendering:geometricPrecision"
   viewBox="0 0 1200 1000"
   id="svg10"
   sodipodi:docname="ഇ.svg"
   inkscape:version="1.0.1 (3bc2e813f5, 2020-09-07)"><metadata
   id="metadata14"><rdf:RDF><cc:Work
       rdf:about=""><dc:format>image/svg+xml</dc:format><dc:type
         rdf:resource="http://purl.org/dc/dcmitype/StillImage" /><dc:title /></cc:Work></rdf:RDF></metadata><sodipodi:namedview
   pagecolor="#ffffff"
   bordercolor="#666666"
   borderopacity="1"
   objecttolerance="10"
   gridtolerance="10"
   guidetolerance="10"
   inkscape:pageopacity="0"
   inkscape:pageshadow="2"
   inkscape:window-width="1920"
   inkscape:window-height="1015"
   id="namedview12"
   showgrid="false"
   inkscape:zoom="0.678"
   inkscape:cx="297.79293"
   inkscape:cy="670.70684"
   inkscape:window-x="1920"
   inkscape:window-y="0"
   inkscape:window-maximized="1"
   inkscape:current-layer="svg10"
   showguides="true"
   inkscape:guide-bbox="true"
   inkscape:document-rotation="0"
   inkscape:snap-to-guides="true"><sodipodi:guide
     position="0,1000"
     orientation="0,1"
     id="guide16"
     inkscape:label=""
     inkscape:locked="true"
     inkscape:color="rgb(0,0,255)" /><sodipodi:guide
     position="1763.3122,2036.1693"
     orientation="1000,0"
     id="guide18" /><sodipodi:guide
     position="0,200"
     orientation="0,1"
     id="guide20"
     inkscape:label="base"
     inkscape:locked="true"
     inkscape:color="rgb(0,0,255)" /><inkscape:grid
     type="xygrid"
     id="grid24"
     originx="-473.37552"
     originy="-489.69235" /><sodipodi:guide
     position="0,0"
     orientation="0,1"
     id="guide34"
     inkscape:label="bottom"
     inkscape:locked="true"
     inkscape:color="rgb(0,0,255)" /><sodipodi:guide
     position="225.05109,1693.3186"
     orientation="0,1"
     id="guide44"
     inkscape:label=""
     inkscape:locked="false"
     inkscape:color="rgb(0,0,255)" /><sodipodi:guide
     position="0,900"
     orientation="0,1"
     id="guide46"
     inkscape:label=""
     inkscape:locked="true"
     inkscape:color="rgb(0,0,255)" /><sodipodi:guide
     position="0,1000"
     orientation="0,1000"
     id="guide860" /><sodipodi:guide
     position="766.742,377.47012"
     orientation="1000,0"
     id="guide862" /><sodipodi:guide
     position="1000,0"
     orientation="0,-1000"
     id="guide864" /><sodipodi:guide
     position="0,0"
     orientation="-1000,0"
     id="guide866" /></sodipodi:namedview>
 <defs
   id="defs4"><inkscape:path-effect
   effect="spiro"
   id="path-effect856"
   is_visible="true"
   lpeversion="1" /><inkscape:path-effect
   effect="spiro"
   id="path-effect1521"
   is_visible="true"
   lpeversion="1" /><inkscape:path-effect
   effect="spiro"
   id="path-effect858"
   is_visible="true"
   lpeversion="1" /><inkscape:path-effect
   effect="spiro"
   id="path-effect854"
   is_visible="true"
   lpeversion="1" />
  <style
   type="text/css"
   id="style2">
   <![CDATA[
    .fil0 {fill:#EF7F1A;fill-rule:nonzero}
   ]]>
  </style>
 <inkscape:path-effect
   effect="spiro"
   id="path-effect1214"
   is_visible="true"
   lpeversion="1" /><inkscape:path-effect
   effect="spiro"
   id="path-effect1195"
   is_visible="true"
   lpeversion="1" /><inkscape:path-effect
   effect="spiro"
   id="path-effect992"
   is_visible="true"
   lpeversion="1" /><inkscape:path-effect
   effect="spiro"
   id="path-effect287"
   is_visible="true"
   lpeversion="1" /><inkscape:path-effect
   effect="spiro"
   id="path-effect1032"
   is_visible="true"
   lpeversion="1" /><inkscape:path-effect
   effect="spiro"
   id="path-effect1218"
   is_visible="true"
   lpeversion="1" /><inkscape:path-effect
   effect="spiro"
   id="path-effect309"
   is_visible="true"
   lpeversion="1" /><inkscape:path-effect
   effect="spiro"
   id="path-effect1176"
   is_visible="true"
   lpeversion="1" /><inkscape:path-effect
   effect="spiro"
   id="path-effect1112"
   is_visible="true"
   lpeversion="1" /></defs>
 
<path
   style="fill:#1a1a1a;fill-rule:nonzero;stroke:none;stroke-width:1px;stroke-linecap:butt;stroke-linejoin:miter;stroke-opacity:1"
   d="m 94.4902,264.34794 32.68803,-33.00637 c 24.34889,13.37279 46.88337,30.04414 66.79441,49.41552 33.39549,32.49036 59.21877,72.4524 76.83111,115.58809 16.41813,40.21086 25.83914,84.47477 18.40026,127.26648 -3.71943,21.39586 -11.68594,42.16469 -24.16879,59.93532 -12.48285,17.77063 -29.55984,32.46164 -49.46562,41.14362 -23.12274,10.08506 -49.56,11.7852 -74.15426,6.17342 C 116.82108,625.25224 94.083642,612.53579 75.383995,595.60378 37.9847,561.73976 17.565423,512.50996 8.3183416,462.91187 -3.6441977,398.74902 1.4845954,331.44389 23.29986,269.92912 37.943056,228.63818 60.402992,189.48346 92.596132,159.7687 124.78927,130.05394 167.28652,110.37955 211.09693,110.26521 c 46.67374,-0.12181 91.52962,21.7982 126.07775,53.18099 32.22552,29.27299 56.72686,66.97476 70.38879,108.31171 7.86157,-44.39448 27.64324,-86.62058 56.72057,-121.07611 16.94007,-20.07334 37.1186,-37.62719 60.28169,-50.01169 23.1631,-12.384499 49.39318,-19.469735 75.64486,-18.601414 22.22735,0.735209 44.15118,7.159878 63.66059,17.835938 19.50942,10.676056 36.62105,25.543486 50.56237,42.870776 27.88266,34.65458 42.70032,78.49257 47.92362,122.66382 8.18451,69.21292 -6.13394,139.6559 -31.47194,204.58202 -44.5947,114.2695 -126.93885,216.93924 -238.03927,268.92868 -50.83515,23.78831 -106.16078,36.54841 -157.72313,58.71642 -10.23711,4.4012 -20.41474,9.22934 -29.18548,16.1027 -8.77075,6.87336 -16.12099,16.00215 -19.13096,26.73105 -2.47874,8.83536 -1.88137,18.42008 1.16204,27.07718 3.04341,8.6571 8.46376,16.39433 15.19178,22.63464 13.45603,12.48063 31.62487,18.75972 49.7496,21.64503 51.68451,8.22775 103.63328,-8.54606 153.90114,-23.11063 69.42155,-20.11414 139.91101,-36.36731 210.7084,-50.9158 C 747.96923,831.57323 778.4835,825.6293 809.0557,820 l 30.93779,180 c -69.77527,-19.84339 -142.5218,-29.20411 -215.04765,-27.67143 -97.22262,2.05459 -194.3868,23.50945 -291.01346,12.56649 -48.85341,-5.53264 -98.35751,-20.24487 -135.3384,-52.64363 -18.49044,-16.19937 -33.45984,-36.68133 -41.79971,-59.80627 -8.33987,-23.12494 -9.83523,-48.91485 -2.719,-72.44516 6.3784,-21.09062 19.44149,-39.83602 35.77996,-54.61954 16.33848,-14.78352 35.86848,-25.74922 56.34584,-33.88406 40.95474,-16.26967 85.31687,-21.37885 128.35731,-30.83999 54.17984,-11.90981 107.21372,-31.12018 153.73838,-61.33201 66.83916,-43.4035 118.58588,-109.28755 145.99105,-184.12267 13.50213,-36.8702 21.21793,-77.42887 11.28667,-115.41689 -4.96563,-18.994 -14.40271,-36.98265 -28.23575,-50.9138 -13.83304,-13.93114 -32.16978,-23.6258 -51.67415,-25.86399 -14.93086,-1.71336 -30.17479,0.91659 -44.20564,6.3019 -14.03085,5.38531 -26.91128,13.45958 -38.76518,22.69815 -44.67524,34.81854 -75.2371,87.52981 -82.21452,143.73945 -6.61176,53.2639 8.07349,108.87375 40.1208,151.9287 l -156.91112,2.01164 c 16.44192,-45.81921 23.40868,-95.01489 20.33533,-143.59772 -2.66273,-42.09183 -12.99842,-84.10315 -33.69628,-120.85108 -11.30355,-20.06885 -25.88414,-38.68605 -44.77849,-51.85922 -18.89435,-13.17318 -42.43116,-20.53425 -65.23434,-17.28714 -14.37485,2.04694 -27.99225,8.1921 -39.81597,16.61979 -11.82372,8.4277 -21.92518,19.09165 -30.75872,30.61532 -18.43056,24.04331 -31.630141,52.33031 -36.495515,82.23172 -4.865374,29.90141 -1.17479,61.39403 12.040675,88.65421 7.90142,16.29864 19.53882,31.3419 35.40703,40.07562 7.93411,4.36686 16.83826,7.06975 25.88933,7.38201 9.05108,0.31227 18.23712,-1.81792 25.99937,-6.48343 8.24917,-4.95817 14.70135,-12.66313 18.75324,-21.39322 4.05189,-8.73009 5.76895,-18.44774 5.64066,-28.07145 -0.25658,-19.24742 -7.67354,-37.67066 -16.34826,-54.85432 C 175.59835,341.28901 138.96171,297.61641 94.4902,264.34794 Z"
   id="path854"
   inkscape:path-effect="#path-effect856"
   inkscape:original-d="m 94.4902,264.34794 32.68803,-33.00637 c 0,0 47.7095,29.34541 66.79441,49.41552 31.8807,33.52646 68.79185,70.02744 76.83111,115.58809 13.60777,77.11888 18.71419,202.57458 -55.23415,228.34542 C 132.81205,653.53143 43.67462,543.10251 8.3183416,462.91187 -17.711454,403.87437 -6.0262634,327.40046 23.29986,269.92912 60.64563,196.74143 129.88791,122.76479 211.09693,110.26521 c 45.08079,-6.93877 91.09931,23.90758 126.07775,53.18099 33.02019,27.63455 70.38879,108.31171 70.38879,108.31171 0,0 25.6723,-89.10269 56.72057,-121.07611 35.3579,-36.41147 86.0824,-78.18059 135.92655,-68.613104 80.12986,15.380768 139.15101,105.085374 162.14658,183.370534 19.44547,66.19932 -2.1717,142.11625 -31.47194,204.58202 -50.83874,108.38416 -139.3232,201.20247 -238.03927,268.92868 -46.25904,31.73697 -109.63079,29.83285 -157.72313,58.71642 -18.45117,11.08151 -47.25925,21.33659 -48.31644,42.83375 -1.59259,32.38421 35.50678,60.62748 66.10342,71.35685 48.95292,17.16639 102.98948,-13.15692 153.90114,-23.11063 70.91499,-13.86454 103.29022,-21.59247 210.7084,-50.9158 C 769.87969,823.53704 809.0557,820 809.0557,820 l 30.93779,180 c 0,0 -142.83908,-24.60731 -215.04765,-27.67143 -97.00759,-4.11644 -200.774,48.40303 -291.01346,12.56649 C 254.022,953.1605 141.09535,884.99572 154.07527,800 166.69123,717.38763 298.87209,716.09017 374.55838,680.65641 424.52699,657.2628 484.0421,652.27357 528.29676,619.3244 591.1219,572.54886 661.52092,512.48016 674.28781,435.20173 c 11.08805,-67.11635 -7.24569,-162.86301 -68.62323,-192.19468 -26.43421,-12.63263 -60.44514,10.26652 -82.97082,29.00005 -42.43847,35.29406 -75.02161,89.01325 -82.21452,143.73945 -6.8257,51.93232 40.1208,151.9287 40.1208,151.9287 l -156.91112,2.01164 c 0,0 31.94528,-96.66904 20.33533,-143.59772 -9.65023,-39.00728 -8.69489,-87.32696 -33.69628,-120.85108 -25.89371,-34.72061 -66.70442,-69.76755 -110.01283,-69.14636 -28.30481,0.40598 -55.50063,23.27473 -70.57469,47.23511 -30.64167,48.70527 -51.7844,120.2479 -24.45484,170.88593 15.26696,28.28763 59.52049,57.15461 87.29573,40.9742 30.13567,-17.55548 18.70217,-71.11068 8.04564,-104.31899 C 183.80698,338.45283 94.4902,264.34794 94.4902,264.34794 Z"
   sodipodi:nodetypes="ccaaaaaaacaaaaaaaaasccaaaaaaaaaccsaaaaaac" /></svg>
