<?xml version="1.0" encoding="UTF-8"?>
<!DOCTYPE svg PUBLIC "-//W3C//DTD SVG 1.1//EN" "http://www.w3.org/Graphics/SVG/1.1/DTD/svg11.dtd">
<!-- Creator: CorelDRAW X8 -->
<svg xmlns="http://www.w3.org/2000/svg" xml:space="preserve" width="1688px" height="1412px" version="1.1" style="shape-rendering:geometricPrecision; text-rendering:geometricPrecision; image-rendering:optimizeQuality; fill-rule:evenodd; clip-rule:evenodd"
viewBox="0 0 1688 1412"
 xmlns:xlink="http://www.w3.org/1999/xlink">
 <defs>
  <style type="text/css">
   <![CDATA[
    .fil0 {fill:#EF7F1A;fill-rule:nonzero}
   ]]>
  </style>
 </defs>
 <g id="Layer_x0020_1">
  <metadata id="CorelCorpID_0Corel-Layer"/>
  <path class="fil0" d="M1539 1412c46,0 101,-28 101,-79 0,-51 -55,-79 -101,-79l-1221 0c-63,0 -113,-36 -113,-100 0,-67 48,-101 113,-101l719 0c203,0 440,-53 564,-227 65,-91 87,-209 87,-318 0,-126 -28,-260 -113,-359 -92,-108 -225,-149 -363,-149 -121,0 -243,33 -326,124 -97,-96 -250,-124 -382,-124 -131,0 -262,29 -364,116 -101,85 -140,209 -140,337 0,70 13,140 45,202 60,117 170,167 300,167 84,0 173,-27 237,-80 63,-51 98,-122 99,-202 0,-80 -33,-161 -96,-212 -62,-50 -147,-71 -226,-71 -52,0 -97,8 -143,34 15,-52 51,-96 95,-127 53,-38 129,-54 193,-54 80,0 170,23 223,86 47,57 62,133 62,205l0 365c0,42 69,56 101,56 33,0 102,-14 102,-56l0 -365c0,-79 18,-162 71,-223 40,-46 88,-67 149,-67 73,0 134,31 180,85 72,84 95,205 94,312 0,92 -19,201 -74,278 -90,127 -228,156 -375,156l-719 0c-147,0 -317,69 -317,236 0,176 169,234 317,234l1221 0zm-1192 -706c-91,0 -129,-88 -129,-167 0,-83 43,-167 129,-167 87,0 130,82 130,165 0,80 -38,169 -130,169z"/>
 </g>
</svg>
