<?xml version="1.0" encoding="UTF-8"?>
<!DOCTYPE svg PUBLIC "-//W3C//DTD SVG 1.1//EN" "http://www.w3.org/Graphics/SVG/1.1/DTD/svg11.dtd">
<!-- Creator: CorelDRAW X8 -->
<svg xmlns="http://www.w3.org/2000/svg" xml:space="preserve" width="1158px" height="1412px" version="1.1" style="shape-rendering:geometricPrecision; text-rendering:geometricPrecision; image-rendering:optimizeQuality; fill-rule:evenodd; clip-rule:evenodd"
viewBox="0 0 1158 1412"
 xmlns:xlink="http://www.w3.org/1999/xlink">
 <defs>
  <style type="text/css">
   <![CDATA[
    .fil0 {fill:#EF7F1A;fill-rule:nonzero}
   ]]>
  </style>
 </defs>
 <g id="Layer_x0020_1">
  <metadata id="CorelCorpID_0Corel-Layer"/>
  <path class="fil0" d="M1008 1412c47,0 102,-28 102,-79 0,-51 -55,-79 -102,-79l-691 0c-63,0 -113,-36 -113,-100 0,-67 48,-101 113,-101l269 0c123,0 253,-29 356,-96 151,-98 216,-265 216,-436 0,-122 -38,-242 -119,-337 -114,-134 -312,-184 -483,-184 -137,-1 -275,35 -386,118 -115,85 -170,206 -170,344 0,104 25,195 104,270 68,64 153,91 245,91 93,0 193,-29 260,-95 52,-51 80,-121 80,-194 0,-79 -33,-154 -96,-205 -58,-48 -143,-73 -220,-72 -55,1 -100,8 -149,35 21,-44 52,-82 92,-112 68,-50 156,-69 240,-69 118,0 242,45 316,139 60,76 83,174 83,270 0,128 -34,259 -139,344 -65,53 -146,77 -230,77l-269 0c-147,0 -317,69 -317,235 0,175 163,236 317,236l691 0zm-652 -705c-92,0 -129,-88 -129,-167 0,-82 43,-166 129,-166 87,0 130,82 130,164 0,80 -38,169 -130,169z"/>
 </g>
</svg>
