<?xml version="1.0" encoding="UTF-8" standalone="no"?>
<svg
   xmlns:dc="http://purl.org/dc/elements/1.1/"
   xmlns:cc="http://creativecommons.org/ns#"
   xmlns:rdf="http://www.w3.org/1999/02/22-rdf-syntax-ns#"
   xmlns:svg="http://www.w3.org/2000/svg"
   xmlns="http://www.w3.org/2000/svg"
   xmlns:sodipodi="http://sodipodi.sourceforge.net/DTD/sodipodi-0.dtd"
   xmlns:inkscape="http://www.inkscape.org/namespaces/inkscape"
   xml:space="preserve"
   width="1000"
   height="1000"
   version="1.1"
   style="clip-rule:evenodd;fill-rule:evenodd;image-rendering:optimizeQuality;shape-rendering:geometricPrecision;text-rendering:geometricPrecision"
   viewBox="0 0 1000 1000"
   id="svg10"
   sodipodi:docname="ഋ.svg"
   inkscape:version="1.0.1 (3bc2e813f5, 2020-09-07)"><metadata
   id="metadata14"><rdf:RDF><cc:Work
       rdf:about=""><dc:format>image/svg+xml</dc:format><dc:type
         rdf:resource="http://purl.org/dc/dcmitype/StillImage" /><dc:title /></cc:Work></rdf:RDF></metadata><sodipodi:namedview
   pagecolor="#ffffff"
   bordercolor="#666666"
   borderopacity="1"
   objecttolerance="10"
   gridtolerance="10"
   guidetolerance="10"
   inkscape:pageopacity="0"
   inkscape:pageshadow="2"
   inkscape:window-width="1920"
   inkscape:window-height="1015"
   id="namedview12"
   showgrid="false"
   inkscape:zoom="0.6002692"
   inkscape:cx="300.73619"
   inkscape:cy="486.00518"
   inkscape:window-x="1920"
   inkscape:window-y="0"
   inkscape:window-maximized="1"
   inkscape:current-layer="svg10"
   showguides="true"
   inkscape:guide-bbox="true"
   inkscape:document-rotation="0"><sodipodi:guide
     position="0,1000"
     orientation="0,1"
     id="guide16"
     inkscape:label=""
     inkscape:locked="true"
     inkscape:color="rgb(0,0,255)" /><sodipodi:guide
     position="1763.3122,2036.1693"
     orientation="1000,0"
     id="guide18" /><sodipodi:guide
     position="0,200"
     orientation="0,1"
     id="guide20"
     inkscape:label="base"
     inkscape:locked="true"
     inkscape:color="rgb(0,0,255)" /><inkscape:grid
     type="xygrid"
     id="grid24"
     originx="-473.37552"
     originy="-489.69235" /><sodipodi:guide
     position="0,0"
     orientation="0,1"
     id="guide34"
     inkscape:label="bottom"
     inkscape:locked="true"
     inkscape:color="rgb(0,0,255)" /><sodipodi:guide
     position="225.05109,1693.3186"
     orientation="0,1"
     id="guide44"
     inkscape:label=""
     inkscape:locked="false"
     inkscape:color="rgb(0,0,255)" /><sodipodi:guide
     position="0,900"
     orientation="0,1"
     id="guide46"
     inkscape:label=""
     inkscape:locked="true"
     inkscape:color="rgb(0,0,255)" /><sodipodi:guide
     position="617.42399,834.80912"
     orientation="-1,0"
     id="guide841"
     inkscape:label="width"
     inkscape:locked="false"
     inkscape:color="rgb(0,0,255)" /></sodipodi:namedview>
 <defs
   id="defs4"><inkscape:path-effect
   effect="spiro"
   id="path-effect850"
   is_visible="true"
   lpeversion="1" /><inkscape:path-effect
   effect="spiro"
   id="path-effect851"
   is_visible="true"
   lpeversion="1" />
  <style
   type="text/css"
   id="style2">
   <![CDATA[
    .fil0 {fill:#EF7F1A;fill-rule:nonzero}
   ]]>
  </style>
 <inkscape:path-effect
   effect="spiro"
   id="path-effect1214"
   is_visible="true"
   lpeversion="1" /><inkscape:path-effect
   effect="spiro"
   id="path-effect1195"
   is_visible="true"
   lpeversion="1" /><inkscape:path-effect
   effect="spiro"
   id="path-effect992"
   is_visible="true"
   lpeversion="1" /><inkscape:path-effect
   effect="spiro"
   id="path-effect1060"
   is_visible="true"
   lpeversion="1" /><inkscape:path-effect
   effect="spiro"
   id="path-effect1047"
   is_visible="true"
   lpeversion="1" /><inkscape:path-effect
   effect="spiro"
   id="path-effect1085"
   is_visible="true"
   lpeversion="1" /><inkscape:path-effect
   effect="spiro"
   id="path-effect1286"
   is_visible="true"
   lpeversion="1" /><inkscape:path-effect
   effect="spiro"
   id="path-effect1305"
   is_visible="true"
   lpeversion="1" /></defs>
 
<path
   style="fill:#2d2d2d;fill-rule:nonzero;stroke:none;stroke-width:1px;stroke-linecap:butt;stroke-linejoin:miter;stroke-opacity:1"
   d="m 102.98602,434.73145 73.88816,55.10187 c 38.62993,-24.03028 69.24599,-60.71065 85.98307,-103.01427 16.73708,-42.30362 19.50478,-90.00197 7.77288,-133.9575 -7.17746,-26.89158 -19.78116,-52.52985 -38.11772,-73.46889 -18.33657,-20.93904 -42.54193,-37.02186 -69.46463,-44.08167 -19.5928,-5.13772 -40.44309,-5.44959 -60.16042,-0.8127 -19.717325,4.6369 -38.261754,14.22217 -53.388084,27.69318 -26.1395,23.27897 -41.1877732,57.3882 -45.5150401,92.12231 -4.32726691,34.73412 1.3931527,70.11945 11.7923771,103.5416 20.465986,65.7758 60.046347,126.38187 115.658967,167.03342 55.39149,40.48991 123.17876,59.50054 189.47605,77.17312 39.53123,10.53767 80.06186,21.30464 113.50832,44.86511 16.72323,11.78023 31.42799,26.74519 41.37845,44.61775 9.95047,17.87257 14.96004,38.75277 12.45504,59.05462 -1.99536,16.17146 -8.68985,31.61596 -18.38308,44.71324 -9.69323,13.09729 -22.31958,23.89286 -36.29371,32.27267 -27.94827,16.75962 -60.66293,23.75142 -93.03284,27.51696 -35.22939,4.09818 -71.80757,4.53797 -105.16978,-7.49815 -16.6811,-6.01806 -32.34979,-15.16622 -45.0223,-27.57121 -12.67252,-12.40498 -22.26405,-28.13998 -26.40916,-45.38221 -5.06387,-21.06395 -1.80159,-43.68161 7.15707,-63.4066 8.95867,-19.72498 23.36694,-36.67074 40.11477,-50.41276 33.49565,-27.48403 75.35484,-42.11601 115.47577,-58.47577 67.69203,-27.60218 133.72312,-62.12976 186.94307,-112.24691 53.21995,-50.11714 92.9052,-117.38924 98.85969,-190.24962 2.63548,-32.2483 -1.40839,-65.20189 -13.26859,-95.30562 -11.86019,-30.10373 -31.6755,-57.25648 -57.69685,-76.48635 -26.02135,-19.22987 -58.2912,-30.274582 -90.63701,-29.470345 -32.34582,0.804237 -64.51082,13.767535 -87.32192,36.714265 -14.652,14.73912 -25.30286,33.27445 -31.51395,53.10738 -6.21108,19.83293 -8.04452,40.93316 -6.24205,61.6376 3.60493,41.40888 21.51588,80.52628 45.04347,114.79206 29.5782,43.07794 68.41806,79.76263 113.11262,106.83614 l 67.3233,-49.31448 c -26.11949,3.70062 -53.45578,-1.85115 -76.06237,-15.44764 -22.60659,-13.59649 -40.32383,-35.14167 -49.29765,-59.94878 -7.58054,-20.95556 -8.8784,-44.54787 -1.30017,-65.50427 3.78912,-10.47819 9.75417,-20.1995 17.60906,-28.10207 7.85489,-7.90258 17.60947,-13.95706 28.27317,-17.18746 16.0809,-4.87145 33.91623,-3.10561 49.11262,4.06351 15.19638,7.16911 27.72924,19.5512 35.85394,34.25887 8.1247,14.70767 11.92188,31.64752 11.73789,48.44908 -0.18399,16.80156 -4.27233,33.45786 -11.07678,48.82099 -13.64384,30.80515 -37.95156,56.0853 -65.98062,74.77977 -28.02907,18.69447 -59.74229,31.19729 -91.93357,41.13879 -64.38255,19.88302 -132.97563,30.61575 -190.31214,66.0131 -38.26311,23.62217 -70.04807,57.90032 -89.7191,98.33697 -19.671034,40.43666 -27.012143,86.9472 -19.655653,131.30884 9.346923,56.36451 42.556473,108.01898 88.845473,141.51004 46.28899,33.49107 104.95845,48.85365 161.91157,44.30777 55.37074,-4.41958 109.43611,-27.68136 149.14815,-66.51956 39.71203,-38.83819 64.35367,-93.25613 65.09329,-148.79804 0.47759,-35.86483 -8.80892,-71.7192 -25.97689,-103.21167 C 520.39422,619.14547 495.4394,592.03476 465.89895,571.69081 422.40629,541.73824 370.50096,526.94877 319.4005,513.62542 268.30005,500.30208 216.15026,487.64503 170.48682,461.11923 147.76023,447.9174 126.73169,431.1735 111.28972,409.90541 95.847754,388.63732 86.273943,362.56676 87.415613,336.30876 c 0.815997,-18.76764 7.271675,-37.50289 19.471977,-51.78724 12.2003,-14.28436 30.32464,-23.75481 49.10769,-24.04976 18.00821,-0.28279 35.78338,7.91914 47.99294,21.15932 12.20955,13.24018 18.89794,31.20296 19.32737,49.20827 0.42944,18.00531 -5.22194,35.95507 -15.04284,51.05227 -9.82091,15.0972 -23.69208,27.38407 -39.37549,36.2388 -19.96606,11.27268 -42.98754,17.07109 -65.91124,16.60103 z"
   id="path848"
   inkscape:path-effect="#path-effect850"
   inkscape:original-d="m 102.98602,434.73145 73.88816,55.10187 c 0,0 109.14829,-153.42971 93.75595,-236.97177 C 261.00563,200.62447 213.81371,150.93674 163.04778,135.31099 125.87329,123.86869 76.140085,133.85181 49.499276,162.19147 4.1685679,210.41286 1.4965379,293.23143 15.776613,357.85538 30.388904,423.98277 78.605364,482.51759 131.43558,524.8888 c 53.19989,42.66771 131.56473,41.15865 189.47605,77.17312 63.33655,39.38837 171.44953,74.06541 167.34181,148.53748 -3.32169,60.22152 -87.6636,98.83367 -147.70963,104.50287 C 276.14254,861.18267 176.36335,838.13471 163.94257,774.6507 148.77318,697.11834 272.43753,659.78403 326.69018,602.35557 421.95172,501.51768 628.38794,437.66466 612.49294,299.85904 601.09586,201.04926 450.41387,86.822226 363.56857,135.31099 c -66.83851,37.31827 -24.1248,159.72795 7.28747,229.53704 21.28193,47.29592 74.33447,103.52597 113.11262,106.83614 l 67.3233,-49.31448 c 0,0 -109.86479,-29.16171 -125.36002,-75.39642 -12.65017,-37.74562 4.93541,-107.2019 44.58206,-110.7938 53.23746,-4.8232 99.5271,83.97563 85.62767,135.59245 C 522.08895,498.22982 298.79285,459.4037 207.91534,553.70358 149.07972,614.75489 78.033547,701.07938 98.540587,783.34939 123.70267,884.29446 245.55691,976.97122 349.29763,969.1672 450.26071,961.57213 548.86693,854.02923 563.53907,753.8496 573.52243,685.68443 517.76284,617.03719 465.89895,571.69081 386.74509,502.48388 252.8442,526.48126 170.48682,461.11923 131.34089,430.05149 83.722289,386.14818 87.415613,336.30876 c 2.518744,-33.98909 37.511917,-102.68598 68.579667,-75.837 15.16533,13.106 27.43689,133.56117 12.90198,157.65866 -11.71584,19.42373 -65.91124,16.60103 -65.91124,16.60103 z"
   sodipodi:nodetypes="ccaaaaaaaaaaaaaccaaaaaaaaaassc" /></svg>
