<?xml version="1.0" encoding="UTF-8" standalone="no"?>
<svg
   xmlns:dc="http://purl.org/dc/elements/1.1/"
   xmlns:cc="http://creativecommons.org/ns#"
   xmlns:rdf="http://www.w3.org/1999/02/22-rdf-syntax-ns#"
   xmlns:svg="http://www.w3.org/2000/svg"
   xmlns="http://www.w3.org/2000/svg"
   xmlns:sodipodi="http://sodipodi.sourceforge.net/DTD/sodipodi-0.dtd"
   xmlns:inkscape="http://www.inkscape.org/namespaces/inkscape"
   xml:space="preserve"
   width="1200"
   height="1000"
   version="1.1"
   style="clip-rule:evenodd;fill-rule:evenodd;image-rendering:optimizeQuality;shape-rendering:geometricPrecision;text-rendering:geometricPrecision"
   viewBox="0 0 1200 1000"
   id="svg10"
   sodipodi:docname="à´.svg"
   inkscape:version="1.0.1 (3bc2e813f5, 2020-09-07)"><metadata
   id="metadata14"><rdf:RDF><cc:Work
       rdf:about=""><dc:format>image/svg+xml</dc:format><dc:type
         rdf:resource="http://purl.org/dc/dcmitype/StillImage" /><dc:title /></cc:Work></rdf:RDF></metadata><sodipodi:namedview
   pagecolor="#ffffff"
   bordercolor="#666666"
   borderopacity="1"
   objecttolerance="10"
   gridtolerance="10"
   guidetolerance="10"
   inkscape:pageopacity="0"
   inkscape:pageshadow="2"
   inkscape:window-width="1920"
   inkscape:window-height="1015"
   id="namedview12"
   showgrid="false"
   inkscape:zoom="1.356"
   inkscape:cx="300.01282"
   inkscape:cy="761.82755"
   inkscape:window-x="1920"
   inkscape:window-y="0"
   inkscape:window-maximized="1"
   inkscape:current-layer="g861"
   showguides="true"
   inkscape:guide-bbox="true"
   inkscape:document-rotation="0"
   inkscape:snap-to-guides="true"><sodipodi:guide
     position="0,1000"
     orientation="0,1"
     id="guide16"
     inkscape:label=""
     inkscape:locked="true"
     inkscape:color="rgb(0,0,255)" /><sodipodi:guide
     position="1763.3122,2036.1693"
     orientation="1000,0"
     id="guide18" /><sodipodi:guide
     position="0,200"
     orientation="0,1"
     id="guide20"
     inkscape:label="base"
     inkscape:locked="true"
     inkscape:color="rgb(0,0,255)" /><inkscape:grid
     type="xygrid"
     id="grid24"
     originx="-473.37552"
     originy="-489.69235" /><sodipodi:guide
     position="0,0"
     orientation="0,1"
     id="guide34"
     inkscape:label="bottom"
     inkscape:locked="true"
     inkscape:color="rgb(0,0,255)" /><sodipodi:guide
     position="225.05109,1693.3186"
     orientation="0,1"
     id="guide44"
     inkscape:label=""
     inkscape:locked="false"
     inkscape:color="rgb(0,0,255)" /><sodipodi:guide
     position="0,900"
     orientation="0,1"
     id="guide46"
     inkscape:label=""
     inkscape:locked="true"
     inkscape:color="rgb(0,0,255)" /><sodipodi:guide
     position="0,1000"
     orientation="0,1000"
     id="guide860" /><sodipodi:guide
     position="929.94676,805.3294"
     orientation="1000,0"
     id="guide862" /><sodipodi:guide
     position="1000,0"
     orientation="0,-1000"
     id="guide864" /><sodipodi:guide
     position="0,0"
     orientation="-1000,0"
     id="guide866" /></sodipodi:namedview>
 <defs
   id="defs4"><inkscape:path-effect
   effect="spiro"
   id="path-effect859"
   is_visible="true"
   lpeversion="1" /><inkscape:path-effect
   effect="spiro"
   id="path-effect857"
   is_visible="true"
   lpeversion="1" /><inkscape:path-effect
   effect="spiro"
   id="path-effect856"
   is_visible="true"
   lpeversion="1" /><inkscape:path-effect
   effect="spiro"
   id="path-effect1521"
   is_visible="true"
   lpeversion="1" /><inkscape:path-effect
   effect="spiro"
   id="path-effect858"
   is_visible="true"
   lpeversion="1" /><inkscape:path-effect
   effect="spiro"
   id="path-effect854"
   is_visible="true"
   lpeversion="1" />
  <style
   type="text/css"
   id="style2">
   <![CDATA[
    .fil0 {fill:#EF7F1A;fill-rule:nonzero}
   ]]>
  </style>
 <inkscape:path-effect
   effect="spiro"
   id="path-effect1214"
   is_visible="true"
   lpeversion="1" /><inkscape:path-effect
   effect="spiro"
   id="path-effect1195"
   is_visible="true"
   lpeversion="1" /><inkscape:path-effect
   effect="spiro"
   id="path-effect992"
   is_visible="true"
   lpeversion="1" /><inkscape:path-effect
   effect="spiro"
   id="path-effect287"
   is_visible="true"
   lpeversion="1" /><inkscape:path-effect
   effect="spiro"
   id="path-effect1032"
   is_visible="true"
   lpeversion="1" /><inkscape:path-effect
   effect="spiro"
   id="path-effect1218"
   is_visible="true"
   lpeversion="1" /><inkscape:path-effect
   effect="spiro"
   id="path-effect309"
   is_visible="true"
   lpeversion="1" /><inkscape:path-effect
   effect="spiro"
   id="path-effect1176"
   is_visible="true"
   lpeversion="1" /><inkscape:path-effect
   effect="spiro"
   id="path-effect1112"
   is_visible="true"
   lpeversion="1" /></defs>
 
<g
   id="g863"
   transform="translate(223.71435,20.072734)"><g
     id="g861"><path
       style="fill:#2d2d2d;fill-rule:nonzero;stroke:none;stroke-width:1px;stroke-linecap:butt;stroke-linejoin:miter;stroke-opacity:1"
       d="m 437.52661,624.77693 c 20.34362,69.76833 10.97499,147.68221 -25.32797,210.63916 -12.50098,21.67932 -28.18393,41.76225 -47.75958,57.35266 -19.57566,15.59041 -43.20879,26.54373 -68.10243,29.1077 -29.15247,3.00262 -58.92145,-5.71572 -83.40011,-21.83023 -24.47866,-16.11451 -43.84933,-39.29028 -57.82264,-65.05128 -27.94661,-51.522 -34.4405,-111.59635 -39.91339,-169.95367 -6.22355,-66.36152 -11.80941,-133.04622 -8.16159,-199.59903 3.64783,-66.55282 16.8386,-133.36222 46.47762,-193.06241 37.33674,-75.20527 101.45069,-137.52054 179.26401,-169.06342 42.00363,-17.026845 87.93222,-25.132243 133.04713,-20.789028 45.11491,4.343214 89.31149,21.450178 123.92742,50.706898 31.29622,26.45096 54.1194,62.15579 68.09581,100.67548 13.97641,38.51969 19.36566,79.81065 19.07319,120.78651 -0.47796,66.9629 -16.09478,133.77441 -45.34901,194.01102 43.37905,10.9149 82.04809,39.45734 105.25991,77.6946 23.21183,38.23725 30.69006,85.714 20.35627,129.23514 -12.61684,53.1363 -51.33403,98.66764 -100.2587,122.93755 -36.09605,17.90605 -77.57719,24.77292 -117.51792,19.45415 -39.94073,-5.31878 -78.17929,-22.80165 -108.33156,-49.52977 l 44.42819,-133.77142 c 17.31461,27.86123 41.51422,51.40819 69.83829,67.95481 28.46443,16.62862 62.21486,26.21753 94.66861,20.43059 16.22688,-2.89348 31.85799,-9.64962 44.55359,-20.16178 12.69561,-10.51215 22.35219,-24.83973 26.5212,-40.78661 4.68942,-17.93749 2.27547,-37.43882 -5.61302,-54.21726 -7.88849,-16.77844 -21.05155,-30.85055 -36.65806,-40.8596 -31.21304,-20.01809 -70.68377,-23.43073 -107.35152,-17.91227 -25.10386,3.77811 -49.61561,11.46475 -72.38156,22.69815 L 473.45551,519.31706 c 30.67914,10.98907 66.66838,5.75179 92.94306,-13.52542 16.74092,-12.28248 29.40149,-29.71198 37.30299,-48.91312 7.90151,-19.20115 11.17252,-40.12677 11.02718,-60.88964 -0.26936,-38.48065 -12.41481,-76.89412 -34.86876,-108.14557 -22.45395,-31.25145 -55.18866,-55.11426 -92.01239,-66.28771 -30.14416,-9.14666 -62.63416,-9.81313 -93.45078,-3.28102 -30.81661,6.5321 -59.96292,20.1411 -85.60967,38.43253 -51.2935,36.58286 -87.76622,90.93255 -112.7869,148.75377 -28.58711,66.06303 -43.53366,138.8889 -36.33114,210.51062 7.20252,71.62172 37.57556,141.8276 89.70143,191.47073 14.40203,13.71607 30.83671,26.06578 49.96057,31.52719 9.56192,2.7307 19.70086,3.66419 29.52197,2.10438 9.82111,-1.55982 19.3078,-5.67415 26.76616,-12.25139 11.5093,-10.14961 17.47641,-25.50263 18.87069,-40.78447 1.39428,-15.28184 -1.37094,-30.63628 -4.9608,-45.55578 -8.36595,-34.76898 -21.2991,-68.43617 -38.36248,-99.86406 z"
       id="path855"
       inkscape:path-effect="#path-effect857"
       inkscape:original-d="m 437.52661,624.77693 c 0,0 10.09818,149.43345 -25.32797,210.63916 -24.13985,41.70639 -68.27146,94.02969 -115.86201,86.46036 C 192.87567,905.42086 141.97954,766.32226 115.20049,665.04127 81.584292,537.9015 95.608398,390.45277 153.51652,272.37983 c 36.1678,-73.74509 101.29973,-143.21736 179.26401,-169.06342 81.85599,-27.136222 188.62974,-22.672672 256.97455,29.91787 62.87359,48.38049 81.40809,142.3382 87.169,221.46199 4.82273,66.23819 -45.34901,194.01102 -45.34901,194.01102 0,0 131.20161,126.43228 125.61618,206.92974 -3.66027,52.7519 -51.09612,103.46446 -100.2587,122.93755 -70.61037,27.96847 -266.89281,-32.8257 -225.84948,-30.07562 l 44.42819,-133.77142 c 0,0 38.49935,59.41679 69.83829,67.95481 54.87462,14.9501 154.24809,15.18307 165.7434,-40.5178 12.63178,-61.20767 -88.04148,-102.32579 -149.6226,-112.98913 -24.91493,-4.31425 -72.38156,22.69815 -72.38156,22.69815 L 473.45551,519.31706 c 0,0 68.02613,5.4297 92.94306,-13.52542 31.8269,-24.21177 52.6056,-70.04245 48.33017,-109.80276 C 607.04169,324.50152 558.45565,235.12154 487.84759,221.5556 374.92688,199.8601 244.7958,301.34184 196.00024,405.46088 c -57.36069,122.39515 -38.97487,303.27373 53.37029,401.98135 24.68067,26.38114 76.56043,41.96431 106.2487,21.38018 23.95627,-16.6099 13.20876,-51.1612 13.90989,-86.34025 0.94516,-47.42329 -38.36248,-99.86406 -38.36248,-99.86406 z"
       sodipodi:nodetypes="caaaaaaacaaccaaaccaaaaaascc" /><path
       style="fill:#2d2d2d;stroke:none;stroke-width:1px;stroke-linecap:butt;stroke-linejoin:miter;stroke-opacity:1"
       d="m -47.622385,779.92727 -93.983335,93.73785 c -38.71423,-71.19354 -65.02109,-149.11242 -77.38317,-229.20294 -5.91272,-38.30689 -8.65033,-77.40292 -3.58006,-115.83039 5.07026,-38.42748 18.27395,-76.30596 41.86148,-107.06318 24.38527,-31.79744 60.08677,-55.28616 99.487318,-62.58787 39.40055,-7.30172 82.13543167,2.32512 113.078505,27.78577 31.951288,26.29023 49.472273,67.17077 54.23883,108.27236 6.827801,58.8755 -11.290815,120.2389 -49.003491,165.96305 24.488368,4.51288 49.474062,5.52555 74.374508,5.64395 l 101.61736,0.48319 c 16.66301,0.0792 33.38865,0.60923 49.94461,-1.27815 8.27798,-0.94369 16.51882,-2.58754 24.29674,-5.57408 7.77792,-2.98655 15.10684,-7.37042 20.85994,-13.3968 8.45861,-8.86041 13.08009,-20.8356 14.9902,-32.93545 1.9101,-12.09985 1.30233,-24.44264 0.51602,-36.66707 -4.61759,-71.78797 -15.21782,-143.10855 -29.40423,-213.63217 -4.83518,-24.0367 -10.08754,-47.98948 -15.75391,-71.84391 l 160.7421,-0.3483 c -31.97196,50.04522 -45.53728,111.56957 -37.57533,170.4197 6.3469,46.91262 25.65345,91.05981 35.80151,137.29933 5.07404,23.11977 7.84632,46.95273 5.42939,70.49902 -2.41692,23.54629 -10.25033,46.87143 -24.76328,65.57019 -11.9016,15.33424 -28.00191,27.17692 -45.68783,35.17663 -17.68592,7.9997 -36.93162,12.24666 -56.28374,13.75747 -38.70423,3.02161 -77.35059,-4.70827 -115.41045,-12.363 C 137.64615,759.1133 73.030147,746.45711 9.2495155,755.40721 c -14.1231174,1.98185 -28.0982375,5.01751 -41.7708265,9.07343 L -41.3896,645.40194 c 16.131718,-8.5178 29.671329,-21.86962 38.413604,-37.8808 C 5.7662788,591.50996 9.6775921,572.90099 8.120899,554.72513 6.1246949,531.41756 -5.0871875,508.90149 -22.936085,493.78049 -40.784982,478.6595 -65.14005,471.28544 -88.29147,474.63796 c -15.66856,2.26894 -30.49665,9.24703 -42.86839,19.1259 -12.37173,9.87887 -22.33992,22.58917 -29.87917,36.51079 -17.52016,32.35188 -21.75083,71.2245 -13.86287,107.16028 7.88797,35.93578 27.47163,68.86588 53.65618,94.71099 20.96594,20.69415 46.184484,37.06091 73.623335,47.78135 z"
       id="path856"
       inkscape:path-effect="#path-effect859"
       inkscape:original-d="m -47.622385,779.92727 -93.983335,93.73785 c 0,0 -71.11932,-148.80876 -77.38317,-229.20294 -5.85587,-75.1579 -15.2319,-169.79625 38.28142,-222.89357 50.96703,-50.57082 148.619323,-67.45009 212.565823,-34.8021 35.951469,18.35508 50.665138,68.06482 54.23883,108.27236 5.106724,57.45565 -49.003491,165.96305 -49.003491,165.96305 0,0 49.512007,5.52573 74.374508,5.64395 l 101.61736,0.48319 c 40.56038,0.19286 73.63535,1.59532 95.10129,-20.24903 22.84669,-23.24945 12.58259,-36.9952 15.50622,-69.60252 5.81705,-64.87762 -23.94717,-149.00679 -29.40423,-213.63217 -2.06291,-24.43002 -15.75391,-71.84391 -15.75391,-71.84391 l 160.7421,-0.3483 c 0,0 -33.01801,112.4275 -37.57533,170.4197 -7.15183,91.00745 73.29763,201.92727 16.46762,273.36854 C 372.4261,792.74539 274.09827,766.84694 200.7873,771.81247 149.01408,775.3192 61.120231,758.74852 9.2495155,755.40721 -16.656011,753.73848 -32.521311,764.48064 -32.521311,764.48064 L -41.3896,645.40194 c 0,0 55.978082,-56.85192 49.510499,-90.67681 -7.84631075,-41.03551 -54.641921,-79.24609 -96.412369,-80.08717 -30.52185,-0.61458 -61.94663,27.08321 -72.74756,55.63669 -24.26573,64.14921 1.35764,145.0677 39.79331,201.87127 16.3955,24.2307 73.623335,47.78135 73.623335,47.78135 z"
       sodipodi:nodetypes="ccaaaacsssssccaassccaaaac" /></g></g></svg>
