<?xml version="1.0" encoding="UTF-8" standalone="no"?>
<svg
   xmlns:dc="http://purl.org/dc/elements/1.1/"
   xmlns:cc="http://creativecommons.org/ns#"
   xmlns:rdf="http://www.w3.org/1999/02/22-rdf-syntax-ns#"
   xmlns:svg="http://www.w3.org/2000/svg"
   xmlns="http://www.w3.org/2000/svg"
   xmlns:sodipodi="http://sodipodi.sourceforge.net/DTD/sodipodi-0.dtd"
   xmlns:inkscape="http://www.inkscape.org/namespaces/inkscape"
   xml:space="preserve"
   width="1000"
   height="1000"
   version="1.1"
   style="clip-rule:evenodd;fill-rule:evenodd;image-rendering:optimizeQuality;shape-rendering:geometricPrecision;text-rendering:geometricPrecision"
   viewBox="0 0 1000 1000"
   id="svg10"
   sodipodi:docname="à´.svg"
   inkscape:version="1.0.1 (3bc2e813f5, 2020-09-07)"><metadata
   id="metadata14"><rdf:RDF><cc:Work
       rdf:about=""><dc:format>image/svg+xml</dc:format><dc:type
         rdf:resource="http://purl.org/dc/dcmitype/StillImage" /><dc:title /></cc:Work></rdf:RDF></metadata><sodipodi:namedview
   pagecolor="#ffffff"
   bordercolor="#666666"
   borderopacity="1"
   objecttolerance="10"
   gridtolerance="10"
   guidetolerance="10"
   inkscape:pageopacity="0"
   inkscape:pageshadow="2"
   inkscape:window-width="1920"
   inkscape:window-height="1051"
   id="namedview12"
   showgrid="false"
   inkscape:zoom="0.9588368"
   inkscape:cx="315.44364"
   inkscape:cy="463.62156"
   inkscape:window-x="0"
   inkscape:window-y="0"
   inkscape:window-maximized="1"
   inkscape:current-layer="svg10"
   showguides="true"
   inkscape:guide-bbox="true"
   inkscape:document-rotation="0"
   inkscape:snap-to-guides="true"><sodipodi:guide
     position="0,1000"
     orientation="0,1"
     id="guide16"
     inkscape:label=""
     inkscape:locked="true"
     inkscape:color="rgb(0,0,255)" /><sodipodi:guide
     position="1763.3122,2036.1693"
     orientation="1000,0"
     id="guide18" /><sodipodi:guide
     position="0,200"
     orientation="0,1"
     id="guide20"
     inkscape:label="base"
     inkscape:locked="true"
     inkscape:color="rgb(0,0,255)" /><inkscape:grid
     type="xygrid"
     id="grid24"
     originx="-473.37552"
     originy="-489.69235" /><sodipodi:guide
     position="0,0"
     orientation="0,1"
     id="guide34"
     inkscape:label="bottom"
     inkscape:locked="true"
     inkscape:color="rgb(0,0,255)" /><sodipodi:guide
     position="225.05109,1693.3186"
     orientation="0,1"
     id="guide44"
     inkscape:label=""
     inkscape:locked="false"
     inkscape:color="rgb(0,0,255)" /><sodipodi:guide
     position="0,900"
     orientation="0,1"
     id="guide46"
     inkscape:label=""
     inkscape:locked="true"
     inkscape:color="rgb(0,0,255)" /><sodipodi:guide
     position="567.47709,546.60529"
     orientation="-1,0"
     id="guide841"
     inkscape:label=""
     inkscape:locked="false"
     inkscape:color="rgb(0,0,255)" /><sodipodi:guide
     position="0,1000"
     orientation="0,1000"
     id="guide860" /><sodipodi:guide
     position="1000,1000"
     orientation="1000,0"
     id="guide862" /><sodipodi:guide
     position="1000,0"
     orientation="0,-1000"
     id="guide864" /></sodipodi:namedview>
 <defs
   id="defs4"><inkscape:path-effect
   effect="spiro"
   id="path-effect1521"
   is_visible="true"
   lpeversion="1" /><inkscape:path-effect
   effect="spiro"
   id="path-effect858"
   is_visible="true"
   lpeversion="1" /><inkscape:path-effect
   effect="spiro"
   id="path-effect854"
   is_visible="true"
   lpeversion="1" />
  <style
   type="text/css"
   id="style2">
   <![CDATA[
    .fil0 {fill:#EF7F1A;fill-rule:nonzero}
   ]]>
  </style>
 <inkscape:path-effect
   effect="spiro"
   id="path-effect1214"
   is_visible="true"
   lpeversion="1" /><inkscape:path-effect
   effect="spiro"
   id="path-effect1195"
   is_visible="true"
   lpeversion="1" /><inkscape:path-effect
   effect="spiro"
   id="path-effect992"
   is_visible="true"
   lpeversion="1" /><inkscape:path-effect
   effect="spiro"
   id="path-effect287"
   is_visible="true"
   lpeversion="1" /><inkscape:path-effect
   effect="spiro"
   id="path-effect1032"
   is_visible="true"
   lpeversion="1" /><inkscape:path-effect
   effect="spiro"
   id="path-effect1218"
   is_visible="true"
   lpeversion="1" /><inkscape:path-effect
   effect="spiro"
   id="path-effect309"
   is_visible="true"
   lpeversion="1" /><inkscape:path-effect
   effect="spiro"
   id="path-effect1176"
   is_visible="true"
   lpeversion="1" /><inkscape:path-effect
   effect="spiro"
   id="path-effect859"
   is_visible="true"
   lpeversion="1" /><inkscape:path-effect
   effect="spiro"
   id="path-effect882"
   is_visible="true"
   lpeversion="1" /><inkscape:path-effect
   effect="spiro"
   id="path-effect884"
   is_visible="true"
   lpeversion="1" /></defs>
 
<path
   style="clip-rule:evenodd;fill:#2d2d2d;fill-rule:nonzero;stroke:none;stroke-width:1px;stroke-linecap:butt;stroke-linejoin:miter;stroke-opacity:1;image-rendering:optimizeQuality;shape-rendering:geometricPrecision;text-rendering:geometricPrecision"
   d="m 667.24008,660.2963 c 20.34359,69.76831 10.97496,147.68216 -25.32797,210.6391 -12.50097,21.67932 -28.18392,41.76226 -47.75957,57.35268 -19.57566,15.59042 -43.20879,26.54374 -68.10243,29.10772 -29.15247,3.00263 -58.92146,-5.71571 -83.40012,-21.83022 -24.47867,-16.11451 -43.84934,-39.29028 -57.82264,-65.05129 -27.94661,-51.522 -34.4405,-111.59636 -39.91339,-169.95369 -6.22354,-66.36152 -11.80941,-133.04621 -8.16158,-199.59903 3.64782,-66.55282 16.8386,-133.36221 46.47761,-193.0624 37.33673,-75.20528 101.4507,-137.52056 179.26402,-169.06344 42.00363,-17.02684 87.93222,-25.13224 133.04712,-20.78903 45.11491,4.34322 89.31149,21.45018 123.92742,50.7069 31.29622,26.45097 54.1194,62.15579 68.09581,100.67549 13.97641,38.51969 19.36567,79.81066 19.07319,120.78652 -0.47797,66.96289 -16.09479,133.77439 -45.34901,194.01099 43.37906,10.9149 82.04811,39.45735 105.25994,77.69462 23.21183,38.23727 30.69005,85.71403 20.35624,129.23518 -12.61686,53.13629 -51.33404,98.6676 -100.2587,122.9375 -36.09605,17.90605 -77.57718,24.77292 -117.51791,19.45415 -39.94074,-5.31877 -78.1793,-22.80164 -108.33157,-49.52975 l 44.42819,-133.7714 c 17.31461,27.86122 41.51422,51.40818 69.83829,67.9548 28.46443,16.62862 62.21486,26.21754 94.66862,20.43059 16.22687,-2.89347 31.85799,-9.64962 44.55359,-20.16177 12.6956,-10.51215 22.35219,-24.83974 26.52119,-40.78662 4.68941,-17.93749 2.27545,-37.43881 -5.61304,-54.21725 -7.88849,-16.77843 -21.05155,-30.85053 -36.65806,-40.85957 -31.21303,-20.01808 -70.68375,-23.43073 -107.3515,-17.91228 -25.10386,3.7781 -49.6156,11.46472 -72.38156,22.6981 L 703.16898,554.8364 c 30.67914,10.98908 66.66838,5.7518 92.94306,-13.5254 16.74093,-12.28248 29.4015,-29.71199 37.303,-48.91314 7.9015,-19.20115 11.17251,-40.12679 11.02717,-60.88966 -0.26937,-38.48065 -12.41482,-76.89411 -34.86877,-108.14556 -22.45395,-31.25145 -55.18865,-55.11425 -92.01238,-66.2877 -30.14416,-9.14666 -62.63416,-9.81313 -93.45077,-3.28102 -30.81661,6.5321 -59.96292,20.1411 -85.60967,38.43253 -51.29349,36.58285 -87.76621,90.93254 -112.7869,148.75375 -28.58713,66.06304 -43.53371,138.88892 -36.3312,210.51066 7.20252,71.62173 37.57558,141.82763 89.70149,191.47074 14.40203,13.71605 30.83672,26.06575 49.96058,31.52714 9.56193,2.7307 19.70086,3.66419 29.52197,2.10436 9.82111,-1.55982 19.3078,-5.67416 26.76615,-12.2514 11.50929,-10.14961 17.47639,-25.50262 18.87067,-40.78445 1.39428,-15.28183 -1.37094,-30.63626 -4.96079,-45.55575 -8.36594,-34.76899 -21.29909,-68.4362 -38.36247,-99.8641 z"
   id="path855"
   inkscape:path-effect="#path-effect884"
   inkscape:original-d="m 667.24008,660.2963 c 0,0 10.09818,149.4334 -25.32797,210.6391 -24.13985,41.7064 -68.27145,94.0297 -115.862,86.4604 C 422.58915,940.9402 371.69301,801.8416 344.91396,700.5606 311.29776,573.4208 325.32186,425.9721 383.22999,307.89917 419.3978,234.15407 484.52973,164.68179 562.49401,138.83573 c 81.85598,-27.13622 188.62973,-22.67267 256.97454,29.91787 62.87359,48.38049 81.40809,142.33822 87.169,221.46201 4.82273,66.23819 -45.34901,194.01099 -45.34901,194.01099 0,0 131.20161,126.4323 125.61618,206.9298 -3.66027,52.7519 -51.09612,103.4644 -100.2587,122.9375 -70.61037,27.9685 -266.89281,-32.8257 -225.84948,-30.0756 l 44.42819,-133.7714 c 0,0 38.49935,59.4168 69.83829,67.9548 54.87462,14.9501 154.24809,15.1831 165.7434,-40.5178 12.63178,-61.2077 -88.04148,-102.3258 -149.6226,-112.9891 -24.91493,-4.3143 -72.38156,22.6981 -72.38156,22.6981 L 703.16898,554.8364 c 0,0 68.02613,5.4297 92.94306,-13.5254 31.8269,-24.2118 52.6056,-70.0425 48.33017,-109.8028 C 836.75516,360.02086 788.16912,270.64088 717.56106,257.07494 604.64035,235.37943 474.50928,336.86118 425.71372,440.9802 c -57.3607,122.3952 -38.97488,303.2737 53.37029,401.9814 24.68067,26.3811 76.56043,41.9643 106.2487,21.3801 23.95626,-16.6099 13.20875,-51.1612 13.90988,-86.3402 0.94516,-47.4233 -38.36247,-99.8641 -38.36247,-99.8641 z"
   sodipodi:nodetypes="caaaaaaacaaccaaaccaaaaaascc" /><path
   style="clip-rule:evenodd;fill:#2d2d2d;fill-rule:evenodd;stroke:none;stroke-width:1px;stroke-linecap:butt;stroke-linejoin:miter;stroke-opacity:1;image-rendering:optimizeQuality;shape-rendering:geometricPrecision;text-rendering:geometricPrecision"
   d="M 182.09108,815.4466 88.107754,909.1845 C 49.393525,837.99094 23.086663,760.07203 10.724584,679.9815 4.8118642,641.6746 2.0742564,602.57857 7.1445193,564.15109 12.214782,525.72361 25.418469,487.84512 49.006004,457.0879 c 24.385268,-31.79744 60.086766,-55.28616 99.487316,-62.58787 39.40055,-7.30172 82.13543,2.32512 113.0785,27.78577 31.9513,26.29024 49.47228,67.1708 54.23883,108.2724 6.82779,58.87552 -11.29082,120.23893 -49.00349,165.9631 24.48837,4.51283 49.47407,5.5255 74.37451,5.6439 l 101.61737,0.4832 c 16.663,0.0792 33.38865,0.60923 49.94461,-1.27814 8.27798,-0.94369 16.51881,-2.58753 24.29673,-5.57407 7.77792,-2.98655 15.10684,-7.37041 20.85995,-13.39679 8.45863,-8.86041 13.08011,-20.83562 14.99021,-32.93549 1.9101,-12.09987 1.30232,-24.44267 0.51601,-36.66711 -4.61762,-71.78795 -15.21783,-143.1085 -29.40423,-213.6321 -4.83518,-24.0367 -10.08754,-47.98949 -15.75391,-71.84393 l 160.74209,-0.3483 c -31.97196,50.04523 -45.53728,111.56959 -37.57533,170.41973 6.3469,46.91261 25.65344,91.05979 35.8015,137.29931 5.07403,23.11976 7.84631,46.95272 5.42939,70.49901 -2.41692,23.54628 -10.25032,46.87142 -24.76327,65.57018 -11.9016,15.33424 -28.00191,27.17693 -45.68782,35.17664 -17.68592,7.9997 -36.93163,12.24667 -56.28374,13.75748 -38.70423,3.02161 -77.3506,-4.70827 -115.41045,-12.36302 -63.14115,-12.6992 -127.75717,-25.35547 -191.5378,-16.4053 -14.12312,1.98186 -28.09824,5.01755 -41.77082,9.0735 l -8.86829,-119.0787 c 16.13171,-8.51781 29.67132,-21.86962 38.4136,-37.8808 8.74227,-16.01118 12.65359,-34.62014 11.0969,-52.796 -1.9962,-23.30757 -13.20808,-45.82366 -31.05697,-60.94466 -17.8489,-15.121 -42.20398,-22.49506 -65.3554,-19.14254 -15.66856,2.26894 -30.49665,9.24703 -42.868384,19.12591 -12.371733,9.87887 -22.339919,22.58917 -29.879172,36.51079 -17.520161,32.35189 -21.750845,71.22451 -13.862882,107.16029 7.887964,35.93579 27.471624,68.86591 53.656188,94.71101 20.96594,20.69413 46.18448,37.06089 73.62333,47.7813 z"
   id="path856"
   inkscape:path-effect="#path-effect882"
   inkscape:original-d="m 182.09108,815.4466 -93.983326,93.7379 c 0,0 -71.11932,-148.8088 -77.38317,-229.203 -5.85587,-75.1579 -15.2319,-169.7962 38.28142,-222.8936 50.96703,-50.5708 148.619316,-67.45004 212.565816,-34.8021 35.95147,18.3551 50.66514,68.0649 54.23883,108.2724 5.10672,57.4557 -49.00349,165.9631 -49.00349,165.9631 0,0 49.51201,5.5257 74.37451,5.6439 l 101.61737,0.4832 c 40.56038,0.1929 73.63535,1.5953 95.10129,-20.249 22.84669,-23.2495 12.58259,-36.9952 15.50622,-69.6026 5.81705,-64.8776 -23.94717,-149.0067 -29.40423,-213.6321 -2.06291,-24.43004 -15.75391,-71.84393 -15.75391,-71.84393 l 160.74209,-0.3483 c 0,0 -33.01801,112.42753 -37.57533,170.41973 -7.15183,91.0074 73.29763,201.9272 16.46762,273.3685 -45.74322,57.504 -144.07104,31.6056 -217.38201,36.5711 C 378.72755,810.8385 290.8337,794.2679 238.96298,790.9265 213.05746,789.2578 197.19216,800 197.19216,800 l -8.86829,-119.0787 c 0,0 55.97808,-56.8519 49.5105,-90.6768 -7.84632,-41.0355 -54.64193,-79.2461 -96.41237,-80.0872 -30.52185,-0.6146 -61.946626,27.0832 -72.747556,55.6367 -24.26573,64.1492 1.35764,145.0677 39.793306,201.8713 16.3955,24.2307 73.62333,47.7813 73.62333,47.7813 z"
   sodipodi:nodetypes="ccaaaacsssssccaassccaaaac" /></svg>
