<?xml version="1.0" encoding="UTF-8"?>
<!DOCTYPE svg PUBLIC "-//W3C//DTD SVG 1.1//EN" "http://www.w3.org/Graphics/SVG/1.1/DTD/svg11.dtd">
<!-- Creator: CorelDRAW X8 -->
<svg xmlns="http://www.w3.org/2000/svg" xml:space="preserve" width="1241px" height="1024px" version="1.1" style="shape-rendering:geometricPrecision; text-rendering:geometricPrecision; image-rendering:optimizeQuality; fill-rule:evenodd; clip-rule:evenodd"
viewBox="0 0 1241 1024"
 xmlns:xlink="http://www.w3.org/1999/xlink">
 <defs>
  <style type="text/css">
   <![CDATA[
    .fil0 {fill:#EF7F1A;fill-rule:nonzero}
   ]]>
  </style>
 </defs>
 <g id="Layer_x0020_1">
  <metadata id="CorelCorpID_0Corel-Layer"/>
  <path class="fil0" d="M1174 913c41,-49 67,-109 67,-173 0,-92 -52,-169 -132,-215 63,-44 102,-111 102,-187 0,-136 -86,-221 -198,-271 -111,-50 -247,-67 -352,-67 -165,0 -317,38 -433,117 -139,95 -228,246 -228,458 0,88 13,176 53,255 66,130 181,194 329,194 85,0 176,-27 243,-81 75,-62 108,-155 108,-250 0,-78 -25,-152 -80,-210 -65,-68 -163,-101 -258,-101 -65,0 -126,16 -180,54 20,-91 60,-161 116,-213 82,-76 197,-112 330,-112 83,0 189,17 262,68 51,35 86,86 86,158 0,39 -13,78 -42,105 -42,40 -59,30 -108,35 -30,3 -86,18 -86,55 0,37 59,55 88,55 49,1 78,-6 120,27 39,31 59,80 58,129 0,45 -19,89 -48,124 -20,23 -52,46 -85,46 -30,0 -55,-16 -90,-16 -29,0 -58,8 -79,26 -11,10 -16,20 -16,29 0,21 22,39 47,47 47,16 83,25 131,25 98,0 211,-34 275,-111zm-791 0c-108,0 -154,-117 -154,-207 0,-91 47,-207 156,-207 108,0 153,116 153,207 0,90 -47,207 -155,207z"/>
 </g>
</svg>
