<?xml version="1.0" encoding="UTF-8"?>
<!DOCTYPE svg PUBLIC "-//W3C//DTD SVG 1.1//EN" "http://www.w3.org/Graphics/SVG/1.1/DTD/svg11.dtd">
<!-- Creator: CorelDRAW X8 -->
<svg xmlns="http://www.w3.org/2000/svg" xml:space="preserve" width="3163px" height="1486px" version="1.1" style="shape-rendering:geometricPrecision; text-rendering:geometricPrecision; image-rendering:optimizeQuality; fill-rule:evenodd; clip-rule:evenodd"
viewBox="0 0 3163 1486"
 xmlns:xlink="http://www.w3.org/1999/xlink">
 <defs>
  <style type="text/css">
   <![CDATA[
    .fil0 {fill:#E31E24;fill-rule:nonzero}
   ]]>
  </style>
 </defs>
 <g id="Layer_x0020_1">
  <metadata id="CorelCorpID_0Corel-Layer"/>
  <path class="fil0" d="M3014 1486c46,0 101,-28 101,-80 0,-51 -55,-79 -101,-79l-1213 0c-53,0 -112,0 -112,-70 0,-63 59,-67 112,-67l852 0c153,0 311,-35 420,-150 64,-67 90,-150 90,-240 0,-112 -54,-211 -153,-268 65,-46 105,-119 105,-199 0,-109 -70,-198 -164,-252 -105,-62 -242,-81 -364,-81 -101,0 -205,9 -301,40 -75,-29 -157,-39 -237,-39 -200,0 -398,99 -495,280 -31,59 -51,122 -61,187 -58,-22 -101,-28 -157,-28l-22 0c-5,-87 -22,-178 -66,-255 -77,-136 -212,-185 -365,-185 -152,0 -288,49 -365,186 -43,77 -60,167 -65,254l-64 0c-111,0 -227,30 -307,109 -53,52 -82,116 -82,191 0,71 29,138 81,188 67,65 163,96 259,96 91,0 184,-28 244,-101 81,76 190,101 299,101 151,0 284,-47 362,-181 51,-87 67,-192 70,-292l21 0c38,0 71,18 98,41 32,28 54,60 63,103 27,121 90,235 199,301 29,18 63,29 97,29 24,0 48,-6 69,-19 19,-11 27,-24 27,-38 0,-15 -11,-30 -32,-41 -126,-64 -170,-224 -170,-354 0,-89 20,-181 62,-261 56,-107 174,-201 300,-200 23,0 47,3 69,7 -150,113 -228,290 -228,474 0,85 17,175 58,250 68,123 188,181 327,181 140,0 262,-58 330,-181 42,-75 59,-165 59,-250 0,-182 -76,-357 -224,-470 48,-10 98,-11 147,-11 144,0 332,52 332,221 0,62 -33,146 -106,146 -36,0 -81,12 -81,57 0,42 46,54 80,55 106,2 157,117 157,209 0,58 -23,114 -58,162 -58,80 -158,117 -255,117l-855 0c-135,0 -317,27 -317,201 0,173 175,206 317,206l1213 0zm-1902 -1046l-457 0c10,-153 65,-328 228,-328 161,0 219,171 229,328zm1163 473c-60,0 -106,-54 -133,-102 -36,-65 -50,-145 -50,-218 0,-150 62,-310 184,-404 124,95 185,252 185,404 0,73 -14,152 -50,217 -27,48 -75,103 -136,103zm-1935 0c-30,0 -62,-19 -83,-40 -37,-35 -55,-85 -55,-135 0,-50 21,-99 57,-134 36,-36 80,-52 130,-52l62 0c2,42 6,80 13,121 3,17 4,35 4,53 0,54 -13,107 -51,147 -19,20 -48,39 -77,40zm543 -1c-173,0 -223,-197 -229,-360l459 0c-6,167 -59,360 -230,360z"/>
 </g>
</svg>
