<?xml version="1.0" encoding="UTF-8"?>
<!DOCTYPE svg PUBLIC "-//W3C//DTD SVG 1.1//EN" "http://www.w3.org/Graphics/SVG/1.1/DTD/svg11.dtd">
<!-- Creator: CorelDRAW X8 -->
<svg xmlns="http://www.w3.org/2000/svg" xml:space="preserve" width="3118px" height="1486px" version="1.1" style="shape-rendering:geometricPrecision; text-rendering:geometricPrecision; image-rendering:optimizeQuality; fill-rule:evenodd; clip-rule:evenodd"
viewBox="0 0 3118 1486"
 xmlns:xlink="http://www.w3.org/1999/xlink">
 <defs>
  <style type="text/css">
   <![CDATA[
    .fil0 {fill:#E31E24;fill-rule:nonzero}
   ]]>
  </style>
 </defs>
 <g id="Layer_x0020_1">
  <metadata id="CorelCorpID_0Corel-Layer"/>
  <path class="fil0" d="M884 912c-173,0 -224,-194 -230,-360l459 0c-6,164 -55,360 -229,360zm-544 0c-30,0 -62,-19 -83,-39 -37,-35 -55,-85 -55,-135 0,-51 21,-100 57,-135 35,-35 80,-51 130,-51l63 0c1,42 5,80 12,121 3,17 5,34 5,52 0,54 -15,109 -52,148 -19,20 -48,39 -77,39zm1936 0c-60,0 -107,-54 -133,-102 -36,-65 -51,-138 -51,-211 -1,-150 62,-317 185,-411 124,95 185,259 185,411 0,73 -14,145 -50,210 -27,48 -75,103 -136,103zm-1164 -472l-457 0c10,-152 64,-328 229,-328 163,0 218,174 228,328zm1846 716c107,-144 160,-325 160,-503 0,-136 -33,-269 -106,-385 -109,-173 -302,-268 -506,-268 -78,0 -156,11 -230,36 -72,-25 -151,-36 -228,-36 -204,0 -398,100 -493,280 -31,59 -52,123 -62,188 -58,-22 -100,-28 -156,-28l-23 0c-5,-88 -22,-178 -66,-255 -78,-136 -212,-185 -364,-185 -153,0 -289,49 -366,186 -43,77 -60,167 -65,254l-64 0c-111,0 -227,30 -307,109 -53,52 -82,116 -82,190 0,72 29,139 81,189 68,66 166,96 260,96 92,0 184,-28 243,-102 81,77 190,102 300,102 150,0 284,-48 361,-181 51,-88 67,-192 71,-292l21 0c37,0 71,18 98,41 31,27 53,60 62,103 26,121 91,234 200,300 29,18 63,29 96,29 24,0 48,-6 70,-19 18,-11 27,-24 27,-38 0,-15 -12,-30 -33,-41 -125,-64 -170,-224 -170,-354 0,-89 20,-181 62,-261 57,-106 173,-199 299,-199 24,0 47,2 71,6 -151,113 -229,297 -229,481 0,85 18,169 59,243 69,123 188,181 327,181 140,0 261,-58 329,-181 42,-75 59,-158 59,-243 0,-185 -77,-368 -229,-481 24,-4 47,-6 71,-6 130,0 244,92 313,195 70,105 97,232 97,356 0,146 -31,295 -103,423 -37,66 -85,125 -143,174 -32,-65 -131,-101 -197,-116 -64,-15 -131,-20 -197,-20 -71,0 -146,6 -216,23 -73,19 -194,68 -194,157 0,88 117,138 189,157 66,17 141,25 221,25 82,0 159,-8 231,-25 179,-43 329,-140 451,-305zm-681 226c-151,0 -222,-39 -222,-78 0,-39 79,-75 222,-75 142,0 216,39 216,75 0,37 -67,78 -216,78z"/>
 </g>
</svg>
