<?xml version="1.0" encoding="UTF-8"?>
<!DOCTYPE svg PUBLIC "-//W3C//DTD SVG 1.1//EN" "http://www.w3.org/Graphics/SVG/1.1/DTD/svg11.dtd">
<!-- Creator: CorelDRAW X8 -->
<svg xmlns="http://www.w3.org/2000/svg" xml:space="preserve" width="1290px" height="868px" version="1.1" style="shape-rendering:geometricPrecision; text-rendering:geometricPrecision; image-rendering:optimizeQuality; fill-rule:evenodd; clip-rule:evenodd"
viewBox="0 0 1290 868"
 xmlns:xlink="http://www.w3.org/1999/xlink">
 <defs>
  <style type="text/css">
   <![CDATA[
    .fil0 {fill:#E31E24;fill-rule:nonzero}
   ]]>
  </style>
 </defs>
 <g id="Layer_x0020_1">
  <metadata id="CorelCorpID_0Corel-Layer"/>
  <path class="fil0" d="M1119 755c93,-63 171,-168 171,-283 0,-54 -15,-103 -51,-145 -50,-58 -118,-72 -196,-72l-22 0c-4,-50 -14,-101 -40,-146 -49,-83 -136,-109 -229,-109 -93,0 -181,26 -230,110 -25,44 -36,95 -39,145l-28 0c-69,0 -143,17 -194,66 -31,29 -50,66 -50,108 0,43 18,84 49,114 44,41 107,57 167,57 53,0 108,-13 147,-51 50,39 115,51 178,51 92,0 179,-25 228,-107 29,-49 40,-112 41,-168l22 0c42,0 68,25 86,61 13,26 18,57 18,86 0,88 -43,158 -108,214 -99,87 -211,113 -338,113 -150,0 -305,-33 -420,-133 -96,-84 -138,-193 -138,-319 0,-111 46,-229 143,-290 11,-7 16,-15 16,-22 0,-14 -20,-27 -46,-32 -9,-2 -19,-3 -29,-3 -19,0 -39,4 -55,14 -113,72 -172,201 -172,333 0,149 57,274 175,368 147,118 341,153 526,153 145,0 296,-30 418,-113zm-241 -500l-253 0c6,-81 40,-186 127,-186 85,0 120,103 126,186zm-126 276c-92,0 -123,-117 -127,-206l254 0c-4,88 -34,206 -127,206zm-327 0c-24,0 -43,-20 -54,-39 -12,-20 -17,-40 -17,-63 0,-28 10,-51 30,-72 18,-20 44,-32 71,-32l27 0c1,23 4,46 8,69 2,10 3,19 3,29 0,24 -6,49 -17,70 -10,18 -29,38 -51,38z"/>
 </g>
</svg>
