<?xml version="1.0" encoding="UTF-8" standalone="no"?>
<svg
   xmlns:dc="http://purl.org/dc/elements/1.1/"
   xmlns:cc="http://creativecommons.org/ns#"
   xmlns:rdf="http://www.w3.org/1999/02/22-rdf-syntax-ns#"
   xmlns:svg="http://www.w3.org/2000/svg"
   xmlns="http://www.w3.org/2000/svg"
   xmlns:sodipodi="http://sodipodi.sourceforge.net/DTD/sodipodi-0.dtd"
   xmlns:inkscape="http://www.inkscape.org/namespaces/inkscape"
   xml:space="preserve"
   width="1000"
   height="1000"
   version="1.1"
   style="clip-rule:evenodd;fill-rule:evenodd;image-rendering:optimizeQuality;shape-rendering:geometricPrecision;text-rendering:geometricPrecision"
   viewBox="0 0 1000 1000"
   id="svg10"
   sodipodi:docname="ക്ത്ര.svg"
   inkscape:version="1.0.1 (3bc2e813f5, 2020-09-07)"><metadata
   id="metadata14"><rdf:RDF><cc:Work
       rdf:about=""><dc:format>image/svg+xml</dc:format><dc:type
         rdf:resource="http://purl.org/dc/dcmitype/StillImage" /><dc:title /></cc:Work></rdf:RDF></metadata><sodipodi:namedview
   pagecolor="#ffffff"
   bordercolor="#666666"
   borderopacity="1"
   objecttolerance="10"
   gridtolerance="10"
   guidetolerance="10"
   inkscape:pageopacity="0"
   inkscape:pageshadow="2"
   inkscape:window-width="1920"
   inkscape:window-height="1015"
   id="namedview12"
   showgrid="false"
   inkscape:zoom="0.678"
   inkscape:cx="482.80725"
   inkscape:cy="583.59122"
   inkscape:window-x="1920"
   inkscape:window-y="0"
   inkscape:window-maximized="1"
   inkscape:current-layer="g885"
   showguides="true"
   inkscape:guide-bbox="true"
   inkscape:document-rotation="0"
   inkscape:snap-to-guides="true"><sodipodi:guide
     position="0,1000"
     orientation="0,1"
     id="guide16"
     inkscape:label=""
     inkscape:locked="true"
     inkscape:color="rgb(0,0,255)" /><sodipodi:guide
     position="1763.3122,2036.1693"
     orientation="1000,0"
     id="guide18" /><sodipodi:guide
     position="0,200"
     orientation="0,1"
     id="guide20"
     inkscape:label="base"
     inkscape:locked="true"
     inkscape:color="rgb(0,0,255)" /><inkscape:grid
     type="xygrid"
     id="grid24"
     originx="-473.37552"
     originy="-489.69235" /><sodipodi:guide
     position="0,0"
     orientation="0,1"
     id="guide34"
     inkscape:label="bottom"
     inkscape:locked="true"
     inkscape:color="rgb(0,0,255)" /><sodipodi:guide
     position="225.05109,1693.3186"
     orientation="0,1"
     id="guide44"
     inkscape:label=""
     inkscape:locked="false"
     inkscape:color="rgb(0,0,255)" /><sodipodi:guide
     position="0,900"
     orientation="0,1"
     id="guide46"
     inkscape:label=""
     inkscape:locked="true"
     inkscape:color="rgb(0,0,255)" /><sodipodi:guide
     position="1219.0035,589.27765"
     orientation="-1,0"
     id="guide841"
     inkscape:label="width"
     inkscape:locked="false"
     inkscape:color="rgb(0,0,255)" /><sodipodi:guide
     position="0,1000"
     orientation="0,1000"
     id="guide860" /><sodipodi:guide
     position="1000,1000"
     orientation="1000,0"
     id="guide862" /><sodipodi:guide
     position="1000,0"
     orientation="0,-1000"
     id="guide864" /><sodipodi:guide
     position="-1.1901017,737.41695"
     orientation="-1000,0"
     id="guide866" /></sodipodi:namedview>
 <defs
   id="defs4"><inkscape:path-effect
   effect="spiro"
   id="path-effect1521"
   is_visible="true"
   lpeversion="1" /><inkscape:path-effect
   effect="spiro"
   id="path-effect858"
   is_visible="true"
   lpeversion="1" /><inkscape:path-effect
   effect="spiro"
   id="path-effect854"
   is_visible="true"
   lpeversion="1" />
  <style
   type="text/css"
   id="style2">
   <![CDATA[
    .fil0 {fill:#EF7F1A;fill-rule:nonzero}
   ]]>
  </style>
 <inkscape:path-effect
   effect="spiro"
   id="path-effect1214"
   is_visible="true"
   lpeversion="1" /><inkscape:path-effect
   effect="spiro"
   id="path-effect1195"
   is_visible="true"
   lpeversion="1" /><inkscape:path-effect
   effect="spiro"
   id="path-effect992"
   is_visible="true"
   lpeversion="1" /><inkscape:path-effect
   effect="spiro"
   id="path-effect287"
   is_visible="true"
   lpeversion="1" /><inkscape:path-effect
   effect="spiro"
   id="path-effect1032"
   is_visible="true"
   lpeversion="1" /><inkscape:path-effect
   effect="spiro"
   id="path-effect1218"
   is_visible="true"
   lpeversion="1" /><inkscape:path-effect
   effect="spiro"
   id="path-effect309"
   is_visible="true"
   lpeversion="1" /><inkscape:path-effect
   effect="spiro"
   id="path-effect1176"
   is_visible="true"
   lpeversion="1" /><inkscape:path-effect
   effect="spiro"
   id="path-effect851"
   is_visible="true"
   lpeversion="1" /><style
   type="text/css"
   id="style2-9">
   <![CDATA[
    .fil0 {fill:#EF7F1A;fill-rule:nonzero}
   ]]>
  </style><inkscape:path-effect
   effect="spiro"
   id="path-effect1060"
   is_visible="true"
   lpeversion="1" /><inkscape:path-effect
   effect="spiro"
   id="path-effect1047"
   is_visible="true"
   lpeversion="1" /><inkscape:path-effect
   effect="spiro"
   id="path-effect1085"
   is_visible="true"
   lpeversion="1" /><inkscape:path-effect
   effect="spiro"
   id="path-effect1286"
   is_visible="true"
   lpeversion="1" /><inkscape:path-effect
   effect="spiro"
   id="path-effect1305"
   is_visible="true"
   lpeversion="1" /></defs>
 
<g
   style="clip-rule:evenodd;fill-rule:evenodd;image-rendering:optimizeQuality;shape-rendering:geometricPrecision;text-rendering:geometricPrecision"
   id="g885"><path
     id="path1210-6"
     style="display:inline;fill:#1a1a1a;fill-rule:nonzero;stroke:none;stroke-width:2.22142px;stroke-linecap:butt;stroke-linejoin:miter;stroke-opacity:1"
     d="m 625.92416,253.89791 c 3.05376,-30.55134 12.10162,-60.86009 29.07862,-86.44311 14.93471,-22.50545 36.52505,-41.34146 62.38085,-49.15291 27.76769,-8.38906 58.01703,-3.52251 85.27409,6.40087 63.01332,22.94104 114.33865,71.98692 148.91977,129.44227 34.58111,57.45534 53.60281,123.04299 65.41651,189.05364 7.0895,39.61372 11.7198,80.01995 7.9988,120.09066 -3.7211,40.07071 -16.2318,80.02498 -40.68405,111.98739 -10.51047,13.73861 -23.19154,25.92387 -37.89771,35.03144 -14.70617,9.10757 -31.47881,15.07697 -48.73254,16.31316 -16.00101,1.14644 -32.22076,-1.79932 -47.00009,-8.03773 -14.77934,-6.23842 -28.12086,-15.728 -39.23497,-27.29619 -22.22823,-23.13637 -35.18216,-54.17274 -39.91989,-85.90506 -5.5813,-37.3824 -0.34563,-75.47523 5.98385,-112.73824 7.6372,-44.96182 16.94018,-89.89041 33.24589,-132.48167 30.14355,-78.73634 83.50521,-147.10221 146.07663,-203.60763 16.16372,-14.59672 33.0562,-28.53544 51.74158,-39.72411 18.6854,-11.18866 39.2828,-19.596035 60.8731,-22.4578 28.9328,-3.835002 59.6485,2.942736 82.6936,20.85176 14.387,11.18056 25.4442,26.28073 33.3417,42.70089 7.8974,16.42016 12.744,34.16562 16.029,52.08769 9.8122,53.53324 5.9296,108.51378 2.008,162.79738 -4.1772,57.82203 -8.3706,115.73532 -17.6873,172.95451 -10.2501,62.95171 -26.9378,125.50817 -57.1629,181.67241 -48.5811,90.27328 -130.73807,160.03753 -223.59285,203.48154 -92.85478,43.44401 -196.02004,61.78667 -298.50406,64.32008 C 494.72374,998.00399 380.99005,981.89404 279.2479,935.35678 177.50574,888.81951 88.411627,810.09874 41.300713,708.62093 7.9467009,636.77575 -3.5204339,556.3589 -3.244774,477.14941 -2.969114,397.93992 8.6106254,319.26402 19.433943,240.79699 25.902689,193.89979 32.109705,146.96648 38.054603,100 l 142.316227,43.25462 c -23.1977,55.70699 -42.28775,113.12399 -57.06398,171.63095 -22.68765,89.83245 -35.164664,183.85245 -19.93468,275.24527 15.22999,91.39281 60.6943,180.3193 136.09304,234.16751 50.3612,35.96692 111.36629,54.73282 172.70968,62.90955 61.34339,8.17673 123.5305,6.30231 185.38467,4.31942 80.59774,-2.58377 161.97958,-5.43614 239.99165,-25.85153 78.01207,-20.41538 153.46461,-60.16695 202.32739,-124.316 30.8769,-40.53642 49.9175,-89.12867 61.0677,-138.85044 11.1503,-49.72177 14.7247,-100.80842 17.0996,-151.70972 1.7776,-38.0995 2.866,-76.67144 -5.0277,-113.9866 -5.0738,-23.98482 -14.3931,-48.02773 -32.2537,-64.821 -13.3966,-12.59607 -31.2002,-20.40856 -49.5398,-21.74662 -17.6827,-1.29013 -35.47732,3.3127 -51.33393,11.24424 -15.8566,7.93154 -29.90701,19.08987 -42.7597,31.30255 -37.74632,35.86672 -65.87374,81.37757 -83.32076,130.4368 -11.155,31.36671 -18.05327,64.28021 -19.94386,97.51769 -1.1876,20.8786 -0.27078,42.47761 8.21869,61.58926 4.24474,9.55583 10.38436,18.35061 18.37879,25.0901 7.99443,6.73949 17.88882,11.35681 28.28762,12.45067 9.77383,1.02812 19.77333,-1.07546 28.58037,-5.43675 8.80703,-4.36128 16.44138,-10.92254 22.55572,-18.61666 12.22868,-15.38825 18.23363,-34.84261 21.51612,-54.22208 6.76962,-39.96711 2.91071,-81.44693 -9.17604,-120.13942 -12.41539,-39.74456 -33.63939,-76.94674 -62.96796,-106.50358 -13.90553,-14.01376 -29.79811,-26.41034 -48.02741,-33.98936 -18.2293,-7.57903 -38.99376,-10.06306 -57.90424,-4.3936 -20.6272,6.18414 -37.6486,21.65184 -48.83989,40.04966 -11.19129,18.39783 -17.01928,39.5944 -20.42497,60.85766 -7.94614,49.61141 -3.3475,100.26929 1.09345,150.31638 6.43438,72.51197 12.86411,146.54382 41.84606,213.32281 11.64067,26.82194 26.81281,52.10874 45.00135,75.00194 l -188.23602,2.80445 c 14.08396,-37.59091 24.66208,-76.49448 31.55236,-116.0414 14.40548,-82.68056 12.53207,-168.16519 -5.48177,-250.13527 -19.0362,-9.41267 -39.50215,-15.9272 -60.4767,-19.25038 -38.70853,-6.13293 -78.87259,-1.26139 -115.65988,12.25371 -42.01809,15.43681 -79.54931,41.90466 -110.55286,74.1939 -40.7609,42.45123 -71.24307,97.39646 -73.6866,156.19771 -0.33651,8.09773 -0.13682,16.28207 1.66226,24.18458 1.79907,7.90252 5.27811,15.55144 10.85738,21.43006 4.9824,5.24972 11.47767,8.91761 18.34436,11.20506 6.8667,2.28744 14.11443,3.24676 21.34336,3.60246 35.84569,1.76381 71.66391,-11.43492 99.87728,-33.61667 36.17535,-28.44157 59.78468,-70.40608 73.85711,-114.2187 26.1288,-81.34854 21.1506,-172.45747 -14.64189,-250.04096 -10.83914,-23.49484 -24.97882,-46.39809 -46.13598,-61.29336 -10.57858,-7.44763 -22.81078,-12.71849 -35.64091,-14.38022 -12.83013,-1.66174 -26.25407,0.40313 -37.58356,6.64942 -13.75694,7.58462 -23.75845,20.92072 -29.48025,35.55085 -5.72179,14.63014 -7.46942,30.5364 -7.57362,46.24528 -0.32863,49.54311 15.29359,98.33692 39.47042,141.58167 16.86036,30.15789 38.13233,58.21397 65.03005,79.89997 11.60172,9.35376 24.19399,17.47814 37.4981,24.1933 L 350.25282,711.68247 c 0.74097,-22.87993 0.14819,-45.80298 -1.77431,-68.61404 -4.32045,-51.2634 -15.37145,-101.90297 -31.9947,-150.58838 C 302.4411,451.35241 284.46806,411.67213 269.7218,370.79147 254.97554,329.91081 243.39185,287.2966 242.86493,243.84084 c -0.27899,-23.00842 2.69061,-46.48959 12.61943,-67.24733 10.68692,-22.34267 29.47395,-40.77884 52.1808,-50.66843 21.35803,-9.30213 45.69392,-10.97461 68.50588,-6.25132 21.59306,4.47091 41.7989,14.46364 59.73483,27.29141 17.93594,12.82777 33.709,28.45706 48.336,44.95858 35.71003,40.28645 65.1335,86.42471 84.26681,136.74489 27.30752,71.81818 33.0162,151.44954 17.90532,226.78355 -16.6821,83.1672 -60.53066,163.04517 -130.27216,211.32767 -35.58969,24.63897 -77.00827,40.51502 -119.74049,47.41882 -23.49112,3.79521 -47.92727,4.87007 -70.76946,-1.79856 -23.97107,-6.9982 -45.45886,-22.78023 -58.42476,-44.12202 -16.21684,-26.69281 -18.35906,-59.79554 -14.43531,-90.78096 6.13052,-48.41198 25.96722,-94.53594 53.68602,-134.69775 27.71881,-40.16181 63.15769,-74.57937 101.74569,-104.45025 25.64237,-19.8497 52.81387,-37.82997 81.77715,-52.41318 62.58591,-31.51245 133.32464,-46.65786 203.32654,-43.53294 -7.82795,-28.72218 -10.34395,-58.88293 -7.38306,-88.50511 z"
     sodipodi:nodetypes="aaaaaaacaaaaaaaaaaaaccaaaaaaaaaaaaaaaaaaaccscaaaaaaaaaaaascccaaaaaaaacaaaaaaca"
     inkscape:original-d="m 625.92416,253.89791 c 4.57159,-29.81062 10.91025,-61.11573 29.07862,-86.44311 14.96337,-20.85949 36.06632,-41.37397 62.38085,-49.15291 27.08294,-8.00609 61.05248,-7.06993 85.27409,6.40087 117.6677,65.44058 185.69234,197.26846 214.33628,318.49591 18.0252,76.28638 13.2909,165.82562 -32.68525,232.07805 -18.26618,26.32183 -52.22679,54.99263 -86.63025,51.3446 -61.30481,-6.50064 -117.08592,-57.90829 -126.15495,-121.23898 -4.96717,-37.47677 0.35944,-75.45418 5.98385,-112.73824 6.76613,-44.85243 14.09619,-91.17485 33.24589,-132.48167 35.1322,-75.78185 83.63708,-148.12372 146.07663,-203.60763 32.05387,-28.48313 70.08908,-56.67635 112.61468,-62.18191 28.192,-3.64986 60.8796,4.25864 82.6936,20.85176 29.6906,22.5846 40.686,60.23825 49.3707,94.78858 13.2299,52.63263 4.4379,108.58189 2.008,162.79738 -2.5947,57.89407 -5.9823,116.19671 -17.6873,172.95451 -12.8224,62.17604 -16.224,133.15152 -57.1629,181.67241 C 1002.5367,876.92698 802.16035,994.78225 606.56979,995.23915 395.30983,995.73275 156.03497,886.01052 41.300713,708.62093 -43.482487,577.53839 12.818253,396.76832 19.433943,240.79699 21.440153,193.49854 38.054603,100 38.054603,100 l 142.316227,43.25462 c 4.11336,-3.73571 -54.14734,111.41199 -57.06398,171.63095 -8.42549,173.95889 -9.3477,388.66134 116.15836,509.41278 87.52003,84.20445 236.94892,75.82712 358.09435,67.22897 155.31432,-11.02325 335.82578,-36.57514 442.31904,-150.16753 68.5974,-73.17023 67.2207,-190.86235 78.1673,-290.56016 4.151,-37.80527 4.4883,-77.16386 -5.0277,-113.9866 -6.0385,-23.36638 -13.9081,-47.78591 -32.2537,-64.821 -12.7601,-11.84848 -31.5058,-21.84594 -49.5398,-21.74662 -34.42142,0.18958 -68.06811,20.01805 -94.09363,42.54679 -39.00773,33.76665 -63.94035,82.62269 -83.32076,130.4368 -12.46338,30.74887 -24.96634,64.7213 -19.94386,97.51769 5.71748,37.33472 17.39243,94.56159 54.8851,99.13003 35.33732,4.30582 60.91608,-44.66702 72.65221,-78.27549 13.24094,-37.91772 2.88802,-81.83102 -9.17604,-120.13942 -12.38808,-39.33728 -31.21919,-80.18054 -62.96796,-106.50358 -28.91214,-23.97118 -70.17413,-49.86901 -105.93165,-38.38296 -38.84272,12.47708 -57.40741,62.89226 -69.26486,100.90732 -15.05442,48.26456 -3.93325,100.46237 1.09345,150.31638 7.26946,72.09724 15.84097,145.68708 41.84606,213.32281 10.4632,27.21337 21.38391,55.99115 45.00135,75.00194 l -188.23602,2.80445 c 23.3813,-31.87411 27.84078,-76.37272 31.55236,-116.0414 10.11866,-108.14633 -5.48177,-250.13527 -5.48177,-250.13527 0,0 -40.05389,-18.93112 -60.4767,-19.25038 -38.76433,-0.60598 -79.21893,-0.97873 -115.65988,12.25371 -41.71543,15.1477 -81.61549,40.54485 -110.55286,74.1939 -37.53647,43.64829 -68.71523,98.84402 -73.6866,156.19771 -1.36158,15.70828 1.87893,33.97937 12.51964,45.61464 9.5291,10.41977 25.56954,14.57854 39.68772,14.80752 35.12301,0.56966 72.1425,-12.05902 99.87728,-33.61667 35.79726,-27.82444 62.29967,-70.3773 73.85711,-114.2187 21.28243,-80.73165 29.17457,-178.97297 -14.64189,-250.04096 -24.1206,-39.12235 -75.59886,-83.06995 -119.36045,-69.02416 -28.50048,9.14756 -34.75926,51.9517 -37.05387,81.79613 -3.75581,48.84935 16.9542,98.06863 39.47042,141.58167 15.78166,30.49839 46.47727,68.09313 65.03005,79.89997 15.69129,9.98592 19.59306,23.94459 37.4981,24.1933 L 350.25282,711.68247 c 4.99065,-21.21945 -0.76369,-38.18391 -1.77431,-68.61404 -1.16297,-20.81489 -19.36803,-100.84948 -31.9947,-150.58838 -21.26804,-83.77896 -69.19685,-162.31604 -73.61888,-248.63921 -1.1668,-22.77718 1.82952,-47.15406 12.61943,-67.24733 11.46992,-21.35961 30.15203,-40.54297 52.1808,-50.66843 20.83463,-9.57658 46.28374,-11.90545 68.50588,-6.25132 41.99451,10.68495 78.00264,41.04725 108.07083,72.24999 37.15202,38.55387 67.65184,85.8468 84.26681,136.74489 23.53154,72.0862 35.69574,153.07023 17.90532,226.78355 -19.41432,80.44182 -74.22268,164.44285 -130.27216,211.32767 -33.55572,27.69657 -77.47306,39.90948 -119.74049,47.41882 -23.23361,4.12774 -48.49244,5.98435 -70.76946,-1.79856 -23.03889,-8.04908 -45.86005,-23.20058 -58.42476,-44.12202 -15.77535,-26.26744 -20.80225,-60.80927 -14.43531,-90.78096 19.7558,-92.9983 87.99106,-172.13506 155.43171,-239.148 22.96697,-22.82131 51.83651,-40.09036 81.77715,-52.41318 64.09514,-26.37996 138.30358,-57.03383 203.32654,-43.53294 -6.9311,-27.75536 -11.99693,-58.41875 -7.38306,-88.50511 z"
     inkscape:path-effect="#path-effect1305" /></g></svg>
