<?xml version="1.0" encoding="UTF-8"?>
<!DOCTYPE svg PUBLIC "-//W3C//DTD SVG 1.1//EN" "http://www.w3.org/Graphics/SVG/1.1/DTD/svg11.dtd">
<!-- Creator: CorelDRAW X8 -->
<svg xmlns="http://www.w3.org/2000/svg" xml:space="preserve" width="3070px" height="1024px" version="1.1" style="shape-rendering:geometricPrecision; text-rendering:geometricPrecision; image-rendering:optimizeQuality; fill-rule:evenodd; clip-rule:evenodd"
viewBox="0 0 3070 1024"
 xmlns:xlink="http://www.w3.org/1999/xlink">
 <defs>
  <style type="text/css">
   <![CDATA[
    .fil0 {fill:#E31E24;fill-rule:nonzero}
   ]]>
  </style>
 </defs>
 <g id="Layer_x0020_1">
  <metadata id="CorelCorpID_0Corel-Layer"/>
  <path class="fil0" d="M2761 1024c34,0 68,-11 97,-28 152,-90 213,-258 212,-427 0,-99 -23,-203 -70,-291 -96,-180 -292,-278 -496,-278 -78,0 -154,11 -228,35 -72,-24 -149,-35 -226,-35 -204,0 -400,99 -495,278 -31,59 -52,122 -62,187 -53,-20 -99,-25 -156,-25l-23 0c-5,-87 -22,-180 -66,-257 -77,-135 -212,-183 -364,-183 -153,0 -290,49 -366,184 -44,77 -60,169 -65,256l-64 0c-111,0 -227,27 -307,105 -53,52 -82,122 -82,196 0,71 29,138 81,188 68,65 166,95 260,95 92,0 184,-28 243,-101 81,76 190,101 300,101 150,0 284,-47 361,-180 51,-87 67,-195 71,-293l21 0c37,0 71,14 98,37 31,27 53,66 62,109 26,120 91,234 200,299 29,17 63,28 97,28 24,0 48,-5 69,-18 19,-10 27,-25 27,-38 0,-15 -12,-30 -33,-41 -125,-64 -170,-230 -170,-358 0,-89 20,-181 62,-260 57,-106 174,-198 301,-198 23,0 46,2 69,6 -151,112 -229,296 -229,478 0,84 18,175 59,249 68,121 188,180 327,180 140,0 261,-58 329,-181 42,-74 59,-163 59,-248 0,-184 -77,-366 -229,-478 22,-4 46,-6 69,-6 128,0 244,90 302,198 42,79 62,172 62,260 1,129 -44,293 -171,358 -21,11 -32,26 -32,41 0,13 9,28 27,38 22,13 45,18 69,18zm-1649 -584l-457 0c10,-154 63,-329 229,-329 165,0 218,176 228,329zm1164 473c-60,0 -107,-54 -133,-101 -36,-65 -51,-144 -51,-217 -1,-149 62,-315 185,-408 124,94 185,257 185,408 0,73 -13,151 -50,216 -27,48 -75,102 -136,102zm-1936 0c-30,0 -62,-19 -83,-39 -37,-35 -55,-84 -55,-134 0,-50 21,-105 57,-141 36,-35 80,-48 130,-48l63 0c1,42 5,83 12,124 3,17 5,34 5,52 0,53 -15,108 -52,147 -19,19 -48,39 -77,39zm544 0c-174,0 -224,-195 -230,-362l459 0c-6,166 -54,362 -229,362z"/>
 </g>
</svg>
