<?xml version="1.0" encoding="UTF-8" standalone="no"?>
<svg
   xmlns:dc="http://purl.org/dc/elements/1.1/"
   xmlns:cc="http://creativecommons.org/ns#"
   xmlns:rdf="http://www.w3.org/1999/02/22-rdf-syntax-ns#"
   xmlns:svg="http://www.w3.org/2000/svg"
   xmlns="http://www.w3.org/2000/svg"
   xmlns:sodipodi="http://sodipodi.sourceforge.net/DTD/sodipodi-0.dtd"
   xmlns:inkscape="http://www.inkscape.org/namespaces/inkscape"
   xml:space="preserve"
   width="1000"
   height="1000"
   version="1.1"
   style="clip-rule:evenodd;fill-rule:evenodd;image-rendering:optimizeQuality;shape-rendering:geometricPrecision;text-rendering:geometricPrecision"
   viewBox="0 0 1000 1000"
   id="svg10"
   sodipodi:docname="ക്ക്ര.svg"
   inkscape:version="1.0.1 (3bc2e813f5, 2020-09-07)"><metadata
   id="metadata14"><rdf:RDF><cc:Work
       rdf:about=""><dc:format>image/svg+xml</dc:format><dc:type
         rdf:resource="http://purl.org/dc/dcmitype/StillImage" /><dc:title /></cc:Work></rdf:RDF></metadata><sodipodi:namedview
   pagecolor="#ffffff"
   bordercolor="#666666"
   borderopacity="1"
   objecttolerance="10"
   gridtolerance="10"
   guidetolerance="10"
   inkscape:pageopacity="0"
   inkscape:pageshadow="2"
   inkscape:window-width="1920"
   inkscape:window-height="1015"
   id="namedview12"
   showgrid="false"
   inkscape:zoom="0.678"
   inkscape:cx="295.05631"
   inkscape:cy="566.24232"
   inkscape:window-x="1920"
   inkscape:window-y="0"
   inkscape:window-maximized="1"
   inkscape:current-layer="svg10"
   showguides="true"
   inkscape:guide-bbox="true"
   inkscape:document-rotation="0"
   inkscape:snap-to-guides="true"><sodipodi:guide
     position="0,1000"
     orientation="0,1"
     id="guide16"
     inkscape:label=""
     inkscape:locked="true"
     inkscape:color="rgb(0,0,255)" /><sodipodi:guide
     position="1763.3122,2036.1693"
     orientation="1000,0"
     id="guide18" /><sodipodi:guide
     position="0,200"
     orientation="0,1"
     id="guide20"
     inkscape:label="base"
     inkscape:locked="true"
     inkscape:color="rgb(0,0,255)" /><inkscape:grid
     type="xygrid"
     id="grid24"
     originx="-473.37552"
     originy="-489.69235" /><sodipodi:guide
     position="0,0"
     orientation="0,1"
     id="guide34"
     inkscape:label="bottom"
     inkscape:locked="true"
     inkscape:color="rgb(0,0,255)" /><sodipodi:guide
     position="225.05109,1693.3186"
     orientation="0,1"
     id="guide44"
     inkscape:label=""
     inkscape:locked="false"
     inkscape:color="rgb(0,0,255)" /><sodipodi:guide
     position="0,900"
     orientation="0,1"
     id="guide46"
     inkscape:label=""
     inkscape:locked="true"
     inkscape:color="rgb(0,0,255)" /><sodipodi:guide
     position="958.92856,493.03547"
     orientation="-1,0"
     id="guide841"
     inkscape:label=""
     inkscape:locked="false"
     inkscape:color="rgb(0,0,255)" /><sodipodi:guide
     position="0,1000"
     orientation="0,1000"
     id="guide860" /><sodipodi:guide
     position="1000,1000"
     orientation="1000,0"
     id="guide862" /><sodipodi:guide
     position="1000,0"
     orientation="0,-1000"
     id="guide864" /><sodipodi:guide
     position="0,0"
     orientation="-1000,0"
     id="guide866" /></sodipodi:namedview>
 <defs
   id="defs4"><inkscape:path-effect
   effect="spiro"
   id="path-effect1521"
   is_visible="true"
   lpeversion="1" /><inkscape:path-effect
   effect="spiro"
   id="path-effect858"
   is_visible="true"
   lpeversion="1" /><inkscape:path-effect
   effect="spiro"
   id="path-effect854"
   is_visible="true"
   lpeversion="1" />
  <style
   type="text/css"
   id="style2">
   <![CDATA[
    .fil0 {fill:#EF7F1A;fill-rule:nonzero}
   ]]>
  </style>
 <inkscape:path-effect
   effect="spiro"
   id="path-effect1214"
   is_visible="true"
   lpeversion="1" /><inkscape:path-effect
   effect="spiro"
   id="path-effect1195"
   is_visible="true"
   lpeversion="1" /><inkscape:path-effect
   effect="spiro"
   id="path-effect992"
   is_visible="true"
   lpeversion="1" /><inkscape:path-effect
   effect="spiro"
   id="path-effect287"
   is_visible="true"
   lpeversion="1" /><inkscape:path-effect
   effect="spiro"
   id="path-effect1032"
   is_visible="true"
   lpeversion="1" /><inkscape:path-effect
   effect="spiro"
   id="path-effect1218"
   is_visible="true"
   lpeversion="1" /><inkscape:path-effect
   effect="spiro"
   id="path-effect309"
   is_visible="true"
   lpeversion="1" /><inkscape:path-effect
   effect="spiro"
   id="path-effect1176"
   is_visible="true"
   lpeversion="1" /></defs>
 
<path
   id="path1164-3-3-2-0"
   style="display:inline;fill:#1a1a1a;fill-rule:nonzero;stroke:none;stroke-width:2.83729;stroke-linecap:butt;stroke-linejoin:miter;stroke-miterlimit:4;stroke-dasharray:none;stroke-opacity:1"
   d="m 442.9654,436.41709 c -39.07989,14.76006 -74.92676,37.95516 -104.55161,67.40792 -41.80059,41.55778 -71.4097,97.29818 -73.6866,156.19771 -0.313,8.0968 -0.11011,16.27761 1.68447,24.17923 1.79458,7.90162 5.26197,15.55361 10.83517,21.43541 4.97851,5.25417 11.47437,8.92388 18.34186,11.21067 6.86749,2.28679 14.11628,3.24332 21.34586,3.59685 35.84535,1.75284 71.6625,-11.43813 99.87728,-33.61667 36.17828,-28.43833 59.78601,-70.40533 73.85711,-114.2187 26.12611,-81.34919 21.14998,-172.45741 -14.64189,-250.04096 -10.83899,-23.49494 -24.97868,-46.39825 -46.13588,-61.29351 -10.5786,-7.44763 -22.81083,-12.71846 -35.64098,-14.38017 -12.83015,-1.6617 -26.2541,0.4032 -37.58359,6.64952 -13.75692,7.58464 -23.75842,20.92074 -29.48022,35.55087 -5.7218,14.63013 -7.46944,30.53638 -7.57365,46.24526 -0.32866,49.54311 15.29359,98.33692 39.47042,141.58167 16.86036,30.15788 38.13233,58.21397 65.03005,79.89997 11.60172,9.35376 24.19399,17.47814 37.4981,24.1933 L 335.51737,695.55875 c 0.74096,-22.87993 0.14819,-45.80298 -1.77431,-68.61404 -4.32045,-51.2634 -15.37144,-101.90297 -31.9947,-150.58838 -14.04271,-41.12764 -32.01576,-80.80792 -46.76202,-121.68858 -14.74626,-40.88066 -26.32996,-83.49487 -26.85687,-126.95063 -0.27898,-23.00842 2.69062,-46.48959 12.61944,-67.24733 10.68692,-22.34267 29.47395,-40.77884 52.1808,-50.66843 21.35803,-9.30213 45.69391,-10.974602 68.50588,-6.25132 21.59307,4.47091 41.79891,14.46362 59.73486,27.29138 17.93594,12.82776 33.709,28.45706 48.33597,44.95861 35.70995,40.2865 65.13312,86.42487 84.26681,136.74489 27.30813,71.81811 33.01882,151.44991 17.90532,226.78355 -16.68478,83.1657 -60.5379,163.03637 -130.27216,211.32767 -35.58707,24.64421 -77.00484,40.53113 -119.74049,47.41882 -23.49121,3.78607 -47.92125,4.84455 -70.76946,-1.79856 -23.98648,-6.97406 -45.54056,-22.72141 -58.42476,-44.12202 -16.09257,-26.7297 -17.8583,-59.76917 -14.43531,-90.78096 10.80628,-97.90323 71.08473,-188.28146 155.43171,-239.148 29.95253,-18.06326 62.63722,-31.40399 96.33363,-40.78413 38.77801,-10.79472 79.28059,-16.39739 119.40802,-13.22737 40.12744,3.17002 79.91042,15.36854 113.2061,37.98839 48.14068,32.705 80.15309,85.48843 96.50499,141.34322 15.10514,51.59612 17.81438,107.17086 4.81135,159.33642 -3.73677,14.9912 -8.78404,29.75529 -16.39516,43.20038 -7.61112,13.44508 -17.8868,25.56903 -30.7983,34.05388 -11.69777,7.68724 -25.35339,12.23103 -39.27164,13.71896 -13.91825,1.48793 -28.08939,-0.0334 -41.56328,-3.82627 -29.20257,-8.22049 -54.83174,-27.03997 -73.84713,-50.67854 -19.01538,-23.63857 -31.69924,-51.91866 -39.72979,-81.17403 -18.12378,-66.02505 -13.05899,-135.9929 -5.66869,-204.06024 5.825,-53.65033 13.10572,-107.58241 30.67725,-158.60721 17.57153,-51.0248 46.19556,-99.43797 88.50149,-132.94166 40.67118,-32.20907 94.3947,-49.25387 145.56508,-40.70041 30.37071,5.07666 59.00448,18.85725 83.11548,38.0096 24.11099,19.15234 43.79367,43.5612 59.06404,70.30009 24.38647,42.70145 37.59564,91.15885 43.06374,140.02821 5.46811,48.86936 3.40617,98.29898 -1.25549,147.25185 C 954.39179,634.84788 927.46821,751.52835 855.3362,839.68253 816.45516,887.19994 765.68055,924.48254 709.85327,950.03552 654.02599,975.5885 593.23094,989.58922 531.99066,993.97883 460.15391,999.12798 387.10015,991.06045 319.03891,967.5084 250.97767,943.95634 188.03518,904.70847 139.06563,851.89735 107.08269,817.40541 81.184178,777.33809 62.455088,734.18924 39.188923,680.58769 27.017645,622.19951 26.929673,563.76636 l 128.024717,67.90865 c -3.24999,13.55494 -4.89715,27.49345 -4.89624,41.43256 0.003,49.50055 21.21365,97.78248 54.00769,134.86152 41.03966,46.40206 99.25232,75.76112 159.95402,88.11865 60.7017,12.35754 123.86161,8.53809 184.52144,-4.02336 85.55037,-17.71579 168.83244,-53.72368 232.68211,-113.35533 78.42387,-73.24304 123.08738,-179.88283 125.9128,-287.15288 0.84677,-32.14843 -1.8948,-64.55636 -10.45536,-95.55564 -8.56057,-30.99927 -23.08109,-60.5983 -44.18553,-84.86434 -16.42816,-18.88922 -36.83942,-34.4474 -59.84029,-44.32903 -23.00088,-9.88163 -48.60127,-13.98004 -73.42504,-10.74471 -28.27845,3.68559 -54.94447,16.80405 -76.57365,35.38987 -21.62917,18.58583 -38.36492,42.47029 -50.4625,68.29475 -21.5297,45.95899 -28.46007,97.16297 -35.87467,147.37035 -3.83707,25.98239 -7.88418,52.14675 -6.60625,78.37983 1.27794,26.23309 8.2986,52.90065 24.50667,73.5672 6.07112,7.74115 13.39882,14.56936 21.8974,19.52496 8.49859,4.9556 18.19696,7.99465 28.03388,8.13202 9.48098,0.1324 18.93189,-2.43869 27.25169,-6.98704 8.3198,-4.54835 15.51968,-11.03692 21.25504,-18.58757 12.0964,-15.92502 17.48959,-36.23992 17.83914,-56.2351 0.34955,-19.99517 -4.0534,-39.79769 -9.9716,-58.90015 -10.11967,-32.66375 -25.37407,-64.77775 -50.66984,-87.78759 -24.42034,-22.21352 -56.97709,-34.47723 -89.87765,-37.18777 -32.90055,-2.71053 -66.12952,3.7168 -97.01225,15.38088 z"
   sodipodi:nodetypes="aaaaaaaaaaascccaaaaaaaacaaaaaaaaaaaaaaaaaaaaaccaaaaaaaaaaaaaaa"
   inkscape:path-effect="#path-effect1521"
   inkscape:original-d="m 442.9654,436.41709 c -40.39051,9.38277 -77.22628,36.21888 -104.55161,67.40792 -37.93673,43.30086 -68.71524,98.84402 -73.6866,156.19771 -1.36158,15.70828 1.87893,33.97937 12.51964,45.61464 9.5291,10.41977 25.56954,14.57854 39.68772,14.80752 35.12301,0.56966 72.1425,-12.05902 99.87728,-33.61667 35.79726,-27.82444 62.29967,-70.3773 73.85711,-114.2187 21.28243,-80.73165 29.17457,-178.97297 -14.64189,-250.04096 -24.1206,-39.12235 -75.59886,-83.06995 -119.36045,-69.02416 -28.50048,9.14756 -34.75926,51.9517 -37.05387,81.79613 -3.75581,48.84935 16.9542,98.06863 39.47042,141.58167 15.78166,30.49839 46.47727,68.09313 65.03005,79.89997 15.69129,9.98592 19.59306,23.94459 37.4981,24.1933 L 335.51737,695.55875 c 4.99065,-21.21945 -0.76369,-38.18391 -1.77431,-68.61404 -1.16297,-20.81489 -19.36803,-100.84948 -31.9947,-150.58838 -21.26804,-83.77896 -69.19685,-162.31604 -73.61889,-248.63921 -1.16679,-22.77718 1.82953,-47.15406 12.61944,-67.24733 11.46992,-21.35961 30.15203,-40.54297 52.1808,-50.66843 20.83463,-9.57658 46.28374,-11.90545 68.50588,-6.25132 41.99451,10.68495 78.00264,41.04725 108.07083,72.24999 37.15202,38.55387 67.65184,85.8468 84.26681,136.74489 23.53154,72.0862 35.69574,153.07023 17.90532,226.78355 -19.41432,80.44182 -74.22268,164.44285 -130.27216,211.32767 -33.55572,27.69657 -77.47306,39.90948 -119.74049,47.41882 -23.23361,4.12774 -48.49245,5.98435 -70.76946,-1.79856 -23.0389,-8.04908 -45.86005,-23.20058 -58.42476,-44.12202 -15.77535,-26.26744 -20.80225,-60.80927 -14.43531,-90.78096 19.7558,-92.9983 82.56096,-178.08385 155.43171,-239.148 26.72703,-22.39669 61.84041,-35.6691 96.33363,-40.78413 77.13262,-11.43807 165.68879,-15.25486 232.61412,24.76102 48.96388,29.2764 78.85051,87.09483 96.50499,141.34322 16.44371,50.52797 18.42539,107.97369 4.81135,159.33642 -7.73144,29.16898 -21.82222,60.91704 -47.19346,77.25426 -22.82353,14.69667 -55.51591,19.68315 -80.83492,9.89269 -54.10434,-20.92128 -92.63144,-77.75759 -113.57692,-131.85257 -24.56992,-63.45566 -17.86031,-137.11499 -5.66869,-204.06024 18.81051,-103.2902 40.78227,-221.71553 119.17874,-291.54887 37.62128,-33.51197 96.08129,-50.17501 145.56508,-40.70041 58.51521,11.20383 111.94996,56.97033 142.17952,108.30969 49.09984,83.38705 50.88539,190.93795 41.80825,287.28006 C 954.66347,633.1796 930.08565,755.98449 855.3362,839.68253 775.78638,928.75561 651.27096,988.11384 531.99066,993.97883 392.88392,1000.8187 248.19792,938.42834 139.06563,851.89735 102.38295,822.81165 80.30721,777.46624 62.455088,734.18924 40.326554,680.54539 27.354133,603.81103 26.929673,563.76636 l 128.024717,67.90865 c 0,0 -6.72168,27.64593 -4.89624,41.43256 6.35625,48.00561 17.43197,103.12579 54.00769,134.86152 89.27595,77.46225 226.95345,96.71166 344.47546,84.09529 85.78212,-9.20899 172.91153,-51.13913 232.68211,-113.35533 72.40721,-75.36988 119.68917,-182.82316 125.9128,-287.15288 3.74182,-62.72602 -12.43341,-133.86803 -54.64089,-180.41998 -32.28532,-35.6085 -85.7133,-62.08169 -133.26533,-55.07374 -54.07515,7.96929 -97.885,57.44782 -127.03615,103.68462 -26.96387,42.76754 -32.80463,96.90563 -35.87467,147.37035 -3.09684,50.90515 -10.52081,109.60133 17.90042,151.94703 10.60317,15.79802 30.90587,27.4607 49.93128,27.65698 18.27762,0.18857 38.53689,-10.25438 48.50673,-25.57461 20.98186,-32.24193 16.54837,-77.65961 7.86754,-115.13525 C 672.90061,513.09603 658.08468,476.78922 629.8553,458.22398 577.45281,423.76114 504.05794,422.2252 442.9654,436.41709 Z" /></svg>
