<?xml version="1.0" encoding="UTF-8" standalone="no"?>
<svg
   xmlns:dc="http://purl.org/dc/elements/1.1/"
   xmlns:cc="http://creativecommons.org/ns#"
   xmlns:rdf="http://www.w3.org/1999/02/22-rdf-syntax-ns#"
   xmlns:svg="http://www.w3.org/2000/svg"
   xmlns="http://www.w3.org/2000/svg"
   xmlns:sodipodi="http://sodipodi.sourceforge.net/DTD/sodipodi-0.dtd"
   xmlns:inkscape="http://www.inkscape.org/namespaces/inkscape"
   xml:space="preserve"
   width="1000"
   height="1000"
   version="1.1"
   style="clip-rule:evenodd;fill-rule:evenodd;image-rendering:optimizeQuality;shape-rendering:geometricPrecision;text-rendering:geometricPrecision"
   viewBox="0 0 1000 1000"
   id="svg10"
   sodipodi:docname="ക്ര.svg"
   inkscape:version="1.0.1 (3bc2e813f5, 2020-09-07)"><metadata
   id="metadata14"><rdf:RDF><cc:Work
       rdf:about=""><dc:format>image/svg+xml</dc:format><dc:type
         rdf:resource="http://purl.org/dc/dcmitype/StillImage" /><dc:title></dc:title></cc:Work></rdf:RDF></metadata><sodipodi:namedview
   pagecolor="#ffffff"
   bordercolor="#666666"
   borderopacity="1"
   objecttolerance="10"
   gridtolerance="10"
   guidetolerance="10"
   inkscape:pageopacity="0"
   inkscape:pageshadow="2"
   inkscape:window-width="1920"
   inkscape:window-height="1015"
   id="namedview12"
   showgrid="false"
   inkscape:zoom="0.9588368"
   inkscape:cx="315.44364"
   inkscape:cy="505.33877"
   inkscape:window-x="1920"
   inkscape:window-y="0"
   inkscape:window-maximized="1"
   inkscape:current-layer="svg10"
   showguides="true"
   inkscape:guide-bbox="true"
   inkscape:document-rotation="0"
   inkscape:snap-to-guides="true"><sodipodi:guide
     position="0,1000"
     orientation="0,1"
     id="guide16"
     inkscape:label=""
     inkscape:locked="true"
     inkscape:color="rgb(0,0,255)" /><sodipodi:guide
     position="1763.3122,2036.1693"
     orientation="1000,0"
     id="guide18" /><sodipodi:guide
     position="0,200"
     orientation="0,1"
     id="guide20"
     inkscape:label="base"
     inkscape:locked="true"
     inkscape:color="rgb(0,0,255)" /><inkscape:grid
     type="xygrid"
     id="grid24"
     originx="-473.37552"
     originy="-489.69235" /><sodipodi:guide
     position="0,0"
     orientation="0,1"
     id="guide34"
     inkscape:label="bottom"
     inkscape:locked="true"
     inkscape:color="rgb(0,0,255)" /><sodipodi:guide
     position="225.05109,1693.3186"
     orientation="0,1"
     id="guide44"
     inkscape:label=""
     inkscape:locked="false"
     inkscape:color="rgb(0,0,255)" /><sodipodi:guide
     position="0,900"
     orientation="0,1"
     id="guide46"
     inkscape:label=""
     inkscape:locked="true"
     inkscape:color="rgb(0,0,255)" /><sodipodi:guide
     position="772.73144,265.04716"
     orientation="-1,0"
     id="guide841"
     inkscape:label=""
     inkscape:locked="false"
     inkscape:color="rgb(0,0,255)" /><sodipodi:guide
     position="0,1000"
     orientation="0,1000"
     id="guide860" /><sodipodi:guide
     position="1000,1000"
     orientation="1000,0"
     id="guide862" /><sodipodi:guide
     position="1000,0"
     orientation="0,-1000"
     id="guide864" /><sodipodi:guide
     position="0,0"
     orientation="-1000,0"
     id="guide866" /></sodipodi:namedview>
 <defs
   id="defs4"><inkscape:path-effect
   effect="spiro"
   id="path-effect1521"
   is_visible="true"
   lpeversion="1" /><inkscape:path-effect
   effect="spiro"
   id="path-effect858"
   is_visible="true"
   lpeversion="1" /><inkscape:path-effect
   effect="spiro"
   id="path-effect854"
   is_visible="true"
   lpeversion="1" />
  <style
   type="text/css"
   id="style2">
   <![CDATA[
    .fil0 {fill:#EF7F1A;fill-rule:nonzero}
   ]]>
  </style>
 <inkscape:path-effect
   effect="spiro"
   id="path-effect1214"
   is_visible="true"
   lpeversion="1" /><inkscape:path-effect
   effect="spiro"
   id="path-effect1195"
   is_visible="true"
   lpeversion="1" /><inkscape:path-effect
   effect="spiro"
   id="path-effect992"
   is_visible="true"
   lpeversion="1" /><inkscape:path-effect
   effect="spiro"
   id="path-effect287"
   is_visible="true"
   lpeversion="1" /><inkscape:path-effect
   effect="spiro"
   id="path-effect1032"
   is_visible="true"
   lpeversion="1" /><inkscape:path-effect
   effect="spiro"
   id="path-effect1218"
   is_visible="true"
   lpeversion="1" /><inkscape:path-effect
   effect="spiro"
   id="path-effect309"
   is_visible="true"
   lpeversion="1" /><inkscape:path-effect
   effect="spiro"
   id="path-effect1176"
   is_visible="true"
   lpeversion="1" /></defs>
 
<path
   id="path1164-3-3-2-0"
   style="display:inline;fill:#1a1a1a;fill-rule:nonzero;stroke:none;stroke-width:2.83729;stroke-linecap:butt;stroke-linejoin:miter;stroke-miterlimit:4;stroke-dasharray:none;stroke-opacity:1"
   d="m 484.45153,429.63111 c -41.98337,15.5183 -79.53355,41.92591 -110.55286,74.1939 -40.7872,42.42907 -71.24725,97.39404 -73.6866,156.19771 -0.33592,8.0977 -0.13615,16.28195 1.66282,24.18445 1.79896,7.90249 5.2777,15.55149 10.85682,21.43019 4.98231,5.24983 11.47758,8.91777 18.3443,11.2052 6.86672,2.28743 14.11448,3.24667 21.34342,3.60232 35.84568,1.76353 71.66388,-11.435 99.87728,-33.61667 36.17543,-28.44149 59.78472,-70.40606 73.85711,-114.2187 26.12873,-81.34856 21.15058,-172.45747 -14.64189,-250.04096 -10.83914,-23.49484 -24.97882,-46.3981 -46.13598,-61.29336 -10.57858,-7.44764 -22.81078,-12.71849 -35.64091,-14.38022 -12.83013,-1.66174 -26.25407,0.40313 -37.58356,6.64942 -13.75694,7.58462 -23.75845,20.92072 -29.48025,35.55085 -5.72179,14.63014 -7.46942,30.5364 -7.57362,46.24528 -0.32863,49.54311 15.29359,98.33692 39.47042,141.58167 16.86036,30.15789 38.13233,58.21397 65.03005,79.89997 11.60172,9.35376 24.19399,17.47814 37.4981,24.1933 L 371.00225,695.55875 c 0.74096,-22.87993 0.14819,-45.80298 -1.77431,-68.61404 -4.32045,-51.2634 -15.37144,-101.90297 -31.9947,-150.58838 -14.04271,-41.12764 -32.01576,-80.80792 -46.76202,-121.68858 -14.74626,-40.88066 -26.32996,-83.49487 -26.85687,-126.95063 -0.27898,-23.00842 2.69062,-46.48959 12.61944,-67.24733 10.68692,-22.34267 29.47395,-40.77884 52.1808,-50.66843 21.35803,-9.30213 45.69392,-10.974609 68.50588,-6.25132 21.59307,4.47091 41.7989,14.46364 59.73484,27.29141 17.93594,12.82776 33.70899,28.45705 48.33599,44.95858 35.71002,40.28645 65.13346,86.42473 84.26681,136.74489 27.30758,71.81818 33.01646,151.44957 17.90532,226.78355 -16.68236,83.16706 -60.53137,163.04431 -130.27216,211.32767 -35.58943,24.63949 -77.00793,40.5166 -119.74049,47.41882 -23.49113,3.79432 -47.92668,4.86757 -70.76946,-1.79856 -23.97258,-6.99583 -45.46685,-22.77446 -58.42477,-44.12202 -16.20465,-26.69639 -18.31003,-59.79266 -14.4353,-90.78096 6.05944,-48.4606 25.65603,-94.72161 53.30142,-134.98174 27.64539,-40.26014 63.17617,-74.70912 102.13029,-104.16626 25.84957,-19.54747 53.27227,-36.9932 81.77715,-52.41318 31.95306,-17.2853 65.45728,-32.09446 100.68278,-40.9795 35.2255,-8.88504 72.2998,-11.71979 108.02672,-5.13441 17.74673,3.27117 35.14922,8.8809 50.94824,17.60085 15.79903,8.71995 29.97308,20.61632 40.40803,35.33904 14.82448,20.91593 21.56768,46.72847 23.05774,72.32185 1.49006,25.59338 -1.97788,51.20058 -5.99236,76.52103 -12.98652,81.90951 -32.367,164.36905 -74.43735,235.83864 -35.06344,59.56618 -85.84988,110.26118 -147.00415,142.47499 -61.15428,32.2138 -132.66813,45.42673 -200.8596,34.13522 C 273.61174,926.01635 207.48636,887.40008 156.45593,835.30013 105.42551,783.20018 68.856698,718.14966 43.878367,649.63257 -5.1147241,515.24152 -10.365339,367.03589 16.723667,226.5814 27.831526,168.98797 44.243953,112.41875 65.685417,57.823417 L 186.02726,100 c -34.41149,38.55479 -62.84983,82.43058 -83.99191,129.58601 -38.702672,86.3227 -52.457226,183.06957 -43.697743,277.26499 8.798172,94.61146 41.851743,189.84703 108.515243,257.55755 48.06287,48.81775 112.45949,81.36371 180.32921,90.68644 67.86972,9.32274 138.79483,-4.71152 197.78471,-39.54549 75.11373,-44.35522 128.61186,-120.69878 153.99138,-204.15738 7.35702,-24.19301 12.54859,-49.31894 11.80987,-74.59505 -0.73872,-25.27611 -7.73497,-50.82951 -22.86409,-71.09123 -10.24322,-13.71826 -23.9519,-24.67825 -39.12097,-32.61635 -15.16908,-7.9381 -31.78056,-12.91765 -48.67155,-15.71209 -38.68059,-6.39931 -78.8853,-1.33927 -115.65988,12.25371 z"
   sodipodi:nodetypes="aaaaaaaaaaascccaaaaaaaacaaaaaaaaaasasccaaaaaaaa"
   inkscape:path-effect="#path-effect1521"
   inkscape:original-d="m 484.45153,429.63111 c -41.71543,15.1477 -81.61549,40.54485 -110.55286,74.1939 -37.53647,43.64829 -68.71524,98.84402 -73.6866,156.19771 -1.36158,15.70828 1.87893,33.97937 12.51964,45.61464 9.5291,10.41977 25.56954,14.57854 39.68772,14.80752 35.12301,0.56966 72.1425,-12.05902 99.87728,-33.61667 35.79726,-27.82444 62.29967,-70.3773 73.85711,-114.2187 21.28243,-80.73165 29.17457,-178.97297 -14.64189,-250.04096 -24.1206,-39.12235 -75.59886,-83.06995 -119.36045,-69.02416 -28.50048,9.14756 -34.75926,51.9517 -37.05387,81.79613 -3.75581,48.84935 16.9542,98.06863 39.47042,141.58167 15.78166,30.49839 46.47727,68.09313 65.03005,79.89997 15.69129,9.98592 19.59306,23.94459 37.4981,24.1933 L 371.00225,695.55875 c 4.99065,-21.21945 -0.76369,-38.18391 -1.77431,-68.61404 -1.16297,-20.81489 -19.36803,-100.84948 -31.9947,-150.58838 -21.26804,-83.77896 -69.19685,-162.31604 -73.61889,-248.63921 -1.16679,-22.77718 1.82953,-47.15406 12.61944,-67.24733 11.46991,-21.35961 30.15203,-40.54297 52.1808,-50.66843 20.83463,-9.57658 46.28374,-11.90545 68.50588,-6.25132 41.99451,10.68495 78.00264,41.04725 108.07083,72.24999 37.15202,38.55387 67.65184,85.8468 84.26681,136.74489 23.53154,72.0862 35.69574,153.07023 17.90532,226.78355 -19.41432,80.44182 -74.22268,164.44285 -130.27216,211.32767 -33.55572,27.69657 -77.47306,39.90948 -119.74049,47.41882 -23.23361,4.12774 -48.49245,5.98435 -70.76946,-1.79856 -23.0389,-8.04908 -45.86005,-23.20058 -58.42477,-44.12202 -15.77534,-26.26744 -20.80224,-60.80927 -14.4353,-90.78096 19.7558,-92.9983 87.99106,-172.13506 155.43171,-239.148 22.96697,-22.82131 51.87694,-39.99259 81.77715,-52.41318 65.79666,-27.33201 138.30358,-57.03383 208.7095,-46.11391 34.7798,5.39432 72.07188,23.49764 91.35627,52.93989 27.36274,41.77579 21.84168,99.13248 17.06538,148.84288 -7.88433,82.05779 -21.11862,172.96769 -74.43735,235.83864 C 609.31325,860.49911 468.41678,980.56095 345.56016,937.92995 217.98836,893.66279 102.63201,775.70987 43.878367,649.63257 -15.809653,521.55024 31.189027,351.9415 16.723667,226.5814 11.785347,183.78481 65.685417,57.823417 65.685417,57.823417 L 186.02726,100 C 195.76621,89.391264 120.44287,181.51472 102.03535,229.58601 68.577357,316.9616 47.023907,413.97512 58.337607,506.851 69.602817,599.32881 92.871617,707.78853 166.85285,764.40855 267.8533,841.70718 427.578,864.49895 544.96677,815.5495 623.64144,782.74327 674.97162,693.18821 698.95815,611.39212 712.66271,564.65841 714.2528,506.66425 687.90393,465.70584 669.83086,437.61187 632.85846,423.97573 600.11141,417.3774 c -38.00524,-7.65782 -79.21893,-0.97873 -115.65988,12.25371 z" /></svg>
