<?xml version="1.0" encoding="UTF-8"?>
<!DOCTYPE svg PUBLIC "-//W3C//DTD SVG 1.1//EN" "http://www.w3.org/Graphics/SVG/1.1/DTD/svg11.dtd">
<!-- Creator: CorelDRAW X8 -->
<svg xmlns="http://www.w3.org/2000/svg" xml:space="preserve" width="2263px" height="1024px" version="1.1" style="shape-rendering:geometricPrecision; text-rendering:geometricPrecision; image-rendering:optimizeQuality; fill-rule:evenodd; clip-rule:evenodd"
viewBox="0 0 2263 1024"
 xmlns:xlink="http://www.w3.org/1999/xlink">
 <defs>
  <style type="text/css">
   <![CDATA[
    .fil0 {fill:#E31E24;fill-rule:nonzero}
   ]]>
  </style>
 </defs>
 <g id="Layer_x0020_1">
  <metadata id="CorelCorpID_0Corel-Layer"/>
  <path class="fil0" d="M1926 1024c33,0 65,-3 97,-11 66,-15 130,-49 173,-101 42,-49 67,-109 67,-173 0,-97 -48,-167 -133,-215 64,-42 103,-104 103,-182 0,-120 -66,-205 -167,-266 -95,-57 -222,-76 -332,-76 -180,0 -365,48 -482,191 -76,-141 -213,-191 -368,-191 -153,0 -290,49 -366,184 -44,77 -60,169 -65,256l-64 0c-111,0 -227,27 -307,105 -53,52 -82,122 -82,196 0,71 29,138 81,188 68,65 166,95 260,95 92,0 184,-28 244,-101 80,76 189,101 299,101 109,0 218,-25 299,-101 59,73 151,101 243,101 94,0 192,-30 260,-95 52,-50 81,-117 81,-188 0,-75 -28,-143 -82,-196 -80,-78 -196,-105 -306,-105l-62 0c41,-222 192,-329 414,-329 83,0 174,21 236,79 44,40 64,94 64,152 0,37 -14,74 -42,100 -18,17 -41,27 -66,31 -15,3 -32,1 -48,3 -30,3 -86,17 -86,56 0,37 59,54 88,54l52 0c27,0 52,11 73,28 42,33 59,74 59,124 0,47 -18,92 -49,128 -21,25 -52,46 -86,46 -30,0 -57,-15 -93,-15 -32,0 -64,7 -85,25 -11,10 -16,20 -16,29 0,21 23,39 48,48 47,16 97,25 146,25zm-814 -584l-457 0c10,-154 63,-329 229,-329 165,0 218,176 228,329zm315 473c-29,0 -58,-20 -77,-39 -36,-38 -52,-94 -52,-148 0,-15 2,-31 4,-45 8,-43 12,-87 14,-130l62 0c50,0 94,13 130,48 38,37 57,89 57,141 0,50 -18,99 -55,134 -21,20 -52,39 -83,39zm-1087 0c-30,0 -62,-19 -83,-39 -36,-34 -54,-82 -54,-130 0,-54 17,-106 56,-145 36,-35 80,-48 130,-48l63 0c1,43 5,86 13,128 2,15 4,30 4,46 0,54 -16,111 -52,149 -19,20 -48,39 -77,39zm544 0c-174,0 -224,-195 -230,-362l459 0c-6,166 -54,362 -229,362z"/>
 </g>
</svg>
