<?xml version="1.0" encoding="UTF-8" standalone="no"?>
<svg
   xmlns:dc="http://purl.org/dc/elements/1.1/"
   xmlns:cc="http://creativecommons.org/ns#"
   xmlns:rdf="http://www.w3.org/1999/02/22-rdf-syntax-ns#"
   xmlns:svg="http://www.w3.org/2000/svg"
   xmlns="http://www.w3.org/2000/svg"
   xmlns:sodipodi="http://sodipodi.sourceforge.net/DTD/sodipodi-0.dtd"
   xmlns:inkscape="http://www.inkscape.org/namespaces/inkscape"
   xml:space="preserve"
   width="1000"
   height="1000"
   version="1.1"
   style="clip-rule:evenodd;fill-rule:evenodd;image-rendering:optimizeQuality;shape-rendering:geometricPrecision;text-rendering:geometricPrecision"
   viewBox="0 0 1000 1000"
   id="svg10"
   sodipodi:docname="ക്ത.svg"
   inkscape:version="1.0.1 (3bc2e813f5, 2020-09-07)"><metadata
   id="metadata14"><rdf:RDF><cc:Work
       rdf:about=""><dc:format>image/svg+xml</dc:format><dc:type
         rdf:resource="http://purl.org/dc/dcmitype/StillImage" /><dc:title /></cc:Work></rdf:RDF></metadata><sodipodi:namedview
   pagecolor="#ffffff"
   bordercolor="#666666"
   borderopacity="1"
   objecttolerance="10"
   gridtolerance="10"
   guidetolerance="10"
   inkscape:pageopacity="0"
   inkscape:pageshadow="2"
   inkscape:window-width="1920"
   inkscape:window-height="1015"
   id="namedview12"
   showgrid="false"
   inkscape:zoom="0.9588368"
   inkscape:cx="315.44364"
   inkscape:cy="505.33877"
   inkscape:window-x="1920"
   inkscape:window-y="0"
   inkscape:window-maximized="1"
   inkscape:current-layer="svg10"
   showguides="true"
   inkscape:guide-bbox="true"
   inkscape:document-rotation="0"
   inkscape:snap-to-guides="true"><sodipodi:guide
     position="0,1000"
     orientation="0,1"
     id="guide16"
     inkscape:label=""
     inkscape:locked="true"
     inkscape:color="rgb(0,0,255)" /><sodipodi:guide
     position="1763.3122,2036.1693"
     orientation="1000,0"
     id="guide18" /><sodipodi:guide
     position="0,200"
     orientation="0,1"
     id="guide20"
     inkscape:label="base"
     inkscape:locked="true"
     inkscape:color="rgb(0,0,255)" /><inkscape:grid
     type="xygrid"
     id="grid24"
     originx="-473.37552"
     originy="-489.69235" /><sodipodi:guide
     position="0,0"
     orientation="0,1"
     id="guide34"
     inkscape:label="bottom"
     inkscape:locked="true"
     inkscape:color="rgb(0,0,255)" /><sodipodi:guide
     position="225.05109,1693.3186"
     orientation="0,1"
     id="guide44"
     inkscape:label=""
     inkscape:locked="false"
     inkscape:color="rgb(0,0,255)" /><sodipodi:guide
     position="0,900"
     orientation="0,1"
     id="guide46"
     inkscape:label=""
     inkscape:locked="true"
     inkscape:color="rgb(0,0,255)" /><sodipodi:guide
     position="567.47709,546.60529"
     orientation="-1,0"
     id="guide841"
     inkscape:label=""
     inkscape:locked="false"
     inkscape:color="rgb(0,0,255)" /><sodipodi:guide
     position="0,1000"
     orientation="0,1000"
     id="guide860" /><sodipodi:guide
     position="1000,1000"
     orientation="1000,0"
     id="guide862" /><sodipodi:guide
     position="1000,0"
     orientation="0,-1000"
     id="guide864" /><sodipodi:guide
     position="0,0"
     orientation="-1000,0"
     id="guide866" /></sodipodi:namedview>
 <defs
   id="defs4"><inkscape:path-effect
   effect="spiro"
   id="path-effect1521"
   is_visible="true"
   lpeversion="1" /><inkscape:path-effect
   effect="spiro"
   id="path-effect858"
   is_visible="true"
   lpeversion="1" /><inkscape:path-effect
   effect="spiro"
   id="path-effect854"
   is_visible="true"
   lpeversion="1" />
  <style
   type="text/css"
   id="style2">
   <![CDATA[
    .fil0 {fill:#EF7F1A;fill-rule:nonzero}
   ]]>
  </style>
 <inkscape:path-effect
   effect="spiro"
   id="path-effect1214"
   is_visible="true"
   lpeversion="1" /><inkscape:path-effect
   effect="spiro"
   id="path-effect1195"
   is_visible="true"
   lpeversion="1" /><inkscape:path-effect
   effect="spiro"
   id="path-effect992"
   is_visible="true"
   lpeversion="1" /><inkscape:path-effect
   effect="spiro"
   id="path-effect287"
   is_visible="true"
   lpeversion="1" /><inkscape:path-effect
   effect="spiro"
   id="path-effect1032"
   is_visible="true"
   lpeversion="1" /><inkscape:path-effect
   effect="spiro"
   id="path-effect1218"
   is_visible="true"
   lpeversion="1" /><inkscape:path-effect
   effect="spiro"
   id="path-effect309"
   is_visible="true"
   lpeversion="1" /><inkscape:path-effect
   effect="spiro"
   id="path-effect1176"
   is_visible="true"
   lpeversion="1" /><inkscape:path-effect
   effect="spiro"
   id="path-effect851"
   is_visible="true"
   lpeversion="1" /><style
   type="text/css"
   id="style2-9">
   <![CDATA[
    .fil0 {fill:#EF7F1A;fill-rule:nonzero}
   ]]>
  </style><inkscape:path-effect
   effect="spiro"
   id="path-effect1060"
   is_visible="true"
   lpeversion="1" /><inkscape:path-effect
   effect="spiro"
   id="path-effect1047"
   is_visible="true"
   lpeversion="1" /><inkscape:path-effect
   effect="spiro"
   id="path-effect1085"
   is_visible="true"
   lpeversion="1" /><inkscape:path-effect
   effect="spiro"
   id="path-effect1286"
   is_visible="true"
   lpeversion="1" /><inkscape:path-effect
   effect="spiro"
   id="path-effect1305"
   is_visible="true"
   lpeversion="1" /></defs>
 
<g
   style="clip-rule:evenodd;fill-rule:evenodd;image-rendering:optimizeQuality;shape-rendering:geometricPrecision;text-rendering:geometricPrecision"
   id="g885"
   transform="translate(578.04544,-20.589303)"><path
     id="path1210-6"
     style="display:inline;fill:#1a1a1a;fill-rule:nonzero;stroke:none;stroke-width:2.22142px;stroke-linecap:butt;stroke-linejoin:miter;stroke-opacity:1"
     d="m -140.89875,258.36349 c 3.05376,-30.55134 12.10162,-60.86009 29.07862,-86.44311 14.934711,-22.50545 36.525054,-41.34146 62.380853,-49.15291 27.767691,-8.38906 58.0170246,-3.52251 85.274087,6.40087 63.013324,22.94104 114.33864,71.98693 148.91976,129.44228 34.58112,57.45534 53.6028,123.04299 65.41657,189.05363 7.08958,39.61372 11.71989,80.01996 7.99884,120.09069 -3.72106,40.07072 -16.2318,80.02501 -40.68414,111.98736 -10.5105,13.73857 -23.1916,25.92378 -37.89776,35.03133 -14.70617,9.10755 -31.47878,15.07696 -48.73249,16.31327 -16.00107,1.14655 -32.220918,-1.79905 -47.000378,-8.03735 C 69.075752,716.81126 55.734076,707.32175 44.619853,695.75357 22.391407,672.61721 9.4374767,641.58051 4.70064,609.84792 -0.87957155,572.46547 4.358187,534.37313 10.68449,497.10968 c 7.63344,-44.9628 16.925581,-89.89563 33.24589,-132.48167 30.167918,-78.71984 83.60963,-146.99676 146.07663,-203.60763 16.1441,-14.63063 33.00883,-28.61877 51.69203,-39.82704 18.68319,-11.20827 39.30969,-19.60391 60.92264,-22.354866 28.91213,-3.680016 59.40339,3.329756 82.69358,20.851756 14.62873,11.00569 26.18523,25.84223 34.3027,42.25051 8.11748,16.40828 12.8678,34.36435 15.06803,52.53807 6.05092,49.98 -6.90177,100.08443 -19.55051,148.81453 -13.18029,50.77797 -26.14996,101.61053 -38.9513,152.48536 -13.08405,51.99837 -26.09365,105.31833 -20.62034,158.65748 4.70588,45.86031 23.40688,90.19004 52.97052,125.56382 H 220.60854 c 12.26345,-34.85089 24.31718,-69.77557 36.16033,-104.77151 16.91354,-49.97869 33.3987,-100.10627 48.90411,-150.53959 10.42805,-33.91855 20.41419,-67.9802 29.30428,-102.33393 8.55158,-33.04564 16.13512,-67.29817 11.21809,-101.07636 -3.54615,-24.36077 -14.05527,-48.24279 -32.25377,-64.821 -13.57717,-12.36833 -31.23019,-20.30619 -49.53976,-21.74662 -17.68488,-1.39128 -35.51015,3.19921 -51.36828,11.14971 -15.85812,7.9505 -29.88713,19.15494 -42.72538,31.39708 -37.67978,35.93021 -65.85657,81.38838 -83.32076,130.4368 -11.167054,31.36283 -18.056915,64.27962 -19.94386,97.51769 -1.18528,20.87842 -0.268327,42.47684 8.22058,61.58841 4.244453,9.55578 10.383635,18.35066 18.377701,25.09034 7.994069,6.73968 17.888189,11.35729 28.286819,12.45128 9.77376,1.02825 19.77325,-1.07539 28.58017,-5.43679 8.80693,-4.3614 16.44109,-10.9228 22.55527,-18.61699 12.22835,-15.38838 18.23311,-34.84253 21.51677,-54.22171 6.77215,-39.96719 2.92081,-81.44957 -9.17604,-120.13942 -12.425,-39.73939 -33.66954,-76.91976 -62.96796,-106.50358 -13.89801,-14.03339 -29.77791,-26.46302 -48.010811,-34.05592 -18.2329,-7.5929 -39.022255,-10.06588 -57.920839,-4.32704 -20.5768758,6.24848 -37.483964,21.79081 -48.621508,40.18663 -11.137544,18.39583 -16.98771,39.529 -20.643351,60.72069 -8.551764,49.57442 -5.714224,100.47251 1.093451,150.31638 14.965411,109.57249 49.6083519,217.48034 109.913818,310.18064 14.412382,22.15441 30.242707,43.38625 47.36194,63.52245 l -240.52054,2.80445 c 13.88857,-37.65692 24.46016,-76.53651 31.55236,-116.0414 20.015352,-111.48934 11.816087,-227.92935 -23.6256,-335.51361 -19.0362,-9.41267 -39.50215,-15.9272 -60.4767,-19.25038 -38.70853,-6.13293 -78.87259,-1.26139 -115.65988,12.25371 -42.01809,15.43681 -79.54931,41.90466 -110.55286,74.1939 -40.7609,42.45123 -71.24307,97.39646 -73.6866,156.19771 -0.33651,8.09773 -0.13682,16.28207 1.66226,24.18458 1.79907,7.90252 5.27811,15.55144 10.85738,21.43006 4.9824,5.24972 11.47767,8.91761 18.34436,11.20506 6.8667,2.28744 14.11443,3.24676 21.34336,3.60246 35.84569,1.76381 71.66391,-11.43492 99.87728,-33.61667 36.17535,-28.44157 59.78468,-70.40608 73.85711,-114.2187 26.1288,-81.34854 21.1506,-172.45747 -14.64189,-250.04096 -10.83914,-23.49484 -24.97882,-46.39809 -46.13598,-61.29336 -10.57858,-7.44763 -22.81078,-12.71849 -35.64091,-14.38022 -12.83013,-1.66174 -26.25407,0.40313 -37.58356,6.64942 -13.75694,7.58462 -23.75845,20.92072 -29.48025,35.55085 -5.72179,14.63014 -7.46942,30.5364 -7.57362,46.24528 -0.32863,49.54311 15.29359,98.33692 39.47042,141.58167 16.86036,30.15789 38.13233,58.21397 65.03005,79.89997 11.60172,9.35376 24.19399,17.47814 37.4981,24.1933 l -126.09393,114.54329 c 0.74097,-22.87993 0.14819,-45.80298 -1.77431,-68.61404 -4.32045,-51.2634 -15.37145,-101.90297 -31.9947,-150.58838 -14.04271,-41.12764 -32.01575,-80.80792 -46.76201,-121.68858 -14.74626,-40.88066 -26.32995,-83.49487 -26.85687,-126.95063 -0.27899,-23.00842 2.69061,-46.48959 12.61943,-67.24733 10.68692,-22.34267 29.47395,-40.77884 52.1808,-50.66843 21.35803,-9.30213 45.69392,-10.97461 68.50588,-6.25132 21.59306,4.47091 41.7989,14.46364 59.73483,27.29141 17.93594,12.82777 33.709,28.45706 48.336,44.95858 35.71003,40.28645 65.1335,86.42471 84.26681,136.74489 27.30752,71.81818 33.0162,151.44954 17.90532,226.78355 -16.6821,83.1672 -60.53066,163.04517 -130.27216,211.32767 -35.58969,24.63897 -77.00827,40.51502 -119.74049,47.41882 -23.49112,3.79521 -47.92727,4.87007 -70.76946,-1.79856 -23.97107,-6.9982 -45.45886,-22.78023 -58.42476,-44.12202 -16.21684,-26.69281 -18.35906,-59.79554 -14.43531,-90.78096 6.13052,-48.41198 25.96722,-94.53594 53.68602,-134.69775 27.71881,-40.16181 63.15769,-74.57937 101.74569,-104.45025 25.64237,-19.8497 52.81387,-37.82997 81.77715,-52.41318 62.58591,-31.51245 133.32464,-46.65786 203.32654,-43.53294 -7.82795,-28.72218 -10.34395,-58.88293 -7.38306,-88.50511 z"
     sodipodi:nodetypes="aaaaaaacaaaaaaaaaccaaaaaaaaaaaaaaaaaccscaaaaaaaaaaaascccaaaaaaaacaaaaaaca"
     inkscape:original-d="m -140.89875,258.36349 c 4.57159,-29.81062 10.91025,-61.11573 29.07862,-86.44311 14.96337,-20.85949 36.06632,-41.37397 62.380853,-49.15291 27.082937,-8.00609 61.052477,-7.06993 85.274087,6.40087 117.6677,65.44058 185.69234,197.26846 214.33633,318.49591 18.02515,76.28638 13.29086,165.82562 -32.6853,232.07805 -18.26618,26.32183 -52.22679,54.99263 -86.63025,51.3446 C 69.55078,724.58626 13.76967,673.17861 4.70064,609.84792 c -4.96717,-37.47677 0.35944,-75.45418 5.98385,-112.73824 6.76613,-44.85243 14.09619,-91.17485 33.24589,-132.48167 35.1322,-75.78185 83.63708,-148.12372 146.07663,-203.60763 32.05387,-28.48313 70.08905,-56.67635 112.61467,-62.181906 28.19206,-3.649867 60.87961,4.258636 82.69358,20.851756 29.6906,22.5846 43.18124,60.3761 49.37073,94.78858 8.86938,49.31228 -10.05933,99.59488 -19.55051,148.81453 -9.9076,51.37927 -29.07934,101.10061 -38.9513,152.48536 -10.08105,52.47315 -27.89669,105.81476 -20.62034,158.65748 6.11353,44.39799 38.41119,95.16758 52.97052,125.56382 H 220.60854 c 33.81688,-30.71216 24.42571,-69.73926 36.16033,-104.77151 16.75808,-50.0292 33.48859,-100.08055 48.90411,-150.53959 10.36705,-33.93407 22.45607,-67.6587 29.30428,-102.33393 6.58485,-33.34175 17.24519,-67.65037 11.21809,-101.07636 -4.20986,-23.34751 -13.90813,-47.78591 -32.25377,-64.821 -12.76004,-11.84848 -31.5058,-21.84594 -49.53976,-21.74662 -34.42145,0.18958 -68.06814,20.01805 -94.09366,42.54679 -39.00773,33.76665 -63.94035,82.62269 -83.32076,130.4368 -12.46338,30.74887 -24.96634,64.7213 -19.94386,97.51769 5.71748,37.33472 17.39243,94.56159 54.8851,99.13003 35.33732,4.30582 60.91608,-44.66702 72.65221,-78.27549 13.24094,-37.91772 2.88802,-81.83102 -9.17604,-120.13942 C 173.01673,386.59011 154.18562,345.74685 122.43685,319.42381 93.52471,295.45263 52.26272,269.5548 16.5052,281.04085 c -38.84272,12.47708 -57.40741,62.89226 -69.264859,100.90732 -15.054426,48.26456 -7.576829,100.96543 1.093451,150.31638 18.980848,108.03838 58.230218,213.42647 109.913818,310.18064 12.44434,23.2964 23.7445,44.51166 47.36194,63.52245 l -240.52054,2.80445 c 23.3813,-31.87411 27.84078,-76.37272 31.55236,-116.0414 10.118664,-108.14633 -23.6256,-335.51361 -23.6256,-335.51361 0,0 -40.05389,-18.93112 -60.4767,-19.25038 -38.76433,-0.60598 -79.21893,-0.97873 -115.65988,12.25371 -41.71543,15.1477 -81.61549,40.54485 -110.55286,74.1939 -37.53647,43.64829 -68.71523,98.84402 -73.6866,156.19771 -1.36158,15.70828 1.87893,33.97937 12.51964,45.61464 9.5291,10.41977 25.56954,14.57854 39.68772,14.80752 35.12301,0.56966 72.1425,-12.05902 99.87728,-33.61667 35.79726,-27.82444 62.29967,-70.3773 73.85711,-114.2187 21.28243,-80.73165 29.17457,-178.97297 -14.64189,-250.04096 -24.1206,-39.12235 -75.59886,-83.06995 -119.36045,-69.02416 -28.50048,9.14756 -34.75926,51.9517 -37.05387,81.79613 -3.75581,48.84935 16.9542,98.06863 39.47042,141.58167 15.78166,30.49839 46.47727,68.09313 65.03005,79.89997 15.69129,9.98592 19.59306,23.94459 37.4981,24.1933 l -126.09393,114.54329 c 4.99065,-21.21945 -0.76369,-38.18391 -1.77431,-68.61404 -1.16297,-20.81489 -19.36803,-100.84948 -31.9947,-150.58838 -21.26804,-83.77896 -69.19685,-162.31604 -73.61888,-248.63921 -1.1668,-22.77718 1.82952,-47.15406 12.61943,-67.24733 11.46992,-21.35961 30.15203,-40.54297 52.1808,-50.66843 20.83463,-9.57658 46.28374,-11.90545 68.50588,-6.25132 41.99451,10.68495 78.00264,41.04725 108.07083,72.24999 37.15202,38.55387 67.65184,85.8468 84.26681,136.74489 23.53154,72.0862 35.69574,153.07023 17.90532,226.78355 -19.41432,80.44182 -74.22268,164.44285 -130.27216,211.32767 -33.55572,27.69657 -77.47306,39.90948 -119.74049,47.41882 -23.23361,4.12774 -48.49244,5.98435 -70.76946,-1.79856 -23.03889,-8.04908 -45.86005,-23.20058 -58.42476,-44.12202 -15.77535,-26.26744 -20.80225,-60.80927 -14.43531,-90.78096 19.7558,-92.9983 87.99106,-172.13506 155.43171,-239.148 22.96697,-22.82131 51.83651,-40.09036 81.77715,-52.41318 64.09514,-26.37996 138.30358,-57.03383 203.32654,-43.53294 -6.9311,-27.75536 -11.99693,-58.41875 -7.38306,-88.50511 z"
     inkscape:path-effect="#path-effect1305" /></g></svg>
