<?xml version="1.0" encoding="UTF-8" standalone="no"?>
<svg
   xmlns:dc="http://purl.org/dc/elements/1.1/"
   xmlns:cc="http://creativecommons.org/ns#"
   xmlns:rdf="http://www.w3.org/1999/02/22-rdf-syntax-ns#"
   xmlns:svg="http://www.w3.org/2000/svg"
   xmlns="http://www.w3.org/2000/svg"
   xmlns:sodipodi="http://sodipodi.sourceforge.net/DTD/sodipodi-0.dtd"
   xmlns:inkscape="http://www.inkscape.org/namespaces/inkscape"
   xml:space="preserve"
   width="1000"
   height="1000"
   version="1.1"
   style="clip-rule:evenodd;fill-rule:evenodd;image-rendering:optimizeQuality;shape-rendering:geometricPrecision;text-rendering:geometricPrecision"
   viewBox="0 0 1000 1000"
   id="svg10"
   sodipodi:docname="ക്ക.svg"
   inkscape:version="1.0.1 (3bc2e813f5, 2020-09-07)"><metadata
   id="metadata14"><rdf:RDF><cc:Work
       rdf:about=""><dc:format>image/svg+xml</dc:format><dc:type
         rdf:resource="http://purl.org/dc/dcmitype/StillImage" /><dc:title></dc:title></cc:Work></rdf:RDF></metadata><sodipodi:namedview
   pagecolor="#ffffff"
   bordercolor="#666666"
   borderopacity="1"
   objecttolerance="10"
   gridtolerance="10"
   guidetolerance="10"
   inkscape:pageopacity="0"
   inkscape:pageshadow="2"
   inkscape:window-width="1920"
   inkscape:window-height="1015"
   id="namedview12"
   showgrid="false"
   inkscape:zoom="0.678"
   inkscape:cx="295.05631"
   inkscape:cy="566.24232"
   inkscape:window-x="1920"
   inkscape:window-y="0"
   inkscape:window-maximized="1"
   inkscape:current-layer="svg10"
   showguides="true"
   inkscape:guide-bbox="true"
   inkscape:document-rotation="0"
   inkscape:snap-to-guides="true"><sodipodi:guide
     position="0,1000"
     orientation="0,1"
     id="guide16"
     inkscape:label=""
     inkscape:locked="true"
     inkscape:color="rgb(0,0,255)" /><sodipodi:guide
     position="1763.3122,2036.1693"
     orientation="1000,0"
     id="guide18" /><sodipodi:guide
     position="0,200"
     orientation="0,1"
     id="guide20"
     inkscape:label="base"
     inkscape:locked="true"
     inkscape:color="rgb(0,0,255)" /><inkscape:grid
     type="xygrid"
     id="grid24"
     originx="-473.37552"
     originy="-489.69235" /><sodipodi:guide
     position="0,0"
     orientation="0,1"
     id="guide34"
     inkscape:label="bottom"
     inkscape:locked="true"
     inkscape:color="rgb(0,0,255)" /><sodipodi:guide
     position="225.05109,1693.3186"
     orientation="0,1"
     id="guide44"
     inkscape:label=""
     inkscape:locked="false"
     inkscape:color="rgb(0,0,255)" /><sodipodi:guide
     position="0,900"
     orientation="0,1"
     id="guide46"
     inkscape:label=""
     inkscape:locked="true"
     inkscape:color="rgb(0,0,255)" /><sodipodi:guide
     position="778.5997,500.74706"
     orientation="-1,0"
     id="guide841"
     inkscape:label=""
     inkscape:locked="false"
     inkscape:color="rgb(0,0,255)" /><sodipodi:guide
     position="0,1000"
     orientation="0,1000"
     id="guide860" /><sodipodi:guide
     position="1000,1000"
     orientation="1000,0"
     id="guide862" /><sodipodi:guide
     position="1000,0"
     orientation="0,-1000"
     id="guide864" /><sodipodi:guide
     position="0,0"
     orientation="-1000,0"
     id="guide866" /></sodipodi:namedview>
 <defs
   id="defs4"><inkscape:path-effect
   effect="spiro"
   id="path-effect1521"
   is_visible="true"
   lpeversion="1" /><inkscape:path-effect
   effect="spiro"
   id="path-effect858"
   is_visible="true"
   lpeversion="1" /><inkscape:path-effect
   effect="spiro"
   id="path-effect854"
   is_visible="true"
   lpeversion="1" />
  <style
   type="text/css"
   id="style2">
   <![CDATA[
    .fil0 {fill:#EF7F1A;fill-rule:nonzero}
   ]]>
  </style>
 <inkscape:path-effect
   effect="spiro"
   id="path-effect1214"
   is_visible="true"
   lpeversion="1" /><inkscape:path-effect
   effect="spiro"
   id="path-effect1195"
   is_visible="true"
   lpeversion="1" /><inkscape:path-effect
   effect="spiro"
   id="path-effect992"
   is_visible="true"
   lpeversion="1" /><inkscape:path-effect
   effect="spiro"
   id="path-effect287"
   is_visible="true"
   lpeversion="1" /><inkscape:path-effect
   effect="spiro"
   id="path-effect1032"
   is_visible="true"
   lpeversion="1" /><inkscape:path-effect
   effect="spiro"
   id="path-effect1218"
   is_visible="true"
   lpeversion="1" /><inkscape:path-effect
   effect="spiro"
   id="path-effect309"
   is_visible="true"
   lpeversion="1" /><inkscape:path-effect
   effect="spiro"
   id="path-effect1176"
   is_visible="true"
   lpeversion="1" /></defs>
 
<path
   id="path1164-3-3-2-0"
   style="display:inline;fill:#1a1a1a;fill-rule:nonzero;stroke:none;stroke-width:2.83729;stroke-linecap:butt;stroke-linejoin:miter;stroke-miterlimit:4;stroke-dasharray:none;stroke-opacity:1"
   d="m 268.92338,436.41709 c -39.07985,14.76015 -74.92675,37.95518 -104.55161,67.40792 -41.80062,41.55775 -71.409705,97.29818 -73.6866,156.19771 -0.313,8.0968 -0.110106,16.27761 1.684471,24.17923 1.794577,7.90162 5.261967,15.55361 10.835169,21.43541 4.97851,5.25417 11.47437,8.92388 18.34186,11.21067 6.86749,2.28679 14.11628,3.24332 21.34586,3.59685 35.84535,1.75284 71.6625,-11.43813 99.87728,-33.61667 36.17828,-28.43833 59.78601,-70.40533 73.85711,-114.2187 26.12611,-81.34919 21.14998,-172.45741 -14.64189,-250.04096 -10.83899,-23.49494 -24.97868,-46.39825 -46.13588,-61.29351 -10.5786,-7.44763 -22.81083,-12.71846 -35.64098,-14.38017 -12.83015,-1.6617 -26.2541,0.4032 -37.58359,6.64952 -13.75692,7.58464 -23.75842,20.92074 -29.48022,35.55087 -5.7218,14.63013 -7.46944,30.53638 -7.57365,46.24526 -0.32866,49.54311 15.29359,98.33692 39.47042,141.58167 16.86036,30.15788 38.13233,58.21397 65.03005,79.89997 11.60172,9.35376 24.19399,17.47814 37.4981,24.1933 L 161.47535,695.55875 c 0.74097,-22.87993 0.14819,-45.80298 -1.77431,-68.61404 C 155.38059,575.68131 144.3296,525.04174 127.70634,476.35633 113.66363,435.22869 95.690583,395.54841 80.944323,354.66775 66.198063,313.78709 54.614372,271.17288 54.087455,227.71712 c -0.278986,-23.00842 2.690612,-46.48959 12.619434,-67.24733 10.686922,-22.34267 29.473947,-40.77884 52.180801,-50.66843 21.35803,-9.30213 45.69391,-10.974602 68.50588,-6.25132 21.59307,4.47091 41.79891,14.46362 59.73486,27.29138 17.93594,12.82776 33.709,28.45706 48.33597,44.95861 35.70995,40.2865 65.13312,86.42487 84.26681,136.74489 27.30813,71.81811 33.01882,151.44991 17.90532,226.78355 -16.68478,83.1657 -60.5379,163.03637 -130.27216,211.32767 -35.58707,24.64421 -77.00484,40.53113 -119.74049,47.41882 -23.49121,3.78607 -47.921253,4.84455 -70.769459,-1.79856 C 52.867935,789.30234 31.313862,773.55499 18.429657,752.15438 2.3370831,725.42468 0.57135587,692.38521 3.9943525,661.37342 14.800643,563.4702 75.079084,473.09196 159.42606,422.22542 c 29.95252,-18.06326 62.63722,-31.40399 96.33363,-40.78413 38.77801,-10.79471 79.28059,-16.39738 119.40802,-13.22735 40.12743,3.17002 79.91041,15.36854 113.2061,37.98837 48.14071,32.70497 80.15318,85.4884 96.50499,141.34322 15.10505,51.59613 17.81406,107.1708 4.81135,159.33642 -3.73669,14.99124 -8.78384,29.75541 -16.39493,43.20053 -7.6111,13.44513 -17.88686,25.5691 -30.79853,34.05373 -11.69785,7.68699 -25.35351,12.23036 -39.2717,13.71815 -13.91819,1.48778 -28.08918,-0.0334 -41.56322,-3.82546 -29.20395,-8.21902 -54.83662,-27.03523 -73.85403,-50.67336 -19.0174,-23.63813 -31.70119,-51.92045 -39.72289,-81.17921 -18.10246,-66.02782 -12.97513,-135.98684 -5.66869,-204.06024 5.76222,-53.68612 12.8919,-107.67294 30.41623,-158.74446 17.52434,-51.07152 46.2352,-99.53535 88.76251,-132.80441 40.79798,-31.91621 94.34178,-48.40057 145.56508,-40.70041 30.63128,4.60466 59.84724,17.61435 84.3089,36.61713 24.46166,19.00277 44.18294,43.90542 57.87062,71.69256 20.24796,41.10505 27.1662,87.80505 26.05727,133.61308 -1.10894,45.80803 -9.93127,91.06202 -19.81794,135.80416 -17.53043,79.33398 -38.59282,158.50481 -42.62343,239.65252 -1.78153,35.86739 -0.20433,71.90087 4.70426,107.47543 L 609.69734,755.1033 c 15.8668,-29.37762 30.43764,-59.45516 43.65592,-90.11584 29.79966,-69.12227 52.83191,-141.82634 59.87804,-216.76805 2.90358,-30.88206 3.03436,-62.40193 -4.48092,-92.496 -7.51527,-30.09406 -23.22181,-58.83653 -47.66383,-77.93416 -16.01349,-12.51204 -35.34928,-20.54715 -55.37833,-23.98516 -20.02906,-3.43801 -40.7279,-2.35095 -60.52025,2.25836 -54.98605,12.80533 -101.77936,53.19169 -127.03615,103.68462 -22.72581,45.43305 -28.79379,97.06642 -35.87467,147.37035 -3.65924,25.99592 -7.68963,52.14388 -6.44938,78.36677 1.24026,26.22288 8.172,52.90523 24.3498,73.58026 6.06318,7.74867 13.39134,14.57959 21.89176,19.53408 8.50042,4.95449 18.20153,7.98867 28.03952,8.1229 9.48069,0.12935 18.93066,-2.44214 27.25038,-6.98994 8.31972,-4.54779 15.5203,-11.03497 21.25635,-18.58467 12.09844,-15.92379 17.49223,-36.23928 17.84138,-56.23472 0.34914,-19.99544 -4.05499,-39.798 -9.97384,-58.90053 -10.12063,-32.66339 -25.37436,-64.77752 -50.66984,-87.78759 -24.42014,-22.21381 -56.97697,-34.47761 -89.87757,-37.18809 -32.90061,-2.71047 -66.12959,3.71704 -97.01233,15.3812 z"
   sodipodi:nodetypes="aaaaaaaaaaascccaaaaaaaacaaaaaaaaaaaaaaaaaaccaaaaaaaaaaaa"
   inkscape:path-effect="#path-effect1521"
   inkscape:original-d="m 268.92338,436.41709 c -40.39051,9.38277 -77.22628,36.21888 -104.55161,67.40792 -37.93673,43.30086 -68.715234,98.84402 -73.6866,156.19771 -1.36158,15.70828 1.87893,33.97937 12.51964,45.61464 9.5291,10.41977 25.56954,14.57854 39.68772,14.80752 35.12301,0.56966 72.1425,-12.05902 99.87728,-33.61667 35.79726,-27.82444 62.29967,-70.3773 73.85711,-114.2187 21.28243,-80.73165 29.17457,-178.97297 -14.64189,-250.04096 -24.1206,-39.12235 -75.59886,-83.06995 -119.36045,-69.02416 -28.50048,9.14756 -34.75926,51.9517 -37.05387,81.79613 -3.75581,48.84935 16.9542,98.06863 39.47042,141.58167 15.78166,30.49839 46.47727,68.09313 65.03005,79.89997 15.69129,9.98592 19.59306,23.94459 37.4981,24.1933 L 161.47535,695.55875 C 166.466,674.3393 160.71166,657.37484 159.70104,626.94471 158.53807,606.12982 140.33301,526.09523 127.70634,476.35633 106.4383,392.57737 58.509491,314.04029 54.087455,227.71712 c -1.166796,-22.77718 1.829528,-47.15406 12.619434,-67.24733 11.469918,-21.35961 30.152029,-40.54297 52.180801,-50.66843 20.83463,-9.57658 46.28374,-11.90545 68.50588,-6.25132 41.99451,10.68495 78.00264,41.04725 108.07083,72.24999 37.15202,38.55387 67.65184,85.8468 84.26681,136.74489 23.53154,72.0862 35.69574,153.07023 17.90532,226.78355 -19.41432,80.44182 -74.22268,164.44285 -130.27216,211.32767 -33.55572,27.69657 -77.47306,39.90948 -119.74049,47.41882 -23.23361,4.12774 -48.492444,5.98435 -70.769459,-1.79856 C 53.815526,788.22732 30.994368,773.07582 18.429657,752.15438 2.6543135,725.88694 -2.372589,691.34511 3.9943525,661.37342 23.750154,568.37512 86.555313,483.28957 159.42606,422.22542 c 26.72703,-22.39669 61.84041,-35.6691 96.33363,-40.78413 77.13262,-11.43807 165.68879,-15.25486 232.61412,24.76102 48.96388,29.2764 78.85051,87.09483 96.50499,141.34322 16.44371,50.52797 18.42539,107.97369 4.81135,159.33642 -7.73144,29.16898 -21.82222,60.91704 -47.19346,77.25426 -22.82353,14.69667 -55.51591,19.68315 -80.83492,9.89269 -54.10434,-20.92128 -92.63144,-77.75759 -113.57692,-131.85257 -24.56992,-63.45566 -17.86031,-137.11499 -5.66869,-204.06024 18.81051,-103.2902 40.78227,-221.71553 119.17874,-291.54887 37.62128,-33.51197 96.08129,-50.17501 145.56508,-40.70041 58.51521,11.20383 115.11901,55.23159 142.17952,108.30969 40.80087,80.02928 13.09835,179.84966 6.23933,269.41724 -6.19533,80.90093 -37.26121,158.6921 -42.62343,239.65252 -2.36987,35.78105 28.34697,114.91303 4.70426,107.47543 L 609.69734,755.1033 c 24.5363,-11.33619 31.88787,-58.88138 43.65592,-90.11584 26.42945,-70.14836 60.90518,-141.81305 59.87804,-216.76805 -0.81404,-59.40403 -7.85827,-130.82954 -52.14475,-170.43016 -29.30026,-26.20006 -77.81087,-31.43632 -115.89858,-21.7268 -52.9653,13.50218 -97.885,57.44782 -127.03615,103.68462 -26.96387,42.76754 -32.80463,96.90563 -35.87467,147.37035 -3.09684,50.90515 -10.52081,109.60133 17.90042,151.94703 10.60317,15.79802 30.90587,27.4607 49.93128,27.65698 18.27762,0.18857 38.53689,-10.25438 48.50673,-25.57461 20.98186,-32.24193 16.54837,-77.65961 7.86754,-115.13525 -7.62453,-32.91554 -22.44046,-69.22235 -50.66984,-87.78759 -52.40249,-34.46284 -125.79736,-35.99878 -186.8899,-21.80689 z" /></svg>
