<?xml version="1.0" encoding="UTF-8" standalone="no"?>
<svg
   xmlns:dc="http://purl.org/dc/elements/1.1/"
   xmlns:cc="http://creativecommons.org/ns#"
   xmlns:rdf="http://www.w3.org/1999/02/22-rdf-syntax-ns#"
   xmlns:svg="http://www.w3.org/2000/svg"
   xmlns="http://www.w3.org/2000/svg"
   xmlns:sodipodi="http://sodipodi.sourceforge.net/DTD/sodipodi-0.dtd"
   xmlns:inkscape="http://www.inkscape.org/namespaces/inkscape"
   xml:space="preserve"
   width="1000"
   height="1000"
   version="1.1"
   style="clip-rule:evenodd;fill-rule:evenodd;image-rendering:optimizeQuality;shape-rendering:geometricPrecision;text-rendering:geometricPrecision"
   viewBox="0 0 1000 1000"
   id="svg10"
   sodipodi:docname="കു.svg"
   inkscape:version="1.0.1 (3bc2e813f5, 2020-09-07)"><metadata
   id="metadata14"><rdf:RDF><cc:Work
       rdf:about=""><dc:format>image/svg+xml</dc:format><dc:type
         rdf:resource="http://purl.org/dc/dcmitype/StillImage" /><dc:title /></cc:Work></rdf:RDF></metadata><sodipodi:namedview
   pagecolor="#ffffff"
   bordercolor="#666666"
   borderopacity="1"
   objecttolerance="10"
   gridtolerance="10"
   guidetolerance="10"
   inkscape:pageopacity="0"
   inkscape:pageshadow="2"
   inkscape:window-width="1920"
   inkscape:window-height="1015"
   id="namedview12"
   showgrid="false"
   inkscape:zoom="0.9588368"
   inkscape:cx="315.44364"
   inkscape:cy="505.33877"
   inkscape:window-x="1920"
   inkscape:window-y="0"
   inkscape:window-maximized="1"
   inkscape:current-layer="svg10"
   showguides="true"
   inkscape:guide-bbox="true"
   inkscape:document-rotation="0"
   inkscape:snap-to-guides="true"><sodipodi:guide
     position="0,1000"
     orientation="0,1"
     id="guide16"
     inkscape:label=""
     inkscape:locked="true"
     inkscape:color="rgb(0,0,255)" /><sodipodi:guide
     position="1763.3122,2036.1693"
     orientation="1000,0"
     id="guide18" /><sodipodi:guide
     position="0,200"
     orientation="0,1"
     id="guide20"
     inkscape:label="base"
     inkscape:locked="true"
     inkscape:color="rgb(0,0,255)" /><inkscape:grid
     type="xygrid"
     id="grid24"
     originx="-473.37552"
     originy="-489.69235" /><sodipodi:guide
     position="0,0"
     orientation="0,1"
     id="guide34"
     inkscape:label="bottom"
     inkscape:locked="true"
     inkscape:color="rgb(0,0,255)" /><sodipodi:guide
     position="225.05109,1693.3186"
     orientation="0,1"
     id="guide44"
     inkscape:label=""
     inkscape:locked="false"
     inkscape:color="rgb(0,0,255)" /><sodipodi:guide
     position="0,900"
     orientation="0,1"
     id="guide46"
     inkscape:label=""
     inkscape:locked="true"
     inkscape:color="rgb(0,0,255)" /><sodipodi:guide
     position="567.47709,546.60529"
     orientation="-1,0"
     id="guide841"
     inkscape:label=""
     inkscape:locked="false"
     inkscape:color="rgb(0,0,255)" /><sodipodi:guide
     position="0,1000"
     orientation="0,1000"
     id="guide860" /><sodipodi:guide
     position="1000,1000"
     orientation="1000,0"
     id="guide862" /><sodipodi:guide
     position="1000,0"
     orientation="0,-1000"
     id="guide864" /><sodipodi:guide
     position="0,0"
     orientation="-1000,0"
     id="guide866" /></sodipodi:namedview>
 <defs
   id="defs4"><inkscape:path-effect
   effect="spiro"
   id="path-effect1521"
   is_visible="true"
   lpeversion="1" /><inkscape:path-effect
   effect="spiro"
   id="path-effect858"
   is_visible="true"
   lpeversion="1" /><inkscape:path-effect
   effect="spiro"
   id="path-effect854"
   is_visible="true"
   lpeversion="1" />
  <style
   type="text/css"
   id="style2">
   <![CDATA[
    .fil0 {fill:#EF7F1A;fill-rule:nonzero}
   ]]>
  </style>
 <inkscape:path-effect
   effect="spiro"
   id="path-effect1214"
   is_visible="true"
   lpeversion="1" /><inkscape:path-effect
   effect="spiro"
   id="path-effect1195"
   is_visible="true"
   lpeversion="1" /><inkscape:path-effect
   effect="spiro"
   id="path-effect992"
   is_visible="true"
   lpeversion="1" /><inkscape:path-effect
   effect="spiro"
   id="path-effect287"
   is_visible="true"
   lpeversion="1" /><inkscape:path-effect
   effect="spiro"
   id="path-effect1032"
   is_visible="true"
   lpeversion="1" /><inkscape:path-effect
   effect="spiro"
   id="path-effect1218"
   is_visible="true"
   lpeversion="1" /><inkscape:path-effect
   effect="spiro"
   id="path-effect309"
   is_visible="true"
   lpeversion="1" /><inkscape:path-effect
   effect="spiro"
   id="path-effect1176"
   is_visible="true"
   lpeversion="1" /></defs>
 
<path
   id="path1164-3-3-2-0"
   style="display:inline;fill:#1a1a1a;fill-rule:nonzero;stroke:none;stroke-width:2.83729;stroke-linecap:butt;stroke-linejoin:miter;stroke-miterlimit:4;stroke-dasharray:none;stroke-opacity:1"
   d="m 274.92463,429.63111 c -41.39175,16.85286 -79.27216,42.27504 -110.55286,74.1939 -41.22011,42.06104 -71.316365,97.35376 -73.6866,156.19771 -0.32616,8.09732 -0.12506,16.28011 1.672035,24.18223 1.797094,7.90212 5.271004,15.5524 10.847605,21.43241 4.98069,5.25168 11.47621,8.92037 18.34326,11.20753 6.86704,2.28716 14.11524,3.24524 21.34446,3.59999 35.84554,1.75898 71.66329,-11.43633 99.87728,-33.61667 36.17664,-28.44015 59.78527,-70.40575 73.85711,-114.2187 26.12762,-81.34883 21.15032,-172.45745 -14.64189,-250.04096 -10.83908,-23.49488 -24.97876,-46.39816 -46.13594,-61.29343 -10.57859,-7.44763 -22.8108,-12.71847 -35.64094,-14.38019 -12.83014,-1.66173 -26.25408,0.40315 -37.58357,6.64946 -13.75693,7.58463 -23.75843,20.92073 -29.48023,35.55086 -5.7218,14.63013 -7.46944,30.53639 -7.57364,46.24527 -0.32864,49.54311 15.29359,98.33692 39.47042,141.58167 16.86036,30.15788 38.13233,58.21397 65.03005,79.89997 11.60172,9.35376 24.19399,17.47814 37.4981,24.1933 L 161.47535,695.55875 c 0.74097,-22.87993 0.14819,-45.80298 -1.77431,-68.61404 C 155.38059,575.68131 144.3296,525.04174 127.70634,476.35633 113.66363,435.22869 95.690583,395.54841 80.944324,354.66775 66.198064,313.78709 54.614372,271.17288 54.087455,227.71712 c -0.278986,-23.00842 2.690612,-46.48959 12.619434,-67.24733 10.686922,-22.34267 29.473948,-40.77884 52.180801,-50.66843 21.35803,-9.30213 45.69392,-10.974609 68.50588,-6.25132 21.59307,4.47091 41.7989,14.46364 59.73484,27.29141 17.93594,12.82776 33.70899,28.45705 48.33599,44.95858 35.71002,40.28645 65.13346,86.42473 84.26681,136.74489 27.30759,71.81818 33.01649,151.44958 17.90532,226.78355 -16.6824,83.16704 -60.53147,163.04419 -130.27216,211.32767 -35.58939,24.63956 -77.00789,40.51683 -119.74049,47.41882 -23.49113,3.79419 -47.92659,4.86721 -70.769459,-1.79856 C 52.88163,789.28091 31.386433,773.50277 18.429657,752.15438 2.2267549,725.45747 0.12666149,692.36212 3.9943525,661.37342 10.043586,612.90577 29.605654,566.62507 57.240532,526.35077 84.87541,486.07646 120.41964,451.62279 159.42606,422.22542 c 25.87938,-19.50412 53.33973,-36.874 81.77715,-52.41318 31.93582,-17.45082 65.32938,-32.6796 100.57439,-41.74695 35.24502,-9.06734 72.51296,-11.81616 108.13511,-4.36696 35.12514,7.34526 68.6678,25.1377 91.35627,52.93989 16.64285,20.39396 27.04591,45.74421 29.91447,71.9104 2.86857,26.16618 -1.75724,53.06056 -12.84909,76.93248 -13.33134,28.69175 -36.03577,52.93547 -63.79265,68.11759 22.5486,9.76673 42.16615,26.18847 55.74832,46.66658 13.58216,20.47812 21.07975,44.93845 21.30632,69.51033 0.23274,25.24079 -7.16711,50.3963 -20.35955,71.91632 -13.19244,21.52002 -32.07273,39.40444 -53.88262,52.11194 -31.7506,18.49943 -69.40008,25.91109 -106.06253,23.42226 -30.94409,-2.10064 -61.40043,-11.10459 -88.51246,-26.16737 l 32.94499,-97.60763 c 8.93436,11.2039 19.58714,21.03485 31.47079,29.0429 12.70404,8.56089 26.88216,15.05607 41.84942,18.32142 14.96726,3.26535 30.73352,3.24291 45.50451,-0.81901 12.09881,-3.32709 23.47873,-9.3698 32.80548,-17.764 9.32674,-8.3942 16.56444,-19.14817 20.53641,-31.05087 5.55277,-16.63982 4.45621,-35.50634 -3.50861,-51.13575 -7.96481,-15.62941 -22.82199,-27.71419 -39.8872,-31.77564 -14.33927,-3.41269 -29.95358,-1.12717 -42.7132,6.25207 l 2.85611,-93.25313 c 12.03301,3.49617 25.37493,2.25566 36.55711,-3.39902 7.87561,-3.98259 14.645,-10.06683 19.63218,-17.34792 4.98717,-7.28109 8.20217,-15.73677 9.53995,-24.46011 2.67557,-17.44667 -2.26454,-35.62674 -11.99014,-50.35622 -9.48143,-14.35969 -23.28014,-25.58211 -38.60898,-33.40035 -15.32885,-7.81824 -32.16956,-12.35461 -49.18354,-14.92809 -38.75387,-5.8618 -78.99463,-1.59845 -115.65988,12.25371 z"
   sodipodi:nodetypes="aaaaaaaaaaascccaaaaaaaacaaaaaaaaacassccaaaaccaaaaa"
   inkscape:path-effect="#path-effect1521"
   inkscape:original-d="m 274.92463,429.63111 c -41.71543,15.1477 -81.61549,40.54485 -110.55286,74.1939 -37.53647,43.64829 -68.715234,98.84402 -73.6866,156.19771 -1.36158,15.70828 1.87893,33.97937 12.51964,45.61464 9.5291,10.41977 25.56954,14.57854 39.68772,14.80752 35.12301,0.56966 72.1425,-12.05902 99.87728,-33.61667 35.79726,-27.82444 62.29967,-70.3773 73.85711,-114.2187 21.28243,-80.73165 29.17457,-178.97297 -14.64189,-250.04096 -24.1206,-39.12235 -75.59886,-83.06995 -119.36045,-69.02416 -28.50048,9.14756 -34.75926,51.9517 -37.05387,81.79613 -3.75581,48.84935 16.9542,98.06863 39.47042,141.58167 15.78166,30.49839 46.47727,68.09313 65.03005,79.89997 15.69129,9.98592 19.59306,23.94459 37.4981,24.1933 L 161.47535,695.55875 C 166.466,674.3393 160.71166,657.37484 159.70104,626.94471 158.53807,606.12982 140.33301,526.09523 127.70634,476.35633 106.4383,392.57737 58.509491,314.04029 54.087455,227.71712 c -1.166796,-22.77718 1.829528,-47.15406 12.619434,-67.24733 11.469918,-21.35961 30.152029,-40.54297 52.180801,-50.66843 20.83463,-9.57658 46.28374,-11.90545 68.50588,-6.25132 41.99451,10.68495 78.00264,41.04725 108.07083,72.24999 37.15202,38.55387 67.65184,85.8468 84.26681,136.74489 23.53154,72.0862 35.69574,153.07023 17.90532,226.78355 -19.41432,80.44182 -74.22268,164.44285 -130.27216,211.32767 -33.55572,27.69657 -77.47306,39.90948 -119.74049,47.41882 -23.23361,4.12774 -48.492444,5.98435 -70.769459,-1.79856 C 53.815526,788.22732 30.994368,773.07582 18.429657,752.15438 2.6543135,725.88694 -2.372589,691.34511 3.9943525,661.37342 23.750154,568.37512 91.98541,489.23836 159.42606,422.22542 c 22.96697,-22.82131 51.87694,-39.99259 81.77715,-52.41318 65.79666,-27.33201 138.30358,-57.03383 208.7095,-46.11391 34.7798,5.39432 72.07188,23.49764 91.35627,52.93989 27.36274,41.77579 32.7383,101.42668 17.06538,148.84288 -9.76299,29.53654 -37.49097,63.72222 -63.79265,68.11759 42.80218,33.00712 75.98007,69.72012 77.05464,116.17691 1.11421,48.17069 -32.15858,100.56279 -74.24217,124.02826 -23.3532,13.02155 -70.38781,26.09664 -106.06253,23.42226 -50.8693,-3.81346 -88.76578,-27.59385 -88.51246,-26.16737 l 32.94499,-97.60763 c 0,0 18.75378,22.55874 31.47079,29.0429 26.45615,13.48948 58.7465,25.47165 87.35393,17.50241 23.21815,-6.46794 49.17527,-25.07554 53.34189,-48.81487 5.39258,-30.72418 -15.60747,-68.73877 -43.39581,-82.91139 -12.81853,-6.53771 -42.7132,6.25207 -42.7132,6.25207 l 2.85611,-93.25313 c 0,0 27.51622,4.84946 36.55711,-3.39902 23.08615,-21.06271 30.5391,-63.9119 17.18199,-92.16425 -14.27797,-30.20011 -55.04547,-41.73011 -87.79252,-48.32844 -38.00524,-7.65782 -79.21893,-0.97873 -115.65988,12.25371 z" /></svg>
