<?xml version="1.0" encoding="UTF-8" standalone="no"?>
<svg
   xmlns:dc="http://purl.org/dc/elements/1.1/"
   xmlns:cc="http://creativecommons.org/ns#"
   xmlns:rdf="http://www.w3.org/1999/02/22-rdf-syntax-ns#"
   xmlns:svg="http://www.w3.org/2000/svg"
   xmlns="http://www.w3.org/2000/svg"
   xmlns:sodipodi="http://sodipodi.sourceforge.net/DTD/sodipodi-0.dtd"
   xmlns:inkscape="http://www.inkscape.org/namespaces/inkscape"
   xml:space="preserve"
   width="1000"
   height="1000"
   version="1.1"
   style="clip-rule:evenodd;fill-rule:evenodd;image-rendering:optimizeQuality;shape-rendering:geometricPrecision;text-rendering:geometricPrecision"
   viewBox="0 0 1000 1000"
   id="svg10"
   sodipodi:docname="ക്ത.svg"
   inkscape:version="1.0.1 (3bc2e813f5, 2020-09-07)"><metadata
   id="metadata14"><rdf:RDF><cc:Work
       rdf:about=""><dc:format>image/svg+xml</dc:format><dc:type
         rdf:resource="http://purl.org/dc/dcmitype/StillImage" /><dc:title /></cc:Work></rdf:RDF></metadata><sodipodi:namedview
   pagecolor="#ffffff"
   bordercolor="#666666"
   borderopacity="1"
   objecttolerance="10"
   gridtolerance="10"
   guidetolerance="10"
   inkscape:pageopacity="0"
   inkscape:pageshadow="2"
   inkscape:window-width="1920"
   inkscape:window-height="1015"
   id="namedview12"
   showgrid="false"
   inkscape:zoom="0.9588368"
   inkscape:cx="607.46414"
   inkscape:cy="463.62155"
   inkscape:window-x="1920"
   inkscape:window-y="0"
   inkscape:window-maximized="1"
   inkscape:current-layer="g885"
   showguides="true"
   inkscape:guide-bbox="true"
   inkscape:document-rotation="0"
   inkscape:snap-to-guides="true"><sodipodi:guide
     position="0,1000"
     orientation="0,1"
     id="guide16"
     inkscape:label=""
     inkscape:locked="true"
     inkscape:color="rgb(0,0,255)" /><sodipodi:guide
     position="1763.3122,2036.1693"
     orientation="1000,0"
     id="guide18" /><sodipodi:guide
     position="0,200"
     orientation="0,1"
     id="guide20"
     inkscape:label="base"
     inkscape:locked="true"
     inkscape:color="rgb(0,0,255)" /><inkscape:grid
     type="xygrid"
     id="grid24"
     originx="-473.37552"
     originy="-489.69235" /><sodipodi:guide
     position="0,0"
     orientation="0,1"
     id="guide34"
     inkscape:label="bottom"
     inkscape:locked="true"
     inkscape:color="rgb(0,0,255)" /><sodipodi:guide
     position="225.05109,1693.3186"
     orientation="0,1"
     id="guide44"
     inkscape:label=""
     inkscape:locked="false"
     inkscape:color="rgb(0,0,255)" /><sodipodi:guide
     position="0,900"
     orientation="0,1"
     id="guide46"
     inkscape:label=""
     inkscape:locked="true"
     inkscape:color="rgb(0,0,255)" /><sodipodi:guide
     position="1022.9196,527.22498"
     orientation="-1,0"
     id="guide841"
     inkscape:label="width"
     inkscape:locked="false"
     inkscape:color="rgb(0,0,255)" /><sodipodi:guide
     position="0,1000"
     orientation="0,1000"
     id="guide860" /><sodipodi:guide
     position="1000,1000"
     orientation="1000,0"
     id="guide862" /><sodipodi:guide
     position="1000,0"
     orientation="0,-1000"
     id="guide864" /><sodipodi:guide
     position="0,0"
     orientation="-1000,0"
     id="guide866" /></sodipodi:namedview>
 <defs
   id="defs4"><inkscape:path-effect
   effect="spiro"
   id="path-effect1521"
   is_visible="true"
   lpeversion="1" /><inkscape:path-effect
   effect="spiro"
   id="path-effect858"
   is_visible="true"
   lpeversion="1" /><inkscape:path-effect
   effect="spiro"
   id="path-effect854"
   is_visible="true"
   lpeversion="1" />
  <style
   type="text/css"
   id="style2">
   <![CDATA[
    .fil0 {fill:#EF7F1A;fill-rule:nonzero}
   ]]>
  </style>
 <inkscape:path-effect
   effect="spiro"
   id="path-effect1214"
   is_visible="true"
   lpeversion="1" /><inkscape:path-effect
   effect="spiro"
   id="path-effect1195"
   is_visible="true"
   lpeversion="1" /><inkscape:path-effect
   effect="spiro"
   id="path-effect992"
   is_visible="true"
   lpeversion="1" /><inkscape:path-effect
   effect="spiro"
   id="path-effect287"
   is_visible="true"
   lpeversion="1" /><inkscape:path-effect
   effect="spiro"
   id="path-effect1032"
   is_visible="true"
   lpeversion="1" /><inkscape:path-effect
   effect="spiro"
   id="path-effect1218"
   is_visible="true"
   lpeversion="1" /><inkscape:path-effect
   effect="spiro"
   id="path-effect309"
   is_visible="true"
   lpeversion="1" /><inkscape:path-effect
   effect="spiro"
   id="path-effect1176"
   is_visible="true"
   lpeversion="1" /><inkscape:path-effect
   effect="spiro"
   id="path-effect851"
   is_visible="true"
   lpeversion="1" /><style
   type="text/css"
   id="style2-9">
   <![CDATA[
    .fil0 {fill:#EF7F1A;fill-rule:nonzero}
   ]]>
  </style><inkscape:path-effect
   effect="spiro"
   id="path-effect1060"
   is_visible="true"
   lpeversion="1" /><inkscape:path-effect
   effect="spiro"
   id="path-effect1047"
   is_visible="true"
   lpeversion="1" /><inkscape:path-effect
   effect="spiro"
   id="path-effect1085"
   is_visible="true"
   lpeversion="1" /><inkscape:path-effect
   effect="spiro"
   id="path-effect1286"
   is_visible="true"
   lpeversion="1" /><inkscape:path-effect
   effect="spiro"
   id="path-effect1305"
   is_visible="true"
   lpeversion="1" /></defs>
 
<g
   style="clip-rule:evenodd;fill-rule:evenodd;image-rendering:optimizeQuality;shape-rendering:geometricPrecision;text-rendering:geometricPrecision"
   id="g885"><path
     id="path1210-6"
     style="display:inline;fill:#1a1a1a;fill-rule:nonzero;stroke:none;stroke-width:2.22142px;stroke-linecap:butt;stroke-linejoin:miter;stroke-opacity:1"
     d="m 439.10125,258.36349 c 3.05376,-30.55134 12.10162,-60.86009 29.07862,-86.44311 14.93471,-22.50545 36.52505,-41.34146 62.38085,-49.15291 27.76769,-8.38906 58.01703,-3.52251 85.27409,6.40087 63.01332,22.94104 114.33864,71.98693 148.91976,129.44228 34.58112,57.45534 53.6028,123.04299 65.41657,189.05363 7.08957,39.61372 11.71989,80.01996 7.99883,120.09069 -3.72105,40.07072 -16.23179,80.02501 -40.68413,111.98736 -10.5105,13.73857 -23.1916,25.92378 -37.89776,35.03133 -14.70617,9.10755 -31.47878,15.07697 -48.73249,16.31327 -16.00107,1.14655 -32.22092,-1.79905 -47.00038,-8.03735 -14.77945,-6.2383 -28.12113,-15.7278 -39.23535,-27.29598 -22.22845,-23.13636 -35.18238,-54.17306 -39.91922,-85.90565 -5.58022,-37.38245 -0.34248,-75.4748 5.98385,-112.73824 7.63347,-44.96279 16.9257,-89.89559 33.24589,-132.48167 30.16772,-78.71997 83.60879,-146.99761 146.07663,-203.60763 16.14426,-14.63036 33.00921,-28.6181 51.69242,-39.82622 18.68322,-11.20811 39.30948,-19.60384 60.92225,-22.355686 28.9123,-3.68126 59.40535,3.326646 82.69362,20.851756 14.62677,11.00708 26.17926,25.84574 34.29495,42.25408 8.11565,16.40834 12.86675,34.36259 15.07575,52.5345 6.0757,49.98058 -6.799,100.10754 -19.5505,148.81453 -13.28663,50.75087 -26.55908,101.50872 -38.9513,152.48536 -12.65089,52.04072 -24.46155,105.23907 -20.6204,158.65748 3.78596,52.65092 23.15665,104.08509 55.0429,146.15312 H 802.68091 c 9.96869,-42.14943 21.33972,-83.96719 34.08796,-125.36081 15.52968,-50.42497 33.09615,-100.20116 48.90411,-150.53959 10.63201,-33.85629 20.46775,-67.96529 29.30428,-102.33393 8.49932,-33.0571 16.1226,-67.29832 11.21804,-101.07636 -3.53745,-24.36266 -14.0533,-48.24399 -32.25372,-64.821 -13.57818,-12.36705 -31.23035,-20.30562 -49.53976,-21.74662 -17.68489,-1.39185 -35.51033,3.19857 -51.36847,11.14918 -15.85814,7.9506 -29.88703,19.1553 -42.72519,31.39761 -37.67938,35.93058 -65.85638,81.38848 -83.32076,130.4368 -11.16718,31.36279 -18.05713,64.2796 -19.94386,97.51769 -1.18514,20.87834 -0.26794,42.47663 8.221,61.58807 4.24447,9.55572 10.38361,18.35056 18.37759,25.09027 7.99398,6.73971 17.88795,11.35743 28.28651,12.45169 9.77385,1.02852 19.77352,-1.07484 28.58067,-5.43605 8.80715,-4.36121 16.44158,-10.92252 22.55592,-18.61673 12.22867,-15.38843 18.23332,-34.84306 21.51562,-54.22271 6.76918,-39.96717 2.91059,-81.44692 -9.17604,-120.13942 -12.41528,-39.7446 -33.63936,-76.94676 -62.96796,-106.50358 -13.90554,-14.01375 -29.79812,-26.41032 -48.02742,-33.98935 -18.2293,-7.57902 -38.99375,-10.06307 -57.90423,-4.39361 -20.6272,6.18414 -37.6486,21.65183 -48.83989,40.04966 -11.19129,18.39782 -17.01929,39.5944 -20.42497,60.85766 -7.94614,49.61141 -3.3475,100.26929 1.09345,150.31638 6.43437,72.51197 12.8641,146.54382 41.84606,213.32281 11.64067,26.82194 26.81281,52.10874 45.00135,75.00194 l -188.23602,2.80445 c 14.08396,-37.59091 24.66208,-76.49448 31.55236,-116.0414 14.40548,-82.68056 12.53207,-168.16519 -5.48177,-250.13527 -19.0362,-9.41267 -39.50215,-15.9272 -60.4767,-19.25038 -38.70853,-6.13293 -78.87259,-1.26139 -115.65988,12.25371 -42.01809,15.43681 -79.54931,41.90466 -110.55286,74.1939 -40.7609,42.45123 -71.243069,97.39646 -73.6866,156.19771 -0.336507,8.09773 -0.136818,16.28207 1.662257,24.18458 1.799074,7.90252 5.278109,15.55144 10.857383,21.43006 4.9824,5.24972 11.47767,8.91761 18.34436,11.20506 6.8667,2.28744 14.11443,3.24676 21.34336,3.60246 35.84569,1.76381 71.66391,-11.43492 99.87728,-33.61667 36.17535,-28.44157 59.78468,-70.40608 73.85711,-114.2187 26.1288,-81.34854 21.1506,-172.45747 -14.64189,-250.04096 -10.83914,-23.49484 -24.97882,-46.39809 -46.13598,-61.29336 -10.57858,-7.44763 -22.81078,-12.71849 -35.64091,-14.38022 -12.83013,-1.66174 -26.25407,0.40313 -37.58356,6.64942 -13.75694,7.58462 -23.75845,20.92072 -29.48025,35.55085 -5.72179,14.63014 -7.46942,30.5364 -7.57362,46.24528 -0.32863,49.54311 15.29359,98.33692 39.47042,141.58167 16.86036,30.15789 38.13233,58.21397 65.03005,79.89997 11.60172,9.35376 24.19399,17.47814 37.4981,24.1933 L 163.42991,716.14805 c 0.74097,-22.87993 0.14819,-45.80298 -1.77431,-68.61404 C 157.33515,596.27061 146.28415,545.63104 129.6609,496.94563 115.61819,455.81799 97.645146,416.13771 82.898888,375.25705 68.15263,334.37639 56.56894,291.76218 56.04202,248.30642 55.763033,225.298 58.732628,201.81683 68.66145,181.05909 c 10.686921,-22.34267 29.473947,-40.77884 52.1808,-50.66843 21.35803,-9.30213 45.69392,-10.97461 68.50588,-6.25132 21.59306,4.47091 41.7989,14.46364 59.73483,27.29141 17.93594,12.82777 33.709,28.45706 48.336,44.95858 35.71003,40.28645 65.1335,86.42471 84.26681,136.74489 27.30752,71.81818 33.0162,151.44954 17.90532,226.78355 -16.6821,83.1672 -60.53066,163.04517 -130.27216,211.32767 -35.58969,24.63897 -77.00827,40.51502 -119.74049,47.41882 -23.49112,3.79521 -47.92727,4.87007 -70.76946,-1.79856 C 54.837914,809.8675 33.350125,794.08547 20.38422,772.74368 4.1673813,746.05087 2.0251553,712.94814 5.94891,681.96272 12.07943,633.55074 31.916131,587.42678 59.634935,547.26497 87.353738,507.10316 122.79262,472.6856 161.38062,442.81472 c 25.64237,-19.8497 52.81387,-37.82997 81.77715,-52.41318 62.58591,-31.51245 133.32464,-46.65786 203.32654,-43.53294 -7.82795,-28.72218 -10.34395,-58.88293 -7.38306,-88.50511 z"
     sodipodi:nodetypes="aaaaaaacaaaaaaaaaccaaaaaaaaaaaaaaaaaccscaaaaaaaaaaaascccaaaaaaaacaaaaaaca"
     inkscape:original-d="m 439.10125,258.36349 c 4.57159,-29.81062 10.91025,-61.11573 29.07862,-86.44311 14.96337,-20.85949 36.06632,-41.37397 62.38085,-49.15291 27.08294,-8.00609 61.05248,-7.06993 85.27409,6.40087 117.6677,65.44058 185.69234,197.26846 214.33633,318.49591 18.02515,76.28638 13.29086,165.82562 -32.6853,232.07805 -18.26618,26.32183 -52.22679,54.99263 -86.63025,51.3446 -61.30481,-6.50064 -117.08592,-57.90829 -126.15495,-121.23898 -4.96717,-37.47677 0.35944,-75.45418 5.98385,-112.73824 6.76613,-44.85243 14.09619,-91.17485 33.24589,-132.48167 35.1322,-75.78185 83.63708,-148.12372 146.07663,-203.60763 32.05387,-28.48313 70.08905,-56.67635 112.61467,-62.181906 28.19206,-3.649867 60.87962,4.258636 82.69362,20.851756 29.6906,22.5846 43.1812,60.3761 49.3707,94.78858 8.8694,49.31228 -10.0593,99.59488 -19.5505,148.81453 -9.9076,51.37927 -29.0794,101.10061 -38.9513,152.48536 -10.0811,52.47315 -26.7648,105.682 -20.6204,158.65748 5.9978,51.71148 40.4836,115.75688 55.0429,146.15312 H 802.68091 c 33.81688,-30.71216 21.71324,-83.86232 34.08796,-125.36081 15.07719,-50.56117 33.48859,-100.08055 48.90411,-150.53959 10.36705,-33.93407 22.45607,-67.6587 29.30428,-102.33393 6.58484,-33.34175 17.24514,-67.65037 11.21804,-101.07636 -4.2098,-23.34751 -13.90808,-47.78591 -32.25372,-64.821 -12.76004,-11.84848 -31.5058,-21.84594 -49.53976,-21.74662 -34.42145,0.18958 -68.06814,20.01805 -94.09366,42.54679 -39.00773,33.76665 -63.94035,82.62269 -83.32076,130.4368 -12.46338,30.74887 -24.96634,64.7213 -19.94386,97.51769 5.71748,37.33472 17.39243,94.56159 54.8851,99.13003 35.33732,4.30582 60.91608,-44.66702 72.65221,-78.27549 13.24094,-37.91772 2.88802,-81.83102 -9.17604,-120.13942 -12.38808,-39.33728 -31.21919,-80.18054 -62.96796,-106.50358 -28.91214,-23.97118 -70.17413,-49.86901 -105.93165,-38.38296 -38.84272,12.47708 -57.40741,62.89226 -69.26486,100.90732 -15.05442,48.26456 -3.93325,100.46237 1.09345,150.31638 7.26946,72.09724 15.84097,145.68708 41.84606,213.32281 10.4632,27.21337 21.38391,55.99115 45.00135,75.00194 l -188.23602,2.80445 c 23.3813,-31.87411 27.84078,-76.37272 31.55236,-116.0414 10.11866,-108.14633 -5.48177,-250.13527 -5.48177,-250.13527 0,0 -40.05389,-18.93112 -60.4767,-19.25038 -38.76433,-0.60598 -79.21893,-0.97873 -115.65988,12.25371 -41.71543,15.1477 -81.61549,40.54485 -110.55286,74.1939 -37.53647,43.64829 -68.71523,98.84402 -73.6866,156.19771 -1.36158,15.70828 1.87893,33.97937 12.51964,45.61464 9.5291,10.41977 25.56954,14.57854 39.68772,14.80752 35.12301,0.56966 72.1425,-12.05902 99.87728,-33.61667 35.79726,-27.82444 62.29967,-70.3773 73.85711,-114.2187 21.28243,-80.73165 29.17457,-178.97297 -14.64189,-250.04096 -24.1206,-39.12235 -75.59886,-83.06995 -119.36045,-69.02416 -28.50048,9.14756 -34.75926,51.9517 -37.05387,81.79613 -3.75581,48.84935 16.9542,98.06863 39.47042,141.58167 15.78166,30.49839 46.47727,68.09313 65.03005,79.89997 15.69129,9.98592 19.59306,23.94459 37.4981,24.1933 L 163.42991,716.14805 C 168.42056,694.9286 162.66622,677.96414 161.6556,647.53401 160.49263,626.71912 142.28757,546.68453 129.6609,496.94563 108.39286,413.16667 60.46405,334.62959 56.04202,248.30642 c -1.1668,-22.77718 1.82952,-47.15406 12.61943,-67.24733 11.46992,-21.35961 30.15203,-40.54297 52.1808,-50.66843 20.83463,-9.57658 46.28374,-11.90545 68.50588,-6.25132 41.99451,10.68495 78.00264,41.04725 108.07083,72.24999 37.15202,38.55387 67.65184,85.8468 84.26681,136.74489 23.53154,72.0862 35.69574,153.07023 17.90532,226.78355 -19.41432,80.44182 -74.22268,164.44285 -130.27216,211.32767 -33.55572,27.69657 -77.47306,39.90948 -119.74049,47.41882 C 126.34483,822.792 101.086,824.64861 78.80898,816.8657 55.77009,808.81662 32.94893,793.66512 20.38422,772.74368 4.60887,746.47624 -0.41803,711.93441 5.94891,681.96272 c 19.7558,-92.9983 87.99106,-172.13506 155.43171,-239.148 22.96697,-22.82131 51.83651,-40.09036 81.77715,-52.41318 64.09514,-26.37996 138.30358,-57.03383 203.32654,-43.53294 -6.9311,-27.75536 -11.99693,-58.41875 -7.38306,-88.50511 z"
     inkscape:path-effect="#path-effect1305" /></g></svg>
