<?xml version="1.0" encoding="UTF-8" standalone="no"?>
<svg
   xmlns:dc="http://purl.org/dc/elements/1.1/"
   xmlns:cc="http://creativecommons.org/ns#"
   xmlns:rdf="http://www.w3.org/1999/02/22-rdf-syntax-ns#"
   xmlns:svg="http://www.w3.org/2000/svg"
   xmlns="http://www.w3.org/2000/svg"
   xmlns:sodipodi="http://sodipodi.sourceforge.net/DTD/sodipodi-0.dtd"
   xmlns:inkscape="http://www.inkscape.org/namespaces/inkscape"
   xml:space="preserve"
   width="1000"
   height="1000"
   version="1.1"
   style="clip-rule:evenodd;fill-rule:evenodd;image-rendering:optimizeQuality;shape-rendering:geometricPrecision;text-rendering:geometricPrecision"
   viewBox="0 0 1000 1000"
   id="svg10"
   sodipodi:docname="കൂ.svg"
   inkscape:version="1.0.1 (3bc2e813f5, 2020-09-07)"><metadata
   id="metadata14"><rdf:RDF><cc:Work
       rdf:about=""><dc:format>image/svg+xml</dc:format><dc:type
         rdf:resource="http://purl.org/dc/dcmitype/StillImage" /><dc:title /></cc:Work></rdf:RDF></metadata><sodipodi:namedview
   pagecolor="#ffffff"
   bordercolor="#666666"
   borderopacity="1"
   objecttolerance="10"
   gridtolerance="10"
   guidetolerance="10"
   inkscape:pageopacity="0"
   inkscape:pageshadow="2"
   inkscape:window-width="1920"
   inkscape:window-height="1015"
   id="namedview12"
   showgrid="false"
   inkscape:zoom="0.678"
   inkscape:cx="563.76505"
   inkscape:cy="701.47087"
   inkscape:window-x="1920"
   inkscape:window-y="0"
   inkscape:window-maximized="1"
   inkscape:current-layer="svg10"
   showguides="true"
   inkscape:guide-bbox="true"
   inkscape:document-rotation="0"
   inkscape:snap-to-guides="true"><sodipodi:guide
     position="0,1000"
     orientation="0,1"
     id="guide16"
     inkscape:label=""
     inkscape:locked="true"
     inkscape:color="rgb(0,0,255)" /><sodipodi:guide
     position="1763.3122,2036.1693"
     orientation="1000,0"
     id="guide18" /><sodipodi:guide
     position="0,200"
     orientation="0,1"
     id="guide20"
     inkscape:label="base"
     inkscape:locked="true"
     inkscape:color="rgb(0,0,255)" /><inkscape:grid
     type="xygrid"
     id="grid24"
     originx="-473.37552"
     originy="-489.69235" /><sodipodi:guide
     position="0,0"
     orientation="0,1"
     id="guide34"
     inkscape:label="bottom"
     inkscape:locked="true"
     inkscape:color="rgb(0,0,255)" /><sodipodi:guide
     position="225.05109,1693.3186"
     orientation="0,1"
     id="guide44"
     inkscape:label=""
     inkscape:locked="false"
     inkscape:color="rgb(0,0,255)" /><sodipodi:guide
     position="0,900"
     orientation="0,1"
     id="guide46"
     inkscape:label=""
     inkscape:locked="true"
     inkscape:color="rgb(0,0,255)" /><sodipodi:guide
     position="739.33991,533.60661"
     orientation="-1,0"
     id="guide841"
     inkscape:label=""
     inkscape:locked="false"
     inkscape:color="rgb(0,0,255)" /><sodipodi:guide
     position="0,1000"
     orientation="0,1000"
     id="guide860" /><sodipodi:guide
     position="1000,1000"
     orientation="1000,0"
     id="guide862" /><sodipodi:guide
     position="1000,0"
     orientation="0,-1000"
     id="guide864" /><sodipodi:guide
     position="0,0"
     orientation="-1000,0"
     id="guide866" /></sodipodi:namedview>
 <defs
   id="defs4"><inkscape:path-effect
   effect="spiro"
   id="path-effect1521"
   is_visible="true"
   lpeversion="1" /><inkscape:path-effect
   effect="spiro"
   id="path-effect858"
   is_visible="true"
   lpeversion="1" /><inkscape:path-effect
   effect="spiro"
   id="path-effect854"
   is_visible="true"
   lpeversion="1" />
  <style
   type="text/css"
   id="style2">
   <![CDATA[
    .fil0 {fill:#EF7F1A;fill-rule:nonzero}
   ]]>
  </style>
 <inkscape:path-effect
   effect="spiro"
   id="path-effect1214"
   is_visible="true"
   lpeversion="1" /><inkscape:path-effect
   effect="spiro"
   id="path-effect1195"
   is_visible="true"
   lpeversion="1" /><inkscape:path-effect
   effect="spiro"
   id="path-effect992"
   is_visible="true"
   lpeversion="1" /><inkscape:path-effect
   effect="spiro"
   id="path-effect287"
   is_visible="true"
   lpeversion="1" /><inkscape:path-effect
   effect="spiro"
   id="path-effect1032"
   is_visible="true"
   lpeversion="1" /><inkscape:path-effect
   effect="spiro"
   id="path-effect1218"
   is_visible="true"
   lpeversion="1" /><inkscape:path-effect
   effect="spiro"
   id="path-effect309"
   is_visible="true"
   lpeversion="1" /><inkscape:path-effect
   effect="spiro"
   id="path-effect1176"
   is_visible="true"
   lpeversion="1" /></defs>
 
<path
   id="path1164-3-3-2-0"
   style="display:inline;fill:#1a1a1a;fill-rule:nonzero;stroke:none;stroke-width:2.83729;stroke-linecap:butt;stroke-linejoin:miter;stroke-miterlimit:4;stroke-dasharray:none;stroke-opacity:1"
   d="m 441.06881,448.66841 c -41.39175,16.85286 -79.27216,42.27504 -110.55286,74.1939 -41.22011,42.06104 -71.31637,97.35376 -73.6866,156.19771 -0.32616,8.09732 -0.12506,16.28011 1.67203,24.18223 1.7971,7.90212 5.27101,15.5524 10.84761,21.43241 4.98069,5.25168 11.47621,8.92037 18.34326,11.20753 6.86704,2.28716 14.11524,3.24524 21.34446,3.59999 35.84554,1.75898 71.66329,-11.43633 99.87728,-33.61667 36.17664,-28.44015 59.78527,-70.40575 73.85711,-114.2187 26.12762,-81.34883 21.15032,-172.45745 -14.64189,-250.04096 -10.83908,-23.49488 -24.97876,-46.39816 -46.13594,-61.29343 -10.57859,-7.44763 -22.8108,-12.71847 -35.64094,-14.38019 -12.83014,-1.66173 -26.25408,0.40315 -37.58357,6.64946 -13.75693,7.58463 -23.75843,20.92073 -29.48023,35.55086 -5.7218,14.63013 -7.46944,30.53639 -7.57364,46.24527 -0.32864,49.54311 15.29359,98.33692 39.47042,141.58167 16.86036,30.15788 38.13233,58.21397 65.03005,79.89997 11.60172,9.35376 24.19399,17.47814 37.4981,24.1933 L 327.61953,714.59605 c 0.74096,-22.87993 0.14819,-45.80298 -1.77431,-68.61404 -4.32045,-51.2634 -15.37144,-101.90297 -31.9947,-150.58838 -14.04271,-41.12764 -32.01576,-80.80792 -46.76202,-121.68858 -14.74626,-40.88066 -26.32996,-83.49487 -26.85687,-126.95063 -0.27898,-23.00842 2.69062,-46.48959 12.61944,-67.24733 10.68692,-22.34267 29.47395,-40.77884 52.1808,-50.66843 21.35803,-9.30213 45.69392,-10.97461 68.50588,-6.25132 21.59307,4.47091 41.7989,14.46364 59.73484,27.29141 17.93594,12.82776 33.70899,28.45705 48.33599,44.95858 35.71002,40.28645 65.13346,86.42473 84.26681,136.74489 27.30759,71.81818 33.01649,151.44958 17.90532,226.78355 -16.6824,83.16704 -60.53147,163.04419 -130.27216,211.32767 -35.58939,24.63956 -77.00789,40.51683 -119.74049,47.41882 -23.49113,3.79419 -47.92659,4.86721 -70.76946,-1.79856 -23.97279,-6.99549 -45.46799,-22.77363 -58.42477,-44.12202 -16.2029,-26.69691 -18.30299,-59.79226 -14.4353,-90.78096 6.04924,-48.46765 25.6113,-94.74835 53.24618,-135.02265 27.63488,-40.27431 63.17911,-74.72798 102.18553,-104.12535 25.87938,-19.50412 53.33973,-36.874 81.77715,-52.41318 31.93582,-17.45082 65.32938,-32.6796 100.57439,-41.74695 35.24502,-9.06734 72.51296,-11.81616 108.13511,-4.36696 35.12514,7.34526 68.6678,25.1377 91.35627,52.93989 16.64285,20.39396 27.04591,45.74421 29.91447,71.9104 2.86857,26.16618 -1.75724,53.06056 -12.84909,76.93248 -13.33134,28.69175 -36.03577,52.93547 -63.79265,68.11759 42.62483,22.9206 72.51941,67.99329 77.05464,116.17691 2.54431,27.0315 -2.48045,54.51307 -12.70316,79.66604 -10.22272,25.15296 -25.53301,48.04883 -43.47819,68.42397 C 615.34899,952.07864 513.48171,991.29985 413.30635,991.02241 343.63321,990.82945 274.02562,972.5919 213.45088,938.16683 152.87615,903.74176 101.5071,853.16539 66.568552,792.88536 7.119413,690.31682 -2.5410736,566.46074 2.3663761,448.01066 7.7272489,318.6164 28.800346,189.88045 64.975516,65.530257 L 220.10502,119.0373 C 153.49571,180.58263 105.25666,261.76591 83.048672,349.69448 66.417006,415.54459 64.211804,484.31253 68.416889,552.10019 c 5.216368,84.08995 21.683032,171.12721 72.655091,238.21059 31.2697,41.15347 74.37159,72.74051 121.97408,92.8752 47.60249,20.13469 99.59047,29.04433 151.27577,28.86463 75.75613,-0.2634 153.24442,-21.04705 211.98821,-68.88248 14.0984,-11.48041 27.08487,-24.49471 37.27671,-39.55098 10.19184,-15.05627 17.53367,-32.23701 19.85598,-50.26953 2.35905,-18.31786 -0.66445,-37.52751 -9.89393,-53.52519 -9.22947,-15.99768 -24.88408,-28.49151 -42.90964,-32.51496 -14.36051,-3.20538 -29.87381,-0.93465 -42.7132,6.25207 l 2.85611,-93.25313 c 12.03301,3.49617 25.37493,2.25566 36.55711,-3.39902 7.87561,-3.98259 14.645,-10.06683 19.63218,-17.34792 4.98717,-7.28109 8.20217,-15.73677 9.53995,-24.46011 2.67557,-17.44667 -2.26454,-35.62674 -11.99014,-50.35622 -9.48143,-14.35969 -23.28014,-25.58211 -38.60898,-33.40035 -15.32885,-7.81824 -32.16956,-12.35461 -49.18354,-14.92809 -38.75387,-5.8618 -78.99463,-1.59845 -115.65988,12.25371 z"
   sodipodi:nodetypes="aaaaaaaaaaascccaaaaaaaacaaaaaaaaacaaaaaccaaaaaaaccaaaaa"
   inkscape:path-effect="#path-effect1521"
   inkscape:original-d="m 441.06881,448.66841 c -41.71543,15.1477 -81.61549,40.54485 -110.55286,74.1939 -37.53647,43.64829 -68.71524,98.84402 -73.6866,156.19771 -1.36158,15.70828 1.87893,33.97937 12.51964,45.61464 9.5291,10.41977 25.56954,14.57854 39.68772,14.80752 35.12301,0.56966 72.1425,-12.05902 99.87728,-33.61667 35.79726,-27.82444 62.29967,-70.3773 73.85711,-114.2187 21.28243,-80.73165 29.17457,-178.97297 -14.64189,-250.04096 -24.1206,-39.12235 -75.59886,-83.06995 -119.36045,-69.02416 -28.50048,9.14756 -34.75926,51.9517 -37.05387,81.79613 -3.75581,48.84935 16.9542,98.06863 39.47042,141.58167 15.78166,30.49839 46.47727,68.09313 65.03005,79.89997 15.69129,9.98592 19.59306,23.94459 37.4981,24.1933 L 327.61953,714.59605 c 4.99065,-21.21945 -0.76369,-38.18391 -1.77431,-68.61404 -1.16297,-20.81489 -19.36803,-100.84948 -31.9947,-150.58838 -21.26804,-83.77896 -69.19685,-162.31604 -73.61889,-248.63921 -1.16679,-22.77718 1.82953,-47.15406 12.61944,-67.24733 11.46991,-21.35961 30.15202,-40.54297 52.1808,-50.66843 20.83463,-9.57658 46.28374,-11.90545 68.50588,-6.25132 41.99451,10.68495 78.00264,41.04725 108.07083,72.24999 37.15202,38.55387 67.65184,85.8468 84.26681,136.74489 23.53154,72.0862 35.69574,153.07023 17.90532,226.78355 -19.41432,80.44182 -74.22268,164.44285 -130.27216,211.32767 -33.55572,27.69657 -77.47306,39.90948 -119.74049,47.41882 -23.23361,4.12774 -48.49245,5.98435 -70.76946,-1.79856 -23.0389,-8.04908 -45.86006,-23.20058 -58.42477,-44.12202 -15.77534,-26.26744 -20.80224,-60.80927 -14.4353,-90.78096 19.7558,-92.9983 87.99106,-172.13506 155.43171,-239.148 22.96697,-22.82131 51.87694,-39.99259 81.77715,-52.41318 65.79666,-27.33201 138.30358,-57.03383 208.7095,-46.11391 34.7798,5.39432 72.07188,23.49764 91.35627,52.93989 27.36274,41.77579 32.7383,101.42668 17.06538,148.84288 -9.76299,29.53654 -37.49097,63.72222 -63.79265,68.11759 42.80218,33.00712 71.88321,69.99635 77.05464,116.17691 5.87554,52.46829 -19.5957,110.02514 -56.18135,148.09001 C 614.22245,946.96219 510.31306,996.7001 413.30635,991.02241 280.41504,983.24444 143.6822,901.39382 66.568552,792.88536 -1.1690939,697.5701 3.6409561,564.93697 2.3663761,448.01066 0.95819606,318.82805 64.975516,65.530257 64.975516,65.530257 L 220.10502,119.0373 c 0,0 -110.27191,145.32741 -137.056348,230.65718 -20.258606,64.53979 -22.188016,135.18444 -14.631783,202.40571 9.273155,82.4952 17.67623,176.01111 72.655091,238.21059 66.03844,74.71158 173.67304,116.50956 273.24985,121.73983 74.19726,3.8972 153.25675,-23.37382 211.98821,-68.88248 28.04879,-21.73389 56.84729,-54.33791 57.13269,-89.82051 0.27065,-33.64928 -22.32273,-71.78303 -52.80357,-86.04015 -13.03411,-6.09658 -42.7132,6.25207 -42.7132,6.25207 l 2.85611,-93.25313 c 0,0 27.51622,4.84946 36.55711,-3.39902 23.08615,-21.06271 30.5391,-63.9119 17.18199,-92.16425 -14.27797,-30.20011 -55.04547,-41.73011 -87.79252,-48.32844 -38.00524,-7.65782 -79.21893,-0.97873 -115.65988,12.25371 z" /></svg>
