<?xml version="1.0" encoding="UTF-8" standalone="no"?>
<svg
   xmlns:dc="http://purl.org/dc/elements/1.1/"
   xmlns:cc="http://creativecommons.org/ns#"
   xmlns:rdf="http://www.w3.org/1999/02/22-rdf-syntax-ns#"
   xmlns:svg="http://www.w3.org/2000/svg"
   xmlns="http://www.w3.org/2000/svg"
   xmlns:sodipodi="http://sodipodi.sourceforge.net/DTD/sodipodi-0.dtd"
   xmlns:inkscape="http://www.inkscape.org/namespaces/inkscape"
   xml:space="preserve"
   width="1000"
   height="1000"
   version="1.1"
   style="clip-rule:evenodd;fill-rule:evenodd;image-rendering:optimizeQuality;shape-rendering:geometricPrecision;text-rendering:geometricPrecision"
   viewBox="0 0 1000 1000"
   id="svg10"
   sodipodi:docname="ക്ര.svg"
   inkscape:version="1.0.1 (3bc2e813f5, 2020-09-07)"><metadata
   id="metadata14"><rdf:RDF><cc:Work
       rdf:about=""><dc:format>image/svg+xml</dc:format><dc:type
         rdf:resource="http://purl.org/dc/dcmitype/StillImage" /><dc:title /></cc:Work></rdf:RDF></metadata><sodipodi:namedview
   pagecolor="#ffffff"
   bordercolor="#666666"
   borderopacity="1"
   objecttolerance="10"
   gridtolerance="10"
   guidetolerance="10"
   inkscape:pageopacity="0"
   inkscape:pageshadow="2"
   inkscape:window-width="1920"
   inkscape:window-height="1015"
   id="namedview12"
   showgrid="false"
   inkscape:zoom="0.678"
   inkscape:cx="353.49239"
   inkscape:cy="527.84412"
   inkscape:window-x="1920"
   inkscape:window-y="0"
   inkscape:window-maximized="1"
   inkscape:current-layer="svg10"
   showguides="true"
   inkscape:guide-bbox="true"
   inkscape:document-rotation="0"
   inkscape:snap-to-guides="true"><sodipodi:guide
     position="0,1000"
     orientation="0,1"
     id="guide16"
     inkscape:label=""
     inkscape:locked="true"
     inkscape:color="rgb(0,0,255)" /><sodipodi:guide
     position="1763.3122,2036.1693"
     orientation="1000,0"
     id="guide18" /><sodipodi:guide
     position="0,200"
     orientation="0,1"
     id="guide20"
     inkscape:label="base"
     inkscape:locked="true"
     inkscape:color="rgb(0,0,255)" /><inkscape:grid
     type="xygrid"
     id="grid24"
     originx="-473.37552"
     originy="-489.69235" /><sodipodi:guide
     position="0,0"
     orientation="0,1"
     id="guide34"
     inkscape:label="bottom"
     inkscape:locked="true"
     inkscape:color="rgb(0,0,255)" /><sodipodi:guide
     position="225.05109,1693.3186"
     orientation="0,1"
     id="guide44"
     inkscape:label=""
     inkscape:locked="false"
     inkscape:color="rgb(0,0,255)" /><sodipodi:guide
     position="0,900"
     orientation="0,1"
     id="guide46"
     inkscape:label=""
     inkscape:locked="true"
     inkscape:color="rgb(0,0,255)" /><sodipodi:guide
     position="740.74966,265.29732"
     orientation="-1,0"
     id="guide841"
     inkscape:label=""
     inkscape:locked="false"
     inkscape:color="rgb(0,0,255)" /><sodipodi:guide
     position="0,1000"
     orientation="0,1000"
     id="guide860" /><sodipodi:guide
     position="1000,1000"
     orientation="1000,0"
     id="guide862" /><sodipodi:guide
     position="1000,0"
     orientation="0,-1000"
     id="guide864" /><sodipodi:guide
     position="0,0"
     orientation="-1000,0"
     id="guide866" /></sodipodi:namedview>
 <defs
   id="defs4"><inkscape:path-effect
   effect="spiro"
   id="path-effect1521"
   is_visible="true"
   lpeversion="1" /><inkscape:path-effect
   effect="spiro"
   id="path-effect858"
   is_visible="true"
   lpeversion="1" /><inkscape:path-effect
   effect="spiro"
   id="path-effect854"
   is_visible="true"
   lpeversion="1" />
  <style
   type="text/css"
   id="style2">
   <![CDATA[
    .fil0 {fill:#EF7F1A;fill-rule:nonzero}
   ]]>
  </style>
 <inkscape:path-effect
   effect="spiro"
   id="path-effect1214"
   is_visible="true"
   lpeversion="1" /><inkscape:path-effect
   effect="spiro"
   id="path-effect1195"
   is_visible="true"
   lpeversion="1" /><inkscape:path-effect
   effect="spiro"
   id="path-effect992"
   is_visible="true"
   lpeversion="1" /><inkscape:path-effect
   effect="spiro"
   id="path-effect287"
   is_visible="true"
   lpeversion="1" /><inkscape:path-effect
   effect="spiro"
   id="path-effect1032"
   is_visible="true"
   lpeversion="1" /><inkscape:path-effect
   effect="spiro"
   id="path-effect1218"
   is_visible="true"
   lpeversion="1" /><inkscape:path-effect
   effect="spiro"
   id="path-effect309"
   is_visible="true"
   lpeversion="1" /><inkscape:path-effect
   effect="spiro"
   id="path-effect1176"
   is_visible="true"
   lpeversion="1" /></defs>
 
<path
   id="path1164-3-3-2-0"
   style="display:inline;fill:#1a1a1a;fill-rule:nonzero;stroke:none;stroke-width:2.83729;stroke-linecap:butt;stroke-linejoin:miter;stroke-miterlimit:4;stroke-dasharray:none;stroke-opacity:1"
   d="m 430.45153,429.63111 c -41.8592,15.80668 -79.47757,42.0012 -110.55286,74.1939 -40.88039,42.35037 -71.2621,97.38546 -73.6866,156.19771 -0.33382,8.09762 -0.13376,16.28156 1.6648,24.18397 1.79856,7.90241 5.27626,15.55169 10.85484,21.43067 4.98196,5.25023 11.47729,8.91833 18.34408,11.2057 6.86678,2.28737 14.11464,3.24637 21.34364,3.60182 35.84565,1.76255 71.66375,-11.43529 99.87728,-33.61667 36.17569,-28.4412 59.78484,-70.40599 73.85711,-114.2187 26.12849,-81.34862 21.15053,-172.45746 -14.64189,-250.04096 -10.83913,-23.49485 -24.97881,-46.39811 -46.13597,-61.29338 -10.57858,-7.44763 -22.81079,-12.71848 -35.64092,-14.38021 -12.83013,-1.66173 -26.25407,0.40313 -37.58356,6.64943 -13.75694,7.58462 -23.75844,20.92072 -29.48024,35.55086 -5.7218,14.63013 -7.46943,30.53639 -7.57363,46.24527 -0.32863,49.54311 15.29359,98.33692 39.47042,141.58167 16.86036,30.15789 38.13233,58.21397 65.03005,79.89997 11.60172,9.35376 24.19399,17.47814 37.4981,24.1933 L 317.00225,695.55875 c 0.74096,-22.87993 0.14819,-45.80298 -1.77431,-68.61404 -4.32045,-51.2634 -15.37144,-101.90297 -31.9947,-150.58838 -14.04271,-41.12764 -32.01576,-80.80792 -46.76202,-121.68858 -14.74626,-40.88066 -26.32996,-83.49487 -26.85687,-126.95063 -0.27898,-23.00842 2.69062,-46.48959 12.61944,-67.24733 10.68692,-22.34267 29.47395,-40.77884 52.1808,-50.66843 21.35803,-9.30213 45.69392,-10.974609 68.50588,-6.25132 21.59307,4.47091 41.7989,14.46364 59.73484,27.29141 17.93594,12.82776 33.70899,28.45705 48.33599,44.95858 35.71002,40.28645 65.13345,86.42473 84.26681,136.74489 27.3076,71.81818 33.01652,151.44958 17.90532,226.78355 -16.68243,83.16702 -60.53155,163.04409 -130.27216,211.32767 -35.58937,24.63962 -77.00785,40.517 -119.74049,47.41882 -23.49113,3.79409 -47.92652,4.86693 -70.76946,-1.79856 -23.97296,-6.99523 -45.46889,-22.77298 -58.42477,-44.12202 -16.20153,-26.69731 -18.29748,-59.79194 -14.4353,-90.78096 6.04124,-48.47319 25.57625,-94.76931 53.20289,-135.05474 27.62664,-40.28542 63.18146,-74.74278 102.22882,-104.09326 25.90275,-19.47015 53.39288,-36.78075 81.77715,-52.41318 31.92385,-17.58183 65.22976,-33.14091 100.49176,-42.35199 35.262,-9.21109 72.69049,-11.89007 108.21774,-3.76192 34.844,7.97183 67.31887,26.48506 91.35627,52.93989 22.67084,24.95084 37.5501,56.44602 45.02046,89.3201 7.47035,32.87409 7.7394,67.11946 3.44256,100.5567 -9.84857,76.63973 -43.66363,149.31767 -91.92185,209.66489 -43.0417,53.82393 -97.89433,98.52652 -160.4476,127.45214 -62.55327,28.92563 -132.81993,41.78591 -201.32929,34.2979 C 227.20597,930.89609 164.20064,905.40966 116.43503,861.71317 74.619063,823.45948 45.702079,772.73371 26.336399,719.47124 13.670918,684.63669 4.8223656,648.41583 0,611.66525 l 151.40961,-81.66776 c -21.63894,37.95482 -32.56533,81.94184 -31.20171,125.6105 1.04119,33.34295 9.22318,66.566 24.77726,96.07714 15.55408,29.51114 38.55142,55.21709 66.75905,73.02624 43.08801,27.20402 96.60507,34.91534 147.12179,28.22976 50.51671,-6.68558 98.40548,-26.88718 142.77094,-51.95392 36.39362,-20.56261 71.09563,-44.71118 100.04811,-74.86198 28.95249,-30.1508 52.0434,-66.59258 62.90734,-106.95707 7.06321,-26.24305 8.86319,-54.03348 3.95836,-80.76416 -4.90483,-26.73068 -16.63425,-52.34787 -34.64682,-72.69816 -22.54563,-25.47167 -54.37665,-41.96516 -87.79252,-48.32844 -38.56901,-7.34458 -78.92932,-1.61632 -115.65988,12.25371 z"
   sodipodi:nodetypes="aaaaaaaaaaascccaaaaaaaacaaaaaaaaaaaaaccaaaaaaa"
   inkscape:path-effect="#path-effect1521"
   inkscape:original-d="m 430.45153,429.63111 c -41.71543,15.1477 -81.61549,40.54485 -110.55286,74.1939 -37.53647,43.64829 -68.71524,98.84402 -73.6866,156.19771 -1.36158,15.70828 1.87893,33.97937 12.51964,45.61464 9.5291,10.41977 25.56954,14.57854 39.68772,14.80752 35.12301,0.56966 72.1425,-12.05902 99.87728,-33.61667 35.79726,-27.82444 62.29967,-70.3773 73.85711,-114.2187 21.28243,-80.73165 29.17457,-178.97297 -14.64189,-250.04096 -24.1206,-39.12235 -75.59886,-83.06995 -119.36045,-69.02416 -28.50048,9.14756 -34.75926,51.9517 -37.05387,81.79613 -3.75581,48.84935 16.9542,98.06863 39.47042,141.58167 15.78166,30.49839 46.47727,68.09313 65.03005,79.89997 15.69129,9.98592 19.59306,23.94459 37.4981,24.1933 L 317.00225,695.55875 c 4.99065,-21.21945 -0.76369,-38.18391 -1.77431,-68.61404 -1.16297,-20.81489 -19.36803,-100.84948 -31.9947,-150.58838 -21.26804,-83.77896 -69.19685,-162.31604 -73.61889,-248.63921 -1.16679,-22.77718 1.82953,-47.15406 12.61944,-67.24733 11.46991,-21.35961 30.15203,-40.54297 52.1808,-50.66843 20.83463,-9.57658 46.28374,-11.90545 68.50588,-6.25132 41.99451,10.68495 78.00264,41.04725 108.07083,72.24999 37.15202,38.55387 67.65184,85.8468 84.26681,136.74489 23.53154,72.0862 35.69574,153.07023 17.90532,226.78355 -19.41432,80.44182 -74.22268,164.44285 -130.27216,211.32767 -33.55572,27.69657 -77.47306,39.90948 -119.74049,47.41882 -23.23361,4.12774 -48.49245,5.98435 -70.76946,-1.79856 -23.0389,-8.04908 -45.86005,-23.20058 -58.42477,-44.12202 -15.77534,-26.26744 -20.80224,-60.80927 -14.4353,-90.78096 19.7558,-92.9983 87.99106,-172.13506 155.43171,-239.148 22.96697,-22.82131 51.87694,-39.99259 81.77715,-52.41318 65.79666,-27.33201 138.30358,-57.03383 208.7095,-46.11391 34.7798,5.39432 70.11952,24.87329 91.35627,52.93989 39.41432,52.09017 53.79012,124.77307 48.46302,189.8768 -6.22326,76.05585 -38.15858,155.51019 -91.92185,209.66489 -93.067,93.74457 -229.68193,161.09291 -361.77689,161.75004 -63.66309,0.3167 -126.77554,-34.7993 -175.12513,-76.21678 C 73.810566,825.19997 48.301978,771.11979 26.336399,719.47124 11.858942,685.42982 0,611.66525 0,611.66525 l 151.40961,-81.66776 c 9.73895,-10.60874 -36.63763,82.81175 -31.20171,125.6105 8.07605,63.58533 35.17941,138.57116 91.53631,169.10338 85.2473,46.18406 203.05377,19.39273 289.89273,-23.72416 72.89487,-36.19343 141.50749,-103.31037 162.95545,-181.81905 13.74779,-50.32279 0.14966,-111.38625 -30.68846,-153.46232 -19.74726,-26.94351 -55.04547,-41.73011 -87.79252,-48.32844 -38.00524,-7.65782 -79.21893,-0.97873 -115.65988,12.25371 z" /></svg>
