<?xml version="1.0" encoding="UTF-8"?>
<!DOCTYPE svg PUBLIC "-//W3C//DTD SVG 1.1//EN" "http://www.w3.org/Graphics/SVG/1.1/DTD/svg11.dtd">
<!-- Creator: CorelDRAW X8 -->
<svg xmlns="http://www.w3.org/2000/svg" xml:space="preserve" width="2121px" height="1486px" version="1.1" style="shape-rendering:geometricPrecision; text-rendering:geometricPrecision; image-rendering:optimizeQuality; fill-rule:evenodd; clip-rule:evenodd"
viewBox="0 0 2121 1486"
 xmlns:xlink="http://www.w3.org/1999/xlink">
 <defs>
  <style type="text/css">
   <![CDATA[
    .fil0 {fill:#E31E24;fill-rule:nonzero}
   ]]>
  </style>
 </defs>
 <g id="Layer_x0020_1">
  <metadata id="CorelCorpID_0Corel-Layer"/>
  <path class="fil0" d="M1143 1486c214,0 424,-28 624,-110 197,-80 354,-213 354,-422 0,-78 -41,-148 -113,-181 47,-28 76,-78 76,-132 0,-49 -14,-93 -49,-128 -55,-56 -143,-73 -220,-73l-149 0c-5,-88 -22,-178 -66,-255 -77,-136 -212,-185 -364,-185 -153,0 -289,49 -366,186 -43,76 -60,167 -65,254l-64 0c-110,0 -227,29 -307,108 -52,52 -82,115 -82,187 -1,73 28,142 81,193 68,66 166,96 260,96 92,0 184,-29 243,-102 81,77 190,102 300,102 150,0 284,-48 361,-181 51,-88 67,-192 71,-292l147 0c49,0 74,43 74,90 0,24 -7,53 -23,70 -13,14 -26,20 -42,18 -13,-1 -27,-2 -41,-2 -33,0 -77,16 -77,56 0,44 49,56 84,56 17,0 29,-4 45,-4 12,0 29,3 39,7 38,17 54,72 54,112 0,156 -104,252 -237,316 -169,82 -366,104 -552,104 -257,0 -511,-57 -705,-232 -163,-146 -231,-337 -231,-551 0,-189 76,-391 240,-498 16,-11 24,-23 24,-36 0,-16 -14,-33 -36,-43 -19,-9 -43,-14 -67,-14 -27,0 -55,6 -76,20 -192,124 -288,347 -288,571 0,254 91,471 291,636 238,196 548,259 852,259zm321 -1046l-457 0c10,-152 64,-328 229,-328 163,0 218,174 228,328zm-772 472c-30,0 -62,-19 -83,-39 -36,-35 -54,-83 -54,-132 0,-54 17,-100 56,-138 36,-35 80,-52 130,-52l63 0c1,42 5,80 12,122 3,17 5,35 5,53 0,53 -15,107 -52,146 -19,20 -48,40 -77,40zm544 0c-173,0 -224,-193 -230,-361l459 0c-6,169 -57,361 -229,361z"/>
 </g>
</svg>
