<?xml version="1.0" encoding="UTF-8" standalone="no"?>
<svg
   xmlns:dc="http://purl.org/dc/elements/1.1/"
   xmlns:cc="http://creativecommons.org/ns#"
   xmlns:rdf="http://www.w3.org/1999/02/22-rdf-syntax-ns#"
   xmlns:svg="http://www.w3.org/2000/svg"
   xmlns="http://www.w3.org/2000/svg"
   xmlns:sodipodi="http://sodipodi.sourceforge.net/DTD/sodipodi-0.dtd"
   xmlns:inkscape="http://www.inkscape.org/namespaces/inkscape"
   xml:space="preserve"
   width="1000"
   height="1000"
   version="1.1"
   style="clip-rule:evenodd;fill-rule:evenodd;image-rendering:optimizeQuality;shape-rendering:geometricPrecision;text-rendering:geometricPrecision"
   viewBox="0 0 1000 1000"
   id="svg10"
   sodipodi:docname="ക്തൃ.svg"
   inkscape:version="1.0.1 (3bc2e813f5, 2020-09-07)"><metadata
   id="metadata14"><rdf:RDF><cc:Work
       rdf:about=""><dc:format>image/svg+xml</dc:format><dc:type
         rdf:resource="http://purl.org/dc/dcmitype/StillImage" /><dc:title /></cc:Work></rdf:RDF></metadata><sodipodi:namedview
   pagecolor="#ffffff"
   bordercolor="#666666"
   borderopacity="1"
   objecttolerance="10"
   gridtolerance="10"
   guidetolerance="10"
   inkscape:pageopacity="0"
   inkscape:pageshadow="2"
   inkscape:window-width="1920"
   inkscape:window-height="1015"
   id="namedview12"
   showgrid="false"
   inkscape:zoom="0.9588368"
   inkscape:cx="607.46414"
   inkscape:cy="672.20762"
   inkscape:window-x="1920"
   inkscape:window-y="0"
   inkscape:window-maximized="1"
   inkscape:current-layer="g885"
   showguides="true"
   inkscape:guide-bbox="true"
   inkscape:document-rotation="0"
   inkscape:snap-to-guides="true"><sodipodi:guide
     position="0,1000"
     orientation="0,1"
     id="guide16"
     inkscape:label=""
     inkscape:locked="true"
     inkscape:color="rgb(0,0,255)" /><sodipodi:guide
     position="1763.3122,2036.1693"
     orientation="1000,0"
     id="guide18" /><sodipodi:guide
     position="0,200"
     orientation="0,1"
     id="guide20"
     inkscape:label="base"
     inkscape:locked="true"
     inkscape:color="rgb(0,0,255)" /><inkscape:grid
     type="xygrid"
     id="grid24"
     originx="-473.37552"
     originy="-489.69235" /><sodipodi:guide
     position="0,0"
     orientation="0,1"
     id="guide34"
     inkscape:label="bottom"
     inkscape:locked="true"
     inkscape:color="rgb(0,0,255)" /><sodipodi:guide
     position="225.05109,1693.3186"
     orientation="0,1"
     id="guide44"
     inkscape:label=""
     inkscape:locked="false"
     inkscape:color="rgb(0,0,255)" /><sodipodi:guide
     position="0,900"
     orientation="0,1"
     id="guide46"
     inkscape:label=""
     inkscape:locked="true"
     inkscape:color="rgb(0,0,255)" /><sodipodi:guide
     position="1022.9196,527.22498"
     orientation="-1,0"
     id="guide841"
     inkscape:label="width"
     inkscape:locked="false"
     inkscape:color="rgb(0,0,255)" /><sodipodi:guide
     position="0,1000"
     orientation="0,1000"
     id="guide860" /><sodipodi:guide
     position="1000,1000"
     orientation="1000,0"
     id="guide862" /><sodipodi:guide
     position="1000,0"
     orientation="0,-1000"
     id="guide864" /><sodipodi:guide
     position="0,0"
     orientation="-1000,0"
     id="guide866" /></sodipodi:namedview>
 <defs
   id="defs4"><inkscape:path-effect
   effect="spiro"
   id="path-effect1521"
   is_visible="true"
   lpeversion="1" /><inkscape:path-effect
   effect="spiro"
   id="path-effect858"
   is_visible="true"
   lpeversion="1" /><inkscape:path-effect
   effect="spiro"
   id="path-effect854"
   is_visible="true"
   lpeversion="1" />
  <style
   type="text/css"
   id="style2">
   <![CDATA[
    .fil0 {fill:#EF7F1A;fill-rule:nonzero}
   ]]>
  </style>
 <inkscape:path-effect
   effect="spiro"
   id="path-effect1214"
   is_visible="true"
   lpeversion="1" /><inkscape:path-effect
   effect="spiro"
   id="path-effect1195"
   is_visible="true"
   lpeversion="1" /><inkscape:path-effect
   effect="spiro"
   id="path-effect992"
   is_visible="true"
   lpeversion="1" /><inkscape:path-effect
   effect="spiro"
   id="path-effect287"
   is_visible="true"
   lpeversion="1" /><inkscape:path-effect
   effect="spiro"
   id="path-effect1032"
   is_visible="true"
   lpeversion="1" /><inkscape:path-effect
   effect="spiro"
   id="path-effect1218"
   is_visible="true"
   lpeversion="1" /><inkscape:path-effect
   effect="spiro"
   id="path-effect309"
   is_visible="true"
   lpeversion="1" /><inkscape:path-effect
   effect="spiro"
   id="path-effect1176"
   is_visible="true"
   lpeversion="1" /><inkscape:path-effect
   effect="spiro"
   id="path-effect851"
   is_visible="true"
   lpeversion="1" /><style
   type="text/css"
   id="style2-9">
   <![CDATA[
    .fil0 {fill:#EF7F1A;fill-rule:nonzero}
   ]]>
  </style><inkscape:path-effect
   effect="spiro"
   id="path-effect1060"
   is_visible="true"
   lpeversion="1" /><inkscape:path-effect
   effect="spiro"
   id="path-effect1047"
   is_visible="true"
   lpeversion="1" /><inkscape:path-effect
   effect="spiro"
   id="path-effect1085"
   is_visible="true"
   lpeversion="1" /><inkscape:path-effect
   effect="spiro"
   id="path-effect1286"
   is_visible="true"
   lpeversion="1" /><inkscape:path-effect
   effect="spiro"
   id="path-effect1305"
   is_visible="true"
   lpeversion="1" /></defs>
 
<g
   style="clip-rule:evenodd;fill-rule:evenodd;image-rendering:optimizeQuality;shape-rendering:geometricPrecision;text-rendering:geometricPrecision"
   id="g885"><path
     id="path1210-6"
     style="display:inline;fill:#1a1a1a;fill-rule:nonzero;stroke:none;stroke-width:2.22142px;stroke-linecap:butt;stroke-linejoin:miter;stroke-opacity:1"
     d="m 439.10125,258.36349 c 3.05376,-30.55134 12.10162,-60.86009 29.07862,-86.44311 14.93471,-22.50545 36.52505,-41.34146 62.38085,-49.15291 27.76769,-8.38906 58.01703,-3.52251 85.27409,6.40087 63.01333,22.94103 114.33868,71.98691 148.91981,129.44225 34.58113,57.45534 53.60282,123.043 65.41652,189.05366 7.08953,39.61372 11.71978,80.01995 7.9987,120.09066 -3.72107,40.07071 -16.23177,80.02496 -40.684,111.98739 -10.51046,13.73862 -23.19152,25.9239 -37.89769,35.03147 -14.70617,9.10758 -31.47883,15.07698 -48.73256,16.31313 -16.00098,1.1464 -32.22071,-1.79941 -47,-8.03786 -14.77929,-6.23846 -28.12076,-15.72807 -39.23483,-27.29626 -22.22816,-23.13638 -35.18209,-54.17264 -39.92012,-85.90486 -5.58167,-37.38238 -0.34671,-75.47537 5.98385,-112.73824 7.63847,-44.96148 16.94512,-89.88864 33.24589,-132.48167 30.1353,-78.74193 83.46988,-147.13797 146.07663,-203.60763 16.17036,-14.58525 33.07223,-28.50724 51.75838,-39.68927 18.68614,-11.18204 39.27379,-19.59339 60.85629,-22.492636 28.93986,-3.887585 59.73274,2.812156 82.69362,20.851756 14.30677,11.24035 25.19553,26.42885 33.0196,42.85484 7.8241,16.426 12.704,34.10882 16.3511,51.93374 11.3411,55.4287 11.0271,112.52108 9.5125,169.07783 -1.8882,70.50545 -5.5727,140.98432 -12.3517,211.18851 -4.6512,48.16863 -10.7902,96.36456 -23.09508,143.16669 -19.6556,74.76074 -56.3858,146.93805 -115.07654,197.24618 -44.96319,38.54125 -100.95547,62.68599 -158.62073,76.17058 -57.66526,13.4846 -117.23257,16.7637 -176.45173,17.2199 -27.46693,0.2116 -55.35244,-0.2316 -81.70402,-7.9822 -13.17579,-3.8752 -25.87974,-9.5883 -37.05178,-17.576 -11.17205,-7.98782 -20.78724,-18.2987 -27.25379,-30.41493 -7.79904,-14.61288 -10.82817,-31.63856 -9.07974,-48.10988 1.74843,-16.47132 8.20095,-32.34758 18.00767,-45.69635 19.21713,-26.1581 50.41238,-41.68448 82.3554,-47.44543 31.94301,-5.76094 64.82677,-2.64208 96.85679,2.61363 54.15438,8.88604 107.20091,23.81357 158.90274,42.21409 38.02023,13.53128 75.36819,28.95132 111.86011,46.18424 l -105.15431,57.89339 c -38.95841,-34.4323 -83.8902,-62.08775 -132.18122,-81.35736 -31.44034,-12.54567 -65.0077,-21.63458 -98.79772,-19.60401 -10.26963,0.61714 -20.67247,2.3225 -29.82513,7.02091 -4.57633,2.3492 -8.79743,5.44064 -12.22063,9.28034 -3.4232,3.83969 -6.03386,8.44043 -7.31729,13.42183 -1.64923,6.40118 -1.05402,13.28775 1.23187,19.49016 2.28588,6.2024 6.20946,11.73479 10.98572,16.30452 9.55252,9.13945 22.17797,14.3204 34.77973,18.31738 63.00679,19.98426 133.01451,14.60466 193.83913,-11.27183 60.82462,-25.87649 112.44576,-71.52215 148.92332,-126.64578 41.18309,-62.23446 63.23903,-135.46978 74.62767,-209.22257 9.34293,-60.5048 11.85029,-121.83937 13.65763,-183.03458 0.88767,-30.05568 1.54233,-60.67583 -6.80205,-89.5636 -7.48625,-25.91696 -22.38747,-49.86729 -43.30124,-66.90686 -14.18345,-11.55601 -31.33317,-19.94892 -49.53976,-21.74662 -17.68883,-1.74658 -35.624,2.8002 -51.48807,10.81747 -15.86407,8.01728 -29.81779,19.38357 -42.60559,31.72932 -37.4461,36.15165 -65.79602,81.42624 -83.32076,130.4368 -11.20953,31.34914 -18.07057,64.27745 -19.94386,97.51769 -1.17657,20.87742 -0.25808,42.47322 8.229,61.58396 4.24354,9.55537 10.38103,18.35036 18.37343,25.09084 7.99241,6.74049 17.88496,11.3596 28.28267,12.45523 9.77394,1.0299 19.77416,-1.07272 28.58169,-5.43368 8.80754,-4.36096 16.4422,-10.92247 22.55652,-18.617 12.22864,-15.38906 18.23223,-34.8446 21.514,-54.22481 6.76791,-39.96734 2.91095,-81.44707 -9.17604,-120.13942 -12.41562,-39.74435 -33.64158,-76.94476 -62.96796,-106.50358 -13.90499,-14.01521 -29.7966,-26.4143 -48.02616,-33.9944 -18.22957,-7.58009 -38.99591,-10.06332 -57.90549,-4.38856 -20.62334,6.18905 -37.63598,21.66248 -48.82314,40.06014 -11.18716,18.39766 -17.01684,39.58932 -20.44172,60.84718 -7.99244,49.6082 -3.52891,100.28152 1.09345,150.31638 6.69274,72.44568 13.98279,146.11562 41.84606,213.32281 8.52028,20.55122 18.91085,40.32661 31.00135,59.00194 l -174.23602,2.80445 c 13.69378,-32.23211 24.2762,-65.78522 31.55236,-100.0414 17.48298,-82.30988 15.59037,-168.67033 -5.48177,-250.13527 -19.0362,-9.41267 -39.50215,-15.9272 -60.4767,-19.25038 -38.70853,-6.13293 -78.87259,-1.26139 -115.65988,12.25371 -42.01809,15.43681 -79.54931,41.90466 -110.55286,74.1939 -40.7609,42.45123 -71.243069,97.39646 -73.6866,156.19771 -0.336507,8.09773 -0.136818,16.28207 1.662257,24.18458 1.799074,7.90252 5.278109,15.55144 10.857383,21.43006 4.9824,5.24972 11.47767,8.91761 18.34436,11.20506 6.8667,2.28744 14.11443,3.24676 21.34336,3.60246 35.84569,1.76381 71.66391,-11.43492 99.87728,-33.61667 36.17535,-28.44157 59.78468,-70.40608 73.85711,-114.2187 26.1288,-81.34854 21.1506,-172.45747 -14.64189,-250.04096 -10.83914,-23.49484 -24.97882,-46.39809 -46.13598,-61.29336 -10.57858,-7.44763 -22.81078,-12.71849 -35.64091,-14.38022 -12.83013,-1.66174 -26.25407,0.40313 -37.58356,6.64942 -13.75694,7.58462 -23.75845,20.92072 -29.48025,35.55085 -5.72179,14.63014 -7.46942,30.5364 -7.57362,46.24528 -0.32863,49.54311 15.29359,98.33692 39.47042,141.58167 16.86036,30.15789 38.13233,58.21397 65.03005,79.89997 11.60172,9.35376 24.19399,17.47814 37.4981,24.1933 L 163.42991,716.14805 c 0.74097,-22.87993 0.14819,-45.80298 -1.77431,-68.61404 C 157.33515,596.27061 146.28415,545.63104 129.6609,496.94563 115.61819,455.81799 97.645146,416.13771 82.898888,375.25705 68.15263,334.37639 56.56894,291.76218 56.04202,248.30642 55.763033,225.298 58.732628,201.81683 68.66145,181.05909 c 10.686921,-22.34267 29.473947,-40.77884 52.1808,-50.66843 21.35803,-9.30213 45.69392,-10.97461 68.50588,-6.25132 21.59306,4.47091 41.7989,14.46364 59.73483,27.29141 17.93594,12.82777 33.709,28.45706 48.336,44.95858 35.71003,40.28645 65.1335,86.42471 84.26681,136.74489 27.30752,71.81818 33.0162,151.44954 17.90532,226.78355 -16.6821,83.1672 -60.53066,163.04517 -130.27216,211.32767 -35.58969,24.63897 -77.00827,40.51502 -119.74049,47.41882 -23.49112,3.79521 -47.92727,4.87007 -70.76946,-1.79856 C 54.837914,809.8675 33.350125,794.08547 20.38422,772.74368 4.1673813,746.05087 2.0251553,712.94814 5.94891,681.96272 12.07943,633.55074 31.916131,587.42678 59.634935,547.26497 87.353738,507.10316 122.79262,472.6856 161.38062,442.81472 c 25.64237,-19.8497 52.81387,-37.82997 81.77715,-52.41318 62.58591,-31.51245 133.32464,-46.65786 203.32654,-43.53294 -7.82795,-28.72218 -10.34395,-58.88293 -7.38306,-88.50511 z"
     sodipodi:nodetypes="aaaaaaacaaaaaaaaaaaaaaaccaaaaaaaaaaaaaaaaaaaaaccacaaaaaaaaaaaascccaaaaaaaacaaaaaaca"
     inkscape:original-d="m 439.10125,258.36349 c 4.57159,-29.81062 10.91025,-61.11573 29.07862,-86.44311 14.96337,-20.85949 36.06632,-41.37397 62.38085,-49.15291 27.08294,-8.00609 61.05248,-7.06993 85.27409,6.40087 117.6677,65.44058 185.69234,197.26846 214.33633,318.49591 18.02515,76.28638 13.29086,165.82562 -32.6853,232.07805 -18.26618,26.32183 -52.22679,54.99263 -86.63025,51.3446 -61.30481,-6.50064 -117.08592,-57.90829 -126.15495,-121.23898 -4.96717,-37.47677 0.35944,-75.45418 5.98385,-112.73824 6.76613,-44.85243 14.09619,-91.17485 33.24589,-132.48167 35.1322,-75.78185 83.63708,-148.12372 146.07663,-203.60763 32.05387,-28.48313 70.08905,-56.67635 112.61467,-62.181906 28.19206,-3.649867 60.87962,4.258636 82.69362,20.851756 29.6906,22.5846 39.9303,60.43704 49.3707,94.78858 14.9584,54.43041 9.5751,112.62946 9.5125,169.07783 -0.078,70.51643 -4.6681,141.0919 -12.3517,211.18851 -5.2671,48.05136 -6.7907,97.66016 -23.09508,143.16669 -25.67463,71.65968 -54.81351,150.74173 -115.07654,197.24618 -91.79386,70.83648 -219.25325,98.85268 -335.07246,93.39048 -52.06568,-2.4556 -118.54709,-11.671 -146.00959,-55.97313 -16.54911,-26.69677 -11.55281,-69.99173 8.92793,-93.80623 40.15172,-46.68743 117.63559,-45.27924 179.21219,-44.8318 54.80337,0.39822 106.97759,24.68279 158.90274,42.21409 38.22015,12.90412 111.86011,46.18424 111.86011,46.18424 L 746.34179,980.22906 C 700.5166,930.79777 662.32521,917.76439 614.16057,898.8717 582.9045,886.61143 548.43601,873.48648 515.36285,879.26769 c -18.9201,3.30724 -46.36312,10.75183 -49.36305,29.72308 -3.73147,23.59743 23.77199,48.51328 46.99732,54.11206 119.72671,28.86173 257.43347,-49.11192 342.76245,-137.91761 51.30184,-53.39212 59.29728,-136.78241 74.62767,-209.22257 12.6671,-59.85546 13.69805,-121.85345 13.65763,-183.03458 -0.0198,-29.9405 2.761,-61.19139 -6.80205,-89.5636 -8.48506,-25.17397 -23.06907,-49.69105 -43.30124,-66.90686 -13.73481,-11.68712 -31.5058,-21.84594 -49.53976,-21.74662 -34.42145,0.18958 -68.06814,20.01805 -94.09366,42.54679 -39.00773,33.76665 -63.94035,82.62269 -83.32076,130.4368 -12.46338,30.74887 -24.96634,64.7213 -19.94386,97.51769 5.71748,37.33472 17.39243,94.56159 54.8851,99.13003 35.33732,4.30582 60.91608,-44.66702 72.65221,-78.27549 13.24094,-37.91772 2.88802,-81.83102 -9.17604,-120.13942 -12.38808,-39.33728 -31.21919,-80.18054 -62.96796,-106.50358 -28.91214,-23.97118 -70.17413,-49.86901 -105.93165,-38.38296 -38.84272,12.47708 -57.40741,62.89226 -69.26486,100.90732 -15.05442,48.26456 -3.93325,100.46237 1.09345,150.31638 7.26946,72.09724 17.76651,144.97786 41.84606,213.32281 7.38272,20.95437 7.38391,39.99115 31.00135,59.00194 l -174.23602,2.80445 c 23.3813,-31.87411 26.61061,-65.42598 31.55236,-100.0414 11.78658,-82.56135 -5.48177,-250.13527 -5.48177,-250.13527 0,0 -40.05389,-18.93112 -60.4767,-19.25038 -38.76433,-0.60598 -79.21893,-0.97873 -115.65988,12.25371 -41.71543,15.1477 -81.61549,40.54485 -110.55286,74.1939 -37.53647,43.64829 -68.71523,98.84402 -73.6866,156.19771 -1.36158,15.70828 1.87893,33.97937 12.51964,45.61464 9.5291,10.41977 25.56954,14.57854 39.68772,14.80752 35.12301,0.56966 72.1425,-12.05902 99.87728,-33.61667 35.79726,-27.82444 62.29967,-70.3773 73.85711,-114.2187 21.28243,-80.73165 29.17457,-178.97297 -14.64189,-250.04096 -24.1206,-39.12235 -75.59886,-83.06995 -119.36045,-69.02416 -28.50048,9.14756 -34.75926,51.9517 -37.05387,81.79613 -3.75581,48.84935 16.9542,98.06863 39.47042,141.58167 15.78166,30.49839 46.47727,68.09313 65.03005,79.89997 15.69129,9.98592 19.59306,23.94459 37.4981,24.1933 L 163.42991,716.14805 C 168.42056,694.9286 162.66622,677.96414 161.6556,647.53401 160.49263,626.71912 142.28757,546.68453 129.6609,496.94563 108.39286,413.16667 60.46405,334.62959 56.04202,248.30642 c -1.1668,-22.77718 1.82952,-47.15406 12.61943,-67.24733 11.46992,-21.35961 30.15203,-40.54297 52.1808,-50.66843 20.83463,-9.57658 46.28374,-11.90545 68.50588,-6.25132 41.99451,10.68495 78.00264,41.04725 108.07083,72.24999 37.15202,38.55387 67.65184,85.8468 84.26681,136.74489 23.53154,72.0862 35.69574,153.07023 17.90532,226.78355 -19.41432,80.44182 -74.22268,164.44285 -130.27216,211.32767 -33.55572,27.69657 -77.47306,39.90948 -119.74049,47.41882 C 126.34483,822.792 101.086,824.64861 78.80898,816.8657 55.77009,808.81662 32.94893,793.66512 20.38422,772.74368 4.60887,746.47624 -0.41803,711.93441 5.94891,681.96272 c 19.7558,-92.9983 87.99106,-172.13506 155.43171,-239.148 22.96697,-22.82131 51.83651,-40.09036 81.77715,-52.41318 64.09514,-26.37996 138.30358,-57.03383 203.32654,-43.53294 -6.9311,-27.75536 -11.99693,-58.41875 -7.38306,-88.50511 z"
     inkscape:path-effect="#path-effect1305" /></g></svg>
