<?xml version="1.0" encoding="UTF-8"?>
<!DOCTYPE svg PUBLIC "-//W3C//DTD SVG 1.1//EN" "http://www.w3.org/Graphics/SVG/1.1/DTD/svg11.dtd">
<!-- Creator: CorelDRAW X8 -->
<svg xmlns="http://www.w3.org/2000/svg" xml:space="preserve" width="1769px" height="1486px" version="1.1" style="shape-rendering:geometricPrecision; text-rendering:geometricPrecision; image-rendering:optimizeQuality; fill-rule:evenodd; clip-rule:evenodd"
viewBox="0 0 1769 1486"
 xmlns:xlink="http://www.w3.org/1999/xlink">
 <defs>
  <style type="text/css">
   <![CDATA[
    .fil0 {fill:#E31E24;fill-rule:nonzero}
   ]]>
  </style>
 </defs>
 <g id="Layer_x0020_1">
  <metadata id="CorelCorpID_0Corel-Layer"/>
  <path class="fil0" d="M1620 1486c46,0 101,-28 101,-79 0,-51 -55,-79 -101,-79l-1304 0c-54,0 -111,-1 -111,-71 0,-63 59,-67 111,-67l1129 0c146,0 324,-67 324,-236 0,-77 -42,-149 -113,-181 47,-28 76,-77 76,-131 0,-48 -15,-94 -49,-128 -56,-57 -144,-74 -221,-74l-148 0c-5,-88 -22,-178 -66,-255 -77,-136 -212,-185 -364,-185 -153,0 -289,49 -366,186 -43,77 -60,167 -65,254l-64 0c-111,0 -228,29 -307,108 -53,52 -82,116 -82,191 0,71 29,139 81,189 68,66 166,96 260,96 92,0 184,-29 243,-102 81,77 190,102 300,102 150,0 284,-48 361,-181 51,-88 67,-192 71,-291l146 0c46,0 76,45 76,87 0,24 -8,54 -24,72 -9,10 -20,15 -32,16 -16,3 -34,0 -51,0 -32,-1 -79,16 -78,57 1,41 48,55 81,55 18,0 32,-3 47,-4 10,0 20,1 31,4 45,13 64,62 64,105 0,77 -54,135 -132,135l-1128 0c-139,0 -316,28 -316,204 0,170 175,203 316,203l1304 0zm-508 -1046l-457 0c10,-154 66,-328 229,-328 163,0 218,174 228,328zm-772 472c-30,0 -62,-19 -83,-39 -37,-36 -55,-85 -55,-135 0,-51 21,-100 57,-135 36,-35 80,-51 130,-51l63 0c1,41 5,79 12,121 3,17 5,34 5,52 0,53 -15,108 -52,147 -19,20 -48,40 -77,40zm544 0c-173,0 -224,-194 -230,-360l459 0c-6,166 -56,360 -229,360z"/>
 </g>
</svg>
