<?xml version="1.0" encoding="UTF-8" standalone="no"?>
<svg
   xmlns:dc="http://purl.org/dc/elements/1.1/"
   xmlns:cc="http://creativecommons.org/ns#"
   xmlns:rdf="http://www.w3.org/1999/02/22-rdf-syntax-ns#"
   xmlns:svg="http://www.w3.org/2000/svg"
   xmlns="http://www.w3.org/2000/svg"
   xmlns:sodipodi="http://sodipodi.sourceforge.net/DTD/sodipodi-0.dtd"
   xmlns:inkscape="http://www.inkscape.org/namespaces/inkscape"
   xml:space="preserve"
   width="1000"
   height="1000"
   version="1.1"
   style="clip-rule:evenodd;fill-rule:evenodd;image-rendering:optimizeQuality;shape-rendering:geometricPrecision;text-rendering:geometricPrecision"
   viewBox="0 0 1000 1000"
   id="svg10"
   sodipodi:docname="ഖ.svg"
   inkscape:version="1.0.1 (3bc2e813f5, 2020-09-07)"><metadata
   id="metadata14"><rdf:RDF><cc:Work
       rdf:about=""><dc:format>image/svg+xml</dc:format><dc:type
         rdf:resource="http://purl.org/dc/dcmitype/StillImage" /><dc:title /></cc:Work></rdf:RDF></metadata><sodipodi:namedview
   pagecolor="#ffffff"
   bordercolor="#666666"
   borderopacity="1"
   objecttolerance="10"
   gridtolerance="10"
   guidetolerance="10"
   inkscape:pageopacity="0"
   inkscape:pageshadow="2"
   inkscape:window-width="1920"
   inkscape:window-height="1015"
   id="namedview12"
   showgrid="false"
   inkscape:zoom="0.84890884"
   inkscape:cx="327.86116"
   inkscape:cy="503.78033"
   inkscape:window-x="1920"
   inkscape:window-y="0"
   inkscape:window-maximized="1"
   inkscape:current-layer="svg10"
   showguides="true"
   inkscape:guide-bbox="true"
   inkscape:document-rotation="0"><sodipodi:guide
     position="0,1000"
     orientation="0,1"
     id="guide16"
     inkscape:label=""
     inkscape:locked="true"
     inkscape:color="rgb(0,0,255)" /><sodipodi:guide
     position="1763.3122,2036.1693"
     orientation="1000,0"
     id="guide18" /><sodipodi:guide
     position="0,200"
     orientation="0,1"
     id="guide20"
     inkscape:label="base"
     inkscape:locked="true"
     inkscape:color="rgb(0,0,255)" /><inkscape:grid
     type="xygrid"
     id="grid24"
     originx="-473.37552"
     originy="-489.69235" /><sodipodi:guide
     position="0,0"
     orientation="0,1"
     id="guide34"
     inkscape:label="bottom"
     inkscape:locked="true"
     inkscape:color="rgb(0,0,255)" /><sodipodi:guide
     position="225.05109,1693.3186"
     orientation="0,1"
     id="guide44"
     inkscape:label=""
     inkscape:locked="false"
     inkscape:color="rgb(0,0,255)" /><sodipodi:guide
     position="0,900"
     orientation="0,1"
     id="guide46"
     inkscape:label=""
     inkscape:locked="true"
     inkscape:color="rgb(0,0,255)" /><sodipodi:guide
     position="658.45096,562.87776"
     orientation="-1,0"
     id="guide841"
     inkscape:label="width"
     inkscape:locked="false"
     inkscape:color="rgb(0,0,255)" /></sodipodi:namedview>
 <defs
   id="defs4"><inkscape:path-effect
   effect="spiro"
   id="path-effect854"
   is_visible="true"
   lpeversion="1" />
  <style
   type="text/css"
   id="style2">
   <![CDATA[
    .fil0 {fill:#EF7F1A;fill-rule:nonzero}
   ]]>
  </style>
 <inkscape:path-effect
   effect="spiro"
   id="path-effect1214"
   is_visible="true"
   lpeversion="1" /><inkscape:path-effect
   effect="spiro"
   id="path-effect1195"
   is_visible="true"
   lpeversion="1" /><inkscape:path-effect
   effect="spiro"
   id="path-effect992"
   is_visible="true"
   lpeversion="1" /><inkscape:path-effect
   effect="spiro"
   id="path-effect287"
   is_visible="true"
   lpeversion="1" /></defs>
 
<path
   style="display:inline;fill:#1a1a1a;fill-rule:nonzero;stroke:none;stroke-width:1.96742;stroke-linecap:butt;stroke-linejoin:miter;stroke-miterlimit:4;stroke-dasharray:none;stroke-opacity:1"
   d="M 457.07715,392.36698 C 456.13923,345.03419 446.99569,297.27991 425.25848,255.2232 403.52126,213.1665 368.4958,177.11932 324.74439,159.03378 288.40784,144.01332 247.16468,141.90248 209.02324,151.4518 170.88181,161.00113 135.90791,181.93843 108.19022,209.8255 78.084954,240.11474 56.581898,278.15285 41.550404,318.12558 15.944075,386.2196 8.5291837,460.06282 10.691546,532.78011 c 1.257752,42.29648 5.673409,84.47048 12.364433,126.25331 5.546332,34.63467 13.19318,70.26739 34.068728,98.45487 10.437774,14.09374 24.15641,25.99522 40.291436,32.86846 16.135027,6.87325 34.750067,8.46449 51.385897,2.91205 18.9918,-6.33878 34.11935,-21.39966 44.30746,-38.63541 10.18811,-17.23575 15.97823,-36.66547 21.24386,-55.98235 C 229.03575,644.7889 240.3394,587.31164 224.89652,533.6626 214.86811,498.82359 193.54927,467.33149 164.9288,445.07853 136.30832,422.82557 100.53334,409.92615 64.297395,408.79375 l -9.904341,113.65893 c 15.928005,-8.61388 34.625902,-12.00628 52.564766,-9.53694 17.93885,2.46934 35.02476,10.78749 48.03301,23.38454 11.84599,11.47152 20.25894,26.37236 24.34086,42.34926 4.08191,15.9769 3.86567,32.98175 -0.24212,48.95201 -3.46099,13.45563 -9.88305,26.49317 -20.27644,35.71325 -5.1967,4.61005 -11.34015,8.1996 -18.00586,10.15571 -6.66572,1.95612 -13.85502,2.247 -20.58513,0.52545 -10.27066,-2.62721 -18.96645,-9.7924 -25.12468,-18.42171 -6.158226,-8.62931 -10.0131,-18.68004 -13.143492,-28.80868 -13.263465,-42.91503 -14.480039,-88.7869 -9.94104,-133.47489 4.169679,-41.05191 13.415106,-82.40476 34.612422,-117.80701 10.59866,-17.70113 24.14583,-33.74118 40.48304,-46.34106 16.33721,-12.59988 35.50854,-21.69719 55.80989,-25.3737 33.86436,-6.13272 69.76933,3.37663 97.72837,23.44394 27.95904,20.0673 48.09656,50.10504 58.58901,82.88176 18.46989,57.69699 7.23393,122.22062 -21.461,175.57492 -6.5581,12.19389 -14.03932,23.98198 -23.3767,34.20514 -9.33738,10.22315 -20.61601,18.86767 -33.49015,23.96239 -15.02622,5.94637 -32.00811,6.82238 -47.56643,2.4537 4.22954,19.13137 7.30856,38.51702 9.21488,58.01738 3.1084,31.79677 3.0926,63.89817 -0.0471,95.69186 31.99339,-16.40414 67.99967,-24.91082 103.95171,-24.55918 36.25004,0.35456 71.75691,9.50509 107.61496,14.83344 35.85806,5.32836 73.8105,6.57529 106.99355,-8.02186 28.56442,-12.56543 51.46155,-36.2965 65.95912,-63.93049 14.49756,-27.63398 20.98539,-58.98835 22.02228,-90.17715 2.8019,-84.2789 -32.6347,-164.81969 -44.65039,-248.2847 -7.00576,-48.66437 -5.97472,-98.44876 2.70036,-146.84343 C 615.393,186.75762 630.66042,141.75532 652.22779,100 L 493.63481,99.802168 c -6.03056,24.135122 -8.56216,49.141592 -7.49115,73.995662 2.50199,58.06166 24.28514,113.24619 41.02572,168.8984 18.30014,60.83681 30.83747,124.01056 29.19477,187.51894 -0.6896,26.66061 -3.95459,53.56501 -13.52122,78.45965 -9.56663,24.89465 -25.87072,47.77945 -48.5386,61.83045 -24.78317,15.36219 -55.411,19.13645 -84.37362,15.76466 -22.32617,-2.59918 -44.17693,-9.22936 -64.18292,-19.47504 16.84551,-15.3715 32.0768,-32.51092 45.36277,-51.04567 46.01915,-64.19958 67.5315,-144.4082 65.96659,-223.38224 z"
   id="use1029"
   sodipodi:nodetypes="aaaaaaaaaccaaaaaaaaacscaaaaaccsasaacaa"
   inkscape:path-effect="#path-effect854"
   inkscape:original-d="M 457.07715,392.36698 C 446.87204,303.53565 406.66876,194.86041 324.74439,159.03378 256.8125,129.32625 168.32741,166.45734 108.19022,209.8255 73.810689,234.61842 55.973093,278.26799 41.550404,318.12558 16.953729,386.09932 12.323653,460.51143 10.691546,532.78011 9.7368134,575.0551 5.6133889,620.51274 23.055979,659.03342 48.346295,714.88521 87.656424,797.76736 148.80204,793.2688 c 38.2654,-2.81523 52.94238,-58.37992 65.55132,-94.61776 C 232.46332,646.6034 247.52085,583.91264 224.89652,533.6626 197.05742,471.83024 63.335735,398.85976 64.297395,408.79375 l -9.904341,113.65893 c -7.691401,-17.23032 75.256666,-8.59275 100.597776,13.8476 23.56473,20.86732 34.07892,61.44935 24.09874,91.30127 -7.92173,23.69489 -34.03769,49.16675 -58.86743,46.39441 C 100.08465,671.74753 89.425527,645.60036 81.953968,626.76557 65.502856,585.29454 60.325189,536.34741 72.012928,493.29068 92.126614,419.19339 127.44282,317.85519 202.91828,303.76891 c 61.94735,-11.56148 130.28079,48.93896 156.31738,106.3257 24.3606,53.69272 4.07117,122.42931 -21.461,175.57492 -11.74208,24.44134 -32.15368,47.00891 -56.86685,58.16753 -14.4699,6.53353 -36.13259,6.15052 -47.56643,2.4537 10.40833,23.7387 9.05882,29.76751 9.21488,58.01738 0.1445,26.12728 2.25796,71.30805 -0.0471,95.69186 0,0 68.52559,-20.99983 103.95171,-24.55918 71.21366,-7.15501 152.14974,41.76128 214.60851,6.81158 51.61945,-28.88441 77.95012,-95.81313 87.9814,-154.10764 14.26041,-82.8712 -37.94944,-164.46291 -44.65039,-248.2847 -3.90124,-48.8004 -5.71387,-98.61585 2.70036,-146.84343 C 615.14802,186.89234 652.22779,100 652.22779,100 L 493.63481,99.802168 c 0,0 -13.2093,55.403752 -7.49115,73.995662 5.71814,18.59191 29.7218,112.07531 41.02572,168.8984 12.34245,62.04359 28.37536,101.6675 29.19477,187.51894 0.30882,32.33205 -21.96385,108.55585 -62.05982,140.2901 -22.43481,17.75607 -55.80555,17.3359 -84.37362,15.76466 -22.32378,-1.22783 -26.40122,-5.67556 -64.18292,-19.47504 8.87944,-26.52876 34.31329,-31.14418 45.36277,-51.04567 37.68715,-67.87924 74.8277,-146.24993 65.96659,-223.38224 z" /></svg>
