<?xml version="1.0" encoding="UTF-8"?>
<!DOCTYPE svg PUBLIC "-//W3C//DTD SVG 1.1//EN" "http://www.w3.org/Graphics/SVG/1.1/DTD/svg11.dtd">
<!-- Creator: CorelDRAW X8 -->
<svg xmlns="http://www.w3.org/2000/svg" xml:space="preserve" width="1523px" height="1024px" version="1.1" style="shape-rendering:geometricPrecision; text-rendering:geometricPrecision; image-rendering:optimizeQuality; fill-rule:evenodd; clip-rule:evenodd"
viewBox="0 0 1523 1024"
 xmlns:xlink="http://www.w3.org/1999/xlink">
 <defs>
  <style type="text/css">
   <![CDATA[
    .fil0 {fill:#EF7F1A;fill-rule:nonzero}
   ]]>
  </style>
 </defs>
 <g id="Layer_x0020_1">
  <metadata id="CorelCorpID_0Corel-Layer"/>
  <path class="fil0" d="M1110 1024c26,0 51,-5 72,-14 212,-88 341,-283 341,-507 0,-112 -34,-222 -100,-315 -90,-128 -211,-188 -366,-188 -333,0 -399,229 -399,511 0,136 3,402 -187,402 -78,0 -143,-56 -185,-115 -56,-80 -84,-193 -84,-290 0,-159 78,-342 231,-409 23,-10 38,-27 38,-44 0,-12 -7,-24 -23,-34 -21,-14 -49,-21 -77,-21 -24,0 -49,5 -69,14 -194,87 -302,285 -302,494 0,113 32,237 98,330 88,125 219,186 373,186 342,0 389,-225 389,-513 0,-137 5,-400 197,-400 77,0 137,58 178,117 58,81 86,177 86,275 0,175 -95,354 -266,421 -24,10 -42,26 -42,45 0,11 6,22 19,32 22,17 50,23 78,23z"/>
 </g>
</svg>
