<?xml version="1.0" encoding="UTF-8" standalone="no"?>
<svg
   xmlns:dc="http://purl.org/dc/elements/1.1/"
   xmlns:cc="http://creativecommons.org/ns#"
   xmlns:rdf="http://www.w3.org/1999/02/22-rdf-syntax-ns#"
   xmlns:svg="http://www.w3.org/2000/svg"
   xmlns="http://www.w3.org/2000/svg"
   xmlns:sodipodi="http://sodipodi.sourceforge.net/DTD/sodipodi-0.dtd"
   xmlns:inkscape="http://www.inkscape.org/namespaces/inkscape"
   xml:space="preserve"
   width="1000"
   height="1000"
   version="1.1"
   style="clip-rule:evenodd;fill-rule:evenodd;image-rendering:optimizeQuality;shape-rendering:geometricPrecision;text-rendering:geometricPrecision"
   viewBox="0 0 1000 1000"
   id="svg10"
   sodipodi:docname="ഗ.svg"
   inkscape:version="1.0.1 (3bc2e813f5, 2020-09-07)"><metadata
   id="metadata14"><rdf:RDF><cc:Work
       rdf:about=""><dc:format>image/svg+xml</dc:format><dc:type
         rdf:resource="http://purl.org/dc/dcmitype/StillImage" /><dc:title /></cc:Work></rdf:RDF></metadata><sodipodi:namedview
   pagecolor="#ffffff"
   bordercolor="#666666"
   borderopacity="1"
   objecttolerance="10"
   gridtolerance="10"
   guidetolerance="10"
   inkscape:pageopacity="0"
   inkscape:pageshadow="2"
   inkscape:window-width="1920"
   inkscape:window-height="1015"
   id="namedview12"
   showgrid="false"
   inkscape:zoom="0.678"
   inkscape:cx="224.49078"
   inkscape:cy="583.73635"
   inkscape:window-x="1920"
   inkscape:window-y="0"
   inkscape:window-maximized="1"
   inkscape:current-layer="svg10"
   showguides="true"
   inkscape:guide-bbox="true"
   inkscape:document-rotation="0"
   inkscape:snap-to-guides="true"><sodipodi:guide
     position="0,1000"
     orientation="0,1"
     id="guide16"
     inkscape:label=""
     inkscape:locked="true"
     inkscape:color="rgb(0,0,255)" /><sodipodi:guide
     position="1763.3122,2036.1693"
     orientation="1000,0"
     id="guide18" /><sodipodi:guide
     position="0,200"
     orientation="0,1"
     id="guide20"
     inkscape:label="base"
     inkscape:locked="true"
     inkscape:color="rgb(0,0,255)" /><inkscape:grid
     type="xygrid"
     id="grid24"
     originx="-473.37552"
     originy="-489.69235" /><sodipodi:guide
     position="0,0"
     orientation="0,1"
     id="guide34"
     inkscape:label="bottom"
     inkscape:locked="true"
     inkscape:color="rgb(0,0,255)" /><sodipodi:guide
     position="225.05109,1693.3186"
     orientation="0,1"
     id="guide44"
     inkscape:label=""
     inkscape:locked="false"
     inkscape:color="rgb(0,0,255)" /><sodipodi:guide
     position="0,900"
     orientation="0,1"
     id="guide46"
     inkscape:label=""
     inkscape:locked="true"
     inkscape:color="rgb(0,0,255)" /><sodipodi:guide
     position="609.49491,568.97058"
     orientation="-1,0"
     id="guide841"
     inkscape:label=""
     inkscape:locked="false"
     inkscape:color="rgb(0,0,255)" /><sodipodi:guide
     position="0,1000"
     orientation="0,1000"
     id="guide860" /><sodipodi:guide
     position="1000,1000"
     orientation="1000,0"
     id="guide862" /><sodipodi:guide
     position="1000,0"
     orientation="0,-1000"
     id="guide864" /><sodipodi:guide
     position="0,0"
     orientation="-1000,0"
     id="guide866" /></sodipodi:namedview>
 <defs
   id="defs4"><inkscape:path-effect
   effect="spiro"
   id="path-effect859"
   is_visible="true"
   lpeversion="1" /><inkscape:path-effect
   effect="spiro"
   id="path-effect862"
   is_visible="true"
   lpeversion="1" /><inkscape:path-effect
   effect="spiro"
   id="path-effect1521"
   is_visible="true"
   lpeversion="1" /><inkscape:path-effect
   effect="spiro"
   id="path-effect858"
   is_visible="true"
   lpeversion="1" /><inkscape:path-effect
   effect="spiro"
   id="path-effect854"
   is_visible="true"
   lpeversion="1" />
  <style
   type="text/css"
   id="style2">
   <![CDATA[
    .fil0 {fill:#EF7F1A;fill-rule:nonzero}
   ]]>
  </style>
 <inkscape:path-effect
   effect="spiro"
   id="path-effect1214"
   is_visible="true"
   lpeversion="1" /><inkscape:path-effect
   effect="spiro"
   id="path-effect1195"
   is_visible="true"
   lpeversion="1" /><inkscape:path-effect
   effect="spiro"
   id="path-effect992"
   is_visible="true"
   lpeversion="1" /><inkscape:path-effect
   effect="spiro"
   id="path-effect287"
   is_visible="true"
   lpeversion="1" /><inkscape:path-effect
   effect="spiro"
   id="path-effect1032"
   is_visible="true"
   lpeversion="1" /><inkscape:path-effect
   effect="spiro"
   id="path-effect1218"
   is_visible="true"
   lpeversion="1" /><inkscape:path-effect
   effect="spiro"
   id="path-effect309"
   is_visible="true"
   lpeversion="1" /><inkscape:path-effect
   effect="spiro"
   id="path-effect1176"
   is_visible="true"
   lpeversion="1" /><inkscape:path-effect
   effect="spiro"
   id="path-effect1026"
   is_visible="true"
   lpeversion="1" /></defs>
 
<path
   style="fill:#000000;stroke:#000000;stroke-width:1.15012px;stroke-linecap:butt;stroke-linejoin:miter;stroke-opacity:1"
   d="M 210.15795,100 20.672384,123.31271 c 2.009491,16.00736 3.390527,32.09361 4.138858,48.20924 4.249283,91.51013 -11.886846,182.55867 -20.5946295,273.75261 -4.49285177,47.05225 -7.0051778,94.57811 -1.451766,141.51701 5.5534119,46.93889 19.5017595,93.52088 45.7605975,132.82195 16.733153,25.04417 38.505998,46.98892 64.573016,62.0793 26.06701,15.09037 56.52978,23.10013 86.55084,20.66194 31.54537,-2.56199 61.71482,-16.63172 85.36697,-37.66146 23.65215,-21.02973 40.92239,-48.76411 51.36628,-78.64051 13.47609,-38.5505 15.78119,-80.28548 12.33661,-120.978 -3.44457,-40.69252 -12.46508,-80.67627 -21.15615,-120.57879 -9.2802,-42.60735 -18.21211,-86.94439 -8.34249,-129.41908 4.93481,-21.23734 14.72656,-41.61889 29.89638,-57.27947 15.16982,-15.66058 35.94864,-26.29998 57.72775,-27.32344 17.74705,-0.83398 35.52579,4.69668 50.45283,14.33186 14.92704,9.63518 27.08138,23.23103 36.21984,38.46723 18.2769,30.4724 24.44322,66.55273 28.48597,101.85527 13.5028,117.91046 6.10289,241.62865 -46.36561,348.08174 -23.02882,46.72306 -54.42069,89.30894 -92.23881,125.13018 l 146.93444,76.59592 c 8.38616,-31.20697 16.13613,-62.58489 23.24348,-94.10771 24.3504,-107.99989 41.15763,-217.8144 47.42643,-328.34775 5.59958,-98.73338 2.46026,-199.77462 -29.774,-293.26573 -11.47248,-33.27439 -26.83571,-65.74028 -49.96061,-92.27407 -23.1249,-26.53378 -54.69582,-46.81205 -89.58811,-51.43056 -35.60235,-4.712497 -72.14715,7.267309 -101.39797,28.10295 -43.61652,31.06846 -71.78214,80.64898 -84.32979,132.70862 -12.54764,52.05964 -10.59817,106.65035 -2.88971,159.64308 5.99307,41.20007 15.42832,82.0962 16.33606,123.71997 0.90773,41.62378 -7.6561,85.16613 -33.78751,117.57773 -7.43325,9.21969 -16.24791,17.4419 -26.52462,23.32791 -10.27671,5.88601 -22.074,9.36419 -33.91034,8.96798 -10.33923,-0.34609 -20.49141,-3.64069 -29.37875,-8.93548 -8.88734,-5.29479 -16.53333,-12.54843 -22.77477,-20.79852 C 100.54023,623.32445 93.782432,603.20824 89.06456,583.06327 76.742118,530.44733 77.08285,475.33394 85.971121,422.0303 94.486054,370.9656 110.68966,321.47229 129.42254,273.21064 152.48937,213.7834 179.47915,155.87921 210.15795,100 Z"
   id="path856"
   inkscape:path-effect="#path-effect859"
   inkscape:original-d="M 210.15795,100 20.672384,123.31271 c 0,0 4.053763,32.07918 4.138858,48.20924 0.482783,91.51365 -24.48325505,182.32231 -20.5946295,273.75261 3.9372732,92.57411 -8.7753286,198.84178 44.3088315,274.33896 33.206043,47.22619 94.144516,88.6151 151.123856,82.74124 59.23153,-6.10604 112.59413,-61.22335 136.73325,-116.30197 32.28023,-73.65432 -21.57236,-162.02324 -8.81954,-241.55679 12.05882,-75.20529 4.77116,-203.12234 79.28164,-214.02199 63.12756,-9.23452 99.01453,92.20656 115.15864,154.65436 29.28132,113.26449 -2.65409,239.6839 -46.36561,348.08174 -19.42863,48.18 -92.23881,125.13018 -92.23881,125.13018 l 146.93444,76.59592 c 0,0 17.05123,-62.38646 23.24348,-94.10771 21.18302,-108.51513 45.08974,-217.76066 47.42643,-328.34775 2.07595,-98.24741 11.54589,-204.33666 -29.774,-293.26573 C 542.98978,158.43783 495.75573,92.996437 431.6805,75.51039 c -33.83531,-9.233615 -76.29928,3.352483 -101.39797,28.10295 -72.04128,71.04178 -68.90076,192.25874 -87.2195,292.3517 -14.51307,79.29902 26.15504,173.79525 -17.45145,241.2977 -12.46574,19.29685 -38.01666,36.39395 -60.43496,32.29589 -37.54129,-6.86254 -62.1926,-50.55007 -76.11206,-86.49536 C 69.707793,533.07685 78.887087,475.23729 85.971121,422.0303 92.796403,370.76677 111.22403,321.5477 129.42254,273.21064 151.88203,213.55601 210.15795,100 210.15795,100 Z"
   sodipodi:nodetypes="ccaaaaaaaaaccaaaaaaaaaaac" /></svg>
