<?xml version="1.0" encoding="UTF-8"?>
<!DOCTYPE svg PUBLIC "-//W3C//DTD SVG 1.1//EN" "http://www.w3.org/Graphics/SVG/1.1/DTD/svg11.dtd">
<!-- Creator: CorelDRAW X8 -->
<svg xmlns="http://www.w3.org/2000/svg" xml:space="preserve" width="1556px" height="1486px" version="1.1" style="shape-rendering:geometricPrecision; text-rendering:geometricPrecision; image-rendering:optimizeQuality; fill-rule:evenodd; clip-rule:evenodd"
viewBox="0 0 1556 1486"
 xmlns:xlink="http://www.w3.org/1999/xlink">
 <defs>
  <style type="text/css">
   <![CDATA[
    .fil0 {fill:#EF7F1A;fill-rule:nonzero}
   ]]>
  </style>
 </defs>
 <g id="Layer_x0020_1">
  <metadata id="CorelCorpID_0Corel-Layer"/>
  <path class="fil0" d="M1147 1381c145,-81 256,-208 331,-379 51,-117 78,-245 78,-370 0,-107 -18,-232 -60,-331 -79,-187 -239,-301 -439,-301 -333,0 -399,229 -399,511 0,136 3,402 -187,402 -78,0 -144,-56 -185,-115 -57,-80 -84,-193 -84,-290 0,-159 78,-343 231,-409 23,-10 38,-27 38,-44 0,-12 -7,-24 -23,-34 -21,-14 -49,-21 -77,-21 -24,0 -49,5 -69,14 -194,87 -302,285 -302,494 0,113 32,237 98,330 88,125 219,186 373,186 342,0 389,-226 389,-513 0,-137 5,-400 197,-400 115,0 202,121 242,216 43,101 55,196 55,305 0,105 -17,218 -53,323 -43,126 -115,242 -218,320 -24,-75 -134,-115 -204,-131 -64,-15 -130,-20 -196,-20 -72,0 -147,6 -216,23 -73,19 -194,67 -194,158 0,87 116,137 188,156 66,17 141,25 222,25 80,0 163,-7 243,-25 78,-17 153,-43 221,-80zm-464 0c-151,0 -222,-39 -222,-77 0,-39 79,-76 222,-76 142,0 216,40 216,76 0,37 -67,77 -216,77z"/>
 </g>
</svg>
