<?xml version="1.0" encoding="UTF-8"?>
<!DOCTYPE svg PUBLIC "-//W3C//DTD SVG 1.1//EN" "http://www.w3.org/Graphics/SVG/1.1/DTD/svg11.dtd">
<!-- Creator: CorelDRAW X8 -->
<svg xmlns="http://www.w3.org/2000/svg" xml:space="preserve" width="1772px" height="1024px" version="1.1" style="shape-rendering:geometricPrecision; text-rendering:geometricPrecision; image-rendering:optimizeQuality; fill-rule:evenodd; clip-rule:evenodd"
viewBox="0 0 1772 1024"
 xmlns:xlink="http://www.w3.org/1999/xlink">
 <defs>
  <style type="text/css">
   <![CDATA[
    .fil0 {fill:#EF7F1A;fill-rule:nonzero}
   ]]>
  </style>
 </defs>
 <g id="Layer_x0020_1">
  <metadata id="CorelCorpID_0Corel-Layer"/>
  <path class="fil0" d="M466 1024c341,0 393,-226 393,-513 0,-97 -1,-189 37,-281 28,-67 95,-109 168,-109 143,0 198,124 198,249 0,214 -171,456 -370,528 -24,9 -45,27 -45,47 0,43 75,55 108,55l715 0c33,0 102,-14 102,-55l0 -516c0,-116 -43,-219 -132,-298 -122,-107 -314,-131 -472,-131 -143,0 -347,28 -437,150 -73,99 -73,243 -73,361 0,138 2,402 -192,402 -75,0 -139,-58 -179,-115 -57,-80 -85,-193 -85,-290 0,-157 79,-343 230,-409 23,-10 38,-27 38,-44 0,-12 -6,-24 -22,-34 -21,-14 -49,-21 -77,-21 -24,0 -49,5 -69,14 -193,88 -302,286 -302,494 0,113 32,237 98,330 90,127 214,186 368,186zm1103 -135l-397 0c158,-116 291,-316 291,-518 0,-86 -25,-177 -90,-237 35,13 67,31 95,56 71,62 101,148 101,239l0 460z"/>
 </g>
</svg>
