<?xml version="1.0" encoding="UTF-8" standalone="no"?>
<svg
   xmlns:dc="http://purl.org/dc/elements/1.1/"
   xmlns:cc="http://creativecommons.org/ns#"
   xmlns:rdf="http://www.w3.org/1999/02/22-rdf-syntax-ns#"
   xmlns:svg="http://www.w3.org/2000/svg"
   xmlns="http://www.w3.org/2000/svg"
   xmlns:sodipodi="http://sodipodi.sourceforge.net/DTD/sodipodi-0.dtd"
   xmlns:inkscape="http://www.inkscape.org/namespaces/inkscape"
   xml:space="preserve"
   width="1000"
   height="1000"
   version="1.1"
   style="clip-rule:evenodd;fill-rule:evenodd;image-rendering:optimizeQuality;shape-rendering:geometricPrecision;text-rendering:geometricPrecision"
   viewBox="0 0 1000 1000"
   id="svg10"
   sodipodi:docname="ഗ്ഗ.svg"
   inkscape:version="1.0.1 (3bc2e813f5, 2020-09-07)"><metadata
   id="metadata14"><rdf:RDF><cc:Work
       rdf:about=""><dc:format>image/svg+xml</dc:format><dc:type
         rdf:resource="http://purl.org/dc/dcmitype/StillImage" /><dc:title /></cc:Work></rdf:RDF></metadata><sodipodi:namedview
   pagecolor="#ffffff"
   bordercolor="#666666"
   borderopacity="1"
   objecttolerance="10"
   gridtolerance="10"
   guidetolerance="10"
   inkscape:pageopacity="0"
   inkscape:pageshadow="2"
   inkscape:window-width="1920"
   inkscape:window-height="1015"
   id="namedview12"
   showgrid="false"
   inkscape:zoom="0.678"
   inkscape:cx="576.68747"
   inkscape:cy="574.36626"
   inkscape:window-x="1920"
   inkscape:window-y="0"
   inkscape:window-maximized="1"
   inkscape:current-layer="svg10"
   showguides="true"
   inkscape:guide-bbox="true"
   inkscape:document-rotation="0"
   inkscape:snap-to-guides="true"><sodipodi:guide
     position="0,1000"
     orientation="0,1"
     id="guide16"
     inkscape:label=""
     inkscape:locked="true"
     inkscape:color="rgb(0,0,255)" /><sodipodi:guide
     position="1763.3122,2036.1693"
     orientation="1000,0"
     id="guide18" /><sodipodi:guide
     position="0,200"
     orientation="0,1"
     id="guide20"
     inkscape:label="base"
     inkscape:locked="true"
     inkscape:color="rgb(0,0,255)" /><inkscape:grid
     type="xygrid"
     id="grid24"
     originx="-473.37552"
     originy="-489.69235" /><sodipodi:guide
     position="0,0"
     orientation="0,1"
     id="guide34"
     inkscape:label="bottom"
     inkscape:locked="true"
     inkscape:color="rgb(0,0,255)" /><sodipodi:guide
     position="225.05109,1693.3186"
     orientation="0,1"
     id="guide44"
     inkscape:label=""
     inkscape:locked="false"
     inkscape:color="rgb(0,0,255)" /><sodipodi:guide
     position="0,900"
     orientation="0,1"
     id="guide46"
     inkscape:label=""
     inkscape:locked="true"
     inkscape:color="rgb(0,0,255)" /><sodipodi:guide
     position="489.32695,525.39382"
     orientation="-1,0"
     id="guide841"
     inkscape:label="width"
     inkscape:locked="false"
     inkscape:color="rgb(0,0,255)" /><sodipodi:guide
     position="0,1000"
     orientation="0,1000"
     id="guide860" /><sodipodi:guide
     position="1000,1000"
     orientation="1000,0"
     id="guide862" /><sodipodi:guide
     position="1000,0"
     orientation="0,-1000"
     id="guide864" /><sodipodi:guide
     position="0,0"
     orientation="-1000,0"
     id="guide866" /></sodipodi:namedview>
 <defs
   id="defs4"><inkscape:path-effect
   effect="spiro"
   id="path-effect876"
   is_visible="true"
   lpeversion="1" /><inkscape:path-effect
   effect="spiro"
   id="path-effect873"
   is_visible="true"
   lpeversion="1" /><inkscape:path-effect
   effect="spiro"
   id="path-effect859"
   is_visible="true"
   lpeversion="1" /><inkscape:path-effect
   effect="spiro"
   id="path-effect862"
   is_visible="true"
   lpeversion="1" /><inkscape:path-effect
   effect="spiro"
   id="path-effect1521"
   is_visible="true"
   lpeversion="1" /><inkscape:path-effect
   effect="spiro"
   id="path-effect858"
   is_visible="true"
   lpeversion="1" /><inkscape:path-effect
   effect="spiro"
   id="path-effect854"
   is_visible="true"
   lpeversion="1" />
  <style
   type="text/css"
   id="style2">
   <![CDATA[
    .fil0 {fill:#EF7F1A;fill-rule:nonzero}
   ]]>
  </style>
 <inkscape:path-effect
   effect="spiro"
   id="path-effect1214"
   is_visible="true"
   lpeversion="1" /><inkscape:path-effect
   effect="spiro"
   id="path-effect1195"
   is_visible="true"
   lpeversion="1" /><inkscape:path-effect
   effect="spiro"
   id="path-effect992"
   is_visible="true"
   lpeversion="1" /><inkscape:path-effect
   effect="spiro"
   id="path-effect287"
   is_visible="true"
   lpeversion="1" /><inkscape:path-effect
   effect="spiro"
   id="path-effect1032"
   is_visible="true"
   lpeversion="1" /><inkscape:path-effect
   effect="spiro"
   id="path-effect1218"
   is_visible="true"
   lpeversion="1" /><inkscape:path-effect
   effect="spiro"
   id="path-effect309"
   is_visible="true"
   lpeversion="1" /><inkscape:path-effect
   effect="spiro"
   id="path-effect1176"
   is_visible="true"
   lpeversion="1" /><inkscape:path-effect
   effect="spiro"
   id="path-effect1026"
   is_visible="true"
   lpeversion="1" /><inkscape:path-effect
   effect="spiro"
   id="path-effect1030"
   is_visible="true"
   lpeversion="1" /></defs>
 
<path
   style="clip-rule:evenodd;display:inline;fill:#1a1a1a;fill-rule:evenodd;stroke:none;stroke-width:1.57786px;stroke-linecap:butt;stroke-linejoin:miter;stroke-opacity:1;image-rendering:optimizeQuality;shape-rendering:geometricPrecision;text-rendering:geometricPrecision"
   d="m 187.52204,500.13659 c -4.80529,-41.41071 -5.13981,-83.56613 2.25441,-124.59373 7.39423,-41.02759 22.71246,-80.96181 47.32494,-114.60945 15.05864,-20.58662 34.06387,-39.07227 57.57348,-48.96516 11.75481,-4.94645 24.523,-7.64946 37.26907,-7.2245 12.74606,0.42496 25.45688,4.04058 36.17716,10.94843 9.66201,6.22593 17.5651,15.01822 23.2858,24.98768 5.72069,9.96947 9.29912,21.09437 11.09853,32.44685 3.59882,22.70495 0.1565,45.95246 -5.06747,68.33943 -14.74769,63.20025 -44.28866,123.52524 -88.87039,170.68705 -22.28541,23.57513 -48.17158,43.74021 -76.48308,59.57958 l 69.88111,86.13147 c 13.26802,-27.2124 27.00103,-54.19807 41.19102,-80.94128 52.69848,-99.31837 113.05255,-199.47341 122.6316,-311.498 2.47407,-28.93362 1.37752,-58.57991 -7.58337,-86.20196 -8.9609,-27.62205 -26.3685,-53.17348 -51.25312,-68.14115 -18.06557,-10.86613 -39.45708,-15.778281 -60.52729,-15.082957 -21.07021,0.695324 -41.79947,6.867057 -60.42379,16.744917 -37.24864,19.7557 -65.32804,53.5132 -86.76396,89.82092 -34.35476,58.18938 -53.6856,123.86545 -70.78076,189.24135 -6.61138,25.28345 -12.93887,50.64114 -18.98088,76.06666 C 80.352868,394.13962 73.676159,311.71135 90.55175,234.2524 101.02015,186.20247 120.3856,140.10593 147.3738,98.996074 L -3.0783318,130.14204 C -3.9987372,242.86251 9.9970596,355.6958 38.429454,464.77536 52.872433,520.18518 71.02425,574.62795 92.723163,627.61856 L 205.9001,592.56088 c -8.60079,-30.24634 -14.75346,-61.18846 -18.37806,-92.42429 z"
   id="path1087-1-75"
   inkscape:path-effect="#path-effect1030"
   inkscape:original-d="m 187.52204,500.13659 c 0.32941,-81.42842 -4.19599,-178.05656 49.57935,-239.20318 30.5126,-34.69512 90.5758,-67.58093 131.01971,-45.24123 37.68215,20.81421 34.70608,83.06413 29.31686,125.77396 -8.0304,63.64103 -32.51788,116.57606 -88.87039,170.68705 -23.00686,22.69501 -76.48308,59.57958 -76.48308,59.57958 l 69.88111,86.13147 c 0,0 34.96702,9.35046 41.19102,-80.94128 6.22401,-90.29189 122.02628,-199.91036 122.6316,-311.498 0.29866,-55.05828 -8.03553,-133.11189 -58.83649,-154.34311 -69.8051,-29.17361 -155.76284,36.48453 -207.71504,91.48288 -46.24735,48.959 -53.38593,129.66067 -70.78076,189.24135 -7.29448,25.09433 -18.98088,76.06666 -18.98088,76.06666 0,0 -31.250817,-156.47053 -18.9233,-233.62034 C 98.267827,185.96256 147.3738,98.996074 147.3738,98.996074 L -3.0783318,130.14204 c 0,0 16.6921968,225.00768 41.5077858,334.63332 12.632763,55.80665 54.293709,162.8432 54.293709,162.8432 L 205.9001,592.56088 c -43.91693,-37.49244 -18.50513,-61.01329 -18.37806,-92.42429 z"
   sodipodi:nodetypes="aaaacccsaaaccaccacca" /><path
   style="clip-rule:evenodd;display:inline;fill:#1a1a1a;fill-rule:evenodd;stroke:none;stroke-width:1.18171px;stroke-linecap:butt;stroke-linejoin:miter;stroke-opacity:1;image-rendering:optimizeQuality;shape-rendering:geometricPrecision;text-rendering:geometricPrecision"
   d="m 275.77515,904.52488 c -3.59882,-31.01371 -3.84935,-62.58516 1.6884,-93.31194 5.53776,-30.72678 17.01004,-60.6347 35.44305,-85.83442 11.27786,-15.41793 25.51145,-29.26239 43.1185,-36.67148 8.80352,-3.70454 18.366,-5.7289 27.91191,-5.41064 9.54591,0.31827 19.06542,3.02611 27.09416,8.19961 7.23617,4.66279 13.15503,11.24759 17.43943,18.71402 4.2844,7.46643 6.96438,15.79821 8.31202,24.30042 2.69526,17.00441 0.1172,34.41517 -3.79518,51.18144 -11.04498,47.33257 -33.16908,92.51178 -66.55768,127.83266 -16.69021,17.65611 -36.07713,32.75831 -57.28046,44.62086 l 52.33604,64.50649 c 9.93682,-20.3802 20.22188,-40.59059 30.84919,-60.61939 39.46745,-74.38249 84.66842,-149.39158 91.84246,-233.29013 1.85291,-21.66925 1.03167,-43.87225 -5.67941,-64.55923 -6.71108,-20.68698 -19.74815,-39.82321 -38.38499,-51.03294 -13.52984,-8.13797 -29.55058,-11.81683 -45.33069,-11.29608 -15.78012,0.52075 -31.30487,5.14295 -45.25318,12.54077 -27.89662,14.79564 -48.92612,40.07763 -64.98012,67.26957 -25.72931,43.57976 -40.20675,92.76653 -53.00983,141.7285 -4.95146,18.93553 -9.69031,37.92666 -14.21535,56.96859 -21.81047,-55.22093 -26.81085,-116.95392 -14.17222,-174.96524 7.84009,-35.98603 22.34346,-70.50911 42.55573,-101.29751 l -112.67809,23.32615 c -0.68932,84.41972 9.79255,168.92394 31.08641,250.61688 10.81678,41.49808 24.41122,82.2719 40.66218,121.95816 l 84.76159,-26.2558 c -6.44139,-22.65239 -11.0493,-45.82587 -13.76387,-69.21932 z"
   id="path1087-1-75-3"
   inkscape:path-effect="#path-effect876"
   inkscape:original-d="m 275.77515,904.52488 c 0.2467,-60.98413 -3.14251,-133.35183 37.13145,-179.14636 22.8518,-25.98421 67.83492,-50.61337 98.12457,-33.88251 28.22129,15.58839 25.99242,62.20921 21.95627,94.19588 -6.0142,47.66266 -24.35361,87.30729 -66.55768,127.83266 -17.23053,16.99696 -57.28046,44.62086 -57.28046,44.62086 l 52.33604,64.50649 c 0,0 26.18785,7.0028 30.84919,-60.61939 4.66135,-67.6223 91.38912,-149.71882 91.84246,-233.29013 0.22368,-41.23479 -6.01804,-99.69147 -44.0644,-115.59217 -52.27912,-21.84898 -116.65544,27.32436 -155.56399,68.51426 -34.63602,36.66686 -39.98232,97.10675 -53.00983,141.7285 -5.46305,18.79389 -14.21535,56.96859 -14.21535,56.96859 0,0 -23.40467,-117.18545 -14.17222,-174.96524 5.7788,-36.16571 42.55573,-101.29751 42.55573,-101.29751 l -112.67809,23.32615 c 0,0 12.50128,168.51497 31.08641,250.61688 C 173.57631,919.83713 204.77743,1000 204.77743,1000 l 84.76159,-26.2558 c -32.89069,-28.07918 -13.85904,-45.69468 -13.76387,-69.21932 z"
   sodipodi:nodetypes="aaaacccsaaaccaccacca" /></svg>
