<?xml version="1.0" encoding="UTF-8"?>
<!DOCTYPE svg PUBLIC "-//W3C//DTD SVG 1.1//EN" "http://www.w3.org/Graphics/SVG/1.1/DTD/svg11.dtd">
<!-- Creator: CorelDRAW X8 -->
<svg xmlns="http://www.w3.org/2000/svg" xml:space="preserve" width="1550px" height="1486px" version="1.1" style="shape-rendering:geometricPrecision; text-rendering:geometricPrecision; image-rendering:optimizeQuality; fill-rule:evenodd; clip-rule:evenodd"
viewBox="0 0 1550 1486"
 xmlns:xlink="http://www.w3.org/1999/xlink">
 <defs>
  <style type="text/css">
   <![CDATA[
    .fil0 {fill:#EF7F1A;fill-rule:nonzero}
   ]]>
  </style>
 </defs>
 <g id="Layer_x0020_1">
  <metadata id="CorelCorpID_0Corel-Layer"/>
  <path class="fil0" d="M1401 1486c46,0 101,-27 101,-79 0,-51 -55,-79 -101,-79l-1085 0c-54,0 -111,0 -111,-70 0,-63 59,-68 111,-68l608 0c178,0 355,-52 477,-187 109,-121 149,-283 149,-441 0,-134 -36,-278 -119,-386 -89,-116 -231,-176 -374,-176 -333,0 -399,229 -399,511 0,136 3,402 -187,402 -78,0 -144,-56 -185,-115 -57,-80 -84,-193 -84,-290 0,-159 78,-343 231,-409 23,-10 38,-27 38,-44 0,-12 -7,-24 -23,-34 -21,-14 -49,-21 -77,-21 -24,0 -49,5 -69,14 -194,87 -302,285 -302,494 0,113 32,237 98,330 88,125 219,186 373,186 342,0 389,-226 389,-513 0,-137 5,-400 197,-400 73,0 146,53 188,109 73,95 104,224 103,342 0,129 -31,270 -114,373 -78,98 -187,144 -310,144l-608 0c-138,0 -316,28 -316,204 0,171 175,203 316,203l1085 0z"/>
 </g>
</svg>
