<?xml version="1.0" encoding="UTF-8"?>
<!DOCTYPE svg PUBLIC "-//W3C//DTD SVG 1.1//EN" "http://www.w3.org/Graphics/SVG/1.1/DTD/svg11.dtd">
<!-- Creator: CorelDRAW X8 -->
<svg xmlns="http://www.w3.org/2000/svg" xml:space="preserve" width="1555px" height="1486px" version="1.1" style="shape-rendering:geometricPrecision; text-rendering:geometricPrecision; image-rendering:optimizeQuality; fill-rule:evenodd; clip-rule:evenodd"
viewBox="0 0 1555 1486"
 xmlns:xlink="http://www.w3.org/1999/xlink">
 <defs>
  <style type="text/css">
   <![CDATA[
    .fil0 {fill:#EF7F1A;fill-rule:nonzero}
   ]]>
  </style>
 </defs>
 <g id="Layer_x0020_1">
  <metadata id="CorelCorpID_0Corel-Layer"/>
  <path class="fil0" d="M1478 1002c50,-115 77,-242 77,-366 0,-114 -18,-232 -61,-335 -80,-192 -234,-301 -437,-301 -333,0 -399,229 -399,511 0,136 3,402 -187,402 -78,0 -143,-56 -185,-115 -56,-80 -84,-193 -84,-290 0,-159 78,-343 231,-409 23,-10 38,-27 38,-44 0,-12 -7,-24 -23,-34 -21,-14 -49,-21 -77,-21 -24,0 -49,5 -69,14 -194,87 -302,285 -302,494 0,113 32,237 98,330 88,125 219,186 373,186 342,0 389,-226 389,-513 0,-137 5,-400 197,-400 115,0 202,122 241,216 42,99 56,202 56,309 0,101 -20,226 -53,320 -43,121 -111,236 -214,316 -4,-47 -36,-82 -74,-106 -49,-31 -119,-42 -176,-42 -52,0 -111,10 -158,35 -47,-25 -106,-35 -158,-35 -57,0 -127,11 -176,42 -39,25 -73,65 -73,114 0,82 81,144 152,169 75,27 163,37 254,37 100,0 201,-10 297,-36 235,-63 405,-226 503,-448zm-800 385c-57,0 -128,-4 -180,-27 -34,-15 -58,-40 -58,-78 0,-43 45,-61 82,-61 46,0 66,42 66,83 0,40 59,51 91,51 32,0 91,-11 91,-51 0,-41 20,-83 66,-83 38,0 82,17 82,61 0,38 -24,63 -57,78 -54,24 -125,27 -183,27z"/>
 </g>
</svg>
