<?xml version="1.0" encoding="UTF-8"?>
<!DOCTYPE svg PUBLIC "-//W3C//DTD SVG 1.1//EN" "http://www.w3.org/Graphics/SVG/1.1/DTD/svg11.dtd">
<!-- Creator: CorelDRAW X8 -->
<svg xmlns="http://www.w3.org/2000/svg" xml:space="preserve" width="1177px" height="868px" version="1.1" style="shape-rendering:geometricPrecision; text-rendering:geometricPrecision; image-rendering:optimizeQuality; fill-rule:evenodd; clip-rule:evenodd"
viewBox="0 0 1177 868"
 xmlns:xlink="http://www.w3.org/1999/xlink">
 <defs>
  <style type="text/css">
   <![CDATA[
    .fil0 {fill:#EF7F1A;fill-rule:nonzero}
   ]]>
  </style>
 </defs>
 <g id="Layer_x0020_1">
  <metadata id="CorelCorpID_0Corel-Layer"/>
  <path class="fil0" d="M864 0c-203,0 -249,121 -249,299 0,73 1,231 -101,232 -40,0 -82,-32 -103,-61 -34,-47 -49,-118 -49,-175 1,-91 49,-196 138,-234 15,-6 23,-16 23,-26 0,-9 -5,-18 -20,-25 -15,-7 -31,-10 -48,-10 -18,0 -36,4 -54,11 -114,45 -181,170 -181,289 0,65 20,136 59,190 57,78 139,110 235,110 209,-1 243,-120 243,-301 0,-73 4,-230 107,-230 62,0 117,76 138,124 22,50 33,107 33,161 0,107 -32,219 -104,301 -82,94 -201,142 -324,142 -123,0 -244,-46 -331,-132 -89,-88 -134,-204 -134,-328 0,-106 34,-221 129,-281 11,-7 15,-14 15,-21 0,-13 -17,-25 -34,-30 -12,-3 -23,-5 -35,-5 -26,0 -52,9 -75,24 -100,66 -142,198 -142,313 0,151 65,293 181,390 119,99 273,141 426,141 151,0 311,-49 423,-154 100,-94 147,-224 147,-360 0,-65 -13,-130 -43,-188 -55,-108 -153,-166 -270,-166z"/>
 </g>
</svg>
