<?xml version="1.0" encoding="UTF-8"?>
<!DOCTYPE svg PUBLIC "-//W3C//DTD SVG 1.1//EN" "http://www.w3.org/Graphics/SVG/1.1/DTD/svg11.dtd">
<!-- Creator: CorelDRAW X8 -->
<svg xmlns="http://www.w3.org/2000/svg" xml:space="preserve" width="1670px" height="1486px" version="1.1" style="shape-rendering:geometricPrecision; text-rendering:geometricPrecision; image-rendering:optimizeQuality; fill-rule:evenodd; clip-rule:evenodd"
viewBox="0 0 1670 1486"
 xmlns:xlink="http://www.w3.org/1999/xlink">
 <defs>
  <style type="text/css">
   <![CDATA[
    .fil0 {fill:#EF7F1A;fill-rule:nonzero}
   ]]>
  </style>
 </defs>
 <g id="Layer_x0020_1">
  <metadata id="CorelCorpID_0Corel-Layer"/>
  <path class="fil0" d="M1440 1364c53,-37 99,-82 136,-135 67,-97 94,-210 94,-326 0,-160 -73,-300 -220,-373 77,-44 123,-115 123,-204 0,-108 -51,-192 -142,-248 -95,-59 -209,-77 -319,-77 -139,0 -310,40 -390,165 -65,101 -64,225 -64,340 0,140 4,407 -192,407 -75,0 -140,-58 -180,-115 -57,-80 -84,-193 -84,-290 0,-158 78,-343 230,-409 23,-10 38,-27 38,-44 0,-12 -6,-24 -22,-34 -21,-14 -49,-21 -77,-21 -25,0 -49,4 -70,14 -193,87 -301,286 -301,494 0,113 32,237 98,330 90,127 215,186 368,186 342,0 394,-229 394,-518 0,-97 2,-198 37,-273 34,-71 96,-121 215,-121 68,-1 139,14 192,59 46,39 67,93 67,152 1,72 -41,116 -98,137 -28,10 -59,15 -90,14l-98 -1c-33,-1 -91,14 -91,56 0,42 59,56 92,56 31,0 64,-2 96,-2 32,0 65,2 95,10 141,38 223,177 223,311 0,89 -12,186 -54,269 -14,28 -32,55 -54,78 -36,-59 -128,-92 -192,-107 -65,-15 -131,-20 -197,-20 -71,0 -147,6 -216,23 -73,19 -194,68 -194,157 0,88 117,138 189,157 65,17 141,25 221,25 78,0 153,-7 225,-25 74,-19 144,-50 212,-97zm-436 17c-151,0 -222,-39 -222,-77 0,-39 79,-76 222,-76 142,0 216,40 216,76 0,37 -67,77 -216,77z"/>
 </g>
</svg>
