<?xml version="1.0" encoding="UTF-8"?>
<!DOCTYPE svg PUBLIC "-//W3C//DTD SVG 1.1//EN" "http://www.w3.org/Graphics/SVG/1.1/DTD/svg11.dtd">
<!-- Creator: CorelDRAW X8 -->
<svg xmlns="http://www.w3.org/2000/svg" xml:space="preserve" width="955px" height="868px" version="1.1" style="shape-rendering:geometricPrecision; text-rendering:geometricPrecision; image-rendering:optimizeQuality; fill-rule:evenodd; clip-rule:evenodd"
viewBox="0 0 955 868"
 xmlns:xlink="http://www.w3.org/1999/xlink">
 <defs>
  <style type="text/css">
   <![CDATA[
    .fil0 {fill:#EF7F1A;fill-rule:nonzero}
   ]]>
  </style>
 </defs>
 <g id="Layer_x0020_1">
  <metadata id="CorelCorpID_0Corel-Layer"/>
  <path class="fil0" d="M880 104c-57,-72 -147,-104 -236,-104 -203,0 -249,121 -249,299 0,73 1,231 -101,232 -40,0 -82,-32 -103,-61 -34,-47 -50,-118 -49,-175 1,-91 49,-196 138,-234 15,-6 23,-16 23,-26 0,-9 -6,-18 -20,-25 -15,-7 -31,-10 -48,-10 -18,0 -36,4 -54,11 -114,45 -181,170 -181,289 0,65 20,136 59,190 57,78 139,110 235,110 209,-1 243,-120 243,-301 0,-73 4,-230 107,-230 38,0 81,33 103,61 52,66 67,168 67,252 0,59 -12,120 -32,175 -25,66 -61,129 -116,174 -22,-36 -80,-57 -120,-66 -41,-9 -83,-12 -125,-12 -46,0 -93,3 -138,14 -43,10 -119,40 -119,93 0,53 73,81 116,92 41,10 98,16 141,16 52,0 106,-4 157,-16 72,-15 140,-44 198,-91 51,-41 93,-95 126,-164 33,-69 53,-144 53,-220 0,-95 -14,-196 -75,-273zm-460 699c-83,0 -122,-22 -122,-43 0,-21 43,-41 122,-41 79,0 120,21 120,41 0,20 -37,43 -120,43z"/>
 </g>
</svg>
