<?xml version="1.0" encoding="UTF-8"?>
<!DOCTYPE svg PUBLIC "-//W3C//DTD SVG 1.1//EN" "http://www.w3.org/Graphics/SVG/1.1/DTD/svg11.dtd">
<!-- Creator: CorelDRAW X8 -->
<svg xmlns="http://www.w3.org/2000/svg" xml:space="preserve" width="2708px" height="1024px" version="1.1" style="shape-rendering:geometricPrecision; text-rendering:geometricPrecision; image-rendering:optimizeQuality; fill-rule:evenodd; clip-rule:evenodd"
viewBox="0 0 2708 1024"
 xmlns:xlink="http://www.w3.org/1999/xlink">
 <defs>
  <style type="text/css">
   <![CDATA[
    .fil0 {fill:#EF7F1A;fill-rule:nonzero}
   ]]>
  </style>
 </defs>
 <g id="Layer_x0020_1">
  <metadata id="CorelCorpID_0Corel-Layer"/>
  <path class="fil0" d="M466 1024c341,0 393,-229 393,-517 0,-98 3,-199 38,-274 33,-71 96,-120 215,-121 140,-1 256,55 256,212 0,73 -41,116 -96,136 -31,12 -68,16 -104,16l-85 -2c-33,-1 -88,14 -88,56 0,41 56,55 89,55 28,0 56,-2 84,-2 34,0 68,3 103,14 70,22 112,81 112,152 0,86 -65,145 -150,145 -69,0 -105,-34 -166,-34 -28,0 -57,7 -78,21 -16,11 -23,22 -23,34 0,17 15,34 38,44 114,51 286,64 410,64 121,0 253,-15 365,-62 35,-15 69,-34 99,-57 83,89 209,120 328,120 190,0 368,-90 450,-262 38,-77 52,-163 52,-248 0,-209 -91,-415 -291,-501 -20,-9 -44,-13 -68,-13 -28,0 -57,7 -78,22 -15,11 -21,22 -21,33 0,18 17,35 40,45 154,63 215,261 215,414 0,67 -10,136 -35,198 -43,107 -141,201 -264,201 -152,0 -212,-121 -212,-254l0 -603c0,-42 -70,-56 -102,-56 -32,0 -101,14 -101,56l0 603c0,102 -39,172 -137,214 -44,19 -94,29 -142,34 47,-45 71,-105 71,-170 0,-92 -62,-166 -142,-209 82,-44 130,-115 130,-207 0,-106 -51,-188 -142,-244 -92,-57 -210,-76 -317,-76 -139,0 -310,40 -390,165 -65,101 -64,225 -64,341 0,139 3,406 -192,406 -75,0 -140,-58 -180,-115 -57,-80 -84,-193 -84,-290 0,-158 78,-342 230,-409 23,-10 38,-27 38,-44 0,-12 -6,-24 -22,-34 -21,-14 -49,-21 -77,-21 -25,0 -49,5 -70,14 -194,87 -301,286 -301,494 0,113 32,237 98,330 89,127 215,186 368,186z"/>
 </g>
</svg>
