<?xml version="1.0" encoding="UTF-8"?>
<!DOCTYPE svg PUBLIC "-//W3C//DTD SVG 1.1//EN" "http://www.w3.org/Graphics/SVG/1.1/DTD/svg11.dtd">
<!-- Creator: CorelDRAW X8 -->
<svg xmlns="http://www.w3.org/2000/svg" xml:space="preserve" width="2853px" height="1024px" version="1.1" style="shape-rendering:geometricPrecision; text-rendering:geometricPrecision; image-rendering:optimizeQuality; fill-rule:evenodd; clip-rule:evenodd"
viewBox="0 0 2853 1024"
 xmlns:xlink="http://www.w3.org/1999/xlink">
 <defs>
  <style type="text/css">
   <![CDATA[
    .fil0 {fill:#EF7F1A;fill-rule:nonzero}
   ]]>
  </style>
 </defs>
 <g id="Layer_x0020_1">
  <metadata id="CorelCorpID_0Corel-Layer"/>
  <path class="fil0" d="M860 540c1,-48 -1,-94 1,-141 5,-97 59,-193 169,-193 107,0 167,92 167,192 0,66 -24,139 -85,174 -15,8 -29,22 -29,39 0,42 69,56 102,56l372 0 0 273c0,44 66,60 101,60l1094 0c32,0 101,-14 101,-55l0 -889c0,-42 -69,-56 -101,-56 -33,0 -102,14 -102,56l0 833 -890 0 0 -222 588 0c32,0 102,-14 102,-56l0 -258c0,-118 -54,-206 -135,-264 -82,-59 -192,-89 -303,-89 -112,0 -240,32 -333,106 -73,58 -122,141 -122,249l0 201 -200 0c29,-48 43,-103 43,-158 0,-199 -184,-303 -370,-303 -189,0 -362,97 -372,303 -2,47 1,97 0,145 -2,131 -6,370 -190,370 -77,0 -141,-57 -182,-115 -57,-80 -84,-193 -84,-290 0,-158 78,-343 231,-409 23,-10 38,-27 38,-44 0,-12 -7,-24 -23,-34 -21,-14 -49,-21 -77,-21 -24,0 -49,5 -69,14 -194,87 -302,285 -302,494 0,113 32,237 98,330 88,125 216,186 370,186 330,0 387,-198 392,-484zm1387 16l-487 0 0 -201c0,-154 121,-244 251,-244 140,0 236,104 236,242l0 203z"/>
 </g>
</svg>
