<?xml version="1.0" encoding="UTF-8"?>
<!DOCTYPE svg PUBLIC "-//W3C//DTD SVG 1.1//EN" "http://www.w3.org/Graphics/SVG/1.1/DTD/svg11.dtd">
<!-- Creator: CorelDRAW X8 -->
<svg xmlns="http://www.w3.org/2000/svg" xml:space="preserve" width="951px" height="868px" version="1.1" style="shape-rendering:geometricPrecision; text-rendering:geometricPrecision; image-rendering:optimizeQuality; fill-rule:evenodd; clip-rule:evenodd"
viewBox="0 0 951 868"
 xmlns:xlink="http://www.w3.org/1999/xlink">
 <defs>
  <style type="text/css">
   <![CDATA[
    .fil0 {fill:#EF7F1A;fill-rule:nonzero}
   ]]>
  </style>
 </defs>
 <g id="Layer_x0020_1">
  <metadata id="CorelCorpID_0Corel-Layer"/>
  <path class="fil0" d="M850 868c30,0 72,-13 72,-48 0,-35 -42,-48 -72,-48l-650 0c-30,0 -56,-2 -56,-39 0,-33 28,-37 56,-37l365 0c117,0 238,-35 314,-130 54,-68 72,-153 72,-237 0,-79 -22,-162 -71,-225 -57,-72 -147,-104 -236,-104 -203,0 -249,121 -249,299 0,73 1,231 -101,232 -40,0 -82,-32 -103,-61 -34,-47 -50,-118 -49,-175 1,-91 49,-196 138,-234 15,-6 23,-16 23,-26 0,-9 -6,-18 -20,-25 -15,-7 -31,-10 -48,-10 -18,0 -36,4 -54,11 -114,45 -181,170 -181,289 0,65 20,136 59,190 57,78 139,110 235,110 209,-1 243,-120 243,-301 0,-73 4,-230 107,-230 38,0 81,33 103,61 44,55 62,130 62,199 0,64 -14,132 -48,188 -44,71 -112,110 -196,110l-365 0c-83,0 -200,14 -200,121 0,104 117,120 200,120l650 0z"/>
 </g>
</svg>
