<?xml version="1.0" encoding="UTF-8"?>
<!DOCTYPE svg PUBLIC "-//W3C//DTD SVG 1.1//EN" "http://www.w3.org/Graphics/SVG/1.1/DTD/svg11.dtd">
<!-- Creator: CorelDRAW X8 -->
<svg xmlns="http://www.w3.org/2000/svg" xml:space="preserve" width="2164px" height="1024px" version="1.1" style="shape-rendering:geometricPrecision; text-rendering:geometricPrecision; image-rendering:optimizeQuality; fill-rule:evenodd; clip-rule:evenodd"
viewBox="0 0 2164 1024"
 xmlns:xlink="http://www.w3.org/1999/xlink">
 <defs>
  <style type="text/css">
   <![CDATA[
    .fil0 {fill:#EF7F1A;fill-rule:nonzero}
   ]]>
  </style>
 </defs>
 <g id="Layer_x0020_1">
  <metadata id="CorelCorpID_0Corel-Layer"/>
  <path class="fil0" d="M1662 0c-110,0 -226,26 -309,101 -80,-76 -189,-101 -295,-101 -333,0 -400,229 -400,511 0,136 4,402 -187,402 -78,0 -143,-56 -185,-115 -56,-80 -84,-193 -84,-290 0,-159 78,-342 231,-409 24,-10 38,-27 38,-44 0,-12 -7,-24 -23,-34 -21,-14 -49,-21 -77,-21 -24,0 -49,5 -69,14 -193,87 -302,285 -302,494 0,113 32,237 98,330 88,125 219,186 373,186 343,0 389,-225 389,-513 0,-137 6,-400 198,-400 140,0 188,123 188,254l0 603c0,42 70,56 102,56 32,0 102,-14 102,-56l0 -603c0,-133 60,-254 212,-254 123,0 221,94 264,201 24,61 35,128 35,194 0,154 -60,354 -215,418 -24,10 -40,27 -40,45 0,11 6,22 21,33 21,15 50,22 78,22 24,0 48,-4 68,-13 202,-87 291,-295 291,-505 0,-84 -16,-168 -52,-244 -83,-172 -260,-262 -450,-262z"/>
 </g>
</svg>
