<?xml version="1.0" encoding="UTF-8"?>
<!DOCTYPE svg PUBLIC "-//W3C//DTD SVG 1.1//EN" "http://www.w3.org/Graphics/SVG/1.1/DTD/svg11.dtd">
<!-- Creator: CorelDRAW X8 -->
<svg xmlns="http://www.w3.org/2000/svg" xml:space="preserve" width="1584px" height="1024px" version="1.1" style="shape-rendering:geometricPrecision; text-rendering:geometricPrecision; image-rendering:optimizeQuality; fill-rule:evenodd; clip-rule:evenodd"
viewBox="0 0 1584 1024"
 xmlns:xlink="http://www.w3.org/1999/xlink">
 <defs>
  <style type="text/css">
   <![CDATA[
    .fil0 {fill:#EF7F1A;fill-rule:nonzero}
   ]]>
  </style>
 </defs>
 <g id="Layer_x0020_1">
  <metadata id="CorelCorpID_0Corel-Layer"/>
  <path class="fil0" d="M466 1024c341,0 394,-229 394,-517 0,-98 2,-199 37,-274 33,-71 96,-120 215,-121 140,-1 256,55 256,212 0,73 -40,116 -95,136 -32,12 -68,16 -105,16l-85 -2c-33,-1 -88,14 -88,56 0,41 56,55 89,55 28,0 56,-2 84,-2 34,0 68,3 103,14 68,22 111,76 111,148 0,41 -10,84 -37,116 -28,33 -69,49 -112,49 -68,0 -105,-34 -166,-34 -29,0 -58,6 -78,20 -16,11 -23,23 -23,35 0,17 15,33 37,43 71,32 153,47 230,47 83,0 177,-19 245,-67 73,-51 106,-122 106,-207 0,-98 -58,-174 -143,-219 82,-44 131,-115 130,-207 0,-106 -51,-188 -142,-244 -92,-57 -210,-76 -317,-76 -139,0 -310,40 -390,165 -65,101 -64,225 -64,341 0,139 3,406 -192,406 -75,0 -140,-58 -180,-115 -57,-80 -84,-193 -84,-290 0,-158 78,-342 230,-409 23,-10 38,-27 38,-44 0,-12 -6,-24 -22,-34 -21,-14 -49,-21 -77,-21 -25,0 -49,5 -70,14 -193,87 -301,286 -301,494 0,113 32,237 98,330 89,127 215,186 368,186z"/>
 </g>
</svg>
