<?xml version="1.0" encoding="UTF-8"?>
<!DOCTYPE svg PUBLIC "-//W3C//DTD SVG 1.1//EN" "http://www.w3.org/Graphics/SVG/1.1/DTD/svg11.dtd">
<!-- Creator: CorelDRAW X8 -->
<svg xmlns="http://www.w3.org/2000/svg" xml:space="preserve" width="2578px" height="1486px" version="1.1" style="shape-rendering:geometricPrecision; text-rendering:geometricPrecision; image-rendering:optimizeQuality; fill-rule:evenodd; clip-rule:evenodd"
viewBox="0 0 2578 1486"
 xmlns:xlink="http://www.w3.org/1999/xlink">
 <defs>
  <style type="text/css">
   <![CDATA[
    .fil0 {fill:#EF7F1A;fill-rule:nonzero}
   ]]>
  </style>
 </defs>
 <g id="Layer_x0020_1">
  <metadata id="CorelCorpID_0Corel-Layer"/>
  <path class="fil0" d="M1464 1486c243,0 510,-14 736,-91 182,-61 378,-188 378,-398l0 -941c0,-42 -69,-56 -101,-56 -32,0 -102,14 -102,56l0 832 -891 0 1 -221 588 0c33,0 102,-14 102,-56l0 -256c0,-240 -219,-355 -438,-355 -211,0 -455,113 -455,357l0 198 -200 0c30,-48 43,-100 43,-156 0,-200 -184,-305 -370,-305 -184,-1 -372,103 -372,305 -1,118 62,216 171,266 20,9 45,14 69,14 29,0 57,-7 78,-21 16,-10 22,-22 22,-34 0,-17 -15,-34 -38,-44 -69,-31 -99,-110 -99,-181 0,-97 63,-193 169,-193 107,0 167,97 167,193 0,67 -24,138 -85,173 -19,11 -29,25 -29,39 0,42 69,56 102,56l372 0 0 273c0,44 66,60 101,60l991 0c-11,160 -137,252 -279,300 -188,63 -426,74 -631,74 -369,0 -798,-29 -1067,-315 -126,-133 -195,-301 -195,-482 -1,-177 74,-380 224,-487 15,-11 21,-22 21,-33 0,-19 -19,-37 -42,-46 -17,-7 -39,-11 -60,-11 -30,0 -59,7 -80,22 -174,125 -265,347 -265,555 0,221 92,416 252,568 312,297 802,341 1212,341zm508 -931l-487 0 0 -198c0,-142 107,-245 251,-245 143,0 236,106 236,243l0 200z"/>
 </g>
</svg>
