<?xml version="1.0" encoding="UTF-8" standalone="no"?>
<svg
   xmlns:dc="http://purl.org/dc/elements/1.1/"
   xmlns:cc="http://creativecommons.org/ns#"
   xmlns:rdf="http://www.w3.org/1999/02/22-rdf-syntax-ns#"
   xmlns:svg="http://www.w3.org/2000/svg"
   xmlns="http://www.w3.org/2000/svg"
   xmlns:sodipodi="http://sodipodi.sourceforge.net/DTD/sodipodi-0.dtd"
   xmlns:inkscape="http://www.inkscape.org/namespaces/inkscape"
   xml:space="preserve"
   width="1000"
   height="1000"
   version="1.1"
   style="clip-rule:evenodd;fill-rule:evenodd;image-rendering:optimizeQuality;shape-rendering:geometricPrecision;text-rendering:geometricPrecision"
   viewBox="0 0 1000 1000"
   id="svg10"
   sodipodi:docname="ഘ്ര.svg"
   inkscape:version="1.0.1 (3bc2e813f5, 2020-09-07)"><metadata
   id="metadata14"><rdf:RDF><cc:Work
       rdf:about=""><dc:format>image/svg+xml</dc:format><dc:type
         rdf:resource="http://purl.org/dc/dcmitype/StillImage" /><dc:title /></cc:Work></rdf:RDF></metadata><sodipodi:namedview
   pagecolor="#ffffff"
   bordercolor="#666666"
   borderopacity="1"
   objecttolerance="10"
   gridtolerance="10"
   guidetolerance="10"
   inkscape:pageopacity="0"
   inkscape:pageshadow="2"
   inkscape:window-width="1920"
   inkscape:window-height="1015"
   id="namedview12"
   showgrid="false"
   inkscape:zoom="1.2005384"
   inkscape:cx="255.19122"
   inkscape:cy="613.95794"
   inkscape:window-x="1920"
   inkscape:window-y="0"
   inkscape:window-maximized="1"
   inkscape:current-layer="svg10"
   showguides="true"
   inkscape:guide-bbox="true"
   inkscape:document-rotation="0"><sodipodi:guide
     position="0,1000"
     orientation="0,1"
     id="guide16"
     inkscape:label=""
     inkscape:locked="true"
     inkscape:color="rgb(0,0,255)" /><sodipodi:guide
     position="1763.3122,2036.1693"
     orientation="1000,0"
     id="guide18" /><sodipodi:guide
     position="0,200"
     orientation="0,1"
     id="guide20"
     inkscape:label="base"
     inkscape:locked="true"
     inkscape:color="rgb(0,0,255)" /><inkscape:grid
     type="xygrid"
     id="grid24"
     originx="-473.37552"
     originy="-489.69235" /><sodipodi:guide
     position="0,0"
     orientation="0,1"
     id="guide34"
     inkscape:label="bottom"
     inkscape:locked="true"
     inkscape:color="rgb(0,0,255)" /><sodipodi:guide
     position="225.05109,1693.3186"
     orientation="0,1"
     id="guide44"
     inkscape:label=""
     inkscape:locked="false"
     inkscape:color="rgb(0,0,255)" /><sodipodi:guide
     position="0,900"
     orientation="0,1"
     id="guide46"
     inkscape:label=""
     inkscape:locked="true"
     inkscape:color="rgb(0,0,255)" /><sodipodi:guide
     position="930.08701,507.74218"
     orientation="1,0"
     id="guide841" /></sodipodi:namedview>
 <defs
   id="defs4"><inkscape:path-effect
   effect="spiro"
   id="path-effect846"
   is_visible="true"
   lpeversion="1" /><inkscape:path-effect
   effect="spiro"
   id="path-effect854"
   is_visible="true"
   lpeversion="1" />
  <style
   type="text/css"
   id="style2">
   <![CDATA[
    .fil0 {fill:#EF7F1A;fill-rule:nonzero}
   ]]>
  </style>
 <inkscape:path-effect
   effect="spiro"
   id="path-effect1214"
   is_visible="true"
   lpeversion="1" /><inkscape:path-effect
   effect="spiro"
   id="path-effect1195"
   is_visible="true"
   lpeversion="1" /><inkscape:path-effect
   effect="spiro"
   id="path-effect992"
   is_visible="true"
   lpeversion="1" /><inkscape:path-effect
   effect="spiro"
   id="path-effect287"
   is_visible="true"
   lpeversion="1" /></defs>
 
<path
   style="fill:#2d2d2d;fill-rule:nonzero;stroke:none;stroke-width:1px;stroke-linecap:butt;stroke-linejoin:miter;stroke-opacity:1"
   d="m -59.243925,566.14139 c -12.777723,116.89473 33.939619,238.75522 121.585319,317.15088 54.726326,48.95057 123.280076,80.81362 194.440726,98.90482 71.16065,18.09121 145.09599,22.92681 218.51843,22.40271 56.82024,-0.4056 114.0126,-4.0347 169.08364,-18.03056 55.07104,-13.9959 108.2184,-38.84872 149.73225,-77.64698 35.26981,-32.96267 61.22438,-75.15566 78.45495,-120.25117 17.23057,-45.0955 25.97863,-93.09985 29.75228,-141.22735 7.54731,-96.25501 -4.48675,-192.9278 -3.78091,-289.47566 C 899.17792,271.08831 910.18367,184.28896 931.2519,100 H 746.12773 c 54.79926,102.68309 84.21055,218.79548 84.90219,335.18404 0.4309,72.512 -11.01952,147.46395 -49.95266,208.639 -16.52988,25.97314 -38.01849,49.15896 -64.33449,65.13734 -26.31601,15.97838 -57.65275,24.42758 -88.24364,20.95799 -24.21986,-2.74699 -47.34025,-12.84677 -66.86042,-27.44507 -19.52018,-14.5983 -35.53216,-33.58417 -48.11746,-54.45898 -25.17059,-41.74962 -36.55573,-90.18313 -46.2171,-137.96647 -9.82222,-48.57884 -18.23531,-98.83816 -8.39238,-147.41281 4.92146,-24.28732 14.5082,-47.84501 29.61994,-67.48503 15.11173,-19.64003 35.93261,-35.20503 59.69089,-42.25053 30.99144,-9.19049 65.6923,-3.14573 92.97567,14.19073 27.28336,17.33645 47.15124,45.31869 56.68659,76.20577 6.62801,21.46957 8.46363,44.51565 4.39534,66.61365 -4.06829,22.09801 -14.13435,43.18744 -29.44452,59.63346 -20.59891,22.12714 -49.66244,34.96416 -79.31892,40.83087 -29.65649,5.8667 -60.17502,5.29215 -90.38307,4.10941 -55.92986,-2.18983 -111.78116,-6.38559 -167.41045,-12.5765 24.64816,-57.16097 25.71294,-124.08002 2.89582,-181.99623 -18.32786,-46.52121 -52.38278,-87.5149 -97.01594,-110.05407 -22.31658,-11.26959 -47.05239,-17.86212 -72.04244,-18.59064 -24.99005,-0.72852 -50.2031,4.45997 -72.61564,15.53749 C 72.757836,218.75807 52.108066,237.42306 36.700765,259.57141 21.293464,281.71977 11.048169,307.2771 5.602669,333.70211 -5.2883317,386.55213 2.9349336,441.80003 19.278698,493.2259 41.156154,562.0636 77.609968,626.23056 125.53902,680.26812 L 216.96843,571.62207 C 174.29899,564.90169 134.88901,539.60117 111.01583,503.60234 93.530934,477.23653 84.296139,445.03055 87.572441,413.564 c 3.276302,-31.46654 19.606419,-61.82347 45.475069,-80.03584 19.76474,-13.91502 44.48736,-20.41241 68.60129,-18.74183 24.11393,1.67057 47.49425,11.37425 66.18247,26.70471 13.22008,10.84479 24.25002,24.62463 30.56924,40.51324 6.31921,15.8886 7.71824,33.93903 2.52047,50.22901 -4.40862,13.81674 -13.5237,26.08452 -25.48015,34.29315 -11.95645,8.20862 -26.68008,12.30716 -41.15818,11.45697 l 16.81823,89.80124 c 57.65473,-10.65411 116.95257,-12.36858 175.12655,-5.0634 34.0179,4.27178 67.59167,11.59519 101.58507,16.05769 33.9934,4.46249 68.82175,6.01602 102.33598,-1.2132 30.70525,-6.6233 59.87639,-20.71168 83.60829,-41.29026 23.73189,-20.57857 41.90637,-47.67136 51.1462,-77.69312 10.94179,-35.5517 9.20016,-74.14152 0.0767,-110.20271 -9.12343,-36.06119 -25.3392,-69.93002 -43.15202,-102.58503 -19.21803,-35.23107 -40.86418,-69.92123 -70.89634,-96.54133 -15.01609,-13.31005 -32.06154,-24.47093 -50.7197,-31.85422 -18.65817,-7.3833 -38.96293,-10.91979 -58.95025,-9.14573 -21.84521,1.93897 -42.93037,10.20458 -61.03612,22.58014 -18.10575,12.37557 -33.29158,28.77193 -45.36547,47.08023 -24.1478,36.6166 -35.68326,80.07067 -43.32445,123.26214 -19.2389,108.74695 -15.83703,222.11046 15.63655,327.96625 15.33996,51.59322 38.84496,103.34954 81.23068,136.52521 26.60215,20.82174 59.45122,33.08699 93.01873,36.88715 33.56751,3.80016 67.81594,-0.66425 100.00105,-10.92767 31.46346,-10.0333 61.15368,-25.60071 87.30044,-45.77404 2.47115,28.51664 -4.1868,57.7546 -18.76143,82.38964 -13.22739,22.35784 -32.6901,40.71658 -54.85284,54.26834 -22.16274,13.55175 -46.97968,22.42395 -72.37487,27.89401 -50.79037,10.94011 -103.35038,8.45124 -155.30403,8.04371 -82.64318,-0.64826 -166.91334,3.91169 -246.32933,-18.96659 -39.708,-11.43914 -77.81757,-29.89203 -108.90175,-57.11982 -31.084182,-27.22779 -54.843561,-63.60059 -63.492497,-104.0082 -6.986084,-32.6388 -3.902363,-67.36103 8.72639,-98.25782 z"
   id="path844"
   inkscape:path-effect="#path-effect846"
   inkscape:original-d="m -59.243925,566.14139 c 22.0052,15.11682 73.879654,280.93228 121.585319,317.15088 C 176.60966,970.04585 331.83193,1005.0185 475.30055,1004.5998 586.25441,1004.2761 719.85356,991.35943 794.11644,908.92226 919.22465,770.0431 869.36849,542.59838 898.54276,357.96808 912.07127,272.35251 931.2519,100 931.2519,100 H 746.12773 c 0,0 105.19493,221.72795 84.90219,335.18404 -10.274,57.44165 -6.90098,151.53823 -49.95266,208.639 -35.1566,46.62929 -95.49068,98.39572 -152.57813,86.09533 C 539.66139,710.77688 482.13017,599.70682 467.30415,510.04785 452.644,421.39196 464.16387,284.66292 548.2226,252.89948 c 54.51877,-20.60111 126.12204,37.08083 149.66226,90.3965 17.32873,39.24741 4.31703,94.9698 -25.04918,126.24711 -40.05408,42.66072 -111.43195,39.56739 -169.70199,44.94028 -55.72434,5.13816 -167.41045,-12.5765 -167.41045,-12.5765 0,0 35.05129,-130.5448 2.89582,-181.99623 C 291.48051,244.48504 177.63824,169.39124 96.94504,206.80342 7.19968,248.4125 6.854992,395.08725 19.278698,493.2259 28.28436,564.36437 69.53905,613.06714 125.53902,680.26812 l 91.42941,-108.64605 c 0,0 -88.24253,-29.97032 -105.9526,-68.01973 -24.122449,-51.82619 -22.002729,-133.62123 22.03168,-170.07418 34.66843,-28.69953 98.68625,-18.9171 134.78376,7.96288 25.82276,19.22889 42.90344,60.07866 33.08971,90.74225 -8.21288,25.66164 -63.82847,60.75342 -66.63833,45.75012 l 16.81823,89.80124 c 0,0 82.66003,-12.11999 175.12655,-5.0634 72.9668,5.56846 151.53048,33.89508 203.92105,14.84449 56.31449,-20.47743 115.68506,-62.17666 134.75449,-118.98338 23.0302,-68.60563 -4.64763,-151.46534 -43.07529,-212.78774 C 681.65121,181.68148 616.2851,98.450967 541.26139,108.25334 460.54516,118.79948 416.0712,223.55933 391.53535,301.17585 358.54663,405.53211 375.64661,524.33446 407.1719,629.1421 c 15.25319,50.71009 37.0492,107.33326 81.23068,136.52521 54.16404,35.78771 130.60815,43.82821 193.01978,25.95948 28.80581,-8.24723 62.40553,-27.28302 87.30044,-45.77404 18.89316,20.53082 0.28939,61.64345 -18.76143,82.38964 C 683.0948,901.05957 566.17396,923.24815 467.42963,918.44845 315.67186,911.07191 126.56359,868.8262 48.706053,738.35384 c -16.849584,-28.23625 5.439265,-92.3606 8.72639,-98.25782 z"
   sodipodi:nodetypes="csaaaccsaaaaaaacaaaccaaaascssaaaaaascaaacc" /></svg>
