<?xml version="1.0" encoding="UTF-8" standalone="no"?>
<svg
   xmlns:dc="http://purl.org/dc/elements/1.1/"
   xmlns:cc="http://creativecommons.org/ns#"
   xmlns:rdf="http://www.w3.org/1999/02/22-rdf-syntax-ns#"
   xmlns:svg="http://www.w3.org/2000/svg"
   xmlns="http://www.w3.org/2000/svg"
   xmlns:sodipodi="http://sodipodi.sourceforge.net/DTD/sodipodi-0.dtd"
   xmlns:inkscape="http://www.inkscape.org/namespaces/inkscape"
   xml:space="preserve"
   width="1000"
   height="1000"
   version="1.1"
   style="clip-rule:evenodd;fill-rule:evenodd;image-rendering:optimizeQuality;shape-rendering:geometricPrecision;text-rendering:geometricPrecision"
   viewBox="0 0 1000 1000"
   id="svg10"
   sodipodi:docname="ങ്ക.svg"
   inkscape:version="1.0.1 (3bc2e813f5, 2020-09-07)"><metadata
   id="metadata14"><rdf:RDF><cc:Work
       rdf:about=""><dc:format>image/svg+xml</dc:format><dc:type
         rdf:resource="http://purl.org/dc/dcmitype/StillImage" /><dc:title /></cc:Work></rdf:RDF></metadata><sodipodi:namedview
   pagecolor="#ffffff"
   bordercolor="#666666"
   borderopacity="1"
   objecttolerance="10"
   gridtolerance="10"
   guidetolerance="10"
   inkscape:pageopacity="0"
   inkscape:pageshadow="2"
   inkscape:window-width="1920"
   inkscape:window-height="1015"
   id="namedview12"
   showgrid="false"
   inkscape:zoom="0.9588368"
   inkscape:cx="315.44364"
   inkscape:cy="505.33877"
   inkscape:window-x="1920"
   inkscape:window-y="0"
   inkscape:window-maximized="1"
   inkscape:current-layer="svg10"
   showguides="true"
   inkscape:guide-bbox="true"
   inkscape:document-rotation="0"
   inkscape:snap-to-guides="true"><sodipodi:guide
     position="0,1000"
     orientation="0,1"
     id="guide16"
     inkscape:label=""
     inkscape:locked="true"
     inkscape:color="rgb(0,0,255)" /><sodipodi:guide
     position="1763.3122,2036.1693"
     orientation="1000,0"
     id="guide18" /><sodipodi:guide
     position="0,200"
     orientation="0,1"
     id="guide20"
     inkscape:label="base"
     inkscape:locked="true"
     inkscape:color="rgb(0,0,255)" /><inkscape:grid
     type="xygrid"
     id="grid24"
     originx="-473.37552"
     originy="-489.69235" /><sodipodi:guide
     position="0,0"
     orientation="0,1"
     id="guide34"
     inkscape:label="bottom"
     inkscape:locked="true"
     inkscape:color="rgb(0,0,255)" /><sodipodi:guide
     position="225.05109,1693.3186"
     orientation="0,1"
     id="guide44"
     inkscape:label=""
     inkscape:locked="false"
     inkscape:color="rgb(0,0,255)" /><sodipodi:guide
     position="0,900"
     orientation="0,1"
     id="guide46"
     inkscape:label=""
     inkscape:locked="true"
     inkscape:color="rgb(0,0,255)" /><sodipodi:guide
     position="692.61855,548.22236"
     orientation="-1,0"
     id="guide841"
     inkscape:label="width"
     inkscape:locked="false"
     inkscape:color="rgb(0,0,255)" /><sodipodi:guide
     position="0,1000"
     orientation="0,1000"
     id="guide860" /><sodipodi:guide
     position="1000,1000"
     orientation="1000,0"
     id="guide862" /><sodipodi:guide
     position="1000,0"
     orientation="0,-1000"
     id="guide864" /><sodipodi:guide
     position="1.142742,802.93787"
     orientation="-1000,0"
     id="guide866" /></sodipodi:namedview>
 <defs
   id="defs4"><inkscape:path-effect
   effect="spiro"
   id="path-effect1521"
   is_visible="true"
   lpeversion="1" /><inkscape:path-effect
   effect="spiro"
   id="path-effect858"
   is_visible="true"
   lpeversion="1" /><inkscape:path-effect
   effect="spiro"
   id="path-effect854"
   is_visible="true"
   lpeversion="1" />
  <style
   type="text/css"
   id="style2">
   <![CDATA[
    .fil0 {fill:#EF7F1A;fill-rule:nonzero}
   ]]>
  </style>
 <inkscape:path-effect
   effect="spiro"
   id="path-effect1214"
   is_visible="true"
   lpeversion="1" /><inkscape:path-effect
   effect="spiro"
   id="path-effect1195"
   is_visible="true"
   lpeversion="1" /><inkscape:path-effect
   effect="spiro"
   id="path-effect992"
   is_visible="true"
   lpeversion="1" /><inkscape:path-effect
   effect="spiro"
   id="path-effect287"
   is_visible="true"
   lpeversion="1" /><inkscape:path-effect
   effect="spiro"
   id="path-effect1032"
   is_visible="true"
   lpeversion="1" /><inkscape:path-effect
   effect="spiro"
   id="path-effect1218"
   is_visible="true"
   lpeversion="1" /><inkscape:path-effect
   effect="spiro"
   id="path-effect309"
   is_visible="true"
   lpeversion="1" /><inkscape:path-effect
   effect="spiro"
   id="path-effect1176"
   is_visible="true"
   lpeversion="1" /></defs>
 
<path
   id="path1164-3-3-2-0"
   style="display:inline;fill:#1a1a1a;fill-rule:nonzero;stroke:none;stroke-width:2.83729;stroke-linecap:butt;stroke-linejoin:miter;stroke-miterlimit:4;stroke-dasharray:none;stroke-opacity:1"
   d="m 50.600969,495.20093 c -0.152372,-30.2745 -3.038024,-60.53472 -8.610391,-90.29237 -9.986794,-53.33164 -28.643401,-105.66111 -28.338862,-159.9189 0.152269,-27.12889 5.259759,-54.59639 17.933547,-78.58337 12.673788,-23.98698 33.363221,-44.26818 58.870776,-53.50748 15.928561,-5.76962 33.345971,-7.13059 50.088521,-4.54314 16.74254,2.58744 32.80274,9.06556 47.02121,18.27657 28.40792,18.40322 48.74796,46.91799 65.23104,76.48142 8.48537,15.21904 16.14036,30.90101 22.91957,46.95289 0.94007,-24.99585 7.49394,-49.76477 19.0392,-71.95448 15.54098,-29.86938 40.77823,-55.2958 72.10226,-67.64518 25.55761,-10.07599 54.48207,-11.096916 80.86339,-3.4325 26.38132,7.66441 50.11174,23.87883 67.3247,45.28984 22.67421,28.20419 33.60431,64.09264 39.79438,99.74765 9.13668,52.62764 8.99908,106.59864 2.98874,159.67428 -8.68934,76.73308 -29.85347,152.52636 -66.88503,220.29164 -19.75225,36.1453 -44.08028,70.03577 -74.08594,98.25446 -30.00565,28.21869 -65.84429,50.66692 -105.25997,62.62676 -45.1846,13.71029 -93.37875,13.33574 -140.49465,10.21932 C 136.05402,800.82004 99.836589,796.65062 69.630004,778.72298 46.442088,764.96093 28.089181,743.50203 17.142657,718.85965 6.8069474,695.59231 2.974067,669.61551 5.1008355,644.2448 7.227604,618.87409 15.222429,594.12301 27.413629,571.77193 52.247952,526.24123 93.89175,491.45118 140.10413,467.90963 186.31651,444.36808 237.1406,431.30929 288.08244,421.577 c 55.03456,-10.51419 111.17187,-17.36642 167.072,-13.55508 55.90013,3.81133 111.80199,18.7155 158.91482,49.04259 25.28125,16.27384 48.3597,37.61453 60.62172,65.06671 10.32327,23.11172 12.36265,49.33321 9.0424,74.42699 -3.32024,25.09378 -11.7749,49.23976 -21.73068,72.51215 -17.5469,41.01721 -39.83105,79.80452 -59.97144,119.61243 -13.31067,26.30883 -25.69526,53.08619 -37.12312,80.26582 L 446.92761,806 c 26.44564,-17.32498 51.79584,-36.32183 75.84898,-56.83945 23.02179,-19.63787 45.04022,-40.88675 61.84968,-66.04805 9.05692,-13.55688 16.57921,-28.28377 20.7518,-44.04468 4.17259,-15.76092 4.89099,-32.62146 0.57372,-48.34336 -5.31704,-19.36267 -18.06618,-36.16853 -33.78829,-48.65851 -15.7221,-12.48997 -34.31761,-20.93136 -53.39856,-27.18445 -33.83087,-11.08684 -69.48951,-15.59097 -105.03436,-17.59335 -56.58608,-3.18772 -114.15324,-0.0493 -168.28829,16.72992 -54.13505,16.77922 -104.84466,48.00607 -138.5688,93.55636 -6.62454,8.94759 -12.622564,18.5056 -16.226997,29.03898 -3.604433,10.53337 -4.694923,22.16251 -1.508897,32.8299 2.959026,9.90735 9.467155,18.51651 17.413054,25.13271 7.9459,6.6162 17.29427,11.35974 26.90686,15.16888 52.03726,20.6206 111.52467,14.24836 164.19202,-4.70516 38.63389,-13.90327 75.42794,-34.76399 103.26444,-64.94688 28.08595,-30.45337 45.98472,-69.26468 56.24093,-109.40242 10.25621,-40.13775 13.22731,-81.77321 14.34719,-123.18546 0.85091,-31.46591 0.4238,-64.09222 -12.68067,-92.71216 -6.55223,-14.30997 -16.31194,-27.33826 -29.11556,-36.49109 -12.80361,-9.15284 -28.75735,-14.22792 -44.42481,-12.73201 -10.89306,1.04005 -21.39304,5.19527 -30.42015,11.38007 -9.02711,6.18481 -16.60979,14.35651 -22.64888,23.48175 -12.07816,18.25048 -17.89676,39.91779 -21.67802,61.47386 -8.50166,48.46591 -7.59096,98.41008 0.93966,146.8709 7.12507,40.47612 19.54239,80.01747 36.83625,117.30024 L 221.87329,606.96707 c 6.38,-18.45127 11.4318,-37.36166 15.10338,-56.53647 6.43408,-33.60198 8.61407,-68.02393 6.35004,-102.16136 -1.94954,-29.39549 -7.16659,-58.46208 -12.15876,-87.49609 -4.58902,-26.68931 -9.1181,-53.80982 -20.7368,-78.27171 -7.49693,-15.78395 -18.14741,-30.45946 -32.65342,-40.20178 -7.25301,-4.87116 -15.414,-8.44984 -23.98963,-10.12106 -8.57562,-1.67121 -17.56626,-1.40515 -25.92885,1.12493 -10.70604,3.23909 -20.1688,10.15975 -26.97753,19.034 -6.808724,8.87425 -11.008493,19.63346 -12.609261,30.70363 -2.089728,14.45158 0.188223,29.3503 5.350013,43.0094 5.161789,13.65911 13.132608,26.13488 22.406398,37.41371 16.30619,19.83167 36.80953,36.19553 59.76354,47.69771 z"
   sodipodi:nodetypes="caaaacaaaaaaaaaaaaaaaaccaaaaaaaaaaaaaaccaaaaaaacc"
   inkscape:path-effect="#path-effect1521"
   inkscape:original-d="m 50.600969,495.20093 c 0,0 -9.659286,-60.07657 -8.610391,-90.29237 3.42305,-98.60873 -31.091213,-233.64765 48.465461,-292.00975 26.359751,-19.337294 68.459941,-2.01322 97.109731,13.73343 29.36405,16.13922 46.86432,48.45669 65.23104,76.48142 9.54655,14.56652 17.91823,41.71132 22.91957,46.95289 5.84843,-22.04444 6.32643,-50.64875 19.0392,-71.95448 16.8864,-28.30047 40.08436,-59.83996 72.10226,-67.64518 49.86835,-12.15674 110.05041,7.50394 148.18809,41.85734 26.59789,23.95866 32.71203,64.65769 39.79438,99.74765 10.53207,52.18183 10.31331,106.94651 2.98874,159.67428 -10.55887,76.01068 -25.6547,155.56782 -66.88503,220.29164 C 447.79578,699.7724 385.50941,761.50459 311.59811,792.91902 268.38416,811.28619 217.9019,806.97289 171.10346,803.13834 136.42986,800.29727 99.406051,796.71512 69.630004,778.72298 46.916273,764.99823 25.618147,744.00817 17.142657,718.85965 1.4461544,672.2849 1.3527215,613.44227 27.413629,571.77193 80.587384,486.74925 189.94515,442.20168 288.08244,421.577 c 106.96751,-22.48046 228.26832,-13.48711 325.98682,35.48751 26.50148,13.28203 50.96111,37.04148 60.62172,65.06671 16.02151,46.47808 0.68254,99.63035 -12.68828,146.93914 -12.1305,42.92029 -40.61239,79.43124 -59.97144,119.61243 -12.79488,26.55674 -36.53483,75.92664 -37.12312,80.26582 L 446.92761,806 c 62.47365,-35.57199 52.31958,-35.75471 75.84898,-56.83945 22.46274,-20.1289 47.66215,-39.4311 61.84968,-66.04805 14.86664,-27.89101 31.08769,-62.32768 21.32552,-92.38804 -11.8976,-36.63593 -52.35186,-59.40312 -87.18685,-75.84296 -32.10367,-15.15084 -69.67735,-20.76752 -105.03436,-17.59335 -108.25601,9.71865 -232.57228,30.94158 -306.85709,110.28628 -14.662419,15.66114 -23.599398,41.23209 -17.735894,61.86888 5.457457,19.20769 25.594604,33.36748 44.319914,40.30159 51.34576,19.01368 111.80469,11.21571 164.19202,-4.70516 38.90643,-11.82393 78.59036,-32.62498 103.26444,-64.94688 49.16263,-64.40077 80.7391,-152.20517 70.58812,-232.58788 -6.93559,-54.92091 -30.9538,-138.78213 -86.22104,-141.93526 -40.57838,-2.31509 -61.70203,57.84162 -74.74705,96.33568 -15.71331,46.36782 -6.63491,98.50243 0.93966,146.8709 6.34067,40.48926 13.90281,107.72133 36.83625,117.30024 L 221.87329,606.96707 c 11.23545,-18.67984 11.96558,-37.28414 15.10338,-56.53647 5.48848,-33.67517 7.6463,-68.06649 6.35004,-102.16136 -1.1187,-29.42436 -6.35121,-58.62886 -12.15876,-87.49609 -5.32336,-26.46053 -4.48373,-56.72327 -20.7368,-78.27171 -19.2931,-25.57894 -51.05389,-54.95298 -82.5719,-49.19791 -20.84483,3.80619 -36.002804,28.85345 -39.586791,49.73763 -4.796705,27.95079 11.399547,57.25615 27.756411,80.42311 14.70074,20.82132 59.76354,47.69771 59.76354,47.69771 z" /></svg>
