<?xml version="1.0" encoding="UTF-8" standalone="no"?>
<svg
   xmlns:dc="http://purl.org/dc/elements/1.1/"
   xmlns:cc="http://creativecommons.org/ns#"
   xmlns:rdf="http://www.w3.org/1999/02/22-rdf-syntax-ns#"
   xmlns:svg="http://www.w3.org/2000/svg"
   xmlns="http://www.w3.org/2000/svg"
   xmlns:sodipodi="http://sodipodi.sourceforge.net/DTD/sodipodi-0.dtd"
   xmlns:inkscape="http://www.inkscape.org/namespaces/inkscape"
   xml:space="preserve"
   width="1000"
   height="1000"
   version="1.1"
   style="clip-rule:evenodd;fill-rule:evenodd;image-rendering:optimizeQuality;shape-rendering:geometricPrecision;text-rendering:geometricPrecision"
   viewBox="0 0 1000 1000"
   id="svg10"
   sodipodi:docname="ങ്ങ.svg"
   inkscape:version="1.0.1 (3bc2e813f5, 2020-09-07)"><metadata
   id="metadata14"><rdf:RDF><cc:Work
       rdf:about=""><dc:format>image/svg+xml</dc:format><dc:type
         rdf:resource="http://purl.org/dc/dcmitype/StillImage" /><dc:title /></cc:Work></rdf:RDF></metadata><sodipodi:namedview
   pagecolor="#ffffff"
   bordercolor="#666666"
   borderopacity="1"
   objecttolerance="10"
   gridtolerance="10"
   guidetolerance="10"
   inkscape:pageopacity="0"
   inkscape:pageshadow="2"
   inkscape:window-width="1920"
   inkscape:window-height="1015"
   id="namedview12"
   showgrid="false"
   inkscape:zoom="1.9176736"
   inkscape:cx="250.49907"
   inkscape:cy="479.00427"
   inkscape:window-x="1920"
   inkscape:window-y="0"
   inkscape:window-maximized="1"
   inkscape:current-layer="svg10"
   showguides="true"
   inkscape:guide-bbox="true"
   inkscape:document-rotation="0"
   inkscape:snap-to-guides="true"><sodipodi:guide
     position="0,1000"
     orientation="0,1"
     id="guide16"
     inkscape:label=""
     inkscape:locked="true"
     inkscape:color="rgb(0,0,255)" /><sodipodi:guide
     position="1763.3122,2036.1693"
     orientation="1000,0"
     id="guide18" /><sodipodi:guide
     position="0,200"
     orientation="0,1"
     id="guide20"
     inkscape:label="base"
     inkscape:locked="true"
     inkscape:color="rgb(0,0,255)" /><inkscape:grid
     type="xygrid"
     id="grid24"
     originx="-473.37552"
     originy="-489.69235" /><sodipodi:guide
     position="0,0"
     orientation="0,1"
     id="guide34"
     inkscape:label="bottom"
     inkscape:locked="true"
     inkscape:color="rgb(0,0,255)" /><sodipodi:guide
     position="225.05109,1693.3186"
     orientation="0,1"
     id="guide44"
     inkscape:label=""
     inkscape:locked="false"
     inkscape:color="rgb(0,0,255)" /><sodipodi:guide
     position="0,900"
     orientation="0,1"
     id="guide46"
     inkscape:label=""
     inkscape:locked="true"
     inkscape:color="rgb(0,0,255)" /><sodipodi:guide
     position="1058.9891,915.98025"
     orientation="-1,0"
     id="guide841"
     inkscape:label=""
     inkscape:locked="false"
     inkscape:color="rgb(0,0,255)" /><sodipodi:guide
     position="0,1000"
     orientation="0,1000"
     id="guide860" /><sodipodi:guide
     position="1000,1000"
     orientation="1000,0"
     id="guide862" /><sodipodi:guide
     position="1000,0"
     orientation="0,-1000"
     id="guide864" /><sodipodi:guide
     position="0,0"
     orientation="-1000,0"
     id="guide866" /></sodipodi:namedview>
 <defs
   id="defs4"><inkscape:path-effect
   effect="spiro"
   id="path-effect860"
   is_visible="true"
   lpeversion="1" /><inkscape:path-effect
   effect="spiro"
   id="path-effect859"
   is_visible="true"
   lpeversion="1" /><inkscape:path-effect
   effect="spiro"
   id="path-effect862"
   is_visible="true"
   lpeversion="1" /><inkscape:path-effect
   effect="spiro"
   id="path-effect1521"
   is_visible="true"
   lpeversion="1" /><inkscape:path-effect
   effect="spiro"
   id="path-effect858"
   is_visible="true"
   lpeversion="1" /><inkscape:path-effect
   effect="spiro"
   id="path-effect854"
   is_visible="true"
   lpeversion="1" />
  <style
   type="text/css"
   id="style2">
   <![CDATA[
    .fil0 {fill:#EF7F1A;fill-rule:nonzero}
   ]]>
  </style>
 <inkscape:path-effect
   effect="spiro"
   id="path-effect1214"
   is_visible="true"
   lpeversion="1" /><inkscape:path-effect
   effect="spiro"
   id="path-effect1195"
   is_visible="true"
   lpeversion="1" /><inkscape:path-effect
   effect="spiro"
   id="path-effect992"
   is_visible="true"
   lpeversion="1" /><inkscape:path-effect
   effect="spiro"
   id="path-effect287"
   is_visible="true"
   lpeversion="1" /><inkscape:path-effect
   effect="spiro"
   id="path-effect1032"
   is_visible="true"
   lpeversion="1" /><inkscape:path-effect
   effect="spiro"
   id="path-effect1218"
   is_visible="true"
   lpeversion="1" /><inkscape:path-effect
   effect="spiro"
   id="path-effect309"
   is_visible="true"
   lpeversion="1" /><inkscape:path-effect
   effect="spiro"
   id="path-effect1176"
   is_visible="true"
   lpeversion="1" /><inkscape:path-effect
   effect="spiro"
   id="path-effect1026"
   is_visible="true"
   lpeversion="1" /></defs>
 
<path
   style="fill:#2d2d2d;fill-rule:nonzero;stroke:none;stroke-width:1px;stroke-linecap:butt;stroke-linejoin:miter;stroke-opacity:1"
   d="M 90.590255,675.19445 54.510028,579.91278 c -0.336244,-34.46412 15.30034,-68.7593 41.539287,-91.1067 26.238945,-22.34739 62.585785,-32.32586 96.557005,-26.50825 35.17123,6.02312 66.43841,28.2074 87.4311,57.06222 20.99268,28.85482 32.31417,63.9284 36.73689,99.33649 4.77286,38.21135 1.53754,78.31088 -15.58984,112.80059 -8.5637,17.24485 -20.55087,32.88091 -35.53898,44.96719 -14.98811,12.08629 -33.01201,20.54906 -52.03551,23.52029 -22.01705,3.43878 -44.90344,-0.56088 -65.1675,-9.83144 C 128.17841,780.8826 110.4724,766.49913 95.965215,749.58412 66.950847,715.75412 50.990255,672.82547 37.953678,630.2068 22.216734,578.7602 9.8713659,526.15648 3.723288,472.70926 -4.1696378,404.09352 -1.5416126,333.15625 21.669144,268.10489 37.981596,222.38699 64.478729,180.11795 99.785485,146.80645 135.09224,113.49496 179.27697,89.336933 226.77693,79.338097 302.19805,63.461802 383.7562,84.801169 444.28247,132.5188 c 35.84089,28.2562 64.88541,65.71287 80.44986,108.6166 15.56445,42.90373 17.13461,91.26837 1.51226,134.15105 -9.27662,25.46391 -24.4552,48.75707 -44.00329,67.52775 47.52893,23.33413 88.22273,60.3903 115.89262,105.53294 26.75072,43.64303 41.32573,96.61247 30.8113,146.70999 -5.25721,25.04876 -16.78717,48.92338 -34.11107,67.7638 -17.3239,18.84041 -40.52073,32.46585 -65.67752,37.17907 -22.06154,4.13331 -45.18513,1.3887 -66.17101,-6.57299 -20.98589,-7.96169 -39.86728,-21.0163 -55.70762,-36.91849 -31.68069,-31.80436 -50.78307,-74.05377 -64.18642,-116.8969 -21.92395,-70.07878 -30.24292,-143.79723 -32.25968,-217.1977 -1.91835,-69.81856 2.31575,-142.02822 32.80289,-204.86806 15.24357,-31.41992 37.0616,-59.96932 65.06496,-80.83531 28.00336,-20.86598 62.35988,-33.75301 97.28225,-33.83087 27.94013,-0.0623 55.59375,7.99532 80.20369,21.22429 24.60994,13.22898 46.27748,31.51097 65.11399,52.14689 13.9449,15.27703 26.42124,31.89393 37.2012,49.54726 11.52892,-46.67362 42.30731,-88.2812 83.56343,-112.96471 28.55406,-17.083876 61.90661,-26.159278 95.17422,-25.481626 33.26761,0.677652 66.3335,11.161121 93.67971,30.118386 29.00921,20.11011 51.23526,49.46284 64.18626,82.29916 12.9509,32.83631 16.7725,69.01666 12.531,104.05893 -6.7304,55.60551 -34.0729,108.47814 -75.55921,146.11004 56.15231,10.15152 106.21431,49.41871 129.44961,101.53639 12.7394,28.57506 17.6679,60.53032 14.546,91.66038 -3.1219,31.13005 -14.2447,61.37431 -31.6889,87.34598 -34.8884,51.94333 -95.07717,85.19811 -157.45039,90.18703 -58.20814,4.65578 -117.97625,-14.75012 -162.34704,-52.7119 l 73.13848,-119.55784 c 12.2015,25.55758 33.84053,46.47707 59.79598,57.80763 25.95544,11.33057 56.00812,12.97652 83.04573,4.54834 16.31572,-5.08595 31.62884,-13.83087 43.46454,-26.15912 11.8357,-12.32825 20.0549,-28.3262 22.0271,-45.30207 1.7923,-15.4279 -1.6135,-31.30967 -8.9475,-45.00072 -7.334,-13.69105 -18.4974,-25.20119 -31.57806,-33.57555 -26.16124,-16.74872 -59.09058,-20.58992 -89.77677,-15.76419 -16.38085,2.57606 -32.39337,7.48301 -47.40505,14.527 l -19.19097,-148.0924 c 31.38711,-0.87107 62.42105,-11.7505 87.48169,-30.66804 13.37461,-10.0961 25.14193,-22.52531 33.37997,-37.11799 8.23804,-14.59268 12.83842,-31.41433 11.8961,-48.14525 -0.79288,-14.07749 -5.51248,-27.88224 -13.30093,-39.63572 -7.78844,-11.75349 -18.60758,-21.44488 -31.02951,-28.11571 -24.84387,-13.34166 -55.69529,-14.01781 -81.84021,-3.45085 -29.33752,11.85731 -52.12529,36.71147 -66.43253,64.93537 -14.30723,28.2239 -20.85441,59.7477 -24.70826,91.15524 -7.23663,58.97612 -5.45649,118.92419 3.46902,177.66844 4.36518,28.72995 10.43147,57.20135 18.15651,85.21543 l -127.69419,7.52793 c 6.5855,-31.00345 11.59698,-62.34119 15.00868,-93.85219 6.4547,-59.61664 7.1033,-120.50162 -6.36149,-178.93539 -6.71497,-29.14128 -17.01547,-57.69448 -33.03039,-82.94973 -16.01491,-25.25525 -37.9777,-47.14537 -64.70508,-60.55999 -25.80867,-12.95351 -55.75482,-17.63523 -84.22281,-12.79229 -28.468,4.84295 -55.28443,19.24802 -74.75558,40.57301 -24.02086,26.30787 -36.12543,61.84313 -39.50375,97.30709 -3.37832,35.46397 1.34828,71.18476 7.39762,106.2919 8.16125,47.36353 18.79226,94.45448 35.27707,139.60048 7.73596,21.18603 16.96931,42.26568 31.68195,59.36045 7.35632,8.54738 16.0535,16.01375 25.9514,21.4179 9.8979,5.40415 21.02145,8.70581 32.29646,8.92329 11.67482,0.22519 23.35627,-2.88225 33.5303,-8.61297 10.17402,-5.73073 18.83693,-14.04628 25.24007,-23.81111 12.80628,-19.52965 16.19543,-44.46251 11.32824,-67.30367 -4.44455,-20.85778 -15.58346,-40.26633 -31.48804,-54.47355 -15.90459,-14.20722 -36.50976,-23.10924 -57.77272,-24.74864 -20.41176,-1.57377 -41.28549,3.55561 -58.64309,14.41059 l -14.62319,-142.1843 c 13.41073,7.12872 30.00537,7.96019 44.06151,2.20769 14.05613,-5.7525 25.30653,-17.97961 29.87165,-32.46498 3.95946,-12.56357 2.97729,-26.34389 -1.0938,-38.87173 -4.0711,-12.52783 -11.08797,-23.91831 -19.07395,-34.39421 -33.07969,-43.3935 -83.6818,-72.13447 -137.30151,-82.24331 -27.74233,-5.23022 -56.49834,-5.70459 -84.16698,-0.0976 -27.66863,5.60701 -54.21951,17.39083 -76.14461,35.17514 -28.54931,23.15747 -48.441,55.76183 -60.626761,90.44379 -12.18576,34.68196 -17.070652,71.52056 -19.340484,108.21087 -3.400235,54.96252 -1.066092,110.40163 9.002465,164.54093 6.100616,32.80342 15.56618,66.15245 36.71786,91.95727 10.57584,12.90241 24.01713,23.64582 39.48035,29.90756 15.46322,6.26174 32.9904,7.86359 49.02361,3.25311 12.26904,-3.52807 23.46268,-10.63476 32.00105,-20.12543 8.53837,-9.49067 14.41233,-21.32502 16.97431,-33.83154 2.56197,-12.50651 1.82396,-25.65295 -1.95995,-37.84552 -3.7839,-12.19256 -10.59115,-23.41388 -19.53576,-32.5227 -15.32303,-15.60434 -36.9586,-24.745 -58.82468,-25.15139 -21.86607,-0.40639 -43.72463,7.85583 -60.05548,22.40209 -21.130244,18.82119 -32.477178,48.08099 -29.560945,76.2274 z"
   id="path857"
   inkscape:path-effect="#path-effect860"
   inkscape:original-d="M 90.590255,675.19445 54.510028,579.91278 c -11.115,4.21229 77.916672,-123.47989 138.096292,-117.61495 66.25125,6.45666 119.05878,90.02995 124.16799,156.39871 C 322.111,688.02019 282.43375,790.10843 213.60998,799.98461 133.00429,811.55149 77.579537,701.34654 37.953678,630.2068 11.8103,583.27197 7.119781,526.3266 3.723288,472.70926 -0.604975,404.38292 -8.551529,329.53724 21.669144,268.10489 62.684029,184.73015 136.79624,102.51226 226.77693,79.338097 299.05582,60.722965 389.29086,82.05412 444.28247,132.5188 c 62.92862,57.74832 92.69206,158.03426 81.96212,242.76765 -3.3752,26.65366 -44.00329,67.52775 -44.00329,67.52775 0,0 101.33765,55.35362 115.89262,105.53294 C 622.36406,631.88231 612.35424,774.635 529.15663,800 450.83207,823.87932 382.59376,711.33705 343.09158,639.61162 307.78179,575.49844 296.26101,494.14237 310.8319,422.41392 335.67721,300.10734 385.95134,137.06782 505.982,102.87968 c 52.18766,-14.864527 103.71589,38.53158 145.31768,73.37118 15.83383,13.26009 37.2012,49.54726 37.2012,49.54726 0,0 41.48436,-92.39495 83.56343,-112.96471 56.5727,-27.654771 136.96817,-31.044107 188.85393,4.63676 55.35206,38.06459 79.62986,119.24415 76.71726,186.35809 -2.3773,54.77882 -75.55921,146.11004 -75.55921,146.11004 0,0 120.43431,47.44247 129.44961,101.53639 17.582,105.49659 -73.7904,233.4522 -174.59329,269.19339 -53.62565,19.01379 -162.34704,-52.7119 -162.34704,-52.7119 l 73.13848,-119.55784 c 0,0 92.0158,73.11889 142.84171,62.35597 31.60974,-6.69371 68.75424,-39.3156 65.49164,-71.46119 -5.4147,-53.34889 -77.40457,-85.55121 -130.30233,-94.34046 -16.30347,-2.7089 -47.40505,14.527 -47.40505,14.527 l -19.19097,-148.0924 c 0,0 64.04615,-10.52811 87.48169,-30.66804 24.40563,-20.9736 54.30607,-54.37658 45.27607,-85.26324 -13.55126,-46.3514 -79.55534,-83.81585 -126.17065,-71.20228 -58.1588,15.7371 -75.97289,97.78077 -91.14079,156.09061 -14.91206,57.32634 -3.3117,118.82372 3.46902,177.66844 3.32462,28.85183 18.15651,85.21543 18.15651,85.21543 l -127.69419,7.52793 c 0,0 13.06088,-62.23056 15.00868,-93.85219 3.66933,-59.56991 12.22631,-122.22091 -6.36149,-178.93539 -18.02525,-54.99805 -44.42664,-120.97387 -97.73547,-143.50972 -49.55014,-20.9469 -121.25592,-10.57295 -158.97839,27.78072 -48.17701,48.98314 -35.23502,134.96531 -32.10613,203.59899 2.1858,47.94646 11.54985,97.87927 35.27707,139.60048 20.93081,36.80409 47.75037,93.38052 89.92981,89.70164 40.47943,-3.5306 74.80634,-59.36829 70.09861,-99.72775 -4.60915,-39.51433 -59.50618,-52.81379 -89.26076,-79.22219 -29.75459,-26.4084 -58.64309,14.41059 -58.64309,14.41059 l -14.62319,-142.1843 c 0,0 62.18649,-6.35993 73.93316,-30.25729 11.17408,-22.73249 -4.8409,-53.09879 -20.16775,-73.26594 -32.28073,-42.47516 -84.65154,-73.63135 -137.30151,-82.24331 -53.98404,-8.83018 -118.53556,-0.23551 -160.31159,35.07756 -54.51508,46.08132 -68.311624,128.23074 -79.967245,198.65466 -8.969099,54.1918 -13.407229,114.39114 9.002465,164.54093 24.07287,53.87174 68.58211,141.65912 125.22182,125.11794 40.74017,-11.89785 62.96424,-101.04076 27.47965,-124.32519 -24.38035,-15.998 -85.91888,-24.76455 -118.88016,-2.7493 -22.662712,15.13671 -29.560945,76.2274 -29.560945,76.2274 z"
   sodipodi:nodetypes="ccaaaaaaaaacaaaaaacaaacaaccaaaccaaaaaccaaaaaaaasccaaaaaaasac" /></svg>
