<?xml version="1.0" encoding="UTF-8"?>
<!DOCTYPE svg PUBLIC "-//W3C//DTD SVG 1.1//EN" "http://www.w3.org/Graphics/SVG/1.1/DTD/svg11.dtd">
<!-- Creator: CorelDRAW X8 -->
<svg xmlns="http://www.w3.org/2000/svg" xml:space="preserve" width="1782px" height="1486px" version="1.1" style="shape-rendering:geometricPrecision; text-rendering:geometricPrecision; image-rendering:optimizeQuality; fill-rule:evenodd; clip-rule:evenodd"
viewBox="0 0 1782 1486"
 xmlns:xlink="http://www.w3.org/1999/xlink">
 <defs>
  <style type="text/css">
   <![CDATA[
    .fil0 {fill:#E31E24;fill-rule:nonzero}
   ]]>
  </style>
 </defs>
 <g id="Layer_x0020_1">
  <metadata id="CorelCorpID_0Corel-Layer"/>
  <path class="fil0" d="M882 1486c112,0 223,-10 331,-37 39,-10 77,-22 115,-35 127,-44 242,-113 324,-208 81,-94 130,-208 130,-332 0,-142 -64,-283 -191,-363 -78,-49 -153,-73 -257,-73l-20 0c-5,-87 -23,-176 -66,-253 -77,-136 -213,-185 -365,-185 -104,0 -208,23 -288,91 -67,-63 -163,-91 -254,-91 -92,0 -190,28 -258,90 -52,46 -83,107 -83,177 0,71 31,140 84,188 19,18 40,28 62,41 -23,13 -45,33 -64,52 -53,52 -82,116 -82,191 0,71 29,139 81,189 68,65 166,96 260,96 92,0 184,-29 243,-102 81,76 190,102 299,102 151,0 285,-48 362,-181 51,-88 67,-193 70,-293l19 0c46,0 88,20 124,47 86,64 121,173 121,277 0,101 -29,202 -92,282 -51,65 -120,115 -200,151 3,-9 4,-18 4,-28 0,-50 -34,-87 -74,-113 -49,-31 -119,-42 -176,-42 -52,0 -111,10 -158,35 -47,-25 -106,-35 -158,-35 -57,0 -127,11 -176,42 -40,25 -73,65 -73,114 0,82 81,144 152,169 81,29 170,37 254,37zm-429 -1047l-65 0c-50,0 -94,-7 -131,-41 -37,-34 -56,-83 -55,-131 0,-45 19,-89 53,-119 22,-19 52,-36 82,-36 32,0 62,15 85,38 35,34 50,84 50,133 0,16 -2,32 -5,47 -8,37 -12,71 -14,109zm659 0l-457 0c10,-156 66,-327 228,-327 166,0 220,183 229,327zm-772 473c-31,0 -62,-19 -83,-39 -37,-36 -55,-85 -55,-136 0,-52 20,-98 57,-134 36,-35 80,-53 130,-53l62 0c2,42 6,81 13,123 3,17 5,34 5,52 0,53 -15,108 -52,147 -19,20 -48,40 -77,40zm543 0c-174,0 -223,-197 -229,-362l459 0c-6,165 -56,362 -230,362zm-1 475c-57,0 -128,-4 -180,-27 -34,-15 -58,-40 -58,-78 0,-43 45,-61 82,-61 46,0 66,42 66,83 0,40 59,51 91,51 32,0 91,-11 91,-51 0,-41 20,-83 65,-83 37,0 83,18 83,61 0,38 -24,63 -58,78 -53,24 -124,27 -182,27z"/>
 </g>
</svg>
