<?xml version="1.0" encoding="UTF-8" standalone="no"?>
<svg
   xmlns:dc="http://purl.org/dc/elements/1.1/"
   xmlns:cc="http://creativecommons.org/ns#"
   xmlns:rdf="http://www.w3.org/1999/02/22-rdf-syntax-ns#"
   xmlns:svg="http://www.w3.org/2000/svg"
   xmlns="http://www.w3.org/2000/svg"
   xmlns:sodipodi="http://sodipodi.sourceforge.net/DTD/sodipodi-0.dtd"
   xmlns:inkscape="http://www.inkscape.org/namespaces/inkscape"
   xml:space="preserve"
   width="1000"
   height="1000"
   version="1.1"
   style="clip-rule:evenodd;fill-rule:evenodd;image-rendering:optimizeQuality;shape-rendering:geometricPrecision;text-rendering:geometricPrecision"
   viewBox="0 0 1000 1000"
   id="svg10"
   sodipodi:docname="ച.svg"
   inkscape:version="1.0.1 (3bc2e813f5, 2020-09-07)"><metadata
   id="metadata14"><rdf:RDF><cc:Work
       rdf:about=""><dc:format>image/svg+xml</dc:format><dc:type
         rdf:resource="http://purl.org/dc/dcmitype/StillImage" /><dc:title /></cc:Work></rdf:RDF></metadata><sodipodi:namedview
   pagecolor="#ffffff"
   bordercolor="#666666"
   borderopacity="1"
   objecttolerance="10"
   gridtolerance="10"
   guidetolerance="10"
   inkscape:pageopacity="0"
   inkscape:pageshadow="2"
   inkscape:window-width="1920"
   inkscape:window-height="1015"
   id="namedview12"
   showgrid="false"
   inkscape:zoom="0.84890884"
   inkscape:cx="199.00498"
   inkscape:cy="525.02122"
   inkscape:window-x="1920"
   inkscape:window-y="0"
   inkscape:window-maximized="1"
   inkscape:current-layer="svg10"
   showguides="true"
   inkscape:guide-bbox="true"
   inkscape:document-rotation="0"><sodipodi:guide
     position="0,1000"
     orientation="0,1"
     id="guide16"
     inkscape:label=""
     inkscape:locked="true"
     inkscape:color="rgb(0,0,255)" /><sodipodi:guide
     position="1763.3122,2036.1693"
     orientation="1000,0"
     id="guide18" /><sodipodi:guide
     position="0,200"
     orientation="0,1"
     id="guide20"
     inkscape:label="base"
     inkscape:locked="true"
     inkscape:color="rgb(0,0,255)" /><inkscape:grid
     type="xygrid"
     id="grid24"
     originx="-473.37552"
     originy="-489.69235" /><sodipodi:guide
     position="0,0"
     orientation="0,1"
     id="guide34"
     inkscape:label="bottom"
     inkscape:locked="true"
     inkscape:color="rgb(0,0,255)" /><sodipodi:guide
     position="225.05109,1693.3186"
     orientation="0,1"
     id="guide44"
     inkscape:label=""
     inkscape:locked="false"
     inkscape:color="rgb(0,0,255)" /><sodipodi:guide
     position="0,900"
     orientation="0,1"
     id="guide46"
     inkscape:label=""
     inkscape:locked="true"
     inkscape:color="rgb(0,0,255)" /><sodipodi:guide
     position="326.3347,591.47032"
     orientation="1,0"
     id="guide841" /></sodipodi:namedview>
 <defs
   id="defs4"><inkscape:path-effect
   effect="spiro"
   id="path-effect851"
   is_visible="true"
   lpeversion="1" />
  <style
   type="text/css"
   id="style2">
   <![CDATA[
    .fil0 {fill:#EF7F1A;fill-rule:nonzero}
   ]]>
  </style>
 <inkscape:path-effect
   effect="spiro"
   id="path-effect1214"
   is_visible="true"
   lpeversion="1" /><inkscape:path-effect
   effect="spiro"
   id="path-effect1195"
   is_visible="true"
   lpeversion="1" /><inkscape:path-effect
   effect="spiro"
   id="path-effect992"
   is_visible="true"
   lpeversion="1" /><inkscape:path-effect
   effect="spiro"
   id="path-effect1060"
   is_visible="true"
   lpeversion="1" /><inkscape:path-effect
   effect="spiro"
   id="path-effect1047"
   is_visible="true"
   lpeversion="1" /><inkscape:path-effect
   effect="spiro"
   id="path-effect1085"
   is_visible="true"
   lpeversion="1" /></defs>
 
<path
   style="display:inline;fill:#1a1a1a;stroke:#000000;stroke-width:2.98568px;stroke-linecap:butt;stroke-linejoin:miter;stroke-opacity:1"
   d="m 191.27124,295.08226 c 9.69996,-38.19925 36.03336,-71.52776 70.10099,-91.34361 34.06764,-19.81584 75.34432,-26.2794 114.18423,-19.59112 38.57602,6.64284 74.54748,25.87577 103.14531,52.60403 28.59784,26.72827 49.96688,60.73459 63.89773,97.31557 29.95501,78.65875 24.71948,169.78172 -13.10683,244.97262 -24.15175,48.00869 -61.05792,89.52803 -105.90401,119.1417 55.52641,3.60044 112.15288,-21.2448 147.10254,-64.54222 33.81498,-41.89171 46.45913,-97.04864 51.02839,-150.69088 5.42832,-63.72744 0.79231,-128.47487 -15.67026,-190.27809 -12.57756,-47.21823 -32.14506,-93.72102 -31.43189,-142.58048 0.2573,-17.62727 3.20204,-35.21286 8.70122,-51.962364 L 815.82581,100 c -26.95599,12.59668 -50.83266,31.72315 -69.00906,55.27989 -26.01616,33.71711 -39.87869,75.65136 -45.03219,117.92577 -5.1535,42.2744 -2.02467,85.13029 3.1744,127.39912 5.95626,48.42483 14.61369,96.47105 23.21734,144.49623 7.0225,39.19932 13.98583,79.75135 4.69341,118.47542 -9.55517,39.81902 -36.11347,74.42646 -69.61715,97.97131 -33.50367,23.54484 -73.55931,36.61961 -114.11492,42.28513 -71.49838,9.98814 -143.97993,-2.18732 -215.42662,-12.53873 -65.47792,-9.48663 -131.56117,-17.47591 -197.65025,-14.37949 -34.62976,1.62248 -69.116142,6.29361 -102.92975,13.94167 L -35.40595,529.50199 c 38.9635546,73.24088 104.839469,131.77418 182.15516,161.85191 38.2141,14.86624 79.47318,22.96943 120.35965,19.86789 40.88646,-3.10153 81.3685,-17.85604 112.37964,-44.682 32.20875,-27.86194 52.89084,-67.50929 62.55581,-108.98554 9.66497,-41.47626 8.89063,-84.81279 3.16231,-127.01324 -2.93511,-21.62288 -7.26211,-43.39588 -17.13013,-62.8583 -9.86802,-19.46243 -25.91248,-36.57598 -46.51567,-43.76434 -10.99583,-3.8364 -22.96826,-4.72648 -34.46018,-2.83916 -11.49192,1.88732 -22.49102,6.52386 -32.0337,13.19944 -19.08536,13.35117 -31.9246,34.67175 -36.95168,57.41451 -5.02707,22.74275 -2.59443,46.76865 4.77661,68.86327 7.37104,22.09462 19.52557,42.36752 33.7741,60.7926 17.29435,22.3637 37.79242,42.24599 60.67304,58.85041 l -205.59683,8.84859 c 13.10161,-15.37221 22.75306,-33.66841 28.04317,-53.16127 10.60848,-39.08984 3.52886,-80.54204 -3.76531,-120.38361 -7.29416,-39.84157 -14.71757,-81.16304 -4.7488,-120.42089 z"
   id="path873-9"
   inkscape:path-effect="#path-effect1085"
   inkscape:original-d="m 191.27124,295.08226 c 34.17265,-63.03228 112.90736,-117.72022 184.28522,-110.93473 74.48196,7.08056 138.39359,80.8044 167.04304,149.9196 31.31327,75.54149 20.45401,178.29275 -13.10683,244.97262 -23.46555,45.27798 -64.59062,88.69178 -105.90401,119.1417 0,0 110.92102,-25.06936 147.10254,-64.54222 35.83405,-39.09379 48.56166,-85.41564 51.02839,-150.69088 3.02083,-63.56901 -6.18669,-127.34791 -15.67026,-190.27809 -7.25237,-48.12459 -30.18938,-93.92834 -31.43189,-142.58048 -0.44834,-17.55628 50.02369,-71.635073 8.70122,-51.962364 L 815.82581,100 c 0,0 -54.19417,30.48322 -69.00906,55.27989 -43.11399,72.16272 -41.45635,162.36916 -41.85779,245.32489 -0.23606,48.78265 18.37359,95.95414 23.21734,144.49623 3.92426,39.3275 21.51335,82.71036 4.69341,118.47542 -32.7903,69.72364 -110.0546,117.71262 -183.73207,140.25644 -68.7826,21.04609 -143.6499,-7.83917 -215.42662,-12.53873 -65.9164,-4.31586 -131.62445,-16.42711 -197.65025,-14.37949 -34.60658,1.07323 -102.92975,13.94167 -102.92975,13.94167 L -35.40595,529.50199 c 0,0 104.805347,137.06482 182.15516,161.85191 74.2978,23.80906 173.20328,25.60908 232.73929,-24.81411 62.31361,-52.77564 76.56984,-155.06363 65.71812,-235.99878 -5.50051,-41.02425 -22.50597,-111.17852 -63.6458,-106.62264 -68.85327,7.62491 -81.46491,130.16741 -64.89485,197.43066 6.73938,27.35734 60.67304,58.85041 60.67304,58.85041 l -205.59683,8.84859 c -7.31178,-31.09067 23.57258,-33.63159 28.04317,-53.16127 17.92235,-78.29317 -46.79448,-170.19539 -8.51411,-240.8045 z"
   sodipodi:nodetypes="aaaccacaaccaaaaaaaccaaaaaccaa" /></svg>
