<?xml version="1.0" encoding="UTF-8"?>
<!DOCTYPE svg PUBLIC "-//W3C//DTD SVG 1.1//EN" "http://www.w3.org/Graphics/SVG/1.1/DTD/svg11.dtd">
<!-- Creator: CorelDRAW X8 -->
<svg xmlns="http://www.w3.org/2000/svg" xml:space="preserve" width="1668px" height="1024px" version="1.1" style="shape-rendering:geometricPrecision; text-rendering:geometricPrecision; image-rendering:optimizeQuality; fill-rule:evenodd; clip-rule:evenodd"
viewBox="0 0 1668 1024"
 xmlns:xlink="http://www.w3.org/1999/xlink">
 <defs>
  <style type="text/css">
   <![CDATA[
    .fil0 {fill:#EF7F1A;fill-rule:nonzero}
   ]]>
  </style>
 </defs>
 <g id="Layer_x0020_1">
  <metadata id="CorelCorpID_0Corel-Layer"/>
  <path class="fil0" d="M1566 1012c32,0 102,-14 102,-56l0 -888c0,-42 -69,-56 -102,-56 -32,0 -101,14 -101,56l0 833 -376 0c146,-96 208,-252 208,-423 0,-93 -26,-214 -97,-308 -81,-106 -208,-158 -340,-158 -88,0 -172,23 -234,72 -63,-49 -145,-72 -232,-72 -134,0 -271,59 -342,177 -37,62 -52,139 -52,212 0,160 73,321 226,387 18,8 40,12 63,12 29,0 58,-7 79,-22 15,-11 22,-23 22,-34 0,-18 -16,-35 -39,-45 -105,-46 -148,-190 -148,-297 0,-61 11,-127 41,-177 30,-50 89,-100 150,-100 86,0 131,97 131,172l0 445c0,44 67,58 101,58 33,0 101,-14 101,-58l0 -448c0,-76 45,-170 131,-169 63,0 119,42 156,90 58,77 80,182 80,263 0,300 -174,423 -452,423l-534 0c-32,0 -101,14 -101,55 0,42 69,56 101,56l1458 0z"/>
 </g>
</svg>
