<?xml version="1.0" encoding="UTF-8" standalone="no"?>
<svg
   xmlns:dc="http://purl.org/dc/elements/1.1/"
   xmlns:cc="http://creativecommons.org/ns#"
   xmlns:rdf="http://www.w3.org/1999/02/22-rdf-syntax-ns#"
   xmlns:svg="http://www.w3.org/2000/svg"
   xmlns="http://www.w3.org/2000/svg"
   xmlns:sodipodi="http://sodipodi.sourceforge.net/DTD/sodipodi-0.dtd"
   xmlns:inkscape="http://www.inkscape.org/namespaces/inkscape"
   xml:space="preserve"
   width="1000"
   height="1000"
   version="1.1"
   style="clip-rule:evenodd;fill-rule:evenodd;image-rendering:optimizeQuality;shape-rendering:geometricPrecision;text-rendering:geometricPrecision"
   viewBox="0 0 1000 1000"
   id="svg10"
   sodipodi:docname="ച്ച.svg"
   inkscape:version="1.0.1 (3bc2e813f5, 2020-09-07)"><metadata
   id="metadata14"><rdf:RDF><cc:Work
       rdf:about=""><dc:format>image/svg+xml</dc:format><dc:type
         rdf:resource="http://purl.org/dc/dcmitype/StillImage" /><dc:title /></cc:Work></rdf:RDF></metadata><sodipodi:namedview
   pagecolor="#ffffff"
   bordercolor="#666666"
   borderopacity="1"
   objecttolerance="10"
   gridtolerance="10"
   guidetolerance="10"
   inkscape:pageopacity="0"
   inkscape:pageshadow="2"
   inkscape:window-width="1920"
   inkscape:window-height="1015"
   id="namedview12"
   showgrid="false"
   inkscape:zoom="0.84890884"
   inkscape:cx="268.39615"
   inkscape:cy="430.2591"
   inkscape:window-x="1920"
   inkscape:window-y="0"
   inkscape:window-maximized="1"
   inkscape:current-layer="svg10"
   showguides="true"
   inkscape:guide-bbox="true"
   inkscape:document-rotation="0"><sodipodi:guide
     position="0,1000"
     orientation="0,1"
     id="guide16"
     inkscape:label=""
     inkscape:locked="true"
     inkscape:color="rgb(0,0,255)" /><sodipodi:guide
     position="1763.3122,2036.1693"
     orientation="1000,0"
     id="guide18" /><sodipodi:guide
     position="0,200"
     orientation="0,1"
     id="guide20"
     inkscape:label="base"
     inkscape:locked="true"
     inkscape:color="rgb(0,0,255)" /><inkscape:grid
     type="xygrid"
     id="grid24"
     originx="-473.37552"
     originy="-489.69235" /><sodipodi:guide
     position="0,0"
     orientation="0,1"
     id="guide34"
     inkscape:label="bottom"
     inkscape:locked="true"
     inkscape:color="rgb(0,0,255)" /><sodipodi:guide
     position="225.05109,1693.3186"
     orientation="0,1"
     id="guide44"
     inkscape:label=""
     inkscape:locked="false"
     inkscape:color="rgb(0,0,255)" /><sodipodi:guide
     position="0,900"
     orientation="0,1"
     id="guide46"
     inkscape:label=""
     inkscape:locked="true"
     inkscape:color="rgb(0,0,255)" /><sodipodi:guide
     position="833.32849,556.15364"
     orientation="1,0"
     id="guide841" /></sodipodi:namedview>
 <defs
   id="defs4"><inkscape:path-effect
   effect="spiro"
   id="path-effect851"
   is_visible="true"
   lpeversion="1" />
  <style
   type="text/css"
   id="style2">
   <![CDATA[
    .fil0 {fill:#EF7F1A;fill-rule:nonzero}
   ]]>
  </style>
 <inkscape:path-effect
   effect="spiro"
   id="path-effect1214"
   is_visible="true"
   lpeversion="1" /><inkscape:path-effect
   effect="spiro"
   id="path-effect1195"
   is_visible="true"
   lpeversion="1" /><inkscape:path-effect
   effect="spiro"
   id="path-effect992"
   is_visible="true"
   lpeversion="1" /><inkscape:path-effect
   effect="spiro"
   id="path-effect1060"
   is_visible="true"
   lpeversion="1" /><inkscape:path-effect
   effect="spiro"
   id="path-effect1047"
   is_visible="true"
   lpeversion="1" /><inkscape:path-effect
   effect="spiro"
   id="path-effect1085"
   is_visible="true"
   lpeversion="1" /></defs>
 
<path
   style="display:inline;fill:#1a1a1a;stroke:#000000;stroke-width:2.98568px;stroke-linecap:butt;stroke-linejoin:miter;stroke-opacity:1"
   d="m 411.55646,184.14753 c 39.92473,0.64295 78.25219,19.73799 106.73324,47.72418 28.48106,27.9862 47.74802,64.29292 60.3098,102.19542 26.3788,79.5924 23.61776,169.59294 -13.10683,244.97262 -23.56454,48.36781 -60.63244,90.06908 -105.90401,119.1417 55.52641,3.60044 112.15288,-21.2448 147.10254,-64.54222 33.81498,-41.89171 46.45913,-97.04864 51.02839,-150.69088 5.42832,-63.72744 0.79231,-128.47487 -15.67026,-190.27809 -12.57756,-47.21823 -32.14506,-93.72102 -31.43189,-142.58048 0.2573,-17.62727 3.20204,-35.21286 8.70122,-51.962364 L 851.82581,100 c -26.95599,12.59668 -50.83266,31.72315 -69.00906,55.27989 -26.01616,33.71711 -39.87869,75.65136 -45.03219,117.92577 -5.1535,42.2744 -2.02467,85.13029 3.1744,127.39912 5.95626,48.42483 14.61369,96.47105 23.21734,144.49623 7.0225,39.19932 13.98583,79.75135 4.69341,118.47542 -9.55517,39.81902 -36.11347,74.42646 -69.61715,97.97131 -33.50367,23.54484 -73.55931,36.61961 -114.11492,42.28513 -71.49838,9.98814 -143.97993,-2.18732 -215.42662,-12.53873 -65.47792,-9.48663 -131.56117,-17.47591 -197.65025,-14.37949 -34.62976,1.62248 -69.11614,6.29361 -102.92975,13.94167 L 0.59405,529.50199 c 38.951156,73.24951 104.83236,131.78751 182.15516,161.85191 38.21423,14.85833 79.47198,22.95054 120.35546,19.84602 40.88348,-3.10453 81.36071,-17.85223 112.38383,-44.66013 32.2292,-27.8501 52.94904,-67.48774 62.62832,-108.96859 9.67928,-41.48085 8.89326,-84.83221 3.0898,-127.03019 -2.97102,-21.60282 -7.34721,-43.34685 -17.22282,-62.78858 -9.87561,-19.44174 -25.87125,-36.54468 -46.42298,-43.83406 -17.10829,-6.06804 -36.49027,-4.865 -53.12839,2.39363 -16.63812,7.25864 -30.49828,20.34852 -39.56808,36.07281 -9.06979,15.7243 -13.44297,33.97374 -13.49618,52.12621 -0.0532,18.15246 4.12527,36.20109 11.21668,52.91117 14.69012,34.61554 42.23803,63.59859 76.0636,80.0262 l -173.0263,6.19784 c 9.27864,-19.24063 15.54924,-39.92823 18.51463,-61.08246 9.30118,-66.3519 -14.38232,-133.82304 -50.85972,-190.02345 -9.97561,-15.36933 -21.23022,-30.42323 -36.4409,-40.63913 -7.60534,-5.10795 -16.14898,-8.9234 -25.1613,-10.56969 -9.01233,-1.6463 -18.50255,-1.06637 -27.04618,2.241 -10.109097,3.91339 -18.58157,11.54729 -24.297241,20.75814 -5.715671,9.21084 -8.76739,19.93046 -9.672856,30.73271 -1.810932,21.6045 4.700617,42.97908 11.868814,63.44004 16.661088,47.55755 37.503023,94.05564 66.884553,134.99509 33.47096,46.63756 77.82673,85.41112 128.5206,112.34618 L 92.22606,616.68413 C 93.476601,587.01792 90.902557,557.19263 84.587739,528.17934 73.640243,477.88132 51.72041,430.78323 32.560378,383.00633 13.400346,335.22944 -3.3218687,285.22798 -2.988024,233.75345 -2.8142283,206.9564 2.1736722,179.82886 14.601054,156.08708 27.028435,132.3453 47.340977,112.20441 72.475821,102.91186 c 27.900689,-10.315105 59.795389,-6.526208 86.658979,6.24866 26.86358,12.77487 49.07662,33.87715 67.09233,57.54746 27.24045,35.79043 45.76295,78.16792 53.52962,122.47002 6.31588,-29.77754 23.25288,-57.18808 47.05853,-76.15867 23.80564,-18.97059 54.30515,-29.36194 84.74118,-28.8718 z"
   id="path873-9"
   sodipodi:nodetypes="aaccacaaccaaaaaaaccaaaaaccaaaaaccaaaaca"
   inkscape:original-d="m 411.55646,184.14753 c 74.78566,2.19119 138.39359,80.8044 167.04304,149.9196 31.31327,75.54149 20.45401,178.29275 -13.10683,244.97262 -23.46555,45.27798 -64.59062,88.69178 -105.90401,119.1417 0,0 110.92102,-25.06936 147.10254,-64.54222 35.83405,-39.09379 48.56166,-85.41564 51.02839,-150.69088 3.02083,-63.56901 -6.18669,-127.34791 -15.67026,-190.27809 -7.25237,-48.12459 -30.18938,-93.92834 -31.43189,-142.58048 -0.44834,-17.55628 50.02369,-71.635073 8.70122,-51.962364 L 851.82581,100 c 0,0 -54.19417,30.48322 -69.00906,55.27989 -43.11399,72.16272 -41.45635,162.36916 -41.85779,245.32489 -0.23606,48.78265 18.37359,95.95414 23.21734,144.49623 3.92426,39.3275 21.51335,82.71036 4.69341,118.47542 -32.7903,69.72364 -110.0546,117.71262 -183.73207,140.25644 -68.7826,21.04609 -143.6499,-7.83917 -215.42662,-12.53873 -65.9164,-4.31586 -131.62445,-16.42711 -197.65025,-14.37949 -34.60658,1.07323 -102.92975,13.94167 -102.92975,13.94167 L 0.59405,529.50199 c 0,0 104.80535,137.06482 182.15516,161.85191 74.2978,23.80906 173.20328,25.60908 232.73929,-24.81411 62.31361,-52.77564 76.56984,-155.06363 65.71812,-235.99878 -5.50051,-41.02425 -22.26566,-105.66049 -63.6458,-106.62264 -57.34668,-1.3334 -99.99923,86.362 -94.97597,143.50382 3.22283,36.66119 76.0636,80.0262 76.0636,80.0262 l -173.0263,6.19784 c -7.31178,-31.09067 18.16587,-39.80972 18.51463,-61.08246 1.07486,-65.56186 -10.4595,-138.37719 -50.85972,-190.02345 -20.79936,-26.58919 -58.07817,-63.28775 -88.64838,-48.96782 -35.32834,16.54877 -27.352469,76.27371 -22.101283,114.93089 6.759613,49.76164 36.244503,95.2069 66.884553,134.99509 34.71699,45.08237 128.5206,112.34618 128.5206,112.34618 l -185.70649,0.83947 c 0,0 -2.11574,-59.41307 -7.638321,-88.50479 C 65.491439,427.58439 -14.942651,335.44465 -2.988024,233.75345 2.890316,183.74976 24.798407,119.09172 72.475821,102.91186 125.01976,85.08049 186.6257,127.84219 226.22713,166.70798 c 31.79733,31.20665 53.52962,122.47002 53.52962,122.47002 0,0 75.64694,-106.67573 131.79971,-105.03047 z"
   inkscape:path-effect="#path-effect1085" /></svg>
