<?xml version="1.0" encoding="UTF-8"?>
<!DOCTYPE svg PUBLIC "-//W3C//DTD SVG 1.1//EN" "http://www.w3.org/Graphics/SVG/1.1/DTD/svg11.dtd">
<!-- Creator: CorelDRAW X8 -->
<svg xmlns="http://www.w3.org/2000/svg" xml:space="preserve" width="1518px" height="1420px" version="1.1" style="shape-rendering:geometricPrecision; text-rendering:geometricPrecision; image-rendering:optimizeQuality; fill-rule:evenodd; clip-rule:evenodd"
viewBox="0 0 1518 1420"
 xmlns:xlink="http://www.w3.org/1999/xlink">
 <defs>
  <style type="text/css">
   <![CDATA[
    .fil0 {fill:#EF7F1A;fill-rule:nonzero}
   ]]>
  </style>
 </defs>
 <g id="Layer_x0020_1">
  <metadata id="CorelCorpID_0Corel-Layer"/>
  <path class="fil0" d="M1416 1420c33,0 102,-14 102,-56l0 -1308c0,-42 -69,-56 -102,-56 -32,0 -101,14 -101,56l-1 832 -481 0c82,-70 130,-163 130,-272 0,-207 -181,-306 -371,-306 -160,0 -367,87 -369,269 -1,71 35,132 88,178 25,22 59,32 92,32 19,0 39,-3 56,-9 25,-9 45,-28 45,-48 0,-10 -5,-20 -17,-30 -37,-30 -61,-74 -61,-122 0,-87 80,-158 166,-158 108,0 170,94 170,194 1,141 -107,272 -258,272l-402 0c-33,0 -102,14 -102,56 0,42 69,56 102,56l682 0c1,9 1,18 1,26 0,139 -108,282 -256,282l-95 0c-32,0 -101,14 -101,56 0,42 69,56 101,56l982 0zm-101 -112l-457 0c79,-68 134,-177 129,-282l-1 -26 328 0 1 308z"/>
 </g>
</svg>
