<?xml version="1.0" encoding="UTF-8" standalone="no"?>
<svg
   xmlns:dc="http://purl.org/dc/elements/1.1/"
   xmlns:cc="http://creativecommons.org/ns#"
   xmlns:rdf="http://www.w3.org/1999/02/22-rdf-syntax-ns#"
   xmlns:svg="http://www.w3.org/2000/svg"
   xmlns="http://www.w3.org/2000/svg"
   xmlns:sodipodi="http://sodipodi.sourceforge.net/DTD/sodipodi-0.dtd"
   xmlns:inkscape="http://www.inkscape.org/namespaces/inkscape"
   xml:space="preserve"
   width="2000"
   height="1000"
   version="1.1"
   style="clip-rule:evenodd;fill-rule:evenodd;image-rendering:optimizeQuality;shape-rendering:geometricPrecision;text-rendering:geometricPrecision"
   viewBox="0 0 2000 1000"
   id="svg10"
   sodipodi:docname="ഛ.svg"
   inkscape:version="1.0.1 (3bc2e813f5, 2020-09-07)"><metadata
   id="metadata14"><rdf:RDF><cc:Work
       rdf:about=""><dc:format>image/svg+xml</dc:format><dc:type
         rdf:resource="http://purl.org/dc/dcmitype/StillImage" /><dc:title></dc:title></cc:Work></rdf:RDF></metadata><sodipodi:namedview
   pagecolor="#ffffff"
   bordercolor="#666666"
   borderopacity="1"
   objecttolerance="10"
   gridtolerance="10"
   guidetolerance="10"
   inkscape:pageopacity="0"
   inkscape:pageshadow="2"
   inkscape:window-width="1920"
   inkscape:window-height="1015"
   id="namedview12"
   showgrid="false"
   inkscape:zoom="0.6002692"
   inkscape:cx="739.63402"
   inkscape:cy="560.07666"
   inkscape:window-x="1920"
   inkscape:window-y="0"
   inkscape:window-maximized="1"
   inkscape:current-layer="svg10"
   showguides="true"
   inkscape:guide-bbox="true"
   inkscape:document-rotation="0"><sodipodi:guide
     position="0,1000"
     orientation="0,1"
     id="guide16"
     inkscape:label=""
     inkscape:locked="true"
     inkscape:color="rgb(0,0,255)" /><sodipodi:guide
     position="1763.3122,2036.1693"
     orientation="1000,0"
     id="guide18" /><sodipodi:guide
     position="0,200"
     orientation="0,1"
     id="guide20"
     inkscape:label="base"
     inkscape:locked="true"
     inkscape:color="rgb(0,0,255)" /><inkscape:grid
     type="xygrid"
     id="grid24"
     originx="-473.37552"
     originy="-489.69235" /><sodipodi:guide
     position="0,0"
     orientation="0,1"
     id="guide34"
     inkscape:label="bottom"
     inkscape:locked="true"
     inkscape:color="rgb(0,0,255)" /><sodipodi:guide
     position="225.05109,1693.3186"
     orientation="0,1"
     id="guide44"
     inkscape:label=""
     inkscape:locked="false"
     inkscape:color="rgb(0,0,255)" /><sodipodi:guide
     position="0,900"
     orientation="0,1"
     id="guide46"
     inkscape:label=""
     inkscape:locked="true"
     inkscape:color="rgb(0,0,255)" /><sodipodi:guide
     position="1134.2904,607.04647"
     orientation="1,0"
     id="guide841" /></sodipodi:namedview>
 <defs
   id="defs4"><inkscape:path-effect
   effect="spiro"
   id="path-effect851"
   is_visible="true"
   lpeversion="1" />
  <style
   type="text/css"
   id="style2">
   <![CDATA[
    .fil0 {fill:#EF7F1A;fill-rule:nonzero}
   ]]>
  </style>
 <inkscape:path-effect
   effect="spiro"
   id="path-effect1214"
   is_visible="true"
   lpeversion="1" /><inkscape:path-effect
   effect="spiro"
   id="path-effect1195"
   is_visible="true"
   lpeversion="1" /><inkscape:path-effect
   effect="spiro"
   id="path-effect992"
   is_visible="true"
   lpeversion="1" /><inkscape:path-effect
   effect="spiro"
   id="path-effect1060"
   is_visible="true"
   lpeversion="1" /><inkscape:path-effect
   effect="spiro"
   id="path-effect1047"
   is_visible="true"
   lpeversion="1" /><inkscape:path-effect
   effect="spiro"
   id="path-effect1085"
   is_visible="true"
   lpeversion="1" /></defs>
 
<path
   style="display:inline;fill:#1a1a1a;fill-rule:nonzero;stroke:none;stroke-width:2.98568px;stroke-linecap:butt;stroke-linejoin:miter;stroke-opacity:1"
   d="m 191.27124,295.08226 c 9.69996,-38.19925 36.03336,-71.52776 70.10099,-91.34361 34.06764,-19.81584 75.34432,-26.2794 114.18423,-19.59112 38.57602,6.64284 74.54748,25.87577 103.14531,52.60403 28.59784,26.72827 49.96688,60.73459 63.89773,97.31557 29.95501,78.65875 24.71948,169.78172 -13.10683,244.97262 -24.15175,48.00869 -61.05792,89.52803 -105.90401,119.1417 29.59175,9.24519 61.99297,9.27125 91.59956,0.0737 29.60658,-9.19758 56.28943,-27.5787 75.43349,-51.96415 17.02996,-21.69254 27.99509,-47.7548 34.01988,-74.66739 6.02478,-26.9126 7.25018,-54.71649 6.11651,-82.2719 -2.48726,-60.45598 -16.17696,-120.01565 -18.98566,-180.45755 -2.36975,-50.99582 3.72789,-104.29106 30.64631,-147.66834 18.53232,-29.86361 46.35306,-53.62795 78.14276,-68.617851 31.7897,-14.989905 67.41313,-21.329338 102.52309,-19.725222 47.61931,2.175648 94.13131,18.847657 133.82835,45.238523 39.69703,26.39087 72.69415,62.27204 98.01235,102.66166 39.7736,63.45006 60.578,137.26965 70.5511,211.48816 6.767,50.35899 8.7507,101.65777 1.3649,151.92973 -7.3858,50.27195 -24.4109,99.59797 -53.3809,141.34194 -12.031,17.33589 -26.1549,33.37961 -42.9709,46.12703 -16.8161,12.74742 -36.42571,22.12726 -57.25696,25.49425 -32.06955,5.18345 -65.58763,-4.3592 -92.31724,-22.82139 -26.7296,-18.4622 -46.98597,-45.30128 -60.88605,-74.66303 -21.50985,-45.43622 -28.33698,-96.99123 -24.33757,-147.1024 3.99941,-50.11116 18.47169,-98.94398 37.81027,-145.34596 30.35993,-72.84719 72.94403,-140.58244 125.43337,-199.51721 l 72.96498,83.17748 c -89.61563,53.68259 -151.81757,150.77153 -163.12838,254.62165 -2.36226,21.6891 -2.54462,44.15026 4.71976,64.72272 3.63219,10.28624 9.13214,19.98073 16.6065,27.92637 7.47436,7.94565 16.96602,14.09654 27.47092,17.037 10.53425,2.94868 21.86784,2.60967 32.4179,-0.28192 10.55007,-2.89158 20.33306,-8.27255 28.89532,-15.08084 17.12453,-13.61657 29.16048,-32.5437 39.63078,-51.75394 28.7379,-52.72648 48.3933,-113.39187 38.2243,-172.57413 -8.022,-46.68658 -34.0505,-88.68246 -65.92607,-123.7244 -19.88564,-21.861 -42.49313,-41.69353 -68.82153,-55.11582 -26.32839,-13.42229 -56.67737,-20.12559 -85.81646,-15.2006 -30.86619,5.2169 -58.44526,23.0312 -80.80701,44.93759 -36.83622,36.08612 -61.82187,85.51882 -63.07421,137.07022 -1.2429,51.16264 20.07027,99.74119 33.5728,149.10557 9.88545,36.14057 15.64036,74.53603 7.00479,110.99546 -9.44739,39.88692 -35.91963,74.62997 -69.43271,98.23279 -33.51309,23.60281 -73.66361,36.64265 -114.29936,42.02365 -71.52575,9.47147 -143.7967,-3.89018 -215.42662,-12.53873 -64.39485,-7.77499 -129.33342,-11.75219 -194.15938,-9.57462 -35.60005,1.19584 -71.137718,4.24695 -106.42062,9.1368 L -35.40595,529.50199 c 38.9635546,73.24088 104.839469,131.77418 182.15516,161.85191 38.2141,14.86624 79.47318,22.96943 120.35965,19.86789 40.88646,-3.10153 81.3685,-17.85604 112.37964,-44.682 32.20875,-27.86194 52.89084,-67.50929 62.55581,-108.98554 9.66497,-41.47626 8.89063,-84.81279 3.16231,-127.01324 -2.93511,-21.62288 -7.26211,-43.39588 -17.13013,-62.8583 -9.86802,-19.46243 -25.91248,-36.57598 -46.51567,-43.76434 -10.99583,-3.8364 -22.96826,-4.72648 -34.46018,-2.83916 -11.49192,1.88732 -22.49102,6.52386 -32.0337,13.19944 -19.08536,13.35117 -31.9246,34.67175 -36.95168,57.41451 -5.02707,22.74275 -2.59443,46.76865 4.77661,68.86327 7.37104,22.09462 19.52557,42.36752 33.7741,60.7926 17.29435,22.3637 37.79242,42.24599 60.67304,58.85041 l -205.59683,8.84859 c 13.10161,-15.37221 22.75306,-33.66841 28.04317,-53.16127 10.60848,-39.08984 3.52886,-80.54204 -3.76531,-120.38361 -7.29416,-39.84157 -14.71757,-81.16304 -4.7488,-120.42089 z"
   id="path873-9"
   inkscape:path-effect="#path-effect1085"
   inkscape:original-d="m 191.27124,295.08226 c 34.17265,-63.03228 112.90736,-117.72022 184.28522,-110.93473 74.48196,7.08056 138.39359,80.8044 167.04304,149.9196 31.31327,75.54149 20.45401,178.29275 -13.10683,244.97262 -23.46555,45.27798 -64.59062,88.69178 -105.90401,119.1417 0,0 126.86789,-9.63004 167.03305,-51.89048 37.19889,-39.13943 36.2101,-103.08545 40.13639,-156.93929 4.39803,-60.3244 -22.0028,-120.04834 -18.98566,-180.45755 2.50769,-50.20905 -0.18856,-107.96383 30.64631,-147.66834 41.11765,-52.94514 113.73673,-92.130339 180.66585,-88.343073 91.52,5.178772 175.46009,75.623233 231.8407,147.900183 45.7085,58.59588 65.1144,137.37212 70.5511,211.48816 7.2633,99.01691 0.9692,209.30931 -52.016,293.27167 -21.9142,34.72613 -59.1801,70.51769 -100.22786,71.62128 -60.5077,1.62677 -125.30379,-43.76806 -153.20329,-97.48442 -44.97975,-86.60187 -15.70517,-199.32632 13.4727,-292.44836 23.48819,-74.96325 125.43337,-199.51721 125.43337,-199.51721 l 72.96498,83.17748 c 0,0 -155.51528,154.11105 -163.12838,254.62165 -3.0224,39.90264 10.36888,98.52268 48.79718,109.68609 38.80262,11.27214 78.0953,-33.79041 100.944,-67.1167 33.3167,-48.59457 46.2009,-114.19769 38.2243,-172.57413 -6.3267,-46.30063 -31.8611,-91.73452 -65.92607,-123.7244 -41.27725,-38.76282 -98.05935,-72.60211 -154.63799,-70.31642 -30.79544,1.24409 -59.86011,22.32931 -80.80701,44.93759 -34.18276,36.89392 -57.80783,87.05135 -63.07421,137.07022 -5.33453,50.66611 26.35029,98.67396 33.5728,149.10557 5.25561,36.69766 22.38767,77.26555 7.00479,110.99546 -31.97123,70.10303 -110.0546,117.71262 -183.73207,140.25644 -68.7826,21.04609 -143.59993,-8.6775 -215.42662,-12.53873 -64.70501,-3.47839 -129.37166,-10.75299 -194.15938,-9.57462 -35.59816,0.64746 -106.42062,9.1368 -106.42062,9.1368 L -35.40595,529.50199 c 0,0 104.805347,137.06482 182.15516,161.85191 74.2978,23.80906 173.20328,25.60908 232.73929,-24.81411 62.31361,-52.77564 76.56984,-155.06363 65.71812,-235.99878 -5.50051,-41.02425 -22.50597,-111.17852 -63.6458,-106.62264 -68.85327,7.62491 -81.46491,130.16741 -64.89485,197.43066 6.73938,27.35734 60.67304,58.85041 60.67304,58.85041 l -205.59683,8.84859 c 0,0 23.57258,-33.63159 28.04317,-53.16127 17.92235,-78.29317 -46.79448,-170.19539 -8.51411,-240.8045 z"
   sodipodi:nodetypes="aaaccaaaaaaaaaaaccaaaaaaaaaaaaaccaaaaaccaa" /></svg>
