<?xml version="1.0" encoding="UTF-8"?>
<!DOCTYPE svg PUBLIC "-//W3C//DTD SVG 1.1//EN" "http://www.w3.org/Graphics/SVG/1.1/DTD/svg11.dtd">
<!-- Creator: CorelDRAW X8 -->
<svg xmlns="http://www.w3.org/2000/svg" xml:space="preserve" width="2588px" height="1486px" version="1.1" style="shape-rendering:geometricPrecision; text-rendering:geometricPrecision; image-rendering:optimizeQuality; fill-rule:evenodd; clip-rule:evenodd"
viewBox="0 0 2588 1486"
 xmlns:xlink="http://www.w3.org/1999/xlink">
 <defs>
  <style type="text/css">
   <![CDATA[
    .fil0 {fill:#EF7F1A;fill-rule:nonzero}
   ]]>
  </style>
 </defs>
 <g id="Layer_x0020_1">
  <metadata id="CorelCorpID_0Corel-Layer"/>
  <path class="fil0" d="M1880 1024c131,0 249,-55 319,-167 51,-83 74,-193 74,-290 0,-70 -10,-135 -32,-199 24,21 49,48 67,74 51,74 77,166 77,255 0,96 -27,191 -89,266 -64,76 -167,116 -265,116l-1715 0c-138,0 -316,28 -316,204 0,170 175,203 316,203l2122 0c47,0 102,-28 102,-79 0,-52 -55,-80 -102,-80l-2122 0c-54,0 -111,0 -111,-70 0,-63 59,-67 111,-67l1715 0c145,0 306,-41 414,-143 94,-89 143,-216 143,-345 0,-120 -39,-238 -115,-331 -85,-104 -207,-166 -344,-186 -117,-125 -290,-185 -467,-185 -183,0 -372,63 -490,194 -80,90 -130,213 -130,359 0,125 47,242 130,336l-339 0c83,-69 131,-170 131,-276 0,-207 -181,-304 -373,-304 -161,0 -368,88 -368,270 0,70 35,129 87,174 25,22 58,32 91,32 20,0 40,-3 58,-10 24,-9 44,-26 44,-46 0,-10 -4,-21 -17,-31 -37,-30 -61,-71 -61,-119 1,-87 79,-159 166,-159 109,0 170,93 170,193 1,140 -106,276 -257,276l-402 0c-33,0 -102,14 -102,56 0,41 69,55 102,55l1254 0c32,0 101,-14 102,-55 0,-14 -9,-26 -24,-36 -122,-81 -188,-212 -188,-356 0,-104 28,-200 80,-275 81,-115 197,-167 336,-167 88,0 169,23 239,79 -122,21 -236,78 -311,176 -61,78 -92,178 -92,276 0,80 21,162 67,229 72,106 193,153 315,153zm0 -111c-54,-1 -98,-39 -126,-81 -37,-55 -53,-124 -53,-190 0,-83 24,-166 76,-233 52,-68 129,-112 217,-117 54,82 76,179 76,275 0,88 -16,178 -63,254 -27,44 -70,92 -127,92z"/>
 </g>
</svg>
