<?xml version="1.0" encoding="UTF-8"?>
<!DOCTYPE svg PUBLIC "-//W3C//DTD SVG 1.1//EN" "http://www.w3.org/Graphics/SVG/1.1/DTD/svg11.dtd">
<!-- Creator: CorelDRAW X8 -->
<svg xmlns="http://www.w3.org/2000/svg" xml:space="preserve" width="1663px" height="868px" version="1.1" style="shape-rendering:geometricPrecision; text-rendering:geometricPrecision; image-rendering:optimizeQuality; fill-rule:evenodd; clip-rule:evenodd"
viewBox="0 0 1663 868"
 xmlns:xlink="http://www.w3.org/1999/xlink">
 <defs>
  <style type="text/css">
   <![CDATA[
    .fil0 {fill:#EF7F1A;fill-rule:nonzero}
   ]]>
  </style>
 </defs>
 <g id="Layer_x0020_1">
  <metadata id="CorelCorpID_0Corel-Layer"/>
  <path class="fil0" d="M1350 806c93,-32 182,-83 241,-161 51,-66 72,-154 72,-235 0,-57 -15,-109 -42,-155 -44,-75 -119,-129 -212,-146 -66,-77 -164,-109 -264,-109 -113,0 -223,40 -291,135 -42,58 -56,120 -56,191 0,70 23,136 68,191l-159 0c43,-41 66,-95 66,-154 0,-123 -94,-182 -210,-182 -94,0 -211,51 -211,161 0,70 47,121 111,121 12,0 24,-1 37,-6 14,-5 26,-17 26,-29 0,-6 -3,-12 -10,-18 -20,-17 -33,-41 -33,-68 0,-43 34,-92 80,-92 54,0 84,63 84,110 0,70 -52,157 -131,157l-219 0c-21,0 -66,8 -66,35 0,26 45,34 66,34l681 0c20,0 66,-8 66,-35 0,-8 -5,-16 -13,-21 -68,-49 -102,-123 -102,-204 0,-52 12,-105 38,-149 37,-64 102,-107 178,-108 45,0 84,14 118,44 -68,13 -128,47 -168,103 -33,46 -50,105 -50,162 0,46 11,90 36,130 40,63 108,92 180,92 79,1 147,-32 186,-100 29,-49 40,-111 40,-166 0,-31 -2,-54 -9,-84 40,39 57,98 57,160 0,76 -25,156 -65,208 -48,63 -118,104 -193,130 -62,22 -130,34 -199,41 -73,7 -148,10 -222,10 -140,0 -291,-13 -423,-59 -71,-25 -138,-61 -192,-114 -78,-77 -110,-177 -110,-285 0,-105 35,-223 129,-283 10,-7 15,-15 15,-23 0,-9 -6,-18 -18,-24 -13,-7 -30,-11 -48,-11 -18,0 -37,4 -50,13 -112,73 -159,200 -159,328 0,137 47,255 154,345 60,50 131,86 205,112 157,55 331,70 497,70 162,0 340,-8 494,-62zm-89 -276c-31,0 -50,-22 -63,-48 -16,-31 -22,-69 -22,-104 0,-48 13,-97 41,-137 23,-32 59,-59 99,-65 29,48 40,103 40,158 0,47 -10,107 -32,149 -12,24 -33,47 -63,47z"/>
 </g>
</svg>
