<?xml version="1.0" encoding="UTF-8"?>
<!DOCTYPE svg PUBLIC "-//W3C//DTD SVG 1.1//EN" "http://www.w3.org/Graphics/SVG/1.1/DTD/svg11.dtd">
<!-- Creator: CorelDRAW X8 -->
<svg xmlns="http://www.w3.org/2000/svg" xml:space="preserve" width="2703px" height="1486px" version="1.1" style="shape-rendering:geometricPrecision; text-rendering:geometricPrecision; image-rendering:optimizeQuality; fill-rule:evenodd; clip-rule:evenodd"
viewBox="0 0 2703 1486"
 xmlns:xlink="http://www.w3.org/1999/xlink">
 <defs>
  <style type="text/css">
   <![CDATA[
    .fil0 {fill:#EF7F1A;fill-rule:nonzero}
   ]]>
  </style>
 </defs>
 <g id="Layer_x0020_1">
  <metadata id="CorelCorpID_0Corel-Layer"/>
  <path class="fil0" d="M1879 1024c131,0 250,-55 319,-167 52,-83 74,-193 74,-290 0,-103 -21,-199 -73,-288 28,3 56,8 83,14 97,22 175,98 175,199 0,33 -8,74 -27,102 -12,18 -30,32 -56,35 -29,4 -67,20 -67,55 0,44 62,56 95,56 19,0 39,6 53,18 38,30 54,85 53,131 0,47 -17,89 -47,123 -34,40 -86,67 -145,67l-2000 0c-139,0 -316,28 -316,204 0,170 175,203 316,203l2238 0c47,0 102,-28 102,-79 0,-52 -55,-80 -102,-80l-2238 0c-54,0 -111,0 -111,-70 0,-63 59,-67 111,-67l2000 0c83,0 165,-15 238,-56 92,-51 149,-141 149,-247 0,-92 -46,-172 -127,-217 51,-47 76,-110 76,-179 0,-164 -141,-265 -290,-300 -68,-16 -137,-25 -207,-25 -14,0 -29,0 -44,1 -116,-112 -282,-167 -450,-167 -183,0 -372,63 -489,194 -81,90 -130,213 -130,359 0,125 46,242 130,336l-339 0c82,-69 130,-170 130,-276 0,-207 -180,-304 -372,-304 -161,0 -368,88 -368,270 0,94 75,206 178,206 20,0 40,-3 58,-10 24,-9 44,-26 44,-46 0,-10 -5,-21 -17,-31 -37,-30 -61,-71 -61,-119 0,-87 79,-159 166,-159 108,0 169,93 170,193 0,140 -106,276 -257,276l-402 0c-33,0 -102,14 -102,56 0,41 69,55 102,55l1253 0c32,0 101,-14 102,-55 0,-14 -9,-26 -24,-36 -122,-81 -188,-212 -188,-356 0,-104 28,-200 81,-275 80,-115 196,-167 335,-167 88,0 169,23 239,79 -122,21 -235,78 -311,176 -60,78 -92,178 -92,276 0,80 22,162 67,229 72,106 193,153 315,153zm0 -111c-54,-1 -98,-39 -126,-81 -37,-55 -53,-124 -53,-190 0,-83 24,-166 76,-233 52,-68 129,-112 217,-117 54,82 76,179 76,275 0,88 -16,178 -63,254 -27,44 -70,92 -127,92z"/>
 </g>
</svg>
