<?xml version="1.0" encoding="UTF-8"?>
<!DOCTYPE svg PUBLIC "-//W3C//DTD SVG 1.1//EN" "http://www.w3.org/Graphics/SVG/1.1/DTD/svg11.dtd">
<!-- Creator: CorelDRAW X8 -->
<svg xmlns="http://www.w3.org/2000/svg" xml:space="preserve" width="1658px" height="868px" version="1.1" style="shape-rendering:geometricPrecision; text-rendering:geometricPrecision; image-rendering:optimizeQuality; fill-rule:evenodd; clip-rule:evenodd"
viewBox="0 0 1658 868"
 xmlns:xlink="http://www.w3.org/1999/xlink">
 <defs>
  <style type="text/css">
   <![CDATA[
    .fil0 {fill:#EF7F1A;fill-rule:nonzero}
   ]]>
  </style>
 </defs>
 <g id="Layer_x0020_1">
  <metadata id="CorelCorpID_0Corel-Layer"/>
  <path class="fil0" d="M1558 868c29,0 71,-13 71,-48 0,-34 -42,-48 -71,-48l-1358 0c-30,0 -58,-4 -58,-41 0,-33 29,-38 58,-38l1215 0c53,0 106,-9 153,-34 56,-30 90,-82 90,-147 0,-54 -29,-94 -77,-121 31,-27 46,-61 46,-101 0,-98 -89,-159 -178,-178 -43,-10 -86,-15 -130,-15l-20 0c-66,-63 -162,-98 -274,-97 -116,0 -233,30 -311,119 -49,57 -78,131 -77,206 0,38 8,75 23,110 13,30 31,58 53,82l-189 0c46,-40 75,-96 75,-157 0,-128 -120,-181 -234,-181 -95,0 -230,46 -231,158 -1,67 50,124 118,124 11,0 22,-1 33,-4 17,-4 38,-16 38,-31 0,-6 -3,-12 -11,-18 -21,-18 -36,-43 -36,-71 0,-46 43,-89 90,-89 57,0 91,60 91,110 0,77 -61,159 -144,159l-242 0c-20,0 -71,7 -71,35 0,27 51,34 71,34l765 0c20,0 71,-7 71,-34 0,-8 -6,-16 -15,-22 -34,-22 -63,-52 -82,-87 -20,-37 -30,-78 -30,-119 0,-53 17,-109 47,-153 47,-70 114,-102 198,-102 47,0 88,14 126,43 -72,13 -139,45 -185,103 -36,45 -56,102 -56,160 0,47 13,95 40,134 46,66 126,91 203,91 81,0 155,-30 199,-99 31,-49 44,-103 44,-161 0,-66 -15,-124 -41,-172 17,2 36,6 52,11 51,17 95,53 95,111 0,20 -4,39 -16,56 -8,12 -20,21 -36,24 -17,3 -30,10 -30,29 0,25 25,31 44,33 17,2 30,8 41,17 18,15 28,38 28,63 0,28 -14,55 -35,75 -22,22 -53,38 -83,38l-1215 0c-82,0 -200,15 -200,121 0,104 117,122 200,122l1358 0zm-410 -337c-32,0 -56,-22 -71,-48 -16,-29 -23,-75 -23,-108 0,-49 12,-89 40,-129 28,-40 67,-65 116,-71 32,49 45,107 44,165 0,45 -12,102 -35,141 -15,26 -38,50 -71,50z"/>
 </g>
</svg>
