<?xml version="1.0" encoding="UTF-8"?>
<!DOCTYPE svg PUBLIC "-//W3C//DTD SVG 1.1//EN" "http://www.w3.org/Graphics/SVG/1.1/DTD/svg11.dtd">
<!-- Creator: CorelDRAW X8 -->
<svg xmlns="http://www.w3.org/2000/svg" xml:space="preserve" width="2599px" height="1486px" version="1.1" style="shape-rendering:geometricPrecision; text-rendering:geometricPrecision; image-rendering:optimizeQuality; fill-rule:evenodd; clip-rule:evenodd"
viewBox="0 0 2599 1486"
 xmlns:xlink="http://www.w3.org/1999/xlink">
 <defs>
  <style type="text/css">
   <![CDATA[
    .fil0 {fill:#EF7F1A;fill-rule:nonzero}
   ]]>
  </style>
 </defs>
 <g id="Layer_x0020_1">
  <metadata id="CorelCorpID_0Corel-Layer"/>
  <path class="fil0" d="M1879 913c-54,-1 -98,-39 -126,-81 -37,-55 -53,-124 -53,-190 0,-83 24,-166 76,-233 52,-68 129,-112 217,-117 54,82 76,179 76,275 0,88 -16,178 -63,254 -27,44 -70,92 -127,92zm0 111c131,0 250,-55 319,-167 52,-83 74,-193 74,-290 0,-57 -6,-111 -21,-164 107,113 150,253 150,404 0,142 -35,342 -139,448 -35,-61 -130,-96 -195,-111 -64,-15 -131,-20 -197,-20 -71,0 -146,6 -216,23 -73,19 -194,68 -194,157 0,88 117,138 189,157 66,17 141,25 210,25 74,0 154,-7 232,-25 79,-18 156,-46 220,-86 203,-126 288,-340 288,-568 1,-289 -156,-545 -460,-611 -117,-132 -296,-196 -478,-196 -183,0 -372,63 -489,194 -81,90 -130,213 -130,359 0,125 46,242 130,336l-339 0c82,-69 130,-170 130,-276 0,-207 -180,-304 -372,-304 -161,0 -368,88 -368,270 0,94 75,206 178,206 20,0 40,-3 58,-10 24,-9 44,-26 44,-46 0,-10 -5,-21 -17,-31 -37,-30 -61,-71 -61,-119 0,-87 79,-159 166,-159 108,0 169,93 170,193 0,140 -106,276 -257,276l-402 0c-33,0 -102,14 -102,56 0,41 69,55 102,55l1253 0c32,0 101,-14 102,-55 0,-14 -9,-26 -24,-36 -122,-81 -188,-212 -188,-356 0,-104 28,-200 81,-275 80,-115 196,-167 335,-167 88,0 169,23 239,79 -122,21 -235,78 -311,176 -60,78 -92,178 -92,276 0,80 22,162 67,229 72,106 193,153 315,153zm-8 358c-151,0 -222,-39 -222,-78 0,-39 79,-75 222,-75 142,0 216,39 216,75 0,37 -67,78 -216,78z"/>
 </g>
</svg>
