<?xml version="1.0" encoding="UTF-8" standalone="no"?>
<svg
   xmlns:dc="http://purl.org/dc/elements/1.1/"
   xmlns:cc="http://creativecommons.org/ns#"
   xmlns:rdf="http://www.w3.org/1999/02/22-rdf-syntax-ns#"
   xmlns:svg="http://www.w3.org/2000/svg"
   xmlns="http://www.w3.org/2000/svg"
   xmlns:sodipodi="http://sodipodi.sourceforge.net/DTD/sodipodi-0.dtd"
   xmlns:inkscape="http://www.inkscape.org/namespaces/inkscape"
   xml:space="preserve"
   width="2000"
   height="1000"
   version="1.1"
   style="clip-rule:evenodd;fill-rule:evenodd;image-rendering:optimizeQuality;shape-rendering:geometricPrecision;text-rendering:geometricPrecision"
   viewBox="0 0 2000 1000"
   id="svg10"
   sodipodi:docname="ഛൃ.svg"
   inkscape:version="1.0.1 (3bc2e813f5, 2020-09-07)"><metadata
   id="metadata14"><rdf:RDF><cc:Work
       rdf:about=""><dc:format>image/svg+xml</dc:format><dc:type
         rdf:resource="http://purl.org/dc/dcmitype/StillImage" /><dc:title /></cc:Work></rdf:RDF></metadata><sodipodi:namedview
   pagecolor="#ffffff"
   bordercolor="#666666"
   borderopacity="1"
   objecttolerance="10"
   gridtolerance="10"
   guidetolerance="10"
   inkscape:pageopacity="0"
   inkscape:pageshadow="2"
   inkscape:window-width="1920"
   inkscape:window-height="1015"
   id="namedview12"
   showgrid="false"
   inkscape:zoom="0.6002692"
   inkscape:cx="739.63402"
   inkscape:cy="560.07666"
   inkscape:window-x="1920"
   inkscape:window-y="0"
   inkscape:window-maximized="1"
   inkscape:current-layer="svg10"
   showguides="true"
   inkscape:guide-bbox="true"
   inkscape:document-rotation="0"><sodipodi:guide
     position="0,1000"
     orientation="0,1"
     id="guide16"
     inkscape:label=""
     inkscape:locked="true"
     inkscape:color="rgb(0,0,255)" /><sodipodi:guide
     position="1763.3122,2036.1693"
     orientation="1000,0"
     id="guide18" /><sodipodi:guide
     position="0,200"
     orientation="0,1"
     id="guide20"
     inkscape:label="base"
     inkscape:locked="true"
     inkscape:color="rgb(0,0,255)" /><inkscape:grid
     type="xygrid"
     id="grid24"
     originx="-473.37552"
     originy="-489.69235" /><sodipodi:guide
     position="0,0"
     orientation="0,1"
     id="guide34"
     inkscape:label="bottom"
     inkscape:locked="true"
     inkscape:color="rgb(0,0,255)" /><sodipodi:guide
     position="225.05109,1693.3186"
     orientation="0,1"
     id="guide44"
     inkscape:label=""
     inkscape:locked="false"
     inkscape:color="rgb(0,0,255)" /><sodipodi:guide
     position="0,900"
     orientation="0,1"
     id="guide46"
     inkscape:label=""
     inkscape:locked="true"
     inkscape:color="rgb(0,0,255)" /><sodipodi:guide
     position="1362.7951,633.32329"
     orientation="-1,0"
     id="guide841"
     inkscape:label="width"
     inkscape:locked="false"
     inkscape:color="rgb(0,0,255)" /></sodipodi:namedview>
 <defs
   id="defs4"><inkscape:path-effect
   effect="spiro"
   id="path-effect851"
   is_visible="true"
   lpeversion="1" />
  <style
   type="text/css"
   id="style2">
   <![CDATA[
    .fil0 {fill:#EF7F1A;fill-rule:nonzero}
   ]]>
  </style>
 <inkscape:path-effect
   effect="spiro"
   id="path-effect1214"
   is_visible="true"
   lpeversion="1" /><inkscape:path-effect
   effect="spiro"
   id="path-effect1195"
   is_visible="true"
   lpeversion="1" /><inkscape:path-effect
   effect="spiro"
   id="path-effect992"
   is_visible="true"
   lpeversion="1" /><inkscape:path-effect
   effect="spiro"
   id="path-effect1060"
   is_visible="true"
   lpeversion="1" /><inkscape:path-effect
   effect="spiro"
   id="path-effect1047"
   is_visible="true"
   lpeversion="1" /><inkscape:path-effect
   effect="spiro"
   id="path-effect1085"
   is_visible="true"
   lpeversion="1" /></defs>
 
<path
   style="display:inline;fill:#1a1a1a;fill-rule:nonzero;stroke:none;stroke-width:2.98568px;stroke-linecap:butt;stroke-linejoin:miter;stroke-opacity:1"
   d="m 156.71033,288.41858 c 17.62437,-40.09309 50.73848,-72.89427 90.46307,-91.33422 39.72458,-18.43995 85.67075,-22.61842 128.38306,-12.93683 37.95251,8.60269 73.25238,27.88646 101.91388,54.20979 28.66151,26.32333 50.73036,59.55633 65.12916,95.70981 31.18631,78.30466 25.1023,169.84427 -13.10683,244.97262 -24.35307,47.88399 -61.20537,89.34272 -105.90401,119.1417 52.09726,2.8e-4 104.19452,-0.66807 156.27463,-2.00485 24.39659,-0.6262 48.78941,-1.39908 73.1767,-2.31857 -15.02958,-30.298 -27.64585,-61.79273 -37.69002,-94.0878 -27.63521,-88.85558 -35.51335,-183.90404 -21.94209,-275.96294 7.12211,-48.31189 20.59658,-96.86511 49.01087,-136.5815 20.30272,-28.37835 47.88634,-51.45895 79.27505,-66.69969 31.38871,-15.24074 66.51185,-22.638398 101.3908,-21.643383 47.67581,1.360083 94.28425,18.332283 133.81923,45.012193 39.53498,26.67991 72.20617,62.78308 98.02147,102.88799 36.0425,55.99325 59.0454,119.8991 70.5511,185.48816 8.8042,50.18918 10.9793,101.79698 3.1587,152.1488 -7.8207,50.35182 -25.8466,99.45359 -55.1747,141.12287 -12.1391,17.24718 -26.2597,33.26353 -43.0509,46.02585 -16.7912,12.76233 -36.36115,22.20061 -57.17696,25.59543 -32.05642,5.22803 -65.57115,-4.36522 -92.2755,-22.85369 -26.70435,-18.48848 -46.93127,-45.32129 -60.92779,-74.63073 -21.69445,-45.4293 -28.9856,-96.9876 -25.16331,-147.18582 3.82228,-50.19821 18.42452,-99.15434 38.63601,-145.26254 24.58223,-56.07911 58.09429,-109.07563 103.75888,-149.86653 46.4782,-41.51768 107.09517,-69.8135 169.38577,-67.85944 35.2354,1.10534 69.9422,11.83132 100.4357,29.52012 30.4936,17.6888 56.8147,42.22149 77.8366,70.52046 42.0438,56.59795 62.3369,127.015 68.7132,197.23145 16.5077,181.78414 -60.1188,368.49968 -196.1034,490.26239 -57.505,51.49082 -125.2148,92.05292 -198.82418,115.28622 -73.60938,23.2332 -153.13952,28.8333 -228.66379,12.8893 -37.62053,-7.9421 -74.77209,-21.505 -104.95782,-45.321 -15.09286,-11.908 -28.30233,-26.3188 -38.12898,-42.8424 -9.82665,-16.5237 -16.21812,-35.18652 -17.74167,-54.35091 -2.07858,-26.14606 5.02235,-52.66905 18.36866,-75.24808 13.34631,-22.57904 32.73659,-41.29872 54.83412,-55.42798 46.73988,-29.88569 104.4816,-38.98886 159.80371,-34.83728 55.32211,4.15159 108.91891,20.69146 161.34578,38.83517 65.37057,22.62321 129.81657,47.91777 193.12327,75.79937 l -127.615,118.62201 C 987.95993,987.34505 939.59028,951.18536 886.61852,923.94958 848.32407,904.26023 806.80973,889.04857 763.77699,887.5259 c -14.27325,-0.50504 -28.86302,0.5628 -42.1327,5.8445 -6.63484,2.64085 -12.88341,6.3315 -18.1669,11.13567 -5.28348,4.80416 -9.58559,10.73946 -12.18398,17.39105 -5.0621,12.95842 -3.29045,27.95721 2.82144,40.45483 6.11189,12.49761 16.21943,22.69051 27.49547,30.83892 23.44395,16.94133 52.19203,25.64463 81.03354,27.83433 28.8415,2.1898 57.86525,-1.8682 85.98401,-8.6478 115.02203,-27.73233 216.41043,-101.52502 287.17483,-196.34874 64.8802,-86.93891 105.7094,-193.67478 104.396,-302.1464 -0.5201,-42.95508 -7.8156,-86.57953 -27.7815,-124.61602 -19.9658,-38.0365 -53.6934,-70.04408 -95.0177,-81.77915 -39.8937,-11.32882 -83.2113,-3.09754 -121.1637,13.61966 -44.65796,19.67085 -84.10563,51.04178 -113.2998,90.14391 -29.19416,39.10214 -48.06418,85.84692 -54.16408,134.26249 -2.72995,21.66793 -2.85689,44.1935 4.5219,64.74843 3.6894,10.27747 9.25717,19.94384 16.76954,27.86863 7.51237,7.92479 17.00749,14.06491 27.50574,17.06903 10.56295,3.02264 21.93955,2.81357 32.56987,0.0371 10.63032,-2.77643 20.52621,-8.06132 29.17513,-14.83689 17.29785,-13.55114 29.3753,-32.66133 39.199,-52.31695 26.9523,-53.92689 39.2419,-116.98918 24.0929,-175.3419 -9.1412,-35.21126 -27.908,-67.51901 -51.79467,-94.95663 -19.36294,-22.24143 -42.36826,-41.6337 -68.8385,-54.63106 -26.47023,-12.99736 -56.54291,-19.38094 -85.79949,-15.68536 -37.436,4.72877 -71.75107,25.87333 -96.23244,54.58705 -24.48137,28.71372 -39.64548,64.5458 -47.64878,101.42076 -19.03574,87.70664 1.77211,181.07968 45.53427,259.43584 8.91227,15.95743 18.82925,31.57512 24.42621,48.97461 2.79848,8.69974 4.48128,17.81602 4.26814,26.9523 -0.21313,9.13628 -2.37116,18.30243 -6.87118,26.25648 -4.21425,7.44894 -10.40249,13.69553 -17.51849,18.45045 -7.116,4.75491 -15.14484,8.05196 -23.42416,10.21979 -16.55865,4.33568 -33.91404,4.19376 -51.03033,4.05416 -120.82458,-0.98546 -241.6561,-0.4531 -362.48263,0.25429 C 212.92892,798.61349 120.66449,799.25572 28.400883,800 L 12.147991,616.19573 c 37.570291,49.67699 95.950959,83.07969 157.815899,90.29491 66.0662,7.70521 134.27359,-14.28725 186.12853,-55.94272 32.38861,-26.01802 58.88393,-59.6504 75.01282,-97.93641 16.12889,-38.28601 21.67011,-81.22109 14.10138,-122.0705 -5.36863,-28.97518 -17.621,-57.25028 -38.35356,-78.19172 -10.36628,-10.47072 -22.7685,-18.99576 -36.47044,-24.41357 -13.70194,-5.41782 -28.70827,-7.68149 -43.34649,-6.0027 -18.88014,2.16528 -36.81661,10.92115 -50.70414,23.89361 -13.88754,12.97246 -23.75812,30.03266 -28.88142,48.33293 -5.12331,18.30027 -5.57331,37.7923 -2.11794,56.47943 3.45537,18.68712 10.75912,36.57575 20.65946,52.79708 15.58833,25.54089 37.72298,47.04927 63.70065,61.89832 l -148.4004,30.20324 c -9.29869,-34.66401 -17.84937,-69.52868 -25.64409,-104.56155 -7.46233,-33.53899 -14.25406,-67.4096 -15.62815,-101.74125 -1.3741,-34.33165 2.86339,-69.36202 16.69023,-100.81625 z"
   id="path873-9"
   inkscape:path-effect="#path-effect1085"
   inkscape:original-d="m 156.71033,288.41858 c 43.3125,-68.21724 138.86975,-115.8185 218.84613,-104.27105 74.04986,10.69175 138.39359,80.8044 167.04304,149.9196 31.31327,75.54149 20.45401,178.29275 -13.10683,244.97262 -23.46555,45.27798 -64.59062,88.69178 -105.90401,119.1417 0,0 104.1917,-0.84576 156.27463,-2.00485 24.39843,-0.54298 52.35807,3.87202 73.1767,-2.31857 -42.50259,-28.54195 -29.98191,-61.1935 -37.69002,-94.0878 -21.05318,-89.84423 -34.14159,-184.49494 -21.94209,-275.96294 6.39465,-47.94505 16.74516,-100.5462 49.01087,-136.5815 44.71755,-49.94187 113.73674,-92.13034 180.66585,-88.343073 91.52,5.178773 173.97361,76.807773 231.8407,147.900183 41.7596,51.30361 64.3448,119.62917 70.5511,185.48816 9.3148,98.84503 0.9692,209.30931 -52.016,293.27167 -21.9142,34.72613 -59.1801,70.51769 -100.22786,71.62128 -60.5077,1.62677 -125.30379,-43.76806 -153.20329,-97.48442 -44.97975,-86.60187 -18.70084,-200.31842 13.4727,-292.44836 16.64198,-47.65483 56.25248,-111.98637 103.75888,-149.86653 47.5568,-37.92035 110.42597,-82.80417 169.38577,-67.85944 124.8799,31.65372 226.9211,170.01495 246.9855,297.27203 27.4124,173.86163 -66.2209,371.47761 -196.1034,490.26239 -109.777,100.39702 -282.21009,160.18932 -427.48797,128.17552 -69.95052,-15.4145 -148.8842,-71.8884 -160.82847,-142.51431 -8.32555,-49.22855 29.97073,-105.70099 73.20278,-130.67606 92.7011,-53.55323 216.08387,-16.56075 321.14949,3.99789 67.86827,13.28007 210.78387,100.06081 193.12327,75.79937 l -127.615,118.62201 c 7.3947,-14.5812 -89.46506,-79.9038 -142.45428,-106.49452 -38.17258,-19.15553 -80.25971,-39.72051 -122.84153,-36.42368 -26.66022,2.06412 -62.98957,9.37339 -72.48358,34.37122 -9.16879,24.14151 9.6275,55.83969 30.31691,71.29375 44.89647,33.53563 112.62085,32.65243 167.01755,19.18653 112.56313,-27.86505 216.82403,-104.16594 287.17483,-196.34874 64.6463,-84.70783 115.2482,-196.14271 104.396,-302.1464 -8.153,-79.63832 -51.1043,-170.77817 -122.7992,-206.39517 -36.3982,-18.08211 -85.9101,-6.6035 -121.1637,13.61966 -80.95975,46.44239 -157.60441,145.80363 -167.46388,224.4064 -4.98046,39.7058 10.36888,98.52268 48.79718,109.68609 38.80262,11.27214 79.47067,-32.88805 100.944,-67.1167 31.3525,-49.97606 34.7362,-117.31343 24.0929,-175.3419 -6.5045,-35.46309 -25.392,-70.40389 -51.79467,-94.95663 -41.46611,-38.56072 -99.13655,-81.5395 -154.63799,-70.31642 -69.33886,14.02118 -123.9494,88.1315 -143.88122,156.00781 -24.73801,84.24343 28.77347,173.24999 45.53427,259.43584 6.64878,34.18876 38.80401,71.77405 21.82317,102.18339 -15.86494,28.41097 -59.90864,27.17844 -91.97298,32.7244 C 548.6168,818.41202 426.02064,797.61042 305.19395,798.07332 212.92804,798.4268 137.34393,787.13657 28.400883,800 L 12.147991,616.19573 c 0,0 97.601199,83.40902 157.815899,90.29491 64.36512,7.36052 138.24156,-12.30919 186.12853,-55.94272 58.48567,-53.29083 106.48492,-142.814 89.1142,-220.00691 -11.74533,-52.19449 -66.35454,-121.92434 -118.17049,-108.60799 -61.82224,15.88789 -76.07132,119.466 -61.04404,181.50305 6.97016,28.77485 63.70065,61.89832 63.70065,61.89832 l -148.4004,30.20324 c 0,0 -21.4324,-68.92279 -25.64409,-104.56155 -7.92419,-67.05349 -35.12922,-145.55615 1.06208,-202.5575 z"
   sodipodi:nodetypes="aaaccacaaaaaaaaasaaaaaaaaccaaaaaaaaasaaaaaaaaaaccaaaaaccaa" /></svg>
