<?xml version="1.0" encoding="UTF-8" standalone="no"?>
<svg
   xmlns:dc="http://purl.org/dc/elements/1.1/"
   xmlns:cc="http://creativecommons.org/ns#"
   xmlns:rdf="http://www.w3.org/1999/02/22-rdf-syntax-ns#"
   xmlns:svg="http://www.w3.org/2000/svg"
   xmlns="http://www.w3.org/2000/svg"
   xmlns:sodipodi="http://sodipodi.sourceforge.net/DTD/sodipodi-0.dtd"
   xmlns:inkscape="http://www.inkscape.org/namespaces/inkscape"
   xml:space="preserve"
   width="1000"
   height="1000"
   version="1.1"
   style="clip-rule:evenodd;fill-rule:evenodd;image-rendering:optimizeQuality;shape-rendering:geometricPrecision;text-rendering:geometricPrecision"
   viewBox="0 0 1000 1000"
   id="svg10"
   sodipodi:docname="ജൂ.svg"
   inkscape:version="1.0.1 (3bc2e813f5, 2020-09-07)"><metadata
   id="metadata14"><rdf:RDF><cc:Work
       rdf:about=""><dc:format>image/svg+xml</dc:format><dc:type
         rdf:resource="http://purl.org/dc/dcmitype/StillImage" /><dc:title></dc:title></cc:Work></rdf:RDF></metadata><sodipodi:namedview
   pagecolor="#ffffff"
   bordercolor="#666666"
   borderopacity="1"
   objecttolerance="10"
   gridtolerance="10"
   guidetolerance="10"
   inkscape:pageopacity="0"
   inkscape:pageshadow="2"
   inkscape:window-width="1920"
   inkscape:window-height="1015"
   id="namedview12"
   showgrid="false"
   inkscape:zoom="0.84890884"
   inkscape:cx="434.60154"
   inkscape:cy="572.14053"
   inkscape:window-x="1920"
   inkscape:window-y="0"
   inkscape:window-maximized="1"
   inkscape:current-layer="svg10"
   showguides="true"
   inkscape:guide-bbox="true"
   inkscape:document-rotation="0"><sodipodi:guide
     position="0,1000"
     orientation="0,1"
     id="guide16"
     inkscape:label=""
     inkscape:locked="true"
     inkscape:color="rgb(0,0,255)" /><sodipodi:guide
     position="1763.3122,2036.1693"
     orientation="1000,0"
     id="guide18" /><sodipodi:guide
     position="0,200"
     orientation="0,1"
     id="guide20"
     inkscape:label="base"
     inkscape:locked="true"
     inkscape:color="rgb(0,0,255)" /><inkscape:grid
     type="xygrid"
     id="grid24"
     originx="-473.37552"
     originy="-489.69235" /><sodipodi:guide
     position="0,0"
     orientation="0,1"
     id="guide34"
     inkscape:label="bottom"
     inkscape:locked="true"
     inkscape:color="rgb(0,0,255)" /><sodipodi:guide
     position="225.05109,1693.3186"
     orientation="0,1"
     id="guide44"
     inkscape:label=""
     inkscape:locked="false"
     inkscape:color="rgb(0,0,255)" /><sodipodi:guide
     position="0,900"
     orientation="0,1"
     id="guide46"
     inkscape:label=""
     inkscape:locked="true"
     inkscape:color="rgb(0,0,255)" /><sodipodi:guide
     position="868.32775,221.41442"
     orientation="1,0"
     id="guide841" /></sodipodi:namedview>
 <defs
   id="defs4"><inkscape:path-effect
   effect="spiro"
   id="path-effect847"
   is_visible="true"
   lpeversion="1" /><inkscape:path-effect
   effect="spiro"
   id="path-effect851"
   is_visible="true"
   lpeversion="1" />
  <style
   type="text/css"
   id="style2">
   <![CDATA[
    .fil0 {fill:#EF7F1A;fill-rule:nonzero}
   ]]>
  </style>
 <inkscape:path-effect
   effect="spiro"
   id="path-effect1214"
   is_visible="true"
   lpeversion="1" /><inkscape:path-effect
   effect="spiro"
   id="path-effect1195"
   is_visible="true"
   lpeversion="1" /><inkscape:path-effect
   effect="spiro"
   id="path-effect992"
   is_visible="true"
   lpeversion="1" /><inkscape:path-effect
   effect="spiro"
   id="path-effect1060"
   is_visible="true"
   lpeversion="1" /><inkscape:path-effect
   effect="spiro"
   id="path-effect1047"
   is_visible="true"
   lpeversion="1" /><inkscape:path-effect
   effect="spiro"
   id="path-effect1085"
   is_visible="true"
   lpeversion="1" /><inkscape:path-effect
   effect="spiro"
   id="path-effect1049"
   is_visible="true"
   lpeversion="1" /></defs>
 
<path
   id="path1102-7-3"
   style="display:inline;opacity:0.950135;fill:#1a1a1a;fill-opacity:1;fill-rule:evenodd;stroke:none;stroke-width:2.40988;stroke-linecap:round;stroke-linejoin:bevel;stroke-miterlimit:4;stroke-dasharray:none;paint-order:stroke fill markers"
   d="m 256.17427,382.77613 c 0.54658,7.57385 0.0128,15.29573 -2.33045,22.51869 -2.34322,7.22297 -6.57343,13.93626 -12.57509,18.58835 -5.6942,4.41377 -12.84652,6.83796 -20.0465,7.094 -7.19997,0.25604 -14.42365,-1.61603 -20.74368,-5.07471 -12.64006,-6.91736 -21.25812,-19.91541 -24.96521,-33.83943 -3.21205,-12.0646 -2.95524,-25.29199 2.22845,-36.64985 2.59185,-5.67893 6.38922,-10.82893 11.18512,-14.82484 4.7959,-3.99591 10.59623,-6.81711 16.74061,-7.91918 6.58728,-1.18151 13.48218,-0.36853 19.71938,2.05749 6.2372,2.42602 11.81751,6.43462 16.31854,11.38729 9.00208,9.90532 13.5054,23.31211 14.46883,36.66219 z m 220.25201,190.87288 c 11.50053,-6.71859 24.55187,-10.81226 37.84465,-11.65111 13.29278,-0.83884 26.8058,1.59862 38.87895,7.22363 12.0933,5.6344 22.66169,14.42636 30.62857,25.1279 7.96689,10.70154 13.34065,23.28158 15.84098,36.38664 3.93623,20.63105 0.59701,42.64981 -9.67531,60.96957 -10.27232,18.31976 -27.47104,32.73409 -47.44707,39.22196 -19.27846,6.26132 -40.85481,5.03841 -59.36916,-3.21279 -18.51434,-8.2512 -33.81522,-23.42523 -42.36858,-41.80194 -9.08902,-19.52758 -10.47098,-42.49634 -3.90899,-63.01162 6.562,-20.51529 20.97787,-38.38727 39.57596,-49.25224 z m -130.35925,4.50286 c -32.70088,32.46379 -69.55694,60.76871 -109.53033,83.68972 -16.24393,9.31438 -33.7198,17.93485 -52.43826,18.42724 -9.35922,0.24619 -18.8762,-1.63927 -27.04838,-6.20777 -8.17218,-4.5685 -14.91112,-11.92946 -17.9663,-20.77941 -2.06085,-5.96969 -2.42017,-12.47315 -1.36117,-18.69912 1.05899,-6.22598 3.50907,-12.1776 6.85435,-17.53422 6.69055,-10.71325 16.77484,-18.89744 27.43331,-25.67491 16.3099,-10.37109 34.26511,-17.86824 52.35623,-24.67147 55.00121,-20.68341 112.23281,-35.42983 170.38074,-43.90068 -14.95342,19.5201 -31.2297,38.02665 -48.68019,55.35062 z m 397.23703,-88.58813 c -57.23688,-36.16618 -131.027,-44.84201 -195.09147,-22.93777 21.48807,-18.0897 41.81117,-37.56304 60.80162,-58.25935 36.49822,-39.77677 68.94843,-86.16744 77.81424,-139.41882 6.16217,-37.0123 0.0585,-76.45217 -19.59224,-108.4167 -19.65075,-31.96452 -53.26934,-55.68039 -90.46025,-60.652143 -27.20704,-3.637087 -55.29842,2.651323 -79.49436,15.613113 -24.19594,12.96179 -44.61383,32.35561 -60.7183,54.58391 -23.42951,32.33874 -38.02883,71.01003 -41.81608,110.76419 -12.65078,-29.64358 -29.04883,-57.68563 -48.68019,-83.2472 -20.174,-26.26814 -43.91712,-50.03879 -71.6003,-68.22249 -18.05659,-11.86048 -37.81091,-21.32191 -58.73798,-26.6856 -21.04967,-5.395116 -43.58436,-6.527911 -64.38247,-0.23233 -17.05119,5.16139 -32.4629,15.20689 -44.812,28.04756 -12.349092,12.84067 -21.693656,28.41564 -28.173138,45.0108 -12.958964,33.19032 -14.450001,69.76894 -12.205268,105.32865 3.535406,56.00577 16.896905,113.40263 51.477386,157.59919 16.13468,20.62139 36.90558,38.04225 61.22462,47.74556 24.31904,9.7033 52.31743,11.23275 76.67744,1.63276 16.1654,-6.37059 30.34965,-17.44447 41.00121,-31.17214 10.65156,-13.72768 17.80921,-30.04811 21.37401,-47.0539 6.83749,-32.6181 0.0737,-67.9431 -18.65838,-95.50757 -10.11478,-14.884 -23.62992,-27.54411 -39.49844,-36.03129 -15.86852,-8.48717 -34.09782,-12.71412 -52.04235,-11.35907 -21.08357,1.59209 -41.48562,11.01722 -56.36509,26.03897 2.35458,-18.05228 11.77995,-35.08739 25.82337,-46.67234 14.25794,-11.76192 33.07034,-17.76761 51.52467,-16.7335 15.87131,0.88936 31.26263,6.81668 44.35243,15.8359 24.58148,16.93728 40.57265,43.8871 51.30548,71.74256 14.51398,37.66887 20.71378,78.18102 21.7148,118.5369 0.19662,7.9267 0.19662,15.85827 0,23.78497 l 92.49247,-23.78497 c -13.49168,-27.47691 -17.07207,-59.69341 -9.9424,-89.46208 4.52238,-18.88241 13.13922,-36.56545 23.18171,-53.18309 12.91443,-21.36993 29.03787,-41.88949 51.25662,-53.28177 11.10938,-5.69613 23.60738,-8.9253 36.07878,-8.35225 12.47139,0.57305 24.88108,5.08762 34.20415,13.39091 8.61365,7.67147 14.32645,18.29121 17.0891,29.49006 2.76264,11.19886 2.69274,22.96564 0.9369,34.3658 -5.63283,36.57235 -28.34379,68.90224 -56.84075,92.50709 -28.49696,23.60486 -62.56763,39.41901 -96.89659,53.23163 -37.67329,15.15825 -76.26401,28.25358 -115.90014,37.08684 -69.26079,15.43537 -142.34285,18.09393 -206.89082,47.57048 -35.750857,16.32603 -68.469989,41.37394 -88.322974,75.29329 -9.926493,16.95967 -16.496044,35.97399 -18.3390685,55.53848 -1.8430248,19.56448 1.1179,39.66454 9.2706865,57.54464 12.806808,28.08695 38.138124,49.58512 67.049247,60.40354 28.911119,10.81842 61.083099,11.43686 91.192459,4.63114 46.46579,-10.50282 87.73098,-37.95638 121.70041,-71.35483 32.95556,-32.40163 60.00128,-70.79572 79.41455,-112.73686 -10.9764,27.78278 -11.53742,59.54227 -1.54911,87.69539 9.30492,26.22692 27.42321,48.94838 49.8441,65.43282 22.42089,16.48444 48.99937,26.89216 76.36555,31.94438 34.28056,6.32872 70.75839,4.18242 102.39689,-10.45366 23.82932,-11.02353 44.35905,-28.954 58.80493,-50.87822 14.44588,-21.92422 22.80571,-47.7581 24.32112,-73.9699 2.23385,-38.63862 -10.70856,-77.95399 -35.45756,-107.71 21.36356,-9.08439 46.27938,-9.47189 67.91511,-1.05622 10.51062,4.08833 20.38006,10.29449 27.54278,19.00558 7.16272,8.71108 11.42273,20.08111 10.34423,31.30717 -1.01183,10.5321 -6.82196,20.5083 -15.48328,26.58535 -8.66131,6.07705 -20.01912,8.14641 -30.26717,5.51459 l -9.07211,79.70121 c 10.34498,-6.84418 23.41753,-9.43222 35.58992,-7.04592 12.17238,2.3863 23.30012,9.71863 30.29518,19.96219 5.37431,7.87014 8.311,17.32832 8.66573,26.85179 0.35473,9.52347 -1.83658,19.09085 -6.00678,27.66009 -8.17594,16.80054 -23.6232,29.2727 -40.69107,36.87481 -17.06787,7.60211 -35.77,10.75484 -54.35409,12.68771 -60.42756,6.28487 -121.67167,0.3876 -182.0247,7.35193 -23.62123,2.72573 -47.01517,7.41856 -69.86015,14.01396 L 431.56711,1000 c 16.07172,-15.93591 35.57601,-28.39257 56.79328,-36.27172 24.94647,-9.26401 51.96238,-12.15334 78.54175,-10.85506 26.57937,1.29828 52.8104,6.68805 78.51903,13.55934 51.41726,13.74258 101.60852,33.54298 154.5098,39.37804 33.22427,3.6647 67.0633,1.6912 99.63636,-5.8106 l 6.25108,-133.71213 c -27.23663,17.85921 -57.18166,31.57974 -88.49271,40.54653 -54.93119,15.73107 -113.55162,16.64565 -169.81352,6.67064 -22.45078,-3.98043 -44.59909,-9.66577 -66.19131,-16.99092 52.74834,0.93718 105.65695,-8.11109 155.09609,-26.52407 31.25245,-11.63958 61.70899,-27.42585 84.74432,-51.54159 11.51766,-12.05787 21.04256,-26.12629 27.15329,-41.64105 6.11073,-15.51476 8.74189,-32.49713 6.75123,-49.05268 -2.20719,-18.35636 -10.15888,-35.98022 -22.46101,-49.78186 -12.30213,-13.80163 -28.89952,-23.71913 -46.88238,-28.01379 13.48016,-13.69952 22.02068,-32.1611 23.73384,-51.30415 1.99513,-22.29375 -5.16348,-44.84863 -17.53329,-63.50283 -12.36981,-18.65421 -29.69693,-33.63216 -48.6189,-45.58836 z"
   sodipodi:nodetypes="aaaaaaaaaaaaaaaacaacaaaacaaaaacaacccsssaaccaaaaaaaaaacaaascaaccaaaaccasccaacaacaa"
   inkscape:path-effect="#path-effect847"
   inkscape:original-d="m 256.17427,382.77613 c 3.19154,14.22162 -1.40328,35.61802 -14.90554,41.10704 -22.55727,9.17012 -57.97665,-8.74608 -65.75539,-31.82014 -7.093,-21.03994 8.23368,-55.86103 30.15418,-59.39387 23.41295,-3.77337 45.31391,26.96742 50.50675,50.10697 z m 220.25201,190.87288 c 20.23087,-15.71454 53.47172,-15.17851 76.7236,-4.42748 23.32528,10.78497 44.81581,35.86987 46.46955,61.51454 2.47398,38.36408 -20.60646,88.17025 -57.12238,100.19153 -35.22417,11.59603 -86.50459,-11.20406 -101.73774,-45.01473 -16.12892,-35.79887 4.65817,-88.17745 35.66697,-112.26386 z m -130.35925,4.50286 c -33.59009,31.35146 -65.40273,70.88497 -109.53033,83.68972 -31.31753,9.08758 -81.89971,20.10134 -97.45294,-8.55994 -11.14801,-20.5434 16.00363,-45.78602 32.92649,-61.90825 13.96838,-13.30754 34.20866,-18.12372 52.35623,-24.67147 55.16749,-19.90484 112.38519,-38.83305 170.38074,-43.90068 -14.20559,21.29855 -30.71787,38.58543 -48.68019,55.35062 z m 397.23703,-88.58813 c -55.07814,-35.40937 -195.09147,-22.93777 -195.09147,-22.93777 0,0 43.63829,-36.04882 60.80162,-58.25935 C 641.55707,366.25391 688.6367,322.13848 686.82845,268.9478 684.54377,201.7426 641.67618,117.47783 576.77596,99.878957 526.33006,86.199636 471.56704,131.26038 436.5633,170.07598 410.13363,199.38381 397.43387,241.02528 394.74722,280.84017 382.17569,251.24423 366.01233,222.80214 346.06703,197.59297 325.61238,171.74002 301.789,147.81665 274.46673,129.37048 256.64326,117.33726 236.73874,107.27345 215.72875,102.68488 194.762,98.105758 169.51972,91.037727 151.34628,102.45255 95.545374,137.5012 70.430268,215.08336 66.155874,280.83956 c -3.584826,55.14805 22.100631,110.78931 51.477386,157.59919 29.272,45.11132 90.93673,62.72632 137.90206,49.37832 32.07951,-9.1173 54.44451,-45.83277 62.37522,-78.22604 7.71376,-31.50716 -1.13852,-74.67359 -18.65838,-95.50757 -22.68073,-25.81089 -55.83501,-46.39759 -91.54079,-47.39036 -26.17816,-0.72805 -35.86958,10.10806 -56.36509,26.03897 2.19147,-17.98509 11.62329,-35.03195 25.82337,-46.67234 14.19999,-11.64046 33.01929,-17.75222 51.52467,-16.7335 15.92082,0.87646 31.31585,6.86243 44.35243,15.8359 24.78133,17.05798 39.82961,44.67477 51.30548,71.74256 15.6797,36.98326 18.08077,78.5318 21.7148,118.5369 0.71725,7.89581 0.19654,15.85812 0,23.78497 l 92.49247,-23.78497 c -5.44012,-32.31027 -14.43172,-59.79555 -9.9424,-89.46208 2.89349,-19.12091 9.28219,-39.73746 23.18171,-53.18309 31.32868,-30.30564 82.46115,-67.55104 121.53955,-48.24311 19.82888,9.79709 23.89301,42.53109 18.026,63.85586 -18.73133,68.08261 -92.96277,109.78658 -153.73734,145.73872 -34.91179,20.65262 -76.78342,26.35155 -115.90014,37.08684 -68.23989,18.72793 -150.98071,4.19447 -206.89082,47.57048 -55.850518,43.32978 -121.752801,122.01927 -97.391356,188.37641 19.65391,53.53448 101.353876,69.03358 158.241706,65.03468 46.90965,-3.29749 87.09125,-39.51783 121.70041,-71.35483 33.82984,-31.1201 66.13009,-67.82452 79.41455,-112.73686 -6.097,31.95959 -14.21297,61.34413 -1.54911,87.69539 23.01628,47.89279 75.10924,82.80983 126.20965,97.3772 32.99519,9.40602 73.01436,7.26142 102.39689,-10.45366 42.81661,-25.81475 73.19745,-75.84719 83.12605,-124.84812 7.61855,-37.60004 -5.93222,-98.60322 -35.45756,-107.71 -1.05596,-1.88776 47.57653,-11.00418 67.91511,-1.05622 18.85913,9.22434 41.16479,29.57603 37.88701,50.31275 -2.90858,18.401 -17.70321,51.14944 -45.75045,32.09994 l -9.07211,79.70121 c -3.75671,11.56188 51.24682,-4.01222 65.8851,12.91627 11.89929,13.76096 11.70926,38.73059 2.65895,54.51188 -17.77529,30.9953 -60.52032,40.35898 -95.04516,49.56252 -58.67532,15.6415 -121.73101,0.13251 -182.0247,7.35193 -23.58218,2.82367 -56.39004,8.44157 -69.86015,14.01396 L 431.56711,1000 c 33.10431,-25.26017 34.85775,-31.43429 56.79328,-36.27172 102.34084,-22.56919 222.81036,42.60012 311.57058,42.08232 37.86137,-0.2208 96.69874,15.611 99.63636,-5.8106 l 6.25108,-133.71213 c 2.7777,-20.25541 -56.93389,33.00884 -88.49271,40.54653 -55.09835,13.16 -113.48333,12.6643 -169.81352,6.67064 -22.65122,-2.41014 -53.75172,-6.04304 -66.19131,-16.99092 -10.49763,-3.62826 109.64415,-0.3507 155.09609,-26.52407 53.50475,-30.81055 119.66086,-80.50183 118.64884,-142.23532 -0.5694,-34.73351 -48.27168,-69.81033 -69.34339,-77.79565 29.13377,1.17386 24.78675,-32.49093 23.73384,-51.30415 -2.37637,-42.46067 -30.37988,-86.09342 -66.15219,-109.09119 z" /></svg>
