<?xml version="1.0" encoding="UTF-8"?>
<!DOCTYPE svg PUBLIC "-//W3C//DTD SVG 1.1//EN" "http://www.w3.org/Graphics/SVG/1.1/DTD/svg11.dtd">
<!-- Creator: CorelDRAW X8 -->
<svg xmlns="http://www.w3.org/2000/svg" xml:space="preserve" width="1866px" height="1486px" version="1.1" style="shape-rendering:geometricPrecision; text-rendering:geometricPrecision; image-rendering:optimizeQuality; fill-rule:evenodd; clip-rule:evenodd"
viewBox="0 0 1866 1486"
 xmlns:xlink="http://www.w3.org/1999/xlink">
 <defs>
  <style type="text/css">
   <![CDATA[
    .fil0 {fill:#EF7F1A;fill-rule:nonzero}
   ]]>
  </style>
 </defs>
 <g id="Layer_x0020_1">
  <metadata id="CorelCorpID_0Corel-Layer"/>
  <path class="fil0" d="M410 915c-79,0 -210,-11 -210,-116 0,-37 23,-81 59,-94 37,-14 100,-17 177,-17 53,0 114,2 177,4 81,2 163,8 245,6l57 -1c-79,65 -176,120 -269,163 -75,35 -152,55 -236,55zm825 -3c-67,0 -104,-62 -104,-123 0,-64 37,-125 110,-125 67,0 104,61 104,121 0,66 -38,127 -110,127zm-956 -472c-53,0 -85,-43 -85,-92 0,-50 31,-91 83,-91 52,0 83,43 83,91 0,46 -30,92 -81,92zm1269 348c0,-60 -25,-110 -65,-148 117,40 182,156 181,273 0,112 -60,216 -140,286 -84,75 -189,121 -297,150 8,-15 11,-30 11,-46 0,-94 -131,-142 -208,-160 -64,-14 -130,-20 -196,-20 -72,0 -147,6 -216,23 -77,20 -194,68 -194,158 0,83 91,130 191,155 81,21 169,27 219,27 120,0 252,-5 380,-26 179,-28 352,-86 482,-202 103,-91 170,-209 170,-345 1,-233 -182,-366 -401,-388 52,-58 83,-132 83,-210 0,-80 -32,-155 -93,-209 -84,-75 -204,-105 -316,-105 -106,0 -225,22 -308,93 -95,-79 -253,-95 -373,-94 -119,0 -250,22 -347,94 -76,56 -111,134 -111,226 0,64 20,123 69,166 55,49 135,65 208,65 124,0 262,-66 262,-203 0,-129 -129,-203 -249,-203 -9,0 -18,0 -27,1 50,-28 135,-35 195,-35 57,0 114,4 166,29 71,33 106,93 106,170l0 186c0,41 68,55 100,55 33,0 102,-14 102,-55l0 -186c0,-116 81,-198 201,-198 55,0 108,14 150,52 43,39 64,98 63,155 0,56 -21,107 -58,151 -37,44 -89,71 -144,87 -97,28 -217,29 -319,29 -68,0 -135,-2 -203,-4 -68,-2 -132,-5 -193,-5 -94,0 -178,6 -249,24 -103,26 -177,77 -177,185 0,207 240,238 400,238 114,0 223,-24 327,-68 78,-33 150,-73 218,-122 29,133 163,190 290,190 139,0 310,-75 310,-236zm-714 592c-152,0 -222,-39 -222,-77 0,-39 79,-76 222,-76 142,0 216,40 216,76 0,37 -67,77 -216,77z"/>
 </g>
</svg>
