<?xml version="1.0" encoding="UTF-8"?>
<!DOCTYPE svg PUBLIC "-//W3C//DTD SVG 1.1//EN" "http://www.w3.org/Graphics/SVG/1.1/DTD/svg11.dtd">
<!-- Creator: CorelDRAW X8 -->
<svg xmlns="http://www.w3.org/2000/svg" xml:space="preserve" width="2266px" height="1486px" version="1.1" style="shape-rendering:geometricPrecision; text-rendering:geometricPrecision; image-rendering:optimizeQuality; fill-rule:evenodd; clip-rule:evenodd"
viewBox="0 0 2266 1486"
 xmlns:xlink="http://www.w3.org/1999/xlink">
 <defs>
  <style type="text/css">
   <![CDATA[
    .fil0 {fill:#EF7F1A;fill-rule:nonzero}
   ]]>
  </style>
 </defs>
 <g id="Layer_x0020_1">
  <metadata id="CorelCorpID_0Corel-Layer"/>
  <path class="fil0" d="M1222 1486c335,0 789,-90 977,-394 41,-67 67,-145 67,-224 0,-65 -16,-137 -52,-191 -66,-99 -185,-142 -300,-153 50,-58 82,-131 82,-209 0,-80 -32,-155 -93,-209 -85,-75 -204,-105 -316,-105 -107,0 -225,22 -308,93 -95,-79 -253,-95 -373,-94 -120,0 -251,22 -348,94 -75,56 -111,134 -111,226 0,64 21,123 69,166 56,49 135,65 208,65 124,0 262,-66 262,-203 0,-129 -128,-203 -249,-203 -9,0 -18,0 -27,1 50,-28 136,-35 196,-35 57,0 114,4 166,29 71,33 106,93 106,170l0 186c0,41 68,55 100,55 33,0 102,-14 102,-55l0 -186c0,-116 81,-198 201,-198 55,0 108,14 150,52 43,39 63,98 63,155 -1,56 -22,107 -58,151 -38,44 -89,71 -144,87 -97,28 -218,29 -320,29 -68,0 -134,-2 -202,-4 -68,-2 -132,-5 -194,-5 -94,0 -178,6 -249,24 -103,26 -177,77 -177,185 0,207 241,238 400,238 114,0 224,-24 328,-68 78,-33 150,-73 218,-122 29,133 163,190 290,190 139,0 310,-75 310,-236 0,-59 -25,-107 -62,-145 34,11 75,41 96,72 28,43 40,105 40,157 0,64 -24,130 -57,184 -153,247 -518,319 -791,319 -228,0 -484,-38 -682,-161 -236,-147 -337,-384 -338,-653 0,-180 79,-367 235,-469 17,-11 24,-23 24,-36 0,-16 -14,-33 -36,-43 -19,-9 -42,-13 -66,-13 -28,0 -56,6 -77,20 -183,119 -282,327 -282,541 0,338 151,605 452,764 230,122 513,161 770,161zm-496 -1046c-53,0 -85,-43 -85,-92 0,-50 32,-91 83,-91 52,0 83,43 83,91 0,46 -30,92 -81,92zm957 472c-67,0 -104,-62 -104,-123 0,-64 37,-125 110,-125 67,0 104,61 104,121 0,66 -38,127 -110,127zm-825 3c-80,0 -211,-11 -211,-116 0,-37 24,-81 59,-94 37,-14 100,-17 178,-17 52,0 114,2 176,4 82,2 164,8 246,6l57 -1c-79,65 -177,120 -269,163 -76,35 -152,55 -236,55z"/>
 </g>
</svg>
