<?xml version="1.0" encoding="UTF-8"?>
<!DOCTYPE svg PUBLIC "-//W3C//DTD SVG 1.1//EN" "http://www.w3.org/Graphics/SVG/1.1/DTD/svg11.dtd">
<!-- Creator: CorelDRAW X8 -->
<svg xmlns="http://www.w3.org/2000/svg" xml:space="preserve" width="3546px" height="1486px" version="1.1" style="shape-rendering:geometricPrecision; text-rendering:geometricPrecision; image-rendering:optimizeQuality; fill-rule:evenodd; clip-rule:evenodd"
viewBox="0 0 3546 1486"
 xmlns:xlink="http://www.w3.org/1999/xlink">
 <defs>
  <style type="text/css">
   <![CDATA[
    .fil0 {fill:#EF7F1A;fill-rule:nonzero}
   ]]>
  </style>
 </defs>
 <g id="Layer_x0020_1">
  <metadata id="CorelCorpID_0Corel-Layer"/>
  <path class="fil0" d="M309 486c-53,0 -85,-43 -85,-92 0,-50 31,-91 83,-91 52,0 83,43 83,91 0,46 -30,92 -81,92zm2889 348c0,-70 -34,-126 -88,-167 34,-3 68,-4 101,-4 76,0 176,15 176,106 0,42 -20,75 -66,75 -37,0 -82,7 -83,52 0,47 42,57 80,57 55,0 82,16 82,74 0,56 -75,98 -125,98l-1309 0c-139,0 -316,29 -316,205 0,170 176,202 316,202l1460 0c46,0 100,-28 100,-79 0,-52 -55,-80 -102,-80l-1458 0c-52,0 -112,1 -112,-68 0,-64 59,-68 112,-68l1309 0c78,0 171,-20 233,-71 42,-35 66,-86 66,-141 0,-56 -30,-101 -76,-132 40,-34 64,-81 64,-133 0,-103 -77,-162 -168,-188 -54,-16 -113,-21 -169,-21 -32,0 -65,1 -97,5 44,-56 70,-124 70,-195 0,-80 -32,-155 -93,-209 -84,-75 -204,-105 -316,-105 -106,0 -224,22 -308,93 -95,-79 -253,-95 -373,-94 -119,0 -250,22 -347,94 -69,51 -104,120 -110,201 -15,205 -152,407 -334,502 -120,63 -283,90 -418,104 -91,9 -180,13 -272,13 -88,0 -190,-4 -276,-25 -54,-13 -115,-39 -115,-100 0,-83 90,-95 154,-99 34,-2 68,-3 102,-3 69,0 138,3 206,6 57,2 120,4 185,4 190,0 488,-21 619,-180 47,-57 76,-128 76,-202 0,-80 -32,-155 -93,-209 -84,-75 -204,-105 -316,-105 -106,0 -225,22 -308,93 -95,-79 -253,-95 -373,-94 -119,0 -250,22 -347,94 -76,56 -111,134 -111,226 0,64 20,123 69,166 55,49 135,65 208,65 124,0 262,-66 262,-203 0,-129 -129,-203 -249,-203 -9,0 -18,0 -27,1 50,-28 135,-35 195,-35 57,0 114,4 166,29 71,33 106,93 106,170l0 186c0,41 68,55 100,55 33,0 102,-14 102,-55l0 -186c0,-116 81,-198 201,-198 55,0 108,14 150,52 43,39 64,98 63,155 0,56 -22,107 -58,151 -97,116 -318,117 -447,117 -59,0 -116,-1 -164,-3 -76,-3 -155,-7 -232,-7 -35,0 -69,1 -103,3 -146,9 -339,29 -339,212 0,121 130,172 235,198 111,28 244,34 359,34 98,0 198,-4 296,-13 155,-15 332,-47 471,-119 161,-83 286,-217 360,-381 51,29 114,40 173,40 124,0 262,-66 262,-203 0,-129 -129,-203 -249,-203 -9,0 -18,0 -27,1 50,-28 135,-35 195,-35 57,0 115,4 166,29 71,33 106,93 106,170l0 186c0,41 68,55 100,55 33,0 102,-14 102,-55l0 -186c0,-116 81,-198 201,-198 56,0 108,14 150,52 43,39 64,98 63,155 0,56 -21,107 -58,151 -37,44 -89,71 -144,87 -97,28 -217,29 -319,29 -68,0 -135,-2 -203,-4 -68,-2 -132,-5 -193,-5 -94,0 -178,6 -249,24 -103,26 -177,77 -177,185 0,207 240,238 400,238 114,0 223,-24 327,-68 78,-33 150,-73 218,-122 29,133 163,190 290,190 139,0 310,-75 310,-236zm-1269 -348c-53,0 -85,-43 -85,-92 0,-50 31,-91 83,-91 52,0 83,43 83,91 0,46 -30,92 -81,92zm956 472c-67,0 -104,-62 -104,-123 0,-64 37,-125 110,-125 67,0 104,61 104,121 0,66 -38,127 -110,127zm-825 3c-79,0 -210,-11 -210,-116 0,-37 23,-81 59,-94 37,-14 100,-17 177,-17 53,0 114,2 177,4 81,2 163,8 245,6l57 -1c-79,65 -176,120 -269,163 -75,35 -152,55 -236,55z"/>
 </g>
</svg>
