<?xml version="1.0" encoding="UTF-8"?>
<!DOCTYPE svg PUBLIC "-//W3C//DTD SVG 1.1//EN" "http://www.w3.org/Graphics/SVG/1.1/DTD/svg11.dtd">
<!-- Creator: CorelDRAW X8 -->
<svg xmlns="http://www.w3.org/2000/svg" xml:space="preserve" width="3440px" height="1486px" version="1.1" style="shape-rendering:geometricPrecision; text-rendering:geometricPrecision; image-rendering:optimizeQuality; fill-rule:evenodd; clip-rule:evenodd"
viewBox="0 0 3440 1486"
 xmlns:xlink="http://www.w3.org/1999/xlink">
 <defs>
  <style type="text/css">
   <![CDATA[
    .fil0 {fill:#EF7F1A;fill-rule:nonzero}
   ]]>
  </style>
 </defs>
 <g id="Layer_x0020_1">
  <metadata id="CorelCorpID_0Corel-Layer"/>
  <path class="fil0" d="M279 440c-53,0 -85,-43 -85,-92 0,-50 31,-91 83,-91 52,0 83,43 83,91 0,46 -30,92 -81,92zm3012 1046c46,0 101,-29 101,-80 0,-52 -55,-79 -101,-79l-1350 0c-54,0 -112,1 -112,-69 0,-63 60,-67 112,-67l1010 0c137,0 302,-42 402,-140 59,-59 87,-131 87,-213 0,-91 -37,-179 -110,-237 -64,-51 -163,-70 -246,-74 52,-58 85,-133 85,-212 0,-80 -32,-155 -93,-209 -84,-75 -204,-105 -316,-105 -107,0 -225,22 -308,93 -95,-79 -253,-95 -373,-94 -119,0 -250,22 -347,94 -68,50 -104,118 -110,197 -18,210 -148,408 -335,506 -120,63 -283,90 -418,104 -91,9 -180,13 -272,13 -88,0 -190,-4 -276,-25 -54,-13 -115,-39 -115,-100 0,-83 90,-95 154,-99 34,-2 68,-3 102,-3 69,0 138,3 206,6 57,2 120,4 185,4 191,0 488,-21 620,-180 46,-57 76,-128 76,-202 0,-80 -33,-155 -94,-209 -84,-75 -204,-105 -316,-105 -106,0 -224,22 -308,93 -95,-79 -253,-95 -373,-94 -119,0 -250,22 -347,94 -76,56 -111,134 -111,226 0,64 20,123 69,166 55,49 135,65 208,65 124,0 262,-66 262,-203 0,-129 -129,-203 -249,-203 -9,0 -18,0 -27,1 50,-28 135,-35 195,-35 58,0 115,4 166,29 71,33 106,93 106,170l0 186c0,41 68,55 100,55 33,0 102,-14 102,-55l0 -186c0,-116 81,-198 201,-198 56,0 109,14 150,52 44,39 64,98 64,155 -1,56 -22,107 -58,151 -97,116 -318,117 -448,117 -59,0 -116,-1 -164,-3 -76,-3 -155,-7 -232,-7 -35,0 -69,1 -103,3 -145,9 -339,29 -339,212 0,121 130,172 235,198 111,28 244,34 359,34 98,0 198,-4 296,-13 155,-15 332,-47 472,-119 160,-83 285,-217 359,-381 51,29 115,40 174,40 124,0 262,-66 262,-203 0,-129 -129,-203 -250,-203 -8,0 -18,0 -26,1 50,-28 135,-35 195,-35 57,0 114,4 166,29 71,33 106,93 106,170l0 186c0,41 68,55 100,55 33,0 102,-14 102,-55l0 -186c0,-116 81,-198 201,-198 55,0 108,14 150,52 43,39 63,98 63,155 -1,56 -22,107 -58,151 -38,44 -89,71 -144,87 -97,28 -218,29 -319,29 -68,0 -135,-2 -203,-4 -68,-2 -132,-5 -193,-5 -94,0 -178,6 -250,24 -102,26 -176,77 -176,185 0,207 240,238 400,238 114,0 223,-24 327,-68 78,-33 150,-73 218,-122 29,133 163,190 290,190 139,0 310,-75 310,-236 0,-60 -25,-109 -65,-147 22,5 42,15 60,27 53,37 85,102 85,170 0,54 -14,106 -50,148 -58,67 -163,93 -248,93l-1010 0c-139,0 -316,28 -316,204 0,171 176,203 316,203l1350 0zm-1391 -1046c-54,0 -86,-43 -86,-92 0,-50 32,-91 84,-91 52,0 82,43 82,91 0,46 -30,92 -80,92zm956 472c-67,0 -104,-62 -104,-123 0,-64 37,-125 110,-125 67,0 104,61 104,121 0,66 -38,127 -110,127zm-825 3c-80,0 -211,-10 -211,-116 0,-37 24,-81 60,-94 36,-14 100,-17 177,-17 53,0 114,2 177,4 81,2 163,8 245,6l57 -1c-79,65 -176,120 -269,163 -75,35 -152,55 -236,55z"/>
 </g>
</svg>
