<?xml version="1.0" encoding="UTF-8" standalone="no"?>
<svg
   xmlns:dc="http://purl.org/dc/elements/1.1/"
   xmlns:cc="http://creativecommons.org/ns#"
   xmlns:rdf="http://www.w3.org/1999/02/22-rdf-syntax-ns#"
   xmlns:svg="http://www.w3.org/2000/svg"
   xmlns="http://www.w3.org/2000/svg"
   xmlns:sodipodi="http://sodipodi.sourceforge.net/DTD/sodipodi-0.dtd"
   xmlns:inkscape="http://www.inkscape.org/namespaces/inkscape"
   xml:space="preserve"
   width="1000"
   height="1000"
   version="1.1"
   style="clip-rule:evenodd;fill-rule:evenodd;image-rendering:optimizeQuality;shape-rendering:geometricPrecision;text-rendering:geometricPrecision"
   viewBox="0 0 1000 1000"
   id="svg10"
   sodipodi:docname="ജ്ഞ.svg"
   inkscape:version="1.0.1 (3bc2e813f5, 2020-09-07)"><metadata
   id="metadata14"><rdf:RDF><cc:Work
       rdf:about=""><dc:format>image/svg+xml</dc:format><dc:type
         rdf:resource="http://purl.org/dc/dcmitype/StillImage" /><dc:title /></cc:Work></rdf:RDF></metadata><sodipodi:namedview
   pagecolor="#ffffff"
   bordercolor="#666666"
   borderopacity="1"
   objecttolerance="10"
   gridtolerance="10"
   guidetolerance="10"
   inkscape:pageopacity="0"
   inkscape:pageshadow="2"
   inkscape:window-width="1920"
   inkscape:window-height="1015"
   id="namedview12"
   showgrid="false"
   inkscape:zoom="0.6002692"
   inkscape:cx="631.61362"
   inkscape:cy="871.19815"
   inkscape:window-x="1920"
   inkscape:window-y="0"
   inkscape:window-maximized="1"
   inkscape:current-layer="svg10"
   showguides="true"
   inkscape:guide-bbox="true"
   inkscape:document-rotation="0"><sodipodi:guide
     position="0,1000"
     orientation="0,1"
     id="guide16"
     inkscape:label=""
     inkscape:locked="true"
     inkscape:color="rgb(0,0,255)" /><sodipodi:guide
     position="1763.3122,2036.1693"
     orientation="1000,0"
     id="guide18" /><sodipodi:guide
     position="0,200"
     orientation="0,1"
     id="guide20"
     inkscape:label="base"
     inkscape:locked="true"
     inkscape:color="rgb(0,0,255)" /><inkscape:grid
     type="xygrid"
     id="grid24"
     originx="-473.37552"
     originy="-489.69235" /><sodipodi:guide
     position="0,0"
     orientation="0,1"
     id="guide34"
     inkscape:label="bottom"
     inkscape:locked="true"
     inkscape:color="rgb(0,0,255)" /><sodipodi:guide
     position="225.05109,1693.3186"
     orientation="0,1"
     id="guide44"
     inkscape:label=""
     inkscape:locked="false"
     inkscape:color="rgb(0,0,255)" /><sodipodi:guide
     position="0,900"
     orientation="0,1"
     id="guide46"
     inkscape:label=""
     inkscape:locked="true"
     inkscape:color="rgb(0,0,255)" /><sodipodi:guide
     position="691.79139,187.70832"
     orientation="1,0"
     id="guide841" /></sodipodi:namedview>
 <defs
   id="defs4"><inkscape:path-effect
   effect="spiro"
   id="path-effect914"
   is_visible="true"
   lpeversion="1" /><inkscape:path-effect
   effect="spiro"
   id="path-effect886"
   is_visible="true"
   lpeversion="1" /><inkscape:path-effect
   effect="spiro"
   id="path-effect847"
   is_visible="true"
   lpeversion="1" /><inkscape:path-effect
   effect="spiro"
   id="path-effect851"
   is_visible="true"
   lpeversion="1" />
  <style
   type="text/css"
   id="style2">
   <![CDATA[
    .fil0 {fill:#EF7F1A;fill-rule:nonzero}
   ]]>
  </style>
 <inkscape:path-effect
   effect="spiro"
   id="path-effect1214"
   is_visible="true"
   lpeversion="1" /><inkscape:path-effect
   effect="spiro"
   id="path-effect1195"
   is_visible="true"
   lpeversion="1" /><inkscape:path-effect
   effect="spiro"
   id="path-effect992"
   is_visible="true"
   lpeversion="1" /><inkscape:path-effect
   effect="spiro"
   id="path-effect1060"
   is_visible="true"
   lpeversion="1" /><inkscape:path-effect
   effect="spiro"
   id="path-effect1047"
   is_visible="true"
   lpeversion="1" /><inkscape:path-effect
   effect="spiro"
   id="path-effect1085"
   is_visible="true"
   lpeversion="1" /><inkscape:path-effect
   effect="spiro"
   id="path-effect1049"
   is_visible="true"
   lpeversion="1" /><inkscape:path-effect
   effect="spiro"
   id="path-effect865"
   is_visible="true"
   lpeversion="1" /><style
   type="text/css"
   id="style2-3">
   <![CDATA[
    .fil0 {fill:#EF7F1A;fill-rule:nonzero}
   ]]>
  </style><inkscape:path-effect
   effect="spiro"
   id="path-effect1286"
   is_visible="true"
   lpeversion="1" /><inkscape:path-effect
   effect="spiro"
   id="path-effect1305"
   is_visible="true"
   lpeversion="1" /></defs>
 
<g
   style="clip-rule:evenodd;fill-rule:evenodd;image-rendering:optimizeQuality;shape-rendering:geometricPrecision;text-rendering:geometricPrecision;fill:#ff9900"
   id="g877"
   transform="translate(511.81743,93.889059)" /><path
   id="path1102-7-3"
   style="display:inline;opacity:0.950135;fill:#1a1a1a;fill-opacity:1;fill-rule:nonzero;stroke:none;stroke-width:2.40988;stroke-linecap:round;stroke-linejoin:bevel;stroke-miterlimit:4;stroke-dasharray:none;paint-order:stroke fill markers"
   d="m 205.66752,332.66916 c -6.14438,1.10207 -11.94471,3.92327 -16.74061,7.91918 -4.7959,3.99591 -8.59327,9.14591 -11.18512,14.82484 -5.1837,11.35786 -5.4405,24.58525 -2.22845,36.64985 3.70709,13.92402 12.32515,26.92208 24.96521,33.83943 6.32003,3.45868 13.5437,5.33075 20.74368,5.07471 7.19998,-0.25604 14.3523,-2.68023 20.0465,-7.094 6.00166,-4.6521 10.23187,-11.36538 12.57509,-18.58835 2.34322,-7.22297 2.87703,-14.94484 2.33045,-22.51869 -0.96343,-13.35008 -5.46676,-26.75686 -14.46883,-36.66219 -4.50104,-4.95266 -10.08134,-8.96127 -16.31854,-11.38729 -6.2372,-2.42602 -13.1321,-3.239 -19.71938,-2.05749 z m 723.53283,108.87795 c 47.20506,34.20394 77.11505,91.22293 78.15035,149.50805 1.0377,58.41838 -26.62275,116.19318 -71.26589,153.88634 -19.70814,16.64001 -42.77656,29.66688 -67.83602,35.77625 -25.0609,6.10972 -52.15677,5.03045 -75.89669,-5.05883 -23.74325,-10.0907 -43.19567,-28.68678 -57.53197,-50.1352 -14.33637,-21.44853 -23.89614,-45.72817 -31.73949,-70.30565 -16.65036,-52.17463 -26.01813,-106.5776 -29.13101,-161.25608 -3.70018,-64.99463 1.43758,-130.56689 16.33067,-193.9403 7.6074,-32.3712 17.82113,-64.32884 33.38539,-93.71457 15.56426,-29.38572 36.6803,-56.21027 63.60913,-75.71938 37.0695,-26.85572 85.09616,-38.692831 130.10631,-30.35836 49.28344,9.12575 92.57347,41.6624 120.17057,83.5018 17.1649,26.0233 28.7809,55.68747 33.8511,86.44682 10.4816,-25.01943 25.0503,-48.32122 42.953,-68.70082 18.0695,-20.56949 39.7406,-38.28453 64.605,-49.7464 24.8644,-11.46188 53.0407,-16.44595 80.0339,-11.86564 26.5532,4.50564 51.0337,18.04208 71.3135,35.76498 20.2798,17.72289 36.6225,39.52836 50.9666,62.32347 28.7024,45.61281 49.9024,95.67465 65.8532,147.15209 13.6815,44.15401 23.5788,89.50813 28.9432,135.42091 5.1716,44.26198 6.105,89.28388 -1.2321,133.2388 -6.0723,36.37824 -18.2606,72.63553 -41.6981,101.11243 -11.7187,14.23844 -26.1738,26.34233 -42.6987,34.52707 -16.5249,8.18474 -35.1465,12.36595 -53.5427,11.08489 -19.5106,-1.35866 -38.3541,-8.81892 -54.4203,-19.97176 -16.0662,-11.15284 -29.4426,-25.90016 -40.3024,-42.16589 -22.088,-33.08322 -33.8505,-72.29531 -38.3449,-111.81974 -4.4944,-39.52443 -1.9945,-79.5308 2.6063,-119.04298 9.15,-78.58097 27.0017,-157.25155 64.4496,-226.93903 37.4479,-69.68749 96.0865,-130.06482 169.9087,-158.5073 14.8392,-5.7173 30.2601,-10.13935 46.0669,-11.88111 15.8068,-1.74176 32.038,-0.74625 47.1729,4.13473 29.3573,9.46771 52.5435,32.9125 68.2081,59.48524 18.6525,31.64128 28.0119,68.0796 31.795,104.61416 3.7932,36.63202 2.1889,73.6661 -2.1869,110.2331 -7.1355,59.62942 -21.5776,118.11609 -31.8953,177.27797 -10.3177,59.16188 -16.4936,119.89038 -6.9647,179.18442 5.9303,36.90179 17.9387,72.81966 35.3947,105.8681 l -189.0432,7.21475 c 10.5664,-27.46385 21.785,-54.6768 33.643,-81.60819 24.0059,-54.52109 50.8348,-108.47926 63.4842,-166.69288 12.9494,-59.59422 10.5079,-121.64436 1.1957,-181.91409 -3.8653,-25.01681 -9.0341,-50.24485 -20.7364,-72.69119 -5.8511,-11.22318 -13.3266,-21.66419 -22.5774,-30.30242 -9.2508,-8.63822 -20.312,-15.44317 -32.4214,-19.12524 -21.0221,-6.39214 -44.2228,-2.9984 -64.1608,6.2356 -19.938,9.234 -36.9062,23.93903 -51.6662,40.21576 -33.0283,36.42219 -56.0592,81.41689 -68.8501,128.89149 -8.3578,31.02079 -12.4556,63.35818 -10.0332,95.3937 1.7374,22.97663 7.1171,46.35973 20.5158,65.1059 6.6994,9.3731 15.3637,17.43139 25.5492,22.81589 10.1854,5.38449 21.9165,8.0181 33.3739,6.80783 12.3825,-1.30799 24.1058,-7.07462 33.351,-15.41506 9.2452,-8.34044 16.0809,-19.16012 20.5494,-30.78202 8.9371,-23.24381 8.4828,-48.98129 6.1118,-73.77088 -2.6547,-27.75593 -7.5671,-55.33442 -15.4646,-82.07517 -16.7333,-56.65828 -48.4443,-110.79777 -97.4464,-143.79719 -15.0243,-10.11779 -31.6077,-18.16907 -49.2775,-22.15383 -17.6698,-3.98476 -36.4802,-3.77155 -53.6058,2.12878 -16.3615,5.63707 -30.7718,16.32879 -41.8705,29.60631 -11.0987,13.27751 -18.9729,29.0731 -24.0934,45.60351 -10.241,33.06083 -9.573,68.4122 -7.8192,102.97838 3.2299,63.65869 9.9074,127.58453 28.0549,188.68715 4.9554,16.68482 10.7554,33.11876 17.3703,49.21787 l -174.44954,13.4875 c 17.15404,-39.85024 28.88084,-82.03252 34.75544,-125.01848 6.3356,-46.35945 5.8716,-93.43488 2.2455,-140.08453 -2.8074,-36.11608 -7.5527,-72.31767 -18.5813,-106.82309 -7.75691,-24.2693 -18.7661,-47.82187 -35.18692,-67.30328 -16.42082,-19.48141 -38.61244,-34.70784 -63.56993,-39.83545 -19.40889,-3.98763 -39.87899,-1.73997 -58.43298,5.21384 -18.55399,6.95381 -35.22552,18.49275 -49.19562,32.54417 -38.10274,38.32454 -54.97167,93.59815 -58.07038,147.55171 -2.8813,50.16814 5.14327,101.17119 25.24975,147.22414 7.98206,18.28252 18.20757,36.20485 33.76044,48.69773 7.77644,6.24644 16.82451,11.01861 26.54472,13.25663 9.72021,2.23802 20.12095,1.86849 29.44337,-1.67886 7.27106,-2.76677 13.77817,-7.41381 18.99511,-13.18502 5.21695,-5.7712 9.15883,-12.64764 11.80735,-19.96261 5.29708,-14.63006 5.385,-30.74542 2.68541,-46.06893 -3.6486,-20.7103 -12.35986,-40.57264 -25.52943,-56.9675 -13.17119,-16.39687 -30.82843,-29.25694 -50.68301,-36.19475 -22.89904,-8.00164 -47.98981,-8.01001 -71.87502,-3.78048 -23.90661,4.23332 -46.9244,12.56559 -69.07973,22.49474 -91.36144,40.94462 -167.77178,108.24153 -247.61832,168.63942 -36.49591,27.6064 -74.04332,53.97857 -113.96895,76.33945 -42.56993,23.84186 -88.12149,43.1567 -136.07995,52.1355 -30.39834,5.69119 -62.50237,7.04939 -91.628029,-3.34986 C 54.744966,778.40015 29.811324,755.74534 17.4447,727.18162 9.6592444,709.19922 6.8208046,689.18151 8.7167172,669.67803 c 1.8965178,-19.5097 8.4635678,-38.46091 18.3355958,-55.39514 19.742154,-33.8652 52.189293,-59.05699 87.783747,-75.47768 64.44109,-29.72842 137.61031,-32.18722 206.89082,-47.57048 39.64356,-8.80258 78.23019,-21.91871 115.90014,-37.08684 34.32464,-13.82111 68.39372,-29.63506 96.89131,-53.23785 28.49759,-23.6028 51.21193,-55.92955 56.84603,-92.50087 1.75628,-11.40014 1.82628,-23.16702 -0.93644,-34.36591 -2.76272,-11.19889 -8.47575,-21.81858 -17.08956,-29.48995 -9.32317,-8.30312 -21.73284,-12.81756 -34.2042,-13.39055 -12.47136,-0.57299 -24.96932,2.65616 -36.07867,8.35225 -22.21871,11.39219 -38.34224,31.91157 -51.25668,53.28141 -10.04253,16.61761 -18.65934,34.30067 -23.18171,53.18309 -7.12964,29.76867 -3.54925,61.98516 9.9424,89.46208 l -92.49247,23.78497 c 0.19662,-7.9267 0.19662,-15.85827 0,-23.78497 -1.00102,-40.35588 -7.20082,-80.86803 -21.7148,-118.5369 -10.73283,-27.85546 -26.724,-54.80528 -51.30548,-71.74256 -13.0898,-9.01922 -28.48112,-14.94654 -44.35243,-15.8359 -18.45433,-1.03411 -37.26673,4.97158 -51.52467,16.7335 -14.04342,11.58495 -23.46879,28.62006 -25.82337,46.67234 14.87947,-15.02175 35.28152,-24.44688 56.36509,-26.03897 17.94453,-1.35505 36.17383,2.87189 52.04235,11.35907 15.86852,8.48718 29.38366,21.14729 39.49844,36.03129 18.7321,27.56447 25.49587,62.88947 18.65838,95.50757 -3.5648,17.00579 -10.72245,33.32623 -21.37401,47.0539 -10.65156,13.72767 -24.83581,24.80155 -41.00121,31.17214 -24.36001,9.59999 -52.3584,8.07054 -76.67744,-1.63277 -24.31904,-9.70331 -45.08994,-27.12416 -61.22462,-47.74555 C 83.052775,394.24219 69.691275,336.84533 66.15587,280.83956 63.911138,245.27985 65.402176,208.70123 78.36114,175.51091 c 6.479482,-16.59516 15.824046,-32.17013 28.17314,-45.0108 12.34909,-12.84067 27.76081,-22.88617 44.812,-28.04756 20.79811,-6.295581 43.3328,-5.162786 64.38247,0.23233 20.92707,5.36369 40.68139,14.82512 58.73798,26.6856 27.68318,18.1837 51.4263,41.95435 71.6003,68.22249 19.63136,25.56157 36.02941,53.60362 48.68019,83.2472 3.89884,-39.7333 18.48411,-78.36735 41.81608,-110.76419 16.05787,-22.29663 36.41842,-41.80843 60.64005,-54.78176 24.21224,-12.9683 52.35959,-19.138237 79.57261,-15.415263 37.06242,5.070453 70.69346,28.825823 89.51471,61.153723 18.70053,32.12056 23.01735,70.83019 20.53778,107.91512 -3.70353,55.39066 -22.61739,110.99933 -60.14232,151.91047 -27.88527,30.40161 -64.51774,51.35086 -101.89177,68.8159 -95.81188,44.7733 -199.70011,69.5555 -303.73816,88.54628 -16.69907,3.04819 -33.64155,6.0217 -49.04595,13.15295 -11.78275,5.45466 -22.685,13.54502 -29.43598,24.63604 -3.3755,5.54551 -5.66065,11.78835 -6.36518,18.24205 -0.70452,6.4537 0.20065,13.1144 2.87467,19.03016 3.74611,8.28754 10.81644,14.79531 18.89411,18.97478 8.07766,4.17947 17.13104,6.17696 26.1817,7.07259 20.28563,2.00742 40.82142,-1.3477 60.3057,-7.33929 42.90389,-13.19332 80.74906,-38.69352 118.72967,-62.61589 58.52029,-36.85944 118.88271,-70.69357 178.25481,-106.16463 72.41621,-43.26408 146.58882,-90.12802 230.42865,-99.44308 54.83945,-6.09296 112.64129,5.40617 157.32195,37.78098 z"
   inkscape:path-effect="#path-effect914"
   inkscape:original-d="m 205.66752,332.66916 c -6.08518,1.03797 -11.95283,4.02252 -16.74061,7.91918 -4.80118,3.90756 -9.04185,9.01737 -11.18512,14.82484 -4.23754,11.48219 -5.69829,24.91283 -2.22845,36.64985 3.97395,13.44222 13.29859,26.06927 24.96521,33.83943 5.9247,3.94595 13.63415,5.43119 20.74368,5.07471 7.07934,-0.35497 14.43847,-2.75891 20.0465,-7.094 5.91861,-4.57518 10.01731,-11.55842 12.57509,-18.58835 2.58019,-7.09151 3.35645,-15.04244 2.33045,-22.51869 -1.78625,-13.016 -6.32357,-26.35386 -14.46883,-36.66219 -4.11228,-5.20435 -10.10289,-9.07173 -16.31854,-11.38729 -6.19302,-2.30713 -13.20467,-3.16873 -19.71938,-2.05749 z m 723.53283,108.87795 c 44.34088,34.58502 77.40425,91.1109 78.15035,149.50805 0.746,58.39714 -32.33869,112.89598 -71.26589,153.88634 -17.60395,18.53697 -42.83035,30.46261 -67.83602,35.77625 -24.80126,5.2702 -52.46182,4.62026 -75.89669,-5.05883 -23.51082,-9.71046 -42.36088,-29.71732 -57.53197,-50.1352 -15.33538,-20.639 -24.10671,-45.75198 -31.73949,-70.30565 -16.2145,-52.15996 -26.01823,-106.57759 -29.13101,-161.25608 -3.70006,-64.99463 2.609,-130.53247 16.33067,-193.9403 7.01385,-32.411 16.89492,-64.94424 33.38539,-93.71457 16.39232,-28.59909 35.51811,-58.47087 63.60913,-75.71938 37.95058,-23.3025 86.36575,-38.725978 130.10631,-30.35836 47.90909,9.16506 89.94227,45.21959 120.17057,83.5018 19.1777,24.28735 28.7809,55.68747 33.8511,86.44682 10.4816,-25.01943 25.0502,-48.32123 42.953,-68.70082 18.0695,-20.5695 39.5889,-39.12006 64.605,-49.7464 24.8229,-10.54428 53.4038,-16.13144 80.0339,-11.86564 26.2584,4.20625 50.5535,19.14523 71.3135,35.76498 20.9501,16.77189 36.8678,39.48876 50.9666,62.32347 28.232,45.725 49.1697,96.069 65.8532,147.15209 14.3306,43.87891 24.3048,89.49477 28.9432,135.42091 4.4631,44.19002 7.6003,89.71104 -1.2321,133.2388 -7.25,35.72952 -19.897,71.8913 -41.6981,101.11243 -10.9454,14.67074 -26.1543,26.69661 -42.6987,34.52707 -16.474,7.79715 -35.3663,12.42862 -53.5427,11.08489 -19.2705,-1.42461 -38.2558,-9.38449 -54.4203,-19.97176 -16.2648,-10.65292 -30.1966,-25.55564 -40.3024,-42.16589 -20.4808,-33.66304 -32.2917,-72.88359 -38.3449,-111.81974 -6.0972,-39.21938 -3.2975,-79.79402 2.6063,-119.04298 11.697,-77.76295 23.4536,-159.83294 64.4496,-226.93903 40.3794,-66.0968 101.9933,-121.2679 169.9087,-158.5073 13.905,-7.62439 30.2627,-10.57444 46.0669,-11.88111 15.7309,-1.30061 32.6486,-2.04565 47.1729,4.13473 27.7591,11.81203 51.8188,34.15769 68.2081,59.48524 19.8003,30.59881 26.7955,68.51232 31.795,104.61416 5.0414,36.40418 1.4428,73.66118 -2.1869,110.2331 -5.9299,59.74791 -25.3977,117.58913 -31.8953,177.27797 -6.4686,59.4222 -15.418,120.01194 -6.9647,179.18442 5.2622,36.8354 17.9387,72.81966 35.3947,105.8681 l -189.0432,7.21475 c 10.5664,-27.46385 22.7988,-54.25581 33.643,-81.60819 21.9133,-55.27206 52.5338,-108.25245 63.4842,-166.69288 11.1681,-59.60205 9.3966,-121.83186 1.1957,-181.91409 -3.4077,-24.96553 -9.5703,-50.10341 -20.7364,-72.69119 -5.582,-11.29181 -13.2054,-21.88639 -22.5774,-30.30242 -9.3357,-8.38339 -20.1711,-16.41108 -32.4214,-19.12524 -20.979,-4.64808 -44.1992,-1.71765 -64.1608,6.2356 -20.2743,8.07784 -37.6067,23.52353 -51.6662,40.21576 -31.3792,37.25508 -54.5626,82.32475 -68.8501,128.89149 -9.3785,30.5669 -13.2327,63.5809 -10.0332,95.3937 2.277,22.63973 8.169,45.99315 20.5158,65.1059 6.1957,9.5908 15.344,17.69495 25.5492,22.81589 10.1478,5.09213 22.0963,8.1204 33.3739,6.80783 12.1649,-1.41585 24.0439,-7.45469 33.351,-15.41506 9.3755,-8.01882 16.4858,-19.13347 20.5494,-30.78202 8.1273,-23.29764 7.3891,-49.12942 6.1118,-73.77088 -1.4411,-27.80247 -4.8569,-56.33551 -15.4646,-82.07517 -22.0621,-53.53378 -53.1182,-106.5465 -97.4464,-143.79719 -13.7876,-11.58627 -31.5969,-18.72776 -49.2775,-22.15383 -17.5561,-3.40195 -36.6741,-3.62503 -53.6058,2.12878 -16.1845,5.49987 -30.7718,16.3288 -41.8705,29.60631 -11.0987,13.27751 -19.3271,29.08513 -24.0934,45.60351 -9.5439,33.07554 -9.0551,68.57564 -7.8192,102.97838 2.2829,63.54615 12.7276,126.97493 28.0549,188.68715 4.1936,16.88473 10.7553,33.11876 17.3703,49.21787 l -174.44954,13.4875 c 17.15404,-39.85024 28.56594,-82.21042 34.75544,-125.01848 6.6828,-46.22022 5.889,-93.52603 2.2455,-140.08453 -2.8197,-36.03221 -6.9731,-72.59561 -18.5813,-106.82309 -8.13083,-23.97419 -17.9982,-48.7178 -35.18692,-67.30328 -16.97906,-18.35878 -39.25288,-34.00327 -63.56993,-39.83545 -19.01577,-4.56072 -39.97604,-1.24689 -58.43298,5.21384 -18.55785,6.49605 -36.82236,17.26363 -49.19562,32.54417 -33.26217,41.07761 -52.6598,94.97351 -58.07038,147.55171 -5.09687,49.52967 6.41082,101.13443 25.24975,147.22414 7.4733,18.28352 17.28498,37.80293 33.76044,48.69773 15.89629,10.51181 37.83354,17.37454 55.98809,11.57777 14.36862,-4.58792 24.88038,-19.27553 30.80246,-33.14763 6.0395,-14.14715 5.46262,-30.93934 2.68541,-46.06893 -3.75692,-20.46682 -12.34857,-40.86563 -25.52943,-56.9675 -13.15001,-16.06419 -31.08622,-29.34299 -50.68301,-36.19475 -22.6471,-7.91826 -48.08953,-6.91743 -71.87502,-3.78048 -24.00877,3.16639 -46.70251,13.11109 -69.07973,22.49474 -92.93854,38.97277 -164.86295,112.74465 -247.61832,168.63942 -37.89135,25.59264 -73.36998,55.30471 -113.96895,76.33945 -43.12996,22.34607 -88.16191,44.17296 -136.07995,52.1355 -30.14966,5.00997 -63.38059,8.31993 -91.628029,-3.34986 C 56.088696,777.3114 31.612598,753.92284 17.4447,727.18162 8.36818,710.05013 7.0802949,688.99624 8.7167172,669.67803 10.358446,650.29717 16.228695,630.4434 27.052313,614.28289 c 21.474572,-32.06322 53.344466,-58.06667 87.783747,-75.47768 63.15146,-31.92665 138.65093,-28.84255 206.89082,-47.57048 39.11672,-10.73529 78.63549,-21.06468 115.90014,-37.08684 33.85474,-14.55604 70.20779,-27.82109 96.89131,-53.23785 26.20513,-24.96108 47.47561,-57.54433 56.84603,-92.50087 2.96709,-11.06878 2.1889,-23.34077 -0.93644,-34.36591 -3.09854,-10.9306 -8.46889,-22.08975 -17.08956,-29.48995 -9.29043,-7.97514 -21.99268,-12.49965 -34.2042,-13.39055 -12.31156,-0.8982 -25.34241,2.26014 -36.07867,8.35225 -21.4342,12.16247 -37.5753,32.78335 -51.25668,53.28141 -10.73582,16.08489 -20.28822,34.06218 -23.18171,53.18309 -4.48932,29.66653 -3.54925,61.98516 9.9424,89.46208 l -92.49247,23.78497 c 0.19662,-7.9267 0.19662,-15.85827 0,-23.78497 -1.00102,-40.35588 -6.0351,-81.55364 -21.7148,-118.5369 -11.47587,-27.06779 -27.83781,-54.03298 -51.30548,-71.74256 -12.53065,-9.45609 -28.65583,-15.60893 -44.35243,-15.8359 -18.05605,-0.26109 -37.5944,5.24277 -51.52467,16.7335 -13.71586,11.31386 -23.46879,28.62006 -25.82337,46.67234 14.87947,-15.02175 35.79141,-23.78889 56.36509,-26.03897 17.65061,-1.93039 36.27019,3.20374 52.04235,11.35907 15.83027,8.18537 30.76585,20.49618 39.49844,36.03129 15.89477,28.27649 22.43605,63.29061 18.65838,95.50757 -2.00624,17.10975 -10.62822,33.58925 -21.37401,47.0539 -10.70928,13.41891 -24.6742,25.86325 -41.00121,31.17214 -24.31199,7.90528 -52.59144,6.93641 -76.67744,-1.63277 C 154.4748,477.50943 132.5035,459.62044 117.63326,438.43875 85.879504,393.20759 69.691276,336.84533 66.15587,280.83956 c -2.244733,-35.55971 0.507955,-71.97591 12.20527,-105.32865 5.857935,-16.70282 15.65704,-32.49493 28.17314,-45.0108 12.46068,-12.46045 27.86579,-23.21464 44.812,-28.04756 20.63808,-5.885813 43.41572,-4.346792 64.38247,0.23233 21.00999,4.58857 40.91451,14.65238 58.73798,26.6856 27.32227,18.44617 51.14565,42.36954 71.6003,68.22249 19.9453,25.20917 36.02941,53.60362 48.68019,83.2472 3.87957,-39.73692 19.57993,-78.16005 41.81608,-110.76419 15.34826,-22.50465 36.26804,-42.61485 60.64005,-54.78176 24.17261,-12.06737 53.11546,-20.888459 79.57261,-15.415263 35.38729,7.320573 69.71825,30.922093 89.51471,61.153723 20.05984,30.63385 23.99128,71.46099 20.53778,107.91512 -5.13638,54.21813 -26.03006,109.45647 -60.14232,151.91047 -25.67115,31.94872 -68.01259,52.52895 -101.89177,68.8159 -92.1421,44.29603 -202.17855,60.12853 -303.73816,88.54628 -16.30024,4.56103 -35.79977,2.61544 -49.04595,13.15295 -18.29142,14.55106 -39.36345,39.43883 -32.92649,61.90825 4.77913,16.68244 28.0732,22.57534 45.07581,26.04737 19.84076,4.0516 40.97923,-1.29289 60.3057,-7.33929 42.70204,-13.35959 79.70745,-40.72505 118.72967,-62.61589 60.31563,-33.8361 116.66733,-74.70293 178.25481,-106.16463 74.49902,-38.0575 147.07993,-92.26896 230.42865,-99.44308 53.73297,-4.62499 114.79633,4.61182 157.32195,37.78098 z"
   sodipodi:nodetypes="aaaaaaaaaaaaasaaaaasaaaaacsaaaaaaaaaaaaaaaaaaaaaaaccaaaaaaaaaaaaaaaaaaaasaaaccaaaaaaaaaaaaaaaasaaaaaaaaaaaaaaaaaaccsaaaacaaaaaaaasaaaaaacaaaaaasaaaaaaaaa" /></svg>
