<?xml version="1.0" encoding="UTF-8"?>
<!DOCTYPE svg PUBLIC "-//W3C//DTD SVG 1.1//EN" "http://www.w3.org/Graphics/SVG/1.1/DTD/svg11.dtd">
<!-- Creator: CorelDRAW X8 -->
<svg xmlns="http://www.w3.org/2000/svg" xml:space="preserve" width="2821px" height="1486px" version="1.1" style="shape-rendering:geometricPrecision; text-rendering:geometricPrecision; image-rendering:optimizeQuality; fill-rule:evenodd; clip-rule:evenodd"
viewBox="0 0 2821 1486"
 xmlns:xlink="http://www.w3.org/1999/xlink">
 <defs>
  <style type="text/css">
   <![CDATA[
    .fil0 {fill:#EF7F1A;fill-rule:nonzero}
   ]]>
  </style>
 </defs>
 <g id="Layer_x0020_1">
  <metadata id="CorelCorpID_0Corel-Layer"/>
  <path class="fil0" d="M2304 1024c106,0 209,-27 298,-87 -25,134 -90,274 -205,355 -12,-86 -134,-131 -208,-148 -64,-15 -128,-20 -194,-20 -71,0 -149,6 -218,23 -74,19 -194,67 -194,158 0,87 116,137 188,156 72,19 149,25 224,25 82,0 161,-8 241,-25 89,-17 180,-47 256,-91 179,-105 270,-277 307,-474 15,-80 22,-162 22,-243 0,-105 -9,-216 -40,-318 -40,-138 -119,-259 -266,-322 -20,-9 -44,-13 -68,-13 -29,0 -58,6 -79,22 -15,10 -20,22 -20,33 0,18 16,35 40,45 152,62 215,261 215,413 0,68 -10,137 -35,199 -24,59 -63,112 -113,149 -44,32 -96,52 -151,52 -152,0 -213,-121 -213,-254l0 -603c0,-42 -69,-56 -102,-56 -32,0 -101,14 -101,56l0 603c0,114 -49,254 -189,254 -83,0 -139,-69 -164,-139 -29,-80 -32,-166 -32,-249 0,-102 1,-214 -46,-307 -86,-167 -259,-218 -437,-218 -76,0 -154,10 -227,35 -73,-24 -152,-35 -229,-35 -204,0 -398,98 -494,278 -48,89 -70,194 -70,294 0,165 61,334 211,424 29,17 64,28 98,28 24,0 47,-5 69,-18 19,-11 27,-24 27,-38 0,-15 -12,-30 -33,-41 -125,-64 -170,-226 -170,-355 0,-89 20,-184 62,-263 58,-107 172,-198 300,-198 24,0 47,2 70,6 -151,112 -229,294 -229,478 0,84 18,173 59,248 69,122 189,179 329,179 139,0 261,-57 328,-179 42,-74 58,-164 58,-248 0,-184 -77,-366 -229,-478 23,-4 46,-6 70,-6 119,0 209,51 251,163 30,78 30,168 30,251 0,91 3,184 34,270 57,154 202,229 364,229 103,0 218,-28 295,-101 83,75 199,101 310,101zm-1511 -112c-60,0 -108,-54 -135,-102 -36,-65 -50,-142 -50,-215 0,-151 62,-314 185,-409 124,95 184,258 184,409 0,72 -13,152 -50,216 -27,48 -73,101 -134,101zm1199 469c-151,0 -221,-39 -221,-77 0,-39 78,-76 221,-76 143,0 217,40 217,76 0,37 -67,77 -217,77z"/>
 </g>
</svg>
