<?xml version="1.0" encoding="UTF-8" standalone="no"?>
<svg
   xmlns:dc="http://purl.org/dc/elements/1.1/"
   xmlns:cc="http://creativecommons.org/ns#"
   xmlns:rdf="http://www.w3.org/1999/02/22-rdf-syntax-ns#"
   xmlns:svg="http://www.w3.org/2000/svg"
   xmlns="http://www.w3.org/2000/svg"
   xmlns:sodipodi="http://sodipodi.sourceforge.net/DTD/sodipodi-0.dtd"
   xmlns:inkscape="http://www.inkscape.org/namespaces/inkscape"
   xml:space="preserve"
   width="1000"
   height="1000"
   version="1.1"
   style="clip-rule:evenodd;fill-rule:evenodd;image-rendering:optimizeQuality;shape-rendering:geometricPrecision;text-rendering:geometricPrecision"
   viewBox="0 0 1000 1000"
   id="svg10"
   sodipodi:docname="ഞ.svg"
   inkscape:version="1.0.1 (3bc2e813f5, 2020-09-07)"><metadata
   id="metadata14"><rdf:RDF><cc:Work
       rdf:about=""><dc:format>image/svg+xml</dc:format><dc:type
         rdf:resource="http://purl.org/dc/dcmitype/StillImage" /><dc:title /></cc:Work></rdf:RDF></metadata><sodipodi:namedview
   pagecolor="#ffffff"
   bordercolor="#666666"
   borderopacity="1"
   objecttolerance="10"
   gridtolerance="10"
   guidetolerance="10"
   inkscape:pageopacity="0"
   inkscape:pageshadow="2"
   inkscape:window-width="1920"
   inkscape:window-height="1015"
   id="namedview12"
   showgrid="false"
   inkscape:zoom="0.6002692"
   inkscape:cx="525.08761"
   inkscape:cy="601.43824"
   inkscape:window-x="1920"
   inkscape:window-y="0"
   inkscape:window-maximized="1"
   inkscape:current-layer="svg10"
   showguides="true"
   inkscape:guide-bbox="true"
   inkscape:document-rotation="0"><sodipodi:guide
     position="0,1000"
     orientation="0,1"
     id="guide16"
     inkscape:label=""
     inkscape:locked="true"
     inkscape:color="rgb(0,0,255)" /><sodipodi:guide
     position="1763.3122,2036.1693"
     orientation="1000,0"
     id="guide18" /><sodipodi:guide
     position="0,200"
     orientation="0,1"
     id="guide20"
     inkscape:label="base"
     inkscape:locked="true"
     inkscape:color="rgb(0,0,255)" /><inkscape:grid
     type="xygrid"
     id="grid24"
     originx="-473.37552"
     originy="-489.69235" /><sodipodi:guide
     position="0,0"
     orientation="0,1"
     id="guide34"
     inkscape:label="bottom"
     inkscape:locked="true"
     inkscape:color="rgb(0,0,255)" /><sodipodi:guide
     position="225.05109,1693.3186"
     orientation="0,1"
     id="guide44"
     inkscape:label=""
     inkscape:locked="false"
     inkscape:color="rgb(0,0,255)" /><sodipodi:guide
     position="0,900"
     orientation="0,1"
     id="guide46"
     inkscape:label=""
     inkscape:locked="true"
     inkscape:color="rgb(0,0,255)" /><sodipodi:guide
     position="963.03187,688.63178"
     orientation="1,0"
     id="guide867" /></sodipodi:namedview>
 <defs
   id="defs4"><inkscape:path-effect
   effect="spiro"
   id="path-effect865"
   is_visible="true"
   lpeversion="1" /><inkscape:path-effect
   effect="spiro"
   id="path-effect851"
   is_visible="true"
   lpeversion="1" />
  <style
   type="text/css"
   id="style2">
   <![CDATA[
    .fil0 {fill:#EF7F1A;fill-rule:nonzero}
   ]]>
  </style>
 <inkscape:path-effect
   effect="spiro"
   id="path-effect1214"
   is_visible="true"
   lpeversion="1" /><inkscape:path-effect
   effect="spiro"
   id="path-effect1195"
   is_visible="true"
   lpeversion="1" /><inkscape:path-effect
   effect="spiro"
   id="path-effect992"
   is_visible="true"
   lpeversion="1" /><inkscape:path-effect
   effect="spiro"
   id="path-effect1060"
   is_visible="true"
   lpeversion="1" /><inkscape:path-effect
   effect="spiro"
   id="path-effect1047"
   is_visible="true"
   lpeversion="1" /><inkscape:path-effect
   effect="spiro"
   id="path-effect1085"
   is_visible="true"
   lpeversion="1" /><inkscape:path-effect
   effect="spiro"
   id="path-effect1286"
   is_visible="true"
   lpeversion="1" /><inkscape:path-effect
   effect="spiro"
   id="path-effect1305"
   is_visible="true"
   lpeversion="1" /></defs>
 
<path
   id="path1210-6"
   style="display:inline;fill:#1a1a1a;fill-rule:nonzero;stroke:none;stroke-width:2.55537px;stroke-linecap:butt;stroke-linejoin:miter;stroke-opacity:1"
   d="m 315.96486,738.10109 c 17.15387,-39.85032 28.88065,-82.03256 34.75548,-125.01848 6.33589,-46.35943 5.87237,-93.43492 2.24548,-140.08453 -2.80793,-36.11599 -7.55457,-72.31714 -18.58128,-106.82309 -7.75583,-24.27038 -18.76276,-47.82491 -35.18324,-67.30752 -16.42048,-19.48262 -38.61427,-34.7093 -63.57365,-39.83121 -19.40829,-3.98277 -39.87575,-1.72812 -58.42746,5.22736 -18.5517,6.95548 -35.22193,18.49049 -49.20114,32.53065 -38.138842,38.30514 -55.131681,93.57747 -58.070383,147.55171 -2.730475,50.14981 5.646703,100.98369 25.24975,147.22414 7.840523,18.49454 17.847123,36.73623 33.443333,49.3964 7.79811,6.33009 16.93154,11.13486 26.74493,13.27443 9.81339,2.13958 20.31444,1.52833 29.56027,-2.39533 7.05626,-2.99447 13.26228,-7.85003 18.1804,-13.72964 4.91811,-5.87961 8.57034,-12.76492 11.06721,-20.01222 4.99373,-14.4946 5.36741,-30.18548 4.24026,-45.4747 -3.2306,-43.8216 -19.23398,-87.6429 -49.88671,-119.1259 -30.87636,-31.71268 -75.910279,-49.0956 -120.086303,-46.35285 l 6.73468,-127.1729 c 81.033023,34.35918 151.952993,92.18908 201.917863,164.64884 31.24157,45.30696 54.66626,97.321 58.8702,152.19434 2.10197,27.43668 -0.67479,55.35003 -9.25483,81.49525 -8.58004,26.14521 -23.04349,50.47995 -42.73091,69.7048 -18.61889,18.18143 -41.97759,31.70679 -67.33429,37.56041 -25.35671,5.85362 -52.66682,3.83589 -76.39842,-6.84299 C 96.767937,768.17323 77.491802,749.60773 63.109055,728.25412 48.726308,706.90052 38.943575,682.77855 30.974642,658.29721 14.02014,606.21133 4.8652049,551.73358 1.8436254,497.04113 -1.7472723,432.04367 3.3106863,366.47777 18.174298,303.10083 c 7.592968,-32.37565 17.805625,-64.33581 33.372896,-93.72111 15.567272,-29.3853 36.689892,-56.20597 63.621626,-75.71283 37.072,-26.85154 85.09632,-38.691367 130.10631,-30.35836 49.28384,9.12425 92.57371,41.66205 120.17054,83.50179 17.16465,26.02343 28.78062,55.68753 33.85115,86.44682 10.48154,-25.01943 25.05023,-48.32123 42.95294,-68.70082 18.06954,-20.5695 39.74066,-38.28453 64.60505,-49.7464 24.8644,-11.46187 53.04067,-16.44594 80.03388,-11.86563 26.55314,4.50564 51.0337,18.04209 71.31348,35.76498 20.27978,17.72288 36.62257,39.52834 50.96666,62.32346 28.70238,45.61279 49.90245,95.67464 65.85318,147.15209 13.6815,44.15401 23.57873,89.50814 28.94318,135.42091 5.17157,44.26198 6.10499,89.28387 -1.23206,133.2388 -6.07233,36.37824 -18.26058,72.63554 -41.69808,101.11244 -11.71875,14.23844 -26.17384,26.34233 -42.69875,34.52706 -16.52491,8.18474 -35.14649,12.36595 -53.54272,11.08489 -19.5106,-1.35866 -38.35409,-8.81892 -54.42032,-19.97176 -16.06623,-11.15284 -29.44256,-25.90016 -40.30238,-42.16589 -22.08802,-33.08323 -33.85046,-72.2953 -38.34489,-111.81973 -4.49442,-39.52444 -1.99452,-79.5308 2.60633,-119.04299 9.15006,-78.58096 27.00169,-157.25155 64.44961,-226.93903 37.44792,-69.68748 96.08648,-130.06481 169.90868,-158.50729 14.83918,-5.71729 30.26007,-10.13935 46.06687,-11.88111 15.8068,-1.74176 32.03807,-0.74625 47.17296,4.13473 29.35733,9.46771 52.54354,32.91249 68.20813,59.48524 18.65248,31.64127 28.01186,68.0796 31.79495,104.61415 3.79318,36.63202 2.18885,73.6661 -2.1869,110.2331 -7.13549,59.62942 -21.57754,118.1161 -31.89526,177.27798 -10.31772,59.16187 -16.49361,119.89037 -6.96471,179.18441 5.93033,36.90179 17.93868,72.81966 35.39467,105.8681 l -189.04326,7.21475 c 10.56645,-27.46385 21.78502,-54.6768 33.64306,-81.60819 24.00594,-54.52109 50.8348,-108.47926 63.48424,-166.69288 12.94943,-59.59422 10.50793,-121.64436 1.19565,-181.91409 -3.86535,-25.01681 -9.0342,-50.24483 -20.73645,-72.69119 -5.85113,-11.22317 -13.32659,-21.66419 -22.57734,-30.30242 -9.25075,-8.63823 -20.312,-15.44317 -32.42141,-19.12524 -21.02216,-6.39214 -44.22283,-2.99841 -64.16084,6.23559 -19.938,9.234 -36.90619,23.93903 -51.66622,40.21577 -33.02829,36.42219 -56.05914,81.4169 -68.85004,128.89149 -8.35782,31.02079 -12.45562,63.35819 -10.0332,95.3937 1.73742,22.97663 7.11715,46.35971 20.51584,65.1059 6.69934,9.37309 15.3637,17.43138 25.54914,22.81589 10.18544,5.3845 21.91657,8.01811 33.37394,6.80783 12.38247,-1.308 24.10582,-7.07462 33.35101,-15.41506 9.24519,-8.34043 16.08088,-19.16012 20.5494,-30.78202 8.93705,-23.24381 8.48272,-48.98129 6.11171,-73.77088 -2.65473,-27.75592 -7.56701,-55.33442 -15.46452,-82.07517 -16.73324,-56.65831 -48.44435,-110.79778 -97.44643,-143.79719 -15.02429,-10.11779 -31.60775,-18.16907 -49.27752,-22.15383 -17.66977,-3.98476 -36.48021,-3.77154 -53.60578,2.12878 -16.36147,5.63707 -30.77177,16.3288 -41.87051,29.60631 -11.09873,13.27751 -18.97293,29.0731 -24.09344,45.60351 -10.24102,33.06083 -9.57299,68.4122 -7.81918,102.97838 3.22991,63.65869 9.90741,127.58453 28.05489,188.68715 4.95539,16.68482 10.75539,33.11876 17.37035,49.21787 z"
   sodipodi:nodetypes="caaaaaaaaaaccaaaaaaaaacaaaaaaaaaaaaaaaccaaaaaaaaaaaaaacc"
   inkscape:original-d="m 315.96486,738.10109 c 11.33547,-41.06728 28.56599,-82.21041 34.75548,-125.01848 6.68284,-46.22021 5.88895,-93.52603 2.24548,-140.08453 -2.81973,-36.03221 -2.58563,-74.41306 -18.58128,-106.82309 -21.4959,-43.55452 -51.62931,-95.38876 -98.75689,-107.13873 -36.89055,-9.19764 -80.24467,11.38322 -107.6286,37.75801 -38.069623,36.66669 -52.659803,94.97351 -58.070383,147.55171 -5.09687,49.52967 -1.81249,105.42938 25.24975,147.22414 19.586583,30.24938 55.213443,70.57049 89.748533,60.2755 27.4733,-8.18985 33.43958,-50.54858 33.48787,-79.21656 0.0725,-43.04986 -19.01951,-89.11736 -49.88671,-119.1259 C 137.7632,423.59406 82.742087,396.88468 48.441807,407.15031 l 6.73468,-127.1729 c 25.28118,24.18868 163.775413,86.62716 201.917863,164.64884 44.42801,90.87899 69.60522,224.0285 6.88446,303.39439 -30.37705,38.43865 -97.90126,48.03139 -143.73271,30.71742 C 73.498037,761.07782 50.815627,704.16224 30.974642,658.29721 9.2876644,608.16492 4.4294684,551.60196 1.8436254,497.04113 -1.2276236,432.23832 -1.1195306,365.041 18.174298,303.10083 37.528203,240.96779 62.972427,172.53365 115.16882,133.66689 c 35.71892,-26.59722 86.36575,-38.725976 130.10631,-30.35836 47.90908,9.16507 89.9422,45.2196 120.17054,83.50179 19.17775,24.28735 33.85115,86.44682 33.85115,86.44682 0,0 22.42502,-51.15026 42.95294,-68.70082 39.83168,-34.05452 92.72278,-68.75257 144.63893,-61.61203 51.76607,7.1199 90.33511,56.73709 122.28014,98.08844 32.85291,42.52654 49.16971,96.06901 65.85318,147.15209 14.33063,43.87891 24.30474,89.49477 28.94318,135.42091 4.4631,44.19002 15.32053,92.02364 -1.23206,133.2388 -25.01733,62.29194 -71.27717,138.83265 -137.93955,146.72439 -37.49979,4.43936 -74.28489,-30.38489 -94.7227,-62.13765 -42.14621,-65.47953 -50.93079,-154.4882 -35.73856,-230.86272 29.33592,-147.4778 113.3998,-307.5996 234.35829,-385.44632 26.94353,-17.34037 63.42987,-17.81596 93.23983,-7.74638 27.68534,9.35187 51.53182,33.2986 68.20813,59.48524 19.15075,30.07211 26.78565,68.24279 31.79495,104.61415 5.004,36.33351 0.1714,73.55724 -2.1869,110.2331 -7.6696,119.27845 -51.62824,237.62157 -38.85997,356.46239 3.9749,36.99646 9.82931,67.2938 35.39467,105.8681 l -189.04326,7.21475 c 0,0 22.79883,-54.25581 33.64306,-81.60819 21.91337,-55.27206 52.53385,-108.25244 63.48424,-166.69288 11.16805,-59.60205 17.23668,-123.93182 1.19565,-181.91409 -13.06083,-47.2098 -33.26405,-107.019 -75.7352,-122.11885 -39.09775,-13.9005 -84.21414,17.44126 -115.82706,46.45136 -34.71453,31.85636 -54.56252,82.32476 -68.85004,128.89149 -9.37848,30.5669 -19.37558,64.81574 -10.0332,95.3937 12.04123,39.41139 38.51083,99.54007 79.43892,94.72962 44.40793,-5.21945 53.82579,-75.68437 60.01212,-119.96796 3.85176,-27.57205 -4.8568,-56.33551 -15.46452,-82.07517 -22.06212,-53.5338 -49.13242,-111.88543 -97.44643,-143.79719 -29.15278,-19.25563 -72.10566,-36.5599 -102.8833,-20.02505 -56.63151,30.42447 -65.92844,114.38319 -73.78313,178.1882 -7.76922,63.11072 12.72756,126.97494 28.05489,188.68715 4.19363,16.88474 17.37035,49.21787 17.37035,49.21787 z"
   inkscape:path-effect="#path-effect1305" /></svg>
