<?xml version="1.0" encoding="UTF-8"?>
<!DOCTYPE svg PUBLIC "-//W3C//DTD SVG 1.1//EN" "http://www.w3.org/Graphics/SVG/1.1/DTD/svg11.dtd">
<!-- Creator: CorelDRAW X8 -->
<svg xmlns="http://www.w3.org/2000/svg" xml:space="preserve" width="2341px" height="1024px" version="1.1" style="shape-rendering:geometricPrecision; text-rendering:geometricPrecision; image-rendering:optimizeQuality; fill-rule:evenodd; clip-rule:evenodd"
viewBox="0 0 2341 1024"
 xmlns:xlink="http://www.w3.org/1999/xlink">
 <defs>
  <style type="text/css">
   <![CDATA[
    .fil0 {fill:#EF7F1A;fill-rule:nonzero}
   ]]>
  </style>
 </defs>
 <g id="Layer_x0020_1">
  <metadata id="CorelCorpID_0Corel-Layer"/>
  <path class="fil0" d="M2033 1024c33,0 67,-10 95,-27 151,-89 213,-259 213,-425 0,-100 -22,-205 -70,-294 -96,-180 -290,-278 -494,-278 -77,0 -156,11 -229,35 -73,-25 -150,-35 -227,-35 -134,0 -283,35 -380,132 -99,-100 -256,-132 -393,-132 -206,-1 -390,79 -487,269 -43,84 -61,177 -61,271 0,145 44,309 163,405 67,54 150,79 237,79 87,0 173,-26 241,-81 76,-62 108,-153 108,-248 0,-78 -25,-153 -80,-211 -65,-68 -162,-101 -256,-101 -78,0 -150,23 -209,76 7,-52 22,-104 46,-151 58,-115 163,-197 298,-197 182,0 295,106 295,286l0 571c0,41 69,55 101,55 32,0 101,-14 101,-55l0 -571c0,-176 92,-286 276,-286 24,0 47,2 70,6 -151,111 -229,292 -229,475 0,86 16,175 58,251 69,124 190,179 328,179 140,0 261,-57 329,-179 42,-74 59,-164 59,-248 0,-184 -78,-366 -229,-478 23,-4 47,-6 70,-6 128,0 243,91 300,198 43,79 62,174 62,263 0,129 -45,291 -171,355 -21,11 -32,26 -32,41 0,14 9,27 27,38 22,13 46,18 70,18zm-485 -112c-61,0 -107,-53 -134,-101 -36,-64 -50,-144 -50,-216 0,-151 60,-314 184,-409 123,95 185,258 185,409 0,73 -14,151 -50,215 -27,48 -75,102 -135,102zm-1140 1c-110,0 -162,-111 -162,-207 0,-90 46,-207 155,-207 108,0 153,118 153,207 0,86 -40,207 -146,207z"/>
 </g>
</svg>
