<?xml version="1.0" encoding="UTF-8"?>
<!DOCTYPE svg PUBLIC "-//W3C//DTD SVG 1.1//EN" "http://www.w3.org/Graphics/SVG/1.1/DTD/svg11.dtd">
<!-- Creator: CorelDRAW X8 -->
<svg xmlns="http://www.w3.org/2000/svg" xml:space="preserve" width="3057px" height="1486px" version="1.1" style="shape-rendering:geometricPrecision; text-rendering:geometricPrecision; image-rendering:optimizeQuality; fill-rule:evenodd; clip-rule:evenodd"
viewBox="0 0 3057 1486"
 xmlns:xlink="http://www.w3.org/1999/xlink">
 <defs>
  <style type="text/css">
   <![CDATA[
    .fil0 {fill:#EF7F1A;fill-rule:nonzero}
   ]]>
  </style>
 </defs>
 <g id="Layer_x0020_1">
  <metadata id="CorelCorpID_0Corel-Layer"/>
  <path class="fil0" d="M408 913c-110,0 -163,-113 -163,-207 1,-90 47,-207 156,-207 108,0 153,118 153,207 0,86 -40,207 -146,207zm2500 573c46,0 101,-29 101,-80 0,-52 -55,-79 -101,-79l-1351 0c-53,0 -111,1 -111,-69 0,-63 59,-67 111,-67l1011 0c137,0 302,-41 402,-140 59,-58 87,-131 87,-213 0,-91 -37,-179 -110,-237 -64,-50 -163,-70 -246,-74 52,-58 85,-133 85,-212 0,-80 -32,-155 -93,-209 -85,-75 -204,-105 -316,-105 -107,0 -225,22 -308,93 -92,-77 -244,-94 -361,-94 -59,0 -120,8 -178,24 -63,-16 -138,-24 -204,-24 -141,0 -281,28 -384,132 -102,-102 -255,-132 -394,-132 -204,0 -393,85 -487,269 -43,84 -61,177 -61,271 0,145 44,310 162,405 68,55 151,79 238,79 87,0 173,-26 241,-81 76,-61 108,-152 108,-248 0,-78 -24,-153 -80,-211 -65,-68 -162,-101 -256,-101 -77,0 -151,23 -209,76 7,-52 22,-104 46,-151 58,-115 163,-197 298,-197 182,0 296,106 296,286l0 571c0,41 68,55 100,55 32,0 102,-14 102,-55l0 -571c0,-187 100,-287 280,-287 8,0 15,0 23,1 -65,53 -105,128 -105,212 1,158 142,230 285,230 138,0 283,-74 283,-230 0,-82 -40,-158 -103,-212 54,1 109,9 155,30 60,28 104,80 104,169l0 186c0,41 68,55 100,55 33,0 102,-14 102,-55l0 -186c0,-116 81,-198 201,-198 55,0 108,14 150,52 43,39 63,98 63,155 -1,56 -22,108 -58,151 -38,45 -89,71 -144,87 -97,28 -218,29 -320,29 -68,0 -134,-2 -202,-4 -68,-2 -132,-5 -194,-5 -94,0 -178,6 -249,24 -103,26 -177,77 -177,185 0,208 241,238 400,238 114,0 224,-24 328,-68 78,-33 150,-73 218,-122 29,133 163,190 290,190 139,0 310,-75 310,-236 0,-60 -26,-109 -65,-147 22,6 42,15 60,27 53,38 85,102 85,170 0,54 -14,106 -50,148 -58,67 -163,93 -248,93l-1011 0c-138,0 -316,29 -316,204 0,171 176,203 316,203l1351 0zm-1378 -1045c-61,0 -88,-68 -88,-118 0,-66 34,-124 88,-161 51,37 85,99 86,161 0,49 -27,118 -86,118zm943 471c-67,0 -104,-62 -104,-123 0,-64 37,-125 110,-125 67,1 104,61 104,121 0,67 -38,127 -110,127zm-825 3c-80,0 -211,-10 -211,-116 0,-37 24,-81 59,-94 37,-13 100,-17 178,-17 52,0 114,3 176,4 82,3 164,8 246,6l57 -1c-79,65 -177,120 -269,163 -76,35 -152,55 -236,55z"/>
 </g>
</svg>
