<?xml version="1.0" encoding="UTF-8"?>
<!DOCTYPE svg PUBLIC "-//W3C//DTD SVG 1.1//EN" "http://www.w3.org/Graphics/SVG/1.1/DTD/svg11.dtd">
<!-- Creator: CorelDRAW X8 -->
<svg xmlns="http://www.w3.org/2000/svg" xml:space="preserve" width="640px" height="600px" version="1.1" style="shape-rendering:geometricPrecision; text-rendering:geometricPrecision; image-rendering:optimizeQuality; fill-rule:evenodd; clip-rule:evenodd"
viewBox="0 0 640 600"
 xmlns:xlink="http://www.w3.org/1999/xlink">
 <defs>
  <style type="text/css">
   <![CDATA[
    .fil0 {fill:#EF7F1A;fill-rule:nonzero}
   ]]>
  </style>
 </defs>
 <g id="Layer_x0020_1">
  <metadata id="CorelCorpID_0Corel-Layer"/>
  <path class="fil0" d="M320 600c75,0 170,-12 234,-50 55,-32 86,-78 86,-141 0,-81 -40,-122 -110,-145 -50,-16 -106,-19 -160,-19 -38,0 -75,3 -112,3 -48,0 -96,-4 -99,-60 -1,-23 9,-43 23,-60 32,-39 95,-59 146,-59 32,0 66,4 96,15 30,10 58,27 81,49 14,13 39,18 62,18 15,0 28,-2 39,-5 15,-4 34,-16 34,-30 0,-4 -3,-10 -8,-15 -36,-35 -80,-59 -127,-75 -57,-19 -118,-27 -177,-26 -88,1 -204,20 -266,83 -32,31 -46,70 -46,109 0,69 44,120 101,141 49,18 98,22 147,22 44,0 88,-3 134,-3 46,0 98,7 98,64 0,88 -106,115 -176,115 -33,0 -68,-6 -99,-17 -31,-11 -63,-26 -86,-49 -14,-13 -39,-19 -63,-19 -14,0 -27,2 -38,5 -15,4 -34,16 -34,30 0,5 3,10 8,15 36,35 85,59 132,75 60,20 118,29 180,29z"/>
 </g>
</svg>
