<?xml version="1.0" encoding="UTF-8" standalone="no"?>
<svg
   xmlns:dc="http://purl.org/dc/elements/1.1/"
   xmlns:cc="http://creativecommons.org/ns#"
   xmlns:rdf="http://www.w3.org/1999/02/22-rdf-syntax-ns#"
   xmlns:svg="http://www.w3.org/2000/svg"
   xmlns="http://www.w3.org/2000/svg"
   xmlns:sodipodi="http://sodipodi.sourceforge.net/DTD/sodipodi-0.dtd"
   xmlns:inkscape="http://www.inkscape.org/namespaces/inkscape"
   xml:space="preserve"
   width="1000"
   height="1000"
   version="1.1"
   style="clip-rule:evenodd;fill-rule:evenodd;image-rendering:optimizeQuality;shape-rendering:geometricPrecision;text-rendering:geometricPrecision"
   viewBox="0 0 1000 1000"
   id="svg10"
   sodipodi:docname="ട്ട.svg"
   inkscape:version="1.0.1 (3bc2e813f5, 2020-09-07)"><metadata
   id="metadata14"><rdf:RDF><cc:Work
       rdf:about=""><dc:format>image/svg+xml</dc:format><dc:type
         rdf:resource="http://purl.org/dc/dcmitype/StillImage" /><dc:title /></cc:Work></rdf:RDF></metadata><sodipodi:namedview
   pagecolor="#ffffff"
   bordercolor="#666666"
   borderopacity="1"
   objecttolerance="10"
   gridtolerance="10"
   guidetolerance="10"
   inkscape:pageopacity="0"
   inkscape:pageshadow="2"
   inkscape:window-width="1920"
   inkscape:window-height="1015"
   id="namedview12"
   showgrid="false"
   inkscape:zoom="0.678"
   inkscape:cx="221.43732"
   inkscape:cy="519.49969"
   inkscape:window-x="1920"
   inkscape:window-y="0"
   inkscape:window-maximized="1"
   inkscape:current-layer="svg10"
   showguides="true"
   inkscape:guide-bbox="true"
   inkscape:document-rotation="0"
   inkscape:snap-to-guides="true"><sodipodi:guide
     position="0,1000"
     orientation="0,1"
     id="guide16"
     inkscape:label=""
     inkscape:locked="true"
     inkscape:color="rgb(0,0,255)" /><sodipodi:guide
     position="1763.3122,2036.1693"
     orientation="1000,0"
     id="guide18" /><sodipodi:guide
     position="0,200"
     orientation="0,1"
     id="guide20"
     inkscape:label="base"
     inkscape:locked="true"
     inkscape:color="rgb(0,0,255)" /><inkscape:grid
     type="xygrid"
     id="grid24"
     originx="-473.37552"
     originy="-489.69235" /><sodipodi:guide
     position="0,0"
     orientation="0,1"
     id="guide34"
     inkscape:label="bottom"
     inkscape:locked="true"
     inkscape:color="rgb(0,0,255)" /><sodipodi:guide
     position="225.05109,1693.3186"
     orientation="0,1"
     id="guide44"
     inkscape:label=""
     inkscape:locked="false"
     inkscape:color="rgb(0,0,255)" /><sodipodi:guide
     position="0,900"
     orientation="0,1"
     id="guide46"
     inkscape:label=""
     inkscape:locked="true"
     inkscape:color="rgb(0,0,255)" /><sodipodi:guide
     position="526.0035,526.98515"
     orientation="-1,0"
     id="guide841"
     inkscape:label="width"
     inkscape:locked="false"
     inkscape:color="rgb(0,0,255)" /><sodipodi:guide
     position="0,1000"
     orientation="0,1000"
     id="guide860" /><sodipodi:guide
     position="1000,1000"
     orientation="1000,0"
     id="guide862" /><sodipodi:guide
     position="1000,0"
     orientation="0,-1000"
     id="guide864" /><sodipodi:guide
     position="0,0"
     orientation="-1000,0"
     id="guide866" /></sodipodi:namedview>
 <defs
   id="defs4"><inkscape:path-effect
   effect="spiro"
   id="path-effect875"
   is_visible="true"
   lpeversion="1" /><inkscape:path-effect
   effect="spiro"
   id="path-effect873"
   is_visible="true"
   lpeversion="1" /><inkscape:path-effect
   effect="spiro"
   id="path-effect859"
   is_visible="true"
   lpeversion="1" /><inkscape:path-effect
   effect="spiro"
   id="path-effect862"
   is_visible="true"
   lpeversion="1" /><inkscape:path-effect
   effect="spiro"
   id="path-effect1521"
   is_visible="true"
   lpeversion="1" /><inkscape:path-effect
   effect="spiro"
   id="path-effect858"
   is_visible="true"
   lpeversion="1" /><inkscape:path-effect
   effect="spiro"
   id="path-effect854"
   is_visible="true"
   lpeversion="1" />
  <style
   type="text/css"
   id="style2">
   <![CDATA[
    .fil0 {fill:#EF7F1A;fill-rule:nonzero}
   ]]>
  </style>
 <inkscape:path-effect
   effect="spiro"
   id="path-effect1214"
   is_visible="true"
   lpeversion="1" /><inkscape:path-effect
   effect="spiro"
   id="path-effect1195"
   is_visible="true"
   lpeversion="1" /><inkscape:path-effect
   effect="spiro"
   id="path-effect992"
   is_visible="true"
   lpeversion="1" /><inkscape:path-effect
   effect="spiro"
   id="path-effect287"
   is_visible="true"
   lpeversion="1" /><inkscape:path-effect
   effect="spiro"
   id="path-effect1032"
   is_visible="true"
   lpeversion="1" /><inkscape:path-effect
   effect="spiro"
   id="path-effect1218"
   is_visible="true"
   lpeversion="1" /><inkscape:path-effect
   effect="spiro"
   id="path-effect309"
   is_visible="true"
   lpeversion="1" /><inkscape:path-effect
   effect="spiro"
   id="path-effect1176"
   is_visible="true"
   lpeversion="1" /><inkscape:path-effect
   effect="spiro"
   id="path-effect1026"
   is_visible="true"
   lpeversion="1" /></defs>
 
<path
   style="fill:#2d2d2d;stroke:none;stroke-width:5.49372px;stroke-linecap:butt;stroke-linejoin:miter;stroke-opacity:1"
   d="M 422.50999,327.28589 512.918,223.49784 C 482.18664,164.53321 426.38039,119.1731 362.38035,101.13871 318.77833,88.85222 272.05521,88.955079 227.91595,99.144269 183.7767,109.33346 142.19172,129.41771 105.32432,155.74049 77.927084,175.30172 52.814813,198.55715 33.991711,226.46667 15.16861,254.37618 2.8434059,287.17239 2,320.8256 c -0.938472,37.4465 13.067353,75.48003 39.715668,101.8047 18.723633,18.49623 42.866703,30.80159 67.984332,38.66223 25.11764,7.86064 51.33979,11.50502 77.47956,14.57057 62.43068,7.32158 125.84302,11.64771 185.67689,30.91178 15.24361,4.90782 30.56601,11.00058 42.37126,21.82141 5.90263,5.41042 10.82832,11.97498 13.83058,19.39792 3.00226,7.42294 4.01933,15.72466 2.32612,23.55068 -1.27476,5.89195 -4.05216,11.41552 -7.77164,16.15952 -3.71947,4.74401 -8.3657,8.72261 -13.45734,11.94989 -10.18328,6.45456 -21.9818,9.86842 -33.75861,12.45052 -36.12614,7.92077 -73.92818,8.68633 -110.12204,1.08096 -34.41912,-7.23245 -67.22746,-22.03107 -95.43024,-43.04505 l -40.30335,139.81822 c 85.95455,-8.20994 174.37282,11.79525 248.4214,56.20692 15.23639,9.13824 30.12598,19.50731 41.01663,33.54472 5.44533,7.0187 9.82805,14.91756 12.40649,23.41846 2.57844,8.50091 3.3166,17.61641 1.63171,26.3385 -2.89594,14.99128 -12.83728,28.0072 -25.24667,36.90282 -12.40939,8.89562 -27.14997,14.02293 -42.04243,17.3904 C 302.26739,918.33664 233.84328,901.16708 175.78687,869.58986 136.89278,848.43513 101.75894,821.11126 66.746756,794.01108 44.527391,776.81281 22.278428,759.65279 0,742.5311 l -35.764545,176.74626 c 61.126115,19.46157 122.724666,37.43926 184.723105,53.9119 50.9754,13.54388 102.7398,26.14214 155.47281,27.21784 52.73301,1.0757 107.109,-10.21948 150.10723,-40.76584 33.15814,-23.55587 58.57092,-58.58994 67.98655,-98.1587 8.26378,-34.72816 3.93418,-72.336 -12.13343,-104.21338 -19.29122,-38.27287 -55.51527,-67.61444 -96.95977,-78.53767 21.28327,-1.38796 42.08361,-9.44403 58.74946,-22.75394 16.66584,-13.30991 29.12221,-31.81379 35.18234,-52.26321 5.66152,-19.10432 5.75868,-39.69576 1.22252,-59.0981 -4.53616,-19.40234 -13.61813,-37.62201 -25.60531,-53.53852 -25.78281,-34.23425 -64.2268,-57.17253 -104.5633,-71.65369 -40.3365,-14.48116 -82.9541,-21.23048 -125.17626,-28.58075 -23.99144,-4.17657 -48.22451,-8.65526 -70.41555,-18.68474 -22.19104,-10.02948 -42.46511,-26.29735 -52.53068,-48.47204 -10.51189,-23.15794 -8.66017,-50.99678 2.67645,-73.76235 11.33661,-22.76557 31.4924,-40.52812 54.52936,-51.30255 29.16896,-13.64238 62.96059,-16.45026 94.41192,-9.53965 31.45133,6.91061 60.5218,23.26618 84.03562,45.26716 26.81018,25.08526 46.59788,57.59864 56.56147,92.93676 z"
   id="path871"
   inkscape:path-effect="#path-effect873"
   inkscape:original-d="M 422.50999,327.28589 512.918,223.49784 c 0,0 -87.67482,-107.20174 -150.53765,-122.35913 C 277.22377,80.605884 177.10142,105.52806 105.32432,155.74049 52.130518,192.95277 8.069987,256.1921 2,320.8256 c -3.405901,36.26619 13.687922,76.3215 39.715668,101.8047 36.893782,36.12189 95.538642,40.06425 145.463892,53.2328 60.66918,16.00242 130.62801,0.8045 185.67689,30.91178 25.53,13.96284 61.43951,35.81722 58.52796,64.77001 -2.27892,22.66177 -33.38697,33.33757 -54.98759,40.55993 -34.8146,11.64056 -74.1963,8.62419 -110.12204,1.08096 -34.15167,-7.17074 -80.73645,-24.8254 -95.43024,-43.04505 l -40.30335,139.81822 c 78.68215,5.16201 178.57391,7.94333 248.4214,56.20692 27.38248,18.92089 60.15826,50.41163 55.05483,83.30168 -4.41909,28.47967 -39.37111,47.13741 -67.2891,54.29322 C 304.09471,919.81473 235.55072,894.2674 175.78687,869.58986 134.91047,852.71128 102.44088,820.12039 66.746756,794.01108 44.068547,777.42257 55.274884,819.10265 0,742.5311 l -35.764545,176.74626 c 125.192432,2.70979 121.039902,46.24404 184.723105,53.9119 101.22892,12.18861 216.33111,35.75194 305.58004,-13.548 34.83937,-19.24481 58.33542,-59.54523 67.98655,-98.1587 8.48021,-33.92872 4.72361,-73.57171 -12.13343,-104.21338 -20.04793,-36.44187 -102.70369,-76.7601 -96.95977,-78.53767 65.0827,12.26286 80.49887,-37.26538 93.9318,-75.01715 12.87803,-36.19229 -0.0402,-82.91856 -24.38279,-112.63662 C 430.03693,426.44237 328.26751,427.61127 253.2414,390.8433 211.30875,370.29341 145.0257,367.99969 130.29517,323.68652 c -14.46084,-43.50184 16.37784,-104.21776 57.20581,-125.0649 54.02741,-27.58689 128.75439,0.934 178.44754,35.72751 29.70722,20.80003 56.56147,92.93676 56.56147,92.93676 z"
   sodipodi:nodetypes="ccaaaaaaaaaccaaaaaccaaaacaaaaaac" /></svg>
