<?xml version="1.0" encoding="UTF-8"?>
<!DOCTYPE svg PUBLIC "-//W3C//DTD SVG 1.1//EN" "http://www.w3.org/Graphics/SVG/1.1/DTD/svg11.dtd">
<!-- Creator: CorelDRAW X8 -->
<svg xmlns="http://www.w3.org/2000/svg" xml:space="preserve" width="1336px" height="1024px" version="1.1" style="shape-rendering:geometricPrecision; text-rendering:geometricPrecision; image-rendering:optimizeQuality; fill-rule:evenodd; clip-rule:evenodd"
viewBox="0 0 1336 1024"
 xmlns:xlink="http://www.w3.org/1999/xlink">
 <defs>
  <style type="text/css">
   <![CDATA[
    .fil0 {fill:#EF7F1A;fill-rule:nonzero}
   ]]>
  </style>
 </defs>
 <g id="Layer_x0020_1">
  <metadata id="CorelCorpID_0Corel-Layer"/>
  <path class="fil0" d="M1336 694c0,-103 -60,-201 -182,-242 -75,-26 -166,-31 -253,-31 -64,0 -126,5 -188,5 -84,0 -180,-4 -180,-106 0,-49 21,-92 60,-127 63,-57 161,-82 244,-82 114,0 223,31 305,113 20,20 55,29 89,29 17,0 35,-3 49,-7 25,-8 53,-27 53,-50 0,-8 -4,-17 -13,-26 -125,-124 -310,-170 -483,-170 -121,0 -260,28 -363,92 -95,59 -147,155 -147,247 0,95 53,187 169,230 81,29 181,34 273,34 60,0 119,-4 178,-4 88,0 183,4 183,112 0,61 -49,115 -101,143 -79,43 -205,59 -295,59 -120,0 -229,-23 -330,-88 -135,-87 -200,-236 -200,-393 0,-127 48,-266 158,-342 16,-11 22,-23 22,-34 0,-17 -15,-34 -38,-44 -18,-8 -41,-12 -64,-12 -29,0 -58,7 -79,21 -135,93 -203,251 -203,411 0,186 92,364 250,465 142,92 316,129 484,127 148,-1 304,-19 437,-90 88,-47 165,-139 165,-240z"/>
 </g>
</svg>
