<?xml version="1.0" encoding="UTF-8" standalone="no"?>
<svg
   xmlns:dc="http://purl.org/dc/elements/1.1/"
   xmlns:cc="http://creativecommons.org/ns#"
   xmlns:rdf="http://www.w3.org/1999/02/22-rdf-syntax-ns#"
   xmlns:svg="http://www.w3.org/2000/svg"
   xmlns="http://www.w3.org/2000/svg"
   xmlns:sodipodi="http://sodipodi.sourceforge.net/DTD/sodipodi-0.dtd"
   xmlns:inkscape="http://www.inkscape.org/namespaces/inkscape"
   xml:space="preserve"
   width="1000"
   height="1000"
   version="1.1"
   style="clip-rule:evenodd;fill-rule:evenodd;image-rendering:optimizeQuality;shape-rendering:geometricPrecision;text-rendering:geometricPrecision"
   viewBox="0 0 1000 1000"
   id="svg10"
   sodipodi:docname="ട്ട.svg"
   inkscape:version="1.0.1 (3bc2e813f5, 2020-09-07)"><metadata
   id="metadata14"><rdf:RDF><cc:Work
       rdf:about=""><dc:format>image/svg+xml</dc:format><dc:type
         rdf:resource="http://purl.org/dc/dcmitype/StillImage" /><dc:title /></cc:Work></rdf:RDF></metadata><sodipodi:namedview
   pagecolor="#ffffff"
   bordercolor="#666666"
   borderopacity="1"
   objecttolerance="10"
   gridtolerance="10"
   guidetolerance="10"
   inkscape:pageopacity="0"
   inkscape:pageshadow="2"
   inkscape:window-width="1920"
   inkscape:window-height="1015"
   id="namedview12"
   showgrid="false"
   inkscape:zoom="0.678"
   inkscape:cx="221.43732"
   inkscape:cy="519.49969"
   inkscape:window-x="1920"
   inkscape:window-y="0"
   inkscape:window-maximized="1"
   inkscape:current-layer="svg10"
   showguides="true"
   inkscape:guide-bbox="true"
   inkscape:document-rotation="0"
   inkscape:snap-to-guides="true"><sodipodi:guide
     position="0,1000"
     orientation="0,1"
     id="guide16"
     inkscape:label=""
     inkscape:locked="true"
     inkscape:color="rgb(0,0,255)" /><sodipodi:guide
     position="1763.3122,2036.1693"
     orientation="1000,0"
     id="guide18" /><sodipodi:guide
     position="0,200"
     orientation="0,1"
     id="guide20"
     inkscape:label="base"
     inkscape:locked="true"
     inkscape:color="rgb(0,0,255)" /><inkscape:grid
     type="xygrid"
     id="grid24"
     originx="-473.37552"
     originy="-489.69235" /><sodipodi:guide
     position="0,0"
     orientation="0,1"
     id="guide34"
     inkscape:label="bottom"
     inkscape:locked="true"
     inkscape:color="rgb(0,0,255)" /><sodipodi:guide
     position="225.05109,1693.3186"
     orientation="0,1"
     id="guide44"
     inkscape:label=""
     inkscape:locked="false"
     inkscape:color="rgb(0,0,255)" /><sodipodi:guide
     position="0,900"
     orientation="0,1"
     id="guide46"
     inkscape:label=""
     inkscape:locked="true"
     inkscape:color="rgb(0,0,255)" /><sodipodi:guide
     position="556.02127,536.07502"
     orientation="-1,0"
     id="guide841"
     inkscape:label="width"
     inkscape:locked="false"
     inkscape:color="rgb(0,0,255)" /><sodipodi:guide
     position="0,1000"
     orientation="0,1000"
     id="guide860" /><sodipodi:guide
     position="1000,1000"
     orientation="1000,0"
     id="guide862" /><sodipodi:guide
     position="1000,0"
     orientation="0,-1000"
     id="guide864" /><sodipodi:guide
     position="0,0"
     orientation="-1000,0"
     id="guide866" /></sodipodi:namedview>
 <defs
   id="defs4"><inkscape:path-effect
   effect="spiro"
   id="path-effect875"
   is_visible="true"
   lpeversion="1" /><inkscape:path-effect
   effect="spiro"
   id="path-effect873"
   is_visible="true"
   lpeversion="1" /><inkscape:path-effect
   effect="spiro"
   id="path-effect859"
   is_visible="true"
   lpeversion="1" /><inkscape:path-effect
   effect="spiro"
   id="path-effect862"
   is_visible="true"
   lpeversion="1" /><inkscape:path-effect
   effect="spiro"
   id="path-effect1521"
   is_visible="true"
   lpeversion="1" /><inkscape:path-effect
   effect="spiro"
   id="path-effect858"
   is_visible="true"
   lpeversion="1" /><inkscape:path-effect
   effect="spiro"
   id="path-effect854"
   is_visible="true"
   lpeversion="1" />
  <style
   type="text/css"
   id="style2">
   <![CDATA[
    .fil0 {fill:#EF7F1A;fill-rule:nonzero}
   ]]>
  </style>
 <inkscape:path-effect
   effect="spiro"
   id="path-effect1214"
   is_visible="true"
   lpeversion="1" /><inkscape:path-effect
   effect="spiro"
   id="path-effect1195"
   is_visible="true"
   lpeversion="1" /><inkscape:path-effect
   effect="spiro"
   id="path-effect992"
   is_visible="true"
   lpeversion="1" /><inkscape:path-effect
   effect="spiro"
   id="path-effect287"
   is_visible="true"
   lpeversion="1" /><inkscape:path-effect
   effect="spiro"
   id="path-effect1032"
   is_visible="true"
   lpeversion="1" /><inkscape:path-effect
   effect="spiro"
   id="path-effect1218"
   is_visible="true"
   lpeversion="1" /><inkscape:path-effect
   effect="spiro"
   id="path-effect309"
   is_visible="true"
   lpeversion="1" /><inkscape:path-effect
   effect="spiro"
   id="path-effect1176"
   is_visible="true"
   lpeversion="1" /><inkscape:path-effect
   effect="spiro"
   id="path-effect1026"
   is_visible="true"
   lpeversion="1" /></defs>
 
<path
   style="fill:#2d2d2d;stroke:none;stroke-width:5.49372px;stroke-linecap:butt;stroke-linejoin:miter;stroke-opacity:1"
   d="M 448.50999,327.28589 538.918,223.49784 C 508.18755,164.53256 452.38084,119.17207 388.38035,101.13871 344.77835,88.853011 298.05551,88.957062 253.91656,99.146584 209.77762,109.33611 168.19291,129.41978 131.32432,155.74049 103.92556,175.30063 78.810861,198.55453 59.986666,226.46404 41.162471,254.37355 28.837753,287.17164 28,320.8256 c -0.932123,37.44499 13.081049,75.46855 39.715668,101.8047 18.7171,18.50736 42.851142,30.83704 67.968932,38.70781 25.11779,7.87076 51.34614,11.50978 77.49496,14.52499 62.45696,7.2019 125.98666,11.16804 185.67689,30.91178 15.13818,5.00726 30.31246,11.23404 42.03267,22.04486 5.8601,5.40541 10.76512,11.92893 13.81175,19.29624 3.04664,7.36732 4.17908,15.59803 2.68354,23.42891 -2.28102,11.94382 -10.54663,22.18228 -20.74991,28.79673 -10.20328,6.61445 -22.21573,9.93821 -34.23768,11.7632 -33.97391,5.1574 -68.80488,-1.02951 -101.48889,-11.63992 -30.97343,-10.0551 -60.65201,-24.09133 -88.0747,-41.6542 L 161.9969,723.77333 c 61.68869,3.80411 123.14824,11.3206 183.93551,22.49526 28.45739,5.23139 57.68481,11.65366 81.22821,28.47325 11.7717,8.4098 21.88117,19.40422 28.10232,32.46542 6.22114,13.06121 8.36961,28.25213 4.75448,42.26029 -3.78616,14.67089 -13.66274,27.32272 -25.88178,36.2818 -12.21904,8.95908 -26.67659,14.46521 -41.40732,18.01142 -32.07788,7.72229 -65.89206,6.4881 -98.15839,-0.40454 C 262.3036,896.46359 231.44386,884.04971 201.78687,869.58986 161.81463,850.10061 123.21997,826.39926 92.746756,794.01108 76.568244,776.8159 62.843931,757.31509 52.118276,736.28229 L 0,905.75897 c 56.712626,26.38173 115.20958,48.92687 174.95856,67.43029 50.54414,15.65281 102.56095,28.49294 155.46952,29.12804 52.90857,0.6351 107.18167,-11.74331 150.11052,-42.67604 32.98263,-23.76589 58.50467,-58.62688 67.98655,-98.1587 8.32733,-34.71829 3.9575,-72.34198 -12.13343,-104.21338 -19.31461,-38.25656 -55.52636,-67.58818 -96.95977,-78.53767 21.28327,-1.38796 42.08361,-9.44403 58.74946,-22.75394 16.66584,-13.30991 29.12221,-31.81379 35.18234,-52.26321 5.66152,-19.10432 5.75868,-39.69576 1.22252,-59.0981 -4.53616,-19.40234 -13.61813,-37.62201 -25.60531,-53.53852 -25.78281,-34.23425 -64.2268,-57.17253 -104.5633,-71.65369 -40.3365,-14.48116 -82.9541,-21.23048 -125.17626,-28.58075 -23.99144,-4.17657 -48.22451,-8.65526 -70.41555,-18.68474 -22.19104,-10.02948 -42.46511,-26.29735 -52.53068,-48.47204 -10.51189,-23.15794 -8.66017,-50.99678 2.67645,-73.76235 11.33661,-22.76557 31.4924,-40.52812 54.52936,-51.30255 29.16896,-13.64238 62.96059,-16.45026 94.41192,-9.53965 31.45133,6.91061 60.5218,23.26618 84.03562,45.26716 26.81018,25.08526 46.59788,57.59864 56.56147,92.93676 z"
   id="path871"
   inkscape:path-effect="#path-effect873"
   inkscape:original-d="M 448.50999,327.28589 538.918,223.49784 c 0,0 -87.67482,-107.20174 -150.53765,-122.35913 C 303.22377,80.605884 203.10142,105.52806 131.32432,155.74049 78.130518,192.95277 34.069987,256.1921 28,320.8256 c -3.405901,36.26619 13.687922,76.3215 39.715668,101.8047 36.893782,36.12189 95.538642,40.06425 145.463892,53.2328 60.66918,16.00242 130.62801,0.8045 185.67689,30.91178 25.53,13.96284 61.43951,35.81722 58.52796,64.77001 -2.27892,22.66177 -32.98095,34.68992 -54.98759,40.55993 -32.90107,8.77596 -68.74466,-2.29574 -101.48889,-11.63992 -31.22932,-8.91187 -73.38091,-23.43455 -88.0747,-41.6542 L 161.9969,723.77333 c 78.68215,5.16201 127.7518,-3.17102 183.93551,22.49526 46.64209,21.30741 115.53155,51.94081 114.08501,103.19896 -0.81301,28.809 -39.37111,47.13741 -67.2891,54.29322 -62.63361,16.05396 -131.1776,-9.49337 -190.94145,-34.17091 -40.8764,-16.87858 -77.65723,-44.41982 -109.040114,-75.57878 -16.698252,-16.57911 14.646404,18.84276 -40.62848,-57.72879 L 0,905.75897 c 125.19243,2.70979 113.2737,57.36302 174.95856,67.43029 100.62872,16.42309 216.33111,35.75194 305.58004,-13.548 34.83937,-19.24481 58.33542,-59.54523 67.98655,-98.1587 8.48021,-33.92872 4.72361,-73.57171 -12.13343,-104.21338 -20.04793,-36.44187 -102.70369,-76.7601 -96.95977,-78.53767 65.0827,12.26286 80.49887,-37.26538 93.9318,-75.01715 12.87803,-36.19229 -0.0402,-82.91856 -24.38279,-112.63662 C 456.03693,426.44237 354.26751,427.61127 279.2414,390.8433 237.30875,370.29341 171.0257,367.99969 156.29517,323.68652 c -14.46084,-43.50184 16.37784,-104.21776 57.20581,-125.0649 54.02741,-27.58689 128.75439,0.934 178.44754,35.72751 29.70722,20.80003 56.56147,92.93676 56.56147,92.93676 z"
   sodipodi:nodetypes="ccaaaaaaaaaccaaaaaccaaaacaaaaaac" /></svg>
