<?xml version="1.0" encoding="UTF-8" standalone="no"?>
<svg
   xmlns:dc="http://purl.org/dc/elements/1.1/"
   xmlns:cc="http://creativecommons.org/ns#"
   xmlns:rdf="http://www.w3.org/1999/02/22-rdf-syntax-ns#"
   xmlns:svg="http://www.w3.org/2000/svg"
   xmlns="http://www.w3.org/2000/svg"
   xmlns:sodipodi="http://sodipodi.sourceforge.net/DTD/sodipodi-0.dtd"
   xmlns:inkscape="http://www.inkscape.org/namespaces/inkscape"
   xml:space="preserve"
   width="1000"
   height="1000"
   version="1.1"
   style="clip-rule:evenodd;fill-rule:evenodd;image-rendering:optimizeQuality;shape-rendering:geometricPrecision;text-rendering:geometricPrecision"
   viewBox="0 0 1000 1000"
   id="svg10"
   sodipodi:docname="ഡ.svg"
   inkscape:version="1.0.1 (3bc2e813f5, 2020-09-07)"><metadata
   id="metadata14"><rdf:RDF><cc:Work
       rdf:about=""><dc:format>image/svg+xml</dc:format><dc:type
         rdf:resource="http://purl.org/dc/dcmitype/StillImage" /><dc:title /></cc:Work></rdf:RDF></metadata><sodipodi:namedview
   pagecolor="#ffffff"
   bordercolor="#666666"
   borderopacity="1"
   objecttolerance="10"
   gridtolerance="10"
   guidetolerance="10"
   inkscape:pageopacity="0"
   inkscape:pageshadow="2"
   inkscape:window-width="1920"
   inkscape:window-height="1015"
   id="namedview12"
   showgrid="false"
   inkscape:zoom="1.2005384"
   inkscape:cx="462.81862"
   inkscape:cy="572.50337"
   inkscape:window-x="1920"
   inkscape:window-y="0"
   inkscape:window-maximized="1"
   inkscape:current-layer="svg10"
   showguides="true"
   inkscape:guide-bbox="true"
   inkscape:document-rotation="0"><sodipodi:guide
     position="0,1000"
     orientation="0,1"
     id="guide16"
     inkscape:label=""
     inkscape:locked="true"
     inkscape:color="rgb(0,0,255)" /><sodipodi:guide
     position="1763.3122,2036.1693"
     orientation="1000,0"
     id="guide18" /><sodipodi:guide
     position="0,200"
     orientation="0,1"
     id="guide20"
     inkscape:label="base"
     inkscape:locked="true"
     inkscape:color="rgb(0,0,255)" /><inkscape:grid
     type="xygrid"
     id="grid24"
     originx="-473.37552"
     originy="-489.69235" /><sodipodi:guide
     position="0,0"
     orientation="0,1"
     id="guide34"
     inkscape:label="bottom"
     inkscape:locked="true"
     inkscape:color="rgb(0,0,255)" /><sodipodi:guide
     position="225.05109,1693.3186"
     orientation="0,1"
     id="guide44"
     inkscape:label=""
     inkscape:locked="false"
     inkscape:color="rgb(0,0,255)" /><sodipodi:guide
     position="0,900"
     orientation="0,1"
     id="guide46"
     inkscape:label=""
     inkscape:locked="true"
     inkscape:color="rgb(0,0,255)" /><sodipodi:guide
     position="877.95936,389.77732"
     orientation="-1,0"
     id="guide841"
     inkscape:label="width"
     inkscape:locked="false"
     inkscape:color="rgb(0,0,255)" /></sodipodi:namedview>
 <defs
   id="defs4"><inkscape:path-effect
   effect="spiro"
   id="path-effect867"
   is_visible="true"
   lpeversion="1" />
  <style
   type="text/css"
   id="style2">
   <![CDATA[
    .fil0 {fill:#EF7F1A;fill-rule:nonzero}
   ]]>
  </style>
 <inkscape:path-effect
   effect="spiro"
   id="path-effect1214"
   is_visible="true"
   lpeversion="1" /><inkscape:path-effect
   effect="spiro"
   id="path-effect1195"
   is_visible="true"
   lpeversion="1" /><inkscape:path-effect
   effect="spiro"
   id="path-effect992"
   is_visible="true"
   lpeversion="1" /><inkscape:path-effect
   effect="spiro"
   id="path-effect1078"
   is_visible="true"
   lpeversion="1" /></defs>
 
<path
   style="display:inline;fill:#1a1a1a;stroke:none;stroke-width:1.92017px;stroke-linecap:butt;stroke-linejoin:miter;stroke-opacity:1"
   d="m 789.48142,100 c -1.02344,24.72106 -0.75714,49.49546 0.79746,74.1888 5.87736,93.35614 30.03371,184.44635 52.61954,275.21966 12.23078,49.15596 24.10348,98.97162 24.22039,149.6262 0.11691,50.65458 -12.57484,102.92924 -44.72237,142.07558 -20.01899,24.3773 -47.15744,42.88264 -77.24045,52.37078 -30.08302,9.48814 -63.00545,9.88855 -93.23815,0.88875 -36.92886,-10.99314 -69.45578,-36.12629 -89.41084,-69.08665 -19.95507,-32.96036 -27.14698,-73.43198 -19.76933,-111.24944 -2.92939,20.1905 -8.53888,39.99049 -16.63504,58.71721 -16.24492,37.5751 -42.77264,70.81399 -76.48748,94.03241 -33.71483,23.21842 -74.5853,36.19579 -115.51608,35.52 -44.55203,-0.73558 -89.13413,-18.17697 -120.39689,-49.927 -31.26276,-31.75004 -48.13979,-77.88915 -42.00404,-122.02278 5.99766,-43.14042 32.29449,-80.78907 61.91029,-112.72607 29.6158,-31.937 63.38407,-60.16505 89.74154,-94.83999 18.67728,-24.57116 33.60866,-52.82235 37.8049,-83.3997 2.09812,-15.28867 1.4526,-31.02035 -2.59923,-45.9109 -4.05183,-14.89054 -11.56513,-28.91607 -22.24766,-40.05291 -11.71332,-12.21147 -27.11104,-20.75914 -43.5764,-24.65962 -16.46536,-3.90048 -33.94159,-3.19366 -50.16593,1.61182 -26.76718,7.92816 -49.47998,26.7005 -65.73911,49.39362 -16.25914,22.69313 -26.51719,49.17415 -33.92058,76.09119 -22.61138,82.20986 -19.6938,169.41589 -8.10195,253.88698 5.67352,41.34358 13.39472,82.62287 13.44989,124.35389 0.0383,28.93859 -3.6391,57.88005 -10.91328,85.88951 L 3.429528,784.62347 C 19.282232,761.82224 32.376773,737.10527 42.337099,711.18238 65.60618,650.62194 71.411406,584.53608 68.621618,519.71915 66.655659,474.04276 60.550491,428.60234 59.169904,382.90451 57.789317,337.20668 61.326656,290.58299 77.901862,247.97477 94.318839,205.7733 123.71789,168.43893 161.88741,144.07566 c 38.16952,-24.36327 85.04771,-35.32774 129.83785,-28.67006 43.74316,6.50206 84.7949,29.88288 112.53962,64.32082 27.74473,34.43793 41.8603,79.60918 38.45203,123.70141 -3.30661,42.77713 -22.30184,82.96323 -46.11727,118.65134 -23.81542,35.68812 -52.56818,67.77884 -78.42601,102.01608 -12.04705,15.95098 -23.58244,32.58249 -30.78799,51.22773 -7.20556,18.64524 -9.80938,39.65834 -3.73301,58.70152 6.44166,20.18801 22.66391,36.85174 42.42865,44.49411 12.99086,5.02313 27.31062,6.29738 41.10514,4.37244 13.79452,-1.92494 27.06739,-6.98746 39.03836,-14.10714 23.94196,-14.23937 42.3208,-36.28837 57.29622,-59.77695 37.10577,-58.1995 55.79042,-128.43363 49.81559,-197.19642 -2.43139,-27.98222 -8.85079,-55.61491 -19.00388,-81.80329 l 135.45018,-1.27183 c -19.64103,44.31254 -31.06212,92.25259 -33.51067,140.66102 -2.12105,41.93366 2.54569,84.50373 16.76444,124.01016 8.00114,22.23095 19.2119,43.69872 35.77369,60.54925 16.56179,16.85054 38.9288,28.76997 62.54203,29.57538 24.243,0.82689 48.1682,-10.29845 64.90844,-27.85325 16.74025,-17.5548 26.56267,-41.0566 29.70203,-65.10969 5.1177,-39.21064 -6.71024,-78.58231 -20.85399,-115.50953 C 760.97922,412.05987 729.68249,351.86972 692.85383,295.34761 666.78455,255.33826 637.93724,217.13937 606.58841,181.11707 Z"
   id="path1087-2"
   inkscape:path-effect="#path-effect1078"
   inkscape:original-d="m 789.48142,100 c 0,0 -1.66734,49.5809 0.79746,74.1888 9.30879,92.93653 47.07743,181.98266 52.61954,275.21966 5.78375,97.30205 39.95758,215.24407 -20.50198,291.70178 -36.92734,46.69865 -114.79793,74.33214 -170.4786,53.25953 -65.72132,-24.87255 -109.18017,-180.33609 -109.18017,-180.33609 0,0 -4.70538,42.23967 -16.63504,58.71721 -45.2772,62.53796 -115.26415,138.04268 -192.00356,129.55241 -78.36121,-8.6697 -157.44266,-93.2665 -162.40093,-171.94978 -5.38899,-85.5184 121.97425,-127.18149 151.65183,-207.56606 19.60985,-53.11518 46.16287,-123.5028 12.95801,-169.36351 -18.871,-26.06358 -63.29286,-33.45237 -93.74233,-23.0478 -50.54566,17.27142 -81.26621,75.33658 -99.65969,125.48481 -29.15686,79.49363 -11.31189,169.27577 -8.10195,253.88698 1.5806,41.66307 13.83857,82.66266 13.44989,124.35389 -0.26905,28.85877 -10.91328,85.88951 -10.91328,85.88951 L 3.429528,784.62347 c 0,0 30.408672,-47.07337 38.907571,-73.44109 C 62.099756,649.86899 63.134344,583.90469 68.621618,519.71915 76.341856,429.4143 32.477051,326.40408 77.901862,247.97477 119.93234,175.40605 209.06684,101.25051 291.72526,115.4056 c 79.22829,13.5677 144.45692,107.90668 150.99165,188.02223 6.8665,84.18287 -90.9492,143.17328 -124.54328,220.66742 -15.27614,35.2387 -43.2277,72.52177 -34.521,109.92925 4.64579,19.96015 22.23198,41.01775 42.42865,44.49411 50.59531,8.70873 105.35805,-29.43056 137.43972,-69.51165 42.36604,-52.92982 49.16546,-129.40243 49.81559,-197.19642 0.26845,-27.99261 -19.00388,-81.80329 -19.00388,-81.80329 l 135.45018,-1.27183 c 0,0 -31.1136,92.52144 -33.51067,140.66102 -2.07447,41.66111 -2.55699,87.04215 16.76444,124.01016 20.59294,39.40081 55.17906,100.88198 98.31572,90.12463 44.61335,-11.12561 81.21623,-50.82744 94.61047,-92.96294 11.85298,-37.28703 -8.30732,-78.45016 -20.85399,-115.50953 C 763.51584,411.27897 728.65265,352.37888 692.85383,295.34761 667.48646,254.93473 606.58841,181.11707 606.58841,181.11707 Z"
   sodipodi:nodetypes="caaaacaaaaaaaaaccaaaaaaaaaaccaasaaacc" /></svg>
