<?xml version="1.0" encoding="UTF-8"?>
<!DOCTYPE svg PUBLIC "-//W3C//DTD SVG 1.1//EN" "http://www.w3.org/Graphics/SVG/1.1/DTD/svg11.dtd">
<!-- Creator: CorelDRAW X8 -->
<svg xmlns="http://www.w3.org/2000/svg" xml:space="preserve" width="2139px" height="1024px" version="1.1" style="shape-rendering:geometricPrecision; text-rendering:geometricPrecision; image-rendering:optimizeQuality; fill-rule:evenodd; clip-rule:evenodd"
viewBox="0 0 2139 1024"
 xmlns:xlink="http://www.w3.org/1999/xlink">
 <defs>
  <style type="text/css">
   <![CDATA[
    .fil0 {fill:#EF7F1A;fill-rule:nonzero}
   ]]>
  </style>
 </defs>
 <g id="Layer_x0020_1">
  <metadata id="CorelCorpID_0Corel-Layer"/>
  <path class="fil0" d="M1637 1024c190,0 368,-90 450,-262 37,-76 52,-178 52,-262 0,-210 -88,-400 -291,-487 -20,-9 -44,-13 -68,-13 -28,0 -57,7 -78,22 -15,11 -21,22 -21,33 0,18 17,35 40,45 156,64 215,246 215,400 0,66 -10,151 -35,212 -42,107 -141,201 -264,201 -152,0 -212,-121 -212,-254l0 -603c0,-42 -70,-56 -102,-56 -32,0 -101,14 -101,56l0 603c0,121 -41,254 -185,254 -79,0 -145,-72 -169,-139 -32,-88 -30,-182 -31,-274 -1,-105 -2,-217 -47,-314 -63,-137 -190,-186 -337,-186 -194,0 -342,98 -412,275 -28,72 -41,148 -41,225 0,222 107,422 317,510 21,9 46,14 71,14 30,0 59,-8 81,-26 12,-10 17,-21 17,-31 0,-19 -20,-37 -45,-46 -166,-59 -238,-260 -239,-421 -1,-64 12,-123 33,-185 33,-95 102,-204 218,-204 80,0 126,55 151,124 29,82 30,179 30,265 0,100 1,200 36,295 55,153 208,229 367,229 106,0 214,-27 291,-101 83,75 199,101 309,101z"/>
 </g>
</svg>
