<?xml version="1.0" encoding="UTF-8" standalone="no"?>
<svg
   xmlns:dc="http://purl.org/dc/elements/1.1/"
   xmlns:cc="http://creativecommons.org/ns#"
   xmlns:rdf="http://www.w3.org/1999/02/22-rdf-syntax-ns#"
   xmlns:svg="http://www.w3.org/2000/svg"
   xmlns="http://www.w3.org/2000/svg"
   xmlns:sodipodi="http://sodipodi.sourceforge.net/DTD/sodipodi-0.dtd"
   xmlns:inkscape="http://www.inkscape.org/namespaces/inkscape"
   xml:space="preserve"
   width="1000"
   height="1000"
   version="1.1"
   style="clip-rule:evenodd;fill-rule:evenodd;image-rendering:optimizeQuality;shape-rendering:geometricPrecision;text-rendering:geometricPrecision"
   viewBox="0 0 1000 1000"
   id="svg10"
   sodipodi:docname="ഡ.svg"
   inkscape:version="1.0.1 (3bc2e813f5, 2020-09-07)"><metadata
   id="metadata14"><rdf:RDF><cc:Work
       rdf:about=""><dc:format>image/svg+xml</dc:format><dc:type
         rdf:resource="http://purl.org/dc/dcmitype/StillImage" /><dc:title /></cc:Work></rdf:RDF></metadata><sodipodi:namedview
   pagecolor="#ffffff"
   bordercolor="#666666"
   borderopacity="1"
   objecttolerance="10"
   gridtolerance="10"
   guidetolerance="10"
   inkscape:pageopacity="0"
   inkscape:pageshadow="2"
   inkscape:window-width="1920"
   inkscape:window-height="1015"
   id="namedview12"
   showgrid="false"
   inkscape:zoom="0.6002692"
   inkscape:cx="-110.70383"
   inkscape:cy="500.11115"
   inkscape:window-x="1920"
   inkscape:window-y="0"
   inkscape:window-maximized="1"
   inkscape:current-layer="svg10"
   showguides="true"
   inkscape:guide-bbox="true"
   inkscape:document-rotation="0"><sodipodi:guide
     position="0,1000"
     orientation="0,1"
     id="guide16"
     inkscape:label=""
     inkscape:locked="true"
     inkscape:color="rgb(0,0,255)" /><sodipodi:guide
     position="1763.3122,2036.1693"
     orientation="1000,0"
     id="guide18" /><sodipodi:guide
     position="0,200"
     orientation="0,1"
     id="guide20"
     inkscape:label="base"
     inkscape:locked="true"
     inkscape:color="rgb(0,0,255)" /><inkscape:grid
     type="xygrid"
     id="grid24"
     originx="-473.37552"
     originy="-489.69235" /><sodipodi:guide
     position="0,0"
     orientation="0,1"
     id="guide34"
     inkscape:label="bottom"
     inkscape:locked="true"
     inkscape:color="rgb(0,0,255)" /><sodipodi:guide
     position="225.05109,1693.3186"
     orientation="0,1"
     id="guide44"
     inkscape:label=""
     inkscape:locked="false"
     inkscape:color="rgb(0,0,255)" /><sodipodi:guide
     position="0,900"
     orientation="0,1"
     id="guide46"
     inkscape:label=""
     inkscape:locked="true"
     inkscape:color="rgb(0,0,255)" /><sodipodi:guide
     position="866.34048,384.46991"
     orientation="1,0"
     id="guide841" /></sodipodi:namedview>
 <defs
   id="defs4"><inkscape:path-effect
   effect="spiro"
   id="path-effect867"
   is_visible="true"
   lpeversion="1" />
  <style
   type="text/css"
   id="style2">
   <![CDATA[
    .fil0 {fill:#EF7F1A;fill-rule:nonzero}
   ]]>
  </style>
 <inkscape:path-effect
   effect="spiro"
   id="path-effect1214"
   is_visible="true"
   lpeversion="1" /><inkscape:path-effect
   effect="spiro"
   id="path-effect1195"
   is_visible="true"
   lpeversion="1" /><inkscape:path-effect
   effect="spiro"
   id="path-effect992"
   is_visible="true"
   lpeversion="1" /><inkscape:path-effect
   effect="spiro"
   id="path-effect1078"
   is_visible="true"
   lpeversion="1" /></defs>
 
<path
   style="display:inline;fill:#1a1a1a;stroke:none;stroke-width:1.92017px;stroke-linecap:butt;stroke-linejoin:miter;stroke-opacity:1"
   d="m 790.01605,100 c -9.39666,22.81359 -15.7973,46.85915 -18.98594,71.32525 -12.18577,93.50025 22.42003,185.89564 52.61954,275.21966 16.55907,48.97838 32.10217,99.22215 32.8225,150.91901 0.36016,25.84844 -3.06676,51.8876 -11.70121,76.25392 -8.63446,24.36631 -22.59362,47.03189 -41.62327,64.52885 -21.32341,19.60598 -48.71338,32.31773 -77.31726,36.88943 -28.60389,4.57169 -58.32777,1.10711 -85.46541,-9.02358 -31.99232,-11.94298 -60.45502,-33.17504 -81.01961,-60.43749 -20.5646,-27.26244 -33.16121,-60.46261 -35.85649,-94.50492 -3.37906,20.10142 -8.96845,39.83048 -16.63504,58.71721 -15.52971,38.25763 -39.90529,73.23053 -72.11266,99.06661 -32.20737,25.83608 -72.3894,42.2084 -113.65184,43.70131 -47.86295,1.73173 -96.43942,-17.37869 -129.09072,-52.41799 -32.6513,-35.03931 -48.31779,-85.66255 -39.54927,-132.7473 7.9498,-42.68845 34.23042,-79.70612 63.48241,-111.797 29.25199,-32.09087 62.23749,-60.94036 88.16942,-95.76906 18.40612,-24.72091 33.2631,-52.91501 37.50883,-83.44176 2.12286,-15.26337 1.5309,-30.97259 -2.46309,-45.85631 -3.99399,-14.88372 -11.44698,-28.91862 -22.08773,-40.06544 -11.68763,-12.2435 -27.09134,-20.80552 -43.56323,-24.70179 -16.47189,-3.89628 -33.95433,-3.16897 -50.1791,1.65399 -26.75501,7.95316 -49.45165,26.73051 -65.7083,49.41982 -16.25665,22.6893 -26.52475,49.15907 -33.95139,76.06499 -22.68899,82.19973 -19.95234,169.44082 -8.10195,253.88698 5.80025,41.33272 13.75494,82.61729 13.44989,124.35389 -0.17358,23.74919 -3.03921,47.47768 -8.52442,70.5854 L -23.24877,793.13645 C -4.0284653,767.15575 11.610535,738.52938 23.088329,708.31883 46.125879,647.682 52.086547,581.66447 49.372848,516.8556 47.460254,471.17882 41.362751,425.73861 39.972598,380.04294 38.582445,334.34727 42.092715,287.7232 58.653092,245.11122 75.056865,202.90221 104.45684,165.5622 142.62955,141.19976 c 38.17272,-24.36243 85.05525,-35.32022 129.84694,-28.65771 43.74177,6.50635 84.7916,29.88707 112.5364,64.32398 27.74481,34.43692 41.8622,79.60666 38.45525,123.69825 -3.3054,42.7773 -22.3006,82.96374 -46.11628,118.65179 -23.81568,35.68805 -52.56895,67.77845 -78.427,102.01563 -12.04713,15.95093 -23.58254,32.58244 -30.78808,51.2277 -7.20554,18.64525 -9.80931,39.65837 -3.73292,58.70155 6.44168,20.188 22.66391,36.85174 42.42865,44.49411 12.99086,5.02314 27.31062,6.29739 41.10514,4.37245 13.79452,-1.92494 27.06739,-6.98745 39.03837,-14.10714 23.94195,-14.23937 42.32079,-36.28837 57.29621,-59.77696 37.10577,-58.1995 55.79041,-128.43363 49.81559,-197.19642 -2.43139,-27.98222 -8.85079,-55.61491 -19.00388,-81.80329 l 135.45018,-1.27183 c -28.63078,41.10634 -45.07066,90.594 -46.7278,140.66102 -1.02073,30.8393 3.56703,62.15137 16.01587,90.38487 12.44884,28.23351 33.06355,53.25289 59.85454,68.5613 15.61017,8.91967 33.29533,14.48756 51.27048,14.85095 17.97515,0.36339 36.2103,-4.6455 50.78664,-15.17016 11.20216,-8.08838 20.04546,-19.245 26.09275,-31.66839 6.0473,-12.42338 9.35422,-26.08797 10.46822,-39.86002 2.228,-27.54409 -4.17677,-55.0649 -12.43473,-81.43623 -20.21727,-64.56274 -51.86873,-125.43379 -92.25503,-179.71115 -26.24314,-35.2696 -56.167,-67.79877 -89.12831,-96.88826 31.16335,-11.71635 61.93602,-24.47181 92.24968,-38.23805 C 715.27746,139.8507 753.08591,120.70854 790.01605,100 Z"
   id="path1087-2"
   inkscape:path-effect="#path-effect1078"
   inkscape:original-d="m 790.01605,100 c 0,0 -18.10971,46.73789 -18.98594,71.32525 -3.32647,93.34231 47.07743,181.98266 52.61954,275.21966 5.78375,97.30205 44.91416,219.43928 -20.50198,291.70178 -36.94501,40.81163 -111.60858,48.1571 -162.78267,27.86585 -60.13837,-23.84572 -116.8761,-154.94241 -116.8761,-154.94241 0,0 -5.21923,41.87958 -16.63504,58.71721 -43.82552,64.64006 -107.97328,149.66297 -185.7645,142.76792 -83.1576,-7.3707 -164.14477,-101.80278 -168.63999,-185.16529 -4.61391,-85.56372 121.97425,-127.18149 151.65183,-207.56606 19.60985,-53.11518 46.16287,-123.5028 12.95801,-169.36351 -18.871,-26.06358 -63.29286,-33.45237 -93.74233,-23.0478 -50.54566,17.27142 -81.26621,75.33658 -99.65969,125.48481 -29.15686,79.49363 -11.31189,169.27577 -8.10195,253.88698 1.5806,41.66307 13.70935,82.66165 13.44989,124.35389 -0.14748,23.69897 -8.52442,70.5854 -8.52442,70.5854 l -143.72948,-8.68723 c 0,0 36.25732,-54.21854 46.337099,-84.81762 C 43.24369,647.13342 43.885574,581.04114 49.372848,516.8556 57.093086,426.55075 13.228281,323.54053 58.653092,245.11122 100.68357,172.5425 189.81807,98.38696 272.47649,112.54205 c 79.22829,13.5677 144.45692,107.90668 150.99165,188.02223 6.8665,84.18287 -90.9492,143.17328 -124.54328,220.66742 -15.27614,35.2387 -43.2277,72.52177 -34.521,109.92925 4.64579,19.96015 22.23198,41.01775 42.42865,44.49411 50.59531,8.70873 105.35805,-29.43056 137.43972,-69.51165 42.36604,-52.92982 49.16546,-129.40243 49.81559,-197.19642 0.26845,-27.99261 -19.00388,-81.80329 -19.00388,-81.80329 l 135.45018,-1.27183 c 0,0 -30.66904,55.10325 -46.7278,140.66102 -16.05876,85.55802 26.16549,127.7034 75.87041,158.94617 28.80199,18.10393 76.23042,21.82324 102.05712,-0.31921 C 780.92159,591.56233 774.02873,523.1633 765.86009,472.19521 755.20418,405.70782 712.12377,347.71475 673.60506,292.48406 648.5025,256.49033 584.47675,195.5958 584.47675,195.5958 c 0,0 62.00428,-24.33724 92.24968,-38.23805 C 715.18627,139.68159 790.01605,100 790.01605,100 Z"
   sodipodi:nodetypes="caaaacaaaaaaaaaccaaaaaaaaaaccsaaaacac" /></svg>
