<?xml version="1.0" encoding="UTF-8" standalone="no"?>
<svg
   xmlns:dc="http://purl.org/dc/elements/1.1/"
   xmlns:cc="http://creativecommons.org/ns#"
   xmlns:rdf="http://www.w3.org/1999/02/22-rdf-syntax-ns#"
   xmlns:svg="http://www.w3.org/2000/svg"
   xmlns="http://www.w3.org/2000/svg"
   xmlns:sodipodi="http://sodipodi.sourceforge.net/DTD/sodipodi-0.dtd"
   xmlns:inkscape="http://www.inkscape.org/namespaces/inkscape"
   xml:space="preserve"
   width="1000"
   height="1000"
   version="1.1"
   style="clip-rule:evenodd;fill-rule:evenodd;image-rendering:optimizeQuality;shape-rendering:geometricPrecision;text-rendering:geometricPrecision"
   viewBox="0 0 1000 1000"
   id="svg10"
   sodipodi:docname="ഡ.svg"
   inkscape:version="1.0.1 (3bc2e813f5, 2020-09-07)"><metadata
   id="metadata14"><rdf:RDF><cc:Work
       rdf:about=""><dc:format>image/svg+xml</dc:format><dc:type
         rdf:resource="http://purl.org/dc/dcmitype/StillImage" /><dc:title /></cc:Work></rdf:RDF></metadata><sodipodi:namedview
   pagecolor="#ffffff"
   bordercolor="#666666"
   borderopacity="1"
   objecttolerance="10"
   gridtolerance="10"
   guidetolerance="10"
   inkscape:pageopacity="0"
   inkscape:pageshadow="2"
   inkscape:window-width="1920"
   inkscape:window-height="1015"
   id="namedview12"
   showgrid="false"
   inkscape:zoom="0.6002692"
   inkscape:cx="-110.70383"
   inkscape:cy="500.11115"
   inkscape:window-x="1920"
   inkscape:window-y="0"
   inkscape:window-maximized="1"
   inkscape:current-layer="svg10"
   showguides="true"
   inkscape:guide-bbox="true"
   inkscape:document-rotation="0"><sodipodi:guide
     position="0,1000"
     orientation="0,1"
     id="guide16"
     inkscape:label=""
     inkscape:locked="true"
     inkscape:color="rgb(0,0,255)" /><sodipodi:guide
     position="1763.3122,2036.1693"
     orientation="1000,0"
     id="guide18" /><sodipodi:guide
     position="0,200"
     orientation="0,1"
     id="guide20"
     inkscape:label="base"
     inkscape:locked="true"
     inkscape:color="rgb(0,0,255)" /><inkscape:grid
     type="xygrid"
     id="grid24"
     originx="-473.37552"
     originy="-489.69235" /><sodipodi:guide
     position="0,0"
     orientation="0,1"
     id="guide34"
     inkscape:label="bottom"
     inkscape:locked="true"
     inkscape:color="rgb(0,0,255)" /><sodipodi:guide
     position="225.05109,1693.3186"
     orientation="0,1"
     id="guide44"
     inkscape:label=""
     inkscape:locked="false"
     inkscape:color="rgb(0,0,255)" /><sodipodi:guide
     position="0,900"
     orientation="0,1"
     id="guide46"
     inkscape:label=""
     inkscape:locked="true"
     inkscape:color="rgb(0,0,255)" /><sodipodi:guide
     position="866.34048,384.46991"
     orientation="1,0"
     id="guide841" /></sodipodi:namedview>
 <defs
   id="defs4"><inkscape:path-effect
   effect="spiro"
   id="path-effect867"
   is_visible="true"
   lpeversion="1" />
  <style
   type="text/css"
   id="style2">
   <![CDATA[
    .fil0 {fill:#EF7F1A;fill-rule:nonzero}
   ]]>
  </style>
 <inkscape:path-effect
   effect="spiro"
   id="path-effect1214"
   is_visible="true"
   lpeversion="1" /><inkscape:path-effect
   effect="spiro"
   id="path-effect1195"
   is_visible="true"
   lpeversion="1" /><inkscape:path-effect
   effect="spiro"
   id="path-effect992"
   is_visible="true"
   lpeversion="1" /><inkscape:path-effect
   effect="spiro"
   id="path-effect1078"
   is_visible="true"
   lpeversion="1" /></defs>
 
<path
   style="display:inline;fill:#1a1a1a;stroke:none;stroke-width:1.92017px;stroke-linecap:butt;stroke-linejoin:miter;stroke-opacity:1"
   d="m 763.30176,78.88524 c -8.00317,23.33895 -12.94145,47.72687 -14.6482,72.34077 -6.52257,94.06512 33.59454,184.20438 69.12809,271.54371 19.48385,47.89013 38.02991,97.10463 41.86788,148.66387 1.91898,25.77962 0.0693,51.9781 -7.07938,76.82096 -7.14867,24.84286 -19.71496,48.30932 -37.65433,66.9225 -20.10171,20.85674 -46.67487,35.19781 -74.95083,41.48689 -28.27596,6.28908 -58.15472,4.62409 -85.85413,-3.85089 -32.65458,-9.99108 -62.34639,-29.46727 -84.51831,-55.43936 -22.17192,-25.97209 -36.74859,-58.35181 -41.49279,-92.1695 -2.16015,20.26866 -6.54908,40.29901 -13.06224,59.61387 -13.19328,39.12487 -35.41449,75.50468 -66.00447,103.23681 -30.58997,27.73214 -69.71103,46.49887 -110.80824,50.47849 -47.67128,4.61621 -97.31222,-11.5287 -132.01802,-44.53428 -34.7058,-33.00557 -53.39792,-82.59141 -47.48607,-130.11941 5.35986,-43.09031 29.35928,-81.6261 56.62189,-115.42334 27.26262,-33.79723 58.44749,-64.58424 82.23092,-100.914 16.88114,-25.78635 30.01007,-54.82543 32.40634,-85.55272 1.19813,-15.36365 -0.34051,-31.00853 -5.22518,-45.62418 -4.88467,-14.61565 -13.17083,-28.17532 -24.4647,-38.65987 -12.40501,-11.51606 -28.29722,-19.13316 -44.97417,-22.02856 -16.67695,-2.89541 -34.08367,-1.11468 -49.98791,4.67836 -26.22645,9.55285 -47.74888,29.66531 -62.60704,53.29407 -14.85815,23.62876 -23.51059,50.66981 -29.30043,77.97477 -17.688433,83.41885 -9.69337,170.33592 7.23019,253.9133 8.28335,40.90749 18.7143,81.63695 20.92784,123.31592 1.25956,23.7164 -0.16928,47.57455 -4.25037,70.97111 H -6.6636769 C 10.954162,792.73156 24.837604,763.21382 34.471843,732.36583 53.809118,670.44957 55.775993,604.19268 49.157223,539.66559 44.492365,494.1874 35.664495,449.19784 31.519987,403.66928 27.375479,358.14072 28.066455,311.3898 42.025823,267.85633 c 13.82736,-43.12179 40.921003,-82.16752 77.554357,-108.78859 36.63336,-26.62108 82.76939,-40.3874 127.88145,-36.43937 44.05463,3.85549 86.44027,24.71702 116.21216,57.41732 29.7719,32.7003 46.58873,76.93604 45.8481,121.15285 -0.71856,42.8988 -17.25466,84.15804 -38.87384,121.21792 -21.61918,37.05988 -48.38402,70.82655 -72.12938,106.56142 -11.06284,16.64869 -21.57383,33.94586 -27.64135,52.99187 -6.06752,19.04601 -7.39879,40.17793 -0.18457,58.81983 7.64792,19.76259 24.84594,35.41726 45.03575,41.85328 13.27024,4.23023 27.6408,4.63823 41.29406,1.88455 13.65326,-2.75367 26.59652,-8.60774 38.11615,-16.43668 23.03926,-15.65789 40.05437,-38.77555 53.58541,-63.12484 33.52691,-60.33214 47.9402,-131.56559 37.8277,-199.84266 -4.11517,-27.78456 -12.19,-54.97962 -23.90458,-80.50774 l 135.12671,-9.44142 c -26.09862,42.7588 -39.52288,93.14816 -38.15639,143.22395 0.84171,30.84471 7.31022,61.82295 21.43975,89.25397 14.12953,27.43102 36.21614,51.16111 63.88191,64.82529 16.11988,7.96164 34.10874,12.45241 52.07307,11.73067 17.96433,-0.72174 35.86407,-6.82166 49.77888,-18.20656 10.69377,-8.74949 18.84786,-20.41932 24.13462,-33.18492 5.28676,-12.76559 7.76325,-26.6048 8.04433,-40.41897 0.56217,-27.62833 -7.4913,-54.7126 -17.32524,-80.53768 -24.07561,-63.22539 -59.34185,-122.07599 -102.92921,-173.81791 -28.3232,-33.62206 -60.15508,-64.28663 -94.81137,-91.33452 30.39972,-13.57514 60.34678,-28.16393 89.77468,-43.73396 37.42458,-19.801 74.00929,-41.18932 109.62278,-64.08819 z"
   id="path1087-2"
   inkscape:path-effect="#path-effect1078"
   inkscape:original-d="m 763.30176,78.88524 c 0,0 -15.25696,47.74533 -14.6482,72.34077 2.31107,93.37297 57.97095,178.81091 69.12809,271.54371 11.64359,96.77586 58.07144,216.32981 -2.86583,292.40733 -34.41549,42.96623 -108.49989,54.80288 -160.80496,37.636 -61.46747,-20.17404 -126.0111,-147.60886 -126.0111,-147.60886 0,0 -2.68307,42.11818 -13.06224,59.61387 -39.84586,67.16637 -98.74721,155.90453 -176.81271,153.7153 -83.45081,-2.34025 -169.98768,-91.71424 -179.50409,-174.65369 -9.76769,-85.1295 114.07901,-134.3087 138.85281,-216.33734 16.36961,-54.20151 38.62767,-126.0629 2.71646,-169.83677 -20.40908,-24.87759 -65.1958,-29.57288 -94.96208,-17.3502 -49.41158,20.28945 -76.57301,80.10225 -91.90747,131.26884 -24.307777,81.1079 -1.07862,169.64988 7.23019,253.9133 4.09131,41.49182 18.67147,81.68397 20.92784,123.31592 1.28258,23.66469 -4.25037,70.97111 -4.25037,70.97111 H -6.6636769 c 0,0 32.9201899,-56.30723 41.1355199,-87.4587 16.42724,-62.28996 13.08051,-128.30057 14.68538,-192.70024 2.25795,-90.60613 -47.7417099,-190.78227 -7.1314,-271.80926 37.57574,-74.97229 122.073957,-154.37037 205.435807,-145.22796 79.90252,8.76302 150.70394,98.99481 162.06026,178.57017 11.93287,83.61526 -82.14567,148.39958 -111.00322,227.77934 -13.12231,36.09614 -38.77361,74.99765 -27.82592,111.8117 5.84155,19.6435 24.66614,39.60175 45.03575,41.85328 51.02856,5.64037 103.39054,-35.73336 132.99562,-77.67697 39.09553,-55.38941 41.26886,-132.13294 37.8277,-199.84266 -1.42088,-27.95781 -23.90458,-80.50774 -23.90458,-80.50774 l 135.12671,-9.44142 c 0,0 -27.28871,56.85318 -38.15639,143.22395 -10.86767,86.37101 33.82236,125.89217 85.32166,154.07926 29.84176,16.33328 77.40819,17.18439 101.85195,-6.47589 37.08937,-35.90057 26.08245,-103.75915 14.85371,-154.14157 C 746.9971,386.13643 700.49636,330.84811 658.71567,278.04191 631.48728,243.62822 563.9043,186.70739 563.9043,186.70739 c 0,0 60.42303,-28.03372 89.77468,-43.73396 37.32335,-19.9643 109.62278,-64.08819 109.62278,-64.08819 z"
   sodipodi:nodetypes="caaaacaaaaaaaaaccaaaaaaaaaaccsaaaacac" /></svg>
