<?xml version="1.0" encoding="UTF-8"?>
<!DOCTYPE svg PUBLIC "-//W3C//DTD SVG 1.1//EN" "http://www.w3.org/Graphics/SVG/1.1/DTD/svg11.dtd">
<!-- Creator: CorelDRAW X8 -->
<svg xmlns="http://www.w3.org/2000/svg" xml:space="preserve" width="1304px" height="600px" version="1.1" style="shape-rendering:geometricPrecision; text-rendering:geometricPrecision; image-rendering:optimizeQuality; fill-rule:evenodd; clip-rule:evenodd"
viewBox="0 0 1304 600"
 xmlns:xlink="http://www.w3.org/1999/xlink">
 <defs>
  <style type="text/css">
   <![CDATA[
    .fil0 {fill:#EF7F1A;fill-rule:nonzero}
   ]]>
  </style>
 </defs>
 <g id="Layer_x0020_1">
  <metadata id="CorelCorpID_0Corel-Layer"/>
  <path class="fil0" d="M993 600c115,0 228,-48 280,-154 23,-46 31,-95 31,-146 0,-123 -55,-241 -175,-291 -14,-6 -33,-9 -51,-9 -21,0 -43,4 -57,14 -9,6 -13,13 -13,20 0,11 11,21 26,27 91,37 129,150 128,239 0,38 -6,81 -21,116 -23,57 -82,115 -148,115 -83,0 -117,-74 -117,-146l0 -350c0,-28 -51,-35 -72,-35 -20,0 -71,7 -71,35l0 351c0,64 -23,145 -100,145 -40,0 -79,-46 -91,-79 -18,-47 -19,-103 -19,-152 0,-66 1,-130 -28,-190 -41,-85 -123,-110 -213,-110 -118,0 -213,52 -257,162 -18,44 -25,91 -25,138 1,128 66,243 192,290 15,6 34,9 53,9 21,0 43,-4 57,-16 7,-6 10,-12 10,-18 0,-12 -13,-23 -28,-28 -97,-34 -141,-143 -142,-237 0,-38 7,-78 20,-114 18,-50 59,-117 120,-117 41,0 67,36 80,70 18,48 18,110 19,161 1,58 0,109 21,165 35,94 134,135 231,135 61,0 126,-13 174,-52 52,39 122,52 186,52z"/>
 </g>
</svg>
