<?xml version="1.0" encoding="UTF-8" standalone="no"?>
<svg
   xmlns:dc="http://purl.org/dc/elements/1.1/"
   xmlns:cc="http://creativecommons.org/ns#"
   xmlns:rdf="http://www.w3.org/1999/02/22-rdf-syntax-ns#"
   xmlns:svg="http://www.w3.org/2000/svg"
   xmlns="http://www.w3.org/2000/svg"
   xmlns:sodipodi="http://sodipodi.sourceforge.net/DTD/sodipodi-0.dtd"
   xmlns:inkscape="http://www.inkscape.org/namespaces/inkscape"
   xml:space="preserve"
   width="1000"
   height="1000"
   version="1.1"
   style="clip-rule:evenodd;fill-rule:evenodd;image-rendering:optimizeQuality;shape-rendering:geometricPrecision;text-rendering:geometricPrecision"
   viewBox="0 0 1000 1000"
   id="svg10"
   sodipodi:docname="ഡ്ര.svg"
   inkscape:version="1.0.1 (3bc2e813f5, 2020-09-07)"><metadata
   id="metadata14"><rdf:RDF><cc:Work
       rdf:about=""><dc:format>image/svg+xml</dc:format><dc:type
         rdf:resource="http://purl.org/dc/dcmitype/StillImage" /><dc:title /></cc:Work></rdf:RDF></metadata><sodipodi:namedview
   pagecolor="#ffffff"
   bordercolor="#666666"
   borderopacity="1"
   objecttolerance="10"
   gridtolerance="10"
   guidetolerance="10"
   inkscape:pageopacity="0"
   inkscape:pageshadow="2"
   inkscape:window-width="1920"
   inkscape:window-height="1015"
   id="namedview12"
   showgrid="false"
   inkscape:zoom="0.84890884"
   inkscape:cx="310.18848"
   inkscape:cy="602.02278"
   inkscape:window-x="1920"
   inkscape:window-y="0"
   inkscape:window-maximized="1"
   inkscape:current-layer="svg10"
   showguides="true"
   inkscape:guide-bbox="true"
   inkscape:document-rotation="0"><sodipodi:guide
     position="0,1000"
     orientation="0,1"
     id="guide16"
     inkscape:label=""
     inkscape:locked="true"
     inkscape:color="rgb(0,0,255)" /><sodipodi:guide
     position="1763.3122,2036.1693"
     orientation="1000,0"
     id="guide18" /><sodipodi:guide
     position="0,200"
     orientation="0,1"
     id="guide20"
     inkscape:label="base"
     inkscape:locked="true"
     inkscape:color="rgb(0,0,255)" /><inkscape:grid
     type="xygrid"
     id="grid24"
     originx="-473.37552"
     originy="-489.69235" /><sodipodi:guide
     position="0,0"
     orientation="0,1"
     id="guide34"
     inkscape:label="bottom"
     inkscape:locked="true"
     inkscape:color="rgb(0,0,255)" /><sodipodi:guide
     position="225.05109,1693.3186"
     orientation="0,1"
     id="guide44"
     inkscape:label=""
     inkscape:locked="false"
     inkscape:color="rgb(0,0,255)" /><sodipodi:guide
     position="0,900"
     orientation="0,1"
     id="guide46"
     inkscape:label=""
     inkscape:locked="true"
     inkscape:color="rgb(0,0,255)" /><sodipodi:guide
     position="866.34048,384.46991"
     orientation="1,0"
     id="guide841" /></sodipodi:namedview>
 <defs
   id="defs4"><inkscape:path-effect
   effect="spiro"
   id="path-effect867"
   is_visible="true"
   lpeversion="1" />
  <style
   type="text/css"
   id="style2">
   <![CDATA[
    .fil0 {fill:#EF7F1A;fill-rule:nonzero}
   ]]>
  </style>
 <inkscape:path-effect
   effect="spiro"
   id="path-effect1214"
   is_visible="true"
   lpeversion="1" /><inkscape:path-effect
   effect="spiro"
   id="path-effect1195"
   is_visible="true"
   lpeversion="1" /><inkscape:path-effect
   effect="spiro"
   id="path-effect992"
   is_visible="true"
   lpeversion="1" /><inkscape:path-effect
   effect="spiro"
   id="path-effect1078"
   is_visible="true"
   lpeversion="1" /></defs>
 
<path
   style="display:inline;fill:#1a1a1a;stroke:none;stroke-width:1.92017px;stroke-linecap:butt;stroke-linejoin:miter;stroke-opacity:1"
   d="m 384.80366,973.0525 c 47.43422,2.27146 95.24354,1.47782 142.00311,-6.81122 46.75956,-8.28905 92.57749,-24.28399 132.06345,-50.66625 54.11747,-36.15819 94.93538,-91.7708 113.20659,-154.23902 -41.15046,18.24724 -89.34771,19.99511 -131.71181,4.77653 -32.21612,-11.57309 -60.92756,-32.7147 -81.5421,-60.04336 -20.61455,-27.32866 -33.05585,-60.74316 -35.334,-94.89905 -3.37907,20.10141 -8.96846,39.83048 -16.63504,58.71721 -15.5297,38.25765 -39.90523,73.23061 -72.1126,99.06672 -32.20737,25.83611 -72.38944,42.20842 -113.6519,43.7012 -47.86284,1.73156 -96.43907,-17.37906 -129.09023,-52.41834 -32.65116,-35.03927 -48.31769,-85.66221 -39.54976,-132.74695 7.9493,-42.6886 34.22925,-79.70682 63.48106,-111.79793 29.25181,-32.09112 62.23746,-60.94038 88.17077,-95.76813 18.40745,-24.72072 33.26642,-52.91467 37.51277,-83.44197 2.12318,-15.26366 1.53116,-30.97328 -2.46348,-45.85716 -3.99465,-14.88388 -11.44892,-28.91866 -22.09128,-40.06438 -11.68867,-12.24152 -27.09294,-20.80065 -43.56432,-24.69597 -16.47139,-3.89531 -33.95234,-3.16924 -50.17801,1.64817 -26.7613,7.94544 -49.47349,26.71011 -65.7383,49.39829 -16.26481,22.68818 -26.53123,49.16658 -33.92139,76.08652 -22.56884,82.21094 -19.40725,169.38738 -8.10195,253.88698 5.53302,41.35566 12.98475,82.63233 13.44989,124.35389 0.21453,19.24213 -1.06389,38.50072 -3.81997,57.54566 L 34.045598,765.72626 C 39.78475,747.48261 44.333481,728.86456 47.653268,710.02981 58.867471,646.40623 55.952483,581.124 49.372848,516.8556 44.705616,471.26713 38.208541,425.77257 37.311974,379.95459 36.415407,334.1366 41.323788,287.53512 58.653092,245.11122 75.734086,203.29521 105.08742,166.2422 143.09645,141.8362 c 38.00903,-24.406 84.66759,-35.70787 129.38004,-29.29415 43.81295,6.28469 84.96231,29.67064 112.70282,64.1603 27.74051,34.48965 41.76387,79.73715 38.28883,123.86193 -3.36819,42.7681 -22.36433,82.93734 -46.16712,118.62882 -23.80279,35.69148 -52.52916,67.79846 -78.37616,102.0386 -12.04293,15.95355 -23.57746,32.58475 -30.78374,51.22925 -7.20628,18.6445 -9.81248,39.6569 -3.73726,58.7 6.44063,20.18847 22.66363,36.85212 42.42865,44.49411 12.99092,5.02283 27.31062,6.29689 41.10508,4.37187 13.79446,-1.92502 27.06727,-6.98752 39.03823,-14.10714 23.94192,-14.23924 42.32089,-36.28797 57.29641,-59.77638 37.10615,-58.1993 55.79052,-128.43361 49.81559,-197.19642 -2.43143,-27.98222 -8.85083,-55.6149 -19.00388,-81.80329 l 135.45018,-1.27183 c -28.63078,41.10634 -45.07066,90.594 -46.7278,140.66102 -1.02073,30.8393 3.56703,62.15137 16.01587,90.38487 12.44884,28.23351 33.06355,53.25289 59.85454,68.5613 15.61017,8.91967 33.29533,14.48756 51.27048,14.85095 17.97515,0.36339 36.2103,-4.6455 50.78664,-15.17016 11.20216,-8.08838 20.04546,-19.245 26.09275,-31.66839 6.0473,-12.42338 9.35422,-26.08797 10.46822,-39.86002 2.228,-27.54409 -4.17677,-55.0649 -12.43473,-81.43623 -20.21727,-64.56274 -51.86873,-125.43379 -92.25503,-179.71115 -26.24314,-35.2696 -56.167,-67.79877 -89.12831,-96.88826 31.16335,-11.71635 61.93602,-24.47181 92.24968,-38.23805 C 715.27746,139.8507 753.08591,120.70854 790.01605,100 c -9.61385,22.73424 -16.0252,46.82003 -18.98594,71.32525 -5.64499,46.72205 1.27193,94.15948 12.67706,139.81842 11.40513,45.65894 27.2645,90.07923 39.94248,135.40124 20.2888,72.52962 32.41659,147.90127 28.68433,223.12262 -3.73227,75.22135 -23.85082,150.43945 -64.28715,213.97751 -36.4019,57.19871 -88.70821,103.82535 -148.6925,135.42716 -59.98429,31.6018 -127.46161,48.3213 -195.22201,50.6273 -108.50783,3.6928 -216.81438,-29.5392 -309.03633,-86.83405 C 75.572839,945.88544 22.632287,899.36967 -29.438144,852.47407 -58.658346,826.15781 -87.703752,799.64747 -116.5718,772.94539 L 0.65960414,657.22763 c 1.04552626,29.55056 6.34375396,58.94738 15.68076786,87.00356 24.024278,72.18897 75.509812,134.73448 141.379608,172.80787 68.15416,39.39378 148.45366,52.24812 227.08368,56.01344 z"
   id="path1087-2"
   inkscape:path-effect="#path-effect1078"
   inkscape:original-d="m 384.80366,973.0525 c 93.32855,1.63865 195.59103,-6.93545 274.06656,-57.47747 53.6172,-34.53205 111.0827,-161.76496 113.20659,-154.23902 -39.28167,19.64346 -92.42043,20.35612 -131.71181,4.77653 -60.13837,-23.84571 -116.8761,-154.94241 -116.8761,-154.94241 0,0 -5.21923,41.87958 -16.63504,58.71721 -43.82552,64.64006 -107.97328,149.66297 -185.7645,142.76792 -83.1576,-7.3707 -164.14477,-101.80278 -168.63999,-185.16529 -4.61391,-85.56372 121.97425,-127.18149 151.65183,-207.56606 19.60985,-53.11518 46.16287,-123.5028 12.95801,-169.36351 -18.871,-26.06358 -63.29286,-33.45237 -93.74233,-23.0478 -50.54566,17.27142 -81.26621,75.33658 -99.65969,125.48481 -29.15686,79.49363 -11.31189,169.27577 -8.10195,253.88698 1.5806,41.66307 12.58576,82.6698 13.44989,124.35389 0.39844,19.21997 -3.81997,57.54566 -3.81997,57.54566 L 34.045598,765.72626 c 0,0 11.238921,-36.73226 13.60767,-55.69645 7.981199,-63.89743 0.333966,-128.79516 1.71958,-193.17421 C 51.323094,426.24232 13.228281,323.54053 58.653092,245.11122 100.68357,172.5425 189.81807,98.38696 272.47649,112.54205 c 79.22829,13.5677 144.45692,107.90668 150.99165,188.02223 6.8665,84.18287 -90.9492,143.17328 -124.54328,220.66742 -15.27614,35.2387 -43.2277,72.52177 -34.521,109.92925 4.64579,19.96015 22.23198,41.01775 42.42865,44.49411 50.59531,8.70873 105.35805,-29.43056 137.43972,-69.51165 42.36604,-52.92982 49.16546,-129.40243 49.81559,-197.19642 0.26845,-27.99261 -19.00388,-81.80329 -19.00388,-81.80329 l 135.45018,-1.27183 c 0,0 -30.66904,55.10325 -46.7278,140.66102 -16.05876,85.55802 26.16549,127.7034 75.87041,158.94617 28.80199,18.10393 76.23042,21.82324 102.05712,-0.31921 C 780.92159,591.56233 774.02873,523.1633 765.86009,472.19521 755.20418,405.70782 712.12377,347.71475 673.60506,292.48406 648.5025,256.49033 584.47675,195.5958 584.47675,195.5958 c 0,0 62.00428,-24.33724 92.24968,-38.23805 C 715.18627,139.68159 790.01605,100 790.01605,100 c 0,0 -18.10971,46.73789 -18.98594,71.32525 -3.32647,93.34231 47.59517,181.95333 52.61954,275.21966 7.86363,145.97091 44.27439,314.67066 -35.60282,437.10013 C 716.82708,992.80505 573.66898,1055.2629 444.13232,1069.6995 337.78935,1081.5512 230.39633,1031.5187 135.09599,982.86545 72.769569,951.04626 23.859882,897.82122 -29.438144,852.47407 -59.388157,826.99193 -116.89839,831.08666 -116.5718,772.94539 L 0.65960414,657.22763 c -1.211612,1.33842 3.34246366,60.24247 15.68076786,87.00356 31.161102,67.58667 78.46069,133.05636 141.379608,172.80787 65.91085,41.64178 149.13238,54.64479 227.08368,56.01344 z"
   sodipodi:nodetypes="aacscaaaaaaaaaccaaaaaaaaaaccsaaaacacaaaaaaccaaa" /></svg>
