<?xml version="1.0" encoding="UTF-8"?>
<!DOCTYPE svg PUBLIC "-//W3C//DTD SVG 1.1//EN" "http://www.w3.org/Graphics/SVG/1.1/DTD/svg11.dtd">
<!-- Creator: CorelDRAW X8 -->
<svg xmlns="http://www.w3.org/2000/svg" xml:space="preserve" width="2280px" height="1486px" version="1.1" style="shape-rendering:geometricPrecision; text-rendering:geometricPrecision; image-rendering:optimizeQuality; fill-rule:evenodd; clip-rule:evenodd"
viewBox="0 0 2280 1486"
 xmlns:xlink="http://www.w3.org/1999/xlink">
 <defs>
  <style type="text/css">
   <![CDATA[
    .fil0 {fill:#EF7F1A;fill-rule:nonzero}
   ]]>
  </style>
 </defs>
 <g id="Layer_x0020_1">
  <metadata id="CorelCorpID_0Corel-Layer"/>
  <path class="fil0" d="M1866 524c-108,0 -154,-116 -154,-207 0,-88 48,-206 154,-206 110,0 155,116 155,207 0,90 -47,206 -155,206zm-144 500c115,0 224,-27 314,-84 -41,135 -171,300 -306,365 0,-95 -131,-144 -208,-161 -64,-15 -131,-20 -197,-20 -71,0 -146,6 -216,23 -73,19 -194,68 -194,157 0,88 117,138 189,157 72,19 149,25 221,25 93,0 188,-6 280,-24 89,-18 178,-46 256,-92 152,-90 274,-208 345,-370 56,-126 74,-263 74,-399 0,-177 -33,-408 -176,-523 -67,-54 -142,-78 -228,-78 -87,0 -182,25 -250,81 -73,59 -109,154 -109,246 0,79 24,154 81,213 65,67 163,101 257,101 76,0 151,-24 207,-76 -6,52 -21,104 -45,151 -57,113 -162,197 -295,197 -172,0 -297,-106 -297,-283l0 -574c0,-42 -69,-56 -102,-56 -32,0 -101,14 -101,56l0 598c0,124 -40,259 -185,259 -79,0 -145,-72 -169,-139 -32,-88 -30,-182 -31,-274 -1,-105 -2,-217 -47,-314 -63,-137 -190,-186 -337,-186 -194,0 -343,98 -412,275 -29,72 -41,148 -41,225 0,221 107,422 317,510 21,9 46,14 71,14 30,0 59,-8 81,-26 12,-10 17,-21 17,-31 0,-19 -20,-37 -45,-46 -166,-59 -239,-260 -239,-421 -1,-64 11,-123 33,-185 32,-95 102,-204 218,-204 80,0 126,55 151,124 29,82 29,179 30,265 0,100 1,200 36,295 55,153 208,229 367,229 113,0 226,-30 305,-116 101,88 250,116 380,116zm-396 357c-151,0 -222,-39 -222,-77 0,-39 79,-76 222,-76 142,0 216,40 216,76 0,37 -67,77 -216,77z"/>
 </g>
</svg>
