<?xml version="1.0" encoding="UTF-8"?>
<!DOCTYPE svg PUBLIC "-//W3C//DTD SVG 1.1//EN" "http://www.w3.org/Graphics/SVG/1.1/DTD/svg11.dtd">
<!-- Creator: CorelDRAW X8 -->
<svg xmlns="http://www.w3.org/2000/svg" xml:space="preserve" width="2859px" height="1486px" version="1.1" style="shape-rendering:geometricPrecision; text-rendering:geometricPrecision; image-rendering:optimizeQuality; fill-rule:evenodd; clip-rule:evenodd"
viewBox="0 0 2859 1486"
 xmlns:xlink="http://www.w3.org/1999/xlink">
 <defs>
  <style type="text/css">
   <![CDATA[
    .fil0 {fill:#EF7F1A;fill-rule:nonzero}
   ]]>
  </style>
 </defs>
 <g id="Layer_x0020_1">
  <metadata id="CorelCorpID_0Corel-Layer"/>
  <path class="fil0" d="M2515 719c94,0 140,99 140,181 0,221 -204,329 -389,384 -261,79 -569,90 -842,90 -251,0 -609,-44 -830,-165 -250,-137 -391,-360 -391,-647 0,-180 79,-369 234,-470 17,-11 24,-24 24,-36 0,-17 -14,-33 -36,-43 -19,-9 -42,-13 -66,-13 -28,0 -56,6 -77,20 -183,119 -282,327 -282,542 0,326 171,572 452,726 273,150 662,198 972,198 292,0 606,-12 890,-85 253,-65 545,-199 545,-498 0,-168 -93,-307 -273,-307 -54,0 -107,14 -161,14 -56,0 -104,-25 -104,-89 0,-54 32,-84 85,-84 63,0 127,24 193,24 117,0 217,-56 217,-186 0,-232 -304,-275 -488,-275 -146,0 -312,25 -430,120 -75,-87 -197,-120 -308,-120 -113,0 -224,39 -303,120 -102,-89 -255,-119 -389,-119 -202,0 -389,83 -484,269 -43,84 -61,176 -61,270 0,145 44,310 162,405 69,56 150,79 238,79 86,0 174,-27 240,-81 73,-59 109,-154 109,-246 0,-79 -24,-154 -81,-213 -65,-67 -163,-101 -257,-101 -77,0 -150,24 -207,76 7,-52 22,-104 46,-151 58,-115 162,-197 295,-197 173,0 297,101 297,280l0 578c0,41 69,55 101,55 33,0 101,-14 101,-55l0 -599c0,-116 54,-258 193,-258 137,0 191,142 191,257l0 599c0,41 70,56 102,56 32,0 101,-15 101,-56l0 -574c0,-228 153,-283 344,-283 101,0 300,46 299,164 0,39 -12,63 -57,63 -66,0 -138,-27 -211,-28 -45,-1 -89,7 -131,32 -66,39 -93,104 -93,179 0,76 39,142 105,179 39,22 86,33 136,33 49,0 92,-14 139,-14zm-1762 194c-109,0 -154,-114 -154,-207 0,-90 46,-206 154,-206 109,0 154,116 154,206 0,89 -47,207 -154,207z"/>
 </g>
</svg>
