<?xml version="1.0" encoding="UTF-8"?>
<!DOCTYPE svg PUBLIC "-//W3C//DTD SVG 1.1//EN" "http://www.w3.org/Graphics/SVG/1.1/DTD/svg11.dtd">
<!-- Creator: CorelDRAW X8 -->
<svg xmlns="http://www.w3.org/2000/svg" xml:space="preserve" width="1721px" height="825px" version="1.1" style="shape-rendering:geometricPrecision; text-rendering:geometricPrecision; image-rendering:optimizeQuality; fill-rule:evenodd; clip-rule:evenodd"
viewBox="0 0 1721 825"
 xmlns:xlink="http://www.w3.org/1999/xlink">
 <defs>
  <style type="text/css">
   <![CDATA[
    .fil0 {fill:#EF7F1A;fill-rule:nonzero}
   ]]>
  </style>
 </defs>
 <g id="Layer_x0020_1">
  <metadata id="CorelCorpID_0Corel-Layer"/>
  <path class="fil0" d="M1721 468c0,-175 -99,-315 -276,-353 -77,-85 -182,-115 -294,-115 -72,0 -164,19 -222,61 -50,-44 -111,-61 -177,-61 -65,0 -133,19 -182,63 -65,-49 -155,-63 -234,-63 -122,0 -240,48 -299,160 -25,48 -37,103 -37,158 0,86 27,182 98,237 44,35 97,49 153,48 54,0 111,-15 154,-49 46,-37 65,-91 65,-148 0,-45 -15,-88 -48,-121 -43,-43 -105,-61 -165,-61 -40,0 -76,8 -111,29 5,-25 13,-48 25,-70 32,-62 92,-113 165,-113 100,0 169,59 169,162l0 336c0,28 51,35 71,35 21,0 71,-7 71,-35l0 -350c0,-60 32,-148 105,-148 74,0 105,88 105,148l0 350c0,27 51,35 71,35 21,0 72,-8 72,-35l0 -350c0,-90 62,-149 151,-149 46,0 93,17 130,44 -72,13 -140,45 -185,103 -36,46 -56,104 -56,162 0,47 13,95 41,134 46,65 124,91 201,91 80,0 155,-30 199,-100 31,-48 45,-105 45,-161 1,-25 -2,-49 -6,-73 41,57 59,131 59,201 0,132 -73,286 -224,286 -42,0 -86,-13 -120,-39 -14,-11 -37,-15 -59,-15 -17,0 -33,3 -45,7 -15,6 -28,16 -28,28 0,6 4,13 12,19 66,50 159,69 242,69 217,0 364,-138 364,-357zm-443 66c-35,0 -60,-27 -75,-56 -14,-29 -19,-68 -19,-100 0,-49 14,-96 43,-135 28,-38 66,-61 113,-66 30,47 43,109 43,164 1,45 -11,102 -33,141 -15,27 -39,52 -72,52zm-1027 0c-22,1 -42,-15 -55,-31 -21,-24 -28,-57 -28,-88 0,-49 28,-118 82,-118 53,0 83,68 83,117 0,53 -32,118 -82,120z"/>
 </g>
</svg>
