<?xml version="1.0" encoding="UTF-8"?>
<!DOCTYPE svg PUBLIC "-//W3C//DTD SVG 1.1//EN" "http://www.w3.org/Graphics/SVG/1.1/DTD/svg11.dtd">
<!-- Creator: CorelDRAW X8 -->
<svg xmlns="http://www.w3.org/2000/svg" xml:space="preserve" width="2482px" height="1024px" version="1.1" style="shape-rendering:geometricPrecision; text-rendering:geometricPrecision; image-rendering:optimizeQuality; fill-rule:evenodd; clip-rule:evenodd"
viewBox="0 0 2482 1024"
 xmlns:xlink="http://www.w3.org/1999/xlink">
 <defs>
  <style type="text/css">
   <![CDATA[
    .fil0 {fill:#EF7F1A;fill-rule:nonzero}
   ]]>
  </style>
 </defs>
 <g id="Layer_x0020_1">
  <metadata id="CorelCorpID_0Corel-Layer"/>
  <path class="fil0" d="M943 1024c33,0 101,-14 101,-55l0 -599c0,-116 50,-258 190,-258 134,0 195,138 195,257l0 575c0,42 69,56 102,56l850 0c32,0 101,-14 101,-56l0 -514c0,-116 -43,-221 -132,-299 -106,-94 -254,-131 -394,-131 -142,0 -294,39 -401,136 -80,-100 -197,-136 -321,-136 -113,0 -221,39 -300,120 -105,-93 -257,-120 -392,-119 -201,0 -388,88 -481,269 -43,84 -61,176 -61,270 0,145 44,310 163,405 69,56 149,80 238,79 85,0 173,-27 239,-81 73,-59 109,-154 109,-246 0,-79 -24,-154 -81,-213 -65,-67 -163,-101 -257,-101 -77,0 -150,24 -207,76 7,-52 22,-104 46,-151 57,-112 160,-197 292,-197 174,-1 300,98 300,280l0 578c0,41 69,55 101,55zm1336 -135l-395 0c158,-115 291,-313 290,-524 0,-87 -27,-172 -93,-232 134,46 198,168 198,297l0 459zm-647 0l0 -459c0,-92 29,-178 100,-240 28,-24 64,-43 102,-43 104,1 139,134 139,217 0,207 -157,435 -341,525zm-1232 24c-109,0 -154,-114 -154,-207 0,-90 46,-206 155,-206 108,0 153,116 153,206 0,89 -47,207 -154,207z"/>
 </g>
</svg>
