<?xml version="1.0" encoding="UTF-8"?>
<!DOCTYPE svg PUBLIC "-//W3C//DTD SVG 1.1//EN" "http://www.w3.org/Graphics/SVG/1.1/DTD/svg11.dtd">
<!-- Creator: CorelDRAW X8 -->
<svg xmlns="http://www.w3.org/2000/svg" xml:space="preserve" width="3532px" height="1024px" version="1.1" style="shape-rendering:geometricPrecision; text-rendering:geometricPrecision; image-rendering:optimizeQuality; fill-rule:evenodd; clip-rule:evenodd"
viewBox="0 0 3532 1024"
 xmlns:xlink="http://www.w3.org/1999/xlink">
 <defs>
  <style type="text/css">
   <![CDATA[
    .fil0 {fill:#EF7F1A;fill-rule:nonzero}
   ]]>
  </style>
 </defs>
 <g id="Layer_x0020_1">
  <metadata id="CorelCorpID_0Corel-Layer"/>
  <path class="fil0" d="M3030 1024c190,0 368,-90 450,-262 36,-76 52,-178 52,-262 0,-210 -89,-400 -291,-487 -20,-9 -44,-13 -68,-13 -28,0 -57,7 -78,22 -15,11 -21,22 -21,33 0,18 17,36 40,45 156,64 215,246 215,400 0,66 -11,151 -35,212 -43,107 -141,201 -264,201 -152,0 -212,-121 -212,-254l0 -603c0,-42 -70,-56 -102,-56 -32,0 -101,14 -101,56l0 603c0,121 -42,254 -185,254 -79,0 -145,-72 -169,-139 -32,-87 -31,-182 -31,-274 -1,-105 -3,-217 -47,-314 -65,-140 -196,-186 -338,-186 -116,0 -232,36 -316,117 -79,-80 -180,-117 -292,-117 -112,0 -224,39 -303,120 -102,-89 -255,-119 -389,-119 -201,0 -389,83 -484,269 -43,84 -61,176 -61,270 0,145 44,310 162,405 69,56 150,80 238,79 86,0 174,-27 240,-81 73,-59 109,-153 109,-246 0,-79 -24,-154 -81,-213 -65,-67 -163,-101 -257,-101 -76,0 -150,24 -207,76 7,-52 22,-104 46,-151 59,-115 162,-197 295,-197 173,0 297,101 297,280l0 578c0,41 69,55 101,55 33,0 101,-14 101,-55l0 -599c0,-116 54,-258 193,-258 138,0 192,143 192,257l0 599c0,41 68,56 102,56 32,0 100,-15 100,-56l0 -599c0,-133 62,-257 214,-257 79,0 124,47 152,123 29,82 29,179 30,265 0,100 1,200 36,295 55,153 208,229 367,229 106,0 214,-27 291,-101 83,75 199,101 309,101zm-2630 -111c-109,0 -155,-116 -155,-207 1,-90 47,-206 155,-206 108,0 154,116 154,206 0,89 -47,207 -154,207z"/>
 </g>
</svg>
