<?xml version="1.0" encoding="UTF-8"?>
<!DOCTYPE svg PUBLIC "-//W3C//DTD SVG 1.1//EN" "http://www.w3.org/Graphics/SVG/1.1/DTD/svg11.dtd">
<!-- Creator: CorelDRAW X8 -->
<svg xmlns="http://www.w3.org/2000/svg" xml:space="preserve" width="2834px" height="1412px" version="1.1" style="shape-rendering:geometricPrecision; text-rendering:geometricPrecision; image-rendering:optimizeQuality; fill-rule:evenodd; clip-rule:evenodd"
viewBox="0 0 2834 1412"
 xmlns:xlink="http://www.w3.org/1999/xlink">
 <defs>
  <style type="text/css">
   <![CDATA[
    .fil0 {fill:#EF7F1A;fill-rule:nonzero}
   ]]>
  </style>
 </defs>
 <g id="Layer_x0020_1">
  <metadata id="CorelCorpID_0Corel-Layer"/>
  <path class="fil0" d="M1529 117c-78,-78 -182,-117 -292,-117 -112,0 -224,39 -303,120 -102,-89 -255,-119 -389,-119 -202,0 -388,83 -484,269 -43,84 -61,176 -61,270 0,145 45,309 163,405 69,55 149,80 238,79 85,0 173,-27 239,-81 73,-59 109,-154 109,-246 0,-79 -24,-154 -81,-213 -65,-67 -163,-101 -257,-101 -76,0 -150,24 -207,76 7,-52 22,-104 46,-151 59,-115 162,-197 295,-197 173,0 297,101 297,280l0 578c0,41 69,55 101,55 33,0 101,-14 101,-55l0 -599c0,-116 54,-258 193,-258 138,0 192,143 192,257l0 599c0,41 70,56 102,56 32,0 100,-15 100,-56l0 -598c0,-160 111,-260 270,-260 84,0 170,30 236,80 -123,21 -236,78 -311,176 -61,79 -92,179 -92,276 0,80 21,162 67,229 72,106 191,153 316,153 131,0 248,-55 317,-167 53,-86 74,-187 74,-287 0,-58 -7,-114 -22,-168 104,104 146,257 146,402 0,237 -127,496 -395,496 -76,0 -154,-22 -213,-69 -21,-16 -52,-23 -82,-23 -21,0 -42,4 -59,10 -25,10 -44,27 -44,46 0,10 6,21 19,31 104,82 242,117 375,117 367,0 601,-250 601,-613 0,-288 -154,-539 -458,-603 -122,-141 -298,-196 -484,-196 -123,0 -267,35 -363,117zm586 796c-53,0 -97,-39 -125,-81 -38,-55 -53,-124 -53,-190 0,-82 23,-166 75,-233 52,-68 130,-112 218,-116 54,84 76,183 76,281 0,85 -19,174 -64,247 -27,44 -70,92 -127,92zm-1715 0c-109,0 -154,-114 -154,-207 0,-90 46,-206 154,-206 109,0 154,116 154,206 0,89 -47,207 -154,207z"/>
 </g>
</svg>
