<?xml version="1.0" encoding="UTF-8"?>
<!DOCTYPE svg PUBLIC "-//W3C//DTD SVG 1.1//EN" "http://www.w3.org/Graphics/SVG/1.1/DTD/svg11.dtd">
<!-- Creator: CorelDRAW X8 -->
<svg xmlns="http://www.w3.org/2000/svg" xml:space="preserve" width="3895px" height="1486px" version="1.1" style="shape-rendering:geometricPrecision; text-rendering:geometricPrecision; image-rendering:optimizeQuality; fill-rule:evenodd; clip-rule:evenodd"
viewBox="0 0 3895 1486"
 xmlns:xlink="http://www.w3.org/1999/xlink">
 <defs>
  <style type="text/css">
   <![CDATA[
    .fil0 {fill:#EF7F1A;fill-rule:nonzero}
   ]]>
  </style>
 </defs>
 <g id="Layer_x0020_1">
  <metadata id="CorelCorpID_0Corel-Layer"/>
  <path class="fil0" d="M3390 1024c68,0 134,-11 195,-34 -105,151 -284,243 -491,299 -366,99 -819,85 -1106,85 -404,0 -1044,14 -1393,-178 -249,-137 -392,-345 -392,-633 0,-179 78,-368 234,-469 17,-11 24,-24 24,-36 0,-17 -14,-33 -36,-43 -21,-10 -44,-15 -68,-15 -26,0 -52,7 -76,22 -182,119 -282,327 -282,541 0,327 173,559 453,713 413,227 1067,210 1536,210 322,0 785,11 1174,-91 245,-64 462,-174 596,-359 108,-150 138,-331 138,-512 0,-94 -16,-184 -49,-264 -46,-107 -124,-195 -246,-247 -20,-9 -44,-13 -68,-13 -28,0 -57,7 -78,22 -15,11 -21,22 -21,33 0,18 17,35 40,45 156,64 215,246 215,400 0,66 -10,151 -35,212 -42,107 -141,201 -264,201 -152,0 -212,-121 -212,-254l0 -603c0,-42 -70,-56 -102,-56 -32,0 -101,14 -101,56l0 603c0,121 -41,254 -185,254 -79,0 -145,-72 -169,-139 -32,-88 -30,-182 -31,-274 0,-105 -2,-217 -47,-314 -65,-140 -195,-186 -338,-186 -115,0 -232,36 -315,117 -79,-81 -180,-117 -292,-117 -113,0 -224,39 -303,120 -102,-89 -255,-119 -389,-119 -202,0 -389,83 -484,269 -43,84 -61,176 -61,270 0,145 44,310 162,405 69,56 150,79 238,79 86,0 174,-27 240,-81 73,-59 109,-154 109,-246 0,-79 -24,-154 -81,-213 -65,-67 -163,-101 -257,-101 -77,0 -150,24 -207,76 7,-52 22,-104 46,-151 58,-115 162,-197 295,-197 173,0 297,101 297,280l0 578c0,41 69,55 101,55 33,0 101,-14 101,-55l0 -599c0,-116 54,-258 193,-258 138,0 191,143 191,257l0 599c0,41 69,56 102,56 32,0 101,-15 101,-56l0 -599c0,-133 61,-257 213,-257 79,0 125,46 152,123 29,82 30,179 30,265 1,100 2,200 36,295 56,153 208,229 367,229 106,0 214,-27 291,-101 83,75 199,101 309,101zm-2629 -111c-109,0 -156,-116 -155,-207 0,-90 47,-206 155,-206 108,0 154,116 154,206 0,89 -47,207 -154,207z"/>
 </g>
</svg>
