<?xml version="1.0" encoding="UTF-8"?>
<!DOCTYPE svg PUBLIC "-//W3C//DTD SVG 1.1//EN" "http://www.w3.org/Graphics/SVG/1.1/DTD/svg11.dtd">
<!-- Creator: CorelDRAW X8 -->
<svg xmlns="http://www.w3.org/2000/svg" xml:space="preserve" width="982px" height="868px" version="1.1" style="shape-rendering:geometricPrecision; text-rendering:geometricPrecision; image-rendering:optimizeQuality; fill-rule:evenodd; clip-rule:evenodd"
viewBox="0 0 982 868"
 xmlns:xlink="http://www.w3.org/1999/xlink">
 <defs>
  <style type="text/css">
   <![CDATA[
    .fil0 {fill:#EF7F1A;fill-rule:nonzero}
   ]]>
  </style>
 </defs>
 <g id="Layer_x0020_1">
  <metadata id="CorelCorpID_0Corel-Layer"/>
  <path class="fil0" d="M881 868c29,0 71,-13 71,-48 0,-35 -41,-48 -71,-48l-681 0c-30,0 -56,-2 -56,-39 0,-33 28,-37 56,-37l373 0c110,0 221,-22 304,-99 68,-64 105,-153 105,-246 0,-93 -33,-184 -99,-251 -69,-69 -167,-100 -263,-100 -47,0 -90,6 -135,19 -43,-13 -90,-19 -135,-19 -124,0 -248,54 -308,165 -28,52 -42,108 -42,167 0,51 11,104 34,149 20,41 51,77 94,101 19,11 44,18 68,18 18,0 36,-3 51,-12 12,-7 17,-15 17,-22 0,-10 -7,-19 -20,-25 -33,-16 -57,-45 -73,-78 -20,-41 -29,-89 -29,-131 0,-52 12,-103 37,-149 34,-62 96,-110 170,-113 10,0 20,0 30,2 -88,65 -136,168 -136,275 0,50 11,103 36,146 43,76 120,107 206,107 87,0 164,-31 208,-107 25,-44 36,-96 36,-146 0,-108 -47,-210 -137,-276 7,0 21,-1 28,-1 67,0 114,32 155,84 42,54 64,125 64,194 0,74 -19,150 -73,204 -51,51 -120,75 -191,75l-375 0c-83,0 -200,14 -200,122 0,74 61,103 129,114 23,4 48,5 71,5l681 0zm-396 -337c-30,0 -56,-34 -69,-57 -22,-38 -30,-84 -30,-127 0,-84 34,-172 100,-227 66,55 100,142 100,227 0,43 -8,89 -30,126 -14,24 -40,58 -71,58z"/>
 </g>
</svg>
