<?xml version="1.0" encoding="UTF-8"?>
<!DOCTYPE svg PUBLIC "-//W3C//DTD SVG 1.1//EN" "http://www.w3.org/Graphics/SVG/1.1/DTD/svg11.dtd">
<!-- Creator: CorelDRAW X8 -->
<svg xmlns="http://www.w3.org/2000/svg" xml:space="preserve" width="2889px" height="1486px" version="1.1" style="shape-rendering:geometricPrecision; text-rendering:geometricPrecision; image-rendering:optimizeQuality; fill-rule:evenodd; clip-rule:evenodd"
viewBox="0 0 2889 1486"
 xmlns:xlink="http://www.w3.org/1999/xlink">
 <defs>
  <style type="text/css">
   <![CDATA[
    .fil0 {fill:#EF7F1A;fill-rule:nonzero}
   ]]>
  </style>
 </defs>
 <g id="Layer_x0020_1">
  <metadata id="CorelCorpID_0Corel-Layer"/>
  <path class="fil0" d="M2740 1486c46,0 101,-28 101,-79 0,-52 -55,-80 -101,-80l-2424 0c-54,0 -111,0 -111,-70 0,-63 59,-67 111,-67l2063 0c153,0 312,-35 420,-150 64,-67 90,-150 90,-240 0,-112 -55,-214 -153,-271 66,-46 104,-115 104,-196 0,-109 -69,-198 -163,-252 -105,-62 -242,-81 -364,-81 -100,0 -203,9 -300,39 -75,-27 -157,-39 -237,-39 -133,0 -281,25 -378,122 -97,-97 -245,-122 -378,-122 -78,0 -152,11 -227,36 -73,-26 -153,-36 -230,-36 -203,0 -397,101 -492,280 -48,90 -72,185 -71,286 0,166 61,340 212,430 29,17 63,28 97,28 24,0 48,-6 69,-19 19,-11 27,-24 27,-37 0,-16 -11,-31 -32,-42 -126,-64 -170,-231 -170,-360 0,-90 19,-175 62,-255 56,-106 173,-199 298,-199 24,0 48,2 72,6 -151,113 -229,290 -229,474 0,85 17,176 59,251 67,122 187,181 327,181 140,0 260,-59 329,-182 42,-75 59,-165 59,-250 0,-182 -78,-364 -229,-474 23,-4 46,-6 69,-6 173,1 277,118 277,285l0 570c0,42 69,56 101,56 32,0 101,-14 101,-56l0 -570c0,-168 103,-285 277,-285 23,0 46,2 69,6 -151,113 -229,289 -229,474 0,84 17,175 59,250 68,122 188,180 327,180 140,0 260,-58 329,-181 42,-75 59,-164 59,-249 0,-183 -79,-356 -226,-470 49,-9 100,-10 149,-10 72,0 155,11 218,47 63,36 112,101 112,174 0,62 -28,143 -101,143 -36,0 -83,12 -83,55 0,44 47,56 82,57 106,2 152,120 152,212 0,58 -21,114 -56,162 -58,80 -158,117 -255,117l-2066 0c-139,0 -316,28 -316,204 0,170 175,203 316,203l2424 0zm-738 -575c-60,0 -107,-53 -134,-101 -36,-65 -50,-145 -50,-218 0,-152 60,-309 184,-404 124,94 186,253 186,404 0,73 -15,152 -51,217 -27,48 -74,102 -135,102zm-1210 1c-61,0 -107,-54 -134,-102 -36,-64 -50,-145 -50,-218 0,-151 63,-310 184,-404 124,94 186,252 186,404 0,74 -15,152 -51,217 -27,49 -75,103 -135,103z"/>
 </g>
</svg>
