<?xml version="1.0" encoding="UTF-8" standalone="no"?>
<svg
   xmlns:dc="http://purl.org/dc/elements/1.1/"
   xmlns:cc="http://creativecommons.org/ns#"
   xmlns:rdf="http://www.w3.org/1999/02/22-rdf-syntax-ns#"
   xmlns:svg="http://www.w3.org/2000/svg"
   xmlns="http://www.w3.org/2000/svg"
   xmlns:sodipodi="http://sodipodi.sourceforge.net/DTD/sodipodi-0.dtd"
   xmlns:inkscape="http://www.inkscape.org/namespaces/inkscape"
   xml:space="preserve"
   width="1000"
   height="1000"
   version="1.1"
   style="clip-rule:evenodd;fill-rule:evenodd;image-rendering:optimizeQuality;shape-rendering:geometricPrecision;text-rendering:geometricPrecision"
   viewBox="0 0 1000 1000"
   id="svg10"
   sodipodi:docname="ത്മ.svg"
   inkscape:version="1.0.1 (3bc2e813f5, 2020-09-07)"><metadata
   id="metadata14"><rdf:RDF><cc:Work
       rdf:about=""><dc:format>image/svg+xml</dc:format><dc:type
         rdf:resource="http://purl.org/dc/dcmitype/StillImage" /><dc:title /></cc:Work></rdf:RDF></metadata><sodipodi:namedview
   pagecolor="#ffffff"
   bordercolor="#666666"
   borderopacity="1"
   objecttolerance="10"
   gridtolerance="10"
   guidetolerance="10"
   inkscape:pageopacity="0"
   inkscape:pageshadow="2"
   inkscape:window-width="1920"
   inkscape:window-height="1015"
   id="namedview12"
   showgrid="false"
   inkscape:zoom="0.84890884"
   inkscape:cx="543.52982"
   inkscape:cy="520.21483"
   inkscape:window-x="1920"
   inkscape:window-y="0"
   inkscape:window-maximized="1"
   inkscape:current-layer="svg10"
   showguides="true"
   inkscape:guide-bbox="true"
   inkscape:document-rotation="0"><sodipodi:guide
   position="0,1000"
   orientation="0,1"
   id="guide16"
   inkscape:label=""
   inkscape:locked="true"
   inkscape:color="rgb(0,0,255)" /><sodipodi:guide
   position="1763.3122,2036.1693"
   orientation="1000,0"
   id="guide18" /><sodipodi:guide
   position="0,200"
   orientation="0,1"
   id="guide20"
   inkscape:label="base"
   inkscape:locked="true"
   inkscape:color="rgb(0,0,255)" /><inkscape:grid
   type="xygrid"
   id="grid24"
   originx="-473.37552"
   originy="-489.69235" /><sodipodi:guide
   position="0,0"
   orientation="0,1"
   id="guide34"
   inkscape:label="bottom"
   inkscape:locked="true"
   inkscape:color="rgb(0,0,255)" /><sodipodi:guide
   position="225.05109,1693.3186"
   orientation="0,1"
   id="guide44"
   inkscape:label=""
   inkscape:locked="false"
   inkscape:color="rgb(0,0,255)" /><sodipodi:guide
   position="0,900"
   orientation="0,1"
   id="guide46"
   inkscape:label=""
   inkscape:locked="true"
   inkscape:color="rgb(0,0,255)" /><sodipodi:guide
   position="1134.1645,371.00616"
   orientation="1,0"
   id="guide841"
   inkscape:label="width" />    </sodipodi:namedview>
 <defs
   id="defs4"><inkscape:path-effect
   effect="spiro"
   id="path-effect851"
   is_visible="true"
   lpeversion="1" />
  <style
   type="text/css"
   id="style2">
   <![CDATA[
    .fil0 {fill:#EF7F1A;fill-rule:nonzero}
   ]]>
  </style>
 <inkscape:path-effect
   effect="spiro"
   id="path-effect1214"
   is_visible="true"
   lpeversion="1" /><inkscape:path-effect
   effect="spiro"
   id="path-effect1195"
   is_visible="true"
   lpeversion="1" /><inkscape:path-effect
   effect="spiro"
   id="path-effect992"
   is_visible="true"
   lpeversion="1" /><inkscape:path-effect
   effect="spiro"
   id="path-effect1060"
   is_visible="true"
   lpeversion="1" /><inkscape:path-effect
   effect="spiro"
   id="path-effect1047"
   is_visible="true"
   lpeversion="1" /><inkscape:path-effect
   effect="spiro"
   id="path-effect1085"
   is_visible="true"
   lpeversion="1" /><inkscape:path-effect
   effect="spiro"
   id="path-effect1286"
   is_visible="true"
   lpeversion="1" /><inkscape:path-effect
   effect="spiro"
   id="path-effect1305"
   is_visible="true"
   lpeversion="1" /><style
   type="text/css"
   id="style2-8">
   <![CDATA[
    .fil0 {fill:#EF7F1A;fill-rule:nonzero}
   ]]>
  </style></defs>
 
<path
   id="path1210-6"
   style="display:inline;fill:#1a1a1a;fill-rule:nonzero;stroke:none;stroke-width:2.22142px;stroke-linecap:butt;stroke-linejoin:miter;stroke-opacity:1"
   d="m 490.19535,341.27861 c -4.63659,-24.10135 -14.29669,-48.0903 -32.25377,-64.821 -13.44905,-12.53055 -31.20888,-20.37901 -49.53976,-21.74662 -17.68336,-1.3193 -35.48681,3.27997 -51.34385,11.21698 -15.85704,7.937 -29.90128,19.10863 -42.74981,31.32981 -37.72714,35.88505 -65.86885,81.38066 -83.32076,130.4368 -11.15843,31.3656 -18.05419,64.28005 -19.94386,97.51769 -1.18702,20.87861 -0.27032,42.47753 8.21896,61.58924 4.24465,9.55585 10.38416,18.3507 18.37855,25.09022 7.99438,6.73952 17.88879,11.35685 28.28759,12.45057 9.77375,1.02798 19.77313,-1.0758 28.57998,-5.43725 8.80685,-4.36144 16.44098,-10.9228 22.55516,-18.61693 12.22837,-15.38826 18.23334,-34.84223 21.51707,-54.22131 6.77233,-39.96716 2.92044,-81.44946 -9.17604,-120.13942 -12.42465,-39.73959 -33.66821,-76.92096 -62.96796,-106.50358 -13.89834,-14.03252 -29.77881,-26.46067 -48.01155,-34.05294 -18.23274,-7.59228 -39.02098,-10.06575 -57.9201,-4.33002 -20.57913,6.2456 -37.49134,21.78457 -48.63129,40.18048 -11.13996,18.39591 -16.989126,39.53189 -20.633569,60.72684 -8.524502,49.57586 -5.607957,100.46135 1.093451,150.31638 9.847248,73.25849 27.956308,145.78679 58.741738,212.98822 15.75285,34.38685 34.77714,67.27414 56.73231,98.07313 L 29.282383,847.70708 C 37.895089,807.3161 42.895668,766.1556 44.204943,724.87733 48.198577,598.96768 18.008769,474.75953 5.101344,349.44956 1.9838067,319.18338 -0.12433355,288.61835 3.1012509,258.36349 6.3551697,227.84286 15.252082,197.52402 32.179869,171.92038 c 14.898138,-22.53376 36.517807,-41.35371 62.380854,-49.15291 27.770847,-8.37451 58.015977,-3.51618 85.274087,6.40087 63.01987,22.9279 114.35025,71.97542 148.92993,129.43356 34.57967,57.45815 53.5951,123.04958 65.4064,189.06235 7.08789,39.61391 11.71809,80.01993 7.99741,120.09057 -3.72067,40.07064 -16.23058,80.02511 -40.68271,111.98748 -10.51043,13.73862 -23.19157,25.9238 -37.89776,35.03131 -14.70619,9.10751 -31.47879,15.07689 -48.73249,16.31329 -16.00115,1.14665 -32.2211,-1.79877 -47.00072,-8.03692 -14.77961,-6.23815 -28.12148,-15.72754 -39.23585,-27.29571 -22.22873,-23.13632 -35.18269,-54.17341 -39.91838,-85.90635 -5.57881,-37.38253 -0.33831,-75.47423 5.98385,-112.73824 7.62854,-44.96409 16.90653,-89.90246 33.24589,-132.48167 30.19974,-78.69835 83.74616,-146.85935 146.07663,-203.60763 16.11851,-14.67497 32.94694,-28.7277 51.62739,-39.96165 18.68046,-11.23394 39.34543,-19.61428 60.98728,-22.220256 28.88593,-3.478266 59.09197,3.838256 82.69358,20.851756 28.76744,20.73734 46.68675,55.74704 46.68466,91.20974 35.55154,-57.26933 97.9278,-97.07144 164.8444,-105.18672 73.3308,-8.893156 148.14943,19.43104 204.94734,66.65912 36.23828,30.13253 66.15984,67.88597 86.88124,110.21572 26.7464,54.63774 37.8796,117.7814 25.6798,177.37852 -8.4285,41.17399 -27.6912,79.75375 -53.342,113.04601 -25.65079,33.29227 -57.57869,61.4369 -92.27674,85.15152 -46.18884,31.56808 -97.55966,55.53557 -151.4256,70.64889 l 249.57684,-18.68381 c 4.4447,-48.18552 0.023,-97.17481 -12.97884,-143.78554 -6.88733,-24.69114 -16.16238,-48.71563 -27.6537,-71.62932 l 151.64984,-2.60483 c -9.119,23.54902 -16.0215,47.95581 -20.5865,72.79276 -14.4266,78.49135 -4.8874,161.22299 27.0237,234.37147 -117.6461,-15.15306 -236.82814,-18.35554 -355.11824,-9.54221 -61.9925,4.61882 -123.76783,12.52792 -185.89901,14.55752 -35.50081,1.15968 -71.06439,0.39517 -106.48256,-2.28907 l 3.1848,-117.16565 c 31.44314,13.14446 65.3224,20.43459 99.38913,21.38651 59.67955,1.66762 118.45065,-15.96111 172.95044,-40.33739 41.06149,-18.3657 80.70431,-40.88498 114.0319,-71.09452 33.3276,-30.20955 60.18027,-68.56604 72.06124,-111.95023 10.92654,-39.89904 8.70238,-83.27481 -6.19197,-121.86861 -14.89434,-38.5938 -42.37105,-72.20517 -77.20025,-94.52668 -49.83971,-31.94152 -114.81034,-39.57861 -170.24439,-18.81028 -27.71703,10.38416 -52.90496,27.50675 -72.62204,49.58164 -19.71709,22.0749 -33.91316,49.07227 -40.74793,77.87071 -7.24165,30.51283 -6.20851,62.71219 1.03121,93.22547 7.23972,30.51329 20.56283,59.39283 37.38823,85.85753 12.16638,19.13651 26.18574,37.09433 41.79819,53.54056 l -121.89527,26.32261 c -24.52484,-55.15096 -37.9935,-115.1917 -39.37671,-175.53391 -0.89749,-39.15292 3.19738,-78.76114 -4.20112,-117.21915 z"
   sodipodi:nodetypes="aaaaaaaaaaaaaaccaaaaaaaaacaaaaacaaaaaccaccacaaccaaaaaaccaa"
   inkscape:original-d="m 490.19535,341.27861 c -3.77065,-23.83766 -13.90813,-47.78591 -32.25377,-64.821 -12.76004,-11.84848 -31.5058,-21.84594 -49.53976,-21.74662 -34.42145,0.18958 -68.06814,20.01805 -94.09366,42.54679 -39.00773,33.76665 -63.94035,82.62269 -83.32076,130.4368 -12.46338,30.74887 -24.96634,64.7213 -19.94386,97.51769 5.71748,37.33472 17.39243,94.56159 54.8851,99.13003 35.33732,4.30582 60.91608,-44.66702 72.65221,-78.27549 13.24094,-37.91772 2.88802,-81.83102 -9.17604,-120.13942 -12.38808,-39.33728 -31.21919,-80.18054 -62.96796,-106.50358 -28.91214,-23.97118 -70.17413,-49.86901 -105.93165,-38.38296 -38.84272,12.47708 -57.40741,62.89226 -69.264859,100.90732 -15.054426,48.26456 -5.808844,100.68727 1.093451,150.31638 10.144958,72.94464 30.281408,145.06288 58.741738,212.98822 14.5947,34.83269 33.11487,79.06234 56.73231,98.07313 L 29.282383,847.70708 C 52.66368,815.83297 43.852019,766.12012 44.204943,724.87733 45.281573,599.06235 13.006284,475.02057 5.101344,349.44956 3.1933117,319.14022 -1.5126219,288.44985 3.1012509,258.36349 7.6728396,228.55287 14.011503,197.24776 32.179869,171.92038 47.143242,151.06089 68.24619,130.54641 94.560723,122.76747 c 27.082937,-8.00609 61.052477,-7.06993 85.274087,6.40087 117.6677,65.44058 185.69234,197.26846 214.33633,318.49591 18.02515,76.28638 13.29086,165.82562 -32.6853,232.07805 -18.26618,26.32183 -52.22679,54.99263 -86.63025,51.3446 -61.30481,-6.50064 -117.08592,-57.90829 -126.15495,-121.23898 -4.96717,-37.47677 0.35944,-75.45418 5.98385,-112.73824 6.76613,-44.85243 14.09619,-91.17485 33.24589,-132.48167 35.1322,-75.78185 83.63708,-148.12372 146.07663,-203.60763 32.05387,-28.48313 70.08905,-56.67635 112.61467,-62.181906 28.19206,-3.649867 60.45343,3.146126 82.69358,20.851756 26.72068,21.27263 43.18124,60.3761 46.68466,91.20974 29.49053,-46.43663 100.18557,-96.94691 164.8444,-105.18672 71.26213,-9.081309 146.01779,25.573 204.94734,66.65912 38.37447,26.75497 68.42014,67.2318 86.88124,110.21572 23.5762,54.89388 40.167,119.41907 25.6798,177.37852 -19.8797,79.5335 -82.22734,146.21377 -145.61874,198.19753 -43.069,35.31846 -151.4256,70.64889 -151.4256,70.64889 l 249.57684,-18.68381 c 0,0 -2.0439,-96.92116 -12.97884,-143.78554 -5.8157,-24.92426 -27.6537,-71.62932 -27.6537,-71.62932 l 151.64984,-2.60483 c 0,0 -18.5612,47.6583 -20.5865,72.79276 -6.3166,78.38734 27.0237,234.37147 27.0237,234.37147 0,0 -236.7417,-12.57836 -355.11824,-9.54221 -62.13561,1.59367 -123.7679,12.79702 -185.89901,14.55752 C 551.83431,805.29464 480.83989,802 480.83989,802 l 3.1848,-117.16565 c 0,0 65.50236,21.67772 99.38913,21.38651 59.19514,-0.50871 121.08916,-11.7938 172.95044,-40.33739 76.22685,-41.95399 167.70735,-97.99985 186.09314,-183.04475 16.33463,-75.55704 -12.76317,-184.97516 -83.39222,-216.39529 -92.49714,-41.14841 -235.36135,19.64455 -283.61436,108.64207 -29.09978,53.67143 12.57554,123.77014 38.41944,179.083 9.58421,20.51278 41.79819,53.54056 41.79819,53.54056 l -121.89527,26.32261 c 0,0 -31.7073,-116.06095 -39.37671,-175.53391 -5.00054,-38.77704 2.9808,-71.81582 -4.20112,-117.21915 z"
   inkscape:path-effect="#path-effect1305" /><g
   style="clip-rule:evenodd;fill-rule:evenodd;image-rendering:optimizeQuality;shape-rendering:geometricPrecision;text-rendering:geometricPrecision"
   id="g867"
   transform="translate(-386.82594,-132.27717)" /></svg>
