<?xml version="1.0" encoding="UTF-8"?>
<!DOCTYPE svg PUBLIC "-//W3C//DTD SVG 1.1//EN" "http://www.w3.org/Graphics/SVG/1.1/DTD/svg11.dtd">
<!-- Creator: CorelDRAW X8 -->
<svg xmlns="http://www.w3.org/2000/svg" xml:space="preserve" width="2734px" height="1486px" version="1.1" style="shape-rendering:geometricPrecision; text-rendering:geometricPrecision; image-rendering:optimizeQuality; fill-rule:evenodd; clip-rule:evenodd"
viewBox="0 0 2734 1486"
 xmlns:xlink="http://www.w3.org/1999/xlink">
 <defs>
  <style type="text/css">
   <![CDATA[
    .fil0 {fill:#EF7F1A;fill-rule:nonzero}
   ]]>
  </style>
 </defs>
 <g id="Layer_x0020_1">
  <metadata id="CorelCorpID_0Corel-Layer"/>
  <path class="fil0" d="M1903 1387c-57,0 -129,-4 -182,-27 -33,-14 -57,-39 -57,-76 0,-45 42,-65 82,-64 46,1 66,43 66,84 0,40 60,51 91,51 32,0 91,-11 91,-51 1,-42 20,-85 67,-84 36,0 81,20 81,62 0,38 -24,63 -58,78 -53,24 -124,27 -181,27zm-518 -1278c-98,-86 -238,-109 -366,-109 -78,0 -152,11 -227,35 -74,-25 -152,-35 -229,-35 -203,0 -398,99 -493,278 -48,89 -70,190 -70,291 0,165 62,338 212,427 29,17 63,28 97,28 24,0 47,-5 69,-18 18,-11 27,-25 27,-38 0,-15 -11,-30 -32,-41 -127,-64 -170,-227 -170,-358 0,-89 18,-181 61,-260 56,-105 173,-198 299,-198 24,0 47,2 71,6 -151,112 -229,296 -229,478 0,84 18,175 59,249 68,122 188,180 327,180 140,0 260,-58 329,-181 41,-74 59,-163 59,-248 0,-181 -78,-369 -229,-478 23,-4 46,-6 69,-6 171,1 277,119 277,283l0 574c0,42 70,56 102,56 32,0 101,-14 101,-56l0 -603c0,-124 43,-254 185,-254 79,0 145,72 169,139 32,87 31,182 31,274 1,105 2,217 47,314 64,137 190,186 337,186 91,0 172,-22 240,-63 -27,127 -88,254 -197,331 0,-64 -26,-96 -74,-126 -49,-31 -119,-42 -176,-42 -52,0 -111,10 -158,35 -47,-25 -106,-35 -158,-35 -58,0 -127,11 -176,42 -40,25 -73,65 -73,114 0,82 81,144 152,169 79,28 172,37 255,37 99,0 196,-12 293,-36 74,-17 147,-43 209,-80 179,-105 270,-277 307,-474 16,-79 22,-161 22,-242 0,-104 -9,-209 -37,-304 -42,-145 -129,-268 -293,-336 -21,-9 -46,-14 -71,-14 -30,0 -59,8 -81,26 -12,10 -17,21 -17,31 0,19 20,37 45,46 166,59 239,260 239,421 1,64 -11,123 -33,185 -32,95 -102,204 -218,204 -80,0 -126,-55 -151,-124 -29,-82 -29,-179 -30,-265 0,-100 -1,-200 -36,-295 -55,-153 -208,-229 -367,-229 -106,0 -223,31 -299,109zm-594 804c-60,0 -107,-54 -133,-101 -36,-65 -50,-144 -50,-217 0,-150 62,-315 184,-408 123,94 185,257 185,408 0,73 -14,151 -50,216 -27,48 -75,102 -136,102z"/>
 </g>
</svg>
