<?xml version="1.0" encoding="UTF-8" standalone="no"?>
<svg
   xmlns:dc="http://purl.org/dc/elements/1.1/"
   xmlns:cc="http://creativecommons.org/ns#"
   xmlns:rdf="http://www.w3.org/1999/02/22-rdf-syntax-ns#"
   xmlns:svg="http://www.w3.org/2000/svg"
   xmlns="http://www.w3.org/2000/svg"
   xmlns:sodipodi="http://sodipodi.sourceforge.net/DTD/sodipodi-0.dtd"
   xmlns:inkscape="http://www.inkscape.org/namespaces/inkscape"
   xml:space="preserve"
   width="1000"
   height="1000"
   version="1.1"
   style="clip-rule:evenodd;fill-rule:evenodd;image-rendering:optimizeQuality;shape-rendering:geometricPrecision;text-rendering:geometricPrecision"
   viewBox="0 0 1000 1000"
   id="svg10"
   sodipodi:docname="ത്ന.svg"
   inkscape:version="1.0.1 (3bc2e813f5, 2020-09-07)"><metadata
   id="metadata14"><rdf:RDF><cc:Work
       rdf:about=""><dc:format>image/svg+xml</dc:format><dc:type
         rdf:resource="http://purl.org/dc/dcmitype/StillImage" /><dc:title /></cc:Work></rdf:RDF></metadata><sodipodi:namedview
   pagecolor="#ffffff"
   bordercolor="#666666"
   borderopacity="1"
   objecttolerance="10"
   gridtolerance="10"
   guidetolerance="10"
   inkscape:pageopacity="0"
   inkscape:pageshadow="2"
   inkscape:window-width="1920"
   inkscape:window-height="1015"
   id="namedview12"
   showgrid="false"
   inkscape:zoom="0.678"
   inkscape:cx="398.19786"
   inkscape:cy="350.20304"
   inkscape:window-x="1920"
   inkscape:window-y="0"
   inkscape:window-maximized="1"
   inkscape:current-layer="svg10"
   showguides="true"
   inkscape:guide-bbox="true"
   inkscape:document-rotation="0"
   inkscape:snap-to-guides="true"><sodipodi:guide
     position="0,1000"
     orientation="0,1"
     id="guide16"
     inkscape:label=""
     inkscape:locked="true"
     inkscape:color="rgb(0,0,255)" /><sodipodi:guide
     position="1763.3122,2036.1693"
     orientation="1000,0"
     id="guide18" /><sodipodi:guide
     position="0,200"
     orientation="0,1"
     id="guide20"
     inkscape:label="base"
     inkscape:locked="true"
     inkscape:color="rgb(0,0,255)" /><inkscape:grid
     type="xygrid"
     id="grid24"
     originx="-473.37552"
     originy="-489.69235" /><sodipodi:guide
     position="0,0"
     orientation="0,1"
     id="guide34"
     inkscape:label="bottom"
     inkscape:locked="true"
     inkscape:color="rgb(0,0,255)" /><sodipodi:guide
     position="225.05109,1693.3186"
     orientation="0,1"
     id="guide44"
     inkscape:label=""
     inkscape:locked="false"
     inkscape:color="rgb(0,0,255)" /><sodipodi:guide
     position="0,900"
     orientation="0,1"
     id="guide46"
     inkscape:label=""
     inkscape:locked="true"
     inkscape:color="rgb(0,0,255)" /><sodipodi:guide
     position="863.98306,931.81669"
     orientation="-1,0"
     id="guide841"
     inkscape:label="width"
     inkscape:locked="false"
     inkscape:color="rgb(0,0,255)" /><sodipodi:guide
     position="0,1000"
     orientation="0,1000"
     id="guide860" /><sodipodi:guide
     position="1000,1000"
     orientation="1000,0"
     id="guide862" /><sodipodi:guide
     position="1000,0"
     orientation="0,-1000"
     id="guide864" /><sodipodi:guide
     position="0,0"
     orientation="-1000,0"
     id="guide866" /></sodipodi:namedview>
 <defs
   id="defs4"><inkscape:path-effect
   effect="spiro"
   id="path-effect877"
   is_visible="true"
   lpeversion="1" /><inkscape:path-effect
   effect="spiro"
   id="path-effect862"
   is_visible="true"
   lpeversion="1" /><inkscape:path-effect
   effect="spiro"
   id="path-effect1521"
   is_visible="true"
   lpeversion="1" /><inkscape:path-effect
   effect="spiro"
   id="path-effect858"
   is_visible="true"
   lpeversion="1" /><inkscape:path-effect
   effect="spiro"
   id="path-effect854"
   is_visible="true"
   lpeversion="1" />
  <style
   type="text/css"
   id="style2">
   <![CDATA[
    .fil0 {fill:#EF7F1A;fill-rule:nonzero}
   ]]>
  </style>
 <inkscape:path-effect
   effect="spiro"
   id="path-effect1214"
   is_visible="true"
   lpeversion="1" /><inkscape:path-effect
   effect="spiro"
   id="path-effect1195"
   is_visible="true"
   lpeversion="1" /><inkscape:path-effect
   effect="spiro"
   id="path-effect992"
   is_visible="true"
   lpeversion="1" /><inkscape:path-effect
   effect="spiro"
   id="path-effect287"
   is_visible="true"
   lpeversion="1" /><inkscape:path-effect
   effect="spiro"
   id="path-effect1032"
   is_visible="true"
   lpeversion="1" /><inkscape:path-effect
   effect="spiro"
   id="path-effect1218"
   is_visible="true"
   lpeversion="1" /><inkscape:path-effect
   effect="spiro"
   id="path-effect309"
   is_visible="true"
   lpeversion="1" /><inkscape:path-effect
   effect="spiro"
   id="path-effect1176"
   is_visible="true"
   lpeversion="1" /><inkscape:path-effect
   effect="spiro"
   id="path-effect1026"
   is_visible="true"
   lpeversion="1" /><inkscape:path-effect
   effect="spiro"
   id="path-effect1030"
   is_visible="true"
   lpeversion="1" /></defs>
 
<path
   style="fill:#2d2d2d;fill-rule:nonzero;stroke:none;stroke-width:1.70778px;stroke-linecap:butt;stroke-linejoin:miter;stroke-opacity:1"
   d="m 554.74149,775.79969 164.66578,60.99074 c 11.47735,-41.82559 24.56662,-83.20882 39.22902,-124.027 19.15001,-53.31109 40.97896,-105.6505 59.13264,-159.30904 17.87002,-52.82012 32.1659,-106.93088 40.83966,-162.01326 8.23874,-52.3198 11.35389,-105.98609 2.17163,-158.14857 -4.35352,-24.73142 -11.54945,-49.20311 -23.97581,-71.0247 -12.42637,-21.82159 -30.35836,-40.93753 -52.798,-52.20957 -28.09194,-14.111351 -61.85039,-14.990087 -91.81499,-5.48165 -29.96459,9.50844 -56.24843,28.80669 -77.03019,52.39495 -31.51709,35.77336 -51.01695,81.95405 -54.67731,129.48996 -7.1183,-24.62358 -17.34171,-48.34776 -30.35138,-70.43258 -16.23371,-27.55787 -37.20794,-52.90024 -64.08013,-70.24541 -37.06146,-23.92203 -85.07897,-30.91078 -126.79078,-16.56016 -26.24712,9.03011 -49.42528,25.96658 -67.6799,46.87645 -18.25463,20.90987 -31.73436,45.70047 -41.45025,71.70154 -21.12755,56.54028 -24.61813,118.41453 -19.17023,178.52691 5.72881,63.21195 21.19496,125.7346 47.83694,183.34341 12.50524,27.04049 27.95395,53.57505 51.01059,72.44197 11.52832,9.43345 24.8784,16.79223 39.29094,20.55665 14.41254,3.76443 29.90528,3.83716 44.08635,-0.72241 17.78223,-5.71743 32.7464,-18.43303 43.69888,-33.5638 10.95248,-15.13076 18.19635,-32.62571 24.05166,-50.36302 18.36205,-55.62361 23.85568,-115.37719 16.59955,-173.50205 -7.35142,-58.88817 -27.849,-116.26182 -60.70588,-165.6813 C 389.40485,237.58763 353.7732,202.26317 314.96079,171.48455 287.8176,149.95974 258.81451,130.41414 226.9938,116.72061 195.1731,103.02709 160.32947,95.335705 125.79391,98.049575 c -21.41299,1.682673 -42.622456,7.408675 -61.425639,17.790765 -18.803182,10.3821 -35.1327,25.51093 -45.91928,44.08503 -11.7064667,20.15811 -16.6023694,43.73526 -17.1100478,67.04048 -0.50767829,23.30522 3.1855685,46.49606 7.7012578,69.36524 16.13762,81.72709 42.825479,160.92099 67.130625,240.6016 22.327976,73.19877 42.780904,147.45081 50.327854,223.60619 2.70588,27.30467 3.74065,54.77485 3.0966,82.20571 L 330.71112,782.28111 C 296.54065,749.9672 264.30307,715.60958 234.22801,679.45298 191.71343,628.34144 153.10305,572.83076 130.38584,510.3503 113.76182,464.62831 105.9825,415.93313 104.9736,367.29323 c -0.47864,-23.07557 0.58603,-46.43246 6.88008,-68.63823 6.29405,-22.20576 18.19448,-43.34264 36.36773,-57.57093 16.64708,-13.03342 37.82262,-19.63243 58.94898,-20.4521 21.12637,-0.81967 42.21826,3.90295 61.87303,11.69303 46.33803,18.36586 85.00281,53.80723 110.88305,96.40689 19.17677,31.56554 31.71378,67.25119 35.62497,103.97768 3.91119,36.72648 -0.88386,74.45296 -14.66765,108.71867 -3.59011,8.9248 -7.84161,17.71095 -14.01173,25.09137 -6.17012,7.38042 -14.44625,13.30843 -23.87418,15.22029 -7.49749,1.5204 -15.41952,0.42189 -22.45513,-2.58215 -7.0356,-3.00405 -13.20479,-7.85346 -18.22464,-13.62625 -10.0397,-11.54558 -15.37961,-26.39425 -19.44704,-41.1439 -7.95762,-28.85659 -11.86557,-58.7852 -12.20618,-88.71696 -0.25092,-22.0501 1.42231,-44.09346 4.22759,-65.96582 2.12597,-16.57586 4.92309,-33.15282 10.27013,-48.98595 5.34703,-15.83313 13.35107,-30.97396 24.90273,-43.0503 14.95877,-15.6382 35.62557,-25.56413 57.12707,-28.01439 21.50149,-2.45026 43.69221,2.49101 62.40934,13.35321 17.20347,9.98377 31.36877,24.73162 42.18064,41.42708 10.81187,16.69547 18.38474,35.32067 24.04672,54.38837 11.03888,37.17529 14.96028,76.18718 14.90523,114.96676 -0.0487,34.29598 -3.17012,68.58702 -9.3147,102.3281 l 120.97668,-0.31265 c -19.72799,-46.31836 -29.80096,-96.72324 -29.38988,-147.06622 0.31325,-38.36246 6.99153,-77.54926 26.2551,-110.72593 9.00615,-15.51084 20.82371,-29.63275 35.72807,-39.61058 14.90436,-9.97783 33.05531,-15.59596 50.90394,-13.82872 17.31153,1.71406 33.61857,10.33845 45.78582,22.77168 12.16725,12.43323 20.31455,28.49551 24.52756,45.37383 8.42603,33.75664 1.4267,69.4759 -9.27641,102.58107 -22.35967,69.15942 -60.49255,132.24869 -103.42215,190.90045 -38.90095,53.14769 -82.00126,103.22086 -128.76688,149.59906 z"
   id="path875"
   inkscape:path-effect="#path-effect877"
   inkscape:original-d="m 554.74149,775.79969 164.66578,60.99074 c 0,0 25.14215,-83.01799 39.22902,-124.027 18.40189,-53.57069 42.32985,-105.21546 59.13264,-159.30904 16.52116,-53.18692 33.60156,-106.79183 40.83966,-162.01326 6.85178,-52.27403 16.32095,-107.36159 2.17163,-158.14857 -12.98895,-46.62199 -31.67452,-105.67363 -76.77381,-123.23427 -54.43295,-21.194959 -124.97306,8.34635 -168.84518,46.9133 -35.18967,30.93441 -54.67731,129.48996 -54.67731,129.48996 0,0 -16.48694,-48.95404 -30.35138,-70.43258 -17.18866,-26.62836 -35.97591,-55.5937 -64.08013,-70.24541 -37.79478,-19.70374 -86.73036,-31.11508 -126.79078,-16.56016 -50.48842,18.34366 -86.95926,69.64925 -109.13015,118.57799 -24.70241,54.51552 -23.60275,118.8402 -19.17023,178.52691 4.67761,62.987 11.54271,131.65229 47.83694,183.34341 31.22538,44.47194 80.61843,100.12629 134.38788,92.27621 35.57629,-5.19397 54.1724,-50.63592 67.75054,-83.92682 21.94128,-53.79563 24.01086,-115.8786 16.59955,-173.50205 C 470.03308,386.18206 447.8339,328.8205 416.83028,278.83775 390.82704,236.91641 355.92604,198.96937 314.96079,171.48455 258.79149,133.79888 193.23733,92.893413 125.79391,98.049575 84.613631,101.19788 40.330551,124.89789 18.448991,159.92537 c -24.14713,38.65415 -14.0319654,91.0642 -9.40879,136.40572 8.446062,82.83426 46.794103,159.85957 67.130625,240.6016 18.660104,74.08615 40.460334,147.84611 50.327854,223.60619 3.54163,27.19166 3.0966,82.20571 3.0966,82.20571 l 201.11584,-60.46348 c 0,0 -67.95818,-65.47164 -96.48311,-102.82813 C 194.08409,626.88017 153.88912,572.18096 130.38584,510.3503 113.17698,465.07852 101.24017,415.58132 104.9736,367.29323 c 3.4281,-44.3388 8.02127,-99.06564 43.24781,-126.20916 31.98564,-24.64627 82.51323,-21.52453 120.82201,-8.75907 46.46583,15.4836 85.5958,54.46204 110.88305,96.40689 32.40636,53.75358 43.91381,145.25424 20.95732,212.69635 -5.94203,17.45662 -19.45258,39.80809 -37.88591,40.31166 -27.68749,0.75638 -47.51206,-32.6939 -60.12681,-57.3523 -13.59537,-26.57523 -11.12093,-58.88579 -12.20618,-88.71696 -0.80105,-22.01915 -0.46287,-44.43714 4.22759,-65.96582 6.99144,-32.08994 9.3061,-71.79877 35.17286,-92.03625 31.61724,-24.73651 82.91382,-31.10292 119.53641,-14.66118 35.41956,15.90164 52.3012,59.57363 66.22736,95.81545 13.86075,36.07159 14.16814,76.3308 14.90523,114.96676 0.65331,34.24416 -9.3147,102.3281 -9.3147,102.3281 l 120.97668,-0.31265 c 0,0 -30.27906,-97.08275 -29.38988,-147.06622 0.67469,-37.92605 4.04741,-79.97437 26.2551,-110.72593 19.86432,-27.50665 54.61513,-64.66992 86.63201,-53.4393 57.02971,20.0044 65.66014,110.46722 61.03697,170.72658 -5.53619,72.15976 -62.34334,131.3168 -103.42215,190.90045 -37.34573,54.16893 -128.76688,149.59906 -128.76688,149.59906 z"
   sodipodi:nodetypes="ccaaaaaacaaaaaaaaaaaaaaaaccaaaaasaaaaaaaaaccaaaaac" /></svg>
