<?xml version="1.0" encoding="UTF-8" standalone="no"?>
<svg
   xmlns:dc="http://purl.org/dc/elements/1.1/"
   xmlns:cc="http://creativecommons.org/ns#"
   xmlns:rdf="http://www.w3.org/1999/02/22-rdf-syntax-ns#"
   xmlns:svg="http://www.w3.org/2000/svg"
   xmlns="http://www.w3.org/2000/svg"
   xmlns:sodipodi="http://sodipodi.sourceforge.net/DTD/sodipodi-0.dtd"
   xmlns:inkscape="http://www.inkscape.org/namespaces/inkscape"
   xml:space="preserve"
   width="1000"
   height="1000"
   version="1.1"
   style="clip-rule:evenodd;fill-rule:evenodd;image-rendering:optimizeQuality;shape-rendering:geometricPrecision;text-rendering:geometricPrecision"
   viewBox="0 0 1000 1000"
   id="svg10"
   sodipodi:docname="ത്സ.svg"
   inkscape:version="1.0.1 (3bc2e813f5, 2020-09-07)"><metadata
   id="metadata14"><rdf:RDF><cc:Work
       rdf:about=""><dc:format>image/svg+xml</dc:format><dc:type
         rdf:resource="http://purl.org/dc/dcmitype/StillImage" /><dc:title /></cc:Work></rdf:RDF></metadata><sodipodi:namedview
   pagecolor="#ffffff"
   bordercolor="#666666"
   borderopacity="1"
   objecttolerance="10"
   gridtolerance="10"
   guidetolerance="10"
   inkscape:pageopacity="0"
   inkscape:pageshadow="2"
   inkscape:window-width="1920"
   inkscape:window-height="1015"
   id="namedview12"
   showgrid="false"
   inkscape:zoom="0.6002692"
   inkscape:cx="309.99322"
   inkscape:cy="563.97401"
   inkscape:window-x="1920"
   inkscape:window-y="0"
   inkscape:window-maximized="1"
   inkscape:current-layer="svg10"
   showguides="true"
   inkscape:guide-bbox="true"
   inkscape:document-rotation="0"><sodipodi:guide
     position="0,1000"
     orientation="0,1"
     id="guide16"
     inkscape:label=""
     inkscape:locked="true"
     inkscape:color="rgb(0,0,255)" /><sodipodi:guide
     position="1763.3122,2036.1693"
     orientation="1000,0"
     id="guide18" /><sodipodi:guide
     position="0,200"
     orientation="0,1"
     id="guide20"
     inkscape:label="base"
     inkscape:locked="true"
     inkscape:color="rgb(0,0,255)" /><inkscape:grid
     type="xygrid"
     id="grid24"
     originx="-473.37552"
     originy="-489.69235" /><sodipodi:guide
     position="0,0"
     orientation="0,1"
     id="guide34"
     inkscape:label="bottom"
     inkscape:locked="true"
     inkscape:color="rgb(0,0,255)" /><sodipodi:guide
     position="225.05109,1693.3186"
     orientation="0,1"
     id="guide44"
     inkscape:label=""
     inkscape:locked="false"
     inkscape:color="rgb(0,0,255)" /><sodipodi:guide
     position="0,900"
     orientation="0,1"
     id="guide46"
     inkscape:label=""
     inkscape:locked="true"
     inkscape:color="rgb(0,0,255)" /><sodipodi:guide
     position="1130.233,181.007"
     orientation="-1,0"
     id="guide841"
     inkscape:label="width"
     inkscape:locked="false"
     inkscape:color="rgb(0,0,255)" /></sodipodi:namedview>
 <defs
   id="defs4"><inkscape:path-effect
   effect="spiro"
   id="path-effect851"
   is_visible="true"
   lpeversion="1" />
  <style
   type="text/css"
   id="style2">
   <![CDATA[
    .fil0 {fill:#EF7F1A;fill-rule:nonzero}
   ]]>
  </style>
 <inkscape:path-effect
   effect="spiro"
   id="path-effect1214"
   is_visible="true"
   lpeversion="1" /><inkscape:path-effect
   effect="spiro"
   id="path-effect1195"
   is_visible="true"
   lpeversion="1" /><inkscape:path-effect
   effect="spiro"
   id="path-effect992"
   is_visible="true"
   lpeversion="1" /><inkscape:path-effect
   effect="spiro"
   id="path-effect1060"
   is_visible="true"
   lpeversion="1" /><inkscape:path-effect
   effect="spiro"
   id="path-effect1047"
   is_visible="true"
   lpeversion="1" /><inkscape:path-effect
   effect="spiro"
   id="path-effect1085"
   is_visible="true"
   lpeversion="1" /><inkscape:path-effect
   effect="spiro"
   id="path-effect1286"
   is_visible="true"
   lpeversion="1" /><inkscape:path-effect
   effect="spiro"
   id="path-effect1305"
   is_visible="true"
   lpeversion="1" /><inkscape:path-effect
   effect="spiro"
   id="path-effect1078"
   is_visible="true"
   lpeversion="1" /></defs>
 
<g
   style="clip-rule:evenodd;fill-rule:evenodd;image-rendering:optimizeQuality;shape-rendering:geometricPrecision;text-rendering:geometricPrecision"
   id="g885" /><g
   style="clip-rule:evenodd;fill-rule:evenodd;image-rendering:optimizeQuality;shape-rendering:geometricPrecision;text-rendering:geometricPrecision"
   id="g910"
   transform="translate(589.60404)"><path
     style="display:inline;fill:#1a1a1a;fill-rule:nonzero;stroke:none;stroke-width:1.92017px;stroke-linecap:butt;stroke-linejoin:miter;stroke-opacity:1"
     d="m -12.673256,192.69926 c 19.3736505,37.8405 31.172954,79.53973 34.499056,121.92108 2.160152,-20.26866 6.549083,-40.29901 13.06224,-59.61387 13.193281,-39.12487 35.414491,-75.50468 66.00447,-103.23681 30.58997,-27.73214 69.71103,-46.49887 110.80824,-50.47849 47.67128,-4.616214 97.31222,11.5287 132.01802,44.53428 34.7058,33.00557 53.39792,82.59141 47.48607,130.11941 -5.35986,43.09031 -29.35928,81.6261 -56.62189,115.42334 -27.26262,33.79723 -58.44749,64.58424 -82.23092,100.914 -16.88114,25.78635 -30.01007,54.82543 -32.40634,85.55272 -1.19813,15.36365 0.34051,31.00853 5.22518,45.62418 4.88467,14.61565 13.17083,28.17532 24.4647,38.65987 12.40501,11.51606 28.29722,19.13316 44.97417,22.02856 16.67695,2.89541 34.08367,1.11468 49.98791,-4.67836 26.22645,-9.55285 47.74888,-29.66531 62.60704,-53.29407 14.85815,-23.62876 23.51059,-50.66981 29.30043,-77.97477 17.68843,-83.41885 9.69337,-170.33592 -7.23019,-253.9133 -8.28335,-40.90749 -18.7143,-81.63695 -20.92784,-123.31592 -1.25956,-23.7164 0.16928,-47.57455 4.25037,-70.97111 h 143.99178 c -17.61784,27.09297 -31.50128,56.61071 -41.13552,87.4587 -19.33728,61.91626 -21.30415,128.17315 -14.68538,192.70024 4.66486,45.47819 13.49273,90.46775 17.63724,135.99631 4.1445,45.52856 3.45353,92.27948 -10.50584,135.81295 -13.82736,43.12179 -40.921,82.16752 -77.55436,108.78859 -36.63336,26.62108 -82.76939,40.3874 -127.88145,36.43937 -44.05463,-3.85549 -86.44027,-24.71702 -116.21216,-57.41732 -29.7719,-32.7003 -46.58873,-76.93604 -45.8481,-121.15285 0.71856,-42.8988 17.25466,-84.15804 38.87384,-121.21792 21.61918,-37.05988 48.38402,-70.82655 72.12938,-106.56142 11.06284,-16.64869 21.57383,-33.94586 27.64135,-52.99187 6.06752,-19.04601 7.39879,-40.17793 0.18457,-58.81983 -7.64792,-19.76259 -24.84594,-35.41726 -45.03575,-41.85328 -13.27024,-4.23023 -27.6408,-4.63823 -41.29406,-1.88455 -13.65326,2.75367 -26.59652,8.60774 -38.11615,16.43668 -23.03926,15.65789 -40.05437,38.77555 -53.58541,63.12484 -33.526914,60.33214 -47.940203,131.56559 -37.8277,199.84266 4.115166,27.78456 12.189998,54.97962 23.90458,80.50774 l -135.12671,9.44142 C -22.518155,561.52403 -9.1749528,511.43894 -9.692,461.42651 -10.270334,405.48595 -28.0986,350.20856 -58.023115,302.9412 c -7.992067,-12.62389 -16.883651,-24.7699 -27.571578,-35.2104 -10.687927,-10.4405 -23.252457,-19.16124 -37.318277,-24.19995 -20.23925,-7.25018 -42.73445,-6.53148 -63.50516,-0.9844 -33.78749,9.02338 -63.23174,30.15835 -88.1349,54.71133 -37.0462,36.52527 -65.69312,81.49006 -83.32076,130.4368 -11.28164,31.32578 -18.09331,64.27381 -19.94386,97.51769 -1.16207,20.87591 -0.24159,42.46759 8.2423,61.57721 4.24195,9.55481 10.37665,18.35012 18.36645,25.0919 7.98979,6.74178 17.88003,11.36316 28.27635,12.46092 9.77402,1.03205 19.77502,-1.06954 28.58303,-5.43023 8.80801,-4.36069 16.44287,-10.9226 22.55703,-18.61765 12.22832,-15.39009 18.23023,-34.8468 21.51215,-54.22761 6.76808,-39.96767 2.91968,-81.44943 -9.17604,-120.13942 -12.42392,-39.73979 -33.66928,-76.91994 -62.96796,-106.50358 -13.8981,-14.03328 -29.77799,-26.46287 -48.01087,-34.05578 -18.23287,-7.59292 -39.0222,-10.06597 -57.92078,-4.32718 -20.5769,6.24843 -37.48401,21.79076 -48.62155,40.1866 -11.13754,18.39584 -16.98768,39.52902 -20.64331,60.72072 -8.55173,49.57442 -5.71421,100.47251 1.09345,150.31638 14.96538,109.5725 49.60835,217.48034 109.91382,310.18064 14.41238,22.15441 30.24271,43.38625 47.36194,63.52245 l -240.52054,2.80445 c 14.98667,-37.27625 25.59983,-76.30871 31.55236,-116.0414 22.04425,-147.14378 -20.00584,-295.3084 -35.54003,-443.28113 -3.17683,-30.26125 -5.24178,-60.8317 -2.00009,-91.08607 3.26995,-30.51812 12.15477,-60.83781 29.07862,-86.44311 14.89521,-22.53602 36.51723,-41.35468 62.38085,-49.15291 27.7711,-8.37336 58.01591,-3.51572 85.27409,6.40087 63.02027,22.92692 114.35068,71.97488 148.93001,129.43328 34.57933,57.45841 53.59426,123.04995 65.40632,189.06263 7.08838,39.614 11.7195,80.02012 7.99913,120.09097 -3.72036,40.07084 -16.23072,80.0257 -40.68443,111.98708 -10.51094,13.73796 -23.19261,25.92219 -37.89879,35.02932 -14.70617,9.10713 -31.47813,15.07676 -48.73146,16.31528 -16.00232,1.14872 -32.22404,-1.79383 -47.00602,-8.02976 -14.78198,-6.23593 -28.12674,-15.72381 -39.24312,-27.29186 -22.23277,-23.13609 -35.18671,-54.1793 -39.90581,-85.91736 -5.55853,-37.38359 -0.27909,-75.46619 5.98385,-112.73824 7.55856,-44.98258 16.63484,-90.00065 33.24589,-132.48167 30.65513,-78.39728 85.71965,-144.93136 146.07663,-203.60763 15.96215,-15.51766 32.48202,-30.68901 51.36837,-42.47431 18.88635,-11.78531 40.40549,-20.108219 62.658,-20.751405 28.05325,-0.81085 55.582987,10.782665 77.305609,28.552585 21.722622,17.76992 38.059025,41.37081 50.848945,66.35201 z"
     id="path1087-2"
     inkscape:path-effect="#path-effect1078"
     inkscape:original-d="M -12.673256,192.69926 C 7.8390308,229.61982 21.8258,314.62034 21.8258,314.62034 c 0,0 2.683074,-42.11818 13.06224,-59.61387 39.84587,-67.16637 98.74722,-155.904525 176.81271,-153.7153 83.45081,2.34025 169.98768,91.71424 179.50409,174.65369 9.76769,85.12949 -114.07902,134.3087 -138.85281,216.33734 -16.36961,54.20151 -38.62768,126.0629 -2.71646,169.83677 20.40908,24.87759 65.1958,29.57288 94.96208,17.3502 49.41157,-20.28946 76.57301,-80.10225 91.90747,-131.26884 24.30778,-81.1079 1.07862,-169.64988 -7.23019,-253.9133 C 425.18362,252.79521 410.60346,212.60306 408.34709,170.97111 407.06451,147.30642 412.59746,100 412.59746,100 h 143.99178 c 0,0 -32.92019,56.30722 -41.13552,87.4587 -16.42724,62.28996 -13.08051,128.30057 -14.68538,192.70024 -2.25795,90.60614 47.74172,190.78228 7.1314,271.80926 C 470.324,726.9405 385.82578,806.33857 302.46393,797.19616 222.56141,788.43314 151.75999,698.20135 140.40367,618.62599 128.47081,535.01073 222.54934,470.22641 251.40689,390.84665 264.5292,354.75051 290.1805,315.849 279.23281,279.03495 273.39126,259.39145 254.56668,239.4332 234.19706,237.18167 183.1685,231.54129 130.80652,272.91503 101.20144,314.85864 62.105912,370.24805 59.932579,446.99159 63.37374,514.7013 c 1.420879,27.95782 23.90458,80.50774 23.90458,80.50774 l -135.12671,9.44142 c 0,0 39.036628,-93.8253 38.15639,-143.22395 -0.983997,-55.22155 -18.866122,-111.77127 -48.331115,-158.48531 -15.645375,-24.80431 -37.638434,-48.57562 -64.889855,-59.41035 -19.67306,-7.82169 -43.10138,-6.63187 -63.50516,-0.9844 -33.32558,9.22403 -63.52698,30.4188 -88.1349,54.71133 -36.71595,36.24539 -63.94035,82.62269 -83.32076,130.4368 -12.46338,30.74887 -24.96634,64.7213 -19.94386,97.51769 5.71748,37.33472 17.39243,94.56159 54.8851,99.13003 35.33732,4.30582 60.91608,-44.66702 72.65221,-78.27549 13.24094,-37.91772 2.88802,-81.83102 -9.17604,-120.13942 -12.38808,-39.33728 -31.21919,-80.18054 -62.96796,-106.50358 -28.91214,-23.97118 -70.17413,-49.86901 -105.93165,-38.38296 -38.84272,12.47708 -57.40741,62.89226 -69.26486,100.90732 -15.05442,48.26456 -7.57683,100.96543 1.09345,150.31638 18.98085,108.03838 58.23022,213.42647 109.91382,310.18064 12.44434,23.2964 23.7445,44.51166 47.36194,63.52245 l -240.52054,2.80445 c 23.3813,-31.87411 27.84085,-76.37271 31.55236,-116.0414 13.81236,-147.62388 -27.98801,-295.29554 -35.54003,-443.28113 -1.54812,-30.33632 -6.61396,-60.99971 -2.00009,-91.08607 4.57159,-29.81062 10.91025,-61.11573 29.07862,-86.44311 14.96337,-20.85949 36.06632,-41.37397 62.38085,-49.15291 27.08294,-8.00609 61.05248,-7.06993 85.27409,6.40087 117.6677,65.44058 185.69234,197.26846 214.33633,318.49591 18.02515,76.28638 13.29086,165.82562 -32.6853,232.07805 -18.26618,26.32183 -52.22679,54.99263 -86.63025,51.3446 -61.30481,-6.50064 -117.08592,-57.90829 -126.15495,-121.23898 -4.96717,-37.47677 0.35944,-75.45418 5.98385,-112.73824 6.76613,-44.85243 14.09619,-91.17485 33.24589,-132.48167 35.1322,-75.78185 83.68634,-148.06834 146.07663,-203.60763 32.46194,-28.89734 70.65906,-66.073514 114.02637,-63.225715 53.042209,3.483115 106.053679,55.991915 128.154554,94.904595 z"
     sodipodi:nodetypes="ccaaaaaaaaaccaaaaaaaaaaccaaaaaaaaaaaaaaaccaaaaaaaaacaaaac" /></g></svg>
