<?xml version="1.0" encoding="UTF-8" standalone="no"?>
<svg
   xmlns:dc="http://purl.org/dc/elements/1.1/"
   xmlns:cc="http://creativecommons.org/ns#"
   xmlns:rdf="http://www.w3.org/1999/02/22-rdf-syntax-ns#"
   xmlns:svg="http://www.w3.org/2000/svg"
   xmlns="http://www.w3.org/2000/svg"
   xmlns:sodipodi="http://sodipodi.sourceforge.net/DTD/sodipodi-0.dtd"
   xmlns:inkscape="http://www.inkscape.org/namespaces/inkscape"
   xml:space="preserve"
   width="1000"
   height="1000"
   version="1.1"
   style="clip-rule:evenodd;fill-rule:evenodd;image-rendering:optimizeQuality;shape-rendering:geometricPrecision;text-rendering:geometricPrecision"
   viewBox="0 0 1000 1000"
   id="svg10"
   sodipodi:docname="തു.svg"
   inkscape:version="1.0.1 (3bc2e813f5, 2020-09-07)"><metadata
   id="metadata14"><rdf:RDF><cc:Work
       rdf:about=""><dc:format>image/svg+xml</dc:format><dc:type
         rdf:resource="http://purl.org/dc/dcmitype/StillImage" /><dc:title /></cc:Work></rdf:RDF></metadata><sodipodi:namedview
   pagecolor="#ffffff"
   bordercolor="#666666"
   borderopacity="1"
   objecttolerance="10"
   gridtolerance="10"
   guidetolerance="10"
   inkscape:pageopacity="0"
   inkscape:pageshadow="2"
   inkscape:window-width="1920"
   inkscape:window-height="1015"
   id="namedview12"
   showgrid="false"
   inkscape:zoom="0.6002692"
   inkscape:cx="469.69598"
   inkscape:cy="760.50288"
   inkscape:window-x="1920"
   inkscape:window-y="0"
   inkscape:window-maximized="1"
   inkscape:current-layer="svg10"
   showguides="true"
   inkscape:guide-bbox="true"
   inkscape:document-rotation="0"><sodipodi:guide
     position="0,1000"
     orientation="0,1"
     id="guide16"
     inkscape:label=""
     inkscape:locked="true"
     inkscape:color="rgb(0,0,255)" /><sodipodi:guide
     position="1763.3122,2036.1693"
     orientation="1000,0"
     id="guide18" /><sodipodi:guide
     position="0,200"
     orientation="0,1"
     id="guide20"
     inkscape:label="base"
     inkscape:locked="true"
     inkscape:color="rgb(0,0,255)" /><inkscape:grid
     type="xygrid"
     id="grid24"
     originx="-473.37552"
     originy="-489.69235" /><sodipodi:guide
     position="0,0"
     orientation="0,1"
     id="guide34"
     inkscape:label="bottom"
     inkscape:locked="true"
     inkscape:color="rgb(0,0,255)" /><sodipodi:guide
     position="225.05109,1693.3186"
     orientation="0,1"
     id="guide44"
     inkscape:label=""
     inkscape:locked="false"
     inkscape:color="rgb(0,0,255)" /><sodipodi:guide
     position="0,900"
     orientation="0,1"
     id="guide46"
     inkscape:label=""
     inkscape:locked="true"
     inkscape:color="rgb(0,0,255)" /><sodipodi:guide
     position="598.49734,900"
     orientation="1,0"
     id="guide841" /></sodipodi:namedview>
 <defs
   id="defs4"><inkscape:path-effect
   effect="spiro"
   id="path-effect851"
   is_visible="true"
   lpeversion="1" />
  <style
   type="text/css"
   id="style2">
   <![CDATA[
    .fil0 {fill:#EF7F1A;fill-rule:nonzero}
   ]]>
  </style>
 <inkscape:path-effect
   effect="spiro"
   id="path-effect1214"
   is_visible="true"
   lpeversion="1" /><inkscape:path-effect
   effect="spiro"
   id="path-effect1195"
   is_visible="true"
   lpeversion="1" /><inkscape:path-effect
   effect="spiro"
   id="path-effect992"
   is_visible="true"
   lpeversion="1" /><inkscape:path-effect
   effect="spiro"
   id="path-effect1060"
   is_visible="true"
   lpeversion="1" /><inkscape:path-effect
   effect="spiro"
   id="path-effect1047"
   is_visible="true"
   lpeversion="1" /><inkscape:path-effect
   effect="spiro"
   id="path-effect1085"
   is_visible="true"
   lpeversion="1" /><inkscape:path-effect
   effect="spiro"
   id="path-effect1286"
   is_visible="true"
   lpeversion="1" /><inkscape:path-effect
   effect="spiro"
   id="path-effect1305"
   is_visible="true"
   lpeversion="1" /></defs>
 
<path
   id="path1210-6"
   style="display:inline;fill:#1a1a1a;fill-rule:nonzero;stroke:none;stroke-width:2.22142px;stroke-linecap:butt;stroke-linejoin:miter;stroke-opacity:1"
   d="m 394.17114,447.66425 c 7.08706,39.61399 11.71716,80.0199 7.99666,120.0905 -3.72051,40.07059 -16.23,80.02513 -40.68196,111.98755 -10.51038,13.73866 -23.19152,25.92387 -37.89772,35.03138 -14.7062,9.10751 -31.47882,15.07685 -48.73253,16.31322 -16.00114,1.14661 -32.22108,-1.79883 -47.00068,-8.037 -14.77959,-6.23816 -28.12145,-15.72756 -39.2358,-27.29572 -22.22871,-23.13631 -35.18269,-54.17336 -39.91847,-85.90626 -5.57892,-37.38252 -0.3386,-75.47426 5.98385,-112.73824 7.62889,-44.964 16.90784,-89.90199 33.24589,-132.48167 30.19754,-78.69983 83.73673,-146.86883 146.07663,-203.60763 16.12028,-14.6719 32.95121,-28.72017 51.63185,-39.95234 18.68064,-11.23217 39.34294,-19.61356 60.98282,-22.229566 28.88771,-3.49218 59.11317,3.803026 82.69358,20.851756 21.90139,15.83479 37.46204,39.28645 47.46298,64.39407 10.00094,25.10761 14.79985,51.96386 18.37436,78.75255 10.03339,75.19398 10.84839,151.84367 -0.86349,226.79455 -11.08951,70.96802 -33.6427,140.65266 -71.07759,201.95573 -37.43489,61.30308 -90.19466,113.99319 -154.19175,146.6093 -29.23552,14.89988 -60.62739,25.56049 -92.89042,31.54539 45.97465,15.63059 95.28927,21.35648 143.62224,16.67589 57.58478,-5.57654 113.66901,-26.00292 161.35223,-58.76593 V 975.28584 C 534.57366,974.60978 488.07266,971.92902 441.77307,967.25347 379.80775,960.99593 318.17218,951.16528 255.99029,947.66248 193.80839,944.15967 130.45906,947.16172 71.097074,966.00349 44.752175,974.36548 19.383782,985.79959 -4.3296097,1000 L 0.24910698,854.42418 C 42.425563,843.01064 85.236502,833.94213 128.41827,827.27451 c 44.39809,-6.85543 89.21345,-11.18009 133.24329,-20.09976 44.02984,-8.91968 87.68027,-22.6785 125.54213,-46.85839 46.94337,-29.97966 83.20519,-75.15305 106.84766,-125.58611 23.64248,-50.43306 35.10484,-105.99592 38.37707,-161.59945 2.75619,-46.83461 -0.33865,-94.75372 -16.68586,-138.72924 -7.19546,-19.35646 -17.03294,-37.95735 -30.884,-53.27386 -13.85106,-15.3165 -31.93769,-27.22433 -52.11382,-31.62558 -21.69327,-4.7322 -44.70138,-0.55976 -64.86657,8.73308 -20.16519,9.29283 -37.73765,23.4557 -53.57001,39.02258 -37.09869,36.47661 -65.70664,81.48173 -83.32076,130.4368 -11.27218,31.32886 -18.09023,64.2743 -19.94386,97.51769 -1.16404,20.87616 -0.24396,42.46845 8.24033,61.57828 4.24215,9.55491 10.37723,18.35021 18.36742,25.09181 7.99019,6.74159 17.88081,11.3626 28.27735,12.45994 9.77396,1.03162 19.77475,-1.07026 28.58258,-5.43109 8.80782,-4.36083 16.44251,-10.92274 22.5566,-18.61771 12.22818,-15.38993 18.23037,-34.84622 21.51303,-54.22669 6.76971,-39.96765 2.92423,-81.4506 -9.17604,-120.13942 -12.42825,-39.73748 -33.68247,-76.90816 -62.96796,-106.50358 -13.89482,-14.04186 -29.76917,-26.48588 -48.00363,-34.08486 -18.23446,-7.59897 -39.0347,-10.06717 -57.92802,-4.2981 -20.55506,6.27648 -37.41237,21.85129 -48.52656,40.24638 -11.11419,18.39509 -16.974038,39.50119 -20.738299,60.66094 -8.816866,49.56157 -6.74613,100.59086 1.093451,150.31638 11.180798,70.91849 34.036318,139.85127 65.913818,204.18064 10.76545,21.72488 22.55695,42.94128 35.32205,63.55481 L 9.0890088,802.77209 C 25.3955,765.98507 36.074675,726.70983 40.641373,686.73069 53.513156,574.0447 18.046108,462.12718 5.101344,349.44956 1.6278425,319.21449 -0.22109304,288.61555 3.1012509,258.36349 6.4514235,227.85804 15.27574,197.53399 32.179869,171.92038 c 14.880513,-22.54737 36.514314,-41.35961 62.380854,-49.15291 27.772367,-8.36751 58.015467,-3.51313 85.274087,6.40087 63.02302,22.92158 114.35586,71.96986 148.93485,129.42935 34.57899,57.45949 53.59141,123.05276 65.40148,189.06656 z"
   sodipodi:nodetypes="aaacaaaaaaaacaccaaccaaaaaaaaaaaaaaaaccaaaaaaa"
   inkscape:original-d="m 394.17114,447.66425 c 18.02515,76.28638 13.29086,165.82562 -32.6853,232.07805 -18.26618,26.32183 -52.22679,54.99263 -86.63025,51.3446 -61.30481,-6.50064 -117.08592,-57.90829 -126.15495,-121.23898 -4.96717,-37.47677 0.35944,-75.45418 5.98385,-112.73824 6.76613,-44.85243 14.09619,-91.17485 33.24589,-132.48167 35.1322,-75.78185 83.63708,-148.12372 146.07663,-203.60763 32.05387,-28.48313 70.08905,-56.67635 112.61467,-62.181906 28.19206,-3.649867 60.83006,2.683096 82.69358,20.851756 40.39352,33.56716 54.70222,91.82022 65.83734,143.14662 16.02808,73.8801 20.66575,154.32622 -0.86349,226.79455 -39.39716,132.61248 -116.16887,263.5045 -225.26934,348.56503 -25.78854,20.10612 -83.09512,31.44201 -92.89042,31.54539 2.85696,9.52323 95.75515,22.29439 143.62224,16.67589 56.84993,-6.67288 154.12559,-73.85335 161.35223,-58.76593 v 147.63406 c 8.19997,-7.44713 -92.83166,-6.61468 -139.33075,-8.03237 C 318.27109,963.48808 191.94089,940.24133 71.097074,966.00349 44.125111,971.75352 18.171835,1002.5667 -4.3296097,1000 L 0.24910698,854.42418 C 16.055463,830.90291 85.906865,837.27153 128.41827,827.27451 215.15474,806.87749 317.80253,816.19779 387.20369,760.31636 470.75701,693.03969 513.83165,578.77865 532.42842,473.1308 c 8.0745,-45.87113 3.4426,-96.72683 -16.68586,-138.72924 -17.10331,-35.68979 -44.26415,-76.77623 -82.99782,-84.89944 -41.66105,-8.73713 -85.68299,20.56774 -118.43658,47.75566 -39.69803,32.95233 -63.94035,82.62269 -83.32076,130.4368 -12.46338,30.74887 -24.96634,64.7213 -19.94386,97.51769 5.71748,37.33472 17.39243,94.56159 54.8851,99.13003 35.33732,4.30582 60.91608,-44.66702 72.65221,-78.27549 13.24094,-37.91772 2.88802,-81.83102 -9.17604,-120.13942 -12.38808,-39.33728 -31.21919,-80.18054 -62.96796,-106.50358 -28.91214,-23.97118 -70.17413,-49.86901 -105.93165,-38.38296 -38.84272,12.47708 -57.40741,62.89226 -69.264859,100.90732 -15.054426,48.26456 -6.877949,100.84774 1.093451,150.31638 11.377788,70.6079 37.421378,138.58254 65.913818,204.18064 9.65578,22.23049 11.70461,44.54402 35.32205,63.55481 L 9.0890088,802.77209 C 32.470306,770.89798 37.427958,726.68653 40.641373,686.73069 49.70402,574.04506 12.271747,462.27141 5.101344,349.44956 3.175104,319.14137 -1.5126219,288.44985 3.1012509,258.36349 7.6728396,228.55287 14.011503,197.24776 32.179869,171.92038 47.143242,151.06089 68.24619,130.54641 94.560723,122.76747 c 27.082937,-8.00609 61.052477,-7.06993 85.274087,6.40087 117.6677,65.44058 185.69234,197.26846 214.33633,318.49591 z"
   inkscape:path-effect="#path-effect1305" /></svg>
