<?xml version="1.0" encoding="UTF-8"?>
<!DOCTYPE svg PUBLIC "-//W3C//DTD SVG 1.1//EN" "http://www.w3.org/Graphics/SVG/1.1/DTD/svg11.dtd">
<!-- Creator: CorelDRAW X8 -->
<svg xmlns="http://www.w3.org/2000/svg" xml:space="preserve" width="1973px" height="1486px" version="1.1" style="shape-rendering:geometricPrecision; text-rendering:geometricPrecision; image-rendering:optimizeQuality; fill-rule:evenodd; clip-rule:evenodd"
viewBox="0 0 1973 1486"
 xmlns:xlink="http://www.w3.org/1999/xlink">
 <defs>
  <style type="text/css">
   <![CDATA[
    .fil0 {fill:#EF7F1A;fill-rule:nonzero}
   ]]>
  </style>
 </defs>
 <g id="Layer_x0020_1">
  <metadata id="CorelCorpID_0Corel-Layer"/>
  <path class="fil0" d="M1628 1319c227,-150 345,-395 345,-662 0,-231 -95,-465 -307,-583 -89,-50 -191,-74 -293,-74 -77,0 -154,11 -227,36 -73,-25 -152,-36 -229,-36 -204,-1 -398,100 -493,280 -48,90 -70,185 -70,286 0,166 62,340 212,430 29,17 63,28 97,28 24,0 47,-5 69,-18 18,-11 27,-25 27,-38 0,-15 -11,-30 -32,-41 -126,-65 -172,-232 -171,-361 0,-90 19,-175 62,-255 56,-106 173,-199 299,-199 24,0 47,2 71,6 -150,113 -229,291 -229,474 0,85 18,176 59,251 68,122 188,181 327,181 140,0 261,-59 329,-182 42,-75 59,-164 59,-250 0,-184 -77,-361 -229,-474 22,-4 46,-6 69,-6 72,0 140,28 196,72 139,110 202,303 202,473 1,208 -80,416 -244,550 -147,121 -329,167 -517,167 -167,0 -338,-40 -478,-133 -214,-141 -330,-385 -330,-638 0,-196 73,-404 250,-509 19,-11 27,-25 27,-38 0,-15 -11,-30 -32,-41 -20,-11 -44,-15 -69,-15 -27,0 -54,6 -74,18 -209,125 -304,349 -304,585 0,286 137,552 376,710 186,123 413,173 634,173 215,0 437,-47 618,-167zm-483 -407c-60,0 -107,-53 -133,-101 -36,-65 -50,-145 -50,-219 0,-150 62,-310 184,-404 124,95 185,253 185,404 0,74 -14,153 -50,218 -27,48 -75,102 -136,102z"/>
 </g>
</svg>
