<?xml version="1.0" encoding="UTF-8"?>
<!DOCTYPE svg PUBLIC "-//W3C//DTD SVG 1.1//EN" "http://www.w3.org/Graphics/SVG/1.1/DTD/svg11.dtd">
<!-- Creator: CorelDRAW X8 -->
<svg xmlns="http://www.w3.org/2000/svg" xml:space="preserve" width="1633px" height="1486px" version="1.1" style="shape-rendering:geometricPrecision; text-rendering:geometricPrecision; image-rendering:optimizeQuality; fill-rule:evenodd; clip-rule:evenodd"
viewBox="0 0 1633 1486"
 xmlns:xlink="http://www.w3.org/1999/xlink">
 <defs>
  <style type="text/css">
   <![CDATA[
    .fil0 {fill:#EF7F1A;fill-rule:nonzero}
   ]]>
  </style>
 </defs>
 <g id="Layer_x0020_1">
  <metadata id="CorelCorpID_0Corel-Layer"/>
  <path class="fil0" d="M1279 1345c73,-49 138,-112 194,-189 106,-145 160,-314 160,-493 0,-136 -33,-279 -106,-395 -109,-173 -302,-268 -506,-268 -77,0 -156,11 -229,36 -73,-25 -152,-36 -229,-36 -204,-1 -398,99 -493,280 -48,89 -70,185 -70,286 0,166 62,339 212,429 29,18 63,29 96,29 24,0 48,-6 70,-19 18,-11 27,-24 27,-38 0,-15 -11,-30 -32,-41 -126,-64 -172,-231 -171,-360 0,-90 19,-175 62,-255 56,-106 173,-199 299,-199 24,0 47,2 71,6 -150,113 -229,290 -229,474 0,85 18,176 59,250 69,124 188,181 327,181 140,0 261,-58 329,-181 42,-75 59,-165 59,-250 0,-185 -77,-361 -229,-474 24,-4 47,-6 71,-6 130,0 244,92 313,195 70,105 97,232 97,356 0,146 -31,295 -103,423 -35,63 -80,120 -135,167 -10,-38 -38,-66 -71,-87 -49,-31 -118,-42 -175,-42 -53,0 -112,10 -159,35 -46,-25 -105,-35 -158,-35 -57,0 -126,11 -175,42 -40,25 -74,65 -74,114 0,82 81,143 153,169 74,27 164,37 253,37 91,0 181,-11 266,-36 80,-23 156,-57 226,-105zm-488 -433c-60,0 -107,-54 -133,-102 -36,-65 -50,-145 -50,-218 0,-150 62,-310 184,-404 124,95 185,252 185,404 0,74 -14,152 -50,217 -27,48 -75,103 -136,103zm-4 475c-57,0 -128,-4 -180,-27 -34,-15 -58,-40 -58,-78 0,-43 45,-61 82,-61 47,0 67,41 67,83 0,40 59,51 91,51 32,0 90,-11 90,-51 0,-42 20,-83 67,-83 39,0 81,18 81,63 0,37 -24,61 -57,76 -53,23 -125,27 -183,27z"/>
 </g>
</svg>
