<?xml version="1.0" encoding="UTF-8"?>
<!DOCTYPE svg PUBLIC "-//W3C//DTD SVG 1.1//EN" "http://www.w3.org/Graphics/SVG/1.1/DTD/svg11.dtd">
<!-- Creator: CorelDRAW X8 -->
<svg xmlns="http://www.w3.org/2000/svg" xml:space="preserve" width="1601px" height="1486px" version="1.1" style="shape-rendering:geometricPrecision; text-rendering:geometricPrecision; image-rendering:optimizeQuality; fill-rule:evenodd; clip-rule:evenodd"
viewBox="0 0 1601 1486"
 xmlns:xlink="http://www.w3.org/1999/xlink">
 <defs>
  <style type="text/css">
   <![CDATA[
    .fil0 {fill:#EF7F1A;fill-rule:nonzero}
   ]]>
  </style>
 </defs>
 <g id="Layer_x0020_1">
  <metadata id="CorelCorpID_0Corel-Layer"/>
  <path class="fil0" d="M1451 1486c47,0 102,-28 102,-80 0,-51 -55,-79 -102,-79l-1135 0c-54,0 -111,0 -111,-70 0,-63 59,-67 111,-67l661 0c164,0 327,-54 448,-166 127,-117 176,-281 176,-431 0,-155 -54,-310 -164,-423 -110,-114 -262,-170 -418,-170 -77,0 -154,11 -227,35 -75,-25 -149,-35 -227,-35 -203,0 -400,99 -495,278 -48,89 -70,191 -70,291 0,165 62,338 212,427 29,17 63,28 97,28 24,0 47,-5 69,-18 18,-11 27,-24 27,-38 0,-15 -11,-30 -32,-41 -126,-64 -172,-229 -171,-358 0,-89 20,-181 62,-260 57,-106 174,-198 301,-198 23,0 46,2 69,6 -150,112 -229,296 -229,478 0,84 18,175 59,249 68,122 188,180 327,180 140,0 261,-58 329,-180 42,-75 59,-164 59,-249 0,-183 -77,-366 -229,-478 22,-4 46,-6 69,-6 110,0 208,65 272,150 72,95 108,217 108,335 0,146 -43,263 -148,365 -76,74 -169,118 -274,118l-661 0c-138,0 -316,28 -316,203 0,171 175,204 316,204l1135 0zm-660 -573c-60,0 -107,-53 -133,-101 -36,-64 -50,-144 -50,-217 0,-149 62,-315 184,-408 124,94 185,257 185,408 0,73 -14,151 -50,216 -27,48 -75,102 -136,102z"/>
 </g>
</svg>
