<?xml version="1.0" encoding="UTF-8" standalone="no"?>
<svg
   xmlns:dc="http://purl.org/dc/elements/1.1/"
   xmlns:cc="http://creativecommons.org/ns#"
   xmlns:rdf="http://www.w3.org/1999/02/22-rdf-syntax-ns#"
   xmlns:svg="http://www.w3.org/2000/svg"
   xmlns="http://www.w3.org/2000/svg"
   xmlns:sodipodi="http://sodipodi.sourceforge.net/DTD/sodipodi-0.dtd"
   xmlns:inkscape="http://www.inkscape.org/namespaces/inkscape"
   xml:space="preserve"
   width="1000"
   height="1000"
   version="1.1"
   style="clip-rule:evenodd;fill-rule:evenodd;image-rendering:optimizeQuality;shape-rendering:geometricPrecision;text-rendering:geometricPrecision"
   viewBox="0 0 1000 1000"
   id="svg10"
   sodipodi:docname="തു.svg"
   inkscape:version="1.0.1 (3bc2e813f5, 2020-09-07)"><metadata
   id="metadata14"><rdf:RDF><cc:Work
       rdf:about=""><dc:format>image/svg+xml</dc:format><dc:type
         rdf:resource="http://purl.org/dc/dcmitype/StillImage" /><dc:title></dc:title></cc:Work></rdf:RDF></metadata><sodipodi:namedview
   pagecolor="#ffffff"
   bordercolor="#666666"
   borderopacity="1"
   objecttolerance="10"
   gridtolerance="10"
   guidetolerance="10"
   inkscape:pageopacity="0"
   inkscape:pageshadow="2"
   inkscape:window-width="1920"
   inkscape:window-height="1015"
   id="namedview12"
   showgrid="false"
   inkscape:zoom="0.6002692"
   inkscape:cx="300.73619"
   inkscape:cy="685.91549"
   inkscape:window-x="1920"
   inkscape:window-y="0"
   inkscape:window-maximized="1"
   inkscape:current-layer="svg10"
   showguides="true"
   inkscape:guide-bbox="true"
   inkscape:document-rotation="0"><sodipodi:guide
     position="0,1000"
     orientation="0,1"
     id="guide16"
     inkscape:label=""
     inkscape:locked="true"
     inkscape:color="rgb(0,0,255)" /><sodipodi:guide
     position="1763.3122,2036.1693"
     orientation="1000,0"
     id="guide18" /><sodipodi:guide
     position="0,200"
     orientation="0,1"
     id="guide20"
     inkscape:label="base"
     inkscape:locked="true"
     inkscape:color="rgb(0,0,255)" /><inkscape:grid
     type="xygrid"
     id="grid24"
     originx="-473.37552"
     originy="-489.69235" /><sodipodi:guide
     position="0,0"
     orientation="0,1"
     id="guide34"
     inkscape:label="bottom"
     inkscape:locked="true"
     inkscape:color="rgb(0,0,255)" /><sodipodi:guide
     position="225.05109,1693.3186"
     orientation="0,1"
     id="guide44"
     inkscape:label=""
     inkscape:locked="false"
     inkscape:color="rgb(0,0,255)" /><sodipodi:guide
     position="0,900"
     orientation="0,1"
     id="guide46"
     inkscape:label=""
     inkscape:locked="true"
     inkscape:color="rgb(0,0,255)" /><sodipodi:guide
     position="606.05905,900"
     orientation="1,0"
     id="guide841" /></sodipodi:namedview>
 <defs
   id="defs4"><inkscape:path-effect
   effect="spiro"
   id="path-effect851"
   is_visible="true"
   lpeversion="1" />
  <style
   type="text/css"
   id="style2">
   <![CDATA[
    .fil0 {fill:#EF7F1A;fill-rule:nonzero}
   ]]>
  </style>
 <inkscape:path-effect
   effect="spiro"
   id="path-effect1214"
   is_visible="true"
   lpeversion="1" /><inkscape:path-effect
   effect="spiro"
   id="path-effect1195"
   is_visible="true"
   lpeversion="1" /><inkscape:path-effect
   effect="spiro"
   id="path-effect992"
   is_visible="true"
   lpeversion="1" /><inkscape:path-effect
   effect="spiro"
   id="path-effect1060"
   is_visible="true"
   lpeversion="1" /><inkscape:path-effect
   effect="spiro"
   id="path-effect1047"
   is_visible="true"
   lpeversion="1" /><inkscape:path-effect
   effect="spiro"
   id="path-effect1085"
   is_visible="true"
   lpeversion="1" /><inkscape:path-effect
   effect="spiro"
   id="path-effect1286"
   is_visible="true"
   lpeversion="1" /><inkscape:path-effect
   effect="spiro"
   id="path-effect1305"
   is_visible="true"
   lpeversion="1" /></defs>
 
<path
   id="path1210-6"
   style="display:inline;fill:#1a1a1a;fill-rule:nonzero;stroke:none;stroke-width:2.22142px;stroke-linecap:butt;stroke-linejoin:miter;stroke-opacity:1"
   d="m 394.17114,447.66425 c 7.08745,39.61395 11.71762,80.01992 7.99704,120.09054 -3.72057,40.07062 -16.23027,80.02514 -40.68234,111.98751 -10.51042,13.73863 -23.19157,25.9238 -37.89776,35.0313 -14.7062,9.1075 -31.4788,15.07686 -48.73249,16.3133 -16.00117,1.14668 -32.22116,-1.79868 -47.00083,-8.03678 -14.77966,-6.2381 -28.1216,-15.72746 -39.23601,-27.29562 -22.22882,-23.13631 -35.18279,-54.17353 -39.91811,-85.90658 -5.57836,-37.38255 -0.33697,-75.47404 5.98385,-112.73824 7.62696,-44.96451 16.90037,-89.90466 33.24589,-132.48167 30.21001,-78.69142 83.79028,-146.81506 146.07663,-203.60763 16.11025,-14.6893 32.92695,-28.76289 51.60655,-40.00514 18.6796,-11.24226 39.3571,-19.61765 61.00812,-22.176766 28.87765,-3.413288 58.9935,4.003156 82.69358,20.851756 31.10528,22.11303 49.38383,58.2456 60.38996,94.78858 17.13486,56.89184 19.3734,117.2224 17.08791,176.59463 -2.99204,77.72684 -13.69741,155.82421 -40.60176,228.80757 -37.61044,102.02572 -106.46122,191.39512 -191.7374,258.8619 -20.8956,16.53168 -42.91036,31.93375 -61.05629,51.44395 -18.14593,19.51019 -32.42728,44.01481 -33.85058,70.62114 -0.50834,9.5026 0.65968,19.163 4.08673,28.0406 3.42706,8.8777 9.17871,16.9463 16.87972,22.5367 6.49197,4.7127 14.22919,7.5792 22.15939,8.7904 7.9302,1.2113 16.05534,0.8056 23.94754,-0.6325 15.7844,-2.8763 30.49826,-9.7708 45.2111,-16.1702 81.52164,-35.4583 168.87912,-57.45724 257.47141,-64.83809 L 600.6559,1148.1819 c -53.26359,-28.3036 -114.94744,-40.5127 -174.97688,-34.6332 -53.15623,5.2063 -104.41711,24.1317 -157.73035,27.3549 -26.65661,1.6116 -53.91837,-0.8474 -78.76391,-10.6389 -24.84553,-9.7914 -47.15659,-27.3876 -59.52402,-51.0566 -13.76053,-26.3351 -14.20892,-58.339 -5.35581,-86.70292 8.85311,-28.36392 26.33174,-53.39773 46.72896,-75.00428 67.29408,-71.28387 164.66502,-106.91027 236.55104,-173.56073 63.30282,-58.69238 103.98665,-140.01112 118.40452,-225.12379 9.89904,-58.43674 7.49591,-120.34937 -16.77635,-174.42063 -11.73447,-26.14087 -28.67891,-50.31382 -51.27152,-67.93814 -14.40571,-11.23778 -31.37194,-19.81205 -49.53976,-21.74662 -17.68878,-1.88357 -35.6673,2.64619 -51.53391,10.68929 -15.86661,8.0431 -29.79126,19.47176 -42.55975,31.8575 -37.3561,36.23632 -65.77295,81.44064 -83.32076,130.4368 -11.22571,31.34391 -18.07539,64.27666 -19.94386,97.51769 -1.17351,20.87722 -0.25496,42.47229 8.23135,61.58296 4.24315,9.55534 10.38007,18.35049 18.37203,25.09122 7.99195,6.74073 17.88421,11.36016 28.28172,12.45585 9.77382,1.02997 19.77391,-1.07288 28.5812,-5.43408 8.80728,-4.3612 16.44157,-10.92294 22.55559,-18.61755 12.22805,-15.38922 18.23145,-34.84426 21.51542,-54.22386 6.77268,-39.96746 2.92925,-81.45183 -9.17604,-120.13942 -12.43302,-39.735 -33.69603,-76.89608 -62.96796,-106.50358 -13.89143,-14.05068 -29.76013,-26.50947 -47.99622,-34.11462 -18.23609,-7.60516 -39.04752,-10.06837 -57.93543,-4.26834 -20.5328,6.30514 -37.33926,21.9131 -48.42964,40.3075 -11.09039,18.39441 -16.960183,39.47318 -20.835219,60.59982 -9.088528,49.55051 -7.800403,100.73056 1.093451,150.31638 16.310428,90.93539 57.781128,175.90838 109.913818,252.18064 14.90809,21.81114 30.71318,43.00914 47.36194,63.52245 L 9.0890088,850.77209 C 24.71289,813.72767 35.355712,774.58613 40.641373,734.73069 57.656517,606.43148 19.197634,478.10218 5.101344,349.44956 1.7869571,319.20014 -0.17782748,288.61675 3.1012509,258.36349 6.4084021,227.85122 15.265166,197.52953 32.179869,171.92038 47.068263,149.3791 68.695745,130.56341 94.560723,122.76747 c 27.771687,-8.37064 58.015697,-3.5145 85.274087,6.40087 63.02161,22.92441 114.35334,71.97235 148.93263,129.43124 34.57929,57.4589 53.59306,123.05133 65.4037,189.06467 z"
   sodipodi:nodetypes="aaacaaaaaaaaaassccaaaaaaaaaaaaaaaaaaaccaaaaaaa"
   inkscape:original-d="m 394.17114,447.66425 c 18.02515,76.28638 13.29086,165.82562 -32.6853,232.07805 -18.26618,26.32183 -52.22679,54.99263 -86.63025,51.3446 -61.30481,-6.50064 -117.08592,-57.90829 -126.15495,-121.23898 -4.96717,-37.47677 0.35944,-75.45418 5.98385,-112.73824 6.76613,-44.85243 14.09619,-91.17485 33.24589,-132.48167 35.1322,-75.78185 83.63708,-148.12372 146.07663,-203.60763 32.05387,-28.48313 70.08905,-56.67635 112.61467,-62.181906 28.19206,-3.649867 59.64463,4.212656 82.69358,20.851756 30.37573,21.92831 48.18422,59.36887 60.38996,94.78858 19.2678,55.91305 19.428,117.50113 17.08791,176.59463 -3.06502,77.40001 -9.96908,157.66128 -40.60176,228.80757 -42.46432,98.62598 -126.82157,173.3269 -191.7374,258.8619 -31.15828,41.05506 -88.02383,70.98694 -94.90687,122.06509 -2.43728,18.0868 -7.61806,51.1253 20.96645,50.5773 57.92785,-1.1105 33.94178,0.6408 91.31803,-8.0123 58.56978,-8.8332 253.66558,-72.78371 257.47141,-64.83809 L 600.6559,1148.1819 c -19.72155,18.0884 -116.23666,-25.4279 -174.97688,-34.6332 -98.13675,-15.3793 -239.73217,47.5081 -296.01828,-34.3406 -31.52665,-45.8447 10.22684,-115.6033 41.37315,-161.7072 54.74683,-81.03825 172.72921,-99.45818 236.55104,-173.56073 55.33146,-64.24451 102.04601,-141.92927 118.40452,-225.12379 11.26906,-57.31111 4.4098,-119.98991 -16.77635,-174.42063 -10.29093,-26.43909 -29.01549,-50.34275 -51.27152,-67.93814 -14.14708,-11.18454 -31.5058,-21.84594 -49.53976,-21.74662 -34.42145,0.18958 -68.06814,20.01805 -94.09366,42.54679 -39.00773,33.76665 -63.94035,82.62269 -83.32076,130.4368 -12.46338,30.74887 -24.96634,64.7213 -19.94386,97.51769 5.71748,37.33472 17.39243,94.56159 54.8851,99.13003 35.33732,4.30582 60.91608,-44.66702 72.65221,-78.27549 13.24094,-37.91772 2.88802,-81.83102 -9.17604,-120.13942 -12.38808,-39.33728 -31.21919,-80.18054 -62.96796,-106.50358 -28.91214,-23.97118 -70.17413,-49.86901 -105.93165,-38.38296 -38.84272,12.47708 -57.40741,62.89226 -69.264859,100.90732 -15.054426,48.26456 -9.310191,101.30154 1.093451,150.31638 19.039128,89.69933 63.886228,172.87163 109.913818,252.18064 13.2574,22.8435 23.7445,44.51166 47.36194,63.52245 L 9.0890088,850.77209 C 32.470306,818.89798 37.168303,774.6648 40.641373,734.73069 51.815913,606.24342 12.444847,478.21261 5.101344,349.44956 3.3721558,319.12949 -1.5126219,288.44985 3.1012509,258.36349 7.6728396,228.55287 14.011503,197.24776 32.179869,171.92038 47.143242,151.06089 68.24619,130.54641 94.560723,122.76747 c 27.082937,-8.00609 61.052477,-7.06993 85.274087,6.40087 117.6677,65.44058 185.69234,197.26846 214.33633,318.49591 z"
   inkscape:path-effect="#path-effect1305" /></svg>
