<?xml version="1.0" encoding="UTF-8"?>
<!DOCTYPE svg PUBLIC "-//W3C//DTD SVG 1.1//EN" "http://www.w3.org/Graphics/SVG/1.1/DTD/svg11.dtd">
<!-- Creator: CorelDRAW X8 -->
<svg xmlns="http://www.w3.org/2000/svg" xml:space="preserve" width="1028px" height="868px" version="1.1" style="shape-rendering:geometricPrecision; text-rendering:geometricPrecision; image-rendering:optimizeQuality; fill-rule:evenodd; clip-rule:evenodd"
viewBox="0 0 1028 868"
 xmlns:xlink="http://www.w3.org/1999/xlink">
 <defs>
  <style type="text/css">
   <![CDATA[
    .fil0 {fill:#EF7F1A;fill-rule:nonzero}
   ]]>
  </style>
 </defs>
 <g id="Layer_x0020_1">
  <metadata id="CorelCorpID_0Corel-Layer"/>
  <path class="fil0" d="M927 868c30,0 72,-13 72,-48 0,-35 -42,-49 -72,-49l-727 0c-29,0 -56,-1 -56,-38 0,-33 28,-38 56,-38l511 0c94,0 195,-18 263,-88 38,-39 54,-87 54,-140 0,-33 -9,-65 -26,-94 -16,-26 -39,-47 -65,-62 38,-26 62,-65 62,-112 1,-65 -43,-119 -99,-150 -66,-37 -152,-49 -228,-49 -60,0 -122,5 -180,21 -44,-15 -96,-21 -143,-21 -123,0 -247,54 -307,165 -28,52 -42,108 -42,166 0,99 38,199 128,251 19,11 44,18 68,18 18,0 36,-3 51,-12 12,-7 17,-15 17,-23 0,-9 -7,-19 -20,-25 -74,-36 -102,-132 -102,-209 0,-52 12,-102 37,-148 34,-62 96,-110 170,-113 10,0 20,0 30,2 -89,65 -136,167 -136,275 0,49 10,102 35,146 43,76 121,107 207,107 86,0 164,-31 208,-108 25,-43 35,-95 35,-145 0,-106 -45,-207 -132,-273 25,-4 50,-5 75,-5 41,1 87,9 123,29 43,23 73,52 73,101 0,36 -20,80 -60,80 -21,0 -51,9 -51,34 0,25 30,34 50,34 27,0 47,9 63,31 19,27 22,55 22,87 0,34 -14,72 -37,99 -34,42 -87,62 -140,62l-514 0c-82,0 -200,15 -200,121 0,105 117,121 200,121l727 0zm-442 -337c-30,0 -56,-34 -70,-58 -21,-37 -30,-83 -30,-126 0,-84 35,-172 100,-227 67,55 101,142 101,227 0,43 -8,88 -30,126 -14,24 -40,58 -71,58z"/>
 </g>
</svg>
