<?xml version="1.0" encoding="UTF-8" standalone="no"?>
<svg
   xmlns:dc="http://purl.org/dc/elements/1.1/"
   xmlns:cc="http://creativecommons.org/ns#"
   xmlns:rdf="http://www.w3.org/1999/02/22-rdf-syntax-ns#"
   xmlns:svg="http://www.w3.org/2000/svg"
   xmlns="http://www.w3.org/2000/svg"
   xmlns:sodipodi="http://sodipodi.sourceforge.net/DTD/sodipodi-0.dtd"
   xmlns:inkscape="http://www.inkscape.org/namespaces/inkscape"
   xml:space="preserve"
   width="1000"
   height="1000"
   version="1.1"
   style="clip-rule:evenodd;fill-rule:evenodd;image-rendering:optimizeQuality;shape-rendering:geometricPrecision;text-rendering:geometricPrecision"
   viewBox="0 0 1000 1000"
   id="svg10"
   sodipodi:docname="ത്ഥ.svg"
   inkscape:version="1.0.1 (3bc2e813f5, 2020-09-07)"><metadata
   id="metadata14"><rdf:RDF><cc:Work
       rdf:about=""><dc:format>image/svg+xml</dc:format><dc:type
         rdf:resource="http://purl.org/dc/dcmitype/StillImage" /><dc:title /></cc:Work></rdf:RDF></metadata><sodipodi:namedview
   pagecolor="#ffffff"
   bordercolor="#666666"
   borderopacity="1"
   objecttolerance="10"
   gridtolerance="10"
   guidetolerance="10"
   inkscape:pageopacity="0"
   inkscape:pageshadow="2"
   inkscape:window-width="1920"
   inkscape:window-height="1015"
   id="namedview12"
   showgrid="false"
   inkscape:zoom="0.75255233"
   inkscape:cx="499.19659"
   inkscape:cy="409.6288"
   inkscape:window-x="1920"
   inkscape:window-y="0"
   inkscape:window-maximized="1"
   inkscape:current-layer="svg10"
   showguides="true"
   inkscape:guide-bbox="true"
   inkscape:document-rotation="0"><sodipodi:guide
     position="0,1000"
     orientation="0,1"
     id="guide16"
     inkscape:label=""
     inkscape:locked="true"
     inkscape:color="rgb(0,0,255)" /><sodipodi:guide
     position="1763.3122,2036.1693"
     orientation="1000,0"
     id="guide18" /><sodipodi:guide
     position="0,200"
     orientation="0,1"
     id="guide20"
     inkscape:label="base"
     inkscape:locked="true"
     inkscape:color="rgb(0,0,255)" /><inkscape:grid
     type="xygrid"
     id="grid24"
     originx="-473.37552"
     originy="-489.69235" /><sodipodi:guide
     position="0,0"
     orientation="0,1"
     id="guide34"
     inkscape:label="bottom"
     inkscape:locked="true"
     inkscape:color="rgb(0,0,255)" /><sodipodi:guide
     position="225.05109,1693.3186"
     orientation="0,1"
     id="guide44"
     inkscape:label=""
     inkscape:locked="false"
     inkscape:color="rgb(0,0,255)" /><sodipodi:guide
     position="0,900"
     orientation="0,1"
     id="guide46"
     inkscape:label=""
     inkscape:locked="true"
     inkscape:color="rgb(0,0,255)" /><sodipodi:guide
     position="976.5971,900"
     orientation="1,0"
     id="guide841" /></sodipodi:namedview>
 <defs
   id="defs4"><inkscape:path-effect
   effect="spiro"
   id="path-effect851"
   is_visible="true"
   lpeversion="1" />
  <style
   type="text/css"
   id="style2">
   <![CDATA[
    .fil0 {fill:#EF7F1A;fill-rule:nonzero}
   ]]>
  </style>
 <inkscape:path-effect
   effect="spiro"
   id="path-effect1214"
   is_visible="true"
   lpeversion="1" /><inkscape:path-effect
   effect="spiro"
   id="path-effect1195"
   is_visible="true"
   lpeversion="1" /><inkscape:path-effect
   effect="spiro"
   id="path-effect992"
   is_visible="true"
   lpeversion="1" /><inkscape:path-effect
   effect="spiro"
   id="path-effect1060"
   is_visible="true"
   lpeversion="1" /><inkscape:path-effect
   effect="spiro"
   id="path-effect1047"
   is_visible="true"
   lpeversion="1" /><inkscape:path-effect
   effect="spiro"
   id="path-effect1085"
   is_visible="true"
   lpeversion="1" /><inkscape:path-effect
   effect="spiro"
   id="path-effect1286"
   is_visible="true"
   lpeversion="1" /><inkscape:path-effect
   effect="spiro"
   id="path-effect1305"
   is_visible="true"
   lpeversion="1" /><inkscape:path-effect
   effect="spiro"
   id="path-effect850"
   is_visible="true"
   lpeversion="1" /></defs>
 
<path
   id="path1210-6"
   style="display:inline;fill:#1a1a1a;fill-rule:nonzero;stroke:none;stroke-width:2.22142px;stroke-linecap:butt;stroke-linejoin:miter;stroke-opacity:1"
   d="m 450.05946,759.83561 c -13.37227,-13.44969 -22.41084,-30.8749 -27.19313,-49.22814 -4.78229,-18.35324 -5.43392,-37.62406 -3.44371,-56.48542 3.9804,-37.72271 18.23015,-73.45592 30.25036,-109.43315 11.24662,-33.66181 20.62938,-67.91954 29.30428,-102.33393 8.34139,-33.09132 16.08499,-67.29875 11.21809,-101.07636 -3.51116,-24.36837 -14.0475,-48.24761 -32.25377,-64.821 -13.58122,-12.36316 -31.23086,-20.30388 -49.53976,-21.74662 -17.68493,-1.39358 -35.51089,3.19664 -51.36905,11.14757 -15.85817,7.95093 -29.88669,19.15641 -42.72461,31.39922 -37.67827,35.93165 -65.85618,81.38862 -83.32076,130.4368 -11.16733,31.36274 -18.057,64.2796 -19.94386,97.51769 -1.18522,20.87842 -0.26826,42.47682 8.22063,61.58838 4.24445,9.55578 10.38362,18.35067 18.37768,25.09035 7.99405,6.73969 17.88816,11.3573 28.28679,12.4513 9.77376,1.02826 19.77325,-1.07537 28.58018,-5.43677 8.80693,-4.3614 16.44109,-10.9228 22.55527,-18.617 12.22835,-15.38838 18.2331,-34.84254 21.51676,-54.22172 6.77214,-39.96719 2.92081,-81.44957 -9.17604,-120.13942 -12.425,-39.73939 -33.66954,-76.91976 -62.96796,-106.50358 -13.89801,-14.03339 -29.77791,-26.46302 -48.01081,-34.05592 -18.2329,-7.5929 -39.02226,-10.06588 -57.92084,-4.32704 -20.57688,6.24848 -37.48396,21.79081 -48.62151,40.18663 -11.13754,18.39583 -16.987708,39.529 -20.643349,60.72069 -8.551763,49.57442 -5.714224,100.47251 1.093451,150.31638 14.965408,109.57249 49.608348,217.48034 109.913818,310.18064 14.41238,22.15441 30.24271,43.38625 47.36194,63.52245 L 9.0890088,908.77209 C 24.075682,871.49584 34.688844,832.46338 40.641373,792.73069 62.685626,645.58691 20.635539,497.42229 5.101344,349.44956 1.9245146,319.18831 -0.14044257,288.61786 3.1012509,258.36349 6.3712046,227.84537 15.256024,197.52568 32.179869,171.92038 c 14.895204,-22.53602 36.517225,-41.3547 62.380854,-49.15291 27.771107,-8.37334 58.015887,-3.51567 85.274087,6.40087 63.0204,22.92684 114.35122,71.97446 148.9308,129.43283 34.57958,57.45837 53.59451,123.05012 65.40553,189.06308 7.08771,39.61391 11.71782,80.01991 7.99715,120.09053 -3.72067,40.07061 -16.23047,80.02507 -40.68245,111.98752 -10.51039,13.73867 -23.19149,25.92393 -37.89768,35.03147 -14.70619,9.10754 -31.47884,15.07689 -48.73257,16.31313 -16.00106,1.14649 -32.22088,-1.79915 -47.00032,-8.03746 -14.77944,-6.23832 -28.12109,-15.72782 -39.23531,-27.29599 -22.22843,-23.13634 -35.18239,-54.17298 -39.91932,-85.90553 -5.58032,-37.38245 -0.34272,-75.47483 5.98385,-112.73824 7.63375,-44.96272 16.92676,-89.89521 33.24589,-132.48167 30.16595,-78.72117 83.6012,-147.00526 146.07663,-203.60763 16.14568,-14.62789 33.01265,-28.61205 51.69602,-39.81874 18.68337,-11.20668 39.30751,-19.60327 60.91865,-22.363166 28.91377,-3.692497 59.42294,3.298476 82.69358,20.851756 14.60897,11.0197 26.12509,25.87766 34.22464,42.28659 8.09954,16.40894 12.85754,34.34659 15.14609,52.50199 6.30102,49.98696 -5.86495,100.32634 -19.55051,148.81453 -13.99427,49.58196 -29.67462,98.66858 -44.96988,147.86477 -10.33042,33.2271 -20.58992,67.221 -19.73179,102.00636 0.42906,17.39268 3.7122,34.83807 10.87637,50.69254 7.16417,15.85446 18.32477,30.07272 32.79262,39.73557 14.39855,9.61657 31.53641,14.4503 48.70744,16.67572 17.17103,2.22543 34.55048,1.98023 51.86296,2.25364 30.18635,0.47673 60.49788,2.53576 90.48597,-0.95097 37.32765,-4.34011 73.74778,-17.45085 104.6115,-38.88962 30.86371,-21.43877 56.02988,-51.26809 70.88758,-85.78531 23.99829,-55.75255 20.16623,-119.24251 12.0634,-179.39738 -5.80424,-43.0903 -13.9747,-87.01251 -36.31029,-124.31646 -11.1678,-18.65198 -25.86107,-35.38544 -43.89144,-47.53129 -18.03037,-12.14585 -39.4914,-19.55177 -61.23104,-19.49079 -22.77539,0.0639 -45.20842,8.3518 -63.51734,21.89824 -18.30892,13.54644 -32.5831,32.16728 -42.36294,52.73612 -19.55969,41.13768 -21.10672,88.61472 -16.40245,133.92211 6.64409,63.9901 26.55311,129.26184 71.3195,175.46624 7.87445,8.1274 16.44143,15.5836 25.57764,22.26127 l -144.21978,73.48293 c 3.78647,-40.71138 4.64692,-81.69462 2.57252,-122.52905 -3.19904,-62.97283 -13.35776,-125.47043 -15.64719,-188.48289 -2.28942,-63.01245 3.76259,-127.87846 31.16573,-184.66648 16.3128,-33.80532 40.36412,-64.37715 71.64257,-85.12722 31.27846,-20.75007 70.05925,-31.106231 107.10625,-25.07074 37.78114,6.15509 71.61165,28.85007 96.16069,58.22088 24.54903,29.37081 40.49604,65.07745 51.6978,101.681 22.59092,73.81948 26.81218,151.8677 29.16725,229.03063 1.43462,47.00463 2.18362,94.5723 -8.14054,140.45155 -10.32416,45.87925 -32.87728,90.54213 -70.37575,118.92097 -31.66537,23.96435 -71.40646,34.62825 -110.65305,40.68554 -66.82426,10.3136 -134.82696,8.7751 -202.43936,8.1308 -24.46172,-0.2331 -49.10646,-0.36375 -73.08508,-5.2069 -23.97861,-4.84315 -47.54805,-14.78182 -64.79589,-32.12951 z"
   sodipodi:nodetypes="caaaaaaaaaaaaaaaaccaaaaaaaaacaaaaaaaacaaaaaaaccaaaaaasac"
   inkscape:original-d="m 450.05946,759.83561 c 16.75808,-50.0292 -10.29092,-144.11825 -0.38648,-215.14671 4.90036,-35.14233 22.45607,-67.6587 29.30428,-102.33393 6.58485,-33.34175 17.24519,-67.65037 11.21809,-101.07636 -4.20986,-23.34751 -13.90813,-47.78591 -32.25377,-64.821 -12.76004,-11.84848 -31.5058,-21.84594 -49.53976,-21.74662 -34.42145,0.18958 -68.06814,20.01805 -94.09366,42.54679 -39.00773,33.76665 -63.94035,82.62269 -83.32076,130.4368 -12.46338,30.74887 -24.96634,64.7213 -19.94386,97.51769 5.71748,37.33472 17.39243,94.56159 54.8851,99.13003 35.33732,4.30582 60.91608,-44.66702 72.65221,-78.27549 13.24094,-37.91772 2.88802,-81.83102 -9.17604,-120.13942 -12.38808,-39.33728 -31.21919,-80.18054 -62.96796,-106.50358 -28.91214,-23.97118 -70.17413,-49.86901 -105.93165,-38.38296 -38.84272,12.47708 -57.40741,62.89226 -69.264859,100.90732 -15.054426,48.26456 -7.576829,100.96543 1.093451,150.31638 18.980848,108.03838 58.230218,213.42647 109.913818,310.18064 12.44434,23.2964 23.7445,44.51166 47.36194,63.52245 L 9.0890088,908.77209 C 32.470306,876.89798 36.929861,832.39938 40.641373,792.73069 54.453733,645.10681 12.653361,497.43515 5.101344,349.44956 3.5532182,319.11324 -1.5126219,288.44985 3.1012509,258.36349 7.6728396,228.55287 14.011503,197.24776 32.179869,171.92038 47.143242,151.06089 68.24619,130.54641 94.560723,122.76747 c 27.082937,-8.00609 61.052477,-7.06993 85.274087,6.40087 117.6677,65.44058 185.69234,197.26846 214.33633,318.49591 18.02515,76.28638 13.29086,165.82562 -32.6853,232.07805 -18.26618,26.32183 -52.22679,54.99263 -86.63025,51.3446 -61.30481,-6.50064 -117.08592,-57.90829 -126.15495,-121.23898 -4.96717,-37.47677 0.35944,-75.45418 5.98385,-112.73824 6.76613,-44.85243 14.09619,-91.17485 33.24589,-132.48167 35.1322,-75.78185 83.63708,-148.12372 146.07663,-203.60763 32.05387,-28.48313 70.08905,-56.67635 112.61467,-62.181906 28.19206,-3.649867 60.87961,4.258636 82.69358,20.851756 29.6906,22.5846 43.18124,60.3761 49.37073,94.78858 8.86938,49.31228 -8.97754,99.91339 -19.55051,148.81453 -10.88705,50.35378 -40.55809,96.53674 -44.96988,147.86477 -5.53551,64.40173 -32.0662,152.51913 23.9372,192.43447 28.66042,18.53445 66.58959,15.93928 100.5704,18.92936 30.04756,2.64397 61.798,8.36816 90.48597,-0.95097 68.24806,-22.17 140.4598,-62.0526 175.49908,-124.67493 29.26546,-52.30333 28.89692,-121.87575 12.0634,-179.39738 -22.27614,-76.11952 -62.23254,-195.54925 -141.43277,-191.33854 -80.47369,4.27841 -116.47556,128.17864 -122.28273,208.55647 -4.54959,62.97141 34.61827,124.0939 71.3195,175.46624 6.57041,9.1969 25.57764,22.26127 25.57764,22.26127 l -144.21978,73.48293 c 0,0 1.29496,-81.69701 2.57252,-122.52905 3.89319,-124.42975 -47.41024,-265.7348 15.51854,-373.14937 35.38219,-60.39466 109.39956,-119.6898 178.74882,-110.19796 71.92476,9.84435 117.16883,94.11261 147.85849,159.90188 32.53488,69.74485 35.59661,152.33953 29.16725,229.03063 -7.54647,90.01628 -16.53384,193.66061 -78.51629,259.37252 -26.96521,28.5877 -72.7477,32.47389 -110.65305,40.68554 -78.95303,17.10402 -135.32944,15.68899 -202.43936,8.1308 -47.31641,-5.32897 -183.51713,108.43656 -137.88097,-37.33641 z"
   inkscape:path-effect="#path-effect1305" /></svg>
