<?xml version="1.0" encoding="UTF-8" standalone="no"?>
<svg
   xmlns:dc="http://purl.org/dc/elements/1.1/"
   xmlns:cc="http://creativecommons.org/ns#"
   xmlns:rdf="http://www.w3.org/1999/02/22-rdf-syntax-ns#"
   xmlns:svg="http://www.w3.org/2000/svg"
   xmlns="http://www.w3.org/2000/svg"
   xmlns:sodipodi="http://sodipodi.sourceforge.net/DTD/sodipodi-0.dtd"
   xmlns:inkscape="http://www.inkscape.org/namespaces/inkscape"
   xml:space="preserve"
   width="1000"
   height="1000"
   version="1.1"
   style="clip-rule:evenodd;fill-rule:evenodd;image-rendering:optimizeQuality;shape-rendering:geometricPrecision;text-rendering:geometricPrecision"
   viewBox="0 0 1000 1000"
   id="svg10"
   sodipodi:docname="ത്ത.svg"
   inkscape:version="1.0.1 (3bc2e813f5, 2020-09-07)"><metadata
   id="metadata14"><rdf:RDF><cc:Work
       rdf:about=""><dc:format>image/svg+xml</dc:format><dc:type
         rdf:resource="http://purl.org/dc/dcmitype/StillImage" /><dc:title /></cc:Work></rdf:RDF></metadata><sodipodi:namedview
   pagecolor="#ffffff"
   bordercolor="#666666"
   borderopacity="1"
   objecttolerance="10"
   gridtolerance="10"
   guidetolerance="10"
   inkscape:pageopacity="0"
   inkscape:pageshadow="2"
   inkscape:window-width="1920"
   inkscape:window-height="1015"
   id="namedview12"
   showgrid="false"
   inkscape:zoom="0.6002692"
   inkscape:cx="525.08761"
   inkscape:cy="601.43824"
   inkscape:window-x="1920"
   inkscape:window-y="0"
   inkscape:window-maximized="1"
   inkscape:current-layer="svg10"
   showguides="true"
   inkscape:guide-bbox="true"
   inkscape:document-rotation="0"><sodipodi:guide
     position="0,1000"
     orientation="0,1"
     id="guide16"
     inkscape:label=""
     inkscape:locked="true"
     inkscape:color="rgb(0,0,255)" /><sodipodi:guide
     position="1763.3122,2036.1693"
     orientation="1000,0"
     id="guide18" /><sodipodi:guide
     position="0,200"
     orientation="0,1"
     id="guide20"
     inkscape:label="base"
     inkscape:locked="true"
     inkscape:color="rgb(0,0,255)" /><inkscape:grid
     type="xygrid"
     id="grid24"
     originx="-473.37552"
     originy="-489.69235" /><sodipodi:guide
     position="0,0"
     orientation="0,1"
     id="guide34"
     inkscape:label="bottom"
     inkscape:locked="true"
     inkscape:color="rgb(0,0,255)" /><sodipodi:guide
     position="225.05109,1693.3186"
     orientation="0,1"
     id="guide44"
     inkscape:label=""
     inkscape:locked="false"
     inkscape:color="rgb(0,0,255)" /><sodipodi:guide
     position="0,900"
     orientation="0,1"
     id="guide46"
     inkscape:label=""
     inkscape:locked="true"
     inkscape:color="rgb(0,0,255)" /><sodipodi:guide
     position="1111.1681,730.12109"
     orientation="1,0"
     id="guide867" /></sodipodi:namedview>
 <defs
   id="defs4"><inkscape:path-effect
   effect="spiro"
   id="path-effect865"
   is_visible="true"
   lpeversion="1" /><inkscape:path-effect
   effect="spiro"
   id="path-effect851"
   is_visible="true"
   lpeversion="1" />
  <style
   type="text/css"
   id="style2">
   <![CDATA[
    .fil0 {fill:#EF7F1A;fill-rule:nonzero}
   ]]>
  </style>
 <inkscape:path-effect
   effect="spiro"
   id="path-effect1214"
   is_visible="true"
   lpeversion="1" /><inkscape:path-effect
   effect="spiro"
   id="path-effect1195"
   is_visible="true"
   lpeversion="1" /><inkscape:path-effect
   effect="spiro"
   id="path-effect992"
   is_visible="true"
   lpeversion="1" /><inkscape:path-effect
   effect="spiro"
   id="path-effect1060"
   is_visible="true"
   lpeversion="1" /><inkscape:path-effect
   effect="spiro"
   id="path-effect1047"
   is_visible="true"
   lpeversion="1" /><inkscape:path-effect
   effect="spiro"
   id="path-effect1085"
   is_visible="true"
   lpeversion="1" /><inkscape:path-effect
   effect="spiro"
   id="path-effect1286"
   is_visible="true"
   lpeversion="1" /><inkscape:path-effect
   effect="spiro"
   id="path-effect1305"
   is_visible="true"
   lpeversion="1" /></defs>
 
<path
   id="path1210-6"
   style="display:inline;fill:#1a1a1a;fill-rule:nonzero;stroke:none;stroke-width:2.22142px;stroke-linecap:butt;stroke-linejoin:miter;stroke-opacity:1"
   d="m 473.14772,621.67535 c 14.64752,-33.0091 25.34327,-67.76966 31.78621,-103.3033 6.92179,-38.17457 8.90942,-77.56595 2.05364,-115.75243 -5.34913,-29.79447 -15.98143,-58.40522 -28.32927,-86.04314 -7.41199,-16.59011 -15.57535,-33.07651 -27.23296,-47.01456 -11.65761,-13.93806 -27.20943,-25.26942 -45.02352,-28.85093 -17.61863,-3.54221 -36.16619,0.77124 -52.07473,9.13077 -15.90853,8.35953 -29.47914,20.54291 -42.01893,33.41602 -36.26883,37.23289 -65.49462,81.61114 -83.32076,130.4368 -11.42041,31.28041 -18.13742,64.26673 -19.94386,97.51769 -1.13397,20.87284 -0.20921,42.45637 8.26861,61.56364 4.23892,9.55363 10.36818,18.34946 18.35281,25.09379 7.98463,6.74433 17.87016,11.37027 28.26368,12.4726 9.77434,1.03666 19.77716,-1.06246 28.58649,-5.42228 8.80933,-4.35982 16.44503,-10.92236 22.55917,-18.61844 12.22828,-15.39216 18.22673,-34.85199 21.50655,-54.23477 6.76315,-39.96825 2.91831,-81.44926 -9.17604,-120.13942 -12.42261,-39.74027 -33.66896,-76.92016 -62.96796,-106.50358 -13.89822,-14.03314 -29.77809,-26.46268 -48.01094,-34.05562 -18.23284,-7.59293 -39.02213,-10.06607 -57.92071,-4.32734 -20.57692,6.24838 -37.48406,21.79071 -48.62159,40.18656 -11.13754,18.39585 -16.987658,39.52905 -20.64327,60.72076 -8.551688,49.57443 -5.714198,100.47251 1.09345,150.31638 14.96535,109.5725 49.60834,217.48034 109.91382,310.18064 14.41238,22.15441 30.24271,43.38625 47.36194,63.52245 L 7.089009,894.77209 C 22.075682,857.49584 32.688844,818.46338 38.641373,778.73069 60.685629,631.58691 18.635558,483.42229 3.101344,335.44956 -0.0754893,305.18831 -2.1404519,274.61786 1.101251,244.36349 4.3712139,213.84538 13.256053,183.5257 30.179869,157.92038 45.075051,135.38433 66.697055,116.56559 92.56072,108.76747 c 27.77111,-8.37323 58.01578,-3.51528 85.27409,6.40087 63.02146,22.92623 114.35569,71.97106 148.93731,129.42912 34.58162,57.45806 53.59651,123.05151 65.39902,189.06679 7.08223,39.61323 11.70403,80.01816 7.98088,120.0869 -3.72315,40.06875 -16.22839,80.0199 -40.66618,111.99115 -10.50587,13.74452 -23.18222,25.93819 -37.88857,35.0491 -14.70634,9.11091 -31.48471,15.07797 -48.74168,16.2955 -15.99076,1.1282 -32.19495,-1.84279 -46.95353,-8.10072 -14.75858,-6.25794 -28.07476,-15.76075 -39.17118,-27.32996 -22.19286,-23.13842 -35.14703,-54.12134 -40.03024,-85.8083 -5.75951,-37.37325 -0.86533,-75.54925 5.98385,-112.73824 8.25227,-44.80732 19.34274,-89.0939 33.24589,-132.48167 13.11874,-40.93983 28.90515,-81.40277 52.30762,-117.46515 23.40247,-36.06238 54.92599,-67.71993 93.76901,-86.14248 29.78199,-14.12506 64.12094,-20.07763 96.20731,-12.53116 28.14112,6.61858 53.14274,23.15034 74.14825,43.01228 18.54219,17.53272 34.44182,37.85521 46.9978,60.07134 8.75299,-17.67801 19.98523,-34.12626 33.26521,-48.71286 25.69831,-28.22677 59.80055,-49.55986 97.37209,-56.30765 33.61565,-6.03732 68.92121,-0.16872 99.77937,14.46805 38.84227,18.42382 70.36536,50.08125 93.768,86.14336 23.40263,36.06212 39.18966,76.52466 52.30863,117.46427 13.90345,43.38768 24.99374,87.67433 33.24593,132.48167 6.84912,37.18899 11.74331,75.36499 5.9838,112.73824 -4.88321,31.68696 -17.83739,62.66986 -40.03025,85.80827 -11.09642,11.56921 -24.4126,21.07202 -39.17117,27.32996 -14.75857,6.25794 -30.96276,9.22893 -46.95352,8.10075 -17.25697,-1.21752 -34.03536,-7.18455 -48.74171,-16.29546 -14.70635,-9.11091 -27.38271,-21.30458 -37.88854,-35.04914 -24.43767,-31.97128 -36.9426,-71.92249 -40.66561,-111.9912 -3.72302,-40.06871 0.89871,-80.47355 7.98031,-120.08685 11.80158,-66.01607 30.81418,-131.61091 65.39527,-189.07 34.5811,-57.45908 85.9172,-106.5045 148.94106,-129.42591 27.25869,-9.91382 57.5018,-14.76876 85.27406,-6.40087 25.8663,7.79363 47.4991,26.60651 62.3809,49.15291 16.9058,25.61289 25.7355,55.93654 29.0786,86.44311 3.3152,30.25225 1.4473,60.84859 -2.0001,91.08607 -8.4581,74.18761 -26.3491,146.96599 -37.6557,220.77318 -11.3066,73.80719 -15.8911,150.0435 2.1157,222.50795 10.2592,41.28581 27.7929,80.75319 51.5523,116.0414 l -240.5205,-2.80445 c 8.98286,-21.23315 18.10377,-42.40789 27.36194,-63.52245 44.17517,-100.74767 91.95276,-201.64982 109.91376,-310.18064 8.2212,-49.67716 10.009,-100.75912 1.0935,-150.31638 -3.8045,-21.14771 -9.6683,-42.2437 -20.7739,-60.63841 -11.10562,-18.3947 -27.94427,-33.98145 -48.491,-40.26891 -18.8914,-5.78091 -39.69605,-3.31546 -57.93142,4.28553 -18.23537,7.60099 -34.10782,20.05086 -48.00018,34.09743 -29.27714,29.60213 -50.52377,66.77224 -62.96796,106.50358 -12.11697,38.68659 -16.00028,80.17816 -9.17604,120.13942 3.30593,19.35878 9.346,38.78097 21.57459,54.14824 6.11429,7.68363 13.73976,14.23877 22.53311,18.60909 8.79336,4.37032 18.77414,6.49933 28.54451,5.51816 10.4274,-1.04715 20.36969,-5.61801 28.41667,-12.33167 8.04698,-6.71366 14.24176,-15.50335 18.51728,-25.07137 8.55104,-19.13605 9.42395,-40.81912 7.95115,-61.72699 -2.3365,-33.16902 -10.19862,-65.7266 -19.94386,-97.51769 -7.73212,-25.22383 -16.74027,-50.23841 -29.96596,-73.06621 -13.22569,-22.8278 -30.90909,-43.50633 -53.3548,-57.37059 -27.74234,-17.13587 -62.12442,-22.96887 -94.09366,-16.54679 -17.82613,3.58097 -34.96352,10.87797 -49.53976,21.74662 -18.99422,14.16289 -33.25619,34.09467 -42.67113,55.83695 -9.41493,21.74229 -14.16181,45.2821 -16.2515,68.88297 -4.74894,53.6342 4.13807,108.31345 24.78023,158.04353 5.59981,13.49078 12.04986,26.62857 19.29918,39.30951 z"
   sodipodi:nodetypes="caaaaaaaaaaaaaaaccaaaaaaaaacaaaaacaaaaacaaaaaaaaaccaaaaaaaaaaaaaaacc"
   inkscape:original-d="m 473.14772,621.67535 c 10.36705,-33.93407 26.11316,-67.72509 31.78621,-103.3033 6.07656,-38.10879 7.82672,-77.59648 2.05364,-115.75243 -4.51725,-29.8558 -12.81622,-60.13716 -28.32927,-86.04314 -17.94178,-29.96184 -37.97882,-69.18258 -72.25648,-75.86549 -33.78584,-6.58703 -68.06814,20.01805 -94.09366,42.54679 -39.00773,33.76665 -63.94035,82.62269 -83.32076,130.4368 -12.46338,30.74886 -24.96634,64.7213 -19.94386,97.51769 5.71749,37.33472 17.39243,94.56159 54.8851,99.13003 35.33732,4.30582 60.91607,-44.66702 72.65221,-78.27549 13.24093,-37.91772 2.88802,-81.83101 -9.17604,-120.13942 C 315.01673,372.59011 296.18562,331.74684 264.43685,305.42381 235.5247,281.45263 194.26272,255.5548 158.5052,267.04085 c -38.84272,12.47708 -57.3199,61.89768 -69.26486,100.90732 -14.6706,47.911 -7.57683,100.96543 1.09345,150.31638 18.98085,108.03838 58.23022,213.42647 109.91382,310.18064 12.44434,23.2964 23.7445,44.51166 47.36194,63.52245 L 7.089009,894.77209 C 30.470306,862.89798 34.929155,818.64328 38.641373,778.73069 52.369223,631.1332 10.654959,483.4915 3.101344,335.44956 1.553808,305.11967 -3.475287,274.38602 1.101251,244.36349 5.682556,214.30968 12.66527,182.76909 30.179869,157.92038 45.431484,136.28226 67.240656,116.49496 92.56072,108.76747 c 27.26324,-8.32054 60.63242,-7.92756 85.27409,6.40087 110.62463,64.32507 185.63441,193.78936 214.33633,318.49591 17.5223,76.13239 10.63915,167.0691 -32.6853,232.07805 -18.61555,27.9329 -53.28532,55.20479 -86.63025,51.3446 -57.93589,-6.70698 -117.08592,-57.90829 -126.15495,-121.23898 -4.96717,-37.47677 0.38066,-75.52541 5.98385,-112.73824 6.77907,-45.02231 14.09619,-91.17485 33.24589,-132.48167 35.1322,-75.78186 74.38945,-160.73445 146.07663,-203.60763 27.75505,-16.59917 64.49958,-18.8947 96.20731,-12.53116 28.01491,5.62241 52.59645,24.25151 74.14825,43.01228 19.17614,16.69277 46.9978,60.07134 46.9978,60.07134 0,0 18.85123,-35.33938 33.26521,-48.71286 27.4854,-25.5013 60.55434,-49.22126 97.37209,-56.30765 33.00189,-6.35194 71.062,-2.99004 99.77937,14.46805 71.37502,43.39087 110.94442,127.82578 146.07663,203.60763 19.1497,41.30682 26.46686,87.45935 33.24593,132.48167 5.60319,37.21283 10.951,75.26147 5.9838,112.73824 -9.069,63.33069 -68.21905,114.532 -126.15494,121.23898 -33.34493,3.86019 -68.0147,-23.4117 -86.63025,-51.3446 -43.32445,-65.00895 -50.2076,-155.94566 -32.6853,-232.07805 28.70192,-124.70655 103.7117,-254.17084 214.33633,-318.49591 24.64166,-14.32842 58.01086,-14.7214 85.27406,-6.40087 25.3201,7.72749 47.1293,27.51478 62.3809,49.15291 17.5146,24.84871 24.4973,56.3893 29.0786,86.44311 4.5765,30.02253 -0.4526,60.75618 -2.0001,91.08607 -7.5536,148.04194 -60.4773,297.15925 -35.54,443.28113 7.1204,41.72256 28.171,84.16729 51.5523,116.0414 l -240.5205,-2.80445 c 23.61744,-19.01079 18.94679,-42.05815 27.36194,-63.52245 40.03842,-102.12486 90.93286,-202.14227 109.91376,-310.18064 8.6703,-49.35095 15.7641,-102.40538 1.0935,-150.31638 -11.945,-39.00965 -30.4222,-88.43025 -69.2649,-100.90732 -35.75751,-11.48604 -77.01947,14.41179 -105.9316,38.38296 -31.74876,26.32304 -50.57988,67.1663 -62.96796,106.50358 -12.06406,38.30841 -22.41697,82.2217 -9.17604,120.13942 11.73614,33.60847 37.31489,82.58131 72.65221,78.27549 37.49267,-4.56844 49.16761,-61.79531 54.8851,-99.13003 5.02248,-32.79639 -7.48048,-66.76883 -19.94386,-97.51769 -19.38041,-47.81411 -40.39914,-101.80947 -83.32076,-130.4368 -26.49365,-17.67041 -62.47603,-20.35235 -94.09366,-16.54679 -17.90501,2.15508 -36.61217,9.17239 -49.53976,21.74662 -32.95968,32.05875 -52.37384,79.20929 -58.92263,124.71992 -7.59499,52.78116 8.71852,107.19516 24.78023,158.04353 4.39674,13.91927 19.29918,39.30951 19.29918,39.30951 z"
   inkscape:path-effect="#path-effect1305" /></svg>
