<?xml version="1.0" encoding="UTF-8"?>
<!DOCTYPE svg PUBLIC "-//W3C//DTD SVG 1.1//EN" "http://www.w3.org/Graphics/SVG/1.1/DTD/svg11.dtd">
<!-- Creator: CorelDRAW X8 -->
<svg xmlns="http://www.w3.org/2000/svg" xml:space="preserve" width="2698px" height="1486px" version="1.1" style="shape-rendering:geometricPrecision; text-rendering:geometricPrecision; image-rendering:optimizeQuality; fill-rule:evenodd; clip-rule:evenodd"
viewBox="0 0 2698 1486"
 xmlns:xlink="http://www.w3.org/1999/xlink">
 <defs>
  <style type="text/css">
   <![CDATA[
    .fil0 {fill:#EF7F1A;fill-rule:nonzero}
   ]]>
  </style>
 </defs>
 <g id="Layer_x0020_1">
  <metadata id="CorelCorpID_0Corel-Layer"/>
  <path class="fil0" d="M2188 111c101,0 300,46 299,164 0,39 -12,63 -57,63 -66,0 -138,-27 -211,-28 -45,-1 -89,7 -131,32 -66,39 -93,104 -93,179 0,76 39,142 105,179 39,22 86,33 136,33 56,0 106,-16 156,-16 50,0 101,26 101,82 0,71 -60,89 -120,89l-246 0c-32,0 -101,14 -101,56 0,42 69,56 101,56l254 0c71,0 114,44 114,113 0,89 -82,140 -157,170 -218,87 -569,91 -807,91 -241,0 -596,-12 -813,-86 -328,-112 -516,-360 -515,-708 0,-188 72,-386 242,-486 19,-11 27,-25 27,-38 0,-15 -11,-30 -31,-41 -19,-10 -44,-15 -70,-15 -27,0 -54,6 -74,18 -203,120 -297,332 -297,562 0,397 237,676 612,803 258,87 640,103 919,103 271,0 609,-8 867,-89 135,-42 300,-123 300,-284 0,-66 -42,-133 -97,-169 60,-34 91,-78 91,-147 0,-124 -107,-203 -225,-203 -61,0 -121,18 -182,18 -56,0 -104,-27 -104,-91 0,-54 31,-84 85,-84 63,0 127,24 193,24 117,0 217,-56 217,-186 0,-232 -304,-275 -488,-275 -139,0 -339,25 -440,125 -103,-98 -245,-124 -383,-124 -79,0 -152,11 -226,35 -74,-25 -152,-35 -230,-35 -202,0 -398,100 -493,278 -48,89 -70,191 -70,291 0,165 62,338 212,427 29,17 64,28 98,28 23,0 47,-5 68,-18 18,-11 27,-24 27,-38 0,-15 -11,-30 -32,-41 -126,-64 -170,-229 -170,-358 0,-89 18,-181 61,-260 56,-105 173,-198 299,-198 24,0 47,2 71,6 -150,112 -228,295 -228,478 0,84 17,175 58,249 68,122 188,180 327,180 140,0 262,-57 330,-180 42,-75 59,-164 59,-249 0,-180 -79,-369 -229,-478 22,-4 45,-6 68,-6 174,1 278,116 278,283l0 574c0,42 69,56 101,56 32,0 102,-14 102,-56l0 -579c0,-216 163,-279 342,-279zm-1051 803c-60,0 -106,-53 -133,-101 -36,-64 -50,-144 -50,-217 0,-149 62,-315 184,-408 124,94 185,257 185,408 0,73 -14,151 -50,216 -27,48 -75,102 -136,102z"/>
 </g>
</svg>
