<?xml version="1.0" encoding="UTF-8"?>
<!DOCTYPE svg PUBLIC "-//W3C//DTD SVG 1.1//EN" "http://www.w3.org/Graphics/SVG/1.1/DTD/svg11.dtd">
<!-- Creator: CorelDRAW X8 -->
<svg xmlns="http://www.w3.org/2000/svg" xml:space="preserve" width="2811px" height="1486px" version="1.1" style="shape-rendering:geometricPrecision; text-rendering:geometricPrecision; image-rendering:optimizeQuality; fill-rule:evenodd; clip-rule:evenodd"
viewBox="0 0 2811 1486"
 xmlns:xlink="http://www.w3.org/1999/xlink">
 <defs>
  <style type="text/css">
   <![CDATA[
    .fil0 {fill:#EF7F1A;fill-rule:nonzero}
   ]]>
  </style>
 </defs>
 <g id="Layer_x0020_1">
  <metadata id="CorelCorpID_0Corel-Layer"/>
  <path class="fil0" d="M2661 1486c47,0 102,-28 102,-80 0,-51 -55,-79 -102,-79l-2345 0c-54,0 -111,0 -111,-70 0,-63 59,-67 111,-67l1831 0c180,0 358,-39 490,-167 121,-117 174,-264 174,-429 0,-156 -54,-311 -164,-424 -110,-113 -261,-170 -417,-170 -77,0 -155,11 -227,35 -73,-24 -150,-35 -227,-35 -133,0 -280,25 -377,122 -98,-97 -248,-122 -380,-122 -78,0 -152,11 -226,36 -74,-26 -152,-36 -230,-36 -202,0 -398,100 -493,280 -47,89 -70,185 -70,285 0,167 63,340 212,430 30,18 63,29 96,29 24,0 48,-6 70,-19 19,-11 27,-24 27,-38 0,-15 -11,-30 -32,-41 -126,-64 -170,-231 -170,-361 0,-89 20,-174 62,-254 57,-106 172,-199 298,-199 24,0 48,2 71,6 -150,113 -229,290 -229,474 1,85 18,176 59,251 68,122 188,181 327,181 141,0 261,-59 329,-182 42,-75 59,-165 59,-250 0,-182 -78,-364 -228,-474 24,-4 44,-6 68,-6 173,0 279,119 278,285l0 570c0,42 68,56 100,56 33,0 102,-14 102,-56l0 -570c1,-167 102,-285 277,-285 23,0 47,1 70,6 -152,113 -230,289 -230,474 0,84 17,175 59,250 68,122 188,180 327,180 140,0 261,-58 329,-181 42,-75 59,-164 59,-249 0,-185 -78,-362 -229,-475 23,-4 46,-6 69,-6 109,-1 207,66 271,150 72,95 108,217 108,335 0,145 -42,269 -148,372 -76,73 -169,111 -274,111l-1871 0c-138,0 -316,28 -316,204 0,170 175,203 316,203l2345 0zm-659 -575c-60,0 -107,-53 -134,-102 -35,-64 -50,-144 -50,-217 0,-152 61,-309 185,-405 123,95 185,254 185,405 0,73 -14,152 -50,216 -28,49 -75,103 -136,103zm-1211 1c-60,0 -106,-54 -133,-102 -35,-65 -50,-145 -50,-218 0,-150 61,-310 184,-404 124,95 185,252 185,404 0,74 -13,152 -50,217 -26,48 -75,103 -136,103z"/>
 </g>
</svg>
