<?xml version="1.0" encoding="UTF-8"?>
<!DOCTYPE svg PUBLIC "-//W3C//DTD SVG 1.1//EN" "http://www.w3.org/Graphics/SVG/1.1/DTD/svg11.dtd">
<!-- Creator: CorelDRAW X8 -->
<svg xmlns="http://www.w3.org/2000/svg" xml:space="preserve" width="1368px" height="1000px" version="1.1" style="shape-rendering:geometricPrecision; text-rendering:geometricPrecision; image-rendering:optimizeQuality; fill-rule:evenodd; clip-rule:evenodd"
viewBox="0 0 1368 1000"
 xmlns:xlink="http://www.w3.org/1999/xlink">
 <defs>
  <style type="text/css">
   <![CDATA[
    .fil0 {fill:#EF7F1A;fill-rule:nonzero}
   ]]>
  </style>
 </defs>
 <g id="Layer_x0020_1">
  <metadata id="CorelCorpID_0Corel-Layer"/>
  <path class="fil0" d="M1267 1000c32,0 101,-14 101,-56l0 -543c0,-249 -227,-400 -465,-401 -244,0 -451,142 -451,395l0 494 -249 0 0 -833c0,-42 -69,-56 -101,-56 -33,0 -102,14 -102,56l0 888c0,42 69,56 102,56l1165 0zm-101 -111l-512 0 0 -494c0,-148 82,-284 247,-284 162,0 265,140 265,290l0 488z"/>
 </g>
</svg>
