<?xml version="1.0" encoding="UTF-8" standalone="no"?>
<svg
   xmlns:dc="http://purl.org/dc/elements/1.1/"
   xmlns:cc="http://creativecommons.org/ns#"
   xmlns:rdf="http://www.w3.org/1999/02/22-rdf-syntax-ns#"
   xmlns:svg="http://www.w3.org/2000/svg"
   xmlns="http://www.w3.org/2000/svg"
   xmlns:sodipodi="http://sodipodi.sourceforge.net/DTD/sodipodi-0.dtd"
   xmlns:inkscape="http://www.inkscape.org/namespaces/inkscape"
   xml:space="preserve"
   width="1000"
   height="1000"
   version="1.1"
   style="clip-rule:evenodd;fill-rule:evenodd;image-rendering:optimizeQuality;shape-rendering:geometricPrecision;text-rendering:geometricPrecision"
   viewBox="0 0 1000 1000"
   id="svg10"
   sodipodi:docname="ഥ.svg"
   inkscape:version="1.0.1 (3bc2e813f5, 2020-09-07)"><metadata
   id="metadata14"><rdf:RDF><cc:Work
       rdf:about=""><dc:format>image/svg+xml</dc:format><dc:type
         rdf:resource="http://purl.org/dc/dcmitype/StillImage" /><dc:title /></cc:Work></rdf:RDF></metadata><sodipodi:namedview
   pagecolor="#ffffff"
   bordercolor="#666666"
   borderopacity="1"
   objecttolerance="10"
   gridtolerance="10"
   guidetolerance="10"
   inkscape:pageopacity="0"
   inkscape:pageshadow="2"
   inkscape:window-width="1920"
   inkscape:window-height="1015"
   id="namedview12"
   showgrid="false"
   inkscape:zoom="0.84890884"
   inkscape:cx="404.61518"
   inkscape:cy="532.40351"
   inkscape:window-x="1920"
   inkscape:window-y="0"
   inkscape:window-maximized="1"
   inkscape:current-layer="svg10"
   showguides="true"
   inkscape:guide-bbox="true"
   inkscape:document-rotation="0"><sodipodi:guide
     position="0,1000"
     orientation="0,1"
     id="guide16"
     inkscape:label=""
     inkscape:locked="true"
     inkscape:color="rgb(0,0,255)" /><sodipodi:guide
     position="1763.3122,2036.1693"
     orientation="1000,0"
     id="guide18" /><sodipodi:guide
     position="0,200"
     orientation="0,1"
     id="guide20"
     inkscape:label="base"
     inkscape:locked="true"
     inkscape:color="rgb(0,0,255)" /><inkscape:grid
     type="xygrid"
     id="grid24"
     originx="-473.37552"
     originy="-489.69235" /><sodipodi:guide
     position="0,0"
     orientation="0,1"
     id="guide34"
     inkscape:label="bottom"
     inkscape:locked="true"
     inkscape:color="rgb(0,0,255)" /><sodipodi:guide
     position="225.05109,1693.3186"
     orientation="0,1"
     id="guide44"
     inkscape:label=""
     inkscape:locked="false"
     inkscape:color="rgb(0,0,255)" /><sodipodi:guide
     position="0,900"
     orientation="0,1"
     id="guide46"
     inkscape:label=""
     inkscape:locked="true"
     inkscape:color="rgb(0,0,255)" /><sodipodi:guide
     position="589.15848,888.17033"
     orientation="1,0"
     id="guide841" /></sodipodi:namedview>
 <defs
   id="defs4"><inkscape:path-effect
   effect="spiro"
   id="path-effect850"
   is_visible="true"
   lpeversion="1" /><inkscape:path-effect
   effect="spiro"
   id="path-effect851"
   is_visible="true"
   lpeversion="1" />
  <style
   type="text/css"
   id="style2">
   <![CDATA[
    .fil0 {fill:#EF7F1A;fill-rule:nonzero}
   ]]>
  </style>
 <inkscape:path-effect
   effect="spiro"
   id="path-effect1214"
   is_visible="true"
   lpeversion="1" /><inkscape:path-effect
   effect="spiro"
   id="path-effect1195"
   is_visible="true"
   lpeversion="1" /><inkscape:path-effect
   effect="spiro"
   id="path-effect992"
   is_visible="true"
   lpeversion="1" /><inkscape:path-effect
   effect="spiro"
   id="path-effect1060"
   is_visible="true"
   lpeversion="1" /><inkscape:path-effect
   effect="spiro"
   id="path-effect1047"
   is_visible="true"
   lpeversion="1" /><inkscape:path-effect
   effect="spiro"
   id="path-effect1085"
   is_visible="true"
   lpeversion="1" /><inkscape:path-effect
   effect="spiro"
   id="path-effect1286"
   is_visible="true"
   lpeversion="1" /><inkscape:path-effect
   effect="spiro"
   id="path-effect1305"
   is_visible="true"
   lpeversion="1" /></defs>
 
<path
   style="fill:#2d2d2d;fill-rule:nonzero;stroke:#000000;stroke-width:1px;stroke-linecap:butt;stroke-linejoin:miter;stroke-opacity:1"
   d="M -7.628028,100 H 157.33615 c -5.26566,35.80793 -10.77363,71.58024 -16.5234,107.31363 -10.31579,64.11006 -21.42066,128.17853 -27.03953,192.86967 -4.81687,55.45754 -5.58413,111.24463 -2.93057,166.84768 1.01095,21.18353 2.54611,42.51539 8.2064,62.95372 5.66028,20.43833 15.74537,40.12215 31.59436,54.21376 13.17347,11.71276 29.74367,19.06943 46.76468,23.65358 17.021,4.58416 34.61875,6.54961 52.12362,8.62528 29.71728,3.52378 59.64104,7.41443 89.47638,5.09365 37.62867,-2.92699 74.47991,-15.95891 105.33291,-37.69773 30.853,-21.73883 55.58702,-52.16438 70.16617,-86.9772 23.43187,-55.9518 19.973,-119.25509 12.0634,-179.39738 -5.67215,-43.12936 -13.82635,-87.08987 -36.19201,-124.40063 -11.18283,-18.65537 -25.90177,-35.38283 -43.95555,-47.51295 -18.05379,-12.13012 -39.535,-19.51065 -61.28521,-19.42496 -22.77043,0.0897 -45.19047,8.38973 -63.49103,21.93928 -18.30055,13.54955 -32.57069,32.16541 -42.35191,52.7282 -19.56244,41.12558 -21.13249,88.59019 -16.43979,133.88899 6.62927,63.99252 26.55106,129.26259 71.3195,175.46624 7.8747,8.12715 16.44165,15.58332 25.57764,22.26127 l -144.21978,73.48293 c 3.78632,-40.71139 4.64677,-81.69461 2.57252,-122.52905 -3.1988,-62.97277 -13.35692,-125.47036 -15.64611,-188.48275 -2.28919,-63.01239 3.76264,-127.87814 31.16465,-184.66662 16.31229,-33.80592 40.36304,-64.37871 71.6416,-85.12922 31.27855,-20.75051 70.06025,-31.106398 107.10722,-25.06874 37.77997,6.15712 71.60768,28.85453 96.15527,58.22548 24.5476,29.37094 40.49499,65.07569 51.70322,101.6764 22.60485,73.8166 26.86377,151.86481 29.16725,229.03063 1.40273,46.99089 2.08706,94.54169 -8.25638,140.40153 -10.34344,45.85983 -32.85384,90.49474 -70.25991,118.97099 -31.61017,24.06398 -71.3462,34.91926 -110.65305,40.68554 -66.87291,9.81019 -134.87328,6.38406 -202.43936,8.1308 -35.39012,0.91492 -70.72747,3.2546 -106.102264,4.64092 -11.064638,0.43362 -22.215133,0.7691 -33.146195,-0.99899 C 47.60983,799.04586 36.796074,795.02813 28.509528,787.68324 17.709876,778.11083 12.163046,763.71273 10.472966,749.3807 8.7828866,735.04866 10.564546,720.56175 12.273188,706.23192 23.291281,613.82669 31.325283,521.08949 38.358928,428.29588 44.986793,340.85565 50.428114,250.76444 23.009303,167.4702 15.271082,143.96264 4.9788119,121.29678 -7.628028,100 Z"
   id="path848"
   inkscape:path-effect="#path-effect850"
   inkscape:original-d="M -7.628028,100 H 157.33615 c 0,0 -11.25691,71.5061 -16.5234,107.31363 -9.44645,64.22766 -21.95348,128.15059 -27.03953,192.86967 -4.35789,55.4535 -11.51511,111.88963 -2.93057,166.84768 6.36576,40.75348 10.46054,88.17575 39.80076,117.16748 24.66454,24.37158 64.8132,25.86008 98.8883,32.27886 29.35743,5.5301 60.76939,13.36102 89.47638,5.09365 68.95605,-19.85875 140.4598,-62.0526 175.49908,-124.67493 29.26546,-52.30333 28.89692,-121.87575 12.0634,-179.39738 -22.27614,-76.11952 -62.23254,-195.54925 -141.43277,-191.33854 -80.47369,4.27841 -116.47556,128.17864 -122.28273,208.55647 -4.54959,62.97141 34.61827,124.0939 71.3195,175.46624 6.57041,9.1969 25.57764,22.26127 25.57764,22.26127 l -144.21978,73.48293 c 0,0 1.29496,-81.69701 2.57252,-122.52905 3.89319,-124.42975 -47.41024,-265.7348 15.51854,-373.14937 35.38219,-60.39466 109.39956,-119.689799 178.74882,-110.19796 71.92476,9.84435 117.16883,94.11261 147.85849,159.90188 32.53488,69.74485 35.59661,152.33953 29.16725,229.03063 -7.54647,90.01628 -16.53384,193.66061 -78.51629,259.37252 -26.96521,28.5877 -72.7477,32.47389 -110.65305,40.68554 -78.95303,17.10402 -134.96452,5.3001 -202.43936,8.1308 -35.37013,1.48385 -70.83851,7.7578 -106.102264,4.64092 -21.495643,-1.89996 -48.097159,1.30577 -63.177558,-14.1297 C 9.162651,767.88082 13.700773,733.87969 12.273188,706.23192 7.474838,613.30322 36.739955,521.33429 38.358928,428.29588 39.874202,341.21674 43.924056,252.01394 23.009303,167.4702 17.077696,143.49285 -7.628028,100 -7.628028,100 Z"
   sodipodi:nodetypes="ccaaaaaaaaaaaccaaaaaasaaaaaac" /></svg>
