<?xml version="1.0" encoding="UTF-8"?>
<!DOCTYPE svg PUBLIC "-//W3C//DTD SVG 1.1//EN" "http://www.w3.org/Graphics/SVG/1.1/DTD/svg11.dtd">
<!-- Creator: CorelDRAW X8 -->
<svg xmlns="http://www.w3.org/2000/svg" xml:space="preserve" width="706px" height="868px" version="1.1" style="shape-rendering:geometricPrecision; text-rendering:geometricPrecision; image-rendering:optimizeQuality; fill-rule:evenodd; clip-rule:evenodd"
viewBox="0 0 706 868"
 xmlns:xlink="http://www.w3.org/1999/xlink">
 <defs>
  <style type="text/css">
   <![CDATA[
    .fil0 {fill:#EF7F1A;fill-rule:nonzero}
   ]]>
  </style>
 </defs>
 <g id="Layer_x0020_1">
  <metadata id="CorelCorpID_0Corel-Layer"/>
  <path class="fil0" d="M568 796c93,-63 138,-158 138,-269 0,-47 -10,-94 -36,-134 -23,-37 -56,-64 -95,-83 20,-11 39,-27 52,-47 14,-22 21,-47 21,-73 -1,-63 -32,-111 -86,-143 -59,-35 -137,-47 -205,-47 -83,0 -169,18 -236,67 -85,63 -121,162 -121,265 0,87 27,175 85,242 16,19 43,26 69,26 12,0 24,-1 35,-4 15,-4 37,-16 37,-31 0,-4 -2,-9 -6,-14 -53,-59 -77,-140 -77,-219 0,-75 18,-155 74,-209 39,-37 87,-53 141,-54 37,0 79,9 108,33 27,22 39,54 40,88 1,19 -4,37 -15,52 -10,13 -24,22 -40,28 -17,6 -36,9 -52,9l-54 0c-21,0 -72,7 -72,34 0,28 52,35 72,35l54 -1c16,0 32,1 47,5 44,11 76,34 98,64 24,33 35,74 35,121 0,60 -17,139 -50,179 -26,-27 -72,-43 -108,-51 -41,-9 -83,-12 -125,-12 -46,0 -93,4 -138,15 -43,10 -119,39 -119,92 0,53 73,81 116,92 41,10 87,16 141,16 50,0 97,-4 143,-16 45,-11 88,-28 129,-56zm-273 7c-83,0 -122,-22 -122,-43 0,-21 44,-41 122,-41 79,0 120,21 120,41 0,20 -37,43 -120,43z"/>
 </g>
</svg>
