<?xml version="1.0" encoding="UTF-8"?>
<!DOCTYPE svg PUBLIC "-//W3C//DTD SVG 1.1//EN" "http://www.w3.org/Graphics/SVG/1.1/DTD/svg11.dtd">
<!-- Creator: CorelDRAW X8 -->
<svg xmlns="http://www.w3.org/2000/svg" xml:space="preserve" width="1061px" height="1486px" version="1.1" style="shape-rendering:geometricPrecision; text-rendering:geometricPrecision; image-rendering:optimizeQuality; fill-rule:evenodd; clip-rule:evenodd"
viewBox="0 0 1061 1486"
 xmlns:xlink="http://www.w3.org/1999/xlink">
 <defs>
  <style type="text/css">
   <![CDATA[
    .fil0 {fill:#A82682;fill-rule:nonzero}
   ]]>
  </style>
 </defs>
 <g id="Layer_x0020_1">
  <metadata id="CorelCorpID_0Corel-Layer"/>
  <path class="fil0" d="M449 1228c47,0 95,4 140,17 26,8 76,27 76,59 0,33 -51,53 -77,60 -45,13 -93,17 -139,17 -53,0 -117,-5 -166,-23 -22,-9 -57,-27 -56,-54 0,-27 35,-44 56,-52 49,-19 114,-24 166,-24zm308 -352c-62,19 -135,17 -200,17 -32,0 -102,14 -102,55 0,42 69,55 102,56 64,2 120,-10 186,3 72,14 130,70 135,144 2,39 -11,83 -33,116 -28,-71 -131,-107 -200,-123 -64,-15 -130,-20 -196,-20 -72,0 -147,6 -217,23 -73,19 -193,68 -194,157 0,88 117,138 189,157 70,18 150,26 222,25 81,-1 160,-3 239,-16 55,-9 115,-26 170,-51 113,-51 206,-137 203,-268 -2,-82 -48,-161 -118,-204 75,-49 119,-130 116,-219 -3,-89 -60,-165 -142,-200 81,-44 128,-113 127,-205 -1,-106 -50,-188 -141,-245 -94,-57 -216,-79 -325,-78 -134,1 -270,31 -378,112 -128,97 -185,243 -198,398 -13,166 31,341 139,472 34,41 93,49 143,36 33,-9 79,-39 48,-75 -100,-116 -140,-282 -128,-432 9,-109 43,-224 123,-303 69,-68 155,-95 251,-96 142,-1 263,61 264,211 1,67 -30,115 -95,137 -58,19 -129,15 -190,15 -32,0 -102,14 -102,56 0,42 70,56 103,56 64,0 124,-8 187,12 60,19 112,68 117,132 4,64 -42,126 -105,145z"/>
 </g>
</svg>
