<?xml version="1.0" encoding="UTF-8" standalone="no"?>
<svg
   xmlns:dc="http://purl.org/dc/elements/1.1/"
   xmlns:cc="http://creativecommons.org/ns#"
   xmlns:rdf="http://www.w3.org/1999/02/22-rdf-syntax-ns#"
   xmlns:svg="http://www.w3.org/2000/svg"
   xmlns="http://www.w3.org/2000/svg"
   xmlns:sodipodi="http://sodipodi.sourceforge.net/DTD/sodipodi-0.dtd"
   xmlns:inkscape="http://www.inkscape.org/namespaces/inkscape"
   xml:space="preserve"
   width="1000"
   height="1000"
   version="1.1"
   style="clip-rule:evenodd;fill-rule:evenodd;image-rendering:optimizeQuality;shape-rendering:geometricPrecision;text-rendering:geometricPrecision"
   viewBox="0 0 1000 1000"
   id="svg10"
   sodipodi:docname="ദ്ധ.svg"
   inkscape:version="1.0.1 (3bc2e813f5, 2020-09-07)"><metadata
   id="metadata14"><rdf:RDF><cc:Work
       rdf:about=""><dc:format>image/svg+xml</dc:format><dc:type
         rdf:resource="http://purl.org/dc/dcmitype/StillImage" /><dc:title /></cc:Work></rdf:RDF></metadata><sodipodi:namedview
   pagecolor="#ffffff"
   bordercolor="#666666"
   borderopacity="1"
   objecttolerance="10"
   gridtolerance="10"
   guidetolerance="10"
   inkscape:pageopacity="0"
   inkscape:pageshadow="2"
   inkscape:window-width="1920"
   inkscape:window-height="1015"
   id="namedview12"
   showgrid="false"
   inkscape:zoom="0.6002692"
   inkscape:cx="298.5039"
   inkscape:cy="511.00386"
   inkscape:window-x="1920"
   inkscape:window-y="0"
   inkscape:window-maximized="1"
   inkscape:current-layer="svg10"
   showguides="true"
   inkscape:guide-bbox="true"
   inkscape:document-rotation="0"><sodipodi:guide
   position="0,1000"
   orientation="0,1"
   id="guide16"
   inkscape:label=""
   inkscape:locked="true"
   inkscape:color="rgb(0,0,255)" /><sodipodi:guide
   position="1763.3122,2036.1693"
   orientation="1000,0"
   id="guide18" /><sodipodi:guide
   position="0,200"
   orientation="0,1"
   id="guide20"
   inkscape:label="base"
   inkscape:locked="true"
   inkscape:color="rgb(0,0,255)" /><inkscape:grid
   type="xygrid"
   id="grid24"
   originx="-473.37552"
   originy="-489.69235" /><sodipodi:guide
   position="0,0"
   orientation="0,1"
   id="guide34"
   inkscape:label="bottom"
   inkscape:locked="true"
   inkscape:color="rgb(0,0,255)" /><sodipodi:guide
   position="225.05109,1693.3186"
   orientation="0,1"
   id="guide44"
   inkscape:label=""
   inkscape:locked="false"
   inkscape:color="rgb(0,0,255)" /><sodipodi:guide
   position="0,900"
   orientation="0,1"
   id="guide46"
   inkscape:label=""
   inkscape:locked="true"
   inkscape:color="rgb(0,0,255)" /><sodipodi:guide
   position="1096.3863,875.12561"
   orientation="1,0"
   id="guide841"
   inkscape:label="width" />    </sodipodi:namedview>
 <defs
   id="defs4"><inkscape:path-effect
   effect="spiro"
   id="path-effect856"
   is_visible="true"
   lpeversion="1" /><inkscape:path-effect
   effect="spiro"
   id="path-effect850"
   is_visible="true"
   lpeversion="1" /><inkscape:path-effect
   effect="spiro"
   id="path-effect851"
   is_visible="true"
   lpeversion="1" />
  <style
   type="text/css"
   id="style2">
   <![CDATA[
    .fil0 {fill:#EF7F1A;fill-rule:nonzero}
   ]]>
  </style>
 <inkscape:path-effect
   effect="spiro"
   id="path-effect1214"
   is_visible="true"
   lpeversion="1" /><inkscape:path-effect
   effect="spiro"
   id="path-effect1195"
   is_visible="true"
   lpeversion="1" /><inkscape:path-effect
   effect="spiro"
   id="path-effect992"
   is_visible="true"
   lpeversion="1" /><inkscape:path-effect
   effect="spiro"
   id="path-effect1060"
   is_visible="true"
   lpeversion="1" /><inkscape:path-effect
   effect="spiro"
   id="path-effect1047"
   is_visible="true"
   lpeversion="1" /><inkscape:path-effect
   effect="spiro"
   id="path-effect1085"
   is_visible="true"
   lpeversion="1" /><inkscape:path-effect
   effect="spiro"
   id="path-effect1286"
   is_visible="true"
   lpeversion="1" /><inkscape:path-effect
   effect="spiro"
   id="path-effect1305"
   is_visible="true"
   lpeversion="1" /><inkscape:path-effect
   effect="spiro"
   id="path-effect862"
   is_visible="true"
   lpeversion="1" /><inkscape:path-effect
   effect="spiro"
   id="path-effect1521"
   is_visible="true"
   lpeversion="1" /><inkscape:path-effect
   effect="spiro"
   id="path-effect858"
   is_visible="true"
   lpeversion="1" /><inkscape:path-effect
   effect="spiro"
   id="path-effect854"
   is_visible="true"
   lpeversion="1" /><style
   type="text/css"
   id="style2-3">
   <![CDATA[
    .fil0 {fill:#EF7F1A;fill-rule:nonzero}
   ]]>
  </style><inkscape:path-effect
   effect="spiro"
   id="path-effect287"
   is_visible="true"
   lpeversion="1" /><inkscape:path-effect
   effect="spiro"
   id="path-effect1032"
   is_visible="true"
   lpeversion="1" /><inkscape:path-effect
   effect="spiro"
   id="path-effect1218"
   is_visible="true"
   lpeversion="1" /><inkscape:path-effect
   effect="spiro"
   id="path-effect309"
   is_visible="true"
   lpeversion="1" /><inkscape:path-effect
   effect="spiro"
   id="path-effect1176"
   is_visible="true"
   lpeversion="1" /><inkscape:path-effect
   effect="spiro"
   id="path-effect1026"
   is_visible="true"
   lpeversion="1" /><inkscape:path-effect
   effect="spiro"
   id="path-effect1030"
   is_visible="true"
   lpeversion="1" /></defs>
 
<g
   style="clip-rule:evenodd;fill-rule:evenodd;image-rendering:optimizeQuality;shape-rendering:geometricPrecision;text-rendering:geometricPrecision"
   id="g895"
   transform="translate(581.04866,133.23151)"><path
     style="display:inline;fill:#1a1a1a;stroke:none;stroke-width:2.09522px;stroke-linecap:butt;stroke-linejoin:miter;stroke-opacity:1"
     d="m 26.752137,617.34066 c 46.9135,-40.87754 74.409313,-103.14219 73.018243,-165.35083 9.00785,36.41593 22.99255,71.59729 41.44351,104.25955 27.19828,48.14697 65.39544,91.71107 115.10206,115.94182 24.85331,12.11538 52.32161,19.17162 79.97065,19.17776 27.64903,0.006 55.44341,-7.17634 78.95154,-21.73097 31.62707,-19.58133 54.28474,-51.73836 66.73133,-86.79235 12.44659,-35.05399 15.28141,-72.92819 13.19586,-110.0678 C 490.97405,398.13925 467.45043,325.72039 436.63804,257.60958 405.82566,189.49876 367.69559,125.00081 332.32387,59.14242 313.30148,23.724752 295.06312,-12.114005 277.62666,-48.33875 L 184.83222,66.03441 c 37.56232,21.084283 71.9267,47.85385 101.56113,79.11525 59.30557,62.56154 98.88556,142.59818 118.01025,226.65377 6.75442,29.6866 11.04794,60.49608 6.19963,90.55287 -2.42415,15.02839 -7.15542,29.75244 -14.65878,42.99739 -7.50335,13.24495 -17.82767,24.98512 -30.47046,33.46386 -14.20056,9.52344 -31.11977,14.75973 -48.19295,15.68629 -17.07318,0.92655 -34.27621,-2.38317 -50.09661,-8.86908 -31.64078,-12.97182 -57.09685,-38.19266 -75.69035,-66.89264 -22.22922,-34.31189 -35.56219,-73.92613 -41.89253,-114.31637 -6.33034,-40.39023 -5.82548,-81.61794 -1.84162,-122.30667 2.88012,-29.41584 7.56901,-58.65447 14.03136,-87.49584 L -2.22204,150.50299 c 11.3117242,20.16425 20.91831,41.28469 28.68362,63.06202 24.488189,68.6756 30.145039,144.87877 10.17472,215.00149 -11.906378,41.80743 -33.0972789,81.48688 -64.335348,111.7161 -33.686653,32.59873 -78.674092,53.29024 -125.347832,57.65247 22.4969,-21.4135 39.29091,-48.76472 48.20953,-78.51546 8.918621,-29.75075 9.940585,-61.83008 2.93369,-92.08817 -9.96801,-43.04514 -36.45544,-82.04632 -72.79271,-107.18292 -36.33726,-25.13661 -82.17414,-36.16639 -125.9688,-30.31201 12.73912,-7.6443 24.56789,-16.80418 35.15714,-27.22475 40.30212,-39.66014 61.19315,-98.36143 54.38323,-154.49353 -7.07631,-58.327828 -43.71357,-111.878682 -94.54335,-141.34974 -38.15409,-22.121705 -84.05775,-31.027886 -127.50077,-23.424745 -43.44303,7.603141 -83.98128,31.938462 -110.03877,67.520925 -30.36412,41.463331 -39.81863,94.72183 -41.17015,146.09654 -3.61482,137.40815 44.26217,274.03295 27.53816,410.46746 -4.15623,33.90657 -12.29969,67.32266 -24.20898,99.33982 l 142.40227,-27.87588 c -2.209,-19.83891 -5.65503,-39.54 -10.31144,-58.95082 -18.35992,-76.53561 -55.19824,-147.44947 -76.63418,-223.18114 -12.34293,-43.6067 -19.51702,-89.53912 -12.50917,-134.31391 3.50393,-22.3874 10.57873,-44.30687 21.77757,-64.00608 11.19885,-19.69921 26.58436,-37.13991 45.35308,-49.83669 25.17082,-17.027709 56.79921,-25.116585 86.69802,-19.67835 15.41421,2.803661 30.20228,9.125491 42.75117,18.50546 12.54889,9.37997 22.82634,21.81865 29.47671,36.00424 6.65038,14.18559 9.63987,30.09811 8.37685,45.71423 -1.26302,15.61612 -6.79981,30.89332 -16.00922,43.56791 -10.91951,15.02814 -26.98752,26.24152 -44.86004,31.30647 -17.87252,5.06495 -37.43461,3.94891 -54.61511,-3.11587 l 12.39125,117.15423 c 34.33969,-6.87894 69.87522,-7.74554 104.5094,-2.54865 18.33407,2.75104 36.52006,7.22527 53.40464,14.88147 16.88459,7.65619 32.47074,18.6009 44.15353,32.996 13.39985,16.51079 21.31502,37.35783 22.4672,58.5907 1.15217,21.23287 -4.43059,42.74995 -15.57496,60.85976 -11.88754,19.31748 -30.09685,34.70376 -51.19089,43.04163 -21.09404,8.33788 -44.9604,9.55138 -66.74433,3.23165 -21.45857,-6.22533 -40.73697,-19.7219 -53.92905,-37.75503 -13.19209,-18.03313 -20.21765,-40.49322 -19.65319,-62.82943 l -55.6168,96.34672 c 29.84763,29.89506 65.64029,53.83084 104.66952,69.99608 52.29191,21.65842 109.65473,29.18715 166.24243,28.0198 35.92412,-0.74108 71.9527,-4.94222 106.38738,-15.20593 34.434684,-10.26372 67.29765458,-26.7414 94.388157,-50.3464 z"
     id="path1087-1-75"
     inkscape:path-effect="#path-effect1030"
     inkscape:original-d="M 26.752137,617.34066 C 71.437951,576.92454 99.77038,451.98983 99.77038,451.98983 c 0,0 15.18457,77.63077 41.44351,104.25955 69.40874,70.38632 182.83677,151.55471 274.02425,113.38861 65.33084,-27.34392 79.55087,-126.03878 79.92719,-196.86015 C 495.9527,324.60151 340.58866,179.04018 332.32387,59.14242 324.05907,-60.75513 277.62666,-48.33875 277.62666,-48.33875 L 184.83222,66.03441 c 0,0 71.01054,48.97876 101.56113,79.11525 74.83004,71.85342 107.34677,142.14541 118.01025,226.65377 7.15632,56.71401 11.10815,139.37512 -38.92961,167.01412 -53.70508,29.66469 -133.96268,-13.56897 -173.97991,-60.07543 -52.31651,-60.80021 -42.78161,-156.41846 -43.73415,-236.62304 -0.35078,-29.53584 14.03136,-87.49584 14.03136,-87.49584 L -2.22204,150.50299 c 0,0 23.259807,40.61502 28.68362,63.06202 16.851202,69.74039 27.06225,145.26989 10.17472,215.00149 -10.114588,41.76492 -32.5928344,82.75014 -64.335348,111.7161 -33.971801,31.00025 -79.582272,14.07987 -125.347832,57.65247 45.76556,-44.6346 70.784114,-114.57849 51.14322,-170.60363 -26.65222,-76.02479 -198.76151,-137.49493 -198.76151,-137.49493 0,0 26.4828,-15.20618 35.15714,-27.22475 31.95111,-44.26928 61.21848,-100.32784 54.38323,-154.49353 -7.09683,-56.23849 -42.30843,-119.33508 -94.54335,-141.34974 -74.21102,-31.276597 -178.05968,-10.196055 -237.53954,44.09618 -37.36891,34.10973 -35.92553,95.77355 -41.17015,146.09654 -14.2146,136.39135 39.32022,273.84448 27.53816,410.46746 -2.92832,33.95634 -24.20898,99.33982 -24.20898,99.33982 l 142.40227,-27.87588 c 0,0 4.39338,-28.24487 -10.31144,-58.95082 -31.92283,-66.6598 -71.16952,-147.99076 -76.63418,-223.18114 -7.64507,-105.19134 -5.07357,-188.06993 54.62148,-248.15668 20.88606,-21.0231 60.17958,-32.90599 86.69802,-19.67835 47.01993,23.45399 86.79637,96.16742 64.59551,143.79184 -14.56154,31.23685 -99.47515,28.1906 -99.47515,28.1906 l 12.39125,117.15423 c 0,0 70.47175,-10.01453 104.5094,-2.54865 35.38322,7.76102 77.52181,17.69884 97.55817,47.87747 22.06004,33.22667 28.40192,85.86488 6.89224,119.45046 -22.77514,35.56148 -77.38149,58.05125 -117.93522,46.27328 -39.89349,-11.58622 -73.58224,-100.58446 -73.58224,-100.58446 l -55.6168,96.34672 c 40.11327,21.89593 65.66334,54.49762 104.66952,69.99608 52.22432,20.75047 110.20174,32.19146 166.24243,28.0198 70.20771,-5.22625 148.56188,-18.32765 200.775537,-65.55233 z"
     sodipodi:nodetypes="acaaascccaaaaccaaacacaaaaaaccssaaaccaaaaccaaa" /></g></svg>
