<?xml version="1.0" encoding="UTF-8" standalone="no"?>
<svg
   xmlns:dc="http://purl.org/dc/elements/1.1/"
   xmlns:cc="http://creativecommons.org/ns#"
   xmlns:rdf="http://www.w3.org/1999/02/22-rdf-syntax-ns#"
   xmlns:svg="http://www.w3.org/2000/svg"
   xmlns="http://www.w3.org/2000/svg"
   xmlns:sodipodi="http://sodipodi.sourceforge.net/DTD/sodipodi-0.dtd"
   xmlns:inkscape="http://www.inkscape.org/namespaces/inkscape"
   xml:space="preserve"
   width="1000"
   height="1000"
   version="1.1"
   style="clip-rule:evenodd;fill-rule:evenodd;image-rendering:optimizeQuality;shape-rendering:geometricPrecision;text-rendering:geometricPrecision"
   viewBox="0 0 1000 1000"
   id="svg10"
   sodipodi:docname="เดง.svg"
   inkscape:version="1.0.1 (3bc2e813f5, 2020-09-07)"><metadata
   id="metadata14"><rdf:RDF><cc:Work
       rdf:about=""><dc:format>image/svg+xml</dc:format><dc:type
         rdf:resource="http://purl.org/dc/dcmitype/StillImage" /><dc:title /></cc:Work></rdf:RDF></metadata><sodipodi:namedview
   pagecolor="#ffffff"
   bordercolor="#666666"
   borderopacity="1"
   objecttolerance="10"
   gridtolerance="10"
   guidetolerance="10"
   inkscape:pageopacity="0"
   inkscape:pageshadow="2"
   inkscape:window-width="1920"
   inkscape:window-height="1015"
   id="namedview12"
   showgrid="false"
   inkscape:zoom="0.9588368"
   inkscape:cx="315.44364"
   inkscape:cy="505.33877"
   inkscape:window-x="1920"
   inkscape:window-y="0"
   inkscape:window-maximized="1"
   inkscape:current-layer="svg10"
   showguides="true"
   inkscape:guide-bbox="true"
   inkscape:document-rotation="0"
   inkscape:snap-to-guides="true"><sodipodi:guide
     position="0,1000"
     orientation="0,1"
     id="guide16"
     inkscape:label=""
     inkscape:locked="true"
     inkscape:color="rgb(0,0,255)" /><sodipodi:guide
     position="1763.3122,2036.1693"
     orientation="1000,0"
     id="guide18" /><sodipodi:guide
     position="0,200"
     orientation="0,1"
     id="guide20"
     inkscape:label="base"
     inkscape:locked="true"
     inkscape:color="rgb(0,0,255)" /><inkscape:grid
     type="xygrid"
     id="grid24"
     originx="-473.37552"
     originy="-489.69235" /><sodipodi:guide
     position="0,0"
     orientation="0,1"
     id="guide34"
     inkscape:label="bottom"
     inkscape:locked="true"
     inkscape:color="rgb(0,0,255)" /><sodipodi:guide
     position="225.05109,1693.3186"
     orientation="0,1"
     id="guide44"
     inkscape:label=""
     inkscape:locked="false"
     inkscape:color="rgb(0,0,255)" /><sodipodi:guide
     position="0,900"
     orientation="0,1"
     id="guide46"
     inkscape:label=""
     inkscape:locked="true"
     inkscape:color="rgb(0,0,255)" /><sodipodi:guide
     position="778.78863,579.95671"
     orientation="-1,0"
     id="guide841"
     inkscape:label=""
     inkscape:locked="false"
     inkscape:color="rgb(0,0,255)" /><sodipodi:guide
     position="0,1000"
     orientation="0,1000"
     id="guide860" /><sodipodi:guide
     position="1000,1000"
     orientation="1000,0"
     id="guide862" /><sodipodi:guide
     position="1000,0"
     orientation="0,-1000"
     id="guide864" /><sodipodi:guide
     position="0,0"
     orientation="-1000,0"
     id="guide866" /></sodipodi:namedview>
 <defs
   id="defs4"><inkscape:path-effect
   effect="spiro"
   id="path-effect862"
   is_visible="true"
   lpeversion="1" /><inkscape:path-effect
   effect="spiro"
   id="path-effect1521"
   is_visible="true"
   lpeversion="1" /><inkscape:path-effect
   effect="spiro"
   id="path-effect858"
   is_visible="true"
   lpeversion="1" /><inkscape:path-effect
   effect="spiro"
   id="path-effect854"
   is_visible="true"
   lpeversion="1" />
  <style
   type="text/css"
   id="style2">
   <![CDATA[
    .fil0 {fill:#EF7F1A;fill-rule:nonzero}
   ]]>
  </style>
 <inkscape:path-effect
   effect="spiro"
   id="path-effect1214"
   is_visible="true"
   lpeversion="1" /><inkscape:path-effect
   effect="spiro"
   id="path-effect1195"
   is_visible="true"
   lpeversion="1" /><inkscape:path-effect
   effect="spiro"
   id="path-effect992"
   is_visible="true"
   lpeversion="1" /><inkscape:path-effect
   effect="spiro"
   id="path-effect287"
   is_visible="true"
   lpeversion="1" /><inkscape:path-effect
   effect="spiro"
   id="path-effect1032"
   is_visible="true"
   lpeversion="1" /><inkscape:path-effect
   effect="spiro"
   id="path-effect1218"
   is_visible="true"
   lpeversion="1" /><inkscape:path-effect
   effect="spiro"
   id="path-effect309"
   is_visible="true"
   lpeversion="1" /><inkscape:path-effect
   effect="spiro"
   id="path-effect1176"
   is_visible="true"
   lpeversion="1" /><inkscape:path-effect
   effect="spiro"
   id="path-effect1026"
   is_visible="true"
   lpeversion="1" /><inkscape:path-effect
   effect="spiro"
   id="path-effect1030"
   is_visible="true"
   lpeversion="1" /></defs>
 
<path
   style="display:inline;fill:#1a1a1a;stroke:none;stroke-width:2.09522px;stroke-linecap:butt;stroke-linejoin:miter;stroke-opacity:1"
   d="m 207.74684,71.26776 c -6.43023,28.201759 -15.01005,55.91313 -25.6405,82.81444 C 150.03722,235.23603 99.903613,307.7867 59.274313,385.01126 27.835881,444.76663 1.6165811,509.39446 0.60468511,576.90783 0.09873714,610.66452 6.0792715,644.74936 20.172872,675.42737 c 14.093601,30.67801 36.51433,57.82402 65.227417,75.58151 36.594291,22.63159 82.263201,28.99629 124.364741,20.1198 42.10153,-8.87648 80.51478,-32.3773 109.89587,-63.81108 36.84489,-39.41903 59.83727,-91.53972 64.10948,-145.32777 9.00785,36.41593 22.99255,71.59729 41.44351,104.25955 27.19828,48.14697 65.39544,91.71107 115.10206,115.94182 24.85331,12.11538 52.32161,19.17162 79.97065,19.17776 27.64903,0.006 55.44341,-7.17634 78.95154,-21.73097 31.62707,-19.58133 54.28474,-51.73836 66.73133,-86.79235 12.44659,-35.05399 15.28141,-72.92819 13.19586,-110.0678 C 774.97405,508.13925 751.45043,435.72039 720.63804,367.60958 689.82566,299.49876 651.69559,235.00081 616.32387,169.14242 597.30148,133.72475 579.06312,97.885995 561.62666,61.66125 l -92.79444,114.37316 c 37.56232,21.08428 71.9267,47.85385 101.56113,79.11525 59.30557,62.56154 98.88556,142.59818 118.01025,226.65377 6.75442,29.6866 11.04794,60.49608 6.19963,90.55287 -2.42415,15.02839 -7.15542,29.75244 -14.65878,42.99739 -7.50335,13.24495 -17.82767,24.98512 -30.47046,33.46386 -14.20056,9.52344 -31.11977,14.75973 -48.19295,15.68629 -17.07318,0.92655 -34.27621,-2.38317 -50.09661,-8.86908 -31.64078,-12.97182 -57.09685,-38.19266 -75.69035,-66.89264 -22.22922,-34.31189 -35.56219,-73.92613 -41.89253,-114.31637 -6.33034,-40.39023 -5.82548,-81.61794 -1.84162,-122.30667 2.88012,-29.41584 7.56901,-58.65447 14.03136,-87.49584 l -164.01333,-4.12025 c 11.18082,20.23256 20.78079,41.33847 28.68362,63.06202 24.97979,68.66528 32.47176,145.41878 10.17472,215.00149 -5.25354,16.3948 -12.15401,32.36551 -21.77548,46.64194 -9.62148,14.27644 -22.0554,26.84255 -37.01426,35.36439 -17.53013,9.98666 -38.26237,14.1252 -58.32767,12.02224 -20.06531,-2.10295 -39.38596,-10.38163 -55.00066,-23.15738 -17.28947,-14.14603 -29.9258,-33.60135 -37.16134,-54.73621 -7.23554,-21.13487 -9.19746,-43.8951 -7.1043,-66.13592 4.18631,-44.48166 24.10613,-85.98329 47.32869,-124.15206 24.45573,-40.19562 53.09329,-78.11059 87.55113,-110.14851 32.39425,-30.11925 69.79076,-54.84568 110.1904,-72.85749 z"
   id="path1087-1-75"
   inkscape:path-effect="#path-effect1030"
   inkscape:original-d="m 207.74684,71.26776 c -12.76427,34.18253 -14.53257,56.137 -25.6405,82.81444 -33.5142,80.48944 -104.759882,145.63441 -122.832027,230.92906 -25.352031,119.6533 -70.679379,291.24224 26.125976,365.99762 62.869841,48.54949 171.992131,5.62721 234.260611,-43.69128 41.50526,-32.87348 64.10948,-145.32777 64.10948,-145.32777 0,0 15.18453,77.63076 41.44351,104.25955 69.40875,70.38628 182.83674,151.55474 274.02425,113.38861 65.33084,-27.34388 79.55089,-126.03874 79.92719,-196.86015 C 779.95266,434.60147 624.58866,289.04018 616.32387,169.14242 608.05907,49.24487 561.62666,61.66125 561.62666,61.66125 l -92.79444,114.37316 c 0,0 71.01054,48.97876 101.56113,79.11525 74.83004,71.85342 107.34677,142.14541 118.01025,226.65377 7.15632,56.71401 11.10815,139.37512 -38.92961,167.01412 -53.70508,29.66469 -133.96268,-13.56897 -173.97991,-60.07543 -52.3165,-60.80021 -42.78161,-156.41846 -43.73415,-236.62304 -0.35078,-29.53584 14.03136,-87.49584 14.03136,-87.49584 l -164.01333,-4.12025 c 0,0 23.2598,40.61503 28.68362,63.06202 16.8512,69.74039 30.50826,146.19573 10.17472,215.00149 -9.53206,32.25511 -28.15389,68.12479 -58.78974,82.00633 -34.57432,15.66612 -88.01026,17.14572 -113.32833,-11.13514 -54.481448,-60.85701 -24.334,-168.07482 3.06305,-245.02419 15.73151,-44.18468 52.96972,-78.46425 87.55113,-110.14851 32.46628,-29.74634 110.1904,-72.85749 110.1904,-72.85749 z"
   sodipodi:nodetypes="caaaacaaascccaaaaccaaaaaacc" /></svg>
