<?xml version="1.0" encoding="UTF-8"?>
<!DOCTYPE svg PUBLIC "-//W3C//DTD SVG 1.1//EN" "http://www.w3.org/Graphics/SVG/1.1/DTD/svg11.dtd">
<!-- Creator: CorelDRAW X8 -->
<svg xmlns="http://www.w3.org/2000/svg" xml:space="preserve" width="1632px" height="1024px" version="1.1" style="shape-rendering:geometricPrecision; text-rendering:geometricPrecision; image-rendering:optimizeQuality; fill-rule:evenodd; clip-rule:evenodd"
viewBox="0 0 1632 1024"
 xmlns:xlink="http://www.w3.org/1999/xlink">
 <defs>
  <style type="text/css">
   <![CDATA[
    .fil0 {fill:#EF7F1A;fill-rule:nonzero}
   ]]>
  </style>
 </defs>
 <g id="Layer_x0020_1">
  <metadata id="CorelCorpID_0Corel-Layer"/>
  <path class="fil0" d="M1130 1024c190,0 368,-90 450,-262 38,-77 52,-164 52,-249 0,-208 -91,-414 -291,-500 -20,-9 -44,-13 -68,-13 -28,0 -57,7 -78,22 -15,11 -21,22 -21,33 0,18 16,35 40,45 154,63 215,260 215,413 0,67 -10,137 -35,199 -43,107 -141,201 -264,201 -151,0 -213,-114 -213,-249l0 -608c0,-42 -69,-56 -101,-56 -32,0 -102,14 -102,56l0 608c0,135 -61,249 -212,249 -123,0 -221,-94 -264,-201 -25,-62 -35,-132 -35,-199 0,-153 61,-350 215,-413 23,-10 40,-27 40,-45 0,-11 -6,-22 -21,-33 -21,-15 -50,-22 -78,-22 -24,0 -48,4 -68,13 -200,86 -291,292 -291,500 0,85 14,172 52,249 82,172 260,262 450,262 111,0 231,-26 314,-103 83,77 203,103 314,103z"/>
 </g>
</svg>
