<?xml version="1.0" encoding="UTF-8"?>
<!DOCTYPE svg PUBLIC "-//W3C//DTD SVG 1.1//EN" "http://www.w3.org/Graphics/SVG/1.1/DTD/svg11.dtd">
<!-- Creator: CorelDRAW X8 -->
<svg xmlns="http://www.w3.org/2000/svg" xml:space="preserve" width="1000px" height="600px" version="1.1" style="shape-rendering:geometricPrecision; text-rendering:geometricPrecision; image-rendering:optimizeQuality; fill-rule:evenodd; clip-rule:evenodd"
viewBox="0 0 1000 600"
 xmlns:xlink="http://www.w3.org/1999/xlink">
 <defs>
  <style type="text/css">
   <![CDATA[
    .fil0 {fill:#EF7F1A;fill-rule:nonzero}
   ]]>
  </style>
 </defs>
 <g id="Layer_x0020_1">
  <metadata id="CorelCorpID_0Corel-Layer"/>
  <path class="fil0" d="M689 600c115,0 228,-48 280,-154 22,-45 31,-94 31,-143 0,-125 -54,-244 -175,-294 -14,-6 -33,-9 -51,-9 -21,0 -43,4 -57,14 -9,6 -13,13 -13,20 0,11 11,21 26,27 92,38 127,152 127,243 0,38 -6,77 -20,112 -24,57 -82,115 -148,115 -83,0 -118,-70 -118,-142l0 -354c0,-28 -50,-35 -71,-35 -21,0 -71,7 -71,35l0 354c0,72 -35,142 -118,142 -66,0 -124,-58 -148,-115 -14,-35 -20,-74 -20,-112 0,-91 35,-205 127,-243 15,-6 26,-16 26,-27 0,-7 -4,-14 -13,-20 -14,-10 -36,-14 -57,-14 -18,0 -37,3 -51,9 -120,50 -175,169 -175,294 0,49 9,98 31,143 52,106 165,154 280,154 65,0 137,-12 189,-53 52,41 124,53 189,53z"/>
 </g>
</svg>
