<?xml version="1.0" encoding="UTF-8"?>
<!DOCTYPE svg PUBLIC "-//W3C//DTD SVG 1.1//EN" "http://www.w3.org/Graphics/SVG/1.1/DTD/svg11.dtd">
<!-- Creator: CorelDRAW X8 -->
<svg xmlns="http://www.w3.org/2000/svg" xml:space="preserve" width="1009px" height="868px" version="1.1" style="shape-rendering:geometricPrecision; text-rendering:geometricPrecision; image-rendering:optimizeQuality; fill-rule:evenodd; clip-rule:evenodd"
viewBox="0 0 1009 868"
 xmlns:xlink="http://www.w3.org/1999/xlink">
 <defs>
  <style type="text/css">
   <![CDATA[
    .fil0 {fill:#EF7F1A;fill-rule:nonzero}
   ]]>
  </style>
 </defs>
 <g id="Layer_x0020_1">
  <metadata id="CorelCorpID_0Corel-Layer"/>
  <path class="fil0" d="M689 600c57,0 114,-12 164,-37 -15,65 -45,130 -98,174 -5,-34 -37,-57 -68,-69 -30,-11 -64,-15 -92,-15 -32,0 -66,5 -95,17 -29,-12 -63,-17 -95,-17 -37,0 -83,7 -115,26 -24,15 -44,37 -45,67 0,49 51,85 93,100 51,17 109,22 163,22 48,0 102,-5 155,-15 56,-11 111,-29 155,-54 94,-54 147,-137 174,-231 18,-60 24,-124 24,-189 0,-51 -4,-105 -16,-155 -22,-93 -71,-175 -168,-215 -14,-6 -33,-9 -51,-9 -21,0 -43,4 -57,14 -9,6 -13,13 -13,20 0,11 11,21 26,27 92,38 127,152 127,243 0,38 -6,77 -20,112 -24,57 -82,115 -148,115 -83,0 -118,-70 -118,-142l0 -354c0,-28 -50,-35 -71,-35 -21,0 -71,7 -71,35l0 354c0,72 -35,142 -118,142 -66,0 -124,-58 -148,-115 -14,-35 -20,-74 -20,-112 0,-91 35,-205 127,-243 15,-6 26,-16 26,-27 0,-7 -4,-14 -13,-20 -14,-10 -36,-14 -57,-14 -18,0 -37,3 -51,9 -121,50 -175,169 -175,294 0,49 9,98 31,143 52,106 165,154 280,154 65,0 137,-12 189,-53 52,41 124,53 189,53zm-189 206c-32,0 -70,-2 -99,-14 -19,-9 -34,-23 -34,-44 0,-19 18,-34 36,-34 22,0 32,28 32,46 0,27 45,32 65,32 20,0 65,-6 65,-32 0,-18 9,-45 31,-46 18,0 37,15 37,34 0,21 -15,35 -34,44 -29,13 -67,14 -99,14z"/>
 </g>
</svg>
