<?xml version="1.0" encoding="UTF-8"?>
<!DOCTYPE svg PUBLIC "-//W3C//DTD SVG 1.1//EN" "http://www.w3.org/Graphics/SVG/1.1/DTD/svg11.dtd">
<!-- Creator: CorelDRAW X8 -->
<svg xmlns="http://www.w3.org/2000/svg" xml:space="preserve" width="1647px" height="1486px" version="1.1" style="shape-rendering:geometricPrecision; text-rendering:geometricPrecision; image-rendering:optimizeQuality; fill-rule:evenodd; clip-rule:evenodd"
viewBox="0 0 1647 1486"
 xmlns:xlink="http://www.w3.org/1999/xlink">
 <defs>
  <style type="text/css">
   <![CDATA[
    .fil0 {fill:#EF7F1A;fill-rule:nonzero}
   ]]>
  </style>
 </defs>
 <g id="Layer_x0020_1">
  <metadata id="CorelCorpID_0Corel-Layer"/>
  <path class="fil0" d="M816 1387c-57,0 -129,-4 -181,-27 -34,-15 -58,-40 -58,-78 0,-43 45,-61 82,-61 46,0 66,42 66,83 0,40 59,51 91,51 32,0 91,-11 91,-51 0,-41 20,-83 65,-83 37,0 83,17 83,61 0,38 -24,63 -57,78 -54,24 -124,27 -182,27zm0 99c81,0 168,-7 253,-25 89,-18 175,-47 249,-91 146,-86 234,-216 282,-369 35,-112 47,-229 47,-346 0,-83 -6,-170 -23,-252 -34,-166 -114,-318 -283,-390 -20,-9 -44,-13 -68,-13 -28,0 -57,7 -78,22 -15,11 -21,22 -21,33 0,18 16,35 40,45 154,63 215,260 215,413 0,67 -10,137 -35,199 -43,107 -141,201 -264,201 -151,0 -213,-114 -213,-249l0 -608c0,-42 -69,-56 -101,-56 -32,0 -102,14 -102,56l0 608c0,135 -61,249 -212,249 -123,0 -221,-94 -264,-201 -25,-62 -35,-132 -35,-199 0,-153 61,-350 215,-413 23,-10 40,-27 40,-45 0,-11 -6,-22 -21,-33 -21,-15 -50,-22 -78,-22 -24,0 -48,4 -68,13 -200,86 -291,292 -291,500 0,85 15,172 52,249 83,172 260,262 450,262 111,0 231,-26 314,-103 83,77 203,103 314,103 107,0 210,-28 294,-84 -24,137 -84,270 -201,352 0,-60 -30,-101 -73,-127 -50,-30 -118,-41 -176,-41 -52,0 -111,10 -158,35 -47,-25 -106,-35 -158,-35 -57,0 -127,11 -176,42 -39,25 -73,65 -73,114 0,82 81,143 152,169 75,28 174,37 255,37z"/>
 </g>
</svg>
