<?xml version="1.0" encoding="UTF-8" standalone="no"?>
<svg
   xmlns:dc="http://purl.org/dc/elements/1.1/"
   xmlns:cc="http://creativecommons.org/ns#"
   xmlns:rdf="http://www.w3.org/1999/02/22-rdf-syntax-ns#"
   xmlns:svg="http://www.w3.org/2000/svg"
   xmlns="http://www.w3.org/2000/svg"
   xmlns:sodipodi="http://sodipodi.sourceforge.net/DTD/sodipodi-0.dtd"
   xmlns:inkscape="http://www.inkscape.org/namespaces/inkscape"
   xml:space="preserve"
   width="1000"
   height="1000"
   version="1.1"
   style="clip-rule:evenodd;fill-rule:evenodd;image-rendering:optimizeQuality;shape-rendering:geometricPrecision;text-rendering:geometricPrecision"
   viewBox="0 0 1000 1000"
   id="svg10"
   sodipodi:docname="ന്ത.svg"
   inkscape:version="1.0.1 (3bc2e813f5, 2020-09-07)"><metadata
   id="metadata14"><rdf:RDF><cc:Work
       rdf:about=""><dc:format>image/svg+xml</dc:format><dc:type
         rdf:resource="http://purl.org/dc/dcmitype/StillImage" /><dc:title /></cc:Work></rdf:RDF></metadata><sodipodi:namedview
   pagecolor="#ffffff"
   bordercolor="#666666"
   borderopacity="1"
   objecttolerance="10"
   gridtolerance="10"
   guidetolerance="10"
   inkscape:pageopacity="0"
   inkscape:pageshadow="2"
   inkscape:window-width="1920"
   inkscape:window-height="1015"
   id="namedview12"
   showgrid="false"
   inkscape:zoom="0.9588368"
   inkscape:cx="631.09952"
   inkscape:cy="460.17416"
   inkscape:window-x="1920"
   inkscape:window-y="0"
   inkscape:window-maximized="1"
   inkscape:current-layer="svg10"
   showguides="true"
   inkscape:guide-bbox="true"
   inkscape:document-rotation="0"
   inkscape:snap-to-guides="true"><sodipodi:guide
     position="0,1000"
     orientation="0,1"
     id="guide16"
     inkscape:label=""
     inkscape:locked="true"
     inkscape:color="rgb(0,0,255)" /><sodipodi:guide
     position="1763.3122,2036.1693"
     orientation="1000,0"
     id="guide18" /><sodipodi:guide
     position="0,200"
     orientation="0,1"
     id="guide20"
     inkscape:label="base"
     inkscape:locked="true"
     inkscape:color="rgb(0,0,255)" /><inkscape:grid
     type="xygrid"
     id="grid24"
     originx="-473.37552"
     originy="-489.69235" /><sodipodi:guide
     position="0,0"
     orientation="0,1"
     id="guide34"
     inkscape:label="bottom"
     inkscape:locked="true"
     inkscape:color="rgb(0,0,255)" /><sodipodi:guide
     position="225.05109,1693.3186"
     orientation="0,1"
     id="guide44"
     inkscape:label=""
     inkscape:locked="false"
     inkscape:color="rgb(0,0,255)" /><sodipodi:guide
     position="0,900"
     orientation="0,1"
     id="guide46"
     inkscape:label=""
     inkscape:locked="true"
     inkscape:color="rgb(0,0,255)" /><sodipodi:guide
     position="972.93689,941.43538"
     orientation="-1,0"
     id="guide841"
     inkscape:label=""
     inkscape:locked="false"
     inkscape:color="rgb(0,0,255)" /><sodipodi:guide
     position="0,1000"
     orientation="0,1000"
     id="guide860" /><sodipodi:guide
     position="1000,1000"
     orientation="1000,0"
     id="guide862" /><sodipodi:guide
     position="1000,0"
     orientation="0,-1000"
     id="guide864" /><sodipodi:guide
     position="0,0"
     orientation="-1000,0"
     id="guide866" /></sodipodi:namedview>
 <defs
   id="defs4"><inkscape:path-effect
   effect="spiro"
   id="path-effect862"
   is_visible="true"
   lpeversion="1" /><inkscape:path-effect
   effect="spiro"
   id="path-effect1521"
   is_visible="true"
   lpeversion="1" /><inkscape:path-effect
   effect="spiro"
   id="path-effect858"
   is_visible="true"
   lpeversion="1" /><inkscape:path-effect
   effect="spiro"
   id="path-effect854"
   is_visible="true"
   lpeversion="1" />
  <style
   type="text/css"
   id="style2">
   <![CDATA[
    .fil0 {fill:#EF7F1A;fill-rule:nonzero}
   ]]>
  </style>
 <inkscape:path-effect
   effect="spiro"
   id="path-effect1214"
   is_visible="true"
   lpeversion="1" /><inkscape:path-effect
   effect="spiro"
   id="path-effect1195"
   is_visible="true"
   lpeversion="1" /><inkscape:path-effect
   effect="spiro"
   id="path-effect992"
   is_visible="true"
   lpeversion="1" /><inkscape:path-effect
   effect="spiro"
   id="path-effect287"
   is_visible="true"
   lpeversion="1" /><inkscape:path-effect
   effect="spiro"
   id="path-effect1032"
   is_visible="true"
   lpeversion="1" /><inkscape:path-effect
   effect="spiro"
   id="path-effect1218"
   is_visible="true"
   lpeversion="1" /><inkscape:path-effect
   effect="spiro"
   id="path-effect309"
   is_visible="true"
   lpeversion="1" /><inkscape:path-effect
   effect="spiro"
   id="path-effect1176"
   is_visible="true"
   lpeversion="1" /><inkscape:path-effect
   effect="spiro"
   id="path-effect1026"
   is_visible="true"
   lpeversion="1" /><inkscape:path-effect
   effect="spiro"
   id="path-effect1030"
   is_visible="true"
   lpeversion="1" /></defs>
 
<path
   style="display:inline;fill:#1a1a1a;fill-rule:nonzero;stroke:none;stroke-width:2.09522px;stroke-linecap:butt;stroke-linejoin:miter;stroke-opacity:1"
   d="M 207.74684,829.76245 C 201.31661,801.56069 192.73679,773.84932 182.10634,746.94801 150.03722,665.79418 99.903613,593.24351 59.274313,516.01895 27.835881,456.26358 1.6165811,391.63575 0.60468511,324.12238 0.09873714,290.36569 6.0792715,256.28085 20.172872,225.60284 c 14.093601,-30.67801 36.51433,-57.82402 65.227417,-75.58151 36.594291,-22.63159 82.263201,-28.99629 124.364741,-20.1198 42.10153,8.87648 80.51478,32.3773 109.89587,63.81108 36.84489,39.41903 59.83727,91.53972 64.10948,145.32777 8.62844,-36.5268 22.64057,-71.77715 41.44351,-104.25955 28.54392,-49.31011 69.52186,-93.07627 121.75827,-115.82708 26.11821,-11.37541 54.75883,-17.28499 83.21108,-15.86001 28.45224,1.42498 56.66785,10.3191 80.07849,26.55185 29.65441,20.56213 50.5549,52.03265 63.27462,85.80238 12.71971,33.76972 17.79621,69.92918 20.58673,105.90693 3.7698,48.60358 3.42633,98.23749 -9.8749,145.13735 -11.97125,42.21035 -34.1348,80.98335 -60.48804,116.06228 -16.00074,21.29867 -33.89634,41.65076 -56.12533,56.33166 -22.22899,14.6809 -49.3235,23.32515 -75.68663,19.49862 -22.50473,-3.2665 -43.27127,-15.54646 -58.37416,-32.5475 -15.1029,-17.00105 -24.71517,-38.49243 -29.15846,-60.79467 -8.88658,-44.60449 2.39891,-90.77955 18.02986,-133.49026 16.26091,-44.43204 37.23277,-86.97626 58.7821,-129.0981 28.62212,-55.94682 59.3933,-112.67559 106.91469,-153.79723 23.7607,-20.56083 51.57921,-36.84347 81.9283,-44.98292 30.3491,-8.139446 63.29698,-7.836965 92.68285,3.28909 24.76986,9.37835 46.42623,26.18177 63.09603,46.76374 16.6698,20.58197 28.4772,44.85066 36.15061,70.20058 14.49421,47.88319 14.35061,99.42872 4.73923,148.52559 -9.61139,49.09688 -28.41221,95.98709 -50.6467,140.80349 -43.30861,87.29392 -100.71348,169.93544 -119.54829,265.54461 -2.89553,14.6983 -4.84265,29.58336 -5.82521,44.53189 L 670.14128,749.4208 c 49.95554,-48.0601 94.90663,-101.31895 133.89217,-158.63785 44.756,-65.80298 82.30545,-139.11475 90.42632,-218.28029 2.73002,-26.61336 2.00536,-54.00279 -6.39677,-79.40216 -8.40213,-25.39937 -25.11342,-48.73041 -48.69549,-61.36408 -15.35015,-8.22356 -33.07033,-11.65013 -50.46435,-10.81233 -17.39403,0.83781 -34.46162,5.84037 -50.07079,13.56098 -31.21834,15.44123 -56.11263,41.191 -77.88462,68.3755 -30.61815,38.22981 -56.58556,80.71206 -71.9724,127.2119 -6.77971,20.48864 -11.50218,42.25999 -8.29404,63.60142 1.60407,10.67071 5.22351,21.10746 11.16493,30.11505 5.94143,9.00759 14.25989,16.54188 24.10911,20.94984 9.18867,4.11233 19.54245,5.42765 29.53371,4.1957 9.99126,-1.23195 19.61311,-4.96416 28.0812,-10.4079 16.93619,-10.88747 28.91915,-28.27582 36.51205,-46.92306 9.35048,-22.96366 12.56554,-47.98146 13.50186,-72.75816 1.21481,-32.14598 -1.38162,-64.92565 -12.82593,-94.99004 -11.4443,-30.0644 -32.4785,-57.32244 -61.28425,-71.64266 -29.93588,-14.88204 -66.22855,-14.52601 -97.39322,-2.42661 -31.16467,12.0994 -57.34957,35.16041 -76.58669,62.50204 -23.59343,33.53324 -37.22893,73.40064 -43.2827,113.95282 -6.05378,40.55219 -4.77315,81.89706 -0.45145,122.67022 3.11487,29.38736 7.80089,58.60812 14.03136,87.49584 l -164.01333,4.12025 c 11.18082,-20.23256 20.78079,-41.33847 28.68362,-63.06202 24.97979,-68.66528 32.47176,-145.41878 10.17472,-215.00149 -5.25354,-16.3948 -12.15401,-32.36551 -21.77548,-46.64194 -9.62148,-14.27644 -22.0554,-26.84255 -37.01426,-35.36439 -17.53013,-9.98666 -38.26237,-14.1252 -58.32767,-12.02224 -20.06531,2.10295 -39.38596,10.38163 -55.00066,23.15738 -17.28947,14.14603 -29.9258,33.60135 -37.16134,54.73621 -7.23554,21.13487 -9.19746,43.8951 -7.1043,66.13592 4.18631,44.48166 24.10613,85.98329 47.32869,124.15206 24.45573,40.19562 53.09329,78.11059 87.55113,110.14851 32.39425,30.11925 69.79076,54.84568 110.1904,72.85749 z"
   id="path1087-1-75"
   inkscape:path-effect="#path-effect1030"
   inkscape:original-d="m 207.74684,829.76245 c -12.76427,-34.18253 -14.53257,-56.137 -25.6405,-82.81444 C 148.59214,666.45857 77.346458,601.3136 59.274313,516.01895 33.922282,396.36565 -11.405066,224.77671 85.400289,150.02133 148.27013,101.47184 257.39242,144.39412 319.6609,193.71261 c 41.50526,32.87348 64.10948,145.32777 64.10948,145.32777 0,0 14.67054,-78.14763 41.44351,-104.25955 72.50017,-70.71006 191.8699,-144.809656 285.04784,-105.13524 64.1745,27.32498 71.90881,122.99136 83.86135,191.70931 8.30957,47.77369 3.25469,98.45772 -9.8749,145.13735 -11.81241,41.99664 -30.28812,84.57871 -60.48804,116.06228 -35.08924,36.58071 -84.6584,94.42985 -131.81196,75.83028 -73.56446,-29.01726 -74.63754,-147.91877 -69.50276,-226.83243 3.07017,-47.18382 28.4821,-92.79866 58.7821,-129.0981 73.21176,-87.70778 168.24334,-210.31313 281.52584,-195.49106 50.70009,6.63369 85.45345,67.72761 99.24664,116.96432 26.34146,94.02952 -17.96672,195.76232 -45.90747,289.32908 -27.77534,93.01285 -93.04445,172.1615 -119.54829,265.54461 -4.08744,14.40161 -5.82521,44.53189 -5.82521,44.53189 L 670.14128,749.4208 c 0,0 97.90865,-99.53365 133.89217,-158.63785 40.95503,-67.27008 89.65072,-139.52766 90.42632,-218.28029 0.49622,-50.38527 -8.86479,-120.71774 -55.09226,-140.76624 -58.73837,-25.47438 -130.18575,29.02165 -178.41976,71.12415 -36.7042,32.03836 -65.08266,78.98135 -71.9724,127.2119 -5.55277,38.87128 -8.98605,98.91027 26.98,114.66631 33.00181,14.45747 73.18704,-23.81534 94.12696,-53.13526 14.33596,-20.07312 16.3935,-48.26146 13.50186,-72.75816 -7.12628,-60.37082 -18.35642,-142.40591 -74.11018,-166.6327 -56.27045,-24.45131 -133.96268,13.56897 -173.97991,60.07543 -52.3165,60.80021 -42.78161,156.41846 -43.73415,236.62304 -0.35078,29.53584 14.03136,87.49584 14.03136,87.49584 l -164.01333,4.12025 c 0,0 23.2598,-40.61503 28.68362,-63.06202 16.8512,-69.74039 30.50826,-146.19573 10.17472,-215.00149 -9.53206,-32.25511 -28.15389,-68.12479 -58.78974,-82.00633 -34.57432,-15.66612 -88.01026,-17.14572 -113.32833,11.13514 -54.481448,60.85701 -24.334,168.07482 3.06305,245.02419 15.73151,44.18468 52.96972,78.46425 87.55113,110.14851 32.46628,29.74634 110.1904,72.85749 110.1904,72.85749 z"
   sodipodi:nodetypes="caaaacaaaaaaaaaaaaccaaaaaaaaaaaccaaaaaacc" /></svg>
