<?xml version="1.0" encoding="UTF-8" standalone="no"?>
<svg
   xmlns:dc="http://purl.org/dc/elements/1.1/"
   xmlns:cc="http://creativecommons.org/ns#"
   xmlns:rdf="http://www.w3.org/1999/02/22-rdf-syntax-ns#"
   xmlns:svg="http://www.w3.org/2000/svg"
   xmlns="http://www.w3.org/2000/svg"
   xmlns:sodipodi="http://sodipodi.sourceforge.net/DTD/sodipodi-0.dtd"
   xmlns:inkscape="http://www.inkscape.org/namespaces/inkscape"
   xml:space="preserve"
   width="1000"
   height="1000"
   version="1.1"
   style="clip-rule:evenodd;fill-rule:evenodd;image-rendering:optimizeQuality;shape-rendering:geometricPrecision;text-rendering:geometricPrecision"
   viewBox="0 0 1000 1000"
   id="svg10"
   sodipodi:docname="ന്നു.svg"
   inkscape:version="1.0.1 (3bc2e813f5, 2020-09-07)"><metadata
   id="metadata14"><rdf:RDF><cc:Work
       rdf:about=""><dc:format>image/svg+xml</dc:format><dc:type
         rdf:resource="http://purl.org/dc/dcmitype/StillImage" /><dc:title /></cc:Work></rdf:RDF></metadata><sodipodi:namedview
   pagecolor="#ffffff"
   bordercolor="#666666"
   borderopacity="1"
   objecttolerance="10"
   gridtolerance="10"
   guidetolerance="10"
   inkscape:pageopacity="0"
   inkscape:pageshadow="2"
   inkscape:window-width="1920"
   inkscape:window-height="1015"
   id="namedview12"
   showgrid="false"
   inkscape:zoom="0.678"
   inkscape:cx="809.10306"
   inkscape:cy="556.53787"
   inkscape:window-x="1920"
   inkscape:window-y="0"
   inkscape:window-maximized="1"
   inkscape:current-layer="svg10"
   showguides="true"
   inkscape:guide-bbox="true"
   inkscape:document-rotation="0"
   inkscape:snap-to-guides="true"><sodipodi:guide
     position="0,1000"
     orientation="0,1"
     id="guide16"
     inkscape:label=""
     inkscape:locked="true"
     inkscape:color="rgb(0,0,255)" /><sodipodi:guide
     position="1763.3122,2036.1693"
     orientation="1000,0"
     id="guide18" /><sodipodi:guide
     position="0,200"
     orientation="0,1"
     id="guide20"
     inkscape:label="base"
     inkscape:locked="true"
     inkscape:color="rgb(0,0,255)" /><inkscape:grid
     type="xygrid"
     id="grid24"
     originx="-473.37552"
     originy="-489.69235" /><sodipodi:guide
     position="0,0"
     orientation="0,1"
     id="guide34"
     inkscape:label="bottom"
     inkscape:locked="true"
     inkscape:color="rgb(0,0,255)" /><sodipodi:guide
     position="225.05109,1693.3186"
     orientation="0,1"
     id="guide44"
     inkscape:label=""
     inkscape:locked="false"
     inkscape:color="rgb(0,0,255)" /><sodipodi:guide
     position="0,900"
     orientation="0,1"
     id="guide46"
     inkscape:label=""
     inkscape:locked="true"
     inkscape:color="rgb(0,0,255)" /><sodipodi:guide
     position="1092.9909,1000"
     orientation="-1,0"
     id="guide841"
     inkscape:label=""
     inkscape:locked="false"
     inkscape:color="rgb(0,0,255)" /><sodipodi:guide
     position="1092.9909,1000"
     orientation="0,1000"
     id="guide860" /><sodipodi:guide
     position="1000,1000"
     orientation="1000,0"
     id="guide862" /><sodipodi:guide
     position="1000,0"
     orientation="0,-1000"
     id="guide864" /><sodipodi:guide
     position="0,0"
     orientation="-1000,0"
     id="guide866" /></sodipodi:namedview>
 <defs
   id="defs4"><inkscape:path-effect
   effect="spiro"
   id="path-effect870"
   is_visible="true"
   lpeversion="1" /><inkscape:path-effect
   effect="spiro"
   id="path-effect862"
   is_visible="true"
   lpeversion="1" /><inkscape:path-effect
   effect="spiro"
   id="path-effect1521"
   is_visible="true"
   lpeversion="1" /><inkscape:path-effect
   effect="spiro"
   id="path-effect858"
   is_visible="true"
   lpeversion="1" /><inkscape:path-effect
   effect="spiro"
   id="path-effect854"
   is_visible="true"
   lpeversion="1" />
  <style
   type="text/css"
   id="style2">
   <![CDATA[
    .fil0 {fill:#EF7F1A;fill-rule:nonzero}
   ]]>
  </style>
 <inkscape:path-effect
   effect="spiro"
   id="path-effect1214"
   is_visible="true"
   lpeversion="1" /><inkscape:path-effect
   effect="spiro"
   id="path-effect1195"
   is_visible="true"
   lpeversion="1" /><inkscape:path-effect
   effect="spiro"
   id="path-effect992"
   is_visible="true"
   lpeversion="1" /><inkscape:path-effect
   effect="spiro"
   id="path-effect287"
   is_visible="true"
   lpeversion="1" /><inkscape:path-effect
   effect="spiro"
   id="path-effect1032"
   is_visible="true"
   lpeversion="1" /><inkscape:path-effect
   effect="spiro"
   id="path-effect1218"
   is_visible="true"
   lpeversion="1" /><inkscape:path-effect
   effect="spiro"
   id="path-effect309"
   is_visible="true"
   lpeversion="1" /><inkscape:path-effect
   effect="spiro"
   id="path-effect1176"
   is_visible="true"
   lpeversion="1" /><inkscape:path-effect
   effect="spiro"
   id="path-effect1026"
   is_visible="true"
   lpeversion="1" /><inkscape:path-effect
   effect="spiro"
   id="path-effect1255"
   is_visible="true"
   lpeversion="1" /><inkscape:path-effect
   effect="spiro"
   id="path-effect1033"
   is_visible="true"
   lpeversion="1" /><inkscape:path-effect
   effect="spiro"
   id="path-effect461"
   is_visible="true"
   lpeversion="1" /></defs>
 
<path
   style="display:inline;fill:#1a1a1a;fill-rule:nonzero;stroke:none;stroke-width:1.8927px;stroke-linecap:butt;stroke-linejoin:miter;stroke-opacity:1"
   d="m 862.43245,366.96885 c -30.64259,10.1916 -57.14054,30.8865 -77.45128,55.9925 -20.31074,25.10599 -34.75222,54.51499 -45.84922,84.84144 -18.40532,50.299 -27.9726,105.2286 -17.15088,157.68463 5.41085,26.22802 15.94373,51.53104 31.84611,73.07868 15.90238,21.54764 37.26182,39.24483 61.93653,49.65372 41.68625,17.58512 90.781,13.15007 131.51848,-6.53337 40.73748,-19.68344 73.54661,-53.44991 97.50631,-91.82848 44.1764,-70.7617 59.5034,-157.66832 49.2033,-240.44923 -8.7443,-70.27702 -35.4078,-138.14832 -76.1333,-196.08583 -24.78492,-35.25989 -55.21383,-67.2949 -92.57111,-88.78876 -37.35728,-21.49385 -82.16512,-31.7771 -124.35125,-22.952 -25.47777,5.3298 -49.26647,17.38453 -70.05557,33.04777 -20.78909,15.66324 -38.69704,34.88007 -54.71637,55.39603 -26.6704,34.15679 -48.37031,72.1883 -64.20553,112.52739 -9.78193,-18.40543 -24.86882,-33.95228 -42.97227,-44.28237 -18.10346,-10.3301 -39.16342,-15.40918 -59.98547,-14.46683 -26.57326,1.20263 -52.5804,12.35074 -71.77504,30.76678 -19.19464,18.41603 -31.40951,43.93953 -33.71086,70.44025 -11.51932,-76.83317 -45.48274,-150.16545 -96.63232,-208.64409 -19.61555,-22.4262 -41.97491,-42.90323 -68.23673,-56.97522 -26.26181,-14.072 -56.74617,-21.4263 -86.19793,-16.92095 -29.00126,4.43644 -55.559412,20.16327 -76.133086,41.07927 -20.573674,20.916 -35.518792,46.81186 -46.900935,73.85261 -41.40069,98.35631 -36.408988,211.57655 -5.412,313.69005 13.774927,45.3788 32.414396,89.11918 47.84137,133.96327 15.426973,44.84409 27.722011,91.40028 28.10901,138.82215 0.207211,25.39061 -3.025623,50.80706 -9.58248,75.33732 L 244.84673,800 C 194.33675,740.82415 155.00162,672.14267 129.51998,598.63263 104.66582,526.93274 92.99677,449.79615 103.2063,374.60061 c 3.29376,-24.2593 9.01002,-48.65155 21.50993,-69.70184 6.24995,-10.52514 14.17633,-20.1177 23.75137,-27.74391 9.57505,-7.62621 20.82721,-13.25094 32.81854,-15.71033 14.25093,-2.92283 29.27354,-1.29783 42.91762,3.74906 13.64408,5.04688 25.93531,13.42815 36.29849,23.63777 20.72637,20.41924 33.4885,47.5338 43.31126,74.92068 25.34206,70.6563 33.72378,146.90654 28.20456,221.76688 -4.52808,61.41698 -18.31409,122.14319 -40.7488,179.49502 L 423.08678,756 c -11.9156,-35.36842 -18.53563,-72.51582 -19.57157,-109.82311 -1.25805,-45.30629 5.69109,-90.59503 17.48842,-134.35649 5.98766,-22.21086 13.4704,-44.56429 27.48926,-62.80287 7.00943,-9.1193 15.62695,-17.09437 25.66689,-22.70626 10.03993,-5.61189 21.53674,-8.79794 33.03121,-8.38467 13.72359,0.49342 27.02636,6.12996 37.68642,14.78696 10.66006,8.65699 18.76296,20.21392 24.36488,32.75182 11.20384,25.0758 12.49023,53.31692 12.92747,80.77836 0.85017,53.39679 -0.8866,107.16488 -11.82455,159.4363 -4.65942,22.26694 -10.97698,44.18672 -18.8831,65.51792 L 694.31761,768 c -17.99844,-42.36155 -30.17252,-87.19312 -36.07289,-132.83992 -7.9876,-61.79415 -4.34646,-125.42882 14.00387,-184.97362 18.24785,-59.21229 52.88148,-115.74366 106.03549,-147.5828 31.16357,-18.66692 69.16872,-28.0889 104.42982,-19.35521 33.44098,8.28287 61.23215,31.8295 82.93197,58.5881 13.34715,16.45871 24.88961,34.37989 34.35413,53.33927 -18.33537,-16.26269 -40.99793,-27.60113 -65.00683,-32.52393 -24.0089,-4.92281 -49.30488,-3.41784 -72.56072,4.31696 z m -21.32139,319.02254 c -11.52873,-6.23725 -21.01335,-15.99932 -27.52399,-27.3759 -6.51063,-11.37658 -10.10159,-24.32066 -11.08357,-37.39164 -1.96395,-26.14197 6.35809,-52.16049 18.5519,-75.36761 13.82723,-26.31583 33.60582,-50.62418 60.35792,-63.58722 13.37605,-6.48151 28.3209,-9.94972 43.16137,-9.11963 14.84048,0.83008 29.53682,6.07424 41.00882,15.52528 9.01268,7.42497 15.89784,17.29495 20.30473,28.10873 4.40688,10.81378 6.37762,22.55015 6.34138,34.22736 -0.0725,23.35442 -8.03629,46.05528 -18.60004,66.88414 -12.55274,24.75059 -29.5345,48.1543 -53.20231,62.64559 -11.83391,7.24565 -25.22216,12.11414 -39.04389,13.33918 -13.82172,1.22503 -28.06803,-1.28554 -40.27232,-7.88828 z"
   id="use1033"
   sodipodi:nodetypes="aaaaaaaacacaaaaaccaaaaaccaaaaaccaaaaacaaaaaa"
   inkscape:path-effect="#path-effect870"
   inkscape:original-d="m 862.43245,366.96885 c -59.13335,19.90654 -109.30851,80.02894 -123.3005,140.83394 -21.72994,94.43188 -10.65567,238.34001 76.63176,280.41703 74.84265,36.078 176.55667,-33.94028 229.02479,-98.36185 51.6637,-63.43378 56.0879,-158.92881 49.2033,-240.44923 -5.9004,-69.86701 -29.2323,-143.96562 -76.1333,-196.08583 -54.40686,-60.46148 -135.78734,-117.46895 -216.92236,-111.74076 -50.85309,3.59027 -90.53529,50.67107 -124.77194,88.4438 -29.00217,31.99762 -64.20553,112.52739 -64.20553,112.52739 0,0 -63.74329,-63.60038 -102.95774,-58.7492 -48.35979,5.98253 -75.54239,31.4851 -105.4859,101.20703 0,0 -42.77765,-154.10844 -96.63232,-208.64409 C 266.78393,135.76126 208.85335,93.799829 152.44805,102.47091 96.978069,110.9982 52.213229,166.1209 29.414029,217.40279 c -42.4847,95.56043 -18.6733,209.95535 -5.412,313.69005 11.9688,93.62518 69.1118,178.64637 75.95038,272.78542 1.834131,25.24823 -9.58248,75.33732 -9.58248,75.33732 L 244.84673,800 c 0,0 -91.10341,-127.90677 -115.32675,-201.36737 C 105.97327,527.224 85.074929,447.57248 103.2063,374.60061 c 11.05055,-44.47437 32.6735,-106.96344 78.07984,-113.15608 52.71991,-7.19009 96.98098,55.63344 122.52737,102.30751 35.77771,65.36703 31.80733,147.33628 28.20456,221.76688 -2.96634,61.28235 -40.7488,179.49502 -40.7488,179.49502 L 423.08678,756 c 0,0 -18.69927,-72.64888 -19.57157,-109.82311 -1.05948,-45.15087 -1.58617,-93.41894 17.48842,-134.35649 17.94316,-38.5093 43.94553,-98.42709 86.18736,-93.8938 49.25627,5.28607 63.8108,80.05329 74.97877,128.31714 12.01388,51.91955 -2.42443,106.9805 -11.82455,159.4363 -4.00906,22.3719 -18.8831,65.51792 -18.8831,65.51792 L 694.31761,768 c 0,0 -31.72978,-87.16239 -36.07289,-132.83992 -5.85294,-61.55669 -7.15789,-126.87316 14.00387,-184.97362 20.73086,-56.91738 54.89117,-115.12336 106.03549,-147.5828 29.89096,-18.9707 69.8489,-26.93919 104.42982,-19.35521 33.06078,7.25059 59.51714,34.14772 82.93197,58.5881 C 980.2762,357.10768 1000,395.17582 1000,395.17582 c 0,0 -93.204,-43.14143 -137.56755,-28.20697 z M 841.11106,685.99139 C 799.1903,664.32744 797.36554,586.66638 821.0554,545.85624 c 26.01022,-44.80739 100.79621,-84.96205 144.52811,-57.18157 36.42819,23.14083 29.37613,91.70303 8.04607,129.22023 -24.54602,43.17371 -88.39816,90.89716 -132.51852,68.09649 z" /></svg>
