<?xml version="1.0" encoding="UTF-8"?>
<!DOCTYPE svg PUBLIC "-//W3C//DTD SVG 1.1//EN" "http://www.w3.org/Graphics/SVG/1.1/DTD/svg11.dtd">
<!-- Creator: CorelDRAW X8 -->
<svg xmlns="http://www.w3.org/2000/svg" xml:space="preserve" width="1676px" height="1486px" version="1.1" style="shape-rendering:geometricPrecision; text-rendering:geometricPrecision; image-rendering:optimizeQuality; fill-rule:evenodd; clip-rule:evenodd"
viewBox="0 0 1676 1486"
 xmlns:xlink="http://www.w3.org/1999/xlink">
 <defs>
  <style type="text/css">
   <![CDATA[
    .fil0 {fill:#EF7F1A;fill-rule:nonzero}
   ]]>
  </style>
 </defs>
 <g id="Layer_x0020_1">
  <metadata id="CorelCorpID_0Corel-Layer"/>
  <path class="fil0" d="M1115 1450c81,-20 154,-50 219,-91 125,-78 220,-195 278,-346 50,-130 64,-263 64,-401 0,-175 -61,-369 -197,-489 -94,-84 -224,-123 -349,-123 -112,0 -231,26 -314,103 -84,-77 -203,-103 -315,-103 -189,0 -367,90 -450,263 -37,78 -51,166 -51,252 0,208 90,410 290,496 20,9 44,13 68,13 29,0 58,-7 79,-22 14,-11 20,-22 20,-33 0,-18 -16,-35 -40,-45 -153,-64 -215,-257 -215,-410 0,-68 10,-137 35,-200 43,-107 142,-202 264,-202 152,0 213,114 213,250l0 606c0,42 69,56 102,56 32,0 101,-14 101,-56l0 -606c0,-136 62,-250 213,-250 85,0 163,45 215,110 86,105 131,258 131,391 0,125 -5,238 -43,359 -38,122 -104,236 -208,314 0,-55 -28,-92 -74,-120 -49,-30 -118,-42 -176,-42 -52,0 -111,10 -158,35 -47,-25 -105,-35 -158,-35 -57,0 -127,12 -175,42 -40,25 -74,64 -74,114 0,82 81,143 152,169 75,27 163,37 254,37 99,0 203,-12 299,-36zm-299 -63c-57,0 -128,-3 -180,-27 -34,-15 -58,-40 -58,-78 0,-43 45,-61 82,-61 47,0 66,42 67,83 0,40 59,51 91,51 31,0 90,-11 90,-51 0,-41 20,-83 65,-83 40,0 83,17 83,63 0,37 -24,62 -57,76 -54,24 -125,27 -183,27z"/>
 </g>
</svg>
