<?xml version="1.0" encoding="UTF-8"?>
<!DOCTYPE svg PUBLIC "-//W3C//DTD SVG 1.1//EN" "http://www.w3.org/Graphics/SVG/1.1/DTD/svg11.dtd">
<!-- Creator: CorelDRAW X8 -->
<svg xmlns="http://www.w3.org/2000/svg" xml:space="preserve" width="3176px" height="1486px" version="1.1" style="shape-rendering:geometricPrecision; text-rendering:geometricPrecision; image-rendering:optimizeQuality; fill-rule:evenodd; clip-rule:evenodd"
viewBox="0 0 3176 1486"
 xmlns:xlink="http://www.w3.org/1999/xlink">
 <defs>
  <style type="text/css">
   <![CDATA[
    .fil0 {fill:#EF7F1A;fill-rule:nonzero}
   ]]>
  </style>
 </defs>
 <g id="Layer_x0020_1">
  <metadata id="CorelCorpID_0Corel-Layer"/>
  <path class="fil0" d="M1603 1486c328,0 671,-11 980,-116 210,-71 387,-189 494,-385 68,-124 100,-263 99,-403 0,-74 -8,-151 -26,-224 -37,-146 -118,-277 -272,-343 -20,-9 -44,-14 -69,-14 -28,0 -56,7 -77,22 -15,11 -21,22 -21,33 0,18 17,35 40,45 154,64 215,262 215,416 0,67 -10,134 -35,196 -43,106 -141,201 -264,201 -152,0 -212,-121 -212,-254l0 -603c0,-42 -70,-56 -102,-56 -32,0 -101,14 -101,56l0 603c0,122 -49,254 -193,254 -79,0 -137,-72 -161,-139 -32,-87 -31,-180 -32,-270 -1,-93 -3,-186 -35,-275 -56,-152 -203,-229 -363,-229 -104,0 -218,29 -295,102 -77,-70 -189,-102 -301,-102 -102,0 -205,25 -283,72 -160,95 -227,260 -227,437 0,210 89,415 291,502 19,9 44,13 68,13 28,0 57,-7 78,-22 15,-11 21,-22 21,-33 0,-18 -17,-36 -40,-45 -154,-64 -215,-263 -215,-415 0,-129 38,-265 148,-346 52,-39 105,-56 152,-56 119,0 211,106 211,259l0 602c0,42 70,56 102,56 32,0 101,-14 101,-56l0 -602c0,-122 45,-255 189,-255 79,0 140,72 165,140 29,80 31,168 32,253 1,99 1,196 35,291 56,153 199,229 359,229 105,0 221,-27 299,-101 83,75 199,101 309,101 65,0 128,-11 186,-31 -84,121 -194,211 -333,266 -266,105 -621,114 -917,114 -322,0 -638,-21 -920,-141 -292,-124 -481,-366 -481,-688 -1,-182 60,-354 226,-451 19,-11 28,-25 28,-38 0,-31 -47,-56 -100,-56 -27,0 -55,6 -75,18 -196,114 -281,309 -281,527 0,375 220,633 560,777 313,133 688,164 1043,164z"/>
 </g>
</svg>
