<?xml version="1.0" encoding="UTF-8"?>
<!DOCTYPE svg PUBLIC "-//W3C//DTD SVG 1.1//EN" "http://www.w3.org/Graphics/SVG/1.1/DTD/svg11.dtd">
<!-- Creator: CorelDRAW X8 -->
<svg xmlns="http://www.w3.org/2000/svg" xml:space="preserve" width="1352px" height="600px" version="1.1" style="shape-rendering:geometricPrecision; text-rendering:geometricPrecision; image-rendering:optimizeQuality; fill-rule:evenodd; clip-rule:evenodd"
viewBox="0 0 1352 600"
 xmlns:xlink="http://www.w3.org/1999/xlink">
 <defs>
  <style type="text/css">
   <![CDATA[
    .fil0 {fill:#EF7F1A;fill-rule:nonzero}
   ]]>
  </style>
 </defs>
 <g id="Layer_x0020_1">
  <metadata id="CorelCorpID_0Corel-Layer"/>
  <path class="fil0" d="M1125 600c20,0 39,-4 53,-10 119,-51 174,-169 174,-293 0,-49 -9,-99 -31,-143 -52,-106 -165,-154 -280,-154 -67,0 -137,17 -189,60 -50,-43 -111,-61 -176,-60 -65,0 -127,18 -176,60 -52,-43 -122,-60 -189,-60 -115,0 -228,49 -280,154 -22,45 -31,95 -31,143 0,124 55,243 174,293 15,6 34,10 53,10 21,0 42,-4 56,-14 9,-6 13,-13 13,-20 0,-11 -11,-21 -26,-27 -92,-38 -127,-152 -127,-243 0,-38 6,-77 21,-112 23,-57 81,-115 147,-115 83,0 118,76 118,148l0 348c0,28 50,35 71,35 20,0 71,-7 71,-35l0 -348c0,-61 32,-147 105,-147 73,0 105,86 105,146l0 349c0,27 50,34 71,34 20,0 71,-6 71,-34l0 -349c0,-71 35,-147 118,-147 66,0 124,58 147,115 15,35 21,74 21,112 0,91 -35,206 -127,243 -15,6 -26,16 -26,26 0,7 4,14 13,20 15,10 36,15 56,15z"/>
 </g>
</svg>
