<?xml version="1.0" encoding="UTF-8"?>
<!DOCTYPE svg PUBLIC "-//W3C//DTD SVG 1.1//EN" "http://www.w3.org/Graphics/SVG/1.1/DTD/svg11.dtd">
<!-- Creator: CorelDRAW X8 -->
<svg xmlns="http://www.w3.org/2000/svg" xml:space="preserve" width="1645px" height="825px" version="1.1" style="shape-rendering:geometricPrecision; text-rendering:geometricPrecision; image-rendering:optimizeQuality; fill-rule:evenodd; clip-rule:evenodd"
viewBox="0 0 1645 825"
 xmlns:xlink="http://www.w3.org/1999/xlink">
 <defs>
  <style type="text/css">
   <![CDATA[
    .fil0 {fill:#EF7F1A;fill-rule:nonzero}
   ]]>
  </style>
 </defs>
 <g id="Layer_x0020_1">
  <metadata id="CorelCorpID_0Corel-Layer"/>
  <path class="fil0" d="M852 61c-50,-44 -111,-61 -176,-61 -63,0 -128,19 -176,60 -52,-43 -122,-60 -189,-60 -115,0 -228,49 -280,154 -22,45 -31,94 -31,142 0,124 55,244 174,294 15,7 34,10 53,10 21,0 42,-4 56,-14 9,-6 13,-13 13,-20 0,-11 -11,-21 -26,-27 -92,-38 -127,-152 -127,-243 0,-38 6,-77 21,-112 23,-57 81,-115 147,-115 83,0 118,76 118,148l0 348c0,28 50,35 71,35 20,0 71,-7 71,-35l0 -348c0,-60 31,-147 105,-148 73,0 104,88 104,148l0 348c0,27 51,35 71,35 21,0 72,-8 72,-35l0 -348c0,-87 61,-148 152,-148 46,0 93,17 130,44 -72,13 -140,45 -185,103 -36,46 -56,104 -56,162 0,47 13,95 41,134 46,65 124,91 201,91 80,0 155,-30 199,-100 31,-48 45,-105 45,-161 1,-25 -2,-49 -6,-73 41,57 59,131 59,201 0,132 -73,286 -224,286 -42,0 -86,-13 -120,-39 -14,-11 -37,-15 -59,-15 -17,0 -33,3 -45,7 -15,6 -28,16 -28,28 0,6 4,13 12,19 66,50 159,69 242,69 217,0 364,-138 364,-357 0,-175 -99,-315 -276,-353 -77,-85 -182,-115 -294,-115 -70,0 -164,19 -223,61zm350 473c-35,0 -60,-27 -75,-56 -14,-29 -19,-68 -19,-100 0,-49 14,-96 43,-135 28,-38 66,-61 113,-66 30,47 43,109 43,164 1,45 -11,102 -33,141 -15,27 -39,52 -72,52z"/>
 </g>
</svg>
