<?xml version="1.0" encoding="UTF-8" standalone="no"?>
<svg
   xmlns:dc="http://purl.org/dc/elements/1.1/"
   xmlns:cc="http://creativecommons.org/ns#"
   xmlns:rdf="http://www.w3.org/1999/02/22-rdf-syntax-ns#"
   xmlns:svg="http://www.w3.org/2000/svg"
   xmlns="http://www.w3.org/2000/svg"
   xmlns:sodipodi="http://sodipodi.sourceforge.net/DTD/sodipodi-0.dtd"
   xmlns:inkscape="http://www.inkscape.org/namespaces/inkscape"
   xml:space="preserve"
   width="1000"
   height="1000"
   version="1.1"
   style="clip-rule:evenodd;fill-rule:evenodd;image-rendering:optimizeQuality;shape-rendering:geometricPrecision;text-rendering:geometricPrecision"
   viewBox="0 0 1000 1000"
   id="svg10"
   sodipodi:docname="ന്തൂ.svg"
   inkscape:version="1.0.1 (3bc2e813f5, 2020-09-07)"><metadata
   id="metadata14"><rdf:RDF><cc:Work
       rdf:about=""><dc:format>image/svg+xml</dc:format><dc:type
         rdf:resource="http://purl.org/dc/dcmitype/StillImage" /><dc:title /></cc:Work></rdf:RDF></metadata><sodipodi:namedview
   pagecolor="#ffffff"
   bordercolor="#666666"
   borderopacity="1"
   objecttolerance="10"
   gridtolerance="10"
   guidetolerance="10"
   inkscape:pageopacity="0"
   inkscape:pageshadow="2"
   inkscape:window-width="1920"
   inkscape:window-height="1015"
   id="namedview12"
   showgrid="false"
   inkscape:zoom="0.678"
   inkscape:cx="279.17694"
   inkscape:cy="587.37325"
   inkscape:window-x="1920"
   inkscape:window-y="0"
   inkscape:window-maximized="1"
   inkscape:current-layer="svg10"
   showguides="true"
   inkscape:guide-bbox="true"
   inkscape:document-rotation="0"
   inkscape:snap-to-guides="true"><sodipodi:guide
     position="0,1000"
     orientation="0,1"
     id="guide16"
     inkscape:label=""
     inkscape:locked="true"
     inkscape:color="rgb(0,0,255)" /><sodipodi:guide
     position="1763.3122,2036.1693"
     orientation="1000,0"
     id="guide18" /><sodipodi:guide
     position="0,200"
     orientation="0,1"
     id="guide20"
     inkscape:label="base"
     inkscape:locked="true"
     inkscape:color="rgb(0,0,255)" /><inkscape:grid
     type="xygrid"
     id="grid24"
     originx="-473.37552"
     originy="-489.69235" /><sodipodi:guide
     position="0,0"
     orientation="0,1"
     id="guide34"
     inkscape:label="bottom"
     inkscape:locked="true"
     inkscape:color="rgb(0,0,255)" /><sodipodi:guide
     position="225.05109,1693.3186"
     orientation="0,1"
     id="guide44"
     inkscape:label=""
     inkscape:locked="false"
     inkscape:color="rgb(0,0,255)" /><sodipodi:guide
     position="0,900"
     orientation="0,1"
     id="guide46"
     inkscape:label=""
     inkscape:locked="true"
     inkscape:color="rgb(0,0,255)" /><sodipodi:guide
     position="911.782,923.93086"
     orientation="-1,0"
     id="guide841"
     inkscape:label="width"
     inkscape:locked="false"
     inkscape:color="rgb(0,0,255)" /><sodipodi:guide
     position="0,1000"
     orientation="0,1000"
     id="guide860" /><sodipodi:guide
     position="1000,1000"
     orientation="1000,0"
     id="guide862" /><sodipodi:guide
     position="1000,0"
     orientation="0,-1000"
     id="guide864" /><sodipodi:guide
     position="0,0"
     orientation="-1000,0"
     id="guide866" /></sodipodi:namedview>
 <defs
   id="defs4"><inkscape:path-effect
   effect="spiro"
   id="path-effect877"
   is_visible="true"
   lpeversion="1" /><inkscape:path-effect
   effect="spiro"
   id="path-effect862"
   is_visible="true"
   lpeversion="1" /><inkscape:path-effect
   effect="spiro"
   id="path-effect1521"
   is_visible="true"
   lpeversion="1" /><inkscape:path-effect
   effect="spiro"
   id="path-effect858"
   is_visible="true"
   lpeversion="1" /><inkscape:path-effect
   effect="spiro"
   id="path-effect854"
   is_visible="true"
   lpeversion="1" />
  <style
   type="text/css"
   id="style2">
   <![CDATA[
    .fil0 {fill:#EF7F1A;fill-rule:nonzero}
   ]]>
  </style>
 <inkscape:path-effect
   effect="spiro"
   id="path-effect1214"
   is_visible="true"
   lpeversion="1" /><inkscape:path-effect
   effect="spiro"
   id="path-effect1195"
   is_visible="true"
   lpeversion="1" /><inkscape:path-effect
   effect="spiro"
   id="path-effect992"
   is_visible="true"
   lpeversion="1" /><inkscape:path-effect
   effect="spiro"
   id="path-effect287"
   is_visible="true"
   lpeversion="1" /><inkscape:path-effect
   effect="spiro"
   id="path-effect1032"
   is_visible="true"
   lpeversion="1" /><inkscape:path-effect
   effect="spiro"
   id="path-effect1218"
   is_visible="true"
   lpeversion="1" /><inkscape:path-effect
   effect="spiro"
   id="path-effect309"
   is_visible="true"
   lpeversion="1" /><inkscape:path-effect
   effect="spiro"
   id="path-effect1176"
   is_visible="true"
   lpeversion="1" /><inkscape:path-effect
   effect="spiro"
   id="path-effect1026"
   is_visible="true"
   lpeversion="1" /><inkscape:path-effect
   effect="spiro"
   id="path-effect1030"
   is_visible="true"
   lpeversion="1" /></defs>
 
<path
   style="fill:#2d2d2d;fill-rule:nonzero;stroke:none;stroke-width:1.70778px;stroke-linecap:butt;stroke-linejoin:miter;stroke-opacity:1"
   d="m 301.53771,735.13479 -154.87819,89.4657 C 138.68725,784.14016 129.09268,743.99951 117.90659,704.30736 102.26505,648.8057 83.529128,594.2339 65.074069,539.60329 47.926088,488.84189 30.994247,437.94187 17.950847,385.97416 5.4277692,336.07953 -3.5149198,284.30829 3.0954276,233.29256 6.3374942,208.27173 13.411137,183.5219 26.058892,161.69101 38.706646,139.86013 57.155697,121.04227 79.869245,110.05829 108.10617,96.40327 141.6867,95.635765 171.60436,105.05476 c 29.91766,9.41899 56.2651,28.48029 77.11006,51.91683 31.70151,35.64284 51.23911,81.9129 54.67731,129.48996 7.11283,-24.62541 17.33663,-48.35047 30.35138,-70.43258 16.23928,-27.55317 37.22156,-52.8814 64.08013,-70.24541 37.05488,-23.95591 85.1108,-31.04217 126.79078,-16.56016 26.1915,9.10043 49.24478,26.1537 67.43382,47.08146 18.18904,20.92776 31.67794,45.64224 41.69633,71.49653 21.85803,56.40866 27.40612,118.59461 19.17023,178.52691 -11.90221,86.61198 -52.93835,169.14333 -115.63133,230.0768 -13.42822,13.05135 -28.01215,25.26247 -44.92397,33.3027 -16.91182,8.04024 -36.45275,11.6517 -54.60474,7.05168 -19.35466,-4.90479 -35.59337,-18.77455 -46.59653,-35.43559 -11.00317,-16.66104 -17.25753,-36.00429 -21.83386,-55.43924 -12.87914,-54.69569 -13.28747,-112.38991 -0.32423,-167.06573 13.78397,-58.13749 42.33668,-112.07672 78.04563,-159.98117 29.54765,-39.6389 64.07136,-75.4846 101.86949,-107.3532 26.6697,-22.48592 55.25485,-43.175 87.17151,-57.25393 31.91666,-14.07892 67.4892,-21.30096 101.99537,-16.181045 41.70717,6.188375 79.50142,30.213155 107.34492,61.875795 20.40279,23.20133 36.04999,50.7267 44.45889,80.45659 8.40889,29.72988 9.4654,61.65412 1.94261,91.62049 -11.59196,46.17556 -44.13198,86.65585 -86.73672,107.90183 25.54583,8.75225 48.41066,25.16944 64.86974,46.57716 16.45908,21.40771 26.44907,47.72357 28.34258,74.66065 1.8511,26.33385 -3.95371,52.9559 -15.11442,76.87946 -11.16071,23.92356 -27.55955,45.21023 -46.7202,63.36974 -38.32129,36.31901 -86.83195,59.82178 -135.46079,80.38457 -51.2483,21.67043 -103.60048,40.73004 -156.78569,57.08024 68.9977,18.45397 142.18864,21.03923 212.31643,7.49947 C 802.39156,837.50271 846.92042,821.82553 888.20563,800 l -1.47482,154.01199 c -29.03341,5.4534 -58.63273,7.88902 -88.16705,7.25497 -100.31843,-2.15367 -198.1133,-39.46649 -298.37906,-35.56738 -39.35184,1.5303 -78.44688,9.48023 -115.27115,23.44024 L 387.41112,800 c 36.45584,6.80594 74.34299,5.84113 110.40517,-2.81153 57.73512,-13.8528 108.82332,-46.47704 160.73969,-75.28563 31.34995,-17.39621 63.87389,-33.91054 89.57752,-58.90596 12.85181,-12.49771 23.85819,-27.08714 30.99291,-43.53274 7.13471,-16.44559 10.27714,-34.8151 7.55484,-52.53376 -2.83362,-18.44323 -12.09921,-35.83465 -25.82566,-48.47452 -13.72646,-12.63988 -31.8213,-20.44305 -50.43514,-21.74952 l 14.38591,-113.5143 c 9.23807,4.19964 19.74026,5.56849 29.74616,3.8771 10.00591,-1.69138 19.47467,-6.4361 26.8191,-13.43883 10.70005,-10.20223 16.59407,-24.95244 17.091,-39.72842 0.49693,-14.77598 -4.16792,-29.4958 -12.04608,-42.00624 -7.87817,-12.51044 -18.86049,-22.88909 -31.1192,-31.15352 -12.2587,-8.26442 -25.79368,-14.48407 -39.6431,-19.65806 -38.51509,-14.38881 -81.4989,-20.76503 -120.82201,-8.75907 -23.9268,7.30522 -45.54356,21.14496 -63.88694,38.15609 -18.34338,17.01113 -33.55262,37.15268 -46.99611,58.2508 -17.34294,27.21788 -31.98579,56.42345 -40.36955,87.58919 -8.38376,31.16573 -10.32307,64.43165 -2.54602,95.75429 2.29885,9.2588 5.49298,18.4363 10.91394,26.28635 5.42095,7.85005 13.27939,14.31523 22.54071,16.60391 5.47834,1.35382 11.28204,1.21057 16.76718,-0.11545 5.48513,-1.32601 10.65724,-3.81302 15.30182,-7.01816 9.28916,-6.41027 16.36011,-15.53947 22.4595,-25.03566 16.87592,-26.27427 27.35262,-56.26879 33.73016,-86.83774 4.54154,-21.7686 7.07581,-44.03235 6.23625,-66.2538 -0.63508,-16.80921 -3.22532,-33.6315 -8.84807,-49.48513 -5.62275,-15.85362 -14.35212,-30.73555 -26.32479,-42.55112 -15.33875,-15.13748 -35.86046,-24.86701 -57.26056,-27.40799 -21.40009,-2.54097 -43.55098,2.07911 -62.27585,12.74681 -17.2945,9.8528 -31.50422,24.60924 -42.30024,41.33119 -10.79601,16.72194 -18.30227,35.39137 -23.92712,54.48426 -10.95821,37.19631 -14.9336,76.18988 -14.90523,114.96676 0.0251,34.29671 3.14679,68.59056 9.3147,102.3281 l -120.97668,-0.31265 c 19.58861,-46.36659 29.65375,-96.73229 29.38988,-147.06622 -0.0972,-18.54634 -1.60463,-37.22137 -6.65262,-55.06777 -5.04799,-17.8464 -13.79482,-34.90522 -26.94938,-47.97939 -11.80106,-11.72893 -27.16369,-20.04393 -43.61862,-22.50728 -16.45493,-2.46334 -33.92254,1.13878 -47.51163,10.73928 -15.5298,10.97158 -25.13026,28.97992 -28.82315,47.63234 -3.692894,18.65242 -1.963989,37.99158 1.65367,56.65874 13.6478,70.42277 53.21601,132.97396 96.20236,190.40046 33.03484,44.13204 68.5663,86.39504 106.36787,126.51958 z"
   id="path875"
   inkscape:path-effect="#path-effect877"
   inkscape:original-d="m 301.53771,735.13479 -154.87819,89.4657 c 0,0 -17.65653,-80.58727 -28.75293,-120.29313 C 102.38815,648.77828 82.333719,594.61606 65.074069,539.60329 49.039408,488.495 28.451089,438.49951 17.950847,385.97416 7.9270371,335.83207 -8.5660469,283.07927 3.0954276,233.29256 14.132792,186.17039 34.76995,127.61893 79.869245,110.05829 c 54.432945,-21.194959 124.973055,8.34635 168.845175,46.9133 35.18967,30.93441 54.67731,129.48996 54.67731,129.48996 0,0 16.48694,-48.95404 30.35138,-70.43258 17.18866,-26.62836 35.97591,-55.5937 64.08013,-70.24541 37.79478,-19.70374 86.73036,-31.11508 126.79078,-16.56016 50.48842,18.34366 86.95926,69.64925 109.13015,118.57799 24.70241,54.51552 29.84815,119.63606 19.17023,178.52691 -15.31334,84.45607 -52.54484,171.87524 -115.63133,230.0768 -26.31227,24.27486 -65.02699,49.90611 -99.52871,40.35438 -36.54481,-10.11735 -56.36963,-54.92456 -68.43039,-90.87483 -17.71249,-52.79675 -12.80121,-112.79277 -0.32423,-167.06573 13.29379,-57.82596 44.22366,-111.23037 78.04563,-159.98117 28.11994,-40.53192 60.90424,-79.86838 101.86949,-107.3532 56.1693,-37.68567 121.72346,-78.591137 189.16688,-73.434975 41.18028,3.148305 82.16532,29.138735 107.34492,61.875795 36.21911,47.08999 58.60235,113.93561 46.4015,172.07708 -9.47745,45.16349 -86.73672,107.90183 -86.73672,107.90183 0,0 95.10219,70.29667 93.21232,121.23781 -3.65768,98.5925 -115.59922,165.32019 -197.29541,220.63377 -46.05448,31.18184 -112.72069,39.12019 -156.78569,57.08024 10.29398,23.72746 142.31241,18.19444 212.31643,7.49947 C 802.53486,839.3285 888.20563,800 888.20563,800 l -1.47482,154.01199 c 0,0 -58.68362,7.7937 -88.16705,7.25497 -100.14709,-1.82992 -198.29937,-39.6715 -298.37906,-35.56738 -39.17717,1.6066 -115.27115,23.44024 -115.27115,23.44024 L 387.41112,800 c 29.72766,25.72396 74.57563,5.6436 110.40517,-2.81153 57.58402,-13.5888 113.96256,-39.05754 160.73969,-75.28563 52.99175,-41.0412 132.67079,-88.10062 128.12527,-154.97246 -2.3435,-34.47656 -76.2608,-70.22404 -76.2608,-70.22404 l 14.38591,-113.5143 c 0,0 47.8789,7.47411 56.56526,-9.56173 22.40094,-43.93311 -24.77947,-105.05064 -65.71738,-132.54624 -33.52077,-22.51394 -82.51323,-21.52453 -120.82201,-8.75907 -46.46583,15.4836 -85.5958,54.46204 -110.88305,96.40689 -32.40636,53.75358 -56.38318,122.03897 -42.91557,183.34348 3.89044,17.70928 15.64147,39.50721 33.45465,42.89026 20.7329,3.93757 40.86649,-16.0849 54.5285,-32.16927 20.10304,-23.66744 26.58521,-56.61806 33.73016,-86.83774 5.10391,-21.58705 9.23479,-44.27519 6.23625,-66.2538 -4.4396,-32.54127 -9.3061,-71.79877 -35.17286,-92.03625 -31.61724,-24.73651 -82.91382,-31.10292 -119.53641,-14.66118 -35.41956,15.90164 -52.3012,59.57363 -66.22736,95.81545 -13.86075,36.07159 -14.16814,76.3308 -14.90523,114.96676 -0.65331,34.24416 9.3147,102.3281 9.3147,102.3281 l -120.97668,-0.31265 c 0,0 32.33689,-97.16178 29.38988,-147.06622 -2.12982,-36.06628 -5.78371,-79.99385 -33.602,-103.04716 -23.58336,-19.54378 -65.74366,-28.90437 -91.13025,-11.768 -29.775341,20.09885 -30.988126,68.57061 -27.16948,104.29108 7.55864,70.70521 57.02749,131.05665 96.20236,190.40046 30.35416,45.98182 106.36787,126.51958 106.36787,126.51958 z"
   sodipodi:nodetypes="ccaaaaaacaaaaaaaaaaaaaacaacaccaaccaaaccaaaaaaaaaaaaaccaaaaac" /></svg>
