<?xml version="1.0" encoding="UTF-8"?>
<!DOCTYPE svg PUBLIC "-//W3C//DTD SVG 1.1//EN" "http://www.w3.org/Graphics/SVG/1.1/DTD/svg11.dtd">
<!-- Creator: CorelDRAW X8 -->
<svg xmlns="http://www.w3.org/2000/svg" xml:space="preserve" width="2126px" height="1486px" version="1.1" style="shape-rendering:geometricPrecision; text-rendering:geometricPrecision; image-rendering:optimizeQuality; fill-rule:evenodd; clip-rule:evenodd"
viewBox="0 0 2126 1486"
 xmlns:xlink="http://www.w3.org/1999/xlink">
 <defs>
  <style type="text/css">
   <![CDATA[
    .fil0 {fill:#EF7F1A;fill-rule:nonzero}
   ]]>
  </style>
 </defs>
 <g id="Layer_x0020_1">
  <metadata id="CorelCorpID_0Corel-Layer"/>
  <path class="fil0" d="M716 1024c28,0 58,-7 78,-22 16,-11 22,-22 22,-33 0,-18 -16,-35 -40,-45 -154,-63 -216,-260 -216,-413 0,-68 10,-137 35,-200 43,-106 141,-200 265,-200 190,0 212,172 212,319l0 514c0,42 70,56 102,56l747 0c-8,99 -61,183 -143,239 -155,105 -402,135 -586,136 -187,0 -427,-38 -592,-129 -258,-143 -397,-407 -397,-696 0,-171 46,-356 200,-456 16,-11 24,-23 24,-36 0,-16 -14,-32 -36,-43 -19,-8 -42,-13 -65,-13 -29,0 -57,6 -78,20 -182,119 -248,322 -248,528 0,330 164,613 456,775 209,115 499,161 736,161 220,0 498,-40 693,-145 137,-73 241,-190 241,-351l0 -560c0,-116 -44,-221 -132,-299 -106,-94 -254,-131 -395,-131 -139,0 -289,38 -396,132 -83,-98 -217,-132 -343,-132 -191,0 -368,89 -451,261 -37,77 -52,165 -52,250 0,208 92,414 291,500 20,9 44,13 68,13zm1207 -135l-395 0c160,-118 291,-316 290,-524 -1,-87 -28,-172 -93,-232 134,46 198,168 198,297l0 459zm-647 0l0 -459c0,-92 29,-178 100,-240 27,-24 64,-43 102,-43 105,1 140,138 139,220 -3,207 -155,430 -341,522z"/>
 </g>
</svg>
