<?xml version="1.0" encoding="UTF-8" standalone="no"?>
<svg
   xmlns:dc="http://purl.org/dc/elements/1.1/"
   xmlns:cc="http://creativecommons.org/ns#"
   xmlns:rdf="http://www.w3.org/1999/02/22-rdf-syntax-ns#"
   xmlns:svg="http://www.w3.org/2000/svg"
   xmlns="http://www.w3.org/2000/svg"
   xmlns:sodipodi="http://sodipodi.sourceforge.net/DTD/sodipodi-0.dtd"
   xmlns:inkscape="http://www.inkscape.org/namespaces/inkscape"
   xml:space="preserve"
   width="1000"
   height="1000"
   version="1.1"
   style="clip-rule:evenodd;fill-rule:evenodd;image-rendering:optimizeQuality;shape-rendering:geometricPrecision;text-rendering:geometricPrecision"
   viewBox="0 0 1000 1000"
   id="svg10"
   sodipodi:docname="ന്ത.svg"
   inkscape:version="1.0.1 (3bc2e813f5, 2020-09-07)"><metadata
   id="metadata14"><rdf:RDF><cc:Work
       rdf:about=""><dc:format>image/svg+xml</dc:format><dc:type
         rdf:resource="http://purl.org/dc/dcmitype/StillImage" /><dc:title /></cc:Work></rdf:RDF></metadata><sodipodi:namedview
   pagecolor="#ffffff"
   bordercolor="#666666"
   borderopacity="1"
   objecttolerance="10"
   gridtolerance="10"
   guidetolerance="10"
   inkscape:pageopacity="0"
   inkscape:pageshadow="2"
   inkscape:window-width="1920"
   inkscape:window-height="1015"
   id="namedview12"
   showgrid="false"
   inkscape:zoom="0.9588368"
   inkscape:cx="631.09952"
   inkscape:cy="460.17416"
   inkscape:window-x="1920"
   inkscape:window-y="0"
   inkscape:window-maximized="1"
   inkscape:current-layer="svg10"
   showguides="true"
   inkscape:guide-bbox="true"
   inkscape:document-rotation="0"
   inkscape:snap-to-guides="true"><sodipodi:guide
     position="0,1000"
     orientation="0,1"
     id="guide16"
     inkscape:label=""
     inkscape:locked="true"
     inkscape:color="rgb(0,0,255)" /><sodipodi:guide
     position="1763.3122,2036.1693"
     orientation="1000,0"
     id="guide18" /><sodipodi:guide
     position="0,200"
     orientation="0,1"
     id="guide20"
     inkscape:label="base"
     inkscape:locked="true"
     inkscape:color="rgb(0,0,255)" /><inkscape:grid
     type="xygrid"
     id="grid24"
     originx="-473.37552"
     originy="-489.69235" /><sodipodi:guide
     position="0,0"
     orientation="0,1"
     id="guide34"
     inkscape:label="bottom"
     inkscape:locked="true"
     inkscape:color="rgb(0,0,255)" /><sodipodi:guide
     position="225.05109,1693.3186"
     orientation="0,1"
     id="guide44"
     inkscape:label=""
     inkscape:locked="false"
     inkscape:color="rgb(0,0,255)" /><sodipodi:guide
     position="0,900"
     orientation="0,1"
     id="guide46"
     inkscape:label=""
     inkscape:locked="true"
     inkscape:color="rgb(0,0,255)" /><sodipodi:guide
     position="778.78863,579.95671"
     orientation="-1,0"
     id="guide841"
     inkscape:label=""
     inkscape:locked="false"
     inkscape:color="rgb(0,0,255)" /><sodipodi:guide
     position="0,1000"
     orientation="0,1000"
     id="guide860" /><sodipodi:guide
     position="1000,1000"
     orientation="1000,0"
     id="guide862" /><sodipodi:guide
     position="1000,0"
     orientation="0,-1000"
     id="guide864" /><sodipodi:guide
     position="0,0"
     orientation="-1000,0"
     id="guide866" /></sodipodi:namedview>
 <defs
   id="defs4"><inkscape:path-effect
   effect="spiro"
   id="path-effect862"
   is_visible="true"
   lpeversion="1" /><inkscape:path-effect
   effect="spiro"
   id="path-effect1521"
   is_visible="true"
   lpeversion="1" /><inkscape:path-effect
   effect="spiro"
   id="path-effect858"
   is_visible="true"
   lpeversion="1" /><inkscape:path-effect
   effect="spiro"
   id="path-effect854"
   is_visible="true"
   lpeversion="1" />
  <style
   type="text/css"
   id="style2">
   <![CDATA[
    .fil0 {fill:#EF7F1A;fill-rule:nonzero}
   ]]>
  </style>
 <inkscape:path-effect
   effect="spiro"
   id="path-effect1214"
   is_visible="true"
   lpeversion="1" /><inkscape:path-effect
   effect="spiro"
   id="path-effect1195"
   is_visible="true"
   lpeversion="1" /><inkscape:path-effect
   effect="spiro"
   id="path-effect992"
   is_visible="true"
   lpeversion="1" /><inkscape:path-effect
   effect="spiro"
   id="path-effect287"
   is_visible="true"
   lpeversion="1" /><inkscape:path-effect
   effect="spiro"
   id="path-effect1032"
   is_visible="true"
   lpeversion="1" /><inkscape:path-effect
   effect="spiro"
   id="path-effect1218"
   is_visible="true"
   lpeversion="1" /><inkscape:path-effect
   effect="spiro"
   id="path-effect309"
   is_visible="true"
   lpeversion="1" /><inkscape:path-effect
   effect="spiro"
   id="path-effect1176"
   is_visible="true"
   lpeversion="1" /><inkscape:path-effect
   effect="spiro"
   id="path-effect1026"
   is_visible="true"
   lpeversion="1" /><inkscape:path-effect
   effect="spiro"
   id="path-effect1030"
   is_visible="true"
   lpeversion="1" /></defs>
 
<path
   style="display:inline;fill:#1a1a1a;fill-rule:nonzero;stroke:none;stroke-width:2.09522px;stroke-linecap:butt;stroke-linejoin:miter;stroke-opacity:1"
   d="M 207.74684,829.76245 C 201.31661,801.56069 192.73679,773.84932 182.10634,746.94801 150.03722,665.79418 99.903613,593.24351 59.274313,516.01895 27.835881,456.26358 1.6165811,391.63575 0.60468511,324.12238 0.09873714,290.36569 6.0792715,256.28085 20.172872,225.60284 c 14.093601,-30.67801 36.51433,-57.82402 65.227417,-75.58151 36.594291,-22.63159 82.263201,-28.99629 124.364741,-20.1198 42.10153,8.87648 80.51478,32.3773 109.89587,63.81108 36.84489,39.41903 59.83727,91.53972 64.10948,145.32777 8.54957,-36.54948 22.56765,-71.8148 41.44351,-104.25955 28.5948,-49.15014 69.69367,-92.62216 121.8661,-115.23712 26.08622,-11.30748 54.65501,-17.20046 83.05516,-15.86573 28.40014,1.33473 56.58607,10.02414 80.12658,25.96761 29.9666,20.29573 51.40484,51.5653 64.32425,85.37362 12.91941,33.80832 17.82712,70.18338 19.5371,106.33569 2.29612,48.54423 -1.01841,97.35265 -9.8749,145.13735 -15.67109,84.55248 -49.04106,166.15844 -99.91799,235.48551 -15.80964,21.54288 -33.57459,42.15426 -55.84207,56.92584 -22.26749,14.77159 -49.61144,23.29449 -75.96989,18.90444 -22.15577,-3.69008 -42.34694,-16.37956 -56.8374,-33.54119 -14.49046,-17.16163 -23.48474,-38.56631 -27.61278,-60.64468 -8.25609,-44.15673 2.38881,-89.51581 14.94742,-132.64656 24.9388,-85.64875 57.71578,-169.03734 98.21205,-248.52133 28.87071,-56.66595 62.58954,-112.45911 111.32134,-153.3218 24.3659,-20.43135 52.3435,-36.84633 82.73128,-46.21224 30.38777,-9.365903 63.2363,-11.511867 94.18428,-4.207096 30.6193,7.227186 58.83794,23.611826 81.23432,45.706516 22.39639,22.0947 39.03212,49.77039 49.30126,79.50788 16.3855,47.44918 16.555,99.47311 6.5746,148.66964 -9.98038,49.19653 -29.73561,95.91007 -52.48207,140.65944 -44.16327,86.88287 -100.82073,169.89783 -119.54829,265.54461 -2.8785,14.70127 -4.82542,29.58487 -5.82521,44.53189 L 708.14128,749.4208 c 47.88347,-50.01556 92.63088,-103.03309 133.89217,-158.63785 23.92324,-32.23957 46.7912,-65.548 63.72784,-101.94665 16.93663,-36.39865 27.81866,-76.20314 26.69848,-116.33364 -0.83685,-29.98007 -8.56078,-60.05279 -24.42084,-85.50792 -15.86006,-25.45513 -40.13455,-46.03054 -68.67142,-55.25832 -32.32584,-10.45299 -68.34581,-5.85382 -99.26561,8.2242 -30.9198,14.07802 -57.12177,37.0388 -79.15415,62.89995 -59.03441,69.29334 -89.19935,158.35344 -111.40235,246.63513 -5.24176,20.84185 -10.14902,42.3277 -7.43506,63.64655 1.35698,10.65943 4.66806,21.15887 10.43368,30.22653 5.76561,9.06765 14.067,16.64958 23.98138,20.79323 9.10052,3.8035 19.32727,4.61756 29.04679,2.93919 9.71952,-1.67837 18.93883,-5.78322 27.0825,-11.34799 16.28734,-11.12954 28.03013,-27.70318 37.99767,-44.72646 33.92959,-57.9474 51.08612,-125.0568 52.93181,-192.18139 0.8831,-32.11686 -1.76079,-64.81827 -13.13924,-94.86496 -11.37844,-30.04669 -32.24852,-57.36999 -60.97094,-71.76774 -29.90268,-14.98938 -66.24167,-14.65874 -97.41736,-2.53736 -31.17569,12.12139 -57.34217,35.23709 -76.56255,62.61279 -23.5582,33.55409 -37.18556,73.41456 -43.24651,113.96244 -6.06095,40.54788 -4.80054,81.88972 -0.48764,122.6606 3.10879,29.38811 7.79487,58.60931 14.03136,87.49584 l -164.01333,4.12025 c 11.18082,-20.23256 20.78079,-41.33847 28.68362,-63.06202 24.97979,-68.66528 32.47176,-145.41878 10.17472,-215.00149 -5.25354,-16.3948 -12.15401,-32.36551 -21.77548,-46.64194 -9.62148,-14.27644 -22.0554,-26.84255 -37.01426,-35.36439 -17.53013,-9.98666 -38.26237,-14.1252 -58.32767,-12.02224 -20.06531,2.10295 -39.38596,10.38163 -55.00066,23.15738 -17.28947,14.14603 -29.9258,33.60135 -37.16134,54.73621 -7.23554,21.13487 -9.19746,43.8951 -7.1043,66.13592 4.18631,44.48166 24.10613,85.98329 47.32869,124.15206 24.45573,40.19562 53.09329,78.11059 87.55113,110.14851 32.39425,30.11925 69.79076,54.84568 110.1904,72.85749 z"
   id="path1087-1-75"
   inkscape:path-effect="#path-effect1030"
   inkscape:original-d="m 207.74684,829.76245 c -12.76427,-34.18253 -14.53257,-56.137 -25.6405,-82.81444 C 148.59214,666.45857 77.346458,601.3136 59.274313,516.01895 33.922282,396.36565 -11.405066,224.77671 85.400289,150.02133 148.27013,101.47184 257.39242,144.39412 319.6609,193.71261 c 41.50526,32.87348 64.10948,145.32777 64.10948,145.32777 0,0 14.67054,-78.14763 41.44351,-104.25955 72.50017,-70.71006 191.8699,-144.809656 285.04784,-105.13524 64.1745,27.32498 71.90881,122.99136 83.86135,191.70931 8.30957,47.77369 1.3974,97.97477 -9.8749,145.13735 -19.82178,82.93298 -43.37235,171.66254 -99.91799,235.48551 -33.61435,37.94046 -84.6584,94.42985 -131.81196,75.83028 C 478.95377,748.79078 479.89158,629.99442 483.01547,550.97561 486.53415,461.9706 526.19898,372.49807 581.22752,302.45428 653.91447,209.93376 752.13388,89.939031 869.46442,98.713144 929.59043,103.20944 980.78065,166.77887 1000,223.92754 c 31.1269,92.55561 -18.70167,195.54599 -45.90747,289.32908 -22.90378,78.95327 -89.59124,204.2663 -119.54829,265.54461 -10.28426,21.03686 -5.82521,44.53189 -5.82521,44.53189 L 708.14128,749.4208 c 0,0 97.90865,-99.53365 133.89217,-158.63785 40.95504,-67.27008 97.95773,-139.88478 90.42632,-218.28029 C 927.08019,316.50579 893.04969,248.55345 839.36751,231.73642 778.2708,212.59664 707.22544,258.61676 660.94775,302.86057 595.74342,365.19919 558.24469,459.70689 549.5454,549.4957 c -3.78659,39.08287 -8.98605,98.91027 26.98,114.66631 33.00181,14.45747 71.95628,-24.73457 94.12696,-53.13526 40.88711,-52.37648 57.90125,-125.92163 52.93181,-192.18139 -4.54644,-60.61971 -18.35642,-142.40591 -74.11018,-166.6327 -56.27045,-24.45131 -133.96268,13.56897 -173.97991,60.07543 -52.3165,60.80021 -42.78161,156.41846 -43.73415,236.62304 -0.35078,29.53584 14.03136,87.49584 14.03136,87.49584 l -164.01333,4.12025 c 0,0 23.2598,-40.61503 28.68362,-63.06202 16.8512,-69.74039 30.50826,-146.19573 10.17472,-215.00149 -9.53206,-32.25511 -28.15389,-68.12479 -58.78974,-82.00633 -34.57432,-15.66612 -88.01026,-17.14572 -113.32833,11.13514 -54.481448,60.85701 -24.334,168.07482 3.06305,245.02419 15.73151,44.18468 52.96972,78.46425 87.55113,110.14851 32.46628,29.74634 110.1904,72.85749 110.1904,72.85749 z"
   sodipodi:nodetypes="caaaacaaaaaaaaaassccaaaaaaaaaaaccaaaaaacc" /></svg>
