<?xml version="1.0" encoding="UTF-8" standalone="no"?>
<svg
   xmlns:dc="http://purl.org/dc/elements/1.1/"
   xmlns:cc="http://creativecommons.org/ns#"
   xmlns:rdf="http://www.w3.org/1999/02/22-rdf-syntax-ns#"
   xmlns:svg="http://www.w3.org/2000/svg"
   xmlns="http://www.w3.org/2000/svg"
   xmlns:sodipodi="http://sodipodi.sourceforge.net/DTD/sodipodi-0.dtd"
   xmlns:inkscape="http://www.inkscape.org/namespaces/inkscape"
   xml:space="preserve"
   width="1000"
   height="1000"
   version="1.1"
   style="clip-rule:evenodd;fill-rule:evenodd;image-rendering:optimizeQuality;shape-rendering:geometricPrecision;text-rendering:geometricPrecision"
   viewBox="0 0 1000 1000"
   id="svg10"
   sodipodi:docname="ന്റ.svg"
   inkscape:version="1.0.1 (3bc2e813f5, 2020-09-07)"><metadata
   id="metadata14"><rdf:RDF><cc:Work
       rdf:about=""><dc:format>image/svg+xml</dc:format><dc:type
         rdf:resource="http://purl.org/dc/dcmitype/StillImage" /><dc:title /></cc:Work></rdf:RDF></metadata><sodipodi:namedview
   pagecolor="#ffffff"
   bordercolor="#666666"
   borderopacity="1"
   objecttolerance="10"
   gridtolerance="10"
   guidetolerance="10"
   inkscape:pageopacity="0"
   inkscape:pageshadow="2"
   inkscape:window-width="1920"
   inkscape:window-height="1015"
   id="namedview12"
   showgrid="false"
   inkscape:zoom="0.9588368"
   inkscape:cx="473.93315"
   inkscape:cy="488.06209"
   inkscape:window-x="1920"
   inkscape:window-y="0"
   inkscape:window-maximized="1"
   inkscape:current-layer="svg10"
   showguides="true"
   inkscape:guide-bbox="true"
   inkscape:document-rotation="0"
   inkscape:snap-to-guides="true"><sodipodi:guide
     position="0,1000"
     orientation="0,1"
     id="guide16"
     inkscape:label=""
     inkscape:locked="true"
     inkscape:color="rgb(0,0,255)" /><sodipodi:guide
     position="1763.3122,2036.1693"
     orientation="1000,0"
     id="guide18" /><sodipodi:guide
     position="0,200"
     orientation="0,1"
     id="guide20"
     inkscape:label="base"
     inkscape:locked="true"
     inkscape:color="rgb(0,0,255)" /><inkscape:grid
     type="xygrid"
     id="grid24"
     originx="-473.37552"
     originy="-489.69235" /><sodipodi:guide
     position="0,0"
     orientation="0,1"
     id="guide34"
     inkscape:label="bottom"
     inkscape:locked="true"
     inkscape:color="rgb(0,0,255)" /><sodipodi:guide
     position="225.05109,1693.3186"
     orientation="0,1"
     id="guide44"
     inkscape:label=""
     inkscape:locked="false"
     inkscape:color="rgb(0,0,255)" /><sodipodi:guide
     position="0,900"
     orientation="0,1"
     id="guide46"
     inkscape:label=""
     inkscape:locked="true"
     inkscape:color="rgb(0,0,255)" /><sodipodi:guide
     position="778.78863,579.95671"
     orientation="-1,0"
     id="guide841"
     inkscape:label="width"
     inkscape:locked="false"
     inkscape:color="rgb(0,0,255)" /><sodipodi:guide
     position="0,1000"
     orientation="0,1000"
     id="guide860" /><sodipodi:guide
     position="1000,1000"
     orientation="1000,0"
     id="guide862" /><sodipodi:guide
     position="1000,0"
     orientation="0,-1000"
     id="guide864" /><sodipodi:guide
     position="0,0"
     orientation="-1000,0"
     id="guide866" /></sodipodi:namedview>
 <defs
   id="defs4"><inkscape:path-effect
   effect="spiro"
   id="path-effect862"
   is_visible="true"
   lpeversion="1" /><inkscape:path-effect
   effect="spiro"
   id="path-effect1521"
   is_visible="true"
   lpeversion="1" /><inkscape:path-effect
   effect="spiro"
   id="path-effect858"
   is_visible="true"
   lpeversion="1" /><inkscape:path-effect
   effect="spiro"
   id="path-effect854"
   is_visible="true"
   lpeversion="1" />
  <style
   type="text/css"
   id="style2">
   <![CDATA[
    .fil0 {fill:#EF7F1A;fill-rule:nonzero}
   ]]>
  </style>
 <inkscape:path-effect
   effect="spiro"
   id="path-effect1214"
   is_visible="true"
   lpeversion="1" /><inkscape:path-effect
   effect="spiro"
   id="path-effect1195"
   is_visible="true"
   lpeversion="1" /><inkscape:path-effect
   effect="spiro"
   id="path-effect992"
   is_visible="true"
   lpeversion="1" /><inkscape:path-effect
   effect="spiro"
   id="path-effect287"
   is_visible="true"
   lpeversion="1" /><inkscape:path-effect
   effect="spiro"
   id="path-effect1032"
   is_visible="true"
   lpeversion="1" /><inkscape:path-effect
   effect="spiro"
   id="path-effect1218"
   is_visible="true"
   lpeversion="1" /><inkscape:path-effect
   effect="spiro"
   id="path-effect309"
   is_visible="true"
   lpeversion="1" /><inkscape:path-effect
   effect="spiro"
   id="path-effect1176"
   is_visible="true"
   lpeversion="1" /><inkscape:path-effect
   effect="spiro"
   id="path-effect1026"
   is_visible="true"
   lpeversion="1" /><inkscape:path-effect
   effect="spiro"
   id="path-effect1030"
   is_visible="true"
   lpeversion="1" /><inkscape:path-effect
   effect="spiro"
   id="path-effect1525"
   is_visible="true"
   lpeversion="1" /></defs>
 
<path
   style="display:inline;fill:#1a1a1a;fill-rule:nonzero;stroke:none;stroke-width:2.09522px;stroke-linecap:butt;stroke-linejoin:miter;stroke-opacity:1"
   d="M 207.74684,829.76245 C 201.31661,801.56069 192.73679,773.84932 182.10634,746.94801 150.03722,665.79418 99.903613,593.24351 59.274313,516.01895 27.835881,456.26358 1.6165811,391.63575 0.60468511,324.12238 0.09873714,290.36569 6.0792715,256.28085 20.172872,225.60284 c 14.093601,-30.67801 36.51433,-57.82402 65.227417,-75.58151 36.594291,-22.63159 82.263201,-28.99629 124.364741,-20.1198 42.10153,8.87648 80.51478,32.3773 109.89587,63.81108 36.84489,39.41903 59.83727,91.53972 64.10948,145.32777 9.28418,-36.33336 23.25016,-71.46761 41.44351,-104.25955 27.01496,-48.69213 64.75886,-93.2439 114.66364,-117.94703 24.95239,-12.35156 52.66458,-19.474748 80.5051,-19.178477 27.84053,0.296271 55.76553,8.179397 78.85551,23.736897 30.49569,20.5473 51.17751,53.37381 62.89788,88.22796 11.72037,34.85415 15.1974,71.90587 17.02931,108.63219 2.40296,48.17475 2.07333,96.89202 -7.97619,144.06816 -13.15677,61.76267 -43.2601,119.97498 -86.85895,165.65723 -16.87209,17.67833 -35.96276,33.65387 -58.08558,44.03519 -22.12281,10.38133 -47.55176,14.86197 -71.34745,9.29818 -19.73464,-4.61425 -37.62317,-16.00347 -51.15143,-31.09431 -13.52827,-15.09084 -22.79472,-33.75751 -27.93334,-53.36215 -10.27724,-39.20928 -4.20996,-80.9852 7.20308,-119.87906 18.97758,-64.67262 52.16103,-124.13129 77.65339,-186.52388 13.84505,-33.88578 25.53462,-69.16937 27.98007,-105.69267 2.44545,-36.52329 -5.06119,-74.67628 -26.64527,-104.240762 C 543.5294,55.213446 515.75032,37.610169 485.94845,27.941518 456.14659,18.272866 424.33462,16.118257 393.04191,17.667506 321.31663,21.218503 250.64874,44.232483 190.58748,83.599602 l -21.39065,-159.9525 c 33.34918,0.324153 66.69771,0.715873 100.0453,1.175156 63.11048,0.869195 126.94364,2.07629 187.97539,18.163999 34.51257,9.097365 67.9527,23.003902 97.46225,43.080391 29.50956,20.0764891 55.01963,46.470075 72.05319,77.834658 18.03906,33.216042 26.19187,71.267264 26.75246,109.061424 0.56058,37.79416 -6.25426,75.417 -16.7387,111.73214 -19.20563,66.52287 -50.52411,128.8041 -75.89052,193.22998 -7.66762,19.4743 -14.9011,39.76689 -14.24639,60.68607 0.32736,10.45959 2.69558,20.94884 7.69236,30.14353 4.99679,9.19469 12.71531,17.03611 22.22323,21.40756 8.96981,4.12404 19.2544,5.04026 28.97601,3.32108 9.7216,-1.71918 18.89284,-5.98731 26.95109,-11.69079 16.11651,-11.40697 27.57289,-28.12439 38.19986,-44.76555 23.37633,-36.60586 44.7991,-75.51641 52.93181,-118.18139 6.1472,-32.24877 4.29229,-66.40073 -8.14199,-96.78428 -12.43428,-30.38355 -35.90161,-56.66616 -65.96819,-69.84842 -30.38226,-13.32067 -66.02479,-12.61024 -97.03608,-0.82799 -31.01129,11.78225 -57.46206,34.05231 -76.94383,60.90342 -24.10636,33.22504 -37.86253,73.19582 -43.81152,113.81145 -5.949,40.61563 -4.37291,82.00454 0.0774,122.81159 3.20368,29.37625 7.88872,58.5909 14.03136,87.49584 l -164.01333,4.12025 c 11.18082,-20.23256 20.78079,-41.33847 28.68362,-63.06202 24.97979,-68.66528 32.47176,-145.41878 10.17472,-215.00149 -5.25354,-16.3948 -12.15401,-32.36551 -21.77548,-46.64194 -9.62148,-14.27644 -22.0554,-26.84255 -37.01426,-35.36439 -17.53013,-9.98666 -38.26237,-14.1252 -58.32767,-12.02224 -20.06531,2.10295 -39.38596,10.38163 -55.00066,23.15738 -17.28947,14.14603 -29.9258,33.60135 -37.16134,54.73621 -7.23554,21.13487 -9.19746,43.8951 -7.1043,66.13592 4.18631,44.48166 24.10613,85.98329 47.32869,124.15206 24.45573,40.19562 53.09329,78.11059 87.55113,110.14851 32.39425,30.11925 69.79076,54.84568 110.1904,72.85749 z"
   id="path1087-1-75"
   inkscape:path-effect="#path-effect1030"
   inkscape:original-d="m 207.74684,829.76245 c -12.76427,-34.18253 -14.53257,-56.137 -25.6405,-82.81444 C 148.59214,666.45857 77.346458,601.3136 59.274313,516.01895 33.922282,396.36565 -11.405066,224.77671 85.400289,150.02133 148.27013,101.47184 257.39242,144.39412 319.6609,193.71261 c 41.50526,32.87348 64.10948,145.32777 64.10948,145.32777 0,0 15.18453,-77.63076 41.44351,-104.25955 69.40875,-70.38628 182.83677,-151.554714 274.02425,-113.38861 65.33084,27.34392 68.28156,127.00181 79.92719,196.86015 7.90868,47.44158 4.81154,97.70304 -7.97619,144.06816 -16.57726,60.10504 -40.78933,123.64518 -86.85895,165.65723 -34.47953,31.44275 -74.45358,63.35663 -129.43303,53.33337 C 479.93312,667.6445 480.98565,549.15048 483.01547,476.97561 484.90878,409.6547 547.26083,356.45108 560.66886,290.45173 574.60083,221.87337 601.7567,138.10986 562.00366,80.518298 527.86784,31.064605 440.8478,21.475983 393.04191,17.667506 291.59362,9.5855838 190.58748,83.599602 190.58748,83.599602 l -21.39065,-159.9525 c 0,0 47.77826,-1.199871 100.0453,1.175156 63.07625,2.8662 139.12467,-0.39129 187.97539,18.163999 64.884,24.645317 136.3459,59.9469621 169.51544,120.915049 35.20852,64.715884 22.07541,148.114114 10.01376,220.793564 -11.32918,68.26585 -67.76017,124.50972 -75.89052,193.22998 -4.43826,37.51358 -18.19469,95.49786 15.6692,112.23716 32.29909,15.9658 69.85948,-26.50394 94.12696,-53.13526 29.07312,-31.90507 52.8754,-75.01686 52.93181,-118.18139 0.0795,-60.78991 -18.35642,-142.40591 -74.11018,-166.6327 -56.27045,-24.45131 -133.96268,13.56897 -173.97991,60.07543 -52.3165,60.80021 -42.78161,156.41846 -43.73415,236.62304 -0.35078,29.53584 14.03136,87.49584 14.03136,87.49584 l -164.01333,4.12025 c 0,0 23.2598,-40.61503 28.68362,-63.06202 16.8512,-69.74039 30.50826,-146.19573 10.17472,-215.00149 -9.53206,-32.25511 -28.15389,-68.12479 -58.78974,-82.00633 -34.57432,-15.66612 -88.01026,-17.14572 -113.32833,11.13514 -54.481448,60.85701 -24.334,168.07482 3.06305,245.02419 15.73151,44.18468 52.96972,78.46425 87.55113,110.14851 32.46628,29.74634 110.1904,72.85749 110.1904,72.85749 z"
   sodipodi:nodetypes="caaaacaaaaasaaasccssaaaaaaaaaccaaaaaacc" /><path
   style="clip-rule:evenodd;display:inline;fill:#1a1a1a;fill-rule:evenodd;stroke:none;stroke-width:2.02105px;stroke-linecap:butt;stroke-linejoin:miter;stroke-opacity:1;image-rendering:optimizeQuality;shape-rendering:geometricPrecision;text-rendering:geometricPrecision"
   d="m 352.97569,1173.0036 c 10.69385,-20.9777 16.93303,-44.2128 18.18587,-67.7256 1.61238,-30.2604 -4.95272,-60.4518 -14.60364,-89.1772 -8.36998,-24.91277 -19.0806,-49.04769 -26.11065,-74.37122 -13.02625,-46.92291 -12.47287,-99.20282 10.3501,-142.22089 11.93203,-22.49019 29.5338,-41.73634 49.9144,-56.99456 20.3806,-15.25821 43.50337,-26.62028 67.52686,-35.04963 37.19925,-13.05245 76.99327,-19.18657 116.30411,-16.21864 39.31084,2.96793 78.09768,15.18052 111.11683,36.71854 31.48656,20.53833 58.11174,50.68155 67.61709,87.05289 5.28281,20.21418 5.12254,41.56695 1.8847,62.20763 -3.23785,20.64068 -9.48032,40.68596 -16.26619,60.44636 -11.74615,34.2047 -25.34782,68.64322 -26.17481,104.79912 -0.7594,33.2009 9.75444,66.559 29.41405,93.3243 l -200.85831,-9.6125 c 24.45733,-18.2716 46.96777,-39.1475 67.0278,-62.1607 28.19707,-32.3482 52.19562,-70.80499 55.93308,-113.55438 1.96273,-22.44988 -1.87648,-45.43125 -11.38549,-65.86231 -9.509,-20.43107 -24.70372,-38.23707 -43.59956,-50.517 -27.98451,-18.18644 -63.43103,-23.62634 -96.13651,-16.97571 -18.85609,3.83437 -36.99352,11.5626 -52.3765,23.12193 -15.38299,11.55934 -27.94911,26.99234 -35.46628,44.70523 -10.30103,24.27258 -10.79397,51.99654 -4.60188,77.62714 9.35393,38.7182 32.83469,72.2406 55.22095,105.1868 20.58961,30.302 40.64502,60.9671 60.15376,91.976 z"
   id="path933-8"
   inkscape:path-effect="#path-effect1525"
   inkscape:original-d="m 352.97569,1173.0036 c 0,0 17.01743,-44.3799 18.18587,-67.7256 1.50569,-30.084 -7.15199,-59.9918 -14.60364,-89.1772 -6.49976,-25.4572 -22.63961,-48.32764 -26.11065,-74.37122 -6.2795,-47.11572 -16.25648,-97.84819 10.3501,-142.22089 22.10478,-36.86489 59.444,-77.59929 117.44126,-92.04419 71.2488,-17.7453 165.45034,-7.9511 227.42094,20.4999 41.36512,18.9909 57.88351,55.0147 67.61709,87.05289 12.21035,40.1905 -6.92597,81.94759 -14.38149,122.65399 -6.43854,35.1538 -27.29318,69.39102 -26.17481,104.79912 1.00386,31.783 -1.21561,91.8585 29.41405,93.3243 l -200.85831,-9.6125 c 10.97287,0.5249 48.82127,-37.7263 67.0278,-62.1607 25.21063,-33.8344 55.58908,-71.36165 55.93308,-113.55438 0.3498,-42.90351 -20.88369,-90.34221 -54.98505,-116.37931 -25.86419,-19.74784 -64.5386,-24.75423 -96.13651,-16.97571 -35.92139,8.84283 -70.55528,35.12113 -87.84278,67.82716 -12.11315,22.91674 -10.05886,52.28692 -4.60188,77.62714 8.33674,38.7128 35.15689,71.0457 55.22095,105.1868 18.56087,31.5832 36.90114,66.858 60.15376,91.976 z"
   sodipodi:nodetypes="caaaaaaaaacsaaaaaaacc" /></svg>
