<?xml version="1.0" encoding="UTF-8"?>
<!DOCTYPE svg PUBLIC "-//W3C//DTD SVG 1.1//EN" "http://www.w3.org/Graphics/SVG/1.1/DTD/svg11.dtd">
<!-- Creator: CorelDRAW X8 -->
<svg xmlns="http://www.w3.org/2000/svg" xml:space="preserve" width="2307px" height="1486px" version="1.1" style="shape-rendering:geometricPrecision; text-rendering:geometricPrecision; image-rendering:optimizeQuality; fill-rule:evenodd; clip-rule:evenodd"
viewBox="0 0 2307 1486"
 xmlns:xlink="http://www.w3.org/1999/xlink">
 <defs>
  <style type="text/css">
   <![CDATA[
    .fil0 {fill:#EF7F1A;fill-rule:nonzero}
   ]]>
  </style>
 </defs>
 <g id="Layer_x0020_1">
  <metadata id="CorelCorpID_0Corel-Layer"/>
  <path class="fil0" d="M2158 1486c46,0 101,-28 101,-79 0,-52 -55,-79 -101,-79l-1842 0c-54,0 -111,0 -111,-70 0,-63 59,-68 111,-68l1481 0c152,0 312,-36 420,-150 64,-67 90,-150 90,-240 0,-112 -55,-211 -153,-268 65,-46 104,-117 104,-197 0,-109 -69,-200 -163,-254 -106,-62 -241,-80 -364,-80 -100,0 -203,9 -299,39 -79,-29 -154,-40 -238,-40 -136,0 -288,33 -371,114 -83,-84 -205,-113 -321,-113 -189,0 -368,90 -450,263 -36,75 -51,167 -51,250 0,206 87,408 290,496 20,9 44,14 69,14 28,0 56,-6 78,-22 14,-11 20,-22 20,-33 0,-19 -16,-35 -40,-45 -153,-63 -215,-257 -215,-410 0,-68 10,-137 35,-200 43,-107 142,-201 264,-201 152,0 213,121 213,255l0 599c0,42 69,56 101,56 32,0 101,-14 101,-56l0 -575c0,-167 106,-279 277,-280 23,0 47,2 70,6 -152,113 -230,296 -230,481 0,85 18,168 59,243 69,124 189,180 328,180 139,0 260,-58 328,-180 43,-76 59,-158 59,-243 0,-183 -79,-362 -226,-476 49,-9 100,-10 149,-10 139,0 332,47 332,220 0,62 -33,146 -106,146 -35,0 -81,13 -81,56 0,43 46,55 80,56 106,2 157,117 157,209 0,58 -22,115 -57,162 -58,80 -160,117 -256,117l-1484 0c-138,0 -316,29 -316,204 0,171 175,203 316,203l1842 0zm-737 -575c-61,0 -108,-53 -134,-101 -36,-65 -51,-138 -51,-211 -1,-151 60,-316 185,-411 123,95 185,260 185,411 0,73 -14,145 -50,210 -27,48 -75,102 -135,102z"/>
 </g>
</svg>
