<?xml version="1.0" encoding="UTF-8" standalone="no"?>
<svg
   xmlns:dc="http://purl.org/dc/elements/1.1/"
   xmlns:cc="http://creativecommons.org/ns#"
   xmlns:rdf="http://www.w3.org/1999/02/22-rdf-syntax-ns#"
   xmlns:svg="http://www.w3.org/2000/svg"
   xmlns="http://www.w3.org/2000/svg"
   xmlns:sodipodi="http://sodipodi.sourceforge.net/DTD/sodipodi-0.dtd"
   xmlns:inkscape="http://www.inkscape.org/namespaces/inkscape"
   xml:space="preserve"
   width="1000"
   height="1000"
   version="1.1"
   style="clip-rule:evenodd;fill-rule:evenodd;image-rendering:optimizeQuality;shape-rendering:geometricPrecision;text-rendering:geometricPrecision"
   viewBox="0 0 1000 1000"
   id="svg10"
   sodipodi:docname="ന്ത.svg"
   inkscape:version="1.0.1 (3bc2e813f5, 2020-09-07)"><metadata
   id="metadata14"><rdf:RDF><cc:Work
       rdf:about=""><dc:format>image/svg+xml</dc:format><dc:type
         rdf:resource="http://purl.org/dc/dcmitype/StillImage" /><dc:title /></cc:Work></rdf:RDF></metadata><sodipodi:namedview
   pagecolor="#ffffff"
   bordercolor="#666666"
   borderopacity="1"
   objecttolerance="10"
   gridtolerance="10"
   guidetolerance="10"
   inkscape:pageopacity="0"
   inkscape:pageshadow="2"
   inkscape:window-width="1920"
   inkscape:window-height="1015"
   id="namedview12"
   showgrid="false"
   inkscape:zoom="0.678"
   inkscape:cx="398.19786"
   inkscape:cy="350.20304"
   inkscape:window-x="1920"
   inkscape:window-y="0"
   inkscape:window-maximized="1"
   inkscape:current-layer="svg10"
   showguides="true"
   inkscape:guide-bbox="true"
   inkscape:document-rotation="0"
   inkscape:snap-to-guides="true"><sodipodi:guide
     position="0,1000"
     orientation="0,1"
     id="guide16"
     inkscape:label=""
     inkscape:locked="true"
     inkscape:color="rgb(0,0,255)" /><sodipodi:guide
     position="1763.3122,2036.1693"
     orientation="1000,0"
     id="guide18" /><sodipodi:guide
     position="0,200"
     orientation="0,1"
     id="guide20"
     inkscape:label="base"
     inkscape:locked="true"
     inkscape:color="rgb(0,0,255)" /><inkscape:grid
     type="xygrid"
     id="grid24"
     originx="-473.37552"
     originy="-489.69235" /><sodipodi:guide
     position="0,0"
     orientation="0,1"
     id="guide34"
     inkscape:label="bottom"
     inkscape:locked="true"
     inkscape:color="rgb(0,0,255)" /><sodipodi:guide
     position="225.05109,1693.3186"
     orientation="0,1"
     id="guide44"
     inkscape:label=""
     inkscape:locked="false"
     inkscape:color="rgb(0,0,255)" /><sodipodi:guide
     position="0,900"
     orientation="0,1"
     id="guide46"
     inkscape:label=""
     inkscape:locked="true"
     inkscape:color="rgb(0,0,255)" /><sodipodi:guide
     position="932.9906,923.88079"
     orientation="-1,0"
     id="guide841"
     inkscape:label="width"
     inkscape:locked="false"
     inkscape:color="rgb(0,0,255)" /><sodipodi:guide
     position="0,1000"
     orientation="0,1000"
     id="guide860" /><sodipodi:guide
     position="1000,1000"
     orientation="1000,0"
     id="guide862" /><sodipodi:guide
     position="1000,0"
     orientation="0,-1000"
     id="guide864" /><sodipodi:guide
     position="0,0"
     orientation="-1000,0"
     id="guide866" /></sodipodi:namedview>
 <defs
   id="defs4"><inkscape:path-effect
   effect="spiro"
   id="path-effect877"
   is_visible="true"
   lpeversion="1" /><inkscape:path-effect
   effect="spiro"
   id="path-effect862"
   is_visible="true"
   lpeversion="1" /><inkscape:path-effect
   effect="spiro"
   id="path-effect1521"
   is_visible="true"
   lpeversion="1" /><inkscape:path-effect
   effect="spiro"
   id="path-effect858"
   is_visible="true"
   lpeversion="1" /><inkscape:path-effect
   effect="spiro"
   id="path-effect854"
   is_visible="true"
   lpeversion="1" />
  <style
   type="text/css"
   id="style2">
   <![CDATA[
    .fil0 {fill:#EF7F1A;fill-rule:nonzero}
   ]]>
  </style>
 <inkscape:path-effect
   effect="spiro"
   id="path-effect1214"
   is_visible="true"
   lpeversion="1" /><inkscape:path-effect
   effect="spiro"
   id="path-effect1195"
   is_visible="true"
   lpeversion="1" /><inkscape:path-effect
   effect="spiro"
   id="path-effect992"
   is_visible="true"
   lpeversion="1" /><inkscape:path-effect
   effect="spiro"
   id="path-effect287"
   is_visible="true"
   lpeversion="1" /><inkscape:path-effect
   effect="spiro"
   id="path-effect1032"
   is_visible="true"
   lpeversion="1" /><inkscape:path-effect
   effect="spiro"
   id="path-effect1218"
   is_visible="true"
   lpeversion="1" /><inkscape:path-effect
   effect="spiro"
   id="path-effect309"
   is_visible="true"
   lpeversion="1" /><inkscape:path-effect
   effect="spiro"
   id="path-effect1176"
   is_visible="true"
   lpeversion="1" /><inkscape:path-effect
   effect="spiro"
   id="path-effect1026"
   is_visible="true"
   lpeversion="1" /><inkscape:path-effect
   effect="spiro"
   id="path-effect1030"
   is_visible="true"
   lpeversion="1" /></defs>
 
<path
   style="fill:#2d2d2d;fill-rule:nonzero;stroke:none;stroke-width:1.70778px;stroke-linecap:butt;stroke-linejoin:miter;stroke-opacity:1"
   d="M 319.97666,778.37478 152.52342,828.18617 C 141.32115,787.82086 128.33379,747.95099 113.61201,708.73214 93.390294,654.86144 69.904708,602.2346 50.74128,547.97842 32.21388,495.52299 17.71612,441.35224 12.414683,385.97416 7.5381645,335.03471 10.521364,283.36048 21.095428,233.29256 c 5.179949,-24.52693 12.26808,-48.9086 24.457847,-70.81321 12.189767,-21.9046 29.839894,-41.32025 52.31597,-52.42106 26.651015,-13.162794 58.572305,-13.655129 86.859055,-4.523 28.28675,9.13214 53.09183,27.30592 73.12324,49.26676 36.00142,39.46907 57.3656,91.99638 59.13342,145.38912 10.03941,-27.98584 23.98377,-54.56774 41.30278,-78.73484 25.97414,-36.24454 60.84917,-67.73201 103.31233,-81.34094 33.0227,-10.58338 69.45997,-9.70437 102.23736,1.61594 50.30483,17.37375 90.30387,58.36967 113.90674,106.07006 26.95186,54.46855 34.05071,117.20165 28.65174,177.73327 -3.99694,44.81251 -14.77616,89.44105 -35.82543,129.20366 -21.04927,39.76261 -52.81318,74.49957 -92.77308,95.17185 -13.4807,6.97391 -27.89093,12.34686 -42.88232,14.71813 -14.99138,2.37127 -30.59801,1.66647 -44.98057,-3.18189 -15.16163,-5.11098 -28.60161,-14.70825 -39.39809,-26.51644 -10.79649,-11.80818 -19.04051,-25.78166 -25.45013,-40.44161 -21.175,-48.43102 -22.30061,-103.80792 -12.08655,-155.66944 21.10086,-107.13886 88.97248,-201.68794 175.74961,-267.97303 26.67791,-20.37804 55.33873,-38.44696 86.41378,-51.14801 31.07505,-12.70104 64.68592,-19.93004 98.21849,-18.33564 22.41248,1.06566 44.74348,6.11345 64.94887,15.87035 20.20539,9.75691 38.23328,24.30797 51.09617,42.69278 13.37845,19.12169 20.89971,41.90408 24.24941,64.99956 3.3497,23.09549 2.68266,46.59591 0.79194,69.85633 -7.50416,92.31922 -34.0742,182.13698 -67.03736,268.69668 -26.18874,68.77041 -56.49708,135.95825 -90.32839,201.30855 -13.89531,26.8409 -28.38522,53.37397 -43.45552,79.57319 L 563.64785,782.89687 c 19.50975,-17.62833 38.675,-35.63793 57.48111,-54.01505 59.51356,-58.15598 115.99006,-120.78002 155.69613,-193.906 25.38143,-46.74453 43.77635,-98.25671 45.63954,-151.41493 0.95152,-27.14764 -2.50655,-54.70552 -12.65456,-79.90309 -10.148,-25.19758 -27.26397,-47.94969 -50.15583,-62.57373 -17.64737,-11.27369 -38.35501,-17.49181 -59.2609,-18.70409 -20.90589,-1.21227 -41.98707,2.50305 -61.56111,9.94502 -46.5058,17.68132 -82.84526,55.30578 -110.88305,96.40689 -18.30617,26.83535 -33.88285,55.88146 -42.50308,87.20147 -8.62023,31.32001 -10.01112,65.10787 -0.41249,96.14201 2.77158,8.96102 6.47775,17.72104 11.94533,25.34254 5.46758,7.62149 12.79392,14.08025 21.50932,17.54772 11.35094,4.51603 24.38062,3.64528 35.81133,-0.66486 11.43071,-4.31014 21.40885,-11.83351 30.16513,-20.35208 22.00787,-21.41042 36.97731,-49.42459 45.37653,-78.95772 8.99167,-31.61627 10.65004,-65.63343 2.22472,-97.40532 -8.42532,-31.77188 -27.29997,-61.10672 -54.25566,-79.91708 -34.2278,-23.88502 -80.38007,-29.1117 -119.53641,-14.66118 -21.42584,7.90714 -40.69225,21.28334 -56.29827,37.95792 -15.60602,16.67458 -27.59573,36.59384 -35.92909,57.85753 -14.21899,36.28168 -17.77074,76.10381 -14.90523,114.96676 2.6555,36.01467 10.71299,71.6263 23.81982,105.27625 l -136.46232,8.48631 c 23.93321,-49.00264 34.53422,-104.4376 30.3704,-158.81333 -2.79242,-36.46652 -12.49305,-73.1805 -33.602,-103.04716 -10.14902,-14.35966 -23.05187,-27.10952 -38.78412,-34.96437 -15.73226,-7.85485 -34.48509,-10.45803 -51.17476,-4.92112 -12.07459,4.00582 -22.61204,12.08907 -30.38598,22.15924 -7.77394,10.07017 -12.86456,22.06109 -15.669549,34.46974 -5.609987,24.81728 -2.233899,50.72059 2.172499,75.77959 12.00089,68.24855 31.74775,135.74088 65.42948,196.30017 36.69882,65.98397 89.77273,122.77979 153.12188,163.85986 z"
   id="path875"
   inkscape:path-effect="#path-effect877"
   inkscape:original-d="m 319.97666,778.37478 -167.45324,49.81139 c 0,0 -24.79369,-80.02819 -38.91141,-119.45403 C 94.215097,654.56335 67.885179,602.90187 50.74128,547.97842 34.206681,495.00697 17.278209,441.25267 12.414683,385.97416 7.946954,335.19426 5.69173,281.88561 21.095428,233.29256 35.719963,187.15748 52.755045,127.58061 97.869245,110.05829 c 51.617195,-20.048075 118.667805,7.87409 159.982295,44.74376 39.0347,34.83515 59.13342,145.38912 59.13342,145.38912 0,0 22.35853,-55.94319 41.30278,-78.73484 28.0168,-33.70677 61.78475,-67.32141 103.31233,-81.34094 32.2928,-10.9019 70.62081,-11.11474 102.23736,1.61594 48.12691,19.37872 89.47055,60.30319 113.90674,106.07006 28.26415,52.93631 39.41301,118.69675 28.65174,177.73327 -15.45887,84.80773 -56.98904,176.38164 -128.59851,224.37551 -24.53765,16.44555 -59.9701,21.25964 -87.86289,11.53624 -29.33943,-10.2277 -52.08118,-38.6312 -64.84822,-66.95805 -21.38563,-47.44933 -20.65693,-104.33395 -12.08655,-155.66944 25.48407,-109.86677 92.36207,-201.20965 175.74961,-267.97303 51.33236,-41.09873 118.96909,-73.014035 184.63227,-69.48365 43.26583,2.32619 90.04761,23.9008 116.04504,58.56313 27.43269,36.57596 26.43334,89.15671 25.04135,134.85589 -2.81047,92.26823 -36.85068,181.46086 -67.03736,268.69668 -24.05111,69.5048 -57.62309,135.43188 -90.32839,201.30855 -13.43899,27.06949 -43.45552,79.57319 -43.45552,79.57319 L 563.64785,782.89687 c 0,0 39.62641,-34.71453 57.48111,-54.01505 56.29056,-60.84879 117.07673,-120.55926 155.69613,-193.906 24.55952,-46.64394 48.86514,-98.79912 45.63954,-151.41493 -3.17591,-51.8052 -20.38716,-112.57473 -62.81039,-142.47682 -33.00493,-23.26359 -82.51323,-21.52453 -120.82201,-8.75907 -46.46583,15.4836 -85.5958,54.46204 -110.88305,96.40689 -32.40636,53.75358 -56.38318,122.03897 -42.91557,183.34348 3.89044,17.70928 16.13283,37.53221 33.45465,42.89026 22.05023,6.82066 48.01174,-6.52547 65.97646,-21.01694 23.62703,-19.05904 41.79997,-48.81321 45.37653,-78.95772 7.25769,-61.17042 2.92746,-142.35943 -52.03094,-177.3224 -34.29756,-20.86197 -81.70675,-28.09479 -119.53641,-14.66118 -41.77445,14.83444 -73.04015,55.85277 -92.22736,95.81545 -16.72565,34.8358 -16.71276,76.36607 -14.90523,114.96676 1.68293,35.93974 23.81982,105.27625 23.81982,105.27625 l -136.46232,8.48631 c 0,0 33.77065,-105.02364 30.3704,-158.81333 -2.27931,-36.05714 -9.39201,-76.22946 -33.602,-103.04716 -21.98018,-24.34771 -59.96445,-53.16229 -89.95888,-39.88549 -42.5179,18.82022 -43.92264,85.91157 -43.88303,132.40857 0.0588,68.97241 30.16759,137.02289 65.42948,196.30017 38.2188,64.24802 153.12188,163.85986 153.12188,163.85986 z"
   sodipodi:nodetypes="ccaaaaaacaaaaaaaacaaaaaaccaaaaaaaaaacaaaccaaaaac" /></svg>
