<?xml version="1.0" encoding="UTF-8"?>
<!DOCTYPE svg PUBLIC "-//W3C//DTD SVG 1.1//EN" "http://www.w3.org/Graphics/SVG/1.1/DTD/svg11.dtd">
<!-- Creator: CorelDRAW X8 -->
<svg xmlns="http://www.w3.org/2000/svg" xml:space="preserve" width="2259px" height="1486px" version="1.1" style="shape-rendering:geometricPrecision; text-rendering:geometricPrecision; image-rendering:optimizeQuality; fill-rule:evenodd; clip-rule:evenodd"
viewBox="0 0 2259 1486"
 xmlns:xlink="http://www.w3.org/1999/xlink">
 <defs>
  <style type="text/css">
   <![CDATA[
    .fil0 {fill:#EF7F1A;fill-rule:nonzero}
   ]]>
  </style>
 </defs>
 <g id="Layer_x0020_1">
  <metadata id="CorelCorpID_0Corel-Layer"/>
  <path class="fil0" d="M1904 1369c135,-81 233,-205 291,-356 52,-132 63,-260 63,-401 0,-175 -60,-368 -197,-489 -94,-83 -219,-123 -345,-123 -121,0 -231,27 -321,111 -77,-75 -180,-110 -287,-110 -111,0 -213,36 -291,117 -84,-81 -200,-117 -315,-117 -190,0 -368,91 -450,264 -37,78 -52,163 -52,250 0,206 91,408 287,495 21,9 47,15 72,15 29,0 56,-7 78,-22 15,-11 21,-22 21,-33 0,-19 -17,-36 -40,-45 -154,-65 -215,-256 -215,-410 0,-68 9,-137 35,-200 42,-107 141,-202 264,-202 151,0 212,126 212,259l0 597c0,41 69,55 102,55 32,0 101,-14 101,-55l0 -597c0,-115 54,-258 191,-258 140,0 193,141 193,257l0 597c0,42 69,56 102,56 32,0 101,-14 101,-56l0 -595c0,-140 54,-261 212,-261 85,0 164,45 216,110 86,105 134,258 134,391 0,125 -9,238 -47,359 -38,122 -103,236 -208,314 0,-55 -29,-91 -74,-120 -48,-30 -118,-42 -175,-42 -53,0 -111,10 -158,35 -47,-25 -106,-35 -158,-35 -58,0 -127,12 -176,42 -43,26 -73,64 -73,116 0,80 82,142 152,167 75,28 163,37 254,37 94,0 205,-12 304,-37 70,-18 134,-42 197,-80zm-501 18c-57,0 -128,-3 -181,-27 -33,-14 -57,-39 -57,-76 0,-45 42,-63 81,-63 47,0 67,42 67,83 0,40 59,51 91,51 32,0 90,-11 90,-51 1,-41 21,-83 66,-83 37,0 83,18 83,61 0,38 -24,63 -58,78 -53,24 -124,27 -182,27z"/>
 </g>
</svg>
