<?xml version="1.0" encoding="UTF-8" standalone="no"?>
<svg
   xmlns:dc="http://purl.org/dc/elements/1.1/"
   xmlns:cc="http://creativecommons.org/ns#"
   xmlns:rdf="http://www.w3.org/1999/02/22-rdf-syntax-ns#"
   xmlns:svg="http://www.w3.org/2000/svg"
   xmlns="http://www.w3.org/2000/svg"
   xmlns:sodipodi="http://sodipodi.sourceforge.net/DTD/sodipodi-0.dtd"
   xmlns:inkscape="http://www.inkscape.org/namespaces/inkscape"
   xml:space="preserve"
   width="1000"
   height="1000"
   version="1.1"
   style="clip-rule:evenodd;fill-rule:evenodd;image-rendering:optimizeQuality;shape-rendering:geometricPrecision;text-rendering:geometricPrecision"
   viewBox="0 0 1000 1000"
   id="svg10"
   sodipodi:docname="ന്തൃ.svg"
   inkscape:version="1.0.1 (3bc2e813f5, 2020-09-07)"><metadata
   id="metadata14"><rdf:RDF><cc:Work
       rdf:about=""><dc:format>image/svg+xml</dc:format><dc:type
         rdf:resource="http://purl.org/dc/dcmitype/StillImage" /><dc:title></dc:title></cc:Work></rdf:RDF></metadata><sodipodi:namedview
   pagecolor="#ffffff"
   bordercolor="#666666"
   borderopacity="1"
   objecttolerance="10"
   gridtolerance="10"
   guidetolerance="10"
   inkscape:pageopacity="0"
   inkscape:pageshadow="2"
   inkscape:window-width="1920"
   inkscape:window-height="1015"
   id="namedview12"
   showgrid="false"
   inkscape:zoom="0.678"
   inkscape:cx="452.44093"
   inkscape:cy="581.1286"
   inkscape:window-x="1920"
   inkscape:window-y="0"
   inkscape:window-maximized="1"
   inkscape:current-layer="svg10"
   showguides="true"
   inkscape:guide-bbox="true"
   inkscape:document-rotation="0"
   inkscape:snap-to-guides="true"><sodipodi:guide
     position="0,1000"
     orientation="0,1"
     id="guide16"
     inkscape:label=""
     inkscape:locked="true"
     inkscape:color="rgb(0,0,255)" /><sodipodi:guide
     position="1763.3122,2036.1693"
     orientation="1000,0"
     id="guide18" /><sodipodi:guide
     position="0,200"
     orientation="0,1"
     id="guide20"
     inkscape:label="base"
     inkscape:locked="true"
     inkscape:color="rgb(0,0,255)" /><inkscape:grid
     type="xygrid"
     id="grid24"
     originx="-473.37552"
     originy="-489.69235" /><sodipodi:guide
     position="0,0"
     orientation="0,1"
     id="guide34"
     inkscape:label="bottom"
     inkscape:locked="true"
     inkscape:color="rgb(0,0,255)" /><sodipodi:guide
     position="225.05109,1693.3186"
     orientation="0,1"
     id="guide44"
     inkscape:label=""
     inkscape:locked="false"
     inkscape:color="rgb(0,0,255)" /><sodipodi:guide
     position="0,900"
     orientation="0,1"
     id="guide46"
     inkscape:label=""
     inkscape:locked="true"
     inkscape:color="rgb(0,0,255)" /><sodipodi:guide
     position="930.18694,615.81236"
     orientation="-1,0"
     id="guide841"
     inkscape:label="width"
     inkscape:locked="false"
     inkscape:color="rgb(0,0,255)" /><sodipodi:guide
     position="0,1000"
     orientation="0,1000"
     id="guide860" /><sodipodi:guide
     position="1000,1000"
     orientation="1000,0"
     id="guide862" /><sodipodi:guide
     position="1000,0"
     orientation="0,-1000"
     id="guide864" /><sodipodi:guide
     position="0,0"
     orientation="-1000,0"
     id="guide866" /></sodipodi:namedview>
 <defs
   id="defs4"><inkscape:path-effect
   effect="spiro"
   id="path-effect877"
   is_visible="true"
   lpeversion="1" /><inkscape:path-effect
   effect="spiro"
   id="path-effect862"
   is_visible="true"
   lpeversion="1" /><inkscape:path-effect
   effect="spiro"
   id="path-effect1521"
   is_visible="true"
   lpeversion="1" /><inkscape:path-effect
   effect="spiro"
   id="path-effect858"
   is_visible="true"
   lpeversion="1" /><inkscape:path-effect
   effect="spiro"
   id="path-effect854"
   is_visible="true"
   lpeversion="1" />
  <style
   type="text/css"
   id="style2">
   <![CDATA[
    .fil0 {fill:#EF7F1A;fill-rule:nonzero}
   ]]>
  </style>
 <inkscape:path-effect
   effect="spiro"
   id="path-effect1214"
   is_visible="true"
   lpeversion="1" /><inkscape:path-effect
   effect="spiro"
   id="path-effect1195"
   is_visible="true"
   lpeversion="1" /><inkscape:path-effect
   effect="spiro"
   id="path-effect992"
   is_visible="true"
   lpeversion="1" /><inkscape:path-effect
   effect="spiro"
   id="path-effect287"
   is_visible="true"
   lpeversion="1" /><inkscape:path-effect
   effect="spiro"
   id="path-effect1032"
   is_visible="true"
   lpeversion="1" /><inkscape:path-effect
   effect="spiro"
   id="path-effect1218"
   is_visible="true"
   lpeversion="1" /><inkscape:path-effect
   effect="spiro"
   id="path-effect309"
   is_visible="true"
   lpeversion="1" /><inkscape:path-effect
   effect="spiro"
   id="path-effect1176"
   is_visible="true"
   lpeversion="1" /><inkscape:path-effect
   effect="spiro"
   id="path-effect1026"
   is_visible="true"
   lpeversion="1" /><inkscape:path-effect
   effect="spiro"
   id="path-effect1030"
   is_visible="true"
   lpeversion="1" /></defs>
 
<path
   style="fill:#2d2d2d;fill-rule:nonzero;stroke:none;stroke-width:1.70778px;stroke-linecap:butt;stroke-linejoin:miter;stroke-opacity:1"
   d="m 271.89301,733.2148 -125.9315,34.67755 C 132.78405,748.63882 120.76786,728.59059 109.99995,707.89286 83.411363,656.7851 64.58206,602.04228 47.129222,547.13914 30.287719,494.15914 14.55563,440.42882 8.8026218,385.13488 3.5055932,334.2235 6.7944392,282.51098 17.483372,232.45328 c 5.233695,-24.51009 12.32795,-48.88002 24.506955,-70.78454 12.179005,-21.90452 29.80371,-41.33474 52.266865,-52.44973 26.644318,-13.183865 58.573918,-13.681532 86.862858,-4.54535 28.28894,9.13618 53.09113,27.32093 73.11943,49.28911 35.99075,39.4767 57.35264,91.99836 59.13342,145.38912 10.03941,-27.98584 23.98377,-54.56774 41.30278,-78.73484 25.97414,-36.24454 60.84917,-67.73201 103.31233,-81.34094 33.0227,-10.58338 69.45997,-9.70437 102.23736,1.61594 50.30483,17.37374 90.30388,58.36967 113.90674,106.07006 26.95185,54.46855 34.05066,117.20165 28.65174,177.73327 -3.9969,44.81253 -14.77605,89.44111 -35.8253,129.20375 -21.04925,39.76264 -52.81322,74.49962 -92.77321,95.17176 -13.48071,6.97385 -27.89095,12.34673 -42.88233,14.71798 -14.99137,2.37124 -30.59797,1.66647 -44.98056,-3.18174 -15.16173,-5.11085 -28.6019,-14.70793 -39.39849,-26.51609 -10.79658,-11.80815 -19.04059,-25.78175 -25.44973,-40.44196 -21.17317,-48.43128 -22.2923,-103.80679 -12.08655,-155.66944 21.08519,-107.14878 88.90908,-201.75997 175.74961,-267.97303 26.68987,-20.35015 55.36707,-38.37614 86.44086,-51.06068 31.07379,-12.68453 64.66204,-19.925972 98.19141,-18.42297 22.43479,1.00567 44.80898,5.96962 65.04463,15.7087 20.23566,9.73908 38.27824,24.34831 51.00046,42.85443 13.19523,19.19417 20.37735,42.03569 23.6015,65.10373 3.22416,23.06805 2.65441,46.49158 1.4398,69.75216 -4.99761,95.70776 -20.83227,190.80092 -46.3275,283.18569 -19.92128,72.18694 -46.1601,143.5863 -88.51142,205.34533 -42.91455,62.58036 -102.12322,114.05837 -170.5643,146.82693 -68.44108,32.76856 -145.98807,46.61859 -221.42645,38.43256 -30.96906,-3.36054 -62.13184,-10.59825 -88.72691,-26.81793 -13.29754,-8.10984 -25.32306,-18.43408 -34.74046,-30.83999 -9.4174,-12.40591 -16.1798,-26.92596 -18.8571,-42.26956 -3.54888,-20.33859 0.22362,-41.66323 9.28002,-60.21679 9.0564,-18.55355 23.22266,-34.38834 39.83587,-46.64616 33.22641,-24.51564 75.00235,-34.46312 116.03957,-39.04103 102.73321,-11.46041 208.70445,7.87316 300.77201,54.87335 l -61.38977,84.32096 c -79.10278,-59.6528 -184.9868,-82.26704 -281.5571,-60.13372 -12.17513,2.79047 -24.40968,6.34536 -34.85815,13.19007 -5.22423,3.42236 -9.95324,7.65777 -13.63241,12.70443 -3.67917,5.04667 -6.28772,10.92176 -7.20034,17.10013 -1.5777,10.68099 2.08925,21.7986 8.86578,30.20403 6.77653,8.40544 16.44434,14.20977 26.76098,17.39402 20.6333,6.36851 42.87616,2.60471 64.08273,-1.46622 88.88263,-17.06239 179.95462,-40.13467 251.08575,-96.09545 73.28159,-57.65261 117.98439,-145.00429 143.79663,-234.60197 18.32791,-63.6186 28.25482,-130.22283 22.79988,-196.20375 -2.04319,-24.71368 -6.30356,-49.49247 -15.9164,-72.35147 -9.61284,-22.859 -24.90722,-43.80601 -45.7487,-57.24376 -18.91505,-12.19567 -41.7243,-17.72993 -64.22845,-17.45312 -22.50415,0.2768 -44.71916,6.17136 -65.26954,15.34716 -45.26453,20.21074 -82.26844,55.92781 -110.88305,96.40689 -18.77662,26.56196 -34.43284,55.67214 -42.95425,87.06457 -8.52141,31.39243 -9.64334,65.2248 0.0387,96.27891 2.79129,8.95278 6.4993,17.70787 11.96287,25.32975 5.46356,7.62188 12.78091,14.08713 21.49178,17.56051 11.34868,4.52518 24.38188,3.65642 35.8133,-0.65545 11.43143,-4.31188 21.40813,-11.8398 30.16316,-20.36149 22.002,-21.4156 36.97197,-49.42673 45.37653,-78.95772 8.99832,-31.6173 10.66649,-65.63742 2.24339,-97.41281 -8.42309,-31.77539 -27.30503,-61.11384 -54.27433,-79.90959 -34.23571,-23.85994 -80.36262,-29.04154 -119.53641,-14.66118 -21.45134,7.8746 -40.76984,21.20054 -56.40274,37.86732 -15.63291,16.66678 -27.61902,36.62122 -35.82462,57.94813 -13.97989,36.33469 -16.94792,76.08907 -14.90523,114.96676 2.38525,45.39741 11.42864,90.43955 26.75131,133.23944 l -136.46232,8.48631 c 28.00359,-57.47052 37.7303,-123.68017 27.43891,-186.77652 -5.83597,-35.78024 -17.90416,-70.36901 -33.602,-103.04716 -9.35045,-19.4648 -20.25457,-38.63837 -36.05344,-53.35928 -7.89944,-7.36045 -16.98446,-13.52713 -26.99591,-17.57043 -10.01144,-4.04329 -20.96833,-5.92083 -31.70898,-4.81821 -12.04303,1.23632 -23.57813,6.2097 -33.20719,13.54756 -9.629062,7.33787 -17.390338,16.98026 -23.168813,27.61851 -11.55695,21.27649 -15.120922,45.98954 -15.944905,70.18816 -3.127498,91.84798 31.115953,182.73896 85.916938,256.51351 33.56662,45.18829 74.79811,84.6681 121.40016,116.24259 z"
   id="path875"
   inkscape:path-effect="#path-effect877"
   inkscape:original-d="m 271.89301,733.2148 -125.9315,34.67755 c 0,0 -25.68567,-39.06885 -35.96156,-59.99949 C 84.643282,656.24465 64.273122,602.06259 47.129222,547.13914 30.594622,494.16769 13.666152,440.41339 8.8026218,385.13488 c -4.46772,-50.7799 -6.72295,-104.08855 8.6807502,-152.6816 14.62453,-46.13508 31.65962,-105.71195 76.77382,-123.23427 51.617188,-20.048073 118.667798,7.87409 159.982288,44.74376 39.0347,34.83515 59.13342,145.38912 59.13342,145.38912 0,0 22.35853,-55.94319 41.30278,-78.73484 28.0168,-33.70677 61.78475,-67.32141 103.31233,-81.34094 32.2928,-10.9019 70.62081,-11.11474 102.23736,1.61594 48.12691,19.37872 89.47055,60.30319 113.90674,106.07006 28.26415,52.93631 39.41301,118.69675 28.65174,177.73327 -15.45887,84.80773 -56.98904,176.38164 -128.59851,224.37551 -24.53765,16.44555 -59.9701,21.25964 -87.86289,11.53624 -29.33943,-10.2277 -52.08118,-38.6312 -64.84822,-66.95805 C 400.0886,546.19975 400.8173,489.31513 409.38768,437.97964 434.87175,328.11287 501.74975,236.76999 585.13729,170.00661 c 51.33236,-41.09873 118.96909,-73.014033 184.63227,-69.48365 43.26583,2.32619 90.04759,23.9008 116.04509,58.56313 27.4326,36.57596 24.5512,89.13813 25.0413,134.85589 1.0254,95.64455 -19.4747,191.38233 -46.3275,283.18569 -20.9254,71.53875 -36.72392,151.73826 -88.51142,205.34533 -100.41279,103.94084 -247.9951,197.5753 -391.99075,185.25949 -57.75632,-4.93984 -139.09603,-42.05026 -142.32447,-99.92748 -4.09116,-73.34368 94.38982,-126.19973 165.15546,-145.90398 98.17736,-27.33687 287.27254,120.56598 300.77201,54.87335 l -61.38977,84.32096 c -54.75071,-41.68022 -187.97541,-81.4062 -281.5571,-60.13372 -22.86872,5.1984 -58.31337,19.6896 -55.6909,42.99463 4.09508,36.3917 63.10916,44.89037 99.70949,46.13183 89.56396,3.03794 182.15418,-38.82966 251.08575,-96.09545 70.55154,-58.6116 113.83357,-147.91256 143.79663,-234.60197 21.50867,-62.22909 33.56374,-131.24821 22.79988,-196.20375 -7.82088,-47.19582 -21.42694,-103.72049 -61.6651,-129.59523 -36.31209,-23.35011 -88.93934,-16.89758 -129.49799,-2.10596 -46.01323,16.78089 -85.5958,54.46204 -110.88305,96.40689 -32.40636,53.75358 -56.38318,122.03897 -42.91557,183.34348 3.89044,17.70928 16.13283,37.53221 33.45465,42.89026 22.05023,6.82066 48.01174,-6.52547 65.97646,-21.01694 23.62703,-19.05904 41.79997,-48.81321 45.37653,-78.95772 7.25769,-61.17042 2.92746,-142.35943 -52.03094,-177.3224 -34.29756,-20.86197 -81.70675,-28.09479 -119.53641,-14.66118 -41.77445,14.83444 -73.04015,55.85277 -92.22736,95.81545 -16.72565,34.8358 -16.24226,76.34691 -14.90523,114.96676 1.56734,45.27235 26.75131,133.23944 26.75131,133.23944 l -136.46232,8.48631 c 0,0 32.76082,-124.07488 27.43891,-186.77652 -3.05553,-35.99967 -13.0287,-73.34781 -33.602,-103.04716 -23.0268,-33.24118 -54.8385,-82.19903 -94.75833,-75.74792 -43.692598,7.06079 -66.741328,67.4479 -72.320908,111.35423 -11.36773,89.45382 37.625538,180.36134 85.916938,256.51351 30.00425,47.3146 121.40016,116.24259 121.40016,116.24259 z"
   sodipodi:nodetypes="ccaaaaaacaaaaaaaacaaaaaaaaaccaaaaaaaaaaaaacaaaccaaaaac" /></svg>
