<?xml version="1.0" encoding="UTF-8" standalone="no"?>
<svg
   xmlns:dc="http://purl.org/dc/elements/1.1/"
   xmlns:cc="http://creativecommons.org/ns#"
   xmlns:rdf="http://www.w3.org/1999/02/22-rdf-syntax-ns#"
   xmlns:svg="http://www.w3.org/2000/svg"
   xmlns="http://www.w3.org/2000/svg"
   xmlns:sodipodi="http://sodipodi.sourceforge.net/DTD/sodipodi-0.dtd"
   xmlns:inkscape="http://www.inkscape.org/namespaces/inkscape"
   xml:space="preserve"
   width="1000"
   height="1000"
   version="1.1"
   style="clip-rule:evenodd;fill-rule:evenodd;image-rendering:optimizeQuality;shape-rendering:geometricPrecision;text-rendering:geometricPrecision"
   viewBox="0 0 1000 1000"
   id="svg10"
   sodipodi:docname="ന്ത.svg"
   inkscape:version="1.0.1 (3bc2e813f5, 2020-09-07)"><metadata
   id="metadata14"><rdf:RDF><cc:Work
       rdf:about=""><dc:format>image/svg+xml</dc:format><dc:type
         rdf:resource="http://purl.org/dc/dcmitype/StillImage" /><dc:title /></cc:Work></rdf:RDF></metadata><sodipodi:namedview
   pagecolor="#ffffff"
   bordercolor="#666666"
   borderopacity="1"
   objecttolerance="10"
   gridtolerance="10"
   guidetolerance="10"
   inkscape:pageopacity="0"
   inkscape:pageshadow="2"
   inkscape:window-width="1920"
   inkscape:window-height="1015"
   id="namedview12"
   showgrid="false"
   inkscape:zoom="0.678"
   inkscape:cx="398.19786"
   inkscape:cy="350.20304"
   inkscape:window-x="1920"
   inkscape:window-y="0"
   inkscape:window-maximized="1"
   inkscape:current-layer="svg10"
   showguides="true"
   inkscape:guide-bbox="true"
   inkscape:document-rotation="0"
   inkscape:snap-to-guides="true"><sodipodi:guide
     position="0,1000"
     orientation="0,1"
     id="guide16"
     inkscape:label=""
     inkscape:locked="true"
     inkscape:color="rgb(0,0,255)" /><sodipodi:guide
     position="1763.3122,2036.1693"
     orientation="1000,0"
     id="guide18" /><sodipodi:guide
     position="0,200"
     orientation="0,1"
     id="guide20"
     inkscape:label="base"
     inkscape:locked="true"
     inkscape:color="rgb(0,0,255)" /><inkscape:grid
     type="xygrid"
     id="grid24"
     originx="-473.37552"
     originy="-489.69235" /><sodipodi:guide
     position="0,0"
     orientation="0,1"
     id="guide34"
     inkscape:label="bottom"
     inkscape:locked="true"
     inkscape:color="rgb(0,0,255)" /><sodipodi:guide
     position="225.05109,1693.3186"
     orientation="0,1"
     id="guide44"
     inkscape:label=""
     inkscape:locked="false"
     inkscape:color="rgb(0,0,255)" /><sodipodi:guide
     position="0,900"
     orientation="0,1"
     id="guide46"
     inkscape:label=""
     inkscape:locked="true"
     inkscape:color="rgb(0,0,255)" /><sodipodi:guide
     position="863.98306,931.81669"
     orientation="-1,0"
     id="guide841"
     inkscape:label=""
     inkscape:locked="false"
     inkscape:color="rgb(0,0,255)" /><sodipodi:guide
     position="0,1000"
     orientation="0,1000"
     id="guide860" /><sodipodi:guide
     position="1000,1000"
     orientation="1000,0"
     id="guide862" /><sodipodi:guide
     position="1000,0"
     orientation="0,-1000"
     id="guide864" /><sodipodi:guide
     position="0,0"
     orientation="-1000,0"
     id="guide866" /></sodipodi:namedview>
 <defs
   id="defs4"><inkscape:path-effect
   effect="spiro"
   id="path-effect877"
   is_visible="true"
   lpeversion="1" /><inkscape:path-effect
   effect="spiro"
   id="path-effect862"
   is_visible="true"
   lpeversion="1" /><inkscape:path-effect
   effect="spiro"
   id="path-effect1521"
   is_visible="true"
   lpeversion="1" /><inkscape:path-effect
   effect="spiro"
   id="path-effect858"
   is_visible="true"
   lpeversion="1" /><inkscape:path-effect
   effect="spiro"
   id="path-effect854"
   is_visible="true"
   lpeversion="1" />
  <style
   type="text/css"
   id="style2">
   <![CDATA[
    .fil0 {fill:#EF7F1A;fill-rule:nonzero}
   ]]>
  </style>
 <inkscape:path-effect
   effect="spiro"
   id="path-effect1214"
   is_visible="true"
   lpeversion="1" /><inkscape:path-effect
   effect="spiro"
   id="path-effect1195"
   is_visible="true"
   lpeversion="1" /><inkscape:path-effect
   effect="spiro"
   id="path-effect992"
   is_visible="true"
   lpeversion="1" /><inkscape:path-effect
   effect="spiro"
   id="path-effect287"
   is_visible="true"
   lpeversion="1" /><inkscape:path-effect
   effect="spiro"
   id="path-effect1032"
   is_visible="true"
   lpeversion="1" /><inkscape:path-effect
   effect="spiro"
   id="path-effect1218"
   is_visible="true"
   lpeversion="1" /><inkscape:path-effect
   effect="spiro"
   id="path-effect309"
   is_visible="true"
   lpeversion="1" /><inkscape:path-effect
   effect="spiro"
   id="path-effect1176"
   is_visible="true"
   lpeversion="1" /><inkscape:path-effect
   effect="spiro"
   id="path-effect1026"
   is_visible="true"
   lpeversion="1" /><inkscape:path-effect
   effect="spiro"
   id="path-effect1030"
   is_visible="true"
   lpeversion="1" /></defs>
 
<path
   style="fill:#2d2d2d;fill-rule:nonzero;stroke:none;stroke-width:1.70778px;stroke-linecap:butt;stroke-linejoin:miter;stroke-opacity:1"
   d="M 321.94794,721.57391 114.80421,843.30786 c 5.77704,-46.06536 6.81841,-92.72326 3.10238,-139.0005 C 113.33107,647.3265 101.49622,590.81584 81.223359,537.36713 61.817898,486.20529 34.797321,438.03473 17.950847,385.97416 2.0677159,336.89061 -4.4778191,284.32309 3.0954276,233.29256 6.791912,208.38467 13.915163,183.75158 26.472289,161.92532 c 12.557127,-21.82625 30.79543,-40.76578 53.396956,-51.86703 28.178725,-13.840619 61.831125,-14.65305 91.767725,-5.19773 29.93661,9.45532 56.25822,28.61289 77.07745,52.11103 31.6265,35.69604 51.14867,81.92957 54.67731,129.48996 7.11283,-24.62541 17.33663,-48.35047 30.35138,-70.43258 16.23928,-27.55317 37.22157,-52.8814 64.08013,-70.24541 37.05488,-23.95591 85.1108,-31.04219 126.79078,-16.56016 26.19149,9.10044 49.24476,26.15372 67.43379,47.08149 18.18903,20.92776 31.67793,45.64223 41.69636,71.4965 21.85813,56.40865 27.40648,118.59464 19.17023,178.52691 -11.9027,86.61175 -52.94007,169.14179 -115.63133,230.0768 -13.428,13.05183 -28.01167,25.26359 -44.92356,33.30408 -16.91189,8.04048 -36.45333,11.65169 -54.60515,7.0503 -19.35378,-4.90608 -35.59041,-18.7773 -46.59259,-35.43835 -11.00218,-16.66104 -17.25694,-36.00315 -21.8378,-55.43648 -12.89288,-54.69533 -13.34478,-112.40065 -0.32423,-167.06573 13.84195,-58.11362 42.53302,-111.9432 78.04563,-159.98117 29.40025,-39.76977 63.62813,-75.99068 101.86949,-107.3532 26.82759,-22.00185 55.8249,-41.72445 87.72175,-55.37699 31.89686,-13.65254 66.88077,-21.075677 101.44513,-18.057985 21.35307,1.864261 42.45547,7.746655 61.19982,18.142735 18.74435,10.39608 35.07091,25.38118 46.1451,43.73306 12.09602,20.04522 17.66861,43.58717 18.40957,66.9875 0.74096,23.40033 -3.17556,46.74244 -9.00078,69.41822 -20.20063,78.63484 -62.87541,149.5376 -89.98442,226.06605 -26.9332,76.03214 -38.22507,158.19989 -27.47406,238.14174 4.14392,30.81318 11.52251,61.19036 21.97535,90.47111 L 504.6955,768.44882 c 36.25135,-26.87498 68.6949,-58.87837 96.06253,-94.75925 40.15909,-52.65137 68.99664,-112.95058 95.49457,-173.63648 17.84201,-40.86201 34.83648,-82.36176 44.82934,-125.815 5.32486,-23.15476 8.63679,-47.11904 5.55011,-70.67682 -3.08668,-23.55779 -13.10129,-46.82706 -30.97781,-62.4772 -16.03183,-14.03519 -37.46792,-21.08835 -58.76393,-21.78562 -21.29601,-0.69727 -42.47406,4.63176 -62.05808,13.02655 -45.62758,19.55851 -82.88647,55.41173 -110.88305,96.40689 -18.24422,26.71486 -33.03129,56.03711 -41.22461,87.33255 -8.19333,31.29545 -9.62339,64.64834 -1.69096,96.01093 2.33806,9.24403 5.53594,18.41108 10.94853,26.26108 5.4126,7.84999 13.25284,14.32799 22.50612,16.62918 5.47753,1.3622 11.28331,1.22398 16.77023,-0.0999 5.48692,-1.32387 10.66052,-3.81146 15.30541,-7.01831 9.28977,-6.41371 16.35631,-15.55014 22.45286,-25.05107 16.86411,-26.28122 27.34964,-56.26995 33.73016,-86.83774 4.54375,-21.7682 7.07654,-44.03232 6.23625,-66.2538 -0.63563,-16.80914 -3.22595,-33.63133 -8.84859,-49.48495 -5.62265,-15.85361 -14.35175,-30.73563 -26.32427,-42.5513 -15.33862,-15.13767 -35.86038,-24.86727 -57.26051,-27.40821 -21.40013,-2.54094 -43.55103,2.07926 -62.2759,12.74703 -17.29447,9.85285 -31.50417,24.60928 -42.30019,41.33122 -10.79602,16.72194 -18.3023,35.39135 -23.92717,54.48423 -10.95824,37.1963 -14.93361,76.18988 -14.90523,114.96676 0.0251,34.29671 3.1468,68.59055 9.3147,102.3281 l -120.97668,-0.31265 c 19.607,-46.36025 29.67316,-96.73108 29.38988,-147.06622 -0.10437,-18.54445 -1.62118,-37.21638 -6.67148,-55.0602 -5.0503,-17.84382 -13.79109,-34.90022 -26.93052,-47.98696 -11.79514,-11.74784 -27.15445,-20.09256 -43.61715,-22.56578 -16.46269,-2.47322 -33.94949,1.14554 -47.5131,10.79778 -15.47125,11.00977 -24.95842,29.0445 -28.609022,47.67908 -3.650598,18.63459 -1.958135,37.92964 1.439542,56.612 12.86964,70.76459 49.79337,135.45084 96.20236,190.40046 36.64309,43.38651 79.46845,81.5437 126.7781,112.9587 z"
   id="path875"
   inkscape:path-effect="#path-effect877"
   inkscape:original-d="M 321.94794,721.57391 114.80421,843.30786 c 0,0 7.59047,-92.87329 3.10238,-139.0005 C 112.38914,647.60078 98.391403,591.69333 81.223359,537.36713 64.74235,485.21497 31.293257,439.01614 17.950847,385.97416 5.4769172,336.38477 -8.5660469,283.07927 3.0954276,233.29256 14.132792,186.17039 34.76995,127.61893 79.869245,110.05829 c 54.432945,-21.194959 124.973055,8.34635 168.845175,46.9133 35.18967,30.93441 54.67731,129.48996 54.67731,129.48996 0,0 16.48694,-48.95404 30.35138,-70.43258 17.18866,-26.62836 35.97591,-55.5937 64.08013,-70.24541 37.79478,-19.70374 86.73036,-31.11508 126.79078,-16.56016 50.48842,18.34366 86.95926,69.64925 109.13015,118.57799 24.70241,54.51552 29.84815,119.63606 19.17023,178.52691 -15.31334,84.45607 -52.54484,171.87524 -115.63133,230.0768 -26.31227,24.27486 -65.02699,49.90611 -99.52871,40.35438 -36.54481,-10.11735 -56.36963,-54.92456 -68.43039,-90.87483 -17.71249,-52.79675 -12.80121,-112.79277 -0.32423,-167.06573 13.29379,-57.82596 44.22366,-111.23037 78.04563,-159.98117 28.11994,-40.53192 60.90424,-79.86838 101.86949,-107.3532 56.1693,-37.68567 121.72346,-78.591137 189.16688,-73.434975 41.18028,3.148305 85.46336,26.848315 107.34492,61.875795 24.14713,38.65415 16.44384,91.37534 9.40879,136.40572 -12.51918,80.13356 -70.16699,147.41882 -89.98442,226.06605 -19.5246,77.48507 -32.40214,158.38674 -27.47406,238.14174 1.91394,30.97484 21.97535,90.47111 21.97535,90.47111 L 504.6955,768.44882 c 0,0 68.93111,-58.88555 96.06253,-94.75925 39.84497,-52.6838 68.40626,-113.39175 95.49457,-173.63648 18.25762,-40.60517 41.41363,-81.42521 44.82934,-125.815 3.46679,-45.05354 8.32744,-103.11354 -25.4277,-133.15402 -30.16422,-26.84473 -82.51323,-21.52453 -120.82201,-8.75907 -46.46583,15.4836 -85.5958,54.46204 -110.88305,96.40689 -32.40636,53.75358 -56.38318,122.03897 -42.91557,183.34348 3.89044,17.70928 15.64147,39.50721 33.45465,42.89026 20.7329,3.93757 40.86649,-16.0849 54.5285,-32.16927 20.10304,-23.66744 26.58521,-56.61806 33.73016,-86.83774 5.10391,-21.58705 9.23479,-44.27519 6.23625,-66.2538 -4.4396,-32.54127 -9.3061,-71.79877 -35.17286,-92.03625 -31.61724,-24.73651 -82.91382,-31.10292 -119.53641,-14.66118 -35.41956,15.90164 -52.3012,59.57363 -66.22736,95.81545 -13.86075,36.07159 -14.16814,76.3308 -14.90523,114.96676 -0.65331,34.24416 9.3147,102.3281 9.3147,102.3281 l -120.97668,-0.31265 c 0,0 32.33689,-97.16178 29.38988,-147.06622 -2.12982,-36.06628 -5.78371,-79.99385 -33.602,-103.04716 -23.58336,-19.54378 -65.74366,-28.90437 -91.13025,-11.768 -29.775341,20.09885 -30.988126,68.57061 -27.16948,104.29108 7.55864,70.70521 52.86288,134.02628 96.20236,190.40046 34.49718,44.87248 126.7781,112.9587 126.7781,112.9587 z"
   sodipodi:nodetypes="ccaaaaaacaaaaaaaaaaaaaaaaccaaaaaaaaaaaaaaaccaaaaac" /></svg>
