<?xml version="1.0" encoding="UTF-8" standalone="no"?>
<svg
   xmlns:dc="http://purl.org/dc/elements/1.1/"
   xmlns:cc="http://creativecommons.org/ns#"
   xmlns:rdf="http://www.w3.org/1999/02/22-rdf-syntax-ns#"
   xmlns:svg="http://www.w3.org/2000/svg"
   xmlns="http://www.w3.org/2000/svg"
   xmlns:sodipodi="http://sodipodi.sourceforge.net/DTD/sodipodi-0.dtd"
   xmlns:inkscape="http://www.inkscape.org/namespaces/inkscape"
   xml:space="preserve"
   width="1000"
   height="1000"
   version="1.1"
   style="clip-rule:evenodd;fill-rule:evenodd;image-rendering:optimizeQuality;shape-rendering:geometricPrecision;text-rendering:geometricPrecision"
   viewBox="0 0 1000 1000"
   id="svg10"
   sodipodi:docname="ന്ദ.svg"
   inkscape:version="1.0.1 (3bc2e813f5, 2020-09-07)"><metadata
   id="metadata14"><rdf:RDF><cc:Work
       rdf:about=""><dc:format>image/svg+xml</dc:format><dc:type
         rdf:resource="http://purl.org/dc/dcmitype/StillImage" /><dc:title /></cc:Work></rdf:RDF></metadata><sodipodi:namedview
   pagecolor="#ffffff"
   bordercolor="#666666"
   borderopacity="1"
   objecttolerance="10"
   gridtolerance="10"
   guidetolerance="10"
   inkscape:pageopacity="0"
   inkscape:pageshadow="2"
   inkscape:window-width="1920"
   inkscape:window-height="1015"
   id="namedview12"
   showgrid="false"
   inkscape:zoom="1.356"
   inkscape:cx="454.6376"
   inkscape:cy="599.77446"
   inkscape:window-x="1920"
   inkscape:window-y="0"
   inkscape:window-maximized="1"
   inkscape:current-layer="svg10"
   showguides="true"
   inkscape:guide-bbox="true"
   inkscape:document-rotation="0"
   inkscape:snap-to-guides="true"><sodipodi:guide
     position="0,1000"
     orientation="0,1"
     id="guide16"
     inkscape:label=""
     inkscape:locked="true"
     inkscape:color="rgb(0,0,255)" /><sodipodi:guide
     position="1763.3122,2036.1693"
     orientation="1000,0"
     id="guide18" /><sodipodi:guide
     position="0,200"
     orientation="0,1"
     id="guide20"
     inkscape:label="base"
     inkscape:locked="true"
     inkscape:color="rgb(0,0,255)" /><inkscape:grid
     type="xygrid"
     id="grid24"
     originx="-473.37552"
     originy="-489.69235" /><sodipodi:guide
     position="0,0"
     orientation="0,1"
     id="guide34"
     inkscape:label="bottom"
     inkscape:locked="true"
     inkscape:color="rgb(0,0,255)" /><sodipodi:guide
     position="225.05109,1693.3186"
     orientation="0,1"
     id="guide44"
     inkscape:label=""
     inkscape:locked="false"
     inkscape:color="rgb(0,0,255)" /><sodipodi:guide
     position="831.97688,573.9133"
     orientation="-1,0"
     id="guide841"
     inkscape:label=""
     inkscape:locked="false"
     inkscape:color="rgb(0,0,255)" /><sodipodi:guide
     position="0,1000"
     orientation="0,1000"
     id="guide860" /><sodipodi:guide
     position="1000,1000"
     orientation="1000,0"
     id="guide862" /><sodipodi:guide
     position="1000,0"
     orientation="0,-1000"
     id="guide864" /><sodipodi:guide
     position="0,0"
     orientation="-1000,0"
     id="guide866" /></sodipodi:namedview>
 <defs
   id="defs4"><inkscape:path-effect
   effect="spiro"
   id="path-effect862"
   is_visible="true"
   lpeversion="1" /><inkscape:path-effect
   effect="spiro"
   id="path-effect1521"
   is_visible="true"
   lpeversion="1" /><inkscape:path-effect
   effect="spiro"
   id="path-effect858"
   is_visible="true"
   lpeversion="1" /><inkscape:path-effect
   effect="spiro"
   id="path-effect854"
   is_visible="true"
   lpeversion="1" />
  <style
   type="text/css"
   id="style2">
   <![CDATA[
    .fil0 {fill:#EF7F1A;fill-rule:nonzero}
   ]]>
  </style>
 <inkscape:path-effect
   effect="spiro"
   id="path-effect1214"
   is_visible="true"
   lpeversion="1" /><inkscape:path-effect
   effect="spiro"
   id="path-effect1195"
   is_visible="true"
   lpeversion="1" /><inkscape:path-effect
   effect="spiro"
   id="path-effect992"
   is_visible="true"
   lpeversion="1" /><inkscape:path-effect
   effect="spiro"
   id="path-effect287"
   is_visible="true"
   lpeversion="1" /><inkscape:path-effect
   effect="spiro"
   id="path-effect1032"
   is_visible="true"
   lpeversion="1" /><inkscape:path-effect
   effect="spiro"
   id="path-effect1218"
   is_visible="true"
   lpeversion="1" /><inkscape:path-effect
   effect="spiro"
   id="path-effect309"
   is_visible="true"
   lpeversion="1" /><inkscape:path-effect
   effect="spiro"
   id="path-effect1176"
   is_visible="true"
   lpeversion="1" /><inkscape:path-effect
   effect="spiro"
   id="path-effect1026"
   is_visible="true"
   lpeversion="1" /><inkscape:path-effect
   effect="spiro"
   id="path-effect1030"
   is_visible="true"
   lpeversion="1" /><inkscape:path-effect
   effect="spiro"
   id="path-effect856"
   is_visible="true"
   lpeversion="1" /></defs>
 
<path
   style="display:inline;fill:#1a1a1a;fill-rule:nonzero;stroke:none;stroke-width:2.09522px;stroke-linecap:butt;stroke-linejoin:miter;stroke-opacity:1"
   d="m 299.33493,633.7207 c 7.63843,-17.2459 14.20956,-34.96443 19.66329,-53.02055 21.37134,-70.7558 25.05425,-148.1308 1.63808,-218.23644 -5.44898,-16.31369 -12.36791,-32.24161 -21.95072,-46.52439 -9.5828,-14.28278 -21.92761,-26.91002 -36.83902,-35.48194 -17.50092,-10.06052 -38.25472,-14.22207 -58.33015,-12.10701 -20.07543,2.11507 -39.39422,10.43541 -54.99818,23.24215 -17.2637,14.16895 -29.87815,33.62771 -37.10313,54.76048 -7.22498,21.13276 -9.18678,43.88584 -7.09977,66.12181 4.17403,44.47195 24.05977,85.97581 47.26595,124.1419 24.4446,40.20285 53.09003,78.11352 87.55113,110.14851 32.39688,30.11609 69.79263,54.84203 110.1904,72.85749 L 207.74684,829.76245 C 201.31683,801.56064 192.737,773.84925 182.10634,746.94801 150.03659,665.79445 99.900605,593.24507 59.274313,516.01895 27.839241,456.26433 1.6265931,391.63667 0.61683226,324.1255 0.11195186,290.36991 6.0922654,256.28653 20.183712,225.60876 c 14.091447,-30.67778 36.507921,-57.8249 65.216577,-75.58743 36.592901,-22.64065 82.264881,-29.01723 124.370581,-20.1432 42.10571,8.87402 80.52284,32.38281 109.89003,63.83448 36.73978,39.34756 59.66481,91.34952 63.92926,145.01381 -1.11493,-68.0433 26.22248,-136.10968 74.09221,-184.47933 29.5645,-29.87326 66.93617,-52.43605 107.82043,-62.180183 40.88426,-9.744136 85.22521,-6.242826 123.03477,12.112233 26.72444,12.97367 49.89201,33.17818 66.40093,57.8757 16.50892,24.69751 26.31916,53.82295 28.14242,83.47405 3.42172,55.64651 -20.97314,109.86162 -54.38323,154.49354 -9.82903,13.13041 -20.46854,25.65405 -31.83784,37.47591 56.15412,22.66875 104.72428,63.6931 136.46587,115.26469 24.58792,39.94879 39.23209,87.04609 35.26444,133.78718 -1.98382,23.37055 -8.62014,46.42119 -20.09174,66.87896 -11.47161,20.45777 -27.82793,38.26626 -47.68429,50.74996 -28.54862,17.94852 -63.433,24.32351 -97.05229,21.69374 -33.6193,-2.62977 -66.11719,-13.82274 -96.34971,-28.76154 -40.37035,-19.94821 -77.34922,-46.73845 -108.88346,-78.88325 l 43.26368,-90.81212 c 17.08018,38.86212 49.32727,70.81811 88.34266,87.54521 22.08516,9.46858 46.48359,14.17205 70.3562,11.43225 23.87262,-2.7398 47.1339,-13.24211 63.50686,-30.83001 16.40482,-17.62212 25.24302,-41.78048 25.3564,-65.85629 0.11338,-24.07581 -8.25159,-47.91392 -22.34989,-67.43046 -12.81804,-17.74424 -30.25489,-32.00098 -49.8373,-41.78309 -19.58241,-9.7821 -41.26641,-15.14103 -63.11757,-16.43986 -25.30137,-1.5039 -50.91176,2.41609 -74.60489,11.41922 l -4.39125,-117.1542 c 17.18566,7.03374 36.7363,8.13293 54.60208,3.06989 17.86577,-5.06304 33.93288,-16.25607 44.87307,-31.26049 9.24081,-12.67372 14.81311,-27.95759 16.1036,-43.5893 1.2905,-15.63171 -1.68047,-31.5685 -8.32959,-45.77431 -6.64911,-14.20581 -16.94295,-26.65986 -29.52003,-36.03178 -12.57708,-9.37192 -27.40489,-15.66149 -42.84949,-18.39646 -29.89201,-5.29336 -61.35126,2.97227 -86.69802,19.67835 -36.99708,24.38483 -60.79933,65.28202 -72.2395,108.09004 -18.08037,67.655 -7.9434,139.34681 4.36625,208.28571 3.92831,22.00011 8.06716,43.96262 12.41579,65.88352 z"
   id="path1087-1-75"
   sodipodi:nodetypes="caaaaaaccaaaacaaaacaaaccaaaaccaaaaacc"
   inkscape:original-d="m 299.33493,633.7207 c 0,0 16.26411,-34.4798 19.66329,-53.02055 13.11855,-71.55492 23.63862,-148.8954 1.63808,-218.23644 -10.17173,-32.05914 -28.15389,-68.12479 -58.78974,-82.00633 -34.57432,-15.66612 -88.01026,-17.14572 -113.32833,11.13514 -54.481448,60.85701 -24.334,168.07482 3.06305,245.02419 15.73151,44.18468 52.96972,78.46425 87.55113,110.14851 32.46628,29.74634 110.1904,72.85749 110.1904,72.85749 L 207.74684,829.76245 c -12.76427,-34.18253 -14.53257,-56.137 -25.6405,-82.81444 C 148.59214,666.45857 77.346458,601.3136 59.274313,516.01895 33.922282,396.36565 -11.405066,224.77671 85.400289,150.02133 c 62.869841,-48.54949 171.998181,-5.6347 234.260611,43.69128 41.40727,32.80396 63.92926,145.01381 63.92926,145.01381 0,0 23.46066,-141.72643 74.09221,-184.47933 60.16181,-50.80019 157.8445,-79.555929 230.8552,-50.06795 52.55952,21.22804 87.44652,85.11126 94.54335,141.34975 6.83526,54.1657 -27.192,107.15138 -54.38323,154.49354 -8.16374,14.21373 -31.83784,37.47591 -31.83784,37.47591 0,0 114.91122,59.75948 136.46587,115.26469 30.59,78.77205 31.96546,196.79473 -32.51159,251.4161 -49.22228,41.69838 -132.40905,13.94285 -193.402,-7.0678 -42.37465,-14.59708 -68.77019,-56.98725 -108.88346,-78.88325 l 43.26368,-90.81212 c 0,0 48.96986,74.5639 88.34266,87.54521 42.81976,14.11778 103.97362,14.3582 133.86306,-19.39776 29.46063,-33.27168 25.70809,-95.08242 3.00651,-133.28675 -21.63853,-36.41532 -71.15047,-51.3897 -112.95487,-58.22295 -24.82842,-4.0584 -74.60489,11.41922 -74.60489,11.41922 l -4.39125,-117.1542 c 0,0 84.91361,3.04625 99.47515,-28.1906 22.20086,-47.62443 -17.57557,-120.33786 -64.59551,-143.79185 -26.51844,-13.22765 -62.28025,2.88637 -86.69802,19.67835 -35.70735,24.55576 -60.0929,66.49124 -72.2395,108.09004 -19.46437,66.6602 -2.81616,139.21432 4.36625,208.28571 2.31137,22.22788 12.41579,65.88352 12.41579,65.88352 z"
   inkscape:path-effect="#path-effect1030" /></svg>
