<?xml version="1.0" encoding="UTF-8"?>
<!DOCTYPE svg PUBLIC "-//W3C//DTD SVG 1.1//EN" "http://www.w3.org/Graphics/SVG/1.1/DTD/svg11.dtd">
<!-- Creator: CorelDRAW X8 -->
<svg xmlns="http://www.w3.org/2000/svg" xml:space="preserve" width="2230px" height="1486px" version="1.1" style="shape-rendering:geometricPrecision; text-rendering:geometricPrecision; image-rendering:optimizeQuality; fill-rule:evenodd; clip-rule:evenodd"
viewBox="0 0 2230 1486"
 xmlns:xlink="http://www.w3.org/1999/xlink">
 <defs>
  <style type="text/css">
   <![CDATA[
    .fil0 {fill:#EF7F1A;fill-rule:nonzero}
   ]]>
  </style>
 </defs>
 <g id="Layer_x0020_1">
  <metadata id="CorelCorpID_0Corel-Layer"/>
  <path class="fil0" d="M2081 1486c47,0 102,-28 102,-79 0,-52 -55,-80 -102,-80l-1765 0c-54,0 -111,0 -111,-70 0,-63 59,-66 111,-66l1250 0c180,0 358,-40 490,-168 122,-118 174,-263 174,-429 0,-155 -54,-310 -164,-424 -109,-113 -261,-170 -417,-170 -77,0 -155,11 -227,36 -73,-26 -150,-36 -227,-36 -136,0 -284,34 -371,114 -83,-84 -206,-114 -322,-114 -189,0 -368,91 -450,264 -36,75 -51,167 -51,250 0,206 88,408 290,496 20,9 44,14 69,14 28,0 56,-6 78,-22 14,-11 20,-22 20,-33 0,-19 -16,-35 -40,-45 -153,-64 -215,-257 -215,-410 0,-68 9,-137 35,-200 42,-107 142,-202 264,-202 152,0 213,121 213,256l0 599c0,42 69,56 101,56 32,0 101,-14 101,-56l0 -570c0,-166 106,-285 278,-285 23,0 47,2 70,6 -152,113 -230,296 -230,481 0,84 18,168 59,243 67,122 189,180 328,180 139,0 260,-58 328,-181 42,-75 59,-157 59,-242 0,-185 -78,-368 -229,-481 23,-4 46,-6 69,-6 109,0 207,65 271,149 72,95 108,217 108,335 0,142 -43,270 -148,372 -76,74 -169,111 -274,111l-1290 0c-138,0 -316,29 -316,204 0,170 175,203 316,203l1765 0zm-659 -575c-61,0 -108,-53 -134,-101 -36,-65 -50,-138 -50,-211 0,-152 60,-316 184,-411 123,95 185,260 185,411 0,73 -14,145 -50,210 -27,48 -75,102 -135,102z"/>
 </g>
</svg>
