<?xml version="1.0" encoding="UTF-8"?>
<!DOCTYPE svg PUBLIC "-//W3C//DTD SVG 1.1//EN" "http://www.w3.org/Graphics/SVG/1.1/DTD/svg11.dtd">
<!-- Creator: CorelDRAW X8 -->
<svg xmlns="http://www.w3.org/2000/svg" xml:space="preserve" width="2609px" height="1486px" version="1.1" style="shape-rendering:geometricPrecision; text-rendering:geometricPrecision; image-rendering:optimizeQuality; fill-rule:evenodd; clip-rule:evenodd"
viewBox="0 0 2609 1486"
 xmlns:xlink="http://www.w3.org/1999/xlink">
 <defs>
  <style type="text/css">
   <![CDATA[
    .fil0 {fill:#EF7F1A;fill-rule:nonzero}
   ]]>
  </style>
 </defs>
 <g id="Layer_x0020_1">
  <metadata id="CorelCorpID_0Corel-Layer"/>
  <path class="fil0" d="M1358 1486c328,0 704,-82 960,-291 195,-159 291,-370 291,-620 0,-168 -55,-337 -185,-452 -94,-83 -220,-123 -345,-123 -122,0 -231,26 -321,111 -77,-75 -181,-110 -288,-110 -112,0 -211,36 -291,117 -83,-81 -200,-117 -315,-117 -189,0 -367,91 -450,263 -37,78 -51,165 -51,250 0,207 89,408 287,496 22,10 48,15 73,15 28,0 56,-6 77,-22 14,-11 20,-22 20,-33 0,-18 -16,-35 -40,-45 -153,-64 -215,-258 -215,-411 0,-67 10,-136 35,-199 43,-107 142,-202 264,-202 152,0 213,125 213,259l0 597c0,42 69,56 101,56 33,0 102,-14 102,-56l0 -597c0,-115 53,-258 190,-258 140,0 194,140 194,257l0 597c0,42 69,56 101,56 32,0 101,-14 101,-56l0 -596c0,-139 54,-260 213,-260 85,0 165,51 216,115 79,96 110,227 110,348 0,204 -65,393 -215,536 -213,203 -544,264 -832,264 -291,0 -645,-61 -877,-247 -180,-144 -279,-351 -279,-582 0,-178 66,-357 228,-452 18,-11 27,-24 27,-38 0,-15 -11,-30 -32,-41 -19,-10 -44,-15 -68,-15 -27,0 -55,6 -75,18 -194,113 -282,311 -282,528 0,285 135,524 368,685 272,189 665,255 990,255z"/>
 </g>
</svg>
