<?xml version="1.0" encoding="UTF-8"?>
<!DOCTYPE svg PUBLIC "-//W3C//DTD SVG 1.1//EN" "http://www.w3.org/Graphics/SVG/1.1/DTD/svg11.dtd">
<!-- Creator: CorelDRAW X8 -->
<svg xmlns="http://www.w3.org/2000/svg" xml:space="preserve" width="2018px" height="1486px" version="1.1" style="shape-rendering:geometricPrecision; text-rendering:geometricPrecision; image-rendering:optimizeQuality; fill-rule:evenodd; clip-rule:evenodd"
viewBox="0 0 2018 1486"
 xmlns:xlink="http://www.w3.org/1999/xlink">
 <defs>
  <style type="text/css">
   <![CDATA[
    .fil0 {fill:#EF7F1A;fill-rule:nonzero}
   ]]>
  </style>
 </defs>
 <g id="Layer_x0020_1">
  <metadata id="CorelCorpID_0Corel-Layer"/>
  <path class="fil0" d="M1062 1486c297,0 601,-95 784,-337 116,-152 172,-340 172,-530 0,-123 -25,-244 -78,-356 -82,-173 -260,-263 -450,-263 -111,0 -231,26 -314,103 -83,-77 -203,-103 -314,-103 -190,0 -368,90 -450,263 -37,78 -52,166 -52,253 0,208 92,408 291,494 20,9 44,14 69,14 28,0 56,-7 77,-22 15,-11 21,-22 21,-34 0,-18 -16,-35 -40,-45 -153,-64 -215,-256 -215,-409 0,-68 10,-137 35,-200 43,-107 141,-202 264,-202 151,0 212,114 212,250l0 605c0,42 70,56 102,56 32,0 101,-14 101,-56l0 -605c0,-136 62,-250 213,-250 122,0 227,94 270,202 37,93 55,194 55,295 0,159 -37,311 -122,447 -138,222 -375,318 -631,318 -231,0 -455,-72 -622,-236 -162,-160 -236,-374 -236,-598 0,-174 55,-346 203,-449 15,-11 22,-22 22,-34 0,-18 -16,-36 -39,-45 -18,-8 -40,-11 -63,-11 -29,0 -58,6 -79,21 -172,120 -248,313 -248,518 0,278 108,529 328,706 207,167 471,240 734,240z"/>
 </g>
</svg>
