<?xml version="1.0" encoding="UTF-8" standalone="no"?>
<svg
   xmlns:dc="http://purl.org/dc/elements/1.1/"
   xmlns:cc="http://creativecommons.org/ns#"
   xmlns:rdf="http://www.w3.org/1999/02/22-rdf-syntax-ns#"
   xmlns:svg="http://www.w3.org/2000/svg"
   xmlns="http://www.w3.org/2000/svg"
   xmlns:sodipodi="http://sodipodi.sourceforge.net/DTD/sodipodi-0.dtd"
   xmlns:inkscape="http://www.inkscape.org/namespaces/inkscape"
   xml:space="preserve"
   width="1000"
   height="1000"
   version="1.1"
   style="clip-rule:evenodd;fill-rule:evenodd;image-rendering:optimizeQuality;shape-rendering:geometricPrecision;text-rendering:geometricPrecision"
   viewBox="0 0 1000 1000"
   id="svg10"
   sodipodi:docname="പ.svg"
   inkscape:version="1.0.1 (3bc2e813f5, 2020-09-07)"><metadata
   id="metadata14"><rdf:RDF><cc:Work
       rdf:about=""><dc:format>image/svg+xml</dc:format><dc:type
         rdf:resource="http://purl.org/dc/dcmitype/StillImage" /><dc:title /></cc:Work></rdf:RDF></metadata><sodipodi:namedview
   pagecolor="#ffffff"
   bordercolor="#666666"
   borderopacity="1"
   objecttolerance="10"
   gridtolerance="10"
   guidetolerance="10"
   inkscape:pageopacity="0"
   inkscape:pageshadow="2"
   inkscape:window-width="1920"
   inkscape:window-height="1015"
   id="namedview12"
   showgrid="false"
   inkscape:zoom="0.79682018"
   inkscape:cx="365.69573"
   inkscape:cy="527.9937"
   inkscape:window-x="1920"
   inkscape:window-y="0"
   inkscape:window-maximized="1"
   inkscape:current-layer="svg10"
   showguides="true"
   inkscape:guide-bbox="true"
   inkscape:document-rotation="0"><sodipodi:guide
     position="0,1000"
     orientation="0,1"
     id="guide16"
     inkscape:label=""
     inkscape:locked="true"
     inkscape:color="rgb(0,0,255)" /><sodipodi:guide
     position="1763.3122,2036.1693"
     orientation="1000,0"
     id="guide18" /><sodipodi:guide
     position="0,200"
     orientation="0,1"
     id="guide20"
     inkscape:label="base"
     inkscape:locked="true"
     inkscape:color="rgb(0,0,255)" /><inkscape:grid
     type="xygrid"
     id="grid24"
     originx="-473.37552"
     originy="-489.69235" /><sodipodi:guide
     position="0,0"
     orientation="0,1"
     id="guide34"
     inkscape:label="bottom"
     inkscape:locked="true"
     inkscape:color="rgb(0,0,255)" /><sodipodi:guide
     position="225.05109,1693.3186"
     orientation="0,1"
     id="guide44"
     inkscape:label=""
     inkscape:locked="false"
     inkscape:color="rgb(0,0,255)" /><sodipodi:guide
     position="0,900"
     orientation="0,1"
     id="guide46"
     inkscape:label=""
     inkscape:locked="true"
     inkscape:color="rgb(0,0,255)" /><sodipodi:guide
     position="766.82328,544.86046"
     orientation="-1,0"
     id="guide841"
     inkscape:label="width"
     inkscape:locked="false"
     inkscape:color="rgb(0,0,255)" /><sodipodi:guide
     position="0,1000"
     orientation="0,1000"
     id="guide860" /><sodipodi:guide
     position="1000,1000"
     orientation="1000,0"
     id="guide862" /><sodipodi:guide
     position="1000,0"
     orientation="0,-1000"
     id="guide864" /><sodipodi:guide
     position="0,0"
     orientation="-1000,0"
     id="guide866" /></sodipodi:namedview>
 <defs
   id="defs4"><inkscape:path-effect
   effect="spiro"
   id="path-effect858"
   is_visible="true"
   lpeversion="1" /><inkscape:path-effect
   effect="spiro"
   id="path-effect854"
   is_visible="true"
   lpeversion="1" />
  <style
   type="text/css"
   id="style2">
   <![CDATA[
    .fil0 {fill:#EF7F1A;fill-rule:nonzero}
   ]]>
  </style>
 <inkscape:path-effect
   effect="spiro"
   id="path-effect1214"
   is_visible="true"
   lpeversion="1" /><inkscape:path-effect
   effect="spiro"
   id="path-effect1195"
   is_visible="true"
   lpeversion="1" /><inkscape:path-effect
   effect="spiro"
   id="path-effect992"
   is_visible="true"
   lpeversion="1" /><inkscape:path-effect
   effect="spiro"
   id="path-effect287"
   is_visible="true"
   lpeversion="1" /><inkscape:path-effect
   effect="spiro"
   id="path-effect1032"
   is_visible="true"
   lpeversion="1" /><inkscape:path-effect
   effect="spiro"
   id="path-effect1218"
   is_visible="true"
   lpeversion="1" /><inkscape:path-effect
   effect="spiro"
   id="path-effect309"
   is_visible="true"
   lpeversion="1" /></defs>
 
<path
   style="display:inline;fill:#1a1a1a;stroke:none;stroke-width:2.10838px;stroke-linecap:butt;stroke-linejoin:miter;stroke-opacity:1"
   d="M 86.662413,802.3752 C 90.849191,759.25056 83.884632,715.45723 69.713807,674.51273 57.989681,640.63761 41.435163,608.60722 29.385628,574.84648 17.336093,541.08573 9.8456642,504.47076 17.156762,469.37764 c 5.060946,-24.29244 17.160976,-46.93553 33.760541,-65.37977 16.599564,-18.44425 37.60477,-32.73741 60.451467,-42.42059 39.85577,-16.89219 85.07893,-19.65043 127.40585,-10.58069 42.32692,9.06973 81.7826,29.61198 115.45642,56.81313 47.38259,38.27487 84.18907,91.09776 97.30166,150.57999 9.68979,43.9555 6.16709,90.73556 -9.99609,132.74424 26.48747,6.82615 54.12341,9.17302 81.38265,6.91108 21.90991,-1.81806 43.77801,-6.67684 63.44418,-16.50492 19.66618,-9.82807 37.06821,-24.85744 47.68423,-44.10971 11.19689,-20.30568 14.3631,-44.27376 12.81784,-67.41038 -1.54526,-23.13662 -7.54462,-45.71966 -13.74553,-68.06333 -29.46993,-106.18862 -64.5289,-213.68884 -58.61271,-323.73201 1.41618,-26.3415 5.19476,-52.55555 11.27554,-78.22468 h 180.64674 c -14.42439,19.90249 -26.70352,41.35869 -36.55631,63.87746 -26.99827,61.70516 -35.30271,130.41586 -32.00867,197.68831 3.29404,67.27245 17.80324,133.49696 34.88229,198.64862 8.31741,31.72853 17.31043,63.62556 18.73183,96.39534 1.42139,32.76978 -5.48537,67.09685 -25.95996,92.72242 -18.95967,23.72952 -47.95571,37.90231 -77.72874,43.9128 -29.77303,6.01049 -60.53361,4.53783 -90.76356,1.5866 -59.8009,-5.83813 -119.63991,-17.37175 -179.51631,-12.3669 -25.55975,2.13644 -50.8656,7.29475 -75.22229,15.33319 L 283.34232,647.98161 c 7.30354,5.41352 16.01328,8.91268 25.03211,10.05669 9.01882,1.14402 18.32638,-0.0697 26.75025,-3.48822 13.87268,-5.62975 24.99159,-17.15133 31.32313,-30.71809 6.33154,-13.56676 8.06282,-29.0335 6.21191,-43.89013 -2.22727,-17.87752 -9.53537,-34.98499 -20.22492,-49.48672 -10.68954,-14.50173 -24.69312,-26.43323 -40.28526,-35.45829 -23.36079,-13.52171 -50.65913,-20.5793 -77.57669,-18.57734 -26.91756,2.00197 -53.29679,13.31259 -72.29068,32.49057 -23.1179,23.34196 -34.11662,56.99426 -33.88445,89.8459 0.23216,32.85164 10.90054,64.96434 26.20666,94.03335 20.71432,39.34013 50.13668,74.06494 85.54158,100.95772 l -163.741536,59.4942 c 5.140512,-16.54675 8.583675,-33.62028 10.257989,-50.86605 z"
   id="use1061"
   sodipodi:nodetypes="aaaaaacaaaaccaaaaaccaaaaacca"
   inkscape:path-effect="#path-effect858"
   inkscape:original-d="M 86.662413,802.3752 C 88.106996,759.40585 77.888354,716.72207 69.713807,674.51273 56.292835,605.21342 0.809571,538.04558 17.156762,469.37764 28.208758,422.95267 66.255893,377.14175 111.36877,361.57728 c 77.90176,-26.87701 174.50625,0.20515 242.86227,46.23244 49.57046,33.3781 82.55942,92.66631 97.30166,150.57999 10.94639,43.00199 -9.99609,132.74424 -9.99609,132.74424 0,0 54.74041,12.51484 81.38265,6.91108 41.29138,-8.68496 89.71368,-24.25785 111.12841,-60.61463 22.91907,-38.91077 3.26515,-90.50981 -0.92769,-135.47371 C 622.93798,392.76532 576.47872,287.87204 574.50727,178.22468 574.03368,151.88455 585.78281,100 585.78281,100 h 180.64674 c 0,0 -30.33786,40.14592 -36.55631,63.87746 -33.48816,127.80111 4.91812,264.23697 2.87362,396.33693 -0.97625,63.07773 32.07662,139.77316 -7.22813,189.11776 -36.24596,45.50449 -110.59267,39.83722 -168.4923,45.4994 -59.69583,5.83784 -119.66691,-16.33178 -179.51631,-12.3669 -25.53374,1.69156 -75.22229,15.33319 -75.22229,15.33319 3.56444,-56.31268 11.44435,-80.18214 -18.94551,-149.81623 0,0 36.42443,14.74543 51.78236,6.56847 24.57338,-13.08352 39.66049,-46.85012 37.53504,-74.60822 -2.65416,-34.66304 -28.90508,-70.46437 -60.51018,-84.94501 -45.61108,-20.89781 -115.30458,-22.45301 -149.86737,13.91323 -42.26192,44.46709 -27.59136,125.85476 -7.67779,183.87925 14.31789,41.71971 85.54158,100.95772 85.54158,100.95772 l -163.741536,59.4942 c 8.663148,-19.49098 9.676821,-33.57912 10.257989,-50.86605 z" /></svg>
