<?xml version="1.0" encoding="UTF-8"?>
<!DOCTYPE svg PUBLIC "-//W3C//DTD SVG 1.1//EN" "http://www.w3.org/Graphics/SVG/1.1/DTD/svg11.dtd">
<!-- Creator: CorelDRAW X8 -->
<svg xmlns="http://www.w3.org/2000/svg" xml:space="preserve" width="876px" height="593px" version="1.1" style="shape-rendering:geometricPrecision; text-rendering:geometricPrecision; image-rendering:optimizeQuality; fill-rule:evenodd; clip-rule:evenodd"
viewBox="0 0 876 593"
 xmlns:xlink="http://www.w3.org/1999/xlink">
 <defs>
  <style type="text/css">
   <![CDATA[
    .fil0 {fill:#EF7F1A;fill-rule:nonzero}
   ]]>
  </style>
 </defs>
 <g id="Layer_x0020_1">
  <metadata id="CorelCorpID_0Corel-Layer"/>
  <path class="fil0" d="M156 593c20,0 41,-4 55,-14 10,-6 14,-14 14,-20 0,-11 -10,-21 -24,-27 -40,-17 -58,-64 -58,-105 0,-53 31,-109 91,-109 60,0 89,57 89,110 0,38 -14,80 -50,100 -12,7 -18,15 -18,23 0,28 51,35 72,35l477 0c21,0 72,-7 72,-34l0 -518c0,-27 -51,-34 -72,-34 -20,0 -71,7 -71,34l0 483 -291 0c16,-27 24,-58 24,-89 0,-124 -122,-179 -233,-179 -110,0 -233,55 -233,178 0,70 38,127 103,156 15,7 34,10 53,10z"/>
 </g>
</svg>
