<?xml version="1.0" encoding="UTF-8"?>
<!DOCTYPE svg PUBLIC "-//W3C//DTD SVG 1.1//EN" "http://www.w3.org/Graphics/SVG/1.1/DTD/svg11.dtd">
<!-- Creator: CorelDRAW X8 -->
<svg xmlns="http://www.w3.org/2000/svg" xml:space="preserve" width="887px" height="780px" version="1.1" style="shape-rendering:geometricPrecision; text-rendering:geometricPrecision; image-rendering:optimizeQuality; fill-rule:evenodd; clip-rule:evenodd"
viewBox="0 0 887 780"
 xmlns:xlink="http://www.w3.org/1999/xlink">
 <defs>
  <style type="text/css">
   <![CDATA[
    .fil0 {fill:#EF7F1A;fill-rule:nonzero}
   ]]>
  </style>
 </defs>
 <g id="Layer_x0020_1">
  <metadata id="CorelCorpID_0Corel-Layer"/>
  <path class="fil0" d="M156 780c20,0 41,-4 55,-14 10,-6 14,-13 14,-20 0,-10 -10,-20 -24,-26 -40,-17 -58,-64 -58,-105 0,-52 31,-108 91,-108 60,0 89,57 89,109 0,38 -14,80 -50,100 -12,7 -18,15 -18,23 1,27 51,34 72,34l488 0c20,0 72,-7 72,-34l0 -739c-61,37 -143,74 -203,112l0 593 -242 0c16,-27 24,-58 24,-89 0,-123 -122,-178 -233,-178 -110,-1 -233,55 -233,177 0,69 38,126 103,155 14,6 33,10 53,10z"/>
 </g>
</svg>
