<?xml version="1.0" encoding="UTF-8" standalone="no"?>
<svg
   xmlns:dc="http://purl.org/dc/elements/1.1/"
   xmlns:cc="http://creativecommons.org/ns#"
   xmlns:rdf="http://www.w3.org/1999/02/22-rdf-syntax-ns#"
   xmlns:svg="http://www.w3.org/2000/svg"
   xmlns="http://www.w3.org/2000/svg"
   xmlns:sodipodi="http://sodipodi.sourceforge.net/DTD/sodipodi-0.dtd"
   xmlns:inkscape="http://www.inkscape.org/namespaces/inkscape"
   xml:space="preserve"
   width="1000"
   height="1000"
   version="1.1"
   style="clip-rule:evenodd;fill-rule:evenodd;image-rendering:optimizeQuality;shape-rendering:geometricPrecision;text-rendering:geometricPrecision"
   viewBox="0 0 1000 1000"
   id="svg10"
   sodipodi:docname="പ്പ.svg"
   inkscape:version="1.0.1 (3bc2e813f5, 2020-09-07)"><metadata
   id="metadata14"><rdf:RDF><cc:Work
       rdf:about=""><dc:format>image/svg+xml</dc:format><dc:type
         rdf:resource="http://purl.org/dc/dcmitype/StillImage" /><dc:title /></cc:Work></rdf:RDF></metadata><sodipodi:namedview
   pagecolor="#ffffff"
   bordercolor="#666666"
   borderopacity="1"
   objecttolerance="10"
   gridtolerance="10"
   guidetolerance="10"
   inkscape:pageopacity="0"
   inkscape:pageshadow="2"
   inkscape:window-width="1920"
   inkscape:window-height="1015"
   id="namedview12"
   showgrid="false"
   inkscape:zoom="0.79682018"
   inkscape:cx="365.69573"
   inkscape:cy="527.9937"
   inkscape:window-x="1920"
   inkscape:window-y="0"
   inkscape:window-maximized="1"
   inkscape:current-layer="svg10"
   showguides="true"
   inkscape:guide-bbox="true"
   inkscape:document-rotation="0"><sodipodi:guide
     position="0,1000"
     orientation="0,1"
     id="guide16"
     inkscape:label=""
     inkscape:locked="true"
     inkscape:color="rgb(0,0,255)" /><sodipodi:guide
     position="1763.3122,2036.1693"
     orientation="1000,0"
     id="guide18" /><sodipodi:guide
     position="0,200"
     orientation="0,1"
     id="guide20"
     inkscape:label="base"
     inkscape:locked="true"
     inkscape:color="rgb(0,0,255)" /><inkscape:grid
     type="xygrid"
     id="grid24"
     originx="-473.37552"
     originy="-489.69235" /><sodipodi:guide
     position="0,0"
     orientation="0,1"
     id="guide34"
     inkscape:label="bottom"
     inkscape:locked="true"
     inkscape:color="rgb(0,0,255)" /><sodipodi:guide
     position="225.05109,1693.3186"
     orientation="0,1"
     id="guide44"
     inkscape:label=""
     inkscape:locked="false"
     inkscape:color="rgb(0,0,255)" /><sodipodi:guide
     position="0,900"
     orientation="0,1"
     id="guide46"
     inkscape:label=""
     inkscape:locked="true"
     inkscape:color="rgb(0,0,255)" /><sodipodi:guide
     position="753.80492,545.13683"
     orientation="-1,0"
     id="guide841"
     inkscape:label=""
     inkscape:locked="false"
     inkscape:color="rgb(0,0,255)" /><sodipodi:guide
     position="0,1000"
     orientation="0,1000"
     id="guide860" /><sodipodi:guide
     position="1000,1000"
     orientation="1000,0"
     id="guide862" /><sodipodi:guide
     position="1000,0"
     orientation="0,-1000"
     id="guide864" /><sodipodi:guide
     position="0,0"
     orientation="-1000,0"
     id="guide866" /></sodipodi:namedview>
 <defs
   id="defs4"><inkscape:path-effect
   effect="spiro"
   id="path-effect859"
   is_visible="true"
   lpeversion="1" /><inkscape:path-effect
   effect="spiro"
   id="path-effect855"
   is_visible="true"
   lpeversion="1" /><inkscape:path-effect
   effect="spiro"
   id="path-effect858"
   is_visible="true"
   lpeversion="1" /><inkscape:path-effect
   effect="spiro"
   id="path-effect854"
   is_visible="true"
   lpeversion="1" />
  <style
   type="text/css"
   id="style2">
   <![CDATA[
    .fil0 {fill:#EF7F1A;fill-rule:nonzero}
   ]]>
  </style>
 <inkscape:path-effect
   effect="spiro"
   id="path-effect1214"
   is_visible="true"
   lpeversion="1" /><inkscape:path-effect
   effect="spiro"
   id="path-effect1195"
   is_visible="true"
   lpeversion="1" /><inkscape:path-effect
   effect="spiro"
   id="path-effect992"
   is_visible="true"
   lpeversion="1" /><inkscape:path-effect
   effect="spiro"
   id="path-effect287"
   is_visible="true"
   lpeversion="1" /><inkscape:path-effect
   effect="spiro"
   id="path-effect1032"
   is_visible="true"
   lpeversion="1" /><inkscape:path-effect
   effect="spiro"
   id="path-effect1218"
   is_visible="true"
   lpeversion="1" /><inkscape:path-effect
   effect="spiro"
   id="path-effect309"
   is_visible="true"
   lpeversion="1" /></defs>
 
<path
   style="display:inline;fill:#1a1a1a;stroke:none;stroke-width:2.10838px;stroke-linecap:butt;stroke-linejoin:miter;stroke-opacity:1"
   d="M 74.662413,802.3752 C 80.255601,759.33745 72.3424,715.37269 57.713807,674.51273 45.625621,640.74853 29.026486,608.73326 17.040262,574.93272 5.0540377,541.13219 -2.2484431,504.46765 5.1567615,469.37764 10.279046,445.10539 22.382486,422.48359 38.969933,404.03809 55.557379,385.59258 76.537377,371.27818 99.368772,361.57728 139.21353,344.64752 184.4481,341.88234 226.77802,350.95976 c 42.32992,9.07742 81.78136,29.63891 115.45302,56.84996 47.37386,38.2842 84.18544,91.09951 97.30166,150.57999 9.69269,43.95515 6.16991,90.73633 -9.99609,132.74424 26.48747,6.82615 54.12341,9.17302 81.38265,6.91108 21.90991,-1.81806 43.77801,-6.67684 63.44418,-16.50492 19.66618,-9.82807 37.06821,-24.85744 47.68423,-44.10971 11.19689,-20.30568 14.3631,-44.27376 12.81784,-67.41038 -1.54526,-23.13662 -7.54462,-45.71966 -13.74553,-68.06333 -29.46993,-106.18862 -64.5289,-213.68884 -58.61271,-323.73201 1.41618,-26.3415 5.19476,-52.55555 11.27554,-78.22468 h 180.64674 c -14.42439,19.90249 -26.70352,41.35869 -36.55631,63.87746 -26.99827,61.70516 -35.30271,130.41586 -32.00867,197.68831 3.29404,67.27245 17.80324,133.49696 34.88229,198.64862 8.31741,31.72853 17.31043,63.62556 18.73183,96.39534 1.42139,32.76978 -5.48537,67.09685 -25.95996,92.72242 -18.95967,23.72952 -47.95571,37.90231 -77.72874,43.9128 -29.77303,6.01049 -60.53361,4.53783 -90.76356,1.5866 -59.8009,-5.83813 -119.63991,-17.37175 -179.51631,-12.3669 -25.55975,2.13644 -50.8656,7.29475 -75.22229,15.33319 L 271.34232,647.98161 c 7.30354,5.41352 16.01328,8.91268 25.03211,10.05669 9.01882,1.14402 18.32638,-0.0697 26.75025,-3.48822 13.87268,-5.62975 24.99159,-17.15133 31.32313,-30.71809 6.33154,-13.56676 8.06282,-29.0335 6.21191,-43.89013 -2.22727,-17.87752 -9.53537,-34.98499 -20.22492,-49.48672 -10.68954,-14.50173 -24.69312,-26.43323 -40.28526,-35.45829 -23.36079,-13.52171 -50.65913,-20.5793 -77.57669,-18.57734 -26.91756,2.00197 -53.29679,13.31259 -72.29068,32.49057 -23.1179,23.34196 -34.11662,56.99426 -33.88445,89.8459 0.23216,32.85164 10.90054,64.96434 26.20666,94.03335 20.71432,39.34013 50.13668,74.06494 85.54158,100.95772 L 56.851821,863.8355 c 9.021526,-19.4197 15.050977,-40.22596 17.810592,-61.4603 z"
   id="use1061"
   sodipodi:nodetypes="aaaaaacaaaaccaaaaaccaaaaacca"
   inkscape:original-d="M 74.662413,802.3752 C 77.889888,759.50289 65.888354,716.72207 57.713807,674.51273 44.292835,605.21342 -11.190429,538.04558 5.1567615,469.37764 16.208758,422.95267 54.255893,377.14175 99.368772,361.57728 c 77.901758,-26.87701 174.506248,0.20515 242.862268,46.23244 49.57046,33.3781 82.55942,92.66631 97.30166,150.57999 10.94639,43.00199 -9.99609,132.74424 -9.99609,132.74424 0,0 54.74041,12.51484 81.38265,6.91108 41.29138,-8.68496 89.71368,-24.25785 111.12841,-60.61463 22.91907,-38.91077 3.26515,-90.50981 -0.92769,-135.47371 C 610.93798,392.76532 564.47872,287.87204 562.50727,178.22468 562.03368,151.88455 573.78281,100 573.78281,100 h 180.64674 c 0,0 -30.33786,40.14592 -36.55631,63.87746 -33.48816,127.80111 4.91812,264.23697 2.87362,396.33693 -0.97625,63.07773 32.07662,139.77316 -7.22813,189.11776 -36.24596,45.50449 -110.59267,39.83722 -168.4923,45.4994 -59.69583,5.83784 -119.66691,-16.33178 -179.51631,-12.3669 -25.53374,1.69156 -75.22229,15.33319 -75.22229,15.33319 3.56444,-56.31268 11.44435,-80.18214 -18.94551,-149.81623 0,0 36.42443,14.74543 51.78236,6.56847 24.57338,-13.08352 39.66049,-46.85012 37.53504,-74.60822 -2.65416,-34.66304 -28.90508,-70.46437 -60.51018,-84.94501 -45.61108,-20.89781 -115.30458,-22.45301 -149.86737,13.91323 -42.26192,44.46709 -27.59136,125.85476 -7.67779,183.87925 14.31789,41.71971 85.54158,100.95772 85.54158,100.95772 L 56.851821,863.8355 c 8.663148,-19.49098 16.209403,-40.19083 17.810592,-61.4603 z"
   inkscape:path-effect="#path-effect858" /><path
   id="path852"
   style="fill:#1a1a1a;fill-opacity:1;fill-rule:nonzero;stroke:#000000;stroke-width:1px;stroke-linecap:butt;stroke-linejoin:miter;stroke-opacity:1"
   d="m 138.62933,113.26082 c 42.45117,8.35788 77.80977,36.74715 110.71385,64.84124 32.90408,28.09409 66.77721,57.66705 108.45145,69.29521 35.00343,9.76683 72.61174,5.82363 107.56122,-4.13452 48.87131,-13.92489 94.36623,-39.54947 131.60586,-74.12572 l 12.45766,154.4773 c -30.79857,23.36396 -67.87716,38.36719 -106.25696,42.99511 -38.3798,4.62791 -77.96198,-1.13141 -113.43156,-16.50462 -38.25093,-16.5787 -70.83318,-43.586 -105.10533,-67.32219 C 250.35338,259.04644 212.2165,237.80222 170.59047,235.50858 142.6735,233.97032 114.3325,241.3561 90.717074,256.32389 67.101648,271.29169 48.325972,293.76915 37.80162,319.67207 L 0,175.18632 c 13.778509,-23.18586 34.864523,-41.95591 59.490235,-52.95618 24.625712,-11.00027 52.676165,-14.1794 79.139095,-8.96932 z"
   sodipodi:nodetypes="aaaccaacca"
   inkscape:path-effect="#path-effect859"
   inkscape:original-d="m 138.62933,113.26082 c 85.47334,5.52565 136.29189,112.49801 219.1653,134.13645 34.71634,9.06452 73.03588,5.63232 107.56122,-4.13452 48.44726,-13.7052 102.48527,-17.73081 131.60586,-74.12572 l 12.45766,154.4773 C 556.64685,378.3995 462.28705,363.37622 389.73085,350.10482 308.64448,335.27314 252.95101,232.08512 170.59047,235.50858 118.23088,237.685 90.637145,283.45978 37.80162,319.67207 L 0,175.18632 c 51.168742,-16.23824 88.124199,-65.19054 138.62933,-61.9255 z" /></svg>
