<?xml version="1.0" encoding="UTF-8"?>
<!DOCTYPE svg PUBLIC "-//W3C//DTD SVG 1.1//EN" "http://www.w3.org/Graphics/SVG/1.1/DTD/svg11.dtd">
<!-- Creator: CorelDRAW X8 -->
<svg xmlns="http://www.w3.org/2000/svg" xml:space="preserve" width="1095px" height="868px" version="1.1" style="shape-rendering:geometricPrecision; text-rendering:geometricPrecision; image-rendering:optimizeQuality; fill-rule:evenodd; clip-rule:evenodd"
viewBox="0 0 1095 868"
 xmlns:xlink="http://www.w3.org/1999/xlink">
 <defs>
  <style type="text/css">
   <![CDATA[
    .fil0 {fill:#EF7F1A;fill-rule:nonzero}
   ]]>
  </style>
 </defs>
 <g id="Layer_x0020_1">
  <metadata id="CorelCorpID_0Corel-Layer"/>
  <path class="fil0" d="M605 868c126,0 285,-25 388,-99 65,-46 102,-109 102,-188l0 -546c0,-28 -51,-35 -71,-35 -21,0 -72,7 -72,35l0 482 -291 0c17,-28 24,-57 24,-89 0,-124 -121,-177 -232,-177 -109,0 -233,51 -234,177 0,70 39,126 103,155 14,6 33,10 52,10 21,0 42,-5 56,-14 10,-6 14,-14 14,-21 0,-10 -9,-20 -23,-26 -41,-18 -59,-63 -59,-105 0,-53 32,-107 91,-107 60,0 90,56 90,108 0,39 -15,80 -51,100 -11,6 -18,14 -18,23 -1,28 51,35 72,35l405 0c-4,47 -22,90 -56,123 -71,68 -194,89 -290,89 -142,0 -288,-36 -379,-153 -58,-75 -84,-169 -84,-262 -1,-126 47,-259 162,-325 12,-7 17,-15 17,-23 0,-10 -7,-19 -20,-25 -13,-6 -32,-10 -51,-10 -20,0 -40,4 -54,12 -133,76 -196,224 -196,371 0,130 46,249 143,337 123,112 301,148 462,148z"/>
 </g>
</svg>
