<?xml version="1.0" encoding="UTF-8"?>
<!DOCTYPE svg PUBLIC "-//W3C//DTD SVG 1.1//EN" "http://www.w3.org/Graphics/SVG/1.1/DTD/svg11.dtd">
<!-- Creator: CorelDRAW X8 -->
<svg xmlns="http://www.w3.org/2000/svg" xml:space="preserve" width="1798px" height="1012px" version="1.1" style="shape-rendering:geometricPrecision; text-rendering:geometricPrecision; image-rendering:optimizeQuality; fill-rule:evenodd; clip-rule:evenodd"
viewBox="0 0 1798 1012"
 xmlns:xlink="http://www.w3.org/1999/xlink">
 <defs>
  <style type="text/css">
   <![CDATA[
    .fil0 {fill:#EF7F1A;fill-rule:nonzero}
   ]]>
  </style>
 </defs>
 <g id="Layer_x0020_1">
  <metadata id="CorelCorpID_0Corel-Layer"/>
  <path class="fil0" d="M239 1012c29,0 57,-7 78,-21 16,-10 23,-22 23,-34 0,-17 -15,-34 -38,-44 -70,-31 -99,-112 -99,-182 0,-96 62,-192 169,-192 106,0 166,97 166,192 0,66 -23,139 -85,175 -14,8 -28,21 -28,39 0,41 69,55 101,55l1171 0c32,0 101,-14 101,-55l0 -544c0,-251 -225,-401 -465,-401 -242,0 -451,144 -451,395l0 494 -184 0c30,-48 43,-102 43,-158 0,-199 -184,-303 -369,-303 -185,0 -372,102 -372,302 0,118 61,218 170,268 20,9 45,14 69,14zm1357 -123l-512 0 0 -494c0,-147 84,-284 247,-284 164,0 265,138 265,290l0 488z"/>
 </g>
</svg>
