<?xml version="1.0" encoding="UTF-8"?>
<!DOCTYPE svg PUBLIC "-//W3C//DTD SVG 1.1//EN" "http://www.w3.org/Graphics/SVG/1.1/DTD/svg11.dtd">
<!-- Creator: CorelDRAW X8 -->
<svg xmlns="http://www.w3.org/2000/svg" xml:space="preserve" width="1092px" height="593px" version="1.1" style="shape-rendering:geometricPrecision; text-rendering:geometricPrecision; image-rendering:optimizeQuality; fill-rule:evenodd; clip-rule:evenodd"
viewBox="0 0 1092 593"
 xmlns:xlink="http://www.w3.org/1999/xlink">
 <defs>
  <style type="text/css">
   <![CDATA[
    .fil0 {fill:#EF7F1A;fill-rule:nonzero}
   ]]>
  </style>
 </defs>
 <g id="Layer_x0020_1">
  <metadata id="CorelCorpID_0Corel-Layer"/>
  <path class="fil0" d="M155 593c21,0 42,-4 56,-14 10,-6 14,-14 14,-21 0,-10 -10,-20 -24,-26 -41,-18 -58,-63 -58,-105 0,-53 31,-109 91,-109 59,0 89,57 89,110 0,38 -14,80 -50,100 -12,7 -18,15 -18,24 0,27 51,34 71,34l695 0c20,0 71,-7 71,-34l0 -316c0,-157 -144,-236 -287,-236 -145,0 -276,78 -276,232l0 285 -88 0c17,-27 25,-58 25,-89 0,-124 -122,-179 -233,-179 -110,0 -233,55 -233,178 0,70 38,128 102,156 15,7 34,10 53,10zm795 -76l-278 0 0 -285c0,-79 43,-163 133,-163 92,0 145,84 145,167l0 281z"/>
 </g>
</svg>
