<?xml version="1.0" encoding="UTF-8" standalone="no"?>
<svg
   xmlns:dc="http://purl.org/dc/elements/1.1/"
   xmlns:cc="http://creativecommons.org/ns#"
   xmlns:rdf="http://www.w3.org/1999/02/22-rdf-syntax-ns#"
   xmlns:svg="http://www.w3.org/2000/svg"
   xmlns="http://www.w3.org/2000/svg"
   xmlns:sodipodi="http://sodipodi.sourceforge.net/DTD/sodipodi-0.dtd"
   xmlns:inkscape="http://www.inkscape.org/namespaces/inkscape"
   xml:space="preserve"
   width="1000"
   height="1000"
   version="1.1"
   style="clip-rule:evenodd;fill-rule:evenodd;image-rendering:optimizeQuality;shape-rendering:geometricPrecision;text-rendering:geometricPrecision"
   viewBox="0 0 1000 1000"
   id="svg10"
   sodipodi:docname="ഫ്ര.svg"
   inkscape:version="1.0.1 (3bc2e813f5, 2020-09-07)"><metadata
   id="metadata14"><rdf:RDF><cc:Work
       rdf:about=""><dc:format>image/svg+xml</dc:format><dc:type
         rdf:resource="http://purl.org/dc/dcmitype/StillImage" /><dc:title /></cc:Work></rdf:RDF></metadata><sodipodi:namedview
   pagecolor="#ffffff"
   bordercolor="#666666"
   borderopacity="1"
   objecttolerance="10"
   gridtolerance="10"
   guidetolerance="10"
   inkscape:pageopacity="0"
   inkscape:pageshadow="2"
   inkscape:window-width="1920"
   inkscape:window-height="1015"
   id="namedview12"
   showgrid="false"
   inkscape:zoom="0.79682018"
   inkscape:cx="516.29433"
   inkscape:cy="584.35375"
   inkscape:window-x="1920"
   inkscape:window-y="0"
   inkscape:window-maximized="1"
   inkscape:current-layer="svg10"
   showguides="true"
   inkscape:guide-bbox="true"
   inkscape:document-rotation="0"><sodipodi:guide
     position="0,1000"
     orientation="0,1"
     id="guide16"
     inkscape:label=""
     inkscape:locked="true"
     inkscape:color="rgb(0,0,255)" /><sodipodi:guide
     position="1763.3122,2036.1693"
     orientation="1000,0"
     id="guide18" /><sodipodi:guide
     position="0,200"
     orientation="0,1"
     id="guide20"
     inkscape:label="base"
     inkscape:locked="true"
     inkscape:color="rgb(0,0,255)" /><inkscape:grid
     type="xygrid"
     id="grid24"
     originx="-473.37552"
     originy="-489.69235" /><sodipodi:guide
     position="0,0"
     orientation="0,1"
     id="guide34"
     inkscape:label="bottom"
     inkscape:locked="true"
     inkscape:color="rgb(0,0,255)" /><sodipodi:guide
     position="225.05109,1693.3186"
     orientation="0,1"
     id="guide44"
     inkscape:label=""
     inkscape:locked="false"
     inkscape:color="rgb(0,0,255)" /><sodipodi:guide
     position="0,900"
     orientation="0,1"
     id="guide46"
     inkscape:label=""
     inkscape:locked="true"
     inkscape:color="rgb(0,0,255)" /><sodipodi:guide
     position="1058.8216,501.02775"
     orientation="-1,0"
     id="guide841"
     inkscape:label="width"
     inkscape:locked="false"
     inkscape:color="rgb(0,0,255)" /><sodipodi:guide
     position="0,1000"
     orientation="0,1000"
     id="guide860" /><sodipodi:guide
     position="1000,1000"
     orientation="1000,0"
     id="guide862" /><sodipodi:guide
     position="1000,0"
     orientation="0,-1000"
     id="guide864" /><sodipodi:guide
     position="0,0"
     orientation="-1000,0"
     id="guide866" /></sodipodi:namedview>
 <defs
   id="defs4"><inkscape:path-effect
   effect="spiro"
   id="path-effect858"
   is_visible="true"
   lpeversion="1" /><inkscape:path-effect
   effect="spiro"
   id="path-effect854"
   is_visible="true"
   lpeversion="1" />
  <style
   type="text/css"
   id="style2">
   <![CDATA[
    .fil0 {fill:#EF7F1A;fill-rule:nonzero}
   ]]>
  </style>
 <inkscape:path-effect
   effect="spiro"
   id="path-effect1214"
   is_visible="true"
   lpeversion="1" /><inkscape:path-effect
   effect="spiro"
   id="path-effect1195"
   is_visible="true"
   lpeversion="1" /><inkscape:path-effect
   effect="spiro"
   id="path-effect992"
   is_visible="true"
   lpeversion="1" /><inkscape:path-effect
   effect="spiro"
   id="path-effect287"
   is_visible="true"
   lpeversion="1" /><inkscape:path-effect
   effect="spiro"
   id="path-effect1032"
   is_visible="true"
   lpeversion="1" /><inkscape:path-effect
   effect="spiro"
   id="path-effect1218"
   is_visible="true"
   lpeversion="1" /><inkscape:path-effect
   effect="spiro"
   id="path-effect309"
   is_visible="true"
   lpeversion="1" /></defs>
 
<path
   style="display:inline;fill:#1a1a1a;fill-rule:nonzero;stroke:none;stroke-width:2.10838px;stroke-linecap:butt;stroke-linejoin:miter;stroke-opacity:1"
   d="m 123.22464,745.57212 c -10.08988,53.47282 4.41142,111.08457 38.61409,153.40862 21.21213,26.24893 49.37279,46.50651 80.19106,60.26132 30.81828,13.75481 64.25478,21.14802 97.89492,23.85014 67.28029,5.40424 134.54417,-7.65113 200.64127,-21.32655 67.40867,-13.94678 135.83438,-29.0396 195.80986,-62.82396 48.59638,-27.37448 90.40454,-66.69728 120.70231,-113.52692 L 380.22052,800 361.27501,650.18377 c 7.30354,5.41352 16.01328,8.91268 25.03211,10.05669 9.01882,1.14402 18.32638,-0.0697 26.75025,-3.48822 13.87268,-5.62975 24.99159,-17.15133 31.32313,-30.71809 6.33154,-13.56676 8.06282,-29.0335 6.21191,-43.89013 -2.22727,-17.87752 -9.53537,-34.98499 -20.22492,-49.48672 -10.68954,-14.50173 -24.69312,-26.43323 -40.28526,-35.45829 -23.36079,-13.52171 -50.65913,-20.5793 -77.57669,-18.57734 -26.91756,2.00197 -53.29679,13.31259 -72.29068,32.49057 -23.1179,23.34196 -34.11662,56.99426 -33.88445,89.8459 0.23216,32.85164 10.90054,64.96434 26.20666,94.03335 20.71432,39.34013 50.13668,74.06494 85.54158,100.95772 l -171.29414,70.08845 c 9.02152,-19.4197 15.05097,-40.22596 17.81059,-61.4603 5.59319,-43.03775 -2.32001,-87.00251 -16.9486,-127.86247 -12.08819,-33.7642 -28.68732,-65.77947 -40.67355,-99.58001 -11.986221,-33.80053 -19.288704,-70.46507 -11.8835,-105.55508 5.12228,-24.27225 17.22572,-46.89405 33.81317,-65.33955 16.58745,-18.44551 37.56744,-32.75991 60.39884,-42.46081 39.84476,-16.92976 85.07933,-19.69494 127.40925,-10.61752 42.32991,9.07742 81.78136,29.63891 115.45302,56.84996 47.37386,38.2842 84.18544,91.09951 97.30166,150.57999 9.69269,43.95515 6.16991,90.73633 -9.99609,132.74424 74.33331,17.35207 152.13273,19.71671 227.38265,6.91108 38.07479,-6.47937 77.11209,-17.67253 105.39609,-43.97248 28.53125,-26.52986 42.64341,-65.52701 47.54592,-104.17713 8.19391,-64.59866 -7.09339,-131.27875 -38.97992,-188.05354 -28.96705,-51.57658 -72.88403,-96.34608 -127.99963,-117.82872 -14.734,-5.74293 -30.24954,-9.8063 -46.04901,-10.47617 -15.79948,-0.66987 -31.92492,2.1686 -45.90253,9.56444 -14.64398,7.74844 -26.49413,20.30192 -34.50587,34.80352 -8.01175,14.5016 -12.2984,30.88931 -13.69505,47.39791 -2.79332,33.0172 5.68866,65.86147 14.81841,97.71403 15.76356,54.99711 34.36728,110.67603 69.92677,155.49449 18.22413,22.96932 40.63514,42.60618 65.79965,57.65463 l -144.09419,65.34056 c 4.27255,-33.03417 4.4473,-66.59626 0.51898,-99.67313 C 587.2246,499.56763 535.00808,404.50809 505.31073,303.58457 499.84184,284.9991 495.11679,266.1004 493.30048,246.81233 c -1.81631,-19.28807 -0.64954,-39.05593 5.43688,-57.44843 7.03779,-21.26741 20.58664,-40.18601 37.82102,-54.49718 17.23438,-14.31116 38.05932,-24.07703 59.8697,-29.18981 44.49272,-10.429972 92.12443,-1.37615 132.98739,19.08368 40.86297,20.45982 75.50578,51.68885 105.51279,86.15573 35.86188,41.19195 65.81998,87.52002 88.63134,137.14352 31.20555,67.88409 48.93379,141.88575 52.3183,216.52207 2.86985,63.28691 -4.63763,127.46531 -26.4265,186.9524 -25.45549,69.49755 -70.2228,131.47114 -126.59325,179.4322 -75.86976,64.55145 -171.07915,103.16489 -268.38046,124.50889 -80.03926,17.5574 -163.3638,24.0343 -244.06268,9.8134 C 229.71612,1051.0679 151.62853,1015.1618 94.38603,956.52875 19.785586,880.11604 -14.390447,766.28784 5.782016,661.4203 Z"
   id="use1061"
   sodipodi:nodetypes="caaacccaaaaaccaaaaaacaaaaaaaaccaaaaaaasaaacc"
   inkscape:path-effect="#path-effect858"
   inkscape:original-d="m 123.22464,745.57212 c -197.007058,231.90117 -0.17488,117.68749 38.61409,153.40862 94.13103,86.68616 251.10352,72.12968 378.72725,62.78491 68.36409,-5.00571 136.75793,-28.01628 195.80986,-62.82396 C 783.95903,870.89417 863.37337,785.29858 857.07815,785.41477 738.36957,752.59094 500.93475,767.91495 380.22052,800 c 3.56444,-56.31268 11.44435,-80.18214 -18.94551,-149.81623 0,0 36.42443,14.74543 51.78236,6.56847 24.57338,-13.08352 39.66049,-46.85012 37.53504,-74.60822 -2.65416,-34.66304 -28.90508,-70.46437 -60.51018,-84.94501 C 344.47115,476.3012 274.77765,474.746 240.21486,511.11224 197.95294,555.57933 212.6235,636.967 232.53707,694.99149 c 14.31789,41.71971 85.54158,100.95772 85.54158,100.95772 l -171.29414,70.08845 c 8.66315,-19.49098 16.2094,-40.19083 17.81059,-61.4603 3.22748,-42.87231 -8.77406,-85.65313 -16.9486,-127.86247 C 134.22553,607.41558 78.74226,540.24774 95.08945,471.5798 c 11.052,-46.42497 49.09913,-92.23589 94.21201,-107.80036 77.90176,-26.87701 174.50625,0.20515 242.86227,46.23244 49.57046,33.3781 82.55942,92.66631 97.30166,150.57999 10.94639,43.00199 -9.99609,132.74424 -9.99609,132.74424 0,0 152.81184,20.6684 227.38265,6.91108 37.43534,-6.90632 78.03943,-17.50147 105.39609,-43.97248 27.43163,-26.54355 43.28397,-66.24443 47.54592,-104.17713 7.14774,-63.6167 -7.41771,-132.35793 -38.97992,-188.05354 -28.59166,-50.45368 -74.07994,-96.48102 -127.99963,-117.82872 -28.49964,-11.28348 -68.28616,-20.39239 -91.95154,-0.91173 -47.09247,38.76518 -40.65867,119.35559 -33.38251,179.91546 6.77943,56.42561 36.12677,109.80674 69.92677,155.49449 17.34368,23.4436 65.79965,57.65463 65.79965,57.65463 l -144.09419,65.34056 c 0,0 5.4673,-66.81886 0.51898,-99.67313 C 583.99801,500.23688 524.18981,406.84232 505.31073,303.58457 498.45175,266.06989 483.79911,224.453 498.73736,189.3639 c 16.79564,-39.452 55.27099,-77.4323 97.69072,-83.68699 85.96618,-12.675508 172.39293,48.84186 238.50018,105.23941 41.40868,35.32666 67.16401,87.12548 88.63134,137.14352 29.2848,68.23216 48.731,142.3577 52.3183,216.52207 3.0406,62.86348 -0.072,129.79887 -26.4265,186.9524 C 922.3013,810.41422 879.06072,884.0704 822.85815,930.96651 747.13749,994.14875 652.48633,1044.5246 554.47769,1055.4754 398.57746,1072.8946 209.64903,1062.9372 94.38603,956.52875 18.91998,886.86005 -97.711537,958.40513 5.782016,661.4203 Z" /></svg>
