<?xml version="1.0" encoding="UTF-8"?>
<!DOCTYPE svg PUBLIC "-//W3C//DTD SVG 1.1//EN" "http://www.w3.org/Graphics/SVG/1.1/DTD/svg11.dtd">
<!-- Creator: CorelDRAW X8 -->
<svg xmlns="http://www.w3.org/2000/svg" xml:space="preserve" width="2518px" height="1486px" version="1.1" style="shape-rendering:geometricPrecision; text-rendering:geometricPrecision; image-rendering:optimizeQuality; fill-rule:evenodd; clip-rule:evenodd"
viewBox="0 0 2518 1486"
 xmlns:xlink="http://www.w3.org/1999/xlink">
 <defs>
  <style type="text/css">
   <![CDATA[
    .fil0 {fill:#EF7F1A;fill-rule:nonzero}
   ]]>
  </style>
 </defs>
 <g id="Layer_x0020_1">
  <metadata id="CorelCorpID_0Corel-Layer"/>
  <path class="fil0" d="M1320 1486c283,0 637,-17 899,-127 161,-68 299,-178 299,-364l0 -939c0,-41 -69,-55 -101,-55 -33,0 -102,14 -102,55l0 834 -375 0c103,-106 148,-251 148,-396 0,-288 -194,-494 -485,-494 -114,0 -238,33 -316,119 -101,-93 -254,-118 -388,-118 -203,0 -389,80 -485,268 -43,84 -61,177 -61,270 0,145 44,311 163,406 68,55 146,79 233,79 87,0 177,-26 245,-81 75,-62 108,-155 108,-250 0,-78 -25,-152 -80,-209 -65,-67 -161,-101 -254,-101 -80,0 -150,21 -211,75 7,-52 22,-103 46,-150 59,-117 162,-197 296,-197 175,0 296,102 296,279l0 578c0,41 69,56 102,56 32,0 101,-14 101,-55l0 -603c0,-129 59,-255 205,-255 189,0 283,223 283,383 0,150 -65,346 -215,408 -17,7 -41,23 -41,44 0,42 73,55 105,55l579 0c-8,112 -82,193 -178,244 -218,115 -570,129 -816,129 -264,0 -571,-36 -797,-181 -228,-146 -320,-368 -320,-632 0,-179 79,-368 234,-468 17,-11 24,-24 24,-36 0,-17 -14,-33 -36,-43 -19,-9 -43,-13 -66,-13 -28,0 -56,5 -77,19 -183,119 -282,326 -282,541 0,331 142,588 435,746 260,140 592,179 885,179zm-567 -573c-109,0 -154,-114 -154,-207 0,-90 46,-207 154,-207 109,0 154,117 154,207 0,89 -47,207 -154,207z"/>
 </g>
</svg>
