<?xml version="1.0" encoding="UTF-8" standalone="no"?>
<svg
   xmlns:dc="http://purl.org/dc/elements/1.1/"
   xmlns:cc="http://creativecommons.org/ns#"
   xmlns:rdf="http://www.w3.org/1999/02/22-rdf-syntax-ns#"
   xmlns:svg="http://www.w3.org/2000/svg"
   xmlns="http://www.w3.org/2000/svg"
   xmlns:sodipodi="http://sodipodi.sourceforge.net/DTD/sodipodi-0.dtd"
   xmlns:inkscape="http://www.inkscape.org/namespaces/inkscape"
   xml:space="preserve"
   width="1000"
   height="1000"
   version="1.1"
   style="clip-rule:evenodd;fill-rule:evenodd;image-rendering:optimizeQuality;shape-rendering:geometricPrecision;text-rendering:geometricPrecision"
   viewBox="0 0 1000 1000"
   id="svg10"
   sodipodi:docname="ഭ.svg"
   inkscape:version="1.0.1 (3bc2e813f5, 2020-09-07)"><metadata
   id="metadata14"><rdf:RDF><cc:Work
       rdf:about=""><dc:format>image/svg+xml</dc:format><dc:type
         rdf:resource="http://purl.org/dc/dcmitype/StillImage" /><dc:title /></cc:Work></rdf:RDF></metadata><sodipodi:namedview
   pagecolor="#ffffff"
   bordercolor="#666666"
   borderopacity="1"
   objecttolerance="10"
   gridtolerance="10"
   guidetolerance="10"
   inkscape:pageopacity="0"
   inkscape:pageshadow="2"
   inkscape:window-width="1920"
   inkscape:window-height="1015"
   id="namedview12"
   showgrid="false"
   inkscape:zoom="0.84890884"
   inkscape:cx="327.86116"
   inkscape:cy="503.78033"
   inkscape:window-x="1920"
   inkscape:window-y="0"
   inkscape:window-maximized="1"
   inkscape:current-layer="svg10"
   showguides="true"
   inkscape:guide-bbox="true"
   inkscape:document-rotation="0"><sodipodi:guide
     position="0,1000"
     orientation="0,1"
     id="guide16"
     inkscape:label=""
     inkscape:locked="true"
     inkscape:color="rgb(0,0,255)" /><sodipodi:guide
     position="1763.3122,2036.1693"
     orientation="1000,0"
     id="guide18" /><sodipodi:guide
     position="0,200"
     orientation="0,1"
     id="guide20"
     inkscape:label="base"
     inkscape:locked="true"
     inkscape:color="rgb(0,0,255)" /><inkscape:grid
     type="xygrid"
     id="grid24"
     originx="-473.37552"
     originy="-489.69235" /><sodipodi:guide
     position="0,0"
     orientation="0,1"
     id="guide34"
     inkscape:label="bottom"
     inkscape:locked="true"
     inkscape:color="rgb(0,0,255)" /><sodipodi:guide
     position="225.05109,1693.3186"
     orientation="0,1"
     id="guide44"
     inkscape:label=""
     inkscape:locked="false"
     inkscape:color="rgb(0,0,255)" /><sodipodi:guide
     position="0,900"
     orientation="0,1"
     id="guide46"
     inkscape:label=""
     inkscape:locked="true"
     inkscape:color="rgb(0,0,255)" /><sodipodi:guide
     position="481.44927,562.23075"
     orientation="1,0"
     id="guide841" /></sodipodi:namedview>
 <defs
   id="defs4"><inkscape:path-effect
   effect="spiro"
   id="path-effect844"
   is_visible="true"
   lpeversion="1" />
  <style
   type="text/css"
   id="style2">
   <![CDATA[
    .fil0 {fill:#EF7F1A;fill-rule:nonzero}
   ]]>
  </style>
 <inkscape:path-effect
   effect="spiro"
   id="path-effect1214"
   is_visible="true"
   lpeversion="1" /><inkscape:path-effect
   effect="spiro"
   id="path-effect1195"
   is_visible="true"
   lpeversion="1" /><inkscape:path-effect
   effect="spiro"
   id="path-effect992"
   is_visible="true"
   lpeversion="1" /></defs>
 
<path
   style="fill:#2d2d2d;stroke:#000000;stroke-width:0.895896px;stroke-linecap:butt;stroke-linejoin:miter;stroke-opacity:1"
   d="M 154.66731,800 H 36.49969 C 48.749462,723.55888 52.148385,645.70309 46.606849,568.48526 43.10125,519.63694 36.036223,471.07562 33.346374,422.1756 30.656524,373.27558 32.45518,323.52776 46.309308,276.55425 61.260432,225.86129 90.693785,178.99881 132.14601,146.21123 173.59824,113.42365 227.23974,95.423821 279.89305,100 c 33.77535,2.93547 66.82369,15.0887 93.92115,35.46316 27.09746,20.37445 48.07089,48.99581 58.48838,81.25828 11.30363,35.00679 9.95037,73.79477 -2.84661,108.28368 -7.42664,20.0154 -18.66577,38.70928 -33.55361,54.01037 -14.88785,15.30109 -33.47076,27.14055 -53.91831,33.27807 -11.94772,3.58622 -24.60029,5.29096 -35.67473,11.03254 -5.53721,2.87079 -10.62996,6.77911 -14.23756,11.86707 -3.6076,5.08797 -5.64,11.42343 -4.93131,17.6202 0.46831,4.09489 2.11366,8.02504 4.55629,11.34483 2.44262,3.31979 5.66667,6.03612 9.26548,8.04509 7.19763,4.01794 15.72211,5.15762 23.9473,4.61352 16.45037,-1.0882 31.92447,-8.50456 48.3306,-10.12869 13.48483,-1.33494 27.2556,1.35771 39.54486,7.06705 12.28927,5.70934 23.11339,14.37241 31.91009,24.67972 17.59341,20.61462 26.82781,47.24344 31.15283,73.99759 4.93175,30.50733 3.89729,62.06818 -3.98432,91.94961 -7.8816,29.88142 -22.68086,58.03302 -43.56222,80.81432 -22.04749,24.05354 -51.03505,42.00724 -82.82568,49.35709 -31.79063,7.34984 -66.28581,3.76506 -95.13383,-11.48146 -27.78937,-14.68701 -49.76539,-40.04419 -60.35326,-69.63903 L 250.18997,602.4888 c 12.74362,34.45966 39.23442,63.61617 72.31815,79.59537 15.16593,7.32503 31.95528,11.99072 48.76282,10.90991 8.40376,-0.54041 16.74319,-2.52712 24.35015,-6.13952 7.60697,-3.6124 14.4679,-8.87031 19.67711,-15.48692 6.25701,-7.9475 10.02519,-17.7499 11.16104,-27.80091 1.13585,-10.05101 -0.31442,-20.33085 -3.75165,-29.84391 -6.87446,-19.02613 -21.42503,-34.55493 -38.22303,-45.82786 -29.50055,-19.79745 -65.47568,-27.42293 -96.77099,-44.24033 -15.64766,-8.40869 -30.28758,-19.33595 -40.56629,-33.824 -10.27871,-14.48804 -15.8453,-32.85517 -12.60649,-50.32129 2.61651,-14.1102 10.75182,-26.78184 21.0788,-36.74664 10.32699,-9.9648 22.78557,-17.4447 35.54389,-24.01503 12.75831,-6.57033 25.93882,-12.32487 38.45296,-19.34912 12.51415,-7.02424 24.46744,-15.43381 33.66287,-26.45143 12.06004,-14.44991 18.89069,-33.22989 18.65643,-52.04982 -0.23427,-18.81992 -7.58969,-37.51243 -20.4449,-51.25972 -14.20455,-15.19026 -34.56511,-23.93592 -55.27084,-25.88176 -20.70572,-1.94584 -41.70067,2.57846 -60.74845,10.92684 -25.37141,11.11995 -47.52867,28.9165 -65.47223,50.02077 -17.94357,21.10427 -31.79085,45.46862 -42.69035,70.93552 -40.192895,93.91151 -39.999894,200.17834 -27.85918,301.60538 4.12118,34.42955 9.57264,68.85116 19.89676,101.95389 6.54595,20.98859 15.03415,41.37098 25.32076,60.80178 z"
   id="path842"
   inkscape:path-effect="#path-effect844"
   inkscape:original-d="M 154.66731,800 H 36.49969 c 0,0 8.461382,-154.25629 10.107159,-231.51474 C 48.679049,471.2091 8.0369196,361.38098 46.309308,276.55425 90.934791,177.64656 188.82423,99.668643 279.89305,100 c 59.63321,0.21698 124.16293,51.2873 152.40953,116.72144 13.72984,31.8056 10.12835,75.98989 -2.84661,108.28368 -16.72192,41.61973 -56.24275,60.42818 -87.47192,87.28844 -17.23231,14.82154 -60.20822,18.43245 -54.8436,40.51981 6.86114,28.24886 60.31611,0.44785 86.09967,13.87475 43.56188,22.68502 90.41421,58.16743 102.60778,105.74436 14.82878,57.85904 -10.32625,133.31987 -47.54654,172.76393 -45.83965,48.5784 -120.45701,57.15518 -177.95951,37.87563 -29.12416,-9.7648 -60.35326,-69.63903 -60.35326,-69.63903 L 250.18997,602.4888 c 20.56418,31.8184 41.74144,67.15805 72.31815,79.59537 29.52879,12.01107 80.60051,24.88022 92.79008,-10.71653 C 428.0784,634.0461 402.63461,596.91263 384.48456,567.89496 347.2063,508.29575 233.99243,505.30641 234.54079,439.50934 c 0.46425,-55.70475 104.88315,-49.66849 128.73852,-106.56222 12.80099,-30.52966 16.94744,-77.98126 -1.78847,-103.30954 -26.34878,-35.61981 -79.47786,-28.56309 -116.01929,-14.95492 -50.68727,18.87614 -86.55982,71.36972 -108.16258,120.95629 -40.324711,92.56061 -32.93668,200.77003 -27.85918,301.60538 1.74135,34.58192 9.87381,68.81053 19.89676,101.95389 C 135.70162,760.21281 154.66731,800 154.66731,800 Z"
   sodipodi:nodetypes="ccaaaaaaaaaaaccasaaaaaaaac" /></svg>
