<?xml version="1.0" encoding="UTF-8" standalone="no"?>
<svg
   xmlns:dc="http://purl.org/dc/elements/1.1/"
   xmlns:cc="http://creativecommons.org/ns#"
   xmlns:rdf="http://www.w3.org/1999/02/22-rdf-syntax-ns#"
   xmlns:svg="http://www.w3.org/2000/svg"
   xmlns="http://www.w3.org/2000/svg"
   xmlns:sodipodi="http://sodipodi.sourceforge.net/DTD/sodipodi-0.dtd"
   xmlns:inkscape="http://www.inkscape.org/namespaces/inkscape"
   xml:space="preserve"
   width="1000"
   height="1000"
   version="1.1"
   style="clip-rule:evenodd;fill-rule:evenodd;image-rendering:optimizeQuality;shape-rendering:geometricPrecision;text-rendering:geometricPrecision"
   viewBox="0 0 1000 1000"
   id="svg10"
   sodipodi:docname="ഭ.svg"
   inkscape:version="1.0.1 (3bc2e813f5, 2020-09-07)"><metadata
   id="metadata14"><rdf:RDF><cc:Work
       rdf:about=""><dc:format>image/svg+xml</dc:format><dc:type
         rdf:resource="http://purl.org/dc/dcmitype/StillImage" /><dc:title /></cc:Work></rdf:RDF></metadata><sodipodi:namedview
   pagecolor="#ffffff"
   bordercolor="#666666"
   borderopacity="1"
   objecttolerance="10"
   gridtolerance="10"
   guidetolerance="10"
   inkscape:pageopacity="0"
   inkscape:pageshadow="2"
   inkscape:window-width="1920"
   inkscape:window-height="1015"
   id="namedview12"
   showgrid="false"
   inkscape:zoom="0.84890884"
   inkscape:cx="327.86116"
   inkscape:cy="503.78033"
   inkscape:window-x="1920"
   inkscape:window-y="0"
   inkscape:window-maximized="1"
   inkscape:current-layer="svg10"
   showguides="true"
   inkscape:guide-bbox="true"
   inkscape:document-rotation="0"><sodipodi:guide
     position="0,1000"
     orientation="0,1"
     id="guide16"
     inkscape:label=""
     inkscape:locked="true"
     inkscape:color="rgb(0,0,255)" /><sodipodi:guide
     position="1763.3122,2036.1693"
     orientation="1000,0"
     id="guide18" /><sodipodi:guide
     position="0,200"
     orientation="0,1"
     id="guide20"
     inkscape:label="base"
     inkscape:locked="true"
     inkscape:color="rgb(0,0,255)" /><inkscape:grid
     type="xygrid"
     id="grid24"
     originx="-473.37552"
     originy="-489.69235" /><sodipodi:guide
     position="0,0"
     orientation="0,1"
     id="guide34"
     inkscape:label="bottom"
     inkscape:locked="true"
     inkscape:color="rgb(0,0,255)" /><sodipodi:guide
     position="225.05109,1693.3186"
     orientation="0,1"
     id="guide44"
     inkscape:label=""
     inkscape:locked="false"
     inkscape:color="rgb(0,0,255)" /><sodipodi:guide
     position="0,900"
     orientation="0,1"
     id="guide46"
     inkscape:label=""
     inkscape:locked="true"
     inkscape:color="rgb(0,0,255)" /><sodipodi:guide
     position="474.16482,558.78257"
     orientation="1,0"
     id="guide841" /></sodipodi:namedview>
 <defs
   id="defs4"><inkscape:path-effect
   effect="spiro"
   id="path-effect844"
   is_visible="true"
   lpeversion="1" />
  <style
   type="text/css"
   id="style2">
   <![CDATA[
    .fil0 {fill:#EF7F1A;fill-rule:nonzero}
   ]]>
  </style>
 <inkscape:path-effect
   effect="spiro"
   id="path-effect1214"
   is_visible="true"
   lpeversion="1" /><inkscape:path-effect
   effect="spiro"
   id="path-effect1195"
   is_visible="true"
   lpeversion="1" /><inkscape:path-effect
   effect="spiro"
   id="path-effect992"
   is_visible="true"
   lpeversion="1" /></defs>
 
<path
   style="fill:#2d2d2d;stroke:#000000;stroke-width:0.895896px;stroke-linecap:butt;stroke-linejoin:miter;stroke-opacity:1"
   d="M 149.75113,800 H 0 C 18.409877,728.73537 26.837685,654.89963 24.960785,581.31941 23.657567,530.22928 17.42267,479.37947 15.38923,428.3132 13.355789,377.24692 15.651942,325.32071 30.940259,276.55425 48.929057,219.17384 85.642345,167.0792 136.18104,134.49164 186.71973,101.90408 251.152,90.050649 308.93648,106.69586 c 26.04975,7.50381 50.66931,20.69673 70.09285,39.60764 19.42354,18.91091 33.45273,43.67695 37.9042,70.41794 5.68111,34.12768 -4.27297,69.154 -19.40049,100.26881 -16.7388,34.42897 -40.75721,66.45464 -73.7494,85.87259 -10.11582,5.95378 -21.08707,10.75178 -29.78054,18.63853 -4.34673,3.94338 -8.07553,8.66401 -10.32672,14.08402 -2.25119,5.42 -2.95364,11.57478 -1.37705,17.22798 1.77628,6.36926 6.30089,11.70117 11.62965,15.61615 5.32875,3.91497 11.46269,6.56622 17.57397,9.09106 27.78841,11.48063 56.44641,21.09318 82.97514,35.24334 26.52874,14.15015 51.27571,33.45457 66.00076,59.66856 16.26707,28.95914 18.83672,64.60268 9.95428,96.60817 -8.88244,32.0055 -28.59011,60.4181 -53.34624,82.5627 -24.45523,21.87544 -54.29931,38.13759 -86.48797,44.50024 -32.18866,6.36265 -66.70007,2.4564 -95.62612,-13.03155 -27.69126,-14.8268 -49.61307,-40.12144 -60.35326,-69.63903 L 234.82092,602.4888 c 12.73096,34.4663 39.2266,63.62814 72.31815,79.59537 15.16602,7.31786 31.95406,11.97397 48.75841,10.89083 8.40218,-0.54158 16.73979,-2.52753 24.34664,-6.13662 7.60686,-3.6091 14.46947,-8.86106 19.68503,-15.47074 6.26967,-7.94555 10.05363,-17.74863 11.20276,-27.80447 1.14913,-10.05585 -0.29076,-20.34447 -3.72491,-29.86534 -6.86832,-19.04175 -21.44464,-34.58032 -38.29149,-45.80287 -29.6599,-19.75797 -65.85595,-27.08914 -97.30406,-43.85527 -15.72406,-8.38307 -30.42658,-19.35453 -40.65319,-33.94693 -10.22661,-14.5924 -15.6,-33.13451 -11.98652,-50.58342 2.50301,-12.08663 9.11653,-23.03706 17.38093,-32.20501 8.26441,-9.16795 18.16149,-16.70288 28.22018,-23.85651 10.05869,-7.15364 20.36842,-14.00415 29.7319,-22.04634 9.36349,-8.04219 17.82994,-17.39051 23.30195,-28.45436 5.99655,-12.12443 8.16907,-26.04737 6.53288,-39.47433 -1.63618,-13.42697 -7.02956,-26.32691 -15.12926,-37.15998 -9.18606,-12.28604 -21.80187,-21.89879 -35.89259,-27.96362 -14.09072,-6.06482 -29.61623,-8.61766 -44.93964,-7.89413 -27.5772,1.30212 -54.12062,13.20157 -75.19564,31.03528 -21.07501,17.8337 -36.89495,41.34849 -47.95861,66.64262 -20.257763,46.31399 -24.874953,98.24526 -21.110358,148.65548 3.764595,50.41022 15.566261,99.82538 27.031618,149.05858 8.67619,37.25628 17.18341,74.55585 24.86839,112.02915 4.91683,23.97533 9.49665,48.01977 13.73764,72.12383 z"
   id="path842"
   inkscape:path-effect="#path-effect844"
   inkscape:original-d="M 149.75113,800 H 0 C 0,800 20.075668,654.52343 24.960785,581.31941 31.72633,479.93696 -7.3321317,361.38098 30.940259,276.55425 75.565742,177.64656 201.16448,93.360254 308.93648,106.69586 c 51.00168,6.3109 93.17943,60.81748 107.99705,110.02558 9.81567,32.59701 -4.58205,69.62038 -19.40049,100.26881 -16.42414,33.96944 -49.40363,57.04624 -73.7494,85.87259 -13.96521,16.53535 -43.38155,28.39026 -41.48431,49.95053 1.11773,12.70194 18.936,17.14648 29.20362,24.70721 47.41277,34.91315 126.97368,40.29687 148.9759,94.9119 22.96247,56.99862 1.48033,137.18759 -43.39196,179.17087 -44.98489,42.08861 -124.09413,52.17557 -182.11409,31.46869 -28.9303,-10.325 -60.35326,-69.63903 -60.35326,-69.63903 L 234.82092,602.4888 c 20.56418,31.8184 41.74144,67.15805 72.31815,79.59537 29.52879,12.01107 75.64401,15.27268 92.79008,-10.71653 19.8181,-30.03935 -12.66359,-74.45501 -30.81364,-103.47268 -37.27826,-59.59921 -146.13236,-62.69674 -149.94377,-128.38562 -2.80365,-48.32025 83.52258,-60.58045 98.63496,-106.56222 8.02585,-24.41991 6.59923,-55.90174 -8.59638,-76.63431 -17.42499,-23.77429 -51.59157,-39.57679 -80.83223,-35.85775 -51.97715,6.61083 -100.82803,50.27677 -123.15425,97.6779 -42.294325,89.79571 -5.878599,199.1603 5.92126,297.71406 4.54744,37.98077 17.14412,74.56511 24.86839,112.02915 C 140.95544,751.84551 149.75113,800 149.75113,800 Z"
   sodipodi:nodetypes="ccasaaaaaaaaaccaaaaaaaaaac" /></svg>
