<?xml version="1.0" encoding="UTF-8" standalone="no"?>
<svg
   xmlns:dc="http://purl.org/dc/elements/1.1/"
   xmlns:cc="http://creativecommons.org/ns#"
   xmlns:rdf="http://www.w3.org/1999/02/22-rdf-syntax-ns#"
   xmlns:svg="http://www.w3.org/2000/svg"
   xmlns="http://www.w3.org/2000/svg"
   xmlns:sodipodi="http://sodipodi.sourceforge.net/DTD/sodipodi-0.dtd"
   xmlns:inkscape="http://www.inkscape.org/namespaces/inkscape"
   xml:space="preserve"
   width="1000"
   height="1000"
   version="1.1"
   style="clip-rule:evenodd;fill-rule:evenodd;image-rendering:optimizeQuality;shape-rendering:geometricPrecision;text-rendering:geometricPrecision"
   viewBox="0 0 1000 1000"
   id="svg10"
   sodipodi:docname="ഭു.svg"
   inkscape:version="1.0.1 (3bc2e813f5, 2020-09-07)"><metadata
   id="metadata14"><rdf:RDF><cc:Work
       rdf:about=""><dc:format>image/svg+xml</dc:format><dc:type
         rdf:resource="http://purl.org/dc/dcmitype/StillImage" /><dc:title /></cc:Work></rdf:RDF></metadata><sodipodi:namedview
   pagecolor="#ffffff"
   bordercolor="#666666"
   borderopacity="1"
   objecttolerance="10"
   gridtolerance="10"
   guidetolerance="10"
   inkscape:pageopacity="0"
   inkscape:pageshadow="2"
   inkscape:window-width="1920"
   inkscape:window-height="1015"
   id="namedview12"
   showgrid="false"
   inkscape:zoom="0.84890884"
   inkscape:cx="327.86116"
   inkscape:cy="692.25758"
   inkscape:window-x="1920"
   inkscape:window-y="0"
   inkscape:window-maximized="1"
   inkscape:current-layer="svg10"
   showguides="true"
   inkscape:guide-bbox="true"
   inkscape:document-rotation="0"><sodipodi:guide
     position="0,1000"
     orientation="0,1"
     id="guide16"
     inkscape:label=""
     inkscape:locked="true"
     inkscape:color="rgb(0,0,255)" /><sodipodi:guide
     position="1763.3122,2036.1693"
     orientation="1000,0"
     id="guide18" /><sodipodi:guide
     position="0,200"
     orientation="0,1"
     id="guide20"
     inkscape:label="base"
     inkscape:locked="true"
     inkscape:color="rgb(0,0,255)" /><inkscape:grid
     type="xygrid"
     id="grid24"
     originx="-473.37552"
     originy="-489.69235" /><sodipodi:guide
     position="0,0"
     orientation="0,1"
     id="guide34"
     inkscape:label="bottom"
     inkscape:locked="true"
     inkscape:color="rgb(0,0,255)" /><sodipodi:guide
     position="225.05109,1693.3186"
     orientation="0,1"
     id="guide44"
     inkscape:label=""
     inkscape:locked="false"
     inkscape:color="rgb(0,0,255)" /><sodipodi:guide
     position="0,900"
     orientation="0,1"
     id="guide46"
     inkscape:label=""
     inkscape:locked="true"
     inkscape:color="rgb(0,0,255)" /><sodipodi:guide
     position="553.57972,538.99927"
     orientation="1,0"
     id="guide841" /></sodipodi:namedview>
 <defs
   id="defs4"><inkscape:path-effect
   effect="spiro"
   id="path-effect844"
   is_visible="true"
   lpeversion="1" />
  <style
   type="text/css"
   id="style2">
   <![CDATA[
    .fil0 {fill:#EF7F1A;fill-rule:nonzero}
   ]]>
  </style>
 <inkscape:path-effect
   effect="spiro"
   id="path-effect1214"
   is_visible="true"
   lpeversion="1" /><inkscape:path-effect
   effect="spiro"
   id="path-effect1195"
   is_visible="true"
   lpeversion="1" /><inkscape:path-effect
   effect="spiro"
   id="path-effect992"
   is_visible="true"
   lpeversion="1" /></defs>
 
<path
   style="fill:#2d2d2d;stroke:#000000;stroke-width:0.895896px;stroke-linecap:butt;stroke-linejoin:miter;stroke-opacity:1"
   d="M 149.75113,800 H 0 C 18.696534,728.79578 27.130583,654.90537 24.960785,581.31941 23.453551,530.20347 16.869549,479.35607 14.71384,428.26338 12.55813,377.17068 14.977298,325.13711 30.940259,276.55425 54.293824,205.47827 107.43577,144.55092 175.0455,112.51799 c 67.60972,-32.032923 148.78639,-34.488112 217.89098,-5.82213 24.57017,10.1922 47.7317,24.22685 66.82385,42.74884 19.09215,18.52198 34.01264,41.65838 41.1732,67.27674 9.29472,33.25377 5.11686,69.38457 -7.61606,101.4794 -8.54801,21.54627 -20.98164,41.72471 -37.59893,57.88565 -16.61729,16.16093 -37.53176,28.18235 -60.24563,32.80733 -15.13187,3.08114 -31.0214,2.94073 -45.45739,8.42428 -7.21799,2.74177 -14.01649,6.95238 -18.88821,12.94263 -4.87171,5.99026 -7.65857,13.8821 -6.59518,21.52971 0.95949,6.90033 4.98325,13.17311 10.37709,17.58238 5.39384,4.40927 12.07347,7.05677 18.91246,8.38471 13.67798,2.65588 27.75578,0.23373 41.68127,-0.23695 31.17367,-1.05366 62.51143,8.00258 88.69424,24.95451 26.18282,16.95194 47.16564,41.6576 60.28166,69.95739 14.23211,30.70793 19.20942,65.53824 14.79158,99.09434 -4.41784,33.55611 -18.14118,65.75539 -38.773,92.58555 -37.18141,48.35167 -94.14754,77.23273 -151.31915,98.4871 -41.81528,15.54543 -84.82334,27.88127 -128.5212,36.86323 47.60268,9.4168 96.49288,12.3021 144.87274,8.54981 63.48349,-4.92371 126.0595,-21.32414 183.79718,-48.17106 L 553.57972,1000 c -30.99069,13.1074 -64.77128,19.5732 -98.41181,18.8366 -47.81168,-1.047 -93.99398,-16.3165 -139.75411,-30.21119 -45.76013,-13.89474 -93.11818,-26.67929 -140.76413,-22.56636 -34.17193,2.94982 -67.5421,14.75149 -95.970731,33.94095 l -2.35451,-164.19849 c 32.119241,6.94241 65.175651,9.53546 97.984541,7.68621 58.92679,-3.32136 116.29848,-20.86638 170.52842,-44.15824 29.97883,-12.87596 59.47552,-27.72091 84.63624,-48.49248 25.16073,-20.77157 45.89958,-47.98418 54.45552,-79.46936 5.02037,-18.47456 5.70952,-38.28483 0.6732,-56.75505 -5.03633,-18.47021 -15.97521,-35.49699 -31.48684,-46.71763 -19.74095,-14.28 -45.06661,-18.30895 -69.41809,-19.10198 -24.35149,-0.79302 -48.92611,1.21026 -72.95969,-2.79107 -25.65782,-4.27174 -50.54671,-15.78801 -68.25884,-34.83669 -8.85606,-9.52433 -15.83473,-20.84341 -19.98528,-33.16882 -4.15056,-12.32541 -5.43647,-25.65463 -3.32187,-38.48706 3.50213,-21.25269 16.30496,-40.39452 33.28944,-53.64099 16.98448,-13.24648 37.89509,-20.8837 59.19327,-24.09767 16.09126,-2.42823 32.51466,-2.44359 48.47472,-5.62187 7.98003,-1.58915 15.84649,-3.98255 23.06504,-7.73739 7.21855,-3.75484 13.78635,-8.91338 18.61249,-15.4643 8.20261,-11.13407 10.86203,-25.79547 8.74526,-39.46184 -2.11677,-13.66637 -8.70501,-26.3716 -17.34164,-37.17247 -18.67539,-23.35523 -46.88132,-38.11731 -76.31785,-43.38301 -29.43653,-5.26571 -60.01172,-1.52103 -88.51438,7.52526 -51.16754,16.23976 -97.29341,50.63469 -123.15425,97.6779 -24.523058,44.60966 -29.804466,97.65764 -25.087529,148.34445 4.716936,50.68681 18.79827,99.94992 31.008789,149.36961 9.17606,37.13829 17.3243,74.52529 24.86839,112.02915 4.82637,23.99332 9.40591,48.03629 13.73764,72.12383 z"
   id="path842"
   inkscape:path-effect="#path-effect844"
   inkscape:original-d="M 149.75113,800 H 0 C 0,800 20.075668,654.52343 24.960785,581.31941 31.72633,479.93696 -24.389543,361.77623 30.940259,276.55425 103.52163,164.76047 261.75337,83.097209 392.93648,106.69586 c 50.57878,9.09866 90.34672,61.76105 107.99705,110.02558 11.65051,31.85813 7.1115,70.92169 -7.61606,101.4794 -19.3076,40.06068 -62.32596,63.93348 -97.84456,90.69298 -22.07114,16.62827 -73.64523,15.39533 -70.94078,42.89662 2.4627,25.04288 48.3953,14.61453 70.97082,25.73014 52.82435,26.00936 123.9209,41.62827 148.9759,94.9119 27.40008,58.27083 10.1756,137.09461 -23.98142,191.67989 -31.92425,51.01718 -96.56923,73.49998 -151.31915,98.4871 -40.54486,18.50413 -112.12393,17.62277 -128.5212,36.86323 -10.85857,4.40973 96.73318,13.31607 144.87274,8.54981 63.02679,-6.24024 130.54994,-49.81659 183.79718,-48.17106 L 553.57972,1000 c -14.07846,11.9985 -65.01242,18.784 -98.41181,18.8366 -95.14652,0.1498 -185.65338,-60.09481 -280.51824,-52.77755 C 140.81826,968.66858 78.678939,1000 78.678939,1000 l -2.35451,-164.19849 c 9.87308,15.27635 65.348171,10.55086 97.984541,7.68621 58.49278,-5.1342 118.95846,-16.08148 170.52842,-44.15824 55.3308,-30.12431 122.36006,-67.22452 139.09176,-127.96184 9.55776,-34.69537 -3.68601,-79.82504 -30.81364,-103.47268 -36.19533,-31.55211 -100.39162,1.40502 -142.37778,-21.89305 -40.93529,-22.71493 -90.97273,-61.31946 -91.56599,-106.49257 -0.5266,-40.09725 44.35803,-66.19544 92.48271,-77.73866 36.462,-8.7458 76.51563,-1.67317 90.15225,-28.82356 11.53718,-22.97041 8.62484,-57.55092 -8.59638,-76.63431 -37.67106,-41.74454 -110.06042,-48.57644 -164.83223,-35.85775 -51.03789,11.85163 -100.82803,50.27677 -123.15425,97.6779 -42.294325,89.79571 -5.878599,199.1603 5.92126,297.71406 4.54744,37.98077 17.14412,74.56511 24.86839,112.02915 C 140.95544,751.84551 149.75113,800 149.75113,800 Z"
   sodipodi:nodetypes="ccaaaaaaaaaaacaccaaccaaaaasssaaaaac" /></svg>
