<?xml version="1.0" encoding="UTF-8"?>
<!DOCTYPE svg PUBLIC "-//W3C//DTD SVG 1.1//EN" "http://www.w3.org/Graphics/SVG/1.1/DTD/svg11.dtd">
<!-- Creator: CorelDRAW X8 -->
<svg xmlns="http://www.w3.org/2000/svg" xml:space="preserve" width="1469px" height="1486px" version="1.1" style="shape-rendering:geometricPrecision; text-rendering:geometricPrecision; image-rendering:optimizeQuality; fill-rule:evenodd; clip-rule:evenodd"
viewBox="0 0 1469 1486"
 xmlns:xlink="http://www.w3.org/1999/xlink">
 <defs>
  <style type="text/css">
   <![CDATA[
    .fil0 {fill:#EF7F1A;fill-rule:nonzero}
   ]]>
  </style>
 </defs>
 <g id="Layer_x0020_1">
  <metadata id="CorelCorpID_0Corel-Layer"/>
  <path class="fil0" d="M600 1023c15,0 29,-2 43,-5 26,-7 60,-26 60,-51 0,-7 -3,-15 -10,-23 -85,-103 -129,-244 -129,-376 0,-255 127,-458 399,-458 101,0 300,46 299,164 0,38 -12,63 -57,63 -66,0 -138,-28 -211,-28 -45,-1 -89,7 -131,32 -66,39 -93,104 -93,179 0,76 39,142 105,179 39,22 86,33 136,33 56,0 106,-16 156,-16 50,0 101,26 101,82 0,71 -60,89 -120,89l-246 0c-32,0 -101,14 -101,56 0,42 69,56 101,56l254 0c72,0 124,48 124,121 0,79 -48,144 -114,186 -83,53 -214,74 -312,74 -226,0 -404,-104 -526,-294 -87,-135 -124,-292 -124,-452 0,-206 65,-427 254,-540 19,-11 27,-24 27,-38 0,-15 -11,-30 -32,-41 -19,-10 -44,-15 -68,-15 -27,0 -55,6 -75,19 -218,129 -311,373 -310,615 0,194 58,388 177,543 161,208 417,312 677,309 142,-1 292,-15 419,-82 112,-58 196,-160 196,-289 0,-70 -34,-134 -93,-172 60,-34 92,-78 91,-147 0,-124 -107,-203 -225,-203 -61,0 -121,18 -182,18 -56,0 -104,-27 -104,-91 0,-54 32,-84 85,-84 63,0 127,24 193,24 117,0 217,-56 217,-186 0,-232 -304,-275 -488,-275 -349,0 -601,222 -602,569 0,147 48,298 141,414 24,29 61,41 98,41z"/>
 </g>
</svg>
