<?xml version="1.0" encoding="UTF-8" standalone="no"?>
<svg
   xmlns:dc="http://purl.org/dc/elements/1.1/"
   xmlns:cc="http://creativecommons.org/ns#"
   xmlns:rdf="http://www.w3.org/1999/02/22-rdf-syntax-ns#"
   xmlns:svg="http://www.w3.org/2000/svg"
   xmlns="http://www.w3.org/2000/svg"
   xmlns:sodipodi="http://sodipodi.sourceforge.net/DTD/sodipodi-0.dtd"
   xmlns:inkscape="http://www.inkscape.org/namespaces/inkscape"
   xml:space="preserve"
   width="1000"
   height="1000"
   version="1.1"
   style="clip-rule:evenodd;fill-rule:evenodd;image-rendering:optimizeQuality;shape-rendering:geometricPrecision;text-rendering:geometricPrecision"
   viewBox="0 0 1000 1000"
   id="svg10"
   sodipodi:docname="ഭ്ര.svg"
   inkscape:version="1.0.1 (3bc2e813f5, 2020-09-07)"><metadata
   id="metadata14"><rdf:RDF><cc:Work
       rdf:about=""><dc:format>image/svg+xml</dc:format><dc:type
         rdf:resource="http://purl.org/dc/dcmitype/StillImage" /><dc:title /></cc:Work></rdf:RDF></metadata><sodipodi:namedview
   pagecolor="#ffffff"
   bordercolor="#666666"
   borderopacity="1"
   objecttolerance="10"
   gridtolerance="10"
   guidetolerance="10"
   inkscape:pageopacity="0"
   inkscape:pageshadow="2"
   inkscape:window-width="1920"
   inkscape:window-height="1015"
   id="namedview12"
   showgrid="false"
   inkscape:zoom="0.84890884"
   inkscape:cx="327.86116"
   inkscape:cy="503.78033"
   inkscape:window-x="1920"
   inkscape:window-y="0"
   inkscape:window-maximized="1"
   inkscape:current-layer="svg10"
   showguides="true"
   inkscape:guide-bbox="true"
   inkscape:document-rotation="0"><sodipodi:guide
     position="0,1000"
     orientation="0,1"
     id="guide16"
     inkscape:label=""
     inkscape:locked="true"
     inkscape:color="rgb(0,0,255)" /><sodipodi:guide
     position="1763.3122,2036.1693"
     orientation="1000,0"
     id="guide18" /><sodipodi:guide
     position="0,200"
     orientation="0,1"
     id="guide20"
     inkscape:label="base"
     inkscape:locked="true"
     inkscape:color="rgb(0,0,255)" /><inkscape:grid
     type="xygrid"
     id="grid24"
     originx="-473.37552"
     originy="-489.69235" /><sodipodi:guide
     position="0,0"
     orientation="0,1"
     id="guide34"
     inkscape:label="bottom"
     inkscape:locked="true"
     inkscape:color="rgb(0,0,255)" /><sodipodi:guide
     position="225.05109,1693.3186"
     orientation="0,1"
     id="guide44"
     inkscape:label=""
     inkscape:locked="false"
     inkscape:color="rgb(0,0,255)" /><sodipodi:guide
     position="0,900"
     orientation="0,1"
     id="guide46"
     inkscape:label=""
     inkscape:locked="true"
     inkscape:color="rgb(0,0,255)" /><sodipodi:guide
     position="553.57972,538.99927"
     orientation="1,0"
     id="guide841" /></sodipodi:namedview>
 <defs
   id="defs4"><inkscape:path-effect
   effect="spiro"
   id="path-effect844"
   is_visible="true"
   lpeversion="1" />
  <style
   type="text/css"
   id="style2">
   <![CDATA[
    .fil0 {fill:#EF7F1A;fill-rule:nonzero}
   ]]>
  </style>
 <inkscape:path-effect
   effect="spiro"
   id="path-effect1214"
   is_visible="true"
   lpeversion="1" /><inkscape:path-effect
   effect="spiro"
   id="path-effect1195"
   is_visible="true"
   lpeversion="1" /><inkscape:path-effect
   effect="spiro"
   id="path-effect992"
   is_visible="true"
   lpeversion="1" /></defs>
 
<path
   style="fill:#2d2d2d;stroke:#000000;stroke-width:0.895896px;stroke-linecap:butt;stroke-linejoin:miter;stroke-opacity:1"
   d="m 272.02667,777.09203 -138.80188,0.82366 C 109.54836,718.27083 90.512434,656.78456 76.345683,594.19554 53.563455,493.54314 44.021224,385.25701 82.325157,289.43038 109.8142,220.65984 162.22413,161.52744 228.78106,129.04345 c 66.55693,-32.483987 146.85135,-37.163708 215.54032,-9.47146 24.69328,9.9552 47.91733,23.98899 66.99218,42.56355 19.07486,18.57456 33.8969,41.80387 41.00487,67.46203 9.2165,33.26948 5.09087,69.38056 -7.61606,101.4794 -8.53275,21.55449 -20.96522,41.73839 -37.58563,57.89902 -16.62041,16.16062 -37.54161,28.17581 -60.25893,32.79396 -15.13498,3.07675 -31.02716,2.93174 -45.46543,8.41538 -7.21913,2.74182 -14.01851,6.95374 -18.88935,12.9461 -4.87084,5.99237 -7.65475,13.88718 -6.586,21.53514 0.96395,6.89799 4.99122,13.16627 10.38646,17.57114 5.39523,4.40487 12.07428,7.04824 18.91191,8.37425 13.67525,2.65203 27.74969,0.23467 41.67245,-0.21525 31.14615,-1.00649 62.42106,8.1595 88.55359,25.13555 26.13253,16.97606 47.09282,41.60863 60.42231,69.77635 15.01844,31.73678 20.36158,67.66146 17.46522,102.65271 -2.89637,34.99125 -13.83969,69.06749 -29.8546,100.31328 C 539.33313,874.3961 455.07532,938.58328 360.58605,959.49116 288.15644,975.51785 210.10834,966.5238 144.11426,932.6463 65.150882,892.11113 5.78777,816.8147 -19.468552,731.72396 -28.12259,702.56776 -32.992395,672.29067 -33.917349,641.89131 l 86.59757,-115.24657 c -7.189626,46.11957 -4.339939,93.77781 8.294177,138.71203 19.783436,70.36134 65.168912,134.65621 128.947542,170.35478 36.0609,20.18423 77.30378,30.95863 118.62835,31.22611 52.86387,0.34217 105.97527,-16.8558 147.51375,-49.55535 41.53849,-32.69955 70.94926,-80.92931 79.25001,-133.13854 2.96593,-18.65482 3.27997,-37.95139 -1.3715,-56.25885 -4.65148,-18.30746 -14.54132,-35.60501 -29.44214,-47.21383 -9.63363,-7.50529 -21.08546,-12.46445 -32.92216,-15.46927 -11.83669,-3.00481 -24.08241,-4.1114 -36.29027,-4.43426 -24.41574,-0.64572 -49.03524,1.78974 -73.16535,-1.98952 -25.73998,-4.0314 -50.72832,-15.54683 -68.43931,-34.65493 -8.85549,-9.55406 -15.81153,-20.91558 -19.92659,-33.27544 -4.11506,-12.35985 -5.35362,-25.71455 -3.20009,-38.5622 3.55946,-21.23518 16.35809,-40.35387 33.32968,-53.60408 16.97159,-13.2502 37.86422,-20.9113 59.15303,-24.13458 16.09028,-2.43618 32.51431,-2.44849 48.47526,-5.62341 7.98048,-1.58746 15.84768,-3.97915 23.0666,-7.7335 7.21893,-3.75434 13.78674,-8.91375 18.61039,-15.46665 8.19645,-11.13482 10.84387,-25.79506 8.72341,-39.45777 -2.12046,-13.66271 -8.70308,-26.36366 -17.31979,-37.17654 -18.65554,-23.41033 -46.82728,-38.30226 -76.28504,-43.62323 -29.45777,-5.32098 -60.09574,-1.53976 -88.54719,7.76548 -50.89651,16.64605 -95.92721,51.5668 -123.15425,97.6779 -18.97669,32.13849 -29.2084,69.09406 -31.66548,106.33597 -2.45708,37.24191 2.71076,74.77569 13.01101,110.6491 12.15587,42.33611 31.3675,82.40528 53.99874,120.19335 23.18525,38.71312 50.03511,75.23039 80.07366,108.90452 z"
   id="path842"
   inkscape:path-effect="#path-effect844"
   inkscape:original-d="m 272.02667,777.09203 -138.80188,0.82366 c 0,0 -47.91362,-120.24232 -56.879107,-183.72015 C 62.135803,493.58614 26.995355,374.65236 82.325157,289.43038 154.90653,177.6366 313.13827,95.973343 444.32138,119.57199 c 50.57878,9.09866 90.34672,61.76105 107.99705,110.02558 11.65051,31.85813 7.1115,70.92169 -7.61606,101.4794 -19.3076,40.06068 -62.32596,63.93348 -97.84456,90.69298 -22.07114,16.62827 -73.64523,15.39533 -70.94078,42.89662 2.4627,25.04288 48.3953,14.61453 70.97082,25.73014 52.82435,26.00936 122.24208,42.45047 148.9759,94.9119 30.77514,60.39197 19.41248,143.10832 -12.38938,202.96599 C 539.51823,871.00914 450.98185,934.87927 360.58605,959.49116 290.42991,978.59243 207.73302,967.85136 144.11426,932.6463 68.548451,890.83004 15.857393,810.53303 -19.468552,731.72396 -31.874177,704.0481 -33.917349,641.89131 -33.917349,641.89131 l 86.59757,-115.24657 c 4.581677,7.0891 -7.755098,95.26141 8.294177,138.71203 24.676196,66.80651 69.774622,130.72411 128.947542,170.35478 33.97402,22.75387 78.64028,39.76585 118.62835,31.22611 94.92696,-20.27233 197.93082,-90.00755 226.76376,-182.69389 10.68981,-34.36346 -3.68601,-79.82504 -30.81364,-103.47268 -36.19533,-31.55211 -100.39162,1.40502 -142.37778,-21.89305 -40.93529,-22.71493 -90.97273,-61.31946 -91.56599,-106.49257 -0.5266,-40.09725 44.35803,-66.19544 92.48271,-77.73866 36.462,-8.7458 76.51563,-1.67317 90.15225,-28.82356 11.53718,-22.97041 8.62484,-57.55092 -8.59638,-76.63431 C 406.92416,227.4444 334.5348,220.6125 279.76299,233.33119 c -51.03789,11.85163 -98.35645,51.52169 -123.15425,97.6779 -34.35768,63.95003 -30.81044,145.4149 -18.65447,216.98507 7.35469,43.30189 31.86584,82.25551 53.99874,120.19335 22.7053,38.91901 80.07366,108.90452 80.07366,108.90452 z"
   sodipodi:nodetypes="ccaaaaaaaaaaaaaccaaaaaasssaaaaac" /></svg>
