<?xml version="1.0" encoding="UTF-8" standalone="no"?>
<svg
   xmlns:dc="http://purl.org/dc/elements/1.1/"
   xmlns:cc="http://creativecommons.org/ns#"
   xmlns:rdf="http://www.w3.org/1999/02/22-rdf-syntax-ns#"
   xmlns:svg="http://www.w3.org/2000/svg"
   xmlns="http://www.w3.org/2000/svg"
   xmlns:sodipodi="http://sodipodi.sourceforge.net/DTD/sodipodi-0.dtd"
   xmlns:inkscape="http://www.inkscape.org/namespaces/inkscape"
   xml:space="preserve"
   width="1000"
   height="1000"
   version="1.1"
   style="clip-rule:evenodd;fill-rule:evenodd;image-rendering:optimizeQuality;shape-rendering:geometricPrecision;text-rendering:geometricPrecision"
   viewBox="0 0 1000 1000"
   id="svg10"
   sodipodi:docname="ഭ്ര.svg"
   inkscape:version="1.0.1 (3bc2e813f5, 2020-09-07)"><metadata
   id="metadata14"><rdf:RDF><cc:Work
       rdf:about=""><dc:format>image/svg+xml</dc:format><dc:type
         rdf:resource="http://purl.org/dc/dcmitype/StillImage" /><dc:title /></cc:Work></rdf:RDF></metadata><sodipodi:namedview
   pagecolor="#ffffff"
   bordercolor="#666666"
   borderopacity="1"
   objecttolerance="10"
   gridtolerance="10"
   guidetolerance="10"
   inkscape:pageopacity="0"
   inkscape:pageshadow="2"
   inkscape:window-width="1920"
   inkscape:window-height="1015"
   id="namedview12"
   showgrid="false"
   inkscape:zoom="0.84890884"
   inkscape:cx="327.86116"
   inkscape:cy="503.78033"
   inkscape:window-x="1920"
   inkscape:window-y="0"
   inkscape:window-maximized="1"
   inkscape:current-layer="svg10"
   showguides="true"
   inkscape:guide-bbox="true"
   inkscape:document-rotation="0"><sodipodi:guide
     position="0,1000"
     orientation="0,1"
     id="guide16"
     inkscape:label=""
     inkscape:locked="true"
     inkscape:color="rgb(0,0,255)" /><sodipodi:guide
     position="1763.3122,2036.1693"
     orientation="1000,0"
     id="guide18" /><sodipodi:guide
     position="0,200"
     orientation="0,1"
     id="guide20"
     inkscape:label="base"
     inkscape:locked="true"
     inkscape:color="rgb(0,0,255)" /><inkscape:grid
     type="xygrid"
     id="grid24"
     originx="-473.37552"
     originy="-489.69235" /><sodipodi:guide
     position="0,0"
     orientation="0,1"
     id="guide34"
     inkscape:label="bottom"
     inkscape:locked="true"
     inkscape:color="rgb(0,0,255)" /><sodipodi:guide
     position="225.05109,1693.3186"
     orientation="0,1"
     id="guide44"
     inkscape:label=""
     inkscape:locked="false"
     inkscape:color="rgb(0,0,255)" /><sodipodi:guide
     position="0,900"
     orientation="0,1"
     id="guide46"
     inkscape:label=""
     inkscape:locked="true"
     inkscape:color="rgb(0,0,255)" /><sodipodi:guide
     position="629.37584,556.06726"
     orientation="1,0"
     id="guide841" /></sodipodi:namedview>
 <defs
   id="defs4"><inkscape:path-effect
   effect="spiro"
   id="path-effect844"
   is_visible="true"
   lpeversion="1" />
  <style
   type="text/css"
   id="style2">
   <![CDATA[
    .fil0 {fill:#EF7F1A;fill-rule:nonzero}
   ]]>
  </style>
 <inkscape:path-effect
   effect="spiro"
   id="path-effect1214"
   is_visible="true"
   lpeversion="1" /><inkscape:path-effect
   effect="spiro"
   id="path-effect1195"
   is_visible="true"
   lpeversion="1" /><inkscape:path-effect
   effect="spiro"
   id="path-effect992"
   is_visible="true"
   lpeversion="1" /></defs>
 
<path
   style="fill:#2d2d2d;stroke:#000000;stroke-width:0.895896px;stroke-linecap:butt;stroke-linejoin:miter;stroke-opacity:1"
   d="M 290.70505,774.64907 182.78755,800 c 12.24999,-76.44109 15.64892,-154.29692 10.10716,-231.51474 -3.50574,-48.84833 -10.571,-97.40964 -13.26093,-146.30968 -2.68993,-48.90004 -0.89119,-98.64793 12.96339,-145.62133 14.95153,-50.69255 44.38546,-97.55426 85.83765,-130.34143 41.45219,-32.78717 95.0929,-50.787134 147.74609,-46.21282 33.77591,2.93433 66.82537,15.08619 93.92351,35.46051 27.09814,20.37432 48.07162,48.99698 58.48602,81.26093 11.29989,35.00719 9.9405,73.79194 -2.84661,108.28368 -7.42186,20.01961 -18.65278,38.72146 -33.53939,54.02694 -14.88661,15.30547 -33.47632,27.14496 -53.93253,33.2615 -11.95928,3.5759 -24.62486,5.26128 -35.70924,11.00132 -5.54219,2.87001 -10.63868,6.78238 -14.24263,11.87791 -3.60395,5.09553 -5.62408,11.44247 -4.89173,17.64058 0.48291,4.08701 2.14208,8.00473 4.595,11.30927 2.45292,3.30455 5.68371,6.00298 9.28526,7.99436 7.20312,3.98278 15.71672,5.08988 23.92861,4.53111 16.42378,-1.11755 31.89386,-8.50064 48.2908,-9.95999 13.4133,-1.1938 27.06512,1.69207 39.19228,7.54646 12.12715,5.85439 22.75281,14.60998 31.41468,24.92084 17.32376,20.6217 26.58243,46.89509 32.00082,73.27706 12.80515,62.34788 5.58972,128.49207 -19.36871,187.04381 -24.25538,56.90242 -65.34683,106.76863 -117.49911,140.03045 -52.15229,33.26182 -115.25685,49.5281 -176.86034,43.94068 C 241.7476,937.40138 178.48349,906.07511 129.67537,860.2725 80.867252,814.4699 46.118925,754.78954 25.390821,691.14634 -17.496253,559.46664 -1.0824681,416.02295 27.812671,280.58324 43.605281,206.5588 62.986848,133.30015 85.866522,61.150692 L 218.67547,114.08449 c -20.20082,19.61498 -38.3382,41.35373 -54.01647,64.74203 -48.24116,71.96447 -72.00488,157.40245 -89.259105,242.30467 -8.823925,43.41956 -16.16519,87.3528 -16.823347,131.65502 -0.658157,44.30221 5.562546,89.18848 22.967077,129.93405 23.865235,55.87066 68.556305,102.0635 122.370845,130.26058 53.81454,28.19708 116.28981,38.67548 176.7185,32.39429 42.53117,-4.42085 84.74439,-17.23609 120.01353,-41.41319 35.26914,-24.1771 63.14971,-60.32384 73.05673,-101.92066 5.74316,-24.11392 5.3617,-49.77157 -1.92153,-73.46587 -7.28322,-23.69429 -21.55283,-45.32104 -41.00928,-60.68045 -27.69553,-21.86355 -63.57723,-29.94287 -94.90706,-46.1755 -15.66492,-8.11632 -30.47939,-18.54927 -41.11112,-32.6287 -10.63174,-14.07943 -16.73535,-32.16392 -13.92559,-49.58142 2.29011,-14.19625 10.29151,-27.03483 20.57772,-37.08331 10.28621,-10.04849 22.78537,-17.54161 35.59736,-24.07085 12.812,-6.52924 26.06412,-12.19336 38.65816,-19.13369 12.59405,-6.94033 24.64144,-15.27622 33.90528,-26.27437 12.13358,-14.40514 18.98737,-33.2096 18.73802,-52.04227 -0.24935,-18.83268 -7.6488,-37.52329 -20.52649,-51.26727 -14.2198,-15.17637 -34.57063,-23.93025 -55.27561,-25.88693 -20.70499,-1.95667 -41.70623,2.55941 -60.74368,10.93201 -25.34501,11.14665 -47.43293,29.00989 -65.3386,50.12871 -17.90566,21.11882 -31.75455,45.44875 -42.82398,70.82758 -40.9143,93.80403 -43.67168,200.49583 -27.85918,301.60538 4.59468,29.37964 10.69537,58.53735 18.71878,87.17123 4.74963,16.95043 10.17151,33.71247 16.24862,50.23351 z"
   id="path842"
   inkscape:path-effect="#path-effect844"
   inkscape:original-d="M 290.70505,774.64907 182.78755,800 c 0,0 8.46138,-154.25629 10.10716,-231.51474 2.0722,-97.27616 -38.56993,-207.10428 -0.29754,-291.93101 C 237.22265,177.64656 335.11209,99.66864 426.18091,100 c 59.63321,0.21698 124.16293,51.2873 152.40953,116.72144 13.72984,31.8056 10.12835,75.98989 -2.84661,108.28368 -16.72192,41.61973 -56.24275,60.42818 -87.47192,87.28844 -17.23231,14.82154 -60.20822,18.43245 -54.8436,40.51981 6.86114,28.24886 60.31611,0.44785 86.09967,13.87475 43.56188,22.68502 86.52626,59.33712 102.60778,105.74436 20.52364,59.22608 13.80423,133.86013 -19.36871,187.04381 C 541.53127,857.65101 423.69929,953.24138 308.4076,943.44742 182.478,932.74977 76.741038,806.62733 25.390821,691.14634 -30.214869,566.09524 9.7635913,416.24458 27.812671,280.58324 37.791031,205.5834 85.866522,61.150692 85.866522,61.150692 L 218.67547,114.08449 c 20.56418,31.8184 -39.95052,40.40949 -54.01647,64.74203 C 121.58167,253.3456 89.515198,336.22237 75.399895,421.13119 61.096608,507.1708 36.096691,608.27582 81.543625,682.72026 140.67632,779.58268 267.42725,853.34194 380.63297,845.37513 460.58835,839.7483 549.15826,778.34376 573.70323,702.04128 588.08038,657.3473 556.74542,607.0058 530.77242,567.89496 494.37145,513.08141 380.28029,505.30641 380.82865,439.50934 381.2929,383.80459 485.7118,389.84085 509.56717,332.94712 c 12.80099,-30.52966 16.94744,-77.98126 -1.78847,-103.30954 -26.34878,-35.61981 -79.47786,-28.56309 -116.01929,-14.95492 -50.68727,18.87614 -86.55982,71.36972 -108.16258,120.95629 -40.32471,92.56061 -33.88387,200.82219 -27.85918,301.60538 1.77342,29.6665 11.01584,58.46738 18.71878,87.17123 4.56137,16.99728 16.24862,50.23351 16.24862,50.23351 z"
   sodipodi:nodetypes="ccaaaaaaaaaaaaaccaaaaaaaaaaaaac" /></svg>
