<?xml version="1.0" encoding="UTF-8"?>
<!DOCTYPE svg PUBLIC "-//W3C//DTD SVG 1.1//EN" "http://www.w3.org/Graphics/SVG/1.1/DTD/svg11.dtd">
<!-- Creator: CorelDRAW X8 -->
<svg xmlns="http://www.w3.org/2000/svg" xml:space="preserve" width="1155px" height="1486px" version="1.1" style="shape-rendering:geometricPrecision; text-rendering:geometricPrecision; image-rendering:optimizeQuality; fill-rule:evenodd; clip-rule:evenodd"
viewBox="0 0 1155 1486"
 xmlns:xlink="http://www.w3.org/1999/xlink">
 <defs>
  <style type="text/css">
   <![CDATA[
    .fil0 {fill:#EF7F1A;fill-rule:nonzero}
   ]]>
  </style>
 </defs>
 <g id="Layer_x0020_1">
  <metadata id="CorelCorpID_0Corel-Layer"/>
  <path class="fil0" d="M239 1024c15,0 29,-1 43,-5 26,-6 60,-26 60,-51 0,-7 -3,-15 -10,-23 -85,-103 -129,-244 -129,-376 0,-255 127,-458 399,-458 101,0 300,46 299,164 0,39 -12,63 -57,63 -66,0 -138,-27 -211,-28 -45,-1 -89,7 -131,32 -66,39 -93,104 -93,179 0,76 39,142 105,179 39,22 86,33 136,33 57,0 106,-18 156,-18 46,0 82,20 108,51 42,48 63,122 63,183 0,110 -22,230 -98,314 -6,-42 -37,-74 -73,-97 -49,-31 -118,-41 -175,-41 -53,0 -112,9 -159,34 -46,-25 -105,-34 -158,-34 -57,0 -126,10 -175,41 -40,25 -74,64 -74,114 0,82 81,144 153,169 78,28 171,37 254,37 91,0 195,-9 288,-35 76,-22 145,-56 203,-102 119,-94 192,-233 192,-400 0,-77 -17,-152 -53,-214 -48,-83 -130,-141 -247,-141 -52,0 -106,16 -156,16 -56,0 -104,-25 -104,-89 0,-54 31,-84 85,-84 63,0 127,24 193,24 116,0 217,-56 217,-186 0,-232 -304,-275 -488,-275 -349,0 -601,222 -602,569 0,147 48,298 141,414 24,29 61,41 98,41zm233 363c-57,0 -128,-3 -181,-27 -33,-15 -58,-40 -58,-78 0,-43 45,-61 82,-61 47,0 67,42 67,83 0,40 59,51 90,51 31,0 91,-9 91,-51 0,-41 20,-83 65,-83 40,0 83,17 83,63 0,37 -24,62 -57,76 -53,24 -124,27 -182,27z"/>
 </g>
</svg>
