<?xml version="1.0" encoding="UTF-8" standalone="no"?>
<svg
   xmlns:dc="http://purl.org/dc/elements/1.1/"
   xmlns:cc="http://creativecommons.org/ns#"
   xmlns:rdf="http://www.w3.org/1999/02/22-rdf-syntax-ns#"
   xmlns:svg="http://www.w3.org/2000/svg"
   xmlns="http://www.w3.org/2000/svg"
   xmlns:sodipodi="http://sodipodi.sourceforge.net/DTD/sodipodi-0.dtd"
   xmlns:inkscape="http://www.inkscape.org/namespaces/inkscape"
   xml:space="preserve"
   width="1000"
   height="1000"
   version="1.1"
   style="clip-rule:evenodd;fill-rule:evenodd;image-rendering:optimizeQuality;shape-rendering:geometricPrecision;text-rendering:geometricPrecision"
   viewBox="0 0 1000 1000"
   id="svg10"
   sodipodi:docname="മ.svg"
   inkscape:version="1.0.1 (3bc2e813f5, 2020-09-07)"><metadata
   id="metadata14"><rdf:RDF><cc:Work
       rdf:about=""><dc:format>image/svg+xml</dc:format><dc:type
         rdf:resource="http://purl.org/dc/dcmitype/StillImage" /><dc:title /></cc:Work></rdf:RDF></metadata><sodipodi:namedview
   pagecolor="#ffffff"
   bordercolor="#666666"
   borderopacity="1"
   objecttolerance="10"
   gridtolerance="10"
   guidetolerance="10"
   inkscape:pageopacity="0"
   inkscape:pageshadow="2"
   inkscape:window-width="1920"
   inkscape:window-height="1015"
   id="namedview12"
   showgrid="false"
   inkscape:zoom="0.84890884"
   inkscape:cx="327.86116"
   inkscape:cy="503.78033"
   inkscape:window-x="1920"
   inkscape:window-y="0"
   inkscape:window-maximized="1"
   inkscape:current-layer="svg10"
   showguides="true"
   inkscape:guide-bbox="true"
   inkscape:document-rotation="0"><sodipodi:guide
     position="0,1000"
     orientation="0,1"
     id="guide16"
     inkscape:label=""
     inkscape:locked="true"
     inkscape:color="rgb(0,0,255)" /><sodipodi:guide
     position="1763.3122,2036.1693"
     orientation="1000,0"
     id="guide18" /><sodipodi:guide
     position="0,200"
     orientation="0,1"
     id="guide20"
     inkscape:label="base"
     inkscape:locked="true"
     inkscape:color="rgb(0,0,255)" /><inkscape:grid
     type="xygrid"
     id="grid24"
     originx="-473.37552"
     originy="-489.69235" /><sodipodi:guide
     position="0,0"
     orientation="0,1"
     id="guide34"
     inkscape:label="bottom"
     inkscape:locked="true"
     inkscape:color="rgb(0,0,255)" /><sodipodi:guide
     position="225.05109,1693.3186"
     orientation="0,1"
     id="guide44"
     inkscape:label=""
     inkscape:locked="false"
     inkscape:color="rgb(0,0,255)" /><sodipodi:guide
     position="0,900"
     orientation="0,1"
     id="guide46"
     inkscape:label=""
     inkscape:locked="true"
     inkscape:color="rgb(0,0,255)" /><sodipodi:guide
     position="648.366,570.39779"
     orientation="-1,0"
     id="guide841"
     inkscape:label="width"
     inkscape:locked="false"
     inkscape:color="rgb(0,0,255)" /></sodipodi:namedview>
 <defs
   id="defs4">
  <style
   type="text/css"
   id="style2">
   <![CDATA[
    .fil0 {fill:#EF7F1A;fill-rule:nonzero}
   ]]>
  </style>
 <inkscape:path-effect
   effect="spiro"
   id="path-effect1214"
   is_visible="true"
   lpeversion="1" /><inkscape:path-effect
   effect="spiro"
   id="path-effect1195"
   is_visible="true"
   lpeversion="1" /><inkscape:path-effect
   effect="spiro"
   id="path-effect992"
   is_visible="true"
   lpeversion="1" /></defs>
 
<path
   style="display:inline;fill:#1a1a1a;fill-rule:nonzero;stroke:none;stroke-width:1.82472px;stroke-linecap:butt;stroke-linejoin:miter;stroke-opacity:1"
   d="M 255.90229,642.66958 C 183.12205,612.60919 118.61265,562.79517 71.122974,499.98338 36.432063,454.09976 10.497742,400.45546 3.624658,343.34568 -3.2484259,286.2359 10.308929,225.55813 46.753003,181.05425 81.459362,138.67239 134.27488,113.73307 188.33164,104.86628 c 92.7442,-15.212583 190.01466,14.75967 264.47885,72.1007 36.52367,28.125 68.35078,62.92284 89.99899,103.62111 28.6383,53.83951 38.49652,117.75824 25.67986,177.37852 -8.82757,41.06392 -28.04174,79.57009 -53.58957,112.90894 -25.54783,33.33886 -57.32815,61.62398 -92.02912,85.28859 -40.83108,27.84508 -85.89154,49.47627 -133.15543,63.921 l 231.30657,-11.95592 c 4.4448,-48.18552 0.0228,-97.17481 -12.97875,-143.78554 -6.88732,-24.69114 -16.16238,-48.71563 -27.6537,-71.62932 l 151.64976,-2.60483 c -9.11903,23.54902 -16.02151,47.95581 -20.58652,72.79276 -14.42663,78.49135 -4.88743,161.223 27.02373,234.37147 C 521.45737,782.97866 403.26296,778.31767 285.4817,783.35344 221.77523,786.07722 158.18993,791.63338 94.976544,800 L 89.128319,661.5684 c 10.933221,11.30575 24.539001,20.00997 39.386461,25.19726 22.61217,7.90007 47.50684,7.5205 70.90364,2.39108 23.39681,-5.12942 45.5368,-14.80882 67.08249,-25.27327 33.07356,-16.06338 65.33556,-34.22719 94.04728,-57.19519 28.71173,-22.968 53.87121,-50.94771 70.50114,-83.74005 20.73473,-40.88654 27.46106,-88.6725 19.08821,-133.74504 C 441.7647,344.13065 418.38606,302.02004 384.74457,270.877 351.74394,240.32723 308.311,220.27417 263.36149,218.90626 c -22.47476,-0.68396 -45.13374,3.26748 -65.85498,11.99747 -20.72124,8.72999 -39.46341,22.26735 -53.87294,39.52852 -16.54112,19.81459 -27.18954,44.37077 -31.04208,69.893 -3.85254,25.52224 -0.97614,51.94563 7.61596,76.28495 17.18418,48.67864 57.02546,87.75016 104.09993,108.93743 40.80447,18.36527 87.21656,24.03575 131.24238,16.03477 z"
   id="path3501-3"
   inkscape:path-effect="#path-effect992"
   inkscape:original-d="m 255.90229,642.66958 c 0,0 -123.18439,-101.20463 -184.779316,-142.6862 C 9.528185,458.50247 -4.4028105,274.60007 46.753003,181.05425 72.466395,134.03353 135.08591,110.9503 188.33164,104.86628 c 90.78612,-10.373499 187.10266,23.49349 264.47885,72.1007 38.7398,24.33606 70.94951,62.02622 89.99899,103.62111 24.87602,54.31724 40.16708,119.41907 25.67986,177.37852 -19.87975,79.5335 -82.51474,145.86484 -145.61869,198.19753 -37.89806,31.42842 -133.15543,63.921 -133.15543,63.921 l 231.30657,-11.95592 c 0,0 -2.04387,-96.92116 -12.97875,-143.78554 -5.81569,-24.92426 -27.6537,-71.62932 -27.6537,-71.62932 l 151.64976,-2.60483 c 0,0 -18.56114,47.6583 -20.58652,72.79276 -6.31661,78.38734 27.02373,234.37147 27.02373,234.37147 0,0 -235.27183,-16.73121 -352.99461,-13.92032 C 221.75618,784.87502 94.976544,800 94.976544,800 L 89.128319,661.5684 c 0,0 8.307201,11.38892 39.386461,25.19726 31.07926,13.80903 95.73012,-3.17986 137.98613,-22.88219 65.45288,-30.51813 140.43502,-72.8619 164.54842,-140.93524 28.52475,-80.5268 19.28329,-197.33153 -46.30476,-252.07123 -61.70389,-51.49799 -193.55468,-65.23525 -241.111,-0.44475 -52.774371,71.89955 12.0605,198.13386 80.67381,255.11538 33.90528,28.15743 131.24238,16.03477 131.24238,16.03477 z"
   sodipodi:nodetypes="csaaaaaaccaccacaccsaaaaacc" /></svg>
