<?xml version="1.0" encoding="UTF-8"?>
<!DOCTYPE svg PUBLIC "-//W3C//DTD SVG 1.1//EN" "http://www.w3.org/Graphics/SVG/1.1/DTD/svg11.dtd">
<!-- Creator: CorelDRAW X8 -->
<svg xmlns="http://www.w3.org/2000/svg" xml:space="preserve" width="653px" height="586px" version="1.1" style="shape-rendering:geometricPrecision; text-rendering:geometricPrecision; image-rendering:optimizeQuality; fill-rule:evenodd; clip-rule:evenodd"
viewBox="0 0 653 586"
 xmlns:xlink="http://www.w3.org/1999/xlink">
 <defs>
  <style type="text/css">
   <![CDATA[
    .fil0 {fill:#EF7F1A;fill-rule:nonzero}
   ]]>
  </style>
 </defs>
 <g id="Layer_x0020_1">
  <metadata id="CorelCorpID_0Corel-Layer"/>
  <path class="fil0" d="M581 585c21,0 72,-8 72,-35l0 -298c0,-68 -27,-128 -79,-173 -67,-57 -161,-78 -247,-78 -87,0 -181,22 -248,78 -53,45 -79,105 -79,173l0 298c0,27 51,35 71,35l510 0zm-438 -69l0 -264c0,-39 2,-78 26,-112 18,-27 48,-49 83,-49 65,0 83,72 82,125 -2,110 -94,246 -191,300zm367 0l-213 0c94,-69 171,-183 171,-299 0,-45 -14,-92 -44,-126 59,30 86,99 86,161l0 264z"/>
 </g>
</svg>
