<?xml version="1.0" encoding="UTF-8"?>
<!DOCTYPE svg PUBLIC "-//W3C//DTD SVG 1.1//EN" "http://www.w3.org/Graphics/SVG/1.1/DTD/svg11.dtd">
<!-- Creator: CorelDRAW X8 -->
<svg xmlns="http://www.w3.org/2000/svg" xml:space="preserve" width="2036px" height="1024px" version="1.1" style="shape-rendering:geometricPrecision; text-rendering:geometricPrecision; image-rendering:optimizeQuality; fill-rule:evenodd; clip-rule:evenodd"
viewBox="0 0 2036 1024"
 xmlns:xlink="http://www.w3.org/1999/xlink">
 <defs>
  <style type="text/css">
   <![CDATA[
    .fil0 {fill:#EF7F1A;fill-rule:nonzero}
   ]]>
  </style>
 </defs>
 <g id="Layer_x0020_1">
  <metadata id="CorelCorpID_0Corel-Layer"/>
  <path class="fil0" d="M816 1024c32,0 102,-14 102,-56l0 -608c0,-135 61,-249 212,-249 186,0 273,230 273,383 0,153 -63,344 -215,407 -16,7 -40,22 -40,42 0,46 70,58 105,58l681 0c33,0 102,-14 102,-56l0 -889c0,-42 -69,-56 -102,-56 -32,0 -101,14 -101,56l0 833 -375 1c103,-105 148,-251 148,-396 0,-274 -184,-494 -476,-494 -111,0 -231,26 -314,103 -83,-77 -203,-103 -314,-103 -190,0 -368,90 -450,262 -37,78 -52,163 -52,249 0,208 92,415 291,500 20,9 44,13 68,13 28,0 57,-7 78,-22 15,-11 21,-22 21,-33 0,-18 -16,-35 -40,-45 -153,-63 -215,-261 -215,-413 0,-68 10,-137 35,-199 43,-107 141,-201 264,-201 151,0 213,114 213,249l0 608c0,42 69,56 101,56z"/>
 </g>
</svg>
