<?xml version="1.0" encoding="UTF-8" standalone="no"?>
<svg
   xmlns:dc="http://purl.org/dc/elements/1.1/"
   xmlns:cc="http://creativecommons.org/ns#"
   xmlns:rdf="http://www.w3.org/1999/02/22-rdf-syntax-ns#"
   xmlns:svg="http://www.w3.org/2000/svg"
   xmlns="http://www.w3.org/2000/svg"
   xmlns:sodipodi="http://sodipodi.sourceforge.net/DTD/sodipodi-0.dtd"
   xmlns:inkscape="http://www.inkscape.org/namespaces/inkscape"
   xml:space="preserve"
   width="1000"
   height="1000"
   version="1.1"
   style="clip-rule:evenodd;fill-rule:evenodd;image-rendering:optimizeQuality;shape-rendering:geometricPrecision;text-rendering:geometricPrecision"
   viewBox="0 0 1000 1000"
   id="svg10"
   sodipodi:docname="യ.svg"
   inkscape:version="1.0.1 (3bc2e813f5, 2020-09-07)"><metadata
   id="metadata14"><rdf:RDF><cc:Work
       rdf:about=""><dc:format>image/svg+xml</dc:format><dc:type
         rdf:resource="http://purl.org/dc/dcmitype/StillImage" /><dc:title /></cc:Work></rdf:RDF></metadata><sodipodi:namedview
   pagecolor="#ffffff"
   bordercolor="#666666"
   borderopacity="1"
   objecttolerance="10"
   gridtolerance="10"
   guidetolerance="10"
   inkscape:pageopacity="0"
   inkscape:pageshadow="2"
   inkscape:window-width="1920"
   inkscape:window-height="1015"
   id="namedview12"
   showgrid="false"
   inkscape:zoom="0.678"
   inkscape:cx="470.75253"
   inkscape:cy="645.64506"
   inkscape:window-x="1920"
   inkscape:window-y="0"
   inkscape:window-maximized="1"
   inkscape:current-layer="svg10"
   showguides="true"
   inkscape:guide-bbox="true"
   inkscape:document-rotation="0"
   inkscape:snap-to-guides="true"><sodipodi:guide
     position="0,1000"
     orientation="0,1"
     id="guide16"
     inkscape:label=""
     inkscape:locked="true"
     inkscape:color="rgb(0,0,255)" /><sodipodi:guide
     position="1763.3122,2036.1693"
     orientation="1000,0"
     id="guide18" /><sodipodi:guide
     position="0,200"
     orientation="0,1"
     id="guide20"
     inkscape:label="base"
     inkscape:locked="true"
     inkscape:color="rgb(0,0,255)" /><inkscape:grid
     type="xygrid"
     id="grid24"
     originx="-473.37552"
     originy="-489.69235" /><sodipodi:guide
     position="0,0"
     orientation="0,1"
     id="guide34"
     inkscape:label="bottom"
     inkscape:locked="true"
     inkscape:color="rgb(0,0,255)" /><sodipodi:guide
     position="225.05109,1693.3186"
     orientation="0,1"
     id="guide44"
     inkscape:label=""
     inkscape:locked="false"
     inkscape:color="rgb(0,0,255)" /><sodipodi:guide
     position="0,900"
     orientation="0,1"
     id="guide46"
     inkscape:label=""
     inkscape:locked="true"
     inkscape:color="rgb(0,0,255)" /><sodipodi:guide
     position="791.45998,471.13762"
     orientation="-1,0"
     id="guide841"
     inkscape:label=""
     inkscape:locked="false"
     inkscape:color="rgb(0,0,255)" /><sodipodi:guide
     position="0,1000"
     orientation="0,1000"
     id="guide860" /><sodipodi:guide
     position="1000,1000"
     orientation="1000,0"
     id="guide862" /><sodipodi:guide
     position="1000,0"
     orientation="0,-1000"
     id="guide864" /><sodipodi:guide
     position="0,0"
     orientation="-1000,0"
     id="guide866" /></sodipodi:namedview>
 <defs
   id="defs4"><inkscape:path-effect
   effect="spiro"
   id="path-effect862"
   is_visible="true"
   lpeversion="1" /><inkscape:path-effect
   effect="spiro"
   id="path-effect1521"
   is_visible="true"
   lpeversion="1" /><inkscape:path-effect
   effect="spiro"
   id="path-effect858"
   is_visible="true"
   lpeversion="1" /><inkscape:path-effect
   effect="spiro"
   id="path-effect854"
   is_visible="true"
   lpeversion="1" />
  <style
   type="text/css"
   id="style2">
   <![CDATA[
    .fil0 {fill:#EF7F1A;fill-rule:nonzero}
   ]]>
  </style>
 <inkscape:path-effect
   effect="spiro"
   id="path-effect1214"
   is_visible="true"
   lpeversion="1" /><inkscape:path-effect
   effect="spiro"
   id="path-effect1195"
   is_visible="true"
   lpeversion="1" /><inkscape:path-effect
   effect="spiro"
   id="path-effect992"
   is_visible="true"
   lpeversion="1" /><inkscape:path-effect
   effect="spiro"
   id="path-effect287"
   is_visible="true"
   lpeversion="1" /><inkscape:path-effect
   effect="spiro"
   id="path-effect1032"
   is_visible="true"
   lpeversion="1" /><inkscape:path-effect
   effect="spiro"
   id="path-effect1218"
   is_visible="true"
   lpeversion="1" /><inkscape:path-effect
   effect="spiro"
   id="path-effect309"
   is_visible="true"
   lpeversion="1" /><inkscape:path-effect
   effect="spiro"
   id="path-effect1176"
   is_visible="true"
   lpeversion="1" /><inkscape:path-effect
   effect="spiro"
   id="path-effect1026"
   is_visible="true"
   lpeversion="1" /><inkscape:path-effect
   effect="spiro"
   id="path-effect1255"
   is_visible="true"
   lpeversion="1" /></defs>
 
<path
   style="display:inline;fill:#1a1a1a;fill-rule:nonzero;stroke:none;stroke-width:2.23544px;stroke-linecap:butt;stroke-linejoin:miter;stroke-opacity:1"
   d="m 310.1887,360.28264 c 6.65214,-32.81429 17.20278,-64.83649 31.35924,-95.17827 12.96831,-27.79521 29.22848,-54.51499 51.56161,-75.53836 22.33313,-21.02338 51.26371,-36.04118 81.89486,-37.61714 21.94897,-1.12926 44.03638,4.68931 63.21853,15.41672 19.18216,10.72742 35.50382,26.24171 48.24268,44.15132 25.47771,35.8192 36.32925,80.16441 40.23912,123.94617 5.2214,58.46797 -1.01331,117.52998 -13.24492,174.94213 -15.53968,72.9394 -41.75612,145.51619 -90.30443,202.12625 -24.27416,28.30503 -53.98057,52.21901 -87.77061,67.98742 -33.79004,15.7684 -71.72613,23.19937 -108.80553,19.2589 -34.9903,-3.71845 -68.48622,-17.40642 -97.95254,-36.63877 -29.46633,-19.23234 -55.0836,-43.89727 -78.01513,-70.58608 C 51.724288,577.46314 2.4500279,418.73133 28.429397,269.23408 c 4.711871,-27.11428 11.861882,-54.05045 24.443454,-78.52676 14.916087,-29.0179 37.668858,-54.29418 66.089609,-70.31881 28.42076,-16.02464 62.56221,-22.402724 94.48104,-15.64132 21.00275,4.44904 40.67683,14.40329 57.46167,27.78905 16.78484,13.38577 30.73395,30.14344 41.88917,48.48658 22.31044,36.68627 33.32563,79.07816 41.17169,121.29282 10.02376,53.93149 15.33792,108.60743 21.34835,163.13225 5.41351,49.1097 11.69006,99.18226 33.0826,143.71796 10.69627,22.26785 25.18292,42.91043 43.78789,59.16227 18.60497,16.25185 41.45082,27.9826 65.85574,31.81238 26.91534,4.22373 55.09169,-1.38444 78.89543,-14.63803 23.80373,-13.25359 43.21691,-33.94398 55.93179,-58.03977 20.79001,-39.39886 23.42238,-85.90452 20.07593,-130.32632 -8.30613,-110.25815 -50.46468,-217.04919 -48.16101,-327.59576 0.49075,-23.54978 3.0147,-47.05685 7.53458,-70.17403 L 793.20785,100 c -29.99018,47.0216 -48.16099,101.51777 -52.39176,157.1284 -6.67685,87.76278 20.68809,174.18212 30.1938,261.68371 5.5342,50.94319 4.81441,103.59686 -12.10705,151.96524 -10.59865,30.29524 -27.54397,58.4833 -50.15582,81.2613 -22.61186,22.77799 -50.93625,40.04031 -81.86706,48.60875 -30.98619,8.58379 -64.19851,8.3426 -95.39656,0.56398 -31.19805,-7.77862 -60.37763,-22.9721 -85.48209,-43.06169 -50.2089,-40.17918 -83.21276,-98.91988 -101.4156,-160.59611 -18.79703,-63.68951 -22.86101,-130.69769 -35.84384,-195.82164 -4.29225,-21.53061 -9.59477,-42.96358 -18.02027,-63.23675 -8.42551,-20.27316 -20.08996,-39.43186 -35.8925,-54.67227 -9.97117,-9.61647 -21.61587,-17.64391 -34.575,-22.53899 -12.95913,-4.89507 -27.27357,-6.56197 -40.83296,-3.72581 -11.02062,2.30514 -21.34691,7.53295 -30.10755,14.60536 -8.76063,7.07242 -15.98183,15.95675 -21.63461,25.69399 -11.30557,19.47448 -16.26675,41.99607 -18.88907,64.3611 -10.696717,91.22915 17.04928,186.97876 77.42885,256.19932 18.4122,21.10818 39.77041,39.82876 64.0452,53.8037 24.27479,13.97494 51.53855,23.11616 79.49462,24.85469 34.11801,2.12172 68.57347,-6.92264 98.24919,-23.89002 29.67572,-16.96739 54.63866,-41.64934 73.59581,-70.0952 32.47676,-48.73251 47.2372,-108.0694 46.9757,-166.63158 -0.0902,-20.20465 -1.91741,-40.51283 -7.23329,-60.00584 -5.31588,-19.49302 -14.22558,-38.19615 -27.43265,-53.48699 -13.20706,-15.29083 -30.87063,-27.0306 -50.55348,-31.59369 -19.68284,-4.56309 -41.3365,-1.5608 -58.15714,9.63305 -9.82624,6.53919 -17.82002,15.6605 -23.63238,25.9334 -5.81236,10.27291 -9.48708,21.67824 -11.46815,33.31402 -3.96213,23.27157 -1.22536,47.13536 2.45253,70.45354 13.51318,85.67496 39.72651,169.33583 77.51856,247.40353 L 350.05101,565.90692 Z"
   id="path1253"
   inkscape:path-effect="#path-effect1255"
   inkscape:original-d="m 310.1887,360.28264 c 0,0 12.69413,-67.47582 31.35924,-95.17827 32.58964,-48.36899 75.36048,-118.30334 133.45647,-113.1555 79.05611,7.0051 127.6702,107.87366 151.70033,183.51421 17.70666,55.73593 11.04473,121.74408 -13.24492,174.94213 C 557.04567,633.96084 461.40781,783.35191 326.57925,799.77778 258.39585,808.08442 192.304,747.13973 150.61158,692.55293 61.465687,575.83655 26.903749,416.09243 28.429397,269.23408 28.714178,241.82118 35.411525,211.84142 52.872851,190.70732 91.541932,143.90466 154.33872,90.875968 213.4435,104.74719 c 78.67751,18.46472 110.98348,122.34517 140.52253,197.56845 20.04515,51.04639 3.14981,111.39874 21.34835,163.13225 30.38387,86.37308 54.36125,210.71098 142.72623,234.69261 49.27364,13.37252 105.38575,-30.96551 134.82722,-72.6778 25.34638,-35.91044 19.92485,-86.37207 20.07593,-130.32632 0.37936,-110.37168 -46.00846,-217.24442 -48.16101,-327.59576 -0.45882,-23.52131 7.53458,-70.17403 7.53458,-70.17403 L 793.20785,100 c 0,0 -46.68858,102.21281 -52.39176,157.1284 -9.07025,87.3369 28.64089,173.89082 30.1938,261.68371 0.8987,50.80764 9.37904,105.91557 -12.10705,151.96524 C 732.80152,726.71855 688.42902,795.91347 626.87996,800.6474 511.30125,809.53691 406.56208,695.51474 344.58571,597.55358 309.10737,541.47577 328.6656,465.02868 308.74187,401.73194 295.7663,360.50919 286.78548,312.91708 254.8291,283.82292 c -19.68185,-17.91902 -50.15043,-34.66264 -75.40796,-26.2648 -39.93827,13.27902 -64.33834,63.04558 -70.63123,104.66045 -13.339165,88.21182 21.22761,186.91239 77.42885,256.19932 34.37015,42.37276 88.98015,78.6359 143.53982,78.65839 65.28903,0.0269 131.17095,-42.9139 171.845,-93.98522 35.95171,-45.14184 62.34131,-111.00597 46.9757,-166.63158 -17.50596,-63.37398 -80.25559,-153.85085 -143.37656,-135.45347 -42.80135,12.47498 -33.91942,85.1368 -32.648,129.70096 2.46462,86.38606 77.30249,235.57462 77.51856,247.40353 L 350.05101,565.90692 Z"
   sodipodi:nodetypes="caaaaaaaaaaaaaaaccaaaaaaaaaaaaaaaccc" /></svg>
