<?xml version="1.0" encoding="UTF-8"?>
<!DOCTYPE svg PUBLIC "-//W3C//DTD SVG 1.1//EN" "http://www.w3.org/Graphics/SVG/1.1/DTD/svg11.dtd">
<!-- Creator: CorelDRAW X8 -->
<svg xmlns="http://www.w3.org/2000/svg" xml:space="preserve" width="1688px" height="1486px" version="1.1" style="shape-rendering:geometricPrecision; text-rendering:geometricPrecision; image-rendering:optimizeQuality; fill-rule:evenodd; clip-rule:evenodd"
viewBox="0 0 1688 1486"
 xmlns:xlink="http://www.w3.org/1999/xlink">
 <defs>
  <style type="text/css">
   <![CDATA[
    .fil0 {fill:#EF7F1A;fill-rule:nonzero}
   ]]>
  </style>
 </defs>
 <g id="Layer_x0020_1">
  <metadata id="CorelCorpID_0Corel-Layer"/>
  <path class="fil0" d="M625 913c-126,0 -220,-36 -303,-130 -82,-92 -119,-226 -119,-346 0,-83 16,-169 59,-241 22,-36 63,-85 110,-85 70,0 92,84 100,138 9,58 10,114 10,171 0,111 21,205 72,304 36,69 86,131 154,182 -27,5 -55,7 -83,7zm243 -74c-61,-45 -103,-101 -132,-164 -37,-80 -54,-168 -54,-255 0,-125 45,-309 185,-309 55,0 102,34 133,76 49,65 65,153 65,235 0,98 -19,177 -65,264 -32,60 -76,113 -132,153zm-243 185c82,0 164,-11 242,-36 75,25 155,35 234,35 129,0 255,-38 354,-112 -18,56 -46,129 -72,175 -37,66 -85,125 -143,174 -33,-65 -131,-101 -197,-116 -65,-15 -131,-20 -197,-20 -71,0 -147,6 -216,23 -73,19 -194,68 -194,157 0,88 117,138 189,157 65,17 141,25 221,25 76,0 149,-8 219,-24 183,-43 343,-142 463,-306 119,-161 160,-341 160,-538 0,-90 -5,-190 -27,-284 -29,-124 -86,-238 -196,-306 -28,-18 -61,-28 -94,-28 -24,0 -47,5 -68,17 -19,10 -29,24 -29,39 0,14 10,28 29,39 122,67 166,228 165,356 0,94 -23,193 -71,275 -60,103 -171,186 -296,187 -24,0 -47,-2 -71,-6 69,-50 123,-114 162,-186 53,-97 75,-191 75,-299 0,-113 -33,-224 -117,-307 -74,-74 -177,-115 -283,-115 -100,0 -194,37 -258,115 -54,-84 -139,-115 -237,-115 -119,0 -242,60 -302,161 -50,83 -70,182 -70,277 0,139 45,289 139,394 127,142 298,191 486,192zm221 358c-151,0 -222,-39 -222,-78 0,-39 79,-75 222,-75 142,0 217,39 217,75 0,37 -67,78 -217,78z"/>
 </g>
</svg>
