<?xml version="1.0" encoding="UTF-8"?>
<!DOCTYPE svg PUBLIC "-//W3C//DTD SVG 1.1//EN" "http://www.w3.org/Graphics/SVG/1.1/DTD/svg11.dtd">
<!-- Creator: CorelDRAW X8 -->
<svg xmlns="http://www.w3.org/2000/svg" xml:space="preserve" width="1660px" height="1024px" version="1.1" style="shape-rendering:geometricPrecision; text-rendering:geometricPrecision; image-rendering:optimizeQuality; fill-rule:evenodd; clip-rule:evenodd"
viewBox="0 0 1660 1024"
 xmlns:xlink="http://www.w3.org/1999/xlink">
 <defs>
  <style type="text/css">
   <![CDATA[
    .fil0 {fill:#EF7F1A;fill-rule:nonzero}
   ]]>
  </style>
 </defs>
 <g id="Layer_x0020_1">
  <metadata id="CorelCorpID_0Corel-Layer"/>
  <path class="fil0" d="M1344 1024c167,-1 316,-98 316,-274 0,-99 -44,-176 -131,-225 64,-46 101,-115 101,-193 0,-110 -69,-199 -163,-253 -106,-61 -242,-79 -364,-79 -101,0 -205,8 -301,39 -75,-28 -157,-39 -237,-39 -202,0 -400,100 -495,278 -48,89 -70,191 -70,291 0,165 62,338 212,427 29,17 63,28 97,28 24,0 47,-5 69,-18 18,-10 27,-24 27,-38 0,-15 -11,-30 -32,-41 -126,-64 -170,-229 -170,-358 0,-89 19,-181 61,-260 57,-106 174,-198 301,-198 23,0 46,2 69,6 -149,111 -228,293 -228,475 0,86 16,176 58,252 68,122 188,180 327,180 140,0 261,-58 329,-180 42,-75 60,-164 60,-249 -1,-181 -76,-361 -224,-474 49,-8 95,-11 146,-11 81,0 166,15 219,46 64,36 114,103 114,176 0,33 -7,72 -28,99 -22,29 -44,44 -82,44 -34,0 -77,15 -77,56 0,37 34,53 66,55 42,2 69,4 102,32 38,32 52,84 52,132 0,65 -48,163 -124,163 -24,0 -47,-10 -72,-10 -35,0 -74,8 -94,32 -8,9 -11,17 -11,25 0,30 57,48 84,54 31,7 62,10 93,10zm-553 -111c-60,0 -107,-53 -133,-101 -36,-64 -50,-144 -50,-217 0,-149 61,-314 184,-408 124,94 185,258 185,408 0,73 -14,151 -50,216 -27,48 -75,102 -136,102z"/>
 </g>
</svg>
