<?xml version="1.0" encoding="UTF-8"?>
<!DOCTYPE svg PUBLIC "-//W3C//DTD SVG 1.1//EN" "http://www.w3.org/Graphics/SVG/1.1/DTD/svg11.dtd">
<!-- Creator: CorelDRAW X8 -->
<svg xmlns="http://www.w3.org/2000/svg" xml:space="preserve" width="2047px" height="1486px" version="1.1" style="shape-rendering:geometricPrecision; text-rendering:geometricPrecision; image-rendering:optimizeQuality; fill-rule:evenodd; clip-rule:evenodd"
viewBox="0 0 2047 1486"
 xmlns:xlink="http://www.w3.org/1999/xlink">
 <defs>
  <style type="text/css">
   <![CDATA[
    .fil0 {fill:#EF7F1A;fill-rule:nonzero}
   ]]>
  </style>
 </defs>
 <g id="Layer_x0020_1">
  <metadata id="CorelCorpID_0Corel-Layer"/>
  <path class="fil0" d="M1686 1354c195,-105 361,-305 361,-532 0,-124 -54,-234 -164,-296 65,-47 101,-112 101,-192 0,-109 -69,-201 -162,-254 -107,-62 -246,-80 -367,-80 -102,0 -202,9 -299,39 -73,-27 -159,-39 -237,-39 -203,-1 -400,100 -495,280 -48,90 -70,192 -70,293 0,166 62,333 212,423 29,17 64,28 98,28 23,0 47,-6 68,-18 18,-11 27,-25 27,-38 0,-15 -11,-30 -32,-41 -126,-65 -170,-225 -170,-354 0,-90 20,-182 62,-261 56,-107 173,-200 300,-200 23,0 47,2 70,6 -151,113 -229,297 -229,481 0,85 17,169 59,244 68,122 187,181 327,181 140,0 260,-58 329,-181 42,-76 59,-158 59,-244 0,-182 -76,-363 -224,-477 37,-6 96,-11 145,-11 72,0 158,10 221,46 64,36 114,104 114,177 0,34 -6,69 -28,97 -22,29 -45,45 -82,45 -35,0 -77,13 -78,55 0,41 40,55 73,56 41,1 68,9 100,36 57,47 72,129 72,199 0,180 -108,333 -260,429 -147,93 -338,132 -510,132 -274,0 -559,-95 -726,-321 -100,-136 -148,-291 -148,-459 0,-194 74,-404 250,-509 18,-11 26,-25 26,-38 0,-15 -11,-30 -32,-41 -19,-10 -44,-15 -69,-15 -27,0 -54,6 -74,18 -210,126 -304,350 -304,585 0,180 58,366 166,511 210,281 573,372 911,372 206,0 426,-33 609,-132zm-540 -441c-61,0 -107,-54 -134,-102 -36,-65 -50,-138 -50,-212 0,-150 62,-316 184,-411 124,95 186,260 186,411 0,74 -14,146 -51,211 -27,48 -75,103 -135,103z"/>
 </g>
</svg>
