<?xml version="1.0" encoding="UTF-8"?>
<!DOCTYPE svg PUBLIC "-//W3C//DTD SVG 1.1//EN" "http://www.w3.org/Graphics/SVG/1.1/DTD/svg11.dtd">
<!-- Creator: CorelDRAW X8 -->
<svg xmlns="http://www.w3.org/2000/svg" xml:space="preserve" width="700px" height="600px" version="1.1" style="shape-rendering:geometricPrecision; text-rendering:geometricPrecision; image-rendering:optimizeQuality; fill-rule:evenodd; clip-rule:evenodd"
viewBox="0 0 700 600"
 xmlns:xlink="http://www.w3.org/1999/xlink">
 <defs>
  <style type="text/css">
   <![CDATA[
    .fil0 {fill:#EF7F1A;fill-rule:nonzero}
   ]]>
  </style>
 </defs>
 <g id="Layer_x0020_1">
  <metadata id="CorelCorpID_0Corel-Layer"/>
  <path class="fil0" d="M465 600c22,0 43,-5 59,-13 107,-52 176,-155 176,-273 0,-193 -170,-314 -352,-314 -181,0 -348,121 -348,314 0,119 70,222 178,274 15,8 36,12 56,12 20,0 39,-4 54,-13 11,-7 15,-14 15,-22 0,-9 -8,-19 -21,-25 -91,-42 -139,-129 -139,-226 1,-158 103,-244 205,-244 136,0 209,119 209,244 0,97 -49,184 -139,226 -13,6 -21,16 -21,25 0,8 4,15 15,22 15,9 34,13 53,13z"/>
 </g>
</svg>
