<?xml version="1.0" encoding="UTF-8"?>
<!DOCTYPE svg PUBLIC "-//W3C//DTD SVG 1.1//EN" "http://www.w3.org/Graphics/SVG/1.1/DTD/svg11.dtd">
<!-- Creator: CorelDRAW X8 -->
<svg xmlns="http://www.w3.org/2000/svg" xml:space="preserve" width="2724px" height="1486px" version="1.1" style="shape-rendering:geometricPrecision; text-rendering:geometricPrecision; image-rendering:optimizeQuality; fill-rule:evenodd; clip-rule:evenodd"
viewBox="0 0 2724 1486"
 xmlns:xlink="http://www.w3.org/1999/xlink">
 <defs>
  <style type="text/css">
   <![CDATA[
    .fil0 {fill:#EF7F1A;fill-rule:nonzero}
   ]]>
  </style>
 </defs>
 <g id="Layer_x0020_1">
  <metadata id="CorelCorpID_0Corel-Layer"/>
  <path class="fil0" d="M1361 1486c391,0 856,-92 1139,-363 149,-143 224,-326 224,-531 0,-349 -239,-592 -590,-592 -305,0 -567,216 -567,531 0,201 113,383 295,475 22,11 50,18 77,18 26,0 52,-6 73,-19 18,-11 26,-24 26,-37 0,-16 -13,-31 -35,-42 -154,-75 -233,-232 -233,-397 0,-215 133,-417 364,-417 268,0 385,244 385,480 0,163 -45,312 -153,437 -231,269 -655,347 -1005,347 -307,0 -653,-54 -899,-253 -175,-142 -258,-334 -258,-557 0,-192 81,-369 251,-472 19,-12 27,-25 27,-38 0,-15 -11,-31 -31,-41 -20,-11 -45,-15 -71,-15 -26,0 -53,6 -73,18 -198,121 -307,318 -307,548 0,271 120,494 340,650 289,206 674,270 1021,270zm-241 -462c28,0 57,-7 81,-19 180,-91 292,-271 292,-470 0,-312 -263,-535 -566,-535 -303,0 -566,221 -566,535 0,199 114,381 295,471 22,11 50,18 77,18 27,0 52,-6 73,-19 18,-11 26,-24 26,-37 0,-16 -13,-31 -35,-42 -155,-74 -233,-226 -233,-391 1,-209 131,-424 363,-424 231,0 362,213 362,424 0,165 -78,317 -232,391 -22,11 -35,26 -35,42 0,13 8,26 26,37 21,13 46,19 72,19z"/>
 </g>
</svg>
