<?xml version="1.0" encoding="UTF-8"?>
<!DOCTYPE svg PUBLIC "-//W3C//DTD SVG 1.1//EN" "http://www.w3.org/Graphics/SVG/1.1/DTD/svg11.dtd">
<!-- Creator: CorelDRAW X8 -->
<svg xmlns="http://www.w3.org/2000/svg" xml:space="preserve" width="1655px" height="868px" version="1.1" style="shape-rendering:geometricPrecision; text-rendering:geometricPrecision; image-rendering:optimizeQuality; fill-rule:evenodd; clip-rule:evenodd"
viewBox="0 0 1655 868"
 xmlns:xlink="http://www.w3.org/1999/xlink">
 <defs>
  <style type="text/css">
   <![CDATA[
    .fil0 {fill:#EF7F1A;fill-rule:nonzero}
   ]]>
  </style>
 </defs>
 <g id="Layer_x0020_1">
  <metadata id="CorelCorpID_0Corel-Layer"/>
  <path class="fil0" d="M682 600c22,0 43,-5 59,-13 107,-52 176,-155 176,-273 0,-193 -170,-314 -352,-314 -181,0 -348,121 -348,314 0,119 70,222 178,274 15,8 36,12 56,12 20,0 39,-4 54,-13 11,-7 15,-14 15,-22 0,-9 -8,-19 -21,-25 -91,-42 -139,-129 -139,-226 1,-158 103,-244 205,-244 136,0 209,119 209,244 0,97 -49,184 -139,226 -13,6 -21,16 -21,25 0,8 4,15 15,22 15,9 34,13 53,13zm142 268c231,0 522,-50 697,-213 88,-82 134,-182 134,-302 0,-213 -156,-353 -364,-353 -181,0 -351,115 -351,310 0,119 70,225 178,278 15,8 36,12 56,12 19,0 39,-4 53,-13 11,-7 16,-14 16,-22 0,-10 -8,-19 -21,-25 -91,-43 -139,-134 -139,-230 0,-122 75,-241 208,-241 156,0 221,149 220,284 0,92 -30,177 -92,247 -139,157 -393,200 -595,200 -176,0 -386,-35 -526,-145 -104,-82 -155,-194 -155,-323 0,-114 50,-215 150,-274 12,-7 17,-15 17,-23 0,-10 -7,-19 -20,-25 -13,-7 -32,-10 -51,-10 -20,0 -40,4 -54,12 -118,69 -185,184 -185,320 0,161 74,287 205,378 169,117 415,158 619,158z"/>
 </g>
</svg>
