<?xml version="1.0" encoding="UTF-8" standalone="no"?>
<svg
   xmlns:dc="http://purl.org/dc/elements/1.1/"
   xmlns:cc="http://creativecommons.org/ns#"
   xmlns:rdf="http://www.w3.org/1999/02/22-rdf-syntax-ns#"
   xmlns:svg="http://www.w3.org/2000/svg"
   xmlns="http://www.w3.org/2000/svg"
   xmlns:sodipodi="http://sodipodi.sourceforge.net/DTD/sodipodi-0.dtd"
   xmlns:inkscape="http://www.inkscape.org/namespaces/inkscape"
   xml:space="preserve"
   width="1000"
   height="1000"
   version="1.1"
   style="clip-rule:evenodd;fill-rule:evenodd;image-rendering:optimizeQuality;shape-rendering:geometricPrecision;text-rendering:geometricPrecision"
   viewBox="0 0 1000 1000"
   id="svg10"
   sodipodi:docname="ല.svg"
   inkscape:version="1.0.1 (3bc2e813f5, 2020-09-07)"><metadata
   id="metadata14"><rdf:RDF><cc:Work
       rdf:about=""><dc:format>image/svg+xml</dc:format><dc:type
         rdf:resource="http://purl.org/dc/dcmitype/StillImage" /><dc:title /></cc:Work></rdf:RDF></metadata><sodipodi:namedview
   pagecolor="#ffffff"
   bordercolor="#666666"
   borderopacity="1"
   objecttolerance="10"
   gridtolerance="10"
   guidetolerance="10"
   inkscape:pageopacity="0"
   inkscape:pageshadow="2"
   inkscape:window-width="1920"
   inkscape:window-height="1015"
   id="namedview12"
   showgrid="false"
   inkscape:zoom="0.84890884"
   inkscape:cx="327.86116"
   inkscape:cy="503.78033"
   inkscape:window-x="1920"
   inkscape:window-y="0"
   inkscape:window-maximized="1"
   inkscape:current-layer="svg10"
   showguides="true"
   inkscape:guide-bbox="true"
   inkscape:document-rotation="0"><sodipodi:guide
     position="0,1000"
     orientation="0,1"
     id="guide16"
     inkscape:label=""
     inkscape:locked="true"
     inkscape:color="rgb(0,0,255)" /><sodipodi:guide
     position="1763.3122,2036.1693"
     orientation="1000,0"
     id="guide18" /><sodipodi:guide
     position="0,200"
     orientation="0,1"
     id="guide20"
     inkscape:label="base"
     inkscape:locked="true"
     inkscape:color="rgb(0,0,255)" /><inkscape:grid
     type="xygrid"
     id="grid24"
     originx="-473.37552"
     originy="-489.69235" /><sodipodi:guide
     position="0,0"
     orientation="0,1"
     id="guide34"
     inkscape:label="bottom"
     inkscape:locked="true"
     inkscape:color="rgb(0,0,255)" /><sodipodi:guide
     position="225.05109,1693.3186"
     orientation="0,1"
     id="guide44"
     inkscape:label=""
     inkscape:locked="false"
     inkscape:color="rgb(0,0,255)" /><sodipodi:guide
     position="0,900"
     orientation="0,1"
     id="guide46"
     inkscape:label=""
     inkscape:locked="true"
     inkscape:color="rgb(0,0,255)" /><sodipodi:guide
     position="570,565.46811"
     orientation="-1,0"
     id="guide841"
     inkscape:label=""
     inkscape:locked="false"
     inkscape:color="rgb(0,0,255)" /></sodipodi:namedview>
 <defs
   id="defs4"><inkscape:path-effect
   effect="spiro"
   id="path-effect854"
   is_visible="true"
   lpeversion="1" />
  <style
   type="text/css"
   id="style2">
   <![CDATA[
    .fil0 {fill:#EF7F1A;fill-rule:nonzero}
   ]]>
  </style>
 <inkscape:path-effect
   effect="spiro"
   id="path-effect1214"
   is_visible="true"
   lpeversion="1" /><inkscape:path-effect
   effect="spiro"
   id="path-effect1195"
   is_visible="true"
   lpeversion="1" /><inkscape:path-effect
   effect="spiro"
   id="path-effect992"
   is_visible="true"
   lpeversion="1" /><inkscape:path-effect
   effect="spiro"
   id="path-effect287"
   is_visible="true"
   lpeversion="1" /><inkscape:path-effect
   effect="spiro"
   id="path-effect1032"
   is_visible="true"
   lpeversion="1" /></defs>
 
<path
   style="display:inline;fill:#1a1a1a;fill-rule:nonzero;stroke:none;stroke-width:1.78195px;stroke-linecap:butt;stroke-linejoin:miter;stroke-opacity:1"
   d="m 334.33505,699.9195 c 26.66734,-10.56798 49.37074,-30.06209 65.70066,-53.6452 16.32991,-23.58311 26.47696,-51.12125 31.57787,-79.34907 C 443.07445,503.50209 429.5541,438.43746 414.10345,375.8665 398.65281,313.29555 381.07309,249.94591 384.4068,185.58184 385.91766,156.41163 391.76367,127.46965 401.69353,100 H 555.084 c -43.94085,57.1054 -67.43975,129.61424 -65.34756,201.63818 1.84103,63.37771 22.60845,124.42731 36.46606,186.29887 6.9288,30.93578 12.16794,62.40909 12.40438,94.11043 0.23644,31.70134 -4.66362,63.74574 -17.33259,92.80651 -15.22527,34.92455 -41.46979,64.65712 -73.21176,85.72796 -31.74198,21.07083 -68.81586,33.62534 -106.64871,38.12069 C 288.31521,805.01188 233.52905,795.46607 185.38194,772.204 137.23482,748.94192 95.835174,712.11346 66.527943,667.38813 22.082937,599.56127 6.4578119,516.70131 2.389349,435.71187 0.18891816,391.90868 1.1055547,347.7305 9.1434662,304.61492 17.181378,261.49934 32.54071,219.35703 57.509615,183.29992 80.012458,150.804 110.78718,123.26973 147.61544,108.91559 c 36.82827,-14.354139 79.91133,-14.514921 114.95402,3.77093 22.22903,11.59947 40.53747,30.11206 53.32705,51.67833 12.78958,21.56627 20.19354,46.09914 23.13595,70.99934 5.88481,49.80038 -5.74482,100.00956 -20.89852,147.81202 -26.55162,83.75727 -64.23033,163.97971 -111.7345,237.89603 L 95.35226,524.1299 c 63.10772,-32.11006 116.43108,-83.14865 151.27224,-144.79063 13.51313,-23.90781 24.49813,-50.31708 24.01355,-77.77528 -0.24229,-13.72911 -3.44516,-27.51595 -10.17723,-39.48366 -6.73208,-11.96771 -17.09723,-22.03124 -29.68407,-27.51926 -8.84897,-3.85826 -18.63936,-5.4136 -28.27935,-4.90273 -9.64,0.51087 -19.128,3.05806 -27.91066,7.06497 -17.56533,8.01381 -32.05828,21.66432 -43.89139,36.92012 -25.68245,33.11102 -39.774734,74.01884 -46.57277,115.36753 -13.906175,84.58357 3.093077,176.15885 56.35639,243.3212 22.79049,28.73765 52.17178,52.81892 86.37551,66.06141 34.20373,13.2425 73.38266,15.03856 107.48057,1.52593 z"
   id="path1188-4-2"
   inkscape:path-effect="#path-effect1032"
   inkscape:original-d="M 334.33505,699.9195 C 386.77573,683.58832 417.80269,620.08528 431.61358,566.92523 463.8206,442.95587 379.53149,313.57374 384.4068,185.58184 385.51457,156.49951 401.69353,100 401.69353,100 H 555.084 c 3.23178,33.45127 -57.27181,131.44693 -65.34756,201.63818 -14.27015,124.03044 84.91183,260.35127 31.53785,373.21581 C 490.15495,740.65888 413.98075,792.98097 341.41382,798.70264 240.18122,806.68451 131.76053,745.21139 66.527943,667.38813 15.053141,605.97808 4.5959496,515.81169 2.389349,435.71187 0.01780073,349.62444 0.26642852,247.64188 57.509615,183.29992 105.5617,129.28885 199.77092,76.873926 262.56946,112.68652 c 79.95787,45.59817 66.42328,179.08652 55.56448,270.48969 -10.33544,86.99791 -111.7345,237.89603 -111.7345,237.89603 L 95.35226,524.1299 c 0,0 127.39526,-79.20216 151.27224,-144.79063 16.60719,-45.61882 25.6733,-119.62115 -15.84775,-144.7782 -30.63033,-18.5585 -74.61336,13.90273 -100.0814,39.08236 -29.49102,29.15706 -44.334244,76.22263 -46.57277,115.36753 -2.924792,51.14643 27.26031,183.91011 56.35639,243.3212 43.89878,89.63618 128.51771,87.93515 193.85608,67.58734 z"
   sodipodi:nodetypes="aaascaaaaaaaascaaassa" /></svg>
