<?xml version="1.0" encoding="UTF-8" standalone="no"?>
<svg
   xmlns:dc="http://purl.org/dc/elements/1.1/"
   xmlns:cc="http://creativecommons.org/ns#"
   xmlns:rdf="http://www.w3.org/1999/02/22-rdf-syntax-ns#"
   xmlns:svg="http://www.w3.org/2000/svg"
   xmlns="http://www.w3.org/2000/svg"
   xmlns:sodipodi="http://sodipodi.sourceforge.net/DTD/sodipodi-0.dtd"
   xmlns:inkscape="http://www.inkscape.org/namespaces/inkscape"
   xml:space="preserve"
   width="1000"
   height="1000"
   version="1.1"
   style="clip-rule:evenodd;fill-rule:evenodd;image-rendering:optimizeQuality;shape-rendering:geometricPrecision;text-rendering:geometricPrecision"
   viewBox="0 0 1000 1000"
   id="svg10"
   sodipodi:docname="ല.svg"
   inkscape:version="1.0.1 (3bc2e813f5, 2020-09-07)"><metadata
   id="metadata14"><rdf:RDF><cc:Work
       rdf:about=""><dc:format>image/svg+xml</dc:format><dc:type
         rdf:resource="http://purl.org/dc/dcmitype/StillImage" /><dc:title /></cc:Work></rdf:RDF></metadata><sodipodi:namedview
   pagecolor="#ffffff"
   bordercolor="#666666"
   borderopacity="1"
   objecttolerance="10"
   gridtolerance="10"
   guidetolerance="10"
   inkscape:pageopacity="0"
   inkscape:pageshadow="2"
   inkscape:window-width="1920"
   inkscape:window-height="1015"
   id="namedview12"
   showgrid="false"
   inkscape:zoom="0.84890884"
   inkscape:cx="327.86116"
   inkscape:cy="503.78033"
   inkscape:window-x="1920"
   inkscape:window-y="0"
   inkscape:window-maximized="1"
   inkscape:current-layer="svg10"
   showguides="true"
   inkscape:guide-bbox="true"
   inkscape:document-rotation="0"><sodipodi:guide
     position="0,1000"
     orientation="0,1"
     id="guide16"
     inkscape:label=""
     inkscape:locked="true"
     inkscape:color="rgb(0,0,255)" /><sodipodi:guide
     position="1763.3122,2036.1693"
     orientation="1000,0"
     id="guide18" /><sodipodi:guide
     position="0,200"
     orientation="0,1"
     id="guide20"
     inkscape:label="base"
     inkscape:locked="true"
     inkscape:color="rgb(0,0,255)" /><inkscape:grid
     type="xygrid"
     id="grid24"
     originx="-473.37552"
     originy="-489.69235" /><sodipodi:guide
     position="0,0"
     orientation="0,1"
     id="guide34"
     inkscape:label="bottom"
     inkscape:locked="true"
     inkscape:color="rgb(0,0,255)" /><sodipodi:guide
     position="225.05109,1693.3186"
     orientation="0,1"
     id="guide44"
     inkscape:label=""
     inkscape:locked="false"
     inkscape:color="rgb(0,0,255)" /><sodipodi:guide
     position="0,900"
     orientation="0,1"
     id="guide46"
     inkscape:label=""
     inkscape:locked="true"
     inkscape:color="rgb(0,0,255)" /><sodipodi:guide
     position="559.5214,566.62769"
     orientation="-1,0"
     id="guide841"
     inkscape:label="width"
     inkscape:locked="false"
     inkscape:color="rgb(0,0,255)" /></sodipodi:namedview>
 <defs
   id="defs4"><inkscape:path-effect
   effect="spiro"
   id="path-effect854"
   is_visible="true"
   lpeversion="1" />
  <style
   type="text/css"
   id="style2">
   <![CDATA[
    .fil0 {fill:#EF7F1A;fill-rule:nonzero}
   ]]>
  </style>
 <inkscape:path-effect
   effect="spiro"
   id="path-effect1214"
   is_visible="true"
   lpeversion="1" /><inkscape:path-effect
   effect="spiro"
   id="path-effect1195"
   is_visible="true"
   lpeversion="1" /><inkscape:path-effect
   effect="spiro"
   id="path-effect992"
   is_visible="true"
   lpeversion="1" /><inkscape:path-effect
   effect="spiro"
   id="path-effect287"
   is_visible="true"
   lpeversion="1" /><inkscape:path-effect
   effect="spiro"
   id="path-effect1032"
   is_visible="true"
   lpeversion="1" /></defs>
 
<path
   style="display:inline;fill:#1a1a1a;fill-rule:nonzero;stroke:none;stroke-width:1.78195px;stroke-linecap:butt;stroke-linejoin:miter;stroke-opacity:1"
   d="m 340.33505,699.9195 c 26.51162,-10.7535 48.91646,-30.45164 65.11091,-54.03645 16.19446,-23.58481 26.40114,-50.93548 32.16762,-78.95782 12.80566,-62.22936 4.13971,-126.79214 -8.08028,-189.13916 C 417.31331,315.43906 401.51162,253.27227 400.06419,189.75547 399.3788,159.6789 401.94155,129.52938 407.69353,100 H 561.084 c -42.2321,56.73619 -64.85215,127.79212 -63.19118,198.50129 1.50055,63.88002 21.9824,125.54251 35.50994,187.9918 6.76377,31.22464 11.82441,62.97706 11.86084,94.92585 0.0364,31.9488 -5.0853,64.20812 -17.98931,93.43505 -15.37952,34.83383 -41.61624,64.50474 -73.32513,85.58724 -31.70888,21.08251 -68.73024,33.71169 -106.53534,38.26141 C 294.31531,805.09287 239.50416,795.55538 191.35465,772.2764 143.20513,748.99743 101.82388,712.13223 72.527943,667.38813 28.108957,599.54637 12.466067,516.6991 8.389349,435.71187 6.1843897,391.90861 7.1004052,347.72984 15.139167,304.61411 c 8.038762,-43.11572 23.40034,-85.25755 48.370448,-121.31419 22.503668,-32.49512 53.278255,-60.02897 90.106285,-74.3832 36.82804,-14.354231 79.91084,-14.515594 114.95356,3.7698 22.22919,11.59926 40.5378,30.11178 53.32747,51.67804 12.78967,21.56627 20.19366,46.0992 23.13604,70.99944 5.88475,49.80049 -5.74515,100.00972 -20.89903,147.81221 -26.55188,83.75717 -64.23057,163.97957 -111.7345,237.89603 L 101.35226,524.1299 c 63.1071,-32.11103 116.43013,-83.14932 151.27224,-144.79063 13.51365,-23.90782 24.49932,-50.31718 24.01489,-77.77566 -0.24222,-13.72924 -3.44517,-27.51624 -10.17749,-39.48397 -6.73233,-11.96772 -17.09792,-22.03109 -29.68515,-27.51857 -8.849,-3.85777 -18.63929,-5.41257 -28.27908,-4.90127 -9.6398,0.51131 -19.12751,3.05881 -27.90995,7.0658 -17.56487,8.01397 -32.05767,21.6637 -43.89237,36.91783 -25.68693,33.10871 -39.792349,74.01501 -46.57277,115.36753 -13.86708,84.57272 3.260697,176.04796 56.35639,243.3212 22.75007,28.82476 52.0811,53.04938 86.3085,66.3504 34.2274,13.30103 73.51926,15.03933 107.54758,1.23694 z"
   id="path1188-4-2"
   inkscape:path-effect="#path-effect1032"
   inkscape:original-d="M 340.33505,699.9195 C 392.77573,683.58832 423.16749,619.9162 437.61358,566.92523 470.84426,445.02888 400.97583,316.09694 400.06419,189.75547 399.84753,159.72987 407.69353,100 407.69353,100 H 561.084 c 3.23178,33.45127 -55.21341,129.52216 -63.19118,198.50129 -14.4568,124.99939 83.53938,262.77115 29.38147,376.3527 C 495.94481,740.5591 419.98075,792.98097 347.41382,798.70264 246.18122,806.68451 137.76053,745.21139 72.527943,667.38813 21.053141,605.97808 10.59595,515.81169 8.389349,435.71187 6.0178007,349.62444 6.2664285,247.64188 63.509615,183.29992 111.5617,129.28885 205.77092,76.873926 268.56946,112.68652 c 79.95787,45.59817 66.42328,179.08652 55.56448,270.48969 -10.33544,86.99791 -111.7345,237.89603 -111.7345,237.89603 L 101.35226,524.1299 c 0,0 127.39526,-79.20216 151.27224,-144.79063 16.60719,-45.61882 25.6733,-119.62115 -15.84775,-144.7782 -30.63033,-18.5585 -74.61336,13.90273 -100.0814,39.08236 -29.49102,29.15706 -44.334244,76.22263 -46.57277,115.36753 -2.924792,51.14643 27.26031,183.91011 56.35639,243.3212 43.89878,89.63618 128.51771,87.93515 193.85608,67.58734 z"
   sodipodi:nodetypes="aaascaaaaaaaascaaassa" /></svg>
