<?xml version="1.0" encoding="UTF-8" standalone="no"?>
<svg
   xmlns:dc="http://purl.org/dc/elements/1.1/"
   xmlns:cc="http://creativecommons.org/ns#"
   xmlns:rdf="http://www.w3.org/1999/02/22-rdf-syntax-ns#"
   xmlns:svg="http://www.w3.org/2000/svg"
   xmlns="http://www.w3.org/2000/svg"
   xmlns:sodipodi="http://sodipodi.sourceforge.net/DTD/sodipodi-0.dtd"
   xmlns:inkscape="http://www.inkscape.org/namespaces/inkscape"
   xml:space="preserve"
   width="1000"
   height="1000"
   version="1.1"
   style="clip-rule:evenodd;fill-rule:evenodd;image-rendering:optimizeQuality;shape-rendering:geometricPrecision;text-rendering:geometricPrecision"
   viewBox="0 0 1000 1000"
   id="svg10"
   sodipodi:docname="ള.svg"
   inkscape:version="1.0.1 (3bc2e813f5, 2020-09-07)"><metadata
   id="metadata14"><rdf:RDF><cc:Work
       rdf:about=""><dc:format>image/svg+xml</dc:format><dc:type
         rdf:resource="http://purl.org/dc/dcmitype/StillImage" /><dc:title /></cc:Work></rdf:RDF></metadata><sodipodi:namedview
   pagecolor="#ffffff"
   bordercolor="#666666"
   borderopacity="1"
   objecttolerance="10"
   gridtolerance="10"
   guidetolerance="10"
   inkscape:pageopacity="0"
   inkscape:pageshadow="2"
   inkscape:window-width="1920"
   inkscape:window-height="1015"
   id="namedview12"
   showgrid="false"
   inkscape:zoom="1.0519779"
   inkscape:cx="283.18246"
   inkscape:cy="355.10763"
   inkscape:window-x="1920"
   inkscape:window-y="0"
   inkscape:window-maximized="1"
   inkscape:current-layer="svg10"
   showguides="true"
   inkscape:guide-bbox="true"
   inkscape:document-rotation="0"><sodipodi:guide
     position="0,1000"
     orientation="0,1"
     id="guide16"
     inkscape:label=""
     inkscape:locked="true"
     inkscape:color="rgb(0,0,255)" /><sodipodi:guide
     position="1763.3122,2036.1693"
     orientation="1000,0"
     id="guide18" /><sodipodi:guide
     position="0,200"
     orientation="0,1"
     id="guide20"
     inkscape:label="base"
     inkscape:locked="true"
     inkscape:color="rgb(0,0,255)" /><inkscape:grid
     type="xygrid"
     id="grid24"
     originx="-473.37552"
     originy="-489.69235" /><sodipodi:guide
     position="0,0"
     orientation="0,1"
     id="guide34"
     inkscape:label="bottom"
     inkscape:locked="true"
     inkscape:color="rgb(0,0,255)" /><sodipodi:guide
     position="225.05109,1693.3186"
     orientation="0,1"
     id="guide44"
     inkscape:label=""
     inkscape:locked="false"
     inkscape:color="rgb(0,0,255)" /><sodipodi:guide
     position="0,900"
     orientation="0,1"
     id="guide46"
     inkscape:label=""
     inkscape:locked="true"
     inkscape:color="rgb(0,0,255)" /><sodipodi:guide
     position="504.43575,543.15625"
     orientation="1,0"
     id="guide841" /></sodipodi:namedview>
 <defs
   id="defs4"><inkscape:path-effect
   effect="spiro"
   id="path-effect844"
   is_visible="true"
   lpeversion="1" />
  <style
   type="text/css"
   id="style2">
   <![CDATA[
    .fil0 {fill:#EF7F1A;fill-rule:nonzero}
   ]]>
  </style>
 <inkscape:path-effect
   effect="spiro"
   id="path-effect1214"
   is_visible="true"
   lpeversion="1" /><inkscape:path-effect
   effect="spiro"
   id="path-effect1195"
   is_visible="true"
   lpeversion="1" /><inkscape:path-effect
   effect="spiro"
   id="path-effect992"
   is_visible="true"
   lpeversion="1" /></defs>
 
<path
   style="fill:#2d2d2d;fill-rule:nonzero;stroke:none;stroke-width:1px;stroke-linecap:butt;stroke-linejoin:miter;stroke-opacity:1"
   d="M 47.576338,299.25224 139.2154,212.12418 c 43.96563,67.59599 73.26185,144.68042 85.28958,224.41453 4.68992,31.09038 6.72445,63.2707 -1.45183,93.63113 -4.08814,15.18021 -10.74697,29.75582 -20.31347,42.23115 -9.5665,12.47533 -22.10178,22.80177 -36.56751,28.9576 -20.0723,8.54168 -43.2824,8.67422 -64.01426,1.88841 C 81.426045,596.46119 63.161189,583.04142 49.165203,566.30912 21.173232,532.84453 10.722101,487.95227 7.9709891,444.41079 3.221958,369.24849 19.641693,291.83192 60.542956,228.59419 92.4447,179.27068 139.00089,139.32912 193.13452,116.52385 c 28.92875,-12.18703 60.18299,-19.548693 91.5644,-18.772077 31.38141,0.776616 62.89509,9.988947 88.25281,28.492517 33.67515,24.57281 54.49711,64.1342 62.05728,105.13032 11.46668,62.17971 -6.76426,129.17093 -48.1591,176.96495 48.27711,11.51938 89.85778,48.04797 107.50027,94.4389 9.48299,24.93553 12.29135,52.30512 8.60256,78.72672 -3.68879,26.4216 -13.81885,51.85937 -28.85878,73.89363 -30.07985,44.06852 -79.52128,73.45283 -132.04186,82.85607 -33.25888,5.95464 -67.33268,4.35638 -101.11454,3.72598 -33.78185,-0.63039 -68.13815,-0.19204 -100.474,9.60613 -14.8618,4.50331 -29.67239,11.35815 -39.48374,23.3952 -4.905677,6.01852 -8.415748,13.26785 -9.48793,20.95802 -1.072182,7.69017 0.393631,15.81088 4.602041,22.33603 3.008971,4.66542 7.330039,8.41929 12.200259,11.08406 4.87021,2.66477 10.27914,4.26696 15.77279,5.06691 10.98728,1.5999 22.16198,0.0404 33.15063,-1.55006 129.6236,-18.76138 258.60337,-41.97065 386.63604,-69.57324 l 22.64045,165.76893 c -61.93163,-24.68896 -129.76303,-34.42935 -196.13945,-28.16503 -49.58194,4.67933 -98.08978,18.09639 -147.76267,21.68372 -24.83644,1.79367 -50.0099,1.09035 -74.30733,-4.35952 -24.29743,-5.44987 -47.74661,-15.79699 -66.772569,-31.86183 -17.88006,-15.09728 -31.567459,-35.12198 -39.081118,-57.28432 -7.51366,-22.16234 -8.824504,-46.4003 -3.682873,-69.22984 5.020119,-22.29001 16.089282,-43.05418 30.991255,-60.37404 14.901972,-17.31985 33.566035,-31.24426 53.939355,-41.5871 40.74662,-20.68569 87.49605,-26.89018 133.18688,-26.16001 40.91,0.65377 82.84977,6.47707 122.04071,-5.27561 19.59548,-5.87633 38.18054,-16.34768 51.38025,-31.9772 6.59985,-7.81476 11.79063,-16.85961 14.8733,-26.61285 3.08266,-9.75323 4.02995,-20.21597 2.40234,-30.31445 -2.9777,-18.47514 -14.56455,-34.95764 -29.72191,-45.9327 -15.15736,-10.97506 -33.63279,-16.76285 -52.23717,-18.78135 -30.13205,-3.2692 -61.24228,3.17811 -87.59343,18.15292 l -9.31515,-113.88767 c 20.10865,7.42736 43.61922,4.93957 61.72809,-6.53181 11.11096,-7.03843 20.16052,-17.26199 25.90291,-29.09491 5.74238,-11.83292 8.17359,-25.2351 7.06932,-38.34134 -1.08664,-12.89696 -5.56131,-25.44314 -12.52539,-36.35249 -6.96408,-10.90934 -16.38143,-20.1903 -27.15875,-27.357 -21.55465,-14.3334 -48.13776,-19.97154 -74.0024,-18.93734 -46.1969,1.84719 -90.34973,24.46134 -122.34297,57.83796 -33.701834,35.15909 -54.615378,82.20632 -58.680242,130.73932 -1.793522,21.414 -0.204725,43.82792 9.869626,62.80906 5.037175,9.49057 12.180033,17.95085 21.109609,23.92636 8.929577,5.97551 19.680487,9.37996 30.415677,8.93313 11.62411,-0.48383 22.88194,-5.49178 31.53523,-13.26831 8.65329,-7.77654 14.74981,-18.20654 18.01157,-29.37412 6.52353,-22.33516 1.77448,-46.66647 -7.65134,-67.94016 C 160.9545,369.28044 143.5736,347.25561 121.94323,330.75415 100.31286,314.25269 74.478252,303.30912 47.576338,299.25224 Z"
   id="path842"
   inkscape:path-effect="#path-effect844"
   inkscape:original-d="M 47.576338,299.25224 139.2154,212.12418 c 0,0 84.36801,144.39471 85.28958,224.41453 0.67115,58.27545 -1.51737,151.83973 -58.33281,164.81988 C 93.756087,617.9029 28.157504,515.89721 7.9709891,444.41079 -12.150461,373.15479 21.589078,291.56153 60.542956,228.59419 c 30.44543,-49.21378 77.730064,-93.6547 132.591564,-112.07034 56.90611,-19.101968 128.51102,-21.43827 179.81721,9.72044 34.78155,21.12314 56.62988,64.80059 62.05728,105.13032 8.1536,60.58746 -48.1591,176.96495 -48.1591,176.96495 0,0 100.94156,47.19501 107.50027,94.4389 12.854,92.59039 -71.70903,188.10964 -152.29808,235.47642 -58.05735,34.1236 -143.31111,-20.41426 -201.58854,13.33211 -23.10591,13.3798 -54.139829,41.8408 -44.369629,66.68925 7.665259,19.49497 40.184229,14.00983 61.123679,14.60091 130.89648,3.69495 386.63604,-69.57324 386.63604,-69.57324 l 22.64045,165.76893 c 0,0 -130.39602,-21.804 -196.13945,-28.16503 C 274.40002,891.62368 158.39873,944.52453 81.512081,886.37018 46.008517,859.51654 23.197014,801.56675 38.74809,759.85602 68.204908,680.84763 182.66243,671.78387 256.86558,631.73487 c 62.38829,-33.67228 183.27946,-23.67403 190.6966,-94.18011 3.64179,-34.61829 -48.08241,-56.71032 -81.95908,-64.71405 -29.0193,-6.85612 -87.59343,18.15292 -87.59343,18.15292 l -9.31515,-113.88767 c 0,0 44.77749,5.33372 61.72809,-6.53181 20.4986,-14.34914 39.01031,-43.15391 32.97223,-67.43625 -11.30576,-45.4664 -67.04018,-78.27297 -113.68654,-82.64683 -44.91155,-4.21119 -90.7626,25.62831 -122.34297,57.83796 -33.442324,34.10871 -62.227747,83.10311 -58.680242,130.73932 2.814007,37.78674 23.709056,99.60968 61.394912,95.66855 39.20382,-4.09987 52.73094,-72.6835 41.89546,-110.58259 C 157.63854,344.00828 47.576338,299.25224 47.576338,299.25224 Z"
   sodipodi:nodetypes="ccaaaaaaacaaaaaccaaaaaaccaaaaaaac" /></svg>
