<?xml version="1.0" encoding="UTF-8"?>
<!DOCTYPE svg PUBLIC "-//W3C//DTD SVG 1.1//EN" "http://www.w3.org/Graphics/SVG/1.1/DTD/svg11.dtd">
<!-- Creator: CorelDRAW X8 -->
<svg xmlns="http://www.w3.org/2000/svg" xml:space="preserve" width="952px" height="593px" version="1.1" style="shape-rendering:geometricPrecision; text-rendering:geometricPrecision; image-rendering:optimizeQuality; fill-rule:evenodd; clip-rule:evenodd"
viewBox="0 0 952 593"
 xmlns:xlink="http://www.w3.org/1999/xlink">
 <defs>
  <style type="text/css">
   <![CDATA[
    .fil0 {fill:#EF7F1A;fill-rule:nonzero}
   ]]>
  </style>
 </defs>
 <g id="Layer_x0020_1">
  <metadata id="CorelCorpID_0Corel-Layer"/>
  <path class="fil0" d="M233 593c20,0 40,-4 55,-13 11,-6 16,-14 16,-21 0,-9 -8,-19 -22,-25 -91,-42 -139,-136 -139,-232 0,-118 78,-234 207,-234 129,-1 207,114 207,234 0,95 -49,184 -139,225 -10,4 -21,14 -21,25 0,28 52,34 72,34l412 0c20,0 71,-7 71,-34l0 -517c0,-28 -51,-35 -71,-35 -21,0 -72,7 -72,35l0 482 -202 0c59,-55 93,-135 93,-215 0,-193 -171,-302 -350,-302 -178,0 -350,109 -350,302 0,118 70,228 178,280 15,7 35,11 55,11z"/>
 </g>
</svg>
