<?xml version="1.0" encoding="UTF-8" standalone="no"?>
<svg
   xmlns:dc="http://purl.org/dc/elements/1.1/"
   xmlns:cc="http://creativecommons.org/ns#"
   xmlns:rdf="http://www.w3.org/1999/02/22-rdf-syntax-ns#"
   xmlns:svg="http://www.w3.org/2000/svg"
   xmlns="http://www.w3.org/2000/svg"
   xmlns:sodipodi="http://sodipodi.sourceforge.net/DTD/sodipodi-0.dtd"
   xmlns:inkscape="http://www.inkscape.org/namespaces/inkscape"
   xml:space="preserve"
   width="1000"
   height="1000"
   version="1.1"
   style="clip-rule:evenodd;fill-rule:evenodd;image-rendering:optimizeQuality;shape-rendering:geometricPrecision;text-rendering:geometricPrecision"
   viewBox="0 0 1000 1000"
   id="svg10"
   sodipodi:docname="വ്ര.svg"
   inkscape:version="1.0.1 (3bc2e813f5, 2020-09-07)"><metadata
   id="metadata14"><rdf:RDF><cc:Work
       rdf:about=""><dc:format>image/svg+xml</dc:format><dc:type
         rdf:resource="http://purl.org/dc/dcmitype/StillImage" /><dc:title /></cc:Work></rdf:RDF></metadata><sodipodi:namedview
   pagecolor="#ffffff"
   bordercolor="#666666"
   borderopacity="1"
   objecttolerance="10"
   gridtolerance="10"
   guidetolerance="10"
   inkscape:pageopacity="0"
   inkscape:pageshadow="2"
   inkscape:window-width="1920"
   inkscape:window-height="1015"
   id="namedview12"
   showgrid="false"
   inkscape:zoom="0.84890884"
   inkscape:cx="314.88388"
   inkscape:cy="368.72514"
   inkscape:window-x="1920"
   inkscape:window-y="0"
   inkscape:window-maximized="1"
   inkscape:current-layer="svg10"
   showguides="true"
   inkscape:guide-bbox="true"
   inkscape:document-rotation="0"><sodipodi:guide
     position="0,1000"
     orientation="0,1"
     id="guide16"
     inkscape:label=""
     inkscape:locked="true"
     inkscape:color="rgb(0,0,255)" /><sodipodi:guide
     position="1763.3122,2036.1693"
     orientation="1000,0"
     id="guide18" /><sodipodi:guide
     position="0,200"
     orientation="0,1"
     id="guide20"
     inkscape:label="base"
     inkscape:locked="true"
     inkscape:color="rgb(0,0,255)" /><inkscape:grid
     type="xygrid"
     id="grid24"
     originx="-473.37552"
     originy="-489.69235" /><sodipodi:guide
     position="0,0"
     orientation="0,1"
     id="guide34"
     inkscape:label="bottom"
     inkscape:locked="true"
     inkscape:color="rgb(0,0,255)" /><sodipodi:guide
     position="225.05109,1693.3186"
     orientation="0,1"
     id="guide44"
     inkscape:label=""
     inkscape:locked="false"
     inkscape:color="rgb(0,0,255)" /><sodipodi:guide
     position="0,900"
     orientation="0,1"
     id="guide46"
     inkscape:label=""
     inkscape:locked="true"
     inkscape:color="rgb(0,0,255)" /><sodipodi:guide
     position="774.38679,944.96256"
     orientation="1,0"
     id="guide841" /></sodipodi:namedview>
 <defs
   id="defs4"><inkscape:path-effect
   effect="spiro"
   id="path-effect854"
   is_visible="true"
   lpeversion="1" />
  <style
   type="text/css"
   id="style2">
   <![CDATA[
    .fil0 {fill:#EF7F1A;fill-rule:nonzero}
   ]]>
  </style>
 <inkscape:path-effect
   effect="spiro"
   id="path-effect1214"
   is_visible="true"
   lpeversion="1" /><inkscape:path-effect
   effect="spiro"
   id="path-effect1195"
   is_visible="true"
   lpeversion="1" /><inkscape:path-effect
   effect="spiro"
   id="path-effect992"
   is_visible="true"
   lpeversion="1" /><inkscape:path-effect
   effect="spiro"
   id="path-effect287"
   is_visible="true"
   lpeversion="1" /></defs>
 
<path
   style="display:inline;fill:#1a1a1a;stroke:none;stroke-width:1.96742;stroke-linecap:butt;stroke-linejoin:miter;stroke-miterlimit:4;stroke-dasharray:none;stroke-opacity:1"
   d="m 13.07337,627.25523 c 13.567618,98.72187 50.018307,195.67642 113.76447,272.2696 63.74616,76.59318 156.1536,131.30027 255.43763,139.83087 60.52374,5.2002 122.28505,-6.7143 177.01454,-33.0743 54.72948,-26.35995 102.35696,-67.0011 137.8958,-116.26728 54.07799,-74.96631 79.45028,-169.39705 73.99161,-261.67153 -4.97035,-84.01983 -34.23326,-164.76512 -44.65039,-248.2847 -6.08126,-48.75666 -5.66699,-98.42669 2.70036,-146.84343 8.00579,-46.32465 23.29241,-91.38354 45.12704,-133.01663 L 615.76145,100 c -6.03056,24.13512 -8.56216,49.14159 -7.49115,73.99566 2.50199,58.06166 24.28514,113.24619 41.02572,168.8984 18.30014,60.83681 30.83747,124.01056 29.19477,187.51894 -0.6896,26.66061 -3.95459,53.56501 -13.52122,78.45965 -9.56663,24.89465 -25.87072,47.77945 -48.5386,61.83045 -24.78317,15.36219 -55.411,19.13645 -84.37362,15.76466 -22.32617,-2.59918 -44.17693,-9.22936 -64.18292,-19.47504 16.85121,-15.36567 32.08326,-32.50594 45.36277,-51.04567 45.99069,-64.2083 67.37986,-144.41483 65.96659,-223.38224 -0.848,-47.38291 -9.82369,-95.22641 -31.52641,-137.35539 -21.70273,-42.12898 -56.86823,-78.22108 -100.80635,-95.97781 -36.33869,-14.68557 -77.45242,-16.30466 -115.4348,-6.63483 -37.98237,9.66983 -72.81267,30.31757 -101.11937,57.42655 -30.95682,29.64697 -54.39887,67.22178 -66.63982,108.30008 -14.69286,49.30645 -13.12975,102.03841 -6.548,153.06474 12.60217,97.70083 43.11692,193.98795 38.49645,292.38977 -1.03006,21.9372 -3.81528,43.79175 -8.32027,65.2861 l 136.47814,-32.80957 c -5.94543,-30.05215 -13.77788,-59.73085 -23.4359,-88.80321 -24.50999,-73.77943 -61.02233,-144.76141 -69.13911,-222.08063 -3.86642,-36.83091 -0.88609,-75.10759 14.35698,-108.85835 7.62154,-16.87538 18.27464,-32.45633 31.77598,-45.12835 13.50134,-12.67202 29.88386,-22.38499 47.70361,-27.41717 33.90874,-9.57562 71.74879,-1.28086 100.32216,19.33607 28.57337,20.61693 47.99844,52.67423 55.99522,86.98963 7.58487,32.54782 5.31353,66.97498 -3.85175,99.11356 -9.16528,32.13859 -25.0435,62.09446 -44.25219,89.44254 -8.73355,12.43426 -18.73203,24.82821 -32.59339,31.05304 -14.36786,6.45229 -31.96097,5.12377 -45.19695,-3.41299 4.60242,25.79438 7.68118,51.86054 9.21488,78.01738 1.53799,26.22995 1.52225,52.55092 -0.0471,78.77902 34.6003,-3.17978 69.25854,-5.72913 103.95171,-7.64634 73.61108,-4.06789 147.37945,-5.28886 221.08483,-3.65927 -28.21414,46.61509 -68.4152,85.90674 -115.66355,113.04706 -47.24836,27.14033 -101.44272,42.07115 -155.92408,42.95787 -60.05722,0.97747 -120.21767,-15.14919 -172.05113,-45.4991 C 194.20012,852.1353 150.79508,807.70503 121.11827,755.48327 88.368111,697.85339 72.495425,631.54693 69.707009,565.32004 66.918593,499.09316 76.848335,432.80736 93.16362,368.56106 113.97816,286.59759 145.24107,207.29347 185.95635,133.17517 L 49.86876,100.19783 c -2.61274,25.67575 -5.538507,51.31964 -8.77643,76.92406 C 22.16846,326.76554 -7.4633221,477.82438 13.07337,627.25523 Z"
   id="use1029"
   sodipodi:nodetypes="aaasaaccsasaacaaaaaaaccaaaasacscacaasccaa"
   inkscape:path-effect="#path-effect854"
   inkscape:original-d="m 13.07337,627.25523 c 60.494613,174.22867 188.39926,375.69227 369.2021,412.10047 113.88969,22.934 239.91051,-60.61811 314.91034,-149.34158 58.51709,-69.22468 72.78943,-254.68533 73.99161,-261.67153 14.26042,-82.8712 -37.94944,-164.46291 -44.65039,-248.2847 -3.90124,-48.8004 -5.71387,-98.61585 2.70036,-146.84343 8.04727,-46.12429 45.12704,-133.01663 45.12704,-133.01663 L 615.76145,100 c 0,0 -13.2093,55.40375 -7.49115,73.99566 5.71814,18.59191 29.7218,112.07531 41.02572,168.8984 12.34245,62.04359 28.37536,101.6675 29.19477,187.51894 0.30882,32.33205 -21.96385,108.55585 -62.05982,140.2901 -22.43481,17.75607 -55.80555,17.3359 -84.37362,15.76466 -22.32378,-1.22783 -26.40122,-5.67556 -64.18292,-19.47504 8.87944,-26.52876 34.31329,-31.14418 45.36277,-51.04567 37.68715,-67.87924 74.8277,-146.24993 65.96659,-223.38224 -10.20511,-88.83133 -50.40839,-197.50657 -132.33276,-233.3332 -67.93189,-29.70753 -156.41698,7.42356 -216.55417,50.79172 -34.37953,24.79292 -54.22779,67.77129 -66.63982,108.30008 -14.95419,48.82968 -8.79824,102.0461 -6.548,153.06474 4.33162,98.2089 38.29254,194.08561 38.49645,292.38977 0.0455,21.938 -11.18624,35.68045 -8.32027,65.2861 l 136.47814,-32.80957 c -24.88099,-55.73853 -14.97777,-59.38026 -23.4359,-88.80321 -21.42023,-74.51367 -75.93617,-144.84778 -69.13911,-222.08063 5.96838,-67.81681 27.84144,-164.6891 93.83657,-181.40387 61.08814,-15.47197 134.00905,47.38946 156.31738,106.3257 22.96258,60.66471 -30.4,163.85426 -48.10394,188.5561 -11.42893,15.94659 -19.3516,26.06815 -32.59339,31.05304 -14.4016,5.42182 -33.76311,0.28383 -45.19695,-3.41299 10.40833,23.7387 9.05882,49.76751 9.21488,78.01738 0.1445,26.12728 2.25796,54.39521 -0.0471,78.77902 0,0 69.24268,-6.08382 103.95171,-7.64634 73.63046,-3.31466 158.62606,31.29044 221.08483,-3.65927 C 691.2495,752.3089 522.48607,928.23711 418.08471,927.98431 303.60764,927.70711 181.76598,852.57565 121.11827,755.48327 52.61242,645.81063 97.13566,473.31037 93.16362,368.56106 90.138085,288.77266 165.95001,208.65128 185.95635,133.17517 L 49.86876,100.19783 c 32.451568,53.23668 -6.51128,51.21596 -8.77643,76.92406 C 27.89742,326.87655 -36.23716,485.2375 13.07337,627.25523 Z" /></svg>
