<?xml version="1.0" encoding="UTF-8"?>
<!DOCTYPE svg PUBLIC "-//W3C//DTD SVG 1.1//EN" "http://www.w3.org/Graphics/SVG/1.1/DTD/svg11.dtd">
<!-- Creator: CorelDRAW X8 -->
<svg xmlns="http://www.w3.org/2000/svg" xml:space="preserve" width="3369px" height="1024px" version="1.1" style="shape-rendering:geometricPrecision; text-rendering:geometricPrecision; image-rendering:optimizeQuality; fill-rule:evenodd; clip-rule:evenodd"
viewBox="0 0 3369 1024"
 xmlns:xlink="http://www.w3.org/1999/xlink">
 <defs>
  <style type="text/css">
   <![CDATA[
    .fil0 {fill:#EF7F1A;fill-rule:nonzero}
   ]]>
  </style>
 </defs>
 <g id="Layer_x0020_1">
  <metadata id="CorelCorpID_0Corel-Layer"/>
  <path class="fil0" d="M1158 111c15,0 30,2 45,5 -100,83 -164,209 -164,339 0,183 131,295 310,295 179,0 313,-110 312,-295 0,-129 -64,-255 -164,-339 16,-3 30,-4 46,-4 69,0 135,31 183,76 82,77 123,189 123,298 0,203 -143,402 -359,402l-349 0c-32,0 -102,14 -102,55 0,42 70,56 102,56l1311 0c32,0 101,-13 102,-54 0,-14 -9,-27 -24,-37 -122,-81 -188,-211 -188,-355 0,-104 28,-200 81,-275 80,-115 196,-167 335,-167 88,0 169,23 239,79 -122,21 -235,78 -311,176 -60,78 -92,178 -92,276 0,80 21,162 67,229 72,106 193,153 315,153 131,0 250,-55 319,-167 51,-83 74,-193 74,-290 0,-93 -17,-179 -60,-264 -104,-204 -325,-303 -551,-303 -183,0 -372,63 -489,194 -81,90 -130,213 -130,359 0,126 46,242 130,335l-420 0c131,-94 202,-242 202,-402 0,-160 -75,-308 -210,-398 -88,-59 -192,-87 -298,-87 -64,0 -132,11 -193,32 -61,-22 -129,-33 -195,-33 -161,0 -341,59 -434,197 -74,110 -72,199 -70,326 1,136 10,391 -184,390 -182,0 -265,-241 -265,-390 0,-165 82,-362 248,-421 25,-9 46,-27 46,-47 0,-10 -4,-20 -16,-30 -21,-18 -51,-25 -81,-25 -23,0 -47,4 -67,12 -215,80 -332,293 -332,511 0,281 177,501 467,501 338,0 385,-223 385,-501 0,-101 -4,-173 45,-265 53,-99 154,-147 261,-147zm1818 802c-54,0 -98,-39 -126,-81 -37,-55 -53,-124 -53,-190 0,-83 24,-166 76,-233 52,-68 129,-112 217,-117 54,82 76,179 76,275 0,88 -16,178 -63,254 -27,44 -70,93 -127,92zm-1627 -276c-79,0 -108,-122 -108,-182 1,-93 41,-191 109,-258 67,67 108,164 108,258 0,63 -29,182 -109,182z"/>
 </g>
</svg>
