<?xml version="1.0" encoding="UTF-8"?>
<!DOCTYPE svg PUBLIC "-//W3C//DTD SVG 1.1//EN" "http://www.w3.org/Graphics/SVG/1.1/DTD/svg11.dtd">
<!-- Creator: CorelDRAW X8 -->
<svg xmlns="http://www.w3.org/2000/svg" xml:space="preserve" width="1482px" height="868px" version="1.1" style="shape-rendering:geometricPrecision; text-rendering:geometricPrecision; image-rendering:optimizeQuality; fill-rule:evenodd; clip-rule:evenodd"
viewBox="0 0 1482 868"
 xmlns:xlink="http://www.w3.org/1999/xlink">
 <defs>
  <style type="text/css">
   <![CDATA[
    .fil0 {fill:#EF7F1A;fill-rule:nonzero}
   ]]>
  </style>
 </defs>
 <g id="Layer_x0020_1">
  <metadata id="CorelCorpID_0Corel-Layer"/>
  <path class="fil0" d="M515 601c209,0 243,-100 243,-285 0,-54 0,-114 27,-163 29,-53 84,-83 146,-83 45,0 89,16 125,43 -72,13 -139,45 -185,102 -36,45 -55,104 -55,161 0,47 13,94 40,133 46,67 124,91 197,91 80,0 161,-30 204,-99 31,-49 44,-104 44,-161 0,-28 -3,-56 -9,-84 39,42 56,102 56,158 0,83 -27,159 -82,221 -107,122 -333,164 -489,164 -153,0 -319,-26 -447,-114 -128,-87 -187,-219 -187,-371 0,-100 32,-202 123,-257 11,-7 15,-14 15,-22 0,-9 -8,-19 -21,-25 -13,-7 -32,-10 -50,-10 -21,0 -41,4 -55,13 -109,66 -155,179 -155,301 0,182 82,330 237,426 156,96 359,128 540,128 187,0 439,-49 580,-178 82,-75 125,-170 125,-281 0,-79 -25,-141 -67,-189 -46,-52 -114,-85 -193,-103 -73,-83 -183,-116 -291,-116 -101,0 -213,30 -273,116 -42,60 -42,128 -42,199 0,77 8,216 -101,216 -104,0 -147,-132 -147,-218 0,-100 44,-215 147,-250 15,-5 30,-17 30,-29 0,-6 -3,-12 -11,-18 -14,-12 -36,-16 -58,-16 -18,0 -35,3 -49,8 -132,47 -201,169 -201,305 0,171 121,287 289,287zm538 -70c-38,0 -64,-31 -78,-64 -12,-29 -15,-60 -15,-91 0,-46 15,-96 42,-133 28,-38 66,-62 113,-67 30,47 43,109 43,164 0,46 -10,100 -33,140 -15,27 -38,51 -72,51z"/>
 </g>
</svg>
