<?xml version="1.0" encoding="UTF-8"?>
<!DOCTYPE svg PUBLIC "-//W3C//DTD SVG 1.1//EN" "http://www.w3.org/Graphics/SVG/1.1/DTD/svg11.dtd">
<!-- Creator: CorelDRAW X8 -->
<svg xmlns="http://www.w3.org/2000/svg" xml:space="preserve" width="1272px" height="868px" version="1.1" style="shape-rendering:geometricPrecision; text-rendering:geometricPrecision; image-rendering:optimizeQuality; fill-rule:evenodd; clip-rule:evenodd"
viewBox="0 0 1272 868"
 xmlns:xlink="http://www.w3.org/1999/xlink">
 <defs>
  <style type="text/css">
   <![CDATA[
    .fil0 {fill:#EF7F1A;fill-rule:nonzero}
   ]]>
  </style>
 </defs>
 <g id="Layer_x0020_1">
  <metadata id="CorelCorpID_0Corel-Layer"/>
  <path class="fil0" d="M827 530c-38,0 -64,-31 -78,-64 -12,-29 -15,-60 -15,-91 0,-46 15,-96 42,-133 28,-38 66,-62 113,-67 30,47 43,109 43,164 0,46 -10,100 -33,140 -15,27 -38,51 -72,51zm-538 70c209,0 243,-99 243,-285 0,-54 0,-114 27,-163 29,-53 84,-83 146,-83 45,0 89,16 125,43 -72,13 -139,45 -185,102 -36,46 -55,104 -55,161 0,47 13,94 40,133 46,67 124,91 197,91 80,0 161,-30 204,-99 31,-49 44,-104 44,-161 0,-25 -2,-50 -7,-75 49,60 69,132 69,209 0,80 -25,182 -77,245 -26,-28 -74,-45 -110,-53 -41,-9 -83,-12 -125,-12 -46,0 -94,4 -138,15 -43,11 -119,39 -119,92 0,53 73,81 116,92 41,10 87,16 141,16 46,0 95,-5 143,-16 47,-11 93,-27 131,-50 120,-72 171,-195 173,-329 2,-175 -97,-314 -276,-357 -73,-83 -183,-116 -291,-116 -101,0 -214,31 -273,116 -42,60 -42,129 -42,199 0,77 8,216 -101,216 -104,0 -147,-132 -147,-218 0,-100 44,-215 147,-250 15,-5 30,-17 30,-29 0,-6 -3,-12 -11,-18 -14,-12 -36,-16 -58,-16 -18,0 -35,3 -49,8 -132,47 -201,169 -201,305 0,171 121,287 289,287zm536 203c-84,0 -123,-22 -123,-43 0,-21 44,-41 123,-41 78,0 119,21 119,41 0,20 -37,43 -119,43z"/>
 </g>
</svg>
