<?xml version="1.0" encoding="UTF-8"?>
<!DOCTYPE svg PUBLIC "-//W3C//DTD SVG 1.1//EN" "http://www.w3.org/Graphics/SVG/1.1/DTD/svg11.dtd">
<!-- Creator: CorelDRAW X8 -->
<svg xmlns="http://www.w3.org/2000/svg" xml:space="preserve" width="2085px" height="1486px" version="1.1" style="shape-rendering:geometricPrecision; text-rendering:geometricPrecision; image-rendering:optimizeQuality; fill-rule:evenodd; clip-rule:evenodd"
viewBox="0 0 2085 1486"
 xmlns:xlink="http://www.w3.org/1999/xlink">
 <defs>
  <style type="text/css">
   <![CDATA[
    .fil0 {fill:#EF7F1A;fill-rule:nonzero}
   ]]>
  </style>
 </defs>
 <g id="Layer_x0020_1">
  <metadata id="CorelCorpID_0Corel-Layer"/>
  <path class="fil0" d="M1365 912c-54,-1 -98,-39 -126,-81 -37,-55 -53,-124 -53,-190 0,-82 24,-166 76,-233 52,-68 129,-112 217,-116 54,82 76,179 76,275 0,88 -16,177 -63,253 -27,44 -70,93 -127,92zm-898 112c338,0 385,-223 385,-501 0,-101 -4,-173 45,-265 52,-98 151,-147 263,-147 87,0 158,24 226,78 -122,21 -235,78 -311,176 -60,78 -92,179 -92,276 0,80 21,162 67,229 72,106 193,153 315,153 131,0 250,-55 319,-167 52,-85 74,-190 74,-289 0,-57 -6,-110 -20,-162 104,110 160,240 160,402 0,156 -52,345 -150,448 -35,-61 -129,-96 -195,-111 -64,-15 -130,-20 -196,-20 -72,0 -147,6 -216,23 -73,19 -195,68 -195,157 -1,88 117,138 189,157 66,17 153,25 222,25 71,0 147,-8 222,-25 79,-18 155,-46 218,-86 204,-127 286,-339 288,-568 3,-289 -155,-545 -457,-611 -114,-132 -285,-196 -468,-196 -163,0 -344,56 -439,197 -75,110 -72,199 -71,326 2,135 11,390 -183,390 -182,-1 -265,-241 -265,-390 0,-165 82,-362 248,-421 25,-9 46,-27 46,-47 0,-10 -4,-20 -16,-30 -21,-18 -51,-25 -81,-25 -23,0 -47,4 -67,12 -215,80 -332,293 -332,511 0,281 177,501 467,501zm890 357c-151,0 -222,-39 -222,-77 0,-39 79,-76 222,-76 142,0 216,40 216,76 0,37 -67,77 -216,77z"/>
 </g>
</svg>
