<?xml version="1.0" encoding="UTF-8" standalone="no"?>
<svg
   xmlns:dc="http://purl.org/dc/elements/1.1/"
   xmlns:cc="http://creativecommons.org/ns#"
   xmlns:rdf="http://www.w3.org/1999/02/22-rdf-syntax-ns#"
   xmlns:svg="http://www.w3.org/2000/svg"
   xmlns="http://www.w3.org/2000/svg"
   xmlns:sodipodi="http://sodipodi.sourceforge.net/DTD/sodipodi-0.dtd"
   xmlns:inkscape="http://www.inkscape.org/namespaces/inkscape"
   xml:space="preserve"
   width="1000"
   height="1000"
   version="1.1"
   style="clip-rule:evenodd;fill-rule:evenodd;image-rendering:optimizeQuality;shape-rendering:geometricPrecision;text-rendering:geometricPrecision"
   viewBox="0 0 1000 1000"
   id="svg10"
   sodipodi:docname="ശ്ര.svg"
   inkscape:version="1.0.1 (3bc2e813f5, 2020-09-07)"><metadata
   id="metadata14"><rdf:RDF><cc:Work
       rdf:about=""><dc:format>image/svg+xml</dc:format><dc:type
         rdf:resource="http://purl.org/dc/dcmitype/StillImage" /><dc:title /></cc:Work></rdf:RDF></metadata><sodipodi:namedview
   pagecolor="#ffffff"
   bordercolor="#666666"
   borderopacity="1"
   objecttolerance="10"
   gridtolerance="10"
   guidetolerance="10"
   inkscape:pageopacity="0"
   inkscape:pageshadow="2"
   inkscape:window-width="1920"
   inkscape:window-height="1015"
   id="namedview12"
   showgrid="false"
   inkscape:zoom="0.84890884"
   inkscape:cx="516.33841"
   inkscape:cy="786.4962"
   inkscape:window-x="1920"
   inkscape:window-y="0"
   inkscape:window-maximized="1"
   inkscape:current-layer="svg10"
   showguides="true"
   inkscape:guide-bbox="true"
   inkscape:document-rotation="0"><sodipodi:guide
     position="0,1000"
     orientation="0,1"
     id="guide16"
     inkscape:label=""
     inkscape:locked="true"
     inkscape:color="rgb(0,0,255)" /><sodipodi:guide
     position="1763.3122,2036.1693"
     orientation="1000,0"
     id="guide18" /><sodipodi:guide
     position="0,200"
     orientation="0,1"
     id="guide20"
     inkscape:label="base"
     inkscape:locked="true"
     inkscape:color="rgb(0,0,255)" /><inkscape:grid
     type="xygrid"
     id="grid24"
     originx="-473.37552"
     originy="-489.69235" /><sodipodi:guide
     position="0,0"
     orientation="0,1"
     id="guide34"
     inkscape:label="bottom"
     inkscape:locked="true"
     inkscape:color="rgb(0,0,255)" /><sodipodi:guide
     position="225.05109,1693.3186"
     orientation="0,1"
     id="guide44"
     inkscape:label=""
     inkscape:locked="false"
     inkscape:color="rgb(0,0,255)" /><sodipodi:guide
     position="0,900"
     orientation="0,1"
     id="guide46"
     inkscape:label=""
     inkscape:locked="true"
     inkscape:color="rgb(0,0,255)" /><sodipodi:guide
     position="768.45201,586.15029"
     orientation="-1,0"
     id="guide841"
     inkscape:label="width"
     inkscape:locked="false"
     inkscape:color="rgb(0,0,255)" /></sodipodi:namedview>
 <defs
   id="defs4"><inkscape:path-effect
   effect="spiro"
   id="path-effect853"
   is_visible="true"
   lpeversion="1" /><inkscape:path-effect
   effect="spiro"
   id="path-effect854"
   is_visible="true"
   lpeversion="1" />
  <style
   type="text/css"
   id="style2">
   <![CDATA[
    .fil0 {fill:#EF7F1A;fill-rule:nonzero}
   ]]>
  </style>
 <inkscape:path-effect
   effect="spiro"
   id="path-effect1214"
   is_visible="true"
   lpeversion="1" /><inkscape:path-effect
   effect="spiro"
   id="path-effect1195"
   is_visible="true"
   lpeversion="1" /><inkscape:path-effect
   effect="spiro"
   id="path-effect992"
   is_visible="true"
   lpeversion="1" /><inkscape:path-effect
   effect="spiro"
   id="path-effect287"
   is_visible="true"
   lpeversion="1" /><inkscape:path-effect
   effect="spiro"
   id="path-effect1032"
   is_visible="true"
   lpeversion="1" /><inkscape:path-effect
   effect="spiro"
   id="path-effect1102"
   is_visible="true"
   lpeversion="1" /></defs>
 
<path
   id="path1038-8-6"
   style="display:inline;fill:#1a1a1a;fill-rule:nonzero;stroke:none;stroke-width:4.4069;stroke-linecap:butt;stroke-linejoin:miter;stroke-miterlimit:4;stroke-dasharray:none;stroke-opacity:1"
   d="m 61.760834,786.64163 c 16.873577,49.2862 42.499786,96.03652 78.331216,133.85127 45.67398,48.20211 106.44316,80.2948 170.03908,99.4027 63.59592,19.108 130.24601,25.8814 196.57634,29.0187 111.19133,5.2592 226.96986,-0.4685 326.14423,-51.02158 C 916.73571,955.13373 984.22624,880.56574 1016.9369,792.27718 1054.5591,690.73196 1044.091,571.2979 984.56152,480.83742 953.2821,433.30552 909.04828,394.02778 857.18459,370.62176 805.32091,347.21573 745.89357,340.07588 690.41162,352.70272 c -41.71162,9.49293 -81.2488,30.32127 -110.38294,61.64501 -25.34381,27.24854 -42.2967,61.84037 -50.35009,98.17128 -8.05338,36.33091 -7.3889,74.34163 -0.13353,110.84028 9.75055,49.05087 32.00451,96.45107 68.07217,131.09475 18.03383,17.32184 39.3759,31.29948 62.75641,40.1661 23.38051,8.86662 48.80192,12.55812 73.66757,9.91909 31.64033,-3.35804 61.74727,-16.89174 87.0579,-36.17279 25.31063,-19.28105 46.00815,-44.14839 62.87761,-71.12631 C 942.98889,602.8669 954.44167,484.33301 934.41351,374.84504 923.13788,313.20453 901.9205,252.3191 864.11522,202.34458 826.30994,152.37006 770.55269,114.1364 708.41768,106.01651 c -55.8352,-7.29662 -114.12757,10.61316 -157.46958,46.56146 -42.25135,35.04369 -69.66121,85.15927 -87.40278,137.1061 -15.95607,46.71895 -24.8527,95.75141 -27.57492,145.04487 -1.91234,34.62827 -0.80281,69.39564 -3.5251,103.96967 -2.72229,34.57402 -9.49978,69.45735 -26.05788,99.93035 -8.49512,15.63416 -19.65143,30.0726 -34.02422,40.5615 -14.37278,10.4889 -32.15124,16.81395 -49.90755,15.67055 -17.35939,-1.11784 -33.91478,-9.36957 -46.29515,-21.5894 -12.38036,-12.21984 -20.71326,-28.20936 -25.06928,-45.05047 -8.71204,-33.68221 -1.85823,-69.42234 8.33247,-102.68705 22.75226,-74.26843 61.77745,-142.85266 83.20533,-217.51397 C 358.93086,251.2195 364.75216,191.429 359.71303,132.55058 L 171.63878,66.007496 c 36.48862,39.929324 60.35537,91.226924 67.39628,144.857104 7.37417,56.16859 -3.33196,113.13647 -17.71959,167.92957 -14.38763,54.79311 -32.54744,108.83541 -40.52536,164.92143 -6.85152,48.16726 -5.87827,98.36488 10.74964,144.0873 8.31396,22.86122 20.51975,44.4016 36.65313,62.60795 16.13338,18.20634 36.24388,33.02311 58.81758,42.0887 16.10896,6.46936 33.34547,9.98256 50.67775,10.95386 38.02465,2.1309 76.79236,-8.28605 108.10503,-29.96397 31.31266,-21.67791 54.8464,-54.60935 64.31978,-91.49661 8.58231,-33.41765 5.74539,-68.67204 0.65412,-102.79643 -5.09128,-34.1244 -12.39466,-68.12668 -12.59206,-102.62822 -0.33417,-58.40581 20.41849,-116.47252 56.51912,-162.38651 16.62234,-21.14084 36.56918,-39.91853 59.87062,-53.34538 23.30144,-13.42685 50.07637,-21.34412 76.9581,-20.56313 34.87053,1.01308 68.39778,16.70273 94.46382,39.88767 26.06605,23.18494 45.0919,53.47705 58.74877,85.57798 29.21178,68.66327 34.3105,148.31141 8.87606,218.46169 -11.11539,30.65718 -28.16078,59.65121 -52.46507,81.39324 -24.3043,21.74203 -56.29691,35.75346 -88.8972,34.95645 -32.73359,-0.80027 -64.71302,-16.97101 -84.97721,-42.69047 -20.26419,-25.71946 -28.50743,-60.46263 -22.22837,-92.5983 6.46162,-33.06997 27.71255,-62.41507 55.56217,-81.38279 27.84962,-18.96771 61.84464,-27.94503 95.53848,-28.26213 36.13111,-0.34004 72.28575,9.07324 103.75073,26.83635 31.46498,17.76311 58.17528,43.81735 76.86689,74.73978 32.67868,54.0619 39.53516,123.13902 17.50533,182.34435 -19.85989,53.37359 -61.4188,96.90244 -110.1038,126.44776 -48.685,29.54532 -104.26732,46.05741 -160.27918,56.34463 C 580.07505,941.39514 472.54833,939.88759 369.27249,918.11665 317.41484,907.18486 265.68355,890.73497 222.49233,860.02279 200.89671,844.6667 181.64774,825.8064 167.0011,803.72347 c -14.64665,-22.08293 -24.60739,-47.44331 -27.53462,-73.77981 -4.07798,-36.68986 5.9593,-74.7708 27.59229,-104.68383 L 42.332717,568.58889 C 31.16687,641.42126 37.894616,716.93056 61.760834,786.64163 Z"
   sodipodi:nodetypes="aaaaassaaaaaaaaaaaaaccaaaaaaaaaaaasaaaaacca"
   inkscape:path-effect="#path-effect853"
   inkscape:original-d="m 61.760834,786.64163 c 15.729275,49.24457 38.432466,100.97989 78.331216,133.85127 99.93722,82.3353 237.66402,116.6705 366.61542,128.4214 109.58294,9.9859 229.46637,1.5287 326.14423,-51.02158 80.82489,-43.93321 155.73181,-118.10054 184.0852,-205.61554 32.1688,-99.2916 -10.9978,-293.45444 -32.37538,-311.43976 -74.4149,-62.60664 -208.92219,-126.25128 -294.1499,-128.1347 -42.13299,-0.93108 -84.90402,28.07597 -110.38294,61.64501 -43.33255,57.09158 -71.96526,140.63249 -50.48362,209.01156 27.2951,86.88412 113.54826,176.45213 204.49615,181.17994 61.37512,3.1905 117.6855,-54.98256 149.93551,-107.2991 57.07807,-92.59308 79.65232,-217.61991 50.43679,-322.39509 C 902.96994,262.0795 820.52536,139.73051 708.41768,106.01651 656.00026,90.253085 594.67534,119.65382 550.9481,152.57797 c -43.29757,32.60063 -67.41534,86.7277 -87.40278,137.1061 -18.14933,45.74544 -19.444,96.50693 -27.57492,145.04487 -11.34666,67.73449 7.03138,145.79583 -29.58298,203.90002 -17.95357,28.49095 -51.88248,66.5717 -83.93177,56.23205 -57.31708,-18.49147 -63.3029,-109.10144 -63.03196,-169.32692 0.34921,-77.62757 65.41672,-141.95124 83.20533,-217.51397 13.46638,-57.20269 48.63958,-125.89397 17.08401,-175.46954 L 171.63878,66.007496 c -35.81919,39.410534 60.4334,92.058214 67.39628,144.857104 14.72645,111.66938 -71.18604,220.96067 -58.24495,332.851 10.35991,89.57323 36.68087,191.38228 106.22035,248.78395 13.32843,11.00201 33.74097,14.39433 50.67775,10.95386 68.8962,-13.99529 141.87513,-58.14177 172.42481,-121.46058 29.80536,-61.77609 -21.40367,-137.49053 -11.93794,-205.42465 7.90951,-56.76535 19.36732,-118.74468 56.51912,-162.38651 33.6023,-39.47227 85.22674,-78.84911 136.82872,-73.90851 65.70938,6.29131 123.75263,66.39439 153.21259,125.46565 32.52637,65.21981 38.64527,151.93814 8.87606,218.46169 -24.92811,55.70542 -80.67625,122.80813 -141.36227,116.34969 -57.21538,-6.08907 -115.03424,-78.28536 -107.20558,-135.28877 8.46701,-61.65153 89.85849,-120.69028 151.10065,-109.64492 91.75657,16.5488 142.93123,43.68921 180.61762,101.57613 33.31469,51.17191 43.53064,127.10744 17.50533,182.34435 C 907.8984,837.95182 788.11615,891.16389 683.88434,922.32937 583.39993,952.37436 467.80273,954.05561 369.27249,918.11665 276.26053,884.19048 169.99709,824.12482 139.46648,729.94366 128.33848,695.61591 173.28227,637.58325 167.05877,625.25983 87.282982,654.96015 47.405057,570.96888 42.332717,568.58889 c 0,0 -2.774911,148.54041 19.428117,218.05274 z" /></svg>
