<?xml version="1.0" encoding="UTF-8" standalone="no"?>
<svg
   xmlns:dc="http://purl.org/dc/elements/1.1/"
   xmlns:cc="http://creativecommons.org/ns#"
   xmlns:rdf="http://www.w3.org/1999/02/22-rdf-syntax-ns#"
   xmlns:svg="http://www.w3.org/2000/svg"
   xmlns="http://www.w3.org/2000/svg"
   xmlns:sodipodi="http://sodipodi.sourceforge.net/DTD/sodipodi-0.dtd"
   xmlns:inkscape="http://www.inkscape.org/namespaces/inkscape"
   xml:space="preserve"
   width="1000"
   height="1000"
   version="1.1"
   style="clip-rule:evenodd;fill-rule:evenodd;image-rendering:optimizeQuality;shape-rendering:geometricPrecision;text-rendering:geometricPrecision"
   viewBox="0 0 1000 1000"
   id="svg10"
   sodipodi:docname="ശ്ര.svg"
   inkscape:version="1.0.1 (3bc2e813f5, 2020-09-07)"><metadata
   id="metadata14"><rdf:RDF><cc:Work
       rdf:about=""><dc:format>image/svg+xml</dc:format><dc:type
         rdf:resource="http://purl.org/dc/dcmitype/StillImage" /><dc:title /></cc:Work></rdf:RDF></metadata><sodipodi:namedview
   pagecolor="#ffffff"
   bordercolor="#666666"
   borderopacity="1"
   objecttolerance="10"
   gridtolerance="10"
   guidetolerance="10"
   inkscape:pageopacity="0"
   inkscape:pageshadow="2"
   inkscape:window-width="1920"
   inkscape:window-height="1015"
   id="namedview12"
   showgrid="false"
   inkscape:zoom="0.84890884"
   inkscape:cx="327.86116"
   inkscape:cy="456.66102"
   inkscape:window-x="1920"
   inkscape:window-y="0"
   inkscape:window-maximized="1"
   inkscape:current-layer="svg10"
   showguides="true"
   inkscape:guide-bbox="true"
   inkscape:document-rotation="0"><sodipodi:guide
     position="0,1000"
     orientation="0,1"
     id="guide16"
     inkscape:label=""
     inkscape:locked="true"
     inkscape:color="rgb(0,0,255)" /><sodipodi:guide
     position="1763.3122,2036.1693"
     orientation="1000,0"
     id="guide18" /><sodipodi:guide
     position="0,200"
     orientation="0,1"
     id="guide20"
     inkscape:label="base"
     inkscape:locked="true"
     inkscape:color="rgb(0,0,255)" /><inkscape:grid
     type="xygrid"
     id="grid24"
     originx="-473.37552"
     originy="-489.69235" /><sodipodi:guide
     position="0,0"
     orientation="0,1"
     id="guide34"
     inkscape:label="bottom"
     inkscape:locked="true"
     inkscape:color="rgb(0,0,255)" /><sodipodi:guide
     position="225.05109,1693.3186"
     orientation="0,1"
     id="guide44"
     inkscape:label=""
     inkscape:locked="false"
     inkscape:color="rgb(0,0,255)" /><sodipodi:guide
     position="0,900"
     orientation="0,1"
     id="guide46"
     inkscape:label=""
     inkscape:locked="true"
     inkscape:color="rgb(0,0,255)" /><sodipodi:guide
     position="768.45201,586.15029"
     orientation="-1,0"
     id="guide841"
     inkscape:label=""
     inkscape:locked="false"
     inkscape:color="rgb(0,0,255)" /></sodipodi:namedview>
 <defs
   id="defs4"><inkscape:path-effect
   effect="spiro"
   id="path-effect853"
   is_visible="true"
   lpeversion="1" /><inkscape:path-effect
   effect="spiro"
   id="path-effect854"
   is_visible="true"
   lpeversion="1" />
  <style
   type="text/css"
   id="style2">
   <![CDATA[
    .fil0 {fill:#EF7F1A;fill-rule:nonzero}
   ]]>
  </style>
 <inkscape:path-effect
   effect="spiro"
   id="path-effect1214"
   is_visible="true"
   lpeversion="1" /><inkscape:path-effect
   effect="spiro"
   id="path-effect1195"
   is_visible="true"
   lpeversion="1" /><inkscape:path-effect
   effect="spiro"
   id="path-effect992"
   is_visible="true"
   lpeversion="1" /><inkscape:path-effect
   effect="spiro"
   id="path-effect287"
   is_visible="true"
   lpeversion="1" /><inkscape:path-effect
   effect="spiro"
   id="path-effect1032"
   is_visible="true"
   lpeversion="1" /><inkscape:path-effect
   effect="spiro"
   id="path-effect1102"
   is_visible="true"
   lpeversion="1" /></defs>
 
<path
   id="path1038-8-6"
   style="display:inline;fill:#1a1a1a;fill-rule:nonzero;stroke:none;stroke-width:4.4069;stroke-linecap:butt;stroke-linejoin:miter;stroke-miterlimit:4;stroke-dasharray:none;stroke-opacity:1"
   d="m 10.532387,472.93257 c 8.544707,78.31605 23.640371,156.46569 53.10639,229.52847 40.920313,101.46439 110.190823,192.05989 200.287283,254.12533 90.09647,62.06543 201.05992,94.66283 310.14644,86.31873 90.48182,-6.921 178.41785,-41.7901 250.00775,-97.55523 71.5899,-55.76511 126.71963,-132.08379 158.61343,-217.04052 14.90232,-39.69588 24.87682,-81.50457 26.26972,-123.88265 1.3929,-42.37809 -6.0082,-85.38569 -24.40188,-123.58928 C 959.45046,428.68188 914.01918,387.04734 860.6675,364.5893 807.31582,342.13126 746.55934,338.62441 690.41162,352.70272 c -41.43488,10.38926 -81.05205,30.58885 -110.38294,61.64501 -25.57238,27.07657 -42.60758,61.71327 -50.62296,98.08415 -8.01539,36.37087 -7.20999,74.41612 0.13934,110.92741 9.86499,49.00903 32.11834,96.36615 68.15804,131.01212 18.01985,17.32299 39.34204,31.31182 62.70637,40.19489 23.36433,8.88308 48.77372,12.59583 73.63174,9.97293 31.64443,-3.33897 61.75781,-16.87116 87.06828,-36.15584 25.31047,-19.28467 46.00228,-44.16008 62.86723,-71.14326 58.99153,-94.38389 70.45815,-212.90781 50.43679,-322.39509 C 923.14143,313.20343 901.92412,252.31701 864.118,202.34257 826.31187,152.36813 770.55322,114.13575 708.41768,106.01651 c -55.83523,-7.295981 -114.1275,10.61333 -157.46958,46.56146 -42.25146,35.04357 -69.66125,85.15924 -87.40278,137.1061 -15.95604,46.71896 -24.85269,95.75141 -27.57492,145.04487 -1.91234,34.62827 -0.80281,69.39564 -3.5251,103.96967 -2.72229,34.57402 -9.49979,69.45735 -26.05788,99.93035 -8.49512,15.63416 -19.65143,30.0726 -34.02421,40.5615 -14.37279,10.4889 -32.15125,16.81395 -49.90756,15.67055 -17.35939,-1.11784 -33.91478,-9.36957 -46.29515,-21.5894 -12.38036,-12.21984 -20.71326,-28.20936 -25.06928,-45.05047 -8.71204,-33.68221 -1.85823,-69.42234 8.33247,-102.68705 22.75226,-74.26843 61.77745,-142.85266 83.20533,-217.51397 16.30184,-56.80062 22.12314,-116.59112 17.08401,-175.46954 -31.14777,-2.04482 -62.03178,-8.0741 -91.66158,-17.89447 -34.29303,-11.36593 -66.89593,-27.816941 -96.41267,-48.648614 36.48862,39.929324 60.35537,91.226924 67.39628,144.857104 7.37417,56.16859 -3.33196,113.13647 -17.71959,167.92957 -14.38763,54.79311 -32.54743,108.83541 -40.52536,164.92143 -6.85153,48.16726 -5.87828,98.36488 10.74964,144.08731 8.31395,22.86121 20.51974,44.4016 36.65313,62.60794 16.13338,18.20634 36.24388,33.02311 58.81758,42.0887 16.10897,6.46935 33.34547,9.98256 50.67775,10.95386 38.02466,2.13091 76.79239,-8.28601 108.10506,-29.96392 31.31268,-21.67792 54.84643,-54.60937 64.31975,-91.49666 8.58225,-33.41766 5.74523,-68.67204 0.65392,-102.79643 -5.09131,-34.12438 -12.39467,-68.12668 -12.59186,-102.62822 -0.33382,-58.40572 20.41947,-116.47185 56.51912,-162.38651 16.62203,-21.14134 36.5684,-39.91987 59.86986,-53.34711 23.30145,-13.42723 50.07698,-21.34431 76.95886,-20.5614 34.86936,1.01554 68.39349,16.70898 94.45759,39.89445 26.06411,23.18546 45.08989,53.47497 58.755,85.5712 29.23273,68.66101 34.38362,148.33145 8.87606,218.46169 -11.14088,30.63062 -28.22356,59.57986 -52.52755,81.29782 -24.30399,21.71797 -56.2481,35.73488 -88.83472,35.05187 -32.80886,-0.68767 -64.95036,-16.74197 -85.30043,-42.48628 -20.35007,-25.7443 -28.55136,-60.66649 -21.90515,-92.80249 6.78954,-32.82902 28.38826,-61.65611 56.20058,-80.37287 27.81232,-18.71677 61.4086,-27.80089 94.90007,-29.27205 36.65136,-1.60996 73.93392,5.77753 106.24971,23.14428 32.31579,17.36675 59.42107,44.92803 74.36791,78.43185 20.34843,45.61164 16.99272,99.60936 -2.28151,145.68522 -19.27422,46.07586 -53.25288,84.81796 -91.97485,116.363 -77.71598,63.31169 -176.7078,99.90078 -276.90503,102.8432 C 473.99389,924.7742 381.7621,899.51347 304.27403,850.57857 226.78596,801.64366 164.34814,729.23953 127.27497,645.42661 71.10698,518.44519 74.733197,370.35992 117.13916,238.14472 128.79109,201.81581 143.2401,166.38439 160.31614,132.26745 L 24.806197,59.335831 C 0.342145,195.57689 -4.4809014,335.32909 10.532387,472.93257 Z"
   sodipodi:nodetypes="aaaassaaaaaaaaaaaaacacaaaaaaaaaaaasaasaacca"
   inkscape:path-effect="#path-effect853"
   inkscape:original-d="m 10.532387,472.93257 c 7.56149,78.16579 8.44259,164.9358 53.10639,229.52847 116.317663,168.21829 306.034593,347.38616 510.433723,340.44406 171.79941,-5.8349 332.13544,-160.6509 408.62118,-314.59575 36.70502,-73.87716 23.24542,-229.48661 1.86784,-247.47193 -74.4149,-62.60664 -208.92219,-126.25128 -294.1499,-128.1347 -42.13299,-0.93108 -84.90402,28.07597 -110.38294,61.64501 -43.33255,57.09158 -71.96526,140.63249 -50.48362,209.01156 27.2951,86.88412 113.54826,176.45213 204.49615,181.17994 61.37512,3.1905 117.6855,-54.98256 149.93551,-107.2991 57.07807,-92.59308 79.65232,-217.61991 50.43679,-322.39509 C 902.96994,262.0795 820.52536,139.73051 708.41768,106.01651 656.00026,90.253085 594.67534,119.65382 550.9481,152.57797 c -43.29757,32.60063 -67.41534,86.7277 -87.40278,137.1061 -18.14933,45.74544 -19.444,96.50693 -27.57492,145.04487 -11.34666,67.73449 7.03138,145.79583 -29.58298,203.90002 -17.95357,28.49095 -51.88248,66.5717 -83.93177,56.23205 -57.31708,-18.49147 -63.3029,-109.10144 -63.03196,-169.32692 0.34921,-77.62757 65.41672,-141.95124 83.20533,-217.51397 13.46638,-57.20269 17.08401,-175.46954 17.08401,-175.46954 0,0 -62.21121,-7.8052 -91.66158,-17.89447 -34.0541,-11.66646 -96.41267,-48.648614 -96.41267,-48.648614 0,0 60.4334,92.058214 67.39628,144.857104 14.72645,111.66938 -71.18604,220.96067 -58.24495,332.851 10.35991,89.57323 36.68087,191.38228 106.22035,248.78395 13.32843,11.00201 33.74097,14.39433 50.67775,10.95386 68.8962,-13.99529 141.87513,-58.14177 172.42481,-121.46058 29.80536,-61.77609 -21.40367,-137.49053 -11.93794,-205.42465 7.90951,-56.76535 19.36732,-118.74468 56.51912,-162.38651 33.6023,-39.47227 85.22674,-78.84911 136.82872,-73.90851 65.70938,6.29131 123.75263,66.39439 153.21259,125.46565 32.52637,65.21981 38.64527,151.93814 8.87606,218.46169 C 828.68346,639.90592 772.93532,707.00863 712.2493,700.55019 655.03392,694.46112 597.21506,622.26483 605.04372,565.26142 613.51073,503.60989 694.90221,444.57114 756.14437,455.6165 847.90094,472.1653 912.64862,492.4647 936.76199,557.19263 969.168,644.18061 907.80508,753.26327 842.50563,819.24085 773.24295,889.22279 657.5102,957.40284 565.6006,922.08405 449.39955,877.43059 212.57344,795.68056 127.27497,645.42661 60.230607,527.32743 92.670636,371.72487 117.13916,238.14472 124.00647,200.65427 166.53964,144.59087 160.31614,132.26745 80.540354,161.96777 29.878537,61.715821 24.806197,59.335831 c 0,0 -27.5563901,276.290039 -14.27381,413.596739 z" /></svg>
