<?xml version="1.0" encoding="UTF-8" standalone="no"?>
<svg
   xmlns:dc="http://purl.org/dc/elements/1.1/"
   xmlns:cc="http://creativecommons.org/ns#"
   xmlns:rdf="http://www.w3.org/1999/02/22-rdf-syntax-ns#"
   xmlns:svg="http://www.w3.org/2000/svg"
   xmlns="http://www.w3.org/2000/svg"
   xmlns:sodipodi="http://sodipodi.sourceforge.net/DTD/sodipodi-0.dtd"
   xmlns:inkscape="http://www.inkscape.org/namespaces/inkscape"
   xml:space="preserve"
   width="1000"
   height="1000"
   version="1.1"
   style="clip-rule:evenodd;fill-rule:evenodd;image-rendering:optimizeQuality;shape-rendering:geometricPrecision;text-rendering:geometricPrecision"
   viewBox="0 0 1000 1000"
   id="svg10"
   sodipodi:docname="ശു.svg"
   inkscape:version="1.0.1 (3bc2e813f5, 2020-09-07)"><metadata
   id="metadata14"><rdf:RDF><cc:Work
       rdf:about=""><dc:format>image/svg+xml</dc:format><dc:type
         rdf:resource="http://purl.org/dc/dcmitype/StillImage" /><dc:title /></cc:Work></rdf:RDF></metadata><sodipodi:namedview
   pagecolor="#ffffff"
   bordercolor="#666666"
   borderopacity="1"
   objecttolerance="10"
   gridtolerance="10"
   guidetolerance="10"
   inkscape:pageopacity="0"
   inkscape:pageshadow="2"
   inkscape:window-width="1920"
   inkscape:window-height="1015"
   id="namedview12"
   showgrid="false"
   inkscape:zoom="0.84890884"
   inkscape:cx="327.86116"
   inkscape:cy="409.5417"
   inkscape:window-x="1920"
   inkscape:window-y="0"
   inkscape:window-maximized="1"
   inkscape:current-layer="svg10"
   showguides="true"
   inkscape:guide-bbox="true"
   inkscape:document-rotation="0"><sodipodi:guide
     position="0,1000"
     orientation="0,1"
     id="guide16"
     inkscape:label=""
     inkscape:locked="true"
     inkscape:color="rgb(0,0,255)" /><sodipodi:guide
     position="1763.3122,2036.1693"
     orientation="1000,0"
     id="guide18" /><sodipodi:guide
     position="0,200"
     orientation="0,1"
     id="guide20"
     inkscape:label="base"
     inkscape:locked="true"
     inkscape:color="rgb(0,0,255)" /><inkscape:grid
     type="xygrid"
     id="grid24"
     originx="-473.37552"
     originy="-489.69235" /><sodipodi:guide
     position="0,0"
     orientation="0,1"
     id="guide34"
     inkscape:label="bottom"
     inkscape:locked="true"
     inkscape:color="rgb(0,0,255)" /><sodipodi:guide
     position="225.05109,1693.3186"
     orientation="0,1"
     id="guide44"
     inkscape:label=""
     inkscape:locked="false"
     inkscape:color="rgb(0,0,255)" /><sodipodi:guide
     position="0,900"
     orientation="0,1"
     id="guide46"
     inkscape:label=""
     inkscape:locked="true"
     inkscape:color="rgb(0,0,255)" /><sodipodi:guide
     position="768.45201,586.15029"
     orientation="-1,0"
     id="guide841"
     inkscape:label="width"
     inkscape:locked="false"
     inkscape:color="rgb(0,0,255)" /></sodipodi:namedview>
 <defs
   id="defs4"><inkscape:path-effect
   effect="spiro"
   id="path-effect853"
   is_visible="true"
   lpeversion="1" /><inkscape:path-effect
   effect="spiro"
   id="path-effect854"
   is_visible="true"
   lpeversion="1" />
  <style
   type="text/css"
   id="style2">
   <![CDATA[
    .fil0 {fill:#EF7F1A;fill-rule:nonzero}
   ]]>
  </style>
 <inkscape:path-effect
   effect="spiro"
   id="path-effect1214"
   is_visible="true"
   lpeversion="1" /><inkscape:path-effect
   effect="spiro"
   id="path-effect1195"
   is_visible="true"
   lpeversion="1" /><inkscape:path-effect
   effect="spiro"
   id="path-effect992"
   is_visible="true"
   lpeversion="1" /><inkscape:path-effect
   effect="spiro"
   id="path-effect287"
   is_visible="true"
   lpeversion="1" /><inkscape:path-effect
   effect="spiro"
   id="path-effect1032"
   is_visible="true"
   lpeversion="1" /><inkscape:path-effect
   effect="spiro"
   id="path-effect1102"
   is_visible="true"
   lpeversion="1" /></defs>
 
<path
   id="path1038-8-6"
   style="display:inline;fill:#1a1a1a;fill-rule:nonzero;stroke:none;stroke-width:4.4069;stroke-linecap:butt;stroke-linejoin:miter;stroke-miterlimit:4;stroke-dasharray:none;stroke-opacity:1"
   d="m 569.36967,870.72601 c 46.90377,-7.91908 92.02746,-26.21117 131.20576,-53.18776 42.49482,-29.26021 78.07043,-68.96344 100.55991,-115.39827 22.48948,-46.43483 31.58451,-99.59918 23.67088,-150.58295 C 814.18836,483.15118 772.38214,420.49234 714.04323,383.22746 655.70432,345.96259 581.9131,334.31533 514.58647,350.41578 c -41.57512,9.94225 -81.1504,30.45531 -110.38294,61.64501 -25.45825,27.16272 -42.4522,61.7769 -50.48656,98.12775 -8.03437,36.35086 -7.29942,74.37886 0.003,110.88381 9.80783,49.02996 32.06148,96.40859 68.11515,131.05341 18.02683,17.32241 39.35895,31.30565 62.73136,40.1805 23.37241,8.87485 48.78781,12.57699 73.64964,9.94603 31.64238,-3.3485 61.75254,-16.88144 87.06309,-36.16431 25.31055,-19.28286 46.00522,-44.15424 62.87242,-71.13479 59.00184,-94.37856 70.46155,-212.90747 50.43679,-322.39509 -11.27385,-61.64106 -32.4912,-122.52698 -70.2969,-172.50146 -37.8057,-49.97448 -93.56366,-88.20751 -155.69893,-96.32707 -55.83521,-7.2963 -114.12753,10.61325 -157.46958,46.56146 -42.25141,35.04363 -69.66123,85.15926 -87.40278,137.1061 -15.95605,46.71895 -24.8527,95.75141 -27.57492,145.04487 -1.91234,34.62827 -0.80281,69.39564 -3.5251,103.96967 -2.72229,34.57402 -9.49978,69.45735 -26.05788,99.93035 -8.49512,15.63416 -19.65143,30.0726 -34.02422,40.5615 -14.37278,10.4889 -32.15124,16.81395 -49.90755,15.67055 -17.35939,-1.11784 -33.91478,-9.36957 -46.29515,-21.5894 C 87.954987,658.76483 79.622087,642.77531 75.266066,625.9342 66.554025,592.25199 73.407838,556.51186 83.598539,523.24715 106.3508,448.97872 145.37599,380.39449 166.80387,305.73318 183.10571,248.93256 188.92701,189.14206 183.88788,130.26364 L -4.1863635,63.720553 C 32.301903,103.65014 56.168572,154.94758 63.209911,208.57766 70.584539,264.74621 59.879307,321.71427 45.491999,376.50749 31.104692,431.30071 12.944683,485.34287 4.9649596,541.42866 c -6.8531858,48.16787 -5.88253521,98.36657 10.7448814,144.09008 8.313708,22.86176 20.519794,44.40261 36.654066,62.60873 16.134271,18.20612 36.246284,33.02194 58.821403,42.08514 16.10954,6.46747 33.34589,9.97815 50.67775,10.95386 38.0351,2.14121 76.82344,-8.24023 108.1544,-29.91104 31.33096,-21.67082 54.8739,-54.63127 64.27041,-91.54954 8.50932,-33.43255 5.53973,-68.67516 0.40201,-102.78891 -5.13772,-34.11375 -12.40504,-68.13734 -12.33995,-102.63574 0.11,-58.30023 21.68093,-115.64008 56.51912,-162.38651 16.23704,-21.78712 35.57275,-41.66001 58.90754,-55.58148 23.3348,-13.92147 50.94644,-21.59552 77.92118,-18.32703 25.58834,3.10051 49.29689,15.80138 69.02243,32.39294 19.72553,16.59155 35.85563,36.99434 51.18594,57.71529 20.26384,27.38927 39.64732,56.11189 50.21474,88.50209 18.74255,57.44777 7.81365,120.69027 -13.05525,177.40022 -11.96792,32.52209 -27.66903,64.62308 -52.82798,88.45467 -12.57947,11.9158 -27.44206,21.57781 -43.83244,27.19785 -16.39038,5.62005 -34.33552,7.09187 -51.20756,3.14679 -14.03495,-3.2817 -27.13727,-10.263 -37.96412,-19.77766 -10.82685,-9.51466 -19.38854,-21.52462 -25.23291,-34.70009 -11.68873,-26.35092 -12.25666,-56.87989 -4.56137,-84.66082 7.80173,-28.16516 23.90512,-53.92228 45.5516,-73.55829 21.64648,-19.63601 48.74057,-33.12802 77.38042,-38.95056 43.18426,-8.77944 89.9255,0.4214 125.99087,25.74427 36.06537,25.32287 60.72253,66.6028 64.93081,110.46906 4.51511,47.06453 -14.08802,94.50709 -44.24271,130.92344 -30.1547,36.41635 -71.04089,62.67808 -114.15083,82.09428 -82.8337,37.30731 -176.20507,50.86566 -266.22867,38.65877 L 352.02763,1000 c 18.80613,-26.59497 46.52121,-46.77239 77.60707,-56.5003 25.84427,-8.08762 53.55497,-9.02413 80.41856,-5.60607 26.8636,3.41806 53.01265,11.0785 78.6147,19.90295 51.2041,17.64889 101.78702,40.30034 155.81758,44.04752 27.82711,1.9299 56.00348,-1.2965 82.67404,-9.46683 L 817.4138,856.27228 c -24.76473,17.09557 -52.78431,29.45838 -82.10565,36.22667 -55.53175,12.81849 -115.59339,4.93774 -165.93848,-21.77294 z"
   sodipodi:nodetypes="caaaaaaaaaaaaaaaaccaaaaaaaaaaaaaaaaccaaccac"
   inkscape:path-effect="#path-effect853"
   inkscape:original-d="m 569.36967,870.72601 c 24.01517,-8.87336 96.98252,-20.69363 131.20576,-53.18776 C 771.53837,750.16066 851.78316,645.61936 824.80622,551.55703 790.83071,433.09227 637.76009,354.47697 514.58647,350.41578 c -42.12039,-1.38876 -84.90402,28.07597 -110.38294,61.64501 -43.33255,57.09158 -71.96526,140.63249 -50.48362,209.01156 27.2951,86.88412 113.54826,176.45213 204.49615,181.17994 61.37512,3.1905 117.6855,-54.98256 149.93551,-107.2991 C 765.22964,602.36011 787.80389,477.33328 758.58836,372.5581 727.14479,259.79256 644.70021,137.44357 532.59253,103.72957 480.17511,87.966142 418.85019,117.36688 375.12295,150.29103 c -43.29757,32.60063 -67.41534,86.7277 -87.40278,137.1061 -18.14933,45.74544 -19.444,96.50693 -27.57492,145.04487 -11.34666,67.73449 7.03138,145.79583 -29.58298,203.90002 -17.95357,28.49095 -51.88248,66.5717 -83.93177,56.23205 C 89.313424,674.0826 83.327608,583.47263 83.598539,523.24715 83.947756,445.61958 149.01526,381.29591 166.80387,305.73318 180.27025,248.53049 183.88788,130.26364 183.88788,130.26364 114.45948,124.57809 55.644531,98.916969 -4.1863635,63.720553 c 0,0 60.4333975,92.058217 67.3962745,144.857107 14.726448,111.66938 -71.1860335,220.96067 -58.2449514,332.851 10.3599164,89.57323 36.6808724,191.38228 106.2203504,248.78395 13.32843,11.00201 33.74097,14.39433 50.67775,10.95386 68.8962,-13.99529 141.87513,-58.14177 172.42481,-121.46058 29.80536,-61.77609 -21.40367,-137.49053 -11.93794,-205.42465 7.90951,-56.76535 19.36732,-118.74468 56.51912,-162.38651 33.6023,-39.47227 85.13262,-77.74085 136.82872,-73.90851 49.94018,3.70216 87.11969,52.52011 120.20837,90.10823 22.41171,25.45928 42.76917,55.41095 50.21474,88.50209 13.01572,57.84711 14.52053,124.90951 -13.05525,177.40022 -29.40496,55.97256 -86.17097,132.62172 -147.86798,118.79931 -50.33891,-11.27777 -77.4113,-88.46298 -67.7584,-139.13857 10.39419,-54.56716 67.48612,-109.13749 122.93202,-112.50885 78.03314,-4.74476 178.78599,58.98374 190.92168,136.21333 13.73566,87.41157 -82.40053,167.69097 -158.39354,213.01772 -77.01452,45.93605 -266.22867,38.65877 -266.22867,38.65877 L 352.02763,1000 c 15.90913,9.3842 46.40112,-49.42266 77.60707,-56.5003 104.09331,-23.60879 208.17774,54.65107 314.85084,58.3444 27.72149,0.9598 61.0571,-5.62147 82.67404,-9.46683 L 817.4138,856.27228 c -15.82442,1.32505 -52.49484,31.97738 -82.10565,36.22667 -55.22123,7.9245 -154.88072,-32.71803 -165.93848,-21.77294 z" /></svg>
