<?xml version="1.0" encoding="UTF-8" standalone="no"?>
<svg
   xmlns:dc="http://purl.org/dc/elements/1.1/"
   xmlns:cc="http://creativecommons.org/ns#"
   xmlns:rdf="http://www.w3.org/1999/02/22-rdf-syntax-ns#"
   xmlns:svg="http://www.w3.org/2000/svg"
   xmlns="http://www.w3.org/2000/svg"
   xmlns:sodipodi="http://sodipodi.sourceforge.net/DTD/sodipodi-0.dtd"
   xmlns:inkscape="http://www.inkscape.org/namespaces/inkscape"
   xml:space="preserve"
   width="1000"
   height="1000"
   version="1.1"
   style="clip-rule:evenodd;fill-rule:evenodd;image-rendering:optimizeQuality;shape-rendering:geometricPrecision;text-rendering:geometricPrecision"
   viewBox="0 0 1000 1000"
   id="svg10"
   sodipodi:docname="ശൂ.svg"
   inkscape:version="1.0.1 (3bc2e813f5, 2020-09-07)"><metadata
   id="metadata14"><rdf:RDF><cc:Work
       rdf:about=""><dc:format>image/svg+xml</dc:format><dc:type
         rdf:resource="http://purl.org/dc/dcmitype/StillImage" /><dc:title /></cc:Work></rdf:RDF></metadata><sodipodi:namedview
   pagecolor="#ffffff"
   bordercolor="#666666"
   borderopacity="1"
   objecttolerance="10"
   gridtolerance="10"
   guidetolerance="10"
   inkscape:pageopacity="0"
   inkscape:pageshadow="2"
   inkscape:window-width="1920"
   inkscape:window-height="1015"
   id="namedview12"
   showgrid="false"
   inkscape:zoom="0.84890884"
   inkscape:cx="563.45772"
   inkscape:cy="550.89964"
   inkscape:window-x="1920"
   inkscape:window-y="0"
   inkscape:window-maximized="1"
   inkscape:current-layer="svg10"
   showguides="true"
   inkscape:guide-bbox="true"
   inkscape:document-rotation="0"><sodipodi:guide
     position="0,1000"
     orientation="0,1"
     id="guide16"
     inkscape:label=""
     inkscape:locked="true"
     inkscape:color="rgb(0,0,255)" /><sodipodi:guide
     position="1763.3122,2036.1693"
     orientation="1000,0"
     id="guide18" /><sodipodi:guide
     position="0,200"
     orientation="0,1"
     id="guide20"
     inkscape:label="base"
     inkscape:locked="true"
     inkscape:color="rgb(0,0,255)" /><inkscape:grid
     type="xygrid"
     id="grid24"
     originx="-473.37552"
     originy="-489.69235" /><sodipodi:guide
     position="0,0"
     orientation="0,1"
     id="guide34"
     inkscape:label="bottom"
     inkscape:locked="true"
     inkscape:color="rgb(0,0,255)" /><sodipodi:guide
     position="225.05109,1693.3186"
     orientation="0,1"
     id="guide44"
     inkscape:label=""
     inkscape:locked="false"
     inkscape:color="rgb(0,0,255)" /><sodipodi:guide
     position="0,900"
     orientation="0,1"
     id="guide46"
     inkscape:label=""
     inkscape:locked="true"
     inkscape:color="rgb(0,0,255)" /><sodipodi:guide
     position="911.64479,730.7617"
     orientation="-1,0"
     id="guide841"
     inkscape:label=""
     inkscape:locked="false"
     inkscape:color="rgb(0,0,255)" /></sodipodi:namedview>
 <defs
   id="defs4"><inkscape:path-effect
   effect="spiro"
   id="path-effect853"
   is_visible="true"
   lpeversion="1" /><inkscape:path-effect
   effect="spiro"
   id="path-effect854"
   is_visible="true"
   lpeversion="1" />
  <style
   type="text/css"
   id="style2">
   <![CDATA[
    .fil0 {fill:#EF7F1A;fill-rule:nonzero}
   ]]>
  </style>
 <inkscape:path-effect
   effect="spiro"
   id="path-effect1214"
   is_visible="true"
   lpeversion="1" /><inkscape:path-effect
   effect="spiro"
   id="path-effect1195"
   is_visible="true"
   lpeversion="1" /><inkscape:path-effect
   effect="spiro"
   id="path-effect992"
   is_visible="true"
   lpeversion="1" /><inkscape:path-effect
   effect="spiro"
   id="path-effect287"
   is_visible="true"
   lpeversion="1" /><inkscape:path-effect
   effect="spiro"
   id="path-effect1032"
   is_visible="true"
   lpeversion="1" /><inkscape:path-effect
   effect="spiro"
   id="path-effect1102"
   is_visible="true"
   lpeversion="1" /></defs>
 
<path
   id="path1038-8-6"
   style="display:inline;fill:#1a1a1a;fill-rule:nonzero;stroke:none;stroke-width:4.4069;stroke-linecap:butt;stroke-linejoin:miter;stroke-miterlimit:4;stroke-dasharray:none;stroke-opacity:1"
   d="m 614.30816,869.54803 c 36.23999,-3.36861 72.29011,-8.77874 107.92248,-16.1962 40.24932,-8.37855 80.65325,-19.61556 115.36709,-41.64184 17.35692,-11.01314 33.13609,-24.693 45.58485,-41.05089 12.44875,-16.35788 21.50566,-35.44651 25.16823,-55.67366 4.02653,-22.2372 1.39453,-45.63677 -7.4714,-66.42381 -8.86594,-20.78704 -23.93238,-38.88318 -42.76874,-51.36906 14.77427,-7.58132 27.49151,-19.12556 36.46274,-33.09955 8.97123,-13.97399 14.17389,-30.34256 14.917,-46.93181 1.18713,-26.50156 -8.98988,-52.71812 -24.93379,-73.92034 -15.9439,-21.20222 -37.35582,-37.76275 -60.13829,-51.35324 -85.9677,-51.28255 -194.28695,-61.33012 -289.83186,-31.47185 -40.57203,12.67896 -79.44418,32.49645 -110.38294,61.64501 -53.12879,50.05462 -79.06259,126.52339 -70.48362,199.01156 5.95244,50.29522 28.23145,99.20015 65.22825,133.78741 36.9968,34.58725 89.01966,53.7294 139.2679,47.39253 31.5028,-3.97286 61.40488,-17.55545 86.72168,-36.71974 25.31679,-19.16429 46.19824,-43.77116 63.21383,-70.57936 59.67978,-94.02596 70.68516,-212.88454 50.43679,-322.39509 -11.39065,-61.60476 -32.61009,-122.45828 -70.38819,-172.43537 -37.77809,-49.97708 -93.48984,-88.25239 -155.60764,-96.39316 -55.83434,-7.317296 -114.12974,10.60768 -157.46958,46.56146 -42.2476,35.04769 -69.65998,85.16004 -87.40278,137.1061 -15.95729,46.71857 -24.85309,95.75135 -27.57492,145.04487 -1.91206,34.62829 -0.80251,69.39567 -3.52485,103.9697 -2.72235,34.57403 -9.49998,69.45734 -26.05813,99.93032 -8.49515,15.63414 -19.65146,30.07257 -34.02423,40.56147 -14.37278,10.48891 -32.15123,16.81397 -49.90754,15.67058 -17.35939,-1.11783 -33.91479,-9.36955 -46.29516,-21.58939 C 87.954968,658.76485 79.622066,642.77533 75.266046,625.93422 66.554006,592.252 73.407831,556.51186 83.598539,523.24715 106.35081,448.97872 145.376,380.39449 166.80387,305.73318 183.10571,248.93256 188.92701,189.14206 183.88788,130.26364 152.74011,128.21882 121.8561,122.18954 92.226303,112.36917 57.933272,101.00324 25.330372,84.552228 -4.1863635,63.720553 32.301903,103.65014 56.168572,154.94758 63.209911,208.57766 70.584539,264.74621 59.879307,321.71427 45.491999,376.50749 31.104692,431.30071 12.944683,485.34287 4.9649596,541.42866 c -6.8531855,48.16787 -5.88253454,98.36657 10.7448814,144.09008 8.313708,22.86176 20.519794,44.40261 36.654066,62.60873 16.134272,18.20612 36.246284,33.02194 58.821403,42.08514 16.10954,6.46747 33.34589,9.97815 50.67775,10.95386 38.0351,2.1412 76.82344,-8.24023 108.15439,-29.91105 31.33096,-21.67082 54.8739,-54.63126 64.27042,-91.54953 8.50933,-33.43255 5.53976,-68.67516 0.40205,-102.78891 -5.13771,-34.11375 -12.40504,-68.13734 -12.33999,-102.63574 0.10993,-58.30024 21.68073,-115.64021 56.51912,-162.38651 16.2371,-21.78701 35.57291,-41.65973 58.90769,-55.58112 23.33479,-13.92139 50.94628,-21.59549 77.92103,-18.32739 25.58849,3.10014 49.29744,15.80052 69.02319,32.39197 19.72575,16.59145 35.85581,36.99449 51.18518,57.71626 20.2624,27.39009 39.64249,56.11367 50.21474,88.50209 18.75209,57.4476 7.8559,120.70286 -13.05525,177.40022 -11.98549,32.4968 -27.72163,64.5569 -52.87896,88.36451 -12.57867,11.90381 -27.4314,21.55974 -43.80842,27.19149 -16.37702,5.63175 -34.30513,7.13458 -51.1806,3.24331 -14.06731,-3.24374 -27.2153,-10.18896 -38.08932,-19.68458 -10.87401,-9.49562 -19.48324,-21.50399 -25.35339,-34.69309 -11.74028,-26.37821 -12.2588,-57.0021 -4.31569,-84.7609 8.37361,-29.26325 25.77275,-55.55659 47.88272,-76.47558 22.10997,-20.91899 48.81167,-36.6263 77.02363,-48.05173 34.83507,-14.10769 72.46099,-21.87657 110.02032,-20.53266 37.55933,1.34391 75.02388,12.00265 106.54654,32.46801 12.40071,8.05088 24.07445,17.8346 31.5792,30.57324 3.75238,6.36931 6.40525,13.4296 7.37196,20.75859 0.96671,7.32898 0.21275,14.92856 -2.55263,21.78431 -4.07151,10.09382 -12.58744,18.3003 -22.82498,21.99558 -10.23754,3.69528 -22.03165,2.81978 -31.61137,-2.34657 l -12.42263,70.65163 c 11.49378,-2.62692 23.81348,-1.50263 34.64189,3.16142 10.82841,4.66404 20.10924,12.84359 26.09688,23.00016 7.83207,13.2852 9.85693,29.55266 7.13714,44.73294 -2.71978,15.18027 -9.94242,29.31632 -19.34186,41.54287 -22.7289,29.56517 -57.54267,47.88663 -93.47987,57.84751 -35.93721,9.96089 -73.45589,12.37009 -110.60678,15.61248 -89.38266,7.80097 -178.31879,20.71529 -266.22867,38.65877 L 352.02763,1000 c 19.40692,-26.05438 46.85112,-46.0346 77.60707,-56.5003 25.70894,-8.7483 53.36866,-10.89062 80.43305,-8.6543 27.06439,2.23632 53.62037,8.75346 79.51288,16.94249 51.78503,16.37804 101.61451,39.56515 154.90491,50.05621 55.17767,10.8626 113.08123,7.5738 166.67404,-9.46683 L 901.4138,856.27228 c -51.53569,24.79226 -108.92687,37.30894 -166.10565,36.22667 -41.24004,-0.78058 -82.33848,-8.57601 -120.99999,-22.95092 z"
   sodipodi:nodetypes="caacaaaaaaaaaaaaaaaacacaaaaaaaaaaaaaaaaccaaaccaaccac"
   inkscape:path-effect="#path-effect853"
   inkscape:original-d="m 614.30816,869.54803 c 24.01517,-8.87336 74.33433,-2.22757 107.92248,-16.1962 71.37932,-29.68521 165.93399,-63.74241 186.12017,-138.36639 11.14631,-41.20554 -18.38067,-132.85987 -50.24014,-117.79287 24.71302,0.26046 51.78911,-48.33245 51.37974,-80.03136 -0.65181,-50.47211 -41.80933,-99.26985 -85.07208,-125.27358 -83.29072,-50.06316 -194.60162,-50.8333 -289.83186,-31.47185 -41.29837,8.39645 -83.20352,29.43733 -110.38294,61.64501 -45.38677,53.78343 -88.07855,130.87175 -70.48362,199.01156 22.76926,88.17841 113.54826,176.45213 204.49615,181.17994 61.37512,3.1905 117.6855,-54.98256 149.93551,-107.2991 C 765.22964,602.36011 787.80389,477.33328 758.58836,372.5581 727.14479,259.79256 644.70021,137.44357 532.59253,103.72957 480.17511,87.966142 418.85019,117.36688 375.12295,150.29103 c -43.29757,32.60063 -67.41534,86.7277 -87.40278,137.1061 -18.14933,45.74544 -19.444,96.50693 -27.57492,145.04487 -11.34666,67.73449 7.03138,145.79583 -29.58298,203.90002 -17.95357,28.49095 -51.88248,66.5717 -83.93177,56.23205 C 89.313424,674.0826 83.327608,583.47263 83.598539,523.24715 83.947756,445.61958 149.01526,381.29591 166.80387,305.73318 c 13.46638,-57.20269 17.08401,-175.46954 17.08401,-175.46954 0,0 -62.21121,-7.8052 -91.661577,-17.89447 C 58.172205,100.70271 -4.1863635,63.720553 -4.1863635,63.720553 c 0,0 60.4333975,92.058217 67.3962745,144.857107 14.726448,111.66938 -71.1860335,220.96067 -58.2449514,332.851 10.3599164,89.57323 36.6808724,191.38228 106.2203504,248.78395 13.32843,11.00201 33.74097,14.39433 50.67775,10.95386 68.8962,-13.99529 141.87513,-58.14177 172.42481,-121.46058 29.80536,-61.77609 -21.40367,-137.49053 -11.93794,-205.42465 7.90951,-56.76535 19.36732,-118.74468 56.51912,-162.38651 33.6023,-39.47227 85.13262,-77.74085 136.82872,-73.90851 49.94018,3.70216 87.11969,52.52011 120.20837,90.10823 22.41171,25.45928 42.76917,55.41095 50.21474,88.50209 13.01572,57.84711 14.52053,124.90951 -13.05525,177.40022 -29.40496,55.97256 -86.17097,132.62172 -147.86798,118.79931 -50.33891,-11.27777 -76.32669,-88.26836 -67.7584,-139.13857 9.76507,-57.97551 69.97487,-103.57383 124.90635,-124.52731 67.55093,-25.76714 156.17027,-27.80537 216.56686,11.93535 22.7432,14.96494 46.5284,47.84584 36.39853,73.11614 -7.1779,17.90623 -39.67575,23.64343 -54.43635,19.64901 2.5571,15.03308 -9.00206,56.74262 -12.42263,70.65163 21.18947,-5.41915 49.94294,6.94157 60.73877,26.16158 14.22416,25.32353 6.12416,63.74449 -12.20472,86.27581 -45.62612,56.08727 -133.94158,55.93301 -204.08665,73.45999 -86.99889,21.7382 -266.22867,38.65877 -266.22867,38.65877 L 352.02763,1000 c 15.90913,9.3842 46.40112,-49.42266 77.60707,-56.5003 104.09331,-23.60879 208.32723,51.5982 314.85084,58.3444 55.5363,3.5171 145.0571,-5.62147 166.67404,-9.46683 L 901.4138,856.27228 c -15.82442,1.32505 -109.44086,35.45367 -166.10565,36.22667 -41.04864,0.55997 -109.94223,-33.89601 -120.99999,-22.95092 z" /></svg>
