<?xml version="1.0" encoding="UTF-8"?>
<!DOCTYPE svg PUBLIC "-//W3C//DTD SVG 1.1//EN" "http://www.w3.org/Graphics/SVG/1.1/DTD/svg11.dtd">
<!-- Creator: CorelDRAW X8 -->
<svg xmlns="http://www.w3.org/2000/svg" xml:space="preserve" width="3801px" height="1486px" version="1.1" style="shape-rendering:geometricPrecision; text-rendering:geometricPrecision; image-rendering:optimizeQuality; fill-rule:evenodd; clip-rule:evenodd"
viewBox="0 0 3801 1486"
 xmlns:xlink="http://www.w3.org/1999/xlink">
 <defs>
  <style type="text/css">
   <![CDATA[
    .fil0 {fill:#EF7F1A;fill-rule:nonzero}
   ]]>
  </style>
 </defs>
 <g id="Layer_x0020_1">
  <metadata id="CorelCorpID_0Corel-Layer"/>
  <path class="fil0" d="M1158 111c15,0 30,2 45,5 -100,83 -164,209 -164,339 0,183 132,295 310,295 179,0 313,-110 312,-295 0,-129 -64,-255 -164,-339 16,-3 30,-4 46,-4 69,0 135,31 184,76 81,77 123,189 123,298 0,203 -144,402 -359,402l-350 0c-32,0 -102,14 -102,55 0,42 70,56 102,56l1312 0c32,0 101,-14 102,-55 0,-14 -9,-26 -24,-36 -122,-81 -188,-211 -188,-355 0,-104 28,-200 81,-275 80,-115 196,-167 335,-167 88,0 169,23 239,79 -122,21 -236,78 -311,176 -61,78 -92,178 -92,276 0,80 21,162 67,229 72,106 193,153 315,153 131,0 250,-55 319,-167 51,-83 74,-193 74,-290 0,-103 -22,-199 -73,-288 28,3 56,8 83,14 97,23 175,98 175,199 0,33 -8,74 -27,102 -12,18 -30,32 -56,35 -30,4 -67,20 -67,55 0,44 61,56 95,56 19,0 38,7 53,18 37,30 53,85 53,131 -1,47 -18,89 -47,123 -35,40 -86,67 -145,67l-2058 0c-139,0 -316,28 -316,204 0,170 175,203 316,203l2296 0c47,0 102,-28 102,-79 0,-52 -55,-80 -102,-80l-2296 0c-54,0 -111,0 -111,-70 0,-63 59,-67 111,-67l2058 0c83,0 165,-15 238,-56 92,-51 149,-141 149,-247 0,-92 -46,-172 -127,-217 50,-47 76,-110 76,-179 0,-164 -141,-265 -290,-300 -68,-16 -137,-25 -207,-25 -15,0 -30,0 -44,1 -117,-112 -282,-167 -450,-167 -183,0 -372,63 -489,194 -81,90 -130,213 -130,359 0,126 46,242 130,335l-420 0c131,-94 202,-242 202,-402 0,-160 -76,-308 -210,-398 -88,-59 -193,-87 -299,-87 -64,0 -132,11 -192,32 -62,-22 -130,-33 -196,-33 -161,0 -340,59 -434,197 -74,110 -71,199 -70,326 1,136 11,391 -184,390 -182,0 -265,-241 -265,-390 0,-165 82,-362 248,-421 25,-9 46,-27 46,-47 0,-10 -4,-20 -16,-30 -21,-18 -51,-25 -81,-25 -23,0 -47,4 -67,12 -215,80 -332,293 -332,511 0,281 178,501 467,501 338,0 385,-223 385,-501 0,-101 -4,-173 45,-265 53,-99 154,-147 261,-147zm1819 802c-54,0 -98,-39 -126,-81 -37,-55 -53,-124 -53,-190 0,-83 24,-166 76,-233 52,-68 129,-112 217,-117 54,82 76,179 76,275 0,88 -16,178 -63,254 -27,44 -70,93 -127,92zm-1628 -276c-79,0 -108,-122 -108,-182 1,-93 41,-191 110,-258 66,67 108,164 108,258 0,63 -30,182 -110,182z"/>
 </g>
</svg>
