<?xml version="1.0" encoding="UTF-8"?>
<!DOCTYPE svg PUBLIC "-//W3C//DTD SVG 1.1//EN" "http://www.w3.org/Graphics/SVG/1.1/DTD/svg11.dtd">
<!-- Creator: CorelDRAW X8 -->
<svg xmlns="http://www.w3.org/2000/svg" xml:space="preserve" width="1325px" height="868px" version="1.1" style="shape-rendering:geometricPrecision; text-rendering:geometricPrecision; image-rendering:optimizeQuality; fill-rule:evenodd; clip-rule:evenodd"
viewBox="0 0 1325 868"
 xmlns:xlink="http://www.w3.org/1999/xlink">
 <defs>
  <style type="text/css">
   <![CDATA[
    .fil0 {fill:#EF7F1A;fill-rule:nonzero}
   ]]>
  </style>
 </defs>
 <g id="Layer_x0020_1">
  <metadata id="CorelCorpID_0Corel-Layer"/>
  <path class="fil0" d="M287 600c208,0 242,-99 242,-285 0,-54 0,-114 27,-163 28,-53 83,-83 145,-83 45,0 88,16 124,43 -72,13 -139,45 -184,102 -36,46 -55,104 -55,161 0,47 13,94 40,133 46,67 124,91 196,91 79,0 159,-30 203,-99 31,-49 44,-104 44,-161 0,-59 -13,-118 -42,-171 21,3 44,6 65,16 43,20 78,54 78,104 0,13 -4,35 -10,47 -8,16 -21,29 -35,31 -20,3 -34,13 -34,36 0,25 28,31 50,32 13,1 24,6 33,15 17,17 24,43 24,67 0,28 -8,53 -28,73 -22,22 -56,37 -86,37l-886 0c-81,0 -198,15 -198,120 0,104 115,122 198,122l1028 0c29,0 71,-14 71,-48 0,-35 -42,-49 -71,-49l-1028 0c-30,0 -56,-2 -56,-39 0,-33 28,-36 56,-36l886 0c52,0 105,-11 151,-36 56,-30 90,-79 90,-144 0,-54 -29,-98 -76,-125 32,-29 45,-61 45,-103 0,-97 -88,-157 -176,-177 -42,-9 -87,-14 -130,-14l-16 0c-72,-69 -172,-97 -271,-97 -101,0 -213,31 -272,116 -42,60 -42,129 -42,199 0,77 9,216 -100,216 -103,0 -146,-132 -146,-218 0,-100 44,-215 146,-250 15,-5 30,-17 30,-29 0,-6 -3,-12 -11,-18 -14,-12 -36,-16 -58,-16 -18,0 -34,3 -48,8 -131,47 -200,169 -200,305 0,171 120,287 287,287zm535 -70c-38,0 -64,-31 -78,-64 -12,-29 -14,-60 -14,-91 0,-46 14,-96 41,-133 28,-38 66,-62 113,-67 30,47 42,109 42,164 0,46 -10,100 -32,140 -16,27 -38,51 -72,51z"/>
 </g>
</svg>
