<?xml version="1.0" encoding="UTF-8" standalone="no"?>
<svg
   xmlns:dc="http://purl.org/dc/elements/1.1/"
   xmlns:cc="http://creativecommons.org/ns#"
   xmlns:rdf="http://www.w3.org/1999/02/22-rdf-syntax-ns#"
   xmlns:svg="http://www.w3.org/2000/svg"
   xmlns="http://www.w3.org/2000/svg"
   xmlns:sodipodi="http://sodipodi.sourceforge.net/DTD/sodipodi-0.dtd"
   xmlns:inkscape="http://www.inkscape.org/namespaces/inkscape"
   xml:space="preserve"
   width="1000"
   height="1000"
   version="1.1"
   style="clip-rule:evenodd;fill-rule:evenodd;image-rendering:optimizeQuality;shape-rendering:geometricPrecision;text-rendering:geometricPrecision"
   viewBox="0 0 1000 1000"
   id="svg10"
   sodipodi:docname="ശ്ര.svg"
   inkscape:version="1.0.1 (3bc2e813f5, 2020-09-07)"><metadata
   id="metadata14"><rdf:RDF><cc:Work
       rdf:about=""><dc:format>image/svg+xml</dc:format><dc:type
         rdf:resource="http://purl.org/dc/dcmitype/StillImage" /><dc:title></dc:title></cc:Work></rdf:RDF></metadata><sodipodi:namedview
   pagecolor="#ffffff"
   bordercolor="#666666"
   borderopacity="1"
   objecttolerance="10"
   gridtolerance="10"
   guidetolerance="10"
   inkscape:pageopacity="0"
   inkscape:pageshadow="2"
   inkscape:window-width="1920"
   inkscape:window-height="1015"
   id="namedview12"
   showgrid="false"
   inkscape:zoom="0.6002692"
   inkscape:cx="444.57295"
   inkscape:cy="630.9891"
   inkscape:window-x="1920"
   inkscape:window-y="0"
   inkscape:window-maximized="1"
   inkscape:current-layer="svg10"
   showguides="true"
   inkscape:guide-bbox="true"
   inkscape:document-rotation="0"><sodipodi:guide
     position="0,1000"
     orientation="0,1"
     id="guide16"
     inkscape:label=""
     inkscape:locked="true"
     inkscape:color="rgb(0,0,255)" /><sodipodi:guide
     position="1763.3122,2036.1693"
     orientation="1000,0"
     id="guide18" /><sodipodi:guide
     position="0,200"
     orientation="0,1"
     id="guide20"
     inkscape:label="base"
     inkscape:locked="true"
     inkscape:color="rgb(0,0,255)" /><inkscape:grid
     type="xygrid"
     id="grid24"
     originx="-473.37552"
     originy="-489.69235" /><sodipodi:guide
     position="0,0"
     orientation="0,1"
     id="guide34"
     inkscape:label="bottom"
     inkscape:locked="true"
     inkscape:color="rgb(0,0,255)" /><sodipodi:guide
     position="225.05109,1693.3186"
     orientation="0,1"
     id="guide44"
     inkscape:label=""
     inkscape:locked="false"
     inkscape:color="rgb(0,0,255)" /><sodipodi:guide
     position="0,900"
     orientation="0,1"
     id="guide46"
     inkscape:label=""
     inkscape:locked="true"
     inkscape:color="rgb(0,0,255)" /><sodipodi:guide
     position="1241.0952,576.0081"
     orientation="-1,0"
     id="guide841"
     inkscape:label="width"
     inkscape:locked="false"
     inkscape:color="rgb(0,0,255)" /></sodipodi:namedview>
 <defs
   id="defs4"><inkscape:path-effect
   effect="spiro"
   id="path-effect853"
   is_visible="true"
   lpeversion="1" /><inkscape:path-effect
   effect="spiro"
   id="path-effect854"
   is_visible="true"
   lpeversion="1" />
  <style
   type="text/css"
   id="style2">
   <![CDATA[
    .fil0 {fill:#EF7F1A;fill-rule:nonzero}
   ]]>
  </style>
 <inkscape:path-effect
   effect="spiro"
   id="path-effect1214"
   is_visible="true"
   lpeversion="1" /><inkscape:path-effect
   effect="spiro"
   id="path-effect1195"
   is_visible="true"
   lpeversion="1" /><inkscape:path-effect
   effect="spiro"
   id="path-effect992"
   is_visible="true"
   lpeversion="1" /><inkscape:path-effect
   effect="spiro"
   id="path-effect287"
   is_visible="true"
   lpeversion="1" /><inkscape:path-effect
   effect="spiro"
   id="path-effect1032"
   is_visible="true"
   lpeversion="1" /><inkscape:path-effect
   effect="spiro"
   id="path-effect1102"
   is_visible="true"
   lpeversion="1" /></defs>
 
<path
   id="path1038-8-6"
   style="display:inline;fill:#1a1a1a;fill-rule:nonzero;stroke:none;stroke-width:4.4069;stroke-linecap:butt;stroke-linejoin:miter;stroke-miterlimit:4;stroke-dasharray:none;stroke-opacity:1"
   d="m 707.77413,989.91922 c 65.38915,1.84981 130.86233,7.12455 196.13064,2.74161 65.26832,-4.38295 131.25423,-19.03386 186.58453,-53.92966 58.0491,-36.61045 101.4409,-94.18297 126.4344,-158.09966 26.1327,-66.83003 32.8057,-141.49754 16.5989,-211.40114 -15.6415,-67.46536 -53.187,-130.49829 -108.2687,-172.47737 -55.6667,-42.42499 -126.40443,-61.74949 -196.33057,-64.74978 -42.8777,-1.83974 -86.28647,2.17879 -127.18949,15.17208 -40.90301,12.99329 -79.26912,35.2238 -108.51085,66.63722 -25.31437,27.19438 -43.39676,60.89279 -53.08862,96.75948 -9.69186,35.86668 -11.06841,73.8378 -5.05103,110.50035 8.14145,49.60399 30.42533,97.60683 66.88853,132.20848 36.46321,34.60164 87.66124,54.64586 137.60762,48.97146 31.5962,-3.58964 61.64634,-17.10241 86.97733,-36.32599 25.331,-19.22358 46.1069,-44.00573 62.95818,-70.97311 58.9329,-94.31136 68.8818,-212.72511 50.4368,-322.39509 -10.472,-62.26416 -30.0683,-124.16873 -66.97529,-175.39724 C 954.523,171.5466 931.83032,148.83987 905.42274,131.5407 879.01515,114.24152 848.84511,102.43487 817.50889,98.605607 759.90305,91.566218 700.46185,112.42093 656.48638,150.29103 614.93347,186.0749 586.9562,235.5541 569.0836,287.39713 c -16.08925,46.67009 -24.56817,95.77093 -27.57492,145.04487 -2.1088,34.55857 -1.55629,69.26176 -4.49772,103.75944 -2.94144,34.49767 -9.54886,69.19932 -25.08526,100.14058 -5.24924,10.45404 -11.57082,20.51517 -19.98244,28.6445 -8.41163,8.12934 -19.07469,14.25264 -30.66729,15.81894 -7.44383,1.00575 -15.09523,0.11284 -22.23136,-2.23191 -7.13613,-2.34475 -13.76494,-6.11847 -19.66269,-10.77021 -11.79551,-9.30347 -20.54223,-21.93125 -27.82878,-35.06879 -19.58863,-35.31798 -29.7016,-75.39869 -32.80438,-115.66588 -3.10278,-40.26719 0.6249,-80.81398 7.44319,-120.62082 C 384.24671,291.03984 424.23275,189.43931 482.86238,100 H 339.6901 c -29.93602,120.94184 -46.65758,245.14978 -49.7714,369.70257 -1.70464,68.18558 0.77615,137.27347 19.27179,202.92475 6.72156,23.85855 15.62624,47.32183 29.11827,68.11546 13.49204,20.79363 31.82694,38.88373 54.23998,49.46983 15.75753,7.44258 33.25119,11.03475 50.67775,10.95386 34.6244,-0.16072 68.45778,-14.94524 94.11776,-38.1926 25.65999,-23.24736 43.3939,-54.51848 53.06296,-87.7658 18.80111,-64.64811 7.81945,-133.82426 13.30615,-200.92683 4.72965,-57.84383 22.39353,-115.44269 56.51912,-162.38651 15.9466,-21.93646 35.5544,-41.52905 58.97978,-55.19485 23.42537,-13.6658 50.84005,-21.16768 77.84894,-18.71366 25.93691,2.35662 50.58853,13.78792 70.88274,30.11036 20.29421,16.32244 36.42953,37.37117 49.32563,59.99787 30.46577,53.45335 43.17582,115.4447 46.72996,176.86775 2.96352,51.21592 -0.84152,105.13834 -27.36704,149.05019 -13.26275,21.95592 -32.18445,40.81222 -55.24802,52.03875 -23.06358,11.22653 -50.34812,14.42116 -74.82339,6.74493 -27.07352,-8.49112 -49.26051,-29.93768 -60.9319,-55.79987 -11.6714,-25.8622 -13.25316,-55.70226 -6.8265,-83.3387 6.05713,-26.04736 19.02092,-50.33119 36.53095,-70.54388 17.51003,-20.21268 39.49051,-36.39302 63.55954,-48.04789 48.27564,-23.37637 105.12898,-28.17435 156.84661,-13.9519 45.27422,12.4505 86.95112,39.71765 113.59152,78.38361 18.0788,26.23955 28.9707,57.13981 33.0538,88.74179 4.0831,31.60197 1.4799,63.89222 -5.928,94.88382 -11.118,46.51299 -33.615,91.01091 -68.4089,123.82022 -36.8422,34.74073 -85.56031,54.77556 -135.1543,65.00787 -49.59399,10.2323 -100.55187,11.3314 -151.1731,12.65605 -136.30052,3.56669 -278.14541,7.99802 -402.54952,-47.80673 C 275.4,810.25111 190.71101,721.66309 151.26088,614.99066 114.88404,516.62834 117.36219,405.12652 154.61791,307.09371 180.36678,239.33944 222.28253,177.79121 275.8951,129.01276 L 135.5234,53.349533 C 76.578747,134.20026 35.505454,228.00729 16.074157,326.15889 -8.1204218,448.37084 1.9419879,578.5028 53.061731,692.11579 104.18147,805.72877 197.65949,901.41462 313.57266,947.07943 c 123.70178,48.73319 261.29956,39.0801 394.20147,42.83979 z"
   sodipodi:nodetypes="aaaaaaaaaaaaaaaaaaaccaasaaaaaaaaaaaaaaaaaaccaaa"
   inkscape:path-effect="#path-effect853"
   inkscape:original-d="m 707.77413,989.91922 c 128.6979,-1.59018 270.67612,12.15968 382.71517,-51.18805 58.7402,-33.21217 101.6268,-95.34581 126.4344,-158.09966 25.9857,-65.73402 33.4762,-142.76167 16.5989,-211.40114 -16.208,-65.91767 -54.8269,-130.62265 -108.2687,-172.47737 -54.2524,-42.48962 -127.42188,-65.28429 -196.33057,-64.74978 -83.16227,0.64508 -178.70232,21.24855 -235.70034,81.8093 -49.17704,52.25091 -78.39257,138.42409 -58.13965,207.25983 25.7054,87.36764 113.54826,176.45213 204.49615,181.17994 61.37512,3.1905 117.6855,-54.98256 149.93551,-107.2991 57.0781,-92.59308 78.758,-217.37465 50.4368,-322.39509 C 1009.3243,258.98559 930.25708,132.14071 817.50889,98.605607 763.47685,82.53466 701.12517,115.86553 656.48638,150.29103 c -42.91815,33.09854 -67.41534,86.7277 -87.40278,137.1061 -18.14933,45.74544 -19.444,96.50693 -27.57492,145.04487 -11.34666,67.73449 3.17512,143.53766 -29.58298,203.90002 -10.71569,19.74549 -28.22229,43.15181 -50.64973,44.46344 -28.18123,1.64812 -55.28052,-23.81564 -69.72283,-48.07091 C 351.02653,564.67173 355.60812,474.95223 366.19195,396.44785 380.3804,291.20659 482.86238,100 482.86238,100 c -69.4284,-5.68555 -83.34139,35.19642 -143.17228,0 -69.06017,104.61523 -47.33842,245.38045 -49.7714,369.70257 -1.32944,67.93293 -4.38926,139.23169 19.27179,202.92475 16.73087,45.03776 49.47737,86.84179 83.35825,117.58529 12.79892,11.61374 33.92167,15.18765 50.67775,10.95386 62.60598,-15.81877 118.25138,-68.22768 147.18072,-125.9584 30.0712,-60.0094 -0.0641,-135.14961 13.30615,-200.92683 11.41644,-56.16521 19.36732,-118.74468 56.51912,-162.38651 33.6023,-39.47227 85.13262,-77.74085 136.82872,-73.90851 49.94018,3.70216 92.22562,48.57881 120.20837,90.10823 34.07455,50.57032 58.54537,117.04444 46.72996,176.86775 -16.84007,85.26397 -70.94066,216.29927 -157.43845,207.83387 -51.34146,-5.02471 -74.13402,-87.94731 -67.7584,-139.13857 6.39308,-51.33146 54.19031,-94.7388 100.09049,-118.59177 46.57508,-24.20369 106.09052,-27.32638 156.84661,-13.9519 44.48512,11.72205 89.28292,39.32687 113.59152,78.38361 32.694,52.5295 38.1446,122.7419 27.1258,183.62561 -8.3976,46.3999 -31.3162,94.70663 -68.4089,123.82022 -77.79112,61.05729 -187.70206,70.4186 -286.3274,77.66392 C 646.95784,914.50728 499.85322,917.58645 379.17128,856.80046 280.24856,806.97432 191.5679,718.15893 151.26088,614.99066 113.91027,519.38953 123.8561,405.01386 154.61791,307.09371 176.14265,238.57676 297.89012,149.40163 275.8951,129.01276 L 135.5234,53.349533 c 7.19335,2.65588 -121.142003,173.552517 -119.449243,272.809357 3.91346,229.47037 110.194233,488.29674 297.498503,620.92054 107.87094,76.37977 262.03741,44.4728 394.20147,42.83979 z" /></svg>
