<?xml version="1.0" encoding="UTF-8" standalone="no"?>
<svg
   xmlns:dc="http://purl.org/dc/elements/1.1/"
   xmlns:cc="http://creativecommons.org/ns#"
   xmlns:rdf="http://www.w3.org/1999/02/22-rdf-syntax-ns#"
   xmlns:svg="http://www.w3.org/2000/svg"
   xmlns="http://www.w3.org/2000/svg"
   xmlns:sodipodi="http://sodipodi.sourceforge.net/DTD/sodipodi-0.dtd"
   xmlns:inkscape="http://www.inkscape.org/namespaces/inkscape"
   xml:space="preserve"
   width="1000"
   height="1000"
   version="1.1"
   style="clip-rule:evenodd;fill-rule:evenodd;image-rendering:optimizeQuality;shape-rendering:geometricPrecision;text-rendering:geometricPrecision"
   viewBox="0 0 1000 1000"
   id="svg10"
   sodipodi:docname="ശു_small.svg"
   inkscape:version="1.0.1 (3bc2e813f5, 2020-09-07)"><metadata
   id="metadata14"><rdf:RDF><cc:Work
       rdf:about=""><dc:format>image/svg+xml</dc:format><dc:type
         rdf:resource="http://purl.org/dc/dcmitype/StillImage" /><dc:title /></cc:Work></rdf:RDF></metadata><sodipodi:namedview
   pagecolor="#ffffff"
   bordercolor="#666666"
   borderopacity="1"
   objecttolerance="10"
   gridtolerance="10"
   guidetolerance="10"
   inkscape:pageopacity="0"
   inkscape:pageshadow="2"
   inkscape:window-width="1920"
   inkscape:window-height="1015"
   id="namedview12"
   showgrid="false"
   inkscape:zoom="0.84890884"
   inkscape:cx="327.86116"
   inkscape:cy="1116.3314"
   inkscape:window-x="1920"
   inkscape:window-y="0"
   inkscape:window-maximized="1"
   inkscape:current-layer="svg10"
   showguides="true"
   inkscape:guide-bbox="true"
   inkscape:document-rotation="0"><sodipodi:guide
     position="0,1000"
     orientation="0,1"
     id="guide16"
     inkscape:label=""
     inkscape:locked="true"
     inkscape:color="rgb(0,0,255)" /><sodipodi:guide
     position="1763.3122,2036.1693"
     orientation="1000,0"
     id="guide18" /><sodipodi:guide
     position="0,200"
     orientation="0,1"
     id="guide20"
     inkscape:label="base"
     inkscape:locked="true"
     inkscape:color="rgb(0,0,255)" /><inkscape:grid
     type="xygrid"
     id="grid24"
     originx="-473.37552"
     originy="-489.69235" /><sodipodi:guide
     position="0,0"
     orientation="0,1"
     id="guide34"
     inkscape:label="bottom"
     inkscape:locked="true"
     inkscape:color="rgb(0,0,255)" /><sodipodi:guide
     position="225.05109,1693.3186"
     orientation="0,1"
     id="guide44"
     inkscape:label=""
     inkscape:locked="false"
     inkscape:color="rgb(0,0,255)" /><sodipodi:guide
     position="0,900"
     orientation="0,1"
     id="guide46"
     inkscape:label=""
     inkscape:locked="true"
     inkscape:color="rgb(0,0,255)" /><sodipodi:guide
     position="768.45201,586.15029"
     orientation="-1,0"
     id="guide841"
     inkscape:label=""
     inkscape:locked="false"
     inkscape:color="rgb(0,0,255)" /></sodipodi:namedview>
 <defs
   id="defs4"><inkscape:path-effect
   effect="spiro"
   id="path-effect853"
   is_visible="true"
   lpeversion="1" /><inkscape:path-effect
   effect="spiro"
   id="path-effect854"
   is_visible="true"
   lpeversion="1" />
  <style
   type="text/css"
   id="style2">
   <![CDATA[
    .fil0 {fill:#EF7F1A;fill-rule:nonzero}
   ]]>
  </style>
 <inkscape:path-effect
   effect="spiro"
   id="path-effect1214"
   is_visible="true"
   lpeversion="1" /><inkscape:path-effect
   effect="spiro"
   id="path-effect1195"
   is_visible="true"
   lpeversion="1" /><inkscape:path-effect
   effect="spiro"
   id="path-effect992"
   is_visible="true"
   lpeversion="1" /><inkscape:path-effect
   effect="spiro"
   id="path-effect287"
   is_visible="true"
   lpeversion="1" /><inkscape:path-effect
   effect="spiro"
   id="path-effect1032"
   is_visible="true"
   lpeversion="1" /><inkscape:path-effect
   effect="spiro"
   id="path-effect1102"
   is_visible="true"
   lpeversion="1" /></defs>
 
<path
   id="path1038-8-6"
   style="display:inline;fill:#1a1a1a;fill-rule:nonzero;stroke:none;stroke-width:3.26985;stroke-linecap:butt;stroke-linejoin:miter;stroke-miterlimit:4;stroke-dasharray:none;stroke-opacity:1"
   d="m 498.56697,1239.1012 c 42.06162,-3.0511 83.55322,-13.7948 121.80977,-31.5409 31.50865,-14.616 61.24725,-34.3477 83.11649,-61.3322 21.86923,-26.9844 35.303,-61.8008 32.21781,-96.3971 -2.61038,-29.2719 -16.93915,-56.92026 -37.63325,-77.78687 -20.69409,-20.8666 -47.45045,-35.18219 -75.67891,-43.35621 -56.45692,-16.34804 -116.862,-8.63989 -174.69195,1.8644 -36.01778,6.5423 -73.12801,14.67787 -102.47812,36.55603 -18.73137,13.96274 -33.50856,33.23485 -41.86213,55.05315 -8.35356,21.8184 -10.21706,46.1184 -5.00622,68.8927 4.43879,19.4 13.91396,37.5387 26.75558,52.7425 12.84162,15.2039 28.99701,27.4984 46.75456,36.4837 35.51509,17.9704 76.76743,22.4757 116.34149,18.2152 51.73908,-5.5702 102.74198,-26.4957 139.19823,-63.6293 24.10807,-24.556 41.36478,-55.7442 49.50396,-89.1799 8.13918,-33.4358 7.15543,-69.02656 -2.67906,-102.00349 -13.31341,-44.64242 -42.70504,-83.88271 -80.32359,-111.36065 -37.61855,-27.47794 -83.1347,-43.41438 -129.48809,-48.05721 -50.10737,-5.01884 -102.12364,3.24236 -146.19276,27.61138 -33.97237,18.78579 -62.81672,47.08311 -81.14364,81.30521 -14.20407,26.52345 -21.98846,56.14321 -25.6002,86.013 -2.51208,20.77537 -3.06278,41.77256 -6.20881,62.46146 -3.14603,20.6888 -9.09672,41.4212 -21.25566,58.4531 -8.67856,12.1567 -20.4637,22.1701 -34.11631,28.229 -13.65261,6.0588 -29.16339,8.0718 -43.80488,5.1172 -21.108455,-4.2596 -39.554369,-18.8666 -49.936063,-37.7328 -10.381695,-18.8661 -12.938494,-41.591 -8.58201,-62.6797 5.105412,-24.7141 19.038701,-46.6523 34.083884,-66.9129 15.045184,-20.26061 31.578449,-39.65501 43.162889,-62.07488 16.39418,-31.72839 22.05751,-68.88329 15.86058,-104.05512 -28.60667,-0.98818 -57.12414,-4.54429 -85.097446,-10.61159 -30.684505,-6.65535 -60.7125633,-16.33358 -89.5083,-28.84909 16.773957,7.78704 31.515976,19.9034 42.4041505,34.85169 10.8881745,14.94828 17.8988825,32.69605 20.1656985,51.04994 4.222102,34.18538 -7.778143,68.17598 -21.363088,99.82903 -13.5849447,31.65305 -29.170213,63.29202 -32.710788,97.55472 -3.306301,31.9956 4.544249,65.1161 22.2804519,91.9503 17.7362031,26.8342 45.3014331,47.1146 76.3331781,55.5809 15.3014,4.1746 31.217123,5.5338 47.048583,6.4958 31.74998,1.9293 64.3631,2.2202 94.44647,-8.113 15.04169,-5.1666 29.27887,-13.0109 40.93393,-23.8324 11.65507,-10.8216 20.65103,-24.7007 24.69661,-40.0818 5.22582,-19.8684 2.06315,-40.9184 -2.21783,-61.0116 -4.28099,-20.0931 -9.68698,-40.2796 -8.86522,-60.8073 0.75207,-18.78681 6.78823,-37.17499 16.17912,-53.46367 9.3909,-16.28867 22.06581,-30.54028 36.29253,-42.83298 17.43467,-15.06455 37.38314,-27.35054 59.05125,-35.18644 21.66811,-7.8359 45.07476,-11.15462 67.9788,-8.64201 41.54561,4.55762 78.71799,27.63605 111.59994,53.43502 18.59504,14.58955 36.88854,30.94301 46.61873,52.4826 7.55269,16.71929 9.40586,35.71868 6.77619,53.87528 -2.62966,18.1566 -9.59702,35.5102 -18.89653,51.3247 -13.93591,23.699 -33.48873,44.4192 -57.58025,57.6649 -24.09153,13.2458 -52.8391,18.6514 -79.6985,12.7842 -18.7416,-4.0939 -36.5213,-13.8189 -48.64557,-28.6853 -12.12427,-14.8664 -18.11847,-35.0335 -14.2605,-53.8251 2.3815,-11.5999 8.34969,-22.3254 16.35516,-31.0513 8.00548,-8.726 17.99545,-15.5056 28.72849,-20.5088 21.46608,-10.0064 45.46718,-12.9202 69.04491,-15.15876 35.85629,-3.40433 72.90296,-5.41965 107.07136,5.97256 17.0842,5.6962 33.20179,14.7936 45.88145,27.582 12.67967,12.7883 21.7795,29.3893 24.29646,47.2213 2.50533,17.7496 -1.59338,36.1353 -10.16039,51.8811 -8.567,15.7459 -21.43534,28.9271 -36.17771,39.1245 -29.48474,20.3948 -65.46539,28.7627 -100.71246,35.3158 -81.46063,15.1452 -164.30684,22.8294 -247.16335,22.9251 l 4.97328,89.5216 c 21.38576,-15.9408 46.07873,-27.4238 72.04943,-33.5052 48.12835,-11.2699 98.60495,-3.8859 146.83532,6.9392 48.23036,10.825 96.10386,25.1084 145.46822,27.6596 25.68513,1.3274 51.53493,-0.5633 76.75354,-5.614 l -9.04787,-80.7115 c -24.4197,10.1959 -50.07582,17.4265 -76.22586,21.4827 -51.40471,7.9735 -104.6948,3.5072 -154.05518,-12.9115 z"
   sodipodi:nodetypes="caaaaaaaaaaaaaaaacacaaaaaaaaaaaaaaaaccaaccac"
   inkscape:path-effect="#path-effect853"
   inkscape:original-d="m 498.56697,1239.1012 c 22.29539,-5.262 90.03735,-12.2715 121.80977,-31.5409 65.88111,-39.9555 140.37934,-101.9495 115.3343,-157.7293 C 704.1686,979.5802 562.05978,932.96059 447.70693,930.55232 c -39.10403,-0.82357 -78.82379,16.64927 -102.47812,36.55603 -40.22938,33.85585 -66.81164,83.39645 -46.86835,123.94585 25.34043,51.523 105.41677,104.6378 189.85163,107.4414 56.9799,1.892 109.25773,-32.6051 139.19823,-63.6293 52.99058,-54.9087 73.94822,-129.0507 46.8249,-191.18339 C 645.0434,876.81187 568.50289,804.25777 464.42354,784.26505 c -48.66366,-9.34787 -105.59695,8.08705 -146.19276,27.61138 -40.19692,19.33248 -62.58756,51.43035 -81.14364,81.30521 -16.84961,27.12746 -18.05156,57.2295 -25.6002,86.013 -10.5341,40.16716 6.52784,86.45826 -27.46447,120.91456 -16.66786,16.8954 -48.16704,39.4777 -77.92119,33.3462 C 52.888833,1122.4898 47.331679,1068.7572 47.583207,1033.0429 47.907415,987.00904 108.31526,948.86451 124.82998,904.05512 137.332,870.13335 140.69056,800 140.69056,800 c 0,0 -57.756097,-4.62856 -85.097446,-10.61159 -31.615393,-6.91832 -89.5083,-28.84909 -89.5083,-28.84909 0,0 56.105601,54.59139 62.569849,85.90163 13.671848,66.22099 -66.088213,131.03179 -54.073876,197.38375 9.618016,53.1179 34.0540575,113.4915 98.61363,147.5312 12.373945,6.5243 31.324683,8.536 47.048583,6.4958 63.96235,-8.2993 131.71507,-34.4786 160.07701,-72.0272 27.67092,-36.6339 -19.8709,-81.5333 -11.08305,-121.8189 7.3431,-33.66228 17.98039,-70.41666 52.47165,-96.29665 31.19595,-23.40743 79.03606,-46.10106 127.03005,-43.82845 46.36382,2.19542 80.88081,31.14492 111.59994,53.43502 20.80674,15.09761 39.70634,32.85925 46.61873,52.4826 12.08363,34.30388 13.48067,74.07248 -12.12034,105.19998 -27.29919,33.1923 -80.00004,78.646 -137.27875,70.4491 -46.73401,-6.6877 -71.86769,-52.4593 -62.90607,-82.5104 9.64985,-32.3589 62.65328,-64.71958 114.12856,-66.71886 72.44497,-2.81366 165.98265,34.97796 177.24927,80.77586 12.75202,51.8358 -76.49961,99.4422 -147.05056,126.3214 -71.49931,27.2406 -247.16335,22.9251 -247.16335,22.9251 l 4.97328,89.5216 c 14.76985,5.5649 43.07822,-29.3082 72.04943,-33.5052 96.63891,-14.0003 193.26958,32.4085 292.30354,34.5988 25.73627,0.5691 56.68464,-3.3336 76.75354,-5.614 l -9.04787,-80.7115 c -14.69118,0.7857 -48.73556,18.9628 -76.22586,21.4827 -51.26667,4.6993 -143.7893,-19.4021 -154.05518,-12.9115 z" /></svg>
