<?xml version="1.0" encoding="UTF-8"?>
<!DOCTYPE svg PUBLIC "-//W3C//DTD SVG 1.1//EN" "http://www.w3.org/Graphics/SVG/1.1/DTD/svg11.dtd">
<!-- Creator: CorelDRAW X8 -->
<svg xmlns="http://www.w3.org/2000/svg" xml:space="preserve" width="2483px" height="1024px" version="1.1" style="shape-rendering:geometricPrecision; text-rendering:geometricPrecision; image-rendering:optimizeQuality; fill-rule:evenodd; clip-rule:evenodd"
viewBox="0 0 2483 1024"
 xmlns:xlink="http://www.w3.org/1999/xlink">
 <defs>
  <style type="text/css">
   <![CDATA[
    .fil0 {fill:#EF7F1A;fill-rule:nonzero}
   ]]>
  </style>
 </defs>
 <g id="Layer_x0020_1">
  <metadata id="CorelCorpID_0Corel-Layer"/>
  <path class="fil0" d="M1158 111c15,0 30,2 45,5 -100,83 -164,209 -164,339 0,183 131,295 310,295 179,0 313,-110 312,-295 0,-129 -64,-255 -164,-339 16,-4 30,-4 46,-4 69,0 135,30 183,76 82,76 123,189 123,298 0,203 -143,402 -359,402l-349 0c-32,0 -102,14 -102,55 0,42 70,56 102,56l1241 0c33,0 101,-14 101,-56l0 -887c0,-42 -69,-56 -101,-56 -33,0 -102,14 -102,56l0 832 -431 0c131,-94 202,-242 202,-402 0,-160 -75,-308 -210,-398 -88,-59 -192,-87 -298,-87 -64,0 -132,11 -193,32 -61,-22 -129,-33 -195,-33 -162,0 -341,59 -434,197 -75,110 -72,199 -71,326 2,135 11,390 -183,390 -182,0 -265,-241 -265,-390 0,-165 82,-362 248,-421 25,-9 46,-27 46,-47 0,-10 -4,-20 -16,-30 -21,-18 -51,-25 -81,-25 -23,0 -47,4 -67,12 -215,80 -332,293 -332,511 0,281 177,501 467,501 338,0 385,-223 385,-501 0,-101 -4,-173 45,-265 53,-99 154,-147 261,-147zm191 526c-79,0 -108,-122 -108,-182 1,-93 41,-191 109,-258 67,67 108,164 108,258 0,62 -30,182 -109,182z"/>
 </g>
</svg>
