<?xml version="1.0" encoding="UTF-8" standalone="no"?>
<svg
   xmlns:dc="http://purl.org/dc/elements/1.1/"
   xmlns:cc="http://creativecommons.org/ns#"
   xmlns:rdf="http://www.w3.org/1999/02/22-rdf-syntax-ns#"
   xmlns:svg="http://www.w3.org/2000/svg"
   xmlns="http://www.w3.org/2000/svg"
   xmlns:sodipodi="http://sodipodi.sourceforge.net/DTD/sodipodi-0.dtd"
   xmlns:inkscape="http://www.inkscape.org/namespaces/inkscape"
   xml:space="preserve"
   width="1000"
   height="1000"
   version="1.1"
   style="clip-rule:evenodd;fill-rule:evenodd;image-rendering:optimizeQuality;shape-rendering:geometricPrecision;text-rendering:geometricPrecision"
   viewBox="0 0 1000 1000"
   id="svg10"
   sodipodi:docname="ഷ.svg"
   inkscape:version="1.0.1 (3bc2e813f5, 2020-09-07)"><metadata
   id="metadata14"><rdf:RDF><cc:Work
       rdf:about=""><dc:format>image/svg+xml</dc:format><dc:type
         rdf:resource="http://purl.org/dc/dcmitype/StillImage" /><dc:title /></cc:Work></rdf:RDF></metadata><sodipodi:namedview
   pagecolor="#ffffff"
   bordercolor="#666666"
   borderopacity="1"
   objecttolerance="10"
   gridtolerance="10"
   guidetolerance="10"
   inkscape:pageopacity="0"
   inkscape:pageshadow="2"
   inkscape:window-width="1920"
   inkscape:window-height="1015"
   id="namedview12"
   showgrid="false"
   inkscape:zoom="0.678"
   inkscape:cx="224.49078"
   inkscape:cy="483.97113"
   inkscape:window-x="1920"
   inkscape:window-y="0"
   inkscape:window-maximized="1"
   inkscape:current-layer="svg10"
   showguides="true"
   inkscape:guide-bbox="true"
   inkscape:document-rotation="0"
   inkscape:snap-to-guides="true"><sodipodi:guide
     position="0,1000"
     orientation="0,1"
     id="guide16"
     inkscape:label=""
     inkscape:locked="true"
     inkscape:color="rgb(0,0,255)" /><sodipodi:guide
     position="1763.3122,2036.1693"
     orientation="1000,0"
     id="guide18" /><sodipodi:guide
     position="0,200"
     orientation="0,1"
     id="guide20"
     inkscape:label="base"
     inkscape:locked="true"
     inkscape:color="rgb(0,0,255)" /><inkscape:grid
     type="xygrid"
     id="grid24"
     originx="-473.37552"
     originy="-489.69235" /><sodipodi:guide
     position="0,0"
     orientation="0,1"
     id="guide34"
     inkscape:label="bottom"
     inkscape:locked="true"
     inkscape:color="rgb(0,0,255)" /><sodipodi:guide
     position="225.05109,1693.3186"
     orientation="0,1"
     id="guide44"
     inkscape:label=""
     inkscape:locked="false"
     inkscape:color="rgb(0,0,255)" /><sodipodi:guide
     position="0,900"
     orientation="0,1"
     id="guide46"
     inkscape:label=""
     inkscape:locked="true"
     inkscape:color="rgb(0,0,255)" /><sodipodi:guide
     position="945.47994,761.72613"
     orientation="-1,0"
     id="guide841"
     inkscape:label=""
     inkscape:locked="false"
     inkscape:color="rgb(0,0,255)" /><sodipodi:guide
     position="0,1000"
     orientation="0,1000"
     id="guide860" /><sodipodi:guide
     position="1000,1000"
     orientation="1000,0"
     id="guide862" /><sodipodi:guide
     position="1000,0"
     orientation="0,-1000"
     id="guide864" /><sodipodi:guide
     position="0,0"
     orientation="-1000,0"
     id="guide866" /></sodipodi:namedview>
 <defs
   id="defs4"><inkscape:path-effect
   effect="spiro"
   id="path-effect859"
   is_visible="true"
   lpeversion="1" /><inkscape:path-effect
   effect="spiro"
   id="path-effect862"
   is_visible="true"
   lpeversion="1" /><inkscape:path-effect
   effect="spiro"
   id="path-effect1521"
   is_visible="true"
   lpeversion="1" /><inkscape:path-effect
   effect="spiro"
   id="path-effect858"
   is_visible="true"
   lpeversion="1" /><inkscape:path-effect
   effect="spiro"
   id="path-effect854"
   is_visible="true"
   lpeversion="1" />
  <style
   type="text/css"
   id="style2">
   <![CDATA[
    .fil0 {fill:#EF7F1A;fill-rule:nonzero}
   ]]>
  </style>
 <inkscape:path-effect
   effect="spiro"
   id="path-effect1214"
   is_visible="true"
   lpeversion="1" /><inkscape:path-effect
   effect="spiro"
   id="path-effect1195"
   is_visible="true"
   lpeversion="1" /><inkscape:path-effect
   effect="spiro"
   id="path-effect992"
   is_visible="true"
   lpeversion="1" /><inkscape:path-effect
   effect="spiro"
   id="path-effect287"
   is_visible="true"
   lpeversion="1" /><inkscape:path-effect
   effect="spiro"
   id="path-effect1032"
   is_visible="true"
   lpeversion="1" /><inkscape:path-effect
   effect="spiro"
   id="path-effect1218"
   is_visible="true"
   lpeversion="1" /><inkscape:path-effect
   effect="spiro"
   id="path-effect309"
   is_visible="true"
   lpeversion="1" /><inkscape:path-effect
   effect="spiro"
   id="path-effect1176"
   is_visible="true"
   lpeversion="1" /><inkscape:path-effect
   effect="spiro"
   id="path-effect1026"
   is_visible="true"
   lpeversion="1" /><inkscape:path-effect
   effect="spiro"
   id="path-effect1247"
   is_visible="true"
   lpeversion="1" /></defs>
 
<path
   style="display:inline;fill:#1a1a1a;fill-rule:nonzero;stroke:none;stroke-width:1.97338px;stroke-linecap:butt;stroke-linejoin:miter;stroke-opacity:1"
   d="M 95.746163,770.03339 C 83.950348,705.08974 44.780075,648.79089 21.624314,586.97965 12.876368,563.62817 6.3829792,539.28379 4.4534827,514.42227 2.5239861,489.56074 5.2714006,464.12079 14.438887,440.9308 29.253079,403.45696 60.626032,373.54668 97.552566,357.41658 134.4791,341.28647 176.4994,338.41173 216.07638,345.9888 c 64.80378,12.40678 122.81444,52.36844 162.40741,105.14964 33.2855,44.37274 54.45801,98.79459 54.18114,154.26339 -0.1669,33.43833 -8.11003,66.8137 -23.02405,96.74231 73.48033,6.8356 147.2235,10.84529 221.01179,12.01724 50.59933,0.80365 102.18147,0.12489 150.28031,-15.60531 7.37354,-2.41144 14.66896,-5.18486 21.40359,-9.0357 6.73463,-3.85084 12.91916,-8.82526 17.48163,-15.09965 6.21273,-8.54386 9.14391,-19.12728 9.97657,-29.65829 0.83267,-10.53101 -0.31286,-21.10965 -1.58658,-31.59646 -2.80644,-23.10599 -6.243,-46.13545 -10.30459,-69.05414 -67.91678,32.80238 -149.36534,36.36751 -219.8885,9.62486 C 534.15658,529.5213 480.93061,482.23485 440.41158,427.25755 409.64461,385.51211 384.89577,336.89737 383.5757,285.05583 c -0.83335,-32.72742 7.92286,-65.56714 24.45408,-93.82483 16.53122,-28.25769 40.73718,-51.89248 69.10183,-68.2395 29.09854,-16.76997 62.71649,-25.904881 96.29103,-25.063531 33.57453,0.841351 66.98745,11.806471 93.893,31.907431 34.65886,25.89341 57.23116,65.77607 67.72954,107.74617 12.905,51.59117 8.47613,107.13615 -11.06218,156.59767 -17.1548,43.42764 -45.33243,81.81373 -62.60633,125.19414 -30.26083,75.99482 -23.86038,165.66006 16.88789,236.58614 l -130.71662,9.66624 c -29.73657,-50.0743 -36.86109,-113.01699 -19.06935,-168.47105 10.51247,-32.76571 28.99967,-62.31758 47.89276,-91.07788 18.89309,-28.7603 38.51577,-57.37501 51.7049,-89.15787 15.62222,-37.64607 21.69658,-80.03834 12.04395,-119.63767 -3.91523,-16.062 -10.45342,-31.662 -20.61848,-44.69996 -10.16506,-13.03796 -24.13103,-23.40427 -40.08845,-27.72605 -20.78078,-5.6281 -43.75233,-0.46332 -61.43454,11.81902 -17.6822,12.28235 -30.23295,31.15896 -36.88837,51.63386 -10.52116,32.36757 -6.74826,68.09884 4.66685,100.16206 9.72258,27.30916 25.01874,52.84533 45.89666,72.9558 20.87792,20.11048 47.46709,34.61535 76.05338,39.42606 28.9974,4.8799 59.34254,-0.35545 85.82594,-13.13403 26.4834,-12.77858 49.14991,-32.88037 66.45907,-56.65127 C 794.61058,383.52499 807.2792,323.07263 808.39409,264.27291 809.44943,208.61385 800.88798,152.78512 783.20252,100 l 162.27742,35.73734 c -23.43351,81.00175 -37.59841,164.68094 -42.12985,248.88236 -2.37937,44.2124 -2.09065,88.80457 5.46241,132.43196 6.56327,37.91024 18.52562,74.64006 28.09149,111.9061 9.56587,37.26603 16.78405,75.72793 13.55497,114.06637 -0.8277,9.82722 -2.36021,19.67493 -5.8024,28.91672 -3.44219,9.24179 -8.89597,17.89629 -16.59522,24.05915 -8.82822,7.06654 -20.1201,10.4876 -31.36995,11.634 -11.24985,1.1464 -22.59374,0.17214 -33.86889,-0.69065 -80.59084,-6.16693 -161.49686,-6.61125 -242.32174,-7.11483 -113.75279,-0.70873 -227.50482,-1.54111 -341.2558,-2.49715 1.03229,-25.60441 0.0936,-51.28805 -2.80511,-76.74878 -1.78438,-15.6732 -4.31056,-31.26193 -7.56726,-46.69654 20.89795,0.6454 41.91715,-7.8817 56.45887,-22.90433 13.84418,-14.30202 21.59468,-33.92363 23.10446,-53.77129 1.50977,-19.84766 -2.95315,-39.87923 -11.0425,-58.06635 -13.71335,-30.83144 -38.6268,-57.16582 -69.98781,-69.62056 -15.6805,-6.22738 -32.79172,-8.95235 -49.59899,-7.47782 -16.80727,1.47453 -33.2784,7.18738 -47.15228,16.7881 -24.88895,17.22314 -40.15347,46.17915 -44.96034,76.0621 -4.80687,29.88294 0.0256,60.65156 9.16416,89.50607 22.36443,70.61443 71.29669,132.46523 134.87052,170.4775 L 88.310283,880.67682 c 11.52955,-35.51774 14.109217,-73.90235 7.43588,-110.64343 z"
   id="path1216-0"
   inkscape:path-effect="#path-effect1247"
   inkscape:original-d="M 95.746163,770.03339 C 85.335066,705.03151 35.794387,651.26685 21.624314,586.97965 11.132568,539.38039 -10.653985,482.71733 14.438887,440.9308 52.684499,377.24134 141.95388,340.99596 216.07638,345.9888 c 64.34589,4.33428 122.51115,54.47945 162.40741,105.14964 33.71546,42.82029 51.34516,99.83668 54.18114,154.26339 1.72489,33.10321 -23.02405,96.74231 -23.02405,96.74231 0,0 147.25465,13.8302 221.01179,12.01724 50.34758,-1.23755 102.62649,0.68959 150.28031,-15.60531 14.43493,-4.93593 30.57959,-11.33898 38.88522,-24.13535 11.22019,-17.2868 8.51374,-40.64623 8.38999,-61.25475 -0.13975,-23.2725 -10.30459,-69.05414 -10.30459,-69.05414 0,0 -150.16084,32.44314 -219.8885,9.62486 C 533.99627,532.78661 480.4967,481.39164 440.41158,427.25755 410.03429,386.23367 379.92113,335.97128 383.5757,285.05583 c 4.46573,-62.21653 38.98488,-131.85106 93.55591,-162.06433 55.49762,-30.726272 135.22147,-24.829533 190.18403,6.8439 36.75555,21.18122 57.42623,66.59455 67.72954,107.74617 12.70961,50.7624 2.75014,106.12416 -11.06218,156.59767 -12.31551,45.0038 -53.5095,79.43104 -62.60633,125.19414 -15.41456,77.54549 16.88789,236.58614 16.88789,236.58614 l -130.71662,9.66624 c 0,0 -30.07905,-113.0382 -19.06935,-168.47105 13.37188,-67.3262 79.14344,-114.71286 99.59766,-180.23575 11.94356,-38.25991 23.8363,-81.33087 12.04395,-119.63767 -9.26807,-30.10682 -29.55981,-67.71705 -60.70693,-72.42601 -38.56836,-5.83094 -80.46397,28.7747 -98.32291,63.45288 -15.30277,29.71465 -9.46011,69.87074 4.66685,100.16206 23.36429,50.09822 66.77547,115.77132 121.95004,112.38186 C 710.92389,494.51132 780.24683,363.77975 808.39409,264.27291 823.47268,210.96674 784.01695,114.0178 783.20252,100 l 162.27742,35.73734 c 0,0 -36.81303,164.90952 -42.12985,248.88236 -2.7918,44.09323 0.53589,88.52596 5.46241,132.43196 8.54057,76.11505 49.96875,149.83324 41.64646,225.97247 -2.08316,19.05851 -7.35231,41.0929 -22.39762,52.97587 -17.3039,13.66682 -43.24033,9.43583 -65.23884,10.94335 -80.61964,5.52474 -161.5266,-5.63329 -242.32174,-7.11483 -113.73586,-2.08559 -341.2558,-2.49715 -341.2558,-2.49715 1.61074,-25.44806 -0.28519,-51.2731 -2.80511,-76.74878 -1.55217,-15.69199 -7.56726,-46.69654 -7.56726,-46.69654 0,0 44.22592,-6.69251 56.45887,-22.90433 22.58468,-29.93054 31.92012,-80.03263 12.06196,-111.83764 -31.30228,-50.13399 -115.02456,-88.92599 -166.73908,-60.31028 -49.40528,27.33792 -48.56947,110.56739 -35.79618,165.56817 16.39151,70.58053 83.99796,132.56188 134.87052,170.4775 L 88.310283,880.67682 c 11.903927,-32.1326 13.281807,-74.14429 7.43588,-110.64343 z"
   sodipodi:nodetypes="aaaaaacaaaacaaaaaaaaccaaaaaaaaccaaaaaacacaaaacca" /></svg>
