<?xml version="1.0" encoding="UTF-8" standalone="no"?>
<svg
   xmlns:dc="http://purl.org/dc/elements/1.1/"
   xmlns:cc="http://creativecommons.org/ns#"
   xmlns:rdf="http://www.w3.org/1999/02/22-rdf-syntax-ns#"
   xmlns:svg="http://www.w3.org/2000/svg"
   xmlns="http://www.w3.org/2000/svg"
   xmlns:sodipodi="http://sodipodi.sourceforge.net/DTD/sodipodi-0.dtd"
   xmlns:inkscape="http://www.inkscape.org/namespaces/inkscape"
   xml:space="preserve"
   width="1000"
   height="1000"
   version="1.1"
   style="clip-rule:evenodd;fill-rule:evenodd;image-rendering:optimizeQuality;shape-rendering:geometricPrecision;text-rendering:geometricPrecision"
   viewBox="0 0 1000 1000"
   id="svg10"
   sodipodi:docname="സ_top.svg"
   inkscape:version="1.0.1 (3bc2e813f5, 2020-09-07)"><metadata
   id="metadata14"><rdf:RDF><cc:Work
       rdf:about=""><dc:format>image/svg+xml</dc:format><dc:type
         rdf:resource="http://purl.org/dc/dcmitype/StillImage" /><dc:title /></cc:Work></rdf:RDF></metadata><sodipodi:namedview
   pagecolor="#ffffff"
   bordercolor="#666666"
   borderopacity="1"
   objecttolerance="10"
   gridtolerance="10"
   guidetolerance="10"
   inkscape:pageopacity="0"
   inkscape:pageshadow="2"
   inkscape:window-width="1920"
   inkscape:window-height="1015"
   id="namedview12"
   showgrid="false"
   inkscape:zoom="0.84890884"
   inkscape:cx="586.90186"
   inkscape:cy="441.05921"
   inkscape:window-x="1920"
   inkscape:window-y="0"
   inkscape:window-maximized="1"
   inkscape:current-layer="svg10"
   showguides="true"
   inkscape:guide-bbox="true"
   inkscape:document-rotation="0"><sodipodi:guide
     position="0,1000"
     orientation="0,1"
     id="guide16"
     inkscape:label=""
     inkscape:locked="true"
     inkscape:color="rgb(0,0,255)" /><sodipodi:guide
     position="1763.3122,2036.1693"
     orientation="1000,0"
     id="guide18" /><sodipodi:guide
     position="0,200"
     orientation="0,1"
     id="guide20"
     inkscape:label="base"
     inkscape:locked="true"
     inkscape:color="rgb(0,0,255)" /><inkscape:grid
     type="xygrid"
     id="grid24"
     originx="-473.37552"
     originy="-489.69235" /><sodipodi:guide
     position="0,0"
     orientation="0,1"
     id="guide34"
     inkscape:label="bottom"
     inkscape:locked="true"
     inkscape:color="rgb(0,0,255)" /><sodipodi:guide
     position="225.05109,1693.3186"
     orientation="0,1"
     id="guide44"
     inkscape:label=""
     inkscape:locked="false"
     inkscape:color="rgb(0,0,255)" /><sodipodi:guide
     position="0,900"
     orientation="0,1"
     id="guide46"
     inkscape:label=""
     inkscape:locked="true"
     inkscape:color="rgb(0,0,255)" /><sodipodi:guide
     position="866.34048,384.46991"
     orientation="1,0"
     id="guide841" /></sodipodi:namedview>
 <defs
   id="defs4"><inkscape:path-effect
   effect="spiro"
   id="path-effect867"
   is_visible="true"
   lpeversion="1" />
  <style
   type="text/css"
   id="style2">
   <![CDATA[
    .fil0 {fill:#EF7F1A;fill-rule:nonzero}
   ]]>
  </style>
 <inkscape:path-effect
   effect="spiro"
   id="path-effect1214"
   is_visible="true"
   lpeversion="1" /><inkscape:path-effect
   effect="spiro"
   id="path-effect1195"
   is_visible="true"
   lpeversion="1" /><inkscape:path-effect
   effect="spiro"
   id="path-effect992"
   is_visible="true"
   lpeversion="1" /><inkscape:path-effect
   effect="spiro"
   id="path-effect1078"
   is_visible="true"
   lpeversion="1" /></defs>
 
<path
   style="display:inline;fill:#1a1a1a;stroke:none;stroke-width:1.92017px;stroke-linecap:butt;stroke-linejoin:miter;stroke-opacity:1"
   d="m 96.6238,840.93929 c 8.00317,-23.33895 12.94145,-47.72687 14.6482,-72.34077 C 117.79457,674.5334 77.677458,584.39414 42.143911,497.05481 22.660063,449.16468 4.1139996,399.95018 0.27603392,348.39094 -1.6429489,322.61132 0.20674739,296.41284 7.3554162,271.56998 14.504085,246.72712 27.070377,223.26066 45.009743,204.64748 c 20.101714,-20.85674 46.674865,-35.19781 74.950827,-41.48689 28.27596,-6.28908 58.15472,-4.62409 85.85413,3.85089 32.65458,9.99108 62.34639,29.46727 84.51831,55.43936 22.17192,25.97209 36.74859,58.35181 41.49279,92.1695 2.08108,-20.27992 6.47255,-40.32185 13.06224,-59.61387 13.31055,-38.96805 35.86637,-75.00403 66.49652,-102.52628 30.63014,-27.52224 69.43211,-46.27262 110.31619,-51.18902 48.40776,-5.821139 99.63651,8.76486 135.37739,41.92788 17.87045,16.58152 31.74311,37.52468 39.58604,60.60688 7.84294,23.08219 9.59023,48.26938 4.54066,72.11893 -4.81645,22.74854 -15.58263,43.81891 -27.89137,63.54678 -12.30874,19.72788 -26.25621,38.40593 -38.28014,58.30868 -13.02428,21.55859 -23.9147,45.09518 -26.18018,70.18048 -1.13274,12.54265 -0.0509,25.35401 3.87855,37.31899 3.92945,11.96497 10.76695,23.05908 20.18796,31.41645 8.48538,7.52737 18.96663,12.73648 30.03816,15.20311 11.07153,2.46663 22.71023,2.2102 33.72607,-0.49431 22.33159,-5.48265 41.52682,-20.95529 53.91349,-40.32871 12.38667,-19.37343 18.33038,-42.38806 19.61705,-65.3468 2.89917,-51.73132 -16.7205,-101.63927 -30.9395,-151.4625 C 727.80397,254.0929 719.69079,212.74844 718.34709,170.97111 717.58415,147.25051 719.00894,123.46 722.59746,100 h 143.99178 c -17.10388,27.39051 -30.94433,56.81686 -41.13552,87.4587 -20.54047,61.75901 -26.02109,128.60977 -14.68538,192.70024 8.20615,46.39638 25.12165,92.48825 19.7235,139.2945 -4.26188,36.9539 -23.04366,72.08317 -51.57435,95.95269 -28.53068,23.86953 -66.53051,36.16463 -103.61688,33.27406 -35.32533,-2.75332 -69.27435,-19.12372 -94.03961,-44.46423 -24.76526,-25.34051 -40.28359,-59.34887 -44.04858,-94.58074 -4.34905,-40.69742 6.58995,-81.83894 24.19447,-118.78857 8.50428,-17.84939 18.59309,-35.02409 25.11531,-53.68914 6.52222,-18.66506 9.26642,-39.46928 2.71061,-58.12256 -3.52517,-10.03018 -9.66193,-19.09992 -17.50356,-26.27907 -7.84163,-7.17915 -17.3629,-12.4731 -27.53219,-15.57421 -13.29565,-4.0545 -27.62454,-4.35433 -41.2398,-1.55468 -13.61525,2.79966 -26.52409,8.64133 -38.03502,16.4331 -23.02186,15.58355 -40.12909,38.5474 -53.7208,62.79855 -33.75346,60.22496 -47.99923,131.55736 -37.8277,199.84266 4.13801,27.78006 12.2116,54.97092 23.90458,80.50774 l -135.12671,9.44142 c 26.09862,-42.7588 39.52288,-93.14816 38.15639,-143.22395 -0.84171,-30.84471 -7.31022,-61.82295 -21.43975,-89.25397 -14.12953,-27.43102 -36.21614,-51.16111 -63.88191,-64.82529 -16.11988,-7.96164 -34.10874,-12.45241 -52.07307,-11.73067 -17.96433,0.72174 -35.86407,6.82166 -49.77888,18.20656 -10.69377,8.74949 -18.847863,20.41932 -24.134622,33.18492 -5.28676,12.76559 -7.763249,26.6048 -8.044332,40.41897 -0.562167,27.62833 7.491308,54.7126 17.325244,80.53768 24.07561,63.22539 59.34185,122.07599 102.92921,173.81791 28.3232,33.62206 60.15508,64.28663 94.81137,91.33452 -30.39972,13.57514 -60.34678,28.16393 -89.77468,43.73396 -37.42458,19.801 -74.00929,41.18932 -109.62278,64.08819 z"
   id="path1087-2"
   inkscape:path-effect="#path-effect1078"
   inkscape:original-d="m 96.6238,840.93929 c 0,0 15.25696,-47.74533 14.6482,-72.34077 C 108.96093,675.22555 53.301056,589.78761 42.143911,497.05481 30.500325,400.27895 -15.927532,280.725 45.009743,204.64748 79.42523,161.68125 153.50963,149.8446 205.8147,167.01148 c 61.46747,20.17404 126.0111,147.60886 126.0111,147.60886 0,0 2.68307,-42.11818 13.06224,-59.61387 39.84586,-67.16637 98.74721,-155.904526 176.81271,-153.7153 83.45081,2.34025 166.96182,92.1176 179.50409,174.65369 6.94407,45.69639 -54.45227,77.14484 -66.17151,121.85546 -11.74198,44.79736 -30.66955,102.45718 -2.11367,138.91592 13.45018,17.17252 43.41242,22.55778 63.76423,14.7088 40.03895,-15.44163 64.87017,-63.64505 73.53054,-105.67551 10.3993,-50.46983 -21.47067,-100.80986 -30.9395,-151.4625 C 731.61369,253.30392 720.60346,212.60306 718.34709,170.97111 717.06451,147.30642 722.59746,100 722.59746,100 h 143.99178 c 0,0 -32.92019,56.30723 -41.13552,87.4587 -16.42724,62.28996 -16.76575,128.31417 -14.68538,192.70024 1.51441,46.87019 36.58893,95.53761 19.7235,139.2945 -24.21013,62.8125 -87.94962,132.40594 -155.19123,129.22675 -65.24841,-3.08496 -119.37758,-76.46075 -138.08819,-139.04497 -11.57478,-38.71594 15.28063,-79.37483 24.19447,-118.78857 8.47227,-37.46128 38.77361,-74.99765 27.82592,-111.8117 -5.84155,-19.6435 -24.66614,-39.60175 -45.03575,-41.85328 -51.02856,-5.64037 -103.39054,35.73336 -132.99562,77.67697 -39.09553,55.38941 -41.26886,132.13294 -37.8277,199.84266 1.42088,27.95781 23.90458,80.50774 23.90458,80.50774 l -135.12671,9.44142 c 0,0 27.28871,-56.85318 38.15639,-143.22395 10.86767,-86.37101 -33.82236,-125.89217 -85.32166,-154.07926 -29.84176,-16.33328 -77.40819,-17.18439 -101.85195,6.47589 -37.08937,35.90057 -26.08245,103.75915 -14.85371,154.14157 14.64778,65.72339 61.14852,121.01171 102.92921,173.81791 27.22839,34.41369 94.81137,91.33452 94.81137,91.33452 0,0 -60.42303,28.03372 -89.77468,43.73396 C 168.92323,796.8154 96.6238,840.93929 96.6238,840.93929 Z"
   sodipodi:nodetypes="caaaacaaaaaaaaaccaaaaaaaaaaccsaaaacac" /></svg>
