<?xml version="1.0" encoding="UTF-8"?>
<!DOCTYPE svg PUBLIC "-//W3C//DTD SVG 1.1//EN" "http://www.w3.org/Graphics/SVG/1.1/DTD/svg11.dtd">
<!-- Creator: CorelDRAW X8 -->
<svg xmlns="http://www.w3.org/2000/svg" xml:space="preserve" width="3172px" height="1024px" version="1.1" style="shape-rendering:geometricPrecision; text-rendering:geometricPrecision; image-rendering:optimizeQuality; fill-rule:evenodd; clip-rule:evenodd"
viewBox="0 0 3172 1024"
 xmlns:xlink="http://www.w3.org/1999/xlink">
 <defs>
  <style type="text/css">
   <![CDATA[
    .fil0 {fill:#EF7F1A;fill-rule:nonzero}
   ]]>
  </style>
 </defs>
 <g id="Layer_x0020_1">
  <metadata id="CorelCorpID_0Corel-Layer"/>
  <path class="fil0" d="M502 0c-190,0 -368,90 -450,262 -37,76 -52,178 -52,262 0,210 88,400 291,487 20,9 44,13 68,13 28,0 57,-7 78,-22 15,-11 21,-22 21,-33 0,-18 -17,-35 -40,-45 -156,-64 -215,-246 -215,-400 0,-66 10,-151 35,-212 42,-107 141,-201 264,-201 152,0 212,121 212,254l0 603c0,42 70,56 102,56 32,0 101,-14 101,-56l0 -603c0,-121 42,-254 185,-254 79,0 145,72 169,139 32,88 31,170 31,262 1,105 2,205 47,302 64,137 190,187 337,187l1385 -1c32,0 101,-14 101,-56l0 -543c0,-249 -229,-400 -467,-400 -239,0 -449,136 -449,394l0 494 -266 0c45,-43 82,-98 108,-164 29,-72 41,-136 41,-213 0,-222 -107,-410 -317,-498 -21,-9 -46,-14 -71,-14 -30,0 -59,8 -81,26 -12,10 -17,21 -17,31 0,19 20,37 45,46 166,59 239,248 239,409 1,64 -11,111 -33,173 -32,95 -102,204 -218,204 -80,0 -126,-55 -151,-124 -29,-82 -29,-167 -30,-253 0,-100 -1,-188 -36,-283 -55,-153 -208,-229 -367,-229 -106,0 -214,27 -291,101 -83,-75 -199,-101 -309,-101zm2468 889l-512 0 0 -494c0,-148 82,-283 247,-283 162,0 265,139 265,289l0 488z"/>
 </g>
</svg>
