<?xml version="1.0" encoding="UTF-8" standalone="no"?>
<svg
   xmlns:dc="http://purl.org/dc/elements/1.1/"
   xmlns:cc="http://creativecommons.org/ns#"
   xmlns:rdf="http://www.w3.org/1999/02/22-rdf-syntax-ns#"
   xmlns:svg="http://www.w3.org/2000/svg"
   xmlns="http://www.w3.org/2000/svg"
   xmlns:sodipodi="http://sodipodi.sourceforge.net/DTD/sodipodi-0.dtd"
   xmlns:inkscape="http://www.inkscape.org/namespaces/inkscape"
   xml:space="preserve"
   width="1000"
   height="1000"
   version="1.1"
   style="clip-rule:evenodd;fill-rule:evenodd;image-rendering:optimizeQuality;shape-rendering:geometricPrecision;text-rendering:geometricPrecision"
   viewBox="0 0 1000 1000"
   id="svg10"
   sodipodi:docname="സൃ.svg"
   inkscape:version="1.0.1 (3bc2e813f5, 2020-09-07)"><metadata
   id="metadata14"><rdf:RDF><cc:Work
       rdf:about=""><dc:format>image/svg+xml</dc:format><dc:type
         rdf:resource="http://purl.org/dc/dcmitype/StillImage" /><dc:title /></cc:Work></rdf:RDF></metadata><sodipodi:namedview
   pagecolor="#ffffff"
   bordercolor="#666666"
   borderopacity="1"
   objecttolerance="10"
   gridtolerance="10"
   guidetolerance="10"
   inkscape:pageopacity="0"
   inkscape:pageshadow="2"
   inkscape:window-width="1920"
   inkscape:window-height="1015"
   id="namedview12"
   showgrid="false"
   inkscape:zoom="1.2005384"
   inkscape:cx="608.66027"
   inkscape:cy="752.86853"
   inkscape:window-x="1920"
   inkscape:window-y="0"
   inkscape:window-maximized="1"
   inkscape:current-layer="svg10"
   showguides="true"
   inkscape:guide-bbox="true"
   inkscape:document-rotation="0"><sodipodi:guide
     position="0,1000"
     orientation="0,1"
     id="guide16"
     inkscape:label=""
     inkscape:locked="true"
     inkscape:color="rgb(0,0,255)" /><sodipodi:guide
     position="1763.3122,2036.1693"
     orientation="1000,0"
     id="guide18" /><sodipodi:guide
     position="0,200"
     orientation="0,1"
     id="guide20"
     inkscape:label="base"
     inkscape:locked="true"
     inkscape:color="rgb(0,0,255)" /><inkscape:grid
     type="xygrid"
     id="grid24"
     originx="-473.37552"
     originy="-489.69235" /><sodipodi:guide
     position="0,0"
     orientation="0,1"
     id="guide34"
     inkscape:label="bottom"
     inkscape:locked="true"
     inkscape:color="rgb(0,0,255)" /><sodipodi:guide
     position="225.05109,1693.3186"
     orientation="0,1"
     id="guide44"
     inkscape:label=""
     inkscape:locked="false"
     inkscape:color="rgb(0,0,255)" /><sodipodi:guide
     position="0,900"
     orientation="0,1"
     id="guide46"
     inkscape:label=""
     inkscape:locked="true"
     inkscape:color="rgb(0,0,255)" /><sodipodi:guide
     position="866.34048,384.46991"
     orientation="1,0"
     id="guide841" /></sodipodi:namedview>
 <defs
   id="defs4"><inkscape:path-effect
   effect="spiro"
   id="path-effect867"
   is_visible="true"
   lpeversion="1" />
  <style
   type="text/css"
   id="style2">
   <![CDATA[
    .fil0 {fill:#EF7F1A;fill-rule:nonzero}
   ]]>
  </style>
 <inkscape:path-effect
   effect="spiro"
   id="path-effect1214"
   is_visible="true"
   lpeversion="1" /><inkscape:path-effect
   effect="spiro"
   id="path-effect1195"
   is_visible="true"
   lpeversion="1" /><inkscape:path-effect
   effect="spiro"
   id="path-effect992"
   is_visible="true"
   lpeversion="1" /><inkscape:path-effect
   effect="spiro"
   id="path-effect1078"
   is_visible="true"
   lpeversion="1" /><inkscape:path-effect
   effect="spiro"
   id="path-effect858"
   is_visible="true"
   lpeversion="1" /><inkscape:path-effect
   effect="spiro"
   id="path-effect854"
   is_visible="true"
   lpeversion="1" /><style
   type="text/css"
   id="style2-3">
   <![CDATA[
    .fil0 {fill:#EF7F1A;fill-rule:nonzero}
   ]]>
  </style><inkscape:path-effect
   effect="spiro"
   id="path-effect287"
   is_visible="true"
   lpeversion="1" /><inkscape:path-effect
   effect="spiro"
   id="path-effect1032"
   is_visible="true"
   lpeversion="1" /><inkscape:path-effect
   effect="spiro"
   id="path-effect1218"
   is_visible="true"
   lpeversion="1" /><inkscape:path-effect
   effect="spiro"
   id="path-effect309"
   is_visible="true"
   lpeversion="1" /><inkscape:path-effect
   effect="spiro"
   id="path-effect1525"
   is_visible="true"
   lpeversion="1" /><inkscape:path-effect
   effect="spiro"
   id="path-effect1343"
   is_visible="true"
   lpeversion="1" /></defs>
 
<path
   style="display:inline;fill:#1a1a1a;stroke:none;stroke-width:1.92017px;stroke-linecap:butt;stroke-linejoin:miter;stroke-opacity:1"
   d="m 96.6238,840.93929 c 8.00317,-23.33895 12.94145,-47.72687 14.6482,-72.34077 C 117.79457,674.5334 77.677458,584.39414 42.143911,497.05481 22.660063,449.16468 4.1139996,399.95018 0.27603392,348.39094 -1.6429489,322.61132 0.20674739,296.41284 7.3554162,271.56998 14.504085,246.72712 27.070377,223.26066 45.009743,204.64748 c 20.101714,-20.85674 46.674865,-35.19781 74.950827,-41.48689 28.27596,-6.28908 58.15472,-4.62409 85.85413,3.85089 32.65458,9.99108 62.34639,29.46727 84.51831,55.43936 22.17192,25.97209 36.74859,58.35181 41.49279,92.1695 2.16015,-20.26866 6.54908,-40.29901 13.06224,-59.61387 13.19328,-39.12487 35.41449,-75.50468 66.00447,-103.23681 30.58997,-27.73214 69.71103,-46.49887 110.80824,-50.47849 47.67128,-4.616214 97.31222,11.5287 132.01802,44.53428 34.7058,33.00557 53.39792,82.59141 47.48607,130.11941 -5.35986,43.09031 -29.35928,81.6261 -56.62189,115.42334 -27.26262,33.79723 -58.44749,64.58424 -82.23092,100.914 -16.88114,25.78635 -30.01007,54.82543 -32.40634,85.55272 -1.19813,15.36365 0.34051,31.00853 5.22518,45.62418 4.88467,14.61565 13.17083,28.17532 24.4647,38.65987 12.40501,11.51606 28.29722,19.13316 44.97417,22.02856 16.67695,2.89541 34.08367,1.11468 49.98791,-4.67836 26.22645,-9.55285 47.74888,-29.66531 62.60704,-53.29407 14.85815,-23.62876 23.51059,-50.66981 29.30043,-77.97477 17.68843,-83.41885 9.69337,-170.33592 -7.23019,-253.9133 -8.28335,-40.90749 -18.7143,-81.63695 -20.92784,-123.31592 -1.25956,-23.7164 0.16928,-47.57455 4.25037,-70.97111 h 143.99178 c -17.61784,27.09297 -31.50128,56.61071 -41.13552,87.4587 -19.33728,61.91626 -21.30415,128.17315 -14.68538,192.70024 4.66486,45.47819 13.49273,90.46775 17.63724,135.99631 4.1445,45.52856 3.45353,92.27948 -10.50584,135.81295 -13.82736,43.12179 -40.921,82.16752 -77.55436,108.78859 -36.63336,26.62108 -82.76939,40.3874 -127.88145,36.43937 -44.05463,-3.85549 -86.44027,-24.71702 -116.21216,-57.41732 -29.7719,-32.7003 -46.58873,-76.93604 -45.8481,-121.15285 0.71856,-42.8988 17.25466,-84.15804 38.87384,-121.21792 21.61918,-37.05988 48.38402,-70.82655 72.12938,-106.56142 11.06284,-16.64869 21.57383,-33.94586 27.64135,-52.99187 6.06752,-19.04601 7.39879,-40.17793 0.18457,-58.81983 -7.64792,-19.76259 -24.84594,-35.41726 -45.03575,-41.85328 -13.27024,-4.23023 -27.6408,-4.63823 -41.29406,-1.88455 -13.65326,2.75367 -26.59652,8.60774 -38.11615,16.43668 -23.03926,15.65789 -40.05437,38.77555 -53.58541,63.12484 -33.52691,60.33214 -47.9402,131.56559 -37.8277,199.84266 4.11517,27.78456 12.19,54.97962 23.90458,80.50774 l -135.12671,9.44142 c 26.09862,-42.7588 39.52288,-93.14816 38.15639,-143.22395 -0.84171,-30.84471 -7.31022,-61.82295 -21.43975,-89.25397 -14.12953,-27.43102 -36.21614,-51.16111 -63.88191,-64.82529 -16.11988,-7.96164 -34.10874,-12.45241 -52.07307,-11.73067 -17.96433,0.72174 -35.86407,6.82166 -49.77888,18.20656 -10.69377,8.74949 -18.847863,20.41932 -24.134622,33.18492 -5.28676,12.76559 -7.763249,26.6048 -8.044332,40.41897 -0.562167,27.62833 7.491308,54.7126 17.325244,80.53768 24.07561,63.22539 59.34185,122.07599 102.92921,173.81791 28.3232,33.62206 60.15508,64.28663 94.81137,91.33452 -30.39972,13.57514 -60.34678,28.16393 -89.77468,43.73396 -37.42458,19.801 -74.00929,41.18932 -109.62278,64.08819 z"
   id="path1087-2"
   sodipodi:nodetypes="caaaacaaaaaaaaaccaaaaaaaaaaccsaaaacac"
   inkscape:original-d="m 96.6238,840.93929 c 0,0 15.25696,-47.74533 14.6482,-72.34077 C 108.96093,675.22555 53.301056,589.78761 42.143911,497.05481 30.500325,400.27895 -15.927532,280.725 45.009743,204.64748 79.42523,161.68125 153.50963,149.8446 205.8147,167.01148 c 61.46747,20.17404 126.0111,147.60886 126.0111,147.60886 0,0 2.68307,-42.11818 13.06224,-59.61387 39.84586,-67.16637 98.74721,-155.904526 176.81271,-153.7153 83.45081,2.34025 169.98768,91.71424 179.50409,174.65369 9.76769,85.1295 -114.07901,134.3087 -138.85281,216.33734 -16.36961,54.20151 -38.62767,126.0629 -2.71646,169.83677 20.40908,24.87759 65.1958,29.57288 94.96208,17.3502 49.41158,-20.28945 76.57301,-80.10225 91.90747,-131.26884 24.30778,-81.1079 1.07862,-169.64988 -7.23019,-253.9133 C 735.18362,252.79521 720.60346,212.60306 718.34709,170.97111 717.06451,147.30642 722.59746,100 722.59746,100 h 143.99178 c 0,0 -32.92019,56.30723 -41.13552,87.4587 -16.42724,62.28996 -13.08051,128.30057 -14.68538,192.70024 -2.25795,90.60613 47.74171,190.78227 7.1314,271.80926 C 780.324,726.94049 695.82578,806.33857 612.46393,797.19616 532.56141,788.43314 461.75999,698.20135 450.40367,618.62599 438.4708,535.01073 532.54934,470.22641 561.40689,390.84665 574.5292,354.75051 600.1805,315.849 589.23281,279.03495 c -5.84155,-19.6435 -24.66614,-39.60175 -45.03575,-41.85328 -51.02856,-5.64037 -103.39054,35.73336 -132.99562,77.67697 -39.09553,55.38941 -41.26886,132.13294 -37.8277,199.84266 1.42088,27.95781 23.90458,80.50774 23.90458,80.50774 l -135.12671,9.44142 c 0,0 27.28871,-56.85318 38.15639,-143.22395 10.86767,-86.37101 -33.82236,-125.89217 -85.32166,-154.07926 -29.84176,-16.33328 -77.40819,-17.18439 -101.85195,6.47589 -37.08937,35.90057 -26.08245,103.75915 -14.85371,154.14157 14.64778,65.72339 61.14852,121.01171 102.92921,173.81791 27.22839,34.41369 94.81137,91.33452 94.81137,91.33452 0,0 -60.42303,28.03372 -89.77468,43.73396 C 168.92323,796.8154 96.6238,840.93929 96.6238,840.93929 Z"
   inkscape:path-effect="#path-effect1078" /><g
   style="clip-rule:evenodd;fill-rule:evenodd;image-rendering:optimizeQuality;shape-rendering:geometricPrecision;text-rendering:geometricPrecision"
   id="g883"
   transform="translate(241.32914,-63.1412)"><path
     style="display:inline;fill:#1a1a1a;fill-rule:nonzero;stroke:none;stroke-width:1.80255px;stroke-linecap:butt;stroke-linejoin:miter;stroke-opacity:1"
     d="M 352.91042,1063.1412 422.824,1000 C 400.02279,961.60003 368.00776,928.71367 330.23375,904.88978 281.56683,874.19579 223.25338,858.80708 165.82471,862.348 c -39.65559,2.44508 -79.454697,14.15745 -111.100128,38.18059 -15.822715,12.01157 -29.454912,27.01158 -39.295957,44.26817 -9.8410445,17.25659 -15.83566281,36.78357 -16.6736801,56.63134 -1.1506424,27.252 7.5333991,54.5677 22.8803791,77.1169 15.34698,22.5492 37.136168,40.4048 61.561388,52.5459 48.850438,24.2822 106.390088,25.4909 160.072218,15.7842 98.96337,-17.8944 191.17647,-72.4123 253.17738,-151.5947 40.03666,-51.13147 67.48258,-112.05757 79.18733,-175.93527 7.18518,-39.21251 8.50425,-79.22784 10.08749,-119.06176 0.97559,-24.54564 2.05829,-49.08701 3.24805,-73.6232 l -81.81303,104.2751 c 15.82291,64.08028 -2.14124,135.51742 -46.39349,184.49073 -42.75836,47.32004 -104.82234,71.64884 -165.21879,92.1362 -26.88101,9.1184 -54.11278,17.8395 -82.28325,21.3266 -28.17047,3.487 -57.59261,1.4835 -83.48102,-10.158 -11.78772,-5.3007 -22.89575,-12.7237 -30.660957,-23.05562 -3.882602,-5.16599 -6.885686,-11.02343 -8.544665,-17.26921 -1.658978,-6.24578 -1.953067,-12.8825 -0.580953,-19.1975 1.63888,-7.54277 5.635783,-14.49304 11.015235,-20.02844 5.37946,-5.53541 12.10482,-9.68362 19.31391,-12.44194 14.41816,-5.51666 30.39923,-5.47402 45.69764,-3.40623 41.07082,5.55128 79.37617,25.11873 111.67116,51.09299 30.39461,24.44582 56.0739,54.73285 75.21945,88.71635 z"
     id="path979-0-6-9"
     sodipodi:nodetypes="ccsssassaccsaaaaac"
     inkscape:original-d="M 352.91042,1063.1412 422.824,1000 c 0,0 -49.80603,-83.8334 -92.59025,-95.11022 C 287.94213,893.74279 219.70767,858.26968 165.82471,862.348 77.924275,869.00105 7.7641749,930.65173 -1.2450551,1001.4281 c -11.9749699,94.0752 149.6797751,145.5843 244.5139851,145.447 98.36415,-0.1424 200.59575,-68.4641 253.17738,-151.5947 24.07042,-38.0549 61.5865,-101.9473 79.18733,-175.93527 5.7865,-24.32449 7.52799,-79.31464 10.08749,-119.06176 1.57858,-24.51416 3.02106,-63.75137 3.24805,-73.6232 l -81.81303,104.2751 c -5.52041,34.02251 -30.89693,153.76581 -46.39349,184.49073 -26.25632,52.05822 -104.75814,74.2262 -165.21879,92.1362 -53.09929,15.7294 -116.07097,35.6129 -165.76427,11.1686 -21.41449,-10.5338 -46.159755,-36.52396 -39.786575,-59.52233 7.48335,-27.00452 48.005055,-35.7111 76.026785,-35.87661 40.93411,-0.24177 79.04205,26.37453 111.67116,51.09299 30.90413,23.41169 75.21945,88.71635 75.21945,88.71635 z"
     inkscape:path-effect="#path-effect1343" /></g></svg>
