<?xml version="1.0" encoding="UTF-8"?>
<!DOCTYPE svg PUBLIC "-//W3C//DTD SVG 1.1//EN" "http://www.w3.org/Graphics/SVG/1.1/DTD/svg11.dtd">
<!-- Creator: CorelDRAW X8 -->
<svg xmlns="http://www.w3.org/2000/svg" xml:space="preserve" width="2149px" height="1486px" version="1.1" style="shape-rendering:geometricPrecision; text-rendering:geometricPrecision; image-rendering:optimizeQuality; fill-rule:evenodd; clip-rule:evenodd"
viewBox="0 0 2149 1486"
 xmlns:xlink="http://www.w3.org/1999/xlink">
 <defs>
  <style type="text/css">
   <![CDATA[
    .fil0 {fill:#EF7F1A;fill-rule:nonzero}
   ]]>
  </style>
 </defs>
 <g id="Layer_x0020_1">
  <metadata id="CorelCorpID_0Corel-Layer"/>
  <path class="fil0" d="M1317 1387c-57,0 -128,-3 -181,-27 -33,-14 -57,-39 -57,-76 0,-46 42,-63 82,-63 46,0 66,42 66,83 0,40 59,51 91,51 32,0 91,-11 91,-51 1,-41 20,-83 66,-83 37,0 82,18 82,61 0,38 -24,63 -58,78 -53,24 -124,27 -182,27zm-815 -1387c-190,0 -368,90 -450,262 -37,76 -52,178 -52,262 0,210 88,400 291,487 20,9 44,13 68,13 28,0 57,-7 78,-22 15,-11 21,-22 21,-33 0,-18 -17,-36 -40,-45 -156,-64 -215,-246 -215,-400 0,-66 10,-151 35,-212 42,-107 141,-201 264,-201 152,0 212,121 212,254l0 603c0,42 70,56 102,56 32,0 101,-14 101,-56l0 -603c0,-121 41,-254 185,-254 79,0 145,72 169,139 32,87 30,182 31,274 1,105 2,217 47,314 63,137 190,186 337,186 90,0 171,-21 238,-62 -27,128 -89,252 -199,330 0,-61 -25,-97 -73,-126 -49,-30 -119,-42 -176,-42 -52,0 -111,10 -158,35 -47,-25 -106,-35 -158,-35 -57,0 -127,11 -176,42 -40,25 -73,65 -73,114 0,82 81,143 152,169 75,27 175,37 255,37 94,0 201,-11 302,-37 73,-18 142,-44 200,-79 173,-102 262,-270 303,-459 19,-88 26,-179 26,-268 0,-80 -5,-159 -20,-233 -35,-171 -120,-318 -307,-396 -21,-9 -46,-14 -71,-14 -30,0 -59,8 -81,26 -12,10 -17,21 -17,31 0,19 20,37 45,46 166,59 238,260 239,421 1,64 -12,123 -33,185 -33,95 -102,204 -218,204 -80,0 -126,-55 -151,-124 -29,-82 -30,-179 -30,-265 0,-100 -1,-200 -36,-295 -55,-153 -208,-229 -367,-229 -106,0 -214,27 -291,101 -83,-75 -199,-101 -309,-101z"/>
 </g>
</svg>
