<?xml version="1.0" encoding="UTF-8" standalone="no"?>
<svg
   xmlns:dc="http://purl.org/dc/elements/1.1/"
   xmlns:cc="http://creativecommons.org/ns#"
   xmlns:rdf="http://www.w3.org/1999/02/22-rdf-syntax-ns#"
   xmlns:svg="http://www.w3.org/2000/svg"
   xmlns="http://www.w3.org/2000/svg"
   xmlns:sodipodi="http://sodipodi.sourceforge.net/DTD/sodipodi-0.dtd"
   xmlns:inkscape="http://www.inkscape.org/namespaces/inkscape"
   xml:space="preserve"
   width="1000"
   height="1000"
   version="1.1"
   style="clip-rule:evenodd;fill-rule:evenodd;image-rendering:optimizeQuality;shape-rendering:geometricPrecision;text-rendering:geometricPrecision"
   viewBox="0 0 1000 1000"
   id="svg10"
   sodipodi:docname="സ്പ.svg"
   inkscape:version="1.0.1 (3bc2e813f5, 2020-09-07)"><metadata
   id="metadata14"><rdf:RDF><cc:Work
       rdf:about=""><dc:format>image/svg+xml</dc:format><dc:type
         rdf:resource="http://purl.org/dc/dcmitype/StillImage" /><dc:title /></cc:Work></rdf:RDF></metadata><sodipodi:namedview
   pagecolor="#ffffff"
   bordercolor="#666666"
   borderopacity="1"
   objecttolerance="10"
   gridtolerance="10"
   guidetolerance="10"
   inkscape:pageopacity="0"
   inkscape:pageshadow="2"
   inkscape:window-width="1920"
   inkscape:window-height="1015"
   id="namedview12"
   showgrid="false"
   inkscape:zoom="0.83631455"
   inkscape:cx="404.59305"
   inkscape:cy="674.13098"
   inkscape:window-x="1920"
   inkscape:window-y="0"
   inkscape:window-maximized="1"
   inkscape:current-layer="g880"
   showguides="true"
   inkscape:guide-bbox="true"
   inkscape:document-rotation="0"><sodipodi:guide
     position="0,1000"
     orientation="0,1"
     id="guide16"
     inkscape:label=""
     inkscape:locked="true"
     inkscape:color="rgb(0,0,255)" /><sodipodi:guide
     position="1763.3122,2036.1693"
     orientation="1000,0"
     id="guide18" /><sodipodi:guide
     position="0,200"
     orientation="0,1"
     id="guide20"
     inkscape:label="base"
     inkscape:locked="true"
     inkscape:color="rgb(0,0,255)" /><inkscape:grid
     type="xygrid"
     id="grid24"
     originx="-473.37552"
     originy="-489.69235" /><sodipodi:guide
     position="0,0"
     orientation="0,1"
     id="guide34"
     inkscape:label="bottom"
     inkscape:locked="true"
     inkscape:color="rgb(0,0,255)" /><sodipodi:guide
     position="225.05109,1693.3186"
     orientation="0,1"
     id="guide44"
     inkscape:label=""
     inkscape:locked="false"
     inkscape:color="rgb(0,0,255)" /><sodipodi:guide
     position="0,900"
     orientation="0,1"
     id="guide46"
     inkscape:label=""
     inkscape:locked="true"
     inkscape:color="rgb(0,0,255)" /><sodipodi:guide
     position="887.65662,379.37685"
     orientation="-1,0"
     id="guide841"
     inkscape:label="width"
     inkscape:locked="false"
     inkscape:color="rgb(0,0,255)" /></sodipodi:namedview>
 <defs
   id="defs4"><inkscape:path-effect
   effect="spiro"
   id="path-effect861"
   is_visible="true"
   lpeversion="1" /><inkscape:path-effect
   effect="spiro"
   id="path-effect867"
   is_visible="true"
   lpeversion="1" />
  <style
   type="text/css"
   id="style2">
   <![CDATA[
    .fil0 {fill:#EF7F1A;fill-rule:nonzero}
   ]]>
  </style>
 <inkscape:path-effect
   effect="spiro"
   id="path-effect1214"
   is_visible="true"
   lpeversion="1" /><inkscape:path-effect
   effect="spiro"
   id="path-effect1195"
   is_visible="true"
   lpeversion="1" /><inkscape:path-effect
   effect="spiro"
   id="path-effect992"
   is_visible="true"
   lpeversion="1" /><inkscape:path-effect
   effect="spiro"
   id="path-effect1078"
   is_visible="true"
   lpeversion="1" /><inkscape:path-effect
   effect="spiro"
   id="path-effect858"
   is_visible="true"
   lpeversion="1" /><inkscape:path-effect
   effect="spiro"
   id="path-effect854"
   is_visible="true"
   lpeversion="1" /><style
   type="text/css"
   id="style2-9">
   <![CDATA[
    .fil0 {fill:#EF7F1A;fill-rule:nonzero}
   ]]>
  </style><inkscape:path-effect
   effect="spiro"
   id="path-effect287"
   is_visible="true"
   lpeversion="1" /><inkscape:path-effect
   effect="spiro"
   id="path-effect1032"
   is_visible="true"
   lpeversion="1" /><inkscape:path-effect
   effect="spiro"
   id="path-effect1218"
   is_visible="true"
   lpeversion="1" /><inkscape:path-effect
   effect="spiro"
   id="path-effect309"
   is_visible="true"
   lpeversion="1" /></defs>
 
<path
   style="display:inline;fill:#1a1a1a;stroke:none;stroke-width:1.92017px;stroke-linecap:butt;stroke-linejoin:miter;stroke-opacity:1"
   d="m 135.36678,829.66942 c 2.06612,-20.2787 2.70328,-40.70285 1.90522,-61.0709 C 133.58256,674.43749 99.563578,584.37811 64.143911,497.05481 40.881054,439.70279 16.557543,381.62379 10.426982,320.03783 7.3617012,289.24485 8.9855151,257.77659 17.509885,228.02867 26.034254,198.28075 41.657048,170.28853 64.159459,149.046 c 20.891955,-19.72224 47.391701,-33.26568 75.433081,-39.52043 28.04138,-6.25474 57.55411,-5.29973 85.37188,1.88443 39.20094,10.12395 75.07402,32.74301 101.10697,63.75096 26.03295,31.00796 42.10015,70.25519 45.28479,110.61688 3.89578,-26.47875 14.02811,-52.0194 29.344,-73.96763 15.9009,-22.78657 37.41876,-41.68945 62.27174,-54.11505 24.85299,-12.42559 53.0077,-18.30276 80.72883,-16.40399 42.22003,2.89188 82.65216,24.21118 109.73633,56.72797 27.08418,32.51679 40.70968,75.67496 38.30808,117.92572 -1.99962,35.17876 -14.56882,69.04788 -31.12176,100.15325 -16.55294,31.10537 -37.09549,59.87306 -56.46174,89.3093 -15.58326,23.68619 -30.66607,48.39835 -37.21311,75.98476 -3.27352,13.7932 -4.33055,28.20406 -2.11767,42.20661 2.21288,14.00256 7.78058,27.58704 16.80469,38.52019 11.87174,14.38318 29.44579,23.65134 47.87505,26.51084 18.42926,2.85949 37.59332,-0.49307 54.50964,-8.34497 24.62317,-11.42912 44.26378,-32.00632 57.8215,-55.52468 13.55773,-23.51835 21.40445,-49.92773 26.66336,-76.55983 16.11356,-81.60204 8.7159,-166.40809 -9.79707,-247.49945 -9.79263,-42.89413 -22.74261,-85.73367 -22.36096,-129.72977 0.2094,-24.13925 4.49268,-48.23815 12.61422,-70.97111 h 139.62793 c -10.78154,31.02476 -20.08882,62.5618 -27.87991,94.4691 -15.14068,62.00647 -24.56368,125.76834 -22.47282,189.56231 1.47257,44.92921 8.62886,89.47055 12.04247,134.29409 3.4136,44.82355 2.96053,90.71423 -10.37924,133.6427 -12.72463,40.94889 -37.41953,78.40744 -71.33048,104.65197 -33.91096,26.24453 -77.07044,40.84559 -119.89052,38.57209 -42.68628,-2.26639 -84.25659,-21.48197 -113.57404,-52.59053 -29.31745,-31.10856 -46.04237,-73.78063 -45.58143,-116.52455 0.31548,-29.25527 8.36213,-58.05556 20.38017,-84.73021 12.01803,-26.67465 27.94813,-51.39704 44.67117,-75.4035 13.03349,-18.70999 26.64663,-37.15312 36.94037,-57.49949 10.29374,-20.34636 17.2038,-42.97624 15.76371,-65.73282 -0.85368,-13.49002 -4.69188,-26.85729 -11.68838,-38.4227 -6.99649,-11.5654 -17.2014,-21.26999 -29.39325,-27.10679 -12.89469,-6.17328 -27.72851,-7.88854 -41.86156,-5.73464 -14.13306,2.15391 -27.56634,8.06903 -39.26829,16.28164 -23.40389,16.42521 -39.46656,41.36586 -51.86577,67.12997 -23.82442,49.50436 -36.24241,105.22344 -30.32415,159.84266 3.84803,35.51319 15.41681,70.16979 33.67274,100.87346 l -154.75291,3.39962 c 24.80281,-48.71019 38.74075,-102.9152 40.51088,-157.54787 1.20793,-37.28132 -3.29968,-75.11451 -16.95073,-109.82769 -13.65105,-34.71318 -36.85689,-66.2035 -68.18982,-86.44217 -11.15868,-7.20765 -23.32795,-12.97959 -36.2193,-16.18577 -12.89134,-3.20618 -26.53025,-3.79247 -39.47879,-0.82572 -21.04518,4.82185 -39.37024,19.00159 -51.16048,37.08861 -11.790244,18.08701 -17.335829,39.81564 -17.872651,61.39947 -1.073644,43.16767 16.913861,84.2843 35.133191,123.43345 27.65416,59.42242 56.95626,118.66572 96.99968,170.55311 26.85722,34.801 58.37719,65.99892 93.45216,92.49734 -30.36439,13.65177 -60.30821,28.23898 -89.77468,43.73396 -31.5289,16.57951 -62.51125,34.19837 -92.8798,52.81832 z"
   id="path1087-2"
   inkscape:path-effect="#path-effect1078"
   inkscape:original-d="m 135.36678,829.66942 c 0,0 4.26124,-40.84076 1.90522,-61.0709 C 126.42831,675.48841 76.436046,589.98479 64.143911,497.05481 48.932341,382.05355 -7.919096,239.93804 64.159459,149.046 98.364952,105.91241 172.73041,94.028084 224.96442,111.41 c 72.00847,23.96227 146.39176,174.36784 146.39176,174.36784 0,0 11.3575,-54.47218 29.344,-73.96763 36.03896,-39.06239 90.96318,-81.32588 143.00057,-70.51904 74.72444,15.51836 137.7684,99.02985 148.04441,174.65369 9.36807,68.94207 -67.82897,122.75027 -87.5835,189.46255 -14.98407,50.60219 -53.45608,113.9513 -22.52609,156.71156 20.31437,28.08432 70.63875,32.07982 102.38469,18.16587 47.86842,-20.98026 70.80934,-81.64111 84.48486,-132.08451 C 790.109,468.51246 767.37174,382.8095 758.70805,300.70088 754.10351,257.0622 736.23274,214.85189 736.34709,170.97111 736.40971,146.94339 748.96131,100 748.96131,100 h 139.62793 c 0,0 -21.27708,62.30749 -27.87991,94.4691 -12.79643,62.32991 -18.91799,126.03177 -22.47282,189.56231 -4.98973,89.17449 41.3832,187.94109 1.66323,267.93679 -35.41644,71.32842 -111.8812,150.09889 -191.221,143.22406 -77.12073,-6.68255 -144.94662,-93.02058 -159.15547,-169.11508 -10.5753,-56.63524 42.88081,-106.95614 65.05134,-160.13371 17.19201,-41.23623 56.18172,-78.69135 52.70408,-123.23231 -2.00678,-25.70251 -16.0466,-59.37374 -41.08163,-65.52949 -49.85436,-12.25846 -103.38194,35.73943 -132.99562,77.67697 -31.28179,44.29983 -33.97377,105.73438 -30.32415,159.84266 2.38559,35.36805 33.67274,100.87346 33.67274,100.87346 l -154.75291,3.39962 c 0,0 44.7797,-103.49187 40.51088,-157.54787 -5.61419,-71.09235 -30.19824,-150.80577 -85.14055,-196.26986 -19.92491,-16.48762 -54.3398,-31.5946 -75.69809,-17.01149 -61.800399,42.19633 -47.50056,148.33592 -33.89994,221.92153 11.88682,64.31315 57.22024,118.63901 96.99968,170.55311 26.65811,34.79012 93.45216,92.49734 93.45216,92.49734 0,0 -60.32958,28.20968 -89.77468,43.73396 -31.50531,16.61048 -92.8798,52.81832 -92.8798,52.81832 z"
   sodipodi:nodetypes="caaaacaaaaaaaaaccaaaaaaaaaaccaaaaacac" /><g
   style="clip-rule:evenodd;fill-rule:evenodd;image-rendering:optimizeQuality;shape-rendering:geometricPrecision;text-rendering:geometricPrecision"
   id="g880"
   transform="matrix(0.74366758,0,0,0.74366758,337.18893,472.85493)"><path
     style="display:inline;fill:#1a1a1a;stroke:none;stroke-width:2.10838px;stroke-linecap:butt;stroke-linejoin:miter;stroke-opacity:1"
     d="M 13.810243,803.87846 C 17.997021,760.75382 11.032463,716.96049 -3.1383614,676.01599 -14.862487,642.14087 -31.417005,610.11048 -43.466541,576.34974 -55.516076,542.58899 -63.006506,505.97402 -55.695408,470.8809 c 5.060946,-24.29244 17.160976,-46.93553 33.760541,-65.37977 16.5995648,-18.44424 37.60477,-32.73741 60.451467,-42.42059 39.855774,-16.89219 85.07893,-19.65043 127.40586,-10.5807 42.32693,9.06974 81.78261,29.61199 115.45643,56.81314 47.38259,38.27487 84.18907,91.09776 97.30166,150.57999 9.68979,43.9555 6.16709,90.73556 -9.99609,132.74424 49.3827,11.89699 101.04473,14.2567 151.30636,6.91108 21.6208,-3.15983 43.18781,-8.16964 62.83617,-17.72922 19.64836,-9.55957 37.3758,-23.95726 48.29224,-42.88541 11.60643,-20.12453 14.88941,-44.20145 13.27457,-67.37683 -1.61484,-23.17539 -7.83837,-45.75394 -14.20226,-68.09688 -30.19328,-106.00548 -64.65194,-213.67601 -58.61271,-323.73201 1.44533,-26.33905 5.22341,-52.54967 11.27554,-78.22468 h 180.64674 c -14.4198,19.90557 -26.69854,41.36109 -36.55631,63.87746 -27.01464,61.70479 -35.37409,130.41305 -32.10316,197.69287 3.27093,67.27981 17.79007,133.51427 34.97678,198.64406 8.37384,31.73302 17.4482,63.63129 18.8945,96.41869 1.44629,32.78741 -5.51014,67.16026 -26.12263,92.69907 -19.0469,23.59905 -48.09789,37.53103 -77.84038,43.45423 -29.74249,5.92319 -60.4271,4.52707 -90.65192,2.04517 -83.13409,-6.82651 -166.54776,-21.68095 -249.44002,-12.3669 -25.46343,2.86116 -50.67057,7.99934 -75.22229,15.33319 L 210.49017,649.48487 c 7.30354,5.41352 16.01328,8.91268 25.03211,10.05669 9.01882,1.14402 18.32638,-0.0697 26.75025,-3.48822 13.87268,-5.62975 24.99159,-17.15133 31.32313,-30.71809 6.33154,-13.56676 8.06282,-29.0335 6.21191,-43.89013 -2.22727,-17.87752 -9.53537,-34.98499 -20.22492,-49.48672 -10.68954,-14.50173 -24.69312,-26.43323 -40.28526,-35.45829 -23.36079,-13.52171 -50.65913,-20.57931 -77.5767,-18.57734 -26.91757,2.00197 -53.29679,13.31258 -72.290686,32.49057 -23.117899,23.34196 -34.116619,56.99426 -33.884454,89.8459 0.232165,32.85164 10.900542,64.96434 26.20666,94.03335 20.71432,39.34013 50.1367,74.06494 85.5416,100.95772 L 3.5522549,854.74451 C 8.6927663,838.19776 12.135929,821.12423 13.810243,803.87846 Z"
     id="use1061"
     sodipodi:nodetypes="aaaaaacaaaaccaaaaaccaaaaacca"
     inkscape:path-effect="#path-effect858"
     inkscape:original-d="M 13.810243,803.87846 C 15.254826,760.90911 5.0361846,718.22533 -3.1383614,676.01599 -16.559334,606.71668 -72.042599,539.54884 -55.695408,470.8809 -44.643412,424.45593 -6.5962753,378.64501 38.5166,363.08054 c 77.90178,-26.87701 174.50627,0.20515 242.86229,46.23244 49.57046,33.3781 82.55942,92.66631 97.30166,150.57999 10.94639,43.00199 -9.99609,132.74424 -9.99609,132.74424 0,0 102.11182,18.26622 151.30636,6.91108 41.11384,-9.48994 89.71368,-24.25785 111.12841,-60.61463 22.91907,-38.91077 3.26516,-90.50981 -0.92769,-135.47371 -10.182,-109.19137 -56.64126,-214.08465 -58.61271,-323.73201 -0.47359,-26.34013 11.27554,-78.22468 11.27554,-78.22468 h 180.64674 c 0,0 -30.33785,40.14593 -36.55631,63.87746 -33.48816,127.80111 4.91812,264.23697 2.87362,396.33693 -0.97625,63.07773 32.07662,139.77316 -7.22813,189.11776 -36.24596,45.50449 -110.64982,39.2804 -168.4923,45.4994 -82.77176,8.89931 -166.43009,-18.66886 -249.44002,-12.3669 -25.51628,1.93715 -75.22229,15.33319 -75.22229,15.33319 3.56444,-56.31268 11.44435,-80.18214 -18.94551,-149.81623 0,0 36.42443,14.74543 51.78236,6.56847 24.57338,-13.08352 39.66049,-46.85012 37.53504,-74.60822 -2.65416,-34.66304 -28.90508,-70.46437 -60.51018,-84.94501 C 193.68631,475.6023 123.99281,474.0471 89.430004,510.41334 47.16808,554.88043 61.83864,636.2681 81.75221,694.29259 c 14.317902,41.71971 85.5416,100.95772 85.5416,100.95772 L 3.5522549,854.74451 C 12.215402,835.25353 13.229075,821.16539 13.810243,803.87846 Z" /></g></svg>
