<?xml version="1.0" encoding="UTF-8" standalone="no"?>
<svg
   xmlns:dc="http://purl.org/dc/elements/1.1/"
   xmlns:cc="http://creativecommons.org/ns#"
   xmlns:rdf="http://www.w3.org/1999/02/22-rdf-syntax-ns#"
   xmlns:svg="http://www.w3.org/2000/svg"
   xmlns="http://www.w3.org/2000/svg"
   xmlns:sodipodi="http://sodipodi.sourceforge.net/DTD/sodipodi-0.dtd"
   xmlns:inkscape="http://www.inkscape.org/namespaces/inkscape"
   xml:space="preserve"
   width="1000"
   height="1000"
   version="1.1"
   style="clip-rule:evenodd;fill-rule:evenodd;image-rendering:optimizeQuality;shape-rendering:geometricPrecision;text-rendering:geometricPrecision"
   viewBox="0 0 1000 1000"
   id="svg10"
   sodipodi:docname="സ്ഥ.svg"
   inkscape:version="1.0.1 (3bc2e813f5, 2020-09-07)"><metadata
   id="metadata14"><rdf:RDF><cc:Work
       rdf:about=""><dc:format>image/svg+xml</dc:format><dc:type
         rdf:resource="http://purl.org/dc/dcmitype/StillImage" /><dc:title /></cc:Work></rdf:RDF></metadata><sodipodi:namedview
   pagecolor="#ffffff"
   bordercolor="#666666"
   borderopacity="1"
   objecttolerance="10"
   gridtolerance="10"
   guidetolerance="10"
   inkscape:pageopacity="0"
   inkscape:pageshadow="2"
   inkscape:window-width="1920"
   inkscape:window-height="1015"
   id="namedview12"
   showgrid="false"
   inkscape:zoom="0.6002692"
   inkscape:cx="541.60917"
   inkscape:cy="475.41935"
   inkscape:window-x="1920"
   inkscape:window-y="0"
   inkscape:window-maximized="1"
   inkscape:current-layer="svg10"
   showguides="true"
   inkscape:guide-bbox="true"
   inkscape:document-rotation="0"><sodipodi:guide
     position="0,1000"
     orientation="0,1"
     id="guide16"
     inkscape:label=""
     inkscape:locked="true"
     inkscape:color="rgb(0,0,255)" /><sodipodi:guide
     position="1763.3122,2036.1693"
     orientation="1000,0"
     id="guide18" /><sodipodi:guide
     position="0,200"
     orientation="0,1"
     id="guide20"
     inkscape:label="base"
     inkscape:locked="true"
     inkscape:color="rgb(0,0,255)" /><inkscape:grid
     type="xygrid"
     id="grid24"
     originx="-473.37552"
     originy="-489.69235" /><sodipodi:guide
     position="0,0"
     orientation="0,1"
     id="guide34"
     inkscape:label="bottom"
     inkscape:locked="true"
     inkscape:color="rgb(0,0,255)" /><sodipodi:guide
     position="225.05109,1693.3186"
     orientation="0,1"
     id="guide44"
     inkscape:label=""
     inkscape:locked="false"
     inkscape:color="rgb(0,0,255)" /><sodipodi:guide
     position="0,900"
     orientation="0,1"
     id="guide46"
     inkscape:label=""
     inkscape:locked="true"
     inkscape:color="rgb(0,0,255)" /><sodipodi:guide
     position="1395.0158,365.31264"
     orientation="1,0"
     id="guide841"
     inkscape:label="width" /></sodipodi:namedview>
 <defs
   id="defs4"><inkscape:path-effect
   effect="spiro"
   id="path-effect867"
   is_visible="true"
   lpeversion="1" />
  <style
   type="text/css"
   id="style2">
   <![CDATA[
    .fil0 {fill:#EF7F1A;fill-rule:nonzero}
   ]]>
  </style>
 <inkscape:path-effect
   effect="spiro"
   id="path-effect1214"
   is_visible="true"
   lpeversion="1" /><inkscape:path-effect
   effect="spiro"
   id="path-effect1195"
   is_visible="true"
   lpeversion="1" /><inkscape:path-effect
   effect="spiro"
   id="path-effect992"
   is_visible="true"
   lpeversion="1" /><inkscape:path-effect
   effect="spiro"
   id="path-effect1078"
   is_visible="true"
   lpeversion="1" /><inkscape:path-effect
   effect="spiro"
   id="path-effect861"
   is_visible="true"
   lpeversion="1" /><style
   type="text/css"
   id="style2-3">
   <![CDATA[
    .fil0 {fill:#EF7F1A;fill-rule:nonzero}
   ]]>
  </style></defs>
 
<path
   style="display:inline;fill:#1a1a1a;fill-rule:nonzero;stroke:none;stroke-width:1.92017px;stroke-linecap:butt;stroke-linejoin:miter;stroke-opacity:1"
   d="m 919.89375,749.38614 c 49.3238,3.58543 99.07415,5.84931 148.08805,-0.73325 49.0139,-6.58256 97.6249,-22.47546 137.1271,-52.22889 33.1687,-24.98294 59.0111,-59.19388 75.7395,-97.20005 16.7284,-38.00617 24.4829,-79.71247 24.4673,-121.23726 -0.015,-39.32207 -7.0322,-78.93901 -23.3502,-114.71538 -16.318,-35.77637 -42.2231,-67.57746 -75.6289,-88.32066 -30.2898,-18.80837 -66.7604,-28.16516 -102.1734,-24.02398 -35.4129,4.14117 -69.4078,22.23417 -90.9203,50.66725 -23.86936,31.54811 -31.11155,73.36513 -26.93825,112.70485 4.1733,39.33971 18.80095,76.78655 35.16545,112.80366 38.6043,84.96543 87.7286,165.14478 145.8946,238.12518 L 973.9236,776.5022 c 3.8206,-40.38639 1.11795,-81.38277 -7.9714,-120.91808 -22.41625,-97.50237 -82.82901,-184.47524 -95.5022,-283.7153 -5.51196,-43.16256 -1.54426,-87.76922 13.62593,-128.55223 15.17019,-40.783 41.7591,-77.57783 77.05717,-103.02257 46.5755,-33.57413 107.0041,-46.01081 163.7503,-37.27188 56.7462,8.73894 109.5478,37.82768 150.0994,78.4733 43.9692,44.0711 73.7441,101.05594 90.6958,160.95747 16.9516,59.90153 21.5294,122.76559 19.5999,184.98961 -1.0872,35.06105 -4.2426,70.24601 -13.0685,104.19542 -8.8259,33.94941 -23.521,66.75105 -45.9113,93.7535 -33.7101,40.65394 -83.0006,65.92721 -133.9017,80.0052 -83.3176,23.04358 -171.3389,18.50361 -257.78439,18.48872 -99.89989,-0.0172 -202.45019,5.87757 -297.02971,-26.28923 -38.93001,-13.24022 -76.19913,-33.15639 -105.20297,-62.30474 -29.00384,-29.14835 -49.22147,-68.13745 -51.10542,-109.21421 -1.34589,-29.34529 6.56299,-58.5525 18.90961,-85.20805 12.34662,-26.65555 29.03682,-51.04304 46.14173,-74.92566 13.28749,-18.55257 26.9428,-36.99709 37.19302,-57.38552 10.25022,-20.38843 17.02005,-43.07668 15.51106,-65.84679 -0.89349,-13.48245 -4.73713,-26.8373 -11.72608,-38.40144 -6.98895,-11.56413 -17.17514,-21.27892 -29.35555,-27.12805 -12.89014,-6.18995 -27.72771,-7.91623 -41.8646,-5.76689 -14.13688,2.14934 -27.57401,8.06582 -39.2771,16.2822 -23.40617,16.43275 -39.4598,41.38821 -51.85392,67.16166 -23.80904,49.51068 -36.23754,105.2239 -30.32415,159.84266 3.84496,35.51375 15.41402,70.17119 33.67274,100.87346 l -154.75291,3.39962 c 24.80281,-48.71019 38.74075,-102.9152 40.51088,-157.54787 1.20793,-37.28132 -3.29968,-75.11451 -16.95073,-109.82769 -13.65105,-34.71318 -36.85689,-66.2035 -68.18982,-86.44217 -11.15868,-7.20765 -23.32795,-12.97959 -36.2193,-16.18577 -12.89134,-3.20618 -26.53025,-3.79247 -39.47879,-0.82572 -21.04518,4.82185 -39.37024,19.00159 -51.16048,37.08861 -11.790244,18.08701 -17.335829,39.81564 -17.872651,61.39947 -1.073644,43.16767 16.913861,84.2843 35.133191,123.43345 27.65416,59.42242 56.95626,118.66572 96.99968,170.55311 26.85722,34.801 58.37719,65.99892 93.45216,92.49734 -30.36439,13.65177 -60.30821,28.23898 -89.77468,43.73396 -31.5289,16.57951 -62.51125,34.19837 -92.8798,52.81832 2.06612,-20.2787 2.70328,-40.70285 1.90522,-61.0709 C 125.3338,674.43749 91.314818,584.37811 55.895151,497.05481 32.632294,439.70279 8.3087836,381.62379 2.1782228,320.03783 -0.88705764,289.24485 0.73675651,257.77659 9.2611261,228.02867 17.785496,198.28074 33.40829,170.28853 55.910701,149.046 76.802656,129.32376 103.3024,115.78032 131.34378,109.52557 c 28.04138,-6.25474 57.55411,-5.29973 85.37188,1.88443 39.20094,10.12395 75.07402,32.74301 101.10697,63.75096 26.03296,31.00796 42.10015,70.25519 45.28479,110.61688 3.89578,-26.47875 14.02811,-52.0194 29.344,-73.96763 15.9009,-22.78657 37.41876,-41.68945 62.27174,-54.11505 24.85299,-12.42559 53.0077,-18.30276 80.72883,-16.40399 42.22003,2.89188 82.65216,24.21118 109.73633,56.72797 27.08418,32.51679 40.70968,75.67496 38.30808,117.92572 -1.99962,35.17876 -14.56882,69.04788 -31.12176,100.15325 -16.55294,31.10537 -37.09549,59.87306 -56.46174,89.3093 -15.58326,23.68619 -30.66607,48.39835 -37.21311,75.98476 -3.27352,13.7932 -4.33055,28.20406 -2.11767,42.20661 2.21288,14.00256 7.78058,27.58704 16.80469,38.52019 11.87174,14.38318 29.44579,23.65134 47.87505,26.51084 18.42926,2.85949 37.59332,-0.49307 54.50964,-8.34497 24.62317,-11.42912 44.26378,-32.00632 57.8215,-55.52468 13.55773,-23.51835 21.40445,-49.92773 26.66336,-76.55983 16.11356,-81.60204 8.7159,-166.40809 -9.79707,-247.49945 -9.79263,-42.89413 -22.74261,-85.73367 -22.36096,-129.72977 0.2094,-24.13925 4.49268,-48.23815 12.61422,-70.97111 h 139.62793 c -10.52673,31.10804 -19.82962,62.6302 -27.87991,94.4691 -15.66241,61.94482 -26.61889,125.80275 -22.47282,189.56231 2.94129,45.23197 13.42736,89.64353 18.1293,134.7265 4.70195,45.08297 3.21149,92.37677 -16.46607,133.21029 -17.24656,35.78888 -48.30309,64.70335 -85.23123,79.3526 57.61802,7.82398 115.48022,13.84967 173.474,18.06534 z"
   id="path1087-2"
   sodipodi:nodetypes="aaaaaaccaaaaaaaaaaaaaaaccaaaaacacaaaacaaaaaaaaaccaaaca"
   inkscape:original-d="m 919.89375,749.38614 c 96.61995,-3.85893 208.95285,6.4883 285.21515,-52.96214 63.1794,-49.25164 101.1477,-138.3344 100.2068,-218.43731 -0.8844,-75.2872 -32.5477,-167.5986 -98.9791,-203.03604 -57.3278,-30.5811 -151.3053,-23.1101 -193.0937,26.64327 -48.3776,57.59849 -13.5038,153.49644 8.2272,225.50851 26.8933,89.11889 145.8327,200.79146 145.8946,238.12518 L 973.9236,776.5022 c 17.6263,-31.00118 -0.134,-81.29219 -7.9714,-120.91808 -19.361,-97.88963 -97.92371,-183.95878 -95.5022,-283.7153 2.01172,-82.87466 19.30486,-189.4155 90.6831,-231.5748 90.8504,-53.660468 232.9002,-26.47737 313.8497,41.20142 92.8567,77.63395 109.1426,224.9179 110.2957,345.94708 0.656,68.84647 -16.718,143.59634 -58.9798,197.94892 -31.9155,41.04621 -84.3086,64.38745 -133.9017,80.0052 -82.1706,25.877 -171.6385,19.20711 -257.78439,18.48872 C 835.21913,823.0565 726.6469,841.725 637.5829,797.59613 568.27144,763.25413 495.48336,702.17168 481.27451,626.07718 c -10.5753,-56.63524 42.88081,-106.95614 65.05134,-160.13371 17.19201,-41.23623 56.18172,-78.69135 52.70408,-123.23231 -2.00678,-25.70251 -16.0466,-59.37374 -41.08163,-65.52949 -49.85436,-12.25846 -103.38194,35.73943 -132.99562,77.67697 -31.28179,44.29983 -33.97377,105.73438 -30.32415,159.84266 2.38559,35.36805 33.67274,100.87346 33.67274,100.87346 l -154.75291,3.39962 c 0,0 44.7797,-103.49187 40.51088,-157.54787 -5.61419,-71.09235 -30.19824,-150.80577 -85.14055,-196.26986 -19.92491,-16.48762 -54.3398,-31.5946 -75.69809,-17.01149 -61.800399,42.19633 -47.50056,148.33592 -33.89994,221.92153 11.88682,64.31315 57.22024,118.63901 96.99968,170.55311 26.65811,34.79012 93.45216,92.49734 93.45216,92.49734 0,0 -60.32958,28.20968 -89.77468,43.73396 -31.50531,16.61048 -92.8798,52.81832 -92.8798,52.81832 0,0 4.26124,-40.84076 1.90522,-61.0709 C 118.17955,675.48841 68.187286,589.98479 55.895151,497.05481 40.68358,382.05355 -16.16786,239.93804 55.910701,149.046 90.116194,105.91241 164.48165,94.02808 216.71566,111.41 c 72.00847,23.96227 146.39176,174.36784 146.39176,174.36784 0,0 11.3575,-54.47218 29.344,-73.96763 36.03896,-39.06239 90.96318,-81.32588 143.00057,-70.51904 74.72444,15.51836 137.7684,99.02985 148.04441,174.65369 9.36807,68.94207 -67.82897,122.75027 -87.5835,189.46255 -14.98407,50.60219 -53.45608,113.9513 -22.52609,156.71156 20.31437,28.08432 70.63875,32.07982 102.38469,18.16587 47.86842,-20.98026 70.80934,-81.64111 84.48486,-132.08451 C 781.86024,468.51246 759.12298,382.8095 750.45929,300.70088 745.85475,257.0622 727.98398,214.85189 728.09833,170.97111 728.16093,146.94339 740.71255,100 740.71255,100 h 139.62793 c 0,0 -21.27708,62.30749 -27.87991,94.4691 -12.79643,62.32991 -18.91799,126.03177 -22.47282,189.56231 -4.98973,89.17449 37.05537,185.93445 1.66323,267.93679 -15.38208,35.63974 -10.43848,85.08849 -85.23123,79.3526 17.95918,-0.0436 115.38295,20.38545 173.474,18.06534 z"
   inkscape:path-effect="#path-effect1078" /><g
   style="clip-rule:evenodd;fill-rule:evenodd;image-rendering:optimizeQuality;shape-rendering:geometricPrecision;text-rendering:geometricPrecision"
   id="g867"
   transform="translate(132.61439,603.01951)" /></svg>
