<?xml version="1.0" encoding="UTF-8" standalone="no"?>
<svg
   xmlns:dc="http://purl.org/dc/elements/1.1/"
   xmlns:cc="http://creativecommons.org/ns#"
   xmlns:rdf="http://www.w3.org/1999/02/22-rdf-syntax-ns#"
   xmlns:svg="http://www.w3.org/2000/svg"
   xmlns="http://www.w3.org/2000/svg"
   xmlns:sodipodi="http://sodipodi.sourceforge.net/DTD/sodipodi-0.dtd"
   xmlns:inkscape="http://www.inkscape.org/namespaces/inkscape"
   xml:space="preserve"
   width="1000"
   height="1000"
   version="1.1"
   style="clip-rule:evenodd;fill-rule:evenodd;image-rendering:optimizeQuality;shape-rendering:geometricPrecision;text-rendering:geometricPrecision"
   viewBox="0 0 1000 1000"
   id="svg10"
   sodipodi:docname="സൃ.svg"
   inkscape:version="1.0.1 (3bc2e813f5, 2020-09-07)"><metadata
   id="metadata14"><rdf:RDF><cc:Work
       rdf:about=""><dc:format>image/svg+xml</dc:format><dc:type
         rdf:resource="http://purl.org/dc/dcmitype/StillImage" /><dc:title /></cc:Work></rdf:RDF></metadata><sodipodi:namedview
   pagecolor="#ffffff"
   bordercolor="#666666"
   borderopacity="1"
   objecttolerance="10"
   gridtolerance="10"
   guidetolerance="10"
   inkscape:pageopacity="0"
   inkscape:pageshadow="2"
   inkscape:window-width="1920"
   inkscape:window-height="1015"
   id="namedview12"
   showgrid="false"
   inkscape:zoom="1.2005384"
   inkscape:cx="400.93126"
   inkscape:cy="820.85899"
   inkscape:window-x="1920"
   inkscape:window-y="0"
   inkscape:window-maximized="1"
   inkscape:current-layer="g883"
   showguides="true"
   inkscape:guide-bbox="true"
   inkscape:document-rotation="0"><sodipodi:guide
     position="0,1000"
     orientation="0,1"
     id="guide16"
     inkscape:label=""
     inkscape:locked="true"
     inkscape:color="rgb(0,0,255)" /><sodipodi:guide
     position="1763.3122,2036.1693"
     orientation="1000,0"
     id="guide18" /><sodipodi:guide
     position="0,200"
     orientation="0,1"
     id="guide20"
     inkscape:label="base"
     inkscape:locked="true"
     inkscape:color="rgb(0,0,255)" /><inkscape:grid
     type="xygrid"
     id="grid24"
     originx="-473.37552"
     originy="-489.69235" /><sodipodi:guide
     position="0,0"
     orientation="0,1"
     id="guide34"
     inkscape:label="bottom"
     inkscape:locked="true"
     inkscape:color="rgb(0,0,255)" /><sodipodi:guide
     position="225.05109,1693.3186"
     orientation="0,1"
     id="guide44"
     inkscape:label=""
     inkscape:locked="false"
     inkscape:color="rgb(0,0,255)" /><sodipodi:guide
     position="0,900"
     orientation="0,1"
     id="guide46"
     inkscape:label=""
     inkscape:locked="true"
     inkscape:color="rgb(0,0,255)" /><sodipodi:guide
     position="866.34048,384.46991"
     orientation="1,0"
     id="guide841" /></sodipodi:namedview>
 <defs
   id="defs4"><inkscape:path-effect
   effect="spiro"
   id="path-effect855"
   is_visible="true"
   lpeversion="1" /><inkscape:path-effect
   effect="spiro"
   id="path-effect867"
   is_visible="true"
   lpeversion="1" />
  <style
   type="text/css"
   id="style2">
   <![CDATA[
    .fil0 {fill:#EF7F1A;fill-rule:nonzero}
   ]]>
  </style>
 <inkscape:path-effect
   effect="spiro"
   id="path-effect1214"
   is_visible="true"
   lpeversion="1" /><inkscape:path-effect
   effect="spiro"
   id="path-effect1195"
   is_visible="true"
   lpeversion="1" /><inkscape:path-effect
   effect="spiro"
   id="path-effect992"
   is_visible="true"
   lpeversion="1" /><inkscape:path-effect
   effect="spiro"
   id="path-effect1078"
   is_visible="true"
   lpeversion="1" /><inkscape:path-effect
   effect="spiro"
   id="path-effect858"
   is_visible="true"
   lpeversion="1" /><inkscape:path-effect
   effect="spiro"
   id="path-effect854"
   is_visible="true"
   lpeversion="1" /><style
   type="text/css"
   id="style2-3">
   <![CDATA[
    .fil0 {fill:#EF7F1A;fill-rule:nonzero}
   ]]>
  </style><inkscape:path-effect
   effect="spiro"
   id="path-effect287"
   is_visible="true"
   lpeversion="1" /><inkscape:path-effect
   effect="spiro"
   id="path-effect1032"
   is_visible="true"
   lpeversion="1" /><inkscape:path-effect
   effect="spiro"
   id="path-effect1218"
   is_visible="true"
   lpeversion="1" /><inkscape:path-effect
   effect="spiro"
   id="path-effect309"
   is_visible="true"
   lpeversion="1" /><inkscape:path-effect
   effect="spiro"
   id="path-effect1525"
   is_visible="true"
   lpeversion="1" /><inkscape:path-effect
   effect="spiro"
   id="path-effect1343"
   is_visible="true"
   lpeversion="1" /></defs>
 
<g
   style="clip-rule:evenodd;fill-rule:evenodd;image-rendering:optimizeQuality;shape-rendering:geometricPrecision;text-rendering:geometricPrecision"
   id="g883"
   transform="translate(241.32914,-63.1412)"><path
     id="path979-0-6-9"
     style="display:inline;fill:#1a1a1a;fill-rule:nonzero;stroke:none;stroke-width:1.80255px;stroke-linecap:butt;stroke-linejoin:miter;stroke-opacity:1"
     d="M 828.40625,516.1543 C 824.52073,470.60188 815.51314,425.62907 810.76758,380.1582 804.034,315.63861 806.08651,249.37064 825.45312,187.45898 835.10121,156.61574 848.98395,127.10026 866.58984,100 H 722.59766 c -4.08087,23.39645 -5.50958,47.25445 -4.25,70.9707 2.21359,41.67913 12.64443,82.40875 20.92773,123.31641 16.92346,83.57765 24.91875,170.49493 7.23047,253.91406 -5.78978,27.30499 -14.44217,54.34612 -29.30078,77.97461 -14.8585,23.62831 -36.38134,43.73972 -62.60742,53.29297 -15.9043,5.79338 -33.31113,7.57496 -49.98828,4.67969 -16.67723,-2.89528 -32.56951,-10.51295 -44.97461,-22.0293 -11.29385,-10.48472 -19.58022,-24.04439 -24.46485,-38.66016 -4.88468,-14.61591 -6.42297,-30.26111 -5.22461,-45.625 2.39668,-30.72723 15.52519,-59.76637 32.40625,-85.55273 23.78302,-36.32934 54.96784,-67.11563 82.23047,-100.91211 27.26321,-33.7972 51.2632,-72.33317 56.62305,-115.42383 5.91178,-47.52793 -12.78066,-97.11354 -47.48633,-130.11914 -34.70568,-33.00561 -84.34633,-49.151057 -132.01758,-44.53515 -41.09736,3.97937 -80.2186,22.7462 -110.80859,50.47851 -30.58971,27.73206 -52.81068,64.11171 -66.00391,103.23633 -6.51332,19.31529 -10.90234,39.3461 -13.0625,59.61523 -4.74361,-33.81785 -19.32013,-66.19784 -41.49219,-92.16992 -22.17224,-25.97228 -51.86463,-45.4482 -84.51953,-55.43945 -27.6992,-8.47498 -57.57774,-10.14059 -85.85351,-3.85156 -28.276301,6.28915 -54.849437,20.63108 -74.951174,41.48828 C 27.07074,223.26165 14.504371,246.72774 7.3554688,271.57031 0.2065606,296.4129 -1.64348,322.61118 0.27539062,348.39062 4.1131747,399.95007 22.660269,449.16452 42.144531,497.05469 c 35.534049,87.33878 75.649649,177.47817 69.126949,271.54297 -1.70682,24.61425 -6.64518,49.0025 -14.648433,72.34179 35.613633,-22.89869 72.198423,-44.28691 109.623043,-64.08789 29.42816,-15.57013 59.37545,-30.15905 89.77539,-43.73437 C 261.36441,706.07002 229.53209,675.40557 201.20898,641.7832 157.62204,590.04113 122.35758,531.18979 98.28125,467.96484 88.447035,442.13998 80.392805,415.05596 80.955078,387.42773 81.236223,373.61321 83.71311,359.77373 89,347.00781 c 5.286836,-12.76579 13.44076,-24.43603 24.13477,-33.18554 13.9149,-11.38475 31.81497,-17.48377 49.77929,-18.20508 17.96404,-0.72129 35.95254,3.76923 52.07227,11.73047 27.66596,13.66372 49.75312,37.39332 63.88281,64.82422 14.12969,27.4309 20.5979,58.40922 21.43945,89.2539 1.36625,50.07597 -12.05793,100.46543 -38.15625,143.22461 l 135.125,-9.44141 c -11.71444,-25.52818 -19.78917,-52.72325 -23.90429,-80.50781 -10.11237,-68.27686 4.30062,-139.51024 37.82812,-199.84179 13.53138,-24.34924 30.54688,-47.46659 53.58594,-63.125 11.51933,-7.82907 24.46219,-13.6836 38.11523,-16.4375 13.65352,-2.754 28.02447,-2.34584 41.29493,1.88476 20.18954,6.43638 37.38703,22.09117 45.03515,41.85352 7.21453,18.64197 5.884,39.77414 -0.18359,58.82031 -6.06746,19.04575 -16.57895,36.34239 -27.64258,52.99023 -23.74754,35.73376 -50.51641,69.49841 -72.12891,106.5625 -21.61166,37.06266 -38.12742,78.3218 -38.87304,121.21875 -0.76869,44.22446 15.9941,88.51556 45.84765,121.15235 29.8282,32.60908 72.2215,53.19335 116.21289,57.41601 49.10244,4.71326 99.85209,-11.0445 137.64957,-42.74016 -7.11132,36.04987 -23.8523,70.15402 -48.02261,97.83001 -17.6023,20.15535 -39.08351,36.91075 -62.91797,49.07617 -19.17095,-23.3018 -42.09209,-43.51149 -67.61133,-59.61328 -48.66126,-30.70363 -106.97931,-46.08406 -164.4082,-42.54102 -39.65518,2.4465 -79.4545,14.15667 -111.09961,38.17969 -15.8231,12.01193 -29.45506,27.01278 -39.29688,44.26953 -9.84155,17.25628 -15.8382,36.78301 -16.67383,56.63086 -1.14733,27.25139 7.54623,54.56051 22.88086,77.11719 15.33646,22.5594 37.10908,40.4512 61.56055,52.5449 48.86782,24.17 106.32441,24.9187 160.07227,15.7852 99.57294,-16.9207 195.4116,-68.7455 253.17773,-151.59573 36.69023,-52.62241 56.75702,-115.03479 70.83535,-177.62146 17.56588,-78.09092 26.59823,-158.61032 19.79551,-238.36291 z m -438.4375,342.75 c 5.81353,0.0205 11.61874,0.51539 17.38086,1.28711 41.08054,5.50191 79.38995,25.09399 111.66992,51.09179 10.95174,8.82037 21.29727,18.3933 30.93945,28.62891 -4.35722,1.51702 -8.71922,3.02029 -13.08593,4.50977 -26.8664,9.16414 -54.1103,17.85164 -82.28321,21.32617 -28.17122,3.47432 -57.59207,1.48138 -83.48046,-10.15821 -11.78854,-5.3002 -22.89637,-12.72441 -30.66211,-23.05664 -3.88244,-5.16554 -6.88586,-11.02229 -8.54493,-17.26758 -1.65934,-6.24631 -1.95304,-12.88377 -0.58007,-19.19921 1.63967,-7.54224 5.63715,-14.49148 11.01562,-20.02735 5.37849,-5.53589 12.10235,-9.68675 19.3125,-12.4414 8.98912,-3.43431 18.6956,-4.72738 28.31836,-4.69336 z"
     transform="translate(-241.32914,63.1412)"
     sodipodi:nodetypes="aaaccaaasaaaaaaaaaaascaaaaaaaacscaaaaaaaaaccaaaaaaaaaaaacacaaaaaaaaaaaaaacaaaaaaaaa"
     inkscape:path-effect="#path-effect855"
     inkscape:original-d="M 828.40625,516.1543 C 827.35218,470.45472 811.97691,425.85393 810.76758,380.1582 809.06333,315.76141 809.02562,249.74853 825.45312,187.45898 833.66869,156.3073 848.972,127.09297 866.58984,100 H 722.59766 c -4.08109,23.39656 -5.53261,47.30615 -4.25,70.9707 2.25645,41.6321 16.83642,81.82443 20.92773,123.31641 8.30881,84.26368 21.17903,170.39855 7.23047,253.91406 -4.57406,27.38669 -14.44263,54.34585 -29.30078,77.97461 -14.85816,23.62876 -37.35703,42.63887 -62.60742,53.29297 -15.41925,6.50596 -33.52624,7.69334 -49.98828,4.67969 -16.42045,-3.00604 -32.54665,-10.8842 -44.97461,-22.0293 -11.35362,-10.18166 -19.3919,-24.27837 -24.46485,-38.66016 -5.09206,-14.43597 -7.11845,-30.43488 -5.22461,-45.625 3.77276,-30.26059 17.17687,-59.13298 32.40625,-85.55273 21.66987,-37.59264 58.81859,-64.37893 82.23047,-100.91211 23.12252,-36.08165 54.34968,-72.62934 56.62305,-115.42383 2.44929,-46.1061 -14.43979,-97.8748 -47.48633,-130.11914 -33.24067,-32.43376 -85.63574,-46.905063 -132.01758,-44.53515 -40.53533,2.07118 -80.15277,23.87732 -110.80859,50.47851 -30.84919,26.76898 -52.81063,64.11146 -66.00391,103.23633 -6.51316,19.31486 -10.90235,39.34657 -13.0625,59.61523 -4.74419,-33.81769 -19.61633,-66.5446 -41.49219,-92.16992 -21.87606,-25.62556 -52.46008,-45.07495 -84.51953,-55.43945 -27.25758,-8.81211 -57.96362,-10.39243 -85.85351,-3.85156 -27.801567,6.52016 -54.688992,21.36656 -74.951174,41.48828 -18.161926,18.03602 -30.036199,42.48587 -37.6542972,66.92187 -7.65361333,24.54992 -9.424887,51.21214 -7.08007818,76.82031 4.69435098,51.26803 28.53945838,98.93714 41.86914038,148.66407 24.183146,90.21622 66.816059,178.17032 69.126949,271.54297 0.60872,24.59579 -6.64526,49.00284 -14.648433,72.34179 C 132.23654,818.04058 168.82151,796.65256 206.24609,776.85156 235.674,761.28153 265.62177,746.69233 296.02148,733.11719 261.3652,706.0693 228.43749,676.19699 201.20898,641.7832 159.42832,588.97713 122.83592,530.6639 98.28125,467.96484 88.267714,442.3958 81.167024,414.88683 80.955078,387.42773 80.849046,373.69056 83.49096,359.59239 89,347.00781 c 5.48511,-12.52992 13.21549,-24.94815 24.13477,-33.18554 14.10457,-10.64035 32.14811,-17.066 49.77929,-18.20508 17.75538,-1.1471 36.5193,3.08902 52.07227,11.73047 26.51896,14.73431 49.15462,38.30187 63.88281,64.82422 14.85452,26.74986 21.8161,58.65864 21.43945,89.2539 -0.60819,49.40295 -12.05763,100.46581 -38.15625,143.22461 l 135.125,-9.44141 c -11.71458,-25.52812 -22.4835,-52.55 -23.90429,-80.50781 -3.44093,-67.70947 8.61617,-138.66113 37.82812,-199.84179 11.89247,-24.90725 31.39903,-46.70724 53.58594,-63.125 11.12224,-8.23018 24.5045,-13.94987 38.11523,-16.4375 13.55477,-2.47741 28.58839,-3.44564 41.29493,1.88476 18.89808,7.92776 36.87676,23.05385 45.03515,41.85352 7.80539,17.98625 4.51454,39.78464 -0.18359,58.82031 -4.77371,19.3419 -17.43527,35.88151 -27.64258,52.99023 -21.97642,36.83519 -53.36863,67.9899 -72.12891,106.5625 -18.55921,38.15917 -39.96451,78.79971 -38.87304,121.21875 1.11066,43.1648 16.83331,89.17421 45.84765,121.15235 29.03347,31.99922 73.13979,54.01 116.21289,57.41601 47.8946,3.78727 95.35993,-25.93685 137.64957,-42.74016 -7.34135,38.48621 -25.11422,69.63676 -48.02261,97.83001 -16.77319,20.64268 -39.55825,35.8521 -62.91797,49.07617 -19.19886,-23.27717 -41.07093,-45.52822 -67.61133,-59.61328 -50.0024,-26.53642 -107.84342,-44.74278 -164.4082,-42.54102 -39.12932,1.52309 -78.51563,16.46086 -111.09961,38.17969 -16.4186,10.94381 -29.7307,27.01191 -39.29688,44.26953 -9.54026,17.21086 -16.69439,36.95271 -16.67383,56.63086 0.028,26.81332 8.26876,54.63517 22.88086,77.11719 14.70224,22.6207 36.73702,41.9787 61.56055,52.5449 49.33309,20.9987 107.75548,27.5178 160.07227,15.7852 95.98057,-21.5246 189.40605,-76.7041 253.17773,-151.59573 41.32501,-48.53089 56.23143,-115.57528 70.83535,-177.62146 18.26653,-77.60709 21.63396,-158.65628 19.79551,-238.36291 z m -438.4375,342.75 c 5.80356,-0.26228 11.75415,-0.15866 17.38086,1.28711 39.64644,10.18703 77.60734,28.39033 111.66992,51.09179 11.6922,7.79242 21.2924,18.39759 30.93945,28.62891 -4.36572,1.52486 -8.66847,3.17835 -13.08593,4.50977 -27.12856,8.17654 -54.01139,19.45025 -82.28321,21.32617 -27.97057,1.85593 -57.47854,0.31546 -83.48046,-10.15821 -11.86177,-4.77796 -22.49472,-13.21671 -30.66211,-23.05664 -4.10164,-4.94159 -6.98807,-11.03709 -8.54493,-17.26758 -1.55215,-6.21167 -2.07917,-12.97452 -0.58007,-19.19921 1.78388,-7.40719 5.81843,-14.45618 11.01562,-20.02735 5.22359,-5.59948 12.16825,-9.68462 19.3125,-12.4414 8.92668,-3.44458 18.7599,-4.26139 28.31836,-4.69336 z" /></g></svg>
