<?xml version="1.0" encoding="UTF-8" standalone="no"?>
<svg
   xmlns:dc="http://purl.org/dc/elements/1.1/"
   xmlns:cc="http://creativecommons.org/ns#"
   xmlns:rdf="http://www.w3.org/1999/02/22-rdf-syntax-ns#"
   xmlns:svg="http://www.w3.org/2000/svg"
   xmlns="http://www.w3.org/2000/svg"
   xmlns:sodipodi="http://sodipodi.sourceforge.net/DTD/sodipodi-0.dtd"
   xmlns:inkscape="http://www.inkscape.org/namespaces/inkscape"
   xml:space="preserve"
   width="1200"
   height="1000"
   version="1.1"
   style="clip-rule:evenodd;fill-rule:evenodd;image-rendering:optimizeQuality;shape-rendering:geometricPrecision;text-rendering:geometricPrecision"
   viewBox="0 0 1200 1000"
   id="svg10"
   sodipodi:docname="ഹ.svg"
   inkscape:version="1.0.1 (3bc2e813f5, 2020-09-07)"><metadata
   id="metadata14"><rdf:RDF><cc:Work
       rdf:about=""><dc:format>image/svg+xml</dc:format><dc:type
         rdf:resource="http://purl.org/dc/dcmitype/StillImage" /><dc:title /></cc:Work></rdf:RDF></metadata><sodipodi:namedview
   pagecolor="#ffffff"
   bordercolor="#666666"
   borderopacity="1"
   objecttolerance="10"
   gridtolerance="10"
   guidetolerance="10"
   inkscape:pageopacity="0"
   inkscape:pageshadow="2"
   inkscape:window-width="1920"
   inkscape:window-height="1015"
   id="namedview12"
   showgrid="false"
   inkscape:zoom="0.678"
   inkscape:cx="412.17104"
   inkscape:cy="577.14983"
   inkscape:window-x="1920"
   inkscape:window-y="0"
   inkscape:window-maximized="1"
   inkscape:current-layer="g863"
   showguides="true"
   inkscape:guide-bbox="true"
   inkscape:document-rotation="0"
   inkscape:snap-to-guides="true"><sodipodi:guide
     position="0,1000"
     orientation="0,1"
     id="guide16"
     inkscape:label=""
     inkscape:locked="true"
     inkscape:color="rgb(0,0,255)" /><sodipodi:guide
     position="1763.3122,2036.1693"
     orientation="1000,0"
     id="guide18" /><sodipodi:guide
     position="0,200"
     orientation="0,1"
     id="guide20"
     inkscape:label="base"
     inkscape:locked="true"
     inkscape:color="rgb(0,0,255)" /><inkscape:grid
     type="xygrid"
     id="grid24"
     originx="-473.37552"
     originy="-489.69235" /><sodipodi:guide
     position="0,0"
     orientation="0,1"
     id="guide34"
     inkscape:label="bottom"
     inkscape:locked="true"
     inkscape:color="rgb(0,0,255)" /><sodipodi:guide
     position="225.05109,1693.3186"
     orientation="0,1"
     id="guide44"
     inkscape:label=""
     inkscape:locked="false"
     inkscape:color="rgb(0,0,255)" /><sodipodi:guide
     position="0,900"
     orientation="0,1"
     id="guide46"
     inkscape:label=""
     inkscape:locked="true"
     inkscape:color="rgb(0,0,255)" /><sodipodi:guide
     position="0,1000"
     orientation="0,1000"
     id="guide860" /><sodipodi:guide
     position="864.44002,624.21757"
     orientation="1000,0"
     id="guide862" /><sodipodi:guide
     position="1000,0"
     orientation="0,-1000"
     id="guide864" /><sodipodi:guide
     position="0,0"
     orientation="-1000,0"
     id="guide866" /></sodipodi:namedview>
 <defs
   id="defs4"><inkscape:path-effect
   effect="spiro"
   id="path-effect859"
   is_visible="true"
   lpeversion="1" /><inkscape:path-effect
   effect="spiro"
   id="path-effect857"
   is_visible="true"
   lpeversion="1" /><inkscape:path-effect
   effect="spiro"
   id="path-effect856"
   is_visible="true"
   lpeversion="1" /><inkscape:path-effect
   effect="spiro"
   id="path-effect1521"
   is_visible="true"
   lpeversion="1" /><inkscape:path-effect
   effect="spiro"
   id="path-effect858"
   is_visible="true"
   lpeversion="1" /><inkscape:path-effect
   effect="spiro"
   id="path-effect854"
   is_visible="true"
   lpeversion="1" />
  <style
   type="text/css"
   id="style2">
   <![CDATA[
    .fil0 {fill:#EF7F1A;fill-rule:nonzero}
   ]]>
  </style>
 <inkscape:path-effect
   effect="spiro"
   id="path-effect1214"
   is_visible="true"
   lpeversion="1" /><inkscape:path-effect
   effect="spiro"
   id="path-effect1195"
   is_visible="true"
   lpeversion="1" /><inkscape:path-effect
   effect="spiro"
   id="path-effect992"
   is_visible="true"
   lpeversion="1" /><inkscape:path-effect
   effect="spiro"
   id="path-effect287"
   is_visible="true"
   lpeversion="1" /><inkscape:path-effect
   effect="spiro"
   id="path-effect1032"
   is_visible="true"
   lpeversion="1" /><inkscape:path-effect
   effect="spiro"
   id="path-effect1218"
   is_visible="true"
   lpeversion="1" /><inkscape:path-effect
   effect="spiro"
   id="path-effect309"
   is_visible="true"
   lpeversion="1" /><inkscape:path-effect
   effect="spiro"
   id="path-effect1176"
   is_visible="true"
   lpeversion="1" /><inkscape:path-effect
   effect="spiro"
   id="path-effect1112"
   is_visible="true"
   lpeversion="1" /></defs>
 
<g
   id="g863"
   transform="translate(223.71435,20.072734)"><path
     style="fill:#2d2d2d;stroke:none;stroke-width:1px;stroke-linecap:butt;stroke-linejoin:miter;stroke-opacity:1"
     d="m -13.306719,826.04877 -182.535801,31.34795 c 4.99246,-26.43097 6.1422,-53.58461 3.40187,-80.343 -4.06549,-39.69811 -16.55623,-77.99579 -24.29026,-117.14491 -7.53919,-38.16284 -10.53895,-77.51499 -5.16875,-116.04293 5.37021,-38.52794 19.39995,-76.27568 43.45017,-106.85064 24.72349,-31.43089 60.31071,-54.75417 99.614919,-62.1251 39.304215,-7.37093 82.0018211,1.99898 112.950909,27.323 32.031046,26.20933 49.513871,67.15556 54.23883,108.27236 6.765568,58.87428 -11.343733,120.20613 -49.003491,165.96305 24.831743,1.28846 49.632685,3.17049 74.374503,5.64395 17.36466,1.73596 34.8815,3.7635 52.21382,1.72988 17.33232,-2.03363 34.76872,-8.58028 46.50483,-21.49572 8.25702,-9.08675 13.23213,-20.8412 15.42559,-32.9216 2.19345,-12.08041 1.72713,-24.5139 0.0806,-36.68092 C 222.56,552.8863 204.83979,515.84593 185.7455,480.46903 c -19.09428,-35.3769 -39.94433,-70.1841 -52.49945,-108.37423 -14.84598,-45.15844 -17.45966,-94.53236 -5.6649,-140.58202 11.79476,-46.04965 38.21768,-88.52181 75.47363,-118.04607 37.36793,-29.613005 84.80818,-45.618267 132.45845,-47.274956 47.65027,-1.65669 95.37211,10.687069 137.53411,32.950448 88.22678,46.587588 150.94416,138.055318 163.62122,237.018238 7.02474,54.8383 -0.41695,110.4795 -10.52511,164.834 -10.10816,54.3545 -22.91978,108.42106 -26.75404,163.57434 -4.1163,59.21028 2.27746,119.13619 18.7937,176.14509 l -250.40834,9.3319 c 42.48787,-45.40379 79.89905,-95.55474 111.31326,-149.21917 48.22665,-82.38489 82.77203,-176.99098 72.99037,-271.95097 -6.66642,-64.71738 -35.52426,-128.65021 -86.17082,-169.48778 -17.52112,-14.12771 -37.58826,-25.4291 -59.38195,-31.05199 -21.7937,-5.62289 -45.38578,-5.34243 -66.38411,2.76018 -23.45582,9.05088 -42.6186,27.4535 -55.35187,49.132 -12.73327,21.6785 -19.39808,46.49724 -22.43321,71.45484 -10.34366,85.05497 19.89836,169.09165 46.43631,250.5599 6.42733,19.73112 12.6932,39.65969 15.2714,60.25047 2.5782,20.59079 1.29558,42.07463 -6.93052,61.12611 -6.81908,15.79285 -18.2457,29.42016 -32.01201,39.73535 -13.7663,10.31518 -29.81764,17.38818 -46.4923,21.61544 -33.34932,8.45454 -68.52544,5.62071 -102.46151,-0.0362 -41.386645,-6.89881 -82.881697,-17.95256 -124.66031,-14.08016 -14.2224474,1.31826 -28.283157,4.37252 -41.770826,9.07343 l -8.868289,-119.0787 c 6.350698,-1.57033 12.450245,-4.15186 17.998723,-7.61765 13.329434,-8.32607 23.1902192,-21.6916 28.3770278,-36.52718 5.1868082,-14.83557 5.8565522,-31.05332 3.1347482,-46.53198 -3.9764385,-22.61366 -15.374864,-44.06827 -32.761507,-59.06475 -17.386642,-14.99648 -40.79179,-23.1794 -63.650862,-21.02242 -15.948345,1.50489 -31.326855,7.92443 -43.943095,17.79585 -12.61624,9.87142 -22.47869,23.12354 -28.80447,37.84084 -10.14793,23.60976 -11.10435,50.49648 -5.97336,75.67732 5.13098,25.18083 16.06351,48.85055 28.95175,71.08329 30.53613,52.67606 72.651995,98.59827 122.495941,133.56688 z"
     id="path856"
     inkscape:path-effect="#path-effect859"
     inkscape:original-d="m -13.306719,826.04877 -182.535801,31.34795 c 0,0 14.64213,-42.25876 3.40187,-80.343 -11.36182,-38.4961 -23.08481,-85.15486 -24.29026,-117.14491 -2.83866,-75.33222 -15.2319,-169.79625 38.28142,-222.89357 50.96703,-50.57082 148.619328,-67.45009 212.565828,-34.8021 35.951469,18.35508 50.665138,68.06482 54.23883,108.27236 5.106724,57.45565 -49.003491,165.96305 -49.003491,165.96305 0,0 49.557867,7.15803 74.374503,5.64395 33.49705,-2.04368 59.37294,16.46194 98.71865,-19.76584 16.88659,-16.72835 17.71671,-45.93591 15.50622,-69.60252 -7.44269,-79.68535 -89.03437,-140.79831 -94.705,-220.62934 -6.32692,-89.07018 0.38031,-202.47453 69.80873,-258.62809 70.07336,-56.675189 189.10868,-54.075624 269.99256,-14.324508 86.16022,42.344218 140.28023,143.895658 163.62122,237.018238 26.78592,106.86669 -36.90795,218.23649 -37.27915,328.40834 -0.19895,59.04795 18.7937,176.14509 18.7937,176.14509 l -250.40834,9.3319 c 0,0 84.23412,-93.38461 111.31326,-149.21917 C 520.04565,616.37597 561.82886,522.22639 552.0784,428.87563 545.49435,365.84004 515.94289,298.28904 465.90758,259.38785 431.9844,233.01344 379.912,214.8264 340.14152,231.09604 c -44.27145,18.11094 -68.52516,73.65901 -77.78508,120.58684 -16.44394,83.33531 35.7677,166.29035 46.43631,250.5599 5.09356,40.23313 39.37891,95.21616 8.34088,121.37658 -56.18424,47.3549 -117.64045,54.50619 -180.96582,61.31464 -41.57803,4.47028 -82.896419,-16.19993 -124.66031,-14.08016 -14.2299924,0.72226 -41.770826,9.07343 -41.770826,9.07343 l -8.868289,-119.0787 c 0,0 13.479858,-2.92485 17.998723,-7.61765 20.53979423,-21.33038 35.921066,-59.99896 31.511776,-83.05916 -7.8463099,-41.03551 -54.641921,-79.24609 -96.412369,-80.08717 -30.521855,-0.61458 -61.387445,27.30105 -72.747565,55.63669 -18.42602,45.96015 1.49631,102.147 22.97839,146.76061 26.20866,54.42969 122.495941,133.56688 122.495941,133.56688 z"
     sodipodi:nodetypes="ccssaaacacaaaaaaccaaaaaasaaccasaaac" /></g></svg>
