<?xml version="1.0" encoding="UTF-8" standalone="no"?>
<svg
   xmlns:dc="http://purl.org/dc/elements/1.1/"
   xmlns:cc="http://creativecommons.org/ns#"
   xmlns:rdf="http://www.w3.org/1999/02/22-rdf-syntax-ns#"
   xmlns:svg="http://www.w3.org/2000/svg"
   xmlns="http://www.w3.org/2000/svg"
   xmlns:sodipodi="http://sodipodi.sourceforge.net/DTD/sodipodi-0.dtd"
   xmlns:inkscape="http://www.inkscape.org/namespaces/inkscape"
   xml:space="preserve"
   width="1200"
   height="1000"
   version="1.1"
   style="clip-rule:evenodd;fill-rule:evenodd;image-rendering:optimizeQuality;shape-rendering:geometricPrecision;text-rendering:geometricPrecision"
   viewBox="0 0 1200 1000"
   id="svg10"
   sodipodi:docname="ഹ.svg"
   inkscape:version="1.0.1 (3bc2e813f5, 2020-09-07)"><metadata
   id="metadata14"><rdf:RDF><cc:Work
       rdf:about=""><dc:format>image/svg+xml</dc:format><dc:type
         rdf:resource="http://purl.org/dc/dcmitype/StillImage" /><dc:title /></cc:Work></rdf:RDF></metadata><sodipodi:namedview
   pagecolor="#ffffff"
   bordercolor="#666666"
   borderopacity="1"
   objecttolerance="10"
   gridtolerance="10"
   guidetolerance="10"
   inkscape:pageopacity="0"
   inkscape:pageshadow="2"
   inkscape:window-width="1920"
   inkscape:window-height="1015"
   id="namedview12"
   showgrid="false"
   inkscape:zoom="0.678"
   inkscape:cx="412.17104"
   inkscape:cy="577.14983"
   inkscape:window-x="1920"
   inkscape:window-y="0"
   inkscape:window-maximized="1"
   inkscape:current-layer="g863"
   showguides="true"
   inkscape:guide-bbox="true"
   inkscape:document-rotation="0"
   inkscape:snap-to-guides="true"><sodipodi:guide
     position="0,1000"
     orientation="0,1"
     id="guide16"
     inkscape:label=""
     inkscape:locked="true"
     inkscape:color="rgb(0,0,255)" /><sodipodi:guide
     position="1763.3122,2036.1693"
     orientation="1000,0"
     id="guide18" /><sodipodi:guide
     position="0,200"
     orientation="0,1"
     id="guide20"
     inkscape:label="base"
     inkscape:locked="true"
     inkscape:color="rgb(0,0,255)" /><inkscape:grid
     type="xygrid"
     id="grid24"
     originx="-473.37552"
     originy="-489.69235" /><sodipodi:guide
     position="0,0"
     orientation="0,1"
     id="guide34"
     inkscape:label="bottom"
     inkscape:locked="true"
     inkscape:color="rgb(0,0,255)" /><sodipodi:guide
     position="225.05109,1693.3186"
     orientation="0,1"
     id="guide44"
     inkscape:label=""
     inkscape:locked="false"
     inkscape:color="rgb(0,0,255)" /><sodipodi:guide
     position="0,900"
     orientation="0,1"
     id="guide46"
     inkscape:label=""
     inkscape:locked="true"
     inkscape:color="rgb(0,0,255)" /><sodipodi:guide
     position="0,1000"
     orientation="0,1000"
     id="guide860" /><sodipodi:guide
     position="864.44002,624.21757"
     orientation="1000,0"
     id="guide862" /><sodipodi:guide
     position="1000,0"
     orientation="0,-1000"
     id="guide864" /><sodipodi:guide
     position="0,0"
     orientation="-1000,0"
     id="guide866" /></sodipodi:namedview>
 <defs
   id="defs4"><inkscape:path-effect
   effect="spiro"
   id="path-effect859"
   is_visible="true"
   lpeversion="1" /><inkscape:path-effect
   effect="spiro"
   id="path-effect857"
   is_visible="true"
   lpeversion="1" /><inkscape:path-effect
   effect="spiro"
   id="path-effect856"
   is_visible="true"
   lpeversion="1" /><inkscape:path-effect
   effect="spiro"
   id="path-effect1521"
   is_visible="true"
   lpeversion="1" /><inkscape:path-effect
   effect="spiro"
   id="path-effect858"
   is_visible="true"
   lpeversion="1" /><inkscape:path-effect
   effect="spiro"
   id="path-effect854"
   is_visible="true"
   lpeversion="1" />
  <style
   type="text/css"
   id="style2">
   <![CDATA[
    .fil0 {fill:#EF7F1A;fill-rule:nonzero}
   ]]>
  </style>
 <inkscape:path-effect
   effect="spiro"
   id="path-effect1214"
   is_visible="true"
   lpeversion="1" /><inkscape:path-effect
   effect="spiro"
   id="path-effect1195"
   is_visible="true"
   lpeversion="1" /><inkscape:path-effect
   effect="spiro"
   id="path-effect992"
   is_visible="true"
   lpeversion="1" /><inkscape:path-effect
   effect="spiro"
   id="path-effect287"
   is_visible="true"
   lpeversion="1" /><inkscape:path-effect
   effect="spiro"
   id="path-effect1032"
   is_visible="true"
   lpeversion="1" /><inkscape:path-effect
   effect="spiro"
   id="path-effect1218"
   is_visible="true"
   lpeversion="1" /><inkscape:path-effect
   effect="spiro"
   id="path-effect309"
   is_visible="true"
   lpeversion="1" /><inkscape:path-effect
   effect="spiro"
   id="path-effect1176"
   is_visible="true"
   lpeversion="1" /><inkscape:path-effect
   effect="spiro"
   id="path-effect1112"
   is_visible="true"
   lpeversion="1" /></defs>
 
<g
   id="g863"
   transform="translate(223.71435,20.072734)"><path
     style="fill:#2d2d2d;stroke:none;stroke-width:1px;stroke-linecap:butt;stroke-linejoin:miter;stroke-opacity:1"
     d="m -64.859641,725.55556 -95.246169,83.35107 c -26.91428,-46.09184 -46.13392,-96.66454 -56.6251,-148.99782 -7.64811,-38.15114 -10.66577,-77.52175 -5.27543,-116.05677 5.39034,-38.53501 19.47548,-76.2739 43.55685,-106.8368 24.74592,-31.40631 60.32557,-54.71866 99.623386,-62.09423 39.297813,-7.37556 81.9929327,1.97721 112.942442,27.29213 32.036375,26.20391 49.516654,67.15454 54.23883,108.27236 6.761407,58.87419 -11.347272,120.20394 -49.003491,165.96305 24.831762,1.28813 49.632714,3.17017 74.374503,5.64395 17.36473,1.73619 34.88163,3.76413 52.21406,1.73063 17.33243,-2.03351 34.76901,-8.58042 46.50459,-21.49647 8.2565,-9.08701 13.23076,-20.84162 15.42392,-32.92192 2.19316,-12.0803 1.72713,-24.51351 0.0823,-36.6806 C 222.56537,552.8855 204.86374,515.83759 185.77704,480.45651 166.69033,445.07543 145.8391,410.27252 133.24605,372.0948 118.34733,326.9271 115.63846,277.52937 127.40757,231.44705 139.17668,185.36473 165.6603,142.85626 203.05478,113.46671 240.47824,84.054383 287.93204,68.389057 335.5053,66.844477 c 47.57326,-1.54458 95.1511,10.650352 137.54204,32.297725 44.66415,22.808218 84.00633,56.240898 112.80574,97.298108 28.79941,41.05722 46.90029,89.72241 50.81548,139.72013 4.32012,55.16878 -8.32865,110.08339 -20.33864,164.10207 -12.00999,54.01869 -23.52853,109.36215 -16.94051,164.30627 4.95204,41.30008 20.27686,81.31571 44.17892,115.35849 h -257.8395 c 36.24069,-28.50268 68.25428,-62.37077 94.67317,-100.15744 50.91193,-72.81881 80.78246,-162.51047 71.6764,-250.8942 -6.66772,-64.71714 -35.52454,-128.65003 -86.17082,-169.48778 -17.52107,-14.12781 -37.58821,-25.42921 -59.38192,-31.05209 -21.79371,-5.62288 -45.38581,-5.34236 -66.38414,2.76028 -23.4558,9.05091 -42.61856,27.45353 -55.35184,49.13202 -12.73327,21.6785 -19.3981,46.49723 -22.43324,71.45482 -10.3437,85.05496 19.89835,169.09165 46.43631,250.5599 6.42733,19.73112 12.6932,39.65969 15.2714,60.25047 2.5782,20.59079 1.29558,42.07463 -6.93052,61.12611 -6.81908,15.79285 -18.2457,29.42016 -32.01201,39.73535 -13.7663,10.31518 -29.81764,17.38818 -46.4923,21.61544 -33.34932,8.45453 -68.52544,5.62071 -102.46151,-0.0362 -41.386645,-6.89881 -82.881697,-17.95256 -124.66031,-14.08016 -14.2224474,1.31826 -28.283157,4.37252 -41.770826,9.07343 l -8.868289,-119.0787 c 6.352172,-1.56548 12.452703,-4.14742 17.998723,-7.61765 13.3156125,-8.33178 23.140733,-21.71349 28.3100881,-36.54594 5.1693549,-14.83246 5.8457879,-31.02991 3.2016879,-46.51322 -3.8786899,-22.71282 -15.1088042,-44.36107 -32.502597,-59.47306 -17.393793,-15.11199 -41.022145,-23.27359 -63.909772,-20.61411 -15.797015,1.83557 -30.842545,8.66221 -43.269075,18.58674 -12.42654,9.92453 -22.28901,22.86452 -29.47849,37.04995 -11.98156,23.64059 -16.58427,51.01783 -12.61111,77.22182 3.97317,26.204 16.56318,51.08792 35.5895,69.53879 19.08278,18.50563 44.500233,30.35526 70.943019,33.07367 z"
     id="path856"
     inkscape:path-effect="#path-effect859"
     inkscape:original-d="m -64.859641,725.55556 -95.246169,83.35107 c 0,0 -51.50337,-96.1136 -56.6251,-148.99782 -7.26695,-75.03461 -15.2319,-169.79625 38.28142,-222.89357 50.96703,-50.57082 148.619328,-67.45009 212.565828,-34.8021 35.951469,18.35508 50.665138,68.06482 54.23883,108.27236 5.106724,57.45565 -49.003491,165.96305 -49.003491,165.96305 0,0 49.557867,7.15803 74.374503,5.64395 33.49705,-2.04368 59.37294,16.46194 98.71865,-19.76584 16.88659,-16.72835 17.71671,-45.93591 15.50622,-69.60252 -7.44269,-79.68535 -89.03437,-140.79831 -94.705,-220.62934 -6.32692,-89.07018 0.38031,-202.47453 69.80873,-258.62809 70.07336,-56.675189 189.10868,-54.075624 269.99256,-14.324508 86.16022,42.344218 140.28023,143.895658 163.62122,237.018238 26.78592,106.86669 -51.16295,219.11417 -37.27915,328.40834 5.18898,40.848 44.17892,115.35849 44.17892,115.35849 h -257.8395 c 0,0 71.93559,-60.23871 94.67317,-100.15744 43.0484,-75.57698 80.01724,-164.31779 71.6764,-250.8942 C 546.00061,365.78921 515.94289,298.28904 465.90758,259.38785 431.9844,233.01344 379.912,214.8264 340.14152,231.09604 c -44.27145,18.11094 -68.52516,73.65901 -77.78508,120.58684 -16.44394,83.33531 35.7677,166.29035 46.43631,250.5599 5.09356,40.23313 39.37891,95.21616 8.34088,121.37658 -56.18424,47.3549 -117.64045,54.50619 -180.96582,61.31464 -41.57803,4.47028 -82.896419,-16.19993 -124.66031,-14.08016 -14.2299924,0.72226 -41.770826,9.07343 -41.770826,9.07343 l -8.868289,-119.0787 c 0,0 13.479858,-2.92485 17.998723,-7.61765 20.53979423,-21.33038 35.921066,-59.99896 31.511776,-83.05916 -7.8463099,-41.03551 -54.641921,-79.24609 -96.412369,-80.08717 -30.521855,-0.61458 -61.387445,27.30105 -72.747565,55.63669 -18.42602,45.96015 -6.78793,107.19017 22.97839,146.76061 15.68458,20.8506 70.943019,33.07367 70.943019,33.07367 z"
     sodipodi:nodetypes="ccaaaacacaaaaaaccaaaaaasaaccasaaac" /></g></svg>
