<?xml version="1.0" encoding="UTF-8"?>
<!DOCTYPE svg PUBLIC "-//W3C//DTD SVG 1.1//EN" "http://www.w3.org/Graphics/SVG/1.1/DTD/svg11.dtd">
<!-- Creator: CorelDRAW X8 -->
<svg xmlns="http://www.w3.org/2000/svg" xml:space="preserve" width="1912px" height="1012px" version="1.1" style="shape-rendering:geometricPrecision; text-rendering:geometricPrecision; image-rendering:optimizeQuality; fill-rule:evenodd; clip-rule:evenodd"
viewBox="0 0 1912 1012"
 xmlns:xlink="http://www.w3.org/1999/xlink">
 <defs>
  <style type="text/css">
   <![CDATA[
    .fil0 {fill:#EF7F1A;fill-rule:nonzero}
   ]]>
  </style>
 </defs>
 <g id="Layer_x0020_1">
  <metadata id="CorelCorpID_0Corel-Layer"/>
  <path class="fil0" d="M240 1012c28,0 56,-7 77,-21 16,-11 23,-23 23,-34 0,-18 -15,-34 -38,-44 -70,-30 -99,-113 -99,-182 0,-97 63,-192 169,-192 107,0 167,96 167,192 0,66 -24,140 -85,174 -15,8 -29,22 -29,39 0,42 70,56 102,56l1283 0c33,0 102,-14 102,-56l0 -514c0,-116 -43,-221 -132,-299 -106,-94 -254,-131 -395,-131 -140,0 -289,38 -395,131 -89,79 -131,183 -131,299l0 459 -161 0c30,-48 44,-102 44,-158 0,-199 -185,-303 -370,-303 -185,0 -372,103 -372,302 0,117 61,217 170,268 20,9 45,14 70,14zm1469 -123l-395 0c160,-118 291,-316 290,-524 0,-87 -28,-172 -93,-232 134,46 198,168 198,297l0 459zm-647 0l0 -459c0,-92 29,-178 100,-240 28,-24 64,-43 102,-43 104,1 139,134 139,217 0,208 -158,436 -341,525z"/>
 </g>
</svg>
