<?xml version="1.0" encoding="UTF-8"?>
<!DOCTYPE svg PUBLIC "-//W3C//DTD SVG 1.1//EN" "http://www.w3.org/Graphics/SVG/1.1/DTD/svg11.dtd">
<!-- Creator: CorelDRAW X8 -->
<svg xmlns="http://www.w3.org/2000/svg" xml:space="preserve" width="1960px" height="1486px" version="1.1" style="shape-rendering:geometricPrecision; text-rendering:geometricPrecision; image-rendering:optimizeQuality; fill-rule:evenodd; clip-rule:evenodd"
viewBox="0 0 1960 1486"
 xmlns:xlink="http://www.w3.org/1999/xlink">
 <defs>
  <style type="text/css">
   <![CDATA[
    .fil0 {fill:#EF7F1A;fill-rule:nonzero}
   ]]>
  </style>
 </defs>
 <g id="Layer_x0020_1">
  <metadata id="CorelCorpID_0Corel-Layer"/>
  <path class="fil0" d="M1811 1486c46,0 101,-28 101,-79 0,-51 -55,-79 -101,-79l-1495 0c-54,0 -111,-1 -111,-71 0,-62 59,-66 111,-66l950 0c386,0 694,-228 694,-635 0,-145 -53,-281 -155,-386 -113,-117 -263,-170 -426,-170 -298,0 -566,204 -566,518 0,139 57,274 159,371l-274 0c30,-48 44,-102 44,-158 0,-199 -185,-303 -370,-303 -185,0 -372,103 -372,302 0,117 61,218 170,268 20,9 45,14 70,14 28,0 56,-7 77,-21 16,-11 23,-23 23,-34 0,-18 -15,-34 -38,-44 -70,-30 -99,-112 -99,-182 0,-97 62,-192 169,-192 107,0 167,97 167,192 0,66 -24,139 -85,174 -15,8 -29,22 -29,39 0,42 70,56 102,56l657 0c32,0 99,-14 99,-56 0,-19 -18,-33 -34,-40 -152,-73 -232,-225 -232,-386 0,-214 133,-407 361,-407 118,0 223,60 291,155 62,85 91,194 90,298 -1,296 -184,515 -494,515l-949 0c-138,0 -316,29 -316,204 0,170 175,203 316,203l1495 0z"/>
 </g>
</svg>
