<?xml version="1.0" encoding="UTF-8" standalone="no"?>
<svg
   xmlns:dc="http://purl.org/dc/elements/1.1/"
   xmlns:cc="http://creativecommons.org/ns#"
   xmlns:rdf="http://www.w3.org/1999/02/22-rdf-syntax-ns#"
   xmlns:svg="http://www.w3.org/2000/svg"
   xmlns="http://www.w3.org/2000/svg"
   xmlns:sodipodi="http://sodipodi.sourceforge.net/DTD/sodipodi-0.dtd"
   xmlns:inkscape="http://www.inkscape.org/namespaces/inkscape"
   xml:space="preserve"
   width="1000"
   height="1000"
   version="1.1"
   style="clip-rule:evenodd;fill-rule:evenodd;image-rendering:optimizeQuality;shape-rendering:geometricPrecision;text-rendering:geometricPrecision"
   viewBox="0 0 1000 1000"
   id="svg10"
   sodipodi:docname="ഹ്ര.svg"
   inkscape:version="1.0.1 (3bc2e813f5, 2020-09-07)"><metadata
   id="metadata14"><rdf:RDF><cc:Work
       rdf:about=""><dc:format>image/svg+xml</dc:format><dc:type
         rdf:resource="http://purl.org/dc/dcmitype/StillImage" /><dc:title /></cc:Work></rdf:RDF></metadata><sodipodi:namedview
   pagecolor="#ffffff"
   bordercolor="#666666"
   borderopacity="1"
   objecttolerance="10"
   gridtolerance="10"
   guidetolerance="10"
   inkscape:pageopacity="0"
   inkscape:pageshadow="2"
   inkscape:window-width="1920"
   inkscape:window-height="1015"
   id="namedview12"
   showgrid="false"
   inkscape:zoom="0.79682018"
   inkscape:cx="365.69573"
   inkscape:cy="597.6377"
   inkscape:window-x="1920"
   inkscape:window-y="0"
   inkscape:window-maximized="1"
   inkscape:current-layer="svg10"
   showguides="true"
   inkscape:guide-bbox="true"
   inkscape:document-rotation="0"><sodipodi:guide
     position="0,1000"
     orientation="0,1"
     id="guide16"
     inkscape:label=""
     inkscape:locked="true"
     inkscape:color="rgb(0,0,255)" /><sodipodi:guide
     position="1763.3122,2036.1693"
     orientation="1000,0"
     id="guide18" /><sodipodi:guide
     position="0,200"
     orientation="0,1"
     id="guide20"
     inkscape:label="base"
     inkscape:locked="true"
     inkscape:color="rgb(0,0,255)" /><inkscape:grid
     type="xygrid"
     id="grid24"
     originx="-473.37552"
     originy="-489.69235" /><sodipodi:guide
     position="0,0"
     orientation="0,1"
     id="guide34"
     inkscape:label="bottom"
     inkscape:locked="true"
     inkscape:color="rgb(0,0,255)" /><sodipodi:guide
     position="225.05109,1693.3186"
     orientation="0,1"
     id="guide44"
     inkscape:label=""
     inkscape:locked="false"
     inkscape:color="rgb(0,0,255)" /><sodipodi:guide
     position="0,900"
     orientation="0,1"
     id="guide46"
     inkscape:label=""
     inkscape:locked="true"
     inkscape:color="rgb(0,0,255)" /><sodipodi:guide
     position="1039.5485,479.76522"
     orientation="-1,0"
     id="guide841"
     inkscape:label=""
     inkscape:locked="false"
     inkscape:color="rgb(0,0,255)" /><sodipodi:guide
     position="0,1000"
     orientation="0,1000"
     id="guide860" /><sodipodi:guide
     position="1000,1000"
     orientation="1000,0"
     id="guide862" /><sodipodi:guide
     position="1000,0"
     orientation="0,-1000"
     id="guide864" /><sodipodi:guide
     position="0,0"
     orientation="-1000,0"
     id="guide866" /></sodipodi:namedview>
 <defs
   id="defs4"><inkscape:path-effect
   effect="spiro"
   id="path-effect858"
   is_visible="true"
   lpeversion="1" /><inkscape:path-effect
   effect="spiro"
   id="path-effect854"
   is_visible="true"
   lpeversion="1" />
  <style
   type="text/css"
   id="style2">
   <![CDATA[
    .fil0 {fill:#EF7F1A;fill-rule:nonzero}
   ]]>
  </style>
 <inkscape:path-effect
   effect="spiro"
   id="path-effect1214"
   is_visible="true"
   lpeversion="1" /><inkscape:path-effect
   effect="spiro"
   id="path-effect1195"
   is_visible="true"
   lpeversion="1" /><inkscape:path-effect
   effect="spiro"
   id="path-effect992"
   is_visible="true"
   lpeversion="1" /><inkscape:path-effect
   effect="spiro"
   id="path-effect287"
   is_visible="true"
   lpeversion="1" /><inkscape:path-effect
   effect="spiro"
   id="path-effect1032"
   is_visible="true"
   lpeversion="1" /><inkscape:path-effect
   effect="spiro"
   id="path-effect1218"
   is_visible="true"
   lpeversion="1" /><inkscape:path-effect
   effect="spiro"
   id="path-effect309"
   is_visible="true"
   lpeversion="1" /><inkscape:path-effect
   effect="spiro"
   id="path-effect860"
   is_visible="true"
   lpeversion="1" /></defs>
 
<path
   id="path856"
   style="clip-rule:evenodd;fill:#2d2d2d;fill-rule:evenodd;stroke:none;stroke-width:1px;stroke-linecap:butt;stroke-linejoin:miter;stroke-opacity:1;image-rendering:optimizeQuality;shape-rendering:geometricPrecision;text-rendering:geometricPrecision"
   d="m 373.37333,871.32829 -182.53582,31.348 c 4.99246,-26.43097 6.1422,-53.58461 3.40187,-80.343 -4.06549,-39.69811 -16.55623,-77.99579 -24.29026,-117.1449 -7.53919,-38.16286 -10.53896,-77.51504 -5.16875,-116.043 5.37021,-38.52793 19.39995,-76.27565 43.45017,-106.8506 24.7235,-31.43089 60.31071,-54.75417 99.61493,-62.1251 39.30421,-7.37093 82.00182,1.99898 112.95091,27.323 32.03106,26.20934 49.51388,67.15558 54.23883,108.2724 6.76555,58.87426 -11.34375,120.20609 -49.00349,165.963 24.83174,1.28852 49.63268,3.17057 74.3745,5.644 17.36466,1.73594 34.8815,3.76344 52.21382,1.7298 17.33232,-2.03364 34.76871,-8.58027 46.50483,-21.4957 8.25703,-9.08674 13.23215,-20.84119 15.42559,-32.9216 2.19344,-12.0804 1.72708,-24.51388 0.0806,-36.6809 -5.39098,-39.83787 -23.11052,-76.87856 -42.20552,-112.2551 -19.09502,-35.37657 -39.9473,-70.18303 -52.49945,-108.3742 -14.84217,-45.15877 -17.44492,-94.52957 -5.6649,-140.5821 11.7812,-46.05711 38.18042,-88.56268 75.47363,-118.04607 37.39171,-29.56126 84.82907,-45.41755 132.45845,-47.27496 47.68414,-1.85955 95.68497,10.01826 137.53411,32.95045 43.42295,23.79459 80.06542,59.20516 107.48629,100.43418 27.42086,41.22901 45.77573,88.16485 56.13503,136.58407 19.2646,90.04256 11.0411,184.16835 -10.107,273.78723 -22.45633,95.16291 -60.14838,188.17982 -121.61459,264.22041 -96.25815,119.0821 -247.05433,188.3905 -399.82957,198.6814 -71.53263,4.8184 -144.32376,-2.593 -212.01262,-26.2224 C 212.09606,1068.2771 149.65348,1028.0355 103.6177,973.07333 54.487749,914.41702 25.350502,840.80636 11.898446,765.48467 -1.5536102,690.16298 0.01161515,612.88019 7.1587147,536.70123 17.058401,431.18321 37.544454,326.90465 62.124975,223.81316 72.004958,182.3762 82.550966,141.09804 93.757551,100 L 269.99195,130.27632 C 233.30827,171.02046 200.75978,215.48564 173.0081,262.768 89.67009,404.75646 51.085377,578.4449 94.761931,737.18464 c 23.787449,86.454 72.738269,167.62019 145.238299,220.38271 87.02912,63.33615 202.02672,80.99315 308.02798,62.30425 142.11868,-25.05672 271.72816,-114.31909 345.43356,-238.3879 53.76928,-90.5102 77.97281,-200.08447 57.85666,-303.42165 -12.98095,-66.68347 -45.41503,-131.29223 -98.73081,-173.39469 -17.65609,-13.94267 -37.6136,-25.37094 -59.38195,-31.05199 -21.78198,-5.6846 -45.38847,-5.36092 -66.38411,2.76018 -23.44709,9.06931 -42.61442,27.4577 -55.35187,49.13201 -12.73834,21.67583 -19.40028,46.49666 -22.43321,71.4548 -10.336,85.05554 19.89925,169.09177 46.43631,250.55993 6.42714,19.73119 12.69315,39.65971 15.2714,60.2505 2.57825,20.59078 1.29558,42.07462 -6.93052,61.1261 -6.81909,15.79287 -18.24569,29.42021 -32.01201,39.7354 -13.7663,10.31518 -29.81764,17.38814 -46.4923,21.6154 -33.34932,8.45453 -68.52544,5.62083 -102.46151,-0.036 -41.38665,-6.89877 -82.88169,-17.95262 -124.6603,-14.0802 -14.22245,1.31827 -28.28317,4.37255 -41.77083,9.0735 l -8.86829,-119.0787 c 6.3507,-1.57035 12.45024,-4.1519 17.99872,-7.6177 13.32943,-8.32609 23.19022,-21.69162 28.37703,-36.5272 5.1868,-14.83555 5.85654,-31.05326 3.13475,-46.5319 -3.97643,-22.61368 -15.37485,-44.06832 -32.76151,-59.0648 -17.38665,-14.99647 -40.79179,-23.17937 -63.65086,-21.0224 -15.94834,1.50487 -31.32687,7.92439 -43.94311,17.7958 -12.61626,9.87143 -22.4787,23.12358 -28.80447,37.8409 -10.1479,23.60977 -11.10433,50.49647 -5.97336,75.6773 5.13097,25.18084 16.06351,48.85056 28.95175,71.0833 30.53614,52.67607 72.65201,98.59828 122.49596,133.5669 z"
   sodipodi:nodetypes="ccssaaaaacaaaaaaaaaaaaaaaaaaccsaaaaaaaaaaaaaaaasccsaaaaaaassc"
   inkscape:original-d="m 373.37333,871.32829 -182.53582,31.348 c 4.99246,-26.431 6.1422,-53.5846 3.40187,-80.343 -4.06549,-39.6981 -16.55623,-77.9958 -24.29026,-117.1449 -7.53919,-38.1629 -11.75197,-77.8874 -5.16875,-116.043 6.53727,-37.8892 18.68961,-77.4356 43.45017,-106.8506 25.20112,-29.9384 60.98247,-55.8849 99.61493,-62.1251 38.24057,-6.1769 82.63357,3.2117 112.95091,27.323 31.59294,25.1257 50.66514,68.0648 54.23883,108.2724 5.10673,57.4556 -11.34373,120.2061 -49.00349,165.963 24.83175,1.2885 49.54854,4.2914 74.3745,5.644 17.38837,0.9473 35.14654,5.1883 52.21382,1.7298 16.73732,-3.3915 34.39785,-9.4515 46.50483,-21.4957 8.59153,-8.5469 12.7787,-21.0954 15.42559,-32.9216 2.67053,-11.9318 2.25414,-24.6486 0.0806,-36.6809 -7.10631,-39.339 -26.44074,-75.5192 -42.20552,-112.2551 -15.82967,-36.8872 -42.73618,-69.4394 -52.49945,-108.3742 -11.40711,-45.49033 -17.91603,-95.31183 -5.6649,-140.5821 12.2002,-45.08207 38.93524,-88.95683 75.47363,-118.04607 36.67681,-29.19944 85.64571,-44.75249 132.45845,-47.27496 47.07377,-2.53653 98.64922,6.29827 137.53411,32.95045 79.18777,54.27627 136.75328,144.85139 163.62132,237.01825 25.5586,87.67516 11.0802,184.95437 -10.107,273.78723 C 990.74811,749.5369 959.15527,849.87585 891.62711,919.4476 787.97258,1026.239 640.42234,1110.4261 491.79754,1118.129 353.85041,1125.2785 194.21776,1077.3429 103.6177,973.07333 5.9101317,860.62382 10.409686,685.63441 7.1587147,536.70123 4.8477887,430.8333 39.841594,327.33519 62.124975,223.81316 71.088711,182.17026 93.757551,100 93.757551,100 l 176.234399,30.27632 c 4.75054,-5.07656 -56.917,45.85165 -96.98385,132.49168 -59.96006,129.65687 -111.597235,317.64966 -78.246169,474.41664 18.307199,86.05316 72.321409,171.15441 145.238299,220.38271 86.82111,58.61545 205.40773,83.34605 308.02798,62.30425 137.05063,-28.10152 269.04755,-121.17975 345.43356,-238.3879 56.21734,-86.26096 74.72772,-201.85044 57.85666,-303.42165 -10.89822,-65.61212 -50.86612,-127.21361 -98.73081,-173.39469 -16.07477,-15.50935 -37.58404,-26.17458 -59.38195,-31.05199 -21.61273,-4.83597 -45.84775,-5.53166 -66.38411,2.76018 -22.87634,9.23661 -41.9448,28.42231 -55.35187,49.13201 -13.56675,20.9564 -20.92435,46.536 -22.43321,71.4548 -5.13391,84.78693 28.25236,167.58693 46.43631,250.55993 4.43532,20.2383 13.87046,39.5793 15.2714,60.2505 1.38656,20.459 0.97039,42.2034 -6.93052,61.1261 -6.55344,15.6955 -18.61618,29.2545 -32.01201,39.7354 -13.46023,10.5312 -29.80418,17.9288 -46.4923,21.6154 -33.34975,7.3674 -68.362,1.8895 -102.46151,-0.036 -41.75112,-2.3578 -82.88169,-17.9526 -124.6603,-14.0802 -14.22245,1.3183 -28.28316,4.3726 -41.77083,9.0735 l -8.86829,-119.0787 c 6.3507,-1.5704 12.45025,-4.1519 17.99872,-7.6177 13.32944,-8.326 22.88975,-22.1184 28.37703,-36.5272 5.5327,-14.5279 6.52091,-31.3594 3.13475,-46.5319 -4.90398,-21.9736 -15.42178,-44.7045 -32.76151,-59.0648 -17.20888,-14.2519 -41.31874,-21.7573 -63.65086,-21.0224 -15.79471,0.5198 -31.3861,8.2008 -43.94311,17.7958 -12.59587,9.6248 -23.15049,23.0313 -28.80447,37.8409 -9.02523,23.64 -9.85494,50.6726 -5.97336,75.6773 3.92455,25.2816 16.06351,48.8506 28.95175,71.0833 30.53615,52.6761 72.65201,98.5983 122.49596,133.5669 z"
   inkscape:path-effect="#path-effect860" /></svg>
