<?xml version="1.0" encoding="UTF-8"?>
<!DOCTYPE svg PUBLIC "-//W3C//DTD SVG 1.1//EN" "http://www.w3.org/Graphics/SVG/1.1/DTD/svg11.dtd">
<!-- Creator: CorelDRAW X8 -->
<svg xmlns="http://www.w3.org/2000/svg" xml:space="preserve" width="2329px" height="1486px" version="1.1" style="shape-rendering:geometricPrecision; text-rendering:geometricPrecision; image-rendering:optimizeQuality; fill-rule:evenodd; clip-rule:evenodd"
viewBox="0 0 2329 1486"
 xmlns:xlink="http://www.w3.org/1999/xlink">
 <defs>
  <style type="text/css">
   <![CDATA[
    .fil0 {fill:#EF7F1A;fill-rule:nonzero}
   ]]>
  </style>
 </defs>
 <g id="Layer_x0020_1">
  <metadata id="CorelCorpID_0Corel-Layer"/>
  <path class="fil0" d="M1743 1369c192,-78 367,-210 476,-387 255,-415 58,-982 -483,-982 -302,0 -565,199 -565,515 0,138 56,277 159,374l-275 0c30,-48 44,-102 44,-158 0,-199 -184,-303 -371,-303 -185,0 -371,104 -371,303 0,119 63,216 170,267 20,9 45,14 69,14 29,0 57,-7 78,-21 16,-11 23,-23 23,-35 0,-17 -15,-33 -38,-43 -70,-30 -100,-113 -100,-182 1,-97 63,-192 169,-192 107,0 167,96 167,192 0,66 -23,139 -85,174 -14,8 -28,22 -28,39 0,42 69,56 101,56l659 0c32,0 99,-14 99,-56 0,-18 -19,-33 -34,-40 -155,-74 -233,-226 -233,-389 0,-213 135,-404 362,-404 408,0 463,527 300,818 -90,161 -243,284 -413,353 -158,64 -320,92 -490,92 -212,0 -431,-40 -614,-155 -215,-136 -318,-351 -318,-603 0,-205 80,-410 263,-522 18,-11 26,-25 26,-38 0,-15 -10,-30 -31,-41 -19,-11 -45,-15 -70,-15 -27,0 -54,6 -73,18 -213,129 -317,357 -317,598 0,307 145,547 410,699 215,123 478,171 724,171 210,0 415,-38 610,-117z"/>
 </g>
</svg>
