<?xml version="1.0" encoding="UTF-8"?>
<!DOCTYPE svg PUBLIC "-//W3C//DTD SVG 1.1//EN" "http://www.w3.org/Graphics/SVG/1.1/DTD/svg11.dtd">
<!-- Creator: CorelDRAW X8 -->
<svg xmlns="http://www.w3.org/2000/svg" xml:space="preserve" width="2004px" height="1486px" version="1.1" style="shape-rendering:geometricPrecision; text-rendering:geometricPrecision; image-rendering:optimizeQuality; fill-rule:evenodd; clip-rule:evenodd"
viewBox="0 0 2004 1486"
 xmlns:xlink="http://www.w3.org/1999/xlink">
 <defs>
  <style type="text/css">
   <![CDATA[
    .fil0 {fill:#2B2A29;fill-rule:nonzero}
   ]]>
  </style>
 </defs>
 <g id="Layer_x0020_1">
  <metadata id="CorelCorpID_0Corel-Layer"/>
  <path class="fil0" d="M1855 1486c45,0 102,-29 102,-80 0,-51 -57,-78 -102,-78l-1540 0c-53,0 -110,-2 -110,-71 0,-64 59,-68 110,-68l1185 0c133,0 262,-30 357,-100 98,-74 147,-174 147,-297 0,-104 -47,-209 -141,-264 67,-45 102,-113 102,-194 0,-154 -123,-248 -264,-293 -84,-29 -174,-41 -262,-41 -317,0 -626,164 -626,516 0,139 57,276 159,372l-274 0c29,-47 43,-100 43,-157 0,-199 -184,-303 -368,-303 -187,0 -373,104 -373,303 0,116 61,217 170,268 20,8 45,14 69,14 29,0 58,-8 78,-22 17,-11 23,-23 23,-33 0,-18 -15,-35 -39,-45 -70,-29 -98,-113 -98,-182 0,-96 63,-191 170,-191 106,0 165,95 165,191 0,67 -24,139 -84,174 -16,8 -28,22 -28,39 0,43 69,55 100,55l659 0c31,0 98,-14 98,-55 0,-19 -20,-33 -34,-41 -154,-74 -232,-226 -232,-387 0,-264 164,-403 422,-403 61,0 131,8 188,34 78,33 138,90 138,187 0,41 -14,85 -43,112 -34,32 -59,35 -101,35 -34,0 -100,10 -100,55 0,48 60,56 100,56 38,0 75,6 100,19 59,29 89,92 89,181 0,74 -33,139 -80,190 -55,60 -137,97 -230,97l-1185 0c-137,0 -315,28 -315,204 0,170 174,203 315,203l1540 0z"/>
 </g>
</svg>
