<?xml version="1.0" encoding="UTF-8" standalone="no"?>
<svg
   xmlns:dc="http://purl.org/dc/elements/1.1/"
   xmlns:cc="http://creativecommons.org/ns#"
   xmlns:rdf="http://www.w3.org/1999/02/22-rdf-syntax-ns#"
   xmlns:svg="http://www.w3.org/2000/svg"
   xmlns="http://www.w3.org/2000/svg"
   xmlns:sodipodi="http://sodipodi.sourceforge.net/DTD/sodipodi-0.dtd"
   xmlns:inkscape="http://www.inkscape.org/namespaces/inkscape"
   xml:space="preserve"
   width="1200"
   height="1000"
   version="1.1"
   style="clip-rule:evenodd;fill-rule:evenodd;image-rendering:optimizeQuality;shape-rendering:geometricPrecision;text-rendering:geometricPrecision"
   viewBox="0 0 1200 1000"
   id="svg10"
   sodipodi:docname="ഹൃ.svg"
   inkscape:version="1.0.1 (3bc2e813f5, 2020-09-07)"><metadata
   id="metadata14"><rdf:RDF><cc:Work
       rdf:about=""><dc:format>image/svg+xml</dc:format><dc:type
         rdf:resource="http://purl.org/dc/dcmitype/StillImage" /><dc:title /></cc:Work></rdf:RDF></metadata><sodipodi:namedview
   pagecolor="#ffffff"
   bordercolor="#666666"
   borderopacity="1"
   objecttolerance="10"
   gridtolerance="10"
   guidetolerance="10"
   inkscape:pageopacity="0"
   inkscape:pageshadow="2"
   inkscape:window-width="1920"
   inkscape:window-height="1015"
   id="namedview12"
   showgrid="false"
   inkscape:zoom="0.678"
   inkscape:cx="412.17104"
   inkscape:cy="577.14983"
   inkscape:window-x="1920"
   inkscape:window-y="0"
   inkscape:window-maximized="1"
   inkscape:current-layer="g863"
   showguides="true"
   inkscape:guide-bbox="true"
   inkscape:document-rotation="0"
   inkscape:snap-to-guides="true"><sodipodi:guide
     position="0,1000"
     orientation="0,1"
     id="guide16"
     inkscape:label=""
     inkscape:locked="true"
     inkscape:color="rgb(0,0,255)" /><sodipodi:guide
     position="1763.3122,2036.1693"
     orientation="1000,0"
     id="guide18" /><sodipodi:guide
     position="0,200"
     orientation="0,1"
     id="guide20"
     inkscape:label="base"
     inkscape:locked="true"
     inkscape:color="rgb(0,0,255)" /><inkscape:grid
     type="xygrid"
     id="grid24"
     originx="-473.37552"
     originy="-489.69235" /><sodipodi:guide
     position="0,0"
     orientation="0,1"
     id="guide34"
     inkscape:label="bottom"
     inkscape:locked="true"
     inkscape:color="rgb(0,0,255)" /><sodipodi:guide
     position="225.05109,1693.3186"
     orientation="0,1"
     id="guide44"
     inkscape:label=""
     inkscape:locked="false"
     inkscape:color="rgb(0,0,255)" /><sodipodi:guide
     position="0,900"
     orientation="0,1"
     id="guide46"
     inkscape:label=""
     inkscape:locked="true"
     inkscape:color="rgb(0,0,255)" /><sodipodi:guide
     position="0,1000"
     orientation="0,1000"
     id="guide860" /><sodipodi:guide
     position="864.44002,624.21757"
     orientation="1000,0"
     id="guide862" /><sodipodi:guide
     position="1000,0"
     orientation="0,-1000"
     id="guide864" /><sodipodi:guide
     position="0,0"
     orientation="-1000,0"
     id="guide866" /></sodipodi:namedview>
 <defs
   id="defs4"><inkscape:path-effect
   effect="spiro"
   id="path-effect861"
   is_visible="true"
   lpeversion="1" /><inkscape:path-effect
   effect="spiro"
   id="path-effect860"
   is_visible="true"
   lpeversion="1" /><inkscape:path-effect
   effect="spiro"
   id="path-effect859"
   is_visible="true"
   lpeversion="1" /><inkscape:path-effect
   effect="spiro"
   id="path-effect857"
   is_visible="true"
   lpeversion="1" /><inkscape:path-effect
   effect="spiro"
   id="path-effect856"
   is_visible="true"
   lpeversion="1" /><inkscape:path-effect
   effect="spiro"
   id="path-effect1521"
   is_visible="true"
   lpeversion="1" /><inkscape:path-effect
   effect="spiro"
   id="path-effect858"
   is_visible="true"
   lpeversion="1" /><inkscape:path-effect
   effect="spiro"
   id="path-effect854"
   is_visible="true"
   lpeversion="1" />
  <style
   type="text/css"
   id="style2">
   <![CDATA[
    .fil0 {fill:#EF7F1A;fill-rule:nonzero}
   ]]>
  </style>
 <inkscape:path-effect
   effect="spiro"
   id="path-effect1214"
   is_visible="true"
   lpeversion="1" /><inkscape:path-effect
   effect="spiro"
   id="path-effect1195"
   is_visible="true"
   lpeversion="1" /><inkscape:path-effect
   effect="spiro"
   id="path-effect992"
   is_visible="true"
   lpeversion="1" /><inkscape:path-effect
   effect="spiro"
   id="path-effect287"
   is_visible="true"
   lpeversion="1" /><inkscape:path-effect
   effect="spiro"
   id="path-effect1032"
   is_visible="true"
   lpeversion="1" /><inkscape:path-effect
   effect="spiro"
   id="path-effect1218"
   is_visible="true"
   lpeversion="1" /><inkscape:path-effect
   effect="spiro"
   id="path-effect309"
   is_visible="true"
   lpeversion="1" /><inkscape:path-effect
   effect="spiro"
   id="path-effect1176"
   is_visible="true"
   lpeversion="1" /><inkscape:path-effect
   effect="spiro"
   id="path-effect1112"
   is_visible="true"
   lpeversion="1" /></defs>
 
<g
   id="g863"
   transform="translate(223.71435,20.072734)"><path
     style="fill:#2d2d2d;fill-rule:nonzero;stroke:none;stroke-width:1px;stroke-linecap:butt;stroke-linejoin:miter;stroke-opacity:1"
     d="m -64.859641,725.55556 -95.246169,83.35107 c -26.91428,-46.09184 -46.13392,-96.66454 -56.6251,-148.99782 -7.64811,-38.15114 -10.66577,-77.52175 -5.27543,-116.05677 5.39034,-38.53501 19.47548,-76.2739 43.55685,-106.8368 24.74592,-31.40631 60.32557,-54.71866 99.623386,-62.09423 39.297813,-7.37556 81.9929327,1.97721 112.942442,27.29213 32.036375,26.20391 49.516654,67.15454 54.23883,108.27236 6.761407,58.87419 -11.347272,120.20394 -49.003491,165.96305 24.831717,1.28889 49.632645,3.17092 74.374503,5.64395 17.36457,1.73564 34.88132,3.76265 52.2135,1.72887 17.33218,-2.03378 34.76832,-8.58008 46.50515,-21.49471 8.25772,-9.08639 13.23397,-20.84064 15.42782,-32.92118 2.19385,-12.08054 1.72713,-24.51441 0.0784,-36.68134 -5.39826,-39.83677 -23.14337,-76.86703 -42.24782,-112.23834 -19.10445,-35.37131 -39.95291,-70.18429 -52.45718,-108.391 -14.77541,-45.14616 -17.26168,-94.48819 -5.43251,-140.49427 11.82917,-46.00608 38.17142,-88.43 75.24124,-118.13382 37.29419,-29.883614 84.7159,-46.346237 132.47174,-48.153516 47.75585,-1.80728 95.67791,10.740959 137.52082,33.829008 43.39767,23.945938 80.3382,59.046938 107.99318,100.180468 27.65498,41.13354 46.12153,88.1922 55.62804,136.83777 21.36819,109.34273 -2.37483,222.60607 -37.27915,328.40834 -45.30053,137.31534 -111.52046,271.04587 -215.44004,371.58622 -46.10214,44.603 -100.40907,82.6985 -162.30796,99.5319 -45.05027,12.2514 -93.90437,12.6533 -137.870308,-3.0508 C 39.805164,1116.9319 1.2687699,1084.3802 -17.796034,1041.7638 -38.140852,996.28614 -34.736321,941.14303 -9.7626657,898.03334 7.006113,869.08696 32.719336,845.75204 62.163984,829.87446 c 29.444649,-15.87758 62.515546,-24.48142 95.855376,-27.22744 66.67965,-5.49203 133.08537,11.95958 196.46585,33.38978 44.83295,15.15891 88.96531,32.38967 132.20909,51.61887 l -84.79349,92.2716 C 352.48619,953.12063 302.6376,927.11396 252.38116,901.9209 c -18.39728,-9.22238 -36.92747,-18.36807 -56.48425,-24.77469 -19.55678,-6.40662 -40.30335,-10.02316 -60.77148,-7.8859 -20.46814,2.13725 -40.676535,10.37542 -55.056139,25.09749 -7.189802,7.36103 -12.844399,16.26535 -16.128805,26.0168 -3.284406,9.75145 -4.163828,20.34651 -2.200303,30.44714 2.956665,15.20946 12.240502,28.72523 24.087762,38.71082 11.847261,9.9856 26.146965,16.68814 40.834135,21.62344 41.93876,14.0925 88.02971,14.2968 130.8439,3.1432 42.8142,-11.1536 82.38178,-33.37195 116.02488,-62.10519 66.32451,-56.64515 108.48605,-136.42025 140.98313,-217.36192 38.41525,-95.68227 65.79724,-199.80884 48.58099,-301.46723 -11.35048,-67.02227 -43.57802,-132.18164 -97.1874,-173.97701 -17.71795,-13.81341 -37.74237,-25.02034 -59.48096,-30.69217 -21.73859,-5.67183 -45.28324,-5.57822 -66.2851,2.40036 -23.5183,8.93457 -42.73267,27.34629 -55.45736,49.04927 -12.72469,21.70299 -19.33334,46.55816 -22.32772,71.53757 -10.19709,85.06528 19.92623,169.09028 46.43631,250.5599 6.42098,19.73267 12.68552,39.66085 15.26471,60.25102 2.57918,20.59017 1.29993,42.0736 -6.92383,61.12556 -6.81742,15.79389 -18.24347,29.4223 -32.00969,39.73808 -13.76621,10.31578 -29.81791,17.38889 -46.49293,21.61591 -33.35004,8.45404 -68.52669,5.61834 -102.4632,-0.0394 -41.386512,-6.89971 -82.881697,-17.95275 -124.66031,-14.08016 -14.2224389,1.31832 -28.283138,4.37258 -41.770826,9.07343 l -8.868289,-119.0787 c 6.352172,-1.56548 12.452703,-4.14742 17.998723,-7.61765 13.3156125,-8.33178 23.140733,-21.71349 28.3100881,-36.54594 5.1693549,-14.83246 5.8457879,-31.02991 3.2016879,-46.51322 -3.8786899,-22.71282 -15.1088042,-44.36107 -32.502597,-59.47306 -17.393793,-15.11199 -41.022145,-23.27359 -63.909772,-20.61411 -15.797015,1.83557 -30.842545,8.66221 -43.269075,18.58674 -12.42654,9.92453 -22.28901,22.86452 -29.47849,37.04995 -11.98156,23.64059 -16.58427,51.01783 -12.61111,77.22182 3.97317,26.204 16.56318,51.08792 35.5895,69.53879 19.08278,18.50563 44.500233,30.35526 70.943019,33.07367 z"
     id="path856"
     sodipodi:nodetypes="ccaaaacacaaaaaassaaaccaaassaaaaasaaccasaaac"
     inkscape:path-effect="#path-effect861"
     inkscape:original-d="m -64.859641,725.55556 -95.246169,83.35107 c 0,0 -51.50337,-96.1136 -56.6251,-148.99782 -7.26695,-75.03461 -15.2319,-169.79625 38.28142,-222.89357 50.96703,-50.57082 148.619328,-67.45009 212.565828,-34.8021 35.951469,18.35508 50.665138,68.06482 54.23883,108.27236 5.106724,57.45565 -49.003491,165.96305 -49.003491,165.96305 0,0 49.557867,7.15803 74.374503,5.64395 33.49705,-2.04368 59.37294,16.46194 98.71865,-19.76584 16.88659,-16.72835 17.71671,-45.93591 15.50622,-69.60252 -7.44269,-79.68535 -89.03437,-140.79831 -94.705,-220.62934 -6.32692,-89.07018 0.38031,-202.47453 69.80873,-258.62809 C 273.12814,56.791521 392.16346,59.391086 473.04734,99.142202 559.20756,141.48642 613.32757,243.03786 636.66856,336.16044 663.45448,443.02713 633.96511,559.9624 599.38941,664.56878 554.45656,800.50999 457.08375,983.05799 383.94937,1036.155 c -54.23745,39.3775 -105.76169,89.7576 -162.30796,99.5319 -91.23555,15.7706 -193.131808,-21.7706 -239.437444,-93.9231 C -43.713279,1001.38 -41.727317,933.82179 -9.7626657,898.03334 72.280472,806.17572 231.96103,823.51787 354.48521,836.0368 c 47.06452,4.80883 132.20909,51.61887 132.20909,51.61887 l -84.79349,92.2716 c 0,0 -93.67525,-71.56223 -149.51965,-78.00637 -65.17179,-7.52047 -174.483505,-14.68261 -190.640977,48.90084 -7.276043,28.63294 36.350507,52.82016 64.921897,60.33426 81.82178,21.5187 159.23968,-2.1691 246.86878,-58.96199 70.0693,-45.41229 103.77067,-157.44548 140.98313,-217.36192 53.7018,-86.46621 66.28582,-201.23336 48.58099,-301.46723 C 551.54042,367.9501 519.1365,299.12802 465.90758,259.38785 431.47557,233.68126 379.912,214.8264 340.14152,231.09604 c -44.27145,18.11094 -68.52516,73.65901 -77.78508,120.58684 -16.44394,83.33531 35.7677,166.29035 46.43631,250.5599 5.09356,40.23313 39.37891,95.21616 8.34088,121.37658 -56.18424,47.3549 -117.64045,54.50619 -180.96582,61.31464 -41.57803,4.47028 -82.896419,-16.19993 -124.66031,-14.08016 -14.2299924,0.72226 -41.770826,9.07343 -41.770826,9.07343 l -8.868289,-119.0787 c 0,0 13.479858,-2.92485 17.998723,-7.61765 20.53979423,-21.33038 35.921066,-59.99896 31.511776,-83.05916 -7.8463099,-41.03551 -54.641921,-79.24609 -96.412369,-80.08717 -30.521855,-0.61458 -61.387445,27.30105 -72.747565,55.63669 -18.42602,45.96015 -6.78793,107.19017 22.97839,146.76061 15.68458,20.8506 70.943019,33.07367 70.943019,33.07367 z" /></g></svg>
