<?xml version="1.0" encoding="UTF-8" standalone="no"?>
<svg
   xmlns:dc="http://purl.org/dc/elements/1.1/"
   xmlns:cc="http://creativecommons.org/ns#"
   xmlns:rdf="http://www.w3.org/1999/02/22-rdf-syntax-ns#"
   xmlns:svg="http://www.w3.org/2000/svg"
   xmlns="http://www.w3.org/2000/svg"
   xmlns:sodipodi="http://sodipodi.sourceforge.net/DTD/sodipodi-0.dtd"
   xmlns:inkscape="http://www.inkscape.org/namespaces/inkscape"
   xml:space="preserve"
   width="1000"
   height="1000"
   version="1.1"
   style="clip-rule:evenodd;fill-rule:evenodd;image-rendering:optimizeQuality;shape-rendering:geometricPrecision;text-rendering:geometricPrecision"
   viewBox="0 0 1000 1000"
   id="svg10"
   sodipodi:docname="ഹ്നു.svg"
   inkscape:version="1.0.1 (3bc2e813f5, 2020-09-07)"><metadata
   id="metadata14"><rdf:RDF><cc:Work
       rdf:about=""><dc:format>image/svg+xml</dc:format><dc:type
         rdf:resource="http://purl.org/dc/dcmitype/StillImage" /><dc:title /></cc:Work></rdf:RDF></metadata><sodipodi:namedview
   pagecolor="#ffffff"
   bordercolor="#666666"
   borderopacity="1"
   objecttolerance="10"
   gridtolerance="10"
   guidetolerance="10"
   inkscape:pageopacity="0"
   inkscape:pageshadow="2"
   inkscape:window-width="1920"
   inkscape:window-height="1015"
   id="namedview12"
   showgrid="false"
   inkscape:zoom="0.56343695"
   inkscape:cx="642.36262"
   inkscape:cy="507.19701"
   inkscape:window-x="1920"
   inkscape:window-y="0"
   inkscape:window-maximized="1"
   inkscape:current-layer="svg10"
   showguides="true"
   inkscape:guide-bbox="true"
   inkscape:document-rotation="0"><sodipodi:guide
     position="0,1000"
     orientation="0,1"
     id="guide16"
     inkscape:label=""
     inkscape:locked="true"
     inkscape:color="rgb(0,0,255)" /><sodipodi:guide
     position="1763.3122,2036.1693"
     orientation="1000,0"
     id="guide18" /><sodipodi:guide
     position="0,200"
     orientation="0,1"
     id="guide20"
     inkscape:label="base"
     inkscape:locked="true"
     inkscape:color="rgb(0,0,255)" /><inkscape:grid
     type="xygrid"
     id="grid24"
     originx="-473.37552"
     originy="-489.69235" /><sodipodi:guide
     position="0,0"
     orientation="0,1"
     id="guide34"
     inkscape:label="bottom"
     inkscape:locked="true"
     inkscape:color="rgb(0,0,255)" /><sodipodi:guide
     position="225.05109,1693.3186"
     orientation="0,1"
     id="guide44"
     inkscape:label=""
     inkscape:locked="false"
     inkscape:color="rgb(0,0,255)" /><sodipodi:guide
     position="0,900"
     orientation="0,1"
     id="guide46"
     inkscape:label=""
     inkscape:locked="true"
     inkscape:color="rgb(0,0,255)" /><sodipodi:guide
     position="1102.3895,1000"
     orientation="-1,0"
     id="guide841"
     inkscape:label="width"
     inkscape:locked="false"
     inkscape:color="rgb(0,0,255)" /><sodipodi:guide
     position="0,1000"
     orientation="0,1000"
     id="guide860" /><sodipodi:guide
     position="1000,1000"
     orientation="1000,0"
     id="guide862" /><sodipodi:guide
     position="1000,0"
     orientation="0,-1000"
     id="guide864" /><sodipodi:guide
     position="0,0"
     orientation="-1000,0"
     id="guide866" /></sodipodi:namedview>
 <defs
   id="defs4"><inkscape:path-effect
   effect="spiro"
   id="path-effect858"
   is_visible="true"
   lpeversion="1" /><inkscape:path-effect
   effect="spiro"
   id="path-effect854"
   is_visible="true"
   lpeversion="1" />
  <style
   type="text/css"
   id="style2">
   <![CDATA[
    .fil0 {fill:#EF7F1A;fill-rule:nonzero}
   ]]>
  </style>
 <inkscape:path-effect
   effect="spiro"
   id="path-effect1214"
   is_visible="true"
   lpeversion="1" /><inkscape:path-effect
   effect="spiro"
   id="path-effect1195"
   is_visible="true"
   lpeversion="1" /><inkscape:path-effect
   effect="spiro"
   id="path-effect992"
   is_visible="true"
   lpeversion="1" /><inkscape:path-effect
   effect="spiro"
   id="path-effect287"
   is_visible="true"
   lpeversion="1" /><inkscape:path-effect
   effect="spiro"
   id="path-effect1032"
   is_visible="true"
   lpeversion="1" /><inkscape:path-effect
   effect="spiro"
   id="path-effect1218"
   is_visible="true"
   lpeversion="1" /><inkscape:path-effect
   effect="spiro"
   id="path-effect309"
   is_visible="true"
   lpeversion="1" /><inkscape:path-effect
   effect="spiro"
   id="path-effect860"
   is_visible="true"
   lpeversion="1" /><inkscape:path-effect
   effect="spiro"
   id="path-effect862"
   is_visible="true"
   lpeversion="1" /><inkscape:path-effect
   effect="spiro"
   id="path-effect1521"
   is_visible="true"
   lpeversion="1" /><style
   type="text/css"
   id="style2-3">
   <![CDATA[
    .fil0 {fill:#EF7F1A;fill-rule:nonzero}
   ]]>
  </style><inkscape:path-effect
   effect="spiro"
   id="path-effect1176"
   is_visible="true"
   lpeversion="1" /><inkscape:path-effect
   effect="spiro"
   id="path-effect1026"
   is_visible="true"
   lpeversion="1" /><inkscape:path-effect
   effect="spiro"
   id="path-effect1030"
   is_visible="true"
   lpeversion="1" /></defs>
 
<path
   id="path856"
   style="clip-rule:evenodd;fill:#2d2d2d;fill-rule:nonzero;stroke:none;stroke-width:1px;stroke-linecap:butt;stroke-linejoin:miter;stroke-opacity:1;image-rendering:optimizeQuality;shape-rendering:geometricPrecision;text-rendering:geometricPrecision"
   d="m 237.78191,804.60455 c -14.07578,2.25639 -28.02742,5.28698 -41.77083,9.0735 l -8.86829,-119.0787 c 6.3507,-1.57035 12.45024,-4.1519 17.99872,-7.6177 13.32943,-8.32609 23.19022,-21.69162 28.37703,-36.5272 5.1868,-14.83555 5.85654,-31.05326 3.13475,-46.5319 -3.97643,-22.61368 -15.37485,-44.06832 -32.76151,-59.0648 -17.38665,-14.99647 -40.79179,-23.17937 -63.65086,-21.0224 -15.94834,1.50487 -31.32687,7.92439 -43.94311,17.7958 -12.616258,9.87143 -22.478699,23.12358 -28.80447,37.8409 -10.147903,23.60977 -11.104332,50.49647 -5.97336,75.6773 5.130974,25.18084 16.063506,48.85056 28.95175,71.0833 30.53614,52.67607 72.65201,98.59828 122.49596,133.5669 v -2e-4 l -182.535819,31.348 c 4.992464,-26.43097 6.1422,-53.58461 3.40187,-80.343 C 29.768252,771.10624 17.277512,732.80856 9.543481,693.65945 2.0042878,655.49659 -0.9954826,616.14441 4.374731,577.61645 9.7449397,539.08852 23.774684,501.3408 47.8249,470.76585 c 24.723497,-31.43089 60.31071,-54.75417 99.61493,-62.1251 39.30421,-7.37093 82.00182,1.99898 112.95091,27.323 32.03106,26.20934 49.51388,67.15558 54.23883,108.2724 6.76555,58.87426 -11.34375,120.20609 -49.00349,165.963 24.81674,1.52624 49.61163,3.40783 74.3745,5.644 17.36921,1.5685 34.84588,3.31231 52.21382,1.7298 23.33036,-2.12579 46.07715,-10.36187 65.36029,-23.66544 -31.61634,-58.68989 -61.02817,-118.5673 -88.15265,-179.46359 -27.21174,-61.09219 -52.49405,-124.90567 -54.2881,-191.7601 -0.89702,-33.42722 4.27133,-67.2712 17.50654,-97.9797 13.23522,-30.70851 34.78485,-58.16645 62.90754,-76.25782 36.28772,-23.34395 82.22902,-29.91245 124.42415,-20.89527 42.19513,9.01718 80.53797,32.91105 109.83646,64.58655 36.61703,39.58779 59.559,91.59423 64.10948,145.32777 9.33612,-36.31767 23.29869,-71.44337 41.44351,-104.25955 26.98082,-48.79672 64.63843,-93.53661 114.58222,-118.32982 24.97189,-12.39661 52.73158,-19.532421 80.60892,-19.178053 27.87733,0.354368 55.82661,8.372173 78.83314,24.119263 30.2855,20.72929 50.5969,53.68029 62.1828,88.50391 11.5858,34.82363 15.182,71.74543 17.7444,108.35624 8.1862,116.96165 5.9909,237.79674 -37.4698,346.69213 -15.2374,38.17889 -36.1207,75.2677 -67.84434,101.40997 -15.86181,13.07113 -34.31104,23.18998 -54.20253,28.36495 -19.89148,5.17497 -41.24078,5.28499 -60.85964,-0.84298 -31.1196,-9.72024 -56.11534,-34.74822 -70.08461,-64.20619 -13.96927,-29.45798 -17.71017,-62.97356 -15.40833,-95.49454 3.07951,-43.50806 16.78309,-86.28107 39.95784,-123.23192 23.17474,-36.95086 55.81363,-67.97956 94.11413,-88.84834 42.39703,-23.10085 91.58158,-33.55881 139.70968,-29.70603 l -1.2434,201.14448 c -4.9613,-17.67746 -14.9341,-33.91888 -28.4547,-46.34061 -13.5206,-12.42173 -30.54724,-20.98531 -48.58093,-24.43391 -18.03369,-3.4486 -37.01862,-1.77154 -54.16849,4.78505 -17.14988,6.55658 -32.41158,17.97239 -43.54524,32.57199 -6.96004,9.12671 -12.33681,19.5078 -15.3584,30.58069 -3.02159,11.0729 -3.65609,22.83986 -1.41886,34.09747 2.23724,11.25761 7.38529,21.97955 15.09231,30.4849 7.70702,8.50534 17.99065,14.72823 29.19891,17.20086 10.44582,2.30443 21.50594,1.33607 31.61132,-2.17203 10.10539,-3.5081 19.26886,-9.49603 26.98686,-16.90266 15.436,-14.81326 24.87162,-34.84581 31.32429,-55.2435 17.60413,-55.64877 15.08583,-115.31395 15.40143,-173.67996 0.1704,-31.5084 1.1839,-63.37458 -5.5924,-94.14616 -3.3881,-15.38579 -8.74492,-30.4203 -16.79335,-43.96375 -8.04842,-13.54344 -18.85292,-25.57522 -32.06315,-34.15962 -14.2988,-9.29178 -31.19563,-14.36171 -48.22715,-15.21038 -17.03151,-0.84866 -34.17551,2.45573 -49.96686,8.89206 -31.58268,12.87265 -57.12136,37.84893 -75.78588,66.39375 -22.38074,34.22829 -35.74606,73.8691 -42.04582,114.27685 -6.29977,40.40775 -5.70943,81.64847 -1.68833,122.34619 2.9061,29.41275 7.59464,58.64928 14.03136,87.49584 l -164.01333,4.12025 c 11.18671,-20.22951 20.78697,-41.33604 28.68362,-63.06202 24.95758,-68.66556 32.36719,-145.39305 10.17472,-215.00149 -5.23135,-16.40856 -12.10248,-32.40047 -21.71836,-46.68832 -9.61588,-14.28785 -22.0717,-26.8553 -37.07138,-35.31801 -17.53731,-9.89442 -38.254,-13.87583 -58.27483,-11.72569 -20.02083,2.15013 -39.2783,10.34684 -55.0535,22.86083 -17.68445,14.02855 -30.92883,33.32978 -38.78003,54.4934 -7.8512,21.16362 -10.41132,44.13022 -8.61249,66.63143 3.59765,45.00241 24.22297,87.15686 50.45557,123.89936 27.26191,38.1842 60.74264,71.64461 87.55113,110.14851 16.66644,23.93731 30.65008,49.69132 42.41267,76.38227 3.60688,8.18451 7.03106,16.53926 8.62067,25.3409 1.58962,8.80164 1.23814,18.16928 -2.4876,26.30037 -4.1458,9.04781 -12.18141,15.8964 -21.12905,20.25419 -8.94764,4.35779 -18.81791,6.44759 -28.64764,8.00547 -37.46156,5.93714 -75.66445,4.67955 -113.5345,2.56357 -65.61725,-3.66635 -131.84165,-9.83466 -196.73278,0.56759 z"
   sodipodi:nodetypes="sccsaaaaaaassccssaaaaacacccaacaasaaaaccaaaaaaaccaaaaaaaaaas"
   inkscape:original-d="m 237.78191,804.60455 c -14.22245,1.31826 -28.28316,4.3726 -41.77083,9.0735 l -8.86829,-119.0787 c 6.3507,-1.5704 12.45025,-4.1519 17.99872,-7.6177 13.32944,-8.326 22.88975,-22.1184 28.37703,-36.5272 5.5327,-14.5279 6.52091,-31.3594 3.13475,-46.5319 -4.90398,-21.9736 -15.42178,-44.7045 -32.76151,-59.0648 -17.20888,-14.2519 -41.31874,-21.7573 -63.65086,-21.0224 -15.79471,0.5198 -31.3861,8.2008 -43.94311,17.7958 -12.59587,9.6248 -23.15049,23.0313 -28.80447,37.8409 -9.02523,23.64 -9.85494,50.6726 -5.97336,75.6773 3.92455,25.2816 16.06351,48.8506 28.95175,71.0833 30.53615,52.6761 72.65201,98.5983 122.49596,133.5669 v -2e-4 l -182.535819,31.348 c 4.99246,-26.431 6.1422,-53.5846 3.40187,-80.343 -4.06549,-39.6981 -16.55623,-77.9958 -24.29026,-117.1449 -7.53919,-38.1629 -11.75197,-77.8874 -5.16875,-116.043 6.53727,-37.8892 18.68961,-77.4356 43.450169,-106.8506 25.20112,-29.9384 60.98247,-55.8849 99.61493,-62.1251 38.24057,-6.1769 82.63357,3.2117 112.95091,27.323 31.59294,25.1257 50.66514,68.0648 54.23883,108.2724 5.10673,57.4556 -11.34373,120.2061 -49.00349,165.963 24.83175,1.2885 49.54854,4.2914 74.3745,5.644 17.38837,0.9473 35.14654,5.1883 52.21382,1.7298 22.17015,-4.03801 49.64248,-32.07484 65.36029,-23.66544 -22.62874,-79.86422 -70.98404,-113.22739 -88.15265,-179.46359 -25.35203,-119.6533 -70.67938,-291.24224 26.12598,-365.99762 62.86984,-48.549489 171.99213,-5.62721 234.26061,43.69128 41.50526,32.87348 64.10948,145.32777 64.10948,145.32777 0,0 15.18453,-77.63076 41.44351,-104.25955 69.40875,-70.38628 182.83674,-151.554744 274.02428,-113.38861 65.3308,27.34388 81.2079,126.04936 79.9272,196.86015 -1.7197,95.08685 21.5147,246.53285 -37.4698,346.69213 -37.8527,64.27616 -110.32203,146.1291 -182.90651,128.93194 -58.75498,-13.92058 -87.67316,-99.35857 -85.49294,-159.70073 3.01985,-83.58047 65.43841,-164.28645 134.07197,-212.08026 39.07109,-27.20763 139.70968,-29.70603 139.70968,-29.70603 l -1.2434,201.14448 c 0,0 -133.90112,-76.41214 -174.74936,-33.41748 -26.56011,27.95574 -9.08976,100.23418 27.51396,112.36392 36.91228,12.23199 71.81802,-39.90355 89.92247,-74.31819 27.05943,-51.43714 21.71493,-115.90339 15.40143,-173.67996 -6.542,-59.8668 -0.6496,-145.20539 -54.4489,-172.26953 -54.80887,-27.57203 -133.96266,13.56897 -173.97989,60.07543 -52.3165,60.80021 -42.78161,156.41846 -43.73415,236.62304 -0.35078,29.53584 14.03136,87.49584 14.03136,87.49584 l -164.01333,4.12025 c 0,0 23.2598,-40.61503 28.68362,-63.06202 16.8512,-69.74039 30.50826,-146.19573 10.17472,-215.00149 -9.53206,-32.25511 -28.15389,-68.12479 -58.78974,-82.00633 -34.57432,-15.66612 -88.01026,-17.14572 -113.32833,11.13514 -54.48145,60.85701 -24.334,168.07482 3.06305,245.02419 15.73151,44.18468 61.4867,71.15606 87.55113,110.14851 16.18411,24.21147 33.45806,48.67062 42.41267,76.38227 5.33009,16.49494 13.95462,36.17142 6.13307,51.64127 -8.60891,17.02712 -31.38547,23.18035 -49.77669,28.25966 -36.48845,10.07743 -75.68309,2.08168 -113.5345,2.56357 -65.57255,0.83481 -170.14394,-1.89689 -196.73278,0.56759 z"
   inkscape:path-effect="#path-effect860" /><g
   style="clip-rule:evenodd;fill-rule:evenodd;image-rendering:optimizeQuality;shape-rendering:geometricPrecision;text-rendering:geometricPrecision"
   id="g892"
   transform="translate(1024.3372,-2.1627393)" /></svg>
