<?xml version="1.0" encoding="UTF-8"?>
<!DOCTYPE svg PUBLIC "-//W3C//DTD SVG 1.1//EN" "http://www.w3.org/Graphics/SVG/1.1/DTD/svg11.dtd">
<!-- Creator: CorelDRAW X8 -->
<svg xmlns="http://www.w3.org/2000/svg" xml:space="preserve" width="560px" height="1423px" version="1.1" style="shape-rendering:geometricPrecision; text-rendering:geometricPrecision; image-rendering:optimizeQuality; fill-rule:evenodd; clip-rule:evenodd"
viewBox="0 0 560 1423"
 xmlns:xlink="http://www.w3.org/1999/xlink">
 <defs>
  <style type="text/css">
   <![CDATA[
    .fil0 {fill:#EF7F1A;fill-rule:nonzero}
   ]]>
  </style>
 </defs>
 <g id="Layer_x0020_1">
  <metadata id="CorelCorpID_0Corel-Layer"/>
  <path class="fil0" d="M280 1423c156,0 280,-99 280,-259 0,-116 -66,-200 -162,-237 78,-160 124,-333 124,-511 0,-106 -21,-204 -74,-279 -56,-78 -162,-137 -258,-137 -35,0 -99,13 -99,56 0,30 42,47 67,52 61,12 100,54 125,108 27,61 36,136 36,198 0,174 -45,349 -127,503 -112,30 -192,119 -192,247 0,160 125,259 280,259zm0 -106c-71,0 -97,-97 -97,-153 0,-55 26,-152 97,-152 71,0 97,96 97,152 0,56 -26,153 -97,153z"/>
 </g>
</svg>
