<?xml version="1.0" encoding="UTF-8"?>
<!DOCTYPE svg PUBLIC "-//W3C//DTD SVG 1.1//EN" "http://www.w3.org/Graphics/SVG/1.1/DTD/svg11.dtd">
<!-- Creator: CorelDRAW X8 -->
<svg xmlns="http://www.w3.org/2000/svg" xml:space="preserve" width="742px" height="1596px" version="1.1" style="shape-rendering:geometricPrecision; text-rendering:geometricPrecision; image-rendering:optimizeQuality; fill-rule:evenodd; clip-rule:evenodd"
viewBox="0 0 742 1596"
 xmlns:xlink="http://www.w3.org/1999/xlink">
 <defs>
  <style type="text/css">
   <![CDATA[
    .fil0 {fill:#EF7F1A;fill-rule:nonzero}
   ]]>
  </style>
 </defs>
 <g id="Layer_x0020_1">
  <metadata id="CorelCorpID_0Corel-Layer"/>
  <path class="fil0" d="M282 1329c-71,0 -97,-97 -97,-153 0,-54 27,-156 97,-156 70,0 97,102 97,156 0,56 -26,153 -97,153zm32 267c209,0 428,-121 428,-353 0,-190 -138,-315 -322,-344 66,-149 109,-318 109,-481 0,-92 -14,-189 -64,-268 -55,-86 -165,-150 -268,-150 -33,0 -97,13 -98,55 0,31 42,48 67,53 54,11 93,48 118,95 34,64 43,146 43,219 0,157 -51,346 -121,487 -129,33 -206,135 -206,267 0,158 134,253 282,253 151,0 279,-93 279,-253 0,-35 -3,-66 -18,-98 37,40 52,106 52,161 0,55 -17,102 -49,150 -48,71 -133,110 -232,110 -37,0 -73,-6 -107,-23 -16,-8 -37,-12 -59,-12 -24,0 -49,5 -67,16 -16,10 -23,21 -23,32 0,14 11,28 30,37 69,33 149,47 226,47z"/>
 </g>
</svg>
