<?xml version="1.0" encoding="UTF-8"?>
<!DOCTYPE svg PUBLIC "-//W3C//DTD SVG 1.1//EN" "http://www.w3.org/Graphics/SVG/1.1/DTD/svg11.dtd">
<!-- Creator: CorelDRAW X8 -->
<svg xmlns="http://www.w3.org/2000/svg" xml:space="preserve" width="780px" height="1486px" version="1.1" style="shape-rendering:geometricPrecision; text-rendering:geometricPrecision; image-rendering:optimizeQuality; fill-rule:evenodd; clip-rule:evenodd"
viewBox="0 0 780 1486"
 xmlns:xlink="http://www.w3.org/1999/xlink">
 <defs>
  <style type="text/css">
   <![CDATA[
    .fil0 {fill:#EF7F1A;fill-rule:nonzero}
   ]]>
  </style>
 </defs>
 <g id="Layer_x0020_1">
  <metadata id="CorelCorpID_0Corel-Layer"/>
  <path class="fil0" d="M378 1369c-75,0 -179,-33 -179,-123 0,-87 100,-124 180,-124 75,0 179,34 179,123 0,91 -106,124 -180,124zm402 -208c1,-133 -105,-239 -180,-341 -66,-89 -102,-184 -122,-293 -12,-65 -16,-131 -16,-197 0,-88 8,-175 16,-262 0,-5 1,-9 1,-13 0,-36 -49,-55 -100,-55 -49,0 -98,17 -102,52 -9,90 -17,183 -17,275 0,72 5,145 18,216 22,117 63,223 135,319 43,58 97,114 130,178 -45,-19 -104,-29 -167,-29 -175,0 -376,74 -376,233 0,89 67,150 141,190 71,37 158,51 237,52 86,1 168,-9 243,-51 107,-58 159,-154 159,-274z"/>
 </g>
</svg>
