<?xml version="1.0" encoding="UTF-8"?>
<!DOCTYPE svg PUBLIC "-//W3C//DTD SVG 1.1//EN" "http://www.w3.org/Graphics/SVG/1.1/DTD/svg11.dtd">
<!-- Creator: CorelDRAW X8 -->
<svg xmlns="http://www.w3.org/2000/svg" xml:space="preserve" width="761px" height="418px" version="1.1" style="shape-rendering:geometricPrecision; text-rendering:geometricPrecision; image-rendering:optimizeQuality; fill-rule:evenodd; clip-rule:evenodd"
viewBox="0 0 761 418"
 xmlns:xlink="http://www.w3.org/1999/xlink">
 <defs>
  <style type="text/css">
   <![CDATA[
    .fil0 {fill:#A82682}
   ]]>
  </style>
 </defs>
 <g id="Layer_x0020_1">
  <metadata id="CorelCorpID_0Corel-Layer"/>
  <path class="fil0" d="M256 270c26,0 52,2 77,9 14,4 43,14 43,32 0,19 -29,29 -44,33 -25,7 -50,9 -76,9 -29,0 -63,-2 -90,-12 -12,-5 -32,-15 -32,-30 0,-14 20,-24 32,-29 28,-10 62,-12 90,-12zm253 35c-6,-51 -84,-77 -127,-87 -41,-9 -84,-12 -126,-12 -45,0 -93,4 -137,14 -43,11 -119,39 -119,91 0,52 73,80 116,91 49,12 105,16 156,16 68,0 139,-5 206,-17 69,-12 162,-36 211,-87 46,-47 72,-114 72,-178l0 -136 -202 38 0 97c0,63 0,139 -50,170z"/>
 </g>
</svg>
