<?xml version="1.0" encoding="UTF-8"?>
<!DOCTYPE svg PUBLIC "-//W3C//DTD SVG 1.1//EN" "http://www.w3.org/Graphics/SVG/1.1/DTD/svg11.dtd">
<!-- Creator: CorelDRAW X8 -->
<svg xmlns="http://www.w3.org/2000/svg" xml:space="preserve" width="1167px" height="699px" version="1.1" style="shape-rendering:geometricPrecision; text-rendering:geometricPrecision; image-rendering:optimizeQuality; fill-rule:evenodd; clip-rule:evenodd"
viewBox="0 0 1167 699"
 xmlns:xlink="http://www.w3.org/1999/xlink">
 <defs>
  <style type="text/css">
   <![CDATA[
    .fil0 {fill:#EF7F1A;fill-rule:nonzero}
   ]]>
  </style>
 </defs>
 <g id="Layer_x0020_1">
  <metadata id="CorelCorpID_0Corel-Layer"/>
  <path class="fil0" d="M406 699c114,0 240,-9 353,-36 105,-24 227,-68 302,-147 78,-81 106,-186 106,-294l0 -222 -201 58 -1 164c-1,122 -24,258 -156,310 4,-12 6,-24 6,-35 -1,-46 -31,-83 -74,-109 -49,-30 -119,-41 -176,-41 -52,0 -111,9 -158,33 -47,-24 -106,-33 -158,-33 -57,0 -127,11 -176,41 -40,24 -73,63 -73,111 0,80 81,139 152,164 77,27 168,36 254,36zm0 -96c-57,0 -128,-4 -181,-27 -33,-14 -57,-39 -57,-76 0,-43 46,-59 82,-59 46,0 66,41 66,81 0,39 60,50 91,50 32,0 90,-11 91,-50 0,-42 20,-81 67,-81 35,0 81,17 81,59 0,37 -24,61 -58,76 -53,23 -124,27 -182,27z"/>
 </g>
</svg>
