<?xml version="1.0" encoding="UTF-8"?>
<!DOCTYPE svg PUBLIC "-//W3C//DTD SVG 1.1//EN" "http://www.w3.org/Graphics/SVG/1.1/DTD/svg11.dtd">
<!-- Creator: CorelDRAW X8 -->
<svg xmlns="http://www.w3.org/2000/svg" xml:space="preserve" width="881px" height="1024px" version="1.1" style="shape-rendering:geometricPrecision; text-rendering:geometricPrecision; image-rendering:optimizeQuality; fill-rule:evenodd; clip-rule:evenodd"
viewBox="0 0 881 1024"
 xmlns:xlink="http://www.w3.org/1999/xlink">
 <defs>
  <style type="text/css">
   <![CDATA[
    .fil0 {fill:#EF7F1A;fill-rule:nonzero}
   ]]>
  </style>
 </defs>
 <g id="Layer_x0020_1">
  <metadata id="CorelCorpID_0Corel-Layer"/>
  <path class="fil0" d="M531 1024c76,0 156,-10 222,-45 78,-41 129,-110 128,-198 -1,-145 -131,-220 -267,-220 -133,0 -257,61 -257,215 0,37 8,72 25,104 -131,-70 -180,-231 -180,-368 0,-137 49,-298 180,-368 -17,32 -25,67 -25,104 0,154 124,215 257,215 136,0 266,-75 267,-220 1,-88 -50,-157 -128,-198 -66,-35 -146,-45 -222,-45 -316,0 -531,181 -531,511 0,331 213,513 531,513zm84 -673c-52,0 -75,-68 -75,-111 0,-41 24,-107 75,-107 51,0 76,71 75,112 -1,43 -23,106 -75,106zm0 540c-51,0 -75,-66 -75,-107 0,-43 23,-111 75,-111 52,0 74,63 75,106 1,41 -24,112 -75,112z"/>
 </g>
</svg>
