<?xml version="1.0" encoding="UTF-8" standalone="no"?>
<svg
   xmlns:dc="http://purl.org/dc/elements/1.1/"
   xmlns:cc="http://creativecommons.org/ns#"
   xmlns:rdf="http://www.w3.org/1999/02/22-rdf-syntax-ns#"
   xmlns:svg="http://www.w3.org/2000/svg"
   xmlns="http://www.w3.org/2000/svg"
   xmlns:sodipodi="http://sodipodi.sourceforge.net/DTD/sodipodi-0.dtd"
   xmlns:inkscape="http://www.inkscape.org/namespaces/inkscape"
   xml:space="preserve"
   width="1000"
   height="1000"
   version="1.1"
   style="clip-rule:evenodd;fill-rule:evenodd;image-rendering:optimizeQuality;shape-rendering:geometricPrecision;text-rendering:geometricPrecision"
   viewBox="0 0 1000 1000"
   id="svg10"
   sodipodi:docname="ൔ.svg"
   inkscape:version="1.0.1 (3bc2e813f5, 2020-09-07)"><metadata
   id="metadata14"><rdf:RDF><cc:Work
       rdf:about=""><dc:format>image/svg+xml</dc:format><dc:type
         rdf:resource="http://purl.org/dc/dcmitype/StillImage" /><dc:title /></cc:Work></rdf:RDF></metadata><sodipodi:namedview
   pagecolor="#ffffff"
   bordercolor="#666666"
   borderopacity="1"
   objecttolerance="10"
   gridtolerance="10"
   guidetolerance="10"
   inkscape:pageopacity="0"
   inkscape:pageshadow="2"
   inkscape:window-width="1920"
   inkscape:window-height="1015"
   id="namedview12"
   showgrid="false"
   inkscape:zoom="0.84890884"
   inkscape:cx="327.86116"
   inkscape:cy="362.4224"
   inkscape:window-x="1920"
   inkscape:window-y="0"
   inkscape:window-maximized="1"
   inkscape:current-layer="svg10"
   showguides="true"
   inkscape:guide-bbox="true"
   inkscape:document-rotation="0"><sodipodi:guide
     position="0,1000"
     orientation="0,1"
     id="guide16"
     inkscape:label=""
     inkscape:locked="true"
     inkscape:color="rgb(0,0,255)" /><sodipodi:guide
     position="1763.3122,2036.1693"
     orientation="1000,0"
     id="guide18" /><sodipodi:guide
     position="0,200"
     orientation="0,1"
     id="guide20"
     inkscape:label="base"
     inkscape:locked="true"
     inkscape:color="rgb(0,0,255)" /><inkscape:grid
     type="xygrid"
     id="grid24"
     originx="-473.37552"
     originy="-489.69235" /><sodipodi:guide
     position="0,0"
     orientation="0,1"
     id="guide34"
     inkscape:label="bottom"
     inkscape:locked="true"
     inkscape:color="rgb(0,0,255)" /><sodipodi:guide
     position="225.05109,1693.3186"
     orientation="0,1"
     id="guide44"
     inkscape:label=""
     inkscape:locked="false"
     inkscape:color="rgb(0,0,255)" /><sodipodi:guide
     position="0,900"
     orientation="0,1"
     id="guide46"
     inkscape:label=""
     inkscape:locked="true"
     inkscape:color="rgb(0,0,255)" /><sodipodi:guide
     position="638.46667,573.57023"
     orientation="1,0"
     id="guide841"
  inkscape:label="width"  />    </sodipodi:namedview>
 <defs
   id="defs4">
  <style
   type="text/css"
   id="style2">
   <![CDATA[
    .fil0 {fill:#EF7F1A;fill-rule:nonzero}
   ]]>
  </style>
 <inkscape:path-effect
   effect="spiro"
   id="path-effect1214"
   is_visible="true"
   lpeversion="1" /><inkscape:path-effect
   effect="spiro"
   id="path-effect1195"
   is_visible="true"
   lpeversion="1" /><inkscape:path-effect
   effect="spiro"
   id="path-effect992"
   is_visible="true"
   lpeversion="1" /></defs>
 
<path
   style="display:inline;fill:#1a1a1a;fill-rule:nonzero;stroke:none;stroke-width:1.82472px;stroke-linecap:butt;stroke-linejoin:miter;stroke-opacity:1"
   d="M 255.90229,642.66958 C 183.12205,612.60919 118.61265,562.79517 71.122974,499.98338 36.432063,454.09976 10.497742,400.45546 3.624658,343.34568 -3.2484259,286.2359 10.308929,225.55813 46.753003,181.05425 81.459362,138.67239 134.27488,113.73307 188.33164,104.86628 c 92.7442,-15.212583 190.01466,14.75967 264.47885,72.1007 36.52367,28.125 68.35078,62.92284 89.99899,103.62111 28.6383,53.83951 38.49652,117.75824 25.67986,177.37852 -8.82757,41.06392 -28.04174,79.57009 -53.58957,112.90894 -25.54783,33.33886 -57.32815,61.62398 -92.02912,85.28859 -40.83108,27.84508 -85.89154,49.47627 -133.15543,63.921 L 521.02179,708.12922 C 564.41213,657.03111 583.98512,586.50579 573.13522,520.35432 562.94363,458.21655 528.22751,403.26153 494.38914,350.15846 460.55076,297.0554 426.06183,241.89227 416.42407,179.66619 406.81816,117.64577 424.04817,51.932768 462.84973,2.60483 L 614.49949,0 c -55.63396,39.096993 -90.55494,106.09525 -90.74107,174.09288 -0.16533,60.40065 25.14516,117.90952 54.49959,170.69761 29.35443,52.78809 63.45754,103.51316 83.64249,160.44148 33.61961,94.81856 24.87886,203.79412 -23.42419,292.04179 C 522.38291,775.53148 403.60399,768.16798 285.71408,775.40486 221.68115,779.33563 157.91204,787.5585 94.976544,800 L 91.794886,658.28552 c 9.453374,12.49831 22.262724,22.4333 36.719894,28.48014 22.22817,9.29713 47.53099,9.20158 71.01461,3.81198 23.48362,-5.3896 45.49032,-15.78152 66.97152,-26.69417 32.35681,-16.43755 64.20739,-34.35968 92.32466,-57.30692 28.11727,-22.94724 52.51346,-51.23463 67.01199,-84.50548 17.52948,-40.2262 19.68086,-86.58586 7.89804,-128.85399 -11.78283,-42.26814 -37.12513,-80.34216 -70.24965,-109.12056 -30.42964,-26.4371 -68.15041,-45.4389 -108.2575,-49.47672 -40.1071,-4.03783 -82.47111,7.9433 -111.59488,35.81245 -19.213,18.38533 -32.12893,43.04535 -37.21832,69.14627 -5.08939,26.10091 -2.45996,53.53407 6.61416,78.53048 9.07411,24.9964 24.48642,47.54747 43.8381,65.78678 19.35167,18.23931 42.58119,32.20695 67.43987,41.65185 44.06018,16.74039 93.45143,19.10673 138.9102,6.6552 z"
   id="path3501-3"
   inkscape:path-effect="#path-effect992"
   inkscape:original-d="m 255.90229,642.66958 c 0,0 -123.18439,-101.20463 -184.779316,-142.6862 C 9.5281849,458.50247 -4.4028105,274.60007 46.753003,181.05425 72.466395,134.03353 135.08591,110.9503 188.33164,104.86628 c 90.78612,-10.373499 187.10266,23.49349 264.47885,72.1007 38.7398,24.33606 70.94951,62.02622 89.99899,103.62111 24.87602,54.31724 40.16708,119.41907 25.67986,177.37852 -19.87975,79.5335 -82.51474,145.86484 -145.61869,198.19753 -37.89806,31.42842 -133.15543,63.921 -133.15543,63.921 l 231.30657,-11.95592 c 0,0 61.39842,-133.11819 52.11343,-187.7749 C 554.53915,410.88737 402.12463,303.76733 416.42407,179.66619 425.83658,97.977403 462.84973,2.60483 462.84973,2.60483 L 614.49949,0 c 0,0 -71.09566,93.727152 -90.74107,174.09288 -29.42787,120.38398 128.70539,222.23756 138.14208,331.13909 7.88443,90.98813 -23.42419,292.04179 -23.42419,292.04179 0,0 -235.01386,-25.77521 -352.76223,-21.8689 C 221.64375,777.5304 94.976544,800 94.976544,800 L 91.794886,658.28552 c 0,0 5.640629,14.6718 36.719894,28.48014 31.07926,13.80903 95.91937,-2.77864 137.98613,-22.88219 64.15252,-30.65738 138.75732,-73.75414 159.33665,-141.8124 23.73425,-78.49274 0.9806,-185.88393 -62.35161,-237.97455 -56.70808,-46.64229 -174.64296,-71.52113 -219.85238,-13.66427 -54.915287,70.27796 10.00776,200.7004 80.67381,255.11538 36.72909,28.2825 138.9102,6.6552 138.9102,6.6552 z"
   sodipodi:nodetypes="csaaaaaaccssccsscaccsaaaaacc" /></svg>
