<?xml version="1.0" encoding="UTF-8" standalone="no"?>
<svg
   xmlns:dc="http://purl.org/dc/elements/1.1/"
   xmlns:cc="http://creativecommons.org/ns#"
   xmlns:rdf="http://www.w3.org/1999/02/22-rdf-syntax-ns#"
   xmlns:svg="http://www.w3.org/2000/svg"
   xmlns="http://www.w3.org/2000/svg"
   xmlns:sodipodi="http://sodipodi.sourceforge.net/DTD/sodipodi-0.dtd"
   xmlns:inkscape="http://www.inkscape.org/namespaces/inkscape"
   xml:space="preserve"
   width="1000"
   height="1000"
   version="1.1"
   style="clip-rule:evenodd;fill-rule:evenodd;image-rendering:optimizeQuality;shape-rendering:geometricPrecision;text-rendering:geometricPrecision"
   viewBox="0 0 1000 1000"
   id="svg10"
   sodipodi:docname="ൕ.svg"
   inkscape:version="1.0.1 (3bc2e813f5, 2020-09-07)"><metadata
   id="metadata14"><rdf:RDF><cc:Work
       rdf:about=""><dc:format>image/svg+xml</dc:format><dc:type
         rdf:resource="http://purl.org/dc/dcmitype/StillImage" /><dc:title /></cc:Work></rdf:RDF></metadata><sodipodi:namedview
   pagecolor="#ffffff"
   bordercolor="#666666"
   borderopacity="1"
   objecttolerance="10"
   gridtolerance="10"
   guidetolerance="10"
   inkscape:pageopacity="0"
   inkscape:pageshadow="2"
   inkscape:window-width="1920"
   inkscape:window-height="1015"
   id="namedview12"
   showgrid="false"
   inkscape:zoom="0.678"
   inkscape:cx="470.75253"
   inkscape:cy="409.65686"
   inkscape:window-x="1920"
   inkscape:window-y="0"
   inkscape:window-maximized="1"
   inkscape:current-layer="svg10"
   showguides="true"
   inkscape:guide-bbox="true"
   inkscape:document-rotation="0"
   inkscape:snap-to-guides="true"><sodipodi:guide
     position="0,1000"
     orientation="0,1"
     id="guide16"
     inkscape:label=""
     inkscape:locked="true"
     inkscape:color="rgb(0,0,255)" /><sodipodi:guide
     position="1763.3122,2036.1693"
     orientation="1000,0"
     id="guide18" /><sodipodi:guide
     position="0,200"
     orientation="0,1"
     id="guide20"
     inkscape:label="base"
     inkscape:locked="true"
     inkscape:color="rgb(0,0,255)" /><inkscape:grid
     type="xygrid"
     id="grid24"
     originx="-473.37552"
     originy="-489.69235" /><sodipodi:guide
     position="0,0"
     orientation="0,1"
     id="guide34"
     inkscape:label="bottom"
     inkscape:locked="true"
     inkscape:color="rgb(0,0,255)" /><sodipodi:guide
     position="225.05109,1693.3186"
     orientation="0,1"
     id="guide44"
     inkscape:label=""
     inkscape:locked="false"
     inkscape:color="rgb(0,0,255)" /><sodipodi:guide
     position="0,900"
     orientation="0,1"
     id="guide46"
     inkscape:label=""
     inkscape:locked="true"
     inkscape:color="rgb(0,0,255)" /><sodipodi:guide
     position="791.45998,471.13762"
     orientation="-1,0"
     id="guide841"
     inkscape:label="width"
     inkscape:locked="false"
     inkscape:color="rgb(0,0,255)" /><sodipodi:guide
     position="844.82451,1000"
     orientation="0,1000"
     id="guide860" /><sodipodi:guide
     position="1000,1000"
     orientation="1000,0"
     id="guide862" /><sodipodi:guide
     position="1000,0"
     orientation="0,-1000"
     id="guide864" /><sodipodi:guide
     position="0,0"
     orientation="-1000,0"
     id="guide866" /></sodipodi:namedview>
 <defs
   id="defs4"><inkscape:path-effect
   effect="spiro"
   id="path-effect862"
   is_visible="true"
   lpeversion="1" /><inkscape:path-effect
   effect="spiro"
   id="path-effect1521"
   is_visible="true"
   lpeversion="1" /><inkscape:path-effect
   effect="spiro"
   id="path-effect858"
   is_visible="true"
   lpeversion="1" /><inkscape:path-effect
   effect="spiro"
   id="path-effect854"
   is_visible="true"
   lpeversion="1" />
  <style
   type="text/css"
   id="style2">
   <![CDATA[
    .fil0 {fill:#EF7F1A;fill-rule:nonzero}
   ]]>
  </style>
 <inkscape:path-effect
   effect="spiro"
   id="path-effect1214"
   is_visible="true"
   lpeversion="1" /><inkscape:path-effect
   effect="spiro"
   id="path-effect1195"
   is_visible="true"
   lpeversion="1" /><inkscape:path-effect
   effect="spiro"
   id="path-effect992"
   is_visible="true"
   lpeversion="1" /><inkscape:path-effect
   effect="spiro"
   id="path-effect287"
   is_visible="true"
   lpeversion="1" /><inkscape:path-effect
   effect="spiro"
   id="path-effect1032"
   is_visible="true"
   lpeversion="1" /><inkscape:path-effect
   effect="spiro"
   id="path-effect1218"
   is_visible="true"
   lpeversion="1" /><inkscape:path-effect
   effect="spiro"
   id="path-effect309"
   is_visible="true"
   lpeversion="1" /><inkscape:path-effect
   effect="spiro"
   id="path-effect1176"
   is_visible="true"
   lpeversion="1" /><inkscape:path-effect
   effect="spiro"
   id="path-effect1026"
   is_visible="true"
   lpeversion="1" /><inkscape:path-effect
   effect="spiro"
   id="path-effect1255"
   is_visible="true"
   lpeversion="1" /></defs>
 
<path
   style="display:inline;fill:#1a1a1a;fill-rule:nonzero;stroke:none;stroke-width:2.23544px;stroke-linecap:butt;stroke-linejoin:miter;stroke-opacity:1"
   d="m 310.1887,360.28264 c 6.65214,-32.81429 17.20278,-64.83649 31.35924,-95.17827 12.96831,-27.79521 29.22848,-54.51499 51.56161,-75.53836 22.33313,-21.02338 51.26371,-36.04118 81.89486,-37.61714 21.94897,-1.12926 44.03638,4.68931 63.21853,15.41672 19.18216,10.72742 35.50382,26.24171 48.24268,44.15132 25.47771,35.8192 36.32925,80.16441 40.23912,123.94617 5.2214,58.46797 -1.01331,117.52998 -13.24492,174.94213 -15.53968,72.9394 -41.75612,145.51619 -90.30444,202.12624 -24.27415,28.30503 -53.98056,52.21902 -87.7706,67.98742 -33.79004,15.7684 -71.72613,23.19937 -108.80553,19.25891 -34.9903,-3.71845 -68.48622,-17.40641 -97.95255,-36.63876 C 199.16037,743.90667 173.5431,719.24175 150.61158,692.55293 51.724319,577.46313 2.4501862,418.73135 28.429397,269.23408 c 4.711844,-27.11429 11.861822,-54.05048 24.443454,-78.52676 14.91613,-29.01781 37.669015,-54.2939 66.089759,-70.31844 28.42074,-16.02453 62.56203,-22.402654 94.48089,-15.64169 21.00294,4.44878 40.67731,14.40271 57.46249,27.78825 16.78518,13.38554 30.73467,30.14308 41.89012,48.48622 22.31091,36.68629 33.32594,79.07868 41.16992,121.29398 10.02104,53.93193 15.32945,108.60842 21.34835,163.13225 5.42047,49.10279 11.71523,99.16563 33.11139,143.69281 10.69808,22.26359 25.18268,42.90265 43.78165,59.15672 18.59896,16.25408 41.4345,27.99335 65.83319,31.84308 26.92041,4.24762 55.11375,-1.33307 78.92936,-14.58324 23.81562,-13.25018 43.23215,-33.96303 55.89786,-58.09456 20.69463,-39.42875 23.11019,-85.90012 20.07593,-130.32632 -6.19701,-90.73385 -33.04559,-178.56041 -53.89768,-267.08287 -20.85209,-88.52245 -35.80523,-180.911379 -17.95433,-270.087497 4.82015,-24.079589 12.00444,-47.685323 21.41602,-70.367533 l 160.89052,0.63341 c -39.73297,42.224252 -67.83913,95.281509 -80.45172,151.87231 -10.60804,47.596688 -10.35786,97.12328 -4.23943,145.50241 14.19092,112.20928 59.29083,218.8534 72.30275,331.2055 5.8972,50.91964 4.927,103.61829 -12.10705,151.96524 -10.66301,30.26431 -27.61202,58.43051 -50.21079,81.21041 -22.59877,22.7799 -50.89604,40.06743 -81.81209,48.65964 -30.98334,8.61091 -64.20294,8.38549 -95.40714,0.61288 -31.2042,-7.7726 -60.38881,-22.96921 -85.49397,-43.06514 -50.21031,-40.19187 -83.19722,-98.95388 -101.39314,-160.64156 -18.78721,-63.69226 -22.8589,-130.69826 -35.84384,-195.82164 -4.29295,-21.53042 -9.59553,-42.9633 -18.02089,-63.23649 -8.42536,-20.27318 -20.08948,-39.43203 -35.89188,-54.67253 -9.97111,-9.61655 -21.61582,-17.64402 -34.57496,-22.53909 -12.95915,-4.89506 -27.27361,-6.56191 -40.833,-3.72571 -11.02061,2.30517 -21.34689,7.53299 -30.10751,14.60541 -8.76062,7.07242 -15.98182,15.95675 -21.63461,25.69398 -11.30557,19.47447 -16.26677,41.99604 -18.88911,64.36106 -10.696804,91.22915 17.04926,186.97877 77.42885,256.19932 18.4122,21.10817 39.77042,39.82875 64.04521,53.80369 24.27478,13.97494 51.53854,23.11617 79.49461,24.8547 34.11801,2.12172 68.57347,-6.92263 98.24919,-23.89002 29.67572,-16.96739 54.63866,-41.64934 73.59581,-70.0952 32.47676,-48.73251 47.2372,-108.0694 46.9757,-166.63158 -0.0902,-20.20465 -1.91741,-40.51283 -7.23329,-60.00584 -5.31588,-19.49302 -14.22558,-38.19615 -27.43265,-53.48699 -13.20706,-15.29083 -30.87063,-27.0306 -50.55348,-31.59369 -19.68284,-4.56309 -41.3365,-1.5608 -58.15714,9.63305 -9.82624,6.53919 -17.82002,15.6605 -23.63238,25.9334 -5.81236,10.27291 -9.48708,21.67824 -11.46815,33.31402 -3.96213,23.27157 -1.22536,47.13536 2.45253,70.45354 13.51318,85.67496 39.72651,169.33583 77.51856,247.40353 L 350.05101,565.90692 Z"
   id="path1253"
   inkscape:path-effect="#path-effect1255"
   inkscape:original-d="m 310.1887,360.28264 c 0,0 12.69413,-67.47582 31.35924,-95.17827 32.58964,-48.36899 75.36048,-118.30334 133.45647,-113.1555 79.05611,7.0051 127.6702,107.87366 151.70033,183.51421 17.70666,55.73593 11.04473,121.74408 -13.24492,174.94213 C 557.04567,633.96084 461.40781,783.35191 326.57925,799.77778 258.39585,808.08442 192.304,747.13973 150.61158,692.55293 61.465687,575.83655 26.903749,416.09243 28.429397,269.23408 28.714178,241.82118 35.411525,211.84142 52.872851,190.70732 91.541932,143.90466 154.33872,90.875968 213.4435,104.74719 c 78.67751,18.46472 110.98348,122.34517 140.52253,197.56845 20.04515,51.04639 3.14981,111.39874 21.34835,163.13225 30.38387,86.37308 54.36125,210.71098 142.72623,234.69261 49.27364,13.37252 105.38575,-30.96551 134.82722,-72.6778 25.34638,-35.91044 19.63922,-86.37398 20.07593,-130.32632 1.79486,-180.64259 -86.51088,-357.11458 -71.85201,-537.170367 1.98951,-24.437249 21.41602,-70.367533 21.41602,-70.367533 l 160.89052,0.63341 c 0,0 -65.82703,96.482034 -80.45172,151.87231 -12.38662,46.913712 -8.74063,97.19025 -4.23943,145.50241 10.48287,112.51457 64.65679,218.46261 72.30275,331.2055 3.4383,50.69913 9.37904,105.91557 -12.10705,151.96524 C 732.80152,726.71855 688.42902,795.91347 626.87996,800.6474 511.30125,809.53691 406.56208,695.51474 344.58571,597.55358 309.10737,541.47577 328.6656,465.02868 308.74187,401.73194 295.7663,360.50919 286.78548,312.91708 254.8291,283.82292 c -19.68185,-17.91902 -50.15043,-34.66264 -75.40796,-26.2648 -39.93827,13.27902 -64.33834,63.04558 -70.63123,104.66045 -13.339165,88.21182 21.22761,186.91239 77.42885,256.19932 34.37015,42.37276 88.98015,78.6359 143.53982,78.65839 65.28903,0.0269 131.17095,-42.9139 171.845,-93.98522 35.95171,-45.14184 62.34131,-111.00597 46.9757,-166.63158 -17.50596,-63.37398 -80.25559,-153.85085 -143.37656,-135.45347 -42.80135,12.47498 -33.91942,85.1368 -32.648,129.70096 2.46462,86.38606 77.30249,235.57462 77.51856,247.40353 L 350.05101,565.90692 Z"
   sodipodi:nodetypes="caaaaaaaaaaaaaaaccaaaaaaaaaaaaaaaaccc" /></svg>
