<?xml version="1.0" encoding="UTF-8"?>
<!DOCTYPE svg PUBLIC "-//W3C//DTD SVG 1.1//EN" "http://www.w3.org/Graphics/SVG/1.1/DTD/svg11.dtd">
<!-- Creator: CorelDRAW X8 -->
<svg xmlns="http://www.w3.org/2000/svg" xml:space="preserve" width="1552px" height="1412px" version="1.1" style="shape-rendering:geometricPrecision; text-rendering:geometricPrecision; image-rendering:optimizeQuality; fill-rule:evenodd; clip-rule:evenodd"
viewBox="0 0 1552 1412"
 xmlns:xlink="http://www.w3.org/1999/xlink">
 <defs>
  <style type="text/css">
   <![CDATA[
    .fil0 {fill:#EF7F1A;fill-rule:nonzero}
   ]]>
  </style>
 </defs>
 <g id="Layer_x0020_1">
  <metadata id="CorelCorpID_0Corel-Layer"/>
  <path class="fil0" d="M1024 1412c176,0 374,-62 470,-219 42,-67 58,-143 58,-221l0 -916c0,-42 -69,-56 -102,-56 -32,0 -101,14 -101,56l0 833 -377 0c109,-102 162,-230 160,-378 -5,-303 -265,-511 -566,-511 -299,0 -566,199 -566,514 0,197 114,391 296,481 22,11 49,17 76,17 26,0 52,-6 73,-19 18,-11 26,-23 26,-36 0,-16 -13,-31 -35,-42 -154,-73 -232,-239 -232,-401 0,-215 133,-404 362,-404 227,0 360,194 362,401 2,171 -74,318 -232,393 -16,8 -34,21 -34,40 0,43 69,56 102,56l584 0c0,50 -19,113 -47,157 -59,96 -165,143 -277,143 -87,0 -174,-28 -247,-73 -21,-12 -48,-18 -76,-18 -24,0 -48,5 -67,14 -21,11 -33,26 -33,42 0,13 8,26 26,37 119,72 257,110 397,110z"/>
 </g>
</svg>
