<?xml version="1.0" encoding="UTF-8"?>
<!DOCTYPE svg PUBLIC "-//W3C//DTD SVG 1.1//EN" "http://www.w3.org/Graphics/SVG/1.1/DTD/svg11.dtd">
<!-- Creator: CorelDRAW X8 -->
<svg xmlns="http://www.w3.org/2000/svg" xml:space="preserve" width="2466px" height="1405px" version="1.1" style="shape-rendering:geometricPrecision; text-rendering:geometricPrecision; image-rendering:optimizeQuality; fill-rule:evenodd; clip-rule:evenodd"
viewBox="0 0 2466 1405"
 xmlns:xlink="http://www.w3.org/1999/xlink">
 <defs>
  <style type="text/css">
   <![CDATA[
    .fil0 {fill:#EF7F1A;fill-rule:nonzero}
   ]]>
  </style>
 </defs>
 <g id="Layer_x0020_1">
  <metadata id="CorelCorpID_0Corel-Layer"/>
  <path class="fil0" d="M2078 1405c133,0 242,-58 312,-171 53,-86 76,-190 76,-290 0,-83 -15,-169 -48,-246 -42,-98 -110,-173 -202,-230 36,-65 69,-149 69,-225 0,-171 -164,-243 -313,-243 -133,0 -266,58 -331,176 -3,6 -5,12 -5,17 0,34 52,55 103,55 40,0 80,-13 95,-40 28,-48 78,-96 138,-96 70,0 111,67 111,131 0,51 -20,109 -41,155 -51,-11 -103,-17 -154,-17 -123,0 -257,34 -348,119 -75,-82 -195,-119 -303,-119 -113,0 -224,40 -303,120 -101,-89 -255,-119 -389,-119 -202,0 -389,83 -484,269 -43,84 -61,177 -61,270 0,145 44,310 163,406 67,54 146,78 233,78 86,0 176,-26 244,-81 73,-59 109,-153 109,-245 0,-80 -24,-154 -81,-213 -64,-67 -160,-101 -253,-101 -80,0 -151,21 -211,75 7,-52 22,-103 46,-150 58,-116 161,-197 295,-197 173,0 297,100 297,279l0 578c0,41 69,55 101,55 33,0 101,-14 101,-55l0 -599c0,-115 54,-258 193,-258 128,0 191,132 191,248l0 608c0,42 70,56 102,56 32,0 101,-14 101,-56l0 -584c0,-163 84,-270 257,-272 31,0 62,4 92,12 -54,81 -114,149 -159,236 -46,90 -71,198 -71,299 0,65 11,127 37,186 55,121 159,179 291,179zm0 -112c-55,0 -93,-71 -107,-115 -14,-43 -19,-92 -19,-138 0,-79 19,-171 52,-243 33,-73 82,-134 128,-200 44,44 75,90 97,147 24,63 35,132 35,200 0,68 -21,155 -48,218 -23,54 -70,131 -138,131zm-1678 1c-109,0 -154,-114 -154,-207 0,-90 46,-206 154,-206 109,0 154,116 154,207 0,89 -47,206 -154,206z"/>
 </g>
</svg>
