<?xml version="1.0" encoding="UTF-8" standalone="no"?>
<svg
   xmlns:dc="http://purl.org/dc/elements/1.1/"
   xmlns:cc="http://creativecommons.org/ns#"
   xmlns:rdf="http://www.w3.org/1999/02/22-rdf-syntax-ns#"
   xmlns:svg="http://www.w3.org/2000/svg"
   xmlns="http://www.w3.org/2000/svg"
   xmlns:sodipodi="http://sodipodi.sourceforge.net/DTD/sodipodi-0.dtd"
   xmlns:inkscape="http://www.inkscape.org/namespaces/inkscape"
   xml:space="preserve"
   width="1000"
   height="1000"
   version="1.1"
   style="clip-rule:evenodd;fill-rule:evenodd;image-rendering:optimizeQuality;shape-rendering:geometricPrecision;text-rendering:geometricPrecision"
   viewBox="0 0 1000 1000"
   id="svg10"
   sodipodi:docname="ൻ.svg"
   inkscape:version="1.0.1 (3bc2e813f5, 2020-09-07)"><metadata
   id="metadata14"><rdf:RDF><cc:Work
       rdf:about=""><dc:format>image/svg+xml</dc:format><dc:type
         rdf:resource="http://purl.org/dc/dcmitype/StillImage" /><dc:title /></cc:Work></rdf:RDF></metadata><sodipodi:namedview
   pagecolor="#ffffff"
   bordercolor="#666666"
   borderopacity="1"
   objecttolerance="10"
   gridtolerance="10"
   guidetolerance="10"
   inkscape:pageopacity="0"
   inkscape:pageshadow="2"
   inkscape:window-width="1920"
   inkscape:window-height="1015"
   id="namedview12"
   showgrid="false"
   inkscape:zoom="0.678"
   inkscape:cx="180.07219"
   inkscape:cy="315.16662"
   inkscape:window-x="1920"
   inkscape:window-y="0"
   inkscape:window-maximized="1"
   inkscape:current-layer="svg10"
   showguides="true"
   inkscape:guide-bbox="true"
   inkscape:document-rotation="0"
   inkscape:snap-to-guides="true"><sodipodi:guide
     position="0,1000"
     orientation="0,1"
     id="guide16"
     inkscape:label=""
     inkscape:locked="true"
     inkscape:color="rgb(0,0,255)" /><sodipodi:guide
     position="1763.3122,2036.1693"
     orientation="1000,0"
     id="guide18" /><sodipodi:guide
     position="0,200"
     orientation="0,1"
     id="guide20"
     inkscape:label="base"
     inkscape:locked="true"
     inkscape:color="rgb(0,0,255)" /><inkscape:grid
     type="xygrid"
     id="grid24"
     originx="-473.37552"
     originy="-489.69235" /><sodipodi:guide
     position="0,0"
     orientation="0,1"
     id="guide34"
     inkscape:label="bottom"
     inkscape:locked="true"
     inkscape:color="rgb(0,0,255)" /><sodipodi:guide
     position="225.05109,1693.3186"
     orientation="0,1"
     id="guide44"
     inkscape:label=""
     inkscape:locked="false"
     inkscape:color="rgb(0,0,255)" /><sodipodi:guide
     position="0,900"
     orientation="0,1"
     id="guide46"
     inkscape:label=""
     inkscape:locked="true"
     inkscape:color="rgb(0,0,255)" /><sodipodi:guide
     position="778.78863,579.95671"
     orientation="-1,0"
     id="guide841"
     inkscape:label="width"
     inkscape:locked="false"
     inkscape:color="rgb(0,0,255)" /><sodipodi:guide
     position="0,1000"
     orientation="0,1000"
     id="guide860" /><sodipodi:guide
     position="1000,1000"
     orientation="1000,0"
     id="guide862" /><sodipodi:guide
     position="1000,0"
     orientation="0,-1000"
     id="guide864" /><sodipodi:guide
     position="0,0"
     orientation="-1000,0"
     id="guide866" /></sodipodi:namedview>
 <defs
   id="defs4"><inkscape:path-effect
   effect="spiro"
   id="path-effect862"
   is_visible="true"
   lpeversion="1" /><inkscape:path-effect
   effect="spiro"
   id="path-effect1521"
   is_visible="true"
   lpeversion="1" /><inkscape:path-effect
   effect="spiro"
   id="path-effect858"
   is_visible="true"
   lpeversion="1" /><inkscape:path-effect
   effect="spiro"
   id="path-effect854"
   is_visible="true"
   lpeversion="1" />
  <style
   type="text/css"
   id="style2">
   <![CDATA[
    .fil0 {fill:#EF7F1A;fill-rule:nonzero}
   ]]>
  </style>
 <inkscape:path-effect
   effect="spiro"
   id="path-effect1214"
   is_visible="true"
   lpeversion="1" /><inkscape:path-effect
   effect="spiro"
   id="path-effect1195"
   is_visible="true"
   lpeversion="1" /><inkscape:path-effect
   effect="spiro"
   id="path-effect992"
   is_visible="true"
   lpeversion="1" /><inkscape:path-effect
   effect="spiro"
   id="path-effect287"
   is_visible="true"
   lpeversion="1" /><inkscape:path-effect
   effect="spiro"
   id="path-effect1032"
   is_visible="true"
   lpeversion="1" /><inkscape:path-effect
   effect="spiro"
   id="path-effect1218"
   is_visible="true"
   lpeversion="1" /><inkscape:path-effect
   effect="spiro"
   id="path-effect309"
   is_visible="true"
   lpeversion="1" /><inkscape:path-effect
   effect="spiro"
   id="path-effect1176"
   is_visible="true"
   lpeversion="1" /><inkscape:path-effect
   effect="spiro"
   id="path-effect1026"
   is_visible="true"
   lpeversion="1" /><inkscape:path-effect
   effect="spiro"
   id="path-effect1030"
   is_visible="true"
   lpeversion="1" /></defs>
 
<path
   style="display:inline;fill:#1a1a1a;fill-rule:nonzero;stroke:none;stroke-width:2.09522px;stroke-linecap:butt;stroke-linejoin:miter;stroke-opacity:1"
   d="M 207.74684,829.76245 C 201.31661,801.56069 192.73679,773.84932 182.10634,746.94801 150.03722,665.79418 99.903613,593.24351 59.274313,516.01895 27.835881,456.26358 1.6165811,391.63575 0.60468511,324.12238 0.09873714,290.36569 6.0792715,256.28085 20.172872,225.60284 c 14.093601,-30.67801 36.51433,-57.82402 65.227417,-75.58151 36.594291,-22.63159 82.263201,-28.99629 124.364741,-20.1198 42.10153,8.87648 80.51478,32.3773 109.89587,63.81108 36.84489,39.41903 59.83727,91.53972 64.10948,145.32777 9.22443,-36.35134 23.19437,-71.49556 41.44351,-104.25955 27.05436,-48.57265 64.89711,-92.909 114.75771,-117.50902 24.9303,-12.3 52.58851,-19.408678 80.38702,-19.178739 27.79852,0.22994 55.69547,7.959329 78.87952,23.299149 30.73836,20.33816 51.84656,53.02097 63.72241,87.91298 11.87584,34.892 15.21554,72.10278 16.20478,108.94717 1.29236,48.13438 -1.2834,96.38383 -7.97619,144.06816 -11.92149,84.93734 -37.64515,169.41141 -86.85895,239.65723 -15.3561,21.91868 -33.20637,42.58298 -55.59481,57.24572 -22.38845,14.66274 -49.80692,22.91332 -76.21715,18.58456 -22.30001,-3.65507 -42.72289,-16.16062 -57.53857,-33.22362 -14.81567,-17.06299 -24.20096,-38.46368 -28.57158,-60.63455 -8.74124,-44.34175 2.07718,-90.17855 16.60739,-132.97426 28.64937,-84.38073 71.80732,-163.41149 98.21205,-248.52133 11.47983,-37.00271 19.77788,-75.4764 18.44327,-114.19598 C 598.33619,149.53872 586.73538,110.33991 562.00366,80.518298 542.14248,56.569605 514.61492,39.625331 485.11048,29.751397 455.60605,19.877464 424.14275,16.804787 393.04191,17.667506 321.11185,19.662803 249.89814,42.854533 190.58748,83.599602 l -21.39065,-159.9525 c 33.34962,0.279683 66.69831,0.671404 100.0453,1.175156 63.10006,0.953212 126.86971,2.396269 187.97539,18.163999 34.62399,8.934387 68.27203,22.536104 97.90967,42.542456 29.63765,20.0063513 55.18787,46.606309 71.60577,78.372593 17.26078,33.397133 23.98655,71.504924 24.04287,109.098804 0.0563,37.59388 -6.30895,74.90207 -14.02911,111.69476 -19.027,90.6788 -46.36119,179.40806 -75.89052,267.22998 -6.59859,19.62459 -13.39137,39.72593 -12.83922,60.42282 0.27607,10.34845 2.45126,20.73878 7.17647,29.94959 4.7252,9.21081 12.0942,17.19244 21.33195,21.86475 8.91707,4.51011 19.3038,5.79714 29.18714,4.3224 9.88333,-1.47474 19.26799,-5.62311 27.46462,-11.33892 16.39326,-11.43162 27.77202,-28.64679 37.4752,-46.11874 32.56324,-58.63478 50.67517,-125.14924 52.93181,-192.18139 1.08181,-32.13465 -1.53367,-64.88272 -12.95156,-94.93996 -11.41789,-30.05724 -32.3863,-57.34145 -61.15862,-71.69274 -29.92261,-14.92504 -66.23382,-14.57917 -97.4029,-2.47096 -31.16907,12.1082 -57.3466,35.19112 -76.57701,62.54639 -23.57932,33.5416 -37.21156,73.40622 -43.2682,113.95668 -6.05665,40.55046 -4.78412,81.89411 -0.46595,122.66636 3.11243,29.38766 7.79848,58.60859 14.03136,87.49584 l -164.01333,4.12025 c 11.18082,-20.23256 20.78079,-41.33847 28.68362,-63.06202 24.97979,-68.66528 32.47176,-145.41878 10.17472,-215.00149 -5.25354,-16.3948 -12.15401,-32.36551 -21.77548,-46.64194 -9.62148,-14.27644 -22.0554,-26.84255 -37.01426,-35.36439 -17.53013,-9.98666 -38.26237,-14.1252 -58.32767,-12.02224 -20.06531,2.10295 -39.38596,10.38163 -55.00066,23.15738 -17.28947,14.14603 -29.9258,33.60135 -37.16134,54.73621 -7.23554,21.13487 -9.19746,43.8951 -7.1043,66.13592 4.18631,44.48166 24.10613,85.98329 47.32869,124.15206 24.45573,40.19562 53.09329,78.11059 87.55113,110.14851 32.39425,30.11925 69.79076,54.84568 110.1904,72.85749 z"
   id="path1087-1-75"
   inkscape:path-effect="#path-effect1030"
   inkscape:original-d="m 207.74684,829.76245 c -12.76427,-34.18253 -14.53257,-56.137 -25.6405,-82.81444 C 148.59214,666.45857 77.346458,601.3136 59.274313,516.01895 33.922282,396.36565 -11.405066,224.77671 85.400289,150.02133 148.27013,101.47184 257.39242,144.39412 319.6609,193.71261 c 41.50526,32.87348 64.10948,145.32777 64.10948,145.32777 0,0 15.18453,-77.63076 41.44351,-104.25955 69.40875,-70.38628 182.83677,-151.554714 274.02425,-113.38861 65.33084,27.34392 68.28156,127.00181 79.92719,196.86015 7.90868,47.44158 1.65005,96.94507 -7.97619,144.06816 -17.00648,83.25135 -32.23487,174.571 -86.85895,239.65723 -32.58602,38.82723 -76.83251,85.85354 -131.81196,75.83028 C 477.55419,764.14141 479.89158,629.99442 483.01547,550.97561 486.53415,461.9706 568.35931,390.59441 581.22752,302.45428 591.95491,228.97757 606.97402,139.60782 562.00366,80.518298 525.61168,32.700461 440.8478,21.475983 393.04191,17.667506 291.59362,9.5855838 190.58748,83.599602 190.58748,83.599602 l -21.39065,-159.9525 c 0,0 47.77826,-1.199871 100.0453,1.175156 63.07625,2.8662 139.12467,-0.39129 187.97539,18.163999 64.884,24.645317 136.3459,59.9469621 169.51544,120.915049 35.20852,64.715884 18.51811,147.612544 10.01376,220.793564 -10.68899,91.98004 -69.50658,174.85127 -75.89052,267.22998 -2.60429,37.68534 -18.19469,95.49786 15.6692,112.23716 32.29908,15.9658 71.95628,-24.73457 94.12696,-53.13526 40.88711,-52.37648 57.90125,-125.92163 52.93181,-192.18139 -4.54644,-60.61971 -18.35642,-142.40591 -74.11018,-166.6327 -56.27045,-24.45131 -133.96268,13.56897 -173.97991,60.07543 -52.3165,60.80021 -42.78161,156.41846 -43.73415,236.62304 -0.35078,29.53584 14.03136,87.49584 14.03136,87.49584 l -164.01333,4.12025 c 0,0 23.2598,-40.61503 28.68362,-63.06202 16.8512,-69.74039 30.50826,-146.19573 10.17472,-215.00149 -9.53206,-32.25511 -28.15389,-68.12479 -58.78974,-82.00633 -34.57432,-15.66612 -88.01026,-17.14572 -113.32833,11.13514 -54.481448,60.85701 -24.334,168.07482 3.06305,245.02419 15.73151,44.18468 52.96972,78.46425 87.55113,110.14851 32.46628,29.74634 110.1904,72.85749 110.1904,72.85749 z"
   sodipodi:nodetypes="caaaacaaaaasaaasccssaaaaaaaaaccaaaaaacc" /></svg>
