<?xml version="1.0" encoding="UTF-8" standalone="no"?>
<svg
   xmlns:dc="http://purl.org/dc/elements/1.1/"
   xmlns:cc="http://creativecommons.org/ns#"
   xmlns:rdf="http://www.w3.org/1999/02/22-rdf-syntax-ns#"
   xmlns:svg="http://www.w3.org/2000/svg"
   xmlns="http://www.w3.org/2000/svg"
   xmlns:sodipodi="http://sodipodi.sourceforge.net/DTD/sodipodi-0.dtd"
   xmlns:inkscape="http://www.inkscape.org/namespaces/inkscape"
   xml:space="preserve"
   width="1000"
   height="1000"
   version="1.1"
   style="clip-rule:evenodd;fill-rule:evenodd;image-rendering:optimizeQuality;shape-rendering:geometricPrecision;text-rendering:geometricPrecision"
   viewBox="0 0 1000 1000"
   id="svg10"
   sodipodi:docname="ൾ.svg"
   inkscape:version="1.0.1 (3bc2e813f5, 2020-09-07)"><metadata
   id="metadata14"><rdf:RDF><cc:Work
       rdf:about=""><dc:format>image/svg+xml</dc:format><dc:type
         rdf:resource="http://purl.org/dc/dcmitype/StillImage" /><dc:title /></cc:Work></rdf:RDF></metadata><sodipodi:namedview
   pagecolor="#ffffff"
   bordercolor="#666666"
   borderopacity="1"
   objecttolerance="10"
   gridtolerance="10"
   guidetolerance="10"
   inkscape:pageopacity="0"
   inkscape:pageshadow="2"
   inkscape:window-width="1920"
   inkscape:window-height="1015"
   id="namedview12"
   showgrid="false"
   inkscape:zoom="0.54793055"
   inkscape:cx="749.00133"
   inkscape:cy="485.44581"
   inkscape:window-x="1920"
   inkscape:window-y="0"
   inkscape:window-maximized="1"
   inkscape:current-layer="svg10"
   showguides="true"
   inkscape:guide-bbox="true"
   inkscape:document-rotation="0"><sodipodi:guide
     position="0,1000"
     orientation="0,1"
     id="guide16"
     inkscape:label=""
     inkscape:locked="true"
     inkscape:color="rgb(0,0,255)" /><sodipodi:guide
     position="1763.3122,2036.1693"
     orientation="1000,0"
     id="guide18" /><sodipodi:guide
     position="0,200"
     orientation="0,1"
     id="guide20"
     inkscape:label="base"
     inkscape:locked="true"
     inkscape:color="rgb(0,0,255)" /><inkscape:grid
     type="xygrid"
     id="grid24"
     originx="-473.37552"
     originy="-489.69235" /><sodipodi:guide
     position="0,0"
     orientation="0,1"
     id="guide34"
     inkscape:label="bottom"
     inkscape:locked="true"
     inkscape:color="rgb(0,0,255)" /><sodipodi:guide
     position="225.05109,1693.3186"
     orientation="0,1"
     id="guide44"
     inkscape:label=""
     inkscape:locked="false"
     inkscape:color="rgb(0,0,255)" /><sodipodi:guide
     position="0,900"
     orientation="0,1"
     id="guide46"
     inkscape:label=""
     inkscape:locked="true"
     inkscape:color="rgb(0,0,255)" /><sodipodi:guide
     position="810.75431,1072.7649"
     orientation="1,0"
     id="guide841" /></sodipodi:namedview>
 <defs
   id="defs4"><inkscape:path-effect
   effect="spiro"
   id="path-effect845"
   is_visible="true"
   lpeversion="1" /><inkscape:path-effect
   effect="spiro"
   id="path-effect844"
   is_visible="true"
   lpeversion="1" />
  <style
   type="text/css"
   id="style2">
   <![CDATA[
    .fil0 {fill:#EF7F1A;fill-rule:nonzero}
   ]]>
  </style>
 <inkscape:path-effect
   effect="spiro"
   id="path-effect1214"
   is_visible="true"
   lpeversion="1" /><inkscape:path-effect
   effect="spiro"
   id="path-effect1195"
   is_visible="true"
   lpeversion="1" /><inkscape:path-effect
   effect="spiro"
   id="path-effect992"
   is_visible="true"
   lpeversion="1" /><inkscape:path-effect
   effect="spiro"
   id="path-effect873"
   is_visible="true"
   lpeversion="1" /></defs>
 
<path
   style="clip-rule:evenodd;fill:#2d2d2d;fill-rule:nonzero;stroke:none;stroke-width:7.56547px;stroke-linecap:butt;stroke-linejoin:miter;stroke-opacity:1;image-rendering:optimizeQuality;shape-rendering:geometricPrecision;text-rendering:geometricPrecision"
   d="M 174.47448,100 4.0362607,155.09892 C -4.774571,280.19723 13.679418,407.14525 57.743139,524.55737 95.654629,625.57626 152.42169,719.4833 224.24897,800 L 374.69829,746.28598 C 353.20953,691.81355 336.41919,635.48856 324.57473,578.14119 315.8293,535.7984 309.76166,492.48055 313.13813,449.3761 c 3.37648,-43.10445 16.74544,-86.25934 43.58168,-120.15935 33.67392,-42.53749 86.63644,-67.41885 140.57587,-73.24197 32.9632,-3.5586 66.73998,-0.44969 98.18531,10.05875 31.44533,10.50844 60.49464,28.48907 83.18317,52.66482 29.15204,31.06294 47.18967,71.76717 53.65334,113.87381 6.46367,42.10663 1.6926,85.53487 -10.8061,126.25993 -7.58923,24.72834 -18.28291,49.03343 -35.58179,68.26455 -8.64944,9.61556 -18.90553,17.86135 -30.46385,23.66454 -11.55832,5.80319 -24.43867,9.12038 -37.3712,8.97394 -19.42535,-0.21996 -38.38414,-8.35118 -53.02467,-21.12021 -14.64052,-12.76902 -25.09128,-29.95465 -31.26637,-48.37369 -12.35017,-36.83808 -7.8666,-77.14106 0.20512,-115.14657 14.77857,-69.58456 40.95734,-136.16106 60.81149,-204.47087 19.85415,-68.30981 33.43695,-140.24219 22.12674,-210.473921 -9.20213,-57.141453 -36.1129,-112.75176 -81.10865,-149.155153 -40.96995,-33.146356 -94.02635,-48.392506 -146.55415,-52.640726 -52.5278,-4.24823 -105.27084,1.69205 -157.73808,6.63226 -38.04192,3.58195 -76.13304,6.64128 -114.259,9.17684 l 15.66719,143.005112 c 35.94076,-7.556265 71.63941,-16.26408046 107.02275,-26.105591 46.82708,-13.024469 93.89473,-28.160461 142.49665,-28.675544 24.30096,-0.257541 48.82595,3.246391 71.40509,12.234467 22.57913,8.988076 43.16153,23.6419373 57.47489,43.281962 17.38887,23.860064 24.76684,53.938247 25.15846,83.459794 0.39161,29.52155 -5.78304,58.74003 -13.38809,87.26789 -21.38353,80.21331 -54.28794,157.2589 -71.17595,238.53759 -17.39357,83.71186 -16.87045,173.26809 16.27903,252.08004 13.14137,31.24323 31.5752,60.78446 57.14741,83.03075 25.5722,22.24629 58.77121,36.73043 92.65594,35.91786 38.38048,-0.92038 74.49792,-21.33094 100.64416,-49.44291 26.14624,-28.11196 43.33441,-63.39967 56.6182,-99.4198 C 808.64651,558.89303 819.34264,459.34927 799.9368,364.9269 789.4651,313.9751 770.17134,264.46498 740.172,221.97048 710.17266,179.47599 669.16311,144.20835 621.08779,124.34618 550.88822,95.343444 467.44773,101.57441 401.56098,139.36427 354.55131,166.32704 317.06218,207.78805 288.34688,253.74816 219.8648,363.35676 199.86482,502.08699 234.5984,626.57562 157.13863,522.72617 120.01112,389.57154 132.56035,260.62488 137.94267,205.32009 152.14766,150.88322 174.47448,100 Z"
   id="path871"
   inkscape:path-effect="#path-effect873"
   inkscape:original-d="M 174.47448,100 4.0362607,155.09892 c 0,0 11.7317453,252.30387 53.7068783,369.45845 C 93.929967,625.55652 224.24897,800 224.24897,800 l 150.44932,-53.71402 c 0,0 -45.41224,-109.8493 -50.12356,-168.14479 -6.73956,-83.3919 -15.74562,-180.32333 32.14508,-248.92444 30.24501,-43.32451 87.88198,-69.35251 140.57587,-73.24197 63.79586,-4.70892 139.80683,14.09524 181.36848,62.72357 52.82725,61.80941 67.69488,162.71464 42.84724,240.13374 -14.7182,45.85828 -56.07798,109.7709 -103.41684,100.90303 C 551.62229,647.28304 541.77082,542.27623 534.00864,475.09465 517.8193,334.97602 638.07982,199.60854 616.94687,60.149859 608.46768,4.1947159 582.17995,-56.519617 535.83822,-89.005294 451.83806,-147.88964 334.0669,-131.42829 231.54599,-135.01376 c -38.18563,-1.33547 -114.259,9.17684 -114.259,9.17684 l 15.66719,143.005112 c 0,0 70.39332,-23.525045 107.02275,-26.105591 90.67551,-6.388096 208.0637,-38.384338 271.37663,26.840885 39.73193,40.931987 18.06493,114.031724 11.77037,170.727684 -9.15608,82.46999 -61.84076,156.08768 -71.17595,238.53759 -9.47301,83.66714 -22.76012,177.47526 16.27903,252.08004 29.5623,56.4943 86.10195,121.71739 149.80335,118.94861 C 690.1438,795.063 743.92015,714.34189 775.29272,649.3347 816.65159,563.63489 825.9063,456.47251 799.9368,364.9269 772.66615,268.79455 711.84943,166.1486 621.08779,124.34618 c -66.6202,-30.683519 -152.83954,-15.5194 -219.52681,15.01809 -48.77537,22.33526 -89.31547,66.35519 -113.2141,114.38389 -55.93563,112.41296 -53.74848,372.82746 -53.74848,372.82746 0,0 -100.98247,-239.31843 -102.03805,-365.95074 C 132.09911,205.29232 174.47448,100 174.47448,100 Z"
   sodipodi:nodetypes="ccaccaaaaaaaaaaccaaaaaaaaaaacac" /></svg>
