<?xml version="1.0" encoding="UTF-8" standalone="no"?>
<svg
   xmlns:dc="http://purl.org/dc/elements/1.1/"
   xmlns:cc="http://creativecommons.org/ns#"
   xmlns:rdf="http://www.w3.org/1999/02/22-rdf-syntax-ns#"
   xmlns:svg="http://www.w3.org/2000/svg"
   xmlns="http://www.w3.org/2000/svg"
   xmlns:sodipodi="http://sodipodi.sourceforge.net/DTD/sodipodi-0.dtd"
   xmlns:inkscape="http://www.inkscape.org/namespaces/inkscape"
   xml:space="preserve"
   width="1000"
   height="1000"
   version="1.1"
   style="clip-rule:evenodd;fill-rule:evenodd;image-rendering:optimizeQuality;shape-rendering:geometricPrecision;text-rendering:geometricPrecision"
   viewBox="0 0 1000 1000"
   id="svg10"
   sodipodi:docname="ൾ.svg"
   inkscape:version="1.0.1 (3bc2e813f5, 2020-09-07)"><metadata
   id="metadata14"><rdf:RDF><cc:Work
       rdf:about=""><dc:format>image/svg+xml</dc:format><dc:type
         rdf:resource="http://purl.org/dc/dcmitype/StillImage" /><dc:title /></cc:Work></rdf:RDF></metadata><sodipodi:namedview
   pagecolor="#ffffff"
   bordercolor="#666666"
   borderopacity="1"
   objecttolerance="10"
   gridtolerance="10"
   guidetolerance="10"
   inkscape:pageopacity="0"
   inkscape:pageshadow="2"
   inkscape:window-width="1920"
   inkscape:window-height="1015"
   id="namedview12"
   showgrid="false"
   inkscape:zoom="0.77489082"
   inkscape:cx="374.87562"
   inkscape:cy="443.22049"
   inkscape:window-x="1920"
   inkscape:window-y="0"
   inkscape:window-maximized="1"
   inkscape:current-layer="svg10"
   showguides="true"
   inkscape:guide-bbox="true"
   inkscape:document-rotation="0"><sodipodi:guide
     position="0,1000"
     orientation="0,1"
     id="guide16"
     inkscape:label=""
     inkscape:locked="true"
     inkscape:color="rgb(0,0,255)" /><sodipodi:guide
     position="1763.3122,2036.1693"
     orientation="1000,0"
     id="guide18" /><sodipodi:guide
     position="0,200"
     orientation="0,1"
     id="guide20"
     inkscape:label="base"
     inkscape:locked="true"
     inkscape:color="rgb(0,0,255)" /><inkscape:grid
     type="xygrid"
     id="grid24"
     originx="-473.37552"
     originy="-489.69235" /><sodipodi:guide
     position="0,0"
     orientation="0,1"
     id="guide34"
     inkscape:label="bottom"
     inkscape:locked="true"
     inkscape:color="rgb(0,0,255)" /><sodipodi:guide
     position="225.05109,1693.3186"
     orientation="0,1"
     id="guide44"
     inkscape:label=""
     inkscape:locked="false"
     inkscape:color="rgb(0,0,255)" /><sodipodi:guide
     position="0,900"
     orientation="0,1"
     id="guide46"
     inkscape:label=""
     inkscape:locked="true"
     inkscape:color="rgb(0,0,255)" /><sodipodi:guide
     position="755.82851,560.63469"
     orientation="1,0"
     id="guide841" /></sodipodi:namedview>
 <defs
   id="defs4"><inkscape:path-effect
   effect="spiro"
   id="path-effect845"
   is_visible="true"
   lpeversion="1" /><inkscape:path-effect
   effect="spiro"
   id="path-effect844"
   is_visible="true"
   lpeversion="1" />
  <style
   type="text/css"
   id="style2">
   <![CDATA[
    .fil0 {fill:#EF7F1A;fill-rule:nonzero}
   ]]>
  </style>
 <inkscape:path-effect
   effect="spiro"
   id="path-effect1214"
   is_visible="true"
   lpeversion="1" /><inkscape:path-effect
   effect="spiro"
   id="path-effect1195"
   is_visible="true"
   lpeversion="1" /><inkscape:path-effect
   effect="spiro"
   id="path-effect992"
   is_visible="true"
   lpeversion="1" /></defs>
 
<path
   style="fill:#2d2d2d;fill-opacity:1;fill-rule:nonzero;stroke:none;stroke-width:1px;stroke-linecap:butt;stroke-linejoin:miter;stroke-opacity:1"
   d="M 181.86761,333.17655 122.22644,192.62617 c -15.94595,21.11471 -30.155342,43.54049 -42.437621,66.97657 -41.194344,78.60382 -60.048105,167.37084 -66.224359,255.89987 -4.3481141,62.32488 -2.052034,127.50283 26.108693,183.27262 14.080363,27.8849 34.642106,52.82811 60.818937,69.87503 26.17684,17.04692 58.11675,25.83273 89.12919,22.08402 26.85188,-3.24579 52.16258,-15.6948 72.76856,-33.21484 20.60599,-17.52004 36.68449,-39.94538 48.92388,-64.06499 24.47879,-48.23922 33.75298,-102.46374 46.59691,-155.0115 11.31116,-46.27677 25.77324,-92.24284 49.45348,-133.57961 21.0205,-36.69387 49.77964,-69.78989 86.53921,-90.69528 19.2996,-10.9758 40.71618,-18.48073 62.81231,-20.64955 22.09613,-2.16883 44.87237,1.12071 64.93245,10.63575 29.71679,14.09548 52.02962,41.22461 64.63341,71.60412 12.6038,30.37952 16.17523,63.865 15.23602,96.74187 -0.87737,30.71235 -5.62364,61.47514 -16.09838,90.35935 -8.49687,23.43021 -20.92119,45.74336 -38.52735,63.38407 -17.60616,17.64071 -40.67398,30.377 -65.44473,33.1305 -20.00542,2.22379 -40.51861,-2.12498 -58.48131,-11.20813 -17.9627,-9.08315 -33.41634,-22.77349 -45.60627,-38.79122 C 452.97961,577.33935 441.94553,537.01497 436.8614,497.08002 428.9006,434.54934 434.24233,371.09666 430.21638,308.18997 426.83889,255.41562 416.66972,202.55822 394.53682,154.53037 372.40392,106.50252 337.71176,63.415305 292.21935,36.452734 246.0691,9.1002735 189.69397,-0.50847256 137.08859,10.011783 84.483202,20.532038 36.139373,51.08294 4.0580306,94.080496 L 24.773201,226.98197 c 20.046425,-49.37165 64.03607,-88.36288 115.457039,-102.33799 51.42096,-13.9751 109.0953,-2.61394 151.37443,29.81898 23.54971,18.06531 42.21502,42.0477 55.97279,68.34728 13.75777,26.29958 22.73571,54.90542 28.72475,83.9756 14.2301,69.07138 11.7843,140.29927 13.11424,210.80872 1.08292,57.41332 5.09995,116.38743 29.37334,168.42842 12.13669,26.0205 29.36047,49.92791 51.7063,67.95648 22.34583,18.02857 49.96779,29.96038 78.62975,31.65076 22.37634,1.31967 44.94879,-3.59175 65.26879,-13.05429 20.32,-9.46253 38.42095,-23.39047 53.65456,-39.83368 30.46723,-32.88641 49.12217,-75.07234 62.05475,-117.99689 24.21729,-80.37968 30.02319,-165.95081 19.64032,-249.25487 -4.75826,-38.17655 -13.05457,-76.45289 -30.78258,-110.59682 -17.72801,-34.14393 -45.73093,-64.0473 -81.48853,-78.24182 -31.87198,-12.65207 -68.17539,-12.04638 -100.85198,-1.64744 -32.6766,10.39894 -61.87997,30.1263 -86.42273,54.07522 -63.66593,62.12546 -95.15985,149.32964 -122.65782,233.92742 -16.28728,50.10798 -32.15388,101.0517 -59.98863,145.78772 -10.70206,17.20035 -23.27972,33.52163 -39.25333,45.98075 -15.97362,12.45912 -35.63327,20.87104 -55.89125,20.89254 -17.1668,0.0182 -34.12283,-6.03558 -48.04018,-16.0858 C 110.44989,649.53205 99.518315,635.61548 92.065359,620.15092 77.159445,589.22179 76.261516,553.20339 81.487661,519.26986 90.696856,459.47425 118.23463,402.88855 158.21127,357.47719 c 7.4728,-8.48871 15.37146,-16.60249 23.65634,-24.30064 z"
   id="path843"
   inkscape:path-effect="#path-effect845"
   inkscape:original-d="M 181.86761,333.17655 122.22644,192.62617 c 0,0 -31.926605,42.72676 -42.437621,66.97657 -35.040964,80.8425 -80.08106355,168.88625 -66.224359,255.89987 17.127507,107.55273 67.15388,274.18692 176.05682,275.23167 101.08509,0.96975 122.3795,-162.2279 168.28935,-252.29133 21.56302,-42.30115 24.30271,-93.30816 49.45348,-133.57961 22.13461,-35.44197 48.79639,-72.76337 86.53921,-90.69528 38.57937,-18.32936 90.78035,-31.41394 127.74476,-10.0138 53.75231,31.11931 71.61217,106.78676 79.86943,168.34599 4.06731,30.3225 -1.44574,63.50238 -16.09838,90.35935 -22.64791,41.51158 -56.73738,98.75567 -103.97208,96.51457 C 509.07587,655.94044 463.83382,564.32484 436.8614,497.08002 413.40711,438.60622 445.95775,369.19406 430.21638,308.18997 404.83377,209.82228 383.6176,80.801785 292.21935,36.452734 204.09057,-6.3098773 4.0580306,94.080496 4.0580306,94.080496 L 24.773201,226.98197 c 0,0 181.900559,-108.32513 266.831469,-72.51901 53.53268,22.5689 68.37474,96.56743 84.69754,152.32288 19.7814,67.56936 -7.67491,143.54258 13.11424,210.80872 30.70987,99.36596 56.69992,253.69204 159.70939,268.03566 82.17616,11.44268 145.16203,-96.04459 180.9781,-170.88486 35.97729,-75.17715 38.54953,-168.08583 19.64032,-249.25487 -16.61504,-71.3211 -44.2838,-161.6268 -112.27111,-188.83864 -60.18331,-24.0883 -136.88548,11.64539 -187.27471,52.42778 -68.43827,55.39033 -85.42339,154.14344 -122.65782,233.92742 -22.22319,47.6187 -27.18126,104.73791 -59.98863,145.78772 -24.20169,30.28206 -57.2786,75.17346 -95.14458,66.87329 C 113.50407,662.75653 84.012938,579.51879 81.487661,519.26986 78.98811,459.63472 124.14636,406.48923 158.21127,357.47719 c 6.45176,-9.28269 23.65634,-24.30064 23.65634,-24.30064 z"
   sodipodi:nodetypes="ccaaaaaaaaaaaaaccaaaaaaaaaaaaac" /></svg>
